solid Exported from Blender-3.6.8
facet normal 0.439811 0.898090 0.000000
outer loop
vertex 0.002468 0.003740 0.150000
vertex 0.002468 0.003740 0.000000
vertex 0.002343 0.003801 0.000000
endloop
endfacet
facet normal 0.439810 0.898091 0.000000
outer loop
vertex 0.002468 0.003740 0.150000
vertex 0.002343 0.003801 0.000000
vertex 0.002343 0.003801 0.150000
endloop
endfacet
facet normal 0.460702 -0.887555 0.000000
outer loop
vertex 0.001980 0.000047 0.150000
vertex 0.001980 0.000047 0.000000
vertex 0.002050 0.000083 0.000000
endloop
endfacet
facet normal 0.460702 -0.887555 0.000000
outer loop
vertex 0.001980 0.000047 0.150000
vertex 0.002050 0.000083 0.000000
vertex 0.002050 0.000083 0.150000
endloop
endfacet
facet normal -0.915458 -0.402414 0.000000
outer loop
vertex 0.000164 0.001456 0.150000
vertex 0.000164 0.001456 0.000000
vertex 0.000214 0.001343 0.000000
endloop
endfacet
facet normal -0.915458 -0.402414 0.000000
outer loop
vertex 0.000164 0.001456 0.150000
vertex 0.000214 0.001343 0.000000
vertex 0.000214 0.001343 0.150000
endloop
endfacet
facet normal 0.000000 0.000000 -1.000000
outer loop
vertex 0.001760 0.000000 0.000000
vertex 0.001683 0.000003 0.000000
vertex 0.001605 0.000013 0.000000
endloop
endfacet
facet normal 0.000000 0.000000 -1.000000
outer loop
vertex 0.001605 0.000013 0.000000
vertex 0.001442 0.000055 0.000000
vertex 0.001271 0.000121 0.000000
endloop
endfacet
facet normal 0.000000 0.000000 -1.000000
outer loop
vertex 0.001271 0.000121 0.000000
vertex 0.001183 0.000160 0.000000
vertex 0.001093 0.000204 0.000000
endloop
endfacet
facet normal 0.000000 0.000000 -1.000000
outer loop
vertex 0.001093 0.000204 0.000000
vertex 0.001006 0.000251 0.000000
vertex 0.000928 0.000305 0.000000
endloop
endfacet
facet normal 0.000000 0.000000 -1.000000
outer loop
vertex 0.000928 0.000305 0.000000
vertex 0.000856 0.000364 0.000000
vertex 0.000728 0.000503 0.000000
endloop
endfacet
facet normal 0.000000 0.000000 -1.000000
outer loop
vertex 0.000728 0.000503 0.000000
vertex 0.000609 0.000669 0.000000
vertex 0.000550 0.000763 0.000000
endloop
endfacet
facet normal 0.000000 0.000000 -1.000000
outer loop
vertex 0.000550 0.000763 0.000000
vertex 0.000489 0.000865 0.000000
vertex 0.000357 0.001092 0.000000
endloop
endfacet
facet normal 0.000000 0.000000 -1.000000
outer loop
vertex 0.000357 0.001092 0.000000
vertex 0.000282 0.001219 0.000000
vertex 0.000214 0.001343 0.000000
endloop
endfacet
facet normal 0.000000 0.000000 -1.000000
outer loop
vertex 0.000214 0.001343 0.000000
vertex 0.000164 0.001456 0.000000
vertex 0.000131 0.001559 0.000000
endloop
endfacet
facet normal 0.000000 0.000000 -1.000000
outer loop
vertex 0.000131 0.001559 0.000000
vertex 0.000110 0.001653 0.000000
vertex 0.000100 0.001740 0.000000
endloop
endfacet
facet normal 0.000000 0.000000 -1.000000
outer loop
vertex 0.000100 0.001740 0.000000
vertex 0.000099 0.001821 0.000000
vertex 0.000119 0.002124 0.000000
endloop
endfacet
facet normal 0.000000 0.000000 -1.000000
outer loop
vertex 0.000119 0.002124 0.000000
vertex 0.000000 0.003771 0.000000
vertex 0.000435 0.004060 0.000000
endloop
endfacet
facet normal 0.000000 0.000000 -1.000000
outer loop
vertex 0.000435 0.004060 0.000000
vertex 0.000484 0.004083 0.000000
vertex 0.000535 0.004101 0.000000
endloop
endfacet
facet normal 0.000000 0.000000 -1.000000
outer loop
vertex 0.000535 0.004101 0.000000
vertex 0.000565 0.004109 0.000000
vertex 0.000599 0.004117 0.000000
endloop
endfacet
facet normal 0.000000 0.000000 -1.000000
outer loop
vertex 0.000599 0.004117 0.000000
vertex 0.000675 0.004130 0.000000
vertex 0.000762 0.004135 0.000000
endloop
endfacet
facet normal 0.000000 0.000000 -1.000000
outer loop
vertex 0.000762 0.004135 0.000000
vertex 0.000809 0.004134 0.000000
vertex 0.000858 0.004132 0.000000
endloop
endfacet
facet normal 0.000000 0.000000 -1.000000
outer loop
vertex 0.000858 0.004132 0.000000
vertex 0.000962 0.004126 0.000000
vertex 0.001072 0.004118 0.000000
endloop
endfacet
facet normal 0.000000 0.000000 -1.000000
outer loop
vertex 0.001072 0.004118 0.000000
vertex 0.001186 0.004108 0.000000
vertex 0.001243 0.004102 0.000000
endloop
endfacet
facet normal 0.000000 0.000000 -1.000000
outer loop
vertex 0.001243 0.004102 0.000000
vertex 0.001300 0.004095 0.000000
vertex 0.001357 0.004088 0.000000
endloop
endfacet
facet normal 0.000000 0.000000 -1.000000
outer loop
vertex 0.001357 0.004088 0.000000
vertex 0.001412 0.004081 0.000000
vertex 0.001467 0.004073 0.000000
endloop
endfacet
facet normal 0.000000 0.000000 -1.000000
outer loop
vertex 0.001467 0.004073 0.000000
vertex 0.001524 0.004062 0.000000
vertex 0.001588 0.004048 0.000000
endloop
endfacet
facet normal 0.000000 0.000000 -1.000000
outer loop
vertex 0.001588 0.004048 0.000000
vertex 0.001657 0.004032 0.000000
vertex 0.001730 0.004012 0.000000
endloop
endfacet
facet normal 0.000000 0.000000 -1.000000
outer loop
vertex 0.001730 0.004012 0.000000
vertex 0.001806 0.003990 0.000000
vertex 0.001885 0.003966 0.000000
endloop
endfacet
facet normal 0.000000 0.000000 -1.000000
outer loop
vertex 0.001885 0.003966 0.000000
vertex 0.001965 0.003940 0.000000
vertex 0.002123 0.003886 0.000000
endloop
endfacet
facet normal 0.000000 0.000000 -1.000000
outer loop
vertex 0.002123 0.003886 0.000000
vertex 0.002200 0.003858 0.000000
vertex 0.002274 0.003829 0.000000
endloop
endfacet
facet normal 0.000000 0.000000 -1.000000
outer loop
vertex 0.002274 0.003829 0.000000
vertex 0.002343 0.003801 0.000000
vertex 0.002468 0.003740 0.000000
endloop
endfacet
facet normal 0.000000 0.000000 -1.000000
outer loop
vertex 0.002468 0.003740 0.000000
vertex 0.002577 0.003667 0.000000
vertex 0.002675 0.003584 0.000000
endloop
endfacet
facet normal 0.000000 0.000000 -1.000000
outer loop
vertex 0.002675 0.003584 0.000000
vertex 0.002764 0.003487 0.000000
vertex 0.002933 0.003257 0.000000
endloop
endfacet
facet normal 0.000000 0.000000 -1.000000
outer loop
vertex 0.002933 0.003257 0.000000
vertex 0.002971 0.003193 0.000000
vertex 0.002999 0.003129 0.000000
endloop
endfacet
facet normal 0.000000 0.000000 -1.000000
outer loop
vertex 0.002999 0.003129 0.000000
vertex 0.003020 0.003064 0.000000
vertex 0.003034 0.002998 0.000000
endloop
endfacet
facet normal 0.000000 0.000000 -1.000000
outer loop
vertex 0.003034 0.002998 0.000000
vertex 0.003041 0.002930 0.000000
vertex 0.003042 0.002784 0.000000
endloop
endfacet
facet normal 0.000000 0.000000 -1.000000
outer loop
vertex 0.003042 0.002784 0.000000
vertex 0.003037 0.002704 0.000000
vertex 0.003030 0.002619 0.000000
endloop
endfacet
facet normal 0.000000 0.000000 -1.000000
outer loop
vertex 0.003042 0.002784 0.000000
vertex 0.003030 0.002619 0.000000
vertex 0.003021 0.002529 0.000000
endloop
endfacet
facet normal 0.000000 0.000000 -1.000000
outer loop
vertex 0.002999 0.003129 0.000000
vertex 0.003034 0.002998 0.000000
vertex 0.003042 0.002784 0.000000
endloop
endfacet
facet normal 0.000000 0.000000 -1.000000
outer loop
vertex 0.002675 0.003584 0.000000
vertex 0.002933 0.003257 0.000000
vertex 0.002999 0.003129 0.000000
endloop
endfacet
facet normal 0.000000 0.000000 -1.000000
outer loop
vertex 0.002274 0.003829 0.000000
vertex 0.002468 0.003740 0.000000
vertex 0.002675 0.003584 0.000000
endloop
endfacet
facet normal 0.000000 0.000000 -1.000000
outer loop
vertex 0.001885 0.003966 0.000000
vertex 0.002123 0.003886 0.000000
vertex 0.002274 0.003829 0.000000
endloop
endfacet
facet normal 0.000000 0.000000 -1.000000
outer loop
vertex 0.001588 0.004048 0.000000
vertex 0.001730 0.004012 0.000000
vertex 0.001885 0.003966 0.000000
endloop
endfacet
facet normal 0.000000 0.000000 -1.000000
outer loop
vertex 0.001357 0.004088 0.000000
vertex 0.001467 0.004073 0.000000
vertex 0.001588 0.004048 0.000000
endloop
endfacet
facet normal 0.000000 0.000000 -1.000000
outer loop
vertex 0.001072 0.004118 0.000000
vertex 0.001243 0.004102 0.000000
vertex 0.001357 0.004088 0.000000
endloop
endfacet
facet normal 0.000000 0.000000 -1.000000
outer loop
vertex 0.000762 0.004135 0.000000
vertex 0.000858 0.004132 0.000000
vertex 0.001072 0.004118 0.000000
endloop
endfacet
facet normal 0.000000 0.000000 -1.000000
outer loop
vertex 0.000535 0.004101 0.000000
vertex 0.000599 0.004117 0.000000
vertex 0.000762 0.004135 0.000000
endloop
endfacet
facet normal 0.000000 0.000000 -1.000000
outer loop
vertex 0.000119 0.002124 0.000000
vertex 0.000435 0.004060 0.000000
vertex 0.000535 0.004101 0.000000
endloop
endfacet
facet normal 0.000000 0.000000 -1.000000
outer loop
vertex 0.000131 0.001559 0.000000
vertex 0.000100 0.001740 0.000000
vertex 0.000119 0.002124 0.000000
endloop
endfacet
facet normal 0.000000 0.000000 -1.000000
outer loop
vertex 0.000357 0.001092 0.000000
vertex 0.000214 0.001343 0.000000
vertex 0.000131 0.001559 0.000000
endloop
endfacet
facet normal 0.000000 0.000000 -1.000000
outer loop
vertex 0.000728 0.000503 0.000000
vertex 0.000550 0.000763 0.000000
vertex 0.000357 0.001092 0.000000
endloop
endfacet
facet normal 0.000000 0.000000 -1.000000
outer loop
vertex 0.001093 0.000204 0.000000
vertex 0.000928 0.000305 0.000000
vertex 0.000728 0.000503 0.000000
endloop
endfacet
facet normal 0.000000 0.000000 -1.000000
outer loop
vertex 0.001605 0.000013 0.000000
vertex 0.001271 0.000121 0.000000
vertex 0.001093 0.000204 0.000000
endloop
endfacet
facet normal 0.000000 0.000000 -1.000000
outer loop
vertex 0.001835 0.000006 0.000000
vertex 0.001760 0.000000 0.000000
vertex 0.001605 0.000013 0.000000
endloop
endfacet
facet normal 0.000000 0.000000 -1.000000
outer loop
vertex 0.001980 0.000047 0.000000
vertex 0.001909 0.000022 0.000000
vertex 0.001835 0.000006 0.000000
endloop
endfacet
facet normal 0.000000 0.000000 -1.000000
outer loop
vertex 0.002116 0.000125 0.000000
vertex 0.002050 0.000083 0.000000
vertex 0.001980 0.000047 0.000000
endloop
endfacet
facet normal 0.000000 0.000000 -1.000000
outer loop
vertex 0.002232 0.000204 0.000000
vertex 0.002176 0.000165 0.000000
vertex 0.002116 0.000125 0.000000
endloop
endfacet
facet normal 0.000000 0.000000 -1.000000
outer loop
vertex 0.002633 0.000576 0.000000
vertex 0.002283 0.000243 0.000000
vertex 0.002232 0.000204 0.000000
endloop
endfacet
facet normal 0.000000 0.000000 -1.000000
outer loop
vertex 0.002730 0.000650 0.000000
vertex 0.002699 0.000627 0.000000
vertex 0.002667 0.000603 0.000000
endloop
endfacet
facet normal 0.000000 0.000000 -1.000000
outer loop
vertex 0.002633 0.000576 0.000000
vertex 0.002232 0.000204 0.000000
vertex 0.002116 0.000125 0.000000
endloop
endfacet
facet normal 0.000000 0.000000 -1.000000
outer loop
vertex 0.002758 0.000675 0.000000
vertex 0.002730 0.000650 0.000000
vertex 0.002667 0.000603 0.000000
endloop
endfacet
facet normal 0.000000 0.000000 -1.000000
outer loop
vertex 0.002633 0.000576 0.000000
vertex 0.002116 0.000125 0.000000
vertex 0.001980 0.000047 0.000000
endloop
endfacet
facet normal 0.000000 0.000000 -1.000000
outer loop
vertex 0.002785 0.000706 0.000000
vertex 0.002758 0.000675 0.000000
vertex 0.002667 0.000603 0.000000
endloop
endfacet
facet normal 0.000000 0.000000 -1.000000
outer loop
vertex 0.002633 0.000576 0.000000
vertex 0.001980 0.000047 0.000000
vertex 0.001835 0.000006 0.000000
endloop
endfacet
facet normal 0.000000 0.000000 -1.000000
outer loop
vertex 0.002785 0.000706 0.000000
vertex 0.002667 0.000603 0.000000
vertex 0.002633 0.000576 0.000000
endloop
endfacet
facet normal 0.000000 0.000000 -1.000000
outer loop
vertex 0.002832 0.000796 0.000000
vertex 0.002810 0.000745 0.000000
vertex 0.002785 0.000706 0.000000
endloop
endfacet
facet normal 0.000000 0.000000 -1.000000
outer loop
vertex 0.002870 0.000943 0.000000
vertex 0.002852 0.000861 0.000000
vertex 0.002832 0.000796 0.000000
endloop
endfacet
facet normal 0.000000 0.000000 -1.000000
outer loop
vertex 0.002898 0.001171 0.000000
vertex 0.002885 0.001046 0.000000
vertex 0.002870 0.000943 0.000000
endloop
endfacet
facet normal 0.000000 0.000000 -1.000000
outer loop
vertex 0.002909 0.001302 0.000000
vertex 0.002898 0.001171 0.000000
vertex 0.002870 0.000943 0.000000
endloop
endfacet
facet normal 0.000000 0.000000 -1.000000
outer loop
vertex 0.002870 0.000943 0.000000
vertex 0.002832 0.000796 0.000000
vertex 0.002785 0.000706 0.000000
endloop
endfacet
facet normal 0.000000 0.000000 -1.000000
outer loop
vertex 0.002785 0.000706 0.000000
vertex 0.002633 0.000576 0.000000
vertex 0.001835 0.000006 0.000000
endloop
endfacet
facet normal 0.000000 0.000000 -1.000000
outer loop
vertex 0.001835 0.000006 0.000000
vertex 0.001605 0.000013 0.000000
vertex 0.001093 0.000204 0.000000
endloop
endfacet
facet normal 0.000000 0.000000 -1.000000
outer loop
vertex 0.001093 0.000204 0.000000
vertex 0.000728 0.000503 0.000000
vertex 0.000357 0.001092 0.000000
endloop
endfacet
facet normal 0.000000 0.000000 -1.000000
outer loop
vertex 0.000357 0.001092 0.000000
vertex 0.000131 0.001559 0.000000
vertex 0.000119 0.002124 0.000000
endloop
endfacet
facet normal 0.000000 0.000000 -1.000000
outer loop
vertex 0.000119 0.002124 0.000000
vertex 0.000535 0.004101 0.000000
vertex 0.000762 0.004135 0.000000
endloop
endfacet
facet normal 0.000000 0.000000 -1.000000
outer loop
vertex 0.000762 0.004135 0.000000
vertex 0.001072 0.004118 0.000000
vertex 0.001357 0.004088 0.000000
endloop
endfacet
facet normal 0.000000 0.000000 -1.000000
outer loop
vertex 0.001357 0.004088 0.000000
vertex 0.001588 0.004048 0.000000
vertex 0.001885 0.003966 0.000000
endloop
endfacet
facet normal 0.000000 0.000000 -1.000000
outer loop
vertex 0.001885 0.003966 0.000000
vertex 0.002274 0.003829 0.000000
vertex 0.002675 0.003584 0.000000
endloop
endfacet
facet normal 0.000000 0.000000 -1.000000
outer loop
vertex 0.002675 0.003584 0.000000
vertex 0.002999 0.003129 0.000000
vertex 0.003042 0.002784 0.000000
endloop
endfacet
facet normal 0.000000 0.000000 -1.000000
outer loop
vertex 0.003042 0.002784 0.000000
vertex 0.003021 0.002529 0.000000
vertex 0.003012 0.002431 0.000000
endloop
endfacet
facet normal 0.000000 0.000000 -1.000000
outer loop
vertex 0.003004 0.002326 0.000000
vertex 0.002997 0.002222 0.000000
vertex 0.002989 0.002128 0.000000
endloop
endfacet
facet normal 0.000000 0.000000 -1.000000
outer loop
vertex 0.002675 0.003584 0.000000
vertex 0.003042 0.002784 0.000000
vertex 0.003012 0.002431 0.000000
endloop
endfacet
facet normal 0.000000 0.000000 -1.000000
outer loop
vertex 0.003004 0.002326 0.000000
vertex 0.002989 0.002128 0.000000
vertex 0.002982 0.002040 0.000000
endloop
endfacet
facet normal 0.000000 0.000000 -1.000000
outer loop
vertex 0.002675 0.003584 0.000000
vertex 0.003012 0.002431 0.000000
vertex 0.003004 0.002326 0.000000
endloop
endfacet
facet normal 0.000000 0.000000 -1.000000
outer loop
vertex 0.001357 0.004088 0.000000
vertex 0.001885 0.003966 0.000000
vertex 0.002675 0.003584 0.000000
endloop
endfacet
facet normal 0.000000 0.000000 -1.000000
outer loop
vertex 0.000119 0.002124 0.000000
vertex 0.000762 0.004135 0.000000
vertex 0.001357 0.004088 0.000000
endloop
endfacet
facet normal 0.000000 0.000000 -1.000000
outer loop
vertex 0.001093 0.000204 0.000000
vertex 0.000357 0.001092 0.000000
vertex 0.000119 0.002124 0.000000
endloop
endfacet
facet normal 0.000000 0.000000 -1.000000
outer loop
vertex 0.002785 0.000706 0.000000
vertex 0.001835 0.000006 0.000000
vertex 0.001093 0.000204 0.000000
endloop
endfacet
facet normal 0.000000 0.000000 -1.000000
outer loop
vertex 0.002909 0.001302 0.000000
vertex 0.002870 0.000943 0.000000
vertex 0.002785 0.000706 0.000000
endloop
endfacet
facet normal 0.000000 0.000000 -1.000000
outer loop
vertex 0.002920 0.001419 0.000000
vertex 0.002909 0.001302 0.000000
vertex 0.002785 0.000706 0.000000
endloop
endfacet
facet normal 0.000000 0.000000 -1.000000
outer loop
vertex 0.002785 0.000706 0.000000
vertex 0.001093 0.000204 0.000000
vertex 0.000119 0.002124 0.000000
endloop
endfacet
facet normal 0.000000 0.000000 -1.000000
outer loop
vertex 0.000119 0.002124 0.000000
vertex 0.001357 0.004088 0.000000
vertex 0.002675 0.003584 0.000000
endloop
endfacet
facet normal 0.000000 0.000000 -1.000000
outer loop
vertex 0.002675 0.003584 0.000000
vertex 0.003004 0.002326 0.000000
vertex 0.002982 0.002040 0.000000
endloop
endfacet
facet normal 0.000000 0.000000 -1.000000
outer loop
vertex 0.002982 0.002040 0.000000
vertex 0.002974 0.001956 0.000000
vertex 0.002965 0.001875 0.000000
endloop
endfacet
facet normal 0.000000 0.000000 -1.000000
outer loop
vertex 0.002965 0.001875 0.000000
vertex 0.002957 0.001793 0.000000
vertex 0.002948 0.001709 0.000000
endloop
endfacet
facet normal 0.000000 0.000000 -1.000000
outer loop
vertex 0.002982 0.002040 0.000000
vertex 0.002965 0.001875 0.000000
vertex 0.002948 0.001709 0.000000
endloop
endfacet
facet normal 0.000000 0.000000 -1.000000
outer loop
vertex 0.000119 0.002124 0.000000
vertex 0.002675 0.003584 0.000000
vertex 0.002982 0.002040 0.000000
endloop
endfacet
facet normal 0.000000 0.000000 -1.000000
outer loop
vertex 0.002920 0.001419 0.000000
vertex 0.002785 0.000706 0.000000
vertex 0.000119 0.002124 0.000000
endloop
endfacet
facet normal 0.000000 0.000000 -1.000000
outer loop
vertex 0.002930 0.001524 0.000000
vertex 0.002920 0.001419 0.000000
vertex 0.000119 0.002124 0.000000
endloop
endfacet
facet normal 0.000000 0.000000 -1.000000
outer loop
vertex 0.000119 0.002124 0.000000
vertex 0.002982 0.002040 0.000000
vertex 0.002948 0.001709 0.000000
endloop
endfacet
facet normal 0.000000 0.000000 -1.000000
outer loop
vertex 0.002939 0.001620 0.000000
vertex 0.002930 0.001524 0.000000
vertex 0.000119 0.002124 0.000000
endloop
endfacet
facet normal 0.000000 0.000000 -1.000000
outer loop
vertex 0.000119 0.002124 0.000000
vertex 0.002948 0.001709 0.000000
vertex 0.002939 0.001620 0.000000
endloop
endfacet
facet normal -0.033842 -0.999427 0.000000
outer loop
vertex 0.001683 0.000003 0.150000
vertex 0.001683 0.000003 0.000000
vertex 0.001760 0.000000 0.000000
endloop
endfacet
facet normal -0.033842 -0.999427 0.000000
outer loop
vertex 0.001683 0.000003 0.150000
vertex 0.001760 0.000000 0.000000
vertex 0.001760 0.000000 0.150000
endloop
endfacet
facet normal -0.997773 0.066699 0.000000
outer loop
vertex 0.000119 0.002124 0.000000
vertex 0.000099 0.001821 0.000000
vertex 0.000099 0.001821 0.150000
endloop
endfacet
facet normal -0.997773 0.066699 0.000000
outer loop
vertex 0.000119 0.002124 0.000000
vertex 0.000099 0.001821 0.150000
vertex 0.000119 0.002124 0.150000
endloop
endfacet
facet normal -0.977266 -0.212016 0.000000
outer loop
vertex 0.000110 0.001653 0.150000
vertex 0.000110 0.001653 0.000000
vertex 0.000131 0.001559 0.000000
endloop
endfacet
facet normal -0.977266 -0.212016 0.000000
outer loop
vertex 0.000110 0.001653 0.150000
vertex 0.000131 0.001559 0.000000
vertex 0.000131 0.001559 0.150000
endloop
endfacet
facet normal 0.080298 -0.996771 0.000000
outer loop
vertex 0.001760 0.000000 0.150000
vertex 0.001760 0.000000 0.000000
vertex 0.001835 0.000006 0.000000
endloop
endfacet
facet normal 0.080299 -0.996771 0.000000
outer loop
vertex 0.001760 0.000000 0.150000
vertex 0.001835 0.000006 0.000000
vertex 0.001835 0.000006 0.150000
endloop
endfacet
facet normal 0.001701 0.000000 0.999999
outer loop
vertex 0.001588 0.004048 0.150000
vertex 0.001524 0.004062 0.150000
vertex 0.001467 0.004073 0.150000
endloop
endfacet
facet normal 0.000000 0.000000 1.000000
outer loop
vertex 0.001467 0.004073 0.150000
vertex 0.001412 0.004081 0.150000
vertex 0.001357 0.004088 0.150000
endloop
endfacet
facet normal -0.006547 0.000000 0.999979
outer loop
vertex 0.001357 0.004088 0.150000
vertex 0.001300 0.004095 0.150000
vertex 0.001243 0.004102 0.150000
endloop
endfacet
facet normal 0.000000 0.000000 1.000000
outer loop
vertex 0.001243 0.004102 0.150000
vertex 0.001186 0.004108 0.150000
vertex 0.001072 0.004118 0.150000
endloop
endfacet
facet normal -0.000654 0.000000 1.000000
outer loop
vertex 0.001072 0.004118 0.150000
vertex 0.000962 0.004126 0.150000
vertex 0.000858 0.004132 0.150000
endloop
endfacet
facet normal -0.000198 0.000000 1.000000
outer loop
vertex 0.000858 0.004132 0.150000
vertex 0.000809 0.004134 0.150000
vertex 0.000762 0.004135 0.150000
endloop
endfacet
facet normal -0.000346 0.000000 1.000000
outer loop
vertex 0.000762 0.004135 0.150000
vertex 0.000675 0.004130 0.150000
vertex 0.000599 0.004117 0.150000
endloop
endfacet
facet normal -0.004736 0.000000 0.999989
outer loop
vertex 0.000599 0.004117 0.150000
vertex 0.000565 0.004109 0.150000
vertex 0.000535 0.004101 0.150000
endloop
endfacet
facet normal 0.001442 0.000000 0.999999
outer loop
vertex 0.000535 0.004101 0.150000
vertex 0.000484 0.004083 0.150000
vertex 0.000435 0.004060 0.150000
endloop
endfacet
facet normal 0.000000 0.000000 1.000000
outer loop
vertex 0.000435 0.004060 0.150000
vertex 0.000000 0.003771 0.150000
vertex 0.000119 0.002124 0.150000
endloop
endfacet
facet normal 0.000835 0.000000 1.000000
outer loop
vertex 0.000119 0.002124 0.150000
vertex 0.000099 0.001821 0.150000
vertex 0.000100 0.001740 0.150000
endloop
endfacet
facet normal 0.000000 0.000000 1.000000
outer loop
vertex 0.000100 0.001740 0.150000
vertex 0.000110 0.001653 0.150000
vertex 0.000131 0.001559 0.150000
endloop
endfacet
facet normal 0.000000 0.000000 1.000000
outer loop
vertex 0.000131 0.001559 0.150000
vertex 0.000164 0.001456 0.150000
vertex 0.000214 0.001343 0.150000
endloop
endfacet
facet normal -0.005298 0.000000 0.999986
outer loop
vertex 0.000214 0.001343 0.150000
vertex 0.000282 0.001219 0.150000
vertex 0.000357 0.001092 0.150000
endloop
endfacet
facet normal -0.010404 0.000000 0.999946
outer loop
vertex 0.000357 0.001092 0.150000
vertex 0.000489 0.000865 0.150000
vertex 0.000550 0.000763 0.150000
endloop
endfacet
facet normal -0.002719 0.000000 0.999996
outer loop
vertex 0.000550 0.000763 0.150000
vertex 0.000609 0.000669 0.150000
vertex 0.000728 0.000503 0.150000
endloop
endfacet
facet normal 0.000000 0.000000 1.000000
outer loop
vertex 0.000728 0.000503 0.150000
vertex 0.000856 0.000364 0.150000
vertex 0.000928 0.000305 0.150000
endloop
endfacet
facet normal 0.001017 0.000000 0.999999
outer loop
vertex 0.000928 0.000305 0.150000
vertex 0.001006 0.000251 0.150000
vertex 0.001093 0.000204 0.150000
endloop
endfacet
facet normal -0.003689 0.000000 0.999993
outer loop
vertex 0.001093 0.000204 0.150000
vertex 0.001183 0.000160 0.150000
vertex 0.001271 0.000121 0.150000
endloop
endfacet
facet normal 0.000000 0.000000 1.000000
outer loop
vertex 0.001271 0.000121 0.150000
vertex 0.001442 0.000055 0.150000
vertex 0.001605 0.000013 0.150000
endloop
endfacet
facet normal -0.000375 0.000000 1.000000
outer loop
vertex 0.001605 0.000013 0.150000
vertex 0.001683 0.000003 0.150000
vertex 0.001760 0.000000 0.150000
endloop
endfacet
facet normal 0.000637 0.000000 1.000000
outer loop
vertex 0.001760 0.000000 0.150000
vertex 0.001835 0.000006 0.150000
vertex 0.001909 0.000022 0.150000
endloop
endfacet
facet normal -0.001116 0.000000 0.999999
outer loop
vertex 0.001909 0.000022 0.150000
vertex 0.001980 0.000047 0.150000
vertex 0.002050 0.000083 0.150000
endloop
endfacet
facet normal -0.005614 0.000000 0.999984
outer loop
vertex 0.002050 0.000083 0.150000
vertex 0.002116 0.000125 0.150000
vertex 0.002176 0.000165 0.150000
endloop
endfacet
facet normal -0.006806 0.000000 0.999977
outer loop
vertex 0.002176 0.000165 0.150000
vertex 0.002232 0.000204 0.150000
vertex 0.002283 0.000243 0.150000
endloop
endfacet
facet normal 0.000901 0.000000 1.000000
outer loop
vertex 0.002176 0.000165 0.150000
vertex 0.002283 0.000243 0.150000
vertex 0.002633 0.000576 0.150000
endloop
endfacet
facet normal 0.000975 0.000000 1.000000
outer loop
vertex 0.001909 0.000022 0.150000
vertex 0.002050 0.000083 0.150000
vertex 0.002176 0.000165 0.150000
endloop
endfacet
facet normal 0.000000 0.000000 1.000000
outer loop
vertex 0.001605 0.000013 0.150000
vertex 0.001760 0.000000 0.150000
vertex 0.001909 0.000022 0.150000
endloop
endfacet
facet normal 0.000000 0.000000 1.000000
outer loop
vertex 0.001093 0.000204 0.150000
vertex 0.001271 0.000121 0.150000
vertex 0.001605 0.000013 0.150000
endloop
endfacet
facet normal -0.000293 0.000000 1.000000
outer loop
vertex 0.000728 0.000503 0.150000
vertex 0.000928 0.000305 0.150000
vertex 0.001093 0.000204 0.150000
endloop
endfacet
facet normal 0.000891 0.000000 1.000000
outer loop
vertex 0.000357 0.001092 0.150000
vertex 0.000550 0.000763 0.150000
vertex 0.000728 0.000503 0.150000
endloop
endfacet
facet normal 0.000738 0.000000 1.000000
outer loop
vertex 0.000131 0.001559 0.150000
vertex 0.000214 0.001343 0.150000
vertex 0.000357 0.001092 0.150000
endloop
endfacet
facet normal 0.000244 0.000000 1.000000
outer loop
vertex 0.000119 0.002124 0.150000
vertex 0.000100 0.001740 0.150000
vertex 0.000131 0.001559 0.150000
endloop
endfacet
facet normal 0.000000 0.000000 1.000000
outer loop
vertex 0.000535 0.004101 0.150000
vertex 0.000435 0.004060 0.150000
vertex 0.000119 0.002124 0.150000
endloop
endfacet
facet normal 0.000000 0.000000 1.000000
outer loop
vertex 0.000762 0.004135 0.150000
vertex 0.000599 0.004117 0.150000
vertex 0.000535 0.004101 0.150000
endloop
endfacet
facet normal -0.000161 0.000000 1.000000
outer loop
vertex 0.001072 0.004118 0.150000
vertex 0.000858 0.004132 0.150000
vertex 0.000762 0.004135 0.150000
endloop
endfacet
facet normal 0.000000 0.000000 1.000000
outer loop
vertex 0.001357 0.004088 0.150000
vertex 0.001243 0.004102 0.150000
vertex 0.001072 0.004118 0.150000
endloop
endfacet
facet normal -0.000607 0.000000 1.000000
outer loop
vertex 0.001588 0.004048 0.150000
vertex 0.001467 0.004073 0.150000
vertex 0.001357 0.004088 0.150000
endloop
endfacet
facet normal 0.000000 0.000000 1.000000
outer loop
vertex 0.001730 0.004012 0.150000
vertex 0.001657 0.004032 0.150000
vertex 0.001588 0.004048 0.150000
endloop
endfacet
facet normal 0.004329 0.000000 0.999991
outer loop
vertex 0.001885 0.003966 0.150000
vertex 0.001806 0.003990 0.150000
vertex 0.001730 0.004012 0.150000
endloop
endfacet
facet normal 0.006226 0.000000 0.999981
outer loop
vertex 0.002123 0.003886 0.150000
vertex 0.001965 0.003940 0.150000
vertex 0.001885 0.003966 0.150000
endloop
endfacet
facet normal 0.000000 0.000000 1.000000
outer loop
vertex 0.002274 0.003829 0.150000
vertex 0.002200 0.003858 0.150000
vertex 0.002123 0.003886 0.150000
endloop
endfacet
facet normal 0.000000 0.000000 1.000000
outer loop
vertex 0.002468 0.003740 0.150000
vertex 0.002343 0.003801 0.150000
vertex 0.002274 0.003829 0.150000
endloop
endfacet
facet normal 0.000852 0.000000 1.000000
outer loop
vertex 0.002675 0.003584 0.150000
vertex 0.002577 0.003667 0.150000
vertex 0.002468 0.003740 0.150000
endloop
endfacet
facet normal 0.001273 0.000000 0.999999
outer loop
vertex 0.002933 0.003257 0.150000
vertex 0.002764 0.003487 0.150000
vertex 0.002675 0.003584 0.150000
endloop
endfacet
facet normal 0.000000 0.000000 1.000000
outer loop
vertex 0.002999 0.003129 0.150000
vertex 0.002971 0.003193 0.150000
vertex 0.002933 0.003257 0.150000
endloop
endfacet
facet normal 0.000000 0.000000 1.000000
outer loop
vertex 0.003034 0.002998 0.150000
vertex 0.003020 0.003064 0.150000
vertex 0.002999 0.003129 0.150000
endloop
endfacet
facet normal 0.003428 0.000000 0.999994
outer loop
vertex 0.003042 0.002784 0.150000
vertex 0.003041 0.002930 0.150000
vertex 0.003034 0.002998 0.150000
endloop
endfacet
facet normal 0.000000 0.000000 1.000000
outer loop
vertex 0.003030 0.002619 0.150000
vertex 0.003037 0.002704 0.150000
vertex 0.003042 0.002784 0.150000
endloop
endfacet
facet normal 0.000000 0.000000 1.000000
outer loop
vertex 0.003021 0.002529 0.150000
vertex 0.003030 0.002619 0.150000
vertex 0.003042 0.002784 0.150000
endloop
endfacet
facet normal -0.000576 0.000000 1.000000
outer loop
vertex 0.003042 0.002784 0.150000
vertex 0.003034 0.002998 0.150000
vertex 0.002999 0.003129 0.150000
endloop
endfacet
facet normal -0.000646 0.000000 1.000000
outer loop
vertex 0.002999 0.003129 0.150000
vertex 0.002933 0.003257 0.150000
vertex 0.002675 0.003584 0.150000
endloop
endfacet
facet normal -0.000152 0.000000 1.000000
outer loop
vertex 0.002675 0.003584 0.150000
vertex 0.002468 0.003740 0.150000
vertex 0.002274 0.003829 0.150000
endloop
endfacet
facet normal -0.001269 0.000000 0.999999
outer loop
vertex 0.002274 0.003829 0.150000
vertex 0.002123 0.003886 0.150000
vertex 0.001885 0.003966 0.150000
endloop
endfacet
facet normal 0.000000 0.000000 1.000000
outer loop
vertex 0.001885 0.003966 0.150000
vertex 0.001730 0.004012 0.150000
vertex 0.001588 0.004048 0.150000
endloop
endfacet
facet normal 0.000000 0.000000 1.000000
outer loop
vertex 0.001588 0.004048 0.150000
vertex 0.001357 0.004088 0.150000
vertex 0.001072 0.004118 0.150000
endloop
endfacet
facet normal 0.000062 0.000000 1.000000
outer loop
vertex 0.001072 0.004118 0.150000
vertex 0.000762 0.004135 0.150000
vertex 0.000535 0.004101 0.150000
endloop
endfacet
facet normal -0.000169 0.000000 1.000000
outer loop
vertex 0.000535 0.004101 0.150000
vertex 0.000119 0.002124 0.150000
vertex 0.000131 0.001559 0.150000
endloop
endfacet
facet normal -0.000366 0.000000 1.000000
outer loop
vertex 0.000131 0.001559 0.150000
vertex 0.000357 0.001092 0.150000
vertex 0.000728 0.000503 0.150000
endloop
endfacet
facet normal -0.000087 0.000000 1.000000
outer loop
vertex 0.000728 0.000503 0.150000
vertex 0.001093 0.000204 0.150000
vertex 0.001605 0.000013 0.150000
endloop
endfacet
facet normal -0.000088 0.000000 1.000000
outer loop
vertex 0.001605 0.000013 0.150000
vertex 0.001909 0.000022 0.150000
vertex 0.002176 0.000165 0.150000
endloop
endfacet
facet normal 0.000000 0.000000 1.000000
outer loop
vertex 0.001605 0.000013 0.150000
vertex 0.002176 0.000165 0.150000
vertex 0.002633 0.000576 0.150000
endloop
endfacet
facet normal 0.000069 0.000000 1.000000
outer loop
vertex 0.000131 0.001559 0.150000
vertex 0.000728 0.000503 0.150000
vertex 0.001605 0.000013 0.150000
endloop
endfacet
facet normal 0.000000 0.000000 1.000000
outer loop
vertex 0.001072 0.004118 0.150000
vertex 0.000535 0.004101 0.150000
vertex 0.000131 0.001559 0.150000
endloop
endfacet
facet normal 0.000000 0.000000 1.000000
outer loop
vertex 0.001885 0.003966 0.150000
vertex 0.001588 0.004048 0.150000
vertex 0.001072 0.004118 0.150000
endloop
endfacet
facet normal 0.000090 0.000000 1.000000
outer loop
vertex 0.002675 0.003584 0.150000
vertex 0.002274 0.003829 0.150000
vertex 0.001885 0.003966 0.150000
endloop
endfacet
facet normal 0.000000 0.000000 1.000000
outer loop
vertex 0.003042 0.002784 0.150000
vertex 0.002999 0.003129 0.150000
vertex 0.002675 0.003584 0.150000
endloop
endfacet
facet normal 0.000000 0.000000 1.000000
outer loop
vertex 0.003012 0.002431 0.150000
vertex 0.003021 0.002529 0.150000
vertex 0.003042 0.002784 0.150000
endloop
endfacet
facet normal 0.045624 0.000000 0.998959
outer loop
vertex 0.002989 0.002128 0.150000
vertex 0.002997 0.002222 0.150000
vertex 0.003004 0.002326 0.150000
endloop
endfacet
facet normal -0.000095 0.000000 1.000000
outer loop
vertex 0.003012 0.002431 0.150000
vertex 0.003042 0.002784 0.150000
vertex 0.002675 0.003584 0.150000
endloop
endfacet
facet normal 0.000000 0.000000 1.000000
outer loop
vertex 0.002982 0.002040 0.150000
vertex 0.002989 0.002128 0.150000
vertex 0.003004 0.002326 0.150000
endloop
endfacet
facet normal 0.000650 0.000000 1.000000
outer loop
vertex 0.003004 0.002326 0.150000
vertex 0.003012 0.002431 0.150000
vertex 0.002675 0.003584 0.150000
endloop
endfacet
facet normal -0.000038 0.000000 1.000000
outer loop
vertex 0.002675 0.003584 0.150000
vertex 0.001885 0.003966 0.150000
vertex 0.001072 0.004118 0.150000
endloop
endfacet
facet normal 0.000006 0.000000 1.000000
outer loop
vertex 0.001072 0.004118 0.150000
vertex 0.000131 0.001559 0.150000
vertex 0.001605 0.000013 0.150000
endloop
endfacet
facet normal 0.000608 0.000000 1.000000
outer loop
vertex 0.001605 0.000013 0.150000
vertex 0.002633 0.000576 0.150000
vertex 0.002667 0.000603 0.150000
endloop
endfacet
facet normal 0.000000 0.000000 1.000000
outer loop
vertex 0.002667 0.000603 0.150000
vertex 0.002699 0.000627 0.150000
vertex 0.002730 0.000650 0.150000
endloop
endfacet
facet normal 0.000000 0.000000 1.000000
outer loop
vertex 0.002730 0.000650 0.150000
vertex 0.002758 0.000675 0.150000
vertex 0.002785 0.000706 0.150000
endloop
endfacet
facet normal -0.002490 0.000000 0.999997
outer loop
vertex 0.002785 0.000706 0.150000
vertex 0.002810 0.000745 0.150000
vertex 0.002832 0.000796 0.150000
endloop
endfacet
facet normal 0.000000 0.000000 1.000000
outer loop
vertex 0.002832 0.000796 0.150000
vertex 0.002852 0.000861 0.150000
vertex 0.002870 0.000943 0.150000
endloop
endfacet
facet normal -0.005813 0.000000 0.999983
outer loop
vertex 0.002870 0.000943 0.150000
vertex 0.002885 0.001046 0.150000
vertex 0.002898 0.001171 0.150000
endloop
endfacet
facet normal 0.000000 0.000000 1.000000
outer loop
vertex 0.002870 0.000943 0.150000
vertex 0.002898 0.001171 0.150000
vertex 0.002909 0.001302 0.150000
endloop
endfacet
facet normal 0.001032 0.000000 0.999999
outer loop
vertex 0.002785 0.000706 0.150000
vertex 0.002832 0.000796 0.150000
vertex 0.002870 0.000943 0.150000
endloop
endfacet
facet normal -0.001931 0.000000 0.999998
outer loop
vertex 0.002667 0.000603 0.150000
vertex 0.002730 0.000650 0.150000
vertex 0.002785 0.000706 0.150000
endloop
endfacet
facet normal 0.000000 0.000000 1.000000
outer loop
vertex 0.001072 0.004118 0.150000
vertex 0.001605 0.000013 0.150000
vertex 0.002667 0.000603 0.150000
endloop
endfacet
facet normal -0.000016 0.000000 1.000000
outer loop
vertex 0.003004 0.002326 0.150000
vertex 0.002675 0.003584 0.150000
vertex 0.001072 0.004118 0.150000
endloop
endfacet
facet normal 0.000000 0.000000 1.000000
outer loop
vertex 0.002974 0.001956 0.150000
vertex 0.002982 0.002040 0.150000
vertex 0.003004 0.002326 0.150000
endloop
endfacet
facet normal -0.083532 0.000000 0.996505
outer loop
vertex 0.002957 0.001793 0.150000
vertex 0.002965 0.001875 0.150000
vertex 0.002974 0.001956 0.150000
endloop
endfacet
facet normal 0.000000 0.000000 1.000000
outer loop
vertex 0.002948 0.001709 0.150000
vertex 0.002957 0.001793 0.150000
vertex 0.002974 0.001956 0.150000
endloop
endfacet
facet normal 0.000076 0.000000 1.000000
outer loop
vertex 0.002974 0.001956 0.150000
vertex 0.003004 0.002326 0.150000
vertex 0.001072 0.004118 0.150000
endloop
endfacet
facet normal -0.000101 0.000000 1.000000
outer loop
vertex 0.001072 0.004118 0.150000
vertex 0.002667 0.000603 0.150000
vertex 0.002785 0.000706 0.150000
endloop
endfacet
facet normal 0.000000 0.000000 1.000000
outer loop
vertex 0.002785 0.000706 0.150000
vertex 0.002870 0.000943 0.150000
vertex 0.002909 0.001302 0.150000
endloop
endfacet
facet normal -0.000441 0.000000 1.000000
outer loop
vertex 0.002785 0.000706 0.150000
vertex 0.002909 0.001302 0.150000
vertex 0.002920 0.001419 0.150000
endloop
endfacet
facet normal 0.000000 0.000000 1.000000
outer loop
vertex 0.002974 0.001956 0.150000
vertex 0.001072 0.004118 0.150000
vertex 0.002785 0.000706 0.150000
endloop
endfacet
facet normal 0.000000 0.000000 1.000000
outer loop
vertex 0.002939 0.001620 0.150000
vertex 0.002948 0.001709 0.150000
vertex 0.002974 0.001956 0.150000
endloop
endfacet
facet normal 0.000000 0.000000 1.000000
outer loop
vertex 0.002785 0.000706 0.150000
vertex 0.002920 0.001419 0.150000
vertex 0.002930 0.001524 0.150000
endloop
endfacet
facet normal 0.000000 0.000000 1.000000
outer loop
vertex 0.002939 0.001620 0.150000
vertex 0.002974 0.001956 0.150000
vertex 0.002785 0.000706 0.150000
endloop
endfacet
facet normal 0.001809 0.000000 0.999998
outer loop
vertex 0.002785 0.000706 0.150000
vertex 0.002930 0.001524 0.150000
vertex 0.002939 0.001620 0.150000
endloop
endfacet
facet normal 0.993984 0.109526 0.000000
outer loop
vertex 0.003041 0.002930 0.150000
vertex 0.003041 0.002930 0.000000
vertex 0.003034 0.002998 0.000000
endloop
endfacet
facet normal 0.993984 0.109526 0.000000
outer loop
vertex 0.003041 0.002930 0.150000
vertex 0.003034 0.002998 0.000000
vertex 0.003034 0.002998 0.150000
endloop
endfacet
facet normal -0.732948 -0.680285 0.000000
outer loop
vertex 0.000856 0.000364 0.000000
vertex 0.000856 0.000364 0.150000
vertex 0.000728 0.000503 0.150000
endloop
endfacet
facet normal -0.732948 -0.680285 0.000000
outer loop
vertex 0.000856 0.000364 0.000000
vertex 0.000728 0.000503 0.150000
vertex 0.000728 0.000503 0.000000
endloop
endfacet
facet normal -0.357638 -0.933860 0.000000
outer loop
vertex 0.001271 0.000121 0.150000
vertex 0.001271 0.000121 0.000000
vertex 0.001442 0.000055 0.000000
endloop
endfacet
facet normal -0.357638 -0.933860 0.000000
outer loop
vertex 0.001271 0.000121 0.150000
vertex 0.001442 0.000055 0.000000
vertex 0.001442 0.000055 0.150000
endloop
endfacet
facet normal -0.993778 -0.111376 0.000000
outer loop
vertex 0.000100 0.001740 0.150000
vertex 0.000100 0.001740 0.000000
vertex 0.000110 0.001653 0.000000
endloop
endfacet
facet normal -0.993778 -0.111376 0.000000
outer loop
vertex 0.000100 0.001740 0.150000
vertex 0.000110 0.001653 0.000000
vertex 0.000110 0.001653 0.150000
endloop
endfacet
facet normal -0.552829 0.833295 0.000000
outer loop
vertex 0.000435 0.004060 0.000000
vertex 0.000000 0.003771 0.000000
vertex 0.000000 0.003771 0.150000
endloop
endfacet
facet normal -0.552829 0.833295 0.000000
outer loop
vertex 0.000435 0.004060 0.000000
vertex 0.000000 0.003771 0.150000
vertex 0.000435 0.004060 0.150000
endloop
endfacet
facet normal -0.814076 -0.580759 0.000000
outer loop
vertex 0.000609 0.000669 0.150000
vertex 0.000609 0.000669 0.000000
vertex 0.000728 0.000503 0.000000
endloop
endfacet
facet normal -0.814076 -0.580759 0.000000
outer loop
vertex 0.000609 0.000669 0.150000
vertex 0.000728 0.000503 0.000000
vertex 0.000728 0.000503 0.150000
endloop
endfacet
facet normal 0.000000 0.000000 1.000000
outer loop
vertex 0.001243 0.004102 0.000000
vertex 0.001186 0.004108 0.000000
vertex 0.001072 0.004118 0.000000
endloop
endfacet
facet normal 0.000000 0.000000 1.000000
outer loop
vertex 0.001072 0.004118 0.000000
vertex 0.000962 0.004126 0.000000
vertex 0.000858 0.004132 0.000000
endloop
endfacet
facet normal 0.000000 0.000000 1.000000
outer loop
vertex 0.000858 0.004132 0.000000
vertex 0.000809 0.004134 0.000000
vertex 0.000762 0.004135 0.000000
endloop
endfacet
facet normal 0.016001 0.999872 0.000000
outer loop
vertex 0.000762 0.004135 0.000000
vertex 0.000762 0.004135 0.150000
vertex 0.000809 0.004134 0.150000
endloop
endfacet
facet normal 0.047324 0.998880 -0.000010
outer loop
vertex 0.000762 0.004135 0.000000
vertex 0.000809 0.004134 0.150000
vertex 0.000858 0.004132 0.150000
endloop
endfacet
facet normal 0.000000 0.000000 1.000000
outer loop
vertex 0.001072 0.004118 0.000000
vertex 0.000858 0.004132 0.000000
vertex 0.000762 0.004135 0.000000
endloop
endfacet
facet normal 0.000000 0.000000 1.000000
outer loop
vertex 0.001300 0.004095 0.000000
vertex 0.001243 0.004102 0.000000
vertex 0.001072 0.004118 0.000000
endloop
endfacet
facet normal 0.000000 0.000000 1.000000
outer loop
vertex 0.001412 0.004081 0.000000
vertex 0.001357 0.004088 0.000000
vertex 0.001300 0.004095 0.000000
endloop
endfacet
facet normal 0.000000 0.000000 1.000000
outer loop
vertex 0.001524 0.004062 0.000000
vertex 0.001467 0.004073 0.000000
vertex 0.001412 0.004081 0.000000
endloop
endfacet
facet normal 0.176789 0.984249 0.000000
outer loop
vertex 0.001467 0.004073 0.150000
vertex 0.001524 0.004062 0.150000
vertex 0.001524 0.004062 0.000000
endloop
endfacet
facet normal 0.147722 0.989029 -0.000011
outer loop
vertex 0.001412 0.004081 0.150000
vertex 0.001467 0.004073 0.150000
vertex 0.001524 0.004062 0.000000
endloop
endfacet
facet normal 0.000000 0.000000 1.000000
outer loop
vertex 0.001524 0.004062 0.000000
vertex 0.001412 0.004081 0.000000
vertex 0.001300 0.004095 0.000000
endloop
endfacet
facet normal 0.000000 0.000000 1.000000
outer loop
vertex 0.001300 0.004095 0.000000
vertex 0.001072 0.004118 0.000000
vertex 0.000762 0.004135 0.000000
endloop
endfacet
facet normal 0.058614 0.998281 -0.000017
outer loop
vertex 0.000762 0.004135 0.000000
vertex 0.000858 0.004132 0.150000
vertex 0.000962 0.004126 0.150000
endloop
endfacet
facet normal 0.073629 0.997286 -0.000037
outer loop
vertex 0.000762 0.004135 0.000000
vertex 0.000962 0.004126 0.150000
vertex 0.001072 0.004118 0.150000
endloop
endfacet
facet normal 0.000000 0.000000 1.000000
outer loop
vertex 0.001524 0.004062 0.000000
vertex 0.001300 0.004095 0.000000
vertex 0.000762 0.004135 0.000000
endloop
endfacet
facet normal 0.134716 0.990884 -0.000021
outer loop
vertex 0.001357 0.004088 0.150000
vertex 0.001412 0.004081 0.150000
vertex 0.001524 0.004062 0.000000
endloop
endfacet
facet normal 0.123050 0.992401 -0.000035
outer loop
vertex 0.001300 0.004095 0.150000
vertex 0.001357 0.004088 0.150000
vertex 0.001524 0.004062 0.000000
endloop
endfacet
facet normal 0.095236 0.995455 -0.000082
outer loop
vertex 0.001524 0.004062 0.000000
vertex 0.000762 0.004135 0.000000
vertex 0.001072 0.004118 0.150000
endloop
endfacet
facet normal 0.089621 0.995976 -0.000099
outer loop
vertex 0.001524 0.004062 0.000000
vertex 0.001072 0.004118 0.150000
vertex 0.001186 0.004108 0.150000
endloop
endfacet
facet normal 0.112476 0.993654 -0.000051
outer loop
vertex 0.001243 0.004102 0.150000
vertex 0.001300 0.004095 0.150000
vertex 0.001524 0.004062 0.000000
endloop
endfacet
facet normal 0.102787 0.994703 -0.000069
outer loop
vertex 0.001186 0.004108 0.150000
vertex 0.001243 0.004102 0.150000
vertex 0.001524 0.004062 0.000000
endloop
endfacet
facet normal -0.429127 0.903244 0.000000
outer loop
vertex 0.000484 0.004083 0.000000
vertex 0.000435 0.004060 0.000000
vertex 0.000435 0.004060 0.150000
endloop
endfacet
facet normal -0.429127 0.903244 0.000000
outer loop
vertex 0.000484 0.004083 0.000000
vertex 0.000435 0.004060 0.150000
vertex 0.000484 0.004083 0.150000
endloop
endfacet
facet normal -0.160364 0.987058 0.000000
outer loop
vertex 0.000599 0.004117 0.000000
vertex 0.000599 0.004117 0.150000
vertex 0.000675 0.004130 0.150000
endloop
endfacet
facet normal -0.160364 0.987058 0.000000
outer loop
vertex 0.000599 0.004117 0.000000
vertex 0.000675 0.004130 0.150000
vertex 0.000675 0.004130 0.000000
endloop
endfacet
facet normal -0.409613 -0.912259 0.000000
outer loop
vertex 0.001183 0.000160 0.000000
vertex 0.001271 0.000121 0.000000
vertex 0.001271 0.000121 0.150000
endloop
endfacet
facet normal -0.409615 -0.912259 0.000000
outer loop
vertex 0.001183 0.000160 0.000000
vertex 0.001271 0.000121 0.150000
vertex 0.001183 0.000160 0.150000
endloop
endfacet
facet normal -0.482436 -0.875931 0.000000
outer loop
vertex 0.001006 0.000251 0.150000
vertex 0.001006 0.000251 0.000000
vertex 0.001093 0.000204 0.000000
endloop
endfacet
facet normal -0.432716 -0.901530 0.000000
outer loop
vertex 0.001093 0.000204 0.000000
vertex 0.001183 0.000160 0.000000
vertex 0.001183 0.000160 0.150000
endloop
endfacet
facet normal -0.482436 -0.875931 0.000000
outer loop
vertex 0.001093 0.000204 0.150000
vertex 0.001006 0.000251 0.150000
vertex 0.001093 0.000204 0.000000
endloop
endfacet
facet normal -0.432715 -0.901531 0.000000
outer loop
vertex 0.001183 0.000160 0.150000
vertex 0.001093 0.000204 0.150000
vertex 0.001093 0.000204 0.000000
endloop
endfacet
facet normal 0.000000 0.000000 1.000000
outer loop
vertex 0.002667 0.000603 0.000000
vertex 0.002699 0.000627 0.000000
vertex 0.002730 0.000650 0.000000
endloop
endfacet
facet normal 0.663756 -0.747949 0.000000
outer loop
vertex 0.002730 0.000650 0.000000
vertex 0.002758 0.000675 0.000000
vertex 0.002758 0.000675 0.150000
endloop
endfacet
facet normal 0.663766 -0.747940 0.000000
outer loop
vertex 0.002730 0.000650 0.000000
vertex 0.002758 0.000675 0.150000
vertex 0.002730 0.000650 0.150000
endloop
endfacet
facet normal 0.627132 -0.778913 0.000000
outer loop
vertex 0.002633 0.000576 0.150000
vertex 0.002633 0.000576 0.000000
vertex 0.002667 0.000603 0.000000
endloop
endfacet
facet normal 0.597091 -0.802174 0.000000
outer loop
vertex 0.002667 0.000603 0.000000
vertex 0.002730 0.000650 0.000000
vertex 0.002730 0.000650 0.150000
endloop
endfacet
facet normal 0.602812 -0.797883 -0.000004
outer loop
vertex 0.002667 0.000603 0.000000
vertex 0.002730 0.000650 0.150000
vertex 0.002699 0.000627 0.150000
endloop
endfacet
facet normal 0.627132 -0.778913 0.000000
outer loop
vertex 0.002667 0.000603 0.150000
vertex 0.002633 0.000576 0.150000
vertex 0.002667 0.000603 0.000000
endloop
endfacet
facet normal 0.591585 -0.806243 0.000000
outer loop
vertex 0.002699 0.000627 0.150000
vertex 0.002667 0.000603 0.150000
vertex 0.002667 0.000603 0.000000
endloop
endfacet
facet normal -0.249989 -0.968249 0.000000
outer loop
vertex 0.001442 0.000055 0.150000
vertex 0.001442 0.000055 0.000000
vertex 0.001605 0.000013 0.000000
endloop
endfacet
facet normal -0.249988 -0.968249 0.000000
outer loop
vertex 0.001442 0.000055 0.150000
vertex 0.001605 0.000013 0.000000
vertex 0.001605 0.000013 0.150000
endloop
endfacet
facet normal 0.000000 0.000000 1.000000
outer loop
vertex 0.003021 0.002529 0.000000
vertex 0.003030 0.002619 0.000000
vertex 0.003037 0.002704 0.000000
endloop
endfacet
facet normal 0.998024 -0.062834 0.000000
outer loop
vertex 0.003037 0.002704 0.000000
vertex 0.003042 0.002784 0.000000
vertex 0.003042 0.002784 0.150000
endloop
endfacet
facet normal 0.998024 -0.062829 0.000000
outer loop
vertex 0.003037 0.002704 0.000000
vertex 0.003042 0.002784 0.150000
vertex 0.003037 0.002704 0.150000
endloop
endfacet
facet normal 0.000000 0.000000 1.000000
outer loop
vertex 0.003012 0.002431 0.000000
vertex 0.003021 0.002529 0.000000
vertex 0.003037 0.002704 0.000000
endloop
endfacet
facet normal 0.000000 0.000000 1.000000
outer loop
vertex 0.002989 0.002128 0.000000
vertex 0.002997 0.002222 0.000000
vertex 0.003004 0.002326 0.000000
endloop
endfacet
facet normal 0.996003 -0.089323 0.000000
outer loop
vertex 0.003012 0.002431 0.000000
vertex 0.003037 0.002704 0.000000
vertex 0.003037 0.002704 0.150000
endloop
endfacet
facet normal 0.000000 0.000000 1.000000
outer loop
vertex 0.002982 0.002040 0.000000
vertex 0.002989 0.002128 0.000000
vertex 0.003004 0.002326 0.000000
endloop
endfacet
facet normal 0.997061 -0.076611 -0.000023
outer loop
vertex 0.003004 0.002326 0.000000
vertex 0.003012 0.002431 0.000000
vertex 0.003037 0.002704 0.150000
endloop
endfacet
facet normal 0.996378 -0.085041 -0.000002
outer loop
vertex 0.003004 0.002326 0.000000
vertex 0.003037 0.002704 0.150000
vertex 0.003030 0.002619 0.150000
endloop
endfacet
facet normal 0.000000 0.000000 1.000000
outer loop
vertex 0.002974 0.001956 0.000000
vertex 0.002982 0.002040 0.000000
vertex 0.003004 0.002326 0.000000
endloop
endfacet
facet normal 0.000000 0.000000 1.000000
outer loop
vertex 0.002957 0.001793 0.000000
vertex 0.002965 0.001875 0.000000
vertex 0.002974 0.001956 0.000000
endloop
endfacet
facet normal 0.000000 0.000000 1.000000
outer loop
vertex 0.002948 0.001709 0.000000
vertex 0.002957 0.001793 0.000000
vertex 0.002974 0.001956 0.000000
endloop
endfacet
facet normal 0.996586 -0.082564 -0.000007
outer loop
vertex 0.002974 0.001956 0.000000
vertex 0.003004 0.002326 0.000000
vertex 0.003030 0.002619 0.150000
endloop
endfacet
facet normal 0.995656 -0.093112 0.000040
outer loop
vertex 0.002974 0.001956 0.000000
vertex 0.003030 0.002619 0.150000
vertex 0.003021 0.002529 0.150000
endloop
endfacet
facet normal 0.000000 0.000000 1.000000
outer loop
vertex 0.002939 0.001620 0.000000
vertex 0.002948 0.001709 0.000000
vertex 0.002974 0.001956 0.000000
endloop
endfacet
facet normal 0.994756 -0.102277 0.000075
outer loop
vertex 0.002939 0.001620 0.000000
vertex 0.002974 0.001956 0.000000
vertex 0.003021 0.002529 0.150000
endloop
endfacet
facet normal 0.995984 -0.089527 -0.000002
outer loop
vertex 0.002939 0.001620 0.000000
vertex 0.003021 0.002529 0.150000
vertex 0.003012 0.002431 0.150000
endloop
endfacet
facet normal 0.995082 -0.099059 0.000050
outer loop
vertex 0.002930 0.001524 0.000000
vertex 0.002939 0.001620 0.000000
vertex 0.003012 0.002431 0.150000
endloop
endfacet
facet normal 0.997062 -0.076604 -0.000087
outer loop
vertex 0.002930 0.001524 0.000000
vertex 0.003012 0.002431 0.150000
vertex 0.003004 0.002326 0.150000
endloop
endfacet
facet normal 0.995525 -0.094503 0.000009
outer loop
vertex 0.002920 0.001419 0.000000
vertex 0.002930 0.001524 0.000000
vertex 0.003004 0.002326 0.150000
endloop
endfacet
facet normal 0.997436 -0.071561 -0.000131
outer loop
vertex 0.002920 0.001419 0.000000
vertex 0.003004 0.002326 0.150000
vertex 0.002997 0.002222 0.150000
endloop
endfacet
facet normal 0.000000 0.000000 1.000000
outer loop
vertex 0.002885 0.001046 0.000000
vertex 0.002898 0.001171 0.000000
vertex 0.002909 0.001302 0.000000
endloop
endfacet
facet normal 0.996008 -0.089266 -0.000035
outer loop
vertex 0.002909 0.001302 0.000000
vertex 0.002920 0.001419 0.000000
vertex 0.002997 0.002222 0.150000
endloop
endfacet
facet normal 0.996828 -0.079589 -0.000095
outer loop
vertex 0.002909 0.001302 0.000000
vertex 0.002997 0.002222 0.150000
vertex 0.002989 0.002128 0.150000
endloop
endfacet
facet normal 0.000000 0.000000 1.000000
outer loop
vertex 0.002870 0.000943 0.000000
vertex 0.002885 0.001046 0.000000
vertex 0.002909 0.001302 0.000000
endloop
endfacet
facet normal 0.989120 -0.147114 0.000000
outer loop
vertex 0.002885 0.001046 0.150000
vertex 0.002870 0.000943 0.150000
vertex 0.002870 0.000943 0.000000
endloop
endfacet
facet normal 0.995006 -0.099812 -0.000033
outer loop
vertex 0.002898 0.001171 0.150000
vertex 0.002885 0.001046 0.150000
vertex 0.002870 0.000943 0.000000
endloop
endfacet
facet normal 0.994194 -0.107600 0.000061
outer loop
vertex 0.002870 0.000943 0.000000
vertex 0.002909 0.001302 0.000000
vertex 0.002989 0.002128 0.150000
endloop
endfacet
facet normal 0.996169 -0.087452 -0.000100
outer loop
vertex 0.002870 0.000943 0.000000
vertex 0.002989 0.002128 0.150000
vertex 0.002982 0.002040 0.150000
endloop
endfacet
facet normal 0.996483 -0.083795 -0.000058
outer loop
vertex 0.002909 0.001302 0.150000
vertex 0.002898 0.001171 0.150000
vertex 0.002870 0.000943 0.000000
endloop
endfacet
facet normal 0.996008 -0.089263 -0.000044
outer loop
vertex 0.002920 0.001419 0.150000
vertex 0.002909 0.001302 0.150000
vertex 0.002870 0.000943 0.000000
endloop
endfacet
facet normal 0.995532 -0.094430 -0.000049
outer loop
vertex 0.002870 0.000943 0.000000
vertex 0.002982 0.002040 0.150000
vertex 0.002974 0.001956 0.150000
endloop
endfacet
facet normal 0.995006 -0.099816 -0.000012
outer loop
vertex 0.002870 0.000943 0.000000
vertex 0.002974 0.001956 0.150000
vertex 0.002965 0.001875 0.150000
endloop
endfacet
facet normal 0.995525 -0.094499 -0.000028
outer loop
vertex 0.002930 0.001524 0.150000
vertex 0.002920 0.001419 0.150000
vertex 0.002870 0.000943 0.000000
endloop
endfacet
facet normal 0.995082 -0.099059 -0.000010
outer loop
vertex 0.002939 0.001620 0.150000
vertex 0.002930 0.001524 0.150000
vertex 0.002870 0.000943 0.000000
endloop
endfacet
facet normal 0.994678 -0.103034 0.000008
outer loop
vertex 0.002870 0.000943 0.000000
vertex 0.002965 0.001875 0.150000
vertex 0.002957 0.001793 0.150000
endloop
endfacet
facet normal 0.994747 -0.102366 0.000005
outer loop
vertex 0.002948 0.001709 0.150000
vertex 0.002939 0.001620 0.150000
vertex 0.002870 0.000943 0.000000
endloop
endfacet
facet normal 0.994595 -0.103832 0.000013
outer loop
vertex 0.002957 0.001793 0.150000
vertex 0.002948 0.001709 0.150000
vertex 0.002870 0.000943 0.000000
endloop
endfacet
facet normal -0.329740 0.944072 0.000000
outer loop
vertex 0.000535 0.004101 0.000000
vertex 0.000484 0.004083 0.000000
vertex 0.000484 0.004083 0.150000
endloop
endfacet
facet normal -0.329738 0.944072 0.000000
outer loop
vertex 0.000535 0.004101 0.000000
vertex 0.000484 0.004083 0.150000
vertex 0.000535 0.004101 0.150000
endloop
endfacet
facet normal -0.228344 0.973581 0.000000
outer loop
vertex 0.000599 0.004117 0.150000
vertex 0.000599 0.004117 0.000000
vertex 0.000565 0.004109 0.000000
endloop
endfacet
facet normal -0.270453 0.962733 0.000000
outer loop
vertex 0.000565 0.004109 0.000000
vertex 0.000535 0.004101 0.000000
vertex 0.000535 0.004101 0.150000
endloop
endfacet
facet normal -0.228343 0.973581 0.000000
outer loop
vertex 0.000565 0.004109 0.150000
vertex 0.000599 0.004117 0.150000
vertex 0.000565 0.004109 0.000000
endloop
endfacet
facet normal -0.270452 0.962734 0.000000
outer loop
vertex 0.000565 0.004109 0.000000
vertex 0.000535 0.004101 0.150000
vertex 0.000565 0.004109 0.150000
endloop
endfacet
facet normal -0.639592 -0.768714 0.000000
outer loop
vertex 0.000856 0.000364 0.150000
vertex 0.000856 0.000364 0.000000
vertex 0.000928 0.000305 0.000000
endloop
endfacet
facet normal -0.639592 -0.768714 0.000000
outer loop
vertex 0.000856 0.000364 0.150000
vertex 0.000928 0.000305 0.000000
vertex 0.000928 0.000305 0.150000
endloop
endfacet
facet normal -0.950144 -0.311812 0.000000
outer loop
vertex 0.000131 0.001559 0.150000
vertex 0.000131 0.001559 0.000000
vertex 0.000164 0.001456 0.000000
endloop
endfacet
facet normal -0.950144 -0.311812 0.000000
outer loop
vertex 0.000131 0.001559 0.150000
vertex 0.000164 0.001456 0.000000
vertex 0.000164 0.001456 0.150000
endloop
endfacet
facet normal 0.000000 0.000000 -1.000000
outer loop
vertex 0.000282 0.001219 0.000000
vertex 0.000357 0.001092 0.000000
vertex 0.000489 0.000865 0.000000
endloop
endfacet
facet normal -0.846983 -0.531619 0.000000
outer loop
vertex 0.000550 0.000763 0.000000
vertex 0.000609 0.000669 0.000000
vertex 0.000609 0.000669 0.150000
endloop
endfacet
facet normal -0.858428 -0.512934 0.000016
outer loop
vertex 0.000489 0.000865 0.000000
vertex 0.000550 0.000763 0.000000
vertex 0.000609 0.000669 0.150000
endloop
endfacet
facet normal -0.846983 -0.531619 -0.000017
outer loop
vertex 0.000489 0.000865 0.000000
vertex 0.000609 0.000669 0.150000
vertex 0.000550 0.000763 0.150000
endloop
endfacet
facet normal -0.877385 -0.479786 0.000000
outer loop
vertex 0.000214 0.001343 0.150000
vertex 0.000214 0.001343 0.000000
vertex 0.000282 0.001219 0.000000
endloop
endfacet
facet normal -0.863047 -0.505125 0.000007
outer loop
vertex 0.000282 0.001219 0.000000
vertex 0.000489 0.000865 0.000000
vertex 0.000550 0.000763 0.150000
endloop
endfacet
facet normal -0.858428 -0.512934 -0.000025
outer loop
vertex 0.000282 0.001219 0.000000
vertex 0.000550 0.000763 0.150000
vertex 0.000489 0.000865 0.150000
endloop
endfacet
facet normal -0.877386 -0.479786 0.000000
outer loop
vertex 0.000282 0.001219 0.150000
vertex 0.000214 0.001343 0.150000
vertex 0.000282 0.001219 0.000000
endloop
endfacet
facet normal -0.864114 -0.503297 0.000006
outer loop
vertex 0.000282 0.001219 0.000000
vertex 0.000489 0.000865 0.150000
vertex 0.000357 0.001092 0.150000
endloop
endfacet
facet normal -0.861123 -0.508396 0.000000
outer loop
vertex 0.000357 0.001092 0.150000
vertex 0.000282 0.001219 0.150000
vertex 0.000282 0.001219 0.000000
endloop
endfacet
facet normal 0.205696 -0.978616 0.000000
outer loop
vertex 0.001835 0.000006 0.150000
vertex 0.001835 0.000006 0.000000
vertex 0.001909 0.000022 0.000000
endloop
endfacet
facet normal 0.205696 -0.978616 0.000000
outer loop
vertex 0.001835 0.000006 0.150000
vertex 0.001909 0.000022 0.000000
vertex 0.001909 0.000022 0.150000
endloop
endfacet
facet normal -0.563690 -0.825987 0.000000
outer loop
vertex 0.000928 0.000305 0.150000
vertex 0.000928 0.000305 0.000000
vertex 0.001006 0.000251 0.000000
endloop
endfacet
facet normal -0.563689 -0.825987 0.000000
outer loop
vertex 0.000928 0.000305 0.150000
vertex 0.001006 0.000251 0.000000
vertex 0.001006 0.000251 0.150000
endloop
endfacet
facet normal 0.977443 -0.211201 0.000000
outer loop
vertex 0.002852 0.000861 0.150000
vertex 0.002852 0.000861 0.000000
vertex 0.002870 0.000943 0.000000
endloop
endfacet
facet normal 0.977444 -0.211197 0.000000
outer loop
vertex 0.002852 0.000861 0.150000
vertex 0.002870 0.000943 0.000000
vertex 0.002870 0.000943 0.150000
endloop
endfacet
facet normal 0.755705 -0.654912 0.000000
outer loop
vertex 0.002758 0.000675 0.150000
vertex 0.002758 0.000675 0.000000
vertex 0.002785 0.000706 0.000000
endloop
endfacet
facet normal 0.755705 -0.654912 0.000000
outer loop
vertex 0.002758 0.000675 0.150000
vertex 0.002785 0.000706 0.000000
vertex 0.002785 0.000706 0.150000
endloop
endfacet
facet normal 0.000000 0.000000 1.000000
outer loop
vertex 0.001730 0.004012 0.000000
vertex 0.001657 0.004032 0.000000
vertex 0.001588 0.004048 0.000000
endloop
endfacet
facet normal 0.211465 0.977386 0.000000
outer loop
vertex 0.001588 0.004048 0.000000
vertex 0.001524 0.004062 0.000000
vertex 0.001524 0.004062 0.150000
endloop
endfacet
facet normal 0.211465 0.977386 0.000000
outer loop
vertex 0.001588 0.004048 0.000000
vertex 0.001524 0.004062 0.150000
vertex 0.001588 0.004048 0.150000
endloop
endfacet
facet normal 0.000000 0.000000 1.000000
outer loop
vertex 0.001806 0.003990 0.000000
vertex 0.001730 0.004012 0.000000
vertex 0.001588 0.004048 0.000000
endloop
endfacet
facet normal 0.276400 0.961043 0.000000
outer loop
vertex 0.001730 0.004012 0.150000
vertex 0.001806 0.003990 0.150000
vertex 0.001806 0.003990 0.000000
endloop
endfacet
facet normal 0.237746 0.971327 0.000000
outer loop
vertex 0.001588 0.004048 0.000000
vertex 0.001588 0.004048 0.150000
vertex 0.001657 0.004032 0.150000
endloop
endfacet
facet normal 0.258786 0.965935 -0.000010
outer loop
vertex 0.001657 0.004032 0.150000
vertex 0.001730 0.004012 0.150000
vertex 0.001806 0.003990 0.000000
endloop
endfacet
facet normal 0.258412 0.966035 -0.000010
outer loop
vertex 0.001588 0.004048 0.000000
vertex 0.001657 0.004032 0.150000
vertex 0.001806 0.003990 0.000000
endloop
endfacet
facet normal 0.913842 -0.406069 0.000000
outer loop
vertex 0.002810 0.000745 0.150000
vertex 0.002810 0.000745 0.000000
vertex 0.002832 0.000796 0.000000
endloop
endfacet
facet normal 0.913842 -0.406069 0.000000
outer loop
vertex 0.002810 0.000745 0.150000
vertex 0.002832 0.000796 0.000000
vertex 0.002832 0.000796 0.150000
endloop
endfacet
facet normal 0.979332 0.202259 0.000000
outer loop
vertex 0.003034 0.002998 0.150000
vertex 0.003034 0.002998 0.000000
vertex 0.003020 0.003064 0.000000
endloop
endfacet
facet normal 0.979330 0.202270 0.000000
outer loop
vertex 0.003034 0.002998 0.150000
vertex 0.003020 0.003064 0.000000
vertex 0.003020 0.003064 0.150000
endloop
endfacet
facet normal -0.997399 -0.072084 0.000000
outer loop
vertex 0.000000 0.003771 0.000000
vertex 0.000119 0.002124 0.000000
vertex 0.000119 0.002124 0.150000
endloop
endfacet
facet normal -0.997399 -0.072084 0.000000
outer loop
vertex 0.000000 0.003771 0.000000
vertex 0.000119 0.002124 0.150000
vertex 0.000000 0.003771 0.150000
endloop
endfacet
facet normal 0.806446 0.591308 0.000000
outer loop
vertex 0.002764 0.003487 0.000000
vertex 0.002764 0.003487 0.150000
vertex 0.002933 0.003257 0.150000
endloop
endfacet
facet normal 0.806444 0.591310 0.000000
outer loop
vertex 0.002764 0.003487 0.000000
vertex 0.002933 0.003257 0.150000
vertex 0.002933 0.003257 0.000000
endloop
endfacet
facet normal 0.860791 0.508959 0.000000
outer loop
vertex 0.002971 0.003193 0.150000
vertex 0.002971 0.003193 0.000000
vertex 0.002933 0.003257 0.000000
endloop
endfacet
facet normal 0.860793 0.508955 0.000000
outer loop
vertex 0.002971 0.003193 0.150000
vertex 0.002933 0.003257 0.000000
vertex 0.002933 0.003257 0.150000
endloop
endfacet
facet normal -0.999772 -0.021344 0.000000
outer loop
vertex 0.000099 0.001821 0.150000
vertex 0.000099 0.001821 0.000000
vertex 0.000100 0.001740 0.000000
endloop
endfacet
facet normal -0.999772 -0.021344 0.000000
outer loop
vertex 0.000099 0.001821 0.150000
vertex 0.000100 0.001740 0.000000
vertex 0.000100 0.001740 0.150000
endloop
endfacet
facet normal 0.653707 0.756747 0.000000
outer loop
vertex 0.002675 0.003584 0.150000
vertex 0.002675 0.003584 0.000000
vertex 0.002577 0.003667 0.000000
endloop
endfacet
facet normal 0.653706 0.756749 0.000000
outer loop
vertex 0.002675 0.003584 0.150000
vertex 0.002577 0.003667 0.000000
vertex 0.002577 0.003667 0.150000
endloop
endfacet
facet normal 0.335394 -0.942078 0.000000
outer loop
vertex 0.001909 0.000022 0.150000
vertex 0.001909 0.000022 0.000000
vertex 0.001980 0.000047 0.000000
endloop
endfacet
facet normal 0.335394 -0.942078 0.000000
outer loop
vertex 0.001909 0.000022 0.150000
vertex 0.001980 0.000047 0.000000
vertex 0.001980 0.000047 0.150000
endloop
endfacet
facet normal -0.132806 -0.991142 0.000000
outer loop
vertex 0.001605 0.000013 0.150000
vertex 0.001605 0.000013 0.000000
vertex 0.001683 0.000003 0.000000
endloop
endfacet
facet normal -0.132806 -0.991142 0.000000
outer loop
vertex 0.001605 0.000013 0.150000
vertex 0.001683 0.000003 0.000000
vertex 0.001683 0.000003 0.150000
endloop
endfacet
facet normal 0.604081 -0.796923 0.000000
outer loop
vertex 0.002232 0.000204 0.000000
vertex 0.002283 0.000243 0.000000
vertex 0.002283 0.000243 0.150000
endloop
endfacet
facet normal 0.604084 -0.796921 0.000000
outer loop
vertex 0.002232 0.000204 0.000000
vertex 0.002283 0.000243 0.150000
vertex 0.002232 0.000204 0.150000
endloop
endfacet
facet normal 0.579277 -0.815130 0.000000
outer loop
vertex 0.002176 0.000165 0.000000
vertex 0.002232 0.000204 0.000000
vertex 0.002232 0.000204 0.150000
endloop
endfacet
facet normal 0.579277 -0.815130 0.000000
outer loop
vertex 0.002176 0.000165 0.000000
vertex 0.002232 0.000204 0.150000
vertex 0.002176 0.000165 0.150000
endloop
endfacet
facet normal 0.530507 -0.847680 0.000000
outer loop
vertex 0.002050 0.000083 0.150000
vertex 0.002050 0.000083 0.000000
vertex 0.002116 0.000125 0.000000
endloop
endfacet
facet normal 0.554579 -0.832131 0.000000
outer loop
vertex 0.002116 0.000125 0.000000
vertex 0.002176 0.000165 0.000000
vertex 0.002176 0.000165 0.150000
endloop
endfacet
facet normal 0.530505 -0.847682 0.000000
outer loop
vertex 0.002116 0.000125 0.150000
vertex 0.002050 0.000083 0.150000
vertex 0.002116 0.000125 0.000000
endloop
endfacet
facet normal 0.554579 -0.832131 0.000000
outer loop
vertex 0.002176 0.000165 0.150000
vertex 0.002116 0.000125 0.150000
vertex 0.002116 0.000125 0.000000
endloop
endfacet
facet normal 0.552294 0.833650 0.000000
outer loop
vertex 0.002577 0.003667 0.150000
vertex 0.002577 0.003667 0.000000
vertex 0.002468 0.003740 0.000000
endloop
endfacet
facet normal 0.552296 0.833648 0.000000
outer loop
vertex 0.002577 0.003667 0.150000
vertex 0.002468 0.003740 0.000000
vertex 0.002468 0.003740 0.150000
endloop
endfacet
facet normal 0.688705 -0.725041 0.000000
outer loop
vertex 0.002633 0.000576 0.000000
vertex 0.002633 0.000576 0.150000
vertex 0.002283 0.000243 0.150000
endloop
endfacet
facet normal 0.688705 -0.725042 0.000000
outer loop
vertex 0.002633 0.000576 0.000000
vertex 0.002283 0.000243 0.150000
vertex 0.002283 0.000243 0.000000
endloop
endfacet
facet normal 0.733471 0.679720 0.000000
outer loop
vertex 0.002764 0.003487 0.150000
vertex 0.002764 0.003487 0.000000
vertex 0.002675 0.003584 0.000000
endloop
endfacet
facet normal 0.733470 0.679722 0.000000
outer loop
vertex 0.002764 0.003487 0.150000
vertex 0.002675 0.003584 0.000000
vertex 0.002675 0.003584 0.150000
endloop
endfacet
facet normal 0.911725 0.410802 0.000000
outer loop
vertex 0.002999 0.003129 0.150000
vertex 0.002999 0.003129 0.000000
vertex 0.002971 0.003193 0.000000
endloop
endfacet
facet normal 0.911727 0.410797 0.000000
outer loop
vertex 0.002999 0.003129 0.150000
vertex 0.002971 0.003193 0.000000
vertex 0.002971 0.003193 0.150000
endloop
endfacet
facet normal 0.846568 -0.532280 0.000000
outer loop
vertex 0.002785 0.000706 0.150000
vertex 0.002785 0.000706 0.000000
vertex 0.002810 0.000745 0.000000
endloop
endfacet
facet normal 0.846568 -0.532280 0.000000
outer loop
vertex 0.002785 0.000706 0.150000
vertex 0.002810 0.000745 0.000000
vertex 0.002810 0.000745 0.150000
endloop
endfacet
facet normal 0.952161 0.305597 0.000000
outer loop
vertex 0.003020 0.003064 0.150000
vertex 0.003020 0.003064 0.000000
vertex 0.002999 0.003129 0.000000
endloop
endfacet
facet normal 0.952161 0.305597 0.000000
outer loop
vertex 0.003020 0.003064 0.150000
vertex 0.002999 0.003129 0.000000
vertex 0.002999 0.003129 0.150000
endloop
endfacet
facet normal -0.062766 0.998028 0.000000
outer loop
vertex 0.000762 0.004135 0.150000
vertex 0.000762 0.004135 0.000000
vertex 0.000675 0.004130 0.000000
endloop
endfacet
facet normal -0.062766 0.998028 0.000000
outer loop
vertex 0.000762 0.004135 0.150000
vertex 0.000675 0.004130 0.000000
vertex 0.000675 0.004130 0.150000
endloop
endfacet
facet normal 0.999992 0.003919 0.000000
outer loop
vertex 0.003042 0.002784 0.150000
vertex 0.003042 0.002784 0.000000
vertex 0.003041 0.002930 0.000000
endloop
endfacet
facet normal 0.999992 0.003917 0.000000
outer loop
vertex 0.003042 0.002784 0.150000
vertex 0.003041 0.002930 0.000000
vertex 0.003041 0.002930 0.150000
endloop
endfacet
facet normal 0.954936 -0.296812 0.000000
outer loop
vertex 0.002832 0.000796 0.150000
vertex 0.002832 0.000796 0.000000
vertex 0.002852 0.000861 0.000000
endloop
endfacet
facet normal 0.954937 -0.296807 0.000000
outer loop
vertex 0.002832 0.000796 0.150000
vertex 0.002852 0.000861 0.000000
vertex 0.002852 0.000861 0.150000
endloop
endfacet
facet normal 0.291796 0.956480 0.000000
outer loop
vertex 0.001885 0.003966 0.000000
vertex 0.001806 0.003990 0.000000
vertex 0.001806 0.003990 0.150000
endloop
endfacet
facet normal 0.291796 0.956480 0.000000
outer loop
vertex 0.001885 0.003966 0.000000
vertex 0.001806 0.003990 0.150000
vertex 0.001885 0.003966 0.150000
endloop
endfacet
facet normal 0.305800 0.952096 0.000000
outer loop
vertex 0.001965 0.003940 0.000000
vertex 0.001885 0.003966 0.000000
vertex 0.001885 0.003966 0.150000
endloop
endfacet
facet normal 0.305800 0.952096 0.000000
outer loop
vertex 0.001965 0.003940 0.000000
vertex 0.001885 0.003966 0.150000
vertex 0.001965 0.003940 0.150000
endloop
endfacet
facet normal 0.325544 0.945527 0.000000
outer loop
vertex 0.002123 0.003886 0.000000
vertex 0.001965 0.003940 0.000000
vertex 0.001965 0.003940 0.150000
endloop
endfacet
facet normal 0.325544 0.945527 0.000000
outer loop
vertex 0.002123 0.003886 0.000000
vertex 0.001965 0.003940 0.150000
vertex 0.002123 0.003886 0.150000
endloop
endfacet
facet normal 0.345403 0.938455 0.000000
outer loop
vertex 0.002200 0.003858 0.000000
vertex 0.002123 0.003886 0.000000
vertex 0.002123 0.003886 0.150000
endloop
endfacet
facet normal 0.345401 0.938455 0.000000
outer loop
vertex 0.002200 0.003858 0.000000
vertex 0.002123 0.003886 0.150000
vertex 0.002200 0.003858 0.150000
endloop
endfacet
facet normal 0.375385 0.926869 0.000000
outer loop
vertex 0.002343 0.003801 0.150000
vertex 0.002343 0.003801 0.000000
vertex 0.002274 0.003829 0.000000
endloop
endfacet
facet normal 0.359608 0.933104 0.000000
outer loop
vertex 0.002274 0.003829 0.000000
vertex 0.002200 0.003858 0.000000
vertex 0.002200 0.003858 0.150000
endloop
endfacet
facet normal 0.375386 0.926868 0.000000
outer loop
vertex 0.002274 0.003829 0.150000
vertex 0.002343 0.003801 0.150000
vertex 0.002274 0.003829 0.000000
endloop
endfacet
facet normal 0.359609 0.933103 0.000000
outer loop
vertex 0.002200 0.003858 0.150000
vertex 0.002274 0.003829 0.150000
vertex 0.002274 0.003829 0.000000
endloop
endfacet
endsolid Exported from Blender-3.6.8
