solid Exported from Blender-3.6.8
facet normal -0.550764 -0.834661 0.000000
outer loop
vertex 0.009439 0.000080 0.150000
vertex 0.009439 0.000080 0.000000
vertex 0.009502 0.000038 0.000000
endloop
endfacet
facet normal -0.550773 -0.834655 0.000000
outer loop
vertex 0.009439 0.000080 0.150000
vertex 0.009502 0.000038 0.000000
vertex 0.009502 0.000038 0.150000
endloop
endfacet
facet normal 0.358445 0.933551 0.000000
outer loop
vertex 0.003015 0.007679 0.150000
vertex 0.003015 0.007679 0.000000
vertex 0.002930 0.007712 0.000000
endloop
endfacet
facet normal 0.358445 0.933551 0.000000
outer loop
vertex 0.003015 0.007679 0.150000
vertex 0.002930 0.007712 0.000000
vertex 0.002930 0.007712 0.150000
endloop
endfacet
facet normal 0.996529 -0.083252 0.000000
outer loop
vertex 0.011416 0.001713 0.000000
vertex 0.011416 0.001713 0.150000
vertex 0.011401 0.001534 0.150000
endloop
endfacet
facet normal 0.996529 -0.083243 0.000000
outer loop
vertex 0.011416 0.001713 0.000000
vertex 0.011401 0.001534 0.150000
vertex 0.011401 0.001534 0.000000
endloop
endfacet
facet normal 0.251012 0.967984 0.000000
outer loop
vertex 0.003106 0.007655 0.150000
vertex 0.003106 0.007655 0.000000
vertex 0.003015 0.007679 0.000000
endloop
endfacet
facet normal 0.251012 0.967984 0.000000
outer loop
vertex 0.003106 0.007655 0.150000
vertex 0.003015 0.007679 0.000000
vertex 0.003015 0.007679 0.150000
endloop
endfacet
facet normal -0.115364 0.993323 0.000000
outer loop
vertex 0.000684 0.008451 0.150000
vertex 0.000684 0.008451 0.000000
vertex 0.000606 0.008442 0.000000
endloop
endfacet
facet normal -0.115365 0.993323 0.000000
outer loop
vertex 0.000684 0.008451 0.150000
vertex 0.000606 0.008442 0.000000
vertex 0.000606 0.008442 0.150000
endloop
endfacet
facet normal -0.721665 -0.692243 0.000000
outer loop
vertex 0.001579 0.005542 0.150000
vertex 0.001579 0.005542 0.000000
vertex 0.001743 0.005370 0.000000
endloop
endfacet
facet normal -0.721666 -0.692242 0.000000
outer loop
vertex 0.001579 0.005542 0.150000
vertex 0.001743 0.005370 0.000000
vertex 0.001743 0.005370 0.150000
endloop
endfacet
facet normal 0.808168 0.588952 0.000000
outer loop
vertex 0.009825 0.005289 0.150000
vertex 0.009950 0.005117 0.150000
vertex 0.009950 0.005117 0.000000
endloop
endfacet
facet normal 0.808168 0.588952 0.000000
outer loop
vertex 0.009825 0.005289 0.150000
vertex 0.009950 0.005117 0.000000
vertex 0.009825 0.005289 0.000000
endloop
endfacet
facet normal 0.771499 0.636230 0.000000
outer loop
vertex 0.008766 0.006573 0.150000
vertex 0.009825 0.005289 0.150000
vertex 0.009825 0.005289 0.000000
endloop
endfacet
facet normal 0.771499 0.636231 0.000000
outer loop
vertex 0.008766 0.006573 0.150000
vertex 0.009825 0.005289 0.000000
vertex 0.008766 0.006573 0.000000
endloop
endfacet
facet normal 0.746209 0.665711 0.000000
outer loop
vertex 0.008695 0.006653 0.150000
vertex 0.008766 0.006573 0.150000
vertex 0.008766 0.006573 0.000000
endloop
endfacet
facet normal 0.746209 0.665711 0.000000
outer loop
vertex 0.008695 0.006653 0.150000
vertex 0.008766 0.006573 0.000000
vertex 0.008695 0.006653 0.000000
endloop
endfacet
facet normal 0.698497 0.715613 0.000000
outer loop
vertex 0.008547 0.006803 0.000000
vertex 0.008547 0.006803 0.150000
vertex 0.008622 0.006730 0.150000
endloop
endfacet
facet normal 0.725034 0.688713 0.000000
outer loop
vertex 0.008622 0.006730 0.150000
vertex 0.008695 0.006653 0.150000
vertex 0.008695 0.006653 0.000000
endloop
endfacet
facet normal 0.698490 0.715620 0.000000
outer loop
vertex 0.008622 0.006730 0.000000
vertex 0.008547 0.006803 0.000000
vertex 0.008622 0.006730 0.150000
endloop
endfacet
facet normal 0.725034 0.688713 0.000000
outer loop
vertex 0.008695 0.006653 0.000000
vertex 0.008622 0.006730 0.000000
vertex 0.008622 0.006730 0.150000
endloop
endfacet
facet normal 0.036485 0.999334 0.000000
outer loop
vertex 0.006510 0.007823 0.150000
vertex 0.006510 0.007823 0.000000
vertex 0.006255 0.007832 0.000000
endloop
endfacet
facet normal 0.036484 0.999334 0.000000
outer loop
vertex 0.006510 0.007823 0.150000
vertex 0.006255 0.007832 0.000000
vertex 0.006255 0.007832 0.150000
endloop
endfacet
facet normal 0.263098 -0.964769 0.000000
outer loop
vertex 0.009767 0.000007 0.000000
vertex 0.010854 0.000304 0.000000
vertex 0.010854 0.000304 0.150000
endloop
endfacet
facet normal 0.263098 -0.964769 0.000000
outer loop
vertex 0.009767 0.000007 0.000000
vertex 0.010854 0.000304 0.150000
vertex 0.009767 0.000007 0.150000
endloop
endfacet
facet normal 0.000000 0.000000 1.000000
outer loop
vertex 0.007674 0.007481 0.000000
vertex 0.007572 0.007522 0.000000
vertex 0.006966 0.007729 0.000000
endloop
endfacet
facet normal 0.299438 0.954116 0.000000
outer loop
vertex 0.006966 0.007729 0.000000
vertex 0.006884 0.007755 0.000000
vertex 0.006884 0.007755 0.150000
endloop
endfacet
facet normal 0.299432 0.954118 0.000000
outer loop
vertex 0.006966 0.007729 0.000000
vertex 0.006884 0.007755 0.150000
vertex 0.006966 0.007729 0.150000
endloop
endfacet
facet normal 0.330758 0.943716 0.000000
outer loop
vertex 0.007674 0.007481 0.150000
vertex 0.007674 0.007481 0.000000
vertex 0.006966 0.007729 0.000000
endloop
endfacet
facet normal 0.323092 0.946368 0.000000
outer loop
vertex 0.006966 0.007729 0.000000
vertex 0.006966 0.007729 0.150000
vertex 0.007572 0.007522 0.150000
endloop
endfacet
facet normal 0.374974 0.927035 -0.000236
outer loop
vertex 0.006966 0.007729 0.000000
vertex 0.007572 0.007522 0.150000
vertex 0.007674 0.007481 0.150000
endloop
endfacet
facet normal -0.348722 -0.937226 0.000000
outer loop
vertex 0.009502 0.000038 0.150000
vertex 0.009502 0.000038 0.000000
vertex 0.009575 0.000011 0.000000
endloop
endfacet
facet normal -0.348728 -0.937224 0.000000
outer loop
vertex 0.009502 0.000038 0.150000
vertex 0.009575 0.000011 0.000000
vertex 0.009575 0.000011 0.150000
endloop
endfacet
facet normal 0.649522 0.760343 0.000000
outer loop
vertex 0.008547 0.006803 0.000000
vertex 0.007912 0.007346 0.000000
vertex 0.007912 0.007346 0.150000
endloop
endfacet
facet normal 0.649523 0.760342 0.000000
outer loop
vertex 0.008547 0.006803 0.000000
vertex 0.007912 0.007346 0.150000
vertex 0.008547 0.006803 0.150000
endloop
endfacet
facet normal 0.136309 0.990666 0.000000
outer loop
vertex 0.001452 0.008388 0.000000
vertex 0.001240 0.008417 0.000000
vertex 0.001240 0.008417 0.150000
endloop
endfacet
facet normal 0.136309 0.990666 0.000000
outer loop
vertex 0.001452 0.008388 0.000000
vertex 0.001240 0.008417 0.150000
vertex 0.001452 0.008388 0.150000
endloop
endfacet
facet normal 0.234156 0.972199 0.000000
outer loop
vertex 0.001883 0.008296 0.150000
vertex 0.001883 0.008296 0.000000
vertex 0.001668 0.008348 0.000000
endloop
endfacet
facet normal 0.181530 0.983386 0.000000
outer loop
vertex 0.001668 0.008348 0.000000
vertex 0.001452 0.008388 0.000000
vertex 0.001452 0.008388 0.150000
endloop
endfacet
facet normal 0.234157 0.972199 0.000000
outer loop
vertex 0.001668 0.008348 0.150000
vertex 0.001883 0.008296 0.150000
vertex 0.001668 0.008348 0.000000
endloop
endfacet
facet normal 0.181530 0.983386 0.000000
outer loop
vertex 0.001668 0.008348 0.000000
vertex 0.001452 0.008388 0.150000
vertex 0.001668 0.008348 0.150000
endloop
endfacet
facet normal 0.000000 0.000000 1.000000
outer loop
vertex 0.001941 0.005189 0.000000
vertex 0.002163 0.005001 0.000000
vertex 0.002402 0.004812 0.000000
endloop
endfacet
facet normal -0.620089 -0.784531 0.000000
outer loop
vertex 0.002402 0.004812 0.000000
vertex 0.002402 0.004812 0.150000
vertex 0.002163 0.005001 0.150000
endloop
endfacet
facet normal -0.677731 -0.735310 0.000000
outer loop
vertex 0.001941 0.005189 0.150000
vertex 0.001743 0.005370 0.150000
vertex 0.001743 0.005370 0.000000
endloop
endfacet
facet normal -0.645335 -0.763900 -0.000066
outer loop
vertex 0.002402 0.004812 0.000000
vertex 0.002163 0.005001 0.150000
vertex 0.001941 0.005189 0.150000
endloop
endfacet
facet normal 0.000000 0.000000 1.000000
outer loop
vertex 0.001743 0.005370 0.000000
vertex 0.001941 0.005189 0.000000
vertex 0.002402 0.004812 0.000000
endloop
endfacet
facet normal -0.646782 -0.762675 -0.000074
outer loop
vertex 0.002402 0.004812 0.000000
vertex 0.001941 0.005189 0.150000
vertex 0.001743 0.005370 0.000000
endloop
endfacet
facet normal 0.235100 0.971971 0.000000
outer loop
vertex 0.006884 0.007755 0.150000
vertex 0.006884 0.007755 0.000000
vertex 0.006712 0.007797 0.000000
endloop
endfacet
facet normal 0.235100 0.971971 0.000000
outer loop
vertex 0.006884 0.007755 0.150000
vertex 0.006712 0.007797 0.000000
vertex 0.006712 0.007797 0.150000
endloop
endfacet
facet normal -0.765760 0.643127 0.000000
outer loop
vertex 0.000008 0.008000 0.000000
vertex 0.000000 0.007991 0.000000
vertex 0.000000 0.007991 0.150000
endloop
endfacet
facet normal -0.765760 0.643127 0.000000
outer loop
vertex 0.000008 0.008000 0.000000
vertex 0.000000 0.007991 0.150000
vertex 0.000008 0.008000 0.150000
endloop
endfacet
facet normal -0.754415 0.656398 0.000000
outer loop
vertex 0.000029 0.008025 0.000000
vertex 0.000008 0.008000 0.000000
vertex 0.000008 0.008000 0.150000
endloop
endfacet
facet normal -0.754415 0.656398 0.000000
outer loop
vertex 0.000029 0.008025 0.000000
vertex 0.000008 0.008000 0.150000
vertex 0.000029 0.008025 0.150000
endloop
endfacet
facet normal -0.739745 0.672887 0.000000
outer loop
vertex 0.000064 0.008063 0.000000
vertex 0.000029 0.008025 0.000000
vertex 0.000029 0.008025 0.150000
endloop
endfacet
facet normal -0.739745 0.672887 0.000000
outer loop
vertex 0.000064 0.008063 0.000000
vertex 0.000029 0.008025 0.150000
vertex 0.000064 0.008063 0.150000
endloop
endfacet
facet normal -0.721730 0.692175 0.000000
outer loop
vertex 0.000109 0.008110 0.000000
vertex 0.000064 0.008063 0.000000
vertex 0.000064 0.008063 0.150000
endloop
endfacet
facet normal -0.721730 0.692175 0.000000
outer loop
vertex 0.000109 0.008110 0.000000
vertex 0.000064 0.008063 0.150000
vertex 0.000109 0.008110 0.150000
endloop
endfacet
facet normal -0.671315 0.741172 0.000000
outer loop
vertex 0.000227 0.008221 0.150000
vertex 0.000227 0.008221 0.000000
vertex 0.000164 0.008164 0.000000
endloop
endfacet
facet normal -0.699427 0.714704 0.000000
outer loop
vertex 0.000164 0.008164 0.000000
vertex 0.000109 0.008110 0.000000
vertex 0.000109 0.008110 0.150000
endloop
endfacet
facet normal -0.671315 0.741172 0.000000
outer loop
vertex 0.000164 0.008164 0.150000
vertex 0.000227 0.008221 0.150000
vertex 0.000164 0.008164 0.000000
endloop
endfacet
facet normal -0.699427 0.714704 0.000000
outer loop
vertex 0.000109 0.008110 0.150000
vertex 0.000164 0.008164 0.150000
vertex 0.000164 0.008164 0.000000
endloop
endfacet
facet normal -0.000347 0.000000 1.000000
outer loop
vertex 0.001883 0.008296 0.150000
vertex 0.001668 0.008348 0.150000
vertex 0.001452 0.008388 0.150000
endloop
endfacet
facet normal 0.000992 0.000000 0.999999
outer loop
vertex 0.001452 0.008388 0.150000
vertex 0.001240 0.008417 0.150000
vertex 0.001137 0.008428 0.150000
endloop
endfacet
facet normal 0.000435 0.000000 1.000000
outer loop
vertex 0.001137 0.008428 0.150000
vertex 0.001037 0.008437 0.150000
vertex 0.000850 0.008447 0.150000
endloop
endfacet
facet normal 0.000000 0.000000 1.000000
outer loop
vertex 0.000850 0.008447 0.150000
vertex 0.000764 0.008450 0.150000
vertex 0.000684 0.008451 0.150000
endloop
endfacet
facet normal 0.000000 0.000000 1.000000
outer loop
vertex 0.000684 0.008451 0.150000
vertex 0.000606 0.008442 0.150000
vertex 0.000527 0.008417 0.150000
endloop
endfacet
facet normal 0.000000 0.000000 1.000000
outer loop
vertex 0.000527 0.008417 0.150000
vertex 0.000448 0.008379 0.150000
vertex 0.000370 0.008332 0.150000
endloop
endfacet
facet normal 0.003019 0.000000 0.999995
outer loop
vertex 0.000370 0.008332 0.150000
vertex 0.000227 0.008221 0.150000
vertex 0.000164 0.008164 0.150000
endloop
endfacet
facet normal 0.005690 0.000000 0.999984
outer loop
vertex 0.000164 0.008164 0.150000
vertex 0.000109 0.008110 0.150000
vertex 0.000064 0.008063 0.150000
endloop
endfacet
facet normal 0.012148 0.000000 0.999926
outer loop
vertex 0.000064 0.008063 0.150000
vertex 0.000029 0.008025 0.150000
vertex 0.000008 0.008000 0.150000
endloop
endfacet
facet normal 0.000000 0.000000 1.000000
outer loop
vertex 0.000008 0.008000 0.150000
vertex 0.000000 0.007991 0.150000
vertex 0.000020 0.007884 0.150000
endloop
endfacet
facet normal -0.001302 0.000000 0.999999
outer loop
vertex 0.000020 0.007884 0.150000
vertex 0.000077 0.007737 0.150000
vertex 0.000165 0.007557 0.150000
endloop
endfacet
facet normal 0.000000 0.000000 1.000000
outer loop
vertex 0.000165 0.007557 0.150000
vertex 0.000280 0.007351 0.150000
vertex 0.000418 0.007125 0.150000
endloop
endfacet
facet normal 0.003879 0.000000 0.999993
outer loop
vertex 0.000418 0.007125 0.150000
vertex 0.000572 0.006885 0.150000
vertex 0.000738 0.006639 0.150000
endloop
endfacet
facet normal 0.001447 0.000000 0.999999
outer loop
vertex 0.000738 0.006639 0.150000
vertex 0.001087 0.006154 0.150000
vertex 0.001260 0.005928 0.150000
endloop
endfacet
facet normal -0.002025 0.000000 0.999998
outer loop
vertex 0.001260 0.005928 0.150000
vertex 0.001426 0.005722 0.150000
vertex 0.001579 0.005542 0.150000
endloop
endfacet
facet normal 0.000929 0.000000 1.000000
outer loop
vertex 0.001579 0.005542 0.150000
vertex 0.001743 0.005370 0.150000
vertex 0.001941 0.005189 0.150000
endloop
endfacet
facet normal 0.001256 0.000000 0.999999
outer loop
vertex 0.001941 0.005189 0.150000
vertex 0.002163 0.005001 0.150000
vertex 0.002402 0.004812 0.150000
endloop
endfacet
facet normal -0.000497 0.000000 1.000000
outer loop
vertex 0.002402 0.004812 0.150000
vertex 0.002901 0.004447 0.150000
vertex 0.003374 0.004130 0.150000
endloop
endfacet
facet normal 0.000000 0.000000 1.000000
outer loop
vertex 0.003374 0.004130 0.150000
vertex 0.003580 0.004002 0.150000
vertex 0.003757 0.003899 0.150000
endloop
endfacet
facet normal 0.000267 0.000000 1.000000
outer loop
vertex 0.003757 0.003899 0.150000
vertex 0.003895 0.003827 0.150000
vertex 0.006041 0.003094 0.150000
endloop
endfacet
facet normal 0.000000 0.000000 1.000000
outer loop
vertex 0.003374 0.004130 0.150000
vertex 0.003757 0.003899 0.150000
vertex 0.006041 0.003094 0.150000
endloop
endfacet
facet normal 0.000281 0.000000 1.000000
outer loop
vertex 0.001941 0.005189 0.150000
vertex 0.002402 0.004812 0.150000
vertex 0.003374 0.004130 0.150000
endloop
endfacet
facet normal -0.000268 0.000000 1.000000
outer loop
vertex 0.001260 0.005928 0.150000
vertex 0.001579 0.005542 0.150000
vertex 0.001941 0.005189 0.150000
endloop
endfacet
facet normal -0.000572 0.000000 1.000000
outer loop
vertex 0.000418 0.007125 0.150000
vertex 0.000738 0.006639 0.150000
vertex 0.001260 0.005928 0.150000
endloop
endfacet
facet normal 0.000000 0.000000 1.000000
outer loop
vertex 0.000020 0.007884 0.150000
vertex 0.000165 0.007557 0.150000
vertex 0.000418 0.007125 0.150000
endloop
endfacet
facet normal 0.000000 0.000000 1.000000
outer loop
vertex 0.000064 0.008063 0.150000
vertex 0.000008 0.008000 0.150000
vertex 0.000020 0.007884 0.150000
endloop
endfacet
facet normal -0.000451 0.000000 1.000000
outer loop
vertex 0.000370 0.008332 0.150000
vertex 0.000164 0.008164 0.150000
vertex 0.000064 0.008063 0.150000
endloop
endfacet
facet normal 0.000226 0.000000 1.000000
outer loop
vertex 0.000684 0.008451 0.150000
vertex 0.000527 0.008417 0.150000
vertex 0.000370 0.008332 0.150000
endloop
endfacet
facet normal 0.000000 0.000000 1.000000
outer loop
vertex 0.001137 0.008428 0.150000
vertex 0.000850 0.008447 0.150000
vertex 0.000684 0.008451 0.150000
endloop
endfacet
facet normal -0.000078 0.000000 1.000000
outer loop
vertex 0.001883 0.008296 0.150000
vertex 0.001452 0.008388 0.150000
vertex 0.001137 0.008428 0.150000
endloop
endfacet
facet normal 0.000394 0.000000 1.000000
outer loop
vertex 0.002254 0.008147 0.150000
vertex 0.002081 0.008229 0.150000
vertex 0.001883 0.008296 0.150000
endloop
endfacet
facet normal 0.000000 0.000000 1.000000
outer loop
vertex 0.002410 0.008054 0.150000
vertex 0.002334 0.008102 0.150000
vertex 0.002254 0.008147 0.150000
endloop
endfacet
facet normal -0.005997 0.000000 0.999982
outer loop
vertex 0.002556 0.007955 0.150000
vertex 0.002484 0.008005 0.150000
vertex 0.002410 0.008054 0.150000
endloop
endfacet
facet normal 0.000000 0.000000 1.000000
outer loop
vertex 0.002628 0.007904 0.150000
vertex 0.002556 0.007955 0.150000
vertex 0.002410 0.008054 0.150000
endloop
endfacet
facet normal -0.000327 0.000000 1.000000
outer loop
vertex 0.002410 0.008054 0.150000
vertex 0.002254 0.008147 0.150000
vertex 0.001883 0.008296 0.150000
endloop
endfacet
facet normal 0.000021 0.000000 1.000000
outer loop
vertex 0.001883 0.008296 0.150000
vertex 0.001137 0.008428 0.150000
vertex 0.000684 0.008451 0.150000
endloop
endfacet
facet normal 0.000000 0.000000 1.000000
outer loop
vertex 0.000684 0.008451 0.150000
vertex 0.000370 0.008332 0.150000
vertex 0.000064 0.008063 0.150000
endloop
endfacet
facet normal 0.000000 0.000000 1.000000
outer loop
vertex 0.000064 0.008063 0.150000
vertex 0.000020 0.007884 0.150000
vertex 0.000418 0.007125 0.150000
endloop
endfacet
facet normal 0.000000 0.000000 1.000000
outer loop
vertex 0.000418 0.007125 0.150000
vertex 0.001260 0.005928 0.150000
vertex 0.001941 0.005189 0.150000
endloop
endfacet
facet normal 0.000000 0.000000 1.000000
outer loop
vertex 0.001941 0.005189 0.150000
vertex 0.003374 0.004130 0.150000
vertex 0.006041 0.003094 0.150000
endloop
endfacet
facet normal 0.000171 0.000000 1.000000
outer loop
vertex 0.001941 0.005189 0.150000
vertex 0.006041 0.003094 0.150000
vertex 0.006777 0.002749 0.150000
endloop
endfacet
facet normal 0.000000 0.000000 1.000000
outer loop
vertex 0.000064 0.008063 0.150000
vertex 0.000418 0.007125 0.150000
vertex 0.001941 0.005189 0.150000
endloop
endfacet
facet normal 0.000000 0.000000 1.000000
outer loop
vertex 0.001883 0.008296 0.150000
vertex 0.000684 0.008451 0.150000
vertex 0.000064 0.008063 0.150000
endloop
endfacet
facet normal 0.000278 0.000000 1.000000
outer loop
vertex 0.002628 0.007904 0.150000
vertex 0.002410 0.008054 0.150000
vertex 0.001883 0.008296 0.150000
endloop
endfacet
facet normal 0.000000 0.000000 1.000000
outer loop
vertex 0.002701 0.007854 0.150000
vertex 0.002628 0.007904 0.150000
vertex 0.001883 0.008296 0.150000
endloop
endfacet
facet normal 0.000000 0.000000 1.000000
outer loop
vertex 0.001883 0.008296 0.150000
vertex 0.000064 0.008063 0.150000
vertex 0.001941 0.005189 0.150000
endloop
endfacet
facet normal 0.000000 0.000000 1.000000
outer loop
vertex 0.001883 0.008296 0.150000
vertex 0.001941 0.005189 0.150000
vertex 0.006777 0.002749 0.150000
endloop
endfacet
facet normal 0.000000 0.000000 1.000000
outer loop
vertex 0.002774 0.007804 0.150000
vertex 0.002701 0.007854 0.150000
vertex 0.001883 0.008296 0.150000
endloop
endfacet
facet normal 0.000000 0.000000 1.000000
outer loop
vertex 0.002850 0.007755 0.150000
vertex 0.002774 0.007804 0.150000
vertex 0.001883 0.008296 0.150000
endloop
endfacet
facet normal 0.000057 0.000000 1.000000
outer loop
vertex 0.001883 0.008296 0.150000
vertex 0.006777 0.002749 0.150000
vertex 0.006906 0.002675 0.150000
endloop
endfacet
facet normal -0.000333 0.000000 1.000000
outer loop
vertex 0.001883 0.008296 0.150000
vertex 0.006906 0.002675 0.150000
vertex 0.007026 0.002598 0.150000
endloop
endfacet
facet normal 0.000043 0.000000 1.000000
outer loop
vertex 0.002850 0.007755 0.150000
vertex 0.001883 0.008296 0.150000
vertex 0.007026 0.002598 0.150000
endloop
endfacet
facet normal -0.000640 0.000000 1.000000
outer loop
vertex 0.002850 0.007755 0.150000
vertex 0.007026 0.002598 0.150000
vertex 0.007133 0.002520 0.150000
endloop
endfacet
facet normal 0.000000 0.000000 1.000000
outer loop
vertex 0.002930 0.007712 0.150000
vertex 0.002850 0.007755 0.150000
vertex 0.007133 0.002520 0.150000
endloop
endfacet
facet normal 0.000020 0.000000 1.000000
outer loop
vertex 0.002930 0.007712 0.150000
vertex 0.007133 0.002520 0.150000
vertex 0.008203 0.001545 0.150000
endloop
endfacet
facet normal 0.000000 0.000000 1.000000
outer loop
vertex 0.003015 0.007679 0.150000
vertex 0.002930 0.007712 0.150000
vertex 0.008203 0.001545 0.150000
endloop
endfacet
facet normal -0.004160 0.000000 0.999991
outer loop
vertex 0.003015 0.007679 0.150000
vertex 0.008203 0.001545 0.150000
vertex 0.008266 0.001475 0.150000
endloop
endfacet
facet normal 0.000000 0.000000 1.000000
outer loop
vertex 0.003106 0.007655 0.150000
vertex 0.003015 0.007679 0.150000
vertex 0.008266 0.001475 0.150000
endloop
endfacet
facet normal 0.000926 0.000000 1.000000
outer loop
vertex 0.008323 0.001407 0.150000
vertex 0.008655 0.000978 0.150000
vertex 0.008864 0.000730 0.150000
endloop
endfacet
facet normal 0.864613 0.000000 0.502439
outer loop
vertex 0.003106 0.007655 0.150000
vertex 0.008266 0.001475 0.150000
vertex 0.008323 0.001407 0.150000
endloop
endfacet
facet normal 0.000000 0.000000 1.000000
outer loop
vertex 0.006510 0.007823 0.150000
vertex 0.006255 0.007832 0.150000
vertex 0.003306 0.007632 0.150000
endloop
endfacet
facet normal 0.000000 0.000000 1.000000
outer loop
vertex 0.003306 0.007632 0.150000
vertex 0.003106 0.007655 0.150000
vertex 0.008323 0.001407 0.150000
endloop
endfacet
facet normal 0.000266 0.000000 1.000000
outer loop
vertex 0.008323 0.001407 0.150000
vertex 0.008864 0.000730 0.150000
vertex 0.009129 0.000451 0.150000
endloop
endfacet
facet normal -0.002180 0.000000 0.999998
outer loop
vertex 0.009203 0.000361 0.150000
vertex 0.009325 0.000201 0.150000
vertex 0.009381 0.000135 0.150000
endloop
endfacet
facet normal -0.000264 0.000000 1.000000
outer loop
vertex 0.003306 0.007632 0.150000
vertex 0.008323 0.001407 0.150000
vertex 0.009129 0.000451 0.150000
endloop
endfacet
facet normal 0.000000 0.000000 1.000000
outer loop
vertex 0.009203 0.000361 0.150000
vertex 0.009381 0.000135 0.150000
vertex 0.009439 0.000080 0.150000
endloop
endfacet
facet normal 0.006780 0.000000 0.999977
outer loop
vertex 0.003306 0.007632 0.150000
vertex 0.009129 0.000451 0.150000
vertex 0.009203 0.000361 0.150000
endloop
endfacet
facet normal 0.000000 0.000000 1.000000
outer loop
vertex 0.006712 0.007797 0.150000
vertex 0.006510 0.007823 0.150000
vertex 0.003306 0.007632 0.150000
endloop
endfacet
facet normal 0.000898 0.000000 1.000000
outer loop
vertex 0.006966 0.007729 0.150000
vertex 0.006884 0.007755 0.150000
vertex 0.006712 0.007797 0.150000
endloop
endfacet
facet normal 0.001868 0.000000 0.999998
outer loop
vertex 0.007674 0.007481 0.150000
vertex 0.007572 0.007522 0.150000
vertex 0.006966 0.007729 0.150000
endloop
endfacet
facet normal 0.000000 0.000000 1.000000
outer loop
vertex 0.007912 0.007346 0.150000
vertex 0.007763 0.007438 0.150000
vertex 0.007674 0.007481 0.150000
endloop
endfacet
facet normal 0.000000 0.000000 1.000000
outer loop
vertex 0.008622 0.006730 0.150000
vertex 0.008547 0.006803 0.150000
vertex 0.007912 0.007346 0.150000
endloop
endfacet
facet normal 0.005115 0.000000 0.999987
outer loop
vertex 0.008766 0.006573 0.150000
vertex 0.008695 0.006653 0.150000
vertex 0.008622 0.006730 0.150000
endloop
endfacet
facet normal 0.000000 0.000000 1.000000
outer loop
vertex 0.009950 0.005117 0.150000
vertex 0.009825 0.005289 0.150000
vertex 0.008766 0.006573 0.150000
endloop
endfacet
facet normal 0.000000 0.000000 1.000000
outer loop
vertex 0.010762 0.003766 0.150000
vertex 0.010654 0.003967 0.150000
vertex 0.009950 0.005117 0.150000
endloop
endfacet
facet normal 0.000762 0.000000 1.000000
outer loop
vertex 0.011230 0.002726 0.150000
vertex 0.010869 0.003549 0.150000
vertex 0.010762 0.003766 0.150000
endloop
endfacet
facet normal -0.001135 0.000000 0.999999
outer loop
vertex 0.011379 0.002239 0.150000
vertex 0.011302 0.002533 0.150000
vertex 0.011230 0.002726 0.150000
endloop
endfacet
facet normal 0.000000 0.000000 1.000000
outer loop
vertex 0.011416 0.001713 0.150000
vertex 0.011407 0.002021 0.150000
vertex 0.011379 0.002239 0.150000
endloop
endfacet
facet normal 0.000000 0.000000 1.000000
outer loop
vertex 0.011388 0.001445 0.150000
vertex 0.011401 0.001534 0.150000
vertex 0.011416 0.001713 0.150000
endloop
endfacet
facet normal -0.006473 0.000000 0.999979
outer loop
vertex 0.011252 0.000783 0.150000
vertex 0.011372 0.001354 0.150000
vertex 0.011388 0.001445 0.150000
endloop
endfacet
facet normal -0.001418 0.000000 0.999999
outer loop
vertex 0.011169 0.000546 0.150000
vertex 0.011217 0.000652 0.150000
vertex 0.011252 0.000783 0.150000
endloop
endfacet
facet normal 0.000000 0.000000 1.000000
outer loop
vertex 0.011035 0.000396 0.150000
vertex 0.011108 0.000462 0.150000
vertex 0.011169 0.000546 0.150000
endloop
endfacet
facet normal 0.000000 0.000000 1.000000
outer loop
vertex 0.010854 0.000304 0.150000
vertex 0.010950 0.000345 0.150000
vertex 0.011035 0.000396 0.150000
endloop
endfacet
facet normal 0.000311 0.000000 1.000000
outer loop
vertex 0.009662 0.000000 0.150000
vertex 0.009767 0.000007 0.150000
vertex 0.010854 0.000304 0.150000
endloop
endfacet
facet normal 0.000436 0.000000 1.000000
outer loop
vertex 0.009502 0.000038 0.150000
vertex 0.009575 0.000011 0.150000
vertex 0.009662 0.000000 0.150000
endloop
endfacet
facet normal 0.000229 0.000000 1.000000
outer loop
vertex 0.009203 0.000361 0.150000
vertex 0.009439 0.000080 0.150000
vertex 0.009502 0.000038 0.150000
endloop
endfacet
facet normal 0.000000 0.000000 1.000000
outer loop
vertex 0.006712 0.007797 0.150000
vertex 0.003306 0.007632 0.150000
vertex 0.009203 0.000361 0.150000
endloop
endfacet
facet normal 0.000000 0.000000 1.000000
outer loop
vertex 0.007674 0.007481 0.150000
vertex 0.006966 0.007729 0.150000
vertex 0.006712 0.007797 0.150000
endloop
endfacet
facet normal 0.000072 0.000000 1.000000
outer loop
vertex 0.008622 0.006730 0.150000
vertex 0.007912 0.007346 0.150000
vertex 0.007674 0.007481 0.150000
endloop
endfacet
facet normal 0.000298 0.000000 1.000000
outer loop
vertex 0.009950 0.005117 0.150000
vertex 0.008766 0.006573 0.150000
vertex 0.008622 0.006730 0.150000
endloop
endfacet
facet normal 0.000000 0.000000 1.000000
outer loop
vertex 0.011230 0.002726 0.150000
vertex 0.010762 0.003766 0.150000
vertex 0.009950 0.005117 0.150000
endloop
endfacet
facet normal 0.000242 0.000000 1.000000
outer loop
vertex 0.011416 0.001713 0.150000
vertex 0.011379 0.002239 0.150000
vertex 0.011230 0.002726 0.150000
endloop
endfacet
facet normal -0.000407 0.000000 1.000000
outer loop
vertex 0.011252 0.000783 0.150000
vertex 0.011388 0.001445 0.150000
vertex 0.011416 0.001713 0.150000
endloop
endfacet
facet normal 0.000000 0.000000 1.000000
outer loop
vertex 0.011035 0.000396 0.150000
vertex 0.011169 0.000546 0.150000
vertex 0.011252 0.000783 0.150000
endloop
endfacet
facet normal 0.000000 0.000000 1.000000
outer loop
vertex 0.009662 0.000000 0.150000
vertex 0.010854 0.000304 0.150000
vertex 0.011035 0.000396 0.150000
endloop
endfacet
facet normal 0.000000 0.000000 1.000000
outer loop
vertex 0.009203 0.000361 0.150000
vertex 0.009502 0.000038 0.150000
vertex 0.009662 0.000000 0.150000
endloop
endfacet
facet normal 0.000000 0.000000 1.000000
outer loop
vertex 0.007674 0.007481 0.150000
vertex 0.006712 0.007797 0.150000
vertex 0.009203 0.000361 0.150000
endloop
endfacet
facet normal -0.000027 0.000000 1.000000
outer loop
vertex 0.009950 0.005117 0.150000
vertex 0.008622 0.006730 0.150000
vertex 0.007674 0.007481 0.150000
endloop
endfacet
facet normal -0.000068 0.000000 1.000000
outer loop
vertex 0.011416 0.001713 0.150000
vertex 0.011230 0.002726 0.150000
vertex 0.009950 0.005117 0.150000
endloop
endfacet
facet normal 0.000000 0.000000 1.000000
outer loop
vertex 0.011035 0.000396 0.150000
vertex 0.011252 0.000783 0.150000
vertex 0.011416 0.001713 0.150000
endloop
endfacet
facet normal -0.000011 0.000000 1.000000
outer loop
vertex 0.009203 0.000361 0.150000
vertex 0.009662 0.000000 0.150000
vertex 0.011035 0.000396 0.150000
endloop
endfacet
facet normal 0.000000 0.000000 1.000000
outer loop
vertex 0.009950 0.005117 0.150000
vertex 0.007674 0.007481 0.150000
vertex 0.009203 0.000361 0.150000
endloop
endfacet
facet normal 0.000036 0.000000 1.000000
outer loop
vertex 0.011035 0.000396 0.150000
vertex 0.011416 0.001713 0.150000
vertex 0.009950 0.005117 0.150000
endloop
endfacet
facet normal -0.000013 0.000000 1.000000
outer loop
vertex 0.009203 0.000361 0.150000
vertex 0.011035 0.000396 0.150000
vertex 0.009950 0.005117 0.150000
endloop
endfacet
facet normal 0.967777 0.251810 0.000000
outer loop
vertex 0.011302 0.002533 0.000000
vertex 0.011302 0.002533 0.150000
vertex 0.011379 0.002239 0.150000
endloop
endfacet
facet normal 0.967777 0.251810 0.000000
outer loop
vertex 0.011302 0.002533 0.000000
vertex 0.011379 0.002239 0.150000
vertex 0.011379 0.002239 0.000000
endloop
endfacet
facet normal 0.000000 0.000000 -1.000000
outer loop
vertex 0.008864 0.000730 0.000000
vertex 0.009129 0.000451 0.000000
vertex 0.009203 0.000361 0.000000
endloop
endfacet
facet normal -0.763974 -0.645247 0.000000
outer loop
vertex 0.009325 0.000201 0.000000
vertex 0.009381 0.000135 0.000000
vertex 0.009381 0.000135 0.150000
endloop
endfacet
facet normal 0.000000 0.000000 -1.000000
outer loop
vertex 0.008864 0.000730 0.000000
vertex 0.009203 0.000361 0.000000
vertex 0.009325 0.000201 0.000000
endloop
endfacet
facet normal 0.000000 0.000000 -1.000000
outer loop
vertex 0.008266 0.001475 0.000000
vertex 0.008323 0.001407 0.000000
vertex 0.008655 0.000978 0.000000
endloop
endfacet
facet normal -0.754314 -0.656514 -0.000009
outer loop
vertex 0.008864 0.000730 0.000000
vertex 0.009325 0.000201 0.000000
vertex 0.009381 0.000135 0.150000
endloop
endfacet
facet normal 0.000000 0.000000 -1.000000
outer loop
vertex 0.008203 0.001545 0.000000
vertex 0.008266 0.001475 0.000000
vertex 0.008655 0.000978 0.000000
endloop
endfacet
facet normal -0.762781 -0.646657 0.000060
outer loop
vertex 0.008655 0.000978 0.000000
vertex 0.008864 0.000730 0.000000
vertex 0.009381 0.000135 0.150000
endloop
endfacet
facet normal -0.763992 -0.645226 0.000073
outer loop
vertex 0.008655 0.000978 0.000000
vertex 0.009381 0.000135 0.150000
vertex 0.009325 0.000201 0.150000
endloop
endfacet
facet normal -0.781886 -0.623422 0.000000
outer loop
vertex 0.008203 0.001545 0.150000
vertex 0.008203 0.001545 0.000000
vertex 0.008655 0.000978 0.000000
endloop
endfacet
facet normal -0.741165 -0.671323 0.000304
outer loop
vertex 0.008266 0.001475 0.150000
vertex 0.008203 0.001545 0.150000
vertex 0.008655 0.000978 0.000000
endloop
endfacet
facet normal -0.794016 -0.607896 0.000401
outer loop
vertex 0.008655 0.000978 0.000000
vertex 0.009325 0.000201 0.150000
vertex 0.009203 0.000361 0.150000
endloop
endfacet
facet normal -0.771854 -0.635799 0.000205
outer loop
vertex 0.008655 0.000978 0.000000
vertex 0.009203 0.000361 0.150000
vertex 0.009129 0.000451 0.150000
endloop
endfacet
facet normal -0.767571 -0.640964 0.000135
outer loop
vertex 0.008323 0.001407 0.150000
vertex 0.008266 0.001475 0.150000
vertex 0.008655 0.000978 0.000000
endloop
endfacet
facet normal -0.790911 -0.611931 0.000000
outer loop
vertex 0.008655 0.000978 0.150000
vertex 0.008323 0.001407 0.150000
vertex 0.008655 0.000978 0.000000
endloop
endfacet
facet normal -0.726702 -0.686952 -0.000117
outer loop
vertex 0.008655 0.000978 0.000000
vertex 0.009129 0.000451 0.150000
vertex 0.008864 0.000730 0.150000
endloop
endfacet
facet normal -0.762786 -0.646651 0.000000
outer loop
vertex 0.008655 0.000978 0.000000
vertex 0.008864 0.000730 0.150000
vertex 0.008655 0.000978 0.150000
endloop
endfacet
facet normal 0.130312 0.991473 0.000000
outer loop
vertex 0.006712 0.007797 0.000000
vertex 0.006510 0.007823 0.000000
vertex 0.006510 0.007823 0.150000
endloop
endfacet
facet normal 0.130314 0.991473 0.000000
outer loop
vertex 0.006712 0.007797 0.000000
vertex 0.006510 0.007823 0.150000
vertex 0.006712 0.007797 0.150000
endloop
endfacet
facet normal -0.431011 0.902346 0.000000
outer loop
vertex 0.000527 0.008417 0.150000
vertex 0.000527 0.008417 0.000000
vertex 0.000448 0.008379 0.000000
endloop
endfacet
facet normal -0.431012 0.902346 0.000000
outer loop
vertex 0.000527 0.008417 0.150000
vertex 0.000448 0.008379 0.000000
vertex 0.000448 0.008379 0.150000
endloop
endfacet
facet normal 0.473117 0.881000 0.000000
outer loop
vertex 0.002930 0.007712 0.150000
vertex 0.002930 0.007712 0.000000
vertex 0.002850 0.007755 0.000000
endloop
endfacet
facet normal 0.473118 0.880999 0.000000
outer loop
vertex 0.002930 0.007712 0.150000
vertex 0.002850 0.007755 0.000000
vertex 0.002850 0.007755 0.150000
endloop
endfacet
facet normal 0.526931 0.849908 0.000000
outer loop
vertex 0.007763 0.007438 0.000000
vertex 0.007763 0.007438 0.150000
vertex 0.007912 0.007346 0.150000
endloop
endfacet
facet normal 0.526931 0.849908 0.000000
outer loop
vertex 0.007763 0.007438 0.000000
vertex 0.007912 0.007346 0.150000
vertex 0.007912 0.007346 0.000000
endloop
endfacet
facet normal 0.066843 -0.997764 0.000000
outer loop
vertex 0.009662 0.000000 0.150000
vertex 0.009662 0.000000 0.000000
vertex 0.009767 0.000007 0.000000
endloop
endfacet
facet normal 0.066842 -0.997764 0.000000
outer loop
vertex 0.009662 0.000000 0.150000
vertex 0.009767 0.000007 0.000000
vertex 0.009767 0.000007 0.150000
endloop
endfacet
facet normal 0.435859 0.900015 0.000000
outer loop
vertex 0.007763 0.007438 0.150000
vertex 0.007763 0.007438 0.000000
vertex 0.007674 0.007481 0.000000
endloop
endfacet
facet normal 0.435859 0.900015 0.000000
outer loop
vertex 0.007763 0.007438 0.150000
vertex 0.007674 0.007481 0.000000
vertex 0.007674 0.007481 0.150000
endloop
endfacet
facet normal 0.494246 0.869322 0.000000
outer loop
vertex 0.002334 0.008102 0.000000
vertex 0.002254 0.008147 0.000000
vertex 0.002254 0.008147 0.150000
endloop
endfacet
facet normal 0.494246 0.869322 0.000000
outer loop
vertex 0.002334 0.008102 0.000000
vertex 0.002254 0.008147 0.150000
vertex 0.002334 0.008102 0.150000
endloop
endfacet
facet normal 0.527861 0.849331 0.000000
outer loop
vertex 0.002410 0.008054 0.000000
vertex 0.002334 0.008102 0.000000
vertex 0.002334 0.008102 0.150000
endloop
endfacet
facet normal 0.527859 0.849332 0.000000
outer loop
vertex 0.002410 0.008054 0.000000
vertex 0.002334 0.008102 0.150000
vertex 0.002410 0.008054 0.150000
endloop
endfacet
facet normal 0.552858 0.833275 0.000000
outer loop
vertex 0.002484 0.008005 0.000000
vertex 0.002410 0.008054 0.000000
vertex 0.002410 0.008054 0.150000
endloop
endfacet
facet normal 0.552860 0.833274 0.000000
outer loop
vertex 0.002484 0.008005 0.000000
vertex 0.002410 0.008054 0.150000
vertex 0.002484 0.008005 0.150000
endloop
endfacet
facet normal 0.568902 0.822406 0.000000
outer loop
vertex 0.002556 0.007955 0.000000
vertex 0.002484 0.008005 0.000000
vertex 0.002484 0.008005 0.150000
endloop
endfacet
facet normal 0.568900 0.822407 0.000000
outer loop
vertex 0.002556 0.007955 0.000000
vertex 0.002484 0.008005 0.150000
vertex 0.002556 0.007955 0.150000
endloop
endfacet
facet normal 0.575838 0.817564 0.000000
outer loop
vertex 0.002628 0.007904 0.000000
vertex 0.002556 0.007955 0.000000
vertex 0.002556 0.007955 0.150000
endloop
endfacet
facet normal 0.575835 0.817566 0.000000
outer loop
vertex 0.002628 0.007904 0.000000
vertex 0.002556 0.007955 0.150000
vertex 0.002628 0.007904 0.150000
endloop
endfacet
facet normal 0.573715 0.819055 0.000000
outer loop
vertex 0.002701 0.007854 0.000000
vertex 0.002628 0.007904 0.000000
vertex 0.002628 0.007904 0.150000
endloop
endfacet
facet normal 0.573719 0.819052 0.000000
outer loop
vertex 0.002701 0.007854 0.000000
vertex 0.002628 0.007904 0.150000
vertex 0.002701 0.007854 0.150000
endloop
endfacet
facet normal 0.542698 0.839928 0.000000
outer loop
vertex 0.002850 0.007755 0.150000
vertex 0.002850 0.007755 0.000000
vertex 0.002774 0.007804 0.000000
endloop
endfacet
facet normal 0.562611 0.826722 0.000000
outer loop
vertex 0.002774 0.007804 0.000000
vertex 0.002701 0.007854 0.000000
vertex 0.002701 0.007854 0.150000
endloop
endfacet
facet normal 0.542698 0.839928 0.000000
outer loop
vertex 0.002774 0.007804 0.150000
vertex 0.002850 0.007755 0.150000
vertex 0.002774 0.007804 0.000000
endloop
endfacet
facet normal 0.562607 0.826724 0.000000
outer loop
vertex 0.002701 0.007854 0.150000
vertex 0.002774 0.007804 0.150000
vertex 0.002774 0.007804 0.000000
endloop
endfacet
facet normal 0.118743 0.992925 0.000000
outer loop
vertex 0.003106 0.007655 0.000000
vertex 0.003106 0.007655 0.150000
vertex 0.003306 0.007632 0.150000
endloop
endfacet
facet normal 0.118742 0.992925 0.000000
outer loop
vertex 0.003106 0.007655 0.000000
vertex 0.003306 0.007632 0.150000
vertex 0.003306 0.007632 0.000000
endloop
endfacet
facet normal 0.105514 0.994418 0.000000
outer loop
vertex 0.001137 0.008428 0.150000
vertex 0.001240 0.008417 0.150000
vertex 0.001240 0.008417 0.000000
endloop
endfacet
facet normal 0.105514 0.994418 0.000000
outer loop
vertex 0.001137 0.008428 0.150000
vertex 0.001240 0.008417 0.000000
vertex 0.001137 0.008428 0.000000
endloop
endfacet
facet normal 0.086228 0.996275 0.000000
outer loop
vertex 0.001037 0.008437 0.150000
vertex 0.001137 0.008428 0.150000
vertex 0.001137 0.008428 0.000000
endloop
endfacet
facet normal 0.086227 0.996275 0.000000
outer loop
vertex 0.001037 0.008437 0.150000
vertex 0.001137 0.008428 0.000000
vertex 0.001037 0.008437 0.000000
endloop
endfacet
facet normal 0.058361 0.998296 0.000000
outer loop
vertex 0.000850 0.008447 0.150000
vertex 0.001037 0.008437 0.150000
vertex 0.001037 0.008437 0.000000
endloop
endfacet
facet normal 0.058361 0.998296 0.000000
outer loop
vertex 0.000850 0.008447 0.150000
vertex 0.001037 0.008437 0.000000
vertex 0.000850 0.008447 0.000000
endloop
endfacet
facet normal 0.010356 0.999946 0.000000
outer loop
vertex 0.000684 0.008451 0.000000
vertex 0.000684 0.008451 0.150000
vertex 0.000764 0.008450 0.150000
endloop
endfacet
facet normal 0.029976 0.999551 0.000000
outer loop
vertex 0.000764 0.008450 0.150000
vertex 0.000850 0.008447 0.150000
vertex 0.000850 0.008447 0.000000
endloop
endfacet
facet normal 0.010356 0.999946 0.000000
outer loop
vertex 0.000764 0.008450 0.000000
vertex 0.000684 0.008451 0.000000
vertex 0.000764 0.008450 0.150000
endloop
endfacet
facet normal 0.029976 0.999551 0.000000
outer loop
vertex 0.000850 0.008447 0.000000
vertex 0.000764 0.008450 0.000000
vertex 0.000764 0.008450 0.150000
endloop
endfacet
facet normal -0.300891 0.953659 0.000000
outer loop
vertex 0.000606 0.008442 0.150000
vertex 0.000606 0.008442 0.000000
vertex 0.000527 0.008417 0.000000
endloop
endfacet
facet normal -0.300891 0.953658 0.000000
outer loop
vertex 0.000606 0.008442 0.150000
vertex 0.000527 0.008417 0.000000
vertex 0.000527 0.008417 0.150000
endloop
endfacet
facet normal 0.999622 0.027491 0.000000
outer loop
vertex 0.011416 0.001713 0.000000
vertex 0.011407 0.002021 0.000000
vertex 0.011407 0.002021 0.150000
endloop
endfacet
facet normal 0.999622 0.027501 0.000000
outer loop
vertex 0.011416 0.001713 0.000000
vertex 0.011407 0.002021 0.150000
vertex 0.011416 0.001713 0.150000
endloop
endfacet
facet normal -0.124914 -0.992168 0.000000
outer loop
vertex 0.009575 0.000011 0.150000
vertex 0.009575 0.000011 0.000000
vertex 0.009662 0.000000 0.000000
endloop
endfacet
facet normal -0.124912 -0.992168 0.000000
outer loop
vertex 0.009575 0.000011 0.150000
vertex 0.009662 0.000000 0.000000
vertex 0.009662 0.000000 0.150000
endloop
endfacet
facet normal -0.067963 0.997688 0.000000
outer loop
vertex 0.006255 0.007832 0.000000
vertex 0.003306 0.007632 0.000000
vertex 0.003306 0.007632 0.150000
endloop
endfacet
facet normal -0.067963 0.997688 0.000000
outer loop
vertex 0.006255 0.007832 0.000000
vertex 0.003306 0.007632 0.150000
vertex 0.006255 0.007832 0.150000
endloop
endfacet
facet normal -0.673680 -0.739023 0.000000
outer loop
vertex 0.007133 0.002520 0.000000
vertex 0.008203 0.001545 0.000000
vertex 0.008203 0.001545 0.150000
endloop
endfacet
facet normal -0.673680 -0.739023 0.000000
outer loop
vertex 0.007133 0.002520 0.000000
vertex 0.008203 0.001545 0.150000
vertex 0.007133 0.002520 0.150000
endloop
endfacet
facet normal -0.689083 -0.724683 0.000000
outer loop
vertex 0.009381 0.000135 0.150000
vertex 0.009381 0.000135 0.000000
vertex 0.009439 0.000080 0.000000
endloop
endfacet
facet normal -0.689083 -0.724683 0.000000
outer loop
vertex 0.009381 0.000135 0.150000
vertex 0.009439 0.000080 0.000000
vertex 0.009439 0.000080 0.150000
endloop
endfacet
facet normal 0.811045 -0.584983 0.000000
outer loop
vertex 0.011108 0.000462 0.150000
vertex 0.011108 0.000462 0.000000
vertex 0.011169 0.000546 0.000000
endloop
endfacet
facet normal 0.811045 -0.584983 0.000000
outer loop
vertex 0.011108 0.000462 0.150000
vertex 0.011169 0.000546 0.000000
vertex 0.011169 0.000546 0.150000
endloop
endfacet
facet normal 0.428170 0.903699 0.000000
outer loop
vertex 0.002254 0.008147 0.000000
vertex 0.002081 0.008229 0.000000
vertex 0.002081 0.008229 0.150000
endloop
endfacet
facet normal 0.428170 0.903699 0.000000
outer loop
vertex 0.002254 0.008147 0.000000
vertex 0.002081 0.008229 0.150000
vertex 0.002254 0.008147 0.150000
endloop
endfacet
facet normal 0.520509 -0.853856 0.000000
outer loop
vertex 0.010950 0.000345 0.150000
vertex 0.010950 0.000345 0.000000
vertex 0.011035 0.000396 0.000000
endloop
endfacet
facet normal 0.520509 -0.853856 0.000000
outer loop
vertex 0.010950 0.000345 0.150000
vertex 0.011035 0.000396 0.000000
vertex 0.011035 0.000396 0.150000
endloop
endfacet
facet normal 0.671831 -0.740705 0.000000
outer loop
vertex 0.011035 0.000396 0.150000
vertex 0.011035 0.000396 0.000000
vertex 0.011108 0.000462 0.000000
endloop
endfacet
facet normal 0.671846 -0.740691 0.000000
outer loop
vertex 0.011035 0.000396 0.150000
vertex 0.011108 0.000462 0.000000
vertex 0.011108 0.000462 0.150000
endloop
endfacet
facet normal 0.991476 0.130286 0.000000
outer loop
vertex 0.011407 0.002021 0.150000
vertex 0.011407 0.002021 0.000000
vertex 0.011379 0.002239 0.000000
endloop
endfacet
facet normal 0.991476 0.130286 0.000000
outer loop
vertex 0.011407 0.002021 0.150000
vertex 0.011379 0.002239 0.000000
vertex 0.011379 0.002239 0.150000
endloop
endfacet
facet normal 0.853213 0.521563 0.000000
outer loop
vertex 0.010654 0.003967 0.000000
vertex 0.009950 0.005117 0.000000
vertex 0.009950 0.005117 0.150000
endloop
endfacet
facet normal 0.853213 0.521563 0.000000
outer loop
vertex 0.010654 0.003967 0.000000
vertex 0.009950 0.005117 0.150000
vertex 0.010654 0.003967 0.150000
endloop
endfacet
facet normal -0.464781 -0.885426 0.000000
outer loop
vertex 0.003757 0.003899 0.000000
vertex 0.003895 0.003827 0.000000
vertex 0.003895 0.003827 0.150000
endloop
endfacet
facet normal -0.464781 -0.885426 0.000000
outer loop
vertex 0.003757 0.003899 0.000000
vertex 0.003895 0.003827 0.150000
vertex 0.003757 0.003899 0.150000
endloop
endfacet
facet normal -0.503638 -0.863915 0.000000
outer loop
vertex 0.003580 0.004002 0.000000
vertex 0.003757 0.003899 0.000000
vertex 0.003757 0.003899 0.150000
endloop
endfacet
facet normal -0.503642 -0.863913 0.000000
outer loop
vertex 0.003580 0.004002 0.000000
vertex 0.003757 0.003899 0.150000
vertex 0.003580 0.004002 0.150000
endloop
endfacet
facet normal -0.528253 -0.849087 0.000000
outer loop
vertex 0.003374 0.004130 0.000000
vertex 0.003580 0.004002 0.000000
vertex 0.003580 0.004002 0.150000
endloop
endfacet
facet normal -0.528256 -0.849086 0.000000
outer loop
vertex 0.003374 0.004130 0.000000
vertex 0.003580 0.004002 0.150000
vertex 0.003374 0.004130 0.150000
endloop
endfacet
facet normal -0.590345 -0.807151 0.000000
outer loop
vertex 0.002402 0.004812 0.150000
vertex 0.002402 0.004812 0.000000
vertex 0.002901 0.004447 0.000000
endloop
endfacet
facet normal -0.556187 -0.831057 0.000000
outer loop
vertex 0.002901 0.004447 0.000000
vertex 0.003374 0.004130 0.000000
vertex 0.003374 0.004130 0.150000
endloop
endfacet
facet normal -0.590345 -0.807151 0.000000
outer loop
vertex 0.002901 0.004447 0.150000
vertex 0.002402 0.004812 0.150000
vertex 0.002901 0.004447 0.000000
endloop
endfacet
facet normal -0.556187 -0.831057 0.000000
outer loop
vertex 0.003374 0.004130 0.150000
vertex 0.002901 0.004447 0.150000
vertex 0.002901 0.004447 0.000000
endloop
endfacet
facet normal 0.000000 0.000000 1.000000
outer loop
vertex 0.000165 0.007557 0.000000
vertex 0.000280 0.007351 0.000000
vertex 0.000418 0.007125 0.000000
endloop
endfacet
facet normal -0.854916 -0.518767 0.000000
outer loop
vertex 0.000418 0.007125 0.000000
vertex 0.000418 0.007125 0.150000
vertex 0.000280 0.007351 0.150000
endloop
endfacet
facet normal -0.897423 -0.441171 0.000000
outer loop
vertex 0.000165 0.007557 0.150000
vertex 0.000077 0.007737 0.150000
vertex 0.000077 0.007737 0.000000
endloop
endfacet
facet normal -0.872959 -0.487794 -0.000063
outer loop
vertex 0.000418 0.007125 0.000000
vertex 0.000280 0.007351 0.150000
vertex 0.000165 0.007557 0.150000
endloop
endfacet
facet normal 0.000000 0.000000 1.000000
outer loop
vertex 0.000077 0.007737 0.000000
vertex 0.000165 0.007557 0.000000
vertex 0.000418 0.007125 0.000000
endloop
endfacet
facet normal -0.873703 -0.486460 -0.000068
outer loop
vertex 0.000418 0.007125 0.000000
vertex 0.000165 0.007557 0.150000
vertex 0.000077 0.007737 0.000000
endloop
endfacet
facet normal 0.936929 0.349521 0.000000
outer loop
vertex 0.011230 0.002726 0.150000
vertex 0.011302 0.002533 0.150000
vertex 0.011302 0.002533 0.000000
endloop
endfacet
facet normal 0.936934 0.349507 0.000000
outer loop
vertex 0.011230 0.002726 0.150000
vertex 0.011302 0.002533 0.000000
vertex 0.011230 0.002726 0.000000
endloop
endfacet
facet normal 0.915721 0.401815 0.000000
outer loop
vertex 0.010869 0.003549 0.150000
vertex 0.011230 0.002726 0.150000
vertex 0.011230 0.002726 0.000000
endloop
endfacet
facet normal 0.915721 0.401814 0.000000
outer loop
vertex 0.010869 0.003549 0.150000
vertex 0.011230 0.002726 0.000000
vertex 0.010869 0.003549 0.000000
endloop
endfacet
facet normal 0.880018 0.474941 0.000000
outer loop
vertex 0.010654 0.003967 0.000000
vertex 0.010654 0.003967 0.150000
vertex 0.010762 0.003766 0.150000
endloop
endfacet
facet normal 0.897153 0.441719 0.000000
outer loop
vertex 0.010762 0.003766 0.150000
vertex 0.010869 0.003549 0.150000
vertex 0.010869 0.003549 0.000000
endloop
endfacet
facet normal 0.880021 0.474935 0.000000
outer loop
vertex 0.010762 0.003766 0.000000
vertex 0.010654 0.003967 0.000000
vertex 0.010762 0.003766 0.150000
endloop
endfacet
facet normal 0.897148 0.441729 0.000000
outer loop
vertex 0.010869 0.003549 0.000000
vertex 0.010762 0.003766 0.000000
vertex 0.010762 0.003766 0.150000
endloop
endfacet
facet normal -0.424245 -0.905547 0.000000
outer loop
vertex 0.006041 0.003094 0.000000
vertex 0.006777 0.002749 0.000000
vertex 0.006777 0.002749 0.150000
endloop
endfacet
facet normal -0.424245 -0.905548 0.000000
outer loop
vertex 0.006041 0.003094 0.000000
vertex 0.006777 0.002749 0.150000
vertex 0.006041 0.003094 0.150000
endloop
endfacet
facet normal -0.983078 -0.183186 0.000000
outer loop
vertex 0.000000 0.007991 0.150000
vertex 0.000000 0.007991 0.000000
vertex 0.000020 0.007884 0.000000
endloop
endfacet
facet normal -0.983078 -0.183186 0.000000
outer loop
vertex 0.000000 0.007991 0.150000
vertex 0.000020 0.007884 0.000000
vertex 0.000020 0.007884 0.150000
endloop
endfacet
facet normal -0.611171 0.791499 0.000000
outer loop
vertex 0.000370 0.008332 0.000000
vertex 0.000227 0.008221 0.000000
vertex 0.000227 0.008221 0.150000
endloop
endfacet
facet normal -0.611171 0.791499 0.000000
outer loop
vertex 0.000370 0.008332 0.000000
vertex 0.000227 0.008221 0.150000
vertex 0.000370 0.008332 0.150000
endloop
endfacet
facet normal 0.390471 -0.920615 0.000000
outer loop
vertex 0.010854 0.000304 0.150000
vertex 0.010854 0.000304 0.000000
vertex 0.010950 0.000345 0.000000
endloop
endfacet
facet normal 0.390476 -0.920613 0.000000
outer loop
vertex 0.010854 0.000304 0.150000
vertex 0.010950 0.000345 0.000000
vertex 0.010950 0.000345 0.150000
endloop
endfacet
facet normal 0.321022 0.947072 0.000000
outer loop
vertex 0.002081 0.008229 0.150000
vertex 0.002081 0.008229 0.000000
vertex 0.001883 0.008296 0.000000
endloop
endfacet
facet normal 0.321023 0.947071 0.000000
outer loop
vertex 0.002081 0.008229 0.150000
vertex 0.001883 0.008296 0.000000
vertex 0.001883 0.008296 0.150000
endloop
endfacet
facet normal -0.499470 -0.866331 0.000000
outer loop
vertex 0.006906 0.002675 0.150000
vertex 0.006777 0.002749 0.150000
vertex 0.006777 0.002749 0.000000
endloop
endfacet
facet normal -0.499470 -0.866331 0.000000
outer loop
vertex 0.006906 0.002675 0.150000
vertex 0.006777 0.002749 0.000000
vertex 0.006906 0.002675 0.000000
endloop
endfacet
facet normal -0.589852 -0.807511 0.000000
outer loop
vertex 0.007133 0.002520 0.000000
vertex 0.007133 0.002520 0.150000
vertex 0.007026 0.002598 0.150000
endloop
endfacet
facet normal -0.538089 -0.842888 0.000000
outer loop
vertex 0.007026 0.002598 0.150000
vertex 0.006906 0.002675 0.150000
vertex 0.006906 0.002675 0.000000
endloop
endfacet
facet normal -0.589858 -0.807507 0.000000
outer loop
vertex 0.007026 0.002598 0.000000
vertex 0.007133 0.002520 0.000000
vertex 0.007026 0.002598 0.150000
endloop
endfacet
facet normal -0.538084 -0.842891 0.000000
outer loop
vertex 0.006906 0.002675 0.000000
vertex 0.007026 0.002598 0.000000
vertex 0.007026 0.002598 0.150000
endloop
endfacet
facet normal -0.932962 -0.359975 0.000000
outer loop
vertex 0.000020 0.007884 0.150000
vertex 0.000020 0.007884 0.000000
vertex 0.000077 0.007737 0.000000
endloop
endfacet
facet normal -0.932962 -0.359975 0.000000
outer loop
vertex 0.000020 0.007884 0.150000
vertex 0.000077 0.007737 0.000000
vertex 0.000077 0.007737 0.150000
endloop
endfacet
facet normal 0.909926 -0.414771 0.000000
outer loop
vertex 0.011169 0.000546 0.150000
vertex 0.011169 0.000546 0.000000
vertex 0.011217 0.000652 0.000000
endloop
endfacet
facet normal 0.909915 -0.414794 0.000000
outer loop
vertex 0.011169 0.000546 0.150000
vertex 0.011217 0.000652 0.000000
vertex 0.011217 0.000652 0.150000
endloop
endfacet
facet normal 0.989631 -0.143634 0.000000
outer loop
vertex 0.011388 0.001445 0.000000
vertex 0.011401 0.001534 0.000000
vertex 0.011401 0.001534 0.150000
endloop
endfacet
facet normal 0.989634 -0.143617 0.000000
outer loop
vertex 0.011388 0.001445 0.000000
vertex 0.011401 0.001534 0.150000
vertex 0.011388 0.001445 0.150000
endloop
endfacet
facet normal 0.984739 -0.174037 0.000000
outer loop
vertex 0.011372 0.001354 0.000000
vertex 0.011388 0.001445 0.000000
vertex 0.011388 0.001445 0.150000
endloop
endfacet
facet normal 0.984736 -0.174053 0.000000
outer loop
vertex 0.011372 0.001354 0.000000
vertex 0.011388 0.001445 0.150000
vertex 0.011372 0.001354 0.150000
endloop
endfacet
facet normal 0.965236 -0.261380 0.000000
outer loop
vertex 0.011217 0.000652 0.150000
vertex 0.011217 0.000652 0.000000
vertex 0.011252 0.000783 0.000000
endloop
endfacet
facet normal 0.978814 -0.204750 0.000000
outer loop
vertex 0.011252 0.000783 0.000000
vertex 0.011372 0.001354 0.000000
vertex 0.011372 0.001354 0.150000
endloop
endfacet
facet normal 0.965236 -0.261380 0.000000
outer loop
vertex 0.011252 0.000783 0.150000
vertex 0.011217 0.000652 0.150000
vertex 0.011252 0.000783 0.000000
endloop
endfacet
facet normal 0.978814 -0.204753 0.000000
outer loop
vertex 0.011372 0.001354 0.150000
vertex 0.011252 0.000783 0.150000
vertex 0.011252 0.000783 0.000000
endloop
endfacet
facet normal -0.761655 -0.647982 0.000000
outer loop
vertex 0.001426 0.005722 0.000000
vertex 0.001579 0.005542 0.000000
vertex 0.001579 0.005542 0.150000
endloop
endfacet
facet normal -0.761656 -0.647982 0.000000
outer loop
vertex 0.001426 0.005722 0.000000
vertex 0.001579 0.005542 0.150000
vertex 0.001426 0.005722 0.150000
endloop
endfacet
facet normal -0.779970 -0.625817 0.000000
outer loop
vertex 0.001260 0.005928 0.000000
vertex 0.001426 0.005722 0.000000
vertex 0.001426 0.005722 0.150000
endloop
endfacet
facet normal -0.779970 -0.625817 0.000000
outer loop
vertex 0.001260 0.005928 0.000000
vertex 0.001426 0.005722 0.150000
vertex 0.001260 0.005928 0.150000
endloop
endfacet
facet normal -0.794035 -0.607871 0.000000
outer loop
vertex 0.001087 0.006154 0.000000
vertex 0.001260 0.005928 0.000000
vertex 0.001260 0.005928 0.150000
endloop
endfacet
facet normal -0.794035 -0.607871 0.000000
outer loop
vertex 0.001087 0.006154 0.000000
vertex 0.001260 0.005928 0.150000
vertex 0.001087 0.006154 0.150000
endloop
endfacet
facet normal -0.811637 -0.584163 0.000000
outer loop
vertex 0.000738 0.006639 0.000000
vertex 0.001087 0.006154 0.000000
vertex 0.001087 0.006154 0.150000
endloop
endfacet
facet normal -0.811637 -0.584163 0.000000
outer loop
vertex 0.000738 0.006639 0.000000
vertex 0.001087 0.006154 0.150000
vertex 0.000738 0.006639 0.150000
endloop
endfacet
facet normal -0.840588 -0.541676 0.000000
outer loop
vertex 0.000418 0.007125 0.150000
vertex 0.000418 0.007125 0.000000
vertex 0.000572 0.006885 0.000000
endloop
endfacet
facet normal -0.828356 -0.560202 0.000000
outer loop
vertex 0.000572 0.006885 0.000000
vertex 0.000738 0.006639 0.000000
vertex 0.000738 0.006639 0.150000
endloop
endfacet
facet normal -0.840588 -0.541676 0.000000
outer loop
vertex 0.000572 0.006885 0.150000
vertex 0.000418 0.007125 0.150000
vertex 0.000572 0.006885 0.000000
endloop
endfacet
facet normal -0.828356 -0.560202 0.000000
outer loop
vertex 0.000738 0.006639 0.150000
vertex 0.000572 0.006885 0.150000
vertex 0.000572 0.006885 0.000000
endloop
endfacet
facet normal -0.522076 0.852899 0.000000
outer loop
vertex 0.000448 0.008379 0.150000
vertex 0.000448 0.008379 0.000000
vertex 0.000370 0.008332 0.000000
endloop
endfacet
facet normal -0.522076 0.852899 0.000000
outer loop
vertex 0.000448 0.008379 0.150000
vertex 0.000370 0.008332 0.000000
vertex 0.000370 0.008332 0.150000
endloop
endfacet
facet normal 0.000000 0.000000 -1.000000
outer loop
vertex 0.010869 0.003549 0.000000
vertex 0.011230 0.002726 0.000000
vertex 0.011302 0.002533 0.000000
endloop
endfacet
facet normal 0.000000 0.000000 -1.000000
outer loop
vertex 0.011302 0.002533 0.000000
vertex 0.011379 0.002239 0.000000
vertex 0.011407 0.002021 0.000000
endloop
endfacet
facet normal 0.000000 0.000000 -1.000000
outer loop
vertex 0.011407 0.002021 0.000000
vertex 0.011416 0.001713 0.000000
vertex 0.011401 0.001534 0.000000
endloop
endfacet
facet normal 0.000000 0.000000 -1.000000
outer loop
vertex 0.011401 0.001534 0.000000
vertex 0.011388 0.001445 0.000000
vertex 0.011372 0.001354 0.000000
endloop
endfacet
facet normal 0.000000 0.000000 -1.000000
outer loop
vertex 0.011372 0.001354 0.000000
vertex 0.011252 0.000783 0.000000
vertex 0.011217 0.000652 0.000000
endloop
endfacet
facet normal 0.000000 0.000000 -1.000000
outer loop
vertex 0.011217 0.000652 0.000000
vertex 0.011169 0.000546 0.000000
vertex 0.011108 0.000462 0.000000
endloop
endfacet
facet normal 0.000000 0.000000 -1.000000
outer loop
vertex 0.011108 0.000462 0.000000
vertex 0.011035 0.000396 0.000000
vertex 0.010950 0.000345 0.000000
endloop
endfacet
facet normal 0.000000 0.000000 -1.000000
outer loop
vertex 0.010950 0.000345 0.000000
vertex 0.010854 0.000304 0.000000
vertex 0.009767 0.000007 0.000000
endloop
endfacet
facet normal 0.000000 0.000000 -1.000000
outer loop
vertex 0.009767 0.000007 0.000000
vertex 0.009662 0.000000 0.000000
vertex 0.009575 0.000011 0.000000
endloop
endfacet
facet normal 0.000000 0.000000 -1.000000
outer loop
vertex 0.009575 0.000011 0.000000
vertex 0.009502 0.000038 0.000000
vertex 0.009439 0.000080 0.000000
endloop
endfacet
facet normal 0.000000 0.000000 -1.000000
outer loop
vertex 0.009439 0.000080 0.000000
vertex 0.009381 0.000135 0.000000
vertex 0.009325 0.000201 0.000000
endloop
endfacet
facet normal 0.000000 0.000000 -1.000000
outer loop
vertex 0.009439 0.000080 0.000000
vertex 0.009325 0.000201 0.000000
vertex 0.009203 0.000361 0.000000
endloop
endfacet
facet normal 0.000000 0.000000 -1.000000
outer loop
vertex 0.009767 0.000007 0.000000
vertex 0.009575 0.000011 0.000000
vertex 0.009439 0.000080 0.000000
endloop
endfacet
facet normal 0.000000 0.000000 -1.000000
outer loop
vertex 0.011108 0.000462 0.000000
vertex 0.010950 0.000345 0.000000
vertex 0.009767 0.000007 0.000000
endloop
endfacet
facet normal 0.000000 0.000000 -1.000000
outer loop
vertex 0.011372 0.001354 0.000000
vertex 0.011217 0.000652 0.000000
vertex 0.011108 0.000462 0.000000
endloop
endfacet
facet normal 0.000000 0.000000 -1.000000
outer loop
vertex 0.011407 0.002021 0.000000
vertex 0.011401 0.001534 0.000000
vertex 0.011372 0.001354 0.000000
endloop
endfacet
facet normal 0.000000 0.000000 -1.000000
outer loop
vertex 0.010869 0.003549 0.000000
vertex 0.011302 0.002533 0.000000
vertex 0.011407 0.002021 0.000000
endloop
endfacet
facet normal 0.000000 0.000000 -1.000000
outer loop
vertex 0.010654 0.003967 0.000000
vertex 0.010762 0.003766 0.000000
vertex 0.010869 0.003549 0.000000
endloop
endfacet
facet normal 0.000000 0.000000 -1.000000
outer loop
vertex 0.009825 0.005289 0.000000
vertex 0.009950 0.005117 0.000000
vertex 0.010654 0.003967 0.000000
endloop
endfacet
facet normal 0.000000 0.000000 -1.000000
outer loop
vertex 0.008695 0.006653 0.000000
vertex 0.008766 0.006573 0.000000
vertex 0.009825 0.005289 0.000000
endloop
endfacet
facet normal 0.000000 0.000000 -1.000000
outer loop
vertex 0.008547 0.006803 0.000000
vertex 0.008622 0.006730 0.000000
vertex 0.008695 0.006653 0.000000
endloop
endfacet
facet normal 0.000000 0.000000 -1.000000
outer loop
vertex 0.007763 0.007438 0.000000
vertex 0.007912 0.007346 0.000000
vertex 0.008547 0.006803 0.000000
endloop
endfacet
facet normal 0.000000 0.000000 -1.000000
outer loop
vertex 0.007572 0.007522 0.000000
vertex 0.007674 0.007481 0.000000
vertex 0.007763 0.007438 0.000000
endloop
endfacet
facet normal 0.000000 0.000000 -1.000000
outer loop
vertex 0.006884 0.007755 0.000000
vertex 0.006966 0.007729 0.000000
vertex 0.007572 0.007522 0.000000
endloop
endfacet
facet normal 0.000000 0.000000 -1.000000
outer loop
vertex 0.006510 0.007823 0.000000
vertex 0.006712 0.007797 0.000000
vertex 0.006884 0.007755 0.000000
endloop
endfacet
facet normal 0.000000 0.000000 -1.000000
outer loop
vertex 0.003306 0.007632 0.000000
vertex 0.006255 0.007832 0.000000
vertex 0.006510 0.007823 0.000000
endloop
endfacet
facet normal 0.000000 0.000000 -1.000000
outer loop
vertex 0.003306 0.007632 0.000000
vertex 0.006510 0.007823 0.000000
vertex 0.006884 0.007755 0.000000
endloop
endfacet
facet normal 0.000000 0.000000 -1.000000
outer loop
vertex 0.006884 0.007755 0.000000
vertex 0.007572 0.007522 0.000000
vertex 0.007763 0.007438 0.000000
endloop
endfacet
facet normal 0.000000 0.000000 -1.000000
outer loop
vertex 0.007763 0.007438 0.000000
vertex 0.008547 0.006803 0.000000
vertex 0.008695 0.006653 0.000000
endloop
endfacet
facet normal 0.000000 0.000000 -1.000000
outer loop
vertex 0.008695 0.006653 0.000000
vertex 0.009825 0.005289 0.000000
vertex 0.010654 0.003967 0.000000
endloop
endfacet
facet normal 0.000000 0.000000 -1.000000
outer loop
vertex 0.010654 0.003967 0.000000
vertex 0.010869 0.003549 0.000000
vertex 0.011407 0.002021 0.000000
endloop
endfacet
facet normal 0.000000 0.000000 -1.000000
outer loop
vertex 0.011407 0.002021 0.000000
vertex 0.011372 0.001354 0.000000
vertex 0.011108 0.000462 0.000000
endloop
endfacet
facet normal 0.000000 0.000000 -1.000000
outer loop
vertex 0.011108 0.000462 0.000000
vertex 0.009767 0.000007 0.000000
vertex 0.009439 0.000080 0.000000
endloop
endfacet
facet normal 0.000000 0.000000 -1.000000
outer loop
vertex 0.009439 0.000080 0.000000
vertex 0.009203 0.000361 0.000000
vertex 0.009129 0.000451 0.000000
endloop
endfacet
facet normal 0.000000 0.000000 -1.000000
outer loop
vertex 0.009129 0.000451 0.000000
vertex 0.008864 0.000730 0.000000
vertex 0.008655 0.000978 0.000000
endloop
endfacet
facet normal 0.000000 0.000000 -1.000000
outer loop
vertex 0.009129 0.000451 0.000000
vertex 0.008655 0.000978 0.000000
vertex 0.008323 0.001407 0.000000
endloop
endfacet
facet normal 0.000000 0.000000 -1.000000
outer loop
vertex 0.011108 0.000462 0.000000
vertex 0.009439 0.000080 0.000000
vertex 0.009129 0.000451 0.000000
endloop
endfacet
facet normal 0.000000 0.000000 -1.000000
outer loop
vertex 0.010654 0.003967 0.000000
vertex 0.011407 0.002021 0.000000
vertex 0.011108 0.000462 0.000000
endloop
endfacet
facet normal 0.000000 0.000000 -1.000000
outer loop
vertex 0.007763 0.007438 0.000000
vertex 0.008695 0.006653 0.000000
vertex 0.010654 0.003967 0.000000
endloop
endfacet
facet normal 0.000000 0.000000 -1.000000
outer loop
vertex 0.003306 0.007632 0.000000
vertex 0.006884 0.007755 0.000000
vertex 0.007763 0.007438 0.000000
endloop
endfacet
facet normal 0.000000 0.000000 -1.000000
outer loop
vertex 0.003306 0.007632 0.000000
vertex 0.007763 0.007438 0.000000
vertex 0.010654 0.003967 0.000000
endloop
endfacet
facet normal 0.000000 0.000000 -1.000000
outer loop
vertex 0.010654 0.003967 0.000000
vertex 0.011108 0.000462 0.000000
vertex 0.009129 0.000451 0.000000
endloop
endfacet
facet normal 0.000000 0.000000 -1.000000
outer loop
vertex 0.009129 0.000451 0.000000
vertex 0.008323 0.001407 0.000000
vertex 0.008266 0.001475 0.000000
endloop
endfacet
facet normal 0.000000 0.000000 -1.000000
outer loop
vertex 0.010654 0.003967 0.000000
vertex 0.009129 0.000451 0.000000
vertex 0.008266 0.001475 0.000000
endloop
endfacet
facet normal 0.000000 0.000000 -1.000000
outer loop
vertex 0.003106 0.007655 0.000000
vertex 0.003306 0.007632 0.000000
vertex 0.010654 0.003967 0.000000
endloop
endfacet
facet normal 0.000000 0.000000 -1.000000
outer loop
vertex 0.003015 0.007679 0.000000
vertex 0.003106 0.007655 0.000000
vertex 0.010654 0.003967 0.000000
endloop
endfacet
facet normal 0.000000 0.000000 -1.000000
outer loop
vertex 0.010654 0.003967 0.000000
vertex 0.008266 0.001475 0.000000
vertex 0.008203 0.001545 0.000000
endloop
endfacet
facet normal 0.000000 0.000000 -1.000000
outer loop
vertex 0.010654 0.003967 0.000000
vertex 0.008203 0.001545 0.000000
vertex 0.007133 0.002520 0.000000
endloop
endfacet
facet normal 0.000000 0.000000 -1.000000
outer loop
vertex 0.002930 0.007712 0.000000
vertex 0.003015 0.007679 0.000000
vertex 0.010654 0.003967 0.000000
endloop
endfacet
facet normal 0.000000 0.000000 -1.000000
outer loop
vertex 0.002930 0.007712 0.000000
vertex 0.010654 0.003967 0.000000
vertex 0.007133 0.002520 0.000000
endloop
endfacet
facet normal 0.000000 0.000000 -1.000000
outer loop
vertex 0.002930 0.007712 0.000000
vertex 0.007133 0.002520 0.000000
vertex 0.007026 0.002598 0.000000
endloop
endfacet
facet normal 0.000000 0.000000 -1.000000
outer loop
vertex 0.002850 0.007755 0.000000
vertex 0.002930 0.007712 0.000000
vertex 0.007026 0.002598 0.000000
endloop
endfacet
facet normal 0.000000 0.000000 -1.000000
outer loop
vertex 0.002850 0.007755 0.000000
vertex 0.007026 0.002598 0.000000
vertex 0.006906 0.002675 0.000000
endloop
endfacet
facet normal 0.000000 0.000000 -1.000000
outer loop
vertex 0.002774 0.007804 0.000000
vertex 0.002850 0.007755 0.000000
vertex 0.006906 0.002675 0.000000
endloop
endfacet
facet normal 0.000000 0.000000 -1.000000
outer loop
vertex 0.002774 0.007804 0.000000
vertex 0.006906 0.002675 0.000000
vertex 0.006777 0.002749 0.000000
endloop
endfacet
facet normal 0.000000 0.000000 -1.000000
outer loop
vertex 0.002701 0.007854 0.000000
vertex 0.002774 0.007804 0.000000
vertex 0.006777 0.002749 0.000000
endloop
endfacet
facet normal 0.000000 0.000000 -1.000000
outer loop
vertex 0.006041 0.003094 0.000000
vertex 0.003895 0.003827 0.000000
vertex 0.003757 0.003899 0.000000
endloop
endfacet
facet normal 0.000000 0.000000 -1.000000
outer loop
vertex 0.002701 0.007854 0.000000
vertex 0.006777 0.002749 0.000000
vertex 0.006041 0.003094 0.000000
endloop
endfacet
facet normal 0.000000 0.000000 -1.000000
outer loop
vertex 0.002484 0.008005 0.000000
vertex 0.002556 0.007955 0.000000
vertex 0.002628 0.007904 0.000000
endloop
endfacet
facet normal 0.000000 0.000000 -1.000000
outer loop
vertex 0.002628 0.007904 0.000000
vertex 0.002701 0.007854 0.000000
vertex 0.006041 0.003094 0.000000
endloop
endfacet
facet normal 0.000000 0.000000 -1.000000
outer loop
vertex 0.006041 0.003094 0.000000
vertex 0.003757 0.003899 0.000000
vertex 0.003580 0.004002 0.000000
endloop
endfacet
facet normal 0.000000 0.000000 -1.000000
outer loop
vertex 0.003580 0.004002 0.000000
vertex 0.003374 0.004130 0.000000
vertex 0.002901 0.004447 0.000000
endloop
endfacet
facet normal 0.000000 0.000000 -1.000000
outer loop
vertex 0.002901 0.004447 0.000000
vertex 0.002402 0.004812 0.000000
vertex 0.002163 0.005001 0.000000
endloop
endfacet
facet normal 0.000000 0.000000 -1.000000
outer loop
vertex 0.002163 0.005001 0.000000
vertex 0.001941 0.005189 0.000000
vertex 0.001743 0.005370 0.000000
endloop
endfacet
facet normal 0.000000 0.000000 -1.000000
outer loop
vertex 0.001743 0.005370 0.000000
vertex 0.001579 0.005542 0.000000
vertex 0.001426 0.005722 0.000000
endloop
endfacet
facet normal 0.000000 0.000000 -1.000000
outer loop
vertex 0.001426 0.005722 0.000000
vertex 0.001260 0.005928 0.000000
vertex 0.001087 0.006154 0.000000
endloop
endfacet
facet normal 0.000000 0.000000 -1.000000
outer loop
vertex 0.001087 0.006154 0.000000
vertex 0.000738 0.006639 0.000000
vertex 0.000572 0.006885 0.000000
endloop
endfacet
facet normal 0.000000 0.000000 -1.000000
outer loop
vertex 0.000572 0.006885 0.000000
vertex 0.000418 0.007125 0.000000
vertex 0.000280 0.007351 0.000000
endloop
endfacet
facet normal 0.000000 0.000000 -1.000000
outer loop
vertex 0.000280 0.007351 0.000000
vertex 0.000165 0.007557 0.000000
vertex 0.000077 0.007737 0.000000
endloop
endfacet
facet normal 0.000000 0.000000 -1.000000
outer loop
vertex 0.000077 0.007737 0.000000
vertex 0.000020 0.007884 0.000000
vertex 0.000000 0.007991 0.000000
endloop
endfacet
facet normal 0.000000 0.000000 -1.000000
outer loop
vertex 0.000000 0.007991 0.000000
vertex 0.000008 0.008000 0.000000
vertex 0.000029 0.008025 0.000000
endloop
endfacet
facet normal 0.000000 0.000000 -1.000000
outer loop
vertex 0.000029 0.008025 0.000000
vertex 0.000064 0.008063 0.000000
vertex 0.000109 0.008110 0.000000
endloop
endfacet
facet normal 0.000000 0.000000 -1.000000
outer loop
vertex 0.000109 0.008110 0.000000
vertex 0.000164 0.008164 0.000000
vertex 0.000227 0.008221 0.000000
endloop
endfacet
facet normal 0.000000 0.000000 -1.000000
outer loop
vertex 0.000227 0.008221 0.000000
vertex 0.000370 0.008332 0.000000
vertex 0.000448 0.008379 0.000000
endloop
endfacet
facet normal 0.000000 0.000000 -1.000000
outer loop
vertex 0.000448 0.008379 0.000000
vertex 0.000527 0.008417 0.000000
vertex 0.000606 0.008442 0.000000
endloop
endfacet
facet normal 0.000000 0.000000 -1.000000
outer loop
vertex 0.000606 0.008442 0.000000
vertex 0.000684 0.008451 0.000000
vertex 0.000764 0.008450 0.000000
endloop
endfacet
facet normal 0.000000 0.000000 -1.000000
outer loop
vertex 0.000764 0.008450 0.000000
vertex 0.000850 0.008447 0.000000
vertex 0.001037 0.008437 0.000000
endloop
endfacet
facet normal 0.000000 0.000000 -1.000000
outer loop
vertex 0.001037 0.008437 0.000000
vertex 0.001137 0.008428 0.000000
vertex 0.001240 0.008417 0.000000
endloop
endfacet
facet normal 0.000000 0.000000 -1.000000
outer loop
vertex 0.001240 0.008417 0.000000
vertex 0.001452 0.008388 0.000000
vertex 0.001668 0.008348 0.000000
endloop
endfacet
facet normal 0.000000 0.000000 -1.000000
outer loop
vertex 0.001668 0.008348 0.000000
vertex 0.001883 0.008296 0.000000
vertex 0.002081 0.008229 0.000000
endloop
endfacet
facet normal 0.000000 0.000000 -1.000000
outer loop
vertex 0.002081 0.008229 0.000000
vertex 0.002254 0.008147 0.000000
vertex 0.002334 0.008102 0.000000
endloop
endfacet
facet normal 0.000000 0.000000 -1.000000
outer loop
vertex 0.002334 0.008102 0.000000
vertex 0.002410 0.008054 0.000000
vertex 0.002484 0.008005 0.000000
endloop
endfacet
facet normal 0.000000 0.000000 -1.000000
outer loop
vertex 0.002484 0.008005 0.000000
vertex 0.002628 0.007904 0.000000
vertex 0.006041 0.003094 0.000000
endloop
endfacet
facet normal 0.000000 0.000000 -1.000000
outer loop
vertex 0.006041 0.003094 0.000000
vertex 0.003580 0.004002 0.000000
vertex 0.002901 0.004447 0.000000
endloop
endfacet
facet normal 0.000000 0.000000 -1.000000
outer loop
vertex 0.002901 0.004447 0.000000
vertex 0.002163 0.005001 0.000000
vertex 0.001743 0.005370 0.000000
endloop
endfacet
facet normal 0.000000 0.000000 -1.000000
outer loop
vertex 0.001743 0.005370 0.000000
vertex 0.001426 0.005722 0.000000
vertex 0.001087 0.006154 0.000000
endloop
endfacet
facet normal 0.000000 0.000000 -1.000000
outer loop
vertex 0.001087 0.006154 0.000000
vertex 0.000572 0.006885 0.000000
vertex 0.000280 0.007351 0.000000
endloop
endfacet
facet normal 0.000000 0.000000 -1.000000
outer loop
vertex 0.000280 0.007351 0.000000
vertex 0.000077 0.007737 0.000000
vertex 0.000000 0.007991 0.000000
endloop
endfacet
facet normal 0.000000 0.000000 -1.000000
outer loop
vertex 0.000000 0.007991 0.000000
vertex 0.000029 0.008025 0.000000
vertex 0.000109 0.008110 0.000000
endloop
endfacet
facet normal 0.000000 0.000000 -1.000000
outer loop
vertex 0.000109 0.008110 0.000000
vertex 0.000227 0.008221 0.000000
vertex 0.000448 0.008379 0.000000
endloop
endfacet
facet normal 0.000000 0.000000 -1.000000
outer loop
vertex 0.000448 0.008379 0.000000
vertex 0.000606 0.008442 0.000000
vertex 0.000764 0.008450 0.000000
endloop
endfacet
facet normal 0.000000 0.000000 -1.000000
outer loop
vertex 0.000764 0.008450 0.000000
vertex 0.001037 0.008437 0.000000
vertex 0.001240 0.008417 0.000000
endloop
endfacet
facet normal 0.000000 0.000000 -1.000000
outer loop
vertex 0.001240 0.008417 0.000000
vertex 0.001668 0.008348 0.000000
vertex 0.002081 0.008229 0.000000
endloop
endfacet
facet normal 0.000000 0.000000 -1.000000
outer loop
vertex 0.002081 0.008229 0.000000
vertex 0.002334 0.008102 0.000000
vertex 0.002484 0.008005 0.000000
endloop
endfacet
facet normal 0.000000 0.000000 -1.000000
outer loop
vertex 0.002484 0.008005 0.000000
vertex 0.006041 0.003094 0.000000
vertex 0.002901 0.004447 0.000000
endloop
endfacet
facet normal 0.000000 0.000000 -1.000000
outer loop
vertex 0.002901 0.004447 0.000000
vertex 0.001743 0.005370 0.000000
vertex 0.001087 0.006154 0.000000
endloop
endfacet
facet normal 0.000000 0.000000 -1.000000
outer loop
vertex 0.001087 0.006154 0.000000
vertex 0.000280 0.007351 0.000000
vertex 0.000000 0.007991 0.000000
endloop
endfacet
facet normal 0.000000 0.000000 -1.000000
outer loop
vertex 0.000000 0.007991 0.000000
vertex 0.000109 0.008110 0.000000
vertex 0.000448 0.008379 0.000000
endloop
endfacet
facet normal 0.000000 0.000000 -1.000000
outer loop
vertex 0.000448 0.008379 0.000000
vertex 0.000764 0.008450 0.000000
vertex 0.001240 0.008417 0.000000
endloop
endfacet
facet normal 0.000000 0.000000 -1.000000
outer loop
vertex 0.001240 0.008417 0.000000
vertex 0.002081 0.008229 0.000000
vertex 0.002484 0.008005 0.000000
endloop
endfacet
facet normal 0.000000 0.000000 -1.000000
outer loop
vertex 0.002484 0.008005 0.000000
vertex 0.002901 0.004447 0.000000
vertex 0.001087 0.006154 0.000000
endloop
endfacet
facet normal 0.000000 0.000000 -1.000000
outer loop
vertex 0.001087 0.006154 0.000000
vertex 0.000000 0.007991 0.000000
vertex 0.000448 0.008379 0.000000
endloop
endfacet
facet normal 0.000000 0.000000 -1.000000
outer loop
vertex 0.000448 0.008379 0.000000
vertex 0.001240 0.008417 0.000000
vertex 0.002484 0.008005 0.000000
endloop
endfacet
facet normal 0.000000 0.000000 -1.000000
outer loop
vertex 0.001087 0.006154 0.000000
vertex 0.000448 0.008379 0.000000
vertex 0.002484 0.008005 0.000000
endloop
endfacet
facet normal -0.323145 -0.946349 0.000000
outer loop
vertex 0.003895 0.003827 0.000000
vertex 0.006041 0.003094 0.000000
vertex 0.006041 0.003094 0.150000
endloop
endfacet
facet normal -0.323145 -0.946349 0.000000
outer loop
vertex 0.003895 0.003827 0.000000
vertex 0.006041 0.003094 0.150000
vertex 0.003895 0.003827 0.150000
endloop
endfacet
endsolid Exported from Blender-3.6.8
