solid Exported from Blender-3.6.8
facet normal 0.000000 0.000000 -1.000000
outer loop
vertex 0.004845 0.000128 0.000000
vertex 0.004588 0.000068 0.000000
vertex 0.003451 0.000001 0.000000
endloop
endfacet
facet normal 0.000000 0.000000 -1.000000
outer loop
vertex 0.003451 0.000001 0.000000
vertex 0.003296 0.000009 0.000000
vertex 0.002991 0.000055 0.000000
endloop
endfacet
facet normal 0.000000 0.000000 -1.000000
outer loop
vertex 0.002991 0.000055 0.000000
vertex 0.002683 0.000144 0.000000
vertex 0.002361 0.000274 0.000000
endloop
endfacet
facet normal 0.000000 0.000000 -1.000000
outer loop
vertex 0.002361 0.000274 0.000000
vertex 0.002190 0.000355 0.000000
vertex 0.002013 0.000447 0.000000
endloop
endfacet
facet normal 0.000000 0.000000 -1.000000
outer loop
vertex 0.002013 0.000447 0.000000
vertex 0.001650 0.000652 0.000000
vertex 0.001506 0.000742 0.000000
endloop
endfacet
facet normal 0.000000 0.000000 -1.000000
outer loop
vertex 0.001506 0.000742 0.000000
vertex 0.001291 0.000904 0.000000
vertex 0.001209 0.000985 0.000000
endloop
endfacet
facet normal 0.000000 0.000000 -1.000000
outer loop
vertex 0.001209 0.000985 0.000000
vertex 0.001070 0.001165 0.000000
vertex 0.000409 0.002306 0.000000
endloop
endfacet
facet normal 0.000000 0.000000 -1.000000
outer loop
vertex 0.000409 0.002306 0.000000
vertex 0.000278 0.002628 0.000000
vertex 0.000206 0.002913 0.000000
endloop
endfacet
facet normal 0.000000 0.000000 -1.000000
outer loop
vertex 0.000206 0.002913 0.000000
vertex 0.000006 0.004569 0.000000
vertex 0.000001 0.004728 0.000000
endloop
endfacet
facet normal 0.000000 0.000000 -1.000000
outer loop
vertex 0.000001 0.004728 0.000000
vertex 0.000000 0.004883 0.000000
vertex 0.000014 0.005192 0.000000
endloop
endfacet
facet normal 0.000000 0.000000 -1.000000
outer loop
vertex 0.000014 0.005192 0.000000
vertex 0.000027 0.005350 0.000000
vertex 0.000044 0.005512 0.000000
endloop
endfacet
facet normal 0.000000 0.000000 -1.000000
outer loop
vertex 0.000044 0.005512 0.000000
vertex 0.000065 0.005682 0.000000
vertex 0.000088 0.005861 0.000000
endloop
endfacet
facet normal 0.000000 0.000000 -1.000000
outer loop
vertex 0.000088 0.005861 0.000000
vertex 0.000133 0.006047 0.000000
vertex 0.000212 0.006232 0.000000
endloop
endfacet
facet normal 0.000000 0.000000 -1.000000
outer loop
vertex 0.000212 0.006232 0.000000
vertex 0.000320 0.006416 0.000000
vertex 0.000450 0.006595 0.000000
endloop
endfacet
facet normal 0.000000 0.000000 -1.000000
outer loop
vertex 0.000450 0.006595 0.000000
vertex 0.000751 0.006930 0.000000
vertex 0.001513 0.007571 0.000000
endloop
endfacet
facet normal 0.000000 0.000000 -1.000000
outer loop
vertex 0.001513 0.007571 0.000000
vertex 0.001539 0.007579 0.000000
vertex 0.001612 0.007600 0.000000
endloop
endfacet
facet normal 0.000000 0.000000 -1.000000
outer loop
vertex 0.000450 0.006595 0.000000
vertex 0.001513 0.007571 0.000000
vertex 0.001513 0.007571 0.000000
endloop
endfacet
facet normal 0.000000 0.000000 -1.000000
outer loop
vertex 0.000088 0.005861 0.000000
vertex 0.000212 0.006232 0.000000
vertex 0.000450 0.006595 0.000000
endloop
endfacet
facet normal 0.000000 0.000000 -1.000000
outer loop
vertex 0.000014 0.005192 0.000000
vertex 0.000044 0.005512 0.000000
vertex 0.000088 0.005861 0.000000
endloop
endfacet
facet normal 0.000000 0.000000 -1.000000
outer loop
vertex 0.000206 0.002913 0.000000
vertex 0.000001 0.004728 0.000000
vertex 0.000014 0.005192 0.000000
endloop
endfacet
facet normal 0.000000 0.000000 -1.000000
outer loop
vertex 0.001209 0.000985 0.000000
vertex 0.000409 0.002306 0.000000
vertex 0.000206 0.002913 0.000000
endloop
endfacet
facet normal 0.000000 0.000000 -1.000000
outer loop
vertex 0.002013 0.000447 0.000000
vertex 0.001506 0.000742 0.000000
vertex 0.001209 0.000985 0.000000
endloop
endfacet
facet normal 0.000000 0.000000 -1.000000
outer loop
vertex 0.002991 0.000055 0.000000
vertex 0.002361 0.000274 0.000000
vertex 0.002013 0.000447 0.000000
endloop
endfacet
facet normal 0.000000 0.000000 -1.000000
outer loop
vertex 0.004845 0.000128 0.000000
vertex 0.003451 0.000001 0.000000
vertex 0.002991 0.000055 0.000000
endloop
endfacet
facet normal 0.000000 0.000000 -1.000000
outer loop
vertex 0.005302 0.000338 0.000000
vertex 0.004985 0.000179 0.000000
vertex 0.004845 0.000128 0.000000
endloop
endfacet
facet normal 0.000000 0.000000 -1.000000
outer loop
vertex 0.006395 0.001052 0.000000
vertex 0.006273 0.000964 0.000000
vertex 0.005302 0.000338 0.000000
endloop
endfacet
facet normal 0.000000 0.000000 -1.000000
outer loop
vertex 0.006708 0.001334 0.000000
vertex 0.006507 0.001141 0.000000
vertex 0.006395 0.001052 0.000000
endloop
endfacet
facet normal 0.000000 0.000000 -1.000000
outer loop
vertex 0.007559 0.002606 0.000000
vertex 0.006799 0.001443 0.000000
vertex 0.006708 0.001334 0.000000
endloop
endfacet
facet normal 0.000000 0.000000 -1.000000
outer loop
vertex 0.007778 0.003094 0.000000
vertex 0.007720 0.002930 0.000000
vertex 0.007559 0.002606 0.000000
endloop
endfacet
facet normal 0.000000 0.000000 -1.000000
outer loop
vertex 0.007833 0.003425 0.000000
vertex 0.007817 0.003259 0.000000
vertex 0.007778 0.003094 0.000000
endloop
endfacet
facet normal 0.000000 0.000000 -1.000000
outer loop
vertex 0.007677 0.004542 0.000000
vertex 0.007735 0.004293 0.000000
vertex 0.007833 0.003425 0.000000
endloop
endfacet
facet normal 0.000000 0.000000 -1.000000
outer loop
vertex 0.007499 0.004942 0.000000
vertex 0.007632 0.004669 0.000000
vertex 0.007677 0.004542 0.000000
endloop
endfacet
facet normal 0.000000 0.000000 -1.000000
outer loop
vertex 0.007171 0.005419 0.000000
vertex 0.007405 0.005093 0.000000
vertex 0.007499 0.004942 0.000000
endloop
endfacet
facet normal 0.000000 0.000000 -1.000000
outer loop
vertex 0.006788 0.005982 0.000000
vertex 0.006881 0.005851 0.000000
vertex 0.007067 0.005572 0.000000
endloop
endfacet
facet normal 0.000000 0.000000 -1.000000
outer loop
vertex 0.007171 0.005419 0.000000
vertex 0.007499 0.004942 0.000000
vertex 0.007677 0.004542 0.000000
endloop
endfacet
facet normal 0.000000 0.000000 -1.000000
outer loop
vertex 0.006577 0.006238 0.000000
vertex 0.006788 0.005982 0.000000
vertex 0.007067 0.005572 0.000000
endloop
endfacet
facet normal 0.000000 0.000000 -1.000000
outer loop
vertex 0.007067 0.005572 0.000000
vertex 0.007171 0.005419 0.000000
vertex 0.007677 0.004542 0.000000
endloop
endfacet
facet normal 0.000000 0.000000 -1.000000
outer loop
vertex 0.007677 0.004542 0.000000
vertex 0.007833 0.003425 0.000000
vertex 0.007778 0.003094 0.000000
endloop
endfacet
facet normal 0.000000 0.000000 -1.000000
outer loop
vertex 0.007778 0.003094 0.000000
vertex 0.007559 0.002606 0.000000
vertex 0.006708 0.001334 0.000000
endloop
endfacet
facet normal 0.000000 0.000000 -1.000000
outer loop
vertex 0.006708 0.001334 0.000000
vertex 0.006395 0.001052 0.000000
vertex 0.005302 0.000338 0.000000
endloop
endfacet
facet normal 0.000000 0.000000 -1.000000
outer loop
vertex 0.005302 0.000338 0.000000
vertex 0.004845 0.000128 0.000000
vertex 0.002991 0.000055 0.000000
endloop
endfacet
facet normal 0.000000 0.000000 -1.000000
outer loop
vertex 0.002991 0.000055 0.000000
vertex 0.002013 0.000447 0.000000
vertex 0.001209 0.000985 0.000000
endloop
endfacet
facet normal 0.000000 0.000000 -1.000000
outer loop
vertex 0.001209 0.000985 0.000000
vertex 0.000206 0.002913 0.000000
vertex 0.000014 0.005192 0.000000
endloop
endfacet
facet normal 0.000000 0.000000 -1.000000
outer loop
vertex 0.000014 0.005192 0.000000
vertex 0.000088 0.005861 0.000000
vertex 0.000450 0.006595 0.000000
endloop
endfacet
facet normal 0.000000 0.000000 -1.000000
outer loop
vertex 0.000450 0.006595 0.000000
vertex 0.001513 0.007571 0.000000
vertex 0.001612 0.007600 0.000000
endloop
endfacet
facet normal 0.000000 0.000000 -1.000000
outer loop
vertex 0.001612 0.007600 0.000000
vertex 0.001726 0.007633 0.000000
vertex 0.001871 0.007673 0.000000
endloop
endfacet
facet normal 0.000000 0.000000 -1.000000
outer loop
vertex 0.001871 0.007673 0.000000
vertex 0.002042 0.007719 0.000000
vertex 0.002230 0.007766 0.000000
endloop
endfacet
facet normal 0.000000 0.000000 -1.000000
outer loop
vertex 0.002230 0.007766 0.000000
vertex 0.002429 0.007813 0.000000
vertex 0.002631 0.007857 0.000000
endloop
endfacet
facet normal 0.000000 0.000000 -1.000000
outer loop
vertex 0.002631 0.007857 0.000000
vertex 0.002828 0.007894 0.000000
vertex 0.003181 0.007937 0.000000
endloop
endfacet
facet normal 0.000000 0.000000 -1.000000
outer loop
vertex 0.003181 0.007937 0.000000
vertex 0.003321 0.007937 0.000000
vertex 0.003589 0.007896 0.000000
endloop
endfacet
facet normal 0.000000 0.000000 -1.000000
outer loop
vertex 0.003589 0.007896 0.000000
vertex 0.003898 0.007805 0.000000
vertex 0.004657 0.007473 0.000000
endloop
endfacet
facet normal 0.000000 0.000000 -1.000000
outer loop
vertex 0.004657 0.007473 0.000000
vertex 0.004880 0.007358 0.000000
vertex 0.005118 0.007230 0.000000
endloop
endfacet
facet normal 0.000000 0.000000 -1.000000
outer loop
vertex 0.005118 0.007230 0.000000
vertex 0.005640 0.006936 0.000000
vertex 0.005895 0.006781 0.000000
endloop
endfacet
facet normal 0.000000 0.000000 -1.000000
outer loop
vertex 0.005895 0.006781 0.000000
vertex 0.006293 0.006498 0.000000
vertex 0.006577 0.006238 0.000000
endloop
endfacet
facet normal 0.000000 0.000000 -1.000000
outer loop
vertex 0.006577 0.006238 0.000000
vertex 0.007067 0.005572 0.000000
vertex 0.007677 0.004542 0.000000
endloop
endfacet
facet normal 0.000000 0.000000 -1.000000
outer loop
vertex 0.007677 0.004542 0.000000
vertex 0.007778 0.003094 0.000000
vertex 0.006708 0.001334 0.000000
endloop
endfacet
facet normal 0.000000 0.000000 -1.000000
outer loop
vertex 0.006708 0.001334 0.000000
vertex 0.005302 0.000338 0.000000
vertex 0.002991 0.000055 0.000000
endloop
endfacet
facet normal 0.000000 0.000000 -1.000000
outer loop
vertex 0.002991 0.000055 0.000000
vertex 0.001209 0.000985 0.000000
vertex 0.000014 0.005192 0.000000
endloop
endfacet
facet normal 0.000000 0.000000 -1.000000
outer loop
vertex 0.000014 0.005192 0.000000
vertex 0.000450 0.006595 0.000000
vertex 0.001612 0.007600 0.000000
endloop
endfacet
facet normal 0.000000 0.000000 -1.000000
outer loop
vertex 0.001612 0.007600 0.000000
vertex 0.001871 0.007673 0.000000
vertex 0.002230 0.007766 0.000000
endloop
endfacet
facet normal 0.000000 0.000000 -1.000000
outer loop
vertex 0.002230 0.007766 0.000000
vertex 0.002631 0.007857 0.000000
vertex 0.003181 0.007937 0.000000
endloop
endfacet
facet normal 0.000000 0.000000 -1.000000
outer loop
vertex 0.003181 0.007937 0.000000
vertex 0.003589 0.007896 0.000000
vertex 0.004657 0.007473 0.000000
endloop
endfacet
facet normal 0.000000 0.000000 -1.000000
outer loop
vertex 0.004657 0.007473 0.000000
vertex 0.005118 0.007230 0.000000
vertex 0.005895 0.006781 0.000000
endloop
endfacet
facet normal 0.000000 0.000000 -1.000000
outer loop
vertex 0.005895 0.006781 0.000000
vertex 0.006577 0.006238 0.000000
vertex 0.007677 0.004542 0.000000
endloop
endfacet
facet normal 0.000000 0.000000 -1.000000
outer loop
vertex 0.007677 0.004542 0.000000
vertex 0.006708 0.001334 0.000000
vertex 0.002991 0.000055 0.000000
endloop
endfacet
facet normal 0.000000 0.000000 -1.000000
outer loop
vertex 0.002991 0.000055 0.000000
vertex 0.000014 0.005192 0.000000
vertex 0.001612 0.007600 0.000000
endloop
endfacet
facet normal 0.000000 0.000000 -1.000000
outer loop
vertex 0.001612 0.007600 0.000000
vertex 0.002230 0.007766 0.000000
vertex 0.003181 0.007937 0.000000
endloop
endfacet
facet normal 0.000000 0.000000 -1.000000
outer loop
vertex 0.003181 0.007937 0.000000
vertex 0.004657 0.007473 0.000000
vertex 0.005895 0.006781 0.000000
endloop
endfacet
facet normal 0.000000 0.000000 -1.000000
outer loop
vertex 0.005895 0.006781 0.000000
vertex 0.007677 0.004542 0.000000
vertex 0.002991 0.000055 0.000000
endloop
endfacet
facet normal 0.000000 0.000000 -1.000000
outer loop
vertex 0.002991 0.000055 0.000000
vertex 0.001612 0.007600 0.000000
vertex 0.003181 0.007937 0.000000
endloop
endfacet
facet normal 0.000000 0.000000 -1.000000
outer loop
vertex 0.002991 0.000055 0.000000
vertex 0.003181 0.007937 0.000000
vertex 0.005895 0.006781 0.000000
endloop
endfacet
facet normal -0.999379 -0.035225 0.000000
outer loop
vertex 0.000001 0.004728 0.000000
vertex 0.000006 0.004569 0.000000
vertex 0.000006 0.004569 0.150000
endloop
endfacet
facet normal -0.999379 -0.035225 0.000000
outer loop
vertex 0.000001 0.004728 0.000000
vertex 0.000006 0.004569 0.150000
vertex 0.000001 0.004728 0.150000
endloop
endfacet
facet normal -0.999049 0.043601 0.000000
outer loop
vertex 0.000014 0.005192 0.150000
vertex 0.000014 0.005192 0.000000
vertex 0.000000 0.004883 0.000000
endloop
endfacet
facet normal -0.999997 -0.002469 0.000000
outer loop
vertex 0.000000 0.004883 0.000000
vertex 0.000001 0.004728 0.000000
vertex 0.000001 0.004728 0.150000
endloop
endfacet
facet normal -0.999049 0.043601 0.000000
outer loop
vertex 0.000000 0.004883 0.150000
vertex 0.000014 0.005192 0.150000
vertex 0.000000 0.004883 0.000000
endloop
endfacet
facet normal -0.999997 -0.002469 0.000000
outer loop
vertex 0.000001 0.004728 0.150000
vertex 0.000000 0.004883 0.150000
vertex 0.000000 0.004883 0.000000
endloop
endfacet
facet normal 0.000000 0.000000 -1.000000
outer loop
vertex 0.007171 0.005419 0.000000
vertex 0.007067 0.005572 0.000000
vertex 0.006881 0.005851 0.000000
endloop
endfacet
facet normal 0.816725 0.577027 0.000000
outer loop
vertex 0.006881 0.005851 0.000000
vertex 0.006788 0.005982 0.000000
vertex 0.006788 0.005982 0.150000
endloop
endfacet
facet normal 0.816725 0.577027 0.000000
outer loop
vertex 0.006881 0.005851 0.000000
vertex 0.006788 0.005982 0.150000
vertex 0.006881 0.005851 0.150000
endloop
endfacet
facet normal 0.000000 0.000000 -1.000000
outer loop
vertex 0.007405 0.005093 0.000000
vertex 0.007171 0.005419 0.000000
vertex 0.006881 0.005851 0.000000
endloop
endfacet
facet normal 0.847920 0.530125 0.000000
outer loop
vertex 0.007499 0.004942 0.150000
vertex 0.007499 0.004942 0.000000
vertex 0.007405 0.005093 0.000000
endloop
endfacet
facet normal 0.847916 0.530131 0.000000
outer loop
vertex 0.007405 0.005093 0.150000
vertex 0.007499 0.004942 0.150000
vertex 0.007405 0.005093 0.000000
endloop
endfacet
facet normal 0.822685 0.568497 0.000000
outer loop
vertex 0.007405 0.005093 0.000000
vertex 0.006881 0.005851 0.000000
vertex 0.006881 0.005851 0.150000
endloop
endfacet
facet normal 0.832688 0.553743 0.000110
outer loop
vertex 0.007405 0.005093 0.000000
vertex 0.006881 0.005851 0.150000
vertex 0.007067 0.005572 0.150000
endloop
endfacet
facet normal 0.812499 0.582962 0.000000
outer loop
vertex 0.007171 0.005419 0.150000
vertex 0.007405 0.005093 0.150000
vertex 0.007405 0.005093 0.000000
endloop
endfacet
facet normal 0.826163 0.563432 0.000064
outer loop
vertex 0.007067 0.005572 0.150000
vertex 0.007171 0.005419 0.150000
vertex 0.007405 0.005093 0.000000
endloop
endfacet
facet normal 0.401010 0.916074 0.000000
outer loop
vertex 0.004657 0.007473 0.000000
vertex 0.003898 0.007805 0.000000
vertex 0.003898 0.007805 0.150000
endloop
endfacet
facet normal 0.401010 0.916074 0.000000
outer loop
vertex 0.004657 0.007473 0.000000
vertex 0.003898 0.007805 0.150000
vertex 0.004657 0.007473 0.150000
endloop
endfacet
facet normal 0.578833 0.815446 0.000000
outer loop
vertex 0.006293 0.006498 0.150000
vertex 0.006293 0.006498 0.000000
vertex 0.005895 0.006781 0.000000
endloop
endfacet
facet normal 0.578831 0.815447 0.000000
outer loop
vertex 0.006293 0.006498 0.150000
vertex 0.005895 0.006781 0.000000
vertex 0.005895 0.006781 0.150000
endloop
endfacet
facet normal 0.152119 0.988362 0.000000
outer loop
vertex 0.003589 0.007896 0.150000
vertex 0.003589 0.007896 0.000000
vertex 0.003321 0.007937 0.000000
endloop
endfacet
facet normal 0.152119 0.988362 0.000000
outer loop
vertex 0.003589 0.007896 0.150000
vertex 0.003321 0.007937 0.000000
vertex 0.003321 0.007937 0.150000
endloop
endfacet
facet normal 0.944147 0.329524 0.000000
outer loop
vertex 0.007677 0.004542 0.150000
vertex 0.007677 0.004542 0.000000
vertex 0.007632 0.004669 0.000000
endloop
endfacet
facet normal 0.944147 0.329524 0.000000
outer loop
vertex 0.007677 0.004542 0.150000
vertex 0.007632 0.004669 0.000000
vertex 0.007632 0.004669 0.150000
endloop
endfacet
facet normal -0.969618 -0.244624 0.000000
outer loop
vertex 0.000206 0.002913 0.150000
vertex 0.000206 0.002913 0.000000
vertex 0.000278 0.002628 0.000000
endloop
endfacet
facet normal -0.969618 -0.244623 0.000000
outer loop
vertex 0.000206 0.002913 0.150000
vertex 0.000278 0.002628 0.000000
vertex 0.000278 0.002628 0.150000
endloop
endfacet
facet normal 0.993638 0.112619 0.000000
outer loop
vertex 0.007833 0.003425 0.000000
vertex 0.007735 0.004293 0.000000
vertex 0.007735 0.004293 0.150000
endloop
endfacet
facet normal 0.993638 0.112619 0.000000
outer loop
vertex 0.007833 0.003425 0.000000
vertex 0.007735 0.004293 0.150000
vertex 0.007833 0.003425 0.150000
endloop
endfacet
facet normal 0.000000 0.000000 1.000000
outer loop
vertex 0.001506 0.000742 0.000000
vertex 0.001650 0.000652 0.000000
vertex 0.002013 0.000447 0.000000
endloop
endfacet
facet normal 0.000000 0.000000 1.000000
outer loop
vertex 0.002013 0.000447 0.000000
vertex 0.002190 0.000355 0.000000
vertex 0.002361 0.000274 0.000000
endloop
endfacet
facet normal -0.430777 -0.902458 0.000000
outer loop
vertex 0.002361 0.000274 0.000000
vertex 0.002361 0.000274 0.150000
vertex 0.002190 0.000355 0.150000
endloop
endfacet
facet normal -0.459399 -0.888230 -0.000040
outer loop
vertex 0.002361 0.000274 0.000000
vertex 0.002190 0.000355 0.150000
vertex 0.002013 0.000447 0.150000
endloop
endfacet
facet normal 0.000000 0.000000 1.000000
outer loop
vertex 0.001506 0.000742 0.000000
vertex 0.002013 0.000447 0.000000
vertex 0.002361 0.000274 0.000000
endloop
endfacet
facet normal -0.531036 -0.847349 0.000000
outer loop
vertex 0.001650 0.000652 0.150000
vertex 0.001506 0.000742 0.150000
vertex 0.001506 0.000742 0.000000
endloop
endfacet
facet normal -0.491535 -0.870858 -0.000135
outer loop
vertex 0.002361 0.000274 0.000000
vertex 0.002013 0.000447 0.150000
vertex 0.001650 0.000652 0.150000
endloop
endfacet
facet normal -0.480398 -0.877051 -0.000066
outer loop
vertex 0.002361 0.000274 0.000000
vertex 0.001650 0.000652 0.150000
vertex 0.001506 0.000742 0.000000
endloop
endfacet
facet normal 0.000882 0.000000 1.000000
outer loop
vertex 0.006507 0.001141 0.150000
vertex 0.006708 0.001334 0.150000
vertex 0.006799 0.001443 0.150000
endloop
endfacet
facet normal 0.000125 0.000000 1.000000
outer loop
vertex 0.006799 0.001443 0.150000
vertex 0.007559 0.002606 0.150000
vertex 0.007720 0.002930 0.150000
endloop
endfacet
facet normal -0.001117 0.000000 0.999999
outer loop
vertex 0.007720 0.002930 0.150000
vertex 0.007778 0.003094 0.150000
vertex 0.007817 0.003259 0.150000
endloop
endfacet
facet normal 0.000000 0.000000 1.000000
outer loop
vertex 0.007817 0.003259 0.150000
vertex 0.007833 0.003425 0.150000
vertex 0.007735 0.004293 0.150000
endloop
endfacet
facet normal 0.000000 0.000000 1.000000
outer loop
vertex 0.007735 0.004293 0.150000
vertex 0.007677 0.004542 0.150000
vertex 0.007632 0.004669 0.150000
endloop
endfacet
facet normal 0.001293 0.000000 0.999999
outer loop
vertex 0.007632 0.004669 0.150000
vertex 0.007499 0.004942 0.150000
vertex 0.007405 0.005093 0.150000
endloop
endfacet
facet normal -0.000291 0.000000 1.000000
outer loop
vertex 0.007632 0.004669 0.150000
vertex 0.007405 0.005093 0.150000
vertex 0.007171 0.005419 0.150000
endloop
endfacet
facet normal 0.000292 0.000000 1.000000
outer loop
vertex 0.007817 0.003259 0.150000
vertex 0.007735 0.004293 0.150000
vertex 0.007632 0.004669 0.150000
endloop
endfacet
facet normal 0.000138 0.000000 1.000000
outer loop
vertex 0.006799 0.001443 0.150000
vertex 0.007720 0.002930 0.150000
vertex 0.007817 0.003259 0.150000
endloop
endfacet
facet normal 0.000000 0.000000 1.000000
outer loop
vertex 0.006395 0.001052 0.150000
vertex 0.006507 0.001141 0.150000
vertex 0.006799 0.001443 0.150000
endloop
endfacet
facet normal 0.001640 0.000000 0.999999
outer loop
vertex 0.005302 0.000338 0.150000
vertex 0.006273 0.000964 0.150000
vertex 0.006395 0.001052 0.150000
endloop
endfacet
facet normal 0.000000 0.000000 1.000000
outer loop
vertex 0.004845 0.000128 0.150000
vertex 0.004985 0.000179 0.150000
vertex 0.005302 0.000338 0.150000
endloop
endfacet
facet normal 0.000036 0.000000 1.000000
outer loop
vertex 0.003451 0.000001 0.150000
vertex 0.004588 0.000068 0.150000
vertex 0.004845 0.000128 0.150000
endloop
endfacet
facet normal 0.000191 0.000000 1.000000
outer loop
vertex 0.002991 0.000055 0.150000
vertex 0.003296 0.000009 0.150000
vertex 0.003451 0.000001 0.150000
endloop
endfacet
facet normal -0.000155 0.000000 1.000000
outer loop
vertex 0.002361 0.000274 0.150000
vertex 0.002683 0.000144 0.150000
vertex 0.002991 0.000055 0.150000
endloop
endfacet
facet normal -0.001507 0.000000 0.999999
outer loop
vertex 0.002013 0.000447 0.150000
vertex 0.002190 0.000355 0.150000
vertex 0.002361 0.000274 0.150000
endloop
endfacet
facet normal 0.000000 0.000000 1.000000
outer loop
vertex 0.001506 0.000742 0.150000
vertex 0.001650 0.000652 0.150000
vertex 0.002013 0.000447 0.150000
endloop
endfacet
facet normal 0.000901 0.000000 1.000000
outer loop
vertex 0.001209 0.000985 0.150000
vertex 0.001291 0.000904 0.150000
vertex 0.001506 0.000742 0.150000
endloop
endfacet
facet normal -0.000093 0.000000 1.000000
outer loop
vertex 0.000409 0.002306 0.150000
vertex 0.001070 0.001165 0.150000
vertex 0.001209 0.000985 0.150000
endloop
endfacet
facet normal -0.000511 0.000000 1.000000
outer loop
vertex 0.000206 0.002913 0.150000
vertex 0.000278 0.002628 0.150000
vertex 0.000409 0.002306 0.150000
endloop
endfacet
facet normal 0.000000 0.000000 1.000000
outer loop
vertex 0.000001 0.004728 0.150000
vertex 0.000006 0.004569 0.150000
vertex 0.000206 0.002913 0.150000
endloop
endfacet
facet normal -0.001644 0.000000 0.999999
outer loop
vertex 0.000014 0.005192 0.150000
vertex 0.000000 0.004883 0.150000
vertex 0.000001 0.004728 0.150000
endloop
endfacet
facet normal -0.006757 0.000000 0.999977
outer loop
vertex 0.000044 0.005512 0.150000
vertex 0.000027 0.005350 0.150000
vertex 0.000014 0.005192 0.150000
endloop
endfacet
facet normal 0.010536 0.000000 0.999944
outer loop
vertex 0.000088 0.005861 0.150000
vertex 0.000065 0.005682 0.150000
vertex 0.000044 0.005512 0.150000
endloop
endfacet
facet normal 0.000000 0.000000 1.000000
outer loop
vertex 0.000212 0.006232 0.150000
vertex 0.000133 0.006047 0.150000
vertex 0.000088 0.005861 0.150000
endloop
endfacet
facet normal 0.000802 0.000000 1.000000
outer loop
vertex 0.000450 0.006595 0.150000
vertex 0.000320 0.006416 0.150000
vertex 0.000212 0.006232 0.150000
endloop
endfacet
facet normal -0.000116 0.000000 1.000000
outer loop
vertex 0.001513 0.007571 0.150000
vertex 0.000751 0.006930 0.150000
vertex 0.000450 0.006595 0.150000
endloop
endfacet
facet normal 0.019508 0.000000 0.999810
outer loop
vertex 0.001612 0.007600 0.150000
vertex 0.001539 0.007579 0.150000
vertex 0.001513 0.007571 0.150000
endloop
endfacet
facet normal 0.000000 0.000000 1.000000
outer loop
vertex 0.001513 0.007571 0.150000
vertex 0.001513 0.007571 0.150000
vertex 0.000450 0.006595 0.150000
endloop
endfacet
facet normal -0.000168 0.000000 1.000000
outer loop
vertex 0.000450 0.006595 0.150000
vertex 0.000212 0.006232 0.150000
vertex 0.000088 0.005861 0.150000
endloop
endfacet
facet normal 0.000000 0.000000 1.000000
outer loop
vertex 0.000088 0.005861 0.150000
vertex 0.000044 0.005512 0.150000
vertex 0.000014 0.005192 0.150000
endloop
endfacet
facet normal 0.000000 0.000000 1.000000
outer loop
vertex 0.000014 0.005192 0.150000
vertex 0.000001 0.004728 0.150000
vertex 0.000206 0.002913 0.150000
endloop
endfacet
facet normal 0.000134 0.000000 1.000000
outer loop
vertex 0.000206 0.002913 0.150000
vertex 0.000409 0.002306 0.150000
vertex 0.001209 0.000985 0.150000
endloop
endfacet
facet normal -0.000409 0.000000 1.000000
outer loop
vertex 0.001209 0.000985 0.150000
vertex 0.001506 0.000742 0.150000
vertex 0.002013 0.000447 0.150000
endloop
endfacet
facet normal 0.000219 0.000000 1.000000
outer loop
vertex 0.002013 0.000447 0.150000
vertex 0.002361 0.000274 0.150000
vertex 0.002991 0.000055 0.150000
endloop
endfacet
facet normal -0.000027 0.000000 1.000000
outer loop
vertex 0.002991 0.000055 0.150000
vertex 0.003451 0.000001 0.150000
vertex 0.004845 0.000128 0.150000
endloop
endfacet
facet normal -0.000301 0.000000 1.000000
outer loop
vertex 0.004845 0.000128 0.150000
vertex 0.005302 0.000338 0.150000
vertex 0.006395 0.001052 0.150000
endloop
endfacet
facet normal 0.000000 0.000000 1.000000
outer loop
vertex 0.006395 0.001052 0.150000
vertex 0.006799 0.001443 0.150000
vertex 0.007817 0.003259 0.150000
endloop
endfacet
facet normal 0.000000 0.000000 1.000000
outer loop
vertex 0.007817 0.003259 0.150000
vertex 0.007632 0.004669 0.150000
vertex 0.007171 0.005419 0.150000
endloop
endfacet
facet normal -0.002393 0.000000 0.999997
outer loop
vertex 0.007067 0.005572 0.150000
vertex 0.006881 0.005851 0.150000
vertex 0.006788 0.005982 0.150000
endloop
endfacet
facet normal 0.000087 0.000000 1.000000
outer loop
vertex 0.007817 0.003259 0.150000
vertex 0.007171 0.005419 0.150000
vertex 0.007067 0.005572 0.150000
endloop
endfacet
facet normal 0.000000 0.000000 1.000000
outer loop
vertex 0.004845 0.000128 0.150000
vertex 0.006395 0.001052 0.150000
vertex 0.007817 0.003259 0.150000
endloop
endfacet
facet normal 0.000000 0.000000 1.000000
outer loop
vertex 0.002013 0.000447 0.150000
vertex 0.002991 0.000055 0.150000
vertex 0.004845 0.000128 0.150000
endloop
endfacet
facet normal -0.000014 0.000000 1.000000
outer loop
vertex 0.000206 0.002913 0.150000
vertex 0.001209 0.000985 0.150000
vertex 0.002013 0.000447 0.150000
endloop
endfacet
facet normal 0.000000 0.000000 1.000000
outer loop
vertex 0.000088 0.005861 0.150000
vertex 0.000014 0.005192 0.150000
vertex 0.000206 0.002913 0.150000
endloop
endfacet
facet normal 0.000034 0.000000 1.000000
outer loop
vertex 0.001513 0.007571 0.150000
vertex 0.000450 0.006595 0.150000
vertex 0.000088 0.005861 0.150000
endloop
endfacet
facet normal 0.000000 0.000000 1.000000
outer loop
vertex 0.001726 0.007633 0.150000
vertex 0.001612 0.007600 0.150000
vertex 0.001513 0.007571 0.150000
endloop
endfacet
facet normal -0.003309 0.000000 0.999995
outer loop
vertex 0.002042 0.007719 0.150000
vertex 0.001871 0.007673 0.150000
vertex 0.001726 0.007633 0.150000
endloop
endfacet
facet normal 0.000000 0.000000 1.000000
outer loop
vertex 0.002429 0.007813 0.150000
vertex 0.002230 0.007766 0.150000
vertex 0.002042 0.007719 0.150000
endloop
endfacet
facet normal -0.000814 0.000000 1.000000
outer loop
vertex 0.002828 0.007894 0.150000
vertex 0.002631 0.007857 0.150000
vertex 0.002429 0.007813 0.150000
endloop
endfacet
facet normal 0.000000 0.000000 1.000000
outer loop
vertex 0.003321 0.007937 0.150000
vertex 0.003181 0.007937 0.150000
vertex 0.002828 0.007894 0.150000
endloop
endfacet
facet normal 0.000078 0.000000 1.000000
outer loop
vertex 0.003898 0.007805 0.150000
vertex 0.003589 0.007896 0.150000
vertex 0.003321 0.007937 0.150000
endloop
endfacet
facet normal 0.000557 0.000000 1.000000
outer loop
vertex 0.004880 0.007358 0.150000
vertex 0.004657 0.007473 0.150000
vertex 0.003898 0.007805 0.150000
endloop
endfacet
facet normal -0.001100 0.000000 0.999999
outer loop
vertex 0.005640 0.006936 0.150000
vertex 0.005118 0.007230 0.150000
vertex 0.004880 0.007358 0.150000
endloop
endfacet
facet normal -0.000342 0.000000 1.000000
outer loop
vertex 0.006293 0.006498 0.150000
vertex 0.005895 0.006781 0.150000
vertex 0.005640 0.006936 0.150000
endloop
endfacet
facet normal 0.000000 0.000000 1.000000
outer loop
vertex 0.006788 0.005982 0.150000
vertex 0.006577 0.006238 0.150000
vertex 0.006293 0.006498 0.150000
endloop
endfacet
facet normal 0.000000 0.000000 1.000000
outer loop
vertex 0.007817 0.003259 0.150000
vertex 0.007067 0.005572 0.150000
vertex 0.006788 0.005982 0.150000
endloop
endfacet
facet normal 0.000000 0.000000 1.000000
outer loop
vertex 0.002013 0.000447 0.150000
vertex 0.004845 0.000128 0.150000
vertex 0.007817 0.003259 0.150000
endloop
endfacet
facet normal 0.000000 0.000000 1.000000
outer loop
vertex 0.000088 0.005861 0.150000
vertex 0.000206 0.002913 0.150000
vertex 0.002013 0.000447 0.150000
endloop
endfacet
facet normal 0.000000 0.000000 1.000000
outer loop
vertex 0.001726 0.007633 0.150000
vertex 0.001513 0.007571 0.150000
vertex 0.000088 0.005861 0.150000
endloop
endfacet
facet normal 0.000547 0.000000 1.000000
outer loop
vertex 0.002429 0.007813 0.150000
vertex 0.002042 0.007719 0.150000
vertex 0.001726 0.007633 0.150000
endloop
endfacet
facet normal 0.000000 0.000000 1.000000
outer loop
vertex 0.003321 0.007937 0.150000
vertex 0.002828 0.007894 0.150000
vertex 0.002429 0.007813 0.150000
endloop
endfacet
facet normal -0.000085 0.000000 1.000000
outer loop
vertex 0.004880 0.007358 0.150000
vertex 0.003898 0.007805 0.150000
vertex 0.003321 0.007937 0.150000
endloop
endfacet
facet normal 0.000000 0.000000 1.000000
outer loop
vertex 0.006293 0.006498 0.150000
vertex 0.005640 0.006936 0.150000
vertex 0.004880 0.007358 0.150000
endloop
endfacet
facet normal -0.000018 0.000000 1.000000
outer loop
vertex 0.007817 0.003259 0.150000
vertex 0.006788 0.005982 0.150000
vertex 0.006293 0.006498 0.150000
endloop
endfacet
facet normal 0.000002 0.000000 1.000000
outer loop
vertex 0.000088 0.005861 0.150000
vertex 0.002013 0.000447 0.150000
vertex 0.007817 0.003259 0.150000
endloop
endfacet
facet normal 0.000000 0.000000 1.000000
outer loop
vertex 0.002429 0.007813 0.150000
vertex 0.001726 0.007633 0.150000
vertex 0.000088 0.005861 0.150000
endloop
endfacet
facet normal 0.000015 0.000000 1.000000
outer loop
vertex 0.004880 0.007358 0.150000
vertex 0.003321 0.007937 0.150000
vertex 0.002429 0.007813 0.150000
endloop
endfacet
facet normal 0.000018 0.000000 1.000000
outer loop
vertex 0.007817 0.003259 0.150000
vertex 0.006293 0.006498 0.150000
vertex 0.004880 0.007358 0.150000
endloop
endfacet
facet normal 0.000005 0.000000 1.000000
outer loop
vertex 0.002429 0.007813 0.150000
vertex 0.000088 0.005861 0.150000
vertex 0.007817 0.003259 0.150000
endloop
endfacet
facet normal -0.000020 0.000000 1.000000
outer loop
vertex 0.007817 0.003259 0.150000
vertex 0.004880 0.007358 0.150000
vertex 0.002429 0.007813 0.150000
endloop
endfacet
facet normal -0.865267 -0.501311 0.000000
outer loop
vertex 0.000409 0.002306 0.000000
vertex 0.001070 0.001165 0.000000
vertex 0.001070 0.001165 0.150000
endloop
endfacet
facet normal -0.865267 -0.501311 0.000000
outer loop
vertex 0.000409 0.002306 0.000000
vertex 0.001070 0.001165 0.150000
vertex 0.000409 0.002306 0.150000
endloop
endfacet
facet normal 0.343624 -0.939107 0.000000
outer loop
vertex 0.004845 0.000128 0.150000
vertex 0.004845 0.000128 0.000000
vertex 0.004985 0.000179 0.000000
endloop
endfacet
facet normal 0.343623 -0.939108 0.000000
outer loop
vertex 0.004845 0.000128 0.150000
vertex 0.004985 0.000179 0.000000
vertex 0.004985 0.000179 0.150000
endloop
endfacet
facet normal -0.792555 -0.609801 0.000000
outer loop
vertex 0.001070 0.001165 0.150000
vertex 0.001070 0.001165 0.000000
vertex 0.001209 0.000985 0.000000
endloop
endfacet
facet normal -0.792554 -0.609801 0.000000
outer loop
vertex 0.001070 0.001165 0.150000
vertex 0.001209 0.000985 0.000000
vertex 0.001209 0.000985 0.150000
endloop
endfacet
facet normal -0.120975 0.992656 0.000000
outer loop
vertex 0.003181 0.007937 0.150000
vertex 0.003181 0.007937 0.000000
vertex 0.002828 0.007894 0.000000
endloop
endfacet
facet normal -0.120975 0.992656 0.000000
outer loop
vertex 0.003181 0.007937 0.150000
vertex 0.002828 0.007894 0.000000
vertex 0.002828 0.007894 0.150000
endloop
endfacet
facet normal -0.744399 0.667735 0.000000
outer loop
vertex 0.000751 0.006930 0.150000
vertex 0.000751 0.006930 0.000000
vertex 0.000450 0.006595 0.000000
endloop
endfacet
facet normal -0.744399 0.667735 0.000000
outer loop
vertex 0.000751 0.006930 0.150000
vertex 0.000450 0.006595 0.000000
vertex 0.000450 0.006595 0.150000
endloop
endfacet
facet normal 0.995447 -0.095313 0.000000
outer loop
vertex 0.007817 0.003259 0.150000
vertex 0.007817 0.003259 0.000000
vertex 0.007833 0.003425 0.000000
endloop
endfacet
facet normal 0.995447 -0.095313 0.000000
outer loop
vertex 0.007817 0.003259 0.150000
vertex 0.007833 0.003425 0.000000
vertex 0.007833 0.003425 0.150000
endloop
endfacet
facet normal -0.996531 0.083218 0.000000
outer loop
vertex 0.000027 0.005350 0.000000
vertex 0.000014 0.005192 0.000000
vertex 0.000014 0.005192 0.150000
endloop
endfacet
facet normal -0.996531 0.083218 0.000000
outer loop
vertex 0.000027 0.005350 0.000000
vertex 0.000014 0.005192 0.150000
vertex 0.000027 0.005350 0.150000
endloop
endfacet
facet normal -0.994587 0.103905 0.000000
outer loop
vertex 0.000044 0.005512 0.000000
vertex 0.000027 0.005350 0.000000
vertex 0.000027 0.005350 0.150000
endloop
endfacet
facet normal -0.994587 0.103905 0.000000
outer loop
vertex 0.000044 0.005512 0.000000
vertex 0.000027 0.005350 0.150000
vertex 0.000044 0.005512 0.150000
endloop
endfacet
facet normal -0.991403 0.130844 0.000000
outer loop
vertex 0.000088 0.005861 0.150000
vertex 0.000088 0.005861 0.000000
vertex 0.000065 0.005682 0.000000
endloop
endfacet
facet normal -0.992803 0.119758 0.000000
outer loop
vertex 0.000065 0.005682 0.000000
vertex 0.000044 0.005512 0.000000
vertex 0.000044 0.005512 0.150000
endloop
endfacet
facet normal -0.991403 0.130844 0.000000
outer loop
vertex 0.000065 0.005682 0.150000
vertex 0.000088 0.005861 0.150000
vertex 0.000065 0.005682 0.000000
endloop
endfacet
facet normal -0.992803 0.119758 0.000000
outer loop
vertex 0.000044 0.005512 0.150000
vertex 0.000065 0.005682 0.150000
vertex 0.000065 0.005682 0.000000
endloop
endfacet
facet normal 0.227778 -0.973713 0.000000
outer loop
vertex 0.004588 0.000068 0.000000
vertex 0.004845 0.000128 0.000000
vertex 0.004845 0.000128 0.150000
endloop
endfacet
facet normal 0.227777 -0.973713 0.000000
outer loop
vertex 0.004588 0.000068 0.000000
vertex 0.004845 0.000128 0.150000
vertex 0.004588 0.000068 0.150000
endloop
endfacet
facet normal 0.059336 -0.998238 0.000000
outer loop
vertex 0.003451 0.000001 0.000000
vertex 0.004588 0.000068 0.000000
vertex 0.004588 0.000068 0.150000
endloop
endfacet
facet normal 0.059336 -0.998238 0.000000
outer loop
vertex 0.003451 0.000001 0.000000
vertex 0.004588 0.000068 0.150000
vertex 0.003451 0.000001 0.150000
endloop
endfacet
facet normal 0.447888 -0.894090 0.000000
outer loop
vertex 0.005302 0.000338 0.000000
vertex 0.005302 0.000338 0.150000
vertex 0.004985 0.000179 0.150000
endloop
endfacet
facet normal 0.447888 -0.894090 0.000000
outer loop
vertex 0.005302 0.000338 0.000000
vertex 0.004985 0.000179 0.150000
vertex 0.004985 0.000179 0.000000
endloop
endfacet
facet normal 0.898673 0.438620 0.000000
outer loop
vertex 0.007632 0.004669 0.150000
vertex 0.007632 0.004669 0.000000
vertex 0.007499 0.004942 0.000000
endloop
endfacet
facet normal 0.898668 0.438628 0.000000
outer loop
vertex 0.007632 0.004669 0.150000
vertex 0.007499 0.004942 0.000000
vertex 0.007499 0.004942 0.150000
endloop
endfacet
facet normal -0.288184 0.957575 0.000000
outer loop
vertex 0.001539 0.007579 0.000000
vertex 0.001513 0.007571 0.000000
vertex 0.001513 0.007571 0.150000
endloop
endfacet
facet normal -0.288182 0.957576 0.000000
outer loop
vertex 0.001539 0.007579 0.000000
vertex 0.001513 0.007571 0.150000
vertex 0.001539 0.007579 0.150000
endloop
endfacet
facet normal -0.282796 0.959180 0.000000
outer loop
vertex 0.001612 0.007600 0.000000
vertex 0.001539 0.007579 0.000000
vertex 0.001539 0.007579 0.150000
endloop
endfacet
facet normal -0.282797 0.959180 0.000000
outer loop
vertex 0.001612 0.007600 0.000000
vertex 0.001539 0.007579 0.150000
vertex 0.001612 0.007600 0.150000
endloop
endfacet
facet normal -0.275910 0.961183 0.000000
outer loop
vertex 0.001726 0.007633 0.000000
vertex 0.001612 0.007600 0.000000
vertex 0.001612 0.007600 0.150000
endloop
endfacet
facet normal -0.275910 0.961183 0.000000
outer loop
vertex 0.001726 0.007633 0.000000
vertex 0.001612 0.007600 0.150000
vertex 0.001726 0.007633 0.150000
endloop
endfacet
facet normal -0.267668 0.963511 0.000000
outer loop
vertex 0.001871 0.007673 0.000000
vertex 0.001726 0.007633 0.000000
vertex 0.001726 0.007633 0.150000
endloop
endfacet
facet normal -0.267667 0.963512 0.000000
outer loop
vertex 0.001871 0.007673 0.000000
vertex 0.001726 0.007633 0.150000
vertex 0.001871 0.007673 0.150000
endloop
endfacet
facet normal -0.257719 0.966220 0.000000
outer loop
vertex 0.002042 0.007719 0.000000
vertex 0.001871 0.007673 0.000000
vertex 0.001871 0.007673 0.150000
endloop
endfacet
facet normal -0.257719 0.966220 0.000000
outer loop
vertex 0.002042 0.007719 0.000000
vertex 0.001871 0.007673 0.150000
vertex 0.002042 0.007719 0.150000
endloop
endfacet
facet normal -0.245510 0.969394 0.000000
outer loop
vertex 0.002230 0.007766 0.000000
vertex 0.002042 0.007719 0.000000
vertex 0.002042 0.007719 0.150000
endloop
endfacet
facet normal -0.245510 0.969394 0.000000
outer loop
vertex 0.002230 0.007766 0.000000
vertex 0.002042 0.007719 0.150000
vertex 0.002230 0.007766 0.150000
endloop
endfacet
facet normal -0.230185 0.973147 0.000000
outer loop
vertex 0.002429 0.007813 0.000000
vertex 0.002230 0.007766 0.000000
vertex 0.002230 0.007766 0.150000
endloop
endfacet
facet normal -0.230185 0.973147 0.000000
outer loop
vertex 0.002429 0.007813 0.000000
vertex 0.002230 0.007766 0.150000
vertex 0.002429 0.007813 0.150000
endloop
endfacet
facet normal -0.183992 0.982928 0.000000
outer loop
vertex 0.002828 0.007894 0.150000
vertex 0.002828 0.007894 0.000000
vertex 0.002631 0.007857 0.000000
endloop
endfacet
facet normal -0.210422 0.977611 0.000000
outer loop
vertex 0.002631 0.007857 0.000000
vertex 0.002429 0.007813 0.000000
vertex 0.002429 0.007813 0.150000
endloop
endfacet
facet normal -0.183993 0.982928 0.000000
outer loop
vertex 0.002631 0.007857 0.150000
vertex 0.002828 0.007894 0.150000
vertex 0.002631 0.007857 0.000000
endloop
endfacet
facet normal -0.210421 0.977611 0.000000
outer loop
vertex 0.002429 0.007813 0.150000
vertex 0.002631 0.007857 0.150000
vertex 0.002631 0.007857 0.000000
endloop
endfacet
facet normal -0.001553 0.999999 0.000000
outer loop
vertex 0.003321 0.007937 0.150000
vertex 0.003321 0.007937 0.000000
vertex 0.003181 0.007937 0.000000
endloop
endfacet
facet normal -0.001553 0.999999 0.000000
outer loop
vertex 0.003321 0.007937 0.150000
vertex 0.003181 0.007937 0.000000
vertex 0.003181 0.007937 0.150000
endloop
endfacet
facet normal 0.973435 -0.228964 0.000000
outer loop
vertex 0.007778 0.003094 0.150000
vertex 0.007778 0.003094 0.000000
vertex 0.007817 0.003259 0.000000
endloop
endfacet
facet normal 0.973433 -0.228973 0.000000
outer loop
vertex 0.007778 0.003094 0.150000
vertex 0.007817 0.003259 0.000000
vertex 0.007817 0.003259 0.150000
endloop
endfacet
facet normal 0.895192 -0.445681 0.000000
outer loop
vertex 0.007559 0.002606 0.000000
vertex 0.007720 0.002930 0.000000
vertex 0.007720 0.002930 0.150000
endloop
endfacet
facet normal 0.895192 -0.445681 0.000000
outer loop
vertex 0.007559 0.002606 0.000000
vertex 0.007720 0.002930 0.150000
vertex 0.007559 0.002606 0.150000
endloop
endfacet
facet normal 0.942251 -0.334907 0.000000
outer loop
vertex 0.007720 0.002930 0.150000
vertex 0.007720 0.002930 0.000000
vertex 0.007778 0.003094 0.000000
endloop
endfacet
facet normal 0.942248 -0.334915 0.000000
outer loop
vertex 0.007720 0.002930 0.150000
vertex 0.007778 0.003094 0.000000
vertex 0.007778 0.003094 0.150000
endloop
endfacet
facet normal -0.275082 -0.961421 0.000000
outer loop
vertex 0.002683 0.000144 0.150000
vertex 0.002683 0.000144 0.000000
vertex 0.002991 0.000055 0.000000
endloop
endfacet
facet normal -0.275083 -0.961421 0.000000
outer loop
vertex 0.002683 0.000144 0.150000
vertex 0.002991 0.000055 0.000000
vertex 0.002991 0.000055 0.150000
endloop
endfacet
facet normal -0.862044 0.506833 0.000000
outer loop
vertex 0.000320 0.006416 0.150000
vertex 0.000320 0.006416 0.000000
vertex 0.000212 0.006232 0.000000
endloop
endfacet
facet normal -0.862044 0.506833 0.000000
outer loop
vertex 0.000320 0.006416 0.150000
vertex 0.000212 0.006232 0.000000
vertex 0.000212 0.006232 0.150000
endloop
endfacet
facet normal -0.972170 0.234276 0.000000
outer loop
vertex 0.000133 0.006047 0.150000
vertex 0.000133 0.006047 0.000000
vertex 0.000088 0.005861 0.000000
endloop
endfacet
facet normal -0.972170 0.234276 0.000000
outer loop
vertex 0.000133 0.006047 0.150000
vertex 0.000088 0.005861 0.000000
vertex 0.000088 0.005861 0.150000
endloop
endfacet
facet normal -0.602812 -0.797884 0.000000
outer loop
vertex 0.001291 0.000904 0.000000
vertex 0.001506 0.000742 0.000000
vertex 0.001506 0.000742 0.150000
endloop
endfacet
facet normal -0.602812 -0.797884 0.000000
outer loop
vertex 0.001291 0.000904 0.000000
vertex 0.001506 0.000742 0.150000
vertex 0.001291 0.000904 0.150000
endloop
endfacet
facet normal -0.643491 0.765453 0.000000
outer loop
vertex 0.001513 0.007571 0.000000
vertex 0.000751 0.006930 0.000000
vertex 0.000751 0.006930 0.150000
endloop
endfacet
facet normal -0.643491 0.765453 0.000000
outer loop
vertex 0.001513 0.007571 0.000000
vertex 0.000751 0.006930 0.150000
vertex 0.001513 0.007571 0.150000
endloop
endfacet
facet normal 0.769954 0.638099 0.000000
outer loop
vertex 0.006788 0.005982 0.000000
vertex 0.006577 0.006238 0.000000
vertex 0.006577 0.006238 0.150000
endloop
endfacet
facet normal 0.769952 0.638102 0.000000
outer loop
vertex 0.006788 0.005982 0.000000
vertex 0.006577 0.006238 0.150000
vertex 0.006788 0.005982 0.150000
endloop
endfacet
facet normal 0.837298 -0.546746 0.000000
outer loop
vertex 0.006799 0.001443 0.000000
vertex 0.007559 0.002606 0.000000
vertex 0.007559 0.002606 0.150000
endloop
endfacet
facet normal 0.837299 -0.546745 0.000000
outer loop
vertex 0.006799 0.001443 0.000000
vertex 0.007559 0.002606 0.150000
vertex 0.006799 0.001443 0.150000
endloop
endfacet
facet normal -0.926115 -0.377241 0.000000
outer loop
vertex 0.000278 0.002628 0.000000
vertex 0.000409 0.002306 0.000000
vertex 0.000409 0.002306 0.150000
endloop
endfacet
facet normal -0.926115 -0.377241 0.000000
outer loop
vertex 0.000278 0.002628 0.000000
vertex 0.000409 0.002306 0.150000
vertex 0.000278 0.002628 0.150000
endloop
endfacet
facet normal 0.691990 -0.721907 0.000000
outer loop
vertex 0.006507 0.001141 0.150000
vertex 0.006507 0.001141 0.000000
vertex 0.006708 0.001334 0.000000
endloop
endfacet
facet normal 0.691990 -0.721907 0.000000
outer loop
vertex 0.006507 0.001141 0.150000
vertex 0.006708 0.001334 0.000000
vertex 0.006708 0.001334 0.150000
endloop
endfacet
facet normal -0.701456 -0.712713 0.000000
outer loop
vertex 0.001209 0.000985 0.150000
vertex 0.001209 0.000985 0.000000
vertex 0.001291 0.000904 0.000000
endloop
endfacet
facet normal -0.701455 -0.712714 0.000000
outer loop
vertex 0.001209 0.000985 0.150000
vertex 0.001291 0.000904 0.000000
vertex 0.001291 0.000904 0.150000
endloop
endfacet
facet normal 0.000000 1.000000 0.000000
outer loop
vertex 0.001513 0.007571 0.150000
vertex 0.001513 0.007571 0.000000
vertex 0.001513 0.007571 0.000000
endloop
endfacet
facet normal 0.000000 1.000000 0.000000
outer loop
vertex 0.001513 0.007571 0.150000
vertex 0.001513 0.007571 0.000000
vertex 0.001513 0.007571 0.150000
endloop
endfacet
facet normal -0.992799 -0.119793 0.000000
outer loop
vertex 0.000006 0.004569 0.000000
vertex 0.000206 0.002913 0.000000
vertex 0.000206 0.002913 0.150000
endloop
endfacet
facet normal -0.992799 -0.119793 0.000000
outer loop
vertex 0.000006 0.004569 0.000000
vertex 0.000206 0.002913 0.150000
vertex 0.000006 0.004569 0.150000
endloop
endfacet
facet normal -0.052720 -0.998609 0.000000
outer loop
vertex 0.003296 0.000009 0.150000
vertex 0.003296 0.000009 0.000000
vertex 0.003451 0.000001 0.000000
endloop
endfacet
facet normal -0.052720 -0.998609 0.000000
outer loop
vertex 0.003296 0.000009 0.150000
vertex 0.003451 0.000001 0.000000
vertex 0.003451 0.000001 0.150000
endloop
endfacet
facet normal 0.282294 0.959328 0.000000
outer loop
vertex 0.003898 0.007805 0.000000
vertex 0.003589 0.007896 0.000000
vertex 0.003589 0.007896 0.150000
endloop
endfacet
facet normal 0.282294 0.959328 0.000000
outer loop
vertex 0.003898 0.007805 0.000000
vertex 0.003589 0.007896 0.150000
vertex 0.003898 0.007805 0.150000
endloop
endfacet
facet normal 0.973982 0.226624 0.000000
outer loop
vertex 0.007735 0.004293 0.000000
vertex 0.007677 0.004542 0.000000
vertex 0.007677 0.004542 0.150000
endloop
endfacet
facet normal 0.973982 0.226624 0.000000
outer loop
vertex 0.007735 0.004293 0.000000
vertex 0.007677 0.004542 0.150000
vertex 0.007735 0.004293 0.150000
endloop
endfacet
facet normal 0.677144 0.735850 0.000000
outer loop
vertex 0.006293 0.006498 0.000000
vertex 0.006293 0.006498 0.150000
vertex 0.006577 0.006238 0.150000
endloop
endfacet
facet normal 0.677143 0.735851 0.000000
outer loop
vertex 0.006293 0.006498 0.000000
vertex 0.006577 0.006238 0.150000
vertex 0.006577 0.006238 0.000000
endloop
endfacet
facet normal -0.919256 0.393661 0.000000
outer loop
vertex 0.000212 0.006232 0.150000
vertex 0.000212 0.006232 0.000000
vertex 0.000133 0.006047 0.000000
endloop
endfacet
facet normal -0.919255 0.393662 0.000000
outer loop
vertex 0.000212 0.006232 0.150000
vertex 0.000133 0.006047 0.000000
vertex 0.000133 0.006047 0.150000
endloop
endfacet
facet normal -0.374699 -0.927146 0.000000
outer loop
vertex 0.002361 0.000274 0.150000
vertex 0.002361 0.000274 0.000000
vertex 0.002683 0.000144 0.000000
endloop
endfacet
facet normal -0.374699 -0.927146 0.000000
outer loop
vertex 0.002361 0.000274 0.150000
vertex 0.002683 0.000144 0.000000
vertex 0.002683 0.000144 0.150000
endloop
endfacet
facet normal 0.624473 -0.781047 0.000000
outer loop
vertex 0.006395 0.001052 0.000000
vertex 0.006507 0.001141 0.000000
vertex 0.006507 0.001141 0.150000
endloop
endfacet
facet normal 0.624473 -0.781047 0.000000
outer loop
vertex 0.006395 0.001052 0.000000
vertex 0.006507 0.001141 0.150000
vertex 0.006395 0.001052 0.150000
endloop
endfacet
facet normal 0.541255 -0.840859 0.000000
outer loop
vertex 0.005302 0.000338 0.150000
vertex 0.005302 0.000338 0.000000
vertex 0.006273 0.000964 0.000000
endloop
endfacet
facet normal 0.588831 -0.808256 0.000000
outer loop
vertex 0.006273 0.000964 0.000000
vertex 0.006395 0.001052 0.000000
vertex 0.006395 0.001052 0.150000
endloop
endfacet
facet normal 0.541255 -0.840858 0.000000
outer loop
vertex 0.006273 0.000964 0.150000
vertex 0.005302 0.000338 0.150000
vertex 0.006273 0.000964 0.000000
endloop
endfacet
facet normal 0.588833 -0.808254 0.000000
outer loop
vertex 0.006395 0.001052 0.150000
vertex 0.006273 0.000964 0.150000
vertex 0.006273 0.000964 0.000000
endloop
endfacet
facet normal 0.457757 0.889077 0.000000
outer loop
vertex 0.004880 0.007358 0.000000
vertex 0.004657 0.007473 0.000000
vertex 0.004657 0.007473 0.150000
endloop
endfacet
facet normal 0.457757 0.889077 0.000000
outer loop
vertex 0.004880 0.007358 0.000000
vertex 0.004657 0.007473 0.150000
vertex 0.004880 0.007358 0.150000
endloop
endfacet
facet normal 0.473303 0.880899 0.000000
outer loop
vertex 0.005118 0.007230 0.000000
vertex 0.004880 0.007358 0.000000
vertex 0.004880 0.007358 0.150000
endloop
endfacet
facet normal 0.473305 0.880899 0.000000
outer loop
vertex 0.005118 0.007230 0.000000
vertex 0.004880 0.007358 0.150000
vertex 0.005118 0.007230 0.150000
endloop
endfacet
facet normal 0.517831 0.855483 0.000000
outer loop
vertex 0.005895 0.006781 0.150000
vertex 0.005895 0.006781 0.000000
vertex 0.005640 0.006936 0.000000
endloop
endfacet
facet normal 0.491224 0.871033 0.000000
outer loop
vertex 0.005640 0.006936 0.000000
vertex 0.005118 0.007230 0.000000
vertex 0.005118 0.007230 0.150000
endloop
endfacet
facet normal 0.517831 0.855483 0.000000
outer loop
vertex 0.005640 0.006936 0.150000
vertex 0.005895 0.006781 0.150000
vertex 0.005640 0.006936 0.000000
endloop
endfacet
facet normal 0.491224 0.871033 0.000000
outer loop
vertex 0.005118 0.007230 0.150000
vertex 0.005640 0.006936 0.150000
vertex 0.005640 0.006936 0.000000
endloop
endfacet
facet normal -0.809331 0.587352 0.000000
outer loop
vertex 0.000450 0.006595 0.150000
vertex 0.000450 0.006595 0.000000
vertex 0.000320 0.006416 0.000000
endloop
endfacet
facet normal -0.809331 0.587353 0.000000
outer loop
vertex 0.000450 0.006595 0.150000
vertex 0.000320 0.006416 0.000000
vertex 0.000320 0.006416 0.150000
endloop
endfacet
facet normal 0.763491 -0.645819 0.000000
outer loop
vertex 0.006708 0.001334 0.150000
vertex 0.006708 0.001334 0.000000
vertex 0.006799 0.001443 0.000000
endloop
endfacet
facet normal 0.763485 -0.645825 0.000000
outer loop
vertex 0.006708 0.001334 0.150000
vertex 0.006799 0.001443 0.000000
vertex 0.006799 0.001443 0.150000
endloop
endfacet
facet normal -0.151691 -0.988428 0.000000
outer loop
vertex 0.002991 0.000055 0.150000
vertex 0.002991 0.000055 0.000000
vertex 0.003296 0.000009 0.000000
endloop
endfacet
facet normal -0.151691 -0.988428 0.000000
outer loop
vertex 0.002991 0.000055 0.150000
vertex 0.003296 0.000009 0.000000
vertex 0.003296 0.000009 0.150000
endloop
endfacet
endsolid Exported from Blender-3.6.8
