solid Exported from Blender-3.6.8
facet normal 0.437530 -0.899204 0.000000
outer loop
vertex 0.011757 0.000118 0.150000
vertex 0.011757 0.000118 0.000000
vertex 0.011839 0.000158 0.000000
endloop
endfacet
facet normal 0.437543 -0.899197 0.000000
outer loop
vertex 0.011757 0.000118 0.150000
vertex 0.011839 0.000158 0.000000
vertex 0.011839 0.000158 0.150000
endloop
endfacet
facet normal 0.000000 0.000000 -1.000000
outer loop
vertex 0.011786 0.004083 0.000000
vertex 0.011912 0.003758 0.000000
vertex 0.012037 0.003403 0.000000
endloop
endfacet
facet normal 0.000000 0.000000 -1.000000
outer loop
vertex 0.012037 0.003403 0.000000
vertex 0.012132 0.003057 0.000000
vertex 0.012244 0.002395 0.000000
endloop
endfacet
facet normal 0.000000 0.000000 -1.000000
outer loop
vertex 0.012244 0.002395 0.000000
vertex 0.012269 0.001789 0.000000
vertex 0.012228 0.001252 0.000000
endloop
endfacet
facet normal 0.000000 0.000000 -1.000000
outer loop
vertex 0.012228 0.001252 0.000000
vertex 0.012142 0.000799 0.000000
vertex 0.012034 0.000447 0.000000
endloop
endfacet
facet normal 0.000000 0.000000 -1.000000
outer loop
vertex 0.012034 0.000447 0.000000
vertex 0.011976 0.000317 0.000000
vertex 0.011912 0.000223 0.000000
endloop
endfacet
facet normal 0.000000 0.000000 -1.000000
outer loop
vertex 0.011912 0.000223 0.000000
vertex 0.011839 0.000158 0.000000
vertex 0.011757 0.000118 0.000000
endloop
endfacet
facet normal 0.000000 0.000000 -1.000000
outer loop
vertex 0.011757 0.000118 0.000000
vertex 0.011664 0.000098 0.000000
vertex 0.010959 0.000103 0.000000
endloop
endfacet
facet normal 0.000000 0.000000 -1.000000
outer loop
vertex 0.010959 0.000103 0.000000
vertex 0.010103 0.000005 0.000000
vertex 0.009746 0.000008 0.000000
endloop
endfacet
facet normal 0.000000 0.000000 -1.000000
outer loop
vertex 0.009746 0.000008 0.000000
vertex 0.009427 0.000059 0.000000
vertex 0.009113 0.000152 0.000000
endloop
endfacet
facet normal 0.000000 0.000000 -1.000000
outer loop
vertex 0.009113 0.000152 0.000000
vertex 0.008949 0.000212 0.000000
vertex 0.008158 0.000517 0.000000
endloop
endfacet
facet normal 0.000000 0.000000 -1.000000
outer loop
vertex 0.008158 0.000517 0.000000
vertex 0.007955 0.000604 0.000000
vertex 0.007761 0.000694 0.000000
endloop
endfacet
facet normal 0.000000 0.000000 -1.000000
outer loop
vertex 0.007761 0.000694 0.000000
vertex 0.007575 0.000787 0.000000
vertex 0.007217 0.000982 0.000000
endloop
endfacet
facet normal 0.000000 0.000000 -1.000000
outer loop
vertex 0.007217 0.000982 0.000000
vertex 0.005896 0.001770 0.000000
vertex 0.005448 0.002074 0.000000
endloop
endfacet
facet normal 0.000000 0.000000 -1.000000
outer loop
vertex 0.005448 0.002074 0.000000
vertex 0.005216 0.002246 0.000000
vertex 0.004979 0.002432 0.000000
endloop
endfacet
facet normal 0.000000 0.000000 -1.000000
outer loop
vertex 0.004979 0.002432 0.000000
vertex 0.004502 0.002836 0.000000
vertex 0.004032 0.003278 0.000000
endloop
endfacet
facet normal 0.000000 0.000000 -1.000000
outer loop
vertex 0.004032 0.003278 0.000000
vertex 0.003804 0.003510 0.000000
vertex 0.003583 0.003749 0.000000
endloop
endfacet
facet normal 0.000000 0.000000 -1.000000
outer loop
vertex 0.003583 0.003749 0.000000
vertex 0.003372 0.003993 0.000000
vertex 0.003131 0.004295 0.000000
endloop
endfacet
facet normal 0.000000 0.000000 -1.000000
outer loop
vertex 0.003131 0.004295 0.000000
vertex 0.000000 0.008808 0.000000
vertex 0.000211 0.009790 0.000000
endloop
endfacet
facet normal 0.000000 0.000000 -1.000000
outer loop
vertex 0.000211 0.009790 0.000000
vertex 0.000359 0.010262 0.000000
vertex 0.000412 0.010378 0.000000
endloop
endfacet
facet normal 0.000000 0.000000 -1.000000
outer loop
vertex 0.000412 0.010378 0.000000
vertex 0.000519 0.010554 0.000000
vertex 0.000630 0.010687 0.000000
endloop
endfacet
facet normal 0.000000 0.000000 -1.000000
outer loop
vertex 0.000630 0.010687 0.000000
vertex 0.000753 0.010794 0.000000
vertex 0.001382 0.011210 0.000000
endloop
endfacet
facet normal 0.000000 0.000000 -1.000000
outer loop
vertex 0.001382 0.011210 0.000000
vertex 0.001494 0.011267 0.000000
vertex 0.001722 0.011350 0.000000
endloop
endfacet
facet normal 0.000000 0.000000 -1.000000
outer loop
vertex 0.001722 0.011350 0.000000
vertex 0.001960 0.011400 0.000000
vertex 0.003053 0.011505 0.000000
endloop
endfacet
facet normal 0.000000 0.000000 -1.000000
outer loop
vertex 0.003053 0.011505 0.000000
vertex 0.003163 0.011499 0.000000
vertex 0.003260 0.011484 0.000000
endloop
endfacet
facet normal 0.000000 0.000000 -1.000000
outer loop
vertex 0.003260 0.011484 0.000000
vertex 0.003346 0.011462 0.000000
vertex 0.003425 0.011433 0.000000
endloop
endfacet
facet normal 0.000000 0.000000 -1.000000
outer loop
vertex 0.003425 0.011433 0.000000
vertex 0.003498 0.011398 0.000000
vertex 0.003880 0.011173 0.000000
endloop
endfacet
facet normal 0.000000 0.000000 -1.000000
outer loop
vertex 0.003880 0.011173 0.000000
vertex 0.007042 0.009983 0.000000
vertex 0.007819 0.009578 0.000000
endloop
endfacet
facet normal 0.000000 0.000000 -1.000000
outer loop
vertex 0.007819 0.009578 0.000000
vertex 0.008471 0.009161 0.000000
vertex 0.008987 0.008753 0.000000
endloop
endfacet
facet normal 0.000000 0.000000 -1.000000
outer loop
vertex 0.008987 0.008753 0.000000
vertex 0.009208 0.008541 0.000000
vertex 0.009605 0.008082 0.000000
endloop
endfacet
facet normal 0.000000 0.000000 -1.000000
outer loop
vertex 0.009605 0.008082 0.000000
vertex 0.009793 0.007827 0.000000
vertex 0.009981 0.007548 0.000000
endloop
endfacet
facet normal 0.000000 0.000000 -1.000000
outer loop
vertex 0.009981 0.007548 0.000000
vertex 0.010176 0.007241 0.000000
vertex 0.010382 0.006903 0.000000
endloop
endfacet
facet normal 0.000000 0.000000 -1.000000
outer loop
vertex 0.010382 0.006903 0.000000
vertex 0.010607 0.006529 0.000000
vertex 0.010819 0.006171 0.000000
endloop
endfacet
facet normal 0.000000 0.000000 -1.000000
outer loop
vertex 0.010819 0.006171 0.000000
vertex 0.010991 0.005877 0.000000
vertex 0.011128 0.005634 0.000000
endloop
endfacet
facet normal 0.000000 0.000000 -1.000000
outer loop
vertex 0.011128 0.005634 0.000000
vertex 0.011238 0.005430 0.000000
vertex 0.011327 0.005253 0.000000
endloop
endfacet
facet normal 0.000000 0.000000 -1.000000
outer loop
vertex 0.011327 0.005253 0.000000
vertex 0.011401 0.005091 0.000000
vertex 0.011467 0.004932 0.000000
endloop
endfacet
facet normal 0.000000 0.000000 -1.000000
outer loop
vertex 0.011467 0.004932 0.000000
vertex 0.011532 0.004763 0.000000
vertex 0.011786 0.004083 0.000000
endloop
endfacet
facet normal 0.000000 0.000000 -1.000000
outer loop
vertex 0.011786 0.004083 0.000000
vertex 0.012037 0.003403 0.000000
vertex 0.012244 0.002395 0.000000
endloop
endfacet
facet normal 0.000000 0.000000 -1.000000
outer loop
vertex 0.012244 0.002395 0.000000
vertex 0.012228 0.001252 0.000000
vertex 0.012034 0.000447 0.000000
endloop
endfacet
facet normal 0.000000 0.000000 -1.000000
outer loop
vertex 0.012034 0.000447 0.000000
vertex 0.011912 0.000223 0.000000
vertex 0.011757 0.000118 0.000000
endloop
endfacet
facet normal 0.000000 0.000000 -1.000000
outer loop
vertex 0.010959 0.000103 0.000000
vertex 0.009746 0.000008 0.000000
vertex 0.009113 0.000152 0.000000
endloop
endfacet
facet normal 0.000000 0.000000 -1.000000
outer loop
vertex 0.012034 0.000447 0.000000
vertex 0.011757 0.000118 0.000000
vertex 0.010959 0.000103 0.000000
endloop
endfacet
facet normal 0.000000 0.000000 -1.000000
outer loop
vertex 0.011786 0.004083 0.000000
vertex 0.012244 0.002395 0.000000
vertex 0.012034 0.000447 0.000000
endloop
endfacet
facet normal 0.000000 0.000000 -1.000000
outer loop
vertex 0.011327 0.005253 0.000000
vertex 0.011467 0.004932 0.000000
vertex 0.011786 0.004083 0.000000
endloop
endfacet
facet normal 0.000000 0.000000 -1.000000
outer loop
vertex 0.010819 0.006171 0.000000
vertex 0.011128 0.005634 0.000000
vertex 0.011327 0.005253 0.000000
endloop
endfacet
facet normal 0.000000 0.000000 -1.000000
outer loop
vertex 0.009981 0.007548 0.000000
vertex 0.010382 0.006903 0.000000
vertex 0.010819 0.006171 0.000000
endloop
endfacet
facet normal 0.000000 0.000000 -1.000000
outer loop
vertex 0.008987 0.008753 0.000000
vertex 0.009605 0.008082 0.000000
vertex 0.009981 0.007548 0.000000
endloop
endfacet
facet normal 0.000000 0.000000 -1.000000
outer loop
vertex 0.003880 0.011173 0.000000
vertex 0.007819 0.009578 0.000000
vertex 0.008987 0.008753 0.000000
endloop
endfacet
facet normal 0.000000 0.000000 -1.000000
outer loop
vertex 0.003260 0.011484 0.000000
vertex 0.003425 0.011433 0.000000
vertex 0.003880 0.011173 0.000000
endloop
endfacet
facet normal 0.000000 0.000000 -1.000000
outer loop
vertex 0.001722 0.011350 0.000000
vertex 0.003053 0.011505 0.000000
vertex 0.003260 0.011484 0.000000
endloop
endfacet
facet normal 0.000000 0.000000 -1.000000
outer loop
vertex 0.000630 0.010687 0.000000
vertex 0.001382 0.011210 0.000000
vertex 0.001722 0.011350 0.000000
endloop
endfacet
facet normal 0.000000 0.000000 -1.000000
outer loop
vertex 0.000211 0.009790 0.000000
vertex 0.000412 0.010378 0.000000
vertex 0.000630 0.010687 0.000000
endloop
endfacet
facet normal 0.000000 0.000000 -1.000000
outer loop
vertex 0.003583 0.003749 0.000000
vertex 0.003131 0.004295 0.000000
vertex 0.000211 0.009790 0.000000
endloop
endfacet
facet normal 0.000000 0.000000 -1.000000
outer loop
vertex 0.004979 0.002432 0.000000
vertex 0.004032 0.003278 0.000000
vertex 0.003583 0.003749 0.000000
endloop
endfacet
facet normal 0.000000 0.000000 -1.000000
outer loop
vertex 0.007217 0.000982 0.000000
vertex 0.005448 0.002074 0.000000
vertex 0.004979 0.002432 0.000000
endloop
endfacet
facet normal 0.000000 0.000000 -1.000000
outer loop
vertex 0.008158 0.000517 0.000000
vertex 0.007761 0.000694 0.000000
vertex 0.007217 0.000982 0.000000
endloop
endfacet
facet normal 0.000000 0.000000 -1.000000
outer loop
vertex 0.010959 0.000103 0.000000
vertex 0.009113 0.000152 0.000000
vertex 0.008158 0.000517 0.000000
endloop
endfacet
facet normal 0.000000 0.000000 -1.000000
outer loop
vertex 0.011786 0.004083 0.000000
vertex 0.012034 0.000447 0.000000
vertex 0.010959 0.000103 0.000000
endloop
endfacet
facet normal 0.000000 0.000000 -1.000000
outer loop
vertex 0.010819 0.006171 0.000000
vertex 0.011327 0.005253 0.000000
vertex 0.011786 0.004083 0.000000
endloop
endfacet
facet normal 0.000000 0.000000 -1.000000
outer loop
vertex 0.008987 0.008753 0.000000
vertex 0.009981 0.007548 0.000000
vertex 0.010819 0.006171 0.000000
endloop
endfacet
facet normal 0.000000 0.000000 -1.000000
outer loop
vertex 0.001722 0.011350 0.000000
vertex 0.003260 0.011484 0.000000
vertex 0.003880 0.011173 0.000000
endloop
endfacet
facet normal 0.000000 0.000000 -1.000000
outer loop
vertex 0.003880 0.011173 0.000000
vertex 0.008987 0.008753 0.000000
vertex 0.010819 0.006171 0.000000
endloop
endfacet
facet normal 0.000000 0.000000 -1.000000
outer loop
vertex 0.010819 0.006171 0.000000
vertex 0.011786 0.004083 0.000000
vertex 0.010959 0.000103 0.000000
endloop
endfacet
facet normal 0.000000 0.000000 -1.000000
outer loop
vertex 0.010959 0.000103 0.000000
vertex 0.008158 0.000517 0.000000
vertex 0.007217 0.000982 0.000000
endloop
endfacet
facet normal 0.000000 0.000000 -1.000000
outer loop
vertex 0.007217 0.000982 0.000000
vertex 0.004979 0.002432 0.000000
vertex 0.003583 0.003749 0.000000
endloop
endfacet
facet normal 0.000000 0.000000 -1.000000
outer loop
vertex 0.003583 0.003749 0.000000
vertex 0.000211 0.009790 0.000000
vertex 0.000630 0.010687 0.000000
endloop
endfacet
facet normal 0.000000 0.000000 -1.000000
outer loop
vertex 0.000630 0.010687 0.000000
vertex 0.001722 0.011350 0.000000
vertex 0.003880 0.011173 0.000000
endloop
endfacet
facet normal 0.000000 0.000000 -1.000000
outer loop
vertex 0.003880 0.011173 0.000000
vertex 0.010819 0.006171 0.000000
vertex 0.010959 0.000103 0.000000
endloop
endfacet
facet normal 0.000000 0.000000 -1.000000
outer loop
vertex 0.010959 0.000103 0.000000
vertex 0.007217 0.000982 0.000000
vertex 0.003583 0.003749 0.000000
endloop
endfacet
facet normal 0.000000 0.000000 -1.000000
outer loop
vertex 0.003583 0.003749 0.000000
vertex 0.000630 0.010687 0.000000
vertex 0.003880 0.011173 0.000000
endloop
endfacet
facet normal 0.000000 0.000000 -1.000000
outer loop
vertex 0.010959 0.000103 0.000000
vertex 0.003583 0.003749 0.000000
vertex 0.003880 0.011173 0.000000
endloop
endfacet
facet normal 0.997078 -0.076392 0.000000
outer loop
vertex 0.012269 0.001789 0.000000
vertex 0.012269 0.001789 0.150000
vertex 0.012228 0.001252 0.150000
endloop
endfacet
facet normal 0.997078 -0.076390 0.000000
outer loop
vertex 0.012269 0.001789 0.000000
vertex 0.012228 0.001252 0.150000
vertex 0.012228 0.001252 0.000000
endloop
endfacet
facet normal 0.964218 0.265109 0.000000
outer loop
vertex 0.012132 0.003057 0.150000
vertex 0.012132 0.003057 0.000000
vertex 0.012037 0.003403 0.000000
endloop
endfacet
facet normal 0.964217 0.265113 0.000000
outer loop
vertex 0.012132 0.003057 0.150000
vertex 0.012037 0.003403 0.000000
vertex 0.012037 0.003403 0.150000
endloop
endfacet
facet normal 0.756054 0.654509 0.000000
outer loop
vertex 0.009605 0.008082 0.150000
vertex 0.009605 0.008082 0.000000
vertex 0.009208 0.008541 0.000000
endloop
endfacet
facet normal 0.756053 0.654511 0.000000
outer loop
vertex 0.009605 0.008082 0.150000
vertex 0.009208 0.008541 0.000000
vertex 0.009208 0.008541 0.150000
endloop
endfacet
facet normal 0.538546 0.842596 0.000000
outer loop
vertex 0.008471 0.009161 0.000000
vertex 0.007819 0.009578 0.000000
vertex 0.007819 0.009578 0.150000
endloop
endfacet
facet normal 0.538547 0.842595 0.000000
outer loop
vertex 0.008471 0.009161 0.000000
vertex 0.007819 0.009578 0.150000
vertex 0.008471 0.009161 0.150000
endloop
endfacet
facet normal 0.825922 -0.563784 0.000000
outer loop
vertex 0.011912 0.000223 0.150000
vertex 0.011912 0.000223 0.000000
vertex 0.011976 0.000317 0.000000
endloop
endfacet
facet normal 0.825929 -0.563775 0.000000
outer loop
vertex 0.011912 0.000223 0.150000
vertex 0.011976 0.000317 0.000000
vertex 0.011976 0.000317 0.150000
endloop
endfacet
facet normal 0.894252 0.447564 0.000000
outer loop
vertex 0.011327 0.005253 0.000000
vertex 0.011238 0.005430 0.000000
vertex 0.011238 0.005430 0.150000
endloop
endfacet
facet normal 0.894252 0.447564 0.000000
outer loop
vertex 0.011327 0.005253 0.000000
vertex 0.011238 0.005430 0.150000
vertex 0.011327 0.005253 0.150000
endloop
endfacet
facet normal 0.909321 0.416095 0.000000
outer loop
vertex 0.011401 0.005091 0.000000
vertex 0.011327 0.005253 0.000000
vertex 0.011327 0.005253 0.150000
endloop
endfacet
facet normal 0.909321 0.416095 0.000000
outer loop
vertex 0.011401 0.005091 0.000000
vertex 0.011327 0.005253 0.150000
vertex 0.011401 0.005091 0.150000
endloop
endfacet
facet normal 0.923074 0.384623 0.000000
outer loop
vertex 0.011467 0.004932 0.000000
vertex 0.011401 0.005091 0.000000
vertex 0.011401 0.005091 0.150000
endloop
endfacet
facet normal 0.923067 0.384638 0.000000
outer loop
vertex 0.011467 0.004932 0.000000
vertex 0.011401 0.005091 0.150000
vertex 0.011467 0.004932 0.150000
endloop
endfacet
facet normal 0.932684 0.360695 0.000000
outer loop
vertex 0.011532 0.004763 0.000000
vertex 0.011467 0.004932 0.000000
vertex 0.011467 0.004932 0.150000
endloop
endfacet
facet normal 0.932690 0.360680 0.000000
outer loop
vertex 0.011532 0.004763 0.000000
vertex 0.011467 0.004932 0.150000
vertex 0.011532 0.004763 0.150000
endloop
endfacet
facet normal 0.936870 0.349678 0.000000
outer loop
vertex 0.011786 0.004083 0.000000
vertex 0.011532 0.004763 0.000000
vertex 0.011532 0.004763 0.150000
endloop
endfacet
facet normal 0.936869 0.349680 0.000000
outer loop
vertex 0.011786 0.004083 0.000000
vertex 0.011532 0.004763 0.150000
vertex 0.011786 0.004083 0.150000
endloop
endfacet
facet normal 0.942993 0.332813 0.000000
outer loop
vertex 0.012037 0.003403 0.150000
vertex 0.012037 0.003403 0.000000
vertex 0.011912 0.003758 0.000000
endloop
endfacet
facet normal 0.932323 0.361627 0.000000
outer loop
vertex 0.011912 0.003758 0.000000
vertex 0.011786 0.004083 0.000000
vertex 0.011786 0.004083 0.150000
endloop
endfacet
facet normal 0.942993 0.332813 0.000000
outer loop
vertex 0.011912 0.003758 0.150000
vertex 0.012037 0.003403 0.150000
vertex 0.011912 0.003758 0.000000
endloop
endfacet
facet normal 0.932326 0.361620 0.000000
outer loop
vertex 0.011786 0.004083 0.150000
vertex 0.011912 0.003758 0.150000
vertex 0.011912 0.003758 0.000000
endloop
endfacet
facet normal 0.429433 0.903099 0.000000
outer loop
vertex 0.003498 0.011398 0.150000
vertex 0.003498 0.011398 0.000000
vertex 0.003425 0.011433 0.000000
endloop
endfacet
facet normal 0.429433 0.903099 0.000000
outer loop
vertex 0.003498 0.011398 0.150000
vertex 0.003425 0.011433 0.000000
vertex 0.003425 0.011433 0.150000
endloop
endfacet
facet normal -0.910303 0.413942 0.000000
outer loop
vertex 0.000412 0.010378 0.150000
vertex 0.000412 0.010378 0.000000
vertex 0.000359 0.010262 0.000000
endloop
endfacet
facet normal -0.910303 0.413942 0.000000
outer loop
vertex 0.000412 0.010378 0.150000
vertex 0.000359 0.010262 0.000000
vertex 0.000359 0.010262 0.150000
endloop
endfacet
facet normal 0.352128 0.935952 0.000000
outer loop
vertex 0.007042 0.009983 0.000000
vertex 0.003880 0.011173 0.000000
vertex 0.003880 0.011173 0.150000
endloop
endfacet
facet normal 0.352128 0.935952 0.000000
outer loop
vertex 0.007042 0.009983 0.000000
vertex 0.003880 0.011173 0.150000
vertex 0.007042 0.009983 0.150000
endloop
endfacet
facet normal -0.094931 0.995484 0.000000
outer loop
vertex 0.003053 0.011505 0.000000
vertex 0.001960 0.011400 0.000000
vertex 0.001960 0.011400 0.150000
endloop
endfacet
facet normal -0.094931 0.995484 0.000000
outer loop
vertex 0.003053 0.011505 0.000000
vertex 0.001960 0.011400 0.150000
vertex 0.003053 0.011505 0.150000
endloop
endfacet
facet normal -0.340668 -0.940184 0.000000
outer loop
vertex 0.008949 0.000212 0.000000
vertex 0.009113 0.000152 0.000000
vertex 0.009113 0.000152 0.150000
endloop
endfacet
facet normal -0.340668 -0.940184 0.000000
outer loop
vertex 0.008949 0.000212 0.000000
vertex 0.009113 0.000152 0.150000
vertex 0.008949 0.000212 0.150000
endloop
endfacet
facet normal -0.360467 -0.932772 0.000000
outer loop
vertex 0.008158 0.000517 0.000000
vertex 0.008949 0.000212 0.000000
vertex 0.008949 0.000212 0.150000
endloop
endfacet
facet normal -0.360466 -0.932772 0.000000
outer loop
vertex 0.008158 0.000517 0.000000
vertex 0.008949 0.000212 0.150000
vertex 0.008158 0.000517 0.150000
endloop
endfacet
facet normal -0.393591 -0.919286 0.000000
outer loop
vertex 0.007955 0.000604 0.000000
vertex 0.008158 0.000517 0.000000
vertex 0.008158 0.000517 0.150000
endloop
endfacet
facet normal -0.393588 -0.919287 0.000000
outer loop
vertex 0.007955 0.000604 0.000000
vertex 0.008158 0.000517 0.150000
vertex 0.007955 0.000604 0.150000
endloop
endfacet
facet normal -0.445959 -0.895054 0.000000
outer loop
vertex 0.007575 0.000787 0.150000
vertex 0.007575 0.000787 0.000000
vertex 0.007761 0.000694 0.000000
endloop
endfacet
facet normal -0.420881 -0.907116 0.000000
outer loop
vertex 0.007761 0.000694 0.000000
vertex 0.007955 0.000604 0.000000
vertex 0.007955 0.000604 0.150000
endloop
endfacet
facet normal -0.445959 -0.895054 0.000000
outer loop
vertex 0.007761 0.000694 0.150000
vertex 0.007575 0.000787 0.150000
vertex 0.007761 0.000694 0.000000
endloop
endfacet
facet normal -0.420881 -0.907116 0.000000
outer loop
vertex 0.007955 0.000604 0.150000
vertex 0.007761 0.000694 0.150000
vertex 0.007761 0.000694 0.000000
endloop
endfacet
facet normal -0.855615 0.517613 0.000000
outer loop
vertex 0.000519 0.010554 0.000000
vertex 0.000412 0.010378 0.000000
vertex 0.000412 0.010378 0.150000
endloop
endfacet
facet normal -0.855615 0.517612 0.000000
outer loop
vertex 0.000519 0.010554 0.000000
vertex 0.000412 0.010378 0.150000
vertex 0.000519 0.010554 0.150000
endloop
endfacet
facet normal 0.000000 0.000000 1.000000
outer loop
vertex 0.003346 0.011462 0.150000
vertex 0.003260 0.011484 0.150000
vertex 0.003163 0.011499 0.150000
endloop
endfacet
facet normal 0.000000 0.000000 1.000000
outer loop
vertex 0.003163 0.011499 0.150000
vertex 0.003053 0.011505 0.150000
vertex 0.001960 0.011400 0.150000
endloop
endfacet
facet normal -0.000221 0.000000 1.000000
outer loop
vertex 0.001960 0.011400 0.150000
vertex 0.001722 0.011350 0.150000
vertex 0.001494 0.011267 0.150000
endloop
endfacet
facet normal 0.000000 0.000000 1.000000
outer loop
vertex 0.001494 0.011267 0.150000
vertex 0.001382 0.011210 0.150000
vertex 0.000753 0.010794 0.150000
endloop
endfacet
facet normal 0.000000 0.000000 1.000000
outer loop
vertex 0.000753 0.010794 0.150000
vertex 0.000630 0.010687 0.150000
vertex 0.000519 0.010554 0.150000
endloop
endfacet
facet normal 0.001181 0.000000 0.999999
outer loop
vertex 0.000519 0.010554 0.150000
vertex 0.000412 0.010378 0.150000
vertex 0.000359 0.010262 0.150000
endloop
endfacet
facet normal 0.000000 0.000000 1.000000
outer loop
vertex 0.000359 0.010262 0.150000
vertex 0.000211 0.009790 0.150000
vertex 0.000000 0.008808 0.150000
endloop
endfacet
facet normal -0.000470 0.000000 1.000000
outer loop
vertex 0.000000 0.008808 0.150000
vertex 0.003131 0.004295 0.150000
vertex 0.003372 0.003993 0.150000
endloop
endfacet
facet normal 0.000000 0.000000 1.000000
outer loop
vertex 0.003372 0.003993 0.150000
vertex 0.003583 0.003749 0.150000
vertex 0.003804 0.003510 0.150000
endloop
endfacet
facet normal 0.000000 0.000000 1.000000
outer loop
vertex 0.003804 0.003510 0.150000
vertex 0.004032 0.003278 0.150000
vertex 0.004502 0.002836 0.150000
endloop
endfacet
facet normal 0.000503 0.000000 1.000000
outer loop
vertex 0.004502 0.002836 0.150000
vertex 0.004979 0.002432 0.150000
vertex 0.005216 0.002246 0.150000
endloop
endfacet
facet normal 0.000000 0.000000 1.000000
outer loop
vertex 0.005216 0.002246 0.150000
vertex 0.005448 0.002074 0.150000
vertex 0.005896 0.001770 0.150000
endloop
endfacet
facet normal -0.000284 0.000000 1.000000
outer loop
vertex 0.005896 0.001770 0.150000
vertex 0.007217 0.000982 0.150000
vertex 0.007575 0.000787 0.150000
endloop
endfacet
facet normal 0.000000 0.000000 1.000000
outer loop
vertex 0.007575 0.000787 0.150000
vertex 0.007761 0.000694 0.150000
vertex 0.007955 0.000604 0.150000
endloop
endfacet
facet normal 0.001087 0.000000 0.999999
outer loop
vertex 0.007955 0.000604 0.150000
vertex 0.008158 0.000517 0.150000
vertex 0.008949 0.000212 0.150000
endloop
endfacet
facet normal 0.000534 0.000000 1.000000
outer loop
vertex 0.008949 0.000212 0.150000
vertex 0.009113 0.000152 0.150000
vertex 0.009427 0.000059 0.150000
endloop
endfacet
facet normal -0.000016 0.000000 1.000000
outer loop
vertex 0.009427 0.000059 0.150000
vertex 0.009746 0.000008 0.150000
vertex 0.010103 0.000005 0.150000
endloop
endfacet
facet normal 0.000000 0.000000 1.000000
outer loop
vertex 0.010959 0.000103 0.150000
vertex 0.011664 0.000098 0.150000
vertex 0.011757 0.000118 0.150000
endloop
endfacet
facet normal 0.000000 0.000000 1.000000
outer loop
vertex 0.009427 0.000059 0.150000
vertex 0.010103 0.000005 0.150000
vertex 0.010959 0.000103 0.150000
endloop
endfacet
facet normal -0.000404 0.000000 1.000000
outer loop
vertex 0.007955 0.000604 0.150000
vertex 0.008949 0.000212 0.150000
vertex 0.009427 0.000059 0.150000
endloop
endfacet
facet normal 0.000109 0.000000 1.000000
outer loop
vertex 0.005896 0.001770 0.150000
vertex 0.007575 0.000787 0.150000
vertex 0.007955 0.000604 0.150000
endloop
endfacet
facet normal 0.000237 0.000000 1.000000
outer loop
vertex 0.004502 0.002836 0.150000
vertex 0.005216 0.002246 0.150000
vertex 0.005896 0.001770 0.150000
endloop
endfacet
facet normal 0.000323 0.000000 1.000000
outer loop
vertex 0.003372 0.003993 0.150000
vertex 0.003804 0.003510 0.150000
vertex 0.004502 0.002836 0.150000
endloop
endfacet
facet normal 0.000000 0.000000 1.000000
outer loop
vertex 0.000359 0.010262 0.150000
vertex 0.000000 0.008808 0.150000
vertex 0.003372 0.003993 0.150000
endloop
endfacet
facet normal 0.000000 0.000000 1.000000
outer loop
vertex 0.000753 0.010794 0.150000
vertex 0.000519 0.010554 0.150000
vertex 0.000359 0.010262 0.150000
endloop
endfacet
facet normal 0.000120 0.000000 1.000000
outer loop
vertex 0.001960 0.011400 0.150000
vertex 0.001494 0.011267 0.150000
vertex 0.000753 0.010794 0.150000
endloop
endfacet
facet normal 0.000000 0.000000 1.000000
outer loop
vertex 0.003346 0.011462 0.150000
vertex 0.003163 0.011499 0.150000
vertex 0.001960 0.011400 0.150000
endloop
endfacet
facet normal -0.001521 0.000000 0.999999
outer loop
vertex 0.003498 0.011398 0.150000
vertex 0.003425 0.011433 0.150000
vertex 0.003346 0.011462 0.150000
endloop
endfacet
facet normal 0.000000 0.000000 1.000000
outer loop
vertex 0.007819 0.009578 0.150000
vertex 0.007042 0.009983 0.150000
vertex 0.003880 0.011173 0.150000
endloop
endfacet
facet normal 0.000000 0.000000 1.000000
outer loop
vertex 0.003880 0.011173 0.150000
vertex 0.003498 0.011398 0.150000
vertex 0.003346 0.011462 0.150000
endloop
endfacet
facet normal 0.000000 0.000000 1.000000
outer loop
vertex 0.003346 0.011462 0.150000
vertex 0.001960 0.011400 0.150000
vertex 0.000753 0.010794 0.150000
endloop
endfacet
facet normal -0.000029 0.000000 1.000000
outer loop
vertex 0.000753 0.010794 0.150000
vertex 0.000359 0.010262 0.150000
vertex 0.003372 0.003993 0.150000
endloop
endfacet
facet normal 0.000000 0.000000 1.000000
outer loop
vertex 0.003372 0.003993 0.150000
vertex 0.004502 0.002836 0.150000
vertex 0.005896 0.001770 0.150000
endloop
endfacet
facet normal 0.000049 0.000000 1.000000
outer loop
vertex 0.005896 0.001770 0.150000
vertex 0.007955 0.000604 0.150000
vertex 0.009427 0.000059 0.150000
endloop
endfacet
facet normal 0.000000 0.000000 1.000000
outer loop
vertex 0.010959 0.000103 0.150000
vertex 0.011757 0.000118 0.150000
vertex 0.011839 0.000158 0.150000
endloop
endfacet
facet normal -0.000011 0.000000 1.000000
outer loop
vertex 0.005896 0.001770 0.150000
vertex 0.009427 0.000059 0.150000
vertex 0.010959 0.000103 0.150000
endloop
endfacet
facet normal 0.000010 0.000000 1.000000
outer loop
vertex 0.000753 0.010794 0.150000
vertex 0.003372 0.003993 0.150000
vertex 0.005896 0.001770 0.150000
endloop
endfacet
facet normal -0.000013 0.000000 1.000000
outer loop
vertex 0.003880 0.011173 0.150000
vertex 0.003346 0.011462 0.150000
vertex 0.000753 0.010794 0.150000
endloop
endfacet
facet normal 0.000048 0.000000 1.000000
outer loop
vertex 0.008471 0.009161 0.150000
vertex 0.007819 0.009578 0.150000
vertex 0.003880 0.011173 0.150000
endloop
endfacet
facet normal 0.000773 0.000000 1.000000
outer loop
vertex 0.009208 0.008541 0.150000
vertex 0.008987 0.008753 0.150000
vertex 0.008471 0.009161 0.150000
endloop
endfacet
facet normal 0.000000 0.000000 1.000000
outer loop
vertex 0.009793 0.007827 0.150000
vertex 0.009605 0.008082 0.150000
vertex 0.009208 0.008541 0.150000
endloop
endfacet
facet normal 0.000000 0.000000 1.000000
outer loop
vertex 0.010176 0.007241 0.150000
vertex 0.009981 0.007548 0.150000
vertex 0.009793 0.007827 0.150000
endloop
endfacet
facet normal -0.005218 0.000000 0.999986
outer loop
vertex 0.010607 0.006529 0.150000
vertex 0.010382 0.006903 0.150000
vertex 0.010176 0.007241 0.150000
endloop
endfacet
facet normal -0.006148 0.000000 0.999981
outer loop
vertex 0.010991 0.005877 0.150000
vertex 0.010819 0.006171 0.150000
vertex 0.010607 0.006529 0.150000
endloop
endfacet
facet normal 0.005359 0.000000 0.999986
outer loop
vertex 0.011238 0.005430 0.150000
vertex 0.011128 0.005634 0.150000
vertex 0.010991 0.005877 0.150000
endloop
endfacet
facet normal 0.002958 0.000000 0.999996
outer loop
vertex 0.011401 0.005091 0.150000
vertex 0.011327 0.005253 0.150000
vertex 0.011238 0.005430 0.150000
endloop
endfacet
facet normal -0.004537 0.000000 0.999990
outer loop
vertex 0.011532 0.004763 0.150000
vertex 0.011467 0.004932 0.150000
vertex 0.011401 0.005091 0.150000
endloop
endfacet
facet normal 0.000000 0.000000 1.000000
outer loop
vertex 0.012037 0.003403 0.150000
vertex 0.011912 0.003758 0.150000
vertex 0.011786 0.004083 0.150000
endloop
endfacet
facet normal 0.001166 0.000000 0.999999
outer loop
vertex 0.011786 0.004083 0.150000
vertex 0.011532 0.004763 0.150000
vertex 0.011401 0.005091 0.150000
endloop
endfacet
facet normal -0.001329 0.000000 0.999999
outer loop
vertex 0.011401 0.005091 0.150000
vertex 0.011238 0.005430 0.150000
vertex 0.010991 0.005877 0.150000
endloop
endfacet
facet normal 0.001954 0.000000 0.999998
outer loop
vertex 0.010991 0.005877 0.150000
vertex 0.010607 0.006529 0.150000
vertex 0.010176 0.007241 0.150000
endloop
endfacet
facet normal 0.000211 0.000000 1.000000
outer loop
vertex 0.010176 0.007241 0.150000
vertex 0.009793 0.007827 0.150000
vertex 0.009208 0.008541 0.150000
endloop
endfacet
facet normal 0.000000 0.000000 1.000000
outer loop
vertex 0.009208 0.008541 0.150000
vertex 0.008471 0.009161 0.150000
vertex 0.003880 0.011173 0.150000
endloop
endfacet
facet normal -0.000008 0.000000 1.000000
outer loop
vertex 0.003880 0.011173 0.150000
vertex 0.000753 0.010794 0.150000
vertex 0.005896 0.001770 0.150000
endloop
endfacet
facet normal 0.000009 0.000000 1.000000
outer loop
vertex 0.005896 0.001770 0.150000
vertex 0.010959 0.000103 0.150000
vertex 0.011839 0.000158 0.150000
endloop
endfacet
facet normal 0.000682 0.000000 1.000000
outer loop
vertex 0.011839 0.000158 0.150000
vertex 0.011912 0.000223 0.150000
vertex 0.011976 0.000317 0.150000
endloop
endfacet
facet normal 0.000000 0.000000 1.000000
outer loop
vertex 0.011976 0.000317 0.150000
vertex 0.012034 0.000447 0.150000
vertex 0.012142 0.000799 0.150000
endloop
endfacet
facet normal 0.000535 0.000000 1.000000
outer loop
vertex 0.012142 0.000799 0.150000
vertex 0.012228 0.001252 0.150000
vertex 0.012269 0.001789 0.150000
endloop
endfacet
facet normal -0.000282 0.000000 1.000000
outer loop
vertex 0.012269 0.001789 0.150000
vertex 0.012244 0.002395 0.150000
vertex 0.012132 0.003057 0.150000
endloop
endfacet
facet normal 0.000652 0.000000 1.000000
outer loop
vertex 0.012132 0.003057 0.150000
vertex 0.012037 0.003403 0.150000
vertex 0.011786 0.004083 0.150000
endloop
endfacet
facet normal -0.000132 0.000000 1.000000
outer loop
vertex 0.011786 0.004083 0.150000
vertex 0.011401 0.005091 0.150000
vertex 0.010991 0.005877 0.150000
endloop
endfacet
facet normal -0.000112 0.000000 1.000000
outer loop
vertex 0.010991 0.005877 0.150000
vertex 0.010176 0.007241 0.150000
vertex 0.009208 0.008541 0.150000
endloop
endfacet
facet normal 0.000000 0.000000 1.000000
outer loop
vertex 0.009208 0.008541 0.150000
vertex 0.003880 0.011173 0.150000
vertex 0.005896 0.001770 0.150000
endloop
endfacet
facet normal 0.000009 0.000000 1.000000
outer loop
vertex 0.005896 0.001770 0.150000
vertex 0.011839 0.000158 0.150000
vertex 0.011976 0.000317 0.150000
endloop
endfacet
facet normal -0.000281 0.000000 1.000000
outer loop
vertex 0.011976 0.000317 0.150000
vertex 0.012142 0.000799 0.150000
vertex 0.012269 0.001789 0.150000
endloop
endfacet
facet normal 0.000097 0.000000 1.000000
outer loop
vertex 0.012269 0.001789 0.150000
vertex 0.012132 0.003057 0.150000
vertex 0.011786 0.004083 0.150000
endloop
endfacet
facet normal 0.000000 0.000000 1.000000
outer loop
vertex 0.011786 0.004083 0.150000
vertex 0.010991 0.005877 0.150000
vertex 0.009208 0.008541 0.150000
endloop
endfacet
facet normal 0.000003 0.000000 1.000000
outer loop
vertex 0.009208 0.008541 0.150000
vertex 0.005896 0.001770 0.150000
vertex 0.011976 0.000317 0.150000
endloop
endfacet
facet normal 0.000000 0.000000 1.000000
outer loop
vertex 0.011976 0.000317 0.150000
vertex 0.012269 0.001789 0.150000
vertex 0.011786 0.004083 0.150000
endloop
endfacet
facet normal 0.000000 0.000000 1.000000
outer loop
vertex 0.011976 0.000317 0.150000
vertex 0.011786 0.004083 0.150000
vertex 0.009208 0.008541 0.150000
endloop
endfacet
facet normal 0.982679 -0.185316 0.000000
outer loop
vertex 0.012142 0.000799 0.000000
vertex 0.012228 0.001252 0.000000
vertex 0.012228 0.001252 0.150000
endloop
endfacet
facet normal 0.982680 -0.185310 0.000000
outer loop
vertex 0.012142 0.000799 0.000000
vertex 0.012228 0.001252 0.150000
vertex 0.012142 0.000799 0.150000
endloop
endfacet
facet normal 0.911581 -0.411122 0.000000
outer loop
vertex 0.011976 0.000317 0.150000
vertex 0.011976 0.000317 0.000000
vertex 0.012034 0.000447 0.000000
endloop
endfacet
facet normal 0.911581 -0.411122 0.000000
outer loop
vertex 0.011976 0.000317 0.150000
vertex 0.012034 0.000447 0.000000
vertex 0.012034 0.000447 0.150000
endloop
endfacet
facet normal 0.214060 -0.976821 0.000000
outer loop
vertex 0.011664 0.000098 0.150000
vertex 0.011664 0.000098 0.000000
vertex 0.011757 0.000118 0.000000
endloop
endfacet
facet normal 0.214063 -0.976820 0.000000
outer loop
vertex 0.011664 0.000098 0.150000
vertex 0.011757 0.000118 0.000000
vertex 0.011757 0.000118 0.150000
endloop
endfacet
facet normal 0.507771 0.861492 0.000000
outer loop
vertex 0.003880 0.011173 0.000000
vertex 0.003498 0.011398 0.000000
vertex 0.003498 0.011398 0.150000
endloop
endfacet
facet normal 0.507771 0.861492 0.000000
outer loop
vertex 0.003880 0.011173 0.000000
vertex 0.003498 0.011398 0.150000
vertex 0.003880 0.011173 0.150000
endloop
endfacet
facet normal -0.551237 0.834349 0.000000
outer loop
vertex 0.001382 0.011210 0.000000
vertex 0.000753 0.010794 0.000000
vertex 0.000753 0.010794 0.150000
endloop
endfacet
facet normal -0.551237 0.834349 0.000000
outer loop
vertex 0.001382 0.011210 0.000000
vertex 0.000753 0.010794 0.150000
vertex 0.001382 0.011210 0.150000
endloop
endfacet
facet normal 0.665899 -0.746042 0.000000
outer loop
vertex 0.011839 0.000158 0.150000
vertex 0.011839 0.000158 0.000000
vertex 0.011912 0.000223 0.000000
endloop
endfacet
facet normal 0.665883 -0.746056 0.000000
outer loop
vertex 0.011839 0.000158 0.150000
vertex 0.011912 0.000223 0.000000
vertex 0.011912 0.000223 0.150000
endloop
endfacet
facet normal 0.000000 0.000000 1.000000
outer loop
vertex 0.010176 0.007241 0.000000
vertex 0.009981 0.007548 0.000000
vertex 0.009793 0.007827 0.000000
endloop
endfacet
facet normal 0.806087 0.591797 0.000000
outer loop
vertex 0.009793 0.007827 0.000000
vertex 0.009605 0.008082 0.000000
vertex 0.009605 0.008082 0.150000
endloop
endfacet
facet normal 0.806084 0.591801 0.000000
outer loop
vertex 0.009793 0.007827 0.000000
vertex 0.009605 0.008082 0.150000
vertex 0.009793 0.007827 0.150000
endloop
endfacet
facet normal 0.000000 0.000000 1.000000
outer loop
vertex 0.010382 0.006903 0.000000
vertex 0.010176 0.007241 0.000000
vertex 0.009793 0.007827 0.000000
endloop
endfacet
facet normal 0.000000 0.000000 1.000000
outer loop
vertex 0.010819 0.006171 0.000000
vertex 0.010607 0.006529 0.000000
vertex 0.010382 0.006903 0.000000
endloop
endfacet
facet normal 0.000000 0.000000 1.000000
outer loop
vertex 0.011128 0.005634 0.000000
vertex 0.010991 0.005877 0.000000
vertex 0.010819 0.006171 0.000000
endloop
endfacet
facet normal 0.880878 0.473343 0.000000
outer loop
vertex 0.011238 0.005430 0.150000
vertex 0.011238 0.005430 0.000000
vertex 0.011128 0.005634 0.000000
endloop
endfacet
facet normal 0.880881 0.473338 0.000000
outer loop
vertex 0.011128 0.005634 0.150000
vertex 0.011238 0.005430 0.150000
vertex 0.011128 0.005634 0.000000
endloop
endfacet
facet normal 0.000000 0.000000 1.000000
outer loop
vertex 0.011128 0.005634 0.000000
vertex 0.010819 0.006171 0.000000
vertex 0.010382 0.006903 0.000000
endloop
endfacet
facet normal 0.842971 0.537959 0.000000
outer loop
vertex 0.010382 0.006903 0.000000
vertex 0.009793 0.007827 0.000000
vertex 0.009793 0.007827 0.150000
endloop
endfacet
facet normal 0.828918 0.559370 -0.000187
outer loop
vertex 0.010382 0.006903 0.000000
vertex 0.009793 0.007827 0.150000
vertex 0.009981 0.007548 0.150000
endloop
endfacet
facet normal 0.862161 0.506635 0.000000
outer loop
vertex 0.011128 0.005634 0.150000
vertex 0.011128 0.005634 0.000000
vertex 0.010382 0.006903 0.000000
endloop
endfacet
facet normal 0.870755 0.491717 -0.000169
outer loop
vertex 0.010991 0.005877 0.150000
vertex 0.011128 0.005634 0.150000
vertex 0.010382 0.006903 0.000000
endloop
endfacet
facet normal 0.844248 0.535953 -0.000045
outer loop
vertex 0.010382 0.006903 0.000000
vertex 0.009981 0.007548 0.150000
vertex 0.010176 0.007241 0.150000
endloop
endfacet
facet normal 0.853342 0.521352 0.000000
outer loop
vertex 0.010382 0.006903 0.000000
vertex 0.010176 0.007241 0.150000
vertex 0.010382 0.006903 0.150000
endloop
endfacet
facet normal 0.863919 0.503631 -0.000060
outer loop
vertex 0.010819 0.006171 0.150000
vertex 0.010991 0.005877 0.150000
vertex 0.010382 0.006903 0.000000
endloop
endfacet
facet normal 0.857517 0.514455 0.000000
outer loop
vertex 0.010382 0.006903 0.000000
vertex 0.010382 0.006903 0.150000
vertex 0.010607 0.006529 0.150000
endloop
endfacet
facet normal 0.859683 0.510828 -0.000012
outer loop
vertex 0.010607 0.006529 0.150000
vertex 0.010819 0.006171 0.150000
vertex 0.010382 0.006903 0.000000
endloop
endfacet
facet normal 0.986032 0.166556 0.000000
outer loop
vertex 0.012244 0.002395 0.150000
vertex 0.012244 0.002395 0.000000
vertex 0.012132 0.003057 0.000000
endloop
endfacet
facet normal 0.986032 0.166558 0.000000
outer loop
vertex 0.012244 0.002395 0.150000
vertex 0.012132 0.003057 0.000000
vertex 0.012132 0.003057 0.150000
endloop
endfacet
facet normal -0.206941 0.978353 0.000000
outer loop
vertex 0.001960 0.011400 0.000000
vertex 0.001722 0.011350 0.000000
vertex 0.001722 0.011350 0.150000
endloop
endfacet
facet normal -0.206941 0.978353 0.000000
outer loop
vertex 0.001960 0.011400 0.000000
vertex 0.001722 0.011350 0.150000
vertex 0.001960 0.011400 0.150000
endloop
endfacet
facet normal -0.007859 -0.999969 0.000000
outer loop
vertex 0.009746 0.000008 0.000000
vertex 0.010103 0.000005 0.000000
vertex 0.010103 0.000005 0.150000
endloop
endfacet
facet normal -0.007859 -0.999969 0.000000
outer loop
vertex 0.009746 0.000008 0.000000
vertex 0.010103 0.000005 0.150000
vertex 0.009746 0.000008 0.150000
endloop
endfacet
facet normal -0.754980 -0.655747 0.000000
outer loop
vertex 0.003372 0.003993 0.000000
vertex 0.003583 0.003749 0.000000
vertex 0.003583 0.003749 0.150000
endloop
endfacet
facet normal -0.754980 -0.655747 0.000000
outer loop
vertex 0.003372 0.003993 0.000000
vertex 0.003583 0.003749 0.150000
vertex 0.003372 0.003993 0.150000
endloop
endfacet
facet normal -0.821626 -0.570027 0.000000
outer loop
vertex 0.000000 0.008808 0.150000
vertex 0.000000 0.008808 0.000000
vertex 0.003131 0.004295 0.000000
endloop
endfacet
facet normal -0.782344 -0.622847 0.000000
outer loop
vertex 0.003131 0.004295 0.000000
vertex 0.003372 0.003993 0.000000
vertex 0.003372 0.003993 0.150000
endloop
endfacet
facet normal -0.821626 -0.570027 0.000000
outer loop
vertex 0.003131 0.004295 0.150000
vertex 0.000000 0.008808 0.150000
vertex 0.003131 0.004295 0.000000
endloop
endfacet
facet normal -0.782344 -0.622847 0.000000
outer loop
vertex 0.003372 0.003993 0.150000
vertex 0.003131 0.004295 0.150000
vertex 0.003131 0.004295 0.000000
endloop
endfacet
facet normal -0.457535 0.889191 0.000000
outer loop
vertex 0.001494 0.011267 0.150000
vertex 0.001494 0.011267 0.000000
vertex 0.001382 0.011210 0.000000
endloop
endfacet
facet normal -0.457536 0.889191 0.000000
outer loop
vertex 0.001494 0.011267 0.150000
vertex 0.001382 0.011210 0.000000
vertex 0.001382 0.011210 0.150000
endloop
endfacet
facet normal -0.734154 -0.678983 0.000000
outer loop
vertex 0.003804 0.003510 0.150000
vertex 0.003583 0.003749 0.150000
vertex 0.003583 0.003749 0.000000
endloop
endfacet
facet normal 0.000000 0.000000 1.000000
outer loop
vertex 0.003583 0.003749 0.000000
vertex 0.003804 0.003510 0.000000
vertex 0.004032 0.003278 0.000000
endloop
endfacet
facet normal -0.685042 -0.728503 0.000000
outer loop
vertex 0.004032 0.003278 0.000000
vertex 0.004502 0.002836 0.000000
vertex 0.004502 0.002836 0.150000
endloop
endfacet
facet normal -0.714079 -0.700065 -0.000063
outer loop
vertex 0.004032 0.003278 0.150000
vertex 0.003804 0.003510 0.150000
vertex 0.003583 0.003749 0.000000
endloop
endfacet
facet normal -0.685041 -0.728504 0.000000
outer loop
vertex 0.004032 0.003278 0.000000
vertex 0.004502 0.002836 0.150000
vertex 0.004032 0.003278 0.150000
endloop
endfacet
facet normal -0.724187 -0.689604 0.000000
outer loop
vertex 0.003583 0.003749 0.000000
vertex 0.004032 0.003278 0.000000
vertex 0.004032 0.003278 0.150000
endloop
endfacet
facet normal -0.159058 -0.987269 0.000000
outer loop
vertex 0.009427 0.000059 0.000000
vertex 0.009746 0.000008 0.000000
vertex 0.009746 0.000008 0.150000
endloop
endfacet
facet normal -0.159058 -0.987269 0.000000
outer loop
vertex 0.009427 0.000059 0.000000
vertex 0.009746 0.000008 0.150000
vertex 0.009427 0.000059 0.150000
endloop
endfacet
facet normal -0.656278 0.754519 0.000000
outer loop
vertex 0.000753 0.010794 0.000000
vertex 0.000630 0.010687 0.000000
vertex 0.000630 0.010687 0.150000
endloop
endfacet
facet normal -0.656278 0.754519 0.000000
outer loop
vertex 0.000753 0.010794 0.000000
vertex 0.000630 0.010687 0.150000
vertex 0.000753 0.010794 0.150000
endloop
endfacet
facet normal 0.956217 -0.292658 0.000000
outer loop
vertex 0.012142 0.000799 0.000000
vertex 0.012142 0.000799 0.150000
vertex 0.012034 0.000447 0.150000
endloop
endfacet
facet normal 0.956217 -0.292658 0.000000
outer loop
vertex 0.012142 0.000799 0.000000
vertex 0.012034 0.000447 0.150000
vertex 0.012034 0.000447 0.000000
endloop
endfacet
facet normal 0.691461 0.722414 0.000000
outer loop
vertex 0.009208 0.008541 0.150000
vertex 0.009208 0.008541 0.000000
vertex 0.008987 0.008753 0.000000
endloop
endfacet
facet normal 0.691461 0.722414 0.000000
outer loop
vertex 0.009208 0.008541 0.150000
vertex 0.008987 0.008753 0.000000
vertex 0.008987 0.008753 0.150000
endloop
endfacet
facet normal -0.007657 -0.999971 0.000000
outer loop
vertex 0.010959 0.000103 0.000000
vertex 0.011664 0.000098 0.000000
vertex 0.011664 0.000098 0.150000
endloop
endfacet
facet normal -0.007657 -0.999971 0.000000
outer loop
vertex 0.010959 0.000103 0.000000
vertex 0.011664 0.000098 0.150000
vertex 0.010959 0.000103 0.150000
endloop
endfacet
facet normal -0.477224 -0.878782 0.000000
outer loop
vertex 0.007217 0.000982 0.000000
vertex 0.007575 0.000787 0.000000
vertex 0.007575 0.000787 0.150000
endloop
endfacet
facet normal -0.477224 -0.878782 0.000000
outer loop
vertex 0.007217 0.000982 0.000000
vertex 0.007575 0.000787 0.150000
vertex 0.007217 0.000982 0.150000
endloop
endfacet
facet normal -0.561051 -0.827781 0.000000
outer loop
vertex 0.005448 0.002074 0.150000
vertex 0.005448 0.002074 0.000000
vertex 0.005896 0.001770 0.000000
endloop
endfacet
facet normal -0.512707 -0.858564 0.000000
outer loop
vertex 0.005896 0.001770 0.000000
vertex 0.007217 0.000982 0.000000
vertex 0.007217 0.000982 0.150000
endloop
endfacet
facet normal -0.561051 -0.827782 0.000000
outer loop
vertex 0.005896 0.001770 0.150000
vertex 0.005448 0.002074 0.150000
vertex 0.005896 0.001770 0.000000
endloop
endfacet
facet normal -0.512707 -0.858564 0.000000
outer loop
vertex 0.007217 0.000982 0.150000
vertex 0.005896 0.001770 0.150000
vertex 0.005896 0.001770 0.000000
endloop
endfacet
facet normal 0.250872 0.968020 0.000000
outer loop
vertex 0.003346 0.011462 0.150000
vertex 0.003346 0.011462 0.000000
vertex 0.003260 0.011484 0.000000
endloop
endfacet
facet normal 0.250872 0.968020 0.000000
outer loop
vertex 0.003346 0.011462 0.150000
vertex 0.003260 0.011484 0.000000
vertex 0.003260 0.011484 0.150000
endloop
endfacet
facet normal 0.999184 0.040402 0.000000
outer loop
vertex 0.012244 0.002395 0.000000
vertex 0.012244 0.002395 0.150000
vertex 0.012269 0.001789 0.150000
endloop
endfacet
facet normal 0.999183 0.040404 0.000000
outer loop
vertex 0.012244 0.002395 0.000000
vertex 0.012269 0.001789 0.150000
vertex 0.012269 0.001789 0.000000
endloop
endfacet
facet normal -0.977763 0.209714 0.000000
outer loop
vertex 0.000211 0.009790 0.000000
vertex 0.000000 0.008808 0.000000
vertex 0.000000 0.008808 0.150000
endloop
endfacet
facet normal -0.977763 0.209714 0.000000
outer loop
vertex 0.000211 0.009790 0.000000
vertex 0.000000 0.008808 0.150000
vertex 0.000211 0.009790 0.150000
endloop
endfacet
facet normal -0.341235 0.939978 0.000000
outer loop
vertex 0.001722 0.011350 0.150000
vertex 0.001722 0.011350 0.000000
vertex 0.001494 0.011267 0.000000
endloop
endfacet
facet normal -0.341235 0.939978 0.000000
outer loop
vertex 0.001722 0.011350 0.150000
vertex 0.001494 0.011267 0.000000
vertex 0.001494 0.011267 0.150000
endloop
endfacet
facet normal -0.284093 -0.958797 0.000000
outer loop
vertex 0.009113 0.000152 0.150000
vertex 0.009113 0.000152 0.000000
vertex 0.009427 0.000059 0.000000
endloop
endfacet
facet normal -0.284094 -0.958796 0.000000
outer loop
vertex 0.009113 0.000152 0.150000
vertex 0.009427 0.000059 0.000000
vertex 0.009427 0.000059 0.150000
endloop
endfacet
facet normal 0.462038 0.886860 0.000000
outer loop
vertex 0.007819 0.009578 0.000000
vertex 0.007042 0.009983 0.000000
vertex 0.007042 0.009983 0.150000
endloop
endfacet
facet normal 0.462038 0.886860 0.000000
outer loop
vertex 0.007819 0.009578 0.000000
vertex 0.007042 0.009983 0.150000
vertex 0.007819 0.009578 0.150000
endloop
endfacet
facet normal -0.766878 0.641793 0.000000
outer loop
vertex 0.000630 0.010687 0.000000
vertex 0.000519 0.010554 0.000000
vertex 0.000519 0.010554 0.150000
endloop
endfacet
facet normal -0.766878 0.641793 0.000000
outer loop
vertex 0.000630 0.010687 0.000000
vertex 0.000519 0.010554 0.150000
vertex 0.000630 0.010687 0.150000
endloop
endfacet
facet normal 0.055149 0.998478 0.000000
outer loop
vertex 0.003163 0.011499 0.150000
vertex 0.003163 0.011499 0.000000
vertex 0.003053 0.011505 0.000000
endloop
endfacet
facet normal 0.055150 0.998478 0.000000
outer loop
vertex 0.003163 0.011499 0.150000
vertex 0.003053 0.011505 0.000000
vertex 0.003053 0.011505 0.150000
endloop
endfacet
facet normal 0.620850 0.783929 0.000000
outer loop
vertex 0.008987 0.008753 0.000000
vertex 0.008471 0.009161 0.000000
vertex 0.008471 0.009161 0.150000
endloop
endfacet
facet normal 0.620850 0.783929 0.000000
outer loop
vertex 0.008987 0.008753 0.000000
vertex 0.008471 0.009161 0.150000
vertex 0.008987 0.008753 0.150000
endloop
endfacet
facet normal -0.595702 -0.803206 0.000000
outer loop
vertex 0.005216 0.002246 0.000000
vertex 0.005448 0.002074 0.000000
vertex 0.005448 0.002074 0.150000
endloop
endfacet
facet normal -0.595703 -0.803205 0.000000
outer loop
vertex 0.005216 0.002246 0.000000
vertex 0.005448 0.002074 0.150000
vertex 0.005216 0.002246 0.150000
endloop
endfacet
facet normal -0.646602 -0.762827 0.000000
outer loop
vertex 0.004502 0.002836 0.150000
vertex 0.004502 0.002836 0.000000
vertex 0.004979 0.002432 0.000000
endloop
endfacet
facet normal -0.616729 -0.787175 0.000000
outer loop
vertex 0.004979 0.002432 0.000000
vertex 0.005216 0.002246 0.000000
vertex 0.005216 0.002246 0.150000
endloop
endfacet
facet normal -0.646601 -0.762828 0.000000
outer loop
vertex 0.004979 0.002432 0.150000
vertex 0.004502 0.002836 0.150000
vertex 0.004979 0.002432 0.000000
endloop
endfacet
facet normal -0.616731 -0.787174 0.000000
outer loop
vertex 0.005216 0.002246 0.150000
vertex 0.004979 0.002432 0.150000
vertex 0.004979 0.002432 0.000000
endloop
endfacet
facet normal -0.953638 0.300954 0.000000
outer loop
vertex 0.000359 0.010262 0.000000
vertex 0.000211 0.009790 0.000000
vertex 0.000211 0.009790 0.150000
endloop
endfacet
facet normal -0.953638 0.300954 0.000000
outer loop
vertex 0.000359 0.010262 0.000000
vertex 0.000211 0.009790 0.150000
vertex 0.000359 0.010262 0.150000
endloop
endfacet
facet normal 0.113947 -0.993487 0.000000
outer loop
vertex 0.010103 0.000005 0.000000
vertex 0.010959 0.000103 0.000000
vertex 0.010959 0.000103 0.150000
endloop
endfacet
facet normal 0.113946 -0.993487 0.000000
outer loop
vertex 0.010103 0.000005 0.000000
vertex 0.010959 0.000103 0.150000
vertex 0.010103 0.000005 0.150000
endloop
endfacet
facet normal 0.149998 0.988686 0.000000
outer loop
vertex 0.003260 0.011484 0.150000
vertex 0.003260 0.011484 0.000000
vertex 0.003163 0.011499 0.000000
endloop
endfacet
facet normal 0.149999 0.988686 0.000000
outer loop
vertex 0.003260 0.011484 0.150000
vertex 0.003163 0.011499 0.000000
vertex 0.003163 0.011499 0.150000
endloop
endfacet
facet normal 0.347673 0.937616 0.000000
outer loop
vertex 0.003425 0.011433 0.150000
vertex 0.003425 0.011433 0.000000
vertex 0.003346 0.011462 0.000000
endloop
endfacet
facet normal 0.347670 0.937617 0.000000
outer loop
vertex 0.003425 0.011433 0.150000
vertex 0.003346 0.011462 0.000000
vertex 0.003346 0.011462 0.150000
endloop
endfacet
endsolid Exported from Blender-3.6.8
