solid Exported from Blender-3.6.8
facet normal 0.842169 0.539213 0.000000
outer loop
vertex 0.007911 0.006118 0.150000
vertex 0.007911 0.006118 0.000000
vertex 0.007805 0.006284 0.000000
endloop
endfacet
facet normal 0.842166 0.539219 0.000000
outer loop
vertex 0.007911 0.006118 0.150000
vertex 0.007805 0.006284 0.000000
vertex 0.007805 0.006284 0.150000
endloop
endfacet
facet normal 0.000000 0.000000 -1.000000
outer loop
vertex 0.008426 0.004732 0.000000
vertex 0.008349 0.004961 0.000000
vertex 0.008214 0.005385 0.000000
endloop
endfacet
facet normal 0.937282 0.348571 0.000000
outer loop
vertex 0.008148 0.005581 0.000000
vertex 0.008079 0.005768 0.000000
vertex 0.008079 0.005768 0.150000
endloop
endfacet
facet normal 0.000000 0.000000 -1.000000
outer loop
vertex 0.008503 0.004500 0.000000
vertex 0.008426 0.004732 0.000000
vertex 0.008214 0.005385 0.000000
endloop
endfacet
facet normal 0.948547 0.316635 0.000045
outer loop
vertex 0.008214 0.005385 0.000000
vertex 0.008148 0.005581 0.000000
vertex 0.008079 0.005768 0.150000
endloop
endfacet
facet normal 0.937282 0.348571 -0.000047
outer loop
vertex 0.008214 0.005385 0.000000
vertex 0.008079 0.005768 0.150000
vertex 0.008148 0.005581 0.150000
endloop
endfacet
facet normal 0.950380 0.311091 0.000008
outer loop
vertex 0.008503 0.004500 0.000000
vertex 0.008214 0.005385 0.000000
vertex 0.008148 0.005581 0.150000
endloop
endfacet
facet normal 0.948545 0.316641 -0.000036
outer loop
vertex 0.008503 0.004500 0.000000
vertex 0.008148 0.005581 0.150000
vertex 0.008214 0.005385 0.150000
endloop
endfacet
facet normal 0.959285 0.282439 0.000186
outer loop
vertex 0.008569 0.004277 0.000000
vertex 0.008503 0.004500 0.000000
vertex 0.008214 0.005385 0.150000
endloop
endfacet
facet normal 0.952835 0.303488 0.000016
outer loop
vertex 0.008569 0.004277 0.000000
vertex 0.008214 0.005385 0.150000
vertex 0.008349 0.004961 0.150000
endloop
endfacet
facet normal 0.977836 0.209371 0.000000
outer loop
vertex 0.008668 0.003855 0.150000
vertex 0.008668 0.003855 0.000000
vertex 0.008624 0.004063 0.000000
endloop
endfacet
facet normal 0.969070 0.246785 0.000298
outer loop
vertex 0.008624 0.004063 0.000000
vertex 0.008569 0.004277 0.000000
vertex 0.008349 0.004961 0.150000
endloop
endfacet
facet normal 0.947370 0.320140 -0.000181
outer loop
vertex 0.008624 0.004063 0.000000
vertex 0.008349 0.004961 0.150000
vertex 0.008426 0.004732 0.150000
endloop
endfacet
facet normal 0.977838 0.209364 0.000000
outer loop
vertex 0.008624 0.004063 0.150000
vertex 0.008668 0.003855 0.150000
vertex 0.008624 0.004063 0.000000
endloop
endfacet
facet normal 0.969070 0.246785 0.000000
outer loop
vertex 0.008569 0.004277 0.150000
vertex 0.008624 0.004063 0.150000
vertex 0.008624 0.004063 0.000000
endloop
endfacet
facet normal 0.948788 0.315913 -0.000161
outer loop
vertex 0.008624 0.004063 0.000000
vertex 0.008426 0.004732 0.150000
vertex 0.008503 0.004500 0.150000
endloop
endfacet
facet normal 0.959284 0.282445 -0.000055
outer loop
vertex 0.008503 0.004500 0.150000
vertex 0.008569 0.004277 0.150000
vertex 0.008624 0.004063 0.000000
endloop
endfacet
facet normal -0.231010 -0.972951 0.000000
outer loop
vertex 0.004763 0.000230 0.150000
vertex 0.004763 0.000230 0.000000
vertex 0.005179 0.000131 0.000000
endloop
endfacet
facet normal -0.231010 -0.972951 0.000000
outer loop
vertex 0.004763 0.000230 0.150000
vertex 0.005179 0.000131 0.000000
vertex 0.005179 0.000131 0.150000
endloop
endfacet
facet normal -0.643770 -0.765219 0.000000
outer loop
vertex 0.002615 0.001351 0.150000
vertex 0.002615 0.001351 0.000000
vertex 0.002769 0.001221 0.000000
endloop
endfacet
facet normal -0.643771 -0.765218 0.000000
outer loop
vertex 0.002615 0.001351 0.150000
vertex 0.002769 0.001221 0.000000
vertex 0.002769 0.001221 0.150000
endloop
endfacet
facet normal 0.786004 0.618222 0.000000
outer loop
vertex 0.007805 0.006284 0.150000
vertex 0.007805 0.006284 0.000000
vertex 0.007679 0.006445 0.000000
endloop
endfacet
facet normal 0.786000 0.618227 0.000000
outer loop
vertex 0.007805 0.006284 0.150000
vertex 0.007679 0.006445 0.000000
vertex 0.007679 0.006445 0.150000
endloop
endfacet
facet normal -0.640203 0.768206 0.000000
outer loop
vertex 0.000544 0.007804 0.150000
vertex 0.000544 0.007804 0.000000
vertex 0.000476 0.007748 0.000000
endloop
endfacet
facet normal -0.640203 0.768205 0.000000
outer loop
vertex 0.000544 0.007804 0.150000
vertex 0.000476 0.007748 0.000000
vertex 0.000476 0.007748 0.150000
endloop
endfacet
facet normal 0.298485 -0.954414 0.000000
outer loop
vertex 0.006692 0.000027 0.150000
vertex 0.006692 0.000027 0.000000
vertex 0.006825 0.000068 0.000000
endloop
endfacet
facet normal 0.298482 -0.954415 0.000000
outer loop
vertex 0.006692 0.000027 0.150000
vertex 0.006825 0.000068 0.000000
vertex 0.006825 0.000068 0.150000
endloop
endfacet
facet normal 0.000000 0.000000 -1.000000
outer loop
vertex 0.003527 0.008645 0.000000
vertex 0.004873 0.008212 0.000000
vertex 0.005083 0.008120 0.000000
endloop
endfacet
facet normal 0.000000 0.000000 -1.000000
outer loop
vertex 0.005083 0.008120 0.000000
vertex 0.005299 0.008015 0.000000
vertex 0.005747 0.007775 0.000000
endloop
endfacet
facet normal 0.000000 0.000000 -1.000000
outer loop
vertex 0.005747 0.007775 0.000000
vertex 0.005976 0.007642 0.000000
vertex 0.006208 0.007503 0.000000
endloop
endfacet
facet normal 0.000000 0.000000 -1.000000
outer loop
vertex 0.006208 0.007503 0.000000
vertex 0.006441 0.007358 0.000000
vertex 0.006674 0.007210 0.000000
endloop
endfacet
facet normal 0.000000 0.000000 -1.000000
outer loop
vertex 0.006674 0.007210 0.000000
vertex 0.007137 0.006907 0.000000
vertex 0.007349 0.006755 0.000000
endloop
endfacet
facet normal 0.000000 0.000000 -1.000000
outer loop
vertex 0.007349 0.006755 0.000000
vertex 0.007528 0.006601 0.000000
vertex 0.007679 0.006445 0.000000
endloop
endfacet
facet normal 0.000000 0.000000 -1.000000
outer loop
vertex 0.007679 0.006445 0.000000
vertex 0.007805 0.006284 0.000000
vertex 0.007911 0.006118 0.000000
endloop
endfacet
facet normal 0.000000 0.000000 -1.000000
outer loop
vertex 0.007911 0.006118 0.000000
vertex 0.008079 0.005768 0.000000
vertex 0.008148 0.005581 0.000000
endloop
endfacet
facet normal 0.000000 0.000000 -1.000000
outer loop
vertex 0.008148 0.005581 0.000000
vertex 0.008214 0.005385 0.000000
vertex 0.008349 0.004961 0.000000
endloop
endfacet
facet normal 0.000000 0.000000 -1.000000
outer loop
vertex 0.008349 0.004961 0.000000
vertex 0.008426 0.004732 0.000000
vertex 0.008503 0.004500 0.000000
endloop
endfacet
facet normal 0.000000 0.000000 -1.000000
outer loop
vertex 0.008503 0.004500 0.000000
vertex 0.008569 0.004277 0.000000
vertex 0.008624 0.004063 0.000000
endloop
endfacet
facet normal 0.000000 0.000000 -1.000000
outer loop
vertex 0.008624 0.004063 0.000000
vertex 0.008668 0.003855 0.000000
vertex 0.008759 0.003070 0.000000
endloop
endfacet
facet normal 0.000000 0.000000 -1.000000
outer loop
vertex 0.008759 0.003070 0.000000
vertex 0.008763 0.002881 0.000000
vertex 0.008761 0.002691 0.000000
endloop
endfacet
facet normal 0.000000 0.000000 -1.000000
outer loop
vertex 0.008761 0.002691 0.000000
vertex 0.008754 0.002501 0.000000
vertex 0.008742 0.002309 0.000000
endloop
endfacet
facet normal 0.000000 0.000000 -1.000000
outer loop
vertex 0.008742 0.002309 0.000000
vertex 0.008720 0.002125 0.000000
vertex 0.008679 0.001958 0.000000
endloop
endfacet
facet normal 0.000000 0.000000 -1.000000
outer loop
vertex 0.008679 0.001958 0.000000
vertex 0.008622 0.001804 0.000000
vertex 0.008549 0.001661 0.000000
endloop
endfacet
facet normal 0.000000 0.000000 -1.000000
outer loop
vertex 0.008549 0.001661 0.000000
vertex 0.008460 0.001524 0.000000
vertex 0.008238 0.001261 0.000000
endloop
endfacet
facet normal 0.000000 0.000000 -1.000000
outer loop
vertex 0.008238 0.001261 0.000000
vertex 0.008105 0.001128 0.000000
vertex 0.007449 0.000514 0.000000
endloop
endfacet
facet normal 0.000000 0.000000 -1.000000
outer loop
vertex 0.007449 0.000514 0.000000
vertex 0.007271 0.000352 0.000000
vertex 0.007111 0.000227 0.000000
endloop
endfacet
facet normal 0.000000 0.000000 -1.000000
outer loop
vertex 0.007111 0.000227 0.000000
vertex 0.006963 0.000134 0.000000
vertex 0.006825 0.000068 0.000000
endloop
endfacet
facet normal 0.000000 0.000000 -1.000000
outer loop
vertex 0.006825 0.000068 0.000000
vertex 0.006692 0.000027 0.000000
vertex 0.006561 0.000005 0.000000
endloop
endfacet
facet normal 0.000000 0.000000 -1.000000
outer loop
vertex 0.006561 0.000005 0.000000
vertex 0.006428 0.000000 0.000000
vertex 0.006290 0.000007 0.000000
endloop
endfacet
facet normal 0.000000 0.000000 -1.000000
outer loop
vertex 0.005800 0.000062 0.000000
vertex 0.005388 0.000099 0.000000
vertex 0.005179 0.000131 0.000000
endloop
endfacet
facet normal 0.000000 0.000000 -1.000000
outer loop
vertex 0.006561 0.000005 0.000000
vertex 0.006290 0.000007 0.000000
vertex 0.005800 0.000062 0.000000
endloop
endfacet
facet normal 0.000000 0.000000 -1.000000
outer loop
vertex 0.007111 0.000227 0.000000
vertex 0.006825 0.000068 0.000000
vertex 0.006561 0.000005 0.000000
endloop
endfacet
facet normal 0.000000 0.000000 -1.000000
outer loop
vertex 0.008238 0.001261 0.000000
vertex 0.007449 0.000514 0.000000
vertex 0.007111 0.000227 0.000000
endloop
endfacet
facet normal 0.000000 0.000000 -1.000000
outer loop
vertex 0.008679 0.001958 0.000000
vertex 0.008549 0.001661 0.000000
vertex 0.008238 0.001261 0.000000
endloop
endfacet
facet normal 0.000000 0.000000 -1.000000
outer loop
vertex 0.008761 0.002691 0.000000
vertex 0.008742 0.002309 0.000000
vertex 0.008679 0.001958 0.000000
endloop
endfacet
facet normal 0.000000 0.000000 -1.000000
outer loop
vertex 0.008624 0.004063 0.000000
vertex 0.008759 0.003070 0.000000
vertex 0.008761 0.002691 0.000000
endloop
endfacet
facet normal 0.000000 0.000000 -1.000000
outer loop
vertex 0.008349 0.004961 0.000000
vertex 0.008503 0.004500 0.000000
vertex 0.008624 0.004063 0.000000
endloop
endfacet
facet normal 0.000000 0.000000 -1.000000
outer loop
vertex 0.007911 0.006118 0.000000
vertex 0.008148 0.005581 0.000000
vertex 0.008349 0.004961 0.000000
endloop
endfacet
facet normal 0.000000 0.000000 -1.000000
outer loop
vertex 0.007349 0.006755 0.000000
vertex 0.007679 0.006445 0.000000
vertex 0.007911 0.006118 0.000000
endloop
endfacet
facet normal 0.000000 0.000000 -1.000000
outer loop
vertex 0.006208 0.007503 0.000000
vertex 0.006674 0.007210 0.000000
vertex 0.007349 0.006755 0.000000
endloop
endfacet
facet normal 0.000000 0.000000 -1.000000
outer loop
vertex 0.005083 0.008120 0.000000
vertex 0.005747 0.007775 0.000000
vertex 0.006208 0.007503 0.000000
endloop
endfacet
facet normal 0.000000 0.000000 -1.000000
outer loop
vertex 0.003265 0.008695 0.000000
vertex 0.003527 0.008645 0.000000
vertex 0.005083 0.008120 0.000000
endloop
endfacet
facet normal 0.000000 0.000000 -1.000000
outer loop
vertex 0.003011 0.008706 0.000000
vertex 0.003137 0.008706 0.000000
vertex 0.003265 0.008695 0.000000
endloop
endfacet
facet normal 0.000000 0.000000 -1.000000
outer loop
vertex 0.002755 0.008666 0.000000
vertex 0.002884 0.008693 0.000000
vertex 0.003011 0.008706 0.000000
endloop
endfacet
facet normal 0.000000 0.000000 -1.000000
outer loop
vertex 0.002110 0.008500 0.000000
vertex 0.002237 0.008534 0.000000
vertex 0.002755 0.008666 0.000000
endloop
endfacet
facet normal 0.000000 0.000000 -1.000000
outer loop
vertex 0.001859 0.008426 0.000000
vertex 0.001984 0.008464 0.000000
vertex 0.002110 0.008500 0.000000
endloop
endfacet
facet normal 0.000000 0.000000 -1.000000
outer loop
vertex 0.001617 0.008341 0.000000
vertex 0.001737 0.008386 0.000000
vertex 0.001859 0.008426 0.000000
endloop
endfacet
facet normal 0.000000 0.000000 -1.000000
outer loop
vertex 0.001384 0.008239 0.000000
vertex 0.001499 0.008293 0.000000
vertex 0.001617 0.008341 0.000000
endloop
endfacet
facet normal 0.000000 0.000000 -1.000000
outer loop
vertex 0.001165 0.008123 0.000000
vertex 0.001384 0.008239 0.000000
vertex 0.001617 0.008341 0.000000
endloop
endfacet
facet normal 0.000000 0.000000 -1.000000
outer loop
vertex 0.001617 0.008341 0.000000
vertex 0.001859 0.008426 0.000000
vertex 0.002110 0.008500 0.000000
endloop
endfacet
facet normal 0.000000 0.000000 -1.000000
outer loop
vertex 0.002110 0.008500 0.000000
vertex 0.002755 0.008666 0.000000
vertex 0.003011 0.008706 0.000000
endloop
endfacet
facet normal 0.000000 0.000000 -1.000000
outer loop
vertex 0.003011 0.008706 0.000000
vertex 0.003265 0.008695 0.000000
vertex 0.005083 0.008120 0.000000
endloop
endfacet
facet normal 0.000000 0.000000 -1.000000
outer loop
vertex 0.005083 0.008120 0.000000
vertex 0.006208 0.007503 0.000000
vertex 0.007349 0.006755 0.000000
endloop
endfacet
facet normal 0.000000 0.000000 -1.000000
outer loop
vertex 0.007349 0.006755 0.000000
vertex 0.007911 0.006118 0.000000
vertex 0.008349 0.004961 0.000000
endloop
endfacet
facet normal 0.000000 0.000000 -1.000000
outer loop
vertex 0.008349 0.004961 0.000000
vertex 0.008624 0.004063 0.000000
vertex 0.008761 0.002691 0.000000
endloop
endfacet
facet normal 0.000000 0.000000 -1.000000
outer loop
vertex 0.008761 0.002691 0.000000
vertex 0.008679 0.001958 0.000000
vertex 0.008238 0.001261 0.000000
endloop
endfacet
facet normal 0.000000 0.000000 -1.000000
outer loop
vertex 0.008238 0.001261 0.000000
vertex 0.007111 0.000227 0.000000
vertex 0.006561 0.000005 0.000000
endloop
endfacet
facet normal 0.000000 0.000000 -1.000000
outer loop
vertex 0.006561 0.000005 0.000000
vertex 0.005800 0.000062 0.000000
vertex 0.005179 0.000131 0.000000
endloop
endfacet
facet normal 0.000000 0.000000 -1.000000
outer loop
vertex 0.005179 0.000131 0.000000
vertex 0.004763 0.000230 0.000000
vertex 0.003943 0.000544 0.000000
endloop
endfacet
facet normal 0.000000 0.000000 -1.000000
outer loop
vertex 0.003943 0.000544 0.000000
vertex 0.003740 0.000643 0.000000
vertex 0.003537 0.000748 0.000000
endloop
endfacet
facet normal 0.000000 0.000000 -1.000000
outer loop
vertex 0.003537 0.000748 0.000000
vertex 0.003334 0.000859 0.000000
vertex 0.003132 0.000975 0.000000
endloop
endfacet
facet normal 0.000000 0.000000 -1.000000
outer loop
vertex 0.003132 0.000975 0.000000
vertex 0.002769 0.001221 0.000000
vertex 0.002615 0.001351 0.000000
endloop
endfacet
facet normal 0.000000 0.000000 -1.000000
outer loop
vertex 0.002615 0.001351 0.000000
vertex 0.002346 0.001627 0.000000
vertex 0.002226 0.001775 0.000000
endloop
endfacet
facet normal 0.000000 0.000000 -1.000000
outer loop
vertex 0.002226 0.001775 0.000000
vertex 0.002111 0.001931 0.000000
vertex 0.001999 0.002095 0.000000
endloop
endfacet
facet normal 0.000000 0.000000 -1.000000
outer loop
vertex 0.001999 0.002095 0.000000
vertex 0.001519 0.002843 0.000000
vertex 0.001378 0.003069 0.000000
endloop
endfacet
facet normal 0.000000 0.000000 -1.000000
outer loop
vertex 0.001378 0.003069 0.000000
vertex 0.001231 0.003327 0.000000
vertex 0.001079 0.003608 0.000000
endloop
endfacet
facet normal 0.000000 0.000000 -1.000000
outer loop
vertex 0.001079 0.003608 0.000000
vertex 0.000926 0.003907 0.000000
vertex 0.000629 0.004527 0.000000
endloop
endfacet
facet normal 0.000000 0.000000 -1.000000
outer loop
vertex 0.000629 0.004527 0.000000
vertex 0.000360 0.005129 0.000000
vertex 0.000143 0.005656 0.000000
endloop
endfacet
facet normal 0.000000 0.000000 -1.000000
outer loop
vertex 0.000143 0.005656 0.000000
vertex 0.000061 0.005874 0.000000
vertex 0.000000 0.006051 0.000000
endloop
endfacet
facet normal 0.000000 0.000000 -1.000000
outer loop
vertex 0.000000 0.006051 0.000000
vertex 0.000009 0.006133 0.000000
vertex 0.000037 0.006347 0.000000
endloop
endfacet
facet normal 0.000000 0.000000 -1.000000
outer loop
vertex 0.000037 0.006347 0.000000
vertex 0.000082 0.006642 0.000000
vertex 0.000110 0.006804 0.000000
endloop
endfacet
facet normal 0.000000 0.000000 -1.000000
outer loop
vertex 0.000110 0.006804 0.000000
vertex 0.000142 0.006968 0.000000
vertex 0.000260 0.007409 0.000000
endloop
endfacet
facet normal 0.000000 0.000000 -1.000000
outer loop
vertex 0.000260 0.007409 0.000000
vertex 0.000306 0.007518 0.000000
vertex 0.000357 0.007606 0.000000
endloop
endfacet
facet normal 0.000000 0.000000 -1.000000
outer loop
vertex 0.000357 0.007606 0.000000
vertex 0.000414 0.007682 0.000000
vertex 0.000476 0.007748 0.000000
endloop
endfacet
facet normal 0.000000 0.000000 -1.000000
outer loop
vertex 0.000476 0.007748 0.000000
vertex 0.000544 0.007804 0.000000
vertex 0.000618 0.007854 0.000000
endloop
endfacet
facet normal 0.000000 0.000000 -1.000000
outer loop
vertex 0.000618 0.007854 0.000000
vertex 0.000696 0.007899 0.000000
vertex 0.000780 0.007942 0.000000
endloop
endfacet
facet normal 0.000000 0.000000 -1.000000
outer loop
vertex 0.001062 0.008072 0.000000
vertex 0.001165 0.008123 0.000000
vertex 0.001617 0.008341 0.000000
endloop
endfacet
facet normal 0.000000 0.000000 -1.000000
outer loop
vertex 0.000618 0.007854 0.000000
vertex 0.000780 0.007942 0.000000
vertex 0.001062 0.008072 0.000000
endloop
endfacet
facet normal 0.000000 0.000000 -1.000000
outer loop
vertex 0.000357 0.007606 0.000000
vertex 0.000476 0.007748 0.000000
vertex 0.000618 0.007854 0.000000
endloop
endfacet
facet normal 0.000000 0.000000 -1.000000
outer loop
vertex 0.000110 0.006804 0.000000
vertex 0.000260 0.007409 0.000000
vertex 0.000357 0.007606 0.000000
endloop
endfacet
facet normal 0.000000 0.000000 -1.000000
outer loop
vertex 0.000000 0.006051 0.000000
vertex 0.000037 0.006347 0.000000
vertex 0.000110 0.006804 0.000000
endloop
endfacet
facet normal 0.000000 0.000000 -1.000000
outer loop
vertex 0.000629 0.004527 0.000000
vertex 0.000143 0.005656 0.000000
vertex 0.000000 0.006051 0.000000
endloop
endfacet
facet normal 0.000000 0.000000 -1.000000
outer loop
vertex 0.001378 0.003069 0.000000
vertex 0.001079 0.003608 0.000000
vertex 0.000629 0.004527 0.000000
endloop
endfacet
facet normal 0.000000 0.000000 -1.000000
outer loop
vertex 0.002226 0.001775 0.000000
vertex 0.001999 0.002095 0.000000
vertex 0.001378 0.003069 0.000000
endloop
endfacet
facet normal 0.000000 0.000000 -1.000000
outer loop
vertex 0.003132 0.000975 0.000000
vertex 0.002615 0.001351 0.000000
vertex 0.002226 0.001775 0.000000
endloop
endfacet
facet normal 0.000000 0.000000 -1.000000
outer loop
vertex 0.003943 0.000544 0.000000
vertex 0.003537 0.000748 0.000000
vertex 0.003132 0.000975 0.000000
endloop
endfacet
facet normal 0.000000 0.000000 -1.000000
outer loop
vertex 0.006561 0.000005 0.000000
vertex 0.005179 0.000131 0.000000
vertex 0.003943 0.000544 0.000000
endloop
endfacet
facet normal 0.000000 0.000000 -1.000000
outer loop
vertex 0.008761 0.002691 0.000000
vertex 0.008238 0.001261 0.000000
vertex 0.006561 0.000005 0.000000
endloop
endfacet
facet normal 0.000000 0.000000 -1.000000
outer loop
vertex 0.007349 0.006755 0.000000
vertex 0.008349 0.004961 0.000000
vertex 0.008761 0.002691 0.000000
endloop
endfacet
facet normal 0.000000 0.000000 -1.000000
outer loop
vertex 0.003011 0.008706 0.000000
vertex 0.005083 0.008120 0.000000
vertex 0.007349 0.006755 0.000000
endloop
endfacet
facet normal 0.000000 0.000000 -1.000000
outer loop
vertex 0.001617 0.008341 0.000000
vertex 0.002110 0.008500 0.000000
vertex 0.003011 0.008706 0.000000
endloop
endfacet
facet normal 0.000000 0.000000 -1.000000
outer loop
vertex 0.000618 0.007854 0.000000
vertex 0.001062 0.008072 0.000000
vertex 0.001617 0.008341 0.000000
endloop
endfacet
facet normal 0.000000 0.000000 -1.000000
outer loop
vertex 0.000110 0.006804 0.000000
vertex 0.000357 0.007606 0.000000
vertex 0.000618 0.007854 0.000000
endloop
endfacet
facet normal 0.000000 0.000000 -1.000000
outer loop
vertex 0.000629 0.004527 0.000000
vertex 0.000000 0.006051 0.000000
vertex 0.000110 0.006804 0.000000
endloop
endfacet
facet normal 0.000000 0.000000 -1.000000
outer loop
vertex 0.002226 0.001775 0.000000
vertex 0.001378 0.003069 0.000000
vertex 0.000629 0.004527 0.000000
endloop
endfacet
facet normal 0.000000 0.000000 -1.000000
outer loop
vertex 0.003943 0.000544 0.000000
vertex 0.003132 0.000975 0.000000
vertex 0.002226 0.001775 0.000000
endloop
endfacet
facet normal 0.000000 0.000000 -1.000000
outer loop
vertex 0.008761 0.002691 0.000000
vertex 0.006561 0.000005 0.000000
vertex 0.003943 0.000544 0.000000
endloop
endfacet
facet normal 0.000000 0.000000 -1.000000
outer loop
vertex 0.003011 0.008706 0.000000
vertex 0.007349 0.006755 0.000000
vertex 0.008761 0.002691 0.000000
endloop
endfacet
facet normal 0.000000 0.000000 -1.000000
outer loop
vertex 0.000618 0.007854 0.000000
vertex 0.001617 0.008341 0.000000
vertex 0.003011 0.008706 0.000000
endloop
endfacet
facet normal 0.000000 0.000000 -1.000000
outer loop
vertex 0.000629 0.004527 0.000000
vertex 0.000110 0.006804 0.000000
vertex 0.000618 0.007854 0.000000
endloop
endfacet
facet normal 0.000000 0.000000 -1.000000
outer loop
vertex 0.003943 0.000544 0.000000
vertex 0.002226 0.001775 0.000000
vertex 0.000629 0.004527 0.000000
endloop
endfacet
facet normal 0.000000 0.000000 -1.000000
outer loop
vertex 0.003011 0.008706 0.000000
vertex 0.008761 0.002691 0.000000
vertex 0.003943 0.000544 0.000000
endloop
endfacet
facet normal 0.000000 0.000000 -1.000000
outer loop
vertex 0.000629 0.004527 0.000000
vertex 0.000618 0.007854 0.000000
vertex 0.003011 0.008706 0.000000
endloop
endfacet
facet normal 0.000000 0.000000 -1.000000
outer loop
vertex 0.003943 0.000544 0.000000
vertex 0.000629 0.004527 0.000000
vertex 0.003011 0.008706 0.000000
endloop
endfacet
facet normal 0.000000 0.000000 1.000000
outer loop
vertex 0.000082 0.006642 0.000000
vertex 0.000037 0.006347 0.000000
vertex 0.000009 0.006133 0.000000
endloop
endfacet
facet normal -0.993473 0.114072 0.000000
outer loop
vertex 0.000009 0.006133 0.000000
vertex 0.000000 0.006051 0.000000
vertex 0.000000 0.006051 0.150000
endloop
endfacet
facet normal -0.993473 0.114072 0.000000
outer loop
vertex 0.000009 0.006133 0.000000
vertex 0.000000 0.006051 0.150000
vertex 0.000009 0.006133 0.150000
endloop
endfacet
facet normal 0.000000 0.000000 1.000000
outer loop
vertex 0.000110 0.006804 0.000000
vertex 0.000082 0.006642 0.000000
vertex 0.000009 0.006133 0.000000
endloop
endfacet
facet normal -0.981348 0.192240 0.000000
outer loop
vertex 0.000142 0.006968 0.150000
vertex 0.000142 0.006968 0.000000
vertex 0.000110 0.006804 0.000000
endloop
endfacet
facet normal -0.981348 0.192240 0.000000
outer loop
vertex 0.000110 0.006804 0.150000
vertex 0.000142 0.006968 0.150000
vertex 0.000110 0.006804 0.000000
endloop
endfacet
facet normal -0.988965 0.148147 0.000000
outer loop
vertex 0.000110 0.006804 0.000000
vertex 0.000009 0.006133 0.000000
vertex 0.000009 0.006133 0.150000
endloop
endfacet
facet normal -0.991759 0.128117 -0.000091
outer loop
vertex 0.000110 0.006804 0.000000
vertex 0.000009 0.006133 0.150000
vertex 0.000037 0.006347 0.150000
endloop
endfacet
facet normal -0.985138 0.171764 0.000000
outer loop
vertex 0.000082 0.006642 0.150000
vertex 0.000110 0.006804 0.150000
vertex 0.000110 0.006804 0.000000
endloop
endfacet
facet normal -0.988763 0.149493 -0.000025
outer loop
vertex 0.000037 0.006347 0.150000
vertex 0.000082 0.006642 0.150000
vertex 0.000110 0.006804 0.000000
endloop
endfacet
facet normal -0.000526 0.000000 1.000000
outer loop
vertex 0.008238 0.001261 0.150000
vertex 0.008460 0.001524 0.150000
vertex 0.008549 0.001661 0.150000
endloop
endfacet
facet normal 0.000000 0.000000 1.000000
outer loop
vertex 0.008549 0.001661 0.150000
vertex 0.008622 0.001804 0.150000
vertex 0.008679 0.001958 0.150000
endloop
endfacet
facet normal 0.000000 0.000000 1.000000
outer loop
vertex 0.008679 0.001958 0.150000
vertex 0.008720 0.002125 0.150000
vertex 0.008742 0.002309 0.150000
endloop
endfacet
facet normal 0.000000 0.000000 1.000000
outer loop
vertex 0.008742 0.002309 0.150000
vertex 0.008754 0.002501 0.150000
vertex 0.008761 0.002691 0.150000
endloop
endfacet
facet normal 0.003216 0.000000 0.999995
outer loop
vertex 0.008761 0.002691 0.150000
vertex 0.008763 0.002881 0.150000
vertex 0.008759 0.003070 0.150000
endloop
endfacet
facet normal 0.000451 0.000000 1.000000
outer loop
vertex 0.008759 0.003070 0.150000
vertex 0.008668 0.003855 0.150000
vertex 0.008624 0.004063 0.150000
endloop
endfacet
facet normal 0.000000 0.000000 1.000000
outer loop
vertex 0.008624 0.004063 0.150000
vertex 0.008569 0.004277 0.150000
vertex 0.008503 0.004500 0.150000
endloop
endfacet
facet normal 0.027457 0.000000 0.999623
outer loop
vertex 0.008503 0.004500 0.150000
vertex 0.008426 0.004732 0.150000
vertex 0.008349 0.004961 0.150000
endloop
endfacet
facet normal 0.000000 0.000000 1.000000
outer loop
vertex 0.008349 0.004961 0.150000
vertex 0.008214 0.005385 0.150000
vertex 0.008148 0.005581 0.150000
endloop
endfacet
facet normal 0.000000 0.000000 1.000000
outer loop
vertex 0.008148 0.005581 0.150000
vertex 0.008079 0.005768 0.150000
vertex 0.007911 0.006118 0.150000
endloop
endfacet
facet normal 0.000935 0.000000 1.000000
outer loop
vertex 0.007911 0.006118 0.150000
vertex 0.007805 0.006284 0.150000
vertex 0.007679 0.006445 0.150000
endloop
endfacet
facet normal 0.000744 0.000000 1.000000
outer loop
vertex 0.007679 0.006445 0.150000
vertex 0.007528 0.006601 0.150000
vertex 0.007349 0.006755 0.150000
endloop
endfacet
facet normal 0.000000 0.000000 1.000000
outer loop
vertex 0.007349 0.006755 0.150000
vertex 0.007137 0.006907 0.150000
vertex 0.006674 0.007210 0.150000
endloop
endfacet
facet normal 0.004329 0.000000 0.999991
outer loop
vertex 0.006674 0.007210 0.150000
vertex 0.006441 0.007358 0.150000
vertex 0.006208 0.007503 0.150000
endloop
endfacet
facet normal 0.000000 0.000000 1.000000
outer loop
vertex 0.006208 0.007503 0.150000
vertex 0.005976 0.007642 0.150000
vertex 0.005747 0.007775 0.150000
endloop
endfacet
facet normal 0.000000 0.000000 1.000000
outer loop
vertex 0.005747 0.007775 0.150000
vertex 0.005299 0.008015 0.150000
vertex 0.005083 0.008120 0.150000
endloop
endfacet
facet normal 0.000000 0.000000 1.000000
outer loop
vertex 0.005083 0.008120 0.150000
vertex 0.004873 0.008212 0.150000
vertex 0.003527 0.008645 0.150000
endloop
endfacet
facet normal -0.000254 0.000000 1.000000
outer loop
vertex 0.003527 0.008645 0.150000
vertex 0.003265 0.008695 0.150000
vertex 0.003137 0.008706 0.150000
endloop
endfacet
facet normal 0.000000 0.000000 1.000000
outer loop
vertex 0.003137 0.008706 0.150000
vertex 0.003011 0.008706 0.150000
vertex 0.002884 0.008693 0.150000
endloop
endfacet
facet normal 0.000000 0.000000 1.000000
outer loop
vertex 0.002884 0.008693 0.150000
vertex 0.002755 0.008666 0.150000
vertex 0.002237 0.008534 0.150000
endloop
endfacet
facet normal 0.000000 0.000000 1.000000
outer loop
vertex 0.002237 0.008534 0.150000
vertex 0.002110 0.008500 0.150000
vertex 0.001984 0.008464 0.150000
endloop
endfacet
facet normal 0.002070 0.000000 0.999998
outer loop
vertex 0.001984 0.008464 0.150000
vertex 0.001859 0.008426 0.150000
vertex 0.001737 0.008386 0.150000
endloop
endfacet
facet normal 0.000000 0.000000 1.000000
outer loop
vertex 0.001737 0.008386 0.150000
vertex 0.001617 0.008341 0.150000
vertex 0.001499 0.008293 0.150000
endloop
endfacet
facet normal 0.000000 0.000000 1.000000
outer loop
vertex 0.001499 0.008293 0.150000
vertex 0.001384 0.008239 0.150000
vertex 0.001165 0.008123 0.150000
endloop
endfacet
facet normal 0.002646 0.000000 0.999997
outer loop
vertex 0.001062 0.008072 0.150000
vertex 0.000780 0.007942 0.150000
vertex 0.000696 0.007899 0.150000
endloop
endfacet
facet normal -0.000389 0.000000 1.000000
outer loop
vertex 0.001737 0.008386 0.150000
vertex 0.001499 0.008293 0.150000
vertex 0.001165 0.008123 0.150000
endloop
endfacet
facet normal 0.000000 0.000000 1.000000
outer loop
vertex 0.001062 0.008072 0.150000
vertex 0.000696 0.007899 0.150000
vertex 0.000618 0.007854 0.150000
endloop
endfacet
facet normal 0.000485 0.000000 1.000000
outer loop
vertex 0.001737 0.008386 0.150000
vertex 0.001165 0.008123 0.150000
vertex 0.001062 0.008072 0.150000
endloop
endfacet
facet normal 0.000000 0.000000 1.000000
outer loop
vertex 0.002237 0.008534 0.150000
vertex 0.001984 0.008464 0.150000
vertex 0.001737 0.008386 0.150000
endloop
endfacet
facet normal 0.000116 0.000000 1.000000
outer loop
vertex 0.003137 0.008706 0.150000
vertex 0.002884 0.008693 0.150000
vertex 0.002237 0.008534 0.150000
endloop
endfacet
facet normal 0.000000 0.000000 1.000000
outer loop
vertex 0.005083 0.008120 0.150000
vertex 0.003527 0.008645 0.150000
vertex 0.003137 0.008706 0.150000
endloop
endfacet
facet normal -0.000335 0.000000 1.000000
outer loop
vertex 0.006208 0.007503 0.150000
vertex 0.005747 0.007775 0.150000
vertex 0.005083 0.008120 0.150000
endloop
endfacet
facet normal 0.000511 0.000000 1.000000
outer loop
vertex 0.007349 0.006755 0.150000
vertex 0.006674 0.007210 0.150000
vertex 0.006208 0.007503 0.150000
endloop
endfacet
facet normal 0.000000 0.000000 1.000000
outer loop
vertex 0.007911 0.006118 0.150000
vertex 0.007679 0.006445 0.150000
vertex 0.007349 0.006755 0.150000
endloop
endfacet
facet normal 0.000000 0.000000 1.000000
outer loop
vertex 0.008349 0.004961 0.150000
vertex 0.008148 0.005581 0.150000
vertex 0.007911 0.006118 0.150000
endloop
endfacet
facet normal -0.001192 0.000000 0.999999
outer loop
vertex 0.008624 0.004063 0.150000
vertex 0.008503 0.004500 0.150000
vertex 0.008349 0.004961 0.150000
endloop
endfacet
facet normal 0.000000 0.000000 1.000000
outer loop
vertex 0.008761 0.002691 0.150000
vertex 0.008759 0.003070 0.150000
vertex 0.008624 0.004063 0.150000
endloop
endfacet
facet normal 0.000000 0.000000 1.000000
outer loop
vertex 0.008679 0.001958 0.150000
vertex 0.008742 0.002309 0.150000
vertex 0.008761 0.002691 0.150000
endloop
endfacet
facet normal 0.000000 0.000000 1.000000
outer loop
vertex 0.008238 0.001261 0.150000
vertex 0.008549 0.001661 0.150000
vertex 0.008679 0.001958 0.150000
endloop
endfacet
facet normal 0.001821 0.000000 0.999998
outer loop
vertex 0.007449 0.000514 0.150000
vertex 0.008105 0.001128 0.150000
vertex 0.008238 0.001261 0.150000
endloop
endfacet
facet normal 0.000000 0.000000 1.000000
outer loop
vertex 0.007111 0.000227 0.150000
vertex 0.007271 0.000352 0.150000
vertex 0.007449 0.000514 0.150000
endloop
endfacet
facet normal -0.000560 0.000000 1.000000
outer loop
vertex 0.006825 0.000068 0.150000
vertex 0.006963 0.000134 0.150000
vertex 0.007111 0.000227 0.150000
endloop
endfacet
facet normal 0.000000 0.000000 1.000000
outer loop
vertex 0.006561 0.000005 0.150000
vertex 0.006692 0.000027 0.150000
vertex 0.006825 0.000068 0.150000
endloop
endfacet
facet normal 0.000000 0.000000 1.000000
outer loop
vertex 0.006290 0.000007 0.150000
vertex 0.006428 0.000000 0.150000
vertex 0.006561 0.000005 0.150000
endloop
endfacet
facet normal 0.000000 0.000000 1.000000
outer loop
vertex 0.005179 0.000131 0.150000
vertex 0.005388 0.000099 0.150000
vertex 0.005800 0.000062 0.150000
endloop
endfacet
facet normal -0.000016 0.000000 1.000000
outer loop
vertex 0.005800 0.000062 0.150000
vertex 0.006290 0.000007 0.150000
vertex 0.006561 0.000005 0.150000
endloop
endfacet
facet normal 0.000152 0.000000 1.000000
outer loop
vertex 0.006561 0.000005 0.150000
vertex 0.006825 0.000068 0.150000
vertex 0.007111 0.000227 0.150000
endloop
endfacet
facet normal 0.000000 0.000000 1.000000
outer loop
vertex 0.007111 0.000227 0.150000
vertex 0.007449 0.000514 0.150000
vertex 0.008238 0.001261 0.150000
endloop
endfacet
facet normal 0.000054 0.000000 1.000000
outer loop
vertex 0.008238 0.001261 0.150000
vertex 0.008679 0.001958 0.150000
vertex 0.008761 0.002691 0.150000
endloop
endfacet
facet normal 0.000000 0.000000 1.000000
outer loop
vertex 0.008761 0.002691 0.150000
vertex 0.008624 0.004063 0.150000
vertex 0.008349 0.004961 0.150000
endloop
endfacet
facet normal -0.000039 0.000000 1.000000
outer loop
vertex 0.008349 0.004961 0.150000
vertex 0.007911 0.006118 0.150000
vertex 0.007349 0.006755 0.150000
endloop
endfacet
facet normal 0.000000 0.000000 1.000000
outer loop
vertex 0.007349 0.006755 0.150000
vertex 0.006208 0.007503 0.150000
vertex 0.005083 0.008120 0.150000
endloop
endfacet
facet normal 0.000008 0.000000 1.000000
outer loop
vertex 0.005083 0.008120 0.150000
vertex 0.003137 0.008706 0.150000
vertex 0.002237 0.008534 0.150000
endloop
endfacet
facet normal 0.000128 0.000000 1.000000
outer loop
vertex 0.002237 0.008534 0.150000
vertex 0.001737 0.008386 0.150000
vertex 0.001062 0.008072 0.150000
endloop
endfacet
facet normal 0.000147 0.000000 1.000000
outer loop
vertex 0.001062 0.008072 0.150000
vertex 0.000618 0.007854 0.150000
vertex 0.000544 0.007804 0.150000
endloop
endfacet
facet normal 0.000000 0.000000 1.000000
outer loop
vertex 0.000544 0.007804 0.150000
vertex 0.000476 0.007748 0.150000
vertex 0.000414 0.007682 0.150000
endloop
endfacet
facet normal 0.001573 0.000000 0.999999
outer loop
vertex 0.000414 0.007682 0.150000
vertex 0.000357 0.007606 0.150000
vertex 0.000306 0.007518 0.150000
endloop
endfacet
facet normal -0.001950 0.000000 0.999998
outer loop
vertex 0.000306 0.007518 0.150000
vertex 0.000260 0.007409 0.150000
vertex 0.000142 0.006968 0.150000
endloop
endfacet
facet normal -0.006330 0.000000 0.999980
outer loop
vertex 0.000142 0.006968 0.150000
vertex 0.000110 0.006804 0.150000
vertex 0.000082 0.006642 0.150000
endloop
endfacet
facet normal 0.000000 0.000000 1.000000
outer loop
vertex 0.000082 0.006642 0.150000
vertex 0.000037 0.006347 0.150000
vertex 0.000009 0.006133 0.150000
endloop
endfacet
facet normal 0.000000 0.000000 1.000000
outer loop
vertex 0.000009 0.006133 0.150000
vertex 0.000000 0.006051 0.150000
vertex 0.000061 0.005874 0.150000
endloop
endfacet
facet normal 0.000000 0.000000 1.000000
outer loop
vertex 0.000061 0.005874 0.150000
vertex 0.000143 0.005656 0.150000
vertex 0.000360 0.005129 0.150000
endloop
endfacet
facet normal 0.000000 0.000000 1.000000
outer loop
vertex 0.000360 0.005129 0.150000
vertex 0.000629 0.004527 0.150000
vertex 0.000926 0.003907 0.150000
endloop
endfacet
facet normal 0.000000 0.000000 1.000000
outer loop
vertex 0.000926 0.003907 0.150000
vertex 0.001079 0.003608 0.150000
vertex 0.001231 0.003327 0.150000
endloop
endfacet
facet normal 0.000000 0.000000 1.000000
outer loop
vertex 0.001231 0.003327 0.150000
vertex 0.001378 0.003069 0.150000
vertex 0.001519 0.002843 0.150000
endloop
endfacet
facet normal -0.003471 0.000000 0.999994
outer loop
vertex 0.001519 0.002843 0.150000
vertex 0.001999 0.002095 0.150000
vertex 0.002111 0.001931 0.150000
endloop
endfacet
facet normal 0.000000 0.000000 1.000000
outer loop
vertex 0.002111 0.001931 0.150000
vertex 0.002226 0.001775 0.150000
vertex 0.002346 0.001627 0.150000
endloop
endfacet
facet normal 0.000000 0.000000 1.000000
outer loop
vertex 0.002346 0.001627 0.150000
vertex 0.002615 0.001351 0.150000
vertex 0.002769 0.001221 0.150000
endloop
endfacet
facet normal 0.000486 0.000000 1.000000
outer loop
vertex 0.002769 0.001221 0.150000
vertex 0.003132 0.000975 0.150000
vertex 0.003334 0.000859 0.150000
endloop
endfacet
facet normal 0.000000 0.000000 1.000000
outer loop
vertex 0.003334 0.000859 0.150000
vertex 0.003537 0.000748 0.150000
vertex 0.003740 0.000643 0.150000
endloop
endfacet
facet normal -0.000427 0.000000 1.000000
outer loop
vertex 0.003740 0.000643 0.150000
vertex 0.003943 0.000544 0.150000
vertex 0.004763 0.000230 0.150000
endloop
endfacet
facet normal -0.000111 0.000000 1.000000
outer loop
vertex 0.004763 0.000230 0.150000
vertex 0.005179 0.000131 0.150000
vertex 0.005800 0.000062 0.150000
endloop
endfacet
facet normal 0.000000 0.000000 1.000000
outer loop
vertex 0.005800 0.000062 0.150000
vertex 0.006561 0.000005 0.150000
vertex 0.007111 0.000227 0.150000
endloop
endfacet
facet normal -0.000027 0.000000 1.000000
outer loop
vertex 0.007111 0.000227 0.150000
vertex 0.008238 0.001261 0.150000
vertex 0.008761 0.002691 0.150000
endloop
endfacet
facet normal 0.000038 0.000000 1.000000
outer loop
vertex 0.008761 0.002691 0.150000
vertex 0.008349 0.004961 0.150000
vertex 0.007349 0.006755 0.150000
endloop
endfacet
facet normal -0.000010 0.000000 1.000000
outer loop
vertex 0.007349 0.006755 0.150000
vertex 0.005083 0.008120 0.150000
vertex 0.002237 0.008534 0.150000
endloop
endfacet
facet normal -0.000096 0.000000 1.000000
outer loop
vertex 0.002237 0.008534 0.150000
vertex 0.001062 0.008072 0.150000
vertex 0.000544 0.007804 0.150000
endloop
endfacet
facet normal 0.000000 0.000000 1.000000
outer loop
vertex 0.000544 0.007804 0.150000
vertex 0.000414 0.007682 0.150000
vertex 0.000306 0.007518 0.150000
endloop
endfacet
facet normal 0.000357 0.000000 1.000000
outer loop
vertex 0.000306 0.007518 0.150000
vertex 0.000142 0.006968 0.150000
vertex 0.000082 0.006642 0.150000
endloop
endfacet
facet normal 0.000000 0.000000 1.000000
outer loop
vertex 0.000082 0.006642 0.150000
vertex 0.000009 0.006133 0.150000
vertex 0.000061 0.005874 0.150000
endloop
endfacet
facet normal -0.000519 0.000000 1.000000
outer loop
vertex 0.000061 0.005874 0.150000
vertex 0.000360 0.005129 0.150000
vertex 0.000926 0.003907 0.150000
endloop
endfacet
facet normal 0.000722 0.000000 1.000000
outer loop
vertex 0.000926 0.003907 0.150000
vertex 0.001231 0.003327 0.150000
vertex 0.001519 0.002843 0.150000
endloop
endfacet
facet normal 0.000850 0.000000 1.000000
outer loop
vertex 0.001519 0.002843 0.150000
vertex 0.002111 0.001931 0.150000
vertex 0.002346 0.001627 0.150000
endloop
endfacet
facet normal -0.000095 0.000000 1.000000
outer loop
vertex 0.002346 0.001627 0.150000
vertex 0.002769 0.001221 0.150000
vertex 0.003334 0.000859 0.150000
endloop
endfacet
facet normal 0.000269 0.000000 1.000000
outer loop
vertex 0.003334 0.000859 0.150000
vertex 0.003740 0.000643 0.150000
vertex 0.004763 0.000230 0.150000
endloop
endfacet
facet normal 0.000000 0.000000 1.000000
outer loop
vertex 0.004763 0.000230 0.150000
vertex 0.005800 0.000062 0.150000
vertex 0.007111 0.000227 0.150000
endloop
endfacet
facet normal 0.000000 0.000000 1.000000
outer loop
vertex 0.007111 0.000227 0.150000
vertex 0.008761 0.002691 0.150000
vertex 0.007349 0.006755 0.150000
endloop
endfacet
facet normal 0.000002 0.000000 1.000000
outer loop
vertex 0.007349 0.006755 0.150000
vertex 0.002237 0.008534 0.150000
vertex 0.000544 0.007804 0.150000
endloop
endfacet
facet normal 0.000000 0.000000 1.000000
outer loop
vertex 0.000544 0.007804 0.150000
vertex 0.000306 0.007518 0.150000
vertex 0.000082 0.006642 0.150000
endloop
endfacet
facet normal 0.000000 0.000000 1.000000
outer loop
vertex 0.000082 0.006642 0.150000
vertex 0.000061 0.005874 0.150000
vertex 0.000926 0.003907 0.150000
endloop
endfacet
facet normal 0.000000 0.000000 1.000000
outer loop
vertex 0.000926 0.003907 0.150000
vertex 0.001519 0.002843 0.150000
vertex 0.002346 0.001627 0.150000
endloop
endfacet
facet normal 0.000000 0.000000 1.000000
outer loop
vertex 0.002346 0.001627 0.150000
vertex 0.003334 0.000859 0.150000
vertex 0.004763 0.000230 0.150000
endloop
endfacet
facet normal 0.000000 0.000000 1.000000
outer loop
vertex 0.004763 0.000230 0.150000
vertex 0.007111 0.000227 0.150000
vertex 0.007349 0.006755 0.150000
endloop
endfacet
facet normal 0.000000 0.000000 1.000000
outer loop
vertex 0.007349 0.006755 0.150000
vertex 0.000544 0.007804 0.150000
vertex 0.000082 0.006642 0.150000
endloop
endfacet
facet normal 0.000000 0.000000 1.000000
outer loop
vertex 0.000082 0.006642 0.150000
vertex 0.000926 0.003907 0.150000
vertex 0.002346 0.001627 0.150000
endloop
endfacet
facet normal 0.000000 0.000000 1.000000
outer loop
vertex 0.002346 0.001627 0.150000
vertex 0.004763 0.000230 0.150000
vertex 0.007349 0.006755 0.150000
endloop
endfacet
facet normal 0.000000 0.000000 1.000000
outer loop
vertex 0.007349 0.006755 0.150000
vertex 0.000082 0.006642 0.150000
vertex 0.002346 0.001627 0.150000
endloop
endfacet
facet normal 0.000000 0.000000 -1.000000
outer loop
vertex 0.001165 0.008123 0.000000
vertex 0.001062 0.008072 0.000000
vertex 0.000780 0.007942 0.000000
endloop
endfacet
facet normal -0.498029 0.867160 0.000000
outer loop
vertex 0.000696 0.007899 0.000000
vertex 0.000618 0.007854 0.000000
vertex 0.000618 0.007854 0.150000
endloop
endfacet
facet normal 0.000000 0.000000 -1.000000
outer loop
vertex 0.001384 0.008239 0.000000
vertex 0.001165 0.008123 0.000000
vertex 0.000780 0.007942 0.000000
endloop
endfacet
facet normal -0.451248 0.892399 0.000032
outer loop
vertex 0.000780 0.007942 0.000000
vertex 0.000696 0.007899 0.000000
vertex 0.000618 0.007854 0.150000
endloop
endfacet
facet normal -0.498030 0.867160 -0.000033
outer loop
vertex 0.000780 0.007942 0.000000
vertex 0.000618 0.007854 0.150000
vertex 0.000696 0.007899 0.150000
endloop
endfacet
facet normal -0.441674 0.897175 0.000007
outer loop
vertex 0.001384 0.008239 0.000000
vertex 0.000780 0.007942 0.000000
vertex 0.000696 0.007899 0.150000
endloop
endfacet
facet normal -0.451248 0.892399 -0.000048
outer loop
vertex 0.001384 0.008239 0.000000
vertex 0.000696 0.007899 0.150000
vertex 0.000780 0.007942 0.150000
endloop
endfacet
facet normal -0.381738 0.924271 0.000000
outer loop
vertex 0.001617 0.008341 0.150000
vertex 0.001617 0.008341 0.000000
vertex 0.001499 0.008293 0.000000
endloop
endfacet
facet normal -0.421939 0.906624 0.000098
outer loop
vertex 0.001499 0.008293 0.000000
vertex 0.001384 0.008239 0.000000
vertex 0.000780 0.007942 0.150000
endloop
endfacet
facet normal -0.419429 0.907788 0.000113
outer loop
vertex 0.001499 0.008293 0.000000
vertex 0.000780 0.007942 0.150000
vertex 0.001062 0.008072 0.150000
endloop
endfacet
facet normal -0.381738 0.924271 0.000000
outer loop
vertex 0.001499 0.008293 0.150000
vertex 0.001617 0.008341 0.150000
vertex 0.001499 0.008293 0.000000
endloop
endfacet
facet normal -0.421939 0.906624 0.000000
outer loop
vertex 0.001384 0.008239 0.150000
vertex 0.001499 0.008293 0.150000
vertex 0.001499 0.008293 0.000000
endloop
endfacet
facet normal -0.441127 0.897444 0.000034
outer loop
vertex 0.001499 0.008293 0.000000
vertex 0.001062 0.008072 0.150000
vertex 0.001165 0.008123 0.150000
endloop
endfacet
facet normal -0.469337 0.883019 -0.000045
outer loop
vertex 0.001165 0.008123 0.150000
vertex 0.001384 0.008239 0.150000
vertex 0.001499 0.008293 0.000000
endloop
endfacet
facet normal -0.776516 -0.630097 0.000000
outer loop
vertex 0.002226 0.001775 0.000000
vertex 0.002346 0.001627 0.000000
vertex 0.002346 0.001627 0.150000
endloop
endfacet
facet normal -0.776517 -0.630096 0.000000
outer loop
vertex 0.002226 0.001775 0.000000
vertex 0.002346 0.001627 0.150000
vertex 0.002226 0.001775 0.150000
endloop
endfacet
facet normal -0.804887 -0.593428 0.000000
outer loop
vertex 0.002111 0.001931 0.000000
vertex 0.002226 0.001775 0.000000
vertex 0.002226 0.001775 0.150000
endloop
endfacet
facet normal -0.804887 -0.593428 0.000000
outer loop
vertex 0.002111 0.001931 0.000000
vertex 0.002226 0.001775 0.150000
vertex 0.002111 0.001931 0.150000
endloop
endfacet
facet normal -0.825000 -0.565132 0.000000
outer loop
vertex 0.001999 0.002095 0.000000
vertex 0.002111 0.001931 0.000000
vertex 0.002111 0.001931 0.150000
endloop
endfacet
facet normal -0.824999 -0.565133 0.000000
outer loop
vertex 0.001999 0.002095 0.000000
vertex 0.002111 0.001931 0.150000
vertex 0.001999 0.002095 0.150000
endloop
endfacet
facet normal -0.849081 -0.528262 0.000000
outer loop
vertex 0.001378 0.003069 0.150000
vertex 0.001378 0.003069 0.000000
vertex 0.001519 0.002843 0.000000
endloop
endfacet
facet normal -0.841416 -0.540388 0.000000
outer loop
vertex 0.001519 0.002843 0.000000
vertex 0.001999 0.002095 0.000000
vertex 0.001999 0.002095 0.150000
endloop
endfacet
facet normal -0.849081 -0.528263 0.000000
outer loop
vertex 0.001519 0.002843 0.150000
vertex 0.001378 0.003069 0.150000
vertex 0.001519 0.002843 0.000000
endloop
endfacet
facet normal -0.841416 -0.540388 0.000000
outer loop
vertex 0.001999 0.002095 0.150000
vertex 0.001519 0.002843 0.150000
vertex 0.001519 0.002843 0.000000
endloop
endfacet
facet normal 0.651526 0.758626 0.000000
outer loop
vertex 0.007528 0.006601 0.150000
vertex 0.007528 0.006601 0.000000
vertex 0.007349 0.006755 0.000000
endloop
endfacet
facet normal 0.651532 0.758621 0.000000
outer loop
vertex 0.007528 0.006601 0.150000
vertex 0.007349 0.006755 0.000000
vertex 0.007349 0.006755 0.150000
endloop
endfacet
facet normal 0.763572 -0.645722 0.000000
outer loop
vertex 0.008238 0.001261 0.150000
vertex 0.008238 0.001261 0.000000
vertex 0.008460 0.001524 0.000000
endloop
endfacet
facet normal 0.763575 -0.645720 0.000000
outer loop
vertex 0.008238 0.001261 0.150000
vertex 0.008460 0.001524 0.000000
vertex 0.008460 0.001524 0.150000
endloop
endfacet
facet normal -0.102686 0.994714 0.000000
outer loop
vertex 0.003011 0.008706 0.150000
vertex 0.003011 0.008706 0.000000
vertex 0.002884 0.008693 0.000000
endloop
endfacet
facet normal -0.102686 0.994714 0.000000
outer loop
vertex 0.003011 0.008706 0.150000
vertex 0.002884 0.008693 0.000000
vertex 0.002884 0.008693 0.150000
endloop
endfacet
facet normal 0.000000 0.000000 1.000000
outer loop
vertex 0.005800 0.000062 0.000000
vertex 0.006290 0.000007 0.000000
vertex 0.006428 0.000000 0.000000
endloop
endfacet
facet normal -0.050547 -0.998722 0.000000
outer loop
vertex 0.006428 0.000000 0.000000
vertex 0.006428 0.000000 0.150000
vertex 0.006290 0.000007 0.150000
endloop
endfacet
facet normal -0.112091 -0.993698 -0.000057
outer loop
vertex 0.006428 0.000000 0.000000
vertex 0.006290 0.000007 0.150000
vertex 0.005800 0.000062 0.150000
endloop
endfacet
facet normal 0.000000 0.000000 1.000000
outer loop
vertex 0.005179 0.000131 0.000000
vertex 0.005388 0.000099 0.000000
vertex 0.005800 0.000062 0.000000
endloop
endfacet
facet normal -0.098584 -0.995129 0.000000
outer loop
vertex 0.005800 0.000062 0.000000
vertex 0.006428 0.000000 0.000000
vertex 0.005800 0.000062 0.150000
endloop
endfacet
facet normal -0.152298 -0.988335 0.000000
outer loop
vertex 0.005388 0.000099 0.150000
vertex 0.005179 0.000131 0.150000
vertex 0.005179 0.000131 0.000000
endloop
endfacet
facet normal -0.088915 -0.996039 0.000000
outer loop
vertex 0.005800 0.000062 0.000000
vertex 0.005800 0.000062 0.150000
vertex 0.005388 0.000099 0.150000
endloop
endfacet
facet normal -0.110478 -0.993878 -0.000060
outer loop
vertex 0.005800 0.000062 0.000000
vertex 0.005388 0.000099 0.150000
vertex 0.005179 0.000131 0.000000
endloop
endfacet
facet normal -0.920845 0.389930 0.000000
outer loop
vertex 0.000306 0.007518 0.150000
vertex 0.000306 0.007518 0.000000
vertex 0.000260 0.007409 0.000000
endloop
endfacet
facet normal -0.920845 0.389929 0.000000
outer loop
vertex 0.000306 0.007518 0.150000
vertex 0.000260 0.007409 0.000000
vertex 0.000260 0.007409 0.150000
endloop
endfacet
facet normal -0.346420 0.938079 0.000000
outer loop
vertex 0.001737 0.008386 0.000000
vertex 0.001617 0.008341 0.000000
vertex 0.001617 0.008341 0.150000
endloop
endfacet
facet normal -0.346420 0.938079 0.000000
outer loop
vertex 0.001737 0.008386 0.000000
vertex 0.001617 0.008341 0.150000
vertex 0.001737 0.008386 0.150000
endloop
endfacet
facet normal -0.316262 0.948672 0.000000
outer loop
vertex 0.001859 0.008426 0.000000
vertex 0.001737 0.008386 0.000000
vertex 0.001737 0.008386 0.150000
endloop
endfacet
facet normal -0.316262 0.948672 0.000000
outer loop
vertex 0.001859 0.008426 0.000000
vertex 0.001737 0.008386 0.150000
vertex 0.001859 0.008426 0.150000
endloop
endfacet
facet normal -0.291341 0.956619 0.000000
outer loop
vertex 0.001984 0.008464 0.000000
vertex 0.001859 0.008426 0.000000
vertex 0.001859 0.008426 0.150000
endloop
endfacet
facet normal -0.291341 0.956619 0.000000
outer loop
vertex 0.001984 0.008464 0.000000
vertex 0.001859 0.008426 0.150000
vertex 0.001984 0.008464 0.150000
endloop
endfacet
facet normal -0.271686 0.962386 0.000000
outer loop
vertex 0.002110 0.008500 0.000000
vertex 0.001984 0.008464 0.000000
vertex 0.001984 0.008464 0.150000
endloop
endfacet
facet normal -0.271688 0.962386 0.000000
outer loop
vertex 0.002110 0.008500 0.000000
vertex 0.001984 0.008464 0.150000
vertex 0.002110 0.008500 0.150000
endloop
endfacet
facet normal -0.257240 0.966348 0.000000
outer loop
vertex 0.002237 0.008534 0.000000
vertex 0.002110 0.008500 0.000000
vertex 0.002110 0.008500 0.150000
endloop
endfacet
facet normal -0.257241 0.966347 0.000000
outer loop
vertex 0.002237 0.008534 0.000000
vertex 0.002110 0.008500 0.150000
vertex 0.002237 0.008534 0.150000
endloop
endfacet
facet normal -0.204686 0.978828 0.000000
outer loop
vertex 0.002884 0.008693 0.150000
vertex 0.002884 0.008693 0.000000
vertex 0.002755 0.008666 0.000000
endloop
endfacet
facet normal -0.246571 0.969125 0.000000
outer loop
vertex 0.002755 0.008666 0.000000
vertex 0.002237 0.008534 0.000000
vertex 0.002237 0.008534 0.150000
endloop
endfacet
facet normal -0.204686 0.978828 0.000000
outer loop
vertex 0.002755 0.008666 0.150000
vertex 0.002884 0.008693 0.150000
vertex 0.002755 0.008666 0.000000
endloop
endfacet
facet normal -0.246572 0.969125 0.000000
outer loop
vertex 0.002237 0.008534 0.150000
vertex 0.002755 0.008666 0.150000
vertex 0.002755 0.008666 0.000000
endloop
endfacet
facet normal -0.004353 0.999991 0.000000
outer loop
vertex 0.003137 0.008706 0.150000
vertex 0.003137 0.008706 0.000000
vertex 0.003011 0.008706 0.000000
endloop
endfacet
facet normal -0.004353 0.999991 0.000000
outer loop
vertex 0.003137 0.008706 0.150000
vertex 0.003011 0.008706 0.000000
vertex 0.003011 0.008706 0.150000
endloop
endfacet
facet normal -0.867317 0.497756 0.000000
outer loop
vertex 0.000357 0.007606 0.150000
vertex 0.000357 0.007606 0.000000
vertex 0.000306 0.007518 0.000000
endloop
endfacet
facet normal -0.867317 0.497756 0.000000
outer loop
vertex 0.000357 0.007606 0.150000
vertex 0.000306 0.007518 0.000000
vertex 0.000306 0.007518 0.150000
endloop
endfacet
facet normal 0.000000 0.000000 1.000000
outer loop
vertex 0.006674 0.007210 0.000000
vertex 0.006441 0.007358 0.000000
vertex 0.006208 0.007503 0.000000
endloop
endfacet
facet normal 0.000000 0.000000 1.000000
outer loop
vertex 0.006208 0.007503 0.000000
vertex 0.005976 0.007642 0.000000
vertex 0.005747 0.007775 0.000000
endloop
endfacet
facet normal 0.500999 0.865448 0.000000
outer loop
vertex 0.005747 0.007775 0.000000
vertex 0.005747 0.007775 0.150000
vertex 0.005976 0.007642 0.150000
endloop
endfacet
facet normal 0.515422 0.856936 -0.000030
outer loop
vertex 0.005747 0.007775 0.000000
vertex 0.005976 0.007642 0.150000
vertex 0.006208 0.007503 0.150000
endloop
endfacet
facet normal 0.000000 0.000000 1.000000
outer loop
vertex 0.006674 0.007210 0.000000
vertex 0.006208 0.007503 0.000000
vertex 0.005747 0.007775 0.000000
endloop
endfacet
facet normal 0.000000 0.000000 1.000000
outer loop
vertex 0.007349 0.006755 0.000000
vertex 0.007137 0.006907 0.000000
vertex 0.006674 0.007210 0.000000
endloop
endfacet
facet normal 0.583474 0.812132 0.000000
outer loop
vertex 0.007137 0.006907 0.150000
vertex 0.007349 0.006755 0.150000
vertex 0.007349 0.006755 0.000000
endloop
endfacet
facet normal 0.546549 0.837427 -0.000078
outer loop
vertex 0.006674 0.007210 0.150000
vertex 0.007137 0.006907 0.150000
vertex 0.007349 0.006755 0.000000
endloop
endfacet
facet normal 0.000000 0.000000 1.000000
outer loop
vertex 0.007349 0.006755 0.000000
vertex 0.006674 0.007210 0.000000
vertex 0.005747 0.007775 0.000000
endloop
endfacet
facet normal 0.527144 0.849776 -0.000079
outer loop
vertex 0.005747 0.007775 0.000000
vertex 0.006208 0.007503 0.150000
vertex 0.006441 0.007358 0.150000
endloop
endfacet
facet normal 0.536531 0.843881 -0.000142
outer loop
vertex 0.006441 0.007358 0.150000
vertex 0.006674 0.007210 0.150000
vertex 0.007349 0.006755 0.000000
endloop
endfacet
facet normal 0.536792 0.843715 -0.000140
outer loop
vertex 0.005747 0.007775 0.000000
vertex 0.006441 0.007358 0.150000
vertex 0.007349 0.006755 0.000000
endloop
endfacet
facet normal 0.890631 -0.454727 0.000000
outer loop
vertex 0.008549 0.001661 0.150000
vertex 0.008549 0.001661 0.000000
vertex 0.008622 0.001804 0.000000
endloop
endfacet
facet normal 0.890623 -0.454742 0.000000
outer loop
vertex 0.008549 0.001661 0.150000
vertex 0.008622 0.001804 0.000000
vertex 0.008622 0.001804 0.150000
endloop
endfacet
facet normal 0.403148 0.915135 0.000000
outer loop
vertex 0.005083 0.008120 0.000000
vertex 0.004873 0.008212 0.000000
vertex 0.004873 0.008212 0.150000
endloop
endfacet
facet normal 0.403148 0.915135 0.000000
outer loop
vertex 0.005083 0.008120 0.000000
vertex 0.004873 0.008212 0.150000
vertex 0.005083 0.008120 0.150000
endloop
endfacet
facet normal 0.472829 0.881154 0.000000
outer loop
vertex 0.005747 0.007775 0.150000
vertex 0.005747 0.007775 0.000000
vertex 0.005299 0.008015 0.000000
endloop
endfacet
facet normal 0.435538 0.900170 0.000000
outer loop
vertex 0.005299 0.008015 0.000000
vertex 0.005083 0.008120 0.000000
vertex 0.005083 0.008120 0.150000
endloop
endfacet
facet normal 0.472828 0.881155 0.000000
outer loop
vertex 0.005299 0.008015 0.150000
vertex 0.005747 0.007775 0.150000
vertex 0.005299 0.008015 0.000000
endloop
endfacet
facet normal 0.435539 0.900170 0.000000
outer loop
vertex 0.005299 0.008015 0.000000
vertex 0.005083 0.008120 0.150000
vertex 0.005299 0.008015 0.150000
endloop
endfacet
facet normal 0.902300 0.431109 0.000000
outer loop
vertex 0.008079 0.005768 0.000000
vertex 0.007911 0.006118 0.000000
vertex 0.007911 0.006118 0.150000
endloop
endfacet
facet normal 0.902298 0.431112 0.000000
outer loop
vertex 0.008079 0.005768 0.000000
vertex 0.007911 0.006118 0.150000
vertex 0.008079 0.005768 0.150000
endloop
endfacet
facet normal 0.972435 -0.233175 0.000000
outer loop
vertex 0.008679 0.001958 0.150000
vertex 0.008679 0.001958 0.000000
vertex 0.008720 0.002125 0.000000
endloop
endfacet
facet normal 0.972435 -0.233175 0.000000
outer loop
vertex 0.008679 0.001958 0.150000
vertex 0.008720 0.002125 0.000000
vertex 0.008720 0.002125 0.150000
endloop
endfacet
facet normal 0.000000 0.000000 1.000000
outer loop
vertex 0.000629 0.004527 0.000000
vertex 0.000926 0.003907 0.000000
vertex 0.001079 0.003608 0.000000
endloop
endfacet
facet normal 0.000000 0.000000 1.000000
outer loop
vertex 0.001079 0.003608 0.000000
vertex 0.001231 0.003327 0.000000
vertex 0.001378 0.003069 0.000000
endloop
endfacet
facet normal -0.867703 -0.497084 0.000000
outer loop
vertex 0.001378 0.003069 0.000000
vertex 0.001378 0.003069 0.150000
vertex 0.001231 0.003327 0.150000
endloop
endfacet
facet normal -0.880685 -0.473702 -0.000053
outer loop
vertex 0.001378 0.003069 0.000000
vertex 0.001231 0.003327 0.150000
vertex 0.001079 0.003608 0.150000
endloop
endfacet
facet normal 0.000000 0.000000 1.000000
outer loop
vertex 0.000629 0.004527 0.000000
vertex 0.001079 0.003608 0.000000
vertex 0.001378 0.003069 0.000000
endloop
endfacet
facet normal 0.000000 0.000000 1.000000
outer loop
vertex 0.000143 0.005656 0.000000
vertex 0.000360 0.005129 0.000000
vertex 0.000629 0.004527 0.000000
endloop
endfacet
facet normal 0.000000 0.000000 1.000000
outer loop
vertex 0.000000 0.006051 0.000000
vertex 0.000061 0.005874 0.000000
vertex 0.000143 0.005656 0.000000
endloop
endfacet
facet normal -0.945975 -0.324239 0.000000
outer loop
vertex 0.000061 0.005874 0.150000
vertex 0.000000 0.006051 0.150000
vertex 0.000000 0.006051 0.000000
endloop
endfacet
facet normal -0.935542 -0.353215 -0.000038
outer loop
vertex 0.000143 0.005656 0.150000
vertex 0.000061 0.005874 0.150000
vertex 0.000000 0.006051 0.000000
endloop
endfacet
facet normal 0.000000 0.000000 1.000000
outer loop
vertex 0.000000 0.006051 0.000000
vertex 0.000143 0.005656 0.000000
vertex 0.000629 0.004527 0.000000
endloop
endfacet
facet normal -0.889366 -0.457197 -0.000130
outer loop
vertex 0.000629 0.004527 0.000000
vertex 0.001378 0.003069 0.000000
vertex 0.001079 0.003608 0.150000
endloop
endfacet
facet normal -0.890409 -0.455161 -0.000114
outer loop
vertex 0.000629 0.004527 0.000000
vertex 0.001079 0.003608 0.150000
vertex 0.000926 0.003907 0.150000
endloop
endfacet
facet normal -0.924457 -0.381287 -0.000123
outer loop
vertex 0.000143 0.005656 0.150000
vertex 0.000000 0.006051 0.000000
vertex 0.000629 0.004527 0.000000
endloop
endfacet
facet normal -0.924678 -0.380750 -0.000128
outer loop
vertex 0.000360 0.005129 0.150000
vertex 0.000143 0.005656 0.150000
vertex 0.000629 0.004527 0.000000
endloop
endfacet
facet normal -0.901443 -0.432898 0.000000
outer loop
vertex 0.000629 0.004527 0.000000
vertex 0.000926 0.003907 0.150000
vertex 0.000629 0.004527 0.150000
endloop
endfacet
facet normal -0.913234 -0.407436 0.000000
outer loop
vertex 0.000629 0.004527 0.150000
vertex 0.000360 0.005129 0.150000
vertex 0.000629 0.004527 0.000000
endloop
endfacet
facet normal 0.187992 0.982171 0.000000
outer loop
vertex 0.003527 0.008645 0.150000
vertex 0.003527 0.008645 0.000000
vertex 0.003265 0.008695 0.000000
endloop
endfacet
facet normal 0.187992 0.982171 0.000000
outer loop
vertex 0.003527 0.008645 0.150000
vertex 0.003265 0.008695 0.000000
vertex 0.003265 0.008695 0.150000
endloop
endfacet
facet normal 0.937727 -0.347374 0.000000
outer loop
vertex 0.008622 0.001804 0.150000
vertex 0.008622 0.001804 0.000000
vertex 0.008679 0.001958 0.000000
endloop
endfacet
facet normal 0.937727 -0.347374 0.000000
outer loop
vertex 0.008622 0.001804 0.150000
vertex 0.008679 0.001958 0.000000
vertex 0.008679 0.001958 0.150000
endloop
endfacet
facet normal -0.562537 0.826772 0.000000
outer loop
vertex 0.000618 0.007854 0.150000
vertex 0.000618 0.007854 0.000000
vertex 0.000544 0.007804 0.000000
endloop
endfacet
facet normal -0.562538 0.826772 0.000000
outer loop
vertex 0.000618 0.007854 0.150000
vertex 0.000544 0.007804 0.000000
vertex 0.000544 0.007804 0.150000
endloop
endfacet
facet normal -0.723035 0.690812 0.000000
outer loop
vertex 0.000476 0.007748 0.150000
vertex 0.000476 0.007748 0.000000
vertex 0.000414 0.007682 0.000000
endloop
endfacet
facet normal -0.723034 0.690813 0.000000
outer loop
vertex 0.000476 0.007748 0.150000
vertex 0.000414 0.007682 0.000000
vertex 0.000414 0.007682 0.150000
endloop
endfacet
facet normal 0.837370 -0.546636 0.000000
outer loop
vertex 0.008460 0.001524 0.150000
vertex 0.008460 0.001524 0.000000
vertex 0.008549 0.001661 0.000000
endloop
endfacet
facet normal 0.837375 -0.546630 0.000000
outer loop
vertex 0.008460 0.001524 0.150000
vertex 0.008549 0.001661 0.000000
vertex 0.008549 0.001661 0.150000
endloop
endfacet
facet normal 0.039194 -0.999232 0.000000
outer loop
vertex 0.006428 0.000000 0.150000
vertex 0.006428 0.000000 0.000000
vertex 0.006561 0.000005 0.000000
endloop
endfacet
facet normal 0.039194 -0.999232 0.000000
outer loop
vertex 0.006428 0.000000 0.150000
vertex 0.006561 0.000005 0.000000
vertex 0.006561 0.000005 0.150000
endloop
endfacet
facet normal 0.993436 0.114386 0.000000
outer loop
vertex 0.008759 0.003070 0.000000
vertex 0.008668 0.003855 0.000000
vertex 0.008668 0.003855 0.150000
endloop
endfacet
facet normal 0.993437 0.114384 0.000000
outer loop
vertex 0.008759 0.003070 0.000000
vertex 0.008668 0.003855 0.150000
vertex 0.008759 0.003070 0.150000
endloop
endfacet
facet normal -0.357546 -0.933896 0.000000
outer loop
vertex 0.003943 0.000544 0.000000
vertex 0.004763 0.000230 0.000000
vertex 0.004763 0.000230 0.150000
endloop
endfacet
facet normal -0.357545 -0.933896 0.000000
outer loop
vertex 0.003943 0.000544 0.000000
vertex 0.004763 0.000230 0.150000
vertex 0.003943 0.000544 0.150000
endloop
endfacet
facet normal 0.428335 -0.903620 0.000000
outer loop
vertex 0.006825 0.000068 0.150000
vertex 0.006825 0.000068 0.000000
vertex 0.006963 0.000134 0.000000
endloop
endfacet
facet normal 0.428339 -0.903618 0.000000
outer loop
vertex 0.006825 0.000068 0.150000
vertex 0.006963 0.000134 0.000000
vertex 0.006963 0.000134 0.150000
endloop
endfacet
facet normal 0.992508 -0.122182 0.000000
outer loop
vertex 0.008720 0.002125 0.150000
vertex 0.008720 0.002125 0.000000
vertex 0.008742 0.002309 0.000000
endloop
endfacet
facet normal 0.992508 -0.122182 0.000000
outer loop
vertex 0.008720 0.002125 0.150000
vertex 0.008742 0.002309 0.000000
vertex 0.008742 0.002309 0.150000
endloop
endfacet
facet normal 0.720774 0.693170 0.000000
outer loop
vertex 0.007679 0.006445 0.150000
vertex 0.007679 0.006445 0.000000
vertex 0.007528 0.006601 0.000000
endloop
endfacet
facet normal 0.720774 0.693170 0.000000
outer loop
vertex 0.007679 0.006445 0.150000
vertex 0.007528 0.006601 0.000000
vertex 0.007528 0.006601 0.150000
endloop
endfacet
facet normal -0.560515 -0.828144 0.000000
outer loop
vertex 0.002769 0.001221 0.000000
vertex 0.003132 0.000975 0.000000
vertex 0.003132 0.000975 0.150000
endloop
endfacet
facet normal -0.560516 -0.828144 0.000000
outer loop
vertex 0.002769 0.001221 0.000000
vertex 0.003132 0.000975 0.150000
vertex 0.002769 0.001221 0.150000
endloop
endfacet
facet normal 0.306382 0.951908 0.000000
outer loop
vertex 0.004873 0.008212 0.000000
vertex 0.003527 0.008645 0.000000
vertex 0.003527 0.008645 0.150000
endloop
endfacet
facet normal 0.306382 0.951908 0.000000
outer loop
vertex 0.004873 0.008212 0.000000
vertex 0.003527 0.008645 0.150000
vertex 0.004873 0.008212 0.150000
endloop
endfacet
facet normal 0.000000 0.000000 1.000000
outer loop
vertex 0.003537 0.000748 0.000000
vertex 0.003740 0.000643 0.000000
vertex 0.003943 0.000544 0.000000
endloop
endfacet
facet normal -0.436426 -0.899740 0.000000
outer loop
vertex 0.003943 0.000544 0.000000
vertex 0.003943 0.000544 0.150000
vertex 0.003740 0.000643 0.150000
endloop
endfacet
facet normal -0.460482 -0.887669 -0.000041
outer loop
vertex 0.003943 0.000544 0.000000
vertex 0.003740 0.000643 0.150000
vertex 0.003537 0.000748 0.150000
endloop
endfacet
facet normal 0.000000 0.000000 1.000000
outer loop
vertex 0.003334 0.000859 0.000000
vertex 0.003537 0.000748 0.000000
vertex 0.003943 0.000544 0.000000
endloop
endfacet
facet normal -0.498425 -0.866933 0.000000
outer loop
vertex 0.003132 0.000975 0.150000
vertex 0.003132 0.000975 0.000000
vertex 0.003334 0.000859 0.000000
endloop
endfacet
facet normal -0.481068 -0.876683 -0.000111
outer loop
vertex 0.003943 0.000544 0.000000
vertex 0.003537 0.000748 0.150000
vertex 0.003334 0.000859 0.150000
endloop
endfacet
facet normal -0.498424 -0.866933 0.000000
outer loop
vertex 0.003334 0.000859 0.150000
vertex 0.003132 0.000975 0.150000
vertex 0.003334 0.000859 0.000000
endloop
endfacet
facet normal -0.459589 -0.888132 0.000000
outer loop
vertex 0.003943 0.000544 0.000000
vertex 0.003334 0.000859 0.150000
vertex 0.003334 0.000859 0.000000
endloop
endfacet
facet normal -0.717401 -0.696661 0.000000
outer loop
vertex 0.002615 0.001351 0.000000
vertex 0.002615 0.001351 0.150000
vertex 0.002346 0.001627 0.150000
endloop
endfacet
facet normal -0.717400 -0.696661 0.000000
outer loop
vertex 0.002615 0.001351 0.000000
vertex 0.002346 0.001627 0.150000
vertex 0.002346 0.001627 0.000000
endloop
endfacet
facet normal 0.084021 0.996464 0.000000
outer loop
vertex 0.003265 0.008695 0.150000
vertex 0.003265 0.008695 0.000000
vertex 0.003137 0.008706 0.000000
endloop
endfacet
facet normal 0.084021 0.996464 0.000000
outer loop
vertex 0.003265 0.008695 0.150000
vertex 0.003137 0.008706 0.000000
vertex 0.003137 0.008706 0.150000
endloop
endfacet
facet normal -0.801381 0.598154 0.000000
outer loop
vertex 0.000414 0.007682 0.150000
vertex 0.000414 0.007682 0.000000
vertex 0.000357 0.007606 0.000000
endloop
endfacet
facet normal -0.801381 0.598154 0.000000
outer loop
vertex 0.000414 0.007682 0.150000
vertex 0.000357 0.007606 0.000000
vertex 0.000357 0.007606 0.150000
endloop
endfacet
facet normal 0.999759 0.021937 0.000000
outer loop
vertex 0.008763 0.002881 0.000000
vertex 0.008759 0.003070 0.000000
vertex 0.008759 0.003070 0.150000
endloop
endfacet
facet normal 0.999759 0.021937 0.000000
outer loop
vertex 0.008763 0.002881 0.000000
vertex 0.008759 0.003070 0.150000
vertex 0.008763 0.002881 0.150000
endloop
endfacet
facet normal 0.999955 -0.009521 0.000000
outer loop
vertex 0.008761 0.002691 0.000000
vertex 0.008763 0.002881 0.000000
vertex 0.008763 0.002881 0.150000
endloop
endfacet
facet normal 0.999955 -0.009521 0.000000
outer loop
vertex 0.008761 0.002691 0.000000
vertex 0.008763 0.002881 0.150000
vertex 0.008761 0.002691 0.150000
endloop
endfacet
facet normal 0.998166 -0.060538 0.000000
outer loop
vertex 0.008742 0.002309 0.150000
vertex 0.008742 0.002309 0.000000
vertex 0.008754 0.002501 0.000000
endloop
endfacet
facet normal 0.999309 -0.037155 0.000000
outer loop
vertex 0.008754 0.002501 0.000000
vertex 0.008761 0.002691 0.000000
vertex 0.008761 0.002691 0.150000
endloop
endfacet
facet normal 0.998166 -0.060530 0.000000
outer loop
vertex 0.008754 0.002501 0.150000
vertex 0.008742 0.002309 0.150000
vertex 0.008754 0.002501 0.000000
endloop
endfacet
facet normal 0.999309 -0.037171 0.000000
outer loop
vertex 0.008761 0.002691 0.150000
vertex 0.008754 0.002501 0.150000
vertex 0.008754 0.002501 0.000000
endloop
endfacet
facet normal 0.614986 -0.788538 0.000000
outer loop
vertex 0.007111 0.000227 0.150000
vertex 0.007111 0.000227 0.000000
vertex 0.007271 0.000352 0.000000
endloop
endfacet
facet normal 0.614982 -0.788541 0.000000
outer loop
vertex 0.007111 0.000227 0.150000
vertex 0.007271 0.000352 0.000000
vertex 0.007271 0.000352 0.150000
endloop
endfacet
facet normal 0.535102 -0.844788 0.000000
outer loop
vertex 0.006963 0.000134 0.150000
vertex 0.006963 0.000134 0.000000
vertex 0.007111 0.000227 0.000000
endloop
endfacet
facet normal 0.535098 -0.844790 0.000000
outer loop
vertex 0.006963 0.000134 0.150000
vertex 0.007111 0.000227 0.000000
vertex 0.007111 0.000227 0.150000
endloop
endfacet
facet normal 0.161235 -0.986916 0.000000
outer loop
vertex 0.006561 0.000005 0.150000
vertex 0.006561 0.000005 0.000000
vertex 0.006692 0.000027 0.000000
endloop
endfacet
facet normal 0.161231 -0.986917 0.000000
outer loop
vertex 0.006561 0.000005 0.150000
vertex 0.006692 0.000027 0.000000
vertex 0.006692 0.000027 0.150000
endloop
endfacet
facet normal 0.000000 0.000000 1.000000
outer loop
vertex 0.007271 0.000352 0.000000
vertex 0.007449 0.000514 0.000000
vertex 0.008105 0.001128 0.000000
endloop
endfacet
facet normal 0.708944 -0.705265 0.000000
outer loop
vertex 0.008105 0.001128 0.000000
vertex 0.008238 0.001261 0.000000
vertex 0.008238 0.001261 0.150000
endloop
endfacet
facet normal 0.708940 -0.705269 0.000000
outer loop
vertex 0.008105 0.001128 0.000000
vertex 0.008238 0.001261 0.150000
vertex 0.008105 0.001128 0.150000
endloop
endfacet
facet normal 0.681013 -0.732272 0.000000
outer loop
vertex 0.007271 0.000352 0.150000
vertex 0.007271 0.000352 0.000000
vertex 0.008105 0.001128 0.000000
endloop
endfacet
facet normal 0.683451 -0.729996 0.000000
outer loop
vertex 0.008105 0.001128 0.000000
vertex 0.008105 0.001128 0.150000
vertex 0.007449 0.000514 0.150000
endloop
endfacet
facet normal 0.671805 -0.740728 -0.000095
outer loop
vertex 0.008105 0.001128 0.000000
vertex 0.007449 0.000514 0.150000
vertex 0.007271 0.000352 0.150000
endloop
endfacet
facet normal -0.965912 0.258870 0.000000
outer loop
vertex 0.000260 0.007409 0.000000
vertex 0.000142 0.006968 0.000000
vertex 0.000142 0.006968 0.150000
endloop
endfacet
facet normal -0.965912 0.258870 0.000000
outer loop
vertex 0.000260 0.007409 0.000000
vertex 0.000142 0.006968 0.150000
vertex 0.000260 0.007409 0.150000
endloop
endfacet
endsolid Exported from Blender-3.6.8
