solid Exported from Blender-3.6.8
facet normal 0.899782 -0.436340 0.000000
outer loop
vertex 0.003182 0.000867 0.150000
vertex 0.003182 0.000867 0.000000
vertex 0.003243 0.000993 0.000000
endloop
endfacet
facet normal 0.899783 -0.436338 0.000000
outer loop
vertex 0.003182 0.000867 0.150000
vertex 0.003243 0.000993 0.000000
vertex 0.003243 0.000993 0.150000
endloop
endfacet
facet normal 0.648037 0.761609 0.000000
outer loop
vertex 0.001114 0.004908 0.150000
vertex 0.001114 0.004908 0.000000
vertex 0.001090 0.004928 0.000000
endloop
endfacet
facet normal 0.648034 0.761611 0.000000
outer loop
vertex 0.001114 0.004908 0.150000
vertex 0.001090 0.004928 0.000000
vertex 0.001090 0.004928 0.150000
endloop
endfacet
facet normal 0.000000 0.000000 -1.000000
outer loop
vertex 0.001712 0.000031 0.000000
vertex 0.001575 0.000007 0.000000
vertex 0.001451 0.000000 0.000000
endloop
endfacet
facet normal 0.000000 0.000000 -1.000000
outer loop
vertex 0.001451 0.000000 0.000000
vertex 0.001336 0.000007 0.000000
vertex 0.001229 0.000025 0.000000
endloop
endfacet
facet normal 0.000000 0.000000 -1.000000
outer loop
vertex 0.001229 0.000025 0.000000
vertex 0.001128 0.000052 0.000000
vertex 0.001030 0.000085 0.000000
endloop
endfacet
facet normal 0.000000 0.000000 -1.000000
outer loop
vertex 0.000736 0.000201 0.000000
vertex 0.000530 0.000273 0.000000
vertex 0.000443 0.000313 0.000000
endloop
endfacet
facet normal 0.000000 0.000000 -1.000000
outer loop
vertex 0.001229 0.000025 0.000000
vertex 0.001030 0.000085 0.000000
vertex 0.000736 0.000201 0.000000
endloop
endfacet
facet normal 0.000000 0.000000 -1.000000
outer loop
vertex 0.001712 0.000031 0.000000
vertex 0.001451 0.000000 0.000000
vertex 0.001229 0.000025 0.000000
endloop
endfacet
facet normal 0.000000 0.000000 -1.000000
outer loop
vertex 0.002623 0.000390 0.000000
vertex 0.001862 0.000073 0.000000
vertex 0.001712 0.000031 0.000000
endloop
endfacet
facet normal 0.000000 0.000000 -1.000000
outer loop
vertex 0.002947 0.000585 0.000000
vertex 0.002850 0.000514 0.000000
vertex 0.002623 0.000390 0.000000
endloop
endfacet
facet normal 0.000000 0.000000 -1.000000
outer loop
vertex 0.003112 0.000758 0.000000
vertex 0.003034 0.000665 0.000000
vertex 0.002947 0.000585 0.000000
endloop
endfacet
facet normal 0.000000 0.000000 -1.000000
outer loop
vertex 0.003243 0.000993 0.000000
vertex 0.003182 0.000867 0.000000
vertex 0.003112 0.000758 0.000000
endloop
endfacet
facet normal 0.000000 0.000000 -1.000000
outer loop
vertex 0.003563 0.002197 0.000000
vertex 0.003534 0.001958 0.000000
vertex 0.003243 0.000993 0.000000
endloop
endfacet
facet normal 0.000000 0.000000 -1.000000
outer loop
vertex 0.003553 0.002433 0.000000
vertex 0.003563 0.002315 0.000000
vertex 0.003563 0.002197 0.000000
endloop
endfacet
facet normal 0.000000 0.000000 -1.000000
outer loop
vertex 0.003496 0.002677 0.000000
vertex 0.003531 0.002554 0.000000
vertex 0.003553 0.002433 0.000000
endloop
endfacet
facet normal 0.000000 0.000000 -1.000000
outer loop
vertex 0.003458 0.002794 0.000000
vertex 0.003496 0.002677 0.000000
vertex 0.003553 0.002433 0.000000
endloop
endfacet
facet normal 0.000000 0.000000 -1.000000
outer loop
vertex 0.003553 0.002433 0.000000
vertex 0.003563 0.002197 0.000000
vertex 0.003243 0.000993 0.000000
endloop
endfacet
facet normal 0.000000 0.000000 -1.000000
outer loop
vertex 0.003243 0.000993 0.000000
vertex 0.003112 0.000758 0.000000
vertex 0.002947 0.000585 0.000000
endloop
endfacet
facet normal 0.000000 0.000000 -1.000000
outer loop
vertex 0.002947 0.000585 0.000000
vertex 0.002623 0.000390 0.000000
vertex 0.001712 0.000031 0.000000
endloop
endfacet
facet normal 0.000000 0.000000 -1.000000
outer loop
vertex 0.001712 0.000031 0.000000
vertex 0.001229 0.000025 0.000000
vertex 0.000736 0.000201 0.000000
endloop
endfacet
facet normal 0.000000 0.000000 -1.000000
outer loop
vertex 0.000736 0.000201 0.000000
vertex 0.000443 0.000313 0.000000
vertex 0.000369 0.000358 0.000000
endloop
endfacet
facet normal 0.000000 0.000000 -1.000000
outer loop
vertex 0.000369 0.000358 0.000000
vertex 0.000307 0.000407 0.000000
vertex 0.000254 0.000458 0.000000
endloop
endfacet
facet normal 0.000000 0.000000 -1.000000
outer loop
vertex 0.000254 0.000458 0.000000
vertex 0.000211 0.000511 0.000000
vertex 0.000175 0.000565 0.000000
endloop
endfacet
facet normal 0.000000 0.000000 -1.000000
outer loop
vertex 0.000175 0.000565 0.000000
vertex 0.000121 0.000675 0.000000
vertex 0.000101 0.000729 0.000000
endloop
endfacet
facet normal 0.000000 0.000000 -1.000000
outer loop
vertex 0.000101 0.000729 0.000000
vertex 0.000083 0.000781 0.000000
vertex 0.000067 0.000832 0.000000
endloop
endfacet
facet normal 0.000000 0.000000 -1.000000
outer loop
vertex 0.000067 0.000832 0.000000
vertex 0.000052 0.000945 0.000000
vertex 0.000039 0.001171 0.000000
endloop
endfacet
facet normal 0.000000 0.000000 -1.000000
outer loop
vertex 0.000039 0.001171 0.000000
vertex 0.000029 0.001487 0.000000
vertex 0.000000 0.004638 0.000000
endloop
endfacet
facet normal 0.000000 0.000000 -1.000000
outer loop
vertex 0.000000 0.004638 0.000000
vertex 0.000293 0.004781 0.000000
vertex 0.000501 0.004873 0.000000
endloop
endfacet
facet normal 0.000000 0.000000 -1.000000
outer loop
vertex 0.000501 0.004873 0.000000
vertex 0.000606 0.004915 0.000000
vertex 0.000795 0.004977 0.000000
endloop
endfacet
facet normal 0.000000 0.000000 -1.000000
outer loop
vertex 0.000795 0.004977 0.000000
vertex 0.000871 0.004992 0.000000
vertex 0.000928 0.004992 0.000000
endloop
endfacet
facet normal 0.000000 0.000000 -1.000000
outer loop
vertex 0.000928 0.004992 0.000000
vertex 0.001006 0.004973 0.000000
vertex 0.001037 0.004960 0.000000
endloop
endfacet
facet normal 0.000000 0.000000 -1.000000
outer loop
vertex 0.001037 0.004960 0.000000
vertex 0.001065 0.004946 0.000000
vertex 0.001090 0.004928 0.000000
endloop
endfacet
facet normal 0.000000 0.000000 -1.000000
outer loop
vertex 0.001090 0.004928 0.000000
vertex 0.001114 0.004908 0.000000
vertex 0.001138 0.004884 0.000000
endloop
endfacet
facet normal 0.000000 0.000000 -1.000000
outer loop
vertex 0.001226 0.004788 0.000000
vertex 0.001360 0.004647 0.000000
vertex 0.001409 0.004591 0.000000
endloop
endfacet
facet normal 0.000000 0.000000 -1.000000
outer loop
vertex 0.001090 0.004928 0.000000
vertex 0.001138 0.004884 0.000000
vertex 0.001226 0.004788 0.000000
endloop
endfacet
facet normal 0.000000 0.000000 -1.000000
outer loop
vertex 0.000928 0.004992 0.000000
vertex 0.001037 0.004960 0.000000
vertex 0.001090 0.004928 0.000000
endloop
endfacet
facet normal 0.000000 0.000000 -1.000000
outer loop
vertex 0.000501 0.004873 0.000000
vertex 0.000795 0.004977 0.000000
vertex 0.000928 0.004992 0.000000
endloop
endfacet
facet normal 0.000000 0.000000 -1.000000
outer loop
vertex 0.000039 0.001171 0.000000
vertex 0.000000 0.004638 0.000000
vertex 0.000501 0.004873 0.000000
endloop
endfacet
facet normal 0.000000 0.000000 -1.000000
outer loop
vertex 0.000101 0.000729 0.000000
vertex 0.000067 0.000832 0.000000
vertex 0.000039 0.001171 0.000000
endloop
endfacet
facet normal 0.000000 0.000000 -1.000000
outer loop
vertex 0.000254 0.000458 0.000000
vertex 0.000175 0.000565 0.000000
vertex 0.000101 0.000729 0.000000
endloop
endfacet
facet normal 0.000000 0.000000 -1.000000
outer loop
vertex 0.000736 0.000201 0.000000
vertex 0.000369 0.000358 0.000000
vertex 0.000254 0.000458 0.000000
endloop
endfacet
facet normal 0.000000 0.000000 -1.000000
outer loop
vertex 0.002947 0.000585 0.000000
vertex 0.001712 0.000031 0.000000
vertex 0.000736 0.000201 0.000000
endloop
endfacet
facet normal 0.000000 0.000000 -1.000000
outer loop
vertex 0.003553 0.002433 0.000000
vertex 0.003243 0.000993 0.000000
vertex 0.002947 0.000585 0.000000
endloop
endfacet
facet normal 0.000000 0.000000 -1.000000
outer loop
vertex 0.003425 0.002898 0.000000
vertex 0.003458 0.002794 0.000000
vertex 0.003553 0.002433 0.000000
endloop
endfacet
facet normal 0.000000 0.000000 -1.000000
outer loop
vertex 0.003370 0.003069 0.000000
vertex 0.003396 0.002989 0.000000
vertex 0.003425 0.002898 0.000000
endloop
endfacet
facet normal 0.000000 0.000000 -1.000000
outer loop
vertex 0.003294 0.003256 0.000000
vertex 0.003345 0.003139 0.000000
vertex 0.003370 0.003069 0.000000
endloop
endfacet
facet normal 0.000000 0.000000 -1.000000
outer loop
vertex 0.003232 0.003351 0.000000
vertex 0.003265 0.003306 0.000000
vertex 0.003294 0.003256 0.000000
endloop
endfacet
facet normal 0.000000 0.000000 -1.000000
outer loop
vertex 0.003097 0.003475 0.000000
vertex 0.003195 0.003393 0.000000
vertex 0.003232 0.003351 0.000000
endloop
endfacet
facet normal 0.000000 0.000000 -1.000000
outer loop
vertex 0.002915 0.003584 0.000000
vertex 0.003022 0.003523 0.000000
vertex 0.003097 0.003475 0.000000
endloop
endfacet
facet normal 0.000000 0.000000 -1.000000
outer loop
vertex 0.002636 0.003728 0.000000
vertex 0.002784 0.003653 0.000000
vertex 0.002915 0.003584 0.000000
endloop
endfacet
facet normal 0.000000 0.000000 -1.000000
outer loop
vertex 0.001649 0.004263 0.000000
vertex 0.001692 0.004196 0.000000
vertex 0.001708 0.004171 0.000000
endloop
endfacet
facet normal 0.000000 0.000000 -1.000000
outer loop
vertex 0.001708 0.004171 0.000000
vertex 0.002636 0.003728 0.000000
vertex 0.002915 0.003584 0.000000
endloop
endfacet
facet normal 0.000000 0.000000 -1.000000
outer loop
vertex 0.002915 0.003584 0.000000
vertex 0.003097 0.003475 0.000000
vertex 0.003232 0.003351 0.000000
endloop
endfacet
facet normal 0.000000 0.000000 -1.000000
outer loop
vertex 0.003232 0.003351 0.000000
vertex 0.003294 0.003256 0.000000
vertex 0.003370 0.003069 0.000000
endloop
endfacet
facet normal 0.000000 0.000000 -1.000000
outer loop
vertex 0.003370 0.003069 0.000000
vertex 0.003425 0.002898 0.000000
vertex 0.003553 0.002433 0.000000
endloop
endfacet
facet normal 0.000000 0.000000 -1.000000
outer loop
vertex 0.003553 0.002433 0.000000
vertex 0.002947 0.000585 0.000000
vertex 0.000736 0.000201 0.000000
endloop
endfacet
facet normal 0.000000 0.000000 -1.000000
outer loop
vertex 0.000736 0.000201 0.000000
vertex 0.000254 0.000458 0.000000
vertex 0.000101 0.000729 0.000000
endloop
endfacet
facet normal 0.000000 0.000000 -1.000000
outer loop
vertex 0.000101 0.000729 0.000000
vertex 0.000039 0.001171 0.000000
vertex 0.000501 0.004873 0.000000
endloop
endfacet
facet normal 0.000000 0.000000 -1.000000
outer loop
vertex 0.000501 0.004873 0.000000
vertex 0.000928 0.004992 0.000000
vertex 0.001090 0.004928 0.000000
endloop
endfacet
facet normal 0.000000 0.000000 -1.000000
outer loop
vertex 0.001090 0.004928 0.000000
vertex 0.001226 0.004788 0.000000
vertex 0.001409 0.004591 0.000000
endloop
endfacet
facet normal 0.000000 0.000000 -1.000000
outer loop
vertex 0.001409 0.004591 0.000000
vertex 0.001457 0.004533 0.000000
vertex 0.001502 0.004474 0.000000
endloop
endfacet
facet normal 0.000000 0.000000 -1.000000
outer loop
vertex 0.001502 0.004474 0.000000
vertex 0.001544 0.004416 0.000000
vertex 0.001584 0.004360 0.000000
endloop
endfacet
facet normal 0.000000 0.000000 -1.000000
outer loop
vertex 0.001584 0.004360 0.000000
vertex 0.001619 0.004309 0.000000
vertex 0.001649 0.004263 0.000000
endloop
endfacet
facet normal 0.000000 0.000000 -1.000000
outer loop
vertex 0.001708 0.004171 0.000000
vertex 0.002915 0.003584 0.000000
vertex 0.003232 0.003351 0.000000
endloop
endfacet
facet normal 0.000000 0.000000 -1.000000
outer loop
vertex 0.001584 0.004360 0.000000
vertex 0.001649 0.004263 0.000000
vertex 0.001708 0.004171 0.000000
endloop
endfacet
facet normal 0.000000 0.000000 -1.000000
outer loop
vertex 0.001409 0.004591 0.000000
vertex 0.001502 0.004474 0.000000
vertex 0.001584 0.004360 0.000000
endloop
endfacet
facet normal 0.000000 0.000000 -1.000000
outer loop
vertex 0.000501 0.004873 0.000000
vertex 0.001090 0.004928 0.000000
vertex 0.001409 0.004591 0.000000
endloop
endfacet
facet normal 0.000000 0.000000 -1.000000
outer loop
vertex 0.000736 0.000201 0.000000
vertex 0.000101 0.000729 0.000000
vertex 0.000501 0.004873 0.000000
endloop
endfacet
facet normal 0.000000 0.000000 -1.000000
outer loop
vertex 0.003370 0.003069 0.000000
vertex 0.003553 0.002433 0.000000
vertex 0.000736 0.000201 0.000000
endloop
endfacet
facet normal 0.000000 0.000000 -1.000000
outer loop
vertex 0.001708 0.004171 0.000000
vertex 0.003232 0.003351 0.000000
vertex 0.003370 0.003069 0.000000
endloop
endfacet
facet normal 0.000000 0.000000 -1.000000
outer loop
vertex 0.001409 0.004591 0.000000
vertex 0.001584 0.004360 0.000000
vertex 0.001708 0.004171 0.000000
endloop
endfacet
facet normal 0.000000 0.000000 -1.000000
outer loop
vertex 0.000736 0.000201 0.000000
vertex 0.000501 0.004873 0.000000
vertex 0.001409 0.004591 0.000000
endloop
endfacet
facet normal 0.000000 0.000000 -1.000000
outer loop
vertex 0.001708 0.004171 0.000000
vertex 0.003370 0.003069 0.000000
vertex 0.000736 0.000201 0.000000
endloop
endfacet
facet normal 0.000000 0.000000 -1.000000
outer loop
vertex 0.000736 0.000201 0.000000
vertex 0.001409 0.004591 0.000000
vertex 0.001708 0.004171 0.000000
endloop
endfacet
facet normal -0.438548 0.898708 0.000000
outer loop
vertex 0.000293 0.004781 0.000000
vertex 0.000000 0.004638 0.000000
vertex 0.000000 0.004638 0.150000
endloop
endfacet
facet normal -0.438548 0.898708 0.000000
outer loop
vertex 0.000293 0.004781 0.000000
vertex 0.000000 0.004638 0.150000
vertex 0.000293 0.004781 0.150000
endloop
endfacet
facet normal -0.371447 0.928454 0.000000
outer loop
vertex 0.000606 0.004915 0.150000
vertex 0.000606 0.004915 0.000000
vertex 0.000501 0.004873 0.000000
endloop
endfacet
facet normal -0.403980 0.914768 0.000000
outer loop
vertex 0.000501 0.004873 0.000000
vertex 0.000293 0.004781 0.000000
vertex 0.000293 0.004781 0.150000
endloop
endfacet
facet normal -0.371447 0.928454 0.000000
outer loop
vertex 0.000501 0.004873 0.150000
vertex 0.000606 0.004915 0.150000
vertex 0.000501 0.004873 0.000000
endloop
endfacet
facet normal -0.403980 0.914768 0.000000
outer loop
vertex 0.000293 0.004781 0.150000
vertex 0.000501 0.004873 0.150000
vertex 0.000501 0.004873 0.000000
endloop
endfacet
facet normal -0.518545 -0.855051 0.000000
outer loop
vertex 0.000369 0.000358 0.150000
vertex 0.000369 0.000358 0.000000
vertex 0.000443 0.000313 0.000000
endloop
endfacet
facet normal -0.518545 -0.855051 0.000000
outer loop
vertex 0.000369 0.000358 0.150000
vertex 0.000443 0.000313 0.000000
vertex 0.000443 0.000313 0.150000
endloop
endfacet
facet normal 0.678212 -0.734866 0.000000
outer loop
vertex 0.002947 0.000585 0.150000
vertex 0.002947 0.000585 0.000000
vertex 0.003034 0.000665 0.000000
endloop
endfacet
facet normal 0.678214 -0.734864 0.000000
outer loop
vertex 0.002947 0.000585 0.150000
vertex 0.003034 0.000665 0.000000
vertex 0.003034 0.000665 0.150000
endloop
endfacet
facet normal 0.539348 0.842083 0.000000
outer loop
vertex 0.003022 0.003523 0.150000
vertex 0.003097 0.003475 0.150000
vertex 0.003097 0.003475 0.000000
endloop
endfacet
facet normal 0.000000 0.000000 1.000000
outer loop
vertex 0.003097 0.003475 0.000000
vertex 0.003022 0.003523 0.000000
vertex 0.002915 0.003584 0.000000
endloop
endfacet
facet normal 0.000000 0.000000 1.000000
outer loop
vertex 0.002915 0.003584 0.000000
vertex 0.002784 0.003653 0.000000
vertex 0.002636 0.003728 0.000000
endloop
endfacet
facet normal 0.430263 0.902704 0.000000
outer loop
vertex 0.002636 0.003728 0.000000
vertex 0.001708 0.004171 0.000000
vertex 0.001708 0.004171 0.150000
endloop
endfacet
facet normal 0.430263 0.902704 0.000000
outer loop
vertex 0.002636 0.003728 0.000000
vertex 0.001708 0.004171 0.150000
vertex 0.002636 0.003728 0.150000
endloop
endfacet
facet normal 0.000000 0.000000 1.000000
outer loop
vertex 0.003097 0.003475 0.000000
vertex 0.002915 0.003584 0.000000
vertex 0.002636 0.003728 0.000000
endloop
endfacet
facet normal 0.491878 0.870664 -0.000033
outer loop
vertex 0.002915 0.003584 0.150000
vertex 0.003022 0.003523 0.150000
vertex 0.003097 0.003475 0.000000
endloop
endfacet
facet normal 0.453103 0.891458 0.000000
outer loop
vertex 0.002636 0.003728 0.000000
vertex 0.002636 0.003728 0.150000
vertex 0.002784 0.003653 0.150000
endloop
endfacet
facet normal 0.467711 0.883881 -0.000072
outer loop
vertex 0.002784 0.003653 0.150000
vertex 0.002915 0.003584 0.150000
vertex 0.003097 0.003475 0.000000
endloop
endfacet
facet normal 0.481169 0.876628 -0.000035
outer loop
vertex 0.003097 0.003475 0.000000
vertex 0.002636 0.003728 0.000000
vertex 0.002784 0.003653 0.150000
endloop
endfacet
facet normal -0.898308 -0.439366 0.000000
outer loop
vertex 0.000121 0.000675 0.150000
vertex 0.000121 0.000675 0.000000
vertex 0.000175 0.000565 0.000000
endloop
endfacet
facet normal -0.898308 -0.439366 0.000000
outer loop
vertex 0.000121 0.000675 0.150000
vertex 0.000175 0.000565 0.000000
vertex 0.000175 0.000565 0.150000
endloop
endfacet
facet normal 0.766048 -0.642783 0.000000
outer loop
vertex 0.003034 0.000665 0.150000
vertex 0.003034 0.000665 0.000000
vertex 0.003112 0.000758 0.000000
endloop
endfacet
facet normal 0.766048 -0.642783 0.000000
outer loop
vertex 0.003034 0.000665 0.150000
vertex 0.003112 0.000758 0.000000
vertex 0.003112 0.000758 0.150000
endloop
endfacet
facet normal 0.992652 -0.121006 0.000000
outer loop
vertex 0.003534 0.001958 0.000000
vertex 0.003563 0.002197 0.000000
vertex 0.003563 0.002197 0.150000
endloop
endfacet
facet normal 0.992651 -0.121009 0.000000
outer loop
vertex 0.003534 0.001958 0.000000
vertex 0.003563 0.002197 0.150000
vertex 0.003534 0.001958 0.150000
endloop
endfacet
facet normal 0.239291 0.970948 0.000000
outer loop
vertex 0.001006 0.004973 0.000000
vertex 0.000928 0.004992 0.000000
vertex 0.000928 0.004992 0.150000
endloop
endfacet
facet normal 0.239290 0.970948 0.000000
outer loop
vertex 0.001006 0.004973 0.000000
vertex 0.000928 0.004992 0.150000
vertex 0.001006 0.004973 0.150000
endloop
endfacet
facet normal 0.589586 -0.807705 0.000000
outer loop
vertex 0.002850 0.000514 0.150000
vertex 0.002850 0.000514 0.000000
vertex 0.002947 0.000585 0.000000
endloop
endfacet
facet normal 0.589590 -0.807703 0.000000
outer loop
vertex 0.002850 0.000514 0.150000
vertex 0.002947 0.000585 0.000000
vertex 0.002947 0.000585 0.150000
endloop
endfacet
facet normal 0.000000 0.000000 -1.000000
outer loop
vertex 0.000530 0.000273 0.000000
vertex 0.000736 0.000201 0.000000
vertex 0.001030 0.000085 0.000000
endloop
endfacet
facet normal -0.324267 -0.945965 0.000000
outer loop
vertex 0.001030 0.000085 0.000000
vertex 0.001128 0.000052 0.000000
vertex 0.001128 0.000052 0.150000
endloop
endfacet
facet normal -0.324267 -0.945965 0.000000
outer loop
vertex 0.001030 0.000085 0.000000
vertex 0.001128 0.000052 0.150000
vertex 0.001030 0.000085 0.150000
endloop
endfacet
facet normal -0.425293 -0.905056 0.000000
outer loop
vertex 0.000443 0.000313 0.150000
vertex 0.000443 0.000313 0.000000
vertex 0.000530 0.000273 0.000000
endloop
endfacet
facet normal -0.351375 -0.936235 0.000000
outer loop
vertex 0.000530 0.000273 0.000000
vertex 0.001030 0.000085 0.000000
vertex 0.001030 0.000085 0.150000
endloop
endfacet
facet normal -0.366981 -0.930228 0.000060
outer loop
vertex 0.000530 0.000273 0.000000
vertex 0.001030 0.000085 0.150000
vertex 0.000736 0.000201 0.150000
endloop
endfacet
facet normal -0.425292 -0.905056 0.000000
outer loop
vertex 0.000530 0.000273 0.150000
vertex 0.000443 0.000313 0.150000
vertex 0.000530 0.000273 0.000000
endloop
endfacet
facet normal -0.328550 -0.944487 0.000000
outer loop
vertex 0.000530 0.000273 0.000000
vertex 0.000736 0.000201 0.150000
vertex 0.000530 0.000273 0.150000
endloop
endfacet
facet normal -0.697821 -0.716272 0.000000
outer loop
vertex 0.000254 0.000458 0.150000
vertex 0.000254 0.000458 0.000000
vertex 0.000307 0.000407 0.000000
endloop
endfacet
facet normal -0.697821 -0.716272 0.000000
outer loop
vertex 0.000254 0.000458 0.150000
vertex 0.000307 0.000407 0.000000
vertex 0.000307 0.000407 0.150000
endloop
endfacet
facet normal 0.000000 0.000000 1.000000
outer loop
vertex 0.001708 0.004171 0.150000
vertex 0.001692 0.004196 0.150000
vertex 0.001649 0.004263 0.150000
endloop
endfacet
facet normal 0.039282 0.000000 0.999228
outer loop
vertex 0.001649 0.004263 0.150000
vertex 0.001619 0.004309 0.150000
vertex 0.001584 0.004360 0.150000
endloop
endfacet
facet normal 0.000000 0.000000 1.000000
outer loop
vertex 0.001584 0.004360 0.150000
vertex 0.001544 0.004416 0.150000
vertex 0.001502 0.004474 0.150000
endloop
endfacet
facet normal -0.012029 0.000000 0.999928
outer loop
vertex 0.001502 0.004474 0.150000
vertex 0.001457 0.004533 0.150000
vertex 0.001409 0.004591 0.150000
endloop
endfacet
facet normal -0.005653 0.000000 0.999984
outer loop
vertex 0.001409 0.004591 0.150000
vertex 0.001360 0.004647 0.150000
vertex 0.001226 0.004788 0.150000
endloop
endfacet
facet normal 0.009547 0.000000 0.999954
outer loop
vertex 0.001226 0.004788 0.150000
vertex 0.001138 0.004884 0.150000
vertex 0.001114 0.004908 0.150000
endloop
endfacet
facet normal -0.004793 0.000000 0.999988
outer loop
vertex 0.001114 0.004908 0.150000
vertex 0.001090 0.004928 0.150000
vertex 0.001065 0.004946 0.150000
endloop
endfacet
facet normal 0.003874 0.000000 0.999993
outer loop
vertex 0.001065 0.004946 0.150000
vertex 0.001037 0.004960 0.150000
vertex 0.001006 0.004973 0.150000
endloop
endfacet
facet normal 0.000000 0.000000 1.000000
outer loop
vertex 0.001006 0.004973 0.150000
vertex 0.000928 0.004992 0.150000
vertex 0.000871 0.004992 0.150000
endloop
endfacet
facet normal 0.000000 0.000000 1.000000
outer loop
vertex 0.000871 0.004992 0.150000
vertex 0.000795 0.004977 0.150000
vertex 0.000606 0.004915 0.150000
endloop
endfacet
facet normal 0.000000 0.000000 1.000000
outer loop
vertex 0.000606 0.004915 0.150000
vertex 0.000501 0.004873 0.150000
vertex 0.000293 0.004781 0.150000
endloop
endfacet
facet normal -0.000063 0.000000 1.000000
outer loop
vertex 0.000293 0.004781 0.150000
vertex 0.000000 0.004638 0.150000
vertex 0.000029 0.001487 0.150000
endloop
endfacet
facet normal 0.000000 0.000000 1.000000
outer loop
vertex 0.000029 0.001487 0.150000
vertex 0.000039 0.001171 0.150000
vertex 0.000052 0.000945 0.150000
endloop
endfacet
facet normal 0.001636 0.000000 0.999999
outer loop
vertex 0.000052 0.000945 0.150000
vertex 0.000067 0.000832 0.150000
vertex 0.000083 0.000781 0.150000
endloop
endfacet
facet normal -0.016684 0.000000 0.999861
outer loop
vertex 0.000083 0.000781 0.150000
vertex 0.000101 0.000729 0.150000
vertex 0.000121 0.000675 0.150000
endloop
endfacet
facet normal 0.000000 0.000000 1.000000
outer loop
vertex 0.000121 0.000675 0.150000
vertex 0.000175 0.000565 0.150000
vertex 0.000211 0.000511 0.150000
endloop
endfacet
facet normal 0.000000 0.000000 1.000000
outer loop
vertex 0.000211 0.000511 0.150000
vertex 0.000254 0.000458 0.150000
vertex 0.000307 0.000407 0.150000
endloop
endfacet
facet normal 0.000000 0.000000 1.000000
outer loop
vertex 0.000307 0.000407 0.150000
vertex 0.000369 0.000358 0.150000
vertex 0.000443 0.000313 0.150000
endloop
endfacet
facet normal 0.000000 0.000000 1.000000
outer loop
vertex 0.000443 0.000313 0.150000
vertex 0.000530 0.000273 0.150000
vertex 0.000736 0.000201 0.150000
endloop
endfacet
facet normal 0.000610 0.000000 1.000000
outer loop
vertex 0.000736 0.000201 0.150000
vertex 0.001030 0.000085 0.150000
vertex 0.001128 0.000052 0.150000
endloop
endfacet
facet normal 0.000000 0.000000 1.000000
outer loop
vertex 0.001128 0.000052 0.150000
vertex 0.001229 0.000025 0.150000
vertex 0.001336 0.000007 0.150000
endloop
endfacet
facet normal 0.000000 0.000000 1.000000
outer loop
vertex 0.001336 0.000007 0.150000
vertex 0.001451 0.000000 0.150000
vertex 0.001575 0.000007 0.150000
endloop
endfacet
facet normal 0.000000 0.000000 1.000000
outer loop
vertex 0.001575 0.000007 0.150000
vertex 0.001712 0.000031 0.150000
vertex 0.001862 0.000073 0.150000
endloop
endfacet
facet normal -0.000319 0.000000 1.000000
outer loop
vertex 0.001862 0.000073 0.150000
vertex 0.002623 0.000390 0.150000
vertex 0.002850 0.000514 0.150000
endloop
endfacet
facet normal -0.001109 0.000000 0.999999
outer loop
vertex 0.002850 0.000514 0.150000
vertex 0.002947 0.000585 0.150000
vertex 0.003034 0.000665 0.150000
endloop
endfacet
facet normal 0.000000 0.000000 1.000000
outer loop
vertex 0.003034 0.000665 0.150000
vertex 0.003112 0.000758 0.150000
vertex 0.003182 0.000867 0.150000
endloop
endfacet
facet normal 0.000000 0.000000 1.000000
outer loop
vertex 0.003182 0.000867 0.150000
vertex 0.003243 0.000993 0.150000
vertex 0.003534 0.001958 0.150000
endloop
endfacet
facet normal 0.000000 0.000000 1.000000
outer loop
vertex 0.003534 0.001958 0.150000
vertex 0.003563 0.002197 0.150000
vertex 0.003563 0.002315 0.150000
endloop
endfacet
facet normal -0.002636 0.000000 0.999997
outer loop
vertex 0.003563 0.002315 0.150000
vertex 0.003553 0.002433 0.150000
vertex 0.003531 0.002554 0.150000
endloop
endfacet
facet normal 0.005699 0.000000 0.999984
outer loop
vertex 0.003531 0.002554 0.150000
vertex 0.003496 0.002677 0.150000
vertex 0.003458 0.002794 0.150000
endloop
endfacet
facet normal 0.000000 0.000000 1.000000
outer loop
vertex 0.003425 0.002898 0.150000
vertex 0.003396 0.002989 0.150000
vertex 0.003370 0.003069 0.150000
endloop
endfacet
facet normal -0.020882 0.000000 0.999782
outer loop
vertex 0.003531 0.002554 0.150000
vertex 0.003458 0.002794 0.150000
vertex 0.003425 0.002898 0.150000
endloop
endfacet
facet normal -0.000392 0.000000 1.000000
outer loop
vertex 0.003534 0.001958 0.150000
vertex 0.003563 0.002315 0.150000
vertex 0.003531 0.002554 0.150000
endloop
endfacet
facet normal 0.000323 0.000000 1.000000
outer loop
vertex 0.003034 0.000665 0.150000
vertex 0.003182 0.000867 0.150000
vertex 0.003534 0.001958 0.150000
endloop
endfacet
facet normal 0.000000 0.000000 1.000000
outer loop
vertex 0.001862 0.000073 0.150000
vertex 0.002850 0.000514 0.150000
vertex 0.003034 0.000665 0.150000
endloop
endfacet
facet normal 0.000000 0.000000 1.000000
outer loop
vertex 0.001336 0.000007 0.150000
vertex 0.001575 0.000007 0.150000
vertex 0.001862 0.000073 0.150000
endloop
endfacet
facet normal 0.000067 0.000000 1.000000
outer loop
vertex 0.000736 0.000201 0.150000
vertex 0.001128 0.000052 0.150000
vertex 0.001336 0.000007 0.150000
endloop
endfacet
facet normal 0.000000 0.000000 1.000000
outer loop
vertex 0.000307 0.000407 0.150000
vertex 0.000443 0.000313 0.150000
vertex 0.000736 0.000201 0.150000
endloop
endfacet
facet normal 0.000000 0.000000 1.000000
outer loop
vertex 0.000121 0.000675 0.150000
vertex 0.000211 0.000511 0.150000
vertex 0.000307 0.000407 0.150000
endloop
endfacet
facet normal 0.000000 0.000000 1.000000
outer loop
vertex 0.000052 0.000945 0.150000
vertex 0.000083 0.000781 0.150000
vertex 0.000121 0.000675 0.150000
endloop
endfacet
facet normal 0.000466 0.000000 1.000000
outer loop
vertex 0.000293 0.004781 0.150000
vertex 0.000029 0.001487 0.150000
vertex 0.000052 0.000945 0.150000
endloop
endfacet
facet normal 0.000000 0.000000 1.000000
outer loop
vertex 0.000871 0.004992 0.150000
vertex 0.000606 0.004915 0.150000
vertex 0.000293 0.004781 0.150000
endloop
endfacet
facet normal -0.000179 0.000000 1.000000
outer loop
vertex 0.001065 0.004946 0.150000
vertex 0.001006 0.004973 0.150000
vertex 0.000871 0.004992 0.150000
endloop
endfacet
facet normal 0.000000 0.000000 1.000000
outer loop
vertex 0.001226 0.004788 0.150000
vertex 0.001114 0.004908 0.150000
vertex 0.001065 0.004946 0.150000
endloop
endfacet
facet normal 0.000000 0.000000 1.000000
outer loop
vertex 0.001502 0.004474 0.150000
vertex 0.001409 0.004591 0.150000
vertex 0.001226 0.004788 0.150000
endloop
endfacet
facet normal 0.000000 0.000000 1.000000
outer loop
vertex 0.001649 0.004263 0.150000
vertex 0.001584 0.004360 0.150000
vertex 0.001502 0.004474 0.150000
endloop
endfacet
facet normal 0.000000 0.000000 1.000000
outer loop
vertex 0.002784 0.003653 0.150000
vertex 0.002636 0.003728 0.150000
vertex 0.001708 0.004171 0.150000
endloop
endfacet
facet normal 0.000000 0.000000 1.000000
outer loop
vertex 0.001708 0.004171 0.150000
vertex 0.001649 0.004263 0.150000
vertex 0.001502 0.004474 0.150000
endloop
endfacet
facet normal 0.001015 0.000000 0.999999
outer loop
vertex 0.001502 0.004474 0.150000
vertex 0.001226 0.004788 0.150000
vertex 0.001065 0.004946 0.150000
endloop
endfacet
facet normal 0.000000 0.000000 1.000000
outer loop
vertex 0.001065 0.004946 0.150000
vertex 0.000871 0.004992 0.150000
vertex 0.000293 0.004781 0.150000
endloop
endfacet
facet normal 0.000219 0.000000 1.000000
outer loop
vertex 0.000293 0.004781 0.150000
vertex 0.000052 0.000945 0.150000
vertex 0.000121 0.000675 0.150000
endloop
endfacet
facet normal 0.000095 0.000000 1.000000
outer loop
vertex 0.000121 0.000675 0.150000
vertex 0.000307 0.000407 0.150000
vertex 0.000736 0.000201 0.150000
endloop
endfacet
facet normal 0.000000 0.000000 1.000000
outer loop
vertex 0.000736 0.000201 0.150000
vertex 0.001336 0.000007 0.150000
vertex 0.001862 0.000073 0.150000
endloop
endfacet
facet normal 0.000024 0.000000 1.000000
outer loop
vertex 0.001862 0.000073 0.150000
vertex 0.003034 0.000665 0.150000
vertex 0.003534 0.001958 0.150000
endloop
endfacet
facet normal 0.000350 0.000000 1.000000
outer loop
vertex 0.003534 0.001958 0.150000
vertex 0.003531 0.002554 0.150000
vertex 0.003425 0.002898 0.150000
endloop
endfacet
facet normal 0.004938 0.000000 0.999988
outer loop
vertex 0.003425 0.002898 0.150000
vertex 0.003370 0.003069 0.150000
vertex 0.003345 0.003139 0.150000
endloop
endfacet
facet normal -0.002151 0.000000 0.999998
outer loop
vertex 0.003345 0.003139 0.150000
vertex 0.003294 0.003256 0.150000
vertex 0.003265 0.003306 0.150000
endloop
endfacet
facet normal 0.000000 0.000000 1.000000
outer loop
vertex 0.003265 0.003306 0.150000
vertex 0.003232 0.003351 0.150000
vertex 0.003195 0.003393 0.150000
endloop
endfacet
facet normal -0.000627 0.000000 1.000000
outer loop
vertex 0.003195 0.003393 0.150000
vertex 0.003097 0.003475 0.150000
vertex 0.003022 0.003523 0.150000
endloop
endfacet
facet normal 0.000000 0.000000 1.000000
outer loop
vertex 0.003022 0.003523 0.150000
vertex 0.002915 0.003584 0.150000
vertex 0.002784 0.003653 0.150000
endloop
endfacet
facet normal -0.000411 0.000000 1.000000
outer loop
vertex 0.001708 0.004171 0.150000
vertex 0.001502 0.004474 0.150000
vertex 0.001065 0.004946 0.150000
endloop
endfacet
facet normal 0.000000 0.000000 1.000000
outer loop
vertex 0.003022 0.003523 0.150000
vertex 0.002784 0.003653 0.150000
vertex 0.001708 0.004171 0.150000
endloop
endfacet
facet normal 0.000612 0.000000 1.000000
outer loop
vertex 0.003265 0.003306 0.150000
vertex 0.003195 0.003393 0.150000
vertex 0.003022 0.003523 0.150000
endloop
endfacet
facet normal 0.000618 0.000000 1.000000
outer loop
vertex 0.003425 0.002898 0.150000
vertex 0.003345 0.003139 0.150000
vertex 0.003265 0.003306 0.150000
endloop
endfacet
facet normal 0.000000 0.000000 1.000000
outer loop
vertex 0.001862 0.000073 0.150000
vertex 0.003534 0.001958 0.150000
vertex 0.003425 0.002898 0.150000
endloop
endfacet
facet normal -0.000016 0.000000 1.000000
outer loop
vertex 0.000121 0.000675 0.150000
vertex 0.000736 0.000201 0.150000
vertex 0.001862 0.000073 0.150000
endloop
endfacet
facet normal -0.000037 0.000000 1.000000
outer loop
vertex 0.001065 0.004946 0.150000
vertex 0.000293 0.004781 0.150000
vertex 0.000121 0.000675 0.150000
endloop
endfacet
facet normal 0.000000 0.000000 1.000000
outer loop
vertex 0.003265 0.003306 0.150000
vertex 0.003022 0.003523 0.150000
vertex 0.001708 0.004171 0.150000
endloop
endfacet
facet normal 0.000000 0.000000 1.000000
outer loop
vertex 0.001708 0.004171 0.150000
vertex 0.001065 0.004946 0.150000
vertex 0.000121 0.000675 0.150000
endloop
endfacet
facet normal 0.000000 0.000000 1.000000
outer loop
vertex 0.000121 0.000675 0.150000
vertex 0.001862 0.000073 0.150000
vertex 0.003425 0.002898 0.150000
endloop
endfacet
facet normal 0.000000 0.000000 1.000000
outer loop
vertex 0.003425 0.002898 0.150000
vertex 0.003265 0.003306 0.150000
vertex 0.001708 0.004171 0.150000
endloop
endfacet
facet normal -0.000011 0.000000 1.000000
outer loop
vertex 0.000121 0.000675 0.150000
vertex 0.003425 0.002898 0.150000
vertex 0.001708 0.004171 0.150000
endloop
endfacet
facet normal -0.312183 0.950022 0.000000
outer loop
vertex 0.000795 0.004977 0.150000
vertex 0.000795 0.004977 0.000000
vertex 0.000606 0.004915 0.000000
endloop
endfacet
facet normal -0.312183 0.950022 0.000000
outer loop
vertex 0.000795 0.004977 0.150000
vertex 0.000606 0.004915 0.000000
vertex 0.000606 0.004915 0.150000
endloop
endfacet
facet normal 0.000000 0.000000 1.000000
outer loop
vertex 0.001502 0.004474 0.000000
vertex 0.001457 0.004533 0.000000
vertex 0.001409 0.004591 0.000000
endloop
endfacet
facet normal 0.775669 0.631140 0.000000
outer loop
vertex 0.001409 0.004591 0.000000
vertex 0.001409 0.004591 0.150000
vertex 0.001457 0.004533 0.150000
endloop
endfacet
facet normal 0.792476 0.609903 -0.000014
outer loop
vertex 0.001409 0.004591 0.000000
vertex 0.001457 0.004533 0.150000
vertex 0.001502 0.004474 0.150000
endloop
endfacet
facet normal 0.000000 0.000000 1.000000
outer loop
vertex 0.001544 0.004416 0.000000
vertex 0.001502 0.004474 0.000000
vertex 0.001409 0.004591 0.000000
endloop
endfacet
facet normal 0.000000 0.000000 1.000000
outer loop
vertex 0.001619 0.004309 0.000000
vertex 0.001584 0.004360 0.000000
vertex 0.001544 0.004416 0.000000
endloop
endfacet
facet normal 0.000000 0.000000 1.000000
outer loop
vertex 0.001692 0.004196 0.000000
vertex 0.001649 0.004263 0.000000
vertex 0.001619 0.004309 0.000000
endloop
endfacet
facet normal 0.851285 0.524704 0.000000
outer loop
vertex 0.001708 0.004171 0.150000
vertex 0.001708 0.004171 0.000000
vertex 0.001692 0.004196 0.000000
endloop
endfacet
facet normal 0.851279 0.524713 0.000000
outer loop
vertex 0.001692 0.004196 0.150000
vertex 0.001708 0.004171 0.150000
vertex 0.001692 0.004196 0.000000
endloop
endfacet
facet normal 0.000000 0.000000 1.000000
outer loop
vertex 0.001692 0.004196 0.000000
vertex 0.001619 0.004309 0.000000
vertex 0.001544 0.004416 0.000000
endloop
endfacet
facet normal 0.791294 0.611435 -0.000012
outer loop
vertex 0.001544 0.004416 0.000000
vertex 0.001409 0.004591 0.000000
vertex 0.001502 0.004474 0.150000
endloop
endfacet
facet normal 0.805892 0.592063 0.000000
outer loop
vertex 0.001544 0.004416 0.000000
vertex 0.001502 0.004474 0.150000
vertex 0.001544 0.004416 0.150000
endloop
endfacet
facet normal 0.830237 0.557410 0.000000
outer loop
vertex 0.001692 0.004196 0.150000
vertex 0.001692 0.004196 0.000000
vertex 0.001544 0.004416 0.000000
endloop
endfacet
facet normal 0.842357 0.538920 -0.000039
outer loop
vertex 0.001649 0.004263 0.150000
vertex 0.001692 0.004196 0.150000
vertex 0.001544 0.004416 0.000000
endloop
endfacet
facet normal 0.816820 0.576893 0.000000
outer loop
vertex 0.001544 0.004416 0.000000
vertex 0.001544 0.004416 0.150000
vertex 0.001584 0.004360 0.150000
endloop
endfacet
facet normal 0.833473 0.552561 -0.000019
outer loop
vertex 0.001619 0.004309 0.150000
vertex 0.001649 0.004263 0.150000
vertex 0.001544 0.004416 0.000000
endloop
endfacet
facet normal 0.825866 0.563867 -0.000007
outer loop
vertex 0.001584 0.004360 0.150000
vertex 0.001619 0.004309 0.150000
vertex 0.001544 0.004416 0.000000
endloop
endfacet
facet normal 0.810699 0.585463 0.000000
outer loop
vertex 0.003265 0.003306 0.150000
vertex 0.003265 0.003306 0.000000
vertex 0.003232 0.003351 0.000000
endloop
endfacet
facet normal 0.810709 0.585450 0.000000
outer loop
vertex 0.003265 0.003306 0.150000
vertex 0.003232 0.003351 0.000000
vertex 0.003232 0.003351 0.150000
endloop
endfacet
facet normal 0.480409 -0.877044 0.000000
outer loop
vertex 0.002850 0.000514 0.000000
vertex 0.002850 0.000514 0.150000
vertex 0.002623 0.000390 0.150000
endloop
endfacet
facet normal 0.480409 -0.877044 0.000000
outer loop
vertex 0.002850 0.000514 0.000000
vertex 0.002623 0.000390 0.150000
vertex 0.002623 0.000390 0.000000
endloop
endfacet
facet normal -0.191207 0.981550 0.000000
outer loop
vertex 0.000871 0.004992 0.150000
vertex 0.000871 0.004992 0.000000
vertex 0.000795 0.004977 0.000000
endloop
endfacet
facet normal -0.191207 0.981550 0.000000
outer loop
vertex 0.000871 0.004992 0.150000
vertex 0.000795 0.004977 0.000000
vertex 0.000795 0.004977 0.150000
endloop
endfacet
facet normal 0.917302 0.398192 0.000000
outer loop
vertex 0.003345 0.003139 0.150000
vertex 0.003345 0.003139 0.000000
vertex 0.003294 0.003256 0.000000
endloop
endfacet
facet normal 0.917304 0.398187 0.000000
outer loop
vertex 0.003345 0.003139 0.150000
vertex 0.003294 0.003256 0.000000
vertex 0.003294 0.003256 0.150000
endloop
endfacet
facet normal 0.271701 -0.962382 0.000000
outer loop
vertex 0.001712 0.000031 0.150000
vertex 0.001712 0.000031 0.000000
vertex 0.001862 0.000073 0.000000
endloop
endfacet
facet normal 0.271701 -0.962382 0.000000
outer loop
vertex 0.001712 0.000031 0.150000
vertex 0.001862 0.000073 0.000000
vertex 0.001862 0.000073 0.150000
endloop
endfacet
facet normal 0.744588 0.667525 0.000000
outer loop
vertex 0.003232 0.003351 0.150000
vertex 0.003232 0.003351 0.000000
vertex 0.003195 0.003393 0.000000
endloop
endfacet
facet normal 0.744591 0.667521 0.000000
outer loop
vertex 0.003232 0.003351 0.150000
vertex 0.003195 0.003393 0.000000
vertex 0.003195 0.003393 0.150000
endloop
endfacet
facet normal 0.000000 0.000000 -1.000000
outer loop
vertex 0.003458 0.002794 0.000000
vertex 0.003425 0.002898 0.000000
vertex 0.003396 0.002989 0.000000
endloop
endfacet
facet normal 0.943047 0.332659 0.000000
outer loop
vertex 0.003370 0.003069 0.000000
vertex 0.003345 0.003139 0.000000
vertex 0.003345 0.003139 0.150000
endloop
endfacet
facet normal 0.000000 0.000000 -1.000000
outer loop
vertex 0.003496 0.002677 0.000000
vertex 0.003458 0.002794 0.000000
vertex 0.003396 0.002989 0.000000
endloop
endfacet
facet normal 0.950367 0.311130 0.000011
outer loop
vertex 0.003396 0.002989 0.000000
vertex 0.003370 0.003069 0.000000
vertex 0.003345 0.003139 0.150000
endloop
endfacet
facet normal 0.943050 0.332649 -0.000013
outer loop
vertex 0.003396 0.002989 0.000000
vertex 0.003345 0.003139 0.150000
vertex 0.003370 0.003069 0.150000
endloop
endfacet
facet normal 0.962159 0.272490 0.000000
outer loop
vertex 0.003531 0.002554 0.150000
vertex 0.003531 0.002554 0.000000
vertex 0.003496 0.002677 0.000000
endloop
endfacet
facet normal 0.951956 0.306234 0.000003
outer loop
vertex 0.003496 0.002677 0.000000
vertex 0.003396 0.002989 0.000000
vertex 0.003370 0.003069 0.150000
endloop
endfacet
facet normal 0.950365 0.311138 -0.000011
outer loop
vertex 0.003496 0.002677 0.000000
vertex 0.003370 0.003069 0.150000
vertex 0.003396 0.002989 0.150000
endloop
endfacet
facet normal 0.962157 0.272496 0.000000
outer loop
vertex 0.003496 0.002677 0.150000
vertex 0.003531 0.002554 0.150000
vertex 0.003496 0.002677 0.000000
endloop
endfacet
facet normal 0.950354 0.311171 0.000000
outer loop
vertex 0.003458 0.002794 0.150000
vertex 0.003496 0.002677 0.150000
vertex 0.003496 0.002677 0.000000
endloop
endfacet
facet normal 0.953086 0.302698 0.000008
outer loop
vertex 0.003496 0.002677 0.000000
vertex 0.003396 0.002989 0.150000
vertex 0.003425 0.002898 0.150000
endloop
endfacet
facet normal 0.952759 0.303727 0.000006
outer loop
vertex 0.003425 0.002898 0.150000
vertex 0.003458 0.002794 0.150000
vertex 0.003496 0.002677 0.000000
endloop
endfacet
facet normal -0.773527 -0.633764 0.000000
outer loop
vertex 0.000211 0.000511 0.150000
vertex 0.000211 0.000511 0.000000
vertex 0.000254 0.000458 0.000000
endloop
endfacet
facet normal -0.773526 -0.633764 0.000000
outer loop
vertex 0.000211 0.000511 0.150000
vertex 0.000254 0.000458 0.000000
vertex 0.000254 0.000458 0.150000
endloop
endfacet
facet normal 0.999990 -0.004406 0.000000
outer loop
vertex 0.003563 0.002197 0.150000
vertex 0.003563 0.002197 0.000000
vertex 0.003563 0.002315 0.000000
endloop
endfacet
facet normal 0.999990 -0.004406 0.000000
outer loop
vertex 0.003563 0.002197 0.150000
vertex 0.003563 0.002315 0.000000
vertex 0.003563 0.002315 0.150000
endloop
endfacet
facet normal -0.611177 -0.791494 0.000000
outer loop
vertex 0.000307 0.000407 0.150000
vertex 0.000307 0.000407 0.000000
vertex 0.000369 0.000358 0.000000
endloop
endfacet
facet normal -0.611177 -0.791494 0.000000
outer loop
vertex 0.000307 0.000407 0.150000
vertex 0.000369 0.000358 0.000000
vertex 0.000369 0.000358 0.150000
endloop
endfacet
facet normal -0.056895 -0.998380 0.000000
outer loop
vertex 0.001336 0.000007 0.150000
vertex 0.001336 0.000007 0.000000
vertex 0.001451 0.000000 0.000000
endloop
endfacet
facet normal -0.056895 -0.998380 0.000000
outer loop
vertex 0.001336 0.000007 0.150000
vertex 0.001451 0.000000 0.000000
vertex 0.001451 0.000000 0.150000
endloop
endfacet
facet normal 0.171053 -0.985262 0.000000
outer loop
vertex 0.001575 0.000007 0.150000
vertex 0.001575 0.000007 0.000000
vertex 0.001712 0.000031 0.000000
endloop
endfacet
facet normal 0.171053 -0.985262 0.000000
outer loop
vertex 0.001575 0.000007 0.150000
vertex 0.001712 0.000031 0.000000
vertex 0.001712 0.000031 0.150000
endloop
endfacet
facet normal 0.642630 0.766177 0.000000
outer loop
vertex 0.003195 0.003393 0.000000
vertex 0.003097 0.003475 0.000000
vertex 0.003097 0.003475 0.150000
endloop
endfacet
facet normal 0.642630 0.766177 0.000000
outer loop
vertex 0.003195 0.003393 0.000000
vertex 0.003097 0.003475 0.150000
vertex 0.003195 0.003393 0.150000
endloop
endfacet
facet normal 0.058925 -0.998262 0.000000
outer loop
vertex 0.001451 0.000000 0.150000
vertex 0.001451 0.000000 0.000000
vertex 0.001575 0.000007 0.000000
endloop
endfacet
facet normal 0.058925 -0.998262 0.000000
outer loop
vertex 0.001451 0.000000 0.150000
vertex 0.001575 0.000007 0.000000
vertex 0.001575 0.000007 0.150000
endloop
endfacet
facet normal 0.957542 -0.288294 0.000000
outer loop
vertex 0.003243 0.000993 0.000000
vertex 0.003534 0.001958 0.000000
vertex 0.003534 0.001958 0.150000
endloop
endfacet
facet normal 0.957542 -0.288294 0.000000
outer loop
vertex 0.003243 0.000993 0.000000
vertex 0.003534 0.001958 0.150000
vertex 0.003243 0.000993 0.150000
endloop
endfacet
facet normal -0.991347 -0.131269 0.000000
outer loop
vertex 0.000052 0.000945 0.150000
vertex 0.000052 0.000945 0.000000
vertex 0.000067 0.000832 0.000000
endloop
endfacet
facet normal -0.991347 -0.131269 0.000000
outer loop
vertex 0.000052 0.000945 0.150000
vertex 0.000067 0.000832 0.000000
vertex 0.000067 0.000832 0.150000
endloop
endfacet
facet normal -0.950134 -0.311841 0.000000
outer loop
vertex 0.000083 0.000781 0.150000
vertex 0.000067 0.000832 0.150000
vertex 0.000067 0.000832 0.000000
endloop
endfacet
facet normal 0.000000 0.000000 1.000000
outer loop
vertex 0.000067 0.000832 0.000000
vertex 0.000083 0.000781 0.000000
vertex 0.000101 0.000729 0.000000
endloop
endfacet
facet normal -0.935384 -0.353633 0.000000
outer loop
vertex 0.000101 0.000729 0.000000
vertex 0.000121 0.000675 0.000000
vertex 0.000121 0.000675 0.150000
endloop
endfacet
facet normal -0.946891 -0.321556 -0.000004
outer loop
vertex 0.000101 0.000729 0.150000
vertex 0.000083 0.000781 0.150000
vertex 0.000067 0.000832 0.000000
endloop
endfacet
facet normal -0.935384 -0.353633 0.000000
outer loop
vertex 0.000101 0.000729 0.000000
vertex 0.000121 0.000675 0.150000
vertex 0.000101 0.000729 0.150000
endloop
endfacet
facet normal -0.948487 -0.316817 0.000000
outer loop
vertex 0.000067 0.000832 0.000000
vertex 0.000101 0.000729 0.000000
vertex 0.000101 0.000729 0.150000
endloop
endfacet
facet normal 0.841971 -0.539523 0.000000
outer loop
vertex 0.003112 0.000758 0.150000
vertex 0.003112 0.000758 0.000000
vertex 0.003182 0.000867 0.000000
endloop
endfacet
facet normal 0.841969 -0.539525 0.000000
outer loop
vertex 0.003112 0.000758 0.150000
vertex 0.003182 0.000867 0.000000
vertex 0.003182 0.000867 0.150000
endloop
endfacet
facet normal 0.472621 0.881266 0.000000
outer loop
vertex 0.001065 0.004946 0.150000
vertex 0.001065 0.004946 0.000000
vertex 0.001037 0.004960 0.000000
endloop
endfacet
facet normal 0.472619 0.881267 0.000000
outer loop
vertex 0.001065 0.004946 0.150000
vertex 0.001037 0.004960 0.000000
vertex 0.001037 0.004960 0.150000
endloop
endfacet
facet normal -0.835084 -0.550123 0.000000
outer loop
vertex 0.000175 0.000565 0.150000
vertex 0.000175 0.000565 0.000000
vertex 0.000211 0.000511 0.000000
endloop
endfacet
facet normal -0.835084 -0.550123 0.000000
outer loop
vertex 0.000175 0.000565 0.150000
vertex 0.000211 0.000511 0.000000
vertex 0.000211 0.000511 0.150000
endloop
endfacet
facet normal -0.000983 0.999999 0.000000
outer loop
vertex 0.000928 0.004992 0.150000
vertex 0.000928 0.004992 0.000000
vertex 0.000871 0.004992 0.000000
endloop
endfacet
facet normal -0.000983 0.999999 0.000000
outer loop
vertex 0.000928 0.004992 0.150000
vertex 0.000871 0.004992 0.000000
vertex 0.000871 0.004992 0.150000
endloop
endfacet
facet normal 0.983655 0.180065 0.000000
outer loop
vertex 0.003553 0.002433 0.150000
vertex 0.003553 0.002433 0.000000
vertex 0.003531 0.002554 0.000000
endloop
endfacet
facet normal 0.983656 0.180059 0.000000
outer loop
vertex 0.003553 0.002433 0.150000
vertex 0.003531 0.002554 0.000000
vertex 0.003531 0.002554 0.150000
endloop
endfacet
facet normal 0.996303 0.085904 0.000000
outer loop
vertex 0.003563 0.002315 0.150000
vertex 0.003563 0.002315 0.000000
vertex 0.003553 0.002433 0.000000
endloop
endfacet
facet normal 0.996303 0.085911 0.000000
outer loop
vertex 0.003563 0.002315 0.150000
vertex 0.003553 0.002433 0.000000
vertex 0.003553 0.002433 0.150000
endloop
endfacet
facet normal 0.000000 0.000000 1.000000
outer loop
vertex 0.001226 0.004788 0.000000
vertex 0.001138 0.004884 0.000000
vertex 0.001114 0.004908 0.000000
endloop
endfacet
facet normal 0.700657 0.713498 0.000000
outer loop
vertex 0.001114 0.004908 0.000000
vertex 0.001114 0.004908 0.150000
vertex 0.001138 0.004884 0.150000
endloop
endfacet
facet normal 0.737747 0.675077 -0.000012
outer loop
vertex 0.001114 0.004908 0.000000
vertex 0.001138 0.004884 0.150000
vertex 0.001226 0.004788 0.150000
endloop
endfacet
facet normal 0.000000 0.000000 1.000000
outer loop
vertex 0.001409 0.004591 0.000000
vertex 0.001360 0.004647 0.000000
vertex 0.001226 0.004788 0.000000
endloop
endfacet
facet normal 0.730228 0.683204 0.000000
outer loop
vertex 0.001226 0.004788 0.000000
vertex 0.001114 0.004908 0.000000
vertex 0.001226 0.004788 0.150000
endloop
endfacet
facet normal 0.754100 0.656760 0.000000
outer loop
vertex 0.001360 0.004647 0.150000
vertex 0.001409 0.004591 0.150000
vertex 0.001409 0.004591 0.000000
endloop
endfacet
facet normal 0.724047 0.689751 0.000000
outer loop
vertex 0.001226 0.004788 0.000000
vertex 0.001226 0.004788 0.150000
vertex 0.001360 0.004647 0.150000
endloop
endfacet
facet normal 0.732507 0.680760 -0.000016
outer loop
vertex 0.001360 0.004647 0.150000
vertex 0.001409 0.004591 0.000000
vertex 0.001226 0.004788 0.000000
endloop
endfacet
facet normal -0.165710 -0.986175 0.000000
outer loop
vertex 0.001229 0.000025 0.150000
vertex 0.001229 0.000025 0.000000
vertex 0.001336 0.000007 0.000000
endloop
endfacet
facet normal -0.165710 -0.986175 0.000000
outer loop
vertex 0.001229 0.000025 0.150000
vertex 0.001336 0.000007 0.000000
vertex 0.001336 0.000007 0.150000
endloop
endfacet
facet normal 0.383550 -0.923520 0.000000
outer loop
vertex 0.001862 0.000073 0.000000
vertex 0.002623 0.000390 0.000000
vertex 0.002623 0.000390 0.150000
endloop
endfacet
facet normal 0.383549 -0.923520 0.000000
outer loop
vertex 0.001862 0.000073 0.000000
vertex 0.002623 0.000390 0.150000
vertex 0.001862 0.000073 0.150000
endloop
endfacet
facet normal 0.865025 0.501730 0.000000
outer loop
vertex 0.003294 0.003256 0.150000
vertex 0.003294 0.003256 0.000000
vertex 0.003265 0.003306 0.000000
endloop
endfacet
facet normal 0.865025 0.501730 0.000000
outer loop
vertex 0.003294 0.003256 0.150000
vertex 0.003265 0.003306 0.000000
vertex 0.003265 0.003306 0.150000
endloop
endfacet
facet normal -0.257175 -0.966365 0.000000
outer loop
vertex 0.001128 0.000052 0.150000
vertex 0.001128 0.000052 0.000000
vertex 0.001229 0.000025 0.000000
endloop
endfacet
facet normal -0.257175 -0.966365 0.000000
outer loop
vertex 0.001128 0.000052 0.150000
vertex 0.001229 0.000025 0.000000
vertex 0.001229 0.000025 0.150000
endloop
endfacet
facet normal 0.370216 0.928946 0.000000
outer loop
vertex 0.001037 0.004960 0.150000
vertex 0.001037 0.004960 0.000000
vertex 0.001006 0.004973 0.000000
endloop
endfacet
facet normal 0.370218 0.928945 0.000000
outer loop
vertex 0.001037 0.004960 0.150000
vertex 0.001006 0.004973 0.000000
vertex 0.001006 0.004973 0.150000
endloop
endfacet
facet normal -0.998466 -0.055361 0.000000
outer loop
vertex 0.000039 0.001171 0.000000
vertex 0.000052 0.000945 0.000000
vertex 0.000052 0.000945 0.150000
endloop
endfacet
facet normal -0.998466 -0.055361 0.000000
outer loop
vertex 0.000039 0.001171 0.000000
vertex 0.000052 0.000945 0.150000
vertex 0.000039 0.001171 0.150000
endloop
endfacet
facet normal -0.999958 -0.009113 0.000000
outer loop
vertex 0.000000 0.004638 0.150000
vertex 0.000000 0.004638 0.000000
vertex 0.000029 0.001487 0.000000
endloop
endfacet
facet normal -0.999468 -0.032606 0.000000
outer loop
vertex 0.000029 0.001487 0.000000
vertex 0.000039 0.001171 0.000000
vertex 0.000039 0.001171 0.150000
endloop
endfacet
facet normal -0.999958 -0.009113 0.000000
outer loop
vertex 0.000029 0.001487 0.150000
vertex 0.000000 0.004638 0.150000
vertex 0.000029 0.001487 0.000000
endloop
endfacet
facet normal -0.999468 -0.032605 0.000000
outer loop
vertex 0.000039 0.001171 0.150000
vertex 0.000029 0.001487 0.150000
vertex 0.000029 0.001487 0.000000
endloop
endfacet
facet normal 0.570026 0.821627 0.000000
outer loop
vertex 0.001090 0.004928 0.150000
vertex 0.001090 0.004928 0.000000
vertex 0.001065 0.004946 0.000000
endloop
endfacet
facet normal 0.570026 0.821627 0.000000
outer loop
vertex 0.001090 0.004928 0.150000
vertex 0.001065 0.004946 0.000000
vertex 0.001065 0.004946 0.150000
endloop
endfacet
endsolid Exported from Blender-3.6.8
