solid Exported from Blender-3.6.8
facet normal 0.608214 0.793773 0.000000
outer loop
vertex 0.003218 0.005547 0.000000
vertex 0.002708 0.005938 0.000000
vertex 0.002708 0.005938 0.150000
endloop
endfacet
facet normal 0.608213 0.793774 0.000000
outer loop
vertex 0.003218 0.005547 0.000000
vertex 0.002708 0.005938 0.150000
vertex 0.003218 0.005547 0.150000
endloop
endfacet
facet normal 0.972222 -0.234060 0.000000
outer loop
vertex 0.003962 0.003207 0.000000
vertex 0.003991 0.003326 0.000000
vertex 0.003991 0.003326 0.150000
endloop
endfacet
facet normal 0.972225 -0.234048 0.000000
outer loop
vertex 0.003962 0.003207 0.000000
vertex 0.003991 0.003326 0.150000
vertex 0.003962 0.003207 0.150000
endloop
endfacet
facet normal 0.949309 -0.314344 0.000000
outer loop
vertex 0.003787 0.002679 0.000000
vertex 0.003962 0.003207 0.000000
vertex 0.003962 0.003207 0.150000
endloop
endfacet
facet normal 0.949310 -0.314341 0.000000
outer loop
vertex 0.003787 0.002679 0.000000
vertex 0.003962 0.003207 0.150000
vertex 0.003787 0.002679 0.150000
endloop
endfacet
facet normal 0.944442 -0.328678 0.000000
outer loop
vertex 0.003624 0.002145 0.150000
vertex 0.003624 0.002145 0.000000
vertex 0.003656 0.002238 0.000000
endloop
endfacet
facet normal 0.958571 -0.284853 0.000000
outer loop
vertex 0.003656 0.002238 0.000000
vertex 0.003787 0.002679 0.000000
vertex 0.003787 0.002679 0.150000
endloop
endfacet
facet normal 0.944439 -0.328685 0.000000
outer loop
vertex 0.003656 0.002238 0.150000
vertex 0.003624 0.002145 0.150000
vertex 0.003656 0.002238 0.000000
endloop
endfacet
facet normal 0.958571 -0.284853 0.000000
outer loop
vertex 0.003787 0.002679 0.150000
vertex 0.003656 0.002238 0.150000
vertex 0.003656 0.002238 0.000000
endloop
endfacet
facet normal 0.970180 0.242385 0.000000
outer loop
vertex 0.003984 0.003860 0.150000
vertex 0.003984 0.003860 0.000000
vertex 0.003942 0.004028 0.000000
endloop
endfacet
facet normal 0.970179 0.242389 0.000000
outer loop
vertex 0.003984 0.003860 0.150000
vertex 0.003942 0.004028 0.000000
vertex 0.003942 0.004028 0.150000
endloop
endfacet
facet normal 0.228807 0.973472 0.000000
outer loop
vertex 0.002462 0.006059 0.150000
vertex 0.002462 0.006059 0.000000
vertex 0.002408 0.006072 0.000000
endloop
endfacet
facet normal 0.228807 0.973472 0.000000
outer loop
vertex 0.002462 0.006059 0.150000
vertex 0.002408 0.006072 0.000000
vertex 0.002408 0.006072 0.150000
endloop
endfacet
facet normal 0.375562 0.926797 0.000000
outer loop
vertex 0.002579 0.006011 0.000000
vertex 0.002462 0.006059 0.000000
vertex 0.002462 0.006059 0.150000
endloop
endfacet
facet normal 0.375560 0.926798 0.000000
outer loop
vertex 0.002579 0.006011 0.000000
vertex 0.002462 0.006059 0.150000
vertex 0.002579 0.006011 0.150000
endloop
endfacet
facet normal -0.244367 0.969683 0.000000
outer loop
vertex 0.001671 0.005966 0.150000
vertex 0.001744 0.005984 0.150000
vertex 0.001744 0.005984 0.000000
endloop
endfacet
facet normal 0.000000 0.000000 1.000000
outer loop
vertex 0.001744 0.005984 0.000000
vertex 0.001671 0.005966 0.000000
vertex 0.001607 0.005948 0.000000
endloop
endfacet
facet normal -0.337084 0.941475 0.000000
outer loop
vertex 0.001607 0.005948 0.000000
vertex 0.001557 0.005929 0.000000
vertex 0.001557 0.005929 0.150000
endloop
endfacet
facet normal -0.280853 0.959751 -0.000019
outer loop
vertex 0.001607 0.005948 0.150000
vertex 0.001671 0.005966 0.150000
vertex 0.001744 0.005984 0.000000
endloop
endfacet
facet normal -0.337085 0.941474 0.000000
outer loop
vertex 0.001607 0.005948 0.000000
vertex 0.001557 0.005929 0.150000
vertex 0.001607 0.005948 0.150000
endloop
endfacet
facet normal -0.261437 0.965221 0.000000
outer loop
vertex 0.001744 0.005984 0.000000
vertex 0.001607 0.005948 0.000000
vertex 0.001607 0.005948 0.150000
endloop
endfacet
facet normal 0.000000 0.000000 1.000000
outer loop
vertex 0.000278 0.003861 0.000000
vertex 0.000225 0.003739 0.000000
vertex 0.000199 0.003675 0.000000
endloop
endfacet
facet normal -0.927641 0.373473 0.000000
outer loop
vertex 0.000199 0.003675 0.000000
vertex 0.000199 0.003675 0.150000
vertex 0.000225 0.003739 0.150000
endloop
endfacet
facet normal -0.916838 0.399260 -0.000013
outer loop
vertex 0.000199 0.003675 0.000000
vertex 0.000225 0.003739 0.150000
vertex 0.000278 0.003861 0.150000
endloop
endfacet
facet normal -0.920584 0.390544 0.000000
outer loop
vertex 0.000278 0.003861 0.000000
vertex 0.000199 0.003675 0.000000
vertex 0.000278 0.003861 0.150000
endloop
endfacet
facet normal -0.931676 0.363290 0.000000
outer loop
vertex 0.000305 0.003925 0.150000
vertex 0.000332 0.003994 0.150000
vertex 0.000332 0.003994 0.000000
endloop
endfacet
facet normal -0.920715 0.390235 0.000000
outer loop
vertex 0.000278 0.003861 0.000000
vertex 0.000278 0.003861 0.150000
vertex 0.000305 0.003925 0.150000
endloop
endfacet
facet normal -0.931675 0.363292 0.000000
outer loop
vertex 0.000305 0.003925 0.150000
vertex 0.000332 0.003994 0.000000
vertex 0.000305 0.003925 0.000000
endloop
endfacet
facet normal -0.920715 0.390236 0.000000
outer loop
vertex 0.000278 0.003861 0.000000
vertex 0.000305 0.003925 0.150000
vertex 0.000305 0.003925 0.000000
endloop
endfacet
facet normal -0.405111 -0.914268 0.000000
outer loop
vertex 0.001195 0.000122 0.150000
vertex 0.001195 0.000122 0.000000
vertex 0.001275 0.000087 0.000000
endloop
endfacet
facet normal -0.405110 -0.914268 0.000000
outer loop
vertex 0.001195 0.000122 0.150000
vertex 0.001275 0.000087 0.000000
vertex 0.001275 0.000087 0.150000
endloop
endfacet
facet normal 0.692069 -0.721831 0.000000
outer loop
vertex 0.002719 0.000430 0.150000
vertex 0.002719 0.000430 0.000000
vertex 0.002767 0.000476 0.000000
endloop
endfacet
facet normal 0.692072 -0.721828 0.000000
outer loop
vertex 0.002719 0.000430 0.150000
vertex 0.002767 0.000476 0.000000
vertex 0.002767 0.000476 0.150000
endloop
endfacet
facet normal 0.775017 -0.631941 0.000000
outer loop
vertex 0.002767 0.000476 0.000000
vertex 0.002863 0.000594 0.000000
vertex 0.002863 0.000594 0.150000
endloop
endfacet
facet normal 0.775015 -0.631942 0.000000
outer loop
vertex 0.002767 0.000476 0.000000
vertex 0.002863 0.000594 0.150000
vertex 0.002767 0.000476 0.150000
endloop
endfacet
facet normal 0.512377 -0.858761 0.000000
outer loop
vertex 0.002130 0.000062 0.000000
vertex 0.002620 0.000354 0.000000
vertex 0.002620 0.000354 0.150000
endloop
endfacet
facet normal 0.512378 -0.858760 0.000000
outer loop
vertex 0.002130 0.000062 0.000000
vertex 0.002620 0.000354 0.150000
vertex 0.002130 0.000062 0.150000
endloop
endfacet
facet normal -0.824859 -0.565338 0.000000
outer loop
vertex 0.000376 0.000911 0.150000
vertex 0.000376 0.000911 0.000000
vertex 0.000496 0.000736 0.000000
endloop
endfacet
facet normal -0.824860 -0.565337 0.000000
outer loop
vertex 0.000376 0.000911 0.150000
vertex 0.000496 0.000736 0.000000
vertex 0.000496 0.000736 0.150000
endloop
endfacet
facet normal -0.041533 -0.999137 0.000000
outer loop
vertex 0.001814 0.000002 0.000000
vertex 0.001869 0.000000 0.000000
vertex 0.001869 0.000000 0.150000
endloop
endfacet
facet normal -0.041532 -0.999137 0.000000
outer loop
vertex 0.001814 0.000002 0.000000
vertex 0.001869 0.000000 0.150000
vertex 0.001814 0.000002 0.150000
endloop
endfacet
facet normal -0.082635 -0.996580 0.000000
outer loop
vertex 0.001754 0.000007 0.000000
vertex 0.001814 0.000002 0.000000
vertex 0.001814 0.000002 0.150000
endloop
endfacet
facet normal -0.082635 -0.996580 0.000000
outer loop
vertex 0.001754 0.000007 0.000000
vertex 0.001814 0.000002 0.150000
vertex 0.001754 0.000007 0.150000
endloop
endfacet
facet normal -0.099892 -0.994998 0.000000
outer loop
vertex 0.001613 0.000021 0.000000
vertex 0.001754 0.000007 0.000000
vertex 0.001754 0.000007 0.150000
endloop
endfacet
facet normal -0.099892 -0.994998 0.000000
outer loop
vertex 0.001613 0.000021 0.000000
vertex 0.001754 0.000007 0.150000
vertex 0.001613 0.000021 0.150000
endloop
endfacet
facet normal -0.125706 -0.992068 0.000000
outer loop
vertex 0.001441 0.000040 0.150000
vertex 0.001441 0.000040 0.000000
vertex 0.001529 0.000029 0.000000
endloop
endfacet
facet normal -0.085870 -0.996306 0.000000
outer loop
vertex 0.001529 0.000029 0.000000
vertex 0.001613 0.000021 0.000000
vertex 0.001613 0.000021 0.150000
endloop
endfacet
facet normal -0.125706 -0.992068 0.000000
outer loop
vertex 0.001529 0.000029 0.150000
vertex 0.001441 0.000040 0.150000
vertex 0.001529 0.000029 0.000000
endloop
endfacet
facet normal -0.085870 -0.996306 0.000000
outer loop
vertex 0.001613 0.000021 0.150000
vertex 0.001529 0.000029 0.150000
vertex 0.001529 0.000029 0.000000
endloop
endfacet
facet normal 0.916997 0.398894 0.000000
outer loop
vertex 0.003628 0.004881 0.000000
vertex 0.003573 0.005008 0.000000
vertex 0.003573 0.005008 0.150000
endloop
endfacet
facet normal 0.916997 0.398894 0.000000
outer loop
vertex 0.003628 0.004881 0.000000
vertex 0.003573 0.005008 0.150000
vertex 0.003628 0.004881 0.150000
endloop
endfacet
facet normal 0.926880 0.375358 0.000000
outer loop
vertex 0.003685 0.004740 0.000000
vertex 0.003628 0.004881 0.000000
vertex 0.003628 0.004881 0.150000
endloop
endfacet
facet normal 0.926880 0.375358 0.000000
outer loop
vertex 0.003685 0.004740 0.000000
vertex 0.003628 0.004881 0.150000
vertex 0.003685 0.004740 0.150000
endloop
endfacet
facet normal 0.950245 0.311505 0.000000
outer loop
vertex 0.003942 0.004028 0.150000
vertex 0.003942 0.004028 0.000000
vertex 0.003880 0.004217 0.000000
endloop
endfacet
facet normal 0.937121 0.349005 0.000000
outer loop
vertex 0.003880 0.004217 0.000000
vertex 0.003685 0.004740 0.000000
vertex 0.003685 0.004740 0.150000
endloop
endfacet
facet normal 0.950245 0.311505 0.000000
outer loop
vertex 0.003880 0.004217 0.150000
vertex 0.003942 0.004028 0.150000
vertex 0.003880 0.004217 0.000000
endloop
endfacet
facet normal 0.937121 0.349005 0.000000
outer loop
vertex 0.003880 0.004217 0.000000
vertex 0.003685 0.004740 0.150000
vertex 0.003880 0.004217 0.150000
endloop
endfacet
facet normal -0.961698 0.274112 0.000000
outer loop
vertex 0.000406 0.004255 0.000000
vertex 0.000332 0.003994 0.000000
vertex 0.000332 0.003994 0.150000
endloop
endfacet
facet normal -0.961698 0.274112 0.000000
outer loop
vertex 0.000406 0.004255 0.000000
vertex 0.000332 0.003994 0.150000
vertex 0.000406 0.004255 0.150000
endloop
endfacet
facet normal 0.988537 -0.150976 0.000000
outer loop
vertex 0.003991 0.003326 0.150000
vertex 0.003991 0.003326 0.000000
vertex 0.004009 0.003446 0.000000
endloop
endfacet
facet normal 0.988538 -0.150969 0.000000
outer loop
vertex 0.003991 0.003326 0.150000
vertex 0.004009 0.003446 0.000000
vertex 0.004009 0.003446 0.150000
endloop
endfacet
facet normal -0.513338 -0.858187 0.000000
outer loop
vertex 0.001040 0.000215 0.150000
vertex 0.001040 0.000215 0.000000
vertex 0.001195 0.000122 0.000000
endloop
endfacet
facet normal -0.513337 -0.858187 0.000000
outer loop
vertex 0.001040 0.000215 0.150000
vertex 0.001195 0.000122 0.000000
vertex 0.001195 0.000122 0.150000
endloop
endfacet
facet normal -0.001514 0.000000 0.999999
outer loop
vertex 0.003880 0.004217 0.150000
vertex 0.003685 0.004740 0.150000
vertex 0.003628 0.004881 0.150000
endloop
endfacet
facet normal 0.003825 0.000000 0.999993
outer loop
vertex 0.003628 0.004881 0.150000
vertex 0.003573 0.005008 0.150000
vertex 0.003463 0.005225 0.150000
endloop
endfacet
facet normal 0.000595 0.000000 1.000000
outer loop
vertex 0.003463 0.005225 0.150000
vertex 0.003348 0.005402 0.150000
vertex 0.003218 0.005547 0.150000
endloop
endfacet
facet normal 0.000557 0.000000 1.000000
outer loop
vertex 0.003218 0.005547 0.150000
vertex 0.002708 0.005938 0.150000
vertex 0.002579 0.006011 0.150000
endloop
endfacet
facet normal -0.000849 0.000000 1.000000
outer loop
vertex 0.002579 0.006011 0.150000
vertex 0.002462 0.006059 0.150000
vertex 0.002408 0.006072 0.150000
endloop
endfacet
facet normal 0.000000 0.000000 1.000000
outer loop
vertex 0.002408 0.006072 0.150000
vertex 0.002358 0.006076 0.150000
vertex 0.002304 0.006074 0.150000
endloop
endfacet
facet normal 0.000000 0.000000 1.000000
outer loop
vertex 0.002304 0.006074 0.150000
vertex 0.002237 0.006068 0.150000
vertex 0.002162 0.006060 0.150000
endloop
endfacet
facet normal 0.002121 0.000000 0.999998
outer loop
vertex 0.002162 0.006060 0.150000
vertex 0.002080 0.006048 0.150000
vertex 0.001908 0.006019 0.150000
endloop
endfacet
facet normal 0.000000 0.000000 1.000000
outer loop
vertex 0.001908 0.006019 0.150000
vertex 0.001824 0.006002 0.150000
vertex 0.001744 0.005984 0.150000
endloop
endfacet
facet normal 0.000000 0.000000 1.000000
outer loop
vertex 0.001744 0.005984 0.150000
vertex 0.001671 0.005966 0.150000
vertex 0.001607 0.005948 0.150000
endloop
endfacet
facet normal 0.000000 0.000000 1.000000
outer loop
vertex 0.001607 0.005948 0.150000
vertex 0.001557 0.005929 0.150000
vertex 0.000507 0.005310 0.150000
endloop
endfacet
facet normal -0.000027 0.000000 1.000000
outer loop
vertex 0.001607 0.005948 0.150000
vertex 0.000507 0.005310 0.150000
vertex 0.000406 0.004255 0.150000
endloop
endfacet
facet normal 0.000000 0.000000 1.000000
outer loop
vertex 0.001908 0.006019 0.150000
vertex 0.001744 0.005984 0.150000
vertex 0.001607 0.005948 0.150000
endloop
endfacet
facet normal 0.000000 0.000000 1.000000
outer loop
vertex 0.002304 0.006074 0.150000
vertex 0.002162 0.006060 0.150000
vertex 0.001908 0.006019 0.150000
endloop
endfacet
facet normal 0.000019 0.000000 1.000000
outer loop
vertex 0.002579 0.006011 0.150000
vertex 0.002408 0.006072 0.150000
vertex 0.002304 0.006074 0.150000
endloop
endfacet
facet normal 0.000000 0.000000 1.000000
outer loop
vertex 0.003463 0.005225 0.150000
vertex 0.003218 0.005547 0.150000
vertex 0.002579 0.006011 0.150000
endloop
endfacet
facet normal 0.000321 0.000000 1.000000
outer loop
vertex 0.003880 0.004217 0.150000
vertex 0.003628 0.004881 0.150000
vertex 0.003463 0.005225 0.150000
endloop
endfacet
facet normal 0.000000 0.000000 1.000000
outer loop
vertex 0.003984 0.003860 0.150000
vertex 0.003942 0.004028 0.150000
vertex 0.003880 0.004217 0.150000
endloop
endfacet
facet normal 0.000000 0.000000 1.000000
outer loop
vertex 0.004016 0.003573 0.150000
vertex 0.004008 0.003710 0.150000
vertex 0.003984 0.003860 0.150000
endloop
endfacet
facet normal 0.002315 0.000000 0.999997
outer loop
vertex 0.003991 0.003326 0.150000
vertex 0.004009 0.003446 0.150000
vertex 0.004016 0.003573 0.150000
endloop
endfacet
facet normal 0.001929 0.000000 0.999998
outer loop
vertex 0.003787 0.002679 0.150000
vertex 0.003962 0.003207 0.150000
vertex 0.003991 0.003326 0.150000
endloop
endfacet
facet normal 0.000000 0.000000 1.000000
outer loop
vertex 0.003624 0.002145 0.150000
vertex 0.003656 0.002238 0.150000
vertex 0.003787 0.002679 0.150000
endloop
endfacet
facet normal 0.001043 0.000000 0.999999
outer loop
vertex 0.003435 0.001768 0.150000
vertex 0.003570 0.002019 0.150000
vertex 0.003624 0.002145 0.150000
endloop
endfacet
facet normal 0.000000 0.000000 1.000000
outer loop
vertex 0.003102 0.000983 0.150000
vertex 0.003132 0.001040 0.150000
vertex 0.003435 0.001768 0.150000
endloop
endfacet
facet normal 0.000000 0.000000 1.000000
outer loop
vertex 0.003036 0.000871 0.150000
vertex 0.003070 0.000927 0.150000
vertex 0.003102 0.000983 0.150000
endloop
endfacet
facet normal 0.102272 0.000000 0.994756
outer loop
vertex 0.002958 0.000744 0.150000
vertex 0.002999 0.000810 0.150000
vertex 0.003036 0.000871 0.150000
endloop
endfacet
facet normal 0.008264 0.000000 0.999966
outer loop
vertex 0.002863 0.000594 0.150000
vertex 0.002912 0.000668 0.150000
vertex 0.002958 0.000744 0.150000
endloop
endfacet
facet normal 0.000000 0.000000 1.000000
outer loop
vertex 0.002719 0.000430 0.150000
vertex 0.002767 0.000476 0.150000
vertex 0.002863 0.000594 0.150000
endloop
endfacet
facet normal 0.000228 0.000000 1.000000
outer loop
vertex 0.002130 0.000062 0.150000
vertex 0.002620 0.000354 0.150000
vertex 0.002719 0.000430 0.150000
endloop
endfacet
facet normal -0.002783 0.000000 0.999996
outer loop
vertex 0.002022 0.000019 0.150000
vertex 0.002074 0.000037 0.150000
vertex 0.002130 0.000062 0.150000
endloop
endfacet
facet normal 0.000000 0.000000 1.000000
outer loop
vertex 0.001920 0.000001 0.150000
vertex 0.001971 0.000007 0.150000
vertex 0.002022 0.000019 0.150000
endloop
endfacet
facet normal 0.000148 0.000000 1.000000
outer loop
vertex 0.001814 0.000002 0.150000
vertex 0.001869 0.000000 0.150000
vertex 0.001920 0.000001 0.150000
endloop
endfacet
facet normal -0.001548 0.000000 0.999999
outer loop
vertex 0.001613 0.000021 0.150000
vertex 0.001754 0.000007 0.150000
vertex 0.001814 0.000002 0.150000
endloop
endfacet
facet normal 0.000000 0.000000 1.000000
outer loop
vertex 0.001441 0.000040 0.150000
vertex 0.001529 0.000029 0.150000
vertex 0.001613 0.000021 0.150000
endloop
endfacet
facet normal -0.001237 0.000000 0.999999
outer loop
vertex 0.001275 0.000087 0.150000
vertex 0.001357 0.000059 0.150000
vertex 0.001441 0.000040 0.150000
endloop
endfacet
facet normal -0.000474 0.000000 1.000000
outer loop
vertex 0.001040 0.000215 0.150000
vertex 0.001195 0.000122 0.150000
vertex 0.001275 0.000087 0.150000
endloop
endfacet
facet normal 0.000000 0.000000 1.000000
outer loop
vertex 0.000496 0.000736 0.150000
vertex 0.000887 0.000335 0.150000
vertex 0.001040 0.000215 0.150000
endloop
endfacet
facet normal 0.000000 0.000000 1.000000
outer loop
vertex 0.000289 0.001095 0.150000
vertex 0.000376 0.000911 0.150000
vertex 0.000496 0.000736 0.150000
endloop
endfacet
facet normal 0.000538 0.000000 1.000000
outer loop
vertex 0.000006 0.002386 0.150000
vertex 0.000224 0.001298 0.150000
vertex 0.000289 0.001095 0.150000
endloop
endfacet
facet normal 0.000000 0.000000 1.000000
outer loop
vertex 0.000007 0.002675 0.150000
vertex 0.000001 0.002492 0.150000
vertex 0.000006 0.002386 0.150000
endloop
endfacet
facet normal 0.000000 0.000000 1.000000
outer loop
vertex 0.000031 0.002843 0.150000
vertex 0.000017 0.002759 0.150000
vertex 0.000007 0.002675 0.150000
endloop
endfacet
facet normal 0.000000 0.000000 1.000000
outer loop
vertex 0.000063 0.003021 0.150000
vertex 0.000031 0.002843 0.150000
vertex 0.000007 0.002675 0.150000
endloop
endfacet
facet normal -0.000354 0.000000 1.000000
outer loop
vertex 0.000007 0.002675 0.150000
vertex 0.000006 0.002386 0.150000
vertex 0.000289 0.001095 0.150000
endloop
endfacet
facet normal 0.000000 0.000000 1.000000
outer loop
vertex 0.000289 0.001095 0.150000
vertex 0.000496 0.000736 0.150000
vertex 0.001040 0.000215 0.150000
endloop
endfacet
facet normal 0.000177 0.000000 1.000000
outer loop
vertex 0.001040 0.000215 0.150000
vertex 0.001275 0.000087 0.150000
vertex 0.001441 0.000040 0.150000
endloop
endfacet
facet normal 0.002255 0.000000 0.999997
outer loop
vertex 0.001441 0.000040 0.150000
vertex 0.001613 0.000021 0.150000
vertex 0.001814 0.000002 0.150000
endloop
endfacet
facet normal 0.000000 0.000000 1.000000
outer loop
vertex 0.001814 0.000002 0.150000
vertex 0.001920 0.000001 0.150000
vertex 0.002022 0.000019 0.150000
endloop
endfacet
facet normal -0.000505 0.000000 1.000000
outer loop
vertex 0.002022 0.000019 0.150000
vertex 0.002130 0.000062 0.150000
vertex 0.002719 0.000430 0.150000
endloop
endfacet
facet normal -0.000598 0.000000 1.000000
outer loop
vertex 0.002719 0.000430 0.150000
vertex 0.002863 0.000594 0.150000
vertex 0.002958 0.000744 0.150000
endloop
endfacet
facet normal 0.000000 0.000000 1.000000
outer loop
vertex 0.002958 0.000744 0.150000
vertex 0.003036 0.000871 0.150000
vertex 0.003102 0.000983 0.150000
endloop
endfacet
facet normal 0.000368 0.000000 1.000000
outer loop
vertex 0.003435 0.001768 0.150000
vertex 0.003624 0.002145 0.150000
vertex 0.003787 0.002679 0.150000
endloop
endfacet
facet normal 0.000879 0.000000 1.000000
outer loop
vertex 0.002958 0.000744 0.150000
vertex 0.003102 0.000983 0.150000
vertex 0.003435 0.001768 0.150000
endloop
endfacet
facet normal 0.000120 0.000000 1.000000
outer loop
vertex 0.002022 0.000019 0.150000
vertex 0.002719 0.000430 0.150000
vertex 0.002958 0.000744 0.150000
endloop
endfacet
facet normal -0.000033 0.000000 1.000000
outer loop
vertex 0.001441 0.000040 0.150000
vertex 0.001814 0.000002 0.150000
vertex 0.002022 0.000019 0.150000
endloop
endfacet
facet normal 0.000000 0.000000 1.000000
outer loop
vertex 0.000289 0.001095 0.150000
vertex 0.001040 0.000215 0.150000
vertex 0.001441 0.000040 0.150000
endloop
endfacet
facet normal 0.000000 0.000000 1.000000
outer loop
vertex 0.000063 0.003021 0.150000
vertex 0.000007 0.002675 0.150000
vertex 0.000289 0.001095 0.150000
endloop
endfacet
facet normal 0.000000 0.000000 1.000000
outer loop
vertex 0.000112 0.003347 0.150000
vertex 0.000095 0.003235 0.150000
vertex 0.000080 0.003122 0.150000
endloop
endfacet
facet normal 0.000000 0.000000 1.000000
outer loop
vertex 0.000080 0.003122 0.150000
vertex 0.000063 0.003021 0.150000
vertex 0.000289 0.001095 0.150000
endloop
endfacet
facet normal 0.000047 0.000000 1.000000
outer loop
vertex 0.000289 0.001095 0.150000
vertex 0.001441 0.000040 0.150000
vertex 0.002022 0.000019 0.150000
endloop
endfacet
facet normal -0.000095 0.000000 1.000000
outer loop
vertex 0.002022 0.000019 0.150000
vertex 0.002958 0.000744 0.150000
vertex 0.003435 0.001768 0.150000
endloop
endfacet
facet normal -0.000340 0.000000 1.000000
outer loop
vertex 0.003435 0.001768 0.150000
vertex 0.003787 0.002679 0.150000
vertex 0.003991 0.003326 0.150000
endloop
endfacet
facet normal 0.000000 0.000000 1.000000
outer loop
vertex 0.003991 0.003326 0.150000
vertex 0.004016 0.003573 0.150000
vertex 0.003984 0.003860 0.150000
endloop
endfacet
facet normal 0.000000 0.000000 1.000000
outer loop
vertex 0.003984 0.003860 0.150000
vertex 0.003880 0.004217 0.150000
vertex 0.003463 0.005225 0.150000
endloop
endfacet
facet normal -0.000034 0.000000 1.000000
outer loop
vertex 0.003463 0.005225 0.150000
vertex 0.002579 0.006011 0.150000
vertex 0.002304 0.006074 0.150000
endloop
endfacet
facet normal -0.000153 0.000000 1.000000
outer loop
vertex 0.002304 0.006074 0.150000
vertex 0.001908 0.006019 0.150000
vertex 0.001607 0.005948 0.150000
endloop
endfacet
facet normal 0.000116 0.000000 1.000000
outer loop
vertex 0.001607 0.005948 0.150000
vertex 0.000406 0.004255 0.150000
vertex 0.000332 0.003994 0.150000
endloop
endfacet
facet normal -0.000103 0.000000 1.000000
outer loop
vertex 0.001607 0.005948 0.150000
vertex 0.000332 0.003994 0.150000
vertex 0.000305 0.003925 0.150000
endloop
endfacet
facet normal 0.000005 0.000000 1.000000
outer loop
vertex 0.003463 0.005225 0.150000
vertex 0.002304 0.006074 0.150000
vertex 0.001607 0.005948 0.150000
endloop
endfacet
facet normal 0.000000 0.000000 1.000000
outer loop
vertex 0.003991 0.003326 0.150000
vertex 0.003984 0.003860 0.150000
vertex 0.003463 0.005225 0.150000
endloop
endfacet
facet normal 0.000024 0.000000 1.000000
outer loop
vertex 0.002022 0.000019 0.150000
vertex 0.003435 0.001768 0.150000
vertex 0.003991 0.003326 0.150000
endloop
endfacet
facet normal -0.000009 0.000000 1.000000
outer loop
vertex 0.000080 0.003122 0.150000
vertex 0.000289 0.001095 0.150000
vertex 0.002022 0.000019 0.150000
endloop
endfacet
facet normal 0.000000 0.000000 1.000000
outer loop
vertex 0.000130 0.003445 0.150000
vertex 0.000112 0.003347 0.150000
vertex 0.000080 0.003122 0.150000
endloop
endfacet
facet normal -0.004967 0.000000 0.999988
outer loop
vertex 0.000174 0.003607 0.150000
vertex 0.000152 0.003531 0.150000
vertex 0.000130 0.003445 0.150000
endloop
endfacet
facet normal 0.000000 0.000000 1.000000
outer loop
vertex 0.000225 0.003739 0.150000
vertex 0.000199 0.003675 0.150000
vertex 0.000174 0.003607 0.150000
endloop
endfacet
facet normal -0.000897 0.000000 1.000000
outer loop
vertex 0.001607 0.005948 0.150000
vertex 0.000305 0.003925 0.150000
vertex 0.000278 0.003861 0.150000
endloop
endfacet
facet normal 0.003971 0.000000 0.999992
outer loop
vertex 0.000278 0.003861 0.150000
vertex 0.000225 0.003739 0.150000
vertex 0.000174 0.003607 0.150000
endloop
endfacet
facet normal 0.000000 0.000000 1.000000
outer loop
vertex 0.000174 0.003607 0.150000
vertex 0.000130 0.003445 0.150000
vertex 0.000080 0.003122 0.150000
endloop
endfacet
facet normal 0.000000 0.000000 1.000000
outer loop
vertex 0.000080 0.003122 0.150000
vertex 0.002022 0.000019 0.150000
vertex 0.003991 0.003326 0.150000
endloop
endfacet
facet normal 0.000005 0.000000 1.000000
outer loop
vertex 0.003991 0.003326 0.150000
vertex 0.003463 0.005225 0.150000
vertex 0.001607 0.005948 0.150000
endloop
endfacet
facet normal 0.000355 0.000000 1.000000
outer loop
vertex 0.001607 0.005948 0.150000
vertex 0.000278 0.003861 0.150000
vertex 0.000174 0.003607 0.150000
endloop
endfacet
facet normal 0.000000 0.000000 1.000000
outer loop
vertex 0.000174 0.003607 0.150000
vertex 0.000080 0.003122 0.150000
vertex 0.003991 0.003326 0.150000
endloop
endfacet
facet normal -0.000004 0.000000 1.000000
outer loop
vertex 0.001607 0.005948 0.150000
vertex 0.000174 0.003607 0.150000
vertex 0.003991 0.003326 0.150000
endloop
endfacet
facet normal 0.000000 0.000000 -1.000000
outer loop
vertex 0.003348 0.005402 0.000000
vertex 0.003463 0.005225 0.000000
vertex 0.003573 0.005008 0.000000
endloop
endfacet
facet normal 0.000000 0.000000 -1.000000
outer loop
vertex 0.003573 0.005008 0.000000
vertex 0.003628 0.004881 0.000000
vertex 0.003685 0.004740 0.000000
endloop
endfacet
facet normal 0.000000 0.000000 -1.000000
outer loop
vertex 0.003685 0.004740 0.000000
vertex 0.003880 0.004217 0.000000
vertex 0.003942 0.004028 0.000000
endloop
endfacet
facet normal 0.000000 0.000000 -1.000000
outer loop
vertex 0.003942 0.004028 0.000000
vertex 0.003984 0.003860 0.000000
vertex 0.004008 0.003710 0.000000
endloop
endfacet
facet normal 0.000000 0.000000 -1.000000
outer loop
vertex 0.004008 0.003710 0.000000
vertex 0.004016 0.003573 0.000000
vertex 0.004009 0.003446 0.000000
endloop
endfacet
facet normal 0.000000 0.000000 -1.000000
outer loop
vertex 0.004009 0.003446 0.000000
vertex 0.003991 0.003326 0.000000
vertex 0.003962 0.003207 0.000000
endloop
endfacet
facet normal 0.000000 0.000000 -1.000000
outer loop
vertex 0.003787 0.002679 0.000000
vertex 0.003656 0.002238 0.000000
vertex 0.003624 0.002145 0.000000
endloop
endfacet
facet normal 0.000000 0.000000 -1.000000
outer loop
vertex 0.004009 0.003446 0.000000
vertex 0.003962 0.003207 0.000000
vertex 0.003787 0.002679 0.000000
endloop
endfacet
facet normal 0.000000 0.000000 -1.000000
outer loop
vertex 0.003942 0.004028 0.000000
vertex 0.004008 0.003710 0.000000
vertex 0.004009 0.003446 0.000000
endloop
endfacet
facet normal 0.000000 0.000000 -1.000000
outer loop
vertex 0.003573 0.005008 0.000000
vertex 0.003685 0.004740 0.000000
vertex 0.003942 0.004028 0.000000
endloop
endfacet
facet normal 0.000000 0.000000 -1.000000
outer loop
vertex 0.003218 0.005547 0.000000
vertex 0.003348 0.005402 0.000000
vertex 0.003573 0.005008 0.000000
endloop
endfacet
facet normal 0.000000 0.000000 -1.000000
outer loop
vertex 0.002579 0.006011 0.000000
vertex 0.002708 0.005938 0.000000
vertex 0.003218 0.005547 0.000000
endloop
endfacet
facet normal 0.000000 0.000000 -1.000000
outer loop
vertex 0.002408 0.006072 0.000000
vertex 0.002462 0.006059 0.000000
vertex 0.002579 0.006011 0.000000
endloop
endfacet
facet normal 0.000000 0.000000 -1.000000
outer loop
vertex 0.002304 0.006074 0.000000
vertex 0.002358 0.006076 0.000000
vertex 0.002408 0.006072 0.000000
endloop
endfacet
facet normal 0.000000 0.000000 -1.000000
outer loop
vertex 0.002162 0.006060 0.000000
vertex 0.002237 0.006068 0.000000
vertex 0.002304 0.006074 0.000000
endloop
endfacet
facet normal 0.000000 0.000000 -1.000000
outer loop
vertex 0.001908 0.006019 0.000000
vertex 0.002080 0.006048 0.000000
vertex 0.002162 0.006060 0.000000
endloop
endfacet
facet normal 0.000000 0.000000 -1.000000
outer loop
vertex 0.001744 0.005984 0.000000
vertex 0.001824 0.006002 0.000000
vertex 0.001908 0.006019 0.000000
endloop
endfacet
facet normal 0.000000 0.000000 -1.000000
outer loop
vertex 0.001607 0.005948 0.000000
vertex 0.001671 0.005966 0.000000
vertex 0.001744 0.005984 0.000000
endloop
endfacet
facet normal 0.000000 0.000000 -1.000000
outer loop
vertex 0.000507 0.005310 0.000000
vertex 0.001557 0.005929 0.000000
vertex 0.001607 0.005948 0.000000
endloop
endfacet
facet normal 0.000000 0.000000 -1.000000
outer loop
vertex 0.000406 0.004255 0.000000
vertex 0.000507 0.005310 0.000000
vertex 0.001607 0.005948 0.000000
endloop
endfacet
facet normal 0.000000 0.000000 -1.000000
outer loop
vertex 0.001607 0.005948 0.000000
vertex 0.001744 0.005984 0.000000
vertex 0.001908 0.006019 0.000000
endloop
endfacet
facet normal 0.000000 0.000000 -1.000000
outer loop
vertex 0.001908 0.006019 0.000000
vertex 0.002162 0.006060 0.000000
vertex 0.002304 0.006074 0.000000
endloop
endfacet
facet normal 0.000000 0.000000 -1.000000
outer loop
vertex 0.002304 0.006074 0.000000
vertex 0.002408 0.006072 0.000000
vertex 0.002579 0.006011 0.000000
endloop
endfacet
facet normal 0.000000 0.000000 -1.000000
outer loop
vertex 0.002579 0.006011 0.000000
vertex 0.003218 0.005547 0.000000
vertex 0.003573 0.005008 0.000000
endloop
endfacet
facet normal 0.000000 0.000000 -1.000000
outer loop
vertex 0.003573 0.005008 0.000000
vertex 0.003942 0.004028 0.000000
vertex 0.004009 0.003446 0.000000
endloop
endfacet
facet normal 0.000000 0.000000 -1.000000
outer loop
vertex 0.004009 0.003446 0.000000
vertex 0.003787 0.002679 0.000000
vertex 0.003624 0.002145 0.000000
endloop
endfacet
facet normal 0.000000 0.000000 -1.000000
outer loop
vertex 0.003624 0.002145 0.000000
vertex 0.003570 0.002019 0.000000
vertex 0.003435 0.001768 0.000000
endloop
endfacet
facet normal 0.000000 0.000000 -1.000000
outer loop
vertex 0.003435 0.001768 0.000000
vertex 0.003132 0.001040 0.000000
vertex 0.003102 0.000983 0.000000
endloop
endfacet
facet normal 0.000000 0.000000 -1.000000
outer loop
vertex 0.003102 0.000983 0.000000
vertex 0.003070 0.000927 0.000000
vertex 0.003036 0.000871 0.000000
endloop
endfacet
facet normal 0.000000 0.000000 -1.000000
outer loop
vertex 0.003036 0.000871 0.000000
vertex 0.002999 0.000810 0.000000
vertex 0.002958 0.000744 0.000000
endloop
endfacet
facet normal 0.000000 0.000000 -1.000000
outer loop
vertex 0.002958 0.000744 0.000000
vertex 0.002912 0.000668 0.000000
vertex 0.002863 0.000594 0.000000
endloop
endfacet
facet normal 0.000000 0.000000 -1.000000
outer loop
vertex 0.002863 0.000594 0.000000
vertex 0.002767 0.000476 0.000000
vertex 0.002719 0.000430 0.000000
endloop
endfacet
facet normal 0.000000 0.000000 -1.000000
outer loop
vertex 0.002719 0.000430 0.000000
vertex 0.002620 0.000354 0.000000
vertex 0.002130 0.000062 0.000000
endloop
endfacet
facet normal 0.000000 0.000000 -1.000000
outer loop
vertex 0.002130 0.000062 0.000000
vertex 0.002074 0.000037 0.000000
vertex 0.002022 0.000019 0.000000
endloop
endfacet
facet normal 0.000000 0.000000 -1.000000
outer loop
vertex 0.002022 0.000019 0.000000
vertex 0.001971 0.000007 0.000000
vertex 0.001920 0.000001 0.000000
endloop
endfacet
facet normal 0.000000 0.000000 -1.000000
outer loop
vertex 0.001920 0.000001 0.000000
vertex 0.001869 0.000000 0.000000
vertex 0.001814 0.000002 0.000000
endloop
endfacet
facet normal 0.000000 0.000000 -1.000000
outer loop
vertex 0.001814 0.000002 0.000000
vertex 0.001754 0.000007 0.000000
vertex 0.001613 0.000021 0.000000
endloop
endfacet
facet normal 0.000000 0.000000 -1.000000
outer loop
vertex 0.001613 0.000021 0.000000
vertex 0.001529 0.000029 0.000000
vertex 0.001441 0.000040 0.000000
endloop
endfacet
facet normal 0.000000 0.000000 -1.000000
outer loop
vertex 0.001441 0.000040 0.000000
vertex 0.001357 0.000059 0.000000
vertex 0.001275 0.000087 0.000000
endloop
endfacet
facet normal 0.000000 0.000000 -1.000000
outer loop
vertex 0.001275 0.000087 0.000000
vertex 0.001195 0.000122 0.000000
vertex 0.001040 0.000215 0.000000
endloop
endfacet
facet normal 0.000000 0.000000 -1.000000
outer loop
vertex 0.001040 0.000215 0.000000
vertex 0.000887 0.000335 0.000000
vertex 0.000496 0.000736 0.000000
endloop
endfacet
facet normal 0.000000 0.000000 -1.000000
outer loop
vertex 0.000496 0.000736 0.000000
vertex 0.000376 0.000911 0.000000
vertex 0.000289 0.001095 0.000000
endloop
endfacet
facet normal 0.000000 0.000000 -1.000000
outer loop
vertex 0.000289 0.001095 0.000000
vertex 0.000224 0.001298 0.000000
vertex 0.000006 0.002386 0.000000
endloop
endfacet
facet normal 0.000000 0.000000 -1.000000
outer loop
vertex 0.000006 0.002386 0.000000
vertex 0.000001 0.002492 0.000000
vertex 0.000007 0.002675 0.000000
endloop
endfacet
facet normal 0.000000 0.000000 -1.000000
outer loop
vertex 0.000007 0.002675 0.000000
vertex 0.000017 0.002759 0.000000
vertex 0.000031 0.002843 0.000000
endloop
endfacet
facet normal 0.000000 0.000000 -1.000000
outer loop
vertex 0.000007 0.002675 0.000000
vertex 0.000031 0.002843 0.000000
vertex 0.000063 0.003021 0.000000
endloop
endfacet
facet normal 0.000000 0.000000 -1.000000
outer loop
vertex 0.000289 0.001095 0.000000
vertex 0.000006 0.002386 0.000000
vertex 0.000007 0.002675 0.000000
endloop
endfacet
facet normal 0.000000 0.000000 -1.000000
outer loop
vertex 0.001040 0.000215 0.000000
vertex 0.000496 0.000736 0.000000
vertex 0.000289 0.001095 0.000000
endloop
endfacet
facet normal 0.000000 0.000000 -1.000000
outer loop
vertex 0.001441 0.000040 0.000000
vertex 0.001275 0.000087 0.000000
vertex 0.001040 0.000215 0.000000
endloop
endfacet
facet normal 0.000000 0.000000 -1.000000
outer loop
vertex 0.001814 0.000002 0.000000
vertex 0.001613 0.000021 0.000000
vertex 0.001441 0.000040 0.000000
endloop
endfacet
facet normal 0.000000 0.000000 -1.000000
outer loop
vertex 0.002022 0.000019 0.000000
vertex 0.001920 0.000001 0.000000
vertex 0.001814 0.000002 0.000000
endloop
endfacet
facet normal 0.000000 0.000000 -1.000000
outer loop
vertex 0.002719 0.000430 0.000000
vertex 0.002130 0.000062 0.000000
vertex 0.002022 0.000019 0.000000
endloop
endfacet
facet normal 0.000000 0.000000 -1.000000
outer loop
vertex 0.002958 0.000744 0.000000
vertex 0.002863 0.000594 0.000000
vertex 0.002719 0.000430 0.000000
endloop
endfacet
facet normal 0.000000 0.000000 -1.000000
outer loop
vertex 0.003102 0.000983 0.000000
vertex 0.003036 0.000871 0.000000
vertex 0.002958 0.000744 0.000000
endloop
endfacet
facet normal 0.000000 0.000000 -1.000000
outer loop
vertex 0.004009 0.003446 0.000000
vertex 0.003624 0.002145 0.000000
vertex 0.003435 0.001768 0.000000
endloop
endfacet
facet normal 0.000000 0.000000 -1.000000
outer loop
vertex 0.003435 0.001768 0.000000
vertex 0.003102 0.000983 0.000000
vertex 0.002958 0.000744 0.000000
endloop
endfacet
facet normal 0.000000 0.000000 -1.000000
outer loop
vertex 0.002958 0.000744 0.000000
vertex 0.002719 0.000430 0.000000
vertex 0.002022 0.000019 0.000000
endloop
endfacet
facet normal 0.000000 0.000000 -1.000000
outer loop
vertex 0.002022 0.000019 0.000000
vertex 0.001814 0.000002 0.000000
vertex 0.001441 0.000040 0.000000
endloop
endfacet
facet normal 0.000000 0.000000 -1.000000
outer loop
vertex 0.001441 0.000040 0.000000
vertex 0.001040 0.000215 0.000000
vertex 0.000289 0.001095 0.000000
endloop
endfacet
facet normal 0.000000 0.000000 -1.000000
outer loop
vertex 0.000289 0.001095 0.000000
vertex 0.000007 0.002675 0.000000
vertex 0.000063 0.003021 0.000000
endloop
endfacet
facet normal 0.000000 0.000000 -1.000000
outer loop
vertex 0.000080 0.003122 0.000000
vertex 0.000095 0.003235 0.000000
vertex 0.000112 0.003347 0.000000
endloop
endfacet
facet normal 0.000000 0.000000 -1.000000
outer loop
vertex 0.000289 0.001095 0.000000
vertex 0.000063 0.003021 0.000000
vertex 0.000080 0.003122 0.000000
endloop
endfacet
facet normal 0.000000 0.000000 -1.000000
outer loop
vertex 0.002022 0.000019 0.000000
vertex 0.001441 0.000040 0.000000
vertex 0.000289 0.001095 0.000000
endloop
endfacet
facet normal 0.000000 0.000000 -1.000000
outer loop
vertex 0.003435 0.001768 0.000000
vertex 0.002958 0.000744 0.000000
vertex 0.002022 0.000019 0.000000
endloop
endfacet
facet normal 0.000000 0.000000 -1.000000
outer loop
vertex 0.003573 0.005008 0.000000
vertex 0.004009 0.003446 0.000000
vertex 0.003435 0.001768 0.000000
endloop
endfacet
facet normal 0.000000 0.000000 -1.000000
outer loop
vertex 0.002304 0.006074 0.000000
vertex 0.002579 0.006011 0.000000
vertex 0.003573 0.005008 0.000000
endloop
endfacet
facet normal 0.000000 0.000000 -1.000000
outer loop
vertex 0.001607 0.005948 0.000000
vertex 0.001908 0.006019 0.000000
vertex 0.002304 0.006074 0.000000
endloop
endfacet
facet normal 0.000000 0.000000 -1.000000
outer loop
vertex 0.000332 0.003994 0.000000
vertex 0.000406 0.004255 0.000000
vertex 0.001607 0.005948 0.000000
endloop
endfacet
facet normal 0.000000 0.000000 -1.000000
outer loop
vertex 0.000305 0.003925 0.000000
vertex 0.000332 0.003994 0.000000
vertex 0.001607 0.005948 0.000000
endloop
endfacet
facet normal 0.000000 0.000000 -1.000000
outer loop
vertex 0.001607 0.005948 0.000000
vertex 0.002304 0.006074 0.000000
vertex 0.003573 0.005008 0.000000
endloop
endfacet
facet normal 0.000000 0.000000 -1.000000
outer loop
vertex 0.003573 0.005008 0.000000
vertex 0.003435 0.001768 0.000000
vertex 0.002022 0.000019 0.000000
endloop
endfacet
facet normal 0.000000 0.000000 -1.000000
outer loop
vertex 0.002022 0.000019 0.000000
vertex 0.000289 0.001095 0.000000
vertex 0.000080 0.003122 0.000000
endloop
endfacet
facet normal 0.000000 0.000000 -1.000000
outer loop
vertex 0.000080 0.003122 0.000000
vertex 0.000112 0.003347 0.000000
vertex 0.000130 0.003445 0.000000
endloop
endfacet
facet normal 0.000000 0.000000 -1.000000
outer loop
vertex 0.000130 0.003445 0.000000
vertex 0.000152 0.003531 0.000000
vertex 0.000174 0.003607 0.000000
endloop
endfacet
facet normal 0.000000 0.000000 -1.000000
outer loop
vertex 0.000174 0.003607 0.000000
vertex 0.000199 0.003675 0.000000
vertex 0.000225 0.003739 0.000000
endloop
endfacet
facet normal 0.000000 0.000000 -1.000000
outer loop
vertex 0.000278 0.003861 0.000000
vertex 0.000305 0.003925 0.000000
vertex 0.001607 0.005948 0.000000
endloop
endfacet
facet normal 0.000000 0.000000 -1.000000
outer loop
vertex 0.000174 0.003607 0.000000
vertex 0.000225 0.003739 0.000000
vertex 0.000278 0.003861 0.000000
endloop
endfacet
facet normal 0.000000 0.000000 -1.000000
outer loop
vertex 0.000080 0.003122 0.000000
vertex 0.000130 0.003445 0.000000
vertex 0.000174 0.003607 0.000000
endloop
endfacet
facet normal 0.000000 0.000000 -1.000000
outer loop
vertex 0.003573 0.005008 0.000000
vertex 0.002022 0.000019 0.000000
vertex 0.000080 0.003122 0.000000
endloop
endfacet
facet normal 0.000000 0.000000 -1.000000
outer loop
vertex 0.000278 0.003861 0.000000
vertex 0.001607 0.005948 0.000000
vertex 0.003573 0.005008 0.000000
endloop
endfacet
facet normal 0.000000 0.000000 -1.000000
outer loop
vertex 0.000080 0.003122 0.000000
vertex 0.000174 0.003607 0.000000
vertex 0.000278 0.003861 0.000000
endloop
endfacet
facet normal 0.000000 0.000000 -1.000000
outer loop
vertex 0.003573 0.005008 0.000000
vertex 0.000080 0.003122 0.000000
vertex 0.000278 0.003861 0.000000
endloop
endfacet
facet normal 0.323273 -0.946306 0.000000
outer loop
vertex 0.002022 0.000019 0.150000
vertex 0.002022 0.000019 0.000000
vertex 0.002074 0.000037 0.000000
endloop
endfacet
facet normal 0.323273 -0.946306 0.000000
outer loop
vertex 0.002022 0.000019 0.150000
vertex 0.002074 0.000037 0.000000
vertex 0.002074 0.000037 0.150000
endloop
endfacet
facet normal -0.318969 -0.947765 0.000000
outer loop
vertex 0.001275 0.000087 0.150000
vertex 0.001275 0.000087 0.000000
vertex 0.001357 0.000059 0.000000
endloop
endfacet
facet normal -0.318969 -0.947765 0.000000
outer loop
vertex 0.001275 0.000087 0.150000
vertex 0.001357 0.000059 0.000000
vertex 0.001357 0.000059 0.150000
endloop
endfacet
facet normal -0.951908 -0.306386 0.000000
outer loop
vertex 0.000224 0.001298 0.150000
vertex 0.000224 0.001298 0.000000
vertex 0.000289 0.001095 0.000000
endloop
endfacet
facet normal -0.951908 -0.306386 0.000000
outer loop
vertex 0.000224 0.001298 0.150000
vertex 0.000289 0.001095 0.000000
vertex 0.000289 0.001095 0.150000
endloop
endfacet
facet normal 0.998394 0.056648 0.000000
outer loop
vertex 0.004016 0.003573 0.150000
vertex 0.004016 0.003573 0.000000
vertex 0.004008 0.003710 0.000000
endloop
endfacet
facet normal 0.998395 0.056642 0.000000
outer loop
vertex 0.004016 0.003573 0.150000
vertex 0.004008 0.003710 0.000000
vertex 0.004008 0.003710 0.150000
endloop
endfacet
facet normal -0.998420 -0.056194 0.000000
outer loop
vertex 0.000001 0.002492 0.150000
vertex 0.000001 0.002492 0.000000
vertex 0.000006 0.002386 0.000000
endloop
endfacet
facet normal -0.998420 -0.056194 0.000000
outer loop
vertex 0.000001 0.002492 0.150000
vertex 0.000006 0.002386 0.000000
vertex 0.000006 0.002386 0.150000
endloop
endfacet
facet normal 0.412470 -0.910971 0.000000
outer loop
vertex 0.002074 0.000037 0.150000
vertex 0.002074 0.000037 0.000000
vertex 0.002130 0.000062 0.000000
endloop
endfacet
facet normal 0.412470 -0.910971 0.000000
outer loop
vertex 0.002074 0.000037 0.150000
vertex 0.002130 0.000062 0.000000
vertex 0.002130 0.000062 0.150000
endloop
endfacet
facet normal 0.836960 0.547264 0.000000
outer loop
vertex 0.003348 0.005402 0.000000
vertex 0.003348 0.005402 0.150000
vertex 0.003463 0.005225 0.150000
endloop
endfacet
facet normal 0.836960 0.547264 0.000000
outer loop
vertex 0.003348 0.005402 0.000000
vertex 0.003463 0.005225 0.150000
vertex 0.003463 0.005225 0.000000
endloop
endfacet
facet normal 0.116561 -0.993183 0.000000
outer loop
vertex 0.001920 0.000001 0.150000
vertex 0.001920 0.000001 0.000000
vertex 0.001971 0.000007 0.000000
endloop
endfacet
facet normal 0.116561 -0.993183 0.000000
outer loop
vertex 0.001920 0.000001 0.150000
vertex 0.001971 0.000007 0.000000
vertex 0.001971 0.000007 0.150000
endloop
endfacet
facet normal -0.716016 -0.698084 0.000000
outer loop
vertex 0.000496 0.000736 0.000000
vertex 0.000887 0.000335 0.000000
vertex 0.000887 0.000335 0.150000
endloop
endfacet
facet normal -0.716016 -0.698084 0.000000
outer loop
vertex 0.000496 0.000736 0.000000
vertex 0.000887 0.000335 0.150000
vertex 0.000496 0.000736 0.150000
endloop
endfacet
facet normal 0.000000 0.000000 1.000000
outer loop
vertex 0.002958 0.000744 0.000000
vertex 0.002999 0.000810 0.000000
vertex 0.003036 0.000871 0.000000
endloop
endfacet
facet normal 0.000000 0.000000 1.000000
outer loop
vertex 0.003036 0.000871 0.000000
vertex 0.003070 0.000927 0.000000
vertex 0.003102 0.000983 0.000000
endloop
endfacet
facet normal 0.881270 -0.472613 0.000000
outer loop
vertex 0.003102 0.000983 0.000000
vertex 0.003132 0.001040 0.000000
vertex 0.003132 0.001040 0.150000
endloop
endfacet
facet normal 0.881270 -0.472613 0.000000
outer loop
vertex 0.003102 0.000983 0.000000
vertex 0.003132 0.001040 0.150000
vertex 0.003102 0.000983 0.150000
endloop
endfacet
facet normal 0.000000 0.000000 1.000000
outer loop
vertex 0.002958 0.000744 0.000000
vertex 0.003036 0.000871 0.000000
vertex 0.003102 0.000983 0.000000
endloop
endfacet
facet normal 0.000000 0.000000 1.000000
outer loop
vertex 0.002863 0.000594 0.000000
vertex 0.002912 0.000668 0.000000
vertex 0.002958 0.000744 0.000000
endloop
endfacet
facet normal 0.837702 -0.546128 0.000000
outer loop
vertex 0.002912 0.000668 0.150000
vertex 0.002863 0.000594 0.150000
vertex 0.002863 0.000594 0.000000
endloop
endfacet
facet normal 0.852565 -0.522621 -0.000017
outer loop
vertex 0.002958 0.000744 0.150000
vertex 0.002912 0.000668 0.150000
vertex 0.002863 0.000594 0.000000
endloop
endfacet
facet normal 0.000000 0.000000 1.000000
outer loop
vertex 0.002863 0.000594 0.000000
vertex 0.002958 0.000744 0.000000
vertex 0.003102 0.000983 0.000000
endloop
endfacet
facet normal 0.868456 -0.495766 0.000000
outer loop
vertex 0.003102 0.000983 0.000000
vertex 0.003102 0.000983 0.150000
vertex 0.003070 0.000927 0.150000
endloop
endfacet
facet normal 0.858466 -0.512870 -0.000008
outer loop
vertex 0.003102 0.000983 0.000000
vertex 0.003070 0.000927 0.150000
vertex 0.003036 0.000871 0.150000
endloop
endfacet
facet normal 0.852587 -0.522586 -0.000017
outer loop
vertex 0.002958 0.000744 0.150000
vertex 0.002863 0.000594 0.000000
vertex 0.003102 0.000983 0.000000
endloop
endfacet
facet normal 0.852604 -0.522558 -0.000018
outer loop
vertex 0.003102 0.000983 0.000000
vertex 0.003036 0.000871 0.150000
vertex 0.002999 0.000810 0.150000
endloop
endfacet
facet normal 0.850920 -0.525295 -0.000022
outer loop
vertex 0.003102 0.000983 0.000000
vertex 0.002999 0.000810 0.150000
vertex 0.002958 0.000744 0.150000
endloop
endfacet
facet normal 0.919155 -0.393897 0.000000
outer loop
vertex 0.003570 0.002019 0.150000
vertex 0.003570 0.002019 0.000000
vertex 0.003624 0.002145 0.000000
endloop
endfacet
facet normal 0.919157 -0.393892 0.000000
outer loop
vertex 0.003570 0.002019 0.150000
vertex 0.003624 0.002145 0.000000
vertex 0.003624 0.002145 0.150000
endloop
endfacet
facet normal 0.987654 0.156650 0.000000
outer loop
vertex 0.004008 0.003710 0.150000
vertex 0.004008 0.003710 0.000000
vertex 0.003984 0.003860 0.000000
endloop
endfacet
facet normal 0.987653 0.156660 0.000000
outer loop
vertex 0.004008 0.003710 0.150000
vertex 0.003984 0.003860 0.000000
vertex 0.003984 0.003860 0.150000
endloop
endfacet
facet normal -0.941783 0.336222 0.000000
outer loop
vertex 0.000174 0.003607 0.150000
vertex 0.000199 0.003675 0.150000
vertex 0.000199 0.003675 0.000000
endloop
endfacet
facet normal -0.941782 0.336223 0.000000
outer loop
vertex 0.000174 0.003607 0.150000
vertex 0.000199 0.003675 0.000000
vertex 0.000174 0.003607 0.000000
endloop
endfacet
facet normal -0.971006 0.239054 0.000000
outer loop
vertex 0.000130 0.003445 0.000000
vertex 0.000130 0.003445 0.150000
vertex 0.000152 0.003531 0.150000
endloop
endfacet
facet normal -0.957149 0.289596 0.000000
outer loop
vertex 0.000152 0.003531 0.150000
vertex 0.000174 0.003607 0.150000
vertex 0.000174 0.003607 0.000000
endloop
endfacet
facet normal -0.971006 0.239054 0.000000
outer loop
vertex 0.000152 0.003531 0.000000
vertex 0.000130 0.003445 0.000000
vertex 0.000152 0.003531 0.150000
endloop
endfacet
facet normal -0.957149 0.289597 0.000000
outer loop
vertex 0.000174 0.003607 0.000000
vertex 0.000152 0.003531 0.000000
vertex 0.000152 0.003531 0.150000
endloop
endfacet
facet normal -0.999393 0.034839 0.000000
outer loop
vertex 0.000007 0.002675 0.000000
vertex 0.000001 0.002492 0.000000
vertex 0.000001 0.002492 0.150000
endloop
endfacet
facet normal -0.999393 0.034839 0.000000
outer loop
vertex 0.000007 0.002675 0.000000
vertex 0.000001 0.002492 0.150000
vertex 0.000007 0.002675 0.150000
endloop
endfacet
facet normal 0.880315 -0.474389 0.000000
outer loop
vertex 0.003435 0.001768 0.000000
vertex 0.003570 0.002019 0.000000
vertex 0.003570 0.002019 0.150000
endloop
endfacet
facet normal 0.880314 -0.474391 0.000000
outer loop
vertex 0.003435 0.001768 0.000000
vertex 0.003570 0.002019 0.150000
vertex 0.003435 0.001768 0.150000
endloop
endfacet
facet normal 0.893050 0.449957 0.000000
outer loop
vertex 0.003573 0.005008 0.150000
vertex 0.003573 0.005008 0.000000
vertex 0.003463 0.005225 0.000000
endloop
endfacet
facet normal 0.893050 0.449957 0.000000
outer loop
vertex 0.003573 0.005008 0.150000
vertex 0.003463 0.005225 0.000000
vertex 0.003463 0.005225 0.150000
endloop
endfacet
facet normal -0.224580 -0.974456 0.000000
outer loop
vertex 0.001357 0.000059 0.150000
vertex 0.001357 0.000059 0.000000
vertex 0.001441 0.000040 0.000000
endloop
endfacet
facet normal -0.224580 -0.974456 0.000000
outer loop
vertex 0.001357 0.000059 0.150000
vertex 0.001441 0.000040 0.000000
vertex 0.001441 0.000040 0.150000
endloop
endfacet
facet normal 0.923510 -0.383575 0.000000
outer loop
vertex 0.003132 0.001040 0.000000
vertex 0.003435 0.001768 0.000000
vertex 0.003435 0.001768 0.150000
endloop
endfacet
facet normal 0.923510 -0.383576 0.000000
outer loop
vertex 0.003132 0.001040 0.000000
vertex 0.003435 0.001768 0.150000
vertex 0.003132 0.001040 0.150000
endloop
endfacet
facet normal 0.605476 -0.795864 0.000000
outer loop
vertex 0.002620 0.000354 0.150000
vertex 0.002620 0.000354 0.000000
vertex 0.002719 0.000430 0.000000
endloop
endfacet
facet normal 0.605479 -0.795861 0.000000
outer loop
vertex 0.002620 0.000354 0.150000
vertex 0.002719 0.000430 0.000000
vertex 0.002719 0.000430 0.150000
endloop
endfacet
facet normal -0.035425 0.999372 0.000000
outer loop
vertex 0.002358 0.006076 0.150000
vertex 0.002358 0.006076 0.000000
vertex 0.002304 0.006074 0.000000
endloop
endfacet
facet normal -0.035424 0.999372 0.000000
outer loop
vertex 0.002358 0.006076 0.150000
vertex 0.002304 0.006074 0.000000
vertex 0.002304 0.006074 0.150000
endloop
endfacet
facet normal -0.980618 -0.195932 0.000000
outer loop
vertex 0.000006 0.002386 0.000000
vertex 0.000224 0.001298 0.000000
vertex 0.000224 0.001298 0.150000
endloop
endfacet
facet normal -0.980618 -0.195932 0.000000
outer loop
vertex 0.000006 0.002386 0.000000
vertex 0.000224 0.001298 0.150000
vertex 0.000006 0.002386 0.150000
endloop
endfacet
facet normal -0.903965 -0.427607 0.000000
outer loop
vertex 0.000376 0.000911 0.000000
vertex 0.000376 0.000911 0.150000
vertex 0.000289 0.001095 0.150000
endloop
endfacet
facet normal -0.903965 -0.427607 0.000000
outer loop
vertex 0.000376 0.000911 0.000000
vertex 0.000289 0.001095 0.150000
vertex 0.000289 0.001095 0.000000
endloop
endfacet
facet normal -0.995431 0.095488 0.000000
outer loop
vertex 0.000507 0.005310 0.000000
vertex 0.000406 0.004255 0.000000
vertex 0.000406 0.004255 0.150000
endloop
endfacet
facet normal -0.995431 0.095488 0.000000
outer loop
vertex 0.000507 0.005310 0.000000
vertex 0.000406 0.004255 0.150000
vertex 0.000507 0.005310 0.150000
endloop
endfacet
facet normal 0.086617 0.996242 0.000000
outer loop
vertex 0.002408 0.006072 0.150000
vertex 0.002408 0.006072 0.000000
vertex 0.002358 0.006076 0.000000
endloop
endfacet
facet normal 0.086617 0.996242 0.000000
outer loop
vertex 0.002408 0.006072 0.150000
vertex 0.002358 0.006076 0.000000
vertex 0.002358 0.006076 0.150000
endloop
endfacet
facet normal 0.998751 -0.049970 0.000000
outer loop
vertex 0.004009 0.003446 0.150000
vertex 0.004009 0.003446 0.000000
vertex 0.004016 0.003573 0.000000
endloop
endfacet
facet normal 0.998750 -0.049976 0.000000
outer loop
vertex 0.004009 0.003446 0.150000
vertex 0.004016 0.003573 0.000000
vertex 0.004016 0.003573 0.150000
endloop
endfacet
facet normal 0.493784 0.869585 0.000000
outer loop
vertex 0.002708 0.005938 0.000000
vertex 0.002579 0.006011 0.000000
vertex 0.002579 0.006011 0.150000
endloop
endfacet
facet normal 0.493785 0.869584 0.000000
outer loop
vertex 0.002708 0.005938 0.000000
vertex 0.002579 0.006011 0.150000
vertex 0.002708 0.005938 0.150000
endloop
endfacet
facet normal 0.025796 -0.999667 0.000000
outer loop
vertex 0.001869 0.000000 0.150000
vertex 0.001869 0.000000 0.000000
vertex 0.001920 0.000001 0.000000
endloop
endfacet
facet normal 0.025796 -0.999667 0.000000
outer loop
vertex 0.001869 0.000000 0.150000
vertex 0.001920 0.000001 0.000000
vertex 0.001920 0.000001 0.150000
endloop
endfacet
facet normal -0.992728 0.120381 0.000000
outer loop
vertex 0.000017 0.002759 0.000000
vertex 0.000007 0.002675 0.000000
vertex 0.000007 0.002675 0.150000
endloop
endfacet
facet normal -0.992728 0.120381 0.000000
outer loop
vertex 0.000017 0.002759 0.000000
vertex 0.000007 0.002675 0.150000
vertex 0.000017 0.002759 0.150000
endloop
endfacet
facet normal -0.987267 0.159073 0.000000
outer loop
vertex 0.000031 0.002843 0.000000
vertex 0.000017 0.002759 0.000000
vertex 0.000017 0.002759 0.150000
endloop
endfacet
facet normal -0.987267 0.159073 0.000000
outer loop
vertex 0.000031 0.002843 0.000000
vertex 0.000017 0.002759 0.150000
vertex 0.000031 0.002843 0.150000
endloop
endfacet
facet normal -0.983871 0.178878 0.000000
outer loop
vertex 0.000063 0.003021 0.000000
vertex 0.000031 0.002843 0.000000
vertex 0.000031 0.002843 0.150000
endloop
endfacet
facet normal -0.983871 0.178878 0.000000
outer loop
vertex 0.000063 0.003021 0.000000
vertex 0.000031 0.002843 0.150000
vertex 0.000063 0.003021 0.150000
endloop
endfacet
facet normal -0.986503 0.163746 0.000000
outer loop
vertex 0.000080 0.003122 0.000000
vertex 0.000063 0.003021 0.000000
vertex 0.000063 0.003021 0.150000
endloop
endfacet
facet normal -0.986503 0.163746 0.000000
outer loop
vertex 0.000080 0.003122 0.000000
vertex 0.000063 0.003021 0.150000
vertex 0.000080 0.003122 0.150000
endloop
endfacet
facet normal -0.990509 0.137446 0.000000
outer loop
vertex 0.000095 0.003235 0.000000
vertex 0.000080 0.003122 0.000000
vertex 0.000080 0.003122 0.150000
endloop
endfacet
facet normal -0.990509 0.137446 0.000000
outer loop
vertex 0.000095 0.003235 0.000000
vertex 0.000080 0.003122 0.150000
vertex 0.000095 0.003235 0.150000
endloop
endfacet
facet normal -0.981936 0.189213 0.000000
outer loop
vertex 0.000130 0.003445 0.150000
vertex 0.000130 0.003445 0.000000
vertex 0.000112 0.003347 0.000000
endloop
endfacet
facet normal -0.989704 0.143130 0.000000
outer loop
vertex 0.000112 0.003347 0.000000
vertex 0.000095 0.003235 0.000000
vertex 0.000095 0.003235 0.150000
endloop
endfacet
facet normal -0.981936 0.189213 0.000000
outer loop
vertex 0.000112 0.003347 0.150000
vertex 0.000130 0.003445 0.150000
vertex 0.000112 0.003347 0.000000
endloop
endfacet
facet normal -0.989704 0.143129 0.000000
outer loop
vertex 0.000095 0.003235 0.150000
vertex 0.000112 0.003347 0.150000
vertex 0.000112 0.003347 0.000000
endloop
endfacet
facet normal -0.217632 0.976031 0.000000
outer loop
vertex 0.001824 0.006002 0.000000
vertex 0.001744 0.005984 0.000000
vertex 0.001744 0.005984 0.150000
endloop
endfacet
facet normal -0.217633 0.976031 0.000000
outer loop
vertex 0.001824 0.006002 0.000000
vertex 0.001744 0.005984 0.150000
vertex 0.001824 0.006002 0.150000
endloop
endfacet
facet normal -0.195975 0.980609 0.000000
outer loop
vertex 0.001908 0.006019 0.000000
vertex 0.001824 0.006002 0.000000
vertex 0.001824 0.006002 0.150000
endloop
endfacet
facet normal -0.195975 0.980609 0.000000
outer loop
vertex 0.001908 0.006019 0.000000
vertex 0.001824 0.006002 0.150000
vertex 0.001908 0.006019 0.150000
endloop
endfacet
facet normal -0.167437 0.985883 0.000000
outer loop
vertex 0.002080 0.006048 0.000000
vertex 0.001908 0.006019 0.000000
vertex 0.001908 0.006019 0.150000
endloop
endfacet
facet normal -0.167436 0.985883 0.000000
outer loop
vertex 0.002080 0.006048 0.000000
vertex 0.001908 0.006019 0.150000
vertex 0.002080 0.006048 0.150000
endloop
endfacet
facet normal -0.137947 0.990440 0.000000
outer loop
vertex 0.002162 0.006060 0.000000
vertex 0.002080 0.006048 0.000000
vertex 0.002080 0.006048 0.150000
endloop
endfacet
facet normal -0.137948 0.990440 0.000000
outer loop
vertex 0.002162 0.006060 0.000000
vertex 0.002080 0.006048 0.150000
vertex 0.002162 0.006060 0.150000
endloop
endfacet
facet normal -0.082912 0.996557 0.000000
outer loop
vertex 0.002304 0.006074 0.150000
vertex 0.002304 0.006074 0.000000
vertex 0.002237 0.006068 0.000000
endloop
endfacet
facet normal -0.114240 0.993453 0.000000
outer loop
vertex 0.002237 0.006068 0.000000
vertex 0.002162 0.006060 0.000000
vertex 0.002162 0.006060 0.150000
endloop
endfacet
facet normal -0.082912 0.996557 0.000000
outer loop
vertex 0.002237 0.006068 0.150000
vertex 0.002304 0.006074 0.150000
vertex 0.002237 0.006068 0.000000
endloop
endfacet
facet normal -0.114240 0.993453 0.000000
outer loop
vertex 0.002237 0.006068 0.000000
vertex 0.002162 0.006060 0.150000
vertex 0.002237 0.006068 0.150000
endloop
endfacet
facet normal -0.508631 0.860985 0.000000
outer loop
vertex 0.000507 0.005310 0.000000
vertex 0.000507 0.005310 0.150000
vertex 0.001557 0.005929 0.150000
endloop
endfacet
facet normal -0.508631 0.860985 0.000000
outer loop
vertex 0.000507 0.005310 0.000000
vertex 0.001557 0.005929 0.150000
vertex 0.001557 0.005929 0.000000
endloop
endfacet
facet normal 0.746261 0.665653 0.000000
outer loop
vertex 0.003348 0.005402 0.150000
vertex 0.003348 0.005402 0.000000
vertex 0.003218 0.005547 0.000000
endloop
endfacet
facet normal 0.746262 0.665652 0.000000
outer loop
vertex 0.003348 0.005402 0.150000
vertex 0.003218 0.005547 0.000000
vertex 0.003218 0.005547 0.150000
endloop
endfacet
facet normal 0.220583 -0.975368 0.000000
outer loop
vertex 0.001971 0.000007 0.150000
vertex 0.001971 0.000007 0.000000
vertex 0.002022 0.000019 0.000000
endloop
endfacet
facet normal 0.220586 -0.975368 0.000000
outer loop
vertex 0.001971 0.000007 0.150000
vertex 0.002022 0.000019 0.000000
vertex 0.002022 0.000019 0.150000
endloop
endfacet
facet normal -0.618576 -0.785725 0.000000
outer loop
vertex 0.000887 0.000335 0.000000
vertex 0.001040 0.000215 0.000000
vertex 0.001040 0.000215 0.150000
endloop
endfacet
facet normal -0.618576 -0.785725 0.000000
outer loop
vertex 0.000887 0.000335 0.000000
vertex 0.001040 0.000215 0.150000
vertex 0.000887 0.000335 0.150000
endloop
endfacet
endsolid Exported from Blender-3.6.8
