solid Exported from Blender-3.6.8
facet normal -0.807244 0.590217 0.000000
outer loop
vertex 0.001332 0.005607 0.000000
vertex 0.001174 0.005390 0.000000
vertex 0.001174 0.005390 0.150000
endloop
endfacet
facet normal -0.807244 0.590218 0.000000
outer loop
vertex 0.001332 0.005607 0.000000
vertex 0.001174 0.005390 0.150000
vertex 0.001332 0.005607 0.150000
endloop
endfacet
facet normal -0.788224 0.615388 0.000000
outer loop
vertex 0.001494 0.005815 0.000000
vertex 0.001332 0.005607 0.000000
vertex 0.001332 0.005607 0.150000
endloop
endfacet
facet normal -0.788224 0.615388 0.000000
outer loop
vertex 0.001494 0.005815 0.000000
vertex 0.001332 0.005607 0.150000
vertex 0.001494 0.005815 0.150000
endloop
endfacet
facet normal -0.773040 0.634357 0.000000
outer loop
vertex 0.001655 0.006010 0.000000
vertex 0.001494 0.005815 0.000000
vertex 0.001494 0.005815 0.150000
endloop
endfacet
facet normal -0.773040 0.634357 0.000000
outer loop
vertex 0.001655 0.006010 0.000000
vertex 0.001494 0.005815 0.150000
vertex 0.001655 0.006010 0.150000
endloop
endfacet
facet normal 0.000000 0.000000 -1.000000
outer loop
vertex 0.002186 0.006627 0.000000
vertex 0.002079 0.006502 0.000000
vertex 0.001809 0.006191 0.000000
endloop
endfacet
facet normal -0.761821 0.647788 0.000000
outer loop
vertex 0.001809 0.006191 0.000000
vertex 0.001655 0.006010 0.000000
vertex 0.001655 0.006010 0.150000
endloop
endfacet
facet normal -0.761822 0.647786 0.000000
outer loop
vertex 0.001809 0.006191 0.000000
vertex 0.001655 0.006010 0.150000
vertex 0.001809 0.006191 0.150000
endloop
endfacet
facet normal 0.000000 0.000000 -1.000000
outer loop
vertex 0.002267 0.006729 0.000000
vertex 0.002186 0.006627 0.000000
vertex 0.001809 0.006191 0.000000
endloop
endfacet
facet normal -0.780489 0.625170 0.000000
outer loop
vertex 0.002186 0.006627 0.150000
vertex 0.002267 0.006729 0.150000
vertex 0.002267 0.006729 0.000000
endloop
endfacet
facet normal -0.754444 0.656365 0.000000
outer loop
vertex 0.001809 0.006191 0.000000
vertex 0.001809 0.006191 0.150000
vertex 0.002079 0.006502 0.150000
endloop
endfacet
facet normal -0.760424 0.649427 0.000027
outer loop
vertex 0.002079 0.006502 0.150000
vertex 0.002186 0.006627 0.150000
vertex 0.002267 0.006729 0.000000
endloop
endfacet
facet normal -0.760736 0.649061 0.000026
outer loop
vertex 0.002079 0.006502 0.150000
vertex 0.002267 0.006729 0.000000
vertex 0.001809 0.006191 0.000000
endloop
endfacet
facet normal -0.944638 0.328113 0.000000
outer loop
vertex 0.000113 0.003589 0.150000
vertex 0.000113 0.003589 0.000000
vertex 0.000061 0.003437 0.000000
endloop
endfacet
facet normal -0.944638 0.328113 0.000000
outer loop
vertex 0.000113 0.003589 0.150000
vertex 0.000061 0.003437 0.000000
vertex 0.000061 0.003437 0.150000
endloop
endfacet
facet normal 0.000000 0.000000 1.000000
outer loop
vertex 0.007268 0.002043 0.000000
vertex 0.007311 0.002131 0.000000
vertex 0.007349 0.002215 0.000000
endloop
endfacet
facet normal 0.928075 -0.372393 0.000000
outer loop
vertex 0.007349 0.002215 0.000000
vertex 0.007383 0.002300 0.000000
vertex 0.007383 0.002300 0.150000
endloop
endfacet
facet normal 0.928075 -0.372393 0.000000
outer loop
vertex 0.007349 0.002215 0.000000
vertex 0.007383 0.002300 0.150000
vertex 0.007349 0.002215 0.150000
endloop
endfacet
facet normal 0.000000 0.000000 1.000000
outer loop
vertex 0.007049 0.001618 0.000000
vertex 0.007268 0.002043 0.000000
vertex 0.007349 0.002215 0.000000
endloop
endfacet
facet normal 0.000000 0.000000 1.000000
outer loop
vertex 0.006909 0.001343 0.000000
vertex 0.006981 0.001479 0.000000
vertex 0.007049 0.001618 0.000000
endloop
endfacet
facet normal 0.885019 -0.465555 0.000000
outer loop
vertex 0.006981 0.001479 0.150000
vertex 0.006909 0.001343 0.150000
vertex 0.006909 0.001343 0.000000
endloop
endfacet
facet normal 0.898087 -0.439818 -0.000030
outer loop
vertex 0.007049 0.001618 0.150000
vertex 0.006981 0.001479 0.150000
vertex 0.006909 0.001343 0.000000
endloop
endfacet
facet normal 0.000000 0.000000 1.000000
outer loop
vertex 0.006909 0.001343 0.000000
vertex 0.007049 0.001618 0.000000
vertex 0.007349 0.002215 0.000000
endloop
endfacet
facet normal 0.911417 -0.411484 0.000000
outer loop
vertex 0.007349 0.002215 0.000000
vertex 0.007349 0.002215 0.150000
vertex 0.007311 0.002131 0.150000
endloop
endfacet
facet normal 0.889183 -0.457551 0.000011
outer loop
vertex 0.007268 0.002043 0.150000
vertex 0.007049 0.001618 0.150000
vertex 0.006909 0.001343 0.000000
endloop
endfacet
facet normal 0.898256 -0.439472 -0.000019
outer loop
vertex 0.007349 0.002215 0.000000
vertex 0.007311 0.002131 0.150000
vertex 0.007268 0.002043 0.150000
endloop
endfacet
facet normal 0.893083 -0.449892 -0.000034
outer loop
vertex 0.007349 0.002215 0.000000
vertex 0.007268 0.002043 0.150000
vertex 0.006909 0.001343 0.000000
endloop
endfacet
facet normal -0.900441 -0.434979 0.000000
outer loop
vertex 0.000117 0.001242 0.150000
vertex 0.000117 0.001242 0.000000
vertex 0.000167 0.001137 0.000000
endloop
endfacet
facet normal -0.900441 -0.434979 0.000000
outer loop
vertex 0.000117 0.001242 0.150000
vertex 0.000167 0.001137 0.000000
vertex 0.000167 0.001137 0.150000
endloop
endfacet
facet normal -0.666414 -0.745582 0.000000
outer loop
vertex 0.000242 0.001040 0.150000
vertex 0.000242 0.001040 0.000000
vertex 0.000348 0.000946 0.000000
endloop
endfacet
facet normal -0.666413 -0.745583 0.000000
outer loop
vertex 0.000242 0.001040 0.150000
vertex 0.000348 0.000946 0.000000
vertex 0.000348 0.000946 0.150000
endloop
endfacet
facet normal 0.000000 0.000000 1.000000
outer loop
vertex 0.000442 0.004140 0.000000
vertex 0.000346 0.003996 0.000000
vertex 0.000258 0.003861 0.000000
endloop
endfacet
facet normal -0.862555 0.505963 0.000000
outer loop
vertex 0.000258 0.003861 0.000000
vertex 0.000180 0.003728 0.000000
vertex 0.000180 0.003728 0.150000
endloop
endfacet
facet normal -0.862555 0.505963 0.000000
outer loop
vertex 0.000258 0.003861 0.000000
vertex 0.000180 0.003728 0.150000
vertex 0.000258 0.003861 0.150000
endloop
endfacet
facet normal -0.834235 0.551409 0.000000
outer loop
vertex 0.000442 0.004140 0.000000
vertex 0.000258 0.003861 0.000000
vertex 0.000258 0.003861 0.150000
endloop
endfacet
facet normal -0.837292 0.546756 -0.000012
outer loop
vertex 0.000442 0.004140 0.000000
vertex 0.000258 0.003861 0.150000
vertex 0.000346 0.003996 0.150000
endloop
endfacet
facet normal -0.842467 0.538748 -0.000023
outer loop
vertex 0.000545 0.004301 0.000000
vertex 0.000442 0.004140 0.000000
vertex 0.000346 0.003996 0.150000
endloop
endfacet
facet normal -0.831370 0.555720 0.000026
outer loop
vertex 0.000545 0.004301 0.000000
vertex 0.000346 0.003996 0.150000
vertex 0.000442 0.004140 0.150000
endloop
endfacet
facet normal 0.000000 0.000000 1.000000
outer loop
vertex 0.001023 0.005165 0.000000
vertex 0.000884 0.004935 0.000000
vertex 0.000653 0.004485 0.000000
endloop
endfacet
facet normal -0.864439 0.502738 -0.000054
outer loop
vertex 0.000653 0.004485 0.000000
vertex 0.000545 0.004301 0.000000
vertex 0.000442 0.004140 0.150000
endloop
endfacet
facet normal -0.842466 0.538749 0.000060
outer loop
vertex 0.000653 0.004485 0.000000
vertex 0.000442 0.004140 0.150000
vertex 0.000545 0.004301 0.150000
endloop
endfacet
facet normal 0.000000 0.000000 1.000000
outer loop
vertex 0.001174 0.005390 0.000000
vertex 0.001023 0.005165 0.000000
vertex 0.000653 0.004485 0.000000
endloop
endfacet
facet normal -0.830122 0.557581 0.000000
outer loop
vertex 0.001023 0.005165 0.150000
vertex 0.001174 0.005390 0.150000
vertex 0.001174 0.005390 0.000000
endloop
endfacet
facet normal -0.856892 0.515496 -0.000090
outer loop
vertex 0.000884 0.004935 0.150000
vertex 0.001023 0.005165 0.150000
vertex 0.001174 0.005390 0.000000
endloop
endfacet
facet normal -0.866515 0.499152 -0.000006
outer loop
vertex 0.001174 0.005390 0.000000
vertex 0.000653 0.004485 0.000000
vertex 0.000545 0.004301 0.150000
endloop
endfacet
facet normal -0.888984 0.457939 -0.000327
outer loop
vertex 0.000653 0.004485 0.150000
vertex 0.000884 0.004935 0.150000
vertex 0.001174 0.005390 0.000000
endloop
endfacet
facet normal -0.864439 0.502738 0.000029
outer loop
vertex 0.000545 0.004301 0.150000
vertex 0.000653 0.004485 0.150000
vertex 0.001174 0.005390 0.000000
endloop
endfacet
facet normal 0.160378 -0.987056 0.000000
outer loop
vertex 0.004971 0.000006 0.150000
vertex 0.004971 0.000006 0.000000
vertex 0.005094 0.000026 0.000000
endloop
endfacet
facet normal 0.160379 -0.987055 0.000000
outer loop
vertex 0.004971 0.000006 0.150000
vertex 0.005094 0.000026 0.000000
vertex 0.005094 0.000026 0.150000
endloop
endfacet
facet normal -0.902283 0.431144 0.000000
outer loop
vertex 0.000180 0.003728 0.150000
vertex 0.000180 0.003728 0.000000
vertex 0.000113 0.003589 0.000000
endloop
endfacet
facet normal -0.902283 0.431144 0.000000
outer loop
vertex 0.000180 0.003728 0.150000
vertex 0.000113 0.003589 0.000000
vertex 0.000113 0.003589 0.150000
endloop
endfacet
facet normal -0.563329 -0.826233 0.000000
outer loop
vertex 0.000348 0.000946 0.150000
vertex 0.000348 0.000946 0.000000
vertex 0.000489 0.000849 0.000000
endloop
endfacet
facet normal -0.563329 -0.826233 0.000000
outer loop
vertex 0.000348 0.000946 0.150000
vertex 0.000489 0.000849 0.000000
vertex 0.000489 0.000849 0.150000
endloop
endfacet
facet normal 0.571598 -0.820534 0.000000
outer loop
vertex 0.005513 0.000209 0.000000
vertex 0.006582 0.000954 0.000000
vertex 0.006582 0.000954 0.150000
endloop
endfacet
facet normal 0.571598 -0.820534 0.000000
outer loop
vertex 0.005513 0.000209 0.000000
vertex 0.006582 0.000954 0.150000
vertex 0.005513 0.000209 0.150000
endloop
endfacet
facet normal -0.129330 0.991601 0.000000
outer loop
vertex 0.003432 0.007068 0.150000
vertex 0.003432 0.007068 0.000000
vertex 0.003367 0.007060 0.000000
endloop
endfacet
facet normal -0.129329 0.991602 0.000000
outer loop
vertex 0.003432 0.007068 0.150000
vertex 0.003367 0.007060 0.000000
vertex 0.003367 0.007060 0.150000
endloop
endfacet
facet normal 0.001932 0.000000 0.999998
outer loop
vertex 0.007049 0.001618 0.150000
vertex 0.007268 0.002043 0.150000
vertex 0.007311 0.002131 0.150000
endloop
endfacet
facet normal -0.005023 0.000000 0.999987
outer loop
vertex 0.007311 0.002131 0.150000
vertex 0.007349 0.002215 0.150000
vertex 0.007383 0.002300 0.150000
endloop
endfacet
facet normal 0.000000 0.000000 1.000000
outer loop
vertex 0.007383 0.002300 0.150000
vertex 0.007439 0.002481 0.150000
vertex 0.007523 0.002891 0.150000
endloop
endfacet
facet normal -0.002188 0.000000 0.999998
outer loop
vertex 0.007523 0.002891 0.150000
vertex 0.007588 0.003103 0.150000
vertex 0.007605 0.003168 0.150000
endloop
endfacet
facet normal 0.000000 0.000000 1.000000
outer loop
vertex 0.007605 0.003168 0.150000
vertex 0.007615 0.003238 0.150000
vertex 0.007619 0.003316 0.150000
endloop
endfacet
facet normal -0.000916 0.000000 1.000000
outer loop
vertex 0.007619 0.003316 0.150000
vertex 0.007598 0.003514 0.150000
vertex 0.007326 0.004572 0.150000
endloop
endfacet
facet normal -0.000678 0.000000 1.000000
outer loop
vertex 0.007326 0.004572 0.150000
vertex 0.007211 0.004882 0.150000
vertex 0.007092 0.005108 0.150000
endloop
endfacet
facet normal 0.000261 0.000000 1.000000
outer loop
vertex 0.007092 0.005108 0.150000
vertex 0.006719 0.005689 0.150000
vertex 0.006579 0.005869 0.150000
endloop
endfacet
facet normal -0.001297 0.000000 0.999999
outer loop
vertex 0.006579 0.005869 0.150000
vertex 0.006424 0.006024 0.150000
vertex 0.006336 0.006094 0.150000
endloop
endfacet
facet normal 0.000000 0.000000 1.000000
outer loop
vertex 0.006336 0.006094 0.150000
vertex 0.006128 0.006224 0.150000
vertex 0.006005 0.006284 0.150000
endloop
endfacet
facet normal 0.000000 0.000000 1.000000
outer loop
vertex 0.005881 0.006341 0.150000
vertex 0.005661 0.006445 0.150000
vertex 0.005560 0.006492 0.150000
endloop
endfacet
facet normal 0.000390 0.000000 1.000000
outer loop
vertex 0.006336 0.006094 0.150000
vertex 0.006005 0.006284 0.150000
vertex 0.005881 0.006341 0.150000
endloop
endfacet
facet normal -0.000211 0.000000 1.000000
outer loop
vertex 0.007092 0.005108 0.150000
vertex 0.006579 0.005869 0.150000
vertex 0.006336 0.006094 0.150000
endloop
endfacet
facet normal 0.000107 0.000000 1.000000
outer loop
vertex 0.007619 0.003316 0.150000
vertex 0.007326 0.004572 0.150000
vertex 0.007092 0.005108 0.150000
endloop
endfacet
facet normal 0.000897 0.000000 1.000000
outer loop
vertex 0.007523 0.002891 0.150000
vertex 0.007605 0.003168 0.150000
vertex 0.007619 0.003316 0.150000
endloop
endfacet
facet normal 0.000000 0.000000 1.000000
outer loop
vertex 0.007311 0.002131 0.150000
vertex 0.007383 0.002300 0.150000
vertex 0.007523 0.002891 0.150000
endloop
endfacet
facet normal -0.005313 0.000000 0.999986
outer loop
vertex 0.006909 0.001343 0.150000
vertex 0.006981 0.001479 0.150000
vertex 0.007049 0.001618 0.150000
endloop
endfacet
facet normal 0.000000 0.000000 1.000000
outer loop
vertex 0.007049 0.001618 0.150000
vertex 0.007311 0.002131 0.150000
vertex 0.007523 0.002891 0.150000
endloop
endfacet
facet normal 0.000000 0.000000 1.000000
outer loop
vertex 0.007523 0.002891 0.150000
vertex 0.007619 0.003316 0.150000
vertex 0.007092 0.005108 0.150000
endloop
endfacet
facet normal 0.000028 0.000000 1.000000
outer loop
vertex 0.007092 0.005108 0.150000
vertex 0.006336 0.006094 0.150000
vertex 0.005881 0.006341 0.150000
endloop
endfacet
facet normal 0.004874 0.000000 0.999988
outer loop
vertex 0.005881 0.006341 0.150000
vertex 0.005560 0.006492 0.150000
vertex 0.005461 0.006537 0.150000
endloop
endfacet
facet normal 0.002878 0.000000 0.999996
outer loop
vertex 0.005461 0.006537 0.150000
vertex 0.005362 0.006580 0.150000
vertex 0.005258 0.006621 0.150000
endloop
endfacet
facet normal 0.001991 0.000000 0.999998
outer loop
vertex 0.005258 0.006621 0.150000
vertex 0.005147 0.006661 0.150000
vertex 0.005027 0.006701 0.150000
endloop
endfacet
facet normal -0.001587 0.000000 0.999999
outer loop
vertex 0.005027 0.006701 0.150000
vertex 0.004894 0.006741 0.150000
vertex 0.004745 0.006781 0.150000
endloop
endfacet
facet normal 0.000906 0.000000 1.000000
outer loop
vertex 0.004409 0.006862 0.150000
vertex 0.003802 0.007021 0.150000
vertex 0.003716 0.007041 0.150000
endloop
endfacet
facet normal 0.000000 0.000000 1.000000
outer loop
vertex 0.005027 0.006701 0.150000
vertex 0.004745 0.006781 0.150000
vertex 0.004409 0.006862 0.150000
endloop
endfacet
facet normal 0.000000 0.000000 1.000000
outer loop
vertex 0.005461 0.006537 0.150000
vertex 0.005258 0.006621 0.150000
vertex 0.005027 0.006701 0.150000
endloop
endfacet
facet normal -0.000013 0.000000 1.000000
outer loop
vertex 0.007092 0.005108 0.150000
vertex 0.005881 0.006341 0.150000
vertex 0.005461 0.006537 0.150000
endloop
endfacet
facet normal 0.000000 0.000000 1.000000
outer loop
vertex 0.007049 0.001618 0.150000
vertex 0.007523 0.002891 0.150000
vertex 0.007092 0.005108 0.150000
endloop
endfacet
facet normal 0.001748 0.000000 0.999999
outer loop
vertex 0.006835 0.001226 0.150000
vertex 0.006909 0.001343 0.150000
vertex 0.007049 0.001618 0.150000
endloop
endfacet
facet normal 0.000000 0.000000 1.000000
outer loop
vertex 0.006582 0.000954 0.150000
vertex 0.006756 0.001124 0.150000
vertex 0.006835 0.001226 0.150000
endloop
endfacet
facet normal 0.000000 0.000000 1.000000
outer loop
vertex 0.005363 0.000124 0.150000
vertex 0.005513 0.000209 0.150000
vertex 0.006582 0.000954 0.150000
endloop
endfacet
facet normal 0.000733 0.000000 1.000000
outer loop
vertex 0.005094 0.000026 0.150000
vertex 0.005224 0.000064 0.150000
vertex 0.005363 0.000124 0.150000
endloop
endfacet
facet normal -0.000272 0.000000 1.000000
outer loop
vertex 0.004851 0.000000 0.150000
vertex 0.004971 0.000006 0.150000
vertex 0.005094 0.000026 0.150000
endloop
endfacet
facet normal 0.000166 0.000000 1.000000
outer loop
vertex 0.004358 0.000042 0.150000
vertex 0.004733 0.000005 0.150000
vertex 0.004851 0.000000 0.150000
endloop
endfacet
facet normal 0.000000 0.000000 1.000000
outer loop
vertex 0.004358 0.000042 0.150000
vertex 0.004851 0.000000 0.150000
vertex 0.005094 0.000026 0.150000
endloop
endfacet
facet normal 0.000000 0.000000 1.000000
outer loop
vertex 0.005094 0.000026 0.150000
vertex 0.005363 0.000124 0.150000
vertex 0.006582 0.000954 0.150000
endloop
endfacet
facet normal 0.000000 0.000000 1.000000
outer loop
vertex 0.006582 0.000954 0.150000
vertex 0.006835 0.001226 0.150000
vertex 0.007049 0.001618 0.150000
endloop
endfacet
facet normal -0.000010 0.000000 1.000000
outer loop
vertex 0.007049 0.001618 0.150000
vertex 0.007092 0.005108 0.150000
vertex 0.005461 0.006537 0.150000
endloop
endfacet
facet normal 0.000000 0.000000 1.000000
outer loop
vertex 0.005461 0.006537 0.150000
vertex 0.005027 0.006701 0.150000
vertex 0.004409 0.006862 0.150000
endloop
endfacet
facet normal 0.000191 0.000000 1.000000
outer loop
vertex 0.004409 0.006862 0.150000
vertex 0.003716 0.007041 0.150000
vertex 0.003565 0.007066 0.150000
endloop
endfacet
facet normal 0.000000 0.000000 1.000000
outer loop
vertex 0.003565 0.007066 0.150000
vertex 0.003497 0.007070 0.150000
vertex 0.003432 0.007068 0.150000
endloop
endfacet
facet normal 0.000000 0.000000 1.000000
outer loop
vertex 0.003432 0.007068 0.150000
vertex 0.003367 0.007060 0.150000
vertex 0.002319 0.006805 0.150000
endloop
endfacet
facet normal -0.000025 0.000000 1.000000
outer loop
vertex 0.003432 0.007068 0.150000
vertex 0.002319 0.006805 0.150000
vertex 0.002267 0.006729 0.150000
endloop
endfacet
facet normal -0.000002 0.000000 1.000000
outer loop
vertex 0.004409 0.006862 0.150000
vertex 0.003565 0.007066 0.150000
vertex 0.003432 0.007068 0.150000
endloop
endfacet
facet normal 0.000019 0.000000 1.000000
outer loop
vertex 0.007049 0.001618 0.150000
vertex 0.005461 0.006537 0.150000
vertex 0.004409 0.006862 0.150000
endloop
endfacet
facet normal 0.000026 0.000000 1.000000
outer loop
vertex 0.005094 0.000026 0.150000
vertex 0.006582 0.000954 0.150000
vertex 0.007049 0.001618 0.150000
endloop
endfacet
facet normal -0.000132 0.000000 1.000000
outer loop
vertex 0.004217 0.000050 0.150000
vertex 0.004358 0.000042 0.150000
vertex 0.005094 0.000026 0.150000
endloop
endfacet
facet normal 0.000000 0.000000 1.000000
outer loop
vertex 0.003510 0.000033 0.150000
vertex 0.003768 0.000038 0.150000
vertex 0.004065 0.000049 0.150000
endloop
endfacet
facet normal 0.000000 0.000000 1.000000
outer loop
vertex 0.004217 0.000050 0.150000
vertex 0.005094 0.000026 0.150000
vertex 0.007049 0.001618 0.150000
endloop
endfacet
facet normal -0.000238 0.000000 1.000000
outer loop
vertex 0.003392 0.000033 0.150000
vertex 0.003510 0.000033 0.150000
vertex 0.004065 0.000049 0.150000
endloop
endfacet
facet normal 0.000123 0.000000 1.000000
outer loop
vertex 0.004065 0.000049 0.150000
vertex 0.004217 0.000050 0.150000
vertex 0.007049 0.001618 0.150000
endloop
endfacet
facet normal -0.000032 0.000000 1.000000
outer loop
vertex 0.007049 0.001618 0.150000
vertex 0.004409 0.006862 0.150000
vertex 0.003432 0.007068 0.150000
endloop
endfacet
facet normal 0.000000 0.000000 1.000000
outer loop
vertex 0.003432 0.007068 0.150000
vertex 0.002267 0.006729 0.150000
vertex 0.002186 0.006627 0.150000
endloop
endfacet
facet normal 0.003286 0.000000 0.999995
outer loop
vertex 0.002079 0.006502 0.150000
vertex 0.001809 0.006191 0.150000
vertex 0.001655 0.006010 0.150000
endloop
endfacet
facet normal 0.000033 0.000000 1.000000
outer loop
vertex 0.003432 0.007068 0.150000
vertex 0.002186 0.006627 0.150000
vertex 0.002079 0.006502 0.150000
endloop
endfacet
facet normal 0.000005 0.000000 1.000000
outer loop
vertex 0.004065 0.000049 0.150000
vertex 0.007049 0.001618 0.150000
vertex 0.003432 0.007068 0.150000
endloop
endfacet
facet normal 0.000000 0.000000 1.000000
outer loop
vertex 0.003278 0.000035 0.150000
vertex 0.003392 0.000033 0.150000
vertex 0.004065 0.000049 0.150000
endloop
endfacet
facet normal 0.000461 0.000000 1.000000
outer loop
vertex 0.003057 0.000046 0.150000
vertex 0.003166 0.000039 0.150000
vertex 0.003278 0.000035 0.150000
endloop
endfacet
facet normal 0.000000 0.000000 1.000000
outer loop
vertex 0.002835 0.000065 0.150000
vertex 0.002947 0.000054 0.150000
vertex 0.003057 0.000046 0.150000
endloop
endfacet
facet normal 0.000000 0.000000 1.000000
outer loop
vertex 0.002598 0.000095 0.150000
vertex 0.002719 0.000079 0.150000
vertex 0.002835 0.000065 0.150000
endloop
endfacet
facet normal 0.000231 0.000000 1.000000
outer loop
vertex 0.002060 0.000200 0.150000
vertex 0.002340 0.000138 0.150000
vertex 0.002598 0.000095 0.150000
endloop
endfacet
facet normal -0.001202 0.000000 0.999999
outer loop
vertex 0.001755 0.000286 0.150000
vertex 0.001911 0.000240 0.150000
vertex 0.002060 0.000200 0.150000
endloop
endfacet
facet normal -0.001926 0.000000 0.999998
outer loop
vertex 0.001424 0.000403 0.150000
vertex 0.001593 0.000340 0.150000
vertex 0.001755 0.000286 0.150000
endloop
endfacet
facet normal 0.000000 0.000000 1.000000
outer loop
vertex 0.000489 0.000849 0.150000
vertex 0.001064 0.000554 0.150000
vertex 0.001424 0.000403 0.150000
endloop
endfacet
facet normal 0.000000 0.000000 1.000000
outer loop
vertex 0.000242 0.001040 0.150000
vertex 0.000348 0.000946 0.150000
vertex 0.000489 0.000849 0.150000
endloop
endfacet
facet normal 0.000000 0.000000 1.000000
outer loop
vertex 0.000117 0.001242 0.150000
vertex 0.000167 0.001137 0.150000
vertex 0.000242 0.001040 0.150000
endloop
endfacet
facet normal 0.000000 0.000000 1.000000
outer loop
vertex 0.000070 0.001490 0.150000
vertex 0.000086 0.001358 0.150000
vertex 0.000117 0.001242 0.150000
endloop
endfacet
facet normal 0.002335 0.000000 0.999997
outer loop
vertex 0.000055 0.002029 0.150000
vertex 0.000063 0.001643 0.150000
vertex 0.000070 0.001490 0.150000
endloop
endfacet
facet normal 0.000000 0.000000 1.000000
outer loop
vertex 0.000003 0.003065 0.150000
vertex 0.000002 0.002829 0.150000
vertex 0.000044 0.002271 0.150000
endloop
endfacet
facet normal 0.000000 0.000000 1.000000
outer loop
vertex 0.000055 0.002029 0.150000
vertex 0.000070 0.001490 0.150000
vertex 0.000117 0.001242 0.150000
endloop
endfacet
facet normal 0.000000 0.000000 1.000000
outer loop
vertex 0.000023 0.003265 0.150000
vertex 0.000003 0.003065 0.150000
vertex 0.000044 0.002271 0.150000
endloop
endfacet
facet normal -0.002357 0.000000 0.999997
outer loop
vertex 0.000044 0.002271 0.150000
vertex 0.000055 0.002029 0.150000
vertex 0.000117 0.001242 0.150000
endloop
endfacet
facet normal 0.000000 0.000000 1.000000
outer loop
vertex 0.000117 0.001242 0.150000
vertex 0.000242 0.001040 0.150000
vertex 0.000489 0.000849 0.150000
endloop
endfacet
facet normal 0.000277 0.000000 1.000000
outer loop
vertex 0.000489 0.000849 0.150000
vertex 0.001424 0.000403 0.150000
vertex 0.001755 0.000286 0.150000
endloop
endfacet
facet normal -0.000251 0.000000 1.000000
outer loop
vertex 0.001755 0.000286 0.150000
vertex 0.002060 0.000200 0.150000
vertex 0.002598 0.000095 0.150000
endloop
endfacet
facet normal 0.000000 0.000000 1.000000
outer loop
vertex 0.002598 0.000095 0.150000
vertex 0.002835 0.000065 0.150000
vertex 0.003057 0.000046 0.150000
endloop
endfacet
facet normal 0.000000 0.000000 1.000000
outer loop
vertex 0.003057 0.000046 0.150000
vertex 0.003278 0.000035 0.150000
vertex 0.004065 0.000049 0.150000
endloop
endfacet
facet normal -0.000009 0.000000 1.000000
outer loop
vertex 0.004065 0.000049 0.150000
vertex 0.003432 0.007068 0.150000
vertex 0.002079 0.006502 0.150000
endloop
endfacet
facet normal -0.000899 0.000000 1.000000
outer loop
vertex 0.002079 0.006502 0.150000
vertex 0.001655 0.006010 0.150000
vertex 0.001494 0.005815 0.150000
endloop
endfacet
facet normal 0.003258 0.000000 0.999995
outer loop
vertex 0.001494 0.005815 0.150000
vertex 0.001332 0.005607 0.150000
vertex 0.001174 0.005390 0.150000
endloop
endfacet
facet normal 0.000000 0.000000 1.000000
outer loop
vertex 0.001174 0.005390 0.150000
vertex 0.001023 0.005165 0.150000
vertex 0.000884 0.004935 0.150000
endloop
endfacet
facet normal -0.000588 0.000000 1.000000
outer loop
vertex 0.001174 0.005390 0.150000
vertex 0.000884 0.004935 0.150000
vertex 0.000653 0.004485 0.150000
endloop
endfacet
facet normal 0.000000 0.000000 1.000000
outer loop
vertex 0.002079 0.006502 0.150000
vertex 0.001494 0.005815 0.150000
vertex 0.001174 0.005390 0.150000
endloop
endfacet
facet normal 0.000000 0.000000 1.000000
outer loop
vertex 0.003057 0.000046 0.150000
vertex 0.004065 0.000049 0.150000
vertex 0.002079 0.006502 0.150000
endloop
endfacet
facet normal 0.000000 0.000000 1.000000
outer loop
vertex 0.001755 0.000286 0.150000
vertex 0.002598 0.000095 0.150000
vertex 0.003057 0.000046 0.150000
endloop
endfacet
facet normal 0.000000 0.000000 1.000000
outer loop
vertex 0.000117 0.001242 0.150000
vertex 0.000489 0.000849 0.150000
vertex 0.001755 0.000286 0.150000
endloop
endfacet
facet normal 0.000000 0.000000 1.000000
outer loop
vertex 0.000023 0.003265 0.150000
vertex 0.000044 0.002271 0.150000
vertex 0.000117 0.001242 0.150000
endloop
endfacet
facet normal 0.000000 0.000000 1.000000
outer loop
vertex 0.000113 0.003589 0.150000
vertex 0.000061 0.003437 0.150000
vertex 0.000023 0.003265 0.150000
endloop
endfacet
facet normal 0.000000 0.000000 1.000000
outer loop
vertex 0.000258 0.003861 0.150000
vertex 0.000180 0.003728 0.150000
vertex 0.000113 0.003589 0.150000
endloop
endfacet
facet normal 0.000000 0.000000 1.000000
outer loop
vertex 0.000442 0.004140 0.150000
vertex 0.000346 0.003996 0.150000
vertex 0.000258 0.003861 0.150000
endloop
endfacet
facet normal 0.000000 0.000000 1.000000
outer loop
vertex 0.000442 0.004140 0.150000
vertex 0.000258 0.003861 0.150000
vertex 0.000113 0.003589 0.150000
endloop
endfacet
facet normal 0.000274 0.000000 1.000000
outer loop
vertex 0.000113 0.003589 0.150000
vertex 0.000023 0.003265 0.150000
vertex 0.000117 0.001242 0.150000
endloop
endfacet
facet normal 0.000009 0.000000 1.000000
outer loop
vertex 0.000117 0.001242 0.150000
vertex 0.001755 0.000286 0.150000
vertex 0.003057 0.000046 0.150000
endloop
endfacet
facet normal 0.000004 0.000000 1.000000
outer loop
vertex 0.003057 0.000046 0.150000
vertex 0.002079 0.006502 0.150000
vertex 0.001174 0.005390 0.150000
endloop
endfacet
facet normal -0.000006 0.000000 1.000000
outer loop
vertex 0.003057 0.000046 0.150000
vertex 0.001174 0.005390 0.150000
vertex 0.000653 0.004485 0.150000
endloop
endfacet
facet normal 0.000000 0.000000 1.000000
outer loop
vertex 0.000113 0.003589 0.150000
vertex 0.000117 0.001242 0.150000
vertex 0.003057 0.000046 0.150000
endloop
endfacet
facet normal 0.000000 0.000000 1.000000
outer loop
vertex 0.000545 0.004301 0.150000
vertex 0.000442 0.004140 0.150000
vertex 0.000113 0.003589 0.150000
endloop
endfacet
facet normal 0.000028 0.000000 1.000000
outer loop
vertex 0.003057 0.000046 0.150000
vertex 0.000653 0.004485 0.150000
vertex 0.000545 0.004301 0.150000
endloop
endfacet
facet normal -0.000032 0.000000 1.000000
outer loop
vertex 0.000545 0.004301 0.150000
vertex 0.000113 0.003589 0.150000
vertex 0.003057 0.000046 0.150000
endloop
endfacet
facet normal -0.028365 0.999598 0.000000
outer loop
vertex 0.003497 0.007070 0.150000
vertex 0.003497 0.007070 0.000000
vertex 0.003432 0.007068 0.000000
endloop
endfacet
facet normal -0.028366 0.999598 0.000000
outer loop
vertex 0.003497 0.007070 0.150000
vertex 0.003432 0.007068 0.000000
vertex 0.003432 0.007068 0.150000
endloop
endfacet
facet normal 0.708130 0.706082 0.000000
outer loop
vertex 0.006579 0.005869 0.150000
vertex 0.006579 0.005869 0.000000
vertex 0.006424 0.006024 0.000000
endloop
endfacet
facet normal 0.708131 0.706080 0.000000
outer loop
vertex 0.006579 0.005869 0.150000
vertex 0.006424 0.006024 0.000000
vertex 0.006424 0.006024 0.150000
endloop
endfacet
facet normal 0.528910 0.848678 0.000000
outer loop
vertex 0.006336 0.006094 0.150000
vertex 0.006336 0.006094 0.000000
vertex 0.006128 0.006224 0.000000
endloop
endfacet
facet normal 0.528912 0.848677 0.000000
outer loop
vertex 0.006336 0.006094 0.150000
vertex 0.006128 0.006224 0.000000
vertex 0.006128 0.006224 0.150000
endloop
endfacet
facet normal 0.885975 0.463733 0.000000
outer loop
vertex 0.007092 0.005108 0.000000
vertex 0.007092 0.005108 0.150000
vertex 0.007211 0.004882 0.150000
endloop
endfacet
facet normal 0.885972 0.463738 0.000000
outer loop
vertex 0.007092 0.005108 0.000000
vertex 0.007211 0.004882 0.150000
vertex 0.007211 0.004882 0.000000
endloop
endfacet
facet normal -0.828425 0.560100 0.000000
outer loop
vertex 0.002319 0.006805 0.150000
vertex 0.002319 0.006805 0.000000
vertex 0.002267 0.006729 0.000000
endloop
endfacet
facet normal -0.828425 0.560100 0.000000
outer loop
vertex 0.002319 0.006805 0.150000
vertex 0.002267 0.006729 0.000000
vertex 0.002267 0.006729 0.150000
endloop
endfacet
facet normal 0.843380 -0.537317 0.000000
outer loop
vertex 0.006835 0.001226 0.150000
vertex 0.006835 0.001226 0.000000
vertex 0.006909 0.001343 0.000000
endloop
endfacet
facet normal 0.843380 -0.537317 0.000000
outer loop
vertex 0.006835 0.001226 0.150000
vertex 0.006909 0.001343 0.000000
vertex 0.006909 0.001343 0.150000
endloop
endfacet
facet normal -0.036205 -0.999344 0.000000
outer loop
vertex 0.003166 0.000039 0.000000
vertex 0.003278 0.000035 0.000000
vertex 0.003278 0.000035 0.150000
endloop
endfacet
facet normal -0.036205 -0.999344 0.000000
outer loop
vertex 0.003166 0.000039 0.000000
vertex 0.003278 0.000035 0.150000
vertex 0.003166 0.000039 0.150000
endloop
endfacet
facet normal -0.056372 -0.998410 0.000000
outer loop
vertex 0.003057 0.000046 0.000000
vertex 0.003166 0.000039 0.000000
vertex 0.003166 0.000039 0.150000
endloop
endfacet
facet normal -0.056372 -0.998410 0.000000
outer loop
vertex 0.003057 0.000046 0.000000
vertex 0.003166 0.000039 0.150000
vertex 0.003057 0.000046 0.150000
endloop
endfacet
facet normal -0.077111 -0.997022 0.000000
outer loop
vertex 0.002947 0.000054 0.000000
vertex 0.003057 0.000046 0.000000
vertex 0.003057 0.000046 0.150000
endloop
endfacet
facet normal -0.077111 -0.997022 0.000000
outer loop
vertex 0.002947 0.000054 0.000000
vertex 0.003057 0.000046 0.150000
vertex 0.002947 0.000054 0.150000
endloop
endfacet
facet normal -0.097474 -0.995238 0.000000
outer loop
vertex 0.002835 0.000065 0.000000
vertex 0.002947 0.000054 0.000000
vertex 0.002947 0.000054 0.150000
endloop
endfacet
facet normal -0.097474 -0.995238 0.000000
outer loop
vertex 0.002835 0.000065 0.000000
vertex 0.002947 0.000054 0.150000
vertex 0.002835 0.000065 0.150000
endloop
endfacet
facet normal -0.133794 -0.991009 0.000000
outer loop
vertex 0.002598 0.000095 0.150000
vertex 0.002598 0.000095 0.000000
vertex 0.002719 0.000079 0.000000
endloop
endfacet
facet normal -0.116592 -0.993180 0.000000
outer loop
vertex 0.002719 0.000079 0.000000
vertex 0.002835 0.000065 0.000000
vertex 0.002835 0.000065 0.150000
endloop
endfacet
facet normal -0.133794 -0.991009 0.000000
outer loop
vertex 0.002719 0.000079 0.150000
vertex 0.002598 0.000095 0.150000
vertex 0.002719 0.000079 0.000000
endloop
endfacet
facet normal -0.116592 -0.993180 0.000000
outer loop
vertex 0.002835 0.000065 0.150000
vertex 0.002719 0.000079 0.150000
vertex 0.002719 0.000079 0.000000
endloop
endfacet
facet normal -0.457141 -0.889394 0.000000
outer loop
vertex 0.000489 0.000849 0.000000
vertex 0.001064 0.000554 0.000000
vertex 0.001064 0.000554 0.150000
endloop
endfacet
facet normal -0.457141 -0.889394 0.000000
outer loop
vertex 0.000489 0.000849 0.000000
vertex 0.001064 0.000554 0.150000
vertex 0.000489 0.000849 0.150000
endloop
endfacet
facet normal 0.000000 0.000000 -1.000000
outer loop
vertex 0.000044 0.002271 0.000000
vertex 0.000055 0.002029 0.000000
vertex 0.000063 0.001643 0.000000
endloop
endfacet
facet normal -0.992597 -0.121456 0.000000
outer loop
vertex 0.000070 0.001490 0.000000
vertex 0.000086 0.001358 0.000000
vertex 0.000086 0.001358 0.150000
endloop
endfacet
facet normal 0.000000 0.000000 -1.000000
outer loop
vertex 0.000002 0.002829 0.000000
vertex 0.000044 0.002271 0.000000
vertex 0.000063 0.001643 0.000000
endloop
endfacet
facet normal -0.998962 -0.045546 0.000068
outer loop
vertex 0.000063 0.001643 0.000000
vertex 0.000070 0.001490 0.000000
vertex 0.000086 0.001358 0.150000
endloop
endfacet
facet normal -0.992597 -0.121456 -0.000078
outer loop
vertex 0.000063 0.001643 0.000000
vertex 0.000086 0.001358 0.150000
vertex 0.000070 0.001490 0.150000
endloop
endfacet
facet normal -0.999987 0.005073 0.000000
outer loop
vertex 0.000003 0.003065 0.150000
vertex 0.000003 0.003065 0.000000
vertex 0.000002 0.002829 0.000000
endloop
endfacet
facet normal -0.998689 -0.051194 -0.000006
outer loop
vertex 0.000002 0.002829 0.000000
vertex 0.000063 0.001643 0.000000
vertex 0.000070 0.001490 0.150000
endloop
endfacet
facet normal -0.998962 -0.045546 0.000045
outer loop
vertex 0.000002 0.002829 0.000000
vertex 0.000070 0.001490 0.150000
vertex 0.000063 0.001643 0.150000
endloop
endfacet
facet normal -0.999987 0.005073 0.000000
outer loop
vertex 0.000002 0.002829 0.150000
vertex 0.000003 0.003065 0.150000
vertex 0.000002 0.002829 0.000000
endloop
endfacet
facet normal -0.997127 -0.075747 0.000000
outer loop
vertex 0.000044 0.002271 0.150000
vertex 0.000002 0.002829 0.150000
vertex 0.000002 0.002829 0.000000
endloop
endfacet
facet normal -0.999816 -0.019196 0.000254
outer loop
vertex 0.000002 0.002829 0.000000
vertex 0.000063 0.001643 0.150000
vertex 0.000055 0.002029 0.150000
endloop
endfacet
facet normal -0.998972 -0.045321 0.000114
outer loop
vertex 0.000055 0.002029 0.150000
vertex 0.000044 0.002271 0.150000
vertex 0.000002 0.002829 0.000000
endloop
endfacet
facet normal -0.966823 -0.255449 0.000000
outer loop
vertex 0.000086 0.001358 0.150000
vertex 0.000086 0.001358 0.000000
vertex 0.000117 0.001242 0.000000
endloop
endfacet
facet normal -0.966823 -0.255449 0.000000
outer loop
vertex 0.000086 0.001358 0.150000
vertex 0.000117 0.001242 0.000000
vertex 0.000117 0.001242 0.150000
endloop
endfacet
facet normal 0.313704 0.949521 0.000000
outer loop
vertex 0.005027 0.006701 0.150000
vertex 0.005147 0.006661 0.150000
vertex 0.005147 0.006661 0.000000
endloop
endfacet
facet normal 0.313706 0.949520 0.000000
outer loop
vertex 0.005027 0.006701 0.150000
vertex 0.005147 0.006661 0.000000
vertex 0.005027 0.006701 0.000000
endloop
endfacet
facet normal 0.285667 0.958329 0.000000
outer loop
vertex 0.004894 0.006741 0.150000
vertex 0.005027 0.006701 0.150000
vertex 0.005027 0.006701 0.000000
endloop
endfacet
facet normal 0.285666 0.958329 0.000000
outer loop
vertex 0.004894 0.006741 0.150000
vertex 0.005027 0.006701 0.000000
vertex 0.004894 0.006741 0.000000
endloop
endfacet
facet normal 0.259922 0.965630 0.000000
outer loop
vertex 0.004745 0.006781 0.150000
vertex 0.004894 0.006741 0.150000
vertex 0.004894 0.006741 0.000000
endloop
endfacet
facet normal 0.000000 0.000000 -1.000000
outer loop
vertex 0.004745 0.006781 0.000000
vertex 0.004409 0.006862 0.000000
vertex 0.003802 0.007021 0.000000
endloop
endfacet
facet normal 0.259923 0.965629 0.000000
outer loop
vertex 0.004745 0.006781 0.150000
vertex 0.004894 0.006741 0.000000
vertex 0.004745 0.006781 0.000000
endloop
endfacet
facet normal 0.235435 0.971890 0.000000
outer loop
vertex 0.004409 0.006862 0.150000
vertex 0.004745 0.006781 0.150000
vertex 0.004745 0.006781 0.000000
endloop
endfacet
facet normal 0.226246 0.974070 0.000000
outer loop
vertex 0.003802 0.007021 0.000000
vertex 0.003716 0.007041 0.000000
vertex 0.003716 0.007041 0.150000
endloop
endfacet
facet normal 0.246486 0.969146 0.000026
outer loop
vertex 0.004409 0.006862 0.150000
vertex 0.004745 0.006781 0.000000
vertex 0.003802 0.007021 0.000000
endloop
endfacet
facet normal 0.226248 0.974070 0.000000
outer loop
vertex 0.003802 0.007021 0.000000
vertex 0.003716 0.007041 0.150000
vertex 0.003802 0.007021 0.150000
endloop
endfacet
facet normal 0.252557 0.967582 0.000000
outer loop
vertex 0.003802 0.007021 0.000000
vertex 0.003802 0.007021 0.150000
vertex 0.004409 0.006862 0.150000
endloop
endfacet
facet normal -0.789930 -0.613197 0.000000
outer loop
vertex 0.000167 0.001137 0.150000
vertex 0.000167 0.001137 0.000000
vertex 0.000242 0.001040 0.000000
endloop
endfacet
facet normal -0.789930 -0.613197 0.000000
outer loop
vertex 0.000167 0.001137 0.150000
vertex 0.000242 0.001040 0.000000
vertex 0.000242 0.001040 0.150000
endloop
endfacet
facet normal 0.999012 -0.044444 0.000000
outer loop
vertex 0.007615 0.003238 0.150000
vertex 0.007615 0.003238 0.000000
vertex 0.007619 0.003316 0.000000
endloop
endfacet
facet normal 0.999013 -0.044425 0.000000
outer loop
vertex 0.007615 0.003238 0.150000
vertex 0.007619 0.003316 0.000000
vertex 0.007619 0.003316 0.150000
endloop
endfacet
facet normal 0.281223 -0.959643 0.000000
outer loop
vertex 0.005094 0.000026 0.150000
vertex 0.005094 0.000026 0.000000
vertex 0.005224 0.000064 0.000000
endloop
endfacet
facet normal 0.281223 -0.959643 0.000000
outer loop
vertex 0.005094 0.000026 0.150000
vertex 0.005224 0.000064 0.000000
vertex 0.005224 0.000064 0.150000
endloop
endfacet
facet normal 0.000000 0.000000 1.000000
outer loop
vertex 0.007523 0.002891 0.000000
vertex 0.007588 0.003103 0.000000
vertex 0.007605 0.003168 0.000000
endloop
endfacet
facet normal 0.970511 -0.241058 0.000000
outer loop
vertex 0.007605 0.003168 0.000000
vertex 0.007605 0.003168 0.150000
vertex 0.007588 0.003103 0.150000
endloop
endfacet
facet normal 0.955506 -0.294971 -0.000025
outer loop
vertex 0.007605 0.003168 0.000000
vertex 0.007588 0.003103 0.150000
vertex 0.007523 0.002891 0.150000
endloop
endfacet
facet normal 0.000000 0.000000 1.000000
outer loop
vertex 0.007383 0.002300 0.000000
vertex 0.007439 0.002481 0.000000
vertex 0.007523 0.002891 0.000000
endloop
endfacet
facet normal 0.959253 -0.282547 0.000000
outer loop
vertex 0.007523 0.002891 0.000000
vertex 0.007605 0.003168 0.000000
vertex 0.007523 0.002891 0.150000
endloop
endfacet
facet normal 0.954612 -0.297851 0.000000
outer loop
vertex 0.007439 0.002481 0.150000
vertex 0.007383 0.002300 0.150000
vertex 0.007383 0.002300 0.000000
endloop
endfacet
facet normal 0.979915 -0.199417 0.000000
outer loop
vertex 0.007523 0.002891 0.000000
vertex 0.007523 0.002891 0.150000
vertex 0.007439 0.002481 0.150000
endloop
endfacet
facet normal 0.973115 -0.230319 -0.000088
outer loop
vertex 0.007523 0.002891 0.000000
vertex 0.007439 0.002481 0.150000
vertex 0.007383 0.002300 0.000000
endloop
endfacet
facet normal -0.977287 0.211920 0.000000
outer loop
vertex 0.000061 0.003437 0.150000
vertex 0.000061 0.003437 0.000000
vertex 0.000023 0.003265 0.000000
endloop
endfacet
facet normal -0.977287 0.211920 0.000000
outer loop
vertex 0.000061 0.003437 0.150000
vertex 0.000023 0.003265 0.000000
vertex 0.000023 0.003265 0.150000
endloop
endfacet
facet normal 0.000000 0.000000 -1.000000
outer loop
vertex 0.004217 0.000050 0.000000
vertex 0.004358 0.000042 0.000000
vertex 0.004733 0.000005 0.000000
endloop
endfacet
facet normal -0.038146 -0.999272 0.000000
outer loop
vertex 0.004733 0.000005 0.000000
vertex 0.004851 0.000000 0.000000
vertex 0.004851 0.000000 0.150000
endloop
endfacet
facet normal -0.038146 -0.999272 0.000000
outer loop
vertex 0.004733 0.000005 0.000000
vertex 0.004851 0.000000 0.150000
vertex 0.004733 0.000005 0.150000
endloop
endfacet
facet normal -0.087514 -0.996163 0.000000
outer loop
vertex 0.004217 0.000050 0.150000
vertex 0.004217 0.000050 0.000000
vertex 0.004733 0.000005 0.000000
endloop
endfacet
facet normal -0.099585 -0.995029 0.000000
outer loop
vertex 0.004733 0.000005 0.000000
vertex 0.004733 0.000005 0.150000
vertex 0.004358 0.000042 0.150000
endloop
endfacet
facet normal -0.055147 -0.998478 0.000112
outer loop
vertex 0.004733 0.000005 0.000000
vertex 0.004358 0.000042 0.150000
vertex 0.004217 0.000050 0.150000
endloop
endfacet
facet normal 0.840884 0.541215 0.000000
outer loop
vertex 0.007092 0.005108 0.000000
vertex 0.006719 0.005689 0.000000
vertex 0.006719 0.005689 0.150000
endloop
endfacet
facet normal 0.840884 0.541215 0.000000
outer loop
vertex 0.007092 0.005108 0.000000
vertex 0.006719 0.005689 0.150000
vertex 0.007092 0.005108 0.150000
endloop
endfacet
facet normal 0.048889 -0.998804 0.000000
outer loop
vertex 0.004851 0.000000 0.150000
vertex 0.004851 0.000000 0.000000
vertex 0.004971 0.000006 0.000000
endloop
endfacet
facet normal 0.048889 -0.998804 0.000000
outer loop
vertex 0.004851 0.000000 0.150000
vertex 0.004971 0.000006 0.000000
vertex 0.004971 0.000006 0.150000
endloop
endfacet
facet normal 0.164215 0.986425 0.000000
outer loop
vertex 0.003716 0.007041 0.150000
vertex 0.003716 0.007041 0.000000
vertex 0.003565 0.007066 0.000000
endloop
endfacet
facet normal 0.164215 0.986425 0.000000
outer loop
vertex 0.003716 0.007041 0.150000
vertex 0.003565 0.007066 0.000000
vertex 0.003565 0.007066 0.150000
endloop
endfacet
facet normal -0.236237 0.971695 0.000000
outer loop
vertex 0.003367 0.007060 0.000000
vertex 0.002319 0.006805 0.000000
vertex 0.002319 0.006805 0.150000
endloop
endfacet
facet normal -0.236237 0.971695 0.000000
outer loop
vertex 0.003367 0.007060 0.000000
vertex 0.002319 0.006805 0.150000
vertex 0.003367 0.007060 0.150000
endloop
endfacet
facet normal 0.342596 0.939483 0.000000
outer loop
vertex 0.005258 0.006621 0.000000
vertex 0.005147 0.006661 0.000000
vertex 0.005147 0.006661 0.150000
endloop
endfacet
facet normal 0.342596 0.939483 0.000000
outer loop
vertex 0.005258 0.006621 0.000000
vertex 0.005147 0.006661 0.150000
vertex 0.005258 0.006621 0.150000
endloop
endfacet
facet normal 0.370252 0.928932 0.000000
outer loop
vertex 0.005362 0.006580 0.000000
vertex 0.005258 0.006621 0.000000
vertex 0.005258 0.006621 0.150000
endloop
endfacet
facet normal 0.370254 0.928931 0.000000
outer loop
vertex 0.005362 0.006580 0.000000
vertex 0.005258 0.006621 0.150000
vertex 0.005362 0.006580 0.150000
endloop
endfacet
facet normal 0.394296 0.918983 0.000000
outer loop
vertex 0.005461 0.006537 0.000000
vertex 0.005362 0.006580 0.000000
vertex 0.005362 0.006580 0.150000
endloop
endfacet
facet normal 0.394294 0.918984 0.000000
outer loop
vertex 0.005461 0.006537 0.000000
vertex 0.005362 0.006580 0.150000
vertex 0.005461 0.006537 0.150000
endloop
endfacet
facet normal 0.412625 0.910901 0.000000
outer loop
vertex 0.005560 0.006492 0.000000
vertex 0.005461 0.006537 0.000000
vertex 0.005461 0.006537 0.150000
endloop
endfacet
facet normal 0.412623 0.910902 0.000000
outer loop
vertex 0.005560 0.006492 0.000000
vertex 0.005461 0.006537 0.150000
vertex 0.005560 0.006492 0.150000
endloop
endfacet
facet normal 0.000000 0.000000 -1.000000
outer loop
vertex 0.006005 0.006284 0.000000
vertex 0.005881 0.006341 0.000000
vertex 0.005661 0.006445 0.000000
endloop
endfacet
facet normal 0.423925 0.905697 0.000000
outer loop
vertex 0.005661 0.006445 0.000000
vertex 0.005560 0.006492 0.000000
vertex 0.005560 0.006492 0.150000
endloop
endfacet
facet normal 0.423925 0.905697 0.000000
outer loop
vertex 0.005661 0.006445 0.000000
vertex 0.005560 0.006492 0.150000
vertex 0.005661 0.006445 0.150000
endloop
endfacet
facet normal 0.439805 0.898093 0.000000
outer loop
vertex 0.006128 0.006224 0.150000
vertex 0.006128 0.006224 0.000000
vertex 0.006005 0.006284 0.000000
endloop
endfacet
facet normal 0.423552 0.905872 0.000000
outer loop
vertex 0.006005 0.006284 0.000000
vertex 0.005661 0.006445 0.000000
vertex 0.005661 0.006445 0.150000
endloop
endfacet
facet normal 0.426715 0.904386 0.000009
outer loop
vertex 0.006005 0.006284 0.000000
vertex 0.005661 0.006445 0.150000
vertex 0.005881 0.006341 0.150000
endloop
endfacet
facet normal 0.439807 0.898092 0.000000
outer loop
vertex 0.006005 0.006284 0.150000
vertex 0.006128 0.006224 0.150000
vertex 0.006005 0.006284 0.000000
endloop
endfacet
facet normal 0.417934 0.908477 0.000000
outer loop
vertex 0.005881 0.006341 0.150000
vertex 0.006005 0.006284 0.150000
vertex 0.006005 0.006284 0.000000
endloop
endfacet
facet normal 0.937719 0.347396 0.000000
outer loop
vertex 0.007326 0.004572 0.000000
vertex 0.007211 0.004882 0.000000
vertex 0.007211 0.004882 0.150000
endloop
endfacet
facet normal 0.937719 0.347396 0.000000
outer loop
vertex 0.007326 0.004572 0.000000
vertex 0.007211 0.004882 0.150000
vertex 0.007326 0.004572 0.150000
endloop
endfacet
facet normal 0.000000 0.000000 -1.000000
outer loop
vertex 0.003497 0.007070 0.000000
vertex 0.003565 0.007066 0.000000
vertex 0.003716 0.007041 0.000000
endloop
endfacet
facet normal 0.000000 0.000000 -1.000000
outer loop
vertex 0.003716 0.007041 0.000000
vertex 0.003802 0.007021 0.000000
vertex 0.004409 0.006862 0.000000
endloop
endfacet
facet normal 0.000000 0.000000 -1.000000
outer loop
vertex 0.004409 0.006862 0.000000
vertex 0.004745 0.006781 0.000000
vertex 0.004894 0.006741 0.000000
endloop
endfacet
facet normal 0.000000 0.000000 -1.000000
outer loop
vertex 0.004894 0.006741 0.000000
vertex 0.005027 0.006701 0.000000
vertex 0.005147 0.006661 0.000000
endloop
endfacet
facet normal 0.000000 0.000000 -1.000000
outer loop
vertex 0.005147 0.006661 0.000000
vertex 0.005258 0.006621 0.000000
vertex 0.005362 0.006580 0.000000
endloop
endfacet
facet normal 0.000000 0.000000 -1.000000
outer loop
vertex 0.005362 0.006580 0.000000
vertex 0.005461 0.006537 0.000000
vertex 0.005560 0.006492 0.000000
endloop
endfacet
facet normal 0.000000 0.000000 -1.000000
outer loop
vertex 0.005560 0.006492 0.000000
vertex 0.005661 0.006445 0.000000
vertex 0.005881 0.006341 0.000000
endloop
endfacet
facet normal 0.000000 0.000000 -1.000000
outer loop
vertex 0.005881 0.006341 0.000000
vertex 0.006005 0.006284 0.000000
vertex 0.006128 0.006224 0.000000
endloop
endfacet
facet normal 0.000000 0.000000 -1.000000
outer loop
vertex 0.006128 0.006224 0.000000
vertex 0.006336 0.006094 0.000000
vertex 0.006424 0.006024 0.000000
endloop
endfacet
facet normal 0.000000 0.000000 -1.000000
outer loop
vertex 0.006424 0.006024 0.000000
vertex 0.006579 0.005869 0.000000
vertex 0.006719 0.005689 0.000000
endloop
endfacet
facet normal 0.000000 0.000000 -1.000000
outer loop
vertex 0.006719 0.005689 0.000000
vertex 0.007092 0.005108 0.000000
vertex 0.007211 0.004882 0.000000
endloop
endfacet
facet normal 0.000000 0.000000 -1.000000
outer loop
vertex 0.007211 0.004882 0.000000
vertex 0.007326 0.004572 0.000000
vertex 0.007598 0.003514 0.000000
endloop
endfacet
facet normal 0.000000 0.000000 -1.000000
outer loop
vertex 0.007598 0.003514 0.000000
vertex 0.007619 0.003316 0.000000
vertex 0.007615 0.003238 0.000000
endloop
endfacet
facet normal 0.000000 0.000000 -1.000000
outer loop
vertex 0.007615 0.003238 0.000000
vertex 0.007605 0.003168 0.000000
vertex 0.007588 0.003103 0.000000
endloop
endfacet
facet normal 0.000000 0.000000 -1.000000
outer loop
vertex 0.007523 0.002891 0.000000
vertex 0.007439 0.002481 0.000000
vertex 0.007383 0.002300 0.000000
endloop
endfacet
facet normal 0.000000 0.000000 -1.000000
outer loop
vertex 0.007615 0.003238 0.000000
vertex 0.007588 0.003103 0.000000
vertex 0.007523 0.002891 0.000000
endloop
endfacet
facet normal 0.000000 0.000000 -1.000000
outer loop
vertex 0.007211 0.004882 0.000000
vertex 0.007598 0.003514 0.000000
vertex 0.007615 0.003238 0.000000
endloop
endfacet
facet normal 0.000000 0.000000 -1.000000
outer loop
vertex 0.006424 0.006024 0.000000
vertex 0.006719 0.005689 0.000000
vertex 0.007211 0.004882 0.000000
endloop
endfacet
facet normal 0.000000 0.000000 -1.000000
outer loop
vertex 0.005881 0.006341 0.000000
vertex 0.006128 0.006224 0.000000
vertex 0.006424 0.006024 0.000000
endloop
endfacet
facet normal 0.000000 0.000000 -1.000000
outer loop
vertex 0.005362 0.006580 0.000000
vertex 0.005560 0.006492 0.000000
vertex 0.005881 0.006341 0.000000
endloop
endfacet
facet normal 0.000000 0.000000 -1.000000
outer loop
vertex 0.004894 0.006741 0.000000
vertex 0.005147 0.006661 0.000000
vertex 0.005362 0.006580 0.000000
endloop
endfacet
facet normal 0.000000 0.000000 -1.000000
outer loop
vertex 0.003497 0.007070 0.000000
vertex 0.003716 0.007041 0.000000
vertex 0.004409 0.006862 0.000000
endloop
endfacet
facet normal 0.000000 0.000000 -1.000000
outer loop
vertex 0.004409 0.006862 0.000000
vertex 0.004894 0.006741 0.000000
vertex 0.005362 0.006580 0.000000
endloop
endfacet
facet normal 0.000000 0.000000 -1.000000
outer loop
vertex 0.005362 0.006580 0.000000
vertex 0.005881 0.006341 0.000000
vertex 0.006424 0.006024 0.000000
endloop
endfacet
facet normal 0.000000 0.000000 -1.000000
outer loop
vertex 0.006424 0.006024 0.000000
vertex 0.007211 0.004882 0.000000
vertex 0.007615 0.003238 0.000000
endloop
endfacet
facet normal 0.000000 0.000000 -1.000000
outer loop
vertex 0.007523 0.002891 0.000000
vertex 0.007383 0.002300 0.000000
vertex 0.007349 0.002215 0.000000
endloop
endfacet
facet normal 0.000000 0.000000 -1.000000
outer loop
vertex 0.006424 0.006024 0.000000
vertex 0.007615 0.003238 0.000000
vertex 0.007523 0.002891 0.000000
endloop
endfacet
facet normal 0.000000 0.000000 -1.000000
outer loop
vertex 0.004409 0.006862 0.000000
vertex 0.005362 0.006580 0.000000
vertex 0.006424 0.006024 0.000000
endloop
endfacet
facet normal 0.000000 0.000000 -1.000000
outer loop
vertex 0.003432 0.007068 0.000000
vertex 0.003497 0.007070 0.000000
vertex 0.004409 0.006862 0.000000
endloop
endfacet
facet normal 0.000000 0.000000 -1.000000
outer loop
vertex 0.002319 0.006805 0.000000
vertex 0.003367 0.007060 0.000000
vertex 0.003432 0.007068 0.000000
endloop
endfacet
facet normal 0.000000 0.000000 -1.000000
outer loop
vertex 0.002267 0.006729 0.000000
vertex 0.002319 0.006805 0.000000
vertex 0.003432 0.007068 0.000000
endloop
endfacet
facet normal 0.000000 0.000000 -1.000000
outer loop
vertex 0.003432 0.007068 0.000000
vertex 0.004409 0.006862 0.000000
vertex 0.006424 0.006024 0.000000
endloop
endfacet
facet normal 0.000000 0.000000 -1.000000
outer loop
vertex 0.006424 0.006024 0.000000
vertex 0.007523 0.002891 0.000000
vertex 0.007349 0.002215 0.000000
endloop
endfacet
facet normal 0.000000 0.000000 -1.000000
outer loop
vertex 0.007349 0.002215 0.000000
vertex 0.007311 0.002131 0.000000
vertex 0.007268 0.002043 0.000000
endloop
endfacet
facet normal 0.000000 0.000000 -1.000000
outer loop
vertex 0.007049 0.001618 0.000000
vertex 0.006981 0.001479 0.000000
vertex 0.006909 0.001343 0.000000
endloop
endfacet
facet normal 0.000000 0.000000 -1.000000
outer loop
vertex 0.007349 0.002215 0.000000
vertex 0.007268 0.002043 0.000000
vertex 0.007049 0.001618 0.000000
endloop
endfacet
facet normal 0.000000 0.000000 -1.000000
outer loop
vertex 0.003432 0.007068 0.000000
vertex 0.006424 0.006024 0.000000
vertex 0.007349 0.002215 0.000000
endloop
endfacet
facet normal 0.000000 0.000000 -1.000000
outer loop
vertex 0.002186 0.006627 0.000000
vertex 0.002267 0.006729 0.000000
vertex 0.003432 0.007068 0.000000
endloop
endfacet
facet normal 0.000000 0.000000 -1.000000
outer loop
vertex 0.001655 0.006010 0.000000
vertex 0.001809 0.006191 0.000000
vertex 0.002079 0.006502 0.000000
endloop
endfacet
facet normal 0.000000 0.000000 -1.000000
outer loop
vertex 0.002079 0.006502 0.000000
vertex 0.002186 0.006627 0.000000
vertex 0.003432 0.007068 0.000000
endloop
endfacet
facet normal 0.000000 0.000000 -1.000000
outer loop
vertex 0.003432 0.007068 0.000000
vertex 0.007349 0.002215 0.000000
vertex 0.007049 0.001618 0.000000
endloop
endfacet
facet normal 0.000000 0.000000 -1.000000
outer loop
vertex 0.007049 0.001618 0.000000
vertex 0.006909 0.001343 0.000000
vertex 0.006835 0.001226 0.000000
endloop
endfacet
facet normal 0.000000 0.000000 -1.000000
outer loop
vertex 0.006835 0.001226 0.000000
vertex 0.006756 0.001124 0.000000
vertex 0.006582 0.000954 0.000000
endloop
endfacet
facet normal 0.000000 0.000000 -1.000000
outer loop
vertex 0.006582 0.000954 0.000000
vertex 0.005513 0.000209 0.000000
vertex 0.005363 0.000124 0.000000
endloop
endfacet
facet normal 0.000000 0.000000 -1.000000
outer loop
vertex 0.005363 0.000124 0.000000
vertex 0.005224 0.000064 0.000000
vertex 0.005094 0.000026 0.000000
endloop
endfacet
facet normal 0.000000 0.000000 -1.000000
outer loop
vertex 0.005094 0.000026 0.000000
vertex 0.004971 0.000006 0.000000
vertex 0.004851 0.000000 0.000000
endloop
endfacet
facet normal 0.000000 0.000000 -1.000000
outer loop
vertex 0.004851 0.000000 0.000000
vertex 0.004733 0.000005 0.000000
vertex 0.004358 0.000042 0.000000
endloop
endfacet
facet normal 0.000000 0.000000 -1.000000
outer loop
vertex 0.005094 0.000026 0.000000
vertex 0.004851 0.000000 0.000000
vertex 0.004358 0.000042 0.000000
endloop
endfacet
facet normal 0.000000 0.000000 -1.000000
outer loop
vertex 0.006582 0.000954 0.000000
vertex 0.005363 0.000124 0.000000
vertex 0.005094 0.000026 0.000000
endloop
endfacet
facet normal 0.000000 0.000000 -1.000000
outer loop
vertex 0.007049 0.001618 0.000000
vertex 0.006835 0.001226 0.000000
vertex 0.006582 0.000954 0.000000
endloop
endfacet
facet normal 0.000000 0.000000 -1.000000
outer loop
vertex 0.002079 0.006502 0.000000
vertex 0.003432 0.007068 0.000000
vertex 0.007049 0.001618 0.000000
endloop
endfacet
facet normal 0.000000 0.000000 -1.000000
outer loop
vertex 0.001494 0.005815 0.000000
vertex 0.001655 0.006010 0.000000
vertex 0.002079 0.006502 0.000000
endloop
endfacet
facet normal 0.000000 0.000000 -1.000000
outer loop
vertex 0.001174 0.005390 0.000000
vertex 0.001332 0.005607 0.000000
vertex 0.001494 0.005815 0.000000
endloop
endfacet
facet normal 0.000000 0.000000 -1.000000
outer loop
vertex 0.000884 0.004935 0.000000
vertex 0.001023 0.005165 0.000000
vertex 0.001174 0.005390 0.000000
endloop
endfacet
facet normal 0.000000 0.000000 -1.000000
outer loop
vertex 0.000653 0.004485 0.000000
vertex 0.000884 0.004935 0.000000
vertex 0.001174 0.005390 0.000000
endloop
endfacet
facet normal 0.000000 0.000000 -1.000000
outer loop
vertex 0.001174 0.005390 0.000000
vertex 0.001494 0.005815 0.000000
vertex 0.002079 0.006502 0.000000
endloop
endfacet
facet normal 0.000000 0.000000 -1.000000
outer loop
vertex 0.002079 0.006502 0.000000
vertex 0.007049 0.001618 0.000000
vertex 0.006582 0.000954 0.000000
endloop
endfacet
facet normal 0.000000 0.000000 -1.000000
outer loop
vertex 0.006582 0.000954 0.000000
vertex 0.005094 0.000026 0.000000
vertex 0.004358 0.000042 0.000000
endloop
endfacet
facet normal 0.000000 0.000000 -1.000000
outer loop
vertex 0.006582 0.000954 0.000000
vertex 0.004358 0.000042 0.000000
vertex 0.004217 0.000050 0.000000
endloop
endfacet
facet normal 0.000000 0.000000 -1.000000
outer loop
vertex 0.001174 0.005390 0.000000
vertex 0.002079 0.006502 0.000000
vertex 0.006582 0.000954 0.000000
endloop
endfacet
facet normal 0.000000 0.000000 -1.000000
outer loop
vertex 0.000653 0.004485 0.000000
vertex 0.001174 0.005390 0.000000
vertex 0.006582 0.000954 0.000000
endloop
endfacet
facet normal 0.000000 0.000000 -1.000000
outer loop
vertex 0.006582 0.000954 0.000000
vertex 0.004217 0.000050 0.000000
vertex 0.004065 0.000049 0.000000
endloop
endfacet
facet normal 0.000000 0.000000 -1.000000
outer loop
vertex 0.004065 0.000049 0.000000
vertex 0.003768 0.000038 0.000000
vertex 0.003510 0.000033 0.000000
endloop
endfacet
facet normal 0.000000 0.000000 -1.000000
outer loop
vertex 0.003510 0.000033 0.000000
vertex 0.003392 0.000033 0.000000
vertex 0.003278 0.000035 0.000000
endloop
endfacet
facet normal 0.000000 0.000000 -1.000000
outer loop
vertex 0.003278 0.000035 0.000000
vertex 0.003166 0.000039 0.000000
vertex 0.003057 0.000046 0.000000
endloop
endfacet
facet normal 0.000000 0.000000 -1.000000
outer loop
vertex 0.003057 0.000046 0.000000
vertex 0.002947 0.000054 0.000000
vertex 0.002835 0.000065 0.000000
endloop
endfacet
facet normal 0.000000 0.000000 -1.000000
outer loop
vertex 0.002835 0.000065 0.000000
vertex 0.002719 0.000079 0.000000
vertex 0.002598 0.000095 0.000000
endloop
endfacet
facet normal 0.000000 0.000000 -1.000000
outer loop
vertex 0.002598 0.000095 0.000000
vertex 0.002340 0.000138 0.000000
vertex 0.002060 0.000200 0.000000
endloop
endfacet
facet normal 0.000000 0.000000 -1.000000
outer loop
vertex 0.002060 0.000200 0.000000
vertex 0.001911 0.000240 0.000000
vertex 0.001755 0.000286 0.000000
endloop
endfacet
facet normal 0.000000 0.000000 -1.000000
outer loop
vertex 0.001755 0.000286 0.000000
vertex 0.001593 0.000340 0.000000
vertex 0.001424 0.000403 0.000000
endloop
endfacet
facet normal 0.000000 0.000000 -1.000000
outer loop
vertex 0.001424 0.000403 0.000000
vertex 0.001064 0.000554 0.000000
vertex 0.000489 0.000849 0.000000
endloop
endfacet
facet normal 0.000000 0.000000 -1.000000
outer loop
vertex 0.000489 0.000849 0.000000
vertex 0.000348 0.000946 0.000000
vertex 0.000242 0.001040 0.000000
endloop
endfacet
facet normal 0.000000 0.000000 -1.000000
outer loop
vertex 0.000242 0.001040 0.000000
vertex 0.000167 0.001137 0.000000
vertex 0.000117 0.001242 0.000000
endloop
endfacet
facet normal 0.000000 0.000000 -1.000000
outer loop
vertex 0.000117 0.001242 0.000000
vertex 0.000086 0.001358 0.000000
vertex 0.000070 0.001490 0.000000
endloop
endfacet
facet normal 0.000000 0.000000 -1.000000
outer loop
vertex 0.000070 0.001490 0.000000
vertex 0.000063 0.001643 0.000000
vertex 0.000055 0.002029 0.000000
endloop
endfacet
facet normal 0.000000 0.000000 -1.000000
outer loop
vertex 0.000044 0.002271 0.000000
vertex 0.000002 0.002829 0.000000
vertex 0.000003 0.003065 0.000000
endloop
endfacet
facet normal 0.000000 0.000000 -1.000000
outer loop
vertex 0.000117 0.001242 0.000000
vertex 0.000070 0.001490 0.000000
vertex 0.000055 0.002029 0.000000
endloop
endfacet
facet normal 0.000000 0.000000 -1.000000
outer loop
vertex 0.000044 0.002271 0.000000
vertex 0.000003 0.003065 0.000000
vertex 0.000023 0.003265 0.000000
endloop
endfacet
facet normal 0.000000 0.000000 -1.000000
outer loop
vertex 0.000117 0.001242 0.000000
vertex 0.000055 0.002029 0.000000
vertex 0.000044 0.002271 0.000000
endloop
endfacet
facet normal 0.000000 0.000000 -1.000000
outer loop
vertex 0.000489 0.000849 0.000000
vertex 0.000242 0.001040 0.000000
vertex 0.000117 0.001242 0.000000
endloop
endfacet
facet normal 0.000000 0.000000 -1.000000
outer loop
vertex 0.001755 0.000286 0.000000
vertex 0.001424 0.000403 0.000000
vertex 0.000489 0.000849 0.000000
endloop
endfacet
facet normal 0.000000 0.000000 -1.000000
outer loop
vertex 0.002598 0.000095 0.000000
vertex 0.002060 0.000200 0.000000
vertex 0.001755 0.000286 0.000000
endloop
endfacet
facet normal 0.000000 0.000000 -1.000000
outer loop
vertex 0.003057 0.000046 0.000000
vertex 0.002835 0.000065 0.000000
vertex 0.002598 0.000095 0.000000
endloop
endfacet
facet normal 0.000000 0.000000 -1.000000
outer loop
vertex 0.003510 0.000033 0.000000
vertex 0.003278 0.000035 0.000000
vertex 0.003057 0.000046 0.000000
endloop
endfacet
facet normal 0.000000 0.000000 -1.000000
outer loop
vertex 0.006582 0.000954 0.000000
vertex 0.004065 0.000049 0.000000
vertex 0.003510 0.000033 0.000000
endloop
endfacet
facet normal 0.000000 0.000000 -1.000000
outer loop
vertex 0.000545 0.004301 0.000000
vertex 0.000653 0.004485 0.000000
vertex 0.006582 0.000954 0.000000
endloop
endfacet
facet normal 0.000000 0.000000 -1.000000
outer loop
vertex 0.000258 0.003861 0.000000
vertex 0.000346 0.003996 0.000000
vertex 0.000442 0.004140 0.000000
endloop
endfacet
facet normal 0.000000 0.000000 -1.000000
outer loop
vertex 0.000442 0.004140 0.000000
vertex 0.000545 0.004301 0.000000
vertex 0.006582 0.000954 0.000000
endloop
endfacet
facet normal 0.000000 0.000000 -1.000000
outer loop
vertex 0.006582 0.000954 0.000000
vertex 0.003510 0.000033 0.000000
vertex 0.003057 0.000046 0.000000
endloop
endfacet
facet normal 0.000000 0.000000 -1.000000
outer loop
vertex 0.003057 0.000046 0.000000
vertex 0.002598 0.000095 0.000000
vertex 0.001755 0.000286 0.000000
endloop
endfacet
facet normal 0.000000 0.000000 -1.000000
outer loop
vertex 0.001755 0.000286 0.000000
vertex 0.000489 0.000849 0.000000
vertex 0.000117 0.001242 0.000000
endloop
endfacet
facet normal 0.000000 0.000000 -1.000000
outer loop
vertex 0.000117 0.001242 0.000000
vertex 0.000044 0.002271 0.000000
vertex 0.000023 0.003265 0.000000
endloop
endfacet
facet normal 0.000000 0.000000 -1.000000
outer loop
vertex 0.000023 0.003265 0.000000
vertex 0.000061 0.003437 0.000000
vertex 0.000113 0.003589 0.000000
endloop
endfacet
facet normal 0.000000 0.000000 -1.000000
outer loop
vertex 0.000113 0.003589 0.000000
vertex 0.000180 0.003728 0.000000
vertex 0.000258 0.003861 0.000000
endloop
endfacet
facet normal 0.000000 0.000000 -1.000000
outer loop
vertex 0.000258 0.003861 0.000000
vertex 0.000442 0.004140 0.000000
vertex 0.006582 0.000954 0.000000
endloop
endfacet
facet normal 0.000000 0.000000 -1.000000
outer loop
vertex 0.006582 0.000954 0.000000
vertex 0.003057 0.000046 0.000000
vertex 0.001755 0.000286 0.000000
endloop
endfacet
facet normal 0.000000 0.000000 -1.000000
outer loop
vertex 0.001755 0.000286 0.000000
vertex 0.000117 0.001242 0.000000
vertex 0.000023 0.003265 0.000000
endloop
endfacet
facet normal 0.000000 0.000000 -1.000000
outer loop
vertex 0.000023 0.003265 0.000000
vertex 0.000113 0.003589 0.000000
vertex 0.000258 0.003861 0.000000
endloop
endfacet
facet normal 0.000000 0.000000 -1.000000
outer loop
vertex 0.000258 0.003861 0.000000
vertex 0.006582 0.000954 0.000000
vertex 0.001755 0.000286 0.000000
endloop
endfacet
facet normal 0.000000 0.000000 -1.000000
outer loop
vertex 0.001755 0.000286 0.000000
vertex 0.000023 0.003265 0.000000
vertex 0.000258 0.003861 0.000000
endloop
endfacet
facet normal 0.000000 0.000000 1.000000
outer loop
vertex 0.001911 0.000240 0.000000
vertex 0.002060 0.000200 0.000000
vertex 0.002340 0.000138 0.000000
endloop
endfacet
facet normal -0.164560 -0.986367 0.000000
outer loop
vertex 0.002340 0.000138 0.000000
vertex 0.002598 0.000095 0.000000
vertex 0.002598 0.000095 0.150000
endloop
endfacet
facet normal -0.164560 -0.986367 0.000000
outer loop
vertex 0.002340 0.000138 0.000000
vertex 0.002598 0.000095 0.150000
vertex 0.002340 0.000138 0.150000
endloop
endfacet
facet normal 0.000000 0.000000 1.000000
outer loop
vertex 0.001755 0.000286 0.000000
vertex 0.001911 0.000240 0.000000
vertex 0.002340 0.000138 0.000000
endloop
endfacet
facet normal -0.286943 -0.957948 0.000000
outer loop
vertex 0.001911 0.000240 0.150000
vertex 0.001755 0.000286 0.150000
vertex 0.001755 0.000286 0.000000
endloop
endfacet
facet normal -0.215966 -0.976401 0.000000
outer loop
vertex 0.002340 0.000138 0.000000
vertex 0.002340 0.000138 0.150000
vertex 0.002060 0.000200 0.150000
endloop
endfacet
facet normal -0.257861 -0.966182 -0.000033
outer loop
vertex 0.002060 0.000200 0.150000
vertex 0.001911 0.000240 0.150000
vertex 0.001755 0.000286 0.000000
endloop
endfacet
facet normal -0.245882 -0.969300 -0.000059
outer loop
vertex 0.002340 0.000138 0.000000
vertex 0.002060 0.000200 0.150000
vertex 0.001755 0.000286 0.000000
endloop
endfacet
facet normal 0.699838 -0.714302 0.000000
outer loop
vertex 0.006582 0.000954 0.150000
vertex 0.006582 0.000954 0.000000
vertex 0.006756 0.001124 0.000000
endloop
endfacet
facet normal 0.699838 -0.714302 0.000000
outer loop
vertex 0.006582 0.000954 0.150000
vertex 0.006756 0.001124 0.000000
vertex 0.006756 0.001124 0.150000
endloop
endfacet
facet normal 0.493073 -0.869988 0.000000
outer loop
vertex 0.005363 0.000124 0.150000
vertex 0.005363 0.000124 0.000000
vertex 0.005513 0.000209 0.000000
endloop
endfacet
facet normal 0.493071 -0.869989 0.000000
outer loop
vertex 0.005363 0.000124 0.150000
vertex 0.005513 0.000209 0.000000
vertex 0.005513 0.000209 0.150000
endloop
endfacet
facet normal 0.789668 0.613534 0.000000
outer loop
vertex 0.006719 0.005689 0.150000
vertex 0.006719 0.005689 0.000000
vertex 0.006579 0.005869 0.000000
endloop
endfacet
facet normal 0.789668 0.613534 0.000000
outer loop
vertex 0.006719 0.005689 0.150000
vertex 0.006579 0.005869 0.000000
vertex 0.006579 0.005869 0.150000
endloop
endfacet
facet normal 0.994440 0.105306 0.000000
outer loop
vertex 0.007619 0.003316 0.000000
vertex 0.007598 0.003514 0.000000
vertex 0.007598 0.003514 0.150000
endloop
endfacet
facet normal 0.994441 0.105298 0.000000
outer loop
vertex 0.007619 0.003316 0.000000
vertex 0.007598 0.003514 0.150000
vertex 0.007619 0.003316 0.150000
endloop
endfacet
facet normal 0.988470 -0.151419 0.000000
outer loop
vertex 0.007605 0.003168 0.150000
vertex 0.007605 0.003168 0.000000
vertex 0.007615 0.003238 0.000000
endloop
endfacet
facet normal 0.988470 -0.151419 0.000000
outer loop
vertex 0.007605 0.003168 0.150000
vertex 0.007615 0.003238 0.000000
vertex 0.007615 0.003238 0.150000
endloop
endfacet
facet normal 0.000000 0.000000 1.000000
outer loop
vertex 0.003392 0.000033 0.000000
vertex 0.003510 0.000033 0.000000
vertex 0.003768 0.000038 0.000000
endloop
endfacet
facet normal 0.006370 -0.999980 0.000000
outer loop
vertex 0.004065 0.000049 0.000000
vertex 0.004217 0.000050 0.000000
vertex 0.004217 0.000050 0.150000
endloop
endfacet
facet normal 0.000000 0.000000 1.000000
outer loop
vertex 0.003392 0.000033 0.000000
vertex 0.003768 0.000038 0.000000
vertex 0.004065 0.000049 0.000000
endloop
endfacet
facet normal -0.017490 -0.999847 0.000000
outer loop
vertex 0.003278 0.000035 0.150000
vertex 0.003278 0.000035 0.000000
vertex 0.003392 0.000033 0.000000
endloop
endfacet
facet normal -0.017490 -0.999847 0.000000
outer loop
vertex 0.003392 0.000033 0.150000
vertex 0.003278 0.000035 0.150000
vertex 0.003392 0.000033 0.000000
endloop
endfacet
facet normal 0.022963 -0.999736 -0.000017
outer loop
vertex 0.003392 0.000033 0.000000
vertex 0.004065 0.000049 0.000000
vertex 0.004217 0.000050 0.150000
endloop
endfacet
facet normal 0.006370 -0.999980 0.000074
outer loop
vertex 0.003392 0.000033 0.000000
vertex 0.004217 0.000050 0.150000
vertex 0.004065 0.000049 0.150000
endloop
endfacet
facet normal -0.000922 -1.000000 0.000000
outer loop
vertex 0.003510 0.000033 0.150000
vertex 0.003392 0.000033 0.150000
vertex 0.003392 0.000033 0.000000
endloop
endfacet
facet normal 0.036089 -0.999349 -0.000059
outer loop
vertex 0.003392 0.000033 0.000000
vertex 0.004065 0.000049 0.150000
vertex 0.003768 0.000038 0.150000
endloop
endfacet
facet normal 0.018869 -0.999822 -0.000016
outer loop
vertex 0.003768 0.000038 0.150000
vertex 0.003510 0.000033 0.150000
vertex 0.003392 0.000033 0.000000
endloop
endfacet
facet normal 0.623599 0.781744 0.000000
outer loop
vertex 0.006424 0.006024 0.150000
vertex 0.006424 0.006024 0.000000
vertex 0.006336 0.006094 0.000000
endloop
endfacet
facet normal 0.623599 0.781744 0.000000
outer loop
vertex 0.006424 0.006024 0.150000
vertex 0.006336 0.006094 0.000000
vertex 0.006336 0.006094 0.150000
endloop
endfacet
facet normal -0.994956 0.100309 0.000000
outer loop
vertex 0.000023 0.003265 0.150000
vertex 0.000023 0.003265 0.000000
vertex 0.000003 0.003065 0.000000
endloop
endfacet
facet normal -0.994956 0.100309 0.000000
outer loop
vertex 0.000023 0.003265 0.150000
vertex 0.000003 0.003065 0.000000
vertex 0.000003 0.003065 0.150000
endloop
endfacet
facet normal 0.790440 -0.612540 0.000000
outer loop
vertex 0.006756 0.001124 0.150000
vertex 0.006756 0.001124 0.000000
vertex 0.006835 0.001226 0.000000
endloop
endfacet
facet normal 0.790434 -0.612547 0.000000
outer loop
vertex 0.006756 0.001124 0.150000
vertex 0.006835 0.001226 0.000000
vertex 0.006835 0.001226 0.150000
endloop
endfacet
facet normal 0.062351 0.998054 0.000000
outer loop
vertex 0.003565 0.007066 0.150000
vertex 0.003565 0.007066 0.000000
vertex 0.003497 0.007070 0.000000
endloop
endfacet
facet normal 0.062352 0.998054 0.000000
outer loop
vertex 0.003565 0.007066 0.150000
vertex 0.003497 0.007070 0.000000
vertex 0.003497 0.007070 0.150000
endloop
endfacet
facet normal 0.968482 0.249082 0.000000
outer loop
vertex 0.007598 0.003514 0.000000
vertex 0.007326 0.004572 0.000000
vertex 0.007326 0.004572 0.150000
endloop
endfacet
facet normal 0.968482 0.249082 0.000000
outer loop
vertex 0.007598 0.003514 0.000000
vertex 0.007326 0.004572 0.150000
vertex 0.007598 0.003514 0.150000
endloop
endfacet
facet normal -0.316144 -0.948711 0.000000
outer loop
vertex 0.001593 0.000340 0.000000
vertex 0.001755 0.000286 0.000000
vertex 0.001755 0.000286 0.150000
endloop
endfacet
facet normal -0.316144 -0.948711 0.000000
outer loop
vertex 0.001593 0.000340 0.000000
vertex 0.001755 0.000286 0.150000
vertex 0.001593 0.000340 0.150000
endloop
endfacet
facet normal -0.387653 -0.921805 0.000000
outer loop
vertex 0.001064 0.000554 0.150000
vertex 0.001064 0.000554 0.000000
vertex 0.001424 0.000403 0.000000
endloop
endfacet
facet normal -0.345087 -0.938571 0.000000
outer loop
vertex 0.001424 0.000403 0.000000
vertex 0.001593 0.000340 0.000000
vertex 0.001593 0.000340 0.150000
endloop
endfacet
facet normal -0.387653 -0.921805 0.000000
outer loop
vertex 0.001424 0.000403 0.150000
vertex 0.001064 0.000554 0.150000
vertex 0.001424 0.000403 0.000000
endloop
endfacet
facet normal -0.345087 -0.938571 0.000000
outer loop
vertex 0.001593 0.000340 0.150000
vertex 0.001424 0.000403 0.150000
vertex 0.001424 0.000403 0.000000
endloop
endfacet
facet normal 0.395561 -0.918440 0.000000
outer loop
vertex 0.005224 0.000064 0.150000
vertex 0.005224 0.000064 0.000000
vertex 0.005363 0.000124 0.000000
endloop
endfacet
facet normal 0.395561 -0.918440 0.000000
outer loop
vertex 0.005224 0.000064 0.150000
vertex 0.005363 0.000124 0.000000
vertex 0.005363 0.000124 0.150000
endloop
endfacet
endsolid Exported from Blender-3.6.8
