solid Exported from Blender-3.6.8
facet normal 0.000000 0.000000 -1.000000
outer loop
vertex 0.004649 0.002199 0.000000
vertex 0.004477 0.001874 0.000000
vertex 0.004365 0.001720 0.000000
endloop
endfacet
facet normal 0.000000 0.000000 -1.000000
outer loop
vertex 0.004365 0.001720 0.000000
vertex 0.004306 0.001655 0.000000
vertex 0.003930 0.001283 0.000000
endloop
endfacet
facet normal 0.000000 0.000000 -1.000000
outer loop
vertex 0.003930 0.001283 0.000000
vertex 0.003601 0.000907 0.000000
vertex 0.003486 0.000796 0.000000
endloop
endfacet
facet normal 0.000000 0.000000 -1.000000
outer loop
vertex 0.003486 0.000796 0.000000
vertex 0.003368 0.000702 0.000000
vertex 0.003246 0.000623 0.000000
endloop
endfacet
facet normal 0.000000 0.000000 -1.000000
outer loop
vertex 0.003246 0.000623 0.000000
vertex 0.003114 0.000556 0.000000
vertex 0.002808 0.000442 0.000000
endloop
endfacet
facet normal 0.000000 0.000000 -1.000000
outer loop
vertex 0.002808 0.000442 0.000000
vertex 0.001159 0.000019 0.000000
vertex 0.001013 0.000001 0.000000
endloop
endfacet
facet normal 0.000000 0.000000 -1.000000
outer loop
vertex 0.001013 0.000001 0.000000
vertex 0.000915 0.000006 0.000000
vertex 0.000856 0.000031 0.000000
endloop
endfacet
facet normal 0.000000 0.000000 -1.000000
outer loop
vertex 0.000856 0.000031 0.000000
vertex 0.000825 0.000075 0.000000
vertex 0.000813 0.000136 0.000000
endloop
endfacet
facet normal 0.000000 0.000000 -1.000000
outer loop
vertex 0.000856 0.000031 0.000000
vertex 0.000813 0.000136 0.000000
vertex 0.000804 0.000295 0.000000
endloop
endfacet
facet normal 0.000000 0.000000 -1.000000
outer loop
vertex 0.002808 0.000442 0.000000
vertex 0.001013 0.000001 0.000000
vertex 0.000856 0.000031 0.000000
endloop
endfacet
facet normal 0.000000 0.000000 -1.000000
outer loop
vertex 0.003486 0.000796 0.000000
vertex 0.003246 0.000623 0.000000
vertex 0.002808 0.000442 0.000000
endloop
endfacet
facet normal 0.000000 0.000000 -1.000000
outer loop
vertex 0.004649 0.002199 0.000000
vertex 0.004365 0.001720 0.000000
vertex 0.003930 0.001283 0.000000
endloop
endfacet
facet normal 0.000000 0.000000 -1.000000
outer loop
vertex 0.003930 0.001283 0.000000
vertex 0.003486 0.000796 0.000000
vertex 0.002808 0.000442 0.000000
endloop
endfacet
facet normal 0.000000 0.000000 -1.000000
outer loop
vertex 0.002808 0.000442 0.000000
vertex 0.000856 0.000031 0.000000
vertex 0.000804 0.000295 0.000000
endloop
endfacet
facet normal 0.000000 0.000000 -1.000000
outer loop
vertex 0.002808 0.000442 0.000000
vertex 0.000804 0.000295 0.000000
vertex 0.000786 0.000390 0.000000
endloop
endfacet
facet normal 0.000000 0.000000 -1.000000
outer loop
vertex 0.004649 0.002199 0.000000
vertex 0.003930 0.001283 0.000000
vertex 0.002808 0.000442 0.000000
endloop
endfacet
facet normal 0.000000 0.000000 -1.000000
outer loop
vertex 0.004954 0.002676 0.000000
vertex 0.004920 0.002598 0.000000
vertex 0.004649 0.002199 0.000000
endloop
endfacet
facet normal 0.000000 0.000000 -1.000000
outer loop
vertex 0.004989 0.002867 0.000000
vertex 0.004978 0.002764 0.000000
vertex 0.004954 0.002676 0.000000
endloop
endfacet
facet normal 0.000000 0.000000 -1.000000
outer loop
vertex 0.004963 0.003138 0.000000
vertex 0.004985 0.002991 0.000000
vertex 0.004989 0.002867 0.000000
endloop
endfacet
facet normal 0.000000 0.000000 -1.000000
outer loop
vertex 0.004707 0.004281 0.000000
vertex 0.004742 0.004145 0.000000
vertex 0.004877 0.003503 0.000000
endloop
endfacet
facet normal 0.000000 0.000000 -1.000000
outer loop
vertex 0.004877 0.003503 0.000000
vertex 0.004963 0.003138 0.000000
vertex 0.004989 0.002867 0.000000
endloop
endfacet
facet normal 0.000000 0.000000 -1.000000
outer loop
vertex 0.004989 0.002867 0.000000
vertex 0.004954 0.002676 0.000000
vertex 0.004649 0.002199 0.000000
endloop
endfacet
facet normal 0.000000 0.000000 -1.000000
outer loop
vertex 0.004649 0.002199 0.000000
vertex 0.002808 0.000442 0.000000
vertex 0.000786 0.000390 0.000000
endloop
endfacet
facet normal 0.000000 0.000000 -1.000000
outer loop
vertex 0.000746 0.000491 0.000000
vertex 0.000454 0.000901 0.000000
vertex 0.000353 0.001096 0.000000
endloop
endfacet
facet normal 0.000000 0.000000 -1.000000
outer loop
vertex 0.004649 0.002199 0.000000
vertex 0.000786 0.000390 0.000000
vertex 0.000746 0.000491 0.000000
endloop
endfacet
facet normal 0.000000 0.000000 -1.000000
outer loop
vertex 0.004877 0.003503 0.000000
vertex 0.004989 0.002867 0.000000
vertex 0.004649 0.002199 0.000000
endloop
endfacet
facet normal 0.000000 0.000000 -1.000000
outer loop
vertex 0.004666 0.004407 0.000000
vertex 0.004707 0.004281 0.000000
vertex 0.004877 0.003503 0.000000
endloop
endfacet
facet normal 0.000000 0.000000 -1.000000
outer loop
vertex 0.004554 0.004635 0.000000
vertex 0.004616 0.004525 0.000000
vertex 0.004666 0.004407 0.000000
endloop
endfacet
facet normal 0.000000 0.000000 -1.000000
outer loop
vertex 0.004383 0.004830 0.000000
vertex 0.004477 0.004736 0.000000
vertex 0.004554 0.004635 0.000000
endloop
endfacet
facet normal 0.000000 0.000000 -1.000000
outer loop
vertex 0.003999 0.005085 0.000000
vertex 0.004269 0.004917 0.000000
vertex 0.004383 0.004830 0.000000
endloop
endfacet
facet normal 0.000000 0.000000 -1.000000
outer loop
vertex 0.003699 0.005243 0.000000
vertex 0.003852 0.005166 0.000000
vertex 0.003999 0.005085 0.000000
endloop
endfacet
facet normal 0.000000 0.000000 -1.000000
outer loop
vertex 0.003068 0.005460 0.000000
vertex 0.003384 0.005374 0.000000
vertex 0.003699 0.005243 0.000000
endloop
endfacet
facet normal 0.000000 0.000000 -1.000000
outer loop
vertex 0.002767 0.005485 0.000000
vertex 0.002915 0.005482 0.000000
vertex 0.003068 0.005460 0.000000
endloop
endfacet
facet normal 0.000000 0.000000 -1.000000
outer loop
vertex 0.002494 0.005430 0.000000
vertex 0.002626 0.005469 0.000000
vertex 0.002767 0.005485 0.000000
endloop
endfacet
facet normal 0.000000 0.000000 -1.000000
outer loop
vertex 0.001952 0.005120 0.000000
vertex 0.002228 0.005298 0.000000
vertex 0.002494 0.005430 0.000000
endloop
endfacet
facet normal 0.000000 0.000000 -1.000000
outer loop
vertex 0.001476 0.004753 0.000000
vertex 0.001693 0.004928 0.000000
vertex 0.001952 0.005120 0.000000
endloop
endfacet
facet normal 0.000000 0.000000 -1.000000
outer loop
vertex 0.000562 0.004132 0.000000
vertex 0.000659 0.004210 0.000000
vertex 0.001272 0.004576 0.000000
endloop
endfacet
facet normal 0.000000 0.000000 -1.000000
outer loop
vertex 0.001272 0.004576 0.000000
vertex 0.001476 0.004753 0.000000
vertex 0.001952 0.005120 0.000000
endloop
endfacet
facet normal 0.000000 0.000000 -1.000000
outer loop
vertex 0.001952 0.005120 0.000000
vertex 0.002494 0.005430 0.000000
vertex 0.002767 0.005485 0.000000
endloop
endfacet
facet normal 0.000000 0.000000 -1.000000
outer loop
vertex 0.002767 0.005485 0.000000
vertex 0.003068 0.005460 0.000000
vertex 0.003699 0.005243 0.000000
endloop
endfacet
facet normal 0.000000 0.000000 -1.000000
outer loop
vertex 0.003699 0.005243 0.000000
vertex 0.003999 0.005085 0.000000
vertex 0.004383 0.004830 0.000000
endloop
endfacet
facet normal 0.000000 0.000000 -1.000000
outer loop
vertex 0.004383 0.004830 0.000000
vertex 0.004554 0.004635 0.000000
vertex 0.004666 0.004407 0.000000
endloop
endfacet
facet normal 0.000000 0.000000 -1.000000
outer loop
vertex 0.004666 0.004407 0.000000
vertex 0.004877 0.003503 0.000000
vertex 0.004649 0.002199 0.000000
endloop
endfacet
facet normal 0.000000 0.000000 -1.000000
outer loop
vertex 0.004649 0.002199 0.000000
vertex 0.000746 0.000491 0.000000
vertex 0.000353 0.001096 0.000000
endloop
endfacet
facet normal 0.000000 0.000000 -1.000000
outer loop
vertex 0.000353 0.001096 0.000000
vertex 0.000273 0.001305 0.000000
vertex 0.000032 0.002167 0.000000
endloop
endfacet
facet normal 0.000000 0.000000 -1.000000
outer loop
vertex 0.000032 0.002167 0.000000
vertex 0.000008 0.002318 0.000000
vertex 0.000000 0.002457 0.000000
endloop
endfacet
facet normal 0.000000 0.000000 -1.000000
outer loop
vertex 0.000000 0.002457 0.000000
vertex 0.000005 0.002586 0.000000
vertex 0.000020 0.002707 0.000000
endloop
endfacet
facet normal 0.000000 0.000000 -1.000000
outer loop
vertex 0.000020 0.002707 0.000000
vertex 0.000274 0.003712 0.000000
vertex 0.000326 0.003837 0.000000
endloop
endfacet
facet normal 0.000000 0.000000 -1.000000
outer loop
vertex 0.000326 0.003837 0.000000
vertex 0.000393 0.003948 0.000000
vertex 0.000472 0.004046 0.000000
endloop
endfacet
facet normal 0.000000 0.000000 -1.000000
outer loop
vertex 0.000472 0.004046 0.000000
vertex 0.000562 0.004132 0.000000
vertex 0.001272 0.004576 0.000000
endloop
endfacet
facet normal 0.000000 0.000000 -1.000000
outer loop
vertex 0.001272 0.004576 0.000000
vertex 0.001952 0.005120 0.000000
vertex 0.002767 0.005485 0.000000
endloop
endfacet
facet normal 0.000000 0.000000 -1.000000
outer loop
vertex 0.002767 0.005485 0.000000
vertex 0.003699 0.005243 0.000000
vertex 0.004383 0.004830 0.000000
endloop
endfacet
facet normal 0.000000 0.000000 -1.000000
outer loop
vertex 0.004383 0.004830 0.000000
vertex 0.004666 0.004407 0.000000
vertex 0.004649 0.002199 0.000000
endloop
endfacet
facet normal 0.000000 0.000000 -1.000000
outer loop
vertex 0.004649 0.002199 0.000000
vertex 0.000353 0.001096 0.000000
vertex 0.000032 0.002167 0.000000
endloop
endfacet
facet normal 0.000000 0.000000 -1.000000
outer loop
vertex 0.000032 0.002167 0.000000
vertex 0.000000 0.002457 0.000000
vertex 0.000020 0.002707 0.000000
endloop
endfacet
facet normal 0.000000 0.000000 -1.000000
outer loop
vertex 0.000020 0.002707 0.000000
vertex 0.000326 0.003837 0.000000
vertex 0.000472 0.004046 0.000000
endloop
endfacet
facet normal 0.000000 0.000000 -1.000000
outer loop
vertex 0.000472 0.004046 0.000000
vertex 0.001272 0.004576 0.000000
vertex 0.002767 0.005485 0.000000
endloop
endfacet
facet normal 0.000000 0.000000 -1.000000
outer loop
vertex 0.002767 0.005485 0.000000
vertex 0.004383 0.004830 0.000000
vertex 0.004649 0.002199 0.000000
endloop
endfacet
facet normal 0.000000 0.000000 -1.000000
outer loop
vertex 0.004649 0.002199 0.000000
vertex 0.000032 0.002167 0.000000
vertex 0.000020 0.002707 0.000000
endloop
endfacet
facet normal 0.000000 0.000000 -1.000000
outer loop
vertex 0.000020 0.002707 0.000000
vertex 0.000472 0.004046 0.000000
vertex 0.002767 0.005485 0.000000
endloop
endfacet
facet normal 0.000000 0.000000 -1.000000
outer loop
vertex 0.004649 0.002199 0.000000
vertex 0.000020 0.002707 0.000000
vertex 0.002767 0.005485 0.000000
endloop
endfacet
facet normal 0.383829 0.923404 0.000000
outer loop
vertex 0.003699 0.005243 0.150000
vertex 0.003699 0.005243 0.000000
vertex 0.003384 0.005374 0.000000
endloop
endfacet
facet normal 0.383829 0.923404 0.000000
outer loop
vertex 0.003699 0.005243 0.150000
vertex 0.003384 0.005374 0.000000
vertex 0.003384 0.005374 0.150000
endloop
endfacet
facet normal -0.969360 0.245643 0.000000
outer loop
vertex 0.000274 0.003712 0.150000
vertex 0.000274 0.003712 0.000000
vertex 0.000020 0.002707 0.000000
endloop
endfacet
facet normal -0.969360 0.245643 0.000000
outer loop
vertex 0.000274 0.003712 0.150000
vertex 0.000020 0.002707 0.000000
vertex 0.000020 0.002707 0.150000
endloop
endfacet
facet normal -0.541928 0.840425 0.000000
outer loop
vertex 0.002228 0.005298 0.150000
vertex 0.002228 0.005298 0.000000
vertex 0.001952 0.005120 0.000000
endloop
endfacet
facet normal -0.541929 0.840424 0.000000
outer loop
vertex 0.002228 0.005298 0.150000
vertex 0.001952 0.005120 0.000000
vertex 0.001952 0.005120 0.150000
endloop
endfacet
facet normal -0.654523 0.756042 0.000000
outer loop
vertex 0.001476 0.004753 0.000000
vertex 0.001272 0.004576 0.000000
vertex 0.001272 0.004576 0.150000
endloop
endfacet
facet normal -0.654523 0.756042 0.000000
outer loop
vertex 0.001476 0.004753 0.000000
vertex 0.001272 0.004576 0.150000
vertex 0.001476 0.004753 0.150000
endloop
endfacet
facet normal -0.594888 0.803809 0.000000
outer loop
vertex 0.001952 0.005120 0.150000
vertex 0.001952 0.005120 0.000000
vertex 0.001693 0.004928 0.000000
endloop
endfacet
facet normal -0.628015 0.778202 0.000000
outer loop
vertex 0.001693 0.004928 0.000000
vertex 0.001476 0.004753 0.000000
vertex 0.001476 0.004753 0.150000
endloop
endfacet
facet normal -0.594888 0.803809 0.000000
outer loop
vertex 0.001693 0.004928 0.150000
vertex 0.001952 0.005120 0.150000
vertex 0.001693 0.004928 0.000000
endloop
endfacet
facet normal -0.628015 0.778201 0.000000
outer loop
vertex 0.001476 0.004753 0.150000
vertex 0.001693 0.004928 0.150000
vertex 0.001693 0.004928 0.000000
endloop
endfacet
facet normal -0.398119 -0.917334 0.000000
outer loop
vertex 0.000856 0.000031 0.150000
vertex 0.000856 0.000031 0.000000
vertex 0.000915 0.000006 0.000000
endloop
endfacet
facet normal -0.398118 -0.917334 0.000000
outer loop
vertex 0.000856 0.000031 0.150000
vertex 0.000915 0.000006 0.000000
vertex 0.000915 0.000006 0.150000
endloop
endfacet
facet normal 0.965716 -0.259599 0.000000
outer loop
vertex 0.004954 0.002676 0.150000
vertex 0.004954 0.002676 0.000000
vertex 0.004978 0.002764 0.000000
endloop
endfacet
facet normal 0.965714 -0.259607 0.000000
outer loop
vertex 0.004954 0.002676 0.150000
vertex 0.004978 0.002764 0.000000
vertex 0.004978 0.002764 0.150000
endloop
endfacet
facet normal -0.923838 0.382783 0.000000
outer loop
vertex 0.000326 0.003837 0.150000
vertex 0.000326 0.003837 0.000000
vertex 0.000274 0.003712 0.000000
endloop
endfacet
facet normal -0.923838 0.382783 0.000000
outer loop
vertex 0.000326 0.003837 0.150000
vertex 0.000274 0.003712 0.000000
vertex 0.000274 0.003712 0.150000
endloop
endfacet
facet normal -0.512418 0.858736 0.000000
outer loop
vertex 0.001272 0.004576 0.000000
vertex 0.000659 0.004210 0.000000
vertex 0.000659 0.004210 0.150000
endloop
endfacet
facet normal -0.512418 0.858736 0.000000
outer loop
vertex 0.001272 0.004576 0.000000
vertex 0.000659 0.004210 0.150000
vertex 0.001272 0.004576 0.150000
endloop
endfacet
facet normal 0.827519 -0.561438 0.000000
outer loop
vertex 0.004649 0.002199 0.000000
vertex 0.004920 0.002598 0.000000
vertex 0.004920 0.002598 0.150000
endloop
endfacet
facet normal 0.827519 -0.561437 0.000000
outer loop
vertex 0.004649 0.002199 0.000000
vertex 0.004920 0.002598 0.150000
vertex 0.004649 0.002199 0.150000
endloop
endfacet
facet normal 0.248944 -0.968518 0.000000
outer loop
vertex 0.002808 0.000442 0.000000
vertex 0.002808 0.000442 0.150000
vertex 0.001159 0.000019 0.150000
endloop
endfacet
facet normal 0.248944 -0.968518 0.000000
outer loop
vertex 0.002808 0.000442 0.000000
vertex 0.001159 0.000019 0.150000
vertex 0.001159 0.000019 0.000000
endloop
endfacet
facet normal -0.988190 -0.153236 0.000000
outer loop
vertex 0.000008 0.002318 0.150000
vertex 0.000008 0.002318 0.000000
vertex 0.000032 0.002167 0.000000
endloop
endfacet
facet normal -0.988190 -0.153236 0.000000
outer loop
vertex 0.000008 0.002318 0.150000
vertex 0.000032 0.002167 0.000000
vertex 0.000032 0.002167 0.150000
endloop
endfacet
facet normal 0.000000 0.000000 1.000000
outer loop
vertex 0.004877 0.003503 0.000000
vertex 0.004742 0.004145 0.000000
vertex 0.004707 0.004281 0.000000
endloop
endfacet
facet normal 0.968182 0.250247 0.000000
outer loop
vertex 0.004707 0.004281 0.000000
vertex 0.004707 0.004281 0.150000
vertex 0.004742 0.004145 0.150000
endloop
endfacet
facet normal 0.978843 0.204612 -0.000044
outer loop
vertex 0.004707 0.004281 0.000000
vertex 0.004742 0.004145 0.150000
vertex 0.004877 0.003503 0.150000
endloop
endfacet
facet normal 0.000000 0.000000 1.000000
outer loop
vertex 0.004985 0.002991 0.000000
vertex 0.004963 0.003138 0.000000
vertex 0.004877 0.003503 0.000000
endloop
endfacet
facet normal 0.977122 0.212681 0.000000
outer loop
vertex 0.004877 0.003503 0.000000
vertex 0.004707 0.004281 0.000000
vertex 0.004877 0.003503 0.150000
endloop
endfacet
facet normal 0.989584 0.143958 0.000000
outer loop
vertex 0.004963 0.003138 0.150000
vertex 0.004985 0.002991 0.150000
vertex 0.004985 0.002991 0.000000
endloop
endfacet
facet normal 0.972899 0.231228 0.000000
outer loop
vertex 0.004877 0.003503 0.000000
vertex 0.004877 0.003503 0.150000
vertex 0.004963 0.003138 0.150000
endloop
endfacet
facet normal 0.978443 0.206515 -0.000063
outer loop
vertex 0.004877 0.003503 0.000000
vertex 0.004963 0.003138 0.150000
vertex 0.004985 0.002991 0.000000
endloop
endfacet
facet normal 0.605655 0.795727 0.000000
outer loop
vertex 0.004383 0.004830 0.150000
vertex 0.004383 0.004830 0.000000
vertex 0.004269 0.004917 0.000000
endloop
endfacet
facet normal 0.605652 0.795729 0.000000
outer loop
vertex 0.004383 0.004830 0.150000
vertex 0.004269 0.004917 0.000000
vertex 0.004269 0.004917 0.150000
endloop
endfacet
facet normal 0.023613 0.999721 0.000000
outer loop
vertex 0.002915 0.005482 0.150000
vertex 0.002915 0.005482 0.000000
vertex 0.002767 0.005485 0.000000
endloop
endfacet
facet normal 0.023613 0.999721 0.000000
outer loop
vertex 0.002915 0.005482 0.150000
vertex 0.002767 0.005485 0.000000
vertex 0.002767 0.005485 0.150000
endloop
endfacet
facet normal 0.742636 -0.669695 0.000000
outer loop
vertex 0.004306 0.001655 0.000000
vertex 0.004365 0.001720 0.000000
vertex 0.004365 0.001720 0.150000
endloop
endfacet
facet normal 0.742641 -0.669690 0.000000
outer loop
vertex 0.004306 0.001655 0.000000
vertex 0.004365 0.001720 0.150000
vertex 0.004306 0.001655 0.150000
endloop
endfacet
facet normal 0.702579 -0.711606 0.000000
outer loop
vertex 0.003930 0.001283 0.000000
vertex 0.004306 0.001655 0.000000
vertex 0.004306 0.001655 0.150000
endloop
endfacet
facet normal 0.702581 -0.711604 0.000000
outer loop
vertex 0.003930 0.001283 0.000000
vertex 0.004306 0.001655 0.150000
vertex 0.003930 0.001283 0.150000
endloop
endfacet
facet normal 0.696189 -0.717859 0.000000
outer loop
vertex 0.003486 0.000796 0.150000
vertex 0.003486 0.000796 0.000000
vertex 0.003601 0.000907 0.000000
endloop
endfacet
facet normal 0.752746 -0.658311 0.000000
outer loop
vertex 0.003601 0.000907 0.000000
vertex 0.003930 0.001283 0.000000
vertex 0.003930 0.001283 0.150000
endloop
endfacet
facet normal 0.696184 -0.717864 0.000000
outer loop
vertex 0.003601 0.000907 0.150000
vertex 0.003486 0.000796 0.150000
vertex 0.003601 0.000907 0.000000
endloop
endfacet
facet normal 0.752746 -0.658312 0.000000
outer loop
vertex 0.003930 0.001283 0.150000
vertex 0.003601 0.000907 0.150000
vertex 0.003601 0.000907 0.000000
endloop
endfacet
facet normal 0.883679 -0.468093 0.000000
outer loop
vertex 0.004649 0.002199 0.000000
vertex 0.004649 0.002199 0.150000
vertex 0.004477 0.001874 0.150000
endloop
endfacet
facet normal 0.883679 -0.468093 0.000000
outer loop
vertex 0.004649 0.002199 0.000000
vertex 0.004477 0.001874 0.150000
vertex 0.004477 0.001874 0.000000
endloop
endfacet
facet normal 0.121104 -0.992640 0.000000
outer loop
vertex 0.001013 0.000001 0.150000
vertex 0.001013 0.000001 0.000000
vertex 0.001159 0.000019 0.000000
endloop
endfacet
facet normal 0.121103 -0.992640 0.000000
outer loop
vertex 0.001013 0.000001 0.150000
vertex 0.001159 0.000019 0.000000
vertex 0.001159 0.000019 0.150000
endloop
endfacet
facet normal 0.136546 0.990634 0.000000
outer loop
vertex 0.003068 0.005460 0.150000
vertex 0.003068 0.005460 0.000000
vertex 0.002915 0.005482 0.000000
endloop
endfacet
facet normal 0.136547 0.990634 0.000000
outer loop
vertex 0.003068 0.005460 0.150000
vertex 0.002915 0.005482 0.000000
vertex 0.002915 0.005482 0.150000
endloop
endfacet
facet normal 0.999363 0.035692 0.000000
outer loop
vertex 0.004989 0.002867 0.150000
vertex 0.004989 0.002867 0.000000
vertex 0.004985 0.002991 0.000000
endloop
endfacet
facet normal 0.999363 0.035686 0.000000
outer loop
vertex 0.004989 0.002867 0.150000
vertex 0.004985 0.002991 0.000000
vertex 0.004985 0.002991 0.150000
endloop
endfacet
facet normal 0.454524 -0.890735 0.000000
outer loop
vertex 0.003114 0.000556 0.150000
vertex 0.003114 0.000556 0.000000
vertex 0.003246 0.000623 0.000000
endloop
endfacet
facet normal 0.454523 -0.890735 0.000000
outer loop
vertex 0.003114 0.000556 0.150000
vertex 0.003246 0.000623 0.000000
vertex 0.003246 0.000623 0.150000
endloop
endfacet
facet normal 0.950755 0.309943 0.000000
outer loop
vertex 0.004707 0.004281 0.150000
vertex 0.004707 0.004281 0.000000
vertex 0.004666 0.004407 0.000000
endloop
endfacet
facet normal 0.950752 0.309954 0.000000
outer loop
vertex 0.004707 0.004281 0.150000
vertex 0.004666 0.004407 0.000000
vertex 0.004666 0.004407 0.150000
endloop
endfacet
facet normal -0.777125 0.629346 0.000000
outer loop
vertex 0.000472 0.004046 0.150000
vertex 0.000472 0.004046 0.000000
vertex 0.000393 0.003948 0.000000
endloop
endfacet
facet normal -0.777125 0.629346 0.000000
outer loop
vertex 0.000472 0.004046 0.150000
vertex 0.000393 0.003948 0.000000
vertex 0.000393 0.003948 0.150000
endloop
endfacet
facet normal -0.051311 -0.998683 0.000000
outer loop
vertex 0.000915 0.000006 0.150000
vertex 0.000915 0.000006 0.000000
vertex 0.001013 0.000001 0.000000
endloop
endfacet
facet normal -0.051311 -0.998683 0.000000
outer loop
vertex 0.000915 0.000006 0.150000
vertex 0.001013 0.000001 0.000000
vertex 0.001013 0.000001 0.150000
endloop
endfacet
facet normal -0.962929 -0.269753 0.000000
outer loop
vertex 0.000032 0.002167 0.000000
vertex 0.000273 0.001305 0.000000
vertex 0.000273 0.001305 0.150000
endloop
endfacet
facet normal -0.962929 -0.269753 0.000000
outer loop
vertex 0.000032 0.002167 0.000000
vertex 0.000273 0.001305 0.150000
vertex 0.000032 0.002167 0.150000
endloop
endfacet
facet normal -0.279505 0.960144 0.000000
outer loop
vertex 0.002626 0.005469 0.150000
vertex 0.002626 0.005469 0.000000
vertex 0.002494 0.005430 0.000000
endloop
endfacet
facet normal -0.279504 0.960145 0.000000
outer loop
vertex 0.002626 0.005469 0.150000
vertex 0.002494 0.005430 0.000000
vertex 0.002494 0.005430 0.150000
endloop
endfacet
facet normal -0.115241 0.993338 0.000000
outer loop
vertex 0.002767 0.005485 0.150000
vertex 0.002767 0.005485 0.000000
vertex 0.002626 0.005469 0.000000
endloop
endfacet
facet normal -0.115241 0.993338 0.000000
outer loop
vertex 0.002767 0.005485 0.150000
vertex 0.002626 0.005469 0.000000
vertex 0.002626 0.005469 0.150000
endloop
endfacet
facet normal 0.540097 -0.841603 0.000000
outer loop
vertex 0.003246 0.000623 0.150000
vertex 0.003246 0.000623 0.000000
vertex 0.003368 0.000702 0.000000
endloop
endfacet
facet normal 0.540096 -0.841604 0.000000
outer loop
vertex 0.003246 0.000623 0.150000
vertex 0.003368 0.000702 0.000000
vertex 0.003368 0.000702 0.150000
endloop
endfacet
facet normal -0.934104 -0.357001 0.000000
outer loop
vertex 0.000353 0.001096 0.000000
vertex 0.000353 0.001096 0.150000
vertex 0.000273 0.001305 0.150000
endloop
endfacet
facet normal -0.934104 -0.357001 0.000000
outer loop
vertex 0.000353 0.001096 0.000000
vertex 0.000273 0.001305 0.150000
vertex 0.000273 0.001305 0.000000
endloop
endfacet
facet normal -0.623981 0.781440 0.000000
outer loop
vertex 0.000659 0.004210 0.150000
vertex 0.000659 0.004210 0.000000
vertex 0.000562 0.004132 0.000000
endloop
endfacet
facet normal -0.623981 0.781440 0.000000
outer loop
vertex 0.000659 0.004210 0.150000
vertex 0.000562 0.004132 0.000000
vertex 0.000562 0.004132 0.150000
endloop
endfacet
facet normal 0.000129 0.000000 1.000000
outer loop
vertex 0.003699 0.005243 0.150000
vertex 0.003384 0.005374 0.150000
vertex 0.003068 0.005460 0.150000
endloop
endfacet
facet normal 0.000088 0.000000 1.000000
outer loop
vertex 0.003068 0.005460 0.150000
vertex 0.002915 0.005482 0.150000
vertex 0.002767 0.005485 0.150000
endloop
endfacet
facet normal -0.000280 0.000000 1.000000
outer loop
vertex 0.002767 0.005485 0.150000
vertex 0.002626 0.005469 0.150000
vertex 0.002494 0.005430 0.150000
endloop
endfacet
facet normal 0.000000 0.000000 1.000000
outer loop
vertex 0.002494 0.005430 0.150000
vertex 0.002228 0.005298 0.150000
vertex 0.001952 0.005120 0.150000
endloop
endfacet
facet normal 0.000966 0.000000 1.000000
outer loop
vertex 0.001952 0.005120 0.150000
vertex 0.001693 0.004928 0.150000
vertex 0.001476 0.004753 0.150000
endloop
endfacet
facet normal 0.000151 0.000000 1.000000
outer loop
vertex 0.001272 0.004576 0.150000
vertex 0.000659 0.004210 0.150000
vertex 0.000562 0.004132 0.150000
endloop
endfacet
facet normal -0.000392 0.000000 1.000000
outer loop
vertex 0.001952 0.005120 0.150000
vertex 0.001476 0.004753 0.150000
vertex 0.001272 0.004576 0.150000
endloop
endfacet
facet normal 0.000000 0.000000 1.000000
outer loop
vertex 0.002767 0.005485 0.150000
vertex 0.002494 0.005430 0.150000
vertex 0.001952 0.005120 0.150000
endloop
endfacet
facet normal -0.000009 0.000000 1.000000
outer loop
vertex 0.003699 0.005243 0.150000
vertex 0.003068 0.005460 0.150000
vertex 0.002767 0.005485 0.150000
endloop
endfacet
facet normal 0.000000 0.000000 1.000000
outer loop
vertex 0.003999 0.005085 0.150000
vertex 0.003852 0.005166 0.150000
vertex 0.003699 0.005243 0.150000
endloop
endfacet
facet normal 0.000843 0.000000 1.000000
outer loop
vertex 0.004383 0.004830 0.150000
vertex 0.004269 0.004917 0.150000
vertex 0.003999 0.005085 0.150000
endloop
endfacet
facet normal 0.000000 0.000000 1.000000
outer loop
vertex 0.004554 0.004635 0.150000
vertex 0.004477 0.004736 0.150000
vertex 0.004383 0.004830 0.150000
endloop
endfacet
facet normal 0.002013 0.000000 0.999998
outer loop
vertex 0.004666 0.004407 0.150000
vertex 0.004616 0.004525 0.150000
vertex 0.004554 0.004635 0.150000
endloop
endfacet
facet normal 0.003133 0.000000 0.999995
outer loop
vertex 0.004742 0.004145 0.150000
vertex 0.004707 0.004281 0.150000
vertex 0.004666 0.004407 0.150000
endloop
endfacet
facet normal 0.001467 0.000000 0.999999
outer loop
vertex 0.004985 0.002991 0.150000
vertex 0.004963 0.003138 0.150000
vertex 0.004877 0.003503 0.150000
endloop
endfacet
facet normal 0.000000 0.000000 1.000000
outer loop
vertex 0.004877 0.003503 0.150000
vertex 0.004742 0.004145 0.150000
vertex 0.004666 0.004407 0.150000
endloop
endfacet
facet normal -0.000216 0.000000 1.000000
outer loop
vertex 0.004666 0.004407 0.150000
vertex 0.004554 0.004635 0.150000
vertex 0.004383 0.004830 0.150000
endloop
endfacet
facet normal -0.000465 0.000000 1.000000
outer loop
vertex 0.004383 0.004830 0.150000
vertex 0.003999 0.005085 0.150000
vertex 0.003699 0.005243 0.150000
endloop
endfacet
facet normal 0.000000 0.000000 1.000000
outer loop
vertex 0.003699 0.005243 0.150000
vertex 0.002767 0.005485 0.150000
vertex 0.001952 0.005120 0.150000
endloop
endfacet
facet normal -0.000082 0.000000 1.000000
outer loop
vertex 0.001272 0.004576 0.150000
vertex 0.000562 0.004132 0.150000
vertex 0.000472 0.004046 0.150000
endloop
endfacet
facet normal 0.000017 0.000000 1.000000
outer loop
vertex 0.003699 0.005243 0.150000
vertex 0.001952 0.005120 0.150000
vertex 0.001272 0.004576 0.150000
endloop
endfacet
facet normal 0.000084 0.000000 1.000000
outer loop
vertex 0.004666 0.004407 0.150000
vertex 0.004383 0.004830 0.150000
vertex 0.003699 0.005243 0.150000
endloop
endfacet
facet normal 0.000000 0.000000 1.000000
outer loop
vertex 0.004985 0.002991 0.150000
vertex 0.004877 0.003503 0.150000
vertex 0.004666 0.004407 0.150000
endloop
endfacet
facet normal 0.002053 0.000000 0.999998
outer loop
vertex 0.004978 0.002764 0.150000
vertex 0.004989 0.002867 0.150000
vertex 0.004985 0.002991 0.150000
endloop
endfacet
facet normal 0.000000 0.000000 1.000000
outer loop
vertex 0.004920 0.002598 0.150000
vertex 0.004954 0.002676 0.150000
vertex 0.004978 0.002764 0.150000
endloop
endfacet
facet normal 0.000731 0.000000 1.000000
outer loop
vertex 0.004365 0.001720 0.150000
vertex 0.004477 0.001874 0.150000
vertex 0.004649 0.002199 0.150000
endloop
endfacet
facet normal -0.000336 0.000000 1.000000
outer loop
vertex 0.004649 0.002199 0.150000
vertex 0.004920 0.002598 0.150000
vertex 0.004978 0.002764 0.150000
endloop
endfacet
facet normal 0.000000 0.000000 1.000000
outer loop
vertex 0.004978 0.002764 0.150000
vertex 0.004985 0.002991 0.150000
vertex 0.004666 0.004407 0.150000
endloop
endfacet
facet normal -0.000005 0.000000 1.000000
outer loop
vertex 0.004666 0.004407 0.150000
vertex 0.003699 0.005243 0.150000
vertex 0.001272 0.004576 0.150000
endloop
endfacet
facet normal -0.000151 0.000000 1.000000
outer loop
vertex 0.001272 0.004576 0.150000
vertex 0.000472 0.004046 0.150000
vertex 0.000393 0.003948 0.150000
endloop
endfacet
facet normal 0.000000 0.000000 1.000000
outer loop
vertex 0.000393 0.003948 0.150000
vertex 0.000326 0.003837 0.150000
vertex 0.000274 0.003712 0.150000
endloop
endfacet
facet normal -0.000933 0.000000 1.000000
outer loop
vertex 0.000274 0.003712 0.150000
vertex 0.000020 0.002707 0.150000
vertex 0.000005 0.002586 0.150000
endloop
endfacet
facet normal 0.000000 0.000000 1.000000
outer loop
vertex 0.000005 0.002586 0.150000
vertex 0.000000 0.002457 0.150000
vertex 0.000008 0.002318 0.150000
endloop
endfacet
facet normal 0.001782 0.000000 0.999998
outer loop
vertex 0.000008 0.002318 0.150000
vertex 0.000032 0.002167 0.150000
vertex 0.000273 0.001305 0.150000
endloop
endfacet
facet normal 0.000000 0.000000 1.000000
outer loop
vertex 0.000273 0.001305 0.150000
vertex 0.000353 0.001096 0.150000
vertex 0.000454 0.000901 0.150000
endloop
endfacet
facet normal 0.000000 0.000000 1.000000
outer loop
vertex 0.000273 0.001305 0.150000
vertex 0.000454 0.000901 0.150000
vertex 0.000746 0.000491 0.150000
endloop
endfacet
facet normal -0.000434 0.000000 1.000000
outer loop
vertex 0.000005 0.002586 0.150000
vertex 0.000008 0.002318 0.150000
vertex 0.000273 0.001305 0.150000
endloop
endfacet
facet normal 0.000416 0.000000 1.000000
outer loop
vertex 0.000393 0.003948 0.150000
vertex 0.000274 0.003712 0.150000
vertex 0.000005 0.002586 0.150000
endloop
endfacet
facet normal 0.000006 0.000000 1.000000
outer loop
vertex 0.004666 0.004407 0.150000
vertex 0.001272 0.004576 0.150000
vertex 0.000393 0.003948 0.150000
endloop
endfacet
facet normal 0.000000 0.000000 1.000000
outer loop
vertex 0.004649 0.002199 0.150000
vertex 0.004978 0.002764 0.150000
vertex 0.004666 0.004407 0.150000
endloop
endfacet
facet normal -0.001509 0.000000 0.999999
outer loop
vertex 0.004306 0.001655 0.150000
vertex 0.004365 0.001720 0.150000
vertex 0.004649 0.002199 0.150000
endloop
endfacet
facet normal 0.000000 0.000000 1.000000
outer loop
vertex 0.003486 0.000796 0.150000
vertex 0.003601 0.000907 0.150000
vertex 0.003930 0.001283 0.150000
endloop
endfacet
facet normal 0.000188 0.000000 1.000000
outer loop
vertex 0.003930 0.001283 0.150000
vertex 0.004306 0.001655 0.150000
vertex 0.004649 0.002199 0.150000
endloop
endfacet
facet normal 0.000000 0.000000 1.000000
outer loop
vertex 0.004649 0.002199 0.150000
vertex 0.004666 0.004407 0.150000
vertex 0.000393 0.003948 0.150000
endloop
endfacet
facet normal -0.000034 0.000000 1.000000
outer loop
vertex 0.000393 0.003948 0.150000
vertex 0.000005 0.002586 0.150000
vertex 0.000273 0.001305 0.150000
endloop
endfacet
facet normal 0.000022 0.000000 1.000000
outer loop
vertex 0.000393 0.003948 0.150000
vertex 0.000273 0.001305 0.150000
vertex 0.000746 0.000491 0.150000
endloop
endfacet
facet normal 0.000011 0.000000 1.000000
outer loop
vertex 0.003930 0.001283 0.150000
vertex 0.004649 0.002199 0.150000
vertex 0.000393 0.003948 0.150000
endloop
endfacet
facet normal 0.000000 0.000000 1.000000
outer loop
vertex 0.003368 0.000702 0.150000
vertex 0.003486 0.000796 0.150000
vertex 0.003930 0.001283 0.150000
endloop
endfacet
facet normal -0.000853 0.000000 1.000000
outer loop
vertex 0.003114 0.000556 0.150000
vertex 0.003246 0.000623 0.150000
vertex 0.003368 0.000702 0.150000
endloop
endfacet
facet normal 0.000190 0.000000 1.000000
outer loop
vertex 0.001159 0.000019 0.150000
vertex 0.002808 0.000442 0.150000
vertex 0.003114 0.000556 0.150000
endloop
endfacet
facet normal 0.000183 0.000000 1.000000
outer loop
vertex 0.000915 0.000006 0.150000
vertex 0.001013 0.000001 0.150000
vertex 0.001159 0.000019 0.150000
endloop
endfacet
facet normal 0.000501 0.000000 1.000000
outer loop
vertex 0.000825 0.000075 0.150000
vertex 0.000856 0.000031 0.150000
vertex 0.000915 0.000006 0.150000
endloop
endfacet
facet normal 0.000000 0.000000 1.000000
outer loop
vertex 0.000804 0.000295 0.150000
vertex 0.000813 0.000136 0.150000
vertex 0.000825 0.000075 0.150000
endloop
endfacet
facet normal -0.000358 0.000000 1.000000
outer loop
vertex 0.000393 0.003948 0.150000
vertex 0.000746 0.000491 0.150000
vertex 0.000786 0.000390 0.150000
endloop
endfacet
facet normal 0.000100 0.000000 1.000000
outer loop
vertex 0.000804 0.000295 0.150000
vertex 0.000825 0.000075 0.150000
vertex 0.000915 0.000006 0.150000
endloop
endfacet
facet normal 0.000915 0.000000 1.000000
outer loop
vertex 0.000393 0.003948 0.150000
vertex 0.000786 0.000390 0.150000
vertex 0.000804 0.000295 0.150000
endloop
endfacet
facet normal -0.000016 0.000000 1.000000
outer loop
vertex 0.003368 0.000702 0.150000
vertex 0.003930 0.001283 0.150000
vertex 0.000393 0.003948 0.150000
endloop
endfacet
facet normal -0.000024 0.000000 1.000000
outer loop
vertex 0.001159 0.000019 0.150000
vertex 0.003114 0.000556 0.150000
vertex 0.003368 0.000702 0.150000
endloop
endfacet
facet normal 0.000019 0.000000 1.000000
outer loop
vertex 0.000804 0.000295 0.150000
vertex 0.000915 0.000006 0.150000
vertex 0.001159 0.000019 0.150000
endloop
endfacet
facet normal 0.000000 0.000000 1.000000
outer loop
vertex 0.003368 0.000702 0.150000
vertex 0.000393 0.003948 0.150000
vertex 0.000804 0.000295 0.150000
endloop
endfacet
facet normal -0.000017 0.000000 1.000000
outer loop
vertex 0.000804 0.000295 0.150000
vertex 0.001159 0.000019 0.150000
vertex 0.003368 0.000702 0.150000
endloop
endfacet
facet normal 0.798461 0.602046 0.000000
outer loop
vertex 0.004554 0.004635 0.150000
vertex 0.004554 0.004635 0.000000
vertex 0.004477 0.004736 0.000000
endloop
endfacet
facet normal 0.798461 0.602046 0.000000
outer loop
vertex 0.004554 0.004635 0.150000
vertex 0.004477 0.004736 0.000000
vertex 0.004477 0.004736 0.150000
endloop
endfacet
facet normal -0.813939 -0.580950 0.000000
outer loop
vertex 0.000454 0.000901 0.000000
vertex 0.000746 0.000491 0.000000
vertex 0.000746 0.000491 0.150000
endloop
endfacet
facet normal -0.813939 -0.580950 0.000000
outer loop
vertex 0.000454 0.000901 0.000000
vertex 0.000746 0.000491 0.150000
vertex 0.000454 0.000901 0.150000
endloop
endfacet
facet normal 0.808010 -0.589169 0.000000
outer loop
vertex 0.004477 0.001874 0.000000
vertex 0.004477 0.001874 0.150000
vertex 0.004365 0.001720 0.150000
endloop
endfacet
facet normal 0.808012 -0.589166 0.000000
outer loop
vertex 0.004477 0.001874 0.000000
vertex 0.004365 0.001720 0.150000
vertex 0.004365 0.001720 0.000000
endloop
endfacet
facet normal -0.980057 -0.198717 0.000000
outer loop
vertex 0.000813 0.000136 0.150000
vertex 0.000813 0.000136 0.000000
vertex 0.000825 0.000075 0.000000
endloop
endfacet
facet normal -0.980057 -0.198717 0.000000
outer loop
vertex 0.000813 0.000136 0.150000
vertex 0.000825 0.000075 0.000000
vertex 0.000825 0.000075 0.150000
endloop
endfacet
facet normal -0.998163 -0.060578 0.000000
outer loop
vertex 0.000804 0.000295 0.150000
vertex 0.000804 0.000295 0.000000
vertex 0.000813 0.000136 0.000000
endloop
endfacet
facet normal -0.998163 -0.060578 0.000000
outer loop
vertex 0.000804 0.000295 0.150000
vertex 0.000813 0.000136 0.000000
vertex 0.000813 0.000136 0.150000
endloop
endfacet
facet normal -0.446368 0.894850 0.000000
outer loop
vertex 0.002494 0.005430 0.000000
vertex 0.002228 0.005298 0.000000
vertex 0.002228 0.005298 0.150000
endloop
endfacet
facet normal -0.446369 0.894849 0.000000
outer loop
vertex 0.002494 0.005430 0.000000
vertex 0.002228 0.005298 0.150000
vertex 0.002494 0.005430 0.150000
endloop
endfacet
facet normal 0.448793 0.893636 0.000000
outer loop
vertex 0.003852 0.005166 0.000000
vertex 0.003699 0.005243 0.000000
vertex 0.003699 0.005243 0.150000
endloop
endfacet
facet normal 0.448795 0.893635 0.000000
outer loop
vertex 0.003852 0.005166 0.000000
vertex 0.003699 0.005243 0.150000
vertex 0.003852 0.005166 0.150000
endloop
endfacet
facet normal 0.527607 0.849489 0.000000
outer loop
vertex 0.004269 0.004917 0.150000
vertex 0.004269 0.004917 0.000000
vertex 0.003999 0.005085 0.000000
endloop
endfacet
facet normal 0.483696 0.875236 0.000000
outer loop
vertex 0.003999 0.005085 0.000000
vertex 0.003852 0.005166 0.000000
vertex 0.003852 0.005166 0.150000
endloop
endfacet
facet normal 0.527606 0.849490 0.000000
outer loop
vertex 0.003999 0.005085 0.150000
vertex 0.004269 0.004917 0.150000
vertex 0.003999 0.005085 0.000000
endloop
endfacet
facet normal 0.483696 0.875236 0.000000
outer loop
vertex 0.003999 0.005085 0.000000
vertex 0.003852 0.005166 0.150000
vertex 0.003999 0.005085 0.150000
endloop
endfacet
facet normal -0.888755 -0.458383 0.000000
outer loop
vertex 0.000353 0.001096 0.150000
vertex 0.000353 0.001096 0.000000
vertex 0.000454 0.000901 0.000000
endloop
endfacet
facet normal -0.888755 -0.458383 0.000000
outer loop
vertex 0.000353 0.001096 0.150000
vertex 0.000454 0.000901 0.000000
vertex 0.000454 0.000901 0.150000
endloop
endfacet
facet normal 0.919886 0.392186 0.000000
outer loop
vertex 0.004666 0.004407 0.150000
vertex 0.004666 0.004407 0.000000
vertex 0.004616 0.004525 0.000000
endloop
endfacet
facet normal 0.919881 0.392197 0.000000
outer loop
vertex 0.004666 0.004407 0.150000
vertex 0.004616 0.004525 0.000000
vertex 0.004616 0.004525 0.150000
endloop
endfacet
facet normal 0.994714 -0.102687 0.000000
outer loop
vertex 0.004978 0.002764 0.150000
vertex 0.004978 0.002764 0.000000
vertex 0.004989 0.002867 0.000000
endloop
endfacet
facet normal 0.994713 -0.102694 0.000000
outer loop
vertex 0.004978 0.002764 0.150000
vertex 0.004989 0.002867 0.000000
vertex 0.004989 0.002867 0.150000
endloop
endfacet
facet normal -0.982937 -0.183944 0.000000
outer loop
vertex 0.000786 0.000390 0.150000
vertex 0.000786 0.000390 0.000000
vertex 0.000804 0.000295 0.000000
endloop
endfacet
facet normal -0.982937 -0.183944 0.000000
outer loop
vertex 0.000786 0.000390 0.150000
vertex 0.000804 0.000295 0.000000
vertex 0.000804 0.000295 0.150000
endloop
endfacet
facet normal 0.913077 -0.407787 0.000000
outer loop
vertex 0.004920 0.002598 0.150000
vertex 0.004920 0.002598 0.000000
vertex 0.004954 0.002676 0.000000
endloop
endfacet
facet normal 0.913077 -0.407787 0.000000
outer loop
vertex 0.004920 0.002598 0.150000
vertex 0.004954 0.002676 0.000000
vertex 0.004954 0.002676 0.150000
endloop
endfacet
facet normal 0.347766 -0.937582 0.000000
outer loop
vertex 0.003114 0.000556 0.000000
vertex 0.003114 0.000556 0.150000
vertex 0.002808 0.000442 0.150000
endloop
endfacet
facet normal 0.347766 -0.937582 0.000000
outer loop
vertex 0.003114 0.000556 0.000000
vertex 0.002808 0.000442 0.150000
vertex 0.002808 0.000442 0.000000
endloop
endfacet
facet normal 0.870162 0.492766 0.000000
outer loop
vertex 0.004616 0.004525 0.150000
vertex 0.004616 0.004525 0.000000
vertex 0.004554 0.004635 0.000000
endloop
endfacet
facet normal 0.870156 0.492775 0.000000
outer loop
vertex 0.004616 0.004525 0.150000
vertex 0.004554 0.004635 0.000000
vertex 0.004554 0.004635 0.150000
endloop
endfacet
facet normal 0.623960 -0.781457 0.000000
outer loop
vertex 0.003368 0.000702 0.150000
vertex 0.003368 0.000702 0.000000
vertex 0.003486 0.000796 0.000000
endloop
endfacet
facet normal 0.623957 -0.781459 0.000000
outer loop
vertex 0.003368 0.000702 0.150000
vertex 0.003486 0.000796 0.000000
vertex 0.003486 0.000796 0.150000
endloop
endfacet
facet normal -0.856194 0.516654 0.000000
outer loop
vertex 0.000393 0.003948 0.150000
vertex 0.000393 0.003948 0.000000
vertex 0.000326 0.003837 0.000000
endloop
endfacet
facet normal -0.856195 0.516653 0.000000
outer loop
vertex 0.000393 0.003948 0.150000
vertex 0.000326 0.003837 0.000000
vertex 0.000326 0.003837 0.150000
endloop
endfacet
facet normal -0.696892 0.717176 0.000000
outer loop
vertex 0.000562 0.004132 0.150000
vertex 0.000562 0.004132 0.000000
vertex 0.000472 0.004046 0.000000
endloop
endfacet
facet normal -0.696892 0.717176 0.000000
outer loop
vertex 0.000562 0.004132 0.150000
vertex 0.000472 0.004046 0.000000
vertex 0.000472 0.004046 0.150000
endloop
endfacet
facet normal -0.999381 0.035173 0.000000
outer loop
vertex 0.000005 0.002586 0.150000
vertex 0.000005 0.002586 0.000000
vertex 0.000000 0.002457 0.000000
endloop
endfacet
facet normal -0.999381 0.035173 0.000000
outer loop
vertex 0.000005 0.002586 0.150000
vertex 0.000000 0.002457 0.000000
vertex 0.000000 0.002457 0.150000
endloop
endfacet
facet normal -0.821191 -0.570653 0.000000
outer loop
vertex 0.000825 0.000075 0.150000
vertex 0.000825 0.000075 0.000000
vertex 0.000856 0.000031 0.000000
endloop
endfacet
facet normal -0.821191 -0.570653 0.000000
outer loop
vertex 0.000825 0.000075 0.150000
vertex 0.000856 0.000031 0.000000
vertex 0.000856 0.000031 0.150000
endloop
endfacet
facet normal 0.707368 0.706845 0.000000
outer loop
vertex 0.004477 0.004736 0.150000
vertex 0.004477 0.004736 0.000000
vertex 0.004383 0.004830 0.000000
endloop
endfacet
facet normal 0.707365 0.706848 0.000000
outer loop
vertex 0.004477 0.004736 0.150000
vertex 0.004383 0.004830 0.000000
vertex 0.004383 0.004830 0.150000
endloop
endfacet
facet normal -0.992219 0.124507 0.000000
outer loop
vertex 0.000020 0.002707 0.150000
vertex 0.000020 0.002707 0.000000
vertex 0.000005 0.002586 0.000000
endloop
endfacet
facet normal -0.992219 0.124507 0.000000
outer loop
vertex 0.000020 0.002707 0.150000
vertex 0.000005 0.002586 0.000000
vertex 0.000005 0.002586 0.150000
endloop
endfacet
facet normal -0.931238 -0.364412 0.000000
outer loop
vertex 0.000746 0.000491 0.150000
vertex 0.000746 0.000491 0.000000
vertex 0.000786 0.000390 0.000000
endloop
endfacet
facet normal -0.931238 -0.364411 0.000000
outer loop
vertex 0.000746 0.000491 0.150000
vertex 0.000786 0.000390 0.000000
vertex 0.000786 0.000390 0.150000
endloop
endfacet
facet normal -0.998185 -0.060224 0.000000
outer loop
vertex 0.000000 0.002457 0.150000
vertex 0.000000 0.002457 0.000000
vertex 0.000008 0.002318 0.000000
endloop
endfacet
facet normal -0.998185 -0.060224 0.000000
outer loop
vertex 0.000000 0.002457 0.150000
vertex 0.000008 0.002318 0.000000
vertex 0.000008 0.002318 0.150000
endloop
endfacet
facet normal 0.264381 0.964418 0.000000
outer loop
vertex 0.003384 0.005374 0.000000
vertex 0.003068 0.005460 0.000000
vertex 0.003068 0.005460 0.150000
endloop
endfacet
facet normal 0.264381 0.964418 0.000000
outer loop
vertex 0.003384 0.005374 0.000000
vertex 0.003068 0.005460 0.150000
vertex 0.003384 0.005374 0.150000
endloop
endfacet
endsolid Exported from Blender-3.6.8
