solid Exported from Blender-3.6.8
facet normal -0.137377 0.990519 0.000000
outer loop
vertex 0.003666 0.006690 0.000000
vertex 0.003347 0.006646 0.000000
vertex 0.003347 0.006646 0.150000
endloop
endfacet
facet normal -0.137377 0.990519 0.000000
outer loop
vertex 0.003666 0.006690 0.000000
vertex 0.003347 0.006646 0.150000
vertex 0.003666 0.006690 0.150000
endloop
endfacet
facet normal -0.000154 0.000000 1.000000
outer loop
vertex 0.008032 0.005509 0.150000
vertex 0.007679 0.005778 0.150000
vertex 0.006488 0.006415 0.150000
endloop
endfacet
facet normal -0.000108 0.000000 1.000000
outer loop
vertex 0.006488 0.006415 0.150000
vertex 0.006077 0.006568 0.150000
vertex 0.005505 0.006699 0.150000
endloop
endfacet
facet normal 0.000129 0.000000 1.000000
outer loop
vertex 0.005505 0.006699 0.150000
vertex 0.005134 0.006729 0.150000
vertex 0.004947 0.006729 0.150000
endloop
endfacet
facet normal -0.000043 0.000000 1.000000
outer loop
vertex 0.005505 0.006699 0.150000
vertex 0.004947 0.006729 0.150000
vertex 0.004761 0.006724 0.150000
endloop
endfacet
facet normal 0.000000 0.000000 1.000000
outer loop
vertex 0.008032 0.005509 0.150000
vertex 0.006488 0.006415 0.150000
vertex 0.005505 0.006699 0.150000
endloop
endfacet
facet normal 0.001391 0.000000 0.999999
outer loop
vertex 0.008257 0.005266 0.150000
vertex 0.008157 0.005386 0.150000
vertex 0.008032 0.005509 0.150000
endloop
endfacet
facet normal 0.000000 0.000000 1.000000
outer loop
vertex 0.008693 0.004513 0.150000
vertex 0.008338 0.005149 0.150000
vertex 0.008257 0.005266 0.150000
endloop
endfacet
facet normal 0.000000 0.000000 1.000000
outer loop
vertex 0.009832 0.002711 0.150000
vertex 0.009316 0.003633 0.150000
vertex 0.008693 0.004513 0.150000
endloop
endfacet
facet normal 0.004895 0.000000 0.999988
outer loop
vertex 0.009932 0.002458 0.150000
vertex 0.009886 0.002582 0.150000
vertex 0.009832 0.002711 0.150000
endloop
endfacet
facet normal 0.000000 0.000000 1.000000
outer loop
vertex 0.010003 0.002224 0.150000
vertex 0.009971 0.002338 0.150000
vertex 0.009932 0.002458 0.150000
endloop
endfacet
facet normal 0.001049 0.000000 0.999999
outer loop
vertex 0.010072 0.001747 0.150000
vertex 0.010048 0.002013 0.150000
vertex 0.010003 0.002224 0.150000
endloop
endfacet
facet normal 0.000000 0.000000 1.000000
outer loop
vertex 0.010050 0.001576 0.150000
vertex 0.010066 0.001666 0.150000
vertex 0.010072 0.001747 0.150000
endloop
endfacet
facet normal 0.000000 0.000000 1.000000
outer loop
vertex 0.009905 0.001176 0.150000
vertex 0.009991 0.001382 0.150000
vertex 0.010050 0.001576 0.150000
endloop
endfacet
facet normal 0.000000 0.000000 1.000000
outer loop
vertex 0.009801 0.000971 0.150000
vertex 0.009855 0.001073 0.150000
vertex 0.009905 0.001176 0.150000
endloop
endfacet
facet normal 0.001319 0.000000 0.999999
outer loop
vertex 0.009577 0.000617 0.150000
vertex 0.009689 0.000781 0.150000
vertex 0.009801 0.000971 0.150000
endloop
endfacet
facet normal 0.001801 0.000000 0.999998
outer loop
vertex 0.009460 0.000497 0.150000
vertex 0.009521 0.000551 0.150000
vertex 0.009577 0.000617 0.150000
endloop
endfacet
facet normal 0.000000 0.000000 1.000000
outer loop
vertex 0.009323 0.000417 0.150000
vertex 0.009394 0.000453 0.150000
vertex 0.009460 0.000497 0.150000
endloop
endfacet
facet normal 0.000213 0.000000 1.000000
outer loop
vertex 0.008759 0.000254 0.150000
vertex 0.009245 0.000387 0.150000
vertex 0.009323 0.000417 0.150000
endloop
endfacet
facet normal 0.000000 0.000000 1.000000
outer loop
vertex 0.008177 0.000058 0.150000
vertex 0.008278 0.000087 0.150000
vertex 0.008759 0.000254 0.150000
endloop
endfacet
facet normal 0.000000 0.000000 1.000000
outer loop
vertex 0.007911 0.000010 0.150000
vertex 0.008084 0.000036 0.150000
vertex 0.008177 0.000058 0.150000
endloop
endfacet
facet normal 0.000799 0.000000 1.000000
outer loop
vertex 0.007742 0.000001 0.150000
vertex 0.007828 0.000004 0.150000
vertex 0.007911 0.000010 0.150000
endloop
endfacet
facet normal 0.000000 0.000000 1.000000
outer loop
vertex 0.007083 0.000009 0.150000
vertex 0.007209 0.000004 0.150000
vertex 0.007742 0.000001 0.150000
endloop
endfacet
facet normal -0.000317 0.000000 1.000000
outer loop
vertex 0.006687 0.000051 0.150000
vertex 0.006822 0.000033 0.150000
vertex 0.007083 0.000009 0.150000
endloop
endfacet
facet normal 0.000000 0.000000 1.000000
outer loop
vertex 0.006407 0.000098 0.150000
vertex 0.006549 0.000072 0.150000
vertex 0.006687 0.000051 0.150000
endloop
endfacet
facet normal 0.002154 0.000000 0.999998
outer loop
vertex 0.006108 0.000160 0.150000
vertex 0.006260 0.000127 0.150000
vertex 0.006407 0.000098 0.150000
endloop
endfacet
facet normal 0.002356 0.000000 0.999997
outer loop
vertex 0.005789 0.000238 0.150000
vertex 0.005951 0.000197 0.150000
vertex 0.006108 0.000160 0.150000
endloop
endfacet
facet normal 0.000000 0.000000 1.000000
outer loop
vertex 0.005620 0.000282 0.150000
vertex 0.005789 0.000238 0.150000
vertex 0.006108 0.000160 0.150000
endloop
endfacet
facet normal 0.000000 0.000000 1.000000
outer loop
vertex 0.006108 0.000160 0.150000
vertex 0.006407 0.000098 0.150000
vertex 0.006687 0.000051 0.150000
endloop
endfacet
facet normal 0.000010 0.000000 1.000000
outer loop
vertex 0.006687 0.000051 0.150000
vertex 0.007083 0.000009 0.150000
vertex 0.007742 0.000001 0.150000
endloop
endfacet
facet normal -0.000159 0.000000 1.000000
outer loop
vertex 0.007742 0.000001 0.150000
vertex 0.007911 0.000010 0.150000
vertex 0.008177 0.000058 0.150000
endloop
endfacet
facet normal -0.000080 0.000000 1.000000
outer loop
vertex 0.008759 0.000254 0.150000
vertex 0.009323 0.000417 0.150000
vertex 0.009460 0.000497 0.150000
endloop
endfacet
facet normal 0.000000 0.000000 1.000000
outer loop
vertex 0.007742 0.000001 0.150000
vertex 0.008177 0.000058 0.150000
vertex 0.008759 0.000254 0.150000
endloop
endfacet
facet normal -0.000011 0.000000 1.000000
outer loop
vertex 0.006108 0.000160 0.150000
vertex 0.006687 0.000051 0.150000
vertex 0.007742 0.000001 0.150000
endloop
endfacet
facet normal -0.000030 0.000000 1.000000
outer loop
vertex 0.005620 0.000282 0.150000
vertex 0.006108 0.000160 0.150000
vertex 0.007742 0.000001 0.150000
endloop
endfacet
facet normal 0.000000 0.000000 1.000000
outer loop
vertex 0.007742 0.000001 0.150000
vertex 0.008759 0.000254 0.150000
vertex 0.009460 0.000497 0.150000
endloop
endfacet
facet normal -0.000502 0.000000 1.000000
outer loop
vertex 0.009460 0.000497 0.150000
vertex 0.009577 0.000617 0.150000
vertex 0.009801 0.000971 0.150000
endloop
endfacet
facet normal 0.000000 0.000000 1.000000
outer loop
vertex 0.009801 0.000971 0.150000
vertex 0.009905 0.001176 0.150000
vertex 0.010050 0.001576 0.150000
endloop
endfacet
facet normal -0.000660 0.000000 1.000000
outer loop
vertex 0.010050 0.001576 0.150000
vertex 0.010072 0.001747 0.150000
vertex 0.010003 0.002224 0.150000
endloop
endfacet
facet normal 0.000000 0.000000 1.000000
outer loop
vertex 0.010003 0.002224 0.150000
vertex 0.009932 0.002458 0.150000
vertex 0.009832 0.002711 0.150000
endloop
endfacet
facet normal -0.000115 0.000000 1.000000
outer loop
vertex 0.008693 0.004513 0.150000
vertex 0.008257 0.005266 0.150000
vertex 0.008032 0.005509 0.150000
endloop
endfacet
facet normal -0.000238 0.000000 1.000000
outer loop
vertex 0.010003 0.002224 0.150000
vertex 0.009832 0.002711 0.150000
vertex 0.008693 0.004513 0.150000
endloop
endfacet
facet normal 0.000000 0.000000 1.000000
outer loop
vertex 0.009801 0.000971 0.150000
vertex 0.010050 0.001576 0.150000
vertex 0.010003 0.002224 0.150000
endloop
endfacet
facet normal 0.000022 0.000000 1.000000
outer loop
vertex 0.007742 0.000001 0.150000
vertex 0.009460 0.000497 0.150000
vertex 0.009801 0.000971 0.150000
endloop
endfacet
facet normal 0.000000 0.000000 1.000000
outer loop
vertex 0.005451 0.000323 0.150000
vertex 0.005620 0.000282 0.150000
vertex 0.007742 0.000001 0.150000
endloop
endfacet
facet normal 0.000000 0.000000 1.000000
outer loop
vertex 0.005286 0.000352 0.150000
vertex 0.005451 0.000323 0.150000
vertex 0.007742 0.000001 0.150000
endloop
endfacet
facet normal -0.000024 0.000000 1.000000
outer loop
vertex 0.007742 0.000001 0.150000
vertex 0.009801 0.000971 0.150000
vertex 0.010003 0.002224 0.150000
endloop
endfacet
facet normal 0.000139 0.000000 1.000000
outer loop
vertex 0.010003 0.002224 0.150000
vertex 0.008693 0.004513 0.150000
vertex 0.008032 0.005509 0.150000
endloop
endfacet
facet normal 0.000007 0.000000 1.000000
outer loop
vertex 0.008032 0.005509 0.150000
vertex 0.005505 0.006699 0.150000
vertex 0.004761 0.006724 0.150000
endloop
endfacet
facet normal 0.000000 0.000000 1.000000
outer loop
vertex 0.004581 0.006721 0.150000
vertex 0.004408 0.006718 0.150000
vertex 0.004242 0.006715 0.150000
endloop
endfacet
facet normal 0.000026 0.000000 1.000000
outer loop
vertex 0.008032 0.005509 0.150000
vertex 0.004761 0.006724 0.150000
vertex 0.004581 0.006721 0.150000
endloop
endfacet
facet normal 0.000010 0.000000 1.000000
outer loop
vertex 0.007742 0.000001 0.150000
vertex 0.010003 0.002224 0.150000
vertex 0.008032 0.005509 0.150000
endloop
endfacet
facet normal 0.000000 0.000000 1.000000
outer loop
vertex 0.005286 0.000352 0.150000
vertex 0.007742 0.000001 0.150000
vertex 0.008032 0.005509 0.150000
endloop
endfacet
facet normal 0.000027 0.000000 1.000000
outer loop
vertex 0.008032 0.005509 0.150000
vertex 0.004581 0.006721 0.150000
vertex 0.004242 0.006715 0.150000
endloop
endfacet
facet normal 0.000000 0.000000 1.000000
outer loop
vertex 0.004242 0.006715 0.150000
vertex 0.004084 0.006711 0.150000
vertex 0.003934 0.006706 0.150000
endloop
endfacet
facet normal -0.000620 0.000000 1.000000
outer loop
vertex 0.003934 0.006706 0.150000
vertex 0.003795 0.006699 0.150000
vertex 0.003666 0.006690 0.150000
endloop
endfacet
facet normal -0.000128 0.000000 1.000000
outer loop
vertex 0.003666 0.006690 0.150000
vertex 0.003347 0.006646 0.150000
vertex 0.003267 0.006624 0.150000
endloop
endfacet
facet normal -0.002838 0.000000 0.999996
outer loop
vertex 0.003267 0.006624 0.150000
vertex 0.003176 0.006591 0.150000
vertex 0.003057 0.006544 0.150000
endloop
endfacet
facet normal 0.000000 0.000000 1.000000
outer loop
vertex 0.003057 0.006544 0.150000
vertex 0.002915 0.006487 0.150000
vertex 0.002758 0.006422 0.150000
endloop
endfacet
facet normal 0.000000 0.000000 1.000000
outer loop
vertex 0.002758 0.006422 0.150000
vertex 0.002594 0.006352 0.150000
vertex 0.002428 0.006282 0.150000
endloop
endfacet
facet normal 0.027719 0.000000 0.999616
outer loop
vertex 0.002428 0.006282 0.150000
vertex 0.002268 0.006213 0.150000
vertex 0.002122 0.006150 0.150000
endloop
endfacet
facet normal 0.000000 0.000000 1.000000
outer loop
vertex 0.002122 0.006150 0.150000
vertex 0.001996 0.006095 0.150000
vertex 0.001897 0.006052 0.150000
endloop
endfacet
facet normal 0.000000 0.000000 1.000000
outer loop
vertex 0.001897 0.006052 0.150000
vertex 0.001832 0.006023 0.150000
vertex 0.001809 0.006013 0.150000
endloop
endfacet
facet normal 0.001028 0.000000 1.000000
outer loop
vertex 0.001809 0.006013 0.150000
vertex 0.000608 0.004127 0.150000
vertex 0.000406 0.003767 0.150000
endloop
endfacet
facet normal -0.000942 0.000000 1.000000
outer loop
vertex 0.000406 0.003767 0.150000
vertex 0.000231 0.003428 0.150000
vertex 0.000098 0.003124 0.150000
endloop
endfacet
facet normal -0.000318 0.000000 1.000000
outer loop
vertex 0.000098 0.003124 0.150000
vertex 0.000018 0.002870 0.150000
vertex 0.000003 0.002680 0.150000
endloop
endfacet
facet normal 0.001472 0.000000 0.999999
outer loop
vertex 0.000003 0.002680 0.150000
vertex 0.000034 0.002523 0.150000
vertex 0.000082 0.002357 0.150000
endloop
endfacet
facet normal 0.000000 0.000000 1.000000
outer loop
vertex 0.000082 0.002357 0.150000
vertex 0.000223 0.002014 0.150000
vertex 0.000413 0.001675 0.150000
endloop
endfacet
facet normal 0.000000 0.000000 1.000000
outer loop
vertex 0.000413 0.001675 0.150000
vertex 0.000637 0.001365 0.150000
vertex 0.000882 0.001107 0.150000
endloop
endfacet
facet normal 0.000000 0.000000 1.000000
outer loop
vertex 0.000882 0.001107 0.150000
vertex 0.001008 0.001006 0.150000
vertex 0.001134 0.000927 0.150000
endloop
endfacet
facet normal 0.000238 0.000000 1.000000
outer loop
vertex 0.001134 0.000927 0.150000
vertex 0.001396 0.000801 0.150000
vertex 0.001845 0.000645 0.150000
endloop
endfacet
facet normal 0.000000 0.000000 1.000000
outer loop
vertex 0.001845 0.000645 0.150000
vertex 0.002598 0.000493 0.150000
vertex 0.003062 0.000442 0.150000
endloop
endfacet
facet normal 0.000000 0.000000 1.000000
outer loop
vertex 0.003062 0.000442 0.150000
vertex 0.003578 0.000407 0.150000
vertex 0.004788 0.000391 0.150000
endloop
endfacet
facet normal 0.000016 0.000000 1.000000
outer loop
vertex 0.001845 0.000645 0.150000
vertex 0.003062 0.000442 0.150000
vertex 0.004788 0.000391 0.150000
endloop
endfacet
facet normal -0.000127 0.000000 1.000000
outer loop
vertex 0.000882 0.001107 0.150000
vertex 0.001134 0.000927 0.150000
vertex 0.001845 0.000645 0.150000
endloop
endfacet
facet normal 0.000000 0.000000 1.000000
outer loop
vertex 0.000082 0.002357 0.150000
vertex 0.000413 0.001675 0.150000
vertex 0.000882 0.001107 0.150000
endloop
endfacet
facet normal 0.000000 0.000000 1.000000
outer loop
vertex 0.000098 0.003124 0.150000
vertex 0.000003 0.002680 0.150000
vertex 0.000082 0.002357 0.150000
endloop
endfacet
facet normal -0.000206 0.000000 1.000000
outer loop
vertex 0.001809 0.006013 0.150000
vertex 0.000406 0.003767 0.150000
vertex 0.000098 0.003124 0.150000
endloop
endfacet
facet normal 0.000000 0.000000 1.000000
outer loop
vertex 0.002122 0.006150 0.150000
vertex 0.001897 0.006052 0.150000
vertex 0.001809 0.006013 0.150000
endloop
endfacet
facet normal 0.000000 0.000000 1.000000
outer loop
vertex 0.002758 0.006422 0.150000
vertex 0.002428 0.006282 0.150000
vertex 0.002122 0.006150 0.150000
endloop
endfacet
facet normal 0.000000 0.000000 1.000000
outer loop
vertex 0.003267 0.006624 0.150000
vertex 0.003057 0.006544 0.150000
vertex 0.002758 0.006422 0.150000
endloop
endfacet
facet normal 0.000000 0.000000 1.000000
outer loop
vertex 0.003934 0.006706 0.150000
vertex 0.003666 0.006690 0.150000
vertex 0.003267 0.006624 0.150000
endloop
endfacet
facet normal -0.000014 0.000000 1.000000
outer loop
vertex 0.008032 0.005509 0.150000
vertex 0.004242 0.006715 0.150000
vertex 0.003934 0.006706 0.150000
endloop
endfacet
facet normal 0.000000 0.000000 1.000000
outer loop
vertex 0.005122 0.000372 0.150000
vertex 0.005286 0.000352 0.150000
vertex 0.008032 0.005509 0.150000
endloop
endfacet
facet normal -0.000060 0.000000 1.000000
outer loop
vertex 0.001845 0.000645 0.150000
vertex 0.004788 0.000391 0.150000
vertex 0.004957 0.000385 0.150000
endloop
endfacet
facet normal -0.000132 0.000000 1.000000
outer loop
vertex 0.004957 0.000385 0.150000
vertex 0.005122 0.000372 0.150000
vertex 0.008032 0.005509 0.150000
endloop
endfacet
facet normal -0.000014 0.000000 1.000000
outer loop
vertex 0.008032 0.005509 0.150000
vertex 0.003934 0.006706 0.150000
vertex 0.003267 0.006624 0.150000
endloop
endfacet
facet normal -0.000730 0.000000 1.000000
outer loop
vertex 0.003267 0.006624 0.150000
vertex 0.002758 0.006422 0.150000
vertex 0.002122 0.006150 0.150000
endloop
endfacet
facet normal 0.000000 0.000000 1.000000
outer loop
vertex 0.002122 0.006150 0.150000
vertex 0.001809 0.006013 0.150000
vertex 0.000098 0.003124 0.150000
endloop
endfacet
facet normal -0.000046 0.000000 1.000000
outer loop
vertex 0.000098 0.003124 0.150000
vertex 0.000082 0.002357 0.150000
vertex 0.000882 0.001107 0.150000
endloop
endfacet
facet normal 0.000006 0.000000 1.000000
outer loop
vertex 0.000882 0.001107 0.150000
vertex 0.001845 0.000645 0.150000
vertex 0.004957 0.000385 0.150000
endloop
endfacet
facet normal 0.000000 0.000000 1.000000
outer loop
vertex 0.004957 0.000385 0.150000
vertex 0.008032 0.005509 0.150000
vertex 0.003267 0.006624 0.150000
endloop
endfacet
facet normal 0.000000 0.000000 1.000000
outer loop
vertex 0.003267 0.006624 0.150000
vertex 0.002122 0.006150 0.150000
vertex 0.000098 0.003124 0.150000
endloop
endfacet
facet normal -0.000002 0.000000 1.000000
outer loop
vertex 0.000098 0.003124 0.150000
vertex 0.000882 0.001107 0.150000
vertex 0.004957 0.000385 0.150000
endloop
endfacet
facet normal 0.000005 0.000000 1.000000
outer loop
vertex 0.003267 0.006624 0.150000
vertex 0.000098 0.003124 0.150000
vertex 0.004957 0.000385 0.150000
endloop
endfacet
facet normal -0.915787 0.401664 0.000000
outer loop
vertex 0.000231 0.003428 0.150000
vertex 0.000231 0.003428 0.000000
vertex 0.000098 0.003124 0.000000
endloop
endfacet
facet normal -0.915787 0.401664 0.000000
outer loop
vertex 0.000231 0.003428 0.150000
vertex 0.000098 0.003124 0.000000
vertex 0.000098 0.003124 0.150000
endloop
endfacet
facet normal -0.626781 -0.779196 0.000000
outer loop
vertex 0.000882 0.001107 0.150000
vertex 0.000882 0.001107 0.000000
vertex 0.001008 0.001006 0.000000
endloop
endfacet
facet normal -0.626781 -0.779195 0.000000
outer loop
vertex 0.000882 0.001107 0.150000
vertex 0.001008 0.001006 0.000000
vertex 0.001008 0.001006 0.150000
endloop
endfacet
facet normal -0.329503 -0.944155 0.000000
outer loop
vertex 0.001396 0.000801 0.000000
vertex 0.001845 0.000645 0.000000
vertex 0.001845 0.000645 0.150000
endloop
endfacet
facet normal -0.329503 -0.944155 0.000000
outer loop
vertex 0.001396 0.000801 0.000000
vertex 0.001845 0.000645 0.150000
vertex 0.001396 0.000801 0.150000
endloop
endfacet
facet normal 0.996068 0.088594 0.000000
outer loop
vertex 0.010072 0.001747 0.000000
vertex 0.010048 0.002013 0.000000
vertex 0.010048 0.002013 0.150000
endloop
endfacet
facet normal 0.996068 0.088594 0.000000
outer loop
vertex 0.010072 0.001747 0.000000
vertex 0.010048 0.002013 0.150000
vertex 0.010072 0.001747 0.150000
endloop
endfacet
facet normal 0.080343 0.996767 0.000000
outer loop
vertex 0.005505 0.006699 0.150000
vertex 0.005505 0.006699 0.000000
vertex 0.005134 0.006729 0.000000
endloop
endfacet
facet normal 0.080342 0.996767 0.000000
outer loop
vertex 0.005505 0.006699 0.150000
vertex 0.005134 0.006729 0.000000
vertex 0.005134 0.006729 0.150000
endloop
endfacet
facet normal 0.360151 -0.932894 0.000000
outer loop
vertex 0.009245 0.000387 0.000000
vertex 0.009323 0.000417 0.000000
vertex 0.009323 0.000417 0.150000
endloop
endfacet
facet normal 0.360151 -0.932894 0.000000
outer loop
vertex 0.009245 0.000387 0.000000
vertex 0.009323 0.000417 0.150000
vertex 0.009245 0.000387 0.150000
endloop
endfacet
facet normal 0.263270 -0.964722 0.000000
outer loop
vertex 0.008759 0.000254 0.000000
vertex 0.009245 0.000387 0.000000
vertex 0.009245 0.000387 0.150000
endloop
endfacet
facet normal 0.263270 -0.964722 0.000000
outer loop
vertex 0.008759 0.000254 0.000000
vertex 0.009245 0.000387 0.150000
vertex 0.008759 0.000254 0.150000
endloop
endfacet
facet normal 0.328564 -0.944482 0.000000
outer loop
vertex 0.008278 0.000087 0.000000
vertex 0.008759 0.000254 0.000000
vertex 0.008759 0.000254 0.150000
endloop
endfacet
facet normal 0.328563 -0.944482 0.000000
outer loop
vertex 0.008278 0.000087 0.000000
vertex 0.008759 0.000254 0.150000
vertex 0.008278 0.000087 0.150000
endloop
endfacet
facet normal 0.228444 -0.973557 0.000000
outer loop
vertex 0.008084 0.000036 0.150000
vertex 0.008084 0.000036 0.000000
vertex 0.008177 0.000058 0.000000
endloop
endfacet
facet normal 0.276275 -0.961079 0.000000
outer loop
vertex 0.008177 0.000058 0.000000
vertex 0.008278 0.000087 0.000000
vertex 0.008278 0.000087 0.150000
endloop
endfacet
facet normal 0.228444 -0.973557 0.000000
outer loop
vertex 0.008177 0.000058 0.150000
vertex 0.008084 0.000036 0.150000
vertex 0.008177 0.000058 0.000000
endloop
endfacet
facet normal 0.276279 -0.961078 0.000000
outer loop
vertex 0.008278 0.000087 0.150000
vertex 0.008177 0.000058 0.150000
vertex 0.008177 0.000058 0.000000
endloop
endfacet
facet normal 0.447965 -0.894051 0.000000
outer loop
vertex 0.009323 0.000417 0.150000
vertex 0.009323 0.000417 0.000000
vertex 0.009394 0.000453 0.000000
endloop
endfacet
facet normal 0.447958 -0.894055 0.000000
outer loop
vertex 0.009323 0.000417 0.150000
vertex 0.009394 0.000453 0.000000
vertex 0.009394 0.000453 0.150000
endloop
endfacet
facet normal 0.898574 -0.438823 0.000000
outer loop
vertex 0.009855 0.001073 0.000000
vertex 0.009905 0.001176 0.000000
vertex 0.009905 0.001176 0.150000
endloop
endfacet
facet normal 0.898579 -0.438812 0.000000
outer loop
vertex 0.009855 0.001073 0.000000
vertex 0.009905 0.001176 0.150000
vertex 0.009855 0.001073 0.150000
endloop
endfacet
facet normal 0.861192 -0.508279 0.000000
outer loop
vertex 0.009689 0.000781 0.150000
vertex 0.009689 0.000781 0.000000
vertex 0.009801 0.000971 0.000000
endloop
endfacet
facet normal 0.883567 -0.468304 0.000000
outer loop
vertex 0.009801 0.000971 0.000000
vertex 0.009855 0.001073 0.000000
vertex 0.009855 0.001073 0.150000
endloop
endfacet
facet normal 0.861186 -0.508290 0.000000
outer loop
vertex 0.009801 0.000971 0.150000
vertex 0.009689 0.000781 0.150000
vertex 0.009801 0.000971 0.000000
endloop
endfacet
facet normal 0.883562 -0.468315 0.000000
outer loop
vertex 0.009855 0.001073 0.150000
vertex 0.009801 0.000971 0.150000
vertex 0.009801 0.000971 0.000000
endloop
endfacet
facet normal 0.984154 -0.177314 0.000000
outer loop
vertex 0.010050 0.001576 0.150000
vertex 0.010050 0.001576 0.000000
vertex 0.010066 0.001666 0.000000
endloop
endfacet
facet normal 0.984160 -0.177281 0.000000
outer loop
vertex 0.010050 0.001576 0.150000
vertex 0.010066 0.001666 0.000000
vertex 0.010066 0.001666 0.150000
endloop
endfacet
facet normal 0.000000 0.000000 1.000000
outer loop
vertex 0.003267 0.006624 0.000000
vertex 0.003176 0.006591 0.000000
vertex 0.003057 0.006544 0.000000
endloop
endfacet
facet normal 0.000000 0.000000 1.000000
outer loop
vertex 0.003057 0.006544 0.000000
vertex 0.002915 0.006487 0.000000
vertex 0.002758 0.006422 0.000000
endloop
endfacet
facet normal 0.000000 0.000000 1.000000
outer loop
vertex 0.002758 0.006422 0.000000
vertex 0.002594 0.006352 0.000000
vertex 0.002428 0.006282 0.000000
endloop
endfacet
facet normal 0.000000 0.000000 1.000000
outer loop
vertex 0.002428 0.006282 0.000000
vertex 0.002268 0.006213 0.000000
vertex 0.002122 0.006150 0.000000
endloop
endfacet
facet normal 0.000000 0.000000 1.000000
outer loop
vertex 0.002122 0.006150 0.000000
vertex 0.001996 0.006095 0.000000
vertex 0.001897 0.006052 0.000000
endloop
endfacet
facet normal 0.000000 0.000000 1.000000
outer loop
vertex 0.001897 0.006052 0.000000
vertex 0.001832 0.006023 0.000000
vertex 0.001809 0.006013 0.000000
endloop
endfacet
facet normal -0.402569 0.915389 0.000000
outer loop
vertex 0.001809 0.006013 0.000000
vertex 0.001809 0.006013 0.150000
vertex 0.001832 0.006023 0.150000
endloop
endfacet
facet normal -0.401655 0.915791 -0.000000
outer loop
vertex 0.001809 0.006013 0.000000
vertex 0.001832 0.006023 0.150000
vertex 0.001897 0.006052 0.150000
endloop
endfacet
facet normal 0.000000 0.000000 1.000000
outer loop
vertex 0.002122 0.006150 0.000000
vertex 0.001897 0.006052 0.000000
vertex 0.001809 0.006013 0.000000
endloop
endfacet
facet normal 0.000000 0.000000 1.000000
outer loop
vertex 0.002758 0.006422 0.000000
vertex 0.002428 0.006282 0.000000
vertex 0.002122 0.006150 0.000000
endloop
endfacet
facet normal 0.000000 0.000000 1.000000
outer loop
vertex 0.003267 0.006624 0.000000
vertex 0.003057 0.006544 0.000000
vertex 0.002758 0.006422 0.000000
endloop
endfacet
facet normal -0.339071 0.940761 0.000000
outer loop
vertex 0.003176 0.006591 0.150000
vertex 0.003267 0.006624 0.150000
vertex 0.003267 0.006624 0.000000
endloop
endfacet
facet normal -0.363381 0.931641 -0.000017
outer loop
vertex 0.003057 0.006544 0.150000
vertex 0.003176 0.006591 0.150000
vertex 0.003267 0.006624 0.000000
endloop
endfacet
facet normal 0.000000 0.000000 1.000000
outer loop
vertex 0.003267 0.006624 0.000000
vertex 0.002758 0.006422 0.000000
vertex 0.002122 0.006150 0.000000
endloop
endfacet
facet normal -0.400306 0.916382 -0.000001
outer loop
vertex 0.002122 0.006150 0.000000
vertex 0.001809 0.006013 0.000000
vertex 0.001897 0.006052 0.150000
endloop
endfacet
facet normal -0.400485 0.916303 -0.000001
outer loop
vertex 0.002122 0.006150 0.000000
vertex 0.001897 0.006052 0.150000
vertex 0.001996 0.006095 0.150000
endloop
endfacet
facet normal -0.382546 0.923937 -0.000048
outer loop
vertex 0.003057 0.006544 0.150000
vertex 0.003267 0.006624 0.000000
vertex 0.002122 0.006150 0.000000
endloop
endfacet
facet normal -0.375909 0.926657 -0.000096
outer loop
vertex 0.002915 0.006487 0.150000
vertex 0.003057 0.006544 0.150000
vertex 0.002122 0.006150 0.000000
endloop
endfacet
facet normal -0.399060 0.916925 0.000000
outer loop
vertex 0.002122 0.006150 0.000000
vertex 0.001996 0.006095 0.150000
vertex 0.002122 0.006150 0.150000
endloop
endfacet
facet normal -0.397326 0.917677 0.000000
outer loop
vertex 0.002122 0.006150 0.000000
vertex 0.002122 0.006150 0.150000
vertex 0.002268 0.006213 0.150000
endloop
endfacet
facet normal -0.383538 0.923525 -0.000049
outer loop
vertex 0.002758 0.006422 0.150000
vertex 0.002915 0.006487 0.150000
vertex 0.002122 0.006150 0.000000
endloop
endfacet
facet normal -0.388678 0.921374 -0.000023
outer loop
vertex 0.002594 0.006352 0.150000
vertex 0.002758 0.006422 0.150000
vertex 0.002122 0.006150 0.000000
endloop
endfacet
facet normal -0.395151 0.918616 -0.000003
outer loop
vertex 0.002122 0.006150 0.000000
vertex 0.002268 0.006213 0.150000
vertex 0.002428 0.006282 0.150000
endloop
endfacet
facet normal -0.392373 0.919806 -0.000009
outer loop
vertex 0.002122 0.006150 0.000000
vertex 0.002428 0.006282 0.150000
vertex 0.002594 0.006352 0.150000
endloop
endfacet
facet normal -0.432153 -0.901800 0.000000
outer loop
vertex 0.001134 0.000927 0.000000
vertex 0.001396 0.000801 0.000000
vertex 0.001396 0.000801 0.150000
endloop
endfacet
facet normal -0.432153 -0.901800 0.000000
outer loop
vertex 0.001134 0.000927 0.000000
vertex 0.001396 0.000801 0.150000
vertex 0.001134 0.000927 0.150000
endloop
endfacet
facet normal -0.872807 -0.488066 0.000000
outer loop
vertex 0.000223 0.002014 0.150000
vertex 0.000223 0.002014 0.000000
vertex 0.000413 0.001675 0.000000
endloop
endfacet
facet normal -0.872807 -0.488066 0.000000
outer loop
vertex 0.000223 0.002014 0.150000
vertex 0.000413 0.001675 0.000000
vertex 0.000413 0.001675 0.150000
endloop
endfacet
facet normal 0.149598 -0.988747 0.000000
outer loop
vertex 0.008084 0.000036 0.000000
vertex 0.008084 0.000036 0.150000
vertex 0.007911 0.000010 0.150000
endloop
endfacet
facet normal 0.149595 -0.988747 0.000000
outer loop
vertex 0.008084 0.000036 0.000000
vertex 0.007911 0.000010 0.150000
vertex 0.007911 0.000010 0.000000
endloop
endfacet
facet normal 0.997639 -0.068670 0.000000
outer loop
vertex 0.010066 0.001666 0.150000
vertex 0.010066 0.001666 0.000000
vertex 0.010072 0.001747 0.000000
endloop
endfacet
facet normal 0.997641 -0.068651 0.000000
outer loop
vertex 0.010066 0.001666 0.150000
vertex 0.010072 0.001747 0.000000
vertex 0.010072 0.001747 0.150000
endloop
endfacet
facet normal 0.822951 0.568112 0.000000
outer loop
vertex 0.008338 0.005149 0.150000
vertex 0.008338 0.005149 0.000000
vertex 0.008257 0.005266 0.000000
endloop
endfacet
facet normal 0.822951 0.568112 0.000000
outer loop
vertex 0.008338 0.005149 0.150000
vertex 0.008257 0.005266 0.000000
vertex 0.008257 0.005266 0.150000
endloop
endfacet
facet normal 0.702355 0.711827 0.000000
outer loop
vertex 0.008157 0.005386 0.150000
vertex 0.008157 0.005386 0.000000
vertex 0.008032 0.005509 0.000000
endloop
endfacet
facet normal 0.702359 0.711823 0.000000
outer loop
vertex 0.008157 0.005386 0.150000
vertex 0.008032 0.005509 0.000000
vertex 0.008032 0.005509 0.150000
endloop
endfacet
facet normal 0.664118 -0.747628 0.000000
outer loop
vertex 0.009460 0.000497 0.150000
vertex 0.009460 0.000497 0.000000
vertex 0.009521 0.000551 0.000000
endloop
endfacet
facet normal 0.664108 -0.747636 0.000000
outer loop
vertex 0.009460 0.000497 0.150000
vertex 0.009521 0.000551 0.000000
vertex 0.009521 0.000551 0.150000
endloop
endfacet
facet normal 0.957411 -0.288728 0.000000
outer loop
vertex 0.009991 0.001382 0.150000
vertex 0.009991 0.001382 0.000000
vertex 0.010050 0.001576 0.000000
endloop
endfacet
facet normal 0.957411 -0.288728 0.000000
outer loop
vertex 0.009991 0.001382 0.150000
vertex 0.010050 0.001576 0.000000
vertex 0.010050 0.001576 0.150000
endloop
endfacet
facet normal 0.872939 0.487829 0.000000
outer loop
vertex 0.008693 0.004513 0.000000
vertex 0.008338 0.005149 0.000000
vertex 0.008338 0.005149 0.150000
endloop
endfacet
facet normal 0.872940 0.487827 0.000000
outer loop
vertex 0.008693 0.004513 0.000000
vertex 0.008338 0.005149 0.150000
vertex 0.008693 0.004513 0.150000
endloop
endfacet
facet normal -0.089672 -0.995971 0.000000
outer loop
vertex 0.006822 0.000033 0.150000
vertex 0.006822 0.000033 0.000000
vertex 0.007083 0.000009 0.000000
endloop
endfacet
facet normal -0.089672 -0.995971 0.000000
outer loop
vertex 0.006822 0.000033 0.150000
vertex 0.007083 0.000009 0.000000
vertex 0.007083 0.000009 0.150000
endloop
endfacet
facet normal 0.348782 0.937204 0.000000
outer loop
vertex 0.006488 0.006415 0.150000
vertex 0.006488 0.006415 0.000000
vertex 0.006077 0.006568 0.000000
endloop
endfacet
facet normal 0.348781 0.937204 0.000000
outer loop
vertex 0.006488 0.006415 0.150000
vertex 0.006077 0.006568 0.000000
vertex 0.006077 0.006568 0.150000
endloop
endfacet
facet normal -0.197008 -0.980402 0.000000
outer loop
vertex 0.001845 0.000645 0.000000
vertex 0.002598 0.000493 0.000000
vertex 0.002598 0.000493 0.150000
endloop
endfacet
facet normal -0.197008 -0.980402 0.000000
outer loop
vertex 0.001845 0.000645 0.000000
vertex 0.002598 0.000493 0.150000
vertex 0.001845 0.000645 0.150000
endloop
endfacet
facet normal -0.953657 0.300897 0.000000
outer loop
vertex 0.000098 0.003124 0.150000
vertex 0.000098 0.003124 0.000000
vertex 0.000018 0.002870 0.000000
endloop
endfacet
facet normal -0.953657 0.300897 0.000000
outer loop
vertex 0.000098 0.003124 0.150000
vertex 0.000018 0.002870 0.000000
vertex 0.000018 0.002870 0.150000
endloop
endfacet
facet normal -0.924905 -0.380197 0.000000
outer loop
vertex 0.000082 0.002357 0.000000
vertex 0.000223 0.002014 0.000000
vertex 0.000223 0.002014 0.150000
endloop
endfacet
facet normal -0.924905 -0.380197 0.000000
outer loop
vertex 0.000082 0.002357 0.000000
vertex 0.000223 0.002014 0.150000
vertex 0.000082 0.002357 0.150000
endloop
endfacet
facet normal -0.067933 0.997690 0.000000
outer loop
vertex 0.003795 0.006699 0.000000
vertex 0.003666 0.006690 0.000000
vertex 0.003666 0.006690 0.150000
endloop
endfacet
facet normal -0.067933 0.997690 0.000000
outer loop
vertex 0.003795 0.006699 0.000000
vertex 0.003666 0.006690 0.150000
vertex 0.003795 0.006699 0.150000
endloop
endfacet
facet normal -0.047724 0.998861 0.000000
outer loop
vertex 0.003934 0.006706 0.000000
vertex 0.003795 0.006699 0.000000
vertex 0.003795 0.006699 0.150000
endloop
endfacet
facet normal -0.047724 0.998861 0.000000
outer loop
vertex 0.003934 0.006706 0.000000
vertex 0.003795 0.006699 0.150000
vertex 0.003934 0.006706 0.150000
endloop
endfacet
facet normal -0.033722 0.999431 0.000000
outer loop
vertex 0.004084 0.006711 0.000000
vertex 0.003934 0.006706 0.000000
vertex 0.003934 0.006706 0.150000
endloop
endfacet
facet normal -0.033722 0.999431 0.000000
outer loop
vertex 0.004084 0.006711 0.000000
vertex 0.003934 0.006706 0.150000
vertex 0.004084 0.006711 0.150000
endloop
endfacet
facet normal -0.024616 0.999697 0.000000
outer loop
vertex 0.004242 0.006715 0.000000
vertex 0.004084 0.006711 0.000000
vertex 0.004084 0.006711 0.150000
endloop
endfacet
facet normal -0.024616 0.999697 0.000000
outer loop
vertex 0.004242 0.006715 0.000000
vertex 0.004084 0.006711 0.150000
vertex 0.004242 0.006715 0.150000
endloop
endfacet
facet normal -0.019525 0.999809 0.000000
outer loop
vertex 0.004408 0.006718 0.000000
vertex 0.004242 0.006715 0.000000
vertex 0.004242 0.006715 0.150000
endloop
endfacet
facet normal -0.019525 0.999809 0.000000
outer loop
vertex 0.004408 0.006718 0.000000
vertex 0.004242 0.006715 0.150000
vertex 0.004408 0.006718 0.150000
endloop
endfacet
facet normal -0.017817 0.999841 0.000000
outer loop
vertex 0.004581 0.006721 0.000000
vertex 0.004408 0.006718 0.000000
vertex 0.004408 0.006718 0.150000
endloop
endfacet
facet normal -0.017817 0.999841 0.000000
outer loop
vertex 0.004581 0.006721 0.000000
vertex 0.004408 0.006718 0.150000
vertex 0.004581 0.006721 0.150000
endloop
endfacet
facet normal -0.019071 0.999818 0.000000
outer loop
vertex 0.004761 0.006724 0.000000
vertex 0.004581 0.006721 0.000000
vertex 0.004581 0.006721 0.150000
endloop
endfacet
facet normal -0.019071 0.999818 0.000000
outer loop
vertex 0.004761 0.006724 0.000000
vertex 0.004581 0.006721 0.150000
vertex 0.004761 0.006724 0.150000
endloop
endfacet
facet normal -0.000916 1.000000 0.000000
outer loop
vertex 0.005134 0.006729 0.150000
vertex 0.005134 0.006729 0.000000
vertex 0.004947 0.006729 0.000000
endloop
endfacet
facet normal -0.022973 0.999736 0.000000
outer loop
vertex 0.004947 0.006729 0.000000
vertex 0.004761 0.006724 0.000000
vertex 0.004761 0.006724 0.150000
endloop
endfacet
facet normal -0.000916 1.000000 0.000000
outer loop
vertex 0.004947 0.006729 0.150000
vertex 0.005134 0.006729 0.150000
vertex 0.004947 0.006729 0.000000
endloop
endfacet
facet normal -0.022973 0.999736 0.000000
outer loop
vertex 0.004761 0.006724 0.150000
vertex 0.004947 0.006729 0.150000
vertex 0.004947 0.006729 0.000000
endloop
endfacet
facet normal 0.000000 0.000000 1.000000
outer loop
vertex 0.007083 0.000009 0.000000
vertex 0.007209 0.000004 0.000000
vertex 0.007742 0.000001 0.000000
endloop
endfacet
facet normal 0.000000 0.000000 1.000000
outer loop
vertex 0.007742 0.000001 0.000000
vertex 0.007828 0.000004 0.000000
vertex 0.007911 0.000010 0.000000
endloop
endfacet
facet normal 0.073284 -0.997311 0.000000
outer loop
vertex 0.007911 0.000010 0.000000
vertex 0.007911 0.000010 0.150000
vertex 0.007828 0.000004 0.150000
endloop
endfacet
facet normal 0.033858 -0.999427 -0.000022
outer loop
vertex 0.007911 0.000010 0.000000
vertex 0.007828 0.000004 0.150000
vertex 0.007742 0.000001 0.150000
endloop
endfacet
facet normal 0.000000 0.000000 1.000000
outer loop
vertex 0.007083 0.000009 0.000000
vertex 0.007742 0.000001 0.000000
vertex 0.007911 0.000010 0.000000
endloop
endfacet
facet normal -0.045388 -0.998969 0.000000
outer loop
vertex 0.007209 0.000004 0.150000
vertex 0.007083 0.000009 0.150000
vertex 0.007083 0.000009 0.000000
endloop
endfacet
facet normal -0.005806 -0.999983 -0.000067
outer loop
vertex 0.007911 0.000010 0.000000
vertex 0.007742 0.000001 0.150000
vertex 0.007209 0.000004 0.150000
endloop
endfacet
facet normal 0.000276 -1.000000 -0.000039
outer loop
vertex 0.007911 0.000010 0.000000
vertex 0.007209 0.000004 0.150000
vertex 0.007083 0.000009 0.000000
endloop
endfacet
facet normal 0.764019 -0.645194 0.000000
outer loop
vertex 0.009521 0.000551 0.150000
vertex 0.009521 0.000551 0.000000
vertex 0.009577 0.000617 0.000000
endloop
endfacet
facet normal 0.764027 -0.645184 0.000000
outer loop
vertex 0.009521 0.000551 0.150000
vertex 0.009577 0.000617 0.000000
vertex 0.009577 0.000617 0.150000
endloop
endfacet
facet normal 0.000000 0.000000 1.000000
outer loop
vertex 0.005620 0.000282 0.000000
vertex 0.005789 0.000238 0.000000
vertex 0.005951 0.000197 0.000000
endloop
endfacet
facet normal 0.000000 0.000000 1.000000
outer loop
vertex 0.005951 0.000197 0.000000
vertex 0.006108 0.000160 0.000000
vertex 0.006260 0.000127 0.000000
endloop
endfacet
facet normal 0.000000 0.000000 1.000000
outer loop
vertex 0.006260 0.000127 0.000000
vertex 0.006407 0.000098 0.000000
vertex 0.006549 0.000072 0.000000
endloop
endfacet
facet normal 0.000000 0.000000 1.000000
outer loop
vertex 0.006549 0.000072 0.000000
vertex 0.006687 0.000051 0.000000
vertex 0.006822 0.000033 0.000000
endloop
endfacet
facet normal -0.129803 -0.991540 0.000000
outer loop
vertex 0.006822 0.000033 0.000000
vertex 0.006822 0.000033 0.150000
vertex 0.006687 0.000051 0.150000
endloop
endfacet
facet normal -0.153924 -0.988083 -0.000022
outer loop
vertex 0.006822 0.000033 0.000000
vertex 0.006687 0.000051 0.150000
vertex 0.006549 0.000072 0.150000
endloop
endfacet
facet normal 0.000000 0.000000 1.000000
outer loop
vertex 0.006260 0.000127 0.000000
vertex 0.006549 0.000072 0.000000
vertex 0.006822 0.000033 0.000000
endloop
endfacet
facet normal 0.000000 0.000000 1.000000
outer loop
vertex 0.005620 0.000282 0.000000
vertex 0.005951 0.000197 0.000000
vertex 0.006260 0.000127 0.000000
endloop
endfacet
facet normal -0.174786 -0.984606 0.000000
outer loop
vertex 0.005286 0.000352 0.150000
vertex 0.005286 0.000352 0.000000
vertex 0.005451 0.000323 0.000000
endloop
endfacet
facet normal 0.000000 0.000000 1.000000
outer loop
vertex 0.005620 0.000282 0.000000
vertex 0.006260 0.000127 0.000000
vertex 0.006822 0.000033 0.000000
endloop
endfacet
facet normal -0.232007 -0.972714 -0.000065
outer loop
vertex 0.005286 0.000352 0.150000
vertex 0.005451 0.000323 0.000000
vertex 0.005620 0.000282 0.000000
endloop
endfacet
facet normal -0.174786 -0.984606 0.000068
outer loop
vertex 0.005451 0.000323 0.150000
vertex 0.005286 0.000352 0.150000
vertex 0.005620 0.000282 0.000000
endloop
endfacet
facet normal -0.203096 -0.979159 -0.000114
outer loop
vertex 0.005620 0.000282 0.000000
vertex 0.006822 0.000033 0.000000
vertex 0.006549 0.000072 0.150000
endloop
endfacet
facet normal -0.175907 -0.984407 -0.000290
outer loop
vertex 0.005620 0.000282 0.000000
vertex 0.006549 0.000072 0.150000
vertex 0.006407 0.000098 0.150000
endloop
endfacet
facet normal -0.232008 -0.972714 0.000000
outer loop
vertex 0.005620 0.000282 0.150000
vertex 0.005451 0.000323 0.150000
vertex 0.005620 0.000282 0.000000
endloop
endfacet
facet normal -0.255316 -0.966858 0.000000
outer loop
vertex 0.005789 0.000238 0.150000
vertex 0.005620 0.000282 0.150000
vertex 0.005620 0.000282 0.000000
endloop
endfacet
facet normal -0.195760 -0.980652 -0.000181
outer loop
vertex 0.005620 0.000282 0.000000
vertex 0.006407 0.000098 0.150000
vertex 0.006260 0.000127 0.150000
endloop
endfacet
facet normal -0.213533 -0.976936 -0.000101
outer loop
vertex 0.005620 0.000282 0.000000
vertex 0.006260 0.000127 0.150000
vertex 0.006108 0.000160 0.150000
endloop
endfacet
facet normal -0.243200 -0.969976 -0.000015
outer loop
vertex 0.005951 0.000197 0.150000
vertex 0.005789 0.000238 0.150000
vertex 0.005620 0.000282 0.000000
endloop
endfacet
facet normal -0.229313 -0.973353 -0.000047
outer loop
vertex 0.006108 0.000160 0.150000
vertex 0.005951 0.000197 0.150000
vertex 0.005620 0.000282 0.000000
endloop
endfacet
facet normal 0.553655 -0.832746 0.000000
outer loop
vertex 0.009394 0.000453 0.150000
vertex 0.009394 0.000453 0.000000
vertex 0.009460 0.000497 0.000000
endloop
endfacet
facet normal 0.553655 -0.832746 0.000000
outer loop
vertex 0.009394 0.000453 0.150000
vertex 0.009460 0.000497 0.000000
vertex 0.009460 0.000497 0.150000
endloop
endfacet
facet normal 0.922151 0.386829 0.000000
outer loop
vertex 0.009886 0.002582 0.000000
vertex 0.009832 0.002711 0.000000
vertex 0.009832 0.002711 0.150000
endloop
endfacet
facet normal 0.922155 0.386820 0.000000
outer loop
vertex 0.009886 0.002582 0.000000
vertex 0.009832 0.002711 0.150000
vertex 0.009886 0.002582 0.150000
endloop
endfacet
facet normal 0.936928 0.349522 0.000000
outer loop
vertex 0.009932 0.002458 0.000000
vertex 0.009886 0.002582 0.000000
vertex 0.009886 0.002582 0.150000
endloop
endfacet
facet normal 0.936924 0.349533 0.000000
outer loop
vertex 0.009932 0.002458 0.000000
vertex 0.009886 0.002582 0.150000
vertex 0.009932 0.002458 0.150000
endloop
endfacet
facet normal 0.962571 0.271030 0.000000
outer loop
vertex 0.010003 0.002224 0.150000
vertex 0.010003 0.002224 0.000000
vertex 0.009971 0.002338 0.000000
endloop
endfacet
facet normal 0.950406 0.311013 0.000000
outer loop
vertex 0.009971 0.002338 0.000000
vertex 0.009932 0.002458 0.000000
vertex 0.009932 0.002458 0.150000
endloop
endfacet
facet normal 0.962571 0.271030 0.000000
outer loop
vertex 0.009971 0.002338 0.150000
vertex 0.010003 0.002224 0.150000
vertex 0.009971 0.002338 0.000000
endloop
endfacet
facet normal 0.950406 0.311013 0.000000
outer loop
vertex 0.009971 0.002338 0.000000
vertex 0.009932 0.002458 0.150000
vertex 0.009971 0.002338 0.150000
endloop
endfacet
facet normal 0.000000 0.000000 -1.000000
outer loop
vertex 0.007742 0.000001 0.000000
vertex 0.007209 0.000004 0.000000
vertex 0.007083 0.000009 0.000000
endloop
endfacet
facet normal 0.000000 0.000000 -1.000000
outer loop
vertex 0.007083 0.000009 0.000000
vertex 0.006822 0.000033 0.000000
vertex 0.006687 0.000051 0.000000
endloop
endfacet
facet normal 0.000000 0.000000 -1.000000
outer loop
vertex 0.006687 0.000051 0.000000
vertex 0.006549 0.000072 0.000000
vertex 0.006407 0.000098 0.000000
endloop
endfacet
facet normal 0.000000 0.000000 -1.000000
outer loop
vertex 0.006407 0.000098 0.000000
vertex 0.006260 0.000127 0.000000
vertex 0.006108 0.000160 0.000000
endloop
endfacet
facet normal 0.000000 0.000000 -1.000000
outer loop
vertex 0.006108 0.000160 0.000000
vertex 0.005951 0.000197 0.000000
vertex 0.005789 0.000238 0.000000
endloop
endfacet
facet normal 0.000000 0.000000 -1.000000
outer loop
vertex 0.006108 0.000160 0.000000
vertex 0.005789 0.000238 0.000000
vertex 0.005620 0.000282 0.000000
endloop
endfacet
facet normal 0.000000 0.000000 -1.000000
outer loop
vertex 0.006687 0.000051 0.000000
vertex 0.006407 0.000098 0.000000
vertex 0.006108 0.000160 0.000000
endloop
endfacet
facet normal 0.000000 0.000000 -1.000000
outer loop
vertex 0.007742 0.000001 0.000000
vertex 0.007083 0.000009 0.000000
vertex 0.006687 0.000051 0.000000
endloop
endfacet
facet normal 0.000000 0.000000 -1.000000
outer loop
vertex 0.007911 0.000010 0.000000
vertex 0.007828 0.000004 0.000000
vertex 0.007742 0.000001 0.000000
endloop
endfacet
facet normal 0.000000 0.000000 -1.000000
outer loop
vertex 0.008177 0.000058 0.000000
vertex 0.008084 0.000036 0.000000
vertex 0.007911 0.000010 0.000000
endloop
endfacet
facet normal 0.000000 0.000000 -1.000000
outer loop
vertex 0.008759 0.000254 0.000000
vertex 0.008278 0.000087 0.000000
vertex 0.008177 0.000058 0.000000
endloop
endfacet
facet normal 0.000000 0.000000 -1.000000
outer loop
vertex 0.009323 0.000417 0.000000
vertex 0.009245 0.000387 0.000000
vertex 0.008759 0.000254 0.000000
endloop
endfacet
facet normal 0.000000 0.000000 -1.000000
outer loop
vertex 0.009460 0.000497 0.000000
vertex 0.009394 0.000453 0.000000
vertex 0.009323 0.000417 0.000000
endloop
endfacet
facet normal 0.000000 0.000000 -1.000000
outer loop
vertex 0.009577 0.000617 0.000000
vertex 0.009521 0.000551 0.000000
vertex 0.009460 0.000497 0.000000
endloop
endfacet
facet normal 0.000000 0.000000 -1.000000
outer loop
vertex 0.009801 0.000971 0.000000
vertex 0.009689 0.000781 0.000000
vertex 0.009577 0.000617 0.000000
endloop
endfacet
facet normal 0.000000 0.000000 -1.000000
outer loop
vertex 0.009905 0.001176 0.000000
vertex 0.009855 0.001073 0.000000
vertex 0.009801 0.000971 0.000000
endloop
endfacet
facet normal 0.000000 0.000000 -1.000000
outer loop
vertex 0.010050 0.001576 0.000000
vertex 0.009991 0.001382 0.000000
vertex 0.009905 0.001176 0.000000
endloop
endfacet
facet normal 0.000000 0.000000 -1.000000
outer loop
vertex 0.010072 0.001747 0.000000
vertex 0.010066 0.001666 0.000000
vertex 0.010050 0.001576 0.000000
endloop
endfacet
facet normal 0.000000 0.000000 -1.000000
outer loop
vertex 0.010003 0.002224 0.000000
vertex 0.010048 0.002013 0.000000
vertex 0.010072 0.001747 0.000000
endloop
endfacet
facet normal 0.000000 0.000000 -1.000000
outer loop
vertex 0.009932 0.002458 0.000000
vertex 0.009971 0.002338 0.000000
vertex 0.010003 0.002224 0.000000
endloop
endfacet
facet normal 0.000000 0.000000 -1.000000
outer loop
vertex 0.009832 0.002711 0.000000
vertex 0.009886 0.002582 0.000000
vertex 0.009932 0.002458 0.000000
endloop
endfacet
facet normal 0.000000 0.000000 -1.000000
outer loop
vertex 0.008693 0.004513 0.000000
vertex 0.009316 0.003633 0.000000
vertex 0.009832 0.002711 0.000000
endloop
endfacet
facet normal 0.000000 0.000000 -1.000000
outer loop
vertex 0.008257 0.005266 0.000000
vertex 0.008338 0.005149 0.000000
vertex 0.008693 0.004513 0.000000
endloop
endfacet
facet normal 0.000000 0.000000 -1.000000
outer loop
vertex 0.008032 0.005509 0.000000
vertex 0.008157 0.005386 0.000000
vertex 0.008257 0.005266 0.000000
endloop
endfacet
facet normal 0.000000 0.000000 -1.000000
outer loop
vertex 0.006488 0.006415 0.000000
vertex 0.007679 0.005778 0.000000
vertex 0.008032 0.005509 0.000000
endloop
endfacet
facet normal 0.000000 0.000000 -1.000000
outer loop
vertex 0.005505 0.006699 0.000000
vertex 0.006077 0.006568 0.000000
vertex 0.006488 0.006415 0.000000
endloop
endfacet
facet normal 0.000000 0.000000 -1.000000
outer loop
vertex 0.004947 0.006729 0.000000
vertex 0.005134 0.006729 0.000000
vertex 0.005505 0.006699 0.000000
endloop
endfacet
facet normal 0.000000 0.000000 -1.000000
outer loop
vertex 0.004761 0.006724 0.000000
vertex 0.004947 0.006729 0.000000
vertex 0.005505 0.006699 0.000000
endloop
endfacet
facet normal 0.000000 0.000000 -1.000000
outer loop
vertex 0.005505 0.006699 0.000000
vertex 0.006488 0.006415 0.000000
vertex 0.008032 0.005509 0.000000
endloop
endfacet
facet normal 0.000000 0.000000 -1.000000
outer loop
vertex 0.008032 0.005509 0.000000
vertex 0.008257 0.005266 0.000000
vertex 0.008693 0.004513 0.000000
endloop
endfacet
facet normal 0.000000 0.000000 -1.000000
outer loop
vertex 0.008693 0.004513 0.000000
vertex 0.009832 0.002711 0.000000
vertex 0.009932 0.002458 0.000000
endloop
endfacet
facet normal 0.000000 0.000000 -1.000000
outer loop
vertex 0.009932 0.002458 0.000000
vertex 0.010003 0.002224 0.000000
vertex 0.010072 0.001747 0.000000
endloop
endfacet
facet normal 0.000000 0.000000 -1.000000
outer loop
vertex 0.010072 0.001747 0.000000
vertex 0.010050 0.001576 0.000000
vertex 0.009905 0.001176 0.000000
endloop
endfacet
facet normal 0.000000 0.000000 -1.000000
outer loop
vertex 0.009905 0.001176 0.000000
vertex 0.009801 0.000971 0.000000
vertex 0.009577 0.000617 0.000000
endloop
endfacet
facet normal 0.000000 0.000000 -1.000000
outer loop
vertex 0.009577 0.000617 0.000000
vertex 0.009460 0.000497 0.000000
vertex 0.009323 0.000417 0.000000
endloop
endfacet
facet normal 0.000000 0.000000 -1.000000
outer loop
vertex 0.008759 0.000254 0.000000
vertex 0.008177 0.000058 0.000000
vertex 0.007911 0.000010 0.000000
endloop
endfacet
facet normal 0.000000 0.000000 -1.000000
outer loop
vertex 0.009577 0.000617 0.000000
vertex 0.009323 0.000417 0.000000
vertex 0.008759 0.000254 0.000000
endloop
endfacet
facet normal 0.000000 0.000000 -1.000000
outer loop
vertex 0.010072 0.001747 0.000000
vertex 0.009905 0.001176 0.000000
vertex 0.009577 0.000617 0.000000
endloop
endfacet
facet normal 0.000000 0.000000 -1.000000
outer loop
vertex 0.008693 0.004513 0.000000
vertex 0.009932 0.002458 0.000000
vertex 0.010072 0.001747 0.000000
endloop
endfacet
facet normal 0.000000 0.000000 -1.000000
outer loop
vertex 0.005505 0.006699 0.000000
vertex 0.008032 0.005509 0.000000
vertex 0.008693 0.004513 0.000000
endloop
endfacet
facet normal 0.000000 0.000000 -1.000000
outer loop
vertex 0.004581 0.006721 0.000000
vertex 0.004761 0.006724 0.000000
vertex 0.005505 0.006699 0.000000
endloop
endfacet
facet normal 0.000000 0.000000 -1.000000
outer loop
vertex 0.004242 0.006715 0.000000
vertex 0.004408 0.006718 0.000000
vertex 0.004581 0.006721 0.000000
endloop
endfacet
facet normal 0.000000 0.000000 -1.000000
outer loop
vertex 0.003934 0.006706 0.000000
vertex 0.004084 0.006711 0.000000
vertex 0.004242 0.006715 0.000000
endloop
endfacet
facet normal 0.000000 0.000000 -1.000000
outer loop
vertex 0.003666 0.006690 0.000000
vertex 0.003795 0.006699 0.000000
vertex 0.003934 0.006706 0.000000
endloop
endfacet
facet normal 0.000000 0.000000 -1.000000
outer loop
vertex 0.003267 0.006624 0.000000
vertex 0.003347 0.006646 0.000000
vertex 0.003666 0.006690 0.000000
endloop
endfacet
facet normal 0.000000 0.000000 -1.000000
outer loop
vertex 0.003057 0.006544 0.000000
vertex 0.003176 0.006591 0.000000
vertex 0.003267 0.006624 0.000000
endloop
endfacet
facet normal 0.000000 0.000000 -1.000000
outer loop
vertex 0.002758 0.006422 0.000000
vertex 0.002915 0.006487 0.000000
vertex 0.003057 0.006544 0.000000
endloop
endfacet
facet normal 0.000000 0.000000 -1.000000
outer loop
vertex 0.002428 0.006282 0.000000
vertex 0.002594 0.006352 0.000000
vertex 0.002758 0.006422 0.000000
endloop
endfacet
facet normal 0.000000 0.000000 -1.000000
outer loop
vertex 0.002122 0.006150 0.000000
vertex 0.002268 0.006213 0.000000
vertex 0.002428 0.006282 0.000000
endloop
endfacet
facet normal 0.000000 0.000000 -1.000000
outer loop
vertex 0.001897 0.006052 0.000000
vertex 0.001996 0.006095 0.000000
vertex 0.002122 0.006150 0.000000
endloop
endfacet
facet normal 0.000000 0.000000 -1.000000
outer loop
vertex 0.001809 0.006013 0.000000
vertex 0.001832 0.006023 0.000000
vertex 0.001897 0.006052 0.000000
endloop
endfacet
facet normal 0.000000 0.000000 -1.000000
outer loop
vertex 0.000406 0.003767 0.000000
vertex 0.000608 0.004127 0.000000
vertex 0.001809 0.006013 0.000000
endloop
endfacet
facet normal 0.000000 0.000000 -1.000000
outer loop
vertex 0.000098 0.003124 0.000000
vertex 0.000231 0.003428 0.000000
vertex 0.000406 0.003767 0.000000
endloop
endfacet
facet normal 0.000000 0.000000 -1.000000
outer loop
vertex 0.000003 0.002680 0.000000
vertex 0.000018 0.002870 0.000000
vertex 0.000098 0.003124 0.000000
endloop
endfacet
facet normal 0.000000 0.000000 -1.000000
outer loop
vertex 0.000082 0.002357 0.000000
vertex 0.000034 0.002523 0.000000
vertex 0.000003 0.002680 0.000000
endloop
endfacet
facet normal 0.000000 0.000000 -1.000000
outer loop
vertex 0.000413 0.001675 0.000000
vertex 0.000223 0.002014 0.000000
vertex 0.000082 0.002357 0.000000
endloop
endfacet
facet normal 0.000000 0.000000 -1.000000
outer loop
vertex 0.000882 0.001107 0.000000
vertex 0.000637 0.001365 0.000000
vertex 0.000413 0.001675 0.000000
endloop
endfacet
facet normal 0.000000 0.000000 -1.000000
outer loop
vertex 0.001134 0.000927 0.000000
vertex 0.001008 0.001006 0.000000
vertex 0.000882 0.001107 0.000000
endloop
endfacet
facet normal 0.000000 0.000000 -1.000000
outer loop
vertex 0.001845 0.000645 0.000000
vertex 0.001396 0.000801 0.000000
vertex 0.001134 0.000927 0.000000
endloop
endfacet
facet normal 0.000000 0.000000 -1.000000
outer loop
vertex 0.003062 0.000442 0.000000
vertex 0.002598 0.000493 0.000000
vertex 0.001845 0.000645 0.000000
endloop
endfacet
facet normal 0.000000 0.000000 -1.000000
outer loop
vertex 0.004788 0.000391 0.000000
vertex 0.003578 0.000407 0.000000
vertex 0.003062 0.000442 0.000000
endloop
endfacet
facet normal 0.000000 0.000000 -1.000000
outer loop
vertex 0.004788 0.000391 0.000000
vertex 0.003062 0.000442 0.000000
vertex 0.001845 0.000645 0.000000
endloop
endfacet
facet normal 0.000000 0.000000 -1.000000
outer loop
vertex 0.001845 0.000645 0.000000
vertex 0.001134 0.000927 0.000000
vertex 0.000882 0.001107 0.000000
endloop
endfacet
facet normal 0.000000 0.000000 -1.000000
outer loop
vertex 0.000882 0.001107 0.000000
vertex 0.000413 0.001675 0.000000
vertex 0.000082 0.002357 0.000000
endloop
endfacet
facet normal 0.000000 0.000000 -1.000000
outer loop
vertex 0.000082 0.002357 0.000000
vertex 0.000003 0.002680 0.000000
vertex 0.000098 0.003124 0.000000
endloop
endfacet
facet normal 0.000000 0.000000 -1.000000
outer loop
vertex 0.000098 0.003124 0.000000
vertex 0.000406 0.003767 0.000000
vertex 0.001809 0.006013 0.000000
endloop
endfacet
facet normal 0.000000 0.000000 -1.000000
outer loop
vertex 0.001809 0.006013 0.000000
vertex 0.001897 0.006052 0.000000
vertex 0.002122 0.006150 0.000000
endloop
endfacet
facet normal 0.000000 0.000000 -1.000000
outer loop
vertex 0.002122 0.006150 0.000000
vertex 0.002428 0.006282 0.000000
vertex 0.002758 0.006422 0.000000
endloop
endfacet
facet normal 0.000000 0.000000 -1.000000
outer loop
vertex 0.002758 0.006422 0.000000
vertex 0.003057 0.006544 0.000000
vertex 0.003267 0.006624 0.000000
endloop
endfacet
facet normal 0.000000 0.000000 -1.000000
outer loop
vertex 0.003267 0.006624 0.000000
vertex 0.003666 0.006690 0.000000
vertex 0.003934 0.006706 0.000000
endloop
endfacet
facet normal 0.000000 0.000000 -1.000000
outer loop
vertex 0.003934 0.006706 0.000000
vertex 0.004242 0.006715 0.000000
vertex 0.004581 0.006721 0.000000
endloop
endfacet
facet normal 0.000000 0.000000 -1.000000
outer loop
vertex 0.004581 0.006721 0.000000
vertex 0.005505 0.006699 0.000000
vertex 0.008693 0.004513 0.000000
endloop
endfacet
facet normal 0.000000 0.000000 -1.000000
outer loop
vertex 0.008693 0.004513 0.000000
vertex 0.010072 0.001747 0.000000
vertex 0.009577 0.000617 0.000000
endloop
endfacet
facet normal 0.000000 0.000000 -1.000000
outer loop
vertex 0.009577 0.000617 0.000000
vertex 0.008759 0.000254 0.000000
vertex 0.007911 0.000010 0.000000
endloop
endfacet
facet normal 0.000000 0.000000 -1.000000
outer loop
vertex 0.007911 0.000010 0.000000
vertex 0.007742 0.000001 0.000000
vertex 0.006687 0.000051 0.000000
endloop
endfacet
facet normal 0.000000 0.000000 -1.000000
outer loop
vertex 0.006687 0.000051 0.000000
vertex 0.006108 0.000160 0.000000
vertex 0.005620 0.000282 0.000000
endloop
endfacet
facet normal 0.000000 0.000000 -1.000000
outer loop
vertex 0.006687 0.000051 0.000000
vertex 0.005620 0.000282 0.000000
vertex 0.005451 0.000323 0.000000
endloop
endfacet
facet normal 0.000000 0.000000 -1.000000
outer loop
vertex 0.009577 0.000617 0.000000
vertex 0.007911 0.000010 0.000000
vertex 0.006687 0.000051 0.000000
endloop
endfacet
facet normal 0.000000 0.000000 -1.000000
outer loop
vertex 0.004581 0.006721 0.000000
vertex 0.008693 0.004513 0.000000
vertex 0.009577 0.000617 0.000000
endloop
endfacet
facet normal 0.000000 0.000000 -1.000000
outer loop
vertex 0.003267 0.006624 0.000000
vertex 0.003934 0.006706 0.000000
vertex 0.004581 0.006721 0.000000
endloop
endfacet
facet normal 0.000000 0.000000 -1.000000
outer loop
vertex 0.002122 0.006150 0.000000
vertex 0.002758 0.006422 0.000000
vertex 0.003267 0.006624 0.000000
endloop
endfacet
facet normal 0.000000 0.000000 -1.000000
outer loop
vertex 0.000098 0.003124 0.000000
vertex 0.001809 0.006013 0.000000
vertex 0.002122 0.006150 0.000000
endloop
endfacet
facet normal 0.000000 0.000000 -1.000000
outer loop
vertex 0.000882 0.001107 0.000000
vertex 0.000082 0.002357 0.000000
vertex 0.000098 0.003124 0.000000
endloop
endfacet
facet normal 0.000000 0.000000 -1.000000
outer loop
vertex 0.004788 0.000391 0.000000
vertex 0.001845 0.000645 0.000000
vertex 0.000882 0.001107 0.000000
endloop
endfacet
facet normal 0.000000 0.000000 -1.000000
outer loop
vertex 0.004957 0.000385 0.000000
vertex 0.004788 0.000391 0.000000
vertex 0.000882 0.001107 0.000000
endloop
endfacet
facet normal 0.000000 0.000000 -1.000000
outer loop
vertex 0.000882 0.001107 0.000000
vertex 0.000098 0.003124 0.000000
vertex 0.002122 0.006150 0.000000
endloop
endfacet
facet normal 0.000000 0.000000 -1.000000
outer loop
vertex 0.002122 0.006150 0.000000
vertex 0.003267 0.006624 0.000000
vertex 0.004581 0.006721 0.000000
endloop
endfacet
facet normal 0.000000 0.000000 -1.000000
outer loop
vertex 0.004581 0.006721 0.000000
vertex 0.009577 0.000617 0.000000
vertex 0.006687 0.000051 0.000000
endloop
endfacet
facet normal 0.000000 0.000000 -1.000000
outer loop
vertex 0.004581 0.006721 0.000000
vertex 0.006687 0.000051 0.000000
vertex 0.005451 0.000323 0.000000
endloop
endfacet
facet normal 0.000000 0.000000 -1.000000
outer loop
vertex 0.000882 0.001107 0.000000
vertex 0.002122 0.006150 0.000000
vertex 0.004581 0.006721 0.000000
endloop
endfacet
facet normal 0.000000 0.000000 -1.000000
outer loop
vertex 0.005122 0.000372 0.000000
vertex 0.004957 0.000385 0.000000
vertex 0.000882 0.001107 0.000000
endloop
endfacet
facet normal 0.000000 0.000000 -1.000000
outer loop
vertex 0.004581 0.006721 0.000000
vertex 0.005451 0.000323 0.000000
vertex 0.005286 0.000352 0.000000
endloop
endfacet
facet normal 0.000000 0.000000 -1.000000
outer loop
vertex 0.005286 0.000352 0.000000
vertex 0.005122 0.000372 0.000000
vertex 0.000882 0.001107 0.000000
endloop
endfacet
facet normal 0.000000 0.000000 -1.000000
outer loop
vertex 0.005286 0.000352 0.000000
vertex 0.000882 0.001107 0.000000
vertex 0.004581 0.006721 0.000000
endloop
endfacet
facet normal 0.827477 -0.561500 0.000000
outer loop
vertex 0.009577 0.000617 0.000000
vertex 0.009689 0.000781 0.000000
vertex 0.009689 0.000781 0.150000
endloop
endfacet
facet normal 0.827473 -0.561506 0.000000
outer loop
vertex 0.009577 0.000617 0.000000
vertex 0.009689 0.000781 0.150000
vertex 0.009577 0.000617 0.150000
endloop
endfacet
facet normal -0.266956 0.963709 0.000000
outer loop
vertex 0.003347 0.006646 0.150000
vertex 0.003347 0.006646 0.000000
vertex 0.003267 0.006624 0.000000
endloop
endfacet
facet normal -0.266958 0.963708 0.000000
outer loop
vertex 0.003347 0.006646 0.150000
vertex 0.003267 0.006624 0.000000
vertex 0.003267 0.006624 0.150000
endloop
endfacet
facet normal -0.810577 -0.585632 0.000000
outer loop
vertex 0.000413 0.001675 0.000000
vertex 0.000637 0.001365 0.000000
vertex 0.000637 0.001365 0.150000
endloop
endfacet
facet normal -0.810577 -0.585632 0.000000
outer loop
vertex 0.000413 0.001675 0.000000
vertex 0.000637 0.001365 0.150000
vertex 0.000413 0.001675 0.150000
endloop
endfacet
facet normal -0.981311 -0.192430 0.000000
outer loop
vertex 0.000003 0.002680 0.150000
vertex 0.000003 0.002680 0.000000
vertex 0.000034 0.002523 0.000000
endloop
endfacet
facet normal -0.981311 -0.192430 0.000000
outer loop
vertex 0.000003 0.002680 0.150000
vertex 0.000034 0.002523 0.000000
vertex 0.000034 0.002523 0.150000
endloop
endfacet
facet normal 0.767120 0.641503 0.000000
outer loop
vertex 0.008257 0.005266 0.150000
vertex 0.008257 0.005266 0.000000
vertex 0.008157 0.005386 0.000000
endloop
endfacet
facet normal 0.767125 0.641497 0.000000
outer loop
vertex 0.008257 0.005266 0.150000
vertex 0.008157 0.005386 0.000000
vertex 0.008157 0.005386 0.150000
endloop
endfacet
facet normal -0.724344 -0.689438 0.000000
outer loop
vertex 0.000637 0.001365 0.000000
vertex 0.000882 0.001107 0.000000
vertex 0.000882 0.001107 0.150000
endloop
endfacet
facet normal -0.724345 -0.689438 0.000000
outer loop
vertex 0.000637 0.001365 0.000000
vertex 0.000882 0.001107 0.150000
vertex 0.000637 0.001365 0.150000
endloop
endfacet
facet normal -0.889530 0.456876 0.000000
outer loop
vertex 0.000406 0.003767 0.000000
vertex 0.000231 0.003428 0.000000
vertex 0.000231 0.003428 0.150000
endloop
endfacet
facet normal -0.889530 0.456876 0.000000
outer loop
vertex 0.000406 0.003767 0.000000
vertex 0.000231 0.003428 0.150000
vertex 0.000406 0.003767 0.150000
endloop
endfacet
facet normal -0.843517 0.537103 0.000000
outer loop
vertex 0.001809 0.006013 0.150000
vertex 0.001809 0.006013 0.000000
vertex 0.000608 0.004127 0.000000
endloop
endfacet
facet normal -0.871113 0.491082 0.000000
outer loop
vertex 0.000608 0.004127 0.000000
vertex 0.000406 0.003767 0.000000
vertex 0.000406 0.003767 0.150000
endloop
endfacet
facet normal -0.843517 0.537103 0.000000
outer loop
vertex 0.000608 0.004127 0.150000
vertex 0.001809 0.006013 0.150000
vertex 0.000608 0.004127 0.000000
endloop
endfacet
facet normal -0.871113 0.491082 0.000000
outer loop
vertex 0.000406 0.003767 0.150000
vertex 0.000608 0.004127 0.150000
vertex 0.000608 0.004127 0.000000
endloop
endfacet
facet normal 0.816442 0.577428 0.000000
outer loop
vertex 0.009316 0.003633 0.150000
vertex 0.009316 0.003633 0.000000
vertex 0.008693 0.004513 0.000000
endloop
endfacet
facet normal 0.816442 0.577428 0.000000
outer loop
vertex 0.009316 0.003633 0.150000
vertex 0.008693 0.004513 0.000000
vertex 0.008693 0.004513 0.150000
endloop
endfacet
facet normal 0.872808 0.488064 0.000000
outer loop
vertex 0.009832 0.002711 0.150000
vertex 0.009832 0.002711 0.000000
vertex 0.009316 0.003633 0.000000
endloop
endfacet
facet normal 0.872809 0.488063 0.000000
outer loop
vertex 0.009832 0.002711 0.150000
vertex 0.009316 0.003633 0.000000
vertex 0.009316 0.003633 0.150000
endloop
endfacet
facet normal -0.110856 -0.993836 0.000000
outer loop
vertex 0.002598 0.000493 0.150000
vertex 0.002598 0.000493 0.000000
vertex 0.003062 0.000442 0.000000
endloop
endfacet
facet normal 0.000000 0.000000 -1.000000
outer loop
vertex 0.003578 0.000407 0.000000
vertex 0.004788 0.000391 0.000000
vertex 0.004957 0.000385 0.000000
endloop
endfacet
facet normal -0.066941 -0.997757 0.000137
outer loop
vertex 0.002598 0.000493 0.150000
vertex 0.003062 0.000442 0.000000
vertex 0.003578 0.000407 0.000000
endloop
endfacet
facet normal -0.110856 -0.993836 -0.000152
outer loop
vertex 0.003062 0.000442 0.150000
vertex 0.002598 0.000493 0.150000
vertex 0.003578 0.000407 0.000000
endloop
endfacet
facet normal 0.000000 0.000000 -1.000000
outer loop
vertex 0.003578 0.000407 0.000000
vertex 0.004957 0.000385 0.000000
vertex 0.005122 0.000372 0.000000
endloop
endfacet
facet normal -0.121699 -0.992567 0.000000
outer loop
vertex 0.005122 0.000372 0.000000
vertex 0.005286 0.000352 0.000000
vertex 0.005286 0.000352 0.150000
endloop
endfacet
facet normal -0.121698 -0.992567 0.000000
outer loop
vertex 0.005122 0.000372 0.000000
vertex 0.005286 0.000352 0.150000
vertex 0.005122 0.000372 0.150000
endloop
endfacet
facet normal -0.022611 -0.999744 0.000153
outer loop
vertex 0.003062 0.000442 0.150000
vertex 0.003578 0.000407 0.000000
vertex 0.005122 0.000372 0.000000
endloop
endfacet
facet normal -0.066941 -0.997757 -0.000457
outer loop
vertex 0.003578 0.000407 0.150000
vertex 0.003062 0.000442 0.150000
vertex 0.005122 0.000372 0.000000
endloop
endfacet
facet normal -0.076064 -0.997103 0.000000
outer loop
vertex 0.005122 0.000372 0.000000
vertex 0.005122 0.000372 0.150000
vertex 0.004957 0.000385 0.150000
endloop
endfacet
facet normal -0.012842 -0.999917 0.000101
outer loop
vertex 0.004788 0.000391 0.150000
vertex 0.003578 0.000407 0.150000
vertex 0.005122 0.000372 0.000000
endloop
endfacet
facet normal -0.040296 -0.999188 0.000040
outer loop
vertex 0.005122 0.000372 0.000000
vertex 0.004957 0.000385 0.150000
vertex 0.004788 0.000391 0.150000
endloop
endfacet
facet normal -0.996936 0.078226 0.000000
outer loop
vertex 0.000018 0.002870 0.150000
vertex 0.000018 0.002870 0.000000
vertex 0.000003 0.002680 0.000000
endloop
endfacet
facet normal -0.996936 0.078226 0.000000
outer loop
vertex 0.000018 0.002870 0.150000
vertex 0.000003 0.002680 0.000000
vertex 0.000003 0.002680 0.150000
endloop
endfacet
facet normal 0.605259 0.796029 0.000000
outer loop
vertex 0.007679 0.005778 0.000000
vertex 0.007679 0.005778 0.150000
vertex 0.008032 0.005509 0.150000
endloop
endfacet
facet normal 0.605261 0.796027 0.000000
outer loop
vertex 0.007679 0.005778 0.000000
vertex 0.008032 0.005509 0.150000
vertex 0.008032 0.005509 0.000000
endloop
endfacet
facet normal -0.960303 -0.278961 0.000000
outer loop
vertex 0.000034 0.002523 0.150000
vertex 0.000034 0.002523 0.000000
vertex 0.000082 0.002357 0.000000
endloop
endfacet
facet normal -0.960303 -0.278961 0.000000
outer loop
vertex 0.000034 0.002523 0.150000
vertex 0.000082 0.002357 0.000000
vertex 0.000082 0.002357 0.150000
endloop
endfacet
facet normal 0.223144 0.974786 0.000000
outer loop
vertex 0.006077 0.006568 0.150000
vertex 0.006077 0.006568 0.000000
vertex 0.005505 0.006699 0.000000
endloop
endfacet
facet normal 0.223144 0.974786 0.000000
outer loop
vertex 0.006077 0.006568 0.150000
vertex 0.005505 0.006699 0.000000
vertex 0.005505 0.006699 0.150000
endloop
endfacet
facet normal 0.922453 -0.386110 0.000000
outer loop
vertex 0.009905 0.001176 0.150000
vertex 0.009905 0.001176 0.000000
vertex 0.009991 0.001382 0.000000
endloop
endfacet
facet normal 0.922455 -0.386104 0.000000
outer loop
vertex 0.009905 0.001176 0.150000
vertex 0.009991 0.001382 0.000000
vertex 0.009991 0.001382 0.150000
endloop
endfacet
facet normal -0.531708 -0.846928 0.000000
outer loop
vertex 0.001008 0.001006 0.150000
vertex 0.001008 0.001006 0.000000
vertex 0.001134 0.000927 0.000000
endloop
endfacet
facet normal -0.531708 -0.846928 0.000000
outer loop
vertex 0.001008 0.001006 0.150000
vertex 0.001134 0.000927 0.000000
vertex 0.001134 0.000927 0.150000
endloop
endfacet
facet normal 0.978123 0.208026 0.000000
outer loop
vertex 0.010048 0.002013 0.000000
vertex 0.010003 0.002224 0.000000
vertex 0.010003 0.002224 0.150000
endloop
endfacet
facet normal 0.978125 0.208019 0.000000
outer loop
vertex 0.010048 0.002013 0.000000
vertex 0.010003 0.002224 0.150000
vertex 0.010048 0.002013 0.150000
endloop
endfacet
facet normal 0.471759 0.881728 0.000000
outer loop
vertex 0.007679 0.005778 0.000000
vertex 0.006488 0.006415 0.000000
vertex 0.006488 0.006415 0.150000
endloop
endfacet
facet normal 0.471758 0.881728 0.000000
outer loop
vertex 0.007679 0.005778 0.000000
vertex 0.006488 0.006415 0.150000
vertex 0.007679 0.005778 0.150000
endloop
endfacet
endsolid Exported from Blender-3.6.8
