solid Exported from Blender-3.6.8
facet normal 0.939575 0.342344 0.000000
outer loop
vertex 0.010454 0.002357 0.000000
vertex 0.010407 0.002487 0.000000
vertex 0.010407 0.002487 0.150000
endloop
endfacet
facet normal 0.939568 0.342364 0.000000
outer loop
vertex 0.010454 0.002357 0.000000
vertex 0.010407 0.002487 0.150000
vertex 0.010454 0.002357 0.150000
endloop
endfacet
facet normal -0.997902 -0.064741 0.000000
outer loop
vertex 0.000000 0.007376 0.150000
vertex 0.000000 0.007376 0.000000
vertex 0.000016 0.007132 0.000000
endloop
endfacet
facet normal -0.997902 -0.064741 0.000000
outer loop
vertex 0.000000 0.007376 0.150000
vertex 0.000016 0.007132 0.000000
vertex 0.000016 0.007132 0.150000
endloop
endfacet
facet normal 0.999992 0.003924 0.000000
outer loop
vertex 0.010655 0.001362 0.000000
vertex 0.010654 0.001531 0.000000
vertex 0.010654 0.001531 0.150000
endloop
endfacet
facet normal 0.999992 0.003933 0.000000
outer loop
vertex 0.010655 0.001362 0.000000
vertex 0.010654 0.001531 0.150000
vertex 0.010655 0.001362 0.150000
endloop
endfacet
facet normal 0.783854 0.620945 0.000000
outer loop
vertex 0.006324 0.007733 0.150000
vertex 0.006324 0.007733 0.000000
vertex 0.006257 0.007818 0.000000
endloop
endfacet
facet normal 0.783861 0.620936 0.000000
outer loop
vertex 0.006324 0.007733 0.150000
vertex 0.006257 0.007818 0.000000
vertex 0.006257 0.007818 0.150000
endloop
endfacet
facet normal 0.529291 0.848440 0.000000
outer loop
vertex 0.004953 0.008888 0.150000
vertex 0.004953 0.008888 0.000000
vertex 0.004613 0.009100 0.000000
endloop
endfacet
facet normal 0.529292 0.848440 0.000000
outer loop
vertex 0.004953 0.008888 0.150000
vertex 0.004613 0.009100 0.000000
vertex 0.004613 0.009100 0.150000
endloop
endfacet
facet normal -0.682810 -0.730596 0.000000
outer loop
vertex 0.000847 0.005570 0.150000
vertex 0.000847 0.005570 0.000000
vertex 0.001085 0.005349 0.000000
endloop
endfacet
facet normal -0.682810 -0.730596 0.000000
outer loop
vertex 0.000847 0.005570 0.150000
vertex 0.001085 0.005349 0.000000
vertex 0.001085 0.005349 0.150000
endloop
endfacet
facet normal -0.000067 0.000000 1.000000
outer loop
vertex 0.003111 0.009592 0.150000
vertex 0.002967 0.009610 0.150000
vertex 0.002705 0.009620 0.150000
endloop
endfacet
facet normal 0.000000 0.000000 1.000000
outer loop
vertex 0.002705 0.009620 0.150000
vertex 0.001738 0.009547 0.150000
vertex 0.001499 0.009515 0.150000
endloop
endfacet
facet normal -0.000745 0.000000 1.000000
outer loop
vertex 0.001499 0.009515 0.150000
vertex 0.001400 0.009497 0.150000
vertex 0.001260 0.009460 0.150000
endloop
endfacet
facet normal 0.000000 0.000000 1.000000
outer loop
vertex 0.001260 0.009460 0.150000
vertex 0.001125 0.009391 0.150000
vertex 0.000347 0.008886 0.150000
endloop
endfacet
facet normal 0.000000 0.000000 1.000000
outer loop
vertex 0.000347 0.008886 0.150000
vertex 0.000201 0.008500 0.150000
vertex 0.000088 0.008096 0.150000
endloop
endfacet
facet normal -0.000520 0.000000 1.000000
outer loop
vertex 0.000088 0.008096 0.150000
vertex 0.000011 0.007623 0.150000
vertex 0.000000 0.007376 0.150000
endloop
endfacet
facet normal 0.000000 0.000000 1.000000
outer loop
vertex 0.000000 0.007376 0.150000
vertex 0.000016 0.007132 0.150000
vertex 0.000064 0.006898 0.150000
endloop
endfacet
facet normal 0.000643 0.000000 1.000000
outer loop
vertex 0.000064 0.006898 0.150000
vertex 0.000150 0.006678 0.150000
vertex 0.000353 0.006293 0.150000
endloop
endfacet
facet normal 0.000000 0.000000 1.000000
outer loop
vertex 0.000353 0.006293 0.150000
vertex 0.000449 0.006124 0.150000
vertex 0.000544 0.005969 0.150000
endloop
endfacet
facet normal 0.000000 0.000000 1.000000
outer loop
vertex 0.000544 0.005969 0.150000
vertex 0.000641 0.005825 0.150000
vertex 0.000847 0.005570 0.150000
endloop
endfacet
facet normal 0.000000 0.000000 1.000000
outer loop
vertex 0.000847 0.005570 0.150000
vertex 0.001085 0.005349 0.150000
vertex 0.001371 0.005149 0.150000
endloop
endfacet
facet normal 0.000000 0.000000 1.000000
outer loop
vertex 0.001371 0.005149 0.150000
vertex 0.001714 0.004964 0.150000
vertex 0.005008 0.003595 0.150000
endloop
endfacet
facet normal -0.000040 0.000000 1.000000
outer loop
vertex 0.000847 0.005570 0.150000
vertex 0.001371 0.005149 0.150000
vertex 0.005008 0.003595 0.150000
endloop
endfacet
facet normal 0.000000 0.000000 1.000000
outer loop
vertex 0.000353 0.006293 0.150000
vertex 0.000544 0.005969 0.150000
vertex 0.000847 0.005570 0.150000
endloop
endfacet
facet normal 0.000000 0.000000 1.000000
outer loop
vertex 0.000000 0.007376 0.150000
vertex 0.000064 0.006898 0.150000
vertex 0.000353 0.006293 0.150000
endloop
endfacet
facet normal 0.000124 0.000000 1.000000
outer loop
vertex 0.000347 0.008886 0.150000
vertex 0.000088 0.008096 0.150000
vertex 0.000000 0.007376 0.150000
endloop
endfacet
facet normal 0.000000 0.000000 1.000000
outer loop
vertex 0.001499 0.009515 0.150000
vertex 0.001260 0.009460 0.150000
vertex 0.000347 0.008886 0.150000
endloop
endfacet
facet normal 0.000000 0.000000 1.000000
outer loop
vertex 0.003111 0.009592 0.150000
vertex 0.002705 0.009620 0.150000
vertex 0.001499 0.009515 0.150000
endloop
endfacet
facet normal 0.000331 0.000000 1.000000
outer loop
vertex 0.003573 0.009494 0.150000
vertex 0.003261 0.009566 0.150000
vertex 0.003111 0.009592 0.150000
endloop
endfacet
facet normal 0.000000 0.000000 1.000000
outer loop
vertex 0.003888 0.009400 0.150000
vertex 0.003731 0.009449 0.150000
vertex 0.003573 0.009494 0.150000
endloop
endfacet
facet normal 0.000000 0.000000 1.000000
outer loop
vertex 0.004613 0.009100 0.150000
vertex 0.004192 0.009291 0.150000
vertex 0.003888 0.009400 0.150000
endloop
endfacet
facet normal 0.000200 0.000000 1.000000
outer loop
vertex 0.006155 0.007924 0.150000
vertex 0.004953 0.008888 0.150000
vertex 0.004613 0.009100 0.150000
endloop
endfacet
facet normal 0.000000 0.000000 1.000000
outer loop
vertex 0.006324 0.007733 0.150000
vertex 0.006257 0.007818 0.150000
vertex 0.006155 0.007924 0.150000
endloop
endfacet
facet normal 0.014485 0.000000 0.999895
outer loop
vertex 0.006445 0.007546 0.150000
vertex 0.006379 0.007649 0.150000
vertex 0.006324 0.007733 0.150000
endloop
endfacet
facet normal 0.018585 0.000000 0.999827
outer loop
vertex 0.006701 0.007136 0.150000
vertex 0.006522 0.007424 0.150000
vertex 0.006445 0.007546 0.150000
endloop
endfacet
facet normal 0.000000 0.000000 1.000000
outer loop
vertex 0.007115 0.006449 0.150000
vertex 0.006902 0.006805 0.150000
vertex 0.006701 0.007136 0.150000
endloop
endfacet
facet normal 0.000000 0.000000 1.000000
outer loop
vertex 0.007326 0.006087 0.150000
vertex 0.007221 0.006267 0.150000
vertex 0.007115 0.006449 0.150000
endloop
endfacet
facet normal -0.009679 0.000000 0.999953
outer loop
vertex 0.007427 0.005910 0.150000
vertex 0.007326 0.006087 0.150000
vertex 0.007115 0.006449 0.150000
endloop
endfacet
facet normal -0.002426 0.000000 0.999997
outer loop
vertex 0.007115 0.006449 0.150000
vertex 0.006701 0.007136 0.150000
vertex 0.006445 0.007546 0.150000
endloop
endfacet
facet normal 0.000000 0.000000 1.000000
outer loop
vertex 0.006445 0.007546 0.150000
vertex 0.006324 0.007733 0.150000
vertex 0.006155 0.007924 0.150000
endloop
endfacet
facet normal -0.000037 0.000000 1.000000
outer loop
vertex 0.006155 0.007924 0.150000
vertex 0.004613 0.009100 0.150000
vertex 0.003888 0.009400 0.150000
endloop
endfacet
facet normal -0.000146 0.000000 1.000000
outer loop
vertex 0.003888 0.009400 0.150000
vertex 0.003573 0.009494 0.150000
vertex 0.003111 0.009592 0.150000
endloop
endfacet
facet normal 0.000016 0.000000 1.000000
outer loop
vertex 0.003111 0.009592 0.150000
vertex 0.001499 0.009515 0.150000
vertex 0.000347 0.008886 0.150000
endloop
endfacet
facet normal -0.000032 0.000000 1.000000
outer loop
vertex 0.000347 0.008886 0.150000
vertex 0.000000 0.007376 0.150000
vertex 0.000353 0.006293 0.150000
endloop
endfacet
facet normal 0.000029 0.000000 1.000000
outer loop
vertex 0.000353 0.006293 0.150000
vertex 0.000847 0.005570 0.150000
vertex 0.005008 0.003595 0.150000
endloop
endfacet
facet normal 0.000005 0.000000 1.000000
outer loop
vertex 0.000347 0.008886 0.150000
vertex 0.000353 0.006293 0.150000
vertex 0.005008 0.003595 0.150000
endloop
endfacet
facet normal 0.000000 0.000000 1.000000
outer loop
vertex 0.003888 0.009400 0.150000
vertex 0.003111 0.009592 0.150000
vertex 0.000347 0.008886 0.150000
endloop
endfacet
facet normal 0.000000 0.000000 1.000000
outer loop
vertex 0.006445 0.007546 0.150000
vertex 0.006155 0.007924 0.150000
vertex 0.003888 0.009400 0.150000
endloop
endfacet
facet normal 0.003244 0.000000 0.999995
outer loop
vertex 0.007427 0.005910 0.150000
vertex 0.007115 0.006449 0.150000
vertex 0.006445 0.007546 0.150000
endloop
endfacet
facet normal 0.000000 0.000000 1.000000
outer loop
vertex 0.007530 0.005737 0.150000
vertex 0.007427 0.005910 0.150000
vertex 0.006445 0.007546 0.150000
endloop
endfacet
facet normal 0.000002 0.000000 1.000000
outer loop
vertex 0.006445 0.007546 0.150000
vertex 0.003888 0.009400 0.150000
vertex 0.000347 0.008886 0.150000
endloop
endfacet
facet normal -0.000142 0.000000 1.000000
outer loop
vertex 0.000347 0.008886 0.150000
vertex 0.005008 0.003595 0.150000
vertex 0.005279 0.003424 0.150000
endloop
endfacet
facet normal 0.000000 0.000000 1.000000
outer loop
vertex 0.000347 0.008886 0.150000
vertex 0.005279 0.003424 0.150000
vertex 0.005543 0.003220 0.150000
endloop
endfacet
facet normal -0.000003 0.000000 1.000000
outer loop
vertex 0.007530 0.005737 0.150000
vertex 0.006445 0.007546 0.150000
vertex 0.000347 0.008886 0.150000
endloop
endfacet
facet normal 0.000000 0.000000 1.000000
outer loop
vertex 0.007639 0.005571 0.150000
vertex 0.007530 0.005737 0.150000
vertex 0.000347 0.008886 0.150000
endloop
endfacet
facet normal 0.000000 0.000000 1.000000
outer loop
vertex 0.000347 0.008886 0.150000
vertex 0.005543 0.003220 0.150000
vertex 0.005679 0.003098 0.150000
endloop
endfacet
facet normal 0.000000 0.000000 1.000000
outer loop
vertex 0.005821 0.002960 0.150000
vertex 0.006362 0.002418 0.150000
vertex 0.006623 0.002162 0.150000
endloop
endfacet
facet normal -0.001030 0.000000 0.999999
outer loop
vertex 0.000347 0.008886 0.150000
vertex 0.005679 0.003098 0.150000
vertex 0.005821 0.002960 0.150000
endloop
endfacet
facet normal 0.000000 0.000000 1.000000
outer loop
vertex 0.007753 0.005410 0.150000
vertex 0.007639 0.005571 0.150000
vertex 0.000347 0.008886 0.150000
endloop
endfacet
facet normal 0.000000 0.000000 1.000000
outer loop
vertex 0.007869 0.005255 0.150000
vertex 0.007753 0.005410 0.150000
vertex 0.000347 0.008886 0.150000
endloop
endfacet
facet normal 0.000568 0.000000 1.000000
outer loop
vertex 0.000347 0.008886 0.150000
vertex 0.005821 0.002960 0.150000
vertex 0.006623 0.002162 0.150000
endloop
endfacet
facet normal 0.000000 0.000000 1.000000
outer loop
vertex 0.006623 0.002162 0.150000
vertex 0.006758 0.002033 0.150000
vertex 0.006899 0.001902 0.150000
endloop
endfacet
facet normal -0.007703 0.000000 0.999970
outer loop
vertex 0.006899 0.001902 0.150000
vertex 0.007048 0.001766 0.150000
vertex 0.007207 0.001624 0.150000
endloop
endfacet
facet normal 0.000000 0.000000 1.000000
outer loop
vertex 0.007747 0.001155 0.150000
vertex 0.008232 0.000715 0.150000
vertex 0.008378 0.000588 0.150000
endloop
endfacet
facet normal 0.002369 0.000000 0.999997
outer loop
vertex 0.006899 0.001902 0.150000
vertex 0.007207 0.001624 0.150000
vertex 0.007747 0.001155 0.150000
endloop
endfacet
facet normal -0.000263 0.000000 1.000000
outer loop
vertex 0.000347 0.008886 0.150000
vertex 0.006623 0.002162 0.150000
vertex 0.006899 0.001902 0.150000
endloop
endfacet
facet normal 0.000000 0.000000 1.000000
outer loop
vertex 0.007988 0.005105 0.150000
vertex 0.007869 0.005255 0.150000
vertex 0.000347 0.008886 0.150000
endloop
endfacet
facet normal 0.000093 0.000000 1.000000
outer loop
vertex 0.008225 0.004825 0.150000
vertex 0.007988 0.005105 0.150000
vertex 0.000347 0.008886 0.150000
endloop
endfacet
facet normal -0.000099 0.000000 1.000000
outer loop
vertex 0.000347 0.008886 0.150000
vertex 0.006899 0.001902 0.150000
vertex 0.007747 0.001155 0.150000
endloop
endfacet
facet normal -0.000298 0.000000 1.000000
outer loop
vertex 0.007747 0.001155 0.150000
vertex 0.008378 0.000588 0.150000
vertex 0.008663 0.000371 0.150000
endloop
endfacet
facet normal 0.000671 0.000000 1.000000
outer loop
vertex 0.008663 0.000371 0.150000
vertex 0.008806 0.000284 0.150000
vertex 0.008953 0.000214 0.150000
endloop
endfacet
facet normal 0.000525 0.000000 1.000000
outer loop
vertex 0.008953 0.000214 0.150000
vertex 0.009105 0.000163 0.150000
vertex 0.009267 0.000131 0.150000
endloop
endfacet
facet normal 0.000635 0.000000 1.000000
outer loop
vertex 0.009610 0.000112 0.150000
vertex 0.010152 0.000010 0.150000
vertex 0.010253 0.000000 0.150000
endloop
endfacet
facet normal -0.000040 0.000000 1.000000
outer loop
vertex 0.008953 0.000214 0.150000
vertex 0.009267 0.000131 0.150000
vertex 0.009610 0.000112 0.150000
endloop
endfacet
facet normal -0.000087 0.000000 1.000000
outer loop
vertex 0.007747 0.001155 0.150000
vertex 0.008663 0.000371 0.150000
vertex 0.008953 0.000214 0.150000
endloop
endfacet
facet normal 0.000000 0.000000 1.000000
outer loop
vertex 0.008225 0.004825 0.150000
vertex 0.000347 0.008886 0.150000
vertex 0.007747 0.001155 0.150000
endloop
endfacet
facet normal 0.000000 0.000000 1.000000
outer loop
vertex 0.010344 0.002611 0.150000
vertex 0.010253 0.002742 0.150000
vertex 0.008851 0.004122 0.150000
endloop
endfacet
facet normal 0.000000 0.000000 1.000000
outer loop
vertex 0.008851 0.004122 0.150000
vertex 0.008225 0.004825 0.150000
vertex 0.007747 0.001155 0.150000
endloop
endfacet
facet normal 0.000007 0.000000 1.000000
outer loop
vertex 0.007747 0.001155 0.150000
vertex 0.008953 0.000214 0.150000
vertex 0.009610 0.000112 0.150000
endloop
endfacet
facet normal -0.000057 0.000000 1.000000
outer loop
vertex 0.009610 0.000112 0.150000
vertex 0.010253 0.000000 0.150000
vertex 0.010341 0.000010 0.150000
endloop
endfacet
facet normal 0.000625 0.000000 1.000000
outer loop
vertex 0.010341 0.000010 0.150000
vertex 0.010416 0.000045 0.150000
vertex 0.010479 0.000114 0.150000
endloop
endfacet
facet normal 0.000000 0.000000 1.000000
outer loop
vertex 0.010479 0.000114 0.150000
vertex 0.010529 0.000222 0.150000
vertex 0.010566 0.000376 0.150000
endloop
endfacet
facet normal -0.000233 0.000000 1.000000
outer loop
vertex 0.010566 0.000376 0.150000
vertex 0.010655 0.001362 0.150000
vertex 0.010654 0.001531 0.150000
endloop
endfacet
facet normal -0.001053 0.000000 0.999999
outer loop
vertex 0.010654 0.001531 0.150000
vertex 0.010636 0.001677 0.150000
vertex 0.010454 0.002357 0.150000
endloop
endfacet
facet normal 0.001532 0.000000 0.999999
outer loop
vertex 0.010454 0.002357 0.150000
vertex 0.010407 0.002487 0.150000
vertex 0.010344 0.002611 0.150000
endloop
endfacet
facet normal 0.000000 0.000000 1.000000
outer loop
vertex 0.010344 0.002611 0.150000
vertex 0.008851 0.004122 0.150000
vertex 0.007747 0.001155 0.150000
endloop
endfacet
facet normal 0.000038 0.000000 1.000000
outer loop
vertex 0.007747 0.001155 0.150000
vertex 0.009610 0.000112 0.150000
vertex 0.010341 0.000010 0.150000
endloop
endfacet
facet normal -0.000271 0.000000 1.000000
outer loop
vertex 0.010341 0.000010 0.150000
vertex 0.010479 0.000114 0.150000
vertex 0.010566 0.000376 0.150000
endloop
endfacet
facet normal 0.000096 0.000000 1.000000
outer loop
vertex 0.010566 0.000376 0.150000
vertex 0.010654 0.001531 0.150000
vertex 0.010454 0.002357 0.150000
endloop
endfacet
facet normal 0.000000 0.000000 1.000000
outer loop
vertex 0.010454 0.002357 0.150000
vertex 0.010344 0.002611 0.150000
vertex 0.007747 0.001155 0.150000
endloop
endfacet
facet normal -0.000006 0.000000 1.000000
outer loop
vertex 0.007747 0.001155 0.150000
vertex 0.010341 0.000010 0.150000
vertex 0.010566 0.000376 0.150000
endloop
endfacet
facet normal 0.000000 0.000000 1.000000
outer loop
vertex 0.007747 0.001155 0.150000
vertex 0.010566 0.000376 0.150000
vertex 0.010454 0.002357 0.150000
endloop
endfacet
facet normal -0.544379 0.838839 0.000000
outer loop
vertex 0.001125 0.009391 0.000000
vertex 0.000347 0.008886 0.000000
vertex 0.000347 0.008886 0.150000
endloop
endfacet
facet normal -0.544379 0.838839 0.000000
outer loop
vertex 0.001125 0.009391 0.000000
vertex 0.000347 0.008886 0.150000
vertex 0.001125 0.009391 0.150000
endloop
endfacet
facet normal 0.000000 0.000000 -1.000000
outer loop
vertex 0.001499 0.009515 0.000000
vertex 0.001738 0.009547 0.000000
vertex 0.002705 0.009620 0.000000
endloop
endfacet
facet normal 0.000000 0.000000 -1.000000
outer loop
vertex 0.002705 0.009620 0.000000
vertex 0.002967 0.009610 0.000000
vertex 0.003111 0.009592 0.000000
endloop
endfacet
facet normal 0.000000 0.000000 -1.000000
outer loop
vertex 0.003111 0.009592 0.000000
vertex 0.003261 0.009566 0.000000
vertex 0.003573 0.009494 0.000000
endloop
endfacet
facet normal 0.000000 0.000000 -1.000000
outer loop
vertex 0.003573 0.009494 0.000000
vertex 0.003731 0.009449 0.000000
vertex 0.003888 0.009400 0.000000
endloop
endfacet
facet normal 0.000000 0.000000 -1.000000
outer loop
vertex 0.003888 0.009400 0.000000
vertex 0.004192 0.009291 0.000000
vertex 0.004613 0.009100 0.000000
endloop
endfacet
facet normal 0.000000 0.000000 -1.000000
outer loop
vertex 0.004613 0.009100 0.000000
vertex 0.004953 0.008888 0.000000
vertex 0.006155 0.007924 0.000000
endloop
endfacet
facet normal 0.000000 0.000000 -1.000000
outer loop
vertex 0.006155 0.007924 0.000000
vertex 0.006257 0.007818 0.000000
vertex 0.006324 0.007733 0.000000
endloop
endfacet
facet normal 0.000000 0.000000 -1.000000
outer loop
vertex 0.006324 0.007733 0.000000
vertex 0.006379 0.007649 0.000000
vertex 0.006445 0.007546 0.000000
endloop
endfacet
facet normal 0.000000 0.000000 -1.000000
outer loop
vertex 0.006445 0.007546 0.000000
vertex 0.006522 0.007424 0.000000
vertex 0.006701 0.007136 0.000000
endloop
endfacet
facet normal 0.000000 0.000000 -1.000000
outer loop
vertex 0.006701 0.007136 0.000000
vertex 0.006902 0.006805 0.000000
vertex 0.007115 0.006449 0.000000
endloop
endfacet
facet normal 0.000000 0.000000 -1.000000
outer loop
vertex 0.007115 0.006449 0.000000
vertex 0.007221 0.006267 0.000000
vertex 0.007326 0.006087 0.000000
endloop
endfacet
facet normal 0.000000 0.000000 -1.000000
outer loop
vertex 0.007115 0.006449 0.000000
vertex 0.007326 0.006087 0.000000
vertex 0.007427 0.005910 0.000000
endloop
endfacet
facet normal 0.000000 0.000000 -1.000000
outer loop
vertex 0.006445 0.007546 0.000000
vertex 0.006701 0.007136 0.000000
vertex 0.007115 0.006449 0.000000
endloop
endfacet
facet normal 0.000000 0.000000 -1.000000
outer loop
vertex 0.006155 0.007924 0.000000
vertex 0.006324 0.007733 0.000000
vertex 0.006445 0.007546 0.000000
endloop
endfacet
facet normal 0.000000 0.000000 -1.000000
outer loop
vertex 0.003888 0.009400 0.000000
vertex 0.004613 0.009100 0.000000
vertex 0.006155 0.007924 0.000000
endloop
endfacet
facet normal 0.000000 0.000000 -1.000000
outer loop
vertex 0.003111 0.009592 0.000000
vertex 0.003573 0.009494 0.000000
vertex 0.003888 0.009400 0.000000
endloop
endfacet
facet normal 0.000000 0.000000 -1.000000
outer loop
vertex 0.001499 0.009515 0.000000
vertex 0.002705 0.009620 0.000000
vertex 0.003111 0.009592 0.000000
endloop
endfacet
facet normal 0.000000 0.000000 -1.000000
outer loop
vertex 0.001260 0.009460 0.000000
vertex 0.001400 0.009497 0.000000
vertex 0.001499 0.009515 0.000000
endloop
endfacet
facet normal 0.000000 0.000000 -1.000000
outer loop
vertex 0.000347 0.008886 0.000000
vertex 0.001125 0.009391 0.000000
vertex 0.001260 0.009460 0.000000
endloop
endfacet
facet normal 0.000000 0.000000 -1.000000
outer loop
vertex 0.000088 0.008096 0.000000
vertex 0.000201 0.008500 0.000000
vertex 0.000347 0.008886 0.000000
endloop
endfacet
facet normal 0.000000 0.000000 -1.000000
outer loop
vertex 0.000000 0.007376 0.000000
vertex 0.000011 0.007623 0.000000
vertex 0.000088 0.008096 0.000000
endloop
endfacet
facet normal 0.000000 0.000000 -1.000000
outer loop
vertex 0.000064 0.006898 0.000000
vertex 0.000016 0.007132 0.000000
vertex 0.000000 0.007376 0.000000
endloop
endfacet
facet normal 0.000000 0.000000 -1.000000
outer loop
vertex 0.000353 0.006293 0.000000
vertex 0.000150 0.006678 0.000000
vertex 0.000064 0.006898 0.000000
endloop
endfacet
facet normal 0.000000 0.000000 -1.000000
outer loop
vertex 0.000544 0.005969 0.000000
vertex 0.000449 0.006124 0.000000
vertex 0.000353 0.006293 0.000000
endloop
endfacet
facet normal 0.000000 0.000000 -1.000000
outer loop
vertex 0.000847 0.005570 0.000000
vertex 0.000641 0.005825 0.000000
vertex 0.000544 0.005969 0.000000
endloop
endfacet
facet normal 0.000000 0.000000 -1.000000
outer loop
vertex 0.001371 0.005149 0.000000
vertex 0.001085 0.005349 0.000000
vertex 0.000847 0.005570 0.000000
endloop
endfacet
facet normal 0.000000 0.000000 -1.000000
outer loop
vertex 0.005008 0.003595 0.000000
vertex 0.001714 0.004964 0.000000
vertex 0.001371 0.005149 0.000000
endloop
endfacet
facet normal 0.000000 0.000000 -1.000000
outer loop
vertex 0.005008 0.003595 0.000000
vertex 0.001371 0.005149 0.000000
vertex 0.000847 0.005570 0.000000
endloop
endfacet
facet normal 0.000000 0.000000 -1.000000
outer loop
vertex 0.000847 0.005570 0.000000
vertex 0.000544 0.005969 0.000000
vertex 0.000353 0.006293 0.000000
endloop
endfacet
facet normal 0.000000 0.000000 -1.000000
outer loop
vertex 0.000353 0.006293 0.000000
vertex 0.000064 0.006898 0.000000
vertex 0.000000 0.007376 0.000000
endloop
endfacet
facet normal 0.000000 0.000000 -1.000000
outer loop
vertex 0.000000 0.007376 0.000000
vertex 0.000088 0.008096 0.000000
vertex 0.000347 0.008886 0.000000
endloop
endfacet
facet normal 0.000000 0.000000 -1.000000
outer loop
vertex 0.000347 0.008886 0.000000
vertex 0.001260 0.009460 0.000000
vertex 0.001499 0.009515 0.000000
endloop
endfacet
facet normal 0.000000 0.000000 -1.000000
outer loop
vertex 0.001499 0.009515 0.000000
vertex 0.003111 0.009592 0.000000
vertex 0.003888 0.009400 0.000000
endloop
endfacet
facet normal 0.000000 0.000000 -1.000000
outer loop
vertex 0.003888 0.009400 0.000000
vertex 0.006155 0.007924 0.000000
vertex 0.006445 0.007546 0.000000
endloop
endfacet
facet normal 0.000000 0.000000 -1.000000
outer loop
vertex 0.006445 0.007546 0.000000
vertex 0.007115 0.006449 0.000000
vertex 0.007427 0.005910 0.000000
endloop
endfacet
facet normal 0.000000 0.000000 -1.000000
outer loop
vertex 0.006445 0.007546 0.000000
vertex 0.007427 0.005910 0.000000
vertex 0.007530 0.005737 0.000000
endloop
endfacet
facet normal 0.000000 0.000000 -1.000000
outer loop
vertex 0.001499 0.009515 0.000000
vertex 0.003888 0.009400 0.000000
vertex 0.006445 0.007546 0.000000
endloop
endfacet
facet normal 0.000000 0.000000 -1.000000
outer loop
vertex 0.000000 0.007376 0.000000
vertex 0.000347 0.008886 0.000000
vertex 0.001499 0.009515 0.000000
endloop
endfacet
facet normal 0.000000 0.000000 -1.000000
outer loop
vertex 0.000847 0.005570 0.000000
vertex 0.000353 0.006293 0.000000
vertex 0.000000 0.007376 0.000000
endloop
endfacet
facet normal 0.000000 0.000000 -1.000000
outer loop
vertex 0.005008 0.003595 0.000000
vertex 0.000847 0.005570 0.000000
vertex 0.000000 0.007376 0.000000
endloop
endfacet
facet normal 0.000000 0.000000 -1.000000
outer loop
vertex 0.000000 0.007376 0.000000
vertex 0.001499 0.009515 0.000000
vertex 0.006445 0.007546 0.000000
endloop
endfacet
facet normal 0.000000 0.000000 -1.000000
outer loop
vertex 0.000000 0.007376 0.000000
vertex 0.006445 0.007546 0.000000
vertex 0.007530 0.005737 0.000000
endloop
endfacet
facet normal 0.000000 0.000000 -1.000000
outer loop
vertex 0.005279 0.003424 0.000000
vertex 0.005008 0.003595 0.000000
vertex 0.000000 0.007376 0.000000
endloop
endfacet
facet normal 0.000000 0.000000 -1.000000
outer loop
vertex 0.005279 0.003424 0.000000
vertex 0.000000 0.007376 0.000000
vertex 0.007530 0.005737 0.000000
endloop
endfacet
facet normal 0.000000 0.000000 -1.000000
outer loop
vertex 0.005279 0.003424 0.000000
vertex 0.007530 0.005737 0.000000
vertex 0.007639 0.005571 0.000000
endloop
endfacet
facet normal 0.000000 0.000000 -1.000000
outer loop
vertex 0.005543 0.003220 0.000000
vertex 0.005279 0.003424 0.000000
vertex 0.007639 0.005571 0.000000
endloop
endfacet
facet normal 0.000000 0.000000 -1.000000
outer loop
vertex 0.005543 0.003220 0.000000
vertex 0.007639 0.005571 0.000000
vertex 0.007753 0.005410 0.000000
endloop
endfacet
facet normal 0.000000 0.000000 -1.000000
outer loop
vertex 0.005679 0.003098 0.000000
vertex 0.005543 0.003220 0.000000
vertex 0.007753 0.005410 0.000000
endloop
endfacet
facet normal 0.000000 0.000000 -1.000000
outer loop
vertex 0.005679 0.003098 0.000000
vertex 0.007753 0.005410 0.000000
vertex 0.007869 0.005255 0.000000
endloop
endfacet
facet normal 0.000000 0.000000 -1.000000
outer loop
vertex 0.006623 0.002162 0.000000
vertex 0.006362 0.002418 0.000000
vertex 0.005821 0.002960 0.000000
endloop
endfacet
facet normal 0.000000 0.000000 -1.000000
outer loop
vertex 0.005821 0.002960 0.000000
vertex 0.005679 0.003098 0.000000
vertex 0.007869 0.005255 0.000000
endloop
endfacet
facet normal 0.000000 0.000000 -1.000000
outer loop
vertex 0.005821 0.002960 0.000000
vertex 0.007869 0.005255 0.000000
vertex 0.007988 0.005105 0.000000
endloop
endfacet
facet normal 0.000000 0.000000 -1.000000
outer loop
vertex 0.006758 0.002033 0.000000
vertex 0.006623 0.002162 0.000000
vertex 0.005821 0.002960 0.000000
endloop
endfacet
facet normal 0.000000 0.000000 -1.000000
outer loop
vertex 0.007048 0.001766 0.000000
vertex 0.006899 0.001902 0.000000
vertex 0.006758 0.002033 0.000000
endloop
endfacet
facet normal 0.000000 0.000000 -1.000000
outer loop
vertex 0.007747 0.001155 0.000000
vertex 0.007207 0.001624 0.000000
vertex 0.007048 0.001766 0.000000
endloop
endfacet
facet normal 0.000000 0.000000 -1.000000
outer loop
vertex 0.008378 0.000588 0.000000
vertex 0.008232 0.000715 0.000000
vertex 0.007747 0.001155 0.000000
endloop
endfacet
facet normal 0.000000 0.000000 -1.000000
outer loop
vertex 0.008806 0.000284 0.000000
vertex 0.008663 0.000371 0.000000
vertex 0.008378 0.000588 0.000000
endloop
endfacet
facet normal 0.000000 0.000000 -1.000000
outer loop
vertex 0.009105 0.000163 0.000000
vertex 0.008953 0.000214 0.000000
vertex 0.008806 0.000284 0.000000
endloop
endfacet
facet normal 0.000000 0.000000 -1.000000
outer loop
vertex 0.009610 0.000112 0.000000
vertex 0.009267 0.000131 0.000000
vertex 0.009105 0.000163 0.000000
endloop
endfacet
facet normal 0.000000 0.000000 -1.000000
outer loop
vertex 0.010253 0.000000 0.000000
vertex 0.010152 0.000010 0.000000
vertex 0.009610 0.000112 0.000000
endloop
endfacet
facet normal 0.000000 0.000000 -1.000000
outer loop
vertex 0.010416 0.000045 0.000000
vertex 0.010341 0.000010 0.000000
vertex 0.010253 0.000000 0.000000
endloop
endfacet
facet normal 0.000000 0.000000 -1.000000
outer loop
vertex 0.010529 0.000222 0.000000
vertex 0.010479 0.000114 0.000000
vertex 0.010416 0.000045 0.000000
endloop
endfacet
facet normal 0.000000 0.000000 -1.000000
outer loop
vertex 0.010655 0.001362 0.000000
vertex 0.010566 0.000376 0.000000
vertex 0.010529 0.000222 0.000000
endloop
endfacet
facet normal 0.000000 0.000000 -1.000000
outer loop
vertex 0.010636 0.001677 0.000000
vertex 0.010654 0.001531 0.000000
vertex 0.010655 0.001362 0.000000
endloop
endfacet
facet normal 0.000000 0.000000 -1.000000
outer loop
vertex 0.010407 0.002487 0.000000
vertex 0.010454 0.002357 0.000000
vertex 0.010636 0.001677 0.000000
endloop
endfacet
facet normal 0.000000 0.000000 -1.000000
outer loop
vertex 0.010253 0.002742 0.000000
vertex 0.010344 0.002611 0.000000
vertex 0.010407 0.002487 0.000000
endloop
endfacet
facet normal 0.000000 0.000000 -1.000000
outer loop
vertex 0.008851 0.004122 0.000000
vertex 0.010253 0.002742 0.000000
vertex 0.010407 0.002487 0.000000
endloop
endfacet
facet normal 0.000000 0.000000 -1.000000
outer loop
vertex 0.010407 0.002487 0.000000
vertex 0.010636 0.001677 0.000000
vertex 0.010655 0.001362 0.000000
endloop
endfacet
facet normal 0.000000 0.000000 -1.000000
outer loop
vertex 0.010655 0.001362 0.000000
vertex 0.010529 0.000222 0.000000
vertex 0.010416 0.000045 0.000000
endloop
endfacet
facet normal 0.000000 0.000000 -1.000000
outer loop
vertex 0.010416 0.000045 0.000000
vertex 0.010253 0.000000 0.000000
vertex 0.009610 0.000112 0.000000
endloop
endfacet
facet normal 0.000000 0.000000 -1.000000
outer loop
vertex 0.009610 0.000112 0.000000
vertex 0.009105 0.000163 0.000000
vertex 0.008806 0.000284 0.000000
endloop
endfacet
facet normal 0.000000 0.000000 -1.000000
outer loop
vertex 0.008806 0.000284 0.000000
vertex 0.008378 0.000588 0.000000
vertex 0.007747 0.001155 0.000000
endloop
endfacet
facet normal 0.000000 0.000000 -1.000000
outer loop
vertex 0.007747 0.001155 0.000000
vertex 0.007048 0.001766 0.000000
vertex 0.006758 0.002033 0.000000
endloop
endfacet
facet normal 0.000000 0.000000 -1.000000
outer loop
vertex 0.006758 0.002033 0.000000
vertex 0.005821 0.002960 0.000000
vertex 0.007988 0.005105 0.000000
endloop
endfacet
facet normal 0.000000 0.000000 -1.000000
outer loop
vertex 0.006758 0.002033 0.000000
vertex 0.007988 0.005105 0.000000
vertex 0.008225 0.004825 0.000000
endloop
endfacet
facet normal 0.000000 0.000000 -1.000000
outer loop
vertex 0.008806 0.000284 0.000000
vertex 0.007747 0.001155 0.000000
vertex 0.006758 0.002033 0.000000
endloop
endfacet
facet normal 0.000000 0.000000 -1.000000
outer loop
vertex 0.010416 0.000045 0.000000
vertex 0.009610 0.000112 0.000000
vertex 0.008806 0.000284 0.000000
endloop
endfacet
facet normal 0.000000 0.000000 -1.000000
outer loop
vertex 0.010407 0.002487 0.000000
vertex 0.010655 0.001362 0.000000
vertex 0.010416 0.000045 0.000000
endloop
endfacet
facet normal 0.000000 0.000000 -1.000000
outer loop
vertex 0.006758 0.002033 0.000000
vertex 0.008225 0.004825 0.000000
vertex 0.008851 0.004122 0.000000
endloop
endfacet
facet normal 0.000000 0.000000 -1.000000
outer loop
vertex 0.008851 0.004122 0.000000
vertex 0.010407 0.002487 0.000000
vertex 0.010416 0.000045 0.000000
endloop
endfacet
facet normal 0.000000 0.000000 -1.000000
outer loop
vertex 0.010416 0.000045 0.000000
vertex 0.008806 0.000284 0.000000
vertex 0.006758 0.002033 0.000000
endloop
endfacet
facet normal 0.000000 0.000000 -1.000000
outer loop
vertex 0.008851 0.004122 0.000000
vertex 0.010416 0.000045 0.000000
vertex 0.006758 0.002033 0.000000
endloop
endfacet
facet normal -0.256818 0.966460 0.000000
outer loop
vertex 0.001400 0.009497 0.000000
vertex 0.001260 0.009460 0.000000
vertex 0.001260 0.009460 0.150000
endloop
endfacet
facet normal -0.256817 0.966460 0.000000
outer loop
vertex 0.001400 0.009497 0.000000
vertex 0.001260 0.009460 0.150000
vertex 0.001400 0.009497 0.150000
endloop
endfacet
facet normal -0.986944 0.161065 0.000000
outer loop
vertex 0.000088 0.008096 0.150000
vertex 0.000088 0.008096 0.000000
vertex 0.000011 0.007623 0.000000
endloop
endfacet
facet normal -0.986944 0.161065 0.000000
outer loop
vertex 0.000088 0.008096 0.150000
vertex 0.000011 0.007623 0.000000
vertex 0.000011 0.007623 0.150000
endloop
endfacet
facet normal -0.517759 -0.855527 0.000000
outer loop
vertex 0.008663 0.000371 0.150000
vertex 0.008663 0.000371 0.000000
vertex 0.008806 0.000284 0.000000
endloop
endfacet
facet normal -0.517759 -0.855527 0.000000
outer loop
vertex 0.008663 0.000371 0.150000
vertex 0.008806 0.000284 0.000000
vertex 0.008806 0.000284 0.150000
endloop
endfacet
facet normal -0.613197 -0.789930 0.000000
outer loop
vertex 0.005543 0.003220 0.000000
vertex 0.005543 0.003220 0.150000
vertex 0.005279 0.003424 0.150000
endloop
endfacet
facet normal -0.613199 -0.789928 0.000000
outer loop
vertex 0.005543 0.003220 0.000000
vertex 0.005279 0.003424 0.150000
vertex 0.005279 0.003424 0.000000
endloop
endfacet
facet normal 0.000000 0.000000 1.000000
outer loop
vertex 0.000449 0.006124 0.000000
vertex 0.000544 0.005969 0.000000
vertex 0.000641 0.005825 0.000000
endloop
endfacet
facet normal -0.828936 -0.559343 0.000000
outer loop
vertex 0.000641 0.005825 0.000000
vertex 0.000641 0.005825 0.150000
vertex 0.000544 0.005969 0.150000
endloop
endfacet
facet normal -0.852803 -0.522233 -0.000051
outer loop
vertex 0.000641 0.005825 0.000000
vertex 0.000544 0.005969 0.150000
vertex 0.000449 0.006124 0.150000
endloop
endfacet
facet normal 0.000000 0.000000 1.000000
outer loop
vertex 0.000353 0.006293 0.000000
vertex 0.000449 0.006124 0.000000
vertex 0.000641 0.005825 0.000000
endloop
endfacet
facet normal -0.884601 -0.466349 0.000000
outer loop
vertex 0.000150 0.006678 0.150000
vertex 0.000150 0.006678 0.000000
vertex 0.000353 0.006293 0.000000
endloop
endfacet
facet normal -0.869760 -0.493476 -0.000130
outer loop
vertex 0.000641 0.005825 0.000000
vertex 0.000449 0.006124 0.150000
vertex 0.000353 0.006293 0.150000
endloop
endfacet
facet normal -0.884601 -0.466349 0.000000
outer loop
vertex 0.000353 0.006293 0.150000
vertex 0.000150 0.006678 0.150000
vertex 0.000353 0.006293 0.000000
endloop
endfacet
facet normal -0.851730 -0.523981 0.000000
outer loop
vertex 0.000641 0.005825 0.000000
vertex 0.000353 0.006293 0.150000
vertex 0.000353 0.006293 0.000000
endloop
endfacet
facet normal 0.271705 0.962381 0.000000
outer loop
vertex 0.003731 0.009449 0.000000
vertex 0.003573 0.009494 0.000000
vertex 0.003573 0.009494 0.150000
endloop
endfacet
facet normal 0.271705 0.962381 0.000000
outer loop
vertex 0.003731 0.009449 0.000000
vertex 0.003573 0.009494 0.150000
vertex 0.003731 0.009449 0.150000
endloop
endfacet
facet normal 0.337678 0.941262 0.000000
outer loop
vertex 0.004192 0.009291 0.150000
vertex 0.004192 0.009291 0.000000
vertex 0.003888 0.009400 0.000000
endloop
endfacet
facet normal 0.299090 0.954225 0.000000
outer loop
vertex 0.003888 0.009400 0.000000
vertex 0.003731 0.009449 0.000000
vertex 0.003731 0.009449 0.150000
endloop
endfacet
facet normal 0.337678 0.941262 0.000000
outer loop
vertex 0.003888 0.009400 0.150000
vertex 0.004192 0.009291 0.150000
vertex 0.003888 0.009400 0.000000
endloop
endfacet
facet normal 0.299090 0.954225 0.000000
outer loop
vertex 0.003731 0.009449 0.150000
vertex 0.003888 0.009400 0.150000
vertex 0.003888 0.009400 0.000000
endloop
endfacet
facet normal -0.962968 0.269617 0.000000
outer loop
vertex 0.000201 0.008500 0.150000
vertex 0.000201 0.008500 0.000000
vertex 0.000088 0.008096 0.000000
endloop
endfacet
facet normal -0.962968 0.269617 0.000000
outer loop
vertex 0.000201 0.008500 0.150000
vertex 0.000088 0.008096 0.000000
vertex 0.000088 0.008096 0.150000
endloop
endfacet
facet normal -0.319789 -0.947489 0.000000
outer loop
vertex 0.008953 0.000214 0.150000
vertex 0.008953 0.000214 0.000000
vertex 0.009105 0.000163 0.000000
endloop
endfacet
facet normal -0.319789 -0.947489 0.000000
outer loop
vertex 0.008953 0.000214 0.150000
vertex 0.009105 0.000163 0.000000
vertex 0.009105 0.000163 0.150000
endloop
endfacet
facet normal -0.606522 -0.795067 0.000000
outer loop
vertex 0.008378 0.000588 0.150000
vertex 0.008378 0.000588 0.000000
vertex 0.008663 0.000371 0.000000
endloop
endfacet
facet normal -0.606522 -0.795067 0.000000
outer loop
vertex 0.008378 0.000588 0.150000
vertex 0.008663 0.000371 0.000000
vertex 0.008663 0.000371 0.150000
endloop
endfacet
facet normal -0.193291 -0.981141 0.000000
outer loop
vertex 0.009105 0.000163 0.150000
vertex 0.009105 0.000163 0.000000
vertex 0.009267 0.000131 0.000000
endloop
endfacet
facet normal -0.193295 -0.981141 0.000000
outer loop
vertex 0.009105 0.000163 0.150000
vertex 0.009267 0.000131 0.000000
vertex 0.009267 0.000131 0.150000
endloop
endfacet
facet normal -0.174917 0.984583 0.000000
outer loop
vertex 0.001499 0.009515 0.000000
vertex 0.001400 0.009497 0.000000
vertex 0.001400 0.009497 0.150000
endloop
endfacet
facet normal -0.174917 0.984583 0.000000
outer loop
vertex 0.001499 0.009515 0.000000
vertex 0.001400 0.009497 0.150000
vertex 0.001499 0.009515 0.150000
endloop
endfacet
facet normal -0.075174 0.997170 0.000000
outer loop
vertex 0.002705 0.009620 0.150000
vertex 0.002705 0.009620 0.000000
vertex 0.001738 0.009547 0.000000
endloop
endfacet
facet normal -0.133649 0.991029 0.000000
outer loop
vertex 0.001738 0.009547 0.000000
vertex 0.001499 0.009515 0.000000
vertex 0.001499 0.009515 0.150000
endloop
endfacet
facet normal -0.075174 0.997170 0.000000
outer loop
vertex 0.001738 0.009547 0.150000
vertex 0.002705 0.009620 0.150000
vertex 0.001738 0.009547 0.000000
endloop
endfacet
facet normal -0.133649 0.991029 0.000000
outer loop
vertex 0.001738 0.009547 0.000000
vertex 0.001499 0.009515 0.150000
vertex 0.001738 0.009547 0.150000
endloop
endfacet
facet normal 0.836145 0.548509 0.000000
outer loop
vertex 0.006379 0.007649 0.000000
vertex 0.006324 0.007733 0.000000
vertex 0.006324 0.007733 0.150000
endloop
endfacet
facet normal 0.836141 0.548514 0.000000
outer loop
vertex 0.006379 0.007649 0.000000
vertex 0.006324 0.007733 0.150000
vertex 0.006379 0.007649 0.150000
endloop
endfacet
facet normal 0.841683 0.539973 0.000000
outer loop
vertex 0.006445 0.007546 0.000000
vertex 0.006379 0.007649 0.000000
vertex 0.006379 0.007649 0.150000
endloop
endfacet
facet normal 0.841688 0.539964 0.000000
outer loop
vertex 0.006445 0.007546 0.000000
vertex 0.006379 0.007649 0.150000
vertex 0.006445 0.007546 0.150000
endloop
endfacet
facet normal 0.845489 0.533993 0.000000
outer loop
vertex 0.006522 0.007424 0.000000
vertex 0.006445 0.007546 0.000000
vertex 0.006445 0.007546 0.150000
endloop
endfacet
facet normal 0.845489 0.533993 0.000000
outer loop
vertex 0.006522 0.007424 0.000000
vertex 0.006445 0.007546 0.150000
vertex 0.006522 0.007424 0.150000
endloop
endfacet
facet normal 0.849746 0.527192 0.000000
outer loop
vertex 0.006701 0.007136 0.000000
vertex 0.006522 0.007424 0.000000
vertex 0.006522 0.007424 0.150000
endloop
endfacet
facet normal 0.849744 0.527195 0.000000
outer loop
vertex 0.006701 0.007136 0.000000
vertex 0.006522 0.007424 0.150000
vertex 0.006701 0.007136 0.150000
endloop
endfacet
facet normal 0.854306 0.519771 0.000000
outer loop
vertex 0.006902 0.006805 0.000000
vertex 0.006701 0.007136 0.000000
vertex 0.006701 0.007136 0.150000
endloop
endfacet
facet normal 0.854308 0.519768 0.000000
outer loop
vertex 0.006902 0.006805 0.000000
vertex 0.006701 0.007136 0.150000
vertex 0.006902 0.006805 0.150000
endloop
endfacet
facet normal 0.858674 0.512521 0.000000
outer loop
vertex 0.007115 0.006449 0.000000
vertex 0.006902 0.006805 0.000000
vertex 0.006902 0.006805 0.150000
endloop
endfacet
facet normal 0.858676 0.512519 0.000000
outer loop
vertex 0.007115 0.006449 0.000000
vertex 0.006902 0.006805 0.150000
vertex 0.007115 0.006449 0.150000
endloop
endfacet
facet normal 0.862225 0.506526 0.000000
outer loop
vertex 0.007221 0.006267 0.000000
vertex 0.007115 0.006449 0.000000
vertex 0.007115 0.006449 0.150000
endloop
endfacet
facet normal 0.862221 0.506532 0.000000
outer loop
vertex 0.007221 0.006267 0.000000
vertex 0.007115 0.006449 0.150000
vertex 0.007221 0.006267 0.150000
endloop
endfacet
facet normal 0.000000 0.000000 -1.000000
outer loop
vertex 0.007530 0.005737 0.000000
vertex 0.007427 0.005910 0.000000
vertex 0.007326 0.006087 0.000000
endloop
endfacet
facet normal 0.864910 0.501926 0.000000
outer loop
vertex 0.007326 0.006087 0.000000
vertex 0.007221 0.006267 0.000000
vertex 0.007221 0.006267 0.150000
endloop
endfacet
facet normal 0.864914 0.501921 0.000000
outer loop
vertex 0.007326 0.006087 0.000000
vertex 0.007221 0.006267 0.150000
vertex 0.007326 0.006087 0.150000
endloop
endfacet
facet normal 0.000000 0.000000 -1.000000
outer loop
vertex 0.007639 0.005571 0.000000
vertex 0.007530 0.005737 0.000000
vertex 0.007326 0.006087 0.000000
endloop
endfacet
facet normal 0.837152 0.546970 0.000000
outer loop
vertex 0.007530 0.005737 0.150000
vertex 0.007639 0.005571 0.150000
vertex 0.007639 0.005571 0.000000
endloop
endfacet
facet normal 0.867964 0.496627 0.000000
outer loop
vertex 0.007326 0.006087 0.000000
vertex 0.007326 0.006087 0.150000
vertex 0.007427 0.005910 0.150000
endloop
endfacet
facet normal 0.858612 0.512626 0.000054
outer loop
vertex 0.007427 0.005910 0.150000
vertex 0.007530 0.005737 0.150000
vertex 0.007639 0.005571 0.000000
endloop
endfacet
facet normal 0.854959 0.518695 0.000035
outer loop
vertex 0.007427 0.005910 0.150000
vertex 0.007639 0.005571 0.000000
vertex 0.007326 0.006087 0.000000
endloop
endfacet
facet normal 0.413182 0.910648 0.000000
outer loop
vertex 0.004613 0.009100 0.000000
vertex 0.004192 0.009291 0.000000
vertex 0.004192 0.009291 0.150000
endloop
endfacet
facet normal 0.413183 0.910648 0.000000
outer loop
vertex 0.004613 0.009100 0.000000
vertex 0.004192 0.009291 0.150000
vertex 0.004613 0.009100 0.150000
endloop
endfacet
facet normal 0.907353 -0.420369 0.000000
outer loop
vertex 0.010479 0.000114 0.150000
vertex 0.010479 0.000114 0.000000
vertex 0.010529 0.000222 0.000000
endloop
endfacet
facet normal 0.907348 -0.420380 0.000000
outer loop
vertex 0.010479 0.000114 0.150000
vertex 0.010529 0.000222 0.000000
vertex 0.010529 0.000222 0.150000
endloop
endfacet
facet normal -0.999071 0.043095 0.000000
outer loop
vertex 0.000011 0.007623 0.150000
vertex 0.000011 0.007623 0.000000
vertex 0.000000 0.007376 0.000000
endloop
endfacet
facet normal -0.999071 0.043095 0.000000
outer loop
vertex 0.000011 0.007623 0.150000
vertex 0.000000 0.007376 0.000000
vertex 0.000000 0.007376 0.150000
endloop
endfacet
facet normal 0.992011 0.126147 0.000000
outer loop
vertex 0.010654 0.001531 0.150000
vertex 0.010654 0.001531 0.000000
vertex 0.010636 0.001677 0.000000
endloop
endfacet
facet normal 0.992011 0.126147 0.000000
outer loop
vertex 0.010654 0.001531 0.150000
vertex 0.010636 0.001677 0.000000
vertex 0.010636 0.001677 0.150000
endloop
endfacet
facet normal 0.000000 0.000000 -1.000000
outer loop
vertex 0.007988 0.005105 0.000000
vertex 0.007869 0.005255 0.000000
vertex 0.007753 0.005410 0.000000
endloop
endfacet
facet normal 0.817195 0.576361 0.000000
outer loop
vertex 0.007753 0.005410 0.000000
vertex 0.007639 0.005571 0.000000
vertex 0.007639 0.005571 0.150000
endloop
endfacet
facet normal 0.817195 0.576361 0.000000
outer loop
vertex 0.007753 0.005410 0.000000
vertex 0.007639 0.005571 0.150000
vertex 0.007753 0.005410 0.150000
endloop
endfacet
facet normal 0.000000 0.000000 -1.000000
outer loop
vertex 0.008225 0.004825 0.000000
vertex 0.007988 0.005105 0.000000
vertex 0.007753 0.005410 0.000000
endloop
endfacet
facet normal 0.746715 0.665144 0.000000
outer loop
vertex 0.008851 0.004122 0.150000
vertex 0.008851 0.004122 0.000000
vertex 0.008225 0.004825 0.000000
endloop
endfacet
facet normal 0.746715 0.665144 0.000000
outer loop
vertex 0.008225 0.004825 0.150000
vertex 0.008851 0.004122 0.150000
vertex 0.008225 0.004825 0.000000
endloop
endfacet
facet normal 0.778036 0.628220 0.000000
outer loop
vertex 0.008225 0.004825 0.000000
vertex 0.007753 0.005410 0.000000
vertex 0.007753 0.005410 0.150000
endloop
endfacet
facet normal 0.799071 0.601237 0.000172
outer loop
vertex 0.008225 0.004825 0.000000
vertex 0.007753 0.005410 0.150000
vertex 0.007869 0.005255 0.150000
endloop
endfacet
facet normal 0.763888 0.645349 0.000000
outer loop
vertex 0.007988 0.005105 0.150000
vertex 0.008225 0.004825 0.150000
vertex 0.008225 0.004825 0.000000
endloop
endfacet
facet normal 0.783044 0.621966 0.000074
outer loop
vertex 0.007869 0.005255 0.150000
vertex 0.007988 0.005105 0.150000
vertex 0.008225 0.004825 0.000000
endloop
endfacet
facet normal 0.724107 0.689688 0.000000
outer loop
vertex 0.006257 0.007818 0.150000
vertex 0.006257 0.007818 0.000000
vertex 0.006155 0.007924 0.000000
endloop
endfacet
facet normal 0.724107 0.689688 0.000000
outer loop
vertex 0.006257 0.007818 0.150000
vertex 0.006155 0.007924 0.000000
vertex 0.006155 0.007924 0.150000
endloop
endfacet
facet normal 0.739509 -0.673147 0.000000
outer loop
vertex 0.010416 0.000045 0.150000
vertex 0.010416 0.000045 0.000000
vertex 0.010479 0.000114 0.000000
endloop
endfacet
facet normal 0.739501 -0.673156 0.000000
outer loop
vertex 0.010416 0.000045 0.150000
vertex 0.010479 0.000114 0.000000
vertex 0.010479 0.000114 0.150000
endloop
endfacet
facet normal 0.109196 -0.994020 0.000000
outer loop
vertex 0.010253 0.000000 0.150000
vertex 0.010253 0.000000 0.000000
vertex 0.010341 0.000010 0.000000
endloop
endfacet
facet normal 0.109196 -0.994020 0.000000
outer loop
vertex 0.010253 0.000000 0.150000
vertex 0.010341 0.000010 0.000000
vertex 0.010341 0.000010 0.150000
endloop
endfacet
facet normal -0.054414 -0.998518 0.000000
outer loop
vertex 0.009610 0.000112 0.000000
vertex 0.009610 0.000112 0.150000
vertex 0.009267 0.000131 0.150000
endloop
endfacet
facet normal -0.054413 -0.998518 0.000000
outer loop
vertex 0.009610 0.000112 0.000000
vertex 0.009267 0.000131 0.150000
vertex 0.009267 0.000131 0.000000
endloop
endfacet
facet normal -0.473290 -0.880907 0.000000
outer loop
vertex 0.001371 0.005149 0.150000
vertex 0.001371 0.005149 0.000000
vertex 0.001714 0.004964 0.000000
endloop
endfacet
facet normal -0.473290 -0.880907 0.000000
outer loop
vertex 0.001371 0.005149 0.150000
vertex 0.001714 0.004964 0.000000
vertex 0.001714 0.004964 0.150000
endloop
endfacet
facet normal -0.532604 -0.846364 0.000000
outer loop
vertex 0.005008 0.003595 0.150000
vertex 0.005008 0.003595 0.000000
vertex 0.005279 0.003424 0.000000
endloop
endfacet
facet normal -0.532605 -0.846364 0.000000
outer loop
vertex 0.005008 0.003595 0.150000
vertex 0.005279 0.003424 0.000000
vertex 0.005279 0.003424 0.150000
endloop
endfacet
facet normal 0.000000 0.000000 1.000000
outer loop
vertex 0.003261 0.009566 0.000000
vertex 0.003111 0.009592 0.000000
vertex 0.002967 0.009610 0.000000
endloop
endfacet
facet normal 0.125024 0.992154 0.000000
outer loop
vertex 0.002967 0.009610 0.000000
vertex 0.002967 0.009610 0.150000
vertex 0.003111 0.009592 0.150000
endloop
endfacet
facet normal 0.225528 0.974237 0.000000
outer loop
vertex 0.003261 0.009566 0.150000
vertex 0.003573 0.009494 0.150000
vertex 0.003573 0.009494 0.000000
endloop
endfacet
facet normal 0.170336 0.985386 -0.000044
outer loop
vertex 0.002967 0.009610 0.000000
vertex 0.003111 0.009592 0.150000
vertex 0.003261 0.009566 0.150000
endloop
endfacet
facet normal 0.000000 0.000000 1.000000
outer loop
vertex 0.003573 0.009494 0.000000
vertex 0.003261 0.009566 0.000000
vertex 0.002967 0.009610 0.000000
endloop
endfacet
facet normal 0.188445 0.982084 -0.000081
outer loop
vertex 0.002967 0.009610 0.000000
vertex 0.003261 0.009566 0.150000
vertex 0.003573 0.009494 0.000000
endloop
endfacet
facet normal -0.429798 -0.902925 0.000000
outer loop
vertex 0.008806 0.000284 0.150000
vertex 0.008806 0.000284 0.000000
vertex 0.008953 0.000214 0.000000
endloop
endfacet
facet normal -0.429790 -0.902929 0.000000
outer loop
vertex 0.008806 0.000284 0.150000
vertex 0.008953 0.000214 0.000000
vertex 0.008953 0.000214 0.150000
endloop
endfacet
facet normal 0.701546 0.712624 0.000000
outer loop
vertex 0.008851 0.004122 0.000000
vertex 0.008851 0.004122 0.150000
vertex 0.010253 0.002742 0.150000
endloop
endfacet
facet normal 0.701547 0.712623 0.000000
outer loop
vertex 0.008851 0.004122 0.000000
vertex 0.010253 0.002742 0.150000
vertex 0.010253 0.002742 0.000000
endloop
endfacet
facet normal 0.036831 0.999321 0.000000
outer loop
vertex 0.002967 0.009610 0.150000
vertex 0.002967 0.009610 0.000000
vertex 0.002705 0.009620 0.000000
endloop
endfacet
facet normal 0.036831 0.999322 0.000000
outer loop
vertex 0.002967 0.009610 0.150000
vertex 0.002705 0.009620 0.000000
vertex 0.002705 0.009620 0.150000
endloop
endfacet
facet normal 0.000000 0.000000 -1.000000
outer loop
vertex 0.007207 0.001624 0.000000
vertex 0.007747 0.001155 0.000000
vertex 0.008232 0.000715 0.000000
endloop
endfacet
facet normal -0.656673 -0.754176 0.000000
outer loop
vertex 0.008232 0.000715 0.000000
vertex 0.008378 0.000588 0.000000
vertex 0.008378 0.000588 0.150000
endloop
endfacet
facet normal -0.656665 -0.754183 0.000000
outer loop
vertex 0.008232 0.000715 0.000000
vertex 0.008378 0.000588 0.150000
vertex 0.008232 0.000715 0.150000
endloop
endfacet
facet normal -0.663160 -0.748478 0.000000
outer loop
vertex 0.007207 0.001624 0.000000
vertex 0.008232 0.000715 0.000000
vertex 0.008232 0.000715 0.150000
endloop
endfacet
facet normal -0.671966 -0.740582 0.000108
outer loop
vertex 0.007207 0.001624 0.000000
vertex 0.008232 0.000715 0.150000
vertex 0.007747 0.001155 0.150000
endloop
endfacet
facet normal -0.666549 -0.745461 0.000073
outer loop
vertex 0.007048 0.001766 0.000000
vertex 0.007207 0.001624 0.000000
vertex 0.007747 0.001155 0.150000
endloop
endfacet
facet normal -0.655015 -0.755616 -0.000022
outer loop
vertex 0.007048 0.001766 0.000000
vertex 0.007747 0.001155 0.150000
vertex 0.007207 0.001624 0.150000
endloop
endfacet
facet normal -0.674706 -0.738086 0.000016
outer loop
vertex 0.006899 0.001902 0.000000
vertex 0.007048 0.001766 0.000000
vertex 0.007207 0.001624 0.150000
endloop
endfacet
facet normal -0.666552 -0.745458 -0.000015
outer loop
vertex 0.006899 0.001902 0.000000
vertex 0.007207 0.001624 0.150000
vertex 0.007048 0.001766 0.150000
endloop
endfacet
facet normal -0.682657 -0.730739 0.000015
outer loop
vertex 0.006758 0.002033 0.000000
vertex 0.006899 0.001902 0.000000
vertex 0.007048 0.001766 0.150000
endloop
endfacet
facet normal -0.674706 -0.738086 -0.000014
outer loop
vertex 0.006758 0.002033 0.000000
vertex 0.007048 0.001766 0.150000
vertex 0.006899 0.001902 0.150000
endloop
endfacet
facet normal -0.690059 -0.723753 0.000013
outer loop
vertex 0.006623 0.002162 0.000000
vertex 0.006758 0.002033 0.000000
vertex 0.006899 0.001902 0.150000
endloop
endfacet
facet normal -0.682657 -0.730739 -0.000013
outer loop
vertex 0.006623 0.002162 0.000000
vertex 0.006899 0.001902 0.150000
vertex 0.006758 0.002033 0.150000
endloop
endfacet
facet normal 0.000000 0.000000 -1.000000
outer loop
vertex 0.005679 0.003098 0.000000
vertex 0.005821 0.002960 0.000000
vertex 0.006362 0.002418 0.000000
endloop
endfacet
facet normal -0.699268 -0.714860 0.000016
outer loop
vertex 0.006362 0.002418 0.000000
vertex 0.006623 0.002162 0.000000
vertex 0.006758 0.002033 0.150000
endloop
endfacet
facet normal -0.690061 -0.723751 -0.000031
outer loop
vertex 0.006362 0.002418 0.000000
vertex 0.006758 0.002033 0.150000
vertex 0.006623 0.002162 0.150000
endloop
endfacet
facet normal 0.000000 0.000000 -1.000000
outer loop
vertex 0.005543 0.003220 0.000000
vertex 0.005679 0.003098 0.000000
vertex 0.006362 0.002418 0.000000
endloop
endfacet
facet normal -0.666815 -0.745223 0.000000
outer loop
vertex 0.005679 0.003098 0.150000
vertex 0.005543 0.003220 0.150000
vertex 0.005543 0.003220 0.000000
endloop
endfacet
facet normal -0.695986 -0.718055 0.000048
outer loop
vertex 0.005821 0.002960 0.150000
vertex 0.005679 0.003098 0.150000
vertex 0.005543 0.003220 0.000000
endloop
endfacet
facet normal -0.699662 -0.714474 0.000001
outer loop
vertex 0.005543 0.003220 0.000000
vertex 0.006362 0.002418 0.000000
vertex 0.006623 0.002162 0.150000
endloop
endfacet
facet normal -0.708216 -0.705996 0.000092
outer loop
vertex 0.006362 0.002418 0.150000
vertex 0.005821 0.002960 0.150000
vertex 0.005543 0.003220 0.000000
endloop
endfacet
facet normal -0.699267 -0.714861 -0.000004
outer loop
vertex 0.006623 0.002162 0.150000
vertex 0.006362 0.002418 0.150000
vertex 0.005543 0.003220 0.000000
endloop
endfacet
facet normal -0.930637 -0.365942 0.000000
outer loop
vertex 0.000064 0.006898 0.150000
vertex 0.000064 0.006898 0.000000
vertex 0.000150 0.006678 0.000000
endloop
endfacet
facet normal -0.930637 -0.365942 0.000000
outer loop
vertex 0.000064 0.006898 0.150000
vertex 0.000150 0.006678 0.000000
vertex 0.000150 0.006678 0.150000
endloop
endfacet
facet normal -0.096915 -0.995293 0.000000
outer loop
vertex 0.010152 0.000010 0.150000
vertex 0.010152 0.000010 0.000000
vertex 0.010253 0.000000 0.000000
endloop
endfacet
facet normal -0.096915 -0.995293 0.000000
outer loop
vertex 0.010152 0.000010 0.150000
vertex 0.010253 0.000000 0.000000
vertex 0.010253 0.000000 0.150000
endloop
endfacet
facet normal 0.821614 0.570044 0.000000
outer loop
vertex 0.010344 0.002611 0.000000
vertex 0.010253 0.002742 0.000000
vertex 0.010253 0.002742 0.150000
endloop
endfacet
facet normal 0.821614 0.570044 0.000000
outer loop
vertex 0.010344 0.002611 0.000000
vertex 0.010253 0.002742 0.150000
vertex 0.010344 0.002611 0.150000
endloop
endfacet
facet normal 0.430482 -0.902599 0.000000
outer loop
vertex 0.010341 0.000010 0.150000
vertex 0.010341 0.000010 0.000000
vertex 0.010416 0.000045 0.000000
endloop
endfacet
facet normal 0.430482 -0.902599 0.000000
outer loop
vertex 0.010341 0.000010 0.150000
vertex 0.010416 0.000045 0.000000
vertex 0.010416 0.000045 0.150000
endloop
endfacet
facet normal -0.777675 -0.628666 0.000000
outer loop
vertex 0.000641 0.005825 0.000000
vertex 0.000847 0.005570 0.000000
vertex 0.000847 0.005570 0.150000
endloop
endfacet
facet normal -0.777675 -0.628666 0.000000
outer loop
vertex 0.000641 0.005825 0.000000
vertex 0.000847 0.005570 0.150000
vertex 0.000641 0.005825 0.150000
endloop
endfacet
facet normal -0.383814 -0.923410 0.000000
outer loop
vertex 0.001714 0.004964 0.150000
vertex 0.001714 0.004964 0.000000
vertex 0.005008 0.003595 0.000000
endloop
endfacet
facet normal -0.383814 -0.923410 0.000000
outer loop
vertex 0.001714 0.004964 0.150000
vertex 0.005008 0.003595 0.000000
vertex 0.005008 0.003595 0.150000
endloop
endfacet
facet normal -0.457994 0.888955 0.000000
outer loop
vertex 0.001260 0.009460 0.150000
vertex 0.001260 0.009460 0.000000
vertex 0.001125 0.009391 0.000000
endloop
endfacet
facet normal -0.457994 0.888955 0.000000
outer loop
vertex 0.001260 0.009460 0.150000
vertex 0.001125 0.009391 0.000000
vertex 0.001125 0.009391 0.150000
endloop
endfacet
facet normal 0.890339 0.455299 0.000000
outer loop
vertex 0.010407 0.002487 0.000000
vertex 0.010344 0.002611 0.000000
vertex 0.010344 0.002611 0.150000
endloop
endfacet
facet normal 0.890343 0.455290 0.000000
outer loop
vertex 0.010407 0.002487 0.000000
vertex 0.010344 0.002611 0.150000
vertex 0.010407 0.002487 0.150000
endloop
endfacet
facet normal -0.979666 -0.200637 0.000000
outer loop
vertex 0.000016 0.007132 0.150000
vertex 0.000016 0.007132 0.000000
vertex 0.000064 0.006898 0.000000
endloop
endfacet
facet normal -0.979666 -0.200637 0.000000
outer loop
vertex 0.000016 0.007132 0.150000
vertex 0.000064 0.006898 0.000000
vertex 0.000064 0.006898 0.150000
endloop
endfacet
facet normal -0.572651 -0.819800 0.000000
outer loop
vertex 0.001085 0.005349 0.150000
vertex 0.001085 0.005349 0.000000
vertex 0.001371 0.005149 0.000000
endloop
endfacet
facet normal -0.572650 -0.819800 0.000000
outer loop
vertex 0.001085 0.005349 0.150000
vertex 0.001371 0.005149 0.000000
vertex 0.001371 0.005149 0.150000
endloop
endfacet
facet normal -0.185547 -0.982635 0.000000
outer loop
vertex 0.009610 0.000112 0.000000
vertex 0.010152 0.000010 0.000000
vertex 0.010152 0.000010 0.150000
endloop
endfacet
facet normal -0.185547 -0.982635 0.000000
outer loop
vertex 0.009610 0.000112 0.000000
vertex 0.010152 0.000010 0.150000
vertex 0.009610 0.000112 0.150000
endloop
endfacet
facet normal 0.971047 -0.238888 0.000000
outer loop
vertex 0.010529 0.000222 0.150000
vertex 0.010529 0.000222 0.000000
vertex 0.010566 0.000376 0.000000
endloop
endfacet
facet normal 0.971047 -0.238888 0.000000
outer loop
vertex 0.010529 0.000222 0.150000
vertex 0.010566 0.000376 0.000000
vertex 0.010566 0.000376 0.150000
endloop
endfacet
facet normal 0.995992 -0.089443 0.000000
outer loop
vertex 0.010566 0.000376 0.000000
vertex 0.010655 0.001362 0.000000
vertex 0.010655 0.001362 0.150000
endloop
endfacet
facet normal 0.995992 -0.089443 0.000000
outer loop
vertex 0.010566 0.000376 0.000000
vertex 0.010655 0.001362 0.150000
vertex 0.010566 0.000376 0.150000
endloop
endfacet
facet normal -0.935077 0.354445 0.000000
outer loop
vertex 0.000347 0.008886 0.000000
vertex 0.000201 0.008500 0.000000
vertex 0.000201 0.008500 0.150000
endloop
endfacet
facet normal -0.935077 0.354445 0.000000
outer loop
vertex 0.000347 0.008886 0.000000
vertex 0.000201 0.008500 0.150000
vertex 0.000347 0.008886 0.150000
endloop
endfacet
facet normal 0.966286 0.257470 0.000000
outer loop
vertex 0.010636 0.001677 0.000000
vertex 0.010454 0.002357 0.000000
vertex 0.010454 0.002357 0.150000
endloop
endfacet
facet normal 0.966286 0.257470 0.000000
outer loop
vertex 0.010636 0.001677 0.000000
vertex 0.010454 0.002357 0.150000
vertex 0.010636 0.001677 0.150000
endloop
endfacet
facet normal 0.625499 0.780225 0.000000
outer loop
vertex 0.006155 0.007924 0.000000
vertex 0.004953 0.008888 0.000000
vertex 0.004953 0.008888 0.150000
endloop
endfacet
facet normal 0.625499 0.780225 0.000000
outer loop
vertex 0.006155 0.007924 0.000000
vertex 0.004953 0.008888 0.150000
vertex 0.006155 0.007924 0.150000
endloop
endfacet
endsolid Exported from Blender-3.6.8
