solid Exported from Blender-3.6.8
facet normal -0.769713 0.638390 0.000000
outer loop
vertex 0.000910 0.005377 0.150000
vertex 0.000910 0.005377 0.000000
vertex 0.000766 0.005202 0.000000
endloop
endfacet
facet normal -0.769713 0.638390 0.000000
outer loop
vertex 0.000910 0.005377 0.150000
vertex 0.000766 0.005202 0.000000
vertex 0.000766 0.005202 0.150000
endloop
endfacet
facet normal -0.358123 -0.933675 0.000000
outer loop
vertex 0.001628 0.000058 0.000000
vertex 0.001727 0.000020 0.000000
vertex 0.001727 0.000020 0.150000
endloop
endfacet
facet normal -0.358124 -0.933674 0.000000
outer loop
vertex 0.001628 0.000058 0.000000
vertex 0.001727 0.000020 0.150000
vertex 0.001628 0.000058 0.150000
endloop
endfacet
facet normal -0.441548 -0.897237 0.000000
outer loop
vertex 0.001525 0.000109 0.000000
vertex 0.001628 0.000058 0.000000
vertex 0.001628 0.000058 0.150000
endloop
endfacet
facet normal -0.441550 -0.897237 0.000000
outer loop
vertex 0.001525 0.000109 0.000000
vertex 0.001628 0.000058 0.150000
vertex 0.001525 0.000109 0.150000
endloop
endfacet
facet normal -0.416586 -0.909096 0.000000
outer loop
vertex 0.001285 0.000225 0.150000
vertex 0.001285 0.000225 0.000000
vertex 0.001412 0.000167 0.000000
endloop
endfacet
facet normal -0.455165 -0.890407 0.000000
outer loop
vertex 0.001412 0.000167 0.000000
vertex 0.001525 0.000109 0.000000
vertex 0.001525 0.000109 0.150000
endloop
endfacet
facet normal -0.416586 -0.909096 0.000000
outer loop
vertex 0.001412 0.000167 0.150000
vertex 0.001285 0.000225 0.150000
vertex 0.001412 0.000167 0.000000
endloop
endfacet
facet normal -0.455166 -0.890407 0.000000
outer loop
vertex 0.001412 0.000167 0.000000
vertex 0.001525 0.000109 0.150000
vertex 0.001412 0.000167 0.150000
endloop
endfacet
facet normal -0.937132 -0.348974 0.000000
outer loop
vertex 0.000299 0.001210 0.000000
vertex 0.000360 0.001046 0.000000
vertex 0.000360 0.001046 0.150000
endloop
endfacet
facet normal -0.937132 -0.348974 0.000000
outer loop
vertex 0.000299 0.001210 0.000000
vertex 0.000360 0.001046 0.150000
vertex 0.000299 0.001210 0.150000
endloop
endfacet
facet normal -0.947907 -0.318547 0.000000
outer loop
vertex 0.000238 0.001393 0.000000
vertex 0.000299 0.001210 0.000000
vertex 0.000299 0.001210 0.150000
endloop
endfacet
facet normal -0.947907 -0.318547 0.000000
outer loop
vertex 0.000238 0.001393 0.000000
vertex 0.000299 0.001210 0.150000
vertex 0.000238 0.001393 0.150000
endloop
endfacet
facet normal -0.969588 -0.244742 0.000000
outer loop
vertex 0.000044 0.002055 0.150000
vertex 0.000044 0.002055 0.000000
vertex 0.000104 0.001820 0.000000
endloop
endfacet
facet normal -0.954025 -0.299726 0.000000
outer loop
vertex 0.000104 0.001820 0.000000
vertex 0.000238 0.001393 0.000000
vertex 0.000238 0.001393 0.150000
endloop
endfacet
facet normal -0.969588 -0.244742 0.000000
outer loop
vertex 0.000104 0.001820 0.150000
vertex 0.000044 0.002055 0.150000
vertex 0.000104 0.001820 0.000000
endloop
endfacet
facet normal -0.954025 -0.299726 0.000000
outer loop
vertex 0.000104 0.001820 0.000000
vertex 0.000238 0.001393 0.150000
vertex 0.000104 0.001820 0.150000
endloop
endfacet
facet normal 0.000000 0.000000 -1.000000
outer loop
vertex 0.001934 0.000007 0.000000
vertex 0.001827 0.000001 0.000000
vertex 0.001727 0.000020 0.000000
endloop
endfacet
facet normal 0.000000 0.000000 -1.000000
outer loop
vertex 0.001727 0.000020 0.000000
vertex 0.001628 0.000058 0.000000
vertex 0.001525 0.000109 0.000000
endloop
endfacet
facet normal 0.000000 0.000000 -1.000000
outer loop
vertex 0.001727 0.000020 0.000000
vertex 0.001525 0.000109 0.000000
vertex 0.001412 0.000167 0.000000
endloop
endfacet
facet normal 0.000000 0.000000 -1.000000
outer loop
vertex 0.002053 0.000043 0.000000
vertex 0.001934 0.000007 0.000000
vertex 0.001727 0.000020 0.000000
endloop
endfacet
facet normal 0.000000 0.000000 -1.000000
outer loop
vertex 0.002347 0.000232 0.000000
vertex 0.002189 0.000116 0.000000
vertex 0.002053 0.000043 0.000000
endloop
endfacet
facet normal 0.000000 0.000000 -1.000000
outer loop
vertex 0.003982 0.001934 0.000000
vertex 0.002533 0.000396 0.000000
vertex 0.002347 0.000232 0.000000
endloop
endfacet
facet normal 0.000000 0.000000 -1.000000
outer loop
vertex 0.004503 0.002635 0.000000
vertex 0.004372 0.002443 0.000000
vertex 0.003982 0.001934 0.000000
endloop
endfacet
facet normal 0.000000 0.000000 -1.000000
outer loop
vertex 0.005240 0.003783 0.000000
vertex 0.005135 0.003614 0.000000
vertex 0.004503 0.002635 0.000000
endloop
endfacet
facet normal 0.000000 0.000000 -1.000000
outer loop
vertex 0.005424 0.004111 0.000000
vertex 0.005337 0.003948 0.000000
vertex 0.005240 0.003783 0.000000
endloop
endfacet
facet normal 0.000000 0.000000 -1.000000
outer loop
vertex 0.005675 0.004804 0.000000
vertex 0.005570 0.004444 0.000000
vertex 0.005424 0.004111 0.000000
endloop
endfacet
facet normal 0.000000 0.000000 -1.000000
outer loop
vertex 0.005887 0.006131 0.000000
vertex 0.005871 0.005997 0.000000
vertex 0.005675 0.004804 0.000000
endloop
endfacet
facet normal 0.000000 0.000000 -1.000000
outer loop
vertex 0.005895 0.006509 0.000000
vertex 0.005896 0.006260 0.000000
vertex 0.005887 0.006131 0.000000
endloop
endfacet
facet normal 0.000000 0.000000 -1.000000
outer loop
vertex 0.005859 0.006755 0.000000
vertex 0.005881 0.006632 0.000000
vertex 0.005895 0.006509 0.000000
endloop
endfacet
facet normal 0.000000 0.000000 -1.000000
outer loop
vertex 0.005730 0.007360 0.000000
vertex 0.005751 0.007274 0.000000
vertex 0.005859 0.006755 0.000000
endloop
endfacet
facet normal 0.000000 0.000000 -1.000000
outer loop
vertex 0.005644 0.007606 0.000000
vertex 0.005706 0.007444 0.000000
vertex 0.005730 0.007360 0.000000
endloop
endfacet
facet normal 0.000000 0.000000 -1.000000
outer loop
vertex 0.005449 0.007945 0.000000
vertex 0.005644 0.007606 0.000000
vertex 0.005730 0.007360 0.000000
endloop
endfacet
facet normal 0.000000 0.000000 -1.000000
outer loop
vertex 0.005730 0.007360 0.000000
vertex 0.005859 0.006755 0.000000
vertex 0.005895 0.006509 0.000000
endloop
endfacet
facet normal 0.000000 0.000000 -1.000000
outer loop
vertex 0.005895 0.006509 0.000000
vertex 0.005887 0.006131 0.000000
vertex 0.005675 0.004804 0.000000
endloop
endfacet
facet normal 0.000000 0.000000 -1.000000
outer loop
vertex 0.005675 0.004804 0.000000
vertex 0.005424 0.004111 0.000000
vertex 0.005240 0.003783 0.000000
endloop
endfacet
facet normal 0.000000 0.000000 -1.000000
outer loop
vertex 0.005240 0.003783 0.000000
vertex 0.004503 0.002635 0.000000
vertex 0.003982 0.001934 0.000000
endloop
endfacet
facet normal 0.000000 0.000000 -1.000000
outer loop
vertex 0.003982 0.001934 0.000000
vertex 0.002347 0.000232 0.000000
vertex 0.002053 0.000043 0.000000
endloop
endfacet
facet normal 0.000000 0.000000 -1.000000
outer loop
vertex 0.002053 0.000043 0.000000
vertex 0.001727 0.000020 0.000000
vertex 0.001412 0.000167 0.000000
endloop
endfacet
facet normal 0.000000 0.000000 -1.000000
outer loop
vertex 0.001285 0.000225 0.000000
vertex 0.000989 0.000332 0.000000
vertex 0.000860 0.000395 0.000000
endloop
endfacet
facet normal 0.000000 0.000000 -1.000000
outer loop
vertex 0.002053 0.000043 0.000000
vertex 0.001412 0.000167 0.000000
vertex 0.001285 0.000225 0.000000
endloop
endfacet
facet normal 0.000000 0.000000 -1.000000
outer loop
vertex 0.005240 0.003783 0.000000
vertex 0.003982 0.001934 0.000000
vertex 0.002053 0.000043 0.000000
endloop
endfacet
facet normal 0.000000 0.000000 -1.000000
outer loop
vertex 0.005895 0.006509 0.000000
vertex 0.005675 0.004804 0.000000
vertex 0.005240 0.003783 0.000000
endloop
endfacet
facet normal 0.000000 0.000000 -1.000000
outer loop
vertex 0.005449 0.007945 0.000000
vertex 0.005730 0.007360 0.000000
vertex 0.005895 0.006509 0.000000
endloop
endfacet
facet normal 0.000000 0.000000 -1.000000
outer loop
vertex 0.005418 0.008026 0.000000
vertex 0.005449 0.007945 0.000000
vertex 0.005895 0.006509 0.000000
endloop
endfacet
facet normal 0.000000 0.000000 -1.000000
outer loop
vertex 0.005895 0.006509 0.000000
vertex 0.005240 0.003783 0.000000
vertex 0.002053 0.000043 0.000000
endloop
endfacet
facet normal 0.000000 0.000000 -1.000000
outer loop
vertex 0.002053 0.000043 0.000000
vertex 0.001285 0.000225 0.000000
vertex 0.000860 0.000395 0.000000
endloop
endfacet
facet normal 0.000000 0.000000 -1.000000
outer loop
vertex 0.000860 0.000395 0.000000
vertex 0.000748 0.000469 0.000000
vertex 0.000651 0.000556 0.000000
endloop
endfacet
facet normal 0.000000 0.000000 -1.000000
outer loop
vertex 0.000651 0.000556 0.000000
vertex 0.000567 0.000656 0.000000
vertex 0.000491 0.000770 0.000000
endloop
endfacet
facet normal 0.000000 0.000000 -1.000000
outer loop
vertex 0.000491 0.000770 0.000000
vertex 0.000360 0.001046 0.000000
vertex 0.000299 0.001210 0.000000
endloop
endfacet
facet normal 0.000000 0.000000 -1.000000
outer loop
vertex 0.000299 0.001210 0.000000
vertex 0.000238 0.001393 0.000000
vertex 0.000104 0.001820 0.000000
endloop
endfacet
facet normal 0.000000 0.000000 -1.000000
outer loop
vertex 0.000104 0.001820 0.000000
vertex 0.000044 0.002055 0.000000
vertex 0.000011 0.002291 0.000000
endloop
endfacet
facet normal 0.000000 0.000000 -1.000000
outer loop
vertex 0.000011 0.002291 0.000000
vertex -0.000000 0.002527 0.000000
vertex 0.000036 0.003000 0.000000
endloop
endfacet
facet normal 0.000000 0.000000 -1.000000
outer loop
vertex 0.000036 0.003000 0.000000
vertex 0.000128 0.003470 0.000000
vertex 0.000189 0.003702 0.000000
endloop
endfacet
facet normal 0.000000 0.000000 -1.000000
outer loop
vertex 0.000189 0.003702 0.000000
vertex 0.000255 0.003933 0.000000
vertex 0.000324 0.004161 0.000000
endloop
endfacet
facet normal 0.000000 0.000000 -1.000000
outer loop
vertex 0.000393 0.004387 0.000000
vertex 0.000459 0.004609 0.000000
vertex 0.000536 0.004821 0.000000
endloop
endfacet
facet normal 0.000000 0.000000 -1.000000
outer loop
vertex 0.000189 0.003702 0.000000
vertex 0.000324 0.004161 0.000000
vertex 0.000393 0.004387 0.000000
endloop
endfacet
facet normal 0.000000 0.000000 -1.000000
outer loop
vertex 0.000011 0.002291 0.000000
vertex 0.000036 0.003000 0.000000
vertex 0.000189 0.003702 0.000000
endloop
endfacet
facet normal 0.000000 0.000000 -1.000000
outer loop
vertex 0.000299 0.001210 0.000000
vertex 0.000104 0.001820 0.000000
vertex 0.000011 0.002291 0.000000
endloop
endfacet
facet normal 0.000000 0.000000 -1.000000
outer loop
vertex 0.000651 0.000556 0.000000
vertex 0.000491 0.000770 0.000000
vertex 0.000299 0.001210 0.000000
endloop
endfacet
facet normal 0.000000 0.000000 -1.000000
outer loop
vertex 0.002053 0.000043 0.000000
vertex 0.000860 0.000395 0.000000
vertex 0.000651 0.000556 0.000000
endloop
endfacet
facet normal 0.000000 0.000000 -1.000000
outer loop
vertex 0.005418 0.008026 0.000000
vertex 0.005895 0.006509 0.000000
vertex 0.002053 0.000043 0.000000
endloop
endfacet
facet normal 0.000000 0.000000 -1.000000
outer loop
vertex 0.005363 0.008321 0.000000
vertex 0.005378 0.008280 0.000000
vertex 0.005400 0.008101 0.000000
endloop
endfacet
facet normal 0.000000 0.000000 -1.000000
outer loop
vertex 0.005400 0.008101 0.000000
vertex 0.005418 0.008026 0.000000
vertex 0.002053 0.000043 0.000000
endloop
endfacet
facet normal 0.000000 0.000000 -1.000000
outer loop
vertex 0.002053 0.000043 0.000000
vertex 0.000651 0.000556 0.000000
vertex 0.000299 0.001210 0.000000
endloop
endfacet
facet normal 0.000000 0.000000 -1.000000
outer loop
vertex 0.000299 0.001210 0.000000
vertex 0.000011 0.002291 0.000000
vertex 0.000189 0.003702 0.000000
endloop
endfacet
facet normal 0.000000 0.000000 -1.000000
outer loop
vertex 0.000189 0.003702 0.000000
vertex 0.000393 0.004387 0.000000
vertex 0.000536 0.004821 0.000000
endloop
endfacet
facet normal 0.000000 0.000000 -1.000000
outer loop
vertex 0.000536 0.004821 0.000000
vertex 0.000640 0.005018 0.000000
vertex 0.000766 0.005202 0.000000
endloop
endfacet
facet normal 0.000000 0.000000 -1.000000
outer loop
vertex 0.000766 0.005202 0.000000
vertex 0.000910 0.005377 0.000000
vertex 0.002135 0.006549 0.000000
endloop
endfacet
facet normal 0.000000 0.000000 -1.000000
outer loop
vertex 0.002135 0.006549 0.000000
vertex 0.002295 0.006742 0.000000
vertex 0.003016 0.007362 0.000000
endloop
endfacet
facet normal 0.000000 0.000000 -1.000000
outer loop
vertex 0.000766 0.005202 0.000000
vertex 0.002135 0.006549 0.000000
vertex 0.003016 0.007362 0.000000
endloop
endfacet
facet normal 0.000000 0.000000 -1.000000
outer loop
vertex 0.000189 0.003702 0.000000
vertex 0.000536 0.004821 0.000000
vertex 0.000766 0.005202 0.000000
endloop
endfacet
facet normal 0.000000 0.000000 -1.000000
outer loop
vertex 0.002053 0.000043 0.000000
vertex 0.000299 0.001210 0.000000
vertex 0.000189 0.003702 0.000000
endloop
endfacet
facet normal 0.000000 0.000000 -1.000000
outer loop
vertex 0.005363 0.008321 0.000000
vertex 0.005400 0.008101 0.000000
vertex 0.002053 0.000043 0.000000
endloop
endfacet
facet normal 0.000000 0.000000 -1.000000
outer loop
vertex 0.005294 0.008371 0.000000
vertex 0.005337 0.008352 0.000000
vertex 0.005363 0.008321 0.000000
endloop
endfacet
facet normal 0.000000 0.000000 -1.000000
outer loop
vertex 0.005135 0.008372 0.000000
vertex 0.005228 0.008378 0.000000
vertex 0.005294 0.008371 0.000000
endloop
endfacet
facet normal 0.000000 0.000000 -1.000000
outer loop
vertex 0.004259 0.008209 0.000000
vertex 0.004377 0.008246 0.000000
vertex 0.005135 0.008372 0.000000
endloop
endfacet
facet normal 0.000000 0.000000 -1.000000
outer loop
vertex 0.003429 0.007778 0.000000
vertex 0.003551 0.007856 0.000000
vertex 0.004259 0.008209 0.000000
endloop
endfacet
facet normal 0.000000 0.000000 -1.000000
outer loop
vertex 0.003315 0.007677 0.000000
vertex 0.003371 0.007731 0.000000
vertex 0.003429 0.007778 0.000000
endloop
endfacet
facet normal 0.000000 0.000000 -1.000000
outer loop
vertex 0.003194 0.007539 0.000000
vertex 0.003315 0.007677 0.000000
vertex 0.003429 0.007778 0.000000
endloop
endfacet
facet normal 0.000000 0.000000 -1.000000
outer loop
vertex 0.003429 0.007778 0.000000
vertex 0.004259 0.008209 0.000000
vertex 0.005135 0.008372 0.000000
endloop
endfacet
facet normal 0.000000 0.000000 -1.000000
outer loop
vertex 0.005135 0.008372 0.000000
vertex 0.005294 0.008371 0.000000
vertex 0.005363 0.008321 0.000000
endloop
endfacet
facet normal 0.000000 0.000000 -1.000000
outer loop
vertex 0.005363 0.008321 0.000000
vertex 0.002053 0.000043 0.000000
vertex 0.000189 0.003702 0.000000
endloop
endfacet
facet normal 0.000000 0.000000 -1.000000
outer loop
vertex 0.000189 0.003702 0.000000
vertex 0.000766 0.005202 0.000000
vertex 0.003016 0.007362 0.000000
endloop
endfacet
facet normal 0.000000 0.000000 -1.000000
outer loop
vertex 0.003112 0.007454 0.000000
vertex 0.003194 0.007539 0.000000
vertex 0.003429 0.007778 0.000000
endloop
endfacet
facet normal 0.000000 0.000000 -1.000000
outer loop
vertex 0.000189 0.003702 0.000000
vertex 0.003016 0.007362 0.000000
vertex 0.003112 0.007454 0.000000
endloop
endfacet
facet normal 0.000000 0.000000 -1.000000
outer loop
vertex 0.005135 0.008372 0.000000
vertex 0.005363 0.008321 0.000000
vertex 0.000189 0.003702 0.000000
endloop
endfacet
facet normal 0.000000 0.000000 -1.000000
outer loop
vertex 0.003112 0.007454 0.000000
vertex 0.003429 0.007778 0.000000
vertex 0.005135 0.008372 0.000000
endloop
endfacet
facet normal 0.000000 0.000000 -1.000000
outer loop
vertex 0.000189 0.003702 0.000000
vertex 0.003112 0.007454 0.000000
vertex 0.005135 0.008372 0.000000
endloop
endfacet
facet normal -0.440689 -0.897660 0.000000
outer loop
vertex 0.000860 0.000395 0.150000
vertex 0.000860 0.000395 0.000000
vertex 0.000989 0.000332 0.000000
endloop
endfacet
facet normal -0.440689 -0.897660 0.000000
outer loop
vertex 0.000860 0.000395 0.150000
vertex 0.000989 0.000332 0.000000
vertex 0.000989 0.000332 0.150000
endloop
endfacet
facet normal -0.298943 0.954271 0.000000
outer loop
vertex 0.004377 0.008246 0.150000
vertex 0.004377 0.008246 0.000000
vertex 0.004259 0.008209 0.000000
endloop
endfacet
facet normal -0.298941 0.954271 0.000000
outer loop
vertex 0.004377 0.008246 0.150000
vertex 0.004259 0.008209 0.000000
vertex 0.004259 0.008209 0.150000
endloop
endfacet
facet normal -0.188349 -0.982102 0.000000
outer loop
vertex 0.001727 0.000020 0.150000
vertex 0.001727 0.000020 0.000000
vertex 0.001827 0.000001 0.000000
endloop
endfacet
facet normal -0.188350 -0.982102 0.000000
outer loop
vertex 0.001727 0.000020 0.150000
vertex 0.001827 0.000001 0.000000
vertex 0.001827 0.000001 0.150000
endloop
endfacet
facet normal 0.972911 0.231180 0.000000
outer loop
vertex 0.005418 0.008026 0.150000
vertex 0.005418 0.008026 0.000000
vertex 0.005400 0.008101 0.000000
endloop
endfacet
facet normal 0.972909 0.231190 0.000000
outer loop
vertex 0.005418 0.008026 0.150000
vertex 0.005400 0.008101 0.000000
vertex 0.005400 0.008101 0.150000
endloop
endfacet
facet normal 0.001120 0.000000 0.999999
outer loop
vertex 0.005400 0.008101 0.150000
vertex 0.005378 0.008280 0.150000
vertex 0.005363 0.008321 0.150000
endloop
endfacet
facet normal -0.000551 0.000000 1.000000
outer loop
vertex 0.005363 0.008321 0.150000
vertex 0.005337 0.008352 0.150000
vertex 0.005294 0.008371 0.150000
endloop
endfacet
facet normal -0.000108 0.000000 1.000000
outer loop
vertex 0.005294 0.008371 0.150000
vertex 0.005228 0.008378 0.150000
vertex 0.005135 0.008372 0.150000
endloop
endfacet
facet normal 0.000069 0.000000 1.000000
outer loop
vertex 0.005135 0.008372 0.150000
vertex 0.004377 0.008246 0.150000
vertex 0.004259 0.008209 0.150000
endloop
endfacet
facet normal 0.000590 0.000000 1.000000
outer loop
vertex 0.004259 0.008209 0.150000
vertex 0.003551 0.007856 0.150000
vertex 0.003429 0.007778 0.150000
endloop
endfacet
facet normal 0.000000 0.000000 1.000000
outer loop
vertex 0.003429 0.007778 0.150000
vertex 0.003371 0.007731 0.150000
vertex 0.003315 0.007677 0.150000
endloop
endfacet
facet normal 0.001016 0.000000 0.999999
outer loop
vertex 0.003429 0.007778 0.150000
vertex 0.003315 0.007677 0.150000
vertex 0.003194 0.007539 0.150000
endloop
endfacet
facet normal 0.000000 0.000000 1.000000
outer loop
vertex 0.005135 0.008372 0.150000
vertex 0.004259 0.008209 0.150000
vertex 0.003429 0.007778 0.150000
endloop
endfacet
facet normal 0.000022 0.000000 1.000000
outer loop
vertex 0.005363 0.008321 0.150000
vertex 0.005294 0.008371 0.150000
vertex 0.005135 0.008372 0.150000
endloop
endfacet
facet normal -0.000075 0.000000 1.000000
outer loop
vertex 0.005400 0.008101 0.150000
vertex 0.005363 0.008321 0.150000
vertex 0.005135 0.008372 0.150000
endloop
endfacet
facet normal -0.000054 0.000000 1.000000
outer loop
vertex 0.005135 0.008372 0.150000
vertex 0.003429 0.007778 0.150000
vertex 0.003194 0.007539 0.150000
endloop
endfacet
facet normal 0.000076 0.000000 1.000000
outer loop
vertex 0.005135 0.008372 0.150000
vertex 0.003194 0.007539 0.150000
vertex 0.003112 0.007454 0.150000
endloop
endfacet
facet normal 0.000000 0.000000 1.000000
outer loop
vertex 0.005418 0.008026 0.150000
vertex 0.005400 0.008101 0.150000
vertex 0.005135 0.008372 0.150000
endloop
endfacet
facet normal -0.000677 0.000000 1.000000
outer loop
vertex 0.005706 0.007444 0.150000
vertex 0.005644 0.007606 0.150000
vertex 0.005449 0.007945 0.150000
endloop
endfacet
facet normal 0.000000 0.000000 1.000000
outer loop
vertex 0.005449 0.007945 0.150000
vertex 0.005418 0.008026 0.150000
vertex 0.005135 0.008372 0.150000
endloop
endfacet
facet normal 0.000185 0.000000 1.000000
outer loop
vertex 0.005135 0.008372 0.150000
vertex 0.003112 0.007454 0.150000
vertex 0.003016 0.007362 0.150000
endloop
endfacet
facet normal 0.000092 0.000000 1.000000
outer loop
vertex 0.003016 0.007362 0.150000
vertex 0.002295 0.006742 0.150000
vertex 0.002135 0.006549 0.150000
endloop
endfacet
facet normal -0.000083 0.000000 1.000000
outer loop
vertex 0.002135 0.006549 0.150000
vertex 0.000910 0.005377 0.150000
vertex 0.000766 0.005202 0.150000
endloop
endfacet
facet normal -0.000638 0.000000 1.000000
outer loop
vertex 0.000766 0.005202 0.150000
vertex 0.000640 0.005018 0.150000
vertex 0.000536 0.004821 0.150000
endloop
endfacet
facet normal 0.000000 0.000000 1.000000
outer loop
vertex 0.000536 0.004821 0.150000
vertex 0.000459 0.004609 0.150000
vertex 0.000393 0.004387 0.150000
endloop
endfacet
facet normal 0.045748 0.000000 0.998953
outer loop
vertex 0.000393 0.004387 0.150000
vertex 0.000324 0.004161 0.150000
vertex 0.000255 0.003933 0.150000
endloop
endfacet
facet normal 0.000000 0.000000 1.000000
outer loop
vertex 0.000255 0.003933 0.150000
vertex 0.000189 0.003702 0.150000
vertex 0.000128 0.003470 0.150000
endloop
endfacet
facet normal -0.000538 0.000000 1.000000
outer loop
vertex 0.000128 0.003470 0.150000
vertex 0.000036 0.003000 0.150000
vertex -0.000000 0.002527 0.150000
endloop
endfacet
facet normal 0.000000 0.000000 1.000000
outer loop
vertex -0.000000 0.002527 0.150000
vertex 0.000011 0.002291 0.150000
vertex 0.000044 0.002055 0.150000
endloop
endfacet
facet normal 0.000000 0.000000 1.000000
outer loop
vertex 0.000044 0.002055 0.150000
vertex 0.000104 0.001820 0.150000
vertex 0.000238 0.001393 0.150000
endloop
endfacet
facet normal 0.000000 0.000000 1.000000
outer loop
vertex 0.000238 0.001393 0.150000
vertex 0.000299 0.001210 0.150000
vertex 0.000360 0.001046 0.150000
endloop
endfacet
facet normal 0.001266 0.000000 0.999999
outer loop
vertex 0.000360 0.001046 0.150000
vertex 0.000491 0.000770 0.150000
vertex 0.000567 0.000656 0.150000
endloop
endfacet
facet normal -0.000775 0.000000 1.000000
outer loop
vertex 0.000567 0.000656 0.150000
vertex 0.000651 0.000556 0.150000
vertex 0.000748 0.000469 0.150000
endloop
endfacet
facet normal 0.000721 0.000000 1.000000
outer loop
vertex 0.000748 0.000469 0.150000
vertex 0.000860 0.000395 0.150000
vertex 0.000989 0.000332 0.150000
endloop
endfacet
facet normal 0.000240 0.000000 1.000000
outer loop
vertex 0.000748 0.000469 0.150000
vertex 0.000989 0.000332 0.150000
vertex 0.001285 0.000225 0.150000
endloop
endfacet
facet normal -0.000112 0.000000 1.000000
outer loop
vertex 0.000360 0.001046 0.150000
vertex 0.000567 0.000656 0.150000
vertex 0.000748 0.000469 0.150000
endloop
endfacet
facet normal 0.000519 0.000000 1.000000
outer loop
vertex 0.000044 0.002055 0.150000
vertex 0.000238 0.001393 0.150000
vertex 0.000360 0.001046 0.150000
endloop
endfacet
facet normal 0.000000 0.000000 1.000000
outer loop
vertex 0.000128 0.003470 0.150000
vertex -0.000000 0.002527 0.150000
vertex 0.000044 0.002055 0.150000
endloop
endfacet
facet normal 0.000000 0.000000 1.000000
outer loop
vertex 0.000393 0.004387 0.150000
vertex 0.000255 0.003933 0.150000
vertex 0.000128 0.003470 0.150000
endloop
endfacet
facet normal 0.000000 0.000000 1.000000
outer loop
vertex 0.000766 0.005202 0.150000
vertex 0.000536 0.004821 0.150000
vertex 0.000393 0.004387 0.150000
endloop
endfacet
facet normal 0.000388 0.000000 1.000000
outer loop
vertex 0.003016 0.007362 0.150000
vertex 0.002135 0.006549 0.150000
vertex 0.000766 0.005202 0.150000
endloop
endfacet
facet normal 0.000000 0.000000 1.000000
outer loop
vertex 0.005449 0.007945 0.150000
vertex 0.005135 0.008372 0.150000
vertex 0.003016 0.007362 0.150000
endloop
endfacet
facet normal 0.001575 0.000000 0.999999
outer loop
vertex 0.005730 0.007360 0.150000
vertex 0.005706 0.007444 0.150000
vertex 0.005449 0.007945 0.150000
endloop
endfacet
facet normal -0.002028 0.000000 0.999998
outer loop
vertex 0.005859 0.006755 0.150000
vertex 0.005751 0.007274 0.150000
vertex 0.005730 0.007360 0.150000
endloop
endfacet
facet normal 0.003151 0.000000 0.999995
outer loop
vertex 0.005895 0.006509 0.150000
vertex 0.005881 0.006632 0.150000
vertex 0.005859 0.006755 0.150000
endloop
endfacet
facet normal 0.000000 0.000000 1.000000
outer loop
vertex 0.005887 0.006131 0.150000
vertex 0.005896 0.006260 0.150000
vertex 0.005895 0.006509 0.150000
endloop
endfacet
facet normal 0.000455 0.000000 1.000000
outer loop
vertex 0.005675 0.004804 0.150000
vertex 0.005871 0.005997 0.150000
vertex 0.005887 0.006131 0.150000
endloop
endfacet
facet normal -0.000412 0.000000 1.000000
outer loop
vertex 0.005424 0.004111 0.150000
vertex 0.005570 0.004444 0.150000
vertex 0.005675 0.004804 0.150000
endloop
endfacet
facet normal 0.002681 0.000000 0.999996
outer loop
vertex 0.005240 0.003783 0.150000
vertex 0.005337 0.003948 0.150000
vertex 0.005424 0.004111 0.150000
endloop
endfacet
facet normal -0.004589 0.000000 0.999989
outer loop
vertex 0.004503 0.002635 0.150000
vertex 0.005135 0.003614 0.150000
vertex 0.005240 0.003783 0.150000
endloop
endfacet
facet normal -0.000435 0.000000 1.000000
outer loop
vertex 0.003982 0.001934 0.150000
vertex 0.004372 0.002443 0.150000
vertex 0.004503 0.002635 0.150000
endloop
endfacet
facet normal -0.000609 0.000000 1.000000
outer loop
vertex 0.002347 0.000232 0.150000
vertex 0.002533 0.000396 0.150000
vertex 0.003982 0.001934 0.150000
endloop
endfacet
facet normal 0.000000 0.000000 1.000000
outer loop
vertex 0.002053 0.000043 0.150000
vertex 0.002189 0.000116 0.150000
vertex 0.002347 0.000232 0.150000
endloop
endfacet
facet normal 0.000000 0.000000 1.000000
outer loop
vertex 0.001827 0.000001 0.150000
vertex 0.001934 0.000007 0.150000
vertex 0.002053 0.000043 0.150000
endloop
endfacet
facet normal -0.000239 0.000000 1.000000
outer loop
vertex 0.001628 0.000058 0.150000
vertex 0.001727 0.000020 0.150000
vertex 0.001827 0.000001 0.150000
endloop
endfacet
facet normal 0.008207 0.000000 0.999966
outer loop
vertex 0.001412 0.000167 0.150000
vertex 0.001525 0.000109 0.150000
vertex 0.001628 0.000058 0.150000
endloop
endfacet
facet normal 0.000000 0.000000 1.000000
outer loop
vertex 0.000360 0.001046 0.150000
vertex 0.000748 0.000469 0.150000
vertex 0.001285 0.000225 0.150000
endloop
endfacet
facet normal 0.000197 0.000000 1.000000
outer loop
vertex 0.001412 0.000167 0.150000
vertex 0.001628 0.000058 0.150000
vertex 0.001827 0.000001 0.150000
endloop
endfacet
facet normal -0.000287 0.000000 1.000000
outer loop
vertex 0.000360 0.001046 0.150000
vertex 0.001285 0.000225 0.150000
vertex 0.001412 0.000167 0.150000
endloop
endfacet
facet normal 0.000055 0.000000 1.000000
outer loop
vertex 0.000128 0.003470 0.150000
vertex 0.000044 0.002055 0.150000
vertex 0.000360 0.001046 0.150000
endloop
endfacet
facet normal -0.000230 0.000000 1.000000
outer loop
vertex 0.000766 0.005202 0.150000
vertex 0.000393 0.004387 0.150000
vertex 0.000128 0.003470 0.150000
endloop
endfacet
facet normal 0.000000 0.000000 1.000000
outer loop
vertex 0.005449 0.007945 0.150000
vertex 0.003016 0.007362 0.150000
vertex 0.000766 0.005202 0.150000
endloop
endfacet
facet normal 0.000000 0.000000 1.000000
outer loop
vertex 0.005859 0.006755 0.150000
vertex 0.005730 0.007360 0.150000
vertex 0.005449 0.007945 0.150000
endloop
endfacet
facet normal -0.000468 0.000000 1.000000
outer loop
vertex 0.005887 0.006131 0.150000
vertex 0.005895 0.006509 0.150000
vertex 0.005859 0.006755 0.150000
endloop
endfacet
facet normal 0.000000 0.000000 1.000000
outer loop
vertex 0.005424 0.004111 0.150000
vertex 0.005675 0.004804 0.150000
vertex 0.005887 0.006131 0.150000
endloop
endfacet
facet normal 0.000000 0.000000 1.000000
outer loop
vertex 0.004503 0.002635 0.150000
vertex 0.005240 0.003783 0.150000
vertex 0.005424 0.004111 0.150000
endloop
endfacet
facet normal 0.000280 0.000000 1.000000
outer loop
vertex 0.002347 0.000232 0.150000
vertex 0.003982 0.001934 0.150000
vertex 0.004503 0.002635 0.150000
endloop
endfacet
facet normal -0.000120 0.000000 1.000000
outer loop
vertex 0.001827 0.000001 0.150000
vertex 0.002053 0.000043 0.150000
vertex 0.002347 0.000232 0.150000
endloop
endfacet
facet normal 0.000095 0.000000 1.000000
outer loop
vertex 0.000360 0.001046 0.150000
vertex 0.001412 0.000167 0.150000
vertex 0.001827 0.000001 0.150000
endloop
endfacet
facet normal 0.000000 0.000000 1.000000
outer loop
vertex 0.000766 0.005202 0.150000
vertex 0.000128 0.003470 0.150000
vertex 0.000360 0.001046 0.150000
endloop
endfacet
facet normal 0.000000 0.000000 1.000000
outer loop
vertex 0.005859 0.006755 0.150000
vertex 0.005449 0.007945 0.150000
vertex 0.000766 0.005202 0.150000
endloop
endfacet
facet normal 0.000084 0.000000 1.000000
outer loop
vertex 0.005424 0.004111 0.150000
vertex 0.005887 0.006131 0.150000
vertex 0.005859 0.006755 0.150000
endloop
endfacet
facet normal -0.000030 0.000000 1.000000
outer loop
vertex 0.002347 0.000232 0.150000
vertex 0.004503 0.002635 0.150000
vertex 0.005424 0.004111 0.150000
endloop
endfacet
facet normal 0.000000 0.000000 1.000000
outer loop
vertex 0.000360 0.001046 0.150000
vertex 0.001827 0.000001 0.150000
vertex 0.002347 0.000232 0.150000
endloop
endfacet
facet normal -0.000006 0.000000 1.000000
outer loop
vertex 0.005859 0.006755 0.150000
vertex 0.000766 0.005202 0.150000
vertex 0.000360 0.001046 0.150000
endloop
endfacet
facet normal 0.000000 0.000000 1.000000
outer loop
vertex 0.002347 0.000232 0.150000
vertex 0.005424 0.004111 0.150000
vertex 0.005859 0.006755 0.150000
endloop
endfacet
facet normal 0.000000 0.000000 1.000000
outer loop
vertex 0.000360 0.001046 0.150000
vertex 0.002347 0.000232 0.150000
vertex 0.005859 0.006755 0.150000
endloop
endfacet
facet normal -0.666148 -0.745820 0.000000
outer loop
vertex 0.000651 0.000556 0.150000
vertex 0.000651 0.000556 0.000000
vertex 0.000748 0.000469 0.000000
endloop
endfacet
facet normal -0.666147 -0.745820 0.000000
outer loop
vertex 0.000651 0.000556 0.150000
vertex 0.000748 0.000469 0.000000
vertex 0.000748 0.000469 0.150000
endloop
endfacet
facet normal -0.997155 0.075377 0.000000
outer loop
vertex -0.000000 0.002527 0.000000
vertex -0.000000 0.002527 0.150000
vertex 0.000036 0.003000 0.150000
endloop
endfacet
facet normal -0.997155 0.075377 0.000000
outer loop
vertex -0.000000 0.002527 0.000000
vertex 0.000036 0.003000 0.150000
vertex 0.000036 0.003000 0.000000
endloop
endfacet
facet normal -0.539969 0.841685 0.000000
outer loop
vertex 0.003551 0.007856 0.150000
vertex 0.003551 0.007856 0.000000
vertex 0.003429 0.007778 0.000000
endloop
endfacet
facet normal -0.539969 0.841685 0.000000
outer loop
vertex 0.003551 0.007856 0.150000
vertex 0.003429 0.007778 0.000000
vertex 0.003429 0.007778 0.150000
endloop
endfacet
facet normal 0.759595 0.650397 0.000000
outer loop
vertex 0.005363 0.008321 0.150000
vertex 0.005363 0.008321 0.000000
vertex 0.005337 0.008352 0.000000
endloop
endfacet
facet normal 0.759595 0.650397 0.000000
outer loop
vertex 0.005363 0.008321 0.150000
vertex 0.005337 0.008352 0.000000
vertex 0.005337 0.008352 0.150000
endloop
endfacet
facet normal -0.825513 0.564383 0.000000
outer loop
vertex 0.000766 0.005202 0.150000
vertex 0.000766 0.005202 0.000000
vertex 0.000640 0.005018 0.000000
endloop
endfacet
facet normal -0.825513 0.564384 0.000000
outer loop
vertex 0.000766 0.005202 0.150000
vertex 0.000640 0.005018 0.000000
vertex 0.000640 0.005018 0.150000
endloop
endfacet
facet normal -0.445944 0.895061 0.000000
outer loop
vertex 0.004259 0.008209 0.000000
vertex 0.003551 0.007856 0.000000
vertex 0.003551 0.007856 0.150000
endloop
endfacet
facet normal -0.445944 0.895061 0.000000
outer loop
vertex 0.004259 0.008209 0.000000
vertex 0.003551 0.007856 0.150000
vertex 0.004259 0.008209 0.150000
endloop
endfacet
facet normal 0.590364 -0.807137 0.000000
outer loop
vertex 0.002189 0.000116 0.150000
vertex 0.002189 0.000116 0.000000
vertex 0.002347 0.000232 0.000000
endloop
endfacet
facet normal 0.590366 -0.807135 0.000000
outer loop
vertex 0.002189 0.000116 0.150000
vertex 0.002347 0.000232 0.000000
vertex 0.002347 0.000232 0.150000
endloop
endfacet
facet normal 0.944975 0.327142 0.000000
outer loop
vertex 0.005378 0.008280 0.150000
vertex 0.005378 0.008280 0.000000
vertex 0.005363 0.008321 0.000000
endloop
endfacet
facet normal 0.944970 0.327158 0.000000
outer loop
vertex 0.005378 0.008280 0.150000
vertex 0.005363 0.008321 0.000000
vertex 0.005363 0.008321 0.150000
endloop
endfacet
facet normal 0.051695 -0.998663 0.000000
outer loop
vertex 0.001827 0.000001 0.150000
vertex 0.001827 0.000001 0.000000
vertex 0.001934 0.000007 0.000000
endloop
endfacet
facet normal 0.051695 -0.998663 0.000000
outer loop
vertex 0.001827 0.000001 0.150000
vertex 0.001934 0.000007 0.000000
vertex 0.001934 0.000007 0.150000
endloop
endfacet
facet normal -0.768530 0.639814 0.000000
outer loop
vertex 0.002295 0.006742 0.150000
vertex 0.002295 0.006742 0.000000
vertex 0.002135 0.006549 0.000000
endloop
endfacet
facet normal -0.768530 0.639813 0.000000
outer loop
vertex 0.002295 0.006742 0.150000
vertex 0.002135 0.006549 0.000000
vertex 0.002135 0.006549 0.150000
endloop
endfacet
facet normal 0.916090 -0.400973 0.000000
outer loop
vertex 0.005424 0.004111 0.150000
vertex 0.005424 0.004111 0.000000
vertex 0.005570 0.004444 0.000000
endloop
endfacet
facet normal 0.916090 -0.400973 0.000000
outer loop
vertex 0.005424 0.004111 0.150000
vertex 0.005570 0.004444 0.000000
vertex 0.005570 0.004444 0.150000
endloop
endfacet
facet normal 0.662359 -0.749187 0.000000
outer loop
vertex 0.002347 0.000232 0.150000
vertex 0.002347 0.000232 0.000000
vertex 0.002533 0.000396 0.000000
endloop
endfacet
facet normal 0.662359 -0.749187 0.000000
outer loop
vertex 0.002347 0.000232 0.150000
vertex 0.002533 0.000396 0.000000
vertex 0.002533 0.000396 0.150000
endloop
endfacet
facet normal -0.967762 0.251865 0.000000
outer loop
vertex 0.000189 0.003702 0.000000
vertex 0.000128 0.003470 0.000000
vertex 0.000128 0.003470 0.150000
endloop
endfacet
facet normal -0.967762 0.251865 0.000000
outer loop
vertex 0.000189 0.003702 0.000000
vertex 0.000128 0.003470 0.150000
vertex 0.000189 0.003702 0.150000
endloop
endfacet
facet normal -0.961242 0.275705 0.000000
outer loop
vertex 0.000255 0.003933 0.000000
vertex 0.000189 0.003702 0.000000
vertex 0.000189 0.003702 0.150000
endloop
endfacet
facet normal -0.961242 0.275705 0.000000
outer loop
vertex 0.000255 0.003933 0.000000
vertex 0.000189 0.003702 0.150000
vertex 0.000255 0.003933 0.150000
endloop
endfacet
facet normal -0.957353 0.288920 0.000000
outer loop
vertex 0.000324 0.004161 0.000000
vertex 0.000255 0.003933 0.000000
vertex 0.000255 0.003933 0.150000
endloop
endfacet
facet normal -0.957353 0.288920 0.000000
outer loop
vertex 0.000324 0.004161 0.000000
vertex 0.000255 0.003933 0.150000
vertex 0.000324 0.004161 0.150000
endloop
endfacet
facet normal -0.956532 0.291626 0.000000
outer loop
vertex 0.000393 0.004387 0.000000
vertex 0.000324 0.004161 0.000000
vertex 0.000324 0.004161 0.150000
endloop
endfacet
facet normal -0.956532 0.291626 0.000000
outer loop
vertex 0.000393 0.004387 0.000000
vertex 0.000324 0.004161 0.150000
vertex 0.000393 0.004387 0.150000
endloop
endfacet
facet normal -0.939212 0.343339 0.000000
outer loop
vertex 0.000536 0.004821 0.150000
vertex 0.000536 0.004821 0.000000
vertex 0.000459 0.004609 0.000000
endloop
endfacet
facet normal -0.958965 0.283524 0.000000
outer loop
vertex 0.000459 0.004609 0.000000
vertex 0.000393 0.004387 0.000000
vertex 0.000393 0.004387 0.150000
endloop
endfacet
facet normal -0.939212 0.343339 0.000000
outer loop
vertex 0.000459 0.004609 0.150000
vertex 0.000536 0.004821 0.150000
vertex 0.000459 0.004609 0.000000
endloop
endfacet
facet normal -0.958965 0.283524 0.000000
outer loop
vertex 0.000393 0.004387 0.150000
vertex 0.000459 0.004609 0.150000
vertex 0.000459 0.004609 0.000000
endloop
endfacet
facet normal -0.884899 0.465782 0.000000
outer loop
vertex 0.000640 0.005018 0.150000
vertex 0.000640 0.005018 0.000000
vertex 0.000536 0.004821 0.000000
endloop
endfacet
facet normal -0.884899 0.465783 0.000000
outer loop
vertex 0.000640 0.005018 0.150000
vertex 0.000536 0.004821 0.000000
vertex 0.000536 0.004821 0.150000
endloop
endfacet
facet normal 0.405627 0.914039 0.000000
outer loop
vertex 0.005337 0.008352 0.150000
vertex 0.005337 0.008352 0.000000
vertex 0.005294 0.008371 0.000000
endloop
endfacet
facet normal 0.405627 0.914039 0.000000
outer loop
vertex 0.005337 0.008352 0.150000
vertex 0.005294 0.008371 0.000000
vertex 0.005294 0.008371 0.150000
endloop
endfacet
facet normal 0.992235 0.124376 0.000000
outer loop
vertex 0.005400 0.008101 0.150000
vertex 0.005400 0.008101 0.000000
vertex 0.005378 0.008280 0.000000
endloop
endfacet
facet normal 0.992235 0.124380 0.000000
outer loop
vertex 0.005400 0.008101 0.150000
vertex 0.005378 0.008280 0.000000
vertex 0.005378 0.008280 0.150000
endloop
endfacet
facet normal -0.651758 0.758427 0.000000
outer loop
vertex 0.003016 0.007362 0.000000
vertex 0.002295 0.006742 0.000000
vertex 0.002295 0.006742 0.150000
endloop
endfacet
facet normal -0.651758 0.758427 0.000000
outer loop
vertex 0.003016 0.007362 0.000000
vertex 0.002295 0.006742 0.150000
vertex 0.003016 0.007362 0.150000
endloop
endfacet
facet normal 0.999976 0.006990 0.000000
outer loop
vertex 0.005896 0.006260 0.150000
vertex 0.005896 0.006260 0.000000
vertex 0.005895 0.006509 0.000000
endloop
endfacet
facet normal 0.999976 0.006990 0.000000
outer loop
vertex 0.005896 0.006260 0.150000
vertex 0.005895 0.006509 0.000000
vertex 0.005895 0.006509 0.150000
endloop
endfacet
facet normal -0.990020 -0.140927 0.000000
outer loop
vertex 0.000011 0.002291 0.150000
vertex 0.000011 0.002291 0.000000
vertex 0.000044 0.002055 0.000000
endloop
endfacet
facet normal -0.990020 -0.140927 0.000000
outer loop
vertex 0.000011 0.002291 0.150000
vertex 0.000044 0.002055 0.000000
vertex 0.000044 0.002055 0.150000
endloop
endfacet
facet normal 0.292432 -0.956286 0.000000
outer loop
vertex 0.001934 0.000007 0.150000
vertex 0.001934 0.000007 0.000000
vertex 0.002053 0.000043 0.000000
endloop
endfacet
facet normal 0.292433 -0.956286 0.000000
outer loop
vertex 0.001934 0.000007 0.150000
vertex 0.002053 0.000043 0.000000
vertex 0.002053 0.000043 0.150000
endloop
endfacet
facet normal 0.000000 0.000000 -1.000000
outer loop
vertex 0.003315 0.007677 0.000000
vertex 0.003194 0.007539 0.000000
vertex 0.003112 0.007454 0.000000
endloop
endfacet
facet normal -0.693467 0.720488 0.000000
outer loop
vertex 0.003112 0.007454 0.000000
vertex 0.003016 0.007362 0.000000
vertex 0.003016 0.007362 0.150000
endloop
endfacet
facet normal -0.693467 0.720488 0.000000
outer loop
vertex 0.003112 0.007454 0.000000
vertex 0.003016 0.007362 0.150000
vertex 0.003112 0.007454 0.150000
endloop
endfacet
facet normal -0.694276 0.719709 0.000000
outer loop
vertex 0.003371 0.007731 0.150000
vertex 0.003371 0.007731 0.000000
vertex 0.003315 0.007677 0.000000
endloop
endfacet
facet normal -0.739722 0.672912 0.000000
outer loop
vertex 0.003315 0.007677 0.000000
vertex 0.003112 0.007454 0.000000
vertex 0.003112 0.007454 0.150000
endloop
endfacet
facet normal -0.717174 0.696894 0.000066
outer loop
vertex 0.003315 0.007677 0.000000
vertex 0.003112 0.007454 0.150000
vertex 0.003194 0.007539 0.150000
endloop
endfacet
facet normal -0.694276 0.719709 0.000000
outer loop
vertex 0.003315 0.007677 0.150000
vertex 0.003371 0.007731 0.150000
vertex 0.003315 0.007677 0.000000
endloop
endfacet
facet normal -0.753875 0.657017 0.000000
outer loop
vertex 0.003194 0.007539 0.150000
vertex 0.003315 0.007677 0.150000
vertex 0.003315 0.007677 0.000000
endloop
endfacet
facet normal 0.935011 0.354618 0.000000
outer loop
vertex 0.005644 0.007606 0.000000
vertex 0.005644 0.007606 0.150000
vertex 0.005706 0.007444 0.150000
endloop
endfacet
facet normal 0.935011 0.354618 0.000000
outer loop
vertex 0.005644 0.007606 0.000000
vertex 0.005706 0.007444 0.150000
vertex 0.005706 0.007444 0.000000
endloop
endfacet
facet normal -0.630597 0.776110 0.000000
outer loop
vertex 0.003429 0.007778 0.150000
vertex 0.003429 0.007778 0.000000
vertex 0.003371 0.007731 0.000000
endloop
endfacet
facet normal -0.630597 0.776110 0.000000
outer loop
vertex 0.003429 0.007778 0.150000
vertex 0.003371 0.007731 0.000000
vertex 0.003371 0.007731 0.150000
endloop
endfacet
facet normal 0.727863 -0.685723 0.000000
outer loop
vertex 0.002533 0.000396 0.000000
vertex 0.003982 0.001934 0.000000
vertex 0.003982 0.001934 0.150000
endloop
endfacet
facet normal 0.727863 -0.685723 0.000000
outer loop
vertex 0.002533 0.000396 0.000000
vertex 0.003982 0.001934 0.150000
vertex 0.002533 0.000396 0.150000
endloop
endfacet
facet normal 0.997216 -0.074574 0.000000
outer loop
vertex 0.005887 0.006131 0.000000
vertex 0.005896 0.006260 0.000000
vertex 0.005896 0.006260 0.150000
endloop
endfacet
facet normal 0.997216 -0.074574 0.000000
outer loop
vertex 0.005887 0.006131 0.000000
vertex 0.005896 0.006260 0.150000
vertex 0.005887 0.006131 0.150000
endloop
endfacet
facet normal 0.986671 -0.162731 0.000000
outer loop
vertex 0.005675 0.004804 0.150000
vertex 0.005675 0.004804 0.000000
vertex 0.005871 0.005997 0.000000
endloop
endfacet
facet normal 0.993462 -0.114165 0.000000
outer loop
vertex 0.005871 0.005997 0.000000
vertex 0.005887 0.006131 0.000000
vertex 0.005887 0.006131 0.150000
endloop
endfacet
facet normal 0.986671 -0.162731 0.000000
outer loop
vertex 0.005871 0.005997 0.150000
vertex 0.005675 0.004804 0.150000
vertex 0.005871 0.005997 0.000000
endloop
endfacet
facet normal 0.993461 -0.114171 0.000000
outer loop
vertex 0.005887 0.006131 0.150000
vertex 0.005871 0.005997 0.150000
vertex 0.005871 0.005997 0.000000
endloop
endfacet
facet normal 0.867099 0.498136 0.000000
outer loop
vertex 0.005644 0.007606 0.000000
vertex 0.005449 0.007945 0.000000
vertex 0.005449 0.007945 0.150000
endloop
endfacet
facet normal 0.867098 0.498137 0.000000
outer loop
vertex 0.005644 0.007606 0.000000
vertex 0.005449 0.007945 0.150000
vertex 0.005644 0.007606 0.150000
endloop
endfacet
facet normal -0.065696 0.997840 0.000000
outer loop
vertex 0.005228 0.008378 0.150000
vertex 0.005228 0.008378 0.000000
vertex 0.005135 0.008372 0.000000
endloop
endfacet
facet normal -0.065696 0.997840 0.000000
outer loop
vertex 0.005228 0.008378 0.150000
vertex 0.005135 0.008372 0.000000
vertex 0.005135 0.008372 0.150000
endloop
endfacet
facet normal 0.932097 0.362208 0.000000
outer loop
vertex 0.005449 0.007945 0.150000
vertex 0.005449 0.007945 0.000000
vertex 0.005418 0.008026 0.000000
endloop
endfacet
facet normal 0.932097 0.362208 0.000000
outer loop
vertex 0.005449 0.007945 0.150000
vertex 0.005418 0.008026 0.000000
vertex 0.005418 0.008026 0.150000
endloop
endfacet
facet normal -0.998976 -0.045244 0.000000
outer loop
vertex -0.000000 0.002527 0.150000
vertex -0.000000 0.002527 0.000000
vertex 0.000011 0.002291 0.000000
endloop
endfacet
facet normal -0.998976 -0.045244 0.000000
outer loop
vertex -0.000000 0.002527 0.150000
vertex 0.000011 0.002291 0.000000
vertex 0.000011 0.002291 0.150000
endloop
endfacet
facet normal 0.960309 -0.278940 0.000000
outer loop
vertex 0.005570 0.004444 0.000000
vertex 0.005675 0.004804 0.000000
vertex 0.005675 0.004804 0.150000
endloop
endfacet
facet normal 0.960308 -0.278942 0.000000
outer loop
vertex 0.005570 0.004444 0.000000
vertex 0.005675 0.004804 0.150000
vertex 0.005570 0.004444 0.150000
endloop
endfacet
facet normal -0.338249 -0.941057 0.000000
outer loop
vertex 0.000989 0.000332 0.150000
vertex 0.000989 0.000332 0.000000
vertex 0.001285 0.000225 0.000000
endloop
endfacet
facet normal -0.338250 -0.941056 0.000000
outer loop
vertex 0.000989 0.000332 0.150000
vertex 0.001285 0.000225 0.000000
vertex 0.001285 0.000225 0.150000
endloop
endfacet
facet normal -0.762510 -0.646976 0.000000
outer loop
vertex 0.000567 0.000656 0.150000
vertex 0.000567 0.000656 0.000000
vertex 0.000651 0.000556 0.000000
endloop
endfacet
facet normal -0.762510 -0.646977 0.000000
outer loop
vertex 0.000567 0.000656 0.150000
vertex 0.000651 0.000556 0.000000
vertex 0.000651 0.000556 0.150000
endloop
endfacet
facet normal 0.881779 -0.471662 0.000000
outer loop
vertex 0.005337 0.003948 0.000000
vertex 0.005424 0.004111 0.000000
vertex 0.005424 0.004111 0.150000
endloop
endfacet
facet normal 0.881779 -0.471662 0.000000
outer loop
vertex 0.005337 0.003948 0.000000
vertex 0.005424 0.004111 0.150000
vertex 0.005337 0.003948 0.150000
endloop
endfacet
facet normal 0.863018 -0.505173 0.000000
outer loop
vertex 0.005240 0.003783 0.000000
vertex 0.005337 0.003948 0.000000
vertex 0.005337 0.003948 0.150000
endloop
endfacet
facet normal 0.863016 -0.505176 0.000000
outer loop
vertex 0.005240 0.003783 0.000000
vertex 0.005337 0.003948 0.150000
vertex 0.005240 0.003783 0.150000
endloop
endfacet
facet normal 0.849016 -0.528367 0.000000
outer loop
vertex 0.005135 0.003614 0.000000
vertex 0.005240 0.003783 0.000000
vertex 0.005240 0.003783 0.150000
endloop
endfacet
facet normal 0.849016 -0.528367 0.000000
outer loop
vertex 0.005135 0.003614 0.000000
vertex 0.005240 0.003783 0.150000
vertex 0.005135 0.003614 0.150000
endloop
endfacet
facet normal 0.826624 -0.562754 0.000000
outer loop
vertex 0.004372 0.002443 0.150000
vertex 0.004372 0.002443 0.000000
vertex 0.004503 0.002635 0.000000
endloop
endfacet
facet normal 0.839849 -0.542820 0.000000
outer loop
vertex 0.004503 0.002635 0.000000
vertex 0.005135 0.003614 0.000000
vertex 0.005135 0.003614 0.150000
endloop
endfacet
facet normal 0.826624 -0.562754 0.000000
outer loop
vertex 0.004503 0.002635 0.150000
vertex 0.004372 0.002443 0.150000
vertex 0.004503 0.002635 0.000000
endloop
endfacet
facet normal 0.839849 -0.542820 0.000000
outer loop
vertex 0.005135 0.003614 0.150000
vertex 0.004503 0.002635 0.150000
vertex 0.004503 0.002635 0.000000
endloop
endfacet
facet normal -0.903298 -0.429013 0.000000
outer loop
vertex 0.000360 0.001046 0.150000
vertex 0.000360 0.001046 0.000000
vertex 0.000491 0.000770 0.000000
endloop
endfacet
facet normal -0.903298 -0.429013 0.000000
outer loop
vertex 0.000360 0.001046 0.150000
vertex 0.000491 0.000770 0.000000
vertex 0.000491 0.000770 0.150000
endloop
endfacet
facet normal -0.691609 0.722272 0.000000
outer loop
vertex 0.002135 0.006549 0.000000
vertex 0.000910 0.005377 0.000000
vertex 0.000910 0.005377 0.150000
endloop
endfacet
facet normal -0.691609 0.722272 0.000000
outer loop
vertex 0.002135 0.006549 0.000000
vertex 0.000910 0.005377 0.150000
vertex 0.002135 0.006549 0.150000
endloop
endfacet
facet normal -0.554435 -0.832227 0.000000
outer loop
vertex 0.000748 0.000469 0.150000
vertex 0.000748 0.000469 0.000000
vertex 0.000860 0.000395 0.000000
endloop
endfacet
facet normal -0.554435 -0.832227 0.000000
outer loop
vertex 0.000748 0.000469 0.150000
vertex 0.000860 0.000395 0.000000
vertex 0.000860 0.000395 0.150000
endloop
endfacet
facet normal 0.105844 0.994383 0.000000
outer loop
vertex 0.005294 0.008371 0.150000
vertex 0.005294 0.008371 0.000000
vertex 0.005228 0.008378 0.000000
endloop
endfacet
facet normal 0.105844 0.994383 0.000000
outer loop
vertex 0.005294 0.008371 0.150000
vertex 0.005228 0.008378 0.000000
vertex 0.005228 0.008378 0.150000
endloop
endfacet
facet normal -0.835793 -0.549045 0.000000
outer loop
vertex 0.000491 0.000770 0.150000
vertex 0.000491 0.000770 0.000000
vertex 0.000567 0.000656 0.000000
endloop
endfacet
facet normal -0.835792 -0.549046 0.000000
outer loop
vertex 0.000491 0.000770 0.150000
vertex 0.000567 0.000656 0.000000
vertex 0.000567 0.000656 0.150000
endloop
endfacet
facet normal 0.960459 0.278422 0.000000
outer loop
vertex 0.005730 0.007360 0.000000
vertex 0.005706 0.007444 0.000000
vertex 0.005706 0.007444 0.150000
endloop
endfacet
facet normal 0.960459 0.278422 0.000000
outer loop
vertex 0.005730 0.007360 0.000000
vertex 0.005706 0.007444 0.150000
vertex 0.005730 0.007360 0.150000
endloop
endfacet
facet normal 0.970772 0.240004 0.000000
outer loop
vertex 0.005751 0.007274 0.000000
vertex 0.005730 0.007360 0.000000
vertex 0.005730 0.007360 0.150000
endloop
endfacet
facet normal 0.970772 0.240004 0.000000
outer loop
vertex 0.005751 0.007274 0.000000
vertex 0.005730 0.007360 0.150000
vertex 0.005751 0.007274 0.150000
endloop
endfacet
facet normal 0.983495 0.180935 0.000000
outer loop
vertex 0.005881 0.006632 0.150000
vertex 0.005881 0.006632 0.000000
vertex 0.005859 0.006755 0.000000
endloop
endfacet
facet normal 0.979218 0.202810 0.000000
outer loop
vertex 0.005859 0.006755 0.000000
vertex 0.005751 0.007274 0.000000
vertex 0.005751 0.007274 0.150000
endloop
endfacet
facet normal 0.983493 0.180947 0.000000
outer loop
vertex 0.005859 0.006755 0.150000
vertex 0.005881 0.006632 0.150000
vertex 0.005859 0.006755 0.000000
endloop
endfacet
facet normal 0.979218 0.202810 0.000000
outer loop
vertex 0.005751 0.007274 0.150000
vertex 0.005859 0.006755 0.150000
vertex 0.005859 0.006755 0.000000
endloop
endfacet
facet normal 0.473616 -0.880731 0.000000
outer loop
vertex 0.002053 0.000043 0.150000
vertex 0.002053 0.000043 0.000000
vertex 0.002189 0.000116 0.000000
endloop
endfacet
facet normal 0.473616 -0.880731 0.000000
outer loop
vertex 0.002053 0.000043 0.150000
vertex 0.002189 0.000116 0.000000
vertex 0.002189 0.000116 0.150000
endloop
endfacet
facet normal -0.163494 0.986544 0.000000
outer loop
vertex 0.005135 0.008372 0.150000
vertex 0.005135 0.008372 0.000000
vertex 0.004377 0.008246 0.000000
endloop
endfacet
facet normal -0.163494 0.986544 0.000000
outer loop
vertex 0.005135 0.008372 0.150000
vertex 0.004377 0.008246 0.000000
vertex 0.004377 0.008246 0.150000
endloop
endfacet
facet normal 0.793731 -0.608270 0.000000
outer loop
vertex 0.003982 0.001934 0.150000
vertex 0.003982 0.001934 0.000000
vertex 0.004372 0.002443 0.000000
endloop
endfacet
facet normal 0.793731 -0.608269 0.000000
outer loop
vertex 0.003982 0.001934 0.150000
vertex 0.004372 0.002443 0.000000
vertex 0.004372 0.002443 0.150000
endloop
endfacet
facet normal -0.981054 0.193736 0.000000
outer loop
vertex 0.000128 0.003470 0.150000
vertex 0.000128 0.003470 0.000000
vertex 0.000036 0.003000 0.000000
endloop
endfacet
facet normal -0.981054 0.193736 0.000000
outer loop
vertex 0.000128 0.003470 0.150000
vertex 0.000036 0.003000 0.000000
vertex 0.000036 0.003000 0.150000
endloop
endfacet
facet normal 0.994221 0.107354 0.000000
outer loop
vertex 0.005895 0.006509 0.150000
vertex 0.005895 0.006509 0.000000
vertex 0.005881 0.006632 0.000000
endloop
endfacet
facet normal 0.994221 0.107354 0.000000
outer loop
vertex 0.005895 0.006509 0.150000
vertex 0.005881 0.006632 0.000000
vertex 0.005881 0.006632 0.150000
endloop
endfacet
endsolid Exported from Blender-3.6.8
