solid Exported from Blender-3.6.8
facet normal -0.546958 -0.837160 0.000000
outer loop
vertex 0.006071 0.002333 0.000000
vertex 0.006150 0.002282 0.000000
vertex 0.006150 0.002282 0.150000
endloop
endfacet
facet normal -0.546961 -0.837158 0.000000
outer loop
vertex 0.006071 0.002333 0.000000
vertex 0.006150 0.002282 0.150000
vertex 0.006071 0.002333 0.150000
endloop
endfacet
facet normal -0.517516 -0.855673 0.000000
outer loop
vertex 0.005988 0.002383 0.000000
vertex 0.006071 0.002333 0.000000
vertex 0.006071 0.002333 0.150000
endloop
endfacet
facet normal -0.517520 -0.855671 0.000000
outer loop
vertex 0.005988 0.002383 0.000000
vertex 0.006071 0.002333 0.150000
vertex 0.005988 0.002383 0.150000
endloop
endfacet
facet normal -0.456606 -0.889669 0.000000
outer loop
vertex 0.005359 0.002713 0.150000
vertex 0.005359 0.002713 0.000000
vertex 0.005813 0.002480 0.000000
endloop
endfacet
facet normal -0.484543 -0.874767 0.000000
outer loop
vertex 0.005813 0.002480 0.000000
vertex 0.005988 0.002383 0.000000
vertex 0.005988 0.002383 0.150000
endloop
endfacet
facet normal -0.456607 -0.889669 0.000000
outer loop
vertex 0.005813 0.002480 0.150000
vertex 0.005359 0.002713 0.150000
vertex 0.005813 0.002480 0.000000
endloop
endfacet
facet normal -0.484540 -0.874769 0.000000
outer loop
vertex 0.005988 0.002383 0.150000
vertex 0.005813 0.002480 0.150000
vertex 0.005813 0.002480 0.000000
endloop
endfacet
facet normal 0.257076 0.966391 0.000000
outer loop
vertex 0.006677 0.005045 0.150000
vertex 0.006677 0.005045 0.000000
vertex 0.006603 0.005065 0.000000
endloop
endfacet
facet normal 0.257071 0.966392 0.000000
outer loop
vertex 0.006677 0.005045 0.150000
vertex 0.006603 0.005065 0.000000
vertex 0.006603 0.005065 0.150000
endloop
endfacet
facet normal 0.469506 -0.882929 0.000000
outer loop
vertex 0.010415 0.000564 0.000000
vertex 0.010530 0.000626 0.000000
vertex 0.010530 0.000626 0.150000
endloop
endfacet
facet normal 0.469506 -0.882929 0.000000
outer loop
vertex 0.010415 0.000564 0.000000
vertex 0.010530 0.000626 0.150000
vertex 0.010415 0.000564 0.150000
endloop
endfacet
facet normal 0.418092 -0.908405 0.000000
outer loop
vertex 0.009871 0.000314 0.000000
vertex 0.010415 0.000564 0.000000
vertex 0.010415 0.000564 0.150000
endloop
endfacet
facet normal 0.418092 -0.908405 0.000000
outer loop
vertex 0.009871 0.000314 0.000000
vertex 0.010415 0.000564 0.150000
vertex 0.009871 0.000314 0.150000
endloop
endfacet
facet normal 0.370380 -0.928880 0.000000
outer loop
vertex 0.009407 0.000094 0.150000
vertex 0.009407 0.000094 0.000000
vertex 0.009559 0.000155 0.000000
endloop
endfacet
facet normal 0.455172 -0.890404 0.000000
outer loop
vertex 0.009559 0.000155 0.000000
vertex 0.009871 0.000314 0.000000
vertex 0.009871 0.000314 0.150000
endloop
endfacet
facet normal 0.370380 -0.928880 0.000000
outer loop
vertex 0.009559 0.000155 0.150000
vertex 0.009407 0.000094 0.150000
vertex 0.009559 0.000155 0.000000
endloop
endfacet
facet normal 0.455172 -0.890404 0.000000
outer loop
vertex 0.009871 0.000314 0.150000
vertex 0.009559 0.000155 0.150000
vertex 0.009559 0.000155 0.000000
endloop
endfacet
facet normal 0.000000 0.000000 1.000000
outer loop
vertex 0.000352 0.008700 0.000000
vertex 0.000260 0.008573 0.000000
vertex 0.000213 0.008502 0.000000
endloop
endfacet
facet normal -0.852451 0.522807 0.000000
outer loop
vertex 0.000213 0.008502 0.000000
vertex 0.000167 0.008427 0.000000
vertex 0.000167 0.008427 0.150000
endloop
endfacet
facet normal -0.852451 0.522807 0.000000
outer loop
vertex 0.000213 0.008502 0.000000
vertex 0.000167 0.008427 0.150000
vertex 0.000213 0.008502 0.150000
endloop
endfacet
facet normal -0.818354 0.574714 0.000000
outer loop
vertex 0.000352 0.008700 0.150000
vertex 0.000352 0.008700 0.000000
vertex 0.000213 0.008502 0.000000
endloop
endfacet
facet normal -0.832445 0.554107 0.000000
outer loop
vertex 0.000213 0.008502 0.000000
vertex 0.000213 0.008502 0.150000
vertex 0.000260 0.008573 0.150000
endloop
endfacet
facet normal -0.810500 0.585738 -0.000022
outer loop
vertex 0.000213 0.008502 0.000000
vertex 0.000260 0.008573 0.150000
vertex 0.000352 0.008700 0.150000
endloop
endfacet
facet normal 0.000000 0.000000 -1.000000
outer loop
vertex 0.007135 0.000994 0.000000
vertex 0.007256 0.000892 0.000000
vertex 0.007362 0.000797 0.000000
endloop
endfacet
facet normal 0.000000 0.000000 -1.000000
outer loop
vertex 0.007362 0.000797 0.000000
vertex 0.007457 0.000709 0.000000
vertex 0.007693 0.000484 0.000000
endloop
endfacet
facet normal -0.647619 -0.761964 0.000000
outer loop
vertex 0.007763 0.000419 0.000000
vertex 0.007833 0.000360 0.000000
vertex 0.007833 0.000360 0.150000
endloop
endfacet
facet normal 0.000000 0.000000 -1.000000
outer loop
vertex 0.007135 0.000994 0.000000
vertex 0.007362 0.000797 0.000000
vertex 0.007693 0.000484 0.000000
endloop
endfacet
facet normal -0.674516 -0.738260 0.000022
outer loop
vertex 0.007693 0.000484 0.000000
vertex 0.007763 0.000419 0.000000
vertex 0.007833 0.000360 0.150000
endloop
endfacet
facet normal -0.647619 -0.761964 -0.000023
outer loop
vertex 0.007693 0.000484 0.000000
vertex 0.007833 0.000360 0.150000
vertex 0.007763 0.000419 0.150000
endloop
endfacet
facet normal 0.000000 0.000000 -1.000000
outer loop
vertex 0.007016 0.001100 0.000000
vertex 0.007135 0.000994 0.000000
vertex 0.007693 0.000484 0.000000
endloop
endfacet
facet normal -0.721112 -0.692818 0.000000
outer loop
vertex 0.006916 0.001204 0.150000
vertex 0.006916 0.001204 0.000000
vertex 0.007016 0.001100 0.000000
endloop
endfacet
facet normal -0.721107 -0.692824 0.000000
outer loop
vertex 0.007016 0.001100 0.150000
vertex 0.006916 0.001204 0.150000
vertex 0.007016 0.001100 0.000000
endloop
endfacet
facet normal -0.673549 -0.739142 -0.000001
outer loop
vertex 0.007016 0.001100 0.000000
vertex 0.007693 0.000484 0.000000
vertex 0.007763 0.000419 0.150000
endloop
endfacet
facet normal -0.674524 -0.738253 0.000008
outer loop
vertex 0.007016 0.001100 0.000000
vertex 0.007763 0.000419 0.150000
vertex 0.007693 0.000484 0.150000
endloop
endfacet
facet normal -0.665378 -0.746506 0.000000
outer loop
vertex 0.007135 0.000994 0.150000
vertex 0.007016 0.001100 0.150000
vertex 0.007016 0.001100 0.000000
endloop
endfacet
facet normal -0.646588 -0.762839 -0.000026
outer loop
vertex 0.007256 0.000892 0.150000
vertex 0.007135 0.000994 0.150000
vertex 0.007016 0.001100 0.000000
endloop
endfacet
facet normal -0.691390 -0.722482 0.000149
outer loop
vertex 0.007016 0.001100 0.000000
vertex 0.007693 0.000484 0.150000
vertex 0.007457 0.000709 0.150000
endloop
endfacet
facet normal -0.664863 -0.746965 0.000025
outer loop
vertex 0.007362 0.000797 0.150000
vertex 0.007256 0.000892 0.150000
vertex 0.007016 0.001100 0.000000
endloop
endfacet
facet normal -0.679980 -0.733230 0.000087
outer loop
vertex 0.007457 0.000709 0.150000
vertex 0.007362 0.000797 0.150000
vertex 0.007016 0.001100 0.000000
endloop
endfacet
facet normal 0.990189 -0.139732 0.000000
outer loop
vertex 0.011158 0.001858 0.150000
vertex 0.011158 0.001858 0.000000
vertex 0.011196 0.002133 0.000000
endloop
endfacet
facet normal 0.990189 -0.139732 0.000000
outer loop
vertex 0.011158 0.001858 0.150000
vertex 0.011196 0.002133 0.000000
vertex 0.011196 0.002133 0.150000
endloop
endfacet
facet normal 0.000000 0.000000 1.000000
outer loop
vertex 0.011054 0.001400 0.000000
vertex 0.011094 0.001557 0.000000
vertex 0.011129 0.001710 0.000000
endloop
endfacet
facet normal 0.981644 -0.190725 0.000000
outer loop
vertex 0.011129 0.001710 0.000000
vertex 0.011158 0.001858 0.000000
vertex 0.011158 0.001858 0.150000
endloop
endfacet
facet normal 0.981644 -0.190725 0.000000
outer loop
vertex 0.011129 0.001710 0.000000
vertex 0.011158 0.001858 0.150000
vertex 0.011129 0.001710 0.150000
endloop
endfacet
facet normal 0.000000 0.000000 1.000000
outer loop
vertex 0.011010 0.001239 0.000000
vertex 0.011054 0.001400 0.000000
vertex 0.011129 0.001710 0.000000
endloop
endfacet
facet normal 0.962890 -0.269895 0.000000
outer loop
vertex 0.011054 0.001400 0.150000
vertex 0.011010 0.001239 0.150000
vertex 0.011010 0.001239 0.000000
endloop
endfacet
facet normal 0.975585 -0.219622 0.000000
outer loop
vertex 0.011129 0.001710 0.000000
vertex 0.011129 0.001710 0.150000
vertex 0.011094 0.001557 0.150000
endloop
endfacet
facet normal 0.969336 -0.245738 -0.000028
outer loop
vertex 0.011094 0.001557 0.150000
vertex 0.011054 0.001400 0.150000
vertex 0.011010 0.001239 0.000000
endloop
endfacet
facet normal 0.969365 -0.245626 -0.000028
outer loop
vertex 0.011129 0.001710 0.000000
vertex 0.011094 0.001557 0.150000
vertex 0.011010 0.001239 0.000000
endloop
endfacet
facet normal 0.998821 0.048553 0.000000
outer loop
vertex 0.011208 0.002375 0.150000
vertex 0.011208 0.002375 0.000000
vertex 0.011203 0.002479 0.000000
endloop
endfacet
facet normal 0.998821 0.048539 0.000000
outer loop
vertex 0.011208 0.002375 0.150000
vertex 0.011203 0.002479 0.000000
vertex 0.011203 0.002479 0.150000
endloop
endfacet
facet normal 0.710065 0.704136 0.000000
outer loop
vertex 0.004297 0.008417 0.150000
vertex 0.004297 0.008417 0.000000
vertex 0.004266 0.008449 0.000000
endloop
endfacet
facet normal 0.710074 0.704127 0.000000
outer loop
vertex 0.004297 0.008417 0.150000
vertex 0.004266 0.008449 0.000000
vertex 0.004266 0.008449 0.150000
endloop
endfacet
facet normal 0.722517 -0.691353 0.000000
outer loop
vertex 0.010731 0.000769 0.150000
vertex 0.010731 0.000769 0.000000
vertex 0.010817 0.000859 0.000000
endloop
endfacet
facet normal 0.722517 -0.691353 0.000000
outer loop
vertex 0.010731 0.000769 0.150000
vertex 0.010817 0.000859 0.000000
vertex 0.010817 0.000859 0.150000
endloop
endfacet
facet normal 0.244671 0.969606 0.000000
outer loop
vertex 0.008210 0.004756 0.150000
vertex 0.008210 0.004756 0.000000
vertex 0.007253 0.004998 0.000000
endloop
endfacet
facet normal 0.244672 0.969606 0.000000
outer loop
vertex 0.008210 0.004756 0.150000
vertex 0.007253 0.004998 0.000000
vertex 0.007253 0.004998 0.150000
endloop
endfacet
facet normal -0.875228 -0.483710 0.000000
outer loop
vertex 0.000097 0.007546 0.000000
vertex 0.000367 0.007058 0.000000
vertex 0.000367 0.007058 0.150000
endloop
endfacet
facet normal -0.875228 -0.483711 0.000000
outer loop
vertex 0.000097 0.007546 0.000000
vertex 0.000367 0.007058 0.150000
vertex 0.000097 0.007546 0.150000
endloop
endfacet
facet normal -0.745891 -0.666068 0.000000
outer loop
vertex 0.000701 0.006583 0.000000
vertex 0.000937 0.006319 0.000000
vertex 0.000937 0.006319 0.150000
endloop
endfacet
facet normal -0.745891 -0.666068 0.000000
outer loop
vertex 0.000701 0.006583 0.000000
vertex 0.000937 0.006319 0.150000
vertex 0.000701 0.006583 0.150000
endloop
endfacet
facet normal -0.129328 0.991602 0.000000
outer loop
vertex 0.001126 0.008903 0.000000
vertex 0.000912 0.008875 0.000000
vertex 0.000912 0.008875 0.150000
endloop
endfacet
facet normal -0.129328 0.991602 0.000000
outer loop
vertex 0.001126 0.008903 0.000000
vertex 0.000912 0.008875 0.150000
vertex 0.001126 0.008903 0.150000
endloop
endfacet
facet normal -0.051569 0.998669 0.000000
outer loop
vertex 0.002211 0.008977 0.150000
vertex 0.002211 0.008977 0.000000
vertex 0.001565 0.008944 0.000000
endloop
endfacet
facet normal -0.091270 0.995826 0.000000
outer loop
vertex 0.001565 0.008944 0.000000
vertex 0.001126 0.008903 0.000000
vertex 0.001126 0.008903 0.150000
endloop
endfacet
facet normal -0.051569 0.998670 0.000000
outer loop
vertex 0.001565 0.008944 0.150000
vertex 0.002211 0.008977 0.150000
vertex 0.001565 0.008944 0.000000
endloop
endfacet
facet normal -0.091270 0.995826 0.000000
outer loop
vertex 0.001565 0.008944 0.000000
vertex 0.001126 0.008903 0.150000
vertex 0.001565 0.008944 0.150000
endloop
endfacet
facet normal -0.240788 -0.970578 0.000000
outer loop
vertex 0.008362 0.000081 0.150000
vertex 0.008362 0.000081 0.000000
vertex 0.008591 0.000024 0.000000
endloop
endfacet
facet normal -0.240787 -0.970578 0.000000
outer loop
vertex 0.008362 0.000081 0.150000
vertex 0.008591 0.000024 0.000000
vertex 0.008591 0.000024 0.150000
endloop
endfacet
facet normal 0.990503 0.137488 0.000000
outer loop
vertex 0.011203 0.002479 0.150000
vertex 0.011203 0.002479 0.000000
vertex 0.011190 0.002572 0.000000
endloop
endfacet
facet normal 0.990499 0.137520 0.000000
outer loop
vertex 0.011203 0.002479 0.150000
vertex 0.011190 0.002572 0.000000
vertex 0.011190 0.002572 0.150000
endloop
endfacet
facet normal -0.200399 0.979714 0.000000
outer loop
vertex 0.000912 0.008875 0.150000
vertex 0.000912 0.008875 0.000000
vertex 0.000551 0.008802 0.000000
endloop
endfacet
facet normal -0.200399 0.979714 0.000000
outer loop
vertex 0.000912 0.008875 0.150000
vertex 0.000551 0.008802 0.000000
vertex 0.000551 0.008802 0.150000
endloop
endfacet
facet normal 0.048572 0.998820 0.000000
outer loop
vertex 0.007253 0.004998 0.000000
vertex 0.006844 0.005018 0.000000
vertex 0.006844 0.005018 0.150000
endloop
endfacet
facet normal 0.048572 0.998820 0.000000
outer loop
vertex 0.007253 0.004998 0.000000
vertex 0.006844 0.005018 0.150000
vertex 0.007253 0.004998 0.150000
endloop
endfacet
facet normal -0.996440 0.084306 0.000000
outer loop
vertex 0.000008 0.008010 0.150000
vertex 0.000008 0.008010 0.000000
vertex 0.000000 0.007922 0.000000
endloop
endfacet
facet normal -0.996440 0.084306 0.000000
outer loop
vertex 0.000008 0.008010 0.150000
vertex 0.000000 0.007922 0.000000
vertex 0.000000 0.007922 0.150000
endloop
endfacet
facet normal -0.889090 0.457732 0.000000
outer loop
vertex 0.000167 0.008427 0.000000
vertex 0.000085 0.008267 0.000000
vertex 0.000085 0.008267 0.150000
endloop
endfacet
facet normal -0.889090 0.457732 0.000000
outer loop
vertex 0.000167 0.008427 0.000000
vertex 0.000085 0.008267 0.150000
vertex 0.000167 0.008427 0.150000
endloop
endfacet
facet normal -0.706622 -0.707591 0.000000
outer loop
vertex 0.006291 0.002174 0.150000
vertex 0.006291 0.002174 0.000000
vertex 0.006405 0.002061 0.000000
endloop
endfacet
facet normal -0.706620 -0.707593 0.000000
outer loop
vertex 0.006291 0.002174 0.150000
vertex 0.006405 0.002061 0.000000
vertex 0.006405 0.002061 0.150000
endloop
endfacet
facet normal 0.769761 0.638333 0.000000
outer loop
vertex 0.004297 0.008417 0.000000
vertex 0.004297 0.008417 0.150000
vertex 0.004929 0.007655 0.150000
endloop
endfacet
facet normal 0.769760 0.638333 0.000000
outer loop
vertex 0.004297 0.008417 0.000000
vertex 0.004929 0.007655 0.150000
vertex 0.004929 0.007655 0.000000
endloop
endfacet
facet normal 0.911794 0.410647 0.000000
outer loop
vertex 0.011169 0.002652 0.150000
vertex 0.011169 0.002652 0.000000
vertex 0.011140 0.002718 0.000000
endloop
endfacet
facet normal 0.911811 0.410611 0.000000
outer loop
vertex 0.011169 0.002652 0.150000
vertex 0.011140 0.002718 0.000000
vertex 0.011140 0.002718 0.150000
endloop
endfacet
facet normal 0.000000 0.000000 -1.000000
outer loop
vertex 0.006325 0.005275 0.000000
vertex 0.006252 0.005348 0.000000
vertex 0.006175 0.005429 0.000000
endloop
endfacet
facet normal 0.737083 0.675802 0.000000
outer loop
vertex 0.006175 0.005429 0.000000
vertex 0.006095 0.005516 0.000000
vertex 0.006095 0.005516 0.150000
endloop
endfacet
facet normal 0.737080 0.675806 0.000000
outer loop
vertex 0.006175 0.005429 0.000000
vertex 0.006095 0.005516 0.150000
vertex 0.006175 0.005429 0.150000
endloop
endfacet
facet normal 0.000000 0.000000 -1.000000
outer loop
vertex 0.006391 0.005211 0.000000
vertex 0.006325 0.005275 0.000000
vertex 0.006175 0.005429 0.000000
endloop
endfacet
facet normal 0.000000 0.000000 -1.000000
outer loop
vertex 0.006493 0.005119 0.000000
vertex 0.006447 0.005159 0.000000
vertex 0.006391 0.005211 0.000000
endloop
endfacet
facet normal 0.659946 0.751313 0.000000
outer loop
vertex 0.006447 0.005159 0.150000
vertex 0.006493 0.005119 0.150000
vertex 0.006493 0.005119 0.000000
endloop
endfacet
facet normal 0.680418 0.732824 0.000011
outer loop
vertex 0.006391 0.005211 0.150000
vertex 0.006447 0.005159 0.150000
vertex 0.006493 0.005119 0.000000
endloop
endfacet
facet normal 0.000000 0.000000 -1.000000
outer loop
vertex 0.006493 0.005119 0.000000
vertex 0.006391 0.005211 0.000000
vertex 0.006175 0.005429 0.000000
endloop
endfacet
facet normal 0.722930 0.690921 0.000000
outer loop
vertex 0.006175 0.005429 0.000000
vertex 0.006175 0.005429 0.150000
vertex 0.006252 0.005348 0.150000
endloop
endfacet
facet normal 0.695803 0.718232 0.000030
outer loop
vertex 0.006325 0.005275 0.150000
vertex 0.006391 0.005211 0.150000
vertex 0.006493 0.005119 0.000000
endloop
endfacet
facet normal 0.709469 0.704737 0.000014
outer loop
vertex 0.006175 0.005429 0.000000
vertex 0.006252 0.005348 0.150000
vertex 0.006325 0.005275 0.150000
endloop
endfacet
facet normal 0.698569 0.715542 0.000036
outer loop
vertex 0.006175 0.005429 0.000000
vertex 0.006325 0.005275 0.150000
vertex 0.006493 0.005119 0.000000
endloop
endfacet
facet normal 0.767801 0.640688 0.000000
outer loop
vertex 0.011097 0.002785 0.000000
vertex 0.010500 0.003500 0.000000
vertex 0.010500 0.003500 0.150000
endloop
endfacet
facet normal 0.767802 0.640687 0.000000
outer loop
vertex 0.011097 0.002785 0.000000
vertex 0.010500 0.003500 0.150000
vertex 0.011097 0.002785 0.150000
endloop
endfacet
facet normal 0.000278 0.000000 1.000000
outer loop
vertex 0.008155 0.000161 0.150000
vertex 0.008362 0.000081 0.150000
vertex 0.008591 0.000024 0.150000
endloop
endfacet
facet normal 0.000000 0.000000 1.000000
outer loop
vertex 0.008591 0.000024 0.150000
vertex 0.008843 0.000000 0.150000
vertex 0.009116 0.000020 0.150000
endloop
endfacet
facet normal 0.000000 0.000000 1.000000
outer loop
vertex 0.009116 0.000020 0.150000
vertex 0.009259 0.000050 0.150000
vertex 0.009407 0.000094 0.150000
endloop
endfacet
facet normal -0.001363 0.000000 0.999999
outer loop
vertex 0.009407 0.000094 0.150000
vertex 0.009559 0.000155 0.150000
vertex 0.009871 0.000314 0.150000
endloop
endfacet
facet normal 0.000815 0.000000 1.000000
outer loop
vertex 0.009871 0.000314 0.150000
vertex 0.010415 0.000564 0.150000
vertex 0.010530 0.000626 0.150000
endloop
endfacet
facet normal -0.001098 0.000000 0.999999
outer loop
vertex 0.010530 0.000626 0.150000
vertex 0.010635 0.000693 0.150000
vertex 0.010731 0.000769 0.150000
endloop
endfacet
facet normal 0.001556 0.000000 0.999999
outer loop
vertex 0.010731 0.000769 0.150000
vertex 0.010817 0.000859 0.150000
vertex 0.010892 0.000965 0.150000
endloop
endfacet
facet normal 0.001253 0.000000 0.999999
outer loop
vertex 0.010892 0.000965 0.150000
vertex 0.010956 0.001091 0.150000
vertex 0.011010 0.001239 0.150000
endloop
endfacet
facet normal 0.005391 0.000000 0.999985
outer loop
vertex 0.011010 0.001239 0.150000
vertex 0.011054 0.001400 0.150000
vertex 0.011094 0.001557 0.150000
endloop
endfacet
facet normal 0.000000 0.000000 1.000000
outer loop
vertex 0.011094 0.001557 0.150000
vertex 0.011129 0.001710 0.150000
vertex 0.011158 0.001858 0.150000
endloop
endfacet
facet normal 0.001189 0.000000 0.999999
outer loop
vertex 0.011158 0.001858 0.150000
vertex 0.011196 0.002133 0.150000
vertex 0.011208 0.002375 0.150000
endloop
endfacet
facet normal 0.002070 0.000000 0.999998
outer loop
vertex 0.011208 0.002375 0.150000
vertex 0.011203 0.002479 0.150000
vertex 0.011190 0.002572 0.150000
endloop
endfacet
facet normal 0.000000 0.000000 1.000000
outer loop
vertex 0.011190 0.002572 0.150000
vertex 0.011169 0.002652 0.150000
vertex 0.011140 0.002718 0.150000
endloop
endfacet
facet normal 0.001568 0.000000 0.999999
outer loop
vertex 0.011140 0.002718 0.150000
vertex 0.011097 0.002785 0.150000
vertex 0.010500 0.003500 0.150000
endloop
endfacet
facet normal 0.000000 0.000000 1.000000
outer loop
vertex 0.010500 0.003500 0.150000
vertex 0.010408 0.003594 0.150000
vertex 0.010324 0.003676 0.150000
endloop
endfacet
facet normal 0.000000 0.000000 1.000000
outer loop
vertex 0.010324 0.003676 0.150000
vertex 0.010249 0.003741 0.150000
vertex 0.010189 0.003786 0.150000
endloop
endfacet
facet normal 0.000000 0.000000 1.000000
outer loop
vertex 0.010189 0.003786 0.150000
vertex 0.008300 0.004724 0.150000
vertex 0.008210 0.004756 0.150000
endloop
endfacet
facet normal -0.000006 0.000000 1.000000
outer loop
vertex 0.008210 0.004756 0.150000
vertex 0.007253 0.004998 0.150000
vertex 0.006844 0.005018 0.150000
endloop
endfacet
facet normal 0.000000 0.000000 1.000000
outer loop
vertex 0.008210 0.004756 0.150000
vertex 0.006844 0.005018 0.150000
vertex 0.006677 0.005045 0.150000
endloop
endfacet
facet normal 0.000000 0.000000 1.000000
outer loop
vertex 0.010324 0.003676 0.150000
vertex 0.010189 0.003786 0.150000
vertex 0.008210 0.004756 0.150000
endloop
endfacet
facet normal 0.000285 0.000000 1.000000
outer loop
vertex 0.011140 0.002718 0.150000
vertex 0.010500 0.003500 0.150000
vertex 0.010324 0.003676 0.150000
endloop
endfacet
facet normal 0.000493 0.000000 1.000000
outer loop
vertex 0.011208 0.002375 0.150000
vertex 0.011190 0.002572 0.150000
vertex 0.011140 0.002718 0.150000
endloop
endfacet
facet normal 0.000000 0.000000 1.000000
outer loop
vertex 0.011094 0.001557 0.150000
vertex 0.011158 0.001858 0.150000
vertex 0.011208 0.002375 0.150000
endloop
endfacet
facet normal -0.000518 0.000000 1.000000
outer loop
vertex 0.010892 0.000965 0.150000
vertex 0.011010 0.001239 0.150000
vertex 0.011094 0.001557 0.150000
endloop
endfacet
facet normal 0.000224 0.000000 1.000000
outer loop
vertex 0.010530 0.000626 0.150000
vertex 0.010731 0.000769 0.150000
vertex 0.010892 0.000965 0.150000
endloop
endfacet
facet normal 0.000000 0.000000 1.000000
outer loop
vertex 0.009116 0.000020 0.150000
vertex 0.009407 0.000094 0.150000
vertex 0.009871 0.000314 0.150000
endloop
endfacet
facet normal -0.000131 0.000000 1.000000
outer loop
vertex 0.009871 0.000314 0.150000
vertex 0.010530 0.000626 0.150000
vertex 0.010892 0.000965 0.150000
endloop
endfacet
facet normal 0.000297 0.000000 1.000000
outer loop
vertex 0.010892 0.000965 0.150000
vertex 0.011094 0.001557 0.150000
vertex 0.011208 0.002375 0.150000
endloop
endfacet
facet normal 0.000000 0.000000 1.000000
outer loop
vertex 0.011208 0.002375 0.150000
vertex 0.011140 0.002718 0.150000
vertex 0.010324 0.003676 0.150000
endloop
endfacet
facet normal 0.000000 0.000000 1.000000
outer loop
vertex 0.010324 0.003676 0.150000
vertex 0.008210 0.004756 0.150000
vertex 0.006677 0.005045 0.150000
endloop
endfacet
facet normal 0.000385 0.000000 1.000000
outer loop
vertex 0.010324 0.003676 0.150000
vertex 0.006677 0.005045 0.150000
vertex 0.006603 0.005065 0.150000
endloop
endfacet
facet normal 0.000000 0.000000 1.000000
outer loop
vertex 0.010892 0.000965 0.150000
vertex 0.011208 0.002375 0.150000
vertex 0.010324 0.003676 0.150000
endloop
endfacet
facet normal 0.000076 0.000000 1.000000
outer loop
vertex 0.009116 0.000020 0.150000
vertex 0.009871 0.000314 0.150000
vertex 0.010892 0.000965 0.150000
endloop
endfacet
facet normal -0.000039 0.000000 1.000000
outer loop
vertex 0.008155 0.000161 0.150000
vertex 0.008591 0.000024 0.150000
vertex 0.009116 0.000020 0.150000
endloop
endfacet
facet normal 0.000000 0.000000 1.000000
outer loop
vertex 0.007833 0.000360 0.150000
vertex 0.007981 0.000254 0.150000
vertex 0.008155 0.000161 0.150000
endloop
endfacet
facet normal 0.005812 0.000000 0.999983
outer loop
vertex 0.007693 0.000484 0.150000
vertex 0.007763 0.000419 0.150000
vertex 0.007833 0.000360 0.150000
endloop
endfacet
facet normal -0.001466 0.000000 0.999999
outer loop
vertex 0.007457 0.000709 0.150000
vertex 0.007693 0.000484 0.150000
vertex 0.007833 0.000360 0.150000
endloop
endfacet
facet normal -0.000025 0.000000 1.000000
outer loop
vertex 0.007833 0.000360 0.150000
vertex 0.008155 0.000161 0.150000
vertex 0.009116 0.000020 0.150000
endloop
endfacet
facet normal 0.000000 0.000000 1.000000
outer loop
vertex 0.009116 0.000020 0.150000
vertex 0.010892 0.000965 0.150000
vertex 0.010324 0.003676 0.150000
endloop
endfacet
facet normal 0.000000 0.000000 1.000000
outer loop
vertex 0.009116 0.000020 0.150000
vertex 0.010324 0.003676 0.150000
vertex 0.006603 0.005065 0.150000
endloop
endfacet
facet normal 0.000023 0.000000 1.000000
outer loop
vertex 0.007457 0.000709 0.150000
vertex 0.007833 0.000360 0.150000
vertex 0.009116 0.000020 0.150000
endloop
endfacet
facet normal 0.000181 0.000000 1.000000
outer loop
vertex 0.007362 0.000797 0.150000
vertex 0.007457 0.000709 0.150000
vertex 0.009116 0.000020 0.150000
endloop
endfacet
facet normal -0.000002 0.000000 1.000000
outer loop
vertex 0.009116 0.000020 0.150000
vertex 0.006603 0.005065 0.150000
vertex 0.006540 0.005089 0.150000
endloop
endfacet
facet normal 0.000000 0.000000 1.000000
outer loop
vertex 0.009116 0.000020 0.150000
vertex 0.006540 0.005089 0.150000
vertex 0.006493 0.005119 0.150000
endloop
endfacet
facet normal -0.000174 0.000000 1.000000
outer loop
vertex 0.007256 0.000892 0.150000
vertex 0.007362 0.000797 0.150000
vertex 0.009116 0.000020 0.150000
endloop
endfacet
facet normal -0.005812 0.000000 0.999983
outer loop
vertex 0.007016 0.001100 0.150000
vertex 0.007135 0.000994 0.150000
vertex 0.007256 0.000892 0.150000
endloop
endfacet
facet normal 0.002451 0.000000 0.999997
outer loop
vertex 0.006832 0.001307 0.150000
vertex 0.006916 0.001204 0.150000
vertex 0.007016 0.001100 0.150000
endloop
endfacet
facet normal 0.000000 0.000000 1.000000
outer loop
vertex 0.006451 0.001999 0.150000
vertex 0.006701 0.001505 0.150000
vertex 0.006832 0.001307 0.150000
endloop
endfacet
facet normal 0.000297 0.000000 1.000000
outer loop
vertex 0.006451 0.001999 0.150000
vertex 0.006832 0.001307 0.150000
vertex 0.007016 0.001100 0.150000
endloop
endfacet
facet normal 0.000000 0.000000 1.000000
outer loop
vertex 0.007016 0.001100 0.150000
vertex 0.007256 0.000892 0.150000
vertex 0.009116 0.000020 0.150000
endloop
endfacet
facet normal -0.000374 0.000000 1.000000
outer loop
vertex 0.009116 0.000020 0.150000
vertex 0.006493 0.005119 0.150000
vertex 0.006447 0.005159 0.150000
endloop
endfacet
facet normal -0.000157 0.000000 1.000000
outer loop
vertex 0.009116 0.000020 0.150000
vertex 0.006447 0.005159 0.150000
vertex 0.006391 0.005211 0.150000
endloop
endfacet
facet normal -0.000023 0.000000 1.000000
outer loop
vertex 0.006451 0.001999 0.150000
vertex 0.007016 0.001100 0.150000
vertex 0.009116 0.000020 0.150000
endloop
endfacet
facet normal 0.000773 0.000000 1.000000
outer loop
vertex 0.006405 0.002061 0.150000
vertex 0.006451 0.001999 0.150000
vertex 0.009116 0.000020 0.150000
endloop
endfacet
facet normal 0.000412 0.000000 1.000000
outer loop
vertex 0.009116 0.000020 0.150000
vertex 0.006391 0.005211 0.150000
vertex 0.006325 0.005275 0.150000
endloop
endfacet
facet normal -0.000133 0.000000 1.000000
outer loop
vertex 0.009116 0.000020 0.150000
vertex 0.006325 0.005275 0.150000
vertex 0.006252 0.005348 0.150000
endloop
endfacet
facet normal 0.000000 0.000000 1.000000
outer loop
vertex 0.006291 0.002174 0.150000
vertex 0.006405 0.002061 0.150000
vertex 0.009116 0.000020 0.150000
endloop
endfacet
facet normal 0.000000 0.000000 1.000000
outer loop
vertex 0.006291 0.002174 0.150000
vertex 0.009116 0.000020 0.150000
vertex 0.006252 0.005348 0.150000
endloop
endfacet
facet normal -0.000098 0.000000 1.000000
outer loop
vertex 0.006291 0.002174 0.150000
vertex 0.006252 0.005348 0.150000
vertex 0.006175 0.005429 0.150000
endloop
endfacet
facet normal 0.000000 0.000000 1.000000
outer loop
vertex 0.006150 0.002282 0.150000
vertex 0.006291 0.002174 0.150000
vertex 0.006175 0.005429 0.150000
endloop
endfacet
facet normal 0.000043 0.000000 1.000000
outer loop
vertex 0.006150 0.002282 0.150000
vertex 0.006175 0.005429 0.150000
vertex 0.006095 0.005516 0.150000
endloop
endfacet
facet normal 0.000231 0.000000 1.000000
outer loop
vertex 0.006071 0.002333 0.150000
vertex 0.006150 0.002282 0.150000
vertex 0.006095 0.005516 0.150000
endloop
endfacet
facet normal 0.000022 0.000000 1.000000
outer loop
vertex 0.006071 0.002333 0.150000
vertex 0.006095 0.005516 0.150000
vertex 0.005938 0.005700 0.150000
endloop
endfacet
facet normal -0.000427 0.000000 1.000000
outer loop
vertex 0.005988 0.002383 0.150000
vertex 0.006071 0.002333 0.150000
vertex 0.005938 0.005700 0.150000
endloop
endfacet
facet normal 0.000192 0.000000 1.000000
outer loop
vertex 0.005988 0.002383 0.150000
vertex 0.005938 0.005700 0.150000
vertex 0.005865 0.005795 0.150000
endloop
endfacet
facet normal 0.000000 0.000000 1.000000
outer loop
vertex 0.005129 0.002855 0.150000
vertex 0.005359 0.002713 0.150000
vertex 0.005813 0.002480 0.150000
endloop
endfacet
facet normal 0.000000 0.000000 1.000000
outer loop
vertex 0.005813 0.002480 0.150000
vertex 0.005988 0.002383 0.150000
vertex 0.005865 0.005795 0.150000
endloop
endfacet
facet normal -0.000211 0.000000 1.000000
outer loop
vertex 0.005813 0.002480 0.150000
vertex 0.005865 0.005795 0.150000
vertex 0.005799 0.005888 0.150000
endloop
endfacet
facet normal 0.000000 0.000000 1.000000
outer loop
vertex 0.004870 0.003030 0.150000
vertex 0.005129 0.002855 0.150000
vertex 0.005813 0.002480 0.150000
endloop
endfacet
facet normal 0.000229 0.000000 1.000000
outer loop
vertex 0.000937 0.006319 0.150000
vertex 0.004165 0.003555 0.150000
vertex 0.004870 0.003030 0.150000
endloop
endfacet
facet normal 0.002011 0.000000 0.999998
outer loop
vertex 0.000618 0.006692 0.150000
vertex 0.000701 0.006583 0.150000
vertex 0.000937 0.006319 0.150000
endloop
endfacet
facet normal 0.000000 0.000000 1.000000
outer loop
vertex 0.000449 0.006932 0.150000
vertex 0.000533 0.006809 0.150000
vertex 0.000618 0.006692 0.150000
endloop
endfacet
facet normal -0.002439 0.000000 0.999997
outer loop
vertex 0.000097 0.007546 0.150000
vertex 0.000367 0.007058 0.150000
vertex 0.000449 0.006932 0.150000
endloop
endfacet
facet normal 0.000000 0.000000 1.000000
outer loop
vertex 0.000004 0.007834 0.150000
vertex 0.000022 0.007746 0.150000
vertex 0.000097 0.007546 0.150000
endloop
endfacet
facet normal 0.000000 0.000000 1.000000
outer loop
vertex 0.000008 0.008010 0.150000
vertex 0.000000 0.007922 0.150000
vertex 0.000004 0.007834 0.150000
endloop
endfacet
facet normal -0.001642 0.000000 0.999999
outer loop
vertex 0.000085 0.008267 0.150000
vertex 0.000025 0.008098 0.150000
vertex 0.000008 0.008010 0.150000
endloop
endfacet
facet normal 0.003083 0.000000 0.999995
outer loop
vertex 0.000213 0.008502 0.150000
vertex 0.000167 0.008427 0.150000
vertex 0.000085 0.008267 0.150000
endloop
endfacet
facet normal 0.000000 0.000000 1.000000
outer loop
vertex 0.000352 0.008700 0.150000
vertex 0.000260 0.008573 0.150000
vertex 0.000213 0.008502 0.150000
endloop
endfacet
facet normal 0.000000 0.000000 1.000000
outer loop
vertex 0.000551 0.008802 0.150000
vertex 0.000425 0.008755 0.150000
vertex 0.000352 0.008700 0.150000
endloop
endfacet
facet normal -0.000317 0.000000 1.000000
outer loop
vertex 0.001126 0.008903 0.150000
vertex 0.000912 0.008875 0.150000
vertex 0.000551 0.008802 0.150000
endloop
endfacet
facet normal 0.000000 0.000000 1.000000
outer loop
vertex 0.002211 0.008977 0.150000
vertex 0.001565 0.008944 0.150000
vertex 0.001126 0.008903 0.150000
endloop
endfacet
facet normal 0.000066 0.000000 1.000000
outer loop
vertex 0.003931 0.008669 0.150000
vertex 0.003756 0.008765 0.150000
vertex 0.002211 0.008977 0.150000
endloop
endfacet
facet normal 0.000000 0.000000 1.000000
outer loop
vertex 0.004114 0.008559 0.150000
vertex 0.004053 0.008597 0.150000
vertex 0.003931 0.008669 0.150000
endloop
endfacet
facet normal 0.000000 0.000000 1.000000
outer loop
vertex 0.004224 0.008483 0.150000
vertex 0.004172 0.008521 0.150000
vertex 0.004114 0.008559 0.150000
endloop
endfacet
facet normal 0.000000 0.000000 1.000000
outer loop
vertex 0.004297 0.008417 0.150000
vertex 0.004266 0.008449 0.150000
vertex 0.004224 0.008483 0.150000
endloop
endfacet
facet normal 0.000000 0.000000 1.000000
outer loop
vertex 0.005173 0.007287 0.150000
vertex 0.004929 0.007655 0.150000
vertex 0.004297 0.008417 0.150000
endloop
endfacet
facet normal 0.000125 0.000000 1.000000
outer loop
vertex 0.005813 0.002480 0.150000
vertex 0.005799 0.005888 0.150000
vertex 0.005696 0.006065 0.150000
endloop
endfacet
facet normal 0.000000 0.000000 1.000000
outer loop
vertex 0.005696 0.006065 0.150000
vertex 0.005173 0.007287 0.150000
vertex 0.004297 0.008417 0.150000
endloop
endfacet
facet normal 0.000000 0.000000 1.000000
outer loop
vertex 0.004297 0.008417 0.150000
vertex 0.004224 0.008483 0.150000
vertex 0.004114 0.008559 0.150000
endloop
endfacet
facet normal -0.000055 0.000000 1.000000
outer loop
vertex 0.004114 0.008559 0.150000
vertex 0.003931 0.008669 0.150000
vertex 0.002211 0.008977 0.150000
endloop
endfacet
facet normal 0.000000 0.000000 1.000000
outer loop
vertex 0.002211 0.008977 0.150000
vertex 0.001126 0.008903 0.150000
vertex 0.000551 0.008802 0.150000
endloop
endfacet
facet normal -0.000144 0.000000 1.000000
outer loop
vertex 0.000551 0.008802 0.150000
vertex 0.000352 0.008700 0.150000
vertex 0.000213 0.008502 0.150000
endloop
endfacet
facet normal 0.000491 0.000000 1.000000
outer loop
vertex 0.000213 0.008502 0.150000
vertex 0.000085 0.008267 0.150000
vertex 0.000008 0.008010 0.150000
endloop
endfacet
facet normal 0.000000 0.000000 1.000000
outer loop
vertex 0.000008 0.008010 0.150000
vertex 0.000004 0.007834 0.150000
vertex 0.000097 0.007546 0.150000
endloop
endfacet
facet normal -0.000375 0.000000 1.000000
outer loop
vertex 0.000097 0.007546 0.150000
vertex 0.000449 0.006932 0.150000
vertex 0.000618 0.006692 0.150000
endloop
endfacet
facet normal 0.000000 0.000000 1.000000
outer loop
vertex 0.000618 0.006692 0.150000
vertex 0.000937 0.006319 0.150000
vertex 0.004870 0.003030 0.150000
endloop
endfacet
facet normal 0.000000 0.000000 1.000000
outer loop
vertex 0.004870 0.003030 0.150000
vertex 0.005813 0.002480 0.150000
vertex 0.005696 0.006065 0.150000
endloop
endfacet
facet normal 0.000094 0.000000 1.000000
outer loop
vertex 0.005696 0.006065 0.150000
vertex 0.004297 0.008417 0.150000
vertex 0.004114 0.008559 0.150000
endloop
endfacet
facet normal 0.000004 0.000000 1.000000
outer loop
vertex 0.004114 0.008559 0.150000
vertex 0.002211 0.008977 0.150000
vertex 0.000551 0.008802 0.150000
endloop
endfacet
facet normal 0.000000 0.000000 1.000000
outer loop
vertex 0.000551 0.008802 0.150000
vertex 0.000213 0.008502 0.150000
vertex 0.000008 0.008010 0.150000
endloop
endfacet
facet normal 0.000000 0.000000 1.000000
outer loop
vertex 0.000008 0.008010 0.150000
vertex 0.000097 0.007546 0.150000
vertex 0.000618 0.006692 0.150000
endloop
endfacet
facet normal -0.000004 0.000000 1.000000
outer loop
vertex 0.000618 0.006692 0.150000
vertex 0.004870 0.003030 0.150000
vertex 0.005696 0.006065 0.150000
endloop
endfacet
facet normal 0.000000 0.000000 1.000000
outer loop
vertex 0.005696 0.006065 0.150000
vertex 0.004114 0.008559 0.150000
vertex 0.000551 0.008802 0.150000
endloop
endfacet
facet normal 0.000000 0.000000 1.000000
outer loop
vertex 0.000551 0.008802 0.150000
vertex 0.000008 0.008010 0.150000
vertex 0.000618 0.006692 0.150000
endloop
endfacet
facet normal 0.000000 0.000000 1.000000
outer loop
vertex 0.005696 0.006065 0.150000
vertex 0.000551 0.008802 0.150000
vertex 0.000618 0.006692 0.150000
endloop
endfacet
facet normal 0.000000 0.000000 -1.000000
outer loop
vertex 0.011196 0.002133 0.000000
vertex 0.011158 0.001858 0.000000
vertex 0.011129 0.001710 0.000000
endloop
endfacet
facet normal 0.000000 0.000000 -1.000000
outer loop
vertex 0.011129 0.001710 0.000000
vertex 0.011094 0.001557 0.000000
vertex 0.011054 0.001400 0.000000
endloop
endfacet
facet normal 0.000000 0.000000 -1.000000
outer loop
vertex 0.011054 0.001400 0.000000
vertex 0.011010 0.001239 0.000000
vertex 0.010956 0.001091 0.000000
endloop
endfacet
facet normal 0.000000 0.000000 -1.000000
outer loop
vertex 0.010956 0.001091 0.000000
vertex 0.010892 0.000965 0.000000
vertex 0.010817 0.000859 0.000000
endloop
endfacet
facet normal 0.000000 0.000000 -1.000000
outer loop
vertex 0.010817 0.000859 0.000000
vertex 0.010731 0.000769 0.000000
vertex 0.010635 0.000693 0.000000
endloop
endfacet
facet normal 0.000000 0.000000 -1.000000
outer loop
vertex 0.010635 0.000693 0.000000
vertex 0.010530 0.000626 0.000000
vertex 0.010415 0.000564 0.000000
endloop
endfacet
facet normal 0.000000 0.000000 -1.000000
outer loop
vertex 0.009871 0.000314 0.000000
vertex 0.009559 0.000155 0.000000
vertex 0.009407 0.000094 0.000000
endloop
endfacet
facet normal 0.000000 0.000000 -1.000000
outer loop
vertex 0.010635 0.000693 0.000000
vertex 0.010415 0.000564 0.000000
vertex 0.009871 0.000314 0.000000
endloop
endfacet
facet normal 0.000000 0.000000 -1.000000
outer loop
vertex 0.010956 0.001091 0.000000
vertex 0.010817 0.000859 0.000000
vertex 0.010635 0.000693 0.000000
endloop
endfacet
facet normal 0.000000 0.000000 -1.000000
outer loop
vertex 0.011129 0.001710 0.000000
vertex 0.011054 0.001400 0.000000
vertex 0.010956 0.001091 0.000000
endloop
endfacet
facet normal 0.000000 0.000000 -1.000000
outer loop
vertex 0.011208 0.002375 0.000000
vertex 0.011196 0.002133 0.000000
vertex 0.011129 0.001710 0.000000
endloop
endfacet
facet normal 0.000000 0.000000 -1.000000
outer loop
vertex 0.011190 0.002572 0.000000
vertex 0.011203 0.002479 0.000000
vertex 0.011208 0.002375 0.000000
endloop
endfacet
facet normal 0.000000 0.000000 -1.000000
outer loop
vertex 0.011140 0.002718 0.000000
vertex 0.011169 0.002652 0.000000
vertex 0.011190 0.002572 0.000000
endloop
endfacet
facet normal 0.000000 0.000000 -1.000000
outer loop
vertex 0.010500 0.003500 0.000000
vertex 0.011097 0.002785 0.000000
vertex 0.011140 0.002718 0.000000
endloop
endfacet
facet normal 0.000000 0.000000 -1.000000
outer loop
vertex 0.010324 0.003676 0.000000
vertex 0.010408 0.003594 0.000000
vertex 0.010500 0.003500 0.000000
endloop
endfacet
facet normal 0.000000 0.000000 -1.000000
outer loop
vertex 0.010189 0.003786 0.000000
vertex 0.010249 0.003741 0.000000
vertex 0.010324 0.003676 0.000000
endloop
endfacet
facet normal 0.000000 0.000000 -1.000000
outer loop
vertex 0.008210 0.004756 0.000000
vertex 0.008300 0.004724 0.000000
vertex 0.010189 0.003786 0.000000
endloop
endfacet
facet normal 0.000000 0.000000 -1.000000
outer loop
vertex 0.006844 0.005018 0.000000
vertex 0.007253 0.004998 0.000000
vertex 0.008210 0.004756 0.000000
endloop
endfacet
facet normal 0.000000 0.000000 -1.000000
outer loop
vertex 0.006677 0.005045 0.000000
vertex 0.006844 0.005018 0.000000
vertex 0.008210 0.004756 0.000000
endloop
endfacet
facet normal 0.000000 0.000000 -1.000000
outer loop
vertex 0.008210 0.004756 0.000000
vertex 0.010189 0.003786 0.000000
vertex 0.010324 0.003676 0.000000
endloop
endfacet
facet normal 0.000000 0.000000 -1.000000
outer loop
vertex 0.010324 0.003676 0.000000
vertex 0.010500 0.003500 0.000000
vertex 0.011140 0.002718 0.000000
endloop
endfacet
facet normal 0.000000 0.000000 -1.000000
outer loop
vertex 0.011140 0.002718 0.000000
vertex 0.011190 0.002572 0.000000
vertex 0.011208 0.002375 0.000000
endloop
endfacet
facet normal 0.000000 0.000000 -1.000000
outer loop
vertex 0.011208 0.002375 0.000000
vertex 0.011129 0.001710 0.000000
vertex 0.010956 0.001091 0.000000
endloop
endfacet
facet normal 0.000000 0.000000 -1.000000
outer loop
vertex 0.010956 0.001091 0.000000
vertex 0.010635 0.000693 0.000000
vertex 0.009871 0.000314 0.000000
endloop
endfacet
facet normal 0.000000 0.000000 -1.000000
outer loop
vertex 0.009871 0.000314 0.000000
vertex 0.009407 0.000094 0.000000
vertex 0.009259 0.000050 0.000000
endloop
endfacet
facet normal 0.000000 0.000000 -1.000000
outer loop
vertex 0.009259 0.000050 0.000000
vertex 0.009116 0.000020 0.000000
vertex 0.008843 0.000000 0.000000
endloop
endfacet
facet normal 0.000000 0.000000 -1.000000
outer loop
vertex 0.008843 0.000000 0.000000
vertex 0.008591 0.000024 0.000000
vertex 0.008362 0.000081 0.000000
endloop
endfacet
facet normal 0.000000 0.000000 -1.000000
outer loop
vertex 0.008362 0.000081 0.000000
vertex 0.008155 0.000161 0.000000
vertex 0.007981 0.000254 0.000000
endloop
endfacet
facet normal 0.000000 0.000000 -1.000000
outer loop
vertex 0.007981 0.000254 0.000000
vertex 0.007833 0.000360 0.000000
vertex 0.007763 0.000419 0.000000
endloop
endfacet
facet normal 0.000000 0.000000 -1.000000
outer loop
vertex 0.007763 0.000419 0.000000
vertex 0.007693 0.000484 0.000000
vertex 0.007457 0.000709 0.000000
endloop
endfacet
facet normal 0.000000 0.000000 -1.000000
outer loop
vertex 0.007981 0.000254 0.000000
vertex 0.007763 0.000419 0.000000
vertex 0.007457 0.000709 0.000000
endloop
endfacet
facet normal 0.000000 0.000000 -1.000000
outer loop
vertex 0.008843 0.000000 0.000000
vertex 0.008362 0.000081 0.000000
vertex 0.007981 0.000254 0.000000
endloop
endfacet
facet normal 0.000000 0.000000 -1.000000
outer loop
vertex 0.009871 0.000314 0.000000
vertex 0.009259 0.000050 0.000000
vertex 0.008843 0.000000 0.000000
endloop
endfacet
facet normal 0.000000 0.000000 -1.000000
outer loop
vertex 0.011208 0.002375 0.000000
vertex 0.010956 0.001091 0.000000
vertex 0.009871 0.000314 0.000000
endloop
endfacet
facet normal 0.000000 0.000000 -1.000000
outer loop
vertex 0.010324 0.003676 0.000000
vertex 0.011140 0.002718 0.000000
vertex 0.011208 0.002375 0.000000
endloop
endfacet
facet normal 0.000000 0.000000 -1.000000
outer loop
vertex 0.006677 0.005045 0.000000
vertex 0.008210 0.004756 0.000000
vertex 0.010324 0.003676 0.000000
endloop
endfacet
facet normal 0.000000 0.000000 -1.000000
outer loop
vertex 0.006603 0.005065 0.000000
vertex 0.006677 0.005045 0.000000
vertex 0.010324 0.003676 0.000000
endloop
endfacet
facet normal 0.000000 0.000000 -1.000000
outer loop
vertex 0.010324 0.003676 0.000000
vertex 0.011208 0.002375 0.000000
vertex 0.009871 0.000314 0.000000
endloop
endfacet
facet normal 0.000000 0.000000 -1.000000
outer loop
vertex 0.009871 0.000314 0.000000
vertex 0.008843 0.000000 0.000000
vertex 0.007981 0.000254 0.000000
endloop
endfacet
facet normal 0.000000 0.000000 -1.000000
outer loop
vertex 0.007981 0.000254 0.000000
vertex 0.007457 0.000709 0.000000
vertex 0.007362 0.000797 0.000000
endloop
endfacet
facet normal 0.000000 0.000000 -1.000000
outer loop
vertex 0.007256 0.000892 0.000000
vertex 0.007135 0.000994 0.000000
vertex 0.007016 0.001100 0.000000
endloop
endfacet
facet normal 0.000000 0.000000 -1.000000
outer loop
vertex 0.007981 0.000254 0.000000
vertex 0.007362 0.000797 0.000000
vertex 0.007256 0.000892 0.000000
endloop
endfacet
facet normal 0.000000 0.000000 -1.000000
outer loop
vertex 0.010324 0.003676 0.000000
vertex 0.009871 0.000314 0.000000
vertex 0.007981 0.000254 0.000000
endloop
endfacet
facet normal 0.000000 0.000000 -1.000000
outer loop
vertex 0.006603 0.005065 0.000000
vertex 0.010324 0.003676 0.000000
vertex 0.007981 0.000254 0.000000
endloop
endfacet
facet normal 0.000000 0.000000 -1.000000
outer loop
vertex 0.007256 0.000892 0.000000
vertex 0.007016 0.001100 0.000000
vertex 0.006916 0.001204 0.000000
endloop
endfacet
facet normal 0.000000 0.000000 -1.000000
outer loop
vertex 0.006603 0.005065 0.000000
vertex 0.007981 0.000254 0.000000
vertex 0.007256 0.000892 0.000000
endloop
endfacet
facet normal 0.000000 0.000000 -1.000000
outer loop
vertex 0.006540 0.005089 0.000000
vertex 0.006603 0.005065 0.000000
vertex 0.007256 0.000892 0.000000
endloop
endfacet
facet normal 0.000000 0.000000 -1.000000
outer loop
vertex 0.007256 0.000892 0.000000
vertex 0.006916 0.001204 0.000000
vertex 0.006832 0.001307 0.000000
endloop
endfacet
facet normal 0.000000 0.000000 -1.000000
outer loop
vertex 0.006832 0.001307 0.000000
vertex 0.006701 0.001505 0.000000
vertex 0.006451 0.001999 0.000000
endloop
endfacet
facet normal 0.000000 0.000000 -1.000000
outer loop
vertex 0.007256 0.000892 0.000000
vertex 0.006832 0.001307 0.000000
vertex 0.006451 0.001999 0.000000
endloop
endfacet
facet normal 0.000000 0.000000 -1.000000
outer loop
vertex 0.006493 0.005119 0.000000
vertex 0.006540 0.005089 0.000000
vertex 0.007256 0.000892 0.000000
endloop
endfacet
facet normal 0.000000 0.000000 -1.000000
outer loop
vertex 0.006447 0.005159 0.000000
vertex 0.006493 0.005119 0.000000
vertex 0.007256 0.000892 0.000000
endloop
endfacet
facet normal 0.000000 0.000000 -1.000000
outer loop
vertex 0.006447 0.005159 0.000000
vertex 0.007256 0.000892 0.000000
vertex 0.006451 0.001999 0.000000
endloop
endfacet
facet normal 0.000000 0.000000 -1.000000
outer loop
vertex 0.006391 0.005211 0.000000
vertex 0.006447 0.005159 0.000000
vertex 0.006451 0.001999 0.000000
endloop
endfacet
facet normal 0.000000 0.000000 -1.000000
outer loop
vertex 0.006391 0.005211 0.000000
vertex 0.006451 0.001999 0.000000
vertex 0.006405 0.002061 0.000000
endloop
endfacet
facet normal 0.000000 0.000000 -1.000000
outer loop
vertex 0.006325 0.005275 0.000000
vertex 0.006391 0.005211 0.000000
vertex 0.006405 0.002061 0.000000
endloop
endfacet
facet normal 0.000000 0.000000 -1.000000
outer loop
vertex 0.006325 0.005275 0.000000
vertex 0.006405 0.002061 0.000000
vertex 0.006291 0.002174 0.000000
endloop
endfacet
facet normal 0.000000 0.000000 -1.000000
outer loop
vertex 0.006252 0.005348 0.000000
vertex 0.006325 0.005275 0.000000
vertex 0.006291 0.002174 0.000000
endloop
endfacet
facet normal 0.000000 0.000000 -1.000000
outer loop
vertex 0.006252 0.005348 0.000000
vertex 0.006291 0.002174 0.000000
vertex 0.006150 0.002282 0.000000
endloop
endfacet
facet normal 0.000000 0.000000 -1.000000
outer loop
vertex 0.006175 0.005429 0.000000
vertex 0.006252 0.005348 0.000000
vertex 0.006150 0.002282 0.000000
endloop
endfacet
facet normal 0.000000 0.000000 -1.000000
outer loop
vertex 0.006175 0.005429 0.000000
vertex 0.006150 0.002282 0.000000
vertex 0.006071 0.002333 0.000000
endloop
endfacet
facet normal 0.000000 0.000000 -1.000000
outer loop
vertex 0.006095 0.005516 0.000000
vertex 0.006175 0.005429 0.000000
vertex 0.006071 0.002333 0.000000
endloop
endfacet
facet normal 0.000000 0.000000 -1.000000
outer loop
vertex 0.006095 0.005516 0.000000
vertex 0.006071 0.002333 0.000000
vertex 0.005988 0.002383 0.000000
endloop
endfacet
facet normal 0.000000 0.000000 -1.000000
outer loop
vertex 0.005938 0.005700 0.000000
vertex 0.006095 0.005516 0.000000
vertex 0.005988 0.002383 0.000000
endloop
endfacet
facet normal 0.000000 0.000000 -1.000000
outer loop
vertex 0.005813 0.002480 0.000000
vertex 0.005359 0.002713 0.000000
vertex 0.005129 0.002855 0.000000
endloop
endfacet
facet normal 0.000000 0.000000 -1.000000
outer loop
vertex 0.005938 0.005700 0.000000
vertex 0.005988 0.002383 0.000000
vertex 0.005813 0.002480 0.000000
endloop
endfacet
facet normal 0.000000 0.000000 -1.000000
outer loop
vertex 0.005865 0.005795 0.000000
vertex 0.005938 0.005700 0.000000
vertex 0.005813 0.002480 0.000000
endloop
endfacet
facet normal 0.000000 0.000000 -1.000000
outer loop
vertex 0.005813 0.002480 0.000000
vertex 0.005129 0.002855 0.000000
vertex 0.004870 0.003030 0.000000
endloop
endfacet
facet normal 0.000000 0.000000 -1.000000
outer loop
vertex 0.004870 0.003030 0.000000
vertex 0.004165 0.003555 0.000000
vertex 0.000937 0.006319 0.000000
endloop
endfacet
facet normal 0.000000 0.000000 -1.000000
outer loop
vertex 0.000937 0.006319 0.000000
vertex 0.000701 0.006583 0.000000
vertex 0.000618 0.006692 0.000000
endloop
endfacet
facet normal 0.000000 0.000000 -1.000000
outer loop
vertex 0.000618 0.006692 0.000000
vertex 0.000533 0.006809 0.000000
vertex 0.000449 0.006932 0.000000
endloop
endfacet
facet normal 0.000000 0.000000 -1.000000
outer loop
vertex 0.000449 0.006932 0.000000
vertex 0.000367 0.007058 0.000000
vertex 0.000097 0.007546 0.000000
endloop
endfacet
facet normal 0.000000 0.000000 -1.000000
outer loop
vertex 0.000097 0.007546 0.000000
vertex 0.000022 0.007746 0.000000
vertex 0.000004 0.007834 0.000000
endloop
endfacet
facet normal 0.000000 0.000000 -1.000000
outer loop
vertex 0.000004 0.007834 0.000000
vertex 0.000000 0.007922 0.000000
vertex 0.000008 0.008010 0.000000
endloop
endfacet
facet normal 0.000000 0.000000 -1.000000
outer loop
vertex 0.000008 0.008010 0.000000
vertex 0.000025 0.008098 0.000000
vertex 0.000085 0.008267 0.000000
endloop
endfacet
facet normal 0.000000 0.000000 -1.000000
outer loop
vertex 0.000085 0.008267 0.000000
vertex 0.000167 0.008427 0.000000
vertex 0.000213 0.008502 0.000000
endloop
endfacet
facet normal 0.000000 0.000000 -1.000000
outer loop
vertex 0.000213 0.008502 0.000000
vertex 0.000260 0.008573 0.000000
vertex 0.000352 0.008700 0.000000
endloop
endfacet
facet normal 0.000000 0.000000 -1.000000
outer loop
vertex 0.000352 0.008700 0.000000
vertex 0.000425 0.008755 0.000000
vertex 0.000551 0.008802 0.000000
endloop
endfacet
facet normal 0.000000 0.000000 -1.000000
outer loop
vertex 0.000551 0.008802 0.000000
vertex 0.000912 0.008875 0.000000
vertex 0.001126 0.008903 0.000000
endloop
endfacet
facet normal 0.000000 0.000000 -1.000000
outer loop
vertex 0.001126 0.008903 0.000000
vertex 0.001565 0.008944 0.000000
vertex 0.002211 0.008977 0.000000
endloop
endfacet
facet normal 0.000000 0.000000 -1.000000
outer loop
vertex 0.002211 0.008977 0.000000
vertex 0.003756 0.008765 0.000000
vertex 0.003931 0.008669 0.000000
endloop
endfacet
facet normal 0.000000 0.000000 -1.000000
outer loop
vertex 0.003931 0.008669 0.000000
vertex 0.004053 0.008597 0.000000
vertex 0.004114 0.008559 0.000000
endloop
endfacet
facet normal 0.000000 0.000000 -1.000000
outer loop
vertex 0.004114 0.008559 0.000000
vertex 0.004172 0.008521 0.000000
vertex 0.004224 0.008483 0.000000
endloop
endfacet
facet normal 0.000000 0.000000 -1.000000
outer loop
vertex 0.004224 0.008483 0.000000
vertex 0.004266 0.008449 0.000000
vertex 0.004297 0.008417 0.000000
endloop
endfacet
facet normal 0.000000 0.000000 -1.000000
outer loop
vertex 0.004297 0.008417 0.000000
vertex 0.004929 0.007655 0.000000
vertex 0.005173 0.007287 0.000000
endloop
endfacet
facet normal 0.000000 0.000000 -1.000000
outer loop
vertex 0.004297 0.008417 0.000000
vertex 0.005173 0.007287 0.000000
vertex 0.005696 0.006065 0.000000
endloop
endfacet
facet normal 0.000000 0.000000 -1.000000
outer loop
vertex 0.004114 0.008559 0.000000
vertex 0.004224 0.008483 0.000000
vertex 0.004297 0.008417 0.000000
endloop
endfacet
facet normal 0.000000 0.000000 -1.000000
outer loop
vertex 0.002211 0.008977 0.000000
vertex 0.003931 0.008669 0.000000
vertex 0.004114 0.008559 0.000000
endloop
endfacet
facet normal 0.000000 0.000000 -1.000000
outer loop
vertex 0.000551 0.008802 0.000000
vertex 0.001126 0.008903 0.000000
vertex 0.002211 0.008977 0.000000
endloop
endfacet
facet normal 0.000000 0.000000 -1.000000
outer loop
vertex 0.000213 0.008502 0.000000
vertex 0.000352 0.008700 0.000000
vertex 0.000551 0.008802 0.000000
endloop
endfacet
facet normal 0.000000 0.000000 -1.000000
outer loop
vertex 0.000008 0.008010 0.000000
vertex 0.000085 0.008267 0.000000
vertex 0.000213 0.008502 0.000000
endloop
endfacet
facet normal 0.000000 0.000000 -1.000000
outer loop
vertex 0.000097 0.007546 0.000000
vertex 0.000004 0.007834 0.000000
vertex 0.000008 0.008010 0.000000
endloop
endfacet
facet normal 0.000000 0.000000 -1.000000
outer loop
vertex 0.000618 0.006692 0.000000
vertex 0.000449 0.006932 0.000000
vertex 0.000097 0.007546 0.000000
endloop
endfacet
facet normal 0.000000 0.000000 -1.000000
outer loop
vertex 0.004870 0.003030 0.000000
vertex 0.000937 0.006319 0.000000
vertex 0.000618 0.006692 0.000000
endloop
endfacet
facet normal 0.000000 0.000000 -1.000000
outer loop
vertex 0.005865 0.005795 0.000000
vertex 0.005813 0.002480 0.000000
vertex 0.004870 0.003030 0.000000
endloop
endfacet
facet normal 0.000000 0.000000 -1.000000
outer loop
vertex 0.004297 0.008417 0.000000
vertex 0.005696 0.006065 0.000000
vertex 0.005799 0.005888 0.000000
endloop
endfacet
facet normal 0.000000 0.000000 -1.000000
outer loop
vertex 0.005799 0.005888 0.000000
vertex 0.005865 0.005795 0.000000
vertex 0.004870 0.003030 0.000000
endloop
endfacet
facet normal 0.000000 0.000000 -1.000000
outer loop
vertex 0.004870 0.003030 0.000000
vertex 0.000618 0.006692 0.000000
vertex 0.000097 0.007546 0.000000
endloop
endfacet
facet normal 0.000000 0.000000 -1.000000
outer loop
vertex 0.000097 0.007546 0.000000
vertex 0.000008 0.008010 0.000000
vertex 0.000213 0.008502 0.000000
endloop
endfacet
facet normal 0.000000 0.000000 -1.000000
outer loop
vertex 0.000213 0.008502 0.000000
vertex 0.000551 0.008802 0.000000
vertex 0.002211 0.008977 0.000000
endloop
endfacet
facet normal 0.000000 0.000000 -1.000000
outer loop
vertex 0.002211 0.008977 0.000000
vertex 0.004114 0.008559 0.000000
vertex 0.004297 0.008417 0.000000
endloop
endfacet
facet normal 0.000000 0.000000 -1.000000
outer loop
vertex 0.004297 0.008417 0.000000
vertex 0.005799 0.005888 0.000000
vertex 0.004870 0.003030 0.000000
endloop
endfacet
facet normal 0.000000 0.000000 -1.000000
outer loop
vertex 0.004870 0.003030 0.000000
vertex 0.000097 0.007546 0.000000
vertex 0.000213 0.008502 0.000000
endloop
endfacet
facet normal 0.000000 0.000000 -1.000000
outer loop
vertex 0.000213 0.008502 0.000000
vertex 0.002211 0.008977 0.000000
vertex 0.004297 0.008417 0.000000
endloop
endfacet
facet normal 0.000000 0.000000 -1.000000
outer loop
vertex 0.004870 0.003030 0.000000
vertex 0.000213 0.008502 0.000000
vertex 0.004297 0.008417 0.000000
endloop
endfacet
facet normal 0.594888 0.803809 0.000000
outer loop
vertex 0.010249 0.003741 0.150000
vertex 0.010249 0.003741 0.000000
vertex 0.010189 0.003786 0.000000
endloop
endfacet
facet normal 0.594888 0.803809 0.000000
outer loop
vertex 0.010249 0.003741 0.150000
vertex 0.010189 0.003786 0.000000
vertex 0.010189 0.003786 0.150000
endloop
endfacet
facet normal -0.351679 0.936121 0.000000
outer loop
vertex 0.000551 0.008802 0.150000
vertex 0.000551 0.008802 0.000000
vertex 0.000425 0.008755 0.000000
endloop
endfacet
facet normal -0.351679 0.936120 0.000000
outer loop
vertex 0.000551 0.008802 0.150000
vertex 0.000425 0.008755 0.000000
vertex 0.000425 0.008755 0.150000
endloop
endfacet
facet normal 0.159217 0.987244 0.000000
outer loop
vertex 0.006844 0.005018 0.150000
vertex 0.006844 0.005018 0.000000
vertex 0.006677 0.005045 0.000000
endloop
endfacet
facet normal 0.159215 0.987244 0.000000
outer loop
vertex 0.006844 0.005018 0.150000
vertex 0.006677 0.005045 0.000000
vertex 0.006677 0.005045 0.150000
endloop
endfacet
facet normal -0.935385 -0.353632 0.000000
outer loop
vertex 0.000022 0.007746 0.000000
vertex 0.000097 0.007546 0.000000
vertex 0.000097 0.007546 0.150000
endloop
endfacet
facet normal -0.935385 -0.353632 0.000000
outer loop
vertex 0.000022 0.007746 0.000000
vertex 0.000097 0.007546 0.150000
vertex 0.000022 0.007746 0.150000
endloop
endfacet
facet normal -0.981173 -0.193132 0.000000
outer loop
vertex 0.000004 0.007834 0.150000
vertex 0.000004 0.007834 0.000000
vertex 0.000022 0.007746 0.000000
endloop
endfacet
facet normal -0.981173 -0.193132 0.000000
outer loop
vertex 0.000004 0.007834 0.150000
vertex 0.000022 0.007746 0.000000
vertex 0.000022 0.007746 0.150000
endloop
endfacet
facet normal 0.841725 0.539906 0.000000
outer loop
vertex 0.011140 0.002718 0.150000
vertex 0.011140 0.002718 0.000000
vertex 0.011097 0.002785 0.000000
endloop
endfacet
facet normal 0.841743 0.539879 0.000000
outer loop
vertex 0.011140 0.002718 0.150000
vertex 0.011097 0.002785 0.000000
vertex 0.011097 0.002785 0.150000
endloop
endfacet
facet normal -0.469900 -0.882720 0.000000
outer loop
vertex 0.007981 0.000254 0.000000
vertex 0.008155 0.000161 0.000000
vertex 0.008155 0.000161 0.150000
endloop
endfacet
facet normal -0.469903 -0.882718 0.000000
outer loop
vertex 0.007981 0.000254 0.000000
vertex 0.008155 0.000161 0.150000
vertex 0.007981 0.000254 0.150000
endloop
endfacet
facet normal -0.595801 0.803132 0.000000
outer loop
vertex 0.000425 0.008755 0.150000
vertex 0.000425 0.008755 0.000000
vertex 0.000352 0.008700 0.000000
endloop
endfacet
facet normal -0.595801 0.803132 0.000000
outer loop
vertex 0.000425 0.008755 0.150000
vertex 0.000352 0.008700 0.000000
vertex 0.000352 0.008700 0.150000
endloop
endfacet
facet normal 0.340229 0.940343 0.000000
outer loop
vertex 0.008300 0.004724 0.150000
vertex 0.008300 0.004724 0.000000
vertex 0.008210 0.004756 0.000000
endloop
endfacet
facet normal 0.340229 0.940343 0.000000
outer loop
vertex 0.008300 0.004724 0.150000
vertex 0.008210 0.004756 0.000000
vertex 0.008210 0.004756 0.150000
endloop
endfacet
facet normal 0.481164 0.876631 0.000000
outer loop
vertex 0.003931 0.008669 0.000000
vertex 0.003756 0.008765 0.000000
vertex 0.003756 0.008765 0.150000
endloop
endfacet
facet normal 0.481165 0.876630 0.000000
outer loop
vertex 0.003931 0.008669 0.000000
vertex 0.003756 0.008765 0.150000
vertex 0.003931 0.008669 0.150000
endloop
endfacet
facet normal 0.507671 0.861551 0.000000
outer loop
vertex 0.004053 0.008597 0.000000
vertex 0.003931 0.008669 0.000000
vertex 0.003931 0.008669 0.150000
endloop
endfacet
facet normal 0.507668 0.861553 0.000000
outer loop
vertex 0.004053 0.008597 0.000000
vertex 0.003931 0.008669 0.150000
vertex 0.004053 0.008597 0.150000
endloop
endfacet
facet normal 0.530613 0.847614 0.000000
outer loop
vertex 0.004114 0.008559 0.000000
vertex 0.004053 0.008597 0.000000
vertex 0.004053 0.008597 0.150000
endloop
endfacet
facet normal 0.530613 0.847614 0.000000
outer loop
vertex 0.004114 0.008559 0.000000
vertex 0.004053 0.008597 0.150000
vertex 0.004114 0.008559 0.150000
endloop
endfacet
facet normal 0.584586 0.811332 0.000000
outer loop
vertex 0.004224 0.008483 0.150000
vertex 0.004224 0.008483 0.000000
vertex 0.004172 0.008521 0.000000
endloop
endfacet
facet normal 0.552999 0.833182 0.000000
outer loop
vertex 0.004172 0.008521 0.000000
vertex 0.004114 0.008559 0.000000
vertex 0.004114 0.008559 0.150000
endloop
endfacet
facet normal 0.584586 0.811332 0.000000
outer loop
vertex 0.004172 0.008521 0.150000
vertex 0.004224 0.008483 0.150000
vertex 0.004172 0.008521 0.000000
endloop
endfacet
facet normal 0.552999 0.833182 0.000000
outer loop
vertex 0.004114 0.008559 0.150000
vertex 0.004172 0.008521 0.150000
vertex 0.004172 0.008521 0.000000
endloop
endfacet
facet normal 0.537119 -0.843506 0.000000
outer loop
vertex 0.010530 0.000626 0.150000
vertex 0.010530 0.000626 0.000000
vertex 0.010635 0.000693 0.000000
endloop
endfacet
facet normal 0.537119 -0.843506 0.000000
outer loop
vertex 0.010530 0.000626 0.150000
vertex 0.010635 0.000693 0.000000
vertex 0.010635 0.000693 0.150000
endloop
endfacet
facet normal 0.816034 0.578004 0.000000
outer loop
vertex 0.005865 0.005795 0.000000
vertex 0.005799 0.005888 0.000000
vertex 0.005799 0.005888 0.150000
endloop
endfacet
facet normal 0.816034 0.578004 0.000000
outer loop
vertex 0.005865 0.005795 0.000000
vertex 0.005799 0.005888 0.150000
vertex 0.005865 0.005795 0.150000
endloop
endfacet
facet normal 0.761631 0.648011 0.000000
outer loop
vertex 0.006095 0.005516 0.150000
vertex 0.006095 0.005516 0.000000
vertex 0.005938 0.005700 0.000000
endloop
endfacet
facet normal 0.791186 0.611576 0.000000
outer loop
vertex 0.005938 0.005700 0.000000
vertex 0.005865 0.005795 0.000000
vertex 0.005865 0.005795 0.150000
endloop
endfacet
facet normal 0.761631 0.648011 0.000000
outer loop
vertex 0.005938 0.005700 0.150000
vertex 0.006095 0.005516 0.150000
vertex 0.005938 0.005700 0.000000
endloop
endfacet
facet normal 0.791183 0.611580 0.000000
outer loop
vertex 0.005938 0.005700 0.000000
vertex 0.005865 0.005795 0.150000
vertex 0.005938 0.005700 0.150000
endloop
endfacet
facet normal 0.000000 0.000000 1.000000
outer loop
vertex 0.000533 0.006809 0.000000
vertex 0.000618 0.006692 0.000000
vertex 0.000701 0.006583 0.000000
endloop
endfacet
facet normal -0.793494 -0.608578 0.000000
outer loop
vertex 0.000701 0.006583 0.000000
vertex 0.000701 0.006583 0.150000
vertex 0.000618 0.006692 0.150000
endloop
endfacet
facet normal -0.810117 -0.586269 -0.000025
outer loop
vertex 0.000701 0.006583 0.000000
vertex 0.000618 0.006692 0.150000
vertex 0.000533 0.006809 0.150000
endloop
endfacet
facet normal 0.000000 0.000000 1.000000
outer loop
vertex 0.000449 0.006932 0.000000
vertex 0.000533 0.006809 0.000000
vertex 0.000701 0.006583 0.000000
endloop
endfacet
facet normal -0.838598 -0.544751 0.000000
outer loop
vertex 0.000367 0.007058 0.150000
vertex 0.000367 0.007058 0.000000
vertex 0.000449 0.006932 0.000000
endloop
endfacet
facet normal -0.824795 -0.565432 -0.000073
outer loop
vertex 0.000701 0.006583 0.000000
vertex 0.000533 0.006809 0.150000
vertex 0.000449 0.006932 0.150000
endloop
endfacet
facet normal -0.838597 -0.544752 0.000000
outer loop
vertex 0.000449 0.006932 0.150000
vertex 0.000367 0.007058 0.150000
vertex 0.000449 0.006932 0.000000
endloop
endfacet
facet normal -0.810091 -0.586304 0.000000
outer loop
vertex 0.000701 0.006583 0.000000
vertex 0.000449 0.006932 0.150000
vertex 0.000449 0.006932 0.000000
endloop
endfacet
facet normal -0.834806 -0.550544 0.000000
outer loop
vertex 0.006701 0.001505 0.000000
vertex 0.006832 0.001307 0.000000
vertex 0.006832 0.001307 0.150000
endloop
endfacet
facet normal -0.834806 -0.550544 0.000000
outer loop
vertex 0.006701 0.001505 0.000000
vertex 0.006832 0.001307 0.150000
vertex 0.006701 0.001505 0.150000
endloop
endfacet
facet normal 0.815103 -0.579316 0.000000
outer loop
vertex 0.010817 0.000859 0.150000
vertex 0.010817 0.000859 0.000000
vertex 0.010892 0.000965 0.000000
endloop
endfacet
facet normal 0.815098 -0.579324 0.000000
outer loop
vertex 0.010817 0.000859 0.150000
vertex 0.010892 0.000965 0.000000
vertex 0.010892 0.000965 0.150000
endloop
endfacet
facet normal 0.941730 -0.336370 0.000000
outer loop
vertex 0.010956 0.001091 0.150000
vertex 0.010956 0.001091 0.000000
vertex 0.011010 0.001239 0.000000
endloop
endfacet
facet normal 0.941730 -0.336370 0.000000
outer loop
vertex 0.010956 0.001091 0.150000
vertex 0.011010 0.001239 0.000000
vertex 0.011010 0.001239 0.150000
endloop
endfacet
facet normal 0.864580 0.502496 0.000000
outer loop
vertex 0.005799 0.005888 0.150000
vertex 0.005799 0.005888 0.000000
vertex 0.005696 0.006065 0.000000
endloop
endfacet
facet normal 0.864581 0.502493 0.000000
outer loop
vertex 0.005799 0.005888 0.150000
vertex 0.005696 0.006065 0.000000
vertex 0.005696 0.006065 0.150000
endloop
endfacet
facet normal 0.659254 0.751920 0.000000
outer loop
vertex 0.010324 0.003676 0.000000
vertex 0.010249 0.003741 0.000000
vertex 0.010249 0.003741 0.150000
endloop
endfacet
facet normal 0.659262 0.751913 0.000000
outer loop
vertex 0.010324 0.003676 0.000000
vertex 0.010249 0.003741 0.150000
vertex 0.010324 0.003676 0.150000
endloop
endfacet
facet normal 0.716184 0.697912 0.000000
outer loop
vertex 0.010500 0.003500 0.150000
vertex 0.010500 0.003500 0.000000
vertex 0.010408 0.003594 0.000000
endloop
endfacet
facet normal 0.693935 0.720038 0.000000
outer loop
vertex 0.010408 0.003594 0.000000
vertex 0.010324 0.003676 0.000000
vertex 0.010324 0.003676 0.150000
endloop
endfacet
facet normal 0.716184 0.697912 0.000000
outer loop
vertex 0.010408 0.003594 0.150000
vertex 0.010500 0.003500 0.150000
vertex 0.010408 0.003594 0.000000
endloop
endfacet
facet normal 0.693921 0.720051 0.000000
outer loop
vertex 0.010408 0.003594 0.000000
vertex 0.010324 0.003676 0.150000
vertex 0.010408 0.003594 0.150000
endloop
endfacet
facet normal 0.966956 0.254944 0.000000
outer loop
vertex 0.011190 0.002572 0.150000
vertex 0.011190 0.002572 0.000000
vertex 0.011169 0.002652 0.000000
endloop
endfacet
facet normal 0.966951 0.254962 0.000000
outer loop
vertex 0.011190 0.002572 0.150000
vertex 0.011169 0.002652 0.000000
vertex 0.011169 0.002652 0.150000
endloop
endfacet
facet normal -0.943440 0.331545 0.000000
outer loop
vertex 0.000085 0.008267 0.150000
vertex 0.000085 0.008267 0.000000
vertex 0.000025 0.008098 0.000000
endloop
endfacet
facet normal -0.943440 0.331545 0.000000
outer loop
vertex 0.000085 0.008267 0.150000
vertex 0.000025 0.008098 0.000000
vertex 0.000025 0.008098 0.150000
endloop
endfacet
facet normal 0.072723 -0.997352 0.000000
outer loop
vertex 0.008843 0.000000 0.150000
vertex 0.008843 0.000000 0.000000
vertex 0.009116 0.000020 0.000000
endloop
endfacet
facet normal 0.072723 -0.997352 0.000000
outer loop
vertex 0.008843 0.000000 0.150000
vertex 0.009116 0.000020 0.000000
vertex 0.009116 0.000020 0.150000
endloop
endfacet
facet normal 0.444904 0.895578 0.000000
outer loop
vertex 0.010189 0.003786 0.000000
vertex 0.008300 0.004724 0.000000
vertex 0.008300 0.004724 0.150000
endloop
endfacet
facet normal 0.444904 0.895578 0.000000
outer loop
vertex 0.010189 0.003786 0.000000
vertex 0.008300 0.004724 0.150000
vertex 0.010189 0.003786 0.150000
endloop
endfacet
facet normal 0.364514 0.931198 0.000000
outer loop
vertex 0.006603 0.005065 0.150000
vertex 0.006603 0.005065 0.000000
vertex 0.006540 0.005089 0.000000
endloop
endfacet
facet normal 0.364522 0.931195 0.000000
outer loop
vertex 0.006603 0.005065 0.150000
vertex 0.006540 0.005089 0.000000
vertex 0.006540 0.005089 0.150000
endloop
endfacet
facet normal 0.135910 0.990721 0.000000
outer loop
vertex 0.003756 0.008765 0.000000
vertex 0.002211 0.008977 0.000000
vertex 0.002211 0.008977 0.150000
endloop
endfacet
facet normal 0.135910 0.990721 0.000000
outer loop
vertex 0.003756 0.008765 0.000000
vertex 0.002211 0.008977 0.150000
vertex 0.003756 0.008765 0.150000
endloop
endfacet
facet normal -0.772304 -0.635253 0.000000
outer loop
vertex 0.006832 0.001307 0.150000
vertex 0.006832 0.001307 0.000000
vertex 0.006916 0.001204 0.000000
endloop
endfacet
facet normal -0.772299 -0.635260 0.000000
outer loop
vertex 0.006832 0.001307 0.150000
vertex 0.006916 0.001204 0.000000
vertex 0.006916 0.001204 0.150000
endloop
endfacet
facet normal 0.288145 -0.957587 0.000000
outer loop
vertex 0.009259 0.000050 0.150000
vertex 0.009259 0.000050 0.000000
vertex 0.009407 0.000094 0.000000
endloop
endfacet
facet normal 0.288142 -0.957588 0.000000
outer loop
vertex 0.009259 0.000050 0.150000
vertex 0.009407 0.000094 0.000000
vertex 0.009407 0.000094 0.150000
endloop
endfacet
facet normal -0.891933 -0.452168 0.000000
outer loop
vertex 0.006451 0.001999 0.000000
vertex 0.006701 0.001505 0.000000
vertex 0.006701 0.001505 0.150000
endloop
endfacet
facet normal -0.891934 -0.452166 0.000000
outer loop
vertex 0.006451 0.001999 0.000000
vertex 0.006701 0.001505 0.150000
vertex 0.006451 0.001999 0.150000
endloop
endfacet
facet normal -0.094311 -0.995543 0.000000
outer loop
vertex 0.008591 0.000024 0.000000
vertex 0.008843 0.000000 0.000000
vertex 0.008843 0.000000 0.150000
endloop
endfacet
facet normal -0.094311 -0.995543 0.000000
outer loop
vertex 0.008591 0.000024 0.000000
vertex 0.008843 0.000000 0.150000
vertex 0.008591 0.000024 0.150000
endloop
endfacet
facet normal 0.919277 0.393611 0.000000
outer loop
vertex 0.005696 0.006065 0.000000
vertex 0.005173 0.007287 0.000000
vertex 0.005173 0.007287 0.150000
endloop
endfacet
facet normal 0.919277 0.393610 0.000000
outer loop
vertex 0.005696 0.006065 0.000000
vertex 0.005173 0.007287 0.150000
vertex 0.005696 0.006065 0.150000
endloop
endfacet
facet normal -0.604236 -0.796805 0.000000
outer loop
vertex 0.006150 0.002282 0.150000
vertex 0.006150 0.002282 0.000000
vertex 0.006291 0.002174 0.000000
endloop
endfacet
facet normal -0.604234 -0.796807 0.000000
outer loop
vertex 0.006150 0.002282 0.150000
vertex 0.006291 0.002174 0.000000
vertex 0.006291 0.002174 0.150000
endloop
endfacet
facet normal -0.360091 -0.932917 0.000000
outer loop
vertex 0.008155 0.000161 0.150000
vertex 0.008155 0.000161 0.000000
vertex 0.008362 0.000081 0.000000
endloop
endfacet
facet normal -0.360086 -0.932919 0.000000
outer loop
vertex 0.008155 0.000161 0.150000
vertex 0.008362 0.000081 0.000000
vertex 0.008362 0.000081 0.150000
endloop
endfacet
facet normal -0.583545 -0.812081 0.000000
outer loop
vertex 0.007833 0.000360 0.150000
vertex 0.007833 0.000360 0.000000
vertex 0.007981 0.000254 0.000000
endloop
endfacet
facet normal -0.583549 -0.812078 0.000000
outer loop
vertex 0.007833 0.000360 0.150000
vertex 0.007981 0.000254 0.000000
vertex 0.007981 0.000254 0.150000
endloop
endfacet
facet normal -0.980248 0.197774 0.000000
outer loop
vertex 0.000025 0.008098 0.150000
vertex 0.000025 0.008098 0.000000
vertex 0.000008 0.008010 0.000000
endloop
endfacet
facet normal -0.980248 0.197774 0.000000
outer loop
vertex 0.000025 0.008098 0.150000
vertex 0.000008 0.008010 0.000000
vertex 0.000008 0.008010 0.150000
endloop
endfacet
facet normal 0.624918 -0.780690 0.000000
outer loop
vertex 0.010635 0.000693 0.150000
vertex 0.010635 0.000693 0.000000
vertex 0.010731 0.000769 0.000000
endloop
endfacet
facet normal 0.624912 -0.780695 0.000000
outer loop
vertex 0.010635 0.000693 0.150000
vertex 0.010731 0.000769 0.000000
vertex 0.010731 0.000769 0.150000
endloop
endfacet
facet normal 0.632117 0.774873 0.000000
outer loop
vertex 0.004266 0.008449 0.150000
vertex 0.004266 0.008449 0.000000
vertex 0.004224 0.008483 0.000000
endloop
endfacet
facet normal 0.632110 0.774878 0.000000
outer loop
vertex 0.004266 0.008449 0.150000
vertex 0.004224 0.008483 0.000000
vertex 0.004224 0.008483 0.150000
endloop
endfacet
facet normal 0.833911 0.551900 0.000000
outer loop
vertex 0.004929 0.007655 0.000000
vertex 0.004929 0.007655 0.150000
vertex 0.005173 0.007287 0.150000
endloop
endfacet
facet normal 0.833911 0.551898 0.000000
outer loop
vertex 0.004929 0.007655 0.000000
vertex 0.005173 0.007287 0.150000
vertex 0.005173 0.007287 0.000000
endloop
endfacet
facet normal -0.524197 -0.851597 0.000000
outer loop
vertex 0.005129 0.002855 0.000000
vertex 0.005359 0.002713 0.000000
vertex 0.005359 0.002713 0.150000
endloop
endfacet
facet normal -0.524197 -0.851597 0.000000
outer loop
vertex 0.005129 0.002855 0.000000
vertex 0.005359 0.002713 0.150000
vertex 0.005129 0.002855 0.150000
endloop
endfacet
facet normal -0.597144 -0.802134 0.000000
outer loop
vertex 0.004165 0.003555 0.150000
vertex 0.004165 0.003555 0.000000
vertex 0.004870 0.003030 0.000000
endloop
endfacet
facet normal -0.559612 -0.828755 0.000000
outer loop
vertex 0.004870 0.003030 0.000000
vertex 0.005129 0.002855 0.000000
vertex 0.005129 0.002855 0.150000
endloop
endfacet
facet normal -0.597144 -0.802134 0.000000
outer loop
vertex 0.004870 0.003030 0.150000
vertex 0.004165 0.003555 0.150000
vertex 0.004870 0.003030 0.000000
endloop
endfacet
facet normal -0.559610 -0.828756 0.000000
outer loop
vertex 0.005129 0.002855 0.150000
vertex 0.004870 0.003030 0.150000
vertex 0.004870 0.003030 0.000000
endloop
endfacet
facet normal -0.650481 -0.759522 0.000000
outer loop
vertex 0.000937 0.006319 0.150000
vertex 0.000937 0.006319 0.000000
vertex 0.004165 0.003555 0.000000
endloop
endfacet
facet normal -0.650481 -0.759522 0.000000
outer loop
vertex 0.000937 0.006319 0.150000
vertex 0.004165 0.003555 0.000000
vertex 0.004165 0.003555 0.150000
endloop
endfacet
facet normal 0.889866 -0.456223 0.000000
outer loop
vertex 0.010892 0.000965 0.150000
vertex 0.010892 0.000965 0.000000
vertex 0.010956 0.001091 0.000000
endloop
endfacet
facet normal 0.889870 -0.456214 0.000000
outer loop
vertex 0.010892 0.000965 0.150000
vertex 0.010956 0.001091 0.000000
vertex 0.010956 0.001091 0.150000
endloop
endfacet
facet normal -0.998875 -0.047431 0.000000
outer loop
vertex 0.000000 0.007922 0.150000
vertex 0.000000 0.007922 0.000000
vertex 0.000004 0.007834 0.000000
endloop
endfacet
facet normal -0.998875 -0.047431 0.000000
outer loop
vertex 0.000000 0.007922 0.150000
vertex 0.000004 0.007834 0.000000
vertex 0.000004 0.007834 0.150000
endloop
endfacet
facet normal -0.806563 -0.591148 0.000000
outer loop
vertex 0.006405 0.002061 0.150000
vertex 0.006405 0.002061 0.000000
vertex 0.006451 0.001999 0.000000
endloop
endfacet
facet normal -0.806558 -0.591155 0.000000
outer loop
vertex 0.006405 0.002061 0.150000
vertex 0.006451 0.001999 0.000000
vertex 0.006451 0.001999 0.150000
endloop
endfacet
facet normal 0.531950 0.846776 0.000000
outer loop
vertex 0.006540 0.005089 0.150000
vertex 0.006540 0.005089 0.000000
vertex 0.006493 0.005119 0.000000
endloop
endfacet
facet normal 0.531944 0.846780 0.000000
outer loop
vertex 0.006540 0.005089 0.150000
vertex 0.006493 0.005119 0.000000
vertex 0.006493 0.005119 0.150000
endloop
endfacet
facet normal 0.202331 -0.979317 0.000000
outer loop
vertex 0.009116 0.000020 0.150000
vertex 0.009116 0.000020 0.000000
vertex 0.009259 0.000050 0.000000
endloop
endfacet
facet normal 0.202331 -0.979317 0.000000
outer loop
vertex 0.009116 0.000020 0.150000
vertex 0.009259 0.000050 0.000000
vertex 0.009259 0.000050 0.150000
endloop
endfacet
facet normal 0.998800 -0.048979 0.000000
outer loop
vertex 0.011196 0.002133 0.000000
vertex 0.011208 0.002375 0.000000
vertex 0.011208 0.002375 0.150000
endloop
endfacet
facet normal 0.998800 -0.048979 0.000000
outer loop
vertex 0.011196 0.002133 0.000000
vertex 0.011208 0.002375 0.150000
vertex 0.011196 0.002133 0.150000
endloop
endfacet
endsolid Exported from Blender-3.6.8
