solid Exported from Blender-3.6.8
facet normal 0.000000 0.000000 -1.000000
outer loop
vertex 0.003893 0.004032 0.000000
vertex 0.004266 0.003091 0.000000
vertex 0.004322 0.002944 0.000000
endloop
endfacet
facet normal 0.000000 0.000000 -1.000000
outer loop
vertex 0.004322 0.002944 0.000000
vertex 0.004372 0.002802 0.000000
vertex 0.004418 0.002666 0.000000
endloop
endfacet
facet normal 0.000000 0.000000 -1.000000
outer loop
vertex 0.004418 0.002666 0.000000
vertex 0.004459 0.002533 0.000000
vertex 0.004494 0.002402 0.000000
endloop
endfacet
facet normal 0.000000 0.000000 -1.000000
outer loop
vertex 0.004494 0.002402 0.000000
vertex 0.004523 0.002274 0.000000
vertex 0.004546 0.002146 0.000000
endloop
endfacet
facet normal 0.000000 0.000000 -1.000000
outer loop
vertex 0.004546 0.002146 0.000000
vertex 0.004563 0.002017 0.000000
vertex 0.004584 0.001762 0.000000
endloop
endfacet
facet normal 0.000000 0.000000 -1.000000
outer loop
vertex 0.004599 0.001648 0.000000
vertex 0.004666 0.001261 0.000000
vertex 0.004676 0.001173 0.000000
endloop
endfacet
facet normal 0.000000 0.000000 -1.000000
outer loop
vertex 0.004494 0.002402 0.000000
vertex 0.004546 0.002146 0.000000
vertex 0.004584 0.001762 0.000000
endloop
endfacet
facet normal 0.000000 0.000000 -1.000000
outer loop
vertex 0.004599 0.001648 0.000000
vertex 0.004676 0.001173 0.000000
vertex 0.004678 0.001083 0.000000
endloop
endfacet
facet normal 0.000000 0.000000 -1.000000
outer loop
vertex 0.004494 0.002402 0.000000
vertex 0.004584 0.001762 0.000000
vertex 0.004599 0.001648 0.000000
endloop
endfacet
facet normal 0.000000 0.000000 -1.000000
outer loop
vertex 0.004322 0.002944 0.000000
vertex 0.004418 0.002666 0.000000
vertex 0.004494 0.002402 0.000000
endloop
endfacet
facet normal 0.000000 0.000000 -1.000000
outer loop
vertex 0.003893 0.004032 0.000000
vertex 0.004322 0.002944 0.000000
vertex 0.004494 0.002402 0.000000
endloop
endfacet
facet normal 0.000000 0.000000 -1.000000
outer loop
vertex 0.004599 0.001648 0.000000
vertex 0.004678 0.001083 0.000000
vertex 0.004670 0.000991 0.000000
endloop
endfacet
facet normal 0.000000 0.000000 -1.000000
outer loop
vertex 0.003893 0.004032 0.000000
vertex 0.004494 0.002402 0.000000
vertex 0.004599 0.001648 0.000000
endloop
endfacet
facet normal 0.000000 0.000000 -1.000000
outer loop
vertex 0.003800 0.004279 0.000000
vertex 0.003893 0.004032 0.000000
vertex 0.004599 0.001648 0.000000
endloop
endfacet
facet normal 0.000000 0.000000 -1.000000
outer loop
vertex 0.004599 0.001648 0.000000
vertex 0.004670 0.000991 0.000000
vertex 0.004652 0.000894 0.000000
endloop
endfacet
facet normal 0.000000 0.000000 -1.000000
outer loop
vertex 0.004652 0.000894 0.000000
vertex 0.004621 0.000791 0.000000
vertex 0.004402 0.000278 0.000000
endloop
endfacet
facet normal 0.000000 0.000000 -1.000000
outer loop
vertex 0.004402 0.000278 0.000000
vertex 0.004359 0.000201 0.000000
vertex 0.004311 0.000135 0.000000
endloop
endfacet
facet normal 0.000000 0.000000 -1.000000
outer loop
vertex 0.004311 0.000135 0.000000
vertex 0.004252 0.000082 0.000000
vertex 0.004181 0.000041 0.000000
endloop
endfacet
facet normal 0.000000 0.000000 -1.000000
outer loop
vertex 0.004181 0.000041 0.000000
vertex 0.004093 0.000014 0.000000
vertex 0.003985 0.000001 0.000000
endloop
endfacet
facet normal 0.000000 0.000000 -1.000000
outer loop
vertex 0.003985 0.000001 0.000000
vertex 0.003855 0.000004 0.000000
vertex 0.003698 0.000023 0.000000
endloop
endfacet
facet normal 0.000000 0.000000 -1.000000
outer loop
vertex 0.003698 0.000023 0.000000
vertex 0.003331 0.000083 0.000000
vertex 0.002934 0.000153 0.000000
endloop
endfacet
facet normal 0.000000 0.000000 -1.000000
outer loop
vertex 0.002934 0.000153 0.000000
vertex 0.002542 0.000226 0.000000
vertex 0.002186 0.000297 0.000000
endloop
endfacet
facet normal 0.000000 0.000000 -1.000000
outer loop
vertex 0.002186 0.000297 0.000000
vertex 0.002033 0.000329 0.000000
vertex 0.001900 0.000359 0.000000
endloop
endfacet
facet normal 0.000000 0.000000 -1.000000
outer loop
vertex 0.001900 0.000359 0.000000
vertex 0.001794 0.000386 0.000000
vertex 0.001716 0.000409 0.000000
endloop
endfacet
facet normal 0.000000 0.000000 -1.000000
outer loop
vertex 0.001900 0.000359 0.000000
vertex 0.001716 0.000409 0.000000
vertex 0.001646 0.000432 0.000000
endloop
endfacet
facet normal 0.000000 0.000000 -1.000000
outer loop
vertex 0.002934 0.000153 0.000000
vertex 0.002186 0.000297 0.000000
vertex 0.001900 0.000359 0.000000
endloop
endfacet
facet normal 0.000000 0.000000 -1.000000
outer loop
vertex 0.003985 0.000001 0.000000
vertex 0.003698 0.000023 0.000000
vertex 0.002934 0.000153 0.000000
endloop
endfacet
facet normal 0.000000 0.000000 -1.000000
outer loop
vertex 0.004311 0.000135 0.000000
vertex 0.004181 0.000041 0.000000
vertex 0.003985 0.000001 0.000000
endloop
endfacet
facet normal 0.000000 0.000000 -1.000000
outer loop
vertex 0.004652 0.000894 0.000000
vertex 0.004402 0.000278 0.000000
vertex 0.004311 0.000135 0.000000
endloop
endfacet
facet normal 0.000000 0.000000 -1.000000
outer loop
vertex 0.003800 0.004279 0.000000
vertex 0.004599 0.001648 0.000000
vertex 0.004652 0.000894 0.000000
endloop
endfacet
facet normal 0.000000 0.000000 -1.000000
outer loop
vertex 0.003759 0.004393 0.000000
vertex 0.003800 0.004279 0.000000
vertex 0.004652 0.000894 0.000000
endloop
endfacet
facet normal 0.000000 0.000000 -1.000000
outer loop
vertex 0.004652 0.000894 0.000000
vertex 0.004311 0.000135 0.000000
vertex 0.003985 0.000001 0.000000
endloop
endfacet
facet normal 0.000000 0.000000 -1.000000
outer loop
vertex 0.003985 0.000001 0.000000
vertex 0.002934 0.000153 0.000000
vertex 0.001900 0.000359 0.000000
endloop
endfacet
facet normal 0.000000 0.000000 -1.000000
outer loop
vertex 0.001900 0.000359 0.000000
vertex 0.001646 0.000432 0.000000
vertex 0.001561 0.000460 0.000000
endloop
endfacet
facet normal 0.000000 0.000000 -1.000000
outer loop
vertex 0.001900 0.000359 0.000000
vertex 0.001561 0.000460 0.000000
vertex 0.001464 0.000490 0.000000
endloop
endfacet
facet normal 0.000000 0.000000 -1.000000
outer loop
vertex 0.004652 0.000894 0.000000
vertex 0.003985 0.000001 0.000000
vertex 0.001900 0.000359 0.000000
endloop
endfacet
facet normal 0.000000 0.000000 -1.000000
outer loop
vertex 0.003721 0.004504 0.000000
vertex 0.003759 0.004393 0.000000
vertex 0.004652 0.000894 0.000000
endloop
endfacet
facet normal 0.000000 0.000000 -1.000000
outer loop
vertex 0.003686 0.004616 0.000000
vertex 0.003721 0.004504 0.000000
vertex 0.004652 0.000894 0.000000
endloop
endfacet
facet normal 0.000000 0.000000 -1.000000
outer loop
vertex 0.004652 0.000894 0.000000
vertex 0.001900 0.000359 0.000000
vertex 0.001464 0.000490 0.000000
endloop
endfacet
facet normal 0.000000 0.000000 -1.000000
outer loop
vertex 0.004652 0.000894 0.000000
vertex 0.001464 0.000490 0.000000
vertex 0.001360 0.000523 0.000000
endloop
endfacet
facet normal 0.000000 0.000000 -1.000000
outer loop
vertex 0.003652 0.004730 0.000000
vertex 0.003686 0.004616 0.000000
vertex 0.004652 0.000894 0.000000
endloop
endfacet
facet normal 0.000000 0.000000 -1.000000
outer loop
vertex 0.003457 0.005459 0.000000
vertex 0.003511 0.005273 0.000000
vertex 0.003619 0.004849 0.000000
endloop
endfacet
facet normal 0.000000 0.000000 -1.000000
outer loop
vertex 0.003619 0.004849 0.000000
vertex 0.003652 0.004730 0.000000
vertex 0.004652 0.000894 0.000000
endloop
endfacet
facet normal 0.000000 0.000000 -1.000000
outer loop
vertex 0.004652 0.000894 0.000000
vertex 0.001360 0.000523 0.000000
vertex 0.001253 0.000557 0.000000
endloop
endfacet
facet normal 0.000000 0.000000 -1.000000
outer loop
vertex 0.004652 0.000894 0.000000
vertex 0.001253 0.000557 0.000000
vertex 0.001147 0.000590 0.000000
endloop
endfacet
facet normal 0.000000 0.000000 -1.000000
outer loop
vertex 0.003457 0.005459 0.000000
vertex 0.003619 0.004849 0.000000
vertex 0.004652 0.000894 0.000000
endloop
endfacet
facet normal 0.000000 0.000000 -1.000000
outer loop
vertex 0.003180 0.006310 0.000000
vertex 0.003325 0.005878 0.000000
vertex 0.003457 0.005459 0.000000
endloop
endfacet
facet normal 0.000000 0.000000 -1.000000
outer loop
vertex 0.001995 0.007478 0.000000
vertex 0.002910 0.007074 0.000000
vertex 0.003180 0.006310 0.000000
endloop
endfacet
facet normal 0.000000 0.000000 -1.000000
outer loop
vertex 0.001541 0.007405 0.000000
vertex 0.001668 0.007433 0.000000
vertex 0.001995 0.007478 0.000000
endloop
endfacet
facet normal 0.000000 0.000000 -1.000000
outer loop
vertex 0.001424 0.007369 0.000000
vertex 0.001481 0.007388 0.000000
vertex 0.001541 0.007405 0.000000
endloop
endfacet
facet normal 0.000000 0.000000 -1.000000
outer loop
vertex 0.000984 0.007130 0.000000
vertex 0.001247 0.007288 0.000000
vertex 0.001424 0.007369 0.000000
endloop
endfacet
facet normal 0.000000 0.000000 -1.000000
outer loop
vertex 0.000784 0.006983 0.000000
vertex 0.000850 0.007034 0.000000
vertex 0.000984 0.007130 0.000000
endloop
endfacet
facet normal 0.000000 0.000000 -1.000000
outer loop
vertex 0.000598 0.006822 0.000000
vertex 0.000719 0.006930 0.000000
vertex 0.000784 0.006983 0.000000
endloop
endfacet
facet normal 0.000000 0.000000 -1.000000
outer loop
vertex 0.000498 0.006717 0.000000
vertex 0.000546 0.006769 0.000000
vertex 0.000598 0.006822 0.000000
endloop
endfacet
facet normal 0.000000 0.000000 -1.000000
outer loop
vertex 0.000334 0.006489 0.000000
vertex 0.000373 0.006551 0.000000
vertex 0.000498 0.006717 0.000000
endloop
endfacet
facet normal 0.000000 0.000000 -1.000000
outer loop
vertex 0.000253 0.006348 0.000000
vertex 0.000294 0.006421 0.000000
vertex 0.000334 0.006489 0.000000
endloop
endfacet
facet normal 0.000000 0.000000 -1.000000
outer loop
vertex 0.000109 0.006082 0.000000
vertex 0.000209 0.006268 0.000000
vertex 0.000253 0.006348 0.000000
endloop
endfacet
facet normal 0.000000 0.000000 -1.000000
outer loop
vertex 0.000030 0.005903 0.000000
vertex 0.000062 0.005986 0.000000
vertex 0.000109 0.006082 0.000000
endloop
endfacet
facet normal 0.000000 0.000000 -1.000000
outer loop
vertex 0.000001 0.005768 0.000000
vertex 0.000010 0.005831 0.000000
vertex 0.000030 0.005903 0.000000
endloop
endfacet
facet normal 0.000000 0.000000 -1.000000
outer loop
vertex 0.000010 0.005658 0.000000
vertex 0.000001 0.005710 0.000000
vertex 0.000001 0.005768 0.000000
endloop
endfacet
facet normal 0.000000 0.000000 -1.000000
outer loop
vertex 0.000198 0.005130 0.000000
vertex 0.000178 0.005184 0.000000
vertex 0.000010 0.005658 0.000000
endloop
endfacet
facet normal 0.000000 0.000000 -1.000000
outer loop
vertex 0.000341 0.004841 0.000000
vertex 0.000219 0.005082 0.000000
vertex 0.000198 0.005130 0.000000
endloop
endfacet
facet normal 0.000000 0.000000 -1.000000
outer loop
vertex 0.000341 0.004841 0.000000
vertex 0.000198 0.005130 0.000000
vertex 0.000010 0.005658 0.000000
endloop
endfacet
facet normal 0.000000 0.000000 -1.000000
outer loop
vertex 0.000010 0.005658 0.000000
vertex 0.000001 0.005768 0.000000
vertex 0.000030 0.005903 0.000000
endloop
endfacet
facet normal 0.000000 0.000000 -1.000000
outer loop
vertex 0.000030 0.005903 0.000000
vertex 0.000109 0.006082 0.000000
vertex 0.000253 0.006348 0.000000
endloop
endfacet
facet normal 0.000000 0.000000 -1.000000
outer loop
vertex 0.000253 0.006348 0.000000
vertex 0.000334 0.006489 0.000000
vertex 0.000498 0.006717 0.000000
endloop
endfacet
facet normal 0.000000 0.000000 -1.000000
outer loop
vertex 0.000498 0.006717 0.000000
vertex 0.000598 0.006822 0.000000
vertex 0.000784 0.006983 0.000000
endloop
endfacet
facet normal 0.000000 0.000000 -1.000000
outer loop
vertex 0.000784 0.006983 0.000000
vertex 0.000984 0.007130 0.000000
vertex 0.001424 0.007369 0.000000
endloop
endfacet
facet normal 0.000000 0.000000 -1.000000
outer loop
vertex 0.001424 0.007369 0.000000
vertex 0.001541 0.007405 0.000000
vertex 0.001995 0.007478 0.000000
endloop
endfacet
facet normal 0.000000 0.000000 -1.000000
outer loop
vertex 0.001995 0.007478 0.000000
vertex 0.003180 0.006310 0.000000
vertex 0.003457 0.005459 0.000000
endloop
endfacet
facet normal 0.000000 0.000000 -1.000000
outer loop
vertex 0.003457 0.005459 0.000000
vertex 0.004652 0.000894 0.000000
vertex 0.001147 0.000590 0.000000
endloop
endfacet
facet normal 0.000000 0.000000 -1.000000
outer loop
vertex 0.003457 0.005459 0.000000
vertex 0.001147 0.000590 0.000000
vertex 0.000955 0.000650 0.000000
endloop
endfacet
facet normal 0.000000 0.000000 -1.000000
outer loop
vertex 0.001424 0.007369 0.000000
vertex 0.001995 0.007478 0.000000
vertex 0.003457 0.005459 0.000000
endloop
endfacet
facet normal 0.000000 0.000000 -1.000000
outer loop
vertex 0.000498 0.006717 0.000000
vertex 0.000784 0.006983 0.000000
vertex 0.001424 0.007369 0.000000
endloop
endfacet
facet normal 0.000000 0.000000 -1.000000
outer loop
vertex 0.000030 0.005903 0.000000
vertex 0.000253 0.006348 0.000000
vertex 0.000498 0.006717 0.000000
endloop
endfacet
facet normal 0.000000 0.000000 -1.000000
outer loop
vertex 0.000341 0.004841 0.000000
vertex 0.000010 0.005658 0.000000
vertex 0.000030 0.005903 0.000000
endloop
endfacet
facet normal 0.000000 0.000000 -1.000000
outer loop
vertex 0.000361 0.004795 0.000000
vertex 0.000341 0.004841 0.000000
vertex 0.000030 0.005903 0.000000
endloop
endfacet
facet normal 0.000000 0.000000 -1.000000
outer loop
vertex 0.000030 0.005903 0.000000
vertex 0.000498 0.006717 0.000000
vertex 0.001424 0.007369 0.000000
endloop
endfacet
facet normal 0.000000 0.000000 -1.000000
outer loop
vertex 0.001424 0.007369 0.000000
vertex 0.003457 0.005459 0.000000
vertex 0.000955 0.000650 0.000000
endloop
endfacet
facet normal 0.000000 0.000000 -1.000000
outer loop
vertex 0.000815 0.000693 0.000000
vertex 0.000761 0.000710 0.000000
vertex 0.000680 0.000818 0.000000
endloop
endfacet
facet normal 0.000000 0.000000 -1.000000
outer loop
vertex 0.001424 0.007369 0.000000
vertex 0.000955 0.000650 0.000000
vertex 0.000815 0.000693 0.000000
endloop
endfacet
facet normal 0.000000 0.000000 -1.000000
outer loop
vertex 0.000361 0.004795 0.000000
vertex 0.000030 0.005903 0.000000
vertex 0.001424 0.007369 0.000000
endloop
endfacet
facet normal 0.000000 0.000000 -1.000000
outer loop
vertex 0.000382 0.004744 0.000000
vertex 0.000361 0.004795 0.000000
vertex 0.001424 0.007369 0.000000
endloop
endfacet
facet normal 0.000000 0.000000 -1.000000
outer loop
vertex 0.001424 0.007369 0.000000
vertex 0.000815 0.000693 0.000000
vertex 0.000680 0.000818 0.000000
endloop
endfacet
facet normal 0.000000 0.000000 -1.000000
outer loop
vertex 0.000680 0.000818 0.000000
vertex 0.000608 0.000935 0.000000
vertex 0.000540 0.001076 0.000000
endloop
endfacet
facet normal 0.000000 0.000000 -1.000000
outer loop
vertex 0.000540 0.001076 0.000000
vertex 0.000514 0.001153 0.000000
vertex 0.000497 0.001231 0.000000
endloop
endfacet
facet normal 0.000000 0.000000 -1.000000
outer loop
vertex 0.000497 0.001231 0.000000
vertex 0.000490 0.001309 0.000000
vertex 0.000496 0.001385 0.000000
endloop
endfacet
facet normal 0.000000 0.000000 -1.000000
outer loop
vertex 0.000496 0.001385 0.000000
vertex 0.000514 0.001467 0.000000
vertex 0.000539 0.001562 0.000000
endloop
endfacet
facet normal 0.000000 0.000000 -1.000000
outer loop
vertex 0.000539 0.001562 0.000000
vertex 0.000570 0.001665 0.000000
vertex 0.000605 0.001773 0.000000
endloop
endfacet
facet normal 0.000000 0.000000 -1.000000
outer loop
vertex 0.000605 0.001773 0.000000
vertex 0.000642 0.001882 0.000000
vertex 0.000680 0.001988 0.000000
endloop
endfacet
facet normal 0.000000 0.000000 -1.000000
outer loop
vertex 0.000680 0.001988 0.000000
vertex 0.000716 0.002089 0.000000
vertex 0.000750 0.002179 0.000000
endloop
endfacet
facet normal 0.000000 0.000000 -1.000000
outer loop
vertex 0.000750 0.002179 0.000000
vertex 0.000802 0.002315 0.000000
vertex 0.000823 0.002367 0.000000
endloop
endfacet
facet normal 0.000000 0.000000 -1.000000
outer loop
vertex 0.000680 0.001988 0.000000
vertex 0.000750 0.002179 0.000000
vertex 0.000823 0.002367 0.000000
endloop
endfacet
facet normal 0.000000 0.000000 -1.000000
outer loop
vertex 0.000539 0.001562 0.000000
vertex 0.000605 0.001773 0.000000
vertex 0.000680 0.001988 0.000000
endloop
endfacet
facet normal 0.000000 0.000000 -1.000000
outer loop
vertex 0.000497 0.001231 0.000000
vertex 0.000496 0.001385 0.000000
vertex 0.000539 0.001562 0.000000
endloop
endfacet
facet normal 0.000000 0.000000 -1.000000
outer loop
vertex 0.000680 0.000818 0.000000
vertex 0.000540 0.001076 0.000000
vertex 0.000497 0.001231 0.000000
endloop
endfacet
facet normal 0.000000 0.000000 -1.000000
outer loop
vertex 0.000401 0.004690 0.000000
vertex 0.000382 0.004744 0.000000
vertex 0.001424 0.007369 0.000000
endloop
endfacet
facet normal 0.000000 0.000000 -1.000000
outer loop
vertex 0.000845 0.003361 0.000000
vertex 0.000677 0.003832 0.000000
vertex 0.000401 0.004690 0.000000
endloop
endfacet
facet normal 0.000000 0.000000 -1.000000
outer loop
vertex 0.000845 0.003361 0.000000
vertex 0.000401 0.004690 0.000000
vertex 0.001424 0.007369 0.000000
endloop
endfacet
facet normal 0.000000 0.000000 -1.000000
outer loop
vertex 0.000680 0.000818 0.000000
vertex 0.000497 0.001231 0.000000
vertex 0.000539 0.001562 0.000000
endloop
endfacet
facet normal 0.000000 0.000000 -1.000000
outer loop
vertex 0.000539 0.001562 0.000000
vertex 0.000680 0.001988 0.000000
vertex 0.000823 0.002367 0.000000
endloop
endfacet
facet normal 0.000000 0.000000 -1.000000
outer loop
vertex 0.000680 0.000818 0.000000
vertex 0.000539 0.001562 0.000000
vertex 0.000823 0.002367 0.000000
endloop
endfacet
facet normal 0.000000 0.000000 -1.000000
outer loop
vertex 0.000856 0.003308 0.000000
vertex 0.000845 0.003361 0.000000
vertex 0.001424 0.007369 0.000000
endloop
endfacet
facet normal 0.000000 0.000000 -1.000000
outer loop
vertex 0.000862 0.003233 0.000000
vertex 0.000856 0.003308 0.000000
vertex 0.001424 0.007369 0.000000
endloop
endfacet
facet normal 0.000000 0.000000 -1.000000
outer loop
vertex 0.001424 0.007369 0.000000
vertex 0.000680 0.000818 0.000000
vertex 0.000823 0.002367 0.000000
endloop
endfacet
facet normal 0.000000 0.000000 -1.000000
outer loop
vertex 0.000823 0.002367 0.000000
vertex 0.000862 0.003233 0.000000
vertex 0.001424 0.007369 0.000000
endloop
endfacet
facet normal -0.738480 0.674275 0.000000
outer loop
vertex 0.000546 0.006769 0.000000
vertex 0.000498 0.006717 0.000000
vertex 0.000498 0.006717 0.150000
endloop
endfacet
facet normal -0.738481 0.674274 0.000000
outer loop
vertex 0.000546 0.006769 0.000000
vertex 0.000498 0.006717 0.150000
vertex 0.000546 0.006769 0.150000
endloop
endfacet
facet normal -0.665491 0.746406 0.000000
outer loop
vertex 0.000719 0.006930 0.150000
vertex 0.000719 0.006930 0.000000
vertex 0.000598 0.006822 0.000000
endloop
endfacet
facet normal -0.707028 0.707186 0.000000
outer loop
vertex 0.000598 0.006822 0.000000
vertex 0.000546 0.006769 0.000000
vertex 0.000546 0.006769 0.150000
endloop
endfacet
facet normal -0.665490 0.746406 0.000000
outer loop
vertex 0.000598 0.006822 0.150000
vertex 0.000719 0.006930 0.150000
vertex 0.000598 0.006822 0.000000
endloop
endfacet
facet normal -0.707029 0.707185 0.000000
outer loop
vertex 0.000598 0.006822 0.000000
vertex 0.000546 0.006769 0.150000
vertex 0.000598 0.006822 0.150000
endloop
endfacet
facet normal -0.902467 -0.430759 0.000000
outer loop
vertex 0.000540 0.001076 0.150000
vertex 0.000540 0.001076 0.000000
vertex 0.000608 0.000935 0.000000
endloop
endfacet
facet normal -0.902467 -0.430760 0.000000
outer loop
vertex 0.000540 0.001076 0.150000
vertex 0.000608 0.000935 0.000000
vertex 0.000608 0.000935 0.150000
endloop
endfacet
facet normal 0.956582 -0.291464 0.000000
outer loop
vertex 0.004621 0.000791 0.150000
vertex 0.004621 0.000791 0.000000
vertex 0.004652 0.000894 0.000000
endloop
endfacet
facet normal 0.956582 -0.291464 0.000000
outer loop
vertex 0.004621 0.000791 0.150000
vertex 0.004652 0.000894 0.000000
vertex 0.004652 0.000894 0.150000
endloop
endfacet
facet normal 0.296144 -0.955143 0.000000
outer loop
vertex 0.004093 0.000014 0.150000
vertex 0.004093 0.000014 0.000000
vertex 0.004181 0.000041 0.000000
endloop
endfacet
facet normal 0.296147 -0.955142 0.000000
outer loop
vertex 0.004093 0.000014 0.150000
vertex 0.004181 0.000041 0.000000
vertex 0.004181 0.000041 0.150000
endloop
endfacet
facet normal -0.120021 -0.992771 0.000000
outer loop
vertex 0.003698 0.000023 0.000000
vertex 0.003855 0.000004 0.000000
vertex 0.003855 0.000004 0.150000
endloop
endfacet
facet normal -0.120021 -0.992771 0.000000
outer loop
vertex 0.003698 0.000023 0.000000
vertex 0.003855 0.000004 0.150000
vertex 0.003698 0.000023 0.150000
endloop
endfacet
facet normal -0.163636 -0.986521 0.000000
outer loop
vertex 0.003331 0.000083 0.000000
vertex 0.003698 0.000023 0.000000
vertex 0.003698 0.000023 0.150000
endloop
endfacet
facet normal -0.163636 -0.986521 0.000000
outer loop
vertex 0.003331 0.000083 0.000000
vertex 0.003698 0.000023 0.150000
vertex 0.003331 0.000083 0.150000
endloop
endfacet
facet normal -0.173247 -0.984878 0.000000
outer loop
vertex 0.002934 0.000153 0.000000
vertex 0.003331 0.000083 0.000000
vertex 0.003331 0.000083 0.150000
endloop
endfacet
facet normal -0.173247 -0.984878 0.000000
outer loop
vertex 0.002934 0.000153 0.000000
vertex 0.003331 0.000083 0.150000
vertex 0.002934 0.000153 0.150000
endloop
endfacet
facet normal -0.182768 -0.983156 0.000000
outer loop
vertex 0.002542 0.000226 0.000000
vertex 0.002934 0.000153 0.000000
vertex 0.002934 0.000153 0.150000
endloop
endfacet
facet normal -0.182768 -0.983156 0.000000
outer loop
vertex 0.002542 0.000226 0.000000
vertex 0.002934 0.000153 0.150000
vertex 0.002542 0.000226 0.150000
endloop
endfacet
facet normal -0.194802 -0.980843 0.000000
outer loop
vertex 0.002186 0.000297 0.000000
vertex 0.002542 0.000226 0.000000
vertex 0.002542 0.000226 0.150000
endloop
endfacet
facet normal -0.194801 -0.980843 0.000000
outer loop
vertex 0.002186 0.000297 0.000000
vertex 0.002542 0.000226 0.150000
vertex 0.002186 0.000297 0.150000
endloop
endfacet
facet normal -0.208085 -0.978111 0.000000
outer loop
vertex 0.002033 0.000329 0.000000
vertex 0.002186 0.000297 0.000000
vertex 0.002186 0.000297 0.150000
endloop
endfacet
facet normal -0.208086 -0.978111 0.000000
outer loop
vertex 0.002033 0.000329 0.000000
vertex 0.002186 0.000297 0.150000
vertex 0.002033 0.000329 0.150000
endloop
endfacet
facet normal -0.242804 -0.970075 0.000000
outer loop
vertex 0.001794 0.000386 0.150000
vertex 0.001794 0.000386 0.000000
vertex 0.001900 0.000359 0.000000
endloop
endfacet
facet normal -0.221567 -0.975145 0.000000
outer loop
vertex 0.001900 0.000359 0.000000
vertex 0.002033 0.000329 0.000000
vertex 0.002033 0.000329 0.150000
endloop
endfacet
facet normal -0.242804 -0.970075 0.000000
outer loop
vertex 0.001900 0.000359 0.150000
vertex 0.001794 0.000386 0.150000
vertex 0.001900 0.000359 0.000000
endloop
endfacet
facet normal -0.221567 -0.975145 0.000000
outer loop
vertex 0.002033 0.000329 0.150000
vertex 0.001900 0.000359 0.150000
vertex 0.001900 0.000359 0.000000
endloop
endfacet
facet normal 0.803154 -0.595772 0.000000
outer loop
vertex 0.004311 0.000135 0.150000
vertex 0.004311 0.000135 0.000000
vertex 0.004359 0.000201 0.000000
endloop
endfacet
facet normal 0.803163 -0.595760 0.000000
outer loop
vertex 0.004311 0.000135 0.150000
vertex 0.004359 0.000201 0.000000
vertex 0.004359 0.000201 0.150000
endloop
endfacet
facet normal 0.000000 0.000000 1.000000
outer loop
vertex 0.000401 0.004690 0.000000
vertex 0.000677 0.003832 0.000000
vertex 0.000845 0.003361 0.000000
endloop
endfacet
facet normal -0.942149 -0.335195 0.000000
outer loop
vertex 0.000845 0.003361 0.000000
vertex 0.000845 0.003361 0.150000
vertex 0.000677 0.003832 0.150000
endloop
endfacet
facet normal -0.951968 -0.306199 -0.000102
outer loop
vertex 0.000845 0.003361 0.000000
vertex 0.000677 0.003832 0.150000
vertex 0.000401 0.004690 0.150000
endloop
endfacet
facet normal -0.948563 -0.316588 0.000000
outer loop
vertex 0.000401 0.004690 0.000000
vertex 0.000845 0.003361 0.000000
vertex 0.000401 0.004690 0.150000
endloop
endfacet
facet normal -0.929566 -0.368656 0.000000
outer loop
vertex 0.000382 0.004744 0.150000
vertex 0.000361 0.004795 0.150000
vertex 0.000361 0.004795 0.000000
endloop
endfacet
facet normal -0.939869 -0.341536 0.000000
outer loop
vertex 0.000401 0.004690 0.000000
vertex 0.000401 0.004690 0.150000
vertex 0.000382 0.004744 0.150000
endloop
endfacet
facet normal -0.929566 -0.368656 0.000000
outer loop
vertex 0.000382 0.004744 0.150000
vertex 0.000361 0.004795 0.000000
vertex 0.000382 0.004744 0.000000
endloop
endfacet
facet normal -0.939868 -0.341537 0.000000
outer loop
vertex 0.000382 0.004744 0.150000
vertex 0.000382 0.004744 0.000000
vertex 0.000401 0.004690 0.000000
endloop
endfacet
facet normal 0.496828 -0.867849 0.000000
outer loop
vertex 0.004181 0.000041 0.150000
vertex 0.004181 0.000041 0.000000
vertex 0.004252 0.000082 0.000000
endloop
endfacet
facet normal 0.496824 -0.867851 0.000000
outer loop
vertex 0.004181 0.000041 0.150000
vertex 0.004252 0.000082 0.000000
vertex 0.004252 0.000082 0.150000
endloop
endfacet
facet normal -0.998958 0.045647 0.000000
outer loop
vertex 0.000823 0.002367 0.000000
vertex 0.000823 0.002367 0.150000
vertex 0.000862 0.003233 0.150000
endloop
endfacet
facet normal -0.998958 0.045647 0.000000
outer loop
vertex 0.000823 0.002367 0.000000
vertex 0.000862 0.003233 0.150000
vertex 0.000862 0.003233 0.000000
endloop
endfacet
facet normal -0.990520 0.137372 0.000000
outer loop
vertex 0.000010 0.005831 0.150000
vertex 0.000010 0.005831 0.000000
vertex 0.000001 0.005768 0.000000
endloop
endfacet
facet normal -0.990520 0.137372 0.000000
outer loop
vertex 0.000010 0.005831 0.150000
vertex 0.000001 0.005768 0.000000
vertex 0.000001 0.005768 0.150000
endloop
endfacet
facet normal -0.946283 -0.323340 0.000000
outer loop
vertex 0.000514 0.001153 0.150000
vertex 0.000514 0.001153 0.000000
vertex 0.000540 0.001076 0.000000
endloop
endfacet
facet normal -0.946283 -0.323339 0.000000
outer loop
vertex 0.000514 0.001153 0.150000
vertex 0.000540 0.001076 0.000000
vertex 0.000540 0.001076 0.150000
endloop
endfacet
facet normal -0.978960 -0.204052 0.000000
outer loop
vertex 0.000845 0.003361 0.150000
vertex 0.000845 0.003361 0.000000
vertex 0.000856 0.003308 0.000000
endloop
endfacet
facet normal -0.978960 -0.204052 0.000000
outer loop
vertex 0.000845 0.003361 0.150000
vertex 0.000856 0.003308 0.000000
vertex 0.000856 0.003308 0.150000
endloop
endfacet
facet normal -0.001338 0.000000 0.999999
outer loop
vertex 0.003619 0.004849 0.150000
vertex 0.003511 0.005273 0.150000
vertex 0.003457 0.005459 0.150000
endloop
endfacet
facet normal 0.000000 0.000000 1.000000
outer loop
vertex 0.003457 0.005459 0.150000
vertex 0.003325 0.005878 0.150000
vertex 0.003180 0.006310 0.150000
endloop
endfacet
facet normal -0.000025 0.000000 1.000000
outer loop
vertex 0.003180 0.006310 0.150000
vertex 0.002910 0.007074 0.150000
vertex 0.001995 0.007478 0.150000
endloop
endfacet
facet normal 0.000000 0.000000 1.000000
outer loop
vertex 0.001995 0.007478 0.150000
vertex 0.001668 0.007433 0.150000
vertex 0.001541 0.007405 0.150000
endloop
endfacet
facet normal 0.002283 0.000000 0.999997
outer loop
vertex 0.001541 0.007405 0.150000
vertex 0.001481 0.007388 0.150000
vertex 0.001424 0.007369 0.150000
endloop
endfacet
facet normal 0.000528 0.000000 1.000000
outer loop
vertex 0.001424 0.007369 0.150000
vertex 0.001247 0.007288 0.150000
vertex 0.000984 0.007130 0.150000
endloop
endfacet
facet normal 0.003499 0.000000 0.999994
outer loop
vertex 0.000984 0.007130 0.150000
vertex 0.000850 0.007034 0.150000
vertex 0.000784 0.006983 0.150000
endloop
endfacet
facet normal 0.006265 0.000000 0.999980
outer loop
vertex 0.000784 0.006983 0.150000
vertex 0.000719 0.006930 0.150000
vertex 0.000598 0.006822 0.150000
endloop
endfacet
facet normal 0.000000 0.000000 1.000000
outer loop
vertex 0.000598 0.006822 0.150000
vertex 0.000546 0.006769 0.150000
vertex 0.000498 0.006717 0.150000
endloop
endfacet
facet normal 0.000000 0.000000 1.000000
outer loop
vertex 0.000498 0.006717 0.150000
vertex 0.000373 0.006551 0.150000
vertex 0.000334 0.006489 0.150000
endloop
endfacet
facet normal 0.013034 0.000000 0.999915
outer loop
vertex 0.000334 0.006489 0.150000
vertex 0.000294 0.006421 0.150000
vertex 0.000253 0.006348 0.150000
endloop
endfacet
facet normal -0.021958 0.000000 0.999759
outer loop
vertex 0.000253 0.006348 0.150000
vertex 0.000209 0.006268 0.150000
vertex 0.000109 0.006082 0.150000
endloop
endfacet
facet normal -0.002354 0.000000 0.999997
outer loop
vertex 0.000109 0.006082 0.150000
vertex 0.000062 0.005986 0.150000
vertex 0.000030 0.005903 0.150000
endloop
endfacet
facet normal 0.002878 0.000000 0.999996
outer loop
vertex 0.000030 0.005903 0.150000
vertex 0.000010 0.005831 0.150000
vertex 0.000001 0.005768 0.150000
endloop
endfacet
facet normal 0.004007 0.000000 0.999992
outer loop
vertex 0.000001 0.005768 0.150000
vertex 0.000001 0.005710 0.150000
vertex 0.000010 0.005658 0.150000
endloop
endfacet
facet normal 0.011142 0.000000 0.999938
outer loop
vertex 0.000010 0.005658 0.150000
vertex 0.000178 0.005184 0.150000
vertex 0.000198 0.005130 0.150000
endloop
endfacet
facet normal 0.000000 0.000000 1.000000
outer loop
vertex 0.000198 0.005130 0.150000
vertex 0.000219 0.005082 0.150000
vertex 0.000341 0.004841 0.150000
endloop
endfacet
facet normal 0.000000 0.000000 1.000000
outer loop
vertex 0.000010 0.005658 0.150000
vertex 0.000198 0.005130 0.150000
vertex 0.000341 0.004841 0.150000
endloop
endfacet
facet normal -0.000823 0.000000 1.000000
outer loop
vertex 0.000030 0.005903 0.150000
vertex 0.000001 0.005768 0.150000
vertex 0.000010 0.005658 0.150000
endloop
endfacet
facet normal -0.000841 0.000000 1.000000
outer loop
vertex 0.000253 0.006348 0.150000
vertex 0.000109 0.006082 0.150000
vertex 0.000030 0.005903 0.150000
endloop
endfacet
facet normal 0.000000 0.000000 1.000000
outer loop
vertex 0.000498 0.006717 0.150000
vertex 0.000334 0.006489 0.150000
vertex 0.000253 0.006348 0.150000
endloop
endfacet
facet normal 0.000000 0.000000 1.000000
outer loop
vertex 0.000784 0.006983 0.150000
vertex 0.000598 0.006822 0.150000
vertex 0.000498 0.006717 0.150000
endloop
endfacet
facet normal 0.000000 0.000000 1.000000
outer loop
vertex 0.001424 0.007369 0.150000
vertex 0.000984 0.007130 0.150000
vertex 0.000784 0.006983 0.150000
endloop
endfacet
facet normal 0.000115 0.000000 1.000000
outer loop
vertex 0.001995 0.007478 0.150000
vertex 0.001541 0.007405 0.150000
vertex 0.001424 0.007369 0.150000
endloop
endfacet
facet normal 0.000000 0.000000 1.000000
outer loop
vertex 0.003457 0.005459 0.150000
vertex 0.003180 0.006310 0.150000
vertex 0.001995 0.007478 0.150000
endloop
endfacet
facet normal 0.000000 0.000000 1.000000
outer loop
vertex 0.003619 0.004849 0.150000
vertex 0.003457 0.005459 0.150000
vertex 0.001995 0.007478 0.150000
endloop
endfacet
facet normal -0.000048 0.000000 1.000000
outer loop
vertex 0.001995 0.007478 0.150000
vertex 0.001424 0.007369 0.150000
vertex 0.000784 0.006983 0.150000
endloop
endfacet
facet normal 0.000000 0.000000 1.000000
outer loop
vertex 0.000784 0.006983 0.150000
vertex 0.000498 0.006717 0.150000
vertex 0.000253 0.006348 0.150000
endloop
endfacet
facet normal 0.000158 0.000000 1.000000
outer loop
vertex 0.000253 0.006348 0.150000
vertex 0.000030 0.005903 0.150000
vertex 0.000010 0.005658 0.150000
endloop
endfacet
facet normal -0.012049 0.000000 0.999927
outer loop
vertex 0.000010 0.005658 0.150000
vertex 0.000341 0.004841 0.150000
vertex 0.000361 0.004795 0.150000
endloop
endfacet
facet normal 0.000000 0.000000 1.000000
outer loop
vertex 0.000253 0.006348 0.150000
vertex 0.000010 0.005658 0.150000
vertex 0.000361 0.004795 0.150000
endloop
endfacet
facet normal 0.000000 0.000000 1.000000
outer loop
vertex 0.001995 0.007478 0.150000
vertex 0.000784 0.006983 0.150000
vertex 0.000253 0.006348 0.150000
endloop
endfacet
facet normal 0.000000 0.000000 1.000000
outer loop
vertex 0.003652 0.004730 0.150000
vertex 0.003619 0.004849 0.150000
vertex 0.001995 0.007478 0.150000
endloop
endfacet
facet normal 0.000000 0.000000 1.000000
outer loop
vertex 0.003686 0.004616 0.150000
vertex 0.003652 0.004730 0.150000
vertex 0.001995 0.007478 0.150000
endloop
endfacet
facet normal -0.000010 0.000000 1.000000
outer loop
vertex 0.001995 0.007478 0.150000
vertex 0.000253 0.006348 0.150000
vertex 0.000361 0.004795 0.150000
endloop
endfacet
facet normal 0.000265 0.000000 1.000000
outer loop
vertex 0.001995 0.007478 0.150000
vertex 0.000361 0.004795 0.150000
vertex 0.000382 0.004744 0.150000
endloop
endfacet
facet normal 0.000000 0.000000 1.000000
outer loop
vertex 0.003721 0.004504 0.150000
vertex 0.003686 0.004616 0.150000
vertex 0.001995 0.007478 0.150000
endloop
endfacet
facet normal 0.000000 0.000000 1.000000
outer loop
vertex 0.003759 0.004393 0.150000
vertex 0.003721 0.004504 0.150000
vertex 0.001995 0.007478 0.150000
endloop
endfacet
facet normal -0.000077 0.000000 1.000000
outer loop
vertex 0.001995 0.007478 0.150000
vertex 0.000382 0.004744 0.150000
vertex 0.000401 0.004690 0.150000
endloop
endfacet
facet normal 0.001054 0.000000 1.000000
outer loop
vertex 0.000401 0.004690 0.150000
vertex 0.000677 0.003832 0.150000
vertex 0.000845 0.003361 0.150000
endloop
endfacet
facet normal -0.000026 0.000000 1.000000
outer loop
vertex 0.001995 0.007478 0.150000
vertex 0.000401 0.004690 0.150000
vertex 0.000845 0.003361 0.150000
endloop
endfacet
facet normal 0.000000 0.000000 1.000000
outer loop
vertex 0.003800 0.004279 0.150000
vertex 0.003759 0.004393 0.150000
vertex 0.001995 0.007478 0.150000
endloop
endfacet
facet normal 0.000000 0.000000 1.000000
outer loop
vertex 0.004322 0.002944 0.150000
vertex 0.004266 0.003091 0.150000
vertex 0.003893 0.004032 0.150000
endloop
endfacet
facet normal 0.000000 0.000000 1.000000
outer loop
vertex 0.003893 0.004032 0.150000
vertex 0.003800 0.004279 0.150000
vertex 0.001995 0.007478 0.150000
endloop
endfacet
facet normal 0.000899 0.000000 1.000000
outer loop
vertex 0.001995 0.007478 0.150000
vertex 0.000845 0.003361 0.150000
vertex 0.000856 0.003308 0.150000
endloop
endfacet
facet normal -0.001040 0.000000 0.999999
outer loop
vertex 0.001995 0.007478 0.150000
vertex 0.000856 0.003308 0.150000
vertex 0.000862 0.003233 0.150000
endloop
endfacet
facet normal 0.000000 0.000000 1.000000
outer loop
vertex 0.004322 0.002944 0.150000
vertex 0.003893 0.004032 0.150000
vertex 0.001995 0.007478 0.150000
endloop
endfacet
facet normal 0.000000 0.000000 1.000000
outer loop
vertex 0.004418 0.002666 0.150000
vertex 0.004372 0.002802 0.150000
vertex 0.004322 0.002944 0.150000
endloop
endfacet
facet normal 0.005814 0.000000 0.999983
outer loop
vertex 0.004494 0.002402 0.150000
vertex 0.004459 0.002533 0.150000
vertex 0.004418 0.002666 0.150000
endloop
endfacet
facet normal 0.000000 0.000000 1.000000
outer loop
vertex 0.004546 0.002146 0.150000
vertex 0.004523 0.002274 0.150000
vertex 0.004494 0.002402 0.150000
endloop
endfacet
facet normal -0.002157 0.000000 0.999998
outer loop
vertex 0.004584 0.001762 0.150000
vertex 0.004563 0.002017 0.150000
vertex 0.004546 0.002146 0.150000
endloop
endfacet
facet normal 0.000000 0.000000 1.000000
outer loop
vertex 0.004676 0.001173 0.150000
vertex 0.004666 0.001261 0.150000
vertex 0.004599 0.001648 0.150000
endloop
endfacet
facet normal 0.000691 0.000000 1.000000
outer loop
vertex 0.004584 0.001762 0.150000
vertex 0.004546 0.002146 0.150000
vertex 0.004494 0.002402 0.150000
endloop
endfacet
facet normal 0.000000 0.000000 1.000000
outer loop
vertex 0.004678 0.001083 0.150000
vertex 0.004676 0.001173 0.150000
vertex 0.004599 0.001648 0.150000
endloop
endfacet
facet normal -0.020202 0.000000 0.999796
outer loop
vertex 0.004599 0.001648 0.150000
vertex 0.004584 0.001762 0.150000
vertex 0.004494 0.002402 0.150000
endloop
endfacet
facet normal -0.001645 0.000000 0.999999
outer loop
vertex 0.004494 0.002402 0.150000
vertex 0.004418 0.002666 0.150000
vertex 0.004322 0.002944 0.150000
endloop
endfacet
facet normal 0.000008 0.000000 1.000000
outer loop
vertex 0.004322 0.002944 0.150000
vertex 0.001995 0.007478 0.150000
vertex 0.000862 0.003233 0.150000
endloop
endfacet
facet normal 0.000000 0.000000 1.000000
outer loop
vertex 0.000823 0.002367 0.150000
vertex 0.000802 0.002315 0.150000
vertex 0.000750 0.002179 0.150000
endloop
endfacet
facet normal 0.000000 0.000000 1.000000
outer loop
vertex 0.004322 0.002944 0.150000
vertex 0.000862 0.003233 0.150000
vertex 0.000823 0.002367 0.150000
endloop
endfacet
facet normal 0.000199 0.000000 1.000000
outer loop
vertex 0.004599 0.001648 0.150000
vertex 0.004494 0.002402 0.150000
vertex 0.004322 0.002944 0.150000
endloop
endfacet
facet normal -0.001283 0.000000 0.999999
outer loop
vertex 0.004670 0.000991 0.150000
vertex 0.004678 0.001083 0.150000
vertex 0.004599 0.001648 0.150000
endloop
endfacet
facet normal 0.000000 0.000000 1.000000
outer loop
vertex 0.004621 0.000791 0.150000
vertex 0.004652 0.000894 0.150000
vertex 0.004670 0.000991 0.150000
endloop
endfacet
facet normal 0.002960 0.000000 0.999996
outer loop
vertex 0.004359 0.000201 0.150000
vertex 0.004402 0.000278 0.150000
vertex 0.004621 0.000791 0.150000
endloop
endfacet
facet normal 0.000000 0.000000 1.000000
outer loop
vertex 0.004252 0.000082 0.150000
vertex 0.004311 0.000135 0.150000
vertex 0.004359 0.000201 0.150000
endloop
endfacet
facet normal -0.000552 0.000000 1.000000
outer loop
vertex 0.004093 0.000014 0.150000
vertex 0.004181 0.000041 0.150000
vertex 0.004252 0.000082 0.150000
endloop
endfacet
facet normal 0.000117 0.000000 1.000000
outer loop
vertex 0.003855 0.000004 0.150000
vertex 0.003985 0.000001 0.150000
vertex 0.004093 0.000014 0.150000
endloop
endfacet
facet normal 0.000702 0.000000 1.000000
outer loop
vertex 0.003331 0.000083 0.150000
vertex 0.003698 0.000023 0.150000
vertex 0.003855 0.000004 0.150000
endloop
endfacet
facet normal -0.001171 0.000000 0.999999
outer loop
vertex 0.002542 0.000226 0.150000
vertex 0.002934 0.000153 0.150000
vertex 0.003331 0.000083 0.150000
endloop
endfacet
facet normal 0.000000 0.000000 1.000000
outer loop
vertex 0.002033 0.000329 0.150000
vertex 0.002186 0.000297 0.150000
vertex 0.002542 0.000226 0.150000
endloop
endfacet
facet normal 0.000000 0.000000 1.000000
outer loop
vertex 0.001794 0.000386 0.150000
vertex 0.001900 0.000359 0.150000
vertex 0.002033 0.000329 0.150000
endloop
endfacet
facet normal 0.002359 0.000000 0.999997
outer loop
vertex 0.001646 0.000432 0.150000
vertex 0.001716 0.000409 0.150000
vertex 0.001794 0.000386 0.150000
endloop
endfacet
facet normal -0.006183 0.000000 0.999981
outer loop
vertex 0.001561 0.000460 0.150000
vertex 0.001646 0.000432 0.150000
vertex 0.001794 0.000386 0.150000
endloop
endfacet
facet normal -0.000862 0.000000 1.000000
outer loop
vertex 0.001794 0.000386 0.150000
vertex 0.002033 0.000329 0.150000
vertex 0.002542 0.000226 0.150000
endloop
endfacet
facet normal 0.000155 0.000000 1.000000
outer loop
vertex 0.002542 0.000226 0.150000
vertex 0.003331 0.000083 0.150000
vertex 0.003855 0.000004 0.150000
endloop
endfacet
facet normal 0.000000 0.000000 1.000000
outer loop
vertex 0.003855 0.000004 0.150000
vertex 0.004093 0.000014 0.150000
vertex 0.004252 0.000082 0.150000
endloop
endfacet
facet normal 0.000000 0.000000 1.000000
outer loop
vertex 0.004252 0.000082 0.150000
vertex 0.004359 0.000201 0.150000
vertex 0.004621 0.000791 0.150000
endloop
endfacet
facet normal 0.000309 0.000000 1.000000
outer loop
vertex 0.004621 0.000791 0.150000
vertex 0.004670 0.000991 0.150000
vertex 0.004599 0.001648 0.150000
endloop
endfacet
facet normal 0.000000 0.000000 1.000000
outer loop
vertex 0.004599 0.001648 0.150000
vertex 0.004322 0.002944 0.150000
vertex 0.000823 0.002367 0.150000
endloop
endfacet
facet normal -0.017040 0.000000 0.999855
outer loop
vertex 0.000823 0.002367 0.150000
vertex 0.000750 0.002179 0.150000
vertex 0.000716 0.002089 0.150000
endloop
endfacet
facet normal 0.000000 0.000000 1.000000
outer loop
vertex 0.000716 0.002089 0.150000
vertex 0.000680 0.001988 0.150000
vertex 0.000642 0.001882 0.150000
endloop
endfacet
facet normal -0.017846 0.000000 0.999841
outer loop
vertex 0.000642 0.001882 0.150000
vertex 0.000605 0.001773 0.150000
vertex 0.000570 0.001665 0.150000
endloop
endfacet
facet normal 0.000000 0.000000 1.000000
outer loop
vertex 0.000570 0.001665 0.150000
vertex 0.000539 0.001562 0.150000
vertex 0.000514 0.001467 0.150000
endloop
endfacet
facet normal 0.002138 0.000000 0.999998
outer loop
vertex 0.000514 0.001467 0.150000
vertex 0.000496 0.001385 0.150000
vertex 0.000490 0.001309 0.150000
endloop
endfacet
facet normal 0.000000 0.000000 1.000000
outer loop
vertex 0.000490 0.001309 0.150000
vertex 0.000497 0.001231 0.150000
vertex 0.000514 0.001153 0.150000
endloop
endfacet
facet normal -0.002480 0.000000 0.999997
outer loop
vertex 0.000514 0.001153 0.150000
vertex 0.000540 0.001076 0.150000
vertex 0.000608 0.000935 0.150000
endloop
endfacet
facet normal -0.002247 0.000000 0.999997
outer loop
vertex 0.000608 0.000935 0.150000
vertex 0.000680 0.000818 0.150000
vertex 0.000761 0.000710 0.150000
endloop
endfacet
facet normal 0.000475 0.000000 1.000000
outer loop
vertex 0.000608 0.000935 0.150000
vertex 0.000761 0.000710 0.150000
vertex 0.000815 0.000693 0.150000
endloop
endfacet
facet normal 0.000000 0.000000 1.000000
outer loop
vertex 0.000490 0.001309 0.150000
vertex 0.000514 0.001153 0.150000
vertex 0.000608 0.000935 0.150000
endloop
endfacet
facet normal 0.000000 0.000000 1.000000
outer loop
vertex 0.000570 0.001665 0.150000
vertex 0.000514 0.001467 0.150000
vertex 0.000490 0.001309 0.150000
endloop
endfacet
facet normal 0.005959 0.000000 0.999982
outer loop
vertex 0.000716 0.002089 0.150000
vertex 0.000642 0.001882 0.150000
vertex 0.000570 0.001665 0.150000
endloop
endfacet
facet normal 0.000000 0.000000 1.000000
outer loop
vertex 0.004599 0.001648 0.150000
vertex 0.000823 0.002367 0.150000
vertex 0.000716 0.002089 0.150000
endloop
endfacet
facet normal 0.000000 0.000000 1.000000
outer loop
vertex 0.004252 0.000082 0.150000
vertex 0.004621 0.000791 0.150000
vertex 0.004599 0.001648 0.150000
endloop
endfacet
facet normal 0.000019 0.000000 1.000000
outer loop
vertex 0.002542 0.000226 0.150000
vertex 0.003855 0.000004 0.150000
vertex 0.004252 0.000082 0.150000
endloop
endfacet
facet normal 0.000206 0.000000 1.000000
outer loop
vertex 0.001561 0.000460 0.150000
vertex 0.001794 0.000386 0.150000
vertex 0.002542 0.000226 0.150000
endloop
endfacet
facet normal 0.000951 0.000000 1.000000
outer loop
vertex 0.001464 0.000490 0.150000
vertex 0.001561 0.000460 0.150000
vertex 0.002542 0.000226 0.150000
endloop
endfacet
facet normal -0.000011 0.000000 1.000000
outer loop
vertex 0.002542 0.000226 0.150000
vertex 0.004252 0.000082 0.150000
vertex 0.004599 0.001648 0.150000
endloop
endfacet
facet normal 0.000000 0.000000 1.000000
outer loop
vertex 0.004599 0.001648 0.150000
vertex 0.000716 0.002089 0.150000
vertex 0.000570 0.001665 0.150000
endloop
endfacet
facet normal -0.000101 0.000000 1.000000
outer loop
vertex 0.000570 0.001665 0.150000
vertex 0.000490 0.001309 0.150000
vertex 0.000608 0.000935 0.150000
endloop
endfacet
facet normal 0.000037 0.000000 1.000000
outer loop
vertex 0.000608 0.000935 0.150000
vertex 0.000815 0.000693 0.150000
vertex 0.000955 0.000650 0.150000
endloop
endfacet
facet normal -0.000160 0.000000 1.000000
outer loop
vertex 0.000608 0.000935 0.150000
vertex 0.000955 0.000650 0.150000
vertex 0.001147 0.000590 0.150000
endloop
endfacet
facet normal 0.000000 0.000000 1.000000
outer loop
vertex 0.004599 0.001648 0.150000
vertex 0.000570 0.001665 0.150000
vertex 0.000608 0.000935 0.150000
endloop
endfacet
facet normal 0.000000 0.000000 1.000000
outer loop
vertex 0.001464 0.000490 0.150000
vertex 0.002542 0.000226 0.150000
vertex 0.004599 0.001648 0.150000
endloop
endfacet
facet normal -0.000130 0.000000 1.000000
outer loop
vertex 0.001360 0.000523 0.150000
vertex 0.001464 0.000490 0.150000
vertex 0.004599 0.001648 0.150000
endloop
endfacet
facet normal 0.000004 0.000000 1.000000
outer loop
vertex 0.004599 0.001648 0.150000
vertex 0.000608 0.000935 0.150000
vertex 0.001147 0.000590 0.150000
endloop
endfacet
facet normal 0.000000 0.000000 1.000000
outer loop
vertex 0.001253 0.000557 0.150000
vertex 0.001360 0.000523 0.150000
vertex 0.004599 0.001648 0.150000
endloop
endfacet
facet normal 0.000128 0.000000 1.000000
outer loop
vertex 0.001147 0.000590 0.150000
vertex 0.001253 0.000557 0.150000
vertex 0.004599 0.001648 0.150000
endloop
endfacet
facet normal 0.676884 -0.736090 0.000000
outer loop
vertex 0.004252 0.000082 0.150000
vertex 0.004252 0.000082 0.000000
vertex 0.004311 0.000135 0.000000
endloop
endfacet
facet normal 0.676884 -0.736090 0.000000
outer loop
vertex 0.004252 0.000082 0.150000
vertex 0.004311 0.000135 0.000000
vertex 0.004311 0.000135 0.150000
endloop
endfacet
facet normal -0.996629 0.082041 0.000000
outer loop
vertex 0.000496 0.001385 0.150000
vertex 0.000496 0.001385 0.000000
vertex 0.000490 0.001309 0.000000
endloop
endfacet
facet normal -0.996629 0.082043 0.000000
outer loop
vertex 0.000496 0.001385 0.150000
vertex 0.000490 0.001309 0.000000
vertex 0.000490 0.001309 0.150000
endloop
endfacet
facet normal 0.999761 0.021852 0.000000
outer loop
vertex 0.004678 0.001083 0.150000
vertex 0.004678 0.001083 0.000000
vertex 0.004676 0.001173 0.000000
endloop
endfacet
facet normal 0.999761 0.021852 0.000000
outer loop
vertex 0.004678 0.001083 0.150000
vertex 0.004676 0.001173 0.000000
vertex 0.004676 0.001173 0.150000
endloop
endfacet
facet normal -0.801281 -0.598288 0.000000
outer loop
vertex 0.000761 0.000710 0.000000
vertex 0.000761 0.000710 0.150000
vertex 0.000680 0.000818 0.150000
endloop
endfacet
facet normal -0.801281 -0.598288 0.000000
outer loop
vertex 0.000761 0.000710 0.000000
vertex 0.000680 0.000818 0.150000
vertex 0.000680 0.000818 0.000000
endloop
endfacet
facet normal -0.798706 0.601722 0.000000
outer loop
vertex 0.000373 0.006551 0.000000
vertex 0.000373 0.006551 0.150000
vertex 0.000498 0.006717 0.150000
endloop
endfacet
facet normal -0.798706 0.601722 0.000000
outer loop
vertex 0.000373 0.006551 0.000000
vertex 0.000498 0.006717 0.150000
vertex 0.000498 0.006717 0.000000
endloop
endfacet
facet normal -0.020751 -0.999785 0.000000
outer loop
vertex 0.003855 0.000004 0.150000
vertex 0.003855 0.000004 0.000000
vertex 0.003985 0.000001 0.000000
endloop
endfacet
facet normal -0.020751 -0.999785 0.000000
outer loop
vertex 0.003855 0.000004 0.150000
vertex 0.003985 0.000001 0.000000
vertex 0.003985 0.000001 0.150000
endloop
endfacet
facet normal -0.975126 -0.221650 0.000000
outer loop
vertex 0.000497 0.001231 0.150000
vertex 0.000497 0.001231 0.000000
vertex 0.000514 0.001153 0.000000
endloop
endfacet
facet normal -0.975127 -0.221649 0.000000
outer loop
vertex 0.000497 0.001231 0.150000
vertex 0.000514 0.001153 0.000000
vertex 0.000514 0.001153 0.150000
endloop
endfacet
facet normal -0.930214 0.367017 0.000000
outer loop
vertex 0.000062 0.005986 0.150000
vertex 0.000062 0.005986 0.000000
vertex 0.000030 0.005903 0.000000
endloop
endfacet
facet normal -0.930214 0.367017 0.000000
outer loop
vertex 0.000062 0.005986 0.150000
vertex 0.000030 0.005903 0.000000
vertex 0.000030 0.005903 0.150000
endloop
endfacet
facet normal 0.875643 -0.482959 0.000000
outer loop
vertex 0.004359 0.000201 0.150000
vertex 0.004359 0.000201 0.000000
vertex 0.004402 0.000278 0.000000
endloop
endfacet
facet normal 0.875650 -0.482946 0.000000
outer loop
vertex 0.004359 0.000201 0.150000
vertex 0.004402 0.000278 0.000000
vertex 0.004402 0.000278 0.150000
endloop
endfacet
facet normal -0.913997 -0.405721 0.000000
outer loop
vertex 0.000341 0.004841 0.000000
vertex 0.000361 0.004795 0.000000
vertex 0.000361 0.004795 0.150000
endloop
endfacet
facet normal -0.913997 -0.405721 0.000000
outer loop
vertex 0.000341 0.004841 0.000000
vertex 0.000361 0.004795 0.150000
vertex 0.000341 0.004841 0.150000
endloop
endfacet
facet normal -0.891896 -0.452241 0.000000
outer loop
vertex 0.000219 0.005082 0.000000
vertex 0.000341 0.004841 0.000000
vertex 0.000341 0.004841 0.150000
endloop
endfacet
facet normal -0.891896 -0.452241 0.000000
outer loop
vertex 0.000219 0.005082 0.000000
vertex 0.000341 0.004841 0.150000
vertex 0.000219 0.005082 0.150000
endloop
endfacet
facet normal -0.934824 -0.355111 0.000000
outer loop
vertex 0.000178 0.005184 0.150000
vertex 0.000178 0.005184 0.000000
vertex 0.000198 0.005130 0.000000
endloop
endfacet
facet normal -0.919687 -0.392651 0.000000
outer loop
vertex 0.000198 0.005130 0.000000
vertex 0.000219 0.005082 0.000000
vertex 0.000219 0.005082 0.150000
endloop
endfacet
facet normal -0.934824 -0.355111 0.000000
outer loop
vertex 0.000198 0.005130 0.150000
vertex 0.000178 0.005184 0.150000
vertex 0.000198 0.005130 0.000000
endloop
endfacet
facet normal -0.919687 -0.392652 0.000000
outer loop
vertex 0.000219 0.005082 0.150000
vertex 0.000198 0.005130 0.150000
vertex 0.000198 0.005130 0.000000
endloop
endfacet
facet normal -0.942581 -0.333977 0.000000
outer loop
vertex 0.000010 0.005658 0.000000
vertex 0.000178 0.005184 0.000000
vertex 0.000178 0.005184 0.150000
endloop
endfacet
facet normal -0.942581 -0.333977 0.000000
outer loop
vertex 0.000010 0.005658 0.000000
vertex 0.000178 0.005184 0.150000
vertex 0.000010 0.005658 0.150000
endloop
endfacet
facet normal 0.403389 0.915028 0.000000
outer loop
vertex 0.002910 0.007074 0.000000
vertex 0.001995 0.007478 0.000000
vertex 0.001995 0.007478 0.150000
endloop
endfacet
facet normal 0.403389 0.915028 0.000000
outer loop
vertex 0.002910 0.007074 0.000000
vertex 0.001995 0.007478 0.150000
vertex 0.002910 0.007074 0.150000
endloop
endfacet
facet normal 0.943096 0.332521 0.000000
outer loop
vertex 0.003180 0.006310 0.000000
vertex 0.002910 0.007074 0.000000
vertex 0.002910 0.007074 0.150000
endloop
endfacet
facet normal 0.943095 0.332522 0.000000
outer loop
vertex 0.003180 0.006310 0.000000
vertex 0.002910 0.007074 0.150000
vertex 0.003180 0.006310 0.150000
endloop
endfacet
facet normal 0.948018 0.318217 0.000000
outer loop
vertex 0.003325 0.005878 0.000000
vertex 0.003180 0.006310 0.000000
vertex 0.003180 0.006310 0.150000
endloop
endfacet
facet normal 0.948018 0.318217 0.000000
outer loop
vertex 0.003325 0.005878 0.000000
vertex 0.003180 0.006310 0.150000
vertex 0.003325 0.005878 0.150000
endloop
endfacet
facet normal 0.953660 0.300885 0.000000
outer loop
vertex 0.003457 0.005459 0.000000
vertex 0.003325 0.005878 0.000000
vertex 0.003325 0.005878 0.150000
endloop
endfacet
facet normal 0.953660 0.300885 0.000000
outer loop
vertex 0.003457 0.005459 0.000000
vertex 0.003325 0.005878 0.150000
vertex 0.003457 0.005459 0.150000
endloop
endfacet
facet normal 0.000000 0.000000 -1.000000
outer loop
vertex 0.003652 0.004730 0.000000
vertex 0.003619 0.004849 0.000000
vertex 0.003511 0.005273 0.000000
endloop
endfacet
facet normal 0.960566 0.278052 0.000000
outer loop
vertex 0.003511 0.005273 0.000000
vertex 0.003457 0.005459 0.000000
vertex 0.003457 0.005459 0.150000
endloop
endfacet
facet normal 0.960565 0.278056 0.000000
outer loop
vertex 0.003511 0.005273 0.000000
vertex 0.003457 0.005459 0.150000
vertex 0.003511 0.005273 0.150000
endloop
endfacet
facet normal 0.000000 0.000000 -1.000000
outer loop
vertex 0.003686 0.004616 0.000000
vertex 0.003652 0.004730 0.000000
vertex 0.003511 0.005273 0.000000
endloop
endfacet
facet normal 0.000000 0.000000 -1.000000
outer loop
vertex 0.003759 0.004393 0.000000
vertex 0.003721 0.004504 0.000000
vertex 0.003686 0.004616 0.000000
endloop
endfacet
facet normal 0.000000 0.000000 -1.000000
outer loop
vertex 0.003893 0.004032 0.000000
vertex 0.003800 0.004279 0.000000
vertex 0.003759 0.004393 0.000000
endloop
endfacet
facet normal 0.000000 0.000000 -1.000000
outer loop
vertex 0.004266 0.003091 0.000000
vertex 0.003893 0.004032 0.000000
vertex 0.003759 0.004393 0.000000
endloop
endfacet
facet normal 0.000000 0.000000 -1.000000
outer loop
vertex 0.003759 0.004393 0.000000
vertex 0.003686 0.004616 0.000000
vertex 0.003511 0.005273 0.000000
endloop
endfacet
facet normal 0.969018 0.246989 0.000000
outer loop
vertex 0.003511 0.005273 0.000000
vertex 0.003511 0.005273 0.150000
vertex 0.003619 0.004849 0.150000
endloop
endfacet
facet normal 0.963538 0.267572 0.000062
outer loop
vertex 0.003511 0.005273 0.000000
vertex 0.003619 0.004849 0.150000
vertex 0.003652 0.004730 0.150000
endloop
endfacet
facet normal 0.000000 0.000000 -1.000000
outer loop
vertex 0.004266 0.003091 0.000000
vertex 0.003759 0.004393 0.000000
vertex 0.003511 0.005273 0.000000
endloop
endfacet
facet normal 0.000000 0.000000 -1.000000
outer loop
vertex 0.004322 0.002944 0.000000
vertex 0.004266 0.003091 0.000000
vertex 0.003511 0.005273 0.000000
endloop
endfacet
facet normal 0.958468 0.285200 0.000131
outer loop
vertex 0.003511 0.005273 0.000000
vertex 0.003652 0.004730 0.150000
vertex 0.003686 0.004616 0.150000
endloop
endfacet
facet normal 0.952881 0.303344 0.000217
outer loop
vertex 0.003511 0.005273 0.000000
vertex 0.003686 0.004616 0.150000
vertex 0.003721 0.004504 0.150000
endloop
endfacet
facet normal 0.000000 0.000000 -1.000000
outer loop
vertex 0.004372 0.002802 0.000000
vertex 0.004322 0.002944 0.000000
vertex 0.003511 0.005273 0.000000
endloop
endfacet
facet normal 0.944212 0.329339 0.000362
outer loop
vertex 0.004372 0.002802 0.000000
vertex 0.003511 0.005273 0.000000
vertex 0.003721 0.004504 0.150000
endloop
endfacet
facet normal 0.947173 0.320724 0.000473
outer loop
vertex 0.004372 0.002802 0.000000
vertex 0.003721 0.004504 0.150000
vertex 0.003759 0.004393 0.150000
endloop
endfacet
facet normal 0.948168 0.317770 0.000508
outer loop
vertex 0.004418 0.002666 0.000000
vertex 0.004372 0.002802 0.000000
vertex 0.003759 0.004393 0.150000
endloop
endfacet
facet normal 0.941784 0.336218 0.000268
outer loop
vertex 0.004418 0.002666 0.000000
vertex 0.003759 0.004393 0.150000
vertex 0.003800 0.004279 0.150000
endloop
endfacet
facet normal 0.965713 0.259614 0.000000
outer loop
vertex 0.004494 0.002402 0.150000
vertex 0.004494 0.002402 0.000000
vertex 0.004459 0.002533 0.000000
endloop
endfacet
facet normal 0.956522 0.291658 0.000808
outer loop
vertex 0.004459 0.002533 0.000000
vertex 0.004418 0.002666 0.000000
vertex 0.003800 0.004279 0.150000
endloop
endfacet
facet normal 0.935243 0.354007 -0.000012
outer loop
vertex 0.004459 0.002533 0.000000
vertex 0.003800 0.004279 0.150000
vertex 0.003893 0.004032 0.150000
endloop
endfacet
facet normal 0.965715 0.259603 0.000000
outer loop
vertex 0.004459 0.002533 0.150000
vertex 0.004494 0.002402 0.150000
vertex 0.004459 0.002533 0.000000
endloop
endfacet
facet normal 0.956524 0.291653 0.000000
outer loop
vertex 0.004418 0.002666 0.150000
vertex 0.004459 0.002533 0.150000
vertex 0.004459 0.002533 0.000000
endloop
endfacet
facet normal 0.929654 0.368434 -0.000177
outer loop
vertex 0.004459 0.002533 0.000000
vertex 0.003893 0.004032 0.150000
vertex 0.004266 0.003091 0.150000
endloop
endfacet
facet normal 0.935564 0.353158 -0.000112
outer loop
vertex 0.004459 0.002533 0.000000
vertex 0.004266 0.003091 0.150000
vertex 0.004322 0.002944 0.150000
endloop
endfacet
facet normal 0.948166 0.317775 -0.000025
outer loop
vertex 0.004372 0.002802 0.150000
vertex 0.004418 0.002666 0.150000
vertex 0.004459 0.002533 0.000000
endloop
endfacet
facet normal 0.941096 0.338139 -0.000066
outer loop
vertex 0.004322 0.002944 0.150000
vertex 0.004372 0.002802 0.150000
vertex 0.004459 0.002533 0.000000
endloop
endfacet
facet normal -0.963883 0.266326 0.000000
outer loop
vertex 0.000030 0.005903 0.150000
vertex 0.000030 0.005903 0.000000
vertex 0.000010 0.005831 0.000000
endloop
endfacet
facet normal -0.963883 0.266326 0.000000
outer loop
vertex 0.000030 0.005903 0.150000
vertex 0.000010 0.005831 0.000000
vertex 0.000010 0.005831 0.150000
endloop
endfacet
facet normal 0.000000 0.000000 1.000000
outer loop
vertex 0.001668 0.007433 0.000000
vertex 0.001541 0.007405 0.000000
vertex 0.001481 0.007388 0.000000
endloop
endfacet
facet normal -0.320005 0.947416 0.000000
outer loop
vertex 0.001481 0.007388 0.000000
vertex 0.001424 0.007369 0.000000
vertex 0.001424 0.007369 0.150000
endloop
endfacet
facet normal -0.320005 0.947416 0.000000
outer loop
vertex 0.001481 0.007388 0.000000
vertex 0.001424 0.007369 0.150000
vertex 0.001481 0.007388 0.150000
endloop
endfacet
facet normal -0.233426 0.972375 0.000000
outer loop
vertex 0.001668 0.007433 0.150000
vertex 0.001668 0.007433 0.000000
vertex 0.001481 0.007388 0.000000
endloop
endfacet
facet normal -0.269822 0.962910 0.000000
outer loop
vertex 0.001481 0.007388 0.000000
vertex 0.001481 0.007388 0.150000
vertex 0.001541 0.007405 0.150000
endloop
endfacet
facet normal -0.215604 0.976481 -0.000024
outer loop
vertex 0.001481 0.007388 0.000000
vertex 0.001541 0.007405 0.150000
vertex 0.001668 0.007433 0.150000
endloop
endfacet
facet normal 0.996984 -0.077614 0.000000
outer loop
vertex 0.004670 0.000991 0.150000
vertex 0.004670 0.000991 0.000000
vertex 0.004678 0.001083 0.000000
endloop
endfacet
facet normal 0.996984 -0.077614 0.000000
outer loop
vertex 0.004670 0.000991 0.150000
vertex 0.004678 0.001083 0.000000
vertex 0.004678 0.001083 0.150000
endloop
endfacet
facet normal -0.517078 0.855939 0.000000
outer loop
vertex 0.001247 0.007288 0.000000
vertex 0.000984 0.007130 0.000000
vertex 0.000984 0.007130 0.150000
endloop
endfacet
facet normal -0.517077 0.855939 0.000000
outer loop
vertex 0.001247 0.007288 0.000000
vertex 0.000984 0.007130 0.150000
vertex 0.001247 0.007288 0.150000
endloop
endfacet
facet normal -0.999929 -0.011914 0.000000
outer loop
vertex 0.000001 0.005768 0.150000
vertex 0.000001 0.005768 0.000000
vertex 0.000001 0.005710 0.000000
endloop
endfacet
facet normal -0.999929 -0.011914 0.000000
outer loop
vertex 0.000001 0.005768 0.150000
vertex 0.000001 0.005710 0.000000
vertex 0.000001 0.005710 0.150000
endloop
endfacet
facet normal -0.987068 -0.160299 0.000000
outer loop
vertex 0.000001 0.005710 0.150000
vertex 0.000001 0.005710 0.000000
vertex 0.000010 0.005658 0.000000
endloop
endfacet
facet normal -0.987068 -0.160299 0.000000
outer loop
vertex 0.000001 0.005710 0.150000
vertex 0.000010 0.005658 0.000000
vertex 0.000010 0.005658 0.150000
endloop
endfacet
facet normal 0.919738 -0.392533 0.000000
outer loop
vertex 0.004402 0.000278 0.000000
vertex 0.004621 0.000791 0.000000
vertex 0.004621 0.000791 0.150000
endloop
endfacet
facet normal 0.919737 -0.392534 0.000000
outer loop
vertex 0.004402 0.000278 0.000000
vertex 0.004621 0.000791 0.150000
vertex 0.004402 0.000278 0.150000
endloop
endfacet
facet normal -0.134577 0.990903 0.000000
outer loop
vertex 0.001668 0.007433 0.000000
vertex 0.001668 0.007433 0.150000
vertex 0.001995 0.007478 0.150000
endloop
endfacet
facet normal -0.134577 0.990903 0.000000
outer loop
vertex 0.001668 0.007433 0.000000
vertex 0.001995 0.007478 0.150000
vertex 0.001995 0.007478 0.000000
endloop
endfacet
facet normal 0.000000 0.000000 1.000000
outer loop
vertex 0.000605 0.001773 0.000000
vertex 0.000570 0.001665 0.000000
vertex 0.000539 0.001562 0.000000
endloop
endfacet
facet normal -0.966087 0.258217 0.000000
outer loop
vertex 0.000539 0.001562 0.000000
vertex 0.000514 0.001467 0.000000
vertex 0.000514 0.001467 0.150000
endloop
endfacet
facet normal -0.966087 0.258217 0.000000
outer loop
vertex 0.000539 0.001562 0.000000
vertex 0.000514 0.001467 0.150000
vertex 0.000539 0.001562 0.150000
endloop
endfacet
facet normal 0.000000 0.000000 1.000000
outer loop
vertex 0.000642 0.001882 0.000000
vertex 0.000605 0.001773 0.000000
vertex 0.000539 0.001562 0.000000
endloop
endfacet
facet normal 0.000000 0.000000 1.000000
outer loop
vertex 0.000716 0.002089 0.000000
vertex 0.000680 0.001988 0.000000
vertex 0.000642 0.001882 0.000000
endloop
endfacet
facet normal 0.000000 0.000000 1.000000
outer loop
vertex 0.000802 0.002315 0.000000
vertex 0.000750 0.002179 0.000000
vertex 0.000716 0.002089 0.000000
endloop
endfacet
facet normal -0.930699 0.365785 0.000000
outer loop
vertex 0.000823 0.002367 0.150000
vertex 0.000823 0.002367 0.000000
vertex 0.000802 0.002315 0.000000
endloop
endfacet
facet normal -0.930699 0.365787 0.000000
outer loop
vertex 0.000802 0.002315 0.150000
vertex 0.000823 0.002367 0.150000
vertex 0.000802 0.002315 0.000000
endloop
endfacet
facet normal 0.000000 0.000000 1.000000
outer loop
vertex 0.000802 0.002315 0.000000
vertex 0.000716 0.002089 0.000000
vertex 0.000642 0.001882 0.000000
endloop
endfacet
facet normal -0.951963 0.306213 0.000000
outer loop
vertex 0.000642 0.001882 0.000000
vertex 0.000539 0.001562 0.000000
vertex 0.000539 0.001562 0.150000
endloop
endfacet
facet normal -0.957821 0.287364 -0.000044
outer loop
vertex 0.000642 0.001882 0.000000
vertex 0.000539 0.001562 0.150000
vertex 0.000570 0.001665 0.150000
endloop
endfacet
facet normal -0.937942 0.346793 0.000000
outer loop
vertex 0.000802 0.002315 0.150000
vertex 0.000802 0.002315 0.000000
vertex 0.000642 0.001882 0.000000
endloop
endfacet
facet normal -0.933744 0.357941 -0.000037
outer loop
vertex 0.000750 0.002179 0.150000
vertex 0.000802 0.002315 0.150000
vertex 0.000642 0.001882 0.000000
endloop
endfacet
facet normal -0.951525 0.307572 -0.000012
outer loop
vertex 0.000642 0.001882 0.000000
vertex 0.000570 0.001665 0.150000
vertex 0.000605 0.001773 0.150000
endloop
endfacet
facet normal -0.946609 0.322385 0.000000
outer loop
vertex 0.000642 0.001882 0.000000
vertex 0.000605 0.001773 0.150000
vertex 0.000642 0.001882 0.150000
endloop
endfacet
facet normal -0.936814 0.349829 -0.000018
outer loop
vertex 0.000716 0.002089 0.150000
vertex 0.000750 0.002179 0.150000
vertex 0.000642 0.001882 0.000000
endloop
endfacet
facet normal -0.942679 0.333701 0.000000
outer loop
vertex 0.000642 0.001882 0.000000
vertex 0.000642 0.001882 0.150000
vertex 0.000680 0.001988 0.150000
endloop
endfacet
facet normal -0.939473 0.342622 -0.000007
outer loop
vertex 0.000680 0.001988 0.150000
vertex 0.000716 0.002089 0.150000
vertex 0.000642 0.001882 0.000000
endloop
endfacet
facet normal 0.117217 -0.993106 0.000000
outer loop
vertex 0.003985 0.000001 0.150000
vertex 0.003985 0.000001 0.000000
vertex 0.004093 0.000014 0.000000
endloop
endfacet
facet normal 0.117215 -0.993106 0.000000
outer loop
vertex 0.003985 0.000001 0.150000
vertex 0.004093 0.000014 0.000000
vertex 0.004093 0.000014 0.150000
endloop
endfacet
facet normal -0.996648 -0.081814 0.000000
outer loop
vertex 0.000856 0.003308 0.150000
vertex 0.000856 0.003308 0.000000
vertex 0.000862 0.003233 0.000000
endloop
endfacet
facet normal -0.996648 -0.081811 0.000000
outer loop
vertex 0.000856 0.003308 0.150000
vertex 0.000862 0.003233 0.000000
vertex 0.000862 0.003233 0.150000
endloop
endfacet
facet normal 0.000000 0.000000 1.000000
outer loop
vertex 0.004676 0.001173 0.000000
vertex 0.004666 0.001261 0.000000
vertex 0.004599 0.001648 0.000000
endloop
endfacet
facet normal 0.000000 0.000000 1.000000
outer loop
vertex 0.004584 0.001762 0.000000
vertex 0.004563 0.002017 0.000000
vertex 0.004546 0.002146 0.000000
endloop
endfacet
facet normal 0.987149 0.159805 0.000000
outer loop
vertex 0.004676 0.001173 0.150000
vertex 0.004676 0.001173 0.000000
vertex 0.004599 0.001648 0.000000
endloop
endfacet
facet normal 0.000000 0.000000 1.000000
outer loop
vertex 0.004584 0.001762 0.000000
vertex 0.004546 0.002146 0.000000
vertex 0.004523 0.002274 0.000000
endloop
endfacet
facet normal 0.991598 0.129355 -0.000099
outer loop
vertex 0.004676 0.001173 0.150000
vertex 0.004599 0.001648 0.000000
vertex 0.004584 0.001762 0.000000
endloop
endfacet
facet normal 0.994802 0.101827 -0.000209
outer loop
vertex 0.004666 0.001261 0.150000
vertex 0.004676 0.001173 0.150000
vertex 0.004584 0.001762 0.000000
endloop
endfacet
facet normal 0.000000 0.000000 1.000000
outer loop
vertex 0.004584 0.001762 0.000000
vertex 0.004523 0.002274 0.000000
vertex 0.004494 0.002402 0.000000
endloop
endfacet
facet normal 0.975116 0.221695 0.000000
outer loop
vertex 0.004494 0.002402 0.000000
vertex 0.004494 0.002402 0.150000
vertex 0.004523 0.002274 0.150000
endloop
endfacet
facet normal 0.983960 0.178390 -0.000039
outer loop
vertex 0.004494 0.002402 0.000000
vertex 0.004523 0.002274 0.150000
vertex 0.004546 0.002146 0.150000
endloop
endfacet
facet normal 0.990298 0.138960 -0.000083
outer loop
vertex 0.004666 0.001261 0.150000
vertex 0.004584 0.001762 0.000000
vertex 0.004494 0.002402 0.000000
endloop
endfacet
facet normal 0.984936 0.172920 0.000182
outer loop
vertex 0.004599 0.001648 0.150000
vertex 0.004666 0.001261 0.150000
vertex 0.004494 0.002402 0.000000
endloop
endfacet
facet normal 0.991443 0.130541 -0.000123
outer loop
vertex 0.004494 0.002402 0.000000
vertex 0.004546 0.002146 0.150000
vertex 0.004563 0.002017 0.150000
endloop
endfacet
facet normal 0.991597 0.129362 -0.000042
outer loop
vertex 0.004584 0.001762 0.150000
vertex 0.004599 0.001648 0.150000
vertex 0.004494 0.002402 0.000000
endloop
endfacet
facet normal 0.996806 0.079859 -0.000256
outer loop
vertex 0.004494 0.002402 0.000000
vertex 0.004563 0.002017 0.150000
vertex 0.004584 0.001762 0.150000
endloop
endfacet
facet normal -0.977119 0.212693 0.000000
outer loop
vertex 0.000514 0.001467 0.150000
vertex 0.000514 0.001467 0.000000
vertex 0.000496 0.001385 0.000000
endloop
endfacet
facet normal -0.977119 0.212695 0.000000
outer loop
vertex 0.000514 0.001467 0.150000
vertex 0.000496 0.001385 0.000000
vertex 0.000496 0.001385 0.150000
endloop
endfacet
facet normal -0.897227 0.441570 0.000000
outer loop
vertex 0.000109 0.006082 0.000000
vertex 0.000062 0.005986 0.000000
vertex 0.000062 0.005986 0.150000
endloop
endfacet
facet normal -0.897227 0.441570 0.000000
outer loop
vertex 0.000109 0.006082 0.000000
vertex 0.000062 0.005986 0.150000
vertex 0.000109 0.006082 0.150000
endloop
endfacet
facet normal -0.881930 0.471380 0.000000
outer loop
vertex 0.000209 0.006268 0.000000
vertex 0.000109 0.006082 0.000000
vertex 0.000109 0.006082 0.150000
endloop
endfacet
facet normal -0.881930 0.471380 0.000000
outer loop
vertex 0.000209 0.006268 0.000000
vertex 0.000109 0.006082 0.150000
vertex 0.000209 0.006268 0.150000
endloop
endfacet
facet normal -0.877849 0.478938 0.000000
outer loop
vertex 0.000253 0.006348 0.000000
vertex 0.000209 0.006268 0.000000
vertex 0.000209 0.006268 0.150000
endloop
endfacet
facet normal -0.877849 0.478937 0.000000
outer loop
vertex 0.000253 0.006348 0.000000
vertex 0.000209 0.006268 0.150000
vertex 0.000253 0.006348 0.150000
endloop
endfacet
facet normal -0.871144 0.491027 0.000000
outer loop
vertex 0.000294 0.006421 0.000000
vertex 0.000253 0.006348 0.000000
vertex 0.000253 0.006348 0.150000
endloop
endfacet
facet normal -0.871145 0.491027 0.000000
outer loop
vertex 0.000294 0.006421 0.000000
vertex 0.000253 0.006348 0.150000
vertex 0.000294 0.006421 0.150000
endloop
endfacet
facet normal -0.845141 0.534544 0.000000
outer loop
vertex 0.000373 0.006551 0.150000
vertex 0.000373 0.006551 0.000000
vertex 0.000334 0.006489 0.000000
endloop
endfacet
facet normal -0.860481 0.509483 0.000000
outer loop
vertex 0.000334 0.006489 0.000000
vertex 0.000294 0.006421 0.000000
vertex 0.000294 0.006421 0.150000
endloop
endfacet
facet normal -0.845141 0.534544 0.000000
outer loop
vertex 0.000334 0.006489 0.150000
vertex 0.000373 0.006551 0.150000
vertex 0.000334 0.006489 0.000000
endloop
endfacet
facet normal -0.860481 0.509482 0.000000
outer loop
vertex 0.000294 0.006421 0.150000
vertex 0.000334 0.006489 0.150000
vertex 0.000334 0.006489 0.000000
endloop
endfacet
facet normal -0.850404 -0.526130 0.000000
outer loop
vertex 0.000608 0.000935 0.150000
vertex 0.000608 0.000935 0.000000
vertex 0.000680 0.000818 0.000000
endloop
endfacet
facet normal -0.850404 -0.526130 0.000000
outer loop
vertex 0.000608 0.000935 0.150000
vertex 0.000680 0.000818 0.000000
vertex 0.000680 0.000818 0.150000
endloop
endfacet
facet normal -0.996080 -0.088453 0.000000
outer loop
vertex 0.000490 0.001309 0.150000
vertex 0.000490 0.001309 0.000000
vertex 0.000497 0.001231 0.000000
endloop
endfacet
facet normal -0.996080 -0.088452 0.000000
outer loop
vertex 0.000490 0.001309 0.150000
vertex 0.000497 0.001231 0.000000
vertex 0.000497 0.001231 0.150000
endloop
endfacet
facet normal -0.632839 0.774283 0.000000
outer loop
vertex 0.000784 0.006983 0.000000
vertex 0.000719 0.006930 0.000000
vertex 0.000719 0.006930 0.150000
endloop
endfacet
facet normal -0.632840 0.774283 0.000000
outer loop
vertex 0.000784 0.006983 0.000000
vertex 0.000719 0.006930 0.150000
vertex 0.000784 0.006983 0.150000
endloop
endfacet
facet normal -0.582202 0.813044 0.000000
outer loop
vertex 0.000984 0.007130 0.150000
vertex 0.000984 0.007130 0.000000
vertex 0.000850 0.007034 0.000000
endloop
endfacet
facet normal -0.612506 0.790466 0.000000
outer loop
vertex 0.000850 0.007034 0.000000
vertex 0.000784 0.006983 0.000000
vertex 0.000784 0.006983 0.150000
endloop
endfacet
facet normal -0.582202 0.813044 0.000000
outer loop
vertex 0.000850 0.007034 0.150000
vertex 0.000984 0.007130 0.150000
vertex 0.000850 0.007034 0.000000
endloop
endfacet
facet normal -0.612507 0.790465 0.000000
outer loop
vertex 0.000784 0.006983 0.150000
vertex 0.000850 0.007034 0.150000
vertex 0.000850 0.007034 0.000000
endloop
endfacet
facet normal -0.414707 0.909955 0.000000
outer loop
vertex 0.001247 0.007288 0.000000
vertex 0.001247 0.007288 0.150000
vertex 0.001424 0.007369 0.150000
endloop
endfacet
facet normal -0.414707 0.909955 0.000000
outer loop
vertex 0.001247 0.007288 0.000000
vertex 0.001424 0.007369 0.150000
vertex 0.001424 0.007369 0.000000
endloop
endfacet
facet normal 0.000000 0.000000 -1.000000
outer loop
vertex 0.000955 0.000650 0.000000
vertex 0.001147 0.000590 0.000000
vertex 0.001253 0.000557 0.000000
endloop
endfacet
facet normal 0.000000 0.000000 -1.000000
outer loop
vertex 0.001253 0.000557 0.000000
vertex 0.001360 0.000523 0.000000
vertex 0.001464 0.000490 0.000000
endloop
endfacet
facet normal 0.000000 0.000000 -1.000000
outer loop
vertex 0.001464 0.000490 0.000000
vertex 0.001561 0.000460 0.000000
vertex 0.001646 0.000432 0.000000
endloop
endfacet
facet normal -0.282244 -0.959342 0.000000
outer loop
vertex 0.001716 0.000409 0.000000
vertex 0.001794 0.000386 0.000000
vertex 0.001794 0.000386 0.150000
endloop
endfacet
facet normal 0.000000 0.000000 -1.000000
outer loop
vertex 0.001464 0.000490 0.000000
vertex 0.001646 0.000432 0.000000
vertex 0.001716 0.000409 0.000000
endloop
endfacet
facet normal 0.000000 0.000000 -1.000000
outer loop
vertex 0.000955 0.000650 0.000000
vertex 0.001253 0.000557 0.000000
vertex 0.001464 0.000490 0.000000
endloop
endfacet
facet normal 0.000000 0.000000 -1.000000
outer loop
vertex 0.000761 0.000710 0.000000
vertex 0.000815 0.000693 0.000000
vertex 0.000955 0.000650 0.000000
endloop
endfacet
facet normal -0.294660 -0.955602 0.000000
outer loop
vertex 0.000815 0.000693 0.150000
vertex 0.000761 0.000710 0.150000
vertex 0.000761 0.000710 0.000000
endloop
endfacet
facet normal -0.295517 -0.955337 0.000000
outer loop
vertex 0.000955 0.000650 0.150000
vertex 0.000815 0.000693 0.150000
vertex 0.000761 0.000710 0.000000
endloop
endfacet
facet normal 0.000000 0.000000 -1.000000
outer loop
vertex 0.000761 0.000710 0.000000
vertex 0.000955 0.000650 0.000000
vertex 0.001464 0.000490 0.000000
endloop
endfacet
facet normal -0.307568 -0.951526 0.000014
outer loop
vertex 0.001464 0.000490 0.000000
vertex 0.001716 0.000409 0.000000
vertex 0.001794 0.000386 0.150000
endloop
endfacet
facet normal -0.282244 -0.959342 -0.000047
outer loop
vertex 0.001464 0.000490 0.000000
vertex 0.001794 0.000386 0.150000
vertex 0.001716 0.000409 0.150000
endloop
endfacet
facet normal -0.297679 -0.954666 0.000003
outer loop
vertex 0.000955 0.000650 0.150000
vertex 0.000761 0.000710 0.000000
vertex 0.001464 0.000490 0.000000
endloop
endfacet
facet normal -0.296836 -0.954929 0.000007
outer loop
vertex 0.001147 0.000590 0.150000
vertex 0.000955 0.000650 0.150000
vertex 0.001464 0.000490 0.000000
endloop
endfacet
facet normal -0.313296 -0.949655 0.000011
outer loop
vertex 0.001464 0.000490 0.000000
vertex 0.001716 0.000409 0.150000
vertex 0.001646 0.000432 0.150000
endloop
endfacet
facet normal -0.307276 -0.951620 0.000003
outer loop
vertex 0.001464 0.000490 0.000000
vertex 0.001646 0.000432 0.150000
vertex 0.001561 0.000460 0.150000
endloop
endfacet
facet normal -0.298227 -0.954495 0.000003
outer loop
vertex 0.001253 0.000557 0.150000
vertex 0.001147 0.000590 0.150000
vertex 0.001464 0.000490 0.000000
endloop
endfacet
facet normal -0.299520 -0.954090 0.000001
outer loop
vertex 0.001360 0.000523 0.150000
vertex 0.001253 0.000557 0.150000
vertex 0.001464 0.000490 0.000000
endloop
endfacet
facet normal -0.303659 -0.952781 0.000000
outer loop
vertex 0.001464 0.000490 0.000000
vertex 0.001561 0.000460 0.150000
vertex 0.001464 0.000490 0.150000
endloop
endfacet
facet normal -0.301245 -0.953547 0.000000
outer loop
vertex 0.001464 0.000490 0.000000
vertex 0.001464 0.000490 0.150000
vertex 0.001360 0.000523 0.150000
endloop
endfacet
facet normal 0.982556 -0.185970 0.000000
outer loop
vertex 0.004652 0.000894 0.150000
vertex 0.004652 0.000894 0.000000
vertex 0.004670 0.000991 0.000000
endloop
endfacet
facet normal 0.982554 -0.185977 0.000000
outer loop
vertex 0.004652 0.000894 0.150000
vertex 0.004670 0.000991 0.000000
vertex 0.004670 0.000991 0.150000
endloop
endfacet
endsolid Exported from Blender-3.6.8
