solid Exported from Blender-3.6.8
facet normal -0.057335 -0.998355 0.000000
outer loop
vertex 0.001832 0.000017 0.150000
vertex 0.001832 0.000017 0.000000
vertex 0.002105 0.000001 0.000000
endloop
endfacet
facet normal -0.057335 -0.998355 0.000000
outer loop
vertex 0.001832 0.000017 0.150000
vertex 0.002105 0.000001 0.000000
vertex 0.002105 0.000001 0.150000
endloop
endfacet
facet normal -0.122661 0.992449 0.000000
outer loop
vertex 0.001323 0.008601 0.000000
vertex 0.001195 0.008585 0.000000
vertex 0.001195 0.008585 0.150000
endloop
endfacet
facet normal -0.122662 0.992449 0.000000
outer loop
vertex 0.001323 0.008601 0.000000
vertex 0.001195 0.008585 0.150000
vertex 0.001323 0.008601 0.150000
endloop
endfacet
facet normal -0.088162 0.996106 0.000000
outer loop
vertex 0.001467 0.008614 0.000000
vertex 0.001323 0.008601 0.000000
vertex 0.001323 0.008601 0.150000
endloop
endfacet
facet normal -0.088162 0.996106 0.000000
outer loop
vertex 0.001467 0.008614 0.000000
vertex 0.001323 0.008601 0.150000
vertex 0.001467 0.008614 0.150000
endloop
endfacet
facet normal -0.063634 0.997973 0.000000
outer loop
vertex 0.001623 0.008624 0.000000
vertex 0.001467 0.008614 0.000000
vertex 0.001467 0.008614 0.150000
endloop
endfacet
facet normal -0.063634 0.997973 0.000000
outer loop
vertex 0.001623 0.008624 0.000000
vertex 0.001467 0.008614 0.150000
vertex 0.001623 0.008624 0.150000
endloop
endfacet
facet normal -0.038531 0.999257 0.000000
outer loop
vertex 0.001961 0.008637 0.000000
vertex 0.001623 0.008624 0.000000
vertex 0.001623 0.008624 0.150000
endloop
endfacet
facet normal -0.038531 0.999257 0.000000
outer loop
vertex 0.001961 0.008637 0.000000
vertex 0.001623 0.008624 0.150000
vertex 0.001961 0.008637 0.150000
endloop
endfacet
facet normal 0.019255 0.999815 0.000000
outer loop
vertex 0.002955 0.008642 0.150000
vertex 0.002955 0.008642 0.000000
vertex 0.002804 0.008645 0.000000
endloop
endfacet
facet normal -0.009348 0.999956 0.000000
outer loop
vertex 0.002804 0.008645 0.000000
vertex 0.001961 0.008637 0.000000
vertex 0.001961 0.008637 0.150000
endloop
endfacet
facet normal 0.019255 0.999815 0.000000
outer loop
vertex 0.002804 0.008645 0.150000
vertex 0.002955 0.008642 0.150000
vertex 0.002804 0.008645 0.000000
endloop
endfacet
facet normal -0.009348 0.999956 0.000000
outer loop
vertex 0.001961 0.008637 0.150000
vertex 0.002804 0.008645 0.150000
vertex 0.002804 0.008645 0.000000
endloop
endfacet
facet normal -0.999216 0.039594 0.000000
outer loop
vertex 0.000722 0.004223 0.000000
vertex 0.000717 0.004090 0.000000
vertex 0.000717 0.004090 0.150000
endloop
endfacet
facet normal -0.999216 0.039594 0.000000
outer loop
vertex 0.000722 0.004223 0.000000
vertex 0.000717 0.004090 0.150000
vertex 0.000722 0.004223 0.150000
endloop
endfacet
facet normal -0.999667 0.025789 0.000000
outer loop
vertex 0.000726 0.004360 0.000000
vertex 0.000722 0.004223 0.000000
vertex 0.000722 0.004223 0.150000
endloop
endfacet
facet normal -0.999667 0.025789 0.000000
outer loop
vertex 0.000726 0.004360 0.000000
vertex 0.000722 0.004223 0.150000
vertex 0.000726 0.004360 0.150000
endloop
endfacet
facet normal -0.999887 0.015022 0.000000
outer loop
vertex 0.000728 0.004502 0.000000
vertex 0.000726 0.004360 0.000000
vertex 0.000726 0.004360 0.150000
endloop
endfacet
facet normal -0.999887 0.015022 0.000000
outer loop
vertex 0.000728 0.004502 0.000000
vertex 0.000726 0.004360 0.150000
vertex 0.000728 0.004502 0.150000
endloop
endfacet
facet normal -0.999973 0.007332 0.000000
outer loop
vertex 0.000729 0.004652 0.000000
vertex 0.000728 0.004502 0.000000
vertex 0.000728 0.004502 0.150000
endloop
endfacet
facet normal -0.999973 0.007332 0.000000
outer loop
vertex 0.000729 0.004652 0.000000
vertex 0.000728 0.004502 0.150000
vertex 0.000729 0.004652 0.150000
endloop
endfacet
facet normal -1.000000 0.000730 0.000000
outer loop
vertex 0.000729 0.005153 0.000000
vertex 0.000729 0.004652 0.000000
vertex 0.000729 0.004652 0.150000
endloop
endfacet
facet normal -1.000000 0.000730 0.000000
outer loop
vertex 0.000729 0.005153 0.000000
vertex 0.000729 0.004652 0.150000
vertex 0.000729 0.005153 0.150000
endloop
endfacet
facet normal -0.999992 -0.004064 0.000000
outer loop
vertex 0.000729 0.005318 0.000000
vertex 0.000729 0.005153 0.000000
vertex 0.000729 0.005153 0.150000
endloop
endfacet
facet normal -0.999992 -0.004064 0.000000
outer loop
vertex 0.000729 0.005318 0.000000
vertex 0.000729 0.005153 0.150000
vertex 0.000729 0.005318 0.150000
endloop
endfacet
facet normal -0.999935 -0.011426 0.000000
outer loop
vertex 0.000727 0.005479 0.000000
vertex 0.000729 0.005318 0.000000
vertex 0.000729 0.005318 0.150000
endloop
endfacet
facet normal -0.999935 -0.011427 0.000000
outer loop
vertex 0.000727 0.005479 0.000000
vertex 0.000729 0.005318 0.150000
vertex 0.000727 0.005479 0.150000
endloop
endfacet
facet normal -0.999242 -0.038939 0.000000
outer loop
vertex 0.000717 0.005784 0.150000
vertex 0.000717 0.005784 0.000000
vertex 0.000723 0.005634 0.000000
endloop
endfacet
facet normal -0.999736 -0.022972 0.000000
outer loop
vertex 0.000723 0.005634 0.000000
vertex 0.000727 0.005479 0.000000
vertex 0.000727 0.005479 0.150000
endloop
endfacet
facet normal -0.999242 -0.038940 0.000000
outer loop
vertex 0.000723 0.005634 0.150000
vertex 0.000717 0.005784 0.150000
vertex 0.000723 0.005634 0.000000
endloop
endfacet
facet normal -0.999736 -0.022971 0.000000
outer loop
vertex 0.000727 0.005479 0.150000
vertex 0.000723 0.005634 0.150000
vertex 0.000723 0.005634 0.000000
endloop
endfacet
facet normal -0.722025 0.691867 0.000000
outer loop
vertex 0.000014 0.007719 0.000000
vertex 0.000000 0.007704 0.000000
vertex 0.000000 0.007704 0.150000
endloop
endfacet
facet normal -0.722025 0.691867 0.000000
outer loop
vertex 0.000014 0.007719 0.000000
vertex 0.000000 0.007704 0.150000
vertex 0.000014 0.007719 0.150000
endloop
endfacet
facet normal -0.717614 0.696441 0.000000
outer loop
vertex 0.000053 0.007759 0.000000
vertex 0.000014 0.007719 0.000000
vertex 0.000014 0.007719 0.150000
endloop
endfacet
facet normal -0.717614 0.696441 0.000000
outer loop
vertex 0.000053 0.007759 0.000000
vertex 0.000014 0.007719 0.150000
vertex 0.000053 0.007759 0.150000
endloop
endfacet
facet normal -0.711949 0.702231 0.000000
outer loop
vertex 0.000114 0.007821 0.000000
vertex 0.000053 0.007759 0.000000
vertex 0.000053 0.007759 0.150000
endloop
endfacet
facet normal -0.711949 0.702231 0.000000
outer loop
vertex 0.000114 0.007821 0.000000
vertex 0.000053 0.007759 0.150000
vertex 0.000114 0.007821 0.150000
endloop
endfacet
facet normal -0.705068 0.709139 0.000000
outer loop
vertex 0.000193 0.007899 0.000000
vertex 0.000114 0.007821 0.000000
vertex 0.000114 0.007821 0.150000
endloop
endfacet
facet normal -0.705068 0.709139 0.000000
outer loop
vertex 0.000193 0.007899 0.000000
vertex 0.000114 0.007821 0.150000
vertex 0.000193 0.007899 0.150000
endloop
endfacet
facet normal -0.696607 0.717453 0.000000
outer loop
vertex 0.000286 0.007989 0.000000
vertex 0.000193 0.007899 0.000000
vertex 0.000193 0.007899 0.150000
endloop
endfacet
facet normal -0.696607 0.717453 0.000000
outer loop
vertex 0.000286 0.007989 0.000000
vertex 0.000193 0.007899 0.150000
vertex 0.000286 0.007989 0.150000
endloop
endfacet
facet normal -0.685990 0.727611 0.000000
outer loop
vertex 0.000388 0.008086 0.000000
vertex 0.000286 0.007989 0.000000
vertex 0.000286 0.007989 0.150000
endloop
endfacet
facet normal -0.685990 0.727611 0.000000
outer loop
vertex 0.000388 0.008086 0.000000
vertex 0.000286 0.007989 0.150000
vertex 0.000388 0.008086 0.150000
endloop
endfacet
facet normal -0.672297 0.740281 0.000000
outer loop
vertex 0.000497 0.008185 0.000000
vertex 0.000388 0.008086 0.000000
vertex 0.000388 0.008086 0.150000
endloop
endfacet
facet normal -0.672298 0.740281 0.000000
outer loop
vertex 0.000497 0.008185 0.000000
vertex 0.000388 0.008086 0.150000
vertex 0.000497 0.008185 0.150000
endloop
endfacet
facet normal -0.628460 0.777842 0.000000
outer loop
vertex 0.000718 0.008370 0.150000
vertex 0.000718 0.008370 0.000000
vertex 0.000608 0.008281 0.000000
endloop
endfacet
facet normal -0.654016 0.756480 0.000000
outer loop
vertex 0.000608 0.008281 0.000000
vertex 0.000497 0.008185 0.000000
vertex 0.000497 0.008185 0.150000
endloop
endfacet
facet normal -0.628460 0.777842 0.000000
outer loop
vertex 0.000608 0.008281 0.150000
vertex 0.000718 0.008370 0.150000
vertex 0.000608 0.008281 0.000000
endloop
endfacet
facet normal -0.654016 0.756481 0.000000
outer loop
vertex 0.000608 0.008281 0.000000
vertex 0.000497 0.008185 0.150000
vertex 0.000608 0.008281 0.150000
endloop
endfacet
facet normal 0.000000 0.000000 -1.000000
outer loop
vertex 0.006285 0.005923 0.000000
vertex 0.005791 0.006833 0.000000
vertex 0.005483 0.007455 0.000000
endloop
endfacet
facet normal 0.874041 0.485851 0.000000
outer loop
vertex 0.005483 0.007455 0.000000
vertex 0.005413 0.007581 0.000000
vertex 0.005413 0.007581 0.150000
endloop
endfacet
facet normal 0.874041 0.485851 0.000000
outer loop
vertex 0.005483 0.007455 0.000000
vertex 0.005413 0.007581 0.150000
vertex 0.005483 0.007455 0.150000
endloop
endfacet
facet normal 0.885840 0.463991 0.000000
outer loop
vertex 0.006285 0.005923 0.000000
vertex 0.005483 0.007455 0.000000
vertex 0.005483 0.007455 0.150000
endloop
endfacet
facet normal 0.896398 0.443250 0.000268
outer loop
vertex 0.006285 0.005923 0.000000
vertex 0.005483 0.007455 0.150000
vertex 0.005791 0.006833 0.150000
endloop
endfacet
facet normal 0.891726 0.452576 0.000196
outer loop
vertex 0.006443 0.005614 0.000000
vertex 0.006285 0.005923 0.000000
vertex 0.005791 0.006833 0.150000
endloop
endfacet
facet normal 0.878491 0.477759 -0.000066
outer loop
vertex 0.006443 0.005614 0.000000
vertex 0.005791 0.006833 0.150000
vertex 0.006285 0.005923 0.150000
endloop
endfacet
facet normal 0.912159 0.409836 0.000000
outer loop
vertex 0.006804 0.004831 0.150000
vertex 0.006804 0.004831 0.000000
vertex 0.006579 0.005331 0.000000
endloop
endfacet
facet normal 0.900445 0.434970 0.000045
outer loop
vertex 0.006579 0.005331 0.000000
vertex 0.006443 0.005614 0.000000
vertex 0.006285 0.005923 0.150000
endloop
endfacet
facet normal 0.891725 0.452578 -0.000041
outer loop
vertex 0.006579 0.005331 0.000000
vertex 0.006285 0.005923 0.150000
vertex 0.006443 0.005614 0.150000
endloop
endfacet
facet normal 0.912158 0.409838 0.000000
outer loop
vertex 0.006579 0.005331 0.150000
vertex 0.006804 0.004831 0.150000
vertex 0.006579 0.005331 0.000000
endloop
endfacet
facet normal 0.900443 0.434974 0.000000
outer loop
vertex 0.006579 0.005331 0.000000
vertex 0.006443 0.005614 0.150000
vertex 0.006579 0.005331 0.150000
endloop
endfacet
facet normal 0.000000 0.000000 -1.000000
outer loop
vertex 0.003418 0.008597 0.000000
vertex 0.003576 0.008569 0.000000
vertex 0.003737 0.008534 0.000000
endloop
endfacet
facet normal 0.000000 0.000000 -1.000000
outer loop
vertex 0.003737 0.008534 0.000000
vertex 0.004064 0.008444 0.000000
vertex 0.004231 0.008388 0.000000
endloop
endfacet
facet normal 0.000000 0.000000 -1.000000
outer loop
vertex 0.004231 0.008388 0.000000
vertex 0.004399 0.008325 0.000000
vertex 0.004744 0.008174 0.000000
endloop
endfacet
facet normal 0.000000 0.000000 -1.000000
outer loop
vertex 0.004744 0.008174 0.000000
vertex 0.004905 0.008089 0.000000
vertex 0.005041 0.008000 0.000000
endloop
endfacet
facet normal 0.000000 0.000000 -1.000000
outer loop
vertex 0.005041 0.008000 0.000000
vertex 0.005156 0.007906 0.000000
vertex 0.005253 0.007806 0.000000
endloop
endfacet
facet normal 0.000000 0.000000 -1.000000
outer loop
vertex 0.005253 0.007806 0.000000
vertex 0.005338 0.007698 0.000000
vertex 0.005413 0.007581 0.000000
endloop
endfacet
facet normal 0.000000 0.000000 -1.000000
outer loop
vertex 0.005413 0.007581 0.000000
vertex 0.005483 0.007455 0.000000
vertex 0.005791 0.006833 0.000000
endloop
endfacet
facet normal 0.000000 0.000000 -1.000000
outer loop
vertex 0.005791 0.006833 0.000000
vertex 0.006285 0.005923 0.000000
vertex 0.006443 0.005614 0.000000
endloop
endfacet
facet normal 0.000000 0.000000 -1.000000
outer loop
vertex 0.006443 0.005614 0.000000
vertex 0.006579 0.005331 0.000000
vertex 0.006804 0.004831 0.000000
endloop
endfacet
facet normal 0.000000 0.000000 -1.000000
outer loop
vertex 0.006804 0.004831 0.000000
vertex 0.006850 0.004705 0.000000
vertex 0.006887 0.004561 0.000000
endloop
endfacet
facet normal 0.000000 0.000000 -1.000000
outer loop
vertex 0.006887 0.004561 0.000000
vertex 0.006938 0.004231 0.000000
vertex 0.006958 0.003858 0.000000
endloop
endfacet
facet normal 0.000000 0.000000 -1.000000
outer loop
vertex 0.006958 0.003858 0.000000
vertex 0.006956 0.003661 0.000000
vertex 0.006947 0.003460 0.000000
endloop
endfacet
facet normal 0.000000 0.000000 -1.000000
outer loop
vertex 0.006947 0.003460 0.000000
vertex 0.006930 0.003258 0.000000
vertex 0.006906 0.003055 0.000000
endloop
endfacet
facet normal 0.000000 0.000000 -1.000000
outer loop
vertex 0.006906 0.003055 0.000000
vertex 0.006788 0.002477 0.000000
vertex 0.006653 0.002150 0.000000
endloop
endfacet
facet normal 0.000000 0.000000 -1.000000
outer loop
vertex 0.006653 0.002150 0.000000
vertex 0.006486 0.001874 0.000000
vertex 0.006397 0.001753 0.000000
endloop
endfacet
facet normal 0.000000 0.000000 -1.000000
outer loop
vertex 0.006397 0.001753 0.000000
vertex 0.006307 0.001643 0.000000
vertex 0.005993 0.001299 0.000000
endloop
endfacet
facet normal 0.000000 0.000000 -1.000000
outer loop
vertex 0.005993 0.001299 0.000000
vertex 0.005938 0.001234 0.000000
vertex 0.005835 0.001156 0.000000
endloop
endfacet
facet normal 0.000000 0.000000 -1.000000
outer loop
vertex 0.005835 0.001156 0.000000
vertex 0.004995 0.000773 0.000000
vertex 0.003267 0.000204 0.000000
endloop
endfacet
facet normal 0.000000 0.000000 -1.000000
outer loop
vertex 0.003267 0.000204 0.000000
vertex 0.002446 0.000032 0.000000
vertex 0.002105 0.000001 0.000000
endloop
endfacet
facet normal 0.000000 0.000000 -1.000000
outer loop
vertex 0.002105 0.000001 0.000000
vertex 0.001832 0.000017 0.000000
vertex 0.001451 0.000108 0.000000
endloop
endfacet
facet normal 0.000000 0.000000 -1.000000
outer loop
vertex 0.001451 0.000108 0.000000
vertex 0.001314 0.000161 0.000000
vertex 0.001207 0.000219 0.000000
endloop
endfacet
facet normal 0.000000 0.000000 -1.000000
outer loop
vertex 0.001207 0.000219 0.000000
vertex 0.001123 0.000282 0.000000
vertex 0.001057 0.000350 0.000000
endloop
endfacet
facet normal 0.000000 0.000000 -1.000000
outer loop
vertex 0.001057 0.000350 0.000000
vertex 0.001003 0.000424 0.000000
vertex 0.000803 0.000779 0.000000
endloop
endfacet
facet normal 0.000000 0.000000 -1.000000
outer loop
vertex 0.000803 0.000779 0.000000
vertex 0.000596 0.001081 0.000000
vertex 0.000552 0.001168 0.000000
endloop
endfacet
facet normal 0.000000 0.000000 -1.000000
outer loop
vertex 0.000552 0.001168 0.000000
vertex 0.000520 0.001250 0.000000
vertex 0.000498 0.001329 0.000000
endloop
endfacet
facet normal 0.000000 0.000000 -1.000000
outer loop
vertex 0.000498 0.001329 0.000000
vertex 0.000484 0.001408 0.000000
vertex 0.000476 0.001488 0.000000
endloop
endfacet
facet normal 0.000000 0.000000 -1.000000
outer loop
vertex 0.000476 0.001488 0.000000
vertex 0.000473 0.001571 0.000000
vertex 0.000472 0.001660 0.000000
endloop
endfacet
facet normal 0.000000 0.000000 -1.000000
outer loop
vertex 0.000476 0.001488 0.000000
vertex 0.000472 0.001660 0.000000
vertex 0.000471 0.001757 0.000000
endloop
endfacet
facet normal 0.000000 0.000000 -1.000000
outer loop
vertex 0.000552 0.001168 0.000000
vertex 0.000498 0.001329 0.000000
vertex 0.000476 0.001488 0.000000
endloop
endfacet
facet normal 0.000000 0.000000 -1.000000
outer loop
vertex 0.001207 0.000219 0.000000
vertex 0.001057 0.000350 0.000000
vertex 0.000803 0.000779 0.000000
endloop
endfacet
facet normal 0.000000 0.000000 -1.000000
outer loop
vertex 0.000803 0.000779 0.000000
vertex 0.000552 0.001168 0.000000
vertex 0.000476 0.001488 0.000000
endloop
endfacet
facet normal 0.000000 0.000000 -1.000000
outer loop
vertex 0.000803 0.000779 0.000000
vertex 0.000476 0.001488 0.000000
vertex 0.000471 0.001757 0.000000
endloop
endfacet
facet normal 0.000000 0.000000 -1.000000
outer loop
vertex 0.001451 0.000108 0.000000
vertex 0.001207 0.000219 0.000000
vertex 0.000803 0.000779 0.000000
endloop
endfacet
facet normal 0.000000 0.000000 -1.000000
outer loop
vertex 0.003267 0.000204 0.000000
vertex 0.002105 0.000001 0.000000
vertex 0.001451 0.000108 0.000000
endloop
endfacet
facet normal 0.000000 0.000000 -1.000000
outer loop
vertex 0.005993 0.001299 0.000000
vertex 0.005835 0.001156 0.000000
vertex 0.003267 0.000204 0.000000
endloop
endfacet
facet normal 0.000000 0.000000 -1.000000
outer loop
vertex 0.006653 0.002150 0.000000
vertex 0.006397 0.001753 0.000000
vertex 0.005993 0.001299 0.000000
endloop
endfacet
facet normal 0.000000 0.000000 -1.000000
outer loop
vertex 0.006947 0.003460 0.000000
vertex 0.006906 0.003055 0.000000
vertex 0.006653 0.002150 0.000000
endloop
endfacet
facet normal 0.000000 0.000000 -1.000000
outer loop
vertex 0.006887 0.004561 0.000000
vertex 0.006958 0.003858 0.000000
vertex 0.006947 0.003460 0.000000
endloop
endfacet
facet normal 0.000000 0.000000 -1.000000
outer loop
vertex 0.006443 0.005614 0.000000
vertex 0.006804 0.004831 0.000000
vertex 0.006887 0.004561 0.000000
endloop
endfacet
facet normal 0.000000 0.000000 -1.000000
outer loop
vertex 0.005253 0.007806 0.000000
vertex 0.005413 0.007581 0.000000
vertex 0.005791 0.006833 0.000000
endloop
endfacet
facet normal 0.000000 0.000000 -1.000000
outer loop
vertex 0.005791 0.006833 0.000000
vertex 0.006443 0.005614 0.000000
vertex 0.006887 0.004561 0.000000
endloop
endfacet
facet normal 0.000000 0.000000 -1.000000
outer loop
vertex 0.006887 0.004561 0.000000
vertex 0.006947 0.003460 0.000000
vertex 0.006653 0.002150 0.000000
endloop
endfacet
facet normal 0.000000 0.000000 -1.000000
outer loop
vertex 0.006653 0.002150 0.000000
vertex 0.005993 0.001299 0.000000
vertex 0.003267 0.000204 0.000000
endloop
endfacet
facet normal 0.000000 0.000000 -1.000000
outer loop
vertex 0.003267 0.000204 0.000000
vertex 0.001451 0.000108 0.000000
vertex 0.000803 0.000779 0.000000
endloop
endfacet
facet normal 0.000000 0.000000 -1.000000
outer loop
vertex 0.000803 0.000779 0.000000
vertex 0.000471 0.001757 0.000000
vertex 0.000469 0.001863 0.000000
endloop
endfacet
facet normal 0.000000 0.000000 -1.000000
outer loop
vertex 0.000469 0.001863 0.000000
vertex 0.000463 0.001982 0.000000
vertex 0.000458 0.002101 0.000000
endloop
endfacet
facet normal 0.000000 0.000000 -1.000000
outer loop
vertex 0.000458 0.002101 0.000000
vertex 0.000457 0.002209 0.000000
vertex 0.000717 0.004090 0.000000
endloop
endfacet
facet normal 0.000000 0.000000 -1.000000
outer loop
vertex 0.000469 0.001863 0.000000
vertex 0.000458 0.002101 0.000000
vertex 0.000717 0.004090 0.000000
endloop
endfacet
facet normal 0.000000 0.000000 -1.000000
outer loop
vertex 0.003267 0.000204 0.000000
vertex 0.000803 0.000779 0.000000
vertex 0.000469 0.001863 0.000000
endloop
endfacet
facet normal 0.000000 0.000000 -1.000000
outer loop
vertex 0.006887 0.004561 0.000000
vertex 0.006653 0.002150 0.000000
vertex 0.003267 0.000204 0.000000
endloop
endfacet
facet normal 0.000000 0.000000 -1.000000
outer loop
vertex 0.005253 0.007806 0.000000
vertex 0.005791 0.006833 0.000000
vertex 0.006887 0.004561 0.000000
endloop
endfacet
facet normal 0.000000 0.000000 -1.000000
outer loop
vertex 0.004744 0.008174 0.000000
vertex 0.005041 0.008000 0.000000
vertex 0.005253 0.007806 0.000000
endloop
endfacet
facet normal 0.000000 0.000000 -1.000000
outer loop
vertex 0.003737 0.008534 0.000000
vertex 0.004231 0.008388 0.000000
vertex 0.004744 0.008174 0.000000
endloop
endfacet
facet normal 0.000000 0.000000 -1.000000
outer loop
vertex 0.002955 0.008642 0.000000
vertex 0.003418 0.008597 0.000000
vertex 0.003737 0.008534 0.000000
endloop
endfacet
facet normal 0.000000 0.000000 -1.000000
outer loop
vertex 0.001961 0.008637 0.000000
vertex 0.002804 0.008645 0.000000
vertex 0.002955 0.008642 0.000000
endloop
endfacet
facet normal 0.000000 0.000000 -1.000000
outer loop
vertex 0.001467 0.008614 0.000000
vertex 0.001623 0.008624 0.000000
vertex 0.001961 0.008637 0.000000
endloop
endfacet
facet normal 0.000000 0.000000 -1.000000
outer loop
vertex 0.001195 0.008585 0.000000
vertex 0.001323 0.008601 0.000000
vertex 0.001467 0.008614 0.000000
endloop
endfacet
facet normal 0.000000 0.000000 -1.000000
outer loop
vertex 0.000918 0.008506 0.000000
vertex 0.001000 0.008543 0.000000
vertex 0.001195 0.008585 0.000000
endloop
endfacet
facet normal 0.000000 0.000000 -1.000000
outer loop
vertex 0.000608 0.008281 0.000000
vertex 0.000718 0.008370 0.000000
vertex 0.000918 0.008506 0.000000
endloop
endfacet
facet normal 0.000000 0.000000 -1.000000
outer loop
vertex 0.000388 0.008086 0.000000
vertex 0.000497 0.008185 0.000000
vertex 0.000608 0.008281 0.000000
endloop
endfacet
facet normal 0.000000 0.000000 -1.000000
outer loop
vertex 0.000193 0.007899 0.000000
vertex 0.000286 0.007989 0.000000
vertex 0.000388 0.008086 0.000000
endloop
endfacet
facet normal 0.000000 0.000000 -1.000000
outer loop
vertex 0.000053 0.007759 0.000000
vertex 0.000114 0.007821 0.000000
vertex 0.000193 0.007899 0.000000
endloop
endfacet
facet normal 0.000000 0.000000 -1.000000
outer loop
vertex 0.000000 0.007704 0.000000
vertex 0.000014 0.007719 0.000000
vertex 0.000053 0.007759 0.000000
endloop
endfacet
facet normal 0.000000 0.000000 -1.000000
outer loop
vertex 0.000030 0.007675 0.000000
vertex 0.000000 0.007704 0.000000
vertex 0.000053 0.007759 0.000000
endloop
endfacet
facet normal 0.000000 0.000000 -1.000000
outer loop
vertex 0.000053 0.007759 0.000000
vertex 0.000193 0.007899 0.000000
vertex 0.000388 0.008086 0.000000
endloop
endfacet
facet normal 0.000000 0.000000 -1.000000
outer loop
vertex 0.000388 0.008086 0.000000
vertex 0.000608 0.008281 0.000000
vertex 0.000918 0.008506 0.000000
endloop
endfacet
facet normal 0.000000 0.000000 -1.000000
outer loop
vertex 0.000918 0.008506 0.000000
vertex 0.001195 0.008585 0.000000
vertex 0.001467 0.008614 0.000000
endloop
endfacet
facet normal 0.000000 0.000000 -1.000000
outer loop
vertex 0.001467 0.008614 0.000000
vertex 0.001961 0.008637 0.000000
vertex 0.002955 0.008642 0.000000
endloop
endfacet
facet normal 0.000000 0.000000 -1.000000
outer loop
vertex 0.002955 0.008642 0.000000
vertex 0.003737 0.008534 0.000000
vertex 0.004744 0.008174 0.000000
endloop
endfacet
facet normal 0.000000 0.000000 -1.000000
outer loop
vertex 0.004744 0.008174 0.000000
vertex 0.005253 0.007806 0.000000
vertex 0.006887 0.004561 0.000000
endloop
endfacet
facet normal 0.000000 0.000000 -1.000000
outer loop
vertex 0.006887 0.004561 0.000000
vertex 0.003267 0.000204 0.000000
vertex 0.000469 0.001863 0.000000
endloop
endfacet
facet normal 0.000000 0.000000 -1.000000
outer loop
vertex 0.006887 0.004561 0.000000
vertex 0.000469 0.001863 0.000000
vertex 0.000717 0.004090 0.000000
endloop
endfacet
facet normal 0.000000 0.000000 -1.000000
outer loop
vertex 0.002955 0.008642 0.000000
vertex 0.004744 0.008174 0.000000
vertex 0.006887 0.004561 0.000000
endloop
endfacet
facet normal 0.000000 0.000000 -1.000000
outer loop
vertex 0.000918 0.008506 0.000000
vertex 0.001467 0.008614 0.000000
vertex 0.002955 0.008642 0.000000
endloop
endfacet
facet normal 0.000000 0.000000 -1.000000
outer loop
vertex 0.000053 0.007759 0.000000
vertex 0.000388 0.008086 0.000000
vertex 0.000918 0.008506 0.000000
endloop
endfacet
facet normal 0.000000 0.000000 -1.000000
outer loop
vertex 0.000109 0.007590 0.000000
vertex 0.000030 0.007675 0.000000
vertex 0.000053 0.007759 0.000000
endloop
endfacet
facet normal 0.000000 0.000000 -1.000000
outer loop
vertex 0.000161 0.007528 0.000000
vertex 0.000109 0.007590 0.000000
vertex 0.000053 0.007759 0.000000
endloop
endfacet
facet normal 0.000000 0.000000 -1.000000
outer loop
vertex 0.000053 0.007759 0.000000
vertex 0.000918 0.008506 0.000000
vertex 0.002955 0.008642 0.000000
endloop
endfacet
facet normal 0.000000 0.000000 -1.000000
outer loop
vertex 0.002955 0.008642 0.000000
vertex 0.006887 0.004561 0.000000
vertex 0.000717 0.004090 0.000000
endloop
endfacet
facet normal 0.000000 0.000000 -1.000000
outer loop
vertex 0.002955 0.008642 0.000000
vertex 0.000717 0.004090 0.000000
vertex 0.000722 0.004223 0.000000
endloop
endfacet
facet normal 0.000000 0.000000 -1.000000
outer loop
vertex 0.000161 0.007528 0.000000
vertex 0.000053 0.007759 0.000000
vertex 0.002955 0.008642 0.000000
endloop
endfacet
facet normal 0.000000 0.000000 -1.000000
outer loop
vertex 0.000219 0.007454 0.000000
vertex 0.000161 0.007528 0.000000
vertex 0.002955 0.008642 0.000000
endloop
endfacet
facet normal 0.000000 0.000000 -1.000000
outer loop
vertex 0.002955 0.008642 0.000000
vertex 0.000722 0.004223 0.000000
vertex 0.000726 0.004360 0.000000
endloop
endfacet
facet normal 0.000000 0.000000 -1.000000
outer loop
vertex 0.002955 0.008642 0.000000
vertex 0.000726 0.004360 0.000000
vertex 0.000728 0.004502 0.000000
endloop
endfacet
facet normal 0.000000 0.000000 -1.000000
outer loop
vertex 0.000343 0.007270 0.000000
vertex 0.000219 0.007454 0.000000
vertex 0.002955 0.008642 0.000000
endloop
endfacet
facet normal 0.000000 0.000000 -1.000000
outer loop
vertex 0.000464 0.007044 0.000000
vertex 0.000343 0.007270 0.000000
vertex 0.002955 0.008642 0.000000
endloop
endfacet
facet normal 0.000000 0.000000 -1.000000
outer loop
vertex 0.002955 0.008642 0.000000
vertex 0.000728 0.004502 0.000000
vertex 0.000729 0.004652 0.000000
endloop
endfacet
facet normal 0.000000 0.000000 -1.000000
outer loop
vertex 0.002955 0.008642 0.000000
vertex 0.000729 0.004652 0.000000
vertex 0.000729 0.005153 0.000000
endloop
endfacet
facet normal 0.000000 0.000000 -1.000000
outer loop
vertex 0.000517 0.006916 0.000000
vertex 0.000464 0.007044 0.000000
vertex 0.002955 0.008642 0.000000
endloop
endfacet
facet normal 0.000000 0.000000 -1.000000
outer loop
vertex 0.000601 0.006638 0.000000
vertex 0.000517 0.006916 0.000000
vertex 0.002955 0.008642 0.000000
endloop
endfacet
facet normal 0.000000 0.000000 -1.000000
outer loop
vertex 0.002955 0.008642 0.000000
vertex 0.000729 0.005153 0.000000
vertex 0.000729 0.005318 0.000000
endloop
endfacet
facet normal 0.000000 0.000000 -1.000000
outer loop
vertex 0.002955 0.008642 0.000000
vertex 0.000729 0.005318 0.000000
vertex 0.000727 0.005479 0.000000
endloop
endfacet
facet normal 0.000000 0.000000 -1.000000
outer loop
vertex 0.000659 0.006358 0.000000
vertex 0.000601 0.006638 0.000000
vertex 0.002955 0.008642 0.000000
endloop
endfacet
facet normal 0.000000 0.000000 -1.000000
outer loop
vertex 0.000717 0.005784 0.000000
vertex 0.000659 0.006358 0.000000
vertex 0.002955 0.008642 0.000000
endloop
endfacet
facet normal 0.000000 0.000000 -1.000000
outer loop
vertex 0.002955 0.008642 0.000000
vertex 0.000727 0.005479 0.000000
vertex 0.000723 0.005634 0.000000
endloop
endfacet
facet normal 0.000000 0.000000 -1.000000
outer loop
vertex 0.000723 0.005634 0.000000
vertex 0.000717 0.005784 0.000000
vertex 0.002955 0.008642 0.000000
endloop
endfacet
facet normal 0.547990 0.836485 0.000000
outer loop
vertex 0.005041 0.008000 0.150000
vertex 0.005041 0.008000 0.000000
vertex 0.004905 0.008089 0.000000
endloop
endfacet
facet normal 0.547994 0.836482 0.000000
outer loop
vertex 0.005041 0.008000 0.150000
vertex 0.004905 0.008089 0.000000
vertex 0.004905 0.008089 0.150000
endloop
endfacet
facet normal 0.173221 0.984883 0.000000
outer loop
vertex 0.003576 0.008569 0.000000
vertex 0.003418 0.008597 0.000000
vertex 0.003418 0.008597 0.150000
endloop
endfacet
facet normal 0.173221 0.984883 0.000000
outer loop
vertex 0.003576 0.008569 0.000000
vertex 0.003418 0.008597 0.150000
vertex 0.003576 0.008569 0.150000
endloop
endfacet
facet normal 0.265757 0.964040 0.000000
outer loop
vertex 0.004064 0.008444 0.150000
vertex 0.004064 0.008444 0.000000
vertex 0.003737 0.008534 0.000000
endloop
endfacet
facet normal 0.210780 0.977534 0.000000
outer loop
vertex 0.003737 0.008534 0.000000
vertex 0.003576 0.008569 0.000000
vertex 0.003576 0.008569 0.150000
endloop
endfacet
facet normal 0.265757 0.964040 0.000000
outer loop
vertex 0.003737 0.008534 0.150000
vertex 0.004064 0.008444 0.150000
vertex 0.003737 0.008534 0.000000
endloop
endfacet
facet normal 0.210779 0.977534 0.000000
outer loop
vertex 0.003576 0.008569 0.150000
vertex 0.003737 0.008534 0.150000
vertex 0.003737 0.008534 0.000000
endloop
endfacet
facet normal 0.634564 0.772870 0.000000
outer loop
vertex 0.005156 0.007906 0.150000
vertex 0.005156 0.007906 0.000000
vertex 0.005041 0.008000 0.000000
endloop
endfacet
facet normal 0.634564 0.772870 0.000000
outer loop
vertex 0.005156 0.007906 0.150000
vertex 0.005041 0.008000 0.000000
vertex 0.005041 0.008000 0.150000
endloop
endfacet
facet normal 0.000713 0.000000 1.000000
outer loop
vertex 0.006938 0.004231 0.150000
vertex 0.006887 0.004561 0.150000
vertex 0.006850 0.004705 0.150000
endloop
endfacet
facet normal -0.002698 0.000000 0.999996
outer loop
vertex 0.006850 0.004705 0.150000
vertex 0.006804 0.004831 0.150000
vertex 0.006579 0.005331 0.150000
endloop
endfacet
facet normal 0.003402 0.000000 0.999994
outer loop
vertex 0.006579 0.005331 0.150000
vertex 0.006443 0.005614 0.150000
vertex 0.006285 0.005923 0.150000
endloop
endfacet
facet normal 0.000000 0.000000 1.000000
outer loop
vertex 0.005791 0.006833 0.150000
vertex 0.005483 0.007455 0.150000
vertex 0.005413 0.007581 0.150000
endloop
endfacet
facet normal 0.000000 0.000000 1.000000
outer loop
vertex 0.006579 0.005331 0.150000
vertex 0.006285 0.005923 0.150000
vertex 0.005791 0.006833 0.150000
endloop
endfacet
facet normal 0.000000 0.000000 1.000000
outer loop
vertex 0.006938 0.004231 0.150000
vertex 0.006850 0.004705 0.150000
vertex 0.006579 0.005331 0.150000
endloop
endfacet
facet normal 0.000000 0.000000 1.000000
outer loop
vertex 0.006956 0.003661 0.150000
vertex 0.006958 0.003858 0.150000
vertex 0.006938 0.004231 0.150000
endloop
endfacet
facet normal 0.000000 0.000000 1.000000
outer loop
vertex 0.006930 0.003258 0.150000
vertex 0.006947 0.003460 0.150000
vertex 0.006956 0.003661 0.150000
endloop
endfacet
facet normal 0.000000 0.000000 1.000000
outer loop
vertex 0.006788 0.002477 0.150000
vertex 0.006906 0.003055 0.150000
vertex 0.006930 0.003258 0.150000
endloop
endfacet
facet normal -0.000419 0.000000 1.000000
outer loop
vertex 0.006486 0.001874 0.150000
vertex 0.006653 0.002150 0.150000
vertex 0.006788 0.002477 0.150000
endloop
endfacet
facet normal 0.000000 0.000000 1.000000
outer loop
vertex 0.006307 0.001643 0.150000
vertex 0.006397 0.001753 0.150000
vertex 0.006486 0.001874 0.150000
endloop
endfacet
facet normal 0.000000 0.000000 1.000000
outer loop
vertex 0.005835 0.001156 0.150000
vertex 0.005938 0.001234 0.150000
vertex 0.005993 0.001299 0.150000
endloop
endfacet
facet normal 0.000000 0.000000 1.000000
outer loop
vertex 0.005993 0.001299 0.150000
vertex 0.006307 0.001643 0.150000
vertex 0.006486 0.001874 0.150000
endloop
endfacet
facet normal 0.000097 0.000000 1.000000
outer loop
vertex 0.006486 0.001874 0.150000
vertex 0.006788 0.002477 0.150000
vertex 0.006930 0.003258 0.150000
endloop
endfacet
facet normal -0.000663 0.000000 1.000000
outer loop
vertex 0.006930 0.003258 0.150000
vertex 0.006956 0.003661 0.150000
vertex 0.006938 0.004231 0.150000
endloop
endfacet
facet normal 0.000089 0.000000 1.000000
outer loop
vertex 0.006938 0.004231 0.150000
vertex 0.006579 0.005331 0.150000
vertex 0.005791 0.006833 0.150000
endloop
endfacet
facet normal 0.000884 0.000000 1.000000
outer loop
vertex 0.005791 0.006833 0.150000
vertex 0.005413 0.007581 0.150000
vertex 0.005338 0.007698 0.150000
endloop
endfacet
facet normal -0.000890 0.000000 1.000000
outer loop
vertex 0.005338 0.007698 0.150000
vertex 0.005253 0.007806 0.150000
vertex 0.005156 0.007906 0.150000
endloop
endfacet
facet normal 0.000000 0.000000 1.000000
outer loop
vertex 0.005156 0.007906 0.150000
vertex 0.005041 0.008000 0.150000
vertex 0.004905 0.008089 0.150000
endloop
endfacet
facet normal 0.001436 0.000000 0.999999
outer loop
vertex 0.004905 0.008089 0.150000
vertex 0.004744 0.008174 0.150000
vertex 0.004399 0.008325 0.150000
endloop
endfacet
facet normal 0.000000 0.000000 1.000000
outer loop
vertex 0.004399 0.008325 0.150000
vertex 0.004231 0.008388 0.150000
vertex 0.004064 0.008444 0.150000
endloop
endfacet
facet normal -0.000289 0.000000 1.000000
outer loop
vertex 0.004064 0.008444 0.150000
vertex 0.003737 0.008534 0.150000
vertex 0.003576 0.008569 0.150000
endloop
endfacet
facet normal 0.000000 0.000000 1.000000
outer loop
vertex 0.003576 0.008569 0.150000
vertex 0.003418 0.008597 0.150000
vertex 0.002955 0.008642 0.150000
endloop
endfacet
facet normal 0.000000 0.000000 1.000000
outer loop
vertex 0.002955 0.008642 0.150000
vertex 0.002804 0.008645 0.150000
vertex 0.001961 0.008637 0.150000
endloop
endfacet
facet normal -0.000171 0.000000 1.000000
outer loop
vertex 0.001961 0.008637 0.150000
vertex 0.001623 0.008624 0.150000
vertex 0.001467 0.008614 0.150000
endloop
endfacet
facet normal 0.000000 0.000000 1.000000
outer loop
vertex 0.001467 0.008614 0.150000
vertex 0.001323 0.008601 0.150000
vertex 0.001195 0.008585 0.150000
endloop
endfacet
facet normal -0.000236 0.000000 1.000000
outer loop
vertex 0.001195 0.008585 0.150000
vertex 0.001000 0.008543 0.150000
vertex 0.000918 0.008506 0.150000
endloop
endfacet
facet normal 0.001295 0.000000 0.999999
outer loop
vertex 0.000918 0.008506 0.150000
vertex 0.000718 0.008370 0.150000
vertex 0.000608 0.008281 0.150000
endloop
endfacet
facet normal 0.000000 0.000000 1.000000
outer loop
vertex 0.000608 0.008281 0.150000
vertex 0.000497 0.008185 0.150000
vertex 0.000388 0.008086 0.150000
endloop
endfacet
facet normal 0.000000 0.000000 1.000000
outer loop
vertex 0.000388 0.008086 0.150000
vertex 0.000286 0.007989 0.150000
vertex 0.000193 0.007899 0.150000
endloop
endfacet
facet normal 0.019367 0.000000 0.999812
outer loop
vertex 0.000193 0.007899 0.150000
vertex 0.000114 0.007821 0.150000
vertex 0.000053 0.007759 0.150000
endloop
endfacet
facet normal 0.000000 0.000000 1.000000
outer loop
vertex 0.000053 0.007759 0.150000
vertex 0.000014 0.007719 0.150000
vertex 0.000000 0.007704 0.150000
endloop
endfacet
facet normal 0.000000 0.000000 1.000000
outer loop
vertex 0.000053 0.007759 0.150000
vertex 0.000000 0.007704 0.150000
vertex 0.000030 0.007675 0.150000
endloop
endfacet
facet normal 0.000000 0.000000 1.000000
outer loop
vertex 0.000388 0.008086 0.150000
vertex 0.000193 0.007899 0.150000
vertex 0.000053 0.007759 0.150000
endloop
endfacet
facet normal -0.000332 0.000000 1.000000
outer loop
vertex 0.000918 0.008506 0.150000
vertex 0.000608 0.008281 0.150000
vertex 0.000388 0.008086 0.150000
endloop
endfacet
facet normal 0.000000 0.000000 1.000000
outer loop
vertex 0.001467 0.008614 0.150000
vertex 0.001195 0.008585 0.150000
vertex 0.000918 0.008506 0.150000
endloop
endfacet
facet normal 0.000022 0.000000 1.000000
outer loop
vertex 0.002955 0.008642 0.150000
vertex 0.001961 0.008637 0.150000
vertex 0.001467 0.008614 0.150000
endloop
endfacet
facet normal 0.000000 0.000000 1.000000
outer loop
vertex 0.004064 0.008444 0.150000
vertex 0.003576 0.008569 0.150000
vertex 0.002955 0.008642 0.150000
endloop
endfacet
facet normal 0.000000 0.000000 1.000000
outer loop
vertex 0.004905 0.008089 0.150000
vertex 0.004399 0.008325 0.150000
vertex 0.004064 0.008444 0.150000
endloop
endfacet
facet normal 0.000000 0.000000 1.000000
outer loop
vertex 0.005338 0.007698 0.150000
vertex 0.005156 0.007906 0.150000
vertex 0.004905 0.008089 0.150000
endloop
endfacet
facet normal -0.000312 0.000000 1.000000
outer loop
vertex 0.006938 0.004231 0.150000
vertex 0.005791 0.006833 0.150000
vertex 0.005338 0.007698 0.150000
endloop
endfacet
facet normal -0.000069 0.000000 1.000000
outer loop
vertex 0.006486 0.001874 0.150000
vertex 0.006930 0.003258 0.150000
vertex 0.006938 0.004231 0.150000
endloop
endfacet
facet normal -0.000726 0.000000 1.000000
outer loop
vertex 0.005835 0.001156 0.150000
vertex 0.005993 0.001299 0.150000
vertex 0.006486 0.001874 0.150000
endloop
endfacet
facet normal 0.000040 0.000000 1.000000
outer loop
vertex 0.003267 0.000204 0.150000
vertex 0.004995 0.000773 0.150000
vertex 0.005835 0.001156 0.150000
endloop
endfacet
facet normal -0.000110 0.000000 1.000000
outer loop
vertex 0.002105 0.000001 0.150000
vertex 0.002446 0.000032 0.150000
vertex 0.003267 0.000204 0.150000
endloop
endfacet
facet normal -0.000024 0.000000 1.000000
outer loop
vertex 0.001451 0.000108 0.150000
vertex 0.001832 0.000017 0.150000
vertex 0.002105 0.000001 0.150000
endloop
endfacet
facet normal -0.000827 0.000000 1.000000
outer loop
vertex 0.001207 0.000219 0.150000
vertex 0.001314 0.000161 0.150000
vertex 0.001451 0.000108 0.150000
endloop
endfacet
facet normal 0.000000 0.000000 1.000000
outer loop
vertex 0.001057 0.000350 0.150000
vertex 0.001123 0.000282 0.150000
vertex 0.001207 0.000219 0.150000
endloop
endfacet
facet normal 0.001703 0.000000 0.999999
outer loop
vertex 0.000803 0.000779 0.150000
vertex 0.001003 0.000424 0.150000
vertex 0.001057 0.000350 0.150000
endloop
endfacet
facet normal 0.000000 0.000000 1.000000
outer loop
vertex 0.000552 0.001168 0.150000
vertex 0.000596 0.001081 0.150000
vertex 0.000803 0.000779 0.150000
endloop
endfacet
facet normal -0.002440 0.000000 0.999997
outer loop
vertex 0.000498 0.001329 0.150000
vertex 0.000520 0.001250 0.150000
vertex 0.000552 0.001168 0.150000
endloop
endfacet
facet normal 0.000000 0.000000 1.000000
outer loop
vertex 0.000476 0.001488 0.150000
vertex 0.000484 0.001408 0.150000
vertex 0.000498 0.001329 0.150000
endloop
endfacet
facet normal 0.000000 0.000000 1.000000
outer loop
vertex 0.000472 0.001660 0.150000
vertex 0.000473 0.001571 0.150000
vertex 0.000476 0.001488 0.150000
endloop
endfacet
facet normal -0.011951 0.000000 0.999929
outer loop
vertex 0.000471 0.001757 0.150000
vertex 0.000472 0.001660 0.150000
vertex 0.000476 0.001488 0.150000
endloop
endfacet
facet normal 0.000707 0.000000 1.000000
outer loop
vertex 0.000476 0.001488 0.150000
vertex 0.000498 0.001329 0.150000
vertex 0.000552 0.001168 0.150000
endloop
endfacet
facet normal -0.000234 0.000000 1.000000
outer loop
vertex 0.000803 0.000779 0.150000
vertex 0.001057 0.000350 0.150000
vertex 0.001207 0.000219 0.150000
endloop
endfacet
facet normal -0.000143 0.000000 1.000000
outer loop
vertex 0.000476 0.001488 0.150000
vertex 0.000552 0.001168 0.150000
vertex 0.000803 0.000779 0.150000
endloop
endfacet
facet normal 0.000000 0.000000 1.000000
outer loop
vertex 0.000471 0.001757 0.150000
vertex 0.000476 0.001488 0.150000
vertex 0.000803 0.000779 0.150000
endloop
endfacet
facet normal -0.000040 0.000000 1.000000
outer loop
vertex 0.000803 0.000779 0.150000
vertex 0.001207 0.000219 0.150000
vertex 0.001451 0.000108 0.150000
endloop
endfacet
facet normal 0.000014 0.000000 1.000000
outer loop
vertex 0.001451 0.000108 0.150000
vertex 0.002105 0.000001 0.150000
vertex 0.003267 0.000204 0.150000
endloop
endfacet
facet normal 0.000012 0.000000 1.000000
outer loop
vertex 0.003267 0.000204 0.150000
vertex 0.005835 0.001156 0.150000
vertex 0.006486 0.001874 0.150000
endloop
endfacet
facet normal 0.000000 0.000000 1.000000
outer loop
vertex 0.006486 0.001874 0.150000
vertex 0.006938 0.004231 0.150000
vertex 0.005338 0.007698 0.150000
endloop
endfacet
facet normal -0.000041 0.000000 1.000000
outer loop
vertex 0.005338 0.007698 0.150000
vertex 0.004905 0.008089 0.150000
vertex 0.004064 0.008444 0.150000
endloop
endfacet
facet normal 0.000000 0.000000 1.000000
outer loop
vertex 0.004064 0.008444 0.150000
vertex 0.002955 0.008642 0.150000
vertex 0.001467 0.008614 0.150000
endloop
endfacet
facet normal 0.000000 0.000000 1.000000
outer loop
vertex 0.001467 0.008614 0.150000
vertex 0.000918 0.008506 0.150000
vertex 0.000388 0.008086 0.150000
endloop
endfacet
facet normal 0.000176 0.000000 1.000000
outer loop
vertex 0.000388 0.008086 0.150000
vertex 0.000053 0.007759 0.150000
vertex 0.000030 0.007675 0.150000
endloop
endfacet
facet normal -0.000174 0.000000 1.000000
outer loop
vertex 0.000388 0.008086 0.150000
vertex 0.000030 0.007675 0.150000
vertex 0.000109 0.007590 0.150000
endloop
endfacet
facet normal 0.000000 0.000000 1.000000
outer loop
vertex 0.004064 0.008444 0.150000
vertex 0.001467 0.008614 0.150000
vertex 0.000388 0.008086 0.150000
endloop
endfacet
facet normal 0.000007 0.000000 1.000000
outer loop
vertex 0.006486 0.001874 0.150000
vertex 0.005338 0.007698 0.150000
vertex 0.004064 0.008444 0.150000
endloop
endfacet
facet normal 0.000000 0.000000 1.000000
outer loop
vertex 0.001451 0.000108 0.150000
vertex 0.003267 0.000204 0.150000
vertex 0.006486 0.001874 0.150000
endloop
endfacet
facet normal -0.000035 0.000000 1.000000
outer loop
vertex 0.000471 0.001757 0.150000
vertex 0.000803 0.000779 0.150000
vertex 0.001451 0.000108 0.150000
endloop
endfacet
facet normal 0.105907 0.000000 0.994376
outer loop
vertex 0.000458 0.002101 0.150000
vertex 0.000463 0.001982 0.150000
vertex 0.000469 0.001863 0.150000
endloop
endfacet
facet normal 0.000580 0.000000 1.000000
outer loop
vertex 0.000469 0.001863 0.150000
vertex 0.000471 0.001757 0.150000
vertex 0.001451 0.000108 0.150000
endloop
endfacet
facet normal -0.000006 0.000000 1.000000
outer loop
vertex 0.001451 0.000108 0.150000
vertex 0.006486 0.001874 0.150000
vertex 0.004064 0.008444 0.150000
endloop
endfacet
facet normal 0.000000 0.000000 1.000000
outer loop
vertex 0.004064 0.008444 0.150000
vertex 0.000388 0.008086 0.150000
vertex 0.000109 0.007590 0.150000
endloop
endfacet
facet normal 0.000025 0.000000 1.000000
outer loop
vertex 0.004064 0.008444 0.150000
vertex 0.000109 0.007590 0.150000
vertex 0.000161 0.007528 0.150000
endloop
endfacet
facet normal 0.000018 0.000000 1.000000
outer loop
vertex 0.000469 0.001863 0.150000
vertex 0.001451 0.000108 0.150000
vertex 0.004064 0.008444 0.150000
endloop
endfacet
facet normal 0.000000 0.000000 1.000000
outer loop
vertex 0.000457 0.002209 0.150000
vertex 0.000458 0.002101 0.150000
vertex 0.000469 0.001863 0.150000
endloop
endfacet
facet normal 0.000129 0.000000 1.000000
outer loop
vertex 0.000717 0.004090 0.150000
vertex 0.000457 0.002209 0.150000
vertex 0.000469 0.001863 0.150000
endloop
endfacet
facet normal 0.000037 0.000000 1.000000
outer loop
vertex 0.004064 0.008444 0.150000
vertex 0.000161 0.007528 0.150000
vertex 0.000219 0.007454 0.150000
endloop
endfacet
facet normal -0.000004 0.000000 1.000000
outer loop
vertex 0.004064 0.008444 0.150000
vertex 0.000219 0.007454 0.150000
vertex 0.000343 0.007270 0.150000
endloop
endfacet
facet normal 0.000000 0.000000 1.000000
outer loop
vertex 0.000717 0.004090 0.150000
vertex 0.000469 0.001863 0.150000
vertex 0.004064 0.008444 0.150000
endloop
endfacet
facet normal 0.000000 0.000000 1.000000
outer loop
vertex 0.000722 0.004223 0.150000
vertex 0.000717 0.004090 0.150000
vertex 0.004064 0.008444 0.150000
endloop
endfacet
facet normal -0.000007 0.000000 1.000000
outer loop
vertex 0.004064 0.008444 0.150000
vertex 0.000343 0.007270 0.150000
vertex 0.000464 0.007044 0.150000
endloop
endfacet
facet normal 0.000014 0.000000 1.000000
outer loop
vertex 0.004064 0.008444 0.150000
vertex 0.000464 0.007044 0.150000
vertex 0.000517 0.006916 0.150000
endloop
endfacet
facet normal 0.000000 0.000000 1.000000
outer loop
vertex 0.000726 0.004360 0.150000
vertex 0.000722 0.004223 0.150000
vertex 0.004064 0.008444 0.150000
endloop
endfacet
facet normal 0.000000 0.000000 1.000000
outer loop
vertex 0.000728 0.004502 0.150000
vertex 0.000726 0.004360 0.150000
vertex 0.004064 0.008444 0.150000
endloop
endfacet
facet normal -0.000007 0.000000 1.000000
outer loop
vertex 0.004064 0.008444 0.150000
vertex 0.000517 0.006916 0.150000
vertex 0.000601 0.006638 0.150000
endloop
endfacet
facet normal 0.000000 0.000000 1.000000
outer loop
vertex 0.004064 0.008444 0.150000
vertex 0.000601 0.006638 0.150000
vertex 0.000659 0.006358 0.150000
endloop
endfacet
facet normal 0.000000 0.000000 1.000000
outer loop
vertex 0.000729 0.004652 0.150000
vertex 0.000728 0.004502 0.150000
vertex 0.004064 0.008444 0.150000
endloop
endfacet
facet normal 0.000000 0.000000 1.000000
outer loop
vertex 0.000729 0.005153 0.150000
vertex 0.000729 0.004652 0.150000
vertex 0.004064 0.008444 0.150000
endloop
endfacet
facet normal 0.000000 0.000000 1.000000
outer loop
vertex 0.004064 0.008444 0.150000
vertex 0.000659 0.006358 0.150000
vertex 0.000717 0.005784 0.150000
endloop
endfacet
facet normal 0.000028 0.000000 1.000000
outer loop
vertex 0.004064 0.008444 0.150000
vertex 0.000717 0.005784 0.150000
vertex 0.000723 0.005634 0.150000
endloop
endfacet
facet normal 0.000000 0.000000 1.000000
outer loop
vertex 0.000729 0.005318 0.150000
vertex 0.000729 0.005153 0.150000
vertex 0.004064 0.008444 0.150000
endloop
endfacet
facet normal 0.000007 0.000000 1.000000
outer loop
vertex 0.004064 0.008444 0.150000
vertex 0.000723 0.005634 0.150000
vertex 0.000727 0.005479 0.150000
endloop
endfacet
facet normal -0.000061 0.000000 1.000000
outer loop
vertex 0.004064 0.008444 0.150000
vertex 0.000727 0.005479 0.150000
vertex 0.000729 0.005318 0.150000
endloop
endfacet
facet normal 0.999960 -0.008890 0.000000
outer loop
vertex 0.006956 0.003661 0.000000
vertex 0.006958 0.003858 0.000000
vertex 0.006958 0.003858 0.150000
endloop
endfacet
facet normal 0.999960 -0.008898 0.000000
outer loop
vertex 0.006956 0.003661 0.000000
vertex 0.006958 0.003858 0.150000
vertex 0.006956 0.003661 0.150000
endloop
endfacet
facet normal 0.998939 -0.046063 0.000000
outer loop
vertex 0.006947 0.003460 0.000000
vertex 0.006956 0.003661 0.000000
vertex 0.006956 0.003661 0.150000
endloop
endfacet
facet normal 0.998939 -0.046063 0.000000
outer loop
vertex 0.006947 0.003460 0.000000
vertex 0.006956 0.003661 0.150000
vertex 0.006947 0.003460 0.150000
endloop
endfacet
facet normal 0.993067 -0.117547 0.000000
outer loop
vertex 0.006906 0.003055 0.150000
vertex 0.006906 0.003055 0.000000
vertex 0.006930 0.003258 0.000000
endloop
endfacet
facet normal 0.996638 -0.081932 0.000000
outer loop
vertex 0.006930 0.003258 0.000000
vertex 0.006947 0.003460 0.000000
vertex 0.006947 0.003460 0.150000
endloop
endfacet
facet normal 0.993067 -0.117547 0.000000
outer loop
vertex 0.006930 0.003258 0.150000
vertex 0.006906 0.003055 0.150000
vertex 0.006930 0.003258 0.000000
endloop
endfacet
facet normal 0.996638 -0.081925 0.000000
outer loop
vertex 0.006947 0.003460 0.150000
vertex 0.006930 0.003258 0.150000
vertex 0.006930 0.003258 0.000000
endloop
endfacet
facet normal 0.979741 -0.200268 0.000000
outer loop
vertex 0.006788 0.002477 0.000000
vertex 0.006906 0.003055 0.000000
vertex 0.006906 0.003055 0.150000
endloop
endfacet
facet normal 0.979742 -0.200266 0.000000
outer loop
vertex 0.006788 0.002477 0.000000
vertex 0.006906 0.003055 0.150000
vertex 0.006788 0.002477 0.150000
endloop
endfacet
facet normal 0.839804 0.542889 0.000000
outer loop
vertex 0.005413 0.007581 0.150000
vertex 0.005413 0.007581 0.000000
vertex 0.005338 0.007698 0.000000
endloop
endfacet
facet normal 0.839804 0.542889 0.000000
outer loop
vertex 0.005413 0.007581 0.150000
vertex 0.005338 0.007698 0.000000
vertex 0.005338 0.007698 0.150000
endloop
endfacet
facet normal -0.562136 0.827045 0.000000
outer loop
vertex 0.000918 0.008506 0.000000
vertex 0.000718 0.008370 0.000000
vertex 0.000718 0.008370 0.150000
endloop
endfacet
facet normal -0.562136 0.827045 0.000000
outer loop
vertex 0.000918 0.008506 0.000000
vertex 0.000718 0.008370 0.150000
vertex 0.000918 0.008506 0.150000
endloop
endfacet
facet normal 0.000000 0.000000 -1.000000
outer loop
vertex 0.000469 0.001863 0.000000
vertex 0.000471 0.001757 0.000000
vertex 0.000472 0.001660 0.000000
endloop
endfacet
facet normal 0.000000 0.000000 -1.000000
outer loop
vertex 0.000469 0.001863 0.000000
vertex 0.000472 0.001660 0.000000
vertex 0.000473 0.001571 0.000000
endloop
endfacet
facet normal 0.000000 0.000000 -1.000000
outer loop
vertex 0.000463 0.001982 0.000000
vertex 0.000469 0.001863 0.000000
vertex 0.000473 0.001571 0.000000
endloop
endfacet
facet normal -0.995516 -0.094592 0.000000
outer loop
vertex 0.000476 0.001488 0.000000
vertex 0.000484 0.001408 0.000000
vertex 0.000484 0.001408 0.150000
endloop
endfacet
facet normal 0.000000 0.000000 -1.000000
outer loop
vertex 0.000458 0.002101 0.000000
vertex 0.000463 0.001982 0.000000
vertex 0.000473 0.001571 0.000000
endloop
endfacet
facet normal -0.999205 -0.039860 0.000029
outer loop
vertex 0.000473 0.001571 0.000000
vertex 0.000476 0.001488 0.000000
vertex 0.000484 0.001408 0.150000
endloop
endfacet
facet normal -0.995516 -0.094592 -0.000031
outer loop
vertex 0.000473 0.001571 0.000000
vertex 0.000484 0.001408 0.150000
vertex 0.000476 0.001488 0.150000
endloop
endfacet
facet normal -0.999988 -0.004946 0.000000
outer loop
vertex 0.000457 0.002209 0.150000
vertex 0.000457 0.002209 0.000000
vertex 0.000458 0.002101 0.000000
endloop
endfacet
facet normal -0.999572 -0.029242 0.000006
outer loop
vertex 0.000458 0.002101 0.000000
vertex 0.000473 0.001571 0.000000
vertex 0.000476 0.001488 0.150000
endloop
endfacet
facet normal -0.999205 -0.039859 -0.000037
outer loop
vertex 0.000458 0.002101 0.000000
vertex 0.000476 0.001488 0.150000
vertex 0.000473 0.001571 0.150000
endloop
endfacet
facet normal -0.999988 -0.004946 0.000000
outer loop
vertex 0.000458 0.002101 0.150000
vertex 0.000457 0.002209 0.150000
vertex 0.000458 0.002101 0.000000
endloop
endfacet
facet normal -0.998884 -0.047220 0.000000
outer loop
vertex 0.000463 0.001982 0.150000
vertex 0.000458 0.002101 0.150000
vertex 0.000458 0.002101 0.000000
endloop
endfacet
facet normal -0.999934 -0.011463 0.000063
outer loop
vertex 0.000458 0.002101 0.000000
vertex 0.000473 0.001571 0.150000
vertex 0.000472 0.001660 0.150000
endloop
endfacet
facet normal -0.999976 -0.006973 0.000076
outer loop
vertex 0.000458 0.002101 0.000000
vertex 0.000472 0.001660 0.150000
vertex 0.000471 0.001757 0.150000
endloop
endfacet
facet normal -0.998767 -0.049643 -0.000002
outer loop
vertex 0.000469 0.001863 0.150000
vertex 0.000463 0.001982 0.150000
vertex 0.000458 0.002101 0.000000
endloop
endfacet
facet normal -0.999768 -0.021538 0.000043
outer loop
vertex 0.000471 0.001757 0.150000
vertex 0.000469 0.001863 0.150000
vertex 0.000458 0.002101 0.000000
endloop
endfacet
facet normal 0.605311 -0.795989 0.000000
outer loop
vertex 0.005835 0.001156 0.150000
vertex 0.005835 0.001156 0.000000
vertex 0.005938 0.001234 0.000000
endloop
endfacet
facet normal 0.605311 -0.795989 0.000000
outer loop
vertex 0.005835 0.001156 0.150000
vertex 0.005938 0.001234 0.000000
vertex 0.005938 0.001234 0.150000
endloop
endfacet
facet normal -0.824748 -0.565501 0.000000
outer loop
vertex 0.000596 0.001081 0.000000
vertex 0.000803 0.000779 0.000000
vertex 0.000803 0.000779 0.150000
endloop
endfacet
facet normal -0.824748 -0.565501 0.000000
outer loop
vertex 0.000596 0.001081 0.000000
vertex 0.000803 0.000779 0.150000
vertex 0.000596 0.001081 0.150000
endloop
endfacet
facet normal 0.414935 -0.909851 0.000000
outer loop
vertex 0.004995 0.000773 0.150000
vertex 0.004995 0.000773 0.000000
vertex 0.005835 0.001156 0.000000
endloop
endfacet
facet normal 0.414935 -0.909851 0.000000
outer loop
vertex 0.004995 0.000773 0.150000
vertex 0.005835 0.001156 0.000000
vertex 0.005835 0.001156 0.150000
endloop
endfacet
facet normal -0.882764 -0.469816 0.000000
outer loop
vertex 0.000343 0.007270 0.000000
vertex 0.000464 0.007044 0.000000
vertex 0.000464 0.007044 0.150000
endloop
endfacet
facet normal -0.882764 -0.469816 0.000000
outer loop
vertex 0.000343 0.007270 0.000000
vertex 0.000464 0.007044 0.150000
vertex 0.000343 0.007270 0.150000
endloop
endfacet
facet normal -0.414639 0.909986 0.000000
outer loop
vertex 0.001000 0.008543 0.150000
vertex 0.001000 0.008543 0.000000
vertex 0.000918 0.008506 0.000000
endloop
endfacet
facet normal -0.414640 0.909985 0.000000
outer loop
vertex 0.001000 0.008543 0.150000
vertex 0.000918 0.008506 0.000000
vertex 0.000918 0.008506 0.150000
endloop
endfacet
facet normal 0.318193 0.948026 0.000000
outer loop
vertex 0.004231 0.008388 0.000000
vertex 0.004064 0.008444 0.000000
vertex 0.004064 0.008444 0.150000
endloop
endfacet
facet normal 0.318190 0.948027 0.000000
outer loop
vertex 0.004231 0.008388 0.000000
vertex 0.004064 0.008444 0.150000
vertex 0.004231 0.008388 0.150000
endloop
endfacet
facet normal 0.399737 0.916630 0.000000
outer loop
vertex 0.004744 0.008174 0.150000
vertex 0.004744 0.008174 0.000000
vertex 0.004399 0.008325 0.000000
endloop
endfacet
facet normal 0.351754 0.936093 0.000000
outer loop
vertex 0.004399 0.008325 0.000000
vertex 0.004231 0.008388 0.000000
vertex 0.004231 0.008388 0.150000
endloop
endfacet
facet normal 0.399739 0.916629 0.000000
outer loop
vertex 0.004399 0.008325 0.150000
vertex 0.004744 0.008174 0.150000
vertex 0.004399 0.008325 0.000000
endloop
endfacet
facet normal 0.351752 0.936093 0.000000
outer loop
vertex 0.004231 0.008388 0.150000
vertex 0.004399 0.008325 0.150000
vertex 0.004399 0.008325 0.000000
endloop
endfacet
facet normal 0.924747 -0.380582 0.000000
outer loop
vertex 0.006653 0.002150 0.150000
vertex 0.006653 0.002150 0.000000
vertex 0.006788 0.002477 0.000000
endloop
endfacet
facet normal 0.924746 -0.380585 0.000000
outer loop
vertex 0.006653 0.002150 0.150000
vertex 0.006788 0.002477 0.000000
vertex 0.006788 0.002477 0.150000
endloop
endfacet
facet normal -0.979244 -0.202684 0.000000
outer loop
vertex 0.000601 0.006638 0.150000
vertex 0.000601 0.006638 0.000000
vertex 0.000659 0.006358 0.000000
endloop
endfacet
facet normal -0.979244 -0.202684 0.000000
outer loop
vertex 0.000601 0.006638 0.150000
vertex 0.000659 0.006358 0.000000
vertex 0.000659 0.006358 0.150000
endloop
endfacet
facet normal -0.990592 0.136850 0.000000
outer loop
vertex 0.000717 0.004090 0.000000
vertex 0.000457 0.002209 0.000000
vertex 0.000457 0.002209 0.150000
endloop
endfacet
facet normal -0.990592 0.136850 0.000000
outer loop
vertex 0.000717 0.004090 0.000000
vertex 0.000457 0.002209 0.150000
vertex 0.000717 0.004090 0.150000
endloop
endfacet
facet normal -0.234327 -0.972158 0.000000
outer loop
vertex 0.001451 0.000108 0.000000
vertex 0.001832 0.000017 0.000000
vertex 0.001832 0.000017 0.150000
endloop
endfacet
facet normal -0.234326 -0.972158 0.000000
outer loop
vertex 0.001451 0.000108 0.000000
vertex 0.001832 0.000017 0.150000
vertex 0.001451 0.000108 0.150000
endloop
endfacet
facet normal -0.599573 -0.800320 0.000000
outer loop
vertex 0.001123 0.000282 0.150000
vertex 0.001123 0.000282 0.000000
vertex 0.001207 0.000219 0.000000
endloop
endfacet
facet normal -0.599574 -0.800319 0.000000
outer loop
vertex 0.001123 0.000282 0.150000
vertex 0.001207 0.000219 0.000000
vertex 0.001207 0.000219 0.150000
endloop
endfacet
facet normal -0.211039 0.977478 0.000000
outer loop
vertex 0.001195 0.008585 0.150000
vertex 0.001195 0.008585 0.000000
vertex 0.001000 0.008543 0.000000
endloop
endfacet
facet normal -0.211040 0.977477 0.000000
outer loop
vertex 0.001195 0.008585 0.150000
vertex 0.001000 0.008543 0.000000
vertex 0.001000 0.008543 0.150000
endloop
endfacet
facet normal 0.998633 0.052275 0.000000
outer loop
vertex 0.006958 0.003858 0.000000
vertex 0.006938 0.004231 0.000000
vertex 0.006938 0.004231 0.150000
endloop
endfacet
facet normal 0.998633 0.052279 0.000000
outer loop
vertex 0.006958 0.003858 0.000000
vertex 0.006938 0.004231 0.150000
vertex 0.006958 0.003858 0.150000
endloop
endfacet
facet normal 0.856136 -0.516751 0.000000
outer loop
vertex 0.006486 0.001874 0.150000
vertex 0.006486 0.001874 0.000000
vertex 0.006653 0.002150 0.000000
endloop
endfacet
facet normal 0.856135 -0.516752 0.000000
outer loop
vertex 0.006486 0.001874 0.150000
vertex 0.006653 0.002150 0.000000
vertex 0.006653 0.002150 0.150000
endloop
endfacet
facet normal 0.000000 0.000000 -1.000000
outer loop
vertex 0.000000 0.007704 0.000000
vertex 0.000030 0.007675 0.000000
vertex 0.000109 0.007590 0.000000
endloop
endfacet
facet normal 0.000000 0.000000 -1.000000
outer loop
vertex 0.000109 0.007590 0.000000
vertex 0.000161 0.007528 0.000000
vertex 0.000219 0.007454 0.000000
endloop
endfacet
facet normal -0.788848 -0.614588 0.000000
outer loop
vertex 0.000219 0.007454 0.000000
vertex 0.000219 0.007454 0.150000
vertex 0.000161 0.007528 0.150000
endloop
endfacet
facet normal -0.764623 -0.644477 0.000024
outer loop
vertex 0.000219 0.007454 0.000000
vertex 0.000161 0.007528 0.150000
vertex 0.000109 0.007590 0.150000
endloop
endfacet
facet normal 0.000000 0.000000 -1.000000
outer loop
vertex 0.000000 0.007704 0.000000
vertex 0.000109 0.007590 0.000000
vertex 0.000219 0.007454 0.000000
endloop
endfacet
facet normal -0.696170 -0.717877 0.000000
outer loop
vertex 0.000030 0.007675 0.150000
vertex 0.000000 0.007704 0.150000
vertex 0.000000 0.007704 0.000000
endloop
endfacet
facet normal -0.732695 -0.680557 0.000080
outer loop
vertex 0.000219 0.007454 0.000000
vertex 0.000109 0.007590 0.150000
vertex 0.000030 0.007675 0.150000
endloop
endfacet
facet normal -0.752546 -0.658539 0.000023
outer loop
vertex 0.000219 0.007454 0.000000
vertex 0.000030 0.007675 0.150000
vertex 0.000000 0.007704 0.000000
endloop
endfacet
facet normal 0.804184 -0.594380 0.000000
outer loop
vertex 0.006397 0.001753 0.000000
vertex 0.006486 0.001874 0.000000
vertex 0.006486 0.001874 0.150000
endloop
endfacet
facet normal 0.804187 -0.594377 0.000000
outer loop
vertex 0.006397 0.001753 0.000000
vertex 0.006486 0.001874 0.150000
vertex 0.006397 0.001753 0.150000
endloop
endfacet
facet normal 0.000000 0.000000 -1.000000
outer loop
vertex 0.005938 0.001234 0.000000
vertex 0.005993 0.001299 0.000000
vertex 0.006307 0.001643 0.000000
endloop
endfacet
facet normal 0.774475 -0.632604 0.000000
outer loop
vertex 0.006307 0.001643 0.000000
vertex 0.006397 0.001753 0.000000
vertex 0.006397 0.001753 0.150000
endloop
endfacet
facet normal 0.774478 -0.632601 0.000000
outer loop
vertex 0.006307 0.001643 0.000000
vertex 0.006397 0.001753 0.150000
vertex 0.006307 0.001643 0.150000
endloop
endfacet
facet normal 0.741929 -0.670478 0.000000
outer loop
vertex 0.005938 0.001234 0.150000
vertex 0.005938 0.001234 0.000000
vertex 0.006307 0.001643 0.000000
endloop
endfacet
facet normal 0.737817 -0.675000 0.000000
outer loop
vertex 0.006307 0.001643 0.000000
vertex 0.006307 0.001643 0.150000
vertex 0.005993 0.001299 0.150000
endloop
endfacet
facet normal 0.763976 -0.645244 0.000123
outer loop
vertex 0.005993 0.001299 0.150000
vertex 0.005938 0.001234 0.150000
vertex 0.006307 0.001643 0.000000
endloop
endfacet
facet normal -0.890894 -0.454211 0.000000
outer loop
vertex 0.000552 0.001168 0.150000
vertex 0.000552 0.001168 0.000000
vertex 0.000596 0.001081 0.000000
endloop
endfacet
facet normal -0.890894 -0.454211 0.000000
outer loop
vertex 0.000552 0.001168 0.150000
vertex 0.000596 0.001081 0.000000
vertex 0.000596 0.001081 0.150000
endloop
endfacet
facet normal 0.939735 0.341903 0.000000
outer loop
vertex 0.006850 0.004705 0.150000
vertex 0.006850 0.004705 0.000000
vertex 0.006804 0.004831 0.000000
endloop
endfacet
facet normal 0.939735 0.341903 0.000000
outer loop
vertex 0.006850 0.004705 0.150000
vertex 0.006804 0.004831 0.000000
vertex 0.006804 0.004831 0.150000
endloop
endfacet
facet normal -0.718614 -0.695409 0.000000
outer loop
vertex 0.001057 0.000350 0.150000
vertex 0.001057 0.000350 0.000000
vertex 0.001123 0.000282 0.000000
endloop
endfacet
facet normal -0.718616 -0.695407 0.000000
outer loop
vertex 0.001057 0.000350 0.150000
vertex 0.001123 0.000282 0.000000
vertex 0.001123 0.000282 0.150000
endloop
endfacet
facet normal -0.984862 -0.173337 0.000000
outer loop
vertex 0.000484 0.001408 0.150000
vertex 0.000484 0.001408 0.000000
vertex 0.000498 0.001329 0.000000
endloop
endfacet
facet normal -0.984862 -0.173337 0.000000
outer loop
vertex 0.000484 0.001408 0.150000
vertex 0.000498 0.001329 0.000000
vertex 0.000498 0.001329 0.150000
endloop
endfacet
facet normal 0.090785 -0.995870 0.000000
outer loop
vertex 0.002105 0.000001 0.150000
vertex 0.002105 0.000001 0.000000
vertex 0.002446 0.000032 0.000000
endloop
endfacet
facet normal 0.090785 -0.995870 0.000000
outer loop
vertex 0.002105 0.000001 0.150000
vertex 0.002446 0.000032 0.000000
vertex 0.002446 0.000032 0.150000
endloop
endfacet
facet normal 0.204878 -0.978787 0.000000
outer loop
vertex 0.002446 0.000032 0.150000
vertex 0.002446 0.000032 0.000000
vertex 0.003267 0.000204 0.000000
endloop
endfacet
facet normal 0.204878 -0.978787 0.000000
outer loop
vertex 0.002446 0.000032 0.150000
vertex 0.003267 0.000204 0.000000
vertex 0.003267 0.000204 0.150000
endloop
endfacet
facet normal 0.988268 0.152726 0.000000
outer loop
vertex 0.006938 0.004231 0.150000
vertex 0.006938 0.004231 0.000000
vertex 0.006887 0.004561 0.000000
endloop
endfacet
facet normal 0.988268 0.152731 0.000000
outer loop
vertex 0.006938 0.004231 0.150000
vertex 0.006887 0.004561 0.000000
vertex 0.006887 0.004561 0.150000
endloop
endfacet
facet normal -0.994910 -0.100770 0.000000
outer loop
vertex 0.000717 0.005784 0.000000
vertex 0.000717 0.005784 0.150000
vertex 0.000659 0.006358 0.150000
endloop
endfacet
facet normal -0.994910 -0.100770 0.000000
outer loop
vertex 0.000717 0.005784 0.000000
vertex 0.000659 0.006358 0.150000
vertex 0.000659 0.006358 0.000000
endloop
endfacet
facet normal -0.361704 -0.932293 0.000000
outer loop
vertex 0.001314 0.000161 0.150000
vertex 0.001314 0.000161 0.000000
vertex 0.001451 0.000108 0.000000
endloop
endfacet
facet normal -0.361704 -0.932293 0.000000
outer loop
vertex 0.001314 0.000161 0.150000
vertex 0.001451 0.000108 0.000000
vertex 0.001451 0.000108 0.150000
endloop
endfacet
facet normal 0.787550 0.616251 0.000000
outer loop
vertex 0.005338 0.007698 0.150000
vertex 0.005338 0.007698 0.000000
vertex 0.005253 0.007806 0.000000
endloop
endfacet
facet normal 0.787555 0.616244 0.000000
outer loop
vertex 0.005338 0.007698 0.150000
vertex 0.005253 0.007806 0.000000
vertex 0.005253 0.007806 0.150000
endloop
endfacet
facet normal -0.809084 -0.587692 0.000000
outer loop
vertex 0.001003 0.000424 0.150000
vertex 0.001003 0.000424 0.000000
vertex 0.001057 0.000350 0.000000
endloop
endfacet
facet normal -0.809085 -0.587691 0.000000
outer loop
vertex 0.001003 0.000424 0.150000
vertex 0.001057 0.000350 0.000000
vertex 0.001057 0.000350 0.150000
endloop
endfacet
facet normal 0.717414 0.696647 0.000000
outer loop
vertex 0.005253 0.007806 0.150000
vertex 0.005253 0.007806 0.000000
vertex 0.005156 0.007906 0.000000
endloop
endfacet
facet normal 0.717414 0.696647 0.000000
outer loop
vertex 0.005253 0.007806 0.150000
vertex 0.005156 0.007906 0.000000
vertex 0.005156 0.007906 0.150000
endloop
endfacet
facet normal -0.922686 -0.385553 0.000000
outer loop
vertex 0.000464 0.007044 0.150000
vertex 0.000464 0.007044 0.000000
vertex 0.000517 0.006916 0.000000
endloop
endfacet
facet normal -0.922685 -0.385554 0.000000
outer loop
vertex 0.000464 0.007044 0.150000
vertex 0.000517 0.006916 0.000000
vertex 0.000517 0.006916 0.150000
endloop
endfacet
facet normal -0.963505 -0.267691 0.000000
outer loop
vertex 0.000498 0.001329 0.150000
vertex 0.000498 0.001329 0.000000
vertex 0.000520 0.001250 0.000000
endloop
endfacet
facet normal -0.963504 -0.267692 0.000000
outer loop
vertex 0.000498 0.001329 0.150000
vertex 0.000520 0.001250 0.000000
vertex 0.000520 0.001250 0.150000
endloop
endfacet
facet normal 0.967283 0.253700 0.000000
outer loop
vertex 0.006887 0.004561 0.150000
vertex 0.006887 0.004561 0.000000
vertex 0.006850 0.004705 0.000000
endloop
endfacet
facet normal 0.967281 0.253709 0.000000
outer loop
vertex 0.006887 0.004561 0.150000
vertex 0.006850 0.004705 0.000000
vertex 0.006850 0.004705 0.150000
endloop
endfacet
facet normal 0.466552 0.884494 0.000000
outer loop
vertex 0.004905 0.008089 0.150000
vertex 0.004905 0.008089 0.000000
vertex 0.004744 0.008174 0.000000
endloop
endfacet
facet normal 0.466552 0.884494 0.000000
outer loop
vertex 0.004905 0.008089 0.150000
vertex 0.004744 0.008174 0.000000
vertex 0.004744 0.008174 0.150000
endloop
endfacet
facet normal 0.312793 -0.949821 0.000000
outer loop
vertex 0.003267 0.000204 0.000000
vertex 0.004995 0.000773 0.000000
vertex 0.004995 0.000773 0.150000
endloop
endfacet
facet normal 0.312793 -0.949821 0.000000
outer loop
vertex 0.003267 0.000204 0.000000
vertex 0.004995 0.000773 0.150000
vertex 0.003267 0.000204 0.150000
endloop
endfacet
facet normal -0.930945 -0.365159 0.000000
outer loop
vertex 0.000520 0.001250 0.150000
vertex 0.000520 0.001250 0.000000
vertex 0.000552 0.001168 0.000000
endloop
endfacet
facet normal -0.930946 -0.365158 0.000000
outer loop
vertex 0.000520 0.001250 0.150000
vertex 0.000552 0.001168 0.000000
vertex 0.000552 0.001168 0.150000
endloop
endfacet
facet normal -0.828461 -0.560046 0.000000
outer loop
vertex 0.000219 0.007454 0.150000
vertex 0.000219 0.007454 0.000000
vertex 0.000343 0.007270 0.000000
endloop
endfacet
facet normal -0.828461 -0.560046 0.000000
outer loop
vertex 0.000219 0.007454 0.150000
vertex 0.000343 0.007270 0.000000
vertex 0.000343 0.007270 0.150000
endloop
endfacet
facet normal 0.096969 0.995287 0.000000
outer loop
vertex 0.003418 0.008597 0.000000
vertex 0.002955 0.008642 0.000000
vertex 0.002955 0.008642 0.150000
endloop
endfacet
facet normal 0.096969 0.995287 0.000000
outer loop
vertex 0.003418 0.008597 0.000000
vertex 0.002955 0.008642 0.150000
vertex 0.003418 0.008597 0.150000
endloop
endfacet
facet normal -0.871306 -0.490739 0.000000
outer loop
vertex 0.000803 0.000779 0.000000
vertex 0.001003 0.000424 0.000000
vertex 0.001003 0.000424 0.150000
endloop
endfacet
facet normal -0.871306 -0.490740 0.000000
outer loop
vertex 0.000803 0.000779 0.000000
vertex 0.001003 0.000424 0.150000
vertex 0.000803 0.000779 0.150000
endloop
endfacet
facet normal -0.473852 -0.880604 0.000000
outer loop
vertex 0.001207 0.000219 0.150000
vertex 0.001207 0.000219 0.000000
vertex 0.001314 0.000161 0.000000
endloop
endfacet
facet normal -0.473851 -0.880605 0.000000
outer loop
vertex 0.001207 0.000219 0.150000
vertex 0.001314 0.000161 0.000000
vertex 0.001314 0.000161 0.150000
endloop
endfacet
facet normal -0.956967 -0.290197 0.000000
outer loop
vertex 0.000517 0.006916 0.150000
vertex 0.000517 0.006916 0.000000
vertex 0.000601 0.006638 0.000000
endloop
endfacet
facet normal -0.956967 -0.290197 0.000000
outer loop
vertex 0.000517 0.006916 0.150000
vertex 0.000601 0.006638 0.000000
vertex 0.000601 0.006638 0.150000
endloop
endfacet
endsolid Exported from Blender-3.6.8
