solid Exported from Blender-3.6.8
facet normal 0.035858 -0.999357 0.000000
outer loop
vertex 0.001852 0.000001 0.150000
vertex 0.001852 0.000001 0.000000
vertex 0.002350 0.000019 0.000000
endloop
endfacet
facet normal 0.035858 -0.999357 0.000000
outer loop
vertex 0.001852 0.000001 0.150000
vertex 0.002350 0.000019 0.000000
vertex 0.002350 0.000019 0.150000
endloop
endfacet
facet normal -0.116966 0.993136 0.000000
outer loop
vertex 0.004551 0.010300 0.150000
vertex 0.004551 0.010300 0.000000
vertex 0.004052 0.010241 0.000000
endloop
endfacet
facet normal -0.116966 0.993136 0.000000
outer loop
vertex 0.004551 0.010300 0.150000
vertex 0.004052 0.010241 0.000000
vertex 0.004052 0.010241 0.150000
endloop
endfacet
facet normal 0.612949 0.790123 0.000000
outer loop
vertex 0.006319 0.010052 0.150000
vertex 0.006319 0.010052 0.000000
vertex 0.006181 0.010159 0.000000
endloop
endfacet
facet normal 0.612949 0.790123 0.000000
outer loop
vertex 0.006319 0.010052 0.150000
vertex 0.006181 0.010159 0.000000
vertex 0.006181 0.010159 0.150000
endloop
endfacet
facet normal 0.742882 0.669422 0.000000
outer loop
vertex 0.006438 0.009920 0.150000
vertex 0.006438 0.009920 0.000000
vertex 0.006319 0.010052 0.000000
endloop
endfacet
facet normal 0.742880 0.669425 0.000000
outer loop
vertex 0.006438 0.009920 0.150000
vertex 0.006319 0.010052 0.000000
vertex 0.006319 0.010052 0.150000
endloop
endfacet
facet normal 0.991354 0.131218 0.000000
outer loop
vertex 0.008665 0.004375 0.000000
vertex 0.008620 0.004710 0.000000
vertex 0.008620 0.004710 0.150000
endloop
endfacet
facet normal 0.991354 0.131218 0.000000
outer loop
vertex 0.008665 0.004375 0.000000
vertex 0.008620 0.004710 0.150000
vertex 0.008665 0.004375 0.150000
endloop
endfacet
facet normal -0.212617 0.977136 0.000000
outer loop
vertex 0.004052 0.010241 0.150000
vertex 0.004052 0.010241 0.000000
vertex 0.003590 0.010141 0.000000
endloop
endfacet
facet normal -0.212616 0.977136 0.000000
outer loop
vertex 0.004052 0.010241 0.150000
vertex 0.003590 0.010141 0.000000
vertex 0.003590 0.010141 0.150000
endloop
endfacet
facet normal 0.756175 -0.654369 0.000000
outer loop
vertex 0.008413 0.002616 0.000000
vertex 0.008472 0.002684 0.000000
vertex 0.008472 0.002684 0.150000
endloop
endfacet
facet normal 0.756184 -0.654360 0.000000
outer loop
vertex 0.008413 0.002616 0.000000
vertex 0.008472 0.002684 0.150000
vertex 0.008413 0.002616 0.150000
endloop
endfacet
facet normal 0.000000 0.000000 -1.000000
outer loop
vertex 0.008198 0.002383 0.000000
vertex 0.008275 0.002471 0.000000
vertex 0.008413 0.002616 0.000000
endloop
endfacet
facet normal 0.752097 -0.659052 0.000000
outer loop
vertex 0.008275 0.002471 0.150000
vertex 0.008198 0.002383 0.150000
vertex 0.008198 0.002383 0.000000
endloop
endfacet
facet normal 0.723588 -0.690232 0.000000
outer loop
vertex 0.008413 0.002616 0.000000
vertex 0.008413 0.002616 0.150000
vertex 0.008275 0.002471 0.150000
endloop
endfacet
facet normal 0.734276 -0.678851 0.000021
outer loop
vertex 0.008413 0.002616 0.000000
vertex 0.008275 0.002471 0.150000
vertex 0.008198 0.002383 0.000000
endloop
endfacet
facet normal -0.949321 0.314309 0.000000
outer loop
vertex 0.001098 0.008083 0.000000
vertex 0.000685 0.006835 0.000000
vertex 0.000685 0.006835 0.150000
endloop
endfacet
facet normal -0.949321 0.314309 0.000000
outer loop
vertex 0.001098 0.008083 0.000000
vertex 0.000685 0.006835 0.150000
vertex 0.001098 0.008083 0.150000
endloop
endfacet
facet normal -0.097766 -0.995209 0.000000
outer loop
vertex 0.001436 0.000042 0.150000
vertex 0.001436 0.000042 0.000000
vertex 0.001852 0.000001 0.000000
endloop
endfacet
facet normal -0.097766 -0.995209 0.000000
outer loop
vertex 0.001436 0.000042 0.150000
vertex 0.001852 0.000001 0.000000
vertex 0.001852 0.000001 0.150000
endloop
endfacet
facet normal 0.000000 0.000000 1.000000
outer loop
vertex 0.006973 0.008937 0.000000
vertex 0.006644 0.009588 0.000000
vertex 0.006544 0.009765 0.000000
endloop
endfacet
facet normal 0.870764 0.491701 0.000000
outer loop
vertex 0.006544 0.009765 0.000000
vertex 0.006544 0.009765 0.150000
vertex 0.006644 0.009588 0.150000
endloop
endfacet
facet normal 0.892151 0.451738 -0.000062
outer loop
vertex 0.006544 0.009765 0.000000
vertex 0.006644 0.009588 0.150000
vertex 0.006973 0.008937 0.150000
endloop
endfacet
facet normal 0.887635 0.460547 0.000000
outer loop
vertex 0.006973 0.008937 0.000000
vertex 0.006544 0.009765 0.000000
vertex 0.006973 0.008937 0.150000
endloop
endfacet
facet normal 0.872087 0.489351 0.000000
outer loop
vertex 0.006973 0.008937 0.000000
vertex 0.006973 0.008937 0.150000
vertex 0.007114 0.008686 0.150000
endloop
endfacet
facet normal 0.872087 0.489351 0.000000
outer loop
vertex 0.007114 0.008686 0.000000
vertex 0.006973 0.008937 0.000000
vertex 0.007114 0.008686 0.150000
endloop
endfacet
facet normal 0.846429 0.532501 0.000000
outer loop
vertex 0.007114 0.008686 0.000000
vertex 0.007114 0.008686 0.150000
vertex 0.007282 0.008419 0.150000
endloop
endfacet
facet normal 0.000000 0.000000 1.000000
outer loop
vertex 0.007583 0.007944 0.000000
vertex 0.007448 0.008165 0.000000
vertex 0.007282 0.008419 0.000000
endloop
endfacet
facet normal 0.846431 0.532498 0.000000
outer loop
vertex 0.007282 0.008419 0.000000
vertex 0.007114 0.008686 0.000000
vertex 0.007282 0.008419 0.150000
endloop
endfacet
facet normal 0.837474 0.546477 0.000000
outer loop
vertex 0.007282 0.008419 0.000000
vertex 0.007282 0.008419 0.150000
vertex 0.007448 0.008165 0.150000
endloop
endfacet
facet normal 0.000000 0.000000 1.000000
outer loop
vertex 0.007692 0.007748 0.000000
vertex 0.007583 0.007944 0.000000
vertex 0.007282 0.008419 0.000000
endloop
endfacet
facet normal 0.897598 0.440814 0.000000
outer loop
vertex 0.007780 0.007569 0.150000
vertex 0.007780 0.007569 0.000000
vertex 0.007692 0.007748 0.000000
endloop
endfacet
facet normal 0.897601 0.440808 0.000000
outer loop
vertex 0.007692 0.007748 0.150000
vertex 0.007780 0.007569 0.150000
vertex 0.007692 0.007748 0.000000
endloop
endfacet
facet normal 0.853614 0.520906 -0.000061
outer loop
vertex 0.007692 0.007748 0.000000
vertex 0.007282 0.008419 0.000000
vertex 0.007448 0.008165 0.150000
endloop
endfacet
facet normal 0.874184 0.485595 0.000000
outer loop
vertex 0.007583 0.007944 0.150000
vertex 0.007692 0.007748 0.150000
vertex 0.007692 0.007748 0.000000
endloop
endfacet
facet normal 0.853670 0.520814 -0.000061
outer loop
vertex 0.007448 0.008165 0.150000
vertex 0.007583 0.007944 0.150000
vertex 0.007692 0.007748 0.000000
endloop
endfacet
facet normal 0.298486 -0.954414 0.000000
outer loop
vertex 0.006578 0.000754 0.000000
vertex 0.006578 0.000754 0.150000
vertex 0.006276 0.000660 0.150000
endloop
endfacet
facet normal 0.298486 -0.954414 0.000000
outer loop
vertex 0.006578 0.000754 0.000000
vertex 0.006276 0.000660 0.150000
vertex 0.006276 0.000660 0.000000
endloop
endfacet
facet normal -0.239863 -0.970807 0.000000
outer loop
vertex 0.001257 0.000086 0.150000
vertex 0.001257 0.000086 0.000000
vertex 0.001436 0.000042 0.000000
endloop
endfacet
facet normal -0.239863 -0.970807 0.000000
outer loop
vertex 0.001257 0.000086 0.150000
vertex 0.001436 0.000042 0.000000
vertex 0.001436 0.000042 0.150000
endloop
endfacet
facet normal 0.666416 -0.745580 0.000000
outer loop
vertex 0.007310 0.001245 0.000000
vertex 0.007401 0.001326 0.000000
vertex 0.007401 0.001326 0.150000
endloop
endfacet
facet normal 0.666423 -0.745574 0.000000
outer loop
vertex 0.007310 0.001245 0.000000
vertex 0.007401 0.001326 0.150000
vertex 0.007310 0.001245 0.150000
endloop
endfacet
facet normal 0.643760 -0.765228 0.000000
outer loop
vertex 0.007211 0.001162 0.000000
vertex 0.007310 0.001245 0.000000
vertex 0.007310 0.001245 0.150000
endloop
endfacet
facet normal 0.643760 -0.765228 0.000000
outer loop
vertex 0.007211 0.001162 0.000000
vertex 0.007310 0.001245 0.150000
vertex 0.007211 0.001162 0.150000
endloop
endfacet
facet normal 0.626303 -0.779579 0.000000
outer loop
vertex 0.007103 0.001074 0.000000
vertex 0.007211 0.001162 0.000000
vertex 0.007211 0.001162 0.150000
endloop
endfacet
facet normal 0.626298 -0.779584 0.000000
outer loop
vertex 0.007103 0.001074 0.000000
vertex 0.007211 0.001162 0.150000
vertex 0.007103 0.001074 0.150000
endloop
endfacet
facet normal 0.569397 -0.822063 0.000000
outer loop
vertex 0.006854 0.000892 0.150000
vertex 0.006854 0.000892 0.000000
vertex 0.006983 0.000981 0.000000
endloop
endfacet
facet normal 0.614108 -0.789222 0.000000
outer loop
vertex 0.006983 0.000981 0.000000
vertex 0.007103 0.001074 0.000000
vertex 0.007103 0.001074 0.150000
endloop
endfacet
facet normal 0.569397 -0.822063 0.000000
outer loop
vertex 0.006983 0.000981 0.150000
vertex 0.006854 0.000892 0.150000
vertex 0.006983 0.000981 0.000000
endloop
endfacet
facet normal 0.614113 -0.789218 0.000000
outer loop
vertex 0.007103 0.001074 0.150000
vertex 0.006983 0.000981 0.150000
vertex 0.006983 0.000981 0.000000
endloop
endfacet
facet normal -0.794965 0.606656 0.000000
outer loop
vertex 0.001606 0.008829 0.000000
vertex 0.001211 0.008311 0.000000
vertex 0.001211 0.008311 0.150000
endloop
endfacet
facet normal -0.794965 0.606655 0.000000
outer loop
vertex 0.001606 0.008829 0.000000
vertex 0.001211 0.008311 0.150000
vertex 0.001606 0.008829 0.150000
endloop
endfacet
facet normal -0.470279 0.882518 0.000000
outer loop
vertex 0.003184 0.009992 0.150000
vertex 0.003184 0.009992 0.000000
vertex 0.003007 0.009898 0.000000
endloop
endfacet
facet normal -0.470278 0.882518 0.000000
outer loop
vertex 0.003184 0.009992 0.150000
vertex 0.003007 0.009898 0.000000
vertex 0.003007 0.009898 0.150000
endloop
endfacet
facet normal -0.714582 0.699552 0.000000
outer loop
vertex 0.001685 0.008910 0.150000
vertex 0.001685 0.008910 0.000000
vertex 0.001606 0.008829 0.000000
endloop
endfacet
facet normal -0.714583 0.699551 0.000000
outer loop
vertex 0.001685 0.008910 0.150000
vertex 0.001606 0.008829 0.000000
vertex 0.001606 0.008829 0.150000
endloop
endfacet
facet normal 0.000000 0.000000 1.000000
outer loop
vertex 0.008665 0.004375 0.150000
vertex 0.008620 0.004710 0.150000
vertex 0.007913 0.007230 0.150000
endloop
endfacet
facet normal 0.001213 0.000000 0.999999
outer loop
vertex 0.007913 0.007230 0.150000
vertex 0.007780 0.007569 0.150000
vertex 0.007692 0.007748 0.150000
endloop
endfacet
facet normal 0.003078 0.000000 0.999995
outer loop
vertex 0.007692 0.007748 0.150000
vertex 0.007583 0.007944 0.150000
vertex 0.007448 0.008165 0.150000
endloop
endfacet
facet normal -0.001007 0.000000 0.999999
outer loop
vertex 0.007692 0.007748 0.150000
vertex 0.007448 0.008165 0.150000
vertex 0.007282 0.008419 0.150000
endloop
endfacet
facet normal -0.000242 0.000000 1.000000
outer loop
vertex 0.008665 0.004375 0.150000
vertex 0.007913 0.007230 0.150000
vertex 0.007692 0.007748 0.150000
endloop
endfacet
facet normal 0.003731 0.000000 0.999993
outer loop
vertex 0.008671 0.004090 0.150000
vertex 0.008671 0.004230 0.150000
vertex 0.008665 0.004375 0.150000
endloop
endfacet
facet normal 0.000000 0.000000 1.000000
outer loop
vertex 0.008660 0.003794 0.150000
vertex 0.008666 0.003947 0.150000
vertex 0.008671 0.004090 0.150000
endloop
endfacet
facet normal 0.000000 0.000000 1.000000
outer loop
vertex 0.008646 0.003232 0.150000
vertex 0.008651 0.003424 0.150000
vertex 0.008654 0.003622 0.150000
endloop
endfacet
facet normal -0.001434 0.000000 0.999999
outer loop
vertex 0.008660 0.003794 0.150000
vertex 0.008671 0.004090 0.150000
vertex 0.008665 0.004375 0.150000
endloop
endfacet
facet normal -0.001442 0.000000 0.999999
outer loop
vertex 0.008630 0.003074 0.150000
vertex 0.008646 0.003232 0.150000
vertex 0.008654 0.003622 0.150000
endloop
endfacet
facet normal 0.005753 0.000000 0.999983
outer loop
vertex 0.008654 0.003622 0.150000
vertex 0.008660 0.003794 0.150000
vertex 0.008665 0.004375 0.150000
endloop
endfacet
facet normal 0.000120 0.000000 1.000000
outer loop
vertex 0.008665 0.004375 0.150000
vertex 0.007692 0.007748 0.150000
vertex 0.007282 0.008419 0.150000
endloop
endfacet
facet normal -0.000305 0.000000 1.000000
outer loop
vertex 0.008665 0.004375 0.150000
vertex 0.007282 0.008419 0.150000
vertex 0.007114 0.008686 0.150000
endloop
endfacet
facet normal 0.001175 0.000000 0.999999
outer loop
vertex 0.008630 0.003074 0.150000
vertex 0.008654 0.003622 0.150000
vertex 0.008665 0.004375 0.150000
endloop
endfacet
facet normal -0.002019 0.000000 0.999998
outer loop
vertex 0.008568 0.002844 0.150000
vertex 0.008604 0.002947 0.150000
vertex 0.008630 0.003074 0.150000
endloop
endfacet
facet normal 0.001523 0.000000 0.999999
outer loop
vertex 0.008472 0.002684 0.150000
vertex 0.008524 0.002758 0.150000
vertex 0.008568 0.002844 0.150000
endloop
endfacet
facet normal 0.002080 0.000000 0.999998
outer loop
vertex 0.008275 0.002471 0.150000
vertex 0.008413 0.002616 0.150000
vertex 0.008472 0.002684 0.150000
endloop
endfacet
facet normal -0.000330 0.000000 1.000000
outer loop
vertex 0.008275 0.002471 0.150000
vertex 0.008472 0.002684 0.150000
vertex 0.008568 0.002844 0.150000
endloop
endfacet
facet normal 0.000000 0.000000 1.000000
outer loop
vertex 0.008568 0.002844 0.150000
vertex 0.008630 0.003074 0.150000
vertex 0.008665 0.004375 0.150000
endloop
endfacet
facet normal 0.000200 0.000000 1.000000
outer loop
vertex 0.008665 0.004375 0.150000
vertex 0.007114 0.008686 0.150000
vertex 0.006973 0.008937 0.150000
endloop
endfacet
facet normal -0.001082 0.000000 0.999999
outer loop
vertex 0.006973 0.008937 0.150000
vertex 0.006644 0.009588 0.150000
vertex 0.006544 0.009765 0.150000
endloop
endfacet
facet normal -0.000818 0.000000 1.000000
outer loop
vertex 0.006544 0.009765 0.150000
vertex 0.006438 0.009920 0.150000
vertex 0.006319 0.010052 0.150000
endloop
endfacet
facet normal 0.000286 0.000000 1.000000
outer loop
vertex 0.006319 0.010052 0.150000
vertex 0.006181 0.010159 0.150000
vertex 0.006017 0.010240 0.150000
endloop
endfacet
facet normal 0.000000 0.000000 1.000000
outer loop
vertex 0.006017 0.010240 0.150000
vertex 0.005821 0.010293 0.150000
vertex 0.005587 0.010317 0.150000
endloop
endfacet
facet normal 0.000035 0.000000 1.000000
outer loop
vertex 0.005587 0.010317 0.150000
vertex 0.004551 0.010300 0.150000
vertex 0.004052 0.010241 0.150000
endloop
endfacet
facet normal -0.000131 0.000000 1.000000
outer loop
vertex 0.004052 0.010241 0.150000
vertex 0.003590 0.010141 0.150000
vertex 0.003184 0.009992 0.150000
endloop
endfacet
facet normal 0.000000 0.000000 1.000000
outer loop
vertex 0.003184 0.009992 0.150000
vertex 0.003007 0.009898 0.150000
vertex 0.002850 0.009789 0.150000
endloop
endfacet
facet normal 0.000000 0.000000 1.000000
outer loop
vertex 0.003184 0.009992 0.150000
vertex 0.002850 0.009789 0.150000
vertex 0.002708 0.009678 0.150000
endloop
endfacet
facet normal 0.000000 0.000000 1.000000
outer loop
vertex 0.005587 0.010317 0.150000
vertex 0.004052 0.010241 0.150000
vertex 0.003184 0.009992 0.150000
endloop
endfacet
facet normal 0.000032 0.000000 1.000000
outer loop
vertex 0.006319 0.010052 0.150000
vertex 0.006017 0.010240 0.150000
vertex 0.005587 0.010317 0.150000
endloop
endfacet
facet normal 0.000000 0.000000 1.000000
outer loop
vertex 0.006973 0.008937 0.150000
vertex 0.006544 0.009765 0.150000
vertex 0.006319 0.010052 0.150000
endloop
endfacet
facet normal 0.000000 0.000000 1.000000
outer loop
vertex 0.008568 0.002844 0.150000
vertex 0.008665 0.004375 0.150000
vertex 0.006973 0.008937 0.150000
endloop
endfacet
facet normal -0.002463 0.000000 0.999997
outer loop
vertex 0.008198 0.002383 0.150000
vertex 0.008275 0.002471 0.150000
vertex 0.008568 0.002844 0.150000
endloop
endfacet
facet normal 0.000000 0.000000 1.000000
outer loop
vertex 0.007565 0.001491 0.150000
vertex 0.007791 0.001773 0.150000
vertex 0.008117 0.002277 0.150000
endloop
endfacet
facet normal 0.000000 0.000000 1.000000
outer loop
vertex 0.008198 0.002383 0.150000
vertex 0.008568 0.002844 0.150000
vertex 0.006973 0.008937 0.150000
endloop
endfacet
facet normal 0.000381 0.000000 1.000000
outer loop
vertex 0.007401 0.001326 0.150000
vertex 0.007565 0.001491 0.150000
vertex 0.008117 0.002277 0.150000
endloop
endfacet
facet normal 0.000000 0.000000 1.000000
outer loop
vertex 0.008117 0.002277 0.150000
vertex 0.008198 0.002383 0.150000
vertex 0.006973 0.008937 0.150000
endloop
endfacet
facet normal 0.000000 0.000000 1.000000
outer loop
vertex 0.006973 0.008937 0.150000
vertex 0.006319 0.010052 0.150000
vertex 0.005587 0.010317 0.150000
endloop
endfacet
facet normal -0.000012 0.000000 1.000000
outer loop
vertex 0.005587 0.010317 0.150000
vertex 0.003184 0.009992 0.150000
vertex 0.002708 0.009678 0.150000
endloop
endfacet
facet normal -0.003498 0.000000 0.999994
outer loop
vertex 0.002570 0.009575 0.150000
vertex 0.001968 0.009144 0.150000
vertex 0.001867 0.009067 0.150000
endloop
endfacet
facet normal 0.000000 0.000000 1.000000
outer loop
vertex 0.005587 0.010317 0.150000
vertex 0.002708 0.009678 0.150000
vertex 0.002570 0.009575 0.150000
endloop
endfacet
facet normal 0.000011 0.000000 1.000000
outer loop
vertex 0.008117 0.002277 0.150000
vertex 0.006973 0.008937 0.150000
vertex 0.005587 0.010317 0.150000
endloop
endfacet
facet normal 0.000000 0.000000 1.000000
outer loop
vertex 0.007310 0.001245 0.150000
vertex 0.007401 0.001326 0.150000
vertex 0.008117 0.002277 0.150000
endloop
endfacet
facet normal 0.000000 0.000000 1.000000
outer loop
vertex 0.007103 0.001074 0.150000
vertex 0.007211 0.001162 0.150000
vertex 0.007310 0.001245 0.150000
endloop
endfacet
facet normal 0.000000 0.000000 1.000000
outer loop
vertex 0.006854 0.000892 0.150000
vertex 0.006983 0.000981 0.150000
vertex 0.007103 0.001074 0.150000
endloop
endfacet
facet normal 0.000845 0.000000 1.000000
outer loop
vertex 0.006578 0.000754 0.150000
vertex 0.006719 0.000817 0.150000
vertex 0.006854 0.000892 0.150000
endloop
endfacet
facet normal 0.000000 0.000000 1.000000
outer loop
vertex 0.006115 0.000625 0.150000
vertex 0.006276 0.000660 0.150000
vertex 0.006578 0.000754 0.150000
endloop
endfacet
facet normal 0.000000 0.000000 1.000000
outer loop
vertex 0.004979 0.000470 0.150000
vertex 0.005946 0.000595 0.150000
vertex 0.006115 0.000625 0.150000
endloop
endfacet
facet normal 0.000721 0.000000 1.000000
outer loop
vertex 0.002856 0.000077 0.150000
vertex 0.003353 0.000160 0.150000
vertex 0.004761 0.000437 0.150000
endloop
endfacet
facet normal 0.000000 0.000000 1.000000
outer loop
vertex 0.004979 0.000470 0.150000
vertex 0.006115 0.000625 0.150000
vertex 0.006578 0.000754 0.150000
endloop
endfacet
facet normal -0.000259 0.000000 1.000000
outer loop
vertex 0.002604 0.000044 0.150000
vertex 0.002856 0.000077 0.150000
vertex 0.004761 0.000437 0.150000
endloop
endfacet
facet normal 0.000000 0.000000 1.000000
outer loop
vertex 0.004761 0.000437 0.150000
vertex 0.004979 0.000470 0.150000
vertex 0.006578 0.000754 0.150000
endloop
endfacet
facet normal 0.000000 0.000000 1.000000
outer loop
vertex 0.006578 0.000754 0.150000
vertex 0.006854 0.000892 0.150000
vertex 0.007103 0.001074 0.150000
endloop
endfacet
facet normal 0.000000 0.000000 1.000000
outer loop
vertex 0.007103 0.001074 0.150000
vertex 0.007310 0.001245 0.150000
vertex 0.008117 0.002277 0.150000
endloop
endfacet
facet normal -0.000007 0.000000 1.000000
outer loop
vertex 0.008117 0.002277 0.150000
vertex 0.005587 0.010317 0.150000
vertex 0.002570 0.009575 0.150000
endloop
endfacet
facet normal 0.000545 0.000000 1.000000
outer loop
vertex 0.002570 0.009575 0.150000
vertex 0.001867 0.009067 0.150000
vertex 0.001772 0.008989 0.150000
endloop
endfacet
facet normal 0.002262 0.000000 0.999997
outer loop
vertex 0.001772 0.008989 0.150000
vertex 0.001685 0.008910 0.150000
vertex 0.001606 0.008829 0.150000
endloop
endfacet
facet normal 0.000000 0.000000 1.000000
outer loop
vertex 0.001606 0.008829 0.150000
vertex 0.001211 0.008311 0.150000
vertex 0.001098 0.008083 0.150000
endloop
endfacet
facet normal 0.000000 0.000000 1.000000
outer loop
vertex 0.001098 0.008083 0.150000
vertex 0.000685 0.006835 0.150000
vertex 0.000380 0.005456 0.150000
endloop
endfacet
facet normal 0.000000 0.000000 1.000000
outer loop
vertex 0.000380 0.005456 0.150000
vertex 0.000319 0.005230 0.150000
vertex 0.000191 0.004567 0.150000
endloop
endfacet
facet normal 0.000918 0.000000 1.000000
outer loop
vertex 0.000191 0.004567 0.150000
vertex 0.000078 0.003723 0.150000
vertex 0.000036 0.003270 0.150000
endloop
endfacet
facet normal 0.000000 0.000000 1.000000
outer loop
vertex 0.000036 0.003270 0.150000
vertex 0.000009 0.002816 0.150000
vertex 0.000013 0.001965 0.150000
endloop
endfacet
facet normal -0.000570 0.000000 1.000000
outer loop
vertex 0.000013 0.001965 0.150000
vertex 0.000050 0.001598 0.150000
vertex 0.000117 0.001290 0.150000
endloop
endfacet
facet normal 0.000374 0.000000 1.000000
outer loop
vertex 0.000117 0.001290 0.150000
vertex 0.000216 0.001054 0.150000
vertex 0.000445 0.000705 0.150000
endloop
endfacet
facet normal 0.000000 0.000000 1.000000
outer loop
vertex 0.000445 0.000705 0.150000
vertex 0.000682 0.000429 0.150000
vertex 0.000810 0.000317 0.150000
endloop
endfacet
facet normal 0.000000 0.000000 1.000000
outer loop
vertex 0.000810 0.000317 0.150000
vertex 0.000946 0.000223 0.150000
vertex 0.001095 0.000146 0.150000
endloop
endfacet
facet normal 0.000250 0.000000 1.000000
outer loop
vertex 0.001095 0.000146 0.150000
vertex 0.001257 0.000086 0.150000
vertex 0.001436 0.000042 0.150000
endloop
endfacet
facet normal 0.000033 0.000000 1.000000
outer loop
vertex 0.001436 0.000042 0.150000
vertex 0.001852 0.000001 0.150000
vertex 0.002350 0.000019 0.150000
endloop
endfacet
facet normal 0.000158 0.000000 1.000000
outer loop
vertex 0.002350 0.000019 0.150000
vertex 0.002604 0.000044 0.150000
vertex 0.004761 0.000437 0.150000
endloop
endfacet
facet normal 0.000035 0.000000 1.000000
outer loop
vertex 0.004761 0.000437 0.150000
vertex 0.006578 0.000754 0.150000
vertex 0.007103 0.001074 0.150000
endloop
endfacet
facet normal 0.000017 0.000000 1.000000
outer loop
vertex 0.007103 0.001074 0.150000
vertex 0.008117 0.002277 0.150000
vertex 0.002570 0.009575 0.150000
endloop
endfacet
facet normal 0.000121 0.000000 1.000000
outer loop
vertex 0.002570 0.009575 0.150000
vertex 0.001772 0.008989 0.150000
vertex 0.001606 0.008829 0.150000
endloop
endfacet
facet normal 0.000000 0.000000 1.000000
outer loop
vertex 0.001606 0.008829 0.150000
vertex 0.001098 0.008083 0.150000
vertex 0.000380 0.005456 0.150000
endloop
endfacet
facet normal 0.000000 0.000000 1.000000
outer loop
vertex 0.000380 0.005456 0.150000
vertex 0.000191 0.004567 0.150000
vertex 0.000036 0.003270 0.150000
endloop
endfacet
facet normal -0.000096 0.000000 1.000000
outer loop
vertex 0.000036 0.003270 0.150000
vertex 0.000013 0.001965 0.150000
vertex 0.000117 0.001290 0.150000
endloop
endfacet
facet normal -0.000254 0.000000 1.000000
outer loop
vertex 0.000117 0.001290 0.150000
vertex 0.000445 0.000705 0.150000
vertex 0.000810 0.000317 0.150000
endloop
endfacet
facet normal -0.000127 0.000000 1.000000
outer loop
vertex 0.000810 0.000317 0.150000
vertex 0.001095 0.000146 0.150000
vertex 0.001436 0.000042 0.150000
endloop
endfacet
facet normal 0.000000 0.000000 1.000000
outer loop
vertex 0.001436 0.000042 0.150000
vertex 0.002350 0.000019 0.150000
vertex 0.004761 0.000437 0.150000
endloop
endfacet
facet normal -0.000010 0.000000 1.000000
outer loop
vertex 0.004761 0.000437 0.150000
vertex 0.007103 0.001074 0.150000
vertex 0.002570 0.009575 0.150000
endloop
endfacet
facet normal 0.000000 0.000000 1.000000
outer loop
vertex 0.002570 0.009575 0.150000
vertex 0.001606 0.008829 0.150000
vertex 0.000380 0.005456 0.150000
endloop
endfacet
facet normal 0.000000 0.000000 1.000000
outer loop
vertex 0.000380 0.005456 0.150000
vertex 0.000036 0.003270 0.150000
vertex 0.000117 0.001290 0.150000
endloop
endfacet
facet normal 0.000087 0.000000 1.000000
outer loop
vertex 0.000117 0.001290 0.150000
vertex 0.000810 0.000317 0.150000
vertex 0.001436 0.000042 0.150000
endloop
endfacet
facet normal 0.000000 0.000000 1.000000
outer loop
vertex 0.001436 0.000042 0.150000
vertex 0.004761 0.000437 0.150000
vertex 0.002570 0.009575 0.150000
endloop
endfacet
facet normal 0.000029 0.000000 1.000000
outer loop
vertex 0.002570 0.009575 0.150000
vertex 0.000380 0.005456 0.150000
vertex 0.000117 0.001290 0.150000
endloop
endfacet
facet normal -0.000015 0.000000 1.000000
outer loop
vertex 0.002570 0.009575 0.150000
vertex 0.000117 0.001290 0.150000
vertex 0.001436 0.000042 0.150000
endloop
endfacet
facet normal -0.657968 -0.753046 0.000000
outer loop
vertex 0.000682 0.000429 0.150000
vertex 0.000682 0.000429 0.000000
vertex 0.000810 0.000317 0.000000
endloop
endfacet
facet normal -0.657967 -0.753047 0.000000
outer loop
vertex 0.000682 0.000429 0.150000
vertex 0.000810 0.000317 0.000000
vertex 0.000810 0.000317 0.150000
endloop
endfacet
facet normal -0.977564 -0.210638 0.000000
outer loop
vertex 0.000050 0.001598 0.150000
vertex 0.000050 0.001598 0.000000
vertex 0.000117 0.001290 0.000000
endloop
endfacet
facet normal -0.977564 -0.210638 0.000000
outer loop
vertex 0.000050 0.001598 0.150000
vertex 0.000117 0.001290 0.000000
vertex 0.000117 0.001290 0.150000
endloop
endfacet
facet normal -0.343136 0.939286 0.000000
outer loop
vertex 0.003590 0.010141 0.150000
vertex 0.003590 0.010141 0.000000
vertex 0.003184 0.009992 0.000000
endloop
endfacet
facet normal -0.343136 0.939286 0.000000
outer loop
vertex 0.003590 0.010141 0.150000
vertex 0.003184 0.009992 0.000000
vertex 0.003184 0.009992 0.150000
endloop
endfacet
facet normal 0.825411 0.564533 0.000000
outer loop
vertex 0.006544 0.009765 0.150000
vertex 0.006544 0.009765 0.000000
vertex 0.006438 0.009920 0.000000
endloop
endfacet
facet normal 0.825413 0.564530 0.000000
outer loop
vertex 0.006544 0.009765 0.150000
vertex 0.006438 0.009920 0.000000
vertex 0.006438 0.009920 0.150000
endloop
endfacet
facet normal 0.979582 -0.201046 0.000000
outer loop
vertex 0.008604 0.002947 0.150000
vertex 0.008604 0.002947 0.000000
vertex 0.008630 0.003074 0.000000
endloop
endfacet
facet normal 0.979586 -0.201023 0.000000
outer loop
vertex 0.008604 0.002947 0.150000
vertex 0.008630 0.003074 0.000000
vertex 0.008630 0.003074 0.150000
endloop
endfacet
facet normal -0.461244 -0.887274 0.000000
outer loop
vertex 0.000946 0.000223 0.150000
vertex 0.000946 0.000223 0.000000
vertex 0.001095 0.000146 0.000000
endloop
endfacet
facet normal -0.461243 -0.887274 0.000000
outer loop
vertex 0.000946 0.000223 0.150000
vertex 0.001095 0.000146 0.000000
vertex 0.001095 0.000146 0.150000
endloop
endfacet
facet normal 0.930958 0.365125 0.000000
outer loop
vertex 0.007913 0.007230 0.150000
vertex 0.007913 0.007230 0.000000
vertex 0.007780 0.007569 0.000000
endloop
endfacet
facet normal 0.930958 0.365125 0.000000
outer loop
vertex 0.007913 0.007230 0.150000
vertex 0.007780 0.007569 0.000000
vertex 0.007780 0.007569 0.150000
endloop
endfacet
facet normal -0.896183 0.443685 0.000000
outer loop
vertex 0.001211 0.008311 0.150000
vertex 0.001211 0.008311 0.000000
vertex 0.001098 0.008083 0.000000
endloop
endfacet
facet normal -0.896182 0.443686 0.000000
outer loop
vertex 0.001211 0.008311 0.150000
vertex 0.001098 0.008083 0.000000
vertex 0.001098 0.008083 0.150000
endloop
endfacet
facet normal 0.486442 -0.873713 0.000000
outer loop
vertex 0.006719 0.000817 0.150000
vertex 0.006719 0.000817 0.000000
vertex 0.006854 0.000892 0.000000
endloop
endfacet
facet normal 0.486442 -0.873713 0.000000
outer loop
vertex 0.006719 0.000817 0.150000
vertex 0.006854 0.000892 0.000000
vertex 0.006854 0.000892 0.150000
endloop
endfacet
facet normal 0.889633 -0.456676 0.000000
outer loop
vertex 0.008524 0.002758 0.150000
vertex 0.008524 0.002758 0.000000
vertex 0.008568 0.002844 0.000000
endloop
endfacet
facet normal 0.889620 -0.456701 0.000000
outer loop
vertex 0.008524 0.002758 0.150000
vertex 0.008568 0.002844 0.000000
vertex 0.008568 0.002844 0.150000
endloop
endfacet
facet normal 0.000000 0.000000 1.000000
outer loop
vertex 0.004979 0.000470 0.000000
vertex 0.005946 0.000595 0.000000
vertex 0.006115 0.000625 0.000000
endloop
endfacet
facet normal 0.213692 -0.976901 0.000000
outer loop
vertex 0.006115 0.000625 0.000000
vertex 0.006276 0.000660 0.000000
vertex 0.006276 0.000660 0.150000
endloop
endfacet
facet normal 0.213691 -0.976901 0.000000
outer loop
vertex 0.006115 0.000625 0.000000
vertex 0.006276 0.000660 0.150000
vertex 0.006115 0.000625 0.150000
endloop
endfacet
facet normal 0.134741 -0.990881 0.000000
outer loop
vertex 0.004979 0.000470 0.000000
vertex 0.006115 0.000625 0.000000
vertex 0.006115 0.000625 0.150000
endloop
endfacet
facet normal 0.173195 -0.984888 -0.000297
outer loop
vertex 0.004979 0.000470 0.000000
vertex 0.006115 0.000625 0.150000
vertex 0.005946 0.000595 0.150000
endloop
endfacet
facet normal 0.000000 0.000000 1.000000
outer loop
vertex 0.002856 0.000077 0.000000
vertex 0.003353 0.000160 0.000000
vertex 0.004761 0.000437 0.000000
endloop
endfacet
facet normal 0.150972 -0.988538 -0.000151
outer loop
vertex 0.004761 0.000437 0.000000
vertex 0.004979 0.000470 0.000000
vertex 0.005946 0.000595 0.150000
endloop
endfacet
facet normal 0.127958 -0.991780 0.000034
outer loop
vertex 0.004761 0.000437 0.000000
vertex 0.005946 0.000595 0.150000
vertex 0.004979 0.000470 0.150000
endloop
endfacet
facet normal 0.000000 0.000000 1.000000
outer loop
vertex 0.002604 0.000044 0.000000
vertex 0.002856 0.000077 0.000000
vertex 0.004761 0.000437 0.000000
endloop
endfacet
facet normal 0.097739 -0.995212 0.000000
outer loop
vertex 0.002350 0.000019 0.150000
vertex 0.002350 0.000019 0.000000
vertex 0.002604 0.000044 0.000000
endloop
endfacet
facet normal 0.097740 -0.995212 0.000000
outer loop
vertex 0.002604 0.000044 0.150000
vertex 0.002350 0.000019 0.150000
vertex 0.002604 0.000044 0.000000
endloop
endfacet
facet normal 0.179303 -0.983794 -0.000042
outer loop
vertex 0.002604 0.000044 0.000000
vertex 0.004761 0.000437 0.000000
vertex 0.004979 0.000470 0.150000
endloop
endfacet
facet normal 0.150971 -0.988538 0.000420
outer loop
vertex 0.002604 0.000044 0.000000
vertex 0.004979 0.000470 0.150000
vertex 0.004761 0.000437 0.150000
endloop
endfacet
facet normal 0.129490 -0.991581 0.000000
outer loop
vertex 0.002856 0.000077 0.150000
vertex 0.002604 0.000044 0.150000
vertex 0.002604 0.000044 0.000000
endloop
endfacet
facet normal 0.192916 -0.981215 -0.000203
outer loop
vertex 0.002604 0.000044 0.000000
vertex 0.004761 0.000437 0.150000
vertex 0.003353 0.000160 0.150000
endloop
endfacet
facet normal 0.165488 -0.986212 -0.000062
outer loop
vertex 0.003353 0.000160 0.150000
vertex 0.002856 0.000077 0.150000
vertex 0.002604 0.000044 0.000000
endloop
endfacet
facet normal 0.102318 0.994752 0.000000
outer loop
vertex 0.005821 0.010293 0.150000
vertex 0.005821 0.010293 0.000000
vertex 0.005587 0.010317 0.000000
endloop
endfacet
facet normal 0.102318 0.994752 0.000000
outer loop
vertex 0.005821 0.010293 0.150000
vertex 0.005587 0.010317 0.000000
vertex 0.005587 0.010317 0.150000
endloop
endfacet
facet normal -0.758626 -0.651526 0.000000
outer loop
vertex 0.000445 0.000705 0.000000
vertex 0.000682 0.000429 0.000000
vertex 0.000682 0.000429 0.150000
endloop
endfacet
facet normal -0.758626 -0.651526 0.000000
outer loop
vertex 0.000445 0.000705 0.000000
vertex 0.000682 0.000429 0.150000
vertex 0.000445 0.000705 0.150000
endloop
endfacet
facet normal -0.016883 0.999857 0.000000
outer loop
vertex 0.005587 0.010317 0.000000
vertex 0.004551 0.010300 0.000000
vertex 0.004551 0.010300 0.150000
endloop
endfacet
facet normal -0.016883 0.999857 0.000000
outer loop
vertex 0.005587 0.010317 0.000000
vertex 0.004551 0.010300 0.150000
vertex 0.005587 0.010317 0.150000
endloop
endfacet
facet normal 0.708166 -0.706045 0.000000
outer loop
vertex 0.007401 0.001326 0.000000
vertex 0.007565 0.001491 0.000000
vertex 0.007565 0.001491 0.150000
endloop
endfacet
facet normal 0.708166 -0.706045 0.000000
outer loop
vertex 0.007401 0.001326 0.000000
vertex 0.007565 0.001491 0.150000
vertex 0.007401 0.001326 0.150000
endloop
endfacet
facet normal -0.671163 0.741310 0.000000
outer loop
vertex 0.001772 0.008989 0.000000
vertex 0.001685 0.008910 0.000000
vertex 0.001685 0.008910 0.150000
endloop
endfacet
facet normal -0.671163 0.741310 0.000000
outer loop
vertex 0.001772 0.008989 0.000000
vertex 0.001685 0.008910 0.150000
vertex 0.001772 0.008989 0.150000
endloop
endfacet
facet normal -0.635412 0.772173 0.000000
outer loop
vertex 0.001867 0.009067 0.000000
vertex 0.001772 0.008989 0.000000
vertex 0.001772 0.008989 0.150000
endloop
endfacet
facet normal -0.635410 0.772175 0.000000
outer loop
vertex 0.001867 0.009067 0.000000
vertex 0.001772 0.008989 0.150000
vertex 0.001867 0.009067 0.150000
endloop
endfacet
facet normal -0.608153 0.793819 0.000000
outer loop
vertex 0.001968 0.009144 0.000000
vertex 0.001867 0.009067 0.000000
vertex 0.001867 0.009067 0.150000
endloop
endfacet
facet normal -0.608152 0.793821 0.000000
outer loop
vertex 0.001968 0.009144 0.000000
vertex 0.001867 0.009067 0.150000
vertex 0.001968 0.009144 0.150000
endloop
endfacet
facet normal -0.581606 0.813471 0.000000
outer loop
vertex 0.002570 0.009575 0.000000
vertex 0.001968 0.009144 0.000000
vertex 0.001968 0.009144 0.150000
endloop
endfacet
facet normal -0.581606 0.813471 0.000000
outer loop
vertex 0.002570 0.009575 0.000000
vertex 0.001968 0.009144 0.150000
vertex 0.002570 0.009575 0.150000
endloop
endfacet
facet normal -0.599295 0.800528 0.000000
outer loop
vertex 0.002708 0.009678 0.000000
vertex 0.002570 0.009575 0.000000
vertex 0.002570 0.009575 0.150000
endloop
endfacet
facet normal -0.599298 0.800526 0.000000
outer loop
vertex 0.002708 0.009678 0.000000
vertex 0.002570 0.009575 0.150000
vertex 0.002708 0.009678 0.150000
endloop
endfacet
facet normal -0.570895 0.821023 0.000000
outer loop
vertex 0.003007 0.009898 0.150000
vertex 0.003007 0.009898 0.000000
vertex 0.002850 0.009789 0.000000
endloop
endfacet
facet normal -0.615595 0.788063 0.000000
outer loop
vertex 0.002850 0.009789 0.000000
vertex 0.002708 0.009678 0.000000
vertex 0.002708 0.009678 0.150000
endloop
endfacet
facet normal -0.570897 0.821022 0.000000
outer loop
vertex 0.002850 0.009789 0.150000
vertex 0.003007 0.009898 0.150000
vertex 0.002850 0.009789 0.000000
endloop
endfacet
facet normal -0.615597 0.788061 0.000000
outer loop
vertex 0.002708 0.009678 0.150000
vertex 0.002850 0.009789 0.150000
vertex 0.002850 0.009789 0.000000
endloop
endfacet
facet normal 0.962757 0.270367 0.000000
outer loop
vertex 0.008620 0.004710 0.150000
vertex 0.008620 0.004710 0.000000
vertex 0.007913 0.007230 0.000000
endloop
endfacet
facet normal 0.962758 0.270366 0.000000
outer loop
vertex 0.008620 0.004710 0.150000
vertex 0.007913 0.007230 0.000000
vertex 0.007913 0.007230 0.150000
endloop
endfacet
facet normal -0.994761 -0.102226 0.000000
outer loop
vertex 0.000013 0.001965 0.150000
vertex 0.000013 0.001965 0.000000
vertex 0.000050 0.001598 0.000000
endloop
endfacet
facet normal -0.994761 -0.102226 0.000000
outer loop
vertex 0.000013 0.001965 0.150000
vertex 0.000050 0.001598 0.000000
vertex 0.000050 0.001598 0.150000
endloop
endfacet
facet normal 0.818661 -0.574277 0.000000
outer loop
vertex 0.008472 0.002684 0.150000
vertex 0.008472 0.002684 0.000000
vertex 0.008524 0.002758 0.000000
endloop
endfacet
facet normal 0.818661 -0.574277 0.000000
outer loop
vertex 0.008472 0.002684 0.150000
vertex 0.008524 0.002758 0.000000
vertex 0.008524 0.002758 0.150000
endloop
endfacet
facet normal 0.000000 0.000000 -1.000000
outer loop
vertex 0.008620 0.004710 0.000000
vertex 0.008665 0.004375 0.000000
vertex 0.008671 0.004230 0.000000
endloop
endfacet
facet normal 0.000000 0.000000 -1.000000
outer loop
vertex 0.008671 0.004230 0.000000
vertex 0.008671 0.004090 0.000000
vertex 0.008666 0.003947 0.000000
endloop
endfacet
facet normal 0.000000 0.000000 -1.000000
outer loop
vertex 0.008671 0.004230 0.000000
vertex 0.008666 0.003947 0.000000
vertex 0.008660 0.003794 0.000000
endloop
endfacet
facet normal 0.000000 0.000000 -1.000000
outer loop
vertex 0.007913 0.007230 0.000000
vertex 0.008620 0.004710 0.000000
vertex 0.008671 0.004230 0.000000
endloop
endfacet
facet normal 0.000000 0.000000 -1.000000
outer loop
vertex 0.007692 0.007748 0.000000
vertex 0.007780 0.007569 0.000000
vertex 0.007913 0.007230 0.000000
endloop
endfacet
facet normal 0.000000 0.000000 -1.000000
outer loop
vertex 0.007448 0.008165 0.000000
vertex 0.007583 0.007944 0.000000
vertex 0.007692 0.007748 0.000000
endloop
endfacet
facet normal 0.000000 0.000000 -1.000000
outer loop
vertex 0.007282 0.008419 0.000000
vertex 0.007448 0.008165 0.000000
vertex 0.007692 0.007748 0.000000
endloop
endfacet
facet normal 0.000000 0.000000 -1.000000
outer loop
vertex 0.007692 0.007748 0.000000
vertex 0.007913 0.007230 0.000000
vertex 0.008671 0.004230 0.000000
endloop
endfacet
facet normal 0.000000 0.000000 -1.000000
outer loop
vertex 0.008671 0.004230 0.000000
vertex 0.008660 0.003794 0.000000
vertex 0.008654 0.003622 0.000000
endloop
endfacet
facet normal 0.000000 0.000000 -1.000000
outer loop
vertex 0.008654 0.003622 0.000000
vertex 0.008651 0.003424 0.000000
vertex 0.008646 0.003232 0.000000
endloop
endfacet
facet normal 0.000000 0.000000 -1.000000
outer loop
vertex 0.008646 0.003232 0.000000
vertex 0.008630 0.003074 0.000000
vertex 0.008604 0.002947 0.000000
endloop
endfacet
facet normal 0.000000 0.000000 -1.000000
outer loop
vertex 0.008604 0.002947 0.000000
vertex 0.008568 0.002844 0.000000
vertex 0.008524 0.002758 0.000000
endloop
endfacet
facet normal 0.000000 0.000000 -1.000000
outer loop
vertex 0.008524 0.002758 0.000000
vertex 0.008472 0.002684 0.000000
vertex 0.008413 0.002616 0.000000
endloop
endfacet
facet normal 0.000000 0.000000 -1.000000
outer loop
vertex 0.008524 0.002758 0.000000
vertex 0.008413 0.002616 0.000000
vertex 0.008275 0.002471 0.000000
endloop
endfacet
facet normal 0.000000 0.000000 -1.000000
outer loop
vertex 0.008646 0.003232 0.000000
vertex 0.008604 0.002947 0.000000
vertex 0.008524 0.002758 0.000000
endloop
endfacet
facet normal 0.000000 0.000000 -1.000000
outer loop
vertex 0.007692 0.007748 0.000000
vertex 0.008671 0.004230 0.000000
vertex 0.008654 0.003622 0.000000
endloop
endfacet
facet normal 0.000000 0.000000 -1.000000
outer loop
vertex 0.008654 0.003622 0.000000
vertex 0.008646 0.003232 0.000000
vertex 0.008524 0.002758 0.000000
endloop
endfacet
facet normal 0.000000 0.000000 -1.000000
outer loop
vertex 0.008524 0.002758 0.000000
vertex 0.008275 0.002471 0.000000
vertex 0.008198 0.002383 0.000000
endloop
endfacet
facet normal 0.000000 0.000000 -1.000000
outer loop
vertex 0.008117 0.002277 0.000000
vertex 0.007791 0.001773 0.000000
vertex 0.007565 0.001491 0.000000
endloop
endfacet
facet normal 0.000000 0.000000 -1.000000
outer loop
vertex 0.008654 0.003622 0.000000
vertex 0.008524 0.002758 0.000000
vertex 0.008198 0.002383 0.000000
endloop
endfacet
facet normal 0.000000 0.000000 -1.000000
outer loop
vertex 0.008117 0.002277 0.000000
vertex 0.007565 0.001491 0.000000
vertex 0.007401 0.001326 0.000000
endloop
endfacet
facet normal 0.000000 0.000000 -1.000000
outer loop
vertex 0.008654 0.003622 0.000000
vertex 0.008198 0.002383 0.000000
vertex 0.008117 0.002277 0.000000
endloop
endfacet
facet normal 0.000000 0.000000 -1.000000
outer loop
vertex 0.007282 0.008419 0.000000
vertex 0.007692 0.007748 0.000000
vertex 0.008654 0.003622 0.000000
endloop
endfacet
facet normal 0.000000 0.000000 -1.000000
outer loop
vertex 0.007114 0.008686 0.000000
vertex 0.007282 0.008419 0.000000
vertex 0.008654 0.003622 0.000000
endloop
endfacet
facet normal 0.000000 0.000000 -1.000000
outer loop
vertex 0.008654 0.003622 0.000000
vertex 0.008117 0.002277 0.000000
vertex 0.007401 0.001326 0.000000
endloop
endfacet
facet normal 0.000000 0.000000 -1.000000
outer loop
vertex 0.007401 0.001326 0.000000
vertex 0.007310 0.001245 0.000000
vertex 0.007211 0.001162 0.000000
endloop
endfacet
facet normal 0.000000 0.000000 -1.000000
outer loop
vertex 0.007211 0.001162 0.000000
vertex 0.007103 0.001074 0.000000
vertex 0.006983 0.000981 0.000000
endloop
endfacet
facet normal 0.000000 0.000000 -1.000000
outer loop
vertex 0.006983 0.000981 0.000000
vertex 0.006854 0.000892 0.000000
vertex 0.006719 0.000817 0.000000
endloop
endfacet
facet normal 0.000000 0.000000 -1.000000
outer loop
vertex 0.006719 0.000817 0.000000
vertex 0.006578 0.000754 0.000000
vertex 0.006276 0.000660 0.000000
endloop
endfacet
facet normal 0.000000 0.000000 -1.000000
outer loop
vertex 0.006276 0.000660 0.000000
vertex 0.006115 0.000625 0.000000
vertex 0.005946 0.000595 0.000000
endloop
endfacet
facet normal 0.000000 0.000000 -1.000000
outer loop
vertex 0.006276 0.000660 0.000000
vertex 0.005946 0.000595 0.000000
vertex 0.004979 0.000470 0.000000
endloop
endfacet
facet normal 0.000000 0.000000 -1.000000
outer loop
vertex 0.006983 0.000981 0.000000
vertex 0.006719 0.000817 0.000000
vertex 0.006276 0.000660 0.000000
endloop
endfacet
facet normal 0.000000 0.000000 -1.000000
outer loop
vertex 0.007401 0.001326 0.000000
vertex 0.007211 0.001162 0.000000
vertex 0.006983 0.000981 0.000000
endloop
endfacet
facet normal 0.000000 0.000000 -1.000000
outer loop
vertex 0.007114 0.008686 0.000000
vertex 0.008654 0.003622 0.000000
vertex 0.007401 0.001326 0.000000
endloop
endfacet
facet normal 0.000000 0.000000 -1.000000
outer loop
vertex 0.006544 0.009765 0.000000
vertex 0.006644 0.009588 0.000000
vertex 0.006973 0.008937 0.000000
endloop
endfacet
facet normal 0.000000 0.000000 -1.000000
outer loop
vertex 0.006973 0.008937 0.000000
vertex 0.007114 0.008686 0.000000
vertex 0.007401 0.001326 0.000000
endloop
endfacet
facet normal 0.000000 0.000000 -1.000000
outer loop
vertex 0.007401 0.001326 0.000000
vertex 0.006983 0.000981 0.000000
vertex 0.006276 0.000660 0.000000
endloop
endfacet
facet normal 0.000000 0.000000 -1.000000
outer loop
vertex 0.007401 0.001326 0.000000
vertex 0.006276 0.000660 0.000000
vertex 0.004979 0.000470 0.000000
endloop
endfacet
facet normal 0.000000 0.000000 -1.000000
outer loop
vertex 0.006544 0.009765 0.000000
vertex 0.006973 0.008937 0.000000
vertex 0.007401 0.001326 0.000000
endloop
endfacet
facet normal 0.000000 0.000000 -1.000000
outer loop
vertex 0.006319 0.010052 0.000000
vertex 0.006438 0.009920 0.000000
vertex 0.006544 0.009765 0.000000
endloop
endfacet
facet normal 0.000000 0.000000 -1.000000
outer loop
vertex 0.006017 0.010240 0.000000
vertex 0.006181 0.010159 0.000000
vertex 0.006319 0.010052 0.000000
endloop
endfacet
facet normal 0.000000 0.000000 -1.000000
outer loop
vertex 0.005587 0.010317 0.000000
vertex 0.005821 0.010293 0.000000
vertex 0.006017 0.010240 0.000000
endloop
endfacet
facet normal 0.000000 0.000000 -1.000000
outer loop
vertex 0.004052 0.010241 0.000000
vertex 0.004551 0.010300 0.000000
vertex 0.005587 0.010317 0.000000
endloop
endfacet
facet normal 0.000000 0.000000 -1.000000
outer loop
vertex 0.003184 0.009992 0.000000
vertex 0.003590 0.010141 0.000000
vertex 0.004052 0.010241 0.000000
endloop
endfacet
facet normal 0.000000 0.000000 -1.000000
outer loop
vertex 0.002850 0.009789 0.000000
vertex 0.003007 0.009898 0.000000
vertex 0.003184 0.009992 0.000000
endloop
endfacet
facet normal 0.000000 0.000000 -1.000000
outer loop
vertex 0.002708 0.009678 0.000000
vertex 0.002850 0.009789 0.000000
vertex 0.003184 0.009992 0.000000
endloop
endfacet
facet normal 0.000000 0.000000 -1.000000
outer loop
vertex 0.003184 0.009992 0.000000
vertex 0.004052 0.010241 0.000000
vertex 0.005587 0.010317 0.000000
endloop
endfacet
facet normal 0.000000 0.000000 -1.000000
outer loop
vertex 0.005587 0.010317 0.000000
vertex 0.006017 0.010240 0.000000
vertex 0.006319 0.010052 0.000000
endloop
endfacet
facet normal 0.000000 0.000000 -1.000000
outer loop
vertex 0.006319 0.010052 0.000000
vertex 0.006544 0.009765 0.000000
vertex 0.007401 0.001326 0.000000
endloop
endfacet
facet normal 0.000000 0.000000 -1.000000
outer loop
vertex 0.007401 0.001326 0.000000
vertex 0.004979 0.000470 0.000000
vertex 0.004761 0.000437 0.000000
endloop
endfacet
facet normal 0.000000 0.000000 -1.000000
outer loop
vertex 0.004761 0.000437 0.000000
vertex 0.003353 0.000160 0.000000
vertex 0.002856 0.000077 0.000000
endloop
endfacet
facet normal 0.000000 0.000000 -1.000000
outer loop
vertex 0.002856 0.000077 0.000000
vertex 0.002604 0.000044 0.000000
vertex 0.002350 0.000019 0.000000
endloop
endfacet
facet normal 0.000000 0.000000 -1.000000
outer loop
vertex 0.002350 0.000019 0.000000
vertex 0.001852 0.000001 0.000000
vertex 0.001436 0.000042 0.000000
endloop
endfacet
facet normal 0.000000 0.000000 -1.000000
outer loop
vertex 0.001436 0.000042 0.000000
vertex 0.001257 0.000086 0.000000
vertex 0.001095 0.000146 0.000000
endloop
endfacet
facet normal 0.000000 0.000000 -1.000000
outer loop
vertex 0.001095 0.000146 0.000000
vertex 0.000946 0.000223 0.000000
vertex 0.000810 0.000317 0.000000
endloop
endfacet
facet normal 0.000000 0.000000 -1.000000
outer loop
vertex 0.000810 0.000317 0.000000
vertex 0.000682 0.000429 0.000000
vertex 0.000445 0.000705 0.000000
endloop
endfacet
facet normal 0.000000 0.000000 -1.000000
outer loop
vertex 0.000445 0.000705 0.000000
vertex 0.000216 0.001054 0.000000
vertex 0.000117 0.001290 0.000000
endloop
endfacet
facet normal 0.000000 0.000000 -1.000000
outer loop
vertex 0.000117 0.001290 0.000000
vertex 0.000050 0.001598 0.000000
vertex 0.000013 0.001965 0.000000
endloop
endfacet
facet normal 0.000000 0.000000 -1.000000
outer loop
vertex 0.000013 0.001965 0.000000
vertex 0.000009 0.002816 0.000000
vertex 0.000036 0.003270 0.000000
endloop
endfacet
facet normal 0.000000 0.000000 -1.000000
outer loop
vertex 0.000036 0.003270 0.000000
vertex 0.000078 0.003723 0.000000
vertex 0.000191 0.004567 0.000000
endloop
endfacet
facet normal 0.000000 0.000000 -1.000000
outer loop
vertex 0.000191 0.004567 0.000000
vertex 0.000319 0.005230 0.000000
vertex 0.000380 0.005456 0.000000
endloop
endfacet
facet normal 0.000000 0.000000 -1.000000
outer loop
vertex 0.000380 0.005456 0.000000
vertex 0.000685 0.006835 0.000000
vertex 0.001098 0.008083 0.000000
endloop
endfacet
facet normal 0.000000 0.000000 -1.000000
outer loop
vertex 0.001098 0.008083 0.000000
vertex 0.001211 0.008311 0.000000
vertex 0.001606 0.008829 0.000000
endloop
endfacet
facet normal 0.000000 0.000000 -1.000000
outer loop
vertex 0.001606 0.008829 0.000000
vertex 0.001685 0.008910 0.000000
vertex 0.001772 0.008989 0.000000
endloop
endfacet
facet normal 0.000000 0.000000 -1.000000
outer loop
vertex 0.001772 0.008989 0.000000
vertex 0.001867 0.009067 0.000000
vertex 0.001968 0.009144 0.000000
endloop
endfacet
facet normal 0.000000 0.000000 -1.000000
outer loop
vertex 0.002570 0.009575 0.000000
vertex 0.002708 0.009678 0.000000
vertex 0.003184 0.009992 0.000000
endloop
endfacet
facet normal 0.000000 0.000000 -1.000000
outer loop
vertex 0.001772 0.008989 0.000000
vertex 0.001968 0.009144 0.000000
vertex 0.002570 0.009575 0.000000
endloop
endfacet
facet normal 0.000000 0.000000 -1.000000
outer loop
vertex 0.001098 0.008083 0.000000
vertex 0.001606 0.008829 0.000000
vertex 0.001772 0.008989 0.000000
endloop
endfacet
facet normal 0.000000 0.000000 -1.000000
outer loop
vertex 0.000191 0.004567 0.000000
vertex 0.000380 0.005456 0.000000
vertex 0.001098 0.008083 0.000000
endloop
endfacet
facet normal 0.000000 0.000000 -1.000000
outer loop
vertex 0.000013 0.001965 0.000000
vertex 0.000036 0.003270 0.000000
vertex 0.000191 0.004567 0.000000
endloop
endfacet
facet normal 0.000000 0.000000 -1.000000
outer loop
vertex 0.000445 0.000705 0.000000
vertex 0.000117 0.001290 0.000000
vertex 0.000013 0.001965 0.000000
endloop
endfacet
facet normal 0.000000 0.000000 -1.000000
outer loop
vertex 0.001095 0.000146 0.000000
vertex 0.000810 0.000317 0.000000
vertex 0.000445 0.000705 0.000000
endloop
endfacet
facet normal 0.000000 0.000000 -1.000000
outer loop
vertex 0.002350 0.000019 0.000000
vertex 0.001436 0.000042 0.000000
vertex 0.001095 0.000146 0.000000
endloop
endfacet
facet normal 0.000000 0.000000 -1.000000
outer loop
vertex 0.004761 0.000437 0.000000
vertex 0.002856 0.000077 0.000000
vertex 0.002350 0.000019 0.000000
endloop
endfacet
facet normal 0.000000 0.000000 -1.000000
outer loop
vertex 0.006319 0.010052 0.000000
vertex 0.007401 0.001326 0.000000
vertex 0.004761 0.000437 0.000000
endloop
endfacet
facet normal 0.000000 0.000000 -1.000000
outer loop
vertex 0.003184 0.009992 0.000000
vertex 0.005587 0.010317 0.000000
vertex 0.006319 0.010052 0.000000
endloop
endfacet
facet normal 0.000000 0.000000 -1.000000
outer loop
vertex 0.001772 0.008989 0.000000
vertex 0.002570 0.009575 0.000000
vertex 0.003184 0.009992 0.000000
endloop
endfacet
facet normal 0.000000 0.000000 -1.000000
outer loop
vertex 0.000191 0.004567 0.000000
vertex 0.001098 0.008083 0.000000
vertex 0.001772 0.008989 0.000000
endloop
endfacet
facet normal 0.000000 0.000000 -1.000000
outer loop
vertex 0.000445 0.000705 0.000000
vertex 0.000013 0.001965 0.000000
vertex 0.000191 0.004567 0.000000
endloop
endfacet
facet normal 0.000000 0.000000 -1.000000
outer loop
vertex 0.002350 0.000019 0.000000
vertex 0.001095 0.000146 0.000000
vertex 0.000445 0.000705 0.000000
endloop
endfacet
facet normal 0.000000 0.000000 -1.000000
outer loop
vertex 0.006319 0.010052 0.000000
vertex 0.004761 0.000437 0.000000
vertex 0.002350 0.000019 0.000000
endloop
endfacet
facet normal 0.000000 0.000000 -1.000000
outer loop
vertex 0.001772 0.008989 0.000000
vertex 0.003184 0.009992 0.000000
vertex 0.006319 0.010052 0.000000
endloop
endfacet
facet normal 0.000000 0.000000 -1.000000
outer loop
vertex 0.000445 0.000705 0.000000
vertex 0.000191 0.004567 0.000000
vertex 0.001772 0.008989 0.000000
endloop
endfacet
facet normal 0.000000 0.000000 -1.000000
outer loop
vertex 0.006319 0.010052 0.000000
vertex 0.002350 0.000019 0.000000
vertex 0.000445 0.000705 0.000000
endloop
endfacet
facet normal 0.000000 0.000000 -1.000000
outer loop
vertex 0.000445 0.000705 0.000000
vertex 0.001772 0.008989 0.000000
vertex 0.006319 0.010052 0.000000
endloop
endfacet
facet normal 0.261957 0.965080 0.000000
outer loop
vertex 0.006017 0.010240 0.150000
vertex 0.006017 0.010240 0.000000
vertex 0.005821 0.010293 0.000000
endloop
endfacet
facet normal 0.261958 0.965079 0.000000
outer loop
vertex 0.006017 0.010240 0.150000
vertex 0.005821 0.010293 0.000000
vertex 0.005821 0.010293 0.150000
endloop
endfacet
facet normal -0.566952 -0.823751 0.000000
outer loop
vertex 0.000810 0.000317 0.150000
vertex 0.000810 0.000317 0.000000
vertex 0.000946 0.000223 0.000000
endloop
endfacet
facet normal -0.566952 -0.823751 0.000000
outer loop
vertex 0.000810 0.000317 0.150000
vertex 0.000946 0.000223 0.000000
vertex 0.000946 0.000223 0.150000
endloop
endfacet
facet normal -0.835806 -0.549024 0.000000
outer loop
vertex 0.000216 0.001054 0.000000
vertex 0.000445 0.000705 0.000000
vertex 0.000445 0.000705 0.150000
endloop
endfacet
facet normal -0.835806 -0.549024 0.000000
outer loop
vertex 0.000216 0.001054 0.000000
vertex 0.000445 0.000705 0.150000
vertex 0.000216 0.001054 0.150000
endloop
endfacet
facet normal -0.921943 -0.387325 0.000000
outer loop
vertex 0.000117 0.001290 0.150000
vertex 0.000117 0.001290 0.000000
vertex 0.000216 0.001054 0.000000
endloop
endfacet
facet normal -0.921943 -0.387325 0.000000
outer loop
vertex 0.000117 0.001290 0.150000
vertex 0.000216 0.001054 0.000000
vertex 0.000216 0.001054 0.150000
endloop
endfacet
facet normal -0.976437 0.215801 0.000000
outer loop
vertex 0.000685 0.006835 0.150000
vertex 0.000685 0.006835 0.000000
vertex 0.000380 0.005456 0.000000
endloop
endfacet
facet normal -0.981828 0.189771 0.000000
outer loop
vertex 0.000319 0.005230 0.000000
vertex 0.000191 0.004567 0.000000
vertex 0.000191 0.004567 0.150000
endloop
endfacet
facet normal -0.965645 0.259866 -0.000427
outer loop
vertex 0.000685 0.006835 0.150000
vertex 0.000380 0.005456 0.000000
vertex 0.000319 0.005230 0.000000
endloop
endfacet
facet normal -0.976438 0.215800 0.000071
outer loop
vertex 0.000380 0.005456 0.150000
vertex 0.000685 0.006835 0.150000
vertex 0.000319 0.005230 0.000000
endloop
endfacet
facet normal -0.981828 0.189771 0.000000
outer loop
vertex 0.000319 0.005230 0.000000
vertex 0.000191 0.004567 0.150000
vertex 0.000319 0.005230 0.150000
endloop
endfacet
facet normal -0.965645 0.259867 0.000000
outer loop
vertex 0.000319 0.005230 0.000000
vertex 0.000319 0.005230 0.150000
vertex 0.000380 0.005456 0.150000
endloop
endfacet
facet normal 0.405406 -0.914137 0.000000
outer loop
vertex 0.006578 0.000754 0.150000
vertex 0.006578 0.000754 0.000000
vertex 0.006719 0.000817 0.000000
endloop
endfacet
facet normal 0.405402 -0.914138 0.000000
outer loop
vertex 0.006578 0.000754 0.150000
vertex 0.006719 0.000817 0.000000
vertex 0.006719 0.000817 0.150000
endloop
endfacet
facet normal -0.349006 -0.937120 0.000000
outer loop
vertex 0.001095 0.000146 0.150000
vertex 0.001095 0.000146 0.000000
vertex 0.001257 0.000086 0.000000
endloop
endfacet
facet normal -0.349006 -0.937120 0.000000
outer loop
vertex 0.001095 0.000146 0.150000
vertex 0.001257 0.000086 0.000000
vertex 0.001257 0.000086 0.150000
endloop
endfacet
facet normal -0.999992 -0.004003 0.000000
outer loop
vertex 0.000009 0.002816 0.150000
vertex 0.000009 0.002816 0.000000
vertex 0.000013 0.001965 0.000000
endloop
endfacet
facet normal -0.999992 -0.004003 0.000000
outer loop
vertex 0.000009 0.002816 0.150000
vertex 0.000013 0.001965 0.000000
vertex 0.000013 0.001965 0.150000
endloop
endfacet
facet normal 0.442711 0.896664 0.000000
outer loop
vertex 0.006181 0.010159 0.150000
vertex 0.006181 0.010159 0.000000
vertex 0.006017 0.010240 0.000000
endloop
endfacet
facet normal 0.442711 0.896664 0.000000
outer loop
vertex 0.006181 0.010159 0.150000
vertex 0.006017 0.010240 0.000000
vertex 0.006017 0.010240 0.150000
endloop
endfacet
facet normal 0.000000 0.000000 1.000000
outer loop
vertex 0.008646 0.003232 0.000000
vertex 0.008651 0.003424 0.000000
vertex 0.008654 0.003622 0.000000
endloop
endfacet
facet normal 0.000000 0.000000 1.000000
outer loop
vertex 0.008660 0.003794 0.000000
vertex 0.008666 0.003947 0.000000
vertex 0.008671 0.004090 0.000000
endloop
endfacet
facet normal 0.000000 0.000000 1.000000
outer loop
vertex 0.008630 0.003074 0.000000
vertex 0.008646 0.003232 0.000000
vertex 0.008654 0.003622 0.000000
endloop
endfacet
facet normal 0.000000 0.000000 1.000000
outer loop
vertex 0.008660 0.003794 0.000000
vertex 0.008671 0.004090 0.000000
vertex 0.008671 0.004230 0.000000
endloop
endfacet
facet normal 0.000000 0.000000 1.000000
outer loop
vertex 0.008630 0.003074 0.000000
vertex 0.008654 0.003622 0.000000
vertex 0.008660 0.003794 0.000000
endloop
endfacet
facet normal 0.994750 -0.102335 0.000000
outer loop
vertex 0.008646 0.003232 0.150000
vertex 0.008630 0.003074 0.150000
vertex 0.008630 0.003074 0.000000
endloop
endfacet
facet normal 0.999589 -0.028670 -0.000078
outer loop
vertex 0.008651 0.003424 0.150000
vertex 0.008646 0.003232 0.150000
vertex 0.008630 0.003074 0.000000
endloop
endfacet
facet normal 0.000000 0.000000 1.000000
outer loop
vertex 0.008630 0.003074 0.000000
vertex 0.008660 0.003794 0.000000
vertex 0.008671 0.004230 0.000000
endloop
endfacet
facet normal 0.998953 0.045747 0.000000
outer loop
vertex 0.008671 0.004230 0.000000
vertex 0.008665 0.004375 0.000000
vertex 0.008665 0.004375 0.150000
endloop
endfacet
facet normal 0.998954 0.045736 0.000000
outer loop
vertex 0.008671 0.004230 0.000000
vertex 0.008665 0.004375 0.150000
vertex 0.008671 0.004230 0.150000
endloop
endfacet
facet normal 0.999356 -0.035873 -0.000061
outer loop
vertex 0.008651 0.003424 0.150000
vertex 0.008630 0.003074 0.000000
vertex 0.008671 0.004230 0.000000
endloop
endfacet
facet normal 0.999920 -0.012656 0.000064
outer loop
vertex 0.008654 0.003622 0.150000
vertex 0.008651 0.003424 0.150000
vertex 0.008671 0.004230 0.000000
endloop
endfacet
facet normal 0.999998 -0.002181 0.000000
outer loop
vertex 0.008671 0.004230 0.000000
vertex 0.008671 0.004230 0.150000
vertex 0.008671 0.004090 0.150000
endloop
endfacet
facet normal 0.999463 -0.032766 -0.000029
outer loop
vertex 0.008671 0.004230 0.000000
vertex 0.008671 0.004090 0.150000
vertex 0.008666 0.003947 0.150000
endloop
endfacet
facet normal 0.999433 -0.033681 -0.000021
outer loop
vertex 0.008660 0.003794 0.150000
vertex 0.008654 0.003622 0.150000
vertex 0.008671 0.004230 0.000000
endloop
endfacet
facet normal 0.999100 -0.042425 -0.000047
outer loop
vertex 0.008671 0.004230 0.000000
vertex 0.008666 0.003947 0.150000
vertex 0.008660 0.003794 0.150000
endloop
endfacet
facet normal -0.998208 0.059843 0.000000
outer loop
vertex 0.000036 0.003270 0.000000
vertex 0.000009 0.002816 0.000000
vertex 0.000009 0.002816 0.150000
endloop
endfacet
facet normal -0.998208 0.059843 0.000000
outer loop
vertex 0.000036 0.003270 0.000000
vertex 0.000009 0.002816 0.150000
vertex 0.000036 0.003270 0.150000
endloop
endfacet
facet normal -0.991194 0.132415 0.000000
outer loop
vertex 0.000191 0.004567 0.150000
vertex 0.000191 0.004567 0.000000
vertex 0.000078 0.003723 0.000000
endloop
endfacet
facet normal -0.995784 0.091729 0.000000
outer loop
vertex 0.000078 0.003723 0.000000
vertex 0.000036 0.003270 0.000000
vertex 0.000036 0.003270 0.150000
endloop
endfacet
facet normal -0.991194 0.132415 0.000000
outer loop
vertex 0.000078 0.003723 0.150000
vertex 0.000191 0.004567 0.150000
vertex 0.000078 0.003723 0.000000
endloop
endfacet
facet normal -0.995784 0.091729 0.000000
outer loop
vertex 0.000078 0.003723 0.000000
vertex 0.000036 0.003270 0.150000
vertex 0.000078 0.003723 0.150000
endloop
endfacet
facet normal 0.946161 -0.323696 0.000000
outer loop
vertex 0.008568 0.002844 0.150000
vertex 0.008568 0.002844 0.000000
vertex 0.008604 0.002947 0.000000
endloop
endfacet
facet normal 0.946157 -0.323709 0.000000
outer loop
vertex 0.008568 0.002844 0.150000
vertex 0.008604 0.002947 0.000000
vertex 0.008604 0.002947 0.150000
endloop
endfacet
facet normal 0.000000 0.000000 1.000000
outer loop
vertex 0.007565 0.001491 0.000000
vertex 0.007791 0.001773 0.000000
vertex 0.008117 0.002277 0.000000
endloop
endfacet
facet normal 0.793692 -0.608320 0.000000
outer loop
vertex 0.008117 0.002277 0.000000
vertex 0.008198 0.002383 0.000000
vertex 0.008198 0.002383 0.150000
endloop
endfacet
facet normal 0.793697 -0.608313 0.000000
outer loop
vertex 0.008117 0.002277 0.000000
vertex 0.008198 0.002383 0.150000
vertex 0.008117 0.002277 0.150000
endloop
endfacet
facet normal 0.818621 -0.574334 0.000000
outer loop
vertex 0.007565 0.001491 0.150000
vertex 0.007565 0.001491 0.000000
vertex 0.008117 0.002277 0.000000
endloop
endfacet
facet normal 0.839875 -0.542779 0.000000
outer loop
vertex 0.008117 0.002277 0.000000
vertex 0.008117 0.002277 0.150000
vertex 0.007791 0.001773 0.150000
endloop
endfacet
facet normal 0.780702 -0.624903 -0.000405
outer loop
vertex 0.008117 0.002277 0.000000
vertex 0.007791 0.001773 0.150000
vertex 0.007565 0.001491 0.150000
endloop
endfacet
endsolid Exported from Blender-3.6.8
