solid Exported from Blender-3.6.8
facet normal 0.437418 -0.899258 0.000000
outer loop
vertex 0.004222 0.000044 0.150000
vertex 0.004222 0.000044 0.000000
vertex 0.004340 0.000101 0.000000
endloop
endfacet
facet normal 0.437421 -0.899257 0.000000
outer loop
vertex 0.004222 0.000044 0.150000
vertex 0.004340 0.000101 0.000000
vertex 0.004340 0.000101 0.150000
endloop
endfacet
facet normal -0.778046 -0.628207 0.000000
outer loop
vertex 0.000642 0.002816 0.150000
vertex 0.000521 0.002965 0.150000
vertex 0.000521 0.002965 0.000000
endloop
endfacet
facet normal 0.000000 0.000000 1.000000
outer loop
vertex 0.000521 0.002965 0.000000
vertex 0.000642 0.002816 0.000000
vertex 0.000757 0.002682 0.000000
endloop
endfacet
facet normal 0.000000 0.000000 1.000000
outer loop
vertex 0.000757 0.002682 0.000000
vertex 0.000867 0.002562 0.000000
vertex 0.001166 0.002246 0.000000
endloop
endfacet
facet normal 0.000000 0.000000 1.000000
outer loop
vertex 0.000521 0.002965 0.000000
vertex 0.000757 0.002682 0.000000
vertex 0.001166 0.002246 0.000000
endloop
endfacet
facet normal -0.757083 -0.653318 -0.000042
outer loop
vertex 0.000757 0.002682 0.150000
vertex 0.000642 0.002816 0.150000
vertex 0.000521 0.002965 0.000000
endloop
endfacet
facet normal -0.739251 -0.673430 -0.000108
outer loop
vertex 0.000867 0.002562 0.150000
vertex 0.000757 0.002682 0.150000
vertex 0.000521 0.002965 0.000000
endloop
endfacet
facet normal 0.000000 0.000000 1.000000
outer loop
vertex 0.000521 0.002965 0.000000
vertex 0.001166 0.002246 0.000000
vertex 0.001256 0.002146 0.000000
endloop
endfacet
facet normal -0.800084 -0.599888 0.000000
outer loop
vertex 0.001343 0.002042 0.000000
vertex 0.001426 0.001931 0.000000
vertex 0.001426 0.001931 0.150000
endloop
endfacet
facet normal -0.744374 -0.667763 -0.000081
outer loop
vertex 0.000867 0.002562 0.150000
vertex 0.000521 0.002965 0.000000
vertex 0.001256 0.002146 0.000000
endloop
endfacet
facet normal -0.768436 -0.639927 -0.000047
outer loop
vertex 0.001256 0.002146 0.000000
vertex 0.001343 0.002042 0.000000
vertex 0.001426 0.001931 0.150000
endloop
endfacet
facet normal -0.800083 -0.599890 0.000046
outer loop
vertex 0.001256 0.002146 0.000000
vertex 0.001426 0.001931 0.150000
vertex 0.001343 0.002042 0.150000
endloop
endfacet
facet normal -0.725763 -0.687945 0.000024
outer loop
vertex 0.001166 0.002246 0.150000
vertex 0.000867 0.002562 0.150000
vertex 0.001256 0.002146 0.000000
endloop
endfacet
facet normal -0.768436 -0.639927 0.000000
outer loop
vertex 0.001256 0.002146 0.000000
vertex 0.001343 0.002042 0.150000
vertex 0.001256 0.002146 0.150000
endloop
endfacet
facet normal -0.743459 -0.668781 0.000000
outer loop
vertex 0.001256 0.002146 0.000000
vertex 0.001256 0.002146 0.150000
vertex 0.001166 0.002246 0.150000
endloop
endfacet
facet normal 0.000000 0.000000 1.000000
outer loop
vertex 0.006047 0.001845 0.000000
vertex 0.006118 0.001887 0.000000
vertex 0.006188 0.001930 0.000000
endloop
endfacet
facet normal 0.577284 -0.816544 0.000000
outer loop
vertex 0.006188 0.001930 0.000000
vertex 0.006255 0.001978 0.000000
vertex 0.006255 0.001978 0.150000
endloop
endfacet
facet normal 0.577279 -0.816547 0.000000
outer loop
vertex 0.006188 0.001930 0.000000
vertex 0.006255 0.001978 0.150000
vertex 0.006188 0.001930 0.150000
endloop
endfacet
facet normal 0.520342 -0.853958 0.000000
outer loop
vertex 0.006047 0.001845 0.000000
vertex 0.006188 0.001930 0.000000
vertex 0.006188 0.001930 0.150000
endloop
endfacet
facet normal 0.526302 -0.850297 -0.000008
outer loop
vertex 0.006047 0.001845 0.000000
vertex 0.006188 0.001930 0.150000
vertex 0.006118 0.001887 0.150000
endloop
endfacet
facet normal 0.597938 -0.801542 0.000000
outer loop
vertex 0.005898 0.001741 0.150000
vertex 0.005898 0.001741 0.000000
vertex 0.005973 0.001797 0.000000
endloop
endfacet
facet normal 0.541362 -0.840789 -0.000018
outer loop
vertex 0.005973 0.001797 0.000000
vertex 0.006047 0.001845 0.000000
vertex 0.006118 0.001887 0.150000
endloop
endfacet
facet normal 0.514477 -0.857504 0.000018
outer loop
vertex 0.005973 0.001797 0.000000
vertex 0.006118 0.001887 0.150000
vertex 0.006047 0.001845 0.150000
endloop
endfacet
facet normal 0.597934 -0.801545 0.000000
outer loop
vertex 0.005973 0.001797 0.150000
vertex 0.005898 0.001741 0.150000
vertex 0.005973 0.001797 0.000000
endloop
endfacet
facet normal 0.541362 -0.840789 0.000000
outer loop
vertex 0.006047 0.001845 0.150000
vertex 0.005973 0.001797 0.150000
vertex 0.005973 0.001797 0.000000
endloop
endfacet
facet normal -0.959895 -0.280359 0.000000
outer loop
vertex 0.000067 0.003823 0.150000
vertex 0.000067 0.003823 0.000000
vertex 0.000146 0.003554 0.000000
endloop
endfacet
facet normal -0.959895 -0.280359 0.000000
outer loop
vertex 0.000067 0.003823 0.150000
vertex 0.000146 0.003554 0.000000
vertex 0.000146 0.003554 0.150000
endloop
endfacet
facet normal 0.657196 -0.753719 0.000000
outer loop
vertex 0.006255 0.001978 0.150000
vertex 0.006255 0.001978 0.000000
vertex 0.006319 0.002034 0.000000
endloop
endfacet
facet normal 0.657201 -0.753716 0.000000
outer loop
vertex 0.006255 0.001978 0.150000
vertex 0.006319 0.002034 0.000000
vertex 0.006319 0.002034 0.150000
endloop
endfacet
facet normal 0.147608 0.989046 0.000000
outer loop
vertex 0.005191 0.010043 0.000000
vertex 0.004997 0.010072 0.000000
vertex 0.004997 0.010072 0.150000
endloop
endfacet
facet normal 0.147608 0.989046 0.000000
outer loop
vertex 0.005191 0.010043 0.000000
vertex 0.004997 0.010072 0.150000
vertex 0.005191 0.010043 0.150000
endloop
endfacet
facet normal 0.898757 0.438447 0.000000
outer loop
vertex 0.007490 0.008222 0.150000
vertex 0.007490 0.008222 0.000000
vertex 0.007432 0.008341 0.000000
endloop
endfacet
facet normal 0.898757 0.438447 0.000000
outer loop
vertex 0.007490 0.008222 0.150000
vertex 0.007432 0.008341 0.000000
vertex 0.007432 0.008341 0.150000
endloop
endfacet
facet normal 0.000000 0.000000 -1.000000
outer loop
vertex 0.001658 0.001574 0.000000
vertex 0.001582 0.001689 0.000000
vertex 0.001505 0.001811 0.000000
endloop
endfacet
facet normal 0.000000 0.000000 -1.000000
outer loop
vertex 0.001736 0.001465 0.000000
vertex 0.001658 0.001574 0.000000
vertex 0.001505 0.001811 0.000000
endloop
endfacet
facet normal 0.000000 0.000000 -1.000000
outer loop
vertex 0.001993 0.001159 0.000000
vertex 0.001817 0.001360 0.000000
vertex 0.001736 0.001465 0.000000
endloop
endfacet
facet normal 0.000000 0.000000 -1.000000
outer loop
vertex 0.002198 0.000961 0.000000
vertex 0.002091 0.001060 0.000000
vertex 0.001993 0.001159 0.000000
endloop
endfacet
facet normal 0.000000 0.000000 -1.000000
outer loop
vertex 0.002444 0.000756 0.000000
vertex 0.002315 0.000860 0.000000
vertex 0.002198 0.000961 0.000000
endloop
endfacet
facet normal 0.000000 0.000000 -1.000000
outer loop
vertex 0.002908 0.000422 0.000000
vertex 0.002744 0.000534 0.000000
vertex 0.002444 0.000756 0.000000
endloop
endfacet
facet normal 0.000000 0.000000 -1.000000
outer loop
vertex 0.003385 0.000151 0.000000
vertex 0.003070 0.000320 0.000000
vertex 0.002908 0.000422 0.000000
endloop
endfacet
facet normal 0.000000 0.000000 -1.000000
outer loop
vertex 0.003828 0.000010 0.000000
vertex 0.003685 0.000040 0.000000
vertex 0.003385 0.000151 0.000000
endloop
endfacet
facet normal 0.000000 0.000000 -1.000000
outer loop
vertex 0.004097 0.000011 0.000000
vertex 0.003966 0.000000 0.000000
vertex 0.003828 0.000010 0.000000
endloop
endfacet
facet normal 0.000000 0.000000 -1.000000
outer loop
vertex 0.004340 0.000101 0.000000
vertex 0.004222 0.000044 0.000000
vertex 0.004097 0.000011 0.000000
endloop
endfacet
facet normal 0.000000 0.000000 -1.000000
outer loop
vertex 0.004560 0.000288 0.000000
vertex 0.004450 0.000184 0.000000
vertex 0.004340 0.000101 0.000000
endloop
endfacet
facet normal 0.000000 0.000000 -1.000000
outer loop
vertex 0.004924 0.000672 0.000000
vertex 0.004677 0.000406 0.000000
vertex 0.004560 0.000288 0.000000
endloop
endfacet
facet normal 0.000000 0.000000 -1.000000
outer loop
vertex 0.005737 0.001584 0.000000
vertex 0.004924 0.000672 0.000000
vertex 0.004560 0.000288 0.000000
endloop
endfacet
facet normal 0.000000 0.000000 -1.000000
outer loop
vertex 0.004560 0.000288 0.000000
vertex 0.004340 0.000101 0.000000
vertex 0.004097 0.000011 0.000000
endloop
endfacet
facet normal 0.000000 0.000000 -1.000000
outer loop
vertex 0.004097 0.000011 0.000000
vertex 0.003828 0.000010 0.000000
vertex 0.003385 0.000151 0.000000
endloop
endfacet
facet normal 0.000000 0.000000 -1.000000
outer loop
vertex 0.003385 0.000151 0.000000
vertex 0.002908 0.000422 0.000000
vertex 0.002444 0.000756 0.000000
endloop
endfacet
facet normal 0.000000 0.000000 -1.000000
outer loop
vertex 0.002444 0.000756 0.000000
vertex 0.002198 0.000961 0.000000
vertex 0.001993 0.001159 0.000000
endloop
endfacet
facet normal 0.000000 0.000000 -1.000000
outer loop
vertex 0.001993 0.001159 0.000000
vertex 0.001736 0.001465 0.000000
vertex 0.001505 0.001811 0.000000
endloop
endfacet
facet normal 0.000000 0.000000 -1.000000
outer loop
vertex 0.001993 0.001159 0.000000
vertex 0.001505 0.001811 0.000000
vertex 0.001426 0.001931 0.000000
endloop
endfacet
facet normal 0.000000 0.000000 -1.000000
outer loop
vertex 0.003385 0.000151 0.000000
vertex 0.002444 0.000756 0.000000
vertex 0.001993 0.001159 0.000000
endloop
endfacet
facet normal 0.000000 0.000000 -1.000000
outer loop
vertex 0.004560 0.000288 0.000000
vertex 0.004097 0.000011 0.000000
vertex 0.003385 0.000151 0.000000
endloop
endfacet
facet normal 0.000000 0.000000 -1.000000
outer loop
vertex 0.005737 0.001584 0.000000
vertex 0.004560 0.000288 0.000000
vertex 0.003385 0.000151 0.000000
endloop
endfacet
facet normal 0.000000 0.000000 -1.000000
outer loop
vertex 0.003385 0.000151 0.000000
vertex 0.001993 0.001159 0.000000
vertex 0.001426 0.001931 0.000000
endloop
endfacet
facet normal 0.000000 0.000000 -1.000000
outer loop
vertex 0.003385 0.000151 0.000000
vertex 0.001426 0.001931 0.000000
vertex 0.001343 0.002042 0.000000
endloop
endfacet
facet normal 0.000000 0.000000 -1.000000
outer loop
vertex 0.005821 0.001672 0.000000
vertex 0.005737 0.001584 0.000000
vertex 0.003385 0.000151 0.000000
endloop
endfacet
facet normal 0.000000 0.000000 -1.000000
outer loop
vertex 0.005898 0.001741 0.000000
vertex 0.005821 0.001672 0.000000
vertex 0.003385 0.000151 0.000000
endloop
endfacet
facet normal 0.000000 0.000000 -1.000000
outer loop
vertex 0.003385 0.000151 0.000000
vertex 0.001343 0.002042 0.000000
vertex 0.001256 0.002146 0.000000
endloop
endfacet
facet normal 0.000000 0.000000 -1.000000
outer loop
vertex 0.001166 0.002246 0.000000
vertex 0.000867 0.002562 0.000000
vertex 0.000757 0.002682 0.000000
endloop
endfacet
facet normal 0.000000 0.000000 -1.000000
outer loop
vertex 0.003385 0.000151 0.000000
vertex 0.001256 0.002146 0.000000
vertex 0.001166 0.002246 0.000000
endloop
endfacet
facet normal 0.000000 0.000000 -1.000000
outer loop
vertex 0.005973 0.001797 0.000000
vertex 0.005898 0.001741 0.000000
vertex 0.003385 0.000151 0.000000
endloop
endfacet
facet normal 0.000000 0.000000 -1.000000
outer loop
vertex 0.006188 0.001930 0.000000
vertex 0.006118 0.001887 0.000000
vertex 0.006047 0.001845 0.000000
endloop
endfacet
facet normal 0.000000 0.000000 -1.000000
outer loop
vertex 0.006047 0.001845 0.000000
vertex 0.005973 0.001797 0.000000
vertex 0.003385 0.000151 0.000000
endloop
endfacet
facet normal 0.000000 0.000000 -1.000000
outer loop
vertex 0.003385 0.000151 0.000000
vertex 0.001166 0.002246 0.000000
vertex 0.000757 0.002682 0.000000
endloop
endfacet
facet normal 0.000000 0.000000 -1.000000
outer loop
vertex 0.000757 0.002682 0.000000
vertex 0.000642 0.002816 0.000000
vertex 0.000521 0.002965 0.000000
endloop
endfacet
facet normal 0.000000 0.000000 -1.000000
outer loop
vertex 0.000521 0.002965 0.000000
vertex 0.000262 0.003326 0.000000
vertex 0.000146 0.003554 0.000000
endloop
endfacet
facet normal 0.000000 0.000000 -1.000000
outer loop
vertex 0.000146 0.003554 0.000000
vertex 0.000067 0.003823 0.000000
vertex 0.000021 0.004124 0.000000
endloop
endfacet
facet normal 0.000000 0.000000 -1.000000
outer loop
vertex 0.000021 0.004124 0.000000
vertex 0.000004 0.004780 0.000000
vertex 0.000024 0.005115 0.000000
endloop
endfacet
facet normal 0.000000 0.000000 -1.000000
outer loop
vertex 0.000024 0.005115 0.000000
vertex 0.000056 0.005442 0.000000
vertex 0.000095 0.005751 0.000000
endloop
endfacet
facet normal 0.000000 0.000000 -1.000000
outer loop
vertex 0.000095 0.005751 0.000000
vertex 0.000136 0.006032 0.000000
vertex 0.000205 0.006468 0.000000
endloop
endfacet
facet normal 0.000000 0.000000 -1.000000
outer loop
vertex 0.000205 0.006468 0.000000
vertex 0.000223 0.006605 0.000000
vertex 0.001776 0.007232 0.000000
endloop
endfacet
facet normal 0.000000 0.000000 -1.000000
outer loop
vertex 0.000095 0.005751 0.000000
vertex 0.000205 0.006468 0.000000
vertex 0.001776 0.007232 0.000000
endloop
endfacet
facet normal 0.000000 0.000000 -1.000000
outer loop
vertex 0.000021 0.004124 0.000000
vertex 0.000024 0.005115 0.000000
vertex 0.000095 0.005751 0.000000
endloop
endfacet
facet normal 0.000000 0.000000 -1.000000
outer loop
vertex 0.000521 0.002965 0.000000
vertex 0.000146 0.003554 0.000000
vertex 0.000021 0.004124 0.000000
endloop
endfacet
facet normal 0.000000 0.000000 -1.000000
outer loop
vertex 0.003385 0.000151 0.000000
vertex 0.000757 0.002682 0.000000
vertex 0.000521 0.002965 0.000000
endloop
endfacet
facet normal 0.000000 0.000000 -1.000000
outer loop
vertex 0.006255 0.001978 0.000000
vertex 0.006188 0.001930 0.000000
vertex 0.006047 0.001845 0.000000
endloop
endfacet
facet normal 0.000000 0.000000 -1.000000
outer loop
vertex 0.006047 0.001845 0.000000
vertex 0.003385 0.000151 0.000000
vertex 0.000521 0.002965 0.000000
endloop
endfacet
facet normal 0.000000 0.000000 -1.000000
outer loop
vertex 0.000521 0.002965 0.000000
vertex 0.000021 0.004124 0.000000
vertex 0.000095 0.005751 0.000000
endloop
endfacet
facet normal 0.000000 0.000000 -1.000000
outer loop
vertex 0.000095 0.005751 0.000000
vertex 0.001776 0.007232 0.000000
vertex 0.002145 0.007453 0.000000
endloop
endfacet
facet normal 0.000000 0.000000 -1.000000
outer loop
vertex 0.000095 0.005751 0.000000
vertex 0.002145 0.007453 0.000000
vertex 0.002242 0.007530 0.000000
endloop
endfacet
facet normal 0.000000 0.000000 -1.000000
outer loop
vertex 0.006047 0.001845 0.000000
vertex 0.000521 0.002965 0.000000
vertex 0.000095 0.005751 0.000000
endloop
endfacet
facet normal 0.000000 0.000000 -1.000000
outer loop
vertex 0.006319 0.002034 0.000000
vertex 0.006255 0.001978 0.000000
vertex 0.006047 0.001845 0.000000
endloop
endfacet
facet normal 0.000000 0.000000 -1.000000
outer loop
vertex 0.006441 0.002192 0.000000
vertex 0.006382 0.002104 0.000000
vertex 0.006319 0.002034 0.000000
endloop
endfacet
facet normal 0.000000 0.000000 -1.000000
outer loop
vertex 0.006601 0.002606 0.000000
vertex 0.006497 0.002301 0.000000
vertex 0.006441 0.002192 0.000000
endloop
endfacet
facet normal 0.000000 0.000000 -1.000000
outer loop
vertex 0.007065 0.004873 0.000000
vertex 0.006880 0.003798 0.000000
vertex 0.006601 0.002606 0.000000
endloop
endfacet
facet normal 0.000000 0.000000 -1.000000
outer loop
vertex 0.007065 0.004873 0.000000
vertex 0.006601 0.002606 0.000000
vertex 0.006441 0.002192 0.000000
endloop
endfacet
facet normal 0.000000 0.000000 -1.000000
outer loop
vertex 0.006441 0.002192 0.000000
vertex 0.006319 0.002034 0.000000
vertex 0.006047 0.001845 0.000000
endloop
endfacet
facet normal 0.000000 0.000000 -1.000000
outer loop
vertex 0.006047 0.001845 0.000000
vertex 0.000095 0.005751 0.000000
vertex 0.002242 0.007530 0.000000
endloop
endfacet
facet normal 0.000000 0.000000 -1.000000
outer loop
vertex 0.006047 0.001845 0.000000
vertex 0.002242 0.007530 0.000000
vertex 0.002393 0.007674 0.000000
endloop
endfacet
facet normal 0.000000 0.000000 -1.000000
outer loop
vertex 0.007065 0.004873 0.000000
vertex 0.006441 0.002192 0.000000
vertex 0.006047 0.001845 0.000000
endloop
endfacet
facet normal 0.000000 0.000000 -1.000000
outer loop
vertex 0.007108 0.005073 0.000000
vertex 0.007065 0.004873 0.000000
vertex 0.006047 0.001845 0.000000
endloop
endfacet
facet normal 0.000000 0.000000 -1.000000
outer loop
vertex 0.006047 0.001845 0.000000
vertex 0.002393 0.007674 0.000000
vertex 0.002558 0.007875 0.000000
endloop
endfacet
facet normal 0.000000 0.000000 -1.000000
outer loop
vertex 0.006047 0.001845 0.000000
vertex 0.002558 0.007875 0.000000
vertex 0.002604 0.007946 0.000000
endloop
endfacet
facet normal 0.000000 0.000000 -1.000000
outer loop
vertex 0.007152 0.005234 0.000000
vertex 0.007108 0.005073 0.000000
vertex 0.006047 0.001845 0.000000
endloop
endfacet
facet normal 0.000000 0.000000 -1.000000
outer loop
vertex 0.007626 0.006367 0.000000
vertex 0.007597 0.006274 0.000000
vertex 0.007340 0.005781 0.000000
endloop
endfacet
facet normal 0.000000 0.000000 -1.000000
outer loop
vertex 0.007152 0.005234 0.000000
vertex 0.006047 0.001845 0.000000
vertex 0.002604 0.007946 0.000000
endloop
endfacet
facet normal 0.000000 0.000000 -1.000000
outer loop
vertex 0.007648 0.006473 0.000000
vertex 0.007626 0.006367 0.000000
vertex 0.007340 0.005781 0.000000
endloop
endfacet
facet normal 0.000000 0.000000 -1.000000
outer loop
vertex 0.007340 0.005781 0.000000
vertex 0.007152 0.005234 0.000000
vertex 0.002604 0.007946 0.000000
endloop
endfacet
facet normal 0.000000 0.000000 -1.000000
outer loop
vertex 0.007340 0.005781 0.000000
vertex 0.002604 0.007946 0.000000
vertex 0.002650 0.008021 0.000000
endloop
endfacet
facet normal 0.000000 0.000000 -1.000000
outer loop
vertex 0.007660 0.006597 0.000000
vertex 0.007648 0.006473 0.000000
vertex 0.007340 0.005781 0.000000
endloop
endfacet
facet normal 0.000000 0.000000 -1.000000
outer loop
vertex 0.007533 0.008100 0.000000
vertex 0.007585 0.007844 0.000000
vertex 0.007660 0.006597 0.000000
endloop
endfacet
facet normal 0.000000 0.000000 -1.000000
outer loop
vertex 0.007432 0.008341 0.000000
vertex 0.007490 0.008222 0.000000
vertex 0.007533 0.008100 0.000000
endloop
endfacet
facet normal 0.000000 0.000000 -1.000000
outer loop
vertex 0.007260 0.008575 0.000000
vertex 0.007356 0.008458 0.000000
vertex 0.007432 0.008341 0.000000
endloop
endfacet
facet normal 0.000000 0.000000 -1.000000
outer loop
vertex 0.007033 0.008816 0.000000
vertex 0.007150 0.008693 0.000000
vertex 0.007260 0.008575 0.000000
endloop
endfacet
facet normal 0.000000 0.000000 -1.000000
outer loop
vertex 0.006784 0.009066 0.000000
vertex 0.006911 0.008941 0.000000
vertex 0.007033 0.008816 0.000000
endloop
endfacet
facet normal 0.000000 0.000000 -1.000000
outer loop
vertex 0.006525 0.009309 0.000000
vertex 0.006655 0.009190 0.000000
vertex 0.006784 0.009066 0.000000
endloop
endfacet
facet normal 0.000000 0.000000 -1.000000
outer loop
vertex 0.006266 0.009530 0.000000
vertex 0.006395 0.009423 0.000000
vertex 0.006525 0.009309 0.000000
endloop
endfacet
facet normal 0.000000 0.000000 -1.000000
outer loop
vertex 0.005790 0.009840 0.000000
vertex 0.006017 0.009712 0.000000
vertex 0.006266 0.009530 0.000000
endloop
endfacet
facet normal 0.000000 0.000000 -1.000000
outer loop
vertex 0.005484 0.009964 0.000000
vertex 0.005584 0.009927 0.000000
vertex 0.005790 0.009840 0.000000
endloop
endfacet
facet normal 0.000000 0.000000 -1.000000
outer loop
vertex 0.005191 0.010043 0.000000
vertex 0.005385 0.009995 0.000000
vertex 0.005484 0.009964 0.000000
endloop
endfacet
facet normal 0.000000 0.000000 -1.000000
outer loop
vertex 0.004798 0.010082 0.000000
vertex 0.004997 0.010072 0.000000
vertex 0.005191 0.010043 0.000000
endloop
endfacet
facet normal 0.000000 0.000000 -1.000000
outer loop
vertex 0.004482 0.010059 0.000000
vertex 0.004592 0.010072 0.000000
vertex 0.004798 0.010082 0.000000
endloop
endfacet
facet normal 0.000000 0.000000 -1.000000
outer loop
vertex 0.004132 0.009985 0.000000
vertex 0.004367 0.010039 0.000000
vertex 0.004482 0.010059 0.000000
endloop
endfacet
facet normal 0.000000 0.000000 -1.000000
outer loop
vertex 0.003910 0.009922 0.000000
vertex 0.004018 0.009954 0.000000
vertex 0.004132 0.009985 0.000000
endloop
endfacet
facet normal 0.000000 0.000000 -1.000000
outer loop
vertex 0.003547 0.009801 0.000000
vertex 0.003724 0.009863 0.000000
vertex 0.003910 0.009922 0.000000
endloop
endfacet
facet normal 0.000000 0.000000 -1.000000
outer loop
vertex 0.003505 0.009749 0.000000
vertex 0.003528 0.009777 0.000000
vertex 0.003547 0.009801 0.000000
endloop
endfacet
facet normal 0.000000 0.000000 -1.000000
outer loop
vertex 0.003444 0.009667 0.000000
vertex 0.003477 0.009712 0.000000
vertex 0.003505 0.009749 0.000000
endloop
endfacet
facet normal 0.000000 0.000000 -1.000000
outer loop
vertex 0.003369 0.009557 0.000000
vertex 0.003407 0.009615 0.000000
vertex 0.003444 0.009667 0.000000
endloop
endfacet
facet normal 0.000000 0.000000 -1.000000
outer loop
vertex 0.003261 0.009363 0.000000
vertex 0.003331 0.009495 0.000000
vertex 0.003369 0.009557 0.000000
endloop
endfacet
facet normal 0.000000 0.000000 -1.000000
outer loop
vertex 0.003184 0.009121 0.000000
vertex 0.003209 0.009227 0.000000
vertex 0.003261 0.009363 0.000000
endloop
endfacet
facet normal 0.000000 0.000000 -1.000000
outer loop
vertex 0.003169 0.009018 0.000000
vertex 0.003184 0.009121 0.000000
vertex 0.003261 0.009363 0.000000
endloop
endfacet
facet normal 0.000000 0.000000 -1.000000
outer loop
vertex 0.003261 0.009363 0.000000
vertex 0.003369 0.009557 0.000000
vertex 0.003444 0.009667 0.000000
endloop
endfacet
facet normal 0.000000 0.000000 -1.000000
outer loop
vertex 0.003444 0.009667 0.000000
vertex 0.003505 0.009749 0.000000
vertex 0.003547 0.009801 0.000000
endloop
endfacet
facet normal 0.000000 0.000000 -1.000000
outer loop
vertex 0.003547 0.009801 0.000000
vertex 0.003910 0.009922 0.000000
vertex 0.004132 0.009985 0.000000
endloop
endfacet
facet normal 0.000000 0.000000 -1.000000
outer loop
vertex 0.004132 0.009985 0.000000
vertex 0.004482 0.010059 0.000000
vertex 0.004798 0.010082 0.000000
endloop
endfacet
facet normal 0.000000 0.000000 -1.000000
outer loop
vertex 0.004798 0.010082 0.000000
vertex 0.005191 0.010043 0.000000
vertex 0.005484 0.009964 0.000000
endloop
endfacet
facet normal 0.000000 0.000000 -1.000000
outer loop
vertex 0.005484 0.009964 0.000000
vertex 0.005790 0.009840 0.000000
vertex 0.006266 0.009530 0.000000
endloop
endfacet
facet normal 0.000000 0.000000 -1.000000
outer loop
vertex 0.006266 0.009530 0.000000
vertex 0.006525 0.009309 0.000000
vertex 0.006784 0.009066 0.000000
endloop
endfacet
facet normal 0.000000 0.000000 -1.000000
outer loop
vertex 0.006784 0.009066 0.000000
vertex 0.007033 0.008816 0.000000
vertex 0.007260 0.008575 0.000000
endloop
endfacet
facet normal 0.000000 0.000000 -1.000000
outer loop
vertex 0.007260 0.008575 0.000000
vertex 0.007432 0.008341 0.000000
vertex 0.007533 0.008100 0.000000
endloop
endfacet
facet normal 0.000000 0.000000 -1.000000
outer loop
vertex 0.007533 0.008100 0.000000
vertex 0.007660 0.006597 0.000000
vertex 0.007340 0.005781 0.000000
endloop
endfacet
facet normal 0.000000 0.000000 -1.000000
outer loop
vertex 0.007340 0.005781 0.000000
vertex 0.002650 0.008021 0.000000
vertex 0.003061 0.008757 0.000000
endloop
endfacet
facet normal 0.000000 0.000000 -1.000000
outer loop
vertex 0.007340 0.005781 0.000000
vertex 0.003061 0.008757 0.000000
vertex 0.003129 0.008897 0.000000
endloop
endfacet
facet normal 0.000000 0.000000 -1.000000
outer loop
vertex 0.007260 0.008575 0.000000
vertex 0.007533 0.008100 0.000000
vertex 0.007340 0.005781 0.000000
endloop
endfacet
facet normal 0.000000 0.000000 -1.000000
outer loop
vertex 0.006266 0.009530 0.000000
vertex 0.006784 0.009066 0.000000
vertex 0.007260 0.008575 0.000000
endloop
endfacet
facet normal 0.000000 0.000000 -1.000000
outer loop
vertex 0.004798 0.010082 0.000000
vertex 0.005484 0.009964 0.000000
vertex 0.006266 0.009530 0.000000
endloop
endfacet
facet normal 0.000000 0.000000 -1.000000
outer loop
vertex 0.003547 0.009801 0.000000
vertex 0.004132 0.009985 0.000000
vertex 0.004798 0.010082 0.000000
endloop
endfacet
facet normal 0.000000 0.000000 -1.000000
outer loop
vertex 0.003261 0.009363 0.000000
vertex 0.003444 0.009667 0.000000
vertex 0.003547 0.009801 0.000000
endloop
endfacet
facet normal 0.000000 0.000000 -1.000000
outer loop
vertex 0.003161 0.008984 0.000000
vertex 0.003169 0.009018 0.000000
vertex 0.003261 0.009363 0.000000
endloop
endfacet
facet normal 0.000000 0.000000 -1.000000
outer loop
vertex 0.007340 0.005781 0.000000
vertex 0.003129 0.008897 0.000000
vertex 0.003161 0.008984 0.000000
endloop
endfacet
facet normal 0.000000 0.000000 -1.000000
outer loop
vertex 0.006266 0.009530 0.000000
vertex 0.007260 0.008575 0.000000
vertex 0.007340 0.005781 0.000000
endloop
endfacet
facet normal 0.000000 0.000000 -1.000000
outer loop
vertex 0.003547 0.009801 0.000000
vertex 0.004798 0.010082 0.000000
vertex 0.006266 0.009530 0.000000
endloop
endfacet
facet normal 0.000000 0.000000 -1.000000
outer loop
vertex 0.003161 0.008984 0.000000
vertex 0.003261 0.009363 0.000000
vertex 0.003547 0.009801 0.000000
endloop
endfacet
facet normal 0.000000 0.000000 -1.000000
outer loop
vertex 0.006266 0.009530 0.000000
vertex 0.007340 0.005781 0.000000
vertex 0.003161 0.008984 0.000000
endloop
endfacet
facet normal 0.000000 0.000000 -1.000000
outer loop
vertex 0.003161 0.008984 0.000000
vertex 0.003547 0.009801 0.000000
vertex 0.006266 0.009530 0.000000
endloop
endfacet
facet normal 0.591460 0.806334 0.000000
outer loop
vertex 0.006266 0.009530 0.000000
vertex 0.006017 0.009712 0.000000
vertex 0.006017 0.009712 0.150000
endloop
endfacet
facet normal 0.591462 0.806333 0.000000
outer loop
vertex 0.006266 0.009530 0.000000
vertex 0.006017 0.009712 0.150000
vertex 0.006266 0.009530 0.150000
endloop
endfacet
facet normal 0.000000 0.000000 1.000000
outer loop
vertex 0.001582 0.001689 0.000000
vertex 0.001658 0.001574 0.000000
vertex 0.001736 0.001465 0.000000
endloop
endfacet
facet normal -0.792524 -0.609840 0.000000
outer loop
vertex 0.001736 0.001465 0.000000
vertex 0.001817 0.001360 0.000000
vertex 0.001817 0.001360 0.150000
endloop
endfacet
facet normal -0.792524 -0.609840 0.000000
outer loop
vertex 0.001736 0.001465 0.000000
vertex 0.001817 0.001360 0.150000
vertex 0.001736 0.001465 0.150000
endloop
endfacet
facet normal 0.000000 0.000000 1.000000
outer loop
vertex 0.001505 0.001811 0.000000
vertex 0.001582 0.001689 0.000000
vertex 0.001736 0.001465 0.000000
endloop
endfacet
facet normal -0.834656 -0.550772 0.000000
outer loop
vertex 0.001426 0.001931 0.150000
vertex 0.001426 0.001931 0.000000
vertex 0.001505 0.001811 0.000000
endloop
endfacet
facet normal -0.834656 -0.550771 0.000000
outer loop
vertex 0.001505 0.001811 0.150000
vertex 0.001426 0.001931 0.150000
vertex 0.001505 0.001811 0.000000
endloop
endfacet
facet normal -0.831513 -0.555506 0.000000
outer loop
vertex 0.001505 0.001811 0.000000
vertex 0.001736 0.001465 0.000000
vertex 0.001736 0.001465 0.150000
endloop
endfacet
facet normal -0.814402 -0.580301 -0.000084
outer loop
vertex 0.001505 0.001811 0.000000
vertex 0.001736 0.001465 0.150000
vertex 0.001658 0.001574 0.150000
endloop
endfacet
facet normal -0.846077 -0.533061 0.000000
outer loop
vertex 0.001582 0.001689 0.150000
vertex 0.001505 0.001811 0.150000
vertex 0.001505 0.001811 0.000000
endloop
endfacet
facet normal -0.832271 -0.554368 -0.000024
outer loop
vertex 0.001658 0.001574 0.150000
vertex 0.001582 0.001689 0.150000
vertex 0.001505 0.001811 0.000000
endloop
endfacet
facet normal -0.000059 0.000000 1.000000
outer loop
vertex 0.005191 0.010043 0.150000
vertex 0.004997 0.010072 0.150000
vertex 0.004798 0.010082 0.150000
endloop
endfacet
facet normal 0.000000 0.000000 1.000000
outer loop
vertex 0.004798 0.010082 0.150000
vertex 0.004592 0.010072 0.150000
vertex 0.004482 0.010059 0.150000
endloop
endfacet
facet normal 0.001212 0.000000 0.999999
outer loop
vertex 0.004482 0.010059 0.150000
vertex 0.004367 0.010039 0.150000
vertex 0.004132 0.009985 0.150000
endloop
endfacet
facet normal 0.000000 0.000000 1.000000
outer loop
vertex 0.004132 0.009985 0.150000
vertex 0.004018 0.009954 0.150000
vertex 0.003910 0.009922 0.150000
endloop
endfacet
facet normal 0.000000 0.000000 1.000000
outer loop
vertex 0.003910 0.009922 0.150000
vertex 0.003724 0.009863 0.150000
vertex 0.003547 0.009801 0.150000
endloop
endfacet
facet normal -0.045025 0.000000 0.998986
outer loop
vertex 0.003547 0.009801 0.150000
vertex 0.003528 0.009777 0.150000
vertex 0.003505 0.009749 0.150000
endloop
endfacet
facet normal -0.017220 0.000000 0.999852
outer loop
vertex 0.003505 0.009749 0.150000
vertex 0.003477 0.009712 0.150000
vertex 0.003444 0.009667 0.150000
endloop
endfacet
facet normal -0.015128 0.000000 0.999885
outer loop
vertex 0.003444 0.009667 0.150000
vertex 0.003407 0.009615 0.150000
vertex 0.003369 0.009557 0.150000
endloop
endfacet
facet normal 0.000000 0.000000 1.000000
outer loop
vertex 0.003369 0.009557 0.150000
vertex 0.003331 0.009495 0.150000
vertex 0.003261 0.009363 0.150000
endloop
endfacet
facet normal 0.000000 0.000000 1.000000
outer loop
vertex 0.003261 0.009363 0.150000
vertex 0.003209 0.009227 0.150000
vertex 0.003184 0.009121 0.150000
endloop
endfacet
facet normal -0.000858 0.000000 1.000000
outer loop
vertex 0.003261 0.009363 0.150000
vertex 0.003184 0.009121 0.150000
vertex 0.003169 0.009018 0.150000
endloop
endfacet
facet normal 0.000000 0.000000 1.000000
outer loop
vertex 0.003444 0.009667 0.150000
vertex 0.003369 0.009557 0.150000
vertex 0.003261 0.009363 0.150000
endloop
endfacet
facet normal 0.007184 0.000000 0.999974
outer loop
vertex 0.003547 0.009801 0.150000
vertex 0.003505 0.009749 0.150000
vertex 0.003444 0.009667 0.150000
endloop
endfacet
facet normal 0.000000 0.000000 1.000000
outer loop
vertex 0.004132 0.009985 0.150000
vertex 0.003910 0.009922 0.150000
vertex 0.003547 0.009801 0.150000
endloop
endfacet
facet normal 0.000000 0.000000 1.000000
outer loop
vertex 0.004798 0.010082 0.150000
vertex 0.004482 0.010059 0.150000
vertex 0.004132 0.009985 0.150000
endloop
endfacet
facet normal 0.000000 0.000000 1.000000
outer loop
vertex 0.005385 0.009995 0.150000
vertex 0.005191 0.010043 0.150000
vertex 0.004798 0.010082 0.150000
endloop
endfacet
facet normal 0.000000 0.000000 1.000000
outer loop
vertex 0.005584 0.009927 0.150000
vertex 0.005484 0.009964 0.150000
vertex 0.005385 0.009995 0.150000
endloop
endfacet
facet normal 0.000000 0.000000 1.000000
outer loop
vertex 0.006017 0.009712 0.150000
vertex 0.005790 0.009840 0.150000
vertex 0.005584 0.009927 0.150000
endloop
endfacet
facet normal -0.001243 0.000000 0.999999
outer loop
vertex 0.006395 0.009423 0.150000
vertex 0.006266 0.009530 0.150000
vertex 0.006017 0.009712 0.150000
endloop
endfacet
facet normal 0.004958 0.000000 0.999988
outer loop
vertex 0.006655 0.009190 0.150000
vertex 0.006525 0.009309 0.150000
vertex 0.006395 0.009423 0.150000
endloop
endfacet
facet normal 0.000000 0.000000 1.000000
outer loop
vertex 0.006911 0.008941 0.150000
vertex 0.006784 0.009066 0.150000
vertex 0.006655 0.009190 0.150000
endloop
endfacet
facet normal 0.000000 0.000000 1.000000
outer loop
vertex 0.007150 0.008693 0.150000
vertex 0.007033 0.008816 0.150000
vertex 0.006911 0.008941 0.150000
endloop
endfacet
facet normal 0.002481 0.000000 0.999997
outer loop
vertex 0.007356 0.008458 0.150000
vertex 0.007260 0.008575 0.150000
vertex 0.007150 0.008693 0.150000
endloop
endfacet
facet normal 0.000000 0.000000 1.000000
outer loop
vertex 0.007490 0.008222 0.150000
vertex 0.007432 0.008341 0.150000
vertex 0.007356 0.008458 0.150000
endloop
endfacet
facet normal 0.000768 0.000000 1.000000
outer loop
vertex 0.007585 0.007844 0.150000
vertex 0.007533 0.008100 0.150000
vertex 0.007490 0.008222 0.150000
endloop
endfacet
facet normal -0.001213 0.000000 0.999999
outer loop
vertex 0.007648 0.006473 0.150000
vertex 0.007660 0.006597 0.150000
vertex 0.007585 0.007844 0.150000
endloop
endfacet
facet normal 0.003177 0.000000 0.999995
outer loop
vertex 0.007597 0.006274 0.150000
vertex 0.007626 0.006367 0.150000
vertex 0.007648 0.006473 0.150000
endloop
endfacet
facet normal 0.000000 0.000000 1.000000
outer loop
vertex 0.007340 0.005781 0.150000
vertex 0.007597 0.006274 0.150000
vertex 0.007648 0.006473 0.150000
endloop
endfacet
facet normal 0.000000 0.000000 1.000000
outer loop
vertex 0.007648 0.006473 0.150000
vertex 0.007585 0.007844 0.150000
vertex 0.007490 0.008222 0.150000
endloop
endfacet
facet normal 0.000000 0.000000 1.000000
outer loop
vertex 0.007490 0.008222 0.150000
vertex 0.007356 0.008458 0.150000
vertex 0.007150 0.008693 0.150000
endloop
endfacet
facet normal 0.000000 0.000000 1.000000
outer loop
vertex 0.007150 0.008693 0.150000
vertex 0.006911 0.008941 0.150000
vertex 0.006655 0.009190 0.150000
endloop
endfacet
facet normal 0.000000 0.000000 1.000000
outer loop
vertex 0.006655 0.009190 0.150000
vertex 0.006395 0.009423 0.150000
vertex 0.006017 0.009712 0.150000
endloop
endfacet
facet normal 0.000135 0.000000 1.000000
outer loop
vertex 0.006017 0.009712 0.150000
vertex 0.005584 0.009927 0.150000
vertex 0.005385 0.009995 0.150000
endloop
endfacet
facet normal 0.000000 0.000000 1.000000
outer loop
vertex 0.005385 0.009995 0.150000
vertex 0.004798 0.010082 0.150000
vertex 0.004132 0.009985 0.150000
endloop
endfacet
facet normal -0.000061 0.000000 1.000000
outer loop
vertex 0.004132 0.009985 0.150000
vertex 0.003547 0.009801 0.150000
vertex 0.003444 0.009667 0.150000
endloop
endfacet
facet normal 0.000208 0.000000 1.000000
outer loop
vertex 0.003444 0.009667 0.150000
vertex 0.003261 0.009363 0.150000
vertex 0.003169 0.009018 0.150000
endloop
endfacet
facet normal 0.000000 0.000000 1.000000
outer loop
vertex 0.003444 0.009667 0.150000
vertex 0.003169 0.009018 0.150000
vertex 0.003161 0.008984 0.150000
endloop
endfacet
facet normal 0.000000 0.000000 1.000000
outer loop
vertex 0.005385 0.009995 0.150000
vertex 0.004132 0.009985 0.150000
vertex 0.003444 0.009667 0.150000
endloop
endfacet
facet normal -0.000049 0.000000 1.000000
outer loop
vertex 0.006655 0.009190 0.150000
vertex 0.006017 0.009712 0.150000
vertex 0.005385 0.009995 0.150000
endloop
endfacet
facet normal 0.000000 0.000000 1.000000
outer loop
vertex 0.007490 0.008222 0.150000
vertex 0.007150 0.008693 0.150000
vertex 0.006655 0.009190 0.150000
endloop
endfacet
facet normal 0.000000 0.000000 1.000000
outer loop
vertex 0.007340 0.005781 0.150000
vertex 0.007648 0.006473 0.150000
vertex 0.007490 0.008222 0.150000
endloop
endfacet
facet normal 0.000000 0.000000 1.000000
outer loop
vertex 0.007152 0.005234 0.150000
vertex 0.007340 0.005781 0.150000
vertex 0.007490 0.008222 0.150000
endloop
endfacet
facet normal 0.000000 0.000000 1.000000
outer loop
vertex 0.007490 0.008222 0.150000
vertex 0.006655 0.009190 0.150000
vertex 0.005385 0.009995 0.150000
endloop
endfacet
facet normal 0.000000 0.000000 1.000000
outer loop
vertex 0.005385 0.009995 0.150000
vertex 0.003444 0.009667 0.150000
vertex 0.003161 0.008984 0.150000
endloop
endfacet
facet normal -0.000067 0.000000 1.000000
outer loop
vertex 0.005385 0.009995 0.150000
vertex 0.003161 0.008984 0.150000
vertex 0.003129 0.008897 0.150000
endloop
endfacet
facet normal -0.000008 0.000000 1.000000
outer loop
vertex 0.007152 0.005234 0.150000
vertex 0.007490 0.008222 0.150000
vertex 0.005385 0.009995 0.150000
endloop
endfacet
facet normal 0.000000 0.000000 1.000000
outer loop
vertex 0.007108 0.005073 0.150000
vertex 0.007152 0.005234 0.150000
vertex 0.005385 0.009995 0.150000
endloop
endfacet
facet normal -0.000015 0.000000 1.000000
outer loop
vertex 0.005385 0.009995 0.150000
vertex 0.003129 0.008897 0.150000
vertex 0.003061 0.008757 0.150000
endloop
endfacet
facet normal 0.000000 0.000000 1.000000
outer loop
vertex 0.005385 0.009995 0.150000
vertex 0.003061 0.008757 0.150000
vertex 0.002650 0.008021 0.150000
endloop
endfacet
facet normal 0.000000 0.000000 1.000000
outer loop
vertex 0.007065 0.004873 0.150000
vertex 0.007108 0.005073 0.150000
vertex 0.005385 0.009995 0.150000
endloop
endfacet
facet normal -0.000363 0.000000 1.000000
outer loop
vertex 0.006601 0.002606 0.150000
vertex 0.006880 0.003798 0.150000
vertex 0.007065 0.004873 0.150000
endloop
endfacet
facet normal 0.000000 0.000000 1.000000
outer loop
vertex 0.006441 0.002192 0.150000
vertex 0.006497 0.002301 0.150000
vertex 0.006601 0.002606 0.150000
endloop
endfacet
facet normal 0.000000 0.000000 1.000000
outer loop
vertex 0.006319 0.002034 0.150000
vertex 0.006382 0.002104 0.150000
vertex 0.006441 0.002192 0.150000
endloop
endfacet
facet normal 0.000000 0.000000 1.000000
outer loop
vertex 0.006188 0.001930 0.150000
vertex 0.006255 0.001978 0.150000
vertex 0.006319 0.002034 0.150000
endloop
endfacet
facet normal 0.009653 0.000000 0.999953
outer loop
vertex 0.006047 0.001845 0.150000
vertex 0.006118 0.001887 0.150000
vertex 0.006188 0.001930 0.150000
endloop
endfacet
facet normal 0.000000 0.000000 1.000000
outer loop
vertex 0.006047 0.001845 0.150000
vertex 0.006188 0.001930 0.150000
vertex 0.006319 0.002034 0.150000
endloop
endfacet
facet normal 0.000000 0.000000 1.000000
outer loop
vertex 0.006319 0.002034 0.150000
vertex 0.006441 0.002192 0.150000
vertex 0.006601 0.002606 0.150000
endloop
endfacet
facet normal 0.000019 0.000000 1.000000
outer loop
vertex 0.006601 0.002606 0.150000
vertex 0.007065 0.004873 0.150000
vertex 0.005385 0.009995 0.150000
endloop
endfacet
facet normal 0.000205 0.000000 1.000000
outer loop
vertex 0.005385 0.009995 0.150000
vertex 0.002650 0.008021 0.150000
vertex 0.002604 0.007946 0.150000
endloop
endfacet
facet normal 0.000127 0.000000 1.000000
outer loop
vertex 0.005385 0.009995 0.150000
vertex 0.002604 0.007946 0.150000
vertex 0.002558 0.007875 0.150000
endloop
endfacet
facet normal -0.000084 0.000000 1.000000
outer loop
vertex 0.006319 0.002034 0.150000
vertex 0.006601 0.002606 0.150000
vertex 0.005385 0.009995 0.150000
endloop
endfacet
facet normal 0.003508 0.000000 0.999994
outer loop
vertex 0.005973 0.001797 0.150000
vertex 0.006047 0.001845 0.150000
vertex 0.006319 0.002034 0.150000
endloop
endfacet
facet normal 0.000078 0.000000 1.000000
outer loop
vertex 0.005973 0.001797 0.150000
vertex 0.006319 0.002034 0.150000
vertex 0.005385 0.009995 0.150000
endloop
endfacet
facet normal 0.000017 0.000000 1.000000
outer loop
vertex 0.005385 0.009995 0.150000
vertex 0.002558 0.007875 0.150000
vertex 0.002393 0.007674 0.150000
endloop
endfacet
facet normal -0.000133 0.000000 1.000000
outer loop
vertex 0.005385 0.009995 0.150000
vertex 0.002393 0.007674 0.150000
vertex 0.002242 0.007530 0.150000
endloop
endfacet
facet normal 0.000000 0.000000 1.000000
outer loop
vertex 0.005898 0.001741 0.150000
vertex 0.005973 0.001797 0.150000
vertex 0.005385 0.009995 0.150000
endloop
endfacet
facet normal 0.000000 0.000000 1.000000
outer loop
vertex 0.005821 0.001672 0.150000
vertex 0.005898 0.001741 0.150000
vertex 0.005385 0.009995 0.150000
endloop
endfacet
facet normal -0.002528 0.000000 0.999997
outer loop
vertex 0.005385 0.009995 0.150000
vertex 0.002242 0.007530 0.150000
vertex 0.002145 0.007453 0.150000
endloop
endfacet
facet normal 0.000000 0.000000 1.000000
outer loop
vertex 0.001776 0.007232 0.150000
vertex 0.000223 0.006605 0.150000
vertex 0.000205 0.006468 0.150000
endloop
endfacet
facet normal -0.000004 0.000000 1.000000
outer loop
vertex 0.005821 0.001672 0.150000
vertex 0.005385 0.009995 0.150000
vertex 0.002145 0.007453 0.150000
endloop
endfacet
facet normal 0.000023 0.000000 1.000000
outer loop
vertex 0.001776 0.007232 0.150000
vertex 0.000205 0.006468 0.150000
vertex 0.000136 0.006032 0.150000
endloop
endfacet
facet normal -0.000047 0.000000 1.000000
outer loop
vertex 0.005821 0.001672 0.150000
vertex 0.002145 0.007453 0.150000
vertex 0.001776 0.007232 0.150000
endloop
endfacet
facet normal 0.000000 0.000000 1.000000
outer loop
vertex 0.004677 0.000406 0.150000
vertex 0.004924 0.000672 0.150000
vertex 0.005737 0.001584 0.150000
endloop
endfacet
facet normal 0.000142 0.000000 1.000000
outer loop
vertex 0.005737 0.001584 0.150000
vertex 0.005821 0.001672 0.150000
vertex 0.001776 0.007232 0.150000
endloop
endfacet
facet normal 0.000000 0.000000 1.000000
outer loop
vertex 0.001776 0.007232 0.150000
vertex 0.000136 0.006032 0.150000
vertex 0.000095 0.005751 0.150000
endloop
endfacet
facet normal -0.002491 0.000000 0.999997
outer loop
vertex 0.000095 0.005751 0.150000
vertex 0.000056 0.005442 0.150000
vertex 0.000024 0.005115 0.150000
endloop
endfacet
facet normal 0.000781 0.000000 1.000000
outer loop
vertex 0.000024 0.005115 0.150000
vertex 0.000004 0.004780 0.150000
vertex 0.000021 0.004124 0.150000
endloop
endfacet
facet normal 0.000654 0.000000 1.000000
outer loop
vertex 0.000021 0.004124 0.150000
vertex 0.000067 0.003823 0.150000
vertex 0.000146 0.003554 0.150000
endloop
endfacet
facet normal 0.000418 0.000000 1.000000
outer loop
vertex 0.000146 0.003554 0.150000
vertex 0.000262 0.003326 0.150000
vertex 0.000521 0.002965 0.150000
endloop
endfacet
facet normal 0.000000 0.000000 1.000000
outer loop
vertex 0.000521 0.002965 0.150000
vertex 0.000642 0.002816 0.150000
vertex 0.000757 0.002682 0.150000
endloop
endfacet
facet normal 0.000000 0.000000 1.000000
outer loop
vertex 0.000757 0.002682 0.150000
vertex 0.000867 0.002562 0.150000
vertex 0.001166 0.002246 0.150000
endloop
endfacet
facet normal 0.000000 0.000000 1.000000
outer loop
vertex 0.000521 0.002965 0.150000
vertex 0.000757 0.002682 0.150000
vertex 0.001166 0.002246 0.150000
endloop
endfacet
facet normal -0.000104 0.000000 1.000000
outer loop
vertex 0.000021 0.004124 0.150000
vertex 0.000146 0.003554 0.150000
vertex 0.000521 0.002965 0.150000
endloop
endfacet
facet normal 0.000000 0.000000 1.000000
outer loop
vertex 0.000095 0.005751 0.150000
vertex 0.000024 0.005115 0.150000
vertex 0.000021 0.004124 0.150000
endloop
endfacet
facet normal 0.000004 0.000000 1.000000
outer loop
vertex 0.005737 0.001584 0.150000
vertex 0.001776 0.007232 0.150000
vertex 0.000095 0.005751 0.150000
endloop
endfacet
facet normal 0.000000 0.000000 1.000000
outer loop
vertex 0.004560 0.000288 0.150000
vertex 0.004677 0.000406 0.150000
vertex 0.005737 0.001584 0.150000
endloop
endfacet
facet normal 0.000000 0.000000 1.000000
outer loop
vertex 0.004340 0.000101 0.150000
vertex 0.004450 0.000184 0.150000
vertex 0.004560 0.000288 0.150000
endloop
endfacet
facet normal 0.000000 0.000000 1.000000
outer loop
vertex 0.004097 0.000011 0.150000
vertex 0.004222 0.000044 0.150000
vertex 0.004340 0.000101 0.150000
endloop
endfacet
facet normal -0.000081 0.000000 1.000000
outer loop
vertex 0.003828 0.000010 0.150000
vertex 0.003966 0.000000 0.150000
vertex 0.004097 0.000011 0.150000
endloop
endfacet
facet normal -0.000131 0.000000 1.000000
outer loop
vertex 0.003385 0.000151 0.150000
vertex 0.003685 0.000040 0.150000
vertex 0.003828 0.000010 0.150000
endloop
endfacet
facet normal 0.000000 0.000000 1.000000
outer loop
vertex 0.002908 0.000422 0.150000
vertex 0.003070 0.000320 0.150000
vertex 0.003385 0.000151 0.150000
endloop
endfacet
facet normal 0.000000 0.000000 1.000000
outer loop
vertex 0.002444 0.000756 0.150000
vertex 0.002744 0.000534 0.150000
vertex 0.002908 0.000422 0.150000
endloop
endfacet
facet normal -0.004267 0.000000 0.999991
outer loop
vertex 0.002198 0.000961 0.150000
vertex 0.002315 0.000860 0.150000
vertex 0.002444 0.000756 0.150000
endloop
endfacet
facet normal 0.000000 0.000000 1.000000
outer loop
vertex 0.001993 0.001159 0.150000
vertex 0.002091 0.001060 0.150000
vertex 0.002198 0.000961 0.150000
endloop
endfacet
facet normal 0.001658 0.000000 0.999999
outer loop
vertex 0.001736 0.001465 0.150000
vertex 0.001817 0.001360 0.150000
vertex 0.001993 0.001159 0.150000
endloop
endfacet
facet normal 0.000000 0.000000 1.000000
outer loop
vertex 0.001582 0.001689 0.150000
vertex 0.001658 0.001574 0.150000
vertex 0.001736 0.001465 0.150000
endloop
endfacet
facet normal 0.000000 0.000000 1.000000
outer loop
vertex 0.001505 0.001811 0.150000
vertex 0.001582 0.001689 0.150000
vertex 0.001736 0.001465 0.150000
endloop
endfacet
facet normal 0.000305 0.000000 1.000000
outer loop
vertex 0.001736 0.001465 0.150000
vertex 0.001993 0.001159 0.150000
vertex 0.002198 0.000961 0.150000
endloop
endfacet
facet normal 0.000565 0.000000 1.000000
outer loop
vertex 0.002198 0.000961 0.150000
vertex 0.002444 0.000756 0.150000
vertex 0.002908 0.000422 0.150000
endloop
endfacet
facet normal 0.000000 0.000000 1.000000
outer loop
vertex 0.002908 0.000422 0.150000
vertex 0.003385 0.000151 0.150000
vertex 0.003828 0.000010 0.150000
endloop
endfacet
facet normal 0.000150 0.000000 1.000000
outer loop
vertex 0.003828 0.000010 0.150000
vertex 0.004097 0.000011 0.150000
vertex 0.004340 0.000101 0.150000
endloop
endfacet
facet normal 0.000000 0.000000 1.000000
outer loop
vertex 0.004340 0.000101 0.150000
vertex 0.004560 0.000288 0.150000
vertex 0.005737 0.001584 0.150000
endloop
endfacet
facet normal 0.000000 0.000000 1.000000
outer loop
vertex 0.005737 0.001584 0.150000
vertex 0.000095 0.005751 0.150000
vertex 0.000021 0.004124 0.150000
endloop
endfacet
facet normal -0.000038 0.000000 1.000000
outer loop
vertex 0.000021 0.004124 0.150000
vertex 0.000521 0.002965 0.150000
vertex 0.001166 0.002246 0.150000
endloop
endfacet
facet normal 0.000863 0.000000 1.000000
outer loop
vertex 0.000021 0.004124 0.150000
vertex 0.001166 0.002246 0.150000
vertex 0.001256 0.002146 0.150000
endloop
endfacet
facet normal -0.000015 0.000000 1.000000
outer loop
vertex 0.004340 0.000101 0.150000
vertex 0.005737 0.001584 0.150000
vertex 0.000021 0.004124 0.150000
endloop
endfacet
facet normal -0.000031 0.000000 1.000000
outer loop
vertex 0.002908 0.000422 0.150000
vertex 0.003828 0.000010 0.150000
vertex 0.004340 0.000101 0.150000
endloop
endfacet
facet normal 0.000000 0.000000 1.000000
outer loop
vertex 0.001736 0.001465 0.150000
vertex 0.002198 0.000961 0.150000
vertex 0.002908 0.000422 0.150000
endloop
endfacet
facet normal -0.021385 0.000000 0.999771
outer loop
vertex 0.001426 0.001931 0.150000
vertex 0.001505 0.001811 0.150000
vertex 0.001736 0.001465 0.150000
endloop
endfacet
facet normal -0.000765 0.000000 1.000000
outer loop
vertex 0.000021 0.004124 0.150000
vertex 0.001256 0.002146 0.150000
vertex 0.001343 0.002042 0.150000
endloop
endfacet
facet normal 0.000000 0.000000 1.000000
outer loop
vertex 0.001426 0.001931 0.150000
vertex 0.001736 0.001465 0.150000
vertex 0.002908 0.000422 0.150000
endloop
endfacet
facet normal -0.001243 0.000000 0.999999
outer loop
vertex 0.000021 0.004124 0.150000
vertex 0.001343 0.002042 0.150000
vertex 0.001426 0.001931 0.150000
endloop
endfacet
facet normal 0.000000 0.000000 1.000000
outer loop
vertex 0.002908 0.000422 0.150000
vertex 0.004340 0.000101 0.150000
vertex 0.000021 0.004124 0.150000
endloop
endfacet
facet normal 0.000077 0.000000 1.000000
outer loop
vertex 0.000021 0.004124 0.150000
vertex 0.001426 0.001931 0.150000
vertex 0.002908 0.000422 0.150000
endloop
endfacet
facet normal 0.601909 -0.798565 0.000000
outer loop
vertex 0.004340 0.000101 0.150000
vertex 0.004340 0.000101 0.000000
vertex 0.004450 0.000184 0.000000
endloop
endfacet
facet normal 0.601912 -0.798563 0.000000
outer loop
vertex 0.004340 0.000101 0.150000
vertex 0.004450 0.000184 0.000000
vertex 0.004450 0.000184 0.150000
endloop
endfacet
facet normal 0.000000 0.000000 -1.000000
outer loop
vertex 0.004924 0.000672 0.000000
vertex 0.005737 0.001584 0.000000
vertex 0.005821 0.001672 0.000000
endloop
endfacet
facet normal 0.719030 -0.694979 0.000000
outer loop
vertex 0.005821 0.001672 0.000000
vertex 0.005821 0.001672 0.150000
vertex 0.005737 0.001584 0.150000
endloop
endfacet
facet normal 0.746939 -0.664893 0.000033
outer loop
vertex 0.005821 0.001672 0.000000
vertex 0.005737 0.001584 0.150000
vertex 0.004924 0.000672 0.150000
endloop
endfacet
facet normal 0.744471 -0.667655 0.000000
outer loop
vertex 0.004924 0.000672 0.000000
vertex 0.005821 0.001672 0.000000
vertex 0.004924 0.000672 0.150000
endloop
endfacet
facet normal 0.731220 -0.682141 0.000000
outer loop
vertex 0.004924 0.000672 0.000000
vertex 0.004924 0.000672 0.150000
vertex 0.004677 0.000406 0.150000
endloop
endfacet
facet normal 0.731219 -0.682142 0.000000
outer loop
vertex 0.004677 0.000406 0.000000
vertex 0.004924 0.000672 0.000000
vertex 0.004677 0.000406 0.150000
endloop
endfacet
facet normal 0.687543 -0.726143 0.000000
outer loop
vertex 0.004560 0.000288 0.150000
vertex 0.004450 0.000184 0.150000
vertex 0.004450 0.000184 0.000000
endloop
endfacet
facet normal 0.710180 -0.704020 0.000000
outer loop
vertex 0.004677 0.000406 0.000000
vertex 0.004677 0.000406 0.150000
vertex 0.004560 0.000288 0.150000
endloop
endfacet
facet normal 0.687538 -0.726148 0.000000
outer loop
vertex 0.004560 0.000288 0.150000
vertex 0.004450 0.000184 0.000000
vertex 0.004560 0.000288 0.000000
endloop
endfacet
facet normal 0.710180 -0.704020 0.000000
outer loop
vertex 0.004560 0.000288 0.150000
vertex 0.004560 0.000288 0.000000
vertex 0.004677 0.000406 0.000000
endloop
endfacet
facet normal 0.747141 -0.664665 0.000000
outer loop
vertex 0.006319 0.002034 0.150000
vertex 0.006319 0.002034 0.000000
vertex 0.006382 0.002104 0.000000
endloop
endfacet
facet normal 0.747141 -0.664665 0.000000
outer loop
vertex 0.006319 0.002034 0.150000
vertex 0.006382 0.002104 0.000000
vertex 0.006382 0.002104 0.150000
endloop
endfacet
facet normal -0.999675 -0.025473 0.000000
outer loop
vertex 0.000021 0.004124 0.000000
vertex 0.000021 0.004124 0.150000
vertex 0.000004 0.004780 0.150000
endloop
endfacet
facet normal -0.999675 -0.025473 0.000000
outer loop
vertex 0.000021 0.004124 0.000000
vertex 0.000004 0.004780 0.150000
vertex 0.000004 0.004780 0.000000
endloop
endfacet
facet normal 0.256796 -0.966466 0.000000
outer loop
vertex 0.004097 0.000011 0.150000
vertex 0.004097 0.000011 0.000000
vertex 0.004222 0.000044 0.000000
endloop
endfacet
facet normal 0.256796 -0.966466 0.000000
outer loop
vertex 0.004097 0.000011 0.150000
vertex 0.004222 0.000044 0.000000
vertex 0.004222 0.000044 0.150000
endloop
endfacet
facet normal 0.772451 0.635074 0.000000
outer loop
vertex 0.007356 0.008458 0.150000
vertex 0.007356 0.008458 0.000000
vertex 0.007260 0.008575 0.000000
endloop
endfacet
facet normal 0.772451 0.635074 0.000000
outer loop
vertex 0.007356 0.008458 0.150000
vertex 0.007260 0.008575 0.000000
vertex 0.007260 0.008575 0.150000
endloop
endfacet
facet normal -0.623933 0.781478 0.000000
outer loop
vertex 0.002242 0.007530 0.150000
vertex 0.002242 0.007530 0.000000
vertex 0.002145 0.007453 0.000000
endloop
endfacet
facet normal -0.623933 0.781478 0.000000
outer loop
vertex 0.002242 0.007530 0.150000
vertex 0.002145 0.007453 0.000000
vertex 0.002145 0.007453 0.150000
endloop
endfacet
facet normal 0.636304 0.771438 0.000000
outer loop
vertex 0.006395 0.009423 0.000000
vertex 0.006266 0.009530 0.000000
vertex 0.006266 0.009530 0.150000
endloop
endfacet
facet normal 0.636307 0.771436 0.000000
outer loop
vertex 0.006395 0.009423 0.000000
vertex 0.006266 0.009530 0.150000
vertex 0.006395 0.009423 0.150000
endloop
endfacet
facet normal 0.658237 0.752811 0.000000
outer loop
vertex 0.006525 0.009309 0.000000
vertex 0.006395 0.009423 0.000000
vertex 0.006395 0.009423 0.150000
endloop
endfacet
facet normal 0.658234 0.752813 0.000000
outer loop
vertex 0.006525 0.009309 0.000000
vertex 0.006395 0.009423 0.150000
vertex 0.006525 0.009309 0.150000
endloop
endfacet
facet normal 0.676078 0.736830 0.000000
outer loop
vertex 0.006655 0.009190 0.000000
vertex 0.006525 0.009309 0.000000
vertex 0.006525 0.009309 0.150000
endloop
endfacet
facet normal 0.676074 0.736834 0.000000
outer loop
vertex 0.006655 0.009190 0.000000
vertex 0.006525 0.009309 0.150000
vertex 0.006655 0.009190 0.150000
endloop
endfacet
facet normal 0.690920 0.722931 0.000000
outer loop
vertex 0.006784 0.009066 0.000000
vertex 0.006655 0.009190 0.000000
vertex 0.006655 0.009190 0.150000
endloop
endfacet
facet normal 0.690916 0.722935 0.000000
outer loop
vertex 0.006784 0.009066 0.000000
vertex 0.006655 0.009190 0.150000
vertex 0.006784 0.009066 0.150000
endloop
endfacet
facet normal 0.703521 0.710674 0.000000
outer loop
vertex 0.006911 0.008941 0.000000
vertex 0.006784 0.009066 0.000000
vertex 0.006784 0.009066 0.150000
endloop
endfacet
facet normal 0.703521 0.710674 0.000000
outer loop
vertex 0.006911 0.008941 0.000000
vertex 0.006784 0.009066 0.150000
vertex 0.006911 0.008941 0.150000
endloop
endfacet
facet normal 0.714447 0.699690 0.000000
outer loop
vertex 0.007033 0.008816 0.000000
vertex 0.006911 0.008941 0.000000
vertex 0.006911 0.008941 0.150000
endloop
endfacet
facet normal 0.714451 0.699685 0.000000
outer loop
vertex 0.007033 0.008816 0.000000
vertex 0.006911 0.008941 0.150000
vertex 0.007033 0.008816 0.150000
endloop
endfacet
facet normal 0.732891 0.680346 0.000000
outer loop
vertex 0.007260 0.008575 0.150000
vertex 0.007260 0.008575 0.000000
vertex 0.007150 0.008693 0.000000
endloop
endfacet
facet normal 0.724120 0.689674 0.000000
outer loop
vertex 0.007150 0.008693 0.000000
vertex 0.007033 0.008816 0.000000
vertex 0.007033 0.008816 0.150000
endloop
endfacet
facet normal 0.732891 0.680346 0.000000
outer loop
vertex 0.007150 0.008693 0.150000
vertex 0.007260 0.008575 0.150000
vertex 0.007150 0.008693 0.000000
endloop
endfacet
facet normal 0.724125 0.689669 0.000000
outer loop
vertex 0.007033 0.008816 0.150000
vertex 0.007150 0.008693 0.150000
vertex 0.007150 0.008693 0.000000
endloop
endfacet
facet normal -0.534091 -0.845427 0.000000
outer loop
vertex 0.002908 0.000422 0.000000
vertex 0.003070 0.000320 0.000000
vertex 0.003070 0.000320 0.150000
endloop
endfacet
facet normal -0.534091 -0.845427 0.000000
outer loop
vertex 0.002908 0.000422 0.000000
vertex 0.003070 0.000320 0.150000
vertex 0.002908 0.000422 0.150000
endloop
endfacet
facet normal -0.594565 -0.804048 0.000000
outer loop
vertex 0.002444 0.000756 0.150000
vertex 0.002444 0.000756 0.000000
vertex 0.002744 0.000534 0.000000
endloop
endfacet
facet normal -0.564049 -0.825741 0.000000
outer loop
vertex 0.002744 0.000534 0.000000
vertex 0.002908 0.000422 0.000000
vertex 0.002908 0.000422 0.150000
endloop
endfacet
facet normal -0.594565 -0.804048 0.000000
outer loop
vertex 0.002744 0.000534 0.150000
vertex 0.002444 0.000756 0.150000
vertex 0.002744 0.000534 0.000000
endloop
endfacet
facet normal -0.564049 -0.825741 0.000000
outer loop
vertex 0.002908 0.000422 0.150000
vertex 0.002744 0.000534 0.150000
vertex 0.002744 0.000534 0.000000
endloop
endfacet
facet normal -0.513547 0.858061 0.000000
outer loop
vertex 0.002145 0.007453 0.000000
vertex 0.001776 0.007232 0.000000
vertex 0.001776 0.007232 0.150000
endloop
endfacet
facet normal -0.513547 0.858061 0.000000
outer loop
vertex 0.002145 0.007453 0.000000
vertex 0.001776 0.007232 0.150000
vertex 0.002145 0.007453 0.150000
endloop
endfacet
facet normal 0.952819 -0.303538 0.000000
outer loop
vertex 0.007597 0.006274 0.150000
vertex 0.007597 0.006274 0.000000
vertex 0.007626 0.006367 0.000000
endloop
endfacet
facet normal 0.952819 -0.303538 0.000000
outer loop
vertex 0.007597 0.006274 0.150000
vertex 0.007626 0.006367 0.000000
vertex 0.007626 0.006367 0.150000
endloop
endfacet
facet normal 0.828016 -0.560704 0.000000
outer loop
vertex 0.006382 0.002104 0.150000
vertex 0.006382 0.002104 0.000000
vertex 0.006441 0.002192 0.000000
endloop
endfacet
facet normal 0.828016 -0.560704 0.000000
outer loop
vertex 0.006382 0.002104 0.150000
vertex 0.006441 0.002192 0.000000
vertex 0.006441 0.002192 0.150000
endloop
endfacet
facet normal -0.202533 -0.979275 0.000000
outer loop
vertex 0.003685 0.000040 0.150000
vertex 0.003685 0.000040 0.000000
vertex 0.003828 0.000010 0.000000
endloop
endfacet
facet normal -0.202533 -0.979275 0.000000
outer loop
vertex 0.003685 0.000040 0.150000
vertex 0.003828 0.000010 0.000000
vertex 0.003828 0.000010 0.150000
endloop
endfacet
facet normal 0.000000 0.000000 -1.000000
outer loop
vertex 0.003184 0.009121 0.000000
vertex 0.003169 0.009018 0.000000
vertex 0.003161 0.008984 0.000000
endloop
endfacet
facet normal -0.975316 0.220815 0.000000
outer loop
vertex 0.003161 0.008984 0.000000
vertex 0.003161 0.008984 0.150000
vertex 0.003169 0.009018 0.150000
endloop
endfacet
facet normal -0.973154 0.230154 0.000000
outer loop
vertex 0.003184 0.009121 0.150000
vertex 0.003209 0.009227 0.150000
vertex 0.003209 0.009227 0.000000
endloop
endfacet
facet normal -0.989304 0.145866 0.000017
outer loop
vertex 0.003161 0.008984 0.000000
vertex 0.003169 0.009018 0.150000
vertex 0.003184 0.009121 0.150000
endloop
endfacet
facet normal -0.973155 0.230151 0.000000
outer loop
vertex 0.003184 0.009121 0.150000
vertex 0.003209 0.009227 0.000000
vertex 0.003184 0.009121 0.000000
endloop
endfacet
facet normal -0.986364 0.164578 0.000000
outer loop
vertex 0.003184 0.009121 0.000000
vertex 0.003161 0.008984 0.000000
vertex 0.003184 0.009121 0.150000
endloop
endfacet
facet normal 0.887111 -0.461556 0.000000
outer loop
vertex 0.007340 0.005781 0.000000
vertex 0.007597 0.006274 0.000000
vertex 0.007597 0.006274 0.150000
endloop
endfacet
facet normal 0.887112 -0.461553 0.000000
outer loop
vertex 0.007340 0.005781 0.000000
vertex 0.007597 0.006274 0.150000
vertex 0.007340 0.005781 0.150000
endloop
endfacet
facet normal 0.080947 -0.996718 0.000000
outer loop
vertex 0.003966 0.000000 0.150000
vertex 0.003966 0.000000 0.000000
vertex 0.004097 0.000011 0.000000
endloop
endfacet
facet normal 0.080946 -0.996718 0.000000
outer loop
vertex 0.003966 0.000000 0.150000
vertex 0.004097 0.000011 0.000000
vertex 0.004097 0.000011 0.150000
endloop
endfacet
facet normal 0.670087 -0.742283 0.000000
outer loop
vertex 0.005821 0.001672 0.150000
vertex 0.005821 0.001672 0.000000
vertex 0.005898 0.001741 0.000000
endloop
endfacet
facet normal 0.670087 -0.742283 0.000000
outer loop
vertex 0.005821 0.001672 0.150000
vertex 0.005898 0.001741 0.000000
vertex 0.005898 0.001741 0.150000
endloop
endfacet
facet normal 0.241359 0.970436 0.000000
outer loop
vertex 0.005385 0.009995 0.150000
vertex 0.005385 0.009995 0.000000
vertex 0.005191 0.010043 0.000000
endloop
endfacet
facet normal 0.241360 0.970436 0.000000
outer loop
vertex 0.005385 0.009995 0.150000
vertex 0.005191 0.010043 0.000000
vertex 0.005191 0.010043 0.150000
endloop
endfacet
facet normal -0.939917 0.341404 0.000000
outer loop
vertex 0.003161 0.008984 0.150000
vertex 0.003161 0.008984 0.000000
vertex 0.003129 0.008897 0.000000
endloop
endfacet
facet normal -0.939919 0.341396 0.000000
outer loop
vertex 0.003161 0.008984 0.150000
vertex 0.003129 0.008897 0.000000
vertex 0.003129 0.008897 0.150000
endloop
endfacet
facet normal -0.472302 -0.881437 0.000000
outer loop
vertex 0.003070 0.000320 0.150000
vertex 0.003070 0.000320 0.000000
vertex 0.003385 0.000151 0.000000
endloop
endfacet
facet normal -0.472302 -0.881437 0.000000
outer loop
vertex 0.003070 0.000320 0.150000
vertex 0.003385 0.000151 0.000000
vertex 0.003385 0.000151 0.150000
endloop
endfacet
facet normal 0.995444 -0.095352 0.000000
outer loop
vertex 0.007648 0.006473 0.150000
vertex 0.007648 0.006473 0.000000
vertex 0.007660 0.006597 0.000000
endloop
endfacet
facet normal 0.995444 -0.095352 0.000000
outer loop
vertex 0.007648 0.006473 0.150000
vertex 0.007660 0.006597 0.000000
vertex 0.007660 0.006597 0.150000
endloop
endfacet
facet normal 0.840474 0.541852 0.000000
outer loop
vertex 0.007432 0.008341 0.150000
vertex 0.007432 0.008341 0.000000
vertex 0.007356 0.008458 0.000000
endloop
endfacet
facet normal 0.840479 0.541844 0.000000
outer loop
vertex 0.007432 0.008341 0.150000
vertex 0.007356 0.008458 0.000000
vertex 0.007356 0.008458 0.150000
endloop
endfacet
facet normal 0.942611 0.333893 0.000000
outer loop
vertex 0.007533 0.008100 0.150000
vertex 0.007533 0.008100 0.000000
vertex 0.007490 0.008222 0.000000
endloop
endfacet
facet normal 0.942607 0.333904 0.000000
outer loop
vertex 0.007533 0.008100 0.150000
vertex 0.007490 0.008222 0.000000
vertex 0.007490 0.008222 0.150000
endloop
endfacet
facet normal 0.964990 -0.262287 0.000000
outer loop
vertex 0.007108 0.005073 0.000000
vertex 0.007152 0.005234 0.000000
vertex 0.007152 0.005234 0.150000
endloop
endfacet
facet normal 0.964990 -0.262287 0.000000
outer loop
vertex 0.007108 0.005073 0.000000
vertex 0.007152 0.005234 0.150000
vertex 0.007108 0.005073 0.150000
endloop
endfacet
facet normal 0.000000 0.000000 1.000000
outer loop
vertex 0.006601 0.002606 0.000000
vertex 0.006880 0.003798 0.000000
vertex 0.007065 0.004873 0.000000
endloop
endfacet
facet normal 0.977255 -0.212068 0.000000
outer loop
vertex 0.007065 0.004873 0.000000
vertex 0.007108 0.005073 0.000000
vertex 0.007108 0.005073 0.150000
endloop
endfacet
facet normal 0.977258 -0.212054 0.000000
outer loop
vertex 0.007065 0.004873 0.000000
vertex 0.007108 0.005073 0.150000
vertex 0.007065 0.004873 0.150000
endloop
endfacet
facet normal 0.979670 -0.200618 0.000000
outer loop
vertex 0.006601 0.002606 0.150000
vertex 0.006601 0.002606 0.000000
vertex 0.007065 0.004873 0.000000
endloop
endfacet
facet normal 0.985543 -0.169424 0.000000
outer loop
vertex 0.007065 0.004873 0.000000
vertex 0.007065 0.004873 0.150000
vertex 0.006880 0.003798 0.150000
endloop
endfacet
facet normal 0.973605 -0.228240 -0.000436
outer loop
vertex 0.007065 0.004873 0.000000
vertex 0.006880 0.003798 0.150000
vertex 0.006601 0.002606 0.150000
endloop
endfacet
facet normal -0.074273 -0.997238 0.000000
outer loop
vertex 0.003828 0.000010 0.150000
vertex 0.003828 0.000010 0.000000
vertex 0.003966 0.000000 0.000000
endloop
endfacet
facet normal -0.074273 -0.997238 0.000000
outer loop
vertex 0.003828 0.000010 0.150000
vertex 0.003966 0.000000 0.000000
vertex 0.003966 0.000000 0.150000
endloop
endfacet
facet normal 0.946694 -0.322133 0.000000
outer loop
vertex 0.006497 0.002301 0.000000
vertex 0.006601 0.002606 0.000000
vertex 0.006601 0.002606 0.150000
endloop
endfacet
facet normal 0.946696 -0.322129 0.000000
outer loop
vertex 0.006497 0.002301 0.000000
vertex 0.006601 0.002606 0.150000
vertex 0.006497 0.002301 0.150000
endloop
endfacet
facet normal -0.046743 0.998907 0.000000
outer loop
vertex 0.004798 0.010082 0.150000
vertex 0.004798 0.010082 0.000000
vertex 0.004592 0.010072 0.000000
endloop
endfacet
facet normal -0.046743 0.998907 0.000000
outer loop
vertex 0.004798 0.010082 0.150000
vertex 0.004592 0.010072 0.000000
vertex 0.004592 0.010072 0.150000
endloop
endfacet
facet normal 0.889566 -0.456806 0.000000
outer loop
vertex 0.006441 0.002192 0.150000
vertex 0.006441 0.002192 0.000000
vertex 0.006497 0.002301 0.000000
endloop
endfacet
facet normal 0.889569 -0.456801 0.000000
outer loop
vertex 0.006441 0.002192 0.150000
vertex 0.006497 0.002301 0.000000
vertex 0.006497 0.002301 0.150000
endloop
endfacet
facet normal -0.330014 0.943976 0.000000
outer loop
vertex 0.003724 0.009863 0.000000
vertex 0.003547 0.009801 0.000000
vertex 0.003547 0.009801 0.150000
endloop
endfacet
facet normal -0.330014 0.943976 0.000000
outer loop
vertex 0.003724 0.009863 0.000000
vertex 0.003547 0.009801 0.150000
vertex 0.003724 0.009863 0.150000
endloop
endfacet
facet normal -0.303097 0.952960 0.000000
outer loop
vertex 0.003910 0.009922 0.000000
vertex 0.003724 0.009863 0.000000
vertex 0.003724 0.009863 0.150000
endloop
endfacet
facet normal -0.303097 0.952960 0.000000
outer loop
vertex 0.003910 0.009922 0.000000
vertex 0.003724 0.009863 0.150000
vertex 0.003910 0.009922 0.150000
endloop
endfacet
facet normal -0.261975 0.965075 0.000000
outer loop
vertex 0.004132 0.009985 0.150000
vertex 0.004132 0.009985 0.000000
vertex 0.004018 0.009954 0.000000
endloop
endfacet
facet normal -0.281017 0.959703 0.000000
outer loop
vertex 0.004018 0.009954 0.000000
vertex 0.003910 0.009922 0.000000
vertex 0.003910 0.009922 0.150000
endloop
endfacet
facet normal -0.261975 0.965075 0.000000
outer loop
vertex 0.004018 0.009954 0.150000
vertex 0.004132 0.009985 0.150000
vertex 0.004018 0.009954 0.000000
endloop
endfacet
facet normal -0.281017 0.959703 0.000000
outer loop
vertex 0.003910 0.009922 0.150000
vertex 0.004018 0.009954 0.150000
vertex 0.004018 0.009954 0.000000
endloop
endfacet
facet normal 0.048632 0.998817 0.000000
outer loop
vertex 0.004997 0.010072 0.000000
vertex 0.004798 0.010082 0.000000
vertex 0.004798 0.010082 0.150000
endloop
endfacet
facet normal 0.048632 0.998817 0.000000
outer loop
vertex 0.004997 0.010072 0.000000
vertex 0.004798 0.010082 0.150000
vertex 0.004997 0.010072 0.150000
endloop
endfacet
facet normal -0.934351 0.356355 0.000000
outer loop
vertex 0.003261 0.009363 0.000000
vertex 0.003209 0.009227 0.000000
vertex 0.003209 0.009227 0.150000
endloop
endfacet
facet normal -0.934351 0.356355 0.000000
outer loop
vertex 0.003261 0.009363 0.000000
vertex 0.003209 0.009227 0.150000
vertex 0.003261 0.009363 0.150000
endloop
endfacet
facet normal -0.811609 -0.584201 0.000000
outer loop
vertex 0.000262 0.003326 0.150000
vertex 0.000262 0.003326 0.000000
vertex 0.000521 0.002965 0.000000
endloop
endfacet
facet normal -0.811609 -0.584201 0.000000
outer loop
vertex 0.000262 0.003326 0.150000
vertex 0.000521 0.002965 0.000000
vertex 0.000521 0.002965 0.150000
endloop
endfacet
facet normal 0.303910 0.952701 0.000000
outer loop
vertex 0.005484 0.009964 0.000000
vertex 0.005385 0.009995 0.000000
vertex 0.005385 0.009995 0.150000
endloop
endfacet
facet normal 0.303912 0.952700 0.000000
outer loop
vertex 0.005484 0.009964 0.000000
vertex 0.005385 0.009995 0.150000
vertex 0.005484 0.009964 0.150000
endloop
endfacet
facet normal 0.387550 0.921849 0.000000
outer loop
vertex 0.005790 0.009840 0.150000
vertex 0.005790 0.009840 0.000000
vertex 0.005584 0.009927 0.000000
endloop
endfacet
facet normal 0.340618 0.940202 0.000000
outer loop
vertex 0.005584 0.009927 0.000000
vertex 0.005484 0.009964 0.000000
vertex 0.005484 0.009964 0.150000
endloop
endfacet
facet normal 0.387550 0.921849 0.000000
outer loop
vertex 0.005584 0.009927 0.150000
vertex 0.005790 0.009840 0.150000
vertex 0.005584 0.009927 0.000000
endloop
endfacet
facet normal 0.340618 0.940202 0.000000
outer loop
vertex 0.005584 0.009927 0.000000
vertex 0.005484 0.009964 0.150000
vertex 0.005584 0.009927 0.150000
endloop
endfacet
facet normal -0.121719 0.992565 0.000000
outer loop
vertex 0.004482 0.010059 0.150000
vertex 0.004592 0.010072 0.150000
vertex 0.004592 0.010072 0.000000
endloop
endfacet
facet normal -0.121718 0.992565 0.000000
outer loop
vertex 0.004482 0.010059 0.150000
vertex 0.004592 0.010072 0.000000
vertex 0.004482 0.010059 0.000000
endloop
endfacet
facet normal -0.223999 0.974589 0.000000
outer loop
vertex 0.004132 0.009985 0.000000
vertex 0.004132 0.009985 0.150000
vertex 0.004367 0.010039 0.150000
endloop
endfacet
facet normal -0.171637 0.985160 0.000000
outer loop
vertex 0.004367 0.010039 0.150000
vertex 0.004482 0.010059 0.150000
vertex 0.004482 0.010059 0.000000
endloop
endfacet
facet normal -0.224000 0.974589 0.000000
outer loop
vertex 0.004367 0.010039 0.000000
vertex 0.004132 0.009985 0.000000
vertex 0.004367 0.010039 0.150000
endloop
endfacet
facet normal -0.171635 0.985161 0.000000
outer loop
vertex 0.004482 0.010059 0.000000
vertex 0.004367 0.010039 0.000000
vertex 0.004367 0.010039 0.150000
endloop
endfacet
facet normal -0.852107 0.523367 0.000000
outer loop
vertex 0.003369 0.009557 0.000000
vertex 0.003331 0.009495 0.000000
vertex 0.003331 0.009495 0.150000
endloop
endfacet
facet normal -0.852107 0.523367 0.000000
outer loop
vertex 0.003369 0.009557 0.000000
vertex 0.003331 0.009495 0.150000
vertex 0.003369 0.009557 0.150000
endloop
endfacet
facet normal -0.834524 0.550971 0.000000
outer loop
vertex 0.003407 0.009615 0.000000
vertex 0.003369 0.009557 0.000000
vertex 0.003369 0.009557 0.150000
endloop
endfacet
facet normal -0.834524 0.550971 0.000000
outer loop
vertex 0.003407 0.009615 0.000000
vertex 0.003369 0.009557 0.150000
vertex 0.003407 0.009615 0.150000
endloop
endfacet
facet normal -0.819066 0.573699 0.000000
outer loop
vertex 0.003444 0.009667 0.000000
vertex 0.003407 0.009615 0.000000
vertex 0.003407 0.009615 0.150000
endloop
endfacet
facet normal -0.819066 0.573699 0.000000
outer loop
vertex 0.003444 0.009667 0.000000
vertex 0.003407 0.009615 0.150000
vertex 0.003444 0.009667 0.150000
endloop
endfacet
facet normal -0.805423 0.592700 0.000000
outer loop
vertex 0.003477 0.009712 0.000000
vertex 0.003444 0.009667 0.000000
vertex 0.003444 0.009667 0.150000
endloop
endfacet
facet normal -0.805423 0.592700 0.000000
outer loop
vertex 0.003477 0.009712 0.000000
vertex 0.003444 0.009667 0.150000
vertex 0.003477 0.009712 0.150000
endloop
endfacet
facet normal -0.793371 0.608739 0.000000
outer loop
vertex 0.003505 0.009749 0.000000
vertex 0.003477 0.009712 0.000000
vertex 0.003477 0.009712 0.150000
endloop
endfacet
facet normal -0.793371 0.608739 0.000000
outer loop
vertex 0.003505 0.009749 0.000000
vertex 0.003477 0.009712 0.150000
vertex 0.003505 0.009749 0.150000
endloop
endfacet
facet normal -0.771173 0.636626 0.000000
outer loop
vertex 0.003547 0.009801 0.150000
vertex 0.003547 0.009801 0.000000
vertex 0.003528 0.009777 0.000000
endloop
endfacet
facet normal -0.782653 0.622458 0.000000
outer loop
vertex 0.003528 0.009777 0.000000
vertex 0.003505 0.009749 0.000000
vertex 0.003505 0.009749 0.150000
endloop
endfacet
facet normal -0.771185 0.636611 0.000000
outer loop
vertex 0.003528 0.009777 0.150000
vertex 0.003547 0.009801 0.150000
vertex 0.003528 0.009777 0.000000
endloop
endfacet
facet normal -0.782643 0.622471 0.000000
outer loop
vertex 0.003528 0.009777 0.000000
vertex 0.003505 0.009749 0.150000
vertex 0.003528 0.009777 0.150000
endloop
endfacet
facet normal -0.709866 -0.704337 0.000000
outer loop
vertex 0.002091 0.001060 0.150000
vertex 0.001993 0.001159 0.150000
vertex 0.001993 0.001159 0.000000
endloop
endfacet
facet normal -0.709869 -0.704334 0.000000
outer loop
vertex 0.002091 0.001060 0.150000
vertex 0.001993 0.001159 0.000000
vertex 0.002091 0.001060 0.000000
endloop
endfacet
facet normal -0.680654 -0.732605 0.000000
outer loop
vertex 0.002198 0.000961 0.150000
vertex 0.002091 0.001060 0.150000
vertex 0.002091 0.001060 0.000000
endloop
endfacet
facet normal -0.680654 -0.732605 0.000000
outer loop
vertex 0.002198 0.000961 0.150000
vertex 0.002091 0.001060 0.000000
vertex 0.002198 0.000961 0.000000
endloop
endfacet
facet normal -0.627252 -0.778816 0.000000
outer loop
vertex 0.002444 0.000756 0.000000
vertex 0.002444 0.000756 0.150000
vertex 0.002315 0.000860 0.150000
endloop
endfacet
facet normal -0.652791 -0.757538 0.000000
outer loop
vertex 0.002315 0.000860 0.150000
vertex 0.002198 0.000961 0.150000
vertex 0.002198 0.000961 0.000000
endloop
endfacet
facet normal -0.627251 -0.778817 0.000000
outer loop
vertex 0.002315 0.000860 0.000000
vertex 0.002444 0.000756 0.000000
vertex 0.002315 0.000860 0.150000
endloop
endfacet
facet normal -0.652792 -0.757537 0.000000
outer loop
vertex 0.002198 0.000961 0.000000
vertex 0.002315 0.000860 0.000000
vertex 0.002315 0.000860 0.150000
endloop
endfacet
facet normal 0.493259 0.869883 0.000000
outer loop
vertex 0.006017 0.009712 0.150000
vertex 0.006017 0.009712 0.000000
vertex 0.005790 0.009840 0.000000
endloop
endfacet
facet normal 0.493260 0.869882 0.000000
outer loop
vertex 0.006017 0.009712 0.150000
vertex 0.005790 0.009840 0.000000
vertex 0.005790 0.009840 0.150000
endloop
endfacet
facet normal -0.753194 -0.657798 0.000000
outer loop
vertex 0.001817 0.001360 0.150000
vertex 0.001817 0.001360 0.000000
vertex 0.001993 0.001159 0.000000
endloop
endfacet
facet normal -0.753194 -0.657798 0.000000
outer loop
vertex 0.001817 0.001360 0.150000
vertex 0.001993 0.001159 0.000000
vertex 0.001993 0.001159 0.150000
endloop
endfacet
facet normal 0.998206 0.059879 0.000000
outer loop
vertex 0.007660 0.006597 0.000000
vertex 0.007585 0.007844 0.000000
vertex 0.007585 0.007844 0.150000
endloop
endfacet
facet normal 0.998206 0.059880 0.000000
outer loop
vertex 0.007660 0.006597 0.000000
vertex 0.007585 0.007844 0.150000
vertex 0.007660 0.006597 0.150000
endloop
endfacet
facet normal -0.374383 0.927274 0.000000
outer loop
vertex 0.001776 0.007232 0.150000
vertex 0.001776 0.007232 0.000000
vertex 0.000223 0.006605 0.000000
endloop
endfacet
facet normal -0.374383 0.927274 0.000000
outer loop
vertex 0.001776 0.007232 0.150000
vertex 0.000223 0.006605 0.000000
vertex 0.000223 0.006605 0.150000
endloop
endfacet
facet normal -0.346213 -0.938156 0.000000
outer loop
vertex 0.003385 0.000151 0.000000
vertex 0.003685 0.000040 0.000000
vertex 0.003685 0.000040 0.150000
endloop
endfacet
facet normal -0.346212 -0.938156 0.000000
outer loop
vertex 0.003385 0.000151 0.000000
vertex 0.003685 0.000040 0.150000
vertex 0.003385 0.000151 0.150000
endloop
endfacet
facet normal -0.897914 0.440170 0.000000
outer loop
vertex 0.003129 0.008897 0.150000
vertex 0.003129 0.008897 0.000000
vertex 0.003061 0.008757 0.000000
endloop
endfacet
facet normal -0.873281 0.487216 -0.000055
outer loop
vertex 0.003129 0.008897 0.150000
vertex 0.003061 0.008757 0.000000
vertex 0.002650 0.008021 0.000000
endloop
endfacet
facet normal -0.897914 0.440170 0.000298
outer loop
vertex 0.003061 0.008757 0.150000
vertex 0.003129 0.008897 0.150000
vertex 0.002650 0.008021 0.000000
endloop
endfacet
facet normal -0.833347 0.552751 0.000000
outer loop
vertex 0.002604 0.007946 0.000000
vertex 0.002558 0.007875 0.000000
vertex 0.002558 0.007875 0.150000
endloop
endfacet
facet normal -0.853642 0.520860 -0.000219
outer loop
vertex 0.003061 0.008757 0.150000
vertex 0.002650 0.008021 0.000000
vertex 0.002604 0.007946 0.000000
endloop
endfacet
facet normal -0.873282 0.487216 0.000023
outer loop
vertex 0.002650 0.008021 0.150000
vertex 0.003061 0.008757 0.150000
vertex 0.002604 0.007946 0.000000
endloop
endfacet
facet normal -0.833349 0.552747 0.000000
outer loop
vertex 0.002604 0.007946 0.000000
vertex 0.002558 0.007875 0.150000
vertex 0.002604 0.007946 0.150000
endloop
endfacet
facet normal -0.853640 0.520863 0.000000
outer loop
vertex 0.002604 0.007946 0.000000
vertex 0.002604 0.007946 0.150000
vertex 0.002650 0.008021 0.150000
endloop
endfacet
facet normal -0.883750 0.467960 0.000000
outer loop
vertex 0.003331 0.009495 0.000000
vertex 0.003261 0.009363 0.000000
vertex 0.003261 0.009363 0.150000
endloop
endfacet
facet normal -0.883748 0.467964 0.000000
outer loop
vertex 0.003331 0.009495 0.000000
vertex 0.003261 0.009363 0.150000
vertex 0.003331 0.009495 0.150000
endloop
endfacet
facet normal 0.945799 -0.324753 0.000000
outer loop
vertex 0.007152 0.005234 0.000000
vertex 0.007340 0.005781 0.000000
vertex 0.007340 0.005781 0.150000
endloop
endfacet
facet normal 0.945800 -0.324750 0.000000
outer loop
vertex 0.007152 0.005234 0.000000
vertex 0.007340 0.005781 0.150000
vertex 0.007152 0.005234 0.150000
endloop
endfacet
facet normal -0.691351 0.722519 0.000000
outer loop
vertex 0.002393 0.007674 0.000000
vertex 0.002242 0.007530 0.000000
vertex 0.002242 0.007530 0.150000
endloop
endfacet
facet normal -0.691351 0.722519 0.000000
outer loop
vertex 0.002393 0.007674 0.000000
vertex 0.002242 0.007530 0.150000
vertex 0.002393 0.007674 0.150000
endloop
endfacet
facet normal -0.998255 0.059042 0.000000
outer loop
vertex 0.000024 0.005115 0.000000
vertex 0.000004 0.004780 0.000000
vertex 0.000004 0.004780 0.150000
endloop
endfacet
facet normal -0.998255 0.059042 0.000000
outer loop
vertex 0.000024 0.005115 0.000000
vertex 0.000004 0.004780 0.150000
vertex 0.000024 0.005115 0.150000
endloop
endfacet
facet normal -0.995255 0.097300 0.000000
outer loop
vertex 0.000056 0.005442 0.000000
vertex 0.000024 0.005115 0.000000
vertex 0.000024 0.005115 0.150000
endloop
endfacet
facet normal -0.995255 0.097300 0.000000
outer loop
vertex 0.000056 0.005442 0.000000
vertex 0.000024 0.005115 0.150000
vertex 0.000056 0.005442 0.150000
endloop
endfacet
facet normal -0.992071 0.125682 0.000000
outer loop
vertex 0.000095 0.005751 0.000000
vertex 0.000056 0.005442 0.000000
vertex 0.000056 0.005442 0.150000
endloop
endfacet
facet normal -0.992071 0.125682 0.000000
outer loop
vertex 0.000095 0.005751 0.000000
vertex 0.000056 0.005442 0.150000
vertex 0.000095 0.005751 0.150000
endloop
endfacet
facet normal 0.000000 0.000000 -1.000000
outer loop
vertex 0.000223 0.006605 0.000000
vertex 0.000205 0.006468 0.000000
vertex 0.000136 0.006032 0.000000
endloop
endfacet
facet normal -0.989355 0.145524 0.000000
outer loop
vertex 0.000136 0.006032 0.000000
vertex 0.000095 0.005751 0.000000
vertex 0.000095 0.005751 0.150000
endloop
endfacet
facet normal -0.989355 0.145525 0.000000
outer loop
vertex 0.000136 0.006032 0.000000
vertex 0.000095 0.005751 0.150000
vertex 0.000136 0.006032 0.150000
endloop
endfacet
facet normal -0.988727 0.149727 0.000000
outer loop
vertex 0.000223 0.006605 0.150000
vertex 0.000223 0.006605 0.000000
vertex 0.000136 0.006032 0.000000
endloop
endfacet
facet normal -0.987743 0.156089 0.000000
outer loop
vertex 0.000136 0.006032 0.000000
vertex 0.000136 0.006032 0.150000
vertex 0.000205 0.006468 0.150000
endloop
endfacet
facet normal -0.991617 0.129215 0.000080
outer loop
vertex 0.000205 0.006468 0.150000
vertex 0.000223 0.006605 0.150000
vertex 0.000136 0.006032 0.000000
endloop
endfacet
facet normal 0.980113 0.198439 0.000000
outer loop
vertex 0.007585 0.007844 0.150000
vertex 0.007585 0.007844 0.000000
vertex 0.007533 0.008100 0.000000
endloop
endfacet
facet normal 0.980114 0.198434 0.000000
outer loop
vertex 0.007585 0.007844 0.150000
vertex 0.007533 0.008100 0.000000
vertex 0.007533 0.008100 0.150000
endloop
endfacet
facet normal 0.980116 -0.198427 0.000000
outer loop
vertex 0.007626 0.006367 0.150000
vertex 0.007626 0.006367 0.000000
vertex 0.007648 0.006473 0.000000
endloop
endfacet
facet normal 0.980110 -0.198455 0.000000
outer loop
vertex 0.007626 0.006367 0.150000
vertex 0.007648 0.006473 0.000000
vertex 0.007648 0.006473 0.150000
endloop
endfacet
facet normal -0.773045 0.634351 0.000000
outer loop
vertex 0.002558 0.007875 0.000000
vertex 0.002393 0.007674 0.000000
vertex 0.002393 0.007674 0.150000
endloop
endfacet
facet normal -0.773045 0.634351 0.000000
outer loop
vertex 0.002558 0.007875 0.000000
vertex 0.002393 0.007674 0.150000
vertex 0.002558 0.007875 0.150000
endloop
endfacet
facet normal -0.988236 -0.152936 0.000000
outer loop
vertex 0.000021 0.004124 0.150000
vertex 0.000021 0.004124 0.000000
vertex 0.000067 0.003823 0.000000
endloop
endfacet
facet normal -0.988236 -0.152936 0.000000
outer loop
vertex 0.000021 0.004124 0.150000
vertex 0.000067 0.003823 0.000000
vertex 0.000067 0.003823 0.150000
endloop
endfacet
facet normal -0.891589 -0.452846 0.000000
outer loop
vertex 0.000146 0.003554 0.150000
vertex 0.000146 0.003554 0.000000
vertex 0.000262 0.003326 0.000000
endloop
endfacet
facet normal -0.891589 -0.452846 0.000000
outer loop
vertex 0.000146 0.003554 0.150000
vertex 0.000262 0.003326 0.000000
vertex 0.000262 0.003326 0.150000
endloop
endfacet
endsolid Exported from Blender-3.6.8
