solid Exported from Blender-3.6.8
facet normal 0.000000 0.000000 -1.000000
outer loop
vertex 0.000399 0.009425 0.000000
vertex 0.001654 0.009462 0.000000
vertex 0.001826 0.009274 0.000000
endloop
endfacet
facet normal 0.000000 0.000000 -1.000000
outer loop
vertex 0.001826 0.009274 0.000000
vertex 0.002005 0.009068 0.000000
vertex 0.002214 0.008816 0.000000
endloop
endfacet
facet normal 0.000000 0.000000 -1.000000
outer loop
vertex 0.002214 0.008816 0.000000
vertex 0.002323 0.008678 0.000000
vertex 0.002431 0.008536 0.000000
endloop
endfacet
facet normal 0.000000 0.000000 -1.000000
outer loop
vertex 0.002431 0.008536 0.000000
vertex 0.002534 0.008392 0.000000
vertex 0.002631 0.008249 0.000000
endloop
endfacet
facet normal 0.000000 0.000000 -1.000000
outer loop
vertex 0.002631 0.008249 0.000000
vertex 0.002718 0.008109 0.000000
vertex 0.002871 0.007837 0.000000
endloop
endfacet
facet normal 0.000000 0.000000 -1.000000
outer loop
vertex 0.002871 0.007837 0.000000
vertex 0.004283 0.004393 0.000000
vertex 0.004352 0.004082 0.000000
endloop
endfacet
facet normal 0.000000 0.000000 -1.000000
outer loop
vertex 0.004352 0.004082 0.000000
vertex 0.004391 0.003777 0.000000
vertex 0.004403 0.003481 0.000000
endloop
endfacet
facet normal 0.000000 0.000000 -1.000000
outer loop
vertex 0.004403 0.003481 0.000000
vertex 0.004389 0.003195 0.000000
vertex 0.004373 0.003057 0.000000
endloop
endfacet
facet normal 0.000000 0.000000 -1.000000
outer loop
vertex 0.004373 0.003057 0.000000
vertex 0.004351 0.002922 0.000000
vertex 0.004323 0.002788 0.000000
endloop
endfacet
facet normal 0.000000 0.000000 -1.000000
outer loop
vertex 0.004323 0.002788 0.000000
vertex 0.004253 0.002518 0.000000
vertex 0.004213 0.002383 0.000000
endloop
endfacet
facet normal 0.000000 0.000000 -1.000000
outer loop
vertex 0.004213 0.002383 0.000000
vertex 0.004169 0.002249 0.000000
vertex 0.004124 0.002117 0.000000
endloop
endfacet
facet normal 0.000000 0.000000 -1.000000
outer loop
vertex 0.004124 0.002117 0.000000
vertex 0.004077 0.001988 0.000000
vertex 0.004029 0.001863 0.000000
endloop
endfacet
facet normal 0.000000 0.000000 -1.000000
outer loop
vertex 0.004029 0.001863 0.000000
vertex 0.003982 0.001742 0.000000
vertex 0.003935 0.001626 0.000000
endloop
endfacet
facet normal 0.000000 0.000000 -1.000000
outer loop
vertex 0.003935 0.001626 0.000000
vertex 0.003890 0.001516 0.000000
vertex 0.003847 0.001412 0.000000
endloop
endfacet
facet normal 0.000000 0.000000 -1.000000
outer loop
vertex 0.003847 0.001412 0.000000
vertex 0.003799 0.001311 0.000000
vertex 0.003670 0.001103 0.000000
endloop
endfacet
facet normal 0.000000 0.000000 -1.000000
outer loop
vertex 0.003670 0.001103 0.000000
vertex 0.003509 0.000894 0.000000
vertex 0.003419 0.000793 0.000000
endloop
endfacet
facet normal 0.000000 0.000000 -1.000000
outer loop
vertex 0.003419 0.000793 0.000000
vertex 0.003327 0.000696 0.000000
vertex 0.003138 0.000516 0.000000
endloop
endfacet
facet normal 0.000000 0.000000 -1.000000
outer loop
vertex 0.003138 0.000516 0.000000
vertex 0.002870 0.000301 0.000000
vertex 0.002785 0.000247 0.000000
endloop
endfacet
facet normal 0.000000 0.000000 -1.000000
outer loop
vertex 0.002785 0.000247 0.000000
vertex 0.002696 0.000201 0.000000
vertex 0.002507 0.000128 0.000000
endloop
endfacet
facet normal 0.000000 0.000000 -1.000000
outer loop
vertex 0.002507 0.000128 0.000000
vertex 0.002315 0.000077 0.000000
vertex 0.002220 0.000058 0.000000
endloop
endfacet
facet normal 0.000000 0.000000 -1.000000
outer loop
vertex 0.002220 0.000058 0.000000
vertex 0.002127 0.000043 0.000000
vertex 0.002038 0.000030 0.000000
endloop
endfacet
facet normal 0.000000 0.000000 -1.000000
outer loop
vertex 0.002038 0.000030 0.000000
vertex 0.001955 0.000019 0.000000
vertex 0.001877 0.000010 0.000000
endloop
endfacet
facet normal 0.000000 0.000000 -1.000000
outer loop
vertex 0.001877 0.000010 0.000000
vertex 0.001806 0.000001 0.000000
vertex 0.001715 0.000005 0.000000
endloop
endfacet
facet normal 0.000000 0.000000 -1.000000
outer loop
vertex 0.001715 0.000005 0.000000
vertex 0.001581 0.000028 0.000000
vertex 0.001414 0.000068 0.000000
endloop
endfacet
facet normal 0.000000 0.000000 -1.000000
outer loop
vertex 0.001414 0.000068 0.000000
vertex 0.001224 0.000121 0.000000
vertex 0.000607 0.000315 0.000000
endloop
endfacet
facet normal 0.000000 0.000000 -1.000000
outer loop
vertex 0.000607 0.000315 0.000000
vertex 0.000013 0.000520 0.000000
vertex 0.000009 0.001646 0.000000
endloop
endfacet
facet normal 0.000000 0.000000 -1.000000
outer loop
vertex 0.000009 0.001646 0.000000
vertex 0.000004 0.003236 0.000000
vertex 0.000002 0.004135 0.000000
endloop
endfacet
facet normal 0.000000 0.000000 -1.000000
outer loop
vertex 0.000002 0.004135 0.000000
vertex 0.000000 0.005038 0.000000
vertex 0.000000 0.005894 0.000000
endloop
endfacet
facet normal 0.000000 0.000000 -1.000000
outer loop
vertex 0.000000 0.005894 0.000000
vertex 0.000001 0.006655 0.000000
vertex 0.000004 0.007272 0.000000
endloop
endfacet
facet normal 0.000000 0.000000 -1.000000
outer loop
vertex 0.000004 0.007272 0.000000
vertex 0.000008 0.007695 0.000000
vertex 0.000015 0.007874 0.000000
endloop
endfacet
facet normal 0.000000 0.000000 -1.000000
outer loop
vertex 0.000015 0.007874 0.000000
vertex 0.000157 0.008847 0.000000
vertex 0.000399 0.009425 0.000000
endloop
endfacet
facet normal 0.000000 0.000000 -1.000000
outer loop
vertex 0.000399 0.009425 0.000000
vertex 0.001826 0.009274 0.000000
vertex 0.002214 0.008816 0.000000
endloop
endfacet
facet normal 0.000000 0.000000 -1.000000
outer loop
vertex 0.002214 0.008816 0.000000
vertex 0.002431 0.008536 0.000000
vertex 0.002631 0.008249 0.000000
endloop
endfacet
facet normal 0.000000 0.000000 -1.000000
outer loop
vertex 0.002631 0.008249 0.000000
vertex 0.002871 0.007837 0.000000
vertex 0.004352 0.004082 0.000000
endloop
endfacet
facet normal 0.000000 0.000000 -1.000000
outer loop
vertex 0.004352 0.004082 0.000000
vertex 0.004403 0.003481 0.000000
vertex 0.004373 0.003057 0.000000
endloop
endfacet
facet normal 0.000000 0.000000 -1.000000
outer loop
vertex 0.004373 0.003057 0.000000
vertex 0.004323 0.002788 0.000000
vertex 0.004213 0.002383 0.000000
endloop
endfacet
facet normal 0.000000 0.000000 -1.000000
outer loop
vertex 0.004213 0.002383 0.000000
vertex 0.004124 0.002117 0.000000
vertex 0.004029 0.001863 0.000000
endloop
endfacet
facet normal 0.000000 0.000000 -1.000000
outer loop
vertex 0.004029 0.001863 0.000000
vertex 0.003935 0.001626 0.000000
vertex 0.003847 0.001412 0.000000
endloop
endfacet
facet normal 0.000000 0.000000 -1.000000
outer loop
vertex 0.003847 0.001412 0.000000
vertex 0.003670 0.001103 0.000000
vertex 0.003419 0.000793 0.000000
endloop
endfacet
facet normal 0.000000 0.000000 -1.000000
outer loop
vertex 0.003419 0.000793 0.000000
vertex 0.003138 0.000516 0.000000
vertex 0.002785 0.000247 0.000000
endloop
endfacet
facet normal 0.000000 0.000000 -1.000000
outer loop
vertex 0.002785 0.000247 0.000000
vertex 0.002507 0.000128 0.000000
vertex 0.002220 0.000058 0.000000
endloop
endfacet
facet normal 0.000000 0.000000 -1.000000
outer loop
vertex 0.002220 0.000058 0.000000
vertex 0.002038 0.000030 0.000000
vertex 0.001877 0.000010 0.000000
endloop
endfacet
facet normal 0.000000 0.000000 -1.000000
outer loop
vertex 0.001877 0.000010 0.000000
vertex 0.001715 0.000005 0.000000
vertex 0.001414 0.000068 0.000000
endloop
endfacet
facet normal 0.000000 0.000000 -1.000000
outer loop
vertex 0.001414 0.000068 0.000000
vertex 0.000607 0.000315 0.000000
vertex 0.000009 0.001646 0.000000
endloop
endfacet
facet normal 0.000000 0.000000 -1.000000
outer loop
vertex 0.000009 0.001646 0.000000
vertex 0.000002 0.004135 0.000000
vertex 0.000000 0.005894 0.000000
endloop
endfacet
facet normal 0.000000 0.000000 -1.000000
outer loop
vertex 0.000000 0.005894 0.000000
vertex 0.000004 0.007272 0.000000
vertex 0.000015 0.007874 0.000000
endloop
endfacet
facet normal 0.000000 0.000000 -1.000000
outer loop
vertex 0.000015 0.007874 0.000000
vertex 0.000399 0.009425 0.000000
vertex 0.002214 0.008816 0.000000
endloop
endfacet
facet normal 0.000000 0.000000 -1.000000
outer loop
vertex 0.002214 0.008816 0.000000
vertex 0.002631 0.008249 0.000000
vertex 0.004352 0.004082 0.000000
endloop
endfacet
facet normal 0.000000 0.000000 -1.000000
outer loop
vertex 0.004352 0.004082 0.000000
vertex 0.004373 0.003057 0.000000
vertex 0.004213 0.002383 0.000000
endloop
endfacet
facet normal 0.000000 0.000000 -1.000000
outer loop
vertex 0.004213 0.002383 0.000000
vertex 0.004029 0.001863 0.000000
vertex 0.003847 0.001412 0.000000
endloop
endfacet
facet normal 0.000000 0.000000 -1.000000
outer loop
vertex 0.003847 0.001412 0.000000
vertex 0.003419 0.000793 0.000000
vertex 0.002785 0.000247 0.000000
endloop
endfacet
facet normal 0.000000 0.000000 -1.000000
outer loop
vertex 0.002785 0.000247 0.000000
vertex 0.002220 0.000058 0.000000
vertex 0.001877 0.000010 0.000000
endloop
endfacet
facet normal 0.000000 0.000000 -1.000000
outer loop
vertex 0.001877 0.000010 0.000000
vertex 0.001414 0.000068 0.000000
vertex 0.000009 0.001646 0.000000
endloop
endfacet
facet normal 0.000000 0.000000 -1.000000
outer loop
vertex 0.000009 0.001646 0.000000
vertex 0.000000 0.005894 0.000000
vertex 0.000015 0.007874 0.000000
endloop
endfacet
facet normal 0.000000 0.000000 -1.000000
outer loop
vertex 0.000015 0.007874 0.000000
vertex 0.002214 0.008816 0.000000
vertex 0.004352 0.004082 0.000000
endloop
endfacet
facet normal 0.000000 0.000000 -1.000000
outer loop
vertex 0.004352 0.004082 0.000000
vertex 0.004213 0.002383 0.000000
vertex 0.003847 0.001412 0.000000
endloop
endfacet
facet normal 0.000000 0.000000 -1.000000
outer loop
vertex 0.003847 0.001412 0.000000
vertex 0.002785 0.000247 0.000000
vertex 0.001877 0.000010 0.000000
endloop
endfacet
facet normal 0.000000 0.000000 -1.000000
outer loop
vertex 0.001877 0.000010 0.000000
vertex 0.000009 0.001646 0.000000
vertex 0.000015 0.007874 0.000000
endloop
endfacet
facet normal 0.000000 0.000000 -1.000000
outer loop
vertex 0.000015 0.007874 0.000000
vertex 0.004352 0.004082 0.000000
vertex 0.003847 0.001412 0.000000
endloop
endfacet
facet normal 0.000000 0.000000 -1.000000
outer loop
vertex 0.003847 0.001412 0.000000
vertex 0.001877 0.000010 0.000000
vertex 0.000015 0.007874 0.000000
endloop
endfacet
facet normal -0.989631 0.143632 0.000000
outer loop
vertex 0.000015 0.007874 0.150000
vertex 0.000157 0.008847 0.150000
vertex 0.000157 0.008847 0.000000
endloop
endfacet
facet normal -0.989631 0.143632 0.000000
outer loop
vertex 0.000015 0.007874 0.150000
vertex 0.000157 0.008847 0.000000
vertex 0.000015 0.007874 0.000000
endloop
endfacet
facet normal 0.991683 0.128703 0.000000
outer loop
vertex 0.004352 0.004082 0.000000
vertex 0.004352 0.004082 0.150000
vertex 0.004391 0.003777 0.150000
endloop
endfacet
facet normal 0.991684 0.128701 0.000000
outer loop
vertex 0.004352 0.004082 0.000000
vertex 0.004391 0.003777 0.150000
vertex 0.004391 0.003777 0.000000
endloop
endfacet
facet normal -0.029285 0.999571 0.000000
outer loop
vertex 0.000399 0.009425 0.150000
vertex 0.001654 0.009462 0.150000
vertex 0.001654 0.009462 0.000000
endloop
endfacet
facet normal -0.029285 0.999571 0.000000
outer loop
vertex 0.000399 0.009425 0.150000
vertex 0.001654 0.009462 0.000000
vertex 0.000399 0.009425 0.000000
endloop
endfacet
facet normal 0.000000 0.000000 1.000000
outer loop
vertex 0.004323 0.002788 0.000000
vertex 0.004351 0.002922 0.000000
vertex 0.004373 0.003057 0.000000
endloop
endfacet
facet normal 0.993147 -0.116872 0.000000
outer loop
vertex 0.004373 0.003057 0.000000
vertex 0.004389 0.003195 0.000000
vertex 0.004389 0.003195 0.150000
endloop
endfacet
facet normal 0.993146 -0.116878 0.000000
outer loop
vertex 0.004373 0.003057 0.000000
vertex 0.004389 0.003195 0.150000
vertex 0.004373 0.003057 0.150000
endloop
endfacet
facet normal 0.983253 -0.182247 0.000000
outer loop
vertex 0.004323 0.002788 0.150000
vertex 0.004323 0.002788 0.000000
vertex 0.004373 0.003057 0.000000
endloop
endfacet
facet normal 0.986825 -0.161788 0.000000
outer loop
vertex 0.004373 0.003057 0.000000
vertex 0.004373 0.003057 0.150000
vertex 0.004351 0.002922 0.150000
endloop
endfacet
facet normal 0.979258 -0.202619 -0.000038
outer loop
vertex 0.004373 0.003057 0.000000
vertex 0.004351 0.002922 0.150000
vertex 0.004323 0.002788 0.150000
endloop
endfacet
facet normal 0.739465 0.673195 0.000000
outer loop
vertex 0.001826 0.009274 0.000000
vertex 0.001654 0.009462 0.000000
vertex 0.001654 0.009462 0.150000
endloop
endfacet
facet normal 0.739465 0.673195 0.000000
outer loop
vertex 0.001826 0.009274 0.000000
vertex 0.001654 0.009462 0.150000
vertex 0.001826 0.009274 0.150000
endloop
endfacet
facet normal 0.753923 0.656963 0.000000
outer loop
vertex 0.002005 0.009068 0.000000
vertex 0.001826 0.009274 0.000000
vertex 0.001826 0.009274 0.150000
endloop
endfacet
facet normal 0.753923 0.656963 0.000000
outer loop
vertex 0.002005 0.009068 0.000000
vertex 0.001826 0.009274 0.150000
vertex 0.002005 0.009068 0.150000
endloop
endfacet
facet normal 0.769712 0.638391 0.000000
outer loop
vertex 0.002214 0.008816 0.000000
vertex 0.002005 0.009068 0.000000
vertex 0.002005 0.009068 0.150000
endloop
endfacet
facet normal 0.769713 0.638390 0.000000
outer loop
vertex 0.002214 0.008816 0.000000
vertex 0.002005 0.009068 0.150000
vertex 0.002214 0.008816 0.150000
endloop
endfacet
facet normal 0.797049 0.603915 0.000000
outer loop
vertex 0.002431 0.008536 0.150000
vertex 0.002431 0.008536 0.000000
vertex 0.002323 0.008678 0.000000
endloop
endfacet
facet normal 0.784645 0.619946 0.000000
outer loop
vertex 0.002323 0.008678 0.000000
vertex 0.002214 0.008816 0.000000
vertex 0.002214 0.008816 0.150000
endloop
endfacet
facet normal 0.797048 0.603916 0.000000
outer loop
vertex 0.002323 0.008678 0.150000
vertex 0.002431 0.008536 0.150000
vertex 0.002323 0.008678 0.000000
endloop
endfacet
facet normal 0.784644 0.619947 0.000000
outer loop
vertex 0.002323 0.008678 0.000000
vertex 0.002214 0.008816 0.150000
vertex 0.002323 0.008678 0.150000
endloop
endfacet
facet normal -0.035379 -0.999374 0.000000
outer loop
vertex 0.001715 0.000005 0.150000
vertex 0.001715 0.000005 0.000000
vertex 0.001806 0.000001 0.000000
endloop
endfacet
facet normal -0.035378 -0.999374 0.000000
outer loop
vertex 0.001715 0.000005 0.150000
vertex 0.001806 0.000001 0.000000
vertex 0.001806 0.000001 0.150000
endloop
endfacet
facet normal 0.360204 -0.932873 0.000000
outer loop
vertex 0.002507 0.000128 0.150000
vertex 0.002507 0.000128 0.000000
vertex 0.002696 0.000201 0.000000
endloop
endfacet
facet normal 0.360204 -0.932874 0.000000
outer loop
vertex 0.002507 0.000128 0.150000
vertex 0.002696 0.000201 0.000000
vertex 0.002696 0.000201 0.150000
endloop
endfacet
facet normal 0.904130 -0.427257 0.000000
outer loop
vertex 0.003799 0.001311 0.150000
vertex 0.003799 0.001311 0.000000
vertex 0.003847 0.001412 0.000000
endloop
endfacet
facet normal 0.904133 -0.427251 0.000000
outer loop
vertex 0.003799 0.001311 0.150000
vertex 0.003847 0.001412 0.000000
vertex 0.003847 0.001412 0.150000
endloop
endfacet
facet normal 0.000000 0.000000 1.000000
outer loop
vertex 0.004124 0.002117 0.000000
vertex 0.004169 0.002249 0.000000
vertex 0.004213 0.002383 0.000000
endloop
endfacet
facet normal 0.957653 -0.287925 0.000000
outer loop
vertex 0.004213 0.002383 0.000000
vertex 0.004253 0.002518 0.000000
vertex 0.004253 0.002518 0.150000
endloop
endfacet
facet normal 0.957650 -0.287935 0.000000
outer loop
vertex 0.004213 0.002383 0.000000
vertex 0.004253 0.002518 0.150000
vertex 0.004213 0.002383 0.150000
endloop
endfacet
facet normal 0.000000 0.000000 1.000000
outer loop
vertex 0.004077 0.001988 0.000000
vertex 0.004124 0.002117 0.000000
vertex 0.004213 0.002383 0.000000
endloop
endfacet
facet normal 0.000000 0.000000 1.000000
outer loop
vertex 0.003982 0.001742 0.000000
vertex 0.004029 0.001863 0.000000
vertex 0.004077 0.001988 0.000000
endloop
endfacet
facet normal 0.000000 0.000000 1.000000
outer loop
vertex 0.003890 0.001516 0.000000
vertex 0.003935 0.001626 0.000000
vertex 0.003982 0.001742 0.000000
endloop
endfacet
facet normal 0.923477 -0.383654 0.000000
outer loop
vertex 0.003847 0.001412 0.150000
vertex 0.003847 0.001412 0.000000
vertex 0.003890 0.001516 0.000000
endloop
endfacet
facet normal 0.923474 -0.383660 0.000000
outer loop
vertex 0.003890 0.001516 0.150000
vertex 0.003847 0.001412 0.150000
vertex 0.003890 0.001516 0.000000
endloop
endfacet
facet normal 0.000000 0.000000 1.000000
outer loop
vertex 0.003890 0.001516 0.000000
vertex 0.003982 0.001742 0.000000
vertex 0.004077 0.001988 0.000000
endloop
endfacet
facet normal 0.945501 -0.325620 0.000000
outer loop
vertex 0.004077 0.001988 0.000000
vertex 0.004213 0.002383 0.000000
vertex 0.004213 0.002383 0.150000
endloop
endfacet
facet normal 0.951146 -0.308740 -0.000049
outer loop
vertex 0.004077 0.001988 0.000000
vertex 0.004213 0.002383 0.150000
vertex 0.004169 0.002249 0.150000
endloop
endfacet
facet normal 0.929847 -0.367947 0.000000
outer loop
vertex 0.003890 0.001516 0.150000
vertex 0.003890 0.001516 0.000000
vertex 0.004077 0.001988 0.000000
endloop
endfacet
facet normal 0.925050 -0.379846 -0.000043
outer loop
vertex 0.003935 0.001626 0.150000
vertex 0.003890 0.001516 0.150000
vertex 0.004077 0.001988 0.000000
endloop
endfacet
facet normal 0.945162 -0.326603 -0.000015
outer loop
vertex 0.004077 0.001988 0.000000
vertex 0.004169 0.002249 0.150000
vertex 0.004124 0.002117 0.150000
endloop
endfacet
facet normal 0.939767 -0.341815 0.000000
outer loop
vertex 0.004077 0.001988 0.000000
vertex 0.004124 0.002117 0.150000
vertex 0.004077 0.001988 0.150000
endloop
endfacet
facet normal 0.927573 -0.373641 -0.000026
outer loop
vertex 0.003982 0.001742 0.150000
vertex 0.003935 0.001626 0.150000
vertex 0.004077 0.001988 0.000000
endloop
endfacet
facet normal 0.935001 -0.354645 0.000000
outer loop
vertex 0.004077 0.001988 0.000000
vertex 0.004077 0.001988 0.150000
vertex 0.004029 0.001863 0.150000
endloop
endfacet
facet normal 0.930917 -0.365231 -0.000010
outer loop
vertex 0.004029 0.001863 0.150000
vertex 0.003982 0.001742 0.150000
vertex 0.004077 0.001988 0.000000
endloop
endfacet
facet normal 0.968323 -0.249703 0.000000
outer loop
vertex 0.004323 0.002788 0.000000
vertex 0.004323 0.002788 0.150000
vertex 0.004253 0.002518 0.150000
endloop
endfacet
facet normal 0.968323 -0.249703 0.000000
outer loop
vertex 0.004323 0.002788 0.000000
vertex 0.004253 0.002518 0.150000
vertex 0.004253 0.002518 0.000000
endloop
endfacet
facet normal 0.000000 0.000000 1.000000
outer loop
vertex 0.003138 0.000516 0.150000
vertex 0.003327 0.000696 0.150000
vertex 0.003419 0.000793 0.150000
endloop
endfacet
facet normal 0.000000 0.000000 1.000000
outer loop
vertex 0.003419 0.000793 0.150000
vertex 0.003509 0.000894 0.150000
vertex 0.003670 0.001103 0.150000
endloop
endfacet
facet normal -0.001189 0.000000 0.999999
outer loop
vertex 0.003670 0.001103 0.150000
vertex 0.003799 0.001311 0.150000
vertex 0.003847 0.001412 0.150000
endloop
endfacet
facet normal -0.066057 0.000000 0.997816
outer loop
vertex 0.003847 0.001412 0.150000
vertex 0.003890 0.001516 0.150000
vertex 0.003935 0.001626 0.150000
endloop
endfacet
facet normal -0.024701 0.000000 0.999695
outer loop
vertex 0.003935 0.001626 0.150000
vertex 0.003982 0.001742 0.150000
vertex 0.004029 0.001863 0.150000
endloop
endfacet
facet normal 0.000000 0.000000 1.000000
outer loop
vertex 0.004029 0.001863 0.150000
vertex 0.004077 0.001988 0.150000
vertex 0.004124 0.002117 0.150000
endloop
endfacet
facet normal 0.000000 0.000000 1.000000
outer loop
vertex 0.004124 0.002117 0.150000
vertex 0.004169 0.002249 0.150000
vertex 0.004213 0.002383 0.150000
endloop
endfacet
facet normal 0.000000 0.000000 1.000000
outer loop
vertex 0.004213 0.002383 0.150000
vertex 0.004253 0.002518 0.150000
vertex 0.004323 0.002788 0.150000
endloop
endfacet
facet normal 0.000000 0.000000 1.000000
outer loop
vertex 0.004323 0.002788 0.150000
vertex 0.004351 0.002922 0.150000
vertex 0.004373 0.003057 0.150000
endloop
endfacet
facet normal 0.000000 0.000000 1.000000
outer loop
vertex 0.004373 0.003057 0.150000
vertex 0.004389 0.003195 0.150000
vertex 0.004403 0.003481 0.150000
endloop
endfacet
facet normal 0.000000 0.000000 1.000000
outer loop
vertex 0.004403 0.003481 0.150000
vertex 0.004391 0.003777 0.150000
vertex 0.004352 0.004082 0.150000
endloop
endfacet
facet normal 0.000000 0.000000 1.000000
outer loop
vertex 0.004352 0.004082 0.150000
vertex 0.004283 0.004393 0.150000
vertex 0.002871 0.007837 0.150000
endloop
endfacet
facet normal 0.001524 0.000000 0.999999
outer loop
vertex 0.002871 0.007837 0.150000
vertex 0.002718 0.008109 0.150000
vertex 0.002631 0.008249 0.150000
endloop
endfacet
facet normal -0.003836 0.000000 0.999993
outer loop
vertex 0.002631 0.008249 0.150000
vertex 0.002534 0.008392 0.150000
vertex 0.002431 0.008536 0.150000
endloop
endfacet
facet normal 0.000000 0.000000 1.000000
outer loop
vertex 0.002431 0.008536 0.150000
vertex 0.002323 0.008678 0.150000
vertex 0.002214 0.008816 0.150000
endloop
endfacet
facet normal 0.000000 0.000000 1.000000
outer loop
vertex 0.002214 0.008816 0.150000
vertex 0.002005 0.009068 0.150000
vertex 0.001826 0.009274 0.150000
endloop
endfacet
facet normal 0.000000 0.000000 1.000000
outer loop
vertex 0.001826 0.009274 0.150000
vertex 0.001654 0.009462 0.150000
vertex 0.000399 0.009425 0.150000
endloop
endfacet
facet normal 0.000000 0.000000 1.000000
outer loop
vertex 0.000399 0.009425 0.150000
vertex 0.000157 0.008847 0.150000
vertex 0.000015 0.007874 0.150000
endloop
endfacet
facet normal 0.000000 0.000000 1.000000
outer loop
vertex 0.000015 0.007874 0.150000
vertex 0.000008 0.007695 0.150000
vertex 0.000004 0.007272 0.150000
endloop
endfacet
facet normal 0.010330 0.000000 0.999947
outer loop
vertex 0.000004 0.007272 0.150000
vertex 0.000001 0.006655 0.150000
vertex 0.000000 0.005894 0.150000
endloop
endfacet
facet normal 0.000000 0.000000 1.000000
outer loop
vertex 0.000000 0.005894 0.150000
vertex 0.000000 0.005038 0.150000
vertex 0.000002 0.004135 0.150000
endloop
endfacet
facet normal 0.000000 0.000000 1.000000
outer loop
vertex 0.000002 0.004135 0.150000
vertex 0.000004 0.003236 0.150000
vertex 0.000009 0.001646 0.150000
endloop
endfacet
facet normal 0.000011 0.000000 1.000000
outer loop
vertex 0.000009 0.001646 0.150000
vertex 0.000013 0.000520 0.150000
vertex 0.000607 0.000315 0.150000
endloop
endfacet
facet normal 0.000811 0.000000 1.000000
outer loop
vertex 0.000607 0.000315 0.150000
vertex 0.001224 0.000121 0.150000
vertex 0.001414 0.000068 0.150000
endloop
endfacet
facet normal 0.000320 0.000000 1.000000
outer loop
vertex 0.001414 0.000068 0.150000
vertex 0.001581 0.000028 0.150000
vertex 0.001715 0.000005 0.150000
endloop
endfacet
facet normal 0.000000 0.000000 1.000000
outer loop
vertex 0.001715 0.000005 0.150000
vertex 0.001806 0.000001 0.150000
vertex 0.001877 0.000010 0.150000
endloop
endfacet
facet normal 0.000000 0.000000 1.000000
outer loop
vertex 0.001877 0.000010 0.150000
vertex 0.001955 0.000019 0.150000
vertex 0.002038 0.000030 0.150000
endloop
endfacet
facet normal -0.002291 0.000000 0.999997
outer loop
vertex 0.002038 0.000030 0.150000
vertex 0.002127 0.000043 0.150000
vertex 0.002220 0.000058 0.150000
endloop
endfacet
facet normal 0.000000 0.000000 1.000000
outer loop
vertex 0.002220 0.000058 0.150000
vertex 0.002315 0.000077 0.150000
vertex 0.002507 0.000128 0.150000
endloop
endfacet
facet normal -0.000416 0.000000 1.000000
outer loop
vertex 0.002507 0.000128 0.150000
vertex 0.002696 0.000201 0.150000
vertex 0.002785 0.000247 0.150000
endloop
endfacet
facet normal -0.001884 0.000000 0.999998
outer loop
vertex 0.002785 0.000247 0.150000
vertex 0.002870 0.000301 0.150000
vertex 0.003138 0.000516 0.150000
endloop
endfacet
facet normal 0.000000 0.000000 1.000000
outer loop
vertex 0.003138 0.000516 0.150000
vertex 0.003419 0.000793 0.150000
vertex 0.003670 0.001103 0.150000
endloop
endfacet
facet normal 0.000000 0.000000 1.000000
outer loop
vertex 0.003670 0.001103 0.150000
vertex 0.003847 0.001412 0.150000
vertex 0.003935 0.001626 0.150000
endloop
endfacet
facet normal 0.000000 0.000000 1.000000
outer loop
vertex 0.003935 0.001626 0.150000
vertex 0.004029 0.001863 0.150000
vertex 0.004124 0.002117 0.150000
endloop
endfacet
facet normal 0.001075 0.000000 0.999999
outer loop
vertex 0.004124 0.002117 0.150000
vertex 0.004213 0.002383 0.150000
vertex 0.004323 0.002788 0.150000
endloop
endfacet
facet normal -0.001124 0.000000 0.999999
outer loop
vertex 0.004323 0.002788 0.150000
vertex 0.004373 0.003057 0.150000
vertex 0.004403 0.003481 0.150000
endloop
endfacet
facet normal 0.000000 0.000000 1.000000
outer loop
vertex 0.004403 0.003481 0.150000
vertex 0.004352 0.004082 0.150000
vertex 0.002871 0.007837 0.150000
endloop
endfacet
facet normal 0.000545 0.000000 1.000000
outer loop
vertex 0.002871 0.007837 0.150000
vertex 0.002631 0.008249 0.150000
vertex 0.002431 0.008536 0.150000
endloop
endfacet
facet normal 0.000000 0.000000 1.000000
outer loop
vertex 0.002431 0.008536 0.150000
vertex 0.002214 0.008816 0.150000
vertex 0.001826 0.009274 0.150000
endloop
endfacet
facet normal -0.000013 0.000000 1.000000
outer loop
vertex 0.001826 0.009274 0.150000
vertex 0.000399 0.009425 0.150000
vertex 0.000015 0.007874 0.150000
endloop
endfacet
facet normal 0.002112 0.000000 0.999998
outer loop
vertex 0.000015 0.007874 0.150000
vertex 0.000004 0.007272 0.150000
vertex 0.000000 0.005894 0.150000
endloop
endfacet
facet normal 0.000000 0.000000 1.000000
outer loop
vertex 0.000000 0.005894 0.150000
vertex 0.000002 0.004135 0.150000
vertex 0.000009 0.001646 0.150000
endloop
endfacet
facet normal 0.000000 0.000000 1.000000
outer loop
vertex 0.000009 0.001646 0.150000
vertex 0.000607 0.000315 0.150000
vertex 0.001414 0.000068 0.150000
endloop
endfacet
facet normal 0.000010 0.000000 1.000000
outer loop
vertex 0.001414 0.000068 0.150000
vertex 0.001715 0.000005 0.150000
vertex 0.001877 0.000010 0.150000
endloop
endfacet
facet normal -0.000940 0.000000 1.000000
outer loop
vertex 0.001877 0.000010 0.150000
vertex 0.002038 0.000030 0.150000
vertex 0.002220 0.000058 0.150000
endloop
endfacet
facet normal 0.000246 0.000000 1.000000
outer loop
vertex 0.002220 0.000058 0.150000
vertex 0.002507 0.000128 0.150000
vertex 0.002785 0.000247 0.150000
endloop
endfacet
facet normal 0.000000 0.000000 1.000000
outer loop
vertex 0.002785 0.000247 0.150000
vertex 0.003138 0.000516 0.150000
vertex 0.003670 0.001103 0.150000
endloop
endfacet
facet normal 0.000000 0.000000 1.000000
outer loop
vertex 0.003670 0.001103 0.150000
vertex 0.003935 0.001626 0.150000
vertex 0.004124 0.002117 0.150000
endloop
endfacet
facet normal 0.000173 0.000000 1.000000
outer loop
vertex 0.004124 0.002117 0.150000
vertex 0.004323 0.002788 0.150000
vertex 0.004403 0.003481 0.150000
endloop
endfacet
facet normal -0.000017 0.000000 1.000000
outer loop
vertex 0.004403 0.003481 0.150000
vertex 0.002871 0.007837 0.150000
vertex 0.002431 0.008536 0.150000
endloop
endfacet
facet normal 0.000013 0.000000 1.000000
outer loop
vertex 0.002431 0.008536 0.150000
vertex 0.001826 0.009274 0.150000
vertex 0.000015 0.007874 0.150000
endloop
endfacet
facet normal 0.000000 0.000000 1.000000
outer loop
vertex 0.000015 0.007874 0.150000
vertex 0.000000 0.005894 0.150000
vertex 0.000009 0.001646 0.150000
endloop
endfacet
facet normal -0.000039 0.000000 1.000000
outer loop
vertex 0.000009 0.001646 0.150000
vertex 0.001414 0.000068 0.150000
vertex 0.001877 0.000010 0.150000
endloop
endfacet
facet normal 0.000000 0.000000 1.000000
outer loop
vertex 0.001877 0.000010 0.150000
vertex 0.002220 0.000058 0.150000
vertex 0.002785 0.000247 0.150000
endloop
endfacet
facet normal 0.000057 0.000000 1.000000
outer loop
vertex 0.002785 0.000247 0.150000
vertex 0.003670 0.001103 0.150000
vertex 0.004124 0.002117 0.150000
endloop
endfacet
facet normal 0.000000 0.000000 1.000000
outer loop
vertex 0.004124 0.002117 0.150000
vertex 0.004403 0.003481 0.150000
vertex 0.002431 0.008536 0.150000
endloop
endfacet
facet normal -0.000008 0.000000 1.000000
outer loop
vertex 0.002431 0.008536 0.150000
vertex 0.000015 0.007874 0.150000
vertex 0.000009 0.001646 0.150000
endloop
endfacet
facet normal 0.000008 0.000000 1.000000
outer loop
vertex 0.000009 0.001646 0.150000
vertex 0.001877 0.000010 0.150000
vertex 0.002785 0.000247 0.150000
endloop
endfacet
facet normal 0.000010 0.000000 1.000000
outer loop
vertex 0.002785 0.000247 0.150000
vertex 0.004124 0.002117 0.150000
vertex 0.002431 0.008536 0.150000
endloop
endfacet
facet normal 0.000001 0.000000 1.000000
outer loop
vertex 0.002431 0.008536 0.150000
vertex 0.000009 0.001646 0.150000
vertex 0.002785 0.000247 0.150000
endloop
endfacet
facet normal 0.850872 -0.525372 0.000000
outer loop
vertex 0.003670 0.001103 0.150000
vertex 0.003670 0.001103 0.000000
vertex 0.003799 0.001311 0.000000
endloop
endfacet
facet normal 0.850875 -0.525368 0.000000
outer loop
vertex 0.003670 0.001103 0.150000
vertex 0.003799 0.001311 0.000000
vertex 0.003799 0.001311 0.150000
endloop
endfacet
facet normal 0.999207 0.039814 0.000000
outer loop
vertex 0.004403 0.003481 0.000000
vertex 0.004391 0.003777 0.000000
vertex 0.004391 0.003777 0.150000
endloop
endfacet
facet normal 0.999207 0.039812 0.000000
outer loop
vertex 0.004403 0.003481 0.000000
vertex 0.004391 0.003777 0.150000
vertex 0.004403 0.003481 0.150000
endloop
endfacet
facet normal 0.925307 0.379218 0.000000
outer loop
vertex 0.004283 0.004393 0.000000
vertex 0.002871 0.007837 0.000000
vertex 0.002871 0.007837 0.150000
endloop
endfacet
facet normal 0.925307 0.379218 0.000000
outer loop
vertex 0.004283 0.004393 0.000000
vertex 0.002871 0.007837 0.150000
vertex 0.004283 0.004393 0.150000
endloop
endfacet
facet normal 0.789871 -0.613273 0.000000
outer loop
vertex 0.003670 0.001103 0.000000
vertex 0.003670 0.001103 0.150000
vertex 0.003509 0.000894 0.150000
endloop
endfacet
facet normal 0.789871 -0.613273 0.000000
outer loop
vertex 0.003670 0.001103 0.000000
vertex 0.003509 0.000894 0.150000
vertex 0.003509 0.000894 0.000000
endloop
endfacet
facet normal -0.999993 -0.003781 0.000000
outer loop
vertex 0.000009 0.001646 0.000000
vertex 0.000013 0.000520 0.000000
vertex 0.000013 0.000520 0.150000
endloop
endfacet
facet normal -0.999993 -0.003781 0.000000
outer loop
vertex 0.000009 0.001646 0.000000
vertex 0.000013 0.000520 0.150000
vertex 0.000009 0.001646 0.150000
endloop
endfacet
facet normal -0.999995 -0.003050 0.000000
outer loop
vertex 0.000004 0.003236 0.000000
vertex 0.000009 0.001646 0.000000
vertex 0.000009 0.001646 0.150000
endloop
endfacet
facet normal -0.999995 -0.003050 0.000000
outer loop
vertex 0.000004 0.003236 0.000000
vertex 0.000009 0.001646 0.150000
vertex 0.000004 0.003236 0.150000
endloop
endfacet
facet normal -0.999997 -0.002280 0.000000
outer loop
vertex 0.000002 0.004135 0.000000
vertex 0.000004 0.003236 0.000000
vertex 0.000004 0.003236 0.150000
endloop
endfacet
facet normal -0.999997 -0.002280 0.000000
outer loop
vertex 0.000002 0.004135 0.000000
vertex 0.000004 0.003236 0.150000
vertex 0.000002 0.004135 0.150000
endloop
endfacet
facet normal -0.999999 -0.001512 0.000000
outer loop
vertex 0.000000 0.005038 0.000000
vertex 0.000002 0.004135 0.000000
vertex 0.000002 0.004135 0.150000
endloop
endfacet
facet normal -0.999999 -0.001512 0.000000
outer loop
vertex 0.000000 0.005038 0.000000
vertex 0.000002 0.004135 0.150000
vertex 0.000000 0.005038 0.150000
endloop
endfacet
facet normal -1.000000 -0.000413 0.000000
outer loop
vertex 0.000000 0.005894 0.000000
vertex 0.000000 0.005038 0.000000
vertex 0.000000 0.005038 0.150000
endloop
endfacet
facet normal -1.000000 -0.000413 0.000000
outer loop
vertex 0.000000 0.005894 0.000000
vertex 0.000000 0.005038 0.150000
vertex 0.000000 0.005894 0.150000
endloop
endfacet
facet normal -0.999999 0.001293 0.000000
outer loop
vertex 0.000001 0.006655 0.000000
vertex 0.000000 0.005894 0.000000
vertex 0.000000 0.005894 0.150000
endloop
endfacet
facet normal -0.999999 0.001293 0.000000
outer loop
vertex 0.000001 0.006655 0.000000
vertex 0.000000 0.005894 0.150000
vertex 0.000001 0.006655 0.150000
endloop
endfacet
facet normal -0.999991 0.004294 0.000000
outer loop
vertex 0.000004 0.007272 0.000000
vertex 0.000001 0.006655 0.000000
vertex 0.000001 0.006655 0.150000
endloop
endfacet
facet normal -0.999991 0.004294 0.000000
outer loop
vertex 0.000004 0.007272 0.000000
vertex 0.000001 0.006655 0.150000
vertex 0.000004 0.007272 0.150000
endloop
endfacet
facet normal -0.999249 0.038758 0.000000
outer loop
vertex 0.000015 0.007874 0.150000
vertex 0.000015 0.007874 0.000000
vertex 0.000008 0.007695 0.000000
endloop
endfacet
facet normal -0.999940 0.010973 0.000000
outer loop
vertex 0.000008 0.007695 0.000000
vertex 0.000004 0.007272 0.000000
vertex 0.000004 0.007272 0.150000
endloop
endfacet
facet normal -0.999249 0.038758 0.000000
outer loop
vertex 0.000008 0.007695 0.150000
vertex 0.000015 0.007874 0.150000
vertex 0.000008 0.007695 0.000000
endloop
endfacet
facet normal -0.999940 0.010973 0.000000
outer loop
vertex 0.000004 0.007272 0.150000
vertex 0.000008 0.007695 0.150000
vertex 0.000008 0.007695 0.000000
endloop
endfacet
facet normal 0.871668 0.490096 0.000000
outer loop
vertex 0.002718 0.008109 0.150000
vertex 0.002871 0.007837 0.150000
vertex 0.002871 0.007837 0.000000
endloop
endfacet
facet normal 0.871667 0.490098 0.000000
outer loop
vertex 0.002718 0.008109 0.150000
vertex 0.002871 0.007837 0.000000
vertex 0.002718 0.008109 0.000000
endloop
endfacet
facet normal 0.848045 0.529924 0.000000
outer loop
vertex 0.002631 0.008249 0.150000
vertex 0.002718 0.008109 0.150000
vertex 0.002718 0.008109 0.000000
endloop
endfacet
facet normal 0.848045 0.529924 0.000000
outer loop
vertex 0.002631 0.008249 0.150000
vertex 0.002718 0.008109 0.000000
vertex 0.002631 0.008249 0.000000
endloop
endfacet
facet normal 0.811789 0.583951 0.000000
outer loop
vertex 0.002431 0.008536 0.000000
vertex 0.002431 0.008536 0.150000
vertex 0.002534 0.008392 0.150000
endloop
endfacet
facet normal 0.829533 0.558458 0.000000
outer loop
vertex 0.002534 0.008392 0.150000
vertex 0.002631 0.008249 0.150000
vertex 0.002631 0.008249 0.000000
endloop
endfacet
facet normal 0.811790 0.583950 0.000000
outer loop
vertex 0.002534 0.008392 0.000000
vertex 0.002431 0.008536 0.000000
vertex 0.002534 0.008392 0.150000
endloop
endfacet
facet normal 0.829535 0.558455 0.000000
outer loop
vertex 0.002631 0.008249 0.000000
vertex 0.002534 0.008392 0.000000
vertex 0.002534 0.008392 0.150000
endloop
endfacet
facet normal 0.255744 -0.966744 0.000000
outer loop
vertex 0.002315 0.000077 0.000000
vertex 0.002507 0.000128 0.000000
vertex 0.002507 0.000128 0.150000
endloop
endfacet
facet normal 0.255744 -0.966744 0.000000
outer loop
vertex 0.002315 0.000077 0.000000
vertex 0.002507 0.000128 0.150000
vertex 0.002315 0.000077 0.150000
endloop
endfacet
facet normal -0.233573 -0.972339 0.000000
outer loop
vertex 0.001414 0.000068 0.000000
vertex 0.001581 0.000028 0.000000
vertex 0.001581 0.000028 0.150000
endloop
endfacet
facet normal -0.233573 -0.972339 0.000000
outer loop
vertex 0.001414 0.000068 0.000000
vertex 0.001581 0.000028 0.150000
vertex 0.001414 0.000068 0.150000
endloop
endfacet
facet normal -0.266353 -0.963876 0.000000
outer loop
vertex 0.001224 0.000121 0.000000
vertex 0.001414 0.000068 0.000000
vertex 0.001414 0.000068 0.150000
endloop
endfacet
facet normal -0.266353 -0.963875 0.000000
outer loop
vertex 0.001224 0.000121 0.000000
vertex 0.001414 0.000068 0.150000
vertex 0.001224 0.000121 0.150000
endloop
endfacet
facet normal -0.326686 -0.945133 0.000000
outer loop
vertex 0.000013 0.000520 0.150000
vertex 0.000013 0.000520 0.000000
vertex 0.000607 0.000315 0.000000
endloop
endfacet
facet normal -0.299979 -0.953946 0.000000
outer loop
vertex 0.000607 0.000315 0.000000
vertex 0.001224 0.000121 0.000000
vertex 0.001224 0.000121 0.150000
endloop
endfacet
facet normal -0.326686 -0.945133 0.000000
outer loop
vertex 0.000607 0.000315 0.150000
vertex 0.000013 0.000520 0.150000
vertex 0.000607 0.000315 0.000000
endloop
endfacet
facet normal -0.299979 -0.953946 0.000000
outer loop
vertex 0.001224 0.000121 0.150000
vertex 0.000607 0.000315 0.150000
vertex 0.000607 0.000315 0.000000
endloop
endfacet
facet normal 0.625509 -0.780217 0.000000
outer loop
vertex 0.002870 0.000301 0.000000
vertex 0.003138 0.000516 0.000000
vertex 0.003138 0.000516 0.150000
endloop
endfacet
facet normal 0.625510 -0.780216 0.000000
outer loop
vertex 0.002870 0.000301 0.000000
vertex 0.003138 0.000516 0.150000
vertex 0.002870 0.000301 0.150000
endloop
endfacet
facet normal 0.534162 -0.845382 0.000000
outer loop
vertex 0.002785 0.000247 0.150000
vertex 0.002785 0.000247 0.000000
vertex 0.002870 0.000301 0.000000
endloop
endfacet
facet normal 0.534165 -0.845380 0.000000
outer loop
vertex 0.002785 0.000247 0.150000
vertex 0.002870 0.000301 0.000000
vertex 0.002870 0.000301 0.150000
endloop
endfacet
facet normal 0.750211 -0.661198 0.000000
outer loop
vertex 0.003419 0.000793 0.000000
vertex 0.003509 0.000894 0.000000
vertex 0.003509 0.000894 0.150000
endloop
endfacet
facet normal 0.750211 -0.661198 0.000000
outer loop
vertex 0.003419 0.000793 0.000000
vertex 0.003509 0.000894 0.150000
vertex 0.003419 0.000793 0.150000
endloop
endfacet
facet normal 0.690363 -0.723463 0.000000
outer loop
vertex 0.003138 0.000516 0.150000
vertex 0.003138 0.000516 0.000000
vertex 0.003327 0.000696 0.000000
endloop
endfacet
facet normal 0.725824 -0.687881 0.000000
outer loop
vertex 0.003327 0.000696 0.000000
vertex 0.003419 0.000793 0.000000
vertex 0.003419 0.000793 0.150000
endloop
endfacet
facet normal 0.690363 -0.723463 0.000000
outer loop
vertex 0.003327 0.000696 0.150000
vertex 0.003138 0.000516 0.150000
vertex 0.003327 0.000696 0.000000
endloop
endfacet
facet normal 0.725821 -0.687883 0.000000
outer loop
vertex 0.003327 0.000696 0.000000
vertex 0.003419 0.000793 0.150000
vertex 0.003327 0.000696 0.150000
endloop
endfacet
facet normal 0.458388 -0.888752 0.000000
outer loop
vertex 0.002696 0.000201 0.150000
vertex 0.002696 0.000201 0.000000
vertex 0.002785 0.000247 0.000000
endloop
endfacet
facet normal 0.458386 -0.888753 0.000000
outer loop
vertex 0.002696 0.000201 0.150000
vertex 0.002785 0.000247 0.000000
vertex 0.002785 0.000247 0.150000
endloop
endfacet
facet normal -0.173984 -0.984748 0.000000
outer loop
vertex 0.001581 0.000028 0.150000
vertex 0.001581 0.000028 0.000000
vertex 0.001715 0.000005 0.000000
endloop
endfacet
facet normal -0.173984 -0.984748 0.000000
outer loop
vertex 0.001581 0.000028 0.150000
vertex 0.001715 0.000005 0.000000
vertex 0.001715 0.000005 0.150000
endloop
endfacet
facet normal 0.196139 -0.980576 0.000000
outer loop
vertex 0.002220 0.000058 0.000000
vertex 0.002315 0.000077 0.000000
vertex 0.002315 0.000077 0.150000
endloop
endfacet
facet normal 0.196140 -0.980576 0.000000
outer loop
vertex 0.002220 0.000058 0.000000
vertex 0.002315 0.000077 0.150000
vertex 0.002220 0.000058 0.150000
endloop
endfacet
facet normal 0.165950 -0.986134 0.000000
outer loop
vertex 0.002127 0.000043 0.000000
vertex 0.002220 0.000058 0.000000
vertex 0.002220 0.000058 0.150000
endloop
endfacet
facet normal 0.165950 -0.986134 0.000000
outer loop
vertex 0.002127 0.000043 0.000000
vertex 0.002220 0.000058 0.150000
vertex 0.002127 0.000043 0.150000
endloop
endfacet
facet normal 0.142631 -0.989776 0.000000
outer loop
vertex 0.002038 0.000030 0.000000
vertex 0.002127 0.000043 0.000000
vertex 0.002127 0.000043 0.150000
endloop
endfacet
facet normal 0.142631 -0.989776 0.000000
outer loop
vertex 0.002038 0.000030 0.000000
vertex 0.002127 0.000043 0.150000
vertex 0.002038 0.000030 0.150000
endloop
endfacet
facet normal 0.126434 -0.991975 0.000000
outer loop
vertex 0.001955 0.000019 0.000000
vertex 0.002038 0.000030 0.000000
vertex 0.002038 0.000030 0.150000
endloop
endfacet
facet normal 0.126433 -0.991975 0.000000
outer loop
vertex 0.001955 0.000019 0.000000
vertex 0.002038 0.000030 0.150000
vertex 0.001955 0.000019 0.150000
endloop
endfacet
facet normal 0.119566 -0.992826 0.000000
outer loop
vertex 0.001806 0.000001 0.150000
vertex 0.001806 0.000001 0.000000
vertex 0.001877 0.000010 0.000000
endloop
endfacet
facet normal 0.118164 -0.992994 0.000000
outer loop
vertex 0.001877 0.000010 0.000000
vertex 0.001955 0.000019 0.000000
vertex 0.001955 0.000019 0.150000
endloop
endfacet
facet normal 0.119567 -0.992826 0.000000
outer loop
vertex 0.001877 0.000010 0.150000
vertex 0.001806 0.000001 0.150000
vertex 0.001877 0.000010 0.000000
endloop
endfacet
facet normal 0.118164 -0.992994 0.000000
outer loop
vertex 0.001955 0.000019 0.150000
vertex 0.001877 0.000010 0.150000
vertex 0.001877 0.000010 0.000000
endloop
endfacet
facet normal 0.976217 0.216797 0.000000
outer loop
vertex 0.004352 0.004082 0.000000
vertex 0.004283 0.004393 0.000000
vertex 0.004283 0.004393 0.150000
endloop
endfacet
facet normal 0.976216 0.216801 0.000000
outer loop
vertex 0.004352 0.004082 0.000000
vertex 0.004283 0.004393 0.150000
vertex 0.004352 0.004082 0.150000
endloop
endfacet
facet normal -0.922252 0.386589 0.000000
outer loop
vertex 0.000399 0.009425 0.150000
vertex 0.000399 0.009425 0.000000
vertex 0.000157 0.008847 0.000000
endloop
endfacet
facet normal -0.922252 0.386589 0.000000
outer loop
vertex 0.000399 0.009425 0.150000
vertex 0.000157 0.008847 0.000000
vertex 0.000157 0.008847 0.150000
endloop
endfacet
facet normal 0.998774 -0.049509 0.000000
outer loop
vertex 0.004403 0.003481 0.000000
vertex 0.004403 0.003481 0.150000
vertex 0.004389 0.003195 0.150000
endloop
endfacet
facet normal 0.998774 -0.049509 0.000000
outer loop
vertex 0.004403 0.003481 0.000000
vertex 0.004389 0.003195 0.150000
vertex 0.004389 0.003195 0.000000
endloop
endfacet
endsolid Exported from Blender-3.6.8
