solid Exported from Blender-3.6.8
facet normal -0.441048 0.897483 0.000000
outer loop
vertex 0.004910 0.007678 0.000000
vertex 0.004626 0.007538 0.000000
vertex 0.004626 0.007538 0.150000
endloop
endfacet
facet normal -0.441047 0.897484 0.000000
outer loop
vertex 0.004910 0.007678 0.000000
vertex 0.004626 0.007538 0.150000
vertex 0.004910 0.007678 0.150000
endloop
endfacet
facet normal 0.140497 -0.990081 0.000000
outer loop
vertex 0.007268 0.000877 0.150000
vertex 0.007268 0.000877 0.000000
vertex 0.007557 0.000918 0.000000
endloop
endfacet
facet normal 0.140498 -0.990081 0.000000
outer loop
vertex 0.007268 0.000877 0.150000
vertex 0.007557 0.000918 0.000000
vertex 0.007557 0.000918 0.150000
endloop
endfacet
facet normal -0.986873 0.161496 0.000000
outer loop
vertex 0.000043 0.002902 0.150000
vertex 0.000043 0.002902 0.000000
vertex 0.000002 0.002654 0.000000
endloop
endfacet
facet normal -0.986873 0.161496 0.000000
outer loop
vertex 0.000043 0.002902 0.150000
vertex 0.000002 0.002654 0.000000
vertex 0.000002 0.002654 0.150000
endloop
endfacet
facet normal -0.468378 -0.883528 0.000000
outer loop
vertex 0.001839 0.000445 0.150000
vertex 0.001839 0.000445 0.000000
vertex 0.001986 0.000367 0.000000
endloop
endfacet
facet normal -0.468377 -0.883529 0.000000
outer loop
vertex 0.001839 0.000445 0.150000
vertex 0.001986 0.000367 0.000000
vertex 0.001986 0.000367 0.150000
endloop
endfacet
facet normal 0.879058 0.476715 0.000000
outer loop
vertex 0.011870 0.003004 0.000000
vertex 0.011016 0.004579 0.000000
vertex 0.011016 0.004579 0.150000
endloop
endfacet
facet normal 0.879058 0.476715 0.000000
outer loop
vertex 0.011870 0.003004 0.000000
vertex 0.011016 0.004579 0.150000
vertex 0.011870 0.003004 0.150000
endloop
endfacet
facet normal -0.590427 0.807091 0.000000
outer loop
vertex 0.002992 0.006824 0.000000
vertex 0.001176 0.005496 0.000000
vertex 0.001176 0.005496 0.150000
endloop
endfacet
facet normal -0.590427 0.807091 0.000000
outer loop
vertex 0.002992 0.006824 0.000000
vertex 0.001176 0.005496 0.150000
vertex 0.002992 0.006824 0.150000
endloop
endfacet
facet normal 0.955084 -0.296336 0.000000
outer loop
vertex 0.011959 0.001858 0.150000
vertex 0.011959 0.001858 0.000000
vertex 0.012005 0.002005 0.000000
endloop
endfacet
facet normal 0.955081 -0.296345 0.000000
outer loop
vertex 0.011959 0.001858 0.150000
vertex 0.012005 0.002005 0.000000
vertex 0.012005 0.002005 0.150000
endloop
endfacet
facet normal 0.074741 -0.997203 0.000000
outer loop
vertex 0.010935 0.000821 0.150000
vertex 0.010935 0.000821 0.000000
vertex 0.011081 0.000831 0.000000
endloop
endfacet
facet normal 0.074740 -0.997203 0.000000
outer loop
vertex 0.010935 0.000821 0.150000
vertex 0.011081 0.000831 0.000000
vertex 0.011081 0.000831 0.150000
endloop
endfacet
facet normal -0.385393 -0.922752 0.000000
outer loop
vertex 0.001986 0.000367 0.150000
vertex 0.001986 0.000367 0.000000
vertex 0.002331 0.000223 0.000000
endloop
endfacet
facet normal -0.385393 -0.922753 0.000000
outer loop
vertex 0.001986 0.000367 0.150000
vertex 0.002331 0.000223 0.000000
vertex 0.002331 0.000223 0.150000
endloop
endfacet
facet normal -0.015485 0.000000 0.999880
outer loop
vertex 0.011690 0.001362 0.150000
vertex 0.011761 0.001477 0.150000
vertex 0.011833 0.001597 0.150000
endloop
endfacet
facet normal -0.002111 0.000000 0.999998
outer loop
vertex 0.011833 0.001597 0.150000
vertex 0.011900 0.001723 0.150000
vertex 0.011959 0.001858 0.150000
endloop
endfacet
facet normal 0.000000 0.000000 1.000000
outer loop
vertex 0.011959 0.001858 0.150000
vertex 0.012005 0.002005 0.150000
vertex 0.012033 0.002167 0.150000
endloop
endfacet
facet normal 0.000733 0.000000 1.000000
outer loop
vertex 0.012033 0.002167 0.150000
vertex 0.012038 0.002345 0.150000
vertex 0.012015 0.002542 0.150000
endloop
endfacet
facet normal 0.000000 0.000000 1.000000
outer loop
vertex 0.012015 0.002542 0.150000
vertex 0.011961 0.002761 0.150000
vertex 0.011870 0.003004 0.150000
endloop
endfacet
facet normal 0.000000 0.000000 1.000000
outer loop
vertex 0.011870 0.003004 0.150000
vertex 0.011016 0.004579 0.150000
vertex 0.010715 0.005042 0.150000
endloop
endfacet
facet normal 0.000000 0.000000 1.000000
outer loop
vertex 0.010715 0.005042 0.150000
vertex 0.010576 0.005245 0.150000
vertex 0.010449 0.005424 0.150000
endloop
endfacet
facet normal -0.004791 0.000000 0.999988
outer loop
vertex 0.010449 0.005424 0.150000
vertex 0.010336 0.005576 0.150000
vertex 0.010242 0.005697 0.150000
endloop
endfacet
facet normal -0.000310 0.000000 1.000000
outer loop
vertex 0.010242 0.005697 0.150000
vertex 0.010100 0.005817 0.150000
vertex 0.009532 0.006130 0.150000
endloop
endfacet
facet normal -0.000022 0.000000 1.000000
outer loop
vertex 0.009532 0.006130 0.150000
vertex 0.006071 0.007556 0.150000
vertex 0.005534 0.007681 0.150000
endloop
endfacet
facet normal -0.000062 0.000000 1.000000
outer loop
vertex 0.005534 0.007681 0.150000
vertex 0.005159 0.007720 0.150000
vertex 0.005060 0.007716 0.150000
endloop
endfacet
facet normal 0.000000 0.000000 1.000000
outer loop
vertex 0.005060 0.007716 0.150000
vertex 0.004980 0.007702 0.150000
vertex 0.004910 0.007678 0.150000
endloop
endfacet
facet normal -0.000783 0.000000 1.000000
outer loop
vertex 0.004910 0.007678 0.150000
vertex 0.004626 0.007538 0.150000
vertex 0.004493 0.007457 0.150000
endloop
endfacet
facet normal -0.003490 0.000000 0.999994
outer loop
vertex 0.004493 0.007457 0.150000
vertex 0.004375 0.007378 0.150000
vertex 0.004241 0.007284 0.150000
endloop
endfacet
facet normal 0.000226 0.000000 1.000000
outer loop
vertex 0.004910 0.007678 0.150000
vertex 0.004493 0.007457 0.150000
vertex 0.004241 0.007284 0.150000
endloop
endfacet
facet normal 0.000000 0.000000 1.000000
outer loop
vertex 0.005534 0.007681 0.150000
vertex 0.005060 0.007716 0.150000
vertex 0.004910 0.007678 0.150000
endloop
endfacet
facet normal 0.000046 0.000000 1.000000
outer loop
vertex 0.010242 0.005697 0.150000
vertex 0.009532 0.006130 0.150000
vertex 0.005534 0.007681 0.150000
endloop
endfacet
facet normal 0.000000 0.000000 1.000000
outer loop
vertex 0.010715 0.005042 0.150000
vertex 0.010449 0.005424 0.150000
vertex 0.010242 0.005697 0.150000
endloop
endfacet
facet normal 0.000000 0.000000 1.000000
outer loop
vertex 0.012015 0.002542 0.150000
vertex 0.011870 0.003004 0.150000
vertex 0.010715 0.005042 0.150000
endloop
endfacet
facet normal -0.000221 0.000000 1.000000
outer loop
vertex 0.011959 0.001858 0.150000
vertex 0.012033 0.002167 0.150000
vertex 0.012015 0.002542 0.150000
endloop
endfacet
facet normal 0.000950 0.000000 1.000000
outer loop
vertex 0.011690 0.001362 0.150000
vertex 0.011833 0.001597 0.150000
vertex 0.011959 0.001858 0.150000
endloop
endfacet
facet normal 0.003325 0.000000 0.999994
outer loop
vertex 0.011508 0.001033 0.150000
vertex 0.011568 0.001136 0.150000
vertex 0.011624 0.001249 0.150000
endloop
endfacet
facet normal 0.000000 0.000000 1.000000
outer loop
vertex 0.011624 0.001249 0.150000
vertex 0.011690 0.001362 0.150000
vertex 0.011959 0.001858 0.150000
endloop
endfacet
facet normal 0.000000 0.000000 1.000000
outer loop
vertex 0.011959 0.001858 0.150000
vertex 0.012015 0.002542 0.150000
vertex 0.010715 0.005042 0.150000
endloop
endfacet
facet normal 0.000000 0.000000 1.000000
outer loop
vertex 0.010715 0.005042 0.150000
vertex 0.010242 0.005697 0.150000
vertex 0.005534 0.007681 0.150000
endloop
endfacet
facet normal 0.000000 0.000000 1.000000
outer loop
vertex 0.005534 0.007681 0.150000
vertex 0.004910 0.007678 0.150000
vertex 0.004241 0.007284 0.150000
endloop
endfacet
facet normal 0.000000 0.000000 1.000000
outer loop
vertex 0.005534 0.007681 0.150000
vertex 0.004241 0.007284 0.150000
vertex 0.004189 0.007256 0.150000
endloop
endfacet
facet normal 0.000004 0.000000 1.000000
outer loop
vertex 0.011959 0.001858 0.150000
vertex 0.010715 0.005042 0.150000
vertex 0.005534 0.007681 0.150000
endloop
endfacet
facet normal 0.000000 0.000000 1.000000
outer loop
vertex 0.011428 0.000954 0.150000
vertex 0.011508 0.001033 0.150000
vertex 0.011624 0.001249 0.150000
endloop
endfacet
facet normal -0.000020 0.000000 1.000000
outer loop
vertex 0.011624 0.001249 0.150000
vertex 0.011959 0.001858 0.150000
vertex 0.005534 0.007681 0.150000
endloop
endfacet
facet normal 0.000000 0.000000 1.000000
outer loop
vertex 0.005534 0.007681 0.150000
vertex 0.004189 0.007256 0.150000
vertex 0.004108 0.007221 0.150000
endloop
endfacet
facet normal 0.000751 0.000000 1.000000
outer loop
vertex 0.005534 0.007681 0.150000
vertex 0.004108 0.007221 0.150000
vertex 0.004001 0.007181 0.150000
endloop
endfacet
facet normal -0.000038 0.000000 1.000000
outer loop
vertex 0.011428 0.000954 0.150000
vertex 0.011624 0.001249 0.150000
vertex 0.005534 0.007681 0.150000
endloop
endfacet
facet normal 0.000000 0.000000 1.000000
outer loop
vertex 0.011213 0.000856 0.150000
vertex 0.011329 0.000896 0.150000
vertex 0.011428 0.000954 0.150000
endloop
endfacet
facet normal 0.000000 0.000000 1.000000
outer loop
vertex 0.010935 0.000821 0.150000
vertex 0.011081 0.000831 0.150000
vertex 0.011213 0.000856 0.150000
endloop
endfacet
facet normal -0.000034 0.000000 1.000000
outer loop
vertex 0.010605 0.000829 0.150000
vertex 0.010776 0.000820 0.150000
vertex 0.010935 0.000821 0.150000
endloop
endfacet
facet normal 0.000021 0.000000 1.000000
outer loop
vertex 0.009465 0.000922 0.150000
vertex 0.010605 0.000829 0.150000
vertex 0.010935 0.000821 0.150000
endloop
endfacet
facet normal 0.000092 0.000000 1.000000
outer loop
vertex 0.010935 0.000821 0.150000
vertex 0.011213 0.000856 0.150000
vertex 0.011428 0.000954 0.150000
endloop
endfacet
facet normal 0.000009 0.000000 1.000000
outer loop
vertex 0.011428 0.000954 0.150000
vertex 0.005534 0.007681 0.150000
vertex 0.004001 0.007181 0.150000
endloop
endfacet
facet normal 0.000001 0.000000 1.000000
outer loop
vertex 0.011428 0.000954 0.150000
vertex 0.004001 0.007181 0.150000
vertex 0.003877 0.007137 0.150000
endloop
endfacet
facet normal 0.000000 0.000000 1.000000
outer loop
vertex 0.009465 0.000922 0.150000
vertex 0.010935 0.000821 0.150000
vertex 0.011428 0.000954 0.150000
endloop
endfacet
facet normal 0.000000 0.000000 1.000000
outer loop
vertex 0.009141 0.000934 0.150000
vertex 0.009465 0.000922 0.150000
vertex 0.011428 0.000954 0.150000
endloop
endfacet
facet normal -0.000019 0.000000 1.000000
outer loop
vertex 0.011428 0.000954 0.150000
vertex 0.003877 0.007137 0.150000
vertex 0.003742 0.007091 0.150000
endloop
endfacet
facet normal 0.004180 0.000000 0.999991
outer loop
vertex 0.003742 0.007091 0.150000
vertex 0.003328 0.006952 0.150000
vertex 0.003208 0.006911 0.150000
endloop
endfacet
facet normal 0.000000 0.000000 1.000000
outer loop
vertex 0.003208 0.006911 0.150000
vertex 0.003108 0.006875 0.150000
vertex 0.003034 0.006846 0.150000
endloop
endfacet
facet normal -0.001748 0.000000 0.999999
outer loop
vertex 0.003034 0.006846 0.150000
vertex 0.002992 0.006824 0.150000
vertex 0.001176 0.005496 0.150000
endloop
endfacet
facet normal 0.000816 0.000000 1.000000
outer loop
vertex 0.001176 0.005496 0.150000
vertex 0.000689 0.004542 0.150000
vertex 0.000381 0.003865 0.150000
endloop
endfacet
facet normal 0.000000 0.000000 1.000000
outer loop
vertex 0.000381 0.003865 0.150000
vertex 0.000242 0.003523 0.150000
vertex 0.000043 0.002902 0.150000
endloop
endfacet
facet normal 0.000000 0.000000 1.000000
outer loop
vertex 0.000043 0.002902 0.150000
vertex 0.000002 0.002654 0.150000
vertex 0.000014 0.002466 0.150000
endloop
endfacet
facet normal 0.000000 0.000000 1.000000
outer loop
vertex 0.000014 0.002466 0.150000
vertex 0.000073 0.002305 0.150000
vertex 0.000165 0.002132 0.150000
endloop
endfacet
facet normal 0.000506 0.000000 1.000000
outer loop
vertex 0.000165 0.002132 0.150000
vertex 0.000285 0.001950 0.150000
vertex 0.000930 0.001205 0.150000
endloop
endfacet
facet normal 0.000000 0.000000 1.000000
outer loop
vertex 0.000930 0.001205 0.150000
vertex 0.001106 0.001034 0.150000
vertex 0.001278 0.000876 0.150000
endloop
endfacet
facet normal 0.000000 0.000000 1.000000
outer loop
vertex 0.001278 0.000876 0.150000
vertex 0.001440 0.000736 0.150000
vertex 0.001587 0.000618 0.150000
endloop
endfacet
facet normal 0.000315 0.000000 1.000000
outer loop
vertex 0.001587 0.000618 0.150000
vertex 0.001839 0.000445 0.150000
vertex 0.001986 0.000367 0.150000
endloop
endfacet
facet normal -0.000226 0.000000 1.000000
outer loop
vertex 0.001986 0.000367 0.150000
vertex 0.002331 0.000223 0.150000
vertex 0.002725 0.000105 0.150000
endloop
endfacet
facet normal -0.000041 0.000000 1.000000
outer loop
vertex 0.002725 0.000105 0.150000
vertex 0.003144 0.000027 0.150000
vertex 0.003567 0.000000 0.150000
endloop
endfacet
facet normal 0.000000 0.000000 1.000000
outer loop
vertex 0.003567 0.000000 0.150000
vertex 0.003772 0.000011 0.150000
vertex 0.003968 0.000039 0.150000
endloop
endfacet
facet normal 0.000000 0.000000 1.000000
outer loop
vertex 0.003567 0.000000 0.150000
vertex 0.003968 0.000039 0.150000
vertex 0.007268 0.000877 0.150000
endloop
endfacet
facet normal 0.000051 0.000000 1.000000
outer loop
vertex 0.001986 0.000367 0.150000
vertex 0.002725 0.000105 0.150000
vertex 0.003567 0.000000 0.150000
endloop
endfacet
facet normal -0.000568 0.000000 1.000000
outer loop
vertex 0.001278 0.000876 0.150000
vertex 0.001587 0.000618 0.150000
vertex 0.001986 0.000367 0.150000
endloop
endfacet
facet normal -0.000202 0.000000 1.000000
outer loop
vertex 0.000165 0.002132 0.150000
vertex 0.000930 0.001205 0.150000
vertex 0.001278 0.000876 0.150000
endloop
endfacet
facet normal 0.000000 0.000000 1.000000
outer loop
vertex 0.000043 0.002902 0.150000
vertex 0.000014 0.002466 0.150000
vertex 0.000165 0.002132 0.150000
endloop
endfacet
facet normal -0.000136 0.000000 1.000000
outer loop
vertex 0.001176 0.005496 0.150000
vertex 0.000381 0.003865 0.150000
vertex 0.000043 0.002902 0.150000
endloop
endfacet
facet normal 0.000000 0.000000 1.000000
outer loop
vertex 0.003208 0.006911 0.150000
vertex 0.003034 0.006846 0.150000
vertex 0.001176 0.005496 0.150000
endloop
endfacet
facet normal -0.000015 0.000000 1.000000
outer loop
vertex 0.011428 0.000954 0.150000
vertex 0.003742 0.007091 0.150000
vertex 0.003208 0.006911 0.150000
endloop
endfacet
facet normal 0.000000 0.000000 1.000000
outer loop
vertex 0.007800 0.000932 0.150000
vertex 0.009141 0.000934 0.150000
vertex 0.011428 0.000954 0.150000
endloop
endfacet
facet normal 0.000000 0.000000 1.000000
outer loop
vertex 0.007800 0.000932 0.150000
vertex 0.011428 0.000954 0.150000
vertex 0.003208 0.006911 0.150000
endloop
endfacet
facet normal 0.000016 0.000000 1.000000
outer loop
vertex 0.003208 0.006911 0.150000
vertex 0.001176 0.005496 0.150000
vertex 0.000043 0.002902 0.150000
endloop
endfacet
facet normal -0.000041 0.000000 1.000000
outer loop
vertex 0.000043 0.002902 0.150000
vertex 0.000165 0.002132 0.150000
vertex 0.001278 0.000876 0.150000
endloop
endfacet
facet normal 0.000013 0.000000 1.000000
outer loop
vertex 0.001278 0.000876 0.150000
vertex 0.001986 0.000367 0.150000
vertex 0.003567 0.000000 0.150000
endloop
endfacet
facet normal 0.000000 0.000000 1.000000
outer loop
vertex 0.001278 0.000876 0.150000
vertex 0.003567 0.000000 0.150000
vertex 0.007268 0.000877 0.150000
endloop
endfacet
facet normal -0.000005 0.000000 1.000000
outer loop
vertex 0.003208 0.006911 0.150000
vertex 0.000043 0.002902 0.150000
vertex 0.001278 0.000876 0.150000
endloop
endfacet
facet normal 0.000077 0.000000 1.000000
outer loop
vertex 0.007557 0.000918 0.150000
vertex 0.007800 0.000932 0.150000
vertex 0.003208 0.006911 0.150000
endloop
endfacet
facet normal 0.000000 0.000000 1.000000
outer loop
vertex 0.001278 0.000876 0.150000
vertex 0.007268 0.000877 0.150000
vertex 0.007557 0.000918 0.150000
endloop
endfacet
facet normal 0.000000 0.000000 1.000000
outer loop
vertex 0.003208 0.006911 0.150000
vertex 0.001278 0.000876 0.150000
vertex 0.007557 0.000918 0.150000
endloop
endfacet
facet normal 0.000000 0.000000 -1.000000
outer loop
vertex 0.004241 0.007284 0.000000
vertex 0.004375 0.007378 0.000000
vertex 0.004493 0.007457 0.000000
endloop
endfacet
facet normal 0.000000 0.000000 -1.000000
outer loop
vertex 0.004493 0.007457 0.000000
vertex 0.004626 0.007538 0.000000
vertex 0.004910 0.007678 0.000000
endloop
endfacet
facet normal 0.000000 0.000000 -1.000000
outer loop
vertex 0.004910 0.007678 0.000000
vertex 0.004980 0.007702 0.000000
vertex 0.005060 0.007716 0.000000
endloop
endfacet
facet normal 0.000000 0.000000 -1.000000
outer loop
vertex 0.005060 0.007716 0.000000
vertex 0.005159 0.007720 0.000000
vertex 0.005534 0.007681 0.000000
endloop
endfacet
facet normal 0.000000 0.000000 -1.000000
outer loop
vertex 0.005534 0.007681 0.000000
vertex 0.006071 0.007556 0.000000
vertex 0.009532 0.006130 0.000000
endloop
endfacet
facet normal 0.000000 0.000000 -1.000000
outer loop
vertex 0.009532 0.006130 0.000000
vertex 0.010100 0.005817 0.000000
vertex 0.010242 0.005697 0.000000
endloop
endfacet
facet normal 0.000000 0.000000 -1.000000
outer loop
vertex 0.010242 0.005697 0.000000
vertex 0.010336 0.005576 0.000000
vertex 0.010449 0.005424 0.000000
endloop
endfacet
facet normal 0.000000 0.000000 -1.000000
outer loop
vertex 0.010449 0.005424 0.000000
vertex 0.010576 0.005245 0.000000
vertex 0.010715 0.005042 0.000000
endloop
endfacet
facet normal 0.000000 0.000000 -1.000000
outer loop
vertex 0.010715 0.005042 0.000000
vertex 0.011016 0.004579 0.000000
vertex 0.011870 0.003004 0.000000
endloop
endfacet
facet normal 0.000000 0.000000 -1.000000
outer loop
vertex 0.011870 0.003004 0.000000
vertex 0.011961 0.002761 0.000000
vertex 0.012015 0.002542 0.000000
endloop
endfacet
facet normal 0.000000 0.000000 -1.000000
outer loop
vertex 0.012015 0.002542 0.000000
vertex 0.012038 0.002345 0.000000
vertex 0.012033 0.002167 0.000000
endloop
endfacet
facet normal 0.000000 0.000000 -1.000000
outer loop
vertex 0.012033 0.002167 0.000000
vertex 0.012005 0.002005 0.000000
vertex 0.011959 0.001858 0.000000
endloop
endfacet
facet normal 0.000000 0.000000 -1.000000
outer loop
vertex 0.011959 0.001858 0.000000
vertex 0.011900 0.001723 0.000000
vertex 0.011833 0.001597 0.000000
endloop
endfacet
facet normal 0.000000 0.000000 -1.000000
outer loop
vertex 0.011833 0.001597 0.000000
vertex 0.011761 0.001477 0.000000
vertex 0.011690 0.001362 0.000000
endloop
endfacet
facet normal 0.000000 0.000000 -1.000000
outer loop
vertex 0.011624 0.001249 0.000000
vertex 0.011568 0.001136 0.000000
vertex 0.011508 0.001033 0.000000
endloop
endfacet
facet normal 0.000000 0.000000 -1.000000
outer loop
vertex 0.011959 0.001858 0.000000
vertex 0.011833 0.001597 0.000000
vertex 0.011690 0.001362 0.000000
endloop
endfacet
facet normal 0.000000 0.000000 -1.000000
outer loop
vertex 0.011624 0.001249 0.000000
vertex 0.011508 0.001033 0.000000
vertex 0.011428 0.000954 0.000000
endloop
endfacet
facet normal 0.000000 0.000000 -1.000000
outer loop
vertex 0.011959 0.001858 0.000000
vertex 0.011690 0.001362 0.000000
vertex 0.011624 0.001249 0.000000
endloop
endfacet
facet normal 0.000000 0.000000 -1.000000
outer loop
vertex 0.012015 0.002542 0.000000
vertex 0.012033 0.002167 0.000000
vertex 0.011959 0.001858 0.000000
endloop
endfacet
facet normal 0.000000 0.000000 -1.000000
outer loop
vertex 0.010715 0.005042 0.000000
vertex 0.011870 0.003004 0.000000
vertex 0.012015 0.002542 0.000000
endloop
endfacet
facet normal 0.000000 0.000000 -1.000000
outer loop
vertex 0.010242 0.005697 0.000000
vertex 0.010449 0.005424 0.000000
vertex 0.010715 0.005042 0.000000
endloop
endfacet
facet normal 0.000000 0.000000 -1.000000
outer loop
vertex 0.005534 0.007681 0.000000
vertex 0.009532 0.006130 0.000000
vertex 0.010242 0.005697 0.000000
endloop
endfacet
facet normal 0.000000 0.000000 -1.000000
outer loop
vertex 0.004910 0.007678 0.000000
vertex 0.005060 0.007716 0.000000
vertex 0.005534 0.007681 0.000000
endloop
endfacet
facet normal 0.000000 0.000000 -1.000000
outer loop
vertex 0.004241 0.007284 0.000000
vertex 0.004493 0.007457 0.000000
vertex 0.004910 0.007678 0.000000
endloop
endfacet
facet normal 0.000000 0.000000 -1.000000
outer loop
vertex 0.004241 0.007284 0.000000
vertex 0.004910 0.007678 0.000000
vertex 0.005534 0.007681 0.000000
endloop
endfacet
facet normal 0.000000 0.000000 -1.000000
outer loop
vertex 0.005534 0.007681 0.000000
vertex 0.010242 0.005697 0.000000
vertex 0.010715 0.005042 0.000000
endloop
endfacet
facet normal 0.000000 0.000000 -1.000000
outer loop
vertex 0.010715 0.005042 0.000000
vertex 0.012015 0.002542 0.000000
vertex 0.011959 0.001858 0.000000
endloop
endfacet
facet normal 0.000000 0.000000 -1.000000
outer loop
vertex 0.011959 0.001858 0.000000
vertex 0.011624 0.001249 0.000000
vertex 0.011428 0.000954 0.000000
endloop
endfacet
facet normal 0.000000 0.000000 -1.000000
outer loop
vertex 0.011428 0.000954 0.000000
vertex 0.011329 0.000896 0.000000
vertex 0.011213 0.000856 0.000000
endloop
endfacet
facet normal 0.000000 0.000000 -1.000000
outer loop
vertex 0.011213 0.000856 0.000000
vertex 0.011081 0.000831 0.000000
vertex 0.010935 0.000821 0.000000
endloop
endfacet
facet normal 0.000000 0.000000 -1.000000
outer loop
vertex 0.010935 0.000821 0.000000
vertex 0.010776 0.000820 0.000000
vertex 0.010605 0.000829 0.000000
endloop
endfacet
facet normal 0.000000 0.000000 -1.000000
outer loop
vertex 0.010935 0.000821 0.000000
vertex 0.010605 0.000829 0.000000
vertex 0.009465 0.000922 0.000000
endloop
endfacet
facet normal 0.000000 0.000000 -1.000000
outer loop
vertex 0.011428 0.000954 0.000000
vertex 0.011213 0.000856 0.000000
vertex 0.010935 0.000821 0.000000
endloop
endfacet
facet normal 0.000000 0.000000 -1.000000
outer loop
vertex 0.010715 0.005042 0.000000
vertex 0.011959 0.001858 0.000000
vertex 0.011428 0.000954 0.000000
endloop
endfacet
facet normal 0.000000 0.000000 -1.000000
outer loop
vertex 0.004241 0.007284 0.000000
vertex 0.005534 0.007681 0.000000
vertex 0.010715 0.005042 0.000000
endloop
endfacet
facet normal 0.000000 0.000000 -1.000000
outer loop
vertex 0.004189 0.007256 0.000000
vertex 0.004241 0.007284 0.000000
vertex 0.010715 0.005042 0.000000
endloop
endfacet
facet normal 0.000000 0.000000 -1.000000
outer loop
vertex 0.010715 0.005042 0.000000
vertex 0.011428 0.000954 0.000000
vertex 0.010935 0.000821 0.000000
endloop
endfacet
facet normal 0.000000 0.000000 -1.000000
outer loop
vertex 0.010715 0.005042 0.000000
vertex 0.010935 0.000821 0.000000
vertex 0.009465 0.000922 0.000000
endloop
endfacet
facet normal 0.000000 0.000000 -1.000000
outer loop
vertex 0.004108 0.007221 0.000000
vertex 0.004189 0.007256 0.000000
vertex 0.010715 0.005042 0.000000
endloop
endfacet
facet normal 0.000000 0.000000 -1.000000
outer loop
vertex 0.004001 0.007181 0.000000
vertex 0.004108 0.007221 0.000000
vertex 0.010715 0.005042 0.000000
endloop
endfacet
facet normal 0.000000 0.000000 -1.000000
outer loop
vertex 0.010715 0.005042 0.000000
vertex 0.009465 0.000922 0.000000
vertex 0.009141 0.000934 0.000000
endloop
endfacet
facet normal 0.000000 0.000000 -1.000000
outer loop
vertex 0.010715 0.005042 0.000000
vertex 0.009141 0.000934 0.000000
vertex 0.007800 0.000932 0.000000
endloop
endfacet
facet normal 0.000000 0.000000 -1.000000
outer loop
vertex 0.003877 0.007137 0.000000
vertex 0.004001 0.007181 0.000000
vertex 0.010715 0.005042 0.000000
endloop
endfacet
facet normal 0.000000 0.000000 -1.000000
outer loop
vertex 0.003208 0.006911 0.000000
vertex 0.003328 0.006952 0.000000
vertex 0.003742 0.007091 0.000000
endloop
endfacet
facet normal 0.000000 0.000000 -1.000000
outer loop
vertex 0.003742 0.007091 0.000000
vertex 0.003877 0.007137 0.000000
vertex 0.010715 0.005042 0.000000
endloop
endfacet
facet normal 0.000000 0.000000 -1.000000
outer loop
vertex 0.010715 0.005042 0.000000
vertex 0.007800 0.000932 0.000000
vertex 0.007557 0.000918 0.000000
endloop
endfacet
facet normal 0.000000 0.000000 -1.000000
outer loop
vertex 0.007268 0.000877 0.000000
vertex 0.003968 0.000039 0.000000
vertex 0.003772 0.000011 0.000000
endloop
endfacet
facet normal 0.000000 0.000000 -1.000000
outer loop
vertex 0.010715 0.005042 0.000000
vertex 0.007557 0.000918 0.000000
vertex 0.007268 0.000877 0.000000
endloop
endfacet
facet normal 0.000000 0.000000 -1.000000
outer loop
vertex 0.003208 0.006911 0.000000
vertex 0.003742 0.007091 0.000000
vertex 0.010715 0.005042 0.000000
endloop
endfacet
facet normal 0.000000 0.000000 -1.000000
outer loop
vertex 0.003034 0.006846 0.000000
vertex 0.003108 0.006875 0.000000
vertex 0.003208 0.006911 0.000000
endloop
endfacet
facet normal 0.000000 0.000000 -1.000000
outer loop
vertex 0.001176 0.005496 0.000000
vertex 0.002992 0.006824 0.000000
vertex 0.003034 0.006846 0.000000
endloop
endfacet
facet normal 0.000000 0.000000 -1.000000
outer loop
vertex 0.000381 0.003865 0.000000
vertex 0.000689 0.004542 0.000000
vertex 0.001176 0.005496 0.000000
endloop
endfacet
facet normal 0.000000 0.000000 -1.000000
outer loop
vertex 0.000043 0.002902 0.000000
vertex 0.000242 0.003523 0.000000
vertex 0.000381 0.003865 0.000000
endloop
endfacet
facet normal 0.000000 0.000000 -1.000000
outer loop
vertex 0.000014 0.002466 0.000000
vertex 0.000002 0.002654 0.000000
vertex 0.000043 0.002902 0.000000
endloop
endfacet
facet normal 0.000000 0.000000 -1.000000
outer loop
vertex 0.000165 0.002132 0.000000
vertex 0.000073 0.002305 0.000000
vertex 0.000014 0.002466 0.000000
endloop
endfacet
facet normal 0.000000 0.000000 -1.000000
outer loop
vertex 0.000930 0.001205 0.000000
vertex 0.000285 0.001950 0.000000
vertex 0.000165 0.002132 0.000000
endloop
endfacet
facet normal 0.000000 0.000000 -1.000000
outer loop
vertex 0.001278 0.000876 0.000000
vertex 0.001106 0.001034 0.000000
vertex 0.000930 0.001205 0.000000
endloop
endfacet
facet normal 0.000000 0.000000 -1.000000
outer loop
vertex 0.001587 0.000618 0.000000
vertex 0.001440 0.000736 0.000000
vertex 0.001278 0.000876 0.000000
endloop
endfacet
facet normal 0.000000 0.000000 -1.000000
outer loop
vertex 0.001986 0.000367 0.000000
vertex 0.001839 0.000445 0.000000
vertex 0.001587 0.000618 0.000000
endloop
endfacet
facet normal 0.000000 0.000000 -1.000000
outer loop
vertex 0.002725 0.000105 0.000000
vertex 0.002331 0.000223 0.000000
vertex 0.001986 0.000367 0.000000
endloop
endfacet
facet normal 0.000000 0.000000 -1.000000
outer loop
vertex 0.003567 0.000000 0.000000
vertex 0.003144 0.000027 0.000000
vertex 0.002725 0.000105 0.000000
endloop
endfacet
facet normal 0.000000 0.000000 -1.000000
outer loop
vertex 0.007268 0.000877 0.000000
vertex 0.003772 0.000011 0.000000
vertex 0.003567 0.000000 0.000000
endloop
endfacet
facet normal 0.000000 0.000000 -1.000000
outer loop
vertex 0.003208 0.006911 0.000000
vertex 0.010715 0.005042 0.000000
vertex 0.007268 0.000877 0.000000
endloop
endfacet
facet normal 0.000000 0.000000 -1.000000
outer loop
vertex 0.001176 0.005496 0.000000
vertex 0.003034 0.006846 0.000000
vertex 0.003208 0.006911 0.000000
endloop
endfacet
facet normal 0.000000 0.000000 -1.000000
outer loop
vertex 0.000043 0.002902 0.000000
vertex 0.000381 0.003865 0.000000
vertex 0.001176 0.005496 0.000000
endloop
endfacet
facet normal 0.000000 0.000000 -1.000000
outer loop
vertex 0.000165 0.002132 0.000000
vertex 0.000014 0.002466 0.000000
vertex 0.000043 0.002902 0.000000
endloop
endfacet
facet normal 0.000000 0.000000 -1.000000
outer loop
vertex 0.001278 0.000876 0.000000
vertex 0.000930 0.001205 0.000000
vertex 0.000165 0.002132 0.000000
endloop
endfacet
facet normal 0.000000 0.000000 -1.000000
outer loop
vertex 0.001986 0.000367 0.000000
vertex 0.001587 0.000618 0.000000
vertex 0.001278 0.000876 0.000000
endloop
endfacet
facet normal 0.000000 0.000000 -1.000000
outer loop
vertex 0.003567 0.000000 0.000000
vertex 0.002725 0.000105 0.000000
vertex 0.001986 0.000367 0.000000
endloop
endfacet
facet normal 0.000000 0.000000 -1.000000
outer loop
vertex 0.003208 0.006911 0.000000
vertex 0.007268 0.000877 0.000000
vertex 0.003567 0.000000 0.000000
endloop
endfacet
facet normal 0.000000 0.000000 -1.000000
outer loop
vertex 0.000043 0.002902 0.000000
vertex 0.001176 0.005496 0.000000
vertex 0.003208 0.006911 0.000000
endloop
endfacet
facet normal 0.000000 0.000000 -1.000000
outer loop
vertex 0.001278 0.000876 0.000000
vertex 0.000165 0.002132 0.000000
vertex 0.000043 0.002902 0.000000
endloop
endfacet
facet normal 0.000000 0.000000 -1.000000
outer loop
vertex 0.003567 0.000000 0.000000
vertex 0.001986 0.000367 0.000000
vertex 0.001278 0.000876 0.000000
endloop
endfacet
facet normal 0.000000 0.000000 -1.000000
outer loop
vertex 0.000043 0.002902 0.000000
vertex 0.003208 0.006911 0.000000
vertex 0.003567 0.000000 0.000000
endloop
endfacet
facet normal 0.000000 0.000000 -1.000000
outer loop
vertex 0.003567 0.000000 0.000000
vertex 0.001278 0.000876 0.000000
vertex 0.000043 0.002902 0.000000
endloop
endfacet
facet normal 0.000000 0.000000 -1.000000
outer loop
vertex 0.003877 0.007137 0.000000
vertex 0.003742 0.007091 0.000000
vertex 0.003328 0.006952 0.000000
endloop
endfacet
facet normal 0.000000 0.000000 -1.000000
outer loop
vertex 0.004001 0.007181 0.000000
vertex 0.003877 0.007137 0.000000
vertex 0.003328 0.006952 0.000000
endloop
endfacet
facet normal 0.000000 0.000000 -1.000000
outer loop
vertex 0.004189 0.007256 0.000000
vertex 0.004108 0.007221 0.000000
vertex 0.004001 0.007181 0.000000
endloop
endfacet
facet normal -0.390272 0.920700 0.000000
outer loop
vertex 0.004108 0.007221 0.150000
vertex 0.004189 0.007256 0.150000
vertex 0.004189 0.007256 0.000000
endloop
endfacet
facet normal -0.353569 0.935409 0.000023
outer loop
vertex 0.004001 0.007181 0.150000
vertex 0.004108 0.007221 0.150000
vertex 0.004189 0.007256 0.000000
endloop
endfacet
facet normal 0.000000 0.000000 -1.000000
outer loop
vertex 0.004189 0.007256 0.000000
vertex 0.004001 0.007181 0.000000
vertex 0.003328 0.006952 0.000000
endloop
endfacet
facet normal 0.000000 0.000000 -1.000000
outer loop
vertex 0.004189 0.007256 0.000000
vertex 0.003328 0.006952 0.000000
vertex 0.003208 0.006911 0.000000
endloop
endfacet
facet normal -0.334317 0.942461 0.000051
outer loop
vertex 0.003877 0.007137 0.150000
vertex 0.004001 0.007181 0.150000
vertex 0.004189 0.007256 0.000000
endloop
endfacet
facet normal -0.323555 0.946209 0.000076
outer loop
vertex 0.003742 0.007091 0.150000
vertex 0.003877 0.007137 0.150000
vertex 0.004189 0.007256 0.000000
endloop
endfacet
facet normal -0.331570 0.943430 0.000049
outer loop
vertex 0.003742 0.007091 0.150000
vertex 0.004189 0.007256 0.000000
vertex 0.003208 0.006911 0.000000
endloop
endfacet
facet normal -0.317437 0.948279 -0.000007
outer loop
vertex 0.003328 0.006952 0.150000
vertex 0.003742 0.007091 0.150000
vertex 0.003208 0.006911 0.000000
endloop
endfacet
facet normal -0.370274 0.928923 0.000000
outer loop
vertex 0.003108 0.006875 0.000000
vertex 0.003034 0.006846 0.000000
vertex 0.003034 0.006846 0.150000
endloop
endfacet
facet normal -0.339238 0.940701 0.000013
outer loop
vertex 0.003328 0.006952 0.150000
vertex 0.003208 0.006911 0.000000
vertex 0.003108 0.006875 0.000000
endloop
endfacet
facet normal -0.324893 0.945751 -0.000011
outer loop
vertex 0.003208 0.006911 0.150000
vertex 0.003328 0.006952 0.150000
vertex 0.003108 0.006875 0.000000
endloop
endfacet
facet normal -0.370274 0.928923 0.000000
outer loop
vertex 0.003108 0.006875 0.000000
vertex 0.003034 0.006846 0.150000
vertex 0.003108 0.006875 0.150000
endloop
endfacet
facet normal -0.339239 0.940700 0.000000
outer loop
vertex 0.003108 0.006875 0.000000
vertex 0.003108 0.006875 0.150000
vertex 0.003208 0.006911 0.150000
endloop
endfacet
facet normal -0.572914 0.819615 0.000000
outer loop
vertex 0.004375 0.007378 0.000000
vertex 0.004241 0.007284 0.000000
vertex 0.004241 0.007284 0.150000
endloop
endfacet
facet normal -0.572916 0.819614 0.000000
outer loop
vertex 0.004375 0.007378 0.000000
vertex 0.004241 0.007284 0.150000
vertex 0.004375 0.007378 0.150000
endloop
endfacet
facet normal -0.523678 0.851916 0.000000
outer loop
vertex 0.004626 0.007538 0.150000
vertex 0.004626 0.007538 0.000000
vertex 0.004493 0.007457 0.000000
endloop
endfacet
facet normal -0.554409 0.832244 0.000000
outer loop
vertex 0.004493 0.007457 0.000000
vertex 0.004375 0.007378 0.000000
vertex 0.004375 0.007378 0.150000
endloop
endfacet
facet normal -0.523678 0.851916 0.000000
outer loop
vertex 0.004493 0.007457 0.150000
vertex 0.004626 0.007538 0.150000
vertex 0.004493 0.007457 0.000000
endloop
endfacet
facet normal -0.554414 0.832241 0.000000
outer loop
vertex 0.004375 0.007378 0.150000
vertex 0.004493 0.007457 0.150000
vertex 0.004493 0.007457 0.000000
endloop
endfacet
facet normal 0.788011 0.615661 0.000000
outer loop
vertex 0.010336 0.005576 0.000000
vertex 0.010242 0.005697 0.000000
vertex 0.010242 0.005697 0.150000
endloop
endfacet
facet normal 0.788021 0.615649 0.000000
outer loop
vertex 0.010336 0.005576 0.000000
vertex 0.010242 0.005697 0.150000
vertex 0.010336 0.005576 0.150000
endloop
endfacet
facet normal 0.803858 0.594821 0.000000
outer loop
vertex 0.010449 0.005424 0.000000
vertex 0.010336 0.005576 0.000000
vertex 0.010336 0.005576 0.150000
endloop
endfacet
facet normal 0.803858 0.594821 0.000000
outer loop
vertex 0.010449 0.005424 0.000000
vertex 0.010336 0.005576 0.150000
vertex 0.010449 0.005424 0.150000
endloop
endfacet
facet normal 0.815487 0.578776 0.000000
outer loop
vertex 0.010576 0.005245 0.000000
vertex 0.010449 0.005424 0.000000
vertex 0.010449 0.005424 0.150000
endloop
endfacet
facet normal 0.815490 0.578771 0.000000
outer loop
vertex 0.010576 0.005245 0.000000
vertex 0.010449 0.005424 0.150000
vertex 0.010576 0.005245 0.150000
endloop
endfacet
facet normal 0.838632 0.544698 0.000000
outer loop
vertex 0.011016 0.004579 0.150000
vertex 0.011016 0.004579 0.000000
vertex 0.010715 0.005042 0.000000
endloop
endfacet
facet normal 0.825224 0.564805 0.000000
outer loop
vertex 0.010715 0.005042 0.000000
vertex 0.010576 0.005245 0.000000
vertex 0.010576 0.005245 0.150000
endloop
endfacet
facet normal 0.838632 0.544698 0.000000
outer loop
vertex 0.010715 0.005042 0.150000
vertex 0.011016 0.004579 0.150000
vertex 0.010715 0.005042 0.000000
endloop
endfacet
facet normal 0.825221 0.564810 0.000000
outer loop
vertex 0.010715 0.005042 0.000000
vertex 0.010576 0.005245 0.150000
vertex 0.010715 0.005042 0.150000
endloop
endfacet
facet normal 0.936524 0.350603 0.000000
outer loop
vertex 0.011961 0.002761 0.150000
vertex 0.011961 0.002761 0.000000
vertex 0.011870 0.003004 0.000000
endloop
endfacet
facet normal 0.936524 0.350603 0.000000
outer loop
vertex 0.011961 0.002761 0.150000
vertex 0.011870 0.003004 0.000000
vertex 0.011870 0.003004 0.150000
endloop
endfacet
facet normal 0.482746 0.875761 0.000000
outer loop
vertex 0.010100 0.005817 0.150000
vertex 0.010100 0.005817 0.000000
vertex 0.009532 0.006130 0.000000
endloop
endfacet
facet normal 0.482745 0.875761 0.000000
outer loop
vertex 0.010100 0.005817 0.150000
vertex 0.009532 0.006130 0.000000
vertex 0.009532 0.006130 0.150000
endloop
endfacet
facet normal -0.952112 0.305749 0.000000
outer loop
vertex 0.000242 0.003523 0.150000
vertex 0.000242 0.003523 0.000000
vertex 0.000043 0.002902 0.000000
endloop
endfacet
facet normal -0.952112 0.305749 0.000000
outer loop
vertex 0.000242 0.003523 0.150000
vertex 0.000043 0.002902 0.000000
vertex 0.000043 0.002902 0.150000
endloop
endfacet
facet normal 0.000539 -1.000000 0.000000
outer loop
vertex 0.010776 0.000820 0.000000
vertex 0.010935 0.000821 0.000000
vertex 0.010935 0.000821 0.150000
endloop
endfacet
facet normal 0.000539 -1.000000 0.000000
outer loop
vertex 0.010776 0.000820 0.000000
vertex 0.010935 0.000821 0.150000
vertex 0.010776 0.000820 0.150000
endloop
endfacet
facet normal -0.048807 -0.998808 0.000000
outer loop
vertex 0.010605 0.000829 0.000000
vertex 0.010776 0.000820 0.000000
vertex 0.010776 0.000820 0.150000
endloop
endfacet
facet normal -0.048807 -0.998808 0.000000
outer loop
vertex 0.010605 0.000829 0.000000
vertex 0.010776 0.000820 0.150000
vertex 0.010605 0.000829 0.150000
endloop
endfacet
facet normal -0.081314 -0.996689 0.000000
outer loop
vertex 0.009465 0.000922 0.000000
vertex 0.010605 0.000829 0.000000
vertex 0.010605 0.000829 0.150000
endloop
endfacet
facet normal -0.081314 -0.996689 0.000000
outer loop
vertex 0.009465 0.000922 0.000000
vertex 0.010605 0.000829 0.150000
vertex 0.009465 0.000922 0.150000
endloop
endfacet
facet normal -0.039200 -0.999231 0.000000
outer loop
vertex 0.009141 0.000934 0.000000
vertex 0.009465 0.000922 0.000000
vertex 0.009465 0.000922 0.150000
endloop
endfacet
facet normal -0.039201 -0.999231 0.000000
outer loop
vertex 0.009141 0.000934 0.000000
vertex 0.009465 0.000922 0.150000
vertex 0.009141 0.000934 0.150000
endloop
endfacet
facet normal 0.060322 -0.998179 0.000000
outer loop
vertex 0.007557 0.000918 0.150000
vertex 0.007557 0.000918 0.000000
vertex 0.007800 0.000932 0.000000
endloop
endfacet
facet normal 0.001560 -0.999999 0.000000
outer loop
vertex 0.007800 0.000932 0.000000
vertex 0.009141 0.000934 0.000000
vertex 0.009141 0.000934 0.150000
endloop
endfacet
facet normal 0.060322 -0.998179 0.000000
outer loop
vertex 0.007800 0.000932 0.150000
vertex 0.007557 0.000918 0.150000
vertex 0.007800 0.000932 0.000000
endloop
endfacet
facet normal 0.001560 -0.999999 0.000000
outer loop
vertex 0.009141 0.000934 0.150000
vertex 0.007800 0.000932 0.150000
vertex 0.007800 0.000932 0.000000
endloop
endfacet
facet normal 0.970558 0.240869 0.000000
outer loop
vertex 0.012015 0.002542 0.150000
vertex 0.012015 0.002542 0.000000
vertex 0.011961 0.002761 0.000000
endloop
endfacet
facet normal 0.970559 0.240863 0.000000
outer loop
vertex 0.012015 0.002542 0.150000
vertex 0.011961 0.002761 0.000000
vertex 0.011961 0.002761 0.150000
endloop
endfacet
facet normal -0.184031 -0.982920 0.000000
outer loop
vertex 0.002725 0.000105 0.000000
vertex 0.003144 0.000027 0.000000
vertex 0.003144 0.000027 0.150000
endloop
endfacet
facet normal -0.184031 -0.982920 0.000000
outer loop
vertex 0.002725 0.000105 0.000000
vertex 0.003144 0.000027 0.150000
vertex 0.002725 0.000105 0.150000
endloop
endfacet
facet normal -0.475883 0.879509 0.000000
outer loop
vertex 0.004241 0.007284 0.150000
vertex 0.004241 0.007284 0.000000
vertex 0.004189 0.007256 0.000000
endloop
endfacet
facet normal -0.475878 0.879512 0.000000
outer loop
vertex 0.004241 0.007284 0.150000
vertex 0.004189 0.007256 0.000000
vertex 0.004189 0.007256 0.150000
endloop
endfacet
facet normal -0.565995 -0.824408 0.000000
outer loop
vertex 0.001839 0.000445 0.000000
vertex 0.001839 0.000445 0.150000
vertex 0.001587 0.000618 0.150000
endloop
endfacet
facet normal -0.565995 -0.824409 0.000000
outer loop
vertex 0.001839 0.000445 0.000000
vertex 0.001587 0.000618 0.150000
vertex 0.001587 0.000618 0.000000
endloop
endfacet
facet normal 0.000000 0.000000 1.000000
outer loop
vertex 0.001176 0.005496 0.000000
vertex 0.000689 0.004542 0.000000
vertex 0.000381 0.003865 0.000000
endloop
endfacet
facet normal -0.926608 0.376029 0.000000
outer loop
vertex 0.000381 0.003865 0.000000
vertex 0.000242 0.003523 0.000000
vertex 0.000242 0.003523 0.150000
endloop
endfacet
facet normal -0.926608 0.376029 0.000000
outer loop
vertex 0.000381 0.003865 0.000000
vertex 0.000242 0.003523 0.150000
vertex 0.000381 0.003865 0.150000
endloop
endfacet
facet normal -0.898848 0.438260 0.000000
outer loop
vertex 0.001176 0.005496 0.150000
vertex 0.001176 0.005496 0.000000
vertex 0.000381 0.003865 0.000000
endloop
endfacet
facet normal -0.910134 0.414314 0.000000
outer loop
vertex 0.000381 0.003865 0.000000
vertex 0.000381 0.003865 0.150000
vertex 0.000689 0.004542 0.150000
endloop
endfacet
facet normal -0.890651 0.454687 -0.000222
outer loop
vertex 0.000381 0.003865 0.000000
vertex 0.000689 0.004542 0.150000
vertex 0.001176 0.005496 0.150000
endloop
endfacet
facet normal 0.993649 0.112523 0.000000
outer loop
vertex 0.012038 0.002345 0.150000
vertex 0.012038 0.002345 0.000000
vertex 0.012015 0.002542 0.000000
endloop
endfacet
facet normal 0.993649 0.112523 0.000000
outer loop
vertex 0.012038 0.002345 0.150000
vertex 0.012015 0.002542 0.000000
vertex 0.012015 0.002542 0.150000
endloop
endfacet
facet normal 0.050679 -0.998715 0.000000
outer loop
vertex 0.003567 0.000000 0.150000
vertex 0.003567 0.000000 0.000000
vertex 0.003772 0.000011 0.000000
endloop
endfacet
facet normal 0.050679 -0.998715 0.000000
outer loop
vertex 0.003567 0.000000 0.150000
vertex 0.003772 0.000011 0.000000
vertex 0.003772 0.000011 0.150000
endloop
endfacet
facet normal 0.104991 0.994473 0.000000
outer loop
vertex 0.005159 0.007720 0.000000
vertex 0.005159 0.007720 0.150000
vertex 0.005534 0.007681 0.150000
endloop
endfacet
facet normal 0.104991 0.994473 0.000000
outer loop
vertex 0.005159 0.007720 0.000000
vertex 0.005534 0.007681 0.150000
vertex 0.005534 0.007681 0.000000
endloop
endfacet
facet normal 0.227368 0.973809 0.000000
outer loop
vertex 0.006071 0.007556 0.000000
vertex 0.005534 0.007681 0.000000
vertex 0.005534 0.007681 0.150000
endloop
endfacet
facet normal 0.227368 0.973809 0.000000
outer loop
vertex 0.006071 0.007556 0.000000
vertex 0.005534 0.007681 0.150000
vertex 0.006071 0.007556 0.150000
endloop
endfacet
facet normal 0.380890 0.924621 0.000000
outer loop
vertex 0.009532 0.006130 0.150000
vertex 0.009532 0.006130 0.000000
vertex 0.006071 0.007556 0.000000
endloop
endfacet
facet normal 0.380890 0.924621 0.000000
outer loop
vertex 0.009532 0.006130 0.150000
vertex 0.006071 0.007556 0.000000
vertex 0.006071 0.007556 0.150000
endloop
endfacet
facet normal 0.508441 -0.861097 0.000000
outer loop
vertex 0.011329 0.000896 0.150000
vertex 0.011329 0.000896 0.000000
vertex 0.011428 0.000954 0.000000
endloop
endfacet
facet normal 0.508441 -0.861097 0.000000
outer loop
vertex 0.011329 0.000896 0.150000
vertex 0.011428 0.000954 0.000000
vertex 0.011428 0.000954 0.150000
endloop
endfacet
facet normal 0.702728 -0.711458 0.000000
outer loop
vertex 0.011428 0.000954 0.150000
vertex 0.011428 0.000954 0.000000
vertex 0.011508 0.001033 0.000000
endloop
endfacet
facet normal 0.702728 -0.711458 0.000000
outer loop
vertex 0.011428 0.000954 0.150000
vertex 0.011508 0.001033 0.000000
vertex 0.011508 0.001033 0.150000
endloop
endfacet
facet normal -0.938049 -0.346503 0.000000
outer loop
vertex 0.000014 0.002466 0.150000
vertex 0.000014 0.002466 0.000000
vertex 0.000073 0.002305 0.000000
endloop
endfacet
facet normal -0.938049 -0.346503 0.000000
outer loop
vertex 0.000014 0.002466 0.150000
vertex 0.000073 0.002305 0.000000
vertex 0.000073 0.002305 0.150000
endloop
endfacet
facet normal 0.142292 -0.989825 0.000000
outer loop
vertex 0.003772 0.000011 0.150000
vertex 0.003772 0.000011 0.000000
vertex 0.003968 0.000039 0.000000
endloop
endfacet
facet normal 0.142293 -0.989825 0.000000
outer loop
vertex 0.003772 0.000011 0.150000
vertex 0.003968 0.000039 0.000000
vertex 0.003968 0.000039 0.150000
endloop
endfacet
facet normal 0.985634 -0.168897 0.000000
outer loop
vertex 0.012005 0.002005 0.150000
vertex 0.012005 0.002005 0.000000
vertex 0.012033 0.002167 0.000000
endloop
endfacet
facet normal 0.985634 -0.168897 0.000000
outer loop
vertex 0.012005 0.002005 0.150000
vertex 0.012033 0.002167 0.000000
vertex 0.012033 0.002167 0.150000
endloop
endfacet
facet normal -0.998078 -0.061965 0.000000
outer loop
vertex 0.000002 0.002654 0.150000
vertex 0.000002 0.002654 0.000000
vertex 0.000014 0.002466 0.000000
endloop
endfacet
facet normal -0.998078 -0.061965 0.000000
outer loop
vertex 0.000002 0.002654 0.150000
vertex 0.000014 0.002466 0.000000
vertex 0.000014 0.002466 0.150000
endloop
endfacet
facet normal -0.883300 -0.468807 0.000000
outer loop
vertex 0.000073 0.002305 0.150000
vertex 0.000073 0.002305 0.000000
vertex 0.000165 0.002132 0.000000
endloop
endfacet
facet normal -0.883300 -0.468807 0.000000
outer loop
vertex 0.000073 0.002305 0.150000
vertex 0.000165 0.002132 0.000000
vertex 0.000165 0.002132 0.150000
endloop
endfacet
facet normal -0.456527 0.889709 0.000000
outer loop
vertex 0.003034 0.006846 0.150000
vertex 0.003034 0.006846 0.000000
vertex 0.002992 0.006824 0.000000
endloop
endfacet
facet normal -0.456531 0.889708 0.000000
outer loop
vertex 0.003034 0.006846 0.150000
vertex 0.002992 0.006824 0.000000
vertex 0.002992 0.006824 0.150000
endloop
endfacet
facet normal 0.246112 -0.969241 0.000000
outer loop
vertex 0.003968 0.000039 0.000000
vertex 0.007268 0.000877 0.000000
vertex 0.007268 0.000877 0.150000
endloop
endfacet
facet normal 0.246112 -0.969241 0.000000
outer loop
vertex 0.003968 0.000039 0.000000
vertex 0.007268 0.000877 0.150000
vertex 0.003968 0.000039 0.150000
endloop
endfacet
facet normal 0.881114 -0.472904 0.000000
outer loop
vertex 0.011833 0.001597 0.000000
vertex 0.011900 0.001723 0.000000
vertex 0.011900 0.001723 0.150000
endloop
endfacet
facet normal 0.881105 -0.472921 0.000000
outer loop
vertex 0.011833 0.001597 0.000000
vertex 0.011900 0.001723 0.150000
vertex 0.011833 0.001597 0.150000
endloop
endfacet
facet normal 0.857086 -0.515174 0.000000
outer loop
vertex 0.011761 0.001477 0.000000
vertex 0.011833 0.001597 0.000000
vertex 0.011833 0.001597 0.150000
endloop
endfacet
facet normal 0.857076 -0.515190 0.000000
outer loop
vertex 0.011761 0.001477 0.000000
vertex 0.011833 0.001597 0.150000
vertex 0.011761 0.001477 0.150000
endloop
endfacet
facet normal 0.850575 -0.525854 0.000000
outer loop
vertex 0.011690 0.001362 0.000000
vertex 0.011761 0.001477 0.000000
vertex 0.011761 0.001477 0.150000
endloop
endfacet
facet normal 0.850580 -0.525846 0.000000
outer loop
vertex 0.011690 0.001362 0.000000
vertex 0.011761 0.001477 0.150000
vertex 0.011690 0.001362 0.150000
endloop
endfacet
facet normal 0.864460 -0.502701 0.000000
outer loop
vertex 0.011624 0.001249 0.000000
vertex 0.011690 0.001362 0.000000
vertex 0.011690 0.001362 0.150000
endloop
endfacet
facet normal 0.864450 -0.502719 0.000000
outer loop
vertex 0.011624 0.001249 0.000000
vertex 0.011690 0.001362 0.150000
vertex 0.011624 0.001249 0.150000
endloop
endfacet
facet normal 0.863211 -0.504843 0.000000
outer loop
vertex 0.011508 0.001033 0.150000
vertex 0.011508 0.001033 0.000000
vertex 0.011568 0.001136 0.000000
endloop
endfacet
facet normal 0.897729 -0.440547 0.000000
outer loop
vertex 0.011568 0.001136 0.000000
vertex 0.011624 0.001249 0.000000
vertex 0.011624 0.001249 0.150000
endloop
endfacet
facet normal 0.863222 -0.504824 0.000000
outer loop
vertex 0.011568 0.001136 0.150000
vertex 0.011508 0.001033 0.150000
vertex 0.011568 0.001136 0.000000
endloop
endfacet
facet normal 0.897725 -0.440557 0.000000
outer loop
vertex 0.011624 0.001249 0.150000
vertex 0.011568 0.001136 0.150000
vertex 0.011568 0.001136 0.000000
endloop
endfacet
facet normal 0.181135 -0.983458 0.000000
outer loop
vertex 0.011081 0.000831 0.150000
vertex 0.011081 0.000831 0.000000
vertex 0.011213 0.000856 0.000000
endloop
endfacet
facet normal 0.181131 -0.983459 0.000000
outer loop
vertex 0.011081 0.000831 0.150000
vertex 0.011213 0.000856 0.000000
vertex 0.011213 0.000856 0.150000
endloop
endfacet
facet normal 0.326389 -0.945236 0.000000
outer loop
vertex 0.011213 0.000856 0.150000
vertex 0.011213 0.000856 0.000000
vertex 0.011329 0.000896 0.000000
endloop
endfacet
facet normal 0.326389 -0.945236 0.000000
outer loop
vertex 0.011213 0.000856 0.150000
vertex 0.011329 0.000896 0.000000
vertex 0.011329 0.000896 0.150000
endloop
endfacet
facet normal -0.062447 -0.998048 0.000000
outer loop
vertex 0.003144 0.000027 0.000000
vertex 0.003567 0.000000 0.000000
vertex 0.003567 0.000000 0.150000
endloop
endfacet
facet normal -0.062447 -0.998048 0.000000
outer loop
vertex 0.003144 0.000027 0.000000
vertex 0.003567 0.000000 0.150000
vertex 0.003144 0.000027 0.150000
endloop
endfacet
facet normal 0.644464 0.764635 0.000000
outer loop
vertex 0.010242 0.005697 0.150000
vertex 0.010242 0.005697 0.000000
vertex 0.010100 0.005817 0.000000
endloop
endfacet
facet normal 0.644459 0.764638 0.000000
outer loop
vertex 0.010242 0.005697 0.150000
vertex 0.010100 0.005817 0.000000
vertex 0.010100 0.005817 0.150000
endloop
endfacet
facet normal -0.628420 -0.777875 0.000000
outer loop
vertex 0.001440 0.000736 0.000000
vertex 0.001587 0.000618 0.000000
vertex 0.001587 0.000618 0.150000
endloop
endfacet
facet normal -0.628419 -0.777875 0.000000
outer loop
vertex 0.001440 0.000736 0.000000
vertex 0.001587 0.000618 0.150000
vertex 0.001440 0.000736 0.150000
endloop
endfacet
facet normal -0.653457 -0.756964 0.000000
outer loop
vertex 0.001278 0.000876 0.000000
vertex 0.001440 0.000736 0.000000
vertex 0.001440 0.000736 0.150000
endloop
endfacet
facet normal -0.653458 -0.756963 0.000000
outer loop
vertex 0.001278 0.000876 0.000000
vertex 0.001440 0.000736 0.150000
vertex 0.001278 0.000876 0.150000
endloop
endfacet
facet normal -0.695903 -0.718136 0.000000
outer loop
vertex 0.000930 0.001205 0.150000
vertex 0.000930 0.001205 0.000000
vertex 0.001106 0.001034 0.000000
endloop
endfacet
facet normal -0.675147 -0.737684 0.000000
outer loop
vertex 0.001106 0.001034 0.000000
vertex 0.001278 0.000876 0.000000
vertex 0.001278 0.000876 0.150000
endloop
endfacet
facet normal -0.695902 -0.718136 0.000000
outer loop
vertex 0.001106 0.001034 0.150000
vertex 0.000930 0.001205 0.150000
vertex 0.001106 0.001034 0.000000
endloop
endfacet
facet normal -0.675147 -0.737683 0.000000
outer loop
vertex 0.001278 0.000876 0.150000
vertex 0.001106 0.001034 0.150000
vertex 0.001106 0.001034 0.000000
endloop
endfacet
facet normal -0.041083 0.999156 0.000000
outer loop
vertex 0.005159 0.007720 0.150000
vertex 0.005159 0.007720 0.000000
vertex 0.005060 0.007716 0.000000
endloop
endfacet
facet normal -0.041083 0.999156 0.000000
outer loop
vertex 0.005159 0.007720 0.150000
vertex 0.005060 0.007716 0.000000
vertex 0.005060 0.007716 0.150000
endloop
endfacet
facet normal -0.286490 -0.958083 0.000000
outer loop
vertex 0.002331 0.000223 0.150000
vertex 0.002331 0.000223 0.000000
vertex 0.002725 0.000105 0.000000
endloop
endfacet
facet normal -0.286491 -0.958083 0.000000
outer loop
vertex 0.002331 0.000223 0.150000
vertex 0.002725 0.000105 0.000000
vertex 0.002725 0.000105 0.150000
endloop
endfacet
facet normal -0.322969 0.946409 0.000000
outer loop
vertex 0.004980 0.007702 0.150000
vertex 0.004980 0.007702 0.000000
vertex 0.004910 0.007678 0.000000
endloop
endfacet
facet normal -0.322973 0.946408 0.000000
outer loop
vertex 0.004980 0.007702 0.150000
vertex 0.004910 0.007678 0.000000
vertex 0.004910 0.007678 0.150000
endloop
endfacet
facet normal -0.755954 -0.654625 0.000000
outer loop
vertex 0.000285 0.001950 0.150000
vertex 0.000285 0.001950 0.000000
vertex 0.000930 0.001205 0.000000
endloop
endfacet
facet normal -0.755953 -0.654625 0.000000
outer loop
vertex 0.000285 0.001950 0.150000
vertex 0.000930 0.001205 0.000000
vertex 0.000930 0.001205 0.150000
endloop
endfacet
facet normal -0.836737 -0.547606 0.000000
outer loop
vertex 0.000165 0.002132 0.150000
vertex 0.000165 0.002132 0.000000
vertex 0.000285 0.001950 0.000000
endloop
endfacet
facet normal -0.836737 -0.547606 0.000000
outer loop
vertex 0.000165 0.002132 0.150000
vertex 0.000285 0.001950 0.000000
vertex 0.000285 0.001950 0.150000
endloop
endfacet
facet normal 0.916736 -0.399494 0.000000
outer loop
vertex 0.011900 0.001723 0.150000
vertex 0.011900 0.001723 0.000000
vertex 0.011959 0.001858 0.000000
endloop
endfacet
facet normal 0.916739 -0.399486 0.000000
outer loop
vertex 0.011900 0.001723 0.150000
vertex 0.011959 0.001858 0.000000
vertex 0.011959 0.001858 0.150000
endloop
endfacet
facet normal 0.999608 -0.028015 0.000000
outer loop
vertex 0.012033 0.002167 0.150000
vertex 0.012033 0.002167 0.000000
vertex 0.012038 0.002345 0.000000
endloop
endfacet
facet normal 0.999608 -0.028006 0.000000
outer loop
vertex 0.012033 0.002167 0.150000
vertex 0.012038 0.002345 0.000000
vertex 0.012038 0.002345 0.150000
endloop
endfacet
facet normal -0.183393 0.983040 0.000000
outer loop
vertex 0.005060 0.007716 0.150000
vertex 0.005060 0.007716 0.000000
vertex 0.004980 0.007702 0.000000
endloop
endfacet
facet normal -0.183393 0.983040 0.000000
outer loop
vertex 0.005060 0.007716 0.150000
vertex 0.004980 0.007702 0.000000
vertex 0.004980 0.007702 0.150000
endloop
endfacet
endsolid Exported from Blender-3.6.8
