solid Exported from Blender-3.6.8
facet normal -0.863580 -0.504211 0.000000
outer loop
vertex 0.003086 0.003906 0.000000
vertex 0.003148 0.003800 0.000000
vertex 0.003148 0.003800 0.150000
endloop
endfacet
facet normal -0.863579 -0.504213 0.000000
outer loop
vertex 0.003086 0.003906 0.000000
vertex 0.003148 0.003800 0.150000
vertex 0.003086 0.003906 0.150000
endloop
endfacet
facet normal 0.000000 0.000000 -1.000000
outer loop
vertex 0.002924 0.004226 0.000000
vertex 0.002975 0.004129 0.000000
vertex 0.003028 0.004020 0.000000
endloop
endfacet
facet normal -0.891121 -0.453765 0.000000
outer loop
vertex 0.003028 0.004020 0.000000
vertex 0.003086 0.003906 0.000000
vertex 0.003086 0.003906 0.150000
endloop
endfacet
facet normal -0.891121 -0.453765 0.000000
outer loop
vertex 0.003028 0.004020 0.000000
vertex 0.003086 0.003906 0.150000
vertex 0.003028 0.004020 0.150000
endloop
endfacet
facet normal 0.000000 0.000000 -1.000000
outer loop
vertex 0.002876 0.004312 0.000000
vertex 0.002924 0.004226 0.000000
vertex 0.003028 0.004020 0.000000
endloop
endfacet
facet normal 0.000000 0.000000 -1.000000
outer loop
vertex 0.002779 0.004461 0.000000
vertex 0.002827 0.004390 0.000000
vertex 0.002876 0.004312 0.000000
endloop
endfacet
facet normal -0.831180 -0.556003 0.000000
outer loop
vertex 0.002827 0.004390 0.150000
vertex 0.002779 0.004461 0.150000
vertex 0.002779 0.004461 0.000000
endloop
endfacet
facet normal -0.851152 -0.524918 0.000021
outer loop
vertex 0.002876 0.004312 0.150000
vertex 0.002827 0.004390 0.150000
vertex 0.002779 0.004461 0.000000
endloop
endfacet
facet normal 0.000000 0.000000 -1.000000
outer loop
vertex 0.002779 0.004461 0.000000
vertex 0.002876 0.004312 0.000000
vertex 0.003028 0.004020 0.000000
endloop
endfacet
facet normal -0.899165 -0.437609 0.000000
outer loop
vertex 0.003028 0.004020 0.000000
vertex 0.003028 0.004020 0.150000
vertex 0.002975 0.004129 0.150000
endloop
endfacet
facet normal -0.869719 -0.493547 0.000064
outer loop
vertex 0.002924 0.004226 0.150000
vertex 0.002876 0.004312 0.150000
vertex 0.002779 0.004461 0.000000
endloop
endfacet
facet normal -0.885837 -0.463997 0.000024
outer loop
vertex 0.003028 0.004020 0.000000
vertex 0.002975 0.004129 0.150000
vertex 0.002924 0.004226 0.150000
endloop
endfacet
facet normal -0.871346 -0.490669 0.000071
outer loop
vertex 0.003028 0.004020 0.000000
vertex 0.002924 0.004226 0.150000
vertex 0.002779 0.004461 0.000000
endloop
endfacet
facet normal -0.907987 0.418999 0.000000
outer loop
vertex 0.000243 0.007585 0.000000
vertex 0.000206 0.007505 0.000000
vertex 0.000206 0.007505 0.150000
endloop
endfacet
facet normal -0.907987 0.418999 0.000000
outer loop
vertex 0.000243 0.007585 0.000000
vertex 0.000206 0.007505 0.150000
vertex 0.000243 0.007585 0.150000
endloop
endfacet
facet normal -0.890614 0.454760 0.000000
outer loop
vertex 0.000284 0.007665 0.000000
vertex 0.000243 0.007585 0.000000
vertex 0.000243 0.007585 0.150000
endloop
endfacet
facet normal -0.890614 0.454761 0.000000
outer loop
vertex 0.000284 0.007665 0.000000
vertex 0.000243 0.007585 0.150000
vertex 0.000284 0.007665 0.150000
endloop
endfacet
facet normal -0.876697 0.481044 0.000000
outer loop
vertex 0.000328 0.007747 0.000000
vertex 0.000284 0.007665 0.000000
vertex 0.000284 0.007665 0.150000
endloop
endfacet
facet normal -0.876697 0.481044 0.000000
outer loop
vertex 0.000328 0.007747 0.000000
vertex 0.000284 0.007665 0.150000
vertex 0.000328 0.007747 0.150000
endloop
endfacet
facet normal -0.849088 0.528251 0.000000
outer loop
vertex 0.000736 0.008446 0.150000
vertex 0.000736 0.008446 0.000000
vertex 0.000680 0.008355 0.000000
endloop
endfacet
facet normal -0.866100 0.499870 0.000000
outer loop
vertex 0.000680 0.008355 0.000000
vertex 0.000328 0.007747 0.000000
vertex 0.000328 0.007747 0.150000
endloop
endfacet
facet normal -0.849089 0.528251 0.000000
outer loop
vertex 0.000680 0.008355 0.150000
vertex 0.000736 0.008446 0.150000
vertex 0.000680 0.008355 0.000000
endloop
endfacet
facet normal -0.866100 0.499870 0.000000
outer loop
vertex 0.000328 0.007747 0.150000
vertex 0.000680 0.008355 0.150000
vertex 0.000680 0.008355 0.000000
endloop
endfacet
facet normal 0.754012 -0.656860 0.000000
outer loop
vertex 0.009409 0.000578 0.150000
vertex 0.009409 0.000578 0.000000
vertex 0.009469 0.000646 0.000000
endloop
endfacet
facet normal 0.754021 -0.656851 0.000000
outer loop
vertex 0.009409 0.000578 0.150000
vertex 0.009469 0.000646 0.000000
vertex 0.009469 0.000646 0.150000
endloop
endfacet
facet normal 0.000000 0.000000 1.000000
outer loop
vertex 0.003406 0.003453 0.000000
vertex 0.003515 0.003335 0.000000
vertex 0.003591 0.003261 0.000000
endloop
endfacet
facet normal -0.670566 -0.741849 0.000000
outer loop
vertex 0.003591 0.003261 0.000000
vertex 0.003619 0.003235 0.000000
vertex 0.003619 0.003235 0.150000
endloop
endfacet
facet normal -0.670556 -0.741858 0.000000
outer loop
vertex 0.003591 0.003261 0.000000
vertex 0.003619 0.003235 0.150000
vertex 0.003591 0.003261 0.150000
endloop
endfacet
facet normal -0.720667 -0.693281 0.000000
outer loop
vertex 0.003406 0.003453 0.150000
vertex 0.003406 0.003453 0.000000
vertex 0.003591 0.003261 0.000000
endloop
endfacet
facet normal -0.698899 -0.715221 0.000000
outer loop
vertex 0.003591 0.003261 0.000000
vertex 0.003591 0.003261 0.150000
vertex 0.003515 0.003335 0.150000
endloop
endfacet
facet normal -0.734708 -0.678384 -0.000036
outer loop
vertex 0.003591 0.003261 0.000000
vertex 0.003515 0.003335 0.150000
vertex 0.003406 0.003453 0.150000
endloop
endfacet
facet normal 0.000000 0.000000 -1.000000
outer loop
vertex 0.009484 0.002607 0.000000
vertex 0.009404 0.002836 0.000000
vertex 0.009310 0.003107 0.000000
endloop
endfacet
facet normal 0.000000 0.000000 -1.000000
outer loop
vertex 0.009484 0.002607 0.000000
vertex 0.009310 0.003107 0.000000
vertex 0.008893 0.004309 0.000000
endloop
endfacet
facet normal 0.000000 0.000000 -1.000000
outer loop
vertex 0.009581 0.002334 0.000000
vertex 0.009544 0.002434 0.000000
vertex 0.009484 0.002607 0.000000
endloop
endfacet
facet normal 0.952959 0.303099 0.000000
outer loop
vertex 0.009622 0.002211 0.150000
vertex 0.009622 0.002211 0.000000
vertex 0.009602 0.002273 0.000000
endloop
endfacet
facet normal 0.000000 0.000000 -1.000000
outer loop
vertex 0.009581 0.002334 0.000000
vertex 0.009484 0.002607 0.000000
vertex 0.008893 0.004309 0.000000
endloop
endfacet
facet normal 0.942412 0.334455 0.000014
outer loop
vertex 0.009622 0.002211 0.150000
vertex 0.009602 0.002273 0.000000
vertex 0.009581 0.002334 0.000000
endloop
endfacet
facet normal 0.952959 0.303099 -0.000014
outer loop
vertex 0.009602 0.002273 0.150000
vertex 0.009622 0.002211 0.150000
vertex 0.009581 0.002334 0.000000
endloop
endfacet
facet normal 0.000000 0.000000 -1.000000
outer loop
vertex 0.009581 0.002334 0.000000
vertex 0.008893 0.004309 0.000000
vertex 0.008804 0.004563 0.000000
endloop
endfacet
facet normal 0.944336 0.328982 -0.000003
outer loop
vertex 0.009602 0.002273 0.150000
vertex 0.009581 0.002334 0.000000
vertex 0.008804 0.004563 0.000000
endloop
endfacet
facet normal 0.942396 0.334499 0.000092
outer loop
vertex 0.009581 0.002334 0.150000
vertex 0.009602 0.002273 0.150000
vertex 0.008804 0.004563 0.000000
endloop
endfacet
facet normal 0.943775 0.330589 0.000027
outer loop
vertex 0.009581 0.002334 0.150000
vertex 0.008804 0.004563 0.000000
vertex 0.008732 0.004769 0.000000
endloop
endfacet
facet normal 0.940688 0.339272 0.000185
outer loop
vertex 0.009544 0.002434 0.150000
vertex 0.009581 0.002334 0.150000
vertex 0.008732 0.004769 0.000000
endloop
endfacet
facet normal 0.936607 0.350381 0.000000
outer loop
vertex 0.008682 0.004911 0.000000
vertex 0.008658 0.004974 0.000000
vertex 0.008658 0.004974 0.150000
endloop
endfacet
facet normal 0.942371 0.334570 0.000103
outer loop
vertex 0.009544 0.002434 0.150000
vertex 0.008732 0.004769 0.000000
vertex 0.008682 0.004911 0.000000
endloop
endfacet
facet normal 0.943267 0.332035 0.000056
outer loop
vertex 0.009484 0.002607 0.150000
vertex 0.009544 0.002434 0.150000
vertex 0.008682 0.004911 0.000000
endloop
endfacet
facet normal 0.936600 0.350401 0.000000
outer loop
vertex 0.008682 0.004911 0.000000
vertex 0.008658 0.004974 0.150000
vertex 0.008682 0.004911 0.150000
endloop
endfacet
facet normal 0.942371 0.334570 0.000000
outer loop
vertex 0.008682 0.004911 0.000000
vertex 0.008682 0.004911 0.150000
vertex 0.008732 0.004769 0.150000
endloop
endfacet
facet normal 0.944152 0.329510 0.000012
outer loop
vertex 0.009404 0.002836 0.150000
vertex 0.009484 0.002607 0.150000
vertex 0.008682 0.004911 0.000000
endloop
endfacet
facet normal 0.944562 0.328332 -0.000006
outer loop
vertex 0.009310 0.003107 0.150000
vertex 0.009404 0.002836 0.150000
vertex 0.008682 0.004911 0.000000
endloop
endfacet
facet normal 0.943775 0.330589 -0.000004
outer loop
vertex 0.008682 0.004911 0.000000
vertex 0.008732 0.004769 0.150000
vertex 0.008804 0.004563 0.150000
endloop
endfacet
facet normal 0.944767 0.327744 -0.000014
outer loop
vertex 0.008893 0.004309 0.150000
vertex 0.009310 0.003107 0.150000
vertex 0.008682 0.004911 0.000000
endloop
endfacet
facet normal 0.944367 0.328893 -0.000009
outer loop
vertex 0.008682 0.004911 0.000000
vertex 0.008804 0.004563 0.150000
vertex 0.008893 0.004309 0.150000
endloop
endfacet
facet normal -0.806395 0.591377 0.000000
outer loop
vertex 0.000831 0.008576 0.000000
vertex 0.000736 0.008446 0.000000
vertex 0.000736 0.008446 0.150000
endloop
endfacet
facet normal -0.806396 0.591376 0.000000
outer loop
vertex 0.000831 0.008576 0.000000
vertex 0.000736 0.008446 0.150000
vertex 0.000831 0.008576 0.150000
endloop
endfacet
facet normal 0.000000 0.000000 -1.000000
outer loop
vertex 0.002563 0.009538 0.000000
vertex 0.003119 0.009822 0.000000
vertex 0.003160 0.009842 0.000000
endloop
endfacet
facet normal 0.000000 0.000000 -1.000000
outer loop
vertex 0.003160 0.009842 0.000000
vertex 0.003183 0.009852 0.000000
vertex 0.003218 0.009851 0.000000
endloop
endfacet
facet normal 0.000000 0.000000 -1.000000
outer loop
vertex 0.003218 0.009851 0.000000
vertex 0.003289 0.009838 0.000000
vertex 0.003390 0.009816 0.000000
endloop
endfacet
facet normal 0.000000 0.000000 -1.000000
outer loop
vertex 0.003390 0.009816 0.000000
vertex 0.003512 0.009787 0.000000
vertex 0.003648 0.009754 0.000000
endloop
endfacet
facet normal 0.000000 0.000000 -1.000000
outer loop
vertex 0.003648 0.009754 0.000000
vertex 0.004359 0.009568 0.000000
vertex 0.007003 0.007286 0.000000
endloop
endfacet
facet normal 0.000000 0.000000 -1.000000
outer loop
vertex 0.007003 0.007286 0.000000
vertex 0.008658 0.004974 0.000000
vertex 0.008682 0.004911 0.000000
endloop
endfacet
facet normal 0.000000 0.000000 -1.000000
outer loop
vertex 0.008682 0.004911 0.000000
vertex 0.008732 0.004769 0.000000
vertex 0.008804 0.004563 0.000000
endloop
endfacet
facet normal 0.000000 0.000000 -1.000000
outer loop
vertex 0.008804 0.004563 0.000000
vertex 0.008893 0.004309 0.000000
vertex 0.009310 0.003107 0.000000
endloop
endfacet
facet normal 0.000000 0.000000 -1.000000
outer loop
vertex 0.008682 0.004911 0.000000
vertex 0.008804 0.004563 0.000000
vertex 0.009310 0.003107 0.000000
endloop
endfacet
facet normal 0.000000 0.000000 -1.000000
outer loop
vertex 0.003648 0.009754 0.000000
vertex 0.007003 0.007286 0.000000
vertex 0.008682 0.004911 0.000000
endloop
endfacet
facet normal 0.000000 0.000000 -1.000000
outer loop
vertex 0.003218 0.009851 0.000000
vertex 0.003390 0.009816 0.000000
vertex 0.003648 0.009754 0.000000
endloop
endfacet
facet normal 0.000000 0.000000 -1.000000
outer loop
vertex 0.002563 0.009538 0.000000
vertex 0.003160 0.009842 0.000000
vertex 0.003218 0.009851 0.000000
endloop
endfacet
facet normal 0.000000 0.000000 -1.000000
outer loop
vertex 0.001509 0.009035 0.000000
vertex 0.001656 0.009110 0.000000
vertex 0.002563 0.009538 0.000000
endloop
endfacet
facet normal 0.000000 0.000000 -1.000000
outer loop
vertex 0.001269 0.008900 0.000000
vertex 0.001378 0.008964 0.000000
vertex 0.001509 0.009035 0.000000
endloop
endfacet
facet normal 0.000000 0.000000 -1.000000
outer loop
vertex 0.000913 0.008658 0.000000
vertex 0.000953 0.008687 0.000000
vertex 0.001133 0.008803 0.000000
endloop
endfacet
facet normal 0.000000 0.000000 -1.000000
outer loop
vertex 0.001133 0.008803 0.000000
vertex 0.001269 0.008900 0.000000
vertex 0.001509 0.009035 0.000000
endloop
endfacet
facet normal 0.000000 0.000000 -1.000000
outer loop
vertex 0.002563 0.009538 0.000000
vertex 0.003218 0.009851 0.000000
vertex 0.003648 0.009754 0.000000
endloop
endfacet
facet normal 0.000000 0.000000 -1.000000
outer loop
vertex 0.001133 0.008803 0.000000
vertex 0.001509 0.009035 0.000000
vertex 0.002563 0.009538 0.000000
endloop
endfacet
facet normal 0.000000 0.000000 -1.000000
outer loop
vertex 0.000873 0.008621 0.000000
vertex 0.000913 0.008658 0.000000
vertex 0.001133 0.008803 0.000000
endloop
endfacet
facet normal 0.000000 0.000000 -1.000000
outer loop
vertex 0.000736 0.008446 0.000000
vertex 0.000831 0.008576 0.000000
vertex 0.000873 0.008621 0.000000
endloop
endfacet
facet normal 0.000000 0.000000 -1.000000
outer loop
vertex 0.000328 0.007747 0.000000
vertex 0.000680 0.008355 0.000000
vertex 0.000736 0.008446 0.000000
endloop
endfacet
facet normal 0.000000 0.000000 -1.000000
outer loop
vertex 0.000243 0.007585 0.000000
vertex 0.000284 0.007665 0.000000
vertex 0.000328 0.007747 0.000000
endloop
endfacet
facet normal 0.000000 0.000000 -1.000000
outer loop
vertex 0.000173 0.007423 0.000000
vertex 0.000206 0.007505 0.000000
vertex 0.000243 0.007585 0.000000
endloop
endfacet
facet normal 0.000000 0.000000 -1.000000
outer loop
vertex 0.000118 0.007247 0.000000
vertex 0.000143 0.007338 0.000000
vertex 0.000173 0.007423 0.000000
endloop
endfacet
facet normal 0.000000 0.000000 -1.000000
outer loop
vertex 0.000000 0.006414 0.000000
vertex 0.000006 0.006575 0.000000
vertex 0.000118 0.007247 0.000000
endloop
endfacet
facet normal 0.000000 0.000000 -1.000000
outer loop
vertex 0.000023 0.006216 0.000000
vertex 0.000010 0.006275 0.000000
vertex 0.000000 0.006414 0.000000
endloop
endfacet
facet normal 0.000000 0.000000 -1.000000
outer loop
vertex 0.000075 0.006115 0.000000
vertex 0.000041 0.006164 0.000000
vertex 0.000023 0.006216 0.000000
endloop
endfacet
facet normal 0.000000 0.000000 -1.000000
outer loop
vertex 0.000304 0.005962 0.000000
vertex 0.000133 0.006065 0.000000
vertex 0.000075 0.006115 0.000000
endloop
endfacet
facet normal 0.000000 0.000000 -1.000000
outer loop
vertex 0.000518 0.005863 0.000000
vertex 0.000408 0.005911 0.000000
vertex 0.000304 0.005962 0.000000
endloop
endfacet
facet normal 0.000000 0.000000 -1.000000
outer loop
vertex 0.000737 0.005773 0.000000
vertex 0.000629 0.005816 0.000000
vertex 0.000518 0.005863 0.000000
endloop
endfacet
facet normal 0.000000 0.000000 -1.000000
outer loop
vertex 0.000926 0.005700 0.000000
vertex 0.000737 0.005773 0.000000
vertex 0.000518 0.005863 0.000000
endloop
endfacet
facet normal 0.000000 0.000000 -1.000000
outer loop
vertex 0.000518 0.005863 0.000000
vertex 0.000304 0.005962 0.000000
vertex 0.000075 0.006115 0.000000
endloop
endfacet
facet normal 0.000000 0.000000 -1.000000
outer loop
vertex 0.000075 0.006115 0.000000
vertex 0.000023 0.006216 0.000000
vertex 0.000000 0.006414 0.000000
endloop
endfacet
facet normal 0.000000 0.000000 -1.000000
outer loop
vertex 0.000000 0.006414 0.000000
vertex 0.000118 0.007247 0.000000
vertex 0.000173 0.007423 0.000000
endloop
endfacet
facet normal 0.000000 0.000000 -1.000000
outer loop
vertex 0.000173 0.007423 0.000000
vertex 0.000243 0.007585 0.000000
vertex 0.000328 0.007747 0.000000
endloop
endfacet
facet normal 0.000000 0.000000 -1.000000
outer loop
vertex 0.000328 0.007747 0.000000
vertex 0.000736 0.008446 0.000000
vertex 0.000873 0.008621 0.000000
endloop
endfacet
facet normal 0.000000 0.000000 -1.000000
outer loop
vertex 0.000873 0.008621 0.000000
vertex 0.001133 0.008803 0.000000
vertex 0.002563 0.009538 0.000000
endloop
endfacet
facet normal 0.000000 0.000000 -1.000000
outer loop
vertex 0.002563 0.009538 0.000000
vertex 0.003648 0.009754 0.000000
vertex 0.008682 0.004911 0.000000
endloop
endfacet
facet normal 0.000000 0.000000 -1.000000
outer loop
vertex 0.008682 0.004911 0.000000
vertex 0.009310 0.003107 0.000000
vertex 0.009404 0.002836 0.000000
endloop
endfacet
facet normal 0.000000 0.000000 -1.000000
outer loop
vertex 0.002563 0.009538 0.000000
vertex 0.008682 0.004911 0.000000
vertex 0.009404 0.002836 0.000000
endloop
endfacet
facet normal 0.000000 0.000000 -1.000000
outer loop
vertex 0.000328 0.007747 0.000000
vertex 0.000873 0.008621 0.000000
vertex 0.002563 0.009538 0.000000
endloop
endfacet
facet normal 0.000000 0.000000 -1.000000
outer loop
vertex 0.000000 0.006414 0.000000
vertex 0.000173 0.007423 0.000000
vertex 0.000328 0.007747 0.000000
endloop
endfacet
facet normal 0.000000 0.000000 -1.000000
outer loop
vertex 0.000518 0.005863 0.000000
vertex 0.000075 0.006115 0.000000
vertex 0.000000 0.006414 0.000000
endloop
endfacet
facet normal 0.000000 0.000000 -1.000000
outer loop
vertex 0.000997 0.005672 0.000000
vertex 0.000926 0.005700 0.000000
vertex 0.000518 0.005863 0.000000
endloop
endfacet
facet normal 0.000000 0.000000 -1.000000
outer loop
vertex 0.001136 0.005612 0.000000
vertex 0.001089 0.005631 0.000000
vertex 0.001047 0.005650 0.000000
endloop
endfacet
facet normal 0.000000 0.000000 -1.000000
outer loop
vertex 0.000997 0.005672 0.000000
vertex 0.000518 0.005863 0.000000
vertex 0.000000 0.006414 0.000000
endloop
endfacet
facet normal 0.000000 0.000000 -1.000000
outer loop
vertex 0.001136 0.005612 0.000000
vertex 0.001047 0.005650 0.000000
vertex 0.000997 0.005672 0.000000
endloop
endfacet
facet normal 0.000000 0.000000 -1.000000
outer loop
vertex 0.001245 0.005573 0.000000
vertex 0.001189 0.005593 0.000000
vertex 0.001136 0.005612 0.000000
endloop
endfacet
facet normal 0.000000 0.000000 -1.000000
outer loop
vertex 0.001305 0.005552 0.000000
vertex 0.001245 0.005573 0.000000
vertex 0.001136 0.005612 0.000000
endloop
endfacet
facet normal 0.000000 0.000000 -1.000000
outer loop
vertex 0.001136 0.005612 0.000000
vertex 0.000997 0.005672 0.000000
vertex 0.000000 0.006414 0.000000
endloop
endfacet
facet normal 0.000000 0.000000 -1.000000
outer loop
vertex 0.000000 0.006414 0.000000
vertex 0.000328 0.007747 0.000000
vertex 0.002563 0.009538 0.000000
endloop
endfacet
facet normal 0.000000 0.000000 -1.000000
outer loop
vertex 0.002563 0.009538 0.000000
vertex 0.009404 0.002836 0.000000
vertex 0.009484 0.002607 0.000000
endloop
endfacet
facet normal 0.000000 0.000000 -1.000000
outer loop
vertex 0.009544 0.002434 0.000000
vertex 0.009581 0.002334 0.000000
vertex 0.009602 0.002273 0.000000
endloop
endfacet
facet normal 0.000000 0.000000 -1.000000
outer loop
vertex 0.002563 0.009538 0.000000
vertex 0.009484 0.002607 0.000000
vertex 0.009544 0.002434 0.000000
endloop
endfacet
facet normal 0.000000 0.000000 -1.000000
outer loop
vertex 0.001136 0.005612 0.000000
vertex 0.000000 0.006414 0.000000
vertex 0.002563 0.009538 0.000000
endloop
endfacet
facet normal 0.000000 0.000000 -1.000000
outer loop
vertex 0.001365 0.005530 0.000000
vertex 0.001305 0.005552 0.000000
vertex 0.001136 0.005612 0.000000
endloop
endfacet
facet normal 0.000000 0.000000 -1.000000
outer loop
vertex 0.001365 0.005530 0.000000
vertex 0.001136 0.005612 0.000000
vertex 0.002563 0.009538 0.000000
endloop
endfacet
facet normal 0.000000 0.000000 -1.000000
outer loop
vertex 0.002563 0.009538 0.000000
vertex 0.009544 0.002434 0.000000
vertex 0.009602 0.002273 0.000000
endloop
endfacet
facet normal 0.000000 0.000000 -1.000000
outer loop
vertex 0.009602 0.002273 0.000000
vertex 0.009622 0.002211 0.000000
vertex 0.009640 0.002147 0.000000
endloop
endfacet
facet normal 0.000000 0.000000 -1.000000
outer loop
vertex 0.009640 0.002147 0.000000
vertex 0.009657 0.002082 0.000000
vertex 0.009684 0.001951 0.000000
endloop
endfacet
facet normal 0.000000 0.000000 -1.000000
outer loop
vertex 0.009684 0.001951 0.000000
vertex 0.009695 0.001886 0.000000
vertex 0.009703 0.001823 0.000000
endloop
endfacet
facet normal 0.000000 0.000000 -1.000000
outer loop
vertex 0.009703 0.001823 0.000000
vertex 0.009710 0.001761 0.000000
vertex 0.009714 0.001702 0.000000
endloop
endfacet
facet normal 0.000000 0.000000 -1.000000
outer loop
vertex 0.009714 0.001702 0.000000
vertex 0.009715 0.001592 0.000000
vertex 0.009692 0.001402 0.000000
endloop
endfacet
facet normal 0.000000 0.000000 -1.000000
outer loop
vertex 0.009692 0.001402 0.000000
vertex 0.009504 0.000710 0.000000
vertex 0.009469 0.000646 0.000000
endloop
endfacet
facet normal 0.000000 0.000000 -1.000000
outer loop
vertex 0.009469 0.000646 0.000000
vertex 0.009409 0.000578 0.000000
vertex 0.009331 0.000507 0.000000
endloop
endfacet
facet normal 0.000000 0.000000 -1.000000
outer loop
vertex 0.009331 0.000507 0.000000
vertex 0.009136 0.000363 0.000000
vertex 0.009028 0.000293 0.000000
endloop
endfacet
facet normal 0.000000 0.000000 -1.000000
outer loop
vertex 0.009028 0.000293 0.000000
vertex 0.008920 0.000227 0.000000
vertex 0.008816 0.000166 0.000000
endloop
endfacet
facet normal 0.000000 0.000000 -1.000000
outer loop
vertex 0.008816 0.000166 0.000000
vertex 0.008722 0.000111 0.000000
vertex 0.008578 0.000029 0.000000
endloop
endfacet
facet normal 0.000000 0.000000 -1.000000
outer loop
vertex 0.008578 0.000029 0.000000
vertex 0.008538 0.000005 0.000000
vertex 0.008444 0.000002 0.000000
endloop
endfacet
facet normal 0.000000 0.000000 -1.000000
outer loop
vertex 0.008444 0.000002 0.000000
vertex 0.008233 0.000027 0.000000
vertex 0.007128 0.000213 0.000000
endloop
endfacet
facet normal 0.000000 0.000000 -1.000000
outer loop
vertex 0.007128 0.000213 0.000000
vertex 0.005154 0.000622 0.000000
vertex 0.004954 0.000676 0.000000
endloop
endfacet
facet normal 0.000000 0.000000 -1.000000
outer loop
vertex 0.004954 0.000676 0.000000
vertex 0.004875 0.000710 0.000000
vertex 0.004842 0.000778 0.000000
endloop
endfacet
facet normal 0.000000 0.000000 -1.000000
outer loop
vertex 0.004954 0.000676 0.000000
vertex 0.004842 0.000778 0.000000
vertex 0.004768 0.000928 0.000000
endloop
endfacet
facet normal 0.000000 0.000000 -1.000000
outer loop
vertex 0.008444 0.000002 0.000000
vertex 0.007128 0.000213 0.000000
vertex 0.004954 0.000676 0.000000
endloop
endfacet
facet normal 0.000000 0.000000 -1.000000
outer loop
vertex 0.008816 0.000166 0.000000
vertex 0.008578 0.000029 0.000000
vertex 0.008444 0.000002 0.000000
endloop
endfacet
facet normal 0.000000 0.000000 -1.000000
outer loop
vertex 0.009331 0.000507 0.000000
vertex 0.009028 0.000293 0.000000
vertex 0.008816 0.000166 0.000000
endloop
endfacet
facet normal 0.000000 0.000000 -1.000000
outer loop
vertex 0.009692 0.001402 0.000000
vertex 0.009469 0.000646 0.000000
vertex 0.009331 0.000507 0.000000
endloop
endfacet
facet normal 0.000000 0.000000 -1.000000
outer loop
vertex 0.009703 0.001823 0.000000
vertex 0.009714 0.001702 0.000000
vertex 0.009692 0.001402 0.000000
endloop
endfacet
facet normal 0.000000 0.000000 -1.000000
outer loop
vertex 0.009640 0.002147 0.000000
vertex 0.009684 0.001951 0.000000
vertex 0.009703 0.001823 0.000000
endloop
endfacet
facet normal 0.000000 0.000000 -1.000000
outer loop
vertex 0.002563 0.009538 0.000000
vertex 0.009602 0.002273 0.000000
vertex 0.009640 0.002147 0.000000
endloop
endfacet
facet normal 0.000000 0.000000 -1.000000
outer loop
vertex 0.001426 0.005508 0.000000
vertex 0.001365 0.005530 0.000000
vertex 0.002563 0.009538 0.000000
endloop
endfacet
facet normal 0.000000 0.000000 -1.000000
outer loop
vertex 0.001486 0.005485 0.000000
vertex 0.001426 0.005508 0.000000
vertex 0.002563 0.009538 0.000000
endloop
endfacet
facet normal 0.000000 0.000000 -1.000000
outer loop
vertex 0.002563 0.009538 0.000000
vertex 0.009640 0.002147 0.000000
vertex 0.009703 0.001823 0.000000
endloop
endfacet
facet normal 0.000000 0.000000 -1.000000
outer loop
vertex 0.009703 0.001823 0.000000
vertex 0.009692 0.001402 0.000000
vertex 0.009331 0.000507 0.000000
endloop
endfacet
facet normal 0.000000 0.000000 -1.000000
outer loop
vertex 0.009331 0.000507 0.000000
vertex 0.008816 0.000166 0.000000
vertex 0.008444 0.000002 0.000000
endloop
endfacet
facet normal 0.000000 0.000000 -1.000000
outer loop
vertex 0.008444 0.000002 0.000000
vertex 0.004954 0.000676 0.000000
vertex 0.004768 0.000928 0.000000
endloop
endfacet
facet normal 0.000000 0.000000 -1.000000
outer loop
vertex 0.003619 0.003235 0.000000
vertex 0.003591 0.003261 0.000000
vertex 0.003515 0.003335 0.000000
endloop
endfacet
facet normal 0.000000 0.000000 -1.000000
outer loop
vertex 0.008444 0.000002 0.000000
vertex 0.004768 0.000928 0.000000
vertex 0.003619 0.003235 0.000000
endloop
endfacet
facet normal 0.000000 0.000000 -1.000000
outer loop
vertex 0.009703 0.001823 0.000000
vertex 0.009331 0.000507 0.000000
vertex 0.008444 0.000002 0.000000
endloop
endfacet
facet normal 0.000000 0.000000 -1.000000
outer loop
vertex 0.001543 0.005462 0.000000
vertex 0.001486 0.005485 0.000000
vertex 0.002563 0.009538 0.000000
endloop
endfacet
facet normal 0.000000 0.000000 -1.000000
outer loop
vertex 0.001776 0.005345 0.000000
vertex 0.001732 0.005362 0.000000
vertex 0.001597 0.005437 0.000000
endloop
endfacet
facet normal 0.000000 0.000000 -1.000000
outer loop
vertex 0.001597 0.005437 0.000000
vertex 0.001543 0.005462 0.000000
vertex 0.002563 0.009538 0.000000
endloop
endfacet
facet normal 0.000000 0.000000 -1.000000
outer loop
vertex 0.002563 0.009538 0.000000
vertex 0.009703 0.001823 0.000000
vertex 0.008444 0.000002 0.000000
endloop
endfacet
facet normal 0.000000 0.000000 -1.000000
outer loop
vertex 0.008444 0.000002 0.000000
vertex 0.003619 0.003235 0.000000
vertex 0.003515 0.003335 0.000000
endloop
endfacet
facet normal 0.000000 0.000000 -1.000000
outer loop
vertex 0.003515 0.003335 0.000000
vertex 0.003406 0.003453 0.000000
vertex 0.003148 0.003800 0.000000
endloop
endfacet
facet normal 0.000000 0.000000 -1.000000
outer loop
vertex 0.003148 0.003800 0.000000
vertex 0.003086 0.003906 0.000000
vertex 0.003028 0.004020 0.000000
endloop
endfacet
facet normal 0.000000 0.000000 -1.000000
outer loop
vertex 0.003148 0.003800 0.000000
vertex 0.003028 0.004020 0.000000
vertex 0.002975 0.004129 0.000000
endloop
endfacet
facet normal 0.000000 0.000000 -1.000000
outer loop
vertex 0.008444 0.000002 0.000000
vertex 0.003515 0.003335 0.000000
vertex 0.003148 0.003800 0.000000
endloop
endfacet
facet normal 0.000000 0.000000 -1.000000
outer loop
vertex 0.001776 0.005345 0.000000
vertex 0.001597 0.005437 0.000000
vertex 0.002563 0.009538 0.000000
endloop
endfacet
facet normal 0.000000 0.000000 -1.000000
outer loop
vertex 0.001978 0.005285 0.000000
vertex 0.001776 0.005345 0.000000
vertex 0.002563 0.009538 0.000000
endloop
endfacet
facet normal 0.000000 0.000000 -1.000000
outer loop
vertex 0.002563 0.009538 0.000000
vertex 0.008444 0.000002 0.000000
vertex 0.003148 0.003800 0.000000
endloop
endfacet
facet normal 0.000000 0.000000 -1.000000
outer loop
vertex 0.003148 0.003800 0.000000
vertex 0.002975 0.004129 0.000000
vertex 0.002924 0.004226 0.000000
endloop
endfacet
facet normal 0.000000 0.000000 -1.000000
outer loop
vertex 0.002563 0.009538 0.000000
vertex 0.003148 0.003800 0.000000
vertex 0.002924 0.004226 0.000000
endloop
endfacet
facet normal 0.000000 0.000000 -1.000000
outer loop
vertex 0.002036 0.005262 0.000000
vertex 0.001978 0.005285 0.000000
vertex 0.002563 0.009538 0.000000
endloop
endfacet
facet normal 0.000000 0.000000 -1.000000
outer loop
vertex 0.002097 0.005230 0.000000
vertex 0.002036 0.005262 0.000000
vertex 0.002563 0.009538 0.000000
endloop
endfacet
facet normal 0.000000 0.000000 -1.000000
outer loop
vertex 0.002563 0.009538 0.000000
vertex 0.002924 0.004226 0.000000
vertex 0.002876 0.004312 0.000000
endloop
endfacet
facet normal 0.000000 0.000000 -1.000000
outer loop
vertex 0.002563 0.009538 0.000000
vertex 0.002876 0.004312 0.000000
vertex 0.002827 0.004390 0.000000
endloop
endfacet
facet normal 0.000000 0.000000 -1.000000
outer loop
vertex 0.002160 0.005188 0.000000
vertex 0.002097 0.005230 0.000000
vertex 0.002563 0.009538 0.000000
endloop
endfacet
facet normal 0.000000 0.000000 -1.000000
outer loop
vertex 0.002227 0.005133 0.000000
vertex 0.002160 0.005188 0.000000
vertex 0.002563 0.009538 0.000000
endloop
endfacet
facet normal 0.000000 0.000000 -1.000000
outer loop
vertex 0.002563 0.009538 0.000000
vertex 0.002827 0.004390 0.000000
vertex 0.002779 0.004461 0.000000
endloop
endfacet
facet normal 0.000000 0.000000 -1.000000
outer loop
vertex 0.002563 0.009538 0.000000
vertex 0.002779 0.004461 0.000000
vertex 0.002731 0.004529 0.000000
endloop
endfacet
facet normal 0.000000 0.000000 -1.000000
outer loop
vertex 0.002298 0.005064 0.000000
vertex 0.002227 0.005133 0.000000
vertex 0.002563 0.009538 0.000000
endloop
endfacet
facet normal 0.000000 0.000000 -1.000000
outer loop
vertex 0.002371 0.004978 0.000000
vertex 0.002298 0.005064 0.000000
vertex 0.002563 0.009538 0.000000
endloop
endfacet
facet normal 0.000000 0.000000 -1.000000
outer loop
vertex 0.002563 0.009538 0.000000
vertex 0.002731 0.004529 0.000000
vertex 0.002680 0.004596 0.000000
endloop
endfacet
facet normal 0.000000 0.000000 -1.000000
outer loop
vertex 0.002563 0.009538 0.000000
vertex 0.002680 0.004596 0.000000
vertex 0.002371 0.004978 0.000000
endloop
endfacet
facet normal 0.873259 -0.487256 0.000000
outer loop
vertex 0.009469 0.000646 0.150000
vertex 0.009469 0.000646 0.000000
vertex 0.009504 0.000710 0.000000
endloop
endfacet
facet normal 0.873250 -0.487272 0.000000
outer loop
vertex 0.009469 0.000646 0.150000
vertex 0.009504 0.000710 0.000000
vertex 0.009504 0.000710 0.150000
endloop
endfacet
facet normal 0.671072 -0.741392 0.000000
outer loop
vertex 0.009331 0.000507 0.150000
vertex 0.009331 0.000507 0.000000
vertex 0.009409 0.000578 0.000000
endloop
endfacet
facet normal 0.671072 -0.741392 0.000000
outer loop
vertex 0.009331 0.000507 0.150000
vertex 0.009409 0.000578 0.000000
vertex 0.009409 0.000578 0.150000
endloop
endfacet
facet normal -0.113173 -0.993575 0.000000
outer loop
vertex 0.008233 0.000027 0.000000
vertex 0.008444 0.000002 0.000000
vertex 0.008444 0.000002 0.150000
endloop
endfacet
facet normal -0.113174 -0.993575 0.000000
outer loop
vertex 0.008233 0.000027 0.000000
vertex 0.008444 0.000002 0.150000
vertex 0.008233 0.000027 0.150000
endloop
endfacet
facet normal -0.166414 -0.986056 0.000000
outer loop
vertex 0.007128 0.000213 0.000000
vertex 0.008233 0.000027 0.000000
vertex 0.008233 0.000027 0.150000
endloop
endfacet
facet normal -0.166414 -0.986056 0.000000
outer loop
vertex 0.007128 0.000213 0.000000
vertex 0.008233 0.000027 0.150000
vertex 0.007128 0.000213 0.150000
endloop
endfacet
facet normal -0.261826 -0.965115 0.000000
outer loop
vertex 0.004954 0.000676 0.150000
vertex 0.004954 0.000676 0.000000
vertex 0.005154 0.000622 0.000000
endloop
endfacet
facet normal -0.202846 -0.979211 0.000000
outer loop
vertex 0.005154 0.000622 0.000000
vertex 0.007128 0.000213 0.000000
vertex 0.007128 0.000213 0.150000
endloop
endfacet
facet normal -0.261827 -0.965115 0.000000
outer loop
vertex 0.005154 0.000622 0.150000
vertex 0.004954 0.000676 0.150000
vertex 0.005154 0.000622 0.000000
endloop
endfacet
facet normal -0.202846 -0.979211 0.000000
outer loop
vertex 0.007128 0.000213 0.150000
vertex 0.005154 0.000622 0.150000
vertex 0.005154 0.000622 0.000000
endloop
endfacet
facet normal 0.000000 0.000000 1.000000
outer loop
vertex 0.001133 0.008803 0.000000
vertex 0.000953 0.008687 0.000000
vertex 0.000913 0.008658 0.000000
endloop
endfacet
facet normal -0.604896 0.796305 0.000000
outer loop
vertex 0.000913 0.008658 0.000000
vertex 0.000913 0.008658 0.150000
vertex 0.000953 0.008687 0.150000
endloop
endfacet
facet normal -0.540397 0.841410 -0.000026
outer loop
vertex 0.000913 0.008658 0.000000
vertex 0.000953 0.008687 0.150000
vertex 0.001133 0.008803 0.150000
endloop
endfacet
facet normal 0.000000 0.000000 1.000000
outer loop
vertex 0.001378 0.008964 0.000000
vertex 0.001269 0.008900 0.000000
vertex 0.001133 0.008803 0.000000
endloop
endfacet
facet normal -0.552749 0.833348 0.000000
outer loop
vertex 0.001133 0.008803 0.000000
vertex 0.000913 0.008658 0.000000
vertex 0.001133 0.008803 0.150000
endloop
endfacet
facet normal -0.507803 0.861474 0.000000
outer loop
vertex 0.001269 0.008900 0.150000
vertex 0.001378 0.008964 0.150000
vertex 0.001378 0.008964 0.000000
endloop
endfacet
facet normal -0.577192 0.816608 0.000000
outer loop
vertex 0.001133 0.008803 0.000000
vertex 0.001133 0.008803 0.150000
vertex 0.001269 0.008900 0.150000
endloop
endfacet
facet normal -0.547855 0.836573 -0.000040
outer loop
vertex 0.001133 0.008803 0.000000
vertex 0.001269 0.008900 0.150000
vertex 0.001378 0.008964 0.000000
endloop
endfacet
facet normal 0.965184 -0.261573 0.000000
outer loop
vertex 0.009692 0.001402 0.000000
vertex 0.009692 0.001402 0.150000
vertex 0.009504 0.000710 0.150000
endloop
endfacet
facet normal 0.965184 -0.261571 0.000000
outer loop
vertex 0.009692 0.001402 0.000000
vertex 0.009504 0.000710 0.150000
vertex 0.009504 0.000710 0.000000
endloop
endfacet
facet normal -0.820154 -0.572143 0.000000
outer loop
vertex 0.000041 0.006164 0.150000
vertex 0.000041 0.006164 0.000000
vertex 0.000075 0.006115 0.000000
endloop
endfacet
facet normal -0.820154 -0.572143 0.000000
outer loop
vertex 0.000041 0.006164 0.150000
vertex 0.000075 0.006115 0.000000
vertex 0.000075 0.006115 0.150000
endloop
endfacet
facet normal -0.811574 -0.584249 0.000000
outer loop
vertex 0.002731 0.004529 0.000000
vertex 0.002779 0.004461 0.000000
vertex 0.002779 0.004461 0.150000
endloop
endfacet
facet normal -0.811572 -0.584252 0.000000
outer loop
vertex 0.002731 0.004529 0.000000
vertex 0.002779 0.004461 0.150000
vertex 0.002731 0.004529 0.150000
endloop
endfacet
facet normal -0.794504 -0.607259 0.000000
outer loop
vertex 0.002680 0.004596 0.000000
vertex 0.002731 0.004529 0.000000
vertex 0.002731 0.004529 0.150000
endloop
endfacet
facet normal -0.794502 -0.607262 0.000000
outer loop
vertex 0.002680 0.004596 0.000000
vertex 0.002731 0.004529 0.150000
vertex 0.002680 0.004596 0.150000
endloop
endfacet
facet normal -0.761606 -0.648041 0.000000
outer loop
vertex 0.002298 0.005064 0.150000
vertex 0.002298 0.005064 0.000000
vertex 0.002371 0.004978 0.000000
endloop
endfacet
facet normal -0.777755 -0.628568 0.000000
outer loop
vertex 0.002371 0.004978 0.000000
vertex 0.002680 0.004596 0.000000
vertex 0.002680 0.004596 0.150000
endloop
endfacet
facet normal -0.761606 -0.648041 0.000000
outer loop
vertex 0.002371 0.004978 0.150000
vertex 0.002298 0.005064 0.150000
vertex 0.002371 0.004978 0.000000
endloop
endfacet
facet normal -0.777755 -0.628568 0.000000
outer loop
vertex 0.002680 0.004596 0.150000
vertex 0.002371 0.004978 0.150000
vertex 0.002371 0.004978 0.000000
endloop
endfacet
facet normal 0.545230 -0.838287 0.000000
outer loop
vertex 0.009028 0.000293 0.000000
vertex 0.009136 0.000363 0.000000
vertex 0.009136 0.000363 0.150000
endloop
endfacet
facet normal 0.545224 -0.838290 0.000000
outer loop
vertex 0.009028 0.000293 0.000000
vertex 0.009136 0.000363 0.150000
vertex 0.009028 0.000293 0.150000
endloop
endfacet
facet normal 0.523904 -0.851777 0.000000
outer loop
vertex 0.008920 0.000227 0.000000
vertex 0.009028 0.000293 0.000000
vertex 0.009028 0.000293 0.150000
endloop
endfacet
facet normal 0.523898 -0.851781 0.000000
outer loop
vertex 0.008920 0.000227 0.000000
vertex 0.009028 0.000293 0.150000
vertex 0.008920 0.000227 0.150000
endloop
endfacet
facet normal 0.508435 -0.861100 0.000000
outer loop
vertex 0.008816 0.000166 0.000000
vertex 0.008920 0.000227 0.000000
vertex 0.008920 0.000227 0.150000
endloop
endfacet
facet normal 0.508441 -0.861097 0.000000
outer loop
vertex 0.008816 0.000166 0.000000
vertex 0.008920 0.000227 0.150000
vertex 0.008816 0.000166 0.150000
endloop
endfacet
facet normal 0.000000 0.000000 -1.000000
outer loop
vertex 0.008538 0.000005 0.000000
vertex 0.008578 0.000029 0.000000
vertex 0.008722 0.000111 0.000000
endloop
endfacet
facet normal 0.498048 -0.867149 0.000000
outer loop
vertex 0.008722 0.000111 0.000000
vertex 0.008816 0.000166 0.000000
vertex 0.008816 0.000166 0.150000
endloop
endfacet
facet normal 0.498061 -0.867142 0.000000
outer loop
vertex 0.008722 0.000111 0.000000
vertex 0.008816 0.000166 0.150000
vertex 0.008722 0.000111 0.150000
endloop
endfacet
facet normal 0.500105 -0.865965 0.000000
outer loop
vertex 0.008538 0.000005 0.150000
vertex 0.008538 0.000005 0.000000
vertex 0.008722 0.000111 0.000000
endloop
endfacet
facet normal 0.494552 -0.869148 0.000000
outer loop
vertex 0.008722 0.000111 0.000000
vertex 0.008722 0.000111 0.150000
vertex 0.008578 0.000029 0.150000
endloop
endfacet
facet normal 0.519724 -0.854334 0.000032
outer loop
vertex 0.008578 0.000029 0.150000
vertex 0.008538 0.000005 0.150000
vertex 0.008722 0.000111 0.000000
endloop
endfacet
facet normal -0.514616 -0.857421 0.000000
outer loop
vertex 0.000133 0.006065 0.150000
vertex 0.000133 0.006065 0.000000
vertex 0.000304 0.005962 0.000000
endloop
endfacet
facet normal -0.514616 -0.857421 0.000000
outer loop
vertex 0.000133 0.006065 0.150000
vertex 0.000304 0.005962 0.000000
vertex 0.000304 0.005962 0.150000
endloop
endfacet
facet normal 0.999930 0.011809 0.000000
outer loop
vertex 0.009715 0.001592 0.150000
vertex 0.009715 0.001592 0.000000
vertex 0.009714 0.001702 0.000000
endloop
endfacet
facet normal 0.999931 0.011781 0.000000
outer loop
vertex 0.009715 0.001592 0.150000
vertex 0.009714 0.001702 0.000000
vertex 0.009714 0.001702 0.150000
endloop
endfacet
facet normal 0.653226 0.757163 0.000000
outer loop
vertex 0.007003 0.007286 0.000000
vertex 0.004359 0.009568 0.000000
vertex 0.004359 0.009568 0.150000
endloop
endfacet
facet normal 0.653226 0.757163 0.000000
outer loop
vertex 0.007003 0.007286 0.000000
vertex 0.004359 0.009568 0.150000
vertex 0.007003 0.007286 0.150000
endloop
endfacet
facet normal 0.176756 0.984255 0.000000
outer loop
vertex 0.003289 0.009838 0.000000
vertex 0.003218 0.009851 0.000000
vertex 0.003218 0.009851 0.150000
endloop
endfacet
facet normal 0.176757 0.984255 0.000000
outer loop
vertex 0.003289 0.009838 0.000000
vertex 0.003218 0.009851 0.150000
vertex 0.003289 0.009838 0.150000
endloop
endfacet
facet normal 0.213078 0.977035 0.000000
outer loop
vertex 0.003390 0.009816 0.000000
vertex 0.003289 0.009838 0.000000
vertex 0.003289 0.009838 0.150000
endloop
endfacet
facet normal 0.213076 0.977036 0.000000
outer loop
vertex 0.003390 0.009816 0.000000
vertex 0.003289 0.009838 0.150000
vertex 0.003390 0.009816 0.150000
endloop
endfacet
facet normal 0.229897 0.973215 0.000000
outer loop
vertex 0.003512 0.009787 0.000000
vertex 0.003390 0.009816 0.000000
vertex 0.003390 0.009816 0.150000
endloop
endfacet
facet normal 0.229896 0.973215 0.000000
outer loop
vertex 0.003512 0.009787 0.000000
vertex 0.003390 0.009816 0.150000
vertex 0.003512 0.009787 0.150000
endloop
endfacet
facet normal 0.253187 0.967417 0.000000
outer loop
vertex 0.004359 0.009568 0.150000
vertex 0.004359 0.009568 0.000000
vertex 0.003648 0.009754 0.000000
endloop
endfacet
facet normal 0.239600 0.970872 0.000000
outer loop
vertex 0.003648 0.009754 0.000000
vertex 0.003512 0.009787 0.000000
vertex 0.003512 0.009787 0.150000
endloop
endfacet
facet normal 0.253187 0.967417 0.000000
outer loop
vertex 0.003648 0.009754 0.150000
vertex 0.004359 0.009568 0.150000
vertex 0.003648 0.009754 0.000000
endloop
endfacet
facet normal 0.239599 0.970872 0.000000
outer loop
vertex 0.003512 0.009787 0.150000
vertex 0.003648 0.009754 0.150000
vertex 0.003648 0.009754 0.000000
endloop
endfacet
facet normal -0.898623 -0.438722 0.000000
outer loop
vertex 0.004842 0.000778 0.000000
vertex 0.004875 0.000710 0.000000
vertex 0.004875 0.000710 0.150000
endloop
endfacet
facet normal -0.898619 -0.438731 0.000000
outer loop
vertex 0.004842 0.000778 0.000000
vertex 0.004875 0.000710 0.150000
vertex 0.004842 0.000778 0.150000
endloop
endfacet
facet normal -0.895153 -0.445759 0.000000
outer loop
vertex 0.003619 0.003235 0.150000
vertex 0.003619 0.003235 0.000000
vertex 0.004768 0.000928 0.000000
endloop
endfacet
facet normal -0.896301 -0.443446 0.000000
outer loop
vertex 0.004768 0.000928 0.000000
vertex 0.004842 0.000778 0.000000
vertex 0.004842 0.000778 0.150000
endloop
endfacet
facet normal -0.895153 -0.445760 0.000000
outer loop
vertex 0.004768 0.000928 0.150000
vertex 0.003619 0.003235 0.150000
vertex 0.004768 0.000928 0.000000
endloop
endfacet
facet normal -0.896305 -0.443438 0.000000
outer loop
vertex 0.004768 0.000928 0.000000
vertex 0.004842 0.000778 0.150000
vertex 0.004768 0.000928 0.150000
endloop
endfacet
facet normal -0.986582 0.163270 0.000000
outer loop
vertex 0.000118 0.007247 0.000000
vertex 0.000006 0.006575 0.000000
vertex 0.000006 0.006575 0.150000
endloop
endfacet
facet normal -0.986582 0.163270 0.000000
outer loop
vertex 0.000118 0.007247 0.000000
vertex 0.000006 0.006575 0.150000
vertex 0.000118 0.007247 0.150000
endloop
endfacet
facet normal 0.992273 -0.124073 0.000000
outer loop
vertex 0.009692 0.001402 0.150000
vertex 0.009692 0.001402 0.000000
vertex 0.009715 0.001592 0.000000
endloop
endfacet
facet normal 0.992274 -0.124065 0.000000
outer loop
vertex 0.009692 0.001402 0.150000
vertex 0.009715 0.001592 0.000000
vertex 0.009715 0.001592 0.150000
endloop
endfacet
facet normal 0.029296 -0.999571 0.000000
outer loop
vertex 0.008444 0.000002 0.150000
vertex 0.008444 0.000002 0.000000
vertex 0.008538 0.000005 0.000000
endloop
endfacet
facet normal 0.029296 -0.999571 0.000000
outer loop
vertex 0.008444 0.000002 0.150000
vertex 0.008538 0.000005 0.000000
vertex 0.008538 0.000005 0.150000
endloop
endfacet
facet normal -0.999227 0.039310 0.000000
outer loop
vertex 0.000006 0.006575 0.000000
vertex 0.000000 0.006414 0.000000
vertex 0.000000 0.006414 0.150000
endloop
endfacet
facet normal -0.999227 0.039310 0.000000
outer loop
vertex 0.000006 0.006575 0.000000
vertex 0.000000 0.006414 0.150000
vertex 0.000006 0.006575 0.150000
endloop
endfacet
facet normal 0.000000 0.000000 1.000000
outer loop
vertex 0.003086 0.003906 0.150000
vertex 0.003148 0.003800 0.150000
vertex 0.003406 0.003453 0.150000
endloop
endfacet
facet normal -0.004157 0.000000 0.999991
outer loop
vertex 0.003406 0.003453 0.150000
vertex 0.003515 0.003335 0.150000
vertex 0.003591 0.003261 0.150000
endloop
endfacet
facet normal 0.005081 0.000000 0.999987
outer loop
vertex 0.003406 0.003453 0.150000
vertex 0.003591 0.003261 0.150000
vertex 0.003619 0.003235 0.150000
endloop
endfacet
facet normal -0.001445 0.000000 0.999999
outer loop
vertex 0.003028 0.004020 0.150000
vertex 0.003086 0.003906 0.150000
vertex 0.003406 0.003453 0.150000
endloop
endfacet
facet normal 0.001309 0.000000 0.999999
outer loop
vertex 0.002975 0.004129 0.150000
vertex 0.003028 0.004020 0.150000
vertex 0.003406 0.003453 0.150000
endloop
endfacet
facet normal 0.000144 0.000000 1.000000
outer loop
vertex 0.002975 0.004129 0.150000
vertex 0.003406 0.003453 0.150000
vertex 0.003619 0.003235 0.150000
endloop
endfacet
facet normal 0.000000 0.000000 1.000000
outer loop
vertex 0.002924 0.004226 0.150000
vertex 0.002975 0.004129 0.150000
vertex 0.003619 0.003235 0.150000
endloop
endfacet
facet normal -0.002547 0.000000 0.999997
outer loop
vertex 0.002876 0.004312 0.150000
vertex 0.002924 0.004226 0.150000
vertex 0.003619 0.003235 0.150000
endloop
endfacet
facet normal 0.000000 0.000000 1.000000
outer loop
vertex 0.002827 0.004390 0.150000
vertex 0.002876 0.004312 0.150000
vertex 0.003619 0.003235 0.150000
endloop
endfacet
facet normal 0.021048 0.000000 0.999779
outer loop
vertex 0.002779 0.004461 0.150000
vertex 0.002827 0.004390 0.150000
vertex 0.003619 0.003235 0.150000
endloop
endfacet
facet normal 0.000000 0.000000 1.000000
outer loop
vertex 0.004842 0.000778 0.150000
vertex 0.004875 0.000710 0.150000
vertex 0.004954 0.000676 0.150000
endloop
endfacet
facet normal 0.000000 0.000000 1.000000
outer loop
vertex 0.004954 0.000676 0.150000
vertex 0.005154 0.000622 0.150000
vertex 0.007128 0.000213 0.150000
endloop
endfacet
facet normal -0.000319 0.000000 1.000000
outer loop
vertex 0.007128 0.000213 0.150000
vertex 0.008233 0.000027 0.150000
vertex 0.008444 0.000002 0.150000
endloop
endfacet
facet normal 0.000000 0.000000 1.000000
outer loop
vertex 0.008444 0.000002 0.150000
vertex 0.008538 0.000005 0.150000
vertex 0.008578 0.000029 0.150000
endloop
endfacet
facet normal 0.000000 0.000000 1.000000
outer loop
vertex 0.008578 0.000029 0.150000
vertex 0.008722 0.000111 0.150000
vertex 0.008816 0.000166 0.150000
endloop
endfacet
facet normal 0.000000 0.000000 1.000000
outer loop
vertex 0.008816 0.000166 0.150000
vertex 0.008920 0.000227 0.150000
vertex 0.009028 0.000293 0.150000
endloop
endfacet
facet normal 0.001975 0.000000 0.999998
outer loop
vertex 0.009028 0.000293 0.150000
vertex 0.009136 0.000363 0.150000
vertex 0.009331 0.000507 0.150000
endloop
endfacet
facet normal -0.001618 0.000000 0.999999
outer loop
vertex 0.009331 0.000507 0.150000
vertex 0.009409 0.000578 0.150000
vertex 0.009469 0.000646 0.150000
endloop
endfacet
facet normal 0.000000 0.000000 1.000000
outer loop
vertex 0.009469 0.000646 0.150000
vertex 0.009504 0.000710 0.150000
vertex 0.009692 0.001402 0.150000
endloop
endfacet
facet normal -0.001274 0.000000 0.999999
outer loop
vertex 0.009692 0.001402 0.150000
vertex 0.009715 0.001592 0.150000
vertex 0.009714 0.001702 0.150000
endloop
endfacet
facet normal -0.014632 0.000000 0.999893
outer loop
vertex 0.009714 0.001702 0.150000
vertex 0.009710 0.001761 0.150000
vertex 0.009703 0.001823 0.150000
endloop
endfacet
facet normal 0.000000 0.000000 1.000000
outer loop
vertex 0.009703 0.001823 0.150000
vertex 0.009695 0.001886 0.150000
vertex 0.009684 0.001951 0.150000
endloop
endfacet
facet normal 0.004853 0.000000 0.999988
outer loop
vertex 0.009684 0.001951 0.150000
vertex 0.009657 0.002082 0.150000
vertex 0.009640 0.002147 0.150000
endloop
endfacet
facet normal -0.013563 0.000000 0.999908
outer loop
vertex 0.009640 0.002147 0.150000
vertex 0.009622 0.002211 0.150000
vertex 0.009602 0.002273 0.150000
endloop
endfacet
facet normal 0.000000 0.000000 1.000000
outer loop
vertex 0.009602 0.002273 0.150000
vertex 0.009581 0.002334 0.150000
vertex 0.009544 0.002434 0.150000
endloop
endfacet
facet normal 0.003113 0.000000 0.999995
outer loop
vertex 0.009640 0.002147 0.150000
vertex 0.009602 0.002273 0.150000
vertex 0.009544 0.002434 0.150000
endloop
endfacet
facet normal -0.001993 0.000000 0.999998
outer loop
vertex 0.009703 0.001823 0.150000
vertex 0.009684 0.001951 0.150000
vertex 0.009640 0.002147 0.150000
endloop
endfacet
facet normal 0.000000 0.000000 1.000000
outer loop
vertex 0.009692 0.001402 0.150000
vertex 0.009714 0.001702 0.150000
vertex 0.009703 0.001823 0.150000
endloop
endfacet
facet normal 0.000000 0.000000 1.000000
outer loop
vertex 0.009331 0.000507 0.150000
vertex 0.009469 0.000646 0.150000
vertex 0.009692 0.001402 0.150000
endloop
endfacet
facet normal -0.001092 0.000000 0.999999
outer loop
vertex 0.008816 0.000166 0.150000
vertex 0.009028 0.000293 0.150000
vertex 0.009331 0.000507 0.150000
endloop
endfacet
facet normal 0.000000 0.000000 1.000000
outer loop
vertex 0.008444 0.000002 0.150000
vertex 0.008578 0.000029 0.150000
vertex 0.008816 0.000166 0.150000
endloop
endfacet
facet normal -0.000096 0.000000 1.000000
outer loop
vertex 0.004954 0.000676 0.150000
vertex 0.007128 0.000213 0.150000
vertex 0.008444 0.000002 0.150000
endloop
endfacet
facet normal 0.000396 0.000000 1.000000
outer loop
vertex 0.004768 0.000928 0.150000
vertex 0.004842 0.000778 0.150000
vertex 0.004954 0.000676 0.150000
endloop
endfacet
facet normal 0.000520 0.000000 1.000000
outer loop
vertex 0.003619 0.003235 0.150000
vertex 0.004768 0.000928 0.150000
vertex 0.004954 0.000676 0.150000
endloop
endfacet
facet normal 0.000018 0.000000 1.000000
outer loop
vertex 0.004954 0.000676 0.150000
vertex 0.008444 0.000002 0.150000
vertex 0.008816 0.000166 0.150000
endloop
endfacet
facet normal 0.000000 0.000000 1.000000
outer loop
vertex 0.008816 0.000166 0.150000
vertex 0.009331 0.000507 0.150000
vertex 0.009692 0.001402 0.150000
endloop
endfacet
facet normal 0.000239 0.000000 1.000000
outer loop
vertex 0.009692 0.001402 0.150000
vertex 0.009703 0.001823 0.150000
vertex 0.009640 0.002147 0.150000
endloop
endfacet
facet normal -0.007827 0.000000 0.999969
outer loop
vertex 0.009640 0.002147 0.150000
vertex 0.009544 0.002434 0.150000
vertex 0.009484 0.002607 0.150000
endloop
endfacet
facet normal 0.007895 0.000000 0.999969
outer loop
vertex 0.009640 0.002147 0.150000
vertex 0.009484 0.002607 0.150000
vertex 0.009404 0.002836 0.150000
endloop
endfacet
facet normal -0.000020 0.000000 1.000000
outer loop
vertex 0.008816 0.000166 0.150000
vertex 0.009692 0.001402 0.150000
vertex 0.009640 0.002147 0.150000
endloop
endfacet
facet normal 0.000000 0.000000 1.000000
outer loop
vertex 0.003619 0.003235 0.150000
vertex 0.004954 0.000676 0.150000
vertex 0.008816 0.000166 0.150000
endloop
endfacet
facet normal -0.000015 0.000000 1.000000
outer loop
vertex 0.002779 0.004461 0.150000
vertex 0.003619 0.003235 0.150000
vertex 0.008816 0.000166 0.150000
endloop
endfacet
facet normal -0.000028 0.000000 1.000000
outer loop
vertex 0.008816 0.000166 0.150000
vertex 0.009640 0.002147 0.150000
vertex 0.009404 0.002836 0.150000
endloop
endfacet
facet normal -0.017580 0.000000 0.999846
outer loop
vertex 0.009310 0.003107 0.150000
vertex 0.008893 0.004309 0.150000
vertex 0.008804 0.004563 0.150000
endloop
endfacet
facet normal 0.000089 0.000000 1.000000
outer loop
vertex 0.008816 0.000166 0.150000
vertex 0.009404 0.002836 0.150000
vertex 0.009310 0.003107 0.150000
endloop
endfacet
facet normal 0.000582 0.000000 1.000000
outer loop
vertex 0.002731 0.004529 0.150000
vertex 0.002779 0.004461 0.150000
vertex 0.008816 0.000166 0.150000
endloop
endfacet
facet normal -0.000639 0.000000 1.000000
outer loop
vertex 0.002680 0.004596 0.150000
vertex 0.002731 0.004529 0.150000
vertex 0.008816 0.000166 0.150000
endloop
endfacet
facet normal -0.000013 0.000000 1.000000
outer loop
vertex 0.008816 0.000166 0.150000
vertex 0.009310 0.003107 0.150000
vertex 0.008804 0.004563 0.150000
endloop
endfacet
facet normal 0.026231 0.000000 0.999656
outer loop
vertex 0.008804 0.004563 0.150000
vertex 0.008732 0.004769 0.150000
vertex 0.008682 0.004911 0.150000
endloop
endfacet
facet normal 0.000000 0.000000 1.000000
outer loop
vertex 0.008682 0.004911 0.150000
vertex 0.008658 0.004974 0.150000
vertex 0.007003 0.007286 0.150000
endloop
endfacet
facet normal -0.000013 0.000000 1.000000
outer loop
vertex 0.007003 0.007286 0.150000
vertex 0.004359 0.009568 0.150000
vertex 0.003648 0.009754 0.150000
endloop
endfacet
facet normal 0.005155 0.000000 0.999987
outer loop
vertex 0.003648 0.009754 0.150000
vertex 0.003512 0.009787 0.150000
vertex 0.003390 0.009816 0.150000
endloop
endfacet
facet normal 0.001646 0.000000 0.999999
outer loop
vertex 0.003390 0.009816 0.150000
vertex 0.003289 0.009838 0.150000
vertex 0.003218 0.009851 0.150000
endloop
endfacet
facet normal 0.000000 0.000000 1.000000
outer loop
vertex 0.003218 0.009851 0.150000
vertex 0.003183 0.009852 0.150000
vertex 0.003160 0.009842 0.150000
endloop
endfacet
facet normal 0.010781 0.000000 0.999942
outer loop
vertex 0.003160 0.009842 0.150000
vertex 0.003119 0.009822 0.150000
vertex 0.002563 0.009538 0.150000
endloop
endfacet
facet normal 0.001260 0.000000 0.999999
outer loop
vertex 0.002563 0.009538 0.150000
vertex 0.001656 0.009110 0.150000
vertex 0.001509 0.009035 0.150000
endloop
endfacet
facet normal 0.000000 0.000000 1.000000
outer loop
vertex 0.001509 0.009035 0.150000
vertex 0.001378 0.008964 0.150000
vertex 0.001269 0.008900 0.150000
endloop
endfacet
facet normal -0.001095 0.000000 0.999999
outer loop
vertex 0.001133 0.008803 0.150000
vertex 0.000953 0.008687 0.150000
vertex 0.000913 0.008658 0.150000
endloop
endfacet
facet normal 0.000389 0.000000 1.000000
outer loop
vertex 0.001509 0.009035 0.150000
vertex 0.001269 0.008900 0.150000
vertex 0.001133 0.008803 0.150000
endloop
endfacet
facet normal 0.000000 0.000000 1.000000
outer loop
vertex 0.003218 0.009851 0.150000
vertex 0.003160 0.009842 0.150000
vertex 0.002563 0.009538 0.150000
endloop
endfacet
facet normal -0.000133 0.000000 1.000000
outer loop
vertex 0.002563 0.009538 0.150000
vertex 0.001509 0.009035 0.150000
vertex 0.001133 0.008803 0.150000
endloop
endfacet
facet normal 0.001285 0.000000 0.999999
outer loop
vertex 0.001133 0.008803 0.150000
vertex 0.000913 0.008658 0.150000
vertex 0.000873 0.008621 0.150000
endloop
endfacet
facet normal 0.000000 0.000000 1.000000
outer loop
vertex 0.000873 0.008621 0.150000
vertex 0.000831 0.008576 0.150000
vertex 0.000736 0.008446 0.150000
endloop
endfacet
facet normal 0.000000 0.000000 1.000000
outer loop
vertex 0.000736 0.008446 0.150000
vertex 0.000680 0.008355 0.150000
vertex 0.000328 0.007747 0.150000
endloop
endfacet
facet normal 0.000000 0.000000 1.000000
outer loop
vertex 0.000328 0.007747 0.150000
vertex 0.000284 0.007665 0.150000
vertex 0.000243 0.007585 0.150000
endloop
endfacet
facet normal 0.004882 0.000000 0.999988
outer loop
vertex 0.000243 0.007585 0.150000
vertex 0.000206 0.007505 0.150000
vertex 0.000173 0.007423 0.150000
endloop
endfacet
facet normal 0.000000 0.000000 1.000000
outer loop
vertex 0.000173 0.007423 0.150000
vertex 0.000143 0.007338 0.150000
vertex 0.000118 0.007247 0.150000
endloop
endfacet
facet normal -0.000799 0.000000 1.000000
outer loop
vertex 0.000118 0.007247 0.150000
vertex 0.000006 0.006575 0.150000
vertex 0.000000 0.006414 0.150000
endloop
endfacet
facet normal 0.001649 0.000000 0.999999
outer loop
vertex 0.000000 0.006414 0.150000
vertex 0.000010 0.006275 0.150000
vertex 0.000023 0.006216 0.150000
endloop
endfacet
facet normal -0.002020 0.000000 0.999998
outer loop
vertex 0.000023 0.006216 0.150000
vertex 0.000041 0.006164 0.150000
vertex 0.000075 0.006115 0.150000
endloop
endfacet
facet normal 0.000000 0.000000 1.000000
outer loop
vertex 0.000075 0.006115 0.150000
vertex 0.000133 0.006065 0.150000
vertex 0.000304 0.005962 0.150000
endloop
endfacet
facet normal -0.001914 0.000000 0.999998
outer loop
vertex 0.000304 0.005962 0.150000
vertex 0.000408 0.005911 0.150000
vertex 0.000518 0.005863 0.150000
endloop
endfacet
facet normal -0.004113 0.000000 0.999992
outer loop
vertex 0.000518 0.005863 0.150000
vertex 0.000629 0.005816 0.150000
vertex 0.000737 0.005773 0.150000
endloop
endfacet
facet normal 0.002128 0.000000 0.999998
outer loop
vertex 0.000518 0.005863 0.150000
vertex 0.000737 0.005773 0.150000
vertex 0.000926 0.005700 0.150000
endloop
endfacet
facet normal 0.000000 0.000000 1.000000
outer loop
vertex 0.000075 0.006115 0.150000
vertex 0.000304 0.005962 0.150000
vertex 0.000518 0.005863 0.150000
endloop
endfacet
facet normal -0.000229 0.000000 1.000000
outer loop
vertex 0.000000 0.006414 0.150000
vertex 0.000023 0.006216 0.150000
vertex 0.000075 0.006115 0.150000
endloop
endfacet
facet normal 0.000000 0.000000 1.000000
outer loop
vertex 0.000173 0.007423 0.150000
vertex 0.000118 0.007247 0.150000
vertex 0.000000 0.006414 0.150000
endloop
endfacet
facet normal 0.001432 0.000000 0.999999
outer loop
vertex 0.000328 0.007747 0.150000
vertex 0.000243 0.007585 0.150000
vertex 0.000173 0.007423 0.150000
endloop
endfacet
facet normal 0.000000 0.000000 1.000000
outer loop
vertex 0.000873 0.008621 0.150000
vertex 0.000736 0.008446 0.150000
vertex 0.000328 0.007747 0.150000
endloop
endfacet
facet normal 0.000105 0.000000 1.000000
outer loop
vertex 0.002563 0.009538 0.150000
vertex 0.001133 0.008803 0.150000
vertex 0.000873 0.008621 0.150000
endloop
endfacet
facet normal 0.000000 0.000000 1.000000
outer loop
vertex 0.003390 0.009816 0.150000
vertex 0.003218 0.009851 0.150000
vertex 0.002563 0.009538 0.150000
endloop
endfacet
facet normal 0.000059 0.000000 1.000000
outer loop
vertex 0.007003 0.007286 0.150000
vertex 0.003648 0.009754 0.150000
vertex 0.003390 0.009816 0.150000
endloop
endfacet
facet normal 0.000000 0.000000 1.000000
outer loop
vertex 0.008804 0.004563 0.150000
vertex 0.008682 0.004911 0.150000
vertex 0.007003 0.007286 0.150000
endloop
endfacet
facet normal 0.000004 0.000000 1.000000
outer loop
vertex 0.002680 0.004596 0.150000
vertex 0.008816 0.000166 0.150000
vertex 0.008804 0.004563 0.150000
endloop
endfacet
facet normal -0.000003 0.000000 1.000000
outer loop
vertex 0.002371 0.004978 0.150000
vertex 0.002680 0.004596 0.150000
vertex 0.008804 0.004563 0.150000
endloop
endfacet
facet normal -0.000011 0.000000 1.000000
outer loop
vertex 0.008804 0.004563 0.150000
vertex 0.007003 0.007286 0.150000
vertex 0.003390 0.009816 0.150000
endloop
endfacet
facet normal -0.000101 0.000000 1.000000
outer loop
vertex 0.003390 0.009816 0.150000
vertex 0.002563 0.009538 0.150000
vertex 0.000873 0.008621 0.150000
endloop
endfacet
facet normal -0.000181 0.000000 1.000000
outer loop
vertex 0.000873 0.008621 0.150000
vertex 0.000328 0.007747 0.150000
vertex 0.000173 0.007423 0.150000
endloop
endfacet
facet normal 0.000000 0.000000 1.000000
outer loop
vertex 0.000173 0.007423 0.150000
vertex 0.000000 0.006414 0.150000
vertex 0.000075 0.006115 0.150000
endloop
endfacet
facet normal 0.000235 0.000000 1.000000
outer loop
vertex 0.000075 0.006115 0.150000
vertex 0.000518 0.005863 0.150000
vertex 0.000926 0.005700 0.150000
endloop
endfacet
facet normal -0.001315 0.000000 0.999999
outer loop
vertex 0.000075 0.006115 0.150000
vertex 0.000926 0.005700 0.150000
vertex 0.000997 0.005672 0.150000
endloop
endfacet
facet normal 0.000000 0.000000 1.000000
outer loop
vertex 0.000873 0.008621 0.150000
vertex 0.000173 0.007423 0.150000
vertex 0.000075 0.006115 0.150000
endloop
endfacet
facet normal 0.000000 0.000000 1.000000
outer loop
vertex 0.008804 0.004563 0.150000
vertex 0.003390 0.009816 0.150000
vertex 0.000873 0.008621 0.150000
endloop
endfacet
facet normal 0.000000 0.000000 1.000000
outer loop
vertex 0.002298 0.005064 0.150000
vertex 0.002371 0.004978 0.150000
vertex 0.008804 0.004563 0.150000
endloop
endfacet
facet normal 0.000000 0.000000 1.000000
outer loop
vertex 0.002227 0.005133 0.150000
vertex 0.002298 0.005064 0.150000
vertex 0.008804 0.004563 0.150000
endloop
endfacet
facet normal 0.000003 0.000000 1.000000
outer loop
vertex 0.008804 0.004563 0.150000
vertex 0.000873 0.008621 0.150000
vertex 0.000075 0.006115 0.150000
endloop
endfacet
facet normal -0.000431 0.000000 1.000000
outer loop
vertex 0.000075 0.006115 0.150000
vertex 0.000997 0.005672 0.150000
vertex 0.001047 0.005650 0.150000
endloop
endfacet
facet normal 0.000000 0.000000 1.000000
outer loop
vertex 0.001047 0.005650 0.150000
vertex 0.001089 0.005631 0.150000
vertex 0.001136 0.005612 0.150000
endloop
endfacet
facet normal 0.000000 0.000000 1.000000
outer loop
vertex 0.001136 0.005612 0.150000
vertex 0.001189 0.005593 0.150000
vertex 0.001245 0.005573 0.150000
endloop
endfacet
facet normal -0.005751 0.000000 0.999983
outer loop
vertex 0.001136 0.005612 0.150000
vertex 0.001245 0.005573 0.150000
vertex 0.001305 0.005552 0.150000
endloop
endfacet
facet normal -0.000906 0.000000 1.000000
outer loop
vertex 0.000075 0.006115 0.150000
vertex 0.001047 0.005650 0.150000
vertex 0.001136 0.005612 0.150000
endloop
endfacet
facet normal 0.000000 0.000000 1.000000
outer loop
vertex 0.002160 0.005188 0.150000
vertex 0.002227 0.005133 0.150000
vertex 0.008804 0.004563 0.150000
endloop
endfacet
facet normal -0.000061 0.000000 1.000000
outer loop
vertex 0.002097 0.005230 0.150000
vertex 0.002160 0.005188 0.150000
vertex 0.008804 0.004563 0.150000
endloop
endfacet
facet normal 0.000000 0.000000 1.000000
outer loop
vertex 0.008804 0.004563 0.150000
vertex 0.000075 0.006115 0.150000
vertex 0.001136 0.005612 0.150000
endloop
endfacet
facet normal 0.026393 0.000000 0.999652
outer loop
vertex 0.001136 0.005612 0.150000
vertex 0.001305 0.005552 0.150000
vertex 0.001365 0.005530 0.150000
endloop
endfacet
facet normal 0.000019 0.000000 1.000000
outer loop
vertex 0.008804 0.004563 0.150000
vertex 0.001136 0.005612 0.150000
vertex 0.001365 0.005530 0.150000
endloop
endfacet
facet normal 0.000085 0.000000 1.000000
outer loop
vertex 0.002036 0.005262 0.150000
vertex 0.002097 0.005230 0.150000
vertex 0.008804 0.004563 0.150000
endloop
endfacet
facet normal -0.001945 0.000000 0.999998
outer loop
vertex 0.001732 0.005362 0.150000
vertex 0.001776 0.005345 0.150000
vertex 0.001978 0.005285 0.150000
endloop
endfacet
facet normal 0.000000 0.000000 1.000000
outer loop
vertex 0.001978 0.005285 0.150000
vertex 0.002036 0.005262 0.150000
vertex 0.008804 0.004563 0.150000
endloop
endfacet
facet normal -0.000009 0.000000 1.000000
outer loop
vertex 0.008804 0.004563 0.150000
vertex 0.001365 0.005530 0.150000
vertex 0.001426 0.005508 0.150000
endloop
endfacet
facet normal 0.000040 0.000000 1.000000
outer loop
vertex 0.008804 0.004563 0.150000
vertex 0.001426 0.005508 0.150000
vertex 0.001486 0.005485 0.150000
endloop
endfacet
facet normal -0.000042 0.000000 1.000000
outer loop
vertex 0.001732 0.005362 0.150000
vertex 0.001978 0.005285 0.150000
vertex 0.008804 0.004563 0.150000
endloop
endfacet
facet normal 0.000000 0.000000 1.000000
outer loop
vertex 0.001597 0.005437 0.150000
vertex 0.001732 0.005362 0.150000
vertex 0.008804 0.004563 0.150000
endloop
endfacet
facet normal -0.000008 0.000000 1.000000
outer loop
vertex 0.008804 0.004563 0.150000
vertex 0.001486 0.005485 0.150000
vertex 0.001543 0.005462 0.150000
endloop
endfacet
facet normal -0.000011 0.000000 1.000000
outer loop
vertex 0.008804 0.004563 0.150000
vertex 0.001543 0.005462 0.150000
vertex 0.001597 0.005437 0.150000
endloop
endfacet
facet normal -0.549288 -0.835633 0.000000
outer loop
vertex 0.002097 0.005230 0.150000
vertex 0.002097 0.005230 0.000000
vertex 0.002160 0.005188 0.000000
endloop
endfacet
facet normal -0.549293 -0.835630 0.000000
outer loop
vertex 0.002097 0.005230 0.150000
vertex 0.002160 0.005188 0.000000
vertex 0.002160 0.005188 0.150000
endloop
endfacet
facet normal -0.734703 0.678389 0.000000
outer loop
vertex 0.000873 0.008621 0.150000
vertex 0.000873 0.008621 0.000000
vertex 0.000831 0.008576 0.000000
endloop
endfacet
facet normal -0.734705 0.678387 0.000000
outer loop
vertex 0.000873 0.008621 0.150000
vertex 0.000831 0.008576 0.000000
vertex 0.000831 0.008576 0.150000
endloop
endfacet
facet normal -0.671441 0.741058 0.000000
outer loop
vertex 0.000913 0.008658 0.150000
vertex 0.000913 0.008658 0.000000
vertex 0.000873 0.008621 0.000000
endloop
endfacet
facet normal -0.671441 0.741058 0.000000
outer loop
vertex 0.000913 0.008658 0.150000
vertex 0.000873 0.008621 0.000000
vertex 0.000873 0.008621 0.150000
endloop
endfacet
facet normal -0.395940 -0.918276 0.000000
outer loop
vertex 0.004875 0.000710 0.150000
vertex 0.004875 0.000710 0.000000
vertex 0.004954 0.000676 0.000000
endloop
endfacet
facet normal -0.395940 -0.918276 0.000000
outer loop
vertex 0.004875 0.000710 0.150000
vertex 0.004954 0.000676 0.000000
vertex 0.004954 0.000676 0.150000
endloop
endfacet
facet normal 0.961818 0.273690 0.000000
outer loop
vertex 0.009640 0.002147 0.000000
vertex 0.009622 0.002211 0.000000
vertex 0.009622 0.002211 0.150000
endloop
endfacet
facet normal 0.961818 0.273690 0.000000
outer loop
vertex 0.009640 0.002147 0.000000
vertex 0.009622 0.002211 0.150000
vertex 0.009640 0.002147 0.150000
endloop
endfacet
facet normal 0.978783 0.204901 0.000000
outer loop
vertex 0.009684 0.001951 0.150000
vertex 0.009684 0.001951 0.000000
vertex 0.009657 0.002082 0.000000
endloop
endfacet
facet normal 0.969351 0.245679 0.000000
outer loop
vertex 0.009657 0.002082 0.000000
vertex 0.009640 0.002147 0.000000
vertex 0.009640 0.002147 0.150000
endloop
endfacet
facet normal 0.978785 0.204890 0.000000
outer loop
vertex 0.009657 0.002082 0.150000
vertex 0.009684 0.001951 0.150000
vertex 0.009657 0.002082 0.000000
endloop
endfacet
facet normal 0.969357 0.245657 0.000000
outer loop
vertex 0.009640 0.002147 0.150000
vertex 0.009657 0.002082 0.150000
vertex 0.009657 0.002082 0.000000
endloop
endfacet
facet normal -0.702626 -0.711560 0.000000
outer loop
vertex 0.002227 0.005133 0.150000
vertex 0.002227 0.005133 0.000000
vertex 0.002298 0.005064 0.000000
endloop
endfacet
facet normal -0.702626 -0.711560 0.000000
outer loop
vertex 0.002227 0.005133 0.150000
vertex 0.002298 0.005064 0.000000
vertex 0.002298 0.005064 0.150000
endloop
endfacet
facet normal 0.000000 0.000000 -1.000000
outer loop
vertex 0.003119 0.009822 0.000000
vertex 0.002563 0.009538 0.000000
vertex 0.001656 0.009110 0.000000
endloop
endfacet
facet normal -0.476931 0.878941 0.000000
outer loop
vertex 0.001509 0.009035 0.000000
vertex 0.001378 0.008964 0.000000
vertex 0.001378 0.008964 0.150000
endloop
endfacet
facet normal -0.457598 0.889159 0.000022
outer loop
vertex 0.001656 0.009110 0.000000
vertex 0.001509 0.009035 0.000000
vertex 0.001378 0.008964 0.150000
endloop
endfacet
facet normal -0.476931 0.878941 -0.000024
outer loop
vertex 0.001656 0.009110 0.000000
vertex 0.001378 0.008964 0.150000
vertex 0.001509 0.009035 0.150000
endloop
endfacet
facet normal -0.437531 0.899204 0.000025
outer loop
vertex 0.003119 0.009822 0.000000
vertex 0.001656 0.009110 0.000000
vertex 0.001509 0.009035 0.150000
endloop
endfacet
facet normal -0.457598 0.889159 -0.000243
outer loop
vertex 0.003119 0.009822 0.000000
vertex 0.001509 0.009035 0.150000
vertex 0.001656 0.009110 0.150000
endloop
endfacet
facet normal -0.402787 0.915294 0.000000
outer loop
vertex 0.003183 0.009852 0.150000
vertex 0.003183 0.009852 0.000000
vertex 0.003160 0.009842 0.000000
endloop
endfacet
facet normal -0.434178 0.900827 0.000040
outer loop
vertex 0.003160 0.009842 0.000000
vertex 0.003119 0.009822 0.000000
vertex 0.001656 0.009110 0.150000
endloop
endfacet
facet normal -0.426325 0.904570 0.000137
outer loop
vertex 0.003160 0.009842 0.000000
vertex 0.001656 0.009110 0.150000
vertex 0.002563 0.009538 0.150000
endloop
endfacet
facet normal -0.402782 0.915296 0.000000
outer loop
vertex 0.003160 0.009842 0.150000
vertex 0.003183 0.009852 0.150000
vertex 0.003160 0.009842 0.000000
endloop
endfacet
facet normal -0.455377 0.890299 -0.000007
outer loop
vertex 0.003160 0.009842 0.000000
vertex 0.002563 0.009538 0.150000
vertex 0.003119 0.009822 0.150000
endloop
endfacet
facet normal -0.434174 0.900829 0.000000
outer loop
vertex 0.003119 0.009822 0.150000
vertex 0.003160 0.009842 0.150000
vertex 0.003160 0.009842 0.000000
endloop
endfacet
facet normal -0.486287 -0.873799 0.000000
outer loop
vertex 0.001597 0.005437 0.000000
vertex 0.001732 0.005362 0.000000
vertex 0.001732 0.005362 0.150000
endloop
endfacet
facet normal -0.486287 -0.873799 0.000000
outer loop
vertex 0.001597 0.005437 0.000000
vertex 0.001732 0.005362 0.150000
vertex 0.001597 0.005437 0.150000
endloop
endfacet
facet normal 0.043123 0.999070 0.000000
outer loop
vertex 0.003218 0.009851 0.150000
vertex 0.003218 0.009851 0.000000
vertex 0.003183 0.009852 0.000000
endloop
endfacet
facet normal 0.043123 0.999070 0.000000
outer loop
vertex 0.003218 0.009851 0.150000
vertex 0.003183 0.009852 0.000000
vertex 0.003183 0.009852 0.150000
endloop
endfacet
facet normal -0.371184 -0.928559 0.000000
outer loop
vertex 0.001732 0.005362 0.150000
vertex 0.001732 0.005362 0.000000
vertex 0.001776 0.005345 0.000000
endloop
endfacet
facet normal -0.371184 -0.928559 0.000000
outer loop
vertex 0.001732 0.005362 0.150000
vertex 0.001776 0.005345 0.000000
vertex 0.001776 0.005345 0.150000
endloop
endfacet
facet normal -0.962088 0.272740 0.000000
outer loop
vertex 0.000143 0.007338 0.000000
vertex 0.000118 0.007247 0.000000
vertex 0.000118 0.007247 0.150000
endloop
endfacet
facet normal -0.962088 0.272739 0.000000
outer loop
vertex 0.000143 0.007338 0.000000
vertex 0.000118 0.007247 0.150000
vertex 0.000143 0.007338 0.150000
endloop
endfacet
facet normal -0.927031 0.374985 0.000000
outer loop
vertex 0.000206 0.007505 0.150000
vertex 0.000206 0.007505 0.000000
vertex 0.000173 0.007423 0.000000
endloop
endfacet
facet normal -0.945665 0.325143 0.000000
outer loop
vertex 0.000173 0.007423 0.000000
vertex 0.000143 0.007338 0.000000
vertex 0.000143 0.007338 0.150000
endloop
endfacet
facet normal -0.927031 0.374985 0.000000
outer loop
vertex 0.000173 0.007423 0.150000
vertex 0.000206 0.007505 0.150000
vertex 0.000173 0.007423 0.000000
endloop
endfacet
facet normal -0.945665 0.325143 0.000000
outer loop
vertex 0.000173 0.007423 0.000000
vertex 0.000143 0.007338 0.150000
vertex 0.000173 0.007423 0.150000
endloop
endfacet
facet normal -0.978697 -0.205310 0.000000
outer loop
vertex 0.000010 0.006275 0.150000
vertex 0.000010 0.006275 0.000000
vertex 0.000023 0.006216 0.000000
endloop
endfacet
facet normal -0.978697 -0.205310 0.000000
outer loop
vertex 0.000010 0.006275 0.150000
vertex 0.000023 0.006216 0.000000
vertex 0.000023 0.006216 0.150000
endloop
endfacet
facet normal 0.813238 0.581931 0.000000
outer loop
vertex 0.008658 0.004974 0.000000
vertex 0.007003 0.007286 0.000000
vertex 0.007003 0.007286 0.150000
endloop
endfacet
facet normal 0.813238 0.581931 0.000000
outer loop
vertex 0.008658 0.004974 0.000000
vertex 0.007003 0.007286 0.150000
vertex 0.008658 0.004974 0.150000
endloop
endfacet
facet normal -0.802873 -0.596150 0.000000
outer loop
vertex 0.003148 0.003800 0.150000
vertex 0.003148 0.003800 0.000000
vertex 0.003406 0.003453 0.000000
endloop
endfacet
facet normal -0.802873 -0.596150 0.000000
outer loop
vertex 0.003148 0.003800 0.150000
vertex 0.003406 0.003453 0.000000
vertex 0.003406 0.003453 0.150000
endloop
endfacet
facet normal -0.997191 -0.074903 0.000000
outer loop
vertex 0.000000 0.006414 0.150000
vertex 0.000000 0.006414 0.000000
vertex 0.000010 0.006275 0.000000
endloop
endfacet
facet normal -0.997191 -0.074903 0.000000
outer loop
vertex 0.000000 0.006414 0.150000
vertex 0.000010 0.006275 0.000000
vertex 0.000010 0.006275 0.150000
endloop
endfacet
facet normal -0.946032 -0.324073 0.000000
outer loop
vertex 0.000023 0.006216 0.150000
vertex 0.000023 0.006216 0.000000
vertex 0.000041 0.006164 0.000000
endloop
endfacet
facet normal -0.946032 -0.324073 0.000000
outer loop
vertex 0.000023 0.006216 0.150000
vertex 0.000041 0.006164 0.000000
vertex 0.000041 0.006164 0.150000
endloop
endfacet
facet normal -0.378763 -0.925494 0.000000
outer loop
vertex 0.001978 0.005285 0.150000
vertex 0.001978 0.005285 0.000000
vertex 0.002036 0.005262 0.000000
endloop
endfacet
facet normal -0.378761 -0.925494 0.000000
outer loop
vertex 0.001978 0.005285 0.150000
vertex 0.002036 0.005262 0.000000
vertex 0.002036 0.005262 0.150000
endloop
endfacet
facet normal 0.000000 0.000000 1.000000
outer loop
vertex 0.000629 0.005816 0.000000
vertex 0.000737 0.005773 0.000000
vertex 0.000926 0.005700 0.000000
endloop
endfacet
facet normal 0.000000 0.000000 1.000000
outer loop
vertex 0.000518 0.005863 0.000000
vertex 0.000629 0.005816 0.000000
vertex 0.000926 0.005700 0.000000
endloop
endfacet
facet normal 0.000000 0.000000 1.000000
outer loop
vertex 0.000304 0.005962 0.000000
vertex 0.000408 0.005911 0.000000
vertex 0.000518 0.005863 0.000000
endloop
endfacet
facet normal -0.438036 -0.898957 0.000000
outer loop
vertex 0.000408 0.005911 0.150000
vertex 0.000304 0.005962 0.150000
vertex 0.000304 0.005962 0.000000
endloop
endfacet
facet normal -0.406992 -0.913432 -0.000026
outer loop
vertex 0.000518 0.005863 0.150000
vertex 0.000408 0.005911 0.150000
vertex 0.000304 0.005962 0.000000
endloop
endfacet
facet normal 0.000000 0.000000 1.000000
outer loop
vertex 0.000304 0.005962 0.000000
vertex 0.000518 0.005863 0.000000
vertex 0.000926 0.005700 0.000000
endloop
endfacet
facet normal 0.000000 0.000000 1.000000
outer loop
vertex 0.000304 0.005962 0.000000
vertex 0.000926 0.005700 0.000000
vertex 0.000997 0.005672 0.000000
endloop
endfacet
facet normal -0.385314 -0.922786 -0.000063
outer loop
vertex 0.000629 0.005816 0.150000
vertex 0.000518 0.005863 0.150000
vertex 0.000304 0.005962 0.000000
endloop
endfacet
facet normal -0.370707 -0.928750 -0.000101
outer loop
vertex 0.000737 0.005773 0.150000
vertex 0.000629 0.005816 0.150000
vertex 0.000304 0.005962 0.000000
endloop
endfacet
facet normal -0.386739 -0.922189 -0.000046
outer loop
vertex 0.000737 0.005773 0.150000
vertex 0.000304 0.005962 0.000000
vertex 0.000997 0.005672 0.000000
endloop
endfacet
facet normal -0.361573 -0.932344 0.000004
outer loop
vertex 0.000926 0.005700 0.150000
vertex 0.000737 0.005773 0.150000
vertex 0.000997 0.005672 0.000000
endloop
endfacet
facet normal 0.000000 0.000000 1.000000
outer loop
vertex 0.001047 0.005650 0.000000
vertex 0.001089 0.005631 0.000000
vertex 0.001136 0.005612 0.000000
endloop
endfacet
facet normal -0.399283 -0.916828 -0.000017
outer loop
vertex 0.000926 0.005700 0.150000
vertex 0.000997 0.005672 0.000000
vertex 0.001047 0.005650 0.000000
endloop
endfacet
facet normal -0.369165 -0.929364 0.000012
outer loop
vertex 0.000997 0.005672 0.150000
vertex 0.000926 0.005700 0.150000
vertex 0.001047 0.005650 0.000000
endloop
endfacet
facet normal 0.000000 0.000000 1.000000
outer loop
vertex 0.001047 0.005650 0.000000
vertex 0.001136 0.005612 0.000000
vertex 0.001189 0.005593 0.000000
endloop
endfacet
facet normal 0.000000 0.000000 1.000000
outer loop
vertex 0.001189 0.005593 0.000000
vertex 0.001245 0.005573 0.000000
vertex 0.001305 0.005552 0.000000
endloop
endfacet
facet normal 0.000000 0.000000 1.000000
outer loop
vertex 0.001047 0.005650 0.000000
vertex 0.001189 0.005593 0.000000
vertex 0.001305 0.005552 0.000000
endloop
endfacet
facet normal -0.399284 -0.916827 0.000000
outer loop
vertex 0.001047 0.005650 0.150000
vertex 0.000997 0.005672 0.150000
vertex 0.001047 0.005650 0.000000
endloop
endfacet
facet normal -0.407769 -0.913085 0.000000
outer loop
vertex 0.001089 0.005631 0.150000
vertex 0.001047 0.005650 0.150000
vertex 0.001047 0.005650 0.000000
endloop
endfacet
facet normal 0.000000 0.000000 1.000000
outer loop
vertex 0.001047 0.005650 0.000000
vertex 0.001305 0.005552 0.000000
vertex 0.001365 0.005530 0.000000
endloop
endfacet
facet normal 0.000000 0.000000 1.000000
outer loop
vertex 0.001047 0.005650 0.000000
vertex 0.001365 0.005530 0.000000
vertex 0.001426 0.005508 0.000000
endloop
endfacet
facet normal -0.370308 -0.928909 -0.000012
outer loop
vertex 0.001136 0.005612 0.150000
vertex 0.001089 0.005631 0.150000
vertex 0.001047 0.005650 0.000000
endloop
endfacet
facet normal -0.347758 -0.937584 -0.000028
outer loop
vertex 0.001189 0.005593 0.150000
vertex 0.001136 0.005612 0.150000
vertex 0.001047 0.005650 0.000000
endloop
endfacet
facet normal -0.349982 -0.936757 -0.000025
outer loop
vertex 0.001189 0.005593 0.150000
vertex 0.001047 0.005650 0.000000
vertex 0.001426 0.005508 0.000000
endloop
endfacet
facet normal -0.335542 -0.942025 0.000000
outer loop
vertex 0.001245 0.005573 0.150000
vertex 0.001189 0.005593 0.150000
vertex 0.001426 0.005508 0.000000
endloop
endfacet
facet normal -0.357765 -0.933812 -0.000030
outer loop
vertex 0.001245 0.005573 0.150000
vertex 0.001426 0.005508 0.000000
vertex 0.001486 0.005485 0.000000
endloop
endfacet
facet normal -0.331237 -0.943548 0.000018
outer loop
vertex 0.001305 0.005552 0.150000
vertex 0.001245 0.005573 0.150000
vertex 0.001486 0.005485 0.000000
endloop
endfacet
facet normal -0.412690 -0.910872 0.000000
outer loop
vertex 0.001543 0.005462 0.000000
vertex 0.001597 0.005437 0.000000
vertex 0.001597 0.005437 0.150000
endloop
endfacet
facet normal -0.380636 -0.924725 -0.000050
outer loop
vertex 0.001305 0.005552 0.150000
vertex 0.001486 0.005485 0.000000
vertex 0.001543 0.005462 0.000000
endloop
endfacet
facet normal -0.333645 -0.942699 0.000036
outer loop
vertex 0.001365 0.005530 0.150000
vertex 0.001305 0.005552 0.150000
vertex 0.001543 0.005462 0.000000
endloop
endfacet
facet normal -0.412691 -0.910871 0.000000
outer loop
vertex 0.001543 0.005462 0.000000
vertex 0.001597 0.005437 0.150000
vertex 0.001543 0.005462 0.150000
endloop
endfacet
facet normal -0.380636 -0.924725 0.000000
outer loop
vertex 0.001543 0.005462 0.000000
vertex 0.001543 0.005462 0.150000
vertex 0.001486 0.005485 0.150000
endloop
endfacet
facet normal -0.342399 -0.939555 0.000024
outer loop
vertex 0.001426 0.005508 0.150000
vertex 0.001365 0.005530 0.150000
vertex 0.001543 0.005462 0.000000
endloop
endfacet
facet normal -0.357764 -0.933812 0.000010
outer loop
vertex 0.001543 0.005462 0.000000
vertex 0.001486 0.005485 0.150000
vertex 0.001426 0.005508 0.150000
endloop
endfacet
facet normal 0.593827 -0.804593 0.000000
outer loop
vertex 0.009136 0.000363 0.150000
vertex 0.009136 0.000363 0.000000
vertex 0.009331 0.000507 0.000000
endloop
endfacet
facet normal 0.593830 -0.804591 0.000000
outer loop
vertex 0.009136 0.000363 0.150000
vertex 0.009331 0.000507 0.000000
vertex 0.009331 0.000507 0.150000
endloop
endfacet
facet normal -0.631234 -0.775592 0.000000
outer loop
vertex 0.002160 0.005188 0.150000
vertex 0.002160 0.005188 0.000000
vertex 0.002227 0.005133 0.000000
endloop
endfacet
facet normal -0.631230 -0.775596 0.000000
outer loop
vertex 0.002160 0.005188 0.150000
vertex 0.002227 0.005133 0.000000
vertex 0.002227 0.005133 0.150000
endloop
endfacet
facet normal 0.986517 0.163658 0.000000
outer loop
vertex 0.009695 0.001886 0.000000
vertex 0.009684 0.001951 0.000000
vertex 0.009684 0.001951 0.150000
endloop
endfacet
facet normal 0.986517 0.163658 0.000000
outer loop
vertex 0.009695 0.001886 0.000000
vertex 0.009684 0.001951 0.150000
vertex 0.009695 0.001886 0.150000
endloop
endfacet
facet normal 0.990861 0.134887 0.000000
outer loop
vertex 0.009703 0.001823 0.000000
vertex 0.009695 0.001886 0.000000
vertex 0.009695 0.001886 0.150000
endloop
endfacet
facet normal 0.990861 0.134887 0.000000
outer loop
vertex 0.009703 0.001823 0.000000
vertex 0.009695 0.001886 0.150000
vertex 0.009703 0.001823 0.150000
endloop
endfacet
facet normal 0.997502 0.070642 0.000000
outer loop
vertex 0.009714 0.001702 0.150000
vertex 0.009714 0.001702 0.000000
vertex 0.009710 0.001761 0.000000
endloop
endfacet
facet normal 0.994559 0.104179 0.000000
outer loop
vertex 0.009710 0.001761 0.000000
vertex 0.009703 0.001823 0.000000
vertex 0.009703 0.001823 0.150000
endloop
endfacet
facet normal 0.997502 0.070642 0.000000
outer loop
vertex 0.009710 0.001761 0.150000
vertex 0.009714 0.001702 0.150000
vertex 0.009710 0.001761 0.000000
endloop
endfacet
facet normal 0.994553 0.104228 0.000000
outer loop
vertex 0.009710 0.001761 0.000000
vertex 0.009703 0.001823 0.150000
vertex 0.009710 0.001761 0.150000
endloop
endfacet
facet normal -0.282600 -0.959238 0.000000
outer loop
vertex 0.001776 0.005345 0.000000
vertex 0.001978 0.005285 0.000000
vertex 0.001978 0.005285 0.150000
endloop
endfacet
facet normal -0.282600 -0.959238 0.000000
outer loop
vertex 0.001776 0.005345 0.000000
vertex 0.001978 0.005285 0.150000
vertex 0.001776 0.005345 0.150000
endloop
endfacet
facet normal -0.462179 -0.886787 0.000000
outer loop
vertex 0.002036 0.005262 0.150000
vertex 0.002036 0.005262 0.000000
vertex 0.002097 0.005230 0.000000
endloop
endfacet
facet normal -0.462179 -0.886787 0.000000
outer loop
vertex 0.002036 0.005262 0.150000
vertex 0.002097 0.005230 0.000000
vertex 0.002097 0.005230 0.150000
endloop
endfacet
facet normal -0.654834 -0.755773 0.000000
outer loop
vertex 0.000075 0.006115 0.150000
vertex 0.000075 0.006115 0.000000
vertex 0.000133 0.006065 0.000000
endloop
endfacet
facet normal -0.654834 -0.755773 0.000000
outer loop
vertex 0.000075 0.006115 0.150000
vertex 0.000133 0.006065 0.000000
vertex 0.000133 0.006065 0.150000
endloop
endfacet
endsolid Exported from Blender-3.6.8
