solid Exported from Blender-3.6.8
facet normal 0.000000 0.000000 -1.000000
outer loop
vertex 0.007878 0.004363 0.000000
vertex 0.007847 0.004135 0.000000
vertex 0.007748 0.003681 0.000000
endloop
endfacet
facet normal 0.000000 0.000000 -1.000000
outer loop
vertex 0.007748 0.003681 0.000000
vertex 0.007683 0.003457 0.000000
vertex 0.007609 0.003238 0.000000
endloop
endfacet
facet normal 0.000000 0.000000 -1.000000
outer loop
vertex 0.007609 0.003238 0.000000
vertex 0.007442 0.002818 0.000000
vertex 0.007352 0.002620 0.000000
endloop
endfacet
facet normal 0.000000 0.000000 -1.000000
outer loop
vertex 0.007352 0.002620 0.000000
vertex 0.007260 0.002431 0.000000
vertex 0.007073 0.002088 0.000000
endloop
endfacet
facet normal 0.000000 0.000000 -1.000000
outer loop
vertex 0.007073 0.002088 0.000000
vertex 0.006843 0.001766 0.000000
vertex 0.006201 0.001137 0.000000
endloop
endfacet
facet normal 0.000000 0.000000 -1.000000
outer loop
vertex 0.006201 0.001137 0.000000
vertex 0.005275 0.000434 0.000000
vertex 0.005155 0.000361 0.000000
endloop
endfacet
facet normal 0.000000 0.000000 -1.000000
outer loop
vertex 0.005155 0.000361 0.000000
vertex 0.005014 0.000293 0.000000
vertex 0.004688 0.000176 0.000000
endloop
endfacet
facet normal 0.000000 0.000000 -1.000000
outer loop
vertex 0.004688 0.000176 0.000000
vertex 0.003968 0.000026 0.000000
vertex 0.003635 0.000001 0.000000
endloop
endfacet
facet normal 0.000000 0.000000 -1.000000
outer loop
vertex 0.003635 0.000001 0.000000
vertex 0.003362 0.000014 0.000000
vertex 0.003116 0.000067 0.000000
endloop
endfacet
facet normal 0.000000 0.000000 -1.000000
outer loop
vertex 0.003116 0.000067 0.000000
vertex 0.002843 0.000163 0.000000
vertex 0.002547 0.000304 0.000000
endloop
endfacet
facet normal 0.000000 0.000000 -1.000000
outer loop
vertex 0.002547 0.000304 0.000000
vertex 0.002229 0.000496 0.000000
vertex 0.002063 0.000611 0.000000
endloop
endfacet
facet normal 0.000000 0.000000 -1.000000
outer loop
vertex 0.002063 0.000611 0.000000
vertex 0.001891 0.000740 0.000000
vertex 0.001535 0.001042 0.000000
endloop
endfacet
facet normal 0.000000 0.000000 -1.000000
outer loop
vertex 0.001535 0.001042 0.000000
vertex 0.001227 0.001357 0.000000
vertex 0.001011 0.001648 0.000000
endloop
endfacet
facet normal 0.000000 0.000000 -1.000000
outer loop
vertex 0.001011 0.001648 0.000000
vertex 0.000930 0.001789 0.000000
vertex 0.000802 0.002072 0.000000
endloop
endfacet
facet normal 0.000000 0.000000 -1.000000
outer loop
vertex 0.000802 0.002072 0.000000
vertex 0.000461 0.003058 0.000000
vertex 0.000395 0.003273 0.000000
endloop
endfacet
facet normal 0.000000 0.000000 -1.000000
outer loop
vertex 0.000395 0.003273 0.000000
vertex 0.000331 0.003506 0.000000
vertex 0.000005 0.005375 0.000000
endloop
endfacet
facet normal 0.000000 0.000000 -1.000000
outer loop
vertex 0.000005 0.005375 0.000000
vertex 0.000000 0.005533 0.000000
vertex 0.000055 0.005694 0.000000
endloop
endfacet
facet normal 0.000000 0.000000 -1.000000
outer loop
vertex 0.000055 0.005694 0.000000
vertex 0.000205 0.005889 0.000000
vertex 0.000718 0.006345 0.000000
endloop
endfacet
facet normal 0.000000 0.000000 -1.000000
outer loop
vertex 0.000718 0.006345 0.000000
vertex 0.001042 0.006586 0.000000
vertex 0.001386 0.006825 0.000000
endloop
endfacet
facet normal 0.000000 0.000000 -1.000000
outer loop
vertex 0.001386 0.006825 0.000000
vertex 0.001729 0.007053 0.000000
vertex 0.002053 0.007259 0.000000
endloop
endfacet
facet normal 0.000000 0.000000 -1.000000
outer loop
vertex 0.002053 0.007259 0.000000
vertex 0.002338 0.007436 0.000000
vertex 0.002566 0.007573 0.000000
endloop
endfacet
facet normal 0.000000 0.000000 -1.000000
outer loop
vertex 0.002566 0.007573 0.000000
vertex 0.002717 0.007662 0.000000
vertex 0.002771 0.007694 0.000000
endloop
endfacet
facet normal 0.000000 0.000000 -1.000000
outer loop
vertex 0.002566 0.007573 0.000000
vertex 0.002771 0.007694 0.000000
vertex 0.004356 0.007456 0.000000
endloop
endfacet
facet normal 0.000000 0.000000 -1.000000
outer loop
vertex 0.001386 0.006825 0.000000
vertex 0.002053 0.007259 0.000000
vertex 0.002566 0.007573 0.000000
endloop
endfacet
facet normal 0.000000 0.000000 -1.000000
outer loop
vertex 0.000055 0.005694 0.000000
vertex 0.000718 0.006345 0.000000
vertex 0.001386 0.006825 0.000000
endloop
endfacet
facet normal 0.000000 0.000000 -1.000000
outer loop
vertex 0.000395 0.003273 0.000000
vertex 0.000005 0.005375 0.000000
vertex 0.000055 0.005694 0.000000
endloop
endfacet
facet normal 0.000000 0.000000 -1.000000
outer loop
vertex 0.001011 0.001648 0.000000
vertex 0.000802 0.002072 0.000000
vertex 0.000395 0.003273 0.000000
endloop
endfacet
facet normal 0.000000 0.000000 -1.000000
outer loop
vertex 0.002063 0.000611 0.000000
vertex 0.001535 0.001042 0.000000
vertex 0.001011 0.001648 0.000000
endloop
endfacet
facet normal 0.000000 0.000000 -1.000000
outer loop
vertex 0.003116 0.000067 0.000000
vertex 0.002547 0.000304 0.000000
vertex 0.002063 0.000611 0.000000
endloop
endfacet
facet normal 0.000000 0.000000 -1.000000
outer loop
vertex 0.004688 0.000176 0.000000
vertex 0.003635 0.000001 0.000000
vertex 0.003116 0.000067 0.000000
endloop
endfacet
facet normal 0.000000 0.000000 -1.000000
outer loop
vertex 0.006201 0.001137 0.000000
vertex 0.005155 0.000361 0.000000
vertex 0.004688 0.000176 0.000000
endloop
endfacet
facet normal 0.000000 0.000000 -1.000000
outer loop
vertex 0.007352 0.002620 0.000000
vertex 0.007073 0.002088 0.000000
vertex 0.006201 0.001137 0.000000
endloop
endfacet
facet normal 0.000000 0.000000 -1.000000
outer loop
vertex 0.007748 0.003681 0.000000
vertex 0.007609 0.003238 0.000000
vertex 0.007352 0.002620 0.000000
endloop
endfacet
facet normal 0.000000 0.000000 -1.000000
outer loop
vertex 0.007894 0.004591 0.000000
vertex 0.007878 0.004363 0.000000
vertex 0.007748 0.003681 0.000000
endloop
endfacet
facet normal 0.000000 0.000000 -1.000000
outer loop
vertex 0.007905 0.004806 0.000000
vertex 0.007894 0.004591 0.000000
vertex 0.007748 0.003681 0.000000
endloop
endfacet
facet normal 0.000000 0.000000 -1.000000
outer loop
vertex 0.007748 0.003681 0.000000
vertex 0.007352 0.002620 0.000000
vertex 0.006201 0.001137 0.000000
endloop
endfacet
facet normal 0.000000 0.000000 -1.000000
outer loop
vertex 0.006201 0.001137 0.000000
vertex 0.004688 0.000176 0.000000
vertex 0.003116 0.000067 0.000000
endloop
endfacet
facet normal 0.000000 0.000000 -1.000000
outer loop
vertex 0.003116 0.000067 0.000000
vertex 0.002063 0.000611 0.000000
vertex 0.001011 0.001648 0.000000
endloop
endfacet
facet normal 0.000000 0.000000 -1.000000
outer loop
vertex 0.001011 0.001648 0.000000
vertex 0.000395 0.003273 0.000000
vertex 0.000055 0.005694 0.000000
endloop
endfacet
facet normal 0.000000 0.000000 -1.000000
outer loop
vertex 0.000055 0.005694 0.000000
vertex 0.001386 0.006825 0.000000
vertex 0.002566 0.007573 0.000000
endloop
endfacet
facet normal 0.000000 0.000000 -1.000000
outer loop
vertex 0.000055 0.005694 0.000000
vertex 0.002566 0.007573 0.000000
vertex 0.004356 0.007456 0.000000
endloop
endfacet
facet normal 0.000000 0.000000 -1.000000
outer loop
vertex 0.003116 0.000067 0.000000
vertex 0.001011 0.001648 0.000000
vertex 0.000055 0.005694 0.000000
endloop
endfacet
facet normal 0.000000 0.000000 -1.000000
outer loop
vertex 0.007748 0.003681 0.000000
vertex 0.006201 0.001137 0.000000
vertex 0.003116 0.000067 0.000000
endloop
endfacet
facet normal 0.000000 0.000000 -1.000000
outer loop
vertex 0.007921 0.005002 0.000000
vertex 0.007905 0.004806 0.000000
vertex 0.007748 0.003681 0.000000
endloop
endfacet
facet normal 0.000000 0.000000 -1.000000
outer loop
vertex 0.007953 0.005342 0.000000
vertex 0.007938 0.005179 0.000000
vertex 0.007921 0.005002 0.000000
endloop
endfacet
facet normal 0.000000 0.000000 -1.000000
outer loop
vertex 0.007962 0.005630 0.000000
vertex 0.007962 0.005491 0.000000
vertex 0.007953 0.005342 0.000000
endloop
endfacet
facet normal 0.000000 0.000000 -1.000000
outer loop
vertex 0.007922 0.005886 0.000000
vertex 0.007950 0.005761 0.000000
vertex 0.007962 0.005630 0.000000
endloop
endfacet
facet normal 0.000000 0.000000 -1.000000
outer loop
vertex 0.007808 0.006129 0.000000
vertex 0.007876 0.006008 0.000000
vertex 0.007922 0.005886 0.000000
endloop
endfacet
facet normal 0.000000 0.000000 -1.000000
outer loop
vertex 0.007593 0.006376 0.000000
vertex 0.007715 0.006251 0.000000
vertex 0.007808 0.006129 0.000000
endloop
endfacet
facet normal 0.000000 0.000000 -1.000000
outer loop
vertex 0.006944 0.006867 0.000000
vertex 0.007289 0.006629 0.000000
vertex 0.007593 0.006376 0.000000
endloop
endfacet
facet normal 0.000000 0.000000 -1.000000
outer loop
vertex 0.005929 0.007364 0.000000
vertex 0.006237 0.007246 0.000000
vertex 0.006944 0.006867 0.000000
endloop
endfacet
facet normal 0.000000 0.000000 -1.000000
outer loop
vertex 0.005687 0.007417 0.000000
vertex 0.005798 0.007399 0.000000
vertex 0.005929 0.007364 0.000000
endloop
endfacet
facet normal 0.000000 0.000000 -1.000000
outer loop
vertex 0.005367 0.007436 0.000000
vertex 0.005584 0.007425 0.000000
vertex 0.005687 0.007417 0.000000
endloop
endfacet
facet normal 0.000000 0.000000 -1.000000
outer loop
vertex 0.004921 0.007448 0.000000
vertex 0.005143 0.007444 0.000000
vertex 0.005367 0.007436 0.000000
endloop
endfacet
facet normal 0.000000 0.000000 -1.000000
outer loop
vertex 0.000055 0.005694 0.000000
vertex 0.004356 0.007456 0.000000
vertex 0.004452 0.007451 0.000000
endloop
endfacet
facet normal 0.000000 0.000000 -1.000000
outer loop
vertex 0.004452 0.007451 0.000000
vertex 0.004921 0.007448 0.000000
vertex 0.005367 0.007436 0.000000
endloop
endfacet
facet normal 0.000000 0.000000 -1.000000
outer loop
vertex 0.005367 0.007436 0.000000
vertex 0.005687 0.007417 0.000000
vertex 0.005929 0.007364 0.000000
endloop
endfacet
facet normal 0.000000 0.000000 -1.000000
outer loop
vertex 0.005929 0.007364 0.000000
vertex 0.006944 0.006867 0.000000
vertex 0.007593 0.006376 0.000000
endloop
endfacet
facet normal 0.000000 0.000000 -1.000000
outer loop
vertex 0.007593 0.006376 0.000000
vertex 0.007808 0.006129 0.000000
vertex 0.007922 0.005886 0.000000
endloop
endfacet
facet normal 0.000000 0.000000 -1.000000
outer loop
vertex 0.007922 0.005886 0.000000
vertex 0.007962 0.005630 0.000000
vertex 0.007953 0.005342 0.000000
endloop
endfacet
facet normal 0.000000 0.000000 -1.000000
outer loop
vertex 0.007953 0.005342 0.000000
vertex 0.007921 0.005002 0.000000
vertex 0.007748 0.003681 0.000000
endloop
endfacet
facet normal 0.000000 0.000000 -1.000000
outer loop
vertex 0.007748 0.003681 0.000000
vertex 0.003116 0.000067 0.000000
vertex 0.000055 0.005694 0.000000
endloop
endfacet
facet normal 0.000000 0.000000 -1.000000
outer loop
vertex 0.000055 0.005694 0.000000
vertex 0.004452 0.007451 0.000000
vertex 0.005367 0.007436 0.000000
endloop
endfacet
facet normal 0.000000 0.000000 -1.000000
outer loop
vertex 0.005367 0.007436 0.000000
vertex 0.005929 0.007364 0.000000
vertex 0.007593 0.006376 0.000000
endloop
endfacet
facet normal 0.000000 0.000000 -1.000000
outer loop
vertex 0.007593 0.006376 0.000000
vertex 0.007922 0.005886 0.000000
vertex 0.007953 0.005342 0.000000
endloop
endfacet
facet normal 0.000000 0.000000 -1.000000
outer loop
vertex 0.007953 0.005342 0.000000
vertex 0.007748 0.003681 0.000000
vertex 0.000055 0.005694 0.000000
endloop
endfacet
facet normal 0.000000 0.000000 -1.000000
outer loop
vertex 0.000055 0.005694 0.000000
vertex 0.005367 0.007436 0.000000
vertex 0.007593 0.006376 0.000000
endloop
endfacet
facet normal 0.000000 0.000000 -1.000000
outer loop
vertex 0.000055 0.005694 0.000000
vertex 0.007593 0.006376 0.000000
vertex 0.007953 0.005342 0.000000
endloop
endfacet
facet normal 0.518376 -0.855153 0.000000
outer loop
vertex 0.005155 0.000361 0.150000
vertex 0.005155 0.000361 0.000000
vertex 0.005275 0.000434 0.000000
endloop
endfacet
facet normal 0.518374 -0.855154 0.000000
outer loop
vertex 0.005155 0.000361 0.150000
vertex 0.005275 0.000434 0.000000
vertex 0.005275 0.000434 0.150000
endloop
endfacet
facet normal 0.075164 -0.997171 0.000000
outer loop
vertex 0.003635 0.000001 0.150000
vertex 0.003635 0.000001 0.000000
vertex 0.003968 0.000026 0.000000
endloop
endfacet
facet normal 0.075164 -0.997171 0.000000
outer loop
vertex 0.003635 0.000001 0.150000
vertex 0.003968 0.000026 0.000000
vertex 0.003968 0.000026 0.150000
endloop
endfacet
facet normal -0.999455 -0.033002 0.000000
outer loop
vertex 0.000000 0.005533 0.150000
vertex 0.000000 0.005533 0.000000
vertex 0.000005 0.005375 0.000000
endloop
endfacet
facet normal -0.999455 -0.033002 0.000000
outer loop
vertex 0.000000 0.005533 0.150000
vertex 0.000005 0.005375 0.000000
vertex 0.000005 0.005375 0.150000
endloop
endfacet
facet normal -0.947348 0.320206 0.000000
outer loop
vertex 0.000055 0.005694 0.150000
vertex 0.000055 0.005694 0.000000
vertex 0.000000 0.005533 0.000000
endloop
endfacet
facet normal -0.947348 0.320206 0.000000
outer loop
vertex 0.000055 0.005694 0.150000
vertex 0.000000 0.005533 0.000000
vertex 0.000000 0.005533 0.150000
endloop
endfacet
facet normal 0.910380 -0.413773 0.000000
outer loop
vertex 0.007352 0.002620 0.000000
vertex 0.007442 0.002818 0.000000
vertex 0.007442 0.002818 0.150000
endloop
endfacet
facet normal 0.910380 -0.413773 0.000000
outer loop
vertex 0.007352 0.002620 0.000000
vertex 0.007442 0.002818 0.150000
vertex 0.007352 0.002620 0.150000
endloop
endfacet
facet normal 0.878823 -0.477148 0.000000
outer loop
vertex 0.007073 0.002088 0.150000
vertex 0.007073 0.002088 0.000000
vertex 0.007260 0.002431 0.000000
endloop
endfacet
facet normal 0.897804 -0.440396 0.000000
outer loop
vertex 0.007260 0.002431 0.000000
vertex 0.007352 0.002620 0.000000
vertex 0.007352 0.002620 0.150000
endloop
endfacet
facet normal 0.878825 -0.477145 0.000000
outer loop
vertex 0.007260 0.002431 0.150000
vertex 0.007073 0.002088 0.150000
vertex 0.007260 0.002431 0.000000
endloop
endfacet
facet normal 0.897804 -0.440396 0.000000
outer loop
vertex 0.007260 0.002431 0.000000
vertex 0.007352 0.002620 0.150000
vertex 0.007260 0.002431 0.150000
endloop
endfacet
facet normal 0.000000 0.000000 1.000000
outer loop
vertex 0.004356 0.007456 0.150000
vertex 0.002771 0.007694 0.150000
vertex 0.002717 0.007662 0.150000
endloop
endfacet
facet normal 0.008752 0.000000 0.999962
outer loop
vertex 0.002717 0.007662 0.150000
vertex 0.002566 0.007573 0.150000
vertex 0.002338 0.007436 0.150000
endloop
endfacet
facet normal -0.004096 0.000000 0.999992
outer loop
vertex 0.002338 0.007436 0.150000
vertex 0.002053 0.007259 0.150000
vertex 0.001729 0.007053 0.150000
endloop
endfacet
facet normal -0.001800 0.000000 0.999998
outer loop
vertex 0.001729 0.007053 0.150000
vertex 0.001386 0.006825 0.150000
vertex 0.001042 0.006586 0.150000
endloop
endfacet
facet normal 0.000000 0.000000 1.000000
outer loop
vertex 0.001042 0.006586 0.150000
vertex 0.000718 0.006345 0.150000
vertex 0.000205 0.005889 0.150000
endloop
endfacet
facet normal 0.000000 0.000000 1.000000
outer loop
vertex 0.000205 0.005889 0.150000
vertex 0.000055 0.005694 0.150000
vertex 0.000000 0.005533 0.150000
endloop
endfacet
facet normal 0.001397 0.000000 0.999999
outer loop
vertex 0.000000 0.005533 0.150000
vertex 0.000005 0.005375 0.150000
vertex 0.000331 0.003506 0.150000
endloop
endfacet
facet normal -0.004418 0.000000 0.999990
outer loop
vertex 0.000331 0.003506 0.150000
vertex 0.000395 0.003273 0.150000
vertex 0.000461 0.003058 0.150000
endloop
endfacet
facet normal 0.000751 0.000000 1.000000
outer loop
vertex 0.000461 0.003058 0.150000
vertex 0.000802 0.002072 0.150000
vertex 0.000930 0.001789 0.150000
endloop
endfacet
facet normal -0.001079 0.000000 0.999999
outer loop
vertex 0.000930 0.001789 0.150000
vertex 0.001011 0.001648 0.150000
vertex 0.001227 0.001357 0.150000
endloop
endfacet
facet normal 0.000000 0.000000 1.000000
outer loop
vertex 0.001227 0.001357 0.150000
vertex 0.001535 0.001042 0.150000
vertex 0.001891 0.000740 0.150000
endloop
endfacet
facet normal 0.000000 0.000000 1.000000
outer loop
vertex 0.001891 0.000740 0.150000
vertex 0.002063 0.000611 0.150000
vertex 0.002229 0.000496 0.150000
endloop
endfacet
facet normal 0.000000 0.000000 1.000000
outer loop
vertex 0.002229 0.000496 0.150000
vertex 0.002547 0.000304 0.150000
vertex 0.002843 0.000163 0.150000
endloop
endfacet
facet normal 0.000200 0.000000 1.000000
outer loop
vertex 0.002843 0.000163 0.150000
vertex 0.003116 0.000067 0.150000
vertex 0.003362 0.000014 0.150000
endloop
endfacet
facet normal 0.000081 0.000000 1.000000
outer loop
vertex 0.003362 0.000014 0.150000
vertex 0.003635 0.000001 0.150000
vertex 0.003968 0.000026 0.150000
endloop
endfacet
facet normal 0.000000 0.000000 1.000000
outer loop
vertex 0.003968 0.000026 0.150000
vertex 0.004688 0.000176 0.150000
vertex 0.005014 0.000293 0.150000
endloop
endfacet
facet normal 0.000860 0.000000 1.000000
outer loop
vertex 0.005014 0.000293 0.150000
vertex 0.005155 0.000361 0.150000
vertex 0.005275 0.000434 0.150000
endloop
endfacet
facet normal 0.000000 0.000000 1.000000
outer loop
vertex 0.005275 0.000434 0.150000
vertex 0.006201 0.001137 0.150000
vertex 0.006843 0.001766 0.150000
endloop
endfacet
facet normal 0.000381 0.000000 1.000000
outer loop
vertex 0.006843 0.001766 0.150000
vertex 0.007073 0.002088 0.150000
vertex 0.007260 0.002431 0.150000
endloop
endfacet
facet normal -0.002702 0.000000 0.999996
outer loop
vertex 0.007260 0.002431 0.150000
vertex 0.007352 0.002620 0.150000
vertex 0.007442 0.002818 0.150000
endloop
endfacet
facet normal 0.000000 0.000000 1.000000
outer loop
vertex 0.007442 0.002818 0.150000
vertex 0.007609 0.003238 0.150000
vertex 0.007683 0.003457 0.150000
endloop
endfacet
facet normal 0.001930 0.000000 0.999998
outer loop
vertex 0.007683 0.003457 0.150000
vertex 0.007748 0.003681 0.150000
vertex 0.007847 0.004135 0.150000
endloop
endfacet
facet normal 0.000000 0.000000 1.000000
outer loop
vertex 0.007847 0.004135 0.150000
vertex 0.007878 0.004363 0.150000
vertex 0.007894 0.004591 0.150000
endloop
endfacet
facet normal -0.001509 0.000000 0.999999
outer loop
vertex 0.007847 0.004135 0.150000
vertex 0.007894 0.004591 0.150000
vertex 0.007905 0.004806 0.150000
endloop
endfacet
facet normal 0.000000 0.000000 1.000000
outer loop
vertex 0.007442 0.002818 0.150000
vertex 0.007683 0.003457 0.150000
vertex 0.007847 0.004135 0.150000
endloop
endfacet
facet normal -0.000366 0.000000 1.000000
outer loop
vertex 0.006843 0.001766 0.150000
vertex 0.007260 0.002431 0.150000
vertex 0.007442 0.002818 0.150000
endloop
endfacet
facet normal 0.000000 0.000000 1.000000
outer loop
vertex 0.005014 0.000293 0.150000
vertex 0.005275 0.000434 0.150000
vertex 0.006843 0.001766 0.150000
endloop
endfacet
facet normal 0.000049 0.000000 1.000000
outer loop
vertex 0.003362 0.000014 0.150000
vertex 0.003968 0.000026 0.150000
vertex 0.005014 0.000293 0.150000
endloop
endfacet
facet normal -0.000045 0.000000 1.000000
outer loop
vertex 0.002229 0.000496 0.150000
vertex 0.002843 0.000163 0.150000
vertex 0.003362 0.000014 0.150000
endloop
endfacet
facet normal 0.000000 0.000000 1.000000
outer loop
vertex 0.001227 0.001357 0.150000
vertex 0.001891 0.000740 0.150000
vertex 0.002229 0.000496 0.150000
endloop
endfacet
facet normal 0.000084 0.000000 1.000000
outer loop
vertex 0.000461 0.003058 0.150000
vertex 0.000930 0.001789 0.150000
vertex 0.001227 0.001357 0.150000
endloop
endfacet
facet normal 0.000000 0.000000 1.000000
outer loop
vertex 0.000000 0.005533 0.150000
vertex 0.000331 0.003506 0.150000
vertex 0.000461 0.003058 0.150000
endloop
endfacet
facet normal 0.000000 0.000000 1.000000
outer loop
vertex 0.001042 0.006586 0.150000
vertex 0.000205 0.005889 0.150000
vertex 0.000000 0.005533 0.150000
endloop
endfacet
facet normal 0.000678 0.000000 1.000000
outer loop
vertex 0.002338 0.007436 0.150000
vertex 0.001729 0.007053 0.150000
vertex 0.001042 0.006586 0.150000
endloop
endfacet
facet normal 0.000000 0.000000 1.000000
outer loop
vertex 0.004356 0.007456 0.150000
vertex 0.002717 0.007662 0.150000
vertex 0.002338 0.007436 0.150000
endloop
endfacet
facet normal 0.000039 0.000000 1.000000
outer loop
vertex 0.005143 0.007444 0.150000
vertex 0.004921 0.007448 0.150000
vertex 0.004452 0.007451 0.150000
endloop
endfacet
facet normal 0.000000 0.000000 1.000000
outer loop
vertex 0.004452 0.007451 0.150000
vertex 0.004356 0.007456 0.150000
vertex 0.002338 0.007436 0.150000
endloop
endfacet
facet normal 0.000000 0.000000 1.000000
outer loop
vertex 0.002338 0.007436 0.150000
vertex 0.001042 0.006586 0.150000
vertex 0.000000 0.005533 0.150000
endloop
endfacet
facet normal -0.000053 0.000000 1.000000
outer loop
vertex 0.000000 0.005533 0.150000
vertex 0.000461 0.003058 0.150000
vertex 0.001227 0.001357 0.150000
endloop
endfacet
facet normal -0.000030 0.000000 1.000000
outer loop
vertex 0.001227 0.001357 0.150000
vertex 0.002229 0.000496 0.150000
vertex 0.003362 0.000014 0.150000
endloop
endfacet
facet normal 0.000015 0.000000 1.000000
outer loop
vertex 0.003362 0.000014 0.150000
vertex 0.005014 0.000293 0.150000
vertex 0.006843 0.001766 0.150000
endloop
endfacet
facet normal 0.000080 0.000000 1.000000
outer loop
vertex 0.006843 0.001766 0.150000
vertex 0.007442 0.002818 0.150000
vertex 0.007847 0.004135 0.150000
endloop
endfacet
facet normal 0.023130 0.000000 0.999732
outer loop
vertex 0.007847 0.004135 0.150000
vertex 0.007905 0.004806 0.150000
vertex 0.007921 0.005002 0.150000
endloop
endfacet
facet normal -0.024318 0.000000 0.999704
outer loop
vertex 0.007921 0.005002 0.150000
vertex 0.007938 0.005179 0.150000
vertex 0.007953 0.005342 0.150000
endloop
endfacet
facet normal -0.002960 0.000000 0.999996
outer loop
vertex 0.007953 0.005342 0.150000
vertex 0.007962 0.005491 0.150000
vertex 0.007962 0.005630 0.150000
endloop
endfacet
facet normal 0.000000 0.000000 1.000000
outer loop
vertex 0.007962 0.005630 0.150000
vertex 0.007950 0.005761 0.150000
vertex 0.007922 0.005886 0.150000
endloop
endfacet
facet normal 0.000000 0.000000 1.000000
outer loop
vertex 0.007922 0.005886 0.150000
vertex 0.007876 0.006008 0.150000
vertex 0.007808 0.006129 0.150000
endloop
endfacet
facet normal 0.000000 0.000000 1.000000
outer loop
vertex 0.007808 0.006129 0.150000
vertex 0.007715 0.006251 0.150000
vertex 0.007593 0.006376 0.150000
endloop
endfacet
facet normal -0.000481 0.000000 1.000000
outer loop
vertex 0.007593 0.006376 0.150000
vertex 0.007289 0.006629 0.150000
vertex 0.006944 0.006867 0.150000
endloop
endfacet
facet normal 0.000000 0.000000 1.000000
outer loop
vertex 0.006944 0.006867 0.150000
vertex 0.006237 0.007246 0.150000
vertex 0.005929 0.007364 0.150000
endloop
endfacet
facet normal 0.000566 0.000000 1.000000
outer loop
vertex 0.005929 0.007364 0.150000
vertex 0.005798 0.007399 0.150000
vertex 0.005687 0.007417 0.150000
endloop
endfacet
facet normal -0.000490 0.000000 1.000000
outer loop
vertex 0.005687 0.007417 0.150000
vertex 0.005584 0.007425 0.150000
vertex 0.005367 0.007436 0.150000
endloop
endfacet
facet normal 0.000000 0.000000 1.000000
outer loop
vertex 0.005367 0.007436 0.150000
vertex 0.005143 0.007444 0.150000
vertex 0.004452 0.007451 0.150000
endloop
endfacet
facet normal -0.000015 0.000000 1.000000
outer loop
vertex 0.004452 0.007451 0.150000
vertex 0.002338 0.007436 0.150000
vertex 0.000000 0.005533 0.150000
endloop
endfacet
facet normal 0.000000 0.000000 1.000000
outer loop
vertex 0.000000 0.005533 0.150000
vertex 0.001227 0.001357 0.150000
vertex 0.003362 0.000014 0.150000
endloop
endfacet
facet normal 0.000000 0.000000 1.000000
outer loop
vertex 0.003362 0.000014 0.150000
vertex 0.006843 0.001766 0.150000
vertex 0.007847 0.004135 0.150000
endloop
endfacet
facet normal 0.001221 0.000000 0.999999
outer loop
vertex 0.007921 0.005002 0.150000
vertex 0.007953 0.005342 0.150000
vertex 0.007962 0.005630 0.150000
endloop
endfacet
facet normal 0.000000 0.000000 1.000000
outer loop
vertex 0.003362 0.000014 0.150000
vertex 0.007847 0.004135 0.150000
vertex 0.007921 0.005002 0.150000
endloop
endfacet
facet normal 0.000000 0.000000 1.000000
outer loop
vertex 0.004452 0.007451 0.150000
vertex 0.000000 0.005533 0.150000
vertex 0.003362 0.000014 0.150000
endloop
endfacet
facet normal -0.000035 0.000000 1.000000
outer loop
vertex 0.005687 0.007417 0.150000
vertex 0.005367 0.007436 0.150000
vertex 0.004452 0.007451 0.150000
endloop
endfacet
facet normal 0.000110 0.000000 1.000000
outer loop
vertex 0.006944 0.006867 0.150000
vertex 0.005929 0.007364 0.150000
vertex 0.005687 0.007417 0.150000
endloop
endfacet
facet normal 0.000000 0.000000 1.000000
outer loop
vertex 0.007808 0.006129 0.150000
vertex 0.007593 0.006376 0.150000
vertex 0.006944 0.006867 0.150000
endloop
endfacet
facet normal -0.000370 0.000000 1.000000
outer loop
vertex 0.007962 0.005630 0.150000
vertex 0.007922 0.005886 0.150000
vertex 0.007808 0.006129 0.150000
endloop
endfacet
facet normal -0.000038 0.000000 1.000000
outer loop
vertex 0.003362 0.000014 0.150000
vertex 0.007921 0.005002 0.150000
vertex 0.007962 0.005630 0.150000
endloop
endfacet
facet normal 0.000000 0.000000 1.000000
outer loop
vertex 0.005687 0.007417 0.150000
vertex 0.004452 0.007451 0.150000
vertex 0.003362 0.000014 0.150000
endloop
endfacet
facet normal 0.000032 0.000000 1.000000
outer loop
vertex 0.007808 0.006129 0.150000
vertex 0.006944 0.006867 0.150000
vertex 0.005687 0.007417 0.150000
endloop
endfacet
facet normal 0.000000 0.000000 1.000000
outer loop
vertex 0.003362 0.000014 0.150000
vertex 0.007962 0.005630 0.150000
vertex 0.007808 0.006129 0.150000
endloop
endfacet
facet normal 0.000005 0.000000 1.000000
outer loop
vertex 0.003362 0.000014 0.150000
vertex 0.007808 0.006129 0.150000
vertex 0.005687 0.007417 0.150000
endloop
endfacet
facet normal -0.804104 -0.594489 0.000000
outer loop
vertex 0.001011 0.001648 0.000000
vertex 0.001227 0.001357 0.000000
vertex 0.001227 0.001357 0.150000
endloop
endfacet
facet normal -0.804104 -0.594489 0.000000
outer loop
vertex 0.001011 0.001648 0.000000
vertex 0.001227 0.001357 0.150000
vertex 0.001011 0.001648 0.150000
endloop
endfacet
facet normal -0.911882 -0.410453 0.000000
outer loop
vertex 0.000802 0.002072 0.000000
vertex 0.000930 0.001789 0.000000
vertex 0.000930 0.001789 0.150000
endloop
endfacet
facet normal -0.911882 -0.410453 0.000000
outer loop
vertex 0.000802 0.002072 0.000000
vertex 0.000930 0.001789 0.150000
vertex 0.000802 0.002072 0.150000
endloop
endfacet
facet normal 0.813067 -0.582170 0.000000
outer loop
vertex 0.006843 0.001766 0.150000
vertex 0.006843 0.001766 0.000000
vertex 0.007073 0.002088 0.000000
endloop
endfacet
facet normal 0.813066 -0.582172 0.000000
outer loop
vertex 0.006843 0.001766 0.150000
vertex 0.007073 0.002088 0.000000
vertex 0.007073 0.002088 0.150000
endloop
endfacet
facet normal 0.604751 -0.796414 0.000000
outer loop
vertex 0.005275 0.000434 0.000000
vertex 0.006201 0.001137 0.000000
vertex 0.006201 0.001137 0.150000
endloop
endfacet
facet normal 0.604751 -0.796414 0.000000
outer loop
vertex 0.005275 0.000434 0.000000
vertex 0.006201 0.001137 0.150000
vertex 0.005275 0.000434 0.150000
endloop
endfacet
facet normal 0.794154 0.607716 0.000000
outer loop
vertex 0.007808 0.006129 0.150000
vertex 0.007808 0.006129 0.000000
vertex 0.007715 0.006251 0.000000
endloop
endfacet
facet normal 0.794149 0.607723 0.000000
outer loop
vertex 0.007808 0.006129 0.150000
vertex 0.007715 0.006251 0.000000
vertex 0.007715 0.006251 0.150000
endloop
endfacet
facet normal -0.985109 -0.171932 0.000000
outer loop
vertex 0.000005 0.005375 0.150000
vertex 0.000005 0.005375 0.000000
vertex 0.000331 0.003506 0.000000
endloop
endfacet
facet normal -0.985109 -0.171932 0.000000
outer loop
vertex 0.000005 0.005375 0.150000
vertex 0.000331 0.003506 0.000000
vertex 0.000331 0.003506 0.150000
endloop
endfacet
facet normal 0.976814 0.214090 0.000000
outer loop
vertex 0.007950 0.005761 0.150000
vertex 0.007950 0.005761 0.000000
vertex 0.007922 0.005886 0.000000
endloop
endfacet
facet normal 0.976814 0.214090 0.000000
outer loop
vertex 0.007950 0.005761 0.150000
vertex 0.007922 0.005886 0.000000
vertex 0.007922 0.005886 0.150000
endloop
endfacet
facet normal 0.356608 0.934254 0.000000
outer loop
vertex 0.006237 0.007246 0.150000
vertex 0.006237 0.007246 0.000000
vertex 0.005929 0.007364 0.000000
endloop
endfacet
facet normal 0.356609 0.934254 0.000000
outer loop
vertex 0.006237 0.007246 0.150000
vertex 0.005929 0.007364 0.000000
vertex 0.005929 0.007364 0.150000
endloop
endfacet
facet normal 0.473033 0.881045 0.000000
outer loop
vertex 0.006944 0.006867 0.000000
vertex 0.006237 0.007246 0.000000
vertex 0.006237 0.007246 0.150000
endloop
endfacet
facet normal 0.473033 0.881045 0.000000
outer loop
vertex 0.006944 0.006867 0.000000
vertex 0.006237 0.007246 0.150000
vertex 0.006944 0.006867 0.150000
endloop
endfacet
facet normal -0.569443 -0.822031 0.000000
outer loop
vertex 0.002063 0.000611 0.000000
vertex 0.002229 0.000496 0.000000
vertex 0.002229 0.000496 0.150000
endloop
endfacet
facet normal -0.569443 -0.822031 0.000000
outer loop
vertex 0.002063 0.000611 0.000000
vertex 0.002229 0.000496 0.150000
vertex 0.002063 0.000611 0.150000
endloop
endfacet
facet normal -0.646179 -0.763186 0.000000
outer loop
vertex 0.001535 0.001042 0.150000
vertex 0.001535 0.001042 0.000000
vertex 0.001891 0.000740 0.000000
endloop
endfacet
facet normal -0.601947 -0.798536 0.000000
outer loop
vertex 0.001891 0.000740 0.000000
vertex 0.002063 0.000611 0.000000
vertex 0.002063 0.000611 0.150000
endloop
endfacet
facet normal -0.646180 -0.763185 0.000000
outer loop
vertex 0.001891 0.000740 0.150000
vertex 0.001535 0.001042 0.150000
vertex 0.001891 0.000740 0.000000
endloop
endfacet
facet normal -0.601948 -0.798535 0.000000
outer loop
vertex 0.002063 0.000611 0.150000
vertex 0.001891 0.000740 0.150000
vertex 0.001891 0.000740 0.000000
endloop
endfacet
facet normal 0.434120 -0.900855 0.000000
outer loop
vertex 0.005014 0.000293 0.150000
vertex 0.005014 0.000293 0.000000
vertex 0.005155 0.000361 0.000000
endloop
endfacet
facet normal 0.434118 -0.900856 0.000000
outer loop
vertex 0.005014 0.000293 0.150000
vertex 0.005155 0.000361 0.000000
vertex 0.005155 0.000361 0.150000
endloop
endfacet
facet normal 0.260768 0.965402 0.000000
outer loop
vertex 0.005929 0.007364 0.150000
vertex 0.005929 0.007364 0.000000
vertex 0.005798 0.007399 0.000000
endloop
endfacet
facet normal 0.260766 0.965402 0.000000
outer loop
vertex 0.005929 0.007364 0.150000
vertex 0.005798 0.007399 0.000000
vertex 0.005798 0.007399 0.150000
endloop
endfacet
facet normal 0.000000 0.000000 -1.000000
outer loop
vertex 0.004921 0.007448 0.000000
vertex 0.004452 0.007451 0.000000
vertex 0.004356 0.007456 0.000000
endloop
endfacet
facet normal 0.049972 0.998751 0.000000
outer loop
vertex 0.004356 0.007456 0.000000
vertex 0.004356 0.007456 0.150000
vertex 0.004452 0.007451 0.150000
endloop
endfacet
facet normal 0.005748 0.999983 0.000028
outer loop
vertex 0.004356 0.007456 0.000000
vertex 0.004452 0.007451 0.150000
vertex 0.004921 0.007448 0.150000
endloop
endfacet
facet normal 0.013227 0.999913 0.000000
outer loop
vertex 0.004921 0.007448 0.000000
vertex 0.004356 0.007456 0.000000
vertex 0.004921 0.007448 0.150000
endloop
endfacet
facet normal 0.019825 0.999804 0.000000
outer loop
vertex 0.004921 0.007448 0.000000
vertex 0.004921 0.007448 0.150000
vertex 0.005143 0.007444 0.150000
endloop
endfacet
facet normal 0.019824 0.999803 0.000000
outer loop
vertex 0.005143 0.007444 0.000000
vertex 0.004921 0.007448 0.000000
vertex 0.005143 0.007444 0.150000
endloop
endfacet
facet normal 0.033825 0.999428 0.000000
outer loop
vertex 0.005143 0.007444 0.000000
vertex 0.005143 0.007444 0.150000
vertex 0.005367 0.007436 0.150000
endloop
endfacet
facet normal 0.033825 0.999428 0.000000
outer loop
vertex 0.005367 0.007436 0.000000
vertex 0.005143 0.007444 0.000000
vertex 0.005367 0.007436 0.150000
endloop
endfacet
facet normal 0.074488 0.997222 0.000000
outer loop
vertex 0.005584 0.007425 0.150000
vertex 0.005687 0.007417 0.150000
vertex 0.005687 0.007417 0.000000
endloop
endfacet
facet normal 0.053769 0.998553 0.000000
outer loop
vertex 0.005367 0.007436 0.000000
vertex 0.005367 0.007436 0.150000
vertex 0.005584 0.007425 0.150000
endloop
endfacet
facet normal 0.074489 0.997222 0.000000
outer loop
vertex 0.005584 0.007425 0.150000
vertex 0.005687 0.007417 0.000000
vertex 0.005584 0.007425 0.000000
endloop
endfacet
facet normal 0.053769 0.998553 0.000000
outer loop
vertex 0.005367 0.007436 0.000000
vertex 0.005584 0.007425 0.150000
vertex 0.005584 0.007425 0.000000
endloop
endfacet
facet normal 0.000000 0.000000 1.000000
outer loop
vertex 0.007442 0.002818 0.000000
vertex 0.007609 0.003238 0.000000
vertex 0.007683 0.003457 0.000000
endloop
endfacet
facet normal 0.959885 -0.280393 0.000000
outer loop
vertex 0.007683 0.003457 0.000000
vertex 0.007748 0.003681 0.000000
vertex 0.007748 0.003681 0.150000
endloop
endfacet
facet normal 0.959885 -0.280393 0.000000
outer loop
vertex 0.007683 0.003457 0.000000
vertex 0.007748 0.003681 0.150000
vertex 0.007683 0.003457 0.150000
endloop
endfacet
facet normal 0.935871 -0.352342 0.000000
outer loop
vertex 0.007442 0.002818 0.150000
vertex 0.007442 0.002818 0.000000
vertex 0.007683 0.003457 0.000000
endloop
endfacet
facet normal 0.947762 -0.318979 0.000000
outer loop
vertex 0.007683 0.003457 0.000000
vertex 0.007683 0.003457 0.150000
vertex 0.007609 0.003238 0.150000
endloop
endfacet
facet normal 0.929335 -0.369239 -0.000082
outer loop
vertex 0.007683 0.003457 0.000000
vertex 0.007609 0.003238 0.150000
vertex 0.007442 0.002818 0.150000
endloop
endfacet
facet normal 0.977083 -0.212860 0.000000
outer loop
vertex 0.007748 0.003681 0.150000
vertex 0.007748 0.003681 0.000000
vertex 0.007847 0.004135 0.000000
endloop
endfacet
facet normal 0.977083 -0.212857 0.000000
outer loop
vertex 0.007748 0.003681 0.150000
vertex 0.007847 0.004135 0.000000
vertex 0.007847 0.004135 0.150000
endloop
endfacet
facet normal 0.639557 0.768743 0.000000
outer loop
vertex 0.007593 0.006376 0.150000
vertex 0.007593 0.006376 0.000000
vertex 0.007289 0.006629 0.000000
endloop
endfacet
facet normal 0.639559 0.768742 0.000000
outer loop
vertex 0.007593 0.006376 0.150000
vertex 0.007289 0.006629 0.000000
vertex 0.007289 0.006629 0.150000
endloop
endfacet
facet normal 0.000000 0.000000 1.000000
outer loop
vertex 0.002053 0.007259 0.000000
vertex 0.001729 0.007053 0.000000
vertex 0.001386 0.006825 0.000000
endloop
endfacet
facet normal 0.000000 0.000000 1.000000
outer loop
vertex 0.001386 0.006825 0.000000
vertex 0.001042 0.006586 0.000000
vertex 0.000718 0.006345 0.000000
endloop
endfacet
facet normal -0.598167 0.801371 0.000000
outer loop
vertex 0.000718 0.006345 0.000000
vertex 0.000718 0.006345 0.150000
vertex 0.001042 0.006586 0.150000
endloop
endfacet
facet normal -0.571702 0.820461 -0.000088
outer loop
vertex 0.000718 0.006345 0.000000
vertex 0.001042 0.006586 0.150000
vertex 0.001386 0.006825 0.150000
endloop
endfacet
facet normal 0.000000 0.000000 1.000000
outer loop
vertex 0.002053 0.007259 0.000000
vertex 0.001386 0.006825 0.000000
vertex 0.000718 0.006345 0.000000
endloop
endfacet
facet normal 0.000000 0.000000 1.000000
outer loop
vertex 0.002566 0.007573 0.000000
vertex 0.002338 0.007436 0.000000
vertex 0.002053 0.007259 0.000000
endloop
endfacet
facet normal 0.000000 0.000000 1.000000
outer loop
vertex 0.002771 0.007694 0.000000
vertex 0.002717 0.007662 0.000000
vertex 0.002566 0.007573 0.000000
endloop
endfacet
facet normal -0.502818 0.864392 0.000000
outer loop
vertex 0.002717 0.007662 0.150000
vertex 0.002771 0.007694 0.150000
vertex 0.002771 0.007694 0.000000
endloop
endfacet
facet normal -0.508718 0.860933 -0.000003
outer loop
vertex 0.002566 0.007573 0.150000
vertex 0.002717 0.007662 0.150000
vertex 0.002771 0.007694 0.000000
endloop
endfacet
facet normal 0.000000 0.000000 1.000000
outer loop
vertex 0.002771 0.007694 0.000000
vertex 0.002566 0.007573 0.000000
vertex 0.002053 0.007259 0.000000
endloop
endfacet
facet normal -0.565454 0.824780 -0.000130
outer loop
vertex 0.002053 0.007259 0.000000
vertex 0.000718 0.006345 0.000000
vertex 0.001386 0.006825 0.150000
endloop
endfacet
facet normal -0.552279 0.833660 -0.000045
outer loop
vertex 0.002053 0.007259 0.000000
vertex 0.001386 0.006825 0.150000
vertex 0.001729 0.007053 0.150000
endloop
endfacet
facet normal -0.517543 0.855657 -0.000019
outer loop
vertex 0.002566 0.007573 0.150000
vertex 0.002771 0.007694 0.000000
vertex 0.002053 0.007259 0.000000
endloop
endfacet
facet normal -0.516386 0.856356 -0.000025
outer loop
vertex 0.002338 0.007436 0.150000
vertex 0.002566 0.007573 0.150000
vertex 0.002053 0.007259 0.000000
endloop
endfacet
facet normal -0.537450 0.843296 0.000000
outer loop
vertex 0.002053 0.007259 0.000000
vertex 0.001729 0.007053 0.150000
vertex 0.002053 0.007259 0.150000
endloop
endfacet
facet normal -0.525781 0.850620 0.000000
outer loop
vertex 0.002053 0.007259 0.150000
vertex 0.002338 0.007436 0.150000
vertex 0.002053 0.007259 0.000000
endloop
endfacet
facet normal 0.870902 0.491456 0.000000
outer loop
vertex 0.007876 0.006008 0.150000
vertex 0.007876 0.006008 0.000000
vertex 0.007808 0.006129 0.000000
endloop
endfacet
facet normal 0.870893 0.491473 0.000000
outer loop
vertex 0.007876 0.006008 0.150000
vertex 0.007808 0.006129 0.000000
vertex 0.007808 0.006129 0.150000
endloop
endfacet
facet normal 0.935120 0.354331 0.000000
outer loop
vertex 0.007922 0.005886 0.150000
vertex 0.007922 0.005886 0.000000
vertex 0.007876 0.006008 0.000000
endloop
endfacet
facet normal 0.935120 0.354331 0.000000
outer loop
vertex 0.007922 0.005886 0.150000
vertex 0.007876 0.006008 0.000000
vertex 0.007876 0.006008 0.150000
endloop
endfacet
facet normal -0.047623 -0.998865 0.000000
outer loop
vertex 0.003362 0.000014 0.150000
vertex 0.003362 0.000014 0.000000
vertex 0.003635 0.000001 0.000000
endloop
endfacet
facet normal -0.047623 -0.998865 0.000000
outer loop
vertex 0.003362 0.000014 0.150000
vertex 0.003635 0.000001 0.000000
vertex 0.003635 0.000001 0.150000
endloop
endfacet
facet normal 1.000000 -0.000837 0.000000
outer loop
vertex 0.007962 0.005491 0.000000
vertex 0.007962 0.005630 0.000000
vertex 0.007962 0.005630 0.150000
endloop
endfacet
facet normal 1.000000 -0.000826 0.000000
outer loop
vertex 0.007962 0.005491 0.000000
vertex 0.007962 0.005630 0.150000
vertex 0.007962 0.005491 0.150000
endloop
endfacet
facet normal 0.998211 -0.059792 0.000000
outer loop
vertex 0.007953 0.005342 0.000000
vertex 0.007962 0.005491 0.000000
vertex 0.007962 0.005491 0.150000
endloop
endfacet
facet normal 0.998210 -0.059812 0.000000
outer loop
vertex 0.007953 0.005342 0.000000
vertex 0.007962 0.005491 0.150000
vertex 0.007953 0.005342 0.150000
endloop
endfacet
facet normal 0.996027 -0.089048 0.000000
outer loop
vertex 0.007938 0.005179 0.000000
vertex 0.007953 0.005342 0.000000
vertex 0.007953 0.005342 0.150000
endloop
endfacet
facet normal 0.996027 -0.089057 0.000000
outer loop
vertex 0.007938 0.005179 0.000000
vertex 0.007953 0.005342 0.150000
vertex 0.007938 0.005179 0.150000
endloop
endfacet
facet normal 0.995557 -0.094160 0.000000
outer loop
vertex 0.007921 0.005002 0.000000
vertex 0.007938 0.005179 0.000000
vertex 0.007938 0.005179 0.150000
endloop
endfacet
facet normal 0.995556 -0.094168 0.000000
outer loop
vertex 0.007921 0.005002 0.000000
vertex 0.007938 0.005179 0.150000
vertex 0.007921 0.005002 0.150000
endloop
endfacet
facet normal 0.996739 -0.080691 0.000000
outer loop
vertex 0.007905 0.004806 0.000000
vertex 0.007921 0.005002 0.000000
vertex 0.007921 0.005002 0.150000
endloop
endfacet
facet normal 0.996739 -0.080691 0.000000
outer loop
vertex 0.007905 0.004806 0.000000
vertex 0.007921 0.005002 0.150000
vertex 0.007905 0.004806 0.150000
endloop
endfacet
facet normal 0.998567 -0.053508 0.000000
outer loop
vertex 0.007894 0.004591 0.000000
vertex 0.007905 0.004806 0.000000
vertex 0.007905 0.004806 0.150000
endloop
endfacet
facet normal 0.998567 -0.053523 0.000000
outer loop
vertex 0.007894 0.004591 0.000000
vertex 0.007905 0.004806 0.150000
vertex 0.007894 0.004591 0.150000
endloop
endfacet
facet normal 0.991089 -0.133199 0.000000
outer loop
vertex 0.007847 0.004135 0.150000
vertex 0.007847 0.004135 0.000000
vertex 0.007878 0.004363 0.000000
endloop
endfacet
facet normal 0.997496 -0.070724 0.000000
outer loop
vertex 0.007878 0.004363 0.000000
vertex 0.007894 0.004591 0.000000
vertex 0.007894 0.004591 0.150000
endloop
endfacet
facet normal 0.991088 -0.133205 0.000000
outer loop
vertex 0.007878 0.004363 0.150000
vertex 0.007847 0.004135 0.150000
vertex 0.007878 0.004363 0.000000
endloop
endfacet
facet normal 0.997496 -0.070724 0.000000
outer loop
vertex 0.007894 0.004591 0.150000
vertex 0.007878 0.004363 0.150000
vertex 0.007878 0.004363 0.000000
endloop
endfacet
facet normal 0.717860 0.696188 0.000000
outer loop
vertex 0.007715 0.006251 0.150000
vertex 0.007715 0.006251 0.000000
vertex 0.007593 0.006376 0.000000
endloop
endfacet
facet normal 0.717860 0.696188 0.000000
outer loop
vertex 0.007715 0.006251 0.150000
vertex 0.007593 0.006376 0.000000
vertex 0.007593 0.006376 0.150000
endloop
endfacet
facet normal 0.700073 -0.714071 0.000000
outer loop
vertex 0.006843 0.001766 0.000000
vertex 0.006843 0.001766 0.150000
vertex 0.006201 0.001137 0.150000
endloop
endfacet
facet normal 0.700073 -0.714071 0.000000
outer loop
vertex 0.006843 0.001766 0.000000
vertex 0.006201 0.001137 0.150000
vertex 0.006201 0.001137 0.000000
endloop
endfacet
facet normal 0.566681 0.823937 0.000000
outer loop
vertex 0.007289 0.006629 0.000000
vertex 0.006944 0.006867 0.000000
vertex 0.006944 0.006867 0.150000
endloop
endfacet
facet normal 0.566681 0.823937 0.000000
outer loop
vertex 0.007289 0.006629 0.000000
vertex 0.006944 0.006867 0.150000
vertex 0.007289 0.006629 0.150000
endloop
endfacet
facet normal -0.515595 -0.856832 0.000000
outer loop
vertex 0.002229 0.000496 0.000000
vertex 0.002547 0.000304 0.000000
vertex 0.002547 0.000304 0.150000
endloop
endfacet
facet normal -0.515595 -0.856832 0.000000
outer loop
vertex 0.002229 0.000496 0.000000
vertex 0.002547 0.000304 0.150000
vertex 0.002229 0.000496 0.150000
endloop
endfacet
facet normal 0.148458 0.988919 0.000000
outer loop
vertex 0.004356 0.007456 0.150000
vertex 0.004356 0.007456 0.000000
vertex 0.002771 0.007694 0.000000
endloop
endfacet
facet normal 0.148458 0.988919 0.000000
outer loop
vertex 0.004356 0.007456 0.150000
vertex 0.002771 0.007694 0.000000
vertex 0.002771 0.007694 0.150000
endloop
endfacet
facet normal -0.211282 -0.977425 0.000000
outer loop
vertex 0.003116 0.000067 0.000000
vertex 0.003362 0.000014 0.000000
vertex 0.003362 0.000014 0.150000
endloop
endfacet
facet normal -0.211282 -0.977425 0.000000
outer loop
vertex 0.003116 0.000067 0.000000
vertex 0.003362 0.000014 0.150000
vertex 0.003116 0.000067 0.150000
endloop
endfacet
facet normal 0.157293 0.987552 0.000000
outer loop
vertex 0.005798 0.007399 0.150000
vertex 0.005798 0.007399 0.000000
vertex 0.005687 0.007417 0.000000
endloop
endfacet
facet normal 0.157294 0.987552 0.000000
outer loop
vertex 0.005798 0.007399 0.150000
vertex 0.005687 0.007417 0.000000
vertex 0.005687 0.007417 0.150000
endloop
endfacet
facet normal -0.431739 -0.901999 0.000000
outer loop
vertex 0.002547 0.000304 0.000000
vertex 0.002843 0.000163 0.000000
vertex 0.002843 0.000163 0.150000
endloop
endfacet
facet normal -0.431738 -0.901999 0.000000
outer loop
vertex 0.002547 0.000304 0.000000
vertex 0.002843 0.000163 0.150000
vertex 0.002547 0.000304 0.150000
endloop
endfacet
facet normal 0.203741 -0.979025 0.000000
outer loop
vertex 0.004688 0.000176 0.000000
vertex 0.004688 0.000176 0.150000
vertex 0.003968 0.000026 0.150000
endloop
endfacet
facet normal 0.203742 -0.979025 0.000000
outer loop
vertex 0.004688 0.000176 0.000000
vertex 0.003968 0.000026 0.150000
vertex 0.003968 0.000026 0.000000
endloop
endfacet
facet normal -0.791327 0.611394 0.000000
outer loop
vertex 0.000205 0.005889 0.150000
vertex 0.000205 0.005889 0.000000
vertex 0.000055 0.005694 0.000000
endloop
endfacet
facet normal -0.791327 0.611394 0.000000
outer loop
vertex 0.000205 0.005889 0.150000
vertex 0.000055 0.005694 0.000000
vertex 0.000055 0.005694 0.150000
endloop
endfacet
facet normal -0.866653 -0.498912 0.000000
outer loop
vertex 0.000930 0.001789 0.150000
vertex 0.000930 0.001789 0.000000
vertex 0.001011 0.001648 0.000000
endloop
endfacet
facet normal -0.866652 -0.498913 0.000000
outer loop
vertex 0.000930 0.001789 0.150000
vertex 0.001011 0.001648 0.000000
vertex 0.001011 0.001648 0.150000
endloop
endfacet
facet normal -0.713968 -0.700178 0.000000
outer loop
vertex 0.001227 0.001357 0.000000
vertex 0.001535 0.001042 0.000000
vertex 0.001535 0.001042 0.150000
endloop
endfacet
facet normal -0.713968 -0.700178 0.000000
outer loop
vertex 0.001227 0.001357 0.000000
vertex 0.001535 0.001042 0.150000
vertex 0.001227 0.001357 0.150000
endloop
endfacet
facet normal -0.964432 -0.264330 0.000000
outer loop
vertex 0.000395 0.003273 0.150000
vertex 0.000331 0.003506 0.150000
vertex 0.000331 0.003506 0.000000
endloop
endfacet
facet normal -0.964432 -0.264330 0.000000
outer loop
vertex 0.000395 0.003273 0.150000
vertex 0.000331 0.003506 0.000000
vertex 0.000395 0.003273 0.000000
endloop
endfacet
facet normal -0.945067 -0.326878 0.000000
outer loop
vertex 0.000802 0.002072 0.000000
vertex 0.000802 0.002072 0.150000
vertex 0.000461 0.003058 0.150000
endloop
endfacet
facet normal -0.956013 -0.293325 0.000000
outer loop
vertex 0.000461 0.003058 0.150000
vertex 0.000395 0.003273 0.150000
vertex 0.000395 0.003273 0.000000
endloop
endfacet
facet normal -0.945067 -0.326878 0.000000
outer loop
vertex 0.000461 0.003058 0.000000
vertex 0.000802 0.002072 0.000000
vertex 0.000461 0.003058 0.150000
endloop
endfacet
facet normal -0.956013 -0.293325 0.000000
outer loop
vertex 0.000395 0.003273 0.000000
vertex 0.000461 0.003058 0.000000
vertex 0.000461 0.003058 0.150000
endloop
endfacet
facet normal -0.331616 -0.943415 0.000000
outer loop
vertex 0.002843 0.000163 0.150000
vertex 0.002843 0.000163 0.000000
vertex 0.003116 0.000067 0.000000
endloop
endfacet
facet normal -0.331616 -0.943415 0.000000
outer loop
vertex 0.002843 0.000163 0.150000
vertex 0.003116 0.000067 0.000000
vertex 0.003116 0.000067 0.150000
endloop
endfacet
facet normal -0.663536 0.748144 0.000000
outer loop
vertex 0.000718 0.006345 0.150000
vertex 0.000718 0.006345 0.000000
vertex 0.000205 0.005889 0.000000
endloop
endfacet
facet normal -0.663536 0.748144 0.000000
outer loop
vertex 0.000718 0.006345 0.150000
vertex 0.000205 0.005889 0.000000
vertex 0.000205 0.005889 0.150000
endloop
endfacet
facet normal 0.995816 0.091385 0.000000
outer loop
vertex 0.007962 0.005630 0.150000
vertex 0.007962 0.005630 0.000000
vertex 0.007950 0.005761 0.000000
endloop
endfacet
facet normal 0.995816 0.091385 0.000000
outer loop
vertex 0.007962 0.005630 0.150000
vertex 0.007950 0.005761 0.000000
vertex 0.007950 0.005761 0.150000
endloop
endfacet
facet normal 0.339415 -0.940637 0.000000
outer loop
vertex 0.004688 0.000176 0.150000
vertex 0.004688 0.000176 0.000000
vertex 0.005014 0.000293 0.000000
endloop
endfacet
facet normal 0.339414 -0.940637 0.000000
outer loop
vertex 0.004688 0.000176 0.150000
vertex 0.005014 0.000293 0.000000
vertex 0.005014 0.000293 0.150000
endloop
endfacet
endsolid Exported from Blender-3.6.8
