solid Exported from Blender-3.6.8
facet normal 0.486076 0.873917 0.000000
outer loop
vertex 0.010480 0.011599 0.150000
vertex 0.010480 0.011599 0.000000
vertex 0.010201 0.011755 0.000000
endloop
endfacet
facet normal 0.486074 0.873918 0.000000
outer loop
vertex 0.010480 0.011599 0.150000
vertex 0.010201 0.011755 0.000000
vertex 0.010201 0.011755 0.150000
endloop
endfacet
facet normal -0.775003 -0.631958 0.000000
outer loop
vertex 0.003679 0.002082 0.150000
vertex 0.003679 0.002082 0.000000
vertex 0.003866 0.001853 0.000000
endloop
endfacet
facet normal -0.775003 -0.631958 0.000000
outer loop
vertex 0.003679 0.002082 0.150000
vertex 0.003866 0.001853 0.000000
vertex 0.003866 0.001853 0.150000
endloop
endfacet
facet normal -0.424637 0.905364 0.000000
outer loop
vertex 0.003730 0.012505 0.150000
vertex 0.003730 0.012505 0.000000
vertex 0.003482 0.012389 0.000000
endloop
endfacet
facet normal -0.424637 0.905364 0.000000
outer loop
vertex 0.003730 0.012505 0.150000
vertex 0.003482 0.012389 0.000000
vertex 0.003482 0.012389 0.150000
endloop
endfacet
facet normal 0.257074 0.966392 0.000000
outer loop
vertex 0.009823 0.011897 0.150000
vertex 0.009823 0.011897 0.000000
vertex 0.009332 0.012028 0.000000
endloop
endfacet
facet normal 0.257074 0.966392 0.000000
outer loop
vertex 0.009823 0.011897 0.150000
vertex 0.009332 0.012028 0.000000
vertex 0.009332 0.012028 0.150000
endloop
endfacet
facet normal 0.963843 0.266470 0.000000
outer loop
vertex 0.011129 0.009819 0.150000
vertex 0.011129 0.009819 0.000000
vertex 0.011051 0.010100 0.000000
endloop
endfacet
facet normal 0.963843 0.266470 0.000000
outer loop
vertex 0.011129 0.009819 0.150000
vertex 0.011051 0.010100 0.000000
vertex 0.011051 0.010100 0.150000
endloop
endfacet
facet normal 0.996941 -0.078155 0.000000
outer loop
vertex 0.011677 0.006827 0.000000
vertex 0.011700 0.007114 0.000000
vertex 0.011700 0.007114 0.150000
endloop
endfacet
facet normal 0.996941 -0.078161 0.000000
outer loop
vertex 0.011677 0.006827 0.000000
vertex 0.011700 0.007114 0.150000
vertex 0.011677 0.006827 0.150000
endloop
endfacet
facet normal 0.988145 -0.153522 0.000000
outer loop
vertex 0.011519 0.005727 0.150000
vertex 0.011519 0.005727 0.000000
vertex 0.011646 0.006543 0.000000
endloop
endfacet
facet normal 0.993760 -0.111535 0.000000
outer loop
vertex 0.011646 0.006543 0.000000
vertex 0.011677 0.006827 0.000000
vertex 0.011677 0.006827 0.150000
endloop
endfacet
facet normal 0.988146 -0.153520 0.000000
outer loop
vertex 0.011646 0.006543 0.150000
vertex 0.011519 0.005727 0.150000
vertex 0.011646 0.006543 0.000000
endloop
endfacet
facet normal 0.993761 -0.111530 0.000000
outer loop
vertex 0.011677 0.006827 0.150000
vertex 0.011646 0.006543 0.150000
vertex 0.011646 0.006543 0.000000
endloop
endfacet
facet normal 0.871239 -0.490859 0.000000
outer loop
vertex 0.009848 0.000696 0.000000
vertex 0.010447 0.001759 0.000000
vertex 0.010447 0.001759 0.150000
endloop
endfacet
facet normal 0.871239 -0.490859 0.000000
outer loop
vertex 0.009848 0.000696 0.000000
vertex 0.010447 0.001759 0.150000
vertex 0.009848 0.000696 0.150000
endloop
endfacet
facet normal 0.000000 0.000000 -1.000000
outer loop
vertex 0.000030 0.008658 0.000000
vertex 0.000004 0.009490 0.000000
vertex 0.000011 0.009559 0.000000
endloop
endfacet
facet normal 0.000000 0.000000 -1.000000
outer loop
vertex 0.000011 0.009559 0.000000
vertex 0.000022 0.009606 0.000000
vertex 0.000050 0.009648 0.000000
endloop
endfacet
facet normal 0.000000 0.000000 -1.000000
outer loop
vertex 0.000050 0.009648 0.000000
vertex 0.000106 0.009707 0.000000
vertex 0.000184 0.009781 0.000000
endloop
endfacet
facet normal 0.000000 0.000000 -1.000000
outer loop
vertex 0.000184 0.009781 0.000000
vertex 0.000279 0.009866 0.000000
vertex 0.000386 0.009960 0.000000
endloop
endfacet
facet normal 0.000000 0.000000 -1.000000
outer loop
vertex 0.000184 0.009781 0.000000
vertex 0.000386 0.009960 0.000000
vertex 0.000500 0.010059 0.000000
endloop
endfacet
facet normal 0.000000 0.000000 -1.000000
outer loop
vertex 0.000011 0.009559 0.000000
vertex 0.000050 0.009648 0.000000
vertex 0.000184 0.009781 0.000000
endloop
endfacet
facet normal 0.000000 0.000000 -1.000000
outer loop
vertex 0.000794 0.007546 0.000000
vertex 0.000030 0.008658 0.000000
vertex 0.000030 0.008658 0.000000
endloop
endfacet
facet normal 0.000000 0.000000 -1.000000
outer loop
vertex 0.000030 0.008658 0.000000
vertex 0.000011 0.009559 0.000000
vertex 0.000184 0.009781 0.000000
endloop
endfacet
facet normal 0.000000 0.000000 -1.000000
outer loop
vertex 0.000184 0.009781 0.000000
vertex 0.000500 0.010059 0.000000
vertex 0.000617 0.010161 0.000000
endloop
endfacet
facet normal 0.000000 0.000000 -1.000000
outer loop
vertex 0.000030 0.008658 0.000000
vertex 0.000184 0.009781 0.000000
vertex 0.000617 0.010161 0.000000
endloop
endfacet
facet normal 0.000000 0.000000 -1.000000
outer loop
vertex 0.000794 0.007546 0.000000
vertex 0.000030 0.008658 0.000000
vertex 0.000617 0.010161 0.000000
endloop
endfacet
facet normal 0.000000 0.000000 -1.000000
outer loop
vertex 0.000794 0.007546 0.000000
vertex 0.000617 0.010161 0.000000
vertex 0.000731 0.010263 0.000000
endloop
endfacet
facet normal 0.000000 0.000000 -1.000000
outer loop
vertex 0.001407 0.006620 0.000000
vertex 0.000794 0.007546 0.000000
vertex 0.000731 0.010263 0.000000
endloop
endfacet
facet normal 0.000000 0.000000 -1.000000
outer loop
vertex 0.001407 0.006620 0.000000
vertex 0.000731 0.010263 0.000000
vertex 0.000838 0.010363 0.000000
endloop
endfacet
facet normal 0.000000 0.000000 -1.000000
outer loop
vertex 0.001584 0.006339 0.000000
vertex 0.001407 0.006620 0.000000
vertex 0.000838 0.010363 0.000000
endloop
endfacet
facet normal 0.000000 0.000000 -1.000000
outer loop
vertex 0.000932 0.010457 0.000000
vertex 0.001139 0.010711 0.000000
vertex 0.001282 0.010846 0.000000
endloop
endfacet
facet normal 0.000000 0.000000 -1.000000
outer loop
vertex 0.001584 0.006339 0.000000
vertex 0.000838 0.010363 0.000000
vertex 0.000932 0.010457 0.000000
endloop
endfacet
facet normal 0.000000 0.000000 -1.000000
outer loop
vertex 0.001734 0.006091 0.000000
vertex 0.001584 0.006339 0.000000
vertex 0.000932 0.010457 0.000000
endloop
endfacet
facet normal 0.000000 0.000000 -1.000000
outer loop
vertex 0.000932 0.010457 0.000000
vertex 0.001282 0.010846 0.000000
vertex 0.001478 0.011015 0.000000
endloop
endfacet
facet normal 0.000000 0.000000 -1.000000
outer loop
vertex 0.001478 0.011015 0.000000
vertex 0.001718 0.011209 0.000000
vertex 0.002904 0.012052 0.000000
endloop
endfacet
facet normal 0.000000 0.000000 -1.000000
outer loop
vertex 0.002904 0.012052 0.000000
vertex 0.003482 0.012389 0.000000
vertex 0.003730 0.012505 0.000000
endloop
endfacet
facet normal 0.000000 0.000000 -1.000000
outer loop
vertex 0.003730 0.012505 0.000000
vertex 0.003936 0.012575 0.000000
vertex 0.004153 0.012610 0.000000
endloop
endfacet
facet normal 0.000000 0.000000 -1.000000
outer loop
vertex 0.004153 0.012610 0.000000
vertex 0.004435 0.012629 0.000000
vertex 0.005603 0.012594 0.000000
endloop
endfacet
facet normal 0.000000 0.000000 -1.000000
outer loop
vertex 0.005603 0.012594 0.000000
vertex 0.006582 0.012498 0.000000
vertex 0.007658 0.012348 0.000000
endloop
endfacet
facet normal 0.000000 0.000000 -1.000000
outer loop
vertex 0.007658 0.012348 0.000000
vertex 0.009332 0.012028 0.000000
vertex 0.009823 0.011897 0.000000
endloop
endfacet
facet normal 0.000000 0.000000 -1.000000
outer loop
vertex 0.009823 0.011897 0.000000
vertex 0.010201 0.011755 0.000000
vertex 0.010480 0.011599 0.000000
endloop
endfacet
facet normal 0.000000 0.000000 -1.000000
outer loop
vertex 0.010480 0.011599 0.000000
vertex 0.010677 0.011431 0.000000
vertex 0.010809 0.011248 0.000000
endloop
endfacet
facet normal 0.000000 0.000000 -1.000000
outer loop
vertex 0.010809 0.011248 0.000000
vertex 0.010892 0.011050 0.000000
vertex 0.010941 0.010837 0.000000
endloop
endfacet
facet normal 0.000000 0.000000 -1.000000
outer loop
vertex 0.010809 0.011248 0.000000
vertex 0.010941 0.010837 0.000000
vertex 0.011005 0.010363 0.000000
endloop
endfacet
facet normal 0.000000 0.000000 -1.000000
outer loop
vertex 0.009823 0.011897 0.000000
vertex 0.010480 0.011599 0.000000
vertex 0.010809 0.011248 0.000000
endloop
endfacet
facet normal 0.000000 0.000000 -1.000000
outer loop
vertex 0.005603 0.012594 0.000000
vertex 0.007658 0.012348 0.000000
vertex 0.009823 0.011897 0.000000
endloop
endfacet
facet normal 0.000000 0.000000 -1.000000
outer loop
vertex 0.003730 0.012505 0.000000
vertex 0.004153 0.012610 0.000000
vertex 0.005603 0.012594 0.000000
endloop
endfacet
facet normal 0.000000 0.000000 -1.000000
outer loop
vertex 0.001478 0.011015 0.000000
vertex 0.002904 0.012052 0.000000
vertex 0.003730 0.012505 0.000000
endloop
endfacet
facet normal 0.000000 0.000000 -1.000000
outer loop
vertex 0.001734 0.006091 0.000000
vertex 0.000932 0.010457 0.000000
vertex 0.001478 0.011015 0.000000
endloop
endfacet
facet normal 0.000000 0.000000 -1.000000
outer loop
vertex 0.001915 0.005743 0.000000
vertex 0.001734 0.006091 0.000000
vertex 0.001478 0.011015 0.000000
endloop
endfacet
facet normal 0.000000 0.000000 -1.000000
outer loop
vertex 0.001478 0.011015 0.000000
vertex 0.003730 0.012505 0.000000
vertex 0.005603 0.012594 0.000000
endloop
endfacet
facet normal 0.000000 0.000000 -1.000000
outer loop
vertex 0.005603 0.012594 0.000000
vertex 0.009823 0.011897 0.000000
vertex 0.010809 0.011248 0.000000
endloop
endfacet
facet normal 0.000000 0.000000 -1.000000
outer loop
vertex 0.010809 0.011248 0.000000
vertex 0.011005 0.010363 0.000000
vertex 0.011051 0.010100 0.000000
endloop
endfacet
facet normal 0.000000 0.000000 -1.000000
outer loop
vertex 0.011129 0.009819 0.000000
vertex 0.011504 0.008903 0.000000
vertex 0.011648 0.008296 0.000000
endloop
endfacet
facet normal 0.000000 0.000000 -1.000000
outer loop
vertex 0.005603 0.012594 0.000000
vertex 0.010809 0.011248 0.000000
vertex 0.011051 0.010100 0.000000
endloop
endfacet
facet normal 0.000000 0.000000 -1.000000
outer loop
vertex 0.011129 0.009819 0.000000
vertex 0.011648 0.008296 0.000000
vertex 0.011707 0.007699 0.000000
endloop
endfacet
facet normal 0.000000 0.000000 -1.000000
outer loop
vertex 0.005603 0.012594 0.000000
vertex 0.011051 0.010100 0.000000
vertex 0.011129 0.009819 0.000000
endloop
endfacet
facet normal 0.000000 0.000000 -1.000000
outer loop
vertex 0.001915 0.005743 0.000000
vertex 0.001478 0.011015 0.000000
vertex 0.005603 0.012594 0.000000
endloop
endfacet
facet normal 0.000000 0.000000 -1.000000
outer loop
vertex 0.001952 0.005638 0.000000
vertex 0.001915 0.005743 0.000000
vertex 0.005603 0.012594 0.000000
endloop
endfacet
facet normal 0.000000 0.000000 -1.000000
outer loop
vertex 0.005603 0.012594 0.000000
vertex 0.011129 0.009819 0.000000
vertex 0.011707 0.007699 0.000000
endloop
endfacet
facet normal 0.000000 0.000000 -1.000000
outer loop
vertex 0.011707 0.007699 0.000000
vertex 0.011700 0.007114 0.000000
vertex 0.011677 0.006827 0.000000
endloop
endfacet
facet normal 0.000000 0.000000 -1.000000
outer loop
vertex 0.011677 0.006827 0.000000
vertex 0.011646 0.006543 0.000000
vertex 0.011519 0.005727 0.000000
endloop
endfacet
facet normal 0.000000 0.000000 -1.000000
outer loop
vertex 0.011519 0.005727 0.000000
vertex 0.011473 0.005487 0.000000
vertex 0.011426 0.005263 0.000000
endloop
endfacet
facet normal 0.000000 0.000000 -1.000000
outer loop
vertex 0.011426 0.005263 0.000000
vertex 0.011377 0.005050 0.000000
vertex 0.010741 0.002570 0.000000
endloop
endfacet
facet normal 0.000000 0.000000 -1.000000
outer loop
vertex 0.010741 0.002570 0.000000
vertex 0.010681 0.002360 0.000000
vertex 0.010624 0.002182 0.000000
endloop
endfacet
facet normal 0.000000 0.000000 -1.000000
outer loop
vertex 0.010624 0.002182 0.000000
vertex 0.010568 0.002028 0.000000
vertex 0.010447 0.001759 0.000000
endloop
endfacet
facet normal 0.000000 0.000000 -1.000000
outer loop
vertex 0.010447 0.001759 0.000000
vertex 0.009848 0.000696 0.000000
vertex 0.009706 0.000514 0.000000
endloop
endfacet
facet normal 0.000000 0.000000 -1.000000
outer loop
vertex 0.009706 0.000514 0.000000
vertex 0.009554 0.000366 0.000000
vertex 0.009394 0.000249 0.000000
endloop
endfacet
facet normal 0.000000 0.000000 -1.000000
outer loop
vertex 0.009394 0.000249 0.000000
vertex 0.009222 0.000160 0.000000
vertex 0.009040 0.000095 0.000000
endloop
endfacet
facet normal 0.000000 0.000000 -1.000000
outer loop
vertex 0.009040 0.000095 0.000000
vertex 0.008847 0.000050 0.000000
vertex 0.008422 0.000007 0.000000
endloop
endfacet
facet normal 0.000000 0.000000 -1.000000
outer loop
vertex 0.008422 0.000007 0.000000
vertex 0.008190 0.000001 0.000000
vertex 0.007943 0.000000 0.000000
endloop
endfacet
facet normal 0.000000 0.000000 -1.000000
outer loop
vertex 0.007943 0.000000 0.000000
vertex 0.007681 0.000002 0.000000
vertex 0.007417 0.000014 0.000000
endloop
endfacet
facet normal 0.000000 0.000000 -1.000000
outer loop
vertex 0.007417 0.000014 0.000000
vertex 0.006911 0.000092 0.000000
vertex 0.006422 0.000241 0.000000
endloop
endfacet
facet normal 0.000000 0.000000 -1.000000
outer loop
vertex 0.006422 0.000241 0.000000
vertex 0.005933 0.000455 0.000000
vertex 0.005683 0.000584 0.000000
endloop
endfacet
facet normal 0.000000 0.000000 -1.000000
outer loop
vertex 0.005683 0.000584 0.000000
vertex 0.005426 0.000728 0.000000
vertex 0.005161 0.000884 0.000000
endloop
endfacet
facet normal 0.000000 0.000000 -1.000000
outer loop
vertex 0.005161 0.000884 0.000000
vertex 0.004597 0.001235 0.000000
vertex 0.004320 0.001429 0.000000
endloop
endfacet
facet normal 0.000000 0.000000 -1.000000
outer loop
vertex 0.004320 0.001429 0.000000
vertex 0.004078 0.001635 0.000000
vertex 0.003866 0.001853 0.000000
endloop
endfacet
facet normal 0.000000 0.000000 -1.000000
outer loop
vertex 0.003866 0.001853 0.000000
vertex 0.003679 0.002082 0.000000
vertex 0.003365 0.002567 0.000000
endloop
endfacet
facet normal 0.000000 0.000000 -1.000000
outer loop
vertex 0.003365 0.002567 0.000000
vertex 0.002168 0.004987 0.000000
vertex 0.002117 0.005111 0.000000
endloop
endfacet
facet normal 0.000000 0.000000 -1.000000
outer loop
vertex 0.002117 0.005111 0.000000
vertex 0.002079 0.005215 0.000000
vertex 0.002049 0.005305 0.000000
endloop
endfacet
facet normal 0.000000 0.000000 -1.000000
outer loop
vertex 0.002049 0.005305 0.000000
vertex 0.002025 0.005387 0.000000
vertex 0.001980 0.005548 0.000000
endloop
endfacet
facet normal 0.000000 0.000000 -1.000000
outer loop
vertex 0.001980 0.005548 0.000000
vertex 0.001952 0.005638 0.000000
vertex 0.005603 0.012594 0.000000
endloop
endfacet
facet normal 0.000000 0.000000 -1.000000
outer loop
vertex 0.005603 0.012594 0.000000
vertex 0.011707 0.007699 0.000000
vertex 0.011677 0.006827 0.000000
endloop
endfacet
facet normal 0.000000 0.000000 -1.000000
outer loop
vertex 0.011677 0.006827 0.000000
vertex 0.011519 0.005727 0.000000
vertex 0.011426 0.005263 0.000000
endloop
endfacet
facet normal 0.000000 0.000000 -1.000000
outer loop
vertex 0.011426 0.005263 0.000000
vertex 0.010741 0.002570 0.000000
vertex 0.010624 0.002182 0.000000
endloop
endfacet
facet normal 0.000000 0.000000 -1.000000
outer loop
vertex 0.010624 0.002182 0.000000
vertex 0.010447 0.001759 0.000000
vertex 0.009706 0.000514 0.000000
endloop
endfacet
facet normal 0.000000 0.000000 -1.000000
outer loop
vertex 0.009706 0.000514 0.000000
vertex 0.009394 0.000249 0.000000
vertex 0.009040 0.000095 0.000000
endloop
endfacet
facet normal 0.000000 0.000000 -1.000000
outer loop
vertex 0.009040 0.000095 0.000000
vertex 0.008422 0.000007 0.000000
vertex 0.007943 0.000000 0.000000
endloop
endfacet
facet normal 0.000000 0.000000 -1.000000
outer loop
vertex 0.007943 0.000000 0.000000
vertex 0.007417 0.000014 0.000000
vertex 0.006422 0.000241 0.000000
endloop
endfacet
facet normal 0.000000 0.000000 -1.000000
outer loop
vertex 0.006422 0.000241 0.000000
vertex 0.005683 0.000584 0.000000
vertex 0.005161 0.000884 0.000000
endloop
endfacet
facet normal 0.000000 0.000000 -1.000000
outer loop
vertex 0.005161 0.000884 0.000000
vertex 0.004320 0.001429 0.000000
vertex 0.003866 0.001853 0.000000
endloop
endfacet
facet normal 0.000000 0.000000 -1.000000
outer loop
vertex 0.003866 0.001853 0.000000
vertex 0.003365 0.002567 0.000000
vertex 0.002117 0.005111 0.000000
endloop
endfacet
facet normal 0.000000 0.000000 -1.000000
outer loop
vertex 0.002117 0.005111 0.000000
vertex 0.002049 0.005305 0.000000
vertex 0.001980 0.005548 0.000000
endloop
endfacet
facet normal 0.000000 0.000000 -1.000000
outer loop
vertex 0.001980 0.005548 0.000000
vertex 0.005603 0.012594 0.000000
vertex 0.011677 0.006827 0.000000
endloop
endfacet
facet normal 0.000000 0.000000 -1.000000
outer loop
vertex 0.011677 0.006827 0.000000
vertex 0.011426 0.005263 0.000000
vertex 0.010624 0.002182 0.000000
endloop
endfacet
facet normal 0.000000 0.000000 -1.000000
outer loop
vertex 0.010624 0.002182 0.000000
vertex 0.009706 0.000514 0.000000
vertex 0.009040 0.000095 0.000000
endloop
endfacet
facet normal 0.000000 0.000000 -1.000000
outer loop
vertex 0.009040 0.000095 0.000000
vertex 0.007943 0.000000 0.000000
vertex 0.006422 0.000241 0.000000
endloop
endfacet
facet normal 0.000000 0.000000 -1.000000
outer loop
vertex 0.006422 0.000241 0.000000
vertex 0.005161 0.000884 0.000000
vertex 0.003866 0.001853 0.000000
endloop
endfacet
facet normal 0.000000 0.000000 -1.000000
outer loop
vertex 0.003866 0.001853 0.000000
vertex 0.002117 0.005111 0.000000
vertex 0.001980 0.005548 0.000000
endloop
endfacet
facet normal 0.000000 0.000000 -1.000000
outer loop
vertex 0.001980 0.005548 0.000000
vertex 0.011677 0.006827 0.000000
vertex 0.010624 0.002182 0.000000
endloop
endfacet
facet normal 0.000000 0.000000 -1.000000
outer loop
vertex 0.010624 0.002182 0.000000
vertex 0.009040 0.000095 0.000000
vertex 0.006422 0.000241 0.000000
endloop
endfacet
facet normal 0.000000 0.000000 -1.000000
outer loop
vertex 0.006422 0.000241 0.000000
vertex 0.003866 0.001853 0.000000
vertex 0.001980 0.005548 0.000000
endloop
endfacet
facet normal 0.000000 0.000000 -1.000000
outer loop
vertex 0.010624 0.002182 0.000000
vertex 0.006422 0.000241 0.000000
vertex 0.001980 0.005548 0.000000
endloop
endfacet
facet normal 0.810543 0.585679 0.000000
outer loop
vertex 0.010809 0.011248 0.150000
vertex 0.010809 0.011248 0.000000
vertex 0.010677 0.011431 0.000000
endloop
endfacet
facet normal 0.810543 0.585679 0.000000
outer loop
vertex 0.010809 0.011248 0.150000
vertex 0.010677 0.011431 0.000000
vertex 0.010677 0.011431 0.150000
endloop
endfacet
facet normal 0.000000 0.000000 1.000000
outer loop
vertex 0.010741 0.002570 0.150000
vertex 0.011377 0.005050 0.150000
vertex 0.011426 0.005263 0.150000
endloop
endfacet
facet normal 0.006941 0.000000 0.999976
outer loop
vertex 0.011426 0.005263 0.150000
vertex 0.011473 0.005487 0.150000
vertex 0.011519 0.005727 0.150000
endloop
endfacet
facet normal -0.000728 0.000000 1.000000
outer loop
vertex 0.011519 0.005727 0.150000
vertex 0.011646 0.006543 0.150000
vertex 0.011677 0.006827 0.150000
endloop
endfacet
facet normal 0.001318 0.000000 0.999999
outer loop
vertex 0.011677 0.006827 0.150000
vertex 0.011700 0.007114 0.150000
vertex 0.011707 0.007699 0.150000
endloop
endfacet
facet normal 0.000000 0.000000 1.000000
outer loop
vertex 0.011707 0.007699 0.150000
vertex 0.011648 0.008296 0.150000
vertex 0.011504 0.008903 0.150000
endloop
endfacet
facet normal 0.000000 0.000000 1.000000
outer loop
vertex 0.011707 0.007699 0.150000
vertex 0.011504 0.008903 0.150000
vertex 0.011129 0.009819 0.150000
endloop
endfacet
facet normal -0.000276 0.000000 1.000000
outer loop
vertex 0.011519 0.005727 0.150000
vertex 0.011677 0.006827 0.150000
vertex 0.011707 0.007699 0.150000
endloop
endfacet
facet normal -0.000651 0.000000 1.000000
outer loop
vertex 0.010741 0.002570 0.150000
vertex 0.011426 0.005263 0.150000
vertex 0.011519 0.005727 0.150000
endloop
endfacet
facet normal 0.000000 0.000000 1.000000
outer loop
vertex 0.010624 0.002182 0.150000
vertex 0.010681 0.002360 0.150000
vertex 0.010741 0.002570 0.150000
endloop
endfacet
facet normal -0.001068 0.000000 0.999999
outer loop
vertex 0.010447 0.001759 0.150000
vertex 0.010568 0.002028 0.150000
vertex 0.010624 0.002182 0.150000
endloop
endfacet
facet normal 0.000690 0.000000 1.000000
outer loop
vertex 0.009706 0.000514 0.150000
vertex 0.009848 0.000696 0.150000
vertex 0.010447 0.001759 0.150000
endloop
endfacet
facet normal 0.000594 0.000000 1.000000
outer loop
vertex 0.009394 0.000249 0.150000
vertex 0.009554 0.000366 0.150000
vertex 0.009706 0.000514 0.150000
endloop
endfacet
facet normal 0.000000 0.000000 1.000000
outer loop
vertex 0.009040 0.000095 0.150000
vertex 0.009222 0.000160 0.150000
vertex 0.009394 0.000249 0.150000
endloop
endfacet
facet normal 0.000086 0.000000 1.000000
outer loop
vertex 0.008422 0.000007 0.150000
vertex 0.008847 0.000050 0.150000
vertex 0.009040 0.000095 0.150000
endloop
endfacet
facet normal 0.000000 0.000000 1.000000
outer loop
vertex 0.007943 0.000000 0.150000
vertex 0.008190 0.000001 0.150000
vertex 0.008422 0.000007 0.150000
endloop
endfacet
facet normal 0.000000 0.000000 1.000000
outer loop
vertex 0.007417 0.000014 0.150000
vertex 0.007681 0.000002 0.150000
vertex 0.007943 0.000000 0.150000
endloop
endfacet
facet normal 0.000148 0.000000 1.000000
outer loop
vertex 0.006422 0.000241 0.150000
vertex 0.006911 0.000092 0.150000
vertex 0.007417 0.000014 0.150000
endloop
endfacet
facet normal 0.000738 0.000000 1.000000
outer loop
vertex 0.005683 0.000584 0.150000
vertex 0.005933 0.000455 0.150000
vertex 0.006422 0.000241 0.150000
endloop
endfacet
facet normal 0.000000 0.000000 1.000000
outer loop
vertex 0.005161 0.000884 0.150000
vertex 0.005426 0.000728 0.150000
vertex 0.005683 0.000584 0.150000
endloop
endfacet
facet normal 0.000595 0.000000 1.000000
outer loop
vertex 0.004320 0.001429 0.150000
vertex 0.004597 0.001235 0.150000
vertex 0.005161 0.000884 0.150000
endloop
endfacet
facet normal 0.000000 0.000000 1.000000
outer loop
vertex 0.003866 0.001853 0.150000
vertex 0.004078 0.001635 0.150000
vertex 0.004320 0.001429 0.150000
endloop
endfacet
facet normal 0.000389 0.000000 1.000000
outer loop
vertex 0.003365 0.002567 0.150000
vertex 0.003679 0.002082 0.150000
vertex 0.003866 0.001853 0.150000
endloop
endfacet
facet normal -0.002362 0.000000 0.999997
outer loop
vertex 0.002117 0.005111 0.150000
vertex 0.002168 0.004987 0.150000
vertex 0.003365 0.002567 0.150000
endloop
endfacet
facet normal 0.000000 0.000000 1.000000
outer loop
vertex 0.002049 0.005305 0.150000
vertex 0.002079 0.005215 0.150000
vertex 0.002117 0.005111 0.150000
endloop
endfacet
facet normal -0.012107 0.000000 0.999927
outer loop
vertex 0.001980 0.005548 0.150000
vertex 0.002025 0.005387 0.150000
vertex 0.002049 0.005305 0.150000
endloop
endfacet
facet normal 0.000000 0.000000 1.000000
outer loop
vertex 0.001980 0.005548 0.150000
vertex 0.002049 0.005305 0.150000
vertex 0.002117 0.005111 0.150000
endloop
endfacet
facet normal 0.000076 0.000000 1.000000
outer loop
vertex 0.002117 0.005111 0.150000
vertex 0.003365 0.002567 0.150000
vertex 0.003866 0.001853 0.150000
endloop
endfacet
facet normal 0.000000 0.000000 1.000000
outer loop
vertex 0.003866 0.001853 0.150000
vertex 0.004320 0.001429 0.150000
vertex 0.005161 0.000884 0.150000
endloop
endfacet
facet normal 0.000000 0.000000 1.000000
outer loop
vertex 0.005161 0.000884 0.150000
vertex 0.005683 0.000584 0.150000
vertex 0.006422 0.000241 0.150000
endloop
endfacet
facet normal -0.000017 0.000000 1.000000
outer loop
vertex 0.006422 0.000241 0.150000
vertex 0.007417 0.000014 0.150000
vertex 0.007943 0.000000 0.150000
endloop
endfacet
facet normal 0.000000 0.000000 1.000000
outer loop
vertex 0.007943 0.000000 0.150000
vertex 0.008422 0.000007 0.150000
vertex 0.009040 0.000095 0.150000
endloop
endfacet
facet normal -0.000161 0.000000 1.000000
outer loop
vertex 0.009040 0.000095 0.150000
vertex 0.009394 0.000249 0.150000
vertex 0.009706 0.000514 0.150000
endloop
endfacet
facet normal 0.000156 0.000000 1.000000
outer loop
vertex 0.009706 0.000514 0.150000
vertex 0.010447 0.001759 0.150000
vertex 0.010624 0.002182 0.150000
endloop
endfacet
facet normal 0.000000 0.000000 1.000000
outer loop
vertex 0.010624 0.002182 0.150000
vertex 0.010741 0.002570 0.150000
vertex 0.011519 0.005727 0.150000
endloop
endfacet
facet normal 0.000000 0.000000 1.000000
outer loop
vertex 0.011519 0.005727 0.150000
vertex 0.011707 0.007699 0.150000
vertex 0.011129 0.009819 0.150000
endloop
endfacet
facet normal 0.000209 0.000000 1.000000
outer loop
vertex 0.011519 0.005727 0.150000
vertex 0.011129 0.009819 0.150000
vertex 0.011051 0.010100 0.150000
endloop
endfacet
facet normal 0.000000 0.000000 1.000000
outer loop
vertex 0.009706 0.000514 0.150000
vertex 0.010624 0.002182 0.150000
vertex 0.011519 0.005727 0.150000
endloop
endfacet
facet normal 0.000000 0.000000 1.000000
outer loop
vertex 0.007943 0.000000 0.150000
vertex 0.009040 0.000095 0.150000
vertex 0.009706 0.000514 0.150000
endloop
endfacet
facet normal -0.000011 0.000000 1.000000
outer loop
vertex 0.005161 0.000884 0.150000
vertex 0.006422 0.000241 0.150000
vertex 0.007943 0.000000 0.150000
endloop
endfacet
facet normal -0.000012 0.000000 1.000000
outer loop
vertex 0.002117 0.005111 0.150000
vertex 0.003866 0.001853 0.150000
vertex 0.005161 0.000884 0.150000
endloop
endfacet
facet normal 0.000000 0.000000 1.000000
outer loop
vertex 0.001952 0.005638 0.150000
vertex 0.001980 0.005548 0.150000
vertex 0.002117 0.005111 0.150000
endloop
endfacet
facet normal 0.000000 0.000000 1.000000
outer loop
vertex 0.001952 0.005638 0.150000
vertex 0.002117 0.005111 0.150000
vertex 0.005161 0.000884 0.150000
endloop
endfacet
facet normal 0.000000 0.000000 1.000000
outer loop
vertex 0.005161 0.000884 0.150000
vertex 0.007943 0.000000 0.150000
vertex 0.009706 0.000514 0.150000
endloop
endfacet
facet normal 0.000022 0.000000 1.000000
outer loop
vertex 0.009706 0.000514 0.150000
vertex 0.011519 0.005727 0.150000
vertex 0.011051 0.010100 0.150000
endloop
endfacet
facet normal 0.000000 0.000000 1.000000
outer loop
vertex 0.011005 0.010363 0.150000
vertex 0.010941 0.010837 0.150000
vertex 0.010892 0.011050 0.150000
endloop
endfacet
facet normal -0.000118 0.000000 1.000000
outer loop
vertex 0.009706 0.000514 0.150000
vertex 0.011051 0.010100 0.150000
vertex 0.011005 0.010363 0.150000
endloop
endfacet
facet normal 0.000001 0.000000 1.000000
outer loop
vertex 0.001952 0.005638 0.150000
vertex 0.005161 0.000884 0.150000
vertex 0.009706 0.000514 0.150000
endloop
endfacet
facet normal 0.000000 0.000000 1.000000
outer loop
vertex 0.001915 0.005743 0.150000
vertex 0.001952 0.005638 0.150000
vertex 0.009706 0.000514 0.150000
endloop
endfacet
facet normal -0.000029 0.000000 1.000000
outer loop
vertex 0.009706 0.000514 0.150000
vertex 0.011005 0.010363 0.150000
vertex 0.010892 0.011050 0.150000
endloop
endfacet
facet normal 0.000332 0.000000 1.000000
outer loop
vertex 0.010892 0.011050 0.150000
vertex 0.010809 0.011248 0.150000
vertex 0.010677 0.011431 0.150000
endloop
endfacet
facet normal 0.000000 0.000000 1.000000
outer loop
vertex 0.010677 0.011431 0.150000
vertex 0.010480 0.011599 0.150000
vertex 0.010201 0.011755 0.150000
endloop
endfacet
facet normal -0.000175 0.000000 1.000000
outer loop
vertex 0.010201 0.011755 0.150000
vertex 0.009823 0.011897 0.150000
vertex 0.009332 0.012028 0.150000
endloop
endfacet
facet normal 0.000078 0.000000 1.000000
outer loop
vertex 0.009332 0.012028 0.150000
vertex 0.007658 0.012348 0.150000
vertex 0.006582 0.012498 0.150000
endloop
endfacet
facet normal -0.000012 0.000000 1.000000
outer loop
vertex 0.006582 0.012498 0.150000
vertex 0.005603 0.012594 0.150000
vertex 0.004435 0.012629 0.150000
endloop
endfacet
facet normal 0.000158 0.000000 1.000000
outer loop
vertex 0.004435 0.012629 0.150000
vertex 0.004153 0.012610 0.150000
vertex 0.003936 0.012575 0.150000
endloop
endfacet
facet normal -0.000537 0.000000 1.000000
outer loop
vertex 0.003936 0.012575 0.150000
vertex 0.003730 0.012505 0.150000
vertex 0.003482 0.012389 0.150000
endloop
endfacet
facet normal 0.000333 0.000000 1.000000
outer loop
vertex 0.003482 0.012389 0.150000
vertex 0.002904 0.012052 0.150000
vertex 0.001718 0.011209 0.150000
endloop
endfacet
facet normal 0.000000 0.000000 1.000000
outer loop
vertex 0.001718 0.011209 0.150000
vertex 0.001478 0.011015 0.150000
vertex 0.001282 0.010846 0.150000
endloop
endfacet
facet normal 0.000000 0.000000 1.000000
outer loop
vertex 0.001282 0.010846 0.150000
vertex 0.001139 0.010711 0.150000
vertex 0.000932 0.010457 0.150000
endloop
endfacet
facet normal -0.000169 0.000000 1.000000
outer loop
vertex 0.001718 0.011209 0.150000
vertex 0.001282 0.010846 0.150000
vertex 0.000932 0.010457 0.150000
endloop
endfacet
facet normal -0.000140 0.000000 1.000000
outer loop
vertex 0.003936 0.012575 0.150000
vertex 0.003482 0.012389 0.150000
vertex 0.001718 0.011209 0.150000
endloop
endfacet
facet normal 0.000010 0.000000 1.000000
outer loop
vertex 0.006582 0.012498 0.150000
vertex 0.004435 0.012629 0.150000
vertex 0.003936 0.012575 0.150000
endloop
endfacet
facet normal -0.000042 0.000000 1.000000
outer loop
vertex 0.010201 0.011755 0.150000
vertex 0.009332 0.012028 0.150000
vertex 0.006582 0.012498 0.150000
endloop
endfacet
facet normal 0.000000 0.000000 1.000000
outer loop
vertex 0.010892 0.011050 0.150000
vertex 0.010677 0.011431 0.150000
vertex 0.010201 0.011755 0.150000
endloop
endfacet
facet normal 0.000000 0.000000 1.000000
outer loop
vertex 0.001915 0.005743 0.150000
vertex 0.009706 0.000514 0.150000
vertex 0.010892 0.011050 0.150000
endloop
endfacet
facet normal 0.000000 0.000000 1.000000
outer loop
vertex 0.001734 0.006091 0.150000
vertex 0.001915 0.005743 0.150000
vertex 0.010892 0.011050 0.150000
endloop
endfacet
facet normal 0.000000 0.000000 1.000000
outer loop
vertex 0.010892 0.011050 0.150000
vertex 0.010201 0.011755 0.150000
vertex 0.006582 0.012498 0.150000
endloop
endfacet
facet normal 0.000000 0.000000 1.000000
outer loop
vertex 0.006582 0.012498 0.150000
vertex 0.003936 0.012575 0.150000
vertex 0.001718 0.011209 0.150000
endloop
endfacet
facet normal 0.002554 0.000000 0.999997
outer loop
vertex 0.001718 0.011209 0.150000
vertex 0.000932 0.010457 0.150000
vertex 0.000838 0.010363 0.150000
endloop
endfacet
facet normal 0.000000 0.000000 1.000000
outer loop
vertex 0.006582 0.012498 0.150000
vertex 0.001718 0.011209 0.150000
vertex 0.000838 0.010363 0.150000
endloop
endfacet
facet normal -0.000002 0.000000 1.000000
outer loop
vertex 0.001734 0.006091 0.150000
vertex 0.010892 0.011050 0.150000
vertex 0.006582 0.012498 0.150000
endloop
endfacet
facet normal 0.000000 0.000000 1.000000
outer loop
vertex 0.001584 0.006339 0.150000
vertex 0.001734 0.006091 0.150000
vertex 0.006582 0.012498 0.150000
endloop
endfacet
facet normal 0.000037 0.000000 1.000000
outer loop
vertex 0.006582 0.012498 0.150000
vertex 0.000838 0.010363 0.150000
vertex 0.000731 0.010263 0.150000
endloop
endfacet
facet normal 0.000074 0.000000 1.000000
outer loop
vertex 0.006582 0.012498 0.150000
vertex 0.000731 0.010263 0.150000
vertex 0.000617 0.010161 0.150000
endloop
endfacet
facet normal 0.000047 0.000000 1.000000
outer loop
vertex 0.001407 0.006620 0.150000
vertex 0.001584 0.006339 0.150000
vertex 0.006582 0.012498 0.150000
endloop
endfacet
facet normal 0.000000 0.000000 1.000000
outer loop
vertex 0.000030 0.008658 0.150000
vertex 0.000030 0.008658 0.150000
vertex 0.000794 0.007546 0.150000
endloop
endfacet
facet normal 0.000000 0.000000 1.000000
outer loop
vertex 0.000794 0.007546 0.150000
vertex 0.001407 0.006620 0.150000
vertex 0.006582 0.012498 0.150000
endloop
endfacet
facet normal -0.000130 0.000000 1.000000
outer loop
vertex 0.006582 0.012498 0.150000
vertex 0.000617 0.010161 0.150000
vertex 0.000500 0.010059 0.150000
endloop
endfacet
facet normal 0.000000 0.000000 1.000000
outer loop
vertex 0.000500 0.010059 0.150000
vertex 0.000386 0.009960 0.150000
vertex 0.000279 0.009866 0.150000
endloop
endfacet
facet normal -0.004799 0.000000 0.999988
outer loop
vertex 0.000279 0.009866 0.150000
vertex 0.000184 0.009781 0.150000
vertex 0.000106 0.009707 0.150000
endloop
endfacet
facet normal -0.001371 0.000000 0.999999
outer loop
vertex 0.000106 0.009707 0.150000
vertex 0.000050 0.009648 0.150000
vertex 0.000022 0.009606 0.150000
endloop
endfacet
facet normal -0.004032 0.000000 0.999992
outer loop
vertex 0.000022 0.009606 0.150000
vertex 0.000011 0.009559 0.150000
vertex 0.000004 0.009490 0.150000
endloop
endfacet
facet normal 0.000048 0.000000 1.000000
outer loop
vertex 0.000004 0.009490 0.150000
vertex 0.000030 0.008658 0.150000
vertex 0.000794 0.007546 0.150000
endloop
endfacet
facet normal 0.000000 0.000000 1.000000
outer loop
vertex 0.000794 0.007546 0.150000
vertex 0.006582 0.012498 0.150000
vertex 0.000500 0.010059 0.150000
endloop
endfacet
facet normal 0.000000 0.000000 1.000000
outer loop
vertex 0.000500 0.010059 0.150000
vertex 0.000279 0.009866 0.150000
vertex 0.000106 0.009707 0.150000
endloop
endfacet
facet normal 0.000000 0.000000 1.000000
outer loop
vertex 0.000106 0.009707 0.150000
vertex 0.000022 0.009606 0.150000
vertex 0.000004 0.009490 0.150000
endloop
endfacet
facet normal 0.000000 0.000000 1.000000
outer loop
vertex 0.000004 0.009490 0.150000
vertex 0.000794 0.007546 0.150000
vertex 0.000500 0.010059 0.150000
endloop
endfacet
facet normal 0.000000 0.000000 1.000000
outer loop
vertex 0.000500 0.010059 0.150000
vertex 0.000106 0.009707 0.150000
vertex 0.000004 0.009490 0.150000
endloop
endfacet
facet normal -0.829426 0.558618 0.000000
outer loop
vertex 0.000050 0.009648 0.150000
vertex 0.000050 0.009648 0.000000
vertex 0.000022 0.009606 0.000000
endloop
endfacet
facet normal -0.829425 0.558618 0.000000
outer loop
vertex 0.000050 0.009648 0.150000
vertex 0.000022 0.009606 0.000000
vertex 0.000022 0.009606 0.150000
endloop
endfacet
facet normal -0.995114 0.098733 0.000000
outer loop
vertex 0.000011 0.009559 0.150000
vertex 0.000011 0.009559 0.000000
vertex 0.000004 0.009490 0.000000
endloop
endfacet
facet normal -0.995114 0.098733 0.000000
outer loop
vertex 0.000011 0.009559 0.150000
vertex 0.000004 0.009490 0.000000
vertex 0.000004 0.009490 0.150000
endloop
endfacet
facet normal -0.579439 0.815016 0.000000
outer loop
vertex 0.002904 0.012052 0.150000
vertex 0.002904 0.012052 0.000000
vertex 0.001718 0.011209 0.000000
endloop
endfacet
facet normal -0.579439 0.815016 0.000000
outer loop
vertex 0.002904 0.012052 0.150000
vertex 0.001718 0.011209 0.000000
vertex 0.001718 0.011209 0.150000
endloop
endfacet
facet normal 0.353800 0.935321 0.000000
outer loop
vertex 0.010201 0.011755 0.150000
vertex 0.010201 0.011755 0.000000
vertex 0.009823 0.011897 0.000000
endloop
endfacet
facet normal 0.353800 0.935321 0.000000
outer loop
vertex 0.010201 0.011755 0.150000
vertex 0.009823 0.011897 0.000000
vertex 0.009823 0.011897 0.150000
endloop
endfacet
facet normal -0.319128 0.947712 0.000000
outer loop
vertex 0.003936 0.012575 0.150000
vertex 0.003936 0.012575 0.000000
vertex 0.003730 0.012505 0.000000
endloop
endfacet
facet normal -0.319128 0.947712 0.000000
outer loop
vertex 0.003936 0.012575 0.150000
vertex 0.003730 0.012505 0.000000
vertex 0.003730 0.012505 0.150000
endloop
endfacet
facet normal 0.000000 0.000000 -1.000000
outer loop
vertex 0.001407 0.006620 0.000000
vertex 0.001584 0.006339 0.000000
vertex 0.001734 0.006091 0.000000
endloop
endfacet
facet normal -0.855850 -0.517224 0.000000
outer loop
vertex 0.001734 0.006091 0.000000
vertex 0.001734 0.006091 0.150000
vertex 0.001584 0.006339 0.150000
endloop
endfacet
facet normal -0.845393 -0.534145 0.000038
outer loop
vertex 0.001734 0.006091 0.000000
vertex 0.001584 0.006339 0.150000
vertex 0.001407 0.006620 0.150000
endloop
endfacet
facet normal 0.000000 0.000000 -1.000000
outer loop
vertex 0.000794 0.007546 0.000000
vertex 0.001407 0.006620 0.000000
vertex 0.001734 0.006091 0.000000
endloop
endfacet
facet normal -0.824284 -0.566176 0.000000
outer loop
vertex 0.000030 0.008658 0.150000
vertex 0.000030 0.008658 0.000000
vertex 0.000794 0.007546 0.000000
endloop
endfacet
facet normal -0.833871 -0.551959 0.000126
outer loop
vertex 0.001734 0.006091 0.000000
vertex 0.001407 0.006620 0.150000
vertex 0.000794 0.007546 0.150000
endloop
endfacet
facet normal -0.824284 -0.566176 0.000000
outer loop
vertex 0.000794 0.007546 0.150000
vertex 0.000030 0.008658 0.150000
vertex 0.000794 0.007546 0.000000
endloop
endfacet
facet normal -0.839860 -0.542803 0.000000
outer loop
vertex 0.001734 0.006091 0.000000
vertex 0.000794 0.007546 0.150000
vertex 0.000794 0.007546 0.000000
endloop
endfacet
facet normal 0.337049 -0.941487 0.000000
outer loop
vertex 0.009040 0.000095 0.150000
vertex 0.009040 0.000095 0.000000
vertex 0.009222 0.000160 0.000000
endloop
endfacet
facet normal 0.337049 -0.941487 0.000000
outer loop
vertex 0.009040 0.000095 0.150000
vertex 0.009222 0.000160 0.000000
vertex 0.009222 0.000160 0.150000
endloop
endfacet
facet normal -0.291317 -0.956627 0.000000
outer loop
vertex 0.006911 0.000092 0.000000
vertex 0.006911 0.000092 0.150000
vertex 0.006422 0.000241 0.150000
endloop
endfacet
facet normal -0.291318 -0.956626 0.000000
outer loop
vertex 0.006911 0.000092 0.000000
vertex 0.006422 0.000241 0.150000
vertex 0.006422 0.000241 0.000000
endloop
endfacet
facet normal 0.982217 -0.187747 0.000000
outer loop
vertex 0.011473 0.005487 0.000000
vertex 0.011519 0.005727 0.000000
vertex 0.011519 0.005727 0.150000
endloop
endfacet
facet normal 0.982219 -0.187741 0.000000
outer loop
vertex 0.011473 0.005487 0.000000
vertex 0.011519 0.005727 0.150000
vertex 0.011473 0.005487 0.150000
endloop
endfacet
facet normal 0.978524 -0.206134 0.000000
outer loop
vertex 0.011426 0.005263 0.000000
vertex 0.011473 0.005487 0.000000
vertex 0.011473 0.005487 0.150000
endloop
endfacet
facet normal 0.978524 -0.206134 0.000000
outer loop
vertex 0.011426 0.005263 0.000000
vertex 0.011473 0.005487 0.150000
vertex 0.011426 0.005263 0.150000
endloop
endfacet
facet normal 0.974695 -0.223538 0.000000
outer loop
vertex 0.011377 0.005050 0.000000
vertex 0.011426 0.005263 0.000000
vertex 0.011426 0.005263 0.150000
endloop
endfacet
facet normal 0.974695 -0.223538 0.000000
outer loop
vertex 0.011377 0.005050 0.000000
vertex 0.011426 0.005263 0.150000
vertex 0.011377 0.005050 0.150000
endloop
endfacet
facet normal 0.968671 -0.248347 0.000000
outer loop
vertex 0.010741 0.002570 0.000000
vertex 0.011377 0.005050 0.000000
vertex 0.011377 0.005050 0.150000
endloop
endfacet
facet normal 0.968671 -0.248347 0.000000
outer loop
vertex 0.010741 0.002570 0.000000
vertex 0.011377 0.005050 0.150000
vertex 0.010741 0.002570 0.150000
endloop
endfacet
facet normal 0.961634 -0.274335 0.000000
outer loop
vertex 0.010681 0.002360 0.000000
vertex 0.010741 0.002570 0.000000
vertex 0.010741 0.002570 0.150000
endloop
endfacet
facet normal 0.961636 -0.274328 0.000000
outer loop
vertex 0.010681 0.002360 0.000000
vertex 0.010741 0.002570 0.150000
vertex 0.010681 0.002360 0.150000
endloop
endfacet
facet normal 0.939083 -0.343691 0.000000
outer loop
vertex 0.010568 0.002028 0.150000
vertex 0.010568 0.002028 0.000000
vertex 0.010624 0.002182 0.000000
endloop
endfacet
facet normal 0.952430 -0.304756 0.000000
outer loop
vertex 0.010624 0.002182 0.000000
vertex 0.010681 0.002360 0.000000
vertex 0.010681 0.002360 0.150000
endloop
endfacet
facet normal 0.939086 -0.343683 0.000000
outer loop
vertex 0.010624 0.002182 0.150000
vertex 0.010568 0.002028 0.150000
vertex 0.010624 0.002182 0.000000
endloop
endfacet
facet normal 0.952430 -0.304756 0.000000
outer loop
vertex 0.010681 0.002360 0.150000
vertex 0.010624 0.002182 0.150000
vertex 0.010624 0.002182 0.000000
endloop
endfacet
facet normal 0.788172 -0.615454 0.000000
outer loop
vertex 0.009706 0.000514 0.150000
vertex 0.009706 0.000514 0.000000
vertex 0.009848 0.000696 0.000000
endloop
endfacet
facet normal 0.788169 -0.615459 0.000000
outer loop
vertex 0.009706 0.000514 0.150000
vertex 0.009848 0.000696 0.000000
vertex 0.009848 0.000696 0.150000
endloop
endfacet
facet normal 0.995172 0.098150 0.000000
outer loop
vertex 0.011707 0.007699 0.150000
vertex 0.011707 0.007699 0.000000
vertex 0.011648 0.008296 0.000000
endloop
endfacet
facet normal 0.995172 0.098147 0.000000
outer loop
vertex 0.011707 0.007699 0.150000
vertex 0.011648 0.008296 0.000000
vertex 0.011648 0.008296 0.150000
endloop
endfacet
facet normal 0.999919 -0.012717 0.000000
outer loop
vertex 0.011700 0.007114 0.000000
vertex 0.011707 0.007699 0.000000
vertex 0.011707 0.007699 0.150000
endloop
endfacet
facet normal 0.999919 -0.012715 0.000000
outer loop
vertex 0.011700 0.007114 0.000000
vertex 0.011707 0.007699 0.150000
vertex 0.011700 0.007114 0.150000
endloop
endfacet
facet normal 0.649322 0.760514 0.000000
outer loop
vertex 0.010677 0.011431 0.150000
vertex 0.010677 0.011431 0.000000
vertex 0.010480 0.011599 0.000000
endloop
endfacet
facet normal 0.649322 0.760514 0.000000
outer loop
vertex 0.010677 0.011431 0.150000
vertex 0.010480 0.011599 0.000000
vertex 0.010480 0.011599 0.150000
endloop
endfacet
facet normal -0.896321 -0.443405 0.000000
outer loop
vertex 0.002168 0.004987 0.000000
vertex 0.003365 0.002567 0.000000
vertex 0.003365 0.002567 0.150000
endloop
endfacet
facet normal -0.896322 -0.443405 0.000000
outer loop
vertex 0.002168 0.004987 0.000000
vertex 0.003365 0.002567 0.150000
vertex 0.002168 0.004987 0.150000
endloop
endfacet
facet normal 0.972808 0.231613 0.000000
outer loop
vertex 0.011648 0.008296 0.000000
vertex 0.011504 0.008903 0.000000
vertex 0.011504 0.008903 0.150000
endloop
endfacet
facet normal 0.972808 0.231613 0.000000
outer loop
vertex 0.011648 0.008296 0.000000
vertex 0.011504 0.008903 0.150000
vertex 0.011648 0.008296 0.150000
endloop
endfacet
facet normal 0.025638 -0.999671 0.000000
outer loop
vertex 0.008190 0.000001 0.000000
vertex 0.008422 0.000007 0.000000
vertex 0.008422 0.000007 0.150000
endloop
endfacet
facet normal 0.025638 -0.999671 0.000000
outer loop
vertex 0.008190 0.000001 0.000000
vertex 0.008422 0.000007 0.150000
vertex 0.008190 0.000001 0.150000
endloop
endfacet
facet normal 0.000999 -1.000000 0.000000
outer loop
vertex 0.007943 0.000000 0.000000
vertex 0.008190 0.000001 0.000000
vertex 0.008190 0.000001 0.150000
endloop
endfacet
facet normal 0.000999 -1.000000 0.000000
outer loop
vertex 0.007943 0.000000 0.000000
vertex 0.008190 0.000001 0.150000
vertex 0.007943 0.000000 0.150000
endloop
endfacet
facet normal -0.042884 -0.999080 0.000000
outer loop
vertex 0.007417 0.000014 0.150000
vertex 0.007417 0.000014 0.000000
vertex 0.007681 0.000002 0.000000
endloop
endfacet
facet normal -0.006996 -0.999976 0.000000
outer loop
vertex 0.007681 0.000002 0.000000
vertex 0.007943 0.000000 0.000000
vertex 0.007943 0.000000 0.150000
endloop
endfacet
facet normal -0.042884 -0.999080 0.000000
outer loop
vertex 0.007681 0.000002 0.150000
vertex 0.007417 0.000014 0.150000
vertex 0.007681 0.000002 0.000000
endloop
endfacet
facet normal -0.006996 -0.999976 0.000000
outer loop
vertex 0.007943 0.000000 0.150000
vertex 0.007681 0.000002 0.150000
vertex 0.007681 0.000002 0.000000
endloop
endfacet
facet normal -0.999518 -0.031042 0.000000
outer loop
vertex 0.000004 0.009490 0.150000
vertex 0.000004 0.009490 0.000000
vertex 0.000030 0.008658 0.000000
endloop
endfacet
facet normal -0.999518 -0.031042 0.000000
outer loop
vertex 0.000004 0.009490 0.150000
vertex 0.000030 0.008658 0.000000
vertex 0.000030 0.008658 0.150000
endloop
endfacet
facet normal -0.067423 0.997724 0.000000
outer loop
vertex 0.004435 0.012629 0.150000
vertex 0.004435 0.012629 0.000000
vertex 0.004153 0.012610 0.000000
endloop
endfacet
facet normal -0.067423 0.997725 0.000000
outer loop
vertex 0.004435 0.012629 0.150000
vertex 0.004153 0.012610 0.000000
vertex 0.004153 0.012610 0.150000
endloop
endfacet
facet normal -0.399962 -0.916532 0.000000
outer loop
vertex 0.005933 0.000455 0.150000
vertex 0.005933 0.000455 0.000000
vertex 0.006422 0.000241 0.000000
endloop
endfacet
facet normal -0.399963 -0.916532 0.000000
outer loop
vertex 0.005933 0.000455 0.150000
vertex 0.006422 0.000241 0.000000
vertex 0.006422 0.000241 0.150000
endloop
endfacet
facet normal 0.925456 0.378855 0.000000
outer loop
vertex 0.011504 0.008903 0.000000
vertex 0.011129 0.009819 0.000000
vertex 0.011129 0.009819 0.150000
endloop
endfacet
facet normal 0.925456 0.378855 0.000000
outer loop
vertex 0.011504 0.008903 0.000000
vertex 0.011129 0.009819 0.150000
vertex 0.011504 0.008903 0.150000
endloop
endfacet
facet normal 0.029696 0.999559 0.000000
outer loop
vertex 0.005603 0.012594 0.150000
vertex 0.005603 0.012594 0.000000
vertex 0.004435 0.012629 0.000000
endloop
endfacet
facet normal 0.029696 0.999559 0.000000
outer loop
vertex 0.005603 0.012594 0.150000
vertex 0.004435 0.012629 0.000000
vertex 0.004435 0.012629 0.150000
endloop
endfacet
facet normal -0.503993 0.863708 0.000000
outer loop
vertex 0.003482 0.012389 0.150000
vertex 0.003482 0.012389 0.000000
vertex 0.002904 0.012052 0.000000
endloop
endfacet
facet normal -0.503992 0.863708 0.000000
outer loop
vertex 0.003482 0.012389 0.150000
vertex 0.002904 0.012052 0.000000
vertex 0.002904 0.012052 0.150000
endloop
endfacet
facet normal -0.159396 0.987215 0.000000
outer loop
vertex 0.004153 0.012610 0.150000
vertex 0.004153 0.012610 0.000000
vertex 0.003936 0.012575 0.000000
endloop
endfacet
facet normal -0.159396 0.987215 0.000000
outer loop
vertex 0.004153 0.012610 0.150000
vertex 0.003936 0.012575 0.000000
vertex 0.003936 0.012575 0.150000
endloop
endfacet
facet normal 0.461608 -0.887084 0.000000
outer loop
vertex 0.009222 0.000160 0.150000
vertex 0.009222 0.000160 0.000000
vertex 0.009394 0.000249 0.000000
endloop
endfacet
facet normal 0.461608 -0.887084 0.000000
outer loop
vertex 0.009222 0.000160 0.150000
vertex 0.009394 0.000249 0.000000
vertex 0.009394 0.000249 0.150000
endloop
endfacet
facet normal -0.839673 -0.543092 0.000000
outer loop
vertex 0.003365 0.002567 0.000000
vertex 0.003679 0.002082 0.000000
vertex 0.003679 0.002082 0.150000
endloop
endfacet
facet normal -0.839673 -0.543092 0.000000
outer loop
vertex 0.003365 0.002567 0.000000
vertex 0.003679 0.002082 0.150000
vertex 0.003365 0.002567 0.150000
endloop
endfacet
facet normal -0.972608 0.232453 0.000000
outer loop
vertex 0.000022 0.009606 0.150000
vertex 0.000022 0.009606 0.000000
vertex 0.000011 0.009559 0.000000
endloop
endfacet
facet normal -0.972608 0.232453 0.000000
outer loop
vertex 0.000022 0.009606 0.150000
vertex 0.000011 0.009559 0.000000
vertex 0.000011 0.009559 0.150000
endloop
endfacet
facet normal 0.586664 -0.809831 0.000000
outer loop
vertex 0.009394 0.000249 0.150000
vertex 0.009394 0.000249 0.000000
vertex 0.009554 0.000366 0.000000
endloop
endfacet
facet normal 0.586664 -0.809831 0.000000
outer loop
vertex 0.009394 0.000249 0.150000
vertex 0.009554 0.000366 0.000000
vertex 0.009554 0.000366 0.150000
endloop
endfacet
facet normal 0.698419 -0.715689 0.000000
outer loop
vertex 0.009554 0.000366 0.150000
vertex 0.009554 0.000366 0.000000
vertex 0.009706 0.000514 0.000000
endloop
endfacet
facet normal 0.698419 -0.715689 0.000000
outer loop
vertex 0.009554 0.000366 0.150000
vertex 0.009706 0.000514 0.000000
vertex 0.009706 0.000514 0.150000
endloop
endfacet
facet normal 0.000000 0.000000 -1.000000
outer loop
vertex 0.000617 0.010161 0.000000
vertex 0.000500 0.010059 0.000000
vertex 0.000386 0.009960 0.000000
endloop
endfacet
facet normal 0.000000 0.000000 -1.000000
outer loop
vertex 0.000731 0.010263 0.000000
vertex 0.000617 0.010161 0.000000
vertex 0.000386 0.009960 0.000000
endloop
endfacet
facet normal 0.000000 0.000000 -1.000000
outer loop
vertex 0.000932 0.010457 0.000000
vertex 0.000838 0.010363 0.000000
vertex 0.000731 0.010263 0.000000
endloop
endfacet
facet normal -0.708303 0.705909 0.000000
outer loop
vertex 0.000838 0.010363 0.150000
vertex 0.000932 0.010457 0.150000
vertex 0.000932 0.010457 0.000000
endloop
endfacet
facet normal -0.683511 0.729940 0.000031
outer loop
vertex 0.000731 0.010263 0.150000
vertex 0.000838 0.010363 0.150000
vertex 0.000932 0.010457 0.000000
endloop
endfacet
facet normal 0.000000 0.000000 -1.000000
outer loop
vertex 0.000932 0.010457 0.000000
vertex 0.000731 0.010263 0.000000
vertex 0.000386 0.009960 0.000000
endloop
endfacet
facet normal 0.000000 0.000000 -1.000000
outer loop
vertex 0.000932 0.010457 0.000000
vertex 0.000386 0.009960 0.000000
vertex 0.000279 0.009866 0.000000
endloop
endfacet
facet normal -0.667864 0.744283 0.000070
outer loop
vertex 0.000617 0.010161 0.150000
vertex 0.000731 0.010263 0.150000
vertex 0.000932 0.010457 0.000000
endloop
endfacet
facet normal -0.658805 0.752314 0.000105
outer loop
vertex 0.000500 0.010059 0.150000
vertex 0.000617 0.010161 0.150000
vertex 0.000932 0.010457 0.000000
endloop
endfacet
facet normal 0.000000 0.000000 -1.000000
outer loop
vertex 0.000932 0.010457 0.000000
vertex 0.000279 0.009866 0.000000
vertex 0.000184 0.009781 0.000000
endloop
endfacet
facet normal -0.729760 0.683703 0.000000
outer loop
vertex 0.000106 0.009707 0.000000
vertex 0.000050 0.009648 0.000000
vertex 0.000050 0.009648 0.150000
endloop
endfacet
facet normal -0.670767 0.741668 0.000042
outer loop
vertex 0.000500 0.010059 0.150000
vertex 0.000932 0.010457 0.000000
vertex 0.000184 0.009781 0.000000
endloop
endfacet
facet normal -0.687222 0.726447 0.000033
outer loop
vertex 0.000184 0.009781 0.000000
vertex 0.000106 0.009707 0.000000
vertex 0.000050 0.009648 0.150000
endloop
endfacet
facet normal -0.729760 0.683703 -0.000043
outer loop
vertex 0.000184 0.009781 0.000000
vertex 0.000050 0.009648 0.150000
vertex 0.000106 0.009707 0.150000
endloop
endfacet
facet normal -0.655316 0.755355 -0.000016
outer loop
vertex 0.000386 0.009960 0.150000
vertex 0.000500 0.010059 0.150000
vertex 0.000184 0.009781 0.000000
endloop
endfacet
facet normal -0.657487 0.753466 -0.000011
outer loop
vertex 0.000279 0.009866 0.150000
vertex 0.000386 0.009960 0.150000
vertex 0.000184 0.009781 0.000000
endloop
endfacet
facet normal -0.687222 0.726447 0.000000
outer loop
vertex 0.000184 0.009781 0.000000
vertex 0.000106 0.009707 0.150000
vertex 0.000184 0.009781 0.150000
endloop
endfacet
facet normal -0.666770 0.745264 0.000000
outer loop
vertex 0.000184 0.009781 0.000000
vertex 0.000184 0.009781 0.150000
vertex 0.000279 0.009866 0.150000
endloop
endfacet
facet normal -0.773889 0.633322 0.000000
outer loop
vertex 0.001139 0.010711 0.150000
vertex 0.001139 0.010711 0.000000
vertex 0.000932 0.010457 0.000000
endloop
endfacet
facet normal -0.773888 0.633322 0.000000
outer loop
vertex 0.001139 0.010711 0.150000
vertex 0.000932 0.010457 0.000000
vertex 0.000932 0.010457 0.150000
endloop
endfacet
facet normal 0.000000 1.000000 0.000000
outer loop
vertex 0.000030 0.008658 0.150000
vertex 0.000030 0.008658 0.000000
vertex 0.000030 0.008658 0.000000
endloop
endfacet
facet normal 0.000000 1.000000 0.000000
outer loop
vertex 0.000030 0.008658 0.150000
vertex 0.000030 0.008658 0.000000
vertex 0.000030 0.008658 0.150000
endloop
endfacet
facet normal -0.153916 -0.988084 0.000000
outer loop
vertex 0.006911 0.000092 0.000000
vertex 0.007417 0.000014 0.000000
vertex 0.007417 0.000014 0.150000
endloop
endfacet
facet normal -0.153916 -0.988084 0.000000
outer loop
vertex 0.006911 0.000092 0.000000
vertex 0.007417 0.000014 0.150000
vertex 0.006911 0.000092 0.150000
endloop
endfacet
facet normal -0.716739 -0.697341 0.000000
outer loop
vertex 0.003866 0.001853 0.150000
vertex 0.003866 0.001853 0.000000
vertex 0.004078 0.001635 0.000000
endloop
endfacet
facet normal -0.716739 -0.697341 0.000000
outer loop
vertex 0.003866 0.001853 0.150000
vertex 0.004078 0.001635 0.000000
vertex 0.004078 0.001635 0.150000
endloop
endfacet
facet normal -0.689249 0.724524 0.000000
outer loop
vertex 0.001282 0.010846 0.000000
vertex 0.001139 0.010711 0.000000
vertex 0.001139 0.010711 0.150000
endloop
endfacet
facet normal -0.689248 0.724525 0.000000
outer loop
vertex 0.001282 0.010846 0.000000
vertex 0.001139 0.010711 0.150000
vertex 0.001282 0.010846 0.150000
endloop
endfacet
facet normal -0.627382 0.778712 0.000000
outer loop
vertex 0.001718 0.011209 0.150000
vertex 0.001718 0.011209 0.000000
vertex 0.001478 0.011015 0.000000
endloop
endfacet
facet normal -0.651703 0.758474 0.000000
outer loop
vertex 0.001478 0.011015 0.000000
vertex 0.001282 0.010846 0.000000
vertex 0.001282 0.010846 0.150000
endloop
endfacet
facet normal -0.627382 0.778712 0.000000
outer loop
vertex 0.001478 0.011015 0.150000
vertex 0.001718 0.011209 0.150000
vertex 0.001478 0.011015 0.000000
endloop
endfacet
facet normal -0.651703 0.758474 0.000000
outer loop
vertex 0.001478 0.011015 0.000000
vertex 0.001282 0.010846 0.150000
vertex 0.001478 0.011015 0.150000
endloop
endfacet
facet normal 0.102146 -0.994770 0.000000
outer loop
vertex 0.008422 0.000007 0.150000
vertex 0.008422 0.000007 0.000000
vertex 0.008847 0.000050 0.000000
endloop
endfacet
facet normal 0.102146 -0.994770 0.000000
outer loop
vertex 0.008422 0.000007 0.150000
vertex 0.008847 0.000050 0.000000
vertex 0.008847 0.000050 0.150000
endloop
endfacet
facet normal 0.225982 -0.974132 0.000000
outer loop
vertex 0.008847 0.000050 0.150000
vertex 0.008847 0.000050 0.000000
vertex 0.009040 0.000095 0.000000
endloop
endfacet
facet normal 0.225984 -0.974131 0.000000
outer loop
vertex 0.008847 0.000050 0.150000
vertex 0.009040 0.000095 0.000000
vertex 0.009040 0.000095 0.150000
endloop
endfacet
facet normal 0.097351 0.995250 0.000000
outer loop
vertex 0.006582 0.012498 0.000000
vertex 0.005603 0.012594 0.000000
vertex 0.005603 0.012594 0.150000
endloop
endfacet
facet normal 0.097351 0.995250 0.000000
outer loop
vertex 0.006582 0.012498 0.000000
vertex 0.005603 0.012594 0.150000
vertex 0.006582 0.012498 0.150000
endloop
endfacet
facet normal 0.187932 0.982182 0.000000
outer loop
vertex 0.009332 0.012028 0.150000
vertex 0.009332 0.012028 0.000000
vertex 0.007658 0.012348 0.000000
endloop
endfacet
facet normal 0.138306 0.990390 0.000000
outer loop
vertex 0.007658 0.012348 0.000000
vertex 0.006582 0.012498 0.000000
vertex 0.006582 0.012498 0.150000
endloop
endfacet
facet normal 0.187932 0.982182 0.000000
outer loop
vertex 0.007658 0.012348 0.150000
vertex 0.009332 0.012028 0.150000
vertex 0.007658 0.012348 0.000000
endloop
endfacet
facet normal 0.138306 0.990390 0.000000
outer loop
vertex 0.006582 0.012498 0.150000
vertex 0.007658 0.012348 0.150000
vertex 0.007658 0.012348 0.000000
endloop
endfacet
facet normal 0.912537 -0.408995 0.000000
outer loop
vertex 0.010447 0.001759 0.150000
vertex 0.010447 0.001759 0.000000
vertex 0.010568 0.002028 0.000000
endloop
endfacet
facet normal 0.912537 -0.408995 0.000000
outer loop
vertex 0.010447 0.001759 0.150000
vertex 0.010568 0.002028 0.000000
vertex 0.010568 0.002028 0.150000
endloop
endfacet
facet normal -0.648530 -0.761189 0.000000
outer loop
vertex 0.004078 0.001635 0.150000
vertex 0.004078 0.001635 0.000000
vertex 0.004320 0.001429 0.000000
endloop
endfacet
facet normal -0.648530 -0.761189 0.000000
outer loop
vertex 0.004078 0.001635 0.150000
vertex 0.004320 0.001429 0.000000
vertex 0.004320 0.001429 0.150000
endloop
endfacet
facet normal 0.000000 0.000000 1.000000
outer loop
vertex 0.001980 0.005548 0.000000
vertex 0.002025 0.005387 0.000000
vertex 0.002049 0.005305 0.000000
endloop
endfacet
facet normal 0.000000 0.000000 1.000000
outer loop
vertex 0.002049 0.005305 0.000000
vertex 0.002079 0.005215 0.000000
vertex 0.002117 0.005111 0.000000
endloop
endfacet
facet normal -0.924449 -0.381306 0.000000
outer loop
vertex 0.002117 0.005111 0.000000
vertex 0.002168 0.004987 0.000000
vertex 0.002168 0.004987 0.150000
endloop
endfacet
facet normal -0.924448 -0.381308 0.000000
outer loop
vertex 0.002117 0.005111 0.000000
vertex 0.002168 0.004987 0.150000
vertex 0.002117 0.005111 0.150000
endloop
endfacet
facet normal 0.000000 0.000000 1.000000
outer loop
vertex 0.001980 0.005548 0.000000
vertex 0.002049 0.005305 0.000000
vertex 0.002117 0.005111 0.000000
endloop
endfacet
facet normal -0.943239 -0.332116 0.000000
outer loop
vertex 0.001915 0.005743 0.150000
vertex 0.001915 0.005743 0.000000
vertex 0.001952 0.005638 0.000000
endloop
endfacet
facet normal 0.000000 0.000000 1.000000
outer loop
vertex 0.001952 0.005638 0.000000
vertex 0.001980 0.005548 0.000000
vertex 0.002117 0.005111 0.000000
endloop
endfacet
facet normal -0.937962 -0.346738 0.000000
outer loop
vertex 0.002117 0.005111 0.000000
vertex 0.002117 0.005111 0.150000
vertex 0.002079 0.005215 0.150000
endloop
endfacet
facet normal -0.950552 -0.310567 -0.000028
outer loop
vertex 0.002117 0.005111 0.000000
vertex 0.002079 0.005215 0.150000
vertex 0.002049 0.005305 0.150000
endloop
endfacet
facet normal -0.954172 -0.299260 -0.000026
outer loop
vertex 0.001915 0.005743 0.150000
vertex 0.001952 0.005638 0.000000
vertex 0.002117 0.005111 0.000000
endloop
endfacet
facet normal -0.943239 -0.332116 0.000128
outer loop
vertex 0.001952 0.005638 0.150000
vertex 0.001915 0.005743 0.150000
vertex 0.002117 0.005111 0.000000
endloop
endfacet
facet normal -0.959809 -0.280655 -0.000071
outer loop
vertex 0.002117 0.005111 0.000000
vertex 0.002049 0.005305 0.150000
vertex 0.002025 0.005387 0.150000
endloop
endfacet
facet normal -0.954268 -0.298951 -0.000001
outer loop
vertex 0.001980 0.005548 0.150000
vertex 0.001952 0.005638 0.150000
vertex 0.002117 0.005111 0.000000
endloop
endfacet
facet normal -0.962715 -0.270518 -0.000092
outer loop
vertex 0.002117 0.005111 0.000000
vertex 0.002025 0.005387 0.150000
vertex 0.001980 0.005548 0.150000
endloop
endfacet
facet normal -0.459198 -0.888334 0.000000
outer loop
vertex 0.005683 0.000584 0.000000
vertex 0.005933 0.000455 0.000000
vertex 0.005933 0.000455 0.150000
endloop
endfacet
facet normal -0.459197 -0.888334 0.000000
outer loop
vertex 0.005683 0.000584 0.000000
vertex 0.005933 0.000455 0.150000
vertex 0.005683 0.000584 0.150000
endloop
endfacet
facet normal -0.487832 -0.872937 0.000000
outer loop
vertex 0.005426 0.000728 0.000000
vertex 0.005683 0.000584 0.000000
vertex 0.005683 0.000584 0.150000
endloop
endfacet
facet normal -0.487834 -0.872937 0.000000
outer loop
vertex 0.005426 0.000728 0.000000
vertex 0.005683 0.000584 0.150000
vertex 0.005426 0.000728 0.150000
endloop
endfacet
facet normal -0.508989 -0.860773 0.000000
outer loop
vertex 0.005161 0.000884 0.000000
vertex 0.005426 0.000728 0.000000
vertex 0.005426 0.000728 0.150000
endloop
endfacet
facet normal -0.508988 -0.860774 0.000000
outer loop
vertex 0.005161 0.000884 0.000000
vertex 0.005426 0.000728 0.150000
vertex 0.005161 0.000884 0.150000
endloop
endfacet
facet normal -0.573511 -0.819198 0.000000
outer loop
vertex 0.004320 0.001429 0.150000
vertex 0.004320 0.001429 0.000000
vertex 0.004597 0.001235 0.000000
endloop
endfacet
facet normal -0.528056 -0.849209 0.000000
outer loop
vertex 0.004597 0.001235 0.000000
vertex 0.005161 0.000884 0.000000
vertex 0.005161 0.000884 0.150000
endloop
endfacet
facet normal -0.573511 -0.819198 0.000000
outer loop
vertex 0.004597 0.001235 0.150000
vertex 0.004320 0.001429 0.150000
vertex 0.004597 0.001235 0.000000
endloop
endfacet
facet normal -0.528056 -0.849210 0.000000
outer loop
vertex 0.005161 0.000884 0.150000
vertex 0.004597 0.001235 0.150000
vertex 0.004597 0.001235 0.000000
endloop
endfacet
facet normal -0.887520 -0.460769 0.000000
outer loop
vertex 0.001734 0.006091 0.000000
vertex 0.001915 0.005743 0.000000
vertex 0.001915 0.005743 0.150000
endloop
endfacet
facet normal -0.887520 -0.460770 0.000000
outer loop
vertex 0.001734 0.006091 0.000000
vertex 0.001915 0.005743 0.150000
vertex 0.001734 0.006091 0.150000
endloop
endfacet
facet normal 0.922464 0.386084 0.000000
outer loop
vertex 0.010892 0.011050 0.150000
vertex 0.010892 0.011050 0.000000
vertex 0.010809 0.011248 0.000000
endloop
endfacet
facet normal 0.922466 0.386078 0.000000
outer loop
vertex 0.010892 0.011050 0.150000
vertex 0.010809 0.011248 0.000000
vertex 0.010809 0.011248 0.150000
endloop
endfacet
facet normal 0.974130 0.225990 0.000000
outer loop
vertex 0.010941 0.010837 0.000000
vertex 0.010892 0.011050 0.000000
vertex 0.010892 0.011050 0.150000
endloop
endfacet
facet normal 0.974131 0.225983 0.000000
outer loop
vertex 0.010941 0.010837 0.000000
vertex 0.010892 0.011050 0.150000
vertex 0.010941 0.010837 0.150000
endloop
endfacet
facet normal 0.984776 0.173831 0.000000
outer loop
vertex 0.011051 0.010100 0.150000
vertex 0.011051 0.010100 0.000000
vertex 0.011005 0.010363 0.000000
endloop
endfacet
facet normal 0.991158 0.132688 0.000000
outer loop
vertex 0.011005 0.010363 0.000000
vertex 0.010941 0.010837 0.000000
vertex 0.010941 0.010837 0.150000
endloop
endfacet
facet normal 0.984778 0.173820 0.000000
outer loop
vertex 0.011005 0.010363 0.150000
vertex 0.011051 0.010100 0.150000
vertex 0.011005 0.010363 0.000000
endloop
endfacet
facet normal 0.991157 0.132692 0.000000
outer loop
vertex 0.010941 0.010837 0.150000
vertex 0.011005 0.010363 0.150000
vertex 0.011005 0.010363 0.000000
endloop
endfacet
endsolid Exported from Blender-3.6.8
