solid Exported from Blender-3.6.8
facet normal -0.258088 0.966121 0.000000
outer loop
vertex 0.002728 0.009820 0.000000
vertex 0.002500 0.009759 0.000000
vertex 0.002500 0.009759 0.150000
endloop
endfacet
facet normal -0.258088 0.966121 0.000000
outer loop
vertex 0.002728 0.009820 0.000000
vertex 0.002500 0.009759 0.150000
vertex 0.002728 0.009820 0.150000
endloop
endfacet
facet normal -0.509703 0.860351 0.000000
outer loop
vertex 0.002265 0.009664 0.000000
vertex 0.002028 0.009523 0.000000
vertex 0.002028 0.009523 0.150000
endloop
endfacet
facet normal -0.509703 0.860350 0.000000
outer loop
vertex 0.002265 0.009664 0.000000
vertex 0.002028 0.009523 0.150000
vertex 0.002265 0.009664 0.150000
endloop
endfacet
facet normal 0.183791 0.982965 0.000000
outer loop
vertex 0.003848 0.009781 0.000000
vertex 0.003292 0.009885 0.000000
vertex 0.003292 0.009885 0.150000
endloop
endfacet
facet normal 0.183791 0.982965 0.000000
outer loop
vertex 0.003848 0.009781 0.000000
vertex 0.003292 0.009885 0.150000
vertex 0.003848 0.009781 0.150000
endloop
endfacet
facet normal 0.027009 0.999635 0.000000
outer loop
vertex 0.003292 0.009885 0.150000
vertex 0.003292 0.009885 0.000000
vertex 0.003144 0.009889 0.000000
endloop
endfacet
facet normal 0.027009 0.999635 0.000000
outer loop
vertex 0.003292 0.009885 0.150000
vertex 0.003144 0.009889 0.000000
vertex 0.003144 0.009889 0.150000
endloop
endfacet
facet normal 0.000000 0.000000 1.000000
outer loop
vertex 0.006325 0.009057 0.150000
vertex 0.005508 0.009327 0.150000
vertex 0.003848 0.009781 0.150000
endloop
endfacet
facet normal 0.000000 0.000000 1.000000
outer loop
vertex 0.003848 0.009781 0.150000
vertex 0.003292 0.009885 0.150000
vertex 0.003144 0.009889 0.150000
endloop
endfacet
facet normal 0.000000 0.000000 1.000000
outer loop
vertex 0.003144 0.009889 0.150000
vertex 0.003047 0.009874 0.150000
vertex 0.002945 0.009859 0.150000
endloop
endfacet
facet normal -0.001294 0.000000 0.999999
outer loop
vertex 0.002945 0.009859 0.150000
vertex 0.002838 0.009841 0.150000
vertex 0.002728 0.009820 0.150000
endloop
endfacet
facet normal 0.000000 0.000000 1.000000
outer loop
vertex 0.002728 0.009820 0.150000
vertex 0.002500 0.009759 0.150000
vertex 0.002265 0.009664 0.150000
endloop
endfacet
facet normal 0.000358 0.000000 1.000000
outer loop
vertex 0.002265 0.009664 0.150000
vertex 0.002028 0.009523 0.150000
vertex 0.001910 0.009432 0.150000
endloop
endfacet
facet normal -0.004068 0.000000 0.999992
outer loop
vertex 0.001910 0.009432 0.150000
vertex 0.001793 0.009325 0.150000
vertex 0.001677 0.009210 0.150000
endloop
endfacet
facet normal 0.000000 0.000000 1.000000
outer loop
vertex 0.001910 0.009432 0.150000
vertex 0.001677 0.009210 0.150000
vertex 0.001558 0.009096 0.150000
endloop
endfacet
facet normal 0.000000 0.000000 1.000000
outer loop
vertex 0.002728 0.009820 0.150000
vertex 0.002265 0.009664 0.150000
vertex 0.001910 0.009432 0.150000
endloop
endfacet
facet normal 0.000647 0.000000 1.000000
outer loop
vertex 0.003144 0.009889 0.150000
vertex 0.002945 0.009859 0.150000
vertex 0.002728 0.009820 0.150000
endloop
endfacet
facet normal -0.000015 0.000000 1.000000
outer loop
vertex 0.006325 0.009057 0.150000
vertex 0.003848 0.009781 0.150000
vertex 0.003144 0.009889 0.150000
endloop
endfacet
facet normal -0.000731 0.000000 1.000000
outer loop
vertex 0.006942 0.008810 0.150000
vertex 0.006667 0.008928 0.150000
vertex 0.006325 0.009057 0.150000
endloop
endfacet
facet normal 0.000228 0.000000 1.000000
outer loop
vertex 0.007608 0.008367 0.150000
vertex 0.007132 0.008708 0.150000
vertex 0.006942 0.008810 0.150000
endloop
endfacet
facet normal 0.000000 0.000000 1.000000
outer loop
vertex 0.008077 0.007946 0.150000
vertex 0.007895 0.008121 0.150000
vertex 0.007608 0.008367 0.150000
endloop
endfacet
facet normal 0.000000 0.000000 1.000000
outer loop
vertex 0.008758 0.007191 0.150000
vertex 0.008476 0.007532 0.150000
vertex 0.008077 0.007946 0.150000
endloop
endfacet
facet normal -0.006478 0.000000 0.999979
outer loop
vertex 0.008932 0.006950 0.150000
vertex 0.008846 0.007073 0.150000
vertex 0.008758 0.007191 0.150000
endloop
endfacet
facet normal 0.000000 0.000000 1.000000
outer loop
vertex 0.009279 0.006397 0.150000
vertex 0.009103 0.006687 0.150000
vertex 0.008932 0.006950 0.150000
endloop
endfacet
facet normal 0.000000 0.000000 1.000000
outer loop
vertex 0.009875 0.005196 0.150000
vertex 0.009562 0.005897 0.150000
vertex 0.009279 0.006397 0.150000
endloop
endfacet
facet normal 0.000236 0.000000 1.000000
outer loop
vertex 0.010159 0.003872 0.150000
vertex 0.010039 0.004649 0.150000
vertex 0.009875 0.005196 0.150000
endloop
endfacet
facet normal 0.000617 0.000000 1.000000
outer loop
vertex 0.010129 0.003484 0.150000
vertex 0.010159 0.003674 0.150000
vertex 0.010159 0.003872 0.150000
endloop
endfacet
facet normal -0.000815 0.000000 1.000000
outer loop
vertex 0.009994 0.003125 0.150000
vertex 0.010073 0.003302 0.150000
vertex 0.010129 0.003484 0.150000
endloop
endfacet
facet normal 0.000176 0.000000 1.000000
outer loop
vertex 0.008688 0.001414 0.150000
vertex 0.009783 0.002785 0.150000
vertex 0.009994 0.003125 0.150000
endloop
endfacet
facet normal 0.000000 0.000000 1.000000
outer loop
vertex 0.007472 0.000405 0.150000
vertex 0.008194 0.000936 0.150000
vertex 0.008688 0.001414 0.150000
endloop
endfacet
facet normal 0.000394 0.000000 1.000000
outer loop
vertex 0.006760 0.000034 0.150000
vertex 0.006939 0.000102 0.150000
vertex 0.007472 0.000405 0.150000
endloop
endfacet
facet normal -0.000135 0.000000 1.000000
outer loop
vertex 0.006360 0.000005 0.150000
vertex 0.006566 0.000003 0.150000
vertex 0.006760 0.000034 0.150000
endloop
endfacet
facet normal 0.000119 0.000000 1.000000
outer loop
vertex 0.005677 0.000171 0.150000
vertex 0.006142 0.000035 0.150000
vertex 0.006360 0.000005 0.150000
endloop
endfacet
facet normal -0.000568 0.000000 1.000000
outer loop
vertex 0.005182 0.000382 0.150000
vertex 0.005432 0.000269 0.150000
vertex 0.005677 0.000171 0.150000
endloop
endfacet
facet normal 0.000000 0.000000 1.000000
outer loop
vertex 0.003897 0.001065 0.150000
vertex 0.004145 0.000922 0.150000
vertex 0.005182 0.000382 0.150000
endloop
endfacet
facet normal 0.000302 0.000000 1.000000
outer loop
vertex 0.003275 0.001525 0.150000
vertex 0.003672 0.001212 0.150000
vertex 0.003897 0.001065 0.150000
endloop
endfacet
facet normal 0.000352 0.000000 1.000000
outer loop
vertex 0.002586 0.002263 0.150000
vertex 0.002923 0.001872 0.150000
vertex 0.003275 0.001525 0.150000
endloop
endfacet
facet normal 0.000746 0.000000 1.000000
outer loop
vertex 0.001049 0.004267 0.150000
vertex 0.001417 0.003761 0.150000
vertex 0.002586 0.002263 0.150000
endloop
endfacet
facet normal 0.000000 0.000000 1.000000
outer loop
vertex 0.000062 0.005768 0.150000
vertex 0.000064 0.005752 0.150000
vertex 0.001049 0.004267 0.150000
endloop
endfacet
facet normal -0.123245 0.000000 0.992376
outer loop
vertex 0.000049 0.005882 0.150000
vertex 0.000057 0.005813 0.150000
vertex 0.000062 0.005768 0.150000
endloop
endfacet
facet normal -0.019368 0.000000 0.999812
outer loop
vertex 0.000029 0.006078 0.150000
vertex 0.000039 0.005972 0.150000
vertex 0.000049 0.005882 0.150000
endloop
endfacet
facet normal 0.017017 0.000000 0.999855
outer loop
vertex 0.000010 0.006319 0.150000
vertex 0.000019 0.006195 0.150000
vertex 0.000029 0.006078 0.150000
endloop
endfacet
facet normal 0.000000 0.000000 1.000000
outer loop
vertex 0.000000 0.006573 0.150000
vertex 0.000004 0.006447 0.150000
vertex 0.000010 0.006319 0.150000
endloop
endfacet
facet normal -0.006090 0.000000 0.999982
outer loop
vertex 0.000006 0.006803 0.150000
vertex 0.000001 0.006693 0.150000
vertex 0.000000 0.006573 0.150000
endloop
endfacet
facet normal 0.000000 0.000000 1.000000
outer loop
vertex 0.000062 0.007074 0.150000
vertex 0.000018 0.006899 0.150000
vertex 0.000006 0.006803 0.150000
endloop
endfacet
facet normal -0.002674 0.000000 0.999996
outer loop
vertex 0.000178 0.007343 0.150000
vertex 0.000134 0.007253 0.150000
vertex 0.000062 0.007074 0.150000
endloop
endfacet
facet normal 0.000000 0.000000 1.000000
outer loop
vertex 0.000279 0.007528 0.150000
vertex 0.000226 0.007435 0.150000
vertex 0.000178 0.007343 0.150000
endloop
endfacet
facet normal 0.014825 0.000000 0.999890
outer loop
vertex 0.000508 0.007914 0.150000
vertex 0.000334 0.007622 0.150000
vertex 0.000279 0.007528 0.150000
endloop
endfacet
facet normal 0.003852 0.000000 0.999993
outer loop
vertex 0.000631 0.008118 0.150000
vertex 0.000567 0.008015 0.150000
vertex 0.000508 0.007914 0.150000
endloop
endfacet
facet normal 0.001603 0.000000 0.999999
outer loop
vertex 0.000987 0.008541 0.150000
vertex 0.000886 0.008434 0.150000
vertex 0.000631 0.008118 0.150000
endloop
endfacet
facet normal 0.000000 0.000000 1.000000
outer loop
vertex 0.001206 0.008760 0.150000
vertex 0.001094 0.008650 0.150000
vertex 0.000987 0.008541 0.150000
endloop
endfacet
facet normal -0.030232 0.000000 0.999543
outer loop
vertex 0.001439 0.008983 0.150000
vertex 0.001322 0.008870 0.150000
vertex 0.001206 0.008760 0.150000
endloop
endfacet
facet normal 0.000000 0.000000 1.000000
outer loop
vertex 0.002728 0.009820 0.150000
vertex 0.001910 0.009432 0.150000
vertex 0.001558 0.009096 0.150000
endloop
endfacet
facet normal 0.000000 0.000000 1.000000
outer loop
vertex 0.001558 0.009096 0.150000
vertex 0.001439 0.008983 0.150000
vertex 0.001206 0.008760 0.150000
endloop
endfacet
facet normal 0.000000 0.000000 1.000000
outer loop
vertex 0.001206 0.008760 0.150000
vertex 0.000987 0.008541 0.150000
vertex 0.000631 0.008118 0.150000
endloop
endfacet
facet normal -0.008830 0.000000 0.999961
outer loop
vertex 0.000631 0.008118 0.150000
vertex 0.000508 0.007914 0.150000
vertex 0.000279 0.007528 0.150000
endloop
endfacet
facet normal 0.000000 0.000000 1.000000
outer loop
vertex 0.000279 0.007528 0.150000
vertex 0.000178 0.007343 0.150000
vertex 0.000062 0.007074 0.150000
endloop
endfacet
facet normal 0.000645 0.000000 1.000000
outer loop
vertex 0.000062 0.007074 0.150000
vertex 0.000006 0.006803 0.150000
vertex 0.000000 0.006573 0.150000
endloop
endfacet
facet normal -0.003184 0.000000 0.999995
outer loop
vertex 0.000000 0.006573 0.150000
vertex 0.000010 0.006319 0.150000
vertex 0.000029 0.006078 0.150000
endloop
endfacet
facet normal 0.009896 0.000000 0.999951
outer loop
vertex 0.000029 0.006078 0.150000
vertex 0.000049 0.005882 0.150000
vertex 0.000062 0.005768 0.150000
endloop
endfacet
facet normal 0.000000 0.000000 1.000000
outer loop
vertex 0.000062 0.005768 0.150000
vertex 0.001049 0.004267 0.150000
vertex 0.002586 0.002263 0.150000
endloop
endfacet
facet normal -0.000102 0.000000 1.000000
outer loop
vertex 0.002586 0.002263 0.150000
vertex 0.003275 0.001525 0.150000
vertex 0.003897 0.001065 0.150000
endloop
endfacet
facet normal 0.000217 0.000000 1.000000
outer loop
vertex 0.003897 0.001065 0.150000
vertex 0.005182 0.000382 0.150000
vertex 0.005677 0.000171 0.150000
endloop
endfacet
facet normal -0.000021 0.000000 1.000000
outer loop
vertex 0.005677 0.000171 0.150000
vertex 0.006360 0.000005 0.150000
vertex 0.006760 0.000034 0.150000
endloop
endfacet
facet normal 0.000000 0.000000 1.000000
outer loop
vertex 0.006760 0.000034 0.150000
vertex 0.007472 0.000405 0.150000
vertex 0.008688 0.001414 0.150000
endloop
endfacet
facet normal 0.000184 0.000000 1.000000
outer loop
vertex 0.008688 0.001414 0.150000
vertex 0.009994 0.003125 0.150000
vertex 0.010129 0.003484 0.150000
endloop
endfacet
facet normal -0.000194 0.000000 1.000000
outer loop
vertex 0.010129 0.003484 0.150000
vertex 0.010159 0.003872 0.150000
vertex 0.009875 0.005196 0.150000
endloop
endfacet
facet normal 0.000335 0.000000 1.000000
outer loop
vertex 0.009875 0.005196 0.150000
vertex 0.009279 0.006397 0.150000
vertex 0.008932 0.006950 0.150000
endloop
endfacet
facet normal 0.000437 0.000000 1.000000
outer loop
vertex 0.008932 0.006950 0.150000
vertex 0.008758 0.007191 0.150000
vertex 0.008077 0.007946 0.150000
endloop
endfacet
facet normal 0.000000 0.000000 1.000000
outer loop
vertex 0.008077 0.007946 0.150000
vertex 0.007608 0.008367 0.150000
vertex 0.006942 0.008810 0.150000
endloop
endfacet
facet normal 0.000000 0.000000 1.000000
outer loop
vertex 0.006942 0.008810 0.150000
vertex 0.006325 0.009057 0.150000
vertex 0.003144 0.009889 0.150000
endloop
endfacet
facet normal 0.000066 0.000000 1.000000
outer loop
vertex 0.003144 0.009889 0.150000
vertex 0.002728 0.009820 0.150000
vertex 0.001558 0.009096 0.150000
endloop
endfacet
facet normal 0.000000 0.000000 1.000000
outer loop
vertex 0.001558 0.009096 0.150000
vertex 0.001206 0.008760 0.150000
vertex 0.000631 0.008118 0.150000
endloop
endfacet
facet normal 0.000453 0.000000 1.000000
outer loop
vertex 0.000631 0.008118 0.150000
vertex 0.000279 0.007528 0.150000
vertex 0.000062 0.007074 0.150000
endloop
endfacet
facet normal -0.000323 0.000000 1.000000
outer loop
vertex 0.000062 0.007074 0.150000
vertex 0.000000 0.006573 0.150000
vertex 0.000029 0.006078 0.150000
endloop
endfacet
facet normal 0.000175 0.000000 1.000000
outer loop
vertex 0.000029 0.006078 0.150000
vertex 0.000062 0.005768 0.150000
vertex 0.002586 0.002263 0.150000
endloop
endfacet
facet normal -0.000030 0.000000 1.000000
outer loop
vertex 0.002586 0.002263 0.150000
vertex 0.003897 0.001065 0.150000
vertex 0.005677 0.000171 0.150000
endloop
endfacet
facet normal 0.000000 0.000000 1.000000
outer loop
vertex 0.005677 0.000171 0.150000
vertex 0.006760 0.000034 0.150000
vertex 0.008688 0.001414 0.150000
endloop
endfacet
facet normal 0.000000 0.000000 1.000000
outer loop
vertex 0.008688 0.001414 0.150000
vertex 0.010129 0.003484 0.150000
vertex 0.009875 0.005196 0.150000
endloop
endfacet
facet normal 0.000000 0.000000 1.000000
outer loop
vertex 0.009875 0.005196 0.150000
vertex 0.008932 0.006950 0.150000
vertex 0.008077 0.007946 0.150000
endloop
endfacet
facet normal 0.000000 0.000000 1.000000
outer loop
vertex 0.008077 0.007946 0.150000
vertex 0.006942 0.008810 0.150000
vertex 0.003144 0.009889 0.150000
endloop
endfacet
facet normal -0.000036 0.000000 1.000000
outer loop
vertex 0.003144 0.009889 0.150000
vertex 0.001558 0.009096 0.150000
vertex 0.000631 0.008118 0.150000
endloop
endfacet
facet normal 0.000055 0.000000 1.000000
outer loop
vertex 0.000631 0.008118 0.150000
vertex 0.000062 0.007074 0.150000
vertex 0.000029 0.006078 0.150000
endloop
endfacet
facet normal 0.000000 0.000000 1.000000
outer loop
vertex 0.000029 0.006078 0.150000
vertex 0.002586 0.002263 0.150000
vertex 0.005677 0.000171 0.150000
endloop
endfacet
facet normal -0.000012 0.000000 1.000000
outer loop
vertex 0.005677 0.000171 0.150000
vertex 0.008688 0.001414 0.150000
vertex 0.009875 0.005196 0.150000
endloop
endfacet
facet normal 0.000000 0.000000 1.000000
outer loop
vertex 0.009875 0.005196 0.150000
vertex 0.008077 0.007946 0.150000
vertex 0.003144 0.009889 0.150000
endloop
endfacet
facet normal 0.000000 0.000000 1.000000
outer loop
vertex 0.003144 0.009889 0.150000
vertex 0.000631 0.008118 0.150000
vertex 0.000029 0.006078 0.150000
endloop
endfacet
facet normal 0.000000 0.000000 1.000000
outer loop
vertex 0.000029 0.006078 0.150000
vertex 0.005677 0.000171 0.150000
vertex 0.009875 0.005196 0.150000
endloop
endfacet
facet normal 0.000000 0.000000 1.000000
outer loop
vertex 0.003144 0.009889 0.150000
vertex 0.000029 0.006078 0.150000
vertex 0.009875 0.005196 0.150000
endloop
endfacet
facet normal -0.373533 0.927617 0.000000
outer loop
vertex 0.002500 0.009759 0.150000
vertex 0.002500 0.009759 0.000000
vertex 0.002265 0.009664 0.000000
endloop
endfacet
facet normal -0.373533 0.927617 0.000000
outer loop
vertex 0.002500 0.009759 0.150000
vertex 0.002265 0.009664 0.000000
vertex 0.002265 0.009664 0.150000
endloop
endfacet
facet normal -0.999618 -0.027649 0.000000
outer loop
vertex 0.000000 0.006573 0.000000
vertex 0.000004 0.006447 0.000000
vertex 0.000004 0.006447 0.150000
endloop
endfacet
facet normal -0.999618 -0.027649 0.000000
outer loop
vertex 0.000000 0.006573 0.000000
vertex 0.000004 0.006447 0.150000
vertex 0.000000 0.006573 0.150000
endloop
endfacet
facet normal -0.998787 0.049247 0.000000
outer loop
vertex 0.000006 0.006803 0.150000
vertex 0.000006 0.006803 0.000000
vertex 0.000001 0.006693 0.000000
endloop
endfacet
facet normal -0.999991 0.004236 0.000000
outer loop
vertex 0.000001 0.006693 0.000000
vertex 0.000000 0.006573 0.000000
vertex 0.000000 0.006573 0.150000
endloop
endfacet
facet normal -0.998787 0.049247 0.000000
outer loop
vertex 0.000001 0.006693 0.150000
vertex 0.000006 0.006803 0.150000
vertex 0.000001 0.006693 0.000000
endloop
endfacet
facet normal -0.999991 0.004236 0.000000
outer loop
vertex 0.000001 0.006693 0.000000
vertex 0.000000 0.006573 0.150000
vertex 0.000001 0.006693 0.150000
endloop
endfacet
facet normal -0.146773 0.989170 0.000000
outer loop
vertex 0.003047 0.009874 0.150000
vertex 0.003144 0.009889 0.150000
vertex 0.003144 0.009889 0.000000
endloop
endfacet
facet normal 0.000000 0.000000 1.000000
outer loop
vertex 0.003144 0.009889 0.000000
vertex 0.003047 0.009874 0.000000
vertex 0.002945 0.009859 0.000000
endloop
endfacet
facet normal 0.000000 0.000000 1.000000
outer loop
vertex 0.002945 0.009859 0.000000
vertex 0.002838 0.009841 0.000000
vertex 0.002728 0.009820 0.000000
endloop
endfacet
facet normal -0.192853 0.981228 0.000000
outer loop
vertex 0.002728 0.009820 0.000000
vertex 0.002728 0.009820 0.150000
vertex 0.002838 0.009841 0.150000
endloop
endfacet
facet normal -0.148320 0.988940 -0.000001
outer loop
vertex 0.002945 0.009859 0.150000
vertex 0.003047 0.009874 0.150000
vertex 0.003144 0.009889 0.000000
endloop
endfacet
facet normal -0.164254 0.986418 -0.000022
outer loop
vertex 0.002728 0.009820 0.000000
vertex 0.002838 0.009841 0.150000
vertex 0.002945 0.009859 0.150000
endloop
endfacet
facet normal 0.000000 0.000000 1.000000
outer loop
vertex 0.003144 0.009889 0.000000
vertex 0.002945 0.009859 0.000000
vertex 0.002728 0.009820 0.000000
endloop
endfacet
facet normal -0.163900 0.986477 -0.000022
outer loop
vertex 0.003144 0.009889 0.000000
vertex 0.002728 0.009820 0.000000
vertex 0.002945 0.009859 0.150000
endloop
endfacet
facet normal 0.987726 -0.156198 0.000000
outer loop
vertex 0.010129 0.003484 0.150000
vertex 0.010129 0.003484 0.000000
vertex 0.010159 0.003674 0.000000
endloop
endfacet
facet normal 0.987728 -0.156182 0.000000
outer loop
vertex 0.010129 0.003484 0.150000
vertex 0.010159 0.003674 0.000000
vertex 0.010159 0.003674 0.150000
endloop
endfacet
facet normal 0.999999 -0.001424 0.000000
outer loop
vertex 0.010159 0.003674 0.150000
vertex 0.010159 0.003674 0.000000
vertex 0.010159 0.003872 0.000000
endloop
endfacet
facet normal 0.999999 -0.001432 0.000000
outer loop
vertex 0.010159 0.003674 0.150000
vertex 0.010159 0.003872 0.000000
vertex 0.010159 0.003872 0.150000
endloop
endfacet
facet normal -0.702168 -0.712012 0.000000
outer loop
vertex 0.002923 0.001872 0.150000
vertex 0.002923 0.001872 0.000000
vertex 0.003275 0.001525 0.000000
endloop
endfacet
facet normal -0.702168 -0.712012 0.000000
outer loop
vertex 0.002923 0.001872 0.150000
vertex 0.003275 0.001525 0.000000
vertex 0.003275 0.001525 0.150000
endloop
endfacet
facet normal -0.371408 -0.928470 0.000000
outer loop
vertex 0.005432 0.000269 0.000000
vertex 0.005677 0.000171 0.000000
vertex 0.005677 0.000171 0.150000
endloop
endfacet
facet normal -0.371408 -0.928470 0.000000
outer loop
vertex 0.005432 0.000269 0.000000
vertex 0.005677 0.000171 0.150000
vertex 0.005432 0.000269 0.150000
endloop
endfacet
facet normal -0.412064 -0.911155 0.000000
outer loop
vertex 0.005182 0.000382 0.000000
vertex 0.005432 0.000269 0.000000
vertex 0.005432 0.000269 0.150000
endloop
endfacet
facet normal -0.412063 -0.911155 0.000000
outer loop
vertex 0.005182 0.000382 0.000000
vertex 0.005432 0.000269 0.150000
vertex 0.005182 0.000382 0.150000
endloop
endfacet
facet normal -0.498532 -0.866871 0.000000
outer loop
vertex 0.003897 0.001065 0.150000
vertex 0.003897 0.001065 0.000000
vertex 0.004145 0.000922 0.000000
endloop
endfacet
facet normal -0.462422 -0.886660 0.000000
outer loop
vertex 0.004145 0.000922 0.000000
vertex 0.005182 0.000382 0.000000
vertex 0.005182 0.000382 0.150000
endloop
endfacet
facet normal -0.498531 -0.866872 0.000000
outer loop
vertex 0.004145 0.000922 0.150000
vertex 0.003897 0.001065 0.150000
vertex 0.004145 0.000922 0.000000
endloop
endfacet
facet normal -0.462422 -0.886660 0.000000
outer loop
vertex 0.005182 0.000382 0.150000
vertex 0.004145 0.000922 0.150000
vertex 0.004145 0.000922 0.000000
endloop
endfacet
facet normal 0.592111 -0.805856 0.000000
outer loop
vertex 0.008194 0.000936 0.000000
vertex 0.008194 0.000936 0.150000
vertex 0.007472 0.000405 0.150000
endloop
endfacet
facet normal 0.592111 -0.805856 0.000000
outer loop
vertex 0.008194 0.000936 0.000000
vertex 0.007472 0.000405 0.150000
vertex 0.007472 0.000405 0.000000
endloop
endfacet
facet normal 0.351881 -0.936045 0.000000
outer loop
vertex 0.006760 0.000034 0.150000
vertex 0.006760 0.000034 0.000000
vertex 0.006939 0.000102 0.000000
endloop
endfacet
facet normal 0.351879 -0.936046 0.000000
outer loop
vertex 0.006760 0.000034 0.150000
vertex 0.006939 0.000102 0.000000
vertex 0.006939 0.000102 0.150000
endloop
endfacet
facet normal 0.769916 0.638145 0.000000
outer loop
vertex 0.008758 0.007191 0.000000
vertex 0.008476 0.007532 0.000000
vertex 0.008476 0.007532 0.150000
endloop
endfacet
facet normal 0.769915 0.638147 0.000000
outer loop
vertex 0.008758 0.007191 0.000000
vertex 0.008476 0.007532 0.150000
vertex 0.008758 0.007191 0.150000
endloop
endfacet
facet normal 0.393851 0.919174 0.000000
outer loop
vertex 0.006942 0.008810 0.150000
vertex 0.006942 0.008810 0.000000
vertex 0.006667 0.008928 0.000000
endloop
endfacet
facet normal 0.393851 0.919174 0.000000
outer loop
vertex 0.006942 0.008810 0.150000
vertex 0.006667 0.008928 0.000000
vertex 0.006667 0.008928 0.150000
endloop
endfacet
facet normal 0.957842 0.287296 0.000000
outer loop
vertex 0.010039 0.004649 0.000000
vertex 0.009875 0.005196 0.000000
vertex 0.009875 0.005196 0.150000
endloop
endfacet
facet normal 0.957842 0.287294 0.000000
outer loop
vertex 0.010039 0.004649 0.000000
vertex 0.009875 0.005196 0.150000
vertex 0.010039 0.004649 0.150000
endloop
endfacet
facet normal -0.991999 -0.126245 0.000000
outer loop
vertex 0.000062 0.005768 0.000000
vertex 0.000064 0.005752 0.000000
vertex 0.000064 0.005752 0.150000
endloop
endfacet
facet normal -0.991999 -0.126246 0.000000
outer loop
vertex 0.000062 0.005768 0.000000
vertex 0.000064 0.005752 0.150000
vertex 0.000062 0.005768 0.150000
endloop
endfacet
facet normal -0.992680 -0.120773 0.000000
outer loop
vertex 0.000057 0.005813 0.000000
vertex 0.000062 0.005768 0.000000
vertex 0.000062 0.005768 0.150000
endloop
endfacet
facet normal -0.992680 -0.120773 0.000000
outer loop
vertex 0.000057 0.005813 0.000000
vertex 0.000062 0.005768 0.150000
vertex 0.000057 0.005813 0.150000
endloop
endfacet
facet normal -0.993496 -0.113865 0.000000
outer loop
vertex 0.000049 0.005882 0.000000
vertex 0.000057 0.005813 0.000000
vertex 0.000057 0.005813 0.150000
endloop
endfacet
facet normal -0.993496 -0.113865 0.000000
outer loop
vertex 0.000049 0.005882 0.000000
vertex 0.000057 0.005813 0.150000
vertex 0.000049 0.005882 0.150000
endloop
endfacet
facet normal -0.994400 -0.105681 0.000000
outer loop
vertex 0.000039 0.005972 0.000000
vertex 0.000049 0.005882 0.000000
vertex 0.000049 0.005882 0.150000
endloop
endfacet
facet normal -0.994400 -0.105681 0.000000
outer loop
vertex 0.000039 0.005972 0.000000
vertex 0.000049 0.005882 0.150000
vertex 0.000039 0.005972 0.150000
endloop
endfacet
facet normal -0.995388 -0.095928 0.000000
outer loop
vertex 0.000029 0.006078 0.000000
vertex 0.000039 0.005972 0.000000
vertex 0.000039 0.005972 0.150000
endloop
endfacet
facet normal -0.995388 -0.095928 0.000000
outer loop
vertex 0.000029 0.006078 0.000000
vertex 0.000039 0.005972 0.150000
vertex 0.000029 0.006078 0.150000
endloop
endfacet
facet normal -0.996454 -0.084141 0.000000
outer loop
vertex 0.000019 0.006195 0.000000
vertex 0.000029 0.006078 0.000000
vertex 0.000029 0.006078 0.150000
endloop
endfacet
facet normal -0.996454 -0.084141 0.000000
outer loop
vertex 0.000019 0.006195 0.000000
vertex 0.000029 0.006078 0.150000
vertex 0.000019 0.006195 0.150000
endloop
endfacet
facet normal -0.998681 -0.051350 0.000000
outer loop
vertex 0.000004 0.006447 0.150000
vertex 0.000004 0.006447 0.000000
vertex 0.000010 0.006319 0.000000
endloop
endfacet
facet normal -0.997573 -0.069630 0.000000
outer loop
vertex 0.000010 0.006319 0.000000
vertex 0.000019 0.006195 0.000000
vertex 0.000019 0.006195 0.150000
endloop
endfacet
facet normal -0.998681 -0.051350 0.000000
outer loop
vertex 0.000010 0.006319 0.150000
vertex 0.000004 0.006447 0.150000
vertex 0.000010 0.006319 0.000000
endloop
endfacet
facet normal -0.997573 -0.069630 0.000000
outer loop
vertex 0.000019 0.006195 0.150000
vertex 0.000010 0.006319 0.150000
vertex 0.000010 0.006319 0.000000
endloop
endfacet
facet normal -0.993129 0.117028 0.000000
outer loop
vertex 0.000018 0.006899 0.150000
vertex 0.000018 0.006899 0.000000
vertex 0.000006 0.006803 0.000000
endloop
endfacet
facet normal -0.993129 0.117028 0.000000
outer loop
vertex 0.000018 0.006899 0.150000
vertex 0.000006 0.006803 0.000000
vertex 0.000006 0.006803 0.150000
endloop
endfacet
facet normal -0.927780 0.373127 0.000000
outer loop
vertex 0.000134 0.007253 0.000000
vertex 0.000062 0.007074 0.000000
vertex 0.000062 0.007074 0.150000
endloop
endfacet
facet normal -0.927780 0.373127 0.000000
outer loop
vertex 0.000134 0.007253 0.000000
vertex 0.000062 0.007074 0.150000
vertex 0.000134 0.007253 0.150000
endloop
endfacet
facet normal 0.912989 -0.407984 0.000000
outer loop
vertex 0.009994 0.003125 0.150000
vertex 0.009994 0.003125 0.000000
vertex 0.010073 0.003302 0.000000
endloop
endfacet
facet normal 0.912992 -0.407978 0.000000
outer loop
vertex 0.009994 0.003125 0.150000
vertex 0.010073 0.003302 0.000000
vertex 0.010073 0.003302 0.150000
endloop
endfacet
facet normal 0.159224 -0.987243 0.000000
outer loop
vertex 0.006566 0.000003 0.150000
vertex 0.006566 0.000003 0.000000
vertex 0.006760 0.000034 0.000000
endloop
endfacet
facet normal 0.159224 -0.987243 0.000000
outer loop
vertex 0.006566 0.000003 0.150000
vertex 0.006760 0.000034 0.000000
vertex 0.006760 0.000034 0.150000
endloop
endfacet
facet normal -0.757667 -0.652641 0.000000
outer loop
vertex 0.002586 0.002263 0.000000
vertex 0.002923 0.001872 0.000000
vertex 0.002923 0.001872 0.150000
endloop
endfacet
facet normal -0.757667 -0.652641 0.000000
outer loop
vertex 0.002586 0.002263 0.000000
vertex 0.002923 0.001872 0.150000
vertex 0.002586 0.002263 0.150000
endloop
endfacet
facet normal -0.788339 -0.615241 0.000000
outer loop
vertex 0.001417 0.003761 0.000000
vertex 0.002586 0.002263 0.000000
vertex 0.002586 0.002263 0.150000
endloop
endfacet
facet normal -0.788339 -0.615241 0.000000
outer loop
vertex 0.001417 0.003761 0.000000
vertex 0.002586 0.002263 0.150000
vertex 0.001417 0.003761 0.150000
endloop
endfacet
facet normal -0.833501 -0.552518 0.000000
outer loop
vertex 0.000064 0.005752 0.150000
vertex 0.000064 0.005752 0.000000
vertex 0.001049 0.004267 0.000000
endloop
endfacet
facet normal -0.808107 -0.589035 0.000000
outer loop
vertex 0.001049 0.004267 0.000000
vertex 0.001417 0.003761 0.000000
vertex 0.001417 0.003761 0.150000
endloop
endfacet
facet normal -0.833501 -0.552518 0.000000
outer loop
vertex 0.001049 0.004267 0.150000
vertex 0.000064 0.005752 0.150000
vertex 0.001049 0.004267 0.000000
endloop
endfacet
facet normal -0.808107 -0.589036 0.000000
outer loop
vertex 0.001417 0.003761 0.150000
vertex 0.001049 0.004267 0.150000
vertex 0.001049 0.004267 0.000000
endloop
endfacet
facet normal -0.007144 -0.999974 0.000000
outer loop
vertex 0.006360 0.000005 0.150000
vertex 0.006360 0.000005 0.000000
vertex 0.006566 0.000003 0.000000
endloop
endfacet
facet normal -0.007144 -0.999974 0.000000
outer loop
vertex 0.006360 0.000005 0.150000
vertex 0.006566 0.000003 0.000000
vertex 0.006566 0.000003 0.150000
endloop
endfacet
facet normal 0.000000 0.000000 -1.000000
outer loop
vertex 0.001206 0.008760 0.000000
vertex 0.001322 0.008870 0.000000
vertex 0.001439 0.008983 0.000000
endloop
endfacet
facet normal 0.000000 0.000000 -1.000000
outer loop
vertex 0.001206 0.008760 0.000000
vertex 0.001439 0.008983 0.000000
vertex 0.001558 0.009096 0.000000
endloop
endfacet
facet normal 0.000000 0.000000 -1.000000
outer loop
vertex 0.000987 0.008541 0.000000
vertex 0.001094 0.008650 0.000000
vertex 0.001206 0.008760 0.000000
endloop
endfacet
facet normal 0.000000 0.000000 -1.000000
outer loop
vertex 0.000631 0.008118 0.000000
vertex 0.000886 0.008434 0.000000
vertex 0.000987 0.008541 0.000000
endloop
endfacet
facet normal 0.000000 0.000000 -1.000000
outer loop
vertex 0.000508 0.007914 0.000000
vertex 0.000567 0.008015 0.000000
vertex 0.000631 0.008118 0.000000
endloop
endfacet
facet normal 0.000000 0.000000 -1.000000
outer loop
vertex 0.000279 0.007528 0.000000
vertex 0.000334 0.007622 0.000000
vertex 0.000508 0.007914 0.000000
endloop
endfacet
facet normal 0.000000 0.000000 -1.000000
outer loop
vertex 0.000178 0.007343 0.000000
vertex 0.000226 0.007435 0.000000
vertex 0.000279 0.007528 0.000000
endloop
endfacet
facet normal 0.000000 0.000000 -1.000000
outer loop
vertex 0.000062 0.007074 0.000000
vertex 0.000134 0.007253 0.000000
vertex 0.000178 0.007343 0.000000
endloop
endfacet
facet normal 0.000000 0.000000 -1.000000
outer loop
vertex 0.000006 0.006803 0.000000
vertex 0.000018 0.006899 0.000000
vertex 0.000062 0.007074 0.000000
endloop
endfacet
facet normal 0.000000 0.000000 -1.000000
outer loop
vertex 0.000000 0.006573 0.000000
vertex 0.000001 0.006693 0.000000
vertex 0.000006 0.006803 0.000000
endloop
endfacet
facet normal 0.000000 0.000000 -1.000000
outer loop
vertex 0.000010 0.006319 0.000000
vertex 0.000004 0.006447 0.000000
vertex 0.000000 0.006573 0.000000
endloop
endfacet
facet normal 0.000000 0.000000 -1.000000
outer loop
vertex 0.000029 0.006078 0.000000
vertex 0.000019 0.006195 0.000000
vertex 0.000010 0.006319 0.000000
endloop
endfacet
facet normal 0.000000 0.000000 -1.000000
outer loop
vertex 0.000049 0.005882 0.000000
vertex 0.000039 0.005972 0.000000
vertex 0.000029 0.006078 0.000000
endloop
endfacet
facet normal 0.000000 0.000000 -1.000000
outer loop
vertex 0.000062 0.005768 0.000000
vertex 0.000057 0.005813 0.000000
vertex 0.000049 0.005882 0.000000
endloop
endfacet
facet normal 0.000000 0.000000 -1.000000
outer loop
vertex 0.001049 0.004267 0.000000
vertex 0.000064 0.005752 0.000000
vertex 0.000062 0.005768 0.000000
endloop
endfacet
facet normal 0.000000 0.000000 -1.000000
outer loop
vertex 0.002586 0.002263 0.000000
vertex 0.001417 0.003761 0.000000
vertex 0.001049 0.004267 0.000000
endloop
endfacet
facet normal 0.000000 0.000000 -1.000000
outer loop
vertex 0.003275 0.001525 0.000000
vertex 0.002923 0.001872 0.000000
vertex 0.002586 0.002263 0.000000
endloop
endfacet
facet normal 0.000000 0.000000 -1.000000
outer loop
vertex 0.003897 0.001065 0.000000
vertex 0.003672 0.001212 0.000000
vertex 0.003275 0.001525 0.000000
endloop
endfacet
facet normal 0.000000 0.000000 -1.000000
outer loop
vertex 0.005182 0.000382 0.000000
vertex 0.004145 0.000922 0.000000
vertex 0.003897 0.001065 0.000000
endloop
endfacet
facet normal 0.000000 0.000000 -1.000000
outer loop
vertex 0.005677 0.000171 0.000000
vertex 0.005432 0.000269 0.000000
vertex 0.005182 0.000382 0.000000
endloop
endfacet
facet normal 0.000000 0.000000 -1.000000
outer loop
vertex 0.006360 0.000005 0.000000
vertex 0.006142 0.000035 0.000000
vertex 0.005677 0.000171 0.000000
endloop
endfacet
facet normal 0.000000 0.000000 -1.000000
outer loop
vertex 0.006760 0.000034 0.000000
vertex 0.006566 0.000003 0.000000
vertex 0.006360 0.000005 0.000000
endloop
endfacet
facet normal 0.000000 0.000000 -1.000000
outer loop
vertex 0.007472 0.000405 0.000000
vertex 0.006939 0.000102 0.000000
vertex 0.006760 0.000034 0.000000
endloop
endfacet
facet normal 0.000000 0.000000 -1.000000
outer loop
vertex 0.008688 0.001414 0.000000
vertex 0.008194 0.000936 0.000000
vertex 0.007472 0.000405 0.000000
endloop
endfacet
facet normal 0.000000 0.000000 -1.000000
outer loop
vertex 0.009994 0.003125 0.000000
vertex 0.009783 0.002785 0.000000
vertex 0.008688 0.001414 0.000000
endloop
endfacet
facet normal 0.000000 0.000000 -1.000000
outer loop
vertex 0.010129 0.003484 0.000000
vertex 0.010073 0.003302 0.000000
vertex 0.009994 0.003125 0.000000
endloop
endfacet
facet normal 0.000000 0.000000 -1.000000
outer loop
vertex 0.010159 0.003872 0.000000
vertex 0.010159 0.003674 0.000000
vertex 0.010129 0.003484 0.000000
endloop
endfacet
facet normal 0.000000 0.000000 -1.000000
outer loop
vertex 0.009875 0.005196 0.000000
vertex 0.010039 0.004649 0.000000
vertex 0.010159 0.003872 0.000000
endloop
endfacet
facet normal 0.000000 0.000000 -1.000000
outer loop
vertex 0.009279 0.006397 0.000000
vertex 0.009562 0.005897 0.000000
vertex 0.009875 0.005196 0.000000
endloop
endfacet
facet normal 0.000000 0.000000 -1.000000
outer loop
vertex 0.008932 0.006950 0.000000
vertex 0.009103 0.006687 0.000000
vertex 0.009279 0.006397 0.000000
endloop
endfacet
facet normal 0.000000 0.000000 -1.000000
outer loop
vertex 0.008758 0.007191 0.000000
vertex 0.008846 0.007073 0.000000
vertex 0.008932 0.006950 0.000000
endloop
endfacet
facet normal 0.000000 0.000000 -1.000000
outer loop
vertex 0.008077 0.007946 0.000000
vertex 0.008476 0.007532 0.000000
vertex 0.008758 0.007191 0.000000
endloop
endfacet
facet normal 0.000000 0.000000 -1.000000
outer loop
vertex 0.007608 0.008367 0.000000
vertex 0.007895 0.008121 0.000000
vertex 0.008077 0.007946 0.000000
endloop
endfacet
facet normal 0.000000 0.000000 -1.000000
outer loop
vertex 0.006942 0.008810 0.000000
vertex 0.007132 0.008708 0.000000
vertex 0.007608 0.008367 0.000000
endloop
endfacet
facet normal 0.000000 0.000000 -1.000000
outer loop
vertex 0.006325 0.009057 0.000000
vertex 0.006667 0.008928 0.000000
vertex 0.006942 0.008810 0.000000
endloop
endfacet
facet normal 0.000000 0.000000 -1.000000
outer loop
vertex 0.003848 0.009781 0.000000
vertex 0.005508 0.009327 0.000000
vertex 0.006325 0.009057 0.000000
endloop
endfacet
facet normal 0.000000 0.000000 -1.000000
outer loop
vertex 0.003144 0.009889 0.000000
vertex 0.003292 0.009885 0.000000
vertex 0.003848 0.009781 0.000000
endloop
endfacet
facet normal 0.000000 0.000000 -1.000000
outer loop
vertex 0.002945 0.009859 0.000000
vertex 0.003047 0.009874 0.000000
vertex 0.003144 0.009889 0.000000
endloop
endfacet
facet normal 0.000000 0.000000 -1.000000
outer loop
vertex 0.002728 0.009820 0.000000
vertex 0.002838 0.009841 0.000000
vertex 0.002945 0.009859 0.000000
endloop
endfacet
facet normal 0.000000 0.000000 -1.000000
outer loop
vertex 0.002265 0.009664 0.000000
vertex 0.002500 0.009759 0.000000
vertex 0.002728 0.009820 0.000000
endloop
endfacet
facet normal 0.000000 0.000000 -1.000000
outer loop
vertex 0.001910 0.009432 0.000000
vertex 0.002028 0.009523 0.000000
vertex 0.002265 0.009664 0.000000
endloop
endfacet
facet normal 0.000000 0.000000 -1.000000
outer loop
vertex 0.001677 0.009210 0.000000
vertex 0.001793 0.009325 0.000000
vertex 0.001910 0.009432 0.000000
endloop
endfacet
facet normal 0.000000 0.000000 -1.000000
outer loop
vertex 0.000987 0.008541 0.000000
vertex 0.001206 0.008760 0.000000
vertex 0.001558 0.009096 0.000000
endloop
endfacet
facet normal 0.000000 0.000000 -1.000000
outer loop
vertex 0.001558 0.009096 0.000000
vertex 0.001677 0.009210 0.000000
vertex 0.001910 0.009432 0.000000
endloop
endfacet
facet normal 0.000000 0.000000 -1.000000
outer loop
vertex 0.001910 0.009432 0.000000
vertex 0.002265 0.009664 0.000000
vertex 0.002728 0.009820 0.000000
endloop
endfacet
facet normal 0.000000 0.000000 -1.000000
outer loop
vertex 0.002728 0.009820 0.000000
vertex 0.002945 0.009859 0.000000
vertex 0.003144 0.009889 0.000000
endloop
endfacet
facet normal 0.000000 0.000000 -1.000000
outer loop
vertex 0.003144 0.009889 0.000000
vertex 0.003848 0.009781 0.000000
vertex 0.006325 0.009057 0.000000
endloop
endfacet
facet normal 0.000000 0.000000 -1.000000
outer loop
vertex 0.006325 0.009057 0.000000
vertex 0.006942 0.008810 0.000000
vertex 0.007608 0.008367 0.000000
endloop
endfacet
facet normal 0.000000 0.000000 -1.000000
outer loop
vertex 0.007608 0.008367 0.000000
vertex 0.008077 0.007946 0.000000
vertex 0.008758 0.007191 0.000000
endloop
endfacet
facet normal 0.000000 0.000000 -1.000000
outer loop
vertex 0.008758 0.007191 0.000000
vertex 0.008932 0.006950 0.000000
vertex 0.009279 0.006397 0.000000
endloop
endfacet
facet normal 0.000000 0.000000 -1.000000
outer loop
vertex 0.009279 0.006397 0.000000
vertex 0.009875 0.005196 0.000000
vertex 0.010159 0.003872 0.000000
endloop
endfacet
facet normal 0.000000 0.000000 -1.000000
outer loop
vertex 0.010159 0.003872 0.000000
vertex 0.010129 0.003484 0.000000
vertex 0.009994 0.003125 0.000000
endloop
endfacet
facet normal 0.000000 0.000000 -1.000000
outer loop
vertex 0.009994 0.003125 0.000000
vertex 0.008688 0.001414 0.000000
vertex 0.007472 0.000405 0.000000
endloop
endfacet
facet normal 0.000000 0.000000 -1.000000
outer loop
vertex 0.007472 0.000405 0.000000
vertex 0.006760 0.000034 0.000000
vertex 0.006360 0.000005 0.000000
endloop
endfacet
facet normal 0.000000 0.000000 -1.000000
outer loop
vertex 0.006360 0.000005 0.000000
vertex 0.005677 0.000171 0.000000
vertex 0.005182 0.000382 0.000000
endloop
endfacet
facet normal 0.000000 0.000000 -1.000000
outer loop
vertex 0.005182 0.000382 0.000000
vertex 0.003897 0.001065 0.000000
vertex 0.003275 0.001525 0.000000
endloop
endfacet
facet normal 0.000000 0.000000 -1.000000
outer loop
vertex 0.003275 0.001525 0.000000
vertex 0.002586 0.002263 0.000000
vertex 0.001049 0.004267 0.000000
endloop
endfacet
facet normal 0.000000 0.000000 -1.000000
outer loop
vertex 0.001049 0.004267 0.000000
vertex 0.000062 0.005768 0.000000
vertex 0.000049 0.005882 0.000000
endloop
endfacet
facet normal 0.000000 0.000000 -1.000000
outer loop
vertex 0.000049 0.005882 0.000000
vertex 0.000029 0.006078 0.000000
vertex 0.000010 0.006319 0.000000
endloop
endfacet
facet normal 0.000000 0.000000 -1.000000
outer loop
vertex 0.000010 0.006319 0.000000
vertex 0.000000 0.006573 0.000000
vertex 0.000006 0.006803 0.000000
endloop
endfacet
facet normal 0.000000 0.000000 -1.000000
outer loop
vertex 0.000006 0.006803 0.000000
vertex 0.000062 0.007074 0.000000
vertex 0.000178 0.007343 0.000000
endloop
endfacet
facet normal 0.000000 0.000000 -1.000000
outer loop
vertex 0.000178 0.007343 0.000000
vertex 0.000279 0.007528 0.000000
vertex 0.000508 0.007914 0.000000
endloop
endfacet
facet normal 0.000000 0.000000 -1.000000
outer loop
vertex 0.000508 0.007914 0.000000
vertex 0.000631 0.008118 0.000000
vertex 0.000987 0.008541 0.000000
endloop
endfacet
facet normal 0.000000 0.000000 -1.000000
outer loop
vertex 0.000987 0.008541 0.000000
vertex 0.001558 0.009096 0.000000
vertex 0.001910 0.009432 0.000000
endloop
endfacet
facet normal 0.000000 0.000000 -1.000000
outer loop
vertex 0.001910 0.009432 0.000000
vertex 0.002728 0.009820 0.000000
vertex 0.003144 0.009889 0.000000
endloop
endfacet
facet normal 0.000000 0.000000 -1.000000
outer loop
vertex 0.003144 0.009889 0.000000
vertex 0.006325 0.009057 0.000000
vertex 0.007608 0.008367 0.000000
endloop
endfacet
facet normal 0.000000 0.000000 -1.000000
outer loop
vertex 0.007608 0.008367 0.000000
vertex 0.008758 0.007191 0.000000
vertex 0.009279 0.006397 0.000000
endloop
endfacet
facet normal 0.000000 0.000000 -1.000000
outer loop
vertex 0.009279 0.006397 0.000000
vertex 0.010159 0.003872 0.000000
vertex 0.009994 0.003125 0.000000
endloop
endfacet
facet normal 0.000000 0.000000 -1.000000
outer loop
vertex 0.009994 0.003125 0.000000
vertex 0.007472 0.000405 0.000000
vertex 0.006360 0.000005 0.000000
endloop
endfacet
facet normal 0.000000 0.000000 -1.000000
outer loop
vertex 0.006360 0.000005 0.000000
vertex 0.005182 0.000382 0.000000
vertex 0.003275 0.001525 0.000000
endloop
endfacet
facet normal 0.000000 0.000000 -1.000000
outer loop
vertex 0.003275 0.001525 0.000000
vertex 0.001049 0.004267 0.000000
vertex 0.000049 0.005882 0.000000
endloop
endfacet
facet normal 0.000000 0.000000 -1.000000
outer loop
vertex 0.000049 0.005882 0.000000
vertex 0.000010 0.006319 0.000000
vertex 0.000006 0.006803 0.000000
endloop
endfacet
facet normal 0.000000 0.000000 -1.000000
outer loop
vertex 0.000006 0.006803 0.000000
vertex 0.000178 0.007343 0.000000
vertex 0.000508 0.007914 0.000000
endloop
endfacet
facet normal 0.000000 0.000000 -1.000000
outer loop
vertex 0.000508 0.007914 0.000000
vertex 0.000987 0.008541 0.000000
vertex 0.001910 0.009432 0.000000
endloop
endfacet
facet normal 0.000000 0.000000 -1.000000
outer loop
vertex 0.001910 0.009432 0.000000
vertex 0.003144 0.009889 0.000000
vertex 0.007608 0.008367 0.000000
endloop
endfacet
facet normal 0.000000 0.000000 -1.000000
outer loop
vertex 0.007608 0.008367 0.000000
vertex 0.009279 0.006397 0.000000
vertex 0.009994 0.003125 0.000000
endloop
endfacet
facet normal 0.000000 0.000000 -1.000000
outer loop
vertex 0.009994 0.003125 0.000000
vertex 0.006360 0.000005 0.000000
vertex 0.003275 0.001525 0.000000
endloop
endfacet
facet normal 0.000000 0.000000 -1.000000
outer loop
vertex 0.003275 0.001525 0.000000
vertex 0.000049 0.005882 0.000000
vertex 0.000006 0.006803 0.000000
endloop
endfacet
facet normal 0.000000 0.000000 -1.000000
outer loop
vertex 0.000006 0.006803 0.000000
vertex 0.000508 0.007914 0.000000
vertex 0.001910 0.009432 0.000000
endloop
endfacet
facet normal 0.000000 0.000000 -1.000000
outer loop
vertex 0.001910 0.009432 0.000000
vertex 0.007608 0.008367 0.000000
vertex 0.009994 0.003125 0.000000
endloop
endfacet
facet normal 0.000000 0.000000 -1.000000
outer loop
vertex 0.009994 0.003125 0.000000
vertex 0.003275 0.001525 0.000000
vertex 0.000006 0.006803 0.000000
endloop
endfacet
facet normal 0.000000 0.000000 -1.000000
outer loop
vertex 0.001910 0.009432 0.000000
vertex 0.009994 0.003125 0.000000
vertex 0.000006 0.006803 0.000000
endloop
endfacet
facet normal 0.695335 -0.718686 0.000000
outer loop
vertex 0.008194 0.000936 0.150000
vertex 0.008194 0.000936 0.000000
vertex 0.008688 0.001414 0.000000
endloop
endfacet
facet normal 0.695335 -0.718686 0.000000
outer loop
vertex 0.008194 0.000936 0.150000
vertex 0.008688 0.001414 0.000000
vertex 0.008688 0.001414 0.150000
endloop
endfacet
facet normal -0.618939 -0.785439 0.000000
outer loop
vertex 0.003275 0.001525 0.150000
vertex 0.003275 0.001525 0.000000
vertex 0.003672 0.001212 0.000000
endloop
endfacet
facet normal -0.618939 -0.785439 0.000000
outer loop
vertex 0.003275 0.001525 0.150000
vertex 0.003672 0.001212 0.000000
vertex 0.003672 0.001212 0.150000
endloop
endfacet
facet normal 0.474078 0.880483 0.000000
outer loop
vertex 0.007132 0.008708 0.150000
vertex 0.007132 0.008708 0.000000
vertex 0.006942 0.008810 0.000000
endloop
endfacet
facet normal 0.474081 0.880481 0.000000
outer loop
vertex 0.007132 0.008708 0.150000
vertex 0.006942 0.008810 0.000000
vertex 0.006942 0.008810 0.150000
endloop
endfacet
facet normal 0.263711 0.964602 0.000000
outer loop
vertex 0.005508 0.009327 0.000000
vertex 0.003848 0.009781 0.000000
vertex 0.003848 0.009781 0.150000
endloop
endfacet
facet normal 0.263711 0.964602 0.000000
outer loop
vertex 0.005508 0.009327 0.000000
vertex 0.003848 0.009781 0.150000
vertex 0.005508 0.009327 0.150000
endloop
endfacet
facet normal 0.351659 0.936128 0.000000
outer loop
vertex 0.006667 0.008928 0.150000
vertex 0.006667 0.008928 0.000000
vertex 0.006325 0.009057 0.000000
endloop
endfacet
facet normal 0.314197 0.949358 0.000000
outer loop
vertex 0.006325 0.009057 0.000000
vertex 0.005508 0.009327 0.000000
vertex 0.005508 0.009327 0.150000
endloop
endfacet
facet normal 0.351659 0.936128 0.000000
outer loop
vertex 0.006325 0.009057 0.150000
vertex 0.006667 0.008928 0.150000
vertex 0.006325 0.009057 0.000000
endloop
endfacet
facet normal 0.314198 0.949358 0.000000
outer loop
vertex 0.006325 0.009057 0.000000
vertex 0.005508 0.009327 0.150000
vertex 0.006325 0.009057 0.150000
endloop
endfacet
facet normal 0.720816 0.693126 0.000000
outer loop
vertex 0.008476 0.007532 0.150000
vertex 0.008476 0.007532 0.000000
vertex 0.008077 0.007946 0.000000
endloop
endfacet
facet normal 0.650826 0.759227 0.000000
outer loop
vertex 0.007895 0.008121 0.000000
vertex 0.007608 0.008367 0.000000
vertex 0.007608 0.008367 0.150000
endloop
endfacet
facet normal 0.692980 0.720956 0.000151
outer loop
vertex 0.008476 0.007532 0.150000
vertex 0.008077 0.007946 0.000000
vertex 0.007895 0.008121 0.000000
endloop
endfacet
facet normal 0.720816 0.693126 -0.000066
outer loop
vertex 0.008077 0.007946 0.150000
vertex 0.008476 0.007532 0.150000
vertex 0.007895 0.008121 0.000000
endloop
endfacet
facet normal 0.650824 0.759229 0.000000
outer loop
vertex 0.007895 0.008121 0.000000
vertex 0.007608 0.008367 0.150000
vertex 0.007895 0.008121 0.150000
endloop
endfacet
facet normal 0.692983 0.720954 0.000000
outer loop
vertex 0.007895 0.008121 0.000000
vertex 0.007895 0.008121 0.150000
vertex 0.008077 0.007946 0.150000
endloop
endfacet
facet normal 0.955680 -0.294408 0.000000
outer loop
vertex 0.010073 0.003302 0.150000
vertex 0.010073 0.003302 0.000000
vertex 0.010129 0.003484 0.000000
endloop
endfacet
facet normal 0.955682 -0.294400 0.000000
outer loop
vertex 0.010073 0.003302 0.150000
vertex 0.010129 0.003484 0.000000
vertex 0.010129 0.003484 0.150000
endloop
endfacet
facet normal 0.988229 0.152981 0.000000
outer loop
vertex 0.010159 0.003872 0.000000
vertex 0.010039 0.004649 0.000000
vertex 0.010039 0.004649 0.150000
endloop
endfacet
facet normal 0.988229 0.152981 0.000000
outer loop
vertex 0.010159 0.003872 0.000000
vertex 0.010039 0.004649 0.150000
vertex 0.010159 0.003872 0.150000
endloop
endfacet
facet normal 0.781494 -0.623913 0.000000
outer loop
vertex 0.009783 0.002785 0.000000
vertex 0.009783 0.002785 0.150000
vertex 0.008688 0.001414 0.150000
endloop
endfacet
facet normal 0.781494 -0.623912 0.000000
outer loop
vertex 0.009783 0.002785 0.000000
vertex 0.008688 0.001414 0.150000
vertex 0.008688 0.001414 0.000000
endloop
endfacet
facet normal -0.969095 0.246690 0.000000
outer loop
vertex 0.000062 0.007074 0.150000
vertex 0.000062 0.007074 0.000000
vertex 0.000018 0.006899 0.000000
endloop
endfacet
facet normal -0.969095 0.246690 0.000000
outer loop
vertex 0.000062 0.007074 0.150000
vertex 0.000018 0.006899 0.000000
vertex 0.000018 0.006899 0.150000
endloop
endfacet
facet normal -0.778054 0.628197 0.000000
outer loop
vertex 0.000886 0.008434 0.000000
vertex 0.000631 0.008118 0.000000
vertex 0.000631 0.008118 0.150000
endloop
endfacet
facet normal -0.778054 0.628197 0.000000
outer loop
vertex 0.000886 0.008434 0.000000
vertex 0.000631 0.008118 0.150000
vertex 0.000886 0.008434 0.150000
endloop
endfacet
facet normal 0.494764 -0.869028 0.000000
outer loop
vertex 0.006939 0.000102 0.000000
vertex 0.007472 0.000405 0.000000
vertex 0.007472 0.000405 0.150000
endloop
endfacet
facet normal 0.494765 -0.869027 0.000000
outer loop
vertex 0.006939 0.000102 0.000000
vertex 0.007472 0.000405 0.150000
vertex 0.006939 0.000102 0.150000
endloop
endfacet
facet normal 0.000000 0.000000 1.000000
outer loop
vertex 0.000279 0.007528 0.000000
vertex 0.000226 0.007435 0.000000
vertex 0.000178 0.007343 0.000000
endloop
endfacet
facet normal -0.899247 0.437441 0.000000
outer loop
vertex 0.000178 0.007343 0.000000
vertex 0.000134 0.007253 0.000000
vertex 0.000134 0.007253 0.150000
endloop
endfacet
facet normal -0.899247 0.437441 0.000000
outer loop
vertex 0.000178 0.007343 0.000000
vertex 0.000134 0.007253 0.150000
vertex 0.000178 0.007343 0.150000
endloop
endfacet
facet normal 0.000000 0.000000 1.000000
outer loop
vertex 0.000334 0.007622 0.000000
vertex 0.000279 0.007528 0.000000
vertex 0.000178 0.007343 0.000000
endloop
endfacet
facet normal 0.000000 0.000000 1.000000
outer loop
vertex 0.000631 0.008118 0.000000
vertex 0.000567 0.008015 0.000000
vertex 0.000508 0.007914 0.000000
endloop
endfacet
facet normal 0.000000 0.000000 1.000000
outer loop
vertex 0.000508 0.007914 0.000000
vertex 0.000334 0.007622 0.000000
vertex 0.000178 0.007343 0.000000
endloop
endfacet
facet normal -0.883992 0.467503 0.000000
outer loop
vertex 0.000178 0.007343 0.000000
vertex 0.000178 0.007343 0.150000
vertex 0.000226 0.007435 0.150000
endloop
endfacet
facet normal -0.872104 0.489321 -0.000017
outer loop
vertex 0.000178 0.007343 0.000000
vertex 0.000226 0.007435 0.150000
vertex 0.000279 0.007528 0.150000
endloop
endfacet
facet normal 0.000000 0.000000 1.000000
outer loop
vertex 0.000631 0.008118 0.000000
vertex 0.000508 0.007914 0.000000
vertex 0.000178 0.007343 0.000000
endloop
endfacet
facet normal -0.847418 0.530926 0.000000
outer loop
vertex 0.000567 0.008015 0.150000
vertex 0.000631 0.008118 0.150000
vertex 0.000631 0.008118 0.000000
endloop
endfacet
facet normal -0.864650 0.502375 -0.000027
outer loop
vertex 0.000508 0.007914 0.150000
vertex 0.000567 0.008015 0.150000
vertex 0.000631 0.008118 0.000000
endloop
endfacet
facet normal -0.863262 0.504756 -0.000042
outer loop
vertex 0.000631 0.008118 0.000000
vertex 0.000178 0.007343 0.000000
vertex 0.000279 0.007528 0.150000
endloop
endfacet
facet normal -0.858723 0.512439 -0.000008
outer loop
vertex 0.000334 0.007622 0.150000
vertex 0.000508 0.007914 0.150000
vertex 0.000631 0.008118 0.000000
endloop
endfacet
facet normal -0.863759 0.503905 -0.000047
outer loop
vertex 0.000279 0.007528 0.150000
vertex 0.000334 0.007622 0.150000
vertex 0.000631 0.008118 0.000000
endloop
endfacet
facet normal 0.912917 0.408145 0.000000
outer loop
vertex 0.009875 0.005196 0.150000
vertex 0.009875 0.005196 0.000000
vertex 0.009562 0.005897 0.000000
endloop
endfacet
facet normal 0.912918 0.408143 0.000000
outer loop
vertex 0.009875 0.005196 0.150000
vertex 0.009562 0.005897 0.000000
vertex 0.009562 0.005897 0.150000
endloop
endfacet
facet normal 0.849389 -0.527767 0.000000
outer loop
vertex 0.009783 0.002785 0.150000
vertex 0.009783 0.002785 0.000000
vertex 0.009994 0.003125 0.000000
endloop
endfacet
facet normal 0.849389 -0.527767 0.000000
outer loop
vertex 0.009783 0.002785 0.150000
vertex 0.009994 0.003125 0.000000
vertex 0.009994 0.003125 0.150000
endloop
endfacet
facet normal -0.139471 -0.990226 0.000000
outer loop
vertex 0.006142 0.000035 0.150000
vertex 0.006142 0.000035 0.000000
vertex 0.006360 0.000005 0.000000
endloop
endfacet
facet normal -0.139472 -0.990226 0.000000
outer loop
vertex 0.006142 0.000035 0.150000
vertex 0.006360 0.000005 0.000000
vertex 0.006360 0.000005 0.150000
endloop
endfacet
facet normal -0.546887 -0.837206 0.000000
outer loop
vertex 0.003672 0.001212 0.150000
vertex 0.003672 0.001212 0.000000
vertex 0.003897 0.001065 0.000000
endloop
endfacet
facet normal -0.546886 -0.837207 0.000000
outer loop
vertex 0.003672 0.001212 0.150000
vertex 0.003897 0.001065 0.000000
vertex 0.003897 0.001065 0.150000
endloop
endfacet
facet normal -0.728181 0.685385 0.000000
outer loop
vertex 0.000987 0.008541 0.000000
vertex 0.000886 0.008434 0.000000
vertex 0.000886 0.008434 0.150000
endloop
endfacet
facet normal -0.728181 0.685385 0.000000
outer loop
vertex 0.000987 0.008541 0.000000
vertex 0.000886 0.008434 0.150000
vertex 0.000987 0.008541 0.150000
endloop
endfacet
facet normal -0.711798 0.702384 0.000000
outer loop
vertex 0.001094 0.008650 0.000000
vertex 0.000987 0.008541 0.000000
vertex 0.000987 0.008541 0.150000
endloop
endfacet
facet normal -0.711799 0.702383 0.000000
outer loop
vertex 0.001094 0.008650 0.000000
vertex 0.000987 0.008541 0.150000
vertex 0.001094 0.008650 0.150000
endloop
endfacet
facet normal -0.700082 0.714062 0.000000
outer loop
vertex 0.001206 0.008760 0.000000
vertex 0.001094 0.008650 0.000000
vertex 0.001094 0.008650 0.150000
endloop
endfacet
facet normal -0.700082 0.714062 0.000000
outer loop
vertex 0.001206 0.008760 0.000000
vertex 0.001094 0.008650 0.150000
vertex 0.001206 0.008760 0.150000
endloop
endfacet
facet normal -0.692682 0.721243 0.000000
outer loop
vertex 0.001322 0.008870 0.000000
vertex 0.001206 0.008760 0.000000
vertex 0.001206 0.008760 0.150000
endloop
endfacet
facet normal -0.692683 0.721243 0.000000
outer loop
vertex 0.001322 0.008870 0.000000
vertex 0.001206 0.008760 0.150000
vertex 0.001322 0.008870 0.150000
endloop
endfacet
facet normal -0.689334 0.724443 0.000000
outer loop
vertex 0.001439 0.008983 0.000000
vertex 0.001322 0.008870 0.000000
vertex 0.001322 0.008870 0.150000
endloop
endfacet
facet normal -0.689334 0.724443 0.000000
outer loop
vertex 0.001439 0.008983 0.000000
vertex 0.001322 0.008870 0.150000
vertex 0.001439 0.008983 0.150000
endloop
endfacet
facet normal -0.689863 0.723940 0.000000
outer loop
vertex 0.001558 0.009096 0.000000
vertex 0.001439 0.008983 0.000000
vertex 0.001439 0.008983 0.150000
endloop
endfacet
facet normal -0.689863 0.723940 0.000000
outer loop
vertex 0.001558 0.009096 0.000000
vertex 0.001439 0.008983 0.150000
vertex 0.001558 0.009096 0.150000
endloop
endfacet
facet normal -0.694165 0.719817 0.000000
outer loop
vertex 0.001677 0.009210 0.000000
vertex 0.001558 0.009096 0.000000
vertex 0.001558 0.009096 0.150000
endloop
endfacet
facet normal -0.694165 0.719816 0.000000
outer loop
vertex 0.001677 0.009210 0.000000
vertex 0.001558 0.009096 0.150000
vertex 0.001677 0.009210 0.150000
endloop
endfacet
facet normal -0.677286 0.735719 0.000000
outer loop
vertex 0.001910 0.009432 0.150000
vertex 0.001910 0.009432 0.000000
vertex 0.001793 0.009325 0.000000
endloop
endfacet
facet normal -0.702216 0.711964 0.000000
outer loop
vertex 0.001793 0.009325 0.000000
vertex 0.001677 0.009210 0.000000
vertex 0.001677 0.009210 0.150000
endloop
endfacet
facet normal -0.677286 0.735719 0.000000
outer loop
vertex 0.001793 0.009325 0.150000
vertex 0.001910 0.009432 0.150000
vertex 0.001793 0.009325 0.000000
endloop
endfacet
facet normal -0.702215 0.711965 0.000000
outer loop
vertex 0.001677 0.009210 0.150000
vertex 0.001793 0.009325 0.150000
vertex 0.001793 0.009325 0.000000
endloop
endfacet
facet normal 0.000000 0.000000 1.000000
outer loop
vertex 0.009103 0.006687 0.000000
vertex 0.008932 0.006950 0.000000
vertex 0.008846 0.007073 0.000000
endloop
endfacet
facet normal 0.804346 0.594162 0.000000
outer loop
vertex 0.008846 0.007073 0.000000
vertex 0.008758 0.007191 0.000000
vertex 0.008758 0.007191 0.150000
endloop
endfacet
facet normal 0.804346 0.594162 0.000000
outer loop
vertex 0.008846 0.007073 0.000000
vertex 0.008758 0.007191 0.150000
vertex 0.008846 0.007073 0.150000
endloop
endfacet
facet normal 0.000000 0.000000 1.000000
outer loop
vertex 0.009279 0.006397 0.000000
vertex 0.009103 0.006687 0.000000
vertex 0.008846 0.007073 0.000000
endloop
endfacet
facet normal 0.870095 0.492883 0.000000
outer loop
vertex 0.009562 0.005897 0.150000
vertex 0.009562 0.005897 0.000000
vertex 0.009279 0.006397 0.000000
endloop
endfacet
facet normal 0.870098 0.492879 0.000000
outer loop
vertex 0.009279 0.006397 0.150000
vertex 0.009562 0.005897 0.150000
vertex 0.009279 0.006397 0.000000
endloop
endfacet
facet normal 0.841986 0.539499 0.000000
outer loop
vertex 0.009279 0.006397 0.000000
vertex 0.008846 0.007073 0.000000
vertex 0.008846 0.007073 0.150000
endloop
endfacet
facet normal 0.819129 0.573609 -0.000220
outer loop
vertex 0.009279 0.006397 0.000000
vertex 0.008846 0.007073 0.150000
vertex 0.008932 0.006950 0.150000
endloop
endfacet
facet normal 0.855519 0.517771 0.000000
outer loop
vertex 0.009103 0.006687 0.150000
vertex 0.009279 0.006397 0.150000
vertex 0.009279 0.006397 0.000000
endloop
endfacet
facet normal 0.837606 0.546275 -0.000076
outer loop
vertex 0.008932 0.006950 0.150000
vertex 0.009103 0.006687 0.150000
vertex 0.009279 0.006397 0.000000
endloop
endfacet
facet normal -0.612238 0.790674 0.000000
outer loop
vertex 0.002028 0.009523 0.150000
vertex 0.002028 0.009523 0.000000
vertex 0.001910 0.009432 0.000000
endloop
endfacet
facet normal -0.612236 0.790675 0.000000
outer loop
vertex 0.002028 0.009523 0.150000
vertex 0.001910 0.009432 0.000000
vertex 0.001910 0.009432 0.150000
endloop
endfacet
facet normal -0.279368 -0.960184 0.000000
outer loop
vertex 0.005677 0.000171 0.150000
vertex 0.005677 0.000171 0.000000
vertex 0.006142 0.000035 0.000000
endloop
endfacet
facet normal -0.279368 -0.960184 0.000000
outer loop
vertex 0.005677 0.000171 0.150000
vertex 0.006142 0.000035 0.000000
vertex 0.006142 0.000035 0.150000
endloop
endfacet
facet normal 0.581953 0.813223 0.000000
outer loop
vertex 0.007608 0.008367 0.000000
vertex 0.007132 0.008708 0.000000
vertex 0.007132 0.008708 0.150000
endloop
endfacet
facet normal 0.581953 0.813223 0.000000
outer loop
vertex 0.007608 0.008367 0.000000
vertex 0.007132 0.008708 0.150000
vertex 0.007608 0.008367 0.150000
endloop
endfacet
endsolid Exported from Blender-3.6.8
