solid Exported from Blender-3.6.8
facet normal -0.203247 -0.979127 0.000000
outer loop
vertex 0.000376 0.000020 0.150000
vertex 0.000376 0.000020 0.000000
vertex 0.000465 0.000002 0.000000
endloop
endfacet
facet normal -0.203247 -0.979127 0.000000
outer loop
vertex 0.000376 0.000020 0.150000
vertex 0.000465 0.000002 0.000000
vertex 0.000465 0.000002 0.150000
endloop
endfacet
facet normal 0.000000 0.000000 -1.000000
outer loop
vertex 0.001171 0.005002 0.000000
vertex 0.001343 0.005567 0.000000
vertex 0.001483 0.006024 0.000000
endloop
endfacet
facet normal 0.000000 0.000000 -1.000000
outer loop
vertex 0.001483 0.006024 0.000000
vertex 0.001581 0.006337 0.000000
vertex 0.001625 0.006471 0.000000
endloop
endfacet
facet normal 0.000000 0.000000 -1.000000
outer loop
vertex 0.001625 0.006471 0.000000
vertex 0.002184 0.007560 0.000000
vertex 0.002294 0.007720 0.000000
endloop
endfacet
facet normal 0.000000 0.000000 -1.000000
outer loop
vertex 0.002294 0.007720 0.000000
vertex 0.002347 0.007765 0.000000
vertex 0.002418 0.007804 0.000000
endloop
endfacet
facet normal 0.000000 0.000000 -1.000000
outer loop
vertex 0.002418 0.007804 0.000000
vertex 0.002503 0.007838 0.000000
vertex 0.002601 0.007866 0.000000
endloop
endfacet
facet normal 0.000000 0.000000 -1.000000
outer loop
vertex 0.002601 0.007866 0.000000
vertex 0.002822 0.007906 0.000000
vertex 0.002940 0.007918 0.000000
endloop
endfacet
facet normal 0.000000 0.000000 -1.000000
outer loop
vertex 0.002940 0.007918 0.000000
vertex 0.003059 0.007926 0.000000
vertex 0.003177 0.007930 0.000000
endloop
endfacet
facet normal 0.000000 0.000000 -1.000000
outer loop
vertex 0.003177 0.007930 0.000000
vertex 0.003291 0.007930 0.000000
vertex 0.003497 0.007917 0.000000
endloop
endfacet
facet normal 0.000000 0.000000 -1.000000
outer loop
vertex 0.003497 0.007917 0.000000
vertex 0.003586 0.007902 0.000000
vertex 0.003670 0.007875 0.000000
endloop
endfacet
facet normal 0.000000 0.000000 -1.000000
outer loop
vertex 0.003670 0.007875 0.000000
vertex 0.003750 0.007838 0.000000
vertex 0.003827 0.007791 0.000000
endloop
endfacet
facet normal 0.000000 0.000000 -1.000000
outer loop
vertex 0.003827 0.007791 0.000000
vertex 0.003903 0.007734 0.000000
vertex 0.004053 0.007592 0.000000
endloop
endfacet
facet normal 0.000000 0.000000 -1.000000
outer loop
vertex 0.004053 0.007592 0.000000
vertex 0.004739 0.006778 0.000000
vertex 0.004873 0.006576 0.000000
endloop
endfacet
facet normal 0.000000 0.000000 -1.000000
outer loop
vertex 0.004873 0.006576 0.000000
vertex 0.005037 0.006265 0.000000
vertex 0.005270 0.005653 0.000000
endloop
endfacet
facet normal 0.000000 0.000000 -1.000000
outer loop
vertex 0.005270 0.005653 0.000000
vertex 0.005294 0.005539 0.000000
vertex 0.005303 0.005438 0.000000
endloop
endfacet
facet normal 0.000000 0.000000 -1.000000
outer loop
vertex 0.005303 0.005438 0.000000
vertex 0.005298 0.005346 0.000000
vertex 0.005282 0.005259 0.000000
endloop
endfacet
facet normal 0.000000 0.000000 -1.000000
outer loop
vertex 0.005282 0.005259 0.000000
vertex 0.005256 0.005176 0.000000
vertex 0.005221 0.005092 0.000000
endloop
endfacet
facet normal 0.000000 0.000000 -1.000000
outer loop
vertex 0.005221 0.005092 0.000000
vertex 0.005179 0.005005 0.000000
vertex 0.005131 0.004912 0.000000
endloop
endfacet
facet normal 0.000000 0.000000 -1.000000
outer loop
vertex 0.005221 0.005092 0.000000
vertex 0.005131 0.004912 0.000000
vertex 0.005080 0.004809 0.000000
endloop
endfacet
facet normal 0.000000 0.000000 -1.000000
outer loop
vertex 0.005303 0.005438 0.000000
vertex 0.005282 0.005259 0.000000
vertex 0.005221 0.005092 0.000000
endloop
endfacet
facet normal 0.000000 0.000000 -1.000000
outer loop
vertex 0.004873 0.006576 0.000000
vertex 0.005270 0.005653 0.000000
vertex 0.005303 0.005438 0.000000
endloop
endfacet
facet normal 0.000000 0.000000 -1.000000
outer loop
vertex 0.003827 0.007791 0.000000
vertex 0.004053 0.007592 0.000000
vertex 0.004873 0.006576 0.000000
endloop
endfacet
facet normal 0.000000 0.000000 -1.000000
outer loop
vertex 0.003497 0.007917 0.000000
vertex 0.003670 0.007875 0.000000
vertex 0.003827 0.007791 0.000000
endloop
endfacet
facet normal 0.000000 0.000000 -1.000000
outer loop
vertex 0.002940 0.007918 0.000000
vertex 0.003177 0.007930 0.000000
vertex 0.003497 0.007917 0.000000
endloop
endfacet
facet normal 0.000000 0.000000 -1.000000
outer loop
vertex 0.002418 0.007804 0.000000
vertex 0.002601 0.007866 0.000000
vertex 0.002940 0.007918 0.000000
endloop
endfacet
facet normal 0.000000 0.000000 -1.000000
outer loop
vertex 0.001625 0.006471 0.000000
vertex 0.002294 0.007720 0.000000
vertex 0.002418 0.007804 0.000000
endloop
endfacet
facet normal 0.000000 0.000000 -1.000000
outer loop
vertex 0.001171 0.005002 0.000000
vertex 0.001483 0.006024 0.000000
vertex 0.001625 0.006471 0.000000
endloop
endfacet
facet normal 0.000000 0.000000 -1.000000
outer loop
vertex 0.000778 0.003692 0.000000
vertex 0.000979 0.004365 0.000000
vertex 0.001171 0.005002 0.000000
endloop
endfacet
facet normal 0.000000 0.000000 -1.000000
outer loop
vertex 0.000393 0.002379 0.000000
vertex 0.000579 0.003018 0.000000
vertex 0.000778 0.003692 0.000000
endloop
endfacet
facet normal 0.000000 0.000000 -1.000000
outer loop
vertex 0.000104 0.001350 0.000000
vertex 0.000231 0.001811 0.000000
vertex 0.000393 0.002379 0.000000
endloop
endfacet
facet normal 0.000000 0.000000 -1.000000
outer loop
vertex 0.000001 0.000892 0.000000
vertex 0.000023 0.001032 0.000000
vertex 0.000104 0.001350 0.000000
endloop
endfacet
facet normal 0.000000 0.000000 -1.000000
outer loop
vertex 0.000138 0.000298 0.000000
vertex 0.000074 0.000497 0.000000
vertex 0.000001 0.000892 0.000000
endloop
endfacet
facet normal 0.000000 0.000000 -1.000000
outer loop
vertex 0.000235 0.000127 0.000000
vertex 0.000181 0.000207 0.000000
vertex 0.000138 0.000298 0.000000
endloop
endfacet
facet normal 0.000000 0.000000 -1.000000
outer loop
vertex 0.000376 0.000020 0.000000
vertex 0.000299 0.000064 0.000000
vertex 0.000235 0.000127 0.000000
endloop
endfacet
facet normal 0.000000 0.000000 -1.000000
outer loop
vertex 0.000567 0.000000 0.000000
vertex 0.000465 0.000002 0.000000
vertex 0.000376 0.000020 0.000000
endloop
endfacet
facet normal 0.000000 0.000000 -1.000000
outer loop
vertex 0.001040 0.000065 0.000000
vertex 0.000793 0.000018 0.000000
vertex 0.000567 0.000000 0.000000
endloop
endfacet
facet normal 0.000000 0.000000 -1.000000
outer loop
vertex 0.001548 0.000261 0.000000
vertex 0.001296 0.000145 0.000000
vertex 0.001040 0.000065 0.000000
endloop
endfacet
facet normal 0.000000 0.000000 -1.000000
outer loop
vertex 0.001891 0.000510 0.000000
vertex 0.001783 0.000416 0.000000
vertex 0.001548 0.000261 0.000000
endloop
endfacet
facet normal 0.000000 0.000000 -1.000000
outer loop
vertex 0.002565 0.001188 0.000000
vertex 0.002333 0.000938 0.000000
vertex 0.001891 0.000510 0.000000
endloop
endfacet
facet normal 0.000000 0.000000 -1.000000
outer loop
vertex 0.003581 0.002484 0.000000
vertex 0.002727 0.001381 0.000000
vertex 0.002565 0.001188 0.000000
endloop
endfacet
facet normal 0.000000 0.000000 -1.000000
outer loop
vertex 0.004184 0.003317 0.000000
vertex 0.003879 0.002885 0.000000
vertex 0.003581 0.002484 0.000000
endloop
endfacet
facet normal 0.000000 0.000000 -1.000000
outer loop
vertex 0.004671 0.003986 0.000000
vertex 0.004601 0.003885 0.000000
vertex 0.004184 0.003317 0.000000
endloop
endfacet
facet normal 0.000000 0.000000 -1.000000
outer loop
vertex 0.004859 0.004308 0.000000
vertex 0.004799 0.004195 0.000000
vertex 0.004671 0.003986 0.000000
endloop
endfacet
facet normal 0.000000 0.000000 -1.000000
outer loop
vertex 0.005026 0.004694 0.000000
vertex 0.004916 0.004430 0.000000
vertex 0.004859 0.004308 0.000000
endloop
endfacet
facet normal 0.000000 0.000000 -1.000000
outer loop
vertex 0.005303 0.005438 0.000000
vertex 0.005221 0.005092 0.000000
vertex 0.005080 0.004809 0.000000
endloop
endfacet
facet normal 0.000000 0.000000 -1.000000
outer loop
vertex 0.005026 0.004694 0.000000
vertex 0.004859 0.004308 0.000000
vertex 0.004671 0.003986 0.000000
endloop
endfacet
facet normal 0.000000 0.000000 -1.000000
outer loop
vertex 0.005303 0.005438 0.000000
vertex 0.005080 0.004809 0.000000
vertex 0.005026 0.004694 0.000000
endloop
endfacet
facet normal 0.000000 0.000000 -1.000000
outer loop
vertex 0.003827 0.007791 0.000000
vertex 0.004873 0.006576 0.000000
vertex 0.005303 0.005438 0.000000
endloop
endfacet
facet normal 0.000000 0.000000 -1.000000
outer loop
vertex 0.002940 0.007918 0.000000
vertex 0.003497 0.007917 0.000000
vertex 0.003827 0.007791 0.000000
endloop
endfacet
facet normal 0.000000 0.000000 -1.000000
outer loop
vertex 0.001625 0.006471 0.000000
vertex 0.002418 0.007804 0.000000
vertex 0.002940 0.007918 0.000000
endloop
endfacet
facet normal 0.000000 0.000000 -1.000000
outer loop
vertex 0.000778 0.003692 0.000000
vertex 0.001171 0.005002 0.000000
vertex 0.001625 0.006471 0.000000
endloop
endfacet
facet normal 0.000000 0.000000 -1.000000
outer loop
vertex 0.000104 0.001350 0.000000
vertex 0.000393 0.002379 0.000000
vertex 0.000778 0.003692 0.000000
endloop
endfacet
facet normal 0.000000 0.000000 -1.000000
outer loop
vertex 0.000138 0.000298 0.000000
vertex 0.000001 0.000892 0.000000
vertex 0.000104 0.001350 0.000000
endloop
endfacet
facet normal 0.000000 0.000000 -1.000000
outer loop
vertex 0.000376 0.000020 0.000000
vertex 0.000235 0.000127 0.000000
vertex 0.000138 0.000298 0.000000
endloop
endfacet
facet normal 0.000000 0.000000 -1.000000
outer loop
vertex 0.001040 0.000065 0.000000
vertex 0.000567 0.000000 0.000000
vertex 0.000376 0.000020 0.000000
endloop
endfacet
facet normal 0.000000 0.000000 -1.000000
outer loop
vertex 0.001891 0.000510 0.000000
vertex 0.001548 0.000261 0.000000
vertex 0.001040 0.000065 0.000000
endloop
endfacet
facet normal 0.000000 0.000000 -1.000000
outer loop
vertex 0.003581 0.002484 0.000000
vertex 0.002565 0.001188 0.000000
vertex 0.001891 0.000510 0.000000
endloop
endfacet
facet normal 0.000000 0.000000 -1.000000
outer loop
vertex 0.005026 0.004694 0.000000
vertex 0.004671 0.003986 0.000000
vertex 0.004184 0.003317 0.000000
endloop
endfacet
facet normal 0.000000 0.000000 -1.000000
outer loop
vertex 0.004184 0.003317 0.000000
vertex 0.003581 0.002484 0.000000
vertex 0.001891 0.000510 0.000000
endloop
endfacet
facet normal 0.000000 0.000000 -1.000000
outer loop
vertex 0.001891 0.000510 0.000000
vertex 0.001040 0.000065 0.000000
vertex 0.000376 0.000020 0.000000
endloop
endfacet
facet normal 0.000000 0.000000 -1.000000
outer loop
vertex 0.000376 0.000020 0.000000
vertex 0.000138 0.000298 0.000000
vertex 0.000104 0.001350 0.000000
endloop
endfacet
facet normal 0.000000 0.000000 -1.000000
outer loop
vertex 0.000104 0.001350 0.000000
vertex 0.000778 0.003692 0.000000
vertex 0.001625 0.006471 0.000000
endloop
endfacet
facet normal 0.000000 0.000000 -1.000000
outer loop
vertex 0.001625 0.006471 0.000000
vertex 0.002940 0.007918 0.000000
vertex 0.003827 0.007791 0.000000
endloop
endfacet
facet normal 0.000000 0.000000 -1.000000
outer loop
vertex 0.003827 0.007791 0.000000
vertex 0.005303 0.005438 0.000000
vertex 0.005026 0.004694 0.000000
endloop
endfacet
facet normal 0.000000 0.000000 -1.000000
outer loop
vertex 0.005026 0.004694 0.000000
vertex 0.004184 0.003317 0.000000
vertex 0.001891 0.000510 0.000000
endloop
endfacet
facet normal 0.000000 0.000000 -1.000000
outer loop
vertex 0.001891 0.000510 0.000000
vertex 0.000376 0.000020 0.000000
vertex 0.000104 0.001350 0.000000
endloop
endfacet
facet normal 0.000000 0.000000 -1.000000
outer loop
vertex 0.000104 0.001350 0.000000
vertex 0.001625 0.006471 0.000000
vertex 0.003827 0.007791 0.000000
endloop
endfacet
facet normal 0.000000 0.000000 -1.000000
outer loop
vertex 0.003827 0.007791 0.000000
vertex 0.005026 0.004694 0.000000
vertex 0.001891 0.000510 0.000000
endloop
endfacet
facet normal 0.000000 0.000000 -1.000000
outer loop
vertex 0.003827 0.007791 0.000000
vertex 0.001891 0.000510 0.000000
vertex 0.000104 0.001350 0.000000
endloop
endfacet
facet normal 0.996085 0.088403 0.000000
outer loop
vertex 0.005303 0.005438 0.150000
vertex 0.005303 0.005438 0.000000
vertex 0.005294 0.005539 0.000000
endloop
endfacet
facet normal 0.996085 0.088403 0.000000
outer loop
vertex 0.005303 0.005438 0.150000
vertex 0.005294 0.005539 0.000000
vertex 0.005294 0.005539 0.150000
endloop
endfacet
facet normal 0.764390 0.644754 0.000000
outer loop
vertex 0.004739 0.006778 0.000000
vertex 0.004053 0.007592 0.000000
vertex 0.004053 0.007592 0.150000
endloop
endfacet
facet normal 0.764390 0.644754 0.000000
outer loop
vertex 0.004739 0.006778 0.000000
vertex 0.004053 0.007592 0.150000
vertex 0.004739 0.006778 0.150000
endloop
endfacet
facet normal 0.169891 0.985463 0.000000
outer loop
vertex 0.003586 0.007902 0.150000
vertex 0.003586 0.007902 0.000000
vertex 0.003497 0.007917 0.000000
endloop
endfacet
facet normal 0.169892 0.985463 0.000000
outer loop
vertex 0.003586 0.007902 0.150000
vertex 0.003497 0.007917 0.000000
vertex 0.003497 0.007917 0.150000
endloop
endfacet
facet normal -0.000906 0.000000 1.000000
outer loop
vertex 0.003750 0.007838 0.150000
vertex 0.003670 0.007875 0.150000
vertex 0.003586 0.007902 0.150000
endloop
endfacet
facet normal -0.000110 0.000000 1.000000
outer loop
vertex 0.003586 0.007902 0.150000
vertex 0.003497 0.007917 0.150000
vertex 0.003291 0.007930 0.150000
endloop
endfacet
facet normal 0.000000 0.000000 1.000000
outer loop
vertex 0.003291 0.007930 0.150000
vertex 0.003177 0.007930 0.150000
vertex 0.003059 0.007926 0.150000
endloop
endfacet
facet normal -0.000406 0.000000 1.000000
outer loop
vertex 0.003059 0.007926 0.150000
vertex 0.002940 0.007918 0.150000
vertex 0.002822 0.007906 0.150000
endloop
endfacet
facet normal 0.000000 0.000000 1.000000
outer loop
vertex 0.002822 0.007906 0.150000
vertex 0.002601 0.007866 0.150000
vertex 0.002503 0.007838 0.150000
endloop
endfacet
facet normal 0.000000 0.000000 1.000000
outer loop
vertex 0.002503 0.007838 0.150000
vertex 0.002418 0.007804 0.150000
vertex 0.002347 0.007765 0.150000
endloop
endfacet
facet normal 0.000000 0.000000 1.000000
outer loop
vertex 0.002347 0.007765 0.150000
vertex 0.002294 0.007720 0.150000
vertex 0.002184 0.007560 0.150000
endloop
endfacet
facet normal 0.000000 0.000000 1.000000
outer loop
vertex 0.002184 0.007560 0.150000
vertex 0.001625 0.006471 0.150000
vertex 0.001581 0.006337 0.150000
endloop
endfacet
facet normal 0.020030 0.000000 0.999799
outer loop
vertex 0.001581 0.006337 0.150000
vertex 0.001483 0.006024 0.150000
vertex 0.001343 0.005567 0.150000
endloop
endfacet
facet normal 0.000000 0.000000 1.000000
outer loop
vertex 0.001343 0.005567 0.150000
vertex 0.001171 0.005002 0.150000
vertex 0.000979 0.004365 0.150000
endloop
endfacet
facet normal 0.000000 0.000000 1.000000
outer loop
vertex 0.000979 0.004365 0.150000
vertex 0.000778 0.003692 0.150000
vertex 0.000579 0.003018 0.150000
endloop
endfacet
facet normal 0.000000 0.000000 1.000000
outer loop
vertex 0.000579 0.003018 0.150000
vertex 0.000393 0.002379 0.150000
vertex 0.000231 0.001811 0.150000
endloop
endfacet
facet normal 0.002195 0.000000 0.999998
outer loop
vertex 0.000231 0.001811 0.150000
vertex 0.000104 0.001350 0.150000
vertex 0.000023 0.001032 0.150000
endloop
endfacet
facet normal 0.000000 0.000000 1.000000
outer loop
vertex 0.000023 0.001032 0.150000
vertex 0.000001 0.000892 0.150000
vertex 0.000074 0.000497 0.150000
endloop
endfacet
facet normal 0.000615 0.000000 1.000000
outer loop
vertex 0.000074 0.000497 0.150000
vertex 0.000138 0.000298 0.150000
vertex 0.000181 0.000207 0.150000
endloop
endfacet
facet normal 0.002119 0.000000 0.999998
outer loop
vertex 0.000181 0.000207 0.150000
vertex 0.000235 0.000127 0.150000
vertex 0.000299 0.000064 0.150000
endloop
endfacet
facet normal 0.000000 0.000000 1.000000
outer loop
vertex 0.000299 0.000064 0.150000
vertex 0.000376 0.000020 0.150000
vertex 0.000465 0.000002 0.150000
endloop
endfacet
facet normal 0.000214 0.000000 1.000000
outer loop
vertex 0.000465 0.000002 0.150000
vertex 0.000567 0.000000 0.150000
vertex 0.000793 0.000018 0.150000
endloop
endfacet
facet normal -0.000235 0.000000 1.000000
outer loop
vertex 0.000793 0.000018 0.150000
vertex 0.001040 0.000065 0.150000
vertex 0.001296 0.000145 0.150000
endloop
endfacet
facet normal 0.000000 0.000000 1.000000
outer loop
vertex 0.001296 0.000145 0.150000
vertex 0.001548 0.000261 0.150000
vertex 0.001783 0.000416 0.150000
endloop
endfacet
facet normal 0.000000 0.000000 1.000000
outer loop
vertex 0.001783 0.000416 0.150000
vertex 0.001891 0.000510 0.150000
vertex 0.002333 0.000938 0.150000
endloop
endfacet
facet normal 0.000875 0.000000 1.000000
outer loop
vertex 0.002333 0.000938 0.150000
vertex 0.002565 0.001188 0.150000
vertex 0.002727 0.001381 0.150000
endloop
endfacet
facet normal 0.001039 0.000000 0.999999
outer loop
vertex 0.002727 0.001381 0.150000
vertex 0.003581 0.002484 0.150000
vertex 0.003879 0.002885 0.150000
endloop
endfacet
facet normal 0.001988 0.000000 0.999998
outer loop
vertex 0.004184 0.003317 0.150000
vertex 0.004601 0.003885 0.150000
vertex 0.004671 0.003986 0.150000
endloop
endfacet
facet normal 0.000734 0.000000 1.000000
outer loop
vertex 0.002727 0.001381 0.150000
vertex 0.003879 0.002885 0.150000
vertex 0.004184 0.003317 0.150000
endloop
endfacet
facet normal -0.000384 0.000000 1.000000
outer loop
vertex 0.001783 0.000416 0.150000
vertex 0.002333 0.000938 0.150000
vertex 0.002727 0.001381 0.150000
endloop
endfacet
facet normal 0.000000 0.000000 1.000000
outer loop
vertex 0.000793 0.000018 0.150000
vertex 0.001296 0.000145 0.150000
vertex 0.001783 0.000416 0.150000
endloop
endfacet
facet normal 0.000020 0.000000 1.000000
outer loop
vertex 0.000299 0.000064 0.150000
vertex 0.000465 0.000002 0.150000
vertex 0.000793 0.000018 0.150000
endloop
endfacet
facet normal -0.000193 0.000000 1.000000
outer loop
vertex 0.000074 0.000497 0.150000
vertex 0.000181 0.000207 0.150000
vertex 0.000299 0.000064 0.150000
endloop
endfacet
facet normal -0.000097 0.000000 1.000000
outer loop
vertex 0.000231 0.001811 0.150000
vertex 0.000023 0.001032 0.150000
vertex 0.000074 0.000497 0.150000
endloop
endfacet
facet normal 0.000000 0.000000 1.000000
outer loop
vertex 0.000979 0.004365 0.150000
vertex 0.000579 0.003018 0.150000
vertex 0.000231 0.001811 0.150000
endloop
endfacet
facet normal -0.004865 0.000000 0.999988
outer loop
vertex 0.001581 0.006337 0.150000
vertex 0.001343 0.005567 0.150000
vertex 0.000979 0.004365 0.150000
endloop
endfacet
facet normal 0.000000 0.000000 1.000000
outer loop
vertex 0.002347 0.007765 0.150000
vertex 0.002184 0.007560 0.150000
vertex 0.001581 0.006337 0.150000
endloop
endfacet
facet normal 0.000000 0.000000 1.000000
outer loop
vertex 0.002822 0.007906 0.150000
vertex 0.002503 0.007838 0.150000
vertex 0.002347 0.007765 0.150000
endloop
endfacet
facet normal 0.000113 0.000000 1.000000
outer loop
vertex 0.003291 0.007930 0.150000
vertex 0.003059 0.007926 0.150000
vertex 0.002822 0.007906 0.150000
endloop
endfacet
facet normal 0.000000 0.000000 1.000000
outer loop
vertex 0.003750 0.007838 0.150000
vertex 0.003586 0.007902 0.150000
vertex 0.003291 0.007930 0.150000
endloop
endfacet
facet normal -0.001095 0.000000 0.999999
outer loop
vertex 0.003903 0.007734 0.150000
vertex 0.003827 0.007791 0.150000
vertex 0.003750 0.007838 0.150000
endloop
endfacet
facet normal 0.000144 0.000000 1.000000
outer loop
vertex 0.004739 0.006778 0.150000
vertex 0.004053 0.007592 0.150000
vertex 0.003903 0.007734 0.150000
endloop
endfacet
facet normal 0.000431 0.000000 1.000000
outer loop
vertex 0.005037 0.006265 0.150000
vertex 0.004873 0.006576 0.150000
vertex 0.004739 0.006778 0.150000
endloop
endfacet
facet normal 0.001240 0.000000 0.999999
outer loop
vertex 0.005294 0.005539 0.150000
vertex 0.005270 0.005653 0.150000
vertex 0.005037 0.006265 0.150000
endloop
endfacet
facet normal -0.001434 0.000000 0.999999
outer loop
vertex 0.005298 0.005346 0.150000
vertex 0.005303 0.005438 0.150000
vertex 0.005294 0.005539 0.150000
endloop
endfacet
facet normal -0.001963 0.000000 0.999998
outer loop
vertex 0.005256 0.005176 0.150000
vertex 0.005282 0.005259 0.150000
vertex 0.005298 0.005346 0.150000
endloop
endfacet
facet normal 0.000000 0.000000 1.000000
outer loop
vertex 0.005179 0.005005 0.150000
vertex 0.005221 0.005092 0.150000
vertex 0.005256 0.005176 0.150000
endloop
endfacet
facet normal 0.000000 0.000000 1.000000
outer loop
vertex 0.005131 0.004912 0.150000
vertex 0.005179 0.005005 0.150000
vertex 0.005256 0.005176 0.150000
endloop
endfacet
facet normal 0.000404 0.000000 1.000000
outer loop
vertex 0.005256 0.005176 0.150000
vertex 0.005298 0.005346 0.150000
vertex 0.005294 0.005539 0.150000
endloop
endfacet
facet normal 0.000000 0.000000 1.000000
outer loop
vertex 0.005294 0.005539 0.150000
vertex 0.005037 0.006265 0.150000
vertex 0.004739 0.006778 0.150000
endloop
endfacet
facet normal 0.000000 0.000000 1.000000
outer loop
vertex 0.004739 0.006778 0.150000
vertex 0.003903 0.007734 0.150000
vertex 0.003750 0.007838 0.150000
endloop
endfacet
facet normal 0.000017 0.000000 1.000000
outer loop
vertex 0.003750 0.007838 0.150000
vertex 0.003291 0.007930 0.150000
vertex 0.002822 0.007906 0.150000
endloop
endfacet
facet normal 0.000000 0.000000 1.000000
outer loop
vertex 0.002822 0.007906 0.150000
vertex 0.002347 0.007765 0.150000
vertex 0.001581 0.006337 0.150000
endloop
endfacet
facet normal 0.000966 0.000000 1.000000
outer loop
vertex 0.001581 0.006337 0.150000
vertex 0.000979 0.004365 0.150000
vertex 0.000231 0.001811 0.150000
endloop
endfacet
facet normal -0.000080 0.000000 1.000000
outer loop
vertex 0.000231 0.001811 0.150000
vertex 0.000074 0.000497 0.150000
vertex 0.000299 0.000064 0.150000
endloop
endfacet
facet normal 0.000000 0.000000 1.000000
outer loop
vertex 0.000299 0.000064 0.150000
vertex 0.000793 0.000018 0.150000
vertex 0.001783 0.000416 0.150000
endloop
endfacet
facet normal 0.000000 0.000000 1.000000
outer loop
vertex 0.001783 0.000416 0.150000
vertex 0.002727 0.001381 0.150000
vertex 0.004184 0.003317 0.150000
endloop
endfacet
facet normal -0.000909 0.000000 1.000000
outer loop
vertex 0.004184 0.003317 0.150000
vertex 0.004671 0.003986 0.150000
vertex 0.004799 0.004195 0.150000
endloop
endfacet
facet normal -0.004547 0.000000 0.999990
outer loop
vertex 0.004799 0.004195 0.150000
vertex 0.004859 0.004308 0.150000
vertex 0.004916 0.004430 0.150000
endloop
endfacet
facet normal 0.000000 0.000000 1.000000
outer loop
vertex 0.004799 0.004195 0.150000
vertex 0.004916 0.004430 0.150000
vertex 0.005026 0.004694 0.150000
endloop
endfacet
facet normal -0.000181 0.000000 1.000000
outer loop
vertex 0.001783 0.000416 0.150000
vertex 0.004184 0.003317 0.150000
vertex 0.004799 0.004195 0.150000
endloop
endfacet
facet normal 0.000017 0.000000 1.000000
outer loop
vertex 0.000231 0.001811 0.150000
vertex 0.000299 0.000064 0.150000
vertex 0.001783 0.000416 0.150000
endloop
endfacet
facet normal -0.000033 0.000000 1.000000
outer loop
vertex 0.002822 0.007906 0.150000
vertex 0.001581 0.006337 0.150000
vertex 0.000231 0.001811 0.150000
endloop
endfacet
facet normal -0.000014 0.000000 1.000000
outer loop
vertex 0.004739 0.006778 0.150000
vertex 0.003750 0.007838 0.150000
vertex 0.002822 0.007906 0.150000
endloop
endfacet
facet normal 0.000000 0.000000 1.000000
outer loop
vertex 0.005256 0.005176 0.150000
vertex 0.005294 0.005539 0.150000
vertex 0.004739 0.006778 0.150000
endloop
endfacet
facet normal 0.000000 0.000000 1.000000
outer loop
vertex 0.005080 0.004809 0.150000
vertex 0.005131 0.004912 0.150000
vertex 0.005256 0.005176 0.150000
endloop
endfacet
facet normal -0.000045 0.000000 1.000000
outer loop
vertex 0.001783 0.000416 0.150000
vertex 0.004799 0.004195 0.150000
vertex 0.005026 0.004694 0.150000
endloop
endfacet
facet normal 0.000000 0.000000 1.000000
outer loop
vertex 0.005080 0.004809 0.150000
vertex 0.005256 0.005176 0.150000
vertex 0.004739 0.006778 0.150000
endloop
endfacet
facet normal 0.000482 0.000000 1.000000
outer loop
vertex 0.001783 0.000416 0.150000
vertex 0.005026 0.004694 0.150000
vertex 0.005080 0.004809 0.150000
endloop
endfacet
facet normal 0.000002 0.000000 1.000000
outer loop
vertex 0.002822 0.007906 0.150000
vertex 0.000231 0.001811 0.150000
vertex 0.001783 0.000416 0.150000
endloop
endfacet
facet normal -0.000009 0.000000 1.000000
outer loop
vertex 0.005080 0.004809 0.150000
vertex 0.004739 0.006778 0.150000
vertex 0.002822 0.007906 0.150000
endloop
endfacet
facet normal 0.000006 0.000000 1.000000
outer loop
vertex 0.002822 0.007906 0.150000
vertex 0.001783 0.000416 0.150000
vertex 0.005080 0.004809 0.150000
endloop
endfacet
facet normal 0.523564 0.851987 0.000000
outer loop
vertex 0.003827 0.007791 0.150000
vertex 0.003827 0.007791 0.000000
vertex 0.003750 0.007838 0.000000
endloop
endfacet
facet normal 0.523564 0.851987 0.000000
outer loop
vertex 0.003827 0.007791 0.150000
vertex 0.003750 0.007838 0.000000
vertex 0.003750 0.007838 0.150000
endloop
endfacet
facet normal -0.901349 -0.433093 0.000000
outer loop
vertex 0.000138 0.000298 0.150000
vertex 0.000138 0.000298 0.000000
vertex 0.000181 0.000207 0.000000
endloop
endfacet
facet normal -0.901349 -0.433093 0.000000
outer loop
vertex 0.000138 0.000298 0.150000
vertex 0.000181 0.000207 0.000000
vertex 0.000181 0.000207 0.150000
endloop
endfacet
facet normal -0.363984 0.931405 0.000000
outer loop
vertex 0.002503 0.007838 0.150000
vertex 0.002503 0.007838 0.000000
vertex 0.002418 0.007804 0.000000
endloop
endfacet
facet normal -0.363982 0.931406 0.000000
outer loop
vertex 0.002503 0.007838 0.150000
vertex 0.002418 0.007804 0.000000
vertex 0.002418 0.007804 0.150000
endloop
endfacet
facet normal 0.978531 0.206101 0.000000
outer loop
vertex 0.005294 0.005539 0.150000
vertex 0.005294 0.005539 0.000000
vertex 0.005270 0.005653 0.000000
endloop
endfacet
facet normal 0.978532 0.206095 0.000000
outer loop
vertex 0.005294 0.005539 0.150000
vertex 0.005270 0.005653 0.000000
vertex 0.005270 0.005653 0.150000
endloop
endfacet
facet normal 0.834258 0.551375 0.000000
outer loop
vertex 0.004739 0.006778 0.000000
vertex 0.004739 0.006778 0.150000
vertex 0.004873 0.006576 0.150000
endloop
endfacet
facet normal 0.834258 0.551375 0.000000
outer loop
vertex 0.004739 0.006778 0.000000
vertex 0.004873 0.006576 0.150000
vertex 0.004873 0.006576 0.000000
endloop
endfacet
facet normal 0.823934 -0.566686 0.000000
outer loop
vertex 0.004601 0.003885 0.000000
vertex 0.004671 0.003986 0.000000
vertex 0.004671 0.003986 0.150000
endloop
endfacet
facet normal 0.823931 -0.566690 0.000000
outer loop
vertex 0.004601 0.003885 0.000000
vertex 0.004671 0.003986 0.150000
vertex 0.004601 0.003885 0.150000
endloop
endfacet
facet normal 0.805514 -0.592577 0.000000
outer loop
vertex 0.004184 0.003317 0.000000
vertex 0.004601 0.003885 0.000000
vertex 0.004601 0.003885 0.150000
endloop
endfacet
facet normal 0.805514 -0.592577 0.000000
outer loop
vertex 0.004184 0.003317 0.000000
vertex 0.004601 0.003885 0.150000
vertex 0.004184 0.003317 0.150000
endloop
endfacet
facet normal 0.817282 -0.576238 0.000000
outer loop
vertex 0.003879 0.002885 0.000000
vertex 0.004184 0.003317 0.000000
vertex 0.004184 0.003317 0.150000
endloop
endfacet
facet normal 0.817282 -0.576238 0.000000
outer loop
vertex 0.003879 0.002885 0.000000
vertex 0.004184 0.003317 0.150000
vertex 0.003879 0.002885 0.150000
endloop
endfacet
facet normal 0.790607 -0.612324 0.000000
outer loop
vertex 0.002727 0.001381 0.150000
vertex 0.002727 0.001381 0.000000
vertex 0.003581 0.002484 0.000000
endloop
endfacet
facet normal 0.802744 -0.596324 0.000000
outer loop
vertex 0.003581 0.002484 0.000000
vertex 0.003879 0.002885 0.000000
vertex 0.003879 0.002885 0.150000
endloop
endfacet
facet normal 0.790607 -0.612324 0.000000
outer loop
vertex 0.003581 0.002484 0.150000
vertex 0.002727 0.001381 0.150000
vertex 0.003581 0.002484 0.000000
endloop
endfacet
facet normal 0.802744 -0.596324 0.000000
outer loop
vertex 0.003879 0.002885 0.150000
vertex 0.003581 0.002484 0.150000
vertex 0.003581 0.002484 0.000000
endloop
endfacet
facet normal -0.823454 0.567383 0.000000
outer loop
vertex 0.002294 0.007720 0.000000
vertex 0.002184 0.007560 0.000000
vertex 0.002184 0.007560 0.150000
endloop
endfacet
facet normal -0.823455 0.567382 0.000000
outer loop
vertex 0.002294 0.007720 0.000000
vertex 0.002184 0.007560 0.150000
vertex 0.002294 0.007720 0.150000
endloop
endfacet
facet normal -0.829973 -0.557803 0.000000
outer loop
vertex 0.000181 0.000207 0.150000
vertex 0.000181 0.000207 0.000000
vertex 0.000235 0.000127 0.000000
endloop
endfacet
facet normal -0.829973 -0.557803 0.000000
outer loop
vertex 0.000181 0.000207 0.150000
vertex 0.000235 0.000127 0.000000
vertex 0.000235 0.000127 0.150000
endloop
endfacet
facet normal 0.884730 0.466105 0.000000
outer loop
vertex 0.005037 0.006265 0.150000
vertex 0.005037 0.006265 0.000000
vertex 0.004873 0.006576 0.000000
endloop
endfacet
facet normal 0.884731 0.466101 0.000000
outer loop
vertex 0.005037 0.006265 0.150000
vertex 0.004873 0.006576 0.000000
vertex 0.004873 0.006576 0.150000
endloop
endfacet
facet normal -0.983067 -0.183245 0.000000
outer loop
vertex 0.000001 0.000892 0.000000
vertex 0.000074 0.000497 0.000000
vertex 0.000074 0.000497 0.150000
endloop
endfacet
facet normal -0.983067 -0.183245 0.000000
outer loop
vertex 0.000001 0.000892 0.000000
vertex 0.000074 0.000497 0.150000
vertex 0.000001 0.000892 0.150000
endloop
endfacet
facet normal -0.106554 0.994307 0.000000
outer loop
vertex 0.002940 0.007918 0.000000
vertex 0.002822 0.007906 0.000000
vertex 0.002822 0.007906 0.150000
endloop
endfacet
facet normal -0.106554 0.994307 0.000000
outer loop
vertex 0.002940 0.007918 0.000000
vertex 0.002822 0.007906 0.150000
vertex 0.002940 0.007918 0.150000
endloop
endfacet
facet normal -0.067269 0.997735 0.000000
outer loop
vertex 0.003059 0.007926 0.000000
vertex 0.002940 0.007918 0.000000
vertex 0.002940 0.007918 0.150000
endloop
endfacet
facet normal -0.067269 0.997735 0.000000
outer loop
vertex 0.003059 0.007926 0.000000
vertex 0.002940 0.007918 0.150000
vertex 0.003059 0.007926 0.150000
endloop
endfacet
facet normal 0.003740 0.999993 0.000000
outer loop
vertex 0.003291 0.007930 0.150000
vertex 0.003291 0.007930 0.000000
vertex 0.003177 0.007930 0.000000
endloop
endfacet
facet normal -0.031240 0.999512 0.000000
outer loop
vertex 0.003177 0.007930 0.000000
vertex 0.003059 0.007926 0.000000
vertex 0.003059 0.007926 0.150000
endloop
endfacet
facet normal 0.003740 0.999993 0.000000
outer loop
vertex 0.003177 0.007930 0.150000
vertex 0.003291 0.007930 0.150000
vertex 0.003177 0.007930 0.000000
endloop
endfacet
facet normal -0.031240 0.999512 0.000000
outer loop
vertex 0.003059 0.007926 0.150000
vertex 0.003177 0.007930 0.150000
vertex 0.003177 0.007930 0.000000
endloop
endfacet
facet normal 0.852197 -0.523221 0.000000
outer loop
vertex 0.004671 0.003986 0.150000
vertex 0.004671 0.003986 0.000000
vertex 0.004799 0.004195 0.000000
endloop
endfacet
facet normal 0.852194 -0.523226 0.000000
outer loop
vertex 0.004671 0.003986 0.150000
vertex 0.004799 0.004195 0.000000
vertex 0.004799 0.004195 0.150000
endloop
endfacet
facet normal 0.685275 0.728285 0.000000
outer loop
vertex 0.004053 0.007592 0.150000
vertex 0.004053 0.007592 0.000000
vertex 0.003903 0.007734 0.000000
endloop
endfacet
facet normal 0.685275 0.728285 0.000000
outer loop
vertex 0.004053 0.007592 0.150000
vertex 0.003903 0.007734 0.000000
vertex 0.003903 0.007734 0.150000
endloop
endfacet
facet normal 0.953902 -0.300119 0.000000
outer loop
vertex 0.005256 0.005176 0.150000
vertex 0.005256 0.005176 0.000000
vertex 0.005282 0.005259 0.000000
endloop
endfacet
facet normal 0.953902 -0.300119 0.000000
outer loop
vertex 0.005256 0.005176 0.150000
vertex 0.005282 0.005259 0.000000
vertex 0.005282 0.005259 0.150000
endloop
endfacet
facet normal 0.000000 0.000000 1.000000
outer loop
vertex 0.000393 0.002379 0.000000
vertex 0.000231 0.001811 0.000000
vertex 0.000104 0.001350 0.000000
endloop
endfacet
facet normal -0.969605 0.244675 0.000000
outer loop
vertex 0.000104 0.001350 0.000000
vertex 0.000023 0.001032 0.000000
vertex 0.000023 0.001032 0.150000
endloop
endfacet
facet normal -0.969605 0.244675 0.000000
outer loop
vertex 0.000104 0.001350 0.000000
vertex 0.000023 0.001032 0.150000
vertex 0.000104 0.001350 0.150000
endloop
endfacet
facet normal 0.000000 0.000000 1.000000
outer loop
vertex 0.000579 0.003018 0.000000
vertex 0.000393 0.002379 0.000000
vertex 0.000104 0.001350 0.000000
endloop
endfacet
facet normal 0.000000 0.000000 1.000000
outer loop
vertex 0.000979 0.004365 0.000000
vertex 0.000778 0.003692 0.000000
vertex 0.000579 0.003018 0.000000
endloop
endfacet
facet normal 0.000000 0.000000 1.000000
outer loop
vertex 0.001343 0.005567 0.000000
vertex 0.001171 0.005002 0.000000
vertex 0.000979 0.004365 0.000000
endloop
endfacet
facet normal 0.000000 0.000000 1.000000
outer loop
vertex 0.001581 0.006337 0.000000
vertex 0.001483 0.006024 0.000000
vertex 0.001343 0.005567 0.000000
endloop
endfacet
facet normal -0.949694 0.313181 0.000000
outer loop
vertex 0.001625 0.006471 0.150000
vertex 0.001625 0.006471 0.000000
vertex 0.001581 0.006337 0.000000
endloop
endfacet
facet normal -0.949693 0.313183 0.000000
outer loop
vertex 0.001581 0.006337 0.150000
vertex 0.001625 0.006471 0.150000
vertex 0.001581 0.006337 0.000000
endloop
endfacet
facet normal 0.000000 0.000000 1.000000
outer loop
vertex 0.001581 0.006337 0.000000
vertex 0.001343 0.005567 0.000000
vertex 0.000979 0.004365 0.000000
endloop
endfacet
facet normal 0.000000 0.000000 1.000000
outer loop
vertex 0.000979 0.004365 0.000000
vertex 0.000579 0.003018 0.000000
vertex 0.000104 0.001350 0.000000
endloop
endfacet
facet normal -0.964220 0.265105 0.000000
outer loop
vertex 0.000104 0.001350 0.000000
vertex 0.000104 0.001350 0.150000
vertex 0.000231 0.001811 0.150000
endloop
endfacet
facet normal -0.961613 0.274410 -0.000031
outer loop
vertex 0.000104 0.001350 0.000000
vertex 0.000231 0.001811 0.150000
vertex 0.000393 0.002379 0.150000
endloop
endfacet
facet normal 0.000000 0.000000 1.000000
outer loop
vertex 0.001581 0.006337 0.000000
vertex 0.000979 0.004365 0.000000
vertex 0.000104 0.001350 0.000000
endloop
endfacet
facet normal -0.954607 0.297867 0.000000
outer loop
vertex 0.001483 0.006024 0.150000
vertex 0.001581 0.006337 0.150000
vertex 0.001581 0.006337 0.000000
endloop
endfacet
facet normal -0.955977 0.293443 -0.000010
outer loop
vertex 0.001343 0.005567 0.150000
vertex 0.001483 0.006024 0.150000
vertex 0.001581 0.006337 0.000000
endloop
endfacet
facet normal -0.958832 0.283975 -0.000102
outer loop
vertex 0.001581 0.006337 0.000000
vertex 0.000104 0.001350 0.000000
vertex 0.000393 0.002379 0.150000
endloop
endfacet
facet normal -0.960050 0.279827 -0.000221
outer loop
vertex 0.001581 0.006337 0.000000
vertex 0.000393 0.002379 0.150000
vertex 0.000579 0.003018 0.150000
endloop
endfacet
facet normal -0.956790 0.290781 -0.000025
outer loop
vertex 0.001171 0.005002 0.150000
vertex 0.001343 0.005567 0.150000
vertex 0.001581 0.006337 0.000000
endloop
endfacet
facet normal -0.957468 0.288540 -0.000047
outer loop
vertex 0.000979 0.004365 0.150000
vertex 0.001171 0.005002 0.150000
vertex 0.001581 0.006337 0.000000
endloop
endfacet
facet normal -0.958980 0.283475 -0.000133
outer loop
vertex 0.001581 0.006337 0.000000
vertex 0.000579 0.003018 0.150000
vertex 0.000778 0.003692 0.150000
endloop
endfacet
facet normal -0.958163 0.286223 -0.000080
outer loop
vertex 0.000778 0.003692 0.150000
vertex 0.000979 0.004365 0.150000
vertex 0.001581 0.006337 0.000000
endloop
endfacet
facet normal -0.702995 -0.711194 0.000000
outer loop
vertex 0.000235 0.000127 0.150000
vertex 0.000235 0.000127 0.000000
vertex 0.000299 0.000064 0.000000
endloop
endfacet
facet normal -0.702995 -0.711195 0.000000
outer loop
vertex 0.000235 0.000127 0.150000
vertex 0.000299 0.000064 0.000000
vertex 0.000299 0.000064 0.150000
endloop
endfacet
facet normal -0.953075 -0.302735 0.000000
outer loop
vertex 0.000074 0.000497 0.150000
vertex 0.000074 0.000497 0.000000
vertex 0.000138 0.000298 0.000000
endloop
endfacet
facet normal -0.953075 -0.302735 0.000000
outer loop
vertex 0.000074 0.000497 0.150000
vertex 0.000138 0.000298 0.000000
vertex 0.000138 0.000298 0.150000
endloop
endfacet
facet normal 0.299316 -0.954154 0.000000
outer loop
vertex 0.001040 0.000065 0.150000
vertex 0.001040 0.000065 0.000000
vertex 0.001296 0.000145 0.000000
endloop
endfacet
facet normal 0.299316 -0.954154 0.000000
outer loop
vertex 0.001040 0.000065 0.150000
vertex 0.001296 0.000145 0.000000
vertex 0.001296 0.000145 0.150000
endloop
endfacet
facet normal 0.076408 -0.997077 0.000000
outer loop
vertex 0.000567 0.000000 0.000000
vertex 0.000793 0.000018 0.000000
vertex 0.000793 0.000018 0.150000
endloop
endfacet
facet normal 0.076408 -0.997077 0.000000
outer loop
vertex 0.000567 0.000000 0.000000
vertex 0.000793 0.000018 0.150000
vertex 0.000567 0.000000 0.150000
endloop
endfacet
facet normal 0.983099 -0.183075 0.000000
outer loop
vertex 0.005282 0.005259 0.150000
vertex 0.005282 0.005259 0.000000
vertex 0.005298 0.005346 0.000000
endloop
endfacet
facet normal 0.983101 -0.183066 0.000000
outer loop
vertex 0.005282 0.005259 0.150000
vertex 0.005298 0.005346 0.000000
vertex 0.005298 0.005346 0.150000
endloop
endfacet
facet normal -0.015817 -0.999875 0.000000
outer loop
vertex 0.000465 0.000002 0.150000
vertex 0.000465 0.000002 0.000000
vertex 0.000567 0.000000 0.000000
endloop
endfacet
facet normal -0.015817 -0.999875 0.000000
outer loop
vertex 0.000465 0.000002 0.150000
vertex 0.000567 0.000000 0.000000
vertex 0.000567 0.000000 0.150000
endloop
endfacet
facet normal -0.274381 0.961621 0.000000
outer loop
vertex 0.002601 0.007866 0.150000
vertex 0.002601 0.007866 0.000000
vertex 0.002503 0.007838 0.000000
endloop
endfacet
facet normal -0.274379 0.961622 0.000000
outer loop
vertex 0.002601 0.007866 0.150000
vertex 0.002503 0.007838 0.000000
vertex 0.002503 0.007838 0.150000
endloop
endfacet
facet normal 0.000000 0.000000 1.000000
outer loop
vertex 0.005131 0.004912 0.000000
vertex 0.005179 0.005005 0.000000
vertex 0.005221 0.005092 0.000000
endloop
endfacet
facet normal 0.922999 -0.384803 0.000000
outer loop
vertex 0.005221 0.005092 0.000000
vertex 0.005256 0.005176 0.000000
vertex 0.005256 0.005176 0.150000
endloop
endfacet
facet normal 0.922996 -0.384810 0.000000
outer loop
vertex 0.005221 0.005092 0.000000
vertex 0.005256 0.005176 0.150000
vertex 0.005221 0.005092 0.150000
endloop
endfacet
facet normal 0.000000 0.000000 1.000000
outer loop
vertex 0.005080 0.004809 0.000000
vertex 0.005131 0.004912 0.000000
vertex 0.005221 0.005092 0.000000
endloop
endfacet
facet normal 0.000000 0.000000 1.000000
outer loop
vertex 0.004859 0.004308 0.000000
vertex 0.004916 0.004430 0.000000
vertex 0.005026 0.004694 0.000000
endloop
endfacet
facet normal 0.895255 -0.445553 0.000000
outer loop
vertex 0.005080 0.004809 0.000000
vertex 0.005221 0.005092 0.000000
vertex 0.005221 0.005092 0.150000
endloop
endfacet
facet normal 0.000000 0.000000 1.000000
outer loop
vertex 0.004799 0.004195 0.000000
vertex 0.004859 0.004308 0.000000
vertex 0.005026 0.004694 0.000000
endloop
endfacet
facet normal 0.906039 -0.423195 -0.000052
outer loop
vertex 0.005026 0.004694 0.000000
vertex 0.005080 0.004809 0.000000
vertex 0.005221 0.005092 0.150000
endloop
endfacet
facet normal 0.900652 -0.434541 -0.000015
outer loop
vertex 0.005026 0.004694 0.000000
vertex 0.005221 0.005092 0.150000
vertex 0.005179 0.005005 0.150000
endloop
endfacet
facet normal 0.910029 -0.414544 0.000000
outer loop
vertex 0.004799 0.004195 0.150000
vertex 0.004799 0.004195 0.000000
vertex 0.005026 0.004694 0.000000
endloop
endfacet
facet normal 0.883941 -0.467599 -0.000216
outer loop
vertex 0.004859 0.004308 0.150000
vertex 0.004799 0.004195 0.150000
vertex 0.005026 0.004694 0.000000
endloop
endfacet
facet normal 0.891305 -0.453405 0.000033
outer loop
vertex 0.005026 0.004694 0.000000
vertex 0.005179 0.005005 0.150000
vertex 0.005131 0.004912 0.150000
endloop
endfacet
facet normal 0.894229 -0.447611 0.000023
outer loop
vertex 0.005026 0.004694 0.000000
vertex 0.005131 0.004912 0.150000
vertex 0.005080 0.004809 0.150000
endloop
endfacet
facet normal 0.904722 -0.426002 -0.000086
outer loop
vertex 0.004916 0.004430 0.150000
vertex 0.004859 0.004308 0.150000
vertex 0.005026 0.004694 0.000000
endloop
endfacet
facet normal 0.906039 -0.423195 0.000000
outer loop
vertex 0.005026 0.004694 0.000000
vertex 0.005080 0.004809 0.150000
vertex 0.005026 0.004694 0.150000
endloop
endfacet
facet normal 0.922971 -0.384869 0.000000
outer loop
vertex 0.005026 0.004694 0.000000
vertex 0.005026 0.004694 0.150000
vertex 0.004916 0.004430 0.150000
endloop
endfacet
facet normal -0.492861 -0.870108 0.000000
outer loop
vertex 0.000299 0.000064 0.150000
vertex 0.000299 0.000064 0.000000
vertex 0.000376 0.000020 0.000000
endloop
endfacet
facet normal -0.492861 -0.870108 0.000000
outer loop
vertex 0.000299 0.000064 0.150000
vertex 0.000376 0.000020 0.000000
vertex 0.000376 0.000020 0.150000
endloop
endfacet
facet normal 0.059529 0.998227 0.000000
outer loop
vertex 0.003497 0.007917 0.150000
vertex 0.003497 0.007917 0.000000
vertex 0.003291 0.007930 0.000000
endloop
endfacet
facet normal 0.059529 0.998227 0.000000
outer loop
vertex 0.003497 0.007917 0.150000
vertex 0.003291 0.007930 0.000000
vertex 0.003291 0.007930 0.150000
endloop
endfacet
facet normal -0.485093 0.874462 0.000000
outer loop
vertex 0.002418 0.007804 0.150000
vertex 0.002418 0.007804 0.000000
vertex 0.002347 0.007765 0.000000
endloop
endfacet
facet normal -0.485095 0.874461 0.000000
outer loop
vertex 0.002418 0.007804 0.150000
vertex 0.002347 0.007765 0.000000
vertex 0.002347 0.007765 0.150000
endloop
endfacet
facet normal 0.300953 0.953639 0.000000
outer loop
vertex 0.003670 0.007875 0.150000
vertex 0.003670 0.007875 0.000000
vertex 0.003586 0.007902 0.000000
endloop
endfacet
facet normal 0.300953 0.953639 0.000000
outer loop
vertex 0.003670 0.007875 0.150000
vertex 0.003586 0.007902 0.000000
vertex 0.003586 0.007902 0.150000
endloop
endfacet
facet normal -0.178230 0.983989 0.000000
outer loop
vertex 0.002822 0.007906 0.150000
vertex 0.002822 0.007906 0.000000
vertex 0.002601 0.007866 0.000000
endloop
endfacet
facet normal -0.178230 0.983989 0.000000
outer loop
vertex 0.002822 0.007906 0.150000
vertex 0.002601 0.007866 0.000000
vertex 0.002601 0.007866 0.150000
endloop
endfacet
facet normal -0.648084 0.761569 0.000000
outer loop
vertex 0.002347 0.007765 0.150000
vertex 0.002347 0.007765 0.000000
vertex 0.002294 0.007720 0.000000
endloop
endfacet
facet normal -0.648087 0.761566 0.000000
outer loop
vertex 0.002347 0.007765 0.150000
vertex 0.002294 0.007720 0.000000
vertex 0.002294 0.007720 0.150000
endloop
endfacet
facet normal 0.418974 -0.907998 0.000000
outer loop
vertex 0.001548 0.000261 0.000000
vertex 0.001548 0.000261 0.150000
vertex 0.001296 0.000145 0.150000
endloop
endfacet
facet normal 0.418974 -0.907998 0.000000
outer loop
vertex 0.001548 0.000261 0.000000
vertex 0.001296 0.000145 0.150000
vertex 0.001296 0.000145 0.000000
endloop
endfacet
facet normal 0.187798 -0.982208 0.000000
outer loop
vertex 0.000793 0.000018 0.150000
vertex 0.000793 0.000018 0.000000
vertex 0.001040 0.000065 0.000000
endloop
endfacet
facet normal 0.187798 -0.982208 0.000000
outer loop
vertex 0.000793 0.000018 0.150000
vertex 0.001040 0.000065 0.000000
vertex 0.001040 0.000065 0.150000
endloop
endfacet
facet normal 0.603778 0.797153 0.000000
outer loop
vertex 0.003903 0.007734 0.150000
vertex 0.003903 0.007734 0.000000
vertex 0.003827 0.007791 0.000000
endloop
endfacet
facet normal 0.603778 0.797153 0.000000
outer loop
vertex 0.003903 0.007734 0.150000
vertex 0.003827 0.007791 0.000000
vertex 0.003827 0.007791 0.150000
endloop
endfacet
facet normal -0.986980 0.160841 0.000000
outer loop
vertex 0.000023 0.001032 0.150000
vertex 0.000023 0.001032 0.000000
vertex 0.000001 0.000892 0.000000
endloop
endfacet
facet normal -0.986980 0.160841 0.000000
outer loop
vertex 0.000023 0.001032 0.150000
vertex 0.000001 0.000892 0.000000
vertex 0.000001 0.000892 0.150000
endloop
endfacet
facet normal -0.889729 0.456490 0.000000
outer loop
vertex 0.002184 0.007560 0.000000
vertex 0.001625 0.006471 0.000000
vertex 0.001625 0.006471 0.150000
endloop
endfacet
facet normal -0.889729 0.456490 0.000000
outer loop
vertex 0.002184 0.007560 0.000000
vertex 0.001625 0.006471 0.150000
vertex 0.002184 0.007560 0.150000
endloop
endfacet
facet normal 0.934851 0.355040 0.000000
outer loop
vertex 0.005270 0.005653 0.000000
vertex 0.005037 0.006265 0.000000
vertex 0.005037 0.006265 0.150000
endloop
endfacet
facet normal 0.934850 0.355042 0.000000
outer loop
vertex 0.005270 0.005653 0.000000
vertex 0.005037 0.006265 0.150000
vertex 0.005270 0.005653 0.150000
endloop
endfacet
facet normal 0.765452 -0.643492 0.000000
outer loop
vertex 0.002565 0.001188 0.000000
vertex 0.002727 0.001381 0.000000
vertex 0.002727 0.001381 0.150000
endloop
endfacet
facet normal 0.765451 -0.643494 0.000000
outer loop
vertex 0.002565 0.001188 0.000000
vertex 0.002727 0.001381 0.150000
vertex 0.002565 0.001188 0.150000
endloop
endfacet
facet normal 0.733420 -0.679776 0.000000
outer loop
vertex 0.002333 0.000938 0.000000
vertex 0.002565 0.001188 0.000000
vertex 0.002565 0.001188 0.150000
endloop
endfacet
facet normal 0.733420 -0.679776 0.000000
outer loop
vertex 0.002333 0.000938 0.000000
vertex 0.002565 0.001188 0.150000
vertex 0.002333 0.000938 0.150000
endloop
endfacet
facet normal 0.654031 -0.756468 0.000000
outer loop
vertex 0.001783 0.000416 0.150000
vertex 0.001783 0.000416 0.000000
vertex 0.001891 0.000510 0.000000
endloop
endfacet
facet normal 0.696255 -0.717794 0.000000
outer loop
vertex 0.001891 0.000510 0.000000
vertex 0.002333 0.000938 0.000000
vertex 0.002333 0.000938 0.150000
endloop
endfacet
facet normal 0.654031 -0.756468 0.000000
outer loop
vertex 0.001891 0.000510 0.150000
vertex 0.001783 0.000416 0.150000
vertex 0.001891 0.000510 0.000000
endloop
endfacet
facet normal 0.696255 -0.717795 0.000000
outer loop
vertex 0.002333 0.000938 0.150000
vertex 0.001891 0.000510 0.150000
vertex 0.001891 0.000510 0.000000
endloop
endfacet
facet normal 0.550251 -0.834999 0.000000
outer loop
vertex 0.001548 0.000261 0.000000
vertex 0.001783 0.000416 0.000000
vertex 0.001783 0.000416 0.150000
endloop
endfacet
facet normal 0.550251 -0.835000 0.000000
outer loop
vertex 0.001548 0.000261 0.000000
vertex 0.001783 0.000416 0.150000
vertex 0.001548 0.000261 0.150000
endloop
endfacet
facet normal 0.998902 -0.046855 0.000000
outer loop
vertex 0.005298 0.005346 0.150000
vertex 0.005298 0.005346 0.000000
vertex 0.005303 0.005438 0.000000
endloop
endfacet
facet normal 0.998901 -0.046864 0.000000
outer loop
vertex 0.005298 0.005346 0.150000
vertex 0.005303 0.005438 0.000000
vertex 0.005303 0.005438 0.150000
endloop
endfacet
facet normal 0.421576 0.906793 0.000000
outer loop
vertex 0.003750 0.007838 0.150000
vertex 0.003750 0.007838 0.000000
vertex 0.003670 0.007875 0.000000
endloop
endfacet
facet normal 0.421583 0.906790 0.000000
outer loop
vertex 0.003750 0.007838 0.150000
vertex 0.003670 0.007875 0.000000
vertex 0.003670 0.007875 0.150000
endloop
endfacet
endsolid Exported from Blender-3.6.8
