solid Exported from Blender-3.6.8
facet normal 0.017393 -0.999849 0.000000
outer loop
vertex 0.005991 0.000001 0.150000
vertex 0.005991 0.000001 0.000000
vertex 0.006150 0.000003 0.000000
endloop
endfacet
facet normal 0.017393 -0.999849 0.000000
outer loop
vertex 0.005991 0.000001 0.150000
vertex 0.006150 0.000003 0.000000
vertex 0.006150 0.000003 0.150000
endloop
endfacet
facet normal -0.581186 0.813770 0.000000
outer loop
vertex 0.002650 0.009595 0.000000
vertex 0.001779 0.008973 0.000000
vertex 0.001779 0.008973 0.150000
endloop
endfacet
facet normal -0.581187 0.813770 0.000000
outer loop
vertex 0.002650 0.009595 0.000000
vertex 0.001779 0.008973 0.150000
vertex 0.002650 0.009595 0.150000
endloop
endfacet
facet normal 0.710445 0.703753 0.000000
outer loop
vertex 0.009309 0.008590 0.150000
vertex 0.009309 0.008590 0.000000
vertex 0.009193 0.008707 0.000000
endloop
endfacet
facet normal 0.710449 0.703748 0.000000
outer loop
vertex 0.009309 0.008590 0.150000
vertex 0.009193 0.008707 0.000000
vertex 0.009193 0.008707 0.150000
endloop
endfacet
facet normal 0.145942 0.989293 0.000000
outer loop
vertex 0.006878 0.009867 0.000000
vertex 0.006563 0.009914 0.000000
vertex 0.006563 0.009914 0.150000
endloop
endfacet
facet normal 0.145942 0.989293 0.000000
outer loop
vertex 0.006878 0.009867 0.000000
vertex 0.006563 0.009914 0.150000
vertex 0.006878 0.009867 0.150000
endloop
endfacet
facet normal 0.184147 0.982899 0.000000
outer loop
vertex 0.007162 0.009814 0.000000
vertex 0.006878 0.009867 0.000000
vertex 0.006878 0.009867 0.150000
endloop
endfacet
facet normal 0.184148 0.982898 0.000000
outer loop
vertex 0.007162 0.009814 0.000000
vertex 0.006878 0.009867 0.150000
vertex 0.007162 0.009814 0.150000
endloop
endfacet
facet normal 0.244946 0.969537 0.000000
outer loop
vertex 0.007501 0.009735 0.150000
vertex 0.007501 0.009735 0.000000
vertex 0.007402 0.009761 0.000000
endloop
endfacet
facet normal 0.218558 0.975824 0.000000
outer loop
vertex 0.007402 0.009761 0.000000
vertex 0.007162 0.009814 0.000000
vertex 0.007162 0.009814 0.150000
endloop
endfacet
facet normal 0.244946 0.969537 0.000000
outer loop
vertex 0.007402 0.009761 0.150000
vertex 0.007501 0.009735 0.150000
vertex 0.007402 0.009761 0.000000
endloop
endfacet
facet normal 0.218556 0.975824 0.000000
outer loop
vertex 0.007162 0.009814 0.150000
vertex 0.007402 0.009761 0.150000
vertex 0.007402 0.009761 0.000000
endloop
endfacet
facet normal 0.160790 -0.986989 0.000000
outer loop
vertex 0.006150 0.000003 0.000000
vertex 0.007077 0.000154 0.000000
vertex 0.007077 0.000154 0.150000
endloop
endfacet
facet normal 0.160790 -0.986989 0.000000
outer loop
vertex 0.006150 0.000003 0.000000
vertex 0.007077 0.000154 0.150000
vertex 0.006150 0.000003 0.150000
endloop
endfacet
facet normal -0.183261 0.983064 0.000000
outer loop
vertex 0.003203 0.009790 0.000000
vertex 0.002993 0.009751 0.000000
vertex 0.002993 0.009751 0.150000
endloop
endfacet
facet normal -0.183261 0.983064 0.000000
outer loop
vertex 0.003203 0.009790 0.000000
vertex 0.002993 0.009751 0.150000
vertex 0.003203 0.009790 0.150000
endloop
endfacet
facet normal 0.927599 -0.373577 0.000000
outer loop
vertex 0.010109 0.002611 0.150000
vertex 0.010109 0.002611 0.000000
vertex 0.010261 0.002989 0.000000
endloop
endfacet
facet normal 0.927598 -0.373580 0.000000
outer loop
vertex 0.010109 0.002611 0.150000
vertex 0.010261 0.002989 0.000000
vertex 0.010261 0.002989 0.150000
endloop
endfacet
facet normal 0.003182 0.000000 0.999995
outer loop
vertex 0.007500 0.000307 0.150000
vertex 0.007618 0.000364 0.150000
vertex 0.007877 0.000499 0.150000
endloop
endfacet
facet normal -0.001059 0.000000 0.999999
outer loop
vertex 0.007877 0.000499 0.150000
vertex 0.008365 0.000725 0.150000
vertex 0.008482 0.000782 0.150000
endloop
endfacet
facet normal -0.001200 0.000000 0.999999
outer loop
vertex 0.008482 0.000782 0.150000
vertex 0.008597 0.000845 0.150000
vertex 0.008828 0.000997 0.150000
endloop
endfacet
facet normal 0.000000 0.000000 1.000000
outer loop
vertex 0.008828 0.000997 0.150000
vertex 0.008946 0.001091 0.150000
vertex 0.009187 0.001328 0.150000
endloop
endfacet
facet normal -0.001603 0.000000 0.999999
outer loop
vertex 0.009187 0.001328 0.150000
vertex 0.009437 0.001615 0.150000
vertex 0.009561 0.001767 0.150000
endloop
endfacet
facet normal 0.001648 0.000000 0.999999
outer loop
vertex 0.009561 0.001767 0.150000
vertex 0.009683 0.001925 0.150000
vertex 0.009912 0.002257 0.150000
endloop
endfacet
facet normal 0.000000 0.000000 1.000000
outer loop
vertex 0.009912 0.002257 0.150000
vertex 0.010109 0.002611 0.150000
vertex 0.010261 0.002989 0.150000
endloop
endfacet
facet normal 0.000000 0.000000 1.000000
outer loop
vertex 0.010261 0.002989 0.150000
vertex 0.010316 0.003186 0.150000
vertex 0.010354 0.003388 0.150000
endloop
endfacet
facet normal 0.004525 0.000000 0.999990
outer loop
vertex 0.010354 0.003388 0.150000
vertex 0.010451 0.004022 0.150000
vertex 0.010481 0.004241 0.150000
endloop
endfacet
facet normal 0.000000 0.000000 1.000000
outer loop
vertex 0.010481 0.004241 0.150000
vertex 0.010508 0.004462 0.150000
vertex 0.010528 0.004687 0.150000
endloop
endfacet
facet normal 0.000000 0.000000 1.000000
outer loop
vertex 0.010528 0.004687 0.150000
vertex 0.010540 0.004915 0.150000
vertex 0.010531 0.005378 0.150000
endloop
endfacet
facet normal -0.000574 0.000000 1.000000
outer loop
vertex 0.010531 0.005378 0.150000
vertex 0.010462 0.005852 0.150000
vertex 0.010401 0.006092 0.150000
endloop
endfacet
facet normal 0.000000 0.000000 1.000000
outer loop
vertex 0.010401 0.006092 0.150000
vertex 0.010249 0.006580 0.150000
vertex 0.010082 0.007066 0.150000
endloop
endfacet
facet normal -0.005179 0.000000 0.999987
outer loop
vertex 0.010082 0.007066 0.150000
vertex 0.009994 0.007303 0.150000
vertex 0.009902 0.007531 0.150000
endloop
endfacet
facet normal -0.000277 0.000000 1.000000
outer loop
vertex 0.009902 0.007531 0.150000
vertex 0.009513 0.008314 0.150000
vertex 0.009309 0.008590 0.150000
endloop
endfacet
facet normal 0.000000 0.000000 1.000000
outer loop
vertex 0.009309 0.008590 0.150000
vertex 0.009193 0.008707 0.150000
vertex 0.008565 0.009186 0.150000
endloop
endfacet
facet normal -0.000290 0.000000 1.000000
outer loop
vertex 0.008565 0.009186 0.150000
vertex 0.007881 0.009580 0.150000
vertex 0.007606 0.009701 0.150000
endloop
endfacet
facet normal 0.000000 0.000000 1.000000
outer loop
vertex 0.007606 0.009701 0.150000
vertex 0.007501 0.009735 0.150000
vertex 0.007402 0.009761 0.150000
endloop
endfacet
facet normal 0.000730 0.000000 1.000000
outer loop
vertex 0.007402 0.009761 0.150000
vertex 0.007162 0.009814 0.150000
vertex 0.006878 0.009867 0.150000
endloop
endfacet
facet normal 0.000000 0.000000 1.000000
outer loop
vertex 0.006878 0.009867 0.150000
vertex 0.006563 0.009914 0.150000
vertex 0.005886 0.009963 0.150000
endloop
endfacet
facet normal -0.000027 0.000000 1.000000
outer loop
vertex 0.005886 0.009963 0.150000
vertex 0.003983 0.009868 0.150000
vertex 0.003677 0.009818 0.150000
endloop
endfacet
facet normal 0.000071 0.000000 1.000000
outer loop
vertex 0.003677 0.009818 0.150000
vertex 0.003203 0.009790 0.150000
vertex 0.002993 0.009751 0.150000
endloop
endfacet
facet normal 0.000000 0.000000 1.000000
outer loop
vertex 0.002993 0.009751 0.150000
vertex 0.002883 0.009715 0.150000
vertex 0.002768 0.009664 0.150000
endloop
endfacet
facet normal 0.000000 0.000000 1.000000
outer loop
vertex 0.002768 0.009664 0.150000
vertex 0.002650 0.009595 0.150000
vertex 0.001779 0.008973 0.150000
endloop
endfacet
facet normal 0.000613 0.000000 1.000000
outer loop
vertex 0.001779 0.008973 0.150000
vertex 0.001611 0.008825 0.150000
vertex 0.001233 0.008422 0.150000
endloop
endfacet
facet normal 0.000000 0.000000 1.000000
outer loop
vertex 0.001233 0.008422 0.150000
vertex 0.000881 0.008084 0.150000
vertex 0.000825 0.008023 0.150000
endloop
endfacet
facet normal -0.003130 0.000000 0.999995
outer loop
vertex 0.000825 0.008023 0.150000
vertex 0.000721 0.007886 0.150000
vertex 0.000671 0.007804 0.150000
endloop
endfacet
facet normal 0.001173 0.000000 0.999999
outer loop
vertex 0.000671 0.007804 0.150000
vertex 0.000278 0.007064 0.150000
vertex 0.000238 0.006980 0.150000
endloop
endfacet
facet normal 0.000000 0.000000 1.000000
outer loop
vertex 0.000238 0.006980 0.150000
vertex 0.000174 0.006818 0.150000
vertex 0.000000 0.005979 0.150000
endloop
endfacet
facet normal 0.000000 0.000000 1.000000
outer loop
vertex 0.000000 0.005979 0.150000
vertex 0.000082 0.005812 0.150000
vertex 0.000188 0.005603 0.150000
endloop
endfacet
facet normal 0.000000 0.000000 1.000000
outer loop
vertex 0.000188 0.005603 0.150000
vertex 0.000456 0.005087 0.150000
vertex 0.000778 0.004492 0.150000
endloop
endfacet
facet normal 0.000000 0.000000 1.000000
outer loop
vertex 0.000778 0.004492 0.150000
vertex 0.000951 0.004184 0.150000
vertex 0.001126 0.003877 0.150000
endloop
endfacet
facet normal -0.003599 0.000000 0.999994
outer loop
vertex 0.001126 0.003877 0.150000
vertex 0.001302 0.003581 0.150000
vertex 0.001474 0.003302 0.150000
endloop
endfacet
facet normal 0.000052 0.000000 1.000000
outer loop
vertex 0.001474 0.003302 0.150000
vertex 0.002478 0.001974 0.150000
vertex 0.003300 0.001165 0.150000
endloop
endfacet
facet normal 0.000498 0.000000 1.000000
outer loop
vertex 0.003300 0.001165 0.150000
vertex 0.003744 0.000836 0.150000
vertex 0.003971 0.000701 0.150000
endloop
endfacet
facet normal 0.000645 0.000000 1.000000
outer loop
vertex 0.003971 0.000701 0.150000
vertex 0.004200 0.000589 0.150000
vertex 0.005010 0.000243 0.150000
endloop
endfacet
facet normal -0.001534 0.000000 0.999999
outer loop
vertex 0.005010 0.000243 0.150000
vertex 0.005185 0.000176 0.150000
vertex 0.005354 0.000119 0.150000
endloop
endfacet
facet normal 0.000122 0.000000 1.000000
outer loop
vertex 0.005354 0.000119 0.150000
vertex 0.005676 0.000035 0.150000
vertex 0.005991 0.000001 0.150000
endloop
endfacet
facet normal -0.000169 0.000000 1.000000
outer loop
vertex 0.005991 0.000001 0.150000
vertex 0.006150 0.000003 0.150000
vertex 0.007077 0.000154 0.150000
endloop
endfacet
facet normal 0.000000 0.000000 1.000000
outer loop
vertex 0.007077 0.000154 0.150000
vertex 0.007181 0.000184 0.150000
vertex 0.007284 0.000218 0.150000
endloop
endfacet
facet normal 0.000000 0.000000 1.000000
outer loop
vertex 0.007284 0.000218 0.150000
vertex 0.007389 0.000259 0.150000
vertex 0.007500 0.000307 0.150000
endloop
endfacet
facet normal 0.000230 0.000000 1.000000
outer loop
vertex 0.007877 0.000499 0.150000
vertex 0.008482 0.000782 0.150000
vertex 0.008828 0.000997 0.150000
endloop
endfacet
facet normal -0.000455 0.000000 1.000000
outer loop
vertex 0.007284 0.000218 0.150000
vertex 0.007500 0.000307 0.150000
vertex 0.007877 0.000499 0.150000
endloop
endfacet
facet normal -0.000049 0.000000 1.000000
outer loop
vertex 0.005991 0.000001 0.150000
vertex 0.007077 0.000154 0.150000
vertex 0.007284 0.000218 0.150000
endloop
endfacet
facet normal 0.000094 0.000000 1.000000
outer loop
vertex 0.005010 0.000243 0.150000
vertex 0.005354 0.000119 0.150000
vertex 0.005991 0.000001 0.150000
endloop
endfacet
facet normal -0.000083 0.000000 1.000000
outer loop
vertex 0.003300 0.001165 0.150000
vertex 0.003971 0.000701 0.150000
vertex 0.005010 0.000243 0.150000
endloop
endfacet
facet normal 0.000000 0.000000 1.000000
outer loop
vertex 0.001126 0.003877 0.150000
vertex 0.001474 0.003302 0.150000
vertex 0.003300 0.001165 0.150000
endloop
endfacet
facet normal -0.000613 0.000000 1.000000
outer loop
vertex 0.000188 0.005603 0.150000
vertex 0.000778 0.004492 0.150000
vertex 0.001126 0.003877 0.150000
endloop
endfacet
facet normal 0.000052 0.000000 1.000000
outer loop
vertex 0.000238 0.006980 0.150000
vertex 0.000000 0.005979 0.150000
vertex 0.000188 0.005603 0.150000
endloop
endfacet
facet normal 0.000000 0.000000 1.000000
outer loop
vertex 0.000825 0.008023 0.150000
vertex 0.000671 0.007804 0.150000
vertex 0.000238 0.006980 0.150000
endloop
endfacet
facet normal -0.000087 0.000000 1.000000
outer loop
vertex 0.002768 0.009664 0.150000
vertex 0.001779 0.008973 0.150000
vertex 0.001233 0.008422 0.150000
endloop
endfacet
facet normal 0.000000 0.000000 1.000000
outer loop
vertex 0.001233 0.008422 0.150000
vertex 0.000825 0.008023 0.150000
vertex 0.000238 0.006980 0.150000
endloop
endfacet
facet normal 0.000000 0.000000 1.000000
outer loop
vertex 0.000238 0.006980 0.150000
vertex 0.000188 0.005603 0.150000
vertex 0.001126 0.003877 0.150000
endloop
endfacet
facet normal 0.000011 0.000000 1.000000
outer loop
vertex 0.001126 0.003877 0.150000
vertex 0.003300 0.001165 0.150000
vertex 0.005010 0.000243 0.150000
endloop
endfacet
facet normal 0.000000 0.000000 1.000000
outer loop
vertex 0.005010 0.000243 0.150000
vertex 0.005991 0.000001 0.150000
vertex 0.007284 0.000218 0.150000
endloop
endfacet
facet normal -0.000539 0.000000 1.000000
outer loop
vertex 0.007284 0.000218 0.150000
vertex 0.007877 0.000499 0.150000
vertex 0.008828 0.000997 0.150000
endloop
endfacet
facet normal 0.000000 0.000000 1.000000
outer loop
vertex 0.008828 0.000997 0.150000
vertex 0.009187 0.001328 0.150000
vertex 0.009561 0.001767 0.150000
endloop
endfacet
facet normal 0.000170 0.000000 1.000000
outer loop
vertex 0.009561 0.001767 0.150000
vertex 0.009912 0.002257 0.150000
vertex 0.010261 0.002989 0.150000
endloop
endfacet
facet normal 0.000000 0.000000 1.000000
outer loop
vertex 0.010261 0.002989 0.150000
vertex 0.010354 0.003388 0.150000
vertex 0.010481 0.004241 0.150000
endloop
endfacet
facet normal -0.000462 0.000000 1.000000
outer loop
vertex 0.010481 0.004241 0.150000
vertex 0.010528 0.004687 0.150000
vertex 0.010531 0.005378 0.150000
endloop
endfacet
facet normal 0.000000 0.000000 1.000000
outer loop
vertex 0.010531 0.005378 0.150000
vertex 0.010401 0.006092 0.150000
vertex 0.010082 0.007066 0.150000
endloop
endfacet
facet normal 0.000340 0.000000 1.000000
outer loop
vertex 0.010082 0.007066 0.150000
vertex 0.009902 0.007531 0.150000
vertex 0.009309 0.008590 0.150000
endloop
endfacet
facet normal 0.000078 0.000000 1.000000
outer loop
vertex 0.009309 0.008590 0.150000
vertex 0.008565 0.009186 0.150000
vertex 0.007606 0.009701 0.150000
endloop
endfacet
facet normal 0.000000 0.000000 1.000000
outer loop
vertex 0.007606 0.009701 0.150000
vertex 0.007402 0.009761 0.150000
vertex 0.006878 0.009867 0.150000
endloop
endfacet
facet normal 0.000000 0.000000 1.000000
outer loop
vertex 0.006878 0.009867 0.150000
vertex 0.005886 0.009963 0.150000
vertex 0.003677 0.009818 0.150000
endloop
endfacet
facet normal 0.000000 0.000000 1.000000
outer loop
vertex 0.003677 0.009818 0.150000
vertex 0.002993 0.009751 0.150000
vertex 0.002768 0.009664 0.150000
endloop
endfacet
facet normal 0.000030 0.000000 1.000000
outer loop
vertex 0.002768 0.009664 0.150000
vertex 0.001233 0.008422 0.150000
vertex 0.000238 0.006980 0.150000
endloop
endfacet
facet normal 0.000000 0.000000 1.000000
outer loop
vertex 0.000238 0.006980 0.150000
vertex 0.001126 0.003877 0.150000
vertex 0.005010 0.000243 0.150000
endloop
endfacet
facet normal 0.000008 0.000000 1.000000
outer loop
vertex 0.005010 0.000243 0.150000
vertex 0.007284 0.000218 0.150000
vertex 0.008828 0.000997 0.150000
endloop
endfacet
facet normal -0.000163 0.000000 1.000000
outer loop
vertex 0.008828 0.000997 0.150000
vertex 0.009561 0.001767 0.150000
vertex 0.010261 0.002989 0.150000
endloop
endfacet
facet normal 0.000000 0.000000 1.000000
outer loop
vertex 0.010261 0.002989 0.150000
vertex 0.010481 0.004241 0.150000
vertex 0.010531 0.005378 0.150000
endloop
endfacet
facet normal -0.000047 0.000000 1.000000
outer loop
vertex 0.010531 0.005378 0.150000
vertex 0.010082 0.007066 0.150000
vertex 0.009309 0.008590 0.150000
endloop
endfacet
facet normal -0.000028 0.000000 1.000000
outer loop
vertex 0.009309 0.008590 0.150000
vertex 0.007606 0.009701 0.150000
vertex 0.006878 0.009867 0.150000
endloop
endfacet
facet normal -0.000008 0.000000 1.000000
outer loop
vertex 0.006878 0.009867 0.150000
vertex 0.003677 0.009818 0.150000
vertex 0.002768 0.009664 0.150000
endloop
endfacet
facet normal -0.000008 0.000000 1.000000
outer loop
vertex 0.002768 0.009664 0.150000
vertex 0.000238 0.006980 0.150000
vertex 0.005010 0.000243 0.150000
endloop
endfacet
facet normal 0.000009 0.000000 1.000000
outer loop
vertex 0.005010 0.000243 0.150000
vertex 0.008828 0.000997 0.150000
vertex 0.010261 0.002989 0.150000
endloop
endfacet
facet normal 0.000000 0.000000 1.000000
outer loop
vertex 0.010261 0.002989 0.150000
vertex 0.010531 0.005378 0.150000
vertex 0.009309 0.008590 0.150000
endloop
endfacet
facet normal 0.000000 0.000000 1.000000
outer loop
vertex 0.009309 0.008590 0.150000
vertex 0.006878 0.009867 0.150000
vertex 0.002768 0.009664 0.150000
endloop
endfacet
facet normal 0.000002 0.000000 1.000000
outer loop
vertex 0.002768 0.009664 0.150000
vertex 0.005010 0.000243 0.150000
vertex 0.010261 0.002989 0.150000
endloop
endfacet
facet normal -0.000001 0.000000 1.000000
outer loop
vertex 0.010261 0.002989 0.150000
vertex 0.009309 0.008590 0.150000
vertex 0.002768 0.009664 0.150000
endloop
endfacet
facet normal -0.930060 0.367407 0.000000
outer loop
vertex 0.000238 0.006980 0.000000
vertex 0.000174 0.006818 0.000000
vertex 0.000174 0.006818 0.150000
endloop
endfacet
facet normal -0.930060 0.367407 0.000000
outer loop
vertex 0.000238 0.006980 0.000000
vertex 0.000174 0.006818 0.150000
vertex 0.000238 0.006980 0.150000
endloop
endfacet
facet normal -0.249654 -0.968335 0.000000
outer loop
vertex 0.005676 0.000035 0.000000
vertex 0.005676 0.000035 0.150000
vertex 0.005354 0.000119 0.150000
endloop
endfacet
facet normal -0.249654 -0.968335 0.000000
outer loop
vertex 0.005676 0.000035 0.000000
vertex 0.005354 0.000119 0.150000
vertex 0.005354 0.000119 0.000000
endloop
endfacet
facet normal 0.000000 0.000000 -1.000000
outer loop
vertex 0.008597 0.000845 0.000000
vertex 0.008482 0.000782 0.000000
vertex 0.008365 0.000725 0.000000
endloop
endfacet
facet normal 0.000000 0.000000 -1.000000
outer loop
vertex 0.007877 0.000499 0.000000
vertex 0.007618 0.000364 0.000000
vertex 0.007500 0.000307 0.000000
endloop
endfacet
facet normal 0.000000 0.000000 -1.000000
outer loop
vertex 0.008597 0.000845 0.000000
vertex 0.008365 0.000725 0.000000
vertex 0.007877 0.000499 0.000000
endloop
endfacet
facet normal 0.000000 0.000000 -1.000000
outer loop
vertex 0.008946 0.001091 0.000000
vertex 0.008828 0.000997 0.000000
vertex 0.008597 0.000845 0.000000
endloop
endfacet
facet normal 0.000000 0.000000 -1.000000
outer loop
vertex 0.009437 0.001615 0.000000
vertex 0.009187 0.001328 0.000000
vertex 0.008946 0.001091 0.000000
endloop
endfacet
facet normal 0.000000 0.000000 -1.000000
outer loop
vertex 0.009683 0.001925 0.000000
vertex 0.009561 0.001767 0.000000
vertex 0.009437 0.001615 0.000000
endloop
endfacet
facet normal 0.000000 0.000000 -1.000000
outer loop
vertex 0.010109 0.002611 0.000000
vertex 0.009912 0.002257 0.000000
vertex 0.009683 0.001925 0.000000
endloop
endfacet
facet normal 0.000000 0.000000 -1.000000
outer loop
vertex 0.010316 0.003186 0.000000
vertex 0.010261 0.002989 0.000000
vertex 0.010109 0.002611 0.000000
endloop
endfacet
facet normal 0.000000 0.000000 -1.000000
outer loop
vertex 0.010451 0.004022 0.000000
vertex 0.010354 0.003388 0.000000
vertex 0.010316 0.003186 0.000000
endloop
endfacet
facet normal 0.000000 0.000000 -1.000000
outer loop
vertex 0.010508 0.004462 0.000000
vertex 0.010481 0.004241 0.000000
vertex 0.010451 0.004022 0.000000
endloop
endfacet
facet normal 0.000000 0.000000 -1.000000
outer loop
vertex 0.010540 0.004915 0.000000
vertex 0.010528 0.004687 0.000000
vertex 0.010508 0.004462 0.000000
endloop
endfacet
facet normal 0.000000 0.000000 -1.000000
outer loop
vertex 0.010462 0.005852 0.000000
vertex 0.010531 0.005378 0.000000
vertex 0.010540 0.004915 0.000000
endloop
endfacet
facet normal 0.000000 0.000000 -1.000000
outer loop
vertex 0.010249 0.006580 0.000000
vertex 0.010401 0.006092 0.000000
vertex 0.010462 0.005852 0.000000
endloop
endfacet
facet normal 0.000000 0.000000 -1.000000
outer loop
vertex 0.009994 0.007303 0.000000
vertex 0.010082 0.007066 0.000000
vertex 0.010249 0.006580 0.000000
endloop
endfacet
facet normal 0.000000 0.000000 -1.000000
outer loop
vertex 0.009513 0.008314 0.000000
vertex 0.009902 0.007531 0.000000
vertex 0.009994 0.007303 0.000000
endloop
endfacet
facet normal 0.000000 0.000000 -1.000000
outer loop
vertex 0.009193 0.008707 0.000000
vertex 0.009309 0.008590 0.000000
vertex 0.009513 0.008314 0.000000
endloop
endfacet
facet normal 0.000000 0.000000 -1.000000
outer loop
vertex 0.007881 0.009580 0.000000
vertex 0.008565 0.009186 0.000000
vertex 0.009193 0.008707 0.000000
endloop
endfacet
facet normal 0.000000 0.000000 -1.000000
outer loop
vertex 0.007501 0.009735 0.000000
vertex 0.007606 0.009701 0.000000
vertex 0.007881 0.009580 0.000000
endloop
endfacet
facet normal 0.000000 0.000000 -1.000000
outer loop
vertex 0.007162 0.009814 0.000000
vertex 0.007402 0.009761 0.000000
vertex 0.007501 0.009735 0.000000
endloop
endfacet
facet normal 0.000000 0.000000 -1.000000
outer loop
vertex 0.006563 0.009914 0.000000
vertex 0.006878 0.009867 0.000000
vertex 0.007162 0.009814 0.000000
endloop
endfacet
facet normal 0.000000 0.000000 -1.000000
outer loop
vertex 0.003983 0.009868 0.000000
vertex 0.005886 0.009963 0.000000
vertex 0.006563 0.009914 0.000000
endloop
endfacet
facet normal 0.000000 0.000000 -1.000000
outer loop
vertex 0.002993 0.009751 0.000000
vertex 0.003203 0.009790 0.000000
vertex 0.003677 0.009818 0.000000
endloop
endfacet
facet normal 0.000000 0.000000 -1.000000
outer loop
vertex 0.003677 0.009818 0.000000
vertex 0.003983 0.009868 0.000000
vertex 0.006563 0.009914 0.000000
endloop
endfacet
facet normal 0.000000 0.000000 -1.000000
outer loop
vertex 0.006563 0.009914 0.000000
vertex 0.007162 0.009814 0.000000
vertex 0.007501 0.009735 0.000000
endloop
endfacet
facet normal 0.000000 0.000000 -1.000000
outer loop
vertex 0.007501 0.009735 0.000000
vertex 0.007881 0.009580 0.000000
vertex 0.009193 0.008707 0.000000
endloop
endfacet
facet normal 0.000000 0.000000 -1.000000
outer loop
vertex 0.009193 0.008707 0.000000
vertex 0.009513 0.008314 0.000000
vertex 0.009994 0.007303 0.000000
endloop
endfacet
facet normal 0.000000 0.000000 -1.000000
outer loop
vertex 0.009994 0.007303 0.000000
vertex 0.010249 0.006580 0.000000
vertex 0.010462 0.005852 0.000000
endloop
endfacet
facet normal 0.000000 0.000000 -1.000000
outer loop
vertex 0.010462 0.005852 0.000000
vertex 0.010540 0.004915 0.000000
vertex 0.010508 0.004462 0.000000
endloop
endfacet
facet normal 0.000000 0.000000 -1.000000
outer loop
vertex 0.010508 0.004462 0.000000
vertex 0.010451 0.004022 0.000000
vertex 0.010316 0.003186 0.000000
endloop
endfacet
facet normal 0.000000 0.000000 -1.000000
outer loop
vertex 0.010316 0.003186 0.000000
vertex 0.010109 0.002611 0.000000
vertex 0.009683 0.001925 0.000000
endloop
endfacet
facet normal 0.000000 0.000000 -1.000000
outer loop
vertex 0.009683 0.001925 0.000000
vertex 0.009437 0.001615 0.000000
vertex 0.008946 0.001091 0.000000
endloop
endfacet
facet normal 0.000000 0.000000 -1.000000
outer loop
vertex 0.008946 0.001091 0.000000
vertex 0.008597 0.000845 0.000000
vertex 0.007877 0.000499 0.000000
endloop
endfacet
facet normal 0.000000 0.000000 -1.000000
outer loop
vertex 0.007877 0.000499 0.000000
vertex 0.007500 0.000307 0.000000
vertex 0.007389 0.000259 0.000000
endloop
endfacet
facet normal 0.000000 0.000000 -1.000000
outer loop
vertex 0.007389 0.000259 0.000000
vertex 0.007284 0.000218 0.000000
vertex 0.007181 0.000184 0.000000
endloop
endfacet
facet normal 0.000000 0.000000 -1.000000
outer loop
vertex 0.007181 0.000184 0.000000
vertex 0.007077 0.000154 0.000000
vertex 0.006150 0.000003 0.000000
endloop
endfacet
facet normal 0.000000 0.000000 -1.000000
outer loop
vertex 0.006150 0.000003 0.000000
vertex 0.005991 0.000001 0.000000
vertex 0.005676 0.000035 0.000000
endloop
endfacet
facet normal 0.000000 0.000000 -1.000000
outer loop
vertex 0.005676 0.000035 0.000000
vertex 0.005354 0.000119 0.000000
vertex 0.005185 0.000176 0.000000
endloop
endfacet
facet normal 0.000000 0.000000 -1.000000
outer loop
vertex 0.005185 0.000176 0.000000
vertex 0.005010 0.000243 0.000000
vertex 0.004200 0.000589 0.000000
endloop
endfacet
facet normal 0.000000 0.000000 -1.000000
outer loop
vertex 0.004200 0.000589 0.000000
vertex 0.003971 0.000701 0.000000
vertex 0.003744 0.000836 0.000000
endloop
endfacet
facet normal 0.000000 0.000000 -1.000000
outer loop
vertex 0.003744 0.000836 0.000000
vertex 0.003300 0.001165 0.000000
vertex 0.002478 0.001974 0.000000
endloop
endfacet
facet normal 0.000000 0.000000 -1.000000
outer loop
vertex 0.002478 0.001974 0.000000
vertex 0.001474 0.003302 0.000000
vertex 0.001302 0.003581 0.000000
endloop
endfacet
facet normal 0.000000 0.000000 -1.000000
outer loop
vertex 0.001302 0.003581 0.000000
vertex 0.001126 0.003877 0.000000
vertex 0.000951 0.004184 0.000000
endloop
endfacet
facet normal 0.000000 0.000000 -1.000000
outer loop
vertex 0.000951 0.004184 0.000000
vertex 0.000778 0.004492 0.000000
vertex 0.000456 0.005087 0.000000
endloop
endfacet
facet normal 0.000000 0.000000 -1.000000
outer loop
vertex 0.000456 0.005087 0.000000
vertex 0.000188 0.005603 0.000000
vertex 0.000082 0.005812 0.000000
endloop
endfacet
facet normal 0.000000 0.000000 -1.000000
outer loop
vertex 0.000082 0.005812 0.000000
vertex 0.000000 0.005979 0.000000
vertex 0.000174 0.006818 0.000000
endloop
endfacet
facet normal 0.000000 0.000000 -1.000000
outer loop
vertex 0.000174 0.006818 0.000000
vertex 0.000238 0.006980 0.000000
vertex 0.000278 0.007064 0.000000
endloop
endfacet
facet normal 0.000000 0.000000 -1.000000
outer loop
vertex 0.000278 0.007064 0.000000
vertex 0.000671 0.007804 0.000000
vertex 0.000721 0.007886 0.000000
endloop
endfacet
facet normal 0.000000 0.000000 -1.000000
outer loop
vertex 0.000721 0.007886 0.000000
vertex 0.000825 0.008023 0.000000
vertex 0.000881 0.008084 0.000000
endloop
endfacet
facet normal 0.000000 0.000000 -1.000000
outer loop
vertex 0.001233 0.008422 0.000000
vertex 0.001611 0.008825 0.000000
vertex 0.001779 0.008973 0.000000
endloop
endfacet
facet normal 0.000000 0.000000 -1.000000
outer loop
vertex 0.000721 0.007886 0.000000
vertex 0.000881 0.008084 0.000000
vertex 0.001233 0.008422 0.000000
endloop
endfacet
facet normal 0.000000 0.000000 -1.000000
outer loop
vertex 0.000174 0.006818 0.000000
vertex 0.000278 0.007064 0.000000
vertex 0.000721 0.007886 0.000000
endloop
endfacet
facet normal 0.000000 0.000000 -1.000000
outer loop
vertex 0.000456 0.005087 0.000000
vertex 0.000082 0.005812 0.000000
vertex 0.000174 0.006818 0.000000
endloop
endfacet
facet normal 0.000000 0.000000 -1.000000
outer loop
vertex 0.001302 0.003581 0.000000
vertex 0.000951 0.004184 0.000000
vertex 0.000456 0.005087 0.000000
endloop
endfacet
facet normal 0.000000 0.000000 -1.000000
outer loop
vertex 0.003744 0.000836 0.000000
vertex 0.002478 0.001974 0.000000
vertex 0.001302 0.003581 0.000000
endloop
endfacet
facet normal 0.000000 0.000000 -1.000000
outer loop
vertex 0.005185 0.000176 0.000000
vertex 0.004200 0.000589 0.000000
vertex 0.003744 0.000836 0.000000
endloop
endfacet
facet normal 0.000000 0.000000 -1.000000
outer loop
vertex 0.006150 0.000003 0.000000
vertex 0.005676 0.000035 0.000000
vertex 0.005185 0.000176 0.000000
endloop
endfacet
facet normal 0.000000 0.000000 -1.000000
outer loop
vertex 0.007389 0.000259 0.000000
vertex 0.007181 0.000184 0.000000
vertex 0.006150 0.000003 0.000000
endloop
endfacet
facet normal 0.000000 0.000000 -1.000000
outer loop
vertex 0.008946 0.001091 0.000000
vertex 0.007877 0.000499 0.000000
vertex 0.007389 0.000259 0.000000
endloop
endfacet
facet normal 0.000000 0.000000 -1.000000
outer loop
vertex 0.010316 0.003186 0.000000
vertex 0.009683 0.001925 0.000000
vertex 0.008946 0.001091 0.000000
endloop
endfacet
facet normal 0.000000 0.000000 -1.000000
outer loop
vertex 0.010462 0.005852 0.000000
vertex 0.010508 0.004462 0.000000
vertex 0.010316 0.003186 0.000000
endloop
endfacet
facet normal 0.000000 0.000000 -1.000000
outer loop
vertex 0.009193 0.008707 0.000000
vertex 0.009994 0.007303 0.000000
vertex 0.010462 0.005852 0.000000
endloop
endfacet
facet normal 0.000000 0.000000 -1.000000
outer loop
vertex 0.006563 0.009914 0.000000
vertex 0.007501 0.009735 0.000000
vertex 0.009193 0.008707 0.000000
endloop
endfacet
facet normal 0.000000 0.000000 -1.000000
outer loop
vertex 0.002993 0.009751 0.000000
vertex 0.003677 0.009818 0.000000
vertex 0.006563 0.009914 0.000000
endloop
endfacet
facet normal 0.000000 0.000000 -1.000000
outer loop
vertex 0.002768 0.009664 0.000000
vertex 0.002883 0.009715 0.000000
vertex 0.002993 0.009751 0.000000
endloop
endfacet
facet normal 0.000000 0.000000 -1.000000
outer loop
vertex 0.001779 0.008973 0.000000
vertex 0.002650 0.009595 0.000000
vertex 0.002768 0.009664 0.000000
endloop
endfacet
facet normal 0.000000 0.000000 -1.000000
outer loop
vertex 0.000721 0.007886 0.000000
vertex 0.001233 0.008422 0.000000
vertex 0.001779 0.008973 0.000000
endloop
endfacet
facet normal 0.000000 0.000000 -1.000000
outer loop
vertex 0.000456 0.005087 0.000000
vertex 0.000174 0.006818 0.000000
vertex 0.000721 0.007886 0.000000
endloop
endfacet
facet normal 0.000000 0.000000 -1.000000
outer loop
vertex 0.003744 0.000836 0.000000
vertex 0.001302 0.003581 0.000000
vertex 0.000456 0.005087 0.000000
endloop
endfacet
facet normal 0.000000 0.000000 -1.000000
outer loop
vertex 0.006150 0.000003 0.000000
vertex 0.005185 0.000176 0.000000
vertex 0.003744 0.000836 0.000000
endloop
endfacet
facet normal 0.000000 0.000000 -1.000000
outer loop
vertex 0.008946 0.001091 0.000000
vertex 0.007389 0.000259 0.000000
vertex 0.006150 0.000003 0.000000
endloop
endfacet
facet normal 0.000000 0.000000 -1.000000
outer loop
vertex 0.010462 0.005852 0.000000
vertex 0.010316 0.003186 0.000000
vertex 0.008946 0.001091 0.000000
endloop
endfacet
facet normal 0.000000 0.000000 -1.000000
outer loop
vertex 0.006563 0.009914 0.000000
vertex 0.009193 0.008707 0.000000
vertex 0.010462 0.005852 0.000000
endloop
endfacet
facet normal 0.000000 0.000000 -1.000000
outer loop
vertex 0.002768 0.009664 0.000000
vertex 0.002993 0.009751 0.000000
vertex 0.006563 0.009914 0.000000
endloop
endfacet
facet normal 0.000000 0.000000 -1.000000
outer loop
vertex 0.000721 0.007886 0.000000
vertex 0.001779 0.008973 0.000000
vertex 0.002768 0.009664 0.000000
endloop
endfacet
facet normal 0.000000 0.000000 -1.000000
outer loop
vertex 0.003744 0.000836 0.000000
vertex 0.000456 0.005087 0.000000
vertex 0.000721 0.007886 0.000000
endloop
endfacet
facet normal 0.000000 0.000000 -1.000000
outer loop
vertex 0.008946 0.001091 0.000000
vertex 0.006150 0.000003 0.000000
vertex 0.003744 0.000836 0.000000
endloop
endfacet
facet normal 0.000000 0.000000 -1.000000
outer loop
vertex 0.006563 0.009914 0.000000
vertex 0.010462 0.005852 0.000000
vertex 0.008946 0.001091 0.000000
endloop
endfacet
facet normal 0.000000 0.000000 -1.000000
outer loop
vertex 0.000721 0.007886 0.000000
vertex 0.002768 0.009664 0.000000
vertex 0.006563 0.009914 0.000000
endloop
endfacet
facet normal 0.000000 0.000000 -1.000000
outer loop
vertex 0.008946 0.001091 0.000000
vertex 0.003744 0.000836 0.000000
vertex 0.000721 0.007886 0.000000
endloop
endfacet
facet normal 0.000000 0.000000 -1.000000
outer loop
vertex 0.000721 0.007886 0.000000
vertex 0.006563 0.009914 0.000000
vertex 0.008946 0.001091 0.000000
endloop
endfacet
facet normal -0.797305 0.603576 0.000000
outer loop
vertex 0.000825 0.008023 0.150000
vertex 0.000825 0.008023 0.000000
vertex 0.000721 0.007886 0.000000
endloop
endfacet
facet normal -0.797306 0.603576 0.000000
outer loop
vertex 0.000825 0.008023 0.150000
vertex 0.000721 0.007886 0.000000
vertex 0.000721 0.007886 0.150000
endloop
endfacet
facet normal -0.511672 -0.859181 0.000000
outer loop
vertex 0.003744 0.000836 0.150000
vertex 0.003744 0.000836 0.000000
vertex 0.003971 0.000701 0.000000
endloop
endfacet
facet normal -0.511672 -0.859181 0.000000
outer loop
vertex 0.003744 0.000836 0.150000
vertex 0.003971 0.000701 0.000000
vertex 0.003971 0.000701 0.150000
endloop
endfacet
facet normal -0.501675 0.865056 0.000000
outer loop
vertex 0.002768 0.009664 0.150000
vertex 0.002768 0.009664 0.000000
vertex 0.002650 0.009595 0.000000
endloop
endfacet
facet normal -0.501675 0.865056 0.000000
outer loop
vertex 0.002768 0.009664 0.150000
vertex 0.002650 0.009595 0.000000
vertex 0.002650 0.009595 0.150000
endloop
endfacet
facet normal 0.605974 0.795484 0.000000
outer loop
vertex 0.009193 0.008707 0.000000
vertex 0.008565 0.009186 0.000000
vertex 0.008565 0.009186 0.150000
endloop
endfacet
facet normal 0.605975 0.795483 0.000000
outer loop
vertex 0.009193 0.008707 0.000000
vertex 0.008565 0.009186 0.150000
vertex 0.009193 0.008707 0.150000
endloop
endfacet
facet normal -0.979228 0.202764 0.000000
outer loop
vertex 0.000174 0.006818 0.000000
vertex 0.000000 0.005979 0.000000
vertex 0.000000 0.005979 0.150000
endloop
endfacet
facet normal -0.979228 0.202764 0.000000
outer loop
vertex 0.000174 0.006818 0.000000
vertex 0.000000 0.005979 0.150000
vertex 0.000174 0.006818 0.150000
endloop
endfacet
facet normal 0.626211 -0.779653 0.000000
outer loop
vertex 0.008828 0.000997 0.150000
vertex 0.008828 0.000997 0.000000
vertex 0.008946 0.001091 0.000000
endloop
endfacet
facet normal 0.626206 -0.779657 0.000000
outer loop
vertex 0.008828 0.000997 0.150000
vertex 0.008946 0.001091 0.000000
vertex 0.008946 0.001091 0.150000
endloop
endfacet
facet normal 0.000000 0.000000 1.000000
outer loop
vertex 0.010354 0.003388 0.000000
vertex 0.010451 0.004022 0.000000
vertex 0.010481 0.004241 0.000000
endloop
endfacet
facet normal 0.000000 0.000000 1.000000
outer loop
vertex 0.010481 0.004241 0.000000
vertex 0.010508 0.004462 0.000000
vertex 0.010528 0.004687 0.000000
endloop
endfacet
facet normal 0.998626 -0.052400 0.000000
outer loop
vertex 0.010528 0.004687 0.000000
vertex 0.010540 0.004915 0.000000
vertex 0.010540 0.004915 0.150000
endloop
endfacet
facet normal 0.998626 -0.052406 0.000000
outer loop
vertex 0.010528 0.004687 0.000000
vertex 0.010540 0.004915 0.150000
vertex 0.010528 0.004687 0.150000
endloop
endfacet
facet normal 0.000000 0.000000 1.000000
outer loop
vertex 0.010354 0.003388 0.000000
vertex 0.010481 0.004241 0.000000
vertex 0.010528 0.004687 0.000000
endloop
endfacet
facet normal 0.982821 -0.184560 0.000000
outer loop
vertex 0.010316 0.003186 0.150000
vertex 0.010316 0.003186 0.000000
vertex 0.010354 0.003388 0.000000
endloop
endfacet
facet normal 0.982821 -0.184560 0.000000
outer loop
vertex 0.010354 0.003388 0.150000
vertex 0.010316 0.003186 0.150000
vertex 0.010354 0.003388 0.000000
endloop
endfacet
facet normal 0.991063 -0.133396 0.000000
outer loop
vertex 0.010354 0.003388 0.000000
vertex 0.010528 0.004687 0.000000
vertex 0.010528 0.004687 0.150000
endloop
endfacet
facet normal 0.995928 -0.090152 -0.000380
outer loop
vertex 0.010354 0.003388 0.000000
vertex 0.010528 0.004687 0.150000
vertex 0.010508 0.004462 0.150000
endloop
endfacet
facet normal 0.988505 -0.151189 0.000000
outer loop
vertex 0.010451 0.004022 0.150000
vertex 0.010354 0.003388 0.150000
vertex 0.010354 0.003388 0.000000
endloop
endfacet
facet normal 0.992850 -0.119369 -0.000168
outer loop
vertex 0.010354 0.003388 0.000000
vertex 0.010508 0.004462 0.150000
vertex 0.010481 0.004241 0.150000
endloop
endfacet
facet normal 0.990160 -0.139940 -0.000049
outer loop
vertex 0.010481 0.004241 0.150000
vertex 0.010451 0.004022 0.150000
vertex 0.010354 0.003388 0.000000
endloop
endfacet
facet normal -0.049834 0.998757 0.000000
outer loop
vertex 0.005886 0.009963 0.000000
vertex 0.003983 0.009868 0.000000
vertex 0.003983 0.009868 0.150000
endloop
endfacet
facet normal -0.049834 0.998757 0.000000
outer loop
vertex 0.005886 0.009963 0.000000
vertex 0.003983 0.009868 0.150000
vertex 0.005886 0.009963 0.150000
endloop
endfacet
facet normal 0.271399 -0.962467 0.000000
outer loop
vertex 0.007181 0.000184 0.150000
vertex 0.007077 0.000154 0.150000
vertex 0.007077 0.000154 0.000000
endloop
endfacet
facet normal 0.271399 -0.962467 0.000000
outer loop
vertex 0.007181 0.000184 0.150000
vertex 0.007077 0.000154 0.000000
vertex 0.007181 0.000184 0.000000
endloop
endfacet
facet normal 0.359945 -0.932974 0.000000
outer loop
vertex 0.007389 0.000259 0.000000
vertex 0.007389 0.000259 0.150000
vertex 0.007284 0.000218 0.150000
endloop
endfacet
facet normal 0.315674 -0.948868 0.000000
outer loop
vertex 0.007284 0.000218 0.150000
vertex 0.007181 0.000184 0.150000
vertex 0.007181 0.000184 0.000000
endloop
endfacet
facet normal 0.359950 -0.932972 0.000000
outer loop
vertex 0.007284 0.000218 0.000000
vertex 0.007389 0.000259 0.000000
vertex 0.007284 0.000218 0.150000
endloop
endfacet
facet normal 0.315674 -0.948868 0.000000
outer loop
vertex 0.007181 0.000184 0.000000
vertex 0.007284 0.000218 0.000000
vertex 0.007284 0.000218 0.150000
endloop
endfacet
facet normal 0.309513 0.950895 0.000000
outer loop
vertex 0.007606 0.009701 0.150000
vertex 0.007606 0.009701 0.000000
vertex 0.007501 0.009735 0.000000
endloop
endfacet
facet normal 0.309517 0.950894 0.000000
outer loop
vertex 0.007606 0.009701 0.150000
vertex 0.007501 0.009735 0.000000
vertex 0.007501 0.009735 0.150000
endloop
endfacet
facet normal -0.109868 -0.993946 0.000000
outer loop
vertex 0.005676 0.000035 0.150000
vertex 0.005676 0.000035 0.000000
vertex 0.005991 0.000001 0.000000
endloop
endfacet
facet normal -0.109868 -0.993946 0.000000
outer loop
vertex 0.005676 0.000035 0.150000
vertex 0.005991 0.000001 0.000000
vertex 0.005991 0.000001 0.150000
endloop
endfacet
facet normal 0.999783 0.020845 0.000000
outer loop
vertex 0.010540 0.004915 0.150000
vertex 0.010540 0.004915 0.000000
vertex 0.010531 0.005378 0.000000
endloop
endfacet
facet normal 0.999783 0.020845 0.000000
outer loop
vertex 0.010540 0.004915 0.150000
vertex 0.010531 0.005378 0.000000
vertex 0.010531 0.005378 0.150000
endloop
endfacet
facet normal -0.313236 0.949675 0.000000
outer loop
vertex 0.002993 0.009751 0.150000
vertex 0.002993 0.009751 0.000000
vertex 0.002883 0.009715 0.000000
endloop
endfacet
facet normal -0.313235 0.949676 0.000000
outer loop
vertex 0.002993 0.009751 0.150000
vertex 0.002883 0.009715 0.000000
vertex 0.002883 0.009715 0.150000
endloop
endfacet
facet normal 0.000000 0.000000 -1.000000
outer loop
vertex 0.001611 0.008825 0.000000
vertex 0.001233 0.008422 0.000000
vertex 0.000881 0.008084 0.000000
endloop
endfacet
facet normal -0.735515 0.677509 0.000000
outer loop
vertex 0.000881 0.008084 0.000000
vertex 0.000825 0.008023 0.000000
vertex 0.000825 0.008023 0.150000
endloop
endfacet
facet normal -0.735515 0.677509 0.000000
outer loop
vertex 0.000881 0.008084 0.000000
vertex 0.000825 0.008023 0.150000
vertex 0.000881 0.008084 0.150000
endloop
endfacet
facet normal -0.660192 0.751097 0.000000
outer loop
vertex 0.001779 0.008973 0.150000
vertex 0.001779 0.008973 0.000000
vertex 0.001611 0.008825 0.000000
endloop
endfacet
facet normal -0.712329 0.701846 0.000000
outer loop
vertex 0.001611 0.008825 0.000000
vertex 0.000881 0.008084 0.000000
vertex 0.000881 0.008084 0.150000
endloop
endfacet
facet normal -0.692536 0.721384 0.000193
outer loop
vertex 0.001611 0.008825 0.000000
vertex 0.000881 0.008084 0.150000
vertex 0.001233 0.008422 0.150000
endloop
endfacet
facet normal -0.660191 0.751098 0.000000
outer loop
vertex 0.001611 0.008825 0.150000
vertex 0.001779 0.008973 0.150000
vertex 0.001611 0.008825 0.000000
endloop
endfacet
facet normal -0.729372 0.684117 0.000000
outer loop
vertex 0.001611 0.008825 0.000000
vertex 0.001233 0.008422 0.150000
vertex 0.001611 0.008825 0.150000
endloop
endfacet
facet normal 0.701712 -0.712461 0.000000
outer loop
vertex 0.008946 0.001091 0.150000
vertex 0.008946 0.001091 0.000000
vertex 0.009187 0.001328 0.000000
endloop
endfacet
facet normal 0.701708 -0.712465 0.000000
outer loop
vertex 0.008946 0.001091 0.150000
vertex 0.009187 0.001328 0.000000
vertex 0.009187 0.001328 0.150000
endloop
endfacet
facet normal -0.408911 0.912574 0.000000
outer loop
vertex 0.002883 0.009715 0.150000
vertex 0.002883 0.009715 0.000000
vertex 0.002768 0.009664 0.000000
endloop
endfacet
facet normal -0.408909 0.912575 0.000000
outer loop
vertex 0.002883 0.009715 0.150000
vertex 0.002768 0.009664 0.000000
vertex 0.002768 0.009664 0.150000
endloop
endfacet
facet normal -0.595080 -0.803666 0.000000
outer loop
vertex 0.003300 0.001165 0.000000
vertex 0.003744 0.000836 0.000000
vertex 0.003744 0.000836 0.150000
endloop
endfacet
facet normal -0.595080 -0.803666 0.000000
outer loop
vertex 0.003300 0.001165 0.000000
vertex 0.003744 0.000836 0.150000
vertex 0.003300 0.001165 0.150000
endloop
endfacet
facet normal 0.071930 0.997410 0.000000
outer loop
vertex 0.006563 0.009914 0.000000
vertex 0.005886 0.009963 0.000000
vertex 0.005886 0.009963 0.150000
endloop
endfacet
facet normal 0.071930 0.997410 0.000000
outer loop
vertex 0.006563 0.009914 0.000000
vertex 0.005886 0.009963 0.150000
vertex 0.006563 0.009914 0.150000
endloop
endfacet
facet normal 0.000000 0.000000 -1.000000
outer loop
vertex 0.007618 0.000364 0.000000
vertex 0.007877 0.000499 0.000000
vertex 0.008365 0.000725 0.000000
endloop
endfacet
facet normal 0.476897 -0.878959 0.000000
outer loop
vertex 0.008482 0.000782 0.000000
vertex 0.008597 0.000845 0.000000
vertex 0.008597 0.000845 0.150000
endloop
endfacet
facet normal 0.000000 0.000000 -1.000000
outer loop
vertex 0.007500 0.000307 0.000000
vertex 0.007618 0.000364 0.000000
vertex 0.008365 0.000725 0.000000
endloop
endfacet
facet normal 0.441439 -0.897291 0.000035
outer loop
vertex 0.008365 0.000725 0.000000
vertex 0.008482 0.000782 0.000000
vertex 0.008597 0.000845 0.150000
endloop
endfacet
facet normal 0.476897 -0.878959 -0.000035
outer loop
vertex 0.008365 0.000725 0.000000
vertex 0.008597 0.000845 0.150000
vertex 0.008482 0.000782 0.150000
endloop
endfacet
facet normal 0.400832 -0.916152 0.000000
outer loop
vertex 0.007389 0.000259 0.150000
vertex 0.007389 0.000259 0.000000
vertex 0.007500 0.000307 0.000000
endloop
endfacet
facet normal 0.434873 -0.900492 0.000006
outer loop
vertex 0.007500 0.000307 0.000000
vertex 0.008365 0.000725 0.000000
vertex 0.008482 0.000782 0.150000
endloop
endfacet
facet normal 0.441444 -0.897289 -0.000047
outer loop
vertex 0.007500 0.000307 0.000000
vertex 0.008482 0.000782 0.150000
vertex 0.008365 0.000725 0.150000
endloop
endfacet
facet normal 0.400832 -0.916152 0.000000
outer loop
vertex 0.007500 0.000307 0.150000
vertex 0.007389 0.000259 0.150000
vertex 0.007500 0.000307 0.000000
endloop
endfacet
facet normal 0.436132 -0.899882 0.000000
outer loop
vertex 0.007618 0.000364 0.150000
vertex 0.007500 0.000307 0.150000
vertex 0.007500 0.000307 0.000000
endloop
endfacet
facet normal 0.419210 -0.907889 0.000111
outer loop
vertex 0.007500 0.000307 0.000000
vertex 0.008365 0.000725 0.150000
vertex 0.007877 0.000499 0.150000
endloop
endfacet
facet normal 0.462770 -0.886478 -0.000026
outer loop
vertex 0.007877 0.000499 0.150000
vertex 0.007618 0.000364 0.150000
vertex 0.007500 0.000307 0.000000
endloop
endfacet
facet normal -0.701396 -0.712772 0.000000
outer loop
vertex 0.002478 0.001974 0.000000
vertex 0.003300 0.001165 0.000000
vertex 0.003300 0.001165 0.150000
endloop
endfacet
facet normal -0.701396 -0.712772 0.000000
outer loop
vertex 0.002478 0.001974 0.000000
vertex 0.003300 0.001165 0.150000
vertex 0.002478 0.001974 0.150000
endloop
endfacet
facet normal 0.548557 -0.836113 0.000000
outer loop
vertex 0.008828 0.000997 0.000000
vertex 0.008828 0.000997 0.150000
vertex 0.008597 0.000845 0.150000
endloop
endfacet
facet normal 0.548562 -0.836110 0.000000
outer loop
vertex 0.008828 0.000997 0.000000
vertex 0.008597 0.000845 0.150000
vertex 0.008597 0.000845 0.000000
endloop
endfacet
facet normal -0.797820 -0.602896 0.000000
outer loop
vertex 0.001474 0.003302 0.000000
vertex 0.002478 0.001974 0.000000
vertex 0.002478 0.001974 0.150000
endloop
endfacet
facet normal -0.797819 -0.602896 0.000000
outer loop
vertex 0.001474 0.003302 0.000000
vertex 0.002478 0.001974 0.150000
vertex 0.001474 0.003302 0.150000
endloop
endfacet
facet normal 0.823569 -0.567216 0.000000
outer loop
vertex 0.009912 0.002257 0.000000
vertex 0.009912 0.002257 0.150000
vertex 0.009683 0.001925 0.150000
endloop
endfacet
facet normal 0.823565 -0.567221 0.000000
outer loop
vertex 0.009912 0.002257 0.000000
vertex 0.009683 0.001925 0.150000
vertex 0.009683 0.001925 0.000000
endloop
endfacet
facet normal 0.791144 -0.611629 0.000000
outer loop
vertex 0.009561 0.001767 0.000000
vertex 0.009683 0.001925 0.000000
vertex 0.009683 0.001925 0.150000
endloop
endfacet
facet normal 0.791144 -0.611629 0.000000
outer loop
vertex 0.009561 0.001767 0.000000
vertex 0.009683 0.001925 0.150000
vertex 0.009561 0.001767 0.150000
endloop
endfacet
facet normal 0.753911 -0.656976 0.000000
outer loop
vertex 0.009187 0.001328 0.150000
vertex 0.009187 0.001328 0.000000
vertex 0.009437 0.001615 0.000000
endloop
endfacet
facet normal 0.773514 -0.633780 0.000000
outer loop
vertex 0.009437 0.001615 0.000000
vertex 0.009561 0.001767 0.000000
vertex 0.009561 0.001767 0.150000
endloop
endfacet
facet normal 0.753909 -0.656979 0.000000
outer loop
vertex 0.009437 0.001615 0.150000
vertex 0.009187 0.001328 0.150000
vertex 0.009437 0.001615 0.000000
endloop
endfacet
facet normal 0.773514 -0.633780 0.000000
outer loop
vertex 0.009437 0.001615 0.000000
vertex 0.009561 0.001767 0.150000
vertex 0.009437 0.001615 0.150000
endloop
endfacet
facet normal -0.901009 0.433800 0.000000
outer loop
vertex 0.000278 0.007064 0.000000
vertex 0.000238 0.006980 0.000000
vertex 0.000238 0.006980 0.150000
endloop
endfacet
facet normal -0.901009 0.433801 0.000000
outer loop
vertex 0.000278 0.007064 0.000000
vertex 0.000238 0.006980 0.150000
vertex 0.000278 0.007064 0.150000
endloop
endfacet
facet normal -0.856714 0.515791 0.000000
outer loop
vertex 0.000721 0.007886 0.150000
vertex 0.000721 0.007886 0.000000
vertex 0.000671 0.007804 0.000000
endloop
endfacet
facet normal -0.882949 0.469468 0.000000
outer loop
vertex 0.000671 0.007804 0.000000
vertex 0.000278 0.007064 0.000000
vertex 0.000278 0.007064 0.150000
endloop
endfacet
facet normal -0.856715 0.515790 0.000000
outer loop
vertex 0.000671 0.007804 0.150000
vertex 0.000721 0.007886 0.150000
vertex 0.000671 0.007804 0.000000
endloop
endfacet
facet normal -0.882949 0.469468 0.000000
outer loop
vertex 0.000278 0.007064 0.150000
vertex 0.000671 0.007804 0.150000
vertex 0.000671 0.007804 0.000000
endloop
endfacet
facet normal 0.000000 0.000000 1.000000
outer loop
vertex 0.010401 0.006092 0.000000
vertex 0.010249 0.006580 0.000000
vertex 0.010082 0.007066 0.000000
endloop
endfacet
facet normal 0.000000 0.000000 1.000000
outer loop
vertex 0.010082 0.007066 0.000000
vertex 0.009994 0.007303 0.000000
vertex 0.009902 0.007531 0.000000
endloop
endfacet
facet normal 0.928427 0.371515 0.000000
outer loop
vertex 0.009902 0.007531 0.000000
vertex 0.009902 0.007531 0.150000
vertex 0.009994 0.007303 0.150000
endloop
endfacet
facet normal 0.936588 0.350431 -0.000037
outer loop
vertex 0.009902 0.007531 0.000000
vertex 0.009994 0.007303 0.150000
vertex 0.010082 0.007066 0.150000
endloop
endfacet
facet normal 0.000000 0.000000 1.000000
outer loop
vertex 0.010401 0.006092 0.000000
vertex 0.010082 0.007066 0.000000
vertex 0.009902 0.007531 0.000000
endloop
endfacet
facet normal 0.968730 0.248117 0.000000
outer loop
vertex 0.010462 0.005852 0.150000
vertex 0.010462 0.005852 0.000000
vertex 0.010401 0.006092 0.000000
endloop
endfacet
facet normal 0.968732 0.248111 0.000000
outer loop
vertex 0.010401 0.006092 0.150000
vertex 0.010462 0.005852 0.150000
vertex 0.010401 0.006092 0.000000
endloop
endfacet
facet normal 0.944965 0.327170 -0.000119
outer loop
vertex 0.010401 0.006092 0.000000
vertex 0.009902 0.007531 0.000000
vertex 0.010082 0.007066 0.150000
endloop
endfacet
facet normal 0.954975 0.296687 0.000000
outer loop
vertex 0.010249 0.006580 0.150000
vertex 0.010401 0.006092 0.150000
vertex 0.010401 0.006092 0.000000
endloop
endfacet
facet normal 0.945909 0.324431 -0.000099
outer loop
vertex 0.010082 0.007066 0.150000
vertex 0.010249 0.006580 0.150000
vertex 0.010401 0.006092 0.000000
endloop
endfacet
facet normal 0.000000 0.000000 1.000000
outer loop
vertex 0.003971 0.000701 0.000000
vertex 0.004200 0.000589 0.000000
vertex 0.005010 0.000243 0.000000
endloop
endfacet
facet normal 0.000000 0.000000 1.000000
outer loop
vertex 0.005010 0.000243 0.000000
vertex 0.005185 0.000176 0.000000
vertex 0.005354 0.000119 0.000000
endloop
endfacet
facet normal -0.323379 -0.946269 0.000000
outer loop
vertex 0.005354 0.000119 0.000000
vertex 0.005354 0.000119 0.150000
vertex 0.005185 0.000176 0.150000
endloop
endfacet
facet normal -0.356803 -0.934180 -0.000042
outer loop
vertex 0.005354 0.000119 0.000000
vertex 0.005185 0.000176 0.150000
vertex 0.005010 0.000243 0.150000
endloop
endfacet
facet normal 0.000000 0.000000 1.000000
outer loop
vertex 0.003971 0.000701 0.000000
vertex 0.005010 0.000243 0.000000
vertex 0.005354 0.000119 0.000000
endloop
endfacet
facet normal -0.438624 -0.898671 0.000000
outer loop
vertex 0.004200 0.000589 0.150000
vertex 0.003971 0.000701 0.150000
vertex 0.003971 0.000701 0.000000
endloop
endfacet
facet normal -0.392949 -0.919560 -0.000137
outer loop
vertex 0.005354 0.000119 0.000000
vertex 0.005010 0.000243 0.150000
vertex 0.004200 0.000589 0.150000
endloop
endfacet
facet normal -0.388200 -0.921575 -0.000094
outer loop
vertex 0.005354 0.000119 0.000000
vertex 0.004200 0.000589 0.150000
vertex 0.003971 0.000701 0.000000
endloop
endfacet
facet normal 0.873916 -0.486078 0.000000
outer loop
vertex 0.009912 0.002257 0.000000
vertex 0.010109 0.002611 0.000000
vertex 0.010109 0.002611 0.150000
endloop
endfacet
facet normal 0.873919 -0.486072 0.000000
outer loop
vertex 0.009912 0.002257 0.000000
vertex 0.010109 0.002611 0.150000
vertex 0.009912 0.002257 0.150000
endloop
endfacet
facet normal 0.499317 0.866419 0.000000
outer loop
vertex 0.008565 0.009186 0.000000
vertex 0.007881 0.009580 0.000000
vertex 0.007881 0.009580 0.150000
endloop
endfacet
facet normal 0.499316 0.866420 0.000000
outer loop
vertex 0.008565 0.009186 0.000000
vertex 0.007881 0.009580 0.150000
vertex 0.008565 0.009186 0.150000
endloop
endfacet
facet normal -0.161252 0.986913 0.000000
outer loop
vertex 0.003983 0.009868 0.000000
vertex 0.003677 0.009818 0.000000
vertex 0.003677 0.009818 0.150000
endloop
endfacet
facet normal -0.161252 0.986913 0.000000
outer loop
vertex 0.003983 0.009868 0.000000
vertex 0.003677 0.009818 0.150000
vertex 0.003983 0.009868 0.150000
endloop
endfacet
facet normal 0.963679 -0.267063 0.000000
outer loop
vertex 0.010261 0.002989 0.150000
vertex 0.010261 0.002989 0.000000
vertex 0.010316 0.003186 0.000000
endloop
endfacet
facet normal 0.963679 -0.267063 0.000000
outer loop
vertex 0.010261 0.002989 0.150000
vertex 0.010316 0.003186 0.000000
vertex 0.010316 0.003186 0.150000
endloop
endfacet
facet normal -0.851026 -0.525123 0.000000
outer loop
vertex 0.001302 0.003581 0.000000
vertex 0.001474 0.003302 0.000000
vertex 0.001474 0.003302 0.150000
endloop
endfacet
facet normal -0.851026 -0.525123 0.000000
outer loop
vertex 0.001302 0.003581 0.000000
vertex 0.001474 0.003302 0.150000
vertex 0.001302 0.003581 0.150000
endloop
endfacet
facet normal -0.860294 -0.509798 0.000000
outer loop
vertex 0.001126 0.003877 0.000000
vertex 0.001302 0.003581 0.000000
vertex 0.001302 0.003581 0.150000
endloop
endfacet
facet normal -0.860294 -0.509798 0.000000
outer loop
vertex 0.001126 0.003877 0.000000
vertex 0.001302 0.003581 0.150000
vertex 0.001126 0.003877 0.150000
endloop
endfacet
facet normal -0.867374 -0.497656 0.000000
outer loop
vertex 0.000951 0.004184 0.000000
vertex 0.001126 0.003877 0.000000
vertex 0.001126 0.003877 0.150000
endloop
endfacet
facet normal -0.867374 -0.497656 0.000000
outer loop
vertex 0.000951 0.004184 0.000000
vertex 0.001126 0.003877 0.150000
vertex 0.000951 0.004184 0.150000
endloop
endfacet
facet normal -0.873014 -0.487695 0.000000
outer loop
vertex 0.000778 0.004492 0.000000
vertex 0.000951 0.004184 0.000000
vertex 0.000951 0.004184 0.150000
endloop
endfacet
facet normal -0.873014 -0.487695 0.000000
outer loop
vertex 0.000778 0.004492 0.000000
vertex 0.000951 0.004184 0.150000
vertex 0.000778 0.004492 0.150000
endloop
endfacet
facet normal -0.879653 -0.475617 0.000000
outer loop
vertex 0.000456 0.005087 0.000000
vertex 0.000778 0.004492 0.000000
vertex 0.000778 0.004492 0.150000
endloop
endfacet
facet normal -0.879653 -0.475617 0.000000
outer loop
vertex 0.000456 0.005087 0.000000
vertex 0.000778 0.004492 0.150000
vertex 0.000456 0.005087 0.150000
endloop
endfacet
facet normal -0.886978 -0.461811 0.000000
outer loop
vertex 0.000188 0.005603 0.000000
vertex 0.000456 0.005087 0.000000
vertex 0.000456 0.005087 0.150000
endloop
endfacet
facet normal -0.886978 -0.461811 0.000000
outer loop
vertex 0.000188 0.005603 0.000000
vertex 0.000456 0.005087 0.150000
vertex 0.000188 0.005603 0.150000
endloop
endfacet
facet normal -0.896883 -0.442268 0.000000
outer loop
vertex 0.000000 0.005979 0.150000
vertex 0.000000 0.005979 0.000000
vertex 0.000082 0.005812 0.000000
endloop
endfacet
facet normal -0.892459 -0.451128 0.000000
outer loop
vertex 0.000082 0.005812 0.000000
vertex 0.000188 0.005603 0.000000
vertex 0.000188 0.005603 0.150000
endloop
endfacet
facet normal -0.896883 -0.442268 0.000000
outer loop
vertex 0.000082 0.005812 0.150000
vertex 0.000000 0.005979 0.150000
vertex 0.000082 0.005812 0.000000
endloop
endfacet
facet normal -0.892459 -0.451128 0.000000
outer loop
vertex 0.000188 0.005603 0.150000
vertex 0.000082 0.005812 0.150000
vertex 0.000082 0.005812 0.000000
endloop
endfacet
facet normal 0.404664 0.914465 0.000000
outer loop
vertex 0.007881 0.009580 0.150000
vertex 0.007881 0.009580 0.000000
vertex 0.007606 0.009701 0.000000
endloop
endfacet
facet normal 0.404666 0.914464 0.000000
outer loop
vertex 0.007881 0.009580 0.150000
vertex 0.007606 0.009701 0.000000
vertex 0.007606 0.009701 0.150000
endloop
endfacet
facet normal 0.989727 0.142972 0.000000
outer loop
vertex 0.010531 0.005378 0.000000
vertex 0.010462 0.005852 0.000000
vertex 0.010462 0.005852 0.150000
endloop
endfacet
facet normal 0.989726 0.142978 0.000000
outer loop
vertex 0.010531 0.005378 0.000000
vertex 0.010462 0.005852 0.150000
vertex 0.010531 0.005378 0.150000
endloop
endfacet
facet normal -0.057846 0.998326 0.000000
outer loop
vertex 0.003203 0.009790 0.000000
vertex 0.003203 0.009790 0.150000
vertex 0.003677 0.009818 0.150000
endloop
endfacet
facet normal -0.057846 0.998326 0.000000
outer loop
vertex 0.003203 0.009790 0.000000
vertex 0.003677 0.009818 0.150000
vertex 0.003677 0.009818 0.000000
endloop
endfacet
facet normal 0.895358 0.445348 0.000000
outer loop
vertex 0.009902 0.007531 0.000000
vertex 0.009513 0.008314 0.000000
vertex 0.009513 0.008314 0.150000
endloop
endfacet
facet normal 0.895358 0.445348 0.000000
outer loop
vertex 0.009902 0.007531 0.000000
vertex 0.009513 0.008314 0.150000
vertex 0.009902 0.007531 0.150000
endloop
endfacet
facet normal 0.803925 0.594730 0.000000
outer loop
vertex 0.009513 0.008314 0.000000
vertex 0.009309 0.008590 0.000000
vertex 0.009309 0.008590 0.150000
endloop
endfacet
facet normal 0.803921 0.594736 0.000000
outer loop
vertex 0.009513 0.008314 0.000000
vertex 0.009309 0.008590 0.150000
vertex 0.009513 0.008314 0.150000
endloop
endfacet
endsolid Exported from Blender-3.6.8
