solid Exported from Blender-3.6.8
facet normal 0.235320 -0.971918 0.000000
outer loop
vertex 0.003055 0.000006 0.150000
vertex 0.003055 0.000006 0.000000
vertex 0.003137 0.000026 0.000000
endloop
endfacet
facet normal 0.235322 -0.971917 0.000000
outer loop
vertex 0.003055 0.000006 0.150000
vertex 0.003137 0.000026 0.000000
vertex 0.003137 0.000026 0.150000
endloop
endfacet
facet normal -0.112568 -0.993644 0.000000
outer loop
vertex 0.002723 0.000019 0.000000
vertex 0.002844 0.000005 0.000000
vertex 0.002844 0.000005 0.150000
endloop
endfacet
facet normal -0.112569 -0.993644 0.000000
outer loop
vertex 0.002723 0.000019 0.000000
vertex 0.002844 0.000005 0.150000
vertex 0.002723 0.000019 0.150000
endloop
endfacet
facet normal -0.214366 -0.976753 0.000000
outer loop
vertex 0.001827 0.000208 0.150000
vertex 0.001827 0.000208 0.000000
vertex 0.002597 0.000039 0.000000
endloop
endfacet
facet normal -0.160030 -0.987112 0.000000
outer loop
vertex 0.002597 0.000039 0.000000
vertex 0.002723 0.000019 0.000000
vertex 0.002723 0.000019 0.150000
endloop
endfacet
facet normal -0.214366 -0.976753 0.000000
outer loop
vertex 0.002597 0.000039 0.150000
vertex 0.001827 0.000208 0.150000
vertex 0.002597 0.000039 0.000000
endloop
endfacet
facet normal -0.160030 -0.987112 0.000000
outer loop
vertex 0.002723 0.000019 0.150000
vertex 0.002597 0.000039 0.150000
vertex 0.002597 0.000039 0.000000
endloop
endfacet
facet normal 0.419109 0.907936 0.000000
outer loop
vertex 0.002850 0.005445 0.000000
vertex 0.002786 0.005475 0.000000
vertex 0.002786 0.005475 0.150000
endloop
endfacet
facet normal 0.419107 0.907937 0.000000
outer loop
vertex 0.002850 0.005445 0.000000
vertex 0.002786 0.005475 0.150000
vertex 0.002850 0.005445 0.150000
endloop
endfacet
facet normal 0.467037 0.884238 0.000000
outer loop
vertex 0.002913 0.005412 0.000000
vertex 0.002850 0.005445 0.000000
vertex 0.002850 0.005445 0.150000
endloop
endfacet
facet normal 0.467037 0.884238 0.000000
outer loop
vertex 0.002913 0.005412 0.000000
vertex 0.002850 0.005445 0.150000
vertex 0.002913 0.005412 0.150000
endloop
endfacet
facet normal 0.516254 0.856436 0.000000
outer loop
vertex 0.003395 0.005123 0.150000
vertex 0.003395 0.005123 0.000000
vertex 0.002978 0.005375 0.000000
endloop
endfacet
facet normal 0.500255 0.865878 0.000000
outer loop
vertex 0.002978 0.005375 0.000000
vertex 0.002913 0.005412 0.000000
vertex 0.002913 0.005412 0.150000
endloop
endfacet
facet normal 0.516254 0.856436 0.000000
outer loop
vertex 0.002978 0.005375 0.150000
vertex 0.003395 0.005123 0.150000
vertex 0.002978 0.005375 0.000000
endloop
endfacet
facet normal 0.500255 0.865878 0.000000
outer loop
vertex 0.002913 0.005412 0.150000
vertex 0.002978 0.005375 0.150000
vertex 0.002978 0.005375 0.000000
endloop
endfacet
facet normal 0.988622 0.150421 0.000000
outer loop
vertex 0.003753 0.004064 0.000000
vertex 0.003741 0.004142 0.000000
vertex 0.003741 0.004142 0.150000
endloop
endfacet
facet normal 0.988621 0.150431 0.000000
outer loop
vertex 0.003753 0.004064 0.000000
vertex 0.003741 0.004142 0.150000
vertex 0.003753 0.004064 0.150000
endloop
endfacet
facet normal 0.994414 0.105554 0.000000
outer loop
vertex 0.003761 0.003990 0.000000
vertex 0.003753 0.004064 0.000000
vertex 0.003753 0.004064 0.150000
endloop
endfacet
facet normal 0.994412 0.105564 0.000000
outer loop
vertex 0.003761 0.003990 0.000000
vertex 0.003753 0.004064 0.150000
vertex 0.003761 0.003990 0.150000
endloop
endfacet
facet normal 0.997777 0.066645 0.000000
outer loop
vertex 0.003766 0.003918 0.000000
vertex 0.003761 0.003990 0.000000
vertex 0.003761 0.003990 0.150000
endloop
endfacet
facet normal 0.997777 0.066645 0.000000
outer loop
vertex 0.003766 0.003918 0.000000
vertex 0.003761 0.003990 0.150000
vertex 0.003766 0.003918 0.150000
endloop
endfacet
facet normal 0.999261 0.038439 0.000000
outer loop
vertex 0.003769 0.003846 0.000000
vertex 0.003766 0.003918 0.000000
vertex 0.003766 0.003918 0.150000
endloop
endfacet
facet normal 0.999261 0.038439 0.000000
outer loop
vertex 0.003769 0.003846 0.000000
vertex 0.003766 0.003918 0.150000
vertex 0.003769 0.003846 0.150000
endloop
endfacet
facet normal 0.999663 0.025957 0.000000
outer loop
vertex 0.003775 0.003601 0.000000
vertex 0.003769 0.003846 0.000000
vertex 0.003769 0.003846 0.150000
endloop
endfacet
facet normal 0.999663 0.025957 0.000000
outer loop
vertex 0.003775 0.003601 0.000000
vertex 0.003769 0.003846 0.150000
vertex 0.003775 0.003601 0.150000
endloop
endfacet
facet normal 0.998811 0.048759 0.000000
outer loop
vertex 0.003780 0.003503 0.000000
vertex 0.003775 0.003601 0.000000
vertex 0.003775 0.003601 0.150000
endloop
endfacet
facet normal 0.998811 0.048759 0.000000
outer loop
vertex 0.003780 0.003503 0.000000
vertex 0.003775 0.003601 0.150000
vertex 0.003780 0.003503 0.150000
endloop
endfacet
facet normal 0.997515 0.070459 0.000000
outer loop
vertex 0.003788 0.003392 0.000000
vertex 0.003780 0.003503 0.000000
vertex 0.003780 0.003503 0.150000
endloop
endfacet
facet normal 0.997515 0.070459 0.000000
outer loop
vertex 0.003788 0.003392 0.000000
vertex 0.003780 0.003503 0.150000
vertex 0.003788 0.003392 0.150000
endloop
endfacet
facet normal 0.999826 0.018663 0.000000
outer loop
vertex 0.003797 0.003171 0.150000
vertex 0.003797 0.003171 0.000000
vertex 0.003795 0.003278 0.000000
endloop
endfacet
facet normal 0.998131 0.061118 0.000000
outer loop
vertex 0.003795 0.003278 0.000000
vertex 0.003788 0.003392 0.000000
vertex 0.003788 0.003392 0.150000
endloop
endfacet
facet normal 0.999826 0.018655 0.000000
outer loop
vertex 0.003795 0.003278 0.150000
vertex 0.003797 0.003171 0.150000
vertex 0.003795 0.003278 0.000000
endloop
endfacet
facet normal 0.998130 0.061124 0.000000
outer loop
vertex 0.003788 0.003392 0.150000
vertex 0.003795 0.003278 0.150000
vertex 0.003795 0.003278 0.000000
endloop
endfacet
facet normal 0.000000 0.000000 -1.000000
outer loop
vertex 0.003137 0.000026 0.000000
vertex 0.003055 0.000006 0.000000
vertex 0.002957 0.000000 0.000000
endloop
endfacet
facet normal 0.000000 0.000000 -1.000000
outer loop
vertex 0.002957 0.000000 0.000000
vertex 0.002844 0.000005 0.000000
vertex 0.002723 0.000019 0.000000
endloop
endfacet
facet normal 0.000000 0.000000 -1.000000
outer loop
vertex 0.002723 0.000019 0.000000
vertex 0.002597 0.000039 0.000000
vertex 0.001827 0.000208 0.000000
endloop
endfacet
facet normal 0.000000 0.000000 -1.000000
outer loop
vertex 0.001827 0.000208 0.000000
vertex 0.001741 0.000232 0.000000
vertex 0.001647 0.000260 0.000000
endloop
endfacet
facet normal 0.000000 0.000000 -1.000000
outer loop
vertex 0.001647 0.000260 0.000000
vertex 0.001547 0.000294 0.000000
vertex 0.001445 0.000332 0.000000
endloop
endfacet
facet normal 0.000000 0.000000 -1.000000
outer loop
vertex 0.001445 0.000332 0.000000
vertex 0.001341 0.000374 0.000000
vertex 0.001238 0.000420 0.000000
endloop
endfacet
facet normal 0.000000 0.000000 -1.000000
outer loop
vertex 0.001238 0.000420 0.000000
vertex 0.001139 0.000470 0.000000
vertex 0.000958 0.000580 0.000000
endloop
endfacet
facet normal 0.000000 0.000000 -1.000000
outer loop
vertex 0.000958 0.000580 0.000000
vertex 0.000881 0.000640 0.000000
vertex 0.000621 0.000888 0.000000
endloop
endfacet
facet normal 0.000000 0.000000 -1.000000
outer loop
vertex 0.000621 0.000888 0.000000
vertex 0.000504 0.001032 0.000000
vertex 0.000388 0.001204 0.000000
endloop
endfacet
facet normal 0.000000 0.000000 -1.000000
outer loop
vertex 0.000388 0.001204 0.000000
vertex 0.000270 0.001414 0.000000
vertex 0.000145 0.001675 0.000000
endloop
endfacet
facet normal 0.000000 0.000000 -1.000000
outer loop
vertex 0.000145 0.001675 0.000000
vertex 0.000089 0.001811 0.000000
vertex 0.000021 0.002038 0.000000
endloop
endfacet
facet normal 0.000000 0.000000 -1.000000
outer loop
vertex 0.000021 0.002038 0.000000
vertex 0.000005 0.002138 0.000000
vertex 0.000000 0.002234 0.000000
endloop
endfacet
facet normal 0.000000 0.000000 -1.000000
outer loop
vertex 0.000000 0.002234 0.000000
vertex 0.000003 0.002330 0.000000
vertex 0.000012 0.002429 0.000000
endloop
endfacet
facet normal 0.000000 0.000000 -1.000000
outer loop
vertex 0.000074 0.002944 0.000000
vertex 0.000109 0.003442 0.000000
vertex 0.000122 0.003563 0.000000
endloop
endfacet
facet normal 0.000000 0.000000 -1.000000
outer loop
vertex 0.000000 0.002234 0.000000
vertex 0.000012 0.002429 0.000000
vertex 0.000074 0.002944 0.000000
endloop
endfacet
facet normal 0.000000 0.000000 -1.000000
outer loop
vertex 0.000145 0.001675 0.000000
vertex 0.000021 0.002038 0.000000
vertex 0.000000 0.002234 0.000000
endloop
endfacet
facet normal 0.000000 0.000000 -1.000000
outer loop
vertex 0.000621 0.000888 0.000000
vertex 0.000388 0.001204 0.000000
vertex 0.000145 0.001675 0.000000
endloop
endfacet
facet normal 0.000000 0.000000 -1.000000
outer loop
vertex 0.001238 0.000420 0.000000
vertex 0.000958 0.000580 0.000000
vertex 0.000621 0.000888 0.000000
endloop
endfacet
facet normal 0.000000 0.000000 -1.000000
outer loop
vertex 0.001647 0.000260 0.000000
vertex 0.001445 0.000332 0.000000
vertex 0.001238 0.000420 0.000000
endloop
endfacet
facet normal 0.000000 0.000000 -1.000000
outer loop
vertex 0.002723 0.000019 0.000000
vertex 0.001827 0.000208 0.000000
vertex 0.001647 0.000260 0.000000
endloop
endfacet
facet normal 0.000000 0.000000 -1.000000
outer loop
vertex 0.003137 0.000026 0.000000
vertex 0.002957 0.000000 0.000000
vertex 0.002723 0.000019 0.000000
endloop
endfacet
facet normal 0.000000 0.000000 -1.000000
outer loop
vertex 0.003351 0.000204 0.000000
vertex 0.003198 0.000062 0.000000
vertex 0.003137 0.000026 0.000000
endloop
endfacet
facet normal 0.000000 0.000000 -1.000000
outer loop
vertex 0.003540 0.000450 0.000000
vertex 0.003451 0.000317 0.000000
vertex 0.003351 0.000204 0.000000
endloop
endfacet
facet normal 0.000000 0.000000 -1.000000
outer loop
vertex 0.003608 0.000610 0.000000
vertex 0.003577 0.000526 0.000000
vertex 0.003540 0.000450 0.000000
endloop
endfacet
facet normal 0.000000 0.000000 -1.000000
outer loop
vertex 0.003647 0.000800 0.000000
vertex 0.003632 0.000701 0.000000
vertex 0.003608 0.000610 0.000000
endloop
endfacet
facet normal 0.000000 0.000000 -1.000000
outer loop
vertex 0.003655 0.001378 0.000000
vertex 0.003652 0.000909 0.000000
vertex 0.003647 0.000800 0.000000
endloop
endfacet
facet normal 0.000000 0.000000 -1.000000
outer loop
vertex 0.003655 0.001378 0.000000
vertex 0.003647 0.000800 0.000000
vertex 0.003608 0.000610 0.000000
endloop
endfacet
facet normal 0.000000 0.000000 -1.000000
outer loop
vertex 0.003608 0.000610 0.000000
vertex 0.003540 0.000450 0.000000
vertex 0.003351 0.000204 0.000000
endloop
endfacet
facet normal 0.000000 0.000000 -1.000000
outer loop
vertex 0.003351 0.000204 0.000000
vertex 0.003137 0.000026 0.000000
vertex 0.002723 0.000019 0.000000
endloop
endfacet
facet normal 0.000000 0.000000 -1.000000
outer loop
vertex 0.002723 0.000019 0.000000
vertex 0.001647 0.000260 0.000000
vertex 0.001238 0.000420 0.000000
endloop
endfacet
facet normal 0.000000 0.000000 -1.000000
outer loop
vertex 0.001238 0.000420 0.000000
vertex 0.000621 0.000888 0.000000
vertex 0.000145 0.001675 0.000000
endloop
endfacet
facet normal 0.000000 0.000000 -1.000000
outer loop
vertex 0.000145 0.001675 0.000000
vertex 0.000000 0.002234 0.000000
vertex 0.000074 0.002944 0.000000
endloop
endfacet
facet normal 0.000000 0.000000 -1.000000
outer loop
vertex 0.000074 0.002944 0.000000
vertex 0.000122 0.003563 0.000000
vertex 0.000135 0.003664 0.000000
endloop
endfacet
facet normal 0.000000 0.000000 -1.000000
outer loop
vertex 0.000135 0.003664 0.000000
vertex 0.000150 0.003748 0.000000
vertex 0.000166 0.003819 0.000000
endloop
endfacet
facet normal 0.000000 0.000000 -1.000000
outer loop
vertex 0.000166 0.003819 0.000000
vertex 0.000183 0.003883 0.000000
vertex 0.000263 0.004146 0.000000
endloop
endfacet
facet normal 0.000000 0.000000 -1.000000
outer loop
vertex 0.000263 0.004146 0.000000
vertex 0.000353 0.004496 0.000000
vertex 0.000363 0.004533 0.000000
endloop
endfacet
facet normal 0.000000 0.000000 -1.000000
outer loop
vertex 0.000363 0.004533 0.000000
vertex 0.000373 0.004564 0.000000
vertex 0.000460 0.004777 0.000000
endloop
endfacet
facet normal 0.000000 0.000000 -1.000000
outer loop
vertex 0.000460 0.004777 0.000000
vertex 0.000493 0.004839 0.000000
vertex 0.000598 0.004984 0.000000
endloop
endfacet
facet normal 0.000000 0.000000 -1.000000
outer loop
vertex 0.000598 0.004984 0.000000
vertex 0.000665 0.005062 0.000000
vertex 0.000736 0.005139 0.000000
endloop
endfacet
facet normal 0.000000 0.000000 -1.000000
outer loop
vertex 0.000736 0.005139 0.000000
vertex 0.000808 0.005215 0.000000
vertex 0.000943 0.005348 0.000000
endloop
endfacet
facet normal 0.000000 0.000000 -1.000000
outer loop
vertex 0.000943 0.005348 0.000000
vertex 0.001044 0.005442 0.000000
vertex 0.001084 0.005478 0.000000
endloop
endfacet
facet normal 0.000000 0.000000 -1.000000
outer loop
vertex 0.001084 0.005478 0.000000
vertex 0.001146 0.005490 0.000000
vertex 0.001311 0.005517 0.000000
endloop
endfacet
facet normal 0.000000 0.000000 -1.000000
outer loop
vertex 0.001311 0.005517 0.000000
vertex 0.001547 0.005550 0.000000
vertex 0.001681 0.005565 0.000000
endloop
endfacet
facet normal 0.000000 0.000000 -1.000000
outer loop
vertex 0.001681 0.005565 0.000000
vertex 0.001822 0.005578 0.000000
vertex 0.002103 0.005591 0.000000
endloop
endfacet
facet normal 0.000000 0.000000 -1.000000
outer loop
vertex 0.002103 0.005591 0.000000
vertex 0.002359 0.005578 0.000000
vertex 0.002561 0.005545 0.000000
endloop
endfacet
facet normal 0.000000 0.000000 -1.000000
outer loop
vertex 0.002561 0.005545 0.000000
vertex 0.002718 0.005501 0.000000
vertex 0.002786 0.005475 0.000000
endloop
endfacet
facet normal 0.000000 0.000000 -1.000000
outer loop
vertex 0.002786 0.005475 0.000000
vertex 0.002850 0.005445 0.000000
vertex 0.002913 0.005412 0.000000
endloop
endfacet
facet normal 0.000000 0.000000 -1.000000
outer loop
vertex 0.002913 0.005412 0.000000
vertex 0.002978 0.005375 0.000000
vertex 0.003395 0.005123 0.000000
endloop
endfacet
facet normal 0.000000 0.000000 -1.000000
outer loop
vertex 0.003395 0.005123 0.000000
vertex 0.003465 0.005072 0.000000
vertex 0.003517 0.005024 0.000000
endloop
endfacet
facet normal 0.000000 0.000000 -1.000000
outer loop
vertex 0.003517 0.005024 0.000000
vertex 0.003553 0.004978 0.000000
vertex 0.003577 0.004930 0.000000
endloop
endfacet
facet normal 0.000000 0.000000 -1.000000
outer loop
vertex 0.003577 0.004930 0.000000
vertex 0.003592 0.004880 0.000000
vertex 0.003601 0.004826 0.000000
endloop
endfacet
facet normal 0.000000 0.000000 -1.000000
outer loop
vertex 0.003577 0.004930 0.000000
vertex 0.003601 0.004826 0.000000
vertex 0.003615 0.004697 0.000000
endloop
endfacet
facet normal 0.000000 0.000000 -1.000000
outer loop
vertex 0.003395 0.005123 0.000000
vertex 0.003517 0.005024 0.000000
vertex 0.003577 0.004930 0.000000
endloop
endfacet
facet normal 0.000000 0.000000 -1.000000
outer loop
vertex 0.002786 0.005475 0.000000
vertex 0.002913 0.005412 0.000000
vertex 0.003395 0.005123 0.000000
endloop
endfacet
facet normal 0.000000 0.000000 -1.000000
outer loop
vertex 0.002103 0.005591 0.000000
vertex 0.002561 0.005545 0.000000
vertex 0.002786 0.005475 0.000000
endloop
endfacet
facet normal 0.000000 0.000000 -1.000000
outer loop
vertex 0.001311 0.005517 0.000000
vertex 0.001681 0.005565 0.000000
vertex 0.002103 0.005591 0.000000
endloop
endfacet
facet normal 0.000000 0.000000 -1.000000
outer loop
vertex 0.000943 0.005348 0.000000
vertex 0.001084 0.005478 0.000000
vertex 0.001311 0.005517 0.000000
endloop
endfacet
facet normal 0.000000 0.000000 -1.000000
outer loop
vertex 0.000598 0.004984 0.000000
vertex 0.000736 0.005139 0.000000
vertex 0.000943 0.005348 0.000000
endloop
endfacet
facet normal 0.000000 0.000000 -1.000000
outer loop
vertex 0.000363 0.004533 0.000000
vertex 0.000460 0.004777 0.000000
vertex 0.000598 0.004984 0.000000
endloop
endfacet
facet normal 0.000000 0.000000 -1.000000
outer loop
vertex 0.000135 0.003664 0.000000
vertex 0.000166 0.003819 0.000000
vertex 0.000263 0.004146 0.000000
endloop
endfacet
facet normal 0.000000 0.000000 -1.000000
outer loop
vertex 0.000263 0.004146 0.000000
vertex 0.000363 0.004533 0.000000
vertex 0.000598 0.004984 0.000000
endloop
endfacet
facet normal 0.000000 0.000000 -1.000000
outer loop
vertex 0.000598 0.004984 0.000000
vertex 0.000943 0.005348 0.000000
vertex 0.001311 0.005517 0.000000
endloop
endfacet
facet normal 0.000000 0.000000 -1.000000
outer loop
vertex 0.001311 0.005517 0.000000
vertex 0.002103 0.005591 0.000000
vertex 0.002786 0.005475 0.000000
endloop
endfacet
facet normal 0.000000 0.000000 -1.000000
outer loop
vertex 0.002786 0.005475 0.000000
vertex 0.003395 0.005123 0.000000
vertex 0.003577 0.004930 0.000000
endloop
endfacet
facet normal 0.000000 0.000000 -1.000000
outer loop
vertex 0.003577 0.004930 0.000000
vertex 0.003615 0.004697 0.000000
vertex 0.003626 0.004619 0.000000
endloop
endfacet
facet normal 0.000000 0.000000 -1.000000
outer loop
vertex 0.003644 0.004528 0.000000
vertex 0.003724 0.004226 0.000000
vertex 0.003741 0.004142 0.000000
endloop
endfacet
facet normal 0.000000 0.000000 -1.000000
outer loop
vertex 0.002786 0.005475 0.000000
vertex 0.003577 0.004930 0.000000
vertex 0.003626 0.004619 0.000000
endloop
endfacet
facet normal 0.000000 0.000000 -1.000000
outer loop
vertex 0.003644 0.004528 0.000000
vertex 0.003741 0.004142 0.000000
vertex 0.003753 0.004064 0.000000
endloop
endfacet
facet normal 0.000000 0.000000 -1.000000
outer loop
vertex 0.002786 0.005475 0.000000
vertex 0.003626 0.004619 0.000000
vertex 0.003644 0.004528 0.000000
endloop
endfacet
facet normal 0.000000 0.000000 -1.000000
outer loop
vertex 0.000598 0.004984 0.000000
vertex 0.001311 0.005517 0.000000
vertex 0.002786 0.005475 0.000000
endloop
endfacet
facet normal 0.000000 0.000000 -1.000000
outer loop
vertex 0.000135 0.003664 0.000000
vertex 0.000263 0.004146 0.000000
vertex 0.000598 0.004984 0.000000
endloop
endfacet
facet normal 0.000000 0.000000 -1.000000
outer loop
vertex 0.000145 0.001675 0.000000
vertex 0.000074 0.002944 0.000000
vertex 0.000135 0.003664 0.000000
endloop
endfacet
facet normal 0.000000 0.000000 -1.000000
outer loop
vertex 0.002723 0.000019 0.000000
vertex 0.001238 0.000420 0.000000
vertex 0.000145 0.001675 0.000000
endloop
endfacet
facet normal 0.000000 0.000000 -1.000000
outer loop
vertex 0.003608 0.000610 0.000000
vertex 0.003351 0.000204 0.000000
vertex 0.002723 0.000019 0.000000
endloop
endfacet
facet normal 0.000000 0.000000 -1.000000
outer loop
vertex 0.003657 0.001462 0.000000
vertex 0.003655 0.001378 0.000000
vertex 0.003608 0.000610 0.000000
endloop
endfacet
facet normal 0.000000 0.000000 -1.000000
outer loop
vertex 0.003664 0.001639 0.000000
vertex 0.003657 0.001462 0.000000
vertex 0.003608 0.000610 0.000000
endloop
endfacet
facet normal 0.000000 0.000000 -1.000000
outer loop
vertex 0.003608 0.000610 0.000000
vertex 0.002723 0.000019 0.000000
vertex 0.000145 0.001675 0.000000
endloop
endfacet
facet normal 0.000000 0.000000 -1.000000
outer loop
vertex 0.000145 0.001675 0.000000
vertex 0.000135 0.003664 0.000000
vertex 0.000598 0.004984 0.000000
endloop
endfacet
facet normal 0.000000 0.000000 -1.000000
outer loop
vertex 0.000598 0.004984 0.000000
vertex 0.002786 0.005475 0.000000
vertex 0.003644 0.004528 0.000000
endloop
endfacet
facet normal 0.000000 0.000000 -1.000000
outer loop
vertex 0.003644 0.004528 0.000000
vertex 0.003753 0.004064 0.000000
vertex 0.003761 0.003990 0.000000
endloop
endfacet
facet normal 0.000000 0.000000 -1.000000
outer loop
vertex 0.003761 0.003990 0.000000
vertex 0.003766 0.003918 0.000000
vertex 0.003769 0.003846 0.000000
endloop
endfacet
facet normal 0.000000 0.000000 -1.000000
outer loop
vertex 0.003761 0.003990 0.000000
vertex 0.003769 0.003846 0.000000
vertex 0.003775 0.003601 0.000000
endloop
endfacet
facet normal 0.000000 0.000000 -1.000000
outer loop
vertex 0.000598 0.004984 0.000000
vertex 0.003644 0.004528 0.000000
vertex 0.003761 0.003990 0.000000
endloop
endfacet
facet normal 0.000000 0.000000 -1.000000
outer loop
vertex 0.003608 0.000610 0.000000
vertex 0.000145 0.001675 0.000000
vertex 0.000598 0.004984 0.000000
endloop
endfacet
facet normal 0.000000 0.000000 -1.000000
outer loop
vertex 0.003664 0.001639 0.000000
vertex 0.003608 0.000610 0.000000
vertex 0.000598 0.004984 0.000000
endloop
endfacet
facet normal 0.000000 0.000000 -1.000000
outer loop
vertex 0.000598 0.004984 0.000000
vertex 0.003761 0.003990 0.000000
vertex 0.003775 0.003601 0.000000
endloop
endfacet
facet normal 0.000000 0.000000 -1.000000
outer loop
vertex 0.003780 0.003503 0.000000
vertex 0.003788 0.003392 0.000000
vertex 0.003795 0.003278 0.000000
endloop
endfacet
facet normal 0.000000 0.000000 -1.000000
outer loop
vertex 0.000598 0.004984 0.000000
vertex 0.003775 0.003601 0.000000
vertex 0.003780 0.003503 0.000000
endloop
endfacet
facet normal 0.000000 0.000000 -1.000000
outer loop
vertex 0.003691 0.002095 0.000000
vertex 0.003664 0.001639 0.000000
vertex 0.000598 0.004984 0.000000
endloop
endfacet
facet normal 0.000000 0.000000 -1.000000
outer loop
vertex 0.003702 0.002230 0.000000
vertex 0.003691 0.002095 0.000000
vertex 0.000598 0.004984 0.000000
endloop
endfacet
facet normal 0.000000 0.000000 -1.000000
outer loop
vertex 0.000598 0.004984 0.000000
vertex 0.003780 0.003503 0.000000
vertex 0.003795 0.003278 0.000000
endloop
endfacet
facet normal 0.000000 0.000000 -1.000000
outer loop
vertex 0.003795 0.003278 0.000000
vertex 0.003797 0.003171 0.000000
vertex 0.003794 0.003069 0.000000
endloop
endfacet
facet normal 0.000000 0.000000 -1.000000
outer loop
vertex 0.003794 0.003069 0.000000
vertex 0.003788 0.002971 0.000000
vertex 0.003779 0.002874 0.000000
endloop
endfacet
facet normal 0.000000 0.000000 -1.000000
outer loop
vertex 0.003714 0.002353 0.000000
vertex 0.003702 0.002230 0.000000
vertex 0.000598 0.004984 0.000000
endloop
endfacet
facet normal 0.000000 0.000000 -1.000000
outer loop
vertex 0.003794 0.003069 0.000000
vertex 0.003779 0.002874 0.000000
vertex 0.003714 0.002353 0.000000
endloop
endfacet
facet normal 0.000000 0.000000 -1.000000
outer loop
vertex 0.000598 0.004984 0.000000
vertex 0.003795 0.003278 0.000000
vertex 0.003794 0.003069 0.000000
endloop
endfacet
facet normal 0.000000 0.000000 -1.000000
outer loop
vertex 0.000598 0.004984 0.000000
vertex 0.003794 0.003069 0.000000
vertex 0.003714 0.002353 0.000000
endloop
endfacet
facet normal -0.759619 0.650368 0.000000
outer loop
vertex 0.000665 0.005062 0.000000
vertex 0.000598 0.004984 0.000000
vertex 0.000598 0.004984 0.150000
endloop
endfacet
facet normal -0.759618 0.650370 0.000000
outer loop
vertex 0.000665 0.005062 0.000000
vertex 0.000598 0.004984 0.150000
vertex 0.000665 0.005062 0.150000
endloop
endfacet
facet normal -0.737774 0.675048 0.000000
outer loop
vertex 0.000736 0.005139 0.000000
vertex 0.000665 0.005062 0.000000
vertex 0.000665 0.005062 0.150000
endloop
endfacet
facet normal -0.737775 0.675047 0.000000
outer loop
vertex 0.000736 0.005139 0.000000
vertex 0.000665 0.005062 0.150000
vertex 0.000736 0.005139 0.150000
endloop
endfacet
facet normal -0.720917 0.693022 0.000000
outer loop
vertex 0.000808 0.005215 0.000000
vertex 0.000736 0.005139 0.000000
vertex 0.000736 0.005139 0.150000
endloop
endfacet
facet normal -0.720916 0.693022 0.000000
outer loop
vertex 0.000808 0.005215 0.000000
vertex 0.000736 0.005139 0.150000
vertex 0.000808 0.005215 0.150000
endloop
endfacet
facet normal -0.702409 0.711774 0.000000
outer loop
vertex 0.000943 0.005348 0.000000
vertex 0.000808 0.005215 0.000000
vertex 0.000808 0.005215 0.150000
endloop
endfacet
facet normal -0.702409 0.711773 0.000000
outer loop
vertex 0.000943 0.005348 0.000000
vertex 0.000808 0.005215 0.150000
vertex 0.000943 0.005348 0.150000
endloop
endfacet
facet normal -0.672664 0.739948 0.000000
outer loop
vertex 0.001084 0.005478 0.150000
vertex 0.001084 0.005478 0.000000
vertex 0.001044 0.005442 0.000000
endloop
endfacet
facet normal -0.684498 0.729015 0.000000
outer loop
vertex 0.001044 0.005442 0.000000
vertex 0.000943 0.005348 0.000000
vertex 0.000943 0.005348 0.150000
endloop
endfacet
facet normal -0.672665 0.739947 0.000000
outer loop
vertex 0.001044 0.005442 0.150000
vertex 0.001084 0.005478 0.150000
vertex 0.001044 0.005442 0.000000
endloop
endfacet
facet normal -0.684498 0.729015 0.000000
outer loop
vertex 0.000943 0.005348 0.150000
vertex 0.001044 0.005442 0.150000
vertex 0.001044 0.005442 0.000000
endloop
endfacet
facet normal 0.000000 0.000000 1.000000
outer loop
vertex 0.003451 0.000317 0.150000
vertex 0.003540 0.000450 0.150000
vertex 0.003577 0.000526 0.150000
endloop
endfacet
facet normal 0.000000 0.000000 1.000000
outer loop
vertex 0.003577 0.000526 0.150000
vertex 0.003608 0.000610 0.150000
vertex 0.003632 0.000701 0.150000
endloop
endfacet
facet normal 0.003288 0.000000 0.999995
outer loop
vertex 0.003632 0.000701 0.150000
vertex 0.003647 0.000800 0.150000
vertex 0.003652 0.000909 0.150000
endloop
endfacet
facet normal 0.000000 0.000000 1.000000
outer loop
vertex 0.003632 0.000701 0.150000
vertex 0.003652 0.000909 0.150000
vertex 0.003655 0.001378 0.150000
endloop
endfacet
facet normal 0.000000 0.000000 1.000000
outer loop
vertex 0.003451 0.000317 0.150000
vertex 0.003577 0.000526 0.150000
vertex 0.003632 0.000701 0.150000
endloop
endfacet
facet normal 0.001266 0.000000 0.999999
outer loop
vertex 0.003198 0.000062 0.150000
vertex 0.003351 0.000204 0.150000
vertex 0.003451 0.000317 0.150000
endloop
endfacet
facet normal 0.000000 0.000000 1.000000
outer loop
vertex 0.003055 0.000006 0.150000
vertex 0.003137 0.000026 0.150000
vertex 0.003198 0.000062 0.150000
endloop
endfacet
facet normal 0.000000 0.000000 1.000000
outer loop
vertex 0.002844 0.000005 0.150000
vertex 0.002957 0.000000 0.150000
vertex 0.003055 0.000006 0.150000
endloop
endfacet
facet normal 0.000611 0.000000 1.000000
outer loop
vertex 0.002597 0.000039 0.150000
vertex 0.002723 0.000019 0.150000
vertex 0.002844 0.000005 0.150000
endloop
endfacet
facet normal 0.000000 0.000000 1.000000
outer loop
vertex 0.001741 0.000232 0.150000
vertex 0.001827 0.000208 0.150000
vertex 0.002597 0.000039 0.150000
endloop
endfacet
facet normal 0.003063 0.000000 0.999995
outer loop
vertex 0.001547 0.000294 0.150000
vertex 0.001647 0.000260 0.150000
vertex 0.001741 0.000232 0.150000
endloop
endfacet
facet normal 0.000000 0.000000 1.000000
outer loop
vertex 0.001341 0.000374 0.150000
vertex 0.001445 0.000332 0.150000
vertex 0.001547 0.000294 0.150000
endloop
endfacet
facet normal -0.001712 0.000000 0.999999
outer loop
vertex 0.001139 0.000470 0.150000
vertex 0.001238 0.000420 0.150000
vertex 0.001341 0.000374 0.150000
endloop
endfacet
facet normal 0.000000 0.000000 1.000000
outer loop
vertex 0.000881 0.000640 0.150000
vertex 0.000958 0.000580 0.150000
vertex 0.001139 0.000470 0.150000
endloop
endfacet
facet normal 0.000000 0.000000 1.000000
outer loop
vertex 0.000504 0.001032 0.150000
vertex 0.000621 0.000888 0.150000
vertex 0.000881 0.000640 0.150000
endloop
endfacet
facet normal 0.000000 0.000000 1.000000
outer loop
vertex 0.000270 0.001414 0.150000
vertex 0.000388 0.001204 0.150000
vertex 0.000504 0.001032 0.150000
endloop
endfacet
facet normal 0.003337 0.000000 0.999994
outer loop
vertex 0.000089 0.001811 0.150000
vertex 0.000145 0.001675 0.150000
vertex 0.000270 0.001414 0.150000
endloop
endfacet
facet normal 0.000000 0.000000 1.000000
outer loop
vertex 0.000005 0.002138 0.150000
vertex 0.000021 0.002038 0.150000
vertex 0.000089 0.001811 0.150000
endloop
endfacet
facet normal 0.000000 0.000000 1.000000
outer loop
vertex 0.000003 0.002330 0.150000
vertex 0.000000 0.002234 0.150000
vertex 0.000005 0.002138 0.150000
endloop
endfacet
facet normal 0.001247 0.000000 0.999999
outer loop
vertex 0.000074 0.002944 0.150000
vertex 0.000012 0.002429 0.150000
vertex 0.000003 0.002330 0.150000
endloop
endfacet
facet normal 0.000000 0.000000 1.000000
outer loop
vertex 0.000122 0.003563 0.150000
vertex 0.000109 0.003442 0.150000
vertex 0.000074 0.002944 0.150000
endloop
endfacet
facet normal 0.000000 0.000000 1.000000
outer loop
vertex 0.000150 0.003748 0.150000
vertex 0.000135 0.003664 0.150000
vertex 0.000122 0.003563 0.150000
endloop
endfacet
facet normal -0.008837 0.000000 0.999961
outer loop
vertex 0.000183 0.003883 0.150000
vertex 0.000166 0.003819 0.150000
vertex 0.000150 0.003748 0.150000
endloop
endfacet
facet normal 0.000000 0.000000 1.000000
outer loop
vertex 0.000363 0.004533 0.150000
vertex 0.000353 0.004496 0.150000
vertex 0.000263 0.004146 0.150000
endloop
endfacet
facet normal 0.000000 0.000000 1.000000
outer loop
vertex 0.000263 0.004146 0.150000
vertex 0.000183 0.003883 0.150000
vertex 0.000150 0.003748 0.150000
endloop
endfacet
facet normal 0.000000 0.000000 1.000000
outer loop
vertex 0.000150 0.003748 0.150000
vertex 0.000122 0.003563 0.150000
vertex 0.000074 0.002944 0.150000
endloop
endfacet
facet normal -0.000241 0.000000 1.000000
outer loop
vertex 0.000074 0.002944 0.150000
vertex 0.000003 0.002330 0.150000
vertex 0.000005 0.002138 0.150000
endloop
endfacet
facet normal 0.000276 0.000000 1.000000
outer loop
vertex 0.000005 0.002138 0.150000
vertex 0.000089 0.001811 0.150000
vertex 0.000270 0.001414 0.150000
endloop
endfacet
facet normal -0.000137 0.000000 1.000000
outer loop
vertex 0.000270 0.001414 0.150000
vertex 0.000504 0.001032 0.150000
vertex 0.000881 0.000640 0.150000
endloop
endfacet
facet normal -0.000383 0.000000 1.000000
outer loop
vertex 0.000881 0.000640 0.150000
vertex 0.001139 0.000470 0.150000
vertex 0.001341 0.000374 0.150000
endloop
endfacet
facet normal 0.000000 0.000000 1.000000
outer loop
vertex 0.001341 0.000374 0.150000
vertex 0.001547 0.000294 0.150000
vertex 0.001741 0.000232 0.150000
endloop
endfacet
facet normal 0.000000 0.000000 1.000000
outer loop
vertex 0.001741 0.000232 0.150000
vertex 0.002597 0.000039 0.150000
vertex 0.002844 0.000005 0.150000
endloop
endfacet
facet normal 0.000000 0.000000 1.000000
outer loop
vertex 0.002844 0.000005 0.150000
vertex 0.003055 0.000006 0.150000
vertex 0.003198 0.000062 0.150000
endloop
endfacet
facet normal 0.000000 0.000000 1.000000
outer loop
vertex 0.003198 0.000062 0.150000
vertex 0.003451 0.000317 0.150000
vertex 0.003632 0.000701 0.150000
endloop
endfacet
facet normal 0.003315 0.000000 0.999995
outer loop
vertex 0.003632 0.000701 0.150000
vertex 0.003655 0.001378 0.150000
vertex 0.003657 0.001462 0.150000
endloop
endfacet
facet normal -0.000092 0.000000 1.000000
outer loop
vertex 0.003198 0.000062 0.150000
vertex 0.003632 0.000701 0.150000
vertex 0.003657 0.001462 0.150000
endloop
endfacet
facet normal 0.000000 0.000000 1.000000
outer loop
vertex 0.001741 0.000232 0.150000
vertex 0.002844 0.000005 0.150000
vertex 0.003198 0.000062 0.150000
endloop
endfacet
facet normal 0.000089 0.000000 1.000000
outer loop
vertex 0.000881 0.000640 0.150000
vertex 0.001341 0.000374 0.150000
vertex 0.001741 0.000232 0.150000
endloop
endfacet
facet normal 0.000123 0.000000 1.000000
outer loop
vertex 0.000005 0.002138 0.150000
vertex 0.000270 0.001414 0.150000
vertex 0.000881 0.000640 0.150000
endloop
endfacet
facet normal 0.002542 0.000000 0.999997
outer loop
vertex 0.000150 0.003748 0.150000
vertex 0.000074 0.002944 0.150000
vertex 0.000005 0.002138 0.150000
endloop
endfacet
facet normal 0.000000 0.000000 1.000000
outer loop
vertex 0.000373 0.004564 0.150000
vertex 0.000363 0.004533 0.150000
vertex 0.000263 0.004146 0.150000
endloop
endfacet
facet normal -0.000235 0.000000 1.000000
outer loop
vertex 0.000263 0.004146 0.150000
vertex 0.000150 0.003748 0.150000
vertex 0.000005 0.002138 0.150000
endloop
endfacet
facet normal -0.000047 0.000000 1.000000
outer loop
vertex 0.000005 0.002138 0.150000
vertex 0.000881 0.000640 0.150000
vertex 0.001741 0.000232 0.150000
endloop
endfacet
facet normal 0.000014 0.000000 1.000000
outer loop
vertex 0.001741 0.000232 0.150000
vertex 0.003198 0.000062 0.150000
vertex 0.003657 0.001462 0.150000
endloop
endfacet
facet normal 0.000033 0.000000 1.000000
outer loop
vertex 0.001741 0.000232 0.150000
vertex 0.003657 0.001462 0.150000
vertex 0.003664 0.001639 0.150000
endloop
endfacet
facet normal 0.000015 0.000000 1.000000
outer loop
vertex 0.000263 0.004146 0.150000
vertex 0.000005 0.002138 0.150000
vertex 0.001741 0.000232 0.150000
endloop
endfacet
facet normal 0.000000 0.000000 1.000000
outer loop
vertex 0.000460 0.004777 0.150000
vertex 0.000373 0.004564 0.150000
vertex 0.000263 0.004146 0.150000
endloop
endfacet
facet normal 0.000966 0.000000 1.000000
outer loop
vertex 0.000598 0.004984 0.150000
vertex 0.000493 0.004839 0.150000
vertex 0.000460 0.004777 0.150000
endloop
endfacet
facet normal -0.005143 0.000000 0.999987
outer loop
vertex 0.000736 0.005139 0.150000
vertex 0.000665 0.005062 0.150000
vertex 0.000598 0.004984 0.150000
endloop
endfacet
facet normal -0.003483 0.000000 0.999994
outer loop
vertex 0.000943 0.005348 0.150000
vertex 0.000808 0.005215 0.150000
vertex 0.000736 0.005139 0.150000
endloop
endfacet
facet normal 0.000000 0.000000 1.000000
outer loop
vertex 0.001084 0.005478 0.150000
vertex 0.001044 0.005442 0.150000
vertex 0.000943 0.005348 0.150000
endloop
endfacet
facet normal 0.001223 0.000000 0.999999
outer loop
vertex 0.001311 0.005517 0.150000
vertex 0.001146 0.005490 0.150000
vertex 0.001084 0.005478 0.150000
endloop
endfacet
facet normal 0.000000 0.000000 1.000000
outer loop
vertex 0.001681 0.005565 0.150000
vertex 0.001547 0.005550 0.150000
vertex 0.001311 0.005517 0.150000
endloop
endfacet
facet normal 0.000000 0.000000 1.000000
outer loop
vertex 0.002103 0.005591 0.150000
vertex 0.001822 0.005578 0.150000
vertex 0.001681 0.005565 0.150000
endloop
endfacet
facet normal -0.000077 0.000000 1.000000
outer loop
vertex 0.002561 0.005545 0.150000
vertex 0.002359 0.005578 0.150000
vertex 0.002103 0.005591 0.150000
endloop
endfacet
facet normal 0.000000 0.000000 1.000000
outer loop
vertex 0.002786 0.005475 0.150000
vertex 0.002718 0.005501 0.150000
vertex 0.002561 0.005545 0.150000
endloop
endfacet
facet normal -0.003371 0.000000 0.999994
outer loop
vertex 0.002913 0.005412 0.150000
vertex 0.002850 0.005445 0.150000
vertex 0.002786 0.005475 0.150000
endloop
endfacet
facet normal -0.002692 0.000000 0.999996
outer loop
vertex 0.003395 0.005123 0.150000
vertex 0.002978 0.005375 0.150000
vertex 0.002913 0.005412 0.150000
endloop
endfacet
facet normal 0.000000 0.000000 1.000000
outer loop
vertex 0.003517 0.005024 0.150000
vertex 0.003465 0.005072 0.150000
vertex 0.003395 0.005123 0.150000
endloop
endfacet
facet normal 0.001541 0.000000 0.999999
outer loop
vertex 0.003577 0.004930 0.150000
vertex 0.003553 0.004978 0.150000
vertex 0.003517 0.005024 0.150000
endloop
endfacet
facet normal 0.005128 0.000000 0.999987
outer loop
vertex 0.003601 0.004826 0.150000
vertex 0.003592 0.004880 0.150000
vertex 0.003577 0.004930 0.150000
endloop
endfacet
facet normal 0.000000 0.000000 1.000000
outer loop
vertex 0.003615 0.004697 0.150000
vertex 0.003601 0.004826 0.150000
vertex 0.003577 0.004930 0.150000
endloop
endfacet
facet normal -0.000333 0.000000 1.000000
outer loop
vertex 0.003577 0.004930 0.150000
vertex 0.003517 0.005024 0.150000
vertex 0.003395 0.005123 0.150000
endloop
endfacet
facet normal 0.000000 0.000000 1.000000
outer loop
vertex 0.003395 0.005123 0.150000
vertex 0.002913 0.005412 0.150000
vertex 0.002786 0.005475 0.150000
endloop
endfacet
facet normal 0.000042 0.000000 1.000000
outer loop
vertex 0.002786 0.005475 0.150000
vertex 0.002561 0.005545 0.150000
vertex 0.002103 0.005591 0.150000
endloop
endfacet
facet normal 0.000000 0.000000 1.000000
outer loop
vertex 0.002103 0.005591 0.150000
vertex 0.001681 0.005565 0.150000
vertex 0.001311 0.005517 0.150000
endloop
endfacet
facet normal 0.000000 0.000000 1.000000
outer loop
vertex 0.001311 0.005517 0.150000
vertex 0.001084 0.005478 0.150000
vertex 0.000943 0.005348 0.150000
endloop
endfacet
facet normal 0.001031 0.000000 1.000000
outer loop
vertex 0.000943 0.005348 0.150000
vertex 0.000736 0.005139 0.150000
vertex 0.000598 0.004984 0.150000
endloop
endfacet
facet normal 0.000000 0.000000 1.000000
outer loop
vertex 0.000598 0.004984 0.150000
vertex 0.000460 0.004777 0.150000
vertex 0.000263 0.004146 0.150000
endloop
endfacet
facet normal -0.000003 0.000000 1.000000
outer loop
vertex 0.000263 0.004146 0.150000
vertex 0.001741 0.000232 0.150000
vertex 0.003664 0.001639 0.150000
endloop
endfacet
facet normal -0.000009 0.000000 1.000000
outer loop
vertex 0.000263 0.004146 0.150000
vertex 0.003664 0.001639 0.150000
vertex 0.003691 0.002095 0.150000
endloop
endfacet
facet normal 0.000000 0.000000 1.000000
outer loop
vertex 0.000943 0.005348 0.150000
vertex 0.000598 0.004984 0.150000
vertex 0.000263 0.004146 0.150000
endloop
endfacet
facet normal 0.000000 0.000000 1.000000
outer loop
vertex 0.002103 0.005591 0.150000
vertex 0.001311 0.005517 0.150000
vertex 0.000943 0.005348 0.150000
endloop
endfacet
facet normal -0.000021 0.000000 1.000000
outer loop
vertex 0.003395 0.005123 0.150000
vertex 0.002786 0.005475 0.150000
vertex 0.002103 0.005591 0.150000
endloop
endfacet
facet normal -0.000104 0.000000 1.000000
outer loop
vertex 0.003615 0.004697 0.150000
vertex 0.003577 0.004930 0.150000
vertex 0.003395 0.005123 0.150000
endloop
endfacet
facet normal 0.001156 0.000000 0.999999
outer loop
vertex 0.003626 0.004619 0.150000
vertex 0.003615 0.004697 0.150000
vertex 0.003395 0.005123 0.150000
endloop
endfacet
facet normal 0.000000 0.000000 1.000000
outer loop
vertex 0.003395 0.005123 0.150000
vertex 0.002103 0.005591 0.150000
vertex 0.000943 0.005348 0.150000
endloop
endfacet
facet normal 0.000000 0.000000 1.000000
outer loop
vertex 0.000943 0.005348 0.150000
vertex 0.000263 0.004146 0.150000
vertex 0.003691 0.002095 0.150000
endloop
endfacet
facet normal 0.000054 0.000000 1.000000
outer loop
vertex 0.000943 0.005348 0.150000
vertex 0.003691 0.002095 0.150000
vertex 0.003702 0.002230 0.150000
endloop
endfacet
facet normal 0.000000 0.000000 1.000000
outer loop
vertex 0.003626 0.004619 0.150000
vertex 0.003395 0.005123 0.150000
vertex 0.000943 0.005348 0.150000
endloop
endfacet
facet normal 0.000000 0.000000 1.000000
outer loop
vertex 0.003741 0.004142 0.150000
vertex 0.003724 0.004226 0.150000
vertex 0.003644 0.004528 0.150000
endloop
endfacet
facet normal -0.000064 0.000000 1.000000
outer loop
vertex 0.003644 0.004528 0.150000
vertex 0.003626 0.004619 0.150000
vertex 0.000943 0.005348 0.150000
endloop
endfacet
facet normal -0.000096 0.000000 1.000000
outer loop
vertex 0.000943 0.005348 0.150000
vertex 0.003702 0.002230 0.150000
vertex 0.003714 0.002353 0.150000
endloop
endfacet
facet normal -0.002154 0.000000 0.999998
outer loop
vertex 0.003714 0.002353 0.150000
vertex 0.003779 0.002874 0.150000
vertex 0.003788 0.002971 0.150000
endloop
endfacet
facet normal 0.000000 0.000000 1.000000
outer loop
vertex 0.003788 0.002971 0.150000
vertex 0.003794 0.003069 0.150000
vertex 0.003797 0.003171 0.150000
endloop
endfacet
facet normal 0.007020 0.000000 0.999975
outer loop
vertex 0.003797 0.003171 0.150000
vertex 0.003795 0.003278 0.150000
vertex 0.003788 0.003392 0.150000
endloop
endfacet
facet normal 0.000000 0.000000 1.000000
outer loop
vertex 0.003797 0.003171 0.150000
vertex 0.003788 0.003392 0.150000
vertex 0.003780 0.003503 0.150000
endloop
endfacet
facet normal 0.001862 0.000000 0.999998
outer loop
vertex 0.003714 0.002353 0.150000
vertex 0.003788 0.002971 0.150000
vertex 0.003797 0.003171 0.150000
endloop
endfacet
facet normal 0.000000 0.000000 1.000000
outer loop
vertex 0.003644 0.004528 0.150000
vertex 0.000943 0.005348 0.150000
vertex 0.003714 0.002353 0.150000
endloop
endfacet
facet normal 0.002404 0.000000 0.999997
outer loop
vertex 0.003753 0.004064 0.150000
vertex 0.003741 0.004142 0.150000
vertex 0.003644 0.004528 0.150000
endloop
endfacet
facet normal 0.008713 0.000000 0.999962
outer loop
vertex 0.003766 0.003918 0.150000
vertex 0.003761 0.003990 0.150000
vertex 0.003753 0.004064 0.150000
endloop
endfacet
facet normal 0.000000 0.000000 1.000000
outer loop
vertex 0.003775 0.003601 0.150000
vertex 0.003769 0.003846 0.150000
vertex 0.003766 0.003918 0.150000
endloop
endfacet
facet normal -0.000709 0.000000 1.000000
outer loop
vertex 0.003714 0.002353 0.150000
vertex 0.003797 0.003171 0.150000
vertex 0.003780 0.003503 0.150000
endloop
endfacet
facet normal 0.001361 0.000000 0.999999
outer loop
vertex 0.003775 0.003601 0.150000
vertex 0.003766 0.003918 0.150000
vertex 0.003753 0.004064 0.150000
endloop
endfacet
facet normal 0.001821 0.000000 0.999998
outer loop
vertex 0.003714 0.002353 0.150000
vertex 0.003780 0.003503 0.150000
vertex 0.003775 0.003601 0.150000
endloop
endfacet
facet normal 0.000000 0.000000 1.000000
outer loop
vertex 0.003753 0.004064 0.150000
vertex 0.003644 0.004528 0.150000
vertex 0.003714 0.002353 0.150000
endloop
endfacet
facet normal 0.000000 0.000000 1.000000
outer loop
vertex 0.003714 0.002353 0.150000
vertex 0.003775 0.003601 0.150000
vertex 0.003753 0.004064 0.150000
endloop
endfacet
facet normal 0.000000 0.000000 -1.000000
outer loop
vertex 0.003724 0.004226 0.000000
vertex 0.003644 0.004528 0.000000
vertex 0.003626 0.004619 0.000000
endloop
endfacet
facet normal 0.981149 0.193254 0.000000
outer loop
vertex 0.003626 0.004619 0.000000
vertex 0.003626 0.004619 0.150000
vertex 0.003644 0.004528 0.150000
endloop
endfacet
facet normal 0.980589 0.196075 0.000000
outer loop
vertex 0.003724 0.004226 0.150000
vertex 0.003741 0.004142 0.150000
vertex 0.003741 0.004142 0.000000
endloop
endfacet
facet normal 0.966082 0.258236 0.000041
outer loop
vertex 0.003626 0.004619 0.000000
vertex 0.003644 0.004528 0.150000
vertex 0.003724 0.004226 0.150000
endloop
endfacet
facet normal 0.980591 0.196066 0.000000
outer loop
vertex 0.003724 0.004226 0.150000
vertex 0.003741 0.004142 0.000000
vertex 0.003724 0.004226 0.000000
endloop
endfacet
facet normal 0.969884 0.243566 0.000000
outer loop
vertex 0.003626 0.004619 0.000000
vertex 0.003724 0.004226 0.150000
vertex 0.003724 0.004226 0.000000
endloop
endfacet
facet normal 0.064482 -0.997919 0.000000
outer loop
vertex 0.002957 0.000000 0.150000
vertex 0.002957 0.000000 0.000000
vertex 0.003055 0.000006 0.000000
endloop
endfacet
facet normal 0.064483 -0.997919 0.000000
outer loop
vertex 0.002957 0.000000 0.150000
vertex 0.003055 0.000006 0.000000
vertex 0.003055 0.000006 0.150000
endloop
endfacet
facet normal 0.589701 0.807622 0.000000
outer loop
vertex 0.003465 0.005072 0.150000
vertex 0.003465 0.005072 0.000000
vertex 0.003395 0.005123 0.000000
endloop
endfacet
facet normal 0.589705 0.807619 0.000000
outer loop
vertex 0.003465 0.005072 0.150000
vertex 0.003395 0.005123 0.000000
vertex 0.003395 0.005123 0.150000
endloop
endfacet
facet normal 0.000000 0.000000 1.000000
outer loop
vertex 0.000166 0.003819 0.000000
vertex 0.000150 0.003748 0.000000
vertex 0.000135 0.003664 0.000000
endloop
endfacet
facet normal -0.985184 0.171501 0.000000
outer loop
vertex 0.000135 0.003664 0.000000
vertex 0.000135 0.003664 0.150000
vertex 0.000150 0.003748 0.150000
endloop
endfacet
facet normal -0.976923 0.213594 -0.000024
outer loop
vertex 0.000135 0.003664 0.000000
vertex 0.000150 0.003748 0.150000
vertex 0.000166 0.003819 0.150000
endloop
endfacet
facet normal 0.000000 0.000000 1.000000
outer loop
vertex 0.000183 0.003883 0.000000
vertex 0.000166 0.003819 0.000000
vertex 0.000135 0.003664 0.000000
endloop
endfacet
facet normal 0.000000 0.000000 1.000000
outer loop
vertex 0.000363 0.004533 0.000000
vertex 0.000353 0.004496 0.000000
vertex 0.000263 0.004146 0.000000
endloop
endfacet
facet normal 0.000000 0.000000 1.000000
outer loop
vertex 0.000263 0.004146 0.000000
vertex 0.000183 0.003883 0.000000
vertex 0.000135 0.003664 0.000000
endloop
endfacet
facet normal -0.967012 0.254731 -0.000069
outer loop
vertex 0.000135 0.003664 0.000000
vertex 0.000166 0.003819 0.150000
vertex 0.000183 0.003883 0.150000
endloop
endfacet
facet normal -0.956547 0.291579 -0.000126
outer loop
vertex 0.000135 0.003664 0.000000
vertex 0.000183 0.003883 0.150000
vertex 0.000263 0.004146 0.150000
endloop
endfacet
facet normal 0.000000 0.000000 1.000000
outer loop
vertex 0.000373 0.004564 0.000000
vertex 0.000363 0.004533 0.000000
vertex 0.000263 0.004146 0.000000
endloop
endfacet
facet normal -0.966932 0.255035 0.000000
outer loop
vertex 0.000263 0.004146 0.000000
vertex 0.000135 0.003664 0.000000
vertex 0.000263 0.004146 0.150000
endloop
endfacet
facet normal -0.968318 0.249719 0.000000
outer loop
vertex 0.000263 0.004146 0.000000
vertex 0.000263 0.004146 0.150000
vertex 0.000353 0.004496 0.150000
endloop
endfacet
facet normal -0.966690 0.255948 0.000000
outer loop
vertex 0.000373 0.004564 0.150000
vertex 0.000373 0.004564 0.000000
vertex 0.000263 0.004146 0.000000
endloop
endfacet
facet normal -0.961197 0.275862 -0.000065
outer loop
vertex 0.000263 0.004146 0.000000
vertex 0.000353 0.004496 0.150000
vertex 0.000363 0.004533 0.150000
endloop
endfacet
facet normal -0.953623 0.301002 -0.000135
outer loop
vertex 0.000363 0.004533 0.150000
vertex 0.000373 0.004564 0.150000
vertex 0.000263 0.004146 0.000000
endloop
endfacet
facet normal 0.000000 0.000000 1.000000
outer loop
vertex 0.000074 0.002944 0.000000
vertex 0.000012 0.002429 0.000000
vertex 0.000003 0.002330 0.000000
endloop
endfacet
facet normal -0.999548 0.030080 0.000000
outer loop
vertex 0.000003 0.002330 0.000000
vertex 0.000000 0.002234 0.000000
vertex 0.000000 0.002234 0.150000
endloop
endfacet
facet normal -0.999548 0.030080 0.000000
outer loop
vertex 0.000003 0.002330 0.000000
vertex 0.000000 0.002234 0.150000
vertex 0.000003 0.002330 0.150000
endloop
endfacet
facet normal 0.000000 0.000000 1.000000
outer loop
vertex 0.000122 0.003563 0.000000
vertex 0.000109 0.003442 0.000000
vertex 0.000074 0.002944 0.000000
endloop
endfacet
facet normal -0.993342 0.115204 0.000000
outer loop
vertex 0.000074 0.002944 0.000000
vertex 0.000003 0.002330 0.000000
vertex 0.000003 0.002330 0.150000
endloop
endfacet
facet normal -0.995784 0.091730 -0.000097
outer loop
vertex 0.000074 0.002944 0.000000
vertex 0.000003 0.002330 0.150000
vertex 0.000012 0.002429 0.150000
endloop
endfacet
facet normal 0.000000 0.000000 1.000000
outer loop
vertex 0.000135 0.003664 0.000000
vertex 0.000122 0.003563 0.000000
vertex 0.000074 0.002944 0.000000
endloop
endfacet
facet normal -0.990966 0.134113 0.000000
outer loop
vertex 0.000122 0.003563 0.150000
vertex 0.000135 0.003664 0.150000
vertex 0.000135 0.003664 0.000000
endloop
endfacet
facet normal -0.994621 0.103578 -0.000021
outer loop
vertex 0.000109 0.003442 0.150000
vertex 0.000122 0.003563 0.150000
vertex 0.000135 0.003664 0.000000
endloop
endfacet
facet normal -0.996408 0.084686 -0.000122
outer loop
vertex 0.000135 0.003664 0.000000
vertex 0.000074 0.002944 0.000000
vertex 0.000012 0.002429 0.150000
endloop
endfacet
facet normal -0.997544 0.070045 -0.000071
outer loop
vertex 0.000074 0.002944 0.150000
vertex 0.000109 0.003442 0.150000
vertex 0.000135 0.003664 0.000000
endloop
endfacet
facet normal -0.992808 0.119717 0.000169
outer loop
vertex 0.000012 0.002429 0.150000
vertex 0.000074 0.002944 0.150000
vertex 0.000135 0.003664 0.000000
endloop
endfacet
facet normal 0.968219 -0.250102 0.000000
outer loop
vertex 0.003608 0.000610 0.150000
vertex 0.003608 0.000610 0.000000
vertex 0.003632 0.000701 0.000000
endloop
endfacet
facet normal 0.968219 -0.250102 0.000000
outer loop
vertex 0.003608 0.000610 0.150000
vertex 0.003632 0.000701 0.000000
vertex 0.003632 0.000701 0.150000
endloop
endfacet
facet normal -0.957914 -0.287054 0.000000
outer loop
vertex 0.000021 0.002038 0.000000
vertex 0.000089 0.001811 0.000000
vertex 0.000089 0.001811 0.150000
endloop
endfacet
facet normal -0.957914 -0.287054 0.000000
outer loop
vertex 0.000021 0.002038 0.000000
vertex 0.000089 0.001811 0.150000
vertex 0.000021 0.002038 0.150000
endloop
endfacet
facet normal 0.049899 0.998754 0.000000
outer loop
vertex 0.002359 0.005578 0.150000
vertex 0.002359 0.005578 0.000000
vertex 0.002103 0.005591 0.000000
endloop
endfacet
facet normal 0.049899 0.998754 0.000000
outer loop
vertex 0.002359 0.005578 0.150000
vertex 0.002103 0.005591 0.000000
vertex 0.002103 0.005591 0.150000
endloop
endfacet
facet normal 0.897872 -0.440257 0.000000
outer loop
vertex 0.003540 0.000450 0.150000
vertex 0.003540 0.000450 0.000000
vertex 0.003577 0.000526 0.000000
endloop
endfacet
facet normal 0.897868 -0.440264 0.000000
outer loop
vertex 0.003540 0.000450 0.150000
vertex 0.003577 0.000526 0.000000
vertex 0.003577 0.000526 0.150000
endloop
endfacet
facet normal 0.162119 0.986771 0.000000
outer loop
vertex 0.002561 0.005545 0.000000
vertex 0.002359 0.005578 0.000000
vertex 0.002359 0.005578 0.150000
endloop
endfacet
facet normal 0.162119 0.986771 0.000000
outer loop
vertex 0.002561 0.005545 0.000000
vertex 0.002359 0.005578 0.150000
vertex 0.002561 0.005545 0.150000
endloop
endfacet
facet normal 0.746294 -0.665617 0.000000
outer loop
vertex 0.003451 0.000317 0.000000
vertex 0.003451 0.000317 0.150000
vertex 0.003351 0.000204 0.150000
endloop
endfacet
facet normal 0.746296 -0.665614 0.000000
outer loop
vertex 0.003451 0.000317 0.000000
vertex 0.003351 0.000204 0.150000
vertex 0.003351 0.000204 0.000000
endloop
endfacet
facet normal -0.520402 -0.853921 0.000000
outer loop
vertex 0.000958 0.000580 0.150000
vertex 0.000958 0.000580 0.000000
vertex 0.001139 0.000470 0.000000
endloop
endfacet
facet normal -0.520402 -0.853921 0.000000
outer loop
vertex 0.000958 0.000580 0.150000
vertex 0.001139 0.000470 0.000000
vertex 0.001139 0.000470 0.150000
endloop
endfacet
facet normal -0.042583 -0.999093 0.000000
outer loop
vertex 0.002844 0.000005 0.150000
vertex 0.002844 0.000005 0.000000
vertex 0.002957 0.000000 0.000000
endloop
endfacet
facet normal -0.042583 -0.999093 0.000000
outer loop
vertex 0.002844 0.000005 0.150000
vertex 0.002957 0.000000 0.000000
vertex 0.002957 0.000000 0.150000
endloop
endfacet
facet normal -0.690531 -0.723302 0.000000
outer loop
vertex 0.000621 0.000888 0.000000
vertex 0.000881 0.000640 0.000000
vertex 0.000881 0.000640 0.150000
endloop
endfacet
facet normal -0.690532 -0.723302 0.000000
outer loop
vertex 0.000621 0.000888 0.000000
vertex 0.000881 0.000640 0.150000
vertex 0.000621 0.000888 0.150000
endloop
endfacet
facet normal -0.045481 0.998965 0.000000
outer loop
vertex 0.002103 0.005591 0.000000
vertex 0.001822 0.005578 0.000000
vertex 0.001822 0.005578 0.150000
endloop
endfacet
facet normal -0.045480 0.998965 0.000000
outer loop
vertex 0.002103 0.005591 0.000000
vertex 0.001822 0.005578 0.150000
vertex 0.002103 0.005591 0.150000
endloop
endfacet
facet normal -0.808381 0.588660 0.000000
outer loop
vertex 0.000598 0.004984 0.000000
vertex 0.000493 0.004839 0.000000
vertex 0.000493 0.004839 0.150000
endloop
endfacet
facet normal -0.808380 0.588660 0.000000
outer loop
vertex 0.000598 0.004984 0.000000
vertex 0.000493 0.004839 0.150000
vertex 0.000598 0.004984 0.150000
endloop
endfacet
facet normal 0.937193 -0.348811 0.000000
outer loop
vertex 0.003577 0.000526 0.150000
vertex 0.003577 0.000526 0.000000
vertex 0.003608 0.000610 0.000000
endloop
endfacet
facet normal 0.937193 -0.348811 0.000000
outer loop
vertex 0.003577 0.000526 0.150000
vertex 0.003608 0.000610 0.000000
vertex 0.003608 0.000610 0.150000
endloop
endfacet
facet normal -0.180493 0.983576 0.000000
outer loop
vertex 0.001146 0.005490 0.000000
vertex 0.001084 0.005478 0.000000
vertex 0.001084 0.005478 0.150000
endloop
endfacet
facet normal -0.180492 0.983576 0.000000
outer loop
vertex 0.001146 0.005490 0.000000
vertex 0.001084 0.005478 0.150000
vertex 0.001146 0.005490 0.150000
endloop
endfacet
facet normal -0.163202 0.986593 0.000000
outer loop
vertex 0.001311 0.005517 0.000000
vertex 0.001146 0.005490 0.000000
vertex 0.001146 0.005490 0.150000
endloop
endfacet
facet normal -0.163202 0.986593 0.000000
outer loop
vertex 0.001311 0.005517 0.000000
vertex 0.001146 0.005490 0.150000
vertex 0.001311 0.005517 0.150000
endloop
endfacet
facet normal -0.137889 0.990448 0.000000
outer loop
vertex 0.001547 0.005550 0.000000
vertex 0.001311 0.005517 0.000000
vertex 0.001311 0.005517 0.150000
endloop
endfacet
facet normal -0.137890 0.990448 0.000000
outer loop
vertex 0.001547 0.005550 0.000000
vertex 0.001311 0.005517 0.150000
vertex 0.001547 0.005550 0.150000
endloop
endfacet
facet normal -0.090615 0.995886 0.000000
outer loop
vertex 0.001822 0.005578 0.150000
vertex 0.001822 0.005578 0.000000
vertex 0.001681 0.005565 0.000000
endloop
endfacet
facet normal -0.112729 0.993626 0.000000
outer loop
vertex 0.001681 0.005565 0.000000
vertex 0.001547 0.005550 0.000000
vertex 0.001547 0.005550 0.150000
endloop
endfacet
facet normal -0.090615 0.995886 0.000000
outer loop
vertex 0.001681 0.005565 0.150000
vertex 0.001822 0.005578 0.150000
vertex 0.001681 0.005565 0.000000
endloop
endfacet
facet normal -0.112729 0.993626 0.000000
outer loop
vertex 0.001547 0.005550 0.150000
vertex 0.001681 0.005565 0.150000
vertex 0.001681 0.005565 0.000000
endloop
endfacet
facet normal -0.925523 0.378692 0.000000
outer loop
vertex 0.000460 0.004777 0.150000
vertex 0.000460 0.004777 0.000000
vertex 0.000373 0.004564 0.000000
endloop
endfacet
facet normal -0.925523 0.378692 0.000000
outer loop
vertex 0.000460 0.004777 0.150000
vertex 0.000373 0.004564 0.000000
vertex 0.000373 0.004564 0.150000
endloop
endfacet
facet normal 0.682639 -0.730755 0.000000
outer loop
vertex 0.003198 0.000062 0.150000
vertex 0.003198 0.000062 0.000000
vertex 0.003351 0.000204 0.000000
endloop
endfacet
facet normal 0.682639 -0.730756 0.000000
outer loop
vertex 0.003198 0.000062 0.150000
vertex 0.003351 0.000204 0.000000
vertex 0.003351 0.000204 0.150000
endloop
endfacet
facet normal 0.681949 0.731400 0.000000
outer loop
vertex 0.003517 0.005024 0.150000
vertex 0.003517 0.005024 0.000000
vertex 0.003465 0.005072 0.000000
endloop
endfacet
facet normal 0.681954 0.731395 0.000000
outer loop
vertex 0.003517 0.005024 0.150000
vertex 0.003465 0.005072 0.000000
vertex 0.003465 0.005072 0.150000
endloop
endfacet
facet normal -0.449186 -0.893438 0.000000
outer loop
vertex 0.001238 0.000420 0.150000
vertex 0.001139 0.000470 0.150000
vertex 0.001139 0.000470 0.000000
endloop
endfacet
facet normal -0.449186 -0.893438 0.000000
outer loop
vertex 0.001238 0.000420 0.150000
vertex 0.001139 0.000470 0.000000
vertex 0.001238 0.000420 0.000000
endloop
endfacet
facet normal -0.410923 -0.911670 0.000000
outer loop
vertex 0.001341 0.000374 0.150000
vertex 0.001238 0.000420 0.150000
vertex 0.001238 0.000420 0.000000
endloop
endfacet
facet normal -0.410924 -0.911670 0.000000
outer loop
vertex 0.001341 0.000374 0.150000
vertex 0.001238 0.000420 0.000000
vertex 0.001341 0.000374 0.000000
endloop
endfacet
facet normal -0.347312 -0.937750 0.000000
outer loop
vertex 0.001547 0.000294 0.000000
vertex 0.001547 0.000294 0.150000
vertex 0.001445 0.000332 0.150000
endloop
endfacet
facet normal -0.377452 -0.926029 0.000000
outer loop
vertex 0.001445 0.000332 0.150000
vertex 0.001341 0.000374 0.150000
vertex 0.001341 0.000374 0.000000
endloop
endfacet
facet normal -0.347312 -0.937750 0.000000
outer loop
vertex 0.001445 0.000332 0.000000
vertex 0.001547 0.000294 0.000000
vertex 0.001445 0.000332 0.150000
endloop
endfacet
facet normal -0.377453 -0.926029 0.000000
outer loop
vertex 0.001341 0.000374 0.000000
vertex 0.001445 0.000332 0.000000
vertex 0.001445 0.000332 0.150000
endloop
endfacet
facet normal 0.985668 0.168696 0.000000
outer loop
vertex 0.003601 0.004826 0.000000
vertex 0.003592 0.004880 0.000000
vertex 0.003592 0.004880 0.150000
endloop
endfacet
facet normal 0.985668 0.168696 0.000000
outer loop
vertex 0.003601 0.004826 0.000000
vertex 0.003592 0.004880 0.150000
vertex 0.003601 0.004826 0.150000
endloop
endfacet
facet normal 0.990485 0.137622 0.000000
outer loop
vertex 0.003626 0.004619 0.150000
vertex 0.003626 0.004619 0.000000
vertex 0.003615 0.004697 0.000000
endloop
endfacet
facet normal 0.994283 0.106779 0.000000
outer loop
vertex 0.003615 0.004697 0.000000
vertex 0.003601 0.004826 0.000000
vertex 0.003601 0.004826 0.150000
endloop
endfacet
facet normal 0.990482 0.137641 0.000000
outer loop
vertex 0.003615 0.004697 0.150000
vertex 0.003626 0.004619 0.150000
vertex 0.003615 0.004697 0.000000
endloop
endfacet
facet normal 0.994283 0.106779 0.000000
outer loop
vertex 0.003601 0.004826 0.150000
vertex 0.003615 0.004697 0.150000
vertex 0.003615 0.004697 0.000000
endloop
endfacet
facet normal 0.505518 -0.862816 0.000000
outer loop
vertex 0.003137 0.000026 0.150000
vertex 0.003137 0.000026 0.000000
vertex 0.003198 0.000062 0.000000
endloop
endfacet
facet normal 0.505520 -0.862815 0.000000
outer loop
vertex 0.003137 0.000026 0.150000
vertex 0.003198 0.000062 0.000000
vertex 0.003198 0.000062 0.150000
endloop
endfacet
facet normal 0.999744 -0.022636 0.000000
outer loop
vertex 0.003794 0.003069 0.000000
vertex 0.003797 0.003171 0.000000
vertex 0.003797 0.003171 0.150000
endloop
endfacet
facet normal 0.999744 -0.022644 0.000000
outer loop
vertex 0.003794 0.003069 0.000000
vertex 0.003797 0.003171 0.150000
vertex 0.003794 0.003069 0.150000
endloop
endfacet
facet normal 0.998186 -0.060202 0.000000
outer loop
vertex 0.003788 0.002971 0.000000
vertex 0.003794 0.003069 0.000000
vertex 0.003794 0.003069 0.150000
endloop
endfacet
facet normal 0.998186 -0.060202 0.000000
outer loop
vertex 0.003788 0.002971 0.000000
vertex 0.003794 0.003069 0.150000
vertex 0.003788 0.002971 0.150000
endloop
endfacet
facet normal 0.995805 -0.091505 0.000000
outer loop
vertex 0.003779 0.002874 0.000000
vertex 0.003788 0.002971 0.000000
vertex 0.003788 0.002971 0.150000
endloop
endfacet
facet normal 0.995805 -0.091505 0.000000
outer loop
vertex 0.003779 0.002874 0.000000
vertex 0.003788 0.002971 0.150000
vertex 0.003779 0.002874 0.150000
endloop
endfacet
facet normal 0.992228 -0.124434 0.000000
outer loop
vertex 0.003714 0.002353 0.000000
vertex 0.003779 0.002874 0.000000
vertex 0.003779 0.002874 0.150000
endloop
endfacet
facet normal 0.992228 -0.124434 0.000000
outer loop
vertex 0.003714 0.002353 0.000000
vertex 0.003779 0.002874 0.150000
vertex 0.003714 0.002353 0.150000
endloop
endfacet
facet normal 0.994920 -0.100665 0.000000
outer loop
vertex 0.003702 0.002230 0.000000
vertex 0.003714 0.002353 0.000000
vertex 0.003714 0.002353 0.150000
endloop
endfacet
facet normal 0.994920 -0.100665 0.000000
outer loop
vertex 0.003702 0.002230 0.000000
vertex 0.003714 0.002353 0.150000
vertex 0.003702 0.002230 0.150000
endloop
endfacet
facet normal 0.996802 -0.079915 0.000000
outer loop
vertex 0.003691 0.002095 0.000000
vertex 0.003702 0.002230 0.000000
vertex 0.003702 0.002230 0.150000
endloop
endfacet
facet normal 0.996802 -0.079915 0.000000
outer loop
vertex 0.003691 0.002095 0.000000
vertex 0.003702 0.002230 0.150000
vertex 0.003691 0.002095 0.150000
endloop
endfacet
facet normal 0.998217 -0.059687 0.000000
outer loop
vertex 0.003664 0.001639 0.000000
vertex 0.003691 0.002095 0.000000
vertex 0.003691 0.002095 0.150000
endloop
endfacet
facet normal 0.998217 -0.059687 0.000000
outer loop
vertex 0.003664 0.001639 0.000000
vertex 0.003691 0.002095 0.150000
vertex 0.003664 0.001639 0.150000
endloop
endfacet
facet normal 0.999298 -0.037456 0.000000
outer loop
vertex 0.003657 0.001462 0.000000
vertex 0.003664 0.001639 0.000000
vertex 0.003664 0.001639 0.150000
endloop
endfacet
facet normal 0.999298 -0.037456 0.000000
outer loop
vertex 0.003657 0.001462 0.000000
vertex 0.003664 0.001639 0.150000
vertex 0.003657 0.001462 0.150000
endloop
endfacet
facet normal 0.999705 -0.024276 0.000000
outer loop
vertex 0.003655 0.001378 0.000000
vertex 0.003657 0.001462 0.000000
vertex 0.003657 0.001462 0.150000
endloop
endfacet
facet normal 0.999705 -0.024276 0.000000
outer loop
vertex 0.003655 0.001378 0.000000
vertex 0.003657 0.001462 0.150000
vertex 0.003655 0.001378 0.150000
endloop
endfacet
facet normal 0.999982 -0.005973 0.000000
outer loop
vertex 0.003652 0.000909 0.000000
vertex 0.003655 0.001378 0.000000
vertex 0.003655 0.001378 0.150000
endloop
endfacet
facet normal 0.999982 -0.005971 0.000000
outer loop
vertex 0.003652 0.000909 0.000000
vertex 0.003655 0.001378 0.150000
vertex 0.003652 0.000909 0.150000
endloop
endfacet
facet normal 0.988932 -0.148370 0.000000
outer loop
vertex 0.003632 0.000701 0.150000
vertex 0.003632 0.000701 0.000000
vertex 0.003647 0.000800 0.000000
endloop
endfacet
facet normal 0.998846 -0.048025 0.000000
outer loop
vertex 0.003647 0.000800 0.000000
vertex 0.003652 0.000909 0.000000
vertex 0.003652 0.000909 0.150000
endloop
endfacet
facet normal 0.988933 -0.148362 0.000000
outer loop
vertex 0.003647 0.000800 0.150000
vertex 0.003632 0.000701 0.150000
vertex 0.003647 0.000800 0.000000
endloop
endfacet
facet normal 0.998846 -0.048025 0.000000
outer loop
vertex 0.003652 0.000909 0.150000
vertex 0.003647 0.000800 0.150000
vertex 0.003647 0.000800 0.000000
endloop
endfacet
facet normal -0.886960 0.461846 0.000000
outer loop
vertex 0.000493 0.004839 0.150000
vertex 0.000493 0.004839 0.000000
vertex 0.000460 0.004777 0.000000
endloop
endfacet
facet normal -0.886959 0.461847 0.000000
outer loop
vertex 0.000493 0.004839 0.150000
vertex 0.000460 0.004777 0.000000
vertex 0.000460 0.004777 0.150000
endloop
endfacet
facet normal 0.791027 0.611781 0.000000
outer loop
vertex 0.003553 0.004978 0.150000
vertex 0.003553 0.004978 0.000000
vertex 0.003517 0.005024 0.000000
endloop
endfacet
facet normal 0.791027 0.611781 0.000000
outer loop
vertex 0.003553 0.004978 0.150000
vertex 0.003517 0.005024 0.000000
vertex 0.003517 0.005024 0.150000
endloop
endfacet
facet normal -0.998484 -0.055034 0.000000
outer loop
vertex 0.000000 0.002234 0.150000
vertex 0.000000 0.002234 0.000000
vertex 0.000005 0.002138 0.000000
endloop
endfacet
facet normal -0.998484 -0.055034 0.000000
outer loop
vertex 0.000000 0.002234 0.150000
vertex 0.000005 0.002138 0.000000
vertex 0.000005 0.002138 0.150000
endloop
endfacet
facet normal 0.957247 0.289271 0.000000
outer loop
vertex 0.003592 0.004880 0.150000
vertex 0.003592 0.004880 0.000000
vertex 0.003577 0.004930 0.000000
endloop
endfacet
facet normal 0.957247 0.289271 0.000000
outer loop
vertex 0.003592 0.004880 0.150000
vertex 0.003577 0.004930 0.000000
vertex 0.003577 0.004930 0.150000
endloop
endfacet
facet normal 0.831725 -0.555187 0.000000
outer loop
vertex 0.003540 0.000450 0.000000
vertex 0.003540 0.000450 0.150000
vertex 0.003451 0.000317 0.150000
endloop
endfacet
facet normal 0.831728 -0.555184 0.000000
outer loop
vertex 0.003540 0.000450 0.000000
vertex 0.003451 0.000317 0.150000
vertex 0.003451 0.000317 0.000000
endloop
endfacet
facet normal 0.891869 0.452293 0.000000
outer loop
vertex 0.003577 0.004930 0.150000
vertex 0.003577 0.004930 0.000000
vertex 0.003553 0.004978 0.000000
endloop
endfacet
facet normal 0.891869 0.452293 0.000000
outer loop
vertex 0.003577 0.004930 0.150000
vertex 0.003553 0.004978 0.000000
vertex 0.003553 0.004978 0.150000
endloop
endfacet
facet normal 0.266354 0.963875 0.000000
outer loop
vertex 0.002718 0.005501 0.000000
vertex 0.002561 0.005545 0.000000
vertex 0.002561 0.005545 0.150000
endloop
endfacet
facet normal 0.266354 0.963875 0.000000
outer loop
vertex 0.002718 0.005501 0.000000
vertex 0.002561 0.005545 0.150000
vertex 0.002718 0.005501 0.150000
endloop
endfacet
facet normal -0.830005 -0.557757 0.000000
outer loop
vertex 0.000388 0.001204 0.000000
vertex 0.000504 0.001032 0.000000
vertex 0.000504 0.001032 0.150000
endloop
endfacet
facet normal -0.830005 -0.557756 0.000000
outer loop
vertex 0.000388 0.001204 0.000000
vertex 0.000504 0.001032 0.150000
vertex 0.000388 0.001204 0.150000
endloop
endfacet
facet normal -0.872724 -0.488213 0.000000
outer loop
vertex 0.000270 0.001414 0.000000
vertex 0.000388 0.001204 0.000000
vertex 0.000388 0.001204 0.150000
endloop
endfacet
facet normal -0.872724 -0.488213 0.000000
outer loop
vertex 0.000270 0.001414 0.000000
vertex 0.000388 0.001204 0.150000
vertex 0.000270 0.001414 0.150000
endloop
endfacet
facet normal -0.922786 -0.385313 0.000000
outer loop
vertex 0.000089 0.001811 0.150000
vertex 0.000089 0.001811 0.000000
vertex 0.000145 0.001675 0.000000
endloop
endfacet
facet normal -0.901806 -0.432141 0.000000
outer loop
vertex 0.000145 0.001675 0.000000
vertex 0.000270 0.001414 0.000000
vertex 0.000270 0.001414 0.150000
endloop
endfacet
facet normal -0.922786 -0.385313 0.000000
outer loop
vertex 0.000145 0.001675 0.150000
vertex 0.000089 0.001811 0.150000
vertex 0.000145 0.001675 0.000000
endloop
endfacet
facet normal -0.901806 -0.432142 0.000000
outer loop
vertex 0.000145 0.001675 0.000000
vertex 0.000270 0.001414 0.150000
vertex 0.000145 0.001675 0.150000
endloop
endfacet
facet normal -0.319186 -0.947692 0.000000
outer loop
vertex 0.001647 0.000260 0.150000
vertex 0.001547 0.000294 0.150000
vertex 0.001547 0.000294 0.000000
endloop
endfacet
facet normal 0.000000 0.000000 1.000000
outer loop
vertex 0.001547 0.000294 0.000000
vertex 0.001647 0.000260 0.000000
vertex 0.001741 0.000232 0.000000
endloop
endfacet
facet normal -0.263233 -0.964732 0.000000
outer loop
vertex 0.001741 0.000232 0.000000
vertex 0.001827 0.000208 0.000000
vertex 0.001827 0.000208 0.150000
endloop
endfacet
facet normal -0.291719 -0.956504 -0.000020
outer loop
vertex 0.001741 0.000232 0.150000
vertex 0.001647 0.000260 0.150000
vertex 0.001547 0.000294 0.000000
endloop
endfacet
facet normal -0.263233 -0.964732 0.000000
outer loop
vertex 0.001741 0.000232 0.000000
vertex 0.001827 0.000208 0.150000
vertex 0.001741 0.000232 0.150000
endloop
endfacet
facet normal -0.305933 -0.952053 0.000000
outer loop
vertex 0.001547 0.000294 0.000000
vertex 0.001741 0.000232 0.000000
vertex 0.001741 0.000232 0.150000
endloop
endfacet
facet normal 0.360462 0.932774 0.000000
outer loop
vertex 0.002786 0.005475 0.150000
vertex 0.002786 0.005475 0.000000
vertex 0.002718 0.005501 0.000000
endloop
endfacet
facet normal 0.360465 0.932773 0.000000
outer loop
vertex 0.002786 0.005475 0.150000
vertex 0.002718 0.005501 0.000000
vertex 0.002718 0.005501 0.150000
endloop
endfacet
facet normal -0.988445 -0.151580 0.000000
outer loop
vertex 0.000005 0.002138 0.150000
vertex 0.000005 0.002138 0.000000
vertex 0.000021 0.002038 0.000000
endloop
endfacet
facet normal -0.988445 -0.151580 0.000000
outer loop
vertex 0.000005 0.002138 0.150000
vertex 0.000021 0.002038 0.000000
vertex 0.000021 0.002038 0.150000
endloop
endfacet
facet normal -0.612303 -0.790623 0.000000
outer loop
vertex 0.000881 0.000640 0.150000
vertex 0.000881 0.000640 0.000000
vertex 0.000958 0.000580 0.000000
endloop
endfacet
facet normal -0.612302 -0.790624 0.000000
outer loop
vertex 0.000881 0.000640 0.150000
vertex 0.000958 0.000580 0.000000
vertex 0.000958 0.000580 0.150000
endloop
endfacet
facet normal -0.774298 -0.632821 0.000000
outer loop
vertex 0.000504 0.001032 0.150000
vertex 0.000504 0.001032 0.000000
vertex 0.000621 0.000888 0.000000
endloop
endfacet
facet normal -0.774299 -0.632820 0.000000
outer loop
vertex 0.000504 0.001032 0.150000
vertex 0.000621 0.000888 0.000000
vertex 0.000621 0.000888 0.150000
endloop
endfacet
endsolid Exported from Blender-3.6.8
