solid Exported from Blender-3.6.8
facet normal 0.508642 0.860978 0.000000
outer loop
vertex 0.008571 0.007477 0.150000
vertex 0.008571 0.007477 0.000000
vertex 0.008479 0.007531 0.000000
endloop
endfacet
facet normal 0.508635 0.860982 0.000000
outer loop
vertex 0.008571 0.007477 0.150000
vertex 0.008479 0.007531 0.000000
vertex 0.008479 0.007531 0.150000
endloop
endfacet
facet normal 0.990432 0.138002 0.000000
outer loop
vertex 0.009113 0.005866 0.150000
vertex 0.009113 0.005866 0.000000
vertex 0.009085 0.006069 0.000000
endloop
endfacet
facet normal 0.990431 0.138010 0.000000
outer loop
vertex 0.009113 0.005866 0.150000
vertex 0.009085 0.006069 0.000000
vertex 0.009085 0.006069 0.150000
endloop
endfacet
facet normal -0.420290 -0.907390 0.000000
outer loop
vertex 0.001106 0.000124 0.150000
vertex 0.001106 0.000124 0.000000
vertex 0.001241 0.000061 0.000000
endloop
endfacet
facet normal -0.420290 -0.907390 0.000000
outer loop
vertex 0.001106 0.000124 0.150000
vertex 0.001241 0.000061 0.000000
vertex 0.001241 0.000061 0.150000
endloop
endfacet
facet normal 0.000000 0.000000 1.000000
outer loop
vertex 0.000150 0.002680 0.000000
vertex 0.000050 0.002226 0.000000
vertex 0.000023 0.002087 0.000000
endloop
endfacet
facet normal -0.991483 0.130238 0.000000
outer loop
vertex 0.000023 0.002087 0.000000
vertex 0.000005 0.001952 0.000000
vertex 0.000005 0.001952 0.150000
endloop
endfacet
facet normal -0.991483 0.130238 0.000000
outer loop
vertex 0.000023 0.002087 0.000000
vertex 0.000005 0.001952 0.150000
vertex 0.000023 0.002087 0.150000
endloop
endfacet
facet normal -0.986039 0.166511 0.000000
outer loop
vertex 0.000179 0.002849 0.150000
vertex 0.000179 0.002849 0.000000
vertex 0.000150 0.002680 0.000000
endloop
endfacet
facet normal -0.977747 0.209788 0.000000
outer loop
vertex 0.000150 0.002680 0.000000
vertex 0.000023 0.002087 0.000000
vertex 0.000023 0.002087 0.150000
endloop
endfacet
facet normal -0.981837 0.189728 -0.000083
outer loop
vertex 0.000150 0.002680 0.000000
vertex 0.000023 0.002087 0.150000
vertex 0.000050 0.002226 0.150000
endloop
endfacet
facet normal -0.986039 0.166511 0.000000
outer loop
vertex 0.000150 0.002680 0.150000
vertex 0.000179 0.002849 0.150000
vertex 0.000150 0.002680 0.000000
endloop
endfacet
facet normal -0.976421 0.215875 0.000000
outer loop
vertex 0.000150 0.002680 0.000000
vertex 0.000050 0.002226 0.150000
vertex 0.000150 0.002680 0.150000
endloop
endfacet
facet normal 0.627768 -0.778400 0.000000
outer loop
vertex 0.006103 0.001666 0.150000
vertex 0.006103 0.001666 0.000000
vertex 0.006265 0.001797 0.000000
endloop
endfacet
facet normal 0.627765 -0.778403 0.000000
outer loop
vertex 0.006103 0.001666 0.150000
vertex 0.006265 0.001797 0.000000
vertex 0.006265 0.001797 0.150000
endloop
endfacet
facet normal 0.988194 -0.153211 0.000000
outer loop
vertex 0.009089 0.005528 0.150000
vertex 0.009089 0.005528 0.000000
vertex 0.009114 0.005687 0.000000
endloop
endfacet
facet normal 0.988194 -0.153211 0.000000
outer loop
vertex 0.009089 0.005528 0.150000
vertex 0.009114 0.005687 0.000000
vertex 0.009114 0.005687 0.150000
endloop
endfacet
facet normal 0.000000 0.000000 -1.000000
outer loop
vertex 0.000883 0.000302 0.000000
vertex 0.000786 0.000414 0.000000
vertex 0.000172 0.001267 0.000000
endloop
endfacet
facet normal 0.000000 0.000000 -1.000000
outer loop
vertex 0.000172 0.001267 0.000000
vertex 0.000093 0.001411 0.000000
vertex 0.000041 0.001549 0.000000
endloop
endfacet
facet normal 0.000000 0.000000 -1.000000
outer loop
vertex 0.000041 0.001549 0.000000
vertex 0.000011 0.001684 0.000000
vertex 0.000000 0.001818 0.000000
endloop
endfacet
facet normal 0.000000 0.000000 -1.000000
outer loop
vertex 0.000000 0.001818 0.000000
vertex 0.000005 0.001952 0.000000
vertex 0.000023 0.002087 0.000000
endloop
endfacet
facet normal 0.000000 0.000000 -1.000000
outer loop
vertex 0.000023 0.002087 0.000000
vertex 0.000050 0.002226 0.000000
vertex 0.000150 0.002680 0.000000
endloop
endfacet
facet normal 0.000000 0.000000 -1.000000
outer loop
vertex 0.000150 0.002680 0.000000
vertex 0.000179 0.002849 0.000000
vertex 0.000242 0.003040 0.000000
endloop
endfacet
facet normal 0.000000 0.000000 -1.000000
outer loop
vertex 0.000242 0.003040 0.000000
vertex 0.000372 0.003259 0.000000
vertex 0.000784 0.003752 0.000000
endloop
endfacet
facet normal 0.000000 0.000000 -1.000000
outer loop
vertex 0.000784 0.003752 0.000000
vertex 0.001039 0.004012 0.000000
vertex 0.001311 0.004271 0.000000
endloop
endfacet
facet normal 0.000000 0.000000 -1.000000
outer loop
vertex 0.001311 0.004271 0.000000
vertex 0.001586 0.004521 0.000000
vertex 0.002304 0.005150 0.000000
endloop
endfacet
facet normal 0.000000 0.000000 -1.000000
outer loop
vertex 0.002465 0.005295 0.000000
vertex 0.002566 0.005396 0.000000
vertex 0.003985 0.006227 0.000000
endloop
endfacet
facet normal 0.000000 0.000000 -1.000000
outer loop
vertex 0.000784 0.003752 0.000000
vertex 0.001311 0.004271 0.000000
vertex 0.002304 0.005150 0.000000
endloop
endfacet
facet normal 0.000000 0.000000 -1.000000
outer loop
vertex 0.002304 0.005150 0.000000
vertex 0.002465 0.005295 0.000000
vertex 0.003985 0.006227 0.000000
endloop
endfacet
facet normal 0.000000 0.000000 -1.000000
outer loop
vertex 0.003985 0.006227 0.000000
vertex 0.004133 0.006301 0.000000
vertex 0.004302 0.006380 0.000000
endloop
endfacet
facet normal 0.000000 0.000000 -1.000000
outer loop
vertex 0.004302 0.006380 0.000000
vertex 0.004488 0.006463 0.000000
vertex 0.004685 0.006548 0.000000
endloop
endfacet
facet normal 0.000000 0.000000 -1.000000
outer loop
vertex 0.004685 0.006548 0.000000
vertex 0.004890 0.006634 0.000000
vertex 0.005302 0.006803 0.000000
endloop
endfacet
facet normal 0.000000 0.000000 -1.000000
outer loop
vertex 0.005302 0.006803 0.000000
vertex 0.006133 0.007133 0.000000
vertex 0.006259 0.007177 0.000000
endloop
endfacet
facet normal 0.000000 0.000000 -1.000000
outer loop
vertex 0.006259 0.007177 0.000000
vertex 0.006411 0.007220 0.000000
vertex 0.006584 0.007262 0.000000
endloop
endfacet
facet normal 0.000000 0.000000 -1.000000
outer loop
vertex 0.006584 0.007262 0.000000
vertex 0.006773 0.007303 0.000000
vertex 0.006973 0.007342 0.000000
endloop
endfacet
facet normal 0.000000 0.000000 -1.000000
outer loop
vertex 0.006973 0.007342 0.000000
vertex 0.007179 0.007380 0.000000
vertex 0.007386 0.007415 0.000000
endloop
endfacet
facet normal 0.000000 0.000000 -1.000000
outer loop
vertex 0.007386 0.007415 0.000000
vertex 0.008260 0.007553 0.000000
vertex 0.008376 0.007557 0.000000
endloop
endfacet
facet normal 0.000000 0.000000 -1.000000
outer loop
vertex 0.008376 0.007557 0.000000
vertex 0.008479 0.007531 0.000000
vertex 0.008571 0.007477 0.000000
endloop
endfacet
facet normal 0.000000 0.000000 -1.000000
outer loop
vertex 0.008571 0.007477 0.000000
vertex 0.008653 0.007396 0.000000
vertex 0.008726 0.007292 0.000000
endloop
endfacet
facet normal 0.000000 0.000000 -1.000000
outer loop
vertex 0.008726 0.007292 0.000000
vertex 0.008792 0.007166 0.000000
vertex 0.008850 0.007020 0.000000
endloop
endfacet
facet normal 0.000000 0.000000 -1.000000
outer loop
vertex 0.008850 0.007020 0.000000
vertex 0.008903 0.006856 0.000000
vertex 0.008952 0.006677 0.000000
endloop
endfacet
facet normal 0.000000 0.000000 -1.000000
outer loop
vertex 0.008952 0.006677 0.000000
vertex 0.009085 0.006069 0.000000
vertex 0.009113 0.005866 0.000000
endloop
endfacet
facet normal 0.000000 0.000000 -1.000000
outer loop
vertex 0.009113 0.005866 0.000000
vertex 0.009114 0.005687 0.000000
vertex 0.009089 0.005528 0.000000
endloop
endfacet
facet normal 0.000000 0.000000 -1.000000
outer loop
vertex 0.009089 0.005528 0.000000
vertex 0.009042 0.005384 0.000000
vertex 0.008976 0.005249 0.000000
endloop
endfacet
facet normal 0.000000 0.000000 -1.000000
outer loop
vertex 0.008976 0.005249 0.000000
vertex 0.008893 0.005120 0.000000
vertex 0.008795 0.004990 0.000000
endloop
endfacet
facet normal 0.000000 0.000000 -1.000000
outer loop
vertex 0.008795 0.004990 0.000000
vertex 0.008687 0.004856 0.000000
vertex 0.008571 0.004713 0.000000
endloop
endfacet
facet normal 0.000000 0.000000 -1.000000
outer loop
vertex 0.008976 0.005249 0.000000
vertex 0.008795 0.004990 0.000000
vertex 0.008571 0.004713 0.000000
endloop
endfacet
facet normal 0.000000 0.000000 -1.000000
outer loop
vertex 0.009113 0.005866 0.000000
vertex 0.009089 0.005528 0.000000
vertex 0.008976 0.005249 0.000000
endloop
endfacet
facet normal 0.000000 0.000000 -1.000000
outer loop
vertex 0.008850 0.007020 0.000000
vertex 0.008952 0.006677 0.000000
vertex 0.009113 0.005866 0.000000
endloop
endfacet
facet normal 0.000000 0.000000 -1.000000
outer loop
vertex 0.008571 0.007477 0.000000
vertex 0.008726 0.007292 0.000000
vertex 0.008850 0.007020 0.000000
endloop
endfacet
facet normal 0.000000 0.000000 -1.000000
outer loop
vertex 0.007386 0.007415 0.000000
vertex 0.008376 0.007557 0.000000
vertex 0.008571 0.007477 0.000000
endloop
endfacet
facet normal 0.000000 0.000000 -1.000000
outer loop
vertex 0.006584 0.007262 0.000000
vertex 0.006973 0.007342 0.000000
vertex 0.007386 0.007415 0.000000
endloop
endfacet
facet normal 0.000000 0.000000 -1.000000
outer loop
vertex 0.005302 0.006803 0.000000
vertex 0.006259 0.007177 0.000000
vertex 0.006584 0.007262 0.000000
endloop
endfacet
facet normal 0.000000 0.000000 -1.000000
outer loop
vertex 0.004302 0.006380 0.000000
vertex 0.004685 0.006548 0.000000
vertex 0.005302 0.006803 0.000000
endloop
endfacet
facet normal 0.000000 0.000000 -1.000000
outer loop
vertex 0.002304 0.005150 0.000000
vertex 0.003985 0.006227 0.000000
vertex 0.004302 0.006380 0.000000
endloop
endfacet
facet normal 0.000000 0.000000 -1.000000
outer loop
vertex 0.000242 0.003040 0.000000
vertex 0.000784 0.003752 0.000000
vertex 0.002304 0.005150 0.000000
endloop
endfacet
facet normal 0.000000 0.000000 -1.000000
outer loop
vertex 0.000023 0.002087 0.000000
vertex 0.000150 0.002680 0.000000
vertex 0.000242 0.003040 0.000000
endloop
endfacet
facet normal 0.000000 0.000000 -1.000000
outer loop
vertex 0.000041 0.001549 0.000000
vertex 0.000000 0.001818 0.000000
vertex 0.000023 0.002087 0.000000
endloop
endfacet
facet normal 0.000000 0.000000 -1.000000
outer loop
vertex 0.000883 0.000302 0.000000
vertex 0.000172 0.001267 0.000000
vertex 0.000041 0.001549 0.000000
endloop
endfacet
facet normal 0.000000 0.000000 -1.000000
outer loop
vertex 0.001106 0.000124 0.000000
vertex 0.000988 0.000205 0.000000
vertex 0.000883 0.000302 0.000000
endloop
endfacet
facet normal 0.000000 0.000000 -1.000000
outer loop
vertex 0.001396 0.000020 0.000000
vertex 0.001241 0.000061 0.000000
vertex 0.001106 0.000124 0.000000
endloop
endfacet
facet normal 0.000000 0.000000 -1.000000
outer loop
vertex 0.001785 0.000007 0.000000
vertex 0.001576 0.000001 0.000000
vertex 0.001396 0.000020 0.000000
endloop
endfacet
facet normal 0.000000 0.000000 -1.000000
outer loop
vertex 0.002974 0.000257 0.000000
vertex 0.002536 0.000122 0.000000
vertex 0.001785 0.000007 0.000000
endloop
endfacet
facet normal 0.000000 0.000000 -1.000000
outer loop
vertex 0.003249 0.000367 0.000000
vertex 0.003111 0.000310 0.000000
vertex 0.002974 0.000257 0.000000
endloop
endfacet
facet normal 0.000000 0.000000 -1.000000
outer loop
vertex 0.005207 0.001251 0.000000
vertex 0.003390 0.000428 0.000000
vertex 0.003249 0.000367 0.000000
endloop
endfacet
facet normal 0.000000 0.000000 -1.000000
outer loop
vertex 0.005843 0.001520 0.000000
vertex 0.005749 0.001478 0.000000
vertex 0.005326 0.001303 0.000000
endloop
endfacet
facet normal 0.000000 0.000000 -1.000000
outer loop
vertex 0.005207 0.001251 0.000000
vertex 0.003249 0.000367 0.000000
vertex 0.002974 0.000257 0.000000
endloop
endfacet
facet normal 0.000000 0.000000 -1.000000
outer loop
vertex 0.005932 0.001564 0.000000
vertex 0.005843 0.001520 0.000000
vertex 0.005326 0.001303 0.000000
endloop
endfacet
facet normal 0.000000 0.000000 -1.000000
outer loop
vertex 0.005207 0.001251 0.000000
vertex 0.002974 0.000257 0.000000
vertex 0.001785 0.000007 0.000000
endloop
endfacet
facet normal 0.000000 0.000000 -1.000000
outer loop
vertex 0.006103 0.001666 0.000000
vertex 0.005932 0.001564 0.000000
vertex 0.005326 0.001303 0.000000
endloop
endfacet
facet normal 0.000000 0.000000 -1.000000
outer loop
vertex 0.005326 0.001303 0.000000
vertex 0.005207 0.001251 0.000000
vertex 0.001785 0.000007 0.000000
endloop
endfacet
facet normal 0.000000 0.000000 -1.000000
outer loop
vertex 0.001785 0.000007 0.000000
vertex 0.001396 0.000020 0.000000
vertex 0.001106 0.000124 0.000000
endloop
endfacet
facet normal 0.000000 0.000000 -1.000000
outer loop
vertex 0.001106 0.000124 0.000000
vertex 0.000883 0.000302 0.000000
vertex 0.000041 0.001549 0.000000
endloop
endfacet
facet normal 0.000000 0.000000 -1.000000
outer loop
vertex 0.000041 0.001549 0.000000
vertex 0.000023 0.002087 0.000000
vertex 0.000242 0.003040 0.000000
endloop
endfacet
facet normal 0.000000 0.000000 -1.000000
outer loop
vertex 0.000242 0.003040 0.000000
vertex 0.002304 0.005150 0.000000
vertex 0.004302 0.006380 0.000000
endloop
endfacet
facet normal 0.000000 0.000000 -1.000000
outer loop
vertex 0.004302 0.006380 0.000000
vertex 0.005302 0.006803 0.000000
vertex 0.006584 0.007262 0.000000
endloop
endfacet
facet normal 0.000000 0.000000 -1.000000
outer loop
vertex 0.006584 0.007262 0.000000
vertex 0.007386 0.007415 0.000000
vertex 0.008571 0.007477 0.000000
endloop
endfacet
facet normal 0.000000 0.000000 -1.000000
outer loop
vertex 0.008571 0.007477 0.000000
vertex 0.008850 0.007020 0.000000
vertex 0.009113 0.005866 0.000000
endloop
endfacet
facet normal 0.000000 0.000000 -1.000000
outer loop
vertex 0.009113 0.005866 0.000000
vertex 0.008976 0.005249 0.000000
vertex 0.008571 0.004713 0.000000
endloop
endfacet
facet normal 0.000000 0.000000 -1.000000
outer loop
vertex 0.009113 0.005866 0.000000
vertex 0.008571 0.004713 0.000000
vertex 0.008448 0.004555 0.000000
endloop
endfacet
facet normal 0.000000 0.000000 -1.000000
outer loop
vertex 0.006584 0.007262 0.000000
vertex 0.008571 0.007477 0.000000
vertex 0.009113 0.005866 0.000000
endloop
endfacet
facet normal 0.000000 0.000000 -1.000000
outer loop
vertex 0.000242 0.003040 0.000000
vertex 0.004302 0.006380 0.000000
vertex 0.006584 0.007262 0.000000
endloop
endfacet
facet normal 0.000000 0.000000 -1.000000
outer loop
vertex 0.001106 0.000124 0.000000
vertex 0.000041 0.001549 0.000000
vertex 0.000242 0.003040 0.000000
endloop
endfacet
facet normal 0.000000 0.000000 -1.000000
outer loop
vertex 0.005326 0.001303 0.000000
vertex 0.001785 0.000007 0.000000
vertex 0.001106 0.000124 0.000000
endloop
endfacet
facet normal 0.000000 0.000000 -1.000000
outer loop
vertex 0.006265 0.001797 0.000000
vertex 0.006103 0.001666 0.000000
vertex 0.005326 0.001303 0.000000
endloop
endfacet
facet normal 0.000000 0.000000 -1.000000
outer loop
vertex 0.007219 0.003085 0.000000
vertex 0.006424 0.001970 0.000000
vertex 0.006265 0.001797 0.000000
endloop
endfacet
facet normal 0.000000 0.000000 -1.000000
outer loop
vertex 0.007219 0.003085 0.000000
vertex 0.006265 0.001797 0.000000
vertex 0.005326 0.001303 0.000000
endloop
endfacet
facet normal 0.000000 0.000000 -1.000000
outer loop
vertex 0.005326 0.001303 0.000000
vertex 0.001106 0.000124 0.000000
vertex 0.000242 0.003040 0.000000
endloop
endfacet
facet normal 0.000000 0.000000 -1.000000
outer loop
vertex 0.000242 0.003040 0.000000
vertex 0.006584 0.007262 0.000000
vertex 0.009113 0.005866 0.000000
endloop
endfacet
facet normal 0.000000 0.000000 -1.000000
outer loop
vertex 0.009113 0.005866 0.000000
vertex 0.008448 0.004555 0.000000
vertex 0.008323 0.004378 0.000000
endloop
endfacet
facet normal 0.000000 0.000000 -1.000000
outer loop
vertex 0.008198 0.004177 0.000000
vertex 0.008081 0.003982 0.000000
vertex 0.007977 0.003823 0.000000
endloop
endfacet
facet normal 0.000000 0.000000 -1.000000
outer loop
vertex 0.009113 0.005866 0.000000
vertex 0.008323 0.004378 0.000000
vertex 0.008198 0.004177 0.000000
endloop
endfacet
facet normal 0.000000 0.000000 -1.000000
outer loop
vertex 0.005326 0.001303 0.000000
vertex 0.000242 0.003040 0.000000
vertex 0.009113 0.005866 0.000000
endloop
endfacet
facet normal 0.000000 0.000000 -1.000000
outer loop
vertex 0.007352 0.003219 0.000000
vertex 0.007219 0.003085 0.000000
vertex 0.005326 0.001303 0.000000
endloop
endfacet
facet normal 0.000000 0.000000 -1.000000
outer loop
vertex 0.007352 0.003219 0.000000
vertex 0.005326 0.001303 0.000000
vertex 0.009113 0.005866 0.000000
endloop
endfacet
facet normal 0.000000 0.000000 -1.000000
outer loop
vertex 0.009113 0.005866 0.000000
vertex 0.008198 0.004177 0.000000
vertex 0.007977 0.003823 0.000000
endloop
endfacet
facet normal 0.000000 0.000000 -1.000000
outer loop
vertex 0.007977 0.003823 0.000000
vertex 0.007885 0.003694 0.000000
vertex 0.007802 0.003592 0.000000
endloop
endfacet
facet normal 0.000000 0.000000 -1.000000
outer loop
vertex 0.007802 0.003592 0.000000
vertex 0.007658 0.003448 0.000000
vertex 0.007594 0.003396 0.000000
endloop
endfacet
facet normal 0.000000 0.000000 -1.000000
outer loop
vertex 0.007594 0.003396 0.000000
vertex 0.007533 0.003352 0.000000
vertex 0.007474 0.003311 0.000000
endloop
endfacet
facet normal 0.000000 0.000000 -1.000000
outer loop
vertex 0.007414 0.003268 0.000000
vertex 0.007352 0.003219 0.000000
vertex 0.009113 0.005866 0.000000
endloop
endfacet
facet normal 0.000000 0.000000 -1.000000
outer loop
vertex 0.007802 0.003592 0.000000
vertex 0.007594 0.003396 0.000000
vertex 0.007474 0.003311 0.000000
endloop
endfacet
facet normal 0.000000 0.000000 -1.000000
outer loop
vertex 0.007474 0.003311 0.000000
vertex 0.007414 0.003268 0.000000
vertex 0.009113 0.005866 0.000000
endloop
endfacet
facet normal 0.000000 0.000000 -1.000000
outer loop
vertex 0.009113 0.005866 0.000000
vertex 0.007977 0.003823 0.000000
vertex 0.007802 0.003592 0.000000
endloop
endfacet
facet normal 0.000000 0.000000 -1.000000
outer loop
vertex 0.009113 0.005866 0.000000
vertex 0.007802 0.003592 0.000000
vertex 0.007474 0.003311 0.000000
endloop
endfacet
facet normal -0.812002 -0.583655 0.000000
outer loop
vertex 0.000172 0.001267 0.150000
vertex 0.000172 0.001267 0.000000
vertex 0.000786 0.000414 0.000000
endloop
endfacet
facet normal -0.812002 -0.583655 0.000000
outer loop
vertex 0.000172 0.001267 0.150000
vertex 0.000786 0.000414 0.000000
vertex 0.000786 0.000414 0.150000
endloop
endfacet
facet normal 0.927900 0.372828 0.000000
outer loop
vertex 0.008850 0.007020 0.150000
vertex 0.008850 0.007020 0.000000
vertex 0.008792 0.007166 0.000000
endloop
endfacet
facet normal 0.927894 0.372845 0.000000
outer loop
vertex 0.008850 0.007020 0.150000
vertex 0.008792 0.007166 0.000000
vertex 0.008792 0.007166 0.150000
endloop
endfacet
facet normal 0.736109 -0.676863 0.000000
outer loop
vertex 0.006265 0.001797 0.150000
vertex 0.006265 0.001797 0.000000
vertex 0.006424 0.001970 0.000000
endloop
endfacet
facet normal 0.736107 -0.676865 0.000000
outer loop
vertex 0.006265 0.001797 0.150000
vertex 0.006424 0.001970 0.000000
vertex 0.006424 0.001970 0.150000
endloop
endfacet
facet normal 0.000000 0.000000 1.000000
outer loop
vertex 0.007474 0.003311 0.000000
vertex 0.007533 0.003352 0.000000
vertex 0.007594 0.003396 0.000000
endloop
endfacet
facet normal 0.627977 -0.778232 0.000000
outer loop
vertex 0.007594 0.003396 0.000000
vertex 0.007658 0.003448 0.000000
vertex 0.007658 0.003448 0.150000
endloop
endfacet
facet normal 0.627967 -0.778240 0.000000
outer loop
vertex 0.007594 0.003396 0.000000
vertex 0.007658 0.003448 0.150000
vertex 0.007594 0.003396 0.150000
endloop
endfacet
facet normal 0.577583 -0.816332 0.000000
outer loop
vertex 0.007474 0.003311 0.000000
vertex 0.007594 0.003396 0.000000
vertex 0.007594 0.003396 0.150000
endloop
endfacet
facet normal 0.585996 -0.810314 -0.000010
outer loop
vertex 0.007474 0.003311 0.000000
vertex 0.007594 0.003396 0.150000
vertex 0.007533 0.003352 0.150000
endloop
endfacet
facet normal 0.624946 -0.780668 0.000000
outer loop
vertex 0.007352 0.003219 0.150000
vertex 0.007352 0.003219 0.000000
vertex 0.007414 0.003268 0.000000
endloop
endfacet
facet normal 0.583416 -0.812173 -0.000009
outer loop
vertex 0.007414 0.003268 0.000000
vertex 0.007474 0.003311 0.000000
vertex 0.007533 0.003352 0.150000
endloop
endfacet
facet normal 0.568792 -0.822481 0.000009
outer loop
vertex 0.007414 0.003268 0.000000
vertex 0.007533 0.003352 0.150000
vertex 0.007474 0.003311 0.150000
endloop
endfacet
facet normal 0.624955 -0.780661 0.000000
outer loop
vertex 0.007414 0.003268 0.150000
vertex 0.007352 0.003219 0.150000
vertex 0.007414 0.003268 0.000000
endloop
endfacet
facet normal 0.583426 -0.812166 0.000000
outer loop
vertex 0.007414 0.003268 0.000000
vertex 0.007474 0.003311 0.150000
vertex 0.007414 0.003268 0.150000
endloop
endfacet
facet normal 0.950959 0.309315 0.000000
outer loop
vertex 0.008903 0.006856 0.000000
vertex 0.008850 0.007020 0.000000
vertex 0.008850 0.007020 0.150000
endloop
endfacet
facet normal 0.950965 0.309299 0.000000
outer loop
vertex 0.008903 0.006856 0.000000
vertex 0.008850 0.007020 0.150000
vertex 0.008903 0.006856 0.150000
endloop
endfacet
facet normal 0.977025 0.213126 0.000000
outer loop
vertex 0.009085 0.006069 0.150000
vertex 0.009085 0.006069 0.000000
vertex 0.008952 0.006677 0.000000
endloop
endfacet
facet normal 0.964638 0.263578 0.000000
outer loop
vertex 0.008952 0.006677 0.000000
vertex 0.008903 0.006856 0.000000
vertex 0.008903 0.006856 0.150000
endloop
endfacet
facet normal 0.977024 0.213130 0.000000
outer loop
vertex 0.008952 0.006677 0.150000
vertex 0.009085 0.006069 0.150000
vertex 0.008952 0.006677 0.000000
endloop
endfacet
facet normal 0.964640 0.263571 0.000000
outer loop
vertex 0.008903 0.006856 0.150000
vertex 0.008952 0.006677 0.150000
vertex 0.008952 0.006677 0.000000
endloop
endfacet
facet normal 0.700383 0.713767 0.000000
outer loop
vertex 0.008653 0.007396 0.150000
vertex 0.008653 0.007396 0.000000
vertex 0.008571 0.007477 0.000000
endloop
endfacet
facet normal 0.700376 0.713774 0.000000
outer loop
vertex 0.008653 0.007396 0.150000
vertex 0.008571 0.007477 0.000000
vertex 0.008571 0.007477 0.150000
endloop
endfacet
facet normal -0.999212 0.039682 0.000000
outer loop
vertex 0.000005 0.001952 0.150000
vertex 0.000005 0.001952 0.000000
vertex 0.000000 0.001818 0.000000
endloop
endfacet
facet normal -0.999212 0.039682 0.000000
outer loop
vertex 0.000005 0.001952 0.150000
vertex 0.000000 0.001818 0.000000
vertex 0.000000 0.001818 0.150000
endloop
endfacet
facet normal 0.000732 0.000000 1.000000
outer loop
vertex 0.006265 0.001797 0.150000
vertex 0.006424 0.001970 0.150000
vertex 0.007219 0.003085 0.150000
endloop
endfacet
facet normal 0.000000 0.000000 1.000000
outer loop
vertex 0.006103 0.001666 0.150000
vertex 0.006265 0.001797 0.150000
vertex 0.007219 0.003085 0.150000
endloop
endfacet
facet normal 0.000000 0.000000 1.000000
outer loop
vertex 0.005843 0.001520 0.150000
vertex 0.005932 0.001564 0.150000
vertex 0.006103 0.001666 0.150000
endloop
endfacet
facet normal 0.001415 0.000000 0.999999
outer loop
vertex 0.005326 0.001303 0.150000
vertex 0.005749 0.001478 0.150000
vertex 0.005843 0.001520 0.150000
endloop
endfacet
facet normal 0.006554 0.000000 0.999979
outer loop
vertex 0.003249 0.000367 0.150000
vertex 0.003390 0.000428 0.150000
vertex 0.005207 0.001251 0.150000
endloop
endfacet
facet normal 0.000000 0.000000 1.000000
outer loop
vertex 0.005326 0.001303 0.150000
vertex 0.005843 0.001520 0.150000
vertex 0.006103 0.001666 0.150000
endloop
endfacet
facet normal -0.003086 0.000000 0.999995
outer loop
vertex 0.003111 0.000310 0.150000
vertex 0.003249 0.000367 0.150000
vertex 0.005207 0.001251 0.150000
endloop
endfacet
facet normal -0.002613 0.000000 0.999997
outer loop
vertex 0.005207 0.001251 0.150000
vertex 0.005326 0.001303 0.150000
vertex 0.006103 0.001666 0.150000
endloop
endfacet
facet normal -0.000036 0.000000 1.000000
outer loop
vertex 0.005207 0.001251 0.150000
vertex 0.006103 0.001666 0.150000
vertex 0.007219 0.003085 0.150000
endloop
endfacet
facet normal 0.000000 0.000000 1.000000
outer loop
vertex 0.002974 0.000257 0.150000
vertex 0.003111 0.000310 0.150000
vertex 0.005207 0.001251 0.150000
endloop
endfacet
facet normal 0.000000 0.000000 1.000000
outer loop
vertex 0.001785 0.000007 0.150000
vertex 0.002536 0.000122 0.150000
vertex 0.002974 0.000257 0.150000
endloop
endfacet
facet normal 0.000045 0.000000 1.000000
outer loop
vertex 0.001396 0.000020 0.150000
vertex 0.001576 0.000001 0.150000
vertex 0.001785 0.000007 0.150000
endloop
endfacet
facet normal -0.000223 0.000000 1.000000
outer loop
vertex 0.001106 0.000124 0.150000
vertex 0.001241 0.000061 0.150000
vertex 0.001396 0.000020 0.150000
endloop
endfacet
facet normal 0.000000 0.000000 1.000000
outer loop
vertex 0.000883 0.000302 0.150000
vertex 0.000988 0.000205 0.150000
vertex 0.001106 0.000124 0.150000
endloop
endfacet
facet normal 0.000256 0.000000 1.000000
outer loop
vertex 0.000172 0.001267 0.150000
vertex 0.000786 0.000414 0.150000
vertex 0.000883 0.000302 0.150000
endloop
endfacet
facet normal -0.001079 0.000000 0.999999
outer loop
vertex 0.000041 0.001549 0.150000
vertex 0.000093 0.001411 0.150000
vertex 0.000172 0.001267 0.150000
endloop
endfacet
facet normal 0.001416 0.000000 0.999999
outer loop
vertex 0.000000 0.001818 0.150000
vertex 0.000011 0.001684 0.150000
vertex 0.000041 0.001549 0.150000
endloop
endfacet
facet normal 0.000000 0.000000 1.000000
outer loop
vertex 0.000023 0.002087 0.150000
vertex 0.000005 0.001952 0.150000
vertex 0.000000 0.001818 0.150000
endloop
endfacet
facet normal 0.000000 0.000000 1.000000
outer loop
vertex 0.000150 0.002680 0.150000
vertex 0.000050 0.002226 0.150000
vertex 0.000023 0.002087 0.150000
endloop
endfacet
facet normal 0.000000 0.000000 1.000000
outer loop
vertex 0.000242 0.003040 0.150000
vertex 0.000179 0.002849 0.150000
vertex 0.000150 0.002680 0.150000
endloop
endfacet
facet normal -0.000562 0.000000 1.000000
outer loop
vertex 0.000784 0.003752 0.150000
vertex 0.000372 0.003259 0.150000
vertex 0.000242 0.003040 0.150000
endloop
endfacet
facet normal 0.000000 0.000000 1.000000
outer loop
vertex 0.001311 0.004271 0.150000
vertex 0.001039 0.004012 0.150000
vertex 0.000784 0.003752 0.150000
endloop
endfacet
facet normal 0.000000 0.000000 1.000000
outer loop
vertex 0.002304 0.005150 0.150000
vertex 0.001586 0.004521 0.150000
vertex 0.001311 0.004271 0.150000
endloop
endfacet
facet normal -0.000184 0.000000 1.000000
outer loop
vertex 0.003985 0.006227 0.150000
vertex 0.002566 0.005396 0.150000
vertex 0.002465 0.005295 0.150000
endloop
endfacet
facet normal 0.000000 0.000000 1.000000
outer loop
vertex 0.002304 0.005150 0.150000
vertex 0.001311 0.004271 0.150000
vertex 0.000784 0.003752 0.150000
endloop
endfacet
facet normal -0.000155 0.000000 1.000000
outer loop
vertex 0.003985 0.006227 0.150000
vertex 0.002465 0.005295 0.150000
vertex 0.002304 0.005150 0.150000
endloop
endfacet
facet normal 0.002351 0.000000 0.999997
outer loop
vertex 0.004302 0.006380 0.150000
vertex 0.004133 0.006301 0.150000
vertex 0.003985 0.006227 0.150000
endloop
endfacet
facet normal 0.000000 0.000000 1.000000
outer loop
vertex 0.004685 0.006548 0.150000
vertex 0.004488 0.006463 0.150000
vertex 0.004302 0.006380 0.150000
endloop
endfacet
facet normal 0.000000 0.000000 1.000000
outer loop
vertex 0.005302 0.006803 0.150000
vertex 0.004890 0.006634 0.150000
vertex 0.004685 0.006548 0.150000
endloop
endfacet
facet normal 0.000000 0.000000 1.000000
outer loop
vertex 0.006259 0.007177 0.150000
vertex 0.006133 0.007133 0.150000
vertex 0.005302 0.006803 0.150000
endloop
endfacet
facet normal 0.000847 0.000000 1.000000
outer loop
vertex 0.006584 0.007262 0.150000
vertex 0.006411 0.007220 0.150000
vertex 0.006259 0.007177 0.150000
endloop
endfacet
facet normal 0.001221 0.000000 0.999999
outer loop
vertex 0.006973 0.007342 0.150000
vertex 0.006773 0.007303 0.150000
vertex 0.006584 0.007262 0.150000
endloop
endfacet
facet normal 0.000000 0.000000 1.000000
outer loop
vertex 0.007386 0.007415 0.150000
vertex 0.007179 0.007380 0.150000
vertex 0.006973 0.007342 0.150000
endloop
endfacet
facet normal 0.000000 0.000000 1.000000
outer loop
vertex 0.008376 0.007557 0.150000
vertex 0.008260 0.007553 0.150000
vertex 0.007386 0.007415 0.150000
endloop
endfacet
facet normal -0.000283 0.000000 1.000000
outer loop
vertex 0.008571 0.007477 0.150000
vertex 0.008479 0.007531 0.150000
vertex 0.008376 0.007557 0.150000
endloop
endfacet
facet normal 0.000678 0.000000 1.000000
outer loop
vertex 0.008726 0.007292 0.150000
vertex 0.008653 0.007396 0.150000
vertex 0.008571 0.007477 0.150000
endloop
endfacet
facet normal 0.000000 0.000000 1.000000
outer loop
vertex 0.008850 0.007020 0.150000
vertex 0.008792 0.007166 0.150000
vertex 0.008726 0.007292 0.150000
endloop
endfacet
facet normal -0.002390 0.000000 0.999997
outer loop
vertex 0.008952 0.006677 0.150000
vertex 0.008903 0.006856 0.150000
vertex 0.008850 0.007020 0.150000
endloop
endfacet
facet normal 0.000000 0.000000 1.000000
outer loop
vertex 0.009113 0.005866 0.150000
vertex 0.009085 0.006069 0.150000
vertex 0.008952 0.006677 0.150000
endloop
endfacet
facet normal -0.000814 0.000000 1.000000
outer loop
vertex 0.009089 0.005528 0.150000
vertex 0.009114 0.005687 0.150000
vertex 0.009113 0.005866 0.150000
endloop
endfacet
facet normal 0.001110 0.000000 0.999999
outer loop
vertex 0.008976 0.005249 0.150000
vertex 0.009042 0.005384 0.150000
vertex 0.009089 0.005528 0.150000
endloop
endfacet
facet normal -0.001998 0.000000 0.999998
outer loop
vertex 0.008795 0.004990 0.150000
vertex 0.008893 0.005120 0.150000
vertex 0.008976 0.005249 0.150000
endloop
endfacet
facet normal 0.037665 0.000000 0.999290
outer loop
vertex 0.008571 0.004713 0.150000
vertex 0.008687 0.004856 0.150000
vertex 0.008795 0.004990 0.150000
endloop
endfacet
facet normal -0.000887 0.000000 1.000000
outer loop
vertex 0.008571 0.004713 0.150000
vertex 0.008795 0.004990 0.150000
vertex 0.008976 0.005249 0.150000
endloop
endfacet
facet normal 0.000000 0.000000 1.000000
outer loop
vertex 0.008976 0.005249 0.150000
vertex 0.009089 0.005528 0.150000
vertex 0.009113 0.005866 0.150000
endloop
endfacet
facet normal -0.000263 0.000000 1.000000
outer loop
vertex 0.009113 0.005866 0.150000
vertex 0.008952 0.006677 0.150000
vertex 0.008850 0.007020 0.150000
endloop
endfacet
facet normal -0.000189 0.000000 1.000000
outer loop
vertex 0.008850 0.007020 0.150000
vertex 0.008726 0.007292 0.150000
vertex 0.008571 0.007477 0.150000
endloop
endfacet
facet normal 0.000000 0.000000 1.000000
outer loop
vertex 0.008571 0.007477 0.150000
vertex 0.008376 0.007557 0.150000
vertex 0.007386 0.007415 0.150000
endloop
endfacet
facet normal 0.000000 0.000000 1.000000
outer loop
vertex 0.007386 0.007415 0.150000
vertex 0.006973 0.007342 0.150000
vertex 0.006584 0.007262 0.150000
endloop
endfacet
facet normal -0.000183 0.000000 1.000000
outer loop
vertex 0.006584 0.007262 0.150000
vertex 0.006259 0.007177 0.150000
vertex 0.005302 0.006803 0.150000
endloop
endfacet
facet normal -0.001167 0.000000 0.999999
outer loop
vertex 0.005302 0.006803 0.150000
vertex 0.004685 0.006548 0.150000
vertex 0.004302 0.006380 0.150000
endloop
endfacet
facet normal 0.000343 0.000000 1.000000
outer loop
vertex 0.004302 0.006380 0.150000
vertex 0.003985 0.006227 0.150000
vertex 0.002304 0.005150 0.150000
endloop
endfacet
facet normal -0.000045 0.000000 1.000000
outer loop
vertex 0.002304 0.005150 0.150000
vertex 0.000784 0.003752 0.150000
vertex 0.000242 0.003040 0.150000
endloop
endfacet
facet normal 0.000000 0.000000 1.000000
outer loop
vertex 0.000242 0.003040 0.150000
vertex 0.000150 0.002680 0.150000
vertex 0.000023 0.002087 0.150000
endloop
endfacet
facet normal -0.000425 0.000000 1.000000
outer loop
vertex 0.000023 0.002087 0.150000
vertex 0.000000 0.001818 0.150000
vertex 0.000041 0.001549 0.150000
endloop
endfacet
facet normal 0.000000 0.000000 1.000000
outer loop
vertex 0.000041 0.001549 0.150000
vertex 0.000172 0.001267 0.150000
vertex 0.000883 0.000302 0.150000
endloop
endfacet
facet normal 0.000000 0.000000 1.000000
outer loop
vertex 0.000883 0.000302 0.150000
vertex 0.001106 0.000124 0.150000
vertex 0.001396 0.000020 0.150000
endloop
endfacet
facet normal 0.000000 0.000000 1.000000
outer loop
vertex 0.001396 0.000020 0.150000
vertex 0.001785 0.000007 0.150000
vertex 0.002974 0.000257 0.150000
endloop
endfacet
facet normal 0.000028 0.000000 1.000000
outer loop
vertex 0.002974 0.000257 0.150000
vertex 0.005207 0.001251 0.150000
vertex 0.007219 0.003085 0.150000
endloop
endfacet
facet normal 0.000058 0.000000 1.000000
outer loop
vertex 0.002974 0.000257 0.150000
vertex 0.007219 0.003085 0.150000
vertex 0.007352 0.003219 0.150000
endloop
endfacet
facet normal 0.000000 0.000000 1.000000
outer loop
vertex 0.000883 0.000302 0.150000
vertex 0.001396 0.000020 0.150000
vertex 0.002974 0.000257 0.150000
endloop
endfacet
facet normal 0.000067 0.000000 1.000000
outer loop
vertex 0.000023 0.002087 0.150000
vertex 0.000041 0.001549 0.150000
vertex 0.000883 0.000302 0.150000
endloop
endfacet
facet normal 0.000039 0.000000 1.000000
outer loop
vertex 0.002304 0.005150 0.150000
vertex 0.000242 0.003040 0.150000
vertex 0.000023 0.002087 0.150000
endloop
endfacet
facet normal -0.000075 0.000000 1.000000
outer loop
vertex 0.005302 0.006803 0.150000
vertex 0.004302 0.006380 0.150000
vertex 0.002304 0.005150 0.150000
endloop
endfacet
facet normal 0.000000 0.000000 1.000000
outer loop
vertex 0.007386 0.007415 0.150000
vertex 0.006584 0.007262 0.150000
vertex 0.005302 0.006803 0.150000
endloop
endfacet
facet normal 0.000010 0.000000 1.000000
outer loop
vertex 0.008850 0.007020 0.150000
vertex 0.008571 0.007477 0.150000
vertex 0.007386 0.007415 0.150000
endloop
endfacet
facet normal -0.000091 0.000000 1.000000
outer loop
vertex 0.008976 0.005249 0.150000
vertex 0.009113 0.005866 0.150000
vertex 0.008850 0.007020 0.150000
endloop
endfacet
facet normal 0.008911 0.000000 0.999960
outer loop
vertex 0.008448 0.004555 0.150000
vertex 0.008571 0.004713 0.150000
vertex 0.008976 0.005249 0.150000
endloop
endfacet
facet normal 0.000000 0.000000 1.000000
outer loop
vertex 0.008448 0.004555 0.150000
vertex 0.008976 0.005249 0.150000
vertex 0.008850 0.007020 0.150000
endloop
endfacet
facet normal 0.000000 0.000000 1.000000
outer loop
vertex 0.008850 0.007020 0.150000
vertex 0.007386 0.007415 0.150000
vertex 0.005302 0.006803 0.150000
endloop
endfacet
facet normal 0.000011 0.000000 1.000000
outer loop
vertex 0.005302 0.006803 0.150000
vertex 0.002304 0.005150 0.150000
vertex 0.000023 0.002087 0.150000
endloop
endfacet
facet normal -0.000005 0.000000 1.000000
outer loop
vertex 0.000023 0.002087 0.150000
vertex 0.000883 0.000302 0.150000
vertex 0.002974 0.000257 0.150000
endloop
endfacet
facet normal -0.001058 0.000000 0.999999
outer loop
vertex 0.002974 0.000257 0.150000
vertex 0.007352 0.003219 0.150000
vertex 0.007414 0.003268 0.150000
endloop
endfacet
facet normal 0.000000 0.000000 1.000000
outer loop
vertex 0.007474 0.003311 0.150000
vertex 0.007533 0.003352 0.150000
vertex 0.007594 0.003396 0.150000
endloop
endfacet
facet normal 0.002138 0.000000 0.999998
outer loop
vertex 0.002974 0.000257 0.150000
vertex 0.007414 0.003268 0.150000
vertex 0.007474 0.003311 0.150000
endloop
endfacet
facet normal -0.000007 0.000000 1.000000
outer loop
vertex 0.005302 0.006803 0.150000
vertex 0.000023 0.002087 0.150000
vertex 0.002974 0.000257 0.150000
endloop
endfacet
facet normal 0.000004 0.000000 1.000000
outer loop
vertex 0.008448 0.004555 0.150000
vertex 0.008850 0.007020 0.150000
vertex 0.005302 0.006803 0.150000
endloop
endfacet
facet normal -0.000070 0.000000 1.000000
outer loop
vertex 0.008323 0.004378 0.150000
vertex 0.008448 0.004555 0.150000
vertex 0.005302 0.006803 0.150000
endloop
endfacet
facet normal 0.000003 0.000000 1.000000
outer loop
vertex 0.005302 0.006803 0.150000
vertex 0.002974 0.000257 0.150000
vertex 0.007474 0.003311 0.150000
endloop
endfacet
facet normal 0.000000 0.000000 1.000000
outer loop
vertex 0.007474 0.003311 0.150000
vertex 0.007594 0.003396 0.150000
vertex 0.007658 0.003448 0.150000
endloop
endfacet
facet normal 0.000000 0.000000 1.000000
outer loop
vertex 0.007658 0.003448 0.150000
vertex 0.007802 0.003592 0.150000
vertex 0.007885 0.003694 0.150000
endloop
endfacet
facet normal 0.000000 0.000000 1.000000
outer loop
vertex 0.007885 0.003694 0.150000
vertex 0.007977 0.003823 0.150000
vertex 0.008081 0.003982 0.150000
endloop
endfacet
facet normal 0.000064 0.000000 1.000000
outer loop
vertex 0.008198 0.004177 0.150000
vertex 0.008323 0.004378 0.150000
vertex 0.005302 0.006803 0.150000
endloop
endfacet
facet normal -0.000780 0.000000 1.000000
outer loop
vertex 0.007885 0.003694 0.150000
vertex 0.008081 0.003982 0.150000
vertex 0.008198 0.004177 0.150000
endloop
endfacet
facet normal 0.000000 0.000000 1.000000
outer loop
vertex 0.007474 0.003311 0.150000
vertex 0.007658 0.003448 0.150000
vertex 0.007885 0.003694 0.150000
endloop
endfacet
facet normal 0.000000 0.000000 1.000000
outer loop
vertex 0.008198 0.004177 0.150000
vertex 0.005302 0.006803 0.150000
vertex 0.007474 0.003311 0.150000
endloop
endfacet
facet normal 0.000186 0.000000 1.000000
outer loop
vertex 0.007474 0.003311 0.150000
vertex 0.007885 0.003694 0.150000
vertex 0.008198 0.004177 0.150000
endloop
endfacet
facet normal -0.103627 -0.994616 0.000000
outer loop
vertex 0.001396 0.000020 0.150000
vertex 0.001396 0.000020 0.000000
vertex 0.001576 0.000001 0.000000
endloop
endfacet
facet normal -0.103627 -0.994616 0.000000
outer loop
vertex 0.001396 0.000020 0.150000
vertex 0.001576 0.000001 0.000000
vertex 0.001576 0.000001 0.150000
endloop
endfacet
facet normal -0.258744 -0.965946 0.000000
outer loop
vertex 0.001241 0.000061 0.150000
vertex 0.001241 0.000061 0.000000
vertex 0.001396 0.000020 0.000000
endloop
endfacet
facet normal -0.258744 -0.965946 0.000000
outer loop
vertex 0.001241 0.000061 0.150000
vertex 0.001396 0.000020 0.000000
vertex 0.001396 0.000020 0.150000
endloop
endfacet
facet normal -0.996862 -0.079155 0.000000
outer loop
vertex 0.000000 0.001818 0.150000
vertex 0.000000 0.001818 0.000000
vertex 0.000011 0.001684 0.000000
endloop
endfacet
facet normal -0.996862 -0.079155 0.000000
outer loop
vertex 0.000000 0.001818 0.150000
vertex 0.000011 0.001684 0.000000
vertex 0.000011 0.001684 0.150000
endloop
endfacet
facet normal -0.565884 -0.824485 0.000000
outer loop
vertex 0.000988 0.000205 0.150000
vertex 0.000988 0.000205 0.000000
vertex 0.001106 0.000124 0.000000
endloop
endfacet
facet normal -0.565884 -0.824485 0.000000
outer loop
vertex 0.000988 0.000205 0.150000
vertex 0.001106 0.000124 0.000000
vertex 0.001106 0.000124 0.150000
endloop
endfacet
facet normal 0.151853 -0.988403 0.000000
outer loop
vertex 0.001785 0.000007 0.000000
vertex 0.002536 0.000122 0.000000
vertex 0.002536 0.000122 0.150000
endloop
endfacet
facet normal 0.151853 -0.988403 0.000000
outer loop
vertex 0.001785 0.000007 0.000000
vertex 0.002536 0.000122 0.150000
vertex 0.001785 0.000007 0.150000
endloop
endfacet
facet normal 0.709356 -0.704851 0.000000
outer loop
vertex 0.007658 0.003448 0.150000
vertex 0.007658 0.003448 0.000000
vertex 0.007802 0.003592 0.000000
endloop
endfacet
facet normal 0.709356 -0.704851 0.000000
outer loop
vertex 0.007658 0.003448 0.150000
vertex 0.007802 0.003592 0.000000
vertex 0.007802 0.003592 0.150000
endloop
endfacet
facet normal 0.896654 -0.442733 0.000000
outer loop
vertex 0.008976 0.005249 0.150000
vertex 0.008976 0.005249 0.000000
vertex 0.009042 0.005384 0.000000
endloop
endfacet
facet normal 0.896645 -0.442750 0.000000
outer loop
vertex 0.008976 0.005249 0.150000
vertex 0.009042 0.005384 0.000000
vertex 0.009042 0.005384 0.150000
endloop
endfacet
facet normal -0.949771 0.312945 0.000000
outer loop
vertex 0.000242 0.003040 0.150000
vertex 0.000242 0.003040 0.000000
vertex 0.000179 0.002849 0.000000
endloop
endfacet
facet normal -0.949771 0.312945 0.000000
outer loop
vertex 0.000242 0.003040 0.150000
vertex 0.000179 0.002849 0.000000
vertex 0.000179 0.002849 0.150000
endloop
endfacet
facet normal 0.029433 -0.999567 0.000000
outer loop
vertex 0.001576 0.000001 0.150000
vertex 0.001576 0.000001 0.000000
vertex 0.001785 0.000007 0.000000
endloop
endfacet
facet normal 0.029433 -0.999567 0.000000
outer loop
vertex 0.001576 0.000001 0.150000
vertex 0.001785 0.000007 0.000000
vertex 0.001785 0.000007 0.150000
endloop
endfacet
facet normal 0.000000 0.000000 1.000000
outer loop
vertex 0.001586 0.004521 0.000000
vertex 0.001311 0.004271 0.000000
vertex 0.001039 0.004012 0.000000
endloop
endfacet
facet normal -0.712533 0.701638 0.000000
outer loop
vertex 0.001039 0.004012 0.000000
vertex 0.000784 0.003752 0.000000
vertex 0.000784 0.003752 0.150000
endloop
endfacet
facet normal -0.712533 0.701638 0.000000
outer loop
vertex 0.001039 0.004012 0.000000
vertex 0.000784 0.003752 0.150000
vertex 0.001039 0.004012 0.150000
endloop
endfacet
facet normal 0.000000 0.000000 1.000000
outer loop
vertex 0.002304 0.005150 0.000000
vertex 0.001586 0.004521 0.000000
vertex 0.001039 0.004012 0.000000
endloop
endfacet
facet normal -0.708197 0.706015 0.000000
outer loop
vertex 0.002566 0.005396 0.150000
vertex 0.002566 0.005396 0.000000
vertex 0.002465 0.005295 0.000000
endloop
endfacet
facet normal -0.668867 0.743382 0.000000
outer loop
vertex 0.002304 0.005150 0.000000
vertex 0.001039 0.004012 0.000000
vertex 0.001039 0.004012 0.150000
endloop
endfacet
facet normal -0.669628 0.742696 -0.000050
outer loop
vertex 0.002566 0.005396 0.150000
vertex 0.002465 0.005295 0.000000
vertex 0.002304 0.005150 0.000000
endloop
endfacet
facet normal -0.708199 0.706012 0.000077
outer loop
vertex 0.002465 0.005295 0.150000
vertex 0.002566 0.005396 0.150000
vertex 0.002304 0.005150 0.000000
endloop
endfacet
facet normal -0.689281 0.724494 -0.000315
outer loop
vertex 0.002304 0.005150 0.000000
vertex 0.001039 0.004012 0.150000
vertex 0.001311 0.004271 0.150000
endloop
endfacet
facet normal -0.672938 0.739699 -0.000118
outer loop
vertex 0.002304 0.005150 0.000000
vertex 0.001311 0.004271 0.150000
vertex 0.001586 0.004521 0.150000
endloop
endfacet
facet normal -0.669627 0.742697 0.000000
outer loop
vertex 0.002304 0.005150 0.150000
vertex 0.002465 0.005295 0.150000
vertex 0.002304 0.005150 0.000000
endloop
endfacet
facet normal -0.659096 0.752059 0.000000
outer loop
vertex 0.001586 0.004521 0.150000
vertex 0.002304 0.005150 0.150000
vertex 0.002304 0.005150 0.000000
endloop
endfacet
facet normal -0.446119 0.894973 0.000000
outer loop
vertex 0.004133 0.006301 0.000000
vertex 0.003985 0.006227 0.000000
vertex 0.003985 0.006227 0.150000
endloop
endfacet
facet normal -0.446117 0.894974 0.000000
outer loop
vertex 0.004133 0.006301 0.000000
vertex 0.003985 0.006227 0.150000
vertex 0.004133 0.006301 0.150000
endloop
endfacet
facet normal -0.423603 0.905848 0.000000
outer loop
vertex 0.004302 0.006380 0.000000
vertex 0.004133 0.006301 0.000000
vertex 0.004133 0.006301 0.150000
endloop
endfacet
facet normal -0.423602 0.905849 0.000000
outer loop
vertex 0.004302 0.006380 0.000000
vertex 0.004133 0.006301 0.150000
vertex 0.004302 0.006380 0.150000
endloop
endfacet
facet normal -0.407808 0.913068 0.000000
outer loop
vertex 0.004488 0.006463 0.000000
vertex 0.004302 0.006380 0.000000
vertex 0.004302 0.006380 0.150000
endloop
endfacet
facet normal -0.407807 0.913068 0.000000
outer loop
vertex 0.004488 0.006463 0.000000
vertex 0.004302 0.006380 0.150000
vertex 0.004488 0.006463 0.150000
endloop
endfacet
facet normal -0.396223 0.918154 0.000000
outer loop
vertex 0.004685 0.006548 0.000000
vertex 0.004488 0.006463 0.000000
vertex 0.004488 0.006463 0.150000
endloop
endfacet
facet normal -0.396225 0.918154 0.000000
outer loop
vertex 0.004685 0.006548 0.000000
vertex 0.004488 0.006463 0.150000
vertex 0.004685 0.006548 0.150000
endloop
endfacet
facet normal -0.387479 0.921878 0.000000
outer loop
vertex 0.004890 0.006634 0.000000
vertex 0.004685 0.006548 0.000000
vertex 0.004685 0.006548 0.150000
endloop
endfacet
facet normal -0.387478 0.921879 0.000000
outer loop
vertex 0.004890 0.006634 0.000000
vertex 0.004685 0.006548 0.150000
vertex 0.004890 0.006634 0.150000
endloop
endfacet
facet normal -0.378220 0.925716 0.000000
outer loop
vertex 0.005302 0.006803 0.000000
vertex 0.004890 0.006634 0.000000
vertex 0.004890 0.006634 0.150000
endloop
endfacet
facet normal -0.378220 0.925716 0.000000
outer loop
vertex 0.005302 0.006803 0.000000
vertex 0.004890 0.006634 0.150000
vertex 0.005302 0.006803 0.150000
endloop
endfacet
facet normal -0.330818 0.943695 0.000000
outer loop
vertex 0.006259 0.007177 0.150000
vertex 0.006259 0.007177 0.000000
vertex 0.006133 0.007133 0.000000
endloop
endfacet
facet normal -0.369123 0.929381 0.000000
outer loop
vertex 0.006133 0.007133 0.000000
vertex 0.005302 0.006803 0.000000
vertex 0.005302 0.006803 0.150000
endloop
endfacet
facet normal -0.330816 0.943695 0.000000
outer loop
vertex 0.006133 0.007133 0.150000
vertex 0.006259 0.007177 0.150000
vertex 0.006133 0.007133 0.000000
endloop
endfacet
facet normal -0.369123 0.929381 0.000000
outer loop
vertex 0.005302 0.006803 0.150000
vertex 0.006133 0.007133 0.150000
vertex 0.006133 0.007133 0.000000
endloop
endfacet
facet normal -0.755327 -0.655348 0.000000
outer loop
vertex 0.000786 0.000414 0.150000
vertex 0.000786 0.000414 0.000000
vertex 0.000883 0.000302 0.000000
endloop
endfacet
facet normal -0.755328 -0.655347 0.000000
outer loop
vertex 0.000786 0.000414 0.150000
vertex 0.000883 0.000302 0.000000
vertex 0.000883 0.000302 0.150000
endloop
endfacet
facet normal 0.000000 0.000000 1.000000
outer loop
vertex 0.007179 0.007380 0.000000
vertex 0.006973 0.007342 0.000000
vertex 0.006773 0.007303 0.000000
endloop
endfacet
facet normal 0.000000 0.000000 1.000000
outer loop
vertex 0.006773 0.007303 0.000000
vertex 0.006584 0.007262 0.000000
vertex 0.006411 0.007220 0.000000
endloop
endfacet
facet normal -0.236877 0.971540 0.000000
outer loop
vertex 0.006411 0.007220 0.000000
vertex 0.006411 0.007220 0.150000
vertex 0.006584 0.007262 0.150000
endloop
endfacet
facet normal -0.211287 0.977424 -0.000031
outer loop
vertex 0.006411 0.007220 0.000000
vertex 0.006584 0.007262 0.150000
vertex 0.006773 0.007303 0.150000
endloop
endfacet
facet normal 0.000000 0.000000 1.000000
outer loop
vertex 0.007179 0.007380 0.000000
vertex 0.006773 0.007303 0.000000
vertex 0.006411 0.007220 0.000000
endloop
endfacet
facet normal 0.000000 0.000000 1.000000
outer loop
vertex 0.008260 0.007553 0.000000
vertex 0.007386 0.007415 0.000000
vertex 0.007179 0.007380 0.000000
endloop
endfacet
facet normal -0.155999 0.987757 0.000000
outer loop
vertex 0.007386 0.007415 0.150000
vertex 0.008260 0.007553 0.150000
vertex 0.008260 0.007553 0.000000
endloop
endfacet
facet normal -0.168831 0.985645 -0.000077
outer loop
vertex 0.007179 0.007380 0.150000
vertex 0.007386 0.007415 0.150000
vertex 0.008260 0.007553 0.000000
endloop
endfacet
facet normal 0.000000 0.000000 1.000000
outer loop
vertex 0.008260 0.007553 0.000000
vertex 0.007179 0.007380 0.000000
vertex 0.006411 0.007220 0.000000
endloop
endfacet
facet normal -0.192793 0.981240 -0.000078
outer loop
vertex 0.006411 0.007220 0.000000
vertex 0.006773 0.007303 0.150000
vertex 0.006973 0.007342 0.150000
endloop
endfacet
facet normal -0.179083 0.983834 -0.000153
outer loop
vertex 0.006973 0.007342 0.150000
vertex 0.007179 0.007380 0.150000
vertex 0.008260 0.007553 0.000000
endloop
endfacet
facet normal -0.177410 0.984137 -0.000138
outer loop
vertex 0.006411 0.007220 0.000000
vertex 0.006973 0.007342 0.150000
vertex 0.008260 0.007553 0.000000
endloop
endfacet
facet normal 0.951004 -0.309179 0.000000
outer loop
vertex 0.009042 0.005384 0.150000
vertex 0.009042 0.005384 0.000000
vertex 0.009089 0.005528 0.000000
endloop
endfacet
facet normal 0.951007 -0.309170 0.000000
outer loop
vertex 0.009042 0.005384 0.150000
vertex 0.009089 0.005528 0.000000
vertex 0.009089 0.005528 0.150000
endloop
endfacet
facet normal -0.859484 0.511163 0.000000
outer loop
vertex 0.000372 0.003259 0.150000
vertex 0.000372 0.003259 0.000000
vertex 0.000242 0.003040 0.000000
endloop
endfacet
facet normal -0.859484 0.511163 0.000000
outer loop
vertex 0.000372 0.003259 0.150000
vertex 0.000242 0.003040 0.000000
vertex 0.000242 0.003040 0.150000
endloop
endfacet
facet normal -0.976314 -0.216357 0.000000
outer loop
vertex 0.000011 0.001684 0.150000
vertex 0.000011 0.001684 0.000000
vertex 0.000041 0.001549 0.000000
endloop
endfacet
facet normal -0.976314 -0.216357 0.000000
outer loop
vertex 0.000011 0.001684 0.150000
vertex 0.000041 0.001549 0.000000
vertex 0.000041 0.001549 0.150000
endloop
endfacet
facet normal 0.888309 0.459246 0.000000
outer loop
vertex 0.008792 0.007166 0.150000
vertex 0.008792 0.007166 0.000000
vertex 0.008726 0.007292 0.000000
endloop
endfacet
facet normal 0.888305 0.459255 0.000000
outer loop
vertex 0.008792 0.007166 0.150000
vertex 0.008726 0.007292 0.000000
vertex 0.008726 0.007292 0.150000
endloop
endfacet
facet normal -0.678779 -0.734343 0.000000
outer loop
vertex 0.000883 0.000302 0.150000
vertex 0.000883 0.000302 0.000000
vertex 0.000988 0.000205 0.000000
endloop
endfacet
facet normal -0.678779 -0.734343 0.000000
outer loop
vertex 0.000883 0.000302 0.150000
vertex 0.000988 0.000205 0.000000
vertex 0.000988 0.000205 0.150000
endloop
endfacet
facet normal -0.767822 0.640663 0.000000
outer loop
vertex 0.000784 0.003752 0.000000
vertex 0.000372 0.003259 0.000000
vertex 0.000372 0.003259 0.150000
endloop
endfacet
facet normal -0.767822 0.640663 0.000000
outer loop
vertex 0.000784 0.003752 0.000000
vertex 0.000372 0.003259 0.150000
vertex 0.000784 0.003752 0.150000
endloop
endfacet
facet normal 0.246313 0.969190 0.000000
outer loop
vertex 0.008479 0.007531 0.150000
vertex 0.008479 0.007531 0.000000
vertex 0.008376 0.007557 0.000000
endloop
endfacet
facet normal 0.246317 0.969189 0.000000
outer loop
vertex 0.008479 0.007531 0.150000
vertex 0.008376 0.007557 0.000000
vertex 0.008376 0.007557 0.150000
endloop
endfacet
facet normal -0.875996 -0.482317 0.000000
outer loop
vertex 0.000093 0.001411 0.150000
vertex 0.000093 0.001411 0.000000
vertex 0.000172 0.001267 0.000000
endloop
endfacet
facet normal -0.875997 -0.482317 0.000000
outer loop
vertex 0.000093 0.001411 0.150000
vertex 0.000172 0.001267 0.000000
vertex 0.000172 0.001267 0.150000
endloop
endfacet
facet normal -0.273843 0.961774 0.000000
outer loop
vertex 0.006411 0.007220 0.150000
vertex 0.006411 0.007220 0.000000
vertex 0.006259 0.007177 0.000000
endloop
endfacet
facet normal -0.273843 0.961774 0.000000
outer loop
vertex 0.006411 0.007220 0.150000
vertex 0.006259 0.007177 0.000000
vertex 0.006259 0.007177 0.150000
endloop
endfacet
facet normal 0.292706 -0.956203 0.000000
outer loop
vertex 0.002974 0.000257 0.000000
vertex 0.002974 0.000257 0.150000
vertex 0.002536 0.000122 0.150000
endloop
endfacet
facet normal 0.292706 -0.956203 0.000000
outer loop
vertex 0.002974 0.000257 0.000000
vertex 0.002536 0.000122 0.150000
vertex 0.002536 0.000122 0.000000
endloop
endfacet
facet normal 0.707369 -0.706845 0.000000
outer loop
vertex 0.007219 0.003085 0.150000
vertex 0.007219 0.003085 0.000000
vertex 0.007352 0.003219 0.000000
endloop
endfacet
facet normal 0.707373 -0.706841 0.000000
outer loop
vertex 0.007219 0.003085 0.150000
vertex 0.007352 0.003219 0.000000
vertex 0.007352 0.003219 0.150000
endloop
endfacet
facet normal -0.505501 0.862826 0.000000
outer loop
vertex 0.003985 0.006227 0.000000
vertex 0.002566 0.005396 0.000000
vertex 0.002566 0.005396 0.150000
endloop
endfacet
facet normal -0.505501 0.862826 0.000000
outer loop
vertex 0.003985 0.006227 0.000000
vertex 0.002566 0.005396 0.150000
vertex 0.003985 0.006227 0.150000
endloop
endfacet
facet normal 0.441777 -0.897125 0.000000
outer loop
vertex 0.005843 0.001520 0.000000
vertex 0.005932 0.001564 0.000000
vertex 0.005932 0.001564 0.150000
endloop
endfacet
facet normal 0.441780 -0.897124 0.000000
outer loop
vertex 0.005843 0.001520 0.000000
vertex 0.005932 0.001564 0.150000
vertex 0.005843 0.001520 0.150000
endloop
endfacet
facet normal 0.000000 0.000000 -1.000000
outer loop
vertex 0.005207 0.001251 0.000000
vertex 0.005326 0.001303 0.000000
vertex 0.005749 0.001478 0.000000
endloop
endfacet
facet normal 0.408074 -0.912949 0.000000
outer loop
vertex 0.005749 0.001478 0.000000
vertex 0.005843 0.001520 0.000000
vertex 0.005843 0.001520 0.150000
endloop
endfacet
facet normal 0.408074 -0.912949 0.000000
outer loop
vertex 0.005749 0.001478 0.000000
vertex 0.005843 0.001520 0.150000
vertex 0.005749 0.001478 0.150000
endloop
endfacet
facet normal 0.000000 0.000000 -1.000000
outer loop
vertex 0.003390 0.000428 0.000000
vertex 0.005207 0.001251 0.000000
vertex 0.005749 0.001478 0.000000
endloop
endfacet
facet normal 0.406609 -0.913602 0.000000
outer loop
vertex 0.003390 0.000428 0.000000
vertex 0.005749 0.001478 0.000000
vertex 0.005749 0.001478 0.150000
endloop
endfacet
facet normal 0.382910 -0.923785 0.000444
outer loop
vertex 0.003390 0.000428 0.000000
vertex 0.005749 0.001478 0.150000
vertex 0.005326 0.001303 0.150000
endloop
endfacet
facet normal 0.399122 -0.916898 0.000195
outer loop
vertex 0.003249 0.000367 0.000000
vertex 0.003390 0.000428 0.000000
vertex 0.005326 0.001303 0.150000
endloop
endfacet
facet normal 0.400861 -0.916139 0.000166
outer loop
vertex 0.003249 0.000367 0.000000
vertex 0.005326 0.001303 0.150000
vertex 0.005207 0.001251 0.150000
endloop
endfacet
facet normal 0.361452 -0.932391 0.000000
outer loop
vertex 0.002974 0.000257 0.150000
vertex 0.002974 0.000257 0.000000
vertex 0.003111 0.000310 0.000000
endloop
endfacet
facet normal 0.384399 -0.923167 0.000422
outer loop
vertex 0.003111 0.000310 0.000000
vertex 0.003249 0.000367 0.000000
vertex 0.005207 0.001251 0.150000
endloop
endfacet
facet normal 0.412388 -0.911008 -0.000045
outer loop
vertex 0.003111 0.000310 0.000000
vertex 0.005207 0.001251 0.150000
vertex 0.003390 0.000428 0.150000
endloop
endfacet
facet normal 0.361452 -0.932391 0.000000
outer loop
vertex 0.003111 0.000310 0.150000
vertex 0.002974 0.000257 0.150000
vertex 0.003111 0.000310 0.000000
endloop
endfacet
facet normal 0.399121 -0.916898 -0.000016
outer loop
vertex 0.003111 0.000310 0.000000
vertex 0.003390 0.000428 0.150000
vertex 0.003249 0.000367 0.150000
endloop
endfacet
facet normal 0.384399 -0.923167 0.000000
outer loop
vertex 0.003249 0.000367 0.150000
vertex 0.003111 0.000310 0.150000
vertex 0.003111 0.000310 0.000000
endloop
endfacet
facet normal 0.513463 -0.858112 0.000000
outer loop
vertex 0.005932 0.001564 0.000000
vertex 0.006103 0.001666 0.000000
vertex 0.006103 0.001666 0.150000
endloop
endfacet
facet normal 0.513464 -0.858111 0.000000
outer loop
vertex 0.005932 0.001564 0.000000
vertex 0.006103 0.001666 0.150000
vertex 0.005932 0.001564 0.150000
endloop
endfacet
facet normal -0.934498 -0.355970 0.000000
outer loop
vertex 0.000041 0.001549 0.150000
vertex 0.000041 0.001549 0.000000
vertex 0.000093 0.001411 0.000000
endloop
endfacet
facet normal -0.934498 -0.355970 0.000000
outer loop
vertex 0.000041 0.001549 0.150000
vertex 0.000093 0.001411 0.000000
vertex 0.000093 0.001411 0.150000
endloop
endfacet
facet normal 0.819362 0.573277 0.000000
outer loop
vertex 0.008726 0.007292 0.150000
vertex 0.008726 0.007292 0.000000
vertex 0.008653 0.007396 0.000000
endloop
endfacet
facet normal 0.819356 0.573285 0.000000
outer loop
vertex 0.008726 0.007292 0.150000
vertex 0.008653 0.007396 0.000000
vertex 0.008653 0.007396 0.150000
endloop
endfacet
facet normal 0.841545 -0.540188 0.000000
outer loop
vertex 0.008893 0.005120 0.000000
vertex 0.008976 0.005249 0.000000
vertex 0.008976 0.005249 0.150000
endloop
endfacet
facet normal 0.841554 -0.540173 0.000000
outer loop
vertex 0.008893 0.005120 0.000000
vertex 0.008976 0.005249 0.150000
vertex 0.008893 0.005120 0.150000
endloop
endfacet
facet normal 0.799804 -0.600261 0.000000
outer loop
vertex 0.008795 0.004990 0.000000
vertex 0.008893 0.005120 0.000000
vertex 0.008893 0.005120 0.150000
endloop
endfacet
facet normal 0.799813 -0.600249 0.000000
outer loop
vertex 0.008795 0.004990 0.000000
vertex 0.008893 0.005120 0.150000
vertex 0.008795 0.004990 0.150000
endloop
endfacet
facet normal 0.777936 -0.628343 0.000000
outer loop
vertex 0.008687 0.004856 0.000000
vertex 0.008795 0.004990 0.000000
vertex 0.008795 0.004990 0.150000
endloop
endfacet
facet normal 0.777936 -0.628343 0.000000
outer loop
vertex 0.008687 0.004856 0.000000
vertex 0.008795 0.004990 0.150000
vertex 0.008687 0.004856 0.150000
endloop
endfacet
facet normal 0.776028 -0.630699 0.000000
outer loop
vertex 0.008571 0.004713 0.000000
vertex 0.008687 0.004856 0.000000
vertex 0.008687 0.004856 0.150000
endloop
endfacet
facet normal 0.776032 -0.630694 0.000000
outer loop
vertex 0.008571 0.004713 0.000000
vertex 0.008687 0.004856 0.150000
vertex 0.008571 0.004713 0.150000
endloop
endfacet
facet normal 0.790606 -0.612325 0.000000
outer loop
vertex 0.008448 0.004555 0.000000
vertex 0.008571 0.004713 0.000000
vertex 0.008571 0.004713 0.150000
endloop
endfacet
facet normal 0.790610 -0.612320 0.000000
outer loop
vertex 0.008448 0.004555 0.000000
vertex 0.008571 0.004713 0.150000
vertex 0.008448 0.004555 0.150000
endloop
endfacet
facet normal 0.816680 -0.577091 0.000000
outer loop
vertex 0.008323 0.004378 0.000000
vertex 0.008448 0.004555 0.000000
vertex 0.008448 0.004555 0.150000
endloop
endfacet
facet normal 0.816680 -0.577091 0.000000
outer loop
vertex 0.008323 0.004378 0.000000
vertex 0.008448 0.004555 0.150000
vertex 0.008323 0.004378 0.150000
endloop
endfacet
facet normal 0.848965 -0.528449 0.000000
outer loop
vertex 0.008198 0.004177 0.000000
vertex 0.008323 0.004378 0.000000
vertex 0.008323 0.004378 0.150000
endloop
endfacet
facet normal 0.848962 -0.528453 0.000000
outer loop
vertex 0.008198 0.004177 0.000000
vertex 0.008323 0.004378 0.150000
vertex 0.008198 0.004177 0.150000
endloop
endfacet
facet normal 0.857497 -0.514489 0.000000
outer loop
vertex 0.008081 0.003982 0.000000
vertex 0.008198 0.004177 0.000000
vertex 0.008198 0.004177 0.150000
endloop
endfacet
facet normal 0.857494 -0.514494 0.000000
outer loop
vertex 0.008081 0.003982 0.000000
vertex 0.008198 0.004177 0.150000
vertex 0.008081 0.003982 0.150000
endloop
endfacet
facet normal 0.837536 -0.546381 0.000000
outer loop
vertex 0.007977 0.003823 0.000000
vertex 0.008081 0.003982 0.000000
vertex 0.008081 0.003982 0.150000
endloop
endfacet
facet normal 0.837536 -0.546381 0.000000
outer loop
vertex 0.007977 0.003823 0.000000
vertex 0.008081 0.003982 0.150000
vertex 0.007977 0.003823 0.150000
endloop
endfacet
facet normal 0.776511 -0.630104 0.000000
outer loop
vertex 0.007802 0.003592 0.150000
vertex 0.007802 0.003592 0.000000
vertex 0.007885 0.003694 0.000000
endloop
endfacet
facet normal 0.811127 -0.584869 0.000000
outer loop
vertex 0.007885 0.003694 0.000000
vertex 0.007977 0.003823 0.000000
vertex 0.007977 0.003823 0.150000
endloop
endfacet
facet normal 0.776511 -0.630104 0.000000
outer loop
vertex 0.007885 0.003694 0.150000
vertex 0.007802 0.003592 0.150000
vertex 0.007885 0.003694 0.000000
endloop
endfacet
facet normal 0.811127 -0.584869 0.000000
outer loop
vertex 0.007977 0.003823 0.150000
vertex 0.007885 0.003694 0.150000
vertex 0.007885 0.003694 0.000000
endloop
endfacet
facet normal 0.814205 -0.580578 0.000000
outer loop
vertex 0.006424 0.001970 0.000000
vertex 0.007219 0.003085 0.000000
vertex 0.007219 0.003085 0.150000
endloop
endfacet
facet normal 0.814205 -0.580578 0.000000
outer loop
vertex 0.006424 0.001970 0.000000
vertex 0.007219 0.003085 0.150000
vertex 0.006424 0.001970 0.150000
endloop
endfacet
facet normal 0.999997 0.002295 0.000000
outer loop
vertex 0.009114 0.005687 0.150000
vertex 0.009114 0.005687 0.000000
vertex 0.009113 0.005866 0.000000
endloop
endfacet
facet normal 0.999997 0.002295 0.000000
outer loop
vertex 0.009114 0.005687 0.150000
vertex 0.009113 0.005866 0.000000
vertex 0.009113 0.005866 0.150000
endloop
endfacet
facet normal -0.034131 0.999417 0.000000
outer loop
vertex 0.008376 0.007557 0.150000
vertex 0.008376 0.007557 0.000000
vertex 0.008260 0.007553 0.000000
endloop
endfacet
facet normal -0.034131 0.999417 0.000000
outer loop
vertex 0.008376 0.007557 0.150000
vertex 0.008260 0.007553 0.000000
vertex 0.008260 0.007553 0.150000
endloop
endfacet
endsolid Exported from Blender-3.6.8
