solid Exported from Blender-3.6.8
facet normal -0.542631 0.839971 0.000000
outer loop
vertex 0.001507 0.008430 0.000000
vertex 0.001325 0.008312 0.000000
vertex 0.001325 0.008312 0.150000
endloop
endfacet
facet normal -0.542631 0.839971 0.000000
outer loop
vertex 0.001507 0.008430 0.000000
vertex 0.001325 0.008312 0.150000
vertex 0.001507 0.008430 0.150000
endloop
endfacet
facet normal -0.991856 0.127367 0.000000
outer loop
vertex 0.000121 0.005120 0.000000
vertex 0.000083 0.004826 0.000000
vertex 0.000083 0.004826 0.150000
endloop
endfacet
facet normal -0.991856 0.127367 0.000000
outer loop
vertex 0.000121 0.005120 0.000000
vertex 0.000083 0.004826 0.150000
vertex 0.000121 0.005120 0.150000
endloop
endfacet
facet normal -0.988526 0.151051 0.000000
outer loop
vertex 0.000168 0.005432 0.000000
vertex 0.000121 0.005120 0.000000
vertex 0.000121 0.005120 0.150000
endloop
endfacet
facet normal -0.988526 0.151051 0.000000
outer loop
vertex 0.000168 0.005432 0.000000
vertex 0.000121 0.005120 0.150000
vertex 0.000168 0.005432 0.150000
endloop
endfacet
facet normal -0.985799 0.167932 0.000000
outer loop
vertex 0.000223 0.005751 0.000000
vertex 0.000168 0.005432 0.000000
vertex 0.000168 0.005432 0.150000
endloop
endfacet
facet normal -0.985799 0.167932 0.000000
outer loop
vertex 0.000223 0.005751 0.000000
vertex 0.000168 0.005432 0.150000
vertex 0.000223 0.005751 0.150000
endloop
endfacet
facet normal -0.983637 0.180159 0.000000
outer loop
vertex 0.000281 0.006069 0.000000
vertex 0.000223 0.005751 0.000000
vertex 0.000223 0.005751 0.150000
endloop
endfacet
facet normal -0.983637 0.180159 0.000000
outer loop
vertex 0.000281 0.006069 0.000000
vertex 0.000223 0.005751 0.150000
vertex 0.000281 0.006069 0.150000
endloop
endfacet
facet normal -0.987205 0.159459 0.000000
outer loop
vertex 0.000539 0.007400 0.150000
vertex 0.000539 0.007400 0.000000
vertex 0.000522 0.007294 0.000000
endloop
endfacet
facet normal -0.981188 0.193053 0.000000
outer loop
vertex 0.000522 0.007294 0.000000
vertex 0.000281 0.006069 0.000000
vertex 0.000281 0.006069 0.150000
endloop
endfacet
facet normal -0.987205 0.159459 0.000000
outer loop
vertex 0.000522 0.007294 0.150000
vertex 0.000539 0.007400 0.150000
vertex 0.000522 0.007294 0.000000
endloop
endfacet
facet normal -0.981188 0.193053 0.000000
outer loop
vertex 0.000281 0.006069 0.150000
vertex 0.000522 0.007294 0.150000
vertex 0.000522 0.007294 0.000000
endloop
endfacet
facet normal 0.994002 -0.109365 0.000000
outer loop
vertex 0.006533 0.002325 0.150000
vertex 0.006533 0.002325 0.000000
vertex 0.006550 0.002482 0.000000
endloop
endfacet
facet normal 0.994003 -0.109355 0.000000
outer loop
vertex 0.006533 0.002325 0.150000
vertex 0.006550 0.002482 0.000000
vertex 0.006550 0.002482 0.150000
endloop
endfacet
facet normal -0.075311 -0.997160 0.000000
outer loop
vertex 0.003445 0.000016 0.150000
vertex 0.003445 0.000016 0.000000
vertex 0.003652 0.000000 0.000000
endloop
endfacet
facet normal -0.075311 -0.997160 0.000000
outer loop
vertex 0.003445 0.000016 0.150000
vertex 0.003652 0.000000 0.000000
vertex 0.003652 0.000000 0.150000
endloop
endfacet
facet normal 0.973483 -0.228758 0.000000
outer loop
vertex 0.006500 0.002188 0.150000
vertex 0.006500 0.002188 0.000000
vertex 0.006533 0.002325 0.000000
endloop
endfacet
facet normal 0.973485 -0.228752 0.000000
outer loop
vertex 0.006500 0.002188 0.150000
vertex 0.006533 0.002325 0.000000
vertex 0.006533 0.002325 0.150000
endloop
endfacet
facet normal 0.935788 -0.352563 0.000000
outer loop
vertex 0.006455 0.002067 0.150000
vertex 0.006455 0.002067 0.000000
vertex 0.006500 0.002188 0.000000
endloop
endfacet
facet normal 0.935786 -0.352568 0.000000
outer loop
vertex 0.006455 0.002067 0.150000
vertex 0.006500 0.002188 0.000000
vertex 0.006500 0.002188 0.150000
endloop
endfacet
facet normal -0.056507 0.998402 0.000000
outer loop
vertex 0.003072 0.008897 0.150000
vertex 0.003072 0.008897 0.000000
vertex 0.002772 0.008880 0.000000
endloop
endfacet
facet normal -0.056508 0.998402 0.000000
outer loop
vertex 0.003072 0.008897 0.150000
vertex 0.002772 0.008880 0.000000
vertex 0.002772 0.008880 0.150000
endloop
endfacet
facet normal 0.700607 0.713547 0.000000
outer loop
vertex 0.004449 0.008498 0.150000
vertex 0.004449 0.008498 0.000000
vertex 0.004371 0.008575 0.000000
endloop
endfacet
facet normal 0.700611 0.713543 0.000000
outer loop
vertex 0.004449 0.008498 0.150000
vertex 0.004371 0.008575 0.000000
vertex 0.004371 0.008575 0.150000
endloop
endfacet
facet normal 0.000000 0.000000 -1.000000
outer loop
vertex 0.000223 0.005751 0.000000
vertex 0.000281 0.006069 0.000000
vertex 0.000522 0.007294 0.000000
endloop
endfacet
facet normal 0.000000 0.000000 -1.000000
outer loop
vertex 0.000522 0.007294 0.000000
vertex 0.000539 0.007400 0.000000
vertex 0.000914 0.007863 0.000000
endloop
endfacet
facet normal 0.000000 0.000000 -1.000000
outer loop
vertex 0.000914 0.007863 0.000000
vertex 0.001056 0.008034 0.000000
vertex 0.001123 0.008113 0.000000
endloop
endfacet
facet normal 0.000000 0.000000 -1.000000
outer loop
vertex 0.001123 0.008113 0.000000
vertex 0.001184 0.008184 0.000000
vertex 0.001249 0.008249 0.000000
endloop
endfacet
facet normal 0.000000 0.000000 -1.000000
outer loop
vertex 0.001249 0.008249 0.000000
vertex 0.001325 0.008312 0.000000
vertex 0.001507 0.008430 0.000000
endloop
endfacet
facet normal 0.000000 0.000000 -1.000000
outer loop
vertex 0.001507 0.008430 0.000000
vertex 0.001724 0.008539 0.000000
vertex 0.001842 0.008590 0.000000
endloop
endfacet
facet normal 0.000000 0.000000 -1.000000
outer loop
vertex 0.001842 0.008590 0.000000
vertex 0.001965 0.008640 0.000000
vertex 0.002093 0.008687 0.000000
endloop
endfacet
facet normal 0.000000 0.000000 -1.000000
outer loop
vertex 0.002093 0.008687 0.000000
vertex 0.002224 0.008733 0.000000
vertex 0.002491 0.008820 0.000000
endloop
endfacet
facet normal 0.000000 0.000000 -1.000000
outer loop
vertex 0.002491 0.008820 0.000000
vertex 0.002629 0.008856 0.000000
vertex 0.002772 0.008880 0.000000
endloop
endfacet
facet normal 0.000000 0.000000 -1.000000
outer loop
vertex 0.002772 0.008880 0.000000
vertex 0.003072 0.008897 0.000000
vertex 0.003375 0.008878 0.000000
endloop
endfacet
facet normal 0.000000 0.000000 -1.000000
outer loop
vertex 0.003375 0.008878 0.000000
vertex 0.003670 0.008832 0.000000
vertex 0.004182 0.008686 0.000000
endloop
endfacet
facet normal 0.000000 0.000000 -1.000000
outer loop
vertex 0.004182 0.008686 0.000000
vertex 0.004283 0.008638 0.000000
vertex 0.004371 0.008575 0.000000
endloop
endfacet
facet normal 0.000000 0.000000 -1.000000
outer loop
vertex 0.004371 0.008575 0.000000
vertex 0.004449 0.008498 0.000000
vertex 0.004520 0.008407 0.000000
endloop
endfacet
facet normal 0.000000 0.000000 -1.000000
outer loop
vertex 0.004520 0.008407 0.000000
vertex 0.004587 0.008302 0.000000
vertex 0.004652 0.008181 0.000000
endloop
endfacet
facet normal 0.000000 0.000000 -1.000000
outer loop
vertex 0.004652 0.008181 0.000000
vertex 0.004718 0.008046 0.000000
vertex 0.004788 0.007897 0.000000
endloop
endfacet
facet normal 0.000000 0.000000 -1.000000
outer loop
vertex 0.004652 0.008181 0.000000
vertex 0.004788 0.007897 0.000000
vertex 0.004865 0.007732 0.000000
endloop
endfacet
facet normal 0.000000 0.000000 -1.000000
outer loop
vertex 0.004371 0.008575 0.000000
vertex 0.004520 0.008407 0.000000
vertex 0.004652 0.008181 0.000000
endloop
endfacet
facet normal 0.000000 0.000000 -1.000000
outer loop
vertex 0.003375 0.008878 0.000000
vertex 0.004182 0.008686 0.000000
vertex 0.004371 0.008575 0.000000
endloop
endfacet
facet normal 0.000000 0.000000 -1.000000
outer loop
vertex 0.002491 0.008820 0.000000
vertex 0.002772 0.008880 0.000000
vertex 0.003375 0.008878 0.000000
endloop
endfacet
facet normal 0.000000 0.000000 -1.000000
outer loop
vertex 0.001842 0.008590 0.000000
vertex 0.002093 0.008687 0.000000
vertex 0.002491 0.008820 0.000000
endloop
endfacet
facet normal 0.000000 0.000000 -1.000000
outer loop
vertex 0.001249 0.008249 0.000000
vertex 0.001507 0.008430 0.000000
vertex 0.001842 0.008590 0.000000
endloop
endfacet
facet normal 0.000000 0.000000 -1.000000
outer loop
vertex 0.000914 0.007863 0.000000
vertex 0.001123 0.008113 0.000000
vertex 0.001249 0.008249 0.000000
endloop
endfacet
facet normal 0.000000 0.000000 -1.000000
outer loop
vertex 0.000223 0.005751 0.000000
vertex 0.000522 0.007294 0.000000
vertex 0.000914 0.007863 0.000000
endloop
endfacet
facet normal 0.000000 0.000000 -1.000000
outer loop
vertex 0.000121 0.005120 0.000000
vertex 0.000168 0.005432 0.000000
vertex 0.000223 0.005751 0.000000
endloop
endfacet
facet normal 0.000000 0.000000 -1.000000
outer loop
vertex 0.000058 0.004559 0.000000
vertex 0.000083 0.004826 0.000000
vertex 0.000121 0.005120 0.000000
endloop
endfacet
facet normal 0.000000 0.000000 -1.000000
outer loop
vertex 0.000045 0.004128 0.000000
vertex 0.000049 0.004328 0.000000
vertex 0.000058 0.004559 0.000000
endloop
endfacet
facet normal 0.000000 0.000000 -1.000000
outer loop
vertex 0.000003 0.003430 0.000000
vertex 0.000012 0.003596 0.000000
vertex 0.000036 0.003941 0.000000
endloop
endfacet
facet normal 0.000000 0.000000 -1.000000
outer loop
vertex 0.000045 0.004128 0.000000
vertex 0.000058 0.004559 0.000000
vertex 0.000121 0.005120 0.000000
endloop
endfacet
facet normal 0.000000 0.000000 -1.000000
outer loop
vertex 0.000000 0.003265 0.000000
vertex 0.000003 0.003430 0.000000
vertex 0.000036 0.003941 0.000000
endloop
endfacet
facet normal 0.000000 0.000000 -1.000000
outer loop
vertex 0.000036 0.003941 0.000000
vertex 0.000045 0.004128 0.000000
vertex 0.000121 0.005120 0.000000
endloop
endfacet
facet normal 0.000000 0.000000 -1.000000
outer loop
vertex 0.000121 0.005120 0.000000
vertex 0.000223 0.005751 0.000000
vertex 0.000914 0.007863 0.000000
endloop
endfacet
facet normal 0.000000 0.000000 -1.000000
outer loop
vertex 0.000914 0.007863 0.000000
vertex 0.001249 0.008249 0.000000
vertex 0.001842 0.008590 0.000000
endloop
endfacet
facet normal 0.000000 0.000000 -1.000000
outer loop
vertex 0.001842 0.008590 0.000000
vertex 0.002491 0.008820 0.000000
vertex 0.003375 0.008878 0.000000
endloop
endfacet
facet normal 0.000000 0.000000 -1.000000
outer loop
vertex 0.003375 0.008878 0.000000
vertex 0.004371 0.008575 0.000000
vertex 0.004652 0.008181 0.000000
endloop
endfacet
facet normal 0.000000 0.000000 -1.000000
outer loop
vertex 0.003375 0.008878 0.000000
vertex 0.004652 0.008181 0.000000
vertex 0.004865 0.007732 0.000000
endloop
endfacet
facet normal 0.000000 0.000000 -1.000000
outer loop
vertex 0.000914 0.007863 0.000000
vertex 0.001842 0.008590 0.000000
vertex 0.003375 0.008878 0.000000
endloop
endfacet
facet normal 0.000000 0.000000 -1.000000
outer loop
vertex 0.000036 0.003941 0.000000
vertex 0.000121 0.005120 0.000000
vertex 0.000914 0.007863 0.000000
endloop
endfacet
facet normal 0.000000 0.000000 -1.000000
outer loop
vertex 0.000022 0.002920 0.000000
vertex 0.000000 0.003265 0.000000
vertex 0.000036 0.003941 0.000000
endloop
endfacet
facet normal 0.000000 0.000000 -1.000000
outer loop
vertex 0.000167 0.002315 0.000000
vertex 0.000100 0.002533 0.000000
vertex 0.000022 0.002920 0.000000
endloop
endfacet
facet normal 0.000000 0.000000 -1.000000
outer loop
vertex 0.000257 0.002076 0.000000
vertex 0.000167 0.002315 0.000000
vertex 0.000022 0.002920 0.000000
endloop
endfacet
facet normal 0.000000 0.000000 -1.000000
outer loop
vertex 0.000022 0.002920 0.000000
vertex 0.000036 0.003941 0.000000
vertex 0.000914 0.007863 0.000000
endloop
endfacet
facet normal 0.000000 0.000000 -1.000000
outer loop
vertex 0.000914 0.007863 0.000000
vertex 0.003375 0.008878 0.000000
vertex 0.004865 0.007732 0.000000
endloop
endfacet
facet normal 0.000000 0.000000 -1.000000
outer loop
vertex 0.000914 0.007863 0.000000
vertex 0.004865 0.007732 0.000000
vertex 0.004952 0.007551 0.000000
endloop
endfacet
facet normal 0.000000 0.000000 -1.000000
outer loop
vertex 0.000257 0.002076 0.000000
vertex 0.000022 0.002920 0.000000
vertex 0.000914 0.007863 0.000000
endloop
endfacet
facet normal 0.000000 0.000000 -1.000000
outer loop
vertex 0.000337 0.001843 0.000000
vertex 0.000257 0.002076 0.000000
vertex 0.000914 0.007863 0.000000
endloop
endfacet
facet normal 0.000000 0.000000 -1.000000
outer loop
vertex 0.000914 0.007863 0.000000
vertex 0.004952 0.007551 0.000000
vertex 0.005051 0.007356 0.000000
endloop
endfacet
facet normal 0.000000 0.000000 -1.000000
outer loop
vertex 0.005165 0.007145 0.000000
vertex 0.005285 0.006929 0.000000
vertex 0.005401 0.006717 0.000000
endloop
endfacet
facet normal 0.000000 0.000000 -1.000000
outer loop
vertex 0.000914 0.007863 0.000000
vertex 0.005051 0.007356 0.000000
vertex 0.005165 0.007145 0.000000
endloop
endfacet
facet normal 0.000000 0.000000 -1.000000
outer loop
vertex 0.000381 0.001641 0.000000
vertex 0.000337 0.001843 0.000000
vertex 0.000914 0.007863 0.000000
endloop
endfacet
facet normal 0.000000 0.000000 -1.000000
outer loop
vertex 0.000415 0.001185 0.000000
vertex 0.000408 0.001315 0.000000
vertex 0.000401 0.001466 0.000000
endloop
endfacet
facet normal 0.000000 0.000000 -1.000000
outer loop
vertex 0.000401 0.001466 0.000000
vertex 0.000381 0.001641 0.000000
vertex 0.000914 0.007863 0.000000
endloop
endfacet
facet normal 0.000000 0.000000 -1.000000
outer loop
vertex 0.000914 0.007863 0.000000
vertex 0.005165 0.007145 0.000000
vertex 0.005401 0.006717 0.000000
endloop
endfacet
facet normal 0.000000 0.000000 -1.000000
outer loop
vertex 0.005401 0.006717 0.000000
vertex 0.005512 0.006509 0.000000
vertex 0.005618 0.006304 0.000000
endloop
endfacet
facet normal 0.000000 0.000000 -1.000000
outer loop
vertex 0.005618 0.006304 0.000000
vertex 0.005719 0.006099 0.000000
vertex 0.005816 0.005894 0.000000
endloop
endfacet
facet normal 0.000000 0.000000 -1.000000
outer loop
vertex 0.005816 0.005894 0.000000
vertex 0.005909 0.005687 0.000000
vertex 0.006237 0.004819 0.000000
endloop
endfacet
facet normal 0.000000 0.000000 -1.000000
outer loop
vertex 0.006237 0.004819 0.000000
vertex 0.006309 0.004585 0.000000
vertex 0.006372 0.004362 0.000000
endloop
endfacet
facet normal 0.000000 0.000000 -1.000000
outer loop
vertex 0.006372 0.004362 0.000000
vertex 0.006422 0.004165 0.000000
vertex 0.006461 0.003991 0.000000
endloop
endfacet
facet normal 0.000000 0.000000 -1.000000
outer loop
vertex 0.006461 0.003991 0.000000
vertex 0.006509 0.003691 0.000000
vertex 0.006523 0.003555 0.000000
endloop
endfacet
facet normal 0.000000 0.000000 -1.000000
outer loop
vertex 0.006523 0.003555 0.000000
vertex 0.006531 0.003424 0.000000
vertex 0.006536 0.003292 0.000000
endloop
endfacet
facet normal 0.000000 0.000000 -1.000000
outer loop
vertex 0.006523 0.003555 0.000000
vertex 0.006536 0.003292 0.000000
vertex 0.006540 0.003006 0.000000
endloop
endfacet
facet normal 0.000000 0.000000 -1.000000
outer loop
vertex 0.006372 0.004362 0.000000
vertex 0.006461 0.003991 0.000000
vertex 0.006523 0.003555 0.000000
endloop
endfacet
facet normal 0.000000 0.000000 -1.000000
outer loop
vertex 0.005816 0.005894 0.000000
vertex 0.006237 0.004819 0.000000
vertex 0.006372 0.004362 0.000000
endloop
endfacet
facet normal 0.000000 0.000000 -1.000000
outer loop
vertex 0.005401 0.006717 0.000000
vertex 0.005618 0.006304 0.000000
vertex 0.005816 0.005894 0.000000
endloop
endfacet
facet normal 0.000000 0.000000 -1.000000
outer loop
vertex 0.000401 0.001466 0.000000
vertex 0.000914 0.007863 0.000000
vertex 0.005401 0.006717 0.000000
endloop
endfacet
facet normal 0.000000 0.000000 -1.000000
outer loop
vertex 0.000434 0.001071 0.000000
vertex 0.000415 0.001185 0.000000
vertex 0.000401 0.001466 0.000000
endloop
endfacet
facet normal 0.000000 0.000000 -1.000000
outer loop
vertex 0.000552 0.000879 0.000000
vertex 0.000475 0.000971 0.000000
vertex 0.000434 0.001071 0.000000
endloop
endfacet
facet normal 0.000000 0.000000 -1.000000
outer loop
vertex 0.000858 0.000710 0.000000
vertex 0.000676 0.000794 0.000000
vertex 0.000552 0.000879 0.000000
endloop
endfacet
facet normal 0.000000 0.000000 -1.000000
outer loop
vertex 0.001810 0.000439 0.000000
vertex 0.001111 0.000625 0.000000
vertex 0.000858 0.000710 0.000000
endloop
endfacet
facet normal 0.000000 0.000000 -1.000000
outer loop
vertex 0.002986 0.000107 0.000000
vertex 0.002728 0.000177 0.000000
vertex 0.001810 0.000439 0.000000
endloop
endfacet
facet normal 0.000000 0.000000 -1.000000
outer loop
vertex 0.003445 0.000016 0.000000
vertex 0.003223 0.000053 0.000000
vertex 0.002986 0.000107 0.000000
endloop
endfacet
facet normal 0.000000 0.000000 -1.000000
outer loop
vertex 0.003848 0.000009 0.000000
vertex 0.003652 0.000000 0.000000
vertex 0.003445 0.000016 0.000000
endloop
endfacet
facet normal 0.000000 0.000000 -1.000000
outer loop
vertex 0.004217 0.000113 0.000000
vertex 0.004035 0.000045 0.000000
vertex 0.003848 0.000009 0.000000
endloop
endfacet
facet normal 0.000000 0.000000 -1.000000
outer loop
vertex 0.005627 0.001077 0.000000
vertex 0.005439 0.000906 0.000000
vertex 0.004217 0.000113 0.000000
endloop
endfacet
facet normal 0.000000 0.000000 -1.000000
outer loop
vertex 0.005809 0.001285 0.000000
vertex 0.005718 0.001175 0.000000
vertex 0.005627 0.001077 0.000000
endloop
endfacet
facet normal 0.000000 0.000000 -1.000000
outer loop
vertex 0.005902 0.001395 0.000000
vertex 0.005809 0.001285 0.000000
vertex 0.005627 0.001077 0.000000
endloop
endfacet
facet normal 0.000000 0.000000 -1.000000
outer loop
vertex 0.005627 0.001077 0.000000
vertex 0.004217 0.000113 0.000000
vertex 0.003848 0.000009 0.000000
endloop
endfacet
facet normal 0.000000 0.000000 -1.000000
outer loop
vertex 0.003848 0.000009 0.000000
vertex 0.003445 0.000016 0.000000
vertex 0.002986 0.000107 0.000000
endloop
endfacet
facet normal 0.000000 0.000000 -1.000000
outer loop
vertex 0.002986 0.000107 0.000000
vertex 0.001810 0.000439 0.000000
vertex 0.000858 0.000710 0.000000
endloop
endfacet
facet normal 0.000000 0.000000 -1.000000
outer loop
vertex 0.000858 0.000710 0.000000
vertex 0.000552 0.000879 0.000000
vertex 0.000434 0.001071 0.000000
endloop
endfacet
facet normal 0.000000 0.000000 -1.000000
outer loop
vertex 0.000434 0.001071 0.000000
vertex 0.000401 0.001466 0.000000
vertex 0.005401 0.006717 0.000000
endloop
endfacet
facet normal 0.000000 0.000000 -1.000000
outer loop
vertex 0.005401 0.006717 0.000000
vertex 0.005816 0.005894 0.000000
vertex 0.006372 0.004362 0.000000
endloop
endfacet
facet normal 0.000000 0.000000 -1.000000
outer loop
vertex 0.006372 0.004362 0.000000
vertex 0.006523 0.003555 0.000000
vertex 0.006540 0.003006 0.000000
endloop
endfacet
facet normal 0.000000 0.000000 -1.000000
outer loop
vertex 0.006544 0.002844 0.000000
vertex 0.006550 0.002663 0.000000
vertex 0.006550 0.002482 0.000000
endloop
endfacet
facet normal 0.000000 0.000000 -1.000000
outer loop
vertex 0.006372 0.004362 0.000000
vertex 0.006540 0.003006 0.000000
vertex 0.006544 0.002844 0.000000
endloop
endfacet
facet normal 0.000000 0.000000 -1.000000
outer loop
vertex 0.000434 0.001071 0.000000
vertex 0.005401 0.006717 0.000000
vertex 0.006372 0.004362 0.000000
endloop
endfacet
facet normal 0.000000 0.000000 -1.000000
outer loop
vertex 0.002986 0.000107 0.000000
vertex 0.000858 0.000710 0.000000
vertex 0.000434 0.001071 0.000000
endloop
endfacet
facet normal 0.000000 0.000000 -1.000000
outer loop
vertex 0.005627 0.001077 0.000000
vertex 0.003848 0.000009 0.000000
vertex 0.002986 0.000107 0.000000
endloop
endfacet
facet normal 0.000000 0.000000 -1.000000
outer loop
vertex 0.005902 0.001395 0.000000
vertex 0.005627 0.001077 0.000000
vertex 0.002986 0.000107 0.000000
endloop
endfacet
facet normal 0.000000 0.000000 -1.000000
outer loop
vertex 0.002986 0.000107 0.000000
vertex 0.000434 0.001071 0.000000
vertex 0.006372 0.004362 0.000000
endloop
endfacet
facet normal 0.000000 0.000000 -1.000000
outer loop
vertex 0.006372 0.004362 0.000000
vertex 0.006544 0.002844 0.000000
vertex 0.006550 0.002482 0.000000
endloop
endfacet
facet normal 0.000000 0.000000 -1.000000
outer loop
vertex 0.006550 0.002482 0.000000
vertex 0.006533 0.002325 0.000000
vertex 0.006500 0.002188 0.000000
endloop
endfacet
facet normal 0.000000 0.000000 -1.000000
outer loop
vertex 0.006500 0.002188 0.000000
vertex 0.006455 0.002067 0.000000
vertex 0.006397 0.001958 0.000000
endloop
endfacet
facet normal 0.000000 0.000000 -1.000000
outer loop
vertex 0.006397 0.001958 0.000000
vertex 0.006330 0.001860 0.000000
vertex 0.006254 0.001767 0.000000
endloop
endfacet
facet normal 0.000000 0.000000 -1.000000
outer loop
vertex 0.006254 0.001767 0.000000
vertex 0.006172 0.001678 0.000000
vertex 0.006084 0.001589 0.000000
endloop
endfacet
facet normal 0.000000 0.000000 -1.000000
outer loop
vertex 0.005994 0.001496 0.000000
vertex 0.005902 0.001395 0.000000
vertex 0.002986 0.000107 0.000000
endloop
endfacet
facet normal 0.000000 0.000000 -1.000000
outer loop
vertex 0.006254 0.001767 0.000000
vertex 0.006084 0.001589 0.000000
vertex 0.005994 0.001496 0.000000
endloop
endfacet
facet normal 0.000000 0.000000 -1.000000
outer loop
vertex 0.006500 0.002188 0.000000
vertex 0.006397 0.001958 0.000000
vertex 0.006254 0.001767 0.000000
endloop
endfacet
facet normal 0.000000 0.000000 -1.000000
outer loop
vertex 0.006372 0.004362 0.000000
vertex 0.006550 0.002482 0.000000
vertex 0.006500 0.002188 0.000000
endloop
endfacet
facet normal 0.000000 0.000000 -1.000000
outer loop
vertex 0.005994 0.001496 0.000000
vertex 0.002986 0.000107 0.000000
vertex 0.006372 0.004362 0.000000
endloop
endfacet
facet normal 0.000000 0.000000 -1.000000
outer loop
vertex 0.006500 0.002188 0.000000
vertex 0.006254 0.001767 0.000000
vertex 0.005994 0.001496 0.000000
endloop
endfacet
facet normal 0.000000 0.000000 -1.000000
outer loop
vertex 0.006372 0.004362 0.000000
vertex 0.006500 0.002188 0.000000
vertex 0.005994 0.001496 0.000000
endloop
endfacet
facet normal 0.155028 0.987910 0.000000
outer loop
vertex 0.003670 0.008832 0.150000
vertex 0.003670 0.008832 0.000000
vertex 0.003375 0.008878 0.000000
endloop
endfacet
facet normal 0.155028 0.987910 0.000000
outer loop
vertex 0.003670 0.008832 0.150000
vertex 0.003375 0.008878 0.000000
vertex 0.003375 0.008878 0.150000
endloop
endfacet
facet normal -0.980233 -0.197848 0.000000
outer loop
vertex 0.000022 0.002920 0.150000
vertex 0.000022 0.002920 0.000000
vertex 0.000100 0.002533 0.000000
endloop
endfacet
facet normal -0.980233 -0.197848 0.000000
outer loop
vertex 0.000022 0.002920 0.150000
vertex 0.000100 0.002533 0.000000
vertex 0.000100 0.002533 0.150000
endloop
endfacet
facet normal -0.417271 -0.908782 0.000000
outer loop
vertex 0.000676 0.000794 0.150000
vertex 0.000676 0.000794 0.000000
vertex 0.000858 0.000710 0.000000
endloop
endfacet
facet normal -0.417271 -0.908782 0.000000
outer loop
vertex 0.000676 0.000794 0.150000
vertex 0.000858 0.000710 0.000000
vertex 0.000858 0.000710 0.150000
endloop
endfacet
facet normal 0.433770 0.901024 0.000000
outer loop
vertex 0.004283 0.008638 0.150000
vertex 0.004283 0.008638 0.000000
vertex 0.004182 0.008686 0.000000
endloop
endfacet
facet normal 0.433767 0.901025 0.000000
outer loop
vertex 0.004283 0.008638 0.150000
vertex 0.004182 0.008686 0.000000
vertex 0.004182 0.008686 0.150000
endloop
endfacet
facet normal -0.998035 -0.062658 0.000000
outer loop
vertex 0.000000 0.003265 0.000000
vertex 0.000022 0.002920 0.000000
vertex 0.000022 0.002920 0.150000
endloop
endfacet
facet normal -0.998035 -0.062658 0.000000
outer loop
vertex 0.000000 0.003265 0.000000
vertex 0.000022 0.002920 0.150000
vertex 0.000000 0.003265 0.150000
endloop
endfacet
facet normal 0.000000 0.000000 1.000000
outer loop
vertex 0.004283 0.008638 0.150000
vertex 0.004182 0.008686 0.150000
vertex 0.003670 0.008832 0.150000
endloop
endfacet
facet normal 0.000106 0.000000 1.000000
outer loop
vertex 0.003670 0.008832 0.150000
vertex 0.003375 0.008878 0.150000
vertex 0.003072 0.008897 0.150000
endloop
endfacet
facet normal 0.000000 0.000000 1.000000
outer loop
vertex 0.003072 0.008897 0.150000
vertex 0.002772 0.008880 0.150000
vertex 0.002629 0.008856 0.150000
endloop
endfacet
facet normal 0.000000 0.000000 1.000000
outer loop
vertex 0.002629 0.008856 0.150000
vertex 0.002491 0.008820 0.150000
vertex 0.002224 0.008733 0.150000
endloop
endfacet
facet normal 0.000000 0.000000 1.000000
outer loop
vertex 0.002224 0.008733 0.150000
vertex 0.002093 0.008687 0.150000
vertex 0.001965 0.008640 0.150000
endloop
endfacet
facet normal 0.000000 0.000000 1.000000
outer loop
vertex 0.001965 0.008640 0.150000
vertex 0.001842 0.008590 0.150000
vertex 0.001724 0.008539 0.150000
endloop
endfacet
facet normal 0.000000 0.000000 1.000000
outer loop
vertex 0.001724 0.008539 0.150000
vertex 0.001507 0.008430 0.150000
vertex 0.001325 0.008312 0.150000
endloop
endfacet
facet normal 0.000000 0.000000 1.000000
outer loop
vertex 0.001325 0.008312 0.150000
vertex 0.001249 0.008249 0.150000
vertex 0.001184 0.008184 0.150000
endloop
endfacet
facet normal 0.000000 0.000000 1.000000
outer loop
vertex 0.001184 0.008184 0.150000
vertex 0.001123 0.008113 0.150000
vertex 0.001056 0.008034 0.150000
endloop
endfacet
facet normal 0.000000 0.000000 1.000000
outer loop
vertex 0.001056 0.008034 0.150000
vertex 0.000914 0.007863 0.150000
vertex 0.000539 0.007400 0.150000
endloop
endfacet
facet normal -0.001374 0.000000 0.999999
outer loop
vertex 0.000522 0.007294 0.150000
vertex 0.000281 0.006069 0.150000
vertex 0.000223 0.005751 0.150000
endloop
endfacet
facet normal 0.000334 0.000000 1.000000
outer loop
vertex 0.001056 0.008034 0.150000
vertex 0.000539 0.007400 0.150000
vertex 0.000522 0.007294 0.150000
endloop
endfacet
facet normal 0.000000 0.000000 1.000000
outer loop
vertex 0.001325 0.008312 0.150000
vertex 0.001184 0.008184 0.150000
vertex 0.001056 0.008034 0.150000
endloop
endfacet
facet normal 0.000000 0.000000 1.000000
outer loop
vertex 0.001965 0.008640 0.150000
vertex 0.001724 0.008539 0.150000
vertex 0.001325 0.008312 0.150000
endloop
endfacet
facet normal 0.000597 0.000000 1.000000
outer loop
vertex 0.002629 0.008856 0.150000
vertex 0.002224 0.008733 0.150000
vertex 0.001965 0.008640 0.150000
endloop
endfacet
facet normal 0.000000 0.000000 1.000000
outer loop
vertex 0.003670 0.008832 0.150000
vertex 0.003072 0.008897 0.150000
vertex 0.002629 0.008856 0.150000
endloop
endfacet
facet normal 0.000172 0.000000 1.000000
outer loop
vertex 0.004371 0.008575 0.150000
vertex 0.004283 0.008638 0.150000
vertex 0.003670 0.008832 0.150000
endloop
endfacet
facet normal 0.001090 0.000000 0.999999
outer loop
vertex 0.004520 0.008407 0.150000
vertex 0.004449 0.008498 0.150000
vertex 0.004371 0.008575 0.150000
endloop
endfacet
facet normal -0.003188 0.000000 0.999995
outer loop
vertex 0.004652 0.008181 0.150000
vertex 0.004587 0.008302 0.150000
vertex 0.004520 0.008407 0.150000
endloop
endfacet
facet normal -0.008095 0.000000 0.999967
outer loop
vertex 0.004788 0.007897 0.150000
vertex 0.004718 0.008046 0.150000
vertex 0.004652 0.008181 0.150000
endloop
endfacet
facet normal -0.012667 0.000000 0.999920
outer loop
vertex 0.004865 0.007732 0.150000
vertex 0.004788 0.007897 0.150000
vertex 0.004652 0.008181 0.150000
endloop
endfacet
facet normal -0.000314 0.000000 1.000000
outer loop
vertex 0.004652 0.008181 0.150000
vertex 0.004520 0.008407 0.150000
vertex 0.004371 0.008575 0.150000
endloop
endfacet
facet normal -0.000013 0.000000 1.000000
outer loop
vertex 0.004371 0.008575 0.150000
vertex 0.003670 0.008832 0.150000
vertex 0.002629 0.008856 0.150000
endloop
endfacet
facet normal -0.000092 0.000000 1.000000
outer loop
vertex 0.002629 0.008856 0.150000
vertex 0.001965 0.008640 0.150000
vertex 0.001325 0.008312 0.150000
endloop
endfacet
facet normal 0.000000 0.000000 1.000000
outer loop
vertex 0.001325 0.008312 0.150000
vertex 0.001056 0.008034 0.150000
vertex 0.000522 0.007294 0.150000
endloop
endfacet
facet normal 0.001876 0.000000 0.999998
outer loop
vertex 0.000522 0.007294 0.150000
vertex 0.000223 0.005751 0.150000
vertex 0.000168 0.005432 0.150000
endloop
endfacet
facet normal 0.000000 0.000000 1.000000
outer loop
vertex 0.000168 0.005432 0.150000
vertex 0.000121 0.005120 0.150000
vertex 0.000083 0.004826 0.150000
endloop
endfacet
facet normal 0.000000 0.000000 1.000000
outer loop
vertex 0.000083 0.004826 0.150000
vertex 0.000058 0.004559 0.150000
vertex 0.000049 0.004328 0.150000
endloop
endfacet
facet normal -0.000734 0.000000 1.000000
outer loop
vertex 0.000083 0.004826 0.150000
vertex 0.000049 0.004328 0.150000
vertex 0.000045 0.004128 0.150000
endloop
endfacet
facet normal 0.000000 0.000000 1.000000
outer loop
vertex 0.000522 0.007294 0.150000
vertex 0.000168 0.005432 0.150000
vertex 0.000083 0.004826 0.150000
endloop
endfacet
facet normal 0.000000 0.000000 1.000000
outer loop
vertex 0.002629 0.008856 0.150000
vertex 0.001325 0.008312 0.150000
vertex 0.000522 0.007294 0.150000
endloop
endfacet
facet normal 0.000012 0.000000 1.000000
outer loop
vertex 0.004652 0.008181 0.150000
vertex 0.004371 0.008575 0.150000
vertex 0.002629 0.008856 0.150000
endloop
endfacet
facet normal 0.000000 0.000000 1.000000
outer loop
vertex 0.004865 0.007732 0.150000
vertex 0.004652 0.008181 0.150000
vertex 0.002629 0.008856 0.150000
endloop
endfacet
facet normal 0.000000 0.000000 1.000000
outer loop
vertex 0.002629 0.008856 0.150000
vertex 0.000522 0.007294 0.150000
vertex 0.000083 0.004826 0.150000
endloop
endfacet
facet normal 0.032260 0.000000 0.999479
outer loop
vertex 0.000083 0.004826 0.150000
vertex 0.000045 0.004128 0.150000
vertex 0.000036 0.003941 0.150000
endloop
endfacet
facet normal 0.012986 0.000000 0.999916
outer loop
vertex 0.000036 0.003941 0.150000
vertex 0.000012 0.003596 0.150000
vertex 0.000003 0.003430 0.150000
endloop
endfacet
facet normal 0.001539 0.000000 0.999999
outer loop
vertex 0.000003 0.003430 0.150000
vertex 0.000000 0.003265 0.150000
vertex 0.000022 0.002920 0.150000
endloop
endfacet
facet normal -0.000810 0.000000 1.000000
outer loop
vertex 0.000022 0.002920 0.150000
vertex 0.000100 0.002533 0.150000
vertex 0.000167 0.002315 0.150000
endloop
endfacet
facet normal 0.000744 0.000000 1.000000
outer loop
vertex 0.000022 0.002920 0.150000
vertex 0.000167 0.002315 0.150000
vertex 0.000257 0.002076 0.150000
endloop
endfacet
facet normal 0.000000 0.000000 1.000000
outer loop
vertex 0.000036 0.003941 0.150000
vertex 0.000003 0.003430 0.150000
vertex 0.000022 0.002920 0.150000
endloop
endfacet
facet normal 0.000000 0.000000 1.000000
outer loop
vertex 0.002629 0.008856 0.150000
vertex 0.000083 0.004826 0.150000
vertex 0.000036 0.003941 0.150000
endloop
endfacet
facet normal 0.000000 0.000000 1.000000
outer loop
vertex 0.004952 0.007551 0.150000
vertex 0.004865 0.007732 0.150000
vertex 0.002629 0.008856 0.150000
endloop
endfacet
facet normal 0.000000 0.000000 1.000000
outer loop
vertex 0.005051 0.007356 0.150000
vertex 0.004952 0.007551 0.150000
vertex 0.002629 0.008856 0.150000
endloop
endfacet
facet normal -0.000045 0.000000 1.000000
outer loop
vertex 0.002629 0.008856 0.150000
vertex 0.000036 0.003941 0.150000
vertex 0.000022 0.002920 0.150000
endloop
endfacet
facet normal 0.000000 0.000000 1.000000
outer loop
vertex 0.000022 0.002920 0.150000
vertex 0.000257 0.002076 0.150000
vertex 0.000337 0.001843 0.150000
endloop
endfacet
facet normal -0.000006 0.000000 1.000000
outer loop
vertex 0.002629 0.008856 0.150000
vertex 0.000022 0.002920 0.150000
vertex 0.000337 0.001843 0.150000
endloop
endfacet
facet normal 0.000086 0.000000 1.000000
outer loop
vertex 0.005165 0.007145 0.150000
vertex 0.005051 0.007356 0.150000
vertex 0.002629 0.008856 0.150000
endloop
endfacet
facet normal 0.015313 0.000000 0.999883
outer loop
vertex 0.005401 0.006717 0.150000
vertex 0.005285 0.006929 0.150000
vertex 0.005165 0.007145 0.150000
endloop
endfacet
facet normal 0.000000 0.000000 1.000000
outer loop
vertex 0.005618 0.006304 0.150000
vertex 0.005512 0.006509 0.150000
vertex 0.005401 0.006717 0.150000
endloop
endfacet
facet normal 0.007662 0.000000 0.999971
outer loop
vertex 0.005816 0.005894 0.150000
vertex 0.005719 0.006099 0.150000
vertex 0.005618 0.006304 0.150000
endloop
endfacet
facet normal 0.000000 0.000000 1.000000
outer loop
vertex 0.006237 0.004819 0.150000
vertex 0.005909 0.005687 0.150000
vertex 0.005816 0.005894 0.150000
endloop
endfacet
facet normal 0.000000 0.000000 1.000000
outer loop
vertex 0.006372 0.004362 0.150000
vertex 0.006309 0.004585 0.150000
vertex 0.006237 0.004819 0.150000
endloop
endfacet
facet normal 0.000000 0.000000 1.000000
outer loop
vertex 0.006461 0.003991 0.150000
vertex 0.006422 0.004165 0.150000
vertex 0.006372 0.004362 0.150000
endloop
endfacet
facet normal 0.002846 0.000000 0.999996
outer loop
vertex 0.006523 0.003555 0.150000
vertex 0.006509 0.003691 0.150000
vertex 0.006461 0.003991 0.150000
endloop
endfacet
facet normal 0.000000 0.000000 1.000000
outer loop
vertex 0.006536 0.003292 0.150000
vertex 0.006531 0.003424 0.150000
vertex 0.006523 0.003555 0.150000
endloop
endfacet
facet normal 0.000000 0.000000 1.000000
outer loop
vertex 0.006540 0.003006 0.150000
vertex 0.006536 0.003292 0.150000
vertex 0.006523 0.003555 0.150000
endloop
endfacet
facet normal -0.000469 0.000000 1.000000
outer loop
vertex 0.006523 0.003555 0.150000
vertex 0.006461 0.003991 0.150000
vertex 0.006372 0.004362 0.150000
endloop
endfacet
facet normal 0.000000 0.000000 1.000000
outer loop
vertex 0.006372 0.004362 0.150000
vertex 0.006237 0.004819 0.150000
vertex 0.005816 0.005894 0.150000
endloop
endfacet
facet normal 0.000000 0.000000 1.000000
outer loop
vertex 0.005816 0.005894 0.150000
vertex 0.005618 0.006304 0.150000
vertex 0.005401 0.006717 0.150000
endloop
endfacet
facet normal 0.000000 0.000000 1.000000
outer loop
vertex 0.005401 0.006717 0.150000
vertex 0.005165 0.007145 0.150000
vertex 0.002629 0.008856 0.150000
endloop
endfacet
facet normal 0.000320 0.000000 1.000000
outer loop
vertex 0.002629 0.008856 0.150000
vertex 0.000337 0.001843 0.150000
vertex 0.000381 0.001641 0.150000
endloop
endfacet
facet normal 0.000000 0.000000 1.000000
outer loop
vertex 0.000401 0.001466 0.150000
vertex 0.000408 0.001315 0.150000
vertex 0.000415 0.001185 0.150000
endloop
endfacet
facet normal -0.000367 0.000000 1.000000
outer loop
vertex 0.002629 0.008856 0.150000
vertex 0.000381 0.001641 0.150000
vertex 0.000401 0.001466 0.150000
endloop
endfacet
facet normal 0.000000 0.000000 1.000000
outer loop
vertex 0.005816 0.005894 0.150000
vertex 0.005401 0.006717 0.150000
vertex 0.002629 0.008856 0.150000
endloop
endfacet
facet normal 0.000000 0.000000 1.000000
outer loop
vertex 0.006523 0.003555 0.150000
vertex 0.006372 0.004362 0.150000
vertex 0.005816 0.005894 0.150000
endloop
endfacet
facet normal 0.015342 0.000000 0.999882
outer loop
vertex 0.006544 0.002844 0.150000
vertex 0.006540 0.003006 0.150000
vertex 0.006523 0.003555 0.150000
endloop
endfacet
facet normal -0.002899 0.000000 0.999996
outer loop
vertex 0.006550 0.002482 0.150000
vertex 0.006550 0.002663 0.150000
vertex 0.006544 0.002844 0.150000
endloop
endfacet
facet normal 0.000000 0.000000 1.000000
outer loop
vertex 0.006500 0.002188 0.150000
vertex 0.006533 0.002325 0.150000
vertex 0.006550 0.002482 0.150000
endloop
endfacet
facet normal -0.001811 0.000000 0.999998
outer loop
vertex 0.006397 0.001958 0.150000
vertex 0.006455 0.002067 0.150000
vertex 0.006500 0.002188 0.150000
endloop
endfacet
facet normal 0.001457 0.000000 0.999999
outer loop
vertex 0.006254 0.001767 0.150000
vertex 0.006330 0.001860 0.150000
vertex 0.006397 0.001958 0.150000
endloop
endfacet
facet normal 0.000000 0.000000 1.000000
outer loop
vertex 0.006084 0.001589 0.150000
vertex 0.006172 0.001678 0.150000
vertex 0.006254 0.001767 0.150000
endloop
endfacet
facet normal -0.009249 0.000000 0.999957
outer loop
vertex 0.005994 0.001496 0.150000
vertex 0.006084 0.001589 0.150000
vertex 0.006254 0.001767 0.150000
endloop
endfacet
facet normal 0.000000 0.000000 1.000000
outer loop
vertex 0.006254 0.001767 0.150000
vertex 0.006397 0.001958 0.150000
vertex 0.006500 0.002188 0.150000
endloop
endfacet
facet normal 0.000370 0.000000 1.000000
outer loop
vertex 0.006500 0.002188 0.150000
vertex 0.006550 0.002482 0.150000
vertex 0.006544 0.002844 0.150000
endloop
endfacet
facet normal 0.000000 0.000000 1.000000
outer loop
vertex 0.006544 0.002844 0.150000
vertex 0.006523 0.003555 0.150000
vertex 0.005816 0.005894 0.150000
endloop
endfacet
facet normal 0.000000 0.000000 1.000000
outer loop
vertex 0.005816 0.005894 0.150000
vertex 0.002629 0.008856 0.150000
vertex 0.000401 0.001466 0.150000
endloop
endfacet
facet normal 0.001034 0.000000 1.000000
outer loop
vertex 0.000401 0.001466 0.150000
vertex 0.000415 0.001185 0.150000
vertex 0.000434 0.001071 0.150000
endloop
endfacet
facet normal 0.000000 0.000000 1.000000
outer loop
vertex 0.000434 0.001071 0.150000
vertex 0.000475 0.000971 0.150000
vertex 0.000552 0.000879 0.150000
endloop
endfacet
facet normal 0.000345 0.000000 1.000000
outer loop
vertex 0.000552 0.000879 0.150000
vertex 0.000676 0.000794 0.150000
vertex 0.000858 0.000710 0.150000
endloop
endfacet
facet normal 0.000285 0.000000 1.000000
outer loop
vertex 0.000858 0.000710 0.150000
vertex 0.001111 0.000625 0.150000
vertex 0.001810 0.000439 0.150000
endloop
endfacet
facet normal -0.000448 0.000000 1.000000
outer loop
vertex 0.001810 0.000439 0.150000
vertex 0.002728 0.000177 0.150000
vertex 0.002986 0.000107 0.150000
endloop
endfacet
facet normal -0.000546 0.000000 1.000000
outer loop
vertex 0.002986 0.000107 0.150000
vertex 0.003223 0.000053 0.150000
vertex 0.003445 0.000016 0.150000
endloop
endfacet
facet normal 0.000047 0.000000 1.000000
outer loop
vertex 0.003445 0.000016 0.150000
vertex 0.003652 0.000000 0.150000
vertex 0.003848 0.000009 0.150000
endloop
endfacet
facet normal 0.000000 0.000000 1.000000
outer loop
vertex 0.003848 0.000009 0.150000
vertex 0.004035 0.000045 0.150000
vertex 0.004217 0.000113 0.150000
endloop
endfacet
facet normal 0.000000 0.000000 1.000000
outer loop
vertex 0.004217 0.000113 0.150000
vertex 0.005439 0.000906 0.150000
vertex 0.005627 0.001077 0.150000
endloop
endfacet
facet normal -0.003379 0.000000 0.999994
outer loop
vertex 0.005627 0.001077 0.150000
vertex 0.005718 0.001175 0.150000
vertex 0.005809 0.001285 0.150000
endloop
endfacet
facet normal 0.000000 0.000000 1.000000
outer loop
vertex 0.005627 0.001077 0.150000
vertex 0.005809 0.001285 0.150000
vertex 0.005902 0.001395 0.150000
endloop
endfacet
facet normal 0.000000 0.000000 1.000000
outer loop
vertex 0.003848 0.000009 0.150000
vertex 0.004217 0.000113 0.150000
vertex 0.005627 0.001077 0.150000
endloop
endfacet
facet normal 0.000101 0.000000 1.000000
outer loop
vertex 0.002986 0.000107 0.150000
vertex 0.003445 0.000016 0.150000
vertex 0.003848 0.000009 0.150000
endloop
endfacet
facet normal -0.005021 0.000000 0.999987
outer loop
vertex 0.000858 0.000710 0.150000
vertex 0.001810 0.000439 0.150000
vertex 0.002986 0.000107 0.150000
endloop
endfacet
facet normal -0.000094 0.000000 1.000000
outer loop
vertex 0.000434 0.001071 0.150000
vertex 0.000552 0.000879 0.150000
vertex 0.000858 0.000710 0.150000
endloop
endfacet
facet normal 0.000048 0.000000 1.000000
outer loop
vertex 0.005816 0.005894 0.150000
vertex 0.000401 0.001466 0.150000
vertex 0.000434 0.001071 0.150000
endloop
endfacet
facet normal 0.000000 0.000000 1.000000
outer loop
vertex 0.006500 0.002188 0.150000
vertex 0.006544 0.002844 0.150000
vertex 0.005816 0.005894 0.150000
endloop
endfacet
facet normal 0.000343 0.000000 1.000000
outer loop
vertex 0.005994 0.001496 0.150000
vertex 0.006254 0.001767 0.150000
vertex 0.006500 0.002188 0.150000
endloop
endfacet
facet normal 0.000080 0.000000 1.000000
outer loop
vertex 0.003848 0.000009 0.150000
vertex 0.005627 0.001077 0.150000
vertex 0.005902 0.001395 0.150000
endloop
endfacet
facet normal -0.001105 0.000000 0.999999
outer loop
vertex 0.005902 0.001395 0.150000
vertex 0.005994 0.001496 0.150000
vertex 0.006500 0.002188 0.150000
endloop
endfacet
facet normal -0.000005 0.000000 1.000000
outer loop
vertex 0.006500 0.002188 0.150000
vertex 0.005816 0.005894 0.150000
vertex 0.000434 0.001071 0.150000
endloop
endfacet
facet normal 0.000028 0.000000 1.000000
outer loop
vertex 0.000434 0.001071 0.150000
vertex 0.000858 0.000710 0.150000
vertex 0.002986 0.000107 0.150000
endloop
endfacet
facet normal -0.000021 0.000000 1.000000
outer loop
vertex 0.002986 0.000107 0.150000
vertex 0.003848 0.000009 0.150000
vertex 0.005902 0.001395 0.150000
endloop
endfacet
facet normal 0.000000 0.000000 1.000000
outer loop
vertex 0.005902 0.001395 0.150000
vertex 0.006500 0.002188 0.150000
vertex 0.000434 0.001071 0.150000
endloop
endfacet
facet normal 0.000000 0.000000 1.000000
outer loop
vertex 0.000434 0.001071 0.150000
vertex 0.002986 0.000107 0.150000
vertex 0.005902 0.001395 0.150000
endloop
endfacet
facet normal 0.274368 0.961625 0.000000
outer loop
vertex 0.004182 0.008686 0.000000
vertex 0.003670 0.008832 0.000000
vertex 0.003670 0.008832 0.150000
endloop
endfacet
facet normal 0.274368 0.961625 0.000000
outer loop
vertex 0.004182 0.008686 0.000000
vertex 0.003670 0.008832 0.150000
vertex 0.004182 0.008686 0.150000
endloop
endfacet
facet normal -0.449768 0.893145 0.000000
outer loop
vertex 0.001724 0.008539 0.000000
vertex 0.001507 0.008430 0.000000
vertex 0.001507 0.008430 0.150000
endloop
endfacet
facet normal -0.449768 0.893146 0.000000
outer loop
vertex 0.001724 0.008539 0.000000
vertex 0.001507 0.008430 0.150000
vertex 0.001724 0.008539 0.150000
endloop
endfacet
facet normal 0.060664 0.998158 0.000000
outer loop
vertex 0.003375 0.008878 0.150000
vertex 0.003375 0.008878 0.000000
vertex 0.003072 0.008897 0.000000
endloop
endfacet
facet normal 0.060664 0.998158 0.000000
outer loop
vertex 0.003375 0.008878 0.150000
vertex 0.003072 0.008897 0.000000
vertex 0.003072 0.008897 0.150000
endloop
endfacet
facet normal 0.845531 0.533927 0.000000
outer loop
vertex 0.004587 0.008302 0.150000
vertex 0.004587 0.008302 0.000000
vertex 0.004520 0.008407 0.000000
endloop
endfacet
facet normal 0.845528 0.533931 0.000000
outer loop
vertex 0.004587 0.008302 0.150000
vertex 0.004520 0.008407 0.000000
vertex 0.004520 0.008407 0.150000
endloop
endfacet
facet normal 0.000000 0.000000 1.000000
outer loop
vertex 0.006461 0.003991 0.000000
vertex 0.006422 0.004165 0.000000
vertex 0.006372 0.004362 0.000000
endloop
endfacet
facet normal 0.000000 0.000000 1.000000
outer loop
vertex 0.006372 0.004362 0.000000
vertex 0.006309 0.004585 0.000000
vertex 0.006237 0.004819 0.000000
endloop
endfacet
facet normal 0.955584 0.294720 0.000000
outer loop
vertex 0.006237 0.004819 0.000000
vertex 0.006237 0.004819 0.150000
vertex 0.006309 0.004585 0.150000
endloop
endfacet
facet normal 0.962327 0.271896 -0.000039
outer loop
vertex 0.006237 0.004819 0.000000
vertex 0.006309 0.004585 0.150000
vertex 0.006372 0.004362 0.150000
endloop
endfacet
facet normal 0.000000 0.000000 1.000000
outer loop
vertex 0.006461 0.003991 0.000000
vertex 0.006372 0.004362 0.000000
vertex 0.006237 0.004819 0.000000
endloop
endfacet
facet normal 0.976560 0.215244 0.000000
outer loop
vertex 0.006422 0.004165 0.150000
vertex 0.006461 0.003991 0.150000
vertex 0.006461 0.003991 0.000000
endloop
endfacet
facet normal 0.969169 0.246397 -0.000123
outer loop
vertex 0.006237 0.004819 0.000000
vertex 0.006372 0.004362 0.150000
vertex 0.006422 0.004165 0.150000
endloop
endfacet
facet normal 0.965416 0.260716 -0.000056
outer loop
vertex 0.006237 0.004819 0.000000
vertex 0.006422 0.004165 0.150000
vertex 0.006461 0.003991 0.000000
endloop
endfacet
facet normal -0.569809 -0.821777 0.000000
outer loop
vertex 0.000552 0.000879 0.150000
vertex 0.000552 0.000879 0.000000
vertex 0.000676 0.000794 0.000000
endloop
endfacet
facet normal -0.569810 -0.821777 0.000000
outer loop
vertex 0.000552 0.000879 0.150000
vertex 0.000676 0.000794 0.000000
vertex 0.000676 0.000794 0.150000
endloop
endfacet
facet normal 0.346795 -0.937941 0.000000
outer loop
vertex 0.004035 0.000045 0.150000
vertex 0.004035 0.000045 0.000000
vertex 0.004217 0.000113 0.000000
endloop
endfacet
facet normal 0.346796 -0.937940 0.000000
outer loop
vertex 0.004035 0.000045 0.150000
vertex 0.004217 0.000113 0.000000
vertex 0.004217 0.000113 0.150000
endloop
endfacet
facet normal -0.923965 -0.382476 0.000000
outer loop
vertex 0.000434 0.001071 0.150000
vertex 0.000434 0.001071 0.000000
vertex 0.000475 0.000971 0.000000
endloop
endfacet
facet normal -0.923965 -0.382477 0.000000
outer loop
vertex 0.000434 0.001071 0.150000
vertex 0.000475 0.000971 0.000000
vertex 0.000475 0.000971 0.150000
endloop
endfacet
facet normal -0.163967 -0.986466 0.000000
outer loop
vertex 0.003223 0.000053 0.150000
vertex 0.003223 0.000053 0.000000
vertex 0.003445 0.000016 0.000000
endloop
endfacet
facet normal -0.163967 -0.986466 0.000000
outer loop
vertex 0.003223 0.000053 0.150000
vertex 0.003445 0.000016 0.000000
vertex 0.003445 0.000016 0.150000
endloop
endfacet
facet normal 0.000000 0.000000 1.000000
outer loop
vertex 0.005816 0.005894 0.000000
vertex 0.005719 0.006099 0.000000
vertex 0.005618 0.006304 0.000000
endloop
endfacet
facet normal 0.000000 0.000000 1.000000
outer loop
vertex 0.005618 0.006304 0.000000
vertex 0.005512 0.006509 0.000000
vertex 0.005401 0.006717 0.000000
endloop
endfacet
facet normal 0.000000 0.000000 1.000000
outer loop
vertex 0.005401 0.006717 0.000000
vertex 0.005285 0.006929 0.000000
vertex 0.005165 0.007145 0.000000
endloop
endfacet
facet normal 0.000000 0.000000 1.000000
outer loop
vertex 0.005618 0.006304 0.000000
vertex 0.005401 0.006717 0.000000
vertex 0.005165 0.007145 0.000000
endloop
endfacet
facet normal 0.000000 0.000000 1.000000
outer loop
vertex 0.005909 0.005687 0.000000
vertex 0.005816 0.005894 0.000000
vertex 0.005618 0.006304 0.000000
endloop
endfacet
facet normal 0.912594 0.408867 0.000000
outer loop
vertex 0.005816 0.005894 0.150000
vertex 0.005909 0.005687 0.150000
vertex 0.005909 0.005687 0.000000
endloop
endfacet
facet normal 0.904019 0.427492 -0.000031
outer loop
vertex 0.005719 0.006099 0.150000
vertex 0.005816 0.005894 0.150000
vertex 0.005909 0.005687 0.000000
endloop
endfacet
facet normal 0.000000 0.000000 1.000000
outer loop
vertex 0.005909 0.005687 0.000000
vertex 0.005618 0.006304 0.000000
vertex 0.005165 0.007145 0.000000
endloop
endfacet
facet normal 0.000000 0.000000 1.000000
outer loop
vertex 0.005909 0.005687 0.000000
vertex 0.005165 0.007145 0.000000
vertex 0.005051 0.007356 0.000000
endloop
endfacet
facet normal 0.896043 0.443967 -0.000086
outer loop
vertex 0.005618 0.006304 0.150000
vertex 0.005719 0.006099 0.150000
vertex 0.005909 0.005687 0.000000
endloop
endfacet
facet normal 0.888883 0.458135 -0.000158
outer loop
vertex 0.005512 0.006509 0.150000
vertex 0.005618 0.006304 0.150000
vertex 0.005909 0.005687 0.000000
endloop
endfacet
facet normal 0.889421 0.457089 -0.000151
outer loop
vertex 0.005512 0.006509 0.150000
vertex 0.005909 0.005687 0.000000
vertex 0.005051 0.007356 0.000000
endloop
endfacet
facet normal 0.882721 0.469898 -0.000058
outer loop
vertex 0.005401 0.006717 0.150000
vertex 0.005512 0.006509 0.150000
vertex 0.005051 0.007356 0.000000
endloop
endfacet
facet normal 0.892131 0.451776 -0.000158
outer loop
vertex 0.005401 0.006717 0.150000
vertex 0.005051 0.007356 0.000000
vertex 0.004952 0.007551 0.000000
endloop
endfacet
facet normal 0.877682 0.479243 0.000038
outer loop
vertex 0.005285 0.006929 0.150000
vertex 0.005401 0.006717 0.150000
vertex 0.004952 0.007551 0.000000
endloop
endfacet
facet normal 0.000000 0.000000 1.000000
outer loop
vertex 0.004865 0.007732 0.000000
vertex 0.004788 0.007897 0.000000
vertex 0.004718 0.008046 0.000000
endloop
endfacet
facet normal 0.901177 0.433452 -0.000204
outer loop
vertex 0.005285 0.006929 0.150000
vertex 0.004952 0.007551 0.000000
vertex 0.004865 0.007732 0.000000
endloop
endfacet
facet normal 0.873831 0.486230 0.000155
outer loop
vertex 0.005165 0.007145 0.150000
vertex 0.005285 0.006929 0.150000
vertex 0.004865 0.007732 0.000000
endloop
endfacet
facet normal 0.000000 0.000000 1.000000
outer loop
vertex 0.004865 0.007732 0.000000
vertex 0.004718 0.008046 0.000000
vertex 0.004652 0.008181 0.000000
endloop
endfacet
facet normal 0.879347 0.476182 0.000000
outer loop
vertex 0.004652 0.008181 0.000000
vertex 0.004587 0.008302 0.000000
vertex 0.004587 0.008302 0.150000
endloop
endfacet
facet normal 0.879347 0.476182 0.000000
outer loop
vertex 0.004652 0.008181 0.000000
vertex 0.004587 0.008302 0.150000
vertex 0.004652 0.008181 0.150000
endloop
endfacet
facet normal 0.903260 0.429095 -0.000127
outer loop
vertex 0.005165 0.007145 0.150000
vertex 0.004865 0.007732 0.000000
vertex 0.004652 0.008181 0.000000
endloop
endfacet
facet normal 0.879552 0.475802 0.000277
outer loop
vertex 0.005051 0.007356 0.150000
vertex 0.005165 0.007145 0.150000
vertex 0.004652 0.008181 0.000000
endloop
endfacet
facet normal 0.897554 0.440904 0.000000
outer loop
vertex 0.004652 0.008181 0.000000
vertex 0.004652 0.008181 0.150000
vertex 0.004718 0.008046 0.150000
endloop
endfacet
facet normal 0.905368 0.424628 -0.000018
outer loop
vertex 0.004652 0.008181 0.000000
vertex 0.004718 0.008046 0.150000
vertex 0.004788 0.007897 0.150000
endloop
endfacet
facet normal 0.892131 0.451776 0.000111
outer loop
vertex 0.004952 0.007551 0.150000
vertex 0.005051 0.007356 0.150000
vertex 0.004652 0.008181 0.000000
endloop
endfacet
facet normal 0.905962 0.423359 -0.000021
outer loop
vertex 0.004652 0.008181 0.000000
vertex 0.004788 0.007897 0.150000
vertex 0.004865 0.007732 0.150000
endloop
endfacet
facet normal 0.901177 0.433452 0.000016
outer loop
vertex 0.004652 0.008181 0.000000
vertex 0.004865 0.007732 0.150000
vertex 0.004952 0.007551 0.150000
endloop
endfacet
facet normal -0.777498 0.628885 0.000000
outer loop
vertex 0.000914 0.007863 0.000000
vertex 0.000539 0.007400 0.000000
vertex 0.000539 0.007400 0.150000
endloop
endfacet
facet normal -0.777498 0.628885 0.000000
outer loop
vertex 0.000914 0.007863 0.000000
vertex 0.000539 0.007400 0.150000
vertex 0.000914 0.007863 0.150000
endloop
endfacet
facet normal -0.769387 0.638782 0.000000
outer loop
vertex 0.001056 0.008034 0.000000
vertex 0.000914 0.007863 0.000000
vertex 0.000914 0.007863 0.150000
endloop
endfacet
facet normal -0.769387 0.638783 0.000000
outer loop
vertex 0.001056 0.008034 0.000000
vertex 0.000914 0.007863 0.150000
vertex 0.001056 0.008034 0.150000
endloop
endfacet
facet normal -0.756851 0.653587 0.000000
outer loop
vertex 0.001184 0.008184 0.150000
vertex 0.001184 0.008184 0.000000
vertex 0.001123 0.008113 0.000000
endloop
endfacet
facet normal -0.763230 0.646127 0.000000
outer loop
vertex 0.001123 0.008113 0.000000
vertex 0.001056 0.008034 0.000000
vertex 0.001056 0.008034 0.150000
endloop
endfacet
facet normal -0.756850 0.653588 0.000000
outer loop
vertex 0.001123 0.008113 0.150000
vertex 0.001184 0.008184 0.150000
vertex 0.001123 0.008113 0.000000
endloop
endfacet
facet normal -0.763229 0.646128 0.000000
outer loop
vertex 0.001056 0.008034 0.150000
vertex 0.001123 0.008113 0.150000
vertex 0.001123 0.008113 0.000000
endloop
endfacet
facet normal 0.987170 0.159673 0.000000
outer loop
vertex 0.006509 0.003691 0.150000
vertex 0.006509 0.003691 0.000000
vertex 0.006461 0.003991 0.000000
endloop
endfacet
facet normal 0.987170 0.159673 0.000000
outer loop
vertex 0.006509 0.003691 0.150000
vertex 0.006461 0.003991 0.000000
vertex 0.006461 0.003991 0.150000
endloop
endfacet
facet normal 0.579023 0.815311 0.000000
outer loop
vertex 0.004371 0.008575 0.150000
vertex 0.004371 0.008575 0.000000
vertex 0.004283 0.008638 0.000000
endloop
endfacet
facet normal 0.579030 0.815306 0.000000
outer loop
vertex 0.004371 0.008575 0.150000
vertex 0.004283 0.008638 0.000000
vertex 0.004283 0.008638 0.150000
endloop
endfacet
facet normal 0.000000 0.000000 1.000000
outer loop
vertex 0.000058 0.004559 0.000000
vertex 0.000049 0.004328 0.000000
vertex 0.000045 0.004128 0.000000
endloop
endfacet
facet normal 0.000000 0.000000 1.000000
outer loop
vertex 0.000036 0.003941 0.000000
vertex 0.000012 0.003596 0.000000
vertex 0.000003 0.003430 0.000000
endloop
endfacet
facet normal 0.000000 0.000000 1.000000
outer loop
vertex 0.000083 0.004826 0.000000
vertex 0.000058 0.004559 0.000000
vertex 0.000045 0.004128 0.000000
endloop
endfacet
facet normal 0.000000 0.000000 1.000000
outer loop
vertex 0.000036 0.003941 0.000000
vertex 0.000003 0.003430 0.000000
vertex 0.000000 0.003265 0.000000
endloop
endfacet
facet normal 0.000000 0.000000 1.000000
outer loop
vertex 0.000083 0.004826 0.000000
vertex 0.000045 0.004128 0.000000
vertex 0.000036 0.003941 0.000000
endloop
endfacet
facet normal -0.995685 0.092800 0.000000
outer loop
vertex 0.000058 0.004559 0.150000
vertex 0.000083 0.004826 0.150000
vertex 0.000083 0.004826 0.000000
endloop
endfacet
facet normal -0.999242 0.038916 -0.000097
outer loop
vertex 0.000049 0.004328 0.150000
vertex 0.000058 0.004559 0.150000
vertex 0.000083 0.004826 0.000000
endloop
endfacet
facet normal -0.998573 0.053412 0.000000
outer loop
vertex 0.000036 0.003941 0.000000
vertex 0.000000 0.003265 0.000000
vertex 0.000000 0.003265 0.150000
endloop
endfacet
facet normal -0.998604 0.052825 -0.000050
outer loop
vertex 0.000049 0.004328 0.150000
vertex 0.000083 0.004826 0.000000
vertex 0.000036 0.003941 0.000000
endloop
endfacet
facet normal -0.999830 0.018446 0.000039
outer loop
vertex 0.000045 0.004128 0.150000
vertex 0.000049 0.004328 0.150000
vertex 0.000036 0.003941 0.000000
endloop
endfacet
facet normal -0.999799 0.020029 -0.000151
outer loop
vertex 0.000036 0.003941 0.000000
vertex 0.000000 0.003265 0.150000
vertex 0.000003 0.003430 0.150000
endloop
endfacet
facet normal -0.998524 0.054310 -0.000034
outer loop
vertex 0.000036 0.003941 0.000000
vertex 0.000003 0.003430 0.150000
vertex 0.000012 0.003596 0.150000
endloop
endfacet
facet normal -0.998778 0.049426 0.000000
outer loop
vertex 0.000036 0.003941 0.150000
vertex 0.000045 0.004128 0.150000
vertex 0.000036 0.003941 0.000000
endloop
endfacet
facet normal -0.997621 0.068933 0.000000
outer loop
vertex 0.000036 0.003941 0.000000
vertex 0.000012 0.003596 0.150000
vertex 0.000036 0.003941 0.150000
endloop
endfacet
facet normal 0.825672 -0.564150 0.000000
outer loop
vertex 0.006330 0.001860 0.150000
vertex 0.006330 0.001860 0.000000
vertex 0.006397 0.001958 0.000000
endloop
endfacet
facet normal 0.825669 -0.564154 0.000000
outer loop
vertex 0.006330 0.001860 0.150000
vertex 0.006397 0.001958 0.000000
vertex 0.006397 0.001958 0.150000
endloop
endfacet
facet normal 0.044518 -0.999009 0.000000
outer loop
vertex 0.003652 0.000000 0.150000
vertex 0.003652 0.000000 0.000000
vertex 0.003848 0.000009 0.000000
endloop
endfacet
facet normal 0.044518 -0.999009 0.000000
outer loop
vertex 0.003652 0.000000 0.150000
vertex 0.003848 0.000009 0.000000
vertex 0.003848 0.000009 0.150000
endloop
endfacet
facet normal -0.251442 0.967872 0.000000
outer loop
vertex 0.002629 0.008856 0.150000
vertex 0.002629 0.008856 0.000000
vertex 0.002491 0.008820 0.000000
endloop
endfacet
facet normal -0.251442 0.967872 0.000000
outer loop
vertex 0.002629 0.008856 0.150000
vertex 0.002491 0.008820 0.000000
vertex 0.002491 0.008820 0.150000
endloop
endfacet
facet normal -0.765798 -0.643081 0.000000
outer loop
vertex 0.000475 0.000971 0.150000
vertex 0.000475 0.000971 0.000000
vertex 0.000552 0.000879 0.000000
endloop
endfacet
facet normal -0.765798 -0.643081 0.000000
outer loop
vertex 0.000475 0.000971 0.150000
vertex 0.000552 0.000879 0.000000
vertex 0.000552 0.000879 0.150000
endloop
endfacet
facet normal 0.190385 -0.981709 0.000000
outer loop
vertex 0.003848 0.000009 0.150000
vertex 0.003848 0.000009 0.000000
vertex 0.004035 0.000045 0.000000
endloop
endfacet
facet normal 0.190385 -0.981709 0.000000
outer loop
vertex 0.003848 0.000009 0.150000
vertex 0.004035 0.000045 0.000000
vertex 0.004035 0.000045 0.150000
endloop
endfacet
facet normal 0.995158 0.098288 0.000000
outer loop
vertex 0.006523 0.003555 0.000000
vertex 0.006509 0.003691 0.000000
vertex 0.006509 0.003691 0.150000
endloop
endfacet
facet normal 0.995159 0.098282 0.000000
outer loop
vertex 0.006523 0.003555 0.000000
vertex 0.006509 0.003691 0.150000
vertex 0.006523 0.003555 0.150000
endloop
endfacet
facet normal 0.998059 0.062277 0.000000
outer loop
vertex 0.006531 0.003424 0.000000
vertex 0.006523 0.003555 0.000000
vertex 0.006523 0.003555 0.150000
endloop
endfacet
facet normal 0.998060 0.062253 0.000000
outer loop
vertex 0.006531 0.003424 0.000000
vertex 0.006523 0.003555 0.150000
vertex 0.006531 0.003424 0.150000
endloop
endfacet
facet normal 0.000000 0.000000 -1.000000
outer loop
vertex 0.006544 0.002844 0.000000
vertex 0.006540 0.003006 0.000000
vertex 0.006536 0.003292 0.000000
endloop
endfacet
facet normal 0.999385 0.035076 0.000000
outer loop
vertex 0.006536 0.003292 0.000000
vertex 0.006531 0.003424 0.000000
vertex 0.006531 0.003424 0.150000
endloop
endfacet
facet normal 0.999385 0.035076 0.000000
outer loop
vertex 0.006536 0.003292 0.000000
vertex 0.006531 0.003424 0.150000
vertex 0.006536 0.003292 0.150000
endloop
endfacet
facet normal 0.000000 0.000000 -1.000000
outer loop
vertex 0.006550 0.002663 0.000000
vertex 0.006544 0.002844 0.000000
vertex 0.006536 0.003292 0.000000
endloop
endfacet
facet normal 0.999995 -0.003266 0.000000
outer loop
vertex 0.006550 0.002482 0.150000
vertex 0.006550 0.002482 0.000000
vertex 0.006550 0.002663 0.000000
endloop
endfacet
facet normal 0.999995 -0.003283 0.000000
outer loop
vertex 0.006550 0.002663 0.150000
vertex 0.006550 0.002482 0.150000
vertex 0.006550 0.002663 0.000000
endloop
endfacet
facet normal 0.999719 0.023686 0.000000
outer loop
vertex 0.006550 0.002663 0.000000
vertex 0.006536 0.003292 0.000000
vertex 0.006536 0.003292 0.150000
endloop
endfacet
facet normal 0.999847 0.017487 0.000026
outer loop
vertex 0.006550 0.002663 0.000000
vertex 0.006536 0.003292 0.150000
vertex 0.006540 0.003006 0.150000
endloop
endfacet
facet normal 0.999385 0.035076 0.000000
outer loop
vertex 0.006544 0.002844 0.150000
vertex 0.006550 0.002663 0.150000
vertex 0.006550 0.002663 0.000000
endloop
endfacet
facet normal 0.999762 0.021837 0.000016
outer loop
vertex 0.006540 0.003006 0.150000
vertex 0.006544 0.002844 0.150000
vertex 0.006550 0.002663 0.000000
endloop
endfacet
facet normal -0.711590 0.702595 0.000000
outer loop
vertex 0.001249 0.008249 0.150000
vertex 0.001249 0.008249 0.000000
vertex 0.001184 0.008184 0.000000
endloop
endfacet
facet normal -0.711592 0.702593 0.000000
outer loop
vertex 0.001249 0.008249 0.150000
vertex 0.001184 0.008184 0.000000
vertex 0.001184 0.008184 0.150000
endloop
endfacet
facet normal 0.000000 0.000000 1.000000
outer loop
vertex 0.006084 0.001589 0.000000
vertex 0.006172 0.001678 0.000000
vertex 0.006254 0.001767 0.000000
endloop
endfacet
facet normal 0.773074 -0.634316 0.000000
outer loop
vertex 0.006254 0.001767 0.000000
vertex 0.006330 0.001860 0.000000
vertex 0.006330 0.001860 0.150000
endloop
endfacet
facet normal 0.773077 -0.634312 0.000000
outer loop
vertex 0.006254 0.001767 0.000000
vertex 0.006330 0.001860 0.150000
vertex 0.006254 0.001767 0.150000
endloop
endfacet
facet normal 0.000000 0.000000 1.000000
outer loop
vertex 0.005994 0.001496 0.000000
vertex 0.006084 0.001589 0.000000
vertex 0.006254 0.001767 0.000000
endloop
endfacet
facet normal 0.722417 -0.691457 0.000000
outer loop
vertex 0.005994 0.001496 0.000000
vertex 0.006254 0.001767 0.000000
vertex 0.006254 0.001767 0.150000
endloop
endfacet
facet normal 0.734909 -0.678166 -0.000046
outer loop
vertex 0.005994 0.001496 0.000000
vertex 0.006254 0.001767 0.150000
vertex 0.006172 0.001678 0.150000
endloop
endfacet
facet normal 0.735433 -0.677597 -0.000047
outer loop
vertex 0.005902 0.001395 0.000000
vertex 0.005994 0.001496 0.000000
vertex 0.006172 0.001678 0.150000
endloop
endfacet
facet normal 0.715922 -0.698180 0.000027
outer loop
vertex 0.005902 0.001395 0.000000
vertex 0.006172 0.001678 0.150000
vertex 0.006084 0.001589 0.150000
endloop
endfacet
facet normal 0.000000 0.000000 1.000000
outer loop
vertex 0.005627 0.001077 0.000000
vertex 0.005718 0.001175 0.000000
vertex 0.005809 0.001285 0.000000
endloop
endfacet
facet normal 0.767516 -0.641030 -0.000110
outer loop
vertex 0.005809 0.001285 0.000000
vertex 0.005902 0.001395 0.000000
vertex 0.006084 0.001589 0.150000
endloop
endfacet
facet normal 0.716840 -0.697238 0.000097
outer loop
vertex 0.005809 0.001285 0.000000
vertex 0.006084 0.001589 0.150000
vertex 0.005994 0.001496 0.150000
endloop
endfacet
facet normal 0.752175 -0.658963 0.000000
outer loop
vertex 0.005627 0.001077 0.150000
vertex 0.005627 0.001077 0.000000
vertex 0.005809 0.001285 0.000000
endloop
endfacet
facet normal 0.732727 -0.680523 -0.000054
outer loop
vertex 0.005718 0.001175 0.150000
vertex 0.005627 0.001077 0.150000
vertex 0.005809 0.001285 0.000000
endloop
endfacet
facet normal 0.735431 -0.677600 0.000047
outer loop
vertex 0.005809 0.001285 0.000000
vertex 0.005994 0.001496 0.150000
vertex 0.005902 0.001395 0.150000
endloop
endfacet
facet normal 0.769841 -0.638236 0.000000
outer loop
vertex 0.005809 0.001285 0.150000
vertex 0.005718 0.001175 0.150000
vertex 0.005809 0.001285 0.000000
endloop
endfacet
facet normal 0.767518 -0.641027 0.000000
outer loop
vertex 0.005809 0.001285 0.000000
vertex 0.005902 0.001395 0.150000
vertex 0.005809 0.001285 0.150000
endloop
endfacet
facet normal -0.977126 -0.212660 0.000000
outer loop
vertex 0.000337 0.001843 0.150000
vertex 0.000337 0.001843 0.000000
vertex 0.000381 0.001641 0.000000
endloop
endfacet
facet normal -0.977126 -0.212660 0.000000
outer loop
vertex 0.000337 0.001843 0.150000
vertex 0.000381 0.001641 0.000000
vertex 0.000381 0.001641 0.150000
endloop
endfacet
facet normal -0.635960 0.771722 0.000000
outer loop
vertex 0.001325 0.008312 0.150000
vertex 0.001325 0.008312 0.000000
vertex 0.001249 0.008249 0.000000
endloop
endfacet
facet normal -0.635962 0.771720 0.000000
outer loop
vertex 0.001325 0.008312 0.150000
vertex 0.001249 0.008249 0.000000
vertex 0.001249 0.008249 0.150000
endloop
endfacet
facet normal 0.544649 -0.838664 0.000000
outer loop
vertex 0.004217 0.000113 0.000000
vertex 0.005439 0.000906 0.000000
vertex 0.005439 0.000906 0.150000
endloop
endfacet
facet normal 0.544650 -0.838664 0.000000
outer loop
vertex 0.004217 0.000113 0.000000
vertex 0.005439 0.000906 0.150000
vertex 0.004217 0.000113 0.150000
endloop
endfacet
facet normal -0.946066 -0.323974 0.000000
outer loop
vertex 0.000257 0.002076 0.000000
vertex 0.000337 0.001843 0.000000
vertex 0.000337 0.001843 0.150000
endloop
endfacet
facet normal -0.946066 -0.323973 0.000000
outer loop
vertex 0.000257 0.002076 0.000000
vertex 0.000337 0.001843 0.150000
vertex 0.000257 0.002076 0.150000
endloop
endfacet
facet normal -0.955566 -0.294777 0.000000
outer loop
vertex 0.000100 0.002533 0.150000
vertex 0.000100 0.002533 0.000000
vertex 0.000167 0.002315 0.000000
endloop
endfacet
facet normal -0.936116 -0.351692 0.000000
outer loop
vertex 0.000167 0.002315 0.000000
vertex 0.000257 0.002076 0.000000
vertex 0.000257 0.002076 0.150000
endloop
endfacet
facet normal -0.955566 -0.294777 0.000000
outer loop
vertex 0.000167 0.002315 0.150000
vertex 0.000100 0.002533 0.150000
vertex 0.000167 0.002315 0.000000
endloop
endfacet
facet normal -0.936116 -0.351692 0.000000
outer loop
vertex 0.000257 0.002076 0.150000
vertex 0.000167 0.002315 0.150000
vertex 0.000167 0.002315 0.000000
endloop
endfacet
facet normal -0.987048 -0.160424 0.000000
outer loop
vertex 0.000415 0.001185 0.000000
vertex 0.000434 0.001071 0.000000
vertex 0.000434 0.001071 0.150000
endloop
endfacet
facet normal -0.987048 -0.160424 0.000000
outer loop
vertex 0.000415 0.001185 0.000000
vertex 0.000434 0.001071 0.150000
vertex 0.000415 0.001185 0.150000
endloop
endfacet
facet normal -0.998515 -0.054473 0.000000
outer loop
vertex 0.000408 0.001315 0.000000
vertex 0.000415 0.001185 0.000000
vertex 0.000415 0.001185 0.150000
endloop
endfacet
facet normal -0.998515 -0.054473 0.000000
outer loop
vertex 0.000408 0.001315 0.000000
vertex 0.000415 0.001185 0.150000
vertex 0.000408 0.001315 0.150000
endloop
endfacet
facet normal -0.993579 -0.113144 0.000000
outer loop
vertex 0.000381 0.001641 0.150000
vertex 0.000381 0.001641 0.000000
vertex 0.000401 0.001466 0.000000
endloop
endfacet
facet normal -0.998736 -0.050259 0.000000
outer loop
vertex 0.000401 0.001466 0.000000
vertex 0.000408 0.001315 0.000000
vertex 0.000408 0.001315 0.150000
endloop
endfacet
facet normal -0.993579 -0.113144 0.000000
outer loop
vertex 0.000401 0.001466 0.150000
vertex 0.000381 0.001641 0.150000
vertex 0.000401 0.001466 0.000000
endloop
endfacet
facet normal -0.998736 -0.050259 0.000000
outer loop
vertex 0.000401 0.001466 0.000000
vertex 0.000408 0.001315 0.150000
vertex 0.000401 0.001466 0.150000
endloop
endfacet
facet normal 0.935297 0.353864 0.000000
outer loop
vertex 0.006237 0.004819 0.000000
vertex 0.005909 0.005687 0.000000
vertex 0.005909 0.005687 0.150000
endloop
endfacet
facet normal 0.935297 0.353864 0.000000
outer loop
vertex 0.006237 0.004819 0.000000
vertex 0.005909 0.005687 0.150000
vertex 0.006237 0.004819 0.150000
endloop
endfacet
facet normal 0.883626 -0.468193 0.000000
outer loop
vertex 0.006397 0.001958 0.150000
vertex 0.006397 0.001958 0.000000
vertex 0.006455 0.002067 0.000000
endloop
endfacet
facet normal 0.883631 -0.468183 0.000000
outer loop
vertex 0.006397 0.001958 0.150000
vertex 0.006455 0.002067 0.000000
vertex 0.006455 0.002067 0.150000
endloop
endfacet
facet normal 0.671639 -0.740879 0.000000
outer loop
vertex 0.005439 0.000906 0.000000
vertex 0.005627 0.001077 0.000000
vertex 0.005627 0.001077 0.150000
endloop
endfacet
facet normal 0.671640 -0.740878 0.000000
outer loop
vertex 0.005439 0.000906 0.000000
vertex 0.005627 0.001077 0.150000
vertex 0.005439 0.000906 0.150000
endloop
endfacet
facet normal -0.165294 0.986244 0.000000
outer loop
vertex 0.002772 0.008880 0.150000
vertex 0.002772 0.008880 0.000000
vertex 0.002629 0.008856 0.000000
endloop
endfacet
facet normal -0.165294 0.986244 0.000000
outer loop
vertex 0.002772 0.008880 0.150000
vertex 0.002629 0.008856 0.000000
vertex 0.002629 0.008856 0.150000
endloop
endfacet
facet normal 0.000000 0.000000 1.000000
outer loop
vertex 0.001810 0.000439 0.000000
vertex 0.002728 0.000177 0.000000
vertex 0.002986 0.000107 0.000000
endloop
endfacet
facet normal -0.223683 -0.974662 0.000000
outer loop
vertex 0.002986 0.000107 0.000000
vertex 0.003223 0.000053 0.000000
vertex 0.003223 0.000053 0.150000
endloop
endfacet
facet normal -0.223682 -0.974662 0.000000
outer loop
vertex 0.002986 0.000107 0.000000
vertex 0.003223 0.000053 0.150000
vertex 0.002986 0.000107 0.150000
endloop
endfacet
facet normal 0.000000 0.000000 1.000000
outer loop
vertex 0.000858 0.000710 0.000000
vertex 0.001111 0.000625 0.000000
vertex 0.001810 0.000439 0.000000
endloop
endfacet
facet normal -0.271489 -0.962442 0.000000
outer loop
vertex 0.001810 0.000439 0.000000
vertex 0.002986 0.000107 0.000000
vertex 0.002986 0.000107 0.150000
endloop
endfacet
facet normal -0.259467 -0.965752 -0.000102
outer loop
vertex 0.001810 0.000439 0.000000
vertex 0.002986 0.000107 0.150000
vertex 0.002728 0.000177 0.150000
endloop
endfacet
facet normal -0.273795 -0.961788 0.000000
outer loop
vertex 0.000858 0.000710 0.150000
vertex 0.000858 0.000710 0.000000
vertex 0.001810 0.000439 0.000000
endloop
endfacet
facet normal -0.319927 -0.947442 -0.000319
outer loop
vertex 0.001111 0.000625 0.150000
vertex 0.000858 0.000710 0.150000
vertex 0.001810 0.000439 0.000000
endloop
endfacet
facet normal -0.274838 -0.961491 0.000000
outer loop
vertex 0.001810 0.000439 0.000000
vertex 0.002728 0.000177 0.150000
vertex 0.001810 0.000439 0.150000
endloop
endfacet
facet normal -0.256618 -0.966513 0.000000
outer loop
vertex 0.001810 0.000439 0.000000
vertex 0.001810 0.000439 0.150000
vertex 0.001111 0.000625 0.150000
endloop
endfacet
facet normal 0.788599 0.614908 0.000000
outer loop
vertex 0.004520 0.008407 0.150000
vertex 0.004520 0.008407 0.000000
vertex 0.004449 0.008498 0.000000
endloop
endfacet
facet normal 0.788602 0.614904 0.000000
outer loop
vertex 0.004520 0.008407 0.150000
vertex 0.004449 0.008498 0.000000
vertex 0.004449 0.008498 0.150000
endloop
endfacet
facet normal 0.000000 0.000000 1.000000
outer loop
vertex 0.002491 0.008820 0.000000
vertex 0.002224 0.008733 0.000000
vertex 0.002093 0.008687 0.000000
endloop
endfacet
facet normal 0.000000 0.000000 1.000000
outer loop
vertex 0.002093 0.008687 0.000000
vertex 0.001965 0.008640 0.000000
vertex 0.001842 0.008590 0.000000
endloop
endfacet
facet normal -0.398518 0.917160 0.000000
outer loop
vertex 0.001842 0.008590 0.000000
vertex 0.001724 0.008539 0.000000
vertex 0.001724 0.008539 0.150000
endloop
endfacet
facet normal -0.398518 0.917160 0.000000
outer loop
vertex 0.001842 0.008590 0.000000
vertex 0.001724 0.008539 0.150000
vertex 0.001842 0.008590 0.150000
endloop
endfacet
facet normal 0.000000 0.000000 1.000000
outer loop
vertex 0.002491 0.008820 0.000000
vertex 0.002093 0.008687 0.000000
vertex 0.001842 0.008590 0.000000
endloop
endfacet
facet normal -0.309483 0.950905 0.000000
outer loop
vertex 0.002224 0.008733 0.150000
vertex 0.002491 0.008820 0.150000
vertex 0.002491 0.008820 0.000000
endloop
endfacet
facet normal -0.330655 0.943752 -0.000042
outer loop
vertex 0.002093 0.008687 0.150000
vertex 0.002224 0.008733 0.150000
vertex 0.002491 0.008820 0.000000
endloop
endfacet
facet normal -0.333704 0.942678 0.000000
outer loop
vertex 0.002491 0.008820 0.000000
vertex 0.001842 0.008590 0.000000
vertex 0.001842 0.008590 0.150000
endloop
endfacet
facet normal -0.349173 0.937058 -0.000097
outer loop
vertex 0.001965 0.008640 0.150000
vertex 0.002093 0.008687 0.150000
vertex 0.002491 0.008820 0.000000
endloop
endfacet
facet normal -0.371593 0.928396 -0.000186
outer loop
vertex 0.001842 0.008590 0.150000
vertex 0.001965 0.008640 0.150000
vertex 0.002491 0.008820 0.000000
endloop
endfacet
endsolid Exported from Blender-3.6.8
