solid Exported from Blender-3.6.8
facet normal -0.704254 0.709948 0.000000
outer loop
vertex 0.000192 0.004514 0.150000
vertex 0.000192 0.004514 0.000000
vertex 0.000142 0.004465 0.000000
endloop
endfacet
facet normal -0.704253 0.709949 0.000000
outer loop
vertex 0.000192 0.004514 0.150000
vertex 0.000142 0.004465 0.000000
vertex 0.000142 0.004465 0.150000
endloop
endfacet
facet normal -0.980278 -0.197623 0.000000
outer loop
vertex 0.000030 0.003879 0.000000
vertex 0.000041 0.003825 0.000000
vertex 0.000041 0.003825 0.150000
endloop
endfacet
facet normal -0.980278 -0.197624 0.000000
outer loop
vertex 0.000030 0.003879 0.000000
vertex 0.000041 0.003825 0.150000
vertex 0.000030 0.003879 0.150000
endloop
endfacet
facet normal -0.987896 -0.155116 0.000000
outer loop
vertex 0.000022 0.003929 0.000000
vertex 0.000030 0.003879 0.000000
vertex 0.000030 0.003879 0.150000
endloop
endfacet
facet normal -0.987896 -0.155116 0.000000
outer loop
vertex 0.000022 0.003929 0.000000
vertex 0.000030 0.003879 0.150000
vertex 0.000022 0.003929 0.150000
endloop
endfacet
facet normal -0.992648 -0.121038 0.000000
outer loop
vertex 0.000016 0.003977 0.000000
vertex 0.000022 0.003929 0.000000
vertex 0.000022 0.003929 0.150000
endloop
endfacet
facet normal -0.992648 -0.121038 0.000000
outer loop
vertex 0.000016 0.003977 0.000000
vertex 0.000022 0.003929 0.150000
vertex 0.000016 0.003977 0.150000
endloop
endfacet
facet normal -0.993979 -0.109574 0.000000
outer loop
vertex 0.000002 0.004115 0.150000
vertex 0.000002 0.004115 0.000000
vertex 0.000007 0.004068 0.000000
endloop
endfacet
facet normal -0.995159 -0.098277 0.000000
outer loop
vertex 0.000007 0.004068 0.000000
vertex 0.000016 0.003977 0.000000
vertex 0.000016 0.003977 0.150000
endloop
endfacet
facet normal -0.993979 -0.109574 0.000000
outer loop
vertex 0.000007 0.004068 0.150000
vertex 0.000002 0.004115 0.150000
vertex 0.000007 0.004068 0.000000
endloop
endfacet
facet normal -0.995159 -0.098277 0.000000
outer loop
vertex 0.000016 0.003977 0.150000
vertex 0.000007 0.004068 0.150000
vertex 0.000007 0.004068 0.000000
endloop
endfacet
facet normal 0.774417 0.632675 0.000000
outer loop
vertex 0.004670 0.003137 0.000000
vertex 0.004532 0.003306 0.000000
vertex 0.004532 0.003306 0.150000
endloop
endfacet
facet normal 0.774415 0.632677 0.000000
outer loop
vertex 0.004670 0.003137 0.000000
vertex 0.004532 0.003306 0.150000
vertex 0.004670 0.003137 0.150000
endloop
endfacet
facet normal 0.841228 0.540681 0.000000
outer loop
vertex 0.005046 0.002578 0.150000
vertex 0.005046 0.002578 0.000000
vertex 0.004817 0.002935 0.000000
endloop
endfacet
facet normal 0.808733 0.588176 0.000000
outer loop
vertex 0.004817 0.002935 0.000000
vertex 0.004670 0.003137 0.000000
vertex 0.004670 0.003137 0.150000
endloop
endfacet
facet normal 0.841227 0.540682 0.000000
outer loop
vertex 0.004817 0.002935 0.150000
vertex 0.005046 0.002578 0.150000
vertex 0.004817 0.002935 0.000000
endloop
endfacet
facet normal 0.808735 0.588174 0.000000
outer loop
vertex 0.004670 0.003137 0.150000
vertex 0.004817 0.002935 0.150000
vertex 0.004817 0.002935 0.000000
endloop
endfacet
facet normal -0.631459 -0.775409 0.000000
outer loop
vertex 0.002294 0.000195 0.150000
vertex 0.002294 0.000195 0.000000
vertex 0.002328 0.000167 0.000000
endloop
endfacet
facet normal -0.631455 -0.775413 0.000000
outer loop
vertex 0.002294 0.000195 0.150000
vertex 0.002328 0.000167 0.000000
vertex 0.002328 0.000167 0.150000
endloop
endfacet
facet normal -0.380665 0.924713 0.000000
outer loop
vertex 0.000226 0.004534 0.150000
vertex 0.000226 0.004534 0.000000
vertex 0.000211 0.004528 0.000000
endloop
endfacet
facet normal -0.380665 0.924713 0.000000
outer loop
vertex 0.000226 0.004534 0.150000
vertex 0.000211 0.004528 0.000000
vertex 0.000211 0.004528 0.150000
endloop
endfacet
facet normal 0.494419 0.869224 0.000000
outer loop
vertex 0.004230 0.003581 0.150000
vertex 0.004230 0.003581 0.000000
vertex 0.004177 0.003611 0.000000
endloop
endfacet
facet normal 0.494413 0.869227 0.000000
outer loop
vertex 0.004230 0.003581 0.150000
vertex 0.004177 0.003611 0.000000
vertex 0.004177 0.003611 0.150000
endloop
endfacet
facet normal 0.984073 -0.177767 0.000000
outer loop
vertex 0.005282 0.000823 0.000000
vertex 0.005295 0.000892 0.000000
vertex 0.005295 0.000892 0.150000
endloop
endfacet
facet normal 0.984071 -0.177778 0.000000
outer loop
vertex 0.005282 0.000823 0.000000
vertex 0.005295 0.000892 0.150000
vertex 0.005282 0.000823 0.150000
endloop
endfacet
facet normal 0.968836 -0.247704 0.000000
outer loop
vertex 0.005211 0.000532 0.150000
vertex 0.005211 0.000532 0.000000
vertex 0.005269 0.000758 0.000000
endloop
endfacet
facet normal 0.978159 -0.207860 0.000000
outer loop
vertex 0.005269 0.000758 0.000000
vertex 0.005282 0.000823 0.000000
vertex 0.005282 0.000823 0.150000
endloop
endfacet
facet normal 0.968837 -0.247698 0.000000
outer loop
vertex 0.005269 0.000758 0.150000
vertex 0.005211 0.000532 0.150000
vertex 0.005269 0.000758 0.000000
endloop
endfacet
facet normal 0.978161 -0.207849 0.000000
outer loop
vertex 0.005282 0.000823 0.150000
vertex 0.005269 0.000758 0.150000
vertex 0.005269 0.000758 0.000000
endloop
endfacet
facet normal 0.000000 0.000000 -1.000000
outer loop
vertex 0.003094 0.000005 0.000000
vertex 0.003030 0.000002 0.000000
vertex 0.002970 0.000000 0.000000
endloop
endfacet
facet normal 0.000000 0.000000 -1.000000
outer loop
vertex 0.002970 0.000000 0.000000
vertex 0.002911 0.000000 0.000000
vertex 0.002853 0.000002 0.000000
endloop
endfacet
facet normal 0.000000 0.000000 -1.000000
outer loop
vertex 0.002853 0.000002 0.000000
vertex 0.002795 0.000006 0.000000
vertex 0.002678 0.000024 0.000000
endloop
endfacet
facet normal 0.000000 0.000000 -1.000000
outer loop
vertex 0.002678 0.000024 0.000000
vertex 0.002553 0.000059 0.000000
vertex 0.002422 0.000113 0.000000
endloop
endfacet
facet normal 0.000000 0.000000 -1.000000
outer loop
vertex 0.002422 0.000113 0.000000
vertex 0.002370 0.000140 0.000000
vertex 0.002328 0.000167 0.000000
endloop
endfacet
facet normal 0.000000 0.000000 -1.000000
outer loop
vertex 0.002328 0.000167 0.000000
vertex 0.002294 0.000195 0.000000
vertex 0.002266 0.000223 0.000000
endloop
endfacet
facet normal 0.000000 0.000000 -1.000000
outer loop
vertex 0.002266 0.000223 0.000000
vertex 0.002243 0.000254 0.000000
vertex 0.002224 0.000286 0.000000
endloop
endfacet
facet normal 0.000000 0.000000 -1.000000
outer loop
vertex 0.002224 0.000286 0.000000
vertex 0.002205 0.000321 0.000000
vertex 0.002166 0.000400 0.000000
endloop
endfacet
facet normal 0.000000 0.000000 -1.000000
outer loop
vertex 0.002141 0.000446 0.000000
vertex 0.001813 0.000984 0.000000
vertex 0.001648 0.001264 0.000000
endloop
endfacet
facet normal 0.000000 0.000000 -1.000000
outer loop
vertex 0.002266 0.000223 0.000000
vertex 0.002224 0.000286 0.000000
vertex 0.002166 0.000400 0.000000
endloop
endfacet
facet normal 0.000000 0.000000 -1.000000
outer loop
vertex 0.002266 0.000223 0.000000
vertex 0.002166 0.000400 0.000000
vertex 0.002141 0.000446 0.000000
endloop
endfacet
facet normal 0.000000 0.000000 -1.000000
outer loop
vertex 0.002422 0.000113 0.000000
vertex 0.002328 0.000167 0.000000
vertex 0.002266 0.000223 0.000000
endloop
endfacet
facet normal 0.000000 0.000000 -1.000000
outer loop
vertex 0.002853 0.000002 0.000000
vertex 0.002678 0.000024 0.000000
vertex 0.002422 0.000113 0.000000
endloop
endfacet
facet normal 0.000000 0.000000 -1.000000
outer loop
vertex 0.003094 0.000005 0.000000
vertex 0.002970 0.000000 0.000000
vertex 0.002853 0.000002 0.000000
endloop
endfacet
facet normal 0.000000 0.000000 -1.000000
outer loop
vertex 0.003161 0.000008 0.000000
vertex 0.003094 0.000005 0.000000
vertex 0.002853 0.000002 0.000000
endloop
endfacet
facet normal 0.000000 0.000000 -1.000000
outer loop
vertex 0.002853 0.000002 0.000000
vertex 0.002422 0.000113 0.000000
vertex 0.002266 0.000223 0.000000
endloop
endfacet
facet normal 0.000000 0.000000 -1.000000
outer loop
vertex 0.002853 0.000002 0.000000
vertex 0.002266 0.000223 0.000000
vertex 0.002141 0.000446 0.000000
endloop
endfacet
facet normal 0.000000 0.000000 -1.000000
outer loop
vertex 0.003232 0.000010 0.000000
vertex 0.003161 0.000008 0.000000
vertex 0.002853 0.000002 0.000000
endloop
endfacet
facet normal 0.000000 0.000000 -1.000000
outer loop
vertex 0.003302 0.000012 0.000000
vertex 0.003232 0.000010 0.000000
vertex 0.002853 0.000002 0.000000
endloop
endfacet
facet normal 0.000000 0.000000 -1.000000
outer loop
vertex 0.002853 0.000002 0.000000
vertex 0.002141 0.000446 0.000000
vertex 0.001648 0.001264 0.000000
endloop
endfacet
facet normal 0.000000 0.000000 -1.000000
outer loop
vertex 0.002853 0.000002 0.000000
vertex 0.001648 0.001264 0.000000
vertex 0.001603 0.001339 0.000000
endloop
endfacet
facet normal 0.000000 0.000000 -1.000000
outer loop
vertex 0.003366 0.000014 0.000000
vertex 0.003302 0.000012 0.000000
vertex 0.002853 0.000002 0.000000
endloop
endfacet
facet normal 0.000000 0.000000 -1.000000
outer loop
vertex 0.003599 0.000020 0.000000
vertex 0.003541 0.000019 0.000000
vertex 0.003366 0.000014 0.000000
endloop
endfacet
facet normal 0.000000 0.000000 -1.000000
outer loop
vertex 0.003724 0.000024 0.000000
vertex 0.003659 0.000022 0.000000
vertex 0.003599 0.000020 0.000000
endloop
endfacet
facet normal 0.000000 0.000000 -1.000000
outer loop
vertex 0.003872 0.000029 0.000000
vertex 0.003794 0.000026 0.000000
vertex 0.003724 0.000024 0.000000
endloop
endfacet
facet normal 0.000000 0.000000 -1.000000
outer loop
vertex 0.004056 0.000036 0.000000
vertex 0.003958 0.000032 0.000000
vertex 0.003872 0.000029 0.000000
endloop
endfacet
facet normal 0.000000 0.000000 -1.000000
outer loop
vertex 0.004335 0.000045 0.000000
vertex 0.004249 0.000042 0.000000
vertex 0.004156 0.000040 0.000000
endloop
endfacet
facet normal 0.000000 0.000000 -1.000000
outer loop
vertex 0.004056 0.000036 0.000000
vertex 0.003872 0.000029 0.000000
vertex 0.003724 0.000024 0.000000
endloop
endfacet
facet normal 0.000000 0.000000 -1.000000
outer loop
vertex 0.004416 0.000049 0.000000
vertex 0.004335 0.000045 0.000000
vertex 0.004156 0.000040 0.000000
endloop
endfacet
facet normal 0.000000 0.000000 -1.000000
outer loop
vertex 0.004056 0.000036 0.000000
vertex 0.003724 0.000024 0.000000
vertex 0.003599 0.000020 0.000000
endloop
endfacet
facet normal 0.000000 0.000000 -1.000000
outer loop
vertex 0.004416 0.000049 0.000000
vertex 0.004156 0.000040 0.000000
vertex 0.004056 0.000036 0.000000
endloop
endfacet
facet normal 0.000000 0.000000 -1.000000
outer loop
vertex 0.004562 0.000061 0.000000
vertex 0.004491 0.000054 0.000000
vertex 0.004416 0.000049 0.000000
endloop
endfacet
facet normal 0.000000 0.000000 -1.000000
outer loop
vertex 0.004750 0.000102 0.000000
vertex 0.004691 0.000084 0.000000
vertex 0.004562 0.000061 0.000000
endloop
endfacet
facet normal 0.000000 0.000000 -1.000000
outer loop
vertex 0.004861 0.000152 0.000000
vertex 0.004807 0.000124 0.000000
vertex 0.004750 0.000102 0.000000
endloop
endfacet
facet normal 0.000000 0.000000 -1.000000
outer loop
vertex 0.005006 0.000253 0.000000
vertex 0.004914 0.000186 0.000000
vertex 0.004861 0.000152 0.000000
endloop
endfacet
facet normal 0.000000 0.000000 -1.000000
outer loop
vertex 0.005075 0.000307 0.000000
vertex 0.005043 0.000281 0.000000
vertex 0.005006 0.000253 0.000000
endloop
endfacet
facet normal 0.000000 0.000000 -1.000000
outer loop
vertex 0.005148 0.000387 0.000000
vertex 0.005127 0.000359 0.000000
vertex 0.005075 0.000307 0.000000
endloop
endfacet
facet normal 0.000000 0.000000 -1.000000
outer loop
vertex 0.005182 0.000450 0.000000
vertex 0.005166 0.000416 0.000000
vertex 0.005148 0.000387 0.000000
endloop
endfacet
facet normal 0.000000 0.000000 -1.000000
outer loop
vertex 0.005269 0.000758 0.000000
vertex 0.005211 0.000532 0.000000
vertex 0.005182 0.000450 0.000000
endloop
endfacet
facet normal 0.000000 0.000000 -1.000000
outer loop
vertex 0.005295 0.000892 0.000000
vertex 0.005282 0.000823 0.000000
vertex 0.005269 0.000758 0.000000
endloop
endfacet
facet normal 0.000000 0.000000 -1.000000
outer loop
vertex 0.005319 0.001130 0.000000
vertex 0.005314 0.001045 0.000000
vertex 0.005295 0.000892 0.000000
endloop
endfacet
facet normal 0.000000 0.000000 -1.000000
outer loop
vertex 0.005318 0.001320 0.000000
vertex 0.005321 0.001222 0.000000
vertex 0.005319 0.001130 0.000000
endloop
endfacet
facet normal 0.000000 0.000000 -1.000000
outer loop
vertex 0.005286 0.001649 0.000000
vertex 0.005311 0.001425 0.000000
vertex 0.005318 0.001320 0.000000
endloop
endfacet
facet normal 0.000000 0.000000 -1.000000
outer loop
vertex 0.005259 0.001934 0.000000
vertex 0.005268 0.001845 0.000000
vertex 0.005276 0.001751 0.000000
endloop
endfacet
facet normal 0.000000 0.000000 -1.000000
outer loop
vertex 0.005286 0.001649 0.000000
vertex 0.005318 0.001320 0.000000
vertex 0.005319 0.001130 0.000000
endloop
endfacet
facet normal 0.000000 0.000000 -1.000000
outer loop
vertex 0.005248 0.002019 0.000000
vertex 0.005259 0.001934 0.000000
vertex 0.005276 0.001751 0.000000
endloop
endfacet
facet normal 0.000000 0.000000 -1.000000
outer loop
vertex 0.005276 0.001751 0.000000
vertex 0.005286 0.001649 0.000000
vertex 0.005319 0.001130 0.000000
endloop
endfacet
facet normal 0.000000 0.000000 -1.000000
outer loop
vertex 0.005319 0.001130 0.000000
vertex 0.005295 0.000892 0.000000
vertex 0.005269 0.000758 0.000000
endloop
endfacet
facet normal 0.000000 0.000000 -1.000000
outer loop
vertex 0.005269 0.000758 0.000000
vertex 0.005182 0.000450 0.000000
vertex 0.005148 0.000387 0.000000
endloop
endfacet
facet normal 0.000000 0.000000 -1.000000
outer loop
vertex 0.005148 0.000387 0.000000
vertex 0.005075 0.000307 0.000000
vertex 0.005006 0.000253 0.000000
endloop
endfacet
facet normal 0.000000 0.000000 -1.000000
outer loop
vertex 0.005006 0.000253 0.000000
vertex 0.004861 0.000152 0.000000
vertex 0.004750 0.000102 0.000000
endloop
endfacet
facet normal 0.000000 0.000000 -1.000000
outer loop
vertex 0.004750 0.000102 0.000000
vertex 0.004562 0.000061 0.000000
vertex 0.004416 0.000049 0.000000
endloop
endfacet
facet normal 0.000000 0.000000 -1.000000
outer loop
vertex 0.004416 0.000049 0.000000
vertex 0.004056 0.000036 0.000000
vertex 0.003599 0.000020 0.000000
endloop
endfacet
facet normal 0.000000 0.000000 -1.000000
outer loop
vertex 0.003599 0.000020 0.000000
vertex 0.003366 0.000014 0.000000
vertex 0.002853 0.000002 0.000000
endloop
endfacet
facet normal 0.000000 0.000000 -1.000000
outer loop
vertex 0.002853 0.000002 0.000000
vertex 0.001603 0.001339 0.000000
vertex 0.001551 0.001416 0.000000
endloop
endfacet
facet normal 0.000000 0.000000 -1.000000
outer loop
vertex 0.002853 0.000002 0.000000
vertex 0.001551 0.001416 0.000000
vertex 0.001494 0.001495 0.000000
endloop
endfacet
facet normal 0.000000 0.000000 -1.000000
outer loop
vertex 0.004416 0.000049 0.000000
vertex 0.003599 0.000020 0.000000
vertex 0.002853 0.000002 0.000000
endloop
endfacet
facet normal 0.000000 0.000000 -1.000000
outer loop
vertex 0.005006 0.000253 0.000000
vertex 0.004750 0.000102 0.000000
vertex 0.004416 0.000049 0.000000
endloop
endfacet
facet normal 0.000000 0.000000 -1.000000
outer loop
vertex 0.005269 0.000758 0.000000
vertex 0.005148 0.000387 0.000000
vertex 0.005006 0.000253 0.000000
endloop
endfacet
facet normal 0.000000 0.000000 -1.000000
outer loop
vertex 0.005276 0.001751 0.000000
vertex 0.005319 0.001130 0.000000
vertex 0.005269 0.000758 0.000000
endloop
endfacet
facet normal 0.000000 0.000000 -1.000000
outer loop
vertex 0.005214 0.002189 0.000000
vertex 0.005248 0.002019 0.000000
vertex 0.005276 0.001751 0.000000
endloop
endfacet
facet normal 0.000000 0.000000 -1.000000
outer loop
vertex 0.005046 0.002578 0.000000
vertex 0.005151 0.002369 0.000000
vertex 0.005214 0.002189 0.000000
endloop
endfacet
facet normal 0.000000 0.000000 -1.000000
outer loop
vertex 0.004670 0.003137 0.000000
vertex 0.004817 0.002935 0.000000
vertex 0.005046 0.002578 0.000000
endloop
endfacet
facet normal 0.000000 0.000000 -1.000000
outer loop
vertex 0.004404 0.003441 0.000000
vertex 0.004532 0.003306 0.000000
vertex 0.004670 0.003137 0.000000
endloop
endfacet
facet normal 0.000000 0.000000 -1.000000
outer loop
vertex 0.004230 0.003581 0.000000
vertex 0.004286 0.003543 0.000000
vertex 0.004404 0.003441 0.000000
endloop
endfacet
facet normal 0.000000 0.000000 -1.000000
outer loop
vertex 0.004119 0.003638 0.000000
vertex 0.004177 0.003611 0.000000
vertex 0.004230 0.003581 0.000000
endloop
endfacet
facet normal 0.000000 0.000000 -1.000000
outer loop
vertex 0.003969 0.003695 0.000000
vertex 0.004049 0.003666 0.000000
vertex 0.004119 0.003638 0.000000
endloop
endfacet
facet normal 0.000000 0.000000 -1.000000
outer loop
vertex 0.002109 0.004152 0.000000
vertex 0.003794 0.003754 0.000000
vertex 0.003969 0.003695 0.000000
endloop
endfacet
facet normal 0.000000 0.000000 -1.000000
outer loop
vertex 0.001760 0.004281 0.000000
vertex 0.001931 0.004220 0.000000
vertex 0.002014 0.004185 0.000000
endloop
endfacet
facet normal 0.000000 0.000000 -1.000000
outer loop
vertex 0.002109 0.004152 0.000000
vertex 0.003969 0.003695 0.000000
vertex 0.004119 0.003638 0.000000
endloop
endfacet
facet normal 0.000000 0.000000 -1.000000
outer loop
vertex 0.001407 0.004389 0.000000
vertex 0.001760 0.004281 0.000000
vertex 0.002014 0.004185 0.000000
endloop
endfacet
facet normal 0.000000 0.000000 -1.000000
outer loop
vertex 0.002109 0.004152 0.000000
vertex 0.004119 0.003638 0.000000
vertex 0.004230 0.003581 0.000000
endloop
endfacet
facet normal 0.000000 0.000000 -1.000000
outer loop
vertex 0.001407 0.004389 0.000000
vertex 0.002014 0.004185 0.000000
vertex 0.002109 0.004152 0.000000
endloop
endfacet
facet normal 0.000000 0.000000 -1.000000
outer loop
vertex 0.001229 0.004413 0.000000
vertex 0.001323 0.004400 0.000000
vertex 0.001407 0.004389 0.000000
endloop
endfacet
facet normal 0.000000 0.000000 -1.000000
outer loop
vertex 0.000977 0.004446 0.000000
vertex 0.001112 0.004428 0.000000
vertex 0.001229 0.004413 0.000000
endloop
endfacet
facet normal 0.000000 0.000000 -1.000000
outer loop
vertex 0.000690 0.004482 0.000000
vertex 0.000834 0.004464 0.000000
vertex 0.000977 0.004446 0.000000
endloop
endfacet
facet normal 0.000000 0.000000 -1.000000
outer loop
vertex 0.000430 0.004514 0.000000
vertex 0.000553 0.004499 0.000000
vertex 0.000690 0.004482 0.000000
endloop
endfacet
facet normal 0.000000 0.000000 -1.000000
outer loop
vertex 0.000259 0.004533 0.000000
vertex 0.000330 0.004526 0.000000
vertex 0.000430 0.004514 0.000000
endloop
endfacet
facet normal 0.000000 0.000000 -1.000000
outer loop
vertex 0.000211 0.004528 0.000000
vertex 0.000226 0.004534 0.000000
vertex 0.000259 0.004533 0.000000
endloop
endfacet
facet normal 0.000000 0.000000 -1.000000
outer loop
vertex 0.000142 0.004465 0.000000
vertex 0.000192 0.004514 0.000000
vertex 0.000211 0.004528 0.000000
endloop
endfacet
facet normal 0.000000 0.000000 -1.000000
outer loop
vertex 0.000039 0.004307 0.000000
vertex 0.000088 0.004393 0.000000
vertex 0.000142 0.004465 0.000000
endloop
endfacet
facet normal 0.000000 0.000000 -1.000000
outer loop
vertex 0.000007 0.004212 0.000000
vertex 0.000020 0.004260 0.000000
vertex 0.000039 0.004307 0.000000
endloop
endfacet
facet normal 0.000000 0.000000 -1.000000
outer loop
vertex 0.000002 0.004115 0.000000
vertex 0.000000 0.004163 0.000000
vertex 0.000007 0.004212 0.000000
endloop
endfacet
facet normal 0.000000 0.000000 -1.000000
outer loop
vertex 0.000022 0.003929 0.000000
vertex 0.000016 0.003977 0.000000
vertex 0.000007 0.004068 0.000000
endloop
endfacet
facet normal 0.000000 0.000000 -1.000000
outer loop
vertex 0.000007 0.004068 0.000000
vertex 0.000002 0.004115 0.000000
vertex 0.000007 0.004212 0.000000
endloop
endfacet
facet normal 0.000000 0.000000 -1.000000
outer loop
vertex 0.000007 0.004212 0.000000
vertex 0.000039 0.004307 0.000000
vertex 0.000142 0.004465 0.000000
endloop
endfacet
facet normal 0.000000 0.000000 -1.000000
outer loop
vertex 0.000142 0.004465 0.000000
vertex 0.000211 0.004528 0.000000
vertex 0.000259 0.004533 0.000000
endloop
endfacet
facet normal 0.000000 0.000000 -1.000000
outer loop
vertex 0.000259 0.004533 0.000000
vertex 0.000430 0.004514 0.000000
vertex 0.000690 0.004482 0.000000
endloop
endfacet
facet normal 0.000000 0.000000 -1.000000
outer loop
vertex 0.000690 0.004482 0.000000
vertex 0.000977 0.004446 0.000000
vertex 0.001229 0.004413 0.000000
endloop
endfacet
facet normal 0.000000 0.000000 -1.000000
outer loop
vertex 0.001229 0.004413 0.000000
vertex 0.001407 0.004389 0.000000
vertex 0.002109 0.004152 0.000000
endloop
endfacet
facet normal 0.000000 0.000000 -1.000000
outer loop
vertex 0.002109 0.004152 0.000000
vertex 0.004230 0.003581 0.000000
vertex 0.004404 0.003441 0.000000
endloop
endfacet
facet normal 0.000000 0.000000 -1.000000
outer loop
vertex 0.004404 0.003441 0.000000
vertex 0.004670 0.003137 0.000000
vertex 0.005046 0.002578 0.000000
endloop
endfacet
facet normal 0.000000 0.000000 -1.000000
outer loop
vertex 0.005046 0.002578 0.000000
vertex 0.005214 0.002189 0.000000
vertex 0.005276 0.001751 0.000000
endloop
endfacet
facet normal 0.000000 0.000000 -1.000000
outer loop
vertex 0.005276 0.001751 0.000000
vertex 0.005269 0.000758 0.000000
vertex 0.005006 0.000253 0.000000
endloop
endfacet
facet normal 0.000000 0.000000 -1.000000
outer loop
vertex 0.005006 0.000253 0.000000
vertex 0.004416 0.000049 0.000000
vertex 0.002853 0.000002 0.000000
endloop
endfacet
facet normal 0.000000 0.000000 -1.000000
outer loop
vertex 0.002853 0.000002 0.000000
vertex 0.001494 0.001495 0.000000
vertex 0.001433 0.001574 0.000000
endloop
endfacet
facet normal 0.000000 0.000000 -1.000000
outer loop
vertex 0.001370 0.001653 0.000000
vertex 0.001045 0.002045 0.000000
vertex 0.001014 0.002085 0.000000
endloop
endfacet
facet normal 0.000000 0.000000 -1.000000
outer loop
vertex 0.002853 0.000002 0.000000
vertex 0.001433 0.001574 0.000000
vertex 0.001370 0.001653 0.000000
endloop
endfacet
facet normal 0.000000 0.000000 -1.000000
outer loop
vertex 0.005276 0.001751 0.000000
vertex 0.005006 0.000253 0.000000
vertex 0.002853 0.000002 0.000000
endloop
endfacet
facet normal 0.000000 0.000000 -1.000000
outer loop
vertex 0.004404 0.003441 0.000000
vertex 0.005046 0.002578 0.000000
vertex 0.005276 0.001751 0.000000
endloop
endfacet
facet normal 0.000000 0.000000 -1.000000
outer loop
vertex 0.001229 0.004413 0.000000
vertex 0.002109 0.004152 0.000000
vertex 0.004404 0.003441 0.000000
endloop
endfacet
facet normal 0.000000 0.000000 -1.000000
outer loop
vertex 0.000259 0.004533 0.000000
vertex 0.000690 0.004482 0.000000
vertex 0.001229 0.004413 0.000000
endloop
endfacet
facet normal 0.000000 0.000000 -1.000000
outer loop
vertex 0.000007 0.004212 0.000000
vertex 0.000142 0.004465 0.000000
vertex 0.000259 0.004533 0.000000
endloop
endfacet
facet normal 0.000000 0.000000 -1.000000
outer loop
vertex 0.000022 0.003929 0.000000
vertex 0.000007 0.004068 0.000000
vertex 0.000007 0.004212 0.000000
endloop
endfacet
facet normal 0.000000 0.000000 -1.000000
outer loop
vertex 0.000041 0.003825 0.000000
vertex 0.000030 0.003879 0.000000
vertex 0.000022 0.003929 0.000000
endloop
endfacet
facet normal 0.000000 0.000000 -1.000000
outer loop
vertex 0.000075 0.003700 0.000000
vertex 0.000056 0.003765 0.000000
vertex 0.000041 0.003825 0.000000
endloop
endfacet
facet normal 0.000000 0.000000 -1.000000
outer loop
vertex 0.000133 0.003544 0.000000
vertex 0.000101 0.003626 0.000000
vertex 0.000075 0.003700 0.000000
endloop
endfacet
facet normal 0.000000 0.000000 -1.000000
outer loop
vertex 0.000223 0.003349 0.000000
vertex 0.000174 0.003452 0.000000
vertex 0.000133 0.003544 0.000000
endloop
endfacet
facet normal 0.000000 0.000000 -1.000000
outer loop
vertex 0.000348 0.003113 0.000000
vertex 0.000281 0.003235 0.000000
vertex 0.000223 0.003349 0.000000
endloop
endfacet
facet normal 0.000000 0.000000 -1.000000
outer loop
vertex 0.000500 0.002858 0.000000
vertex 0.000422 0.002987 0.000000
vertex 0.000348 0.003113 0.000000
endloop
endfacet
facet normal 0.000000 0.000000 -1.000000
outer loop
vertex 0.000811 0.002378 0.000000
vertex 0.000660 0.002606 0.000000
vertex 0.000500 0.002858 0.000000
endloop
endfacet
facet normal 0.000000 0.000000 -1.000000
outer loop
vertex 0.000981 0.002131 0.000000
vertex 0.000935 0.002197 0.000000
vertex 0.000811 0.002378 0.000000
endloop
endfacet
facet normal 0.000000 0.000000 -1.000000
outer loop
vertex 0.001370 0.001653 0.000000
vertex 0.001014 0.002085 0.000000
vertex 0.000981 0.002131 0.000000
endloop
endfacet
facet normal 0.000000 0.000000 -1.000000
outer loop
vertex 0.005276 0.001751 0.000000
vertex 0.002853 0.000002 0.000000
vertex 0.001370 0.001653 0.000000
endloop
endfacet
facet normal 0.000000 0.000000 -1.000000
outer loop
vertex 0.001229 0.004413 0.000000
vertex 0.004404 0.003441 0.000000
vertex 0.005276 0.001751 0.000000
endloop
endfacet
facet normal 0.000000 0.000000 -1.000000
outer loop
vertex 0.000007 0.004212 0.000000
vertex 0.000259 0.004533 0.000000
vertex 0.001229 0.004413 0.000000
endloop
endfacet
facet normal 0.000000 0.000000 -1.000000
outer loop
vertex 0.000041 0.003825 0.000000
vertex 0.000022 0.003929 0.000000
vertex 0.000007 0.004212 0.000000
endloop
endfacet
facet normal 0.000000 0.000000 -1.000000
outer loop
vertex 0.000133 0.003544 0.000000
vertex 0.000075 0.003700 0.000000
vertex 0.000041 0.003825 0.000000
endloop
endfacet
facet normal 0.000000 0.000000 -1.000000
outer loop
vertex 0.000348 0.003113 0.000000
vertex 0.000223 0.003349 0.000000
vertex 0.000133 0.003544 0.000000
endloop
endfacet
facet normal 0.000000 0.000000 -1.000000
outer loop
vertex 0.000811 0.002378 0.000000
vertex 0.000500 0.002858 0.000000
vertex 0.000348 0.003113 0.000000
endloop
endfacet
facet normal 0.000000 0.000000 -1.000000
outer loop
vertex 0.001370 0.001653 0.000000
vertex 0.000981 0.002131 0.000000
vertex 0.000811 0.002378 0.000000
endloop
endfacet
facet normal 0.000000 0.000000 -1.000000
outer loop
vertex 0.001229 0.004413 0.000000
vertex 0.005276 0.001751 0.000000
vertex 0.001370 0.001653 0.000000
endloop
endfacet
facet normal 0.000000 0.000000 -1.000000
outer loop
vertex 0.000041 0.003825 0.000000
vertex 0.000007 0.004212 0.000000
vertex 0.001229 0.004413 0.000000
endloop
endfacet
facet normal 0.000000 0.000000 -1.000000
outer loop
vertex 0.000348 0.003113 0.000000
vertex 0.000133 0.003544 0.000000
vertex 0.000041 0.003825 0.000000
endloop
endfacet
facet normal 0.000000 0.000000 -1.000000
outer loop
vertex 0.001370 0.001653 0.000000
vertex 0.000811 0.002378 0.000000
vertex 0.000348 0.003113 0.000000
endloop
endfacet
facet normal 0.000000 0.000000 -1.000000
outer loop
vertex 0.000041 0.003825 0.000000
vertex 0.001229 0.004413 0.000000
vertex 0.001370 0.001653 0.000000
endloop
endfacet
facet normal 0.000000 0.000000 -1.000000
outer loop
vertex 0.001370 0.001653 0.000000
vertex 0.000348 0.003113 0.000000
vertex 0.000041 0.003825 0.000000
endloop
endfacet
facet normal 0.944687 0.327973 0.000000
outer loop
vertex 0.005214 0.002189 0.150000
vertex 0.005214 0.002189 0.000000
vertex 0.005151 0.002369 0.000000
endloop
endfacet
facet normal 0.944686 0.327977 0.000000
outer loop
vertex 0.005214 0.002189 0.150000
vertex 0.005151 0.002369 0.000000
vertex 0.005151 0.002369 0.150000
endloop
endfacet
facet normal 0.943246 -0.332095 0.000000
outer loop
vertex 0.005182 0.000450 0.150000
vertex 0.005182 0.000450 0.000000
vertex 0.005211 0.000532 0.000000
endloop
endfacet
facet normal 0.943246 -0.332095 0.000000
outer loop
vertex 0.005182 0.000450 0.150000
vertex 0.005211 0.000532 0.000000
vertex 0.005211 0.000532 0.150000
endloop
endfacet
facet normal 0.000000 0.000000 1.000000
outer loop
vertex 0.005214 0.002189 0.150000
vertex 0.005151 0.002369 0.150000
vertex 0.005046 0.002578 0.150000
endloop
endfacet
facet normal -0.000597 0.000000 1.000000
outer loop
vertex 0.005046 0.002578 0.150000
vertex 0.004817 0.002935 0.150000
vertex 0.004670 0.003137 0.150000
endloop
endfacet
facet normal -0.001212 0.000000 0.999999
outer loop
vertex 0.004670 0.003137 0.150000
vertex 0.004532 0.003306 0.150000
vertex 0.004404 0.003441 0.150000
endloop
endfacet
facet normal 0.000832 0.000000 1.000000
outer loop
vertex 0.004404 0.003441 0.150000
vertex 0.004286 0.003543 0.150000
vertex 0.004230 0.003581 0.150000
endloop
endfacet
facet normal 0.002707 0.000000 0.999996
outer loop
vertex 0.004230 0.003581 0.150000
vertex 0.004177 0.003611 0.150000
vertex 0.004119 0.003638 0.150000
endloop
endfacet
facet normal -0.004561 0.000000 0.999990
outer loop
vertex 0.004119 0.003638 0.150000
vertex 0.004049 0.003666 0.150000
vertex 0.003969 0.003695 0.150000
endloop
endfacet
facet normal 0.000000 0.000000 1.000000
outer loop
vertex 0.003969 0.003695 0.150000
vertex 0.003794 0.003754 0.150000
vertex 0.002109 0.004152 0.150000
endloop
endfacet
facet normal 0.000000 0.000000 1.000000
outer loop
vertex 0.002014 0.004185 0.150000
vertex 0.001931 0.004220 0.150000
vertex 0.001760 0.004281 0.150000
endloop
endfacet
facet normal 0.000000 0.000000 1.000000
outer loop
vertex 0.004119 0.003638 0.150000
vertex 0.003969 0.003695 0.150000
vertex 0.002109 0.004152 0.150000
endloop
endfacet
facet normal 0.000000 0.000000 1.000000
outer loop
vertex 0.002014 0.004185 0.150000
vertex 0.001760 0.004281 0.150000
vertex 0.001407 0.004389 0.150000
endloop
endfacet
facet normal 0.000000 0.000000 1.000000
outer loop
vertex 0.004230 0.003581 0.150000
vertex 0.004119 0.003638 0.150000
vertex 0.002109 0.004152 0.150000
endloop
endfacet
facet normal -0.012902 0.000000 0.999917
outer loop
vertex 0.002109 0.004152 0.150000
vertex 0.002014 0.004185 0.150000
vertex 0.001407 0.004389 0.150000
endloop
endfacet
facet normal 0.000000 0.000000 1.000000
outer loop
vertex 0.001407 0.004389 0.150000
vertex 0.001323 0.004400 0.150000
vertex 0.001229 0.004413 0.150000
endloop
endfacet
facet normal 0.000000 0.000000 1.000000
outer loop
vertex 0.001229 0.004413 0.150000
vertex 0.001112 0.004428 0.150000
vertex 0.000977 0.004446 0.150000
endloop
endfacet
facet normal 0.000000 0.000000 1.000000
outer loop
vertex 0.000977 0.004446 0.150000
vertex 0.000834 0.004464 0.150000
vertex 0.000690 0.004482 0.150000
endloop
endfacet
facet normal 0.000000 0.000000 1.000000
outer loop
vertex 0.000690 0.004482 0.150000
vertex 0.000553 0.004499 0.150000
vertex 0.000430 0.004514 0.150000
endloop
endfacet
facet normal -0.002118 0.000000 0.999998
outer loop
vertex 0.000430 0.004514 0.150000
vertex 0.000330 0.004526 0.150000
vertex 0.000259 0.004533 0.150000
endloop
endfacet
facet normal -0.000515 0.000000 1.000000
outer loop
vertex 0.000259 0.004533 0.150000
vertex 0.000226 0.004534 0.150000
vertex 0.000211 0.004528 0.150000
endloop
endfacet
facet normal 0.000000 0.000000 1.000000
outer loop
vertex 0.000211 0.004528 0.150000
vertex 0.000192 0.004514 0.150000
vertex 0.000142 0.004465 0.150000
endloop
endfacet
facet normal 0.001460 0.000000 0.999999
outer loop
vertex 0.000142 0.004465 0.150000
vertex 0.000088 0.004393 0.150000
vertex 0.000039 0.004307 0.150000
endloop
endfacet
facet normal 0.003293 0.000000 0.999995
outer loop
vertex 0.000039 0.004307 0.150000
vertex 0.000020 0.004260 0.150000
vertex 0.000007 0.004212 0.150000
endloop
endfacet
facet normal 0.000000 0.000000 1.000000
outer loop
vertex 0.000007 0.004212 0.150000
vertex 0.000000 0.004163 0.150000
vertex 0.000002 0.004115 0.150000
endloop
endfacet
facet normal 0.008993 0.000000 0.999960
outer loop
vertex 0.000007 0.004068 0.150000
vertex 0.000016 0.003977 0.150000
vertex 0.000022 0.003929 0.150000
endloop
endfacet
facet normal -0.001224 0.000000 0.999999
outer loop
vertex 0.000007 0.004212 0.150000
vertex 0.000002 0.004115 0.150000
vertex 0.000007 0.004068 0.150000
endloop
endfacet
facet normal 0.000388 0.000000 1.000000
outer loop
vertex 0.000142 0.004465 0.150000
vertex 0.000039 0.004307 0.150000
vertex 0.000007 0.004212 0.150000
endloop
endfacet
facet normal 0.000000 0.000000 1.000000
outer loop
vertex 0.000259 0.004533 0.150000
vertex 0.000211 0.004528 0.150000
vertex 0.000142 0.004465 0.150000
endloop
endfacet
facet normal 0.000663 0.000000 1.000000
outer loop
vertex 0.000690 0.004482 0.150000
vertex 0.000430 0.004514 0.150000
vertex 0.000259 0.004533 0.150000
endloop
endfacet
facet normal 0.000000 0.000000 1.000000
outer loop
vertex 0.001229 0.004413 0.150000
vertex 0.000977 0.004446 0.150000
vertex 0.000690 0.004482 0.150000
endloop
endfacet
facet normal 0.000160 0.000000 1.000000
outer loop
vertex 0.002109 0.004152 0.150000
vertex 0.001407 0.004389 0.150000
vertex 0.001229 0.004413 0.150000
endloop
endfacet
facet normal 0.000000 0.000000 1.000000
outer loop
vertex 0.004404 0.003441 0.150000
vertex 0.004230 0.003581 0.150000
vertex 0.002109 0.004152 0.150000
endloop
endfacet
facet normal 0.000000 0.000000 1.000000
outer loop
vertex 0.005046 0.002578 0.150000
vertex 0.004670 0.003137 0.150000
vertex 0.004404 0.003441 0.150000
endloop
endfacet
facet normal -0.000481 0.000000 1.000000
outer loop
vertex 0.005248 0.002019 0.150000
vertex 0.005214 0.002189 0.150000
vertex 0.005046 0.002578 0.150000
endloop
endfacet
facet normal 0.000000 0.000000 1.000000
outer loop
vertex 0.005268 0.001845 0.150000
vertex 0.005259 0.001934 0.150000
vertex 0.005248 0.002019 0.150000
endloop
endfacet
facet normal 0.000000 0.000000 1.000000
outer loop
vertex 0.005276 0.001751 0.150000
vertex 0.005268 0.001845 0.150000
vertex 0.005248 0.002019 0.150000
endloop
endfacet
facet normal 0.000000 0.000000 1.000000
outer loop
vertex 0.005248 0.002019 0.150000
vertex 0.005046 0.002578 0.150000
vertex 0.004404 0.003441 0.150000
endloop
endfacet
facet normal -0.000268 0.000000 1.000000
outer loop
vertex 0.004404 0.003441 0.150000
vertex 0.002109 0.004152 0.150000
vertex 0.001229 0.004413 0.150000
endloop
endfacet
facet normal 0.000302 0.000000 1.000000
outer loop
vertex 0.001229 0.004413 0.150000
vertex 0.000690 0.004482 0.150000
vertex 0.000259 0.004533 0.150000
endloop
endfacet
facet normal -0.000355 0.000000 1.000000
outer loop
vertex 0.000259 0.004533 0.150000
vertex 0.000142 0.004465 0.150000
vertex 0.000007 0.004212 0.150000
endloop
endfacet
facet normal 0.000000 0.000000 1.000000
outer loop
vertex 0.000007 0.004212 0.150000
vertex 0.000007 0.004068 0.150000
vertex 0.000022 0.003929 0.150000
endloop
endfacet
facet normal -0.014979 0.000000 0.999888
outer loop
vertex 0.000022 0.003929 0.150000
vertex 0.000030 0.003879 0.150000
vertex 0.000041 0.003825 0.150000
endloop
endfacet
facet normal -0.009248 0.000000 0.999957
outer loop
vertex 0.000041 0.003825 0.150000
vertex 0.000056 0.003765 0.150000
vertex 0.000075 0.003700 0.150000
endloop
endfacet
facet normal 0.000000 0.000000 1.000000
outer loop
vertex 0.000075 0.003700 0.150000
vertex 0.000101 0.003626 0.150000
vertex 0.000133 0.003544 0.150000
endloop
endfacet
facet normal 0.000000 0.000000 1.000000
outer loop
vertex 0.000133 0.003544 0.150000
vertex 0.000174 0.003452 0.150000
vertex 0.000223 0.003349 0.150000
endloop
endfacet
facet normal 0.006716 0.000000 0.999977
outer loop
vertex 0.000223 0.003349 0.150000
vertex 0.000281 0.003235 0.150000
vertex 0.000348 0.003113 0.150000
endloop
endfacet
facet normal 0.000000 0.000000 1.000000
outer loop
vertex 0.000348 0.003113 0.150000
vertex 0.000422 0.002987 0.150000
vertex 0.000500 0.002858 0.150000
endloop
endfacet
facet normal 0.000000 0.000000 1.000000
outer loop
vertex 0.000500 0.002858 0.150000
vertex 0.000660 0.002606 0.150000
vertex 0.000811 0.002378 0.150000
endloop
endfacet
facet normal 0.016035 0.000000 0.999871
outer loop
vertex 0.000811 0.002378 0.150000
vertex 0.000935 0.002197 0.150000
vertex 0.000981 0.002131 0.150000
endloop
endfacet
facet normal -0.009698 0.000000 0.999953
outer loop
vertex 0.000981 0.002131 0.150000
vertex 0.001014 0.002085 0.150000
vertex 0.001045 0.002045 0.150000
endloop
endfacet
facet normal 0.000000 0.000000 1.000000
outer loop
vertex 0.000981 0.002131 0.150000
vertex 0.001045 0.002045 0.150000
vertex 0.001370 0.001653 0.150000
endloop
endfacet
facet normal 0.000000 0.000000 1.000000
outer loop
vertex 0.000500 0.002858 0.150000
vertex 0.000811 0.002378 0.150000
vertex 0.000981 0.002131 0.150000
endloop
endfacet
facet normal 0.000000 0.000000 1.000000
outer loop
vertex 0.000223 0.003349 0.150000
vertex 0.000348 0.003113 0.150000
vertex 0.000500 0.002858 0.150000
endloop
endfacet
facet normal 0.000000 0.000000 1.000000
outer loop
vertex 0.000075 0.003700 0.150000
vertex 0.000133 0.003544 0.150000
vertex 0.000223 0.003349 0.150000
endloop
endfacet
facet normal 0.000000 0.000000 1.000000
outer loop
vertex 0.000022 0.003929 0.150000
vertex 0.000041 0.003825 0.150000
vertex 0.000075 0.003700 0.150000
endloop
endfacet
facet normal 0.000000 0.000000 1.000000
outer loop
vertex 0.000259 0.004533 0.150000
vertex 0.000007 0.004212 0.150000
vertex 0.000022 0.003929 0.150000
endloop
endfacet
facet normal -0.000013 0.000000 1.000000
outer loop
vertex 0.004404 0.003441 0.150000
vertex 0.001229 0.004413 0.150000
vertex 0.000259 0.004533 0.150000
endloop
endfacet
facet normal 0.000000 0.000000 1.000000
outer loop
vertex 0.005276 0.001751 0.150000
vertex 0.005248 0.002019 0.150000
vertex 0.004404 0.003441 0.150000
endloop
endfacet
facet normal 0.000000 0.000000 1.000000
outer loop
vertex 0.005318 0.001320 0.150000
vertex 0.005311 0.001425 0.150000
vertex 0.005286 0.001649 0.150000
endloop
endfacet
facet normal 0.000000 0.000000 1.000000
outer loop
vertex 0.005286 0.001649 0.150000
vertex 0.005276 0.001751 0.150000
vertex 0.004404 0.003441 0.150000
endloop
endfacet
facet normal 0.000005 0.000000 1.000000
outer loop
vertex 0.004404 0.003441 0.150000
vertex 0.000259 0.004533 0.150000
vertex 0.000022 0.003929 0.150000
endloop
endfacet
facet normal 0.000485 0.000000 1.000000
outer loop
vertex 0.000022 0.003929 0.150000
vertex 0.000075 0.003700 0.150000
vertex 0.000223 0.003349 0.150000
endloop
endfacet
facet normal 0.000422 0.000000 1.000000
outer loop
vertex 0.000223 0.003349 0.150000
vertex 0.000500 0.002858 0.150000
vertex 0.000981 0.002131 0.150000
endloop
endfacet
facet normal -0.000261 0.000000 1.000000
outer loop
vertex 0.000223 0.003349 0.150000
vertex 0.000981 0.002131 0.150000
vertex 0.001370 0.001653 0.150000
endloop
endfacet
facet normal -0.000006 0.000000 1.000000
outer loop
vertex 0.004404 0.003441 0.150000
vertex 0.000022 0.003929 0.150000
vertex 0.000223 0.003349 0.150000
endloop
endfacet
facet normal 0.000251 0.000000 1.000000
outer loop
vertex 0.005318 0.001320 0.150000
vertex 0.005286 0.001649 0.150000
vertex 0.004404 0.003441 0.150000
endloop
endfacet
facet normal 0.000000 0.000000 1.000000
outer loop
vertex 0.005319 0.001130 0.150000
vertex 0.005321 0.001222 0.150000
vertex 0.005318 0.001320 0.150000
endloop
endfacet
facet normal -0.004531 0.000000 0.999990
outer loop
vertex 0.005295 0.000892 0.150000
vertex 0.005314 0.001045 0.150000
vertex 0.005319 0.001130 0.150000
endloop
endfacet
facet normal 0.012641 0.000000 0.999920
outer loop
vertex 0.005269 0.000758 0.150000
vertex 0.005282 0.000823 0.150000
vertex 0.005295 0.000892 0.150000
endloop
endfacet
facet normal -0.004081 0.000000 0.999992
outer loop
vertex 0.005182 0.000450 0.150000
vertex 0.005211 0.000532 0.150000
vertex 0.005269 0.000758 0.150000
endloop
endfacet
facet normal 0.007373 0.000000 0.999973
outer loop
vertex 0.005148 0.000387 0.150000
vertex 0.005166 0.000416 0.150000
vertex 0.005182 0.000450 0.150000
endloop
endfacet
facet normal 0.000000 0.000000 1.000000
outer loop
vertex 0.005075 0.000307 0.150000
vertex 0.005127 0.000359 0.150000
vertex 0.005148 0.000387 0.150000
endloop
endfacet
facet normal 0.012207 0.000000 0.999925
outer loop
vertex 0.005006 0.000253 0.150000
vertex 0.005043 0.000281 0.150000
vertex 0.005075 0.000307 0.150000
endloop
endfacet
facet normal 0.000000 0.000000 1.000000
outer loop
vertex 0.004861 0.000152 0.150000
vertex 0.004914 0.000186 0.150000
vertex 0.005006 0.000253 0.150000
endloop
endfacet
facet normal 0.002517 0.000000 0.999997
outer loop
vertex 0.004750 0.000102 0.150000
vertex 0.004807 0.000124 0.150000
vertex 0.004861 0.000152 0.150000
endloop
endfacet
facet normal -0.000519 0.000000 1.000000
outer loop
vertex 0.004562 0.000061 0.150000
vertex 0.004691 0.000084 0.150000
vertex 0.004750 0.000102 0.150000
endloop
endfacet
facet normal 0.000000 0.000000 1.000000
outer loop
vertex 0.004416 0.000049 0.150000
vertex 0.004491 0.000054 0.150000
vertex 0.004562 0.000061 0.150000
endloop
endfacet
facet normal 0.000000 0.000000 1.000000
outer loop
vertex 0.004249 0.000042 0.150000
vertex 0.004335 0.000045 0.150000
vertex 0.004416 0.000049 0.150000
endloop
endfacet
facet normal 0.000000 0.000000 1.000000
outer loop
vertex 0.004156 0.000040 0.150000
vertex 0.004249 0.000042 0.150000
vertex 0.004416 0.000049 0.150000
endloop
endfacet
facet normal 0.000248 0.000000 1.000000
outer loop
vertex 0.004416 0.000049 0.150000
vertex 0.004562 0.000061 0.150000
vertex 0.004750 0.000102 0.150000
endloop
endfacet
facet normal -0.000934 0.000000 1.000000
outer loop
vertex 0.004750 0.000102 0.150000
vertex 0.004861 0.000152 0.150000
vertex 0.005006 0.000253 0.150000
endloop
endfacet
facet normal 0.000000 0.000000 1.000000
outer loop
vertex 0.005006 0.000253 0.150000
vertex 0.005075 0.000307 0.150000
vertex 0.005148 0.000387 0.150000
endloop
endfacet
facet normal 0.000000 0.000000 1.000000
outer loop
vertex 0.005148 0.000387 0.150000
vertex 0.005182 0.000450 0.150000
vertex 0.005269 0.000758 0.150000
endloop
endfacet
facet normal 0.000000 0.000000 1.000000
outer loop
vertex 0.005269 0.000758 0.150000
vertex 0.005295 0.000892 0.150000
vertex 0.005319 0.001130 0.150000
endloop
endfacet
facet normal 0.000000 0.000000 1.000000
outer loop
vertex 0.005319 0.001130 0.150000
vertex 0.005318 0.001320 0.150000
vertex 0.004404 0.003441 0.150000
endloop
endfacet
facet normal 0.000000 0.000000 1.000000
outer loop
vertex 0.004404 0.003441 0.150000
vertex 0.000223 0.003349 0.150000
vertex 0.001370 0.001653 0.150000
endloop
endfacet
facet normal -0.000098 0.000000 1.000000
outer loop
vertex 0.004404 0.003441 0.150000
vertex 0.001370 0.001653 0.150000
vertex 0.001433 0.001574 0.150000
endloop
endfacet
facet normal -0.000127 0.000000 1.000000
outer loop
vertex 0.005269 0.000758 0.150000
vertex 0.005319 0.001130 0.150000
vertex 0.004404 0.003441 0.150000
endloop
endfacet
facet normal 0.000000 0.000000 1.000000
outer loop
vertex 0.005006 0.000253 0.150000
vertex 0.005148 0.000387 0.150000
vertex 0.005269 0.000758 0.150000
endloop
endfacet
facet normal 0.000198 0.000000 1.000000
outer loop
vertex 0.004416 0.000049 0.150000
vertex 0.004750 0.000102 0.150000
vertex 0.005006 0.000253 0.150000
endloop
endfacet
facet normal 0.000000 0.000000 1.000000
outer loop
vertex 0.004056 0.000036 0.150000
vertex 0.004156 0.000040 0.150000
vertex 0.004416 0.000049 0.150000
endloop
endfacet
facet normal 0.000000 0.000000 1.000000
outer loop
vertex 0.003872 0.000029 0.150000
vertex 0.003958 0.000032 0.150000
vertex 0.004056 0.000036 0.150000
endloop
endfacet
facet normal 0.000000 0.000000 1.000000
outer loop
vertex 0.003724 0.000024 0.150000
vertex 0.003794 0.000026 0.150000
vertex 0.003872 0.000029 0.150000
endloop
endfacet
facet normal 0.000000 0.000000 1.000000
outer loop
vertex 0.003599 0.000020 0.150000
vertex 0.003659 0.000022 0.150000
vertex 0.003724 0.000024 0.150000
endloop
endfacet
facet normal 0.000000 0.000000 1.000000
outer loop
vertex 0.003366 0.000014 0.150000
vertex 0.003541 0.000019 0.150000
vertex 0.003599 0.000020 0.150000
endloop
endfacet
facet normal 0.000000 0.000000 1.000000
outer loop
vertex 0.003366 0.000014 0.150000
vertex 0.003599 0.000020 0.150000
vertex 0.003724 0.000024 0.150000
endloop
endfacet
facet normal 0.000000 0.000000 1.000000
outer loop
vertex 0.003724 0.000024 0.150000
vertex 0.003872 0.000029 0.150000
vertex 0.004056 0.000036 0.150000
endloop
endfacet
facet normal 0.000000 0.000000 1.000000
outer loop
vertex 0.004056 0.000036 0.150000
vertex 0.004416 0.000049 0.150000
vertex 0.005006 0.000253 0.150000
endloop
endfacet
facet normal 0.000000 0.000000 1.000000
outer loop
vertex 0.005006 0.000253 0.150000
vertex 0.005269 0.000758 0.150000
vertex 0.004404 0.003441 0.150000
endloop
endfacet
facet normal 0.000036 0.000000 1.000000
outer loop
vertex 0.004404 0.003441 0.150000
vertex 0.001433 0.001574 0.150000
vertex 0.001494 0.001495 0.150000
endloop
endfacet
facet normal -0.000133 0.000000 1.000000
outer loop
vertex 0.004404 0.003441 0.150000
vertex 0.001494 0.001495 0.150000
vertex 0.001551 0.001416 0.150000
endloop
endfacet
facet normal 0.000037 0.000000 1.000000
outer loop
vertex 0.004056 0.000036 0.150000
vertex 0.005006 0.000253 0.150000
vertex 0.004404 0.003441 0.150000
endloop
endfacet
facet normal 0.000000 0.000000 1.000000
outer loop
vertex 0.003366 0.000014 0.150000
vertex 0.003724 0.000024 0.150000
vertex 0.004056 0.000036 0.150000
endloop
endfacet
facet normal 0.002190 0.000000 0.999998
outer loop
vertex 0.003302 0.000012 0.150000
vertex 0.003366 0.000014 0.150000
vertex 0.004056 0.000036 0.150000
endloop
endfacet
facet normal 0.000000 0.000000 1.000000
outer loop
vertex 0.004056 0.000036 0.150000
vertex 0.004404 0.003441 0.150000
vertex 0.001551 0.001416 0.150000
endloop
endfacet
facet normal -0.000045 0.000000 1.000000
outer loop
vertex 0.004056 0.000036 0.150000
vertex 0.001551 0.001416 0.150000
vertex 0.001603 0.001339 0.150000
endloop
endfacet
facet normal -0.002893 0.000000 0.999996
outer loop
vertex 0.003232 0.000010 0.150000
vertex 0.003302 0.000012 0.150000
vertex 0.004056 0.000036 0.150000
endloop
endfacet
facet normal -0.008812 0.000000 0.999961
outer loop
vertex 0.003030 0.000002 0.150000
vertex 0.003094 0.000005 0.150000
vertex 0.003161 0.000008 0.150000
endloop
endfacet
facet normal 0.000026 0.000000 1.000000
outer loop
vertex 0.003232 0.000010 0.150000
vertex 0.004056 0.000036 0.150000
vertex 0.001603 0.001339 0.150000
endloop
endfacet
facet normal 0.000000 0.000000 1.000000
outer loop
vertex 0.002970 0.000000 0.150000
vertex 0.003030 0.000002 0.150000
vertex 0.003161 0.000008 0.150000
endloop
endfacet
facet normal -0.000296 0.000000 1.000000
outer loop
vertex 0.003161 0.000008 0.150000
vertex 0.003232 0.000010 0.150000
vertex 0.001603 0.001339 0.150000
endloop
endfacet
facet normal -0.004536 0.000000 0.999990
outer loop
vertex 0.001648 0.001264 0.150000
vertex 0.001813 0.000984 0.150000
vertex 0.002141 0.000446 0.150000
endloop
endfacet
facet normal 0.000432 0.000000 1.000000
outer loop
vertex 0.003161 0.000008 0.150000
vertex 0.001603 0.001339 0.150000
vertex 0.001648 0.001264 0.150000
endloop
endfacet
facet normal 0.000000 0.000000 1.000000
outer loop
vertex 0.002911 0.000000 0.150000
vertex 0.002970 0.000000 0.150000
vertex 0.003161 0.000008 0.150000
endloop
endfacet
facet normal -0.000577 0.000000 1.000000
outer loop
vertex 0.002795 0.000006 0.150000
vertex 0.002853 0.000002 0.150000
vertex 0.002911 0.000000 0.150000
endloop
endfacet
facet normal 0.000245 0.000000 1.000000
outer loop
vertex 0.002553 0.000059 0.150000
vertex 0.002678 0.000024 0.150000
vertex 0.002795 0.000006 0.150000
endloop
endfacet
facet normal 0.000000 0.000000 1.000000
outer loop
vertex 0.002370 0.000140 0.150000
vertex 0.002422 0.000113 0.150000
vertex 0.002553 0.000059 0.150000
endloop
endfacet
facet normal 0.000000 0.000000 1.000000
outer loop
vertex 0.002294 0.000195 0.150000
vertex 0.002328 0.000167 0.150000
vertex 0.002370 0.000140 0.150000
endloop
endfacet
facet normal 0.000000 0.000000 1.000000
outer loop
vertex 0.002243 0.000254 0.150000
vertex 0.002266 0.000223 0.150000
vertex 0.002294 0.000195 0.150000
endloop
endfacet
facet normal 0.000000 0.000000 1.000000
outer loop
vertex 0.002205 0.000321 0.150000
vertex 0.002224 0.000286 0.150000
vertex 0.002243 0.000254 0.150000
endloop
endfacet
facet normal -0.004656 0.000000 0.999989
outer loop
vertex 0.002166 0.000400 0.150000
vertex 0.002205 0.000321 0.150000
vertex 0.002243 0.000254 0.150000
endloop
endfacet
facet normal -0.001064 0.000000 0.999999
outer loop
vertex 0.002243 0.000254 0.150000
vertex 0.002294 0.000195 0.150000
vertex 0.002370 0.000140 0.150000
endloop
endfacet
facet normal 0.000000 0.000000 1.000000
outer loop
vertex 0.002370 0.000140 0.150000
vertex 0.002553 0.000059 0.150000
vertex 0.002795 0.000006 0.150000
endloop
endfacet
facet normal 0.000000 0.000000 1.000000
outer loop
vertex 0.002795 0.000006 0.150000
vertex 0.002911 0.000000 0.150000
vertex 0.003161 0.000008 0.150000
endloop
endfacet
facet normal 0.000000 0.000000 1.000000
outer loop
vertex 0.003161 0.000008 0.150000
vertex 0.001648 0.001264 0.150000
vertex 0.002141 0.000446 0.150000
endloop
endfacet
facet normal 0.000375 0.000000 1.000000
outer loop
vertex 0.002166 0.000400 0.150000
vertex 0.002243 0.000254 0.150000
vertex 0.002370 0.000140 0.150000
endloop
endfacet
facet normal -0.000152 0.000000 1.000000
outer loop
vertex 0.003161 0.000008 0.150000
vertex 0.002141 0.000446 0.150000
vertex 0.002166 0.000400 0.150000
endloop
endfacet
facet normal 0.000003 0.000000 1.000000
outer loop
vertex 0.002370 0.000140 0.150000
vertex 0.002795 0.000006 0.150000
vertex 0.003161 0.000008 0.150000
endloop
endfacet
facet normal -0.000041 0.000000 1.000000
outer loop
vertex 0.002166 0.000400 0.150000
vertex 0.002370 0.000140 0.150000
vertex 0.003161 0.000008 0.150000
endloop
endfacet
facet normal 0.980250 0.197763 0.000000
outer loop
vertex 0.005248 0.002019 0.150000
vertex 0.005248 0.002019 0.000000
vertex 0.005214 0.002189 0.000000
endloop
endfacet
facet normal 0.980250 0.197763 0.000000
outer loop
vertex 0.005248 0.002019 0.150000
vertex 0.005214 0.002189 0.000000
vertex 0.005214 0.002189 0.150000
endloop
endfacet
facet normal 0.725459 0.688266 0.000000
outer loop
vertex 0.004532 0.003306 0.150000
vertex 0.004532 0.003306 0.000000
vertex 0.004404 0.003441 0.000000
endloop
endfacet
facet normal 0.725459 0.688266 0.000000
outer loop
vertex 0.004532 0.003306 0.150000
vertex 0.004404 0.003441 0.000000
vertex 0.004404 0.003441 0.150000
endloop
endfacet
facet normal -0.153062 -0.988216 0.000000
outer loop
vertex 0.002678 0.000024 0.150000
vertex 0.002678 0.000024 0.000000
vertex 0.002795 0.000006 0.000000
endloop
endfacet
facet normal -0.153062 -0.988216 0.000000
outer loop
vertex 0.002678 0.000024 0.150000
vertex 0.002795 0.000006 0.000000
vertex 0.002795 0.000006 0.150000
endloop
endfacet
facet normal -0.543080 -0.839681 0.000000
outer loop
vertex 0.002328 0.000167 0.150000
vertex 0.002328 0.000167 0.000000
vertex 0.002370 0.000140 0.000000
endloop
endfacet
facet normal -0.543080 -0.839681 0.000000
outer loop
vertex 0.002328 0.000167 0.150000
vertex 0.002370 0.000140 0.000000
vertex 0.002370 0.000140 0.150000
endloop
endfacet
facet normal 0.000000 0.000000 1.000000
outer loop
vertex 0.004914 0.000186 0.000000
vertex 0.005006 0.000253 0.000000
vertex 0.005043 0.000281 0.000000
endloop
endfacet
facet normal 0.635430 -0.772158 0.000000
outer loop
vertex 0.005043 0.000281 0.000000
vertex 0.005075 0.000307 0.000000
vertex 0.005075 0.000307 0.150000
endloop
endfacet
facet normal 0.635421 -0.772166 0.000000
outer loop
vertex 0.005043 0.000281 0.000000
vertex 0.005075 0.000307 0.150000
vertex 0.005043 0.000281 0.150000
endloop
endfacet
facet normal 0.000000 0.000000 1.000000
outer loop
vertex 0.004861 0.000152 0.000000
vertex 0.004914 0.000186 0.000000
vertex 0.005043 0.000281 0.000000
endloop
endfacet
facet normal 0.541246 -0.840864 0.000000
outer loop
vertex 0.004914 0.000186 0.150000
vertex 0.004861 0.000152 0.150000
vertex 0.004861 0.000152 0.000000
endloop
endfacet
facet normal 0.605325 -0.795978 0.000000
outer loop
vertex 0.005043 0.000281 0.000000
vertex 0.005043 0.000281 0.150000
vertex 0.005006 0.000253 0.150000
endloop
endfacet
facet normal 0.585133 -0.810937 -0.000022
outer loop
vertex 0.005006 0.000253 0.150000
vertex 0.004914 0.000186 0.150000
vertex 0.004861 0.000152 0.000000
endloop
endfacet
facet normal 0.577194 -0.816607 -0.000011
outer loop
vertex 0.005043 0.000281 0.000000
vertex 0.005006 0.000253 0.150000
vertex 0.004861 0.000152 0.000000
endloop
endfacet
facet normal 0.229963 0.973199 0.000000
outer loop
vertex 0.002109 0.004152 0.000000
vertex 0.002109 0.004152 0.150000
vertex 0.003794 0.003754 0.150000
endloop
endfacet
facet normal 0.229963 0.973199 0.000000
outer loop
vertex 0.002109 0.004152 0.000000
vertex 0.003794 0.003754 0.150000
vertex 0.003794 0.003754 0.000000
endloop
endfacet
facet normal -0.720742 -0.693204 0.000000
outer loop
vertex 0.002266 0.000223 0.150000
vertex 0.002266 0.000223 0.000000
vertex 0.002294 0.000195 0.000000
endloop
endfacet
facet normal -0.720742 -0.693204 0.000000
outer loop
vertex 0.002266 0.000223 0.150000
vertex 0.002294 0.000195 0.000000
vertex 0.002294 0.000195 0.150000
endloop
endfacet
facet normal -0.795993 0.605305 0.000000
outer loop
vertex 0.000142 0.004465 0.000000
vertex 0.000088 0.004393 0.000000
vertex 0.000088 0.004393 0.150000
endloop
endfacet
facet normal -0.795994 0.605305 0.000000
outer loop
vertex 0.000142 0.004465 0.000000
vertex 0.000088 0.004393 0.150000
vertex 0.000142 0.004465 0.150000
endloop
endfacet
facet normal -0.465657 -0.884965 0.000000
outer loop
vertex 0.002370 0.000140 0.150000
vertex 0.002370 0.000140 0.000000
vertex 0.002422 0.000113 0.000000
endloop
endfacet
facet normal -0.465657 -0.884965 0.000000
outer loop
vertex 0.002370 0.000140 0.150000
vertex 0.002422 0.000113 0.000000
vertex 0.002422 0.000113 0.150000
endloop
endfacet
facet normal -0.797498 -0.603321 0.000000
outer loop
vertex 0.002243 0.000254 0.150000
vertex 0.002243 0.000254 0.000000
vertex 0.002266 0.000223 0.000000
endloop
endfacet
facet normal -0.797498 -0.603321 0.000000
outer loop
vertex 0.002243 0.000254 0.150000
vertex 0.002266 0.000223 0.000000
vertex 0.002266 0.000223 0.150000
endloop
endfacet
facet normal 0.798179 -0.602420 0.000000
outer loop
vertex 0.005127 0.000359 0.150000
vertex 0.005127 0.000359 0.000000
vertex 0.005148 0.000387 0.000000
endloop
endfacet
facet normal 0.798168 -0.602435 0.000000
outer loop
vertex 0.005127 0.000359 0.150000
vertex 0.005148 0.000387 0.000000
vertex 0.005148 0.000387 0.150000
endloop
endfacet
facet normal 0.366912 -0.930256 0.000000
outer loop
vertex 0.004750 0.000102 0.150000
vertex 0.004750 0.000102 0.000000
vertex 0.004807 0.000124 0.000000
endloop
endfacet
facet normal 0.366908 -0.930257 0.000000
outer loop
vertex 0.004750 0.000102 0.150000
vertex 0.004807 0.000124 0.000000
vertex 0.004807 0.000124 0.150000
endloop
endfacet
facet normal 0.900641 -0.434563 0.000000
outer loop
vertex 0.005166 0.000416 0.150000
vertex 0.005166 0.000416 0.000000
vertex 0.005182 0.000450 0.000000
endloop
endfacet
facet normal 0.900633 -0.434580 0.000000
outer loop
vertex 0.005166 0.000416 0.150000
vertex 0.005182 0.000450 0.000000
vertex 0.005182 0.000450 0.150000
endloop
endfacet
facet normal -0.875247 -0.483676 0.000000
outer loop
vertex 0.000281 0.003235 0.000000
vertex 0.000348 0.003113 0.000000
vertex 0.000348 0.003113 0.150000
endloop
endfacet
facet normal -0.875247 -0.483676 0.000000
outer loop
vertex 0.000281 0.003235 0.000000
vertex 0.000348 0.003113 0.150000
vertex 0.000281 0.003235 0.150000
endloop
endfacet
facet normal -0.889555 -0.456828 0.000000
outer loop
vertex 0.000223 0.003349 0.000000
vertex 0.000281 0.003235 0.000000
vertex 0.000281 0.003235 0.150000
endloop
endfacet
facet normal -0.889555 -0.456828 0.000000
outer loop
vertex 0.000223 0.003349 0.000000
vertex 0.000281 0.003235 0.150000
vertex 0.000223 0.003349 0.150000
endloop
endfacet
facet normal -0.916528 -0.399972 0.000000
outer loop
vertex 0.000133 0.003544 0.150000
vertex 0.000133 0.003544 0.000000
vertex 0.000174 0.003452 0.000000
endloop
endfacet
facet normal -0.904000 -0.427533 0.000000
outer loop
vertex 0.000174 0.003452 0.000000
vertex 0.000223 0.003349 0.000000
vertex 0.000223 0.003349 0.150000
endloop
endfacet
facet normal -0.916527 -0.399972 0.000000
outer loop
vertex 0.000174 0.003452 0.150000
vertex 0.000133 0.003544 0.150000
vertex 0.000174 0.003452 0.000000
endloop
endfacet
facet normal -0.904000 -0.427533 0.000000
outer loop
vertex 0.000223 0.003349 0.150000
vertex 0.000174 0.003452 0.150000
vertex 0.000174 0.003452 0.000000
endloop
endfacet
facet normal 0.000000 0.000000 -1.000000
outer loop
vertex 0.002141 0.000446 0.000000
vertex 0.002166 0.000400 0.000000
vertex 0.002205 0.000321 0.000000
endloop
endfacet
facet normal -0.852302 -0.523050 0.000000
outer loop
vertex 0.002224 0.000286 0.000000
vertex 0.002243 0.000254 0.000000
vertex 0.002243 0.000254 0.150000
endloop
endfacet
facet normal 0.000000 0.000000 -1.000000
outer loop
vertex 0.001813 0.000984 0.000000
vertex 0.002141 0.000446 0.000000
vertex 0.002205 0.000321 0.000000
endloop
endfacet
facet normal -0.884007 -0.467474 0.000016
outer loop
vertex 0.002205 0.000321 0.000000
vertex 0.002224 0.000286 0.000000
vertex 0.002243 0.000254 0.150000
endloop
endfacet
facet normal -0.852302 -0.523050 -0.000017
outer loop
vertex 0.002205 0.000321 0.000000
vertex 0.002243 0.000254 0.150000
vertex 0.002224 0.000286 0.150000
endloop
endfacet
facet normal 0.000000 0.000000 -1.000000
outer loop
vertex 0.001603 0.001339 0.000000
vertex 0.001648 0.001264 0.000000
vertex 0.001813 0.000984 0.000000
endloop
endfacet
facet normal -0.861057 -0.508508 -0.000012
outer loop
vertex 0.001813 0.000984 0.000000
vertex 0.002205 0.000321 0.000000
vertex 0.002224 0.000286 0.150000
endloop
endfacet
facet normal -0.884007 -0.467474 0.000241
outer loop
vertex 0.001813 0.000984 0.000000
vertex 0.002224 0.000286 0.150000
vertex 0.002205 0.000321 0.150000
endloop
endfacet
facet normal -0.859901 -0.510461 0.000000
outer loop
vertex 0.001603 0.001339 0.150000
vertex 0.001603 0.001339 0.000000
vertex 0.001813 0.000984 0.000000
endloop
endfacet
facet normal -0.851937 -0.523644 0.000042
outer loop
vertex 0.001648 0.001264 0.150000
vertex 0.001603 0.001339 0.150000
vertex 0.001813 0.000984 0.000000
endloop
endfacet
facet normal -0.895796 -0.444465 0.000374
outer loop
vertex 0.001813 0.000984 0.000000
vertex 0.002205 0.000321 0.150000
vertex 0.002166 0.000400 0.150000
endloop
endfacet
facet normal -0.882306 -0.470675 0.000240
outer loop
vertex 0.001813 0.000984 0.000000
vertex 0.002166 0.000400 0.150000
vertex 0.002141 0.000446 0.150000
endloop
endfacet
facet normal -0.861994 -0.506918 0.000000
outer loop
vertex 0.001813 0.000984 0.150000
vertex 0.001648 0.001264 0.150000
vertex 0.001813 0.000984 0.000000
endloop
endfacet
facet normal -0.853961 -0.520337 0.000000
outer loop
vertex 0.002141 0.000446 0.150000
vertex 0.001813 0.000984 0.150000
vertex 0.001813 0.000984 0.000000
endloop
endfacet
facet normal 0.000000 0.000000 1.000000
outer loop
vertex 0.004177 0.003611 0.000000
vertex 0.004119 0.003638 0.000000
vertex 0.004049 0.003666 0.000000
endloop
endfacet
facet normal 0.000000 0.000000 1.000000
outer loop
vertex 0.004049 0.003666 0.000000
vertex 0.003969 0.003695 0.000000
vertex 0.003794 0.003754 0.000000
endloop
endfacet
facet normal 0.315926 0.948784 0.000000
outer loop
vertex 0.003794 0.003754 0.000000
vertex 0.003794 0.003754 0.150000
vertex 0.003969 0.003695 0.150000
endloop
endfacet
facet normal 0.344816 0.938670 -0.000038
outer loop
vertex 0.003794 0.003754 0.000000
vertex 0.003969 0.003695 0.150000
vertex 0.004049 0.003666 0.150000
endloop
endfacet
facet normal 0.000000 0.000000 1.000000
outer loop
vertex 0.004177 0.003611 0.000000
vertex 0.004049 0.003666 0.000000
vertex 0.003794 0.003754 0.000000
endloop
endfacet
facet normal 0.417818 0.908531 0.000000
outer loop
vertex 0.004119 0.003638 0.150000
vertex 0.004177 0.003611 0.150000
vertex 0.004177 0.003611 0.000000
endloop
endfacet
facet normal 0.373888 0.927474 -0.000094
outer loop
vertex 0.003794 0.003754 0.000000
vertex 0.004049 0.003666 0.150000
vertex 0.004119 0.003638 0.150000
endloop
endfacet
facet normal 0.348864 0.937173 -0.000032
outer loop
vertex 0.003794 0.003754 0.000000
vertex 0.004119 0.003638 0.150000
vertex 0.004177 0.003611 0.000000
endloop
endfacet
facet normal 0.569286 0.822140 0.000000
outer loop
vertex 0.004286 0.003543 0.150000
vertex 0.004286 0.003543 0.000000
vertex 0.004230 0.003581 0.000000
endloop
endfacet
facet normal 0.569291 0.822136 0.000000
outer loop
vertex 0.004286 0.003543 0.150000
vertex 0.004230 0.003581 0.000000
vertex 0.004230 0.003581 0.150000
endloop
endfacet
facet normal 0.893268 0.449524 0.000000
outer loop
vertex 0.005151 0.002369 0.000000
vertex 0.005046 0.002578 0.000000
vertex 0.005046 0.002578 0.150000
endloop
endfacet
facet normal 0.893267 0.449527 0.000000
outer loop
vertex 0.005151 0.002369 0.000000
vertex 0.005046 0.002578 0.150000
vertex 0.005151 0.002369 0.150000
endloop
endfacet
facet normal 0.855313 -0.518111 0.000000
outer loop
vertex 0.005148 0.000387 0.150000
vertex 0.005148 0.000387 0.000000
vertex 0.005166 0.000416 0.000000
endloop
endfacet
facet normal 0.855294 -0.518144 0.000000
outer loop
vertex 0.005148 0.000387 0.150000
vertex 0.005166 0.000416 0.000000
vertex 0.005166 0.000416 0.150000
endloop
endfacet
facet normal -0.377425 -0.926040 0.000000
outer loop
vertex 0.002422 0.000113 0.150000
vertex 0.002422 0.000113 0.000000
vertex 0.002553 0.000059 0.000000
endloop
endfacet
facet normal -0.377425 -0.926040 0.000000
outer loop
vertex 0.002422 0.000113 0.150000
vertex 0.002553 0.000059 0.000000
vertex 0.002553 0.000059 0.150000
endloop
endfacet
facet normal 0.177921 -0.984045 0.000000
outer loop
vertex 0.004562 0.000061 0.150000
vertex 0.004562 0.000061 0.000000
vertex 0.004691 0.000084 0.000000
endloop
endfacet
facet normal 0.177921 -0.984045 0.000000
outer loop
vertex 0.004562 0.000061 0.150000
vertex 0.004691 0.000084 0.000000
vertex 0.004691 0.000084 0.150000
endloop
endfacet
facet normal 0.000000 0.000000 1.000000
outer loop
vertex 0.005314 0.001045 0.000000
vertex 0.005319 0.001130 0.000000
vertex 0.005321 0.001222 0.000000
endloop
endfacet
facet normal 0.999687 0.025027 0.000000
outer loop
vertex 0.005321 0.001222 0.000000
vertex 0.005318 0.001320 0.000000
vertex 0.005318 0.001320 0.150000
endloop
endfacet
facet normal 0.999687 0.025027 0.000000
outer loop
vertex 0.005321 0.001222 0.000000
vertex 0.005318 0.001320 0.150000
vertex 0.005321 0.001222 0.150000
endloop
endfacet
facet normal 0.999236 -0.039077 0.000000
outer loop
vertex 0.005314 0.001045 0.150000
vertex 0.005314 0.001045 0.000000
vertex 0.005321 0.001222 0.000000
endloop
endfacet
facet normal 0.999833 -0.018270 0.000000
outer loop
vertex 0.005321 0.001222 0.000000
vertex 0.005321 0.001222 0.150000
vertex 0.005319 0.001130 0.150000
endloop
endfacet
facet normal 0.998117 -0.061339 -0.000026
outer loop
vertex 0.005321 0.001222 0.000000
vertex 0.005319 0.001130 0.150000
vertex 0.005314 0.001045 0.150000
endloop
endfacet
facet normal 0.000000 0.000000 1.000000
outer loop
vertex 0.005276 0.001751 0.000000
vertex 0.005268 0.001845 0.000000
vertex 0.005259 0.001934 0.000000
endloop
endfacet
facet normal 0.992339 0.123545 0.000000
outer loop
vertex 0.005259 0.001934 0.000000
vertex 0.005248 0.002019 0.000000
vertex 0.005248 0.002019 0.150000
endloop
endfacet
facet normal 0.992340 0.123536 0.000000
outer loop
vertex 0.005259 0.001934 0.000000
vertex 0.005248 0.002019 0.150000
vertex 0.005259 0.001934 0.150000
endloop
endfacet
facet normal 0.995701 0.092631 0.000000
outer loop
vertex 0.005276 0.001751 0.000000
vertex 0.005259 0.001934 0.000000
vertex 0.005259 0.001934 0.150000
endloop
endfacet
facet normal 0.995291 0.096928 -0.000005
outer loop
vertex 0.005276 0.001751 0.000000
vertex 0.005259 0.001934 0.150000
vertex 0.005268 0.001845 0.150000
endloop
endfacet
facet normal 0.000000 0.000000 1.000000
outer loop
vertex 0.005318 0.001320 0.000000
vertex 0.005311 0.001425 0.000000
vertex 0.005286 0.001649 0.000000
endloop
endfacet
facet normal 0.995364 0.096181 -0.000005
outer loop
vertex 0.005286 0.001649 0.000000
vertex 0.005276 0.001751 0.000000
vertex 0.005268 0.001845 0.150000
endloop
endfacet
facet normal 0.996069 0.088576 0.000005
outer loop
vertex 0.005286 0.001649 0.000000
vertex 0.005268 0.001845 0.150000
vertex 0.005276 0.001751 0.150000
endloop
endfacet
facet normal 0.995164 0.098231 0.000000
outer loop
vertex 0.005318 0.001320 0.150000
vertex 0.005318 0.001320 0.000000
vertex 0.005286 0.001649 0.000000
endloop
endfacet
facet normal 0.997710 0.067642 -0.000068
outer loop
vertex 0.005311 0.001425 0.150000
vertex 0.005318 0.001320 0.150000
vertex 0.005286 0.001649 0.000000
endloop
endfacet
facet normal 0.995364 0.096181 0.000000
outer loop
vertex 0.005286 0.001649 0.000000
vertex 0.005276 0.001751 0.150000
vertex 0.005286 0.001649 0.150000
endloop
endfacet
facet normal 0.993654 0.112479 0.000000
outer loop
vertex 0.005286 0.001649 0.150000
vertex 0.005311 0.001425 0.150000
vertex 0.005286 0.001649 0.000000
endloop
endfacet
facet normal 0.327242 0.944941 0.000000
outer loop
vertex 0.002014 0.004185 0.150000
vertex 0.002109 0.004152 0.150000
vertex 0.002109 0.004152 0.000000
endloop
endfacet
facet normal 0.000000 0.000000 1.000000
outer loop
vertex 0.002014 0.004185 0.000000
vertex 0.001931 0.004220 0.000000
vertex 0.001760 0.004281 0.000000
endloop
endfacet
facet normal 0.327241 0.944941 0.000000
outer loop
vertex 0.002014 0.004185 0.150000
vertex 0.002109 0.004152 0.000000
vertex 0.002014 0.004185 0.000000
endloop
endfacet
facet normal 0.388262 0.921549 0.000000
outer loop
vertex 0.001931 0.004220 0.150000
vertex 0.002014 0.004185 0.150000
vertex 0.002014 0.004185 0.000000
endloop
endfacet
facet normal 0.000000 0.000000 1.000000
outer loop
vertex 0.002014 0.004185 0.000000
vertex 0.001760 0.004281 0.000000
vertex 0.001407 0.004389 0.000000
endloop
endfacet
facet normal 0.293301 0.956020 0.000000
outer loop
vertex 0.001407 0.004389 0.000000
vertex 0.001407 0.004389 0.150000
vertex 0.001760 0.004281 0.150000
endloop
endfacet
facet normal 0.335673 0.941979 -0.000034
outer loop
vertex 0.001760 0.004281 0.150000
vertex 0.001931 0.004220 0.150000
vertex 0.002014 0.004185 0.000000
endloop
endfacet
facet normal 0.318950 0.947771 -0.000066
outer loop
vertex 0.002014 0.004185 0.000000
vertex 0.001407 0.004389 0.000000
vertex 0.001760 0.004281 0.150000
endloop
endfacet
facet normal 0.651771 0.758415 0.000000
outer loop
vertex 0.004404 0.003441 0.150000
vertex 0.004404 0.003441 0.000000
vertex 0.004286 0.003543 0.000000
endloop
endfacet
facet normal 0.651769 0.758417 0.000000
outer loop
vertex 0.004404 0.003441 0.150000
vertex 0.004286 0.003543 0.000000
vertex 0.004286 0.003543 0.150000
endloop
endfacet
facet normal -0.828473 -0.560029 0.000000
outer loop
vertex 0.001551 0.001416 0.000000
vertex 0.001603 0.001339 0.000000
vertex 0.001603 0.001339 0.150000
endloop
endfacet
facet normal -0.828473 -0.560029 0.000000
outer loop
vertex 0.001551 0.001416 0.000000
vertex 0.001603 0.001339 0.150000
vertex 0.001551 0.001416 0.150000
endloop
endfacet
facet normal -0.810028 -0.586391 0.000000
outer loop
vertex 0.001494 0.001495 0.000000
vertex 0.001551 0.001416 0.000000
vertex 0.001551 0.001416 0.150000
endloop
endfacet
facet normal -0.810029 -0.586389 0.000000
outer loop
vertex 0.001494 0.001495 0.000000
vertex 0.001551 0.001416 0.150000
vertex 0.001494 0.001495 0.150000
endloop
endfacet
facet normal -0.795541 -0.605900 0.000000
outer loop
vertex 0.001433 0.001574 0.000000
vertex 0.001494 0.001495 0.000000
vertex 0.001494 0.001495 0.150000
endloop
endfacet
facet normal -0.795541 -0.605900 0.000000
outer loop
vertex 0.001433 0.001574 0.000000
vertex 0.001494 0.001495 0.150000
vertex 0.001433 0.001574 0.150000
endloop
endfacet
facet normal -0.784257 -0.620436 0.000000
outer loop
vertex 0.001370 0.001653 0.000000
vertex 0.001433 0.001574 0.000000
vertex 0.001433 0.001574 0.150000
endloop
endfacet
facet normal -0.784256 -0.620437 0.000000
outer loop
vertex 0.001370 0.001653 0.000000
vertex 0.001433 0.001574 0.150000
vertex 0.001370 0.001653 0.150000
endloop
endfacet
facet normal -0.791082 -0.611711 0.000000
outer loop
vertex 0.001014 0.002085 0.150000
vertex 0.001014 0.002085 0.000000
vertex 0.001045 0.002045 0.000000
endloop
endfacet
facet normal -0.769712 -0.638391 0.000000
outer loop
vertex 0.001045 0.002045 0.000000
vertex 0.001370 0.001653 0.000000
vertex 0.001370 0.001653 0.150000
endloop
endfacet
facet normal -0.791083 -0.611708 0.000000
outer loop
vertex 0.001045 0.002045 0.150000
vertex 0.001014 0.002085 0.150000
vertex 0.001045 0.002045 0.000000
endloop
endfacet
facet normal -0.769712 -0.638391 0.000000
outer loop
vertex 0.001370 0.001653 0.150000
vertex 0.001045 0.002045 0.150000
vertex 0.001045 0.002045 0.000000
endloop
endfacet
facet normal 0.455050 -0.890466 0.000000
outer loop
vertex 0.004807 0.000124 0.150000
vertex 0.004807 0.000124 0.000000
vertex 0.004861 0.000152 0.000000
endloop
endfacet
facet normal 0.455045 -0.890469 0.000000
outer loop
vertex 0.004807 0.000124 0.150000
vertex 0.004861 0.000152 0.000000
vertex 0.004861 0.000152 0.150000
endloop
endfacet
facet normal 0.100704 -0.994917 0.000000
outer loop
vertex 0.004491 0.000054 0.000000
vertex 0.004562 0.000061 0.000000
vertex 0.004562 0.000061 0.150000
endloop
endfacet
facet normal 0.100704 -0.994917 0.000000
outer loop
vertex 0.004491 0.000054 0.000000
vertex 0.004562 0.000061 0.150000
vertex 0.004491 0.000054 0.150000
endloop
endfacet
facet normal 0.066893 -0.997760 0.000000
outer loop
vertex 0.004416 0.000049 0.000000
vertex 0.004491 0.000054 0.000000
vertex 0.004491 0.000054 0.150000
endloop
endfacet
facet normal 0.066893 -0.997760 0.000000
outer loop
vertex 0.004416 0.000049 0.000000
vertex 0.004491 0.000054 0.150000
vertex 0.004416 0.000049 0.150000
endloop
endfacet
facet normal 0.045182 -0.998979 0.000000
outer loop
vertex 0.004335 0.000045 0.000000
vertex 0.004416 0.000049 0.000000
vertex 0.004416 0.000049 0.150000
endloop
endfacet
facet normal 0.045182 -0.998979 0.000000
outer loop
vertex 0.004335 0.000045 0.000000
vertex 0.004416 0.000049 0.150000
vertex 0.004335 0.000045 0.150000
endloop
endfacet
facet normal 0.000000 0.000000 -1.000000
outer loop
vertex 0.004056 0.000036 0.000000
vertex 0.004156 0.000040 0.000000
vertex 0.004249 0.000042 0.000000
endloop
endfacet
facet normal 0.033876 -0.999426 0.000000
outer loop
vertex 0.004249 0.000042 0.000000
vertex 0.004335 0.000045 0.000000
vertex 0.004335 0.000045 0.150000
endloop
endfacet
facet normal 0.033876 -0.999426 0.000000
outer loop
vertex 0.004249 0.000042 0.000000
vertex 0.004335 0.000045 0.150000
vertex 0.004249 0.000042 0.150000
endloop
endfacet
facet normal 0.000000 0.000000 -1.000000
outer loop
vertex 0.003958 0.000032 0.000000
vertex 0.004056 0.000036 0.000000
vertex 0.004249 0.000042 0.000000
endloop
endfacet
facet normal 0.000000 0.000000 -1.000000
outer loop
vertex 0.003872 0.000029 0.000000
vertex 0.003958 0.000032 0.000000
vertex 0.004249 0.000042 0.000000
endloop
endfacet
facet normal 0.031247 -0.999512 0.000000
outer loop
vertex 0.004249 0.000042 0.000000
vertex 0.004249 0.000042 0.150000
vertex 0.004156 0.000040 0.150000
endloop
endfacet
facet normal 0.035682 -0.999363 0.000003
outer loop
vertex 0.004249 0.000042 0.000000
vertex 0.004156 0.000040 0.150000
vertex 0.004056 0.000036 0.150000
endloop
endfacet
facet normal 0.035797 -0.999359 0.000003
outer loop
vertex 0.003872 0.000029 0.000000
vertex 0.004249 0.000042 0.000000
vertex 0.004056 0.000036 0.150000
endloop
endfacet
facet normal 0.039004 -0.999239 -0.000001
outer loop
vertex 0.003872 0.000029 0.000000
vertex 0.004056 0.000036 0.150000
vertex 0.003958 0.000032 0.150000
endloop
endfacet
facet normal 0.035189 -0.999381 0.000001
outer loop
vertex 0.003794 0.000026 0.000000
vertex 0.003872 0.000029 0.000000
vertex 0.003958 0.000032 0.150000
endloop
endfacet
facet normal 0.037191 -0.999308 -0.000001
outer loop
vertex 0.003794 0.000026 0.000000
vertex 0.003958 0.000032 0.150000
vertex 0.003872 0.000029 0.150000
endloop
endfacet
facet normal 0.033064 -0.999453 0.000001
outer loop
vertex 0.003724 0.000024 0.000000
vertex 0.003794 0.000026 0.000000
vertex 0.003872 0.000029 0.150000
endloop
endfacet
facet normal 0.035189 -0.999381 -0.000001
outer loop
vertex 0.003724 0.000024 0.000000
vertex 0.003872 0.000029 0.150000
vertex 0.003794 0.000026 0.150000
endloop
endfacet
facet normal 0.030936 -0.999521 0.000001
outer loop
vertex 0.003659 0.000022 0.000000
vertex 0.003724 0.000024 0.000000
vertex 0.003794 0.000026 0.150000
endloop
endfacet
facet normal 0.033064 -0.999453 -0.000001
outer loop
vertex 0.003659 0.000022 0.000000
vertex 0.003794 0.000026 0.150000
vertex 0.003724 0.000024 0.150000
endloop
endfacet
facet normal 0.028977 -0.999580 0.000001
outer loop
vertex 0.003599 0.000020 0.000000
vertex 0.003659 0.000022 0.000000
vertex 0.003724 0.000024 0.150000
endloop
endfacet
facet normal 0.030936 -0.999521 -0.000001
outer loop
vertex 0.003599 0.000020 0.000000
vertex 0.003724 0.000024 0.150000
vertex 0.003659 0.000022 0.150000
endloop
endfacet
facet normal 0.000000 0.000000 -1.000000
outer loop
vertex 0.003302 0.000012 0.000000
vertex 0.003366 0.000014 0.000000
vertex 0.003541 0.000019 0.000000
endloop
endfacet
facet normal 0.027391 -0.999625 0.000001
outer loop
vertex 0.003541 0.000019 0.000000
vertex 0.003599 0.000020 0.000000
vertex 0.003659 0.000022 0.150000
endloop
endfacet
facet normal 0.028977 -0.999580 -0.000001
outer loop
vertex 0.003541 0.000019 0.000000
vertex 0.003659 0.000022 0.150000
vertex 0.003599 0.000020 0.150000
endloop
endfacet
facet normal 0.000000 0.000000 -1.000000
outer loop
vertex 0.003232 0.000010 0.000000
vertex 0.003302 0.000012 0.000000
vertex 0.003541 0.000019 0.000000
endloop
endfacet
facet normal 0.000000 0.000000 -1.000000
outer loop
vertex 0.003094 0.000005 0.000000
vertex 0.003161 0.000008 0.000000
vertex 0.003232 0.000010 0.000000
endloop
endfacet
facet normal 0.000000 0.000000 -1.000000
outer loop
vertex 0.003030 0.000002 0.000000
vertex 0.003094 0.000005 0.000000
vertex 0.003232 0.000010 0.000000
endloop
endfacet
facet normal 0.026956 -0.999637 0.000000
outer loop
vertex 0.003232 0.000010 0.000000
vertex 0.003541 0.000019 0.000000
vertex 0.003599 0.000020 0.150000
endloop
endfacet
facet normal 0.027391 -0.999625 -0.000001
outer loop
vertex 0.003232 0.000010 0.000000
vertex 0.003599 0.000020 0.150000
vertex 0.003541 0.000019 0.150000
endloop
endfacet
facet normal 0.039457 -0.999221 -0.000026
outer loop
vertex 0.003030 0.000002 0.000000
vertex 0.003232 0.000010 0.000000
vertex 0.003541 0.000019 0.150000
endloop
endfacet
facet normal 0.026233 -0.999656 0.000019
outer loop
vertex 0.003030 0.000002 0.000000
vertex 0.003541 0.000019 0.150000
vertex 0.003366 0.000014 0.150000
endloop
endfacet
facet normal 0.029316 -0.999570 0.000012
outer loop
vertex 0.002970 0.000000 0.000000
vertex 0.003030 0.000002 0.000000
vertex 0.003366 0.000014 0.150000
endloop
endfacet
facet normal 0.027219 -0.999629 0.000018
outer loop
vertex 0.002970 0.000000 0.000000
vertex 0.003366 0.000014 0.150000
vertex 0.003302 0.000012 0.150000
endloop
endfacet
facet normal 0.006638 -0.999978 0.000063
outer loop
vertex 0.002911 0.000000 0.000000
vertex 0.002970 0.000000 0.000000
vertex 0.003302 0.000012 0.150000
endloop
endfacet
facet normal 0.028524 -0.999593 0.000006
outer loop
vertex 0.002911 0.000000 0.000000
vertex 0.003302 0.000012 0.150000
vertex 0.003232 0.000010 0.150000
endloop
endfacet
facet normal -0.071364 -0.997450 0.000000
outer loop
vertex 0.002795 0.000006 0.150000
vertex 0.002795 0.000006 0.000000
vertex 0.002853 0.000002 0.000000
endloop
endfacet
facet normal -0.027221 -0.999629 0.000126
outer loop
vertex 0.002853 0.000002 0.000000
vertex 0.002911 0.000000 0.000000
vertex 0.003232 0.000010 0.150000
endloop
endfacet
facet normal 0.035276 -0.999378 -0.000032
outer loop
vertex 0.002853 0.000002 0.000000
vertex 0.003232 0.000010 0.150000
vertex 0.003161 0.000008 0.150000
endloop
endfacet
facet normal -0.071364 -0.997450 0.000000
outer loop
vertex 0.002853 0.000002 0.150000
vertex 0.002795 0.000006 0.150000
vertex 0.002853 0.000002 0.000000
endloop
endfacet
facet normal -0.027221 -0.999629 0.000000
outer loop
vertex 0.002911 0.000000 0.150000
vertex 0.002853 0.000002 0.150000
vertex 0.002853 0.000002 0.000000
endloop
endfacet
facet normal 0.042474 -0.999098 -0.000047
outer loop
vertex 0.002853 0.000002 0.000000
vertex 0.003161 0.000008 0.150000
vertex 0.003094 0.000005 0.150000
endloop
endfacet
facet normal 0.040955 -0.999161 -0.000045
outer loop
vertex 0.002853 0.000002 0.000000
vertex 0.003094 0.000005 0.150000
vertex 0.003030 0.000002 0.150000
endloop
endfacet
facet normal 0.006638 -0.999978 -0.000013
outer loop
vertex 0.002970 0.000000 0.150000
vertex 0.002911 0.000000 0.150000
vertex 0.002853 0.000002 0.000000
endloop
endfacet
facet normal 0.029316 -0.999570 -0.000031
outer loop
vertex 0.003030 0.000002 0.150000
vertex 0.002970 0.000000 0.150000
vertex 0.002853 0.000002 0.000000
endloop
endfacet
facet normal -0.963618 0.267282 0.000000
outer loop
vertex 0.000020 0.004260 0.150000
vertex 0.000020 0.004260 0.000000
vertex 0.000007 0.004212 0.000000
endloop
endfacet
facet normal -0.963618 0.267282 0.000000
outer loop
vertex 0.000020 0.004260 0.150000
vertex 0.000007 0.004212 0.000000
vertex 0.000007 0.004212 0.150000
endloop
endfacet
facet normal 0.000000 0.000000 1.000000
outer loop
vertex 0.000041 0.003825 0.000000
vertex 0.000056 0.003765 0.000000
vertex 0.000075 0.003700 0.000000
endloop
endfacet
facet normal 0.000000 0.000000 1.000000
outer loop
vertex 0.000075 0.003700 0.000000
vertex 0.000101 0.003626 0.000000
vertex 0.000133 0.003544 0.000000
endloop
endfacet
facet normal -0.929941 -0.367708 0.000000
outer loop
vertex 0.000133 0.003544 0.000000
vertex 0.000133 0.003544 0.150000
vertex 0.000101 0.003626 0.150000
endloop
endfacet
facet normal -0.943807 -0.330497 -0.000023
outer loop
vertex 0.000133 0.003544 0.000000
vertex 0.000101 0.003626 0.150000
vertex 0.000075 0.003700 0.150000
endloop
endfacet
facet normal 0.000000 0.000000 1.000000
outer loop
vertex 0.000041 0.003825 0.000000
vertex 0.000075 0.003700 0.000000
vertex 0.000133 0.003544 0.000000
endloop
endfacet
facet normal -0.969902 -0.243498 0.000000
outer loop
vertex 0.000056 0.003765 0.150000
vertex 0.000041 0.003825 0.150000
vertex 0.000041 0.003825 0.000000
endloop
endfacet
facet normal -0.957430 -0.288666 -0.000072
outer loop
vertex 0.000133 0.003544 0.000000
vertex 0.000075 0.003700 0.150000
vertex 0.000056 0.003765 0.150000
endloop
endfacet
facet normal -0.949338 -0.314258 -0.000030
outer loop
vertex 0.000133 0.003544 0.000000
vertex 0.000056 0.003765 0.150000
vertex 0.000041 0.003825 0.000000
endloop
endfacet
facet normal -0.270749 -0.962650 0.000000
outer loop
vertex 0.002553 0.000059 0.150000
vertex 0.002553 0.000059 0.000000
vertex 0.002678 0.000024 0.000000
endloop
endfacet
facet normal -0.270748 -0.962650 0.000000
outer loop
vertex 0.002553 0.000059 0.150000
vertex 0.002678 0.000024 0.000000
vertex 0.002678 0.000024 0.150000
endloop
endfacet
facet normal -0.928567 0.371165 0.000000
outer loop
vertex 0.000039 0.004307 0.150000
vertex 0.000039 0.004307 0.000000
vertex 0.000020 0.004260 0.000000
endloop
endfacet
facet normal -0.928567 0.371165 0.000000
outer loop
vertex 0.000039 0.004307 0.150000
vertex 0.000020 0.004260 0.000000
vertex 0.000020 0.004260 0.150000
endloop
endfacet
facet normal 0.992510 -0.122159 0.000000
outer loop
vertex 0.005314 0.001045 0.000000
vertex 0.005314 0.001045 0.150000
vertex 0.005295 0.000892 0.150000
endloop
endfacet
facet normal 0.992510 -0.122164 0.000000
outer loop
vertex 0.005314 0.001045 0.000000
vertex 0.005295 0.000892 0.150000
vertex 0.005295 0.000892 0.000000
endloop
endfacet
facet normal -0.581927 0.813241 0.000000
outer loop
vertex 0.000211 0.004528 0.150000
vertex 0.000211 0.004528 0.000000
vertex 0.000192 0.004514 0.000000
endloop
endfacet
facet normal -0.581927 0.813241 0.000000
outer loop
vertex 0.000211 0.004528 0.150000
vertex 0.000192 0.004514 0.000000
vertex 0.000192 0.004514 0.150000
endloop
endfacet
facet normal 0.042779 0.999085 0.000000
outer loop
vertex 0.000259 0.004533 0.000000
vertex 0.000226 0.004534 0.000000
vertex 0.000226 0.004534 0.150000
endloop
endfacet
facet normal 0.042779 0.999085 0.000000
outer loop
vertex 0.000259 0.004533 0.000000
vertex 0.000226 0.004534 0.150000
vertex 0.000259 0.004533 0.150000
endloop
endfacet
facet normal 0.097938 0.995193 0.000000
outer loop
vertex 0.000330 0.004526 0.000000
vertex 0.000259 0.004533 0.000000
vertex 0.000259 0.004533 0.150000
endloop
endfacet
facet normal 0.097938 0.995193 0.000000
outer loop
vertex 0.000330 0.004526 0.000000
vertex 0.000259 0.004533 0.150000
vertex 0.000330 0.004526 0.150000
endloop
endfacet
facet normal 0.112777 0.993620 0.000000
outer loop
vertex 0.000430 0.004514 0.000000
vertex 0.000330 0.004526 0.000000
vertex 0.000330 0.004526 0.150000
endloop
endfacet
facet normal 0.112777 0.993620 0.000000
outer loop
vertex 0.000430 0.004514 0.000000
vertex 0.000330 0.004526 0.150000
vertex 0.000430 0.004514 0.150000
endloop
endfacet
facet normal 0.119674 0.992813 0.000000
outer loop
vertex 0.000553 0.004499 0.000000
vertex 0.000430 0.004514 0.000000
vertex 0.000430 0.004514 0.150000
endloop
endfacet
facet normal 0.119674 0.992813 0.000000
outer loop
vertex 0.000553 0.004499 0.000000
vertex 0.000430 0.004514 0.150000
vertex 0.000553 0.004499 0.150000
endloop
endfacet
facet normal 0.123649 0.992326 0.000000
outer loop
vertex 0.000690 0.004482 0.000000
vertex 0.000553 0.004499 0.000000
vertex 0.000553 0.004499 0.150000
endloop
endfacet
facet normal 0.123649 0.992326 0.000000
outer loop
vertex 0.000690 0.004482 0.000000
vertex 0.000553 0.004499 0.150000
vertex 0.000690 0.004482 0.150000
endloop
endfacet
facet normal 0.126243 0.991999 0.000000
outer loop
vertex 0.000834 0.004464 0.000000
vertex 0.000690 0.004482 0.000000
vertex 0.000690 0.004482 0.150000
endloop
endfacet
facet normal 0.126244 0.991999 0.000000
outer loop
vertex 0.000834 0.004464 0.000000
vertex 0.000690 0.004482 0.150000
vertex 0.000834 0.004464 0.150000
endloop
endfacet
facet normal 0.128061 0.991766 0.000000
outer loop
vertex 0.000977 0.004446 0.000000
vertex 0.000834 0.004464 0.000000
vertex 0.000834 0.004464 0.150000
endloop
endfacet
facet normal 0.128060 0.991766 0.000000
outer loop
vertex 0.000977 0.004446 0.000000
vertex 0.000834 0.004464 0.150000
vertex 0.000977 0.004446 0.150000
endloop
endfacet
facet normal 0.129414 0.991591 0.000000
outer loop
vertex 0.001112 0.004428 0.000000
vertex 0.000977 0.004446 0.000000
vertex 0.000977 0.004446 0.150000
endloop
endfacet
facet normal 0.129414 0.991591 0.000000
outer loop
vertex 0.001112 0.004428 0.000000
vertex 0.000977 0.004446 0.150000
vertex 0.001112 0.004428 0.150000
endloop
endfacet
facet normal 0.130449 0.991455 0.000000
outer loop
vertex 0.001229 0.004413 0.000000
vertex 0.001112 0.004428 0.000000
vertex 0.001112 0.004428 0.150000
endloop
endfacet
facet normal 0.130449 0.991455 0.000000
outer loop
vertex 0.001229 0.004413 0.000000
vertex 0.001112 0.004428 0.150000
vertex 0.001229 0.004413 0.150000
endloop
endfacet
facet normal 0.132068 0.991241 0.000000
outer loop
vertex 0.001407 0.004389 0.150000
vertex 0.001407 0.004389 0.000000
vertex 0.001323 0.004400 0.000000
endloop
endfacet
facet normal 0.131273 0.991346 0.000000
outer loop
vertex 0.001323 0.004400 0.000000
vertex 0.001229 0.004413 0.000000
vertex 0.001229 0.004413 0.150000
endloop
endfacet
facet normal 0.132069 0.991241 0.000000
outer loop
vertex 0.001323 0.004400 0.150000
vertex 0.001407 0.004389 0.150000
vertex 0.001323 0.004400 0.000000
endloop
endfacet
facet normal 0.131273 0.991346 0.000000
outer loop
vertex 0.001229 0.004413 0.150000
vertex 0.001323 0.004400 0.150000
vertex 0.001323 0.004400 0.000000
endloop
endfacet
facet normal -0.872884 0.487928 0.000000
outer loop
vertex 0.000088 0.004393 0.000000
vertex 0.000039 0.004307 0.000000
vertex 0.000039 0.004307 0.150000
endloop
endfacet
facet normal -0.872884 0.487928 0.000000
outer loop
vertex 0.000088 0.004393 0.000000
vertex 0.000039 0.004307 0.150000
vertex 0.000088 0.004393 0.150000
endloop
endfacet
facet normal 0.283177 -0.959068 0.000000
outer loop
vertex 0.004691 0.000084 0.150000
vertex 0.004691 0.000084 0.000000
vertex 0.004750 0.000102 0.000000
endloop
endfacet
facet normal 0.283177 -0.959068 0.000000
outer loop
vertex 0.004691 0.000084 0.150000
vertex 0.004750 0.000102 0.000000
vertex 0.004750 0.000102 0.150000
endloop
endfacet
facet normal -0.990745 0.135733 0.000000
outer loop
vertex 0.000007 0.004212 0.150000
vertex 0.000007 0.004212 0.000000
vertex 0.000000 0.004163 0.000000
endloop
endfacet
facet normal -0.990745 0.135733 0.000000
outer loop
vertex 0.000007 0.004212 0.150000
vertex 0.000000 0.004163 0.000000
vertex 0.000000 0.004163 0.150000
endloop
endfacet
facet normal 0.707867 -0.706345 0.000000
outer loop
vertex 0.005075 0.000307 0.150000
vertex 0.005075 0.000307 0.000000
vertex 0.005127 0.000359 0.000000
endloop
endfacet
facet normal 0.707862 -0.706351 0.000000
outer loop
vertex 0.005075 0.000307 0.150000
vertex 0.005127 0.000359 0.000000
vertex 0.005127 0.000359 0.150000
endloop
endfacet
facet normal -0.864071 -0.503370 0.000000
outer loop
vertex 0.000422 0.002987 0.150000
vertex 0.000348 0.003113 0.150000
vertex 0.000348 0.003113 0.000000
endloop
endfacet
facet normal 0.000000 0.000000 1.000000
outer loop
vertex 0.000348 0.003113 0.000000
vertex 0.000422 0.002987 0.000000
vertex 0.000500 0.002858 0.000000
endloop
endfacet
facet normal 0.000000 0.000000 1.000000
outer loop
vertex 0.000500 0.002858 0.000000
vertex 0.000660 0.002606 0.000000
vertex 0.000811 0.002378 0.000000
endloop
endfacet
facet normal 0.000000 0.000000 1.000000
outer loop
vertex 0.000811 0.002378 0.000000
vertex 0.000935 0.002197 0.000000
vertex 0.000981 0.002131 0.000000
endloop
endfacet
facet normal -0.810582 -0.585625 0.000000
outer loop
vertex 0.000981 0.002131 0.000000
vertex 0.001014 0.002085 0.000000
vertex 0.001014 0.002085 0.150000
endloop
endfacet
facet normal -0.810580 -0.585627 0.000000
outer loop
vertex 0.000981 0.002131 0.000000
vertex 0.001014 0.002085 0.150000
vertex 0.000981 0.002131 0.150000
endloop
endfacet
facet normal 0.000000 0.000000 1.000000
outer loop
vertex 0.000500 0.002858 0.000000
vertex 0.000811 0.002378 0.000000
vertex 0.000981 0.002131 0.000000
endloop
endfacet
facet normal -0.859557 -0.511040 -0.000009
outer loop
vertex 0.000422 0.002987 0.150000
vertex 0.000348 0.003113 0.000000
vertex 0.000500 0.002858 0.000000
endloop
endfacet
facet normal -0.855098 -0.518467 0.000000
outer loop
vertex 0.000500 0.002858 0.150000
vertex 0.000422 0.002987 0.150000
vertex 0.000500 0.002858 0.000000
endloop
endfacet
facet normal -0.833812 -0.552048 0.000000
outer loop
vertex 0.000500 0.002858 0.000000
vertex 0.000981 0.002131 0.000000
vertex 0.000981 0.002131 0.150000
endloop
endfacet
facet normal -0.817404 -0.576064 -0.000169
outer loop
vertex 0.000500 0.002858 0.000000
vertex 0.000981 0.002131 0.150000
vertex 0.000935 0.002197 0.150000
endloop
endfacet
facet normal -0.844632 -0.535347 0.000000
outer loop
vertex 0.000660 0.002606 0.150000
vertex 0.000500 0.002858 0.150000
vertex 0.000500 0.002858 0.000000
endloop
endfacet
facet normal -0.824721 -0.565540 -0.000101
outer loop
vertex 0.000500 0.002858 0.000000
vertex 0.000935 0.002197 0.150000
vertex 0.000811 0.002378 0.150000
endloop
endfacet
facet normal -0.833750 -0.552142 -0.000040
outer loop
vertex 0.000500 0.002858 0.000000
vertex 0.000811 0.002378 0.150000
vertex 0.000660 0.002606 0.150000
endloop
endfacet
facet normal -0.999594 -0.028476 0.000000
outer loop
vertex 0.000000 0.004163 0.150000
vertex 0.000000 0.004163 0.000000
vertex 0.000002 0.004115 0.000000
endloop
endfacet
facet normal -0.999594 -0.028476 0.000000
outer loop
vertex 0.000000 0.004163 0.150000
vertex 0.000002 0.004115 0.000000
vertex 0.000002 0.004115 0.150000
endloop
endfacet
endsolid Exported from Blender-3.6.8
