solid Exported from Blender-3.6.8
facet normal 0.000000 0.000000 -1.000000
outer loop
vertex 0.001788 0.002406 0.000000
vertex 0.002190 0.002583 0.000000
vertex 0.002293 0.002625 0.000000
endloop
endfacet
facet normal 0.000000 0.000000 -1.000000
outer loop
vertex 0.002293 0.002625 0.000000
vertex 0.002847 0.002836 0.000000
vertex 0.003061 0.002912 0.000000
endloop
endfacet
facet normal 0.000000 0.000000 -1.000000
outer loop
vertex 0.003061 0.002912 0.000000
vertex 0.003285 0.002986 0.000000
vertex 0.003397 0.003021 0.000000
endloop
endfacet
facet normal 0.000000 0.000000 -1.000000
outer loop
vertex 0.003397 0.003021 0.000000
vertex 0.003508 0.003053 0.000000
vertex 0.003619 0.003081 0.000000
endloop
endfacet
facet normal 0.000000 0.000000 -1.000000
outer loop
vertex 0.003619 0.003081 0.000000
vertex 0.003731 0.003106 0.000000
vertex 0.003846 0.003128 0.000000
endloop
endfacet
facet normal 0.000000 0.000000 -1.000000
outer loop
vertex 0.003846 0.003128 0.000000
vertex 0.003966 0.003147 0.000000
vertex 0.004228 0.003179 0.000000
endloop
endfacet
facet normal 0.000000 0.000000 -1.000000
outer loop
vertex 0.004228 0.003179 0.000000
vertex 0.005286 0.003253 0.000000
vertex 0.005566 0.003259 0.000000
endloop
endfacet
facet normal 0.000000 0.000000 -1.000000
outer loop
vertex 0.005566 0.003259 0.000000
vertex 0.005751 0.003247 0.000000
vertex 0.006588 0.003040 0.000000
endloop
endfacet
facet normal 0.000000 0.000000 -1.000000
outer loop
vertex 0.006588 0.003040 0.000000
vertex 0.006741 0.002983 0.000000
vertex 0.006885 0.002914 0.000000
endloop
endfacet
facet normal 0.000000 0.000000 -1.000000
outer loop
vertex 0.006885 0.002914 0.000000
vertex 0.007148 0.002743 0.000000
vertex 0.007381 0.002539 0.000000
endloop
endfacet
facet normal 0.000000 0.000000 -1.000000
outer loop
vertex 0.007381 0.002539 0.000000
vertex 0.007489 0.002428 0.000000
vertex 0.007592 0.002312 0.000000
endloop
endfacet
facet normal 0.000000 0.000000 -1.000000
outer loop
vertex 0.007592 0.002312 0.000000
vertex 0.007880 0.001956 0.000000
vertex 0.007960 0.001840 0.000000
endloop
endfacet
facet normal 0.000000 0.000000 -1.000000
outer loop
vertex 0.007960 0.001840 0.000000
vertex 0.008017 0.001731 0.000000
vertex 0.008055 0.001626 0.000000
endloop
endfacet
facet normal 0.000000 0.000000 -1.000000
outer loop
vertex 0.008055 0.001626 0.000000
vertex 0.008073 0.001526 0.000000
vertex 0.008076 0.001429 0.000000
endloop
endfacet
facet normal 0.000000 0.000000 -1.000000
outer loop
vertex 0.008076 0.001429 0.000000
vertex 0.008065 0.001336 0.000000
vertex 0.008043 0.001244 0.000000
endloop
endfacet
facet normal 0.000000 0.000000 -1.000000
outer loop
vertex 0.008043 0.001244 0.000000
vertex 0.008011 0.001154 0.000000
vertex 0.007972 0.001065 0.000000
endloop
endfacet
facet normal 0.000000 0.000000 -1.000000
outer loop
vertex 0.007972 0.001065 0.000000
vertex 0.007928 0.000975 0.000000
vertex 0.007882 0.000886 0.000000
endloop
endfacet
facet normal 0.000000 0.000000 -1.000000
outer loop
vertex 0.007882 0.000886 0.000000
vertex 0.007835 0.000794 0.000000
vertex 0.007783 0.000709 0.000000
endloop
endfacet
facet normal 0.000000 0.000000 -1.000000
outer loop
vertex 0.007783 0.000709 0.000000
vertex 0.007719 0.000636 0.000000
vertex 0.007642 0.000574 0.000000
endloop
endfacet
facet normal 0.000000 0.000000 -1.000000
outer loop
vertex 0.007642 0.000574 0.000000
vertex 0.007550 0.000521 0.000000
vertex 0.007441 0.000473 0.000000
endloop
endfacet
facet normal 0.000000 0.000000 -1.000000
outer loop
vertex 0.007441 0.000473 0.000000
vertex 0.007314 0.000430 0.000000
vertex 0.007168 0.000390 0.000000
endloop
endfacet
facet normal 0.000000 0.000000 -1.000000
outer loop
vertex 0.007168 0.000390 0.000000
vertex 0.007001 0.000349 0.000000
vertex 0.006811 0.000306 0.000000
endloop
endfacet
facet normal 0.000000 0.000000 -1.000000
outer loop
vertex 0.006360 0.000206 0.000000
vertex 0.006095 0.000144 0.000000
vertex 0.005836 0.000087 0.000000
endloop
endfacet
facet normal 0.000000 0.000000 -1.000000
outer loop
vertex 0.007168 0.000390 0.000000
vertex 0.006811 0.000306 0.000000
vertex 0.006360 0.000206 0.000000
endloop
endfacet
facet normal 0.000000 0.000000 -1.000000
outer loop
vertex 0.007642 0.000574 0.000000
vertex 0.007441 0.000473 0.000000
vertex 0.007168 0.000390 0.000000
endloop
endfacet
facet normal 0.000000 0.000000 -1.000000
outer loop
vertex 0.007882 0.000886 0.000000
vertex 0.007783 0.000709 0.000000
vertex 0.007642 0.000574 0.000000
endloop
endfacet
facet normal 0.000000 0.000000 -1.000000
outer loop
vertex 0.008043 0.001244 0.000000
vertex 0.007972 0.001065 0.000000
vertex 0.007882 0.000886 0.000000
endloop
endfacet
facet normal 0.000000 0.000000 -1.000000
outer loop
vertex 0.008055 0.001626 0.000000
vertex 0.008076 0.001429 0.000000
vertex 0.008043 0.001244 0.000000
endloop
endfacet
facet normal 0.000000 0.000000 -1.000000
outer loop
vertex 0.007592 0.002312 0.000000
vertex 0.007960 0.001840 0.000000
vertex 0.008055 0.001626 0.000000
endloop
endfacet
facet normal 0.000000 0.000000 -1.000000
outer loop
vertex 0.006885 0.002914 0.000000
vertex 0.007381 0.002539 0.000000
vertex 0.007592 0.002312 0.000000
endloop
endfacet
facet normal 0.000000 0.000000 -1.000000
outer loop
vertex 0.005566 0.003259 0.000000
vertex 0.006588 0.003040 0.000000
vertex 0.006885 0.002914 0.000000
endloop
endfacet
facet normal 0.000000 0.000000 -1.000000
outer loop
vertex 0.003846 0.003128 0.000000
vertex 0.004228 0.003179 0.000000
vertex 0.005566 0.003259 0.000000
endloop
endfacet
facet normal 0.000000 0.000000 -1.000000
outer loop
vertex 0.003397 0.003021 0.000000
vertex 0.003619 0.003081 0.000000
vertex 0.003846 0.003128 0.000000
endloop
endfacet
facet normal 0.000000 0.000000 -1.000000
outer loop
vertex 0.002293 0.002625 0.000000
vertex 0.003061 0.002912 0.000000
vertex 0.003397 0.003021 0.000000
endloop
endfacet
facet normal 0.000000 0.000000 -1.000000
outer loop
vertex 0.001289 0.002330 0.000000
vertex 0.001429 0.002355 0.000000
vertex 0.001788 0.002406 0.000000
endloop
endfacet
facet normal 0.000000 0.000000 -1.000000
outer loop
vertex 0.001788 0.002406 0.000000
vertex 0.002293 0.002625 0.000000
vertex 0.003397 0.003021 0.000000
endloop
endfacet
facet normal 0.000000 0.000000 -1.000000
outer loop
vertex 0.003397 0.003021 0.000000
vertex 0.003846 0.003128 0.000000
vertex 0.005566 0.003259 0.000000
endloop
endfacet
facet normal 0.000000 0.000000 -1.000000
outer loop
vertex 0.005566 0.003259 0.000000
vertex 0.006885 0.002914 0.000000
vertex 0.007592 0.002312 0.000000
endloop
endfacet
facet normal 0.000000 0.000000 -1.000000
outer loop
vertex 0.007592 0.002312 0.000000
vertex 0.008055 0.001626 0.000000
vertex 0.008043 0.001244 0.000000
endloop
endfacet
facet normal 0.000000 0.000000 -1.000000
outer loop
vertex 0.008043 0.001244 0.000000
vertex 0.007882 0.000886 0.000000
vertex 0.007642 0.000574 0.000000
endloop
endfacet
facet normal 0.000000 0.000000 -1.000000
outer loop
vertex 0.007642 0.000574 0.000000
vertex 0.007168 0.000390 0.000000
vertex 0.006360 0.000206 0.000000
endloop
endfacet
facet normal 0.000000 0.000000 -1.000000
outer loop
vertex 0.006360 0.000206 0.000000
vertex 0.005836 0.000087 0.000000
vertex 0.005613 0.000046 0.000000
endloop
endfacet
facet normal 0.000000 0.000000 -1.000000
outer loop
vertex 0.005613 0.000046 0.000000
vertex 0.005251 0.000005 0.000000
vertex 0.001186 0.000169 0.000000
endloop
endfacet
facet normal 0.000000 0.000000 -1.000000
outer loop
vertex 0.001186 0.000169 0.000000
vertex 0.001008 0.000195 0.000000
vertex 0.000825 0.000225 0.000000
endloop
endfacet
facet normal 0.000000 0.000000 -1.000000
outer loop
vertex 0.000825 0.000225 0.000000
vertex 0.000638 0.000260 0.000000
vertex 0.000466 0.000302 0.000000
endloop
endfacet
facet normal 0.000000 0.000000 -1.000000
outer loop
vertex 0.000466 0.000302 0.000000
vertex 0.000327 0.000349 0.000000
vertex 0.000218 0.000402 0.000000
endloop
endfacet
facet normal 0.000000 0.000000 -1.000000
outer loop
vertex 0.000218 0.000402 0.000000
vertex 0.000136 0.000459 0.000000
vertex 0.000076 0.000519 0.000000
endloop
endfacet
facet normal 0.000000 0.000000 -1.000000
outer loop
vertex 0.000076 0.000519 0.000000
vertex 0.000036 0.000581 0.000000
vertex 0.000012 0.000645 0.000000
endloop
endfacet
facet normal 0.000000 0.000000 -1.000000
outer loop
vertex 0.000012 0.000645 0.000000
vertex 0.000002 0.000709 0.000000
vertex 0.000001 0.000773 0.000000
endloop
endfacet
facet normal 0.000000 0.000000 -1.000000
outer loop
vertex 0.000001 0.000773 0.000000
vertex 0.000006 0.000835 0.000000
vertex 0.000021 0.000951 0.000000
endloop
endfacet
facet normal 0.000000 0.000000 -1.000000
outer loop
vertex 0.000021 0.000951 0.000000
vertex 0.000031 0.001011 0.000000
vertex 0.000067 0.001154 0.000000
endloop
endfacet
facet normal 0.000000 0.000000 -1.000000
outer loop
vertex 0.000067 0.001154 0.000000
vertex 0.000121 0.001323 0.000000
vertex 0.000190 0.001504 0.000000
endloop
endfacet
facet normal 0.000000 0.000000 -1.000000
outer loop
vertex 0.000190 0.001504 0.000000
vertex 0.000267 0.001687 0.000000
vertex 0.000308 0.001776 0.000000
endloop
endfacet
facet normal 0.000000 0.000000 -1.000000
outer loop
vertex 0.000308 0.001776 0.000000
vertex 0.000349 0.001860 0.000000
vertex 0.000390 0.001940 0.000000
endloop
endfacet
facet normal 0.000000 0.000000 -1.000000
outer loop
vertex 0.000390 0.001940 0.000000
vertex 0.000444 0.002013 0.000000
vertex 0.000523 0.002077 0.000000
endloop
endfacet
facet normal 0.000000 0.000000 -1.000000
outer loop
vertex 0.000523 0.002077 0.000000
vertex 0.000622 0.002135 0.000000
vertex 0.000867 0.002230 0.000000
endloop
endfacet
facet normal 0.000000 0.000000 -1.000000
outer loop
vertex 0.000867 0.002230 0.000000
vertex 0.001147 0.002302 0.000000
vertex 0.001289 0.002330 0.000000
endloop
endfacet
facet normal 0.000000 0.000000 -1.000000
outer loop
vertex 0.001788 0.002406 0.000000
vertex 0.003397 0.003021 0.000000
vertex 0.005566 0.003259 0.000000
endloop
endfacet
facet normal 0.000000 0.000000 -1.000000
outer loop
vertex 0.000867 0.002230 0.000000
vertex 0.001289 0.002330 0.000000
vertex 0.001788 0.002406 0.000000
endloop
endfacet
facet normal 0.000000 0.000000 -1.000000
outer loop
vertex 0.000390 0.001940 0.000000
vertex 0.000523 0.002077 0.000000
vertex 0.000867 0.002230 0.000000
endloop
endfacet
facet normal 0.000000 0.000000 -1.000000
outer loop
vertex 0.000190 0.001504 0.000000
vertex 0.000308 0.001776 0.000000
vertex 0.000390 0.001940 0.000000
endloop
endfacet
facet normal 0.000000 0.000000 -1.000000
outer loop
vertex 0.000021 0.000951 0.000000
vertex 0.000067 0.001154 0.000000
vertex 0.000190 0.001504 0.000000
endloop
endfacet
facet normal 0.000000 0.000000 -1.000000
outer loop
vertex 0.000012 0.000645 0.000000
vertex 0.000001 0.000773 0.000000
vertex 0.000021 0.000951 0.000000
endloop
endfacet
facet normal 0.000000 0.000000 -1.000000
outer loop
vertex 0.000218 0.000402 0.000000
vertex 0.000076 0.000519 0.000000
vertex 0.000012 0.000645 0.000000
endloop
endfacet
facet normal 0.000000 0.000000 -1.000000
outer loop
vertex 0.000825 0.000225 0.000000
vertex 0.000466 0.000302 0.000000
vertex 0.000218 0.000402 0.000000
endloop
endfacet
facet normal 0.000000 0.000000 -1.000000
outer loop
vertex 0.005613 0.000046 0.000000
vertex 0.001186 0.000169 0.000000
vertex 0.000825 0.000225 0.000000
endloop
endfacet
facet normal 0.000000 0.000000 -1.000000
outer loop
vertex 0.007642 0.000574 0.000000
vertex 0.006360 0.000206 0.000000
vertex 0.005613 0.000046 0.000000
endloop
endfacet
facet normal 0.000000 0.000000 -1.000000
outer loop
vertex 0.007592 0.002312 0.000000
vertex 0.008043 0.001244 0.000000
vertex 0.007642 0.000574 0.000000
endloop
endfacet
facet normal 0.000000 0.000000 -1.000000
outer loop
vertex 0.001788 0.002406 0.000000
vertex 0.005566 0.003259 0.000000
vertex 0.007592 0.002312 0.000000
endloop
endfacet
facet normal 0.000000 0.000000 -1.000000
outer loop
vertex 0.000390 0.001940 0.000000
vertex 0.000867 0.002230 0.000000
vertex 0.001788 0.002406 0.000000
endloop
endfacet
facet normal 0.000000 0.000000 -1.000000
outer loop
vertex 0.000021 0.000951 0.000000
vertex 0.000190 0.001504 0.000000
vertex 0.000390 0.001940 0.000000
endloop
endfacet
facet normal 0.000000 0.000000 -1.000000
outer loop
vertex 0.000218 0.000402 0.000000
vertex 0.000012 0.000645 0.000000
vertex 0.000021 0.000951 0.000000
endloop
endfacet
facet normal 0.000000 0.000000 -1.000000
outer loop
vertex 0.005613 0.000046 0.000000
vertex 0.000825 0.000225 0.000000
vertex 0.000218 0.000402 0.000000
endloop
endfacet
facet normal 0.000000 0.000000 -1.000000
outer loop
vertex 0.007592 0.002312 0.000000
vertex 0.007642 0.000574 0.000000
vertex 0.005613 0.000046 0.000000
endloop
endfacet
facet normal 0.000000 0.000000 -1.000000
outer loop
vertex 0.000390 0.001940 0.000000
vertex 0.001788 0.002406 0.000000
vertex 0.007592 0.002312 0.000000
endloop
endfacet
facet normal 0.000000 0.000000 -1.000000
outer loop
vertex 0.000218 0.000402 0.000000
vertex 0.000021 0.000951 0.000000
vertex 0.000390 0.001940 0.000000
endloop
endfacet
facet normal 0.000000 0.000000 -1.000000
outer loop
vertex 0.007592 0.002312 0.000000
vertex 0.005613 0.000046 0.000000
vertex 0.000218 0.000402 0.000000
endloop
endfacet
facet normal 0.000000 0.000000 -1.000000
outer loop
vertex 0.007592 0.002312 0.000000
vertex 0.000218 0.000402 0.000000
vertex 0.000390 0.001940 0.000000
endloop
endfacet
facet normal -0.567031 -0.823697 0.000000
outer loop
vertex 0.000136 0.000459 0.150000
vertex 0.000136 0.000459 0.000000
vertex 0.000218 0.000402 0.000000
endloop
endfacet
facet normal -0.567031 -0.823697 0.000000
outer loop
vertex 0.000136 0.000459 0.150000
vertex 0.000218 0.000402 0.000000
vertex 0.000218 0.000402 0.150000
endloop
endfacet
facet normal 0.820868 0.571118 0.000000
outer loop
vertex 0.007960 0.001840 0.150000
vertex 0.007960 0.001840 0.000000
vertex 0.007880 0.001956 0.000000
endloop
endfacet
facet normal 0.820863 0.571125 0.000000
outer loop
vertex 0.007960 0.001840 0.150000
vertex 0.007880 0.001956 0.000000
vertex 0.007880 0.001956 0.150000
endloop
endfacet
facet normal 0.545730 0.837961 0.000000
outer loop
vertex 0.007148 0.002743 0.150000
vertex 0.007148 0.002743 0.000000
vertex 0.006885 0.002914 0.000000
endloop
endfacet
facet normal 0.545730 0.837961 0.000000
outer loop
vertex 0.007148 0.002743 0.150000
vertex 0.006885 0.002914 0.000000
vertex 0.006885 0.002914 0.150000
endloop
endfacet
facet normal 0.501682 -0.865052 0.000000
outer loop
vertex 0.007550 0.000521 0.150000
vertex 0.007550 0.000521 0.000000
vertex 0.007642 0.000574 0.000000
endloop
endfacet
facet normal 0.501676 -0.865056 0.000000
outer loop
vertex 0.007550 0.000521 0.150000
vertex 0.007642 0.000574 0.000000
vertex 0.007642 0.000574 0.150000
endloop
endfacet
facet normal 0.750683 -0.660662 0.000000
outer loop
vertex 0.007719 0.000636 0.150000
vertex 0.007719 0.000636 0.000000
vertex 0.007783 0.000709 0.000000
endloop
endfacet
facet normal 0.750691 -0.660653 0.000000
outer loop
vertex 0.007719 0.000636 0.150000
vertex 0.007783 0.000709 0.000000
vertex 0.007783 0.000709 0.150000
endloop
endfacet
facet normal 0.240287 0.970702 0.000000
outer loop
vertex 0.006588 0.003040 0.000000
vertex 0.005751 0.003247 0.000000
vertex 0.005751 0.003247 0.150000
endloop
endfacet
facet normal 0.240287 0.970702 0.000000
outer loop
vertex 0.006588 0.003040 0.000000
vertex 0.005751 0.003247 0.150000
vertex 0.006588 0.003040 0.150000
endloop
endfacet
facet normal -0.002081 0.000000 0.999998
outer loop
vertex 0.008073 0.001526 0.150000
vertex 0.008055 0.001626 0.150000
vertex 0.008017 0.001731 0.150000
endloop
endfacet
facet normal 0.000000 0.000000 1.000000
outer loop
vertex 0.008017 0.001731 0.150000
vertex 0.007960 0.001840 0.150000
vertex 0.007880 0.001956 0.150000
endloop
endfacet
facet normal 0.002091 0.000000 0.999998
outer loop
vertex 0.007880 0.001956 0.150000
vertex 0.007592 0.002312 0.150000
vertex 0.007489 0.002428 0.150000
endloop
endfacet
facet normal -0.001860 0.000000 0.999998
outer loop
vertex 0.007489 0.002428 0.150000
vertex 0.007381 0.002539 0.150000
vertex 0.007148 0.002743 0.150000
endloop
endfacet
facet normal -0.000565 0.000000 1.000000
outer loop
vertex 0.007148 0.002743 0.150000
vertex 0.006885 0.002914 0.150000
vertex 0.006741 0.002983 0.150000
endloop
endfacet
facet normal 0.000470 0.000000 1.000000
outer loop
vertex 0.006741 0.002983 0.150000
vertex 0.006588 0.003040 0.150000
vertex 0.005751 0.003247 0.150000
endloop
endfacet
facet normal 0.000000 0.000000 1.000000
outer loop
vertex 0.005751 0.003247 0.150000
vertex 0.005566 0.003259 0.150000
vertex 0.005286 0.003253 0.150000
endloop
endfacet
facet normal 0.000000 0.000000 1.000000
outer loop
vertex 0.005286 0.003253 0.150000
vertex 0.004228 0.003179 0.150000
vertex 0.003966 0.003147 0.150000
endloop
endfacet
facet normal -0.001131 0.000000 0.999999
outer loop
vertex 0.003966 0.003147 0.150000
vertex 0.003846 0.003128 0.150000
vertex 0.003731 0.003106 0.150000
endloop
endfacet
facet normal 0.000000 0.000000 1.000000
outer loop
vertex 0.003731 0.003106 0.150000
vertex 0.003619 0.003081 0.150000
vertex 0.003508 0.003053 0.150000
endloop
endfacet
facet normal 0.000000 0.000000 1.000000
outer loop
vertex 0.003508 0.003053 0.150000
vertex 0.003397 0.003021 0.150000
vertex 0.003285 0.002986 0.150000
endloop
endfacet
facet normal 0.001713 0.000000 0.999999
outer loop
vertex 0.003285 0.002986 0.150000
vertex 0.003061 0.002912 0.150000
vertex 0.002847 0.002836 0.150000
endloop
endfacet
facet normal -0.001816 0.000000 0.999998
outer loop
vertex 0.002847 0.002836 0.150000
vertex 0.002293 0.002625 0.150000
vertex 0.002190 0.002583 0.150000
endloop
endfacet
facet normal -0.000621 0.000000 1.000000
outer loop
vertex 0.001788 0.002406 0.150000
vertex 0.001429 0.002355 0.150000
vertex 0.001289 0.002330 0.150000
endloop
endfacet
facet normal 0.000521 0.000000 1.000000
outer loop
vertex 0.002847 0.002836 0.150000
vertex 0.002190 0.002583 0.150000
vertex 0.001788 0.002406 0.150000
endloop
endfacet
facet normal 0.000000 0.000000 1.000000
outer loop
vertex 0.003508 0.003053 0.150000
vertex 0.003285 0.002986 0.150000
vertex 0.002847 0.002836 0.150000
endloop
endfacet
facet normal 0.000000 0.000000 1.000000
outer loop
vertex 0.003966 0.003147 0.150000
vertex 0.003731 0.003106 0.150000
vertex 0.003508 0.003053 0.150000
endloop
endfacet
facet normal 0.000000 0.000000 1.000000
outer loop
vertex 0.005751 0.003247 0.150000
vertex 0.005286 0.003253 0.150000
vertex 0.003966 0.003147 0.150000
endloop
endfacet
facet normal 0.000000 0.000000 1.000000
outer loop
vertex 0.007148 0.002743 0.150000
vertex 0.006741 0.002983 0.150000
vertex 0.005751 0.003247 0.150000
endloop
endfacet
facet normal -0.000194 0.000000 1.000000
outer loop
vertex 0.007880 0.001956 0.150000
vertex 0.007489 0.002428 0.150000
vertex 0.007148 0.002743 0.150000
endloop
endfacet
facet normal 0.000000 0.000000 1.000000
outer loop
vertex 0.008073 0.001526 0.150000
vertex 0.008017 0.001731 0.150000
vertex 0.007880 0.001956 0.150000
endloop
endfacet
facet normal 0.001374 0.000000 0.999999
outer loop
vertex 0.008065 0.001336 0.150000
vertex 0.008076 0.001429 0.150000
vertex 0.008073 0.001526 0.150000
endloop
endfacet
facet normal -0.002053 0.000000 0.999998
outer loop
vertex 0.008011 0.001154 0.150000
vertex 0.008043 0.001244 0.150000
vertex 0.008065 0.001336 0.150000
endloop
endfacet
facet normal 0.000000 0.000000 1.000000
outer loop
vertex 0.007928 0.000975 0.150000
vertex 0.007972 0.001065 0.150000
vertex 0.008011 0.001154 0.150000
endloop
endfacet
facet normal -0.002449 0.000000 0.999997
outer loop
vertex 0.007783 0.000709 0.150000
vertex 0.007835 0.000794 0.150000
vertex 0.007882 0.000886 0.150000
endloop
endfacet
facet normal 0.000000 0.000000 1.000000
outer loop
vertex 0.007882 0.000886 0.150000
vertex 0.007928 0.000975 0.150000
vertex 0.008011 0.001154 0.150000
endloop
endfacet
facet normal 0.000000 0.000000 1.000000
outer loop
vertex 0.008011 0.001154 0.150000
vertex 0.008065 0.001336 0.150000
vertex 0.008073 0.001526 0.150000
endloop
endfacet
facet normal 0.000000 0.000000 1.000000
outer loop
vertex 0.008073 0.001526 0.150000
vertex 0.007880 0.001956 0.150000
vertex 0.007148 0.002743 0.150000
endloop
endfacet
facet normal -0.000004 0.000000 1.000000
outer loop
vertex 0.007148 0.002743 0.150000
vertex 0.005751 0.003247 0.150000
vertex 0.003966 0.003147 0.150000
endloop
endfacet
facet normal 0.000000 0.000000 1.000000
outer loop
vertex 0.003966 0.003147 0.150000
vertex 0.003508 0.003053 0.150000
vertex 0.002847 0.002836 0.150000
endloop
endfacet
facet normal 0.000000 0.000000 1.000000
outer loop
vertex 0.001788 0.002406 0.150000
vertex 0.001289 0.002330 0.150000
vertex 0.001147 0.002302 0.150000
endloop
endfacet
facet normal 0.000000 0.000000 1.000000
outer loop
vertex 0.003966 0.003147 0.150000
vertex 0.002847 0.002836 0.150000
vertex 0.001788 0.002406 0.150000
endloop
endfacet
facet normal -0.000002 0.000000 1.000000
outer loop
vertex 0.008073 0.001526 0.150000
vertex 0.007148 0.002743 0.150000
vertex 0.003966 0.003147 0.150000
endloop
endfacet
facet normal 0.000233 0.000000 1.000000
outer loop
vertex 0.007882 0.000886 0.150000
vertex 0.008011 0.001154 0.150000
vertex 0.008073 0.001526 0.150000
endloop
endfacet
facet normal 0.000882 0.000000 1.000000
outer loop
vertex 0.007719 0.000636 0.150000
vertex 0.007783 0.000709 0.150000
vertex 0.007882 0.000886 0.150000
endloop
endfacet
facet normal -0.001148 0.000000 0.999999
outer loop
vertex 0.007550 0.000521 0.150000
vertex 0.007642 0.000574 0.150000
vertex 0.007719 0.000636 0.150000
endloop
endfacet
facet normal 0.000695 0.000000 1.000000
outer loop
vertex 0.007314 0.000430 0.150000
vertex 0.007441 0.000473 0.150000
vertex 0.007550 0.000521 0.150000
endloop
endfacet
facet normal 0.001059 0.000000 0.999999
outer loop
vertex 0.007001 0.000349 0.150000
vertex 0.007168 0.000390 0.150000
vertex 0.007314 0.000430 0.150000
endloop
endfacet
facet normal -0.002475 0.000000 0.999997
outer loop
vertex 0.006360 0.000206 0.150000
vertex 0.006811 0.000306 0.150000
vertex 0.007001 0.000349 0.150000
endloop
endfacet
facet normal -0.002492 0.000000 0.999997
outer loop
vertex 0.005836 0.000087 0.150000
vertex 0.006095 0.000144 0.150000
vertex 0.006360 0.000206 0.150000
endloop
endfacet
facet normal 0.000325 0.000000 1.000000
outer loop
vertex 0.005251 0.000005 0.150000
vertex 0.005613 0.000046 0.150000
vertex 0.005836 0.000087 0.150000
endloop
endfacet
facet normal 0.000049 0.000000 1.000000
outer loop
vertex 0.001008 0.000195 0.150000
vertex 0.001186 0.000169 0.150000
vertex 0.005251 0.000005 0.150000
endloop
endfacet
facet normal 0.001137 0.000000 0.999999
outer loop
vertex 0.000638 0.000260 0.150000
vertex 0.000825 0.000225 0.150000
vertex 0.001008 0.000195 0.150000
endloop
endfacet
facet normal 0.000000 0.000000 1.000000
outer loop
vertex 0.000327 0.000349 0.150000
vertex 0.000466 0.000302 0.150000
vertex 0.000638 0.000260 0.150000
endloop
endfacet
facet normal -0.000984 0.000000 1.000000
outer loop
vertex 0.000136 0.000459 0.150000
vertex 0.000218 0.000402 0.150000
vertex 0.000327 0.000349 0.150000
endloop
endfacet
facet normal 0.001377 0.000000 0.999999
outer loop
vertex 0.000036 0.000581 0.150000
vertex 0.000076 0.000519 0.150000
vertex 0.000136 0.000459 0.150000
endloop
endfacet
facet normal 0.000000 0.000000 1.000000
outer loop
vertex 0.000002 0.000709 0.150000
vertex 0.000012 0.000645 0.150000
vertex 0.000036 0.000581 0.150000
endloop
endfacet
facet normal 0.000000 0.000000 1.000000
outer loop
vertex 0.000006 0.000835 0.150000
vertex 0.000001 0.000773 0.150000
vertex 0.000002 0.000709 0.150000
endloop
endfacet
facet normal 0.000000 0.000000 1.000000
outer loop
vertex 0.000031 0.001011 0.150000
vertex 0.000021 0.000951 0.150000
vertex 0.000006 0.000835 0.150000
endloop
endfacet
facet normal -0.002005 0.000000 0.999998
outer loop
vertex 0.000121 0.001323 0.150000
vertex 0.000067 0.001154 0.150000
vertex 0.000031 0.001011 0.150000
endloop
endfacet
facet normal -0.002401 0.000000 0.999997
outer loop
vertex 0.000267 0.001687 0.150000
vertex 0.000190 0.001504 0.150000
vertex 0.000121 0.001323 0.150000
endloop
endfacet
facet normal 0.000000 0.000000 1.000000
outer loop
vertex 0.000349 0.001860 0.150000
vertex 0.000308 0.001776 0.150000
vertex 0.000267 0.001687 0.150000
endloop
endfacet
facet normal 0.000000 0.000000 1.000000
outer loop
vertex 0.000444 0.002013 0.150000
vertex 0.000390 0.001940 0.150000
vertex 0.000349 0.001860 0.150000
endloop
endfacet
facet normal 0.000953 0.000000 1.000000
outer loop
vertex 0.000622 0.002135 0.150000
vertex 0.000523 0.002077 0.150000
vertex 0.000444 0.002013 0.150000
endloop
endfacet
facet normal 0.000000 0.000000 1.000000
outer loop
vertex 0.001147 0.002302 0.150000
vertex 0.000867 0.002230 0.150000
vertex 0.000622 0.002135 0.150000
endloop
endfacet
facet normal 0.000004 0.000000 1.000000
outer loop
vertex 0.008073 0.001526 0.150000
vertex 0.003966 0.003147 0.150000
vertex 0.001788 0.002406 0.150000
endloop
endfacet
facet normal 0.000070 0.000000 1.000000
outer loop
vertex 0.001788 0.002406 0.150000
vertex 0.001147 0.002302 0.150000
vertex 0.000622 0.002135 0.150000
endloop
endfacet
facet normal -0.000235 0.000000 1.000000
outer loop
vertex 0.000622 0.002135 0.150000
vertex 0.000444 0.002013 0.150000
vertex 0.000349 0.001860 0.150000
endloop
endfacet
facet normal 0.001642 0.000000 0.999999
outer loop
vertex 0.000349 0.001860 0.150000
vertex 0.000267 0.001687 0.150000
vertex 0.000121 0.001323 0.150000
endloop
endfacet
facet normal 0.000000 0.000000 1.000000
outer loop
vertex 0.000121 0.001323 0.150000
vertex 0.000031 0.001011 0.150000
vertex 0.000006 0.000835 0.150000
endloop
endfacet
facet normal -0.000751 0.000000 1.000000
outer loop
vertex 0.000006 0.000835 0.150000
vertex 0.000002 0.000709 0.150000
vertex 0.000036 0.000581 0.150000
endloop
endfacet
facet normal 0.000000 0.000000 1.000000
outer loop
vertex 0.000036 0.000581 0.150000
vertex 0.000136 0.000459 0.150000
vertex 0.000327 0.000349 0.150000
endloop
endfacet
facet normal -0.000145 0.000000 1.000000
outer loop
vertex 0.000327 0.000349 0.150000
vertex 0.000638 0.000260 0.150000
vertex 0.001008 0.000195 0.150000
endloop
endfacet
facet normal -0.000008 0.000000 1.000000
outer loop
vertex 0.001008 0.000195 0.150000
vertex 0.005251 0.000005 0.150000
vertex 0.005836 0.000087 0.150000
endloop
endfacet
facet normal 0.000242 0.000000 1.000000
outer loop
vertex 0.006360 0.000206 0.150000
vertex 0.007001 0.000349 0.150000
vertex 0.007314 0.000430 0.150000
endloop
endfacet
facet normal 0.000000 0.000000 1.000000
outer loop
vertex 0.001008 0.000195 0.150000
vertex 0.005836 0.000087 0.150000
vertex 0.006360 0.000206 0.150000
endloop
endfacet
facet normal 0.000064 0.000000 1.000000
outer loop
vertex 0.000036 0.000581 0.150000
vertex 0.000327 0.000349 0.150000
vertex 0.001008 0.000195 0.150000
endloop
endfacet
facet normal 0.000000 0.000000 1.000000
outer loop
vertex 0.000121 0.001323 0.150000
vertex 0.000006 0.000835 0.150000
vertex 0.000036 0.000581 0.150000
endloop
endfacet
facet normal 0.000000 0.000000 1.000000
outer loop
vertex 0.000622 0.002135 0.150000
vertex 0.000349 0.001860 0.150000
vertex 0.000121 0.001323 0.150000
endloop
endfacet
facet normal -0.000008 0.000000 1.000000
outer loop
vertex 0.008073 0.001526 0.150000
vertex 0.001788 0.002406 0.150000
vertex 0.000622 0.002135 0.150000
endloop
endfacet
facet normal -0.000258 0.000000 1.000000
outer loop
vertex 0.007719 0.000636 0.150000
vertex 0.007882 0.000886 0.150000
vertex 0.008073 0.001526 0.150000
endloop
endfacet
facet normal 0.000000 0.000000 1.000000
outer loop
vertex 0.007314 0.000430 0.150000
vertex 0.007550 0.000521 0.150000
vertex 0.007719 0.000636 0.150000
endloop
endfacet
facet normal -0.000006 0.000000 1.000000
outer loop
vertex 0.001008 0.000195 0.150000
vertex 0.006360 0.000206 0.150000
vertex 0.007314 0.000430 0.150000
endloop
endfacet
facet normal 0.000019 0.000000 1.000000
outer loop
vertex 0.000121 0.001323 0.150000
vertex 0.000036 0.000581 0.150000
vertex 0.001008 0.000195 0.150000
endloop
endfacet
facet normal 0.000002 0.000000 1.000000
outer loop
vertex 0.008073 0.001526 0.150000
vertex 0.000622 0.002135 0.150000
vertex 0.000121 0.001323 0.150000
endloop
endfacet
facet normal 0.000000 0.000000 1.000000
outer loop
vertex 0.007314 0.000430 0.150000
vertex 0.007719 0.000636 0.150000
vertex 0.008073 0.001526 0.150000
endloop
endfacet
facet normal -0.000001 0.000000 1.000000
outer loop
vertex 0.000121 0.001323 0.150000
vertex 0.001008 0.000195 0.150000
vertex 0.007314 0.000430 0.150000
endloop
endfacet
facet normal 0.000000 0.000000 1.000000
outer loop
vertex 0.000121 0.001323 0.150000
vertex 0.007314 0.000430 0.150000
vertex 0.008073 0.001526 0.150000
endloop
endfacet
facet normal 0.345414 0.938450 0.000000
outer loop
vertex 0.006741 0.002983 0.150000
vertex 0.006741 0.002983 0.000000
vertex 0.006588 0.003040 0.000000
endloop
endfacet
facet normal 0.345411 0.938451 0.000000
outer loop
vertex 0.006741 0.002983 0.150000
vertex 0.006588 0.003040 0.000000
vertex 0.006588 0.003040 0.150000
endloop
endfacet
facet normal -0.362009 0.932175 0.000000
outer loop
vertex 0.000867 0.002230 0.150000
vertex 0.000867 0.002230 0.000000
vertex 0.000622 0.002135 0.000000
endloop
endfacet
facet normal -0.362009 0.932175 0.000000
outer loop
vertex 0.000867 0.002230 0.150000
vertex 0.000622 0.002135 0.000000
vertex 0.000622 0.002135 0.150000
endloop
endfacet
facet normal -0.500341 0.865829 0.000000
outer loop
vertex 0.000622 0.002135 0.150000
vertex 0.000622 0.002135 0.000000
vertex 0.000523 0.002077 0.000000
endloop
endfacet
facet normal -0.500341 0.865828 0.000000
outer loop
vertex 0.000622 0.002135 0.150000
vertex 0.000523 0.002077 0.000000
vertex 0.000523 0.002077 0.150000
endloop
endfacet
facet normal 0.000000 0.000000 1.000000
outer loop
vertex 0.000031 0.001011 0.000000
vertex 0.000021 0.000951 0.000000
vertex 0.000006 0.000835 0.000000
endloop
endfacet
facet normal -0.996551 0.082986 0.000000
outer loop
vertex 0.000006 0.000835 0.000000
vertex 0.000001 0.000773 0.000000
vertex 0.000001 0.000773 0.150000
endloop
endfacet
facet normal -0.996551 0.082986 0.000000
outer loop
vertex 0.000006 0.000835 0.000000
vertex 0.000001 0.000773 0.150000
vertex 0.000006 0.000835 0.150000
endloop
endfacet
facet normal -0.989887 0.141855 0.000000
outer loop
vertex 0.000031 0.001011 0.150000
vertex 0.000031 0.001011 0.000000
vertex 0.000006 0.000835 0.000000
endloop
endfacet
facet normal -0.990973 0.134059 0.000000
outer loop
vertex 0.000006 0.000835 0.000000
vertex 0.000006 0.000835 0.150000
vertex 0.000021 0.000951 0.150000
endloop
endfacet
facet normal -0.987590 0.157053 -0.000018
outer loop
vertex 0.000006 0.000835 0.000000
vertex 0.000021 0.000951 0.150000
vertex 0.000031 0.001011 0.150000
endloop
endfacet
facet normal 0.885358 0.464909 0.000000
outer loop
vertex 0.008017 0.001731 0.150000
vertex 0.008017 0.001731 0.000000
vertex 0.007960 0.001840 0.000000
endloop
endfacet
facet normal 0.885358 0.464909 0.000000
outer loop
vertex 0.008017 0.001731 0.150000
vertex 0.007960 0.001840 0.000000
vertex 0.007960 0.001840 0.150000
endloop
endfacet
facet normal -0.634717 0.772745 0.000000
outer loop
vertex 0.000523 0.002077 0.150000
vertex 0.000523 0.002077 0.000000
vertex 0.000444 0.002013 0.000000
endloop
endfacet
facet normal -0.634717 0.772744 0.000000
outer loop
vertex 0.000523 0.002077 0.150000
vertex 0.000444 0.002013 0.000000
vertex 0.000444 0.002013 0.150000
endloop
endfacet
facet normal -0.842384 -0.538878 0.000000
outer loop
vertex 0.000036 0.000581 0.150000
vertex 0.000036 0.000581 0.000000
vertex 0.000076 0.000519 0.000000
endloop
endfacet
facet normal -0.842384 -0.538878 0.000000
outer loop
vertex 0.000036 0.000581 0.150000
vertex 0.000076 0.000519 0.000000
vertex 0.000076 0.000519 0.150000
endloop
endfacet
facet normal -0.909146 0.416478 0.000000
outer loop
vertex 0.000308 0.001776 0.000000
vertex 0.000267 0.001687 0.000000
vertex 0.000267 0.001687 0.150000
endloop
endfacet
facet normal -0.909146 0.416477 0.000000
outer loop
vertex 0.000308 0.001776 0.000000
vertex 0.000267 0.001687 0.150000
vertex 0.000308 0.001776 0.150000
endloop
endfacet
facet normal -0.889618 0.456705 0.000000
outer loop
vertex 0.000390 0.001940 0.150000
vertex 0.000390 0.001940 0.000000
vertex 0.000349 0.001860 0.000000
endloop
endfacet
facet normal -0.900187 0.435503 0.000000
outer loop
vertex 0.000349 0.001860 0.000000
vertex 0.000308 0.001776 0.000000
vertex 0.000308 0.001776 0.150000
endloop
endfacet
facet normal -0.889619 0.456704 0.000000
outer loop
vertex 0.000349 0.001860 0.150000
vertex 0.000390 0.001940 0.150000
vertex 0.000349 0.001860 0.000000
endloop
endfacet
facet normal -0.900187 0.435504 0.000000
outer loop
vertex 0.000308 0.001776 0.150000
vertex 0.000349 0.001860 0.150000
vertex 0.000349 0.001860 0.000000
endloop
endfacet
facet normal 0.000000 0.000000 1.000000
outer loop
vertex 0.007168 0.000390 0.000000
vertex 0.007314 0.000430 0.000000
vertex 0.007441 0.000473 0.000000
endloop
endfacet
facet normal 0.321209 -0.947008 0.000000
outer loop
vertex 0.007441 0.000473 0.000000
vertex 0.007441 0.000473 0.150000
vertex 0.007314 0.000430 0.150000
endloop
endfacet
facet normal 0.269189 -0.963087 -0.000049
outer loop
vertex 0.007441 0.000473 0.000000
vertex 0.007314 0.000430 0.150000
vertex 0.007168 0.000390 0.150000
endloop
endfacet
facet normal 0.000000 0.000000 1.000000
outer loop
vertex 0.007001 0.000349 0.000000
vertex 0.007168 0.000390 0.000000
vertex 0.007441 0.000473 0.000000
endloop
endfacet
facet normal 0.000000 0.000000 1.000000
outer loop
vertex 0.006360 0.000206 0.000000
vertex 0.006811 0.000306 0.000000
vertex 0.007001 0.000349 0.000000
endloop
endfacet
facet normal 0.000000 0.000000 1.000000
outer loop
vertex 0.005836 0.000087 0.000000
vertex 0.006095 0.000144 0.000000
vertex 0.006360 0.000206 0.000000
endloop
endfacet
facet normal 0.180293 -0.983613 0.000000
outer loop
vertex 0.005613 0.000046 0.150000
vertex 0.005613 0.000046 0.000000
vertex 0.005836 0.000087 0.000000
endloop
endfacet
facet normal 0.180292 -0.983613 0.000000
outer loop
vertex 0.005836 0.000087 0.150000
vertex 0.005613 0.000046 0.150000
vertex 0.005836 0.000087 0.000000
endloop
endfacet
facet normal 0.000000 0.000000 1.000000
outer loop
vertex 0.006360 0.000206 0.000000
vertex 0.007001 0.000349 0.000000
vertex 0.007441 0.000473 0.000000
endloop
endfacet
facet normal 0.221445 -0.975173 0.000000
outer loop
vertex 0.005836 0.000087 0.150000
vertex 0.005836 0.000087 0.000000
vertex 0.006360 0.000206 0.000000
endloop
endfacet
facet normal 0.216448 -0.976294 -0.000018
outer loop
vertex 0.006095 0.000144 0.150000
vertex 0.005836 0.000087 0.150000
vertex 0.006360 0.000206 0.000000
endloop
endfacet
facet normal 0.240481 -0.970654 -0.000105
outer loop
vertex 0.006360 0.000206 0.000000
vertex 0.007441 0.000473 0.000000
vertex 0.007168 0.000390 0.150000
endloop
endfacet
facet normal 0.237332 -0.971429 -0.000087
outer loop
vertex 0.006360 0.000206 0.000000
vertex 0.007168 0.000390 0.150000
vertex 0.007001 0.000349 0.150000
endloop
endfacet
facet normal 0.226315 -0.974054 0.000000
outer loop
vertex 0.006360 0.000206 0.150000
vertex 0.006095 0.000144 0.150000
vertex 0.006360 0.000206 0.000000
endloop
endfacet
facet normal 0.220747 -0.975331 -0.000013
outer loop
vertex 0.006360 0.000206 0.000000
vertex 0.007001 0.000349 0.150000
vertex 0.006811 0.000306 0.150000
endloop
endfacet
facet normal 0.216750 -0.976227 0.000000
outer loop
vertex 0.006811 0.000306 0.150000
vertex 0.006360 0.000206 0.150000
vertex 0.006360 0.000206 0.000000
endloop
endfacet
facet normal 0.113282 -0.993563 0.000000
outer loop
vertex 0.005251 0.000005 0.150000
vertex 0.005251 0.000005 0.000000
vertex 0.005613 0.000046 0.000000
endloop
endfacet
facet normal 0.113282 -0.993563 0.000000
outer loop
vertex 0.005251 0.000005 0.150000
vertex 0.005613 0.000046 0.000000
vertex 0.005613 0.000046 0.150000
endloop
endfacet
facet normal 0.890012 -0.455937 0.000000
outer loop
vertex 0.007882 0.000886 0.150000
vertex 0.007835 0.000794 0.150000
vertex 0.007835 0.000794 0.000000
endloop
endfacet
facet normal 0.000000 0.000000 -1.000000
outer loop
vertex 0.007835 0.000794 0.000000
vertex 0.007882 0.000886 0.000000
vertex 0.007928 0.000975 0.000000
endloop
endfacet
facet normal 0.916741 -0.399482 0.000000
outer loop
vertex 0.007972 0.001065 0.000000
vertex 0.008011 0.001154 0.000000
vertex 0.008011 0.001154 0.150000
endloop
endfacet
facet normal 0.889380 -0.457168 0.000001
outer loop
vertex 0.007882 0.000886 0.150000
vertex 0.007835 0.000794 0.000000
vertex 0.007928 0.000975 0.000000
endloop
endfacet
facet normal 0.897868 -0.440266 0.000029
outer loop
vertex 0.007928 0.000975 0.000000
vertex 0.007972 0.001065 0.000000
vertex 0.008011 0.001154 0.150000
endloop
endfacet
facet normal 0.916747 -0.399468 -0.000030
outer loop
vertex 0.007928 0.000975 0.000000
vertex 0.008011 0.001154 0.150000
vertex 0.007972 0.001065 0.150000
endloop
endfacet
facet normal 0.888726 -0.458439 0.000000
outer loop
vertex 0.007928 0.000975 0.150000
vertex 0.007882 0.000886 0.150000
vertex 0.007928 0.000975 0.000000
endloop
endfacet
facet normal 0.897868 -0.440266 0.000000
outer loop
vertex 0.007928 0.000975 0.000000
vertex 0.007972 0.001065 0.150000
vertex 0.007928 0.000975 0.150000
endloop
endfacet
facet normal -0.970252 0.242097 0.000000
outer loop
vertex 0.000067 0.001154 0.000000
vertex 0.000031 0.001011 0.000000
vertex 0.000031 0.001011 0.150000
endloop
endfacet
facet normal -0.970252 0.242097 0.000000
outer loop
vertex 0.000067 0.001154 0.000000
vertex 0.000031 0.001011 0.150000
vertex 0.000067 0.001154 0.150000
endloop
endfacet
facet normal 0.942499 0.334210 0.000000
outer loop
vertex 0.008055 0.001626 0.150000
vertex 0.008055 0.001626 0.000000
vertex 0.008017 0.001731 0.000000
endloop
endfacet
facet normal 0.942499 0.334210 0.000000
outer loop
vertex 0.008055 0.001626 0.150000
vertex 0.008017 0.001731 0.000000
vertex 0.008017 0.001731 0.150000
endloop
endfacet
facet normal 0.854575 -0.519328 0.000000
outer loop
vertex 0.007783 0.000709 0.150000
vertex 0.007783 0.000709 0.000000
vertex 0.007835 0.000794 0.000000
endloop
endfacet
facet normal 0.854575 -0.519328 0.000000
outer loop
vertex 0.007783 0.000709 0.150000
vertex 0.007835 0.000794 0.000000
vertex 0.007835 0.000794 0.150000
endloop
endfacet
facet normal -0.324007 -0.946055 0.000000
outer loop
vertex 0.000327 0.000349 0.150000
vertex 0.000327 0.000349 0.000000
vertex 0.000466 0.000302 0.000000
endloop
endfacet
facet normal -0.324007 -0.946055 0.000000
outer loop
vertex 0.000327 0.000349 0.150000
vertex 0.000466 0.000302 0.000000
vertex 0.000466 0.000302 0.150000
endloop
endfacet
facet normal 0.067209 0.997739 0.000000
outer loop
vertex 0.005566 0.003259 0.000000
vertex 0.005566 0.003259 0.150000
vertex 0.005751 0.003247 0.150000
endloop
endfacet
facet normal 0.067209 0.997739 0.000000
outer loop
vertex 0.005566 0.003259 0.000000
vertex 0.005751 0.003247 0.150000
vertex 0.005751 0.003247 0.000000
endloop
endfacet
facet normal 0.000000 0.000000 1.000000
outer loop
vertex 0.000267 0.001687 0.000000
vertex 0.000190 0.001504 0.000000
vertex 0.000121 0.001323 0.000000
endloop
endfacet
facet normal -0.951163 0.308691 0.000000
outer loop
vertex 0.000121 0.001323 0.000000
vertex 0.000067 0.001154 0.000000
vertex 0.000067 0.001154 0.150000
endloop
endfacet
facet normal -0.951163 0.308691 0.000000
outer loop
vertex 0.000121 0.001323 0.000000
vertex 0.000067 0.001154 0.150000
vertex 0.000121 0.001323 0.150000
endloop
endfacet
facet normal -0.928297 0.371841 0.000000
outer loop
vertex 0.000267 0.001687 0.150000
vertex 0.000267 0.001687 0.000000
vertex 0.000121 0.001323 0.000000
endloop
endfacet
facet normal -0.935521 0.353271 0.000000
outer loop
vertex 0.000121 0.001323 0.000000
vertex 0.000121 0.001323 0.150000
vertex 0.000190 0.001504 0.150000
endloop
endfacet
facet normal -0.920900 0.389799 -0.000051
outer loop
vertex 0.000121 0.001323 0.000000
vertex 0.000190 0.001504 0.150000
vertex 0.000267 0.001687 0.150000
endloop
endfacet
facet normal -0.986448 -0.164076 0.000000
outer loop
vertex 0.000002 0.000709 0.150000
vertex 0.000002 0.000709 0.000000
vertex 0.000012 0.000645 0.000000
endloop
endfacet
facet normal -0.986448 -0.164076 0.000000
outer loop
vertex 0.000002 0.000709 0.150000
vertex 0.000012 0.000645 0.000000
vertex 0.000012 0.000645 0.150000
endloop
endfacet
facet normal -0.141809 -0.989894 0.000000
outer loop
vertex 0.001008 0.000195 0.000000
vertex 0.001186 0.000169 0.000000
vertex 0.001186 0.000169 0.150000
endloop
endfacet
facet normal -0.141809 -0.989894 0.000000
outer loop
vertex 0.001008 0.000195 0.000000
vertex 0.001186 0.000169 0.150000
vertex 0.001008 0.000195 0.150000
endloop
endfacet
facet normal -0.163040 -0.986619 0.000000
outer loop
vertex 0.000825 0.000225 0.000000
vertex 0.001008 0.000195 0.000000
vertex 0.001008 0.000195 0.150000
endloop
endfacet
facet normal -0.163040 -0.986619 0.000000
outer loop
vertex 0.000825 0.000225 0.000000
vertex 0.001008 0.000195 0.150000
vertex 0.000825 0.000225 0.150000
endloop
endfacet
facet normal -0.234257 -0.972175 0.000000
outer loop
vertex 0.000466 0.000302 0.150000
vertex 0.000466 0.000302 0.000000
vertex 0.000638 0.000260 0.000000
endloop
endfacet
facet normal -0.185348 -0.982673 0.000000
outer loop
vertex 0.000638 0.000260 0.000000
vertex 0.000825 0.000225 0.000000
vertex 0.000825 0.000225 0.150000
endloop
endfacet
facet normal -0.234257 -0.972175 0.000000
outer loop
vertex 0.000638 0.000260 0.150000
vertex 0.000466 0.000302 0.150000
vertex 0.000638 0.000260 0.000000
endloop
endfacet
facet normal -0.185348 -0.982673 0.000000
outer loop
vertex 0.000825 0.000225 0.150000
vertex 0.000638 0.000260 0.150000
vertex 0.000638 0.000260 0.000000
endloop
endfacet
facet normal 0.971067 -0.238808 0.000000
outer loop
vertex 0.008043 0.001244 0.150000
vertex 0.008043 0.001244 0.000000
vertex 0.008065 0.001336 0.000000
endloop
endfacet
facet normal 0.971063 -0.238823 0.000000
outer loop
vertex 0.008043 0.001244 0.150000
vertex 0.008065 0.001336 0.000000
vertex 0.008065 0.001336 0.150000
endloop
endfacet
facet normal 0.000000 0.000000 1.000000
outer loop
vertex 0.003061 0.002912 0.000000
vertex 0.002847 0.002836 0.000000
vertex 0.002293 0.002625 0.000000
endloop
endfacet
facet normal 0.000000 0.000000 1.000000
outer loop
vertex 0.002293 0.002625 0.000000
vertex 0.002190 0.002583 0.000000
vertex 0.001788 0.002406 0.000000
endloop
endfacet
facet normal -0.401256 0.915966 0.000000
outer loop
vertex 0.001788 0.002406 0.000000
vertex 0.001788 0.002406 0.150000
vertex 0.002190 0.002583 0.150000
endloop
endfacet
facet normal -0.383269 0.923637 -0.000057
outer loop
vertex 0.001788 0.002406 0.000000
vertex 0.002190 0.002583 0.150000
vertex 0.002293 0.002625 0.150000
endloop
endfacet
facet normal 0.000000 0.000000 1.000000
outer loop
vertex 0.003061 0.002912 0.000000
vertex 0.002293 0.002625 0.000000
vertex 0.001788 0.002406 0.000000
endloop
endfacet
facet normal 0.000000 0.000000 1.000000
outer loop
vertex 0.003397 0.003021 0.000000
vertex 0.003285 0.002986 0.000000
vertex 0.003061 0.002912 0.000000
endloop
endfacet
facet normal -0.297323 0.954777 0.000000
outer loop
vertex 0.003285 0.002986 0.150000
vertex 0.003397 0.003021 0.150000
vertex 0.003397 0.003021 0.000000
endloop
endfacet
facet normal -0.316012 0.948755 -0.000015
outer loop
vertex 0.003061 0.002912 0.150000
vertex 0.003285 0.002986 0.150000
vertex 0.003397 0.003021 0.000000
endloop
endfacet
facet normal 0.000000 0.000000 1.000000
outer loop
vertex 0.003397 0.003021 0.000000
vertex 0.003061 0.002912 0.000000
vertex 0.001788 0.002406 0.000000
endloop
endfacet
facet normal -0.354986 0.934872 -0.000169
outer loop
vertex 0.001788 0.002406 0.000000
vertex 0.002293 0.002625 0.150000
vertex 0.002847 0.002836 0.150000
endloop
endfacet
facet normal -0.334754 0.942305 -0.000062
outer loop
vertex 0.002847 0.002836 0.150000
vertex 0.003061 0.002912 0.150000
vertex 0.003397 0.003021 0.000000
endloop
endfacet
facet normal -0.356890 0.934146 -0.000153
outer loop
vertex 0.001788 0.002406 0.000000
vertex 0.002847 0.002836 0.150000
vertex 0.003397 0.003021 0.000000
endloop
endfacet
facet normal 0.999574 0.029173 0.000000
outer loop
vertex 0.008076 0.001429 0.150000
vertex 0.008076 0.001429 0.000000
vertex 0.008073 0.001526 0.000000
endloop
endfacet
facet normal 0.999574 0.029173 0.000000
outer loop
vertex 0.008076 0.001429 0.150000
vertex 0.008073 0.001526 0.000000
vertex 0.008073 0.001526 0.150000
endloop
endfacet
facet normal 0.942850 -0.333218 0.000000
outer loop
vertex 0.008011 0.001154 0.150000
vertex 0.008011 0.001154 0.000000
vertex 0.008043 0.001244 0.000000
endloop
endfacet
facet normal 0.942855 -0.333203 0.000000
outer loop
vertex 0.008011 0.001154 0.150000
vertex 0.008043 0.001244 0.000000
vertex 0.008043 0.001244 0.150000
endloop
endfacet
facet normal 0.993229 -0.116169 0.000000
outer loop
vertex 0.008065 0.001336 0.150000
vertex 0.008065 0.001336 0.000000
vertex 0.008076 0.001429 0.000000
endloop
endfacet
facet normal 0.993229 -0.116169 0.000000
outer loop
vertex 0.008065 0.001336 0.150000
vertex 0.008076 0.001429 0.000000
vertex 0.008076 0.001429 0.150000
endloop
endfacet
facet normal -0.249145 0.968466 0.000000
outer loop
vertex 0.001147 0.002302 0.150000
vertex 0.001147 0.002302 0.000000
vertex 0.000867 0.002230 0.000000
endloop
endfacet
facet normal -0.249145 0.968466 0.000000
outer loop
vertex 0.001147 0.002302 0.150000
vertex 0.000867 0.002230 0.000000
vertex 0.000867 0.002230 0.150000
endloop
endfacet
facet normal 0.000000 0.000000 1.000000
outer loop
vertex 0.001788 0.002406 0.000000
vertex 0.001429 0.002355 0.000000
vertex 0.001289 0.002330 0.000000
endloop
endfacet
facet normal -0.195758 0.980652 0.000000
outer loop
vertex 0.001289 0.002330 0.000000
vertex 0.001147 0.002302 0.000000
vertex 0.001147 0.002302 0.150000
endloop
endfacet
facet normal -0.195758 0.980652 0.000000
outer loop
vertex 0.001289 0.002330 0.000000
vertex 0.001147 0.002302 0.150000
vertex 0.001289 0.002330 0.150000
endloop
endfacet
facet normal -0.150670 0.988584 0.000000
outer loop
vertex 0.001788 0.002406 0.150000
vertex 0.001788 0.002406 0.000000
vertex 0.001289 0.002330 0.000000
endloop
endfacet
facet normal -0.170928 0.985283 0.000000
outer loop
vertex 0.001289 0.002330 0.000000
vertex 0.001289 0.002330 0.150000
vertex 0.001429 0.002355 0.150000
endloop
endfacet
facet normal -0.142743 0.989760 -0.000027
outer loop
vertex 0.001289 0.002330 0.000000
vertex 0.001429 0.002355 0.150000
vertex 0.001788 0.002406 0.150000
endloop
endfacet
facet normal 0.658935 0.752200 0.000000
outer loop
vertex 0.007381 0.002539 0.150000
vertex 0.007381 0.002539 0.000000
vertex 0.007148 0.002743 0.000000
endloop
endfacet
facet normal 0.658935 0.752200 0.000000
outer loop
vertex 0.007381 0.002539 0.150000
vertex 0.007148 0.002743 0.000000
vertex 0.007148 0.002743 0.150000
endloop
endfacet
facet normal 0.398133 -0.917328 0.000000
outer loop
vertex 0.007441 0.000473 0.150000
vertex 0.007441 0.000473 0.000000
vertex 0.007550 0.000521 0.000000
endloop
endfacet
facet normal 0.398128 -0.917330 0.000000
outer loop
vertex 0.007441 0.000473 0.150000
vertex 0.007550 0.000521 0.000000
vertex 0.007550 0.000521 0.150000
endloop
endfacet
facet normal 0.718009 0.696034 0.000000
outer loop
vertex 0.007489 0.002428 0.000000
vertex 0.007381 0.002539 0.000000
vertex 0.007381 0.002539 0.150000
endloop
endfacet
facet normal 0.718014 0.696029 0.000000
outer loop
vertex 0.007489 0.002428 0.000000
vertex 0.007381 0.002539 0.150000
vertex 0.007489 0.002428 0.150000
endloop
endfacet
facet normal 0.777712 0.628621 0.000000
outer loop
vertex 0.007880 0.001956 0.150000
vertex 0.007880 0.001956 0.000000
vertex 0.007592 0.002312 0.000000
endloop
endfacet
facet normal 0.745888 0.666071 0.000000
outer loop
vertex 0.007592 0.002312 0.000000
vertex 0.007489 0.002428 0.000000
vertex 0.007489 0.002428 0.150000
endloop
endfacet
facet normal 0.777713 0.628619 0.000000
outer loop
vertex 0.007592 0.002312 0.150000
vertex 0.007880 0.001956 0.150000
vertex 0.007592 0.002312 0.000000
endloop
endfacet
facet normal 0.745888 0.666071 0.000000
outer loop
vertex 0.007489 0.002428 0.150000
vertex 0.007592 0.002312 0.150000
vertex 0.007592 0.002312 0.000000
endloop
endfacet
facet normal 0.433318 0.901241 0.000000
outer loop
vertex 0.006885 0.002914 0.150000
vertex 0.006885 0.002914 0.000000
vertex 0.006741 0.002983 0.000000
endloop
endfacet
facet normal 0.433322 0.901239 0.000000
outer loop
vertex 0.006885 0.002914 0.150000
vertex 0.006741 0.002983 0.000000
vertex 0.006741 0.002983 0.150000
endloop
endfacet
facet normal -0.800852 0.598862 0.000000
outer loop
vertex 0.000444 0.002013 0.150000
vertex 0.000444 0.002013 0.000000
vertex 0.000390 0.001940 0.000000
endloop
endfacet
facet normal -0.800852 0.598862 0.000000
outer loop
vertex 0.000444 0.002013 0.150000
vertex 0.000390 0.001940 0.000000
vertex 0.000390 0.001940 0.150000
endloop
endfacet
facet normal 0.625344 -0.780349 0.000000
outer loop
vertex 0.007642 0.000574 0.150000
vertex 0.007642 0.000574 0.000000
vertex 0.007719 0.000636 0.000000
endloop
endfacet
facet normal 0.625337 -0.780355 0.000000
outer loop
vertex 0.007642 0.000574 0.150000
vertex 0.007719 0.000636 0.000000
vertex 0.007719 0.000636 0.150000
endloop
endfacet
facet normal -0.937718 -0.347398 0.000000
outer loop
vertex 0.000012 0.000645 0.150000
vertex 0.000012 0.000645 0.000000
vertex 0.000036 0.000581 0.000000
endloop
endfacet
facet normal -0.937718 -0.347398 0.000000
outer loop
vertex 0.000012 0.000645 0.150000
vertex 0.000036 0.000581 0.000000
vertex 0.000036 0.000581 0.150000
endloop
endfacet
facet normal -0.435092 -0.900386 0.000000
outer loop
vertex 0.000218 0.000402 0.150000
vertex 0.000218 0.000402 0.000000
vertex 0.000327 0.000349 0.000000
endloop
endfacet
facet normal -0.435092 -0.900386 0.000000
outer loop
vertex 0.000218 0.000402 0.150000
vertex 0.000327 0.000349 0.000000
vertex 0.000327 0.000349 0.150000
endloop
endfacet
facet normal -0.020875 0.999782 0.000000
outer loop
vertex 0.005286 0.003253 0.150000
vertex 0.005566 0.003259 0.150000
vertex 0.005566 0.003259 0.000000
endloop
endfacet
facet normal 0.000000 0.000000 1.000000
outer loop
vertex 0.005566 0.003259 0.000000
vertex 0.005286 0.003253 0.000000
vertex 0.004228 0.003179 0.000000
endloop
endfacet
facet normal -0.122272 0.992497 0.000000
outer loop
vertex 0.004228 0.003179 0.000000
vertex 0.003966 0.003147 0.000000
vertex 0.003966 0.003147 0.150000
endloop
endfacet
facet normal -0.070193 0.997533 -0.000092
outer loop
vertex 0.004228 0.003179 0.150000
vertex 0.005286 0.003253 0.150000
vertex 0.005566 0.003259 0.000000
endloop
endfacet
facet normal -0.122272 0.992497 0.000000
outer loop
vertex 0.004228 0.003179 0.000000
vertex 0.003966 0.003147 0.150000
vertex 0.004228 0.003179 0.150000
endloop
endfacet
facet normal -0.059896 0.998205 0.000000
outer loop
vertex 0.005566 0.003259 0.000000
vertex 0.004228 0.003179 0.000000
vertex 0.004228 0.003179 0.150000
endloop
endfacet
facet normal -0.999857 -0.016885 0.000000
outer loop
vertex 0.000001 0.000773 0.150000
vertex 0.000001 0.000773 0.000000
vertex 0.000002 0.000709 0.000000
endloop
endfacet
facet normal -0.999857 -0.016885 0.000000
outer loop
vertex 0.000001 0.000773 0.150000
vertex 0.000002 0.000709 0.000000
vertex 0.000002 0.000709 0.150000
endloop
endfacet
facet normal -0.710220 -0.703980 0.000000
outer loop
vertex 0.000076 0.000519 0.150000
vertex 0.000076 0.000519 0.000000
vertex 0.000136 0.000459 0.000000
endloop
endfacet
facet normal -0.710220 -0.703980 0.000000
outer loop
vertex 0.000076 0.000519 0.150000
vertex 0.000136 0.000459 0.000000
vertex 0.000136 0.000459 0.150000
endloop
endfacet
facet normal -0.040428 -0.999182 0.000000
outer loop
vertex 0.001186 0.000169 0.000000
vertex 0.005251 0.000005 0.000000
vertex 0.005251 0.000005 0.150000
endloop
endfacet
facet normal -0.040428 -0.999182 0.000000
outer loop
vertex 0.001186 0.000169 0.000000
vertex 0.005251 0.000005 0.150000
vertex 0.001186 0.000169 0.150000
endloop
endfacet
facet normal -0.157707 0.987486 0.000000
outer loop
vertex 0.003846 0.003128 0.150000
vertex 0.003966 0.003147 0.150000
vertex 0.003966 0.003147 0.000000
endloop
endfacet
facet normal -0.157707 0.987486 0.000000
outer loop
vertex 0.003846 0.003128 0.150000
vertex 0.003966 0.003147 0.000000
vertex 0.003846 0.003128 0.000000
endloop
endfacet
facet normal -0.185523 0.982640 0.000000
outer loop
vertex 0.003731 0.003106 0.150000
vertex 0.003846 0.003128 0.150000
vertex 0.003846 0.003128 0.000000
endloop
endfacet
facet normal -0.185524 0.982640 0.000000
outer loop
vertex 0.003731 0.003106 0.150000
vertex 0.003846 0.003128 0.000000
vertex 0.003731 0.003106 0.000000
endloop
endfacet
facet normal -0.215421 0.976521 0.000000
outer loop
vertex 0.003619 0.003081 0.150000
vertex 0.003731 0.003106 0.150000
vertex 0.003731 0.003106 0.000000
endloop
endfacet
facet normal -0.215423 0.976521 0.000000
outer loop
vertex 0.003619 0.003081 0.150000
vertex 0.003731 0.003106 0.000000
vertex 0.003619 0.003081 0.000000
endloop
endfacet
facet normal -0.275751 0.961229 0.000000
outer loop
vertex 0.003397 0.003021 0.000000
vertex 0.003397 0.003021 0.150000
vertex 0.003508 0.003053 0.150000
endloop
endfacet
facet normal -0.246008 0.969268 0.000000
outer loop
vertex 0.003508 0.003053 0.150000
vertex 0.003619 0.003081 0.150000
vertex 0.003619 0.003081 0.000000
endloop
endfacet
facet normal -0.275751 0.961229 0.000000
outer loop
vertex 0.003508 0.003053 0.000000
vertex 0.003397 0.003021 0.000000
vertex 0.003508 0.003053 0.150000
endloop
endfacet
facet normal -0.246008 0.969268 0.000000
outer loop
vertex 0.003619 0.003081 0.000000
vertex 0.003508 0.003053 0.000000
vertex 0.003508 0.003053 0.150000
endloop
endfacet
facet normal 0.982804 0.184654 0.000000
outer loop
vertex 0.008073 0.001526 0.150000
vertex 0.008073 0.001526 0.000000
vertex 0.008055 0.001626 0.000000
endloop
endfacet
facet normal 0.982804 0.184654 0.000000
outer loop
vertex 0.008073 0.001526 0.150000
vertex 0.008055 0.001626 0.000000
vertex 0.008055 0.001626 0.150000
endloop
endfacet
endsolid Exported from Blender-3.6.8
