solid Exported from Blender-3.6.8
facet normal -0.772408 -0.635127 0.000000
outer loop
vertex 0.001667 0.002318 0.000000
vertex 0.001808 0.002146 0.000000
vertex 0.001808 0.002146 0.150000
endloop
endfacet
facet normal -0.772407 -0.635128 0.000000
outer loop
vertex 0.001667 0.002318 0.000000
vertex 0.001808 0.002146 0.150000
vertex 0.001667 0.002318 0.150000
endloop
endfacet
facet normal -0.806593 -0.591107 0.000000
outer loop
vertex 0.001353 0.002735 0.150000
vertex 0.001353 0.002735 0.000000
vertex 0.001514 0.002516 0.000000
endloop
endfacet
facet normal -0.791440 -0.611247 0.000000
outer loop
vertex 0.001514 0.002516 0.000000
vertex 0.001667 0.002318 0.000000
vertex 0.001667 0.002318 0.150000
endloop
endfacet
facet normal -0.806593 -0.591107 0.000000
outer loop
vertex 0.001514 0.002516 0.150000
vertex 0.001353 0.002735 0.150000
vertex 0.001514 0.002516 0.000000
endloop
endfacet
facet normal -0.791440 -0.611247 0.000000
outer loop
vertex 0.001514 0.002516 0.000000
vertex 0.001667 0.002318 0.150000
vertex 0.001514 0.002516 0.150000
endloop
endfacet
facet normal -0.452756 -0.891634 0.000000
outer loop
vertex 0.003766 0.000153 0.150000
vertex 0.003766 0.000153 0.000000
vertex 0.003877 0.000097 0.000000
endloop
endfacet
facet normal -0.452756 -0.891634 0.000000
outer loop
vertex 0.003766 0.000153 0.150000
vertex 0.003877 0.000097 0.000000
vertex 0.003877 0.000097 0.150000
endloop
endfacet
facet normal 0.000000 0.000000 1.000000
outer loop
vertex 0.000227 0.004704 0.150000
vertex 0.008973 0.004557 0.150000
vertex 0.000227 0.004704 0.150000
endloop
endfacet
facet normal 0.000000 0.000000 -1.000000
outer loop
vertex 0.001260 0.007183 0.000000
vertex 0.001070 0.007053 0.000000
vertex 0.000975 0.006993 0.000000
endloop
endfacet
facet normal 0.000000 0.000000 -1.000000
outer loop
vertex 0.001260 0.007183 0.000000
vertex 0.000975 0.006993 0.000000
vertex 0.000702 0.006829 0.000000
endloop
endfacet
facet normal 0.000000 0.000000 -1.000000
outer loop
vertex 0.001351 0.007242 0.000000
vertex 0.001260 0.007183 0.000000
vertex 0.000702 0.006829 0.000000
endloop
endfacet
facet normal -0.576126 0.817361 0.000000
outer loop
vertex 0.000617 0.006775 0.000000
vertex 0.000538 0.006719 0.000000
vertex 0.000538 0.006719 0.150000
endloop
endfacet
facet normal -0.538950 0.842338 0.000029
outer loop
vertex 0.000702 0.006829 0.000000
vertex 0.000617 0.006775 0.000000
vertex 0.000538 0.006719 0.150000
endloop
endfacet
facet normal -0.576127 0.817360 -0.000030
outer loop
vertex 0.000702 0.006829 0.000000
vertex 0.000538 0.006719 0.150000
vertex 0.000617 0.006775 0.150000
endloop
endfacet
facet normal -0.536648 0.843806 0.000002
outer loop
vertex 0.001351 0.007242 0.000000
vertex 0.000702 0.006829 0.000000
vertex 0.000617 0.006775 0.150000
endloop
endfacet
facet normal -0.538950 0.842338 -0.000014
outer loop
vertex 0.001351 0.007242 0.000000
vertex 0.000617 0.006775 0.150000
vertex 0.000702 0.006829 0.150000
endloop
endfacet
facet normal -0.513345 0.858182 0.000140
outer loop
vertex 0.001441 0.007296 0.000000
vertex 0.001351 0.007242 0.000000
vertex 0.000702 0.006829 0.150000
endloop
endfacet
facet normal -0.513824 0.857895 0.000137
outer loop
vertex 0.001441 0.007296 0.000000
vertex 0.000702 0.006829 0.150000
vertex 0.000975 0.006993 0.150000
endloop
endfacet
facet normal -0.456456 0.889746 0.000000
outer loop
vertex 0.001626 0.007394 0.150000
vertex 0.001626 0.007394 0.000000
vertex 0.001532 0.007346 0.000000
endloop
endfacet
facet normal -0.484023 0.875055 0.000264
outer loop
vertex 0.001532 0.007346 0.000000
vertex 0.001441 0.007296 0.000000
vertex 0.000975 0.006993 0.150000
endloop
endfacet
facet normal -0.534077 0.845436 0.000009
outer loop
vertex 0.001532 0.007346 0.000000
vertex 0.000975 0.006993 0.150000
vertex 0.001070 0.007053 0.150000
endloop
endfacet
facet normal -0.456456 0.889746 0.000000
outer loop
vertex 0.001532 0.007346 0.150000
vertex 0.001626 0.007394 0.150000
vertex 0.001532 0.007346 0.000000
endloop
endfacet
facet normal -0.484022 0.875056 0.000000
outer loop
vertex 0.001441 0.007296 0.150000
vertex 0.001532 0.007346 0.150000
vertex 0.001532 0.007346 0.000000
endloop
endfacet
facet normal -0.566241 0.824240 -0.000132
outer loop
vertex 0.001532 0.007346 0.000000
vertex 0.001070 0.007053 0.150000
vertex 0.001260 0.007183 0.150000
endloop
endfacet
facet normal -0.513345 0.858182 -0.000023
outer loop
vertex 0.001351 0.007242 0.150000
vertex 0.001441 0.007296 0.150000
vertex 0.001532 0.007346 0.000000
endloop
endfacet
facet normal -0.542309 0.840179 -0.000071
outer loop
vertex 0.001260 0.007183 0.150000
vertex 0.001351 0.007242 0.150000
vertex 0.001532 0.007346 0.000000
endloop
endfacet
facet normal 0.383093 0.923710 0.000000
outer loop
vertex 0.006589 0.007509 0.150000
vertex 0.006589 0.007509 0.000000
vertex 0.006361 0.007604 0.000000
endloop
endfacet
facet normal 0.383092 0.923710 0.000000
outer loop
vertex 0.006589 0.007509 0.150000
vertex 0.006361 0.007604 0.000000
vertex 0.006361 0.007604 0.150000
endloop
endfacet
facet normal -0.659547 0.751664 0.000000
outer loop
vertex 0.000538 0.006719 0.150000
vertex 0.000538 0.006719 0.000000
vertex 0.000394 0.006593 0.000000
endloop
endfacet
facet normal -0.659546 0.751664 0.000000
outer loop
vertex 0.000538 0.006719 0.150000
vertex 0.000394 0.006593 0.000000
vertex 0.000394 0.006593 0.150000
endloop
endfacet
facet normal -0.340542 -0.940229 0.000000
outer loop
vertex 0.003877 0.000097 0.150000
vertex 0.003877 0.000097 0.000000
vertex 0.004000 0.000052 0.000000
endloop
endfacet
facet normal -0.340542 -0.940229 0.000000
outer loop
vertex 0.003877 0.000097 0.150000
vertex 0.004000 0.000052 0.000000
vertex 0.004000 0.000052 0.150000
endloop
endfacet
facet normal 0.000000 0.000000 0.000000
outer loop
vertex 0.000227 0.004704 0.000000
vertex 0.000227 0.004704 0.000000
vertex 0.000227 0.004704 0.000000
endloop
endfacet
facet normal 0.000000 0.000000 -1.000000
outer loop
vertex 0.000227 0.004704 0.000000
vertex 0.000094 0.005120 0.000000
vertex 0.000049 0.005287 0.000000
endloop
endfacet
facet normal 0.000000 0.000000 -1.000000
outer loop
vertex 0.000049 0.005287 0.000000
vertex 0.000014 0.005447 0.000000
vertex 0.000000 0.005592 0.000000
endloop
endfacet
facet normal 0.000000 0.000000 -1.000000
outer loop
vertex 0.000000 0.005592 0.000000
vertex 0.000010 0.005730 0.000000
vertex 0.000042 0.005867 0.000000
endloop
endfacet
facet normal 0.000000 0.000000 -1.000000
outer loop
vertex 0.000042 0.005867 0.000000
vertex 0.000064 0.005939 0.000000
vertex 0.000091 0.006012 0.000000
endloop
endfacet
facet normal 0.000000 0.000000 -1.000000
outer loop
vertex 0.000091 0.006012 0.000000
vertex 0.000122 0.006089 0.000000
vertex 0.000233 0.006350 0.000000
endloop
endfacet
facet normal 0.000000 0.000000 -1.000000
outer loop
vertex 0.000233 0.006350 0.000000
vertex 0.000279 0.006440 0.000000
vertex 0.000333 0.006521 0.000000
endloop
endfacet
facet normal 0.000000 0.000000 -1.000000
outer loop
vertex 0.000333 0.006521 0.000000
vertex 0.000394 0.006593 0.000000
vertex 0.000538 0.006719 0.000000
endloop
endfacet
facet normal 0.000000 0.000000 -1.000000
outer loop
vertex 0.000538 0.006719 0.000000
vertex 0.000617 0.006775 0.000000
vertex 0.000702 0.006829 0.000000
endloop
endfacet
facet normal 0.000000 0.000000 -1.000000
outer loop
vertex 0.000538 0.006719 0.000000
vertex 0.000702 0.006829 0.000000
vertex 0.000975 0.006993 0.000000
endloop
endfacet
facet normal 0.000000 0.000000 -1.000000
outer loop
vertex 0.000233 0.006350 0.000000
vertex 0.000333 0.006521 0.000000
vertex 0.000538 0.006719 0.000000
endloop
endfacet
facet normal 0.000000 0.000000 -1.000000
outer loop
vertex 0.000042 0.005867 0.000000
vertex 0.000091 0.006012 0.000000
vertex 0.000233 0.006350 0.000000
endloop
endfacet
facet normal 0.000000 0.000000 -1.000000
outer loop
vertex 0.000049 0.005287 0.000000
vertex 0.000000 0.005592 0.000000
vertex 0.000042 0.005867 0.000000
endloop
endfacet
facet normal 0.000000 0.000000 -1.000000
outer loop
vertex 0.000227 0.004704 0.000000
vertex 0.000049 0.005287 0.000000
vertex 0.000042 0.005867 0.000000
endloop
endfacet
facet normal 0.000000 0.000000 -1.000000
outer loop
vertex 0.000042 0.005867 0.000000
vertex 0.000233 0.006350 0.000000
vertex 0.000538 0.006719 0.000000
endloop
endfacet
facet normal 0.000000 0.000000 -1.000000
outer loop
vertex 0.000042 0.005867 0.000000
vertex 0.000538 0.006719 0.000000
vertex 0.000975 0.006993 0.000000
endloop
endfacet
facet normal 0.000000 0.000000 -1.000000
outer loop
vertex 0.000227 0.004704 0.000000
vertex 0.000042 0.005867 0.000000
vertex 0.000975 0.006993 0.000000
endloop
endfacet
facet normal 0.000000 0.000000 -1.000000
outer loop
vertex 0.001070 0.007053 0.000000
vertex 0.001260 0.007183 0.000000
vertex 0.001351 0.007242 0.000000
endloop
endfacet
facet normal 0.000000 0.000000 -1.000000
outer loop
vertex 0.000227 0.004704 0.000000
vertex 0.000975 0.006993 0.000000
vertex 0.001070 0.007053 0.000000
endloop
endfacet
facet normal 0.000000 0.000000 -1.000000
outer loop
vertex 0.000227 0.004704 0.000000
vertex 0.001070 0.007053 0.000000
vertex 0.001351 0.007242 0.000000
endloop
endfacet
facet normal 0.000000 0.000000 -1.000000
outer loop
vertex 0.001351 0.007242 0.000000
vertex 0.001441 0.007296 0.000000
vertex 0.001532 0.007346 0.000000
endloop
endfacet
facet normal 0.000000 0.000000 -1.000000
outer loop
vertex 0.001532 0.007346 0.000000
vertex 0.001626 0.007394 0.000000
vertex 0.001725 0.007442 0.000000
endloop
endfacet
facet normal 0.000000 0.000000 -1.000000
outer loop
vertex 0.001725 0.007442 0.000000
vertex 0.001831 0.007490 0.000000
vertex 0.001946 0.007540 0.000000
endloop
endfacet
facet normal 0.000000 0.000000 -1.000000
outer loop
vertex 0.001946 0.007540 0.000000
vertex 0.002531 0.007787 0.000000
vertex 0.002709 0.007852 0.000000
endloop
endfacet
facet normal 0.000000 0.000000 -1.000000
outer loop
vertex 0.002709 0.007852 0.000000
vertex 0.002888 0.007900 0.000000
vertex 0.003264 0.007948 0.000000
endloop
endfacet
facet normal 0.000000 0.000000 -1.000000
outer loop
vertex 0.003264 0.007948 0.000000
vertex 0.003682 0.007945 0.000000
vertex 0.005793 0.007743 0.000000
endloop
endfacet
facet normal 0.000000 0.000000 -1.000000
outer loop
vertex 0.005793 0.007743 0.000000
vertex 0.006098 0.007682 0.000000
vertex 0.006361 0.007604 0.000000
endloop
endfacet
facet normal 0.000000 0.000000 -1.000000
outer loop
vertex 0.006361 0.007604 0.000000
vertex 0.006589 0.007509 0.000000
vertex 0.006789 0.007400 0.000000
endloop
endfacet
facet normal 0.000000 0.000000 -1.000000
outer loop
vertex 0.006789 0.007400 0.000000
vertex 0.006967 0.007278 0.000000
vertex 0.008316 0.006038 0.000000
endloop
endfacet
facet normal 0.000000 0.000000 -1.000000
outer loop
vertex 0.008316 0.006038 0.000000
vertex 0.008451 0.005871 0.000000
vertex 0.008564 0.005701 0.000000
endloop
endfacet
facet normal 0.000000 0.000000 -1.000000
outer loop
vertex 0.008564 0.005701 0.000000
vertex 0.008738 0.005347 0.000000
vertex 0.009139 0.003880 0.000000
endloop
endfacet
facet normal 0.000000 0.000000 -1.000000
outer loop
vertex 0.009139 0.003880 0.000000
vertex 0.009165 0.003690 0.000000
vertex 0.009169 0.003525 0.000000
endloop
endfacet
facet normal 0.000000 0.000000 -1.000000
outer loop
vertex 0.009169 0.003525 0.000000
vertex 0.009153 0.003380 0.000000
vertex 0.009119 0.003250 0.000000
endloop
endfacet
facet normal 0.000000 0.000000 -1.000000
outer loop
vertex 0.009119 0.003250 0.000000
vertex 0.009069 0.003130 0.000000
vertex 0.009005 0.003015 0.000000
endloop
endfacet
facet normal 0.000000 0.000000 -1.000000
outer loop
vertex 0.009005 0.003015 0.000000
vertex 0.008930 0.002897 0.000000
vertex 0.008752 0.002637 0.000000
endloop
endfacet
facet normal 0.000000 0.000000 -1.000000
outer loop
vertex 0.008654 0.002484 0.000000
vertex 0.008441 0.002123 0.000000
vertex 0.008312 0.001949 0.000000
endloop
endfacet
facet normal 0.000000 0.000000 -1.000000
outer loop
vertex 0.009119 0.003250 0.000000
vertex 0.009005 0.003015 0.000000
vertex 0.008752 0.002637 0.000000
endloop
endfacet
facet normal 0.000000 0.000000 -1.000000
outer loop
vertex 0.008752 0.002637 0.000000
vertex 0.008654 0.002484 0.000000
vertex 0.008312 0.001949 0.000000
endloop
endfacet
facet normal 0.000000 0.000000 -1.000000
outer loop
vertex 0.008312 0.001949 0.000000
vertex 0.008167 0.001785 0.000000
vertex 0.007837 0.001482 0.000000
endloop
endfacet
facet normal 0.000000 0.000000 -1.000000
outer loop
vertex 0.007837 0.001482 0.000000
vertex 0.007468 0.001206 0.000000
vertex 0.006121 0.000387 0.000000
endloop
endfacet
facet normal 0.000000 0.000000 -1.000000
outer loop
vertex 0.006121 0.000387 0.000000
vertex 0.005837 0.000247 0.000000
vertex 0.005585 0.000154 0.000000
endloop
endfacet
facet normal 0.000000 0.000000 -1.000000
outer loop
vertex 0.005585 0.000154 0.000000
vertex 0.005189 0.000072 0.000000
vertex 0.004465 0.000001 0.000000
endloop
endfacet
facet normal 0.000000 0.000000 -1.000000
outer loop
vertex 0.004465 0.000001 0.000000
vertex 0.004290 0.000003 0.000000
vertex 0.004136 0.000021 0.000000
endloop
endfacet
facet normal 0.000000 0.000000 -1.000000
outer loop
vertex 0.004136 0.000021 0.000000
vertex 0.004000 0.000052 0.000000
vertex 0.003877 0.000097 0.000000
endloop
endfacet
facet normal 0.000000 0.000000 -1.000000
outer loop
vertex 0.003877 0.000097 0.000000
vertex 0.003766 0.000153 0.000000
vertex 0.003662 0.000221 0.000000
endloop
endfacet
facet normal 0.000000 0.000000 -1.000000
outer loop
vertex 0.003662 0.000221 0.000000
vertex 0.003466 0.000388 0.000000
vertex 0.003367 0.000486 0.000000
endloop
endfacet
facet normal 0.000000 0.000000 -1.000000
outer loop
vertex 0.003662 0.000221 0.000000
vertex 0.003367 0.000486 0.000000
vertex 0.003263 0.000591 0.000000
endloop
endfacet
facet normal 0.000000 0.000000 -1.000000
outer loop
vertex 0.004136 0.000021 0.000000
vertex 0.003877 0.000097 0.000000
vertex 0.003662 0.000221 0.000000
endloop
endfacet
facet normal 0.000000 0.000000 -1.000000
outer loop
vertex 0.005585 0.000154 0.000000
vertex 0.004465 0.000001 0.000000
vertex 0.004136 0.000021 0.000000
endloop
endfacet
facet normal 0.000000 0.000000 -1.000000
outer loop
vertex 0.007837 0.001482 0.000000
vertex 0.006121 0.000387 0.000000
vertex 0.005585 0.000154 0.000000
endloop
endfacet
facet normal 0.000000 0.000000 -1.000000
outer loop
vertex 0.008752 0.002637 0.000000
vertex 0.008312 0.001949 0.000000
vertex 0.007837 0.001482 0.000000
endloop
endfacet
facet normal 0.000000 0.000000 -1.000000
outer loop
vertex 0.009169 0.003525 0.000000
vertex 0.009119 0.003250 0.000000
vertex 0.008752 0.002637 0.000000
endloop
endfacet
facet normal 0.000000 0.000000 -1.000000
outer loop
vertex 0.008564 0.005701 0.000000
vertex 0.009139 0.003880 0.000000
vertex 0.009169 0.003525 0.000000
endloop
endfacet
facet normal 0.000000 0.000000 -1.000000
outer loop
vertex 0.006789 0.007400 0.000000
vertex 0.008316 0.006038 0.000000
vertex 0.008564 0.005701 0.000000
endloop
endfacet
facet normal 0.000000 0.000000 -1.000000
outer loop
vertex 0.005793 0.007743 0.000000
vertex 0.006361 0.007604 0.000000
vertex 0.006789 0.007400 0.000000
endloop
endfacet
facet normal 0.000000 0.000000 -1.000000
outer loop
vertex 0.002709 0.007852 0.000000
vertex 0.003264 0.007948 0.000000
vertex 0.005793 0.007743 0.000000
endloop
endfacet
facet normal 0.000000 0.000000 -1.000000
outer loop
vertex 0.001725 0.007442 0.000000
vertex 0.001946 0.007540 0.000000
vertex 0.002709 0.007852 0.000000
endloop
endfacet
facet normal 0.000000 0.000000 -1.000000
outer loop
vertex 0.001351 0.007242 0.000000
vertex 0.001532 0.007346 0.000000
vertex 0.001725 0.007442 0.000000
endloop
endfacet
facet normal 0.000000 0.000000 -1.000000
outer loop
vertex 0.001022 0.003221 0.000000
vertex 0.000704 0.003736 0.000000
vertex 0.000429 0.004243 0.000000
endloop
endfacet
facet normal 0.000000 0.000000 -1.000000
outer loop
vertex 0.001514 0.002516 0.000000
vertex 0.001353 0.002735 0.000000
vertex 0.001022 0.003221 0.000000
endloop
endfacet
facet normal 0.000000 0.000000 -1.000000
outer loop
vertex 0.001808 0.002146 0.000000
vertex 0.001667 0.002318 0.000000
vertex 0.001514 0.002516 0.000000
endloop
endfacet
facet normal 0.000000 0.000000 -1.000000
outer loop
vertex 0.002047 0.001886 0.000000
vertex 0.001934 0.002006 0.000000
vertex 0.001808 0.002146 0.000000
endloop
endfacet
facet normal 0.000000 0.000000 -1.000000
outer loop
vertex 0.002153 0.001771 0.000000
vertex 0.002047 0.001886 0.000000
vertex 0.001808 0.002146 0.000000
endloop
endfacet
facet normal 0.000000 0.000000 -1.000000
outer loop
vertex 0.001808 0.002146 0.000000
vertex 0.001514 0.002516 0.000000
vertex 0.001022 0.003221 0.000000
endloop
endfacet
facet normal 0.000000 0.000000 -1.000000
outer loop
vertex 0.000227 0.004704 0.000000
vertex 0.001351 0.007242 0.000000
vertex 0.001725 0.007442 0.000000
endloop
endfacet
facet normal 0.000000 0.000000 -1.000000
outer loop
vertex 0.001725 0.007442 0.000000
vertex 0.002709 0.007852 0.000000
vertex 0.005793 0.007743 0.000000
endloop
endfacet
facet normal 0.000000 0.000000 -1.000000
outer loop
vertex 0.005793 0.007743 0.000000
vertex 0.006789 0.007400 0.000000
vertex 0.008564 0.005701 0.000000
endloop
endfacet
facet normal 0.000000 0.000000 -1.000000
outer loop
vertex 0.008564 0.005701 0.000000
vertex 0.009169 0.003525 0.000000
vertex 0.008752 0.002637 0.000000
endloop
endfacet
facet normal 0.000000 0.000000 -1.000000
outer loop
vertex 0.008752 0.002637 0.000000
vertex 0.007837 0.001482 0.000000
vertex 0.005585 0.000154 0.000000
endloop
endfacet
facet normal 0.000000 0.000000 -1.000000
outer loop
vertex 0.005585 0.000154 0.000000
vertex 0.004136 0.000021 0.000000
vertex 0.003662 0.000221 0.000000
endloop
endfacet
facet normal 0.000000 0.000000 -1.000000
outer loop
vertex 0.003662 0.000221 0.000000
vertex 0.003263 0.000591 0.000000
vertex 0.003152 0.000704 0.000000
endloop
endfacet
facet normal 0.000000 0.000000 -1.000000
outer loop
vertex 0.003152 0.000704 0.000000
vertex 0.003039 0.000818 0.000000
vertex 0.002932 0.000928 0.000000
endloop
endfacet
facet normal 0.000000 0.000000 -1.000000
outer loop
vertex 0.002932 0.000928 0.000000
vertex 0.002831 0.001035 0.000000
vertex 0.002733 0.001139 0.000000
endloop
endfacet
facet normal 0.000000 0.000000 -1.000000
outer loop
vertex 0.002733 0.001139 0.000000
vertex 0.002637 0.001242 0.000000
vertex 0.002543 0.001345 0.000000
endloop
endfacet
facet normal 0.000000 0.000000 -1.000000
outer loop
vertex 0.002543 0.001345 0.000000
vertex 0.002449 0.001448 0.000000
vertex 0.002353 0.001553 0.000000
endloop
endfacet
facet normal 0.000000 0.000000 -1.000000
outer loop
vertex 0.002255 0.001660 0.000000
vertex 0.002153 0.001771 0.000000
vertex 0.001808 0.002146 0.000000
endloop
endfacet
facet normal 0.000000 0.000000 -1.000000
outer loop
vertex 0.002733 0.001139 0.000000
vertex 0.002543 0.001345 0.000000
vertex 0.002353 0.001553 0.000000
endloop
endfacet
facet normal 0.000000 0.000000 -1.000000
outer loop
vertex 0.002255 0.001660 0.000000
vertex 0.001808 0.002146 0.000000
vertex 0.001022 0.003221 0.000000
endloop
endfacet
facet normal 0.000000 0.000000 -1.000000
outer loop
vertex 0.002733 0.001139 0.000000
vertex 0.002353 0.001553 0.000000
vertex 0.002255 0.001660 0.000000
endloop
endfacet
facet normal 0.000000 0.000000 -1.000000
outer loop
vertex 0.003152 0.000704 0.000000
vertex 0.002932 0.000928 0.000000
vertex 0.002733 0.001139 0.000000
endloop
endfacet
facet normal 0.000000 0.000000 -1.000000
outer loop
vertex 0.005585 0.000154 0.000000
vertex 0.003662 0.000221 0.000000
vertex 0.003152 0.000704 0.000000
endloop
endfacet
facet normal 0.000000 0.000000 -1.000000
outer loop
vertex 0.008564 0.005701 0.000000
vertex 0.008752 0.002637 0.000000
vertex 0.005585 0.000154 0.000000
endloop
endfacet
facet normal 0.000000 0.000000 -1.000000
outer loop
vertex 0.001725 0.007442 0.000000
vertex 0.005793 0.007743 0.000000
vertex 0.008564 0.005701 0.000000
endloop
endfacet
facet normal 0.000000 0.000000 -1.000000
outer loop
vertex 0.002255 0.001660 0.000000
vertex 0.001022 0.003221 0.000000
vertex 0.000429 0.004243 0.000000
endloop
endfacet
facet normal 0.000000 0.000000 -1.000000
outer loop
vertex 0.003152 0.000704 0.000000
vertex 0.002733 0.001139 0.000000
vertex 0.002255 0.001660 0.000000
endloop
endfacet
facet normal 0.000000 0.000000 -1.000000
outer loop
vertex 0.008564 0.005701 0.000000
vertex 0.005585 0.000154 0.000000
vertex 0.003152 0.000704 0.000000
endloop
endfacet
facet normal 0.000000 0.000000 -1.000000
outer loop
vertex 0.000227 0.004704 0.000000
vertex 0.001725 0.007442 0.000000
vertex 0.008564 0.005701 0.000000
endloop
endfacet
facet normal 0.000000 0.000000 -1.000000
outer loop
vertex 0.000227 0.004704 0.000000
vertex 0.008564 0.005701 0.000000
vertex 0.003152 0.000704 0.000000
endloop
endfacet
facet normal 0.000000 0.000000 -1.000000
outer loop
vertex 0.003152 0.000704 0.000000
vertex 0.002255 0.001660 0.000000
vertex 0.000429 0.004243 0.000000
endloop
endfacet
facet normal 0.000000 0.000000 -1.000000
outer loop
vertex 0.000227 0.004704 0.000000
vertex 0.003152 0.000704 0.000000
vertex 0.000429 0.004243 0.000000
endloop
endfacet
facet normal 0.000000 0.000000 0.000000
outer loop
vertex 0.000429 0.004243 0.000000
vertex 0.000227 0.004704 0.000000
vertex 0.000227 0.004704 0.000000
endloop
endfacet
facet normal 0.000000 0.000000 -1.000000
outer loop
vertex 0.000227 0.004704 0.000000
vertex 0.000429 0.004243 0.000000
vertex 0.000227 0.004704 0.000000
endloop
endfacet
facet normal -0.223262 -0.974758 0.000000
outer loop
vertex 0.004000 0.000052 0.150000
vertex 0.004000 0.000052 0.000000
vertex 0.004136 0.000021 0.000000
endloop
endfacet
facet normal -0.223263 -0.974758 0.000000
outer loop
vertex 0.004000 0.000052 0.150000
vertex 0.004136 0.000021 0.000000
vertex 0.004136 0.000021 0.150000
endloop
endfacet
facet normal 0.966986 -0.254830 0.000000
outer loop
vertex 0.009119 0.003250 0.150000
vertex 0.009119 0.003250 0.000000
vertex 0.009153 0.003380 0.000000
endloop
endfacet
facet normal 0.966986 -0.254830 0.000000
outer loop
vertex 0.009119 0.003250 0.150000
vertex 0.009153 0.003380 0.000000
vertex 0.009153 0.003380 0.150000
endloop
endfacet
facet normal 0.922876 -0.385096 0.000000
outer loop
vertex 0.009069 0.003130 0.150000
vertex 0.009069 0.003130 0.000000
vertex 0.009119 0.003250 0.000000
endloop
endfacet
facet normal 0.922885 -0.385076 0.000000
outer loop
vertex 0.009069 0.003130 0.150000
vertex 0.009119 0.003250 0.000000
vertex 0.009119 0.003250 0.150000
endloop
endfacet
facet normal 0.676709 0.736251 0.000000
outer loop
vertex 0.008316 0.006038 0.000000
vertex 0.006967 0.007278 0.000000
vertex 0.006967 0.007278 0.150000
endloop
endfacet
facet normal 0.676709 0.736250 0.000000
outer loop
vertex 0.008316 0.006038 0.000000
vertex 0.006967 0.007278 0.150000
vertex 0.008316 0.006038 0.150000
endloop
endfacet
facet normal 0.285834 0.958279 0.000000
outer loop
vertex 0.006361 0.007604 0.150000
vertex 0.006361 0.007604 0.000000
vertex 0.006098 0.007682 0.000000
endloop
endfacet
facet normal 0.285835 0.958279 0.000000
outer loop
vertex 0.006361 0.007604 0.150000
vertex 0.006098 0.007682 0.000000
vertex 0.006098 0.007682 0.150000
endloop
endfacet
facet normal 0.990575 0.136970 0.000000
outer loop
vertex 0.009165 0.003690 0.150000
vertex 0.009165 0.003690 0.000000
vertex 0.009139 0.003880 0.000000
endloop
endfacet
facet normal 0.990576 0.136962 0.000000
outer loop
vertex 0.009165 0.003690 0.150000
vertex 0.009139 0.003880 0.000000
vertex 0.009139 0.003880 0.150000
endloop
endfacet
facet normal -0.760820 0.648963 0.000000
outer loop
vertex 0.000394 0.006593 0.150000
vertex 0.000394 0.006593 0.000000
vertex 0.000333 0.006521 0.000000
endloop
endfacet
facet normal -0.760820 0.648963 0.000000
outer loop
vertex 0.000394 0.006593 0.150000
vertex 0.000333 0.006521 0.000000
vertex 0.000333 0.006521 0.150000
endloop
endfacet
facet normal 0.000000 0.000000 0.000000
outer loop
vertex 0.000227 0.004704 0.150000
vertex 0.000227 0.004704 0.150000
vertex 0.000227 0.004704 0.150000
endloop
endfacet
facet normal -0.432543 0.901613 0.000000
outer loop
vertex 0.001725 0.007442 0.000000
vertex 0.001626 0.007394 0.000000
vertex 0.001626 0.007394 0.150000
endloop
endfacet
facet normal -0.432542 0.901614 0.000000
outer loop
vertex 0.001725 0.007442 0.000000
vertex 0.001626 0.007394 0.150000
vertex 0.001725 0.007442 0.150000
endloop
endfacet
facet normal -0.413512 0.910499 0.000000
outer loop
vertex 0.001831 0.007490 0.000000
vertex 0.001725 0.007442 0.000000
vertex 0.001725 0.007442 0.150000
endloop
endfacet
facet normal -0.413512 0.910499 0.000000
outer loop
vertex 0.001831 0.007490 0.000000
vertex 0.001725 0.007442 0.150000
vertex 0.001831 0.007490 0.150000
endloop
endfacet
facet normal -0.399817 0.916595 0.000000
outer loop
vertex 0.001946 0.007540 0.000000
vertex 0.001831 0.007490 0.000000
vertex 0.001831 0.007490 0.150000
endloop
endfacet
facet normal -0.399817 0.916595 0.000000
outer loop
vertex 0.001946 0.007540 0.000000
vertex 0.001831 0.007490 0.150000
vertex 0.001946 0.007540 0.150000
endloop
endfacet
facet normal -0.346522 0.938042 0.000000
outer loop
vertex 0.002709 0.007852 0.150000
vertex 0.002709 0.007852 0.000000
vertex 0.002531 0.007787 0.000000
endloop
endfacet
facet normal -0.388055 0.921636 0.000000
outer loop
vertex 0.002531 0.007787 0.000000
vertex 0.001946 0.007540 0.000000
vertex 0.001946 0.007540 0.150000
endloop
endfacet
facet normal -0.346522 0.938042 0.000000
outer loop
vertex 0.002531 0.007787 0.150000
vertex 0.002709 0.007852 0.150000
vertex 0.002531 0.007787 0.000000
endloop
endfacet
facet normal -0.388055 0.921636 0.000000
outer loop
vertex 0.001946 0.007540 0.150000
vertex 0.002531 0.007787 0.150000
vertex 0.002531 0.007787 0.000000
endloop
endfacet
facet normal 0.095453 0.995434 0.000000
outer loop
vertex 0.005793 0.007743 0.000000
vertex 0.003682 0.007945 0.000000
vertex 0.003682 0.007945 0.150000
endloop
endfacet
facet normal 0.095453 0.995434 0.000000
outer loop
vertex 0.005793 0.007743 0.000000
vertex 0.003682 0.007945 0.150000
vertex 0.005793 0.007743 0.150000
endloop
endfacet
facet normal 0.832915 0.553400 0.000000
outer loop
vertex 0.008564 0.005701 0.150000
vertex 0.008564 0.005701 0.000000
vertex 0.008451 0.005871 0.000000
endloop
endfacet
facet normal 0.832915 0.553400 0.000000
outer loop
vertex 0.008564 0.005701 0.150000
vertex 0.008451 0.005871 0.000000
vertex 0.008451 0.005871 0.150000
endloop
endfacet
facet normal 0.875710 -0.482837 0.000000
outer loop
vertex 0.009005 0.003015 0.000000
vertex 0.009069 0.003130 0.000000
vertex 0.009069 0.003130 0.150000
endloop
endfacet
facet normal 0.875710 -0.482837 0.000000
outer loop
vertex 0.009005 0.003015 0.000000
vertex 0.009069 0.003130 0.150000
vertex 0.009005 0.003015 0.150000
endloop
endfacet
facet normal 0.840305 -0.542113 0.000000
outer loop
vertex 0.008930 0.002897 0.000000
vertex 0.009005 0.003015 0.000000
vertex 0.009005 0.003015 0.150000
endloop
endfacet
facet normal 0.840305 -0.542113 0.000000
outer loop
vertex 0.008930 0.002897 0.000000
vertex 0.009005 0.003015 0.150000
vertex 0.008930 0.002897 0.150000
endloop
endfacet
facet normal 0.825327 -0.564655 0.000000
outer loop
vertex 0.008752 0.002637 0.000000
vertex 0.008930 0.002897 0.000000
vertex 0.008930 0.002897 0.150000
endloop
endfacet
facet normal 0.825324 -0.564659 0.000000
outer loop
vertex 0.008752 0.002637 0.000000
vertex 0.008930 0.002897 0.150000
vertex 0.008752 0.002637 0.150000
endloop
endfacet
facet normal 0.843011 -0.537896 0.000000
outer loop
vertex 0.008654 0.002484 0.000000
vertex 0.008752 0.002637 0.000000
vertex 0.008752 0.002637 0.150000
endloop
endfacet
facet normal 0.843004 -0.537908 0.000000
outer loop
vertex 0.008654 0.002484 0.000000
vertex 0.008752 0.002637 0.150000
vertex 0.008654 0.002484 0.150000
endloop
endfacet
facet normal 0.802501 -0.596651 0.000000
outer loop
vertex 0.008312 0.001949 0.150000
vertex 0.008312 0.001949 0.000000
vertex 0.008441 0.002123 0.000000
endloop
endfacet
facet normal 0.861364 -0.507989 0.000000
outer loop
vertex 0.008441 0.002123 0.000000
vertex 0.008654 0.002484 0.000000
vertex 0.008654 0.002484 0.150000
endloop
endfacet
facet normal 0.802498 -0.596656 0.000000
outer loop
vertex 0.008441 0.002123 0.150000
vertex 0.008312 0.001949 0.150000
vertex 0.008441 0.002123 0.000000
endloop
endfacet
facet normal 0.861360 -0.507994 0.000000
outer loop
vertex 0.008654 0.002484 0.150000
vertex 0.008441 0.002123 0.150000
vertex 0.008441 0.002123 0.000000
endloop
endfacet
facet normal 0.097816 -0.995205 0.000000
outer loop
vertex 0.005189 0.000072 0.000000
vertex 0.005189 0.000072 0.150000
vertex 0.004465 0.000001 0.150000
endloop
endfacet
facet normal 0.097816 -0.995204 0.000000
outer loop
vertex 0.005189 0.000072 0.000000
vertex 0.004465 0.000001 0.150000
vertex 0.004465 0.000001 0.000000
endloop
endfacet
facet normal -0.952475 0.304618 0.000000
outer loop
vertex 0.000064 0.005939 0.000000
vertex 0.000042 0.005867 0.000000
vertex 0.000042 0.005867 0.150000
endloop
endfacet
facet normal -0.952474 0.304618 0.000000
outer loop
vertex 0.000064 0.005939 0.000000
vertex 0.000042 0.005867 0.150000
vertex 0.000064 0.005939 0.150000
endloop
endfacet
facet normal -0.939250 0.343233 0.000000
outer loop
vertex 0.000091 0.006012 0.000000
vertex 0.000064 0.005939 0.000000
vertex 0.000064 0.005939 0.150000
endloop
endfacet
facet normal -0.939250 0.343233 0.000000
outer loop
vertex 0.000091 0.006012 0.000000
vertex 0.000064 0.005939 0.150000
vertex 0.000091 0.006012 0.150000
endloop
endfacet
facet normal -0.919661 0.392713 0.000000
outer loop
vertex 0.000233 0.006350 0.150000
vertex 0.000233 0.006350 0.000000
vertex 0.000122 0.006089 0.000000
endloop
endfacet
facet normal -0.928949 0.370208 0.000000
outer loop
vertex 0.000122 0.006089 0.000000
vertex 0.000091 0.006012 0.000000
vertex 0.000091 0.006012 0.150000
endloop
endfacet
facet normal -0.919661 0.392713 0.000000
outer loop
vertex 0.000122 0.006089 0.150000
vertex 0.000233 0.006350 0.150000
vertex 0.000122 0.006089 0.000000
endloop
endfacet
facet normal -0.928949 0.370209 0.000000
outer loop
vertex 0.000091 0.006012 0.150000
vertex 0.000122 0.006089 0.150000
vertex 0.000122 0.006089 0.000000
endloop
endfacet
facet normal -0.112334 -0.993671 0.000000
outer loop
vertex 0.004136 0.000021 0.150000
vertex 0.004136 0.000021 0.000000
vertex 0.004290 0.000003 0.000000
endloop
endfacet
facet normal -0.112333 -0.993671 0.000000
outer loop
vertex 0.004136 0.000021 0.150000
vertex 0.004290 0.000003 0.000000
vertex 0.004290 0.000003 0.150000
endloop
endfacet
facet normal -0.977051 -0.213003 0.000000
outer loop
vertex 0.000014 0.005447 0.150000
vertex 0.000014 0.005447 0.000000
vertex 0.000049 0.005287 0.000000
endloop
endfacet
facet normal -0.952312 -0.305127 0.000000
outer loop
vertex 0.000094 0.005120 0.000000
vertex 0.000227 0.004704 0.000000
vertex 0.000227 0.004704 0.150000
endloop
endfacet
facet normal -0.965840 -0.259139 0.000052
outer loop
vertex 0.000014 0.005447 0.150000
vertex 0.000049 0.005287 0.000000
vertex 0.000094 0.005120 0.000000
endloop
endfacet
facet normal -0.977051 -0.213003 -0.000055
outer loop
vertex 0.000049 0.005287 0.150000
vertex 0.000014 0.005447 0.150000
vertex 0.000094 0.005120 0.000000
endloop
endfacet
facet normal -0.952312 -0.305127 0.000000
outer loop
vertex 0.000094 0.005120 0.000000
vertex 0.000227 0.004704 0.150000
vertex 0.000094 0.005120 0.150000
endloop
endfacet
facet normal -0.965840 -0.259139 0.000000
outer loop
vertex 0.000094 0.005120 0.000000
vertex 0.000094 0.005120 0.150000
vertex 0.000049 0.005287 0.150000
endloop
endfacet
facet normal 1.000000 0.000000 0.000000
outer loop
vertex 0.000227 0.004704 0.150000
vertex 0.000227 0.004704 0.000000
vertex 0.000227 0.004704 0.000000
endloop
endfacet
facet normal 1.000000 0.000000 0.000000
outer loop
vertex 0.000227 0.004704 0.150000
vertex 0.000227 0.004704 0.000000
vertex 0.000227 0.004704 0.150000
endloop
endfacet
facet normal 0.195371 0.980729 0.000000
outer loop
vertex 0.006098 0.007682 0.150000
vertex 0.006098 0.007682 0.000000
vertex 0.005793 0.007743 0.000000
endloop
endfacet
facet normal 0.195371 0.980729 0.000000
outer loop
vertex 0.006098 0.007682 0.150000
vertex 0.005793 0.007743 0.000000
vertex 0.005793 0.007743 0.150000
endloop
endfacet
facet normal 0.479104 0.877758 0.000000
outer loop
vertex 0.006789 0.007400 0.150000
vertex 0.006789 0.007400 0.000000
vertex 0.006589 0.007509 0.000000
endloop
endfacet
facet normal 0.479104 0.877758 0.000000
outer loop
vertex 0.006789 0.007400 0.150000
vertex 0.006589 0.007509 0.000000
vertex 0.006589 0.007509 0.150000
endloop
endfacet
facet normal 0.993860 -0.110641 0.000000
outer loop
vertex 0.009153 0.003380 0.150000
vertex 0.009153 0.003380 0.000000
vertex 0.009169 0.003525 0.000000
endloop
endfacet
facet normal 0.993860 -0.110641 0.000000
outer loop
vertex 0.009153 0.003380 0.150000
vertex 0.009169 0.003525 0.000000
vertex 0.009169 0.003525 0.150000
endloop
endfacet
facet normal -0.256204 0.966623 0.000000
outer loop
vertex 0.002888 0.007900 0.150000
vertex 0.002888 0.007900 0.000000
vertex 0.002709 0.007852 0.000000
endloop
endfacet
facet normal -0.256203 0.966623 0.000000
outer loop
vertex 0.002888 0.007900 0.150000
vertex 0.002709 0.007852 0.000000
vertex 0.002709 0.007852 0.150000
endloop
endfacet
facet normal -1.000000 0.000000 0.000000
outer loop
vertex 0.000227 0.004704 0.150000
vertex 0.000227 0.004704 0.150000
vertex 0.000227 0.004704 0.000000
endloop
endfacet
facet normal -1.000000 0.000000 0.000000
outer loop
vertex 0.000227 0.004704 0.000000
vertex 0.000227 0.004704 0.000000
vertex 0.000227 0.004704 0.150000
endloop
endfacet
facet normal -1.000000 0.000000 0.000000
outer loop
vertex 0.000227 0.004704 0.150000
vertex 0.000227 0.004704 0.000000
vertex 0.000227 0.004704 0.000000
endloop
endfacet
facet normal -1.000000 0.000000 0.000000
outer loop
vertex 0.000227 0.004704 0.000000
vertex 0.000227 0.004704 0.150000
vertex 0.000227 0.004704 0.150000
endloop
endfacet
facet normal -1.000000 0.000000 0.000000
outer loop
vertex 0.000227 0.004704 0.150000
vertex 0.000227 0.004704 0.000000
vertex 0.000227 0.004704 0.150000
endloop
endfacet
facet normal 0.749733 -0.661741 0.000000
outer loop
vertex 0.008167 0.001785 0.150000
vertex 0.008167 0.001785 0.000000
vertex 0.008312 0.001949 0.000000
endloop
endfacet
facet normal 0.749736 -0.661737 0.000000
outer loop
vertex 0.008167 0.001785 0.150000
vertex 0.008312 0.001949 0.000000
vertex 0.008312 0.001949 0.150000
endloop
endfacet
facet normal 0.519462 -0.854494 0.000000
outer loop
vertex 0.006121 0.000387 0.000000
vertex 0.007468 0.001206 0.000000
vertex 0.007468 0.001206 0.150000
endloop
endfacet
facet normal 0.519462 -0.854494 0.000000
outer loop
vertex 0.006121 0.000387 0.000000
vertex 0.007468 0.001206 0.150000
vertex 0.006121 0.000387 0.150000
endloop
endfacet
facet normal -0.126776 0.991931 0.000000
outer loop
vertex 0.003264 0.007948 0.150000
vertex 0.003264 0.007948 0.000000
vertex 0.002888 0.007900 0.000000
endloop
endfacet
facet normal -0.126776 0.991931 0.000000
outer loop
vertex 0.003264 0.007948 0.150000
vertex 0.002888 0.007900 0.000000
vertex 0.002888 0.007900 0.150000
endloop
endfacet
facet normal 0.999694 0.024729 0.000000
outer loop
vertex 0.009169 0.003525 0.150000
vertex 0.009169 0.003525 0.000000
vertex 0.009165 0.003690 0.000000
endloop
endfacet
facet normal 0.999694 0.024739 0.000000
outer loop
vertex 0.009169 0.003525 0.150000
vertex 0.009165 0.003690 0.000000
vertex 0.009165 0.003690 0.150000
endloop
endfacet
facet normal -0.915967 -0.401254 0.000000
outer loop
vertex 0.000227 0.004704 0.150000
vertex 0.000227 0.004704 0.000000
vertex 0.000429 0.004243 0.000000
endloop
endfacet
facet normal -0.915967 -0.401254 0.000000
outer loop
vertex 0.000227 0.004704 0.150000
vertex 0.000429 0.004243 0.000000
vertex 0.000429 0.004243 0.150000
endloop
endfacet
facet normal -0.015366 -0.999882 0.000000
outer loop
vertex 0.004290 0.000003 0.150000
vertex 0.004290 0.000003 0.000000
vertex 0.004465 0.000001 0.000000
endloop
endfacet
facet normal -0.015366 -0.999882 0.000000
outer loop
vertex 0.004290 0.000003 0.150000
vertex 0.004465 0.000001 0.000000
vertex 0.004465 0.000001 0.150000
endloop
endfacet
facet normal -0.000058 0.000000 1.000000
outer loop
vertex 0.004465 0.000001 0.150000
vertex 0.005189 0.000072 0.150000
vertex 0.005585 0.000154 0.150000
endloop
endfacet
facet normal -0.000407 0.000000 1.000000
outer loop
vertex 0.005585 0.000154 0.150000
vertex 0.005837 0.000247 0.150000
vertex 0.006121 0.000387 0.150000
endloop
endfacet
facet normal 0.000000 0.000000 1.000000
outer loop
vertex 0.006121 0.000387 0.150000
vertex 0.007468 0.001206 0.150000
vertex 0.007837 0.001482 0.150000
endloop
endfacet
facet normal 0.000000 0.000000 1.000000
outer loop
vertex 0.007837 0.001482 0.150000
vertex 0.008167 0.001785 0.150000
vertex 0.008312 0.001949 0.150000
endloop
endfacet
facet normal 0.000000 0.000000 1.000000
outer loop
vertex 0.008312 0.001949 0.150000
vertex 0.008441 0.002123 0.150000
vertex 0.008654 0.002484 0.150000
endloop
endfacet
facet normal 0.003058 0.000000 0.999995
outer loop
vertex 0.008752 0.002637 0.150000
vertex 0.008930 0.002897 0.150000
vertex 0.009005 0.003015 0.150000
endloop
endfacet
facet normal 0.000000 0.000000 1.000000
outer loop
vertex 0.008312 0.001949 0.150000
vertex 0.008654 0.002484 0.150000
vertex 0.008752 0.002637 0.150000
endloop
endfacet
facet normal 0.000000 0.000000 1.000000
outer loop
vertex 0.006121 0.000387 0.150000
vertex 0.007837 0.001482 0.150000
vertex 0.008312 0.001949 0.150000
endloop
endfacet
facet normal -0.000041 0.000000 1.000000
outer loop
vertex 0.004465 0.000001 0.150000
vertex 0.005585 0.000154 0.150000
vertex 0.006121 0.000387 0.150000
endloop
endfacet
facet normal 0.000000 0.000000 1.000000
outer loop
vertex 0.004136 0.000021 0.150000
vertex 0.004290 0.000003 0.150000
vertex 0.004465 0.000001 0.150000
endloop
endfacet
facet normal 0.000816 0.000000 1.000000
outer loop
vertex 0.003877 0.000097 0.150000
vertex 0.004000 0.000052 0.150000
vertex 0.004136 0.000021 0.150000
endloop
endfacet
facet normal -0.001058 0.000000 0.999999
outer loop
vertex 0.003662 0.000221 0.150000
vertex 0.003766 0.000153 0.150000
vertex 0.003877 0.000097 0.150000
endloop
endfacet
facet normal -0.001401 0.000000 0.999999
outer loop
vertex 0.003367 0.000486 0.150000
vertex 0.003466 0.000388 0.150000
vertex 0.003662 0.000221 0.150000
endloop
endfacet
facet normal 0.000000 0.000000 1.000000
outer loop
vertex 0.003263 0.000591 0.150000
vertex 0.003367 0.000486 0.150000
vertex 0.003662 0.000221 0.150000
endloop
endfacet
facet normal 0.000000 0.000000 1.000000
outer loop
vertex 0.003662 0.000221 0.150000
vertex 0.003877 0.000097 0.150000
vertex 0.004136 0.000021 0.150000
endloop
endfacet
facet normal 0.000000 0.000000 1.000000
outer loop
vertex 0.004136 0.000021 0.150000
vertex 0.004465 0.000001 0.150000
vertex 0.006121 0.000387 0.150000
endloop
endfacet
facet normal -0.000018 0.000000 1.000000
outer loop
vertex 0.006121 0.000387 0.150000
vertex 0.008312 0.001949 0.150000
vertex 0.008752 0.002637 0.150000
endloop
endfacet
facet normal 0.000000 0.000000 1.000000
outer loop
vertex 0.008752 0.002637 0.150000
vertex 0.009005 0.003015 0.150000
vertex 0.009069 0.003130 0.150000
endloop
endfacet
facet normal -0.001521 0.000000 0.999999
outer loop
vertex 0.009069 0.003130 0.150000
vertex 0.009119 0.003250 0.150000
vertex 0.009153 0.003380 0.150000
endloop
endfacet
facet normal 0.001121 0.000000 0.999999
outer loop
vertex 0.009153 0.003380 0.150000
vertex 0.009169 0.003525 0.150000
vertex 0.009165 0.003690 0.150000
endloop
endfacet
facet normal 0.000000 0.000000 1.000000
outer loop
vertex 0.009165 0.003690 0.150000
vertex 0.009139 0.003880 0.150000
vertex 0.008973 0.004557 0.150000
endloop
endfacet
facet normal 0.000000 0.000000 1.000000
outer loop
vertex 0.000429 0.004243 0.150000
vertex 0.000704 0.003736 0.150000
vertex 0.001022 0.003221 0.150000
endloop
endfacet
facet normal 0.000000 0.000000 1.000000
outer loop
vertex 0.001022 0.003221 0.150000
vertex 0.001353 0.002735 0.150000
vertex 0.001514 0.002516 0.150000
endloop
endfacet
facet normal 0.000000 0.000000 1.000000
outer loop
vertex 0.001514 0.002516 0.150000
vertex 0.001667 0.002318 0.150000
vertex 0.001808 0.002146 0.150000
endloop
endfacet
facet normal 0.000000 0.000000 1.000000
outer loop
vertex 0.001808 0.002146 0.150000
vertex 0.001934 0.002006 0.150000
vertex 0.002047 0.001886 0.150000
endloop
endfacet
facet normal 0.000000 0.000000 1.000000
outer loop
vertex 0.001808 0.002146 0.150000
vertex 0.002047 0.001886 0.150000
vertex 0.002153 0.001771 0.150000
endloop
endfacet
facet normal 0.000000 0.000000 1.000000
outer loop
vertex 0.001022 0.003221 0.150000
vertex 0.001514 0.002516 0.150000
vertex 0.001808 0.002146 0.150000
endloop
endfacet
facet normal 0.000000 0.000000 1.000000
outer loop
vertex 0.009165 0.003690 0.150000
vertex 0.008973 0.004557 0.150000
vertex 0.000227 0.004704 0.150000
endloop
endfacet
facet normal 0.000000 0.000000 1.000000
outer loop
vertex 0.009069 0.003130 0.150000
vertex 0.009153 0.003380 0.150000
vertex 0.009165 0.003690 0.150000
endloop
endfacet
facet normal 0.000025 0.000000 1.000000
outer loop
vertex 0.006121 0.000387 0.150000
vertex 0.008752 0.002637 0.150000
vertex 0.009069 0.003130 0.150000
endloop
endfacet
facet normal 0.000000 0.000000 1.000000
outer loop
vertex 0.003662 0.000221 0.150000
vertex 0.004136 0.000021 0.150000
vertex 0.006121 0.000387 0.150000
endloop
endfacet
facet normal 0.001916 0.000000 0.999998
outer loop
vertex 0.003152 0.000704 0.150000
vertex 0.003263 0.000591 0.150000
vertex 0.003662 0.000221 0.150000
endloop
endfacet
facet normal 0.000000 0.000000 1.000000
outer loop
vertex 0.002932 0.000928 0.150000
vertex 0.003039 0.000818 0.150000
vertex 0.003152 0.000704 0.150000
endloop
endfacet
facet normal 0.000000 0.000000 1.000000
outer loop
vertex 0.002733 0.001139 0.150000
vertex 0.002831 0.001035 0.150000
vertex 0.002932 0.000928 0.150000
endloop
endfacet
facet normal 0.000000 0.000000 1.000000
outer loop
vertex 0.002543 0.001345 0.150000
vertex 0.002637 0.001242 0.150000
vertex 0.002733 0.001139 0.150000
endloop
endfacet
facet normal -0.239889 0.000000 0.970800
outer loop
vertex 0.002353 0.001553 0.150000
vertex 0.002449 0.001448 0.150000
vertex 0.002543 0.001345 0.150000
endloop
endfacet
facet normal -0.176339 0.000000 0.984329
outer loop
vertex 0.001808 0.002146 0.150000
vertex 0.002153 0.001771 0.150000
vertex 0.002255 0.001660 0.150000
endloop
endfacet
facet normal 0.016789 0.000000 0.999859
outer loop
vertex 0.002353 0.001553 0.150000
vertex 0.002543 0.001345 0.150000
vertex 0.002733 0.001139 0.150000
endloop
endfacet
facet normal 0.000000 0.000000 1.000000
outer loop
vertex 0.001022 0.003221 0.150000
vertex 0.001808 0.002146 0.150000
vertex 0.002255 0.001660 0.150000
endloop
endfacet
facet normal 0.000000 0.000000 1.000000
outer loop
vertex 0.002255 0.001660 0.150000
vertex 0.002353 0.001553 0.150000
vertex 0.002733 0.001139 0.150000
endloop
endfacet
facet normal -0.004474 0.000000 0.999990
outer loop
vertex 0.002733 0.001139 0.150000
vertex 0.002932 0.000928 0.150000
vertex 0.003152 0.000704 0.150000
endloop
endfacet
facet normal -0.000003 0.000000 1.000000
outer loop
vertex 0.003152 0.000704 0.150000
vertex 0.003662 0.000221 0.150000
vertex 0.006121 0.000387 0.150000
endloop
endfacet
facet normal -0.000032 0.000000 1.000000
outer loop
vertex 0.006121 0.000387 0.150000
vertex 0.009069 0.003130 0.150000
vertex 0.009165 0.003690 0.150000
endloop
endfacet
facet normal 0.000087 0.000000 1.000000
outer loop
vertex 0.000429 0.004243 0.150000
vertex 0.001022 0.003221 0.150000
vertex 0.002255 0.001660 0.150000
endloop
endfacet
facet normal 0.000000 0.000000 1.000000
outer loop
vertex 0.002255 0.001660 0.150000
vertex 0.002733 0.001139 0.150000
vertex 0.003152 0.000704 0.150000
endloop
endfacet
facet normal 0.000011 0.000000 1.000000
outer loop
vertex 0.003152 0.000704 0.150000
vertex 0.006121 0.000387 0.150000
vertex 0.009165 0.003690 0.150000
endloop
endfacet
facet normal 0.000051 0.000000 1.000000
outer loop
vertex 0.000429 0.004243 0.150000
vertex 0.002255 0.001660 0.150000
vertex 0.003152 0.000704 0.150000
endloop
endfacet
facet normal -0.000002 0.000000 1.000000
outer loop
vertex 0.003152 0.000704 0.150000
vertex 0.009165 0.003690 0.150000
vertex 0.000227 0.004704 0.150000
endloop
endfacet
facet normal 0.000000 0.000000 1.000000
outer loop
vertex 0.000429 0.004243 0.150000
vertex 0.003152 0.000704 0.150000
vertex 0.000227 0.004704 0.150000
endloop
endfacet
facet normal 0.000000 0.000000 0.000000
outer loop
vertex 0.000227 0.004704 0.150000
vertex 0.000227 0.004704 0.150000
vertex 0.000227 0.004704 0.150000
endloop
endfacet
facet normal 0.000000 0.000000 1.000000
outer loop
vertex 0.000227 0.004704 0.150000
vertex 0.000227 0.004704 0.150000
vertex 0.000429 0.004243 0.150000
endloop
endfacet
facet normal -0.548840 -0.835927 0.000000
outer loop
vertex 0.003662 0.000221 0.150000
vertex 0.003662 0.000221 0.000000
vertex 0.003766 0.000153 0.000000
endloop
endfacet
facet normal -0.548843 -0.835925 0.000000
outer loop
vertex 0.003662 0.000221 0.150000
vertex 0.003766 0.000153 0.000000
vertex 0.003766 0.000153 0.150000
endloop
endfacet
facet normal 0.564286 0.825579 0.000000
outer loop
vertex 0.006967 0.007278 0.150000
vertex 0.006967 0.007278 0.000000
vertex 0.006789 0.007400 0.000000
endloop
endfacet
facet normal 0.564290 0.825577 0.000000
outer loop
vertex 0.006967 0.007278 0.150000
vertex 0.006789 0.007400 0.000000
vertex 0.006789 0.007400 0.150000
endloop
endfacet
facet normal 0.598582 -0.801062 0.000000
outer loop
vertex 0.007837 0.001482 0.000000
vertex 0.007837 0.001482 0.150000
vertex 0.007468 0.001206 0.150000
endloop
endfacet
facet normal 0.598580 -0.801063 0.000000
outer loop
vertex 0.007837 0.001482 0.000000
vertex 0.007468 0.001206 0.150000
vertex 0.007468 0.001206 0.000000
endloop
endfacet
facet normal 0.896945 0.442142 0.000000
outer loop
vertex 0.008738 0.005347 0.150000
vertex 0.008738 0.005347 0.000000
vertex 0.008564 0.005701 0.000000
endloop
endfacet
facet normal 0.896947 0.442139 0.000000
outer loop
vertex 0.008738 0.005347 0.150000
vertex 0.008564 0.005701 0.000000
vertex 0.008564 0.005701 0.150000
endloop
endfacet
facet normal -0.893053 0.449952 0.000000
outer loop
vertex 0.000279 0.006440 0.150000
vertex 0.000279 0.006440 0.000000
vertex 0.000233 0.006350 0.000000
endloop
endfacet
facet normal -0.893053 0.449952 0.000000
outer loop
vertex 0.000279 0.006440 0.150000
vertex 0.000233 0.006350 0.000000
vertex 0.000233 0.006350 0.150000
endloop
endfacet
facet normal 0.000000 0.000000 1.000000
outer loop
vertex 0.002353 0.001553 0.000000
vertex 0.002449 0.001448 0.000000
vertex 0.002543 0.001345 0.000000
endloop
endfacet
facet normal 0.000000 0.000000 1.000000
outer loop
vertex 0.002543 0.001345 0.000000
vertex 0.002637 0.001242 0.000000
vertex 0.002733 0.001139 0.000000
endloop
endfacet
facet normal 0.000000 0.000000 1.000000
outer loop
vertex 0.002733 0.001139 0.000000
vertex 0.002831 0.001035 0.000000
vertex 0.002932 0.000928 0.000000
endloop
endfacet
facet normal 0.000000 0.000000 1.000000
outer loop
vertex 0.002932 0.000928 0.000000
vertex 0.003039 0.000818 0.000000
vertex 0.003152 0.000704 0.000000
endloop
endfacet
facet normal 0.000000 0.000000 1.000000
outer loop
vertex 0.003263 0.000591 0.000000
vertex 0.003367 0.000486 0.000000
vertex 0.003466 0.000388 0.000000
endloop
endfacet
facet normal 0.000000 0.000000 1.000000
outer loop
vertex 0.002932 0.000928 0.000000
vertex 0.003152 0.000704 0.000000
vertex 0.003263 0.000591 0.000000
endloop
endfacet
facet normal 0.000000 0.000000 1.000000
outer loop
vertex 0.002543 0.001345 0.000000
vertex 0.002733 0.001139 0.000000
vertex 0.002932 0.000928 0.000000
endloop
endfacet
facet normal 0.000000 0.000000 1.000000
outer loop
vertex 0.002353 0.001553 0.000000
vertex 0.002543 0.001345 0.000000
vertex 0.002932 0.000928 0.000000
endloop
endfacet
facet normal 0.000000 0.000000 1.000000
outer loop
vertex 0.002932 0.000928 0.000000
vertex 0.003263 0.000591 0.000000
vertex 0.003466 0.000388 0.000000
endloop
endfacet
facet normal -0.701840 -0.712335 0.000000
outer loop
vertex 0.003466 0.000388 0.000000
vertex 0.003466 0.000388 0.150000
vertex 0.003367 0.000486 0.150000
endloop
endfacet
facet normal -0.713888 -0.700260 -0.000016
outer loop
vertex 0.003466 0.000388 0.000000
vertex 0.003367 0.000486 0.150000
vertex 0.003263 0.000591 0.150000
endloop
endfacet
facet normal 0.000000 0.000000 1.000000
outer loop
vertex 0.002353 0.001553 0.000000
vertex 0.002932 0.000928 0.000000
vertex 0.003466 0.000388 0.000000
endloop
endfacet
facet normal 0.000000 0.000000 1.000000
outer loop
vertex 0.002255 0.001660 0.000000
vertex 0.002353 0.001553 0.000000
vertex 0.003466 0.000388 0.000000
endloop
endfacet
facet normal -0.711930 -0.702251 -0.000010
outer loop
vertex 0.003466 0.000388 0.000000
vertex 0.003263 0.000591 0.150000
vertex 0.003152 0.000704 0.150000
endloop
endfacet
facet normal -0.710526 -0.703671 -0.000005
outer loop
vertex 0.003466 0.000388 0.000000
vertex 0.003152 0.000704 0.150000
vertex 0.003039 0.000818 0.150000
endloop
endfacet
facet normal 0.000000 0.000000 1.000000
outer loop
vertex 0.002153 0.001771 0.000000
vertex 0.002255 0.001660 0.000000
vertex 0.003466 0.000388 0.000000
endloop
endfacet
facet normal 0.000000 0.000000 1.000000
outer loop
vertex 0.001808 0.002146 0.000000
vertex 0.001934 0.002006 0.000000
vertex 0.002047 0.001886 0.000000
endloop
endfacet
facet normal 0.000000 0.000000 1.000000
outer loop
vertex 0.002047 0.001886 0.000000
vertex 0.002153 0.001771 0.000000
vertex 0.003466 0.000388 0.000000
endloop
endfacet
facet normal -0.717326 -0.696738 -0.000044
outer loop
vertex 0.003466 0.000388 0.000000
vertex 0.003039 0.000818 0.150000
vertex 0.002932 0.000928 0.150000
endloop
endfacet
facet normal -0.723565 -0.690257 -0.000089
outer loop
vertex 0.003466 0.000388 0.000000
vertex 0.002932 0.000928 0.150000
vertex 0.002831 0.001035 0.150000
endloop
endfacet
facet normal 0.000000 0.000000 1.000000
outer loop
vertex 0.001808 0.002146 0.000000
vertex 0.002047 0.001886 0.000000
vertex 0.003466 0.000388 0.000000
endloop
endfacet
facet normal -0.745637 -0.666352 0.000000
outer loop
vertex 0.001934 0.002006 0.150000
vertex 0.001808 0.002146 0.150000
vertex 0.001808 0.002146 0.000000
endloop
endfacet
facet normal -0.729114 -0.684392 -0.000031
outer loop
vertex 0.002047 0.001886 0.150000
vertex 0.001934 0.002006 0.150000
vertex 0.001808 0.002146 0.000000
endloop
endfacet
facet normal -0.727592 -0.686010 -0.000125
outer loop
vertex 0.001808 0.002146 0.000000
vertex 0.003466 0.000388 0.000000
vertex 0.002831 0.001035 0.150000
endloop
endfacet
facet normal -0.728995 -0.684519 -0.000104
outer loop
vertex 0.001808 0.002146 0.000000
vertex 0.002831 0.001035 0.150000
vertex 0.002733 0.001139 0.150000
endloop
endfacet
facet normal -0.733033 -0.680193 -0.000017
outer loop
vertex 0.002153 0.001771 0.150000
vertex 0.002047 0.001886 0.150000
vertex 0.001808 0.002146 0.000000
endloop
endfacet
facet normal -0.736101 -0.676872 -0.000002
outer loop
vertex 0.002255 0.001660 0.150000
vertex 0.002153 0.001771 0.150000
vertex 0.001808 0.002146 0.000000
endloop
endfacet
facet normal -0.733392 -0.679806 -0.000045
outer loop
vertex 0.001808 0.002146 0.000000
vertex 0.002733 0.001139 0.150000
vertex 0.002637 0.001242 0.150000
endloop
endfacet
facet normal -0.736580 -0.676351 -0.000007
outer loop
vertex 0.001808 0.002146 0.000000
vertex 0.002637 0.001242 0.150000
vertex 0.002543 0.001345 0.150000
endloop
endfacet
facet normal -0.738129 -0.674660 0.000011
outer loop
vertex 0.002353 0.001553 0.150000
vertex 0.002255 0.001660 0.150000
vertex 0.001808 0.002146 0.000000
endloop
endfacet
facet normal -0.738443 -0.674316 0.000013
outer loop
vertex 0.001808 0.002146 0.000000
vertex 0.002543 0.001345 0.150000
vertex 0.002449 0.001448 0.150000
endloop
endfacet
facet normal -0.738943 -0.673768 0.000018
outer loop
vertex 0.002449 0.001448 0.150000
vertex 0.002353 0.001553 0.150000
vertex 0.001808 0.002146 0.000000
endloop
endfacet
facet normal -0.997312 0.073280 0.000000
outer loop
vertex 0.000010 0.005730 0.150000
vertex 0.000010 0.005730 0.000000
vertex 0.000000 0.005592 0.000000
endloop
endfacet
facet normal -0.997312 0.073280 0.000000
outer loop
vertex 0.000010 0.005730 0.150000
vertex 0.000000 0.005592 0.000000
vertex 0.000000 0.005592 0.150000
endloop
endfacet
facet normal 0.203446 -0.979086 0.000000
outer loop
vertex 0.005189 0.000072 0.000000
vertex 0.005585 0.000154 0.000000
vertex 0.005585 0.000154 0.150000
endloop
endfacet
facet normal 0.203446 -0.979086 0.000000
outer loop
vertex 0.005189 0.000072 0.000000
vertex 0.005585 0.000154 0.150000
vertex 0.005189 0.000072 0.150000
endloop
endfacet
facet normal 0.345122 -0.938558 0.000000
outer loop
vertex 0.005585 0.000154 0.150000
vertex 0.005585 0.000154 0.000000
vertex 0.005837 0.000247 0.000000
endloop
endfacet
facet normal 0.345122 -0.938558 0.000000
outer loop
vertex 0.005585 0.000154 0.150000
vertex 0.005837 0.000247 0.000000
vertex 0.005837 0.000247 0.150000
endloop
endfacet
facet normal -0.648312 -0.761375 0.000000
outer loop
vertex 0.003662 0.000221 0.000000
vertex 0.003662 0.000221 0.150000
vertex 0.003466 0.000388 0.150000
endloop
endfacet
facet normal -0.648312 -0.761375 0.000000
outer loop
vertex 0.003662 0.000221 0.000000
vertex 0.003466 0.000388 0.150000
vertex 0.003466 0.000388 0.000000
endloop
endfacet
facet normal 0.677404 -0.735611 0.000000
outer loop
vertex 0.008167 0.001785 0.000000
vertex 0.008167 0.001785 0.150000
vertex 0.007837 0.001482 0.150000
endloop
endfacet
facet normal 0.677404 -0.735611 0.000000
outer loop
vertex 0.008167 0.001785 0.000000
vertex 0.007837 0.001482 0.150000
vertex 0.007837 0.001482 0.000000
endloop
endfacet
facet normal -0.826103 -0.563519 0.000000
outer loop
vertex 0.001022 0.003221 0.000000
vertex 0.001353 0.002735 0.000000
vertex 0.001353 0.002735 0.150000
endloop
endfacet
facet normal -0.826104 -0.563518 0.000000
outer loop
vertex 0.001022 0.003221 0.000000
vertex 0.001353 0.002735 0.150000
vertex 0.001022 0.003221 0.150000
endloop
endfacet
facet normal -0.878944 -0.476926 0.000000
outer loop
vertex 0.000429 0.004243 0.150000
vertex 0.000429 0.004243 0.000000
vertex 0.000704 0.003736 0.000000
endloop
endfacet
facet normal -0.850812 -0.525470 0.000000
outer loop
vertex 0.000704 0.003736 0.000000
vertex 0.001022 0.003221 0.000000
vertex 0.001022 0.003221 0.150000
endloop
endfacet
facet normal -0.878943 -0.476926 0.000000
outer loop
vertex 0.000704 0.003736 0.150000
vertex 0.000429 0.004243 0.150000
vertex 0.000704 0.003736 0.000000
endloop
endfacet
facet normal -0.850812 -0.525470 0.000000
outer loop
vertex 0.000704 0.003736 0.000000
vertex 0.001022 0.003221 0.150000
vertex 0.000704 0.003736 0.150000
endloop
endfacet
facet normal -0.995232 -0.097541 0.000000
outer loop
vertex 0.000000 0.005592 0.150000
vertex 0.000000 0.005592 0.000000
vertex 0.000014 0.005447 0.000000
endloop
endfacet
facet normal -0.995232 -0.097541 0.000000
outer loop
vertex 0.000000 0.005592 0.150000
vertex 0.000014 0.005447 0.000000
vertex 0.000014 0.005447 0.150000
endloop
endfacet
facet normal 0.964668 0.263468 0.000000
outer loop
vertex 0.009139 0.003880 0.150000
vertex 0.009139 0.003880 0.000000
vertex 0.008738 0.005347 0.000000
endloop
endfacet
facet normal 0.958507 0.285069 0.000000
outer loop
vertex 0.008738 0.005347 0.000000
vertex 0.008738 0.005347 0.150000
vertex 0.008973 0.004557 0.150000
endloop
endfacet
facet normal 0.971331 0.237733 -0.000269
outer loop
vertex 0.008738 0.005347 0.000000
vertex 0.008973 0.004557 0.150000
vertex 0.009139 0.003880 0.150000
endloop
endfacet
facet normal 0.441987 -0.897021 0.000000
outer loop
vertex 0.006121 0.000387 0.000000
vertex 0.006121 0.000387 0.150000
vertex 0.005837 0.000247 0.150000
endloop
endfacet
facet normal 0.441986 -0.897022 0.000000
outer loop
vertex 0.006121 0.000387 0.000000
vertex 0.005837 0.000247 0.150000
vertex 0.005837 0.000247 0.000000
endloop
endfacet
facet normal 0.778586 0.627539 0.000000
outer loop
vertex 0.008451 0.005871 0.150000
vertex 0.008451 0.005871 0.000000
vertex 0.008316 0.006038 0.000000
endloop
endfacet
facet normal 0.778586 0.627539 0.000000
outer loop
vertex 0.008451 0.005871 0.150000
vertex 0.008316 0.006038 0.000000
vertex 0.008316 0.006038 0.150000
endloop
endfacet
facet normal 0.005800 0.999983 0.000000
outer loop
vertex 0.003682 0.007945 0.000000
vertex 0.003264 0.007948 0.000000
vertex 0.003264 0.007948 0.150000
endloop
endfacet
facet normal 0.005800 0.999983 0.000000
outer loop
vertex 0.003682 0.007945 0.000000
vertex 0.003264 0.007948 0.150000
vertex 0.003682 0.007945 0.150000
endloop
endfacet
facet normal -0.830803 0.556567 0.000000
outer loop
vertex 0.000333 0.006521 0.150000
vertex 0.000333 0.006521 0.000000
vertex 0.000279 0.006440 0.000000
endloop
endfacet
facet normal -0.830803 0.556567 0.000000
outer loop
vertex 0.000333 0.006521 0.150000
vertex 0.000279 0.006440 0.000000
vertex 0.000279 0.006440 0.150000
endloop
endfacet
facet normal 0.000000 0.000000 1.000000
outer loop
vertex 0.006098 0.007682 0.150000
vertex 0.005793 0.007743 0.150000
vertex 0.003682 0.007945 0.150000
endloop
endfacet
facet normal 0.000000 0.000000 1.000000
outer loop
vertex 0.003682 0.007945 0.150000
vertex 0.003264 0.007948 0.150000
vertex 0.002888 0.007900 0.150000
endloop
endfacet
facet normal -0.001093 0.000000 0.999999
outer loop
vertex 0.002888 0.007900 0.150000
vertex 0.002709 0.007852 0.150000
vertex 0.002531 0.007787 0.150000
endloop
endfacet
facet normal 0.001788 0.000000 0.999998
outer loop
vertex 0.002531 0.007787 0.150000
vertex 0.001946 0.007540 0.150000
vertex 0.001831 0.007490 0.150000
endloop
endfacet
facet normal -0.003388 0.000000 0.999994
outer loop
vertex 0.001831 0.007490 0.150000
vertex 0.001725 0.007442 0.150000
vertex 0.001626 0.007394 0.150000
endloop
endfacet
facet normal 0.002642 0.000000 0.999996
outer loop
vertex 0.001626 0.007394 0.150000
vertex 0.001532 0.007346 0.150000
vertex 0.001441 0.007296 0.150000
endloop
endfacet
facet normal 0.004696 0.000000 0.999989
outer loop
vertex 0.001441 0.007296 0.150000
vertex 0.001351 0.007242 0.150000
vertex 0.001260 0.007183 0.150000
endloop
endfacet
facet normal 0.000000 0.000000 1.000000
outer loop
vertex 0.001441 0.007296 0.150000
vertex 0.001260 0.007183 0.150000
vertex 0.001070 0.007053 0.150000
endloop
endfacet
facet normal 0.000000 0.000000 1.000000
outer loop
vertex 0.001831 0.007490 0.150000
vertex 0.001626 0.007394 0.150000
vertex 0.001441 0.007296 0.150000
endloop
endfacet
facet normal 0.000273 0.000000 1.000000
outer loop
vertex 0.002888 0.007900 0.150000
vertex 0.002531 0.007787 0.150000
vertex 0.001831 0.007490 0.150000
endloop
endfacet
facet normal -0.000011 0.000000 1.000000
outer loop
vertex 0.006098 0.007682 0.150000
vertex 0.003682 0.007945 0.150000
vertex 0.002888 0.007900 0.150000
endloop
endfacet
facet normal 0.000260 0.000000 1.000000
outer loop
vertex 0.006589 0.007509 0.150000
vertex 0.006361 0.007604 0.150000
vertex 0.006098 0.007682 0.150000
endloop
endfacet
facet normal -0.000742 0.000000 1.000000
outer loop
vertex 0.006967 0.007278 0.150000
vertex 0.006789 0.007400 0.150000
vertex 0.006589 0.007509 0.150000
endloop
endfacet
facet normal -0.000497 0.000000 1.000000
outer loop
vertex 0.008451 0.005871 0.150000
vertex 0.008316 0.006038 0.150000
vertex 0.006967 0.007278 0.150000
endloop
endfacet
facet normal -0.000352 0.000000 1.000000
outer loop
vertex 0.008738 0.005347 0.150000
vertex 0.008564 0.005701 0.150000
vertex 0.008451 0.005871 0.150000
endloop
endfacet
facet normal 0.000000 0.000000 1.000000
outer loop
vertex 0.000227 0.004704 0.150000
vertex 0.008973 0.004557 0.150000
vertex 0.008738 0.005347 0.150000
endloop
endfacet
facet normal 0.000000 0.000000 1.000000
outer loop
vertex 0.000049 0.005287 0.150000
vertex 0.000094 0.005120 0.150000
vertex 0.000227 0.004704 0.150000
endloop
endfacet
facet normal 0.000000 0.000000 1.000000
outer loop
vertex 0.000000 0.005592 0.150000
vertex 0.000014 0.005447 0.150000
vertex 0.000049 0.005287 0.150000
endloop
endfacet
facet normal 0.000000 0.000000 1.000000
outer loop
vertex 0.000042 0.005867 0.150000
vertex 0.000010 0.005730 0.150000
vertex 0.000000 0.005592 0.150000
endloop
endfacet
facet normal 0.000000 0.000000 1.000000
outer loop
vertex 0.000091 0.006012 0.150000
vertex 0.000064 0.005939 0.150000
vertex 0.000042 0.005867 0.150000
endloop
endfacet
facet normal -0.006355 0.000000 0.999980
outer loop
vertex 0.000233 0.006350 0.150000
vertex 0.000122 0.006089 0.150000
vertex 0.000091 0.006012 0.150000
endloop
endfacet
facet normal -0.001504 0.000000 0.999999
outer loop
vertex 0.000333 0.006521 0.150000
vertex 0.000279 0.006440 0.150000
vertex 0.000233 0.006350 0.150000
endloop
endfacet
facet normal 0.000000 0.000000 1.000000
outer loop
vertex 0.000538 0.006719 0.150000
vertex 0.000394 0.006593 0.150000
vertex 0.000333 0.006521 0.150000
endloop
endfacet
facet normal -0.004139 0.000000 0.999991
outer loop
vertex 0.000702 0.006829 0.150000
vertex 0.000617 0.006775 0.150000
vertex 0.000538 0.006719 0.150000
endloop
endfacet
facet normal 0.001117 0.000000 0.999999
outer loop
vertex 0.000975 0.006993 0.150000
vertex 0.000702 0.006829 0.150000
vertex 0.000538 0.006719 0.150000
endloop
endfacet
facet normal 0.000000 0.000000 1.000000
outer loop
vertex 0.000538 0.006719 0.150000
vertex 0.000333 0.006521 0.150000
vertex 0.000233 0.006350 0.150000
endloop
endfacet
facet normal 0.000000 0.000000 1.000000
outer loop
vertex 0.000233 0.006350 0.150000
vertex 0.000091 0.006012 0.150000
vertex 0.000042 0.005867 0.150000
endloop
endfacet
facet normal 0.000000 0.000000 1.000000
outer loop
vertex 0.000042 0.005867 0.150000
vertex 0.000000 0.005592 0.150000
vertex 0.000049 0.005287 0.150000
endloop
endfacet
facet normal 0.000000 0.000000 1.000000
outer loop
vertex 0.000049 0.005287 0.150000
vertex 0.000227 0.004704 0.150000
vertex 0.008738 0.005347 0.150000
endloop
endfacet
facet normal 0.000000 0.000000 1.000000
outer loop
vertex 0.008738 0.005347 0.150000
vertex 0.008451 0.005871 0.150000
vertex 0.006967 0.007278 0.150000
endloop
endfacet
facet normal 0.000076 0.000000 1.000000
outer loop
vertex 0.006967 0.007278 0.150000
vertex 0.006589 0.007509 0.150000
vertex 0.006098 0.007682 0.150000
endloop
endfacet
facet normal 0.000000 0.000000 1.000000
outer loop
vertex 0.006098 0.007682 0.150000
vertex 0.002888 0.007900 0.150000
vertex 0.001831 0.007490 0.150000
endloop
endfacet
facet normal 0.000000 0.000000 1.000000
outer loop
vertex 0.001831 0.007490 0.150000
vertex 0.001441 0.007296 0.150000
vertex 0.001070 0.007053 0.150000
endloop
endfacet
facet normal -0.000093 0.000000 1.000000
outer loop
vertex 0.000975 0.006993 0.150000
vertex 0.000538 0.006719 0.150000
vertex 0.000233 0.006350 0.150000
endloop
endfacet
facet normal 0.001760 0.000000 0.999999
outer loop
vertex 0.001831 0.007490 0.150000
vertex 0.001070 0.007053 0.150000
vertex 0.000975 0.006993 0.150000
endloop
endfacet
facet normal -0.000002 0.000000 1.000000
outer loop
vertex 0.006967 0.007278 0.150000
vertex 0.006098 0.007682 0.150000
vertex 0.001831 0.007490 0.150000
endloop
endfacet
facet normal 0.000000 0.000000 1.000000
outer loop
vertex 0.000049 0.005287 0.150000
vertex 0.008738 0.005347 0.150000
vertex 0.006967 0.007278 0.150000
endloop
endfacet
facet normal 0.000000 0.000000 1.000000
outer loop
vertex 0.000233 0.006350 0.150000
vertex 0.000042 0.005867 0.150000
vertex 0.000049 0.005287 0.150000
endloop
endfacet
facet normal 0.000080 0.000000 1.000000
outer loop
vertex 0.001831 0.007490 0.150000
vertex 0.000975 0.006993 0.150000
vertex 0.000233 0.006350 0.150000
endloop
endfacet
facet normal 0.000000 0.000000 1.000000
outer loop
vertex 0.000049 0.005287 0.150000
vertex 0.006967 0.007278 0.150000
vertex 0.001831 0.007490 0.150000
endloop
endfacet
facet normal 0.000000 0.000000 1.000000
outer loop
vertex 0.001831 0.007490 0.150000
vertex 0.000233 0.006350 0.150000
vertex 0.000049 0.005287 0.150000
endloop
endfacet
facet normal -0.975026 0.222091 0.000000
outer loop
vertex 0.000042 0.005867 0.000000
vertex 0.000010 0.005730 0.000000
vertex 0.000010 0.005730 0.150000
endloop
endfacet
facet normal -0.975026 0.222091 0.000000
outer loop
vertex 0.000042 0.005867 0.000000
vertex 0.000010 0.005730 0.150000
vertex 0.000042 0.005867 0.150000
endloop
endfacet
endsolid Exported from Blender-3.6.8
