solid Exported from Blender-3.6.8
facet normal -0.881691 -0.471828 0.000000
outer loop
vertex 0.000119 0.001728 0.150000
vertex 0.000119 0.001728 0.000000
vertex 0.000188 0.001599 0.000000
endloop
endfacet
facet normal -0.881691 -0.471828 0.000000
outer loop
vertex 0.000119 0.001728 0.150000
vertex 0.000188 0.001599 0.000000
vertex 0.000188 0.001599 0.150000
endloop
endfacet
facet normal -0.866487 0.499200 0.000000
outer loop
vertex 0.002058 0.007048 0.150000
vertex 0.002103 0.007126 0.150000
vertex 0.002103 0.007126 0.000000
endloop
endfacet
facet normal -0.866489 0.499197 0.000000
outer loop
vertex 0.002058 0.007048 0.150000
vertex 0.002103 0.007126 0.000000
vertex 0.002058 0.007048 0.000000
endloop
endfacet
facet normal -0.854087 0.520131 0.000000
outer loop
vertex 0.002007 0.006964 0.150000
vertex 0.002058 0.007048 0.150000
vertex 0.002058 0.007048 0.000000
endloop
endfacet
facet normal -0.854090 0.520125 0.000000
outer loop
vertex 0.002007 0.006964 0.150000
vertex 0.002058 0.007048 0.000000
vertex 0.002007 0.006964 0.000000
endloop
endfacet
facet normal -0.844331 0.535823 0.000000
outer loop
vertex 0.001950 0.006876 0.150000
vertex 0.002007 0.006964 0.150000
vertex 0.002007 0.006964 0.000000
endloop
endfacet
facet normal -0.844331 0.535823 0.000000
outer loop
vertex 0.001950 0.006876 0.150000
vertex 0.002007 0.006964 0.000000
vertex 0.001950 0.006876 0.000000
endloop
endfacet
facet normal -0.836437 0.548063 0.000000
outer loop
vertex 0.001890 0.006784 0.150000
vertex 0.001950 0.006876 0.150000
vertex 0.001950 0.006876 0.000000
endloop
endfacet
facet normal -0.836439 0.548060 0.000000
outer loop
vertex 0.001890 0.006784 0.150000
vertex 0.001950 0.006876 0.000000
vertex 0.001890 0.006784 0.000000
endloop
endfacet
facet normal -0.827146 0.561988 0.000000
outer loop
vertex 0.001762 0.006595 0.150000
vertex 0.001890 0.006784 0.150000
vertex 0.001890 0.006784 0.000000
endloop
endfacet
facet normal -0.827147 0.561986 0.000000
outer loop
vertex 0.001762 0.006595 0.150000
vertex 0.001890 0.006784 0.000000
vertex 0.001762 0.006595 0.000000
endloop
endfacet
facet normal -0.817591 0.575799 0.000000
outer loop
vertex 0.001631 0.006409 0.150000
vertex 0.001762 0.006595 0.150000
vertex 0.001762 0.006595 0.000000
endloop
endfacet
facet normal -0.817592 0.575798 0.000000
outer loop
vertex 0.001631 0.006409 0.150000
vertex 0.001762 0.006595 0.000000
vertex 0.001631 0.006409 0.000000
endloop
endfacet
facet normal -0.810079 0.586321 0.000000
outer loop
vertex 0.001506 0.006237 0.150000
vertex 0.001631 0.006409 0.150000
vertex 0.001631 0.006409 0.000000
endloop
endfacet
facet normal 0.000000 0.000000 1.000000
outer loop
vertex 0.001506 0.006237 0.000000
vertex 0.001396 0.006088 0.000000
vertex 0.001337 0.005999 0.000000
endloop
endfacet
facet normal -0.810080 0.586320 0.000000
outer loop
vertex 0.001506 0.006237 0.150000
vertex 0.001631 0.006409 0.000000
vertex 0.001506 0.006237 0.000000
endloop
endfacet
facet normal -0.831695 0.555233 0.000000
outer loop
vertex 0.001337 0.005999 0.000000
vertex 0.001337 0.005999 0.150000
vertex 0.001396 0.006088 0.150000
endloop
endfacet
facet normal -0.803561 0.595223 0.000000
outer loop
vertex 0.001396 0.006088 0.150000
vertex 0.001506 0.006237 0.150000
vertex 0.001506 0.006237 0.000000
endloop
endfacet
facet normal -0.814161 0.580640 -0.000022
outer loop
vertex 0.001506 0.006237 0.000000
vertex 0.001337 0.005999 0.000000
vertex 0.001396 0.006088 0.150000
endloop
endfacet
facet normal 0.000000 0.000000 -1.000000
outer loop
vertex 0.003424 0.008380 0.000000
vertex 0.004207 0.007462 0.000000
vertex 0.004390 0.007169 0.000000
endloop
endfacet
facet normal 0.000000 0.000000 -1.000000
outer loop
vertex 0.004390 0.007169 0.000000
vertex 0.004480 0.007006 0.000000
vertex 0.004574 0.006827 0.000000
endloop
endfacet
facet normal 0.000000 0.000000 -1.000000
outer loop
vertex 0.004574 0.006827 0.000000
vertex 0.004671 0.006631 0.000000
vertex 0.004776 0.006416 0.000000
endloop
endfacet
facet normal 0.000000 0.000000 -1.000000
outer loop
vertex 0.004776 0.006416 0.000000
vertex 0.004890 0.006178 0.000000
vertex 0.005016 0.005916 0.000000
endloop
endfacet
facet normal 0.000000 0.000000 -1.000000
outer loop
vertex 0.005016 0.005916 0.000000
vertex 0.005155 0.005627 0.000000
vertex 0.005288 0.005338 0.000000
endloop
endfacet
facet normal 0.000000 0.000000 -1.000000
outer loop
vertex 0.005288 0.005338 0.000000
vertex 0.005478 0.004832 0.000000
vertex 0.005587 0.004397 0.000000
endloop
endfacet
facet normal 0.000000 0.000000 -1.000000
outer loop
vertex 0.005587 0.004397 0.000000
vertex 0.005639 0.004007 0.000000
vertex 0.005651 0.003820 0.000000
endloop
endfacet
facet normal 0.000000 0.000000 -1.000000
outer loop
vertex 0.005651 0.003820 0.000000
vertex 0.005671 0.003038 0.000000
vertex 0.005673 0.002841 0.000000
endloop
endfacet
facet normal 0.000000 0.000000 -1.000000
outer loop
vertex 0.005673 0.002841 0.000000
vertex 0.005659 0.002672 0.000000
vertex 0.005630 0.002524 0.000000
endloop
endfacet
facet normal 0.000000 0.000000 -1.000000
outer loop
vertex 0.005630 0.002524 0.000000
vertex 0.005586 0.002392 0.000000
vertex 0.005526 0.002268 0.000000
endloop
endfacet
facet normal 0.000000 0.000000 -1.000000
outer loop
vertex 0.005526 0.002268 0.000000
vertex 0.005450 0.002147 0.000000
vertex 0.005357 0.002021 0.000000
endloop
endfacet
facet normal 0.000000 0.000000 -1.000000
outer loop
vertex 0.004980 0.001550 0.000000
vertex 0.004464 0.000851 0.000000
vertex 0.004296 0.000658 0.000000
endloop
endfacet
facet normal 0.000000 0.000000 -1.000000
outer loop
vertex 0.005526 0.002268 0.000000
vertex 0.005357 0.002021 0.000000
vertex 0.004980 0.001550 0.000000
endloop
endfacet
facet normal 0.000000 0.000000 -1.000000
outer loop
vertex 0.005673 0.002841 0.000000
vertex 0.005630 0.002524 0.000000
vertex 0.005526 0.002268 0.000000
endloop
endfacet
facet normal 0.000000 0.000000 -1.000000
outer loop
vertex 0.005587 0.004397 0.000000
vertex 0.005651 0.003820 0.000000
vertex 0.005673 0.002841 0.000000
endloop
endfacet
facet normal 0.000000 0.000000 -1.000000
outer loop
vertex 0.005016 0.005916 0.000000
vertex 0.005288 0.005338 0.000000
vertex 0.005587 0.004397 0.000000
endloop
endfacet
facet normal 0.000000 0.000000 -1.000000
outer loop
vertex 0.004574 0.006827 0.000000
vertex 0.004776 0.006416 0.000000
vertex 0.005016 0.005916 0.000000
endloop
endfacet
facet normal 0.000000 0.000000 -1.000000
outer loop
vertex 0.003424 0.008380 0.000000
vertex 0.004390 0.007169 0.000000
vertex 0.004574 0.006827 0.000000
endloop
endfacet
facet normal 0.000000 0.000000 -1.000000
outer loop
vertex 0.003274 0.008508 0.000000
vertex 0.003348 0.008452 0.000000
vertex 0.003424 0.008380 0.000000
endloop
endfacet
facet normal 0.000000 0.000000 -1.000000
outer loop
vertex 0.003129 0.008565 0.000000
vertex 0.003201 0.008547 0.000000
vertex 0.003274 0.008508 0.000000
endloop
endfacet
facet normal 0.000000 0.000000 -1.000000
outer loop
vertex 0.002979 0.008535 0.000000
vertex 0.003055 0.008562 0.000000
vertex 0.003129 0.008565 0.000000
endloop
endfacet
facet normal 0.000000 0.000000 -1.000000
outer loop
vertex 0.002816 0.008405 0.000000
vertex 0.002898 0.008482 0.000000
vertex 0.002979 0.008535 0.000000
endloop
endfacet
facet normal 0.000000 0.000000 -1.000000
outer loop
vertex 0.002581 0.008078 0.000000
vertex 0.002735 0.008310 0.000000
vertex 0.002816 0.008405 0.000000
endloop
endfacet
facet normal 0.000000 0.000000 -1.000000
outer loop
vertex 0.002438 0.007816 0.000000
vertex 0.002508 0.007949 0.000000
vertex 0.002581 0.008078 0.000000
endloop
endfacet
facet normal 0.000000 0.000000 -1.000000
outer loop
vertex 0.002147 0.007210 0.000000
vertex 0.002371 0.007682 0.000000
vertex 0.002438 0.007816 0.000000
endloop
endfacet
facet normal 0.000000 0.000000 -1.000000
outer loop
vertex 0.002147 0.007210 0.000000
vertex 0.002438 0.007816 0.000000
vertex 0.002581 0.008078 0.000000
endloop
endfacet
facet normal 0.000000 0.000000 -1.000000
outer loop
vertex 0.002581 0.008078 0.000000
vertex 0.002816 0.008405 0.000000
vertex 0.002979 0.008535 0.000000
endloop
endfacet
facet normal 0.000000 0.000000 -1.000000
outer loop
vertex 0.002979 0.008535 0.000000
vertex 0.003129 0.008565 0.000000
vertex 0.003274 0.008508 0.000000
endloop
endfacet
facet normal 0.000000 0.000000 -1.000000
outer loop
vertex 0.003274 0.008508 0.000000
vertex 0.003424 0.008380 0.000000
vertex 0.004574 0.006827 0.000000
endloop
endfacet
facet normal 0.000000 0.000000 -1.000000
outer loop
vertex 0.004574 0.006827 0.000000
vertex 0.005016 0.005916 0.000000
vertex 0.005587 0.004397 0.000000
endloop
endfacet
facet normal 0.000000 0.000000 -1.000000
outer loop
vertex 0.005587 0.004397 0.000000
vertex 0.005673 0.002841 0.000000
vertex 0.005526 0.002268 0.000000
endloop
endfacet
facet normal 0.000000 0.000000 -1.000000
outer loop
vertex 0.005526 0.002268 0.000000
vertex 0.004980 0.001550 0.000000
vertex 0.004296 0.000658 0.000000
endloop
endfacet
facet normal 0.000000 0.000000 -1.000000
outer loop
vertex 0.004296 0.000658 0.000000
vertex 0.004136 0.000506 0.000000
vertex 0.003980 0.000391 0.000000
endloop
endfacet
facet normal 0.000000 0.000000 -1.000000
outer loop
vertex 0.003980 0.000391 0.000000
vertex 0.003825 0.000306 0.000000
vertex 0.003667 0.000244 0.000000
endloop
endfacet
facet normal 0.000000 0.000000 -1.000000
outer loop
vertex 0.003667 0.000244 0.000000
vertex 0.003504 0.000201 0.000000
vertex 0.002230 0.000003 0.000000
endloop
endfacet
facet normal 0.000000 0.000000 -1.000000
outer loop
vertex 0.002230 0.000003 0.000000
vertex 0.002014 0.000006 0.000000
vertex 0.001823 0.000041 0.000000
endloop
endfacet
facet normal 0.000000 0.000000 -1.000000
outer loop
vertex 0.001823 0.000041 0.000000
vertex 0.001652 0.000105 0.000000
vertex 0.001497 0.000194 0.000000
endloop
endfacet
facet normal 0.000000 0.000000 -1.000000
outer loop
vertex 0.001497 0.000194 0.000000
vertex 0.001355 0.000304 0.000000
vertex 0.001220 0.000431 0.000000
endloop
endfacet
facet normal 0.000000 0.000000 -1.000000
outer loop
vertex 0.001220 0.000431 0.000000
vertex 0.001091 0.000571 0.000000
vertex 0.000962 0.000720 0.000000
endloop
endfacet
facet normal 0.000000 0.000000 -1.000000
outer loop
vertex 0.001220 0.000431 0.000000
vertex 0.000962 0.000720 0.000000
vertex 0.000829 0.000874 0.000000
endloop
endfacet
facet normal 0.000000 0.000000 -1.000000
outer loop
vertex 0.001823 0.000041 0.000000
vertex 0.001497 0.000194 0.000000
vertex 0.001220 0.000431 0.000000
endloop
endfacet
facet normal 0.000000 0.000000 -1.000000
outer loop
vertex 0.003667 0.000244 0.000000
vertex 0.002230 0.000003 0.000000
vertex 0.001823 0.000041 0.000000
endloop
endfacet
facet normal 0.000000 0.000000 -1.000000
outer loop
vertex 0.004296 0.000658 0.000000
vertex 0.003980 0.000391 0.000000
vertex 0.003667 0.000244 0.000000
endloop
endfacet
facet normal 0.000000 0.000000 -1.000000
outer loop
vertex 0.005587 0.004397 0.000000
vertex 0.005526 0.002268 0.000000
vertex 0.004296 0.000658 0.000000
endloop
endfacet
facet normal 0.000000 0.000000 -1.000000
outer loop
vertex 0.003274 0.008508 0.000000
vertex 0.004574 0.006827 0.000000
vertex 0.005587 0.004397 0.000000
endloop
endfacet
facet normal 0.000000 0.000000 -1.000000
outer loop
vertex 0.002581 0.008078 0.000000
vertex 0.002979 0.008535 0.000000
vertex 0.003274 0.008508 0.000000
endloop
endfacet
facet normal 0.000000 0.000000 -1.000000
outer loop
vertex 0.002147 0.007210 0.000000
vertex 0.002581 0.008078 0.000000
vertex 0.003274 0.008508 0.000000
endloop
endfacet
facet normal 0.000000 0.000000 -1.000000
outer loop
vertex 0.003274 0.008508 0.000000
vertex 0.005587 0.004397 0.000000
vertex 0.004296 0.000658 0.000000
endloop
endfacet
facet normal 0.000000 0.000000 -1.000000
outer loop
vertex 0.004296 0.000658 0.000000
vertex 0.003667 0.000244 0.000000
vertex 0.001823 0.000041 0.000000
endloop
endfacet
facet normal 0.000000 0.000000 -1.000000
outer loop
vertex 0.001823 0.000041 0.000000
vertex 0.001220 0.000431 0.000000
vertex 0.000829 0.000874 0.000000
endloop
endfacet
facet normal 0.000000 0.000000 -1.000000
outer loop
vertex 0.000689 0.001029 0.000000
vertex 0.000538 0.001181 0.000000
vertex 0.000395 0.001327 0.000000
endloop
endfacet
facet normal 0.000000 0.000000 -1.000000
outer loop
vertex 0.001823 0.000041 0.000000
vertex 0.000829 0.000874 0.000000
vertex 0.000689 0.001029 0.000000
endloop
endfacet
facet normal 0.000000 0.000000 -1.000000
outer loop
vertex 0.003274 0.008508 0.000000
vertex 0.004296 0.000658 0.000000
vertex 0.001823 0.000041 0.000000
endloop
endfacet
facet normal 0.000000 0.000000 -1.000000
outer loop
vertex 0.002103 0.007126 0.000000
vertex 0.002147 0.007210 0.000000
vertex 0.003274 0.008508 0.000000
endloop
endfacet
facet normal 0.000000 0.000000 -1.000000
outer loop
vertex 0.002058 0.007048 0.000000
vertex 0.002103 0.007126 0.000000
vertex 0.003274 0.008508 0.000000
endloop
endfacet
facet normal 0.000000 0.000000 -1.000000
outer loop
vertex 0.003274 0.008508 0.000000
vertex 0.001823 0.000041 0.000000
vertex 0.000689 0.001029 0.000000
endloop
endfacet
facet normal 0.000000 0.000000 -1.000000
outer loop
vertex 0.000689 0.001029 0.000000
vertex 0.000395 0.001327 0.000000
vertex 0.000279 0.001466 0.000000
endloop
endfacet
facet normal 0.000000 0.000000 -1.000000
outer loop
vertex 0.000279 0.001466 0.000000
vertex 0.000188 0.001599 0.000000
vertex 0.000119 0.001728 0.000000
endloop
endfacet
facet normal 0.000000 0.000000 -1.000000
outer loop
vertex 0.000119 0.001728 0.000000
vertex 0.000069 0.001855 0.000000
vertex 0.000035 0.001980 0.000000
endloop
endfacet
facet normal 0.000000 0.000000 -1.000000
outer loop
vertex 0.000035 0.001980 0.000000
vertex 0.000003 0.002231 0.000000
vertex 0.000012 0.002927 0.000000
endloop
endfacet
facet normal 0.000000 0.000000 -1.000000
outer loop
vertex 0.000012 0.002927 0.000000
vertex 0.000029 0.003073 0.000000
vertex 0.000091 0.003359 0.000000
endloop
endfacet
facet normal 0.000000 0.000000 -1.000000
outer loop
vertex 0.000091 0.003359 0.000000
vertex 0.000133 0.003497 0.000000
vertex 0.000179 0.003633 0.000000
endloop
endfacet
facet normal 0.000000 0.000000 -1.000000
outer loop
vertex 0.000179 0.003633 0.000000
vertex 0.000229 0.003765 0.000000
vertex 0.000434 0.004254 0.000000
endloop
endfacet
facet normal 0.000000 0.000000 -1.000000
outer loop
vertex 0.000434 0.004254 0.000000
vertex 0.000479 0.004366 0.000000
vertex 0.001337 0.005999 0.000000
endloop
endfacet
facet normal 0.000000 0.000000 -1.000000
outer loop
vertex 0.001337 0.005999 0.000000
vertex 0.001396 0.006088 0.000000
vertex 0.001506 0.006237 0.000000
endloop
endfacet
facet normal 0.000000 0.000000 -1.000000
outer loop
vertex 0.001337 0.005999 0.000000
vertex 0.001506 0.006237 0.000000
vertex 0.001631 0.006409 0.000000
endloop
endfacet
facet normal 0.000000 0.000000 -1.000000
outer loop
vertex 0.000179 0.003633 0.000000
vertex 0.000434 0.004254 0.000000
vertex 0.001337 0.005999 0.000000
endloop
endfacet
facet normal 0.000000 0.000000 -1.000000
outer loop
vertex 0.000012 0.002927 0.000000
vertex 0.000091 0.003359 0.000000
vertex 0.000179 0.003633 0.000000
endloop
endfacet
facet normal 0.000000 0.000000 -1.000000
outer loop
vertex 0.000119 0.001728 0.000000
vertex 0.000035 0.001980 0.000000
vertex 0.000012 0.002927 0.000000
endloop
endfacet
facet normal 0.000000 0.000000 -1.000000
outer loop
vertex 0.000689 0.001029 0.000000
vertex 0.000279 0.001466 0.000000
vertex 0.000119 0.001728 0.000000
endloop
endfacet
facet normal 0.000000 0.000000 -1.000000
outer loop
vertex 0.002058 0.007048 0.000000
vertex 0.003274 0.008508 0.000000
vertex 0.000689 0.001029 0.000000
endloop
endfacet
facet normal 0.000000 0.000000 -1.000000
outer loop
vertex 0.002007 0.006964 0.000000
vertex 0.002058 0.007048 0.000000
vertex 0.000689 0.001029 0.000000
endloop
endfacet
facet normal 0.000000 0.000000 -1.000000
outer loop
vertex 0.000689 0.001029 0.000000
vertex 0.000119 0.001728 0.000000
vertex 0.000012 0.002927 0.000000
endloop
endfacet
facet normal 0.000000 0.000000 -1.000000
outer loop
vertex 0.000012 0.002927 0.000000
vertex 0.000179 0.003633 0.000000
vertex 0.001337 0.005999 0.000000
endloop
endfacet
facet normal 0.000000 0.000000 -1.000000
outer loop
vertex 0.000012 0.002927 0.000000
vertex 0.001337 0.005999 0.000000
vertex 0.001631 0.006409 0.000000
endloop
endfacet
facet normal 0.000000 0.000000 -1.000000
outer loop
vertex 0.002007 0.006964 0.000000
vertex 0.000689 0.001029 0.000000
vertex 0.000012 0.002927 0.000000
endloop
endfacet
facet normal 0.000000 0.000000 -1.000000
outer loop
vertex 0.001950 0.006876 0.000000
vertex 0.002007 0.006964 0.000000
vertex 0.000012 0.002927 0.000000
endloop
endfacet
facet normal 0.000000 0.000000 -1.000000
outer loop
vertex 0.000012 0.002927 0.000000
vertex 0.001631 0.006409 0.000000
vertex 0.001762 0.006595 0.000000
endloop
endfacet
facet normal 0.000000 0.000000 -1.000000
outer loop
vertex 0.001890 0.006784 0.000000
vertex 0.001950 0.006876 0.000000
vertex 0.000012 0.002927 0.000000
endloop
endfacet
facet normal 0.000000 0.000000 -1.000000
outer loop
vertex 0.000012 0.002927 0.000000
vertex 0.001762 0.006595 0.000000
vertex 0.001890 0.006784 0.000000
endloop
endfacet
facet normal -0.045647 0.998958 0.000000
outer loop
vertex 0.003129 0.008565 0.150000
vertex 0.003129 0.008565 0.000000
vertex 0.003055 0.008562 0.000000
endloop
endfacet
facet normal -0.045647 0.998958 0.000000
outer loop
vertex 0.003129 0.008565 0.150000
vertex 0.003055 0.008562 0.000000
vertex 0.003055 0.008562 0.150000
endloop
endfacet
facet normal 0.998061 0.062242 0.000000
outer loop
vertex 0.005651 0.003820 0.000000
vertex 0.005639 0.004007 0.000000
vertex 0.005639 0.004007 0.150000
endloop
endfacet
facet normal 0.998061 0.062238 0.000000
outer loop
vertex 0.005651 0.003820 0.000000
vertex 0.005639 0.004007 0.150000
vertex 0.005651 0.003820 0.150000
endloop
endfacet
facet normal 0.999959 0.009055 0.000000
outer loop
vertex 0.005673 0.002841 0.150000
vertex 0.005673 0.002841 0.000000
vertex 0.005671 0.003038 0.000000
endloop
endfacet
facet normal 0.999679 0.025320 0.000000
outer loop
vertex 0.005671 0.003038 0.000000
vertex 0.005651 0.003820 0.000000
vertex 0.005651 0.003820 0.150000
endloop
endfacet
facet normal 0.999959 0.009051 0.000000
outer loop
vertex 0.005671 0.003038 0.150000
vertex 0.005673 0.002841 0.150000
vertex 0.005671 0.003038 0.000000
endloop
endfacet
facet normal 0.999679 0.025319 0.000000
outer loop
vertex 0.005651 0.003820 0.150000
vertex 0.005671 0.003038 0.150000
vertex 0.005671 0.003038 0.000000
endloop
endfacet
facet normal -0.992200 -0.124659 0.000000
outer loop
vertex 0.000003 0.002231 0.150000
vertex 0.000003 0.002231 0.000000
vertex 0.000035 0.001980 0.000000
endloop
endfacet
facet normal -0.992200 -0.124659 0.000000
outer loop
vertex 0.000003 0.002231 0.150000
vertex 0.000035 0.001980 0.000000
vertex 0.000035 0.001980 0.150000
endloop
endfacet
facet normal -0.977258 0.212056 0.000000
outer loop
vertex 0.000091 0.003359 0.150000
vertex 0.000091 0.003359 0.000000
vertex 0.000029 0.003073 0.000000
endloop
endfacet
facet normal -0.977258 0.212056 0.000000
outer loop
vertex 0.000091 0.003359 0.150000
vertex 0.000029 0.003073 0.000000
vertex 0.000029 0.003073 0.150000
endloop
endfacet
facet normal -0.826059 -0.563584 0.000000
outer loop
vertex 0.000188 0.001599 0.150000
vertex 0.000188 0.001599 0.000000
vertex 0.000279 0.001466 0.000000
endloop
endfacet
facet normal -0.826059 -0.563584 0.000000
outer loop
vertex 0.000188 0.001599 0.150000
vertex 0.000279 0.001466 0.000000
vertex 0.000279 0.001466 0.150000
endloop
endfacet
facet normal -0.885788 0.464090 0.000000
outer loop
vertex 0.002147 0.007210 0.000000
vertex 0.002103 0.007126 0.000000
vertex 0.002103 0.007126 0.150000
endloop
endfacet
facet normal -0.885790 0.464086 0.000000
outer loop
vertex 0.002147 0.007210 0.000000
vertex 0.002103 0.007126 0.150000
vertex 0.002147 0.007210 0.150000
endloop
endfacet
facet normal -0.902936 0.429775 0.000000
outer loop
vertex 0.002371 0.007682 0.000000
vertex 0.002147 0.007210 0.000000
vertex 0.002147 0.007210 0.150000
endloop
endfacet
facet normal -0.902936 0.429774 0.000000
outer loop
vertex 0.002371 0.007682 0.000000
vertex 0.002147 0.007210 0.150000
vertex 0.002371 0.007682 0.150000
endloop
endfacet
facet normal -0.895745 0.444568 0.000000
outer loop
vertex 0.002438 0.007816 0.000000
vertex 0.002371 0.007682 0.000000
vertex 0.002371 0.007682 0.150000
endloop
endfacet
facet normal -0.895745 0.444568 0.000000
outer loop
vertex 0.002438 0.007816 0.000000
vertex 0.002371 0.007682 0.150000
vertex 0.002438 0.007816 0.150000
endloop
endfacet
facet normal -0.870134 0.492814 0.000000
outer loop
vertex 0.002581 0.008078 0.150000
vertex 0.002581 0.008078 0.000000
vertex 0.002508 0.007949 0.000000
endloop
endfacet
facet normal -0.885439 0.464755 0.000000
outer loop
vertex 0.002508 0.007949 0.000000
vertex 0.002438 0.007816 0.000000
vertex 0.002438 0.007816 0.150000
endloop
endfacet
facet normal -0.870136 0.492812 0.000000
outer loop
vertex 0.002508 0.007949 0.150000
vertex 0.002581 0.008078 0.150000
vertex 0.002508 0.007949 0.000000
endloop
endfacet
facet normal -0.885439 0.464755 0.000000
outer loop
vertex 0.002438 0.007816 0.150000
vertex 0.002508 0.007949 0.150000
vertex 0.002508 0.007949 0.000000
endloop
endfacet
facet normal 0.363188 -0.931716 0.000000
outer loop
vertex 0.003667 0.000244 0.150000
vertex 0.003667 0.000244 0.000000
vertex 0.003825 0.000306 0.000000
endloop
endfacet
facet normal 0.363190 -0.931715 0.000000
outer loop
vertex 0.003667 0.000244 0.150000
vertex 0.003825 0.000306 0.000000
vertex 0.003825 0.000306 0.150000
endloop
endfacet
facet normal -0.350882 -0.936420 0.000000
outer loop
vertex 0.001652 0.000105 0.150000
vertex 0.001652 0.000105 0.000000
vertex 0.001823 0.000041 0.000000
endloop
endfacet
facet normal -0.350883 -0.936419 0.000000
outer loop
vertex 0.001652 0.000105 0.150000
vertex 0.001823 0.000041 0.000000
vertex 0.001823 0.000041 0.150000
endloop
endfacet
facet normal 0.991265 0.131888 0.000000
outer loop
vertex 0.005639 0.004007 0.150000
vertex 0.005639 0.004007 0.000000
vertex 0.005587 0.004397 0.000000
endloop
endfacet
facet normal 0.991264 0.131890 0.000000
outer loop
vertex 0.005639 0.004007 0.150000
vertex 0.005587 0.004397 0.000000
vertex 0.005587 0.004397 0.150000
endloop
endfacet
facet normal -0.763500 0.645808 0.000000
outer loop
vertex 0.002816 0.008405 0.150000
vertex 0.002816 0.008405 0.000000
vertex 0.002735 0.008310 0.000000
endloop
endfacet
facet normal -0.763499 0.645809 0.000000
outer loop
vertex 0.002816 0.008405 0.150000
vertex 0.002735 0.008310 0.000000
vertex 0.002735 0.008310 0.150000
endloop
endfacet
facet normal 0.247326 0.968932 0.000000
outer loop
vertex 0.003201 0.008547 0.150000
vertex 0.003201 0.008547 0.000000
vertex 0.003129 0.008565 0.000000
endloop
endfacet
facet normal 0.247327 0.968932 0.000000
outer loop
vertex 0.003201 0.008547 0.150000
vertex 0.003129 0.008565 0.000000
vertex 0.003129 0.008565 0.150000
endloop
endfacet
facet normal -0.181401 -0.983409 0.000000
outer loop
vertex 0.001823 0.000041 0.150000
vertex 0.001823 0.000041 0.000000
vertex 0.002014 0.000006 0.000000
endloop
endfacet
facet normal -0.181401 -0.983409 0.000000
outer loop
vertex 0.001823 0.000041 0.150000
vertex 0.002014 0.000006 0.000000
vertex 0.002014 0.000006 0.150000
endloop
endfacet
facet normal 0.969680 0.244378 0.000000
outer loop
vertex 0.005478 0.004832 0.000000
vertex 0.005478 0.004832 0.150000
vertex 0.005587 0.004397 0.150000
endloop
endfacet
facet normal 0.969680 0.244376 0.000000
outer loop
vertex 0.005478 0.004832 0.000000
vertex 0.005587 0.004397 0.150000
vertex 0.005587 0.004397 0.000000
endloop
endfacet
facet normal -0.011611 -0.999933 0.000000
outer loop
vertex 0.002014 0.000006 0.150000
vertex 0.002014 0.000006 0.000000
vertex 0.002230 0.000003 0.000000
endloop
endfacet
facet normal -0.011611 -0.999933 0.000000
outer loop
vertex 0.002014 0.000006 0.150000
vertex 0.002230 0.000003 0.000000
vertex 0.002230 0.000003 0.150000
endloop
endfacet
facet normal -0.682310 0.731063 0.000000
outer loop
vertex 0.002898 0.008482 0.150000
vertex 0.002898 0.008482 0.000000
vertex 0.002816 0.008405 0.000000
endloop
endfacet
facet normal -0.682310 0.731063 0.000000
outer loop
vertex 0.002898 0.008482 0.150000
vertex 0.002816 0.008405 0.000000
vertex 0.002816 0.008405 0.150000
endloop
endfacet
facet normal 0.686943 -0.726712 0.000000
outer loop
vertex 0.004136 0.000506 0.150000
vertex 0.004136 0.000506 0.000000
vertex 0.004296 0.000658 0.000000
endloop
endfacet
facet normal 0.686941 -0.726713 0.000000
outer loop
vertex 0.004136 0.000506 0.150000
vertex 0.004296 0.000658 0.000000
vertex 0.004296 0.000658 0.150000
endloop
endfacet
facet normal 0.686119 0.727489 0.000000
outer loop
vertex 0.003424 0.008380 0.150000
vertex 0.003424 0.008380 0.000000
vertex 0.003348 0.008452 0.000000
endloop
endfacet
facet normal 0.686123 0.727486 0.000000
outer loop
vertex 0.003424 0.008380 0.150000
vertex 0.003348 0.008452 0.000000
vertex 0.003348 0.008452 0.150000
endloop
endfacet
facet normal 0.847226 -0.531233 0.000000
outer loop
vertex 0.005450 0.002147 0.150000
vertex 0.005450 0.002147 0.000000
vertex 0.005526 0.002268 0.000000
endloop
endfacet
facet normal 0.847226 -0.531233 0.000000
outer loop
vertex 0.005450 0.002147 0.150000
vertex 0.005526 0.002268 0.000000
vertex 0.005526 0.002268 0.150000
endloop
endfacet
facet normal 0.996889 -0.078822 0.000000
outer loop
vertex 0.005659 0.002672 0.150000
vertex 0.005659 0.002672 0.000000
vertex 0.005673 0.002841 0.000000
endloop
endfacet
facet normal 0.996888 -0.078826 0.000000
outer loop
vertex 0.005659 0.002672 0.150000
vertex 0.005673 0.002841 0.000000
vertex 0.005673 0.002841 0.150000
endloop
endfacet
facet normal -0.929454 -0.368939 0.000000
outer loop
vertex 0.000069 0.001855 0.150000
vertex 0.000069 0.001855 0.000000
vertex 0.000119 0.001728 0.000000
endloop
endfacet
facet normal -0.929454 -0.368939 0.000000
outer loop
vertex 0.000069 0.001855 0.150000
vertex 0.000119 0.001728 0.000000
vertex 0.000119 0.001728 0.150000
endloop
endfacet
facet normal -0.610656 -0.791896 0.000000
outer loop
vertex 0.001355 0.000304 0.150000
vertex 0.001355 0.000304 0.000000
vertex 0.001497 0.000194 0.000000
endloop
endfacet
facet normal -0.610655 -0.791896 0.000000
outer loop
vertex 0.001355 0.000304 0.150000
vertex 0.001497 0.000194 0.000000
vertex 0.001497 0.000194 0.150000
endloop
endfacet
facet normal 0.981499 -0.191467 0.000000
outer loop
vertex 0.005630 0.002524 0.150000
vertex 0.005630 0.002524 0.000000
vertex 0.005659 0.002672 0.000000
endloop
endfacet
facet normal 0.981499 -0.191467 0.000000
outer loop
vertex 0.005630 0.002524 0.150000
vertex 0.005659 0.002672 0.000000
vertex 0.005659 0.002672 0.150000
endloop
endfacet
facet normal -0.498254 -0.867031 0.000000
outer loop
vertex 0.001497 0.000194 0.150000
vertex 0.001497 0.000194 0.000000
vertex 0.001652 0.000105 0.000000
endloop
endfacet
facet normal -0.498253 -0.867032 0.000000
outer loop
vertex 0.001497 0.000194 0.150000
vertex 0.001652 0.000105 0.000000
vertex 0.001652 0.000105 0.150000
endloop
endfacet
facet normal 0.482334 -0.875988 0.000000
outer loop
vertex 0.003825 0.000306 0.150000
vertex 0.003825 0.000306 0.000000
vertex 0.003980 0.000391 0.000000
endloop
endfacet
facet normal 0.482336 -0.875986 0.000000
outer loop
vertex 0.003825 0.000306 0.150000
vertex 0.003980 0.000391 0.000000
vertex 0.003980 0.000391 0.150000
endloop
endfacet
facet normal 0.606367 0.795185 0.000000
outer loop
vertex 0.003348 0.008452 0.150000
vertex 0.003348 0.008452 0.000000
vertex 0.003274 0.008508 0.000000
endloop
endfacet
facet normal 0.606375 0.795179 0.000000
outer loop
vertex 0.003348 0.008452 0.150000
vertex 0.003274 0.008508 0.000000
vertex 0.003274 0.008508 0.150000
endloop
endfacet
facet normal -0.334840 0.942275 0.000000
outer loop
vertex 0.003055 0.008562 0.150000
vertex 0.003055 0.008562 0.000000
vertex 0.002979 0.008535 0.000000
endloop
endfacet
facet normal -0.334841 0.942275 0.000000
outer loop
vertex 0.003055 0.008562 0.150000
vertex 0.002979 0.008535 0.000000
vertex 0.002979 0.008535 0.150000
endloop
endfacet
facet normal 0.806295 -0.591513 0.000000
outer loop
vertex 0.005357 0.002021 0.000000
vertex 0.005450 0.002147 0.000000
vertex 0.005450 0.002147 0.150000
endloop
endfacet
facet normal 0.806298 -0.591510 0.000000
outer loop
vertex 0.005357 0.002021 0.000000
vertex 0.005450 0.002147 0.150000
vertex 0.005357 0.002021 0.150000
endloop
endfacet
facet normal 0.780400 -0.625280 0.000000
outer loop
vertex 0.004980 0.001550 0.000000
vertex 0.005357 0.002021 0.000000
vertex 0.005357 0.002021 0.150000
endloop
endfacet
facet normal 0.780400 -0.625280 0.000000
outer loop
vertex 0.004980 0.001550 0.000000
vertex 0.005357 0.002021 0.150000
vertex 0.004980 0.001550 0.150000
endloop
endfacet
facet normal 0.755304 -0.655375 0.000000
outer loop
vertex 0.004296 0.000658 0.150000
vertex 0.004296 0.000658 0.000000
vertex 0.004464 0.000851 0.000000
endloop
endfacet
facet normal 0.804281 -0.594250 0.000000
outer loop
vertex 0.004464 0.000851 0.000000
vertex 0.004980 0.001550 0.000000
vertex 0.004980 0.001550 0.150000
endloop
endfacet
facet normal 0.755301 -0.655378 0.000000
outer loop
vertex 0.004464 0.000851 0.150000
vertex 0.004296 0.000658 0.150000
vertex 0.004464 0.000851 0.000000
endloop
endfacet
facet normal 0.804281 -0.594250 0.000000
outer loop
vertex 0.004980 0.001550 0.150000
vertex 0.004464 0.000851 0.150000
vertex 0.004464 0.000851 0.000000
endloop
endfacet
facet normal 0.848300 0.529515 0.000000
outer loop
vertex 0.004390 0.007169 0.150000
vertex 0.004390 0.007169 0.000000
vertex 0.004207 0.007462 0.000000
endloop
endfacet
facet normal 0.848300 0.529515 0.000000
outer loop
vertex 0.004390 0.007169 0.150000
vertex 0.004207 0.007462 0.000000
vertex 0.004207 0.007462 0.150000
endloop
endfacet
facet normal 0.936145 0.351615 0.000000
outer loop
vertex 0.005478 0.004832 0.000000
vertex 0.005288 0.005338 0.000000
vertex 0.005288 0.005338 0.150000
endloop
endfacet
facet normal 0.936144 0.351617 0.000000
outer loop
vertex 0.005478 0.004832 0.000000
vertex 0.005288 0.005338 0.150000
vertex 0.005478 0.004832 0.150000
endloop
endfacet
facet normal -0.993115 0.117142 0.000000
outer loop
vertex 0.000029 0.003073 0.150000
vertex 0.000029 0.003073 0.000000
vertex 0.000012 0.002927 0.000000
endloop
endfacet
facet normal -0.993115 0.117142 0.000000
outer loop
vertex 0.000029 0.003073 0.150000
vertex 0.000012 0.002927 0.000000
vertex 0.000012 0.002927 0.150000
endloop
endfacet
facet normal -0.999924 0.012312 0.000000
outer loop
vertex 0.000012 0.002927 0.000000
vertex 0.000003 0.002231 0.000000
vertex 0.000003 0.002231 0.150000
endloop
endfacet
facet normal -0.999924 0.012312 0.000000
outer loop
vertex 0.000012 0.002927 0.000000
vertex 0.000003 0.002231 0.150000
vertex 0.000012 0.002927 0.150000
endloop
endfacet
facet normal -0.831943 0.554861 0.000000
outer loop
vertex 0.002735 0.008310 0.000000
vertex 0.002581 0.008078 0.000000
vertex 0.002581 0.008078 0.150000
endloop
endfacet
facet normal -0.831942 0.554862 0.000000
outer loop
vertex 0.002735 0.008310 0.000000
vertex 0.002581 0.008078 0.150000
vertex 0.002735 0.008310 0.150000
endloop
endfacet
facet normal -0.957749 0.287607 0.000000
outer loop
vertex 0.000133 0.003497 0.000000
vertex 0.000091 0.003359 0.000000
vertex 0.000091 0.003359 0.150000
endloop
endfacet
facet normal -0.957749 0.287607 0.000000
outer loop
vertex 0.000133 0.003497 0.000000
vertex 0.000091 0.003359 0.150000
vertex 0.000133 0.003497 0.150000
endloop
endfacet
facet normal -0.945491 0.325649 0.000000
outer loop
vertex 0.000179 0.003633 0.000000
vertex 0.000133 0.003497 0.000000
vertex 0.000133 0.003497 0.150000
endloop
endfacet
facet normal -0.945491 0.325649 0.000000
outer loop
vertex 0.000179 0.003633 0.000000
vertex 0.000133 0.003497 0.150000
vertex 0.000179 0.003633 0.150000
endloop
endfacet
facet normal 0.000000 0.000000 -1.000000
outer loop
vertex 0.000479 0.004366 0.000000
vertex 0.000434 0.004254 0.000000
vertex 0.000229 0.003765 0.000000
endloop
endfacet
facet normal -0.934873 0.354983 0.000000
outer loop
vertex 0.000229 0.003765 0.000000
vertex 0.000179 0.003633 0.000000
vertex 0.000179 0.003633 0.150000
endloop
endfacet
facet normal -0.934873 0.354983 0.000000
outer loop
vertex 0.000229 0.003765 0.000000
vertex 0.000179 0.003633 0.150000
vertex 0.000229 0.003765 0.150000
endloop
endfacet
facet normal -0.923707 0.383099 0.000000
outer loop
vertex 0.000479 0.004366 0.150000
vertex 0.000479 0.004366 0.000000
vertex 0.000229 0.003765 0.000000
endloop
endfacet
facet normal -0.922563 0.385846 0.000000
outer loop
vertex 0.000229 0.003765 0.000000
vertex 0.000229 0.003765 0.150000
vertex 0.000434 0.004254 0.150000
endloop
endfacet
facet normal -0.928664 0.370922 0.000057
outer loop
vertex 0.000434 0.004254 0.150000
vertex 0.000479 0.004366 0.150000
vertex 0.000229 0.003765 0.000000
endloop
endfacet
facet normal 0.760802 0.648984 0.000000
outer loop
vertex 0.004207 0.007462 0.150000
vertex 0.004207 0.007462 0.000000
vertex 0.003424 0.008380 0.000000
endloop
endfacet
facet normal 0.760802 0.648984 0.000000
outer loop
vertex 0.004207 0.007462 0.150000
vertex 0.003424 0.008380 0.000000
vertex 0.003424 0.008380 0.150000
endloop
endfacet
facet normal 0.594853 -0.803835 0.000000
outer loop
vertex 0.003980 0.000391 0.150000
vertex 0.003980 0.000391 0.000000
vertex 0.004136 0.000506 0.000000
endloop
endfacet
facet normal 0.594851 -0.803836 0.000000
outer loop
vertex 0.003980 0.000391 0.150000
vertex 0.004136 0.000506 0.000000
vertex 0.004136 0.000506 0.150000
endloop
endfacet
facet normal 0.257435 -0.966296 0.000000
outer loop
vertex 0.003504 0.000201 0.150000
vertex 0.003504 0.000201 0.000000
vertex 0.003667 0.000244 0.000000
endloop
endfacet
facet normal 0.257435 -0.966296 0.000000
outer loop
vertex 0.003504 0.000201 0.150000
vertex 0.003667 0.000244 0.000000
vertex 0.003667 0.000244 0.150000
endloop
endfacet
facet normal 0.874968 0.484182 0.000000
outer loop
vertex 0.004480 0.007006 0.000000
vertex 0.004390 0.007169 0.000000
vertex 0.004390 0.007169 0.150000
endloop
endfacet
facet normal 0.874968 0.484182 0.000000
outer loop
vertex 0.004480 0.007006 0.000000
vertex 0.004390 0.007169 0.150000
vertex 0.004480 0.007006 0.150000
endloop
endfacet
facet normal 0.886693 0.462358 0.000000
outer loop
vertex 0.004574 0.006827 0.000000
vertex 0.004480 0.007006 0.000000
vertex 0.004480 0.007006 0.150000
endloop
endfacet
facet normal 0.886693 0.462358 0.000000
outer loop
vertex 0.004574 0.006827 0.000000
vertex 0.004480 0.007006 0.150000
vertex 0.004574 0.006827 0.150000
endloop
endfacet
facet normal 0.894520 0.447029 0.000000
outer loop
vertex 0.004671 0.006631 0.000000
vertex 0.004574 0.006827 0.000000
vertex 0.004574 0.006827 0.150000
endloop
endfacet
facet normal 0.894520 0.447029 0.000000
outer loop
vertex 0.004671 0.006631 0.000000
vertex 0.004574 0.006827 0.150000
vertex 0.004671 0.006631 0.150000
endloop
endfacet
facet normal 0.899216 0.437505 0.000000
outer loop
vertex 0.004776 0.006416 0.000000
vertex 0.004671 0.006631 0.000000
vertex 0.004671 0.006631 0.150000
endloop
endfacet
facet normal 0.899216 0.437505 0.000000
outer loop
vertex 0.004776 0.006416 0.000000
vertex 0.004671 0.006631 0.150000
vertex 0.004776 0.006416 0.150000
endloop
endfacet
facet normal 0.000000 0.000000 -1.000000
outer loop
vertex 0.005155 0.005627 0.000000
vertex 0.005016 0.005916 0.000000
vertex 0.004890 0.006178 0.000000
endloop
endfacet
facet normal 0.901477 0.432826 0.000000
outer loop
vertex 0.004890 0.006178 0.000000
vertex 0.004776 0.006416 0.000000
vertex 0.004776 0.006416 0.150000
endloop
endfacet
facet normal 0.901476 0.432828 0.000000
outer loop
vertex 0.004890 0.006178 0.000000
vertex 0.004776 0.006416 0.150000
vertex 0.004890 0.006178 0.150000
endloop
endfacet
facet normal 0.908894 0.417026 0.000000
outer loop
vertex 0.005288 0.005338 0.150000
vertex 0.005288 0.005338 0.000000
vertex 0.005155 0.005627 0.000000
endloop
endfacet
facet normal 0.901372 0.433046 0.000000
outer loop
vertex 0.005155 0.005627 0.000000
vertex 0.004890 0.006178 0.000000
vertex 0.004890 0.006178 0.150000
endloop
endfacet
facet normal 0.901886 0.431975 0.000005
outer loop
vertex 0.005155 0.005627 0.000000
vertex 0.004890 0.006178 0.150000
vertex 0.005016 0.005916 0.150000
endloop
endfacet
facet normal 0.908893 0.417029 0.000000
outer loop
vertex 0.005155 0.005627 0.150000
vertex 0.005288 0.005338 0.150000
vertex 0.005155 0.005627 0.000000
endloop
endfacet
facet normal 0.900906 0.434014 0.000000
outer loop
vertex 0.005016 0.005916 0.150000
vertex 0.005155 0.005627 0.150000
vertex 0.005155 0.005627 0.000000
endloop
endfacet
facet normal 0.468180 0.883633 0.000000
outer loop
vertex 0.003274 0.008508 0.150000
vertex 0.003274 0.008508 0.000000
vertex 0.003201 0.008547 0.000000
endloop
endfacet
facet normal 0.468182 0.883632 0.000000
outer loop
vertex 0.003274 0.008508 0.150000
vertex 0.003201 0.008547 0.000000
vertex 0.003201 0.008547 0.150000
endloop
endfacet
facet normal 0.948078 -0.318037 0.000000
outer loop
vertex 0.005586 0.002392 0.150000
vertex 0.005586 0.002392 0.000000
vertex 0.005630 0.002524 0.000000
endloop
endfacet
facet normal 0.948076 -0.318042 0.000000
outer loop
vertex 0.005586 0.002392 0.150000
vertex 0.005630 0.002524 0.000000
vertex 0.005630 0.002524 0.150000
endloop
endfacet
facet normal -0.549023 0.835807 0.000000
outer loop
vertex 0.002979 0.008535 0.150000
vertex 0.002979 0.008535 0.000000
vertex 0.002898 0.008482 0.000000
endloop
endfacet
facet normal -0.549025 0.835806 0.000000
outer loop
vertex 0.002979 0.008535 0.150000
vertex 0.002898 0.008482 0.000000
vertex 0.002898 0.008482 0.150000
endloop
endfacet
facet normal 0.153224 -0.988192 0.000000
outer loop
vertex 0.003504 0.000201 0.000000
vertex 0.003504 0.000201 0.150000
vertex 0.002230 0.000003 0.150000
endloop
endfacet
facet normal 0.153224 -0.988192 0.000000
outer loop
vertex 0.003504 0.000201 0.000000
vertex 0.002230 0.000003 0.150000
vertex 0.002230 0.000003 0.000000
endloop
endfacet
facet normal 0.899112 -0.437718 0.000000
outer loop
vertex 0.005526 0.002268 0.150000
vertex 0.005526 0.002268 0.000000
vertex 0.005586 0.002392 0.000000
endloop
endfacet
facet normal 0.899115 -0.437713 0.000000
outer loop
vertex 0.005526 0.002268 0.150000
vertex 0.005586 0.002392 0.000000
vertex 0.005586 0.002392 0.150000
endloop
endfacet
facet normal 0.000000 0.000000 1.000000
outer loop
vertex 0.000829 0.000874 0.000000
vertex 0.000962 0.000720 0.000000
vertex 0.001091 0.000571 0.000000
endloop
endfacet
facet normal 0.000000 0.000000 1.000000
outer loop
vertex 0.001091 0.000571 0.000000
vertex 0.001220 0.000431 0.000000
vertex 0.001355 0.000304 0.000000
endloop
endfacet
facet normal -0.687172 -0.726495 0.000000
outer loop
vertex 0.001355 0.000304 0.000000
vertex 0.001355 0.000304 0.150000
vertex 0.001220 0.000431 0.150000
endloop
endfacet
facet normal -0.733382 -0.679817 -0.000081
outer loop
vertex 0.001355 0.000304 0.000000
vertex 0.001220 0.000431 0.150000
vertex 0.001091 0.000571 0.150000
endloop
endfacet
facet normal 0.000000 0.000000 1.000000
outer loop
vertex 0.000829 0.000874 0.000000
vertex 0.001091 0.000571 0.000000
vertex 0.001355 0.000304 0.000000
endloop
endfacet
facet normal 0.000000 0.000000 1.000000
outer loop
vertex 0.000395 0.001327 0.000000
vertex 0.000538 0.001181 0.000000
vertex 0.000689 0.001029 0.000000
endloop
endfacet
facet normal 0.000000 0.000000 1.000000
outer loop
vertex 0.000689 0.001029 0.000000
vertex 0.000829 0.000874 0.000000
vertex 0.001355 0.000304 0.000000
endloop
endfacet
facet normal -0.755570 -0.655067 -0.000164
outer loop
vertex 0.001355 0.000304 0.000000
vertex 0.001091 0.000571 0.150000
vertex 0.000962 0.000720 0.150000
endloop
endfacet
facet normal -0.758082 -0.652159 -0.000178
outer loop
vertex 0.001355 0.000304 0.000000
vertex 0.000962 0.000720 0.150000
vertex 0.000829 0.000874 0.150000
endloop
endfacet
facet normal 0.000000 0.000000 1.000000
outer loop
vertex 0.000279 0.001466 0.000000
vertex 0.000395 0.001327 0.000000
vertex 0.000689 0.001029 0.000000
endloop
endfacet
facet normal -0.736767 -0.676147 -0.000013
outer loop
vertex 0.000689 0.001029 0.000000
vertex 0.001355 0.000304 0.000000
vertex 0.000829 0.000874 0.150000
endloop
endfacet
facet normal -0.742900 -0.669402 0.000000
outer loop
vertex 0.000689 0.001029 0.000000
vertex 0.000829 0.000874 0.150000
vertex 0.000689 0.001029 0.150000
endloop
endfacet
facet normal -0.729252 -0.684246 0.000000
outer loop
vertex 0.000279 0.001466 0.150000
vertex 0.000279 0.001466 0.000000
vertex 0.000689 0.001029 0.000000
endloop
endfacet
facet normal -0.768316 -0.640070 -0.000235
outer loop
vertex 0.000395 0.001327 0.150000
vertex 0.000279 0.001466 0.150000
vertex 0.000689 0.001029 0.000000
endloop
endfacet
facet normal -0.710136 -0.704065 0.000000
outer loop
vertex 0.000689 0.001029 0.000000
vertex 0.000689 0.001029 0.150000
vertex 0.000538 0.001181 0.150000
endloop
endfacet
facet normal -0.713180 -0.700981 -0.000006
outer loop
vertex 0.000538 0.001181 0.150000
vertex 0.000395 0.001327 0.150000
vertex 0.000689 0.001029 0.000000
endloop
endfacet
facet normal -0.885279 0.465060 0.000000
outer loop
vertex 0.001337 0.005999 0.000000
vertex 0.000479 0.004366 0.000000
vertex 0.000479 0.004366 0.150000
endloop
endfacet
facet normal -0.885279 0.465060 0.000000
outer loop
vertex 0.001337 0.005999 0.000000
vertex 0.000479 0.004366 0.150000
vertex 0.001337 0.005999 0.150000
endloop
endfacet
facet normal 0.000000 0.000000 1.000000
outer loop
vertex 0.005586 0.002392 0.150000
vertex 0.005630 0.002524 0.150000
vertex 0.005659 0.002672 0.150000
endloop
endfacet
facet normal 0.000000 0.000000 1.000000
outer loop
vertex 0.005659 0.002672 0.150000
vertex 0.005673 0.002841 0.150000
vertex 0.005671 0.003038 0.150000
endloop
endfacet
facet normal 0.000000 0.000000 1.000000
outer loop
vertex 0.005671 0.003038 0.150000
vertex 0.005651 0.003820 0.150000
vertex 0.005639 0.004007 0.150000
endloop
endfacet
facet normal 0.000000 0.000000 1.000000
outer loop
vertex 0.005639 0.004007 0.150000
vertex 0.005587 0.004397 0.150000
vertex 0.005478 0.004832 0.150000
endloop
endfacet
facet normal 0.000596 0.000000 1.000000
outer loop
vertex 0.005478 0.004832 0.150000
vertex 0.005288 0.005338 0.150000
vertex 0.005155 0.005627 0.150000
endloop
endfacet
facet normal -0.100279 0.000000 0.994959
outer loop
vertex 0.005016 0.005916 0.150000
vertex 0.004890 0.006178 0.150000
vertex 0.004776 0.006416 0.150000
endloop
endfacet
facet normal 0.000417 0.000000 1.000000
outer loop
vertex 0.005478 0.004832 0.150000
vertex 0.005155 0.005627 0.150000
vertex 0.005016 0.005916 0.150000
endloop
endfacet
facet normal 0.000000 0.000000 1.000000
outer loop
vertex 0.005671 0.003038 0.150000
vertex 0.005639 0.004007 0.150000
vertex 0.005478 0.004832 0.150000
endloop
endfacet
facet normal 0.000309 0.000000 1.000000
outer loop
vertex 0.005586 0.002392 0.150000
vertex 0.005659 0.002672 0.150000
vertex 0.005671 0.003038 0.150000
endloop
endfacet
facet normal 0.001727 0.000000 0.999999
outer loop
vertex 0.005450 0.002147 0.150000
vertex 0.005526 0.002268 0.150000
vertex 0.005586 0.002392 0.150000
endloop
endfacet
facet normal 0.000000 0.000000 1.000000
outer loop
vertex 0.004980 0.001550 0.150000
vertex 0.005357 0.002021 0.150000
vertex 0.005450 0.002147 0.150000
endloop
endfacet
facet normal 0.000000 0.000000 1.000000
outer loop
vertex 0.004296 0.000658 0.150000
vertex 0.004464 0.000851 0.150000
vertex 0.004980 0.001550 0.150000
endloop
endfacet
facet normal 0.000710 0.000000 1.000000
outer loop
vertex 0.003980 0.000391 0.150000
vertex 0.004136 0.000506 0.150000
vertex 0.004296 0.000658 0.150000
endloop
endfacet
facet normal -0.000463 0.000000 1.000000
outer loop
vertex 0.003667 0.000244 0.150000
vertex 0.003825 0.000306 0.150000
vertex 0.003980 0.000391 0.150000
endloop
endfacet
facet normal 0.000039 0.000000 1.000000
outer loop
vertex 0.002230 0.000003 0.150000
vertex 0.003504 0.000201 0.150000
vertex 0.003667 0.000244 0.150000
endloop
endfacet
facet normal 0.000072 0.000000 1.000000
outer loop
vertex 0.001823 0.000041 0.150000
vertex 0.002014 0.000006 0.150000
vertex 0.002230 0.000003 0.150000
endloop
endfacet
facet normal 0.000000 0.000000 1.000000
outer loop
vertex 0.001497 0.000194 0.150000
vertex 0.001652 0.000105 0.150000
vertex 0.001823 0.000041 0.150000
endloop
endfacet
facet normal -0.001089 0.000000 0.999999
outer loop
vertex 0.001220 0.000431 0.150000
vertex 0.001355 0.000304 0.150000
vertex 0.001497 0.000194 0.150000
endloop
endfacet
facet normal 0.000000 0.000000 1.000000
outer loop
vertex 0.000962 0.000720 0.150000
vertex 0.001091 0.000571 0.150000
vertex 0.001220 0.000431 0.150000
endloop
endfacet
facet normal 0.000000 0.000000 1.000000
outer loop
vertex 0.000829 0.000874 0.150000
vertex 0.000962 0.000720 0.150000
vertex 0.001220 0.000431 0.150000
endloop
endfacet
facet normal -0.000104 0.000000 1.000000
outer loop
vertex 0.001220 0.000431 0.150000
vertex 0.001497 0.000194 0.150000
vertex 0.001823 0.000041 0.150000
endloop
endfacet
facet normal 0.000000 0.000000 1.000000
outer loop
vertex 0.001823 0.000041 0.150000
vertex 0.002230 0.000003 0.150000
vertex 0.003667 0.000244 0.150000
endloop
endfacet
facet normal -0.000197 0.000000 1.000000
outer loop
vertex 0.003667 0.000244 0.150000
vertex 0.003980 0.000391 0.150000
vertex 0.004296 0.000658 0.150000
endloop
endfacet
facet normal 0.000216 0.000000 1.000000
outer loop
vertex 0.004980 0.001550 0.150000
vertex 0.005450 0.002147 0.150000
vertex 0.005586 0.002392 0.150000
endloop
endfacet
facet normal 0.000000 0.000000 1.000000
outer loop
vertex 0.003667 0.000244 0.150000
vertex 0.004296 0.000658 0.150000
vertex 0.004980 0.001550 0.150000
endloop
endfacet
facet normal 0.000004 0.000000 1.000000
outer loop
vertex 0.001220 0.000431 0.150000
vertex 0.001823 0.000041 0.150000
vertex 0.003667 0.000244 0.150000
endloop
endfacet
facet normal 0.000000 0.000000 1.000000
outer loop
vertex 0.000829 0.000874 0.150000
vertex 0.001220 0.000431 0.150000
vertex 0.003667 0.000244 0.150000
endloop
endfacet
facet normal 0.000093 0.000000 1.000000
outer loop
vertex 0.003667 0.000244 0.150000
vertex 0.004980 0.001550 0.150000
vertex 0.005586 0.002392 0.150000
endloop
endfacet
facet normal 0.000000 0.000000 1.000000
outer loop
vertex 0.005586 0.002392 0.150000
vertex 0.005671 0.003038 0.150000
vertex 0.005478 0.004832 0.150000
endloop
endfacet
facet normal 0.000000 0.000000 1.000000
outer loop
vertex 0.005478 0.004832 0.150000
vertex 0.005016 0.005916 0.150000
vertex 0.004776 0.006416 0.150000
endloop
endfacet
facet normal 0.013060 0.000000 0.999915
outer loop
vertex 0.004776 0.006416 0.150000
vertex 0.004671 0.006631 0.150000
vertex 0.004574 0.006827 0.150000
endloop
endfacet
facet normal -0.003900 0.000000 0.999992
outer loop
vertex 0.004574 0.006827 0.150000
vertex 0.004480 0.007006 0.150000
vertex 0.004390 0.007169 0.150000
endloop
endfacet
facet normal 0.000000 0.000000 1.000000
outer loop
vertex 0.004390 0.007169 0.150000
vertex 0.004207 0.007462 0.150000
vertex 0.003424 0.008380 0.150000
endloop
endfacet
facet normal 0.000000 0.000000 1.000000
outer loop
vertex 0.003424 0.008380 0.150000
vertex 0.003348 0.008452 0.150000
vertex 0.003274 0.008508 0.150000
endloop
endfacet
facet normal 0.000632 0.000000 1.000000
outer loop
vertex 0.003274 0.008508 0.150000
vertex 0.003201 0.008547 0.150000
vertex 0.003129 0.008565 0.150000
endloop
endfacet
facet normal 0.000000 0.000000 1.000000
outer loop
vertex 0.003129 0.008565 0.150000
vertex 0.003055 0.008562 0.150000
vertex 0.002979 0.008535 0.150000
endloop
endfacet
facet normal -0.000990 0.000000 1.000000
outer loop
vertex 0.002979 0.008535 0.150000
vertex 0.002898 0.008482 0.150000
vertex 0.002816 0.008405 0.150000
endloop
endfacet
facet normal 0.000000 0.000000 1.000000
outer loop
vertex 0.002816 0.008405 0.150000
vertex 0.002735 0.008310 0.150000
vertex 0.002581 0.008078 0.150000
endloop
endfacet
facet normal 0.005099 0.000000 0.999987
outer loop
vertex 0.002581 0.008078 0.150000
vertex 0.002508 0.007949 0.150000
vertex 0.002438 0.007816 0.150000
endloop
endfacet
facet normal 0.000000 0.000000 1.000000
outer loop
vertex 0.002438 0.007816 0.150000
vertex 0.002371 0.007682 0.150000
vertex 0.002147 0.007210 0.150000
endloop
endfacet
facet normal 0.000000 0.000000 1.000000
outer loop
vertex 0.002581 0.008078 0.150000
vertex 0.002438 0.007816 0.150000
vertex 0.002147 0.007210 0.150000
endloop
endfacet
facet normal 0.000000 0.000000 1.000000
outer loop
vertex 0.002979 0.008535 0.150000
vertex 0.002816 0.008405 0.150000
vertex 0.002581 0.008078 0.150000
endloop
endfacet
facet normal -0.000070 0.000000 1.000000
outer loop
vertex 0.003274 0.008508 0.150000
vertex 0.003129 0.008565 0.150000
vertex 0.002979 0.008535 0.150000
endloop
endfacet
facet normal 0.000377 0.000000 1.000000
outer loop
vertex 0.004390 0.007169 0.150000
vertex 0.003424 0.008380 0.150000
vertex 0.003274 0.008508 0.150000
endloop
endfacet
facet normal -0.001178 0.000000 0.999999
outer loop
vertex 0.004776 0.006416 0.150000
vertex 0.004574 0.006827 0.150000
vertex 0.004390 0.007169 0.150000
endloop
endfacet
facet normal 0.000000 0.000000 1.000000
outer loop
vertex 0.005586 0.002392 0.150000
vertex 0.005478 0.004832 0.150000
vertex 0.004776 0.006416 0.150000
endloop
endfacet
facet normal -0.000008 0.000000 1.000000
outer loop
vertex 0.000829 0.000874 0.150000
vertex 0.003667 0.000244 0.150000
vertex 0.005586 0.002392 0.150000
endloop
endfacet
facet normal 0.019127 0.000000 0.999817
outer loop
vertex 0.000395 0.001327 0.150000
vertex 0.000538 0.001181 0.150000
vertex 0.000689 0.001029 0.150000
endloop
endfacet
facet normal 0.000031 0.000000 1.000000
outer loop
vertex 0.000689 0.001029 0.150000
vertex 0.000829 0.000874 0.150000
vertex 0.005586 0.002392 0.150000
endloop
endfacet
facet normal -0.000031 0.000000 1.000000
outer loop
vertex 0.005586 0.002392 0.150000
vertex 0.004776 0.006416 0.150000
vertex 0.004390 0.007169 0.150000
endloop
endfacet
facet normal 0.000015 0.000000 1.000000
outer loop
vertex 0.004390 0.007169 0.150000
vertex 0.003274 0.008508 0.150000
vertex 0.002979 0.008535 0.150000
endloop
endfacet
facet normal -0.000198 0.000000 1.000000
outer loop
vertex 0.002979 0.008535 0.150000
vertex 0.002581 0.008078 0.150000
vertex 0.002147 0.007210 0.150000
endloop
endfacet
facet normal 0.002034 0.000000 0.999998
outer loop
vertex 0.002979 0.008535 0.150000
vertex 0.002147 0.007210 0.150000
vertex 0.002103 0.007126 0.150000
endloop
endfacet
facet normal -0.000006 0.000000 1.000000
outer loop
vertex 0.005586 0.002392 0.150000
vertex 0.004390 0.007169 0.150000
vertex 0.002979 0.008535 0.150000
endloop
endfacet
facet normal 0.000000 0.000000 1.000000
outer loop
vertex 0.000395 0.001327 0.150000
vertex 0.000689 0.001029 0.150000
vertex 0.005586 0.002392 0.150000
endloop
endfacet
facet normal -0.001303 0.000000 0.999999
outer loop
vertex 0.000188 0.001599 0.150000
vertex 0.000279 0.001466 0.150000
vertex 0.000395 0.001327 0.150000
endloop
endfacet
facet normal 0.000000 0.000000 1.000000
outer loop
vertex 0.000069 0.001855 0.150000
vertex 0.000119 0.001728 0.150000
vertex 0.000188 0.001599 0.150000
endloop
endfacet
facet normal 0.000787 0.000000 1.000000
outer loop
vertex 0.000003 0.002231 0.150000
vertex 0.000035 0.001980 0.150000
vertex 0.000069 0.001855 0.150000
endloop
endfacet
facet normal 0.000000 0.000000 1.000000
outer loop
vertex 0.000029 0.003073 0.150000
vertex 0.000012 0.002927 0.150000
vertex 0.000003 0.002231 0.150000
endloop
endfacet
facet normal -0.002209 0.000000 0.999998
outer loop
vertex 0.000133 0.003497 0.150000
vertex 0.000091 0.003359 0.150000
vertex 0.000029 0.003073 0.150000
endloop
endfacet
facet normal 0.000000 0.000000 1.000000
outer loop
vertex 0.000229 0.003765 0.150000
vertex 0.000179 0.003633 0.150000
vertex 0.000133 0.003497 0.150000
endloop
endfacet
facet normal 0.001586 0.000000 0.999999
outer loop
vertex 0.001337 0.005999 0.150000
vertex 0.000479 0.004366 0.150000
vertex 0.000434 0.004254 0.150000
endloop
endfacet
facet normal 0.000986 0.000000 0.999999
outer loop
vertex 0.000434 0.004254 0.150000
vertex 0.000229 0.003765 0.150000
vertex 0.000133 0.003497 0.150000
endloop
endfacet
facet normal 0.000000 0.000000 1.000000
outer loop
vertex 0.000133 0.003497 0.150000
vertex 0.000029 0.003073 0.150000
vertex 0.000003 0.002231 0.150000
endloop
endfacet
facet normal 0.000000 0.000000 1.000000
outer loop
vertex 0.000003 0.002231 0.150000
vertex 0.000069 0.001855 0.150000
vertex 0.000188 0.001599 0.150000
endloop
endfacet
facet normal 0.000000 0.000000 1.000000
outer loop
vertex 0.000188 0.001599 0.150000
vertex 0.000395 0.001327 0.150000
vertex 0.005586 0.002392 0.150000
endloop
endfacet
facet normal 0.000003 0.000000 1.000000
outer loop
vertex 0.005586 0.002392 0.150000
vertex 0.002979 0.008535 0.150000
vertex 0.002103 0.007126 0.150000
endloop
endfacet
facet normal -0.000045 0.000000 1.000000
outer loop
vertex 0.005586 0.002392 0.150000
vertex 0.002103 0.007126 0.150000
vertex 0.002058 0.007048 0.150000
endloop
endfacet
facet normal 0.000004 0.000000 1.000000
outer loop
vertex 0.000003 0.002231 0.150000
vertex 0.000188 0.001599 0.150000
vertex 0.005586 0.002392 0.150000
endloop
endfacet
facet normal 0.000103 0.000000 1.000000
outer loop
vertex 0.000434 0.004254 0.150000
vertex 0.000133 0.003497 0.150000
vertex 0.000003 0.002231 0.150000
endloop
endfacet
facet normal 0.000000 0.000000 1.000000
outer loop
vertex 0.001396 0.006088 0.150000
vertex 0.001337 0.005999 0.150000
vertex 0.000434 0.004254 0.150000
endloop
endfacet
facet normal 0.000000 0.000000 1.000000
outer loop
vertex 0.001506 0.006237 0.150000
vertex 0.001396 0.006088 0.150000
vertex 0.000434 0.004254 0.150000
endloop
endfacet
facet normal 0.000002 0.000000 1.000000
outer loop
vertex 0.000434 0.004254 0.150000
vertex 0.000003 0.002231 0.150000
vertex 0.005586 0.002392 0.150000
endloop
endfacet
facet normal 0.000089 0.000000 1.000000
outer loop
vertex 0.005586 0.002392 0.150000
vertex 0.002058 0.007048 0.150000
vertex 0.002007 0.006964 0.150000
endloop
endfacet
facet normal 0.000041 0.000000 1.000000
outer loop
vertex 0.005586 0.002392 0.150000
vertex 0.002007 0.006964 0.150000
vertex 0.001950 0.006876 0.150000
endloop
endfacet
facet normal 0.000000 0.000000 1.000000
outer loop
vertex 0.001506 0.006237 0.150000
vertex 0.000434 0.004254 0.150000
vertex 0.005586 0.002392 0.150000
endloop
endfacet
facet normal 0.000000 0.000000 1.000000
outer loop
vertex 0.001631 0.006409 0.150000
vertex 0.001506 0.006237 0.150000
vertex 0.005586 0.002392 0.150000
endloop
endfacet
facet normal -0.000036 0.000000 1.000000
outer loop
vertex 0.005586 0.002392 0.150000
vertex 0.001950 0.006876 0.150000
vertex 0.001890 0.006784 0.150000
endloop
endfacet
facet normal 0.000000 0.000000 1.000000
outer loop
vertex 0.001762 0.006595 0.150000
vertex 0.001631 0.006409 0.150000
vertex 0.005586 0.002392 0.150000
endloop
endfacet
facet normal 0.000000 0.000000 1.000000
outer loop
vertex 0.001890 0.006784 0.150000
vertex 0.001762 0.006595 0.150000
vertex 0.005586 0.002392 0.150000
endloop
endfacet
facet normal -0.964733 -0.263230 0.000000
outer loop
vertex 0.000035 0.001980 0.150000
vertex 0.000035 0.001980 0.000000
vertex 0.000069 0.001855 0.000000
endloop
endfacet
facet normal -0.964733 -0.263230 0.000000
outer loop
vertex 0.000035 0.001980 0.150000
vertex 0.000069 0.001855 0.000000
vertex 0.000069 0.001855 0.150000
endloop
endfacet
endsolid Exported from Blender-3.6.8
