solid Exported from Blender-3.6.8
facet normal -0.234373 0.972147 0.000000
outer loop
vertex 0.004034 0.007003 0.000000
vertex 0.003937 0.006979 0.000000
vertex 0.003937 0.006979 0.150000
endloop
endfacet
facet normal -0.234373 0.972147 0.000000
outer loop
vertex 0.004034 0.007003 0.000000
vertex 0.003937 0.006979 0.150000
vertex 0.004034 0.007003 0.150000
endloop
endfacet
facet normal -0.192953 0.981208 0.000000
outer loop
vertex 0.004137 0.007023 0.000000
vertex 0.004034 0.007003 0.000000
vertex 0.004034 0.007003 0.150000
endloop
endfacet
facet normal -0.192950 0.981209 0.000000
outer loop
vertex 0.004137 0.007023 0.000000
vertex 0.004034 0.007003 0.150000
vertex 0.004137 0.007023 0.150000
endloop
endfacet
facet normal -0.162625 0.986688 0.000000
outer loop
vertex 0.004246 0.007041 0.000000
vertex 0.004137 0.007023 0.000000
vertex 0.004137 0.007023 0.150000
endloop
endfacet
facet normal -0.162623 0.986688 0.000000
outer loop
vertex 0.004246 0.007041 0.000000
vertex 0.004137 0.007023 0.150000
vertex 0.004246 0.007041 0.150000
endloop
endfacet
facet normal -0.142177 0.989841 0.000000
outer loop
vertex 0.004361 0.007057 0.000000
vertex 0.004246 0.007041 0.000000
vertex 0.004246 0.007041 0.150000
endloop
endfacet
facet normal -0.142177 0.989841 0.000000
outer loop
vertex 0.004361 0.007057 0.000000
vertex 0.004246 0.007041 0.150000
vertex 0.004361 0.007057 0.150000
endloop
endfacet
facet normal 0.000000 0.000000 -1.000000
outer loop
vertex 0.004742 0.007107 0.000000
vertex 0.004609 0.007089 0.000000
vertex 0.004482 0.007073 0.000000
endloop
endfacet
facet normal -0.130407 0.991461 0.000000
outer loop
vertex 0.004482 0.007073 0.000000
vertex 0.004361 0.007057 0.000000
vertex 0.004361 0.007057 0.150000
endloop
endfacet
facet normal -0.130409 0.991460 0.000000
outer loop
vertex 0.004482 0.007073 0.000000
vertex 0.004361 0.007057 0.150000
vertex 0.004482 0.007073 0.150000
endloop
endfacet
facet normal 0.000000 0.000000 -1.000000
outer loop
vertex 0.004880 0.007126 0.000000
vertex 0.004742 0.007107 0.000000
vertex 0.004482 0.007073 0.000000
endloop
endfacet
facet normal -0.122500 0.992469 0.000000
outer loop
vertex 0.005169 0.007165 0.150000
vertex 0.005169 0.007165 0.000000
vertex 0.005024 0.007148 0.000000
endloop
endfacet
facet normal 0.000000 0.000000 -1.000000
outer loop
vertex 0.005024 0.007148 0.000000
vertex 0.004880 0.007126 0.000000
vertex 0.004482 0.007073 0.000000
endloop
endfacet
facet normal -0.126221 0.992002 0.000000
outer loop
vertex 0.004482 0.007073 0.000000
vertex 0.004482 0.007073 0.150000
vertex 0.004609 0.007089 0.150000
endloop
endfacet
facet normal -0.128653 0.991690 0.000002
outer loop
vertex 0.004482 0.007073 0.000000
vertex 0.004609 0.007089 0.150000
vertex 0.004742 0.007107 0.150000
endloop
endfacet
facet normal -0.135891 0.990724 0.000013
outer loop
vertex 0.005169 0.007165 0.150000
vertex 0.005024 0.007148 0.000000
vertex 0.004482 0.007073 0.000000
endloop
endfacet
facet normal -0.122500 0.992468 -0.000049
outer loop
vertex 0.005024 0.007148 0.150000
vertex 0.005169 0.007165 0.150000
vertex 0.004482 0.007073 0.000000
endloop
endfacet
facet normal -0.136848 0.990592 0.000017
outer loop
vertex 0.004482 0.007073 0.000000
vertex 0.004742 0.007107 0.150000
vertex 0.004880 0.007126 0.150000
endloop
endfacet
facet normal -0.150061 0.988677 0.000052
outer loop
vertex 0.004880 0.007126 0.150000
vertex 0.005024 0.007148 0.150000
vertex 0.004482 0.007073 0.000000
endloop
endfacet
facet normal -0.996816 -0.079741 0.000000
outer loop
vertex 0.000000 0.002539 0.000000
vertex 0.000019 0.002300 0.000000
vertex 0.000019 0.002300 0.150000
endloop
endfacet
facet normal -0.996816 -0.079741 0.000000
outer loop
vertex 0.000000 0.002539 0.000000
vertex 0.000019 0.002300 0.150000
vertex 0.000000 0.002539 0.150000
endloop
endfacet
facet normal 0.000000 0.000000 -1.000000
outer loop
vertex 0.007875 0.006047 0.000000
vertex 0.008068 0.005823 0.000000
vertex 0.008143 0.005714 0.000000
endloop
endfacet
facet normal 0.000000 0.000000 -1.000000
outer loop
vertex 0.008143 0.005714 0.000000
vertex 0.008262 0.005492 0.000000
vertex 0.008352 0.005260 0.000000
endloop
endfacet
facet normal 0.000000 0.000000 -1.000000
outer loop
vertex 0.008352 0.005260 0.000000
vertex 0.008536 0.004574 0.000000
vertex 0.008548 0.004413 0.000000
endloop
endfacet
facet normal 0.000000 0.000000 -1.000000
outer loop
vertex 0.008548 0.004413 0.000000
vertex 0.008542 0.004246 0.000000
vertex 0.008522 0.004076 0.000000
endloop
endfacet
facet normal 0.000000 0.000000 -1.000000
outer loop
vertex 0.008522 0.004076 0.000000
vertex 0.008443 0.003731 0.000000
vertex 0.008390 0.003561 0.000000
endloop
endfacet
facet normal 0.000000 0.000000 -1.000000
outer loop
vertex 0.008390 0.003561 0.000000
vertex 0.008330 0.003394 0.000000
vertex 0.008267 0.003233 0.000000
endloop
endfacet
facet normal 0.000000 0.000000 -1.000000
outer loop
vertex 0.008267 0.003233 0.000000
vertex 0.008201 0.003079 0.000000
vertex 0.008073 0.002800 0.000000
endloop
endfacet
facet normal 0.000000 0.000000 -1.000000
outer loop
vertex 0.008073 0.002800 0.000000
vertex 0.007926 0.002535 0.000000
vertex 0.007837 0.002397 0.000000
endloop
endfacet
facet normal 0.000000 0.000000 -1.000000
outer loop
vertex 0.007837 0.002397 0.000000
vertex 0.007739 0.002256 0.000000
vertex 0.007633 0.002112 0.000000
endloop
endfacet
facet normal 0.000000 0.000000 -1.000000
outer loop
vertex 0.007633 0.002112 0.000000
vertex 0.007523 0.001967 0.000000
vertex 0.006721 0.000969 0.000000
endloop
endfacet
facet normal 0.000000 0.000000 -1.000000
outer loop
vertex 0.006721 0.000969 0.000000
vertex 0.006508 0.000743 0.000000
vertex 0.006300 0.000562 0.000000
endloop
endfacet
facet normal 0.000000 0.000000 -1.000000
outer loop
vertex 0.006300 0.000562 0.000000
vertex 0.006097 0.000415 0.000000
vertex 0.005610 0.000144 0.000000
endloop
endfacet
facet normal 0.000000 0.000000 -1.000000
outer loop
vertex 0.005610 0.000144 0.000000
vertex 0.005512 0.000103 0.000000
vertex 0.005403 0.000070 0.000000
endloop
endfacet
facet normal 0.000000 0.000000 -1.000000
outer loop
vertex 0.005403 0.000070 0.000000
vertex 0.005161 0.000029 0.000000
vertex 0.005028 0.000018 0.000000
endloop
endfacet
facet normal 0.000000 0.000000 -1.000000
outer loop
vertex 0.005028 0.000018 0.000000
vertex 0.004887 0.000012 0.000000
vertex 0.003577 0.000002 0.000000
endloop
endfacet
facet normal 0.000000 0.000000 -1.000000
outer loop
vertex 0.003577 0.000002 0.000000
vertex 0.003416 0.000009 0.000000
vertex 0.003257 0.000022 0.000000
endloop
endfacet
facet normal 0.000000 0.000000 -1.000000
outer loop
vertex 0.003257 0.000022 0.000000
vertex 0.002613 0.000122 0.000000
vertex 0.001410 0.000438 0.000000
endloop
endfacet
facet normal 0.000000 0.000000 -1.000000
outer loop
vertex 0.001410 0.000438 0.000000
vertex 0.001236 0.000517 0.000000
vertex 0.001171 0.000557 0.000000
endloop
endfacet
facet normal 0.000000 0.000000 -1.000000
outer loop
vertex 0.001171 0.000557 0.000000
vertex 0.001112 0.000600 0.000000
vertex 0.000913 0.000764 0.000000
endloop
endfacet
facet normal 0.000000 0.000000 -1.000000
outer loop
vertex 0.000820 0.000836 0.000000
vertex 0.000488 0.001072 0.000000
vertex 0.000411 0.001134 0.000000
endloop
endfacet
facet normal 0.000000 0.000000 -1.000000
outer loop
vertex 0.001410 0.000438 0.000000
vertex 0.001171 0.000557 0.000000
vertex 0.000913 0.000764 0.000000
endloop
endfacet
facet normal 0.000000 0.000000 -1.000000
outer loop
vertex 0.000820 0.000836 0.000000
vertex 0.000411 0.001134 0.000000
vertex 0.000351 0.001192 0.000000
endloop
endfacet
facet normal 0.000000 0.000000 -1.000000
outer loop
vertex 0.001410 0.000438 0.000000
vertex 0.000913 0.000764 0.000000
vertex 0.000820 0.000836 0.000000
endloop
endfacet
facet normal 0.000000 0.000000 -1.000000
outer loop
vertex 0.003577 0.000002 0.000000
vertex 0.003257 0.000022 0.000000
vertex 0.001410 0.000438 0.000000
endloop
endfacet
facet normal 0.000000 0.000000 -1.000000
outer loop
vertex 0.005403 0.000070 0.000000
vertex 0.005028 0.000018 0.000000
vertex 0.003577 0.000002 0.000000
endloop
endfacet
facet normal 0.000000 0.000000 -1.000000
outer loop
vertex 0.006300 0.000562 0.000000
vertex 0.005610 0.000144 0.000000
vertex 0.005403 0.000070 0.000000
endloop
endfacet
facet normal 0.000000 0.000000 -1.000000
outer loop
vertex 0.007633 0.002112 0.000000
vertex 0.006721 0.000969 0.000000
vertex 0.006300 0.000562 0.000000
endloop
endfacet
facet normal 0.000000 0.000000 -1.000000
outer loop
vertex 0.008073 0.002800 0.000000
vertex 0.007837 0.002397 0.000000
vertex 0.007633 0.002112 0.000000
endloop
endfacet
facet normal 0.000000 0.000000 -1.000000
outer loop
vertex 0.008390 0.003561 0.000000
vertex 0.008267 0.003233 0.000000
vertex 0.008073 0.002800 0.000000
endloop
endfacet
facet normal 0.000000 0.000000 -1.000000
outer loop
vertex 0.008548 0.004413 0.000000
vertex 0.008522 0.004076 0.000000
vertex 0.008390 0.003561 0.000000
endloop
endfacet
facet normal 0.000000 0.000000 -1.000000
outer loop
vertex 0.008143 0.005714 0.000000
vertex 0.008352 0.005260 0.000000
vertex 0.008548 0.004413 0.000000
endloop
endfacet
facet normal 0.000000 0.000000 -1.000000
outer loop
vertex 0.007753 0.006164 0.000000
vertex 0.007875 0.006047 0.000000
vertex 0.008143 0.005714 0.000000
endloop
endfacet
facet normal 0.000000 0.000000 -1.000000
outer loop
vertex 0.007205 0.006652 0.000000
vertex 0.007302 0.006571 0.000000
vertex 0.007753 0.006164 0.000000
endloop
endfacet
facet normal 0.000000 0.000000 -1.000000
outer loop
vertex 0.006927 0.006843 0.000000
vertex 0.007112 0.006724 0.000000
vertex 0.007205 0.006652 0.000000
endloop
endfacet
facet normal 0.000000 0.000000 -1.000000
outer loop
vertex 0.006635 0.006959 0.000000
vertex 0.006737 0.006928 0.000000
vertex 0.006927 0.006843 0.000000
endloop
endfacet
facet normal 0.000000 0.000000 -1.000000
outer loop
vertex 0.006415 0.007000 0.000000
vertex 0.006527 0.006981 0.000000
vertex 0.006635 0.006959 0.000000
endloop
endfacet
facet normal 0.000000 0.000000 -1.000000
outer loop
vertex 0.005828 0.007126 0.000000
vertex 0.005950 0.007102 0.000000
vertex 0.006301 0.007024 0.000000
endloop
endfacet
facet normal 0.000000 0.000000 -1.000000
outer loop
vertex 0.006415 0.007000 0.000000
vertex 0.006635 0.006959 0.000000
vertex 0.006927 0.006843 0.000000
endloop
endfacet
facet normal 0.000000 0.000000 -1.000000
outer loop
vertex 0.005704 0.007146 0.000000
vertex 0.005828 0.007126 0.000000
vertex 0.006301 0.007024 0.000000
endloop
endfacet
facet normal 0.000000 0.000000 -1.000000
outer loop
vertex 0.006301 0.007024 0.000000
vertex 0.006415 0.007000 0.000000
vertex 0.006927 0.006843 0.000000
endloop
endfacet
facet normal 0.000000 0.000000 -1.000000
outer loop
vertex 0.006927 0.006843 0.000000
vertex 0.007205 0.006652 0.000000
vertex 0.007753 0.006164 0.000000
endloop
endfacet
facet normal 0.000000 0.000000 -1.000000
outer loop
vertex 0.007753 0.006164 0.000000
vertex 0.008143 0.005714 0.000000
vertex 0.008548 0.004413 0.000000
endloop
endfacet
facet normal 0.000000 0.000000 -1.000000
outer loop
vertex 0.008548 0.004413 0.000000
vertex 0.008390 0.003561 0.000000
vertex 0.008073 0.002800 0.000000
endloop
endfacet
facet normal 0.000000 0.000000 -1.000000
outer loop
vertex 0.008073 0.002800 0.000000
vertex 0.007633 0.002112 0.000000
vertex 0.006300 0.000562 0.000000
endloop
endfacet
facet normal 0.000000 0.000000 -1.000000
outer loop
vertex 0.006300 0.000562 0.000000
vertex 0.005403 0.000070 0.000000
vertex 0.003577 0.000002 0.000000
endloop
endfacet
facet normal 0.000000 0.000000 -1.000000
outer loop
vertex 0.003577 0.000002 0.000000
vertex 0.001410 0.000438 0.000000
vertex 0.000820 0.000836 0.000000
endloop
endfacet
facet normal 0.000000 0.000000 -1.000000
outer loop
vertex 0.000820 0.000836 0.000000
vertex 0.000351 0.001192 0.000000
vertex 0.000305 0.001249 0.000000
endloop
endfacet
facet normal 0.000000 0.000000 -1.000000
outer loop
vertex 0.000305 0.001249 0.000000
vertex 0.000268 0.001311 0.000000
vertex 0.000238 0.001380 0.000000
endloop
endfacet
facet normal 0.000000 0.000000 -1.000000
outer loop
vertex 0.000238 0.001380 0.000000
vertex 0.000213 0.001462 0.000000
vertex 0.000188 0.001558 0.000000
endloop
endfacet
facet normal 0.000000 0.000000 -1.000000
outer loop
vertex 0.000127 0.001815 0.000000
vertex 0.000085 0.001983 0.000000
vertex 0.000045 0.002153 0.000000
endloop
endfacet
facet normal 0.000000 0.000000 -1.000000
outer loop
vertex 0.000238 0.001380 0.000000
vertex 0.000188 0.001558 0.000000
vertex 0.000127 0.001815 0.000000
endloop
endfacet
facet normal 0.000000 0.000000 -1.000000
outer loop
vertex 0.000820 0.000836 0.000000
vertex 0.000305 0.001249 0.000000
vertex 0.000238 0.001380 0.000000
endloop
endfacet
facet normal 0.000000 0.000000 -1.000000
outer loop
vertex 0.006300 0.000562 0.000000
vertex 0.003577 0.000002 0.000000
vertex 0.000820 0.000836 0.000000
endloop
endfacet
facet normal 0.000000 0.000000 -1.000000
outer loop
vertex 0.008548 0.004413 0.000000
vertex 0.008073 0.002800 0.000000
vertex 0.006300 0.000562 0.000000
endloop
endfacet
facet normal 0.000000 0.000000 -1.000000
outer loop
vertex 0.006927 0.006843 0.000000
vertex 0.007753 0.006164 0.000000
vertex 0.008548 0.004413 0.000000
endloop
endfacet
facet normal 0.000000 0.000000 -1.000000
outer loop
vertex 0.005704 0.007146 0.000000
vertex 0.006301 0.007024 0.000000
vertex 0.006927 0.006843 0.000000
endloop
endfacet
facet normal 0.000000 0.000000 -1.000000
outer loop
vertex 0.005309 0.007173 0.000000
vertex 0.005576 0.007162 0.000000
vertex 0.005704 0.007146 0.000000
endloop
endfacet
facet normal 0.000000 0.000000 -1.000000
outer loop
vertex 0.005024 0.007148 0.000000
vertex 0.005169 0.007165 0.000000
vertex 0.005309 0.007173 0.000000
endloop
endfacet
facet normal 0.000000 0.000000 -1.000000
outer loop
vertex 0.004880 0.007126 0.000000
vertex 0.005024 0.007148 0.000000
vertex 0.005309 0.007173 0.000000
endloop
endfacet
facet normal 0.000000 0.000000 -1.000000
outer loop
vertex 0.005309 0.007173 0.000000
vertex 0.005704 0.007146 0.000000
vertex 0.006927 0.006843 0.000000
endloop
endfacet
facet normal 0.000000 0.000000 -1.000000
outer loop
vertex 0.006927 0.006843 0.000000
vertex 0.008548 0.004413 0.000000
vertex 0.006300 0.000562 0.000000
endloop
endfacet
facet normal 0.000000 0.000000 -1.000000
outer loop
vertex 0.006300 0.000562 0.000000
vertex 0.000820 0.000836 0.000000
vertex 0.000238 0.001380 0.000000
endloop
endfacet
facet normal 0.000000 0.000000 -1.000000
outer loop
vertex 0.000238 0.001380 0.000000
vertex 0.000127 0.001815 0.000000
vertex 0.000045 0.002153 0.000000
endloop
endfacet
facet normal 0.000000 0.000000 -1.000000
outer loop
vertex 0.000045 0.002153 0.000000
vertex 0.000019 0.002300 0.000000
vertex 0.000000 0.002539 0.000000
endloop
endfacet
facet normal 0.000000 0.000000 -1.000000
outer loop
vertex 0.000000 0.002539 0.000000
vertex 0.000003 0.002639 0.000000
vertex 0.000058 0.003083 0.000000
endloop
endfacet
facet normal 0.000000 0.000000 -1.000000
outer loop
vertex 0.000058 0.003083 0.000000
vertex 0.000065 0.003423 0.000000
vertex 0.000086 0.003538 0.000000
endloop
endfacet
facet normal 0.000000 0.000000 -1.000000
outer loop
vertex 0.000086 0.003538 0.000000
vertex 0.000122 0.003647 0.000000
vertex 0.000171 0.003751 0.000000
endloop
endfacet
facet normal 0.000000 0.000000 -1.000000
outer loop
vertex 0.000171 0.003751 0.000000
vertex 0.000298 0.003949 0.000000
vertex 0.000680 0.004414 0.000000
endloop
endfacet
facet normal 0.000000 0.000000 -1.000000
outer loop
vertex 0.000680 0.004414 0.000000
vertex 0.000838 0.004622 0.000000
vertex 0.000971 0.004770 0.000000
endloop
endfacet
facet normal 0.000000 0.000000 -1.000000
outer loop
vertex 0.000971 0.004770 0.000000
vertex 0.001136 0.004943 0.000000
vertex 0.001325 0.005134 0.000000
endloop
endfacet
facet normal 0.000000 0.000000 -1.000000
outer loop
vertex 0.001325 0.005134 0.000000
vertex 0.001935 0.005725 0.000000
vertex 0.002523 0.006274 0.000000
endloop
endfacet
facet normal 0.000000 0.000000 -1.000000
outer loop
vertex 0.002523 0.006274 0.000000
vertex 0.003760 0.006919 0.000000
vertex 0.003937 0.006979 0.000000
endloop
endfacet
facet normal 0.000000 0.000000 -1.000000
outer loop
vertex 0.003937 0.006979 0.000000
vertex 0.004034 0.007003 0.000000
vertex 0.004137 0.007023 0.000000
endloop
endfacet
facet normal 0.000000 0.000000 -1.000000
outer loop
vertex 0.004137 0.007023 0.000000
vertex 0.004246 0.007041 0.000000
vertex 0.004361 0.007057 0.000000
endloop
endfacet
facet normal 0.000000 0.000000 -1.000000
outer loop
vertex 0.004361 0.007057 0.000000
vertex 0.004482 0.007073 0.000000
vertex 0.004609 0.007089 0.000000
endloop
endfacet
facet normal 0.000000 0.000000 -1.000000
outer loop
vertex 0.004742 0.007107 0.000000
vertex 0.004880 0.007126 0.000000
vertex 0.005309 0.007173 0.000000
endloop
endfacet
facet normal 0.000000 0.000000 -1.000000
outer loop
vertex 0.004137 0.007023 0.000000
vertex 0.004361 0.007057 0.000000
vertex 0.004609 0.007089 0.000000
endloop
endfacet
facet normal 0.000000 0.000000 -1.000000
outer loop
vertex 0.004609 0.007089 0.000000
vertex 0.004742 0.007107 0.000000
vertex 0.005309 0.007173 0.000000
endloop
endfacet
facet normal 0.000000 0.000000 -1.000000
outer loop
vertex 0.005309 0.007173 0.000000
vertex 0.006927 0.006843 0.000000
vertex 0.006300 0.000562 0.000000
endloop
endfacet
facet normal 0.000000 0.000000 -1.000000
outer loop
vertex 0.006300 0.000562 0.000000
vertex 0.000238 0.001380 0.000000
vertex 0.000045 0.002153 0.000000
endloop
endfacet
facet normal 0.000000 0.000000 -1.000000
outer loop
vertex 0.000045 0.002153 0.000000
vertex 0.000000 0.002539 0.000000
vertex 0.000058 0.003083 0.000000
endloop
endfacet
facet normal 0.000000 0.000000 -1.000000
outer loop
vertex 0.000058 0.003083 0.000000
vertex 0.000086 0.003538 0.000000
vertex 0.000171 0.003751 0.000000
endloop
endfacet
facet normal 0.000000 0.000000 -1.000000
outer loop
vertex 0.000171 0.003751 0.000000
vertex 0.000680 0.004414 0.000000
vertex 0.000971 0.004770 0.000000
endloop
endfacet
facet normal 0.000000 0.000000 -1.000000
outer loop
vertex 0.000971 0.004770 0.000000
vertex 0.001325 0.005134 0.000000
vertex 0.002523 0.006274 0.000000
endloop
endfacet
facet normal 0.000000 0.000000 -1.000000
outer loop
vertex 0.002523 0.006274 0.000000
vertex 0.003937 0.006979 0.000000
vertex 0.004137 0.007023 0.000000
endloop
endfacet
facet normal 0.000000 0.000000 -1.000000
outer loop
vertex 0.004137 0.007023 0.000000
vertex 0.004609 0.007089 0.000000
vertex 0.005309 0.007173 0.000000
endloop
endfacet
facet normal 0.000000 0.000000 -1.000000
outer loop
vertex 0.005309 0.007173 0.000000
vertex 0.006300 0.000562 0.000000
vertex 0.000045 0.002153 0.000000
endloop
endfacet
facet normal 0.000000 0.000000 -1.000000
outer loop
vertex 0.000045 0.002153 0.000000
vertex 0.000058 0.003083 0.000000
vertex 0.000171 0.003751 0.000000
endloop
endfacet
facet normal 0.000000 0.000000 -1.000000
outer loop
vertex 0.000171 0.003751 0.000000
vertex 0.000971 0.004770 0.000000
vertex 0.002523 0.006274 0.000000
endloop
endfacet
facet normal 0.000000 0.000000 -1.000000
outer loop
vertex 0.002523 0.006274 0.000000
vertex 0.004137 0.007023 0.000000
vertex 0.005309 0.007173 0.000000
endloop
endfacet
facet normal 0.000000 0.000000 -1.000000
outer loop
vertex 0.005309 0.007173 0.000000
vertex 0.000045 0.002153 0.000000
vertex 0.000171 0.003751 0.000000
endloop
endfacet
facet normal 0.000000 0.000000 -1.000000
outer loop
vertex 0.000171 0.003751 0.000000
vertex 0.002523 0.006274 0.000000
vertex 0.005309 0.007173 0.000000
endloop
endfacet
facet normal -0.524763 -0.851248 0.000000
outer loop
vertex 0.001171 0.000557 0.150000
vertex 0.001171 0.000557 0.000000
vertex 0.001236 0.000517 0.000000
endloop
endfacet
facet normal -0.524763 -0.851248 0.000000
outer loop
vertex 0.001171 0.000557 0.150000
vertex 0.001236 0.000517 0.000000
vertex 0.001236 0.000517 0.150000
endloop
endfacet
facet normal -0.411438 -0.911438 0.000000
outer loop
vertex 0.001236 0.000517 0.150000
vertex 0.001236 0.000517 0.000000
vertex 0.001410 0.000438 0.000000
endloop
endfacet
facet normal -0.411438 -0.911438 0.000000
outer loop
vertex 0.001236 0.000517 0.150000
vertex 0.001410 0.000438 0.000000
vertex 0.001410 0.000438 0.150000
endloop
endfacet
facet normal -0.153706 -0.988117 0.000000
outer loop
vertex 0.002613 0.000122 0.000000
vertex 0.003257 0.000022 0.000000
vertex 0.003257 0.000022 0.150000
endloop
endfacet
facet normal -0.153706 -0.988117 0.000000
outer loop
vertex 0.002613 0.000122 0.000000
vertex 0.003257 0.000022 0.150000
vertex 0.002613 0.000122 0.150000
endloop
endfacet
facet normal 0.409461 0.912328 0.000000
outer loop
vertex 0.006927 0.006843 0.150000
vertex 0.006927 0.006843 0.000000
vertex 0.006737 0.006928 0.000000
endloop
endfacet
facet normal 0.409461 0.912328 0.000000
outer loop
vertex 0.006927 0.006843 0.150000
vertex 0.006737 0.006928 0.000000
vertex 0.006737 0.006928 0.150000
endloop
endfacet
facet normal 0.880759 0.473564 0.000000
outer loop
vertex 0.008262 0.005492 0.150000
vertex 0.008262 0.005492 0.000000
vertex 0.008143 0.005714 0.000000
endloop
endfacet
facet normal 0.880754 0.473574 0.000000
outer loop
vertex 0.008262 0.005492 0.150000
vertex 0.008143 0.005714 0.000000
vertex 0.008143 0.005714 0.150000
endloop
endfacet
facet normal 0.284685 0.958621 0.000000
outer loop
vertex 0.006737 0.006928 0.150000
vertex 0.006737 0.006928 0.000000
vertex 0.006635 0.006959 0.000000
endloop
endfacet
facet normal 0.284689 0.958620 0.000000
outer loop
vertex 0.006737 0.006928 0.150000
vertex 0.006635 0.006959 0.000000
vertex 0.006635 0.006959 0.150000
endloop
endfacet
facet normal 0.657061 -0.753838 0.000000
outer loop
vertex 0.006508 0.000743 0.000000
vertex 0.006508 0.000743 0.150000
vertex 0.006300 0.000562 0.150000
endloop
endfacet
facet normal 0.657062 -0.753836 0.000000
outer loop
vertex 0.006508 0.000743 0.000000
vertex 0.006300 0.000562 0.150000
vertex 0.006300 0.000562 0.000000
endloop
endfacet
facet normal 0.932924 0.360073 0.000000
outer loop
vertex 0.008352 0.005260 0.150000
vertex 0.008352 0.005260 0.000000
vertex 0.008262 0.005492 0.000000
endloop
endfacet
facet normal 0.932926 0.360067 0.000000
outer loop
vertex 0.008352 0.005260 0.150000
vertex 0.008262 0.005492 0.000000
vertex 0.008262 0.005492 0.150000
endloop
endfacet
facet normal -0.723873 0.689933 0.000000
outer loop
vertex 0.001136 0.004943 0.000000
vertex 0.000971 0.004770 0.000000
vertex 0.000971 0.004770 0.150000
endloop
endfacet
facet normal -0.723873 0.689933 0.000000
outer loop
vertex 0.001136 0.004943 0.000000
vertex 0.000971 0.004770 0.150000
vertex 0.001136 0.004943 0.150000
endloop
endfacet
facet normal -0.710544 0.703653 0.000000
outer loop
vertex 0.001325 0.005134 0.000000
vertex 0.001136 0.004943 0.000000
vertex 0.001136 0.004943 0.150000
endloop
endfacet
facet normal -0.710544 0.703653 0.000000
outer loop
vertex 0.001325 0.005134 0.000000
vertex 0.001136 0.004943 0.150000
vertex 0.001325 0.005134 0.150000
endloop
endfacet
facet normal -0.682684 0.730713 0.000000
outer loop
vertex 0.002523 0.006274 0.150000
vertex 0.002523 0.006274 0.000000
vertex 0.001935 0.005725 0.000000
endloop
endfacet
facet normal -0.695605 0.718424 0.000000
outer loop
vertex 0.001935 0.005725 0.000000
vertex 0.001325 0.005134 0.000000
vertex 0.001325 0.005134 0.150000
endloop
endfacet
facet normal -0.682685 0.730713 0.000000
outer loop
vertex 0.001935 0.005725 0.150000
vertex 0.002523 0.006274 0.150000
vertex 0.001935 0.005725 0.000000
endloop
endfacet
facet normal -0.695605 0.718424 0.000000
outer loop
vertex 0.001325 0.005134 0.150000
vertex 0.001935 0.005725 0.150000
vertex 0.001935 0.005725 0.000000
endloop
endfacet
facet normal 0.839715 -0.543027 0.000000
outer loop
vertex 0.007837 0.002397 0.000000
vertex 0.007926 0.002535 0.000000
vertex 0.007926 0.002535 0.150000
endloop
endfacet
facet normal 0.839706 -0.543041 0.000000
outer loop
vertex 0.007837 0.002397 0.000000
vertex 0.007926 0.002535 0.150000
vertex 0.007837 0.002397 0.150000
endloop
endfacet
facet normal 0.821402 -0.570349 0.000000
outer loop
vertex 0.007739 0.002256 0.000000
vertex 0.007837 0.002397 0.000000
vertex 0.007837 0.002397 0.150000
endloop
endfacet
facet normal 0.821398 -0.570355 0.000000
outer loop
vertex 0.007739 0.002256 0.000000
vertex 0.007837 0.002397 0.150000
vertex 0.007739 0.002256 0.150000
endloop
endfacet
facet normal 0.806635 -0.591050 0.000000
outer loop
vertex 0.007633 0.002112 0.000000
vertex 0.007739 0.002256 0.000000
vertex 0.007739 0.002256 0.150000
endloop
endfacet
facet normal 0.806635 -0.591050 0.000000
outer loop
vertex 0.007633 0.002112 0.000000
vertex 0.007739 0.002256 0.150000
vertex 0.007633 0.002112 0.150000
endloop
endfacet
facet normal 0.779724 -0.626123 0.000000
outer loop
vertex 0.006721 0.000969 0.150000
vertex 0.006721 0.000969 0.000000
vertex 0.007523 0.001967 0.000000
endloop
endfacet
facet normal 0.795092 -0.606489 0.000000
outer loop
vertex 0.007523 0.001967 0.000000
vertex 0.007633 0.002112 0.000000
vertex 0.007633 0.002112 0.150000
endloop
endfacet
facet normal 0.779724 -0.626123 0.000000
outer loop
vertex 0.007523 0.001967 0.150000
vertex 0.006721 0.000969 0.150000
vertex 0.007523 0.001967 0.000000
endloop
endfacet
facet normal 0.795096 -0.606483 0.000000
outer loop
vertex 0.007633 0.002112 0.150000
vertex 0.007523 0.001967 0.150000
vertex 0.007523 0.001967 0.000000
endloop
endfacet
facet normal 0.999425 -0.033915 0.000000
outer loop
vertex 0.008542 0.004246 0.150000
vertex 0.008542 0.004246 0.000000
vertex 0.008548 0.004413 0.000000
endloop
endfacet
facet normal 0.999425 -0.033906 0.000000
outer loop
vertex 0.008542 0.004246 0.150000
vertex 0.008548 0.004413 0.000000
vertex 0.008548 0.004413 0.150000
endloop
endfacet
facet normal 0.543082 0.839679 0.000000
outer loop
vertex 0.007112 0.006724 0.000000
vertex 0.006927 0.006843 0.000000
vertex 0.006927 0.006843 0.150000
endloop
endfacet
facet normal 0.543079 0.839681 0.000000
outer loop
vertex 0.007112 0.006724 0.000000
vertex 0.006927 0.006843 0.150000
vertex 0.007112 0.006724 0.150000
endloop
endfacet
facet normal 0.997354 0.072701 0.000000
outer loop
vertex 0.008548 0.004413 0.150000
vertex 0.008548 0.004413 0.000000
vertex 0.008536 0.004574 0.000000
endloop
endfacet
facet normal 0.997353 0.072711 0.000000
outer loop
vertex 0.008548 0.004413 0.150000
vertex 0.008536 0.004574 0.000000
vertex 0.008536 0.004574 0.150000
endloop
endfacet
facet normal -0.999799 0.020054 0.000000
outer loop
vertex 0.000058 0.003083 0.000000
vertex 0.000058 0.003083 0.150000
vertex 0.000065 0.003423 0.150000
endloop
endfacet
facet normal -0.999799 0.020054 0.000000
outer loop
vertex 0.000058 0.003083 0.000000
vertex 0.000065 0.003423 0.150000
vertex 0.000065 0.003423 0.000000
endloop
endfacet
facet normal 0.486811 -0.873507 0.000000
outer loop
vertex 0.006097 0.000415 0.000000
vertex 0.006097 0.000415 0.150000
vertex 0.005610 0.000144 0.150000
endloop
endfacet
facet normal 0.486812 -0.873507 0.000000
outer loop
vertex 0.006097 0.000415 0.000000
vertex 0.005610 0.000144 0.150000
vertex 0.005610 0.000144 0.000000
endloop
endfacet
facet normal -0.694795 -0.719208 0.000000
outer loop
vertex 0.000351 0.001192 0.150000
vertex 0.000351 0.001192 0.000000
vertex 0.000411 0.001134 0.000000
endloop
endfacet
facet normal -0.694795 -0.719207 0.000000
outer loop
vertex 0.000351 0.001192 0.150000
vertex 0.000411 0.001134 0.000000
vertex 0.000411 0.001134 0.150000
endloop
endfacet
facet normal 0.041131 0.999154 0.000000
outer loop
vertex 0.005576 0.007162 0.150000
vertex 0.005576 0.007162 0.000000
vertex 0.005309 0.007173 0.000000
endloop
endfacet
facet normal 0.041131 0.999154 0.000000
outer loop
vertex 0.005576 0.007162 0.150000
vertex 0.005309 0.007173 0.000000
vertex 0.005309 0.007173 0.150000
endloop
endfacet
facet normal 0.874925 -0.484259 0.000000
outer loop
vertex 0.007926 0.002535 0.000000
vertex 0.008073 0.002800 0.000000
vertex 0.008073 0.002800 0.150000
endloop
endfacet
facet normal 0.874920 -0.484267 0.000000
outer loop
vertex 0.007926 0.002535 0.000000
vertex 0.008073 0.002800 0.150000
vertex 0.007926 0.002535 0.150000
endloop
endfacet
facet normal -0.999611 0.027894 0.000000
outer loop
vertex 0.000003 0.002639 0.150000
vertex 0.000003 0.002639 0.000000
vertex 0.000000 0.002539 0.000000
endloop
endfacet
facet normal -0.999611 0.027894 0.000000
outer loop
vertex 0.000003 0.002639 0.150000
vertex 0.000000 0.002539 0.000000
vertex 0.000000 0.002539 0.150000
endloop
endfacet
facet normal 0.757415 0.652934 0.000000
outer loop
vertex 0.008068 0.005823 0.150000
vertex 0.008068 0.005823 0.000000
vertex 0.007875 0.006047 0.000000
endloop
endfacet
facet normal 0.757415 0.652934 0.000000
outer loop
vertex 0.008068 0.005823 0.150000
vertex 0.007875 0.006047 0.000000
vertex 0.007875 0.006047 0.150000
endloop
endfacet
facet normal -0.777941 -0.628338 0.000000
outer loop
vertex 0.000305 0.001249 0.150000
vertex 0.000305 0.001249 0.000000
vertex 0.000351 0.001192 0.000000
endloop
endfacet
facet normal -0.777941 -0.628338 0.000000
outer loop
vertex 0.000305 0.001249 0.150000
vertex 0.000351 0.001192 0.000000
vertex 0.000351 0.001192 0.150000
endloop
endfacet
facet normal -0.841183 0.540751 0.000000
outer loop
vertex 0.000298 0.003949 0.150000
vertex 0.000298 0.003949 0.000000
vertex 0.000171 0.003751 0.000000
endloop
endfacet
facet normal -0.841183 0.540751 0.000000
outer loop
vertex 0.000298 0.003949 0.150000
vertex 0.000171 0.003751 0.000000
vertex 0.000171 0.003751 0.150000
endloop
endfacet
facet normal -0.992283 0.123993 0.000000
outer loop
vertex 0.000058 0.003083 0.000000
vertex 0.000003 0.002639 0.000000
vertex 0.000003 0.002639 0.150000
endloop
endfacet
facet normal -0.992283 0.123993 0.000000
outer loop
vertex 0.000058 0.003083 0.000000
vertex 0.000003 0.002639 0.150000
vertex 0.000058 0.003083 0.150000
endloop
endfacet
facet normal 0.389884 -0.920864 0.000000
outer loop
vertex 0.005512 0.000103 0.150000
vertex 0.005512 0.000103 0.000000
vertex 0.005610 0.000144 0.000000
endloop
endfacet
facet normal 0.389884 -0.920864 0.000000
outer loop
vertex 0.005512 0.000103 0.150000
vertex 0.005610 0.000144 0.000000
vertex 0.005610 0.000144 0.150000
endloop
endfacet
facet normal 0.584452 -0.811428 0.000000
outer loop
vertex 0.006097 0.000415 0.000000
vertex 0.006300 0.000562 0.000000
vertex 0.006300 0.000562 0.150000
endloop
endfacet
facet normal 0.584457 -0.811425 0.000000
outer loop
vertex 0.006097 0.000415 0.000000
vertex 0.006300 0.000562 0.150000
vertex 0.006097 0.000415 0.150000
endloop
endfacet
facet normal 0.120786 0.992679 0.000000
outer loop
vertex 0.005704 0.007146 0.000000
vertex 0.005576 0.007162 0.000000
vertex 0.005576 0.007162 0.150000
endloop
endfacet
facet normal 0.120785 0.992679 0.000000
outer loop
vertex 0.005704 0.007146 0.000000
vertex 0.005576 0.007162 0.150000
vertex 0.005704 0.007146 0.150000
endloop
endfacet
facet normal 0.161540 0.986866 0.000000
outer loop
vertex 0.005828 0.007126 0.000000
vertex 0.005704 0.007146 0.000000
vertex 0.005704 0.007146 0.150000
endloop
endfacet
facet normal 0.161540 0.986866 0.000000
outer loop
vertex 0.005828 0.007126 0.000000
vertex 0.005704 0.007146 0.150000
vertex 0.005828 0.007126 0.150000
endloop
endfacet
facet normal 0.192192 0.981357 0.000000
outer loop
vertex 0.005950 0.007102 0.000000
vertex 0.005828 0.007126 0.000000
vertex 0.005828 0.007126 0.150000
endloop
endfacet
facet normal 0.192194 0.981357 0.000000
outer loop
vertex 0.005950 0.007102 0.000000
vertex 0.005828 0.007126 0.150000
vertex 0.005950 0.007102 0.150000
endloop
endfacet
facet normal 0.217047 0.976161 0.000000
outer loop
vertex 0.006301 0.007024 0.000000
vertex 0.005950 0.007102 0.000000
vertex 0.005950 0.007102 0.150000
endloop
endfacet
facet normal 0.217047 0.976161 0.000000
outer loop
vertex 0.006301 0.007024 0.000000
vertex 0.005950 0.007102 0.150000
vertex 0.006301 0.007024 0.150000
endloop
endfacet
facet normal 0.202883 0.979203 0.000000
outer loop
vertex 0.006415 0.007000 0.000000
vertex 0.006301 0.007024 0.000000
vertex 0.006301 0.007024 0.150000
endloop
endfacet
facet normal 0.202883 0.979203 0.000000
outer loop
vertex 0.006415 0.007000 0.000000
vertex 0.006301 0.007024 0.150000
vertex 0.006415 0.007000 0.150000
endloop
endfacet
facet normal 0.197971 0.980208 0.000000
outer loop
vertex 0.006635 0.006959 0.150000
vertex 0.006635 0.006959 0.000000
vertex 0.006527 0.006981 0.000000
endloop
endfacet
facet normal 0.174629 0.984634 0.000000
outer loop
vertex 0.006527 0.006981 0.000000
vertex 0.006415 0.007000 0.000000
vertex 0.006415 0.007000 0.150000
endloop
endfacet
facet normal 0.197968 0.980209 0.000000
outer loop
vertex 0.006527 0.006981 0.150000
vertex 0.006635 0.006959 0.150000
vertex 0.006527 0.006981 0.000000
endloop
endfacet
facet normal 0.174630 0.984634 0.000000
outer loop
vertex 0.006415 0.007000 0.150000
vertex 0.006527 0.006981 0.150000
vertex 0.006527 0.006981 0.000000
endloop
endfacet
facet normal 0.823877 0.566768 0.000000
outer loop
vertex 0.008143 0.005714 0.150000
vertex 0.008143 0.005714 0.000000
vertex 0.008068 0.005823 0.000000
endloop
endfacet
facet normal 0.823883 0.566760 0.000000
outer loop
vertex 0.008143 0.005714 0.150000
vertex 0.008068 0.005823 0.000000
vertex 0.008068 0.005823 0.150000
endloop
endfacet
facet normal 0.000000 0.000000 -1.000000
outer loop
vertex 0.000085 0.001983 0.000000
vertex 0.000127 0.001815 0.000000
vertex 0.000188 0.001558 0.000000
endloop
endfacet
facet normal -0.953193 -0.302362 0.000000
outer loop
vertex 0.000213 0.001462 0.000000
vertex 0.000238 0.001380 0.000000
vertex 0.000238 0.001380 0.150000
endloop
endfacet
facet normal -0.968118 -0.250495 0.000031
outer loop
vertex 0.000188 0.001558 0.000000
vertex 0.000213 0.001462 0.000000
vertex 0.000238 0.001380 0.150000
endloop
endfacet
facet normal -0.953193 -0.302362 -0.000036
outer loop
vertex 0.000188 0.001558 0.000000
vertex 0.000238 0.001380 0.150000
vertex 0.000213 0.001462 0.150000
endloop
endfacet
facet normal -0.971997 -0.234994 0.000011
outer loop
vertex 0.000085 0.001983 0.000000
vertex 0.000188 0.001558 0.000000
vertex 0.000213 0.001462 0.150000
endloop
endfacet
facet normal -0.968118 -0.250495 -0.000046
outer loop
vertex 0.000085 0.001983 0.000000
vertex 0.000213 0.001462 0.150000
vertex 0.000188 0.001558 0.150000
endloop
endfacet
facet normal -0.984656 -0.174509 0.000000
outer loop
vertex 0.000019 0.002300 0.150000
vertex 0.000019 0.002300 0.000000
vertex 0.000045 0.002153 0.000000
endloop
endfacet
facet normal -0.973703 -0.227822 0.000021
outer loop
vertex 0.000045 0.002153 0.000000
vertex 0.000085 0.001983 0.000000
vertex 0.000188 0.001558 0.150000
endloop
endfacet
facet normal -0.973173 -0.230076 0.000012
outer loop
vertex 0.000045 0.002153 0.000000
vertex 0.000188 0.001558 0.150000
vertex 0.000127 0.001815 0.150000
endloop
endfacet
facet normal -0.984656 -0.174509 0.000000
outer loop
vertex 0.000045 0.002153 0.150000
vertex 0.000019 0.002300 0.150000
vertex 0.000045 0.002153 0.000000
endloop
endfacet
facet normal -0.970155 -0.242485 -0.000018
outer loop
vertex 0.000045 0.002153 0.000000
vertex 0.000127 0.001815 0.150000
vertex 0.000085 0.001983 0.150000
endloop
endfacet
facet normal -0.973703 -0.227822 0.000000
outer loop
vertex 0.000085 0.001983 0.150000
vertex 0.000045 0.002153 0.150000
vertex 0.000045 0.002153 0.000000
endloop
endfacet
facet normal -0.772836 0.634605 0.000000
outer loop
vertex 0.000680 0.004414 0.000000
vertex 0.000298 0.003949 0.000000
vertex 0.000298 0.003949 0.150000
endloop
endfacet
facet normal -0.772836 0.634605 0.000000
outer loop
vertex 0.000680 0.004414 0.000000
vertex 0.000298 0.003949 0.150000
vertex 0.000680 0.004414 0.150000
endloop
endfacet
facet normal 0.000000 0.000000 1.000000
outer loop
vertex 0.000971 0.004770 0.000000
vertex 0.000838 0.004622 0.000000
vertex 0.000680 0.004414 0.000000
endloop
endfacet
facet normal -0.745521 0.666482 0.000000
outer loop
vertex 0.000838 0.004622 0.150000
vertex 0.000971 0.004770 0.150000
vertex 0.000971 0.004770 0.000000
endloop
endfacet
facet normal -0.795309 0.606204 0.000000
outer loop
vertex 0.000680 0.004414 0.000000
vertex 0.000680 0.004414 0.150000
vertex 0.000838 0.004622 0.150000
endloop
endfacet
facet normal -0.774409 0.632686 -0.000059
outer loop
vertex 0.000680 0.004414 0.000000
vertex 0.000838 0.004622 0.150000
vertex 0.000971 0.004770 0.000000
endloop
endfacet
facet normal 0.965727 0.259559 0.000000
outer loop
vertex 0.008536 0.004574 0.000000
vertex 0.008352 0.005260 0.000000
vertex 0.008352 0.005260 0.150000
endloop
endfacet
facet normal 0.965728 0.259555 0.000000
outer loop
vertex 0.008536 0.004574 0.000000
vertex 0.008352 0.005260 0.150000
vertex 0.008536 0.004574 0.150000
endloop
endfacet
facet normal -0.860076 -0.510165 0.000000
outer loop
vertex 0.000268 0.001311 0.150000
vertex 0.000268 0.001311 0.000000
vertex 0.000305 0.001249 0.000000
endloop
endfacet
facet normal -0.860076 -0.510165 0.000000
outer loop
vertex 0.000268 0.001311 0.150000
vertex 0.000305 0.001249 0.000000
vertex 0.000305 0.001249 0.150000
endloop
endfacet
facet normal 0.082186 -0.996617 0.000000
outer loop
vertex 0.005028 0.000018 0.000000
vertex 0.005161 0.000029 0.000000
vertex 0.005161 0.000029 0.150000
endloop
endfacet
facet normal 0.082186 -0.996617 0.000000
outer loop
vertex 0.005028 0.000018 0.000000
vertex 0.005161 0.000029 0.150000
vertex 0.005028 0.000018 0.150000
endloop
endfacet
facet normal 0.045031 -0.998986 0.000000
outer loop
vertex 0.004887 0.000012 0.000000
vertex 0.005028 0.000018 0.000000
vertex 0.005028 0.000018 0.150000
endloop
endfacet
facet normal 0.045031 -0.998986 0.000000
outer loop
vertex 0.004887 0.000012 0.000000
vertex 0.005028 0.000018 0.150000
vertex 0.004887 0.000012 0.150000
endloop
endfacet
facet normal 0.007698 -0.999970 0.000000
outer loop
vertex 0.003577 0.000002 0.000000
vertex 0.004887 0.000012 0.000000
vertex 0.004887 0.000012 0.150000
endloop
endfacet
facet normal 0.007698 -0.999970 0.000000
outer loop
vertex 0.003577 0.000002 0.000000
vertex 0.004887 0.000012 0.150000
vertex 0.003577 0.000002 0.150000
endloop
endfacet
facet normal -0.077809 -0.996968 0.000000
outer loop
vertex 0.003257 0.000022 0.150000
vertex 0.003257 0.000022 0.000000
vertex 0.003416 0.000009 0.000000
endloop
endfacet
facet normal -0.044762 -0.998998 0.000000
outer loop
vertex 0.003416 0.000009 0.000000
vertex 0.003577 0.000002 0.000000
vertex 0.003577 0.000002 0.150000
endloop
endfacet
facet normal -0.077809 -0.996968 0.000000
outer loop
vertex 0.003416 0.000009 0.150000
vertex 0.003257 0.000022 0.150000
vertex 0.003416 0.000009 0.000000
endloop
endfacet
facet normal -0.044762 -0.998998 0.000000
outer loop
vertex 0.003577 0.000002 0.150000
vertex 0.003416 0.000009 0.150000
vertex 0.003416 0.000009 0.000000
endloop
endfacet
facet normal -0.254517 -0.967068 0.000000
outer loop
vertex 0.001410 0.000438 0.000000
vertex 0.002613 0.000122 0.000000
vertex 0.002613 0.000122 0.150000
endloop
endfacet
facet normal -0.254517 -0.967068 0.000000
outer loop
vertex 0.001410 0.000438 0.000000
vertex 0.002613 0.000122 0.150000
vertex 0.001410 0.000438 0.150000
endloop
endfacet
facet normal 0.000000 0.000000 1.000000
outer loop
vertex 0.005704 0.007146 0.150000
vertex 0.005576 0.007162 0.150000
vertex 0.005309 0.007173 0.150000
endloop
endfacet
facet normal 0.000000 0.000000 1.000000
outer loop
vertex 0.005309 0.007173 0.150000
vertex 0.005169 0.007165 0.150000
vertex 0.005024 0.007148 0.150000
endloop
endfacet
facet normal 0.000000 0.000000 1.000000
outer loop
vertex 0.005309 0.007173 0.150000
vertex 0.005024 0.007148 0.150000
vertex 0.004880 0.007126 0.150000
endloop
endfacet
facet normal 0.000000 0.000000 1.000000
outer loop
vertex 0.005828 0.007126 0.150000
vertex 0.005704 0.007146 0.150000
vertex 0.005309 0.007173 0.150000
endloop
endfacet
facet normal -0.001607 0.000000 0.999999
outer loop
vertex 0.006301 0.007024 0.150000
vertex 0.005950 0.007102 0.150000
vertex 0.005828 0.007126 0.150000
endloop
endfacet
facet normal 0.001523 0.000000 0.999999
outer loop
vertex 0.006635 0.006959 0.150000
vertex 0.006527 0.006981 0.150000
vertex 0.006415 0.007000 0.150000
endloop
endfacet
facet normal 0.000000 0.000000 1.000000
outer loop
vertex 0.006301 0.007024 0.150000
vertex 0.005828 0.007126 0.150000
vertex 0.005309 0.007173 0.150000
endloop
endfacet
facet normal -0.000377 0.000000 1.000000
outer loop
vertex 0.006737 0.006928 0.150000
vertex 0.006635 0.006959 0.150000
vertex 0.006415 0.007000 0.150000
endloop
endfacet
facet normal 0.000000 0.000000 1.000000
outer loop
vertex 0.006415 0.007000 0.150000
vertex 0.006301 0.007024 0.150000
vertex 0.005309 0.007173 0.150000
endloop
endfacet
facet normal 0.000543 0.000000 1.000000
outer loop
vertex 0.005309 0.007173 0.150000
vertex 0.004880 0.007126 0.150000
vertex 0.004742 0.007107 0.150000
endloop
endfacet
facet normal 0.000000 0.000000 1.000000
outer loop
vertex 0.004609 0.007089 0.150000
vertex 0.004482 0.007073 0.150000
vertex 0.004361 0.007057 0.150000
endloop
endfacet
facet normal -0.001403 0.000000 0.999999
outer loop
vertex 0.005309 0.007173 0.150000
vertex 0.004742 0.007107 0.150000
vertex 0.004609 0.007089 0.150000
endloop
endfacet
facet normal 0.000151 0.000000 1.000000
outer loop
vertex 0.006737 0.006928 0.150000
vertex 0.006415 0.007000 0.150000
vertex 0.005309 0.007173 0.150000
endloop
endfacet
facet normal -0.000262 0.000000 1.000000
outer loop
vertex 0.007112 0.006724 0.150000
vertex 0.006927 0.006843 0.150000
vertex 0.006737 0.006928 0.150000
endloop
endfacet
facet normal 0.000000 0.000000 1.000000
outer loop
vertex 0.007302 0.006571 0.150000
vertex 0.007205 0.006652 0.150000
vertex 0.007112 0.006724 0.150000
endloop
endfacet
facet normal -0.004649 0.000000 0.999989
outer loop
vertex 0.007875 0.006047 0.150000
vertex 0.007753 0.006164 0.150000
vertex 0.007302 0.006571 0.150000
endloop
endfacet
facet normal 0.000000 0.000000 1.000000
outer loop
vertex 0.008143 0.005714 0.150000
vertex 0.008068 0.005823 0.150000
vertex 0.007875 0.006047 0.150000
endloop
endfacet
facet normal 0.000935 0.000000 1.000000
outer loop
vertex 0.008352 0.005260 0.150000
vertex 0.008262 0.005492 0.150000
vertex 0.008143 0.005714 0.150000
endloop
endfacet
facet normal 0.000000 0.000000 1.000000
outer loop
vertex 0.008548 0.004413 0.150000
vertex 0.008536 0.004574 0.150000
vertex 0.008352 0.005260 0.150000
endloop
endfacet
facet normal 0.001448 0.000000 0.999999
outer loop
vertex 0.008522 0.004076 0.150000
vertex 0.008542 0.004246 0.150000
vertex 0.008548 0.004413 0.150000
endloop
endfacet
facet normal -0.001470 0.000000 0.999999
outer loop
vertex 0.008390 0.003561 0.150000
vertex 0.008443 0.003731 0.150000
vertex 0.008522 0.004076 0.150000
endloop
endfacet
facet normal 0.000000 0.000000 1.000000
outer loop
vertex 0.008267 0.003233 0.150000
vertex 0.008330 0.003394 0.150000
vertex 0.008390 0.003561 0.150000
endloop
endfacet
facet normal 0.000000 0.000000 1.000000
outer loop
vertex 0.008073 0.002800 0.150000
vertex 0.008201 0.003079 0.150000
vertex 0.008267 0.003233 0.150000
endloop
endfacet
facet normal 0.000000 0.000000 1.000000
outer loop
vertex 0.007837 0.002397 0.150000
vertex 0.007926 0.002535 0.150000
vertex 0.008073 0.002800 0.150000
endloop
endfacet
facet normal -0.004672 0.000000 0.999989
outer loop
vertex 0.007633 0.002112 0.150000
vertex 0.007739 0.002256 0.150000
vertex 0.007837 0.002397 0.150000
endloop
endfacet
facet normal 0.003120 0.000000 0.999995
outer loop
vertex 0.006721 0.000969 0.150000
vertex 0.007523 0.001967 0.150000
vertex 0.007633 0.002112 0.150000
endloop
endfacet
facet normal 0.000000 0.000000 1.000000
outer loop
vertex 0.006300 0.000562 0.150000
vertex 0.006508 0.000743 0.150000
vertex 0.006721 0.000969 0.150000
endloop
endfacet
facet normal -0.000226 0.000000 1.000000
outer loop
vertex 0.005610 0.000144 0.150000
vertex 0.006097 0.000415 0.150000
vertex 0.006300 0.000562 0.150000
endloop
endfacet
facet normal -0.000682 0.000000 1.000000
outer loop
vertex 0.005403 0.000070 0.150000
vertex 0.005512 0.000103 0.150000
vertex 0.005610 0.000144 0.150000
endloop
endfacet
facet normal -0.000328 0.000000 1.000000
outer loop
vertex 0.005028 0.000018 0.150000
vertex 0.005161 0.000029 0.150000
vertex 0.005403 0.000070 0.150000
endloop
endfacet
facet normal 0.000000 0.000000 1.000000
outer loop
vertex 0.003577 0.000002 0.150000
vertex 0.004887 0.000012 0.150000
vertex 0.005028 0.000018 0.150000
endloop
endfacet
facet normal 0.000000 0.000000 1.000000
outer loop
vertex 0.003257 0.000022 0.150000
vertex 0.003416 0.000009 0.150000
vertex 0.003577 0.000002 0.150000
endloop
endfacet
facet normal 0.000044 0.000000 1.000000
outer loop
vertex 0.001410 0.000438 0.150000
vertex 0.002613 0.000122 0.150000
vertex 0.003257 0.000022 0.150000
endloop
endfacet
facet normal 0.000000 0.000000 1.000000
outer loop
vertex 0.001171 0.000557 0.150000
vertex 0.001236 0.000517 0.150000
vertex 0.001410 0.000438 0.150000
endloop
endfacet
facet normal -0.002512 0.000000 0.999997
outer loop
vertex 0.000913 0.000764 0.150000
vertex 0.001112 0.000600 0.150000
vertex 0.001171 0.000557 0.150000
endloop
endfacet
facet normal 0.000000 0.000000 1.000000
outer loop
vertex 0.000411 0.001134 0.150000
vertex 0.000488 0.001072 0.150000
vertex 0.000820 0.000836 0.150000
endloop
endfacet
facet normal 0.000192 0.000000 1.000000
outer loop
vertex 0.000913 0.000764 0.150000
vertex 0.001171 0.000557 0.150000
vertex 0.001410 0.000438 0.150000
endloop
endfacet
facet normal -0.001247 0.000000 0.999999
outer loop
vertex 0.000351 0.001192 0.150000
vertex 0.000411 0.001134 0.150000
vertex 0.000820 0.000836 0.150000
endloop
endfacet
facet normal 0.000000 0.000000 1.000000
outer loop
vertex 0.000820 0.000836 0.150000
vertex 0.000913 0.000764 0.150000
vertex 0.001410 0.000438 0.150000
endloop
endfacet
facet normal 0.000065 0.000000 1.000000
outer loop
vertex 0.001410 0.000438 0.150000
vertex 0.003257 0.000022 0.150000
vertex 0.003577 0.000002 0.150000
endloop
endfacet
facet normal -0.000026 0.000000 1.000000
outer loop
vertex 0.003577 0.000002 0.150000
vertex 0.005028 0.000018 0.150000
vertex 0.005403 0.000070 0.150000
endloop
endfacet
facet normal 0.000412 0.000000 1.000000
outer loop
vertex 0.005403 0.000070 0.150000
vertex 0.005610 0.000144 0.150000
vertex 0.006300 0.000562 0.150000
endloop
endfacet
facet normal -0.000264 0.000000 1.000000
outer loop
vertex 0.006300 0.000562 0.150000
vertex 0.006721 0.000969 0.150000
vertex 0.007633 0.002112 0.150000
endloop
endfacet
facet normal 0.000000 0.000000 1.000000
outer loop
vertex 0.007633 0.002112 0.150000
vertex 0.007837 0.002397 0.150000
vertex 0.008073 0.002800 0.150000
endloop
endfacet
facet normal 0.000000 0.000000 1.000000
outer loop
vertex 0.008073 0.002800 0.150000
vertex 0.008267 0.003233 0.150000
vertex 0.008390 0.003561 0.150000
endloop
endfacet
facet normal 0.000237 0.000000 1.000000
outer loop
vertex 0.008390 0.003561 0.150000
vertex 0.008522 0.004076 0.150000
vertex 0.008548 0.004413 0.150000
endloop
endfacet
facet normal 0.000000 0.000000 1.000000
outer loop
vertex 0.008548 0.004413 0.150000
vertex 0.008352 0.005260 0.150000
vertex 0.008143 0.005714 0.150000
endloop
endfacet
facet normal 0.000288 0.000000 1.000000
outer loop
vertex 0.008143 0.005714 0.150000
vertex 0.007875 0.006047 0.150000
vertex 0.007302 0.006571 0.150000
endloop
endfacet
facet normal 0.000000 0.000000 1.000000
outer loop
vertex 0.007302 0.006571 0.150000
vertex 0.007112 0.006724 0.150000
vertex 0.006737 0.006928 0.150000
endloop
endfacet
facet normal -0.000013 0.000000 1.000000
outer loop
vertex 0.006737 0.006928 0.150000
vertex 0.005309 0.007173 0.150000
vertex 0.004609 0.007089 0.150000
endloop
endfacet
facet normal 0.000000 0.000000 1.000000
outer loop
vertex 0.004609 0.007089 0.150000
vertex 0.004361 0.007057 0.150000
vertex 0.004246 0.007041 0.150000
endloop
endfacet
facet normal 0.001267 0.000000 0.999999
outer loop
vertex 0.004246 0.007041 0.150000
vertex 0.004137 0.007023 0.150000
vertex 0.004034 0.007003 0.150000
endloop
endfacet
facet normal 0.000000 0.000000 1.000000
outer loop
vertex 0.004034 0.007003 0.150000
vertex 0.003937 0.006979 0.150000
vertex 0.003760 0.006919 0.150000
endloop
endfacet
facet normal 0.000048 0.000000 1.000000
outer loop
vertex 0.003760 0.006919 0.150000
vertex 0.002523 0.006274 0.150000
vertex 0.001935 0.005725 0.150000
endloop
endfacet
facet normal 0.000000 0.000000 1.000000
outer loop
vertex 0.001935 0.005725 0.150000
vertex 0.001325 0.005134 0.150000
vertex 0.001136 0.004943 0.150000
endloop
endfacet
facet normal 0.002395 0.000000 0.999997
outer loop
vertex 0.001136 0.004943 0.150000
vertex 0.000971 0.004770 0.150000
vertex 0.000838 0.004622 0.150000
endloop
endfacet
facet normal -0.000444 0.000000 1.000000
outer loop
vertex 0.000680 0.004414 0.150000
vertex 0.000298 0.003949 0.150000
vertex 0.000171 0.003751 0.150000
endloop
endfacet
facet normal -0.000664 0.000000 1.000000
outer loop
vertex 0.001136 0.004943 0.150000
vertex 0.000838 0.004622 0.150000
vertex 0.000680 0.004414 0.150000
endloop
endfacet
facet normal 0.000000 0.000000 1.000000
outer loop
vertex 0.003760 0.006919 0.150000
vertex 0.001935 0.005725 0.150000
vertex 0.001136 0.004943 0.150000
endloop
endfacet
facet normal 0.000253 0.000000 1.000000
outer loop
vertex 0.004246 0.007041 0.150000
vertex 0.004034 0.007003 0.150000
vertex 0.003760 0.006919 0.150000
endloop
endfacet
facet normal 0.000017 0.000000 1.000000
outer loop
vertex 0.006737 0.006928 0.150000
vertex 0.004609 0.007089 0.150000
vertex 0.004246 0.007041 0.150000
endloop
endfacet
facet normal -0.000079 0.000000 1.000000
outer loop
vertex 0.008143 0.005714 0.150000
vertex 0.007302 0.006571 0.150000
vertex 0.006737 0.006928 0.150000
endloop
endfacet
facet normal 0.000000 0.000000 1.000000
outer loop
vertex 0.008390 0.003561 0.150000
vertex 0.008548 0.004413 0.150000
vertex 0.008143 0.005714 0.150000
endloop
endfacet
facet normal 0.000125 0.000000 1.000000
outer loop
vertex 0.007633 0.002112 0.150000
vertex 0.008073 0.002800 0.150000
vertex 0.008390 0.003561 0.150000
endloop
endfacet
facet normal -0.000040 0.000000 1.000000
outer loop
vertex 0.005403 0.000070 0.150000
vertex 0.006300 0.000562 0.150000
vertex 0.007633 0.002112 0.150000
endloop
endfacet
facet normal -0.000010 0.000000 1.000000
outer loop
vertex 0.001410 0.000438 0.150000
vertex 0.003577 0.000002 0.150000
vertex 0.005403 0.000070 0.150000
endloop
endfacet
facet normal -0.000311 0.000000 1.000000
outer loop
vertex 0.000351 0.001192 0.150000
vertex 0.000820 0.000836 0.150000
vertex 0.001410 0.000438 0.150000
endloop
endfacet
facet normal 0.002379 0.000000 0.999997
outer loop
vertex 0.000268 0.001311 0.150000
vertex 0.000305 0.001249 0.150000
vertex 0.000351 0.001192 0.150000
endloop
endfacet
facet normal 0.000000 0.000000 1.000000
outer loop
vertex 0.000213 0.001462 0.150000
vertex 0.000238 0.001380 0.150000
vertex 0.000268 0.001311 0.150000
endloop
endfacet
facet normal 0.006558 0.000000 0.999979
outer loop
vertex 0.000127 0.001815 0.150000
vertex 0.000188 0.001558 0.150000
vertex 0.000213 0.001462 0.150000
endloop
endfacet
facet normal 0.007992 0.000000 0.999968
outer loop
vertex 0.000045 0.002153 0.150000
vertex 0.000085 0.001983 0.150000
vertex 0.000127 0.001815 0.150000
endloop
endfacet
facet normal 0.001062 0.000000 0.999999
outer loop
vertex 0.000000 0.002539 0.150000
vertex 0.000019 0.002300 0.150000
vertex 0.000045 0.002153 0.150000
endloop
endfacet
facet normal -0.000423 0.000000 1.000000
outer loop
vertex 0.000058 0.003083 0.150000
vertex 0.000003 0.002639 0.150000
vertex 0.000000 0.002539 0.150000
endloop
endfacet
facet normal 0.000000 0.000000 1.000000
outer loop
vertex 0.000086 0.003538 0.150000
vertex 0.000065 0.003423 0.150000
vertex 0.000058 0.003083 0.150000
endloop
endfacet
facet normal 0.000000 0.000000 1.000000
outer loop
vertex 0.000171 0.003751 0.150000
vertex 0.000122 0.003647 0.150000
vertex 0.000086 0.003538 0.150000
endloop
endfacet
facet normal 0.000443 0.000000 1.000000
outer loop
vertex 0.001136 0.004943 0.150000
vertex 0.000680 0.004414 0.150000
vertex 0.000171 0.003751 0.150000
endloop
endfacet
facet normal 0.000000 0.000000 1.000000
outer loop
vertex 0.004246 0.007041 0.150000
vertex 0.003760 0.006919 0.150000
vertex 0.001136 0.004943 0.150000
endloop
endfacet
facet normal 0.000001 0.000000 1.000000
outer loop
vertex 0.008143 0.005714 0.150000
vertex 0.006737 0.006928 0.150000
vertex 0.004246 0.007041 0.150000
endloop
endfacet
facet normal -0.000029 0.000000 1.000000
outer loop
vertex 0.007633 0.002112 0.150000
vertex 0.008390 0.003561 0.150000
vertex 0.008143 0.005714 0.150000
endloop
endfacet
facet normal 0.000006 0.000000 1.000000
outer loop
vertex 0.001410 0.000438 0.150000
vertex 0.005403 0.000070 0.150000
vertex 0.007633 0.002112 0.150000
endloop
endfacet
facet normal 0.000000 0.000000 1.000000
outer loop
vertex 0.000268 0.001311 0.150000
vertex 0.000351 0.001192 0.150000
vertex 0.001410 0.000438 0.150000
endloop
endfacet
facet normal 0.000000 0.000000 1.000000
outer loop
vertex 0.000127 0.001815 0.150000
vertex 0.000213 0.001462 0.150000
vertex 0.000268 0.001311 0.150000
endloop
endfacet
facet normal -0.000446 0.000000 1.000000
outer loop
vertex 0.000000 0.002539 0.150000
vertex 0.000045 0.002153 0.150000
vertex 0.000127 0.001815 0.150000
endloop
endfacet
facet normal 0.000445 0.000000 1.000000
outer loop
vertex 0.000171 0.003751 0.150000
vertex 0.000086 0.003538 0.150000
vertex 0.000058 0.003083 0.150000
endloop
endfacet
facet normal 0.000131 0.000000 1.000000
outer loop
vertex 0.000058 0.003083 0.150000
vertex 0.000000 0.002539 0.150000
vertex 0.000127 0.001815 0.150000
endloop
endfacet
facet normal 0.000000 0.000000 1.000000
outer loop
vertex 0.000127 0.001815 0.150000
vertex 0.000268 0.001311 0.150000
vertex 0.001410 0.000438 0.150000
endloop
endfacet
facet normal -0.000005 0.000000 1.000000
outer loop
vertex 0.001410 0.000438 0.150000
vertex 0.007633 0.002112 0.150000
vertex 0.008143 0.005714 0.150000
endloop
endfacet
facet normal 0.000000 0.000000 1.000000
outer loop
vertex 0.008143 0.005714 0.150000
vertex 0.004246 0.007041 0.150000
vertex 0.001136 0.004943 0.150000
endloop
endfacet
facet normal 0.000029 0.000000 1.000000
outer loop
vertex 0.001136 0.004943 0.150000
vertex 0.000171 0.003751 0.150000
vertex 0.000058 0.003083 0.150000
endloop
endfacet
facet normal -0.000019 0.000000 1.000000
outer loop
vertex 0.000058 0.003083 0.150000
vertex 0.000127 0.001815 0.150000
vertex 0.001410 0.000438 0.150000
endloop
endfacet
facet normal 0.000001 0.000000 1.000000
outer loop
vertex 0.001410 0.000438 0.150000
vertex 0.008143 0.005714 0.150000
vertex 0.001136 0.004943 0.150000
endloop
endfacet
facet normal 0.000011 0.000000 1.000000
outer loop
vertex 0.001136 0.004943 0.150000
vertex 0.000058 0.003083 0.150000
vertex 0.001410 0.000438 0.150000
endloop
endfacet
facet normal -0.320351 0.947299 0.000000
outer loop
vertex 0.003937 0.006979 0.000000
vertex 0.003760 0.006919 0.000000
vertex 0.003760 0.006919 0.150000
endloop
endfacet
facet normal -0.320349 0.947299 0.000000
outer loop
vertex 0.003937 0.006979 0.000000
vertex 0.003760 0.006919 0.150000
vertex 0.003937 0.006979 0.150000
endloop
endfacet
facet normal -0.949388 0.314105 0.000000
outer loop
vertex 0.000122 0.003647 0.150000
vertex 0.000122 0.003647 0.000000
vertex 0.000086 0.003538 0.000000
endloop
endfacet
facet normal -0.949388 0.314105 0.000000
outer loop
vertex 0.000122 0.003647 0.150000
vertex 0.000086 0.003538 0.000000
vertex 0.000086 0.003538 0.150000
endloop
endfacet
facet normal -0.919975 -0.391977 0.000000
outer loop
vertex 0.000238 0.001380 0.150000
vertex 0.000238 0.001380 0.000000
vertex 0.000268 0.001311 0.000000
endloop
endfacet
facet normal -0.919975 -0.391976 0.000000
outer loop
vertex 0.000238 0.001380 0.150000
vertex 0.000268 0.001311 0.000000
vertex 0.000268 0.001311 0.150000
endloop
endfacet
facet normal -0.052697 0.998611 0.000000
outer loop
vertex 0.005309 0.007173 0.150000
vertex 0.005309 0.007173 0.000000
vertex 0.005169 0.007165 0.000000
endloop
endfacet
facet normal -0.052697 0.998611 0.000000
outer loop
vertex 0.005309 0.007173 0.150000
vertex 0.005169 0.007165 0.000000
vertex 0.005169 0.007165 0.150000
endloop
endfacet
facet normal 0.954567 -0.297998 0.000000
outer loop
vertex 0.008390 0.003561 0.000000
vertex 0.008443 0.003731 0.000000
vertex 0.008443 0.003731 0.150000
endloop
endfacet
facet normal 0.954569 -0.297990 0.000000
outer loop
vertex 0.008390 0.003561 0.000000
vertex 0.008443 0.003731 0.150000
vertex 0.008390 0.003561 0.150000
endloop
endfacet
facet normal 0.941737 -0.336349 0.000000
outer loop
vertex 0.008330 0.003394 0.000000
vertex 0.008390 0.003561 0.000000
vertex 0.008390 0.003561 0.150000
endloop
endfacet
facet normal 0.941737 -0.336349 0.000000
outer loop
vertex 0.008330 0.003394 0.000000
vertex 0.008390 0.003561 0.150000
vertex 0.008330 0.003394 0.150000
endloop
endfacet
facet normal 0.930057 -0.367416 0.000000
outer loop
vertex 0.008267 0.003233 0.000000
vertex 0.008330 0.003394 0.000000
vertex 0.008330 0.003394 0.150000
endloop
endfacet
facet normal 0.930060 -0.367408 0.000000
outer loop
vertex 0.008267 0.003233 0.000000
vertex 0.008330 0.003394 0.150000
vertex 0.008267 0.003233 0.150000
endloop
endfacet
facet normal 0.908354 -0.418202 0.000000
outer loop
vertex 0.008073 0.002800 0.150000
vertex 0.008073 0.002800 0.000000
vertex 0.008201 0.003079 0.000000
endloop
endfacet
facet normal 0.919860 -0.392246 0.000000
outer loop
vertex 0.008201 0.003079 0.000000
vertex 0.008267 0.003233 0.000000
vertex 0.008267 0.003233 0.150000
endloop
endfacet
facet normal 0.908354 -0.418202 0.000000
outer loop
vertex 0.008201 0.003079 0.150000
vertex 0.008073 0.002800 0.150000
vertex 0.008201 0.003079 0.000000
endloop
endfacet
facet normal 0.919860 -0.392246 0.000000
outer loop
vertex 0.008201 0.003079 0.000000
vertex 0.008267 0.003233 0.150000
vertex 0.008201 0.003079 0.150000
endloop
endfacet
facet normal -0.591148 -0.806563 0.000000
outer loop
vertex 0.001112 0.000600 0.000000
vertex 0.001171 0.000557 0.000000
vertex 0.001171 0.000557 0.150000
endloop
endfacet
facet normal -0.591149 -0.806562 0.000000
outer loop
vertex 0.001112 0.000600 0.000000
vertex 0.001171 0.000557 0.150000
vertex 0.001112 0.000600 0.150000
endloop
endfacet
facet normal -0.636644 -0.771158 0.000000
outer loop
vertex 0.000913 0.000764 0.000000
vertex 0.001112 0.000600 0.000000
vertex 0.001112 0.000600 0.150000
endloop
endfacet
facet normal -0.636644 -0.771158 0.000000
outer loop
vertex 0.000913 0.000764 0.000000
vertex 0.001112 0.000600 0.150000
vertex 0.000913 0.000764 0.150000
endloop
endfacet
facet normal -0.608620 -0.793462 0.000000
outer loop
vertex 0.000820 0.000836 0.000000
vertex 0.000913 0.000764 0.000000
vertex 0.000913 0.000764 0.150000
endloop
endfacet
facet normal -0.608620 -0.793462 0.000000
outer loop
vertex 0.000820 0.000836 0.000000
vertex 0.000913 0.000764 0.150000
vertex 0.000820 0.000836 0.150000
endloop
endfacet
facet normal -0.630241 -0.776399 0.000000
outer loop
vertex 0.000411 0.001134 0.150000
vertex 0.000411 0.001134 0.000000
vertex 0.000488 0.001072 0.000000
endloop
endfacet
facet normal -0.578174 -0.815914 0.000000
outer loop
vertex 0.000488 0.001072 0.000000
vertex 0.000820 0.000836 0.000000
vertex 0.000820 0.000836 0.150000
endloop
endfacet
facet normal -0.630242 -0.776399 0.000000
outer loop
vertex 0.000488 0.001072 0.150000
vertex 0.000411 0.001134 0.150000
vertex 0.000488 0.001072 0.000000
endloop
endfacet
facet normal -0.578174 -0.815914 0.000000
outer loop
vertex 0.000820 0.000836 0.150000
vertex 0.000488 0.001072 0.150000
vertex 0.000488 0.001072 0.000000
endloop
endfacet
facet normal 0.166066 -0.986115 0.000000
outer loop
vertex 0.005161 0.000029 0.000000
vertex 0.005403 0.000070 0.000000
vertex 0.005403 0.000070 0.150000
endloop
endfacet
facet normal 0.166066 -0.986115 0.000000
outer loop
vertex 0.005161 0.000029 0.000000
vertex 0.005403 0.000070 0.150000
vertex 0.005161 0.000029 0.150000
endloop
endfacet
facet normal -0.905549 0.424242 0.000000
outer loop
vertex 0.000171 0.003751 0.150000
vertex 0.000171 0.003751 0.000000
vertex 0.000122 0.003647 0.000000
endloop
endfacet
facet normal -0.905549 0.424242 0.000000
outer loop
vertex 0.000171 0.003751 0.150000
vertex 0.000122 0.003647 0.000000
vertex 0.000122 0.003647 0.150000
endloop
endfacet
facet normal 0.975017 -0.222131 0.000000
outer loop
vertex 0.008443 0.003731 0.150000
vertex 0.008443 0.003731 0.000000
vertex 0.008522 0.004076 0.000000
endloop
endfacet
facet normal 0.975018 -0.222127 0.000000
outer loop
vertex 0.008443 0.003731 0.150000
vertex 0.008522 0.004076 0.000000
vertex 0.008522 0.004076 0.150000
endloop
endfacet
facet normal 0.992589 -0.121517 0.000000
outer loop
vertex 0.008522 0.004076 0.150000
vertex 0.008522 0.004076 0.000000
vertex 0.008542 0.004246 0.000000
endloop
endfacet
facet normal 0.992590 -0.121508 0.000000
outer loop
vertex 0.008522 0.004076 0.150000
vertex 0.008542 0.004246 0.000000
vertex 0.008542 0.004246 0.150000
endloop
endfacet
facet normal 0.286002 -0.958229 0.000000
outer loop
vertex 0.005403 0.000070 0.150000
vertex 0.005403 0.000070 0.000000
vertex 0.005512 0.000103 0.000000
endloop
endfacet
facet normal 0.286004 -0.958228 0.000000
outer loop
vertex 0.005403 0.000070 0.150000
vertex 0.005512 0.000103 0.000000
vertex 0.005512 0.000103 0.150000
endloop
endfacet
facet normal 0.610390 0.792101 0.000000
outer loop
vertex 0.007205 0.006652 0.000000
vertex 0.007112 0.006724 0.000000
vertex 0.007112 0.006724 0.150000
endloop
endfacet
facet normal 0.610384 0.792106 0.000000
outer loop
vertex 0.007205 0.006652 0.000000
vertex 0.007112 0.006724 0.150000
vertex 0.007205 0.006652 0.150000
endloop
endfacet
facet normal 0.639729 0.768601 0.000000
outer loop
vertex 0.007302 0.006571 0.000000
vertex 0.007205 0.006652 0.000000
vertex 0.007205 0.006652 0.150000
endloop
endfacet
facet normal 0.639735 0.768596 0.000000
outer loop
vertex 0.007302 0.006571 0.000000
vertex 0.007205 0.006652 0.150000
vertex 0.007302 0.006571 0.150000
endloop
endfacet
facet normal 0.692320 0.721591 0.000000
outer loop
vertex 0.007875 0.006047 0.150000
vertex 0.007875 0.006047 0.000000
vertex 0.007753 0.006164 0.000000
endloop
endfacet
facet normal 0.669909 0.742443 0.000000
outer loop
vertex 0.007753 0.006164 0.000000
vertex 0.007302 0.006571 0.000000
vertex 0.007302 0.006571 0.150000
endloop
endfacet
facet normal 0.692315 0.721595 0.000000
outer loop
vertex 0.007753 0.006164 0.150000
vertex 0.007875 0.006047 0.150000
vertex 0.007753 0.006164 0.000000
endloop
endfacet
facet normal 0.669909 0.742443 0.000000
outer loop
vertex 0.007302 0.006571 0.150000
vertex 0.007753 0.006164 0.150000
vertex 0.007753 0.006164 0.000000
endloop
endfacet
facet normal -0.462500 0.886619 0.000000
outer loop
vertex 0.003760 0.006919 0.000000
vertex 0.002523 0.006274 0.000000
vertex 0.002523 0.006274 0.150000
endloop
endfacet
facet normal -0.462500 0.886620 0.000000
outer loop
vertex 0.003760 0.006919 0.000000
vertex 0.002523 0.006274 0.150000
vertex 0.003760 0.006919 0.150000
endloop
endfacet
facet normal -0.983628 0.180213 0.000000
outer loop
vertex 0.000086 0.003538 0.150000
vertex 0.000086 0.003538 0.000000
vertex 0.000065 0.003423 0.000000
endloop
endfacet
facet normal -0.983628 0.180213 0.000000
outer loop
vertex 0.000086 0.003538 0.150000
vertex 0.000065 0.003423 0.000000
vertex 0.000065 0.003423 0.150000
endloop
endfacet
facet normal 0.726853 -0.686793 0.000000
outer loop
vertex 0.006508 0.000743 0.150000
vertex 0.006508 0.000743 0.000000
vertex 0.006721 0.000969 0.000000
endloop
endfacet
facet normal 0.726853 -0.686793 0.000000
outer loop
vertex 0.006508 0.000743 0.150000
vertex 0.006721 0.000969 0.000000
vertex 0.006721 0.000969 0.150000
endloop
endfacet
endsolid Exported from Blender-3.6.8
