solid Exported from Blender-3.6.8
facet normal -0.331489 -0.943459 0.000000
outer loop
vertex 0.001199 0.000068 0.150000
vertex 0.001199 0.000068 0.000000
vertex 0.001331 0.000022 0.000000
endloop
endfacet
facet normal -0.331489 -0.943459 0.000000
outer loop
vertex 0.001199 0.000068 0.150000
vertex 0.001331 0.000022 0.000000
vertex 0.001331 0.000022 0.150000
endloop
endfacet
facet normal 0.600774 -0.799419 0.000000
outer loop
vertex 0.002448 0.000510 0.000000
vertex 0.002448 0.000510 0.150000
vertex 0.002075 0.000230 0.150000
endloop
endfacet
facet normal 0.600775 -0.799418 0.000000
outer loop
vertex 0.002448 0.000510 0.000000
vertex 0.002075 0.000230 0.150000
vertex 0.002075 0.000230 0.000000
endloop
endfacet
facet normal 0.966111 0.258125 0.000000
outer loop
vertex 0.006929 0.013871 0.150000
vertex 0.006929 0.013871 0.000000
vertex 0.006896 0.013994 0.000000
endloop
endfacet
facet normal 0.966108 0.258137 0.000000
outer loop
vertex 0.006929 0.013871 0.150000
vertex 0.006896 0.013994 0.000000
vertex 0.006896 0.013994 0.150000
endloop
endfacet
facet normal 0.000000 0.000000 1.000000
outer loop
vertex 0.000051 0.001748 0.000000
vertex 0.000080 0.001562 0.000000
vertex 0.000116 0.001383 0.000000
endloop
endfacet
facet normal -0.980501 -0.196515 0.000000
outer loop
vertex 0.000116 0.001383 0.000000
vertex 0.000116 0.001383 0.150000
vertex 0.000080 0.001562 0.150000
endloop
endfacet
facet normal -0.988546 -0.150917 -0.000056
outer loop
vertex 0.000116 0.001383 0.000000
vertex 0.000080 0.001562 0.150000
vertex 0.000051 0.001748 0.150000
endloop
endfacet
facet normal 0.000000 0.000000 1.000000
outer loop
vertex 0.000030 0.001935 0.000000
vertex 0.000051 0.001748 0.000000
vertex 0.000116 0.001383 0.000000
endloop
endfacet
facet normal -0.996595 -0.082458 0.000000
outer loop
vertex 0.000015 0.002118 0.150000
vertex 0.000015 0.002118 0.000000
vertex 0.000030 0.001935 0.000000
endloop
endfacet
facet normal -0.993502 -0.113817 -0.000149
outer loop
vertex 0.000116 0.001383 0.000000
vertex 0.000051 0.001748 0.150000
vertex 0.000030 0.001935 0.150000
endloop
endfacet
facet normal -0.996595 -0.082458 0.000000
outer loop
vertex 0.000030 0.001935 0.150000
vertex 0.000015 0.002118 0.150000
vertex 0.000030 0.001935 0.000000
endloop
endfacet
facet normal -0.988160 -0.153426 0.000000
outer loop
vertex 0.000116 0.001383 0.000000
vertex 0.000030 0.001935 0.150000
vertex 0.000030 0.001935 0.000000
endloop
endfacet
facet normal -0.805345 0.592807 0.000000
outer loop
vertex 0.004839 0.013930 0.150000
vertex 0.004839 0.013930 0.000000
vertex 0.004738 0.013793 0.000000
endloop
endfacet
facet normal -0.805342 0.592810 0.000000
outer loop
vertex 0.004839 0.013930 0.150000
vertex 0.004738 0.013793 0.000000
vertex 0.004738 0.013793 0.150000
endloop
endfacet
facet normal -0.039884 0.999204 0.000000
outer loop
vertex 0.006556 0.014328 0.000000
vertex 0.005678 0.014293 0.000000
vertex 0.005678 0.014293 0.150000
endloop
endfacet
facet normal -0.039884 0.999204 0.000000
outer loop
vertex 0.006556 0.014328 0.000000
vertex 0.005678 0.014293 0.150000
vertex 0.006556 0.014328 0.150000
endloop
endfacet
facet normal 0.722388 0.691488 0.000000
outer loop
vertex 0.006804 0.014188 0.150000
vertex 0.006804 0.014188 0.000000
vertex 0.006739 0.014256 0.000000
endloop
endfacet
facet normal 0.722405 0.691470 0.000000
outer loop
vertex 0.006804 0.014188 0.150000
vertex 0.006739 0.014256 0.000000
vertex 0.006739 0.014256 0.150000
endloop
endfacet
facet normal -0.999819 -0.019013 0.000000
outer loop
vertex 0.000004 0.002713 0.150000
vertex 0.000004 0.002713 0.000000
vertex 0.000015 0.002118 0.000000
endloop
endfacet
facet normal -0.999819 -0.019013 0.000000
outer loop
vertex 0.000004 0.002713 0.150000
vertex 0.000015 0.002118 0.000000
vertex 0.000015 0.002118 0.150000
endloop
endfacet
facet normal -0.829906 0.557904 0.000000
outer loop
vertex 0.001828 0.006445 0.000000
vertex 0.001722 0.006287 0.000000
vertex 0.001722 0.006287 0.150000
endloop
endfacet
facet normal -0.829905 0.557905 0.000000
outer loop
vertex 0.001828 0.006445 0.000000
vertex 0.001722 0.006287 0.150000
vertex 0.001828 0.006445 0.150000
endloop
endfacet
facet normal -0.626000 0.779823 0.000000
outer loop
vertex 0.001334 0.005885 0.000000
vertex 0.001309 0.005865 0.000000
vertex 0.001309 0.005865 0.150000
endloop
endfacet
facet normal -0.626006 0.779818 0.000000
outer loop
vertex 0.001334 0.005885 0.000000
vertex 0.001309 0.005865 0.150000
vertex 0.001334 0.005885 0.150000
endloop
endfacet
facet normal -0.650797 0.759252 0.000000
outer loop
vertex 0.001400 0.005942 0.000000
vertex 0.001334 0.005885 0.000000
vertex 0.001334 0.005885 0.150000
endloop
endfacet
facet normal -0.650796 0.759252 0.000000
outer loop
vertex 0.001400 0.005942 0.000000
vertex 0.001334 0.005885 0.150000
vertex 0.001400 0.005942 0.150000
endloop
endfacet
facet normal -0.691519 0.722358 0.000000
outer loop
vertex 0.001496 0.006032 0.150000
vertex 0.001496 0.006032 0.000000
vertex 0.001445 0.005983 0.000000
endloop
endfacet
facet normal -0.673497 0.739190 0.000000
outer loop
vertex 0.001445 0.005983 0.000000
vertex 0.001400 0.005942 0.000000
vertex 0.001400 0.005942 0.150000
endloop
endfacet
facet normal -0.691519 0.722358 0.000000
outer loop
vertex 0.001445 0.005983 0.150000
vertex 0.001496 0.006032 0.150000
vertex 0.001445 0.005983 0.000000
endloop
endfacet
facet normal -0.673497 0.739190 0.000000
outer loop
vertex 0.001400 0.005942 0.150000
vertex 0.001445 0.005983 0.150000
vertex 0.001445 0.005983 0.000000
endloop
endfacet
facet normal -0.982267 0.187486 0.000000
outer loop
vertex 0.000032 0.002859 0.150000
vertex 0.000032 0.002859 0.000000
vertex 0.000004 0.002713 0.000000
endloop
endfacet
facet normal -0.982267 0.187486 0.000000
outer loop
vertex 0.000032 0.002859 0.150000
vertex 0.000004 0.002713 0.000000
vertex 0.000004 0.002713 0.150000
endloop
endfacet
facet normal -0.660664 -0.750681 0.000000
outer loop
vertex 0.000722 0.000419 0.150000
vertex 0.000722 0.000419 0.000000
vertex 0.000950 0.000219 0.000000
endloop
endfacet
facet normal -0.660665 -0.750681 0.000000
outer loop
vertex 0.000722 0.000419 0.150000
vertex 0.000950 0.000219 0.000000
vertex 0.000950 0.000219 0.150000
endloop
endfacet
facet normal 0.748928 -0.662652 0.000000
outer loop
vertex 0.002832 0.000866 0.000000
vertex 0.003191 0.001271 0.000000
vertex 0.003191 0.001271 0.150000
endloop
endfacet
facet normal 0.748927 -0.662653 0.000000
outer loop
vertex 0.002832 0.000866 0.000000
vertex 0.003191 0.001271 0.150000
vertex 0.002832 0.000866 0.150000
endloop
endfacet
facet normal -0.748981 0.662591 0.000000
outer loop
vertex 0.001722 0.006287 0.000000
vertex 0.001496 0.006032 0.000000
vertex 0.001496 0.006032 0.150000
endloop
endfacet
facet normal -0.748981 0.662591 0.000000
outer loop
vertex 0.001722 0.006287 0.000000
vertex 0.001496 0.006032 0.150000
vertex 0.001722 0.006287 0.150000
endloop
endfacet
facet normal -0.154496 -0.987993 0.000000
outer loop
vertex 0.001331 0.000022 0.150000
vertex 0.001331 0.000022 0.000000
vertex 0.001467 0.000001 0.000000
endloop
endfacet
facet normal -0.154496 -0.987993 0.000000
outer loop
vertex 0.001331 0.000022 0.150000
vertex 0.001467 0.000001 0.000000
vertex 0.001467 0.000001 0.150000
endloop
endfacet
facet normal 0.519232 -0.854634 0.000000
outer loop
vertex 0.001904 0.000126 0.150000
vertex 0.001904 0.000126 0.000000
vertex 0.002075 0.000230 0.000000
endloop
endfacet
facet normal 0.519232 -0.854633 0.000000
outer loop
vertex 0.001904 0.000126 0.150000
vertex 0.002075 0.000230 0.000000
vertex 0.002075 0.000230 0.150000
endloop
endfacet
facet normal 0.862436 0.506166 0.000000
outer loop
vertex 0.006856 0.014101 0.150000
vertex 0.006856 0.014101 0.000000
vertex 0.006804 0.014188 0.000000
endloop
endfacet
facet normal 0.862436 0.506166 0.000000
outer loop
vertex 0.006856 0.014101 0.150000
vertex 0.006804 0.014188 0.000000
vertex 0.006804 0.014188 0.150000
endloop
endfacet
facet normal 0.991563 -0.129626 0.000000
outer loop
vertex 0.007087 0.012285 0.150000
vertex 0.007087 0.012285 0.000000
vertex 0.007111 0.012470 0.000000
endloop
endfacet
facet normal 0.991564 -0.129618 0.000000
outer loop
vertex 0.007087 0.012285 0.150000
vertex 0.007111 0.012470 0.000000
vertex 0.007111 0.012470 0.150000
endloop
endfacet
facet normal -0.900377 -0.435110 0.000000
outer loop
vertex 0.000213 0.001064 0.150000
vertex 0.000213 0.001064 0.000000
vertex 0.000276 0.000934 0.000000
endloop
endfacet
facet normal -0.900377 -0.435110 0.000000
outer loop
vertex 0.000213 0.001064 0.150000
vertex 0.000276 0.000934 0.000000
vertex 0.000276 0.000934 0.150000
endloop
endfacet
facet normal -0.308225 0.951313 0.000000
outer loop
vertex 0.005369 0.014239 0.150000
vertex 0.005369 0.014239 0.000000
vertex 0.005222 0.014192 0.000000
endloop
endfacet
facet normal -0.308224 0.951314 0.000000
outer loop
vertex 0.005369 0.014239 0.150000
vertex 0.005222 0.014192 0.000000
vertex 0.005222 0.014192 0.150000
endloop
endfacet
facet normal -0.751997 -0.659166 0.000000
outer loop
vertex 0.000521 0.000635 0.150000
vertex 0.000349 0.000831 0.150000
vertex 0.000349 0.000831 0.000000
endloop
endfacet
facet normal -0.751997 -0.659166 0.000000
outer loop
vertex 0.000521 0.000635 0.150000
vertex 0.000349 0.000831 0.000000
vertex 0.000521 0.000635 0.000000
endloop
endfacet
facet normal -0.719081 -0.694926 0.000000
outer loop
vertex 0.000722 0.000419 0.000000
vertex 0.000722 0.000419 0.150000
vertex 0.000618 0.000527 0.150000
endloop
endfacet
facet normal -0.740960 -0.671550 0.000000
outer loop
vertex 0.000618 0.000527 0.150000
vertex 0.000521 0.000635 0.150000
vertex 0.000521 0.000635 0.000000
endloop
endfacet
facet normal -0.719081 -0.694926 0.000000
outer loop
vertex 0.000618 0.000527 0.000000
vertex 0.000722 0.000419 0.000000
vertex 0.000618 0.000527 0.150000
endloop
endfacet
facet normal -0.740959 -0.671550 0.000000
outer loop
vertex 0.000521 0.000635 0.000000
vertex 0.000618 0.000527 0.000000
vertex 0.000618 0.000527 0.150000
endloop
endfacet
facet normal -0.938889 0.344220 0.000000
outer loop
vertex 0.000202 0.003357 0.000000
vertex 0.000100 0.003079 0.000000
vertex 0.000100 0.003079 0.150000
endloop
endfacet
facet normal -0.938889 0.344220 0.000000
outer loop
vertex 0.000202 0.003357 0.000000
vertex 0.000100 0.003079 0.150000
vertex 0.000202 0.003357 0.150000
endloop
endfacet
facet normal -0.929436 0.368984 0.000000
outer loop
vertex 0.000329 0.003677 0.000000
vertex 0.000202 0.003357 0.000000
vertex 0.000202 0.003357 0.150000
endloop
endfacet
facet normal -0.929436 0.368984 0.000000
outer loop
vertex 0.000329 0.003677 0.000000
vertex 0.000202 0.003357 0.150000
vertex 0.000329 0.003677 0.150000
endloop
endfacet
facet normal -0.923061 0.384653 0.000000
outer loop
vertex 0.000474 0.004024 0.000000
vertex 0.000329 0.003677 0.000000
vertex 0.000329 0.003677 0.150000
endloop
endfacet
facet normal -0.923061 0.384653 0.000000
outer loop
vertex 0.000474 0.004024 0.000000
vertex 0.000329 0.003677 0.150000
vertex 0.000474 0.004024 0.150000
endloop
endfacet
facet normal -0.918418 0.395611 0.000000
outer loop
vertex 0.000628 0.004381 0.000000
vertex 0.000474 0.004024 0.000000
vertex 0.000474 0.004024 0.150000
endloop
endfacet
facet normal -0.918418 0.395611 0.000000
outer loop
vertex 0.000628 0.004381 0.000000
vertex 0.000474 0.004024 0.150000
vertex 0.000628 0.004381 0.150000
endloop
endfacet
facet normal -0.914806 0.403895 0.000000
outer loop
vertex 0.000783 0.004733 0.000000
vertex 0.000628 0.004381 0.000000
vertex 0.000628 0.004381 0.150000
endloop
endfacet
facet normal -0.914805 0.403895 0.000000
outer loop
vertex 0.000783 0.004733 0.000000
vertex 0.000628 0.004381 0.150000
vertex 0.000783 0.004733 0.150000
endloop
endfacet
facet normal -0.911795 0.410646 0.000000
outer loop
vertex 0.000932 0.005065 0.000000
vertex 0.000783 0.004733 0.000000
vertex 0.000783 0.004733 0.150000
endloop
endfacet
facet normal -0.911795 0.410647 0.000000
outer loop
vertex 0.000932 0.005065 0.000000
vertex 0.000783 0.004733 0.150000
vertex 0.000932 0.005065 0.150000
endloop
endfacet
facet normal -0.909056 0.416674 0.000000
outer loop
vertex 0.001067 0.005359 0.000000
vertex 0.000932 0.005065 0.000000
vertex 0.000932 0.005065 0.150000
endloop
endfacet
facet normal -0.909056 0.416673 0.000000
outer loop
vertex 0.001067 0.005359 0.000000
vertex 0.000932 0.005065 0.150000
vertex 0.001067 0.005359 0.150000
endloop
endfacet
facet normal -0.906194 0.422862 0.000000
outer loop
vertex 0.001180 0.005601 0.000000
vertex 0.001067 0.005359 0.000000
vertex 0.001067 0.005359 0.150000
endloop
endfacet
facet normal -0.906195 0.422861 0.000000
outer loop
vertex 0.001180 0.005601 0.000000
vertex 0.001067 0.005359 0.150000
vertex 0.001180 0.005601 0.150000
endloop
endfacet
facet normal -0.893084 0.449891 0.000000
outer loop
vertex 0.001309 0.005865 0.150000
vertex 0.001309 0.005865 0.000000
vertex 0.001263 0.005775 0.000000
endloop
endfacet
facet normal -0.902329 0.431048 0.000000
outer loop
vertex 0.001263 0.005775 0.000000
vertex 0.001180 0.005601 0.000000
vertex 0.001180 0.005601 0.150000
endloop
endfacet
facet normal -0.893084 0.449891 0.000000
outer loop
vertex 0.001263 0.005775 0.150000
vertex 0.001309 0.005865 0.150000
vertex 0.001263 0.005775 0.000000
endloop
endfacet
facet normal -0.902329 0.431047 0.000000
outer loop
vertex 0.001180 0.005601 0.150000
vertex 0.001263 0.005775 0.150000
vertex 0.001263 0.005775 0.000000
endloop
endfacet
facet normal 0.998515 0.054481 0.000000
outer loop
vertex 0.007119 0.012657 0.150000
vertex 0.007119 0.012657 0.000000
vertex 0.007109 0.012847 0.000000
endloop
endfacet
facet normal 0.998515 0.054481 0.000000
outer loop
vertex 0.007119 0.012657 0.150000
vertex 0.007109 0.012847 0.000000
vertex 0.007109 0.012847 0.150000
endloop
endfacet
facet normal 0.679367 -0.733798 0.000000
outer loop
vertex 0.002832 0.000866 0.000000
vertex 0.002832 0.000866 0.150000
vertex 0.002448 0.000510 0.150000
endloop
endfacet
facet normal 0.679368 -0.733798 0.000000
outer loop
vertex 0.002832 0.000866 0.000000
vertex 0.002448 0.000510 0.150000
vertex 0.002448 0.000510 0.000000
endloop
endfacet
facet normal 0.238023 0.971259 0.000000
outer loop
vertex 0.006657 0.014303 0.150000
vertex 0.006657 0.014303 0.000000
vertex 0.006556 0.014328 0.000000
endloop
endfacet
facet normal 0.238027 0.971259 0.000000
outer loop
vertex 0.006657 0.014303 0.150000
vertex 0.006556 0.014328 0.000000
vertex 0.006556 0.014328 0.150000
endloop
endfacet
facet normal -0.426319 0.904573 0.000000
outer loop
vertex 0.005222 0.014192 0.150000
vertex 0.005222 0.014192 0.000000
vertex 0.005083 0.014126 0.000000
endloop
endfacet
facet normal -0.426318 0.904574 0.000000
outer loop
vertex 0.005222 0.014192 0.150000
vertex 0.005083 0.014126 0.000000
vertex 0.005083 0.014126 0.150000
endloop
endfacet
facet normal 0.499238 0.866465 0.000000
outer loop
vertex 0.006739 0.014256 0.150000
vertex 0.006739 0.014256 0.000000
vertex 0.006657 0.014303 0.000000
endloop
endfacet
facet normal 0.499231 0.866469 0.000000
outer loop
vertex 0.006739 0.014256 0.150000
vertex 0.006657 0.014303 0.000000
vertex 0.006657 0.014303 0.150000
endloop
endfacet
facet normal 0.933527 0.358508 0.000000
outer loop
vertex 0.006896 0.013994 0.150000
vertex 0.006896 0.013994 0.000000
vertex 0.006856 0.014101 0.000000
endloop
endfacet
facet normal 0.933518 0.358531 0.000000
outer loop
vertex 0.006896 0.013994 0.150000
vertex 0.006856 0.014101 0.000000
vertex 0.006856 0.014101 0.150000
endloop
endfacet
facet normal -0.816227 -0.577731 0.000000
outer loop
vertex 0.000276 0.000934 0.150000
vertex 0.000276 0.000934 0.000000
vertex 0.000349 0.000831 0.000000
endloop
endfacet
facet normal -0.816227 -0.577731 0.000000
outer loop
vertex 0.000276 0.000934 0.150000
vertex 0.000349 0.000831 0.000000
vertex 0.000349 0.000831 0.150000
endloop
endfacet
facet normal -0.466660 -0.884437 0.000000
outer loop
vertex 0.001072 0.000136 0.150000
vertex 0.001072 0.000136 0.000000
vertex 0.001199 0.000068 0.000000
endloop
endfacet
facet normal -0.466661 -0.884436 0.000000
outer loop
vertex 0.001072 0.000136 0.150000
vertex 0.001199 0.000068 0.000000
vertex 0.001199 0.000068 0.150000
endloop
endfacet
facet normal -0.000387 0.000000 1.000000
outer loop
vertex 0.003816 0.002532 0.150000
vertex 0.005142 0.006052 0.150000
vertex 0.005477 0.007052 0.150000
endloop
endfacet
facet normal 0.002427 0.000000 0.999997
outer loop
vertex 0.006328 0.010068 0.150000
vertex 0.006937 0.011727 0.150000
vertex 0.006998 0.011914 0.150000
endloop
endfacet
facet normal 0.000000 0.000000 1.000000
outer loop
vertex 0.003816 0.002532 0.150000
vertex 0.005477 0.007052 0.150000
vertex 0.006328 0.010068 0.150000
endloop
endfacet
facet normal 0.002807 0.000000 0.999996
outer loop
vertex 0.003597 0.001912 0.150000
vertex 0.003679 0.002121 0.150000
vertex 0.003816 0.002532 0.150000
endloop
endfacet
facet normal 0.000479 0.000000 1.000000
outer loop
vertex 0.003191 0.001271 0.150000
vertex 0.003485 0.001698 0.150000
vertex 0.003597 0.001912 0.150000
endloop
endfacet
facet normal 0.000000 0.000000 1.000000
outer loop
vertex 0.002448 0.000510 0.150000
vertex 0.002832 0.000866 0.150000
vertex 0.003191 0.001271 0.150000
endloop
endfacet
facet normal 0.000000 0.000000 1.000000
outer loop
vertex 0.001904 0.000126 0.150000
vertex 0.002075 0.000230 0.150000
vertex 0.002448 0.000510 0.150000
endloop
endfacet
facet normal 0.000000 0.000000 1.000000
outer loop
vertex 0.001607 0.000009 0.150000
vertex 0.001750 0.000051 0.150000
vertex 0.001904 0.000126 0.150000
endloop
endfacet
facet normal -0.000056 0.000000 1.000000
outer loop
vertex 0.001331 0.000022 0.150000
vertex 0.001467 0.000001 0.150000
vertex 0.001607 0.000009 0.150000
endloop
endfacet
facet normal -0.000923 0.000000 1.000000
outer loop
vertex 0.001072 0.000136 0.150000
vertex 0.001199 0.000068 0.150000
vertex 0.001331 0.000022 0.150000
endloop
endfacet
facet normal -0.000672 0.000000 1.000000
outer loop
vertex 0.000722 0.000419 0.150000
vertex 0.000950 0.000219 0.150000
vertex 0.001072 0.000136 0.150000
endloop
endfacet
facet normal 0.000000 0.000000 1.000000
outer loop
vertex 0.000521 0.000635 0.150000
vertex 0.000618 0.000527 0.150000
vertex 0.000722 0.000419 0.150000
endloop
endfacet
facet normal -0.001065 0.000000 0.999999
outer loop
vertex 0.000276 0.000934 0.150000
vertex 0.000349 0.000831 0.150000
vertex 0.000521 0.000635 0.150000
endloop
endfacet
facet normal -0.000493 0.000000 1.000000
outer loop
vertex 0.000116 0.001383 0.150000
vertex 0.000213 0.001064 0.150000
vertex 0.000276 0.000934 0.150000
endloop
endfacet
facet normal 0.000000 0.000000 1.000000
outer loop
vertex 0.000051 0.001748 0.150000
vertex 0.000080 0.001562 0.150000
vertex 0.000116 0.001383 0.150000
endloop
endfacet
facet normal 0.003334 0.000000 0.999994
outer loop
vertex 0.000015 0.002118 0.150000
vertex 0.000030 0.001935 0.150000
vertex 0.000051 0.001748 0.150000
endloop
endfacet
facet normal 0.000797 0.000000 1.000000
outer loop
vertex 0.000032 0.002859 0.150000
vertex 0.000004 0.002713 0.150000
vertex 0.000015 0.002118 0.150000
endloop
endfacet
facet normal 0.002216 0.000000 0.999998
outer loop
vertex 0.000202 0.003357 0.150000
vertex 0.000100 0.003079 0.150000
vertex 0.000032 0.002859 0.150000
endloop
endfacet
facet normal 0.003326 0.000000 0.999995
outer loop
vertex 0.000474 0.004024 0.150000
vertex 0.000329 0.003677 0.150000
vertex 0.000202 0.003357 0.150000
endloop
endfacet
facet normal -0.005377 0.000000 0.999986
outer loop
vertex 0.000783 0.004733 0.150000
vertex 0.000628 0.004381 0.150000
vertex 0.000474 0.004024 0.150000
endloop
endfacet
facet normal -0.009340 0.000000 0.999956
outer loop
vertex 0.001067 0.005359 0.150000
vertex 0.000932 0.005065 0.150000
vertex 0.000783 0.004733 0.150000
endloop
endfacet
facet normal 0.000000 0.000000 1.000000
outer loop
vertex 0.001263 0.005775 0.150000
vertex 0.001180 0.005601 0.150000
vertex 0.001067 0.005359 0.150000
endloop
endfacet
facet normal 0.000000 0.000000 1.000000
outer loop
vertex 0.001334 0.005885 0.150000
vertex 0.001309 0.005865 0.150000
vertex 0.001263 0.005775 0.150000
endloop
endfacet
facet normal 0.001099 0.000000 0.999999
outer loop
vertex 0.001400 0.005942 0.150000
vertex 0.001334 0.005885 0.150000
vertex 0.001263 0.005775 0.150000
endloop
endfacet
facet normal 0.000000 0.000000 1.000000
outer loop
vertex 0.001263 0.005775 0.150000
vertex 0.001067 0.005359 0.150000
vertex 0.000783 0.004733 0.150000
endloop
endfacet
facet normal 0.000000 0.000000 1.000000
outer loop
vertex 0.000783 0.004733 0.150000
vertex 0.000474 0.004024 0.150000
vertex 0.000202 0.003357 0.150000
endloop
endfacet
facet normal 0.000000 0.000000 1.000000
outer loop
vertex 0.000202 0.003357 0.150000
vertex 0.000032 0.002859 0.150000
vertex 0.000015 0.002118 0.150000
endloop
endfacet
facet normal -0.000696 0.000000 1.000000
outer loop
vertex 0.000015 0.002118 0.150000
vertex 0.000051 0.001748 0.150000
vertex 0.000116 0.001383 0.150000
endloop
endfacet
facet normal 0.000117 0.000000 1.000000
outer loop
vertex 0.000116 0.001383 0.150000
vertex 0.000276 0.000934 0.150000
vertex 0.000521 0.000635 0.150000
endloop
endfacet
facet normal 0.000000 0.000000 1.000000
outer loop
vertex 0.000521 0.000635 0.150000
vertex 0.000722 0.000419 0.150000
vertex 0.001072 0.000136 0.150000
endloop
endfacet
facet normal 0.000098 0.000000 1.000000
outer loop
vertex 0.001072 0.000136 0.150000
vertex 0.001331 0.000022 0.150000
vertex 0.001607 0.000009 0.150000
endloop
endfacet
facet normal 0.000000 0.000000 1.000000
outer loop
vertex 0.001607 0.000009 0.150000
vertex 0.001904 0.000126 0.150000
vertex 0.002448 0.000510 0.150000
endloop
endfacet
facet normal 0.000087 0.000000 1.000000
outer loop
vertex 0.002448 0.000510 0.150000
vertex 0.003191 0.001271 0.150000
vertex 0.003597 0.001912 0.150000
endloop
endfacet
facet normal 0.000000 0.000000 1.000000
outer loop
vertex 0.003597 0.001912 0.150000
vertex 0.003816 0.002532 0.150000
vertex 0.006328 0.010068 0.150000
endloop
endfacet
facet normal -0.000347 0.000000 1.000000
outer loop
vertex 0.006328 0.010068 0.150000
vertex 0.006998 0.011914 0.150000
vertex 0.007087 0.012285 0.150000
endloop
endfacet
facet normal 0.001192 0.000000 0.999999
outer loop
vertex 0.007087 0.012285 0.150000
vertex 0.007111 0.012470 0.150000
vertex 0.007119 0.012657 0.150000
endloop
endfacet
facet normal 0.000000 0.000000 1.000000
outer loop
vertex 0.007119 0.012657 0.150000
vertex 0.007109 0.012847 0.150000
vertex 0.006929 0.013871 0.150000
endloop
endfacet
facet normal 0.002373 0.000000 0.999997
outer loop
vertex 0.006929 0.013871 0.150000
vertex 0.006896 0.013994 0.150000
vertex 0.006856 0.014101 0.150000
endloop
endfacet
facet normal 0.000000 0.000000 1.000000
outer loop
vertex 0.006856 0.014101 0.150000
vertex 0.006804 0.014188 0.150000
vertex 0.006739 0.014256 0.150000
endloop
endfacet
facet normal -0.000167 0.000000 1.000000
outer loop
vertex 0.006739 0.014256 0.150000
vertex 0.006657 0.014303 0.150000
vertex 0.006556 0.014328 0.150000
endloop
endfacet
facet normal -0.000050 0.000000 1.000000
outer loop
vertex 0.006556 0.014328 0.150000
vertex 0.005678 0.014293 0.150000
vertex 0.005369 0.014239 0.150000
endloop
endfacet
facet normal 0.000000 0.000000 1.000000
outer loop
vertex 0.005369 0.014239 0.150000
vertex 0.005222 0.014192 0.150000
vertex 0.005083 0.014126 0.150000
endloop
endfacet
facet normal 0.000875 0.000000 1.000000
outer loop
vertex 0.005083 0.014126 0.150000
vertex 0.004955 0.014040 0.150000
vertex 0.004839 0.013930 0.150000
endloop
endfacet
facet normal 0.000000 0.000000 1.000000
outer loop
vertex 0.004839 0.013930 0.150000
vertex 0.004738 0.013793 0.150000
vertex 0.004500 0.013408 0.150000
endloop
endfacet
facet normal 0.000000 0.000000 1.000000
outer loop
vertex 0.004500 0.013408 0.150000
vertex 0.004434 0.013298 0.150000
vertex 0.004371 0.013189 0.150000
endloop
endfacet
facet normal 0.000000 0.000000 1.000000
outer loop
vertex 0.004371 0.013189 0.150000
vertex 0.004311 0.013076 0.150000
vertex 0.004250 0.012954 0.150000
endloop
endfacet
facet normal 0.000000 0.000000 1.000000
outer loop
vertex 0.004250 0.012954 0.150000
vertex 0.004121 0.012662 0.150000
vertex 0.003716 0.011554 0.150000
endloop
endfacet
facet normal -0.000254 0.000000 1.000000
outer loop
vertex 0.004250 0.012954 0.150000
vertex 0.003716 0.011554 0.150000
vertex 0.002850 0.008853 0.150000
endloop
endfacet
facet normal 0.001964 0.000000 0.999998
outer loop
vertex 0.004500 0.013408 0.150000
vertex 0.004371 0.013189 0.150000
vertex 0.004250 0.012954 0.150000
endloop
endfacet
facet normal 0.000000 0.000000 1.000000
outer loop
vertex 0.005083 0.014126 0.150000
vertex 0.004839 0.013930 0.150000
vertex 0.004500 0.013408 0.150000
endloop
endfacet
facet normal 0.000000 0.000000 1.000000
outer loop
vertex 0.006556 0.014328 0.150000
vertex 0.005369 0.014239 0.150000
vertex 0.005083 0.014126 0.150000
endloop
endfacet
facet normal 0.000000 0.000000 1.000000
outer loop
vertex 0.006856 0.014101 0.150000
vertex 0.006739 0.014256 0.150000
vertex 0.006556 0.014328 0.150000
endloop
endfacet
facet normal 0.000317 0.000000 1.000000
outer loop
vertex 0.007119 0.012657 0.150000
vertex 0.006929 0.013871 0.150000
vertex 0.006856 0.014101 0.150000
endloop
endfacet
facet normal 0.000069 0.000000 1.000000
outer loop
vertex 0.006328 0.010068 0.150000
vertex 0.007087 0.012285 0.150000
vertex 0.007119 0.012657 0.150000
endloop
endfacet
facet normal -0.000042 0.000000 1.000000
outer loop
vertex 0.002448 0.000510 0.150000
vertex 0.003597 0.001912 0.150000
vertex 0.006328 0.010068 0.150000
endloop
endfacet
facet normal 0.000000 0.000000 1.000000
outer loop
vertex 0.001072 0.000136 0.150000
vertex 0.001607 0.000009 0.150000
vertex 0.002448 0.000510 0.150000
endloop
endfacet
facet normal 0.000138 0.000000 1.000000
outer loop
vertex 0.000116 0.001383 0.150000
vertex 0.000521 0.000635 0.150000
vertex 0.001072 0.000136 0.150000
endloop
endfacet
facet normal 0.000055 0.000000 1.000000
outer loop
vertex 0.000202 0.003357 0.150000
vertex 0.000015 0.002118 0.150000
vertex 0.000116 0.001383 0.150000
endloop
endfacet
facet normal 0.000522 0.000000 1.000000
outer loop
vertex 0.001263 0.005775 0.150000
vertex 0.000783 0.004733 0.150000
vertex 0.000202 0.003357 0.150000
endloop
endfacet
facet normal 0.001912 0.000000 0.999998
outer loop
vertex 0.001445 0.005983 0.150000
vertex 0.001400 0.005942 0.150000
vertex 0.001263 0.005775 0.150000
endloop
endfacet
facet normal -0.004237 0.000000 0.999991
outer loop
vertex 0.001496 0.006032 0.150000
vertex 0.001445 0.005983 0.150000
vertex 0.001263 0.005775 0.150000
endloop
endfacet
facet normal -0.000031 0.000000 1.000000
outer loop
vertex 0.001263 0.005775 0.150000
vertex 0.000202 0.003357 0.150000
vertex 0.000116 0.001383 0.150000
endloop
endfacet
facet normal -0.000007 0.000000 1.000000
outer loop
vertex 0.000116 0.001383 0.150000
vertex 0.001072 0.000136 0.150000
vertex 0.002448 0.000510 0.150000
endloop
endfacet
facet normal 0.000047 0.000000 1.000000
outer loop
vertex 0.002448 0.000510 0.150000
vertex 0.006328 0.010068 0.150000
vertex 0.007119 0.012657 0.150000
endloop
endfacet
facet normal 0.000000 0.000000 1.000000
outer loop
vertex 0.007119 0.012657 0.150000
vertex 0.006856 0.014101 0.150000
vertex 0.006556 0.014328 0.150000
endloop
endfacet
facet normal 0.000000 0.000000 1.000000
outer loop
vertex 0.006556 0.014328 0.150000
vertex 0.005083 0.014126 0.150000
vertex 0.004500 0.013408 0.150000
endloop
endfacet
facet normal 0.000000 0.000000 1.000000
outer loop
vertex 0.004500 0.013408 0.150000
vertex 0.004250 0.012954 0.150000
vertex 0.002850 0.008853 0.150000
endloop
endfacet
facet normal 0.001232 0.000000 0.999999
outer loop
vertex 0.004500 0.013408 0.150000
vertex 0.002850 0.008853 0.150000
vertex 0.002712 0.008468 0.150000
endloop
endfacet
facet normal 0.000000 0.000000 1.000000
outer loop
vertex 0.007119 0.012657 0.150000
vertex 0.006556 0.014328 0.150000
vertex 0.004500 0.013408 0.150000
endloop
endfacet
facet normal 0.000000 0.000000 1.000000
outer loop
vertex 0.000116 0.001383 0.150000
vertex 0.002448 0.000510 0.150000
vertex 0.007119 0.012657 0.150000
endloop
endfacet
facet normal 0.000160 0.000000 1.000000
outer loop
vertex 0.001496 0.006032 0.150000
vertex 0.001263 0.005775 0.150000
vertex 0.000116 0.001383 0.150000
endloop
endfacet
facet normal 0.000000 0.000000 1.000000
outer loop
vertex 0.001722 0.006287 0.150000
vertex 0.001496 0.006032 0.150000
vertex 0.000116 0.001383 0.150000
endloop
endfacet
facet normal 0.000000 0.000000 1.000000
outer loop
vertex 0.007119 0.012657 0.150000
vertex 0.004500 0.013408 0.150000
vertex 0.002712 0.008468 0.150000
endloop
endfacet
facet normal -0.000014 0.000000 1.000000
outer loop
vertex 0.007119 0.012657 0.150000
vertex 0.002712 0.008468 0.150000
vertex 0.002035 0.006856 0.150000
endloop
endfacet
facet normal 0.000000 0.000000 1.000000
outer loop
vertex 0.001722 0.006287 0.150000
vertex 0.000116 0.001383 0.150000
vertex 0.007119 0.012657 0.150000
endloop
endfacet
facet normal 0.000000 0.000000 1.000000
outer loop
vertex 0.001828 0.006445 0.150000
vertex 0.001722 0.006287 0.150000
vertex 0.007119 0.012657 0.150000
endloop
endfacet
facet normal -0.000014 0.000000 1.000000
outer loop
vertex 0.007119 0.012657 0.150000
vertex 0.002035 0.006856 0.150000
vertex 0.001928 0.006631 0.150000
endloop
endfacet
facet normal 0.000040 0.000000 1.000000
outer loop
vertex 0.007119 0.012657 0.150000
vertex 0.001928 0.006631 0.150000
vertex 0.001828 0.006445 0.150000
endloop
endfacet
facet normal -0.880748 0.473585 0.000000
outer loop
vertex 0.001928 0.006631 0.000000
vertex 0.001828 0.006445 0.000000
vertex 0.001828 0.006445 0.150000
endloop
endfacet
facet normal -0.880748 0.473585 0.000000
outer loop
vertex 0.001928 0.006631 0.000000
vertex 0.001828 0.006445 0.150000
vertex 0.001928 0.006631 0.150000
endloop
endfacet
facet normal -0.954361 0.298656 0.000000
outer loop
vertex 0.000100 0.003079 0.150000
vertex 0.000100 0.003079 0.000000
vertex 0.000032 0.002859 0.000000
endloop
endfacet
facet normal -0.954361 0.298656 0.000000
outer loop
vertex 0.000100 0.003079 0.150000
vertex 0.000032 0.002859 0.000000
vertex 0.000032 0.002859 0.150000
endloop
endfacet
facet normal -0.689266 0.724509 0.000000
outer loop
vertex 0.004955 0.014040 0.150000
vertex 0.004955 0.014040 0.000000
vertex 0.004839 0.013930 0.000000
endloop
endfacet
facet normal -0.689263 0.724511 0.000000
outer loop
vertex 0.004955 0.014040 0.150000
vertex 0.004839 0.013930 0.000000
vertex 0.004839 0.013930 0.150000
endloop
endfacet
facet normal 0.999091 -0.042633 0.000000
outer loop
vertex 0.007111 0.012470 0.150000
vertex 0.007111 0.012470 0.000000
vertex 0.007119 0.012657 0.000000
endloop
endfacet
facet normal 0.999091 -0.042633 0.000000
outer loop
vertex 0.007111 0.012470 0.150000
vertex 0.007119 0.012657 0.000000
vertex 0.007119 0.012657 0.150000
endloop
endfacet
facet normal 0.000000 0.000000 -1.000000
outer loop
vertex 0.002850 0.008853 0.000000
vertex 0.003716 0.011554 0.000000
vertex 0.004121 0.012662 0.000000
endloop
endfacet
facet normal 0.000000 0.000000 -1.000000
outer loop
vertex 0.004121 0.012662 0.000000
vertex 0.004250 0.012954 0.000000
vertex 0.004311 0.013076 0.000000
endloop
endfacet
facet normal 0.000000 0.000000 -1.000000
outer loop
vertex 0.004311 0.013076 0.000000
vertex 0.004371 0.013189 0.000000
vertex 0.004434 0.013298 0.000000
endloop
endfacet
facet normal 0.000000 0.000000 -1.000000
outer loop
vertex 0.004434 0.013298 0.000000
vertex 0.004500 0.013408 0.000000
vertex 0.004738 0.013793 0.000000
endloop
endfacet
facet normal 0.000000 0.000000 -1.000000
outer loop
vertex 0.004738 0.013793 0.000000
vertex 0.004839 0.013930 0.000000
vertex 0.004955 0.014040 0.000000
endloop
endfacet
facet normal 0.000000 0.000000 -1.000000
outer loop
vertex 0.004955 0.014040 0.000000
vertex 0.005083 0.014126 0.000000
vertex 0.005222 0.014192 0.000000
endloop
endfacet
facet normal 0.000000 0.000000 -1.000000
outer loop
vertex 0.005222 0.014192 0.000000
vertex 0.005369 0.014239 0.000000
vertex 0.005678 0.014293 0.000000
endloop
endfacet
facet normal 0.000000 0.000000 -1.000000
outer loop
vertex 0.005678 0.014293 0.000000
vertex 0.006556 0.014328 0.000000
vertex 0.006657 0.014303 0.000000
endloop
endfacet
facet normal 0.000000 0.000000 -1.000000
outer loop
vertex 0.006657 0.014303 0.000000
vertex 0.006739 0.014256 0.000000
vertex 0.006804 0.014188 0.000000
endloop
endfacet
facet normal 0.000000 0.000000 -1.000000
outer loop
vertex 0.006804 0.014188 0.000000
vertex 0.006856 0.014101 0.000000
vertex 0.006896 0.013994 0.000000
endloop
endfacet
facet normal 0.000000 0.000000 -1.000000
outer loop
vertex 0.006896 0.013994 0.000000
vertex 0.006929 0.013871 0.000000
vertex 0.007109 0.012847 0.000000
endloop
endfacet
facet normal 0.000000 0.000000 -1.000000
outer loop
vertex 0.007109 0.012847 0.000000
vertex 0.007119 0.012657 0.000000
vertex 0.007111 0.012470 0.000000
endloop
endfacet
facet normal 0.000000 0.000000 -1.000000
outer loop
vertex 0.007111 0.012470 0.000000
vertex 0.007087 0.012285 0.000000
vertex 0.006998 0.011914 0.000000
endloop
endfacet
facet normal 0.000000 0.000000 -1.000000
outer loop
vertex 0.006998 0.011914 0.000000
vertex 0.006937 0.011727 0.000000
vertex 0.006328 0.010068 0.000000
endloop
endfacet
facet normal 0.000000 0.000000 -1.000000
outer loop
vertex 0.006328 0.010068 0.000000
vertex 0.005477 0.007052 0.000000
vertex 0.005142 0.006052 0.000000
endloop
endfacet
facet normal 0.000000 0.000000 -1.000000
outer loop
vertex 0.003816 0.002532 0.000000
vertex 0.003679 0.002121 0.000000
vertex 0.003597 0.001912 0.000000
endloop
endfacet
facet normal 0.000000 0.000000 -1.000000
outer loop
vertex 0.006328 0.010068 0.000000
vertex 0.005142 0.006052 0.000000
vertex 0.003816 0.002532 0.000000
endloop
endfacet
facet normal 0.000000 0.000000 -1.000000
outer loop
vertex 0.007111 0.012470 0.000000
vertex 0.006998 0.011914 0.000000
vertex 0.006328 0.010068 0.000000
endloop
endfacet
facet normal 0.000000 0.000000 -1.000000
outer loop
vertex 0.006896 0.013994 0.000000
vertex 0.007109 0.012847 0.000000
vertex 0.007111 0.012470 0.000000
endloop
endfacet
facet normal 0.000000 0.000000 -1.000000
outer loop
vertex 0.006657 0.014303 0.000000
vertex 0.006804 0.014188 0.000000
vertex 0.006896 0.013994 0.000000
endloop
endfacet
facet normal 0.000000 0.000000 -1.000000
outer loop
vertex 0.005222 0.014192 0.000000
vertex 0.005678 0.014293 0.000000
vertex 0.006657 0.014303 0.000000
endloop
endfacet
facet normal 0.000000 0.000000 -1.000000
outer loop
vertex 0.004738 0.013793 0.000000
vertex 0.004955 0.014040 0.000000
vertex 0.005222 0.014192 0.000000
endloop
endfacet
facet normal 0.000000 0.000000 -1.000000
outer loop
vertex 0.004311 0.013076 0.000000
vertex 0.004434 0.013298 0.000000
vertex 0.004738 0.013793 0.000000
endloop
endfacet
facet normal 0.000000 0.000000 -1.000000
outer loop
vertex 0.002850 0.008853 0.000000
vertex 0.004121 0.012662 0.000000
vertex 0.004311 0.013076 0.000000
endloop
endfacet
facet normal 0.000000 0.000000 -1.000000
outer loop
vertex 0.002850 0.008853 0.000000
vertex 0.004311 0.013076 0.000000
vertex 0.004738 0.013793 0.000000
endloop
endfacet
facet normal 0.000000 0.000000 -1.000000
outer loop
vertex 0.004738 0.013793 0.000000
vertex 0.005222 0.014192 0.000000
vertex 0.006657 0.014303 0.000000
endloop
endfacet
facet normal 0.000000 0.000000 -1.000000
outer loop
vertex 0.006657 0.014303 0.000000
vertex 0.006896 0.013994 0.000000
vertex 0.007111 0.012470 0.000000
endloop
endfacet
facet normal 0.000000 0.000000 -1.000000
outer loop
vertex 0.007111 0.012470 0.000000
vertex 0.006328 0.010068 0.000000
vertex 0.003816 0.002532 0.000000
endloop
endfacet
facet normal 0.000000 0.000000 -1.000000
outer loop
vertex 0.003816 0.002532 0.000000
vertex 0.003597 0.001912 0.000000
vertex 0.003485 0.001698 0.000000
endloop
endfacet
facet normal 0.000000 0.000000 -1.000000
outer loop
vertex 0.003485 0.001698 0.000000
vertex 0.003191 0.001271 0.000000
vertex 0.002832 0.000866 0.000000
endloop
endfacet
facet normal 0.000000 0.000000 -1.000000
outer loop
vertex 0.002832 0.000866 0.000000
vertex 0.002448 0.000510 0.000000
vertex 0.002075 0.000230 0.000000
endloop
endfacet
facet normal 0.000000 0.000000 -1.000000
outer loop
vertex 0.002075 0.000230 0.000000
vertex 0.001904 0.000126 0.000000
vertex 0.001750 0.000051 0.000000
endloop
endfacet
facet normal 0.000000 0.000000 -1.000000
outer loop
vertex 0.001750 0.000051 0.000000
vertex 0.001607 0.000009 0.000000
vertex 0.001467 0.000001 0.000000
endloop
endfacet
facet normal 0.000000 0.000000 -1.000000
outer loop
vertex 0.001467 0.000001 0.000000
vertex 0.001331 0.000022 0.000000
vertex 0.001199 0.000068 0.000000
endloop
endfacet
facet normal 0.000000 0.000000 -1.000000
outer loop
vertex 0.001199 0.000068 0.000000
vertex 0.001072 0.000136 0.000000
vertex 0.000950 0.000219 0.000000
endloop
endfacet
facet normal 0.000000 0.000000 -1.000000
outer loop
vertex 0.000950 0.000219 0.000000
vertex 0.000722 0.000419 0.000000
vertex 0.000618 0.000527 0.000000
endloop
endfacet
facet normal 0.000000 0.000000 -1.000000
outer loop
vertex 0.000618 0.000527 0.000000
vertex 0.000521 0.000635 0.000000
vertex 0.000349 0.000831 0.000000
endloop
endfacet
facet normal 0.000000 0.000000 -1.000000
outer loop
vertex 0.000349 0.000831 0.000000
vertex 0.000276 0.000934 0.000000
vertex 0.000213 0.001064 0.000000
endloop
endfacet
facet normal 0.000000 0.000000 -1.000000
outer loop
vertex 0.000213 0.001064 0.000000
vertex 0.000116 0.001383 0.000000
vertex 0.000080 0.001562 0.000000
endloop
endfacet
facet normal 0.000000 0.000000 -1.000000
outer loop
vertex 0.000080 0.001562 0.000000
vertex 0.000051 0.001748 0.000000
vertex 0.000030 0.001935 0.000000
endloop
endfacet
facet normal 0.000000 0.000000 -1.000000
outer loop
vertex 0.000030 0.001935 0.000000
vertex 0.000015 0.002118 0.000000
vertex 0.000004 0.002713 0.000000
endloop
endfacet
facet normal 0.000000 0.000000 -1.000000
outer loop
vertex 0.000004 0.002713 0.000000
vertex 0.000032 0.002859 0.000000
vertex 0.000100 0.003079 0.000000
endloop
endfacet
facet normal 0.000000 0.000000 -1.000000
outer loop
vertex 0.000100 0.003079 0.000000
vertex 0.000202 0.003357 0.000000
vertex 0.000329 0.003677 0.000000
endloop
endfacet
facet normal 0.000000 0.000000 -1.000000
outer loop
vertex 0.000329 0.003677 0.000000
vertex 0.000474 0.004024 0.000000
vertex 0.000628 0.004381 0.000000
endloop
endfacet
facet normal 0.000000 0.000000 -1.000000
outer loop
vertex 0.000628 0.004381 0.000000
vertex 0.000783 0.004733 0.000000
vertex 0.000932 0.005065 0.000000
endloop
endfacet
facet normal 0.000000 0.000000 -1.000000
outer loop
vertex 0.000932 0.005065 0.000000
vertex 0.001067 0.005359 0.000000
vertex 0.001180 0.005601 0.000000
endloop
endfacet
facet normal 0.000000 0.000000 -1.000000
outer loop
vertex 0.001180 0.005601 0.000000
vertex 0.001263 0.005775 0.000000
vertex 0.001309 0.005865 0.000000
endloop
endfacet
facet normal 0.000000 0.000000 -1.000000
outer loop
vertex 0.001180 0.005601 0.000000
vertex 0.001309 0.005865 0.000000
vertex 0.001334 0.005885 0.000000
endloop
endfacet
facet normal 0.000000 0.000000 -1.000000
outer loop
vertex 0.000628 0.004381 0.000000
vertex 0.000932 0.005065 0.000000
vertex 0.001180 0.005601 0.000000
endloop
endfacet
facet normal 0.000000 0.000000 -1.000000
outer loop
vertex 0.000100 0.003079 0.000000
vertex 0.000329 0.003677 0.000000
vertex 0.000628 0.004381 0.000000
endloop
endfacet
facet normal 0.000000 0.000000 -1.000000
outer loop
vertex 0.000030 0.001935 0.000000
vertex 0.000004 0.002713 0.000000
vertex 0.000100 0.003079 0.000000
endloop
endfacet
facet normal 0.000000 0.000000 -1.000000
outer loop
vertex 0.000213 0.001064 0.000000
vertex 0.000080 0.001562 0.000000
vertex 0.000030 0.001935 0.000000
endloop
endfacet
facet normal 0.000000 0.000000 -1.000000
outer loop
vertex 0.000618 0.000527 0.000000
vertex 0.000349 0.000831 0.000000
vertex 0.000213 0.001064 0.000000
endloop
endfacet
facet normal 0.000000 0.000000 -1.000000
outer loop
vertex 0.001199 0.000068 0.000000
vertex 0.000950 0.000219 0.000000
vertex 0.000618 0.000527 0.000000
endloop
endfacet
facet normal 0.000000 0.000000 -1.000000
outer loop
vertex 0.001750 0.000051 0.000000
vertex 0.001467 0.000001 0.000000
vertex 0.001199 0.000068 0.000000
endloop
endfacet
facet normal 0.000000 0.000000 -1.000000
outer loop
vertex 0.002832 0.000866 0.000000
vertex 0.002075 0.000230 0.000000
vertex 0.001750 0.000051 0.000000
endloop
endfacet
facet normal 0.000000 0.000000 -1.000000
outer loop
vertex 0.003816 0.002532 0.000000
vertex 0.003485 0.001698 0.000000
vertex 0.002832 0.000866 0.000000
endloop
endfacet
facet normal 0.000000 0.000000 -1.000000
outer loop
vertex 0.006657 0.014303 0.000000
vertex 0.007111 0.012470 0.000000
vertex 0.003816 0.002532 0.000000
endloop
endfacet
facet normal 0.000000 0.000000 -1.000000
outer loop
vertex 0.002850 0.008853 0.000000
vertex 0.004738 0.013793 0.000000
vertex 0.006657 0.014303 0.000000
endloop
endfacet
facet normal 0.000000 0.000000 -1.000000
outer loop
vertex 0.002712 0.008468 0.000000
vertex 0.002850 0.008853 0.000000
vertex 0.006657 0.014303 0.000000
endloop
endfacet
facet normal 0.000000 0.000000 -1.000000
outer loop
vertex 0.006657 0.014303 0.000000
vertex 0.003816 0.002532 0.000000
vertex 0.002832 0.000866 0.000000
endloop
endfacet
facet normal 0.000000 0.000000 -1.000000
outer loop
vertex 0.002832 0.000866 0.000000
vertex 0.001750 0.000051 0.000000
vertex 0.001199 0.000068 0.000000
endloop
endfacet
facet normal 0.000000 0.000000 -1.000000
outer loop
vertex 0.001199 0.000068 0.000000
vertex 0.000618 0.000527 0.000000
vertex 0.000213 0.001064 0.000000
endloop
endfacet
facet normal 0.000000 0.000000 -1.000000
outer loop
vertex 0.000213 0.001064 0.000000
vertex 0.000030 0.001935 0.000000
vertex 0.000100 0.003079 0.000000
endloop
endfacet
facet normal 0.000000 0.000000 -1.000000
outer loop
vertex 0.000100 0.003079 0.000000
vertex 0.000628 0.004381 0.000000
vertex 0.001180 0.005601 0.000000
endloop
endfacet
facet normal 0.000000 0.000000 -1.000000
outer loop
vertex 0.001180 0.005601 0.000000
vertex 0.001334 0.005885 0.000000
vertex 0.001400 0.005942 0.000000
endloop
endfacet
facet normal 0.000000 0.000000 -1.000000
outer loop
vertex 0.001180 0.005601 0.000000
vertex 0.001400 0.005942 0.000000
vertex 0.001445 0.005983 0.000000
endloop
endfacet
facet normal 0.000000 0.000000 -1.000000
outer loop
vertex 0.000213 0.001064 0.000000
vertex 0.000100 0.003079 0.000000
vertex 0.001180 0.005601 0.000000
endloop
endfacet
facet normal 0.000000 0.000000 -1.000000
outer loop
vertex 0.002832 0.000866 0.000000
vertex 0.001199 0.000068 0.000000
vertex 0.000213 0.001064 0.000000
endloop
endfacet
facet normal 0.000000 0.000000 -1.000000
outer loop
vertex 0.002712 0.008468 0.000000
vertex 0.006657 0.014303 0.000000
vertex 0.002832 0.000866 0.000000
endloop
endfacet
facet normal 0.000000 0.000000 -1.000000
outer loop
vertex 0.002035 0.006856 0.000000
vertex 0.002712 0.008468 0.000000
vertex 0.002832 0.000866 0.000000
endloop
endfacet
facet normal 0.000000 0.000000 -1.000000
outer loop
vertex 0.002832 0.000866 0.000000
vertex 0.000213 0.001064 0.000000
vertex 0.001180 0.005601 0.000000
endloop
endfacet
facet normal 0.000000 0.000000 -1.000000
outer loop
vertex 0.001180 0.005601 0.000000
vertex 0.001445 0.005983 0.000000
vertex 0.001496 0.006032 0.000000
endloop
endfacet
facet normal 0.000000 0.000000 -1.000000
outer loop
vertex 0.001180 0.005601 0.000000
vertex 0.001496 0.006032 0.000000
vertex 0.001722 0.006287 0.000000
endloop
endfacet
facet normal 0.000000 0.000000 -1.000000
outer loop
vertex 0.001928 0.006631 0.000000
vertex 0.002035 0.006856 0.000000
vertex 0.002832 0.000866 0.000000
endloop
endfacet
facet normal 0.000000 0.000000 -1.000000
outer loop
vertex 0.001828 0.006445 0.000000
vertex 0.001928 0.006631 0.000000
vertex 0.002832 0.000866 0.000000
endloop
endfacet
facet normal 0.000000 0.000000 -1.000000
outer loop
vertex 0.002832 0.000866 0.000000
vertex 0.001180 0.005601 0.000000
vertex 0.001722 0.006287 0.000000
endloop
endfacet
facet normal 0.000000 0.000000 -1.000000
outer loop
vertex 0.002832 0.000866 0.000000
vertex 0.001722 0.006287 0.000000
vertex 0.001828 0.006445 0.000000
endloop
endfacet
facet normal -0.880998 0.473119 0.000000
outer loop
vertex 0.004371 0.013189 0.000000
vertex 0.004311 0.013076 0.000000
vertex 0.004311 0.013076 0.150000
endloop
endfacet
facet normal -0.880998 0.473119 0.000000
outer loop
vertex 0.004371 0.013189 0.000000
vertex 0.004311 0.013076 0.150000
vertex 0.004371 0.013189 0.150000
endloop
endfacet
facet normal -0.867338 0.497720 0.000000
outer loop
vertex 0.004434 0.013298 0.000000
vertex 0.004371 0.013189 0.000000
vertex 0.004371 0.013189 0.150000
endloop
endfacet
facet normal -0.867338 0.497720 0.000000
outer loop
vertex 0.004434 0.013298 0.000000
vertex 0.004371 0.013189 0.150000
vertex 0.004434 0.013298 0.150000
endloop
endfacet
facet normal -0.850169 0.526509 0.000000
outer loop
vertex 0.004738 0.013793 0.150000
vertex 0.004738 0.013793 0.000000
vertex 0.004500 0.013408 0.000000
endloop
endfacet
facet normal -0.856675 0.515857 0.000000
outer loop
vertex 0.004500 0.013408 0.000000
vertex 0.004434 0.013298 0.000000
vertex 0.004434 0.013298 0.150000
endloop
endfacet
facet normal -0.850169 0.526509 0.000000
outer loop
vertex 0.004500 0.013408 0.150000
vertex 0.004738 0.013793 0.150000
vertex 0.004500 0.013408 0.000000
endloop
endfacet
facet normal -0.856675 0.515857 0.000000
outer loop
vertex 0.004434 0.013298 0.150000
vertex 0.004500 0.013408 0.150000
vertex 0.004500 0.013408 0.000000
endloop
endfacet
facet normal -0.565162 -0.824980 0.000000
outer loop
vertex 0.000950 0.000219 0.150000
vertex 0.000950 0.000219 0.000000
vertex 0.001072 0.000136 0.000000
endloop
endfacet
facet normal -0.565163 -0.824980 0.000000
outer loop
vertex 0.000950 0.000219 0.150000
vertex 0.001072 0.000136 0.000000
vertex 0.001072 0.000136 0.150000
endloop
endfacet
facet normal 0.438131 -0.898911 0.000000
outer loop
vertex 0.001750 0.000051 0.150000
vertex 0.001750 0.000051 0.000000
vertex 0.001904 0.000126 0.000000
endloop
endfacet
facet normal 0.438131 -0.898911 0.000000
outer loop
vertex 0.001750 0.000051 0.150000
vertex 0.001904 0.000126 0.000000
vertex 0.001904 0.000126 0.150000
endloop
endfacet
facet normal -0.557613 0.830101 0.000000
outer loop
vertex 0.005083 0.014126 0.150000
vertex 0.005083 0.014126 0.000000
vertex 0.004955 0.014040 0.000000
endloop
endfacet
facet normal -0.557616 0.830099 0.000000
outer loop
vertex 0.005083 0.014126 0.150000
vertex 0.004955 0.014040 0.000000
vertex 0.004955 0.014040 0.150000
endloop
endfacet
facet normal 0.057437 -0.998349 0.000000
outer loop
vertex 0.001467 0.000001 0.150000
vertex 0.001467 0.000001 0.000000
vertex 0.001607 0.000009 0.000000
endloop
endfacet
facet normal 0.057437 -0.998349 0.000000
outer loop
vertex 0.001467 0.000001 0.150000
vertex 0.001607 0.000009 0.000000
vertex 0.001607 0.000009 0.150000
endloop
endfacet
facet normal 0.885985 -0.463713 0.000000
outer loop
vertex 0.003485 0.001698 0.150000
vertex 0.003485 0.001698 0.000000
vertex 0.003597 0.001912 0.000000
endloop
endfacet
facet normal 0.885985 -0.463713 0.000000
outer loop
vertex 0.003485 0.001698 0.150000
vertex 0.003597 0.001912 0.000000
vertex 0.003597 0.001912 0.150000
endloop
endfacet
facet normal -0.956544 -0.291588 0.000000
outer loop
vertex 0.000116 0.001383 0.150000
vertex 0.000116 0.001383 0.000000
vertex 0.000213 0.001064 0.000000
endloop
endfacet
facet normal -0.956544 -0.291588 0.000000
outer loop
vertex 0.000116 0.001383 0.150000
vertex 0.000213 0.001064 0.000000
vertex 0.000213 0.001064 0.150000
endloop
endfacet
facet normal 0.972330 -0.233614 0.000000
outer loop
vertex 0.006998 0.011914 0.150000
vertex 0.006998 0.011914 0.000000
vertex 0.007087 0.012285 0.000000
endloop
endfacet
facet normal 0.972330 -0.233610 0.000000
outer loop
vertex 0.006998 0.011914 0.150000
vertex 0.007087 0.012285 0.000000
vertex 0.007087 0.012285 0.150000
endloop
endfacet
facet normal 0.984961 0.172778 0.000000
outer loop
vertex 0.007109 0.012847 0.000000
vertex 0.006929 0.013871 0.000000
vertex 0.006929 0.013871 0.150000
endloop
endfacet
facet normal 0.984960 0.172780 0.000000
outer loop
vertex 0.007109 0.012847 0.000000
vertex 0.006929 0.013871 0.150000
vertex 0.007109 0.012847 0.150000
endloop
endfacet
facet normal -0.171868 0.985120 0.000000
outer loop
vertex 0.005678 0.014293 0.150000
vertex 0.005678 0.014293 0.000000
vertex 0.005369 0.014239 0.000000
endloop
endfacet
facet normal -0.171868 0.985120 0.000000
outer loop
vertex 0.005678 0.014293 0.150000
vertex 0.005369 0.014239 0.000000
vertex 0.005369 0.014239 0.150000
endloop
endfacet
facet normal -0.903351 0.428902 0.000000
outer loop
vertex 0.002035 0.006856 0.000000
vertex 0.001928 0.006631 0.000000
vertex 0.001928 0.006631 0.150000
endloop
endfacet
facet normal -0.903350 0.428904 0.000000
outer loop
vertex 0.002035 0.006856 0.000000
vertex 0.001928 0.006631 0.150000
vertex 0.002035 0.006856 0.150000
endloop
endfacet
facet normal -0.922055 0.387059 0.000000
outer loop
vertex 0.002712 0.008468 0.000000
vertex 0.002035 0.006856 0.000000
vertex 0.002035 0.006856 0.150000
endloop
endfacet
facet normal -0.922055 0.387059 0.000000
outer loop
vertex 0.002712 0.008468 0.000000
vertex 0.002035 0.006856 0.150000
vertex 0.002712 0.008468 0.150000
endloop
endfacet
facet normal -0.941189 0.337880 0.000000
outer loop
vertex 0.002850 0.008853 0.000000
vertex 0.002712 0.008468 0.000000
vertex 0.002712 0.008468 0.150000
endloop
endfacet
facet normal -0.941189 0.337880 0.000000
outer loop
vertex 0.002850 0.008853 0.000000
vertex 0.002712 0.008468 0.150000
vertex 0.002850 0.008853 0.150000
endloop
endfacet
facet normal -0.952207 0.305454 0.000000
outer loop
vertex 0.003716 0.011554 0.000000
vertex 0.002850 0.008853 0.000000
vertex 0.002850 0.008853 0.150000
endloop
endfacet
facet normal -0.952207 0.305454 0.000000
outer loop
vertex 0.003716 0.011554 0.000000
vertex 0.002850 0.008853 0.150000
vertex 0.003716 0.011554 0.150000
endloop
endfacet
facet normal -0.939176 0.343436 0.000000
outer loop
vertex 0.004121 0.012662 0.000000
vertex 0.003716 0.011554 0.000000
vertex 0.003716 0.011554 0.150000
endloop
endfacet
facet normal -0.939176 0.343437 0.000000
outer loop
vertex 0.004121 0.012662 0.000000
vertex 0.003716 0.011554 0.150000
vertex 0.004121 0.012662 0.150000
endloop
endfacet
facet normal -0.895500 0.445062 0.000000
outer loop
vertex 0.004311 0.013076 0.150000
vertex 0.004311 0.013076 0.000000
vertex 0.004250 0.012954 0.000000
endloop
endfacet
facet normal -0.914958 0.403549 0.000000
outer loop
vertex 0.004250 0.012954 0.000000
vertex 0.004121 0.012662 0.000000
vertex 0.004121 0.012662 0.150000
endloop
endfacet
facet normal -0.895500 0.445062 0.000000
outer loop
vertex 0.004250 0.012954 0.150000
vertex 0.004311 0.013076 0.150000
vertex 0.004250 0.012954 0.000000
endloop
endfacet
facet normal -0.914959 0.403547 0.000000
outer loop
vertex 0.004121 0.012662 0.150000
vertex 0.004250 0.012954 0.150000
vertex 0.004250 0.012954 0.000000
endloop
endfacet
facet normal 0.000000 0.000000 -1.000000
outer loop
vertex 0.005477 0.007052 0.000000
vertex 0.006328 0.010068 0.000000
vertex 0.006937 0.011727 0.000000
endloop
endfacet
facet normal 0.951328 -0.308180 0.000000
outer loop
vertex 0.006937 0.011727 0.000000
vertex 0.006998 0.011914 0.000000
vertex 0.006998 0.011914 0.150000
endloop
endfacet
facet normal 0.951326 -0.308187 0.000000
outer loop
vertex 0.006937 0.011727 0.000000
vertex 0.006998 0.011914 0.150000
vertex 0.006937 0.011727 0.150000
endloop
endfacet
facet normal 0.954496 -0.298225 0.000000
outer loop
vertex 0.005477 0.007052 0.000000
vertex 0.006937 0.011727 0.000000
vertex 0.006937 0.011727 0.150000
endloop
endfacet
facet normal 0.938675 -0.344800 0.001605
outer loop
vertex 0.005477 0.007052 0.000000
vertex 0.006937 0.011727 0.150000
vertex 0.006328 0.010068 0.150000
endloop
endfacet
facet normal 0.000000 0.000000 -1.000000
outer loop
vertex 0.003679 0.002121 0.000000
vertex 0.003816 0.002532 0.000000
vertex 0.005142 0.006052 0.000000
endloop
endfacet
facet normal 0.948396 -0.317086 0.000993
outer loop
vertex 0.005142 0.006052 0.000000
vertex 0.005477 0.007052 0.000000
vertex 0.006328 0.010068 0.150000
endloop
endfacet
facet normal 0.962403 -0.271627 -0.000335
outer loop
vertex 0.005142 0.006052 0.000000
vertex 0.006328 0.010068 0.150000
vertex 0.005477 0.007052 0.150000
endloop
endfacet
facet normal 0.931075 -0.364829 0.000000
outer loop
vertex 0.003597 0.001912 0.150000
vertex 0.003597 0.001912 0.000000
vertex 0.003679 0.002121 0.000000
endloop
endfacet
facet normal 0.937172 -0.348867 0.000237
outer loop
vertex 0.003679 0.002121 0.000000
vertex 0.005142 0.006052 0.000000
vertex 0.005477 0.007052 0.150000
endloop
endfacet
facet normal 0.948396 -0.317086 -0.000942
outer loop
vertex 0.003679 0.002121 0.000000
vertex 0.005477 0.007052 0.150000
vertex 0.005142 0.006052 0.150000
endloop
endfacet
facet normal 0.931075 -0.364829 0.000000
outer loop
vertex 0.003679 0.002121 0.150000
vertex 0.003597 0.001912 0.150000
vertex 0.003679 0.002121 0.000000
endloop
endfacet
facet normal 0.935714 -0.352760 0.000116
outer loop
vertex 0.003679 0.002121 0.000000
vertex 0.005142 0.006052 0.150000
vertex 0.003816 0.002532 0.150000
endloop
endfacet
facet normal 0.949160 -0.314793 0.000000
outer loop
vertex 0.003816 0.002532 0.150000
vertex 0.003679 0.002121 0.150000
vertex 0.003679 0.002121 0.000000
endloop
endfacet
facet normal 0.279341 -0.960192 0.000000
outer loop
vertex 0.001607 0.000009 0.150000
vertex 0.001607 0.000009 0.000000
vertex 0.001750 0.000051 0.000000
endloop
endfacet
facet normal 0.279341 -0.960192 0.000000
outer loop
vertex 0.001607 0.000009 0.150000
vertex 0.001750 0.000051 0.000000
vertex 0.001750 0.000051 0.150000
endloop
endfacet
facet normal 0.823214 -0.567732 0.000000
outer loop
vertex 0.003485 0.001698 0.000000
vertex 0.003485 0.001698 0.150000
vertex 0.003191 0.001271 0.150000
endloop
endfacet
facet normal 0.823214 -0.567731 0.000000
outer loop
vertex 0.003485 0.001698 0.000000
vertex 0.003191 0.001271 0.150000
vertex 0.003191 0.001271 0.000000
endloop
endfacet
endsolid Exported from Blender-3.6.8
