solid Exported from Blender-3.6.8
facet normal -0.109748 -0.993959 0.000000
outer loop
vertex 0.010403 0.001294 0.150000
vertex 0.010403 0.001294 0.000000
vertex 0.010488 0.001285 0.000000
endloop
endfacet
facet normal -0.109750 -0.993959 0.000000
outer loop
vertex 0.010403 0.001294 0.150000
vertex 0.010488 0.001285 0.000000
vertex 0.010488 0.001285 0.150000
endloop
endfacet
facet normal 0.306346 -0.951920 0.000000
outer loop
vertex 0.010840 0.001189 0.150000
vertex 0.010840 0.001189 0.000000
vertex 0.010909 0.001211 0.000000
endloop
endfacet
facet normal 0.306339 -0.951922 0.000000
outer loop
vertex 0.010840 0.001189 0.150000
vertex 0.010909 0.001211 0.000000
vertex 0.010909 0.001211 0.150000
endloop
endfacet
facet normal -0.362724 -0.931897 0.000000
outer loop
vertex 0.010706 0.001208 0.000000
vertex 0.010706 0.001208 0.150000
vertex 0.010566 0.001262 0.150000
endloop
endfacet
facet normal -0.362724 -0.931897 0.000000
outer loop
vertex 0.010706 0.001208 0.000000
vertex 0.010566 0.001262 0.150000
vertex 0.010566 0.001262 0.000000
endloop
endfacet
facet normal 0.230255 -0.973130 0.000000
outer loop
vertex 0.003135 0.000019 0.150000
vertex 0.003135 0.000019 0.000000
vertex 0.003319 0.000063 0.000000
endloop
endfacet
facet normal 0.230255 -0.973130 0.000000
outer loop
vertex 0.003135 0.000019 0.150000
vertex 0.003319 0.000063 0.000000
vertex 0.003319 0.000063 0.150000
endloop
endfacet
facet normal -0.890883 0.454233 0.000000
outer loop
vertex 0.000056 0.004414 0.150000
vertex 0.000056 0.004414 0.000000
vertex 0.000001 0.004306 0.000000
endloop
endfacet
facet normal -0.890883 0.454233 0.000000
outer loop
vertex 0.000056 0.004414 0.150000
vertex 0.000001 0.004306 0.000000
vertex 0.000001 0.004306 0.150000
endloop
endfacet
facet normal 0.752064 -0.659090 0.000000
outer loop
vertex 0.010983 0.001265 0.150000
vertex 0.010983 0.001265 0.000000
vertex 0.011063 0.001356 0.000000
endloop
endfacet
facet normal 0.752076 -0.659076 0.000000
outer loop
vertex 0.010983 0.001265 0.150000
vertex 0.011063 0.001356 0.000000
vertex 0.011063 0.001356 0.150000
endloop
endfacet
facet normal 0.055355 0.998467 0.000000
outer loop
vertex 0.008240 0.007429 0.000000
vertex 0.008025 0.007441 0.000000
vertex 0.008025 0.007441 0.150000
endloop
endfacet
facet normal 0.055356 0.998467 0.000000
outer loop
vertex 0.008240 0.007429 0.000000
vertex 0.008025 0.007441 0.150000
vertex 0.008240 0.007429 0.150000
endloop
endfacet
facet normal 0.088916 0.996039 0.000000
outer loop
vertex 0.008446 0.007411 0.000000
vertex 0.008240 0.007429 0.000000
vertex 0.008240 0.007429 0.150000
endloop
endfacet
facet normal 0.088916 0.996039 0.000000
outer loop
vertex 0.008446 0.007411 0.000000
vertex 0.008240 0.007429 0.150000
vertex 0.008446 0.007411 0.150000
endloop
endfacet
facet normal 0.146757 0.989173 0.000000
outer loop
vertex 0.008830 0.007359 0.150000
vertex 0.008830 0.007359 0.000000
vertex 0.008643 0.007387 0.000000
endloop
endfacet
facet normal 0.119518 0.992832 0.000000
outer loop
vertex 0.008643 0.007387 0.000000
vertex 0.008446 0.007411 0.000000
vertex 0.008446 0.007411 0.150000
endloop
endfacet
facet normal 0.146755 0.989173 0.000000
outer loop
vertex 0.008643 0.007387 0.150000
vertex 0.008830 0.007359 0.150000
vertex 0.008643 0.007387 0.000000
endloop
endfacet
facet normal 0.119517 0.992832 0.000000
outer loop
vertex 0.008446 0.007411 0.150000
vertex 0.008643 0.007387 0.150000
vertex 0.008643 0.007387 0.000000
endloop
endfacet
facet normal 0.335199 0.942147 0.000000
outer loop
vertex 0.010447 0.006963 0.150000
vertex 0.010447 0.006963 0.000000
vertex 0.010169 0.007062 0.000000
endloop
endfacet
facet normal 0.335197 0.942148 0.000000
outer loop
vertex 0.010447 0.006963 0.150000
vertex 0.010169 0.007062 0.000000
vertex 0.010169 0.007062 0.150000
endloop
endfacet
facet normal -0.786130 -0.618062 0.000000
outer loop
vertex 0.001114 0.001252 0.150000
vertex 0.001114 0.001252 0.000000
vertex 0.001199 0.001144 0.000000
endloop
endfacet
facet normal -0.786130 -0.618061 0.000000
outer loop
vertex 0.001114 0.001252 0.150000
vertex 0.001199 0.001144 0.000000
vertex 0.001199 0.001144 0.150000
endloop
endfacet
facet normal -0.955377 -0.295388 0.000000
outer loop
vertex 0.000390 0.002721 0.000000
vertex 0.000390 0.002721 0.150000
vertex 0.000130 0.003565 0.150000
endloop
endfacet
facet normal -0.955377 -0.295388 0.000000
outer loop
vertex 0.000390 0.002721 0.000000
vertex 0.000130 0.003565 0.150000
vertex 0.000130 0.003565 0.000000
endloop
endfacet
facet normal 0.000000 0.000000 1.000000
outer loop
vertex 0.000390 0.002721 0.000000
vertex 0.000467 0.002524 0.000000
vertex 0.000545 0.002343 0.000000
endloop
endfacet
facet normal 0.000000 0.000000 1.000000
outer loop
vertex 0.000545 0.002343 0.000000
vertex 0.000624 0.002185 0.000000
vertex 0.000697 0.002045 0.000000
endloop
endfacet
facet normal 0.000000 0.000000 1.000000
outer loop
vertex 0.000390 0.002721 0.000000
vertex 0.000545 0.002343 0.000000
vertex 0.000697 0.002045 0.000000
endloop
endfacet
facet normal -0.932739 -0.360552 0.000000
outer loop
vertex 0.000467 0.002524 0.150000
vertex 0.000390 0.002721 0.150000
vertex 0.000390 0.002721 0.000000
endloop
endfacet
facet normal -0.917680 -0.397321 -0.000056
outer loop
vertex 0.000545 0.002343 0.150000
vertex 0.000467 0.002524 0.150000
vertex 0.000390 0.002721 0.000000
endloop
endfacet
facet normal 0.000000 0.000000 1.000000
outer loop
vertex 0.000390 0.002721 0.000000
vertex 0.000697 0.002045 0.000000
vertex 0.000760 0.001916 0.000000
endloop
endfacet
facet normal 0.000000 0.000000 1.000000
outer loop
vertex 0.000816 0.001795 0.000000
vertex 0.000869 0.001680 0.000000
vertex 0.000923 0.001571 0.000000
endloop
endfacet
facet normal 0.000000 0.000000 1.000000
outer loop
vertex 0.000390 0.002721 0.000000
vertex 0.000760 0.001916 0.000000
vertex 0.000816 0.001795 0.000000
endloop
endfacet
facet normal -0.894972 -0.446122 -0.000203
outer loop
vertex 0.000624 0.002185 0.150000
vertex 0.000545 0.002343 0.150000
vertex 0.000390 0.002721 0.000000
endloop
endfacet
facet normal -0.886471 -0.462784 -0.000276
outer loop
vertex 0.000697 0.002045 0.150000
vertex 0.000624 0.002185 0.150000
vertex 0.000390 0.002721 0.000000
endloop
endfacet
facet normal 0.000000 0.000000 1.000000
outer loop
vertex 0.000390 0.002721 0.000000
vertex 0.000816 0.001795 0.000000
vertex 0.000923 0.001571 0.000000
endloop
endfacet
facet normal -0.884524 -0.466494 0.000000
outer loop
vertex 0.000923 0.001571 0.000000
vertex 0.000979 0.001464 0.000000
vertex 0.000979 0.001464 0.150000
endloop
endfacet
facet normal -0.884525 -0.466493 0.000000
outer loop
vertex 0.000923 0.001571 0.000000
vertex 0.000979 0.001464 0.150000
vertex 0.000923 0.001571 0.150000
endloop
endfacet
facet normal -0.907658 -0.419711 -0.000038
outer loop
vertex 0.000697 0.002045 0.150000
vertex 0.000390 0.002721 0.000000
vertex 0.000923 0.001571 0.000000
endloop
endfacet
facet normal -0.899006 -0.437937 0.000033
outer loop
vertex 0.000760 0.001916 0.150000
vertex 0.000697 0.002045 0.150000
vertex 0.000923 0.001571 0.000000
endloop
endfacet
facet normal -0.900114 -0.435655 0.000000
outer loop
vertex 0.000923 0.001571 0.000000
vertex 0.000923 0.001571 0.150000
vertex 0.000869 0.001680 0.150000
endloop
endfacet
facet normal -0.906228 -0.422789 -0.000010
outer loop
vertex 0.000816 0.001795 0.150000
vertex 0.000760 0.001916 0.150000
vertex 0.000923 0.001571 0.000000
endloop
endfacet
facet normal -0.906985 -0.421163 -0.000013
outer loop
vertex 0.000923 0.001571 0.000000
vertex 0.000869 0.001680 0.150000
vertex 0.000816 0.001795 0.150000
endloop
endfacet
facet normal 0.056082 -0.998426 0.000000
outer loop
vertex 0.007168 0.000959 0.000000
vertex 0.007324 0.000968 0.000000
vertex 0.007324 0.000968 0.150000
endloop
endfacet
facet normal 0.056080 -0.998426 0.000000
outer loop
vertex 0.007168 0.000959 0.000000
vertex 0.007324 0.000968 0.150000
vertex 0.007168 0.000959 0.150000
endloop
endfacet
facet normal 0.089560 -0.995981 0.000000
outer loop
vertex 0.007003 0.000944 0.000000
vertex 0.007168 0.000959 0.000000
vertex 0.007168 0.000959 0.150000
endloop
endfacet
facet normal 0.089560 -0.995981 0.000000
outer loop
vertex 0.007003 0.000944 0.000000
vertex 0.007168 0.000959 0.150000
vertex 0.007003 0.000944 0.150000
endloop
endfacet
facet normal 0.113460 -0.993543 0.000000
outer loop
vertex 0.006830 0.000924 0.000000
vertex 0.007003 0.000944 0.000000
vertex 0.007003 0.000944 0.150000
endloop
endfacet
facet normal 0.113460 -0.993543 0.000000
outer loop
vertex 0.006830 0.000924 0.000000
vertex 0.007003 0.000944 0.150000
vertex 0.006830 0.000924 0.150000
endloop
endfacet
facet normal 0.000000 0.000000 1.000000
outer loop
vertex 0.005720 0.000770 0.000000
vertex 0.005905 0.000794 0.000000
vertex 0.006650 0.000901 0.000000
endloop
endfacet
facet normal 0.129831 -0.991536 0.000000
outer loop
vertex 0.006650 0.000901 0.000000
vertex 0.006830 0.000924 0.000000
vertex 0.006830 0.000924 0.150000
endloop
endfacet
facet normal 0.129830 -0.991536 0.000000
outer loop
vertex 0.006650 0.000901 0.000000
vertex 0.006830 0.000924 0.150000
vertex 0.006650 0.000901 0.150000
endloop
endfacet
facet normal 0.000000 0.000000 1.000000
outer loop
vertex 0.005539 0.000749 0.000000
vertex 0.005720 0.000770 0.000000
vertex 0.006650 0.000901 0.000000
endloop
endfacet
facet normal 0.196069 -0.980590 0.000000
outer loop
vertex 0.005181 0.000689 0.150000
vertex 0.005181 0.000689 0.000000
vertex 0.005360 0.000725 0.000000
endloop
endfacet
facet normal 0.135060 -0.990837 0.000000
outer loop
vertex 0.005539 0.000749 0.000000
vertex 0.006650 0.000901 0.000000
vertex 0.006650 0.000901 0.150000
endloop
endfacet
facet normal 0.136129 -0.990691 -0.000074
outer loop
vertex 0.005181 0.000689 0.150000
vertex 0.005360 0.000725 0.000000
vertex 0.005539 0.000749 0.000000
endloop
endfacet
facet normal 0.196068 -0.980590 0.000073
outer loop
vertex 0.005360 0.000725 0.150000
vertex 0.005181 0.000689 0.150000
vertex 0.005539 0.000749 0.000000
endloop
endfacet
facet normal 0.142064 -0.989857 -0.000053
outer loop
vertex 0.005539 0.000749 0.000000
vertex 0.006650 0.000901 0.150000
vertex 0.005905 0.000794 0.150000
endloop
endfacet
facet normal 0.128705 -0.991683 -0.000020
outer loop
vertex 0.005539 0.000749 0.000000
vertex 0.005905 0.000794 0.150000
vertex 0.005720 0.000770 0.150000
endloop
endfacet
facet normal 0.136129 -0.990691 0.000000
outer loop
vertex 0.005539 0.000749 0.150000
vertex 0.005360 0.000725 0.150000
vertex 0.005539 0.000749 0.000000
endloop
endfacet
facet normal 0.112542 -0.993647 0.000000
outer loop
vertex 0.005720 0.000770 0.150000
vertex 0.005539 0.000749 0.150000
vertex 0.005539 0.000749 0.000000
endloop
endfacet
facet normal 0.672040 0.740515 0.000000
outer loop
vertex 0.011507 0.006292 0.150000
vertex 0.011507 0.006292 0.000000
vertex 0.011358 0.006427 0.000000
endloop
endfacet
facet normal 0.672036 0.740518 0.000000
outer loop
vertex 0.011507 0.006292 0.150000
vertex 0.011358 0.006427 0.000000
vertex 0.011358 0.006427 0.150000
endloop
endfacet
facet normal -0.034478 -0.999405 0.000000
outer loop
vertex 0.008516 0.000835 0.000000
vertex 0.008516 0.000835 0.150000
vertex 0.008303 0.000842 0.150000
endloop
endfacet
facet normal -0.034478 -0.999405 0.000000
outer loop
vertex 0.008516 0.000835 0.000000
vertex 0.008303 0.000842 0.150000
vertex 0.008303 0.000842 0.000000
endloop
endfacet
facet normal 0.001153 0.000000 0.999999
outer loop
vertex 0.010566 0.001262 0.150000
vertex 0.010706 0.001208 0.150000
vertex 0.010773 0.001190 0.150000
endloop
endfacet
facet normal 0.000000 0.000000 1.000000
outer loop
vertex 0.010773 0.001190 0.150000
vertex 0.010840 0.001189 0.150000
vertex 0.010909 0.001211 0.150000
endloop
endfacet
facet normal 0.000732 0.000000 1.000000
outer loop
vertex 0.010909 0.001211 0.150000
vertex 0.010983 0.001265 0.150000
vertex 0.011063 0.001356 0.150000
endloop
endfacet
facet normal 0.000000 0.000000 1.000000
outer loop
vertex 0.011063 0.001356 0.150000
vertex 0.011152 0.001493 0.150000
vertex 0.011608 0.002453 0.150000
endloop
endfacet
facet normal 0.000000 0.000000 1.000000
outer loop
vertex 0.011608 0.002453 0.150000
vertex 0.011737 0.002802 0.150000
vertex 0.011828 0.003164 0.150000
endloop
endfacet
facet normal 0.000946 0.000000 1.000000
outer loop
vertex 0.011828 0.003164 0.150000
vertex 0.011879 0.003569 0.150000
vertex 0.011888 0.003797 0.150000
endloop
endfacet
facet normal -0.002718 0.000000 0.999996
outer loop
vertex 0.011888 0.003797 0.150000
vertex 0.011885 0.005012 0.150000
vertex 0.011877 0.005228 0.150000
endloop
endfacet
facet normal 0.000359 0.000000 1.000000
outer loop
vertex 0.011877 0.005228 0.150000
vertex 0.011830 0.005629 0.150000
vertex 0.011783 0.005812 0.150000
endloop
endfacet
facet normal 0.000000 0.000000 1.000000
outer loop
vertex 0.011783 0.005812 0.150000
vertex 0.011716 0.005984 0.150000
vertex 0.011625 0.006144 0.150000
endloop
endfacet
facet normal 0.000000 0.000000 1.000000
outer loop
vertex 0.011625 0.006144 0.150000
vertex 0.011507 0.006292 0.150000
vertex 0.011358 0.006427 0.150000
endloop
endfacet
facet normal 0.000285 0.000000 1.000000
outer loop
vertex 0.011358 0.006427 0.150000
vertex 0.011037 0.006655 0.150000
vertex 0.010735 0.006831 0.150000
endloop
endfacet
facet normal 0.000000 0.000000 1.000000
outer loop
vertex 0.010735 0.006831 0.150000
vertex 0.010447 0.006963 0.150000
vertex 0.010169 0.007062 0.150000
endloop
endfacet
facet normal -0.001547 0.000000 0.999999
outer loop
vertex 0.010169 0.007062 0.150000
vertex 0.010032 0.007102 0.150000
vertex 0.009896 0.007137 0.150000
endloop
endfacet
facet normal 0.000000 0.000000 1.000000
outer loop
vertex 0.009896 0.007137 0.150000
vertex 0.009761 0.007169 0.150000
vertex 0.009626 0.007200 0.150000
endloop
endfacet
facet normal 0.000000 0.000000 1.000000
outer loop
vertex 0.009626 0.007200 0.150000
vertex 0.009485 0.007230 0.150000
vertex 0.009335 0.007263 0.150000
endloop
endfacet
facet normal 0.000000 0.000000 1.000000
outer loop
vertex 0.009335 0.007263 0.150000
vertex 0.009176 0.007296 0.150000
vertex 0.009008 0.007328 0.150000
endloop
endfacet
facet normal -0.001123 0.000000 0.999999
outer loop
vertex 0.009008 0.007328 0.150000
vertex 0.008830 0.007359 0.150000
vertex 0.008643 0.007387 0.150000
endloop
endfacet
facet normal 0.000000 0.000000 1.000000
outer loop
vertex 0.008643 0.007387 0.150000
vertex 0.008446 0.007411 0.150000
vertex 0.008240 0.007429 0.150000
endloop
endfacet
facet normal -0.000017 0.000000 1.000000
outer loop
vertex 0.008240 0.007429 0.150000
vertex 0.008025 0.007441 0.150000
vertex 0.007566 0.007441 0.150000
endloop
endfacet
facet normal 0.000256 0.000000 1.000000
outer loop
vertex 0.007566 0.007441 0.150000
vertex 0.007322 0.007426 0.150000
vertex 0.005702 0.007272 0.150000
endloop
endfacet
facet normal -0.000012 0.000000 1.000000
outer loop
vertex 0.005702 0.007272 0.150000
vertex 0.002712 0.006905 0.150000
vertex 0.001620 0.005944 0.150000
endloop
endfacet
facet normal 0.001110 0.000000 0.999999
outer loop
vertex 0.001620 0.005944 0.150000
vertex 0.000974 0.005355 0.150000
vertex 0.000673 0.005069 0.150000
endloop
endfacet
facet normal 0.000580 0.000000 1.000000
outer loop
vertex 0.000673 0.005069 0.150000
vertex 0.000408 0.004809 0.150000
vertex 0.000056 0.004414 0.150000
endloop
endfacet
facet normal 0.000000 0.000000 1.000000
outer loop
vertex 0.000056 0.004414 0.150000
vertex 0.000001 0.004306 0.150000
vertex 0.000002 0.004216 0.150000
endloop
endfacet
facet normal 0.000000 0.000000 1.000000
outer loop
vertex 0.000002 0.004216 0.150000
vertex 0.000017 0.004092 0.150000
vertex 0.000130 0.003565 0.150000
endloop
endfacet
facet normal -0.000282 0.000000 1.000000
outer loop
vertex 0.000130 0.003565 0.150000
vertex 0.000390 0.002721 0.150000
vertex 0.000467 0.002524 0.150000
endloop
endfacet
facet normal 0.000000 0.000000 1.000000
outer loop
vertex 0.000467 0.002524 0.150000
vertex 0.000545 0.002343 0.150000
vertex 0.000624 0.002185 0.150000
endloop
endfacet
facet normal 0.001314 0.000000 0.999999
outer loop
vertex 0.000467 0.002524 0.150000
vertex 0.000624 0.002185 0.150000
vertex 0.000697 0.002045 0.150000
endloop
endfacet
facet normal 0.000000 0.000000 1.000000
outer loop
vertex 0.000002 0.004216 0.150000
vertex 0.000130 0.003565 0.150000
vertex 0.000467 0.002524 0.150000
endloop
endfacet
facet normal 0.000042 0.000000 1.000000
outer loop
vertex 0.000673 0.005069 0.150000
vertex 0.000056 0.004414 0.150000
vertex 0.000002 0.004216 0.150000
endloop
endfacet
facet normal 0.000000 0.000000 1.000000
outer loop
vertex 0.005702 0.007272 0.150000
vertex 0.001620 0.005944 0.150000
vertex 0.000673 0.005069 0.150000
endloop
endfacet
facet normal -0.000027 0.000000 1.000000
outer loop
vertex 0.008240 0.007429 0.150000
vertex 0.007566 0.007441 0.150000
vertex 0.005702 0.007272 0.150000
endloop
endfacet
facet normal 0.000111 0.000000 1.000000
outer loop
vertex 0.009008 0.007328 0.150000
vertex 0.008643 0.007387 0.150000
vertex 0.008240 0.007429 0.150000
endloop
endfacet
facet normal 0.000000 0.000000 1.000000
outer loop
vertex 0.009626 0.007200 0.150000
vertex 0.009335 0.007263 0.150000
vertex 0.009008 0.007328 0.150000
endloop
endfacet
facet normal 0.000518 0.000000 1.000000
outer loop
vertex 0.010169 0.007062 0.150000
vertex 0.009896 0.007137 0.150000
vertex 0.009626 0.007200 0.150000
endloop
endfacet
facet normal 0.000000 0.000000 1.000000
outer loop
vertex 0.011358 0.006427 0.150000
vertex 0.010735 0.006831 0.150000
vertex 0.010169 0.007062 0.150000
endloop
endfacet
facet normal 0.000000 0.000000 1.000000
outer loop
vertex 0.011783 0.005812 0.150000
vertex 0.011625 0.006144 0.150000
vertex 0.011358 0.006427 0.150000
endloop
endfacet
facet normal 0.000227 0.000000 1.000000
outer loop
vertex 0.011888 0.003797 0.150000
vertex 0.011877 0.005228 0.150000
vertex 0.011783 0.005812 0.150000
endloop
endfacet
facet normal -0.000152 0.000000 1.000000
outer loop
vertex 0.011608 0.002453 0.150000
vertex 0.011828 0.003164 0.150000
vertex 0.011888 0.003797 0.150000
endloop
endfacet
facet normal -0.000323 0.000000 1.000000
outer loop
vertex 0.010909 0.001211 0.150000
vertex 0.011063 0.001356 0.150000
vertex 0.011608 0.002453 0.150000
endloop
endfacet
facet normal 0.000000 0.000000 1.000000
outer loop
vertex 0.010566 0.001262 0.150000
vertex 0.010773 0.001190 0.150000
vertex 0.010909 0.001211 0.150000
endloop
endfacet
facet normal 0.000000 0.000000 1.000000
outer loop
vertex 0.010488 0.001285 0.150000
vertex 0.010566 0.001262 0.150000
vertex 0.010909 0.001211 0.150000
endloop
endfacet
facet normal 0.000049 0.000000 1.000000
outer loop
vertex 0.010909 0.001211 0.150000
vertex 0.011608 0.002453 0.150000
vertex 0.011888 0.003797 0.150000
endloop
endfacet
facet normal -0.000055 0.000000 1.000000
outer loop
vertex 0.011888 0.003797 0.150000
vertex 0.011783 0.005812 0.150000
vertex 0.011358 0.006427 0.150000
endloop
endfacet
facet normal 0.000000 0.000000 1.000000
outer loop
vertex 0.011358 0.006427 0.150000
vertex 0.010169 0.007062 0.150000
vertex 0.009626 0.007200 0.150000
endloop
endfacet
facet normal -0.000099 0.000000 1.000000
outer loop
vertex 0.009626 0.007200 0.150000
vertex 0.009008 0.007328 0.150000
vertex 0.008240 0.007429 0.150000
endloop
endfacet
facet normal 0.000012 0.000000 1.000000
outer loop
vertex 0.008240 0.007429 0.150000
vertex 0.005702 0.007272 0.150000
vertex 0.000673 0.005069 0.150000
endloop
endfacet
facet normal -0.000038 0.000000 1.000000
outer loop
vertex 0.000673 0.005069 0.150000
vertex 0.000002 0.004216 0.150000
vertex 0.000467 0.002524 0.150000
endloop
endfacet
facet normal -0.017963 0.000000 0.999839
outer loop
vertex 0.000467 0.002524 0.150000
vertex 0.000697 0.002045 0.150000
vertex 0.000760 0.001916 0.150000
endloop
endfacet
facet normal 0.000000 0.000000 1.000000
outer loop
vertex 0.000816 0.001795 0.150000
vertex 0.000869 0.001680 0.150000
vertex 0.000923 0.001571 0.150000
endloop
endfacet
facet normal 0.000067 0.000000 1.000000
outer loop
vertex 0.000673 0.005069 0.150000
vertex 0.000467 0.002524 0.150000
vertex 0.000760 0.001916 0.150000
endloop
endfacet
facet normal 0.000000 0.000000 1.000000
outer loop
vertex 0.000760 0.001916 0.150000
vertex 0.000816 0.001795 0.150000
vertex 0.000923 0.001571 0.150000
endloop
endfacet
facet normal 0.000000 0.000000 1.000000
outer loop
vertex 0.000923 0.001571 0.150000
vertex 0.000979 0.001464 0.150000
vertex 0.001114 0.001252 0.150000
endloop
endfacet
facet normal 0.000000 0.000000 1.000000
outer loop
vertex 0.001114 0.001252 0.150000
vertex 0.001199 0.001144 0.150000
vertex 0.001422 0.000912 0.150000
endloop
endfacet
facet normal -0.000210 0.000000 1.000000
outer loop
vertex 0.001422 0.000912 0.150000
vertex 0.002127 0.000314 0.150000
vertex 0.002388 0.000142 0.150000
endloop
endfacet
facet normal -0.000674 0.000000 1.000000
outer loop
vertex 0.002388 0.000142 0.150000
vertex 0.002522 0.000078 0.150000
vertex 0.002661 0.000032 0.150000
endloop
endfacet
facet normal -0.000033 0.000000 1.000000
outer loop
vertex 0.002661 0.000032 0.150000
vertex 0.002808 0.000006 0.150000
vertex 0.002965 0.000001 0.150000
endloop
endfacet
facet normal 0.000453 0.000000 1.000000
outer loop
vertex 0.002965 0.000001 0.150000
vertex 0.003135 0.000019 0.150000
vertex 0.003319 0.000063 0.150000
endloop
endfacet
facet normal -0.000137 0.000000 1.000000
outer loop
vertex 0.002965 0.000001 0.150000
vertex 0.003319 0.000063 0.150000
vertex 0.005181 0.000689 0.150000
endloop
endfacet
facet normal 0.000147 0.000000 1.000000
outer loop
vertex 0.002388 0.000142 0.150000
vertex 0.002661 0.000032 0.150000
vertex 0.002965 0.000001 0.150000
endloop
endfacet
facet normal -0.000159 0.000000 1.000000
outer loop
vertex 0.001114 0.001252 0.150000
vertex 0.001422 0.000912 0.150000
vertex 0.002388 0.000142 0.150000
endloop
endfacet
facet normal 0.000000 0.000000 1.000000
outer loop
vertex 0.000760 0.001916 0.150000
vertex 0.000923 0.001571 0.150000
vertex 0.001114 0.001252 0.150000
endloop
endfacet
facet normal -0.000002 0.000000 1.000000
outer loop
vertex 0.008240 0.007429 0.150000
vertex 0.000673 0.005069 0.150000
vertex 0.000760 0.001916 0.150000
endloop
endfacet
facet normal 0.000000 0.000000 1.000000
outer loop
vertex 0.011358 0.006427 0.150000
vertex 0.009626 0.007200 0.150000
vertex 0.008240 0.007429 0.150000
endloop
endfacet
facet normal -0.000015 0.000000 1.000000
outer loop
vertex 0.010909 0.001211 0.150000
vertex 0.011888 0.003797 0.150000
vertex 0.011358 0.006427 0.150000
endloop
endfacet
facet normal -0.000052 0.000000 1.000000
outer loop
vertex 0.010488 0.001285 0.150000
vertex 0.010909 0.001211 0.150000
vertex 0.011358 0.006427 0.150000
endloop
endfacet
facet normal 0.000000 0.000000 1.000000
outer loop
vertex 0.011358 0.006427 0.150000
vertex 0.008240 0.007429 0.150000
vertex 0.000760 0.001916 0.150000
endloop
endfacet
facet normal 0.000000 0.000000 1.000000
outer loop
vertex 0.000760 0.001916 0.150000
vertex 0.001114 0.001252 0.150000
vertex 0.002388 0.000142 0.150000
endloop
endfacet
facet normal 0.000021 0.000000 1.000000
outer loop
vertex 0.002388 0.000142 0.150000
vertex 0.002965 0.000001 0.150000
vertex 0.005181 0.000689 0.150000
endloop
endfacet
facet normal 0.000901 0.000000 1.000000
outer loop
vertex 0.002388 0.000142 0.150000
vertex 0.005181 0.000689 0.150000
vertex 0.005360 0.000725 0.150000
endloop
endfacet
facet normal -0.000002 0.000000 1.000000
outer loop
vertex 0.011358 0.006427 0.150000
vertex 0.000760 0.001916 0.150000
vertex 0.002388 0.000142 0.150000
endloop
endfacet
facet normal 0.000522 0.000000 1.000000
outer loop
vertex 0.010403 0.001294 0.150000
vertex 0.010488 0.001285 0.150000
vertex 0.011358 0.006427 0.150000
endloop
endfacet
facet normal 0.000000 0.000000 1.000000
outer loop
vertex 0.010308 0.001283 0.150000
vertex 0.010403 0.001294 0.150000
vertex 0.011358 0.006427 0.150000
endloop
endfacet
facet normal 0.000004 0.000000 1.000000
outer loop
vertex 0.011358 0.006427 0.150000
vertex 0.002388 0.000142 0.150000
vertex 0.005360 0.000725 0.150000
endloop
endfacet
facet normal -0.000823 0.000000 1.000000
outer loop
vertex 0.005539 0.000749 0.150000
vertex 0.005720 0.000770 0.150000
vertex 0.005905 0.000794 0.150000
endloop
endfacet
facet normal 0.000055 0.000000 1.000000
outer loop
vertex 0.011358 0.006427 0.150000
vertex 0.005360 0.000725 0.150000
vertex 0.005539 0.000749 0.150000
endloop
endfacet
facet normal 0.000000 0.000000 1.000000
outer loop
vertex 0.010209 0.001259 0.150000
vertex 0.010308 0.001283 0.150000
vertex 0.011358 0.006427 0.150000
endloop
endfacet
facet normal 0.000000 0.000000 1.000000
outer loop
vertex 0.009224 0.000964 0.150000
vertex 0.009482 0.001036 0.150000
vertex 0.010112 0.001232 0.150000
endloop
endfacet
facet normal 0.000000 0.000000 1.000000
outer loop
vertex 0.010112 0.001232 0.150000
vertex 0.010209 0.001259 0.150000
vertex 0.011358 0.006427 0.150000
endloop
endfacet
facet normal -0.000037 0.000000 1.000000
outer loop
vertex 0.011358 0.006427 0.150000
vertex 0.005539 0.000749 0.150000
vertex 0.005905 0.000794 0.150000
endloop
endfacet
facet normal 0.000008 0.000000 1.000000
outer loop
vertex 0.011358 0.006427 0.150000
vertex 0.005905 0.000794 0.150000
vertex 0.006650 0.000901 0.150000
endloop
endfacet
facet normal 0.000000 0.000000 1.000000
outer loop
vertex 0.009224 0.000964 0.150000
vertex 0.010112 0.001232 0.150000
vertex 0.011358 0.006427 0.150000
endloop
endfacet
facet normal 0.000000 0.000000 1.000000
outer loop
vertex 0.008773 0.000862 0.150000
vertex 0.008925 0.000892 0.150000
vertex 0.009224 0.000964 0.150000
endloop
endfacet
facet normal 0.000000 0.000000 1.000000
outer loop
vertex 0.008303 0.000842 0.150000
vertex 0.008516 0.000835 0.150000
vertex 0.008773 0.000862 0.150000
endloop
endfacet
facet normal 0.000000 0.000000 1.000000
outer loop
vertex 0.008113 0.000872 0.150000
vertex 0.008207 0.000855 0.150000
vertex 0.008303 0.000842 0.150000
endloop
endfacet
facet normal -0.009650 0.000000 0.999954
outer loop
vertex 0.007925 0.000911 0.150000
vertex 0.008021 0.000891 0.150000
vertex 0.008113 0.000872 0.150000
endloop
endfacet
facet normal 0.000471 0.000000 1.000000
outer loop
vertex 0.007925 0.000911 0.150000
vertex 0.008113 0.000872 0.150000
vertex 0.008303 0.000842 0.150000
endloop
endfacet
facet normal -0.000092 0.000000 1.000000
outer loop
vertex 0.008303 0.000842 0.150000
vertex 0.008773 0.000862 0.150000
vertex 0.009224 0.000964 0.150000
endloop
endfacet
facet normal -0.000158 0.000000 1.000000
outer loop
vertex 0.011358 0.006427 0.150000
vertex 0.006650 0.000901 0.150000
vertex 0.006830 0.000924 0.150000
endloop
endfacet
facet normal 0.000109 0.000000 1.000000
outer loop
vertex 0.011358 0.006427 0.150000
vertex 0.006830 0.000924 0.150000
vertex 0.007003 0.000944 0.150000
endloop
endfacet
facet normal 0.000000 0.000000 1.000000
outer loop
vertex 0.008303 0.000842 0.150000
vertex 0.009224 0.000964 0.150000
vertex 0.011358 0.006427 0.150000
endloop
endfacet
facet normal -0.003420 0.000000 0.999994
outer loop
vertex 0.007825 0.000931 0.150000
vertex 0.007925 0.000911 0.150000
vertex 0.008303 0.000842 0.150000
endloop
endfacet
facet normal -0.000040 0.000000 1.000000
outer loop
vertex 0.007825 0.000931 0.150000
vertex 0.008303 0.000842 0.150000
vertex 0.011358 0.006427 0.150000
endloop
endfacet
facet normal 0.000077 0.000000 1.000000
outer loop
vertex 0.011358 0.006427 0.150000
vertex 0.007003 0.000944 0.150000
vertex 0.007168 0.000959 0.150000
endloop
endfacet
facet normal -0.000057 0.000000 1.000000
outer loop
vertex 0.011358 0.006427 0.150000
vertex 0.007168 0.000959 0.150000
vertex 0.007324 0.000968 0.150000
endloop
endfacet
facet normal 0.000178 0.000000 1.000000
outer loop
vertex 0.007717 0.000948 0.150000
vertex 0.007825 0.000931 0.150000
vertex 0.011358 0.006427 0.150000
endloop
endfacet
facet normal 0.000034 0.000000 1.000000
outer loop
vertex 0.011358 0.006427 0.150000
vertex 0.007324 0.000968 0.150000
vertex 0.007599 0.000962 0.150000
endloop
endfacet
facet normal -0.000159 0.000000 1.000000
outer loop
vertex 0.011358 0.006427 0.150000
vertex 0.007599 0.000962 0.150000
vertex 0.007717 0.000948 0.150000
endloop
endfacet
facet normal 0.114656 -0.993405 0.000000
outer loop
vertex 0.010308 0.001283 0.150000
vertex 0.010308 0.001283 0.000000
vertex 0.010403 0.001294 0.000000
endloop
endfacet
facet normal 0.114654 -0.993405 0.000000
outer loop
vertex 0.010308 0.001283 0.150000
vertex 0.010403 0.001294 0.000000
vertex 0.010403 0.001294 0.150000
endloop
endfacet
facet normal 0.579675 0.814847 0.000000
outer loop
vertex 0.011358 0.006427 0.150000
vertex 0.011358 0.006427 0.000000
vertex 0.011037 0.006655 0.000000
endloop
endfacet
facet normal 0.579674 0.814849 0.000000
outer loop
vertex 0.011358 0.006427 0.150000
vertex 0.011037 0.006655 0.000000
vertex 0.011037 0.006655 0.150000
endloop
endfacet
facet normal 0.780745 0.624850 0.000000
outer loop
vertex 0.011625 0.006144 0.150000
vertex 0.011625 0.006144 0.000000
vertex 0.011507 0.006292 0.000000
endloop
endfacet
facet normal 0.780749 0.624845 0.000000
outer loop
vertex 0.011625 0.006144 0.150000
vertex 0.011507 0.006292 0.000000
vertex 0.011507 0.006292 0.150000
endloop
endfacet
facet normal -0.177027 -0.984206 0.000000
outer loop
vertex 0.002661 0.000032 0.150000
vertex 0.002661 0.000032 0.000000
vertex 0.002808 0.000006 0.000000
endloop
endfacet
facet normal -0.177028 -0.984206 0.000000
outer loop
vertex 0.002661 0.000032 0.150000
vertex 0.002808 0.000006 0.000000
vertex 0.002808 0.000006 0.150000
endloop
endfacet
facet normal 0.107595 -0.994195 0.000000
outer loop
vertex 0.002965 0.000001 0.150000
vertex 0.002965 0.000001 0.000000
vertex 0.003135 0.000019 0.000000
endloop
endfacet
facet normal 0.107595 -0.994195 0.000000
outer loop
vertex 0.002965 0.000001 0.150000
vertex 0.003135 0.000019 0.000000
vertex 0.003135 0.000019 0.150000
endloop
endfacet
facet normal 0.000000 0.000000 1.000000
outer loop
vertex 0.011888 0.003797 0.000000
vertex 0.011885 0.005012 0.000000
vertex 0.011877 0.005228 0.000000
endloop
endfacet
facet normal 0.999438 0.033530 0.000000
outer loop
vertex 0.011877 0.005228 0.000000
vertex 0.011877 0.005228 0.150000
vertex 0.011885 0.005012 0.150000
endloop
endfacet
facet normal 0.999095 -0.042529 0.000000
outer loop
vertex 0.011888 0.003797 0.150000
vertex 0.011879 0.003569 0.150000
vertex 0.011879 0.003569 0.000000
endloop
endfacet
facet normal 0.999996 0.003004 -0.000044
outer loop
vertex 0.011877 0.005228 0.000000
vertex 0.011885 0.005012 0.150000
vertex 0.011888 0.003797 0.150000
endloop
endfacet
facet normal 0.000000 0.000000 1.000000
outer loop
vertex 0.011879 0.003569 0.000000
vertex 0.011888 0.003797 0.000000
vertex 0.011877 0.005228 0.000000
endloop
endfacet
facet normal 1.000000 0.000743 -0.000066
outer loop
vertex 0.011877 0.005228 0.000000
vertex 0.011888 0.003797 0.150000
vertex 0.011879 0.003569 0.000000
endloop
endfacet
facet normal -0.702021 0.712156 0.000000
outer loop
vertex 0.000673 0.005069 0.000000
vertex 0.000408 0.004809 0.000000
vertex 0.000408 0.004809 0.150000
endloop
endfacet
facet normal -0.702021 0.712156 0.000000
outer loop
vertex 0.000673 0.005069 0.000000
vertex 0.000408 0.004809 0.150000
vertex 0.000673 0.005069 0.150000
endloop
endfacet
facet normal -0.687435 0.726246 0.000000
outer loop
vertex 0.000974 0.005355 0.000000
vertex 0.000673 0.005069 0.000000
vertex 0.000673 0.005069 0.150000
endloop
endfacet
facet normal -0.687435 0.726246 0.000000
outer loop
vertex 0.000974 0.005355 0.000000
vertex 0.000673 0.005069 0.150000
vertex 0.000974 0.005355 0.150000
endloop
endfacet
facet normal -0.660797 0.750564 0.000000
outer loop
vertex 0.002712 0.006905 0.150000
vertex 0.002712 0.006905 0.000000
vertex 0.001620 0.005944 0.000000
endloop
endfacet
facet normal -0.674196 0.738553 0.000000
outer loop
vertex 0.001620 0.005944 0.000000
vertex 0.000974 0.005355 0.000000
vertex 0.000974 0.005355 0.150000
endloop
endfacet
facet normal -0.660797 0.750564 0.000000
outer loop
vertex 0.001620 0.005944 0.150000
vertex 0.002712 0.006905 0.150000
vertex 0.001620 0.005944 0.000000
endloop
endfacet
facet normal -0.674196 0.738553 0.000000
outer loop
vertex 0.000974 0.005355 0.150000
vertex 0.001620 0.005944 0.150000
vertex 0.001620 0.005944 0.000000
endloop
endfacet
facet normal -0.020584 -0.999788 0.000000
outer loop
vertex 0.007324 0.000968 0.150000
vertex 0.007324 0.000968 0.000000
vertex 0.007599 0.000962 0.000000
endloop
endfacet
facet normal -0.020584 -0.999788 0.000000
outer loop
vertex 0.007324 0.000968 0.150000
vertex 0.007599 0.000962 0.000000
vertex 0.007599 0.000962 0.150000
endloop
endfacet
facet normal 0.000000 0.000000 -1.000000
outer loop
vertex 0.009482 0.001036 0.000000
vertex 0.010112 0.001232 0.000000
vertex 0.010209 0.001259 0.000000
endloop
endfacet
facet normal 0.242133 -0.970243 0.000000
outer loop
vertex 0.010209 0.001259 0.000000
vertex 0.010308 0.001283 0.000000
vertex 0.010308 0.001283 0.150000
endloop
endfacet
facet normal 0.242133 -0.970243 0.000000
outer loop
vertex 0.010209 0.001259 0.000000
vertex 0.010308 0.001283 0.150000
vertex 0.010209 0.001259 0.150000
endloop
endfacet
facet normal 0.291940 -0.956437 0.000000
outer loop
vertex 0.009482 0.001036 0.000000
vertex 0.010209 0.001259 0.000000
vertex 0.010209 0.001259 0.150000
endloop
endfacet
facet normal 0.265839 -0.964017 0.000138
outer loop
vertex 0.009482 0.001036 0.000000
vertex 0.010209 0.001259 0.150000
vertex 0.010112 0.001232 0.150000
endloop
endfacet
facet normal 0.269832 -0.962908 0.000120
outer loop
vertex 0.009224 0.000964 0.000000
vertex 0.009482 0.001036 0.000000
vertex 0.010112 0.001232 0.150000
endloop
endfacet
facet normal 0.295933 -0.955209 -0.000049
outer loop
vertex 0.009224 0.000964 0.000000
vertex 0.010112 0.001232 0.150000
vertex 0.009482 0.001036 0.150000
endloop
endfacet
facet normal 0.192566 -0.981284 0.000000
outer loop
vertex 0.008773 0.000862 0.150000
vertex 0.008773 0.000862 0.000000
vertex 0.008925 0.000892 0.000000
endloop
endfacet
facet normal 0.236312 -0.971677 0.000062
outer loop
vertex 0.008925 0.000892 0.000000
vertex 0.009224 0.000964 0.000000
vertex 0.009482 0.001036 0.150000
endloop
endfacet
facet normal 0.269833 -0.962907 -0.000071
outer loop
vertex 0.008925 0.000892 0.000000
vertex 0.009482 0.001036 0.150000
vertex 0.009224 0.000964 0.150000
endloop
endfacet
facet normal 0.192566 -0.981284 0.000000
outer loop
vertex 0.008925 0.000892 0.150000
vertex 0.008773 0.000862 0.150000
vertex 0.008925 0.000892 0.000000
endloop
endfacet
facet normal 0.236312 -0.971677 0.000000
outer loop
vertex 0.008925 0.000892 0.000000
vertex 0.009224 0.000964 0.150000
vertex 0.008925 0.000892 0.150000
endloop
endfacet
facet normal -0.000288 1.000000 0.000000
outer loop
vertex 0.008025 0.007441 0.000000
vertex 0.007566 0.007441 0.000000
vertex 0.007566 0.007441 0.150000
endloop
endfacet
facet normal -0.000288 1.000000 0.000000
outer loop
vertex 0.008025 0.007441 0.000000
vertex 0.007566 0.007441 0.150000
vertex 0.008025 0.007441 0.150000
endloop
endfacet
facet normal 0.968784 0.247908 0.000000
outer loop
vertex 0.011830 0.005629 0.150000
vertex 0.011830 0.005629 0.000000
vertex 0.011783 0.005812 0.000000
endloop
endfacet
facet normal 0.968784 0.247908 0.000000
outer loop
vertex 0.011830 0.005629 0.150000
vertex 0.011783 0.005812 0.000000
vertex 0.011783 0.005812 0.150000
endloop
endfacet
facet normal -0.313388 -0.949625 0.000000
outer loop
vertex 0.002522 0.000078 0.150000
vertex 0.002522 0.000078 0.000000
vertex 0.002661 0.000032 0.000000
endloop
endfacet
facet normal -0.313387 -0.949625 0.000000
outer loop
vertex 0.002522 0.000078 0.150000
vertex 0.002661 0.000032 0.000000
vertex 0.002661 0.000032 0.150000
endloop
endfacet
facet normal -0.977987 -0.208667 0.000000
outer loop
vertex 0.000017 0.004092 0.000000
vertex 0.000130 0.003565 0.000000
vertex 0.000130 0.003565 0.150000
endloop
endfacet
facet normal -0.977987 -0.208667 0.000000
outer loop
vertex 0.000017 0.004092 0.000000
vertex 0.000130 0.003565 0.150000
vertex 0.000017 0.004092 0.150000
endloop
endfacet
facet normal 0.869247 0.494378 0.000000
outer loop
vertex 0.011716 0.005984 0.150000
vertex 0.011716 0.005984 0.000000
vertex 0.011625 0.006144 0.000000
endloop
endfacet
facet normal 0.869244 0.494384 0.000000
outer loop
vertex 0.011716 0.005984 0.150000
vertex 0.011625 0.006144 0.000000
vertex 0.011625 0.006144 0.150000
endloop
endfacet
facet normal -0.254124 -0.967172 0.000000
outer loop
vertex 0.010706 0.001208 0.150000
vertex 0.010706 0.001208 0.000000
vertex 0.010773 0.001190 0.000000
endloop
endfacet
facet normal -0.254113 -0.967175 0.000000
outer loop
vertex 0.010706 0.001208 0.150000
vertex 0.010773 0.001190 0.000000
vertex 0.010773 0.001190 0.150000
endloop
endfacet
facet normal -0.746001 0.665945 0.000000
outer loop
vertex 0.000408 0.004809 0.150000
vertex 0.000408 0.004809 0.000000
vertex 0.000056 0.004414 0.000000
endloop
endfacet
facet normal -0.746001 0.665945 0.000000
outer loop
vertex 0.000408 0.004809 0.150000
vertex 0.000056 0.004414 0.000000
vertex 0.000056 0.004414 0.150000
endloop
endfacet
facet normal 0.103100 -0.994671 0.000000
outer loop
vertex 0.008516 0.000835 0.150000
vertex 0.008516 0.000835 0.000000
vertex 0.008773 0.000862 0.000000
endloop
endfacet
facet normal 0.103100 -0.994671 0.000000
outer loop
vertex 0.008516 0.000835 0.150000
vertex 0.008773 0.000862 0.000000
vertex 0.008773 0.000862 0.150000
endloop
endfacet
facet normal 0.318847 -0.947806 0.000000
outer loop
vertex 0.003319 0.000063 0.000000
vertex 0.005181 0.000689 0.000000
vertex 0.005181 0.000689 0.150000
endloop
endfacet
facet normal 0.318847 -0.947806 0.000000
outer loop
vertex 0.003319 0.000063 0.000000
vertex 0.005181 0.000689 0.150000
vertex 0.003319 0.000063 0.150000
endloop
endfacet
facet normal -0.121782 0.992557 0.000000
outer loop
vertex 0.005702 0.007272 0.000000
vertex 0.002712 0.006905 0.000000
vertex 0.002712 0.006905 0.150000
endloop
endfacet
facet normal -0.121782 0.992557 0.000000
outer loop
vertex 0.005702 0.007272 0.000000
vertex 0.002712 0.006905 0.150000
vertex 0.005702 0.007272 0.150000
endloop
endfacet
facet normal -0.059040 0.998256 0.000000
outer loop
vertex 0.007566 0.007441 0.150000
vertex 0.007566 0.007441 0.000000
vertex 0.007322 0.007426 0.000000
endloop
endfacet
facet normal -0.094723 0.995504 0.000000
outer loop
vertex 0.007322 0.007426 0.000000
vertex 0.005702 0.007272 0.000000
vertex 0.005702 0.007272 0.150000
endloop
endfacet
facet normal -0.059040 0.998256 0.000000
outer loop
vertex 0.007322 0.007426 0.150000
vertex 0.007566 0.007441 0.150000
vertex 0.007322 0.007426 0.000000
endloop
endfacet
facet normal -0.094723 0.995504 0.000000
outer loop
vertex 0.007322 0.007426 0.000000
vertex 0.005702 0.007272 0.150000
vertex 0.007322 0.007426 0.150000
endloop
endfacet
facet normal 0.416854 0.908974 0.000000
outer loop
vertex 0.010735 0.006831 0.150000
vertex 0.010735 0.006831 0.000000
vertex 0.010447 0.006963 0.000000
endloop
endfacet
facet normal 0.416854 0.908974 0.000000
outer loop
vertex 0.010735 0.006831 0.150000
vertex 0.010447 0.006963 0.000000
vertex 0.010447 0.006963 0.150000
endloop
endfacet
facet normal 0.000000 0.000000 1.000000
outer loop
vertex 0.009761 0.007169 0.000000
vertex 0.009626 0.007200 0.000000
vertex 0.009485 0.007230 0.000000
endloop
endfacet
facet normal 0.000000 0.000000 1.000000
outer loop
vertex 0.009485 0.007230 0.000000
vertex 0.009335 0.007263 0.000000
vertex 0.009176 0.007296 0.000000
endloop
endfacet
facet normal 0.000000 0.000000 1.000000
outer loop
vertex 0.009176 0.007296 0.000000
vertex 0.009008 0.007328 0.000000
vertex 0.008830 0.007359 0.000000
endloop
endfacet
facet normal 0.170192 0.985411 0.000000
outer loop
vertex 0.008830 0.007359 0.000000
vertex 0.008830 0.007359 0.150000
vertex 0.009008 0.007328 0.150000
endloop
endfacet
facet normal 0.189331 0.981913 -0.000023
outer loop
vertex 0.008830 0.007359 0.000000
vertex 0.009008 0.007328 0.150000
vertex 0.009176 0.007296 0.150000
endloop
endfacet
facet normal 0.000000 0.000000 1.000000
outer loop
vertex 0.009485 0.007230 0.000000
vertex 0.009176 0.007296 0.000000
vertex 0.008830 0.007359 0.000000
endloop
endfacet
facet normal 0.000000 0.000000 1.000000
outer loop
vertex 0.009896 0.007137 0.000000
vertex 0.009761 0.007169 0.000000
vertex 0.009485 0.007230 0.000000
endloop
endfacet
facet normal 0.000000 0.000000 1.000000
outer loop
vertex 0.010169 0.007062 0.000000
vertex 0.010032 0.007102 0.000000
vertex 0.009896 0.007137 0.000000
endloop
endfacet
facet normal 0.281833 0.959463 0.000000
outer loop
vertex 0.010032 0.007102 0.150000
vertex 0.010169 0.007062 0.150000
vertex 0.010169 0.007062 0.000000
endloop
endfacet
facet normal 0.253458 0.967346 -0.000028
outer loop
vertex 0.009896 0.007137 0.150000
vertex 0.010032 0.007102 0.150000
vertex 0.010169 0.007062 0.000000
endloop
endfacet
facet normal 0.000000 0.000000 1.000000
outer loop
vertex 0.010169 0.007062 0.000000
vertex 0.009896 0.007137 0.000000
vertex 0.009485 0.007230 0.000000
endloop
endfacet
facet normal 0.192893 0.981220 -0.000032
outer loop
vertex 0.009485 0.007230 0.000000
vertex 0.008830 0.007359 0.000000
vertex 0.009176 0.007296 0.150000
endloop
endfacet
facet normal 0.203578 0.979059 -0.000009
outer loop
vertex 0.009485 0.007230 0.000000
vertex 0.009176 0.007296 0.150000
vertex 0.009335 0.007263 0.150000
endloop
endfacet
facet normal 0.239782 0.970827 -0.000055
outer loop
vertex 0.009896 0.007137 0.150000
vertex 0.010169 0.007062 0.000000
vertex 0.009485 0.007230 0.000000
endloop
endfacet
facet normal 0.231670 0.972795 -0.000031
outer loop
vertex 0.009761 0.007169 0.150000
vertex 0.009896 0.007137 0.150000
vertex 0.009485 0.007230 0.000000
endloop
endfacet
facet normal 0.212167 0.977233 0.000000
outer loop
vertex 0.009485 0.007230 0.000000
vertex 0.009335 0.007263 0.150000
vertex 0.009485 0.007230 0.150000
endloop
endfacet
facet normal 0.217164 0.976135 -0.000003
outer loop
vertex 0.009626 0.007200 0.150000
vertex 0.009761 0.007169 0.150000
vertex 0.009485 0.007230 0.000000
endloop
endfacet
facet normal 0.214078 0.976817 0.000000
outer loop
vertex 0.009485 0.007230 0.000000
vertex 0.009485 0.007230 0.150000
vertex 0.009626 0.007200 0.150000
endloop
endfacet
facet normal -0.018600 -0.999827 0.000000
outer loop
vertex 0.010773 0.001190 0.150000
vertex 0.010773 0.001190 0.000000
vertex 0.010840 0.001189 0.000000
endloop
endfacet
facet normal -0.018600 -0.999827 0.000000
outer loop
vertex 0.010773 0.001190 0.150000
vertex 0.010840 0.001189 0.000000
vertex 0.010840 0.001189 0.150000
endloop
endfacet
facet normal -0.428854 -0.903374 0.000000
outer loop
vertex 0.002388 0.000142 0.150000
vertex 0.002388 0.000142 0.000000
vertex 0.002522 0.000078 0.000000
endloop
endfacet
facet normal -0.428855 -0.903373 0.000000
outer loop
vertex 0.002388 0.000142 0.150000
vertex 0.002522 0.000078 0.000000
vertex 0.002522 0.000078 0.150000
endloop
endfacet
facet normal 0.000000 0.000000 -1.000000
outer loop
vertex 0.003319 0.000063 0.000000
vertex 0.003135 0.000019 0.000000
vertex 0.002965 0.000001 0.000000
endloop
endfacet
facet normal 0.000000 0.000000 -1.000000
outer loop
vertex 0.002965 0.000001 0.000000
vertex 0.002808 0.000006 0.000000
vertex 0.002661 0.000032 0.000000
endloop
endfacet
facet normal 0.000000 0.000000 -1.000000
outer loop
vertex 0.002661 0.000032 0.000000
vertex 0.002522 0.000078 0.000000
vertex 0.002388 0.000142 0.000000
endloop
endfacet
facet normal 0.000000 0.000000 -1.000000
outer loop
vertex 0.002388 0.000142 0.000000
vertex 0.002127 0.000314 0.000000
vertex 0.001422 0.000912 0.000000
endloop
endfacet
facet normal 0.000000 0.000000 -1.000000
outer loop
vertex 0.001422 0.000912 0.000000
vertex 0.001199 0.001144 0.000000
vertex 0.001114 0.001252 0.000000
endloop
endfacet
facet normal 0.000000 0.000000 -1.000000
outer loop
vertex 0.001114 0.001252 0.000000
vertex 0.000979 0.001464 0.000000
vertex 0.000923 0.001571 0.000000
endloop
endfacet
facet normal 0.000000 0.000000 -1.000000
outer loop
vertex 0.000923 0.001571 0.000000
vertex 0.000869 0.001680 0.000000
vertex 0.000816 0.001795 0.000000
endloop
endfacet
facet normal 0.000000 0.000000 -1.000000
outer loop
vertex 0.000923 0.001571 0.000000
vertex 0.000816 0.001795 0.000000
vertex 0.000760 0.001916 0.000000
endloop
endfacet
facet normal 0.000000 0.000000 -1.000000
outer loop
vertex 0.001422 0.000912 0.000000
vertex 0.001114 0.001252 0.000000
vertex 0.000923 0.001571 0.000000
endloop
endfacet
facet normal 0.000000 0.000000 -1.000000
outer loop
vertex 0.002661 0.000032 0.000000
vertex 0.002388 0.000142 0.000000
vertex 0.001422 0.000912 0.000000
endloop
endfacet
facet normal 0.000000 0.000000 -1.000000
outer loop
vertex 0.003319 0.000063 0.000000
vertex 0.002965 0.000001 0.000000
vertex 0.002661 0.000032 0.000000
endloop
endfacet
facet normal 0.000000 0.000000 -1.000000
outer loop
vertex 0.005181 0.000689 0.000000
vertex 0.003319 0.000063 0.000000
vertex 0.002661 0.000032 0.000000
endloop
endfacet
facet normal 0.000000 0.000000 -1.000000
outer loop
vertex 0.002661 0.000032 0.000000
vertex 0.001422 0.000912 0.000000
vertex 0.000923 0.001571 0.000000
endloop
endfacet
facet normal 0.000000 0.000000 -1.000000
outer loop
vertex 0.002661 0.000032 0.000000
vertex 0.000923 0.001571 0.000000
vertex 0.000760 0.001916 0.000000
endloop
endfacet
facet normal 0.000000 0.000000 -1.000000
outer loop
vertex 0.005181 0.000689 0.000000
vertex 0.002661 0.000032 0.000000
vertex 0.000760 0.001916 0.000000
endloop
endfacet
facet normal 0.000000 0.000000 -1.000000
outer loop
vertex 0.000697 0.002045 0.000000
vertex 0.000624 0.002185 0.000000
vertex 0.000545 0.002343 0.000000
endloop
endfacet
facet normal 0.000000 0.000000 -1.000000
outer loop
vertex 0.005181 0.000689 0.000000
vertex 0.000760 0.001916 0.000000
vertex 0.000697 0.002045 0.000000
endloop
endfacet
facet normal 0.000000 0.000000 -1.000000
outer loop
vertex 0.005360 0.000725 0.000000
vertex 0.005181 0.000689 0.000000
vertex 0.000697 0.002045 0.000000
endloop
endfacet
facet normal 0.000000 0.000000 -1.000000
outer loop
vertex 0.000697 0.002045 0.000000
vertex 0.000545 0.002343 0.000000
vertex 0.000467 0.002524 0.000000
endloop
endfacet
facet normal 0.000000 0.000000 -1.000000
outer loop
vertex 0.000467 0.002524 0.000000
vertex 0.000390 0.002721 0.000000
vertex 0.000130 0.003565 0.000000
endloop
endfacet
facet normal 0.000000 0.000000 -1.000000
outer loop
vertex 0.000130 0.003565 0.000000
vertex 0.000017 0.004092 0.000000
vertex 0.000002 0.004216 0.000000
endloop
endfacet
facet normal 0.000000 0.000000 -1.000000
outer loop
vertex 0.000002 0.004216 0.000000
vertex 0.000001 0.004306 0.000000
vertex 0.000056 0.004414 0.000000
endloop
endfacet
facet normal 0.000000 0.000000 -1.000000
outer loop
vertex 0.000056 0.004414 0.000000
vertex 0.000408 0.004809 0.000000
vertex 0.000673 0.005069 0.000000
endloop
endfacet
facet normal 0.000000 0.000000 -1.000000
outer loop
vertex 0.000673 0.005069 0.000000
vertex 0.000974 0.005355 0.000000
vertex 0.001620 0.005944 0.000000
endloop
endfacet
facet normal 0.000000 0.000000 -1.000000
outer loop
vertex 0.001620 0.005944 0.000000
vertex 0.002712 0.006905 0.000000
vertex 0.005702 0.007272 0.000000
endloop
endfacet
facet normal 0.000000 0.000000 -1.000000
outer loop
vertex 0.005702 0.007272 0.000000
vertex 0.007322 0.007426 0.000000
vertex 0.007566 0.007441 0.000000
endloop
endfacet
facet normal 0.000000 0.000000 -1.000000
outer loop
vertex 0.007566 0.007441 0.000000
vertex 0.008025 0.007441 0.000000
vertex 0.008240 0.007429 0.000000
endloop
endfacet
facet normal 0.000000 0.000000 -1.000000
outer loop
vertex 0.008240 0.007429 0.000000
vertex 0.008446 0.007411 0.000000
vertex 0.008643 0.007387 0.000000
endloop
endfacet
facet normal 0.000000 0.000000 -1.000000
outer loop
vertex 0.008643 0.007387 0.000000
vertex 0.008830 0.007359 0.000000
vertex 0.009008 0.007328 0.000000
endloop
endfacet
facet normal 0.000000 0.000000 -1.000000
outer loop
vertex 0.009008 0.007328 0.000000
vertex 0.009176 0.007296 0.000000
vertex 0.009335 0.007263 0.000000
endloop
endfacet
facet normal 0.000000 0.000000 -1.000000
outer loop
vertex 0.009335 0.007263 0.000000
vertex 0.009485 0.007230 0.000000
vertex 0.009626 0.007200 0.000000
endloop
endfacet
facet normal 0.000000 0.000000 -1.000000
outer loop
vertex 0.009626 0.007200 0.000000
vertex 0.009761 0.007169 0.000000
vertex 0.009896 0.007137 0.000000
endloop
endfacet
facet normal 0.000000 0.000000 -1.000000
outer loop
vertex 0.009896 0.007137 0.000000
vertex 0.010032 0.007102 0.000000
vertex 0.010169 0.007062 0.000000
endloop
endfacet
facet normal 0.000000 0.000000 -1.000000
outer loop
vertex 0.010169 0.007062 0.000000
vertex 0.010447 0.006963 0.000000
vertex 0.010735 0.006831 0.000000
endloop
endfacet
facet normal 0.000000 0.000000 -1.000000
outer loop
vertex 0.010735 0.006831 0.000000
vertex 0.011037 0.006655 0.000000
vertex 0.011358 0.006427 0.000000
endloop
endfacet
facet normal 0.000000 0.000000 -1.000000
outer loop
vertex 0.011358 0.006427 0.000000
vertex 0.011507 0.006292 0.000000
vertex 0.011625 0.006144 0.000000
endloop
endfacet
facet normal 0.000000 0.000000 -1.000000
outer loop
vertex 0.011625 0.006144 0.000000
vertex 0.011716 0.005984 0.000000
vertex 0.011783 0.005812 0.000000
endloop
endfacet
facet normal 0.000000 0.000000 -1.000000
outer loop
vertex 0.011783 0.005812 0.000000
vertex 0.011830 0.005629 0.000000
vertex 0.011877 0.005228 0.000000
endloop
endfacet
facet normal 0.000000 0.000000 -1.000000
outer loop
vertex 0.011877 0.005228 0.000000
vertex 0.011885 0.005012 0.000000
vertex 0.011888 0.003797 0.000000
endloop
endfacet
facet normal 0.000000 0.000000 -1.000000
outer loop
vertex 0.011888 0.003797 0.000000
vertex 0.011879 0.003569 0.000000
vertex 0.011828 0.003164 0.000000
endloop
endfacet
facet normal 0.000000 0.000000 -1.000000
outer loop
vertex 0.011828 0.003164 0.000000
vertex 0.011737 0.002802 0.000000
vertex 0.011608 0.002453 0.000000
endloop
endfacet
facet normal 0.000000 0.000000 -1.000000
outer loop
vertex 0.011608 0.002453 0.000000
vertex 0.011152 0.001493 0.000000
vertex 0.011063 0.001356 0.000000
endloop
endfacet
facet normal 0.000000 0.000000 -1.000000
outer loop
vertex 0.011063 0.001356 0.000000
vertex 0.010983 0.001265 0.000000
vertex 0.010909 0.001211 0.000000
endloop
endfacet
facet normal 0.000000 0.000000 -1.000000
outer loop
vertex 0.010909 0.001211 0.000000
vertex 0.010840 0.001189 0.000000
vertex 0.010773 0.001190 0.000000
endloop
endfacet
facet normal 0.000000 0.000000 -1.000000
outer loop
vertex 0.010773 0.001190 0.000000
vertex 0.010706 0.001208 0.000000
vertex 0.010566 0.001262 0.000000
endloop
endfacet
facet normal 0.000000 0.000000 -1.000000
outer loop
vertex 0.010909 0.001211 0.000000
vertex 0.010773 0.001190 0.000000
vertex 0.010566 0.001262 0.000000
endloop
endfacet
facet normal 0.000000 0.000000 -1.000000
outer loop
vertex 0.011608 0.002453 0.000000
vertex 0.011063 0.001356 0.000000
vertex 0.010909 0.001211 0.000000
endloop
endfacet
facet normal 0.000000 0.000000 -1.000000
outer loop
vertex 0.011888 0.003797 0.000000
vertex 0.011828 0.003164 0.000000
vertex 0.011608 0.002453 0.000000
endloop
endfacet
facet normal 0.000000 0.000000 -1.000000
outer loop
vertex 0.011783 0.005812 0.000000
vertex 0.011877 0.005228 0.000000
vertex 0.011888 0.003797 0.000000
endloop
endfacet
facet normal 0.000000 0.000000 -1.000000
outer loop
vertex 0.011358 0.006427 0.000000
vertex 0.011625 0.006144 0.000000
vertex 0.011783 0.005812 0.000000
endloop
endfacet
facet normal 0.000000 0.000000 -1.000000
outer loop
vertex 0.010169 0.007062 0.000000
vertex 0.010735 0.006831 0.000000
vertex 0.011358 0.006427 0.000000
endloop
endfacet
facet normal 0.000000 0.000000 -1.000000
outer loop
vertex 0.009626 0.007200 0.000000
vertex 0.009896 0.007137 0.000000
vertex 0.010169 0.007062 0.000000
endloop
endfacet
facet normal 0.000000 0.000000 -1.000000
outer loop
vertex 0.009008 0.007328 0.000000
vertex 0.009335 0.007263 0.000000
vertex 0.009626 0.007200 0.000000
endloop
endfacet
facet normal 0.000000 0.000000 -1.000000
outer loop
vertex 0.008240 0.007429 0.000000
vertex 0.008643 0.007387 0.000000
vertex 0.009008 0.007328 0.000000
endloop
endfacet
facet normal 0.000000 0.000000 -1.000000
outer loop
vertex 0.005702 0.007272 0.000000
vertex 0.007566 0.007441 0.000000
vertex 0.008240 0.007429 0.000000
endloop
endfacet
facet normal 0.000000 0.000000 -1.000000
outer loop
vertex 0.000673 0.005069 0.000000
vertex 0.001620 0.005944 0.000000
vertex 0.005702 0.007272 0.000000
endloop
endfacet
facet normal 0.000000 0.000000 -1.000000
outer loop
vertex 0.000002 0.004216 0.000000
vertex 0.000056 0.004414 0.000000
vertex 0.000673 0.005069 0.000000
endloop
endfacet
facet normal 0.000000 0.000000 -1.000000
outer loop
vertex 0.000467 0.002524 0.000000
vertex 0.000130 0.003565 0.000000
vertex 0.000002 0.004216 0.000000
endloop
endfacet
facet normal 0.000000 0.000000 -1.000000
outer loop
vertex 0.005360 0.000725 0.000000
vertex 0.000697 0.002045 0.000000
vertex 0.000467 0.002524 0.000000
endloop
endfacet
facet normal 0.000000 0.000000 -1.000000
outer loop
vertex 0.005905 0.000794 0.000000
vertex 0.005720 0.000770 0.000000
vertex 0.005539 0.000749 0.000000
endloop
endfacet
facet normal 0.000000 0.000000 -1.000000
outer loop
vertex 0.005539 0.000749 0.000000
vertex 0.005360 0.000725 0.000000
vertex 0.000467 0.002524 0.000000
endloop
endfacet
facet normal 0.000000 0.000000 -1.000000
outer loop
vertex 0.000467 0.002524 0.000000
vertex 0.000002 0.004216 0.000000
vertex 0.000673 0.005069 0.000000
endloop
endfacet
facet normal 0.000000 0.000000 -1.000000
outer loop
vertex 0.000673 0.005069 0.000000
vertex 0.005702 0.007272 0.000000
vertex 0.008240 0.007429 0.000000
endloop
endfacet
facet normal 0.000000 0.000000 -1.000000
outer loop
vertex 0.008240 0.007429 0.000000
vertex 0.009008 0.007328 0.000000
vertex 0.009626 0.007200 0.000000
endloop
endfacet
facet normal 0.000000 0.000000 -1.000000
outer loop
vertex 0.009626 0.007200 0.000000
vertex 0.010169 0.007062 0.000000
vertex 0.011358 0.006427 0.000000
endloop
endfacet
facet normal 0.000000 0.000000 -1.000000
outer loop
vertex 0.011358 0.006427 0.000000
vertex 0.011783 0.005812 0.000000
vertex 0.011888 0.003797 0.000000
endloop
endfacet
facet normal 0.000000 0.000000 -1.000000
outer loop
vertex 0.011888 0.003797 0.000000
vertex 0.011608 0.002453 0.000000
vertex 0.010909 0.001211 0.000000
endloop
endfacet
facet normal 0.000000 0.000000 -1.000000
outer loop
vertex 0.010909 0.001211 0.000000
vertex 0.010566 0.001262 0.000000
vertex 0.010488 0.001285 0.000000
endloop
endfacet
facet normal 0.000000 0.000000 -1.000000
outer loop
vertex 0.011888 0.003797 0.000000
vertex 0.010909 0.001211 0.000000
vertex 0.010488 0.001285 0.000000
endloop
endfacet
facet normal 0.000000 0.000000 -1.000000
outer loop
vertex 0.009626 0.007200 0.000000
vertex 0.011358 0.006427 0.000000
vertex 0.011888 0.003797 0.000000
endloop
endfacet
facet normal 0.000000 0.000000 -1.000000
outer loop
vertex 0.000673 0.005069 0.000000
vertex 0.008240 0.007429 0.000000
vertex 0.009626 0.007200 0.000000
endloop
endfacet
facet normal 0.000000 0.000000 -1.000000
outer loop
vertex 0.005539 0.000749 0.000000
vertex 0.000467 0.002524 0.000000
vertex 0.000673 0.005069 0.000000
endloop
endfacet
facet normal 0.000000 0.000000 -1.000000
outer loop
vertex 0.006650 0.000901 0.000000
vertex 0.005905 0.000794 0.000000
vertex 0.005539 0.000749 0.000000
endloop
endfacet
facet normal 0.000000 0.000000 -1.000000
outer loop
vertex 0.006650 0.000901 0.000000
vertex 0.005539 0.000749 0.000000
vertex 0.000673 0.005069 0.000000
endloop
endfacet
facet normal 0.000000 0.000000 -1.000000
outer loop
vertex 0.000673 0.005069 0.000000
vertex 0.009626 0.007200 0.000000
vertex 0.011888 0.003797 0.000000
endloop
endfacet
facet normal 0.000000 0.000000 -1.000000
outer loop
vertex 0.011888 0.003797 0.000000
vertex 0.010488 0.001285 0.000000
vertex 0.010403 0.001294 0.000000
endloop
endfacet
facet normal 0.000000 0.000000 -1.000000
outer loop
vertex 0.011888 0.003797 0.000000
vertex 0.010403 0.001294 0.000000
vertex 0.010308 0.001283 0.000000
endloop
endfacet
facet normal 0.000000 0.000000 -1.000000
outer loop
vertex 0.006650 0.000901 0.000000
vertex 0.000673 0.005069 0.000000
vertex 0.011888 0.003797 0.000000
endloop
endfacet
facet normal 0.000000 0.000000 -1.000000
outer loop
vertex 0.006830 0.000924 0.000000
vertex 0.006650 0.000901 0.000000
vertex 0.011888 0.003797 0.000000
endloop
endfacet
facet normal 0.000000 0.000000 -1.000000
outer loop
vertex 0.011888 0.003797 0.000000
vertex 0.010308 0.001283 0.000000
vertex 0.010209 0.001259 0.000000
endloop
endfacet
facet normal 0.000000 0.000000 -1.000000
outer loop
vertex 0.010112 0.001232 0.000000
vertex 0.009482 0.001036 0.000000
vertex 0.009224 0.000964 0.000000
endloop
endfacet
facet normal 0.000000 0.000000 -1.000000
outer loop
vertex 0.011888 0.003797 0.000000
vertex 0.010209 0.001259 0.000000
vertex 0.010112 0.001232 0.000000
endloop
endfacet
facet normal 0.000000 0.000000 -1.000000
outer loop
vertex 0.007003 0.000944 0.000000
vertex 0.006830 0.000924 0.000000
vertex 0.011888 0.003797 0.000000
endloop
endfacet
facet normal 0.000000 0.000000 -1.000000
outer loop
vertex 0.007168 0.000959 0.000000
vertex 0.007003 0.000944 0.000000
vertex 0.011888 0.003797 0.000000
endloop
endfacet
facet normal 0.000000 0.000000 -1.000000
outer loop
vertex 0.011888 0.003797 0.000000
vertex 0.010112 0.001232 0.000000
vertex 0.009224 0.000964 0.000000
endloop
endfacet
facet normal 0.000000 0.000000 -1.000000
outer loop
vertex 0.009224 0.000964 0.000000
vertex 0.008925 0.000892 0.000000
vertex 0.008773 0.000862 0.000000
endloop
endfacet
facet normal 0.000000 0.000000 -1.000000
outer loop
vertex 0.008773 0.000862 0.000000
vertex 0.008516 0.000835 0.000000
vertex 0.008303 0.000842 0.000000
endloop
endfacet
facet normal 0.000000 0.000000 -1.000000
outer loop
vertex 0.008303 0.000842 0.000000
vertex 0.008207 0.000855 0.000000
vertex 0.008113 0.000872 0.000000
endloop
endfacet
facet normal 0.000000 0.000000 -1.000000
outer loop
vertex 0.008113 0.000872 0.000000
vertex 0.008021 0.000891 0.000000
vertex 0.007925 0.000911 0.000000
endloop
endfacet
facet normal 0.000000 0.000000 -1.000000
outer loop
vertex 0.008303 0.000842 0.000000
vertex 0.008113 0.000872 0.000000
vertex 0.007925 0.000911 0.000000
endloop
endfacet
facet normal 0.000000 0.000000 -1.000000
outer loop
vertex 0.009224 0.000964 0.000000
vertex 0.008773 0.000862 0.000000
vertex 0.008303 0.000842 0.000000
endloop
endfacet
facet normal 0.000000 0.000000 -1.000000
outer loop
vertex 0.007324 0.000968 0.000000
vertex 0.007168 0.000959 0.000000
vertex 0.011888 0.003797 0.000000
endloop
endfacet
facet normal 0.000000 0.000000 -1.000000
outer loop
vertex 0.007599 0.000962 0.000000
vertex 0.007324 0.000968 0.000000
vertex 0.011888 0.003797 0.000000
endloop
endfacet
facet normal 0.000000 0.000000 -1.000000
outer loop
vertex 0.011888 0.003797 0.000000
vertex 0.009224 0.000964 0.000000
vertex 0.008303 0.000842 0.000000
endloop
endfacet
facet normal 0.000000 0.000000 -1.000000
outer loop
vertex 0.008303 0.000842 0.000000
vertex 0.007925 0.000911 0.000000
vertex 0.007825 0.000931 0.000000
endloop
endfacet
facet normal 0.000000 0.000000 -1.000000
outer loop
vertex 0.007717 0.000948 0.000000
vertex 0.007599 0.000962 0.000000
vertex 0.011888 0.003797 0.000000
endloop
endfacet
facet normal 0.000000 0.000000 -1.000000
outer loop
vertex 0.011888 0.003797 0.000000
vertex 0.008303 0.000842 0.000000
vertex 0.007825 0.000931 0.000000
endloop
endfacet
facet normal 0.000000 0.000000 -1.000000
outer loop
vertex 0.011888 0.003797 0.000000
vertex 0.007825 0.000931 0.000000
vertex 0.007717 0.000948 0.000000
endloop
endfacet
facet normal 0.585128 -0.810941 0.000000
outer loop
vertex 0.010909 0.001211 0.150000
vertex 0.010909 0.001211 0.000000
vertex 0.010983 0.001265 0.000000
endloop
endfacet
facet normal 0.585144 -0.810929 0.000000
outer loop
vertex 0.010909 0.001211 0.150000
vertex 0.010983 0.001265 0.000000
vertex 0.010983 0.001265 0.150000
endloop
endfacet
facet normal -0.277725 -0.960660 0.000000
outer loop
vertex 0.010488 0.001285 0.150000
vertex 0.010488 0.001285 0.000000
vertex 0.010566 0.001262 0.000000
endloop
endfacet
facet normal -0.277725 -0.960660 0.000000
outer loop
vertex 0.010488 0.001285 0.150000
vertex 0.010566 0.001262 0.000000
vertex 0.010566 0.001262 0.150000
endloop
endfacet
facet normal -0.550711 -0.834696 0.000000
outer loop
vertex 0.002127 0.000314 0.000000
vertex 0.002388 0.000142 0.000000
vertex 0.002388 0.000142 0.150000
endloop
endfacet
facet normal -0.550711 -0.834696 0.000000
outer loop
vertex 0.002127 0.000314 0.000000
vertex 0.002388 0.000142 0.150000
vertex 0.002127 0.000314 0.150000
endloop
endfacet
facet normal -0.842892 -0.538083 0.000000
outer loop
vertex 0.000979 0.001464 0.150000
vertex 0.000979 0.001464 0.000000
vertex 0.001114 0.001252 0.000000
endloop
endfacet
facet normal -0.842892 -0.538083 0.000000
outer loop
vertex 0.000979 0.001464 0.150000
vertex 0.001114 0.001252 0.000000
vertex 0.001114 0.001252 0.150000
endloop
endfacet
facet normal 0.992150 -0.125052 0.000000
outer loop
vertex 0.011828 0.003164 0.000000
vertex 0.011879 0.003569 0.000000
vertex 0.011879 0.003569 0.150000
endloop
endfacet
facet normal 0.992151 -0.125048 0.000000
outer loop
vertex 0.011828 0.003164 0.000000
vertex 0.011879 0.003569 0.150000
vertex 0.011828 0.003164 0.150000
endloop
endfacet
facet normal 0.903111 -0.429406 0.000000
outer loop
vertex 0.011152 0.001493 0.000000
vertex 0.011608 0.002453 0.000000
vertex 0.011608 0.002453 0.150000
endloop
endfacet
facet normal 0.903111 -0.429408 0.000000
outer loop
vertex 0.011152 0.001493 0.000000
vertex 0.011608 0.002453 0.150000
vertex 0.011152 0.001493 0.150000
endloop
endfacet
facet normal 0.969888 -0.243552 0.000000
outer loop
vertex 0.011828 0.003164 0.000000
vertex 0.011828 0.003164 0.150000
vertex 0.011737 0.002802 0.150000
endloop
endfacet
facet normal 0.969888 -0.243552 0.000000
outer loop
vertex 0.011828 0.003164 0.000000
vertex 0.011737 0.002802 0.150000
vertex 0.011737 0.002802 0.000000
endloop
endfacet
facet normal -0.999897 -0.014382 0.000000
outer loop
vertex 0.000001 0.004306 0.150000
vertex 0.000001 0.004306 0.000000
vertex 0.000002 0.004216 0.000000
endloop
endfacet
facet normal -0.999897 -0.014382 0.000000
outer loop
vertex 0.000001 0.004306 0.150000
vertex 0.000002 0.004216 0.000000
vertex 0.000002 0.004216 0.150000
endloop
endfacet
facet normal -0.031843 -0.999493 0.000000
outer loop
vertex 0.002808 0.000006 0.150000
vertex 0.002808 0.000006 0.000000
vertex 0.002965 0.000001 0.000000
endloop
endfacet
facet normal -0.031843 -0.999493 0.000000
outer loop
vertex 0.002808 0.000006 0.150000
vertex 0.002965 0.000001 0.000000
vertex 0.002965 0.000001 0.150000
endloop
endfacet
facet normal 0.839930 -0.542695 0.000000
outer loop
vertex 0.011063 0.001356 0.150000
vertex 0.011063 0.001356 0.000000
vertex 0.011152 0.001493 0.000000
endloop
endfacet
facet normal 0.839930 -0.542695 0.000000
outer loop
vertex 0.011063 0.001356 0.150000
vertex 0.011152 0.001493 0.000000
vertex 0.011152 0.001493 0.150000
endloop
endfacet
facet normal 0.501421 0.865204 0.000000
outer loop
vertex 0.011037 0.006655 0.150000
vertex 0.011037 0.006655 0.000000
vertex 0.010735 0.006831 0.000000
endloop
endfacet
facet normal 0.501425 0.865201 0.000000
outer loop
vertex 0.011037 0.006655 0.150000
vertex 0.010735 0.006831 0.000000
vertex 0.010735 0.006831 0.150000
endloop
endfacet
facet normal -0.993068 -0.117544 0.000000
outer loop
vertex 0.000002 0.004216 0.150000
vertex 0.000002 0.004216 0.000000
vertex 0.000017 0.004092 0.000000
endloop
endfacet
facet normal -0.993068 -0.117544 0.000000
outer loop
vertex 0.000002 0.004216 0.150000
vertex 0.000017 0.004092 0.000000
vertex 0.000017 0.004092 0.150000
endloop
endfacet
facet normal 0.000000 0.000000 1.000000
outer loop
vertex 0.007925 0.000911 0.000000
vertex 0.008021 0.000891 0.000000
vertex 0.008113 0.000872 0.000000
endloop
endfacet
facet normal 0.000000 0.000000 1.000000
outer loop
vertex 0.008113 0.000872 0.000000
vertex 0.008207 0.000855 0.000000
vertex 0.008303 0.000842 0.000000
endloop
endfacet
facet normal -0.130294 -0.991475 0.000000
outer loop
vertex 0.008303 0.000842 0.000000
vertex 0.008303 0.000842 0.150000
vertex 0.008207 0.000855 0.150000
endloop
endfacet
facet normal -0.175751 -0.984435 -0.000030
outer loop
vertex 0.008303 0.000842 0.000000
vertex 0.008207 0.000855 0.150000
vertex 0.008113 0.000872 0.150000
endloop
endfacet
facet normal 0.000000 0.000000 1.000000
outer loop
vertex 0.007925 0.000911 0.000000
vertex 0.008113 0.000872 0.000000
vertex 0.008303 0.000842 0.000000
endloop
endfacet
facet normal 0.000000 0.000000 1.000000
outer loop
vertex 0.007825 0.000931 0.000000
vertex 0.007925 0.000911 0.000000
vertex 0.008303 0.000842 0.000000
endloop
endfacet
facet normal -0.201799 -0.979427 -0.000064
outer loop
vertex 0.008303 0.000842 0.000000
vertex 0.008113 0.000872 0.150000
vertex 0.008021 0.000891 0.150000
endloop
endfacet
facet normal -0.206804 -0.978382 -0.000073
outer loop
vertex 0.008303 0.000842 0.000000
vertex 0.008021 0.000891 0.150000
vertex 0.007925 0.000911 0.150000
endloop
endfacet
facet normal -0.181436 -0.983403 -0.000007
outer loop
vertex 0.007825 0.000931 0.000000
vertex 0.008303 0.000842 0.000000
vertex 0.007925 0.000911 0.150000
endloop
endfacet
facet normal -0.191973 -0.981400 0.000000
outer loop
vertex 0.007825 0.000931 0.000000
vertex 0.007925 0.000911 0.150000
vertex 0.007825 0.000931 0.150000
endloop
endfacet
facet normal -0.117868 -0.993029 0.000000
outer loop
vertex 0.007599 0.000962 0.150000
vertex 0.007599 0.000962 0.000000
vertex 0.007717 0.000948 0.000000
endloop
endfacet
facet normal -0.160759 -0.986994 0.000000
outer loop
vertex 0.007717 0.000948 0.000000
vertex 0.007825 0.000931 0.000000
vertex 0.007825 0.000931 0.150000
endloop
endfacet
facet normal -0.117869 -0.993029 0.000000
outer loop
vertex 0.007717 0.000948 0.150000
vertex 0.007599 0.000962 0.150000
vertex 0.007717 0.000948 0.000000
endloop
endfacet
facet normal -0.160756 -0.986994 0.000000
outer loop
vertex 0.007825 0.000931 0.150000
vertex 0.007717 0.000948 0.150000
vertex 0.007717 0.000948 0.000000
endloop
endfacet
facet normal -0.646738 -0.762712 0.000000
outer loop
vertex 0.001422 0.000912 0.000000
vertex 0.002127 0.000314 0.000000
vertex 0.002127 0.000314 0.150000
endloop
endfacet
facet normal -0.646738 -0.762712 0.000000
outer loop
vertex 0.001422 0.000912 0.000000
vertex 0.002127 0.000314 0.150000
vertex 0.001422 0.000912 0.150000
endloop
endfacet
facet normal -0.721012 -0.692923 0.000000
outer loop
vertex 0.001199 0.001144 0.150000
vertex 0.001199 0.001144 0.000000
vertex 0.001422 0.000912 0.000000
endloop
endfacet
facet normal -0.721011 -0.692924 0.000000
outer loop
vertex 0.001199 0.001144 0.150000
vertex 0.001422 0.000912 0.000000
vertex 0.001422 0.000912 0.150000
endloop
endfacet
facet normal 0.931322 0.364196 0.000000
outer loop
vertex 0.011783 0.005812 0.150000
vertex 0.011783 0.005812 0.000000
vertex 0.011716 0.005984 0.000000
endloop
endfacet
facet normal 0.931319 0.364204 0.000000
outer loop
vertex 0.011783 0.005812 0.150000
vertex 0.011716 0.005984 0.000000
vertex 0.011716 0.005984 0.150000
endloop
endfacet
facet normal 0.993134 0.116984 0.000000
outer loop
vertex 0.011830 0.005629 0.000000
vertex 0.011830 0.005629 0.150000
vertex 0.011877 0.005228 0.150000
endloop
endfacet
facet normal 0.993134 0.116980 0.000000
outer loop
vertex 0.011830 0.005629 0.000000
vertex 0.011877 0.005228 0.150000
vertex 0.011877 0.005228 0.000000
endloop
endfacet
facet normal 0.938463 -0.345380 0.000000
outer loop
vertex 0.011608 0.002453 0.000000
vertex 0.011737 0.002802 0.000000
vertex 0.011737 0.002802 0.150000
endloop
endfacet
facet normal 0.938464 -0.345376 0.000000
outer loop
vertex 0.011608 0.002453 0.000000
vertex 0.011737 0.002802 0.150000
vertex 0.011608 0.002453 0.150000
endloop
endfacet
endsolid Exported from Blender-3.6.8
