solid Exported from Blender-3.6.8
facet normal 0.790110 -0.612965 0.000000
outer loop
vertex 0.013182 0.000920 0.150000
vertex 0.013182 0.000920 0.000000
vertex 0.013280 0.001046 0.000000
endloop
endfacet
facet normal 0.790091 -0.612989 0.000000
outer loop
vertex 0.013182 0.000920 0.150000
vertex 0.013280 0.001046 0.000000
vertex 0.013280 0.001046 0.150000
endloop
endfacet
facet normal -0.148669 -0.988887 0.000000
outer loop
vertex 0.010630 0.000079 0.000000
vertex 0.010860 0.000045 0.000000
vertex 0.010860 0.000045 0.150000
endloop
endfacet
facet normal -0.148668 -0.988887 0.000000
outer loop
vertex 0.010630 0.000079 0.000000
vertex 0.010860 0.000045 0.150000
vertex 0.010630 0.000079 0.150000
endloop
endfacet
facet normal -0.179907 -0.983684 0.000000
outer loop
vertex 0.010398 0.000122 0.000000
vertex 0.010630 0.000079 0.000000
vertex 0.010630 0.000079 0.150000
endloop
endfacet
facet normal -0.179907 -0.983684 0.000000
outer loop
vertex 0.010398 0.000122 0.000000
vertex 0.010630 0.000079 0.150000
vertex 0.010398 0.000122 0.150000
endloop
endfacet
facet normal -0.246322 -0.969188 0.000000
outer loop
vertex 0.009950 0.000227 0.150000
vertex 0.009950 0.000227 0.000000
vertex 0.010169 0.000171 0.000000
endloop
endfacet
facet normal -0.211509 -0.977376 0.000000
outer loop
vertex 0.010169 0.000171 0.000000
vertex 0.010398 0.000122 0.000000
vertex 0.010398 0.000122 0.150000
endloop
endfacet
facet normal -0.246320 -0.969189 0.000000
outer loop
vertex 0.010169 0.000171 0.150000
vertex 0.009950 0.000227 0.150000
vertex 0.010169 0.000171 0.000000
endloop
endfacet
facet normal -0.211511 -0.977376 0.000000
outer loop
vertex 0.010169 0.000171 0.000000
vertex 0.010398 0.000122 0.150000
vertex 0.010169 0.000171 0.150000
endloop
endfacet
facet normal 0.636016 0.771676 0.000000
outer loop
vertex 0.013198 0.006251 0.150000
vertex 0.013198 0.006251 0.000000
vertex 0.011462 0.007683 0.000000
endloop
endfacet
facet normal 0.636166 0.771553 0.000000
outer loop
vertex 0.010421 0.008460 0.000000
vertex 0.010119 0.008709 0.000000
vertex 0.010119 0.008709 0.150000
endloop
endfacet
facet normal 0.598428 0.801176 0.000717
outer loop
vertex 0.013198 0.006251 0.150000
vertex 0.011462 0.007683 0.000000
vertex 0.010421 0.008460 0.000000
endloop
endfacet
facet normal 0.636016 0.771676 -0.000414
outer loop
vertex 0.011462 0.007683 0.150000
vertex 0.013198 0.006251 0.150000
vertex 0.010421 0.008460 0.000000
endloop
endfacet
facet normal 0.636167 0.771551 0.000000
outer loop
vertex 0.010421 0.008460 0.000000
vertex 0.010119 0.008709 0.150000
vertex 0.010421 0.008460 0.150000
endloop
endfacet
facet normal 0.598428 0.801177 0.000000
outer loop
vertex 0.010421 0.008460 0.000000
vertex 0.010421 0.008460 0.150000
vertex 0.011462 0.007683 0.150000
endloop
endfacet
facet normal 0.639397 -0.768877 0.000000
outer loop
vertex 0.012914 0.000676 0.150000
vertex 0.012914 0.000676 0.000000
vertex 0.013058 0.000796 0.000000
endloop
endfacet
facet normal 0.639393 -0.768880 0.000000
outer loop
vertex 0.012914 0.000676 0.150000
vertex 0.013058 0.000796 0.000000
vertex 0.013058 0.000796 0.150000
endloop
endfacet
facet normal 0.706883 -0.707331 0.000000
outer loop
vertex 0.013058 0.000796 0.150000
vertex 0.013058 0.000796 0.000000
vertex 0.013182 0.000920 0.000000
endloop
endfacet
facet normal 0.706883 -0.707331 0.000000
outer loop
vertex 0.013058 0.000796 0.150000
vertex 0.013182 0.000920 0.000000
vertex 0.013182 0.000920 0.150000
endloop
endfacet
facet normal 0.364951 -0.931027 0.000000
outer loop
vertex 0.011943 0.000120 0.000000
vertex 0.011943 0.000120 0.150000
vertex 0.011715 0.000031 0.150000
endloop
endfacet
facet normal 0.364949 -0.931027 0.000000
outer loop
vertex 0.011943 0.000120 0.000000
vertex 0.011715 0.000031 0.150000
vertex 0.011715 0.000031 0.000000
endloop
endfacet
facet normal 0.410373 0.911918 0.000000
outer loop
vertex 0.003828 0.014037 0.000000
vertex 0.003828 0.014037 0.150000
vertex 0.004278 0.013834 0.150000
endloop
endfacet
facet normal 0.410373 0.911918 0.000000
outer loop
vertex 0.003828 0.014037 0.000000
vertex 0.004278 0.013834 0.150000
vertex 0.004278 0.013834 0.000000
endloop
endfacet
facet normal 0.886451 -0.462822 0.000000
outer loop
vertex 0.013280 0.001046 0.150000
vertex 0.013280 0.001046 0.000000
vertex 0.013347 0.001174 0.000000
endloop
endfacet
facet normal 0.886451 -0.462822 0.000000
outer loop
vertex 0.013280 0.001046 0.150000
vertex 0.013347 0.001174 0.000000
vertex 0.013347 0.001174 0.150000
endloop
endfacet
facet normal -0.877942 0.478767 0.000000
outer loop
vertex 0.000582 0.014409 0.000000
vertex 0.000000 0.013343 0.000000
vertex 0.000000 0.013343 0.150000
endloop
endfacet
facet normal -0.877942 0.478767 0.000000
outer loop
vertex 0.000582 0.014409 0.000000
vertex 0.000000 0.013343 0.150000
vertex 0.000582 0.014409 0.150000
endloop
endfacet
facet normal 0.000000 0.000000 1.000000
outer loop
vertex 0.012249 0.000265 0.000000
vertex 0.012417 0.000355 0.000000
vertex 0.012588 0.000454 0.000000
endloop
endfacet
facet normal 0.503108 -0.864223 0.000000
outer loop
vertex 0.012588 0.000454 0.000000
vertex 0.012588 0.000454 0.150000
vertex 0.012417 0.000355 0.150000
endloop
endfacet
facet normal 0.470643 -0.882324 -0.000049
outer loop
vertex 0.012588 0.000454 0.000000
vertex 0.012417 0.000355 0.150000
vertex 0.012249 0.000265 0.150000
endloop
endfacet
facet normal 0.000000 0.000000 1.000000
outer loop
vertex 0.012089 0.000186 0.000000
vertex 0.012249 0.000265 0.000000
vertex 0.012588 0.000454 0.000000
endloop
endfacet
facet normal 0.412550 -0.910935 0.000000
outer loop
vertex 0.011943 0.000120 0.150000
vertex 0.011943 0.000120 0.000000
vertex 0.012089 0.000186 0.000000
endloop
endfacet
facet normal 0.441150 -0.897434 -0.000135
outer loop
vertex 0.012588 0.000454 0.000000
vertex 0.012249 0.000265 0.150000
vertex 0.012089 0.000186 0.150000
endloop
endfacet
facet normal 0.412558 -0.910931 0.000000
outer loop
vertex 0.012089 0.000186 0.150000
vertex 0.011943 0.000120 0.150000
vertex 0.012089 0.000186 0.000000
endloop
endfacet
facet normal 0.472871 -0.881131 0.000000
outer loop
vertex 0.012588 0.000454 0.000000
vertex 0.012089 0.000186 0.150000
vertex 0.012089 0.000186 0.000000
endloop
endfacet
facet normal 0.000000 0.000000 1.000000
outer loop
vertex 0.013571 0.001798 0.000000
vertex 0.013610 0.001922 0.000000
vertex 0.013649 0.002046 0.000000
endloop
endfacet
facet normal 0.960346 -0.278811 0.000000
outer loop
vertex 0.013649 0.002046 0.000000
vertex 0.013685 0.002171 0.000000
vertex 0.013685 0.002171 0.150000
endloop
endfacet
facet normal 0.960340 -0.278833 0.000000
outer loop
vertex 0.013649 0.002046 0.000000
vertex 0.013685 0.002171 0.150000
vertex 0.013649 0.002046 0.150000
endloop
endfacet
facet normal 0.000000 0.000000 1.000000
outer loop
vertex 0.013529 0.001675 0.000000
vertex 0.013571 0.001798 0.000000
vertex 0.013649 0.002046 0.000000
endloop
endfacet
facet normal 0.000000 0.000000 1.000000
outer loop
vertex 0.013347 0.001174 0.000000
vertex 0.013441 0.001426 0.000000
vertex 0.013529 0.001675 0.000000
endloop
endfacet
facet normal 0.936242 -0.351356 0.000000
outer loop
vertex 0.013441 0.001426 0.150000
vertex 0.013347 0.001174 0.150000
vertex 0.013347 0.001174 0.000000
endloop
endfacet
facet normal 0.942570 -0.334009 -0.000033
outer loop
vertex 0.013529 0.001675 0.150000
vertex 0.013441 0.001426 0.150000
vertex 0.013347 0.001174 0.000000
endloop
endfacet
facet normal 0.000000 0.000000 1.000000
outer loop
vertex 0.013347 0.001174 0.000000
vertex 0.013529 0.001675 0.000000
vertex 0.013649 0.002046 0.000000
endloop
endfacet
facet normal 0.956183 -0.292770 0.000000
outer loop
vertex 0.013649 0.002046 0.000000
vertex 0.013649 0.002046 0.150000
vertex 0.013610 0.001922 0.150000
endloop
endfacet
facet normal 0.948088 -0.318010 -0.000093
outer loop
vertex 0.013571 0.001798 0.150000
vertex 0.013529 0.001675 0.150000
vertex 0.013347 0.001174 0.000000
endloop
endfacet
facet normal 0.952073 -0.305870 -0.000012
outer loop
vertex 0.013649 0.002046 0.000000
vertex 0.013610 0.001922 0.150000
vertex 0.013571 0.001798 0.150000
endloop
endfacet
facet normal 0.944980 -0.327128 -0.000051
outer loop
vertex 0.013649 0.002046 0.000000
vertex 0.013571 0.001798 0.150000
vertex 0.013347 0.001174 0.000000
endloop
endfacet
facet normal 0.704313 0.709890 0.000000
outer loop
vertex 0.013198 0.006251 0.000000
vertex 0.013198 0.006251 0.150000
vertex 0.013555 0.005898 0.150000
endloop
endfacet
facet normal 0.704313 0.709890 0.000000
outer loop
vertex 0.013198 0.006251 0.000000
vertex 0.013555 0.005898 0.150000
vertex 0.013555 0.005898 0.000000
endloop
endfacet
facet normal 0.562762 -0.826619 0.000000
outer loop
vertex 0.012588 0.000454 0.000000
vertex 0.012914 0.000676 0.000000
vertex 0.012914 0.000676 0.150000
endloop
endfacet
facet normal 0.562759 -0.826621 0.000000
outer loop
vertex 0.012588 0.000454 0.000000
vertex 0.012914 0.000676 0.150000
vertex 0.012588 0.000454 0.150000
endloop
endfacet
facet normal -0.073863 -0.997268 0.000000
outer loop
vertex 0.010860 0.000045 0.150000
vertex 0.010860 0.000045 0.000000
vertex 0.011459 0.000000 0.000000
endloop
endfacet
facet normal -0.073864 -0.997268 0.000000
outer loop
vertex 0.010860 0.000045 0.150000
vertex 0.011459 0.000000 0.000000
vertex 0.011459 0.000000 0.150000
endloop
endfacet
facet normal 0.975563 0.219721 0.000000
outer loop
vertex 0.014054 0.004996 0.150000
vertex 0.014054 0.004996 0.000000
vertex 0.014007 0.005206 0.000000
endloop
endfacet
facet normal 0.975563 0.219721 0.000000
outer loop
vertex 0.014054 0.004996 0.150000
vertex 0.014007 0.005206 0.000000
vertex 0.014007 0.005206 0.150000
endloop
endfacet
facet normal 0.000000 0.000000 1.000000
outer loop
vertex 0.011715 0.000031 0.150000
vertex 0.011943 0.000120 0.150000
vertex 0.012089 0.000186 0.150000
endloop
endfacet
facet normal 0.000000 0.000000 1.000000
outer loop
vertex 0.012089 0.000186 0.150000
vertex 0.012249 0.000265 0.150000
vertex 0.012417 0.000355 0.150000
endloop
endfacet
facet normal 0.000000 0.000000 1.000000
outer loop
vertex 0.012417 0.000355 0.150000
vertex 0.012588 0.000454 0.150000
vertex 0.012914 0.000676 0.150000
endloop
endfacet
facet normal 0.001214 0.000000 0.999999
outer loop
vertex 0.012914 0.000676 0.150000
vertex 0.013058 0.000796 0.150000
vertex 0.013182 0.000920 0.150000
endloop
endfacet
facet normal 0.000887 0.000000 1.000000
outer loop
vertex 0.013182 0.000920 0.150000
vertex 0.013280 0.001046 0.150000
vertex 0.013347 0.001174 0.150000
endloop
endfacet
facet normal 0.000000 0.000000 1.000000
outer loop
vertex 0.013347 0.001174 0.150000
vertex 0.013441 0.001426 0.150000
vertex 0.013529 0.001675 0.150000
endloop
endfacet
facet normal -0.016845 0.000000 0.999858
outer loop
vertex 0.013529 0.001675 0.150000
vertex 0.013571 0.001798 0.150000
vertex 0.013610 0.001922 0.150000
endloop
endfacet
facet normal 0.000000 0.000000 1.000000
outer loop
vertex 0.013610 0.001922 0.150000
vertex 0.013649 0.002046 0.150000
vertex 0.013685 0.002171 0.150000
endloop
endfacet
facet normal 0.000000 0.000000 1.000000
outer loop
vertex 0.013685 0.002171 0.150000
vertex 0.013720 0.002298 0.150000
vertex 0.013753 0.002427 0.150000
endloop
endfacet
facet normal -0.012094 0.000000 0.999927
outer loop
vertex 0.013753 0.002427 0.150000
vertex 0.013784 0.002558 0.150000
vertex 0.013814 0.002692 0.150000
endloop
endfacet
facet normal 0.000000 0.000000 1.000000
outer loop
vertex 0.013814 0.002692 0.150000
vertex 0.013887 0.003034 0.150000
vertex 0.013931 0.003249 0.150000
endloop
endfacet
facet normal 0.005212 0.000000 0.999986
outer loop
vertex 0.013931 0.003249 0.150000
vertex 0.013974 0.003485 0.150000
vertex 0.014014 0.003736 0.150000
endloop
endfacet
facet normal 0.000557 0.000000 1.000000
outer loop
vertex 0.014014 0.003736 0.150000
vertex 0.014072 0.004258 0.150000
vertex 0.014078 0.004764 0.150000
endloop
endfacet
facet normal 0.000000 0.000000 1.000000
outer loop
vertex 0.014078 0.004764 0.150000
vertex 0.014054 0.004996 0.150000
vertex 0.014007 0.005206 0.150000
endloop
endfacet
facet normal 0.000000 0.000000 1.000000
outer loop
vertex 0.014007 0.005206 0.150000
vertex 0.013933 0.005387 0.150000
vertex 0.013832 0.005554 0.150000
endloop
endfacet
facet normal 0.000000 0.000000 1.000000
outer loop
vertex 0.013832 0.005554 0.150000
vertex 0.013555 0.005898 0.150000
vertex 0.013198 0.006251 0.150000
endloop
endfacet
facet normal -0.000208 0.000000 1.000000
outer loop
vertex 0.013198 0.006251 0.150000
vertex 0.011462 0.007683 0.150000
vertex 0.010421 0.008460 0.150000
endloop
endfacet
facet normal -0.000110 0.000000 1.000000
outer loop
vertex 0.010119 0.008709 0.150000
vertex 0.007273 0.011744 0.150000
vertex 0.007012 0.011975 0.150000
endloop
endfacet
facet normal 0.000000 0.000000 1.000000
outer loop
vertex 0.013832 0.005554 0.150000
vertex 0.013198 0.006251 0.150000
vertex 0.010421 0.008460 0.150000
endloop
endfacet
facet normal 0.000037 0.000000 1.000000
outer loop
vertex 0.010119 0.008709 0.150000
vertex 0.007012 0.011975 0.150000
vertex 0.004278 0.013834 0.150000
endloop
endfacet
facet normal -0.001030 0.000000 0.999999
outer loop
vertex 0.013832 0.005554 0.150000
vertex 0.010421 0.008460 0.150000
vertex 0.010119 0.008709 0.150000
endloop
endfacet
facet normal -0.000140 0.000000 1.000000
outer loop
vertex 0.014078 0.004764 0.150000
vertex 0.014007 0.005206 0.150000
vertex 0.013832 0.005554 0.150000
endloop
endfacet
facet normal -0.000531 0.000000 1.000000
outer loop
vertex 0.013931 0.003249 0.150000
vertex 0.014014 0.003736 0.150000
vertex 0.014078 0.004764 0.150000
endloop
endfacet
facet normal 0.004523 0.000000 0.999990
outer loop
vertex 0.013753 0.002427 0.150000
vertex 0.013814 0.002692 0.150000
vertex 0.013931 0.003249 0.150000
endloop
endfacet
facet normal -0.003472 0.000000 0.999994
outer loop
vertex 0.013610 0.001922 0.150000
vertex 0.013685 0.002171 0.150000
vertex 0.013753 0.002427 0.150000
endloop
endfacet
facet normal 0.000000 0.000000 1.000000
outer loop
vertex 0.013347 0.001174 0.150000
vertex 0.013529 0.001675 0.150000
vertex 0.013610 0.001922 0.150000
endloop
endfacet
facet normal -0.000260 0.000000 1.000000
outer loop
vertex 0.012914 0.000676 0.150000
vertex 0.013182 0.000920 0.150000
vertex 0.013347 0.001174 0.150000
endloop
endfacet
facet normal 0.000000 0.000000 1.000000
outer loop
vertex 0.012089 0.000186 0.150000
vertex 0.012417 0.000355 0.150000
vertex 0.012914 0.000676 0.150000
endloop
endfacet
facet normal -0.000419 0.000000 1.000000
outer loop
vertex 0.011606 0.000009 0.150000
vertex 0.011715 0.000031 0.150000
vertex 0.012089 0.000186 0.150000
endloop
endfacet
facet normal 0.000039 0.000000 1.000000
outer loop
vertex 0.010860 0.000045 0.150000
vertex 0.011459 0.000000 0.150000
vertex 0.011606 0.000009 0.150000
endloop
endfacet
facet normal -0.001568 0.000000 0.999999
outer loop
vertex 0.010398 0.000122 0.150000
vertex 0.010630 0.000079 0.150000
vertex 0.010860 0.000045 0.150000
endloop
endfacet
facet normal -0.000964 0.000000 1.000000
outer loop
vertex 0.009950 0.000227 0.150000
vertex 0.010169 0.000171 0.150000
vertex 0.010398 0.000122 0.150000
endloop
endfacet
facet normal -0.000318 0.000000 1.000000
outer loop
vertex 0.006314 0.001946 0.150000
vertex 0.009574 0.000351 0.150000
vertex 0.009950 0.000227 0.150000
endloop
endfacet
facet normal 0.000000 0.000000 1.000000
outer loop
vertex 0.005928 0.002266 0.150000
vertex 0.006085 0.002113 0.150000
vertex 0.006314 0.001946 0.150000
endloop
endfacet
facet normal 0.000000 0.000000 1.000000
outer loop
vertex 0.005788 0.002428 0.150000
vertex 0.005928 0.002266 0.150000
vertex 0.006314 0.001946 0.150000
endloop
endfacet
facet normal 0.000094 0.000000 1.000000
outer loop
vertex 0.006314 0.001946 0.150000
vertex 0.009950 0.000227 0.150000
vertex 0.010398 0.000122 0.150000
endloop
endfacet
facet normal 0.000022 0.000000 1.000000
outer loop
vertex 0.010398 0.000122 0.150000
vertex 0.010860 0.000045 0.150000
vertex 0.011606 0.000009 0.150000
endloop
endfacet
facet normal 0.000162 0.000000 1.000000
outer loop
vertex 0.011606 0.000009 0.150000
vertex 0.012089 0.000186 0.150000
vertex 0.012914 0.000676 0.150000
endloop
endfacet
facet normal 0.000000 0.000000 1.000000
outer loop
vertex 0.012914 0.000676 0.150000
vertex 0.013347 0.001174 0.150000
vertex 0.013610 0.001922 0.150000
endloop
endfacet
facet normal 0.000000 0.000000 1.000000
outer loop
vertex 0.013610 0.001922 0.150000
vertex 0.013753 0.002427 0.150000
vertex 0.013931 0.003249 0.150000
endloop
endfacet
facet normal 0.000030 0.000000 1.000000
outer loop
vertex 0.013931 0.003249 0.150000
vertex 0.014078 0.004764 0.150000
vertex 0.013832 0.005554 0.150000
endloop
endfacet
facet normal -0.000003 0.000000 1.000000
outer loop
vertex 0.010119 0.008709 0.150000
vertex 0.004278 0.013834 0.150000
vertex 0.003828 0.014037 0.150000
endloop
endfacet
facet normal -0.000007 0.000000 1.000000
outer loop
vertex 0.013931 0.003249 0.150000
vertex 0.013832 0.005554 0.150000
vertex 0.010119 0.008709 0.150000
endloop
endfacet
facet normal 0.000000 0.000000 1.000000
outer loop
vertex 0.012914 0.000676 0.150000
vertex 0.013610 0.001922 0.150000
vertex 0.013931 0.003249 0.150000
endloop
endfacet
facet normal -0.000031 0.000000 1.000000
outer loop
vertex 0.010398 0.000122 0.150000
vertex 0.011606 0.000009 0.150000
vertex 0.012914 0.000676 0.150000
endloop
endfacet
facet normal 0.000000 0.000000 1.000000
outer loop
vertex 0.005788 0.002428 0.150000
vertex 0.006314 0.001946 0.150000
vertex 0.010398 0.000122 0.150000
endloop
endfacet
facet normal 0.002018 0.000000 0.999998
outer loop
vertex 0.003668 0.004501 0.150000
vertex 0.003869 0.004290 0.150000
vertex 0.005603 0.002620 0.150000
endloop
endfacet
facet normal 0.000000 0.000000 1.000000
outer loop
vertex 0.005603 0.002620 0.150000
vertex 0.005788 0.002428 0.150000
vertex 0.010398 0.000122 0.150000
endloop
endfacet
facet normal 0.000000 0.000000 1.000000
outer loop
vertex 0.010398 0.000122 0.150000
vertex 0.012914 0.000676 0.150000
vertex 0.013931 0.003249 0.150000
endloop
endfacet
facet normal -0.000008 0.000000 1.000000
outer loop
vertex 0.013931 0.003249 0.150000
vertex 0.010119 0.008709 0.150000
vertex 0.003828 0.014037 0.150000
endloop
endfacet
facet normal 0.000000 0.000000 1.000000
outer loop
vertex 0.003828 0.014037 0.150000
vertex 0.003330 0.014187 0.150000
vertex 0.002464 0.014327 0.150000
endloop
endfacet
facet normal 0.000000 0.000000 1.000000
outer loop
vertex 0.002464 0.014327 0.150000
vertex 0.000582 0.014409 0.150000
vertex 0.000000 0.013343 0.150000
endloop
endfacet
facet normal 0.000000 0.000000 1.000000
outer loop
vertex 0.000000 0.013343 0.150000
vertex 0.000076 0.013108 0.150000
vertex 0.000254 0.012622 0.150000
endloop
endfacet
facet normal 0.000000 0.000000 1.000000
outer loop
vertex 0.000254 0.012622 0.150000
vertex 0.000514 0.011935 0.150000
vertex 0.000836 0.011094 0.150000
endloop
endfacet
facet normal 0.000000 0.000000 1.000000
outer loop
vertex 0.000836 0.011094 0.150000
vertex 0.001594 0.009156 0.150000
vertex 0.001991 0.008156 0.150000
endloop
endfacet
facet normal 0.000000 0.000000 1.000000
outer loop
vertex 0.001991 0.008156 0.150000
vertex 0.002374 0.007203 0.150000
vertex 0.002725 0.006344 0.150000
endloop
endfacet
facet normal 0.000000 0.000000 1.000000
outer loop
vertex 0.002725 0.006344 0.150000
vertex 0.003024 0.005631 0.150000
vertex 0.003253 0.005113 0.150000
endloop
endfacet
facet normal -0.001082 0.000000 0.999999
outer loop
vertex 0.003253 0.005113 0.150000
vertex 0.003391 0.004839 0.150000
vertex 0.003505 0.004686 0.150000
endloop
endfacet
facet normal -0.001102 0.000000 0.999999
outer loop
vertex 0.003505 0.004686 0.150000
vertex 0.003668 0.004501 0.150000
vertex 0.005603 0.002620 0.150000
endloop
endfacet
facet normal 0.000002 0.000000 1.000000
outer loop
vertex 0.005603 0.002620 0.150000
vertex 0.010398 0.000122 0.150000
vertex 0.013931 0.003249 0.150000
endloop
endfacet
facet normal 0.000015 0.000000 1.000000
outer loop
vertex 0.013931 0.003249 0.150000
vertex 0.003828 0.014037 0.150000
vertex 0.002464 0.014327 0.150000
endloop
endfacet
facet normal -0.000007 0.000000 1.000000
outer loop
vertex 0.002464 0.014327 0.150000
vertex 0.000000 0.013343 0.150000
vertex 0.000254 0.012622 0.150000
endloop
endfacet
facet normal 0.001094 0.000000 0.999999
outer loop
vertex 0.000254 0.012622 0.150000
vertex 0.000836 0.011094 0.150000
vertex 0.001991 0.008156 0.150000
endloop
endfacet
facet normal 0.000000 0.000000 1.000000
outer loop
vertex 0.001991 0.008156 0.150000
vertex 0.002725 0.006344 0.150000
vertex 0.003253 0.005113 0.150000
endloop
endfacet
facet normal 0.000000 0.000000 1.000000
outer loop
vertex 0.003253 0.005113 0.150000
vertex 0.003505 0.004686 0.150000
vertex 0.005603 0.002620 0.150000
endloop
endfacet
facet normal 0.000000 0.000000 1.000000
outer loop
vertex 0.005603 0.002620 0.150000
vertex 0.013931 0.003249 0.150000
vertex 0.002464 0.014327 0.150000
endloop
endfacet
facet normal 0.000000 0.000000 1.000000
outer loop
vertex 0.002464 0.014327 0.150000
vertex 0.000254 0.012622 0.150000
vertex 0.001991 0.008156 0.150000
endloop
endfacet
facet normal 0.000000 0.000000 1.000000
outer loop
vertex 0.001991 0.008156 0.150000
vertex 0.003253 0.005113 0.150000
vertex 0.005603 0.002620 0.150000
endloop
endfacet
facet normal 0.000000 0.000000 1.000000
outer loop
vertex 0.002464 0.014327 0.150000
vertex 0.001991 0.008156 0.150000
vertex 0.005603 0.002620 0.150000
endloop
endfacet
facet normal 0.158778 0.987314 0.000000
outer loop
vertex 0.003330 0.014187 0.000000
vertex 0.002464 0.014327 0.000000
vertex 0.002464 0.014327 0.150000
endloop
endfacet
facet normal 0.158778 0.987314 0.000000
outer loop
vertex 0.003330 0.014187 0.000000
vertex 0.002464 0.014327 0.150000
vertex 0.003330 0.014187 0.150000
endloop
endfacet
facet normal 0.057855 -0.998325 0.000000
outer loop
vertex 0.011459 0.000000 0.150000
vertex 0.011459 0.000000 0.000000
vertex 0.011606 0.000009 0.000000
endloop
endfacet
facet normal 0.057855 -0.998325 0.000000
outer loop
vertex 0.011459 0.000000 0.150000
vertex 0.011606 0.000009 0.000000
vertex 0.011606 0.000009 0.150000
endloop
endfacet
facet normal -0.892615 -0.450819 0.000000
outer loop
vertex 0.003253 0.005113 0.150000
vertex 0.003253 0.005113 0.000000
vertex 0.003391 0.004839 0.000000
endloop
endfacet
facet normal -0.892614 -0.450822 0.000000
outer loop
vertex 0.003253 0.005113 0.150000
vertex 0.003391 0.004839 0.000000
vertex 0.003391 0.004839 0.150000
endloop
endfacet
facet normal -0.801969 -0.597366 0.000000
outer loop
vertex 0.003391 0.004839 0.150000
vertex 0.003391 0.004839 0.000000
vertex 0.003505 0.004686 0.000000
endloop
endfacet
facet normal -0.801971 -0.597364 0.000000
outer loop
vertex 0.003391 0.004839 0.150000
vertex 0.003505 0.004686 0.000000
vertex 0.003505 0.004686 0.150000
endloop
endfacet
facet normal 0.664125 0.747622 0.000000
outer loop
vertex 0.007012 0.011975 0.000000
vertex 0.007012 0.011975 0.150000
vertex 0.007273 0.011744 0.150000
endloop
endfacet
facet normal 0.664123 0.747623 0.000000
outer loop
vertex 0.007012 0.011975 0.000000
vertex 0.007273 0.011744 0.150000
vertex 0.007273 0.011744 0.000000
endloop
endfacet
facet normal -0.588359 -0.808600 0.000000
outer loop
vertex 0.006085 0.002113 0.150000
vertex 0.006085 0.002113 0.000000
vertex 0.006314 0.001946 0.000000
endloop
endfacet
facet normal -0.588359 -0.808600 0.000000
outer loop
vertex 0.006085 0.002113 0.150000
vertex 0.006314 0.001946 0.000000
vertex 0.006314 0.001946 0.150000
endloop
endfacet
facet normal 0.000000 0.000000 1.000000
outer loop
vertex 0.013931 0.003249 0.000000
vertex 0.013974 0.003485 0.000000
vertex 0.014014 0.003736 0.000000
endloop
endfacet
facet normal 0.987403 -0.158222 0.000000
outer loop
vertex 0.014014 0.003736 0.000000
vertex 0.014014 0.003736 0.150000
vertex 0.013974 0.003485 0.150000
endloop
endfacet
facet normal 0.983525 -0.180772 -0.000039
outer loop
vertex 0.014014 0.003736 0.000000
vertex 0.013974 0.003485 0.150000
vertex 0.013931 0.003249 0.150000
endloop
endfacet
facet normal 0.000000 0.000000 1.000000
outer loop
vertex 0.013887 0.003034 0.000000
vertex 0.013931 0.003249 0.000000
vertex 0.014014 0.003736 0.000000
endloop
endfacet
facet normal 0.000000 0.000000 1.000000
outer loop
vertex 0.013784 0.002558 0.000000
vertex 0.013814 0.002692 0.000000
vertex 0.013887 0.003034 0.000000
endloop
endfacet
facet normal 0.000000 0.000000 1.000000
outer loop
vertex 0.013720 0.002298 0.000000
vertex 0.013753 0.002427 0.000000
vertex 0.013784 0.002558 0.000000
endloop
endfacet
facet normal 0.964479 -0.264159 0.000000
outer loop
vertex 0.013685 0.002171 0.150000
vertex 0.013685 0.002171 0.000000
vertex 0.013720 0.002298 0.000000
endloop
endfacet
facet normal 0.964479 -0.264159 0.000000
outer loop
vertex 0.013720 0.002298 0.150000
vertex 0.013685 0.002171 0.150000
vertex 0.013720 0.002298 0.000000
endloop
endfacet
facet normal 0.000000 0.000000 1.000000
outer loop
vertex 0.013720 0.002298 0.000000
vertex 0.013784 0.002558 0.000000
vertex 0.013887 0.003034 0.000000
endloop
endfacet
facet normal 0.984048 -0.177903 -0.000029
outer loop
vertex 0.013887 0.003034 0.000000
vertex 0.014014 0.003736 0.000000
vertex 0.013931 0.003249 0.150000
endloop
endfacet
facet normal 0.980305 -0.197489 0.000000
outer loop
vertex 0.013887 0.003034 0.000000
vertex 0.013931 0.003249 0.150000
vertex 0.013887 0.003034 0.150000
endloop
endfacet
facet normal 0.974969 -0.222340 0.000000
outer loop
vertex 0.013720 0.002298 0.150000
vertex 0.013720 0.002298 0.000000
vertex 0.013887 0.003034 0.000000
endloop
endfacet
facet normal 0.968517 -0.248947 -0.000138
outer loop
vertex 0.013753 0.002427 0.150000
vertex 0.013720 0.002298 0.150000
vertex 0.013887 0.003034 0.000000
endloop
endfacet
facet normal 0.977737 -0.209835 0.000000
outer loop
vertex 0.013887 0.003034 0.000000
vertex 0.013887 0.003034 0.150000
vertex 0.013814 0.002692 0.150000
endloop
endfacet
facet normal 0.972395 -0.233339 -0.000071
outer loop
vertex 0.013784 0.002558 0.150000
vertex 0.013753 0.002427 0.150000
vertex 0.013887 0.003034 0.000000
endloop
endfacet
facet normal 0.976060 -0.217503 -0.000018
outer loop
vertex 0.013814 0.002692 0.150000
vertex 0.013784 0.002558 0.150000
vertex 0.013887 0.003034 0.000000
endloop
endfacet
facet normal 0.562323 0.826918 0.000000
outer loop
vertex 0.007012 0.011975 0.000000
vertex 0.004278 0.013834 0.000000
vertex 0.004278 0.013834 0.150000
endloop
endfacet
facet normal 0.562323 0.826918 0.000000
outer loop
vertex 0.007012 0.011975 0.000000
vertex 0.004278 0.013834 0.150000
vertex 0.007012 0.011975 0.150000
endloop
endfacet
facet normal 0.854734 0.519066 0.000000
outer loop
vertex 0.013933 0.005387 0.150000
vertex 0.013933 0.005387 0.000000
vertex 0.013832 0.005554 0.000000
endloop
endfacet
facet normal 0.854734 0.519066 0.000000
outer loop
vertex 0.013933 0.005387 0.150000
vertex 0.013832 0.005554 0.000000
vertex 0.013832 0.005554 0.150000
endloop
endfacet
facet normal 0.000000 0.000000 -1.000000
outer loop
vertex 0.013974 0.003485 0.000000
vertex 0.013931 0.003249 0.000000
vertex 0.013887 0.003034 0.000000
endloop
endfacet
facet normal 0.000000 0.000000 -1.000000
outer loop
vertex 0.013887 0.003034 0.000000
vertex 0.013814 0.002692 0.000000
vertex 0.013784 0.002558 0.000000
endloop
endfacet
facet normal 0.000000 0.000000 -1.000000
outer loop
vertex 0.013784 0.002558 0.000000
vertex 0.013753 0.002427 0.000000
vertex 0.013720 0.002298 0.000000
endloop
endfacet
facet normal 0.000000 0.000000 -1.000000
outer loop
vertex 0.013720 0.002298 0.000000
vertex 0.013685 0.002171 0.000000
vertex 0.013649 0.002046 0.000000
endloop
endfacet
facet normal 0.000000 0.000000 -1.000000
outer loop
vertex 0.013649 0.002046 0.000000
vertex 0.013610 0.001922 0.000000
vertex 0.013571 0.001798 0.000000
endloop
endfacet
facet normal 0.000000 0.000000 -1.000000
outer loop
vertex 0.013571 0.001798 0.000000
vertex 0.013529 0.001675 0.000000
vertex 0.013441 0.001426 0.000000
endloop
endfacet
facet normal 0.000000 0.000000 -1.000000
outer loop
vertex 0.013441 0.001426 0.000000
vertex 0.013347 0.001174 0.000000
vertex 0.013280 0.001046 0.000000
endloop
endfacet
facet normal 0.000000 0.000000 -1.000000
outer loop
vertex 0.013280 0.001046 0.000000
vertex 0.013182 0.000920 0.000000
vertex 0.013058 0.000796 0.000000
endloop
endfacet
facet normal 0.000000 0.000000 -1.000000
outer loop
vertex 0.013058 0.000796 0.000000
vertex 0.012914 0.000676 0.000000
vertex 0.012588 0.000454 0.000000
endloop
endfacet
facet normal 0.000000 0.000000 -1.000000
outer loop
vertex 0.012588 0.000454 0.000000
vertex 0.012417 0.000355 0.000000
vertex 0.012249 0.000265 0.000000
endloop
endfacet
facet normal 0.000000 0.000000 -1.000000
outer loop
vertex 0.012249 0.000265 0.000000
vertex 0.012089 0.000186 0.000000
vertex 0.011943 0.000120 0.000000
endloop
endfacet
facet normal 0.000000 0.000000 -1.000000
outer loop
vertex 0.011943 0.000120 0.000000
vertex 0.011715 0.000031 0.000000
vertex 0.011606 0.000009 0.000000
endloop
endfacet
facet normal 0.000000 0.000000 -1.000000
outer loop
vertex 0.011606 0.000009 0.000000
vertex 0.011459 0.000000 0.000000
vertex 0.010860 0.000045 0.000000
endloop
endfacet
facet normal 0.000000 0.000000 -1.000000
outer loop
vertex 0.010860 0.000045 0.000000
vertex 0.010630 0.000079 0.000000
vertex 0.010398 0.000122 0.000000
endloop
endfacet
facet normal 0.000000 0.000000 -1.000000
outer loop
vertex 0.010398 0.000122 0.000000
vertex 0.010169 0.000171 0.000000
vertex 0.009950 0.000227 0.000000
endloop
endfacet
facet normal 0.000000 0.000000 -1.000000
outer loop
vertex 0.009950 0.000227 0.000000
vertex 0.009574 0.000351 0.000000
vertex 0.006314 0.001946 0.000000
endloop
endfacet
facet normal 0.000000 0.000000 -1.000000
outer loop
vertex 0.006314 0.001946 0.000000
vertex 0.006085 0.002113 0.000000
vertex 0.005928 0.002266 0.000000
endloop
endfacet
facet normal 0.000000 0.000000 -1.000000
outer loop
vertex 0.006314 0.001946 0.000000
vertex 0.005928 0.002266 0.000000
vertex 0.005788 0.002428 0.000000
endloop
endfacet
facet normal 0.000000 0.000000 -1.000000
outer loop
vertex 0.010398 0.000122 0.000000
vertex 0.009950 0.000227 0.000000
vertex 0.006314 0.001946 0.000000
endloop
endfacet
facet normal 0.000000 0.000000 -1.000000
outer loop
vertex 0.011606 0.000009 0.000000
vertex 0.010860 0.000045 0.000000
vertex 0.010398 0.000122 0.000000
endloop
endfacet
facet normal 0.000000 0.000000 -1.000000
outer loop
vertex 0.012249 0.000265 0.000000
vertex 0.011943 0.000120 0.000000
vertex 0.011606 0.000009 0.000000
endloop
endfacet
facet normal 0.000000 0.000000 -1.000000
outer loop
vertex 0.013058 0.000796 0.000000
vertex 0.012588 0.000454 0.000000
vertex 0.012249 0.000265 0.000000
endloop
endfacet
facet normal 0.000000 0.000000 -1.000000
outer loop
vertex 0.013441 0.001426 0.000000
vertex 0.013280 0.001046 0.000000
vertex 0.013058 0.000796 0.000000
endloop
endfacet
facet normal 0.000000 0.000000 -1.000000
outer loop
vertex 0.013649 0.002046 0.000000
vertex 0.013571 0.001798 0.000000
vertex 0.013441 0.001426 0.000000
endloop
endfacet
facet normal 0.000000 0.000000 -1.000000
outer loop
vertex 0.013784 0.002558 0.000000
vertex 0.013720 0.002298 0.000000
vertex 0.013649 0.002046 0.000000
endloop
endfacet
facet normal 0.000000 0.000000 -1.000000
outer loop
vertex 0.013974 0.003485 0.000000
vertex 0.013887 0.003034 0.000000
vertex 0.013784 0.002558 0.000000
endloop
endfacet
facet normal 0.000000 0.000000 -1.000000
outer loop
vertex 0.014072 0.004258 0.000000
vertex 0.014014 0.003736 0.000000
vertex 0.013974 0.003485 0.000000
endloop
endfacet
facet normal 0.000000 0.000000 -1.000000
outer loop
vertex 0.014054 0.004996 0.000000
vertex 0.014078 0.004764 0.000000
vertex 0.014072 0.004258 0.000000
endloop
endfacet
facet normal 0.000000 0.000000 -1.000000
outer loop
vertex 0.013933 0.005387 0.000000
vertex 0.014007 0.005206 0.000000
vertex 0.014054 0.004996 0.000000
endloop
endfacet
facet normal 0.000000 0.000000 -1.000000
outer loop
vertex 0.013555 0.005898 0.000000
vertex 0.013832 0.005554 0.000000
vertex 0.013933 0.005387 0.000000
endloop
endfacet
facet normal 0.000000 0.000000 -1.000000
outer loop
vertex 0.011462 0.007683 0.000000
vertex 0.013198 0.006251 0.000000
vertex 0.013555 0.005898 0.000000
endloop
endfacet
facet normal 0.000000 0.000000 -1.000000
outer loop
vertex 0.010421 0.008460 0.000000
vertex 0.011462 0.007683 0.000000
vertex 0.013555 0.005898 0.000000
endloop
endfacet
facet normal 0.000000 0.000000 -1.000000
outer loop
vertex 0.013555 0.005898 0.000000
vertex 0.013933 0.005387 0.000000
vertex 0.014054 0.004996 0.000000
endloop
endfacet
facet normal 0.000000 0.000000 -1.000000
outer loop
vertex 0.014054 0.004996 0.000000
vertex 0.014072 0.004258 0.000000
vertex 0.013974 0.003485 0.000000
endloop
endfacet
facet normal 0.000000 0.000000 -1.000000
outer loop
vertex 0.013974 0.003485 0.000000
vertex 0.013784 0.002558 0.000000
vertex 0.013649 0.002046 0.000000
endloop
endfacet
facet normal 0.000000 0.000000 -1.000000
outer loop
vertex 0.013649 0.002046 0.000000
vertex 0.013441 0.001426 0.000000
vertex 0.013058 0.000796 0.000000
endloop
endfacet
facet normal 0.000000 0.000000 -1.000000
outer loop
vertex 0.013058 0.000796 0.000000
vertex 0.012249 0.000265 0.000000
vertex 0.011606 0.000009 0.000000
endloop
endfacet
facet normal 0.000000 0.000000 -1.000000
outer loop
vertex 0.011606 0.000009 0.000000
vertex 0.010398 0.000122 0.000000
vertex 0.006314 0.001946 0.000000
endloop
endfacet
facet normal 0.000000 0.000000 -1.000000
outer loop
vertex 0.006314 0.001946 0.000000
vertex 0.005788 0.002428 0.000000
vertex 0.005603 0.002620 0.000000
endloop
endfacet
facet normal 0.000000 0.000000 -1.000000
outer loop
vertex 0.005603 0.002620 0.000000
vertex 0.003869 0.004290 0.000000
vertex 0.003668 0.004501 0.000000
endloop
endfacet
facet normal 0.000000 0.000000 -1.000000
outer loop
vertex 0.003668 0.004501 0.000000
vertex 0.003505 0.004686 0.000000
vertex 0.003391 0.004839 0.000000
endloop
endfacet
facet normal 0.000000 0.000000 -1.000000
outer loop
vertex 0.003391 0.004839 0.000000
vertex 0.003253 0.005113 0.000000
vertex 0.003024 0.005631 0.000000
endloop
endfacet
facet normal 0.000000 0.000000 -1.000000
outer loop
vertex 0.003024 0.005631 0.000000
vertex 0.002725 0.006344 0.000000
vertex 0.002374 0.007203 0.000000
endloop
endfacet
facet normal 0.000000 0.000000 -1.000000
outer loop
vertex 0.002374 0.007203 0.000000
vertex 0.001991 0.008156 0.000000
vertex 0.001594 0.009156 0.000000
endloop
endfacet
facet normal 0.000000 0.000000 -1.000000
outer loop
vertex 0.001594 0.009156 0.000000
vertex 0.000836 0.011094 0.000000
vertex 0.000514 0.011935 0.000000
endloop
endfacet
facet normal 0.000000 0.000000 -1.000000
outer loop
vertex 0.000514 0.011935 0.000000
vertex 0.000254 0.012622 0.000000
vertex 0.000076 0.013108 0.000000
endloop
endfacet
facet normal 0.000000 0.000000 -1.000000
outer loop
vertex 0.000076 0.013108 0.000000
vertex 0.000000 0.013343 0.000000
vertex 0.000582 0.014409 0.000000
endloop
endfacet
facet normal 0.000000 0.000000 -1.000000
outer loop
vertex 0.000582 0.014409 0.000000
vertex 0.002464 0.014327 0.000000
vertex 0.003330 0.014187 0.000000
endloop
endfacet
facet normal 0.000000 0.000000 -1.000000
outer loop
vertex 0.003330 0.014187 0.000000
vertex 0.003828 0.014037 0.000000
vertex 0.004278 0.013834 0.000000
endloop
endfacet
facet normal 0.000000 0.000000 -1.000000
outer loop
vertex 0.004278 0.013834 0.000000
vertex 0.007012 0.011975 0.000000
vertex 0.007273 0.011744 0.000000
endloop
endfacet
facet normal 0.000000 0.000000 -1.000000
outer loop
vertex 0.004278 0.013834 0.000000
vertex 0.007273 0.011744 0.000000
vertex 0.010119 0.008709 0.000000
endloop
endfacet
facet normal 0.000000 0.000000 -1.000000
outer loop
vertex 0.000582 0.014409 0.000000
vertex 0.003330 0.014187 0.000000
vertex 0.004278 0.013834 0.000000
endloop
endfacet
facet normal 0.000000 0.000000 -1.000000
outer loop
vertex 0.000514 0.011935 0.000000
vertex 0.000076 0.013108 0.000000
vertex 0.000582 0.014409 0.000000
endloop
endfacet
facet normal 0.000000 0.000000 -1.000000
outer loop
vertex 0.002374 0.007203 0.000000
vertex 0.001594 0.009156 0.000000
vertex 0.000514 0.011935 0.000000
endloop
endfacet
facet normal 0.000000 0.000000 -1.000000
outer loop
vertex 0.003391 0.004839 0.000000
vertex 0.003024 0.005631 0.000000
vertex 0.002374 0.007203 0.000000
endloop
endfacet
facet normal 0.000000 0.000000 -1.000000
outer loop
vertex 0.005603 0.002620 0.000000
vertex 0.003668 0.004501 0.000000
vertex 0.003391 0.004839 0.000000
endloop
endfacet
facet normal 0.000000 0.000000 -1.000000
outer loop
vertex 0.011606 0.000009 0.000000
vertex 0.006314 0.001946 0.000000
vertex 0.005603 0.002620 0.000000
endloop
endfacet
facet normal 0.000000 0.000000 -1.000000
outer loop
vertex 0.013649 0.002046 0.000000
vertex 0.013058 0.000796 0.000000
vertex 0.011606 0.000009 0.000000
endloop
endfacet
facet normal 0.000000 0.000000 -1.000000
outer loop
vertex 0.014054 0.004996 0.000000
vertex 0.013974 0.003485 0.000000
vertex 0.013649 0.002046 0.000000
endloop
endfacet
facet normal 0.000000 0.000000 -1.000000
outer loop
vertex 0.010421 0.008460 0.000000
vertex 0.013555 0.005898 0.000000
vertex 0.014054 0.004996 0.000000
endloop
endfacet
facet normal 0.000000 0.000000 -1.000000
outer loop
vertex 0.000582 0.014409 0.000000
vertex 0.004278 0.013834 0.000000
vertex 0.010119 0.008709 0.000000
endloop
endfacet
facet normal 0.000000 0.000000 -1.000000
outer loop
vertex 0.010119 0.008709 0.000000
vertex 0.010421 0.008460 0.000000
vertex 0.014054 0.004996 0.000000
endloop
endfacet
facet normal 0.000000 0.000000 -1.000000
outer loop
vertex 0.014054 0.004996 0.000000
vertex 0.013649 0.002046 0.000000
vertex 0.011606 0.000009 0.000000
endloop
endfacet
facet normal 0.000000 0.000000 -1.000000
outer loop
vertex 0.011606 0.000009 0.000000
vertex 0.005603 0.002620 0.000000
vertex 0.003391 0.004839 0.000000
endloop
endfacet
facet normal 0.000000 0.000000 -1.000000
outer loop
vertex 0.003391 0.004839 0.000000
vertex 0.002374 0.007203 0.000000
vertex 0.000514 0.011935 0.000000
endloop
endfacet
facet normal 0.000000 0.000000 -1.000000
outer loop
vertex 0.000514 0.011935 0.000000
vertex 0.000582 0.014409 0.000000
vertex 0.010119 0.008709 0.000000
endloop
endfacet
facet normal 0.000000 0.000000 -1.000000
outer loop
vertex 0.010119 0.008709 0.000000
vertex 0.014054 0.004996 0.000000
vertex 0.011606 0.000009 0.000000
endloop
endfacet
facet normal 0.000000 0.000000 -1.000000
outer loop
vertex 0.011606 0.000009 0.000000
vertex 0.003391 0.004839 0.000000
vertex 0.000514 0.011935 0.000000
endloop
endfacet
facet normal 0.000000 0.000000 -1.000000
outer loop
vertex 0.011606 0.000009 0.000000
vertex 0.000514 0.011935 0.000000
vertex 0.010119 0.008709 0.000000
endloop
endfacet
facet normal -0.313825 -0.949481 0.000000
outer loop
vertex 0.009574 0.000351 0.000000
vertex 0.009950 0.000227 0.000000
vertex 0.009950 0.000227 0.150000
endloop
endfacet
facet normal -0.313825 -0.949481 0.000000
outer loop
vertex 0.009574 0.000351 0.000000
vertex 0.009950 0.000227 0.150000
vertex 0.009574 0.000351 0.150000
endloop
endfacet
facet normal -0.439498 -0.898244 0.000000
outer loop
vertex 0.006314 0.001946 0.000000
vertex 0.009574 0.000351 0.000000
vertex 0.009574 0.000351 0.150000
endloop
endfacet
facet normal -0.439498 -0.898244 0.000000
outer loop
vertex 0.006314 0.001946 0.000000
vertex 0.009574 0.000351 0.150000
vertex 0.006314 0.001946 0.150000
endloop
endfacet
facet normal 0.000000 0.000000 -1.000000
outer loop
vertex 0.003869 0.004290 0.000000
vertex 0.005603 0.002620 0.000000
vertex 0.005788 0.002428 0.000000
endloop
endfacet
facet normal -0.698571 -0.715541 0.000000
outer loop
vertex 0.005928 0.002266 0.000000
vertex 0.006085 0.002113 0.000000
vertex 0.006085 0.002113 0.150000
endloop
endfacet
facet normal 0.000000 0.000000 -1.000000
outer loop
vertex 0.003869 0.004290 0.000000
vertex 0.005788 0.002428 0.000000
vertex 0.005928 0.002266 0.000000
endloop
endfacet
facet normal -0.751593 -0.659627 0.000000
outer loop
vertex 0.003505 0.004686 0.150000
vertex 0.003505 0.004686 0.000000
vertex 0.003668 0.004501 0.000000
endloop
endfacet
facet normal -0.701019 -0.713142 0.000005
outer loop
vertex 0.003869 0.004290 0.000000
vertex 0.005928 0.002266 0.000000
vertex 0.006085 0.002113 0.150000
endloop
endfacet
facet normal -0.722603 -0.691263 0.000070
outer loop
vertex 0.003505 0.004686 0.150000
vertex 0.003668 0.004501 0.000000
vertex 0.003869 0.004290 0.000000
endloop
endfacet
facet normal -0.751593 -0.659628 -0.000083
outer loop
vertex 0.003668 0.004501 0.150000
vertex 0.003505 0.004686 0.150000
vertex 0.003869 0.004290 0.000000
endloop
endfacet
facet normal -0.698569 -0.715543 -0.000066
outer loop
vertex 0.003869 0.004290 0.000000
vertex 0.006085 0.002113 0.150000
vertex 0.005928 0.002266 0.150000
endloop
endfacet
facet normal -0.755123 -0.655582 0.001519
outer loop
vertex 0.003869 0.004290 0.000000
vertex 0.005928 0.002266 0.150000
vertex 0.005788 0.002428 0.150000
endloop
endfacet
facet normal -0.722602 -0.691264 0.000000
outer loop
vertex 0.003869 0.004290 0.150000
vertex 0.003668 0.004501 0.150000
vertex 0.003869 0.004290 0.000000
endloop
endfacet
facet normal -0.722200 -0.691684 0.000650
outer loop
vertex 0.003869 0.004290 0.000000
vertex 0.005788 0.002428 0.150000
vertex 0.005603 0.002620 0.150000
endloop
endfacet
facet normal -0.693579 -0.720381 0.000000
outer loop
vertex 0.003869 0.004290 0.000000
vertex 0.005603 0.002620 0.150000
vertex 0.003869 0.004290 0.150000
endloop
endfacet
facet normal 0.993905 -0.110237 0.000000
outer loop
vertex 0.014014 0.003736 0.150000
vertex 0.014014 0.003736 0.000000
vertex 0.014072 0.004258 0.000000
endloop
endfacet
facet normal 0.993905 -0.110242 0.000000
outer loop
vertex 0.014014 0.003736 0.150000
vertex 0.014072 0.004258 0.000000
vertex 0.014072 0.004258 0.150000
endloop
endfacet
facet normal 0.999928 -0.011981 0.000000
outer loop
vertex 0.014072 0.004258 0.150000
vertex 0.014072 0.004258 0.000000
vertex 0.014078 0.004764 0.000000
endloop
endfacet
facet normal 0.999928 -0.011987 0.000000
outer loop
vertex 0.014072 0.004258 0.150000
vertex 0.014078 0.004764 0.000000
vertex 0.014078 0.004764 0.150000
endloop
endfacet
facet normal 0.927145 0.374704 0.000000
outer loop
vertex 0.014007 0.005206 0.150000
vertex 0.014007 0.005206 0.000000
vertex 0.013933 0.005387 0.000000
endloop
endfacet
facet normal 0.927145 0.374704 0.000000
outer loop
vertex 0.014007 0.005206 0.150000
vertex 0.013933 0.005387 0.000000
vertex 0.013933 0.005387 0.150000
endloop
endfacet
facet normal 0.198207 -0.980160 0.000000
outer loop
vertex 0.011606 0.000009 0.150000
vertex 0.011606 0.000009 0.000000
vertex 0.011715 0.000031 0.000000
endloop
endfacet
facet normal 0.198202 -0.980161 0.000000
outer loop
vertex 0.011606 0.000009 0.150000
vertex 0.011715 0.000031 0.000000
vertex 0.011715 0.000031 0.150000
endloop
endfacet
facet normal 0.000000 0.000000 1.000000
outer loop
vertex 0.001594 0.009156 0.000000
vertex 0.001991 0.008156 0.000000
vertex 0.002374 0.007203 0.000000
endloop
endfacet
facet normal 0.000000 0.000000 1.000000
outer loop
vertex 0.002374 0.007203 0.000000
vertex 0.002725 0.006344 0.000000
vertex 0.003024 0.005631 0.000000
endloop
endfacet
facet normal -0.915123 -0.403174 0.000000
outer loop
vertex 0.003024 0.005631 0.000000
vertex 0.003253 0.005113 0.000000
vertex 0.003253 0.005113 0.150000
endloop
endfacet
facet normal -0.915123 -0.403174 0.000000
outer loop
vertex 0.003024 0.005631 0.000000
vertex 0.003253 0.005113 0.150000
vertex 0.003024 0.005631 0.150000
endloop
endfacet
facet normal 0.000000 0.000000 1.000000
outer loop
vertex 0.001594 0.009156 0.000000
vertex 0.002374 0.007203 0.000000
vertex 0.003024 0.005631 0.000000
endloop
endfacet
facet normal 0.000000 0.000000 1.000000
outer loop
vertex 0.000514 0.011935 0.000000
vertex 0.000836 0.011094 0.000000
vertex 0.001594 0.009156 0.000000
endloop
endfacet
facet normal 0.000000 0.000000 1.000000
outer loop
vertex 0.000076 0.013108 0.000000
vertex 0.000254 0.012622 0.000000
vertex 0.000514 0.011935 0.000000
endloop
endfacet
facet normal -0.950877 -0.309568 0.000000
outer loop
vertex 0.000000 0.013343 0.150000
vertex 0.000000 0.013343 0.000000
vertex 0.000076 0.013108 0.000000
endloop
endfacet
facet normal -0.950877 -0.309568 0.000000
outer loop
vertex 0.000076 0.013108 0.150000
vertex 0.000000 0.013343 0.150000
vertex 0.000076 0.013108 0.000000
endloop
endfacet
facet normal 0.000000 0.000000 1.000000
outer loop
vertex 0.000076 0.013108 0.000000
vertex 0.000514 0.011935 0.000000
vertex 0.001594 0.009156 0.000000
endloop
endfacet
facet normal -0.926591 -0.376070 0.000000
outer loop
vertex 0.001594 0.009156 0.000000
vertex 0.003024 0.005631 0.000000
vertex 0.003024 0.005631 0.150000
endloop
endfacet
facet normal -0.922116 -0.386914 -0.000297
outer loop
vertex 0.001594 0.009156 0.000000
vertex 0.003024 0.005631 0.150000
vertex 0.002725 0.006344 0.150000
endloop
endfacet
facet normal -0.933552 -0.358441 0.000000
outer loop
vertex 0.000076 0.013108 0.150000
vertex 0.000076 0.013108 0.000000
vertex 0.001594 0.009156 0.000000
endloop
endfacet
facet normal -0.939262 -0.343201 -0.000459
outer loop
vertex 0.000254 0.012622 0.150000
vertex 0.000076 0.013108 0.150000
vertex 0.001594 0.009156 0.000000
endloop
endfacet
facet normal -0.925613 -0.378471 -0.000113
outer loop
vertex 0.001594 0.009156 0.000000
vertex 0.002725 0.006344 0.150000
vertex 0.002374 0.007203 0.150000
endloop
endfacet
facet normal -0.927806 -0.373063 -0.000031
outer loop
vertex 0.001594 0.009156 0.000000
vertex 0.002374 0.007203 0.150000
vertex 0.001991 0.008156 0.150000
endloop
endfacet
facet normal -0.935553 -0.353187 -0.000195
outer loop
vertex 0.000514 0.011935 0.150000
vertex 0.000254 0.012622 0.150000
vertex 0.001594 0.009156 0.000000
endloop
endfacet
facet normal -0.933522 -0.358521 -0.000082
outer loop
vertex 0.000836 0.011094 0.150000
vertex 0.000514 0.011935 0.150000
vertex 0.001594 0.009156 0.000000
endloop
endfacet
facet normal -0.929411 -0.369047 0.000000
outer loop
vertex 0.001594 0.009156 0.000000
vertex 0.001991 0.008156 0.150000
vertex 0.001594 0.009156 0.150000
endloop
endfacet
facet normal -0.931387 -0.364029 0.000000
outer loop
vertex 0.001594 0.009156 0.150000
vertex 0.000836 0.011094 0.150000
vertex 0.001594 0.009156 0.000000
endloop
endfacet
facet normal 0.994465 0.105069 0.000000
outer loop
vertex 0.014078 0.004764 0.150000
vertex 0.014078 0.004764 0.000000
vertex 0.014054 0.004996 0.000000
endloop
endfacet
facet normal 0.994466 0.105055 0.000000
outer loop
vertex 0.014078 0.004764 0.150000
vertex 0.014054 0.004996 0.000000
vertex 0.014054 0.004996 0.150000
endloop
endfacet
facet normal 0.778309 0.627881 0.000000
outer loop
vertex 0.013832 0.005554 0.000000
vertex 0.013555 0.005898 0.000000
vertex 0.013555 0.005898 0.150000
endloop
endfacet
facet normal 0.778306 0.627885 0.000000
outer loop
vertex 0.013832 0.005554 0.000000
vertex 0.013555 0.005898 0.150000
vertex 0.013832 0.005554 0.150000
endloop
endfacet
facet normal 0.729383 0.684106 0.000000
outer loop
vertex 0.010119 0.008709 0.150000
vertex 0.010119 0.008709 0.000000
vertex 0.007273 0.011744 0.000000
endloop
endfacet
facet normal 0.729383 0.684106 0.000000
outer loop
vertex 0.010119 0.008709 0.150000
vertex 0.007273 0.011744 0.000000
vertex 0.007273 0.011744 0.150000
endloop
endfacet
facet normal 0.043880 0.999037 0.000000
outer loop
vertex 0.002464 0.014327 0.000000
vertex 0.000582 0.014409 0.000000
vertex 0.000582 0.014409 0.150000
endloop
endfacet
facet normal 0.043880 0.999037 0.000000
outer loop
vertex 0.002464 0.014327 0.000000
vertex 0.000582 0.014409 0.150000
vertex 0.002464 0.014327 0.150000
endloop
endfacet
facet normal 0.289040 0.957317 0.000000
outer loop
vertex 0.003828 0.014037 0.150000
vertex 0.003828 0.014037 0.000000
vertex 0.003330 0.014187 0.000000
endloop
endfacet
facet normal 0.289041 0.957317 0.000000
outer loop
vertex 0.003828 0.014037 0.150000
vertex 0.003330 0.014187 0.000000
vertex 0.003330 0.014187 0.150000
endloop
endfacet
endsolid Exported from Blender-3.6.8
