solid Exported from Blender-3.6.8
facet normal 0.000000 0.000000 1.000000
outer loop
vertex 0.000068 0.002316 0.000000
vertex 0.000086 0.002148 0.000000
vertex 0.000106 0.001992 0.000000
endloop
endfacet
facet normal -0.985064 -0.172189 0.000000
outer loop
vertex 0.000106 0.001992 0.000000
vertex 0.000131 0.001847 0.000000
vertex 0.000131 0.001847 0.150000
endloop
endfacet
facet normal -0.985064 -0.172189 0.000000
outer loop
vertex 0.000106 0.001992 0.000000
vertex 0.000131 0.001847 0.150000
vertex 0.000106 0.001992 0.150000
endloop
endfacet
facet normal 0.000000 0.000000 1.000000
outer loop
vertex 0.000052 0.002502 0.000000
vertex 0.000068 0.002316 0.000000
vertex 0.000106 0.001992 0.000000
endloop
endfacet
facet normal 0.000000 0.000000 1.000000
outer loop
vertex 0.000001 0.003156 0.000000
vertex 0.000015 0.002935 0.000000
vertex 0.000035 0.002707 0.000000
endloop
endfacet
facet normal 0.000000 0.000000 1.000000
outer loop
vertex 0.000035 0.002707 0.000000
vertex 0.000052 0.002502 0.000000
vertex 0.000106 0.001992 0.000000
endloop
endfacet
facet normal -0.991577 -0.129518 0.000000
outer loop
vertex 0.000106 0.001992 0.000000
vertex 0.000106 0.001992 0.150000
vertex 0.000086 0.002148 0.150000
endloop
endfacet
facet normal -0.994808 -0.101774 -0.000029
outer loop
vertex 0.000106 0.001992 0.000000
vertex 0.000086 0.002148 0.150000
vertex 0.000068 0.002316 0.150000
endloop
endfacet
facet normal 0.000000 0.000000 1.000000
outer loop
vertex 0.000001 0.003156 0.000000
vertex 0.000035 0.002707 0.000000
vertex 0.000106 0.001992 0.000000
endloop
endfacet
facet normal -0.998087 -0.061826 0.000000
outer loop
vertex 0.000015 0.002935 0.150000
vertex 0.000001 0.003156 0.150000
vertex 0.000001 0.003156 0.000000
endloop
endfacet
facet normal -0.996045 -0.088848 -0.000040
outer loop
vertex 0.000035 0.002707 0.150000
vertex 0.000015 0.002935 0.150000
vertex 0.000001 0.003156 0.000000
endloop
endfacet
facet normal -0.995942 -0.089997 -0.000055
outer loop
vertex 0.000001 0.003156 0.000000
vertex 0.000106 0.001992 0.000000
vertex 0.000068 0.002316 0.150000
endloop
endfacet
facet normal -0.996465 -0.084011 -0.000025
outer loop
vertex 0.000052 0.002502 0.150000
vertex 0.000035 0.002707 0.150000
vertex 0.000001 0.003156 0.000000
endloop
endfacet
facet normal -0.996170 -0.087433 -0.000040
outer loop
vertex 0.000068 0.002316 0.150000
vertex 0.000052 0.002502 0.150000
vertex 0.000001 0.003156 0.000000
endloop
endfacet
facet normal 0.812670 -0.582724 0.000000
outer loop
vertex 0.003985 0.001127 0.150000
vertex 0.003985 0.001127 0.000000
vertex 0.004107 0.001297 0.000000
endloop
endfacet
facet normal 0.812672 -0.582722 0.000000
outer loop
vertex 0.003985 0.001127 0.150000
vertex 0.004107 0.001297 0.000000
vertex 0.004107 0.001297 0.150000
endloop
endfacet
facet normal 0.998748 0.050018 0.000000
outer loop
vertex 0.005830 0.005092 0.150000
vertex 0.005830 0.005092 0.000000
vertex 0.005822 0.005265 0.000000
endloop
endfacet
facet normal 0.998748 0.050018 0.000000
outer loop
vertex 0.005830 0.005092 0.150000
vertex 0.005822 0.005265 0.000000
vertex 0.005822 0.005265 0.150000
endloop
endfacet
facet normal -0.857085 0.515176 0.000000
outer loop
vertex 0.000694 0.004922 0.150000
vertex 0.000694 0.004922 0.000000
vertex 0.000540 0.004665 0.000000
endloop
endfacet
facet normal -0.857085 0.515176 0.000000
outer loop
vertex 0.000694 0.004922 0.150000
vertex 0.000540 0.004665 0.000000
vertex 0.000540 0.004665 0.150000
endloop
endfacet
facet normal -0.405150 -0.914250 0.000000
outer loop
vertex 0.001104 0.000072 0.150000
vertex 0.001104 0.000072 0.000000
vertex 0.001212 0.000024 0.000000
endloop
endfacet
facet normal -0.405151 -0.914250 0.000000
outer loop
vertex 0.001104 0.000072 0.150000
vertex 0.001212 0.000024 0.000000
vertex 0.001212 0.000024 0.150000
endloop
endfacet
facet normal 0.942063 0.335435 0.000000
outer loop
vertex 0.005289 0.007328 0.150000
vertex 0.005353 0.007149 0.150000
vertex 0.005353 0.007149 0.000000
endloop
endfacet
facet normal 0.000000 0.000000 1.000000
outer loop
vertex 0.005353 0.007149 0.000000
vertex 0.005289 0.007328 0.000000
vertex 0.005225 0.007487 0.000000
endloop
endfacet
facet normal 0.907176 0.420752 0.000000
outer loop
vertex 0.005225 0.007487 0.000000
vertex 0.005162 0.007624 0.000000
vertex 0.005162 0.007624 0.150000
endloop
endfacet
facet normal 0.928209 0.372059 -0.000050
outer loop
vertex 0.005225 0.007487 0.150000
vertex 0.005289 0.007328 0.150000
vertex 0.005353 0.007149 0.000000
endloop
endfacet
facet normal 0.907174 0.420756 0.000000
outer loop
vertex 0.005225 0.007487 0.000000
vertex 0.005162 0.007624 0.150000
vertex 0.005225 0.007487 0.150000
endloop
endfacet
facet normal 0.935682 0.352844 0.000000
outer loop
vertex 0.005353 0.007149 0.000000
vertex 0.005225 0.007487 0.000000
vertex 0.005225 0.007487 0.150000
endloop
endfacet
facet normal 0.464816 -0.885407 0.000000
outer loop
vertex 0.003062 0.000484 0.150000
vertex 0.003062 0.000484 0.000000
vertex 0.003481 0.000704 0.000000
endloop
endfacet
facet normal 0.464816 -0.885407 0.000000
outer loop
vertex 0.003062 0.000484 0.150000
vertex 0.003481 0.000704 0.000000
vertex 0.003481 0.000704 0.150000
endloop
endfacet
facet normal 0.000000 0.000000 -1.000000
outer loop
vertex 0.000598 0.000881 0.000000
vertex 0.000679 0.000734 0.000000
vertex 0.000749 0.000593 0.000000
endloop
endfacet
facet normal 0.000000 0.000000 -1.000000
outer loop
vertex 0.000598 0.000881 0.000000
vertex 0.000749 0.000593 0.000000
vertex 0.000812 0.000460 0.000000
endloop
endfacet
facet normal 0.000000 0.000000 -1.000000
outer loop
vertex 0.000404 0.001175 0.000000
vertex 0.000501 0.001030 0.000000
vertex 0.000598 0.000881 0.000000
endloop
endfacet
facet normal -0.862866 -0.505432 0.000000
outer loop
vertex 0.000323 0.001313 0.150000
vertex 0.000323 0.001313 0.000000
vertex 0.000404 0.001175 0.000000
endloop
endfacet
facet normal -0.862866 -0.505432 0.000000
outer loop
vertex 0.000404 0.001175 0.150000
vertex 0.000323 0.001313 0.150000
vertex 0.000404 0.001175 0.000000
endloop
endfacet
facet normal 0.000000 0.000000 -1.000000
outer loop
vertex 0.000404 0.001175 0.000000
vertex 0.000598 0.000881 0.000000
vertex 0.000812 0.000460 0.000000
endloop
endfacet
facet normal -0.851010 -0.525149 0.000000
outer loop
vertex 0.000874 0.000339 0.000000
vertex 0.000940 0.000232 0.000000
vertex 0.000940 0.000232 0.150000
endloop
endfacet
facet normal 0.000000 0.000000 -1.000000
outer loop
vertex 0.000404 0.001175 0.000000
vertex 0.000812 0.000460 0.000000
vertex 0.000874 0.000339 0.000000
endloop
endfacet
facet normal -0.829772 -0.558102 0.000000
outer loop
vertex 0.000501 0.001030 0.150000
vertex 0.000404 0.001175 0.150000
vertex 0.000404 0.001175 0.000000
endloop
endfacet
facet normal -0.838800 -0.544440 0.000019
outer loop
vertex 0.000598 0.000881 0.150000
vertex 0.000501 0.001030 0.150000
vertex 0.000404 0.001175 0.000000
endloop
endfacet
facet normal -0.871431 -0.490519 0.000034
outer loop
vertex 0.000404 0.001175 0.000000
vertex 0.000874 0.000339 0.000000
vertex 0.000940 0.000232 0.150000
endloop
endfacet
facet normal -0.851010 -0.525149 -0.000257
outer loop
vertex 0.000404 0.001175 0.000000
vertex 0.000940 0.000232 0.150000
vertex 0.000874 0.000339 0.150000
endloop
endfacet
facet normal -0.875909 -0.482476 0.000189
outer loop
vertex 0.000679 0.000734 0.150000
vertex 0.000598 0.000881 0.150000
vertex 0.000404 0.001175 0.000000
endloop
endfacet
facet normal -0.896802 -0.442432 0.000345
outer loop
vertex 0.000749 0.000593 0.150000
vertex 0.000679 0.000734 0.150000
vertex 0.000404 0.001175 0.000000
endloop
endfacet
facet normal -0.889672 -0.456601 0.000246
outer loop
vertex 0.000404 0.001175 0.000000
vertex 0.000874 0.000339 0.150000
vertex 0.000812 0.000460 0.150000
endloop
endfacet
facet normal -0.902158 -0.431407 0.000400
outer loop
vertex 0.000812 0.000460 0.150000
vertex 0.000749 0.000593 0.150000
vertex 0.000404 0.001175 0.000000
endloop
endfacet
facet normal 0.562324 -0.826917 0.000000
outer loop
vertex 0.003481 0.000704 0.150000
vertex 0.003481 0.000704 0.000000
vertex 0.003669 0.000831 0.000000
endloop
endfacet
facet normal 0.562325 -0.826916 0.000000
outer loop
vertex 0.003481 0.000704 0.150000
vertex 0.003669 0.000831 0.000000
vertex 0.003669 0.000831 0.150000
endloop
endfacet
facet normal -0.910096 0.414398 0.000000
outer loop
vertex 0.000133 0.003849 0.150000
vertex 0.000133 0.003849 0.000000
vertex 0.000087 0.003747 0.000000
endloop
endfacet
facet normal -0.910096 0.414398 0.000000
outer loop
vertex 0.000133 0.003849 0.150000
vertex 0.000087 0.003747 0.000000
vertex 0.000087 0.003747 0.150000
endloop
endfacet
facet normal -0.919300 0.393557 0.000000
outer loop
vertex 0.000540 0.004665 0.150000
vertex 0.000540 0.004665 0.000000
vertex 0.000353 0.004229 0.000000
endloop
endfacet
facet normal -0.919300 0.393557 0.000000
outer loop
vertex 0.000540 0.004665 0.150000
vertex 0.000353 0.004229 0.000000
vertex 0.000353 0.004229 0.150000
endloop
endfacet
facet normal 0.000000 0.000000 -1.000000
outer loop
vertex 0.005498 0.004243 0.000000
vertex 0.005572 0.004379 0.000000
vertex 0.005702 0.004606 0.000000
endloop
endfacet
facet normal 0.898045 -0.439903 0.000000
outer loop
vertex 0.005702 0.004606 0.000000
vertex 0.005754 0.004712 0.000000
vertex 0.005754 0.004712 0.150000
endloop
endfacet
facet normal 0.898045 -0.439903 0.000000
outer loop
vertex 0.005702 0.004606 0.000000
vertex 0.005754 0.004712 0.150000
vertex 0.005702 0.004606 0.150000
endloop
endfacet
facet normal 0.871567 -0.490276 0.000000
outer loop
vertex 0.005498 0.004243 0.150000
vertex 0.005498 0.004243 0.000000
vertex 0.005702 0.004606 0.000000
endloop
endfacet
facet normal 0.867153 -0.498042 0.000000
outer loop
vertex 0.005702 0.004606 0.000000
vertex 0.005702 0.004606 0.150000
vertex 0.005572 0.004379 0.150000
endloop
endfacet
facet normal 0.878879 -0.477044 0.000042
outer loop
vertex 0.005702 0.004606 0.000000
vertex 0.005572 0.004379 0.150000
vertex 0.005498 0.004243 0.150000
endloop
endfacet
facet normal -0.620622 -0.784110 0.000000
outer loop
vertex 0.001015 0.000142 0.150000
vertex 0.001015 0.000142 0.000000
vertex 0.001104 0.000072 0.000000
endloop
endfacet
facet normal -0.620620 -0.784111 0.000000
outer loop
vertex 0.001015 0.000142 0.150000
vertex 0.001104 0.000072 0.000000
vertex 0.001104 0.000072 0.150000
endloop
endfacet
facet normal 0.000000 0.000000 1.000000
outer loop
vertex 0.004612 0.008125 0.000000
vertex 0.004536 0.008165 0.000000
vertex 0.004461 0.008201 0.000000
endloop
endfacet
facet normal 0.432503 0.901632 0.000000
outer loop
vertex 0.004461 0.008201 0.000000
vertex 0.004461 0.008201 0.150000
vertex 0.004536 0.008165 0.150000
endloop
endfacet
facet normal 0.468532 0.883447 -0.000022
outer loop
vertex 0.004461 0.008201 0.000000
vertex 0.004536 0.008165 0.150000
vertex 0.004612 0.008125 0.150000
endloop
endfacet
facet normal 0.000000 0.000000 1.000000
outer loop
vertex 0.004689 0.008081 0.000000
vertex 0.004612 0.008125 0.000000
vertex 0.004461 0.008201 0.000000
endloop
endfacet
facet normal 0.525815 0.850599 0.000000
outer loop
vertex 0.004764 0.008035 0.150000
vertex 0.004764 0.008035 0.000000
vertex 0.004689 0.008081 0.000000
endloop
endfacet
facet normal 0.499014 0.866594 -0.000062
outer loop
vertex 0.004461 0.008201 0.000000
vertex 0.004612 0.008125 0.150000
vertex 0.004689 0.008081 0.150000
endloop
endfacet
facet normal 0.525815 0.850599 0.000000
outer loop
vertex 0.004689 0.008081 0.150000
vertex 0.004764 0.008035 0.150000
vertex 0.004689 0.008081 0.000000
endloop
endfacet
facet normal 0.467536 0.883974 0.000000
outer loop
vertex 0.004461 0.008201 0.000000
vertex 0.004689 0.008081 0.150000
vertex 0.004689 0.008081 0.000000
endloop
endfacet
facet normal -0.948153 0.317814 0.000000
outer loop
vertex 0.000087 0.003747 0.150000
vertex 0.000087 0.003747 0.000000
vertex 0.000049 0.003633 0.000000
endloop
endfacet
facet normal -0.948153 0.317814 0.000000
outer loop
vertex 0.000087 0.003747 0.150000
vertex 0.000049 0.003633 0.000000
vertex 0.000049 0.003633 0.150000
endloop
endfacet
facet normal 0.000000 0.000000 -1.000000
outer loop
vertex 0.003481 0.000704 0.000000
vertex 0.003062 0.000484 0.000000
vertex 0.002608 0.000305 0.000000
endloop
endfacet
facet normal 0.000000 0.000000 -1.000000
outer loop
vertex 0.002608 0.000305 0.000000
vertex 0.002376 0.000230 0.000000
vertex 0.002145 0.000161 0.000000
endloop
endfacet
facet normal 0.000000 0.000000 -1.000000
outer loop
vertex 0.002145 0.000161 0.000000
vertex 0.001919 0.000100 0.000000
vertex 0.001700 0.000044 0.000000
endloop
endfacet
facet normal 0.000000 0.000000 -1.000000
outer loop
vertex 0.001700 0.000044 0.000000
vertex 0.001505 0.000007 0.000000
vertex 0.001344 0.000001 0.000000
endloop
endfacet
facet normal 0.000000 0.000000 -1.000000
outer loop
vertex 0.001344 0.000001 0.000000
vertex 0.001212 0.000024 0.000000
vertex 0.001104 0.000072 0.000000
endloop
endfacet
facet normal 0.000000 0.000000 -1.000000
outer loop
vertex 0.001104 0.000072 0.000000
vertex 0.001015 0.000142 0.000000
vertex 0.000940 0.000232 0.000000
endloop
endfacet
facet normal 0.000000 0.000000 -1.000000
outer loop
vertex 0.000940 0.000232 0.000000
vertex 0.000874 0.000339 0.000000
vertex 0.000812 0.000460 0.000000
endloop
endfacet
facet normal 0.000000 0.000000 -1.000000
outer loop
vertex 0.000940 0.000232 0.000000
vertex 0.000812 0.000460 0.000000
vertex 0.000749 0.000593 0.000000
endloop
endfacet
facet normal 0.000000 0.000000 -1.000000
outer loop
vertex 0.001344 0.000001 0.000000
vertex 0.001104 0.000072 0.000000
vertex 0.000940 0.000232 0.000000
endloop
endfacet
facet normal 0.000000 0.000000 -1.000000
outer loop
vertex 0.002145 0.000161 0.000000
vertex 0.001700 0.000044 0.000000
vertex 0.001344 0.000001 0.000000
endloop
endfacet
facet normal 0.000000 0.000000 -1.000000
outer loop
vertex 0.003481 0.000704 0.000000
vertex 0.002608 0.000305 0.000000
vertex 0.002145 0.000161 0.000000
endloop
endfacet
facet normal 0.000000 0.000000 -1.000000
outer loop
vertex 0.003838 0.000972 0.000000
vertex 0.003669 0.000831 0.000000
vertex 0.003481 0.000704 0.000000
endloop
endfacet
facet normal 0.000000 0.000000 -1.000000
outer loop
vertex 0.004107 0.001297 0.000000
vertex 0.003985 0.001127 0.000000
vertex 0.003838 0.000972 0.000000
endloop
endfacet
facet normal 0.000000 0.000000 -1.000000
outer loop
vertex 0.004984 0.002997 0.000000
vertex 0.004881 0.002769 0.000000
vertex 0.004107 0.001297 0.000000
endloop
endfacet
facet normal 0.000000 0.000000 -1.000000
outer loop
vertex 0.005177 0.003451 0.000000
vertex 0.005084 0.003225 0.000000
vertex 0.004984 0.002997 0.000000
endloop
endfacet
facet normal 0.000000 0.000000 -1.000000
outer loop
vertex 0.005345 0.003889 0.000000
vertex 0.005265 0.003673 0.000000
vertex 0.005177 0.003451 0.000000
endloop
endfacet
facet normal 0.000000 0.000000 -1.000000
outer loop
vertex 0.005345 0.003889 0.000000
vertex 0.005177 0.003451 0.000000
vertex 0.004984 0.002997 0.000000
endloop
endfacet
facet normal 0.000000 0.000000 -1.000000
outer loop
vertex 0.004984 0.002997 0.000000
vertex 0.004107 0.001297 0.000000
vertex 0.003838 0.000972 0.000000
endloop
endfacet
facet normal 0.000000 0.000000 -1.000000
outer loop
vertex 0.003838 0.000972 0.000000
vertex 0.003481 0.000704 0.000000
vertex 0.002145 0.000161 0.000000
endloop
endfacet
facet normal 0.000000 0.000000 -1.000000
outer loop
vertex 0.002145 0.000161 0.000000
vertex 0.001344 0.000001 0.000000
vertex 0.000940 0.000232 0.000000
endloop
endfacet
facet normal 0.000000 0.000000 -1.000000
outer loop
vertex 0.000940 0.000232 0.000000
vertex 0.000749 0.000593 0.000000
vertex 0.000679 0.000734 0.000000
endloop
endfacet
facet normal 0.000000 0.000000 -1.000000
outer loop
vertex 0.002145 0.000161 0.000000
vertex 0.000940 0.000232 0.000000
vertex 0.000679 0.000734 0.000000
endloop
endfacet
facet normal 0.000000 0.000000 -1.000000
outer loop
vertex 0.004984 0.002997 0.000000
vertex 0.003838 0.000972 0.000000
vertex 0.002145 0.000161 0.000000
endloop
endfacet
facet normal 0.000000 0.000000 -1.000000
outer loop
vertex 0.005422 0.004082 0.000000
vertex 0.005345 0.003889 0.000000
vertex 0.004984 0.002997 0.000000
endloop
endfacet
facet normal 0.000000 0.000000 -1.000000
outer loop
vertex 0.005422 0.004082 0.000000
vertex 0.004984 0.002997 0.000000
vertex 0.002145 0.000161 0.000000
endloop
endfacet
facet normal 0.000000 0.000000 -1.000000
outer loop
vertex 0.002145 0.000161 0.000000
vertex 0.000679 0.000734 0.000000
vertex 0.000598 0.000881 0.000000
endloop
endfacet
facet normal 0.000000 0.000000 -1.000000
outer loop
vertex 0.000501 0.001030 0.000000
vertex 0.000404 0.001175 0.000000
vertex 0.000323 0.001313 0.000000
endloop
endfacet
facet normal 0.000000 0.000000 -1.000000
outer loop
vertex 0.002145 0.000161 0.000000
vertex 0.000598 0.000881 0.000000
vertex 0.000501 0.001030 0.000000
endloop
endfacet
facet normal 0.000000 0.000000 -1.000000
outer loop
vertex 0.005498 0.004243 0.000000
vertex 0.005422 0.004082 0.000000
vertex 0.002145 0.000161 0.000000
endloop
endfacet
facet normal 0.000000 0.000000 -1.000000
outer loop
vertex 0.005754 0.004712 0.000000
vertex 0.005702 0.004606 0.000000
vertex 0.005572 0.004379 0.000000
endloop
endfacet
facet normal 0.000000 0.000000 -1.000000
outer loop
vertex 0.005572 0.004379 0.000000
vertex 0.005498 0.004243 0.000000
vertex 0.002145 0.000161 0.000000
endloop
endfacet
facet normal 0.000000 0.000000 -1.000000
outer loop
vertex 0.002145 0.000161 0.000000
vertex 0.000501 0.001030 0.000000
vertex 0.000323 0.001313 0.000000
endloop
endfacet
facet normal 0.000000 0.000000 -1.000000
outer loop
vertex 0.000323 0.001313 0.000000
vertex 0.000205 0.001577 0.000000
vertex 0.000131 0.001847 0.000000
endloop
endfacet
facet normal 0.000000 0.000000 -1.000000
outer loop
vertex 0.000131 0.001847 0.000000
vertex 0.000106 0.001992 0.000000
vertex 0.000086 0.002148 0.000000
endloop
endfacet
facet normal 0.000000 0.000000 -1.000000
outer loop
vertex 0.000086 0.002148 0.000000
vertex 0.000068 0.002316 0.000000
vertex 0.000052 0.002502 0.000000
endloop
endfacet
facet normal 0.000000 0.000000 -1.000000
outer loop
vertex 0.000035 0.002707 0.000000
vertex 0.000015 0.002935 0.000000
vertex 0.000001 0.003156 0.000000
endloop
endfacet
facet normal 0.000000 0.000000 -1.000000
outer loop
vertex 0.000086 0.002148 0.000000
vertex 0.000052 0.002502 0.000000
vertex 0.000035 0.002707 0.000000
endloop
endfacet
facet normal 0.000000 0.000000 -1.000000
outer loop
vertex 0.000323 0.001313 0.000000
vertex 0.000131 0.001847 0.000000
vertex 0.000086 0.002148 0.000000
endloop
endfacet
facet normal 0.000000 0.000000 -1.000000
outer loop
vertex 0.005572 0.004379 0.000000
vertex 0.002145 0.000161 0.000000
vertex 0.000323 0.001313 0.000000
endloop
endfacet
facet normal 0.000000 0.000000 -1.000000
outer loop
vertex 0.005794 0.004823 0.000000
vertex 0.005754 0.004712 0.000000
vertex 0.005572 0.004379 0.000000
endloop
endfacet
facet normal 0.000000 0.000000 -1.000000
outer loop
vertex 0.005830 0.005092 0.000000
vertex 0.005821 0.004948 0.000000
vertex 0.005794 0.004823 0.000000
endloop
endfacet
facet normal 0.000000 0.000000 -1.000000
outer loop
vertex 0.005792 0.005474 0.000000
vertex 0.005822 0.005265 0.000000
vertex 0.005830 0.005092 0.000000
endloop
endfacet
facet normal 0.000000 0.000000 -1.000000
outer loop
vertex 0.005675 0.005997 0.000000
vertex 0.005740 0.005726 0.000000
vertex 0.005792 0.005474 0.000000
endloop
endfacet
facet normal 0.000000 0.000000 -1.000000
outer loop
vertex 0.005546 0.006502 0.000000
vertex 0.005610 0.006256 0.000000
vertex 0.005675 0.005997 0.000000
endloop
endfacet
facet normal 0.000000 0.000000 -1.000000
outer loop
vertex 0.005417 0.006950 0.000000
vertex 0.005481 0.006734 0.000000
vertex 0.005546 0.006502 0.000000
endloop
endfacet
facet normal 0.000000 0.000000 -1.000000
outer loop
vertex 0.005289 0.007328 0.000000
vertex 0.005353 0.007149 0.000000
vertex 0.005417 0.006950 0.000000
endloop
endfacet
facet normal 0.000000 0.000000 -1.000000
outer loop
vertex 0.005162 0.007624 0.000000
vertex 0.005225 0.007487 0.000000
vertex 0.005289 0.007328 0.000000
endloop
endfacet
facet normal 0.000000 0.000000 -1.000000
outer loop
vertex 0.005035 0.007827 0.000000
vertex 0.005098 0.007738 0.000000
vertex 0.005162 0.007624 0.000000
endloop
endfacet
facet normal 0.000000 0.000000 -1.000000
outer loop
vertex 0.004764 0.008035 0.000000
vertex 0.004972 0.007889 0.000000
vertex 0.005035 0.007827 0.000000
endloop
endfacet
facet normal 0.000000 0.000000 -1.000000
outer loop
vertex 0.004612 0.008125 0.000000
vertex 0.004689 0.008081 0.000000
vertex 0.004764 0.008035 0.000000
endloop
endfacet
facet normal 0.000000 0.000000 -1.000000
outer loop
vertex 0.004461 0.008201 0.000000
vertex 0.004536 0.008165 0.000000
vertex 0.004612 0.008125 0.000000
endloop
endfacet
facet normal 0.000000 0.000000 -1.000000
outer loop
vertex 0.004255 0.008273 0.000000
vertex 0.004320 0.008256 0.000000
vertex 0.004461 0.008201 0.000000
endloop
endfacet
facet normal 0.000000 0.000000 -1.000000
outer loop
vertex 0.004144 0.008282 0.000000
vertex 0.004196 0.008282 0.000000
vertex 0.004255 0.008273 0.000000
endloop
endfacet
facet normal 0.000000 0.000000 -1.000000
outer loop
vertex 0.003988 0.008238 0.000000
vertex 0.004080 0.008268 0.000000
vertex 0.004144 0.008282 0.000000
endloop
endfacet
facet normal 0.000000 0.000000 -1.000000
outer loop
vertex 0.001995 0.006685 0.000000
vertex 0.002836 0.007732 0.000000
vertex 0.003988 0.008238 0.000000
endloop
endfacet
facet normal 0.000000 0.000000 -1.000000
outer loop
vertex 0.000903 0.005232 0.000000
vertex 0.001153 0.005580 0.000000
vertex 0.001995 0.006685 0.000000
endloop
endfacet
facet normal 0.000000 0.000000 -1.000000
outer loop
vertex 0.000540 0.004665 0.000000
vertex 0.000694 0.004922 0.000000
vertex 0.000903 0.005232 0.000000
endloop
endfacet
facet normal 0.000000 0.000000 -1.000000
outer loop
vertex 0.000353 0.004229 0.000000
vertex 0.000540 0.004665 0.000000
vertex 0.000903 0.005232 0.000000
endloop
endfacet
facet normal 0.000000 0.000000 -1.000000
outer loop
vertex 0.000903 0.005232 0.000000
vertex 0.001995 0.006685 0.000000
vertex 0.003988 0.008238 0.000000
endloop
endfacet
facet normal 0.000000 0.000000 -1.000000
outer loop
vertex 0.003988 0.008238 0.000000
vertex 0.004144 0.008282 0.000000
vertex 0.004255 0.008273 0.000000
endloop
endfacet
facet normal 0.000000 0.000000 -1.000000
outer loop
vertex 0.004255 0.008273 0.000000
vertex 0.004461 0.008201 0.000000
vertex 0.004612 0.008125 0.000000
endloop
endfacet
facet normal 0.000000 0.000000 -1.000000
outer loop
vertex 0.004612 0.008125 0.000000
vertex 0.004764 0.008035 0.000000
vertex 0.005035 0.007827 0.000000
endloop
endfacet
facet normal 0.000000 0.000000 -1.000000
outer loop
vertex 0.005035 0.007827 0.000000
vertex 0.005162 0.007624 0.000000
vertex 0.005289 0.007328 0.000000
endloop
endfacet
facet normal 0.000000 0.000000 -1.000000
outer loop
vertex 0.005289 0.007328 0.000000
vertex 0.005417 0.006950 0.000000
vertex 0.005546 0.006502 0.000000
endloop
endfacet
facet normal 0.000000 0.000000 -1.000000
outer loop
vertex 0.005546 0.006502 0.000000
vertex 0.005675 0.005997 0.000000
vertex 0.005792 0.005474 0.000000
endloop
endfacet
facet normal 0.000000 0.000000 -1.000000
outer loop
vertex 0.005792 0.005474 0.000000
vertex 0.005830 0.005092 0.000000
vertex 0.005794 0.004823 0.000000
endloop
endfacet
facet normal 0.000000 0.000000 -1.000000
outer loop
vertex 0.005794 0.004823 0.000000
vertex 0.005572 0.004379 0.000000
vertex 0.000323 0.001313 0.000000
endloop
endfacet
facet normal 0.000000 0.000000 -1.000000
outer loop
vertex 0.000323 0.001313 0.000000
vertex 0.000086 0.002148 0.000000
vertex 0.000035 0.002707 0.000000
endloop
endfacet
facet normal 0.000000 0.000000 -1.000000
outer loop
vertex 0.000035 0.002707 0.000000
vertex 0.000001 0.003156 0.000000
vertex 0.000003 0.003342 0.000000
endloop
endfacet
facet normal 0.000000 0.000000 -1.000000
outer loop
vertex 0.000003 0.003342 0.000000
vertex 0.000020 0.003499 0.000000
vertex 0.000049 0.003633 0.000000
endloop
endfacet
facet normal 0.000000 0.000000 -1.000000
outer loop
vertex 0.000049 0.003633 0.000000
vertex 0.000087 0.003747 0.000000
vertex 0.000133 0.003849 0.000000
endloop
endfacet
facet normal 0.000000 0.000000 -1.000000
outer loop
vertex 0.000133 0.003849 0.000000
vertex 0.000185 0.003942 0.000000
vertex 0.000240 0.004033 0.000000
endloop
endfacet
facet normal 0.000000 0.000000 -1.000000
outer loop
vertex 0.000133 0.003849 0.000000
vertex 0.000240 0.004033 0.000000
vertex 0.000297 0.004127 0.000000
endloop
endfacet
facet normal 0.000000 0.000000 -1.000000
outer loop
vertex 0.000003 0.003342 0.000000
vertex 0.000049 0.003633 0.000000
vertex 0.000133 0.003849 0.000000
endloop
endfacet
facet normal 0.000000 0.000000 -1.000000
outer loop
vertex 0.000323 0.001313 0.000000
vertex 0.000035 0.002707 0.000000
vertex 0.000003 0.003342 0.000000
endloop
endfacet
facet normal 0.000000 0.000000 -1.000000
outer loop
vertex 0.005792 0.005474 0.000000
vertex 0.005794 0.004823 0.000000
vertex 0.000323 0.001313 0.000000
endloop
endfacet
facet normal 0.000000 0.000000 -1.000000
outer loop
vertex 0.005289 0.007328 0.000000
vertex 0.005546 0.006502 0.000000
vertex 0.005792 0.005474 0.000000
endloop
endfacet
facet normal 0.000000 0.000000 -1.000000
outer loop
vertex 0.004612 0.008125 0.000000
vertex 0.005035 0.007827 0.000000
vertex 0.005289 0.007328 0.000000
endloop
endfacet
facet normal 0.000000 0.000000 -1.000000
outer loop
vertex 0.003988 0.008238 0.000000
vertex 0.004255 0.008273 0.000000
vertex 0.004612 0.008125 0.000000
endloop
endfacet
facet normal 0.000000 0.000000 -1.000000
outer loop
vertex 0.000353 0.004229 0.000000
vertex 0.000903 0.005232 0.000000
vertex 0.003988 0.008238 0.000000
endloop
endfacet
facet normal 0.000000 0.000000 -1.000000
outer loop
vertex 0.000003 0.003342 0.000000
vertex 0.000133 0.003849 0.000000
vertex 0.000297 0.004127 0.000000
endloop
endfacet
facet normal 0.000000 0.000000 -1.000000
outer loop
vertex 0.000297 0.004127 0.000000
vertex 0.000353 0.004229 0.000000
vertex 0.003988 0.008238 0.000000
endloop
endfacet
facet normal 0.000000 0.000000 -1.000000
outer loop
vertex 0.003988 0.008238 0.000000
vertex 0.004612 0.008125 0.000000
vertex 0.005289 0.007328 0.000000
endloop
endfacet
facet normal 0.000000 0.000000 -1.000000
outer loop
vertex 0.005289 0.007328 0.000000
vertex 0.005792 0.005474 0.000000
vertex 0.000323 0.001313 0.000000
endloop
endfacet
facet normal 0.000000 0.000000 -1.000000
outer loop
vertex 0.000323 0.001313 0.000000
vertex 0.000003 0.003342 0.000000
vertex 0.000297 0.004127 0.000000
endloop
endfacet
facet normal 0.000000 0.000000 -1.000000
outer loop
vertex 0.000297 0.004127 0.000000
vertex 0.003988 0.008238 0.000000
vertex 0.005289 0.007328 0.000000
endloop
endfacet
facet normal 0.000000 0.000000 -1.000000
outer loop
vertex 0.000323 0.001313 0.000000
vertex 0.000297 0.004127 0.000000
vertex 0.005289 0.007328 0.000000
endloop
endfacet
facet normal -0.000130 0.000000 1.000000
outer loop
vertex 0.001212 0.000024 0.150000
vertex 0.001344 0.000001 0.150000
vertex 0.001505 0.000007 0.150000
endloop
endfacet
facet normal 0.000000 0.000000 1.000000
outer loop
vertex 0.001505 0.000007 0.150000
vertex 0.001700 0.000044 0.150000
vertex 0.001919 0.000100 0.150000
endloop
endfacet
facet normal 0.000000 0.000000 1.000000
outer loop
vertex 0.001919 0.000100 0.150000
vertex 0.002145 0.000161 0.150000
vertex 0.002376 0.000230 0.150000
endloop
endfacet
facet normal 0.000527 0.000000 1.000000
outer loop
vertex 0.002376 0.000230 0.150000
vertex 0.002608 0.000305 0.150000
vertex 0.003062 0.000484 0.150000
endloop
endfacet
facet normal 0.000298 0.000000 1.000000
outer loop
vertex 0.003062 0.000484 0.150000
vertex 0.003481 0.000704 0.150000
vertex 0.003669 0.000831 0.150000
endloop
endfacet
facet normal 0.000000 0.000000 1.000000
outer loop
vertex 0.003669 0.000831 0.150000
vertex 0.003838 0.000972 0.150000
vertex 0.003985 0.001127 0.150000
endloop
endfacet
facet normal -0.000609 0.000000 1.000000
outer loop
vertex 0.003985 0.001127 0.150000
vertex 0.004107 0.001297 0.150000
vertex 0.004881 0.002769 0.150000
endloop
endfacet
facet normal 0.000000 0.000000 1.000000
outer loop
vertex 0.004881 0.002769 0.150000
vertex 0.004984 0.002997 0.150000
vertex 0.005084 0.003225 0.150000
endloop
endfacet
facet normal 0.007007 0.000000 0.999975
outer loop
vertex 0.005084 0.003225 0.150000
vertex 0.005177 0.003451 0.150000
vertex 0.005265 0.003673 0.150000
endloop
endfacet
facet normal 0.000000 0.000000 1.000000
outer loop
vertex 0.005084 0.003225 0.150000
vertex 0.005265 0.003673 0.150000
vertex 0.005345 0.003889 0.150000
endloop
endfacet
facet normal 0.000571 0.000000 1.000000
outer loop
vertex 0.003985 0.001127 0.150000
vertex 0.004881 0.002769 0.150000
vertex 0.005084 0.003225 0.150000
endloop
endfacet
facet normal 0.000105 0.000000 1.000000
outer loop
vertex 0.003062 0.000484 0.150000
vertex 0.003669 0.000831 0.150000
vertex 0.003985 0.001127 0.150000
endloop
endfacet
facet normal -0.000268 0.000000 1.000000
outer loop
vertex 0.001919 0.000100 0.150000
vertex 0.002376 0.000230 0.150000
vertex 0.003062 0.000484 0.150000
endloop
endfacet
facet normal 0.000000 0.000000 1.000000
outer loop
vertex 0.001212 0.000024 0.150000
vertex 0.001505 0.000007 0.150000
vertex 0.001919 0.000100 0.150000
endloop
endfacet
facet normal 0.000544 0.000000 1.000000
outer loop
vertex 0.001015 0.000142 0.150000
vertex 0.001104 0.000072 0.150000
vertex 0.001212 0.000024 0.150000
endloop
endfacet
facet normal 0.001754 0.000000 0.999999
outer loop
vertex 0.000874 0.000339 0.150000
vertex 0.000940 0.000232 0.150000
vertex 0.001015 0.000142 0.150000
endloop
endfacet
facet normal 0.006465 0.000000 0.999979
outer loop
vertex 0.000749 0.000593 0.150000
vertex 0.000812 0.000460 0.150000
vertex 0.000874 0.000339 0.150000
endloop
endfacet
facet normal 0.000000 0.000000 1.000000
outer loop
vertex 0.000679 0.000734 0.150000
vertex 0.000749 0.000593 0.150000
vertex 0.000874 0.000339 0.150000
endloop
endfacet
facet normal -0.000493 0.000000 1.000000
outer loop
vertex 0.000874 0.000339 0.150000
vertex 0.001015 0.000142 0.150000
vertex 0.001212 0.000024 0.150000
endloop
endfacet
facet normal 0.000039 0.000000 1.000000
outer loop
vertex 0.001212 0.000024 0.150000
vertex 0.001919 0.000100 0.150000
vertex 0.003062 0.000484 0.150000
endloop
endfacet
facet normal -0.000047 0.000000 1.000000
outer loop
vertex 0.003062 0.000484 0.150000
vertex 0.003985 0.001127 0.150000
vertex 0.005084 0.003225 0.150000
endloop
endfacet
facet normal -0.000093 0.000000 1.000000
outer loop
vertex 0.003062 0.000484 0.150000
vertex 0.005084 0.003225 0.150000
vertex 0.005345 0.003889 0.150000
endloop
endfacet
facet normal 0.000000 0.000000 1.000000
outer loop
vertex 0.000874 0.000339 0.150000
vertex 0.001212 0.000024 0.150000
vertex 0.003062 0.000484 0.150000
endloop
endfacet
facet normal 0.000000 0.000000 1.000000
outer loop
vertex 0.000679 0.000734 0.150000
vertex 0.000874 0.000339 0.150000
vertex 0.003062 0.000484 0.150000
endloop
endfacet
facet normal 0.000121 0.000000 1.000000
outer loop
vertex 0.003062 0.000484 0.150000
vertex 0.005345 0.003889 0.150000
vertex 0.005422 0.004082 0.150000
endloop
endfacet
facet normal 0.000209 0.000000 1.000000
outer loop
vertex 0.003062 0.000484 0.150000
vertex 0.005422 0.004082 0.150000
vertex 0.005498 0.004243 0.150000
endloop
endfacet
facet normal 0.000000 0.000000 1.000000
outer loop
vertex 0.000598 0.000881 0.150000
vertex 0.000679 0.000734 0.150000
vertex 0.003062 0.000484 0.150000
endloop
endfacet
facet normal 0.000000 0.000000 1.000000
outer loop
vertex 0.000323 0.001313 0.150000
vertex 0.000404 0.001175 0.150000
vertex 0.000501 0.001030 0.150000
endloop
endfacet
facet normal -0.000022 0.000000 1.000000
outer loop
vertex 0.000501 0.001030 0.150000
vertex 0.000598 0.000881 0.150000
vertex 0.003062 0.000484 0.150000
endloop
endfacet
facet normal -0.000474 0.000000 1.000000
outer loop
vertex 0.003062 0.000484 0.150000
vertex 0.005498 0.004243 0.150000
vertex 0.005572 0.004379 0.150000
endloop
endfacet
facet normal 0.000000 0.000000 1.000000
outer loop
vertex 0.005572 0.004379 0.150000
vertex 0.005702 0.004606 0.150000
vertex 0.005754 0.004712 0.150000
endloop
endfacet
facet normal 0.001747 0.000000 0.999999
outer loop
vertex 0.005754 0.004712 0.150000
vertex 0.005794 0.004823 0.150000
vertex 0.005821 0.004948 0.150000
endloop
endfacet
facet normal -0.001227 0.000000 0.999999
outer loop
vertex 0.005821 0.004948 0.150000
vertex 0.005830 0.005092 0.150000
vertex 0.005822 0.005265 0.150000
endloop
endfacet
facet normal 0.002056 0.000000 0.999998
outer loop
vertex 0.005822 0.005265 0.150000
vertex 0.005792 0.005474 0.150000
vertex 0.005740 0.005726 0.150000
endloop
endfacet
facet normal 0.010286 0.000000 0.999947
outer loop
vertex 0.005740 0.005726 0.150000
vertex 0.005675 0.005997 0.150000
vertex 0.005610 0.006256 0.150000
endloop
endfacet
facet normal -0.008100 0.000000 0.999967
outer loop
vertex 0.005610 0.006256 0.150000
vertex 0.005546 0.006502 0.150000
vertex 0.005481 0.006734 0.150000
endloop
endfacet
facet normal 0.003342 0.000000 0.999994
outer loop
vertex 0.005481 0.006734 0.150000
vertex 0.005417 0.006950 0.150000
vertex 0.005353 0.007149 0.150000
endloop
endfacet
facet normal 0.000000 0.000000 1.000000
outer loop
vertex 0.005353 0.007149 0.150000
vertex 0.005289 0.007328 0.150000
vertex 0.005225 0.007487 0.150000
endloop
endfacet
facet normal -0.002478 0.000000 0.999997
outer loop
vertex 0.005225 0.007487 0.150000
vertex 0.005162 0.007624 0.150000
vertex 0.005098 0.007738 0.150000
endloop
endfacet
facet normal 0.000000 0.000000 1.000000
outer loop
vertex 0.005098 0.007738 0.150000
vertex 0.005035 0.007827 0.150000
vertex 0.004972 0.007889 0.150000
endloop
endfacet
facet normal -0.000709 0.000000 1.000000
outer loop
vertex 0.004972 0.007889 0.150000
vertex 0.004764 0.008035 0.150000
vertex 0.004689 0.008081 0.150000
endloop
endfacet
facet normal 0.000000 0.000000 1.000000
outer loop
vertex 0.004689 0.008081 0.150000
vertex 0.004612 0.008125 0.150000
vertex 0.004536 0.008165 0.150000
endloop
endfacet
facet normal 0.001854 0.000000 0.999998
outer loop
vertex 0.004536 0.008165 0.150000
vertex 0.004461 0.008201 0.150000
vertex 0.004320 0.008256 0.150000
endloop
endfacet
facet normal 0.001065 0.000000 0.999999
outer loop
vertex 0.004320 0.008256 0.150000
vertex 0.004255 0.008273 0.150000
vertex 0.004196 0.008282 0.150000
endloop
endfacet
facet normal 0.000000 0.000000 1.000000
outer loop
vertex 0.004196 0.008282 0.150000
vertex 0.004144 0.008282 0.150000
vertex 0.004080 0.008268 0.150000
endloop
endfacet
facet normal 0.000000 0.000000 1.000000
outer loop
vertex 0.004080 0.008268 0.150000
vertex 0.003988 0.008238 0.150000
vertex 0.002836 0.007732 0.150000
endloop
endfacet
facet normal 0.000000 0.000000 1.000000
outer loop
vertex 0.002836 0.007732 0.150000
vertex 0.001995 0.006685 0.150000
vertex 0.001153 0.005580 0.150000
endloop
endfacet
facet normal 0.000000 0.000000 1.000000
outer loop
vertex 0.001153 0.005580 0.150000
vertex 0.000903 0.005232 0.150000
vertex 0.000694 0.004922 0.150000
endloop
endfacet
facet normal -0.000752 0.000000 1.000000
outer loop
vertex 0.000694 0.004922 0.150000
vertex 0.000540 0.004665 0.150000
vertex 0.000353 0.004229 0.150000
endloop
endfacet
facet normal 0.000157 0.000000 1.000000
outer loop
vertex 0.001153 0.005580 0.150000
vertex 0.000694 0.004922 0.150000
vertex 0.000353 0.004229 0.150000
endloop
endfacet
facet normal -0.000033 0.000000 1.000000
outer loop
vertex 0.004080 0.008268 0.150000
vertex 0.002836 0.007732 0.150000
vertex 0.001153 0.005580 0.150000
endloop
endfacet
facet normal 0.000000 0.000000 1.000000
outer loop
vertex 0.004320 0.008256 0.150000
vertex 0.004196 0.008282 0.150000
vertex 0.004080 0.008268 0.150000
endloop
endfacet
facet normal 0.000000 0.000000 1.000000
outer loop
vertex 0.004689 0.008081 0.150000
vertex 0.004536 0.008165 0.150000
vertex 0.004320 0.008256 0.150000
endloop
endfacet
facet normal 0.000197 0.000000 1.000000
outer loop
vertex 0.005098 0.007738 0.150000
vertex 0.004972 0.007889 0.150000
vertex 0.004689 0.008081 0.150000
endloop
endfacet
facet normal 0.000000 0.000000 1.000000
outer loop
vertex 0.005353 0.007149 0.150000
vertex 0.005225 0.007487 0.150000
vertex 0.005098 0.007738 0.150000
endloop
endfacet
facet normal 0.000000 0.000000 1.000000
outer loop
vertex 0.005610 0.006256 0.150000
vertex 0.005481 0.006734 0.150000
vertex 0.005353 0.007149 0.150000
endloop
endfacet
facet normal 0.000000 0.000000 1.000000
outer loop
vertex 0.005822 0.005265 0.150000
vertex 0.005740 0.005726 0.150000
vertex 0.005610 0.006256 0.150000
endloop
endfacet
facet normal -0.000350 0.000000 1.000000
outer loop
vertex 0.005754 0.004712 0.150000
vertex 0.005821 0.004948 0.150000
vertex 0.005822 0.005265 0.150000
endloop
endfacet
facet normal -0.000232 0.000000 1.000000
outer loop
vertex 0.003062 0.000484 0.150000
vertex 0.005572 0.004379 0.150000
vertex 0.005754 0.004712 0.150000
endloop
endfacet
facet normal 0.000000 0.000000 1.000000
outer loop
vertex 0.000323 0.001313 0.150000
vertex 0.000501 0.001030 0.150000
vertex 0.003062 0.000484 0.150000
endloop
endfacet
facet normal -0.000588 0.000000 1.000000
outer loop
vertex 0.000131 0.001847 0.150000
vertex 0.000205 0.001577 0.150000
vertex 0.000323 0.001313 0.150000
endloop
endfacet
facet normal 0.003662 0.000000 0.999993
outer loop
vertex 0.000086 0.002148 0.150000
vertex 0.000106 0.001992 0.150000
vertex 0.000131 0.001847 0.150000
endloop
endfacet
facet normal 0.000000 0.000000 1.000000
outer loop
vertex 0.000052 0.002502 0.150000
vertex 0.000068 0.002316 0.150000
vertex 0.000086 0.002148 0.150000
endloop
endfacet
facet normal 0.000000 0.000000 1.000000
outer loop
vertex 0.000001 0.003156 0.150000
vertex 0.000015 0.002935 0.150000
vertex 0.000035 0.002707 0.150000
endloop
endfacet
facet normal 0.000000 0.000000 1.000000
outer loop
vertex 0.000035 0.002707 0.150000
vertex 0.000052 0.002502 0.150000
vertex 0.000086 0.002148 0.150000
endloop
endfacet
facet normal -0.000439 0.000000 1.000000
outer loop
vertex 0.000086 0.002148 0.150000
vertex 0.000131 0.001847 0.150000
vertex 0.000323 0.001313 0.150000
endloop
endfacet
facet normal 0.000008 0.000000 1.000000
outer loop
vertex 0.000323 0.001313 0.150000
vertex 0.003062 0.000484 0.150000
vertex 0.005754 0.004712 0.150000
endloop
endfacet
facet normal 0.000000 0.000000 1.000000
outer loop
vertex 0.005754 0.004712 0.150000
vertex 0.005822 0.005265 0.150000
vertex 0.005610 0.006256 0.150000
endloop
endfacet
facet normal 0.000192 0.000000 1.000000
outer loop
vertex 0.005610 0.006256 0.150000
vertex 0.005353 0.007149 0.150000
vertex 0.005098 0.007738 0.150000
endloop
endfacet
facet normal -0.000066 0.000000 1.000000
outer loop
vertex 0.005098 0.007738 0.150000
vertex 0.004689 0.008081 0.150000
vertex 0.004320 0.008256 0.150000
endloop
endfacet
facet normal 0.000086 0.000000 1.000000
outer loop
vertex 0.004320 0.008256 0.150000
vertex 0.004080 0.008268 0.150000
vertex 0.001153 0.005580 0.150000
endloop
endfacet
facet normal -0.000645 0.000000 1.000000
outer loop
vertex 0.001153 0.005580 0.150000
vertex 0.000353 0.004229 0.150000
vertex 0.000297 0.004127 0.150000
endloop
endfacet
facet normal -0.003930 0.000000 0.999992
outer loop
vertex 0.000240 0.004033 0.150000
vertex 0.000185 0.003942 0.150000
vertex 0.000133 0.003849 0.150000
endloop
endfacet
facet normal 0.000000 0.000000 1.000000
outer loop
vertex 0.004320 0.008256 0.150000
vertex 0.001153 0.005580 0.150000
vertex 0.000297 0.004127 0.150000
endloop
endfacet
facet normal -0.008526 0.000000 0.999964
outer loop
vertex 0.000297 0.004127 0.150000
vertex 0.000240 0.004033 0.150000
vertex 0.000133 0.003849 0.150000
endloop
endfacet
facet normal -0.002602 0.000000 0.999997
outer loop
vertex 0.000133 0.003849 0.150000
vertex 0.000087 0.003747 0.150000
vertex 0.000049 0.003633 0.150000
endloop
endfacet
facet normal 0.000000 0.000000 1.000000
outer loop
vertex 0.000049 0.003633 0.150000
vertex 0.000020 0.003499 0.150000
vertex 0.000003 0.003342 0.150000
endloop
endfacet
facet normal 0.000000 0.000000 1.000000
outer loop
vertex 0.000003 0.003342 0.150000
vertex 0.000001 0.003156 0.150000
vertex 0.000035 0.002707 0.150000
endloop
endfacet
facet normal 0.000000 0.000000 1.000000
outer loop
vertex 0.000035 0.002707 0.150000
vertex 0.000086 0.002148 0.150000
vertex 0.000323 0.001313 0.150000
endloop
endfacet
facet normal -0.000010 0.000000 1.000000
outer loop
vertex 0.000323 0.001313 0.150000
vertex 0.005754 0.004712 0.150000
vertex 0.005610 0.006256 0.150000
endloop
endfacet
facet normal 0.000000 0.000000 1.000000
outer loop
vertex 0.005610 0.006256 0.150000
vertex 0.005098 0.007738 0.150000
vertex 0.004320 0.008256 0.150000
endloop
endfacet
facet normal 0.000066 0.000000 1.000000
outer loop
vertex 0.004320 0.008256 0.150000
vertex 0.000297 0.004127 0.150000
vertex 0.000133 0.003849 0.150000
endloop
endfacet
facet normal 0.000491 0.000000 1.000000
outer loop
vertex 0.000133 0.003849 0.150000
vertex 0.000049 0.003633 0.150000
vertex 0.000003 0.003342 0.150000
endloop
endfacet
facet normal -0.000209 0.000000 1.000000
outer loop
vertex 0.000003 0.003342 0.150000
vertex 0.000035 0.002707 0.150000
vertex 0.000323 0.001313 0.150000
endloop
endfacet
facet normal -0.000003 0.000000 1.000000
outer loop
vertex 0.000323 0.001313 0.150000
vertex 0.005610 0.006256 0.150000
vertex 0.004320 0.008256 0.150000
endloop
endfacet
facet normal -0.000075 0.000000 1.000000
outer loop
vertex 0.004320 0.008256 0.150000
vertex 0.000133 0.003849 0.150000
vertex 0.000003 0.003342 0.150000
endloop
endfacet
facet normal 0.000017 0.000000 1.000000
outer loop
vertex 0.004320 0.008256 0.150000
vertex 0.000003 0.003342 0.150000
vertex 0.000323 0.001313 0.150000
endloop
endfacet
facet normal 0.725110 -0.688633 0.000000
outer loop
vertex 0.003838 0.000972 0.150000
vertex 0.003838 0.000972 0.000000
vertex 0.003985 0.001127 0.000000
endloop
endfacet
facet normal 0.725110 -0.688633 0.000000
outer loop
vertex 0.003838 0.000972 0.150000
vertex 0.003985 0.001127 0.000000
vertex 0.003985 0.001127 0.150000
endloop
endfacet
facet normal 0.940604 -0.339505 0.000000
outer loop
vertex 0.005754 0.004712 0.150000
vertex 0.005754 0.004712 0.000000
vertex 0.005794 0.004823 0.000000
endloop
endfacet
facet normal 0.940602 -0.339511 0.000000
outer loop
vertex 0.005754 0.004712 0.150000
vertex 0.005794 0.004823 0.000000
vertex 0.005794 0.004823 0.150000
endloop
endfacet
facet normal -0.768772 -0.639523 0.000000
outer loop
vertex 0.000940 0.000232 0.150000
vertex 0.000940 0.000232 0.000000
vertex 0.001015 0.000142 0.000000
endloop
endfacet
facet normal -0.768773 -0.639522 0.000000
outer loop
vertex 0.000940 0.000232 0.150000
vertex 0.001015 0.000142 0.000000
vertex 0.001015 0.000142 0.150000
endloop
endfacet
facet normal 0.573506 0.819201 0.000000
outer loop
vertex 0.004972 0.007889 0.000000
vertex 0.004764 0.008035 0.000000
vertex 0.004764 0.008035 0.150000
endloop
endfacet
facet normal 0.573506 0.819201 0.000000
outer loop
vertex 0.004972 0.007889 0.000000
vertex 0.004764 0.008035 0.150000
vertex 0.004972 0.007889 0.150000
endloop
endfacet
facet normal 0.978522 -0.206141 0.000000
outer loop
vertex 0.005794 0.004823 0.150000
vertex 0.005794 0.004823 0.000000
vertex 0.005821 0.004948 0.000000
endloop
endfacet
facet normal 0.978524 -0.206135 0.000000
outer loop
vertex 0.005794 0.004823 0.150000
vertex 0.005821 0.004948 0.000000
vertex 0.005821 0.004948 0.150000
endloop
endfacet
facet normal 0.365604 -0.930770 0.000000
outer loop
vertex 0.002608 0.000305 0.150000
vertex 0.002608 0.000305 0.000000
vertex 0.003062 0.000484 0.000000
endloop
endfacet
facet normal 0.365604 -0.930770 0.000000
outer loop
vertex 0.002608 0.000305 0.150000
vertex 0.003062 0.000484 0.000000
vertex 0.003062 0.000484 0.150000
endloop
endfacet
facet normal 0.000000 0.000000 1.000000
outer loop
vertex 0.002145 0.000161 0.000000
vertex 0.002376 0.000230 0.000000
vertex 0.002608 0.000305 0.000000
endloop
endfacet
facet normal 0.310982 -0.950416 0.000000
outer loop
vertex 0.002608 0.000305 0.000000
vertex 0.002608 0.000305 0.150000
vertex 0.002376 0.000230 0.150000
endloop
endfacet
facet normal 0.283619 -0.958937 -0.000047
outer loop
vertex 0.002608 0.000305 0.000000
vertex 0.002376 0.000230 0.150000
vertex 0.002145 0.000161 0.150000
endloop
endfacet
facet normal 0.000000 0.000000 1.000000
outer loop
vertex 0.001919 0.000100 0.000000
vertex 0.002145 0.000161 0.000000
vertex 0.002608 0.000305 0.000000
endloop
endfacet
facet normal 0.247180 -0.968970 0.000000
outer loop
vertex 0.001700 0.000044 0.150000
vertex 0.001700 0.000044 0.000000
vertex 0.001919 0.000100 0.000000
endloop
endfacet
facet normal 0.262405 -0.964958 -0.000118
outer loop
vertex 0.002608 0.000305 0.000000
vertex 0.002145 0.000161 0.150000
vertex 0.001919 0.000100 0.150000
endloop
endfacet
facet normal 0.247179 -0.968970 0.000000
outer loop
vertex 0.001919 0.000100 0.150000
vertex 0.001700 0.000044 0.150000
vertex 0.001919 0.000100 0.000000
endloop
endfacet
facet normal 0.286043 -0.958217 0.000000
outer loop
vertex 0.002608 0.000305 0.000000
vertex 0.001919 0.000100 0.150000
vertex 0.001919 0.000100 0.000000
endloop
endfacet
facet normal 0.814130 0.580682 0.000000
outer loop
vertex 0.005098 0.007738 0.150000
vertex 0.005098 0.007738 0.000000
vertex 0.005035 0.007827 0.000000
endloop
endfacet
facet normal 0.814134 0.580678 0.000000
outer loop
vertex 0.005098 0.007738 0.150000
vertex 0.005035 0.007827 0.000000
vertex 0.005035 0.007827 0.150000
endloop
endfacet
facet normal -0.167671 -0.985843 0.000000
outer loop
vertex 0.001212 0.000024 0.150000
vertex 0.001212 0.000024 0.000000
vertex 0.001344 0.000001 0.000000
endloop
endfacet
facet normal -0.167671 -0.985843 0.000000
outer loop
vertex 0.001212 0.000024 0.150000
vertex 0.001344 0.000001 0.000000
vertex 0.001344 0.000001 0.150000
endloop
endfacet
facet normal -0.999909 0.013466 0.000000
outer loop
vertex 0.000003 0.003342 0.150000
vertex 0.000003 0.003342 0.000000
vertex 0.000001 0.003156 0.000000
endloop
endfacet
facet normal -0.999909 0.013466 0.000000
outer loop
vertex 0.000003 0.003342 0.150000
vertex 0.000001 0.003156 0.000000
vertex 0.000001 0.003156 0.150000
endloop
endfacet
facet normal -0.829622 0.558325 0.000000
outer loop
vertex 0.000903 0.005232 0.000000
vertex 0.000694 0.004922 0.000000
vertex 0.000694 0.004922 0.150000
endloop
endfacet
facet normal -0.829623 0.558325 0.000000
outer loop
vertex 0.000903 0.005232 0.000000
vertex 0.000694 0.004922 0.150000
vertex 0.000903 0.005232 0.150000
endloop
endfacet
facet normal -0.813115 0.582104 0.000000
outer loop
vertex 0.001153 0.005580 0.000000
vertex 0.000903 0.005232 0.000000
vertex 0.000903 0.005232 0.150000
endloop
endfacet
facet normal -0.813115 0.582103 0.000000
outer loop
vertex 0.001153 0.005580 0.000000
vertex 0.000903 0.005232 0.150000
vertex 0.001153 0.005580 0.150000
endloop
endfacet
facet normal -0.779834 0.625986 0.000000
outer loop
vertex 0.002836 0.007732 0.150000
vertex 0.002836 0.007732 0.000000
vertex 0.001995 0.006685 0.000000
endloop
endfacet
facet normal -0.795053 0.606540 0.000000
outer loop
vertex 0.001995 0.006685 0.000000
vertex 0.001153 0.005580 0.000000
vertex 0.001153 0.005580 0.150000
endloop
endfacet
facet normal -0.779834 0.625986 0.000000
outer loop
vertex 0.001995 0.006685 0.150000
vertex 0.002836 0.007732 0.150000
vertex 0.001995 0.006685 0.000000
endloop
endfacet
facet normal -0.795053 0.606540 0.000000
outer loop
vertex 0.001153 0.005580 0.150000
vertex 0.001995 0.006685 0.150000
vertex 0.001995 0.006685 0.000000
endloop
endfacet
facet normal 0.885093 -0.465413 0.000000
outer loop
vertex 0.004881 0.002769 0.000000
vertex 0.004881 0.002769 0.150000
vertex 0.004107 0.001297 0.150000
endloop
endfacet
facet normal 0.885093 -0.465414 0.000000
outer loop
vertex 0.004881 0.002769 0.000000
vertex 0.004107 0.001297 0.150000
vertex 0.004107 0.001297 0.000000
endloop
endfacet
facet normal 0.702107 0.712071 0.000000
outer loop
vertex 0.005035 0.007827 0.150000
vertex 0.005035 0.007827 0.000000
vertex 0.004972 0.007889 0.000000
endloop
endfacet
facet normal 0.702098 0.712080 0.000000
outer loop
vertex 0.005035 0.007827 0.150000
vertex 0.004972 0.007889 0.000000
vertex 0.004972 0.007889 0.150000
endloop
endfacet
facet normal 0.361116 0.932521 0.000000
outer loop
vertex 0.004320 0.008256 0.000000
vertex 0.004320 0.008256 0.150000
vertex 0.004461 0.008201 0.150000
endloop
endfacet
facet normal 0.361116 0.932521 0.000000
outer loop
vertex 0.004320 0.008256 0.000000
vertex 0.004461 0.008201 0.150000
vertex 0.004461 0.008201 0.000000
endloop
endfacet
facet normal 0.256125 0.966644 0.000000
outer loop
vertex 0.004320 0.008256 0.150000
vertex 0.004320 0.008256 0.000000
vertex 0.004255 0.008273 0.000000
endloop
endfacet
facet normal 0.256128 0.966643 0.000000
outer loop
vertex 0.004320 0.008256 0.150000
vertex 0.004255 0.008273 0.000000
vertex 0.004255 0.008273 0.150000
endloop
endfacet
facet normal 0.997673 -0.068182 0.000000
outer loop
vertex 0.005821 0.004948 0.150000
vertex 0.005821 0.004948 0.000000
vertex 0.005830 0.005092 0.000000
endloop
endfacet
facet normal 0.997673 -0.068187 0.000000
outer loop
vertex 0.005821 0.004948 0.150000
vertex 0.005830 0.005092 0.000000
vertex 0.005830 0.005092 0.150000
endloop
endfacet
facet normal -0.211965 0.977277 0.000000
outer loop
vertex 0.004144 0.008282 0.150000
vertex 0.004144 0.008282 0.000000
vertex 0.004080 0.008268 0.000000
endloop
endfacet
facet normal -0.211962 0.977278 0.000000
outer loop
vertex 0.004144 0.008282 0.150000
vertex 0.004080 0.008268 0.000000
vertex 0.004080 0.008268 0.150000
endloop
endfacet
facet normal 0.990159 0.139944 0.000000
outer loop
vertex 0.005822 0.005265 0.150000
vertex 0.005822 0.005265 0.000000
vertex 0.005792 0.005474 0.000000
endloop
endfacet
facet normal 0.990160 0.139941 0.000000
outer loop
vertex 0.005822 0.005265 0.150000
vertex 0.005792 0.005474 0.000000
vertex 0.005792 0.005474 0.150000
endloop
endfacet
facet normal -0.000357 1.000000 0.000000
outer loop
vertex 0.004196 0.008282 0.150000
vertex 0.004196 0.008282 0.000000
vertex 0.004144 0.008282 0.000000
endloop
endfacet
facet normal -0.000357 1.000000 0.000000
outer loop
vertex 0.004196 0.008282 0.150000
vertex 0.004144 0.008282 0.000000
vertex 0.004144 0.008282 0.150000
endloop
endfacet
facet normal 0.639980 -0.768392 0.000000
outer loop
vertex 0.003669 0.000831 0.150000
vertex 0.003669 0.000831 0.000000
vertex 0.003838 0.000972 0.000000
endloop
endfacet
facet normal 0.639980 -0.768392 0.000000
outer loop
vertex 0.003669 0.000831 0.150000
vertex 0.003838 0.000972 0.000000
vertex 0.003838 0.000972 0.150000
endloop
endfacet
facet normal -0.964706 -0.263328 0.000000
outer loop
vertex 0.000131 0.001847 0.000000
vertex 0.000205 0.001577 0.000000
vertex 0.000205 0.001577 0.150000
endloop
endfacet
facet normal -0.964706 -0.263328 0.000000
outer loop
vertex 0.000131 0.001847 0.000000
vertex 0.000205 0.001577 0.150000
vertex 0.000131 0.001847 0.150000
endloop
endfacet
facet normal -0.913210 -0.407490 0.000000
outer loop
vertex 0.000205 0.001577 0.150000
vertex 0.000205 0.001577 0.000000
vertex 0.000323 0.001313 0.000000
endloop
endfacet
facet normal -0.913210 -0.407490 0.000000
outer loop
vertex 0.000205 0.001577 0.150000
vertex 0.000323 0.001313 0.000000
vertex 0.000323 0.001313 0.150000
endloop
endfacet
facet normal 0.185255 -0.982690 0.000000
outer loop
vertex 0.001505 0.000007 0.150000
vertex 0.001505 0.000007 0.000000
vertex 0.001700 0.000044 0.000000
endloop
endfacet
facet normal 0.185255 -0.982690 0.000000
outer loop
vertex 0.001505 0.000007 0.150000
vertex 0.001700 0.000044 0.000000
vertex 0.001700 0.000044 0.150000
endloop
endfacet
facet normal -0.994469 0.105033 0.000000
outer loop
vertex 0.000020 0.003499 0.150000
vertex 0.000020 0.003499 0.000000
vertex 0.000003 0.003342 0.000000
endloop
endfacet
facet normal -0.994469 0.105033 0.000000
outer loop
vertex 0.000020 0.003499 0.150000
vertex 0.000003 0.003342 0.000000
vertex 0.000003 0.003342 0.150000
endloop
endfacet
facet normal 0.903261 -0.429091 0.000000
outer loop
vertex 0.005422 0.004082 0.000000
vertex 0.005498 0.004243 0.000000
vertex 0.005498 0.004243 0.150000
endloop
endfacet
facet normal 0.903260 -0.429095 0.000000
outer loop
vertex 0.005422 0.004082 0.000000
vertex 0.005498 0.004243 0.150000
vertex 0.005422 0.004082 0.150000
endloop
endfacet
facet normal 0.929378 -0.369128 0.000000
outer loop
vertex 0.005345 0.003889 0.000000
vertex 0.005422 0.004082 0.000000
vertex 0.005422 0.004082 0.150000
endloop
endfacet
facet normal 0.929378 -0.369128 0.000000
outer loop
vertex 0.005345 0.003889 0.000000
vertex 0.005422 0.004082 0.150000
vertex 0.005345 0.003889 0.150000
endloop
endfacet
facet normal 0.937354 -0.348378 0.000000
outer loop
vertex 0.005265 0.003673 0.000000
vertex 0.005345 0.003889 0.000000
vertex 0.005345 0.003889 0.150000
endloop
endfacet
facet normal 0.937355 -0.348375 0.000000
outer loop
vertex 0.005265 0.003673 0.000000
vertex 0.005345 0.003889 0.150000
vertex 0.005265 0.003673 0.150000
endloop
endfacet
facet normal 0.930266 -0.366885 0.000000
outer loop
vertex 0.005177 0.003451 0.000000
vertex 0.005265 0.003673 0.000000
vertex 0.005265 0.003673 0.150000
endloop
endfacet
facet normal 0.930266 -0.366885 0.000000
outer loop
vertex 0.005177 0.003451 0.000000
vertex 0.005265 0.003673 0.150000
vertex 0.005177 0.003451 0.150000
endloop
endfacet
facet normal 0.923580 -0.383405 0.000000
outer loop
vertex 0.005084 0.003225 0.000000
vertex 0.005177 0.003451 0.000000
vertex 0.005177 0.003451 0.150000
endloop
endfacet
facet normal 0.923580 -0.383405 0.000000
outer loop
vertex 0.005084 0.003225 0.000000
vertex 0.005177 0.003451 0.150000
vertex 0.005084 0.003225 0.150000
endloop
endfacet
facet normal 0.910938 -0.412543 0.000000
outer loop
vertex 0.004881 0.002769 0.150000
vertex 0.004881 0.002769 0.000000
vertex 0.004984 0.002997 0.000000
endloop
endfacet
facet normal 0.917177 -0.398481 0.000000
outer loop
vertex 0.004984 0.002997 0.000000
vertex 0.005084 0.003225 0.000000
vertex 0.005084 0.003225 0.150000
endloop
endfacet
facet normal 0.910937 -0.412546 0.000000
outer loop
vertex 0.004984 0.002997 0.150000
vertex 0.004881 0.002769 0.150000
vertex 0.004984 0.002997 0.000000
endloop
endfacet
facet normal 0.917177 -0.398481 0.000000
outer loop
vertex 0.005084 0.003225 0.150000
vertex 0.004984 0.002997 0.150000
vertex 0.004984 0.002997 0.000000
endloop
endfacet
facet normal 0.873230 0.487309 0.000000
outer loop
vertex 0.005162 0.007624 0.150000
vertex 0.005162 0.007624 0.000000
vertex 0.005098 0.007738 0.000000
endloop
endfacet
facet normal 0.873227 0.487313 0.000000
outer loop
vertex 0.005162 0.007624 0.150000
vertex 0.005098 0.007738 0.000000
vertex 0.005098 0.007738 0.150000
endloop
endfacet
facet normal 0.000000 0.000000 1.000000
outer loop
vertex 0.005675 0.005997 0.000000
vertex 0.005610 0.006256 0.000000
vertex 0.005546 0.006502 0.000000
endloop
endfacet
facet normal 0.000000 0.000000 1.000000
outer loop
vertex 0.005546 0.006502 0.000000
vertex 0.005481 0.006734 0.000000
vertex 0.005417 0.006950 0.000000
endloop
endfacet
facet normal 0.951631 0.307243 0.000000
outer loop
vertex 0.005417 0.006950 0.000000
vertex 0.005353 0.007149 0.000000
vertex 0.005353 0.007149 0.150000
endloop
endfacet
facet normal 0.951630 0.307246 0.000000
outer loop
vertex 0.005417 0.006950 0.000000
vertex 0.005353 0.007149 0.150000
vertex 0.005417 0.006950 0.150000
endloop
endfacet
facet normal 0.000000 0.000000 1.000000
outer loop
vertex 0.005675 0.005997 0.000000
vertex 0.005546 0.006502 0.000000
vertex 0.005417 0.006950 0.000000
endloop
endfacet
facet normal 0.000000 0.000000 1.000000
outer loop
vertex 0.005792 0.005474 0.000000
vertex 0.005740 0.005726 0.000000
vertex 0.005675 0.005997 0.000000
endloop
endfacet
facet normal 0.978908 0.204302 0.000000
outer loop
vertex 0.005740 0.005726 0.150000
vertex 0.005792 0.005474 0.150000
vertex 0.005792 0.005474 0.000000
endloop
endfacet
facet normal 0.972543 0.232724 -0.000050
outer loop
vertex 0.005675 0.005997 0.150000
vertex 0.005740 0.005726 0.150000
vertex 0.005792 0.005474 0.000000
endloop
endfacet
facet normal 0.000000 0.000000 1.000000
outer loop
vertex 0.005792 0.005474 0.000000
vertex 0.005675 0.005997 0.000000
vertex 0.005417 0.006950 0.000000
endloop
endfacet
facet normal 0.958491 0.285123 0.000000
outer loop
vertex 0.005417 0.006950 0.000000
vertex 0.005417 0.006950 0.150000
vertex 0.005481 0.006734 0.150000
endloop
endfacet
facet normal 0.963550 0.267530 -0.000028
outer loop
vertex 0.005417 0.006950 0.000000
vertex 0.005481 0.006734 0.150000
vertex 0.005546 0.006502 0.150000
endloop
endfacet
facet normal 0.969186 0.246328 -0.000100
outer loop
vertex 0.005675 0.005997 0.150000
vertex 0.005792 0.005474 0.000000
vertex 0.005417 0.006950 0.000000
endloop
endfacet
facet normal 0.967367 0.253381 -0.000073
outer loop
vertex 0.005417 0.006950 0.000000
vertex 0.005546 0.006502 0.150000
vertex 0.005610 0.006256 0.150000
endloop
endfacet
facet normal 0.970287 0.241955 -0.000130
outer loop
vertex 0.005417 0.006950 0.000000
vertex 0.005610 0.006256 0.150000
vertex 0.005675 0.005997 0.150000
endloop
endfacet
facet normal 0.035759 -0.999361 0.000000
outer loop
vertex 0.001344 0.000001 0.150000
vertex 0.001344 0.000001 0.000000
vertex 0.001505 0.000007 0.000000
endloop
endfacet
facet normal 0.035759 -0.999361 0.000000
outer loop
vertex 0.001344 0.000001 0.150000
vertex 0.001505 0.000007 0.000000
vertex 0.001505 0.000007 0.150000
endloop
endfacet
facet normal -0.402474 0.915431 0.000000
outer loop
vertex 0.003988 0.008238 0.000000
vertex 0.002836 0.007732 0.000000
vertex 0.002836 0.007732 0.150000
endloop
endfacet
facet normal -0.402474 0.915431 0.000000
outer loop
vertex 0.003988 0.008238 0.000000
vertex 0.002836 0.007732 0.150000
vertex 0.003988 0.008238 0.150000
endloop
endfacet
facet normal -0.310204 0.950670 0.000000
outer loop
vertex 0.004080 0.008268 0.150000
vertex 0.004080 0.008268 0.000000
vertex 0.003988 0.008238 0.000000
endloop
endfacet
facet normal -0.310204 0.950670 0.000000
outer loop
vertex 0.004080 0.008268 0.150000
vertex 0.003988 0.008238 0.000000
vertex 0.003988 0.008238 0.150000
endloop
endfacet
facet normal -0.977770 0.209681 0.000000
outer loop
vertex 0.000049 0.003633 0.150000
vertex 0.000049 0.003633 0.000000
vertex 0.000020 0.003499 0.000000
endloop
endfacet
facet normal -0.977770 0.209681 0.000000
outer loop
vertex 0.000049 0.003633 0.150000
vertex 0.000020 0.003499 0.000000
vertex 0.000020 0.003499 0.150000
endloop
endfacet
facet normal 0.151069 0.988523 0.000000
outer loop
vertex 0.004255 0.008273 0.150000
vertex 0.004255 0.008273 0.000000
vertex 0.004196 0.008282 0.000000
endloop
endfacet
facet normal 0.151071 0.988523 0.000000
outer loop
vertex 0.004255 0.008273 0.150000
vertex 0.004196 0.008282 0.000000
vertex 0.004196 0.008282 0.150000
endloop
endfacet
facet normal 0.000000 0.000000 -1.000000
outer loop
vertex 0.000297 0.004127 0.000000
vertex 0.000240 0.004033 0.000000
vertex 0.000185 0.003942 0.000000
endloop
endfacet
facet normal -0.874715 0.484637 0.000000
outer loop
vertex 0.000185 0.003942 0.000000
vertex 0.000133 0.003849 0.000000
vertex 0.000133 0.003849 0.150000
endloop
endfacet
facet normal -0.874716 0.484637 0.000000
outer loop
vertex 0.000185 0.003942 0.000000
vertex 0.000133 0.003849 0.150000
vertex 0.000185 0.003942 0.150000
endloop
endfacet
facet normal 0.000000 0.000000 -1.000000
outer loop
vertex 0.000353 0.004229 0.000000
vertex 0.000297 0.004127 0.000000
vertex 0.000185 0.003942 0.000000
endloop
endfacet
facet normal -0.876049 0.482222 0.000000
outer loop
vertex 0.000297 0.004127 0.150000
vertex 0.000353 0.004229 0.150000
vertex 0.000353 0.004229 0.000000
endloop
endfacet
facet normal -0.854310 0.519764 0.000000
outer loop
vertex 0.000185 0.003942 0.000000
vertex 0.000185 0.003942 0.150000
vertex 0.000240 0.004033 0.150000
endloop
endfacet
facet normal -0.855416 0.517941 0.000032
outer loop
vertex 0.000240 0.004033 0.150000
vertex 0.000297 0.004127 0.150000
vertex 0.000353 0.004229 0.000000
endloop
endfacet
facet normal -0.862457 0.506131 0.000011
outer loop
vertex 0.000185 0.003942 0.000000
vertex 0.000240 0.004033 0.150000
vertex 0.000353 0.004229 0.000000
endloop
endfacet
endsolid Exported from Blender-3.6.8
