solid Exported from Blender-3.6.8
facet normal 0.081338 -0.996687 0.000000
outer loop
vertex 0.004936 0.000027 0.000000
vertex 0.004936 0.000027 0.150000
vertex 0.004612 0.000000 0.150000
endloop
endfacet
facet normal 0.081338 -0.996687 0.000000
outer loop
vertex 0.004936 0.000027 0.000000
vertex 0.004612 0.000000 0.150000
vertex 0.004612 0.000000 0.000000
endloop
endfacet
facet normal -0.001987 0.000000 0.999998
outer loop
vertex 0.008559 0.002816 0.150000
vertex 0.008599 0.002995 0.150000
vertex 0.008623 0.003200 0.150000
endloop
endfacet
facet normal 0.000000 0.000000 1.000000
outer loop
vertex 0.008623 0.003200 0.150000
vertex 0.008622 0.003714 0.150000
vertex 0.008469 0.005341 0.150000
endloop
endfacet
facet normal -0.003735 0.000000 0.999993
outer loop
vertex 0.008469 0.005341 0.150000
vertex 0.008447 0.005533 0.150000
vertex 0.008421 0.005715 0.150000
endloop
endfacet
facet normal -0.002532 0.000000 0.999997
outer loop
vertex 0.008421 0.005715 0.150000
vertex 0.008390 0.005891 0.150000
vertex 0.008350 0.006068 0.150000
endloop
endfacet
facet normal -0.002107 0.000000 0.999998
outer loop
vertex 0.008350 0.006068 0.150000
vertex 0.008300 0.006251 0.150000
vertex 0.008237 0.006445 0.150000
endloop
endfacet
facet normal -0.001152 0.000000 0.999999
outer loop
vertex 0.008237 0.006445 0.150000
vertex 0.007936 0.007257 0.150000
vertex 0.007869 0.007429 0.150000
endloop
endfacet
facet normal 0.000000 0.000000 1.000000
outer loop
vertex 0.007869 0.007429 0.150000
vertex 0.007800 0.007585 0.150000
vertex 0.007727 0.007723 0.150000
endloop
endfacet
facet normal 0.001342 0.000000 0.999999
outer loop
vertex 0.007727 0.007723 0.150000
vertex 0.007648 0.007842 0.150000
vertex 0.007560 0.007942 0.150000
endloop
endfacet
facet normal 0.000530 0.000000 1.000000
outer loop
vertex 0.007560 0.007942 0.150000
vertex 0.007459 0.008020 0.150000
vertex 0.007343 0.008075 0.150000
endloop
endfacet
facet normal -0.000057 0.000000 1.000000
outer loop
vertex 0.007343 0.008075 0.150000
vertex 0.007209 0.008107 0.150000
vertex 0.007055 0.008114 0.150000
endloop
endfacet
facet normal 0.000299 0.000000 1.000000
outer loop
vertex 0.007055 0.008114 0.150000
vertex 0.006496 0.008096 0.150000
vertex 0.006290 0.008088 0.150000
endloop
endfacet
facet normal 0.000000 0.000000 1.000000
outer loop
vertex 0.006290 0.008088 0.150000
vertex 0.006080 0.008078 0.150000
vertex 0.005869 0.008065 0.150000
endloop
endfacet
facet normal 0.000000 0.000000 1.000000
outer loop
vertex 0.005869 0.008065 0.150000
vertex 0.005660 0.008048 0.150000
vertex 0.005457 0.008028 0.150000
endloop
endfacet
facet normal 0.000142 0.000000 1.000000
outer loop
vertex 0.005457 0.008028 0.150000
vertex 0.005081 0.007972 0.150000
vertex 0.004768 0.007891 0.150000
endloop
endfacet
facet normal -0.000373 0.000000 1.000000
outer loop
vertex 0.004768 0.007891 0.150000
vertex 0.004250 0.007689 0.150000
vertex 0.004027 0.007583 0.150000
endloop
endfacet
facet normal 0.000000 0.000000 1.000000
outer loop
vertex 0.004027 0.007583 0.150000
vertex 0.003928 0.007530 0.150000
vertex 0.003840 0.007478 0.150000
endloop
endfacet
facet normal -0.001035 0.000000 0.999999
outer loop
vertex 0.003840 0.007478 0.150000
vertex 0.003697 0.007375 0.150000
vertex 0.003646 0.007325 0.150000
endloop
endfacet
facet normal 0.000461 0.000000 1.000000
outer loop
vertex 0.003840 0.007478 0.150000
vertex 0.003646 0.007325 0.150000
vertex 0.003570 0.007225 0.150000
endloop
endfacet
facet normal 0.000000 0.000000 1.000000
outer loop
vertex 0.004768 0.007891 0.150000
vertex 0.004027 0.007583 0.150000
vertex 0.003840 0.007478 0.150000
endloop
endfacet
facet normal 0.000000 0.000000 1.000000
outer loop
vertex 0.005869 0.008065 0.150000
vertex 0.005457 0.008028 0.150000
vertex 0.004768 0.007891 0.150000
endloop
endfacet
facet normal -0.000068 0.000000 1.000000
outer loop
vertex 0.007055 0.008114 0.150000
vertex 0.006290 0.008088 0.150000
vertex 0.005869 0.008065 0.150000
endloop
endfacet
facet normal -0.000061 0.000000 1.000000
outer loop
vertex 0.007560 0.007942 0.150000
vertex 0.007343 0.008075 0.150000
vertex 0.007055 0.008114 0.150000
endloop
endfacet
facet normal -0.000394 0.000000 1.000000
outer loop
vertex 0.007869 0.007429 0.150000
vertex 0.007727 0.007723 0.150000
vertex 0.007560 0.007942 0.150000
endloop
endfacet
facet normal 0.001053 0.000000 0.999999
outer loop
vertex 0.008350 0.006068 0.150000
vertex 0.008237 0.006445 0.150000
vertex 0.007869 0.007429 0.150000
endloop
endfacet
facet normal 0.000000 0.000000 1.000000
outer loop
vertex 0.008469 0.005341 0.150000
vertex 0.008421 0.005715 0.150000
vertex 0.008350 0.006068 0.150000
endloop
endfacet
facet normal 0.000297 0.000000 1.000000
outer loop
vertex 0.008559 0.002816 0.150000
vertex 0.008623 0.003200 0.150000
vertex 0.008469 0.005341 0.150000
endloop
endfacet
facet normal -0.001404 0.000000 0.999999
outer loop
vertex 0.008443 0.002513 0.150000
vertex 0.008507 0.002658 0.150000
vertex 0.008559 0.002816 0.150000
endloop
endfacet
facet normal 0.000000 0.000000 1.000000
outer loop
vertex 0.007780 0.001488 0.150000
vertex 0.007896 0.001633 0.150000
vertex 0.008443 0.002513 0.150000
endloop
endfacet
facet normal 0.000419 0.000000 1.000000
outer loop
vertex 0.007366 0.001130 0.150000
vertex 0.007653 0.001358 0.150000
vertex 0.007780 0.001488 0.150000
endloop
endfacet
facet normal -0.001975 0.000000 0.999998
outer loop
vertex 0.007031 0.000929 0.150000
vertex 0.007205 0.001028 0.150000
vertex 0.007366 0.001130 0.150000
endloop
endfacet
facet normal 0.000971 0.000000 1.000000
outer loop
vertex 0.005728 0.000274 0.150000
vertex 0.006845 0.000831 0.150000
vertex 0.007031 0.000929 0.150000
endloop
endfacet
facet normal 0.000154 0.000000 1.000000
outer loop
vertex 0.004936 0.000027 0.150000
vertex 0.005303 0.000112 0.150000
vertex 0.005728 0.000274 0.150000
endloop
endfacet
facet normal 0.000000 0.000000 1.000000
outer loop
vertex 0.004318 0.000013 0.150000
vertex 0.004612 0.000000 0.150000
vertex 0.004936 0.000027 0.150000
endloop
endfacet
facet normal -0.002218 0.000000 0.999998
outer loop
vertex 0.004039 0.000046 0.150000
vertex 0.004177 0.000028 0.150000
vertex 0.004318 0.000013 0.150000
endloop
endfacet
facet normal 0.000000 0.000000 1.000000
outer loop
vertex 0.003744 0.000087 0.150000
vertex 0.003901 0.000065 0.150000
vertex 0.004039 0.000046 0.150000
endloop
endfacet
facet normal 0.000000 0.000000 1.000000
outer loop
vertex 0.003335 0.000158 0.150000
vertex 0.003554 0.000118 0.150000
vertex 0.003744 0.000087 0.150000
endloop
endfacet
facet normal 0.001050 0.000000 0.999999
outer loop
vertex 0.002832 0.000260 0.150000
vertex 0.003093 0.000205 0.150000
vertex 0.003335 0.000158 0.150000
endloop
endfacet
facet normal 0.000000 0.000000 1.000000
outer loop
vertex 0.002272 0.000389 0.150000
vertex 0.002557 0.000321 0.150000
vertex 0.002832 0.000260 0.150000
endloop
endfacet
facet normal 0.000000 0.000000 1.000000
outer loop
vertex 0.001695 0.000540 0.150000
vertex 0.001984 0.000462 0.150000
vertex 0.002272 0.000389 0.150000
endloop
endfacet
facet normal 0.000000 0.000000 1.000000
outer loop
vertex 0.001139 0.000710 0.150000
vertex 0.001412 0.000623 0.150000
vertex 0.001695 0.000540 0.150000
endloop
endfacet
facet normal -0.000391 0.000000 1.000000
outer loop
vertex 0.000490 0.000972 0.150000
vertex 0.000881 0.000800 0.150000
vertex 0.001139 0.000710 0.150000
endloop
endfacet
facet normal 0.000633 0.000000 1.000000
outer loop
vertex 0.000273 0.001134 0.150000
vertex 0.000363 0.001054 0.150000
vertex 0.000490 0.000972 0.150000
endloop
endfacet
facet normal -0.000903 0.000000 1.000000
outer loop
vertex 0.000175 0.001300 0.150000
vertex 0.000212 0.001216 0.150000
vertex 0.000273 0.001134 0.150000
endloop
endfacet
facet normal -0.001172 0.000000 0.999999
outer loop
vertex 0.000109 0.001703 0.150000
vertex 0.000153 0.001389 0.150000
vertex 0.000175 0.001300 0.150000
endloop
endfacet
facet normal 0.000000 0.000000 1.000000
outer loop
vertex 0.000000 0.002161 0.150000
vertex 0.000030 0.001969 0.150000
vertex 0.000079 0.001829 0.150000
endloop
endfacet
facet normal 0.000381 0.000000 1.000000
outer loop
vertex 0.000109 0.001703 0.150000
vertex 0.000175 0.001300 0.150000
vertex 0.000273 0.001134 0.150000
endloop
endfacet
facet normal 0.000000 0.000000 1.000000
outer loop
vertex 0.000028 0.002428 0.150000
vertex 0.000000 0.002161 0.150000
vertex 0.000079 0.001829 0.150000
endloop
endfacet
facet normal -0.004109 0.000000 0.999992
outer loop
vertex 0.000079 0.001829 0.150000
vertex 0.000109 0.001703 0.150000
vertex 0.000273 0.001134 0.150000
endloop
endfacet
facet normal 0.000151 0.000000 1.000000
outer loop
vertex 0.000273 0.001134 0.150000
vertex 0.000490 0.000972 0.150000
vertex 0.001139 0.000710 0.150000
endloop
endfacet
facet normal 0.000000 0.000000 1.000000
outer loop
vertex 0.001139 0.000710 0.150000
vertex 0.001695 0.000540 0.150000
vertex 0.002272 0.000389 0.150000
endloop
endfacet
facet normal 0.000000 0.000000 1.000000
outer loop
vertex 0.002272 0.000389 0.150000
vertex 0.002832 0.000260 0.150000
vertex 0.003335 0.000158 0.150000
endloop
endfacet
facet normal 0.000213 0.000000 1.000000
outer loop
vertex 0.003335 0.000158 0.150000
vertex 0.003744 0.000087 0.150000
vertex 0.004039 0.000046 0.150000
endloop
endfacet
facet normal 0.000019 0.000000 1.000000
outer loop
vertex 0.004039 0.000046 0.150000
vertex 0.004318 0.000013 0.150000
vertex 0.004936 0.000027 0.150000
endloop
endfacet
facet normal 0.000000 0.000000 1.000000
outer loop
vertex 0.004936 0.000027 0.150000
vertex 0.005728 0.000274 0.150000
vertex 0.007031 0.000929 0.150000
endloop
endfacet
facet normal 0.000000 0.000000 1.000000
outer loop
vertex 0.007031 0.000929 0.150000
vertex 0.007366 0.001130 0.150000
vertex 0.007780 0.001488 0.150000
endloop
endfacet
facet normal 0.000000 0.000000 1.000000
outer loop
vertex 0.007780 0.001488 0.150000
vertex 0.008443 0.002513 0.150000
vertex 0.008559 0.002816 0.150000
endloop
endfacet
facet normal -0.000062 0.000000 1.000000
outer loop
vertex 0.008559 0.002816 0.150000
vertex 0.008469 0.005341 0.150000
vertex 0.008350 0.006068 0.150000
endloop
endfacet
facet normal -0.000167 0.000000 1.000000
outer loop
vertex 0.008350 0.006068 0.150000
vertex 0.007869 0.007429 0.150000
vertex 0.007560 0.007942 0.150000
endloop
endfacet
facet normal -0.000004 0.000000 1.000000
outer loop
vertex 0.007560 0.007942 0.150000
vertex 0.007055 0.008114 0.150000
vertex 0.005869 0.008065 0.150000
endloop
endfacet
facet normal 0.000050 0.000000 1.000000
outer loop
vertex 0.005869 0.008065 0.150000
vertex 0.004768 0.007891 0.150000
vertex 0.003840 0.007478 0.150000
endloop
endfacet
facet normal -0.000967 0.000000 1.000000
outer loop
vertex 0.003840 0.007478 0.150000
vertex 0.003570 0.007225 0.150000
vertex 0.003448 0.007097 0.150000
endloop
endfacet
facet normal 0.000000 0.000000 1.000000
outer loop
vertex 0.005869 0.008065 0.150000
vertex 0.003840 0.007478 0.150000
vertex 0.003448 0.007097 0.150000
endloop
endfacet
facet normal 0.000000 0.000000 1.000000
outer loop
vertex 0.008350 0.006068 0.150000
vertex 0.007560 0.007942 0.150000
vertex 0.005869 0.008065 0.150000
endloop
endfacet
facet normal 0.000000 0.000000 1.000000
outer loop
vertex 0.007780 0.001488 0.150000
vertex 0.008559 0.002816 0.150000
vertex 0.008350 0.006068 0.150000
endloop
endfacet
facet normal -0.000029 0.000000 1.000000
outer loop
vertex 0.004936 0.000027 0.150000
vertex 0.007031 0.000929 0.150000
vertex 0.007780 0.001488 0.150000
endloop
endfacet
facet normal -0.000016 0.000000 1.000000
outer loop
vertex 0.003335 0.000158 0.150000
vertex 0.004039 0.000046 0.150000
vertex 0.004936 0.000027 0.150000
endloop
endfacet
facet normal 0.000000 0.000000 1.000000
outer loop
vertex 0.001139 0.000710 0.150000
vertex 0.002272 0.000389 0.150000
vertex 0.003335 0.000158 0.150000
endloop
endfacet
facet normal 0.000028 0.000000 1.000000
outer loop
vertex 0.000079 0.001829 0.150000
vertex 0.000273 0.001134 0.150000
vertex 0.001139 0.000710 0.150000
endloop
endfacet
facet normal 0.000000 0.000000 1.000000
outer loop
vertex 0.000215 0.003117 0.150000
vertex 0.000028 0.002428 0.150000
vertex 0.000079 0.001829 0.150000
endloop
endfacet
facet normal 0.000000 0.000000 1.000000
outer loop
vertex 0.000507 0.003897 0.150000
vertex 0.000353 0.003504 0.150000
vertex 0.000215 0.003117 0.150000
endloop
endfacet
facet normal 0.000000 0.000000 1.000000
outer loop
vertex 0.000819 0.004627 0.150000
vertex 0.000665 0.004277 0.150000
vertex 0.000507 0.003897 0.150000
endloop
endfacet
facet normal 0.000000 0.000000 1.000000
outer loop
vertex 0.001067 0.005169 0.150000
vertex 0.000956 0.004931 0.150000
vertex 0.000819 0.004627 0.150000
endloop
endfacet
facet normal 0.049667 0.000000 0.998766
outer loop
vertex 0.001169 0.005380 0.150000
vertex 0.001142 0.005324 0.150000
vertex 0.001067 0.005169 0.150000
endloop
endfacet
facet normal 0.000000 0.000000 1.000000
outer loop
vertex 0.001481 0.005584 0.150000
vertex 0.001169 0.005380 0.150000
vertex 0.001067 0.005169 0.150000
endloop
endfacet
facet normal 0.000000 0.000000 1.000000
outer loop
vertex 0.001067 0.005169 0.150000
vertex 0.000819 0.004627 0.150000
vertex 0.000507 0.003897 0.150000
endloop
endfacet
facet normal 0.000000 0.000000 1.000000
outer loop
vertex 0.000507 0.003897 0.150000
vertex 0.000215 0.003117 0.150000
vertex 0.000079 0.001829 0.150000
endloop
endfacet
facet normal -0.000023 0.000000 1.000000
outer loop
vertex 0.000079 0.001829 0.150000
vertex 0.001139 0.000710 0.150000
vertex 0.003335 0.000158 0.150000
endloop
endfacet
facet normal 0.000000 0.000000 1.000000
outer loop
vertex 0.003335 0.000158 0.150000
vertex 0.004936 0.000027 0.150000
vertex 0.007780 0.001488 0.150000
endloop
endfacet
facet normal 0.000000 0.000000 1.000000
outer loop
vertex 0.007780 0.001488 0.150000
vertex 0.008350 0.006068 0.150000
vertex 0.005869 0.008065 0.150000
endloop
endfacet
facet normal 0.000000 0.000000 1.000000
outer loop
vertex 0.005869 0.008065 0.150000
vertex 0.003448 0.007097 0.150000
vertex 0.003373 0.007027 0.150000
endloop
endfacet
facet normal -0.000114 0.000000 1.000000
outer loop
vertex 0.005869 0.008065 0.150000
vertex 0.003373 0.007027 0.150000
vertex 0.003292 0.006955 0.150000
endloop
endfacet
facet normal 0.000000 0.000000 1.000000
outer loop
vertex 0.003335 0.000158 0.150000
vertex 0.007780 0.001488 0.150000
vertex 0.005869 0.008065 0.150000
endloop
endfacet
facet normal 0.000008 0.000000 1.000000
outer loop
vertex 0.000507 0.003897 0.150000
vertex 0.000079 0.001829 0.150000
vertex 0.003335 0.000158 0.150000
endloop
endfacet
facet normal 0.000000 0.000000 1.000000
outer loop
vertex 0.001481 0.005584 0.150000
vertex 0.001067 0.005169 0.150000
vertex 0.000507 0.003897 0.150000
endloop
endfacet
facet normal 0.000000 0.000000 1.000000
outer loop
vertex 0.001803 0.005802 0.150000
vertex 0.001481 0.005584 0.150000
vertex 0.000507 0.003897 0.150000
endloop
endfacet
facet normal 0.000000 0.000000 1.000000
outer loop
vertex 0.000507 0.003897 0.150000
vertex 0.003335 0.000158 0.150000
vertex 0.005869 0.008065 0.150000
endloop
endfacet
facet normal 0.000080 0.000000 1.000000
outer loop
vertex 0.005869 0.008065 0.150000
vertex 0.003292 0.006955 0.150000
vertex 0.003211 0.006885 0.150000
endloop
endfacet
facet normal 0.000000 0.000000 1.000000
outer loop
vertex 0.003058 0.006758 0.150000
vertex 0.002901 0.006633 0.150000
vertex 0.002737 0.006494 0.150000
endloop
endfacet
facet normal -0.000093 0.000000 1.000000
outer loop
vertex 0.005869 0.008065 0.150000
vertex 0.003211 0.006885 0.150000
vertex 0.003058 0.006758 0.150000
endloop
endfacet
facet normal 0.000000 0.000000 1.000000
outer loop
vertex 0.001803 0.005802 0.150000
vertex 0.000507 0.003897 0.150000
vertex 0.005869 0.008065 0.150000
endloop
endfacet
facet normal 0.000000 0.000000 1.000000
outer loop
vertex 0.001987 0.005930 0.150000
vertex 0.001803 0.005802 0.150000
vertex 0.005869 0.008065 0.150000
endloop
endfacet
facet normal 0.000022 0.000000 1.000000
outer loop
vertex 0.005869 0.008065 0.150000
vertex 0.003058 0.006758 0.150000
vertex 0.002737 0.006494 0.150000
endloop
endfacet
facet normal 0.000153 0.000000 1.000000
outer loop
vertex 0.005869 0.008065 0.150000
vertex 0.002737 0.006494 0.150000
vertex 0.002558 0.006351 0.150000
endloop
endfacet
facet normal 0.000000 0.000000 1.000000
outer loop
vertex 0.002177 0.006066 0.150000
vertex 0.001987 0.005930 0.150000
vertex 0.005869 0.008065 0.150000
endloop
endfacet
facet normal -0.000143 0.000000 1.000000
outer loop
vertex 0.005869 0.008065 0.150000
vertex 0.002558 0.006351 0.150000
vertex 0.002370 0.006207 0.150000
endloop
endfacet
facet normal -0.000159 0.000000 1.000000
outer loop
vertex 0.005869 0.008065 0.150000
vertex 0.002370 0.006207 0.150000
vertex 0.002177 0.006066 0.150000
endloop
endfacet
facet normal -0.666517 -0.745490 0.000000
outer loop
vertex 0.000273 0.001134 0.150000
vertex 0.000273 0.001134 0.000000
vertex 0.000363 0.001054 0.000000
endloop
endfacet
facet normal -0.666517 -0.745490 0.000000
outer loop
vertex 0.000273 0.001134 0.150000
vertex 0.000363 0.001054 0.000000
vertex 0.000363 0.001054 0.150000
endloop
endfacet
facet normal 0.619748 -0.784801 0.000000
outer loop
vertex 0.007366 0.001130 0.150000
vertex 0.007366 0.001130 0.000000
vertex 0.007653 0.001358 0.000000
endloop
endfacet
facet normal 0.619748 -0.784801 0.000000
outer loop
vertex 0.007366 0.001130 0.150000
vertex 0.007653 0.001358 0.000000
vertex 0.007653 0.001358 0.150000
endloop
endfacet
facet normal 0.000000 0.000000 -1.000000
outer loop
vertex 0.005303 0.000112 0.000000
vertex 0.004936 0.000027 0.000000
vertex 0.004612 0.000000 0.000000
endloop
endfacet
facet normal 0.000000 0.000000 -1.000000
outer loop
vertex 0.004612 0.000000 0.000000
vertex 0.004318 0.000013 0.000000
vertex 0.004177 0.000028 0.000000
endloop
endfacet
facet normal 0.000000 0.000000 -1.000000
outer loop
vertex 0.004177 0.000028 0.000000
vertex 0.004039 0.000046 0.000000
vertex 0.003901 0.000065 0.000000
endloop
endfacet
facet normal 0.000000 0.000000 -1.000000
outer loop
vertex 0.003901 0.000065 0.000000
vertex 0.003744 0.000087 0.000000
vertex 0.003554 0.000118 0.000000
endloop
endfacet
facet normal 0.000000 0.000000 -1.000000
outer loop
vertex 0.003554 0.000118 0.000000
vertex 0.003335 0.000158 0.000000
vertex 0.003093 0.000205 0.000000
endloop
endfacet
facet normal 0.000000 0.000000 -1.000000
outer loop
vertex 0.003093 0.000205 0.000000
vertex 0.002832 0.000260 0.000000
vertex 0.002557 0.000321 0.000000
endloop
endfacet
facet normal 0.000000 0.000000 -1.000000
outer loop
vertex 0.002557 0.000321 0.000000
vertex 0.002272 0.000389 0.000000
vertex 0.001984 0.000462 0.000000
endloop
endfacet
facet normal 0.000000 0.000000 -1.000000
outer loop
vertex 0.001984 0.000462 0.000000
vertex 0.001695 0.000540 0.000000
vertex 0.001412 0.000623 0.000000
endloop
endfacet
facet normal 0.000000 0.000000 -1.000000
outer loop
vertex 0.001412 0.000623 0.000000
vertex 0.001139 0.000710 0.000000
vertex 0.000881 0.000800 0.000000
endloop
endfacet
facet normal 0.000000 0.000000 -1.000000
outer loop
vertex 0.000881 0.000800 0.000000
vertex 0.000490 0.000972 0.000000
vertex 0.000363 0.001054 0.000000
endloop
endfacet
facet normal 0.000000 0.000000 -1.000000
outer loop
vertex 0.000363 0.001054 0.000000
vertex 0.000273 0.001134 0.000000
vertex 0.000212 0.001216 0.000000
endloop
endfacet
facet normal 0.000000 0.000000 -1.000000
outer loop
vertex 0.000212 0.001216 0.000000
vertex 0.000175 0.001300 0.000000
vertex 0.000153 0.001389 0.000000
endloop
endfacet
facet normal 0.000000 0.000000 -1.000000
outer loop
vertex 0.000212 0.001216 0.000000
vertex 0.000153 0.001389 0.000000
vertex 0.000109 0.001703 0.000000
endloop
endfacet
facet normal 0.000000 0.000000 -1.000000
outer loop
vertex 0.000881 0.000800 0.000000
vertex 0.000363 0.001054 0.000000
vertex 0.000212 0.001216 0.000000
endloop
endfacet
facet normal 0.000000 0.000000 -1.000000
outer loop
vertex 0.001984 0.000462 0.000000
vertex 0.001412 0.000623 0.000000
vertex 0.000881 0.000800 0.000000
endloop
endfacet
facet normal 0.000000 0.000000 -1.000000
outer loop
vertex 0.003093 0.000205 0.000000
vertex 0.002557 0.000321 0.000000
vertex 0.001984 0.000462 0.000000
endloop
endfacet
facet normal 0.000000 0.000000 -1.000000
outer loop
vertex 0.003901 0.000065 0.000000
vertex 0.003554 0.000118 0.000000
vertex 0.003093 0.000205 0.000000
endloop
endfacet
facet normal 0.000000 0.000000 -1.000000
outer loop
vertex 0.004612 0.000000 0.000000
vertex 0.004177 0.000028 0.000000
vertex 0.003901 0.000065 0.000000
endloop
endfacet
facet normal 0.000000 0.000000 -1.000000
outer loop
vertex 0.005728 0.000274 0.000000
vertex 0.005303 0.000112 0.000000
vertex 0.004612 0.000000 0.000000
endloop
endfacet
facet normal 0.000000 0.000000 -1.000000
outer loop
vertex 0.007031 0.000929 0.000000
vertex 0.006845 0.000831 0.000000
vertex 0.005728 0.000274 0.000000
endloop
endfacet
facet normal 0.000000 0.000000 -1.000000
outer loop
vertex 0.007366 0.001130 0.000000
vertex 0.007205 0.001028 0.000000
vertex 0.007031 0.000929 0.000000
endloop
endfacet
facet normal 0.000000 0.000000 -1.000000
outer loop
vertex 0.007780 0.001488 0.000000
vertex 0.007653 0.001358 0.000000
vertex 0.007366 0.001130 0.000000
endloop
endfacet
facet normal 0.000000 0.000000 -1.000000
outer loop
vertex 0.008443 0.002513 0.000000
vertex 0.007896 0.001633 0.000000
vertex 0.007780 0.001488 0.000000
endloop
endfacet
facet normal 0.000000 0.000000 -1.000000
outer loop
vertex 0.008559 0.002816 0.000000
vertex 0.008507 0.002658 0.000000
vertex 0.008443 0.002513 0.000000
endloop
endfacet
facet normal 0.000000 0.000000 -1.000000
outer loop
vertex 0.008623 0.003200 0.000000
vertex 0.008599 0.002995 0.000000
vertex 0.008559 0.002816 0.000000
endloop
endfacet
facet normal 0.000000 0.000000 -1.000000
outer loop
vertex 0.008469 0.005341 0.000000
vertex 0.008622 0.003714 0.000000
vertex 0.008623 0.003200 0.000000
endloop
endfacet
facet normal 0.000000 0.000000 -1.000000
outer loop
vertex 0.008421 0.005715 0.000000
vertex 0.008447 0.005533 0.000000
vertex 0.008469 0.005341 0.000000
endloop
endfacet
facet normal 0.000000 0.000000 -1.000000
outer loop
vertex 0.008350 0.006068 0.000000
vertex 0.008390 0.005891 0.000000
vertex 0.008421 0.005715 0.000000
endloop
endfacet
facet normal 0.000000 0.000000 -1.000000
outer loop
vertex 0.008237 0.006445 0.000000
vertex 0.008300 0.006251 0.000000
vertex 0.008350 0.006068 0.000000
endloop
endfacet
facet normal 0.000000 0.000000 -1.000000
outer loop
vertex 0.007869 0.007429 0.000000
vertex 0.007936 0.007257 0.000000
vertex 0.008237 0.006445 0.000000
endloop
endfacet
facet normal 0.000000 0.000000 -1.000000
outer loop
vertex 0.007727 0.007723 0.000000
vertex 0.007800 0.007585 0.000000
vertex 0.007869 0.007429 0.000000
endloop
endfacet
facet normal 0.000000 0.000000 -1.000000
outer loop
vertex 0.007560 0.007942 0.000000
vertex 0.007648 0.007842 0.000000
vertex 0.007727 0.007723 0.000000
endloop
endfacet
facet normal 0.000000 0.000000 -1.000000
outer loop
vertex 0.007343 0.008075 0.000000
vertex 0.007459 0.008020 0.000000
vertex 0.007560 0.007942 0.000000
endloop
endfacet
facet normal 0.000000 0.000000 -1.000000
outer loop
vertex 0.007055 0.008114 0.000000
vertex 0.007209 0.008107 0.000000
vertex 0.007343 0.008075 0.000000
endloop
endfacet
facet normal 0.000000 0.000000 -1.000000
outer loop
vertex 0.006290 0.008088 0.000000
vertex 0.006496 0.008096 0.000000
vertex 0.007055 0.008114 0.000000
endloop
endfacet
facet normal 0.000000 0.000000 -1.000000
outer loop
vertex 0.005869 0.008065 0.000000
vertex 0.006080 0.008078 0.000000
vertex 0.006290 0.008088 0.000000
endloop
endfacet
facet normal 0.000000 0.000000 -1.000000
outer loop
vertex 0.005457 0.008028 0.000000
vertex 0.005660 0.008048 0.000000
vertex 0.005869 0.008065 0.000000
endloop
endfacet
facet normal 0.000000 0.000000 -1.000000
outer loop
vertex 0.004768 0.007891 0.000000
vertex 0.005081 0.007972 0.000000
vertex 0.005457 0.008028 0.000000
endloop
endfacet
facet normal 0.000000 0.000000 -1.000000
outer loop
vertex 0.004027 0.007583 0.000000
vertex 0.004250 0.007689 0.000000
vertex 0.004768 0.007891 0.000000
endloop
endfacet
facet normal 0.000000 0.000000 -1.000000
outer loop
vertex 0.003840 0.007478 0.000000
vertex 0.003928 0.007530 0.000000
vertex 0.004027 0.007583 0.000000
endloop
endfacet
facet normal 0.000000 0.000000 -1.000000
outer loop
vertex 0.003646 0.007325 0.000000
vertex 0.003697 0.007375 0.000000
vertex 0.003840 0.007478 0.000000
endloop
endfacet
facet normal 0.000000 0.000000 -1.000000
outer loop
vertex 0.003570 0.007225 0.000000
vertex 0.003646 0.007325 0.000000
vertex 0.003840 0.007478 0.000000
endloop
endfacet
facet normal 0.000000 0.000000 -1.000000
outer loop
vertex 0.003840 0.007478 0.000000
vertex 0.004027 0.007583 0.000000
vertex 0.004768 0.007891 0.000000
endloop
endfacet
facet normal 0.000000 0.000000 -1.000000
outer loop
vertex 0.004768 0.007891 0.000000
vertex 0.005457 0.008028 0.000000
vertex 0.005869 0.008065 0.000000
endloop
endfacet
facet normal 0.000000 0.000000 -1.000000
outer loop
vertex 0.005869 0.008065 0.000000
vertex 0.006290 0.008088 0.000000
vertex 0.007055 0.008114 0.000000
endloop
endfacet
facet normal 0.000000 0.000000 -1.000000
outer loop
vertex 0.007055 0.008114 0.000000
vertex 0.007343 0.008075 0.000000
vertex 0.007560 0.007942 0.000000
endloop
endfacet
facet normal 0.000000 0.000000 -1.000000
outer loop
vertex 0.007560 0.007942 0.000000
vertex 0.007727 0.007723 0.000000
vertex 0.007869 0.007429 0.000000
endloop
endfacet
facet normal 0.000000 0.000000 -1.000000
outer loop
vertex 0.007869 0.007429 0.000000
vertex 0.008237 0.006445 0.000000
vertex 0.008350 0.006068 0.000000
endloop
endfacet
facet normal 0.000000 0.000000 -1.000000
outer loop
vertex 0.008350 0.006068 0.000000
vertex 0.008421 0.005715 0.000000
vertex 0.008469 0.005341 0.000000
endloop
endfacet
facet normal 0.000000 0.000000 -1.000000
outer loop
vertex 0.008469 0.005341 0.000000
vertex 0.008623 0.003200 0.000000
vertex 0.008559 0.002816 0.000000
endloop
endfacet
facet normal 0.000000 0.000000 -1.000000
outer loop
vertex 0.008559 0.002816 0.000000
vertex 0.008443 0.002513 0.000000
vertex 0.007780 0.001488 0.000000
endloop
endfacet
facet normal 0.000000 0.000000 -1.000000
outer loop
vertex 0.007780 0.001488 0.000000
vertex 0.007366 0.001130 0.000000
vertex 0.007031 0.000929 0.000000
endloop
endfacet
facet normal 0.000000 0.000000 -1.000000
outer loop
vertex 0.007031 0.000929 0.000000
vertex 0.005728 0.000274 0.000000
vertex 0.004612 0.000000 0.000000
endloop
endfacet
facet normal 0.000000 0.000000 -1.000000
outer loop
vertex 0.004612 0.000000 0.000000
vertex 0.003901 0.000065 0.000000
vertex 0.003093 0.000205 0.000000
endloop
endfacet
facet normal 0.000000 0.000000 -1.000000
outer loop
vertex 0.003093 0.000205 0.000000
vertex 0.001984 0.000462 0.000000
vertex 0.000881 0.000800 0.000000
endloop
endfacet
facet normal 0.000000 0.000000 -1.000000
outer loop
vertex 0.000881 0.000800 0.000000
vertex 0.000212 0.001216 0.000000
vertex 0.000109 0.001703 0.000000
endloop
endfacet
facet normal 0.000000 0.000000 -1.000000
outer loop
vertex 0.000079 0.001829 0.000000
vertex 0.000030 0.001969 0.000000
vertex 0.000000 0.002161 0.000000
endloop
endfacet
facet normal 0.000000 0.000000 -1.000000
outer loop
vertex 0.000881 0.000800 0.000000
vertex 0.000109 0.001703 0.000000
vertex 0.000079 0.001829 0.000000
endloop
endfacet
facet normal 0.000000 0.000000 -1.000000
outer loop
vertex 0.004612 0.000000 0.000000
vertex 0.003093 0.000205 0.000000
vertex 0.000881 0.000800 0.000000
endloop
endfacet
facet normal 0.000000 0.000000 -1.000000
outer loop
vertex 0.007780 0.001488 0.000000
vertex 0.007031 0.000929 0.000000
vertex 0.004612 0.000000 0.000000
endloop
endfacet
facet normal 0.000000 0.000000 -1.000000
outer loop
vertex 0.008469 0.005341 0.000000
vertex 0.008559 0.002816 0.000000
vertex 0.007780 0.001488 0.000000
endloop
endfacet
facet normal 0.000000 0.000000 -1.000000
outer loop
vertex 0.007869 0.007429 0.000000
vertex 0.008350 0.006068 0.000000
vertex 0.008469 0.005341 0.000000
endloop
endfacet
facet normal 0.000000 0.000000 -1.000000
outer loop
vertex 0.007055 0.008114 0.000000
vertex 0.007560 0.007942 0.000000
vertex 0.007869 0.007429 0.000000
endloop
endfacet
facet normal 0.000000 0.000000 -1.000000
outer loop
vertex 0.004768 0.007891 0.000000
vertex 0.005869 0.008065 0.000000
vertex 0.007055 0.008114 0.000000
endloop
endfacet
facet normal 0.000000 0.000000 -1.000000
outer loop
vertex 0.003570 0.007225 0.000000
vertex 0.003840 0.007478 0.000000
vertex 0.004768 0.007891 0.000000
endloop
endfacet
facet normal 0.000000 0.000000 -1.000000
outer loop
vertex 0.003448 0.007097 0.000000
vertex 0.003570 0.007225 0.000000
vertex 0.004768 0.007891 0.000000
endloop
endfacet
facet normal 0.000000 0.000000 -1.000000
outer loop
vertex 0.004768 0.007891 0.000000
vertex 0.007055 0.008114 0.000000
vertex 0.007869 0.007429 0.000000
endloop
endfacet
facet normal 0.000000 0.000000 -1.000000
outer loop
vertex 0.007869 0.007429 0.000000
vertex 0.008469 0.005341 0.000000
vertex 0.007780 0.001488 0.000000
endloop
endfacet
facet normal 0.000000 0.000000 -1.000000
outer loop
vertex 0.007780 0.001488 0.000000
vertex 0.004612 0.000000 0.000000
vertex 0.000881 0.000800 0.000000
endloop
endfacet
facet normal 0.000000 0.000000 -1.000000
outer loop
vertex 0.000881 0.000800 0.000000
vertex 0.000079 0.001829 0.000000
vertex 0.000000 0.002161 0.000000
endloop
endfacet
facet normal 0.000000 0.000000 -1.000000
outer loop
vertex 0.000000 0.002161 0.000000
vertex 0.000028 0.002428 0.000000
vertex 0.000215 0.003117 0.000000
endloop
endfacet
facet normal 0.000000 0.000000 -1.000000
outer loop
vertex 0.000215 0.003117 0.000000
vertex 0.000353 0.003504 0.000000
vertex 0.000507 0.003897 0.000000
endloop
endfacet
facet normal 0.000000 0.000000 -1.000000
outer loop
vertex 0.000507 0.003897 0.000000
vertex 0.000665 0.004277 0.000000
vertex 0.000819 0.004627 0.000000
endloop
endfacet
facet normal 0.000000 0.000000 -1.000000
outer loop
vertex 0.000819 0.004627 0.000000
vertex 0.000956 0.004931 0.000000
vertex 0.001067 0.005169 0.000000
endloop
endfacet
facet normal 0.000000 0.000000 -1.000000
outer loop
vertex 0.001067 0.005169 0.000000
vertex 0.001142 0.005324 0.000000
vertex 0.001169 0.005380 0.000000
endloop
endfacet
facet normal 0.000000 0.000000 -1.000000
outer loop
vertex 0.001067 0.005169 0.000000
vertex 0.001169 0.005380 0.000000
vertex 0.001481 0.005584 0.000000
endloop
endfacet
facet normal 0.000000 0.000000 -1.000000
outer loop
vertex 0.000507 0.003897 0.000000
vertex 0.000819 0.004627 0.000000
vertex 0.001067 0.005169 0.000000
endloop
endfacet
facet normal 0.000000 0.000000 -1.000000
outer loop
vertex 0.000000 0.002161 0.000000
vertex 0.000215 0.003117 0.000000
vertex 0.000507 0.003897 0.000000
endloop
endfacet
facet normal 0.000000 0.000000 -1.000000
outer loop
vertex 0.007780 0.001488 0.000000
vertex 0.000881 0.000800 0.000000
vertex 0.000000 0.002161 0.000000
endloop
endfacet
facet normal 0.000000 0.000000 -1.000000
outer loop
vertex 0.004768 0.007891 0.000000
vertex 0.007869 0.007429 0.000000
vertex 0.007780 0.001488 0.000000
endloop
endfacet
facet normal 0.000000 0.000000 -1.000000
outer loop
vertex 0.003373 0.007027 0.000000
vertex 0.003448 0.007097 0.000000
vertex 0.004768 0.007891 0.000000
endloop
endfacet
facet normal 0.000000 0.000000 -1.000000
outer loop
vertex 0.003292 0.006955 0.000000
vertex 0.003373 0.007027 0.000000
vertex 0.004768 0.007891 0.000000
endloop
endfacet
facet normal 0.000000 0.000000 -1.000000
outer loop
vertex 0.004768 0.007891 0.000000
vertex 0.007780 0.001488 0.000000
vertex 0.000000 0.002161 0.000000
endloop
endfacet
facet normal 0.000000 0.000000 -1.000000
outer loop
vertex 0.000000 0.002161 0.000000
vertex 0.000507 0.003897 0.000000
vertex 0.001067 0.005169 0.000000
endloop
endfacet
facet normal 0.000000 0.000000 -1.000000
outer loop
vertex 0.001067 0.005169 0.000000
vertex 0.001481 0.005584 0.000000
vertex 0.001803 0.005802 0.000000
endloop
endfacet
facet normal 0.000000 0.000000 -1.000000
outer loop
vertex 0.001067 0.005169 0.000000
vertex 0.001803 0.005802 0.000000
vertex 0.001987 0.005930 0.000000
endloop
endfacet
facet normal 0.000000 0.000000 -1.000000
outer loop
vertex 0.004768 0.007891 0.000000
vertex 0.000000 0.002161 0.000000
vertex 0.001067 0.005169 0.000000
endloop
endfacet
facet normal 0.000000 0.000000 -1.000000
outer loop
vertex 0.003211 0.006885 0.000000
vertex 0.003292 0.006955 0.000000
vertex 0.004768 0.007891 0.000000
endloop
endfacet
facet normal 0.000000 0.000000 -1.000000
outer loop
vertex 0.002737 0.006494 0.000000
vertex 0.002901 0.006633 0.000000
vertex 0.003058 0.006758 0.000000
endloop
endfacet
facet normal 0.000000 0.000000 -1.000000
outer loop
vertex 0.003058 0.006758 0.000000
vertex 0.003211 0.006885 0.000000
vertex 0.004768 0.007891 0.000000
endloop
endfacet
facet normal 0.000000 0.000000 -1.000000
outer loop
vertex 0.004768 0.007891 0.000000
vertex 0.001067 0.005169 0.000000
vertex 0.001987 0.005930 0.000000
endloop
endfacet
facet normal 0.000000 0.000000 -1.000000
outer loop
vertex 0.004768 0.007891 0.000000
vertex 0.001987 0.005930 0.000000
vertex 0.002177 0.006066 0.000000
endloop
endfacet
facet normal 0.000000 0.000000 -1.000000
outer loop
vertex 0.002737 0.006494 0.000000
vertex 0.003058 0.006758 0.000000
vertex 0.004768 0.007891 0.000000
endloop
endfacet
facet normal 0.000000 0.000000 -1.000000
outer loop
vertex 0.002558 0.006351 0.000000
vertex 0.002737 0.006494 0.000000
vertex 0.004768 0.007891 0.000000
endloop
endfacet
facet normal 0.000000 0.000000 -1.000000
outer loop
vertex 0.004768 0.007891 0.000000
vertex 0.002177 0.006066 0.000000
vertex 0.002370 0.006207 0.000000
endloop
endfacet
facet normal 0.000000 0.000000 -1.000000
outer loop
vertex 0.002370 0.006207 0.000000
vertex 0.002558 0.006351 0.000000
vertex 0.004768 0.007891 0.000000
endloop
endfacet
facet normal 0.949379 -0.314132 0.000000
outer loop
vertex 0.008507 0.002658 0.150000
vertex 0.008507 0.002658 0.000000
vertex 0.008559 0.002816 0.000000
endloop
endfacet
facet normal 0.949374 -0.314149 0.000000
outer loop
vertex 0.008507 0.002658 0.150000
vertex 0.008559 0.002816 0.000000
vertex 0.008559 0.002816 0.150000
endloop
endfacet
facet normal -0.972756 -0.231833 0.000000
outer loop
vertex 0.000079 0.001829 0.150000
vertex 0.000079 0.001829 0.000000
vertex 0.000109 0.001703 0.000000
endloop
endfacet
facet normal -0.972756 -0.231833 0.000000
outer loop
vertex 0.000079 0.001829 0.150000
vertex 0.000109 0.001703 0.000000
vertex 0.000109 0.001703 0.150000
endloop
endfacet
facet normal -0.044118 -0.999026 0.000000
outer loop
vertex 0.004612 0.000000 0.000000
vertex 0.004612 0.000000 0.150000
vertex 0.004318 0.000013 0.150000
endloop
endfacet
facet normal -0.044118 -0.999026 0.000000
outer loop
vertex 0.004612 0.000000 0.000000
vertex 0.004318 0.000013 0.150000
vertex 0.004318 0.000013 0.000000
endloop
endfacet
facet normal 0.535687 -0.844416 0.000000
outer loop
vertex 0.007205 0.001028 0.000000
vertex 0.007366 0.001130 0.000000
vertex 0.007366 0.001130 0.150000
endloop
endfacet
facet normal 0.535687 -0.844416 0.000000
outer loop
vertex 0.007205 0.001028 0.000000
vertex 0.007366 0.001130 0.150000
vertex 0.007205 0.001028 0.150000
endloop
endfacet
facet normal 0.494337 -0.869270 0.000000
outer loop
vertex 0.007031 0.000929 0.000000
vertex 0.007205 0.001028 0.000000
vertex 0.007205 0.001028 0.150000
endloop
endfacet
facet normal 0.494334 -0.869272 0.000000
outer loop
vertex 0.007031 0.000929 0.000000
vertex 0.007205 0.001028 0.150000
vertex 0.007031 0.000929 0.150000
endloop
endfacet
facet normal 0.446386 -0.894840 0.000000
outer loop
vertex 0.005728 0.000274 0.150000
vertex 0.005728 0.000274 0.000000
vertex 0.006845 0.000831 0.000000
endloop
endfacet
facet normal 0.465434 -0.885083 0.000000
outer loop
vertex 0.006845 0.000831 0.000000
vertex 0.007031 0.000929 0.000000
vertex 0.007031 0.000929 0.150000
endloop
endfacet
facet normal 0.446386 -0.894840 0.000000
outer loop
vertex 0.006845 0.000831 0.150000
vertex 0.005728 0.000274 0.150000
vertex 0.006845 0.000831 0.000000
endloop
endfacet
facet normal 0.465434 -0.885083 0.000000
outer loop
vertex 0.007031 0.000929 0.150000
vertex 0.006845 0.000831 0.150000
vertex 0.006845 0.000831 0.000000
endloop
endfacet
facet normal 0.976688 -0.214663 0.000000
outer loop
vertex 0.008559 0.002816 0.150000
vertex 0.008559 0.002816 0.000000
vertex 0.008599 0.002995 0.000000
endloop
endfacet
facet normal 0.976692 -0.214646 0.000000
outer loop
vertex 0.008559 0.002816 0.150000
vertex 0.008599 0.002995 0.000000
vertex 0.008599 0.002995 0.150000
endloop
endfacet
facet normal -0.403706 -0.914889 0.000000
outer loop
vertex 0.000490 0.000972 0.150000
vertex 0.000490 0.000972 0.000000
vertex 0.000881 0.000800 0.000000
endloop
endfacet
facet normal -0.403706 -0.914889 0.000000
outer loop
vertex 0.000490 0.000972 0.150000
vertex 0.000881 0.000800 0.000000
vertex 0.000881 0.000800 0.150000
endloop
endfacet
facet normal 0.225494 -0.974245 0.000000
outer loop
vertex 0.005303 0.000112 0.000000
vertex 0.005303 0.000112 0.150000
vertex 0.004936 0.000027 0.150000
endloop
endfacet
facet normal 0.225494 -0.974245 0.000000
outer loop
vertex 0.005303 0.000112 0.000000
vertex 0.004936 0.000027 0.150000
vertex 0.004936 0.000027 0.000000
endloop
endfacet
facet normal -0.988319 -0.152401 0.000000
outer loop
vertex 0.000000 0.002161 0.150000
vertex 0.000000 0.002161 0.000000
vertex 0.000030 0.001969 0.000000
endloop
endfacet
facet normal -0.988319 -0.152401 0.000000
outer loop
vertex 0.000000 0.002161 0.150000
vertex 0.000030 0.001969 0.000000
vertex 0.000030 0.001969 0.150000
endloop
endfacet
facet normal -0.100636 0.994923 0.000000
outer loop
vertex 0.005660 0.008048 0.000000
vertex 0.005457 0.008028 0.000000
vertex 0.005457 0.008028 0.150000
endloop
endfacet
facet normal -0.100636 0.994923 0.000000
outer loop
vertex 0.005660 0.008048 0.000000
vertex 0.005457 0.008028 0.150000
vertex 0.005660 0.008048 0.150000
endloop
endfacet
facet normal -0.078315 0.996929 0.000000
outer loop
vertex 0.005869 0.008065 0.000000
vertex 0.005660 0.008048 0.000000
vertex 0.005660 0.008048 0.150000
endloop
endfacet
facet normal -0.078315 0.996929 0.000000
outer loop
vertex 0.005869 0.008065 0.000000
vertex 0.005660 0.008048 0.150000
vertex 0.005869 0.008065 0.150000
endloop
endfacet
facet normal -0.061140 0.998129 0.000000
outer loop
vertex 0.006080 0.008078 0.000000
vertex 0.005869 0.008065 0.000000
vertex 0.005869 0.008065 0.150000
endloop
endfacet
facet normal -0.061140 0.998129 0.000000
outer loop
vertex 0.006080 0.008078 0.000000
vertex 0.005869 0.008065 0.150000
vertex 0.006080 0.008078 0.150000
endloop
endfacet
facet normal -0.048176 0.998839 0.000000
outer loop
vertex 0.006290 0.008088 0.000000
vertex 0.006080 0.008078 0.000000
vertex 0.006080 0.008078 0.150000
endloop
endfacet
facet normal -0.048176 0.998839 0.000000
outer loop
vertex 0.006290 0.008088 0.000000
vertex 0.006080 0.008078 0.150000
vertex 0.006290 0.008088 0.150000
endloop
endfacet
facet normal -0.032312 0.999478 0.000000
outer loop
vertex 0.007055 0.008114 0.150000
vertex 0.007055 0.008114 0.000000
vertex 0.006496 0.008096 0.000000
endloop
endfacet
facet normal -0.038908 0.999243 0.000000
outer loop
vertex 0.006496 0.008096 0.000000
vertex 0.006290 0.008088 0.000000
vertex 0.006290 0.008088 0.150000
endloop
endfacet
facet normal -0.032312 0.999478 0.000000
outer loop
vertex 0.006496 0.008096 0.150000
vertex 0.007055 0.008114 0.150000
vertex 0.006496 0.008096 0.000000
endloop
endfacet
facet normal -0.038908 0.999243 0.000000
outer loop
vertex 0.006290 0.008088 0.150000
vertex 0.006496 0.008096 0.150000
vertex 0.006496 0.008096 0.000000
endloop
endfacet
facet normal -0.912681 -0.408673 0.000000
outer loop
vertex 0.000175 0.001300 0.150000
vertex 0.000175 0.001300 0.000000
vertex 0.000212 0.001216 0.000000
endloop
endfacet
facet normal -0.912681 -0.408673 0.000000
outer loop
vertex 0.000175 0.001300 0.150000
vertex 0.000212 0.001216 0.000000
vertex 0.000212 0.001216 0.150000
endloop
endfacet
facet normal -0.147866 0.989007 0.000000
outer loop
vertex 0.005457 0.008028 0.000000
vertex 0.005081 0.007972 0.000000
vertex 0.005081 0.007972 0.150000
endloop
endfacet
facet normal -0.147866 0.989007 0.000000
outer loop
vertex 0.005457 0.008028 0.000000
vertex 0.005081 0.007972 0.150000
vertex 0.005457 0.008028 0.150000
endloop
endfacet
facet normal 0.999999 0.001467 0.000000
outer loop
vertex 0.008623 0.003200 0.000000
vertex 0.008622 0.003714 0.000000
vertex 0.008622 0.003714 0.150000
endloop
endfacet
facet normal 0.999999 0.001467 0.000000
outer loop
vertex 0.008623 0.003200 0.000000
vertex 0.008622 0.003714 0.150000
vertex 0.008623 0.003200 0.150000
endloop
endfacet
facet normal 0.951512 0.307611 0.000000
outer loop
vertex 0.008300 0.006251 0.000000
vertex 0.008237 0.006445 0.000000
vertex 0.008237 0.006445 0.150000
endloop
endfacet
facet normal 0.951510 0.307618 0.000000
outer loop
vertex 0.008300 0.006251 0.000000
vertex 0.008237 0.006445 0.150000
vertex 0.008300 0.006251 0.150000
endloop
endfacet
facet normal 0.975636 0.219393 0.000000
outer loop
vertex 0.008390 0.005891 0.150000
vertex 0.008390 0.005891 0.000000
vertex 0.008350 0.006068 0.000000
endloop
endfacet
facet normal 0.964336 0.264682 0.000000
outer loop
vertex 0.008350 0.006068 0.000000
vertex 0.008300 0.006251 0.000000
vertex 0.008300 0.006251 0.150000
endloop
endfacet
facet normal 0.975638 0.219385 0.000000
outer loop
vertex 0.008350 0.006068 0.150000
vertex 0.008390 0.005891 0.150000
vertex 0.008350 0.006068 0.000000
endloop
endfacet
facet normal 0.964336 0.264682 0.000000
outer loop
vertex 0.008300 0.006251 0.150000
vertex 0.008350 0.006068 0.150000
vertex 0.008350 0.006068 0.000000
endloop
endfacet
facet normal 0.849626 -0.527386 0.000000
outer loop
vertex 0.007896 0.001633 0.000000
vertex 0.008443 0.002513 0.000000
vertex 0.008443 0.002513 0.150000
endloop
endfacet
facet normal 0.849625 -0.527387 0.000000
outer loop
vertex 0.007896 0.001633 0.000000
vertex 0.008443 0.002513 0.150000
vertex 0.007896 0.001633 0.150000
endloop
endfacet
facet normal 0.832770 0.553619 0.000000
outer loop
vertex 0.007727 0.007723 0.150000
vertex 0.007727 0.007723 0.000000
vertex 0.007648 0.007842 0.000000
endloop
endfacet
facet normal 0.832765 0.553627 0.000000
outer loop
vertex 0.007727 0.007723 0.150000
vertex 0.007648 0.007842 0.000000
vertex 0.007648 0.007842 0.150000
endloop
endfacet
facet normal -0.585399 0.810745 0.000000
outer loop
vertex 0.003840 0.007478 0.000000
vertex 0.003697 0.007375 0.000000
vertex 0.003697 0.007375 0.150000
endloop
endfacet
facet normal -0.585397 0.810747 0.000000
outer loop
vertex 0.003840 0.007478 0.000000
vertex 0.003697 0.007375 0.150000
vertex 0.003840 0.007478 0.150000
endloop
endfacet
facet normal -0.540338 -0.841448 0.000000
outer loop
vertex 0.000363 0.001054 0.150000
vertex 0.000363 0.001054 0.000000
vertex 0.000490 0.000972 0.000000
endloop
endfacet
facet normal -0.540338 -0.841448 0.000000
outer loop
vertex 0.000363 0.001054 0.150000
vertex 0.000490 0.000972 0.000000
vertex 0.000490 0.000972 0.150000
endloop
endfacet
facet normal 0.232028 0.972709 0.000000
outer loop
vertex 0.007343 0.008075 0.150000
vertex 0.007343 0.008075 0.000000
vertex 0.007209 0.008107 0.000000
endloop
endfacet
facet normal 0.232028 0.972709 0.000000
outer loop
vertex 0.007343 0.008075 0.150000
vertex 0.007209 0.008107 0.000000
vertex 0.007209 0.008107 0.150000
endloop
endfacet
facet normal -0.692884 0.721049 0.000000
outer loop
vertex 0.003697 0.007375 0.150000
vertex 0.003697 0.007375 0.000000
vertex 0.003646 0.007325 0.000000
endloop
endfacet
facet normal -0.692884 0.721049 0.000000
outer loop
vertex 0.003697 0.007375 0.150000
vertex 0.003646 0.007325 0.000000
vertex 0.003646 0.007325 0.150000
endloop
endfacet
facet normal -0.970380 -0.241584 0.000000
outer loop
vertex 0.000153 0.001389 0.150000
vertex 0.000153 0.001389 0.000000
vertex 0.000175 0.001300 0.000000
endloop
endfacet
facet normal -0.970380 -0.241584 0.000000
outer loop
vertex 0.000153 0.001389 0.150000
vertex 0.000175 0.001300 0.000000
vertex 0.000175 0.001300 0.150000
endloop
endfacet
facet normal 0.000000 0.000000 1.000000
outer loop
vertex 0.000819 0.004627 0.000000
vertex 0.000665 0.004277 0.000000
vertex 0.000507 0.003897 0.000000
endloop
endfacet
facet normal 0.000000 0.000000 1.000000
outer loop
vertex 0.000507 0.003897 0.000000
vertex 0.000353 0.003504 0.000000
vertex 0.000215 0.003117 0.000000
endloop
endfacet
facet normal -0.942086 0.335373 0.000000
outer loop
vertex 0.000215 0.003117 0.000000
vertex 0.000215 0.003117 0.150000
vertex 0.000353 0.003504 0.150000
endloop
endfacet
facet normal -0.931305 0.364240 -0.000084
outer loop
vertex 0.000215 0.003117 0.000000
vertex 0.000353 0.003504 0.150000
vertex 0.000507 0.003897 0.150000
endloop
endfacet
facet normal 0.000000 0.000000 1.000000
outer loop
vertex 0.000819 0.004627 0.000000
vertex 0.000507 0.003897 0.000000
vertex 0.000215 0.003117 0.000000
endloop
endfacet
facet normal 0.000000 0.000000 1.000000
outer loop
vertex 0.001067 0.005169 0.000000
vertex 0.000956 0.004931 0.000000
vertex 0.000819 0.004627 0.000000
endloop
endfacet
facet normal 0.000000 0.000000 1.000000
outer loop
vertex 0.001169 0.005380 0.000000
vertex 0.001142 0.005324 0.000000
vertex 0.001067 0.005169 0.000000
endloop
endfacet
facet normal -0.899310 0.437312 0.000000
outer loop
vertex 0.001142 0.005324 0.150000
vertex 0.001169 0.005380 0.150000
vertex 0.001169 0.005380 0.000000
endloop
endfacet
facet normal -0.902275 0.431162 -0.000003
outer loop
vertex 0.001067 0.005169 0.150000
vertex 0.001142 0.005324 0.150000
vertex 0.001169 0.005380 0.000000
endloop
endfacet
facet normal 0.000000 0.000000 1.000000
outer loop
vertex 0.001169 0.005380 0.000000
vertex 0.001067 0.005169 0.000000
vertex 0.000819 0.004627 0.000000
endloop
endfacet
facet normal -0.928638 0.370987 -0.000125
outer loop
vertex 0.000819 0.004627 0.000000
vertex 0.000215 0.003117 0.000000
vertex 0.000507 0.003897 0.150000
endloop
endfacet
facet normal -0.922860 0.385135 -0.000044
outer loop
vertex 0.000819 0.004627 0.000000
vertex 0.000507 0.003897 0.150000
vertex 0.000665 0.004277 0.150000
endloop
endfacet
facet normal -0.906630 0.421926 -0.000019
outer loop
vertex 0.001067 0.005169 0.150000
vertex 0.001169 0.005380 0.000000
vertex 0.000819 0.004627 0.000000
endloop
endfacet
facet normal -0.906063 0.423142 -0.000024
outer loop
vertex 0.000956 0.004931 0.150000
vertex 0.001067 0.005169 0.150000
vertex 0.000819 0.004627 0.000000
endloop
endfacet
facet normal -0.916110 0.400928 0.000000
outer loop
vertex 0.000819 0.004627 0.000000
vertex 0.000665 0.004277 0.150000
vertex 0.000819 0.004627 0.150000
endloop
endfacet
facet normal -0.910611 0.413265 0.000000
outer loop
vertex 0.000819 0.004627 0.150000
vertex 0.000956 0.004931 0.150000
vertex 0.000819 0.004627 0.000000
endloop
endfacet
facet normal 0.357870 -0.933772 0.000000
outer loop
vertex 0.005728 0.000274 0.000000
vertex 0.005728 0.000274 0.150000
vertex 0.005303 0.000112 0.150000
endloop
endfacet
facet normal 0.357870 -0.933772 0.000000
outer loop
vertex 0.005728 0.000274 0.000000
vertex 0.005303 0.000112 0.150000
vertex 0.005303 0.000112 0.000000
endloop
endfacet
facet normal 0.000000 0.000000 1.000000
outer loop
vertex 0.004027 0.007583 0.000000
vertex 0.003928 0.007530 0.000000
vertex 0.003840 0.007478 0.000000
endloop
endfacet
facet normal -0.510629 0.859801 0.000000
outer loop
vertex 0.003840 0.007478 0.000000
vertex 0.003840 0.007478 0.150000
vertex 0.003928 0.007530 0.150000
endloop
endfacet
facet normal -0.428332 0.903621 0.000000
outer loop
vertex 0.004027 0.007583 0.150000
vertex 0.004250 0.007689 0.150000
vertex 0.004250 0.007689 0.000000
endloop
endfacet
facet normal -0.473013 0.881056 -0.000030
outer loop
vertex 0.003840 0.007478 0.000000
vertex 0.003928 0.007530 0.150000
vertex 0.004027 0.007583 0.150000
endloop
endfacet
facet normal 0.000000 0.000000 1.000000
outer loop
vertex 0.004250 0.007689 0.000000
vertex 0.004027 0.007583 0.000000
vertex 0.003840 0.007478 0.000000
endloop
endfacet
facet normal -0.457859 0.889025 -0.000054
outer loop
vertex 0.003840 0.007478 0.000000
vertex 0.004027 0.007583 0.150000
vertex 0.004250 0.007689 0.000000
endloop
endfacet
facet normal 0.937794 0.347191 0.000000
outer loop
vertex 0.007936 0.007257 0.150000
vertex 0.008237 0.006445 0.150000
vertex 0.008237 0.006445 0.000000
endloop
endfacet
facet normal 0.937794 0.347193 0.000000
outer loop
vertex 0.007936 0.007257 0.150000
vertex 0.008237 0.006445 0.000000
vertex 0.007936 0.007257 0.000000
endloop
endfacet
facet normal 0.914816 0.403871 0.000000
outer loop
vertex 0.007800 0.007585 0.000000
vertex 0.007800 0.007585 0.150000
vertex 0.007869 0.007429 0.150000
endloop
endfacet
facet normal 0.930764 0.365621 0.000000
outer loop
vertex 0.007869 0.007429 0.150000
vertex 0.007936 0.007257 0.150000
vertex 0.007936 0.007257 0.000000
endloop
endfacet
facet normal 0.914819 0.403864 0.000000
outer loop
vertex 0.007869 0.007429 0.000000
vertex 0.007800 0.007585 0.000000
vertex 0.007869 0.007429 0.150000
endloop
endfacet
facet normal 0.930767 0.365614 0.000000
outer loop
vertex 0.007936 0.007257 0.000000
vertex 0.007869 0.007429 0.000000
vertex 0.007869 0.007429 0.150000
endloop
endfacet
facet normal 0.000000 0.000000 1.000000
outer loop
vertex 0.003058 0.006758 0.000000
vertex 0.002901 0.006633 0.000000
vertex 0.002737 0.006494 0.000000
endloop
endfacet
facet normal -0.682607 0.730786 0.000000
outer loop
vertex 0.003448 0.007097 0.150000
vertex 0.003448 0.007097 0.000000
vertex 0.003373 0.007027 0.000000
endloop
endfacet
facet normal -0.682607 0.730786 0.000000
outer loop
vertex 0.003373 0.007027 0.150000
vertex 0.003448 0.007097 0.150000
vertex 0.003373 0.007027 0.000000
endloop
endfacet
facet normal -0.665068 0.746783 0.000000
outer loop
vertex 0.003373 0.007027 0.150000
vertex 0.003373 0.007027 0.000000
vertex 0.003292 0.006955 0.000000
endloop
endfacet
facet normal -0.665072 0.746780 0.000000
outer loop
vertex 0.003292 0.006955 0.150000
vertex 0.003373 0.007027 0.150000
vertex 0.003292 0.006955 0.000000
endloop
endfacet
facet normal -0.651974 0.758241 0.000000
outer loop
vertex 0.003292 0.006955 0.150000
vertex 0.003292 0.006955 0.000000
vertex 0.003211 0.006885 0.000000
endloop
endfacet
facet normal -0.651976 0.758240 0.000000
outer loop
vertex 0.003211 0.006885 0.150000
vertex 0.003292 0.006955 0.150000
vertex 0.003211 0.006885 0.000000
endloop
endfacet
facet normal -0.637993 0.770042 0.000000
outer loop
vertex 0.003211 0.006885 0.150000
vertex 0.003211 0.006885 0.000000
vertex 0.003058 0.006758 0.000000
endloop
endfacet
facet normal -0.637993 0.770042 0.000000
outer loop
vertex 0.003058 0.006758 0.150000
vertex 0.003211 0.006885 0.150000
vertex 0.003058 0.006758 0.000000
endloop
endfacet
facet normal -0.635456 0.772137 0.000000
outer loop
vertex 0.003058 0.006758 0.150000
vertex 0.003058 0.006758 0.000000
vertex 0.002737 0.006494 0.000000
endloop
endfacet
facet normal -0.622432 0.782674 -0.000046
outer loop
vertex 0.002901 0.006633 0.150000
vertex 0.003058 0.006758 0.150000
vertex 0.002737 0.006494 0.000000
endloop
endfacet
facet normal -0.624167 0.781291 -0.000043
outer loop
vertex 0.002901 0.006633 0.150000
vertex 0.002737 0.006494 0.000000
vertex 0.002558 0.006351 0.000000
endloop
endfacet
facet normal -0.647479 0.762084 0.000046
outer loop
vertex 0.002737 0.006494 0.150000
vertex 0.002901 0.006633 0.150000
vertex 0.002558 0.006351 0.000000
endloop
endfacet
facet normal -0.606323 0.795219 -0.000035
outer loop
vertex 0.002737 0.006494 0.150000
vertex 0.002558 0.006351 0.000000
vertex 0.002370 0.006207 0.000000
endloop
endfacet
facet normal -0.624167 0.781291 0.000036
outer loop
vertex 0.002558 0.006351 0.150000
vertex 0.002737 0.006494 0.150000
vertex 0.002370 0.006207 0.000000
endloop
endfacet
facet normal -0.592254 0.805751 -0.000028
outer loop
vertex 0.002558 0.006351 0.150000
vertex 0.002370 0.006207 0.000000
vertex 0.002177 0.006066 0.000000
endloop
endfacet
facet normal -0.606322 0.795219 0.000028
outer loop
vertex 0.002370 0.006207 0.150000
vertex 0.002558 0.006351 0.150000
vertex 0.002177 0.006066 0.000000
endloop
endfacet
facet normal -0.580892 0.813981 -0.000022
outer loop
vertex 0.002370 0.006207 0.150000
vertex 0.002177 0.006066 0.000000
vertex 0.001987 0.005930 0.000000
endloop
endfacet
facet normal -0.592254 0.805751 0.000022
outer loop
vertex 0.002177 0.006066 0.150000
vertex 0.002370 0.006207 0.150000
vertex 0.001987 0.005930 0.000000
endloop
endfacet
facet normal -0.571527 0.820583 -0.000018
outer loop
vertex 0.002177 0.006066 0.150000
vertex 0.001987 0.005930 0.000000
vertex 0.001803 0.005802 0.000000
endloop
endfacet
facet normal -0.580891 0.813981 0.000017
outer loop
vertex 0.001987 0.005930 0.150000
vertex 0.002177 0.006066 0.150000
vertex 0.001803 0.005802 0.000000
endloop
endfacet
facet normal -0.546976 0.837148 0.000000
outer loop
vertex 0.001481 0.005584 0.000000
vertex 0.001169 0.005380 0.000000
vertex 0.001169 0.005380 0.150000
endloop
endfacet
facet normal -0.560557 0.828116 -0.000020
outer loop
vertex 0.001987 0.005930 0.150000
vertex 0.001803 0.005802 0.000000
vertex 0.001481 0.005584 0.000000
endloop
endfacet
facet normal -0.571528 0.820583 0.000035
outer loop
vertex 0.001803 0.005802 0.150000
vertex 0.001987 0.005930 0.150000
vertex 0.001481 0.005584 0.000000
endloop
endfacet
facet normal -0.546975 0.837149 0.000000
outer loop
vertex 0.001481 0.005584 0.000000
vertex 0.001169 0.005380 0.150000
vertex 0.001481 0.005584 0.150000
endloop
endfacet
facet normal -0.560557 0.828116 0.000000
outer loop
vertex 0.001481 0.005584 0.000000
vertex 0.001481 0.005584 0.150000
vertex 0.001803 0.005802 0.150000
endloop
endfacet
facet normal -0.994504 0.104699 0.000000
outer loop
vertex 0.000028 0.002428 0.150000
vertex 0.000028 0.002428 0.000000
vertex 0.000000 0.002161 0.000000
endloop
endfacet
facet normal -0.994504 0.104699 0.000000
outer loop
vertex 0.000028 0.002428 0.150000
vertex 0.000000 0.002161 0.000000
vertex 0.000000 0.002161 0.150000
endloop
endfacet
facet normal 0.716619 -0.697464 0.000000
outer loop
vertex 0.007653 0.001358 0.150000
vertex 0.007653 0.001358 0.000000
vertex 0.007780 0.001488 0.000000
endloop
endfacet
facet normal 0.716615 -0.697469 0.000000
outer loop
vertex 0.007653 0.001358 0.150000
vertex 0.007780 0.001488 0.000000
vertex 0.007780 0.001488 0.150000
endloop
endfacet
facet normal 0.781367 -0.624071 0.000000
outer loop
vertex 0.007780 0.001488 0.150000
vertex 0.007780 0.001488 0.000000
vertex 0.007896 0.001633 0.000000
endloop
endfacet
facet normal 0.781371 -0.624066 0.000000
outer loop
vertex 0.007780 0.001488 0.150000
vertex 0.007896 0.001633 0.000000
vertex 0.007896 0.001633 0.150000
endloop
endfacet
facet normal 0.611579 0.791183 0.000000
outer loop
vertex 0.007560 0.007942 0.150000
vertex 0.007560 0.007942 0.000000
vertex 0.007459 0.008020 0.000000
endloop
endfacet
facet normal 0.611585 0.791179 0.000000
outer loop
vertex 0.007560 0.007942 0.150000
vertex 0.007459 0.008020 0.000000
vertex 0.007459 0.008020 0.150000
endloop
endfacet
facet normal -0.965112 0.261838 0.000000
outer loop
vertex 0.000215 0.003117 0.150000
vertex 0.000215 0.003117 0.000000
vertex 0.000028 0.002428 0.000000
endloop
endfacet
facet normal -0.965112 0.261838 0.000000
outer loop
vertex 0.000215 0.003117 0.150000
vertex 0.000028 0.002428 0.000000
vertex 0.000028 0.002428 0.150000
endloop
endfacet
facet normal -0.329706 -0.944084 0.000000
outer loop
vertex 0.001139 0.000710 0.150000
vertex 0.000881 0.000800 0.150000
vertex 0.000881 0.000800 0.000000
endloop
endfacet
facet normal 0.000000 0.000000 1.000000
outer loop
vertex 0.000881 0.000800 0.000000
vertex 0.001139 0.000710 0.000000
vertex 0.001412 0.000623 0.000000
endloop
endfacet
facet normal 0.000000 0.000000 1.000000
outer loop
vertex 0.001412 0.000623 0.000000
vertex 0.001695 0.000540 0.000000
vertex 0.001984 0.000462 0.000000
endloop
endfacet
facet normal -0.261808 -0.965120 0.000000
outer loop
vertex 0.001984 0.000462 0.000000
vertex 0.001984 0.000462 0.150000
vertex 0.001695 0.000540 0.150000
endloop
endfacet
facet normal -0.302718 -0.953080 -0.000052
outer loop
vertex 0.001412 0.000623 0.150000
vertex 0.001139 0.000710 0.150000
vertex 0.000881 0.000800 0.000000
endloop
endfacet
facet normal -0.280539 -0.959842 -0.000039
outer loop
vertex 0.001984 0.000462 0.000000
vertex 0.001695 0.000540 0.150000
vertex 0.001412 0.000623 0.150000
endloop
endfacet
facet normal 0.000000 0.000000 1.000000
outer loop
vertex 0.000881 0.000800 0.000000
vertex 0.001412 0.000623 0.000000
vertex 0.001984 0.000462 0.000000
endloop
endfacet
facet normal -0.292948 -0.956129 -0.000090
outer loop
vertex 0.000881 0.000800 0.000000
vertex 0.001984 0.000462 0.000000
vertex 0.001412 0.000623 0.150000
endloop
endfacet
facet normal -0.363025 0.931779 0.000000
outer loop
vertex 0.004768 0.007891 0.000000
vertex 0.004250 0.007689 0.000000
vertex 0.004250 0.007689 0.150000
endloop
endfacet
facet normal -0.363025 0.931780 0.000000
outer loop
vertex 0.004768 0.007891 0.000000
vertex 0.004250 0.007689 0.150000
vertex 0.004768 0.007891 0.150000
endloop
endfacet
facet normal -0.797798 0.602925 0.000000
outer loop
vertex 0.003646 0.007325 0.150000
vertex 0.003646 0.007325 0.000000
vertex 0.003570 0.007225 0.000000
endloop
endfacet
facet normal -0.797798 0.602925 0.000000
outer loop
vertex 0.003646 0.007325 0.150000
vertex 0.003570 0.007225 0.000000
vertex 0.003570 0.007225 0.150000
endloop
endfacet
facet normal 0.045179 0.998979 0.000000
outer loop
vertex 0.007209 0.008107 0.150000
vertex 0.007209 0.008107 0.000000
vertex 0.007055 0.008114 0.000000
endloop
endfacet
facet normal 0.045179 0.998979 0.000000
outer loop
vertex 0.007209 0.008107 0.150000
vertex 0.007055 0.008114 0.000000
vertex 0.007055 0.008114 0.150000
endloop
endfacet
facet normal 0.745544 0.666456 0.000000
outer loop
vertex 0.007648 0.007842 0.150000
vertex 0.007648 0.007842 0.000000
vertex 0.007560 0.007942 0.000000
endloop
endfacet
facet normal 0.745539 0.666462 0.000000
outer loop
vertex 0.007648 0.007842 0.150000
vertex 0.007560 0.007942 0.000000
vertex 0.007560 0.007942 0.150000
endloop
endfacet
facet normal -0.108299 -0.994118 0.000000
outer loop
vertex 0.004177 0.000028 0.000000
vertex 0.004318 0.000013 0.000000
vertex 0.004318 0.000013 0.150000
endloop
endfacet
facet normal -0.108300 -0.994118 0.000000
outer loop
vertex 0.004177 0.000028 0.000000
vertex 0.004318 0.000013 0.150000
vertex 0.004177 0.000028 0.150000
endloop
endfacet
facet normal -0.128929 -0.991654 0.000000
outer loop
vertex 0.004039 0.000046 0.000000
vertex 0.004177 0.000028 0.000000
vertex 0.004177 0.000028 0.150000
endloop
endfacet
facet normal -0.128929 -0.991654 0.000000
outer loop
vertex 0.004039 0.000046 0.000000
vertex 0.004177 0.000028 0.150000
vertex 0.004039 0.000046 0.150000
endloop
endfacet
facet normal -0.131360 -0.991335 0.000000
outer loop
vertex 0.003901 0.000065 0.000000
vertex 0.004039 0.000046 0.000000
vertex 0.004039 0.000046 0.150000
endloop
endfacet
facet normal -0.131360 -0.991335 0.000000
outer loop
vertex 0.003901 0.000065 0.000000
vertex 0.004039 0.000046 0.150000
vertex 0.003901 0.000065 0.150000
endloop
endfacet
facet normal -0.140785 -0.990040 0.000000
outer loop
vertex 0.003744 0.000087 0.000000
vertex 0.003901 0.000065 0.000000
vertex 0.003901 0.000065 0.150000
endloop
endfacet
facet normal -0.140785 -0.990040 0.000000
outer loop
vertex 0.003744 0.000087 0.000000
vertex 0.003901 0.000065 0.150000
vertex 0.003744 0.000087 0.150000
endloop
endfacet
facet normal -0.161998 -0.986791 0.000000
outer loop
vertex 0.003554 0.000118 0.000000
vertex 0.003744 0.000087 0.000000
vertex 0.003744 0.000087 0.150000
endloop
endfacet
facet normal -0.161999 -0.986791 0.000000
outer loop
vertex 0.003554 0.000118 0.000000
vertex 0.003744 0.000087 0.150000
vertex 0.003554 0.000118 0.150000
endloop
endfacet
facet normal -0.178128 -0.984007 0.000000
outer loop
vertex 0.003335 0.000158 0.000000
vertex 0.003554 0.000118 0.000000
vertex 0.003554 0.000118 0.150000
endloop
endfacet
facet normal -0.178128 -0.984007 0.000000
outer loop
vertex 0.003335 0.000158 0.000000
vertex 0.003554 0.000118 0.150000
vertex 0.003335 0.000158 0.150000
endloop
endfacet
facet normal -0.191945 -0.981405 0.000000
outer loop
vertex 0.003093 0.000205 0.000000
vertex 0.003335 0.000158 0.000000
vertex 0.003335 0.000158 0.150000
endloop
endfacet
facet normal -0.191946 -0.981405 0.000000
outer loop
vertex 0.003093 0.000205 0.000000
vertex 0.003335 0.000158 0.150000
vertex 0.003093 0.000205 0.150000
endloop
endfacet
facet normal -0.204840 -0.978795 0.000000
outer loop
vertex 0.002832 0.000260 0.000000
vertex 0.003093 0.000205 0.000000
vertex 0.003093 0.000205 0.150000
endloop
endfacet
facet normal -0.204841 -0.978795 0.000000
outer loop
vertex 0.002832 0.000260 0.000000
vertex 0.003093 0.000205 0.150000
vertex 0.002832 0.000260 0.150000
endloop
endfacet
facet normal -0.217661 -0.976024 0.000000
outer loop
vertex 0.002557 0.000321 0.000000
vertex 0.002832 0.000260 0.000000
vertex 0.002832 0.000260 0.150000
endloop
endfacet
facet normal -0.217661 -0.976024 0.000000
outer loop
vertex 0.002557 0.000321 0.000000
vertex 0.002832 0.000260 0.150000
vertex 0.002557 0.000321 0.150000
endloop
endfacet
facet normal -0.245555 -0.969383 0.000000
outer loop
vertex 0.001984 0.000462 0.150000
vertex 0.001984 0.000462 0.000000
vertex 0.002272 0.000389 0.000000
endloop
endfacet
facet normal -0.231042 -0.972944 0.000000
outer loop
vertex 0.002272 0.000389 0.000000
vertex 0.002557 0.000321 0.000000
vertex 0.002557 0.000321 0.150000
endloop
endfacet
facet normal -0.245555 -0.969383 0.000000
outer loop
vertex 0.002272 0.000389 0.150000
vertex 0.001984 0.000462 0.150000
vertex 0.002272 0.000389 0.000000
endloop
endfacet
facet normal -0.231042 -0.972944 0.000000
outer loop
vertex 0.002272 0.000389 0.000000
vertex 0.002557 0.000321 0.150000
vertex 0.002272 0.000389 0.150000
endloop
endfacet
facet normal -0.803437 -0.595390 0.000000
outer loop
vertex 0.000212 0.001216 0.150000
vertex 0.000212 0.001216 0.000000
vertex 0.000273 0.001134 0.000000
endloop
endfacet
facet normal -0.803437 -0.595390 0.000000
outer loop
vertex 0.000212 0.001216 0.150000
vertex 0.000273 0.001134 0.000000
vertex 0.000273 0.001134 0.150000
endloop
endfacet
facet normal 0.984367 0.176131 0.000000
outer loop
vertex 0.008421 0.005715 0.000000
vertex 0.008390 0.005891 0.000000
vertex 0.008390 0.005891 0.150000
endloop
endfacet
facet normal 0.984368 0.176123 0.000000
outer loop
vertex 0.008421 0.005715 0.000000
vertex 0.008390 0.005891 0.150000
vertex 0.008421 0.005715 0.150000
endloop
endfacet
facet normal 0.990244 0.139346 0.000000
outer loop
vertex 0.008447 0.005533 0.000000
vertex 0.008421 0.005715 0.000000
vertex 0.008421 0.005715 0.150000
endloop
endfacet
facet normal 0.990241 0.139363 0.000000
outer loop
vertex 0.008447 0.005533 0.000000
vertex 0.008421 0.005715 0.150000
vertex 0.008447 0.005533 0.150000
endloop
endfacet
facet normal 0.995560 0.094128 0.000000
outer loop
vertex 0.008622 0.003714 0.150000
vertex 0.008622 0.003714 0.000000
vertex 0.008469 0.005341 0.000000
endloop
endfacet
facet normal 0.993691 0.112155 0.000000
outer loop
vertex 0.008469 0.005341 0.000000
vertex 0.008447 0.005533 0.000000
vertex 0.008447 0.005533 0.150000
endloop
endfacet
facet normal 0.995560 0.094129 0.000000
outer loop
vertex 0.008469 0.005341 0.150000
vertex 0.008622 0.003714 0.150000
vertex 0.008469 0.005341 0.000000
endloop
endfacet
facet normal 0.993693 0.112139 0.000000
outer loop
vertex 0.008447 0.005533 0.150000
vertex 0.008469 0.005341 0.150000
vertex 0.008469 0.005341 0.000000
endloop
endfacet
facet normal 0.992864 -0.119251 0.000000
outer loop
vertex 0.008599 0.002995 0.150000
vertex 0.008599 0.002995 0.000000
vertex 0.008623 0.003200 0.000000
endloop
endfacet
facet normal 0.992865 -0.119244 0.000000
outer loop
vertex 0.008599 0.002995 0.150000
vertex 0.008623 0.003200 0.000000
vertex 0.008623 0.003200 0.150000
endloop
endfacet
facet normal -0.990637 -0.136522 0.000000
outer loop
vertex 0.000109 0.001703 0.000000
vertex 0.000153 0.001389 0.000000
vertex 0.000153 0.001389 0.150000
endloop
endfacet
facet normal -0.990637 -0.136522 0.000000
outer loop
vertex 0.000109 0.001703 0.000000
vertex 0.000153 0.001389 0.150000
vertex 0.000109 0.001703 0.150000
endloop
endfacet
facet normal 0.885041 0.465513 0.000000
outer loop
vertex 0.007800 0.007585 0.150000
vertex 0.007800 0.007585 0.000000
vertex 0.007727 0.007723 0.000000
endloop
endfacet
facet normal 0.885041 0.465513 0.000000
outer loop
vertex 0.007800 0.007585 0.150000
vertex 0.007727 0.007723 0.000000
vertex 0.007727 0.007723 0.150000
endloop
endfacet
facet normal -0.249675 0.968330 0.000000
outer loop
vertex 0.005081 0.007972 0.000000
vertex 0.004768 0.007891 0.000000
vertex 0.004768 0.007891 0.150000
endloop
endfacet
facet normal -0.249675 0.968330 0.000000
outer loop
vertex 0.005081 0.007972 0.000000
vertex 0.004768 0.007891 0.150000
vertex 0.005081 0.007972 0.150000
endloop
endfacet
facet normal 0.432270 0.901744 0.000000
outer loop
vertex 0.007459 0.008020 0.150000
vertex 0.007459 0.008020 0.000000
vertex 0.007343 0.008075 0.000000
endloop
endfacet
facet normal 0.432265 0.901747 0.000000
outer loop
vertex 0.007459 0.008020 0.150000
vertex 0.007343 0.008075 0.000000
vertex 0.007343 0.008075 0.150000
endloop
endfacet
facet normal -0.942656 -0.333767 0.000000
outer loop
vertex 0.000030 0.001969 0.150000
vertex 0.000030 0.001969 0.000000
vertex 0.000079 0.001829 0.000000
endloop
endfacet
facet normal -0.942656 -0.333767 0.000000
outer loop
vertex 0.000030 0.001969 0.150000
vertex 0.000079 0.001829 0.000000
vertex 0.000079 0.001829 0.150000
endloop
endfacet
facet normal 0.913859 -0.406032 0.000000
outer loop
vertex 0.008443 0.002513 0.150000
vertex 0.008443 0.002513 0.000000
vertex 0.008507 0.002658 0.000000
endloop
endfacet
facet normal 0.913855 -0.406040 0.000000
outer loop
vertex 0.008443 0.002513 0.150000
vertex 0.008507 0.002658 0.000000
vertex 0.008507 0.002658 0.150000
endloop
endfacet
facet normal -0.724524 0.689249 0.000000
outer loop
vertex 0.003570 0.007225 0.150000
vertex 0.003570 0.007225 0.000000
vertex 0.003448 0.007097 0.000000
endloop
endfacet
facet normal -0.724524 0.689249 0.000000
outer loop
vertex 0.003570 0.007225 0.150000
vertex 0.003448 0.007097 0.000000
vertex 0.003448 0.007097 0.150000
endloop
endfacet
endsolid Exported from Blender-3.6.8
