solid Exported from Blender-3.6.8
facet normal 0.000000 0.000000 -1.000000
outer loop
vertex 0.005272 0.010650 0.000000
vertex 0.007254 0.008743 0.000000
vertex 0.007395 0.008592 0.000000
endloop
endfacet
facet normal 0.000000 0.000000 -1.000000
outer loop
vertex 0.007395 0.008592 0.000000
vertex 0.007538 0.008429 0.000000
vertex 0.007611 0.008341 0.000000
endloop
endfacet
facet normal 0.000000 0.000000 -1.000000
outer loop
vertex 0.007611 0.008341 0.000000
vertex 0.007765 0.008147 0.000000
vertex 0.008065 0.007743 0.000000
endloop
endfacet
facet normal 0.000000 0.000000 -1.000000
outer loop
vertex 0.008065 0.007743 0.000000
vertex 0.008203 0.007545 0.000000
vertex 0.008366 0.007290 0.000000
endloop
endfacet
facet normal 0.000000 0.000000 -1.000000
outer loop
vertex 0.008366 0.007290 0.000000
vertex 0.008579 0.006932 0.000000
vertex 0.009223 0.005782 0.000000
endloop
endfacet
facet normal 0.000000 0.000000 -1.000000
outer loop
vertex 0.008366 0.007290 0.000000
vertex 0.009223 0.005782 0.000000
vertex 0.010062 0.004198 0.000000
endloop
endfacet
facet normal 0.000000 0.000000 -1.000000
outer loop
vertex 0.007611 0.008341 0.000000
vertex 0.008065 0.007743 0.000000
vertex 0.008366 0.007290 0.000000
endloop
endfacet
facet normal 0.000000 0.000000 -1.000000
outer loop
vertex 0.005272 0.010650 0.000000
vertex 0.007395 0.008592 0.000000
vertex 0.007611 0.008341 0.000000
endloop
endfacet
facet normal 0.000000 0.000000 -1.000000
outer loop
vertex 0.004828 0.011025 0.000000
vertex 0.005063 0.010834 0.000000
vertex 0.005272 0.010650 0.000000
endloop
endfacet
facet normal 0.000000 0.000000 -1.000000
outer loop
vertex 0.002611 0.012377 0.000000
vertex 0.002926 0.012240 0.000000
vertex 0.004828 0.011025 0.000000
endloop
endfacet
facet normal 0.000000 0.000000 -1.000000
outer loop
vertex 0.002389 0.012417 0.000000
vertex 0.002497 0.012407 0.000000
vertex 0.002611 0.012377 0.000000
endloop
endfacet
facet normal 0.000000 0.000000 -1.000000
outer loop
vertex 0.001818 0.012374 0.000000
vertex 0.002123 0.012414 0.000000
vertex 0.002389 0.012417 0.000000
endloop
endfacet
facet normal 0.000000 0.000000 -1.000000
outer loop
vertex 0.001366 0.012236 0.000000
vertex 0.001510 0.012293 0.000000
vertex 0.001818 0.012374 0.000000
endloop
endfacet
facet normal 0.000000 0.000000 -1.000000
outer loop
vertex 0.001119 0.012087 0.000000
vertex 0.001234 0.012168 0.000000
vertex 0.001366 0.012236 0.000000
endloop
endfacet
facet normal 0.000000 0.000000 -1.000000
outer loop
vertex 0.000957 0.011888 0.000000
vertex 0.001025 0.011994 0.000000
vertex 0.001119 0.012087 0.000000
endloop
endfacet
facet normal 0.000000 0.000000 -1.000000
outer loop
vertex 0.000850 0.011649 0.000000
vertex 0.000903 0.011771 0.000000
vertex 0.000957 0.011888 0.000000
endloop
endfacet
facet normal 0.000000 0.000000 -1.000000
outer loop
vertex 0.000744 0.011389 0.000000
vertex 0.000796 0.011521 0.000000
vertex 0.000850 0.011649 0.000000
endloop
endfacet
facet normal 0.000000 0.000000 -1.000000
outer loop
vertex 0.000552 0.010836 0.000000
vertex 0.000644 0.011116 0.000000
vertex 0.000744 0.011389 0.000000
endloop
endfacet
facet normal 0.000000 0.000000 -1.000000
outer loop
vertex 0.000345 0.010047 0.000000
vertex 0.000470 0.010557 0.000000
vertex 0.000552 0.010836 0.000000
endloop
endfacet
facet normal 0.000000 0.000000 -1.000000
outer loop
vertex 0.000113 0.009313 0.000000
vertex 0.000135 0.009389 0.000000
vertex 0.000288 0.009851 0.000000
endloop
endfacet
facet normal 0.000000 0.000000 -1.000000
outer loop
vertex 0.000345 0.010047 0.000000
vertex 0.000552 0.010836 0.000000
vertex 0.000744 0.011389 0.000000
endloop
endfacet
facet normal 0.000000 0.000000 -1.000000
outer loop
vertex 0.000093 0.009234 0.000000
vertex 0.000113 0.009313 0.000000
vertex 0.000288 0.009851 0.000000
endloop
endfacet
facet normal 0.000000 0.000000 -1.000000
outer loop
vertex 0.000288 0.009851 0.000000
vertex 0.000345 0.010047 0.000000
vertex 0.000744 0.011389 0.000000
endloop
endfacet
facet normal 0.000000 0.000000 -1.000000
outer loop
vertex 0.000744 0.011389 0.000000
vertex 0.000850 0.011649 0.000000
vertex 0.000957 0.011888 0.000000
endloop
endfacet
facet normal 0.000000 0.000000 -1.000000
outer loop
vertex 0.000957 0.011888 0.000000
vertex 0.001119 0.012087 0.000000
vertex 0.001366 0.012236 0.000000
endloop
endfacet
facet normal 0.000000 0.000000 -1.000000
outer loop
vertex 0.001366 0.012236 0.000000
vertex 0.001818 0.012374 0.000000
vertex 0.002389 0.012417 0.000000
endloop
endfacet
facet normal 0.000000 0.000000 -1.000000
outer loop
vertex 0.002389 0.012417 0.000000
vertex 0.002611 0.012377 0.000000
vertex 0.004828 0.011025 0.000000
endloop
endfacet
facet normal 0.000000 0.000000 -1.000000
outer loop
vertex 0.004828 0.011025 0.000000
vertex 0.005272 0.010650 0.000000
vertex 0.007611 0.008341 0.000000
endloop
endfacet
facet normal 0.000000 0.000000 -1.000000
outer loop
vertex 0.007611 0.008341 0.000000
vertex 0.008366 0.007290 0.000000
vertex 0.010062 0.004198 0.000000
endloop
endfacet
facet normal 0.000000 0.000000 -1.000000
outer loop
vertex 0.007611 0.008341 0.000000
vertex 0.010062 0.004198 0.000000
vertex 0.010524 0.003397 0.000000
endloop
endfacet
facet normal 0.000000 0.000000 -1.000000
outer loop
vertex 0.002389 0.012417 0.000000
vertex 0.004828 0.011025 0.000000
vertex 0.007611 0.008341 0.000000
endloop
endfacet
facet normal 0.000000 0.000000 -1.000000
outer loop
vertex 0.000957 0.011888 0.000000
vertex 0.001366 0.012236 0.000000
vertex 0.002389 0.012417 0.000000
endloop
endfacet
facet normal 0.000000 0.000000 -1.000000
outer loop
vertex 0.000288 0.009851 0.000000
vertex 0.000744 0.011389 0.000000
vertex 0.000957 0.011888 0.000000
endloop
endfacet
facet normal 0.000000 0.000000 -1.000000
outer loop
vertex 0.000075 0.009141 0.000000
vertex 0.000093 0.009234 0.000000
vertex 0.000288 0.009851 0.000000
endloop
endfacet
facet normal 0.000000 0.000000 -1.000000
outer loop
vertex 0.000034 0.008784 0.000000
vertex 0.000059 0.009033 0.000000
vertex 0.000075 0.009141 0.000000
endloop
endfacet
facet normal 0.000000 0.000000 -1.000000
outer loop
vertex 0.000000 0.008063 0.000000
vertex 0.000017 0.008525 0.000000
vertex 0.000034 0.008784 0.000000
endloop
endfacet
facet normal 0.000000 0.000000 -1.000000
outer loop
vertex 0.002538 0.004130 0.000000
vertex 0.000071 0.007908 0.000000
vertex 0.000000 0.008063 0.000000
endloop
endfacet
facet normal 0.000000 0.000000 -1.000000
outer loop
vertex 0.003515 0.003049 0.000000
vertex 0.003227 0.003313 0.000000
vertex 0.002538 0.004130 0.000000
endloop
endfacet
facet normal 0.000000 0.000000 -1.000000
outer loop
vertex 0.004578 0.002231 0.000000
vertex 0.004390 0.002369 0.000000
vertex 0.003515 0.003049 0.000000
endloop
endfacet
facet normal 0.000000 0.000000 -1.000000
outer loop
vertex 0.005390 0.001730 0.000000
vertex 0.004767 0.002101 0.000000
vertex 0.004578 0.002231 0.000000
endloop
endfacet
facet normal 0.000000 0.000000 -1.000000
outer loop
vertex 0.005914 0.001472 0.000000
vertex 0.005637 0.001604 0.000000
vertex 0.005390 0.001730 0.000000
endloop
endfacet
facet normal 0.000000 0.000000 -1.000000
outer loop
vertex 0.007690 0.000724 0.000000
vertex 0.007145 0.000941 0.000000
vertex 0.005914 0.001472 0.000000
endloop
endfacet
facet normal 0.000000 0.000000 -1.000000
outer loop
vertex 0.008448 0.000461 0.000000
vertex 0.008200 0.000541 0.000000
vertex 0.007690 0.000724 0.000000
endloop
endfacet
facet normal 0.000000 0.000000 -1.000000
outer loop
vertex 0.010533 0.000035 0.000000
vertex 0.008692 0.000390 0.000000
vertex 0.008448 0.000461 0.000000
endloop
endfacet
facet normal 0.000000 0.000000 -1.000000
outer loop
vertex 0.010865 0.000003 0.000000
vertex 0.010708 0.000015 0.000000
vertex 0.010533 0.000035 0.000000
endloop
endfacet
facet normal 0.000000 0.000000 -1.000000
outer loop
vertex 0.011121 0.000007 0.000000
vertex 0.011003 0.000000 0.000000
vertex 0.010865 0.000003 0.000000
endloop
endfacet
facet normal 0.000000 0.000000 -1.000000
outer loop
vertex 0.011292 0.000053 0.000000
vertex 0.011218 0.000024 0.000000
vertex 0.011121 0.000007 0.000000
endloop
endfacet
facet normal 0.000000 0.000000 -1.000000
outer loop
vertex 0.011582 0.000373 0.000000
vertex 0.011343 0.000095 0.000000
vertex 0.011292 0.000053 0.000000
endloop
endfacet
facet normal 0.000000 0.000000 -1.000000
outer loop
vertex 0.011708 0.000586 0.000000
vertex 0.011649 0.000473 0.000000
vertex 0.011582 0.000373 0.000000
endloop
endfacet
facet normal 0.000000 0.000000 -1.000000
outer loop
vertex 0.011788 0.000856 0.000000
vertex 0.011756 0.000713 0.000000
vertex 0.011708 0.000586 0.000000
endloop
endfacet
facet normal 0.000000 0.000000 -1.000000
outer loop
vertex 0.011782 0.001191 0.000000
vertex 0.011798 0.001015 0.000000
vertex 0.011788 0.000856 0.000000
endloop
endfacet
facet normal 0.000000 0.000000 -1.000000
outer loop
vertex 0.011654 0.001597 0.000000
vertex 0.011736 0.001385 0.000000
vertex 0.011782 0.001191 0.000000
endloop
endfacet
facet normal 0.000000 0.000000 -1.000000
outer loop
vertex 0.011468 0.001973 0.000000
vertex 0.011558 0.001800 0.000000
vertex 0.011654 0.001597 0.000000
endloop
endfacet
facet normal 0.000000 0.000000 -1.000000
outer loop
vertex 0.011298 0.002255 0.000000
vertex 0.011382 0.002122 0.000000
vertex 0.011468 0.001973 0.000000
endloop
endfacet
facet normal 0.000000 0.000000 -1.000000
outer loop
vertex 0.010805 0.002955 0.000000
vertex 0.011298 0.002255 0.000000
vertex 0.011468 0.001973 0.000000
endloop
endfacet
facet normal 0.000000 0.000000 -1.000000
outer loop
vertex 0.011468 0.001973 0.000000
vertex 0.011654 0.001597 0.000000
vertex 0.011782 0.001191 0.000000
endloop
endfacet
facet normal 0.000000 0.000000 -1.000000
outer loop
vertex 0.011782 0.001191 0.000000
vertex 0.011788 0.000856 0.000000
vertex 0.011708 0.000586 0.000000
endloop
endfacet
facet normal 0.000000 0.000000 -1.000000
outer loop
vertex 0.011708 0.000586 0.000000
vertex 0.011582 0.000373 0.000000
vertex 0.011292 0.000053 0.000000
endloop
endfacet
facet normal 0.000000 0.000000 -1.000000
outer loop
vertex 0.011292 0.000053 0.000000
vertex 0.011121 0.000007 0.000000
vertex 0.010865 0.000003 0.000000
endloop
endfacet
facet normal 0.000000 0.000000 -1.000000
outer loop
vertex 0.010865 0.000003 0.000000
vertex 0.010533 0.000035 0.000000
vertex 0.008448 0.000461 0.000000
endloop
endfacet
facet normal 0.000000 0.000000 -1.000000
outer loop
vertex 0.008448 0.000461 0.000000
vertex 0.007690 0.000724 0.000000
vertex 0.005914 0.001472 0.000000
endloop
endfacet
facet normal 0.000000 0.000000 -1.000000
outer loop
vertex 0.005914 0.001472 0.000000
vertex 0.005390 0.001730 0.000000
vertex 0.004578 0.002231 0.000000
endloop
endfacet
facet normal 0.000000 0.000000 -1.000000
outer loop
vertex 0.004578 0.002231 0.000000
vertex 0.003515 0.003049 0.000000
vertex 0.002538 0.004130 0.000000
endloop
endfacet
facet normal 0.000000 0.000000 -1.000000
outer loop
vertex 0.002538 0.004130 0.000000
vertex 0.000000 0.008063 0.000000
vertex 0.000034 0.008784 0.000000
endloop
endfacet
facet normal 0.000000 0.000000 -1.000000
outer loop
vertex 0.000034 0.008784 0.000000
vertex 0.000075 0.009141 0.000000
vertex 0.000288 0.009851 0.000000
endloop
endfacet
facet normal 0.000000 0.000000 -1.000000
outer loop
vertex 0.000288 0.009851 0.000000
vertex 0.000957 0.011888 0.000000
vertex 0.002389 0.012417 0.000000
endloop
endfacet
facet normal 0.000000 0.000000 -1.000000
outer loop
vertex 0.002389 0.012417 0.000000
vertex 0.007611 0.008341 0.000000
vertex 0.010524 0.003397 0.000000
endloop
endfacet
facet normal 0.000000 0.000000 -1.000000
outer loop
vertex 0.010805 0.002955 0.000000
vertex 0.011468 0.001973 0.000000
vertex 0.011782 0.001191 0.000000
endloop
endfacet
facet normal 0.000000 0.000000 -1.000000
outer loop
vertex 0.002389 0.012417 0.000000
vertex 0.010524 0.003397 0.000000
vertex 0.010805 0.002955 0.000000
endloop
endfacet
facet normal 0.000000 0.000000 -1.000000
outer loop
vertex 0.000034 0.008784 0.000000
vertex 0.000288 0.009851 0.000000
vertex 0.002389 0.012417 0.000000
endloop
endfacet
facet normal 0.000000 0.000000 -1.000000
outer loop
vertex 0.004578 0.002231 0.000000
vertex 0.002538 0.004130 0.000000
vertex 0.000034 0.008784 0.000000
endloop
endfacet
facet normal 0.000000 0.000000 -1.000000
outer loop
vertex 0.008448 0.000461 0.000000
vertex 0.005914 0.001472 0.000000
vertex 0.004578 0.002231 0.000000
endloop
endfacet
facet normal 0.000000 0.000000 -1.000000
outer loop
vertex 0.011292 0.000053 0.000000
vertex 0.010865 0.000003 0.000000
vertex 0.008448 0.000461 0.000000
endloop
endfacet
facet normal 0.000000 0.000000 -1.000000
outer loop
vertex 0.011782 0.001191 0.000000
vertex 0.011708 0.000586 0.000000
vertex 0.011292 0.000053 0.000000
endloop
endfacet
facet normal 0.000000 0.000000 -1.000000
outer loop
vertex 0.002389 0.012417 0.000000
vertex 0.010805 0.002955 0.000000
vertex 0.011782 0.001191 0.000000
endloop
endfacet
facet normal 0.000000 0.000000 -1.000000
outer loop
vertex 0.004578 0.002231 0.000000
vertex 0.000034 0.008784 0.000000
vertex 0.002389 0.012417 0.000000
endloop
endfacet
facet normal 0.000000 0.000000 -1.000000
outer loop
vertex 0.011292 0.000053 0.000000
vertex 0.008448 0.000461 0.000000
vertex 0.004578 0.002231 0.000000
endloop
endfacet
facet normal 0.000000 0.000000 -1.000000
outer loop
vertex 0.002389 0.012417 0.000000
vertex 0.011782 0.001191 0.000000
vertex 0.011292 0.000053 0.000000
endloop
endfacet
facet normal 0.000000 0.000000 -1.000000
outer loop
vertex 0.011292 0.000053 0.000000
vertex 0.004578 0.002231 0.000000
vertex 0.002389 0.012417 0.000000
endloop
endfacet
facet normal -0.842041 0.539414 0.000000
outer loop
vertex 0.001025 0.011994 0.150000
vertex 0.001025 0.011994 0.000000
vertex 0.000957 0.011888 0.000000
endloop
endfacet
facet normal -0.842041 0.539414 0.000000
outer loop
vertex 0.001025 0.011994 0.150000
vertex 0.000957 0.011888 0.000000
vertex 0.000957 0.011888 0.150000
endloop
endfacet
facet normal -0.130709 0.991421 0.000000
outer loop
vertex 0.002123 0.012414 0.150000
vertex 0.002123 0.012414 0.000000
vertex 0.001818 0.012374 0.000000
endloop
endfacet
facet normal -0.130709 0.991421 0.000000
outer loop
vertex 0.002123 0.012414 0.150000
vertex 0.001818 0.012374 0.000000
vertex 0.001818 0.012374 0.150000
endloop
endfacet
facet normal 0.976610 -0.215016 0.000000
outer loop
vertex 0.011756 0.000713 0.150000
vertex 0.011756 0.000713 0.000000
vertex 0.011788 0.000856 0.000000
endloop
endfacet
facet normal 0.976608 -0.215026 0.000000
outer loop
vertex 0.011756 0.000713 0.150000
vertex 0.011788 0.000856 0.000000
vertex 0.011788 0.000856 0.150000
endloop
endfacet
facet normal 0.399373 0.916788 0.000000
outer loop
vertex 0.002926 0.012240 0.000000
vertex 0.002611 0.012377 0.000000
vertex 0.002611 0.012377 0.150000
endloop
endfacet
facet normal 0.399374 0.916788 0.000000
outer loop
vertex 0.002926 0.012240 0.000000
vertex 0.002611 0.012377 0.150000
vertex 0.002926 0.012240 0.150000
endloop
endfacet
facet normal 0.363910 -0.931434 0.000000
outer loop
vertex 0.011218 0.000024 0.150000
vertex 0.011218 0.000024 0.000000
vertex 0.011292 0.000053 0.000000
endloop
endfacet
facet normal 0.363917 -0.931431 0.000000
outer loop
vertex 0.011218 0.000024 0.150000
vertex 0.011292 0.000053 0.000000
vertex 0.011292 0.000053 0.150000
endloop
endfacet
facet normal 0.831781 -0.555104 0.000000
outer loop
vertex 0.011582 0.000373 0.150000
vertex 0.011582 0.000373 0.000000
vertex 0.011649 0.000473 0.000000
endloop
endfacet
facet normal 0.831775 -0.555113 0.000000
outer loop
vertex 0.011582 0.000373 0.150000
vertex 0.011649 0.000473 0.000000
vertex 0.011649 0.000473 0.150000
endloop
endfacet
facet normal 0.098253 0.995161 0.000000
outer loop
vertex 0.002497 0.012407 0.150000
vertex 0.002497 0.012407 0.000000
vertex 0.002389 0.012417 0.000000
endloop
endfacet
facet normal 0.098252 0.995162 0.000000
outer loop
vertex 0.002497 0.012407 0.150000
vertex 0.002389 0.012417 0.000000
vertex 0.002389 0.012417 0.150000
endloop
endfacet
facet normal 0.630650 0.776067 0.000000
outer loop
vertex 0.005063 0.010834 0.000000
vertex 0.004828 0.011025 0.000000
vertex 0.004828 0.011025 0.150000
endloop
endfacet
facet normal 0.630650 0.776067 0.000000
outer loop
vertex 0.005063 0.010834 0.000000
vertex 0.004828 0.011025 0.150000
vertex 0.005063 0.010834 0.150000
endloop
endfacet
facet normal 0.693376 0.720576 0.000000
outer loop
vertex 0.007254 0.008743 0.150000
vertex 0.007254 0.008743 0.000000
vertex 0.005272 0.010650 0.000000
endloop
endfacet
facet normal 0.660877 0.750494 0.000000
outer loop
vertex 0.005272 0.010650 0.000000
vertex 0.005063 0.010834 0.000000
vertex 0.005063 0.010834 0.150000
endloop
endfacet
facet normal 0.693376 0.720576 0.000000
outer loop
vertex 0.005272 0.010650 0.150000
vertex 0.007254 0.008743 0.150000
vertex 0.005272 0.010650 0.000000
endloop
endfacet
facet normal 0.660876 0.750495 0.000000
outer loop
vertex 0.005063 0.010834 0.150000
vertex 0.005272 0.010650 0.150000
vertex 0.005272 0.010650 0.000000
endloop
endfacet
facet normal 0.001902 0.000000 0.999998
outer loop
vertex 0.007395 0.008592 0.150000
vertex 0.007254 0.008743 0.150000
vertex 0.005272 0.010650 0.150000
endloop
endfacet
facet normal 0.000000 0.000000 1.000000
outer loop
vertex 0.005272 0.010650 0.150000
vertex 0.005063 0.010834 0.150000
vertex 0.004828 0.011025 0.150000
endloop
endfacet
facet normal 0.000030 0.000000 1.000000
outer loop
vertex 0.004828 0.011025 0.150000
vertex 0.002926 0.012240 0.150000
vertex 0.002611 0.012377 0.150000
endloop
endfacet
facet normal 0.000115 0.000000 1.000000
outer loop
vertex 0.002611 0.012377 0.150000
vertex 0.002497 0.012407 0.150000
vertex 0.002389 0.012417 0.150000
endloop
endfacet
facet normal 0.000000 0.000000 1.000000
outer loop
vertex 0.002389 0.012417 0.150000
vertex 0.002123 0.012414 0.150000
vertex 0.001818 0.012374 0.150000
endloop
endfacet
facet normal 0.000311 0.000000 1.000000
outer loop
vertex 0.001818 0.012374 0.150000
vertex 0.001510 0.012293 0.150000
vertex 0.001366 0.012236 0.150000
endloop
endfacet
facet normal -0.000661 0.000000 1.000000
outer loop
vertex 0.001366 0.012236 0.150000
vertex 0.001234 0.012168 0.150000
vertex 0.001119 0.012087 0.150000
endloop
endfacet
facet normal 0.000000 0.000000 1.000000
outer loop
vertex 0.001119 0.012087 0.150000
vertex 0.001025 0.011994 0.150000
vertex 0.000957 0.011888 0.150000
endloop
endfacet
facet normal 0.010606 0.000000 0.999944
outer loop
vertex 0.000957 0.011888 0.150000
vertex 0.000903 0.011771 0.150000
vertex 0.000850 0.011649 0.150000
endloop
endfacet
facet normal 0.000000 0.000000 1.000000
outer loop
vertex 0.000850 0.011649 0.150000
vertex 0.000796 0.011521 0.150000
vertex 0.000744 0.011389 0.150000
endloop
endfacet
facet normal 0.000000 0.000000 1.000000
outer loop
vertex 0.000744 0.011389 0.150000
vertex 0.000644 0.011116 0.150000
vertex 0.000552 0.010836 0.150000
endloop
endfacet
facet normal 0.000000 0.000000 1.000000
outer loop
vertex 0.000552 0.010836 0.150000
vertex 0.000470 0.010557 0.150000
vertex 0.000345 0.010047 0.150000
endloop
endfacet
facet normal -0.001110 0.000000 0.999999
outer loop
vertex 0.000288 0.009851 0.150000
vertex 0.000135 0.009389 0.150000
vertex 0.000113 0.009313 0.150000
endloop
endfacet
facet normal -0.000382 0.000000 1.000000
outer loop
vertex 0.000744 0.011389 0.150000
vertex 0.000552 0.010836 0.150000
vertex 0.000345 0.010047 0.150000
endloop
endfacet
facet normal 0.000580 0.000000 1.000000
outer loop
vertex 0.000288 0.009851 0.150000
vertex 0.000113 0.009313 0.150000
vertex 0.000093 0.009234 0.150000
endloop
endfacet
facet normal 0.004730 0.000000 0.999989
outer loop
vertex 0.000744 0.011389 0.150000
vertex 0.000345 0.010047 0.150000
vertex 0.000288 0.009851 0.150000
endloop
endfacet
facet normal -0.002672 0.000000 0.999996
outer loop
vertex 0.000957 0.011888 0.150000
vertex 0.000850 0.011649 0.150000
vertex 0.000744 0.011389 0.150000
endloop
endfacet
facet normal -0.000145 0.000000 1.000000
outer loop
vertex 0.001366 0.012236 0.150000
vertex 0.001119 0.012087 0.150000
vertex 0.000957 0.011888 0.150000
endloop
endfacet
facet normal 0.000000 0.000000 1.000000
outer loop
vertex 0.002389 0.012417 0.150000
vertex 0.001818 0.012374 0.150000
vertex 0.001366 0.012236 0.150000
endloop
endfacet
facet normal -0.000112 0.000000 1.000000
outer loop
vertex 0.004828 0.011025 0.150000
vertex 0.002611 0.012377 0.150000
vertex 0.002389 0.012417 0.150000
endloop
endfacet
facet normal -0.000247 0.000000 1.000000
outer loop
vertex 0.007395 0.008592 0.150000
vertex 0.005272 0.010650 0.150000
vertex 0.004828 0.011025 0.150000
endloop
endfacet
facet normal -0.005774 0.000000 0.999983
outer loop
vertex 0.007611 0.008341 0.150000
vertex 0.007538 0.008429 0.150000
vertex 0.007395 0.008592 0.150000
endloop
endfacet
facet normal 0.000000 0.000000 1.000000
outer loop
vertex 0.008065 0.007743 0.150000
vertex 0.007765 0.008147 0.150000
vertex 0.007611 0.008341 0.150000
endloop
endfacet
facet normal 0.001225 0.000000 0.999999
outer loop
vertex 0.008366 0.007290 0.150000
vertex 0.008203 0.007545 0.150000
vertex 0.008065 0.007743 0.150000
endloop
endfacet
facet normal 0.000000 0.000000 1.000000
outer loop
vertex 0.009223 0.005782 0.150000
vertex 0.008579 0.006932 0.150000
vertex 0.008366 0.007290 0.150000
endloop
endfacet
facet normal -0.000315 0.000000 1.000000
outer loop
vertex 0.010062 0.004198 0.150000
vertex 0.009223 0.005782 0.150000
vertex 0.008366 0.007290 0.150000
endloop
endfacet
facet normal 0.000000 0.000000 1.000000
outer loop
vertex 0.008366 0.007290 0.150000
vertex 0.008065 0.007743 0.150000
vertex 0.007611 0.008341 0.150000
endloop
endfacet
facet normal 0.000000 0.000000 1.000000
outer loop
vertex 0.007611 0.008341 0.150000
vertex 0.007395 0.008592 0.150000
vertex 0.004828 0.011025 0.150000
endloop
endfacet
facet normal 0.000010 0.000000 1.000000
outer loop
vertex 0.004828 0.011025 0.150000
vertex 0.002389 0.012417 0.150000
vertex 0.001366 0.012236 0.150000
endloop
endfacet
facet normal -0.000112 0.000000 1.000000
outer loop
vertex 0.001366 0.012236 0.150000
vertex 0.000957 0.011888 0.150000
vertex 0.000744 0.011389 0.150000
endloop
endfacet
facet normal -0.000266 0.000000 1.000000
outer loop
vertex 0.000288 0.009851 0.150000
vertex 0.000093 0.009234 0.150000
vertex 0.000075 0.009141 0.150000
endloop
endfacet
facet normal 0.000000 0.000000 1.000000
outer loop
vertex 0.001366 0.012236 0.150000
vertex 0.000744 0.011389 0.150000
vertex 0.000288 0.009851 0.150000
endloop
endfacet
facet normal 0.000010 0.000000 1.000000
outer loop
vertex 0.007611 0.008341 0.150000
vertex 0.004828 0.011025 0.150000
vertex 0.001366 0.012236 0.150000
endloop
endfacet
facet normal 0.000000 0.000000 1.000000
outer loop
vertex 0.010062 0.004198 0.150000
vertex 0.008366 0.007290 0.150000
vertex 0.007611 0.008341 0.150000
endloop
endfacet
facet normal 0.002456 0.000000 0.999997
outer loop
vertex 0.010524 0.003397 0.150000
vertex 0.010062 0.004198 0.150000
vertex 0.007611 0.008341 0.150000
endloop
endfacet
facet normal 0.000000 0.000000 1.000000
outer loop
vertex 0.007611 0.008341 0.150000
vertex 0.001366 0.012236 0.150000
vertex 0.000288 0.009851 0.150000
endloop
endfacet
facet normal 0.001203 0.000000 0.999999
outer loop
vertex 0.000288 0.009851 0.150000
vertex 0.000075 0.009141 0.150000
vertex 0.000059 0.009033 0.150000
endloop
endfacet
facet normal 0.000000 0.000000 1.000000
outer loop
vertex 0.000059 0.009033 0.150000
vertex 0.000034 0.008784 0.150000
vertex 0.000017 0.008525 0.150000
endloop
endfacet
facet normal 0.000000 0.000000 1.000000
outer loop
vertex 0.000017 0.008525 0.150000
vertex 0.000000 0.008063 0.150000
vertex 0.000071 0.007908 0.150000
endloop
endfacet
facet normal 0.000098 0.000000 1.000000
outer loop
vertex 0.000071 0.007908 0.150000
vertex 0.002538 0.004130 0.150000
vertex 0.003227 0.003313 0.150000
endloop
endfacet
facet normal -0.000415 0.000000 1.000000
outer loop
vertex 0.003227 0.003313 0.150000
vertex 0.003515 0.003049 0.150000
vertex 0.004390 0.002369 0.150000
endloop
endfacet
facet normal 0.000000 0.000000 1.000000
outer loop
vertex 0.004390 0.002369 0.150000
vertex 0.004578 0.002231 0.150000
vertex 0.004767 0.002101 0.150000
endloop
endfacet
facet normal 0.000275 0.000000 1.000000
outer loop
vertex 0.004767 0.002101 0.150000
vertex 0.005390 0.001730 0.150000
vertex 0.005637 0.001604 0.150000
endloop
endfacet
facet normal 0.000000 0.000000 1.000000
outer loop
vertex 0.005637 0.001604 0.150000
vertex 0.005914 0.001472 0.150000
vertex 0.007145 0.000941 0.150000
endloop
endfacet
facet normal 0.000000 0.000000 1.000000
outer loop
vertex 0.007145 0.000941 0.150000
vertex 0.007690 0.000724 0.150000
vertex 0.008200 0.000541 0.150000
endloop
endfacet
facet normal 0.000000 0.000000 1.000000
outer loop
vertex 0.008200 0.000541 0.150000
vertex 0.008448 0.000461 0.150000
vertex 0.008692 0.000390 0.150000
endloop
endfacet
facet normal 0.000107 0.000000 1.000000
outer loop
vertex 0.008692 0.000390 0.150000
vertex 0.010533 0.000035 0.150000
vertex 0.010708 0.000015 0.150000
endloop
endfacet
facet normal -0.000196 0.000000 1.000000
outer loop
vertex 0.010708 0.000015 0.150000
vertex 0.010865 0.000003 0.150000
vertex 0.011003 0.000000 0.150000
endloop
endfacet
facet normal 0.000000 0.000000 1.000000
outer loop
vertex 0.011003 0.000000 0.150000
vertex 0.011121 0.000007 0.150000
vertex 0.011218 0.000024 0.150000
endloop
endfacet
facet normal -0.001118 0.000000 0.999999
outer loop
vertex 0.011218 0.000024 0.150000
vertex 0.011292 0.000053 0.150000
vertex 0.011343 0.000095 0.150000
endloop
endfacet
facet normal 0.002387 0.000000 0.999997
outer loop
vertex 0.011343 0.000095 0.150000
vertex 0.011582 0.000373 0.150000
vertex 0.011649 0.000473 0.150000
endloop
endfacet
facet normal 0.000000 0.000000 1.000000
outer loop
vertex 0.011649 0.000473 0.150000
vertex 0.011708 0.000586 0.150000
vertex 0.011756 0.000713 0.150000
endloop
endfacet
facet normal -0.001031 0.000000 1.000000
outer loop
vertex 0.011756 0.000713 0.150000
vertex 0.011788 0.000856 0.150000
vertex 0.011798 0.001015 0.150000
endloop
endfacet
facet normal 0.000000 0.000000 1.000000
outer loop
vertex 0.011798 0.001015 0.150000
vertex 0.011782 0.001191 0.150000
vertex 0.011736 0.001385 0.150000
endloop
endfacet
facet normal 0.001874 0.000000 0.999998
outer loop
vertex 0.011736 0.001385 0.150000
vertex 0.011654 0.001597 0.150000
vertex 0.011558 0.001800 0.150000
endloop
endfacet
facet normal -0.002617 0.000000 0.999997
outer loop
vertex 0.011558 0.001800 0.150000
vertex 0.011468 0.001973 0.150000
vertex 0.011382 0.002122 0.150000
endloop
endfacet
facet normal 0.000000 0.000000 1.000000
outer loop
vertex 0.011382 0.002122 0.150000
vertex 0.011298 0.002255 0.150000
vertex 0.010805 0.002955 0.150000
endloop
endfacet
facet normal 0.000001 0.000000 1.000000
outer loop
vertex 0.010524 0.003397 0.150000
vertex 0.007611 0.008341 0.150000
vertex 0.000288 0.009851 0.150000
endloop
endfacet
facet normal 0.000000 0.000000 1.000000
outer loop
vertex 0.011558 0.001800 0.150000
vertex 0.011382 0.002122 0.150000
vertex 0.010805 0.002955 0.150000
endloop
endfacet
facet normal -0.000043 0.000000 1.000000
outer loop
vertex 0.010805 0.002955 0.150000
vertex 0.010524 0.003397 0.150000
vertex 0.000288 0.009851 0.150000
endloop
endfacet
facet normal -0.000177 0.000000 1.000000
outer loop
vertex 0.000288 0.009851 0.150000
vertex 0.000059 0.009033 0.150000
vertex 0.000017 0.008525 0.150000
endloop
endfacet
facet normal -0.000068 0.000000 1.000000
outer loop
vertex 0.000017 0.008525 0.150000
vertex 0.000071 0.007908 0.150000
vertex 0.003227 0.003313 0.150000
endloop
endfacet
facet normal 0.000330 0.000000 1.000000
outer loop
vertex 0.003227 0.003313 0.150000
vertex 0.004390 0.002369 0.150000
vertex 0.004767 0.002101 0.150000
endloop
endfacet
facet normal 0.000168 0.000000 1.000000
outer loop
vertex 0.004767 0.002101 0.150000
vertex 0.005637 0.001604 0.150000
vertex 0.007145 0.000941 0.150000
endloop
endfacet
facet normal 0.000098 0.000000 1.000000
outer loop
vertex 0.007145 0.000941 0.150000
vertex 0.008200 0.000541 0.150000
vertex 0.008692 0.000390 0.150000
endloop
endfacet
facet normal -0.000028 0.000000 1.000000
outer loop
vertex 0.008692 0.000390 0.150000
vertex 0.010708 0.000015 0.150000
vertex 0.011003 0.000000 0.150000
endloop
endfacet
facet normal 0.000149 0.000000 1.000000
outer loop
vertex 0.011003 0.000000 0.150000
vertex 0.011218 0.000024 0.150000
vertex 0.011343 0.000095 0.150000
endloop
endfacet
facet normal -0.000441 0.000000 1.000000
outer loop
vertex 0.011343 0.000095 0.150000
vertex 0.011649 0.000473 0.150000
vertex 0.011756 0.000713 0.150000
endloop
endfacet
facet normal 0.000000 0.000000 1.000000
outer loop
vertex 0.011756 0.000713 0.150000
vertex 0.011798 0.001015 0.150000
vertex 0.011736 0.001385 0.150000
endloop
endfacet
facet normal 0.000000 0.000000 1.000000
outer loop
vertex 0.011736 0.001385 0.150000
vertex 0.011558 0.001800 0.150000
vertex 0.010805 0.002955 0.150000
endloop
endfacet
facet normal -0.000002 0.000000 1.000000
outer loop
vertex 0.010805 0.002955 0.150000
vertex 0.000288 0.009851 0.150000
vertex 0.000017 0.008525 0.150000
endloop
endfacet
facet normal 0.000014 0.000000 1.000000
outer loop
vertex 0.000017 0.008525 0.150000
vertex 0.003227 0.003313 0.150000
vertex 0.004767 0.002101 0.150000
endloop
endfacet
facet normal -0.000150 0.000000 1.000000
outer loop
vertex 0.004767 0.002101 0.150000
vertex 0.007145 0.000941 0.150000
vertex 0.008692 0.000390 0.150000
endloop
endfacet
facet normal -0.000010 0.000000 1.000000
outer loop
vertex 0.008692 0.000390 0.150000
vertex 0.011003 0.000000 0.150000
vertex 0.011343 0.000095 0.150000
endloop
endfacet
facet normal 0.000050 0.000000 1.000000
outer loop
vertex 0.011343 0.000095 0.150000
vertex 0.011756 0.000713 0.150000
vertex 0.011736 0.001385 0.150000
endloop
endfacet
facet normal 0.000000 0.000000 1.000000
outer loop
vertex 0.011736 0.001385 0.150000
vertex 0.010805 0.002955 0.150000
vertex 0.000017 0.008525 0.150000
endloop
endfacet
facet normal 0.000000 0.000000 1.000000
outer loop
vertex 0.000017 0.008525 0.150000
vertex 0.004767 0.002101 0.150000
vertex 0.008692 0.000390 0.150000
endloop
endfacet
facet normal 0.000000 0.000000 1.000000
outer loop
vertex 0.008692 0.000390 0.150000
vertex 0.011343 0.000095 0.150000
vertex 0.011736 0.001385 0.150000
endloop
endfacet
facet normal 0.000002 0.000000 1.000000
outer loop
vertex 0.000017 0.008525 0.150000
vertex 0.008692 0.000390 0.150000
vertex 0.011736 0.001385 0.150000
endloop
endfacet
facet normal 0.250940 0.968003 0.000000
outer loop
vertex 0.002611 0.012377 0.150000
vertex 0.002611 0.012377 0.000000
vertex 0.002497 0.012407 0.000000
endloop
endfacet
facet normal 0.250940 0.968002 0.000000
outer loop
vertex 0.002611 0.012377 0.150000
vertex 0.002497 0.012407 0.000000
vertex 0.002497 0.012407 0.150000
endloop
endfacet
facet normal -0.112792 -0.993619 0.000000
outer loop
vertex 0.010708 0.000015 0.150000
vertex 0.010533 0.000035 0.150000
vertex 0.010533 0.000035 0.000000
endloop
endfacet
facet normal -0.112792 -0.993619 0.000000
outer loop
vertex 0.010708 0.000015 0.150000
vertex 0.010533 0.000035 0.000000
vertex 0.010708 0.000015 0.000000
endloop
endfacet
facet normal -0.022737 -0.999741 0.000000
outer loop
vertex 0.011003 0.000000 0.000000
vertex 0.011003 0.000000 0.150000
vertex 0.010865 0.000003 0.150000
endloop
endfacet
facet normal -0.075999 -0.997108 0.000000
outer loop
vertex 0.010865 0.000003 0.150000
vertex 0.010708 0.000015 0.150000
vertex 0.010708 0.000015 0.000000
endloop
endfacet
facet normal -0.022737 -0.999741 0.000000
outer loop
vertex 0.010865 0.000003 0.000000
vertex 0.011003 0.000000 0.000000
vertex 0.010865 0.000003 0.150000
endloop
endfacet
facet normal -0.075999 -0.997108 0.000000
outer loop
vertex 0.010708 0.000015 0.000000
vertex 0.010865 0.000003 0.000000
vertex 0.010865 0.000003 0.150000
endloop
endfacet
facet normal 0.000000 0.000000 1.000000
outer loop
vertex 0.005637 0.001604 0.000000
vertex 0.005914 0.001472 0.000000
vertex 0.007145 0.000941 0.000000
endloop
endfacet
facet normal -0.369447 -0.929252 0.000000
outer loop
vertex 0.007145 0.000941 0.000000
vertex 0.007690 0.000724 0.000000
vertex 0.007690 0.000724 0.150000
endloop
endfacet
facet normal -0.369446 -0.929252 0.000000
outer loop
vertex 0.007145 0.000941 0.000000
vertex 0.007690 0.000724 0.150000
vertex 0.007145 0.000941 0.150000
endloop
endfacet
facet normal 0.000000 0.000000 1.000000
outer loop
vertex 0.005390 0.001730 0.000000
vertex 0.005637 0.001604 0.000000
vertex 0.007145 0.000941 0.000000
endloop
endfacet
facet normal -0.454283 -0.890858 0.000000
outer loop
vertex 0.005637 0.001604 0.150000
vertex 0.005390 0.001730 0.150000
vertex 0.005390 0.001730 0.000000
endloop
endfacet
facet normal -0.396221 -0.918155 0.000000
outer loop
vertex 0.007145 0.000941 0.000000
vertex 0.007145 0.000941 0.150000
vertex 0.005914 0.001472 0.150000
endloop
endfacet
facet normal -0.429240 -0.903190 -0.000052
outer loop
vertex 0.005914 0.001472 0.150000
vertex 0.005637 0.001604 0.150000
vertex 0.005390 0.001730 0.000000
endloop
endfacet
facet normal -0.409964 -0.912102 -0.000134
outer loop
vertex 0.007145 0.000941 0.000000
vertex 0.005914 0.001472 0.150000
vertex 0.005390 0.001730 0.000000
endloop
endfacet
facet normal 0.933217 0.359314 0.000000
outer loop
vertex 0.011736 0.001385 0.150000
vertex 0.011736 0.001385 0.000000
vertex 0.011654 0.001597 0.000000
endloop
endfacet
facet normal 0.933217 0.359314 0.000000
outer loop
vertex 0.011736 0.001385 0.150000
vertex 0.011654 0.001597 0.000000
vertex 0.011654 0.001597 0.150000
endloop
endfacet
facet normal -0.837351 -0.546665 0.000000
outer loop
vertex 0.000071 0.007908 0.000000
vertex 0.002538 0.004130 0.000000
vertex 0.002538 0.004130 0.150000
endloop
endfacet
facet normal -0.837351 -0.546665 0.000000
outer loop
vertex 0.000071 0.007908 0.000000
vertex 0.002538 0.004130 0.150000
vertex 0.000071 0.007908 0.150000
endloop
endfacet
facet normal -0.675928 -0.736968 0.000000
outer loop
vertex 0.003227 0.003313 0.150000
vertex 0.003227 0.003313 0.000000
vertex 0.003515 0.003049 0.000000
endloop
endfacet
facet normal -0.675929 -0.736967 0.000000
outer loop
vertex 0.003227 0.003313 0.150000
vertex 0.003515 0.003049 0.000000
vertex 0.003515 0.003049 0.150000
endloop
endfacet
facet normal 0.885008 -0.465576 0.000000
outer loop
vertex 0.011649 0.000473 0.150000
vertex 0.011649 0.000473 0.000000
vertex 0.011708 0.000586 0.000000
endloop
endfacet
facet normal 0.885013 -0.465567 0.000000
outer loop
vertex 0.011649 0.000473 0.150000
vertex 0.011708 0.000586 0.000000
vertex 0.011708 0.000586 0.150000
endloop
endfacet
facet normal -0.568905 -0.822403 0.000000
outer loop
vertex 0.004578 0.002231 0.000000
vertex 0.004767 0.002101 0.000000
vertex 0.004767 0.002101 0.150000
endloop
endfacet
facet normal -0.568905 -0.822403 0.000000
outer loop
vertex 0.004578 0.002231 0.000000
vertex 0.004767 0.002101 0.150000
vertex 0.004578 0.002231 0.150000
endloop
endfacet
facet normal -0.613953 -0.789342 0.000000
outer loop
vertex 0.003515 0.003049 0.150000
vertex 0.003515 0.003049 0.000000
vertex 0.004390 0.002369 0.000000
endloop
endfacet
facet normal -0.590434 -0.807086 0.000000
outer loop
vertex 0.004390 0.002369 0.000000
vertex 0.004578 0.002231 0.000000
vertex 0.004578 0.002231 0.150000
endloop
endfacet
facet normal -0.613953 -0.789342 0.000000
outer loop
vertex 0.004390 0.002369 0.150000
vertex 0.003515 0.003049 0.150000
vertex 0.004390 0.002369 0.000000
endloop
endfacet
facet normal -0.590432 -0.807087 0.000000
outer loop
vertex 0.004578 0.002231 0.150000
vertex 0.004390 0.002369 0.150000
vertex 0.004390 0.002369 0.000000
endloop
endfacet
facet normal -0.281243 -0.959637 0.000000
outer loop
vertex 0.008448 0.000461 0.000000
vertex 0.008692 0.000390 0.000000
vertex 0.008692 0.000390 0.150000
endloop
endfacet
facet normal -0.281242 -0.959637 0.000000
outer loop
vertex 0.008448 0.000461 0.000000
vertex 0.008692 0.000390 0.150000
vertex 0.008448 0.000461 0.150000
endloop
endfacet
facet normal -0.337779 -0.941225 0.000000
outer loop
vertex 0.007690 0.000724 0.150000
vertex 0.007690 0.000724 0.000000
vertex 0.008200 0.000541 0.000000
endloop
endfacet
facet normal -0.306081 -0.952006 0.000000
outer loop
vertex 0.008200 0.000541 0.000000
vertex 0.008448 0.000461 0.000000
vertex 0.008448 0.000461 0.150000
endloop
endfacet
facet normal -0.337780 -0.941225 0.000000
outer loop
vertex 0.008200 0.000541 0.150000
vertex 0.007690 0.000724 0.150000
vertex 0.008200 0.000541 0.000000
endloop
endfacet
facet normal -0.306079 -0.952006 0.000000
outer loop
vertex 0.008448 0.000461 0.150000
vertex 0.008200 0.000541 0.150000
vertex 0.008200 0.000541 0.000000
endloop
endfacet
facet normal 0.758149 -0.652082 0.000000
outer loop
vertex 0.011343 0.000095 0.000000
vertex 0.011582 0.000373 0.000000
vertex 0.011582 0.000373 0.150000
endloop
endfacet
facet normal 0.758147 -0.652084 0.000000
outer loop
vertex 0.011343 0.000095 0.000000
vertex 0.011582 0.000373 0.150000
vertex 0.011343 0.000095 0.150000
endloop
endfacet
facet normal -0.013783 0.999905 0.000000
outer loop
vertex 0.002389 0.012417 0.150000
vertex 0.002389 0.012417 0.000000
vertex 0.002123 0.012414 0.000000
endloop
endfacet
facet normal -0.013783 0.999905 0.000000
outer loop
vertex 0.002389 0.012417 0.150000
vertex 0.002123 0.012414 0.000000
vertex 0.002123 0.012414 0.150000
endloop
endfacet
facet normal 0.634216 -0.773156 0.000000
outer loop
vertex 0.011292 0.000053 0.150000
vertex 0.011292 0.000053 0.000000
vertex 0.011343 0.000095 0.000000
endloop
endfacet
facet normal 0.634216 -0.773156 0.000000
outer loop
vertex 0.011292 0.000053 0.150000
vertex 0.011343 0.000095 0.000000
vertex 0.011343 0.000095 0.150000
endloop
endfacet
facet normal 0.996076 0.088504 0.000000
outer loop
vertex 0.011798 0.001015 0.150000
vertex 0.011798 0.001015 0.000000
vertex 0.011782 0.001191 0.000000
endloop
endfacet
facet normal 0.996077 0.088486 0.000000
outer loop
vertex 0.011798 0.001015 0.150000
vertex 0.011782 0.001191 0.000000
vertex 0.011782 0.001191 0.150000
endloop
endfacet
facet normal 0.731223 0.682138 0.000000
outer loop
vertex 0.007395 0.008592 0.000000
vertex 0.007254 0.008743 0.000000
vertex 0.007254 0.008743 0.150000
endloop
endfacet
facet normal 0.731223 0.682138 0.000000
outer loop
vertex 0.007395 0.008592 0.000000
vertex 0.007254 0.008743 0.150000
vertex 0.007395 0.008592 0.150000
endloop
endfacet
facet normal 0.751718 0.659485 0.000000
outer loop
vertex 0.007538 0.008429 0.000000
vertex 0.007395 0.008592 0.000000
vertex 0.007395 0.008592 0.150000
endloop
endfacet
facet normal 0.751718 0.659485 0.000000
outer loop
vertex 0.007538 0.008429 0.000000
vertex 0.007395 0.008592 0.150000
vertex 0.007538 0.008429 0.150000
endloop
endfacet
facet normal 0.768258 0.640140 0.000000
outer loop
vertex 0.007611 0.008341 0.000000
vertex 0.007538 0.008429 0.000000
vertex 0.007538 0.008429 0.150000
endloop
endfacet
facet normal 0.768258 0.640140 0.000000
outer loop
vertex 0.007611 0.008341 0.000000
vertex 0.007538 0.008429 0.150000
vertex 0.007611 0.008341 0.150000
endloop
endfacet
facet normal 0.784701 0.619874 0.000000
outer loop
vertex 0.007765 0.008147 0.000000
vertex 0.007611 0.008341 0.000000
vertex 0.007611 0.008341 0.150000
endloop
endfacet
facet normal 0.784707 0.619867 0.000000
outer loop
vertex 0.007765 0.008147 0.000000
vertex 0.007611 0.008341 0.150000
vertex 0.007765 0.008147 0.150000
endloop
endfacet
facet normal 0.819898 0.572509 0.000000
outer loop
vertex 0.008203 0.007545 0.150000
vertex 0.008203 0.007545 0.000000
vertex 0.008065 0.007743 0.000000
endloop
endfacet
facet normal 0.802395 0.596794 0.000000
outer loop
vertex 0.008065 0.007743 0.000000
vertex 0.007765 0.008147 0.000000
vertex 0.007765 0.008147 0.150000
endloop
endfacet
facet normal 0.819901 0.572505 0.000000
outer loop
vertex 0.008065 0.007743 0.150000
vertex 0.008203 0.007545 0.150000
vertex 0.008065 0.007743 0.000000
endloop
endfacet
facet normal 0.802398 0.596790 0.000000
outer loop
vertex 0.007765 0.008147 0.150000
vertex 0.008065 0.007743 0.150000
vertex 0.008065 0.007743 0.000000
endloop
endfacet
facet normal -0.253313 0.967384 0.000000
outer loop
vertex 0.001818 0.012374 0.150000
vertex 0.001818 0.012374 0.000000
vertex 0.001510 0.012293 0.000000
endloop
endfacet
facet normal -0.253313 0.967384 0.000000
outer loop
vertex 0.001818 0.012374 0.150000
vertex 0.001510 0.012293 0.000000
vertex 0.001510 0.012293 0.150000
endloop
endfacet
facet normal -0.366208 0.930533 0.000000
outer loop
vertex 0.001510 0.012293 0.150000
vertex 0.001510 0.012293 0.000000
vertex 0.001366 0.012236 0.000000
endloop
endfacet
facet normal -0.366209 0.930533 0.000000
outer loop
vertex 0.001510 0.012293 0.150000
vertex 0.001366 0.012236 0.000000
vertex 0.001366 0.012236 0.150000
endloop
endfacet
facet normal -0.763773 -0.645485 0.000000
outer loop
vertex 0.002538 0.004130 0.000000
vertex 0.003227 0.003313 0.000000
vertex 0.003227 0.003313 0.150000
endloop
endfacet
facet normal -0.763773 -0.645485 0.000000
outer loop
vertex 0.002538 0.004130 0.000000
vertex 0.003227 0.003313 0.150000
vertex 0.002538 0.004130 0.150000
endloop
endfacet
facet normal -0.189235 -0.981932 0.000000
outer loop
vertex 0.008692 0.000390 0.000000
vertex 0.010533 0.000035 0.000000
vertex 0.010533 0.000035 0.150000
endloop
endfacet
facet normal -0.189234 -0.981932 0.000000
outer loop
vertex 0.008692 0.000390 0.000000
vertex 0.010533 0.000035 0.150000
vertex 0.008692 0.000390 0.150000
endloop
endfacet
facet normal 0.000000 0.000000 1.000000
outer loop
vertex 0.000288 0.009851 0.000000
vertex 0.000135 0.009389 0.000000
vertex 0.000113 0.009313 0.000000
endloop
endfacet
facet normal -0.969528 0.244981 0.000000
outer loop
vertex 0.000113 0.009313 0.000000
vertex 0.000093 0.009234 0.000000
vertex 0.000093 0.009234 0.150000
endloop
endfacet
facet normal -0.969528 0.244981 0.000000
outer loop
vertex 0.000113 0.009313 0.000000
vertex 0.000093 0.009234 0.150000
vertex 0.000113 0.009313 0.150000
endloop
endfacet
facet normal -0.950780 0.309866 0.000000
outer loop
vertex 0.000288 0.009851 0.000000
vertex 0.000113 0.009313 0.000000
vertex 0.000113 0.009313 0.150000
endloop
endfacet
facet normal -0.961541 0.274660 -0.000139
outer loop
vertex 0.000288 0.009851 0.000000
vertex 0.000113 0.009313 0.150000
vertex 0.000135 0.009389 0.150000
endloop
endfacet
facet normal 0.000000 0.000000 1.000000
outer loop
vertex 0.000552 0.010836 0.000000
vertex 0.000470 0.010557 0.000000
vertex 0.000345 0.010047 0.000000
endloop
endfacet
facet normal -0.960127 0.279564 -0.000122
outer loop
vertex 0.000345 0.010047 0.000000
vertex 0.000288 0.009851 0.000000
vertex 0.000135 0.009389 0.150000
endloop
endfacet
facet normal -0.948918 0.315522 0.000051
outer loop
vertex 0.000345 0.010047 0.000000
vertex 0.000135 0.009389 0.150000
vertex 0.000288 0.009851 0.150000
endloop
endfacet
facet normal 0.000000 0.000000 1.000000
outer loop
vertex 0.000644 0.011116 0.000000
vertex 0.000552 0.010836 0.000000
vertex 0.000345 0.010047 0.000000
endloop
endfacet
facet normal -0.938662 0.344838 0.000000
outer loop
vertex 0.000744 0.011389 0.150000
vertex 0.000744 0.011389 0.000000
vertex 0.000644 0.011116 0.000000
endloop
endfacet
facet normal -0.938662 0.344838 0.000000
outer loop
vertex 0.000644 0.011116 0.150000
vertex 0.000744 0.011389 0.150000
vertex 0.000644 0.011116 0.000000
endloop
endfacet
facet normal -0.963205 0.268766 -0.000015
outer loop
vertex 0.000644 0.011116 0.000000
vertex 0.000345 0.010047 0.000000
vertex 0.000288 0.009851 0.150000
endloop
endfacet
facet normal -0.960127 0.279564 0.000083
outer loop
vertex 0.000644 0.011116 0.000000
vertex 0.000288 0.009851 0.150000
vertex 0.000345 0.010047 0.150000
endloop
endfacet
facet normal -0.949713 0.313121 0.000000
outer loop
vertex 0.000552 0.010836 0.150000
vertex 0.000644 0.011116 0.150000
vertex 0.000644 0.011116 0.000000
endloop
endfacet
facet normal -0.971253 0.238048 -0.000235
outer loop
vertex 0.000644 0.011116 0.000000
vertex 0.000345 0.010047 0.150000
vertex 0.000470 0.010557 0.150000
endloop
endfacet
facet normal -0.960348 0.278802 -0.000071
outer loop
vertex 0.000470 0.010557 0.150000
vertex 0.000552 0.010836 0.150000
vertex 0.000644 0.011116 0.000000
endloop
endfacet
facet normal 0.176708 -0.984263 0.000000
outer loop
vertex 0.011121 0.000007 0.150000
vertex 0.011121 0.000007 0.000000
vertex 0.011218 0.000024 0.000000
endloop
endfacet
facet normal 0.176705 -0.984264 0.000000
outer loop
vertex 0.011121 0.000007 0.150000
vertex 0.011218 0.000024 0.000000
vertex 0.011218 0.000024 0.150000
endloop
endfacet
facet normal 0.538232 0.842797 0.000000
outer loop
vertex 0.004828 0.011025 0.000000
vertex 0.002926 0.012240 0.000000
vertex 0.002926 0.012240 0.150000
endloop
endfacet
facet normal 0.538232 0.842797 0.000000
outer loop
vertex 0.004828 0.011025 0.000000
vertex 0.002926 0.012240 0.150000
vertex 0.004828 0.011025 0.150000
endloop
endfacet
facet normal -0.909604 -0.415476 0.000000
outer loop
vertex 0.000000 0.008063 0.150000
vertex 0.000000 0.008063 0.000000
vertex 0.000071 0.007908 0.000000
endloop
endfacet
facet normal -0.909604 -0.415476 0.000000
outer loop
vertex 0.000000 0.008063 0.150000
vertex 0.000071 0.007908 0.000000
vertex 0.000071 0.007908 0.150000
endloop
endfacet
facet normal 0.936288 -0.351232 0.000000
outer loop
vertex 0.011708 0.000586 0.150000
vertex 0.011708 0.000586 0.000000
vertex 0.011756 0.000713 0.000000
endloop
endfacet
facet normal 0.936288 -0.351232 0.000000
outer loop
vertex 0.011708 0.000586 0.150000
vertex 0.011756 0.000713 0.000000
vertex 0.011756 0.000713 0.150000
endloop
endfacet
facet normal -0.704787 0.709419 0.000000
outer loop
vertex 0.001119 0.012087 0.150000
vertex 0.001119 0.012087 0.000000
vertex 0.001025 0.011994 0.000000
endloop
endfacet
facet normal -0.704786 0.709420 0.000000
outer loop
vertex 0.001119 0.012087 0.150000
vertex 0.001025 0.011994 0.000000
vertex 0.001025 0.011994 0.150000
endloop
endfacet
facet normal -0.511742 -0.859139 0.000000
outer loop
vertex 0.004767 0.002101 0.000000
vertex 0.005390 0.001730 0.000000
vertex 0.005390 0.001730 0.150000
endloop
endfacet
facet normal -0.511742 -0.859139 0.000000
outer loop
vertex 0.004767 0.002101 0.000000
vertex 0.005390 0.001730 0.150000
vertex 0.004767 0.002101 0.150000
endloop
endfacet
facet normal -0.573518 0.819193 0.000000
outer loop
vertex 0.001234 0.012168 0.150000
vertex 0.001234 0.012168 0.000000
vertex 0.001119 0.012087 0.000000
endloop
endfacet
facet normal -0.573519 0.819193 0.000000
outer loop
vertex 0.001234 0.012168 0.150000
vertex 0.001119 0.012087 0.000000
vertex 0.001119 0.012087 0.150000
endloop
endfacet
facet normal 0.997912 -0.064593 0.000000
outer loop
vertex 0.011788 0.000856 0.150000
vertex 0.011788 0.000856 0.000000
vertex 0.011798 0.001015 0.000000
endloop
endfacet
facet normal 0.997912 -0.064593 0.000000
outer loop
vertex 0.011788 0.000856 0.150000
vertex 0.011798 0.001015 0.000000
vertex 0.011798 0.001015 0.150000
endloop
endfacet
facet normal -0.999288 0.037717 0.000000
outer loop
vertex 0.000017 0.008525 0.000000
vertex 0.000000 0.008063 0.000000
vertex 0.000000 0.008063 0.150000
endloop
endfacet
facet normal -0.999288 0.037717 0.000000
outer loop
vertex 0.000017 0.008525 0.000000
vertex 0.000000 0.008063 0.150000
vertex 0.000017 0.008525 0.150000
endloop
endfacet
facet normal -0.997852 0.065503 0.000000
outer loop
vertex 0.000034 0.008784 0.000000
vertex 0.000017 0.008525 0.000000
vertex 0.000017 0.008525 0.150000
endloop
endfacet
facet normal -0.997852 0.065503 0.000000
outer loop
vertex 0.000034 0.008784 0.000000
vertex 0.000017 0.008525 0.150000
vertex 0.000034 0.008784 0.150000
endloop
endfacet
facet normal -0.989778 0.142617 0.000000
outer loop
vertex 0.000075 0.009141 0.150000
vertex 0.000075 0.009141 0.000000
vertex 0.000059 0.009033 0.000000
endloop
endfacet
facet normal -0.995090 0.098972 0.000000
outer loop
vertex 0.000059 0.009033 0.000000
vertex 0.000034 0.008784 0.000000
vertex 0.000034 0.008784 0.150000
endloop
endfacet
facet normal -0.989778 0.142617 0.000000
outer loop
vertex 0.000059 0.009033 0.150000
vertex 0.000075 0.009141 0.150000
vertex 0.000059 0.009033 0.000000
endloop
endfacet
facet normal -0.995090 0.098972 0.000000
outer loop
vertex 0.000059 0.009033 0.000000
vertex 0.000034 0.008784 0.150000
vertex 0.000059 0.009033 0.150000
endloop
endfacet
facet normal -0.460475 0.887672 0.000000
outer loop
vertex 0.001366 0.012236 0.150000
vertex 0.001366 0.012236 0.000000
vertex 0.001234 0.012168 0.000000
endloop
endfacet
facet normal -0.460475 0.887672 0.000000
outer loop
vertex 0.001366 0.012236 0.150000
vertex 0.001234 0.012168 0.000000
vertex 0.001234 0.012168 0.150000
endloop
endfacet
facet normal -0.929656 0.368428 0.000000
outer loop
vertex 0.000796 0.011521 0.000000
vertex 0.000744 0.011389 0.000000
vertex 0.000744 0.011389 0.150000
endloop
endfacet
facet normal -0.929656 0.368428 0.000000
outer loop
vertex 0.000796 0.011521 0.000000
vertex 0.000744 0.011389 0.150000
vertex 0.000796 0.011521 0.150000
endloop
endfacet
facet normal -0.923077 0.384616 0.000000
outer loop
vertex 0.000850 0.011649 0.000000
vertex 0.000796 0.011521 0.000000
vertex 0.000796 0.011521 0.150000
endloop
endfacet
facet normal -0.923076 0.384617 0.000000
outer loop
vertex 0.000850 0.011649 0.000000
vertex 0.000796 0.011521 0.150000
vertex 0.000850 0.011649 0.150000
endloop
endfacet
facet normal -0.907587 0.419863 0.000000
outer loop
vertex 0.000957 0.011888 0.150000
vertex 0.000957 0.011888 0.000000
vertex 0.000903 0.011771 0.000000
endloop
endfacet
facet normal -0.915810 0.401611 0.000000
outer loop
vertex 0.000903 0.011771 0.000000
vertex 0.000850 0.011649 0.000000
vertex 0.000850 0.011649 0.150000
endloop
endfacet
facet normal -0.907587 0.419863 0.000000
outer loop
vertex 0.000903 0.011771 0.150000
vertex 0.000957 0.011888 0.150000
vertex 0.000903 0.011771 0.000000
endloop
endfacet
facet normal -0.915810 0.401611 0.000000
outer loop
vertex 0.000903 0.011771 0.000000
vertex 0.000850 0.011649 0.150000
vertex 0.000903 0.011771 0.150000
endloop
endfacet
facet normal 0.972593 0.232514 0.000000
outer loop
vertex 0.011782 0.001191 0.150000
vertex 0.011782 0.001191 0.000000
vertex 0.011736 0.001385 0.000000
endloop
endfacet
facet normal 0.972593 0.232514 0.000000
outer loop
vertex 0.011782 0.001191 0.150000
vertex 0.011736 0.001385 0.000000
vertex 0.011736 0.001385 0.150000
endloop
endfacet
facet normal -0.981257 0.192702 0.000000
outer loop
vertex 0.000093 0.009234 0.150000
vertex 0.000093 0.009234 0.000000
vertex 0.000075 0.009141 0.000000
endloop
endfacet
facet normal -0.981257 0.192702 0.000000
outer loop
vertex 0.000093 0.009234 0.150000
vertex 0.000075 0.009141 0.000000
vertex 0.000075 0.009141 0.150000
endloop
endfacet
facet normal 0.056178 -0.998421 0.000000
outer loop
vertex 0.011003 0.000000 0.150000
vertex 0.011003 0.000000 0.000000
vertex 0.011121 0.000007 0.000000
endloop
endfacet
facet normal 0.056179 -0.998421 0.000000
outer loop
vertex 0.011003 0.000000 0.150000
vertex 0.011121 0.000007 0.000000
vertex 0.011121 0.000007 0.150000
endloop
endfacet
facet normal 0.000000 0.000000 -1.000000
outer loop
vertex 0.010805 0.002955 0.000000
vertex 0.010524 0.003397 0.000000
vertex 0.010062 0.004198 0.000000
endloop
endfacet
facet normal 0.000000 0.000000 -1.000000
outer loop
vertex 0.010805 0.002955 0.000000
vertex 0.010062 0.004198 0.000000
vertex 0.009223 0.005782 0.000000
endloop
endfacet
facet normal 0.000000 0.000000 -1.000000
outer loop
vertex 0.011298 0.002255 0.000000
vertex 0.010805 0.002955 0.000000
vertex 0.009223 0.005782 0.000000
endloop
endfacet
facet normal 0.000000 0.000000 -1.000000
outer loop
vertex 0.011298 0.002255 0.000000
vertex 0.009223 0.005782 0.000000
vertex 0.008579 0.006932 0.000000
endloop
endfacet
facet normal 0.000000 0.000000 -1.000000
outer loop
vertex 0.011382 0.002122 0.000000
vertex 0.011298 0.002255 0.000000
vertex 0.008579 0.006932 0.000000
endloop
endfacet
facet normal 0.842424 0.538815 0.000000
outer loop
vertex 0.008366 0.007290 0.000000
vertex 0.008203 0.007545 0.000000
vertex 0.008203 0.007545 0.150000
endloop
endfacet
facet normal 0.859373 0.511350 0.000065
outer loop
vertex 0.008579 0.006932 0.000000
vertex 0.008366 0.007290 0.000000
vertex 0.008203 0.007545 0.150000
endloop
endfacet
facet normal 0.842426 0.538812 -0.000090
outer loop
vertex 0.008579 0.006932 0.000000
vertex 0.008203 0.007545 0.150000
vertex 0.008366 0.007290 0.150000
endloop
endfacet
facet normal 0.864028 0.503444 0.000025
outer loop
vertex 0.011382 0.002122 0.000000
vertex 0.008579 0.006932 0.000000
vertex 0.008366 0.007290 0.150000
endloop
endfacet
facet normal 0.859372 0.511350 -0.000341
outer loop
vertex 0.011382 0.002122 0.000000
vertex 0.008366 0.007290 0.150000
vertex 0.008579 0.006932 0.150000
endloop
endfacet
facet normal 0.866813 0.498633 0.000206
outer loop
vertex 0.011468 0.001973 0.000000
vertex 0.011382 0.002122 0.000000
vertex 0.008579 0.006932 0.150000
endloop
endfacet
facet normal 0.872583 0.488465 0.000654
outer loop
vertex 0.011468 0.001973 0.000000
vertex 0.008579 0.006932 0.150000
vertex 0.009223 0.005782 0.150000
endloop
endfacet
facet normal 0.903332 0.428943 0.000000
outer loop
vertex 0.011654 0.001597 0.150000
vertex 0.011654 0.001597 0.000000
vertex 0.011558 0.001800 0.000000
endloop
endfacet
facet normal 0.886828 0.462097 0.001537
outer loop
vertex 0.011558 0.001800 0.000000
vertex 0.011468 0.001973 0.000000
vertex 0.009223 0.005782 0.150000
endloop
endfacet
facet normal 0.883753 0.467952 0.001333
outer loop
vertex 0.011558 0.001800 0.000000
vertex 0.009223 0.005782 0.150000
vertex 0.010062 0.004198 0.150000
endloop
endfacet
facet normal 0.903332 0.428943 0.000000
outer loop
vertex 0.011558 0.001800 0.150000
vertex 0.011654 0.001597 0.150000
vertex 0.011558 0.001800 0.000000
endloop
endfacet
facet normal 0.886832 0.462092 0.000000
outer loop
vertex 0.011468 0.001973 0.150000
vertex 0.011558 0.001800 0.150000
vertex 0.011558 0.001800 0.000000
endloop
endfacet
facet normal 0.866070 0.499922 0.000646
outer loop
vertex 0.011558 0.001800 0.000000
vertex 0.010062 0.004198 0.150000
vertex 0.010524 0.003397 0.150000
endloop
endfacet
facet normal 0.843550 0.537050 0.000096
outer loop
vertex 0.011558 0.001800 0.000000
vertex 0.010524 0.003397 0.150000
vertex 0.010805 0.002955 0.150000
endloop
endfacet
facet normal 0.866813 0.498634 -0.000054
outer loop
vertex 0.011382 0.002122 0.150000
vertex 0.011468 0.001973 0.150000
vertex 0.011558 0.001800 0.000000
endloop
endfacet
facet normal 0.817972 0.575257 -0.000327
outer loop
vertex 0.011558 0.001800 0.000000
vertex 0.010805 0.002955 0.150000
vertex 0.011298 0.002255 0.150000
endloop
endfacet
facet normal 0.845274 0.534333 -0.000156
outer loop
vertex 0.011298 0.002255 0.150000
vertex 0.011382 0.002122 0.150000
vertex 0.011558 0.001800 0.000000
endloop
endfacet
endsolid Exported from Blender-3.6.8
