solid Exported from Blender-3.6.8
facet normal 0.053620 -0.998561 0.000000
outer loop
vertex 0.005947 0.000001 0.150000
vertex 0.005947 0.000001 0.000000
vertex 0.006346 0.000022 0.000000
endloop
endfacet
facet normal 0.053620 -0.998561 0.000000
outer loop
vertex 0.005947 0.000001 0.150000
vertex 0.006346 0.000022 0.000000
vertex 0.006346 0.000022 0.150000
endloop
endfacet
facet normal 0.000000 0.000000 -1.000000
outer loop
vertex 0.000405 0.006197 0.000000
vertex 0.000398 0.006139 0.000000
vertex 0.000386 0.006072 0.000000
endloop
endfacet
facet normal 0.000000 0.000000 -1.000000
outer loop
vertex 0.000386 0.006072 0.000000
vertex 0.000369 0.005996 0.000000
vertex 0.000350 0.005918 0.000000
endloop
endfacet
facet normal -0.969228 0.246165 0.000000
outer loop
vertex 0.000350 0.005918 0.000000
vertex 0.000350 0.005918 0.150000
vertex 0.000369 0.005996 0.150000
endloop
endfacet
facet normal -0.977140 0.212599 0.000018
outer loop
vertex 0.000350 0.005918 0.000000
vertex 0.000369 0.005996 0.150000
vertex 0.000386 0.006072 0.150000
endloop
endfacet
facet normal 0.000000 0.000000 -1.000000
outer loop
vertex 0.000405 0.006197 0.000000
vertex 0.000386 0.006072 0.000000
vertex 0.000350 0.005918 0.000000
endloop
endfacet
facet normal -0.992010 0.126160 0.000000
outer loop
vertex 0.000398 0.006139 0.150000
vertex 0.000405 0.006197 0.150000
vertex 0.000405 0.006197 0.000000
endloop
endfacet
facet normal -0.984851 0.173404 0.000061
outer loop
vertex 0.000350 0.005918 0.000000
vertex 0.000386 0.006072 0.150000
vertex 0.000398 0.006139 0.150000
endloop
endfacet
facet normal -0.980763 0.195201 0.000027
outer loop
vertex 0.000350 0.005918 0.000000
vertex 0.000398 0.006139 0.150000
vertex 0.000405 0.006197 0.000000
endloop
endfacet
facet normal 0.494751 -0.869035 0.000000
outer loop
vertex 0.006669 0.000109 0.000000
vertex 0.007565 0.000619 0.000000
vertex 0.007565 0.000619 0.150000
endloop
endfacet
facet normal 0.494751 -0.869035 0.000000
outer loop
vertex 0.006669 0.000109 0.000000
vertex 0.007565 0.000619 0.150000
vertex 0.006669 0.000109 0.150000
endloop
endfacet
facet normal -0.076086 0.997101 0.000000
outer loop
vertex 0.005540 0.010041 0.000000
vertex 0.005413 0.010032 0.000000
vertex 0.005413 0.010032 0.150000
endloop
endfacet
facet normal -0.076086 0.997101 0.000000
outer loop
vertex 0.005540 0.010041 0.000000
vertex 0.005413 0.010032 0.150000
vertex 0.005540 0.010041 0.150000
endloop
endfacet
facet normal -0.995896 -0.090510 0.000000
outer loop
vertex 0.000000 0.004574 0.150000
vertex 0.000000 0.004574 0.000000
vertex 0.000012 0.004447 0.000000
endloop
endfacet
facet normal -0.995896 -0.090510 0.000000
outer loop
vertex 0.000000 0.004574 0.150000
vertex 0.000012 0.004447 0.000000
vertex 0.000012 0.004447 0.150000
endloop
endfacet
facet normal -0.327348 0.944904 0.000000
outer loop
vertex 0.001764 0.008570 0.000000
vertex 0.001647 0.008530 0.000000
vertex 0.001647 0.008530 0.150000
endloop
endfacet
facet normal -0.327348 0.944904 0.000000
outer loop
vertex 0.001764 0.008570 0.000000
vertex 0.001647 0.008530 0.150000
vertex 0.001764 0.008570 0.150000
endloop
endfacet
facet normal -0.470761 0.882261 0.000000
outer loop
vertex 0.003631 0.009078 0.000000
vertex 0.003589 0.009056 0.000000
vertex 0.003589 0.009056 0.150000
endloop
endfacet
facet normal -0.470768 0.882257 0.000000
outer loop
vertex 0.003631 0.009078 0.000000
vertex 0.003589 0.009056 0.150000
vertex 0.003631 0.009078 0.150000
endloop
endfacet
facet normal -0.489986 0.871730 0.000000
outer loop
vertex 0.003676 0.009103 0.000000
vertex 0.003631 0.009078 0.000000
vertex 0.003631 0.009078 0.150000
endloop
endfacet
facet normal -0.489980 0.871734 0.000000
outer loop
vertex 0.003676 0.009103 0.000000
vertex 0.003631 0.009078 0.150000
vertex 0.003676 0.009103 0.150000
endloop
endfacet
facet normal -0.505208 0.862998 0.000000
outer loop
vertex 0.003724 0.009132 0.000000
vertex 0.003676 0.009103 0.000000
vertex 0.003676 0.009103 0.150000
endloop
endfacet
facet normal -0.505208 0.862998 0.000000
outer loop
vertex 0.003724 0.009132 0.000000
vertex 0.003676 0.009103 0.150000
vertex 0.003724 0.009132 0.150000
endloop
endfacet
facet normal -0.517347 0.855776 0.000000
outer loop
vertex 0.003776 0.009163 0.000000
vertex 0.003724 0.009132 0.000000
vertex 0.003724 0.009132 0.150000
endloop
endfacet
facet normal -0.517347 0.855776 0.000000
outer loop
vertex 0.003776 0.009163 0.000000
vertex 0.003724 0.009132 0.150000
vertex 0.003776 0.009163 0.150000
endloop
endfacet
facet normal -0.527119 0.849791 0.000000
outer loop
vertex 0.003831 0.009197 0.000000
vertex 0.003776 0.009163 0.000000
vertex 0.003776 0.009163 0.150000
endloop
endfacet
facet normal -0.527125 0.849788 0.000000
outer loop
vertex 0.003831 0.009197 0.000000
vertex 0.003776 0.009163 0.150000
vertex 0.003831 0.009197 0.150000
endloop
endfacet
facet normal 0.000000 0.000000 1.000000
outer loop
vertex 0.004347 0.009532 0.000000
vertex 0.004288 0.009495 0.000000
vertex 0.003889 0.009234 0.000000
endloop
endfacet
facet normal -0.534980 0.844865 0.000000
outer loop
vertex 0.003889 0.009234 0.000000
vertex 0.003831 0.009197 0.000000
vertex 0.003831 0.009197 0.150000
endloop
endfacet
facet normal -0.534980 0.844865 0.000000
outer loop
vertex 0.003889 0.009234 0.000000
vertex 0.003831 0.009197 0.150000
vertex 0.003889 0.009234 0.150000
endloop
endfacet
facet normal 0.000000 0.000000 1.000000
outer loop
vertex 0.004402 0.009565 0.000000
vertex 0.004347 0.009532 0.000000
vertex 0.003889 0.009234 0.000000
endloop
endfacet
facet normal 0.000000 0.000000 1.000000
outer loop
vertex 0.004497 0.009622 0.000000
vertex 0.004452 0.009595 0.000000
vertex 0.004402 0.009565 0.000000
endloop
endfacet
facet normal 0.000000 0.000000 1.000000
outer loop
vertex 0.004722 0.009750 0.000000
vertex 0.004693 0.009735 0.000000
vertex 0.004668 0.009720 0.000000
endloop
endfacet
facet normal 0.000000 0.000000 1.000000
outer loop
vertex 0.004668 0.009720 0.000000
vertex 0.004497 0.009622 0.000000
vertex 0.004402 0.009565 0.000000
endloop
endfacet
facet normal -0.543265 0.839561 0.000000
outer loop
vertex 0.004402 0.009565 0.000000
vertex 0.003889 0.009234 0.000000
vertex 0.003889 0.009234 0.150000
endloop
endfacet
facet normal -0.547415 0.836861 -0.000020
outer loop
vertex 0.004402 0.009565 0.000000
vertex 0.003889 0.009234 0.150000
vertex 0.004288 0.009495 0.150000
endloop
endfacet
facet normal 0.000000 0.000000 1.000000
outer loop
vertex 0.004722 0.009750 0.000000
vertex 0.004668 0.009720 0.000000
vertex 0.004402 0.009565 0.000000
endloop
endfacet
facet normal -0.483455 0.875369 0.000000
outer loop
vertex 0.004693 0.009735 0.150000
vertex 0.004722 0.009750 0.150000
vertex 0.004722 0.009750 0.000000
endloop
endfacet
facet normal -0.509765 0.860313 -0.000007
outer loop
vertex 0.004668 0.009720 0.150000
vertex 0.004693 0.009735 0.150000
vertex 0.004722 0.009750 0.000000
endloop
endfacet
facet normal -0.500766 0.865583 0.000029
outer loop
vertex 0.004722 0.009750 0.000000
vertex 0.004402 0.009565 0.000000
vertex 0.004288 0.009495 0.150000
endloop
endfacet
facet normal -0.532589 0.846374 -0.000096
outer loop
vertex 0.004722 0.009750 0.000000
vertex 0.004288 0.009495 0.150000
vertex 0.004347 0.009532 0.150000
endloop
endfacet
facet normal -0.496242 0.868185 -0.000000
outer loop
vertex 0.004497 0.009622 0.150000
vertex 0.004668 0.009720 0.150000
vertex 0.004722 0.009750 0.000000
endloop
endfacet
facet normal -0.507347 0.861742 -0.000022
outer loop
vertex 0.004452 0.009595 0.150000
vertex 0.004497 0.009622 0.150000
vertex 0.004722 0.009750 0.000000
endloop
endfacet
facet normal -0.523773 0.851858 -0.000066
outer loop
vertex 0.004722 0.009750 0.000000
vertex 0.004347 0.009532 0.150000
vertex 0.004402 0.009565 0.150000
endloop
endfacet
facet normal -0.515243 0.857044 -0.000041
outer loop
vertex 0.004402 0.009565 0.150000
vertex 0.004452 0.009595 0.150000
vertex 0.004722 0.009750 0.000000
endloop
endfacet
facet normal 0.000000 0.000000 -1.000000
outer loop
vertex 0.008771 0.002084 0.000000
vertex 0.008672 0.001943 0.000000
vertex 0.008362 0.001551 0.000000
endloop
endfacet
facet normal 0.000000 0.000000 -1.000000
outer loop
vertex 0.008263 0.001416 0.000000
vertex 0.008078 0.001132 0.000000
vertex 0.007983 0.001006 0.000000
endloop
endfacet
facet normal 0.000000 0.000000 -1.000000
outer loop
vertex 0.008948 0.002407 0.000000
vertex 0.008771 0.002084 0.000000
vertex 0.008362 0.001551 0.000000
endloop
endfacet
facet normal 0.000000 0.000000 -1.000000
outer loop
vertex 0.008263 0.001416 0.000000
vertex 0.007983 0.001006 0.000000
vertex 0.007782 0.000793 0.000000
endloop
endfacet
facet normal 0.000000 0.000000 -1.000000
outer loop
vertex 0.008948 0.002407 0.000000
vertex 0.008362 0.001551 0.000000
vertex 0.008263 0.001416 0.000000
endloop
endfacet
facet normal 0.000000 0.000000 -1.000000
outer loop
vertex 0.009082 0.002813 0.000000
vertex 0.009022 0.002598 0.000000
vertex 0.008948 0.002407 0.000000
endloop
endfacet
facet normal 0.000000 0.000000 -1.000000
outer loop
vertex 0.009152 0.003335 0.000000
vertex 0.009126 0.003057 0.000000
vertex 0.009082 0.002813 0.000000
endloop
endfacet
facet normal 0.000000 0.000000 -1.000000
outer loop
vertex 0.009192 0.004371 0.000000
vertex 0.009188 0.004136 0.000000
vertex 0.009152 0.003335 0.000000
endloop
endfacet
facet normal 0.000000 0.000000 -1.000000
outer loop
vertex 0.009118 0.005405 0.000000
vertex 0.009190 0.004593 0.000000
vertex 0.009192 0.004371 0.000000
endloop
endfacet
facet normal 0.000000 0.000000 -1.000000
outer loop
vertex 0.008972 0.005999 0.000000
vertex 0.009031 0.005798 0.000000
vertex 0.009118 0.005405 0.000000
endloop
endfacet
facet normal 0.000000 0.000000 -1.000000
outer loop
vertex 0.008718 0.006788 0.000000
vertex 0.008782 0.006597 0.000000
vertex 0.008972 0.005999 0.000000
endloop
endfacet
facet normal 0.000000 0.000000 -1.000000
outer loop
vertex 0.008588 0.007154 0.000000
vertex 0.008654 0.006974 0.000000
vertex 0.008718 0.006788 0.000000
endloop
endfacet
facet normal 0.000000 0.000000 -1.000000
outer loop
vertex 0.008220 0.007956 0.000000
vertex 0.008520 0.007329 0.000000
vertex 0.008588 0.007154 0.000000
endloop
endfacet
facet normal 0.000000 0.000000 -1.000000
outer loop
vertex 0.008053 0.008220 0.000000
vertex 0.008135 0.008093 0.000000
vertex 0.008220 0.007956 0.000000
endloop
endfacet
facet normal 0.000000 0.000000 -1.000000
outer loop
vertex 0.007728 0.008752 0.000000
vertex 0.007788 0.008656 0.000000
vertex 0.007979 0.008339 0.000000
endloop
endfacet
facet normal 0.000000 0.000000 -1.000000
outer loop
vertex 0.008053 0.008220 0.000000
vertex 0.008220 0.007956 0.000000
vertex 0.008588 0.007154 0.000000
endloop
endfacet
facet normal 0.000000 0.000000 -1.000000
outer loop
vertex 0.007665 0.008844 0.000000
vertex 0.007728 0.008752 0.000000
vertex 0.007979 0.008339 0.000000
endloop
endfacet
facet normal 0.000000 0.000000 -1.000000
outer loop
vertex 0.007979 0.008339 0.000000
vertex 0.008053 0.008220 0.000000
vertex 0.008588 0.007154 0.000000
endloop
endfacet
facet normal 0.000000 0.000000 -1.000000
outer loop
vertex 0.008588 0.007154 0.000000
vertex 0.008718 0.006788 0.000000
vertex 0.008972 0.005999 0.000000
endloop
endfacet
facet normal 0.000000 0.000000 -1.000000
outer loop
vertex 0.008972 0.005999 0.000000
vertex 0.009118 0.005405 0.000000
vertex 0.009192 0.004371 0.000000
endloop
endfacet
facet normal 0.000000 0.000000 -1.000000
outer loop
vertex 0.009192 0.004371 0.000000
vertex 0.009152 0.003335 0.000000
vertex 0.009082 0.002813 0.000000
endloop
endfacet
facet normal 0.000000 0.000000 -1.000000
outer loop
vertex 0.009082 0.002813 0.000000
vertex 0.008948 0.002407 0.000000
vertex 0.008263 0.001416 0.000000
endloop
endfacet
facet normal 0.000000 0.000000 -1.000000
outer loop
vertex 0.008263 0.001416 0.000000
vertex 0.007782 0.000793 0.000000
vertex 0.007565 0.000619 0.000000
endloop
endfacet
facet normal 0.000000 0.000000 -1.000000
outer loop
vertex 0.007565 0.000619 0.000000
vertex 0.006669 0.000109 0.000000
vertex 0.006515 0.000057 0.000000
endloop
endfacet
facet normal 0.000000 0.000000 -1.000000
outer loop
vertex 0.006515 0.000057 0.000000
vertex 0.006346 0.000022 0.000000
vertex 0.005947 0.000001 0.000000
endloop
endfacet
facet normal 0.000000 0.000000 -1.000000
outer loop
vertex 0.005947 0.000001 0.000000
vertex 0.005443 0.000041 0.000000
vertex 0.005143 0.000083 0.000000
endloop
endfacet
facet normal 0.000000 0.000000 -1.000000
outer loop
vertex 0.005143 0.000083 0.000000
vertex 0.004804 0.000140 0.000000
vertex 0.004424 0.000209 0.000000
endloop
endfacet
facet normal 0.000000 0.000000 -1.000000
outer loop
vertex 0.004424 0.000209 0.000000
vertex 0.003525 0.000388 0.000000
vertex 0.003087 0.000484 0.000000
endloop
endfacet
facet normal 0.000000 0.000000 -1.000000
outer loop
vertex 0.003087 0.000484 0.000000
vertex 0.002534 0.000651 0.000000
vertex 0.002386 0.000727 0.000000
endloop
endfacet
facet normal 0.000000 0.000000 -1.000000
outer loop
vertex 0.002386 0.000727 0.000000
vertex 0.002303 0.000800 0.000000
vertex 0.002269 0.000872 0.000000
endloop
endfacet
facet normal 0.000000 0.000000 -1.000000
outer loop
vertex 0.002269 0.000872 0.000000
vertex 0.002267 0.000946 0.000000
vertex 0.002296 0.001108 0.000000
endloop
endfacet
facet normal 0.000000 0.000000 -1.000000
outer loop
vertex 0.002386 0.000727 0.000000
vertex 0.002269 0.000872 0.000000
vertex 0.002296 0.001108 0.000000
endloop
endfacet
facet normal 0.000000 0.000000 -1.000000
outer loop
vertex 0.004424 0.000209 0.000000
vertex 0.003087 0.000484 0.000000
vertex 0.002386 0.000727 0.000000
endloop
endfacet
facet normal 0.000000 0.000000 -1.000000
outer loop
vertex 0.005947 0.000001 0.000000
vertex 0.005143 0.000083 0.000000
vertex 0.004424 0.000209 0.000000
endloop
endfacet
facet normal 0.000000 0.000000 -1.000000
outer loop
vertex 0.007565 0.000619 0.000000
vertex 0.006515 0.000057 0.000000
vertex 0.005947 0.000001 0.000000
endloop
endfacet
facet normal 0.000000 0.000000 -1.000000
outer loop
vertex 0.009082 0.002813 0.000000
vertex 0.008263 0.001416 0.000000
vertex 0.007565 0.000619 0.000000
endloop
endfacet
facet normal 0.000000 0.000000 -1.000000
outer loop
vertex 0.008972 0.005999 0.000000
vertex 0.009192 0.004371 0.000000
vertex 0.009082 0.002813 0.000000
endloop
endfacet
facet normal 0.000000 0.000000 -1.000000
outer loop
vertex 0.007979 0.008339 0.000000
vertex 0.008588 0.007154 0.000000
vertex 0.008972 0.005999 0.000000
endloop
endfacet
facet normal 0.000000 0.000000 -1.000000
outer loop
vertex 0.007598 0.008934 0.000000
vertex 0.007665 0.008844 0.000000
vertex 0.007979 0.008339 0.000000
endloop
endfacet
facet normal 0.000000 0.000000 -1.000000
outer loop
vertex 0.007246 0.009290 0.000000
vertex 0.007443 0.009110 0.000000
vertex 0.007598 0.008934 0.000000
endloop
endfacet
facet normal 0.000000 0.000000 -1.000000
outer loop
vertex 0.006784 0.009624 0.000000
vertex 0.007017 0.009466 0.000000
vertex 0.007246 0.009290 0.000000
endloop
endfacet
facet normal 0.000000 0.000000 -1.000000
outer loop
vertex 0.006357 0.009869 0.000000
vertex 0.006560 0.009760 0.000000
vertex 0.006784 0.009624 0.000000
endloop
endfacet
facet normal 0.000000 0.000000 -1.000000
outer loop
vertex 0.006188 0.009945 0.000000
vertex 0.006268 0.009911 0.000000
vertex 0.006357 0.009869 0.000000
endloop
endfacet
facet normal 0.000000 0.000000 -1.000000
outer loop
vertex 0.006013 0.009995 0.000000
vertex 0.006065 0.009985 0.000000
vertex 0.006188 0.009945 0.000000
endloop
endfacet
facet normal 0.000000 0.000000 -1.000000
outer loop
vertex 0.005890 0.010015 0.000000
vertex 0.005954 0.010005 0.000000
vertex 0.006013 0.009995 0.000000
endloop
endfacet
facet normal 0.000000 0.000000 -1.000000
outer loop
vertex 0.005751 0.010032 0.000000
vertex 0.005822 0.010024 0.000000
vertex 0.005890 0.010015 0.000000
endloop
endfacet
facet normal 0.000000 0.000000 -1.000000
outer loop
vertex 0.005540 0.010041 0.000000
vertex 0.005680 0.010037 0.000000
vertex 0.005751 0.010032 0.000000
endloop
endfacet
facet normal 0.000000 0.000000 -1.000000
outer loop
vertex 0.005358 0.010020 0.000000
vertex 0.005413 0.010032 0.000000
vertex 0.005540 0.010041 0.000000
endloop
endfacet
facet normal 0.000000 0.000000 -1.000000
outer loop
vertex 0.004857 0.009813 0.000000
vertex 0.005311 0.010004 0.000000
vertex 0.005358 0.010020 0.000000
endloop
endfacet
facet normal 0.000000 0.000000 -1.000000
outer loop
vertex 0.004760 0.009769 0.000000
vertex 0.004805 0.009790 0.000000
vertex 0.004857 0.009813 0.000000
endloop
endfacet
facet normal 0.000000 0.000000 -1.000000
outer loop
vertex 0.004693 0.009735 0.000000
vertex 0.004722 0.009750 0.000000
vertex 0.004760 0.009769 0.000000
endloop
endfacet
facet normal 0.000000 0.000000 -1.000000
outer loop
vertex 0.004452 0.009595 0.000000
vertex 0.004497 0.009622 0.000000
vertex 0.004668 0.009720 0.000000
endloop
endfacet
facet normal 0.000000 0.000000 -1.000000
outer loop
vertex 0.004668 0.009720 0.000000
vertex 0.004693 0.009735 0.000000
vertex 0.004760 0.009769 0.000000
endloop
endfacet
facet normal 0.000000 0.000000 -1.000000
outer loop
vertex 0.004760 0.009769 0.000000
vertex 0.004857 0.009813 0.000000
vertex 0.005358 0.010020 0.000000
endloop
endfacet
facet normal 0.000000 0.000000 -1.000000
outer loop
vertex 0.005358 0.010020 0.000000
vertex 0.005540 0.010041 0.000000
vertex 0.005751 0.010032 0.000000
endloop
endfacet
facet normal 0.000000 0.000000 -1.000000
outer loop
vertex 0.005751 0.010032 0.000000
vertex 0.005890 0.010015 0.000000
vertex 0.006013 0.009995 0.000000
endloop
endfacet
facet normal 0.000000 0.000000 -1.000000
outer loop
vertex 0.006013 0.009995 0.000000
vertex 0.006188 0.009945 0.000000
vertex 0.006357 0.009869 0.000000
endloop
endfacet
facet normal 0.000000 0.000000 -1.000000
outer loop
vertex 0.006357 0.009869 0.000000
vertex 0.006784 0.009624 0.000000
vertex 0.007246 0.009290 0.000000
endloop
endfacet
facet normal 0.000000 0.000000 -1.000000
outer loop
vertex 0.007246 0.009290 0.000000
vertex 0.007598 0.008934 0.000000
vertex 0.007979 0.008339 0.000000
endloop
endfacet
facet normal 0.000000 0.000000 -1.000000
outer loop
vertex 0.007979 0.008339 0.000000
vertex 0.008972 0.005999 0.000000
vertex 0.009082 0.002813 0.000000
endloop
endfacet
facet normal 0.000000 0.000000 -1.000000
outer loop
vertex 0.009082 0.002813 0.000000
vertex 0.007565 0.000619 0.000000
vertex 0.005947 0.000001 0.000000
endloop
endfacet
facet normal 0.000000 0.000000 -1.000000
outer loop
vertex 0.005947 0.000001 0.000000
vertex 0.004424 0.000209 0.000000
vertex 0.002386 0.000727 0.000000
endloop
endfacet
facet normal 0.000000 0.000000 -1.000000
outer loop
vertex 0.002386 0.000727 0.000000
vertex 0.002296 0.001108 0.000000
vertex 0.002295 0.001201 0.000000
endloop
endfacet
facet normal 0.000000 0.000000 -1.000000
outer loop
vertex 0.005947 0.000001 0.000000
vertex 0.002386 0.000727 0.000000
vertex 0.002295 0.001201 0.000000
endloop
endfacet
facet normal 0.000000 0.000000 -1.000000
outer loop
vertex 0.007979 0.008339 0.000000
vertex 0.009082 0.002813 0.000000
vertex 0.005947 0.000001 0.000000
endloop
endfacet
facet normal 0.000000 0.000000 -1.000000
outer loop
vertex 0.006357 0.009869 0.000000
vertex 0.007246 0.009290 0.000000
vertex 0.007979 0.008339 0.000000
endloop
endfacet
facet normal 0.000000 0.000000 -1.000000
outer loop
vertex 0.005751 0.010032 0.000000
vertex 0.006013 0.009995 0.000000
vertex 0.006357 0.009869 0.000000
endloop
endfacet
facet normal 0.000000 0.000000 -1.000000
outer loop
vertex 0.004760 0.009769 0.000000
vertex 0.005358 0.010020 0.000000
vertex 0.005751 0.010032 0.000000
endloop
endfacet
facet normal 0.000000 0.000000 -1.000000
outer loop
vertex 0.004452 0.009595 0.000000
vertex 0.004668 0.009720 0.000000
vertex 0.004760 0.009769 0.000000
endloop
endfacet
facet normal 0.000000 0.000000 -1.000000
outer loop
vertex 0.004347 0.009532 0.000000
vertex 0.004402 0.009565 0.000000
vertex 0.004452 0.009595 0.000000
endloop
endfacet
facet normal 0.000000 0.000000 -1.000000
outer loop
vertex 0.003889 0.009234 0.000000
vertex 0.004288 0.009495 0.000000
vertex 0.004347 0.009532 0.000000
endloop
endfacet
facet normal 0.000000 0.000000 -1.000000
outer loop
vertex 0.003889 0.009234 0.000000
vertex 0.004347 0.009532 0.000000
vertex 0.004452 0.009595 0.000000
endloop
endfacet
facet normal 0.000000 0.000000 -1.000000
outer loop
vertex 0.004452 0.009595 0.000000
vertex 0.004760 0.009769 0.000000
vertex 0.005751 0.010032 0.000000
endloop
endfacet
facet normal 0.000000 0.000000 -1.000000
outer loop
vertex 0.005751 0.010032 0.000000
vertex 0.006357 0.009869 0.000000
vertex 0.007979 0.008339 0.000000
endloop
endfacet
facet normal 0.000000 0.000000 -1.000000
outer loop
vertex 0.007979 0.008339 0.000000
vertex 0.005947 0.000001 0.000000
vertex 0.002295 0.001201 0.000000
endloop
endfacet
facet normal 0.000000 0.000000 -1.000000
outer loop
vertex 0.007979 0.008339 0.000000
vertex 0.002295 0.001201 0.000000
vertex 0.002261 0.001303 0.000000
endloop
endfacet
facet normal 0.000000 0.000000 -1.000000
outer loop
vertex 0.004452 0.009595 0.000000
vertex 0.005751 0.010032 0.000000
vertex 0.007979 0.008339 0.000000
endloop
endfacet
facet normal 0.000000 0.000000 -1.000000
outer loop
vertex 0.003889 0.009234 0.000000
vertex 0.004452 0.009595 0.000000
vertex 0.007979 0.008339 0.000000
endloop
endfacet
facet normal 0.000000 0.000000 -1.000000
outer loop
vertex 0.007979 0.008339 0.000000
vertex 0.002261 0.001303 0.000000
vertex 0.002180 0.001419 0.000000
endloop
endfacet
facet normal 0.000000 0.000000 -1.000000
outer loop
vertex 0.002180 0.001419 0.000000
vertex 0.001689 0.001973 0.000000
vertex 0.001254 0.002476 0.000000
endloop
endfacet
facet normal 0.000000 0.000000 -1.000000
outer loop
vertex 0.001254 0.002476 0.000000
vertex 0.000812 0.003003 0.000000
vertex 0.000610 0.003253 0.000000
endloop
endfacet
facet normal 0.000000 0.000000 -1.000000
outer loop
vertex 0.000610 0.003253 0.000000
vertex 0.000430 0.003483 0.000000
vertex 0.000283 0.003683 0.000000
endloop
endfacet
facet normal 0.000000 0.000000 -1.000000
outer loop
vertex 0.000283 0.003683 0.000000
vertex 0.000175 0.003844 0.000000
vertex 0.000117 0.003958 0.000000
endloop
endfacet
facet normal 0.000000 0.000000 -1.000000
outer loop
vertex 0.000117 0.003958 0.000000
vertex 0.000012 0.004447 0.000000
vertex 0.000000 0.004574 0.000000
endloop
endfacet
facet normal 0.000000 0.000000 -1.000000
outer loop
vertex 0.000000 0.004574 0.000000
vertex 0.000002 0.004623 0.000000
vertex 0.000008 0.004667 0.000000
endloop
endfacet
facet normal 0.000000 0.000000 -1.000000
outer loop
vertex 0.000008 0.004667 0.000000
vertex 0.000015 0.004712 0.000000
vertex 0.000152 0.005348 0.000000
endloop
endfacet
facet normal 0.000000 0.000000 -1.000000
outer loop
vertex 0.000152 0.005348 0.000000
vertex 0.000169 0.005410 0.000000
vertex 0.000187 0.005467 0.000000
endloop
endfacet
facet normal 0.000000 0.000000 -1.000000
outer loop
vertex 0.000152 0.005348 0.000000
vertex 0.000187 0.005467 0.000000
vertex 0.000309 0.005786 0.000000
endloop
endfacet
facet normal 0.000000 0.000000 -1.000000
outer loop
vertex 0.000000 0.004574 0.000000
vertex 0.000008 0.004667 0.000000
vertex 0.000152 0.005348 0.000000
endloop
endfacet
facet normal 0.000000 0.000000 -1.000000
outer loop
vertex 0.000283 0.003683 0.000000
vertex 0.000117 0.003958 0.000000
vertex 0.000000 0.004574 0.000000
endloop
endfacet
facet normal 0.000000 0.000000 -1.000000
outer loop
vertex 0.001254 0.002476 0.000000
vertex 0.000610 0.003253 0.000000
vertex 0.000283 0.003683 0.000000
endloop
endfacet
facet normal 0.000000 0.000000 -1.000000
outer loop
vertex 0.007979 0.008339 0.000000
vertex 0.002180 0.001419 0.000000
vertex 0.001254 0.002476 0.000000
endloop
endfacet
facet normal 0.000000 0.000000 -1.000000
outer loop
vertex 0.003831 0.009197 0.000000
vertex 0.003889 0.009234 0.000000
vertex 0.007979 0.008339 0.000000
endloop
endfacet
facet normal 0.000000 0.000000 -1.000000
outer loop
vertex 0.003776 0.009163 0.000000
vertex 0.003831 0.009197 0.000000
vertex 0.007979 0.008339 0.000000
endloop
endfacet
facet normal 0.000000 0.000000 -1.000000
outer loop
vertex 0.007979 0.008339 0.000000
vertex 0.001254 0.002476 0.000000
vertex 0.000283 0.003683 0.000000
endloop
endfacet
facet normal 0.000000 0.000000 -1.000000
outer loop
vertex 0.000283 0.003683 0.000000
vertex 0.000000 0.004574 0.000000
vertex 0.000152 0.005348 0.000000
endloop
endfacet
facet normal 0.000000 0.000000 -1.000000
outer loop
vertex 0.000283 0.003683 0.000000
vertex 0.000152 0.005348 0.000000
vertex 0.000309 0.005786 0.000000
endloop
endfacet
facet normal 0.000000 0.000000 -1.000000
outer loop
vertex 0.003776 0.009163 0.000000
vertex 0.007979 0.008339 0.000000
vertex 0.000283 0.003683 0.000000
endloop
endfacet
facet normal 0.000000 0.000000 -1.000000
outer loop
vertex 0.003724 0.009132 0.000000
vertex 0.003776 0.009163 0.000000
vertex 0.000283 0.003683 0.000000
endloop
endfacet
facet normal 0.000000 0.000000 -1.000000
outer loop
vertex 0.000283 0.003683 0.000000
vertex 0.000309 0.005786 0.000000
vertex 0.000350 0.005918 0.000000
endloop
endfacet
facet normal 0.000000 0.000000 -1.000000
outer loop
vertex 0.000283 0.003683 0.000000
vertex 0.000350 0.005918 0.000000
vertex 0.000369 0.005996 0.000000
endloop
endfacet
facet normal 0.000000 0.000000 -1.000000
outer loop
vertex 0.003676 0.009103 0.000000
vertex 0.003724 0.009132 0.000000
vertex 0.000283 0.003683 0.000000
endloop
endfacet
facet normal 0.000000 0.000000 -1.000000
outer loop
vertex 0.003631 0.009078 0.000000
vertex 0.003676 0.009103 0.000000
vertex 0.000283 0.003683 0.000000
endloop
endfacet
facet normal 0.000000 0.000000 -1.000000
outer loop
vertex 0.000283 0.003683 0.000000
vertex 0.000369 0.005996 0.000000
vertex 0.000386 0.006072 0.000000
endloop
endfacet
facet normal 0.000000 0.000000 -1.000000
outer loop
vertex 0.000283 0.003683 0.000000
vertex 0.000386 0.006072 0.000000
vertex 0.000398 0.006139 0.000000
endloop
endfacet
facet normal 0.000000 0.000000 -1.000000
outer loop
vertex 0.003589 0.009056 0.000000
vertex 0.003631 0.009078 0.000000
vertex 0.000283 0.003683 0.000000
endloop
endfacet
facet normal 0.000000 0.000000 -1.000000
outer loop
vertex 0.003515 0.009020 0.000000
vertex 0.003589 0.009056 0.000000
vertex 0.000283 0.003683 0.000000
endloop
endfacet
facet normal 0.000000 0.000000 -1.000000
outer loop
vertex 0.000283 0.003683 0.000000
vertex 0.000398 0.006139 0.000000
vertex 0.000405 0.006197 0.000000
endloop
endfacet
facet normal 0.000000 0.000000 -1.000000
outer loop
vertex 0.000405 0.006197 0.000000
vertex 0.000395 0.006903 0.000000
vertex 0.000473 0.007518 0.000000
endloop
endfacet
facet normal 0.000000 0.000000 -1.000000
outer loop
vertex 0.000473 0.007518 0.000000
vertex 0.000481 0.007561 0.000000
vertex 0.000489 0.007599 0.000000
endloop
endfacet
facet normal 0.000000 0.000000 -1.000000
outer loop
vertex 0.000489 0.007599 0.000000
vertex 0.000498 0.007633 0.000000
vertex 0.000506 0.007665 0.000000
endloop
endfacet
facet normal 0.000000 0.000000 -1.000000
outer loop
vertex 0.000506 0.007665 0.000000
vertex 0.000516 0.007694 0.000000
vertex 0.000526 0.007723 0.000000
endloop
endfacet
facet normal 0.000000 0.000000 -1.000000
outer loop
vertex 0.000526 0.007723 0.000000
vertex 0.000563 0.007814 0.000000
vertex 0.000582 0.007849 0.000000
endloop
endfacet
facet normal 0.000000 0.000000 -1.000000
outer loop
vertex 0.000582 0.007849 0.000000
vertex 0.000610 0.007886 0.000000
vertex 0.000685 0.007963 0.000000
endloop
endfacet
facet normal 0.000000 0.000000 -1.000000
outer loop
vertex 0.000685 0.007963 0.000000
vertex 0.000778 0.008041 0.000000
vertex 0.000829 0.008080 0.000000
endloop
endfacet
facet normal 0.000000 0.000000 -1.000000
outer loop
vertex 0.000829 0.008080 0.000000
vertex 0.000880 0.008116 0.000000
vertex 0.000930 0.008151 0.000000
endloop
endfacet
facet normal 0.000000 0.000000 -1.000000
outer loop
vertex 0.000930 0.008151 0.000000
vertex 0.000979 0.008184 0.000000
vertex 0.001066 0.008240 0.000000
endloop
endfacet
facet normal 0.000000 0.000000 -1.000000
outer loop
vertex 0.001066 0.008240 0.000000
vertex 0.001106 0.008264 0.000000
vertex 0.001150 0.008289 0.000000
endloop
endfacet
facet normal 0.000000 0.000000 -1.000000
outer loop
vertex 0.001150 0.008289 0.000000
vertex 0.001197 0.008315 0.000000
vertex 0.001246 0.008340 0.000000
endloop
endfacet
facet normal 0.000000 0.000000 -1.000000
outer loop
vertex 0.001246 0.008340 0.000000
vertex 0.001297 0.008366 0.000000
vertex 0.001349 0.008392 0.000000
endloop
endfacet
facet normal 0.000000 0.000000 -1.000000
outer loop
vertex 0.001349 0.008392 0.000000
vertex 0.001401 0.008417 0.000000
vertex 0.001453 0.008442 0.000000
endloop
endfacet
facet normal 0.000000 0.000000 -1.000000
outer loop
vertex 0.001453 0.008442 0.000000
vertex 0.001504 0.008465 0.000000
vertex 0.001554 0.008488 0.000000
endloop
endfacet
facet normal 0.000000 0.000000 -1.000000
outer loop
vertex 0.001554 0.008488 0.000000
vertex 0.001602 0.008510 0.000000
vertex 0.001647 0.008530 0.000000
endloop
endfacet
facet normal 0.000000 0.000000 -1.000000
outer loop
vertex 0.001647 0.008530 0.000000
vertex 0.001764 0.008570 0.000000
vertex 0.001928 0.008613 0.000000
endloop
endfacet
facet normal 0.000000 0.000000 -1.000000
outer loop
vertex 0.001647 0.008530 0.000000
vertex 0.001928 0.008613 0.000000
vertex 0.002736 0.008785 0.000000
endloop
endfacet
facet normal 0.000000 0.000000 -1.000000
outer loop
vertex 0.001453 0.008442 0.000000
vertex 0.001554 0.008488 0.000000
vertex 0.001647 0.008530 0.000000
endloop
endfacet
facet normal 0.000000 0.000000 -1.000000
outer loop
vertex 0.001246 0.008340 0.000000
vertex 0.001349 0.008392 0.000000
vertex 0.001453 0.008442 0.000000
endloop
endfacet
facet normal 0.000000 0.000000 -1.000000
outer loop
vertex 0.001066 0.008240 0.000000
vertex 0.001150 0.008289 0.000000
vertex 0.001246 0.008340 0.000000
endloop
endfacet
facet normal 0.000000 0.000000 -1.000000
outer loop
vertex 0.000829 0.008080 0.000000
vertex 0.000930 0.008151 0.000000
vertex 0.001066 0.008240 0.000000
endloop
endfacet
facet normal 0.000000 0.000000 -1.000000
outer loop
vertex 0.000582 0.007849 0.000000
vertex 0.000685 0.007963 0.000000
vertex 0.000829 0.008080 0.000000
endloop
endfacet
facet normal 0.000000 0.000000 -1.000000
outer loop
vertex 0.000506 0.007665 0.000000
vertex 0.000526 0.007723 0.000000
vertex 0.000582 0.007849 0.000000
endloop
endfacet
facet normal 0.000000 0.000000 -1.000000
outer loop
vertex 0.000473 0.007518 0.000000
vertex 0.000489 0.007599 0.000000
vertex 0.000506 0.007665 0.000000
endloop
endfacet
facet normal 0.000000 0.000000 -1.000000
outer loop
vertex 0.000283 0.003683 0.000000
vertex 0.000405 0.006197 0.000000
vertex 0.000473 0.007518 0.000000
endloop
endfacet
facet normal 0.000000 0.000000 -1.000000
outer loop
vertex 0.003220 0.008919 0.000000
vertex 0.003515 0.009020 0.000000
vertex 0.000283 0.003683 0.000000
endloop
endfacet
facet normal 0.000000 0.000000 -1.000000
outer loop
vertex 0.001453 0.008442 0.000000
vertex 0.001647 0.008530 0.000000
vertex 0.002736 0.008785 0.000000
endloop
endfacet
facet normal 0.000000 0.000000 -1.000000
outer loop
vertex 0.002736 0.008785 0.000000
vertex 0.003220 0.008919 0.000000
vertex 0.000283 0.003683 0.000000
endloop
endfacet
facet normal 0.000000 0.000000 -1.000000
outer loop
vertex 0.000283 0.003683 0.000000
vertex 0.000473 0.007518 0.000000
vertex 0.000506 0.007665 0.000000
endloop
endfacet
facet normal 0.000000 0.000000 -1.000000
outer loop
vertex 0.000506 0.007665 0.000000
vertex 0.000582 0.007849 0.000000
vertex 0.000829 0.008080 0.000000
endloop
endfacet
facet normal 0.000000 0.000000 -1.000000
outer loop
vertex 0.000829 0.008080 0.000000
vertex 0.001066 0.008240 0.000000
vertex 0.001246 0.008340 0.000000
endloop
endfacet
facet normal 0.000000 0.000000 -1.000000
outer loop
vertex 0.001246 0.008340 0.000000
vertex 0.001453 0.008442 0.000000
vertex 0.002736 0.008785 0.000000
endloop
endfacet
facet normal 0.000000 0.000000 -1.000000
outer loop
vertex 0.002736 0.008785 0.000000
vertex 0.000283 0.003683 0.000000
vertex 0.000506 0.007665 0.000000
endloop
endfacet
facet normal 0.000000 0.000000 -1.000000
outer loop
vertex 0.000506 0.007665 0.000000
vertex 0.000829 0.008080 0.000000
vertex 0.001246 0.008340 0.000000
endloop
endfacet
facet normal 0.000000 0.000000 -1.000000
outer loop
vertex 0.000506 0.007665 0.000000
vertex 0.001246 0.008340 0.000000
vertex 0.002736 0.008785 0.000000
endloop
endfacet
facet normal -0.442119 0.896956 0.000000
outer loop
vertex 0.004760 0.009769 0.000000
vertex 0.004722 0.009750 0.000000
vertex 0.004722 0.009750 0.150000
endloop
endfacet
facet normal -0.442105 0.896963 0.000000
outer loop
vertex 0.004760 0.009769 0.000000
vertex 0.004722 0.009750 0.150000
vertex 0.004760 0.009769 0.150000
endloop
endfacet
facet normal -0.418833 0.908063 0.000000
outer loop
vertex 0.004805 0.009790 0.000000
vertex 0.004760 0.009769 0.000000
vertex 0.004760 0.009769 0.150000
endloop
endfacet
facet normal -0.418845 0.908058 0.000000
outer loop
vertex 0.004805 0.009790 0.000000
vertex 0.004760 0.009769 0.150000
vertex 0.004805 0.009790 0.150000
endloop
endfacet
facet normal -0.404387 0.914588 0.000000
outer loop
vertex 0.004857 0.009813 0.000000
vertex 0.004805 0.009790 0.000000
vertex 0.004805 0.009790 0.150000
endloop
endfacet
facet normal -0.404382 0.914590 0.000000
outer loop
vertex 0.004857 0.009813 0.000000
vertex 0.004805 0.009790 0.150000
vertex 0.004857 0.009813 0.150000
endloop
endfacet
facet normal -0.325395 0.945578 0.000000
outer loop
vertex 0.005358 0.010020 0.150000
vertex 0.005358 0.010020 0.000000
vertex 0.005311 0.010004 0.000000
endloop
endfacet
facet normal -0.388186 0.921581 0.000000
outer loop
vertex 0.005311 0.010004 0.000000
vertex 0.004857 0.009813 0.000000
vertex 0.004857 0.009813 0.150000
endloop
endfacet
facet normal -0.325386 0.945581 0.000000
outer loop
vertex 0.005311 0.010004 0.150000
vertex 0.005358 0.010020 0.150000
vertex 0.005311 0.010004 0.000000
endloop
endfacet
facet normal -0.388186 0.921581 0.000000
outer loop
vertex 0.004857 0.009813 0.150000
vertex 0.005311 0.010004 0.150000
vertex 0.005311 0.010004 0.000000
endloop
endfacet
facet normal 0.000000 0.000000 1.000000
outer loop
vertex 0.008588 0.007154 0.150000
vertex 0.008520 0.007329 0.150000
vertex 0.008220 0.007956 0.150000
endloop
endfacet
facet normal 0.000000 0.000000 1.000000
outer loop
vertex 0.008220 0.007956 0.150000
vertex 0.008135 0.008093 0.150000
vertex 0.008053 0.008220 0.150000
endloop
endfacet
facet normal -0.001846 0.000000 0.999998
outer loop
vertex 0.007979 0.008339 0.150000
vertex 0.007788 0.008656 0.150000
vertex 0.007728 0.008752 0.150000
endloop
endfacet
facet normal 0.000000 0.000000 1.000000
outer loop
vertex 0.008588 0.007154 0.150000
vertex 0.008220 0.007956 0.150000
vertex 0.008053 0.008220 0.150000
endloop
endfacet
facet normal 0.002721 0.000000 0.999996
outer loop
vertex 0.007979 0.008339 0.150000
vertex 0.007728 0.008752 0.150000
vertex 0.007665 0.008844 0.150000
endloop
endfacet
facet normal -0.000737 0.000000 1.000000
outer loop
vertex 0.008588 0.007154 0.150000
vertex 0.008053 0.008220 0.150000
vertex 0.007979 0.008339 0.150000
endloop
endfacet
facet normal -0.005899 0.000000 0.999983
outer loop
vertex 0.008718 0.006788 0.150000
vertex 0.008654 0.006974 0.150000
vertex 0.008588 0.007154 0.150000
endloop
endfacet
facet normal 0.000000 0.000000 1.000000
outer loop
vertex 0.008972 0.005999 0.150000
vertex 0.008782 0.006597 0.150000
vertex 0.008718 0.006788 0.150000
endloop
endfacet
facet normal 0.000653 0.000000 1.000000
outer loop
vertex 0.009118 0.005405 0.150000
vertex 0.009031 0.005798 0.150000
vertex 0.008972 0.005999 0.150000
endloop
endfacet
facet normal 0.000000 0.000000 1.000000
outer loop
vertex 0.009192 0.004371 0.150000
vertex 0.009190 0.004593 0.150000
vertex 0.009118 0.005405 0.150000
endloop
endfacet
facet normal 0.000000 0.000000 1.000000
outer loop
vertex 0.009152 0.003335 0.150000
vertex 0.009188 0.004136 0.150000
vertex 0.009192 0.004371 0.150000
endloop
endfacet
facet normal 0.000000 0.000000 1.000000
outer loop
vertex 0.009082 0.002813 0.150000
vertex 0.009126 0.003057 0.150000
vertex 0.009152 0.003335 0.150000
endloop
endfacet
facet normal 0.000000 0.000000 1.000000
outer loop
vertex 0.008948 0.002407 0.150000
vertex 0.009022 0.002598 0.150000
vertex 0.009082 0.002813 0.150000
endloop
endfacet
facet normal -0.001043 0.000000 0.999999
outer loop
vertex 0.008672 0.001943 0.150000
vertex 0.008771 0.002084 0.150000
vertex 0.008948 0.002407 0.150000
endloop
endfacet
facet normal 0.000000 0.000000 1.000000
outer loop
vertex 0.008362 0.001551 0.150000
vertex 0.008672 0.001943 0.150000
vertex 0.008948 0.002407 0.150000
endloop
endfacet
facet normal 0.000354 0.000000 1.000000
outer loop
vertex 0.008948 0.002407 0.150000
vertex 0.009082 0.002813 0.150000
vertex 0.009152 0.003335 0.150000
endloop
endfacet
facet normal 0.000248 0.000000 1.000000
outer loop
vertex 0.009152 0.003335 0.150000
vertex 0.009192 0.004371 0.150000
vertex 0.009118 0.005405 0.150000
endloop
endfacet
facet normal 0.000000 0.000000 1.000000
outer loop
vertex 0.009118 0.005405 0.150000
vertex 0.008972 0.005999 0.150000
vertex 0.008718 0.006788 0.150000
endloop
endfacet
facet normal 0.000000 0.000000 1.000000
outer loop
vertex 0.008718 0.006788 0.150000
vertex 0.008588 0.007154 0.150000
vertex 0.007979 0.008339 0.150000
endloop
endfacet
facet normal -0.001320 0.000000 0.999999
outer loop
vertex 0.007979 0.008339 0.150000
vertex 0.007665 0.008844 0.150000
vertex 0.007598 0.008934 0.150000
endloop
endfacet
facet normal -0.000518 0.000000 1.000000
outer loop
vertex 0.007598 0.008934 0.150000
vertex 0.007443 0.009110 0.150000
vertex 0.007246 0.009290 0.150000
endloop
endfacet
facet normal 0.000778 0.000000 1.000000
outer loop
vertex 0.007246 0.009290 0.150000
vertex 0.007017 0.009466 0.150000
vertex 0.006784 0.009624 0.150000
endloop
endfacet
facet normal 0.000000 0.000000 1.000000
outer loop
vertex 0.006784 0.009624 0.150000
vertex 0.006560 0.009760 0.150000
vertex 0.006357 0.009869 0.150000
endloop
endfacet
facet normal 0.000000 0.000000 1.000000
outer loop
vertex 0.006357 0.009869 0.150000
vertex 0.006268 0.009911 0.150000
vertex 0.006188 0.009945 0.150000
endloop
endfacet
facet normal 0.000000 0.000000 1.000000
outer loop
vertex 0.006188 0.009945 0.150000
vertex 0.006065 0.009985 0.150000
vertex 0.006013 0.009995 0.150000
endloop
endfacet
facet normal 0.000000 0.000000 1.000000
outer loop
vertex 0.006013 0.009995 0.150000
vertex 0.005954 0.010005 0.150000
vertex 0.005890 0.010015 0.150000
endloop
endfacet
facet normal -0.002006 0.000000 0.999998
outer loop
vertex 0.005890 0.010015 0.150000
vertex 0.005822 0.010024 0.150000
vertex 0.005751 0.010032 0.150000
endloop
endfacet
facet normal 0.000000 0.000000 1.000000
outer loop
vertex 0.005751 0.010032 0.150000
vertex 0.005680 0.010037 0.150000
vertex 0.005540 0.010041 0.150000
endloop
endfacet
facet normal 0.000000 0.000000 1.000000
outer loop
vertex 0.005540 0.010041 0.150000
vertex 0.005413 0.010032 0.150000
vertex 0.005358 0.010020 0.150000
endloop
endfacet
facet normal 0.000000 0.000000 1.000000
outer loop
vertex 0.005358 0.010020 0.150000
vertex 0.005311 0.010004 0.150000
vertex 0.004857 0.009813 0.150000
endloop
endfacet
facet normal 0.000000 0.000000 1.000000
outer loop
vertex 0.004857 0.009813 0.150000
vertex 0.004805 0.009790 0.150000
vertex 0.004760 0.009769 0.150000
endloop
endfacet
facet normal -0.007067 0.000000 0.999975
outer loop
vertex 0.004760 0.009769 0.150000
vertex 0.004722 0.009750 0.150000
vertex 0.004693 0.009735 0.150000
endloop
endfacet
facet normal -0.006808 0.000000 0.999977
outer loop
vertex 0.004668 0.009720 0.150000
vertex 0.004497 0.009622 0.150000
vertex 0.004452 0.009595 0.150000
endloop
endfacet
facet normal 0.000000 0.000000 1.000000
outer loop
vertex 0.004760 0.009769 0.150000
vertex 0.004693 0.009735 0.150000
vertex 0.004668 0.009720 0.150000
endloop
endfacet
facet normal 0.000502 0.000000 1.000000
outer loop
vertex 0.005358 0.010020 0.150000
vertex 0.004857 0.009813 0.150000
vertex 0.004760 0.009769 0.150000
endloop
endfacet
facet normal 0.000000 0.000000 1.000000
outer loop
vertex 0.005751 0.010032 0.150000
vertex 0.005540 0.010041 0.150000
vertex 0.005358 0.010020 0.150000
endloop
endfacet
facet normal 0.000635 0.000000 1.000000
outer loop
vertex 0.006013 0.009995 0.150000
vertex 0.005890 0.010015 0.150000
vertex 0.005751 0.010032 0.150000
endloop
endfacet
facet normal 0.000360 0.000000 1.000000
outer loop
vertex 0.006357 0.009869 0.150000
vertex 0.006188 0.009945 0.150000
vertex 0.006013 0.009995 0.150000
endloop
endfacet
facet normal -0.000244 0.000000 1.000000
outer loop
vertex 0.007246 0.009290 0.150000
vertex 0.006784 0.009624 0.150000
vertex 0.006357 0.009869 0.150000
endloop
endfacet
facet normal 0.000099 0.000000 1.000000
outer loop
vertex 0.007979 0.008339 0.150000
vertex 0.007598 0.008934 0.150000
vertex 0.007246 0.009290 0.150000
endloop
endfacet
facet normal 0.000072 0.000000 1.000000
outer loop
vertex 0.009118 0.005405 0.150000
vertex 0.008718 0.006788 0.150000
vertex 0.007979 0.008339 0.150000
endloop
endfacet
facet normal -0.000128 0.000000 1.000000
outer loop
vertex 0.008948 0.002407 0.150000
vertex 0.009152 0.003335 0.150000
vertex 0.009118 0.005405 0.150000
endloop
endfacet
facet normal 0.000000 0.000000 1.000000
outer loop
vertex 0.008263 0.001416 0.150000
vertex 0.008362 0.001551 0.150000
vertex 0.008948 0.002407 0.150000
endloop
endfacet
facet normal -0.001906 0.000000 0.999998
outer loop
vertex 0.007983 0.001006 0.150000
vertex 0.008078 0.001132 0.150000
vertex 0.008263 0.001416 0.150000
endloop
endfacet
facet normal 0.000000 0.000000 1.000000
outer loop
vertex 0.007565 0.000619 0.150000
vertex 0.007782 0.000793 0.150000
vertex 0.007983 0.001006 0.150000
endloop
endfacet
facet normal 0.000000 0.000000 1.000000
outer loop
vertex 0.006515 0.000057 0.150000
vertex 0.006669 0.000109 0.150000
vertex 0.007565 0.000619 0.150000
endloop
endfacet
facet normal 0.000000 0.000000 1.000000
outer loop
vertex 0.005947 0.000001 0.150000
vertex 0.006346 0.000022 0.150000
vertex 0.006515 0.000057 0.150000
endloop
endfacet
facet normal -0.000100 0.000000 1.000000
outer loop
vertex 0.005143 0.000083 0.150000
vertex 0.005443 0.000041 0.150000
vertex 0.005947 0.000001 0.150000
endloop
endfacet
facet normal -0.000808 0.000000 1.000000
outer loop
vertex 0.004424 0.000209 0.150000
vertex 0.004804 0.000140 0.150000
vertex 0.005143 0.000083 0.150000
endloop
endfacet
facet normal 0.000858 0.000000 1.000000
outer loop
vertex 0.003087 0.000484 0.150000
vertex 0.003525 0.000388 0.150000
vertex 0.004424 0.000209 0.150000
endloop
endfacet
facet normal 0.000213 0.000000 1.000000
outer loop
vertex 0.002386 0.000727 0.150000
vertex 0.002534 0.000651 0.150000
vertex 0.003087 0.000484 0.150000
endloop
endfacet
facet normal 0.000520 0.000000 1.000000
outer loop
vertex 0.002269 0.000872 0.150000
vertex 0.002303 0.000800 0.150000
vertex 0.002386 0.000727 0.150000
endloop
endfacet
facet normal 0.001474 0.000000 0.999999
outer loop
vertex 0.002296 0.001108 0.150000
vertex 0.002267 0.000946 0.150000
vertex 0.002269 0.000872 0.150000
endloop
endfacet
facet normal -0.000230 0.000000 1.000000
outer loop
vertex 0.002296 0.001108 0.150000
vertex 0.002269 0.000872 0.150000
vertex 0.002386 0.000727 0.150000
endloop
endfacet
facet normal -0.000055 0.000000 1.000000
outer loop
vertex 0.002386 0.000727 0.150000
vertex 0.003087 0.000484 0.150000
vertex 0.004424 0.000209 0.150000
endloop
endfacet
facet normal 0.000043 0.000000 1.000000
outer loop
vertex 0.004424 0.000209 0.150000
vertex 0.005143 0.000083 0.150000
vertex 0.005947 0.000001 0.150000
endloop
endfacet
facet normal 0.000000 0.000000 1.000000
outer loop
vertex 0.005947 0.000001 0.150000
vertex 0.006515 0.000057 0.150000
vertex 0.007565 0.000619 0.150000
endloop
endfacet
facet normal 0.000000 0.000000 1.000000
outer loop
vertex 0.007565 0.000619 0.150000
vertex 0.007983 0.001006 0.150000
vertex 0.008263 0.001416 0.150000
endloop
endfacet
facet normal -0.000031 0.000000 1.000000
outer loop
vertex 0.008263 0.001416 0.150000
vertex 0.008948 0.002407 0.150000
vertex 0.009118 0.005405 0.150000
endloop
endfacet
facet normal -0.000027 0.000000 1.000000
outer loop
vertex 0.009118 0.005405 0.150000
vertex 0.007979 0.008339 0.150000
vertex 0.007246 0.009290 0.150000
endloop
endfacet
facet normal 0.000083 0.000000 1.000000
outer loop
vertex 0.007246 0.009290 0.150000
vertex 0.006357 0.009869 0.150000
vertex 0.006013 0.009995 0.150000
endloop
endfacet
facet normal -0.000026 0.000000 1.000000
outer loop
vertex 0.006013 0.009995 0.150000
vertex 0.005751 0.010032 0.150000
vertex 0.005358 0.010020 0.150000
endloop
endfacet
facet normal -0.000561 0.000000 1.000000
outer loop
vertex 0.005358 0.010020 0.150000
vertex 0.004760 0.009769 0.150000
vertex 0.004668 0.009720 0.150000
endloop
endfacet
facet normal 0.006485 0.000000 0.999979
outer loop
vertex 0.004668 0.009720 0.150000
vertex 0.004452 0.009595 0.150000
vertex 0.004402 0.009565 0.150000
endloop
endfacet
facet normal -0.019604 0.000000 0.999808
outer loop
vertex 0.004402 0.009565 0.150000
vertex 0.004347 0.009532 0.150000
vertex 0.004288 0.009495 0.150000
endloop
endfacet
facet normal 0.000000 0.000000 1.000000
outer loop
vertex 0.004402 0.009565 0.150000
vertex 0.004288 0.009495 0.150000
vertex 0.003889 0.009234 0.150000
endloop
endfacet
facet normal -0.000137 0.000000 1.000000
outer loop
vertex 0.005358 0.010020 0.150000
vertex 0.004668 0.009720 0.150000
vertex 0.004402 0.009565 0.150000
endloop
endfacet
facet normal -0.000017 0.000000 1.000000
outer loop
vertex 0.007246 0.009290 0.150000
vertex 0.006013 0.009995 0.150000
vertex 0.005358 0.010020 0.150000
endloop
endfacet
facet normal 0.000022 0.000000 1.000000
outer loop
vertex 0.008263 0.001416 0.150000
vertex 0.009118 0.005405 0.150000
vertex 0.007246 0.009290 0.150000
endloop
endfacet
facet normal 0.000000 0.000000 1.000000
outer loop
vertex 0.005947 0.000001 0.150000
vertex 0.007565 0.000619 0.150000
vertex 0.008263 0.001416 0.150000
endloop
endfacet
facet normal -0.000020 0.000000 1.000000
outer loop
vertex 0.002386 0.000727 0.150000
vertex 0.004424 0.000209 0.150000
vertex 0.005947 0.000001 0.150000
endloop
endfacet
facet normal 0.000924 0.000000 1.000000
outer loop
vertex 0.002295 0.001201 0.150000
vertex 0.002296 0.001108 0.150000
vertex 0.002386 0.000727 0.150000
endloop
endfacet
facet normal -0.000009 0.000000 1.000000
outer loop
vertex 0.002295 0.001201 0.150000
vertex 0.002386 0.000727 0.150000
vertex 0.005947 0.000001 0.150000
endloop
endfacet
facet normal -0.000012 0.000000 1.000000
outer loop
vertex 0.005947 0.000001 0.150000
vertex 0.008263 0.001416 0.150000
vertex 0.007246 0.009290 0.150000
endloop
endfacet
facet normal 0.000000 0.000000 1.000000
outer loop
vertex 0.007246 0.009290 0.150000
vertex 0.005358 0.010020 0.150000
vertex 0.004402 0.009565 0.150000
endloop
endfacet
facet normal -0.000007 0.000000 1.000000
outer loop
vertex 0.007246 0.009290 0.150000
vertex 0.004402 0.009565 0.150000
vertex 0.003889 0.009234 0.150000
endloop
endfacet
facet normal 0.000007 0.000000 1.000000
outer loop
vertex 0.002295 0.001201 0.150000
vertex 0.005947 0.000001 0.150000
vertex 0.007246 0.009290 0.150000
endloop
endfacet
facet normal 0.000000 0.000000 1.000000
outer loop
vertex 0.002261 0.001303 0.150000
vertex 0.002295 0.001201 0.150000
vertex 0.007246 0.009290 0.150000
endloop
endfacet
facet normal 0.000008 0.000000 1.000000
outer loop
vertex 0.007246 0.009290 0.150000
vertex 0.003889 0.009234 0.150000
vertex 0.003831 0.009197 0.150000
endloop
endfacet
facet normal 0.000000 0.000000 1.000000
outer loop
vertex 0.007246 0.009290 0.150000
vertex 0.003831 0.009197 0.150000
vertex 0.003776 0.009163 0.150000
endloop
endfacet
facet normal -0.000190 0.000000 1.000000
outer loop
vertex 0.002180 0.001419 0.150000
vertex 0.002261 0.001303 0.150000
vertex 0.007246 0.009290 0.150000
endloop
endfacet
facet normal 0.000000 0.000000 1.000000
outer loop
vertex 0.001254 0.002476 0.150000
vertex 0.001689 0.001973 0.150000
vertex 0.002180 0.001419 0.150000
endloop
endfacet
facet normal 0.000000 0.000000 1.000000
outer loop
vertex 0.000610 0.003253 0.150000
vertex 0.000812 0.003003 0.150000
vertex 0.001254 0.002476 0.150000
endloop
endfacet
facet normal 0.000000 0.000000 1.000000
outer loop
vertex 0.000283 0.003683 0.150000
vertex 0.000430 0.003483 0.150000
vertex 0.000610 0.003253 0.150000
endloop
endfacet
facet normal 0.000000 0.000000 1.000000
outer loop
vertex 0.000117 0.003958 0.150000
vertex 0.000175 0.003844 0.150000
vertex 0.000283 0.003683 0.150000
endloop
endfacet
facet normal 0.000000 0.000000 1.000000
outer loop
vertex 0.000000 0.004574 0.150000
vertex 0.000012 0.004447 0.150000
vertex 0.000117 0.003958 0.150000
endloop
endfacet
facet normal 0.004584 0.000000 0.999990
outer loop
vertex 0.000008 0.004667 0.150000
vertex 0.000002 0.004623 0.150000
vertex 0.000000 0.004574 0.150000
endloop
endfacet
facet normal 0.003848 0.000000 0.999993
outer loop
vertex 0.000152 0.005348 0.150000
vertex 0.000015 0.004712 0.150000
vertex 0.000008 0.004667 0.150000
endloop
endfacet
facet normal -0.011407 0.000000 0.999935
outer loop
vertex 0.000187 0.005467 0.150000
vertex 0.000169 0.005410 0.150000
vertex 0.000152 0.005348 0.150000
endloop
endfacet
facet normal -0.001051 0.000000 0.999999
outer loop
vertex 0.000309 0.005786 0.150000
vertex 0.000187 0.005467 0.150000
vertex 0.000152 0.005348 0.150000
endloop
endfacet
facet normal 0.000433 0.000000 1.000000
outer loop
vertex 0.000152 0.005348 0.150000
vertex 0.000008 0.004667 0.150000
vertex 0.000000 0.004574 0.150000
endloop
endfacet
facet normal -0.000207 0.000000 1.000000
outer loop
vertex 0.000000 0.004574 0.150000
vertex 0.000117 0.003958 0.150000
vertex 0.000283 0.003683 0.150000
endloop
endfacet
facet normal -0.000637 0.000000 1.000000
outer loop
vertex 0.000283 0.003683 0.150000
vertex 0.000610 0.003253 0.150000
vertex 0.001254 0.002476 0.150000
endloop
endfacet
facet normal 0.000018 0.000000 1.000000
outer loop
vertex 0.001254 0.002476 0.150000
vertex 0.002180 0.001419 0.150000
vertex 0.007246 0.009290 0.150000
endloop
endfacet
facet normal 0.000009 0.000000 1.000000
outer loop
vertex 0.007246 0.009290 0.150000
vertex 0.003776 0.009163 0.150000
vertex 0.003724 0.009132 0.150000
endloop
endfacet
facet normal -0.000010 0.000000 1.000000
outer loop
vertex 0.007246 0.009290 0.150000
vertex 0.003724 0.009132 0.150000
vertex 0.003676 0.009103 0.150000
endloop
endfacet
facet normal -0.000017 0.000000 1.000000
outer loop
vertex 0.000283 0.003683 0.150000
vertex 0.001254 0.002476 0.150000
vertex 0.007246 0.009290 0.150000
endloop
endfacet
facet normal -0.000082 0.000000 1.000000
outer loop
vertex 0.000152 0.005348 0.150000
vertex 0.000000 0.004574 0.150000
vertex 0.000283 0.003683 0.150000
endloop
endfacet
facet normal 0.000183 0.000000 1.000000
outer loop
vertex 0.000309 0.005786 0.150000
vertex 0.000152 0.005348 0.150000
vertex 0.000283 0.003683 0.150000
endloop
endfacet
facet normal 0.000001 0.000000 1.000000
outer loop
vertex 0.000283 0.003683 0.150000
vertex 0.007246 0.009290 0.150000
vertex 0.003676 0.009103 0.150000
endloop
endfacet
facet normal -0.000594 0.000000 1.000000
outer loop
vertex 0.000283 0.003683 0.150000
vertex 0.003676 0.009103 0.150000
vertex 0.003631 0.009078 0.150000
endloop
endfacet
facet normal 0.000000 0.000000 1.000000
outer loop
vertex 0.000350 0.005918 0.150000
vertex 0.000309 0.005786 0.150000
vertex 0.000283 0.003683 0.150000
endloop
endfacet
facet normal 0.000000 0.000000 1.000000
outer loop
vertex 0.000369 0.005996 0.150000
vertex 0.000350 0.005918 0.150000
vertex 0.000283 0.003683 0.150000
endloop
endfacet
facet normal 0.000148 0.000000 1.000000
outer loop
vertex 0.000283 0.003683 0.150000
vertex 0.003631 0.009078 0.150000
vertex 0.003589 0.009056 0.150000
endloop
endfacet
facet normal -0.000088 0.000000 1.000000
outer loop
vertex 0.000283 0.003683 0.150000
vertex 0.003589 0.009056 0.150000
vertex 0.003515 0.009020 0.150000
endloop
endfacet
facet normal 0.000000 0.000000 1.000000
outer loop
vertex 0.000386 0.006072 0.150000
vertex 0.000369 0.005996 0.150000
vertex 0.000283 0.003683 0.150000
endloop
endfacet
facet normal 0.002765 0.000000 0.999996
outer loop
vertex 0.000398 0.006139 0.150000
vertex 0.000386 0.006072 0.150000
vertex 0.000283 0.003683 0.150000
endloop
endfacet
facet normal 0.000072 0.000000 1.000000
outer loop
vertex 0.000283 0.003683 0.150000
vertex 0.003515 0.009020 0.150000
vertex 0.003220 0.008919 0.150000
endloop
endfacet
facet normal -0.000418 0.000000 1.000000
outer loop
vertex 0.002736 0.008785 0.150000
vertex 0.001928 0.008613 0.150000
vertex 0.001764 0.008570 0.150000
endloop
endfacet
facet normal -0.000036 0.000000 1.000000
outer loop
vertex 0.000283 0.003683 0.150000
vertex 0.003220 0.008919 0.150000
vertex 0.002736 0.008785 0.150000
endloop
endfacet
facet normal 0.000000 0.000000 1.000000
outer loop
vertex 0.000405 0.006197 0.150000
vertex 0.000398 0.006139 0.150000
vertex 0.000283 0.003683 0.150000
endloop
endfacet
facet normal -0.000238 0.000000 1.000000
outer loop
vertex 0.000473 0.007518 0.150000
vertex 0.000395 0.006903 0.150000
vertex 0.000405 0.006197 0.150000
endloop
endfacet
facet normal 0.023124 0.000000 0.999733
outer loop
vertex 0.000489 0.007599 0.150000
vertex 0.000481 0.007561 0.150000
vertex 0.000473 0.007518 0.150000
endloop
endfacet
facet normal -0.024364 0.000000 0.999703
outer loop
vertex 0.000506 0.007665 0.150000
vertex 0.000498 0.007633 0.150000
vertex 0.000489 0.007599 0.150000
endloop
endfacet
facet normal 0.000000 0.000000 1.000000
outer loop
vertex 0.000526 0.007723 0.150000
vertex 0.000516 0.007694 0.150000
vertex 0.000506 0.007665 0.150000
endloop
endfacet
facet normal 0.000000 0.000000 1.000000
outer loop
vertex 0.000582 0.007849 0.150000
vertex 0.000563 0.007814 0.150000
vertex 0.000526 0.007723 0.150000
endloop
endfacet
facet normal -0.002840 0.000000 0.999996
outer loop
vertex 0.000685 0.007963 0.150000
vertex 0.000610 0.007886 0.150000
vertex 0.000582 0.007849 0.150000
endloop
endfacet
facet normal 0.004872 0.000000 0.999988
outer loop
vertex 0.000829 0.008080 0.150000
vertex 0.000778 0.008041 0.150000
vertex 0.000685 0.007963 0.150000
endloop
endfacet
facet normal -0.011869 0.000000 0.999930
outer loop
vertex 0.000930 0.008151 0.150000
vertex 0.000880 0.008116 0.150000
vertex 0.000829 0.008080 0.150000
endloop
endfacet
facet normal 0.007752 0.000000 0.999970
outer loop
vertex 0.001066 0.008240 0.150000
vertex 0.000979 0.008184 0.150000
vertex 0.000930 0.008151 0.150000
endloop
endfacet
facet normal 0.007737 0.000000 0.999970
outer loop
vertex 0.001150 0.008289 0.150000
vertex 0.001106 0.008264 0.150000
vertex 0.001066 0.008240 0.150000
endloop
endfacet
facet normal 0.000000 0.000000 1.000000
outer loop
vertex 0.001246 0.008340 0.150000
vertex 0.001197 0.008315 0.150000
vertex 0.001150 0.008289 0.150000
endloop
endfacet
facet normal 0.000000 0.000000 1.000000
outer loop
vertex 0.001349 0.008392 0.150000
vertex 0.001297 0.008366 0.150000
vertex 0.001246 0.008340 0.150000
endloop
endfacet
facet normal 0.000000 0.000000 1.000000
outer loop
vertex 0.001453 0.008442 0.150000
vertex 0.001401 0.008417 0.150000
vertex 0.001349 0.008392 0.150000
endloop
endfacet
facet normal 0.024992 0.000000 0.999688
outer loop
vertex 0.001554 0.008488 0.150000
vertex 0.001504 0.008465 0.150000
vertex 0.001453 0.008442 0.150000
endloop
endfacet
facet normal 0.000000 0.000000 1.000000
outer loop
vertex 0.001647 0.008530 0.150000
vertex 0.001602 0.008510 0.150000
vertex 0.001554 0.008488 0.150000
endloop
endfacet
facet normal 0.000382 0.000000 1.000000
outer loop
vertex 0.002736 0.008785 0.150000
vertex 0.001764 0.008570 0.150000
vertex 0.001647 0.008530 0.150000
endloop
endfacet
facet normal 0.000000 0.000000 1.000000
outer loop
vertex 0.000405 0.006197 0.150000
vertex 0.000283 0.003683 0.150000
vertex 0.002736 0.008785 0.150000
endloop
endfacet
facet normal 0.000000 0.000000 1.000000
outer loop
vertex 0.000489 0.007599 0.150000
vertex 0.000473 0.007518 0.150000
vertex 0.000405 0.006197 0.150000
endloop
endfacet
facet normal 0.006437 0.000000 0.999979
outer loop
vertex 0.000526 0.007723 0.150000
vertex 0.000506 0.007665 0.150000
vertex 0.000489 0.007599 0.150000
endloop
endfacet
facet normal 0.000000 0.000000 1.000000
outer loop
vertex 0.000685 0.007963 0.150000
vertex 0.000582 0.007849 0.150000
vertex 0.000526 0.007723 0.150000
endloop
endfacet
facet normal -0.002406 0.000000 0.999997
outer loop
vertex 0.000930 0.008151 0.150000
vertex 0.000829 0.008080 0.150000
vertex 0.000685 0.007963 0.150000
endloop
endfacet
facet normal -0.002491 0.000000 0.999997
outer loop
vertex 0.001150 0.008289 0.150000
vertex 0.001066 0.008240 0.150000
vertex 0.000930 0.008151 0.150000
endloop
endfacet
facet normal 0.000000 0.000000 1.000000
outer loop
vertex 0.001349 0.008392 0.150000
vertex 0.001246 0.008340 0.150000
vertex 0.001150 0.008289 0.150000
endloop
endfacet
facet normal 0.000000 0.000000 1.000000
outer loop
vertex 0.001554 0.008488 0.150000
vertex 0.001453 0.008442 0.150000
vertex 0.001349 0.008392 0.150000
endloop
endfacet
facet normal 0.000042 0.000000 1.000000
outer loop
vertex 0.002736 0.008785 0.150000
vertex 0.001647 0.008530 0.150000
vertex 0.001554 0.008488 0.150000
endloop
endfacet
facet normal 0.000000 0.000000 1.000000
outer loop
vertex 0.000489 0.007599 0.150000
vertex 0.000405 0.006197 0.150000
vertex 0.002736 0.008785 0.150000
endloop
endfacet
facet normal 0.000000 0.000000 1.000000
outer loop
vertex 0.000685 0.007963 0.150000
vertex 0.000526 0.007723 0.150000
vertex 0.000489 0.007599 0.150000
endloop
endfacet
facet normal 0.000000 0.000000 1.000000
outer loop
vertex 0.001150 0.008289 0.150000
vertex 0.000930 0.008151 0.150000
vertex 0.000685 0.007963 0.150000
endloop
endfacet
facet normal 0.000000 0.000000 1.000000
outer loop
vertex 0.001554 0.008488 0.150000
vertex 0.001349 0.008392 0.150000
vertex 0.001150 0.008289 0.150000
endloop
endfacet
facet normal 0.000000 0.000000 1.000000
outer loop
vertex 0.000489 0.007599 0.150000
vertex 0.002736 0.008785 0.150000
vertex 0.001554 0.008488 0.150000
endloop
endfacet
facet normal 0.000000 0.000000 1.000000
outer loop
vertex 0.001150 0.008289 0.150000
vertex 0.000685 0.007963 0.150000
vertex 0.000489 0.007599 0.150000
endloop
endfacet
facet normal 0.000099 0.000000 1.000000
outer loop
vertex 0.001554 0.008488 0.150000
vertex 0.001150 0.008289 0.150000
vertex 0.000489 0.007599 0.150000
endloop
endfacet
facet normal -0.953631 0.300978 0.000000
outer loop
vertex 0.000516 0.007694 0.000000
vertex 0.000506 0.007665 0.000000
vertex 0.000506 0.007665 0.150000
endloop
endfacet
facet normal -0.953632 0.300975 0.000000
outer loop
vertex 0.000516 0.007694 0.000000
vertex 0.000506 0.007665 0.150000
vertex 0.000516 0.007694 0.150000
endloop
endfacet
facet normal -0.925980 0.377573 0.000000
outer loop
vertex 0.000563 0.007814 0.150000
vertex 0.000563 0.007814 0.000000
vertex 0.000526 0.007723 0.000000
endloop
endfacet
facet normal -0.943056 0.332635 0.000000
outer loop
vertex 0.000526 0.007723 0.000000
vertex 0.000516 0.007694 0.000000
vertex 0.000516 0.007694 0.150000
endloop
endfacet
facet normal -0.925979 0.377574 0.000000
outer loop
vertex 0.000526 0.007723 0.150000
vertex 0.000563 0.007814 0.150000
vertex 0.000526 0.007723 0.000000
endloop
endfacet
facet normal -0.943057 0.332632 0.000000
outer loop
vertex 0.000516 0.007694 0.150000
vertex 0.000526 0.007723 0.150000
vertex 0.000526 0.007723 0.000000
endloop
endfacet
facet normal 0.999981 0.006197 0.000000
outer loop
vertex 0.009192 0.004371 0.000000
vertex 0.009190 0.004593 0.000000
vertex 0.009190 0.004593 0.150000
endloop
endfacet
facet normal 0.999981 0.006197 0.000000
outer loop
vertex 0.009192 0.004371 0.000000
vertex 0.009190 0.004593 0.150000
vertex 0.009192 0.004371 0.150000
endloop
endfacet
facet normal 0.999865 -0.016412 0.000000
outer loop
vertex 0.009188 0.004136 0.000000
vertex 0.009192 0.004371 0.000000
vertex 0.009192 0.004371 0.150000
endloop
endfacet
facet normal 0.999865 -0.016425 0.000000
outer loop
vertex 0.009188 0.004136 0.000000
vertex 0.009192 0.004371 0.150000
vertex 0.009188 0.004136 0.150000
endloop
endfacet
facet normal 0.995583 -0.093886 0.000000
outer loop
vertex 0.009126 0.003057 0.150000
vertex 0.009126 0.003057 0.000000
vertex 0.009152 0.003335 0.000000
endloop
endfacet
facet normal 0.999019 -0.044273 0.000000
outer loop
vertex 0.009152 0.003335 0.000000
vertex 0.009188 0.004136 0.000000
vertex 0.009188 0.004136 0.150000
endloop
endfacet
facet normal 0.995582 -0.093892 0.000000
outer loop
vertex 0.009152 0.003335 0.150000
vertex 0.009126 0.003057 0.150000
vertex 0.009152 0.003335 0.000000
endloop
endfacet
facet normal 0.999019 -0.044273 0.000000
outer loop
vertex 0.009188 0.004136 0.150000
vertex 0.009152 0.003335 0.150000
vertex 0.009152 0.003335 0.000000
endloop
endfacet
facet normal 0.818543 -0.574446 0.000000
outer loop
vertex 0.008672 0.001943 0.000000
vertex 0.008771 0.002084 0.000000
vertex 0.008771 0.002084 0.150000
endloop
endfacet
facet normal 0.818538 -0.574452 0.000000
outer loop
vertex 0.008672 0.001943 0.000000
vertex 0.008771 0.002084 0.150000
vertex 0.008672 0.001943 0.150000
endloop
endfacet
facet normal 0.784970 -0.619534 0.000000
outer loop
vertex 0.008362 0.001551 0.000000
vertex 0.008672 0.001943 0.000000
vertex 0.008672 0.001943 0.150000
endloop
endfacet
facet normal 0.784971 -0.619532 0.000000
outer loop
vertex 0.008362 0.001551 0.000000
vertex 0.008672 0.001943 0.150000
vertex 0.008362 0.001551 0.150000
endloop
endfacet
facet normal 0.804465 -0.594000 0.000000
outer loop
vertex 0.008263 0.001416 0.000000
vertex 0.008362 0.001551 0.000000
vertex 0.008362 0.001551 0.150000
endloop
endfacet
facet normal 0.804469 -0.593994 0.000000
outer loop
vertex 0.008263 0.001416 0.000000
vertex 0.008362 0.001551 0.150000
vertex 0.008263 0.001416 0.150000
endloop
endfacet
facet normal 0.797627 -0.603151 0.000000
outer loop
vertex 0.007983 0.001006 0.150000
vertex 0.007983 0.001006 0.000000
vertex 0.008078 0.001132 0.000000
endloop
endfacet
facet normal 0.838658 -0.544659 0.000000
outer loop
vertex 0.008078 0.001132 0.000000
vertex 0.008263 0.001416 0.000000
vertex 0.008263 0.001416 0.150000
endloop
endfacet
facet normal 0.797622 -0.603157 0.000000
outer loop
vertex 0.008078 0.001132 0.150000
vertex 0.007983 0.001006 0.150000
vertex 0.008078 0.001132 0.000000
endloop
endfacet
facet normal 0.838656 -0.544662 0.000000
outer loop
vertex 0.008263 0.001416 0.150000
vertex 0.008078 0.001132 0.150000
vertex 0.008078 0.001132 0.000000
endloop
endfacet
facet normal 0.391367 0.920235 0.000000
outer loop
vertex 0.006268 0.009911 0.000000
vertex 0.006188 0.009945 0.000000
vertex 0.006188 0.009945 0.150000
endloop
endfacet
facet normal 0.391367 0.920235 0.000000
outer loop
vertex 0.006268 0.009911 0.000000
vertex 0.006188 0.009945 0.150000
vertex 0.006268 0.009911 0.150000
endloop
endfacet
facet normal 0.472039 0.881578 0.000000
outer loop
vertex 0.006560 0.009760 0.150000
vertex 0.006560 0.009760 0.000000
vertex 0.006357 0.009869 0.000000
endloop
endfacet
facet normal 0.428823 0.903389 0.000000
outer loop
vertex 0.006357 0.009869 0.000000
vertex 0.006268 0.009911 0.000000
vertex 0.006268 0.009911 0.150000
endloop
endfacet
facet normal 0.472042 0.881576 0.000000
outer loop
vertex 0.006357 0.009869 0.150000
vertex 0.006560 0.009760 0.150000
vertex 0.006357 0.009869 0.000000
endloop
endfacet
facet normal 0.428826 0.903387 0.000000
outer loop
vertex 0.006268 0.009911 0.150000
vertex 0.006357 0.009869 0.150000
vertex 0.006357 0.009869 0.000000
endloop
endfacet
facet normal -0.984453 0.175650 0.000000
outer loop
vertex 0.002267 0.000946 0.000000
vertex 0.002267 0.000946 0.150000
vertex 0.002296 0.001108 0.150000
endloop
endfacet
facet normal -0.984452 0.175653 0.000000
outer loop
vertex 0.002267 0.000946 0.000000
vertex 0.002296 0.001108 0.150000
vertex 0.002296 0.001108 0.000000
endloop
endfacet
facet normal 0.028514 0.999593 0.000000
outer loop
vertex 0.005680 0.010037 0.150000
vertex 0.005680 0.010037 0.000000
vertex 0.005540 0.010041 0.000000
endloop
endfacet
facet normal 0.028514 0.999593 0.000000
outer loop
vertex 0.005680 0.010037 0.150000
vertex 0.005540 0.010041 0.000000
vertex 0.005540 0.010041 0.150000
endloop
endfacet
facet normal 0.996026 0.089064 0.000000
outer loop
vertex 0.009190 0.004593 0.000000
vertex 0.009118 0.005405 0.000000
vertex 0.009118 0.005405 0.150000
endloop
endfacet
facet normal 0.996026 0.089062 0.000000
outer loop
vertex 0.009190 0.004593 0.000000
vertex 0.009118 0.005405 0.150000
vertex 0.009190 0.004593 0.150000
endloop
endfacet
facet normal -0.253193 0.967416 0.000000
outer loop
vertex 0.001928 0.008613 0.000000
vertex 0.001764 0.008570 0.000000
vertex 0.001764 0.008570 0.150000
endloop
endfacet
facet normal -0.253193 0.967416 0.000000
outer loop
vertex 0.001928 0.008613 0.000000
vertex 0.001764 0.008570 0.150000
vertex 0.001928 0.008613 0.150000
endloop
endfacet
facet normal -0.266106 0.963944 0.000000
outer loop
vertex 0.003220 0.008919 0.150000
vertex 0.003220 0.008919 0.000000
vertex 0.002736 0.008785 0.000000
endloop
endfacet
facet normal -0.207799 0.978172 0.000000
outer loop
vertex 0.002736 0.008785 0.000000
vertex 0.001928 0.008613 0.000000
vertex 0.001928 0.008613 0.150000
endloop
endfacet
facet normal -0.266106 0.963944 0.000000
outer loop
vertex 0.002736 0.008785 0.150000
vertex 0.003220 0.008919 0.150000
vertex 0.002736 0.008785 0.000000
endloop
endfacet
facet normal -0.207799 0.978172 0.000000
outer loop
vertex 0.001928 0.008613 0.150000
vertex 0.002736 0.008785 0.150000
vertex 0.002736 0.008785 0.000000
endloop
endfacet
facet normal 0.976361 0.216145 0.000000
outer loop
vertex 0.009118 0.005405 0.000000
vertex 0.009031 0.005798 0.000000
vertex 0.009031 0.005798 0.150000
endloop
endfacet
facet normal 0.976362 0.216141 0.000000
outer loop
vertex 0.009118 0.005405 0.000000
vertex 0.009031 0.005798 0.150000
vertex 0.009118 0.005405 0.150000
endloop
endfacet
facet normal -0.080029 -0.996792 0.000000
outer loop
vertex 0.005443 0.000041 0.000000
vertex 0.005947 0.000001 0.000000
vertex 0.005947 0.000001 0.150000
endloop
endfacet
facet normal -0.080030 -0.996793 0.000000
outer loop
vertex 0.005443 0.000041 0.000000
vertex 0.005947 0.000001 0.150000
vertex 0.005443 0.000041 0.150000
endloop
endfacet
facet normal -0.999907 -0.013635 0.000000
outer loop
vertex 0.002295 0.001201 0.150000
vertex 0.002295 0.001201 0.000000
vertex 0.002296 0.001108 0.000000
endloop
endfacet
facet normal -0.999907 -0.013631 0.000000
outer loop
vertex 0.002295 0.001201 0.150000
vertex 0.002296 0.001108 0.000000
vertex 0.002296 0.001108 0.150000
endloop
endfacet
facet normal -0.955045 0.296462 0.000000
outer loop
vertex 0.000309 0.005786 0.150000
vertex 0.000350 0.005918 0.150000
vertex 0.000350 0.005918 0.000000
endloop
endfacet
facet normal -0.955045 0.296462 0.000000
outer loop
vertex 0.000309 0.005786 0.150000
vertex 0.000350 0.005918 0.000000
vertex 0.000309 0.005786 0.000000
endloop
endfacet
facet normal -0.934190 0.356775 0.000000
outer loop
vertex 0.000187 0.005467 0.150000
vertex 0.000309 0.005786 0.150000
vertex 0.000309 0.005786 0.000000
endloop
endfacet
facet normal -0.934190 0.356775 0.000000
outer loop
vertex 0.000187 0.005467 0.150000
vertex 0.000309 0.005786 0.000000
vertex 0.000187 0.005467 0.000000
endloop
endfacet
facet normal -0.965688 0.259703 0.000000
outer loop
vertex 0.000152 0.005348 0.000000
vertex 0.000152 0.005348 0.150000
vertex 0.000169 0.005410 0.150000
endloop
endfacet
facet normal -0.954054 0.299634 0.000000
outer loop
vertex 0.000169 0.005410 0.150000
vertex 0.000187 0.005467 0.150000
vertex 0.000187 0.005467 0.000000
endloop
endfacet
facet normal -0.965688 0.259703 0.000000
outer loop
vertex 0.000169 0.005410 0.000000
vertex 0.000152 0.005348 0.000000
vertex 0.000169 0.005410 0.150000
endloop
endfacet
facet normal -0.954054 0.299635 0.000000
outer loop
vertex 0.000187 0.005467 0.000000
vertex 0.000169 0.005410 0.000000
vertex 0.000169 0.005410 0.150000
endloop
endfacet
facet normal -0.999640 -0.026838 0.000000
outer loop
vertex 0.002267 0.000946 0.150000
vertex 0.002267 0.000946 0.000000
vertex 0.002269 0.000872 0.000000
endloop
endfacet
facet normal -0.999640 -0.026843 0.000000
outer loop
vertex 0.002267 0.000946 0.150000
vertex 0.002269 0.000872 0.000000
vertex 0.002269 0.000872 0.150000
endloop
endfacet
facet normal -0.903139 -0.429349 0.000000
outer loop
vertex 0.002269 0.000872 0.150000
vertex 0.002269 0.000872 0.000000
vertex 0.002303 0.000800 0.000000
endloop
endfacet
facet normal -0.903140 -0.429345 0.000000
outer loop
vertex 0.002269 0.000872 0.150000
vertex 0.002303 0.000800 0.000000
vertex 0.002303 0.000800 0.150000
endloop
endfacet
facet normal 0.673632 0.739067 0.000000
outer loop
vertex 0.007443 0.009110 0.000000
vertex 0.007246 0.009290 0.000000
vertex 0.007246 0.009290 0.150000
endloop
endfacet
facet normal 0.673632 0.739067 0.000000
outer loop
vertex 0.007443 0.009110 0.000000
vertex 0.007246 0.009290 0.150000
vertex 0.007443 0.009110 0.150000
endloop
endfacet
facet normal 0.000000 0.000000 1.000000
outer loop
vertex 0.008972 0.005999 0.000000
vertex 0.008782 0.006597 0.000000
vertex 0.008718 0.006788 0.000000
endloop
endfacet
facet normal 0.000000 0.000000 1.000000
outer loop
vertex 0.008718 0.006788 0.000000
vertex 0.008654 0.006974 0.000000
vertex 0.008588 0.007154 0.000000
endloop
endfacet
facet normal 0.932149 0.362076 0.000000
outer loop
vertex 0.008588 0.007154 0.000000
vertex 0.008520 0.007329 0.000000
vertex 0.008520 0.007329 0.150000
endloop
endfacet
facet normal 0.932149 0.362076 0.000000
outer loop
vertex 0.008588 0.007154 0.000000
vertex 0.008520 0.007329 0.150000
vertex 0.008588 0.007154 0.150000
endloop
endfacet
facet normal 0.000000 0.000000 1.000000
outer loop
vertex 0.008972 0.005999 0.000000
vertex 0.008718 0.006788 0.000000
vertex 0.008588 0.007154 0.000000
endloop
endfacet
facet normal 0.959962 0.280131 0.000000
outer loop
vertex 0.009031 0.005798 0.150000
vertex 0.009031 0.005798 0.000000
vertex 0.008972 0.005999 0.000000
endloop
endfacet
facet normal 0.959962 0.280131 0.000000
outer loop
vertex 0.008972 0.005999 0.150000
vertex 0.009031 0.005798 0.150000
vertex 0.008972 0.005999 0.000000
endloop
endfacet
facet normal 0.948919 0.315519 0.000000
outer loop
vertex 0.008972 0.005999 0.000000
vertex 0.008588 0.007154 0.000000
vertex 0.008588 0.007154 0.150000
endloop
endfacet
facet normal 0.939408 0.342801 -0.000234
outer loop
vertex 0.008972 0.005999 0.000000
vertex 0.008588 0.007154 0.150000
vertex 0.008654 0.006974 0.150000
endloop
endfacet
facet normal 0.952908 0.303260 0.000000
outer loop
vertex 0.008782 0.006597 0.150000
vertex 0.008972 0.005999 0.150000
vertex 0.008972 0.005999 0.000000
endloop
endfacet
facet normal 0.944869 0.327447 -0.000123
outer loop
vertex 0.008972 0.005999 0.000000
vertex 0.008654 0.006974 0.150000
vertex 0.008718 0.006788 0.150000
endloop
endfacet
facet normal 0.948850 0.315727 -0.000055
outer loop
vertex 0.008718 0.006788 0.150000
vertex 0.008782 0.006597 0.150000
vertex 0.008972 0.005999 0.000000
endloop
endfacet
facet normal -0.138969 -0.990297 0.000000
outer loop
vertex 0.005143 0.000083 0.000000
vertex 0.005443 0.000041 0.000000
vertex 0.005443 0.000041 0.150000
endloop
endfacet
facet normal -0.138969 -0.990297 0.000000
outer loop
vertex 0.005143 0.000083 0.000000
vertex 0.005443 0.000041 0.150000
vertex 0.005143 0.000083 0.150000
endloop
endfacet
facet normal -0.163889 -0.986479 0.000000
outer loop
vertex 0.004804 0.000140 0.000000
vertex 0.005143 0.000083 0.000000
vertex 0.005143 0.000083 0.150000
endloop
endfacet
facet normal -0.163888 -0.986479 0.000000
outer loop
vertex 0.004804 0.000140 0.000000
vertex 0.005143 0.000083 0.150000
vertex 0.004804 0.000140 0.150000
endloop
endfacet
facet normal -0.180625 -0.983552 0.000000
outer loop
vertex 0.004424 0.000209 0.000000
vertex 0.004804 0.000140 0.000000
vertex 0.004804 0.000140 0.150000
endloop
endfacet
facet normal -0.180625 -0.983552 0.000000
outer loop
vertex 0.004424 0.000209 0.000000
vertex 0.004804 0.000140 0.150000
vertex 0.004424 0.000209 0.150000
endloop
endfacet
facet normal -0.214610 -0.976700 0.000000
outer loop
vertex 0.003087 0.000484 0.150000
vertex 0.003087 0.000484 0.000000
vertex 0.003525 0.000388 0.000000
endloop
endfacet
facet normal -0.194408 -0.980921 0.000000
outer loop
vertex 0.003525 0.000388 0.000000
vertex 0.004424 0.000209 0.000000
vertex 0.004424 0.000209 0.150000
endloop
endfacet
facet normal -0.214610 -0.976700 0.000000
outer loop
vertex 0.003525 0.000388 0.150000
vertex 0.003087 0.000484 0.150000
vertex 0.003525 0.000388 0.000000
endloop
endfacet
facet normal -0.194408 -0.980921 0.000000
outer loop
vertex 0.004424 0.000209 0.150000
vertex 0.003525 0.000388 0.150000
vertex 0.003525 0.000388 0.000000
endloop
endfacet
facet normal -0.325482 0.945548 0.000000
outer loop
vertex 0.003515 0.009020 0.000000
vertex 0.003220 0.008919 0.000000
vertex 0.003220 0.008919 0.150000
endloop
endfacet
facet normal -0.325483 0.945548 0.000000
outer loop
vertex 0.003515 0.009020 0.000000
vertex 0.003220 0.008919 0.150000
vertex 0.003515 0.009020 0.150000
endloop
endfacet
facet normal 0.319412 -0.947616 0.000000
outer loop
vertex 0.006515 0.000057 0.150000
vertex 0.006515 0.000057 0.000000
vertex 0.006669 0.000109 0.000000
endloop
endfacet
facet normal 0.319412 -0.947616 0.000000
outer loop
vertex 0.006515 0.000057 0.150000
vertex 0.006669 0.000109 0.000000
vertex 0.006669 0.000109 0.150000
endloop
endfacet
facet normal -0.201225 0.979545 0.000000
outer loop
vertex 0.005413 0.010032 0.150000
vertex 0.005413 0.010032 0.000000
vertex 0.005358 0.010020 0.000000
endloop
endfacet
facet normal -0.201227 0.979545 0.000000
outer loop
vertex 0.005413 0.010032 0.150000
vertex 0.005358 0.010020 0.000000
vertex 0.005358 0.010020 0.150000
endloop
endfacet
facet normal 0.752269 0.658856 0.000000
outer loop
vertex 0.007598 0.008934 0.150000
vertex 0.007598 0.008934 0.000000
vertex 0.007443 0.009110 0.000000
endloop
endfacet
facet normal 0.752269 0.658856 0.000000
outer loop
vertex 0.007598 0.008934 0.150000
vertex 0.007443 0.009110 0.000000
vertex 0.007443 0.009110 0.150000
endloop
endfacet
facet normal -0.478582 0.878043 0.000000
outer loop
vertex 0.001197 0.008315 0.000000
vertex 0.001150 0.008289 0.000000
vertex 0.001150 0.008289 0.150000
endloop
endfacet
facet normal -0.478581 0.878044 0.000000
outer loop
vertex 0.001197 0.008315 0.000000
vertex 0.001150 0.008289 0.150000
vertex 0.001197 0.008315 0.150000
endloop
endfacet
facet normal -0.464676 0.885481 0.000000
outer loop
vertex 0.001246 0.008340 0.000000
vertex 0.001197 0.008315 0.000000
vertex 0.001197 0.008315 0.150000
endloop
endfacet
facet normal -0.464673 0.885482 0.000000
outer loop
vertex 0.001246 0.008340 0.000000
vertex 0.001197 0.008315 0.150000
vertex 0.001246 0.008340 0.150000
endloop
endfacet
facet normal -0.453076 0.891472 0.000000
outer loop
vertex 0.001297 0.008366 0.000000
vertex 0.001246 0.008340 0.000000
vertex 0.001246 0.008340 0.150000
endloop
endfacet
facet normal -0.453075 0.891473 0.000000
outer loop
vertex 0.001297 0.008366 0.000000
vertex 0.001246 0.008340 0.150000
vertex 0.001297 0.008366 0.150000
endloop
endfacet
facet normal -0.443328 0.896359 0.000000
outer loop
vertex 0.001349 0.008392 0.000000
vertex 0.001297 0.008366 0.000000
vertex 0.001297 0.008366 0.150000
endloop
endfacet
facet normal -0.443328 0.896359 0.000000
outer loop
vertex 0.001349 0.008392 0.000000
vertex 0.001297 0.008366 0.150000
vertex 0.001349 0.008392 0.150000
endloop
endfacet
facet normal -0.435012 0.900424 0.000000
outer loop
vertex 0.001401 0.008417 0.000000
vertex 0.001349 0.008392 0.000000
vertex 0.001349 0.008392 0.150000
endloop
endfacet
facet normal -0.435014 0.900424 0.000000
outer loop
vertex 0.001401 0.008417 0.000000
vertex 0.001349 0.008392 0.150000
vertex 0.001401 0.008417 0.150000
endloop
endfacet
facet normal -0.427869 0.903841 0.000000
outer loop
vertex 0.001453 0.008442 0.000000
vertex 0.001401 0.008417 0.000000
vertex 0.001401 0.008417 0.150000
endloop
endfacet
facet normal -0.427868 0.903841 0.000000
outer loop
vertex 0.001453 0.008442 0.000000
vertex 0.001401 0.008417 0.150000
vertex 0.001453 0.008442 0.150000
endloop
endfacet
facet normal -0.421708 0.906732 0.000000
outer loop
vertex 0.001504 0.008465 0.000000
vertex 0.001453 0.008442 0.000000
vertex 0.001453 0.008442 0.150000
endloop
endfacet
facet normal -0.421709 0.906731 0.000000
outer loop
vertex 0.001504 0.008465 0.000000
vertex 0.001453 0.008442 0.150000
vertex 0.001504 0.008465 0.150000
endloop
endfacet
facet normal -0.416372 0.909194 0.000000
outer loop
vertex 0.001554 0.008488 0.000000
vertex 0.001504 0.008465 0.000000
vertex 0.001504 0.008465 0.150000
endloop
endfacet
facet normal -0.416374 0.909193 0.000000
outer loop
vertex 0.001554 0.008488 0.000000
vertex 0.001504 0.008465 0.150000
vertex 0.001554 0.008488 0.150000
endloop
endfacet
facet normal -0.407811 0.913066 0.000000
outer loop
vertex 0.001647 0.008530 0.150000
vertex 0.001647 0.008530 0.000000
vertex 0.001602 0.008510 0.000000
endloop
endfacet
facet normal -0.411752 0.911296 0.000000
outer loop
vertex 0.001602 0.008510 0.000000
vertex 0.001554 0.008488 0.000000
vertex 0.001554 0.008488 0.150000
endloop
endfacet
facet normal -0.407813 0.913066 0.000000
outer loop
vertex 0.001602 0.008510 0.150000
vertex 0.001647 0.008530 0.150000
vertex 0.001602 0.008510 0.000000
endloop
endfacet
facet normal -0.411754 0.911295 0.000000
outer loop
vertex 0.001554 0.008488 0.150000
vertex 0.001602 0.008510 0.150000
vertex 0.001602 0.008510 0.000000
endloop
endfacet
facet normal 0.304336 0.952565 0.000000
outer loop
vertex 0.006188 0.009945 0.000000
vertex 0.006065 0.009985 0.000000
vertex 0.006065 0.009985 0.150000
endloop
endfacet
facet normal 0.304334 0.952565 0.000000
outer loop
vertex 0.006188 0.009945 0.000000
vertex 0.006065 0.009985 0.150000
vertex 0.006188 0.009945 0.150000
endloop
endfacet
facet normal -0.876637 0.481153 0.000000
outer loop
vertex 0.000582 0.007849 0.150000
vertex 0.000582 0.007849 0.000000
vertex 0.000563 0.007814 0.000000
endloop
endfacet
facet normal -0.876637 0.481153 0.000000
outer loop
vertex 0.000582 0.007849 0.150000
vertex 0.000563 0.007814 0.000000
vertex 0.000563 0.007814 0.150000
endloop
endfacet
facet normal -0.977666 -0.210166 0.000000
outer loop
vertex 0.000117 0.003958 0.000000
vertex 0.000117 0.003958 0.150000
vertex 0.000012 0.004447 0.150000
endloop
endfacet
facet normal -0.977666 -0.210166 0.000000
outer loop
vertex 0.000117 0.003958 0.000000
vertex 0.000012 0.004447 0.150000
vertex 0.000012 0.004447 0.000000
endloop
endfacet
facet normal -0.642349 0.766412 0.000000
outer loop
vertex 0.000778 0.008041 0.000000
vertex 0.000685 0.007963 0.000000
vertex 0.000685 0.007963 0.150000
endloop
endfacet
facet normal -0.642348 0.766413 0.000000
outer loop
vertex 0.000778 0.008041 0.000000
vertex 0.000685 0.007963 0.150000
vertex 0.000778 0.008041 0.150000
endloop
endfacet
facet normal 0.726403 -0.687269 0.000000
outer loop
vertex 0.007782 0.000793 0.150000
vertex 0.007782 0.000793 0.000000
vertex 0.007983 0.001006 0.000000
endloop
endfacet
facet normal 0.726403 -0.687269 0.000000
outer loop
vertex 0.007782 0.000793 0.150000
vertex 0.007983 0.001006 0.000000
vertex 0.007983 0.001006 0.150000
endloop
endfacet
facet normal 0.802098 0.597192 0.000000
outer loop
vertex 0.007665 0.008844 0.000000
vertex 0.007598 0.008934 0.000000
vertex 0.007598 0.008934 0.150000
endloop
endfacet
facet normal 0.802091 0.597201 0.000000
outer loop
vertex 0.007665 0.008844 0.000000
vertex 0.007598 0.008934 0.150000
vertex 0.007665 0.008844 0.150000
endloop
endfacet
facet normal 0.826751 0.562568 0.000000
outer loop
vertex 0.007728 0.008752 0.000000
vertex 0.007665 0.008844 0.000000
vertex 0.007665 0.008844 0.150000
endloop
endfacet
facet normal 0.826757 0.562559 0.000000
outer loop
vertex 0.007728 0.008752 0.000000
vertex 0.007665 0.008844 0.150000
vertex 0.007728 0.008752 0.150000
endloop
endfacet
facet normal 0.844127 0.536144 0.000000
outer loop
vertex 0.007788 0.008656 0.000000
vertex 0.007728 0.008752 0.000000
vertex 0.007728 0.008752 0.150000
endloop
endfacet
facet normal 0.844127 0.536144 0.000000
outer loop
vertex 0.007788 0.008656 0.000000
vertex 0.007728 0.008752 0.150000
vertex 0.007788 0.008656 0.150000
endloop
endfacet
facet normal 0.856501 0.516146 0.000000
outer loop
vertex 0.007979 0.008339 0.000000
vertex 0.007788 0.008656 0.000000
vertex 0.007788 0.008656 0.150000
endloop
endfacet
facet normal 0.856501 0.516146 0.000000
outer loop
vertex 0.007979 0.008339 0.000000
vertex 0.007788 0.008656 0.150000
vertex 0.007979 0.008339 0.150000
endloop
endfacet
facet normal 0.850370 0.526186 0.000000
outer loop
vertex 0.008053 0.008220 0.000000
vertex 0.007979 0.008339 0.000000
vertex 0.007979 0.008339 0.150000
endloop
endfacet
facet normal 0.850370 0.526186 0.000000
outer loop
vertex 0.008053 0.008220 0.000000
vertex 0.007979 0.008339 0.150000
vertex 0.008053 0.008220 0.150000
endloop
endfacet
facet normal 0.849386 0.527772 0.000000
outer loop
vertex 0.008220 0.007956 0.150000
vertex 0.008220 0.007956 0.000000
vertex 0.008135 0.008093 0.000000
endloop
endfacet
facet normal 0.840355 0.542037 0.000000
outer loop
vertex 0.008135 0.008093 0.000000
vertex 0.008053 0.008220 0.000000
vertex 0.008053 0.008220 0.150000
endloop
endfacet
facet normal 0.849382 0.527779 0.000000
outer loop
vertex 0.008135 0.008093 0.150000
vertex 0.008220 0.007956 0.150000
vertex 0.008135 0.008093 0.000000
endloop
endfacet
facet normal 0.840359 0.542029 0.000000
outer loop
vertex 0.008053 0.008220 0.150000
vertex 0.008135 0.008093 0.150000
vertex 0.008135 0.008093 0.000000
endloop
endfacet
facet normal -0.963485 0.267763 0.000000
outer loop
vertex 0.000498 0.007633 0.150000
vertex 0.000506 0.007665 0.150000
vertex 0.000506 0.007665 0.000000
endloop
endfacet
facet normal 0.000000 0.000000 1.000000
outer loop
vertex 0.000506 0.007665 0.000000
vertex 0.000498 0.007633 0.000000
vertex 0.000489 0.007599 0.000000
endloop
endfacet
facet normal 0.000000 0.000000 1.000000
outer loop
vertex 0.000489 0.007599 0.000000
vertex 0.000481 0.007561 0.000000
vertex 0.000473 0.007518 0.000000
endloop
endfacet
facet normal -0.982602 0.185724 0.000000
outer loop
vertex 0.000473 0.007518 0.000000
vertex 0.000473 0.007518 0.150000
vertex 0.000481 0.007561 0.150000
endloop
endfacet
facet normal -0.971713 0.236164 -0.000007
outer loop
vertex 0.000489 0.007599 0.150000
vertex 0.000498 0.007633 0.150000
vertex 0.000506 0.007665 0.000000
endloop
endfacet
facet normal -0.978029 0.208468 -0.000007
outer loop
vertex 0.000473 0.007518 0.000000
vertex 0.000481 0.007561 0.150000
vertex 0.000489 0.007599 0.150000
endloop
endfacet
facet normal 0.000000 0.000000 1.000000
outer loop
vertex 0.000506 0.007665 0.000000
vertex 0.000489 0.007599 0.000000
vertex 0.000473 0.007518 0.000000
endloop
endfacet
facet normal -0.975207 0.221294 -0.000014
outer loop
vertex 0.000506 0.007665 0.000000
vertex 0.000473 0.007518 0.000000
vertex 0.000489 0.007599 0.150000
endloop
endfacet
facet normal 0.983938 -0.178510 0.000000
outer loop
vertex 0.009082 0.002813 0.150000
vertex 0.009082 0.002813 0.000000
vertex 0.009126 0.003057 0.000000
endloop
endfacet
facet normal 0.983937 -0.178516 0.000000
outer loop
vertex 0.009082 0.002813 0.150000
vertex 0.009126 0.003057 0.000000
vertex 0.009126 0.003057 0.150000
endloop
endfacet
facet normal -0.832817 -0.553549 0.000000
outer loop
vertex 0.000175 0.003844 0.150000
vertex 0.000175 0.003844 0.000000
vertex 0.000283 0.003683 0.000000
endloop
endfacet
facet normal -0.832817 -0.553549 0.000000
outer loop
vertex 0.000175 0.003844 0.150000
vertex 0.000283 0.003683 0.000000
vertex 0.000283 0.003683 0.150000
endloop
endfacet
facet normal -0.455170 -0.890405 0.000000
outer loop
vertex 0.002386 0.000727 0.150000
vertex 0.002386 0.000727 0.000000
vertex 0.002534 0.000651 0.000000
endloop
endfacet
facet normal -0.455169 -0.890405 0.000000
outer loop
vertex 0.002386 0.000727 0.150000
vertex 0.002534 0.000651 0.000000
vertex 0.002534 0.000651 0.150000
endloop
endfacet
facet normal -0.991788 0.127890 0.000000
outer loop
vertex 0.000008 0.004667 0.000000
vertex 0.000002 0.004623 0.000000
vertex 0.000002 0.004623 0.150000
endloop
endfacet
facet normal -0.991788 0.127890 0.000000
outer loop
vertex 0.000008 0.004667 0.000000
vertex 0.000002 0.004623 0.150000
vertex 0.000008 0.004667 0.150000
endloop
endfacet
facet normal -0.977362 0.211572 0.000000
outer loop
vertex 0.000152 0.005348 0.150000
vertex 0.000152 0.005348 0.000000
vertex 0.000015 0.004712 0.000000
endloop
endfacet
facet normal -0.987675 0.156520 0.000000
outer loop
vertex 0.000015 0.004712 0.000000
vertex 0.000008 0.004667 0.000000
vertex 0.000008 0.004667 0.150000
endloop
endfacet
facet normal -0.977362 0.211572 0.000000
outer loop
vertex 0.000015 0.004712 0.150000
vertex 0.000152 0.005348 0.150000
vertex 0.000015 0.004712 0.000000
endloop
endfacet
facet normal -0.987675 0.156520 0.000000
outer loop
vertex 0.000008 0.004667 0.150000
vertex 0.000015 0.004712 0.150000
vertex 0.000015 0.004712 0.000000
endloop
endfacet
facet normal -0.999329 0.036628 0.000000
outer loop
vertex 0.000002 0.004623 0.150000
vertex 0.000002 0.004623 0.000000
vertex 0.000000 0.004574 0.000000
endloop
endfacet
facet normal -0.999329 0.036628 0.000000
outer loop
vertex 0.000002 0.004623 0.150000
vertex 0.000000 0.004574 0.000000
vertex 0.000000 0.004574 0.150000
endloop
endfacet
facet normal -0.431255 0.902230 0.000000
outer loop
vertex 0.003589 0.009056 0.150000
vertex 0.003589 0.009056 0.000000
vertex 0.003515 0.009020 0.000000
endloop
endfacet
facet normal -0.431255 0.902230 0.000000
outer loop
vertex 0.003589 0.009056 0.150000
vertex 0.003515 0.009020 0.000000
vertex 0.003515 0.009020 0.150000
endloop
endfacet
facet normal -0.951581 -0.307397 0.000000
outer loop
vertex 0.002261 0.001303 0.150000
vertex 0.002261 0.001303 0.000000
vertex 0.002295 0.001201 0.000000
endloop
endfacet
facet normal -0.951581 -0.307397 0.000000
outer loop
vertex 0.002261 0.001303 0.150000
vertex 0.002295 0.001201 0.000000
vertex 0.002295 0.001201 0.150000
endloop
endfacet
facet normal 0.203044 -0.979170 0.000000
outer loop
vertex 0.006346 0.000022 0.150000
vertex 0.006346 0.000022 0.000000
vertex 0.006515 0.000057 0.000000
endloop
endfacet
facet normal 0.203045 -0.979169 0.000000
outer loop
vertex 0.006346 0.000022 0.150000
vertex 0.006515 0.000057 0.000000
vertex 0.006515 0.000057 0.150000
endloop
endfacet
facet normal 0.963185 -0.268841 0.000000
outer loop
vertex 0.009022 0.002598 0.150000
vertex 0.009022 0.002598 0.000000
vertex 0.009082 0.002813 0.000000
endloop
endfacet
facet normal 0.963188 -0.268828 0.000000
outer loop
vertex 0.009022 0.002598 0.150000
vertex 0.009082 0.002813 0.000000
vertex 0.009082 0.002813 0.150000
endloop
endfacet
facet normal -0.804722 -0.593652 0.000000
outer loop
vertex 0.000430 0.003483 0.150000
vertex 0.000283 0.003683 0.150000
vertex 0.000283 0.003683 0.000000
endloop
endfacet
facet normal 0.000000 0.000000 1.000000
outer loop
vertex 0.000283 0.003683 0.000000
vertex 0.000430 0.003483 0.000000
vertex 0.000610 0.003253 0.000000
endloop
endfacet
facet normal 0.000000 0.000000 1.000000
outer loop
vertex 0.000610 0.003253 0.000000
vertex 0.000812 0.003003 0.000000
vertex 0.001254 0.002476 0.000000
endloop
endfacet
facet normal 0.000000 0.000000 1.000000
outer loop
vertex 0.001254 0.002476 0.000000
vertex 0.001689 0.001973 0.000000
vertex 0.002180 0.001419 0.000000
endloop
endfacet
facet normal -0.817614 -0.575767 0.000000
outer loop
vertex 0.002180 0.001419 0.000000
vertex 0.002261 0.001303 0.000000
vertex 0.002261 0.001303 0.150000
endloop
endfacet
facet normal -0.817613 -0.575769 0.000000
outer loop
vertex 0.002180 0.001419 0.000000
vertex 0.002261 0.001303 0.150000
vertex 0.002180 0.001419 0.150000
endloop
endfacet
facet normal 0.000000 0.000000 1.000000
outer loop
vertex 0.000610 0.003253 0.000000
vertex 0.001254 0.002476 0.000000
vertex 0.002180 0.001419 0.000000
endloop
endfacet
facet normal -0.795818 -0.605535 -0.000025
outer loop
vertex 0.000430 0.003483 0.150000
vertex 0.000283 0.003683 0.000000
vertex 0.000610 0.003253 0.000000
endloop
endfacet
facet normal -0.788083 -0.615569 0.000000
outer loop
vertex 0.000610 0.003253 0.150000
vertex 0.000430 0.003483 0.150000
vertex 0.000610 0.003253 0.000000
endloop
endfacet
facet normal -0.759625 -0.650362 0.000000
outer loop
vertex 0.000610 0.003253 0.000000
vertex 0.002180 0.001419 0.000000
vertex 0.002180 0.001419 0.150000
endloop
endfacet
facet normal -0.748243 -0.663425 -0.000279
outer loop
vertex 0.000610 0.003253 0.000000
vertex 0.002180 0.001419 0.150000
vertex 0.001689 0.001973 0.150000
endloop
endfacet
facet normal -0.777081 -0.629401 0.000000
outer loop
vertex 0.000812 0.003003 0.150000
vertex 0.000610 0.003253 0.150000
vertex 0.000610 0.003253 0.000000
endloop
endfacet
facet normal -0.756686 -0.653779 -0.000136
outer loop
vertex 0.000610 0.003253 0.000000
vertex 0.001689 0.001973 0.150000
vertex 0.001254 0.002476 0.150000
endloop
endfacet
facet normal -0.766244 -0.642549 -0.000037
outer loop
vertex 0.000610 0.003253 0.000000
vertex 0.001254 0.002476 0.150000
vertex 0.000812 0.003003 0.150000
endloop
endfacet
facet normal -0.800570 0.599239 0.000000
outer loop
vertex 0.000610 0.007886 0.150000
vertex 0.000610 0.007886 0.000000
vertex 0.000582 0.007849 0.000000
endloop
endfacet
facet normal -0.800571 0.599238 0.000000
outer loop
vertex 0.000610 0.007886 0.150000
vertex 0.000582 0.007849 0.000000
vertex 0.000582 0.007849 0.150000
endloop
endfacet
facet normal -0.289453 -0.957192 0.000000
outer loop
vertex 0.002534 0.000651 0.000000
vertex 0.003087 0.000484 0.000000
vertex 0.003087 0.000484 0.150000
endloop
endfacet
facet normal -0.289453 -0.957192 0.000000
outer loop
vertex 0.002534 0.000651 0.000000
vertex 0.003087 0.000484 0.150000
vertex 0.002534 0.000651 0.150000
endloop
endfacet
facet normal -0.999902 -0.013973 0.000000
outer loop
vertex 0.000395 0.006903 0.150000
vertex 0.000395 0.006903 0.000000
vertex 0.000405 0.006197 0.000000
endloop
endfacet
facet normal -0.999902 -0.013973 0.000000
outer loop
vertex 0.000395 0.006903 0.150000
vertex 0.000405 0.006197 0.000000
vertex 0.000405 0.006197 0.150000
endloop
endfacet
facet normal -0.604491 0.796612 0.000000
outer loop
vertex 0.000829 0.008080 0.000000
vertex 0.000778 0.008041 0.000000
vertex 0.000778 0.008041 0.150000
endloop
endfacet
facet normal -0.604491 0.796612 0.000000
outer loop
vertex 0.000829 0.008080 0.000000
vertex 0.000778 0.008041 0.150000
vertex 0.000829 0.008080 0.150000
endloop
endfacet
facet normal -0.585158 0.810919 0.000000
outer loop
vertex 0.000880 0.008116 0.000000
vertex 0.000829 0.008080 0.000000
vertex 0.000829 0.008080 0.150000
endloop
endfacet
facet normal -0.585158 0.810919 0.000000
outer loop
vertex 0.000880 0.008116 0.000000
vertex 0.000829 0.008080 0.150000
vertex 0.000880 0.008116 0.150000
endloop
endfacet
facet normal -0.569027 0.822319 0.000000
outer loop
vertex 0.000930 0.008151 0.000000
vertex 0.000880 0.008116 0.000000
vertex 0.000880 0.008116 0.150000
endloop
endfacet
facet normal -0.569026 0.822320 0.000000
outer loop
vertex 0.000930 0.008151 0.000000
vertex 0.000880 0.008116 0.150000
vertex 0.000930 0.008151 0.150000
endloop
endfacet
facet normal -0.555416 0.831573 0.000000
outer loop
vertex 0.000979 0.008184 0.000000
vertex 0.000930 0.008151 0.000000
vertex 0.000930 0.008151 0.150000
endloop
endfacet
facet normal -0.555416 0.831573 0.000000
outer loop
vertex 0.000979 0.008184 0.000000
vertex 0.000930 0.008151 0.150000
vertex 0.000979 0.008184 0.150000
endloop
endfacet
facet normal -0.539131 0.842222 0.000000
outer loop
vertex 0.001066 0.008240 0.000000
vertex 0.000979 0.008184 0.000000
vertex 0.000979 0.008184 0.150000
endloop
endfacet
facet normal -0.539131 0.842222 0.000000
outer loop
vertex 0.001066 0.008240 0.000000
vertex 0.000979 0.008184 0.150000
vertex 0.001066 0.008240 0.150000
endloop
endfacet
facet normal -0.495600 0.868551 0.000000
outer loop
vertex 0.001150 0.008289 0.150000
vertex 0.001150 0.008289 0.000000
vertex 0.001106 0.008264 0.000000
endloop
endfacet
facet normal -0.516727 0.856150 0.000000
outer loop
vertex 0.001106 0.008264 0.000000
vertex 0.001066 0.008240 0.000000
vertex 0.001066 0.008240 0.150000
endloop
endfacet
facet normal -0.495598 0.868552 0.000000
outer loop
vertex 0.001106 0.008264 0.150000
vertex 0.001150 0.008289 0.150000
vertex 0.001106 0.008264 0.000000
endloop
endfacet
facet normal -0.516729 0.856149 0.000000
outer loop
vertex 0.001066 0.008240 0.150000
vertex 0.001106 0.008264 0.150000
vertex 0.001106 0.008264 0.000000
endloop
endfacet
facet normal 0.876679 -0.481076 0.000000
outer loop
vertex 0.008771 0.002084 0.150000
vertex 0.008771 0.002084 0.000000
vertex 0.008948 0.002407 0.000000
endloop
endfacet
facet normal 0.876681 -0.481073 0.000000
outer loop
vertex 0.008771 0.002084 0.150000
vertex 0.008948 0.002407 0.000000
vertex 0.008948 0.002407 0.150000
endloop
endfacet
facet normal 0.081327 0.996688 0.000000
outer loop
vertex 0.005751 0.010032 0.000000
vertex 0.005680 0.010037 0.000000
vertex 0.005680 0.010037 0.150000
endloop
endfacet
facet normal 0.081328 0.996687 0.000000
outer loop
vertex 0.005751 0.010032 0.000000
vertex 0.005680 0.010037 0.150000
vertex 0.005751 0.010032 0.150000
endloop
endfacet
facet normal 0.108530 0.994093 0.000000
outer loop
vertex 0.005822 0.010024 0.000000
vertex 0.005751 0.010032 0.000000
vertex 0.005751 0.010032 0.150000
endloop
endfacet
facet normal 0.108529 0.994093 0.000000
outer loop
vertex 0.005822 0.010024 0.000000
vertex 0.005751 0.010032 0.150000
vertex 0.005822 0.010024 0.150000
endloop
endfacet
facet normal 0.131697 0.991290 0.000000
outer loop
vertex 0.005890 0.010015 0.000000
vertex 0.005822 0.010024 0.000000
vertex 0.005822 0.010024 0.150000
endloop
endfacet
facet normal 0.131697 0.991290 0.000000
outer loop
vertex 0.005890 0.010015 0.000000
vertex 0.005822 0.010024 0.150000
vertex 0.005890 0.010015 0.150000
endloop
endfacet
facet normal 0.151943 0.988389 0.000000
outer loop
vertex 0.005954 0.010005 0.000000
vertex 0.005890 0.010015 0.000000
vertex 0.005890 0.010015 0.150000
endloop
endfacet
facet normal 0.151943 0.988389 0.000000
outer loop
vertex 0.005954 0.010005 0.000000
vertex 0.005890 0.010015 0.150000
vertex 0.005954 0.010005 0.150000
endloop
endfacet
facet normal 0.187737 0.982219 0.000000
outer loop
vertex 0.006065 0.009985 0.150000
vertex 0.006065 0.009985 0.000000
vertex 0.006013 0.009995 0.000000
endloop
endfacet
facet normal 0.170310 0.985390 0.000000
outer loop
vertex 0.006013 0.009995 0.000000
vertex 0.005954 0.010005 0.000000
vertex 0.005954 0.010005 0.150000
endloop
endfacet
facet normal 0.187737 0.982219 0.000000
outer loop
vertex 0.006013 0.009995 0.150000
vertex 0.006065 0.009985 0.150000
vertex 0.006013 0.009995 0.000000
endloop
endfacet
facet normal 0.170310 0.985390 0.000000
outer loop
vertex 0.005954 0.010005 0.150000
vertex 0.006013 0.009995 0.150000
vertex 0.006013 0.009995 0.000000
endloop
endfacet
facet normal -0.992068 0.125706 0.000000
outer loop
vertex 0.000473 0.007518 0.000000
vertex 0.000395 0.006903 0.000000
vertex 0.000395 0.006903 0.150000
endloop
endfacet
facet normal -0.992068 0.125706 0.000000
outer loop
vertex 0.000473 0.007518 0.000000
vertex 0.000395 0.006903 0.150000
vertex 0.000473 0.007518 0.150000
endloop
endfacet
facet normal 0.625650 -0.780104 0.000000
outer loop
vertex 0.007565 0.000619 0.000000
vertex 0.007782 0.000793 0.000000
vertex 0.007782 0.000793 0.150000
endloop
endfacet
facet normal 0.625647 -0.780106 0.000000
outer loop
vertex 0.007565 0.000619 0.000000
vertex 0.007782 0.000793 0.150000
vertex 0.007565 0.000619 0.150000
endloop
endfacet
facet normal 0.518839 0.854872 0.000000
outer loop
vertex 0.006784 0.009624 0.000000
vertex 0.006560 0.009760 0.000000
vertex 0.006560 0.009760 0.150000
endloop
endfacet
facet normal 0.518841 0.854871 0.000000
outer loop
vertex 0.006784 0.009624 0.000000
vertex 0.006560 0.009760 0.150000
vertex 0.006784 0.009624 0.150000
endloop
endfacet
facet normal 0.609167 0.793042 0.000000
outer loop
vertex 0.007246 0.009290 0.150000
vertex 0.007246 0.009290 0.000000
vertex 0.007017 0.009466 0.000000
endloop
endfacet
facet normal 0.562652 0.826694 0.000000
outer loop
vertex 0.007017 0.009466 0.000000
vertex 0.006784 0.009624 0.000000
vertex 0.006784 0.009624 0.150000
endloop
endfacet
facet normal 0.609169 0.793040 0.000000
outer loop
vertex 0.007017 0.009466 0.150000
vertex 0.007246 0.009290 0.150000
vertex 0.007017 0.009466 0.000000
endloop
endfacet
facet normal 0.562655 0.826692 0.000000
outer loop
vertex 0.007017 0.009466 0.000000
vertex 0.006784 0.009624 0.150000
vertex 0.007017 0.009466 0.150000
endloop
endfacet
facet normal -0.889032 -0.457846 0.000000
outer loop
vertex 0.000117 0.003958 0.150000
vertex 0.000117 0.003958 0.000000
vertex 0.000175 0.003844 0.000000
endloop
endfacet
facet normal -0.889032 -0.457846 0.000000
outer loop
vertex 0.000117 0.003958 0.150000
vertex 0.000175 0.003844 0.000000
vertex 0.000175 0.003844 0.150000
endloop
endfacet
facet normal -0.659826 -0.751418 0.000000
outer loop
vertex 0.002303 0.000800 0.150000
vertex 0.002303 0.000800 0.000000
vertex 0.002386 0.000727 0.000000
endloop
endfacet
facet normal -0.659826 -0.751418 0.000000
outer loop
vertex 0.002303 0.000800 0.150000
vertex 0.002386 0.000727 0.000000
vertex 0.002386 0.000727 0.150000
endloop
endfacet
facet normal -0.716303 0.697789 0.000000
outer loop
vertex 0.000685 0.007963 0.150000
vertex 0.000685 0.007963 0.000000
vertex 0.000610 0.007886 0.000000
endloop
endfacet
facet normal -0.716303 0.697789 0.000000
outer loop
vertex 0.000685 0.007963 0.150000
vertex 0.000610 0.007886 0.000000
vertex 0.000610 0.007886 0.150000
endloop
endfacet
facet normal 0.933015 -0.359838 0.000000
outer loop
vertex 0.008948 0.002407 0.150000
vertex 0.008948 0.002407 0.000000
vertex 0.009022 0.002598 0.000000
endloop
endfacet
facet normal 0.933017 -0.359831 0.000000
outer loop
vertex 0.008948 0.002407 0.150000
vertex 0.009022 0.002598 0.000000
vertex 0.009022 0.002598 0.150000
endloop
endfacet
facet normal 0.902037 0.431659 0.000000
outer loop
vertex 0.008520 0.007329 0.000000
vertex 0.008220 0.007956 0.000000
vertex 0.008220 0.007956 0.150000
endloop
endfacet
facet normal 0.902038 0.431656 0.000000
outer loop
vertex 0.008520 0.007329 0.000000
vertex 0.008220 0.007956 0.150000
vertex 0.008520 0.007329 0.150000
endloop
endfacet
endsolid Exported from Blender-3.6.8
