solid Exported from Blender-3.6.8
facet normal 0.485852 0.874041 0.000000
outer loop
vertex 0.003952 0.004318 0.150000
vertex 0.003952 0.004318 0.000000
vertex 0.003875 0.004360 0.000000
endloop
endfacet
facet normal 0.485852 0.874041 0.000000
outer loop
vertex 0.003952 0.004318 0.150000
vertex 0.003875 0.004360 0.000000
vertex 0.003875 0.004360 0.150000
endloop
endfacet
facet normal 0.979128 0.203243 0.000000
outer loop
vertex 0.004779 0.002691 0.150000
vertex 0.004779 0.002691 0.000000
vertex 0.004733 0.002913 0.000000
endloop
endfacet
facet normal 0.979127 0.203250 0.000000
outer loop
vertex 0.004779 0.002691 0.150000
vertex 0.004733 0.002913 0.000000
vertex 0.004733 0.002913 0.150000
endloop
endfacet
facet normal 0.000000 0.000000 1.000000
outer loop
vertex 0.004063 0.000685 0.000000
vertex 0.004136 0.000706 0.000000
vertex 0.004206 0.000729 0.000000
endloop
endfacet
facet normal 0.341636 -0.939832 0.000000
outer loop
vertex 0.004206 0.000729 0.000000
vertex 0.004272 0.000753 0.000000
vertex 0.004272 0.000753 0.150000
endloop
endfacet
facet normal 0.341640 -0.939831 0.000000
outer loop
vertex 0.004206 0.000729 0.000000
vertex 0.004272 0.000753 0.150000
vertex 0.004206 0.000729 0.150000
endloop
endfacet
facet normal 0.000000 0.000000 1.000000
outer loop
vertex 0.003987 0.000661 0.000000
vertex 0.004063 0.000685 0.000000
vertex 0.004206 0.000729 0.000000
endloop
endfacet
facet normal 0.317079 -0.948399 0.000000
outer loop
vertex 0.003908 0.000635 0.150000
vertex 0.003908 0.000635 0.000000
vertex 0.003987 0.000661 0.000000
endloop
endfacet
facet normal 0.317079 -0.948399 0.000000
outer loop
vertex 0.003987 0.000661 0.150000
vertex 0.003908 0.000635 0.150000
vertex 0.003987 0.000661 0.000000
endloop
endfacet
facet normal 0.294101 -0.955774 0.000000
outer loop
vertex 0.003987 0.000661 0.000000
vertex 0.004206 0.000729 0.000000
vertex 0.004206 0.000729 0.150000
endloop
endfacet
facet normal 0.302737 -0.953074 -0.000014
outer loop
vertex 0.003987 0.000661 0.000000
vertex 0.004206 0.000729 0.150000
vertex 0.004136 0.000706 0.150000
endloop
endfacet
facet normal 0.292797 -0.956174 0.000000
outer loop
vertex 0.004063 0.000685 0.150000
vertex 0.003987 0.000661 0.150000
vertex 0.003987 0.000661 0.000000
endloop
endfacet
facet normal 0.287138 -0.957889 0.000003
outer loop
vertex 0.003987 0.000661 0.000000
vertex 0.004136 0.000706 0.150000
vertex 0.004063 0.000685 0.150000
endloop
endfacet
facet normal 0.000000 0.000000 -1.000000
outer loop
vertex 0.003138 0.004522 0.000000
vertex 0.003294 0.004497 0.000000
vertex 0.003441 0.004471 0.000000
endloop
endfacet
facet normal 0.000000 0.000000 -1.000000
outer loop
vertex 0.003441 0.004471 0.000000
vertex 0.003574 0.004443 0.000000
vertex 0.003692 0.004416 0.000000
endloop
endfacet
facet normal 0.000000 0.000000 -1.000000
outer loop
vertex 0.003692 0.004416 0.000000
vertex 0.003791 0.004391 0.000000
vertex 0.003875 0.004360 0.000000
endloop
endfacet
facet normal 0.000000 0.000000 -1.000000
outer loop
vertex 0.003875 0.004360 0.000000
vertex 0.003952 0.004318 0.000000
vertex 0.004022 0.004264 0.000000
endloop
endfacet
facet normal 0.000000 0.000000 -1.000000
outer loop
vertex 0.004022 0.004264 0.000000
vertex 0.004086 0.004200 0.000000
vertex 0.004147 0.004125 0.000000
endloop
endfacet
facet normal 0.000000 0.000000 -1.000000
outer loop
vertex 0.004147 0.004125 0.000000
vertex 0.004260 0.003950 0.000000
vertex 0.004659 0.003146 0.000000
endloop
endfacet
facet normal 0.000000 0.000000 -1.000000
outer loop
vertex 0.004659 0.003146 0.000000
vertex 0.004733 0.002913 0.000000
vertex 0.004779 0.002691 0.000000
endloop
endfacet
facet normal 0.000000 0.000000 -1.000000
outer loop
vertex 0.004779 0.002691 0.000000
vertex 0.004795 0.002582 0.000000
vertex 0.004807 0.002476 0.000000
endloop
endfacet
facet normal 0.000000 0.000000 -1.000000
outer loop
vertex 0.004807 0.002476 0.000000
vertex 0.004817 0.002371 0.000000
vertex 0.004825 0.002267 0.000000
endloop
endfacet
facet normal 0.000000 0.000000 -1.000000
outer loop
vertex 0.004833 0.002164 0.000000
vertex 0.004842 0.002062 0.000000
vertex 0.004848 0.001962 0.000000
endloop
endfacet
facet normal 0.000000 0.000000 -1.000000
outer loop
vertex 0.004807 0.002476 0.000000
vertex 0.004825 0.002267 0.000000
vertex 0.004833 0.002164 0.000000
endloop
endfacet
facet normal 0.000000 0.000000 -1.000000
outer loop
vertex 0.004659 0.003146 0.000000
vertex 0.004779 0.002691 0.000000
vertex 0.004807 0.002476 0.000000
endloop
endfacet
facet normal 0.000000 0.000000 -1.000000
outer loop
vertex 0.004022 0.004264 0.000000
vertex 0.004147 0.004125 0.000000
vertex 0.004659 0.003146 0.000000
endloop
endfacet
facet normal 0.000000 0.000000 -1.000000
outer loop
vertex 0.003692 0.004416 0.000000
vertex 0.003875 0.004360 0.000000
vertex 0.004022 0.004264 0.000000
endloop
endfacet
facet normal 0.000000 0.000000 -1.000000
outer loop
vertex 0.003138 0.004522 0.000000
vertex 0.003441 0.004471 0.000000
vertex 0.003692 0.004416 0.000000
endloop
endfacet
facet normal 0.000000 0.000000 -1.000000
outer loop
vertex 0.002809 0.004560 0.000000
vertex 0.002975 0.004543 0.000000
vertex 0.003138 0.004522 0.000000
endloop
endfacet
facet normal 0.000000 0.000000 -1.000000
outer loop
vertex 0.002323 0.004571 0.000000
vertex 0.002643 0.004571 0.000000
vertex 0.002809 0.004560 0.000000
endloop
endfacet
facet normal 0.000000 0.000000 -1.000000
outer loop
vertex 0.001767 0.004450 0.000000
vertex 0.002040 0.004534 0.000000
vertex 0.002323 0.004571 0.000000
endloop
endfacet
facet normal 0.000000 0.000000 -1.000000
outer loop
vertex 0.001197 0.004196 0.000000
vertex 0.001476 0.004329 0.000000
vertex 0.001767 0.004450 0.000000
endloop
endfacet
facet normal 0.000000 0.000000 -1.000000
outer loop
vertex 0.000132 0.002917 0.000000
vertex 0.000737 0.003946 0.000000
vertex 0.001197 0.004196 0.000000
endloop
endfacet
facet normal 0.000000 0.000000 -1.000000
outer loop
vertex 0.000023 0.002590 0.000000
vertex 0.000068 0.002753 0.000000
vertex 0.000132 0.002917 0.000000
endloop
endfacet
facet normal 0.000000 0.000000 -1.000000
outer loop
vertex 0.000007 0.002277 0.000000
vertex 0.000001 0.002431 0.000000
vertex 0.000023 0.002590 0.000000
endloop
endfacet
facet normal 0.000000 0.000000 -1.000000
outer loop
vertex 0.000173 0.001601 0.000000
vertex 0.000070 0.001954 0.000000
vertex 0.000007 0.002277 0.000000
endloop
endfacet
facet normal 0.000000 0.000000 -1.000000
outer loop
vertex 0.000488 0.000917 0.000000
vertex 0.000312 0.001247 0.000000
vertex 0.000173 0.001601 0.000000
endloop
endfacet
facet normal 0.000000 0.000000 -1.000000
outer loop
vertex 0.000698 0.000639 0.000000
vertex 0.000589 0.000770 0.000000
vertex 0.000488 0.000917 0.000000
endloop
endfacet
facet normal 0.000000 0.000000 -1.000000
outer loop
vertex 0.000942 0.000440 0.000000
vertex 0.000816 0.000528 0.000000
vertex 0.000698 0.000639 0.000000
endloop
endfacet
facet normal 0.000000 0.000000 -1.000000
outer loop
vertex 0.001339 0.000233 0.000000
vertex 0.001205 0.000297 0.000000
vertex 0.000942 0.000440 0.000000
endloop
endfacet
facet normal 0.000000 0.000000 -1.000000
outer loop
vertex 0.001747 0.000078 0.000000
vertex 0.001475 0.000174 0.000000
vertex 0.001339 0.000233 0.000000
endloop
endfacet
facet normal 0.000000 0.000000 -1.000000
outer loop
vertex 0.002288 0.000001 0.000000
vertex 0.002020 0.000018 0.000000
vertex 0.001747 0.000078 0.000000
endloop
endfacet
facet normal 0.000000 0.000000 -1.000000
outer loop
vertex 0.002550 0.000035 0.000000
vertex 0.002420 0.000011 0.000000
vertex 0.002288 0.000001 0.000000
endloop
endfacet
facet normal 0.000000 0.000000 -1.000000
outer loop
vertex 0.002800 0.000111 0.000000
vertex 0.002677 0.000070 0.000000
vertex 0.002550 0.000035 0.000000
endloop
endfacet
facet normal 0.000000 0.000000 -1.000000
outer loop
vertex 0.003036 0.000208 0.000000
vertex 0.002920 0.000157 0.000000
vertex 0.002800 0.000111 0.000000
endloop
endfacet
facet normal 0.000000 0.000000 -1.000000
outer loop
vertex 0.003258 0.000315 0.000000
vertex 0.003149 0.000261 0.000000
vertex 0.003036 0.000208 0.000000
endloop
endfacet
facet normal 0.000000 0.000000 -1.000000
outer loop
vertex 0.003654 0.000523 0.000000
vertex 0.003258 0.000315 0.000000
vertex 0.003036 0.000208 0.000000
endloop
endfacet
facet normal 0.000000 0.000000 -1.000000
outer loop
vertex 0.003036 0.000208 0.000000
vertex 0.002800 0.000111 0.000000
vertex 0.002550 0.000035 0.000000
endloop
endfacet
facet normal 0.000000 0.000000 -1.000000
outer loop
vertex 0.002550 0.000035 0.000000
vertex 0.002288 0.000001 0.000000
vertex 0.001747 0.000078 0.000000
endloop
endfacet
facet normal 0.000000 0.000000 -1.000000
outer loop
vertex 0.001747 0.000078 0.000000
vertex 0.001339 0.000233 0.000000
vertex 0.000942 0.000440 0.000000
endloop
endfacet
facet normal 0.000000 0.000000 -1.000000
outer loop
vertex 0.000942 0.000440 0.000000
vertex 0.000698 0.000639 0.000000
vertex 0.000488 0.000917 0.000000
endloop
endfacet
facet normal 0.000000 0.000000 -1.000000
outer loop
vertex 0.000488 0.000917 0.000000
vertex 0.000173 0.001601 0.000000
vertex 0.000007 0.002277 0.000000
endloop
endfacet
facet normal 0.000000 0.000000 -1.000000
outer loop
vertex 0.000007 0.002277 0.000000
vertex 0.000023 0.002590 0.000000
vertex 0.000132 0.002917 0.000000
endloop
endfacet
facet normal 0.000000 0.000000 -1.000000
outer loop
vertex 0.000132 0.002917 0.000000
vertex 0.001197 0.004196 0.000000
vertex 0.001767 0.004450 0.000000
endloop
endfacet
facet normal 0.000000 0.000000 -1.000000
outer loop
vertex 0.001767 0.004450 0.000000
vertex 0.002323 0.004571 0.000000
vertex 0.002809 0.004560 0.000000
endloop
endfacet
facet normal 0.000000 0.000000 -1.000000
outer loop
vertex 0.002809 0.004560 0.000000
vertex 0.003138 0.004522 0.000000
vertex 0.003692 0.004416 0.000000
endloop
endfacet
facet normal 0.000000 0.000000 -1.000000
outer loop
vertex 0.003692 0.004416 0.000000
vertex 0.004022 0.004264 0.000000
vertex 0.004659 0.003146 0.000000
endloop
endfacet
facet normal 0.000000 0.000000 -1.000000
outer loop
vertex 0.004659 0.003146 0.000000
vertex 0.004807 0.002476 0.000000
vertex 0.004833 0.002164 0.000000
endloop
endfacet
facet normal 0.000000 0.000000 -1.000000
outer loop
vertex 0.004833 0.002164 0.000000
vertex 0.004848 0.001962 0.000000
vertex 0.004847 0.001866 0.000000
endloop
endfacet
facet normal 0.000000 0.000000 -1.000000
outer loop
vertex 0.004847 0.001866 0.000000
vertex 0.004827 0.001684 0.000000
vertex 0.004787 0.001511 0.000000
endloop
endfacet
facet normal 0.000000 0.000000 -1.000000
outer loop
vertex 0.004787 0.001511 0.000000
vertex 0.004731 0.001347 0.000000
vertex 0.004698 0.001267 0.000000
endloop
endfacet
facet normal 0.000000 0.000000 -1.000000
outer loop
vertex 0.004698 0.001267 0.000000
vertex 0.004663 0.001189 0.000000
vertex 0.004626 0.001110 0.000000
endloop
endfacet
facet normal 0.000000 0.000000 -1.000000
outer loop
vertex 0.004626 0.001110 0.000000
vertex 0.004587 0.001033 0.000000
vertex 0.004546 0.000962 0.000000
endloop
endfacet
facet normal 0.000000 0.000000 -1.000000
outer loop
vertex 0.004546 0.000962 0.000000
vertex 0.004500 0.000903 0.000000
vertex 0.004449 0.000854 0.000000
endloop
endfacet
facet normal 0.000000 0.000000 -1.000000
outer loop
vertex 0.004449 0.000854 0.000000
vertex 0.004394 0.000814 0.000000
vertex 0.004335 0.000781 0.000000
endloop
endfacet
facet normal 0.000000 0.000000 -1.000000
outer loop
vertex 0.004335 0.000781 0.000000
vertex 0.004272 0.000753 0.000000
vertex 0.004206 0.000729 0.000000
endloop
endfacet
facet normal 0.000000 0.000000 -1.000000
outer loop
vertex 0.004206 0.000729 0.000000
vertex 0.004136 0.000706 0.000000
vertex 0.004063 0.000685 0.000000
endloop
endfacet
facet normal 0.000000 0.000000 -1.000000
outer loop
vertex 0.004206 0.000729 0.000000
vertex 0.004063 0.000685 0.000000
vertex 0.003987 0.000661 0.000000
endloop
endfacet
facet normal 0.000000 0.000000 -1.000000
outer loop
vertex 0.004449 0.000854 0.000000
vertex 0.004335 0.000781 0.000000
vertex 0.004206 0.000729 0.000000
endloop
endfacet
facet normal 0.000000 0.000000 -1.000000
outer loop
vertex 0.004626 0.001110 0.000000
vertex 0.004546 0.000962 0.000000
vertex 0.004449 0.000854 0.000000
endloop
endfacet
facet normal 0.000000 0.000000 -1.000000
outer loop
vertex 0.004787 0.001511 0.000000
vertex 0.004698 0.001267 0.000000
vertex 0.004626 0.001110 0.000000
endloop
endfacet
facet normal 0.000000 0.000000 -1.000000
outer loop
vertex 0.004833 0.002164 0.000000
vertex 0.004847 0.001866 0.000000
vertex 0.004787 0.001511 0.000000
endloop
endfacet
facet normal 0.000000 0.000000 -1.000000
outer loop
vertex 0.003692 0.004416 0.000000
vertex 0.004659 0.003146 0.000000
vertex 0.004833 0.002164 0.000000
endloop
endfacet
facet normal 0.000000 0.000000 -1.000000
outer loop
vertex 0.001767 0.004450 0.000000
vertex 0.002809 0.004560 0.000000
vertex 0.003692 0.004416 0.000000
endloop
endfacet
facet normal 0.000000 0.000000 -1.000000
outer loop
vertex 0.000007 0.002277 0.000000
vertex 0.000132 0.002917 0.000000
vertex 0.001767 0.004450 0.000000
endloop
endfacet
facet normal 0.000000 0.000000 -1.000000
outer loop
vertex 0.000942 0.000440 0.000000
vertex 0.000488 0.000917 0.000000
vertex 0.000007 0.002277 0.000000
endloop
endfacet
facet normal 0.000000 0.000000 -1.000000
outer loop
vertex 0.002550 0.000035 0.000000
vertex 0.001747 0.000078 0.000000
vertex 0.000942 0.000440 0.000000
endloop
endfacet
facet normal 0.000000 0.000000 -1.000000
outer loop
vertex 0.003654 0.000523 0.000000
vertex 0.003036 0.000208 0.000000
vertex 0.002550 0.000035 0.000000
endloop
endfacet
facet normal 0.000000 0.000000 -1.000000
outer loop
vertex 0.003743 0.000567 0.000000
vertex 0.003654 0.000523 0.000000
vertex 0.002550 0.000035 0.000000
endloop
endfacet
facet normal 0.000000 0.000000 -1.000000
outer loop
vertex 0.002550 0.000035 0.000000
vertex 0.000942 0.000440 0.000000
vertex 0.000007 0.002277 0.000000
endloop
endfacet
facet normal 0.000000 0.000000 -1.000000
outer loop
vertex 0.000007 0.002277 0.000000
vertex 0.001767 0.004450 0.000000
vertex 0.003692 0.004416 0.000000
endloop
endfacet
facet normal 0.000000 0.000000 -1.000000
outer loop
vertex 0.003692 0.004416 0.000000
vertex 0.004833 0.002164 0.000000
vertex 0.004787 0.001511 0.000000
endloop
endfacet
facet normal 0.000000 0.000000 -1.000000
outer loop
vertex 0.004787 0.001511 0.000000
vertex 0.004626 0.001110 0.000000
vertex 0.004449 0.000854 0.000000
endloop
endfacet
facet normal 0.000000 0.000000 -1.000000
outer loop
vertex 0.004449 0.000854 0.000000
vertex 0.004206 0.000729 0.000000
vertex 0.003987 0.000661 0.000000
endloop
endfacet
facet normal 0.000000 0.000000 -1.000000
outer loop
vertex 0.004449 0.000854 0.000000
vertex 0.003987 0.000661 0.000000
vertex 0.003908 0.000635 0.000000
endloop
endfacet
facet normal 0.000000 0.000000 -1.000000
outer loop
vertex 0.003692 0.004416 0.000000
vertex 0.004787 0.001511 0.000000
vertex 0.004449 0.000854 0.000000
endloop
endfacet
facet normal 0.000000 0.000000 -1.000000
outer loop
vertex 0.002550 0.000035 0.000000
vertex 0.000007 0.002277 0.000000
vertex 0.003692 0.004416 0.000000
endloop
endfacet
facet normal 0.000000 0.000000 -1.000000
outer loop
vertex 0.003743 0.000567 0.000000
vertex 0.002550 0.000035 0.000000
vertex 0.003692 0.004416 0.000000
endloop
endfacet
facet normal 0.000000 0.000000 -1.000000
outer loop
vertex 0.003692 0.004416 0.000000
vertex 0.004449 0.000854 0.000000
vertex 0.003908 0.000635 0.000000
endloop
endfacet
facet normal 0.000000 0.000000 -1.000000
outer loop
vertex 0.003827 0.000604 0.000000
vertex 0.003743 0.000567 0.000000
vertex 0.003692 0.004416 0.000000
endloop
endfacet
facet normal 0.000000 0.000000 -1.000000
outer loop
vertex 0.003692 0.004416 0.000000
vertex 0.003908 0.000635 0.000000
vertex 0.003827 0.000604 0.000000
endloop
endfacet
facet normal 0.000000 0.000000 1.000000
outer loop
vertex 0.004833 0.002164 0.150000
vertex 0.004825 0.002267 0.150000
vertex 0.004817 0.002371 0.150000
endloop
endfacet
facet normal -0.015015 0.000000 0.999887
outer loop
vertex 0.004817 0.002371 0.150000
vertex 0.004807 0.002476 0.150000
vertex 0.004795 0.002582 0.150000
endloop
endfacet
facet normal 0.004752 0.000000 0.999989
outer loop
vertex 0.004795 0.002582 0.150000
vertex 0.004779 0.002691 0.150000
vertex 0.004733 0.002913 0.150000
endloop
endfacet
facet normal 0.000000 0.000000 1.000000
outer loop
vertex 0.004733 0.002913 0.150000
vertex 0.004659 0.003146 0.150000
vertex 0.004260 0.003950 0.150000
endloop
endfacet
facet normal 0.001647 0.000000 0.999999
outer loop
vertex 0.004260 0.003950 0.150000
vertex 0.004147 0.004125 0.150000
vertex 0.004086 0.004200 0.150000
endloop
endfacet
facet normal 0.000000 0.000000 1.000000
outer loop
vertex 0.004086 0.004200 0.150000
vertex 0.004022 0.004264 0.150000
vertex 0.003952 0.004318 0.150000
endloop
endfacet
facet normal -0.000733 0.000000 1.000000
outer loop
vertex 0.003952 0.004318 0.150000
vertex 0.003875 0.004360 0.150000
vertex 0.003791 0.004391 0.150000
endloop
endfacet
facet normal -0.002779 0.000000 0.999996
outer loop
vertex 0.003791 0.004391 0.150000
vertex 0.003692 0.004416 0.150000
vertex 0.003574 0.004443 0.150000
endloop
endfacet
facet normal 0.000000 0.000000 1.000000
outer loop
vertex 0.003574 0.004443 0.150000
vertex 0.003441 0.004471 0.150000
vertex 0.003294 0.004497 0.150000
endloop
endfacet
facet normal 0.000000 0.000000 1.000000
outer loop
vertex 0.003294 0.004497 0.150000
vertex 0.003138 0.004522 0.150000
vertex 0.002975 0.004543 0.150000
endloop
endfacet
facet normal 0.000240 0.000000 1.000000
outer loop
vertex 0.002975 0.004543 0.150000
vertex 0.002809 0.004560 0.150000
vertex 0.002643 0.004571 0.150000
endloop
endfacet
facet normal 0.000000 0.000000 1.000000
outer loop
vertex 0.002643 0.004571 0.150000
vertex 0.002323 0.004571 0.150000
vertex 0.002040 0.004534 0.150000
endloop
endfacet
facet normal 0.000000 0.000000 1.000000
outer loop
vertex 0.002040 0.004534 0.150000
vertex 0.001767 0.004450 0.150000
vertex 0.001476 0.004329 0.150000
endloop
endfacet
facet normal 0.000000 0.000000 1.000000
outer loop
vertex 0.001476 0.004329 0.150000
vertex 0.001197 0.004196 0.150000
vertex 0.000737 0.003946 0.150000
endloop
endfacet
facet normal 0.000542 0.000000 1.000000
outer loop
vertex 0.000737 0.003946 0.150000
vertex 0.000132 0.002917 0.150000
vertex 0.000068 0.002753 0.150000
endloop
endfacet
facet normal 0.000000 0.000000 1.000000
outer loop
vertex 0.000068 0.002753 0.150000
vertex 0.000023 0.002590 0.150000
vertex 0.000001 0.002431 0.150000
endloop
endfacet
facet normal 0.000000 0.000000 1.000000
outer loop
vertex 0.000001 0.002431 0.150000
vertex 0.000007 0.002277 0.150000
vertex 0.000070 0.001954 0.150000
endloop
endfacet
facet normal 0.000559 0.000000 1.000000
outer loop
vertex 0.000070 0.001954 0.150000
vertex 0.000173 0.001601 0.150000
vertex 0.000312 0.001247 0.150000
endloop
endfacet
facet normal 0.000491 0.000000 1.000000
outer loop
vertex 0.000312 0.001247 0.150000
vertex 0.000488 0.000917 0.150000
vertex 0.000589 0.000770 0.150000
endloop
endfacet
facet normal 0.000000 0.000000 1.000000
outer loop
vertex 0.000589 0.000770 0.150000
vertex 0.000698 0.000639 0.150000
vertex 0.000816 0.000528 0.150000
endloop
endfacet
facet normal 0.000000 0.000000 1.000000
outer loop
vertex 0.000816 0.000528 0.150000
vertex 0.000942 0.000440 0.150000
vertex 0.001205 0.000297 0.150000
endloop
endfacet
facet normal 0.000000 0.000000 1.000000
outer loop
vertex 0.001205 0.000297 0.150000
vertex 0.001339 0.000233 0.150000
vertex 0.001475 0.000174 0.150000
endloop
endfacet
facet normal -0.000189 0.000000 1.000000
outer loop
vertex 0.001475 0.000174 0.150000
vertex 0.001747 0.000078 0.150000
vertex 0.002020 0.000018 0.150000
endloop
endfacet
facet normal -0.000046 0.000000 1.000000
outer loop
vertex 0.002020 0.000018 0.150000
vertex 0.002288 0.000001 0.150000
vertex 0.002420 0.000011 0.150000
endloop
endfacet
facet normal 0.000000 0.000000 1.000000
outer loop
vertex 0.002420 0.000011 0.150000
vertex 0.002550 0.000035 0.150000
vertex 0.002677 0.000070 0.150000
endloop
endfacet
facet normal 0.001162 0.000000 0.999999
outer loop
vertex 0.002677 0.000070 0.150000
vertex 0.002800 0.000111 0.150000
vertex 0.002920 0.000157 0.150000
endloop
endfacet
facet normal 0.003645 0.000000 0.999993
outer loop
vertex 0.002920 0.000157 0.150000
vertex 0.003036 0.000208 0.150000
vertex 0.003149 0.000261 0.150000
endloop
endfacet
facet normal 0.006984 0.000000 0.999976
outer loop
vertex 0.003149 0.000261 0.150000
vertex 0.003258 0.000315 0.150000
vertex 0.003654 0.000523 0.150000
endloop
endfacet
facet normal -0.000925 0.000000 1.000000
outer loop
vertex 0.002920 0.000157 0.150000
vertex 0.003149 0.000261 0.150000
vertex 0.003654 0.000523 0.150000
endloop
endfacet
facet normal -0.000445 0.000000 1.000000
outer loop
vertex 0.002420 0.000011 0.150000
vertex 0.002677 0.000070 0.150000
vertex 0.002920 0.000157 0.150000
endloop
endfacet
facet normal 0.000023 0.000000 1.000000
outer loop
vertex 0.001475 0.000174 0.150000
vertex 0.002020 0.000018 0.150000
vertex 0.002420 0.000011 0.150000
endloop
endfacet
facet normal 0.000000 0.000000 1.000000
outer loop
vertex 0.000816 0.000528 0.150000
vertex 0.001205 0.000297 0.150000
vertex 0.001475 0.000174 0.150000
endloop
endfacet
facet normal 0.000000 0.000000 1.000000
outer loop
vertex 0.000312 0.001247 0.150000
vertex 0.000589 0.000770 0.150000
vertex 0.000816 0.000528 0.150000
endloop
endfacet
facet normal 0.000000 0.000000 1.000000
outer loop
vertex 0.000001 0.002431 0.150000
vertex 0.000070 0.001954 0.150000
vertex 0.000312 0.001247 0.150000
endloop
endfacet
facet normal 0.000000 0.000000 1.000000
outer loop
vertex 0.000737 0.003946 0.150000
vertex 0.000068 0.002753 0.150000
vertex 0.000001 0.002431 0.150000
endloop
endfacet
facet normal 0.000112 0.000000 1.000000
outer loop
vertex 0.002040 0.004534 0.150000
vertex 0.001476 0.004329 0.150000
vertex 0.000737 0.003946 0.150000
endloop
endfacet
facet normal 0.000000 0.000000 1.000000
outer loop
vertex 0.002975 0.004543 0.150000
vertex 0.002643 0.004571 0.150000
vertex 0.002040 0.004534 0.150000
endloop
endfacet
facet normal 0.000000 0.000000 1.000000
outer loop
vertex 0.003574 0.004443 0.150000
vertex 0.003294 0.004497 0.150000
vertex 0.002975 0.004543 0.150000
endloop
endfacet
facet normal 0.000246 0.000000 1.000000
outer loop
vertex 0.003952 0.004318 0.150000
vertex 0.003791 0.004391 0.150000
vertex 0.003574 0.004443 0.150000
endloop
endfacet
facet normal -0.000556 0.000000 1.000000
outer loop
vertex 0.004260 0.003950 0.150000
vertex 0.004086 0.004200 0.150000
vertex 0.003952 0.004318 0.150000
endloop
endfacet
facet normal 0.000000 0.000000 1.000000
outer loop
vertex 0.004795 0.002582 0.150000
vertex 0.004733 0.002913 0.150000
vertex 0.004260 0.003950 0.150000
endloop
endfacet
facet normal 0.000000 0.000000 1.000000
outer loop
vertex 0.004833 0.002164 0.150000
vertex 0.004817 0.002371 0.150000
vertex 0.004795 0.002582 0.150000
endloop
endfacet
facet normal 0.000000 0.000000 1.000000
outer loop
vertex 0.004848 0.001962 0.150000
vertex 0.004842 0.002062 0.150000
vertex 0.004833 0.002164 0.150000
endloop
endfacet
facet normal -0.001036 0.000000 0.999999
outer loop
vertex 0.004827 0.001684 0.150000
vertex 0.004847 0.001866 0.150000
vertex 0.004848 0.001962 0.150000
endloop
endfacet
facet normal -0.001171 0.000000 0.999999
outer loop
vertex 0.004731 0.001347 0.150000
vertex 0.004787 0.001511 0.150000
vertex 0.004827 0.001684 0.150000
endloop
endfacet
facet normal 0.008092 0.000000 0.999967
outer loop
vertex 0.004663 0.001189 0.150000
vertex 0.004698 0.001267 0.150000
vertex 0.004731 0.001347 0.150000
endloop
endfacet
facet normal 0.000000 0.000000 1.000000
outer loop
vertex 0.004587 0.001033 0.150000
vertex 0.004626 0.001110 0.150000
vertex 0.004663 0.001189 0.150000
endloop
endfacet
facet normal 0.000000 0.000000 1.000000
outer loop
vertex 0.004500 0.000903 0.150000
vertex 0.004546 0.000962 0.150000
vertex 0.004587 0.001033 0.150000
endloop
endfacet
facet normal -0.001404 0.000000 0.999999
outer loop
vertex 0.004394 0.000814 0.150000
vertex 0.004449 0.000854 0.150000
vertex 0.004500 0.000903 0.150000
endloop
endfacet
facet normal -0.002063 0.000000 0.999998
outer loop
vertex 0.004272 0.000753 0.150000
vertex 0.004335 0.000781 0.150000
vertex 0.004394 0.000814 0.150000
endloop
endfacet
facet normal 0.000000 0.000000 1.000000
outer loop
vertex 0.004136 0.000706 0.150000
vertex 0.004206 0.000729 0.150000
vertex 0.004272 0.000753 0.150000
endloop
endfacet
facet normal -0.002270 0.000000 0.999997
outer loop
vertex 0.004063 0.000685 0.150000
vertex 0.004136 0.000706 0.150000
vertex 0.004272 0.000753 0.150000
endloop
endfacet
facet normal 0.000000 0.000000 1.000000
outer loop
vertex 0.004272 0.000753 0.150000
vertex 0.004394 0.000814 0.150000
vertex 0.004500 0.000903 0.150000
endloop
endfacet
facet normal 0.000000 0.000000 1.000000
outer loop
vertex 0.004500 0.000903 0.150000
vertex 0.004587 0.001033 0.150000
vertex 0.004663 0.001189 0.150000
endloop
endfacet
facet normal 0.000959 0.000000 1.000000
outer loop
vertex 0.004663 0.001189 0.150000
vertex 0.004731 0.001347 0.150000
vertex 0.004827 0.001684 0.150000
endloop
endfacet
facet normal 0.000439 0.000000 1.000000
outer loop
vertex 0.004827 0.001684 0.150000
vertex 0.004848 0.001962 0.150000
vertex 0.004833 0.002164 0.150000
endloop
endfacet
facet normal 0.000000 0.000000 1.000000
outer loop
vertex 0.004833 0.002164 0.150000
vertex 0.004795 0.002582 0.150000
vertex 0.004260 0.003950 0.150000
endloop
endfacet
facet normal -0.000036 0.000000 1.000000
outer loop
vertex 0.004260 0.003950 0.150000
vertex 0.003952 0.004318 0.150000
vertex 0.003574 0.004443 0.150000
endloop
endfacet
facet normal 0.000000 0.000000 1.000000
outer loop
vertex 0.003574 0.004443 0.150000
vertex 0.002975 0.004543 0.150000
vertex 0.002040 0.004534 0.150000
endloop
endfacet
facet normal -0.000019 0.000000 1.000000
outer loop
vertex 0.002040 0.004534 0.150000
vertex 0.000737 0.003946 0.150000
vertex 0.000001 0.002431 0.150000
endloop
endfacet
facet normal -0.000117 0.000000 1.000000
outer loop
vertex 0.000001 0.002431 0.150000
vertex 0.000312 0.001247 0.150000
vertex 0.000816 0.000528 0.150000
endloop
endfacet
facet normal -0.000048 0.000000 1.000000
outer loop
vertex 0.000816 0.000528 0.150000
vertex 0.001475 0.000174 0.150000
vertex 0.002420 0.000011 0.150000
endloop
endfacet
facet normal 0.000097 0.000000 1.000000
outer loop
vertex 0.002420 0.000011 0.150000
vertex 0.002920 0.000157 0.150000
vertex 0.003654 0.000523 0.150000
endloop
endfacet
facet normal 0.000345 0.000000 1.000000
outer loop
vertex 0.002420 0.000011 0.150000
vertex 0.003654 0.000523 0.150000
vertex 0.003743 0.000567 0.150000
endloop
endfacet
facet normal 0.000028 0.000000 1.000000
outer loop
vertex 0.000001 0.002431 0.150000
vertex 0.000816 0.000528 0.150000
vertex 0.002420 0.000011 0.150000
endloop
endfacet
facet normal 0.000000 0.000000 1.000000
outer loop
vertex 0.003574 0.004443 0.150000
vertex 0.002040 0.004534 0.150000
vertex 0.000001 0.002431 0.150000
endloop
endfacet
facet normal 0.000000 0.000000 1.000000
outer loop
vertex 0.004833 0.002164 0.150000
vertex 0.004260 0.003950 0.150000
vertex 0.003574 0.004443 0.150000
endloop
endfacet
facet normal -0.000190 0.000000 1.000000
outer loop
vertex 0.004663 0.001189 0.150000
vertex 0.004827 0.001684 0.150000
vertex 0.004833 0.002164 0.150000
endloop
endfacet
facet normal 0.000000 0.000000 1.000000
outer loop
vertex 0.004272 0.000753 0.150000
vertex 0.004500 0.000903 0.150000
vertex 0.004663 0.001189 0.150000
endloop
endfacet
facet normal 0.000000 0.000000 1.000000
outer loop
vertex 0.003987 0.000661 0.150000
vertex 0.004063 0.000685 0.150000
vertex 0.004272 0.000753 0.150000
endloop
endfacet
facet normal 0.000000 0.000000 1.000000
outer loop
vertex 0.003987 0.000661 0.150000
vertex 0.004272 0.000753 0.150000
vertex 0.004663 0.001189 0.150000
endloop
endfacet
facet normal 0.000036 0.000000 1.000000
outer loop
vertex 0.004663 0.001189 0.150000
vertex 0.004833 0.002164 0.150000
vertex 0.003574 0.004443 0.150000
endloop
endfacet
facet normal 0.000004 0.000000 1.000000
outer loop
vertex 0.003574 0.004443 0.150000
vertex 0.000001 0.002431 0.150000
vertex 0.002420 0.000011 0.150000
endloop
endfacet
facet normal 0.003426 0.000000 0.999994
outer loop
vertex 0.002420 0.000011 0.150000
vertex 0.003743 0.000567 0.150000
vertex 0.003827 0.000604 0.150000
endloop
endfacet
facet normal 0.000000 0.000000 1.000000
outer loop
vertex 0.003908 0.000635 0.150000
vertex 0.003987 0.000661 0.150000
vertex 0.004663 0.001189 0.150000
endloop
endfacet
facet normal -0.000010 0.000000 1.000000
outer loop
vertex 0.003574 0.004443 0.150000
vertex 0.002420 0.000011 0.150000
vertex 0.003827 0.000604 0.150000
endloop
endfacet
facet normal 0.000000 0.000000 1.000000
outer loop
vertex 0.003827 0.000604 0.150000
vertex 0.003908 0.000635 0.150000
vertex 0.004663 0.001189 0.150000
endloop
endfacet
facet normal -0.000009 0.000000 1.000000
outer loop
vertex 0.003574 0.004443 0.150000
vertex 0.003827 0.000604 0.150000
vertex 0.004663 0.001189 0.150000
endloop
endfacet
facet normal 0.589703 -0.807620 0.000000
outer loop
vertex 0.004394 0.000814 0.150000
vertex 0.004394 0.000814 0.000000
vertex 0.004449 0.000854 0.000000
endloop
endfacet
facet normal 0.589698 -0.807624 0.000000
outer loop
vertex 0.004394 0.000814 0.150000
vertex 0.004449 0.000854 0.000000
vertex 0.004449 0.000854 0.150000
endloop
endfacet
facet normal 0.693764 -0.720203 0.000000
outer loop
vertex 0.004449 0.000854 0.150000
vertex 0.004449 0.000854 0.000000
vertex 0.004500 0.000903 0.000000
endloop
endfacet
facet normal 0.693764 -0.720203 0.000000
outer loop
vertex 0.004449 0.000854 0.150000
vertex 0.004500 0.000903 0.000000
vertex 0.004500 0.000903 0.150000
endloop
endfacet
facet normal -0.999243 -0.038909 0.000000
outer loop
vertex 0.000001 0.002431 0.150000
vertex 0.000001 0.002431 0.000000
vertex 0.000007 0.002277 0.000000
endloop
endfacet
facet normal -0.999243 -0.038909 0.000000
outer loop
vertex 0.000001 0.002431 0.150000
vertex 0.000007 0.002277 0.000000
vertex 0.000007 0.002277 0.150000
endloop
endfacet
facet normal 0.788539 -0.614984 0.000000
outer loop
vertex 0.004500 0.000903 0.150000
vertex 0.004500 0.000903 0.000000
vertex 0.004546 0.000962 0.000000
endloop
endfacet
facet normal 0.788539 -0.614984 0.000000
outer loop
vertex 0.004500 0.000903 0.150000
vertex 0.004546 0.000962 0.000000
vertex 0.004546 0.000962 0.150000
endloop
endfacet
facet normal 0.000000 0.000000 1.000000
outer loop
vertex 0.002677 0.000070 0.000000
vertex 0.002800 0.000111 0.000000
vertex 0.002920 0.000157 0.000000
endloop
endfacet
facet normal 0.361284 -0.932456 0.000000
outer loop
vertex 0.002920 0.000157 0.000000
vertex 0.002920 0.000157 0.150000
vertex 0.002800 0.000111 0.150000
endloop
endfacet
facet normal 0.265101 -0.964221 0.000000
outer loop
vertex 0.002677 0.000070 0.150000
vertex 0.002550 0.000035 0.150000
vertex 0.002550 0.000035 0.000000
endloop
endfacet
facet normal 0.317240 -0.948345 -0.000040
outer loop
vertex 0.002920 0.000157 0.000000
vertex 0.002800 0.000111 0.150000
vertex 0.002677 0.000070 0.150000
endloop
endfacet
facet normal 0.000000 0.000000 1.000000
outer loop
vertex 0.002550 0.000035 0.000000
vertex 0.002677 0.000070 0.000000
vertex 0.002920 0.000157 0.000000
endloop
endfacet
facet normal 0.314450 -0.949274 -0.000045
outer loop
vertex 0.002920 0.000157 0.000000
vertex 0.002677 0.000070 0.150000
vertex 0.002550 0.000035 0.000000
endloop
endfacet
facet normal 0.489473 -0.872019 0.000000
outer loop
vertex 0.004335 0.000781 0.150000
vertex 0.004335 0.000781 0.000000
vertex 0.004394 0.000814 0.000000
endloop
endfacet
facet normal 0.489482 -0.872013 0.000000
outer loop
vertex 0.004335 0.000781 0.150000
vertex 0.004394 0.000814 0.000000
vertex 0.004394 0.000814 0.150000
endloop
endfacet
facet normal 0.182018 -0.983295 0.000000
outer loop
vertex 0.002420 0.000011 0.150000
vertex 0.002420 0.000011 0.000000
vertex 0.002550 0.000035 0.000000
endloop
endfacet
facet normal 0.182018 -0.983295 0.000000
outer loop
vertex 0.002420 0.000011 0.150000
vertex 0.002550 0.000035 0.000000
vertex 0.002550 0.000035 0.150000
endloop
endfacet
facet normal -0.932139 0.362102 0.000000
outer loop
vertex 0.000132 0.002917 0.150000
vertex 0.000132 0.002917 0.000000
vertex 0.000068 0.002753 0.000000
endloop
endfacet
facet normal -0.932139 0.362102 0.000000
outer loop
vertex 0.000132 0.002917 0.150000
vertex 0.000068 0.002753 0.000000
vertex 0.000068 0.002753 0.150000
endloop
endfacet
facet normal -0.882399 -0.470502 0.000000
outer loop
vertex 0.000312 0.001247 0.000000
vertex 0.000488 0.000917 0.000000
vertex 0.000488 0.000917 0.150000
endloop
endfacet
facet normal -0.882399 -0.470502 0.000000
outer loop
vertex 0.000312 0.001247 0.000000
vertex 0.000488 0.000917 0.150000
vertex 0.000312 0.001247 0.150000
endloop
endfacet
facet normal 0.895762 0.444533 0.000000
outer loop
vertex 0.004659 0.003146 0.000000
vertex 0.004260 0.003950 0.000000
vertex 0.004260 0.003950 0.150000
endloop
endfacet
facet normal 0.895762 0.444533 0.000000
outer loop
vertex 0.004659 0.003146 0.000000
vertex 0.004260 0.003950 0.150000
vertex 0.004659 0.003146 0.150000
endloop
endfacet
facet normal -0.930322 -0.366745 0.000000
outer loop
vertex 0.000173 0.001601 0.150000
vertex 0.000173 0.001601 0.000000
vertex 0.000312 0.001247 0.000000
endloop
endfacet
facet normal -0.930322 -0.366745 0.000000
outer loop
vertex 0.000173 0.001601 0.150000
vertex 0.000312 0.001247 0.000000
vertex 0.000312 0.001247 0.150000
endloop
endfacet
facet normal 0.945732 -0.324949 0.000000
outer loop
vertex 0.004731 0.001347 0.000000
vertex 0.004787 0.001511 0.000000
vertex 0.004787 0.001511 0.150000
endloop
endfacet
facet normal 0.945730 -0.324953 0.000000
outer loop
vertex 0.004731 0.001347 0.000000
vertex 0.004787 0.001511 0.150000
vertex 0.004731 0.001347 0.150000
endloop
endfacet
facet normal 0.000000 0.000000 1.000000
outer loop
vertex 0.001476 0.004329 0.000000
vertex 0.001197 0.004196 0.000000
vertex 0.000737 0.003946 0.000000
endloop
endfacet
facet normal -0.476783 0.879021 0.000000
outer loop
vertex 0.000737 0.003946 0.000000
vertex 0.000737 0.003946 0.150000
vertex 0.001197 0.004196 0.150000
endloop
endfacet
facet normal -0.382309 0.924035 0.000000
outer loop
vertex 0.001476 0.004329 0.150000
vertex 0.001767 0.004450 0.150000
vertex 0.001767 0.004450 0.000000
endloop
endfacet
facet normal -0.432081 0.901835 -0.000175
outer loop
vertex 0.000737 0.003946 0.000000
vertex 0.001197 0.004196 0.150000
vertex 0.001476 0.004329 0.150000
endloop
endfacet
facet normal 0.000000 0.000000 1.000000
outer loop
vertex 0.001767 0.004450 0.000000
vertex 0.001476 0.004329 0.000000
vertex 0.000737 0.003946 0.000000
endloop
endfacet
facet normal -0.439247 0.898366 -0.000131
outer loop
vertex 0.000737 0.003946 0.000000
vertex 0.001476 0.004329 0.150000
vertex 0.001767 0.004450 0.000000
endloop
endfacet
facet normal -0.862089 0.506756 0.000000
outer loop
vertex 0.000737 0.003946 0.000000
vertex 0.000132 0.002917 0.000000
vertex 0.000132 0.002917 0.150000
endloop
endfacet
facet normal -0.862089 0.506756 0.000000
outer loop
vertex 0.000737 0.003946 0.000000
vertex 0.000132 0.002917 0.150000
vertex 0.000737 0.003946 0.150000
endloop
endfacet
facet normal 0.973767 -0.227546 0.000000
outer loop
vertex 0.004787 0.001511 0.000000
vertex 0.004827 0.001684 0.000000
vertex 0.004827 0.001684 0.150000
endloop
endfacet
facet normal 0.973768 -0.227542 0.000000
outer loop
vertex 0.004787 0.001511 0.000000
vertex 0.004827 0.001684 0.150000
vertex 0.004787 0.001511 0.150000
endloop
endfacet
facet normal 0.989771 0.142665 0.000000
outer loop
vertex 0.004795 0.002582 0.000000
vertex 0.004779 0.002691 0.000000
vertex 0.004779 0.002691 0.150000
endloop
endfacet
facet normal 0.989772 0.142658 0.000000
outer loop
vertex 0.004795 0.002582 0.000000
vertex 0.004779 0.002691 0.150000
vertex 0.004795 0.002582 0.150000
endloop
endfacet
facet normal 0.993648 0.112533 0.000000
outer loop
vertex 0.004807 0.002476 0.000000
vertex 0.004795 0.002582 0.000000
vertex 0.004795 0.002582 0.150000
endloop
endfacet
facet normal 0.993648 0.112533 0.000000
outer loop
vertex 0.004807 0.002476 0.000000
vertex 0.004795 0.002582 0.150000
vertex 0.004807 0.002476 0.150000
endloop
endfacet
facet normal 0.995829 0.091244 0.000000
outer loop
vertex 0.004817 0.002371 0.000000
vertex 0.004807 0.002476 0.000000
vertex 0.004807 0.002476 0.150000
endloop
endfacet
facet normal 0.995829 0.091237 0.000000
outer loop
vertex 0.004817 0.002371 0.000000
vertex 0.004807 0.002476 0.150000
vertex 0.004817 0.002371 0.150000
endloop
endfacet
facet normal 0.000000 0.000000 -1.000000
outer loop
vertex 0.004842 0.002062 0.000000
vertex 0.004833 0.002164 0.000000
vertex 0.004825 0.002267 0.000000
endloop
endfacet
facet normal 0.996831 0.079543 0.000000
outer loop
vertex 0.004825 0.002267 0.000000
vertex 0.004817 0.002371 0.000000
vertex 0.004817 0.002371 0.150000
endloop
endfacet
facet normal 0.996832 0.079535 0.000000
outer loop
vertex 0.004825 0.002267 0.000000
vertex 0.004817 0.002371 0.150000
vertex 0.004825 0.002267 0.150000
endloop
endfacet
facet normal 0.998139 0.060985 0.000000
outer loop
vertex 0.004848 0.001962 0.150000
vertex 0.004848 0.001962 0.000000
vertex 0.004842 0.002062 0.000000
endloop
endfacet
facet normal 0.996599 0.082406 0.000000
outer loop
vertex 0.004842 0.002062 0.000000
vertex 0.004825 0.002267 0.000000
vertex 0.004825 0.002267 0.150000
endloop
endfacet
facet normal 0.996955 0.077975 0.000006
outer loop
vertex 0.004842 0.002062 0.000000
vertex 0.004825 0.002267 0.150000
vertex 0.004833 0.002164 0.150000
endloop
endfacet
facet normal 0.998139 0.060978 0.000000
outer loop
vertex 0.004842 0.002062 0.150000
vertex 0.004848 0.001962 0.150000
vertex 0.004842 0.002062 0.000000
endloop
endfacet
facet normal 0.996220 0.086868 0.000000
outer loop
vertex 0.004833 0.002164 0.150000
vertex 0.004842 0.002062 0.150000
vertex 0.004842 0.002062 0.000000
endloop
endfacet
facet normal 0.839905 0.542734 0.000000
outer loop
vertex 0.004260 0.003950 0.150000
vertex 0.004260 0.003950 0.000000
vertex 0.004147 0.004125 0.000000
endloop
endfacet
facet normal 0.839907 0.542731 0.000000
outer loop
vertex 0.004260 0.003950 0.150000
vertex 0.004147 0.004125 0.000000
vertex 0.004147 0.004125 0.150000
endloop
endfacet
facet normal -0.990681 0.136205 0.000000
outer loop
vertex 0.000023 0.002590 0.150000
vertex 0.000023 0.002590 0.000000
vertex 0.000001 0.002431 0.000000
endloop
endfacet
facet normal -0.990681 0.136205 0.000000
outer loop
vertex 0.000023 0.002590 0.150000
vertex 0.000001 0.002431 0.000000
vertex 0.000001 0.002431 0.150000
endloop
endfacet
facet normal -0.216541 -0.976273 0.000000
outer loop
vertex 0.001747 0.000078 0.000000
vertex 0.002020 0.000018 0.000000
vertex 0.002020 0.000018 0.150000
endloop
endfacet
facet normal -0.216542 -0.976273 0.000000
outer loop
vertex 0.001747 0.000078 0.000000
vertex 0.002020 0.000018 0.150000
vertex 0.001747 0.000078 0.150000
endloop
endfacet
facet normal -0.686445 -0.727182 0.000000
outer loop
vertex 0.000698 0.000639 0.150000
vertex 0.000698 0.000639 0.000000
vertex 0.000816 0.000528 0.000000
endloop
endfacet
facet normal -0.686445 -0.727182 0.000000
outer loop
vertex 0.000698 0.000639 0.150000
vertex 0.000816 0.000528 0.000000
vertex 0.000816 0.000528 0.150000
endloop
endfacet
facet normal -0.824544 -0.565798 0.000000
outer loop
vertex 0.000488 0.000917 0.150000
vertex 0.000488 0.000917 0.000000
vertex 0.000589 0.000770 0.000000
endloop
endfacet
facet normal -0.824544 -0.565799 0.000000
outer loop
vertex 0.000488 0.000917 0.150000
vertex 0.000589 0.000770 0.000000
vertex 0.000589 0.000770 0.150000
endloop
endfacet
facet normal -0.960423 -0.278545 0.000000
outer loop
vertex 0.000070 0.001954 0.000000
vertex 0.000173 0.001601 0.000000
vertex 0.000173 0.001601 0.150000
endloop
endfacet
facet normal -0.960423 -0.278545 0.000000
outer loop
vertex 0.000070 0.001954 0.000000
vertex 0.000173 0.001601 0.150000
vertex 0.000070 0.001954 0.150000
endloop
endfacet
facet normal 0.999972 -0.007421 0.000000
outer loop
vertex 0.004847 0.001866 0.150000
vertex 0.004847 0.001866 0.000000
vertex 0.004848 0.001962 0.000000
endloop
endfacet
facet normal 0.999973 -0.007413 0.000000
outer loop
vertex 0.004847 0.001866 0.150000
vertex 0.004848 0.001962 0.000000
vertex 0.004848 0.001962 0.150000
endloop
endfacet
facet normal 0.924698 -0.380701 0.000000
outer loop
vertex 0.004698 0.001267 0.000000
vertex 0.004731 0.001347 0.000000
vertex 0.004731 0.001347 0.150000
endloop
endfacet
facet normal 0.924698 -0.380701 0.000000
outer loop
vertex 0.004698 0.001267 0.000000
vertex 0.004731 0.001347 0.150000
vertex 0.004698 0.001267 0.150000
endloop
endfacet
facet normal 0.912807 -0.408391 0.000000
outer loop
vertex 0.004663 0.001189 0.000000
vertex 0.004698 0.001267 0.000000
vertex 0.004698 0.001267 0.150000
endloop
endfacet
facet normal 0.912807 -0.408391 0.000000
outer loop
vertex 0.004663 0.001189 0.000000
vertex 0.004698 0.001267 0.150000
vertex 0.004663 0.001189 0.150000
endloop
endfacet
facet normal 0.896588 -0.442866 0.000000
outer loop
vertex 0.004587 0.001033 0.150000
vertex 0.004587 0.001033 0.000000
vertex 0.004626 0.001110 0.000000
endloop
endfacet
facet normal 0.903271 -0.429070 0.000000
outer loop
vertex 0.004626 0.001110 0.000000
vertex 0.004663 0.001189 0.000000
vertex 0.004663 0.001189 0.150000
endloop
endfacet
facet normal 0.896588 -0.442866 0.000000
outer loop
vertex 0.004626 0.001110 0.150000
vertex 0.004587 0.001033 0.150000
vertex 0.004626 0.001110 0.000000
endloop
endfacet
facet normal 0.903275 -0.429063 0.000000
outer loop
vertex 0.004663 0.001189 0.150000
vertex 0.004626 0.001110 0.150000
vertex 0.004626 0.001110 0.000000
endloop
endfacet
facet normal 0.774827 0.632173 0.000000
outer loop
vertex 0.004147 0.004125 0.150000
vertex 0.004147 0.004125 0.000000
vertex 0.004086 0.004200 0.000000
endloop
endfacet
facet normal 0.774823 0.632178 0.000000
outer loop
vertex 0.004147 0.004125 0.150000
vertex 0.004086 0.004200 0.000000
vertex 0.004086 0.004200 0.150000
endloop
endfacet
facet normal 0.864570 -0.502512 0.000000
outer loop
vertex 0.004546 0.000962 0.150000
vertex 0.004546 0.000962 0.000000
vertex 0.004587 0.001033 0.000000
endloop
endfacet
facet normal 0.864566 -0.502519 0.000000
outer loop
vertex 0.004546 0.000962 0.150000
vertex 0.004587 0.001033 0.000000
vertex 0.004587 0.001033 0.150000
endloop
endfacet
facet normal -0.398059 -0.917360 0.000000
outer loop
vertex 0.001339 0.000233 0.000000
vertex 0.001475 0.000174 0.000000
vertex 0.001475 0.000174 0.150000
endloop
endfacet
facet normal -0.398059 -0.917360 0.000000
outer loop
vertex 0.001339 0.000233 0.000000
vertex 0.001475 0.000174 0.150000
vertex 0.001339 0.000233 0.150000
endloop
endfacet
facet normal -0.477529 -0.878616 0.000000
outer loop
vertex 0.000942 0.000440 0.150000
vertex 0.000942 0.000440 0.000000
vertex 0.001205 0.000297 0.000000
endloop
endfacet
facet normal -0.433972 -0.900927 0.000000
outer loop
vertex 0.001205 0.000297 0.000000
vertex 0.001339 0.000233 0.000000
vertex 0.001339 0.000233 0.150000
endloop
endfacet
facet normal -0.477529 -0.878616 0.000000
outer loop
vertex 0.001205 0.000297 0.150000
vertex 0.000942 0.000440 0.150000
vertex 0.001205 0.000297 0.000000
endloop
endfacet
facet normal -0.433971 -0.900927 0.000000
outer loop
vertex 0.001205 0.000297 0.000000
vertex 0.001339 0.000233 0.150000
vertex 0.001205 0.000297 0.150000
endloop
endfacet
facet normal 0.066700 0.997773 0.000000
outer loop
vertex 0.002809 0.004560 0.000000
vertex 0.002643 0.004571 0.000000
vertex 0.002643 0.004571 0.150000
endloop
endfacet
facet normal 0.066700 0.997773 0.000000
outer loop
vertex 0.002809 0.004560 0.000000
vertex 0.002643 0.004571 0.150000
vertex 0.002809 0.004560 0.150000
endloop
endfacet
facet normal 0.100664 0.994920 0.000000
outer loop
vertex 0.002975 0.004543 0.000000
vertex 0.002809 0.004560 0.000000
vertex 0.002809 0.004560 0.150000
endloop
endfacet
facet normal 0.100664 0.994920 0.000000
outer loop
vertex 0.002975 0.004543 0.000000
vertex 0.002809 0.004560 0.150000
vertex 0.002975 0.004543 0.150000
endloop
endfacet
facet normal 0.155073 0.987903 0.000000
outer loop
vertex 0.003294 0.004497 0.150000
vertex 0.003294 0.004497 0.000000
vertex 0.003138 0.004522 0.000000
endloop
endfacet
facet normal 0.129616 0.991564 0.000000
outer loop
vertex 0.003138 0.004522 0.000000
vertex 0.002975 0.004543 0.000000
vertex 0.002975 0.004543 0.150000
endloop
endfacet
facet normal 0.155073 0.987903 0.000000
outer loop
vertex 0.003138 0.004522 0.150000
vertex 0.003294 0.004497 0.150000
vertex 0.003138 0.004522 0.000000
endloop
endfacet
facet normal 0.129617 0.991564 0.000000
outer loop
vertex 0.002975 0.004543 0.150000
vertex 0.003138 0.004522 0.150000
vertex 0.003138 0.004522 0.000000
endloop
endfacet
facet normal 0.077140 -0.997020 0.000000
outer loop
vertex 0.002288 0.000001 0.150000
vertex 0.002288 0.000001 0.000000
vertex 0.002420 0.000011 0.000000
endloop
endfacet
facet normal 0.077140 -0.997020 0.000000
outer loop
vertex 0.002288 0.000001 0.150000
vertex 0.002420 0.000011 0.000000
vertex 0.002420 0.000011 0.150000
endloop
endfacet
facet normal 0.705190 0.709019 0.000000
outer loop
vertex 0.004086 0.004200 0.150000
vertex 0.004086 0.004200 0.000000
vertex 0.004022 0.004264 0.000000
endloop
endfacet
facet normal 0.705190 0.709019 0.000000
outer loop
vertex 0.004086 0.004200 0.150000
vertex 0.004022 0.004264 0.000000
vertex 0.004022 0.004264 0.150000
endloop
endfacet
facet normal -0.963708 0.266960 0.000000
outer loop
vertex 0.000068 0.002753 0.150000
vertex 0.000068 0.002753 0.000000
vertex 0.000023 0.002590 0.000000
endloop
endfacet
facet normal -0.963708 0.266960 0.000000
outer loop
vertex 0.000068 0.002753 0.150000
vertex 0.000023 0.002590 0.000000
vertex 0.000023 0.002590 0.150000
endloop
endfacet
facet normal -0.295249 0.955420 0.000000
outer loop
vertex 0.002040 0.004534 0.000000
vertex 0.001767 0.004450 0.000000
vertex 0.001767 0.004450 0.150000
endloop
endfacet
facet normal -0.295250 0.955420 0.000000
outer loop
vertex 0.002040 0.004534 0.000000
vertex 0.001767 0.004450 0.150000
vertex 0.002040 0.004534 0.150000
endloop
endfacet
facet normal 0.953382 0.301766 0.000000
outer loop
vertex 0.004733 0.002913 0.150000
vertex 0.004733 0.002913 0.000000
vertex 0.004659 0.003146 0.000000
endloop
endfacet
facet normal 0.953383 0.301763 0.000000
outer loop
vertex 0.004733 0.002913 0.150000
vertex 0.004659 0.003146 0.000000
vertex 0.004659 0.003146 0.150000
endloop
endfacet
facet normal -0.981474 -0.191594 0.000000
outer loop
vertex 0.000007 0.002277 0.000000
vertex 0.000070 0.001954 0.000000
vertex 0.000070 0.001954 0.150000
endloop
endfacet
facet normal -0.981474 -0.191594 0.000000
outer loop
vertex 0.000007 0.002277 0.000000
vertex 0.000070 0.001954 0.150000
vertex 0.000007 0.002277 0.150000
endloop
endfacet
facet normal 0.340905 0.940098 0.000000
outer loop
vertex 0.003875 0.004360 0.150000
vertex 0.003875 0.004360 0.000000
vertex 0.003791 0.004391 0.000000
endloop
endfacet
facet normal 0.340905 0.940098 0.000000
outer loop
vertex 0.003875 0.004360 0.150000
vertex 0.003791 0.004391 0.000000
vertex 0.003791 0.004391 0.150000
endloop
endfacet
facet normal 0.397546 -0.917582 0.000000
outer loop
vertex 0.003036 0.000208 0.150000
vertex 0.002920 0.000157 0.150000
vertex 0.002920 0.000157 0.000000
endloop
endfacet
facet normal 0.397547 -0.917582 0.000000
outer loop
vertex 0.003036 0.000208 0.150000
vertex 0.002920 0.000157 0.000000
vertex 0.003036 0.000208 0.000000
endloop
endfacet
facet normal 0.426362 -0.904553 0.000000
outer loop
vertex 0.003149 0.000261 0.150000
vertex 0.003036 0.000208 0.150000
vertex 0.003036 0.000208 0.000000
endloop
endfacet
facet normal 0.426364 -0.904552 0.000000
outer loop
vertex 0.003149 0.000261 0.150000
vertex 0.003036 0.000208 0.000000
vertex 0.003149 0.000261 0.000000
endloop
endfacet
facet normal 0.447968 -0.894049 0.000000
outer loop
vertex 0.003258 0.000315 0.150000
vertex 0.003149 0.000261 0.150000
vertex 0.003149 0.000261 0.000000
endloop
endfacet
facet normal 0.000000 0.000000 -1.000000
outer loop
vertex 0.003258 0.000315 0.000000
vertex 0.003654 0.000523 0.000000
vertex 0.003743 0.000567 0.000000
endloop
endfacet
facet normal 0.447968 -0.894049 0.000000
outer loop
vertex 0.003258 0.000315 0.150000
vertex 0.003149 0.000261 0.000000
vertex 0.003258 0.000315 0.000000
endloop
endfacet
facet normal 0.464982 -0.885320 0.000000
outer loop
vertex 0.003654 0.000523 0.150000
vertex 0.003258 0.000315 0.150000
vertex 0.003258 0.000315 0.000000
endloop
endfacet
facet normal 0.000000 0.000000 -1.000000
outer loop
vertex 0.003258 0.000315 0.000000
vertex 0.003743 0.000567 0.000000
vertex 0.003827 0.000604 0.000000
endloop
endfacet
facet normal 0.356994 -0.934107 0.000000
outer loop
vertex 0.003827 0.000604 0.000000
vertex 0.003908 0.000635 0.000000
vertex 0.003908 0.000635 0.150000
endloop
endfacet
facet normal 0.356997 -0.934106 0.000000
outer loop
vertex 0.003827 0.000604 0.000000
vertex 0.003908 0.000635 0.150000
vertex 0.003827 0.000604 0.150000
endloop
endfacet
facet normal 0.452190 -0.891922 0.000043
outer loop
vertex 0.003654 0.000523 0.150000
vertex 0.003258 0.000315 0.000000
vertex 0.003827 0.000604 0.000000
endloop
endfacet
facet normal 0.404106 -0.914712 0.000000
outer loop
vertex 0.003827 0.000604 0.000000
vertex 0.003827 0.000604 0.150000
vertex 0.003743 0.000567 0.150000
endloop
endfacet
facet normal 0.438333 -0.898812 0.000023
outer loop
vertex 0.003827 0.000604 0.000000
vertex 0.003743 0.000567 0.150000
vertex 0.003654 0.000523 0.150000
endloop
endfacet
facet normal 0.994276 -0.106843 0.000000
outer loop
vertex 0.004827 0.001684 0.150000
vertex 0.004827 0.001684 0.000000
vertex 0.004847 0.001866 0.000000
endloop
endfacet
facet normal 0.994276 -0.106843 0.000000
outer loop
vertex 0.004827 0.001684 0.150000
vertex 0.004847 0.001866 0.000000
vertex 0.004847 0.001866 0.150000
endloop
endfacet
facet normal -0.767032 -0.641608 0.000000
outer loop
vertex 0.000589 0.000770 0.150000
vertex 0.000589 0.000770 0.000000
vertex 0.000698 0.000639 0.000000
endloop
endfacet
facet normal -0.767032 -0.641609 0.000000
outer loop
vertex 0.000589 0.000770 0.150000
vertex 0.000698 0.000639 0.000000
vertex 0.000698 0.000639 0.150000
endloop
endfacet
facet normal 0.000828 1.000000 0.000000
outer loop
vertex 0.002643 0.004571 0.000000
vertex 0.002323 0.004571 0.000000
vertex 0.002323 0.004571 0.150000
endloop
endfacet
facet normal 0.000828 1.000000 0.000000
outer loop
vertex 0.002643 0.004571 0.000000
vertex 0.002323 0.004571 0.150000
vertex 0.002643 0.004571 0.150000
endloop
endfacet
facet normal 0.609261 0.792970 0.000000
outer loop
vertex 0.004022 0.004264 0.150000
vertex 0.004022 0.004264 0.000000
vertex 0.003952 0.004318 0.000000
endloop
endfacet
facet normal 0.609265 0.792967 0.000000
outer loop
vertex 0.004022 0.004264 0.150000
vertex 0.003952 0.004318 0.000000
vertex 0.003952 0.004318 0.150000
endloop
endfacet
facet normal 0.178289 0.983978 0.000000
outer loop
vertex 0.003441 0.004471 0.000000
vertex 0.003294 0.004497 0.000000
vertex 0.003294 0.004497 0.150000
endloop
endfacet
facet normal 0.178289 0.983978 0.000000
outer loop
vertex 0.003441 0.004471 0.000000
vertex 0.003294 0.004497 0.150000
vertex 0.003441 0.004471 0.150000
endloop
endfacet
facet normal 0.200524 0.979689 0.000000
outer loop
vertex 0.003574 0.004443 0.000000
vertex 0.003441 0.004471 0.000000
vertex 0.003441 0.004471 0.150000
endloop
endfacet
facet normal 0.200526 0.979688 0.000000
outer loop
vertex 0.003574 0.004443 0.000000
vertex 0.003441 0.004471 0.150000
vertex 0.003574 0.004443 0.150000
endloop
endfacet
facet normal 0.249089 0.968480 0.000000
outer loop
vertex 0.003791 0.004391 0.150000
vertex 0.003791 0.004391 0.000000
vertex 0.003692 0.004416 0.000000
endloop
endfacet
facet normal 0.223298 0.974750 0.000000
outer loop
vertex 0.003692 0.004416 0.000000
vertex 0.003574 0.004443 0.000000
vertex 0.003574 0.004443 0.150000
endloop
endfacet
facet normal 0.249088 0.968481 0.000000
outer loop
vertex 0.003692 0.004416 0.150000
vertex 0.003791 0.004391 0.150000
vertex 0.003692 0.004416 0.000000
endloop
endfacet
facet normal 0.223300 0.974750 0.000000
outer loop
vertex 0.003692 0.004416 0.000000
vertex 0.003574 0.004443 0.150000
vertex 0.003692 0.004416 0.150000
endloop
endfacet
facet normal -0.130344 0.991469 0.000000
outer loop
vertex 0.002323 0.004571 0.150000
vertex 0.002323 0.004571 0.000000
vertex 0.002040 0.004534 0.000000
endloop
endfacet
facet normal -0.130344 0.991469 0.000000
outer loop
vertex 0.002323 0.004571 0.150000
vertex 0.002040 0.004534 0.000000
vertex 0.002040 0.004534 0.150000
endloop
endfacet
facet normal -0.573248 -0.819382 0.000000
outer loop
vertex 0.000816 0.000528 0.150000
vertex 0.000816 0.000528 0.000000
vertex 0.000942 0.000440 0.000000
endloop
endfacet
facet normal -0.573248 -0.819382 0.000000
outer loop
vertex 0.000816 0.000528 0.150000
vertex 0.000942 0.000440 0.000000
vertex 0.000942 0.000440 0.150000
endloop
endfacet
facet normal 0.404581 -0.914502 0.000000
outer loop
vertex 0.004272 0.000753 0.150000
vertex 0.004272 0.000753 0.000000
vertex 0.004335 0.000781 0.000000
endloop
endfacet
facet normal 0.404577 -0.914504 0.000000
outer loop
vertex 0.004272 0.000753 0.150000
vertex 0.004335 0.000781 0.000000
vertex 0.004335 0.000781 0.150000
endloop
endfacet
facet normal -0.063341 -0.997992 0.000000
outer loop
vertex 0.002020 0.000018 0.150000
vertex 0.002020 0.000018 0.000000
vertex 0.002288 0.000001 0.000000
endloop
endfacet
facet normal -0.063341 -0.997992 0.000000
outer loop
vertex 0.002020 0.000018 0.150000
vertex 0.002288 0.000001 0.000000
vertex 0.002288 0.000001 0.150000
endloop
endfacet
facet normal -0.331658 -0.943400 0.000000
outer loop
vertex 0.001475 0.000174 0.000000
vertex 0.001747 0.000078 0.000000
vertex 0.001747 0.000078 0.150000
endloop
endfacet
facet normal -0.331659 -0.943400 0.000000
outer loop
vertex 0.001475 0.000174 0.000000
vertex 0.001747 0.000078 0.150000
vertex 0.001475 0.000174 0.150000
endloop
endfacet
endsolid Exported from Blender-3.6.8
