solid Exported from Blender-3.6.8
facet normal -0.974050 -0.226335 0.000000
outer loop
vertex 0.000051 0.005493 0.000000
vertex 0.000089 0.005329 0.000000
vertex 0.000089 0.005329 0.150000
endloop
endfacet
facet normal -0.974050 -0.226335 0.000000
outer loop
vertex 0.000051 0.005493 0.000000
vertex 0.000089 0.005329 0.150000
vertex 0.000051 0.005493 0.150000
endloop
endfacet
facet normal 0.000000 0.000000 -1.000000
outer loop
vertex 0.000362 0.001315 0.000000
vertex 0.000383 0.001420 0.000000
vertex 0.000541 0.002077 0.000000
endloop
endfacet
facet normal 0.000000 0.000000 -1.000000
outer loop
vertex 0.000362 0.001315 0.000000
vertex 0.000541 0.002077 0.000000
vertex 0.000556 0.002120 0.000000
endloop
endfacet
facet normal 0.000000 0.000000 -1.000000
outer loop
vertex 0.000337 0.001145 0.000000
vertex 0.000346 0.001222 0.000000
vertex 0.000362 0.001315 0.000000
endloop
endfacet
facet normal 0.000000 0.000000 -1.000000
outer loop
vertex 0.000345 0.001044 0.000000
vertex 0.000336 0.001092 0.000000
vertex 0.000337 0.001145 0.000000
endloop
endfacet
facet normal 0.000000 0.000000 -1.000000
outer loop
vertex 0.000482 0.000771 0.000000
vertex 0.000367 0.000987 0.000000
vertex 0.000345 0.001044 0.000000
endloop
endfacet
facet normal 0.000000 0.000000 -1.000000
outer loop
vertex 0.000690 0.000461 0.000000
vertex 0.000584 0.000612 0.000000
vertex 0.000482 0.000771 0.000000
endloop
endfacet
facet normal 0.000000 0.000000 -1.000000
outer loop
vertex 0.000867 0.000240 0.000000
vertex 0.000821 0.000282 0.000000
vertex 0.000690 0.000461 0.000000
endloop
endfacet
facet normal 0.000000 0.000000 -1.000000
outer loop
vertex 0.001020 0.000171 0.000000
vertex 0.000933 0.000204 0.000000
vertex 0.000867 0.000240 0.000000
endloop
endfacet
facet normal 0.000000 0.000000 -1.000000
outer loop
vertex 0.001533 0.000079 0.000000
vertex 0.001125 0.000143 0.000000
vertex 0.001020 0.000171 0.000000
endloop
endfacet
facet normal 0.000000 0.000000 -1.000000
outer loop
vertex 0.002807 0.000000 0.000000
vertex 0.002624 0.000003 0.000000
vertex 0.001533 0.000079 0.000000
endloop
endfacet
facet normal 0.000000 0.000000 -1.000000
outer loop
vertex 0.003462 0.000030 0.000000
vertex 0.003148 0.000007 0.000000
vertex 0.002807 0.000000 0.000000
endloop
endfacet
facet normal 0.000000 0.000000 -1.000000
outer loop
vertex 0.006886 0.000478 0.000000
vertex 0.003462 0.000030 0.000000
vertex 0.002807 0.000000 0.000000
endloop
endfacet
facet normal 0.000000 0.000000 -1.000000
outer loop
vertex 0.002807 0.000000 0.000000
vertex 0.001533 0.000079 0.000000
vertex 0.001020 0.000171 0.000000
endloop
endfacet
facet normal 0.000000 0.000000 -1.000000
outer loop
vertex 0.001020 0.000171 0.000000
vertex 0.000867 0.000240 0.000000
vertex 0.000690 0.000461 0.000000
endloop
endfacet
facet normal 0.000000 0.000000 -1.000000
outer loop
vertex 0.000690 0.000461 0.000000
vertex 0.000482 0.000771 0.000000
vertex 0.000345 0.001044 0.000000
endloop
endfacet
facet normal 0.000000 0.000000 -1.000000
outer loop
vertex 0.000345 0.001044 0.000000
vertex 0.000337 0.001145 0.000000
vertex 0.000362 0.001315 0.000000
endloop
endfacet
facet normal 0.000000 0.000000 -1.000000
outer loop
vertex 0.000362 0.001315 0.000000
vertex 0.000556 0.002120 0.000000
vertex 0.000562 0.002144 0.000000
endloop
endfacet
facet normal 0.000000 0.000000 -1.000000
outer loop
vertex 0.000362 0.001315 0.000000
vertex 0.000562 0.002144 0.000000
vertex 0.000570 0.002173 0.000000
endloop
endfacet
facet normal 0.000000 0.000000 -1.000000
outer loop
vertex 0.000690 0.000461 0.000000
vertex 0.000345 0.001044 0.000000
vertex 0.000362 0.001315 0.000000
endloop
endfacet
facet normal 0.000000 0.000000 -1.000000
outer loop
vertex 0.002807 0.000000 0.000000
vertex 0.001020 0.000171 0.000000
vertex 0.000690 0.000461 0.000000
endloop
endfacet
facet normal 0.000000 0.000000 -1.000000
outer loop
vertex 0.006886 0.000478 0.000000
vertex 0.002807 0.000000 0.000000
vertex 0.000690 0.000461 0.000000
endloop
endfacet
facet normal 0.000000 0.000000 -1.000000
outer loop
vertex 0.000690 0.000461 0.000000
vertex 0.000362 0.001315 0.000000
vertex 0.000570 0.002173 0.000000
endloop
endfacet
facet normal 0.000000 0.000000 -1.000000
outer loop
vertex 0.000690 0.000461 0.000000
vertex 0.000570 0.002173 0.000000
vertex 0.000578 0.002208 0.000000
endloop
endfacet
facet normal 0.000000 0.000000 -1.000000
outer loop
vertex 0.008267 0.000547 0.000000
vertex 0.006886 0.000478 0.000000
vertex 0.000690 0.000461 0.000000
endloop
endfacet
facet normal 0.000000 0.000000 -1.000000
outer loop
vertex 0.008267 0.000547 0.000000
vertex 0.000690 0.000461 0.000000
vertex 0.000578 0.002208 0.000000
endloop
endfacet
facet normal 0.000000 0.000000 -1.000000
outer loop
vertex 0.008267 0.000547 0.000000
vertex 0.000578 0.002208 0.000000
vertex 0.000586 0.002249 0.000000
endloop
endfacet
facet normal 0.000000 0.000000 -1.000000
outer loop
vertex 0.008406 0.000546 0.000000
vertex 0.008267 0.000547 0.000000
vertex 0.000586 0.002249 0.000000
endloop
endfacet
facet normal 0.000000 0.000000 -1.000000
outer loop
vertex 0.008406 0.000546 0.000000
vertex 0.000586 0.002249 0.000000
vertex 0.000605 0.002403 0.000000
endloop
endfacet
facet normal 0.000000 0.000000 -1.000000
outer loop
vertex 0.008507 0.000542 0.000000
vertex 0.008406 0.000546 0.000000
vertex 0.000605 0.002403 0.000000
endloop
endfacet
facet normal 0.000000 0.000000 -1.000000
outer loop
vertex 0.008507 0.000542 0.000000
vertex 0.000605 0.002403 0.000000
vertex 0.000633 0.002913 0.000000
endloop
endfacet
facet normal 0.000000 0.000000 -1.000000
outer loop
vertex 0.008596 0.000533 0.000000
vertex 0.008507 0.000542 0.000000
vertex 0.000633 0.002913 0.000000
endloop
endfacet
facet normal 0.000000 0.000000 -1.000000
outer loop
vertex 0.008596 0.000533 0.000000
vertex 0.000633 0.002913 0.000000
vertex 0.000637 0.003123 0.000000
endloop
endfacet
facet normal 0.000000 0.000000 -1.000000
outer loop
vertex 0.008956 0.000492 0.000000
vertex 0.008596 0.000533 0.000000
vertex 0.000637 0.003123 0.000000
endloop
endfacet
facet normal 0.000000 0.000000 -1.000000
outer loop
vertex 0.008956 0.000492 0.000000
vertex 0.000637 0.003123 0.000000
vertex 0.000635 0.003234 0.000000
endloop
endfacet
facet normal 0.000000 0.000000 -1.000000
outer loop
vertex 0.009893 0.000370 0.000000
vertex 0.009846 0.000374 0.000000
vertex 0.009708 0.000394 0.000000
endloop
endfacet
facet normal 0.000000 0.000000 -1.000000
outer loop
vertex 0.009708 0.000394 0.000000
vertex 0.008956 0.000492 0.000000
vertex 0.000635 0.003234 0.000000
endloop
endfacet
facet normal 0.000000 0.000000 -1.000000
outer loop
vertex 0.009708 0.000394 0.000000
vertex 0.000635 0.003234 0.000000
vertex 0.000629 0.003349 0.000000
endloop
endfacet
facet normal 0.000000 0.000000 -1.000000
outer loop
vertex 0.009946 0.000370 0.000000
vertex 0.009893 0.000370 0.000000
vertex 0.009708 0.000394 0.000000
endloop
endfacet
facet normal 0.000000 0.000000 -1.000000
outer loop
vertex 0.010125 0.000396 0.000000
vertex 0.010063 0.000384 0.000000
vertex 0.009946 0.000370 0.000000
endloop
endfacet
facet normal 0.000000 0.000000 -1.000000
outer loop
vertex 0.010249 0.000428 0.000000
vertex 0.010187 0.000411 0.000000
vertex 0.010125 0.000396 0.000000
endloop
endfacet
facet normal 0.000000 0.000000 -1.000000
outer loop
vertex 0.010420 0.000492 0.000000
vertex 0.010310 0.000448 0.000000
vertex 0.010249 0.000428 0.000000
endloop
endfacet
facet normal 0.000000 0.000000 -1.000000
outer loop
vertex 0.010543 0.000564 0.000000
vertex 0.010510 0.000540 0.000000
vertex 0.010420 0.000492 0.000000
endloop
endfacet
facet normal 0.000000 0.000000 -1.000000
outer loop
vertex 0.010584 0.000617 0.000000
vertex 0.010567 0.000590 0.000000
vertex 0.010543 0.000564 0.000000
endloop
endfacet
facet normal 0.000000 0.000000 -1.000000
outer loop
vertex 0.010596 0.000679 0.000000
vertex 0.010593 0.000647 0.000000
vertex 0.010584 0.000617 0.000000
endloop
endfacet
facet normal 0.000000 0.000000 -1.000000
outer loop
vertex 0.010582 0.000757 0.000000
vertex 0.010592 0.000716 0.000000
vertex 0.010596 0.000679 0.000000
endloop
endfacet
facet normal 0.000000 0.000000 -1.000000
outer loop
vertex 0.010401 0.001186 0.000000
vertex 0.010435 0.001120 0.000000
vertex 0.010582 0.000757 0.000000
endloop
endfacet
facet normal 0.000000 0.000000 -1.000000
outer loop
vertex 0.009762 0.001933 0.000000
vertex 0.010324 0.001306 0.000000
vertex 0.010401 0.001186 0.000000
endloop
endfacet
facet normal 0.000000 0.000000 -1.000000
outer loop
vertex 0.009514 0.002125 0.000000
vertex 0.009681 0.002006 0.000000
vertex 0.009762 0.001933 0.000000
endloop
endfacet
facet normal 0.000000 0.000000 -1.000000
outer loop
vertex 0.008786 0.002490 0.000000
vertex 0.009422 0.002177 0.000000
vertex 0.009514 0.002125 0.000000
endloop
endfacet
facet normal 0.000000 0.000000 -1.000000
outer loop
vertex 0.008786 0.002490 0.000000
vertex 0.009514 0.002125 0.000000
vertex 0.009762 0.001933 0.000000
endloop
endfacet
facet normal 0.000000 0.000000 -1.000000
outer loop
vertex 0.009762 0.001933 0.000000
vertex 0.010401 0.001186 0.000000
vertex 0.010582 0.000757 0.000000
endloop
endfacet
facet normal 0.000000 0.000000 -1.000000
outer loop
vertex 0.010582 0.000757 0.000000
vertex 0.010596 0.000679 0.000000
vertex 0.010584 0.000617 0.000000
endloop
endfacet
facet normal 0.000000 0.000000 -1.000000
outer loop
vertex 0.010584 0.000617 0.000000
vertex 0.010543 0.000564 0.000000
vertex 0.010420 0.000492 0.000000
endloop
endfacet
facet normal 0.000000 0.000000 -1.000000
outer loop
vertex 0.010420 0.000492 0.000000
vertex 0.010249 0.000428 0.000000
vertex 0.010125 0.000396 0.000000
endloop
endfacet
facet normal 0.000000 0.000000 -1.000000
outer loop
vertex 0.010125 0.000396 0.000000
vertex 0.009946 0.000370 0.000000
vertex 0.009708 0.000394 0.000000
endloop
endfacet
facet normal 0.000000 0.000000 -1.000000
outer loop
vertex 0.009708 0.000394 0.000000
vertex 0.000629 0.003349 0.000000
vertex 0.000624 0.003410 0.000000
endloop
endfacet
facet normal 0.000000 0.000000 -1.000000
outer loop
vertex 0.009708 0.000394 0.000000
vertex 0.000624 0.003410 0.000000
vertex 0.000617 0.003473 0.000000
endloop
endfacet
facet normal 0.000000 0.000000 -1.000000
outer loop
vertex 0.010420 0.000492 0.000000
vertex 0.010125 0.000396 0.000000
vertex 0.009708 0.000394 0.000000
endloop
endfacet
facet normal 0.000000 0.000000 -1.000000
outer loop
vertex 0.010582 0.000757 0.000000
vertex 0.010584 0.000617 0.000000
vertex 0.010420 0.000492 0.000000
endloop
endfacet
facet normal 0.000000 0.000000 -1.000000
outer loop
vertex 0.008786 0.002490 0.000000
vertex 0.009762 0.001933 0.000000
vertex 0.010582 0.000757 0.000000
endloop
endfacet
facet normal 0.000000 0.000000 -1.000000
outer loop
vertex 0.008606 0.002585 0.000000
vertex 0.008786 0.002490 0.000000
vertex 0.010582 0.000757 0.000000
endloop
endfacet
facet normal 0.000000 0.000000 -1.000000
outer loop
vertex 0.010582 0.000757 0.000000
vertex 0.010420 0.000492 0.000000
vertex 0.009708 0.000394 0.000000
endloop
endfacet
facet normal 0.000000 0.000000 -1.000000
outer loop
vertex 0.009708 0.000394 0.000000
vertex 0.000617 0.003473 0.000000
vertex 0.000598 0.003607 0.000000
endloop
endfacet
facet normal 0.000000 0.000000 -1.000000
outer loop
vertex 0.009708 0.000394 0.000000
vertex 0.000598 0.003607 0.000000
vertex 0.000586 0.003680 0.000000
endloop
endfacet
facet normal 0.000000 0.000000 -1.000000
outer loop
vertex 0.008606 0.002585 0.000000
vertex 0.010582 0.000757 0.000000
vertex 0.009708 0.000394 0.000000
endloop
endfacet
facet normal 0.000000 0.000000 -1.000000
outer loop
vertex 0.008403 0.002698 0.000000
vertex 0.008606 0.002585 0.000000
vertex 0.009708 0.000394 0.000000
endloop
endfacet
facet normal 0.000000 0.000000 -1.000000
outer loop
vertex 0.009708 0.000394 0.000000
vertex 0.000586 0.003680 0.000000
vertex 0.000572 0.003757 0.000000
endloop
endfacet
facet normal 0.000000 0.000000 -1.000000
outer loop
vertex 0.000555 0.003839 0.000000
vertex 0.000516 0.004010 0.000000
vertex 0.000455 0.004297 0.000000
endloop
endfacet
facet normal 0.000000 0.000000 -1.000000
outer loop
vertex 0.009708 0.000394 0.000000
vertex 0.000572 0.003757 0.000000
vertex 0.000555 0.003839 0.000000
endloop
endfacet
facet normal 0.000000 0.000000 -1.000000
outer loop
vertex 0.008206 0.002814 0.000000
vertex 0.008403 0.002698 0.000000
vertex 0.009708 0.000394 0.000000
endloop
endfacet
facet normal 0.000000 0.000000 -1.000000
outer loop
vertex 0.004193 0.006252 0.000000
vertex 0.004654 0.005945 0.000000
vertex 0.007897 0.003014 0.000000
endloop
endfacet
facet normal 0.000000 0.000000 -1.000000
outer loop
vertex 0.007897 0.003014 0.000000
vertex 0.008206 0.002814 0.000000
vertex 0.009708 0.000394 0.000000
endloop
endfacet
facet normal 0.000000 0.000000 -1.000000
outer loop
vertex 0.009708 0.000394 0.000000
vertex 0.000555 0.003839 0.000000
vertex 0.000455 0.004297 0.000000
endloop
endfacet
facet normal 0.000000 0.000000 -1.000000
outer loop
vertex 0.009708 0.000394 0.000000
vertex 0.000455 0.004297 0.000000
vertex 0.000440 0.004363 0.000000
endloop
endfacet
facet normal 0.000000 0.000000 -1.000000
outer loop
vertex 0.004193 0.006252 0.000000
vertex 0.007897 0.003014 0.000000
vertex 0.009708 0.000394 0.000000
endloop
endfacet
facet normal 0.000000 0.000000 -1.000000
outer loop
vertex 0.003466 0.006614 0.000000
vertex 0.003706 0.006506 0.000000
vertex 0.004193 0.006252 0.000000
endloop
endfacet
facet normal 0.000000 0.000000 -1.000000
outer loop
vertex 0.002506 0.006992 0.000000
vertex 0.003235 0.006711 0.000000
vertex 0.003466 0.006614 0.000000
endloop
endfacet
facet normal 0.000000 0.000000 -1.000000
outer loop
vertex 0.001676 0.006971 0.000000
vertex 0.002399 0.007038 0.000000
vertex 0.002506 0.006992 0.000000
endloop
endfacet
facet normal 0.000000 0.000000 -1.000000
outer loop
vertex 0.001018 0.006878 0.000000
vertex 0.001072 0.006888 0.000000
vertex 0.001527 0.006946 0.000000
endloop
endfacet
facet normal 0.000000 0.000000 -1.000000
outer loop
vertex 0.001527 0.006946 0.000000
vertex 0.001676 0.006971 0.000000
vertex 0.002506 0.006992 0.000000
endloop
endfacet
facet normal 0.000000 0.000000 -1.000000
outer loop
vertex 0.002506 0.006992 0.000000
vertex 0.003466 0.006614 0.000000
vertex 0.004193 0.006252 0.000000
endloop
endfacet
facet normal 0.000000 0.000000 -1.000000
outer loop
vertex 0.004193 0.006252 0.000000
vertex 0.009708 0.000394 0.000000
vertex 0.000440 0.004363 0.000000
endloop
endfacet
facet normal 0.000000 0.000000 -1.000000
outer loop
vertex 0.004193 0.006252 0.000000
vertex 0.000440 0.004363 0.000000
vertex 0.000423 0.004429 0.000000
endloop
endfacet
facet normal 0.000000 0.000000 -1.000000
outer loop
vertex 0.001527 0.006946 0.000000
vertex 0.002506 0.006992 0.000000
vertex 0.004193 0.006252 0.000000
endloop
endfacet
facet normal 0.000000 0.000000 -1.000000
outer loop
vertex 0.000912 0.006853 0.000000
vertex 0.001018 0.006878 0.000000
vertex 0.001527 0.006946 0.000000
endloop
endfacet
facet normal 0.000000 0.000000 -1.000000
outer loop
vertex 0.000805 0.006821 0.000000
vertex 0.000859 0.006838 0.000000
vertex 0.000912 0.006853 0.000000
endloop
endfacet
facet normal 0.000000 0.000000 -1.000000
outer loop
vertex 0.000698 0.006780 0.000000
vertex 0.000752 0.006802 0.000000
vertex 0.000805 0.006821 0.000000
endloop
endfacet
facet normal 0.000000 0.000000 -1.000000
outer loop
vertex 0.000374 0.006612 0.000000
vertex 0.000474 0.006674 0.000000
vertex 0.000698 0.006780 0.000000
endloop
endfacet
facet normal 0.000000 0.000000 -1.000000
outer loop
vertex 0.000301 0.006546 0.000000
vertex 0.000335 0.006580 0.000000
vertex 0.000374 0.006612 0.000000
endloop
endfacet
facet normal 0.000000 0.000000 -1.000000
outer loop
vertex 0.000221 0.006433 0.000000
vertex 0.000245 0.006473 0.000000
vertex 0.000301 0.006546 0.000000
endloop
endfacet
facet normal 0.000000 0.000000 -1.000000
outer loop
vertex 0.000121 0.006239 0.000000
vertex 0.000198 0.006390 0.000000
vertex 0.000221 0.006433 0.000000
endloop
endfacet
facet normal 0.000000 0.000000 -1.000000
outer loop
vertex 0.000059 0.006121 0.000000
vertex 0.000089 0.006180 0.000000
vertex 0.000121 0.006239 0.000000
endloop
endfacet
facet normal 0.000000 0.000000 -1.000000
outer loop
vertex 0.000019 0.006019 0.000000
vertex 0.000035 0.006068 0.000000
vertex 0.000059 0.006121 0.000000
endloop
endfacet
facet normal 0.000000 0.000000 -1.000000
outer loop
vertex 0.000002 0.005930 0.000000
vertex 0.000008 0.005973 0.000000
vertex 0.000019 0.006019 0.000000
endloop
endfacet
facet normal 0.000000 0.000000 -1.000000
outer loop
vertex 0.000006 0.005803 0.000000
vertex 0.000002 0.005845 0.000000
vertex 0.000002 0.005930 0.000000
endloop
endfacet
facet normal 0.000000 0.000000 -1.000000
outer loop
vertex 0.000051 0.005493 0.000000
vertex 0.000042 0.005548 0.000000
vertex 0.000027 0.005661 0.000000
endloop
endfacet
facet normal 0.000000 0.000000 -1.000000
outer loop
vertex 0.000027 0.005661 0.000000
vertex 0.000006 0.005803 0.000000
vertex 0.000002 0.005930 0.000000
endloop
endfacet
facet normal 0.000000 0.000000 -1.000000
outer loop
vertex 0.000002 0.005930 0.000000
vertex 0.000019 0.006019 0.000000
vertex 0.000059 0.006121 0.000000
endloop
endfacet
facet normal 0.000000 0.000000 -1.000000
outer loop
vertex 0.000121 0.006239 0.000000
vertex 0.000221 0.006433 0.000000
vertex 0.000301 0.006546 0.000000
endloop
endfacet
facet normal 0.000000 0.000000 -1.000000
outer loop
vertex 0.000002 0.005930 0.000000
vertex 0.000059 0.006121 0.000000
vertex 0.000121 0.006239 0.000000
endloop
endfacet
facet normal 0.000000 0.000000 -1.000000
outer loop
vertex 0.000051 0.005493 0.000000
vertex 0.000027 0.005661 0.000000
vertex 0.000002 0.005930 0.000000
endloop
endfacet
facet normal 0.000000 0.000000 -1.000000
outer loop
vertex 0.000106 0.005271 0.000000
vertex 0.000089 0.005329 0.000000
vertex 0.000051 0.005493 0.000000
endloop
endfacet
facet normal 0.000000 0.000000 -1.000000
outer loop
vertex 0.000150 0.005145 0.000000
vertex 0.000127 0.005210 0.000000
vertex 0.000106 0.005271 0.000000
endloop
endfacet
facet normal 0.000000 0.000000 -1.000000
outer loop
vertex 0.000208 0.004998 0.000000
vertex 0.000177 0.005075 0.000000
vertex 0.000150 0.005145 0.000000
endloop
endfacet
facet normal 0.000000 0.000000 -1.000000
outer loop
vertex 0.000320 0.004731 0.000000
vertex 0.000208 0.004998 0.000000
vertex 0.000150 0.005145 0.000000
endloop
endfacet
facet normal 0.000000 0.000000 -1.000000
outer loop
vertex 0.000150 0.005145 0.000000
vertex 0.000106 0.005271 0.000000
vertex 0.000051 0.005493 0.000000
endloop
endfacet
facet normal 0.000000 0.000000 -1.000000
outer loop
vertex 0.000051 0.005493 0.000000
vertex 0.000002 0.005930 0.000000
vertex 0.000121 0.006239 0.000000
endloop
endfacet
facet normal 0.000000 0.000000 -1.000000
outer loop
vertex 0.000121 0.006239 0.000000
vertex 0.000301 0.006546 0.000000
vertex 0.000374 0.006612 0.000000
endloop
endfacet
facet normal 0.000000 0.000000 -1.000000
outer loop
vertex 0.000374 0.006612 0.000000
vertex 0.000698 0.006780 0.000000
vertex 0.000805 0.006821 0.000000
endloop
endfacet
facet normal 0.000000 0.000000 -1.000000
outer loop
vertex 0.000805 0.006821 0.000000
vertex 0.000912 0.006853 0.000000
vertex 0.001527 0.006946 0.000000
endloop
endfacet
facet normal 0.000000 0.000000 -1.000000
outer loop
vertex 0.001527 0.006946 0.000000
vertex 0.004193 0.006252 0.000000
vertex 0.000423 0.004429 0.000000
endloop
endfacet
facet normal 0.000000 0.000000 -1.000000
outer loop
vertex 0.001527 0.006946 0.000000
vertex 0.000423 0.004429 0.000000
vertex 0.000403 0.004498 0.000000
endloop
endfacet
facet normal 0.000000 0.000000 -1.000000
outer loop
vertex 0.000374 0.006612 0.000000
vertex 0.000805 0.006821 0.000000
vertex 0.001527 0.006946 0.000000
endloop
endfacet
facet normal 0.000000 0.000000 -1.000000
outer loop
vertex 0.000051 0.005493 0.000000
vertex 0.000121 0.006239 0.000000
vertex 0.000374 0.006612 0.000000
endloop
endfacet
facet normal 0.000000 0.000000 -1.000000
outer loop
vertex 0.000320 0.004731 0.000000
vertex 0.000150 0.005145 0.000000
vertex 0.000051 0.005493 0.000000
endloop
endfacet
facet normal 0.000000 0.000000 -1.000000
outer loop
vertex 0.000352 0.004647 0.000000
vertex 0.000320 0.004731 0.000000
vertex 0.000051 0.005493 0.000000
endloop
endfacet
facet normal 0.000000 0.000000 -1.000000
outer loop
vertex 0.000051 0.005493 0.000000
vertex 0.000374 0.006612 0.000000
vertex 0.001527 0.006946 0.000000
endloop
endfacet
facet normal 0.000000 0.000000 -1.000000
outer loop
vertex 0.001527 0.006946 0.000000
vertex 0.000403 0.004498 0.000000
vertex 0.000380 0.004570 0.000000
endloop
endfacet
facet normal 0.000000 0.000000 -1.000000
outer loop
vertex 0.000352 0.004647 0.000000
vertex 0.000051 0.005493 0.000000
vertex 0.001527 0.006946 0.000000
endloop
endfacet
facet normal 0.000000 0.000000 -1.000000
outer loop
vertex 0.000380 0.004570 0.000000
vertex 0.000352 0.004647 0.000000
vertex 0.001527 0.006946 0.000000
endloop
endfacet
facet normal -0.990559 0.137091 0.000000
outer loop
vertex 0.000008 0.005973 0.150000
vertex 0.000008 0.005973 0.000000
vertex 0.000002 0.005930 0.000000
endloop
endfacet
facet normal -0.990559 0.137091 0.000000
outer loop
vertex 0.000008 0.005973 0.150000
vertex 0.000002 0.005930 0.000000
vertex 0.000002 0.005930 0.150000
endloop
endfacet
facet normal -0.427944 0.903805 0.000000
outer loop
vertex 0.000698 0.006780 0.000000
vertex 0.000474 0.006674 0.000000
vertex 0.000474 0.006674 0.150000
endloop
endfacet
facet normal -0.427944 0.903805 0.000000
outer loop
vertex 0.000698 0.006780 0.000000
vertex 0.000474 0.006674 0.150000
vertex 0.000698 0.006780 0.150000
endloop
endfacet
facet normal 0.000000 0.000000 -1.000000
outer loop
vertex 0.001676 0.006971 0.000000
vertex 0.001527 0.006946 0.000000
vertex 0.001072 0.006888 0.000000
endloop
endfacet
facet normal -0.175536 0.984473 0.000000
outer loop
vertex 0.001072 0.006888 0.000000
vertex 0.001018 0.006878 0.000000
vertex 0.001018 0.006878 0.150000
endloop
endfacet
facet normal -0.175535 0.984473 0.000000
outer loop
vertex 0.001072 0.006888 0.000000
vertex 0.001018 0.006878 0.150000
vertex 0.001072 0.006888 0.150000
endloop
endfacet
facet normal -0.091837 0.995774 0.000000
outer loop
vertex 0.002399 0.007038 0.150000
vertex 0.002399 0.007038 0.000000
vertex 0.001676 0.006971 0.000000
endloop
endfacet
facet normal -0.136680 0.990615 0.000000
outer loop
vertex 0.001676 0.006971 0.000000
vertex 0.001072 0.006888 0.000000
vertex 0.001072 0.006888 0.150000
endloop
endfacet
facet normal -0.125949 0.992037 0.000044
outer loop
vertex 0.001676 0.006971 0.000000
vertex 0.001072 0.006888 0.150000
vertex 0.001527 0.006946 0.150000
endloop
endfacet
facet normal -0.091837 0.995774 0.000000
outer loop
vertex 0.001676 0.006971 0.150000
vertex 0.002399 0.007038 0.150000
vertex 0.001676 0.006971 0.000000
endloop
endfacet
facet normal -0.169116 0.985596 0.000000
outer loop
vertex 0.001527 0.006946 0.150000
vertex 0.001676 0.006971 0.150000
vertex 0.001676 0.006971 0.000000
endloop
endfacet
facet normal 0.591203 -0.806523 0.000000
outer loop
vertex 0.010510 0.000540 0.150000
vertex 0.010510 0.000540 0.000000
vertex 0.010543 0.000564 0.000000
endloop
endfacet
facet normal 0.591203 -0.806523 0.000000
outer loop
vertex 0.010510 0.000540 0.150000
vertex 0.010543 0.000564 0.000000
vertex 0.010543 0.000564 0.150000
endloop
endfacet
facet normal 0.505860 0.862616 0.000000
outer loop
vertex 0.008403 0.002698 0.000000
vertex 0.008206 0.002814 0.000000
vertex 0.008206 0.002814 0.150000
endloop
endfacet
facet normal 0.505863 0.862614 0.000000
outer loop
vertex 0.008403 0.002698 0.000000
vertex 0.008206 0.002814 0.150000
vertex 0.008403 0.002698 0.150000
endloop
endfacet
facet normal 0.487041 0.873379 0.000000
outer loop
vertex 0.008606 0.002585 0.000000
vertex 0.008403 0.002698 0.000000
vertex 0.008403 0.002698 0.150000
endloop
endfacet
facet normal 0.487038 0.873381 0.000000
outer loop
vertex 0.008606 0.002585 0.000000
vertex 0.008403 0.002698 0.150000
vertex 0.008606 0.002585 0.150000
endloop
endfacet
facet normal 0.467420 0.884035 0.000000
outer loop
vertex 0.008786 0.002490 0.000000
vertex 0.008606 0.002585 0.000000
vertex 0.008606 0.002585 0.150000
endloop
endfacet
facet normal 0.467420 0.884035 0.000000
outer loop
vertex 0.008786 0.002490 0.000000
vertex 0.008606 0.002585 0.150000
vertex 0.008786 0.002490 0.150000
endloop
endfacet
facet normal 0.493791 0.869581 0.000000
outer loop
vertex 0.009514 0.002125 0.150000
vertex 0.009514 0.002125 0.000000
vertex 0.009422 0.002177 0.000000
endloop
endfacet
facet normal 0.441441 0.897290 0.000000
outer loop
vertex 0.009422 0.002177 0.000000
vertex 0.008786 0.002490 0.000000
vertex 0.008786 0.002490 0.150000
endloop
endfacet
facet normal 0.493791 0.869581 0.000000
outer loop
vertex 0.009422 0.002177 0.150000
vertex 0.009514 0.002125 0.150000
vertex 0.009422 0.002177 0.000000
endloop
endfacet
facet normal 0.441442 0.897290 0.000000
outer loop
vertex 0.008786 0.002490 0.150000
vertex 0.009422 0.002177 0.150000
vertex 0.009422 0.002177 0.000000
endloop
endfacet
facet normal 0.000000 0.000000 1.000000
outer loop
vertex 0.010324 0.001306 0.150000
vertex 0.009762 0.001933 0.150000
vertex 0.009681 0.002006 0.150000
endloop
endfacet
facet normal 0.000838 0.000000 1.000000
outer loop
vertex 0.009681 0.002006 0.150000
vertex 0.009514 0.002125 0.150000
vertex 0.009422 0.002177 0.150000
endloop
endfacet
facet normal -0.000264 0.000000 1.000000
outer loop
vertex 0.009681 0.002006 0.150000
vertex 0.009422 0.002177 0.150000
vertex 0.008786 0.002490 0.150000
endloop
endfacet
facet normal 0.000000 0.000000 1.000000
outer loop
vertex 0.010401 0.001186 0.150000
vertex 0.010324 0.001306 0.150000
vertex 0.009681 0.002006 0.150000
endloop
endfacet
facet normal 0.002006 0.000000 0.999998
outer loop
vertex 0.010582 0.000757 0.150000
vertex 0.010435 0.001120 0.150000
vertex 0.010401 0.001186 0.150000
endloop
endfacet
facet normal 0.004744 0.000000 0.999989
outer loop
vertex 0.010596 0.000679 0.150000
vertex 0.010592 0.000716 0.150000
vertex 0.010582 0.000757 0.150000
endloop
endfacet
facet normal 0.000000 0.000000 1.000000
outer loop
vertex 0.010584 0.000617 0.150000
vertex 0.010593 0.000647 0.150000
vertex 0.010596 0.000679 0.150000
endloop
endfacet
facet normal -0.003667 0.000000 0.999993
outer loop
vertex 0.010543 0.000564 0.150000
vertex 0.010567 0.000590 0.150000
vertex 0.010584 0.000617 0.150000
endloop
endfacet
facet normal -0.000763 0.000000 1.000000
outer loop
vertex 0.010420 0.000492 0.150000
vertex 0.010510 0.000540 0.150000
vertex 0.010543 0.000564 0.150000
endloop
endfacet
facet normal 0.000000 0.000000 1.000000
outer loop
vertex 0.010249 0.000428 0.150000
vertex 0.010310 0.000448 0.150000
vertex 0.010420 0.000492 0.150000
endloop
endfacet
facet normal 0.000000 0.000000 1.000000
outer loop
vertex 0.010125 0.000396 0.150000
vertex 0.010187 0.000411 0.150000
vertex 0.010249 0.000428 0.150000
endloop
endfacet
facet normal 0.000390 0.000000 1.000000
outer loop
vertex 0.009946 0.000370 0.150000
vertex 0.010063 0.000384 0.150000
vertex 0.010125 0.000396 0.150000
endloop
endfacet
facet normal -0.000286 0.000000 1.000000
outer loop
vertex 0.009846 0.000374 0.150000
vertex 0.009893 0.000370 0.150000
vertex 0.009946 0.000370 0.150000
endloop
endfacet
facet normal 0.000000 0.000000 1.000000
outer loop
vertex 0.009708 0.000394 0.150000
vertex 0.009846 0.000374 0.150000
vertex 0.009946 0.000370 0.150000
endloop
endfacet
facet normal -0.000339 0.000000 1.000000
outer loop
vertex 0.009946 0.000370 0.150000
vertex 0.010125 0.000396 0.150000
vertex 0.010249 0.000428 0.150000
endloop
endfacet
facet normal 0.000410 0.000000 1.000000
outer loop
vertex 0.010249 0.000428 0.150000
vertex 0.010420 0.000492 0.150000
vertex 0.010543 0.000564 0.150000
endloop
endfacet
facet normal 0.000924 0.000000 1.000000
outer loop
vertex 0.010543 0.000564 0.150000
vertex 0.010584 0.000617 0.150000
vertex 0.010596 0.000679 0.150000
endloop
endfacet
facet normal -0.001796 0.000000 0.999998
outer loop
vertex 0.010596 0.000679 0.150000
vertex 0.010582 0.000757 0.150000
vertex 0.010401 0.001186 0.150000
endloop
endfacet
facet normal 0.000038 0.000000 1.000000
outer loop
vertex 0.010401 0.001186 0.150000
vertex 0.009681 0.002006 0.150000
vertex 0.008786 0.002490 0.150000
endloop
endfacet
facet normal -0.000157 0.000000 1.000000
outer loop
vertex 0.010401 0.001186 0.150000
vertex 0.008786 0.002490 0.150000
vertex 0.008606 0.002585 0.150000
endloop
endfacet
facet normal 0.000000 0.000000 1.000000
outer loop
vertex 0.010543 0.000564 0.150000
vertex 0.010596 0.000679 0.150000
vertex 0.010401 0.001186 0.150000
endloop
endfacet
facet normal 0.000000 0.000000 1.000000
outer loop
vertex 0.009946 0.000370 0.150000
vertex 0.010249 0.000428 0.150000
vertex 0.010543 0.000564 0.150000
endloop
endfacet
facet normal -0.000170 0.000000 1.000000
outer loop
vertex 0.008956 0.000492 0.150000
vertex 0.009708 0.000394 0.150000
vertex 0.009946 0.000370 0.150000
endloop
endfacet
facet normal 0.000000 0.000000 1.000000
outer loop
vertex 0.008956 0.000492 0.150000
vertex 0.009946 0.000370 0.150000
vertex 0.010543 0.000564 0.150000
endloop
endfacet
facet normal -0.000032 0.000000 1.000000
outer loop
vertex 0.010543 0.000564 0.150000
vertex 0.010401 0.001186 0.150000
vertex 0.008606 0.002585 0.150000
endloop
endfacet
facet normal -0.000076 0.000000 1.000000
outer loop
vertex 0.010543 0.000564 0.150000
vertex 0.008606 0.002585 0.150000
vertex 0.008403 0.002698 0.150000
endloop
endfacet
facet normal 0.000000 0.000000 1.000000
outer loop
vertex 0.008596 0.000533 0.150000
vertex 0.008956 0.000492 0.150000
vertex 0.010543 0.000564 0.150000
endloop
endfacet
facet normal -0.000047 0.000000 1.000000
outer loop
vertex 0.008507 0.000542 0.150000
vertex 0.008596 0.000533 0.150000
vertex 0.010543 0.000564 0.150000
endloop
endfacet
facet normal 0.000126 0.000000 1.000000
outer loop
vertex 0.010543 0.000564 0.150000
vertex 0.008403 0.002698 0.150000
vertex 0.008206 0.002814 0.150000
endloop
endfacet
facet normal 0.000082 0.000000 1.000000
outer loop
vertex 0.007897 0.003014 0.150000
vertex 0.004654 0.005945 0.150000
vertex 0.004193 0.006252 0.150000
endloop
endfacet
facet normal 0.000048 0.000000 1.000000
outer loop
vertex 0.010543 0.000564 0.150000
vertex 0.008206 0.002814 0.150000
vertex 0.007897 0.003014 0.150000
endloop
endfacet
facet normal 0.000038 0.000000 1.000000
outer loop
vertex 0.008406 0.000546 0.150000
vertex 0.008507 0.000542 0.150000
vertex 0.010543 0.000564 0.150000
endloop
endfacet
facet normal -0.000114 0.000000 1.000000
outer loop
vertex 0.008267 0.000547 0.150000
vertex 0.008406 0.000546 0.150000
vertex 0.010543 0.000564 0.150000
endloop
endfacet
facet normal 0.000000 0.000000 1.000000
outer loop
vertex 0.010543 0.000564 0.150000
vertex 0.007897 0.003014 0.150000
vertex 0.004193 0.006252 0.150000
endloop
endfacet
facet normal -0.000443 0.000000 1.000000
outer loop
vertex 0.004193 0.006252 0.150000
vertex 0.003706 0.006506 0.150000
vertex 0.003466 0.006614 0.150000
endloop
endfacet
facet normal 0.000000 0.000000 1.000000
outer loop
vertex 0.003466 0.006614 0.150000
vertex 0.003235 0.006711 0.150000
vertex 0.002506 0.006992 0.150000
endloop
endfacet
facet normal 0.000000 0.000000 1.000000
outer loop
vertex 0.002506 0.006992 0.150000
vertex 0.002399 0.007038 0.150000
vertex 0.001676 0.006971 0.150000
endloop
endfacet
facet normal 0.000723 0.000000 1.000000
outer loop
vertex 0.001527 0.006946 0.150000
vertex 0.001072 0.006888 0.150000
vertex 0.001018 0.006878 0.150000
endloop
endfacet
facet normal 0.000000 0.000000 1.000000
outer loop
vertex 0.002506 0.006992 0.150000
vertex 0.001676 0.006971 0.150000
vertex 0.001527 0.006946 0.150000
endloop
endfacet
facet normal 0.000100 0.000000 1.000000
outer loop
vertex 0.004193 0.006252 0.150000
vertex 0.003466 0.006614 0.150000
vertex 0.002506 0.006992 0.150000
endloop
endfacet
facet normal -0.000009 0.000000 1.000000
outer loop
vertex 0.008267 0.000547 0.150000
vertex 0.010543 0.000564 0.150000
vertex 0.004193 0.006252 0.150000
endloop
endfacet
facet normal 0.000000 0.000000 1.000000
outer loop
vertex 0.003148 0.000007 0.150000
vertex 0.003462 0.000030 0.150000
vertex 0.006886 0.000478 0.150000
endloop
endfacet
facet normal 0.000000 0.000000 1.000000
outer loop
vertex 0.006886 0.000478 0.150000
vertex 0.008267 0.000547 0.150000
vertex 0.004193 0.006252 0.150000
endloop
endfacet
facet normal 0.000001 0.000000 1.000000
outer loop
vertex 0.004193 0.006252 0.150000
vertex 0.002506 0.006992 0.150000
vertex 0.001527 0.006946 0.150000
endloop
endfacet
facet normal -0.000250 0.000000 1.000000
outer loop
vertex 0.001527 0.006946 0.150000
vertex 0.001018 0.006878 0.150000
vertex 0.000912 0.006853 0.150000
endloop
endfacet
facet normal 0.000000 0.000000 1.000000
outer loop
vertex 0.000912 0.006853 0.150000
vertex 0.000859 0.006838 0.150000
vertex 0.000805 0.006821 0.150000
endloop
endfacet
facet normal 0.000000 0.000000 1.000000
outer loop
vertex 0.000805 0.006821 0.150000
vertex 0.000752 0.006802 0.150000
vertex 0.000698 0.006780 0.150000
endloop
endfacet
facet normal 0.000000 0.000000 1.000000
outer loop
vertex 0.000698 0.006780 0.150000
vertex 0.000474 0.006674 0.150000
vertex 0.000374 0.006612 0.150000
endloop
endfacet
facet normal 0.003953 0.000000 0.999992
outer loop
vertex 0.000374 0.006612 0.150000
vertex 0.000335 0.006580 0.150000
vertex 0.000301 0.006546 0.150000
endloop
endfacet
facet normal 0.001964 0.000000 0.999998
outer loop
vertex 0.000301 0.006546 0.150000
vertex 0.000245 0.006473 0.150000
vertex 0.000221 0.006433 0.150000
endloop
endfacet
facet normal 0.000000 0.000000 1.000000
outer loop
vertex 0.000221 0.006433 0.150000
vertex 0.000198 0.006390 0.150000
vertex 0.000121 0.006239 0.150000
endloop
endfacet
facet normal 0.024580 0.000000 0.999698
outer loop
vertex 0.000121 0.006239 0.150000
vertex 0.000089 0.006180 0.150000
vertex 0.000059 0.006121 0.150000
endloop
endfacet
facet normal -0.003699 0.000000 0.999993
outer loop
vertex 0.000059 0.006121 0.150000
vertex 0.000035 0.006068 0.150000
vertex 0.000019 0.006019 0.150000
endloop
endfacet
facet normal 0.000000 0.000000 1.000000
outer loop
vertex 0.000019 0.006019 0.150000
vertex 0.000008 0.005973 0.150000
vertex 0.000002 0.005930 0.150000
endloop
endfacet
facet normal -0.002470 0.000000 0.999997
outer loop
vertex 0.000002 0.005930 0.150000
vertex 0.000002 0.005845 0.150000
vertex 0.000006 0.005803 0.150000
endloop
endfacet
facet normal 0.000000 0.000000 1.000000
outer loop
vertex 0.000027 0.005661 0.150000
vertex 0.000042 0.005548 0.150000
vertex 0.000051 0.005493 0.150000
endloop
endfacet
facet normal 0.000000 0.000000 1.000000
outer loop
vertex 0.000002 0.005930 0.150000
vertex 0.000006 0.005803 0.150000
vertex 0.000027 0.005661 0.150000
endloop
endfacet
facet normal 0.001003 0.000000 1.000000
outer loop
vertex 0.000059 0.006121 0.150000
vertex 0.000019 0.006019 0.150000
vertex 0.000002 0.005930 0.150000
endloop
endfacet
facet normal -0.000875 0.000000 1.000000
outer loop
vertex 0.000301 0.006546 0.150000
vertex 0.000221 0.006433 0.150000
vertex 0.000121 0.006239 0.150000
endloop
endfacet
facet normal -0.000694 0.000000 1.000000
outer loop
vertex 0.000121 0.006239 0.150000
vertex 0.000059 0.006121 0.150000
vertex 0.000002 0.005930 0.150000
endloop
endfacet
facet normal 0.000000 0.000000 1.000000
outer loop
vertex 0.000002 0.005930 0.150000
vertex 0.000027 0.005661 0.150000
vertex 0.000051 0.005493 0.150000
endloop
endfacet
facet normal 0.002711 0.000000 0.999996
outer loop
vertex 0.000051 0.005493 0.150000
vertex 0.000089 0.005329 0.150000
vertex 0.000106 0.005271 0.150000
endloop
endfacet
facet normal 0.000000 0.000000 1.000000
outer loop
vertex 0.000106 0.005271 0.150000
vertex 0.000127 0.005210 0.150000
vertex 0.000150 0.005145 0.150000
endloop
endfacet
facet normal 0.000000 0.000000 1.000000
outer loop
vertex 0.000150 0.005145 0.150000
vertex 0.000177 0.005075 0.150000
vertex 0.000208 0.004998 0.150000
endloop
endfacet
facet normal -0.007245 0.000000 0.999974
outer loop
vertex 0.000150 0.005145 0.150000
vertex 0.000208 0.004998 0.150000
vertex 0.000320 0.004731 0.150000
endloop
endfacet
facet normal -0.001331 0.000000 0.999999
outer loop
vertex 0.000051 0.005493 0.150000
vertex 0.000106 0.005271 0.150000
vertex 0.000150 0.005145 0.150000
endloop
endfacet
facet normal 0.000000 0.000000 1.000000
outer loop
vertex 0.000121 0.006239 0.150000
vertex 0.000002 0.005930 0.150000
vertex 0.000051 0.005493 0.150000
endloop
endfacet
facet normal 0.000000 0.000000 1.000000
outer loop
vertex 0.000374 0.006612 0.150000
vertex 0.000301 0.006546 0.150000
vertex 0.000121 0.006239 0.150000
endloop
endfacet
facet normal 0.000000 0.000000 1.000000
outer loop
vertex 0.000805 0.006821 0.150000
vertex 0.000698 0.006780 0.150000
vertex 0.000374 0.006612 0.150000
endloop
endfacet
facet normal 0.000089 0.000000 1.000000
outer loop
vertex 0.001527 0.006946 0.150000
vertex 0.000912 0.006853 0.150000
vertex 0.000805 0.006821 0.150000
endloop
endfacet
facet normal 0.000004 0.000000 1.000000
outer loop
vertex 0.006886 0.000478 0.150000
vertex 0.004193 0.006252 0.150000
vertex 0.001527 0.006946 0.150000
endloop
endfacet
facet normal 0.000000 0.000000 1.000000
outer loop
vertex 0.002807 0.000000 0.150000
vertex 0.003148 0.000007 0.150000
vertex 0.006886 0.000478 0.150000
endloop
endfacet
facet normal -0.000156 0.000000 1.000000
outer loop
vertex 0.001533 0.000079 0.150000
vertex 0.002624 0.000003 0.150000
vertex 0.002807 0.000000 0.150000
endloop
endfacet
facet normal 0.000000 0.000000 1.000000
outer loop
vertex 0.001020 0.000171 0.150000
vertex 0.001125 0.000143 0.150000
vertex 0.001533 0.000079 0.150000
endloop
endfacet
facet normal 0.000000 0.000000 1.000000
outer loop
vertex 0.000867 0.000240 0.150000
vertex 0.000933 0.000204 0.150000
vertex 0.001020 0.000171 0.150000
endloop
endfacet
facet normal 0.001052 0.000000 0.999999
outer loop
vertex 0.000690 0.000461 0.150000
vertex 0.000821 0.000282 0.150000
vertex 0.000867 0.000240 0.150000
endloop
endfacet
facet normal 0.000000 0.000000 1.000000
outer loop
vertex 0.000482 0.000771 0.150000
vertex 0.000584 0.000612 0.150000
vertex 0.000690 0.000461 0.150000
endloop
endfacet
facet normal 0.000000 0.000000 1.000000
outer loop
vertex 0.000345 0.001044 0.150000
vertex 0.000367 0.000987 0.150000
vertex 0.000482 0.000771 0.150000
endloop
endfacet
facet normal -0.001556 0.000000 0.999999
outer loop
vertex 0.000337 0.001145 0.150000
vertex 0.000336 0.001092 0.150000
vertex 0.000345 0.001044 0.150000
endloop
endfacet
facet normal -0.005338 0.000000 0.999986
outer loop
vertex 0.000362 0.001315 0.150000
vertex 0.000346 0.001222 0.150000
vertex 0.000337 0.001145 0.150000
endloop
endfacet
facet normal -0.002463 0.000000 0.999997
outer loop
vertex 0.000541 0.002077 0.150000
vertex 0.000383 0.001420 0.150000
vertex 0.000362 0.001315 0.150000
endloop
endfacet
facet normal 0.004094 0.000000 0.999992
outer loop
vertex 0.000556 0.002120 0.150000
vertex 0.000541 0.002077 0.150000
vertex 0.000362 0.001315 0.150000
endloop
endfacet
facet normal 0.000908 0.000000 1.000000
outer loop
vertex 0.000362 0.001315 0.150000
vertex 0.000337 0.001145 0.150000
vertex 0.000345 0.001044 0.150000
endloop
endfacet
facet normal 0.000000 0.000000 1.000000
outer loop
vertex 0.000345 0.001044 0.150000
vertex 0.000482 0.000771 0.150000
vertex 0.000690 0.000461 0.150000
endloop
endfacet
facet normal -0.000253 0.000000 1.000000
outer loop
vertex 0.000690 0.000461 0.150000
vertex 0.000867 0.000240 0.150000
vertex 0.001020 0.000171 0.150000
endloop
endfacet
facet normal 0.000024 0.000000 1.000000
outer loop
vertex 0.001020 0.000171 0.150000
vertex 0.001533 0.000079 0.150000
vertex 0.002807 0.000000 0.150000
endloop
endfacet
facet normal 0.000000 0.000000 1.000000
outer loop
vertex 0.002807 0.000000 0.150000
vertex 0.006886 0.000478 0.150000
vertex 0.001527 0.006946 0.150000
endloop
endfacet
facet normal 0.000000 0.000000 1.000000
outer loop
vertex 0.001527 0.006946 0.150000
vertex 0.000805 0.006821 0.150000
vertex 0.000374 0.006612 0.150000
endloop
endfacet
facet normal 0.000000 0.000000 1.000000
outer loop
vertex 0.000374 0.006612 0.150000
vertex 0.000121 0.006239 0.150000
vertex 0.000051 0.005493 0.150000
endloop
endfacet
facet normal 0.000817 0.000000 1.000000
outer loop
vertex 0.000051 0.005493 0.150000
vertex 0.000150 0.005145 0.150000
vertex 0.000320 0.004731 0.150000
endloop
endfacet
facet normal 0.000871 0.000000 1.000000
outer loop
vertex 0.000051 0.005493 0.150000
vertex 0.000320 0.004731 0.150000
vertex 0.000352 0.004647 0.150000
endloop
endfacet
facet normal 0.000000 0.000000 1.000000
outer loop
vertex 0.001527 0.006946 0.150000
vertex 0.000374 0.006612 0.150000
vertex 0.000051 0.005493 0.150000
endloop
endfacet
facet normal 0.000000 0.000000 1.000000
outer loop
vertex 0.001020 0.000171 0.150000
vertex 0.002807 0.000000 0.150000
vertex 0.001527 0.006946 0.150000
endloop
endfacet
facet normal 0.000000 0.000000 1.000000
outer loop
vertex 0.000345 0.001044 0.150000
vertex 0.000690 0.000461 0.150000
vertex 0.001020 0.000171 0.150000
endloop
endfacet
facet normal -0.000186 0.000000 1.000000
outer loop
vertex 0.000556 0.002120 0.150000
vertex 0.000362 0.001315 0.150000
vertex 0.000345 0.001044 0.150000
endloop
endfacet
facet normal 0.000000 0.000000 1.000000
outer loop
vertex 0.000562 0.002144 0.150000
vertex 0.000556 0.002120 0.150000
vertex 0.000345 0.001044 0.150000
endloop
endfacet
facet normal 0.000000 0.000000 1.000000
outer loop
vertex 0.000345 0.001044 0.150000
vertex 0.001020 0.000171 0.150000
vertex 0.001527 0.006946 0.150000
endloop
endfacet
facet normal 0.000000 0.000000 1.000000
outer loop
vertex 0.001527 0.006946 0.150000
vertex 0.000051 0.005493 0.150000
vertex 0.000352 0.004647 0.150000
endloop
endfacet
facet normal 0.000012 0.000000 1.000000
outer loop
vertex 0.001527 0.006946 0.150000
vertex 0.000352 0.004647 0.150000
vertex 0.000380 0.004570 0.150000
endloop
endfacet
facet normal 0.000000 0.000000 1.000000
outer loop
vertex 0.000570 0.002173 0.150000
vertex 0.000562 0.002144 0.150000
vertex 0.000345 0.001044 0.150000
endloop
endfacet
facet normal 0.000000 0.000000 1.000000
outer loop
vertex 0.000578 0.002208 0.150000
vertex 0.000570 0.002173 0.150000
vertex 0.000345 0.001044 0.150000
endloop
endfacet
facet normal 0.000092 0.000000 1.000000
outer loop
vertex 0.001527 0.006946 0.150000
vertex 0.000380 0.004570 0.150000
vertex 0.000403 0.004498 0.150000
endloop
endfacet
facet normal 0.000101 0.000000 1.000000
outer loop
vertex 0.001527 0.006946 0.150000
vertex 0.000403 0.004498 0.150000
vertex 0.000423 0.004429 0.150000
endloop
endfacet
facet normal 0.026808 0.000000 0.999641
outer loop
vertex 0.000578 0.002208 0.150000
vertex 0.000345 0.001044 0.150000
vertex 0.001527 0.006946 0.150000
endloop
endfacet
facet normal 0.069813 0.000000 0.997560
outer loop
vertex 0.000586 0.002249 0.150000
vertex 0.000578 0.002208 0.150000
vertex 0.001527 0.006946 0.150000
endloop
endfacet
facet normal -0.000389 0.000000 1.000000
outer loop
vertex 0.001527 0.006946 0.150000
vertex 0.000423 0.004429 0.150000
vertex 0.000440 0.004363 0.150000
endloop
endfacet
facet normal 0.000000 0.000000 1.000000
outer loop
vertex 0.000455 0.004297 0.150000
vertex 0.000516 0.004010 0.150000
vertex 0.000555 0.003839 0.150000
endloop
endfacet
facet normal 0.000212 0.000000 1.000000
outer loop
vertex 0.001527 0.006946 0.150000
vertex 0.000440 0.004363 0.150000
vertex 0.000455 0.004297 0.150000
endloop
endfacet
facet normal -0.004408 0.000000 0.999990
outer loop
vertex 0.000605 0.002403 0.150000
vertex 0.000586 0.002249 0.150000
vertex 0.001527 0.006946 0.150000
endloop
endfacet
facet normal 0.000337 0.000000 1.000000
outer loop
vertex 0.000633 0.002913 0.150000
vertex 0.000605 0.002403 0.150000
vertex 0.001527 0.006946 0.150000
endloop
endfacet
facet normal 0.000019 0.000000 1.000000
outer loop
vertex 0.001527 0.006946 0.150000
vertex 0.000455 0.004297 0.150000
vertex 0.000555 0.003839 0.150000
endloop
endfacet
facet normal -0.000166 0.000000 1.000000
outer loop
vertex 0.001527 0.006946 0.150000
vertex 0.000555 0.003839 0.150000
vertex 0.000572 0.003757 0.150000
endloop
endfacet
facet normal 0.000000 0.000000 1.000000
outer loop
vertex 0.000637 0.003123 0.150000
vertex 0.000633 0.002913 0.150000
vertex 0.001527 0.006946 0.150000
endloop
endfacet
facet normal 0.000000 0.000000 1.000000
outer loop
vertex 0.000635 0.003234 0.150000
vertex 0.000637 0.003123 0.150000
vertex 0.001527 0.006946 0.150000
endloop
endfacet
facet normal 0.000015 0.000000 1.000000
outer loop
vertex 0.001527 0.006946 0.150000
vertex 0.000572 0.003757 0.150000
vertex 0.000586 0.003680 0.150000
endloop
endfacet
facet normal -0.000201 0.000000 1.000000
outer loop
vertex 0.001527 0.006946 0.150000
vertex 0.000586 0.003680 0.150000
vertex 0.000598 0.003607 0.150000
endloop
endfacet
facet normal 0.000000 0.000000 1.000000
outer loop
vertex 0.000629 0.003349 0.150000
vertex 0.000635 0.003234 0.150000
vertex 0.001527 0.006946 0.150000
endloop
endfacet
facet normal 0.000000 0.000000 1.000000
outer loop
vertex 0.000624 0.003410 0.150000
vertex 0.000629 0.003349 0.150000
vertex 0.001527 0.006946 0.150000
endloop
endfacet
facet normal 0.000388 0.000000 1.000000
outer loop
vertex 0.001527 0.006946 0.150000
vertex 0.000598 0.003607 0.150000
vertex 0.000617 0.003473 0.150000
endloop
endfacet
facet normal -0.000565 0.000000 1.000000
outer loop
vertex 0.001527 0.006946 0.150000
vertex 0.000617 0.003473 0.150000
vertex 0.000624 0.003410 0.150000
endloop
endfacet
facet normal 0.744540 0.667577 0.000000
outer loop
vertex 0.010324 0.001306 0.150000
vertex 0.010324 0.001306 0.000000
vertex 0.009762 0.001933 0.000000
endloop
endfacet
facet normal 0.744540 0.667577 0.000000
outer loop
vertex 0.010324 0.001306 0.150000
vertex 0.009762 0.001933 0.000000
vertex 0.009762 0.001933 0.150000
endloop
endfacet
facet normal -0.155055 -0.987906 0.000000
outer loop
vertex 0.001125 0.000143 0.000000
vertex 0.001533 0.000079 0.000000
vertex 0.001533 0.000079 0.150000
endloop
endfacet
facet normal -0.155055 -0.987906 0.000000
outer loop
vertex 0.001125 0.000143 0.000000
vertex 0.001533 0.000079 0.150000
vertex 0.001125 0.000143 0.150000
endloop
endfacet
facet normal 0.972715 0.232003 0.000000
outer loop
vertex 0.010592 0.000716 0.150000
vertex 0.010592 0.000716 0.000000
vertex 0.010582 0.000757 0.000000
endloop
endfacet
facet normal 0.972715 0.232003 0.000000
outer loop
vertex 0.010592 0.000716 0.150000
vertex 0.010582 0.000757 0.000000
vertex 0.010582 0.000757 0.150000
endloop
endfacet
facet normal -0.091298 -0.995824 0.000000
outer loop
vertex 0.009846 0.000374 0.000000
vertex 0.009893 0.000370 0.000000
vertex 0.009893 0.000370 0.150000
endloop
endfacet
facet normal -0.091295 -0.995824 0.000000
outer loop
vertex 0.009846 0.000374 0.000000
vertex 0.009893 0.000370 0.150000
vertex 0.009846 0.000374 0.150000
endloop
endfacet
facet normal -0.143357 -0.989671 0.000000
outer loop
vertex 0.009708 0.000394 0.000000
vertex 0.009846 0.000374 0.000000
vertex 0.009846 0.000374 0.150000
endloop
endfacet
facet normal -0.143357 -0.989671 0.000000
outer loop
vertex 0.009708 0.000394 0.000000
vertex 0.009846 0.000374 0.150000
vertex 0.009708 0.000394 0.150000
endloop
endfacet
facet normal -0.129269 -0.991610 0.000000
outer loop
vertex 0.008956 0.000492 0.000000
vertex 0.009708 0.000394 0.000000
vertex 0.009708 0.000394 0.150000
endloop
endfacet
facet normal -0.129268 -0.991610 0.000000
outer loop
vertex 0.008956 0.000492 0.000000
vertex 0.009708 0.000394 0.150000
vertex 0.008956 0.000492 0.150000
endloop
endfacet
facet normal -0.095373 -0.995442 0.000000
outer loop
vertex 0.008507 0.000542 0.150000
vertex 0.008507 0.000542 0.000000
vertex 0.008596 0.000533 0.000000
endloop
endfacet
facet normal -0.113606 -0.993526 0.000000
outer loop
vertex 0.008596 0.000533 0.000000
vertex 0.008956 0.000492 0.000000
vertex 0.008956 0.000492 0.150000
endloop
endfacet
facet normal -0.095373 -0.995442 0.000000
outer loop
vertex 0.008596 0.000533 0.150000
vertex 0.008507 0.000542 0.150000
vertex 0.008596 0.000533 0.000000
endloop
endfacet
facet normal -0.113606 -0.993526 0.000000
outer loop
vertex 0.008956 0.000492 0.150000
vertex 0.008596 0.000533 0.150000
vertex 0.008596 0.000533 0.000000
endloop
endfacet
facet normal -0.046905 -0.998899 0.000000
outer loop
vertex 0.008406 0.000546 0.000000
vertex 0.008507 0.000542 0.000000
vertex 0.008507 0.000542 0.150000
endloop
endfacet
facet normal -0.046905 -0.998899 0.000000
outer loop
vertex 0.008406 0.000546 0.000000
vertex 0.008507 0.000542 0.150000
vertex 0.008406 0.000546 0.150000
endloop
endfacet
facet normal -0.005129 -0.999987 0.000000
outer loop
vertex 0.008267 0.000547 0.000000
vertex 0.008406 0.000546 0.000000
vertex 0.008406 0.000546 0.150000
endloop
endfacet
facet normal -0.005129 -0.999987 0.000000
outer loop
vertex 0.008267 0.000547 0.000000
vertex 0.008406 0.000546 0.150000
vertex 0.008267 0.000547 0.150000
endloop
endfacet
facet normal 0.049807 -0.998759 0.000000
outer loop
vertex 0.006886 0.000478 0.000000
vertex 0.008267 0.000547 0.000000
vertex 0.008267 0.000547 0.150000
endloop
endfacet
facet normal 0.049807 -0.998759 0.000000
outer loop
vertex 0.006886 0.000478 0.000000
vertex 0.008267 0.000547 0.150000
vertex 0.006886 0.000478 0.150000
endloop
endfacet
facet normal 0.071042 -0.997473 0.000000
outer loop
vertex 0.003148 0.000007 0.150000
vertex 0.003148 0.000007 0.000000
vertex 0.003462 0.000030 0.000000
endloop
endfacet
facet normal 0.129889 -0.991528 0.000000
outer loop
vertex 0.003462 0.000030 0.000000
vertex 0.006886 0.000478 0.000000
vertex 0.006886 0.000478 0.150000
endloop
endfacet
facet normal 0.071042 -0.997473 0.000000
outer loop
vertex 0.003462 0.000030 0.150000
vertex 0.003148 0.000007 0.150000
vertex 0.003462 0.000030 0.000000
endloop
endfacet
facet normal 0.129889 -0.991529 0.000000
outer loop
vertex 0.006886 0.000478 0.150000
vertex 0.003462 0.000030 0.150000
vertex 0.003462 0.000030 0.000000
endloop
endfacet
facet normal 0.469510 -0.882927 0.000000
outer loop
vertex 0.010420 0.000492 0.150000
vertex 0.010420 0.000492 0.000000
vertex 0.010510 0.000540 0.000000
endloop
endfacet
facet normal 0.469510 -0.882927 0.000000
outer loop
vertex 0.010420 0.000492 0.150000
vertex 0.010510 0.000540 0.000000
vertex 0.010510 0.000540 0.150000
endloop
endfacet
facet normal 0.997531 -0.070234 0.000000
outer loop
vertex 0.010593 0.000647 0.150000
vertex 0.010593 0.000647 0.000000
vertex 0.010596 0.000679 0.000000
endloop
endfacet
facet normal 0.997531 -0.070234 0.000000
outer loop
vertex 0.010593 0.000647 0.150000
vertex 0.010596 0.000679 0.000000
vertex 0.010596 0.000679 0.150000
endloop
endfacet
facet normal 0.670591 0.741827 0.000000
outer loop
vertex 0.007897 0.003014 0.150000
vertex 0.007897 0.003014 0.000000
vertex 0.004654 0.005945 0.000000
endloop
endfacet
facet normal 0.670591 0.741827 0.000000
outer loop
vertex 0.007897 0.003014 0.150000
vertex 0.004654 0.005945 0.000000
vertex 0.004654 0.005945 0.150000
endloop
endfacet
facet normal -0.946854 0.321664 0.000000
outer loop
vertex 0.000035 0.006068 0.150000
vertex 0.000035 0.006068 0.000000
vertex 0.000019 0.006019 0.000000
endloop
endfacet
facet normal -0.946854 0.321664 0.000000
outer loop
vertex 0.000035 0.006068 0.150000
vertex 0.000019 0.006019 0.000000
vertex 0.000019 0.006019 0.150000
endloop
endfacet
facet normal -0.635209 0.772340 0.000000
outer loop
vertex 0.000374 0.006612 0.150000
vertex 0.000374 0.006612 0.000000
vertex 0.000335 0.006580 0.000000
endloop
endfacet
facet normal -0.635208 0.772341 0.000000
outer loop
vertex 0.000374 0.006612 0.150000
vertex 0.000335 0.006580 0.000000
vertex 0.000335 0.006580 0.150000
endloop
endfacet
facet normal 0.854136 -0.520050 0.000000
outer loop
vertex 0.010567 0.000590 0.150000
vertex 0.010567 0.000590 0.000000
vertex 0.010584 0.000617 0.000000
endloop
endfacet
facet normal 0.854136 -0.520050 0.000000
outer loop
vertex 0.010567 0.000590 0.150000
vertex 0.010584 0.000617 0.000000
vertex 0.010584 0.000617 0.150000
endloop
endfacet
facet normal 0.008601 -0.999963 0.000000
outer loop
vertex 0.009893 0.000370 0.150000
vertex 0.009893 0.000370 0.000000
vertex 0.009946 0.000370 0.000000
endloop
endfacet
facet normal 0.008601 -0.999963 0.000000
outer loop
vertex 0.009893 0.000370 0.150000
vertex 0.009946 0.000370 0.000000
vertex 0.009946 0.000370 0.150000
endloop
endfacet
facet normal -0.348887 -0.937165 0.000000
outer loop
vertex 0.000933 0.000204 0.150000
vertex 0.000933 0.000204 0.000000
vertex 0.001020 0.000171 0.000000
endloop
endfacet
facet normal -0.348887 -0.937165 0.000000
outer loop
vertex 0.000933 0.000204 0.150000
vertex 0.001020 0.000171 0.000000
vertex 0.001020 0.000171 0.150000
endloop
endfacet
facet normal -0.705817 0.708394 0.000000
outer loop
vertex 0.000335 0.006580 0.150000
vertex 0.000335 0.006580 0.000000
vertex 0.000301 0.006546 0.000000
endloop
endfacet
facet normal -0.705817 0.708394 0.000000
outer loop
vertex 0.000335 0.006580 0.150000
vertex 0.000301 0.006546 0.000000
vertex 0.000301 0.006546 0.150000
endloop
endfacet
facet normal 0.021303 -0.999773 0.000000
outer loop
vertex 0.002807 0.000000 0.000000
vertex 0.003148 0.000007 0.000000
vertex 0.003148 0.000007 0.150000
endloop
endfacet
facet normal 0.021303 -0.999773 0.000000
outer loop
vertex 0.002807 0.000000 0.000000
vertex 0.003148 0.000007 0.150000
vertex 0.002807 0.000000 0.150000
endloop
endfacet
facet normal -0.069259 -0.997599 0.000000
outer loop
vertex 0.001533 0.000079 0.150000
vertex 0.001533 0.000079 0.000000
vertex 0.002624 0.000003 0.000000
endloop
endfacet
facet normal -0.018226 -0.999834 0.000000
outer loop
vertex 0.002624 0.000003 0.000000
vertex 0.002807 0.000000 0.000000
vertex 0.002807 0.000000 0.150000
endloop
endfacet
facet normal -0.069259 -0.997599 0.000000
outer loop
vertex 0.002624 0.000003 0.150000
vertex 0.001533 0.000079 0.150000
vertex 0.002624 0.000003 0.000000
endloop
endfacet
facet normal -0.018226 -0.999834 0.000000
outer loop
vertex 0.002807 0.000000 0.150000
vertex 0.002624 0.000003 0.150000
vertex 0.002624 0.000003 0.000000
endloop
endfacet
facet normal 0.888109 0.459632 0.000000
outer loop
vertex 0.010435 0.001120 0.150000
vertex 0.010435 0.001120 0.000000
vertex 0.010401 0.001186 0.000000
endloop
endfacet
facet normal 0.888101 0.459649 0.000000
outer loop
vertex 0.010435 0.001120 0.150000
vertex 0.010401 0.001186 0.000000
vertex 0.010401 0.001186 0.150000
endloop
endfacet
facet normal 0.842797 0.538232 0.000000
outer loop
vertex 0.010324 0.001306 0.000000
vertex 0.010324 0.001306 0.150000
vertex 0.010401 0.001186 0.150000
endloop
endfacet
facet normal 0.842806 0.538217 0.000000
outer loop
vertex 0.010324 0.001306 0.000000
vertex 0.010401 0.001186 0.150000
vertex 0.010401 0.001186 0.000000
endloop
endfacet
facet normal 0.114177 -0.993460 0.000000
outer loop
vertex 0.010063 0.000384 0.000000
vertex 0.010063 0.000384 0.150000
vertex 0.009946 0.000370 0.150000
endloop
endfacet
facet normal 0.114179 -0.993460 0.000000
outer loop
vertex 0.010063 0.000384 0.000000
vertex 0.009946 0.000370 0.150000
vertex 0.009946 0.000370 0.000000
endloop
endfacet
facet normal -0.945618 0.325280 0.000000
outer loop
vertex 0.000556 0.002120 0.150000
vertex 0.000556 0.002120 0.000000
vertex 0.000541 0.002077 0.000000
endloop
endfacet
facet normal -0.945618 0.325280 0.000000
outer loop
vertex 0.000556 0.002120 0.150000
vertex 0.000541 0.002077 0.000000
vertex 0.000541 0.002077 0.150000
endloop
endfacet
facet normal -0.529412 0.848365 0.000000
outer loop
vertex 0.000374 0.006612 0.000000
vertex 0.000374 0.006612 0.150000
vertex 0.000474 0.006674 0.150000
endloop
endfacet
facet normal -0.529412 0.848365 0.000000
outer loop
vertex 0.000374 0.006612 0.000000
vertex 0.000474 0.006674 0.150000
vertex 0.000474 0.006674 0.000000
endloop
endfacet
facet normal -0.986056 -0.166412 0.000000
outer loop
vertex 0.000586 0.003680 0.000000
vertex 0.000598 0.003607 0.000000
vertex 0.000598 0.003607 0.150000
endloop
endfacet
facet normal -0.986057 -0.166410 0.000000
outer loop
vertex 0.000586 0.003680 0.000000
vertex 0.000598 0.003607 0.150000
vertex 0.000586 0.003680 0.150000
endloop
endfacet
facet normal -0.982784 -0.184761 0.000000
outer loop
vertex 0.000572 0.003757 0.000000
vertex 0.000586 0.003680 0.000000
vertex 0.000586 0.003680 0.150000
endloop
endfacet
facet normal -0.982783 -0.184762 0.000000
outer loop
vertex 0.000572 0.003757 0.000000
vertex 0.000586 0.003680 0.150000
vertex 0.000572 0.003757 0.150000
endloop
endfacet
facet normal -0.979413 -0.201865 0.000000
outer loop
vertex 0.000555 0.003839 0.000000
vertex 0.000572 0.003757 0.000000
vertex 0.000572 0.003757 0.150000
endloop
endfacet
facet normal -0.979413 -0.201865 0.000000
outer loop
vertex 0.000555 0.003839 0.000000
vertex 0.000572 0.003757 0.150000
vertex 0.000555 0.003839 0.150000
endloop
endfacet
facet normal -0.975866 -0.218369 0.000000
outer loop
vertex 0.000516 0.004010 0.000000
vertex 0.000555 0.003839 0.000000
vertex 0.000555 0.003839 0.150000
endloop
endfacet
facet normal -0.975866 -0.218369 0.000000
outer loop
vertex 0.000516 0.004010 0.000000
vertex 0.000555 0.003839 0.150000
vertex 0.000516 0.004010 0.150000
endloop
endfacet
facet normal -0.978101 -0.208130 0.000000
outer loop
vertex 0.000455 0.004297 0.000000
vertex 0.000516 0.004010 0.000000
vertex 0.000516 0.004010 0.150000
endloop
endfacet
facet normal -0.978101 -0.208130 0.000000
outer loop
vertex 0.000455 0.004297 0.000000
vertex 0.000516 0.004010 0.150000
vertex 0.000455 0.004297 0.150000
endloop
endfacet
facet normal -0.973349 -0.229330 0.000000
outer loop
vertex 0.000440 0.004363 0.000000
vertex 0.000455 0.004297 0.000000
vertex 0.000455 0.004297 0.150000
endloop
endfacet
facet normal -0.973349 -0.229328 0.000000
outer loop
vertex 0.000440 0.004363 0.000000
vertex 0.000455 0.004297 0.150000
vertex 0.000440 0.004363 0.150000
endloop
endfacet
facet normal -0.960754 -0.277402 0.000000
outer loop
vertex 0.000403 0.004498 0.150000
vertex 0.000403 0.004498 0.000000
vertex 0.000423 0.004429 0.000000
endloop
endfacet
facet normal -0.967940 -0.251181 0.000000
outer loop
vertex 0.000423 0.004429 0.000000
vertex 0.000440 0.004363 0.000000
vertex 0.000440 0.004363 0.150000
endloop
endfacet
facet normal -0.960755 -0.277400 0.000000
outer loop
vertex 0.000423 0.004429 0.150000
vertex 0.000403 0.004498 0.150000
vertex 0.000423 0.004429 0.000000
endloop
endfacet
facet normal -0.967940 -0.251180 0.000000
outer loop
vertex 0.000440 0.004363 0.150000
vertex 0.000423 0.004429 0.150000
vertex 0.000423 0.004429 0.000000
endloop
endfacet
facet normal -0.978940 -0.204149 0.000000
outer loop
vertex 0.000336 0.001092 0.150000
vertex 0.000336 0.001092 0.000000
vertex 0.000345 0.001044 0.000000
endloop
endfacet
facet normal -0.978940 -0.204149 0.000000
outer loop
vertex 0.000336 0.001092 0.150000
vertex 0.000345 0.001044 0.000000
vertex 0.000345 0.001044 0.150000
endloop
endfacet
facet normal 0.000000 0.000000 1.000000
outer loop
vertex 0.000121 0.006239 0.000000
vertex 0.000089 0.006180 0.000000
vertex 0.000059 0.006121 0.000000
endloop
endfacet
facet normal -0.917442 0.397870 0.000000
outer loop
vertex 0.000059 0.006121 0.000000
vertex 0.000035 0.006068 0.000000
vertex 0.000035 0.006068 0.150000
endloop
endfacet
facet normal -0.917442 0.397870 0.000000
outer loop
vertex 0.000059 0.006121 0.000000
vertex 0.000035 0.006068 0.150000
vertex 0.000059 0.006121 0.150000
endloop
endfacet
facet normal 0.000000 0.000000 1.000000
outer loop
vertex 0.000221 0.006433 0.000000
vertex 0.000198 0.006390 0.000000
vertex 0.000121 0.006239 0.000000
endloop
endfacet
facet normal -0.884079 0.467338 0.000000
outer loop
vertex 0.000121 0.006239 0.000000
vertex 0.000059 0.006121 0.000000
vertex 0.000059 0.006121 0.150000
endloop
endfacet
facet normal -0.887978 0.459885 -0.000007
outer loop
vertex 0.000121 0.006239 0.000000
vertex 0.000059 0.006121 0.150000
vertex 0.000089 0.006180 0.150000
endloop
endfacet
facet normal 0.000000 0.000000 1.000000
outer loop
vertex 0.000245 0.006473 0.000000
vertex 0.000221 0.006433 0.000000
vertex 0.000121 0.006239 0.000000
endloop
endfacet
facet normal -0.855895 0.517150 0.000000
outer loop
vertex 0.000221 0.006433 0.150000
vertex 0.000245 0.006473 0.150000
vertex 0.000245 0.006473 0.000000
endloop
endfacet
facet normal -0.878688 0.477396 -0.000014
outer loop
vertex 0.000198 0.006390 0.150000
vertex 0.000221 0.006433 0.150000
vertex 0.000245 0.006473 0.000000
endloop
endfacet
facet normal -0.882890 0.469581 -0.000003
outer loop
vertex 0.000245 0.006473 0.000000
vertex 0.000121 0.006239 0.000000
vertex 0.000089 0.006180 0.150000
endloop
endfacet
facet normal -0.891037 0.453931 -0.000031
outer loop
vertex 0.000121 0.006239 0.150000
vertex 0.000198 0.006390 0.150000
vertex 0.000245 0.006473 0.000000
endloop
endfacet
facet normal -0.880185 0.474630 0.000010
outer loop
vertex 0.000089 0.006180 0.150000
vertex 0.000121 0.006239 0.150000
vertex 0.000245 0.006473 0.000000
endloop
endfacet
facet normal 0.543088 0.839676 0.000000
outer loop
vertex 0.007897 0.003014 0.000000
vertex 0.007897 0.003014 0.150000
vertex 0.008206 0.002814 0.150000
endloop
endfacet
facet normal 0.543090 0.839674 0.000000
outer loop
vertex 0.007897 0.003014 0.000000
vertex 0.008206 0.002814 0.150000
vertex 0.008206 0.002814 0.000000
endloop
endfacet
facet normal -0.276869 0.960908 0.000000
outer loop
vertex 0.000859 0.006838 0.150000
vertex 0.000912 0.006853 0.150000
vertex 0.000912 0.006853 0.000000
endloop
endfacet
facet normal -0.276868 0.960908 0.000000
outer loop
vertex 0.000859 0.006838 0.150000
vertex 0.000912 0.006853 0.000000
vertex 0.000859 0.006838 0.000000
endloop
endfacet
facet normal -0.308587 0.951196 0.000000
outer loop
vertex 0.000805 0.006821 0.150000
vertex 0.000859 0.006838 0.150000
vertex 0.000859 0.006838 0.000000
endloop
endfacet
facet normal -0.308586 0.951196 0.000000
outer loop
vertex 0.000805 0.006821 0.150000
vertex 0.000859 0.006838 0.000000
vertex 0.000805 0.006821 0.000000
endloop
endfacet
facet normal -0.366929 0.930249 0.000000
outer loop
vertex 0.000698 0.006780 0.000000
vertex 0.000698 0.006780 0.150000
vertex 0.000752 0.006802 0.150000
endloop
endfacet
facet normal -0.338701 0.940894 0.000000
outer loop
vertex 0.000752 0.006802 0.150000
vertex 0.000805 0.006821 0.150000
vertex 0.000805 0.006821 0.000000
endloop
endfacet
facet normal -0.366930 0.930249 0.000000
outer loop
vertex 0.000752 0.006802 0.000000
vertex 0.000698 0.006780 0.000000
vertex 0.000752 0.006802 0.150000
endloop
endfacet
facet normal -0.338701 0.940894 0.000000
outer loop
vertex 0.000805 0.006821 0.000000
vertex 0.000752 0.006802 0.000000
vertex 0.000752 0.006802 0.150000
endloop
endfacet
facet normal -0.937402 -0.348250 0.000000
outer loop
vertex 0.000345 0.001044 0.150000
vertex 0.000345 0.001044 0.000000
vertex 0.000367 0.000987 0.000000
endloop
endfacet
facet normal -0.937402 -0.348249 0.000000
outer loop
vertex 0.000345 0.001044 0.150000
vertex 0.000367 0.000987 0.000000
vertex 0.000367 0.000987 0.150000
endloop
endfacet
facet normal 0.000000 0.000000 -1.000000
outer loop
vertex 0.003235 0.006711 0.000000
vertex 0.002506 0.006992 0.000000
vertex 0.002399 0.007038 0.000000
endloop
endfacet
facet normal 0.397503 0.917601 0.000000
outer loop
vertex 0.002399 0.007038 0.000000
vertex 0.002399 0.007038 0.150000
vertex 0.002506 0.006992 0.150000
endloop
endfacet
facet normal 0.359494 0.933148 0.000032
outer loop
vertex 0.002399 0.007038 0.000000
vertex 0.002506 0.006992 0.150000
vertex 0.003235 0.006711 0.150000
endloop
endfacet
facet normal 0.364461 0.931219 0.000000
outer loop
vertex 0.003235 0.006711 0.000000
vertex 0.002399 0.007038 0.000000
vertex 0.003235 0.006711 0.150000
endloop
endfacet
facet normal 0.411001 0.911635 0.000000
outer loop
vertex 0.003466 0.006614 0.150000
vertex 0.003706 0.006506 0.150000
vertex 0.003706 0.006506 0.000000
endloop
endfacet
facet normal 0.385821 0.922574 0.000000
outer loop
vertex 0.003235 0.006711 0.000000
vertex 0.003235 0.006711 0.150000
vertex 0.003466 0.006614 0.150000
endloop
endfacet
facet normal 0.411001 0.911635 0.000000
outer loop
vertex 0.003466 0.006614 0.150000
vertex 0.003706 0.006506 0.000000
vertex 0.003466 0.006614 0.000000
endloop
endfacet
facet normal 0.385819 0.922574 0.000000
outer loop
vertex 0.003466 0.006614 0.150000
vertex 0.003466 0.006614 0.000000
vertex 0.003235 0.006711 0.000000
endloop
endfacet
facet normal -0.794979 0.606638 0.000000
outer loop
vertex 0.000245 0.006473 0.000000
vertex 0.000245 0.006473 0.150000
vertex 0.000301 0.006546 0.150000
endloop
endfacet
facet normal -0.794979 0.606638 0.000000
outer loop
vertex 0.000245 0.006473 0.000000
vertex 0.000301 0.006546 0.150000
vertex 0.000301 0.006546 0.000000
endloop
endfacet
facet normal -0.982110 0.188309 0.000000
outer loop
vertex 0.000578 0.002208 0.150000
vertex 0.000586 0.002249 0.150000
vertex 0.000586 0.002249 0.000000
endloop
endfacet
facet normal -0.982111 0.188304 0.000000
outer loop
vertex 0.000578 0.002208 0.150000
vertex 0.000586 0.002249 0.000000
vertex 0.000578 0.002208 0.000000
endloop
endfacet
facet normal -0.976041 0.217587 0.000000
outer loop
vertex 0.000570 0.002173 0.150000
vertex 0.000578 0.002208 0.150000
vertex 0.000578 0.002208 0.000000
endloop
endfacet
facet normal -0.976040 0.217590 0.000000
outer loop
vertex 0.000570 0.002173 0.150000
vertex 0.000578 0.002208 0.000000
vertex 0.000570 0.002173 0.000000
endloop
endfacet
facet normal -0.961571 0.274558 0.000000
outer loop
vertex 0.000556 0.002120 0.000000
vertex 0.000556 0.002120 0.150000
vertex 0.000562 0.002144 0.150000
endloop
endfacet
facet normal -0.969177 0.246365 0.000000
outer loop
vertex 0.000562 0.002144 0.150000
vertex 0.000570 0.002173 0.150000
vertex 0.000570 0.002173 0.000000
endloop
endfacet
facet normal -0.961573 0.274551 0.000000
outer loop
vertex 0.000562 0.002144 0.000000
vertex 0.000556 0.002120 0.000000
vertex 0.000562 0.002144 0.150000
endloop
endfacet
facet normal -0.969178 0.246362 0.000000
outer loop
vertex 0.000570 0.002173 0.000000
vertex 0.000562 0.002144 0.000000
vertex 0.000562 0.002144 0.150000
endloop
endfacet
facet normal -0.258914 -0.965900 0.000000
outer loop
vertex 0.001020 0.000171 0.150000
vertex 0.001020 0.000171 0.000000
vertex 0.001125 0.000143 0.000000
endloop
endfacet
facet normal -0.258914 -0.965900 0.000000
outer loop
vertex 0.001020 0.000171 0.150000
vertex 0.001125 0.000143 0.000000
vertex 0.001125 0.000143 0.150000
endloop
endfacet
facet normal 0.955462 -0.295116 0.000000
outer loop
vertex 0.010584 0.000617 0.150000
vertex 0.010584 0.000617 0.000000
vertex 0.010593 0.000647 0.000000
endloop
endfacet
facet normal 0.955462 -0.295116 0.000000
outer loop
vertex 0.010584 0.000617 0.150000
vertex 0.010593 0.000647 0.000000
vertex 0.010593 0.000647 0.150000
endloop
endfacet
facet normal 0.311683 -0.950186 0.000000
outer loop
vertex 0.010249 0.000428 0.000000
vertex 0.010310 0.000448 0.000000
vertex 0.010310 0.000448 0.150000
endloop
endfacet
facet normal 0.311691 -0.950184 0.000000
outer loop
vertex 0.010249 0.000428 0.000000
vertex 0.010310 0.000448 0.150000
vertex 0.010249 0.000428 0.150000
endloop
endfacet
facet normal 0.273779 -0.961793 0.000000
outer loop
vertex 0.010187 0.000411 0.000000
vertex 0.010249 0.000428 0.000000
vertex 0.010249 0.000428 0.150000
endloop
endfacet
facet normal 0.273773 -0.961794 0.000000
outer loop
vertex 0.010187 0.000411 0.000000
vertex 0.010249 0.000428 0.150000
vertex 0.010187 0.000411 0.150000
endloop
endfacet
facet normal 0.191866 -0.981421 0.000000
outer loop
vertex 0.010063 0.000384 0.150000
vertex 0.010063 0.000384 0.000000
vertex 0.010125 0.000396 0.000000
endloop
endfacet
facet normal 0.234595 -0.972093 0.000000
outer loop
vertex 0.010125 0.000396 0.000000
vertex 0.010187 0.000411 0.000000
vertex 0.010187 0.000411 0.150000
endloop
endfacet
facet normal 0.191861 -0.981422 0.000000
outer loop
vertex 0.010125 0.000396 0.150000
vertex 0.010063 0.000384 0.150000
vertex 0.010125 0.000396 0.000000
endloop
endfacet
facet normal 0.234584 -0.972096 0.000000
outer loop
vertex 0.010125 0.000396 0.000000
vertex 0.010187 0.000411 0.150000
vertex 0.010125 0.000396 0.150000
endloop
endfacet
facet normal -0.952138 -0.305668 0.000000
outer loop
vertex 0.000380 0.004570 0.000000
vertex 0.000403 0.004498 0.000000
vertex 0.000403 0.004498 0.150000
endloop
endfacet
facet normal -0.952138 -0.305668 0.000000
outer loop
vertex 0.000380 0.004570 0.000000
vertex 0.000403 0.004498 0.150000
vertex 0.000380 0.004570 0.150000
endloop
endfacet
facet normal -0.942643 -0.333803 0.000000
outer loop
vertex 0.000352 0.004647 0.000000
vertex 0.000380 0.004570 0.000000
vertex 0.000380 0.004570 0.150000
endloop
endfacet
facet normal -0.942643 -0.333804 0.000000
outer loop
vertex 0.000352 0.004647 0.000000
vertex 0.000380 0.004570 0.150000
vertex 0.000352 0.004647 0.150000
endloop
endfacet
facet normal -0.932888 -0.360168 0.000000
outer loop
vertex 0.000320 0.004731 0.000000
vertex 0.000352 0.004647 0.000000
vertex 0.000352 0.004647 0.150000
endloop
endfacet
facet normal -0.932887 -0.360168 0.000000
outer loop
vertex 0.000320 0.004731 0.000000
vertex 0.000352 0.004647 0.150000
vertex 0.000320 0.004731 0.150000
endloop
endfacet
facet normal -0.922351 -0.386353 0.000000
outer loop
vertex 0.000208 0.004998 0.000000
vertex 0.000320 0.004731 0.000000
vertex 0.000320 0.004731 0.150000
endloop
endfacet
facet normal -0.922351 -0.386353 0.000000
outer loop
vertex 0.000208 0.004998 0.000000
vertex 0.000320 0.004731 0.150000
vertex 0.000208 0.004998 0.150000
endloop
endfacet
facet normal -0.927892 -0.372848 0.000000
outer loop
vertex 0.000177 0.005075 0.000000
vertex 0.000208 0.004998 0.000000
vertex 0.000208 0.004998 0.150000
endloop
endfacet
facet normal -0.927892 -0.372848 0.000000
outer loop
vertex 0.000177 0.005075 0.000000
vertex 0.000208 0.004998 0.150000
vertex 0.000177 0.005075 0.150000
endloop
endfacet
facet normal -0.933531 -0.358496 0.000000
outer loop
vertex 0.000150 0.005145 0.000000
vertex 0.000177 0.005075 0.000000
vertex 0.000177 0.005075 0.150000
endloop
endfacet
facet normal -0.933531 -0.358496 0.000000
outer loop
vertex 0.000150 0.005145 0.000000
vertex 0.000177 0.005075 0.150000
vertex 0.000150 0.005145 0.150000
endloop
endfacet
facet normal -0.940405 -0.340058 0.000000
outer loop
vertex 0.000127 0.005210 0.000000
vertex 0.000150 0.005145 0.000000
vertex 0.000150 0.005145 0.150000
endloop
endfacet
facet normal -0.940405 -0.340057 0.000000
outer loop
vertex 0.000127 0.005210 0.000000
vertex 0.000150 0.005145 0.150000
vertex 0.000127 0.005210 0.150000
endloop
endfacet
facet normal -0.956991 -0.290117 0.000000
outer loop
vertex 0.000089 0.005329 0.150000
vertex 0.000089 0.005329 0.000000
vertex 0.000106 0.005271 0.000000
endloop
endfacet
facet normal -0.948345 -0.317239 0.000000
outer loop
vertex 0.000106 0.005271 0.000000
vertex 0.000127 0.005210 0.000000
vertex 0.000127 0.005210 0.150000
endloop
endfacet
facet normal -0.956991 -0.290117 0.000000
outer loop
vertex 0.000106 0.005271 0.150000
vertex 0.000089 0.005329 0.150000
vertex 0.000106 0.005271 0.000000
endloop
endfacet
facet normal -0.948346 -0.317239 0.000000
outer loop
vertex 0.000127 0.005210 0.150000
vertex 0.000106 0.005271 0.150000
vertex 0.000106 0.005271 0.000000
endloop
endfacet
facet normal 0.927045 0.374949 0.000000
outer loop
vertex 0.010435 0.001120 0.000000
vertex 0.010435 0.001120 0.150000
vertex 0.010582 0.000757 0.150000
endloop
endfacet
facet normal 0.927045 0.374949 0.000000
outer loop
vertex 0.010435 0.001120 0.000000
vertex 0.010582 0.000757 0.150000
vertex 0.010582 0.000757 0.000000
endloop
endfacet
facet normal 0.462099 0.886828 0.000000
outer loop
vertex 0.004193 0.006252 0.000000
vertex 0.003706 0.006506 0.000000
vertex 0.003706 0.006506 0.150000
endloop
endfacet
facet normal 0.462099 0.886828 0.000000
outer loop
vertex 0.004193 0.006252 0.000000
vertex 0.003706 0.006506 0.150000
vertex 0.004193 0.006252 0.150000
endloop
endfacet
facet normal 0.370987 -0.928638 0.000000
outer loop
vertex 0.010310 0.000448 0.150000
vertex 0.010310 0.000448 0.000000
vertex 0.010420 0.000492 0.000000
endloop
endfacet
facet normal 0.370983 -0.928640 0.000000
outer loop
vertex 0.010310 0.000448 0.150000
vertex 0.010420 0.000492 0.000000
vertex 0.010420 0.000492 0.150000
endloop
endfacet
facet normal 0.000000 0.000000 -1.000000
outer loop
vertex 0.000629 0.003349 0.000000
vertex 0.000635 0.003234 0.000000
vertex 0.000637 0.003123 0.000000
endloop
endfacet
facet normal 0.000000 0.000000 -1.000000
outer loop
vertex 0.000637 0.003123 0.000000
vertex 0.000633 0.002913 0.000000
vertex 0.000605 0.002403 0.000000
endloop
endfacet
facet normal -0.998546 0.053910 0.000000
outer loop
vertex 0.000605 0.002403 0.000000
vertex 0.000605 0.002403 0.150000
vertex 0.000633 0.002913 0.150000
endloop
endfacet
facet normal -0.999814 0.019299 0.000118
outer loop
vertex 0.000605 0.002403 0.000000
vertex 0.000633 0.002913 0.150000
vertex 0.000637 0.003123 0.150000
endloop
endfacet
facet normal 0.000000 0.000000 -1.000000
outer loop
vertex 0.000629 0.003349 0.000000
vertex 0.000637 0.003123 0.000000
vertex 0.000605 0.002403 0.000000
endloop
endfacet
facet normal -0.998566 -0.053530 0.000000
outer loop
vertex 0.000635 0.003234 0.150000
vertex 0.000629 0.003349 0.150000
vertex 0.000629 0.003349 0.000000
endloop
endfacet
facet normal -0.999869 -0.016168 0.000288
outer loop
vertex 0.000605 0.002403 0.000000
vertex 0.000637 0.003123 0.150000
vertex 0.000635 0.003234 0.150000
endloop
endfacet
facet normal -0.999689 0.024951 0.000060
outer loop
vertex 0.000605 0.002403 0.000000
vertex 0.000635 0.003234 0.150000
vertex 0.000629 0.003349 0.000000
endloop
endfacet
facet normal -0.985864 0.167548 0.000000
outer loop
vertex 0.000362 0.001315 0.000000
vertex 0.000346 0.001222 0.000000
vertex 0.000346 0.001222 0.150000
endloop
endfacet
facet normal -0.985864 0.167549 0.000000
outer loop
vertex 0.000362 0.001315 0.000000
vertex 0.000346 0.001222 0.150000
vertex 0.000362 0.001315 0.150000
endloop
endfacet
facet normal -0.972218 0.234077 0.000000
outer loop
vertex 0.000541 0.002077 0.150000
vertex 0.000541 0.002077 0.000000
vertex 0.000383 0.001420 0.000000
endloop
endfacet
facet normal -0.980948 0.194271 0.000000
outer loop
vertex 0.000383 0.001420 0.000000
vertex 0.000362 0.001315 0.000000
vertex 0.000362 0.001315 0.150000
endloop
endfacet
facet normal -0.972218 0.234077 0.000000
outer loop
vertex 0.000383 0.001420 0.150000
vertex 0.000541 0.002077 0.150000
vertex 0.000383 0.001420 0.000000
endloop
endfacet
facet normal -0.980948 0.194271 0.000000
outer loop
vertex 0.000383 0.001420 0.000000
vertex 0.000362 0.001315 0.150000
vertex 0.000383 0.001420 0.150000
endloop
endfacet
facet normal -0.999766 0.021616 0.000000
outer loop
vertex 0.000337 0.001145 0.150000
vertex 0.000337 0.001145 0.000000
vertex 0.000336 0.001092 0.000000
endloop
endfacet
facet normal -0.999766 0.021615 0.000000
outer loop
vertex 0.000337 0.001145 0.150000
vertex 0.000336 0.001092 0.000000
vertex 0.000336 0.001092 0.150000
endloop
endfacet
facet normal -0.987210 -0.159425 0.000000
outer loop
vertex 0.000042 0.005548 0.000000
vertex 0.000051 0.005493 0.000000
vertex 0.000051 0.005493 0.150000
endloop
endfacet
facet normal -0.987210 -0.159425 0.000000
outer loop
vertex 0.000042 0.005548 0.000000
vertex 0.000051 0.005493 0.150000
vertex 0.000042 0.005548 0.150000
endloop
endfacet
facet normal -0.991496 -0.130134 0.000000
outer loop
vertex 0.000027 0.005661 0.000000
vertex 0.000042 0.005548 0.000000
vertex 0.000042 0.005548 0.150000
endloop
endfacet
facet normal -0.991496 -0.130134 0.000000
outer loop
vertex 0.000027 0.005661 0.000000
vertex 0.000042 0.005548 0.150000
vertex 0.000027 0.005661 0.150000
endloop
endfacet
facet normal -0.995080 -0.099076 0.000000
outer loop
vertex 0.000002 0.005845 0.150000
vertex 0.000002 0.005845 0.000000
vertex 0.000006 0.005803 0.000000
endloop
endfacet
facet normal -0.989165 -0.146810 0.000000
outer loop
vertex 0.000006 0.005803 0.000000
vertex 0.000027 0.005661 0.000000
vertex 0.000027 0.005661 0.150000
endloop
endfacet
facet normal -0.995080 -0.099076 0.000000
outer loop
vertex 0.000006 0.005803 0.150000
vertex 0.000002 0.005845 0.150000
vertex 0.000006 0.005803 0.000000
endloop
endfacet
facet normal -0.989165 -0.146810 0.000000
outer loop
vertex 0.000027 0.005661 0.150000
vertex 0.000006 0.005803 0.150000
vertex 0.000006 0.005803 0.000000
endloop
endfacet
facet normal -0.999995 0.003012 0.000000
outer loop
vertex 0.000002 0.005845 0.000000
vertex 0.000002 0.005845 0.150000
vertex 0.000002 0.005930 0.150000
endloop
endfacet
facet normal -0.999995 0.003012 0.000000
outer loop
vertex 0.000002 0.005845 0.000000
vertex 0.000002 0.005930 0.150000
vertex 0.000002 0.005930 0.000000
endloop
endfacet
facet normal -0.804566 -0.593863 0.000000
outer loop
vertex 0.000690 0.000461 0.000000
vertex 0.000821 0.000282 0.000000
vertex 0.000821 0.000282 0.150000
endloop
endfacet
facet normal -0.804566 -0.593863 0.000000
outer loop
vertex 0.000690 0.000461 0.000000
vertex 0.000821 0.000282 0.150000
vertex 0.000690 0.000461 0.150000
endloop
endfacet
facet normal -0.841403 -0.540407 0.000000
outer loop
vertex 0.000482 0.000771 0.150000
vertex 0.000482 0.000771 0.000000
vertex 0.000584 0.000612 0.000000
endloop
endfacet
facet normal -0.822192 -0.569210 0.000000
outer loop
vertex 0.000584 0.000612 0.000000
vertex 0.000690 0.000461 0.000000
vertex 0.000690 0.000461 0.150000
endloop
endfacet
facet normal -0.841403 -0.540408 0.000000
outer loop
vertex 0.000584 0.000612 0.150000
vertex 0.000482 0.000771 0.150000
vertex 0.000584 0.000612 0.000000
endloop
endfacet
facet normal -0.822192 -0.569210 0.000000
outer loop
vertex 0.000690 0.000461 0.150000
vertex 0.000584 0.000612 0.150000
vertex 0.000584 0.000612 0.000000
endloop
endfacet
facet normal -0.881114 -0.472903 0.000000
outer loop
vertex 0.000367 0.000987 0.000000
vertex 0.000482 0.000771 0.000000
vertex 0.000482 0.000771 0.150000
endloop
endfacet
facet normal -0.881115 -0.472903 0.000000
outer loop
vertex 0.000367 0.000987 0.000000
vertex 0.000482 0.000771 0.150000
vertex 0.000367 0.000987 0.150000
endloop
endfacet
facet normal 0.671094 0.741372 0.000000
outer loop
vertex 0.009762 0.001933 0.150000
vertex 0.009762 0.001933 0.000000
vertex 0.009681 0.002006 0.000000
endloop
endfacet
facet normal 0.671087 0.741378 0.000000
outer loop
vertex 0.009762 0.001933 0.150000
vertex 0.009681 0.002006 0.000000
vertex 0.009681 0.002006 0.150000
endloop
endfacet
facet normal 0.719325 -0.694673 0.000000
outer loop
vertex 0.010543 0.000564 0.150000
vertex 0.010543 0.000564 0.000000
vertex 0.010567 0.000590 0.000000
endloop
endfacet
facet normal 0.719282 -0.694719 0.000000
outer loop
vertex 0.010543 0.000564 0.150000
vertex 0.010567 0.000590 0.000000
vertex 0.010567 0.000590 0.150000
endloop
endfacet
facet normal -0.996433 -0.084388 0.000000
outer loop
vertex 0.000624 0.003410 0.000000
vertex 0.000629 0.003349 0.000000
vertex 0.000629 0.003349 0.150000
endloop
endfacet
facet normal -0.996433 -0.084386 0.000000
outer loop
vertex 0.000624 0.003410 0.000000
vertex 0.000629 0.003349 0.150000
vertex 0.000624 0.003410 0.150000
endloop
endfacet
facet normal -0.990568 -0.137023 0.000000
outer loop
vertex 0.000598 0.003607 0.150000
vertex 0.000598 0.003607 0.000000
vertex 0.000617 0.003473 0.000000
endloop
endfacet
facet normal -0.994411 -0.105583 0.000000
outer loop
vertex 0.000617 0.003473 0.000000
vertex 0.000624 0.003410 0.000000
vertex 0.000624 0.003410 0.150000
endloop
endfacet
facet normal -0.990568 -0.137023 0.000000
outer loop
vertex 0.000617 0.003473 0.150000
vertex 0.000598 0.003607 0.150000
vertex 0.000617 0.003473 0.000000
endloop
endfacet
facet normal -0.994411 -0.105583 0.000000
outer loop
vertex 0.000624 0.003410 0.150000
vertex 0.000617 0.003473 0.150000
vertex 0.000617 0.003473 0.000000
endloop
endfacet
facet normal -0.677717 -0.735323 0.000000
outer loop
vertex 0.000821 0.000282 0.150000
vertex 0.000821 0.000282 0.000000
vertex 0.000867 0.000240 0.000000
endloop
endfacet
facet normal -0.677719 -0.735321 0.000000
outer loop
vertex 0.000821 0.000282 0.150000
vertex 0.000867 0.000240 0.000000
vertex 0.000867 0.000240 0.150000
endloop
endfacet
facet normal 0.554299 0.832317 0.000000
outer loop
vertex 0.004654 0.005945 0.150000
vertex 0.004654 0.005945 0.000000
vertex 0.004193 0.006252 0.000000
endloop
endfacet
facet normal 0.554299 0.832317 0.000000
outer loop
vertex 0.004654 0.005945 0.150000
vertex 0.004193 0.006252 0.000000
vertex 0.004193 0.006252 0.150000
endloop
endfacet
facet normal 0.994052 0.108910 0.000000
outer loop
vertex 0.010596 0.000679 0.150000
vertex 0.010596 0.000679 0.000000
vertex 0.010592 0.000716 0.000000
endloop
endfacet
facet normal 0.994052 0.108910 0.000000
outer loop
vertex 0.010596 0.000679 0.150000
vertex 0.010592 0.000716 0.000000
vertex 0.010592 0.000716 0.150000
endloop
endfacet
facet normal 0.578546 0.815650 0.000000
outer loop
vertex 0.009681 0.002006 0.150000
vertex 0.009681 0.002006 0.000000
vertex 0.009514 0.002125 0.000000
endloop
endfacet
facet normal 0.578550 0.815647 0.000000
outer loop
vertex 0.009681 0.002006 0.150000
vertex 0.009514 0.002125 0.000000
vertex 0.009514 0.002125 0.150000
endloop
endfacet
facet normal -0.972504 0.232887 0.000000
outer loop
vertex 0.000019 0.006019 0.150000
vertex 0.000019 0.006019 0.000000
vertex 0.000008 0.005973 0.000000
endloop
endfacet
facet normal -0.972504 0.232888 0.000000
outer loop
vertex 0.000019 0.006019 0.150000
vertex 0.000008 0.005973 0.000000
vertex 0.000008 0.005973 0.150000
endloop
endfacet
facet normal -0.992640 0.121099 0.000000
outer loop
vertex 0.000346 0.001222 0.150000
vertex 0.000346 0.001222 0.000000
vertex 0.000337 0.001145 0.000000
endloop
endfacet
facet normal -0.992640 0.121100 0.000000
outer loop
vertex 0.000346 0.001222 0.150000
vertex 0.000337 0.001145 0.000000
vertex 0.000337 0.001145 0.150000
endloop
endfacet
facet normal -0.482863 -0.875696 0.000000
outer loop
vertex 0.000867 0.000240 0.150000
vertex 0.000867 0.000240 0.000000
vertex 0.000933 0.000204 0.000000
endloop
endfacet
facet normal -0.482864 -0.875695 0.000000
outer loop
vertex 0.000867 0.000240 0.150000
vertex 0.000933 0.000204 0.000000
vertex 0.000933 0.000204 0.150000
endloop
endfacet
facet normal -0.226961 0.973904 0.000000
outer loop
vertex 0.001018 0.006878 0.150000
vertex 0.001018 0.006878 0.000000
vertex 0.000912 0.006853 0.000000
endloop
endfacet
facet normal -0.226961 0.973904 0.000000
outer loop
vertex 0.001018 0.006878 0.150000
vertex 0.000912 0.006853 0.000000
vertex 0.000912 0.006853 0.150000
endloop
endfacet
facet normal -0.991980 0.126394 0.000000
outer loop
vertex 0.000586 0.002249 0.000000
vertex 0.000586 0.002249 0.150000
vertex 0.000605 0.002403 0.150000
endloop
endfacet
facet normal -0.991980 0.126394 0.000000
outer loop
vertex 0.000586 0.002249 0.000000
vertex 0.000605 0.002403 0.150000
vertex 0.000605 0.002403 0.000000
endloop
endfacet
endsolid Exported from Blender-3.6.8
