solid Exported from Blender-3.6.8
facet normal -0.120205 -0.992749 0.000000
outer loop
vertex 0.000844 0.000236 0.150000
vertex 0.000844 0.000236 0.000000
vertex 0.001291 0.000182 0.000000
endloop
endfacet
facet normal -0.120205 -0.992749 0.000000
outer loop
vertex 0.000844 0.000236 0.150000
vertex 0.001291 0.000182 0.000000
vertex 0.001291 0.000182 0.150000
endloop
endfacet
facet normal -0.845450 0.534054 0.000000
outer loop
vertex 0.002118 0.007458 0.000000
vertex 0.000361 0.004676 0.000000
vertex 0.000361 0.004676 0.150000
endloop
endfacet
facet normal -0.845451 0.534054 0.000000
outer loop
vertex 0.002118 0.007458 0.000000
vertex 0.000361 0.004676 0.150000
vertex 0.002118 0.007458 0.150000
endloop
endfacet
facet normal -0.811883 -0.583820 0.000000
outer loop
vertex 0.000383 0.000484 0.150000
vertex 0.000383 0.000484 0.000000
vertex 0.000430 0.000419 0.000000
endloop
endfacet
facet normal -0.811883 -0.583820 0.000000
outer loop
vertex 0.000383 0.000484 0.150000
vertex 0.000430 0.000419 0.000000
vertex 0.000430 0.000419 0.150000
endloop
endfacet
facet normal -0.978943 -0.204136 0.000000
outer loop
vertex 0.000037 0.001387 0.150000
vertex 0.000037 0.001387 0.000000
vertex 0.000100 0.001085 0.000000
endloop
endfacet
facet normal -0.978943 -0.204136 0.000000
outer loop
vertex 0.000037 0.001387 0.150000
vertex 0.000100 0.001085 0.000000
vertex 0.000100 0.001085 0.150000
endloop
endfacet
facet normal -0.525757 0.850635 0.000000
outer loop
vertex 0.003476 0.008297 0.000000
vertex 0.002118 0.007458 0.000000
vertex 0.002118 0.007458 0.150000
endloop
endfacet
facet normal -0.525757 0.850635 0.000000
outer loop
vertex 0.003476 0.008297 0.000000
vertex 0.002118 0.007458 0.150000
vertex 0.003476 0.008297 0.150000
endloop
endfacet
facet normal 0.000000 0.000000 1.000000
outer loop
vertex 0.005589 0.000016 0.150000
vertex 0.005694 0.000058 0.150000
vertex 0.005826 0.000132 0.150000
endloop
endfacet
facet normal -0.000050 0.000000 1.000000
outer loop
vertex 0.005826 0.000132 0.150000
vertex 0.007282 0.001299 0.150000
vertex 0.007554 0.001616 0.150000
endloop
endfacet
facet normal -0.000434 0.000000 1.000000
outer loop
vertex 0.007554 0.001616 0.150000
vertex 0.007797 0.002003 0.150000
vertex 0.008560 0.003765 0.150000
endloop
endfacet
facet normal 0.002164 0.000000 0.999998
outer loop
vertex 0.008560 0.003765 0.150000
vertex 0.008622 0.003938 0.150000
vertex 0.008675 0.004114 0.150000
endloop
endfacet
facet normal 0.000000 0.000000 1.000000
outer loop
vertex 0.008675 0.004114 0.150000
vertex 0.008719 0.004296 0.150000
vertex 0.008778 0.004704 0.150000
endloop
endfacet
facet normal 0.000432 0.000000 1.000000
outer loop
vertex 0.008778 0.004704 0.150000
vertex 0.008792 0.006087 0.150000
vertex 0.008747 0.006497 0.150000
endloop
endfacet
facet normal -0.000325 0.000000 1.000000
outer loop
vertex 0.008747 0.006497 0.150000
vertex 0.008661 0.006876 0.150000
vertex 0.008523 0.007225 0.150000
endloop
endfacet
facet normal -0.001632 0.000000 0.999999
outer loop
vertex 0.008523 0.007225 0.150000
vertex 0.008431 0.007387 0.150000
vertex 0.008329 0.007544 0.150000
endloop
endfacet
facet normal -0.003283 0.000000 0.999995
outer loop
vertex 0.008329 0.007544 0.150000
vertex 0.008221 0.007699 0.150000
vertex 0.008109 0.007849 0.150000
endloop
endfacet
facet normal 0.000000 0.000000 1.000000
outer loop
vertex 0.008109 0.007849 0.150000
vertex 0.007994 0.007994 0.150000
vertex 0.007754 0.008262 0.150000
endloop
endfacet
facet normal 0.000000 0.000000 1.000000
outer loop
vertex 0.007754 0.008262 0.150000
vertex 0.007506 0.008495 0.150000
vertex 0.007254 0.008681 0.150000
endloop
endfacet
facet normal 0.000981 0.000000 1.000000
outer loop
vertex 0.007254 0.008681 0.150000
vertex 0.007128 0.008754 0.150000
vertex 0.007003 0.008812 0.150000
endloop
endfacet
facet normal -0.010100 0.000000 0.999949
outer loop
vertex 0.006876 0.008865 0.150000
vertex 0.006744 0.008922 0.150000
vertex 0.006606 0.008980 0.150000
endloop
endfacet
facet normal -0.000550 0.000000 1.000000
outer loop
vertex 0.007254 0.008681 0.150000
vertex 0.007003 0.008812 0.150000
vertex 0.006876 0.008865 0.150000
endloop
endfacet
facet normal 0.000252 0.000000 1.000000
outer loop
vertex 0.008109 0.007849 0.150000
vertex 0.007754 0.008262 0.150000
vertex 0.007254 0.008681 0.150000
endloop
endfacet
facet normal 0.000000 0.000000 1.000000
outer loop
vertex 0.008523 0.007225 0.150000
vertex 0.008329 0.007544 0.150000
vertex 0.008109 0.007849 0.150000
endloop
endfacet
facet normal -0.000077 0.000000 1.000000
outer loop
vertex 0.008778 0.004704 0.150000
vertex 0.008747 0.006497 0.150000
vertex 0.008523 0.007225 0.150000
endloop
endfacet
facet normal 0.000450 0.000000 1.000000
outer loop
vertex 0.008560 0.003765 0.150000
vertex 0.008675 0.004114 0.150000
vertex 0.008778 0.004704 0.150000
endloop
endfacet
facet normal 0.000026 0.000000 1.000000
outer loop
vertex 0.005826 0.000132 0.150000
vertex 0.007554 0.001616 0.150000
vertex 0.008560 0.003765 0.150000
endloop
endfacet
facet normal -0.000595 0.000000 1.000000
outer loop
vertex 0.005504 0.000001 0.150000
vertex 0.005589 0.000016 0.150000
vertex 0.005826 0.000132 0.150000
endloop
endfacet
facet normal 0.000225 0.000000 1.000000
outer loop
vertex 0.005365 0.000022 0.150000
vertex 0.005431 0.000004 0.150000
vertex 0.005504 0.000001 0.150000
endloop
endfacet
facet normal 0.000000 0.000000 1.000000
outer loop
vertex 0.005225 0.000073 0.150000
vertex 0.005365 0.000022 0.150000
vertex 0.005504 0.000001 0.150000
endloop
endfacet
facet normal 0.000000 0.000000 1.000000
outer loop
vertex 0.005504 0.000001 0.150000
vertex 0.005826 0.000132 0.150000
vertex 0.008560 0.003765 0.150000
endloop
endfacet
facet normal 0.000000 0.000000 1.000000
outer loop
vertex 0.008560 0.003765 0.150000
vertex 0.008778 0.004704 0.150000
vertex 0.008523 0.007225 0.150000
endloop
endfacet
facet normal 0.000000 0.000000 1.000000
outer loop
vertex 0.008523 0.007225 0.150000
vertex 0.008109 0.007849 0.150000
vertex 0.007254 0.008681 0.150000
endloop
endfacet
facet normal 0.000000 0.000000 1.000000
outer loop
vertex 0.007254 0.008681 0.150000
vertex 0.006876 0.008865 0.150000
vertex 0.006606 0.008980 0.150000
endloop
endfacet
facet normal 0.000000 0.000000 1.000000
outer loop
vertex 0.006606 0.008980 0.150000
vertex 0.006463 0.009036 0.150000
vertex 0.006159 0.009128 0.150000
endloop
endfacet
facet normal -0.000171 0.000000 1.000000
outer loop
vertex 0.006159 0.009128 0.150000
vertex 0.005997 0.009158 0.150000
vertex 0.005829 0.009172 0.150000
endloop
endfacet
facet normal 0.000000 0.000000 1.000000
outer loop
vertex 0.005829 0.009172 0.150000
vertex 0.005653 0.009168 0.150000
vertex 0.005469 0.009142 0.150000
endloop
endfacet
facet normal 0.000000 0.000000 1.000000
outer loop
vertex 0.005469 0.009142 0.150000
vertex 0.005278 0.009092 0.150000
vertex 0.005078 0.009013 0.150000
endloop
endfacet
facet normal 0.000187 0.000000 1.000000
outer loop
vertex 0.005469 0.009142 0.150000
vertex 0.005078 0.009013 0.150000
vertex 0.004875 0.008921 0.150000
endloop
endfacet
facet normal 0.000000 0.000000 1.000000
outer loop
vertex 0.006159 0.009128 0.150000
vertex 0.005829 0.009172 0.150000
vertex 0.005469 0.009142 0.150000
endloop
endfacet
facet normal -0.000095 0.000000 1.000000
outer loop
vertex 0.007254 0.008681 0.150000
vertex 0.006606 0.008980 0.150000
vertex 0.006159 0.009128 0.150000
endloop
endfacet
facet normal 0.000013 0.000000 1.000000
outer loop
vertex 0.008560 0.003765 0.150000
vertex 0.008523 0.007225 0.150000
vertex 0.007254 0.008681 0.150000
endloop
endfacet
facet normal -0.000091 0.000000 1.000000
outer loop
vertex 0.005225 0.000073 0.150000
vertex 0.005504 0.000001 0.150000
vertex 0.008560 0.003765 0.150000
endloop
endfacet
facet normal 0.000000 0.000000 1.000000
outer loop
vertex 0.005138 0.000095 0.150000
vertex 0.005225 0.000073 0.150000
vertex 0.008560 0.003765 0.150000
endloop
endfacet
facet normal 0.000000 0.000000 1.000000
outer loop
vertex 0.008560 0.003765 0.150000
vertex 0.007254 0.008681 0.150000
vertex 0.006159 0.009128 0.150000
endloop
endfacet
facet normal 0.000000 0.000000 1.000000
outer loop
vertex 0.006159 0.009128 0.150000
vertex 0.005469 0.009142 0.150000
vertex 0.004875 0.008921 0.150000
endloop
endfacet
facet normal 0.000076 0.000000 1.000000
outer loop
vertex 0.006159 0.009128 0.150000
vertex 0.004875 0.008921 0.150000
vertex 0.004676 0.008833 0.150000
endloop
endfacet
facet normal -0.000004 0.000000 1.000000
outer loop
vertex 0.005138 0.000095 0.150000
vertex 0.008560 0.003765 0.150000
vertex 0.006159 0.009128 0.150000
endloop
endfacet
facet normal -0.000009 0.000000 1.000000
outer loop
vertex 0.001291 0.000182 0.150000
vertex 0.003816 0.000074 0.150000
vertex 0.005030 0.000106 0.150000
endloop
endfacet
facet normal 0.000238 0.000000 1.000000
outer loop
vertex 0.005030 0.000106 0.150000
vertex 0.005138 0.000095 0.150000
vertex 0.006159 0.009128 0.150000
endloop
endfacet
facet normal -0.000080 0.000000 1.000000
outer loop
vertex 0.006159 0.009128 0.150000
vertex 0.004676 0.008833 0.150000
vertex 0.004481 0.008749 0.150000
endloop
endfacet
facet normal 0.009232 0.000000 0.999957
outer loop
vertex 0.004481 0.008749 0.150000
vertex 0.004110 0.008589 0.150000
vertex 0.003936 0.008513 0.150000
endloop
endfacet
facet normal 0.003990 0.000000 0.999992
outer loop
vertex 0.003936 0.008513 0.150000
vertex 0.003771 0.008439 0.150000
vertex 0.003618 0.008367 0.150000
endloop
endfacet
facet normal 0.000000 0.000000 1.000000
outer loop
vertex 0.003618 0.008367 0.150000
vertex 0.003476 0.008297 0.150000
vertex 0.002118 0.007458 0.150000
endloop
endfacet
facet normal 0.000265 0.000000 1.000000
outer loop
vertex 0.002118 0.007458 0.150000
vertex 0.000361 0.004676 0.150000
vertex 0.000307 0.004559 0.150000
endloop
endfacet
facet normal 0.000000 0.000000 1.000000
outer loop
vertex 0.000307 0.004559 0.150000
vertex 0.000250 0.004335 0.150000
vertex 0.000011 0.002682 0.150000
endloop
endfacet
facet normal 0.000000 0.000000 1.000000
outer loop
vertex 0.000011 0.002682 0.150000
vertex 0.000007 0.002565 0.150000
vertex 0.000006 0.002455 0.150000
endloop
endfacet
facet normal -0.101035 0.000000 0.994883
outer loop
vertex 0.000006 0.002455 0.150000
vertex 0.000004 0.002328 0.150000
vertex 0.000001 0.002187 0.150000
endloop
endfacet
facet normal 0.000000 0.000000 1.000000
outer loop
vertex 0.000001 0.002187 0.150000
vertex -0.000000 0.002035 0.150000
vertex 0.000002 0.001876 0.150000
endloop
endfacet
facet normal -0.002466 0.000000 0.999997
outer loop
vertex 0.000002 0.001876 0.150000
vertex 0.000007 0.001712 0.150000
vertex 0.000037 0.001387 0.150000
endloop
endfacet
facet normal 0.000000 0.000000 1.000000
outer loop
vertex 0.000037 0.001387 0.150000
vertex 0.000100 0.001085 0.150000
vertex 0.000147 0.000952 0.150000
endloop
endfacet
facet normal 0.000000 0.000000 1.000000
outer loop
vertex 0.000147 0.000952 0.150000
vertex 0.000207 0.000835 0.150000
vertex 0.000264 0.000732 0.150000
endloop
endfacet
facet normal 0.000000 0.000000 1.000000
outer loop
vertex 0.000308 0.000640 0.150000
vertex 0.000345 0.000557 0.150000
vertex 0.000383 0.000484 0.150000
endloop
endfacet
facet normal 0.000000 0.000000 1.000000
outer loop
vertex 0.000037 0.001387 0.150000
vertex 0.000147 0.000952 0.150000
vertex 0.000264 0.000732 0.150000
endloop
endfacet
facet normal 0.000000 0.000000 1.000000
outer loop
vertex 0.000264 0.000732 0.150000
vertex 0.000308 0.000640 0.150000
vertex 0.000383 0.000484 0.150000
endloop
endfacet
facet normal 0.000000 0.000000 1.000000
outer loop
vertex 0.000383 0.000484 0.150000
vertex 0.000430 0.000419 0.150000
vertex 0.000492 0.000363 0.150000
endloop
endfacet
facet normal 0.000000 0.000000 1.000000
outer loop
vertex 0.000492 0.000363 0.150000
vertex 0.000577 0.000314 0.150000
vertex 0.000692 0.000272 0.150000
endloop
endfacet
facet normal 0.000000 0.000000 1.000000
outer loop
vertex 0.000692 0.000272 0.150000
vertex 0.000844 0.000236 0.150000
vertex 0.001291 0.000182 0.150000
endloop
endfacet
facet normal 0.000000 0.000000 1.000000
outer loop
vertex 0.001291 0.000182 0.150000
vertex 0.005030 0.000106 0.150000
vertex 0.006159 0.009128 0.150000
endloop
endfacet
facet normal -0.000038 0.000000 1.000000
outer loop
vertex 0.006159 0.009128 0.150000
vertex 0.004481 0.008749 0.150000
vertex 0.003936 0.008513 0.150000
endloop
endfacet
facet normal 0.000000 0.000000 1.000000
outer loop
vertex 0.003936 0.008513 0.150000
vertex 0.003618 0.008367 0.150000
vertex 0.002118 0.007458 0.150000
endloop
endfacet
facet normal 0.000000 0.000000 1.000000
outer loop
vertex 0.002118 0.007458 0.150000
vertex 0.000307 0.004559 0.150000
vertex 0.000011 0.002682 0.150000
endloop
endfacet
facet normal 0.032304 0.000000 0.999478
outer loop
vertex 0.000011 0.002682 0.150000
vertex 0.000006 0.002455 0.150000
vertex 0.000001 0.002187 0.150000
endloop
endfacet
facet normal 0.000000 0.000000 1.000000
outer loop
vertex 0.000001 0.002187 0.150000
vertex 0.000002 0.001876 0.150000
vertex 0.000037 0.001387 0.150000
endloop
endfacet
facet normal -0.000675 0.000000 1.000000
outer loop
vertex 0.000037 0.001387 0.150000
vertex 0.000264 0.000732 0.150000
vertex 0.000383 0.000484 0.150000
endloop
endfacet
facet normal 0.000000 0.000000 1.000000
outer loop
vertex 0.000383 0.000484 0.150000
vertex 0.000492 0.000363 0.150000
vertex 0.000692 0.000272 0.150000
endloop
endfacet
facet normal 0.000000 0.000000 1.000000
outer loop
vertex 0.000692 0.000272 0.150000
vertex 0.001291 0.000182 0.150000
vertex 0.006159 0.009128 0.150000
endloop
endfacet
facet normal 0.000000 0.000000 1.000000
outer loop
vertex 0.006159 0.009128 0.150000
vertex 0.003936 0.008513 0.150000
vertex 0.002118 0.007458 0.150000
endloop
endfacet
facet normal 0.000000 0.000000 1.000000
outer loop
vertex 0.002118 0.007458 0.150000
vertex 0.000011 0.002682 0.150000
vertex 0.000001 0.002187 0.150000
endloop
endfacet
facet normal -0.000119 0.000000 1.000000
outer loop
vertex 0.000001 0.002187 0.150000
vertex 0.000037 0.001387 0.150000
vertex 0.000383 0.000484 0.150000
endloop
endfacet
facet normal -0.000060 0.000000 1.000000
outer loop
vertex 0.000383 0.000484 0.150000
vertex 0.000692 0.000272 0.150000
vertex 0.006159 0.009128 0.150000
endloop
endfacet
facet normal -0.000007 0.000000 1.000000
outer loop
vertex 0.006159 0.009128 0.150000
vertex 0.002118 0.007458 0.150000
vertex 0.000001 0.002187 0.150000
endloop
endfacet
facet normal 0.000018 0.000000 1.000000
outer loop
vertex 0.006159 0.009128 0.150000
vertex 0.000001 0.002187 0.150000
vertex 0.000383 0.000484 0.150000
endloop
endfacet
facet normal 0.289053 0.957313 0.000000
outer loop
vertex 0.006463 0.009036 0.000000
vertex 0.006159 0.009128 0.000000
vertex 0.006159 0.009128 0.150000
endloop
endfacet
facet normal 0.289053 0.957313 0.000000
outer loop
vertex 0.006463 0.009036 0.000000
vertex 0.006159 0.009128 0.150000
vertex 0.006463 0.009036 0.150000
endloop
endfacet
facet normal -0.022849 0.999739 0.000000
outer loop
vertex 0.005829 0.009172 0.150000
vertex 0.005829 0.009172 0.000000
vertex 0.005653 0.009168 0.000000
endloop
endfacet
facet normal -0.022848 0.999739 0.000000
outer loop
vertex 0.005829 0.009172 0.150000
vertex 0.005653 0.009168 0.000000
vertex 0.005653 0.009168 0.150000
endloop
endfacet
facet normal 0.870586 0.492017 0.000000
outer loop
vertex 0.008523 0.007225 0.150000
vertex 0.008523 0.007225 0.000000
vertex 0.008431 0.007387 0.000000
endloop
endfacet
facet normal 0.870579 0.492029 0.000000
outer loop
vertex 0.008523 0.007225 0.150000
vertex 0.008431 0.007387 0.000000
vertex 0.008431 0.007387 0.150000
endloop
endfacet
facet normal -0.442744 0.896648 0.000000
outer loop
vertex 0.003618 0.008367 0.000000
vertex 0.003476 0.008297 0.000000
vertex 0.003476 0.008297 0.150000
endloop
endfacet
facet normal -0.442742 0.896649 0.000000
outer loop
vertex 0.003618 0.008367 0.000000
vertex 0.003476 0.008297 0.150000
vertex 0.003618 0.008367 0.150000
endloop
endfacet
facet normal -0.423090 0.906088 0.000000
outer loop
vertex 0.003771 0.008439 0.000000
vertex 0.003618 0.008367 0.000000
vertex 0.003618 0.008367 0.150000
endloop
endfacet
facet normal -0.423088 0.906088 0.000000
outer loop
vertex 0.003771 0.008439 0.000000
vertex 0.003618 0.008367 0.150000
vertex 0.003771 0.008439 0.150000
endloop
endfacet
facet normal -0.409542 0.912291 0.000000
outer loop
vertex 0.003936 0.008513 0.000000
vertex 0.003771 0.008439 0.000000
vertex 0.003771 0.008439 0.150000
endloop
endfacet
facet normal -0.409542 0.912291 0.000000
outer loop
vertex 0.003936 0.008513 0.000000
vertex 0.003771 0.008439 0.150000
vertex 0.003936 0.008513 0.150000
endloop
endfacet
facet normal 0.000000 0.000000 -1.000000
outer loop
vertex 0.004676 0.008833 0.000000
vertex 0.004481 0.008749 0.000000
vertex 0.004110 0.008589 0.000000
endloop
endfacet
facet normal -0.400978 0.916088 0.000000
outer loop
vertex 0.004110 0.008589 0.000000
vertex 0.003936 0.008513 0.000000
vertex 0.003936 0.008513 0.150000
endloop
endfacet
facet normal -0.400979 0.916087 0.000000
outer loop
vertex 0.004110 0.008589 0.000000
vertex 0.003936 0.008513 0.150000
vertex 0.004110 0.008589 0.150000
endloop
endfacet
facet normal 0.000000 0.000000 -1.000000
outer loop
vertex 0.004875 0.008921 0.000000
vertex 0.004676 0.008833 0.000000
vertex 0.004110 0.008589 0.000000
endloop
endfacet
facet normal -0.365978 0.930623 0.000000
outer loop
vertex 0.005278 0.009092 0.150000
vertex 0.005278 0.009092 0.000000
vertex 0.005078 0.009013 0.000000
endloop
endfacet
facet normal 0.000000 0.000000 -1.000000
outer loop
vertex 0.005078 0.009013 0.000000
vertex 0.004875 0.008921 0.000000
vertex 0.004110 0.008589 0.000000
endloop
endfacet
facet normal -0.396254 0.918141 0.000000
outer loop
vertex 0.004110 0.008589 0.000000
vertex 0.004110 0.008589 0.150000
vertex 0.004481 0.008749 0.150000
endloop
endfacet
facet normal -0.398423 0.917202 0.000006
outer loop
vertex 0.004110 0.008589 0.000000
vertex 0.004481 0.008749 0.150000
vertex 0.004676 0.008833 0.150000
endloop
endfacet
facet normal -0.401644 0.915796 0.000055
outer loop
vertex 0.005278 0.009092 0.150000
vertex 0.005078 0.009013 0.000000
vertex 0.004110 0.008589 0.000000
endloop
endfacet
facet normal -0.365978 0.930623 -0.000272
outer loop
vertex 0.005078 0.009013 0.150000
vertex 0.005278 0.009092 0.150000
vertex 0.004110 0.008589 0.000000
endloop
endfacet
facet normal -0.403926 0.914792 0.000031
outer loop
vertex 0.004110 0.008589 0.000000
vertex 0.004676 0.008833 0.150000
vertex 0.004875 0.008921 0.150000
endloop
endfacet
facet normal -0.412224 0.911083 0.000082
outer loop
vertex 0.004875 0.008921 0.150000
vertex 0.005078 0.009013 0.150000
vertex 0.004110 0.008589 0.000000
endloop
endfacet
facet normal 0.179803 0.983703 0.000000
outer loop
vertex 0.006159 0.009128 0.150000
vertex 0.006159 0.009128 0.000000
vertex 0.005997 0.009158 0.000000
endloop
endfacet
facet normal 0.179803 0.983703 0.000000
outer loop
vertex 0.006159 0.009128 0.150000
vertex 0.005997 0.009158 0.000000
vertex 0.005997 0.009158 0.150000
endloop
endfacet
facet normal -0.969277 0.245972 0.000000
outer loop
vertex 0.000307 0.004559 0.150000
vertex 0.000307 0.004559 0.000000
vertex 0.000250 0.004335 0.000000
endloop
endfacet
facet normal -0.969277 0.245972 0.000000
outer loop
vertex 0.000307 0.004559 0.150000
vertex 0.000250 0.004335 0.000000
vertex 0.000250 0.004335 0.150000
endloop
endfacet
facet normal 0.625435 -0.780276 0.000000
outer loop
vertex 0.005826 0.000132 0.000000
vertex 0.007282 0.001299 0.000000
vertex 0.007282 0.001299 0.150000
endloop
endfacet
facet normal 0.625435 -0.780276 0.000000
outer loop
vertex 0.005826 0.000132 0.000000
vertex 0.007282 0.001299 0.150000
vertex 0.005826 0.000132 0.150000
endloop
endfacet
facet normal 0.594969 0.803748 0.000000
outer loop
vertex 0.007506 0.008495 0.000000
vertex 0.007254 0.008681 0.000000
vertex 0.007254 0.008681 0.150000
endloop
endfacet
facet normal 0.594971 0.803747 0.000000
outer loop
vertex 0.007506 0.008495 0.000000
vertex 0.007254 0.008681 0.150000
vertex 0.007506 0.008495 0.150000
endloop
endfacet
facet normal 0.975254 0.221088 0.000000
outer loop
vertex 0.008747 0.006497 0.150000
vertex 0.008747 0.006497 0.000000
vertex 0.008661 0.006876 0.000000
endloop
endfacet
facet normal 0.975253 0.221091 0.000000
outer loop
vertex 0.008747 0.006497 0.150000
vertex 0.008661 0.006876 0.000000
vertex 0.008661 0.006876 0.150000
endloop
endfacet
facet normal 0.501216 0.865322 0.000000
outer loop
vertex 0.007254 0.008681 0.150000
vertex 0.007254 0.008681 0.000000
vertex 0.007128 0.008754 0.000000
endloop
endfacet
facet normal 0.501216 0.865322 0.000000
outer loop
vertex 0.007254 0.008681 0.150000
vertex 0.007128 0.008754 0.000000
vertex 0.007128 0.008754 0.150000
endloop
endfacet
facet normal -0.989743 0.142857 0.000000
outer loop
vertex 0.000250 0.004335 0.000000
vertex 0.000011 0.002682 0.000000
vertex 0.000011 0.002682 0.150000
endloop
endfacet
facet normal -0.989743 0.142857 0.000000
outer loop
vertex 0.000250 0.004335 0.000000
vertex 0.000011 0.002682 0.150000
vertex 0.000250 0.004335 0.150000
endloop
endfacet
facet normal 0.781868 0.623444 0.000000
outer loop
vertex 0.008109 0.007849 0.000000
vertex 0.007994 0.007994 0.000000
vertex 0.007994 0.007994 0.150000
endloop
endfacet
facet normal 0.781872 0.623439 0.000000
outer loop
vertex 0.008109 0.007849 0.000000
vertex 0.007994 0.007994 0.150000
vertex 0.008109 0.007849 0.150000
endloop
endfacet
facet normal 0.802312 0.596905 0.000000
outer loop
vertex 0.008221 0.007699 0.000000
vertex 0.008109 0.007849 0.000000
vertex 0.008109 0.007849 0.150000
endloop
endfacet
facet normal 0.802316 0.596900 0.000000
outer loop
vertex 0.008221 0.007699 0.000000
vertex 0.008109 0.007849 0.150000
vertex 0.008221 0.007699 0.150000
endloop
endfacet
facet normal 0.837516 0.546413 0.000000
outer loop
vertex 0.008431 0.007387 0.150000
vertex 0.008431 0.007387 0.000000
vertex 0.008329 0.007544 0.000000
endloop
endfacet
facet normal 0.820701 0.571358 0.000000
outer loop
vertex 0.008329 0.007544 0.000000
vertex 0.008221 0.007699 0.000000
vertex 0.008221 0.007699 0.150000
endloop
endfacet
facet normal 0.837516 0.546413 0.000000
outer loop
vertex 0.008329 0.007544 0.150000
vertex 0.008431 0.007387 0.150000
vertex 0.008329 0.007544 0.000000
endloop
endfacet
facet normal 0.820701 0.571358 0.000000
outer loop
vertex 0.008221 0.007699 0.150000
vertex 0.008329 0.007544 0.150000
vertex 0.008329 0.007544 0.000000
endloop
endfacet
facet normal 0.000000 0.000000 1.000000
outer loop
vertex 0.000001 0.002187 0.000000
vertex -0.000000 0.002035 0.000000
vertex 0.000002 0.001876 0.000000
endloop
endfacet
facet normal -0.999375 -0.035344 0.000000
outer loop
vertex 0.000002 0.001876 0.000000
vertex 0.000007 0.001712 0.000000
vertex 0.000007 0.001712 0.150000
endloop
endfacet
facet normal -0.999375 -0.035344 0.000000
outer loop
vertex 0.000002 0.001876 0.000000
vertex 0.000007 0.001712 0.150000
vertex 0.000002 0.001876 0.150000
endloop
endfacet
facet normal 0.000000 0.000000 1.000000
outer loop
vertex 0.000004 0.002328 0.000000
vertex 0.000001 0.002187 0.000000
vertex 0.000002 0.001876 0.000000
endloop
endfacet
facet normal 0.000000 0.000000 1.000000
outer loop
vertex 0.000011 0.002682 0.000000
vertex 0.000007 0.002565 0.000000
vertex 0.000006 0.002455 0.000000
endloop
endfacet
facet normal 0.000000 0.000000 1.000000
outer loop
vertex 0.000006 0.002455 0.000000
vertex 0.000004 0.002328 0.000000
vertex 0.000002 0.001876 0.000000
endloop
endfacet
facet normal -0.999948 -0.010155 0.000000
outer loop
vertex 0.000002 0.001876 0.000000
vertex 0.000002 0.001876 0.150000
vertex -0.000000 0.002035 0.150000
endloop
endfacet
facet normal -0.999971 0.007603 -0.000019
outer loop
vertex 0.000002 0.001876 0.000000
vertex -0.000000 0.002035 0.150000
vertex 0.000001 0.002187 0.150000
endloop
endfacet
facet normal 0.000000 0.000000 1.000000
outer loop
vertex 0.000011 0.002682 0.000000
vertex 0.000006 0.002455 0.000000
vertex 0.000002 0.001876 0.000000
endloop
endfacet
facet normal -0.999424 0.033936 0.000000
outer loop
vertex 0.000007 0.002565 0.150000
vertex 0.000011 0.002682 0.150000
vertex 0.000011 0.002682 0.000000
endloop
endfacet
facet normal -0.999944 0.010537 -0.000018
outer loop
vertex 0.000006 0.002455 0.150000
vertex 0.000007 0.002565 0.150000
vertex 0.000011 0.002682 0.000000
endloop
endfacet
facet normal -0.999927 0.012103 -0.000028
outer loop
vertex 0.000011 0.002682 0.000000
vertex 0.000002 0.001876 0.000000
vertex 0.000001 0.002187 0.150000
endloop
endfacet
facet normal -0.999800 0.019996 -0.000004
outer loop
vertex 0.000004 0.002328 0.150000
vertex 0.000006 0.002455 0.150000
vertex 0.000011 0.002682 0.000000
endloop
endfacet
facet normal -0.999838 0.018000 -0.000009
outer loop
vertex 0.000001 0.002187 0.150000
vertex 0.000004 0.002328 0.150000
vertex 0.000011 0.002682 0.000000
endloop
endfacet
facet normal 0.759597 -0.650393 0.000000
outer loop
vertex 0.007282 0.001299 0.150000
vertex 0.007282 0.001299 0.000000
vertex 0.007554 0.001616 0.000000
endloop
endfacet
facet normal 0.759597 -0.650393 0.000000
outer loop
vertex 0.007282 0.001299 0.150000
vertex 0.007554 0.001616 0.000000
vertex 0.007554 0.001616 0.150000
endloop
endfacet
facet normal 0.994116 0.108317 0.000000
outer loop
vertex 0.008792 0.006087 0.150000
vertex 0.008792 0.006087 0.000000
vertex 0.008747 0.006497 0.000000
endloop
endfacet
facet normal 0.994117 0.108313 0.000000
outer loop
vertex 0.008792 0.006087 0.150000
vertex 0.008747 0.006497 0.000000
vertex 0.008747 0.006497 0.150000
endloop
endfacet
facet normal -0.673478 -0.739208 0.000000
outer loop
vertex 0.000430 0.000419 0.150000
vertex 0.000430 0.000419 0.000000
vertex 0.000492 0.000363 0.000000
endloop
endfacet
facet normal -0.673478 -0.739208 0.000000
outer loop
vertex 0.000430 0.000419 0.150000
vertex 0.000492 0.000363 0.000000
vertex 0.000492 0.000363 0.150000
endloop
endfacet
facet normal 0.846276 -0.532745 0.000000
outer loop
vertex 0.007554 0.001616 0.000000
vertex 0.007797 0.002003 0.000000
vertex 0.007797 0.002003 0.150000
endloop
endfacet
facet normal 0.846278 -0.532742 0.000000
outer loop
vertex 0.007554 0.001616 0.000000
vertex 0.007797 0.002003 0.150000
vertex 0.007554 0.001616 0.150000
endloop
endfacet
facet normal 0.989853 -0.142098 0.000000
outer loop
vertex 0.008719 0.004296 0.150000
vertex 0.008719 0.004296 0.000000
vertex 0.008778 0.004704 0.000000
endloop
endfacet
facet normal 0.989852 -0.142102 0.000000
outer loop
vertex 0.008719 0.004296 0.150000
vertex 0.008778 0.004704 0.000000
vertex 0.008778 0.004704 0.150000
endloop
endfacet
facet normal 0.000000 0.000000 -1.000000
outer loop
vertex 0.007506 0.008495 0.000000
vertex 0.007754 0.008262 0.000000
vertex 0.007994 0.007994 0.000000
endloop
endfacet
facet normal 0.000000 0.000000 -1.000000
outer loop
vertex 0.007994 0.007994 0.000000
vertex 0.008109 0.007849 0.000000
vertex 0.008221 0.007699 0.000000
endloop
endfacet
facet normal 0.000000 0.000000 -1.000000
outer loop
vertex 0.008221 0.007699 0.000000
vertex 0.008329 0.007544 0.000000
vertex 0.008431 0.007387 0.000000
endloop
endfacet
facet normal 0.000000 0.000000 -1.000000
outer loop
vertex 0.008431 0.007387 0.000000
vertex 0.008523 0.007225 0.000000
vertex 0.008661 0.006876 0.000000
endloop
endfacet
facet normal 0.000000 0.000000 -1.000000
outer loop
vertex 0.008661 0.006876 0.000000
vertex 0.008747 0.006497 0.000000
vertex 0.008792 0.006087 0.000000
endloop
endfacet
facet normal 0.000000 0.000000 -1.000000
outer loop
vertex 0.008792 0.006087 0.000000
vertex 0.008778 0.004704 0.000000
vertex 0.008719 0.004296 0.000000
endloop
endfacet
facet normal 0.000000 0.000000 -1.000000
outer loop
vertex 0.008719 0.004296 0.000000
vertex 0.008675 0.004114 0.000000
vertex 0.008622 0.003938 0.000000
endloop
endfacet
facet normal 0.000000 0.000000 -1.000000
outer loop
vertex 0.008622 0.003938 0.000000
vertex 0.008560 0.003765 0.000000
vertex 0.007797 0.002003 0.000000
endloop
endfacet
facet normal 0.000000 0.000000 -1.000000
outer loop
vertex 0.007797 0.002003 0.000000
vertex 0.007554 0.001616 0.000000
vertex 0.007282 0.001299 0.000000
endloop
endfacet
facet normal 0.000000 0.000000 -1.000000
outer loop
vertex 0.007282 0.001299 0.000000
vertex 0.005826 0.000132 0.000000
vertex 0.005694 0.000058 0.000000
endloop
endfacet
facet normal 0.000000 0.000000 -1.000000
outer loop
vertex 0.005694 0.000058 0.000000
vertex 0.005589 0.000016 0.000000
vertex 0.005504 0.000001 0.000000
endloop
endfacet
facet normal 0.000000 0.000000 -1.000000
outer loop
vertex 0.005504 0.000001 0.000000
vertex 0.005431 0.000004 0.000000
vertex 0.005365 0.000022 0.000000
endloop
endfacet
facet normal 0.000000 0.000000 -1.000000
outer loop
vertex 0.005504 0.000001 0.000000
vertex 0.005365 0.000022 0.000000
vertex 0.005225 0.000073 0.000000
endloop
endfacet
facet normal 0.000000 0.000000 -1.000000
outer loop
vertex 0.007282 0.001299 0.000000
vertex 0.005694 0.000058 0.000000
vertex 0.005504 0.000001 0.000000
endloop
endfacet
facet normal 0.000000 0.000000 -1.000000
outer loop
vertex 0.008622 0.003938 0.000000
vertex 0.007797 0.002003 0.000000
vertex 0.007282 0.001299 0.000000
endloop
endfacet
facet normal 0.000000 0.000000 -1.000000
outer loop
vertex 0.008792 0.006087 0.000000
vertex 0.008719 0.004296 0.000000
vertex 0.008622 0.003938 0.000000
endloop
endfacet
facet normal 0.000000 0.000000 -1.000000
outer loop
vertex 0.008431 0.007387 0.000000
vertex 0.008661 0.006876 0.000000
vertex 0.008792 0.006087 0.000000
endloop
endfacet
facet normal 0.000000 0.000000 -1.000000
outer loop
vertex 0.007994 0.007994 0.000000
vertex 0.008221 0.007699 0.000000
vertex 0.008431 0.007387 0.000000
endloop
endfacet
facet normal 0.000000 0.000000 -1.000000
outer loop
vertex 0.007254 0.008681 0.000000
vertex 0.007506 0.008495 0.000000
vertex 0.007994 0.007994 0.000000
endloop
endfacet
facet normal 0.000000 0.000000 -1.000000
outer loop
vertex 0.007003 0.008812 0.000000
vertex 0.007128 0.008754 0.000000
vertex 0.007254 0.008681 0.000000
endloop
endfacet
facet normal 0.000000 0.000000 -1.000000
outer loop
vertex 0.006606 0.008980 0.000000
vertex 0.006744 0.008922 0.000000
vertex 0.006876 0.008865 0.000000
endloop
endfacet
facet normal 0.000000 0.000000 -1.000000
outer loop
vertex 0.006876 0.008865 0.000000
vertex 0.007003 0.008812 0.000000
vertex 0.007254 0.008681 0.000000
endloop
endfacet
facet normal 0.000000 0.000000 -1.000000
outer loop
vertex 0.007254 0.008681 0.000000
vertex 0.007994 0.007994 0.000000
vertex 0.008431 0.007387 0.000000
endloop
endfacet
facet normal 0.000000 0.000000 -1.000000
outer loop
vertex 0.008431 0.007387 0.000000
vertex 0.008792 0.006087 0.000000
vertex 0.008622 0.003938 0.000000
endloop
endfacet
facet normal 0.000000 0.000000 -1.000000
outer loop
vertex 0.008622 0.003938 0.000000
vertex 0.007282 0.001299 0.000000
vertex 0.005504 0.000001 0.000000
endloop
endfacet
facet normal 0.000000 0.000000 -1.000000
outer loop
vertex 0.008622 0.003938 0.000000
vertex 0.005504 0.000001 0.000000
vertex 0.005225 0.000073 0.000000
endloop
endfacet
facet normal 0.000000 0.000000 -1.000000
outer loop
vertex 0.007254 0.008681 0.000000
vertex 0.008431 0.007387 0.000000
vertex 0.008622 0.003938 0.000000
endloop
endfacet
facet normal 0.000000 0.000000 -1.000000
outer loop
vertex 0.006606 0.008980 0.000000
vertex 0.006876 0.008865 0.000000
vertex 0.007254 0.008681 0.000000
endloop
endfacet
facet normal 0.000000 0.000000 -1.000000
outer loop
vertex 0.006159 0.009128 0.000000
vertex 0.006463 0.009036 0.000000
vertex 0.006606 0.008980 0.000000
endloop
endfacet
facet normal 0.000000 0.000000 -1.000000
outer loop
vertex 0.005829 0.009172 0.000000
vertex 0.005997 0.009158 0.000000
vertex 0.006159 0.009128 0.000000
endloop
endfacet
facet normal 0.000000 0.000000 -1.000000
outer loop
vertex 0.005469 0.009142 0.000000
vertex 0.005653 0.009168 0.000000
vertex 0.005829 0.009172 0.000000
endloop
endfacet
facet normal 0.000000 0.000000 -1.000000
outer loop
vertex 0.005078 0.009013 0.000000
vertex 0.005278 0.009092 0.000000
vertex 0.005469 0.009142 0.000000
endloop
endfacet
facet normal 0.000000 0.000000 -1.000000
outer loop
vertex 0.004875 0.008921 0.000000
vertex 0.005078 0.009013 0.000000
vertex 0.005469 0.009142 0.000000
endloop
endfacet
facet normal 0.000000 0.000000 -1.000000
outer loop
vertex 0.005469 0.009142 0.000000
vertex 0.005829 0.009172 0.000000
vertex 0.006159 0.009128 0.000000
endloop
endfacet
facet normal 0.000000 0.000000 -1.000000
outer loop
vertex 0.006159 0.009128 0.000000
vertex 0.006606 0.008980 0.000000
vertex 0.007254 0.008681 0.000000
endloop
endfacet
facet normal 0.000000 0.000000 -1.000000
outer loop
vertex 0.007254 0.008681 0.000000
vertex 0.008622 0.003938 0.000000
vertex 0.005225 0.000073 0.000000
endloop
endfacet
facet normal 0.000000 0.000000 -1.000000
outer loop
vertex 0.007254 0.008681 0.000000
vertex 0.005225 0.000073 0.000000
vertex 0.005138 0.000095 0.000000
endloop
endfacet
facet normal 0.000000 0.000000 -1.000000
outer loop
vertex 0.005469 0.009142 0.000000
vertex 0.006159 0.009128 0.000000
vertex 0.007254 0.008681 0.000000
endloop
endfacet
facet normal 0.000000 0.000000 -1.000000
outer loop
vertex 0.004676 0.008833 0.000000
vertex 0.004875 0.008921 0.000000
vertex 0.005469 0.009142 0.000000
endloop
endfacet
facet normal 0.000000 0.000000 -1.000000
outer loop
vertex 0.003936 0.008513 0.000000
vertex 0.004110 0.008589 0.000000
vertex 0.004481 0.008749 0.000000
endloop
endfacet
facet normal 0.000000 0.000000 -1.000000
outer loop
vertex 0.004481 0.008749 0.000000
vertex 0.004676 0.008833 0.000000
vertex 0.005469 0.009142 0.000000
endloop
endfacet
facet normal 0.000000 0.000000 -1.000000
outer loop
vertex 0.005469 0.009142 0.000000
vertex 0.007254 0.008681 0.000000
vertex 0.005138 0.000095 0.000000
endloop
endfacet
facet normal 0.000000 0.000000 -1.000000
outer loop
vertex 0.005030 0.000106 0.000000
vertex 0.003816 0.000074 0.000000
vertex 0.001291 0.000182 0.000000
endloop
endfacet
facet normal 0.000000 0.000000 -1.000000
outer loop
vertex 0.005469 0.009142 0.000000
vertex 0.005138 0.000095 0.000000
vertex 0.005030 0.000106 0.000000
endloop
endfacet
facet normal 0.000000 0.000000 -1.000000
outer loop
vertex 0.003936 0.008513 0.000000
vertex 0.004481 0.008749 0.000000
vertex 0.005469 0.009142 0.000000
endloop
endfacet
facet normal 0.000000 0.000000 -1.000000
outer loop
vertex 0.003618 0.008367 0.000000
vertex 0.003771 0.008439 0.000000
vertex 0.003936 0.008513 0.000000
endloop
endfacet
facet normal 0.000000 0.000000 -1.000000
outer loop
vertex 0.002118 0.007458 0.000000
vertex 0.003476 0.008297 0.000000
vertex 0.003618 0.008367 0.000000
endloop
endfacet
facet normal 0.000000 0.000000 -1.000000
outer loop
vertex 0.000307 0.004559 0.000000
vertex 0.000361 0.004676 0.000000
vertex 0.002118 0.007458 0.000000
endloop
endfacet
facet normal 0.000000 0.000000 -1.000000
outer loop
vertex 0.000011 0.002682 0.000000
vertex 0.000250 0.004335 0.000000
vertex 0.000307 0.004559 0.000000
endloop
endfacet
facet normal 0.000000 0.000000 -1.000000
outer loop
vertex 0.000006 0.002455 0.000000
vertex 0.000007 0.002565 0.000000
vertex 0.000011 0.002682 0.000000
endloop
endfacet
facet normal 0.000000 0.000000 -1.000000
outer loop
vertex 0.000001 0.002187 0.000000
vertex 0.000004 0.002328 0.000000
vertex 0.000006 0.002455 0.000000
endloop
endfacet
facet normal 0.000000 0.000000 -1.000000
outer loop
vertex 0.000002 0.001876 0.000000
vertex -0.000000 0.002035 0.000000
vertex 0.000001 0.002187 0.000000
endloop
endfacet
facet normal 0.000000 0.000000 -1.000000
outer loop
vertex 0.000037 0.001387 0.000000
vertex 0.000007 0.001712 0.000000
vertex 0.000002 0.001876 0.000000
endloop
endfacet
facet normal 0.000000 0.000000 -1.000000
outer loop
vertex 0.000147 0.000952 0.000000
vertex 0.000100 0.001085 0.000000
vertex 0.000037 0.001387 0.000000
endloop
endfacet
facet normal 0.000000 0.000000 -1.000000
outer loop
vertex 0.000264 0.000732 0.000000
vertex 0.000207 0.000835 0.000000
vertex 0.000147 0.000952 0.000000
endloop
endfacet
facet normal 0.000000 0.000000 -1.000000
outer loop
vertex 0.000383 0.000484 0.000000
vertex 0.000345 0.000557 0.000000
vertex 0.000308 0.000640 0.000000
endloop
endfacet
facet normal 0.000000 0.000000 -1.000000
outer loop
vertex 0.000264 0.000732 0.000000
vertex 0.000147 0.000952 0.000000
vertex 0.000037 0.001387 0.000000
endloop
endfacet
facet normal 0.000000 0.000000 -1.000000
outer loop
vertex 0.000383 0.000484 0.000000
vertex 0.000308 0.000640 0.000000
vertex 0.000264 0.000732 0.000000
endloop
endfacet
facet normal 0.000000 0.000000 -1.000000
outer loop
vertex 0.000492 0.000363 0.000000
vertex 0.000430 0.000419 0.000000
vertex 0.000383 0.000484 0.000000
endloop
endfacet
facet normal 0.000000 0.000000 -1.000000
outer loop
vertex 0.000692 0.000272 0.000000
vertex 0.000577 0.000314 0.000000
vertex 0.000492 0.000363 0.000000
endloop
endfacet
facet normal 0.000000 0.000000 -1.000000
outer loop
vertex 0.001291 0.000182 0.000000
vertex 0.000844 0.000236 0.000000
vertex 0.000692 0.000272 0.000000
endloop
endfacet
facet normal 0.000000 0.000000 -1.000000
outer loop
vertex 0.005469 0.009142 0.000000
vertex 0.005030 0.000106 0.000000
vertex 0.001291 0.000182 0.000000
endloop
endfacet
facet normal 0.000000 0.000000 -1.000000
outer loop
vertex 0.003618 0.008367 0.000000
vertex 0.003936 0.008513 0.000000
vertex 0.005469 0.009142 0.000000
endloop
endfacet
facet normal 0.000000 0.000000 -1.000000
outer loop
vertex 0.000307 0.004559 0.000000
vertex 0.002118 0.007458 0.000000
vertex 0.003618 0.008367 0.000000
endloop
endfacet
facet normal 0.000000 0.000000 -1.000000
outer loop
vertex 0.000006 0.002455 0.000000
vertex 0.000011 0.002682 0.000000
vertex 0.000307 0.004559 0.000000
endloop
endfacet
facet normal 0.000000 0.000000 -1.000000
outer loop
vertex 0.000002 0.001876 0.000000
vertex 0.000001 0.002187 0.000000
vertex 0.000006 0.002455 0.000000
endloop
endfacet
facet normal 0.000000 0.000000 -1.000000
outer loop
vertex 0.000264 0.000732 0.000000
vertex 0.000037 0.001387 0.000000
vertex 0.000002 0.001876 0.000000
endloop
endfacet
facet normal 0.000000 0.000000 -1.000000
outer loop
vertex 0.000492 0.000363 0.000000
vertex 0.000383 0.000484 0.000000
vertex 0.000264 0.000732 0.000000
endloop
endfacet
facet normal 0.000000 0.000000 -1.000000
outer loop
vertex 0.001291 0.000182 0.000000
vertex 0.000692 0.000272 0.000000
vertex 0.000492 0.000363 0.000000
endloop
endfacet
facet normal 0.000000 0.000000 -1.000000
outer loop
vertex 0.003618 0.008367 0.000000
vertex 0.005469 0.009142 0.000000
vertex 0.001291 0.000182 0.000000
endloop
endfacet
facet normal 0.000000 0.000000 -1.000000
outer loop
vertex 0.000006 0.002455 0.000000
vertex 0.000307 0.004559 0.000000
vertex 0.003618 0.008367 0.000000
endloop
endfacet
facet normal 0.000000 0.000000 -1.000000
outer loop
vertex 0.000264 0.000732 0.000000
vertex 0.000002 0.001876 0.000000
vertex 0.000006 0.002455 0.000000
endloop
endfacet
facet normal 0.000000 0.000000 -1.000000
outer loop
vertex 0.001291 0.000182 0.000000
vertex 0.000492 0.000363 0.000000
vertex 0.000264 0.000732 0.000000
endloop
endfacet
facet normal 0.000000 0.000000 -1.000000
outer loop
vertex 0.000006 0.002455 0.000000
vertex 0.003618 0.008367 0.000000
vertex 0.001291 0.000182 0.000000
endloop
endfacet
facet normal 0.000000 0.000000 -1.000000
outer loop
vertex 0.001291 0.000182 0.000000
vertex 0.000264 0.000732 0.000000
vertex 0.000006 0.002455 0.000000
endloop
endfacet
facet normal -0.942289 -0.334801 0.000000
outer loop
vertex 0.000100 0.001085 0.150000
vertex 0.000100 0.001085 0.000000
vertex 0.000147 0.000952 0.000000
endloop
endfacet
facet normal -0.942289 -0.334801 0.000000
outer loop
vertex 0.000100 0.001085 0.150000
vertex 0.000147 0.000952 0.000000
vertex 0.000147 0.000952 0.150000
endloop
endfacet
facet normal -0.254961 0.966951 0.000000
outer loop
vertex 0.005469 0.009142 0.150000
vertex 0.005469 0.009142 0.000000
vertex 0.005278 0.009092 0.000000
endloop
endfacet
facet normal -0.254963 0.966951 0.000000
outer loop
vertex 0.005469 0.009142 0.150000
vertex 0.005278 0.009092 0.000000
vertex 0.005278 0.009092 0.150000
endloop
endfacet
facet normal -0.499634 -0.866236 0.000000
outer loop
vertex 0.000492 0.000363 0.150000
vertex 0.000492 0.000363 0.000000
vertex 0.000577 0.000314 0.000000
endloop
endfacet
facet normal -0.499634 -0.866236 0.000000
outer loop
vertex 0.000492 0.000363 0.150000
vertex 0.000577 0.000314 0.000000
vertex 0.000577 0.000314 0.150000
endloop
endfacet
facet normal 0.363613 0.931550 0.000000
outer loop
vertex 0.006606 0.008980 0.000000
vertex 0.006463 0.009036 0.000000
vertex 0.006463 0.009036 0.150000
endloop
endfacet
facet normal 0.363609 0.931552 0.000000
outer loop
vertex 0.006606 0.008980 0.000000
vertex 0.006463 0.009036 0.150000
vertex 0.006606 0.008980 0.150000
endloop
endfacet
facet normal 0.389595 0.920986 0.000000
outer loop
vertex 0.006744 0.008922 0.000000
vertex 0.006606 0.008980 0.000000
vertex 0.006606 0.008980 0.150000
endloop
endfacet
facet normal 0.389595 0.920986 0.000000
outer loop
vertex 0.006744 0.008922 0.000000
vertex 0.006606 0.008980 0.150000
vertex 0.006744 0.008922 0.150000
endloop
endfacet
facet normal 0.397315 0.917682 0.000000
outer loop
vertex 0.006876 0.008865 0.000000
vertex 0.006744 0.008922 0.000000
vertex 0.006744 0.008922 0.150000
endloop
endfacet
facet normal 0.397319 0.917681 0.000000
outer loop
vertex 0.006876 0.008865 0.000000
vertex 0.006744 0.008922 0.150000
vertex 0.006876 0.008865 0.150000
endloop
endfacet
facet normal 0.419232 0.907879 0.000000
outer loop
vertex 0.007128 0.008754 0.150000
vertex 0.007128 0.008754 0.000000
vertex 0.007003 0.008812 0.000000
endloop
endfacet
facet normal 0.385049 0.922896 0.000000
outer loop
vertex 0.007003 0.008812 0.000000
vertex 0.006876 0.008865 0.000000
vertex 0.006876 0.008865 0.150000
endloop
endfacet
facet normal 0.419228 0.907881 0.000000
outer loop
vertex 0.007003 0.008812 0.150000
vertex 0.007128 0.008754 0.150000
vertex 0.007003 0.008812 0.000000
endloop
endfacet
facet normal 0.385049 0.922896 0.000000
outer loop
vertex 0.006876 0.008865 0.150000
vertex 0.007003 0.008812 0.150000
vertex 0.007003 0.008812 0.000000
endloop
endfacet
facet normal -0.240777 -0.970580 0.000000
outer loop
vertex 0.005138 0.000095 0.150000
vertex 0.005138 0.000095 0.000000
vertex 0.005225 0.000073 0.000000
endloop
endfacet
facet normal -0.240775 -0.970581 0.000000
outer loop
vertex 0.005138 0.000095 0.150000
vertex 0.005225 0.000073 0.000000
vertex 0.005225 0.000073 0.150000
endloop
endfacet
facet normal -0.995895 -0.090514 0.000000
outer loop
vertex 0.000007 0.001712 0.150000
vertex 0.000007 0.001712 0.000000
vertex 0.000037 0.001387 0.000000
endloop
endfacet
facet normal -0.995895 -0.090514 0.000000
outer loop
vertex 0.000007 0.001712 0.150000
vertex 0.000037 0.001387 0.000000
vertex 0.000037 0.001387 0.150000
endloop
endfacet
facet normal -0.227004 -0.973894 0.000000
outer loop
vertex 0.000692 0.000272 0.150000
vertex 0.000692 0.000272 0.000000
vertex 0.000844 0.000236 0.000000
endloop
endfacet
facet normal -0.227003 -0.973894 0.000000
outer loop
vertex 0.000692 0.000272 0.150000
vertex 0.000844 0.000236 0.000000
vertex 0.000844 0.000236 0.150000
endloop
endfacet
facet normal 0.972259 -0.233905 0.000000
outer loop
vertex 0.008675 0.004114 0.000000
vertex 0.008719 0.004296 0.000000
vertex 0.008719 0.004296 0.150000
endloop
endfacet
facet normal 0.972261 -0.233897 0.000000
outer loop
vertex 0.008675 0.004114 0.000000
vertex 0.008719 0.004296 0.150000
vertex 0.008675 0.004114 0.150000
endloop
endfacet
facet normal 0.941233 -0.337758 0.000000
outer loop
vertex 0.008560 0.003765 0.150000
vertex 0.008560 0.003765 0.000000
vertex 0.008622 0.003938 0.000000
endloop
endfacet
facet normal 0.956904 -0.290404 0.000000
outer loop
vertex 0.008622 0.003938 0.000000
vertex 0.008675 0.004114 0.000000
vertex 0.008675 0.004114 0.150000
endloop
endfacet
facet normal 0.941233 -0.337758 0.000000
outer loop
vertex 0.008622 0.003938 0.150000
vertex 0.008560 0.003765 0.150000
vertex 0.008622 0.003938 0.000000
endloop
endfacet
facet normal 0.956902 -0.290412 0.000000
outer loop
vertex 0.008622 0.003938 0.000000
vertex 0.008675 0.004114 0.150000
vertex 0.008622 0.003938 0.150000
endloop
endfacet
facet normal -0.138373 0.990380 0.000000
outer loop
vertex 0.005653 0.009168 0.150000
vertex 0.005653 0.009168 0.000000
vertex 0.005469 0.009142 0.000000
endloop
endfacet
facet normal -0.138373 0.990380 0.000000
outer loop
vertex 0.005653 0.009168 0.150000
vertex 0.005469 0.009142 0.000000
vertex 0.005469 0.009142 0.150000
endloop
endfacet
facet normal 0.084948 0.996385 0.000000
outer loop
vertex 0.005997 0.009158 0.150000
vertex 0.005997 0.009158 0.000000
vertex 0.005829 0.009172 0.000000
endloop
endfacet
facet normal 0.084948 0.996385 0.000000
outer loop
vertex 0.005997 0.009158 0.150000
vertex 0.005829 0.009172 0.000000
vertex 0.005829 0.009172 0.150000
endloop
endfacet
facet normal 0.488443 -0.872596 0.000000
outer loop
vertex 0.005694 0.000058 0.150000
vertex 0.005694 0.000058 0.000000
vertex 0.005826 0.000132 0.000000
endloop
endfacet
facet normal 0.488446 -0.872594 0.000000
outer loop
vertex 0.005694 0.000058 0.150000
vertex 0.005826 0.000132 0.000000
vertex 0.005826 0.000132 0.150000
endloop
endfacet
facet normal -0.100033 -0.994984 0.000000
outer loop
vertex 0.005030 0.000106 0.000000
vertex 0.005138 0.000095 0.000000
vertex 0.005138 0.000095 0.150000
endloop
endfacet
facet normal -0.100034 -0.994984 0.000000
outer loop
vertex 0.005030 0.000106 0.000000
vertex 0.005138 0.000095 0.150000
vertex 0.005030 0.000106 0.150000
endloop
endfacet
facet normal -0.042973 -0.999076 0.000000
outer loop
vertex 0.001291 0.000182 0.150000
vertex 0.001291 0.000182 0.000000
vertex 0.003816 0.000074 0.000000
endloop
endfacet
facet normal 0.026274 -0.999655 0.000000
outer loop
vertex 0.003816 0.000074 0.000000
vertex 0.005030 0.000106 0.000000
vertex 0.005030 0.000106 0.150000
endloop
endfacet
facet normal -0.042973 -0.999076 0.000000
outer loop
vertex 0.003816 0.000074 0.150000
vertex 0.001291 0.000182 0.150000
vertex 0.003816 0.000074 0.000000
endloop
endfacet
facet normal 0.026274 -0.999655 0.000000
outer loop
vertex 0.005030 0.000106 0.150000
vertex 0.003816 0.000074 0.150000
vertex 0.003816 0.000074 0.000000
endloop
endfacet
facet normal -0.886711 -0.462324 0.000000
outer loop
vertex 0.000345 0.000557 0.000000
vertex 0.000383 0.000484 0.000000
vertex 0.000383 0.000484 0.150000
endloop
endfacet
facet normal -0.886711 -0.462324 0.000000
outer loop
vertex 0.000345 0.000557 0.000000
vertex 0.000383 0.000484 0.150000
vertex 0.000345 0.000557 0.150000
endloop
endfacet
facet normal -0.911407 -0.411507 0.000000
outer loop
vertex 0.000308 0.000640 0.000000
vertex 0.000345 0.000557 0.000000
vertex 0.000345 0.000557 0.150000
endloop
endfacet
facet normal -0.911407 -0.411507 0.000000
outer loop
vertex 0.000308 0.000640 0.000000
vertex 0.000345 0.000557 0.150000
vertex 0.000308 0.000640 0.150000
endloop
endfacet
facet normal -0.904207 -0.427094 0.000000
outer loop
vertex 0.000264 0.000732 0.000000
vertex 0.000308 0.000640 0.000000
vertex 0.000308 0.000640 0.150000
endloop
endfacet
facet normal -0.904207 -0.427094 0.000000
outer loop
vertex 0.000264 0.000732 0.000000
vertex 0.000308 0.000640 0.150000
vertex 0.000264 0.000732 0.150000
endloop
endfacet
facet normal -0.890706 -0.454580 0.000000
outer loop
vertex 0.000147 0.000952 0.150000
vertex 0.000147 0.000952 0.000000
vertex 0.000207 0.000835 0.000000
endloop
endfacet
facet normal -0.873411 -0.486983 0.000000
outer loop
vertex 0.000207 0.000835 0.000000
vertex 0.000264 0.000732 0.000000
vertex 0.000264 0.000732 0.150000
endloop
endfacet
facet normal -0.890706 -0.454581 0.000000
outer loop
vertex 0.000207 0.000835 0.150000
vertex 0.000147 0.000952 0.150000
vertex 0.000207 0.000835 0.000000
endloop
endfacet
facet normal -0.873411 -0.486983 0.000000
outer loop
vertex 0.000264 0.000732 0.150000
vertex 0.000207 0.000835 0.150000
vertex 0.000207 0.000835 0.000000
endloop
endfacet
facet normal 0.683610 0.729847 0.000000
outer loop
vertex 0.007754 0.008262 0.150000
vertex 0.007754 0.008262 0.000000
vertex 0.007506 0.008495 0.000000
endloop
endfacet
facet normal 0.683610 0.729847 0.000000
outer loop
vertex 0.007754 0.008262 0.150000
vertex 0.007506 0.008495 0.000000
vertex 0.007506 0.008495 0.150000
endloop
endfacet
facet normal 0.917722 -0.397224 0.000000
outer loop
vertex 0.007797 0.002003 0.000000
vertex 0.008560 0.003765 0.000000
vertex 0.008560 0.003765 0.150000
endloop
endfacet
facet normal 0.917722 -0.397223 0.000000
outer loop
vertex 0.007797 0.002003 0.000000
vertex 0.008560 0.003765 0.150000
vertex 0.007797 0.002003 0.150000
endloop
endfacet
facet normal 0.929778 0.368121 0.000000
outer loop
vertex 0.008523 0.007225 0.000000
vertex 0.008523 0.007225 0.150000
vertex 0.008661 0.006876 0.150000
endloop
endfacet
facet normal 0.929781 0.368114 0.000000
outer loop
vertex 0.008523 0.007225 0.000000
vertex 0.008661 0.006876 0.150000
vertex 0.008661 0.006876 0.000000
endloop
endfacet
facet normal -0.343520 -0.939145 0.000000
outer loop
vertex 0.005225 0.000073 0.150000
vertex 0.005225 0.000073 0.000000
vertex 0.005365 0.000022 0.000000
endloop
endfacet
facet normal -0.343520 -0.939145 0.000000
outer loop
vertex 0.005225 0.000073 0.150000
vertex 0.005365 0.000022 0.000000
vertex 0.005365 0.000022 0.150000
endloop
endfacet
facet normal -0.053036 -0.998593 0.000000
outer loop
vertex 0.005431 0.000004 0.150000
vertex 0.005431 0.000004 0.000000
vertex 0.005504 0.000001 0.000000
endloop
endfacet
facet normal -0.053037 -0.998593 0.000000
outer loop
vertex 0.005431 0.000004 0.150000
vertex 0.005504 0.000001 0.000000
vertex 0.005504 0.000001 0.150000
endloop
endfacet
facet normal -0.254509 -0.967070 0.000000
outer loop
vertex 0.005365 0.000022 0.150000
vertex 0.005365 0.000022 0.000000
vertex 0.005431 0.000004 0.000000
endloop
endfacet
facet normal -0.254509 -0.967070 0.000000
outer loop
vertex 0.005365 0.000022 0.150000
vertex 0.005431 0.000004 0.000000
vertex 0.005431 0.000004 0.150000
endloop
endfacet
facet normal 0.368113 -0.929781 0.000000
outer loop
vertex 0.005589 0.000016 0.150000
vertex 0.005589 0.000016 0.000000
vertex 0.005694 0.000058 0.000000
endloop
endfacet
facet normal 0.368118 -0.929779 0.000000
outer loop
vertex 0.005589 0.000016 0.150000
vertex 0.005694 0.000058 0.000000
vertex 0.005694 0.000058 0.150000
endloop
endfacet
facet normal -0.342737 -0.939432 0.000000
outer loop
vertex 0.000577 0.000314 0.150000
vertex 0.000577 0.000314 0.000000
vertex 0.000692 0.000272 0.000000
endloop
endfacet
facet normal -0.342737 -0.939431 0.000000
outer loop
vertex 0.000577 0.000314 0.150000
vertex 0.000692 0.000272 0.000000
vertex 0.000692 0.000272 0.150000
endloop
endfacet
facet normal 0.745826 0.666141 0.000000
outer loop
vertex 0.007994 0.007994 0.000000
vertex 0.007754 0.008262 0.000000
vertex 0.007754 0.008262 0.150000
endloop
endfacet
facet normal 0.745826 0.666141 0.000000
outer loop
vertex 0.007994 0.007994 0.000000
vertex 0.007754 0.008262 0.150000
vertex 0.007994 0.007994 0.150000
endloop
endfacet
facet normal -0.907426 0.420212 0.000000
outer loop
vertex 0.000361 0.004676 0.150000
vertex 0.000361 0.004676 0.000000
vertex 0.000307 0.004559 0.000000
endloop
endfacet
facet normal -0.907426 0.420213 0.000000
outer loop
vertex 0.000361 0.004676 0.150000
vertex 0.000307 0.004559 0.000000
vertex 0.000307 0.004559 0.150000
endloop
endfacet
facet normal 0.181969 -0.983304 0.000000
outer loop
vertex 0.005504 0.000001 0.150000
vertex 0.005504 0.000001 0.000000
vertex 0.005589 0.000016 0.000000
endloop
endfacet
facet normal 0.181969 -0.983304 0.000000
outer loop
vertex 0.005504 0.000001 0.150000
vertex 0.005589 0.000016 0.000000
vertex 0.005589 0.000016 0.150000
endloop
endfacet
facet normal 0.999949 -0.010089 0.000000
outer loop
vertex 0.008778 0.004704 0.000000
vertex 0.008792 0.006087 0.000000
vertex 0.008792 0.006087 0.150000
endloop
endfacet
facet normal 0.999949 -0.010087 0.000000
outer loop
vertex 0.008778 0.004704 0.000000
vertex 0.008792 0.006087 0.150000
vertex 0.008778 0.004704 0.150000
endloop
endfacet
endsolid Exported from Blender-3.6.8
