solid Exported from Blender-3.6.8
facet normal -0.093988 -0.995573 0.000000
outer loop
vertex 0.006081 0.000013 0.150000
vertex 0.006081 0.000013 0.000000
vertex 0.006218 0.000000 0.000000
endloop
endfacet
facet normal -0.093988 -0.995573 0.000000
outer loop
vertex 0.006081 0.000013 0.150000
vertex 0.006218 0.000000 0.000000
vertex 0.006218 0.000000 0.150000
endloop
endfacet
facet normal 0.865705 0.500555 0.000000
outer loop
vertex 0.008216 0.008494 0.150000
vertex 0.008216 0.008494 0.000000
vertex 0.008119 0.008662 0.000000
endloop
endfacet
facet normal 0.865708 0.500549 0.000000
outer loop
vertex 0.008216 0.008494 0.150000
vertex 0.008119 0.008662 0.000000
vertex 0.008119 0.008662 0.150000
endloop
endfacet
facet normal 0.941858 0.336011 0.000000
outer loop
vertex 0.008350 0.008168 0.150000
vertex 0.008350 0.008168 0.000000
vertex 0.008292 0.008330 0.000000
endloop
endfacet
facet normal 0.941855 0.336019 0.000000
outer loop
vertex 0.008350 0.008168 0.150000
vertex 0.008292 0.008330 0.000000
vertex 0.008292 0.008330 0.150000
endloop
endfacet
facet normal 0.974513 0.224329 0.000000
outer loop
vertex 0.008424 0.007845 0.000000
vertex 0.008350 0.008168 0.000000
vertex 0.008350 0.008168 0.150000
endloop
endfacet
facet normal 0.974515 0.224325 0.000000
outer loop
vertex 0.008424 0.007845 0.000000
vertex 0.008350 0.008168 0.150000
vertex 0.008424 0.007845 0.150000
endloop
endfacet
facet normal 0.993906 0.110235 0.000000
outer loop
vertex 0.008845 0.004044 0.000000
vertex 0.008424 0.007845 0.000000
vertex 0.008424 0.007845 0.150000
endloop
endfacet
facet normal 0.993906 0.110234 0.000000
outer loop
vertex 0.008845 0.004044 0.000000
vertex 0.008424 0.007845 0.150000
vertex 0.008845 0.004044 0.150000
endloop
endfacet
facet normal 0.724738 -0.689025 0.000000
outer loop
vertex 0.007718 0.000965 0.150000
vertex 0.007718 0.000965 0.000000
vertex 0.007921 0.001178 0.000000
endloop
endfacet
facet normal 0.724738 -0.689025 0.000000
outer loop
vertex 0.007718 0.000965 0.150000
vertex 0.007921 0.001178 0.000000
vertex 0.007921 0.001178 0.150000
endloop
endfacet
facet normal 0.784237 -0.620461 0.000000
outer loop
vertex 0.007921 0.001178 0.150000
vertex 0.007921 0.001178 0.000000
vertex 0.008006 0.001286 0.000000
endloop
endfacet
facet normal 0.784237 -0.620461 0.000000
outer loop
vertex 0.007921 0.001178 0.150000
vertex 0.008006 0.001286 0.000000
vertex 0.008006 0.001286 0.150000
endloop
endfacet
facet normal -0.000362 0.000000 1.000000
outer loop
vertex 0.006218 0.000000 0.150000
vertex 0.006366 0.000017 0.150000
vertex 0.006529 0.000070 0.150000
endloop
endfacet
facet normal 0.000000 0.000000 1.000000
outer loop
vertex 0.006529 0.000070 0.150000
vertex 0.006711 0.000164 0.150000
vertex 0.006915 0.000305 0.150000
endloop
endfacet
facet normal -0.007256 0.000000 0.999974
outer loop
vertex 0.006915 0.000305 0.150000
vertex 0.007118 0.000463 0.150000
vertex 0.007298 0.000605 0.150000
endloop
endfacet
facet normal 0.004167 0.000000 0.999991
outer loop
vertex 0.007298 0.000605 0.150000
vertex 0.007456 0.000734 0.150000
vertex 0.007595 0.000853 0.150000
endloop
endfacet
facet normal -0.002112 0.000000 0.999998
outer loop
vertex 0.007595 0.000853 0.150000
vertex 0.007718 0.000965 0.150000
vertex 0.007921 0.001178 0.150000
endloop
endfacet
facet normal 0.000000 0.000000 1.000000
outer loop
vertex 0.007921 0.001178 0.150000
vertex 0.008006 0.001286 0.150000
vertex 0.008154 0.001517 0.150000
endloop
endfacet
facet normal 0.000000 0.000000 1.000000
outer loop
vertex 0.008154 0.001517 0.150000
vertex 0.008673 0.002581 0.150000
vertex 0.008770 0.002858 0.150000
endloop
endfacet
facet normal -0.001213 0.000000 0.999999
outer loop
vertex 0.008770 0.002858 0.150000
vertex 0.008807 0.003012 0.150000
vertex 0.008852 0.003363 0.150000
endloop
endfacet
facet normal -0.000446 0.000000 1.000000
outer loop
vertex 0.008852 0.003363 0.150000
vertex 0.008845 0.004044 0.150000
vertex 0.008424 0.007845 0.150000
endloop
endfacet
facet normal -0.000550 0.000000 1.000000
outer loop
vertex 0.008424 0.007845 0.150000
vertex 0.008350 0.008168 0.150000
vertex 0.008292 0.008330 0.150000
endloop
endfacet
facet normal 0.001134 0.000000 0.999999
outer loop
vertex 0.008292 0.008330 0.150000
vertex 0.008216 0.008494 0.150000
vertex 0.008119 0.008662 0.150000
endloop
endfacet
facet normal -0.000496 0.000000 1.000000
outer loop
vertex 0.008119 0.008662 0.150000
vertex 0.007542 0.009439 0.150000
vertex 0.007316 0.009694 0.150000
endloop
endfacet
facet normal -0.000351 0.000000 1.000000
outer loop
vertex 0.007316 0.009694 0.150000
vertex 0.007035 0.009940 0.150000
vertex 0.006659 0.010197 0.150000
endloop
endfacet
facet normal 0.000000 0.000000 1.000000
outer loop
vertex 0.006659 0.010197 0.150000
vertex 0.006422 0.010335 0.150000
vertex 0.006145 0.010482 0.150000
endloop
endfacet
facet normal 0.000000 0.000000 1.000000
outer loop
vertex 0.006145 0.010482 0.150000
vertex 0.005844 0.010632 0.150000
vertex 0.005538 0.010776 0.150000
endloop
endfacet
facet normal -0.001586 0.000000 0.999999
outer loop
vertex 0.005538 0.010776 0.150000
vertex 0.005231 0.010913 0.150000
vertex 0.004927 0.011041 0.150000
endloop
endfacet
facet normal 0.000000 0.000000 1.000000
outer loop
vertex 0.004927 0.011041 0.150000
vertex 0.003812 0.011439 0.150000
vertex 0.003576 0.011504 0.150000
endloop
endfacet
facet normal 0.000000 0.000000 1.000000
outer loop
vertex 0.003576 0.011504 0.150000
vertex 0.003366 0.011551 0.150000
vertex 0.003184 0.011581 0.150000
endloop
endfacet
facet normal -0.000030 0.000000 1.000000
outer loop
vertex 0.003184 0.011581 0.150000
vertex 0.003033 0.011591 0.150000
vertex 0.002577 0.011597 0.150000
endloop
endfacet
facet normal 0.000000 0.000000 1.000000
outer loop
vertex 0.002577 0.011597 0.150000
vertex 0.002410 0.011597 0.150000
vertex 0.002239 0.011595 0.150000
endloop
endfacet
facet normal 0.000235 0.000000 1.000000
outer loop
vertex 0.002239 0.011595 0.150000
vertex 0.002071 0.011589 0.150000
vertex 0.001907 0.011577 0.150000
endloop
endfacet
facet normal -0.000179 0.000000 1.000000
outer loop
vertex 0.001907 0.011577 0.150000
vertex 0.001608 0.011532 0.150000
vertex 0.001480 0.011495 0.150000
endloop
endfacet
facet normal 0.000000 0.000000 1.000000
outer loop
vertex 0.001480 0.011495 0.150000
vertex 0.001370 0.011448 0.150000
vertex 0.000457 0.010772 0.150000
endloop
endfacet
facet normal 0.000000 0.000000 1.000000
outer loop
vertex 0.000457 0.010772 0.150000
vertex 0.000399 0.010714 0.150000
vertex 0.000352 0.010657 0.150000
endloop
endfacet
facet normal 0.000000 0.000000 1.000000
outer loop
vertex 0.000352 0.010657 0.150000
vertex 0.000311 0.010585 0.150000
vertex 0.000269 0.010489 0.150000
endloop
endfacet
facet normal -0.000021 0.000000 1.000000
outer loop
vertex 0.000269 0.010489 0.150000
vertex 0.000000 0.009459 0.150000
vertex 0.000122 0.009286 0.150000
endloop
endfacet
facet normal -0.000035 0.000000 1.000000
outer loop
vertex 0.000269 0.010489 0.150000
vertex 0.000122 0.009286 0.150000
vertex 0.000412 0.008855 0.150000
endloop
endfacet
facet normal 0.000448 0.000000 1.000000
outer loop
vertex 0.000457 0.010772 0.150000
vertex 0.000352 0.010657 0.150000
vertex 0.000269 0.010489 0.150000
endloop
endfacet
facet normal 0.000000 0.000000 1.000000
outer loop
vertex 0.001907 0.011577 0.150000
vertex 0.001480 0.011495 0.150000
vertex 0.000457 0.010772 0.150000
endloop
endfacet
facet normal -0.000080 0.000000 1.000000
outer loop
vertex 0.002577 0.011597 0.150000
vertex 0.002239 0.011595 0.150000
vertex 0.001907 0.011577 0.150000
endloop
endfacet
facet normal 0.000034 0.000000 1.000000
outer loop
vertex 0.003576 0.011504 0.150000
vertex 0.003184 0.011581 0.150000
vertex 0.002577 0.011597 0.150000
endloop
endfacet
facet normal 0.000000 0.000000 1.000000
outer loop
vertex 0.005538 0.010776 0.150000
vertex 0.004927 0.011041 0.150000
vertex 0.003576 0.011504 0.150000
endloop
endfacet
facet normal 0.000000 0.000000 1.000000
outer loop
vertex 0.006659 0.010197 0.150000
vertex 0.006145 0.010482 0.150000
vertex 0.005538 0.010776 0.150000
endloop
endfacet
facet normal 0.000106 0.000000 1.000000
outer loop
vertex 0.008119 0.008662 0.150000
vertex 0.007316 0.009694 0.150000
vertex 0.006659 0.010197 0.150000
endloop
endfacet
facet normal -0.000182 0.000000 1.000000
outer loop
vertex 0.008424 0.007845 0.150000
vertex 0.008292 0.008330 0.150000
vertex 0.008119 0.008662 0.150000
endloop
endfacet
facet normal 0.000199 0.000000 1.000000
outer loop
vertex 0.008770 0.002858 0.150000
vertex 0.008852 0.003363 0.150000
vertex 0.008424 0.007845 0.150000
endloop
endfacet
facet normal -0.000278 0.000000 1.000000
outer loop
vertex 0.007921 0.001178 0.150000
vertex 0.008154 0.001517 0.150000
vertex 0.008770 0.002858 0.150000
endloop
endfacet
facet normal -0.000450 0.000000 1.000000
outer loop
vertex 0.007298 0.000605 0.150000
vertex 0.007595 0.000853 0.150000
vertex 0.007921 0.001178 0.150000
endloop
endfacet
facet normal 0.000287 0.000000 1.000000
outer loop
vertex 0.006529 0.000070 0.150000
vertex 0.006915 0.000305 0.150000
vertex 0.007298 0.000605 0.150000
endloop
endfacet
facet normal 0.000134 0.000000 1.000000
outer loop
vertex 0.006081 0.000013 0.150000
vertex 0.006218 0.000000 0.150000
vertex 0.006529 0.000070 0.150000
endloop
endfacet
facet normal 0.000352 0.000000 1.000000
outer loop
vertex 0.005829 0.000106 0.150000
vertex 0.005953 0.000050 0.150000
vertex 0.006081 0.000013 0.150000
endloop
endfacet
facet normal -0.000409 0.000000 1.000000
outer loop
vertex 0.004874 0.000630 0.150000
vertex 0.005013 0.000539 0.150000
vertex 0.005315 0.000405 0.150000
endloop
endfacet
facet normal 0.000335 0.000000 1.000000
outer loop
vertex 0.005315 0.000405 0.150000
vertex 0.005829 0.000106 0.150000
vertex 0.006081 0.000013 0.150000
endloop
endfacet
facet normal 0.000000 0.000000 1.000000
outer loop
vertex 0.006081 0.000013 0.150000
vertex 0.006529 0.000070 0.150000
vertex 0.007298 0.000605 0.150000
endloop
endfacet
facet normal 0.000000 0.000000 1.000000
outer loop
vertex 0.007298 0.000605 0.150000
vertex 0.007921 0.001178 0.150000
vertex 0.008770 0.002858 0.150000
endloop
endfacet
facet normal -0.000024 0.000000 1.000000
outer loop
vertex 0.008770 0.002858 0.150000
vertex 0.008424 0.007845 0.150000
vertex 0.008119 0.008662 0.150000
endloop
endfacet
facet normal 0.000000 0.000000 1.000000
outer loop
vertex 0.008119 0.008662 0.150000
vertex 0.006659 0.010197 0.150000
vertex 0.005538 0.010776 0.150000
endloop
endfacet
facet normal -0.000003 0.000000 1.000000
outer loop
vertex 0.005538 0.010776 0.150000
vertex 0.003576 0.011504 0.150000
vertex 0.002577 0.011597 0.150000
endloop
endfacet
facet normal 0.000000 0.000000 1.000000
outer loop
vertex 0.002577 0.011597 0.150000
vertex 0.001907 0.011577 0.150000
vertex 0.000457 0.010772 0.150000
endloop
endfacet
facet normal 0.000000 0.000000 1.000000
outer loop
vertex 0.000457 0.010772 0.150000
vertex 0.000269 0.010489 0.150000
vertex 0.000412 0.008855 0.150000
endloop
endfacet
facet normal 0.000000 0.000000 1.000000
outer loop
vertex 0.000457 0.010772 0.150000
vertex 0.000412 0.008855 0.150000
vertex 0.001071 0.007814 0.150000
endloop
endfacet
facet normal 0.000000 0.000000 1.000000
outer loop
vertex 0.005538 0.010776 0.150000
vertex 0.002577 0.011597 0.150000
vertex 0.000457 0.010772 0.150000
endloop
endfacet
facet normal -0.000004 0.000000 1.000000
outer loop
vertex 0.008770 0.002858 0.150000
vertex 0.008119 0.008662 0.150000
vertex 0.005538 0.010776 0.150000
endloop
endfacet
facet normal 0.000000 0.000000 1.000000
outer loop
vertex 0.006081 0.000013 0.150000
vertex 0.007298 0.000605 0.150000
vertex 0.008770 0.002858 0.150000
endloop
endfacet
facet normal 0.000000 0.000000 1.000000
outer loop
vertex 0.004874 0.000630 0.150000
vertex 0.005315 0.000405 0.150000
vertex 0.006081 0.000013 0.150000
endloop
endfacet
facet normal 0.000000 0.000000 1.000000
outer loop
vertex 0.004627 0.000872 0.150000
vertex 0.004746 0.000742 0.150000
vertex 0.004874 0.000630 0.150000
endloop
endfacet
facet normal 0.001010 0.000000 0.999999
outer loop
vertex 0.004302 0.001363 0.150000
vertex 0.004514 0.001020 0.150000
vertex 0.004627 0.000872 0.150000
endloop
endfacet
facet normal 0.000075 0.000000 1.000000
outer loop
vertex 0.000457 0.010772 0.150000
vertex 0.001071 0.007814 0.150000
vertex 0.001375 0.007297 0.150000
endloop
endfacet
facet normal -0.000118 0.000000 1.000000
outer loop
vertex 0.001375 0.007297 0.150000
vertex 0.004302 0.001363 0.150000
vertex 0.004627 0.000872 0.150000
endloop
endfacet
facet normal 0.000000 0.000000 1.000000
outer loop
vertex 0.004627 0.000872 0.150000
vertex 0.004874 0.000630 0.150000
vertex 0.006081 0.000013 0.150000
endloop
endfacet
facet normal 0.000008 0.000000 1.000000
outer loop
vertex 0.006081 0.000013 0.150000
vertex 0.008770 0.002858 0.150000
vertex 0.005538 0.010776 0.150000
endloop
endfacet
facet normal 0.000000 0.000000 1.000000
outer loop
vertex 0.005538 0.010776 0.150000
vertex 0.000457 0.010772 0.150000
vertex 0.001375 0.007297 0.150000
endloop
endfacet
facet normal -0.000027 0.000000 1.000000
outer loop
vertex 0.001375 0.007297 0.150000
vertex 0.004627 0.000872 0.150000
vertex 0.006081 0.000013 0.150000
endloop
endfacet
facet normal 0.000000 0.000000 1.000000
outer loop
vertex 0.005538 0.010776 0.150000
vertex 0.001375 0.007297 0.150000
vertex 0.006081 0.000013 0.150000
endloop
endfacet
facet normal -0.274113 0.961698 0.000000
outer loop
vertex 0.001608 0.011532 0.150000
vertex 0.001608 0.011532 0.000000
vertex 0.001480 0.011495 0.000000
endloop
endfacet
facet normal -0.274113 0.961698 0.000000
outer loop
vertex 0.001608 0.011532 0.150000
vertex 0.001480 0.011495 0.000000
vertex 0.001480 0.011495 0.150000
endloop
endfacet
facet normal -0.656294 -0.754505 0.000000
outer loop
vertex 0.004746 0.000742 0.150000
vertex 0.004746 0.000742 0.000000
vertex 0.004874 0.000630 0.000000
endloop
endfacet
facet normal -0.656296 -0.754503 0.000000
outer loop
vertex 0.004746 0.000742 0.150000
vertex 0.004874 0.000630 0.000000
vertex 0.004874 0.000630 0.150000
endloop
endfacet
facet normal 0.972215 -0.234091 0.000000
outer loop
vertex 0.008770 0.002858 0.150000
vertex 0.008770 0.002858 0.000000
vertex 0.008807 0.003012 0.000000
endloop
endfacet
facet normal 0.972217 -0.234081 0.000000
outer loop
vertex 0.008770 0.002858 0.150000
vertex 0.008807 0.003012 0.000000
vertex 0.008807 0.003012 0.150000
endloop
endfacet
facet normal 0.460187 -0.887822 0.000000
outer loop
vertex 0.006529 0.000070 0.150000
vertex 0.006529 0.000070 0.000000
vertex 0.006711 0.000164 0.000000
endloop
endfacet
facet normal 0.460184 -0.887824 0.000000
outer loop
vertex 0.006529 0.000070 0.150000
vertex 0.006711 0.000164 0.000000
vertex 0.006711 0.000164 0.150000
endloop
endfacet
facet normal -0.737326 -0.675537 0.000000
outer loop
vertex 0.004627 0.000872 0.150000
vertex 0.004627 0.000872 0.000000
vertex 0.004746 0.000742 0.000000
endloop
endfacet
facet normal -0.737326 -0.675537 0.000000
outer loop
vertex 0.004627 0.000872 0.150000
vertex 0.004746 0.000742 0.000000
vertex 0.004746 0.000742 0.150000
endloop
endfacet
facet normal 0.944371 -0.328883 0.000000
outer loop
vertex 0.008673 0.002581 0.150000
vertex 0.008673 0.002581 0.000000
vertex 0.008770 0.002858 0.000000
endloop
endfacet
facet normal 0.944371 -0.328883 0.000000
outer loop
vertex 0.008673 0.002581 0.150000
vertex 0.008770 0.002858 0.000000
vertex 0.008770 0.002858 0.150000
endloop
endfacet
facet normal -0.896881 -0.442273 0.000000
outer loop
vertex 0.004302 0.001363 0.000000
vertex 0.004302 0.001363 0.150000
vertex 0.001375 0.007297 0.150000
endloop
endfacet
facet normal -0.896881 -0.442273 0.000000
outer loop
vertex 0.004302 0.001363 0.000000
vertex 0.001375 0.007297 0.150000
vertex 0.001375 0.007297 0.000000
endloop
endfacet
facet normal 0.659855 0.751393 0.000000
outer loop
vertex 0.007316 0.009694 0.150000
vertex 0.007316 0.009694 0.000000
vertex 0.007035 0.009940 0.000000
endloop
endfacet
facet normal 0.659853 0.751395 0.000000
outer loop
vertex 0.007316 0.009694 0.150000
vertex 0.007035 0.009940 0.000000
vertex 0.007035 0.009940 0.150000
endloop
endfacet
facet normal 0.841318 -0.540541 0.000000
outer loop
vertex 0.008006 0.001286 0.150000
vertex 0.008006 0.001286 0.000000
vertex 0.008154 0.001517 0.000000
endloop
endfacet
facet normal 0.841323 -0.540533 0.000000
outer loop
vertex 0.008006 0.001286 0.150000
vertex 0.008154 0.001517 0.000000
vertex 0.008154 0.001517 0.150000
endloop
endfacet
facet normal 0.907880 0.419230 0.000000
outer loop
vertex 0.008292 0.008330 0.150000
vertex 0.008292 0.008330 0.000000
vertex 0.008216 0.008494 0.000000
endloop
endfacet
facet normal 0.907877 0.419237 0.000000
outer loop
vertex 0.008292 0.008330 0.150000
vertex 0.008216 0.008494 0.000000
vertex 0.008216 0.008494 0.150000
endloop
endfacet
facet normal 0.000000 0.000000 1.000000
outer loop
vertex 0.006422 0.010335 0.000000
vertex 0.006145 0.010482 0.000000
vertex 0.005844 0.010632 0.000000
endloop
endfacet
facet normal 0.000000 0.000000 1.000000
outer loop
vertex 0.005844 0.010632 0.000000
vertex 0.005538 0.010776 0.000000
vertex 0.005231 0.010913 0.000000
endloop
endfacet
facet normal 0.388072 0.921629 0.000000
outer loop
vertex 0.005231 0.010913 0.000000
vertex 0.004927 0.011041 0.000000
vertex 0.004927 0.011041 0.150000
endloop
endfacet
facet normal 0.388072 0.921629 0.000000
outer loop
vertex 0.005231 0.010913 0.000000
vertex 0.004927 0.011041 0.150000
vertex 0.005231 0.010913 0.150000
endloop
endfacet
facet normal 0.000000 0.000000 1.000000
outer loop
vertex 0.006422 0.010335 0.000000
vertex 0.005844 0.010632 0.000000
vertex 0.005231 0.010913 0.000000
endloop
endfacet
facet normal 0.502798 0.864404 0.000000
outer loop
vertex 0.006659 0.010197 0.150000
vertex 0.006659 0.010197 0.000000
vertex 0.006422 0.010335 0.000000
endloop
endfacet
facet normal 0.502795 0.864406 0.000000
outer loop
vertex 0.006422 0.010335 0.150000
vertex 0.006659 0.010197 0.150000
vertex 0.006422 0.010335 0.000000
endloop
endfacet
facet normal 0.436830 0.899544 0.000000
outer loop
vertex 0.006422 0.010335 0.000000
vertex 0.005231 0.010913 0.000000
vertex 0.005231 0.010913 0.150000
endloop
endfacet
facet normal 0.407054 0.913404 -0.000290
outer loop
vertex 0.006422 0.010335 0.000000
vertex 0.005231 0.010913 0.150000
vertex 0.005538 0.010776 0.150000
endloop
endfacet
facet normal 0.470055 0.882637 0.000000
outer loop
vertex 0.006145 0.010482 0.150000
vertex 0.006422 0.010335 0.150000
vertex 0.006422 0.010335 0.000000
endloop
endfacet
facet normal 0.426096 0.904678 -0.000152
outer loop
vertex 0.006422 0.010335 0.000000
vertex 0.005538 0.010776 0.150000
vertex 0.005844 0.010632 0.150000
endloop
endfacet
facet normal 0.445822 0.895121 -0.000057
outer loop
vertex 0.005844 0.010632 0.150000
vertex 0.006145 0.010482 0.150000
vertex 0.006422 0.010335 0.000000
endloop
endfacet
facet normal 0.160068 0.987106 0.000000
outer loop
vertex 0.003366 0.011551 0.000000
vertex 0.003184 0.011581 0.000000
vertex 0.003184 0.011581 0.150000
endloop
endfacet
facet normal 0.160069 0.987106 0.000000
outer loop
vertex 0.003366 0.011551 0.000000
vertex 0.003184 0.011581 0.150000
vertex 0.003366 0.011551 0.150000
endloop
endfacet
facet normal 0.263872 0.964558 0.000000
outer loop
vertex 0.003812 0.011439 0.150000
vertex 0.003812 0.011439 0.000000
vertex 0.003576 0.011504 0.000000
endloop
endfacet
facet normal 0.220584 0.975368 0.000000
outer loop
vertex 0.003576 0.011504 0.000000
vertex 0.003366 0.011551 0.000000
vertex 0.003366 0.011551 0.150000
endloop
endfacet
facet normal 0.263872 0.964558 0.000000
outer loop
vertex 0.003576 0.011504 0.150000
vertex 0.003812 0.011439 0.150000
vertex 0.003576 0.011504 0.000000
endloop
endfacet
facet normal 0.220584 0.975368 0.000000
outer loop
vertex 0.003576 0.011504 0.000000
vertex 0.003366 0.011551 0.150000
vertex 0.003576 0.011504 0.150000
endloop
endfacet
facet normal -0.413184 -0.910647 0.000000
outer loop
vertex 0.005829 0.000106 0.150000
vertex 0.005829 0.000106 0.000000
vertex 0.005953 0.000050 0.000000
endloop
endfacet
facet normal -0.413182 -0.910648 0.000000
outer loop
vertex 0.005829 0.000106 0.150000
vertex 0.005953 0.000050 0.000000
vertex 0.005953 0.000050 0.150000
endloop
endfacet
facet normal -0.918505 0.395410 0.000000
outer loop
vertex 0.000311 0.010585 0.150000
vertex 0.000311 0.010585 0.000000
vertex 0.000269 0.010489 0.000000
endloop
endfacet
facet normal -0.918505 0.395410 0.000000
outer loop
vertex 0.000311 0.010585 0.150000
vertex 0.000269 0.010489 0.000000
vertex 0.000269 0.010489 0.150000
endloop
endfacet
facet normal 0.000000 0.000000 1.000000
outer loop
vertex 0.007298 0.000605 0.000000
vertex 0.007456 0.000734 0.000000
vertex 0.007595 0.000853 0.000000
endloop
endfacet
facet normal 0.674337 -0.738424 0.000000
outer loop
vertex 0.007595 0.000853 0.000000
vertex 0.007718 0.000965 0.000000
vertex 0.007718 0.000965 0.150000
endloop
endfacet
facet normal 0.674337 -0.738424 0.000000
outer loop
vertex 0.007595 0.000853 0.000000
vertex 0.007718 0.000965 0.150000
vertex 0.007595 0.000853 0.150000
endloop
endfacet
facet normal 0.000000 0.000000 1.000000
outer loop
vertex 0.007118 0.000463 0.000000
vertex 0.007298 0.000605 0.000000
vertex 0.007595 0.000853 0.000000
endloop
endfacet
facet normal 0.000000 0.000000 1.000000
outer loop
vertex 0.006711 0.000164 0.000000
vertex 0.006915 0.000305 0.000000
vertex 0.007118 0.000463 0.000000
endloop
endfacet
facet normal 0.569759 -0.821812 0.000000
outer loop
vertex 0.006915 0.000305 0.150000
vertex 0.006711 0.000164 0.150000
vertex 0.006711 0.000164 0.000000
endloop
endfacet
facet normal 0.613056 -0.790040 -0.000089
outer loop
vertex 0.007118 0.000463 0.150000
vertex 0.006915 0.000305 0.150000
vertex 0.006711 0.000164 0.000000
endloop
endfacet
facet normal 0.000000 0.000000 1.000000
outer loop
vertex 0.006711 0.000164 0.000000
vertex 0.007118 0.000463 0.000000
vertex 0.007595 0.000853 0.000000
endloop
endfacet
facet normal 0.649408 -0.760441 0.000000
outer loop
vertex 0.007595 0.000853 0.000000
vertex 0.007595 0.000853 0.150000
vertex 0.007456 0.000734 0.150000
endloop
endfacet
facet normal 0.619759 -0.784792 -0.000117
outer loop
vertex 0.007298 0.000605 0.150000
vertex 0.007118 0.000463 0.150000
vertex 0.006711 0.000164 0.000000
endloop
endfacet
facet normal 0.631490 -0.775384 -0.000028
outer loop
vertex 0.007595 0.000853 0.000000
vertex 0.007456 0.000734 0.150000
vertex 0.007298 0.000605 0.150000
endloop
endfacet
facet normal 0.614490 -0.788924 -0.000085
outer loop
vertex 0.007595 0.000853 0.000000
vertex 0.007298 0.000605 0.150000
vertex 0.006711 0.000164 0.000000
endloop
endfacet
facet normal 0.999949 0.010101 0.000000
outer loop
vertex 0.008852 0.003363 0.000000
vertex 0.008845 0.004044 0.000000
vertex 0.008845 0.004044 0.150000
endloop
endfacet
facet normal 0.999949 0.010098 0.000000
outer loop
vertex 0.008852 0.003363 0.000000
vertex 0.008845 0.004044 0.150000
vertex 0.008852 0.003363 0.150000
endloop
endfacet
facet normal -0.705533 0.708677 0.000000
outer loop
vertex 0.000457 0.010772 0.150000
vertex 0.000457 0.010772 0.000000
vertex 0.000399 0.010714 0.000000
endloop
endfacet
facet normal -0.705533 0.708677 0.000000
outer loop
vertex 0.000457 0.010772 0.150000
vertex 0.000399 0.010714 0.000000
vertex 0.000399 0.010714 0.150000
endloop
endfacet
facet normal -0.795562 -0.605873 0.000000
outer loop
vertex 0.004514 0.001020 0.150000
vertex 0.004514 0.001020 0.000000
vertex 0.004627 0.000872 0.000000
endloop
endfacet
facet normal -0.795566 -0.605867 0.000000
outer loop
vertex 0.004514 0.001020 0.150000
vertex 0.004627 0.000872 0.000000
vertex 0.004627 0.000872 0.150000
endloop
endfacet
facet normal 0.000000 0.000000 -1.000000
outer loop
vertex 0.000122 0.009286 0.000000
vertex 0.000412 0.008855 0.000000
vertex 0.001071 0.007814 0.000000
endloop
endfacet
facet normal -0.861620 -0.507554 0.000000
outer loop
vertex 0.001071 0.007814 0.000000
vertex 0.001375 0.007297 0.000000
vertex 0.001375 0.007297 0.150000
endloop
endfacet
facet normal -0.861620 -0.507554 0.000000
outer loop
vertex 0.001071 0.007814 0.000000
vertex 0.001375 0.007297 0.150000
vertex 0.001071 0.007814 0.150000
endloop
endfacet
facet normal 0.000000 0.000000 -1.000000
outer loop
vertex 0.000000 0.009459 0.000000
vertex 0.000122 0.009286 0.000000
vertex 0.001071 0.007814 0.000000
endloop
endfacet
facet normal -0.817526 -0.575892 0.000000
outer loop
vertex 0.000122 0.009286 0.150000
vertex 0.000000 0.009459 0.150000
vertex 0.000000 0.009459 0.000000
endloop
endfacet
facet normal -0.845013 -0.534746 0.000000
outer loop
vertex 0.001071 0.007814 0.000000
vertex 0.001071 0.007814 0.150000
vertex 0.000412 0.008855 0.150000
endloop
endfacet
facet normal -0.829133 -0.559051 0.000029
outer loop
vertex 0.000412 0.008855 0.150000
vertex 0.000122 0.009286 0.150000
vertex 0.000000 0.009459 0.000000
endloop
endfacet
facet normal -0.837987 -0.545690 0.000107
outer loop
vertex 0.001071 0.007814 0.000000
vertex 0.000412 0.008855 0.150000
vertex 0.000000 0.009459 0.000000
endloop
endfacet
facet normal -0.594701 0.803947 0.000000
outer loop
vertex 0.001370 0.011448 0.000000
vertex 0.000457 0.010772 0.000000
vertex 0.000457 0.010772 0.150000
endloop
endfacet
facet normal -0.594701 0.803947 0.000000
outer loop
vertex 0.001370 0.011448 0.000000
vertex 0.000457 0.010772 0.150000
vertex 0.001370 0.011448 0.150000
endloop
endfacet
facet normal -0.501861 -0.864948 0.000000
outer loop
vertex 0.005315 0.000405 0.000000
vertex 0.005829 0.000106 0.000000
vertex 0.005829 0.000106 0.150000
endloop
endfacet
facet normal -0.501862 -0.864948 0.000000
outer loop
vertex 0.005315 0.000405 0.000000
vertex 0.005829 0.000106 0.150000
vertex 0.005315 0.000405 0.150000
endloop
endfacet
facet normal -0.406675 -0.913573 0.000000
outer loop
vertex 0.005013 0.000539 0.150000
vertex 0.005013 0.000539 0.000000
vertex 0.005315 0.000405 0.000000
endloop
endfacet
facet normal -0.406675 -0.913573 0.000000
outer loop
vertex 0.005013 0.000539 0.150000
vertex 0.005315 0.000405 0.000000
vertex 0.005315 0.000405 0.150000
endloop
endfacet
facet normal -0.850125 -0.526581 0.000000
outer loop
vertex 0.004302 0.001363 0.150000
vertex 0.004302 0.001363 0.000000
vertex 0.004514 0.001020 0.000000
endloop
endfacet
facet normal -0.850125 -0.526581 0.000000
outer loop
vertex 0.004302 0.001363 0.150000
vertex 0.004514 0.001020 0.000000
vertex 0.004514 0.001020 0.150000
endloop
endfacet
facet normal -0.773890 0.633320 0.000000
outer loop
vertex 0.000399 0.010714 0.150000
vertex 0.000399 0.010714 0.000000
vertex 0.000352 0.010657 0.000000
endloop
endfacet
facet normal -0.773890 0.633320 0.000000
outer loop
vertex 0.000399 0.010714 0.150000
vertex 0.000352 0.010657 0.000000
vertex 0.000352 0.010657 0.150000
endloop
endfacet
facet normal -0.398409 0.917208 0.000000
outer loop
vertex 0.001480 0.011495 0.150000
vertex 0.001480 0.011495 0.000000
vertex 0.001370 0.011448 0.000000
endloop
endfacet
facet normal -0.398409 0.917208 0.000000
outer loop
vertex 0.001480 0.011495 0.150000
vertex 0.001370 0.011448 0.000000
vertex 0.001370 0.011448 0.150000
endloop
endfacet
facet normal 0.898811 -0.438337 0.000000
outer loop
vertex 0.008154 0.001517 0.000000
vertex 0.008673 0.002581 0.000000
vertex 0.008673 0.002581 0.150000
endloop
endfacet
facet normal 0.898812 -0.438335 0.000000
outer loop
vertex 0.008154 0.001517 0.000000
vertex 0.008673 0.002581 0.150000
vertex 0.008154 0.001517 0.150000
endloop
endfacet
facet normal 0.747101 0.664710 0.000000
outer loop
vertex 0.007542 0.009439 0.000000
vertex 0.007316 0.009694 0.000000
vertex 0.007316 0.009694 0.150000
endloop
endfacet
facet normal 0.747101 0.664710 0.000000
outer loop
vertex 0.007542 0.009439 0.000000
vertex 0.007316 0.009694 0.150000
vertex 0.007542 0.009439 0.150000
endloop
endfacet
facet normal 0.991719 -0.128424 0.000000
outer loop
vertex 0.008807 0.003012 0.150000
vertex 0.008807 0.003012 0.000000
vertex 0.008852 0.003363 0.000000
endloop
endfacet
facet normal 0.991720 -0.128419 0.000000
outer loop
vertex 0.008807 0.003012 0.150000
vertex 0.008852 0.003363 0.000000
vertex 0.008852 0.003363 0.150000
endloop
endfacet
facet normal -0.549261 -0.835651 0.000000
outer loop
vertex 0.004874 0.000630 0.150000
vertex 0.004874 0.000630 0.000000
vertex 0.005013 0.000539 0.000000
endloop
endfacet
facet normal -0.549261 -0.835651 0.000000
outer loop
vertex 0.004874 0.000630 0.150000
vertex 0.005013 0.000539 0.000000
vertex 0.005013 0.000539 0.150000
endloop
endfacet
facet normal -0.150789 0.988566 0.000000
outer loop
vertex 0.001608 0.011532 0.000000
vertex 0.001608 0.011532 0.150000
vertex 0.001907 0.011577 0.150000
endloop
endfacet
facet normal -0.150789 0.988566 0.000000
outer loop
vertex 0.001608 0.011532 0.000000
vertex 0.001907 0.011577 0.150000
vertex 0.001907 0.011577 0.000000
endloop
endfacet
facet normal -0.967533 0.252744 0.000000
outer loop
vertex 0.000269 0.010489 0.000000
vertex 0.000000 0.009459 0.000000
vertex 0.000000 0.009459 0.150000
endloop
endfacet
facet normal -0.967533 0.252744 0.000000
outer loop
vertex 0.000269 0.010489 0.000000
vertex 0.000000 0.009459 0.150000
vertex 0.000269 0.010489 0.150000
endloop
endfacet
facet normal 0.115039 -0.993361 0.000000
outer loop
vertex 0.006218 0.000000 0.150000
vertex 0.006218 0.000000 0.000000
vertex 0.006366 0.000017 0.000000
endloop
endfacet
facet normal 0.115039 -0.993361 0.000000
outer loop
vertex 0.006218 0.000000 0.150000
vertex 0.006366 0.000017 0.000000
vertex 0.006366 0.000017 0.150000
endloop
endfacet
facet normal -0.866502 0.499173 0.000000
outer loop
vertex 0.000352 0.010657 0.150000
vertex 0.000352 0.010657 0.000000
vertex 0.000311 0.010585 0.000000
endloop
endfacet
facet normal -0.866503 0.499173 0.000000
outer loop
vertex 0.000352 0.010657 0.150000
vertex 0.000311 0.010585 0.000000
vertex 0.000311 0.010585 0.150000
endloop
endfacet
facet normal -0.071681 0.997428 0.000000
outer loop
vertex 0.002071 0.011589 0.000000
vertex 0.001907 0.011577 0.000000
vertex 0.001907 0.011577 0.150000
endloop
endfacet
facet normal -0.071681 0.997428 0.000000
outer loop
vertex 0.002071 0.011589 0.000000
vertex 0.001907 0.011577 0.150000
vertex 0.002071 0.011589 0.150000
endloop
endfacet
facet normal -0.036898 0.999319 0.000000
outer loop
vertex 0.002239 0.011595 0.000000
vertex 0.002071 0.011589 0.000000
vertex 0.002071 0.011589 0.150000
endloop
endfacet
facet normal -0.036898 0.999319 0.000000
outer loop
vertex 0.002239 0.011595 0.000000
vertex 0.002071 0.011589 0.150000
vertex 0.002239 0.011595 0.150000
endloop
endfacet
facet normal -0.012018 0.999928 0.000000
outer loop
vertex 0.002410 0.011597 0.000000
vertex 0.002239 0.011595 0.000000
vertex 0.002239 0.011595 0.150000
endloop
endfacet
facet normal -0.012018 0.999928 0.000000
outer loop
vertex 0.002410 0.011597 0.000000
vertex 0.002239 0.011595 0.150000
vertex 0.002410 0.011597 0.150000
endloop
endfacet
facet normal 0.004638 0.999989 0.000000
outer loop
vertex 0.002577 0.011597 0.000000
vertex 0.002410 0.011597 0.000000
vertex 0.002410 0.011597 0.150000
endloop
endfacet
facet normal 0.004638 0.999989 0.000000
outer loop
vertex 0.002577 0.011597 0.000000
vertex 0.002410 0.011597 0.150000
vertex 0.002577 0.011597 0.150000
endloop
endfacet
facet normal 0.067374 0.997728 0.000000
outer loop
vertex 0.003184 0.011581 0.150000
vertex 0.003184 0.011581 0.000000
vertex 0.003033 0.011591 0.000000
endloop
endfacet
facet normal 0.012428 0.999923 0.000000
outer loop
vertex 0.003033 0.011591 0.000000
vertex 0.002577 0.011597 0.000000
vertex 0.002577 0.011597 0.150000
endloop
endfacet
facet normal 0.067374 0.997728 0.000000
outer loop
vertex 0.003033 0.011591 0.150000
vertex 0.003184 0.011581 0.150000
vertex 0.003033 0.011591 0.000000
endloop
endfacet
facet normal 0.012428 0.999923 0.000000
outer loop
vertex 0.002577 0.011597 0.150000
vertex 0.003033 0.011591 0.150000
vertex 0.003033 0.011591 0.000000
endloop
endfacet
facet normal 0.336248 0.941773 0.000000
outer loop
vertex 0.004927 0.011041 0.000000
vertex 0.003812 0.011439 0.000000
vertex 0.003812 0.011439 0.150000
endloop
endfacet
facet normal 0.336248 0.941773 0.000000
outer loop
vertex 0.004927 0.011041 0.000000
vertex 0.003812 0.011439 0.150000
vertex 0.004927 0.011041 0.150000
endloop
endfacet
facet normal 0.563457 0.826145 0.000000
outer loop
vertex 0.007035 0.009940 0.150000
vertex 0.007035 0.009940 0.000000
vertex 0.006659 0.010197 0.000000
endloop
endfacet
facet normal 0.563457 0.826145 0.000000
outer loop
vertex 0.007035 0.009940 0.150000
vertex 0.006659 0.010197 0.000000
vertex 0.006659 0.010197 0.150000
endloop
endfacet
facet normal 0.803290 0.595587 0.000000
outer loop
vertex 0.008119 0.008662 0.000000
vertex 0.007542 0.009439 0.000000
vertex 0.007542 0.009439 0.150000
endloop
endfacet
facet normal 0.803291 0.595586 0.000000
outer loop
vertex 0.008119 0.008662 0.000000
vertex 0.007542 0.009439 0.150000
vertex 0.008119 0.008662 0.150000
endloop
endfacet
facet normal 0.000000 0.000000 -1.000000
outer loop
vertex 0.002577 0.011597 0.000000
vertex 0.003033 0.011591 0.000000
vertex 0.003184 0.011581 0.000000
endloop
endfacet
facet normal 0.000000 0.000000 -1.000000
outer loop
vertex 0.003184 0.011581 0.000000
vertex 0.003366 0.011551 0.000000
vertex 0.003576 0.011504 0.000000
endloop
endfacet
facet normal 0.000000 0.000000 -1.000000
outer loop
vertex 0.003576 0.011504 0.000000
vertex 0.003812 0.011439 0.000000
vertex 0.004927 0.011041 0.000000
endloop
endfacet
facet normal 0.000000 0.000000 -1.000000
outer loop
vertex 0.004927 0.011041 0.000000
vertex 0.005231 0.010913 0.000000
vertex 0.005538 0.010776 0.000000
endloop
endfacet
facet normal 0.000000 0.000000 -1.000000
outer loop
vertex 0.005538 0.010776 0.000000
vertex 0.005844 0.010632 0.000000
vertex 0.006145 0.010482 0.000000
endloop
endfacet
facet normal 0.000000 0.000000 -1.000000
outer loop
vertex 0.006145 0.010482 0.000000
vertex 0.006422 0.010335 0.000000
vertex 0.006659 0.010197 0.000000
endloop
endfacet
facet normal 0.000000 0.000000 -1.000000
outer loop
vertex 0.006659 0.010197 0.000000
vertex 0.007035 0.009940 0.000000
vertex 0.007316 0.009694 0.000000
endloop
endfacet
facet normal 0.000000 0.000000 -1.000000
outer loop
vertex 0.007316 0.009694 0.000000
vertex 0.007542 0.009439 0.000000
vertex 0.008119 0.008662 0.000000
endloop
endfacet
facet normal 0.000000 0.000000 -1.000000
outer loop
vertex 0.008119 0.008662 0.000000
vertex 0.008216 0.008494 0.000000
vertex 0.008292 0.008330 0.000000
endloop
endfacet
facet normal 0.000000 0.000000 -1.000000
outer loop
vertex 0.008292 0.008330 0.000000
vertex 0.008350 0.008168 0.000000
vertex 0.008424 0.007845 0.000000
endloop
endfacet
facet normal 0.000000 0.000000 -1.000000
outer loop
vertex 0.008424 0.007845 0.000000
vertex 0.008845 0.004044 0.000000
vertex 0.008852 0.003363 0.000000
endloop
endfacet
facet normal 0.000000 0.000000 -1.000000
outer loop
vertex 0.008852 0.003363 0.000000
vertex 0.008807 0.003012 0.000000
vertex 0.008770 0.002858 0.000000
endloop
endfacet
facet normal 0.000000 0.000000 -1.000000
outer loop
vertex 0.008770 0.002858 0.000000
vertex 0.008673 0.002581 0.000000
vertex 0.008154 0.001517 0.000000
endloop
endfacet
facet normal 0.000000 0.000000 -1.000000
outer loop
vertex 0.008154 0.001517 0.000000
vertex 0.008006 0.001286 0.000000
vertex 0.007921 0.001178 0.000000
endloop
endfacet
facet normal 0.000000 0.000000 -1.000000
outer loop
vertex 0.007921 0.001178 0.000000
vertex 0.007718 0.000965 0.000000
vertex 0.007595 0.000853 0.000000
endloop
endfacet
facet normal 0.000000 0.000000 -1.000000
outer loop
vertex 0.007595 0.000853 0.000000
vertex 0.007456 0.000734 0.000000
vertex 0.007298 0.000605 0.000000
endloop
endfacet
facet normal 0.000000 0.000000 -1.000000
outer loop
vertex 0.007298 0.000605 0.000000
vertex 0.007118 0.000463 0.000000
vertex 0.006915 0.000305 0.000000
endloop
endfacet
facet normal 0.000000 0.000000 -1.000000
outer loop
vertex 0.006915 0.000305 0.000000
vertex 0.006711 0.000164 0.000000
vertex 0.006529 0.000070 0.000000
endloop
endfacet
facet normal 0.000000 0.000000 -1.000000
outer loop
vertex 0.006529 0.000070 0.000000
vertex 0.006366 0.000017 0.000000
vertex 0.006218 0.000000 0.000000
endloop
endfacet
facet normal 0.000000 0.000000 -1.000000
outer loop
vertex 0.006218 0.000000 0.000000
vertex 0.006081 0.000013 0.000000
vertex 0.005953 0.000050 0.000000
endloop
endfacet
facet normal 0.000000 0.000000 -1.000000
outer loop
vertex 0.005953 0.000050 0.000000
vertex 0.005829 0.000106 0.000000
vertex 0.005315 0.000405 0.000000
endloop
endfacet
facet normal 0.000000 0.000000 -1.000000
outer loop
vertex 0.005315 0.000405 0.000000
vertex 0.005013 0.000539 0.000000
vertex 0.004874 0.000630 0.000000
endloop
endfacet
facet normal 0.000000 0.000000 -1.000000
outer loop
vertex 0.004874 0.000630 0.000000
vertex 0.004746 0.000742 0.000000
vertex 0.004627 0.000872 0.000000
endloop
endfacet
facet normal 0.000000 0.000000 -1.000000
outer loop
vertex 0.004627 0.000872 0.000000
vertex 0.004514 0.001020 0.000000
vertex 0.004302 0.001363 0.000000
endloop
endfacet
facet normal 0.000000 0.000000 -1.000000
outer loop
vertex 0.004627 0.000872 0.000000
vertex 0.004302 0.001363 0.000000
vertex 0.001375 0.007297 0.000000
endloop
endfacet
facet normal 0.000000 0.000000 -1.000000
outer loop
vertex 0.005315 0.000405 0.000000
vertex 0.004874 0.000630 0.000000
vertex 0.004627 0.000872 0.000000
endloop
endfacet
facet normal 0.000000 0.000000 -1.000000
outer loop
vertex 0.006218 0.000000 0.000000
vertex 0.005953 0.000050 0.000000
vertex 0.005315 0.000405 0.000000
endloop
endfacet
facet normal 0.000000 0.000000 -1.000000
outer loop
vertex 0.006915 0.000305 0.000000
vertex 0.006529 0.000070 0.000000
vertex 0.006218 0.000000 0.000000
endloop
endfacet
facet normal 0.000000 0.000000 -1.000000
outer loop
vertex 0.007595 0.000853 0.000000
vertex 0.007298 0.000605 0.000000
vertex 0.006915 0.000305 0.000000
endloop
endfacet
facet normal 0.000000 0.000000 -1.000000
outer loop
vertex 0.008154 0.001517 0.000000
vertex 0.007921 0.001178 0.000000
vertex 0.007595 0.000853 0.000000
endloop
endfacet
facet normal 0.000000 0.000000 -1.000000
outer loop
vertex 0.008852 0.003363 0.000000
vertex 0.008770 0.002858 0.000000
vertex 0.008154 0.001517 0.000000
endloop
endfacet
facet normal 0.000000 0.000000 -1.000000
outer loop
vertex 0.008292 0.008330 0.000000
vertex 0.008424 0.007845 0.000000
vertex 0.008852 0.003363 0.000000
endloop
endfacet
facet normal 0.000000 0.000000 -1.000000
outer loop
vertex 0.007316 0.009694 0.000000
vertex 0.008119 0.008662 0.000000
vertex 0.008292 0.008330 0.000000
endloop
endfacet
facet normal 0.000000 0.000000 -1.000000
outer loop
vertex 0.006145 0.010482 0.000000
vertex 0.006659 0.010197 0.000000
vertex 0.007316 0.009694 0.000000
endloop
endfacet
facet normal 0.000000 0.000000 -1.000000
outer loop
vertex 0.004927 0.011041 0.000000
vertex 0.005538 0.010776 0.000000
vertex 0.006145 0.010482 0.000000
endloop
endfacet
facet normal 0.000000 0.000000 -1.000000
outer loop
vertex 0.003184 0.011581 0.000000
vertex 0.003576 0.011504 0.000000
vertex 0.004927 0.011041 0.000000
endloop
endfacet
facet normal 0.000000 0.000000 -1.000000
outer loop
vertex 0.002410 0.011597 0.000000
vertex 0.002577 0.011597 0.000000
vertex 0.003184 0.011581 0.000000
endloop
endfacet
facet normal 0.000000 0.000000 -1.000000
outer loop
vertex 0.002071 0.011589 0.000000
vertex 0.002239 0.011595 0.000000
vertex 0.002410 0.011597 0.000000
endloop
endfacet
facet normal 0.000000 0.000000 -1.000000
outer loop
vertex 0.001608 0.011532 0.000000
vertex 0.001907 0.011577 0.000000
vertex 0.002071 0.011589 0.000000
endloop
endfacet
facet normal 0.000000 0.000000 -1.000000
outer loop
vertex 0.001370 0.011448 0.000000
vertex 0.001480 0.011495 0.000000
vertex 0.001608 0.011532 0.000000
endloop
endfacet
facet normal 0.000000 0.000000 -1.000000
outer loop
vertex 0.000399 0.010714 0.000000
vertex 0.000457 0.010772 0.000000
vertex 0.001370 0.011448 0.000000
endloop
endfacet
facet normal 0.000000 0.000000 -1.000000
outer loop
vertex 0.000311 0.010585 0.000000
vertex 0.000352 0.010657 0.000000
vertex 0.000399 0.010714 0.000000
endloop
endfacet
facet normal 0.000000 0.000000 -1.000000
outer loop
vertex 0.000000 0.009459 0.000000
vertex 0.000269 0.010489 0.000000
vertex 0.000311 0.010585 0.000000
endloop
endfacet
facet normal 0.000000 0.000000 -1.000000
outer loop
vertex 0.000122 0.009286 0.000000
vertex 0.000000 0.009459 0.000000
vertex 0.000311 0.010585 0.000000
endloop
endfacet
facet normal 0.000000 0.000000 -1.000000
outer loop
vertex 0.000311 0.010585 0.000000
vertex 0.000399 0.010714 0.000000
vertex 0.001370 0.011448 0.000000
endloop
endfacet
facet normal 0.000000 0.000000 -1.000000
outer loop
vertex 0.001370 0.011448 0.000000
vertex 0.001608 0.011532 0.000000
vertex 0.002071 0.011589 0.000000
endloop
endfacet
facet normal 0.000000 0.000000 -1.000000
outer loop
vertex 0.002071 0.011589 0.000000
vertex 0.002410 0.011597 0.000000
vertex 0.003184 0.011581 0.000000
endloop
endfacet
facet normal 0.000000 0.000000 -1.000000
outer loop
vertex 0.003184 0.011581 0.000000
vertex 0.004927 0.011041 0.000000
vertex 0.006145 0.010482 0.000000
endloop
endfacet
facet normal 0.000000 0.000000 -1.000000
outer loop
vertex 0.006145 0.010482 0.000000
vertex 0.007316 0.009694 0.000000
vertex 0.008292 0.008330 0.000000
endloop
endfacet
facet normal 0.000000 0.000000 -1.000000
outer loop
vertex 0.008292 0.008330 0.000000
vertex 0.008852 0.003363 0.000000
vertex 0.008154 0.001517 0.000000
endloop
endfacet
facet normal 0.000000 0.000000 -1.000000
outer loop
vertex 0.008154 0.001517 0.000000
vertex 0.007595 0.000853 0.000000
vertex 0.006915 0.000305 0.000000
endloop
endfacet
facet normal 0.000000 0.000000 -1.000000
outer loop
vertex 0.006915 0.000305 0.000000
vertex 0.006218 0.000000 0.000000
vertex 0.005315 0.000405 0.000000
endloop
endfacet
facet normal 0.000000 0.000000 -1.000000
outer loop
vertex 0.005315 0.000405 0.000000
vertex 0.004627 0.000872 0.000000
vertex 0.001375 0.007297 0.000000
endloop
endfacet
facet normal 0.000000 0.000000 -1.000000
outer loop
vertex 0.006915 0.000305 0.000000
vertex 0.005315 0.000405 0.000000
vertex 0.001375 0.007297 0.000000
endloop
endfacet
facet normal 0.000000 0.000000 -1.000000
outer loop
vertex 0.008292 0.008330 0.000000
vertex 0.008154 0.001517 0.000000
vertex 0.006915 0.000305 0.000000
endloop
endfacet
facet normal 0.000000 0.000000 -1.000000
outer loop
vertex 0.003184 0.011581 0.000000
vertex 0.006145 0.010482 0.000000
vertex 0.008292 0.008330 0.000000
endloop
endfacet
facet normal 0.000000 0.000000 -1.000000
outer loop
vertex 0.001370 0.011448 0.000000
vertex 0.002071 0.011589 0.000000
vertex 0.003184 0.011581 0.000000
endloop
endfacet
facet normal 0.000000 0.000000 -1.000000
outer loop
vertex 0.000122 0.009286 0.000000
vertex 0.000311 0.010585 0.000000
vertex 0.001370 0.011448 0.000000
endloop
endfacet
facet normal 0.000000 0.000000 -1.000000
outer loop
vertex 0.000412 0.008855 0.000000
vertex 0.000122 0.009286 0.000000
vertex 0.001370 0.011448 0.000000
endloop
endfacet
facet normal 0.000000 0.000000 -1.000000
outer loop
vertex 0.001370 0.011448 0.000000
vertex 0.003184 0.011581 0.000000
vertex 0.008292 0.008330 0.000000
endloop
endfacet
facet normal 0.000000 0.000000 -1.000000
outer loop
vertex 0.008292 0.008330 0.000000
vertex 0.006915 0.000305 0.000000
vertex 0.001375 0.007297 0.000000
endloop
endfacet
facet normal 0.000000 0.000000 -1.000000
outer loop
vertex 0.001071 0.007814 0.000000
vertex 0.000412 0.008855 0.000000
vertex 0.001370 0.011448 0.000000
endloop
endfacet
facet normal 0.000000 0.000000 -1.000000
outer loop
vertex 0.008292 0.008330 0.000000
vertex 0.001375 0.007297 0.000000
vertex 0.001071 0.007814 0.000000
endloop
endfacet
facet normal 0.000000 0.000000 -1.000000
outer loop
vertex 0.008292 0.008330 0.000000
vertex 0.001071 0.007814 0.000000
vertex 0.001370 0.011448 0.000000
endloop
endfacet
facet normal -0.279079 -0.960268 0.000000
outer loop
vertex 0.005953 0.000050 0.150000
vertex 0.005953 0.000050 0.000000
vertex 0.006081 0.000013 0.000000
endloop
endfacet
facet normal -0.279079 -0.960268 0.000000
outer loop
vertex 0.005953 0.000050 0.150000
vertex 0.006081 0.000013 0.000000
vertex 0.006081 0.000013 0.150000
endloop
endfacet
facet normal 0.308043 -0.951372 0.000000
outer loop
vertex 0.006366 0.000017 0.150000
vertex 0.006366 0.000017 0.000000
vertex 0.006529 0.000070 0.000000
endloop
endfacet
facet normal 0.308043 -0.951372 0.000000
outer loop
vertex 0.006366 0.000017 0.150000
vertex 0.006529 0.000070 0.000000
vertex 0.006529 0.000070 0.150000
endloop
endfacet
endsolid Exported from Blender-3.6.8
