solid Exported from Blender-3.6.8
facet normal -0.980989 -0.194062 0.000000
outer loop
vertex 0.000013 0.003568 0.150000
vertex 0.000013 0.003568 0.000000
vertex 0.000055 0.003357 0.000000
endloop
endfacet
facet normal -0.980989 -0.194062 0.000000
outer loop
vertex 0.000013 0.003568 0.150000
vertex 0.000055 0.003357 0.000000
vertex 0.000055 0.003357 0.150000
endloop
endfacet
facet normal -0.666232 0.745745 0.000000
outer loop
vertex 0.000716 0.006948 0.000000
vertex 0.000708 0.006941 0.000000
vertex 0.000708 0.006941 0.150000
endloop
endfacet
facet normal -0.666227 0.745749 0.000000
outer loop
vertex 0.000716 0.006948 0.000000
vertex 0.000708 0.006941 0.150000
vertex 0.000716 0.006948 0.150000
endloop
endfacet
facet normal -0.654992 0.755636 0.000000
outer loop
vertex 0.000739 0.006967 0.000000
vertex 0.000716 0.006948 0.000000
vertex 0.000716 0.006948 0.150000
endloop
endfacet
facet normal -0.654990 0.755638 0.000000
outer loop
vertex 0.000739 0.006967 0.000000
vertex 0.000716 0.006948 0.150000
vertex 0.000739 0.006967 0.150000
endloop
endfacet
facet normal -0.641534 0.767095 0.000000
outer loop
vertex 0.000776 0.006998 0.000000
vertex 0.000739 0.006967 0.000000
vertex 0.000739 0.006967 0.150000
endloop
endfacet
facet normal -0.641534 0.767095 0.000000
outer loop
vertex 0.000776 0.006998 0.000000
vertex 0.000739 0.006967 0.150000
vertex 0.000776 0.006998 0.150000
endloop
endfacet
facet normal -0.626691 0.779268 0.000000
outer loop
vertex 0.000826 0.007039 0.000000
vertex 0.000776 0.006998 0.000000
vertex 0.000776 0.006998 0.150000
endloop
endfacet
facet normal -0.626692 0.779267 0.000000
outer loop
vertex 0.000826 0.007039 0.000000
vertex 0.000776 0.006998 0.150000
vertex 0.000826 0.007039 0.150000
endloop
endfacet
facet normal -0.610435 0.792067 0.000000
outer loop
vertex 0.000890 0.007089 0.000000
vertex 0.000826 0.007039 0.000000
vertex 0.000826 0.007039 0.150000
endloop
endfacet
facet normal -0.610435 0.792067 0.000000
outer loop
vertex 0.000890 0.007089 0.000000
vertex 0.000826 0.007039 0.150000
vertex 0.000890 0.007089 0.150000
endloop
endfacet
facet normal -0.592597 0.805499 0.000000
outer loop
vertex 0.000967 0.007145 0.000000
vertex 0.000890 0.007089 0.000000
vertex 0.000890 0.007089 0.150000
endloop
endfacet
facet normal -0.592596 0.805500 0.000000
outer loop
vertex 0.000967 0.007145 0.000000
vertex 0.000890 0.007089 0.150000
vertex 0.000967 0.007145 0.150000
endloop
endfacet
facet normal -0.551493 0.834179 0.000000
outer loop
vertex 0.001156 0.007273 0.150000
vertex 0.001156 0.007273 0.000000
vertex 0.001056 0.007207 0.000000
endloop
endfacet
facet normal -0.573026 0.819537 0.000000
outer loop
vertex 0.001056 0.007207 0.000000
vertex 0.000967 0.007145 0.000000
vertex 0.000967 0.007145 0.150000
endloop
endfacet
facet normal -0.551494 0.834179 0.000000
outer loop
vertex 0.001056 0.007207 0.150000
vertex 0.001156 0.007273 0.150000
vertex 0.001056 0.007207 0.000000
endloop
endfacet
facet normal -0.573026 0.819537 0.000000
outer loop
vertex 0.001056 0.007207 0.000000
vertex 0.000967 0.007145 0.150000
vertex 0.001056 0.007207 0.150000
endloop
endfacet
facet normal 0.681635 -0.731692 0.000000
outer loop
vertex 0.005201 0.000384 0.000000
vertex 0.005201 0.000384 0.150000
vertex 0.005069 0.000261 0.150000
endloop
endfacet
facet normal 0.681639 -0.731688 0.000000
outer loop
vertex 0.005201 0.000384 0.000000
vertex 0.005069 0.000261 0.150000
vertex 0.005069 0.000261 0.000000
endloop
endfacet
facet normal 0.779956 0.625834 0.000000
outer loop
vertex 0.002890 0.006776 0.150000
vertex 0.002890 0.006776 0.000000
vertex 0.002735 0.006970 0.000000
endloop
endfacet
facet normal 0.779958 0.625832 0.000000
outer loop
vertex 0.002890 0.006776 0.150000
vertex 0.002735 0.006970 0.000000
vertex 0.002735 0.006970 0.150000
endloop
endfacet
facet normal -0.753455 -0.657500 0.000000
outer loop
vertex 0.000862 0.001623 0.150000
vertex 0.000862 0.001623 0.000000
vertex 0.000964 0.001506 0.000000
endloop
endfacet
facet normal -0.753455 -0.657500 0.000000
outer loop
vertex 0.000862 0.001623 0.150000
vertex 0.000964 0.001506 0.000000
vertex 0.000964 0.001506 0.150000
endloop
endfacet
facet normal -0.999210 0.039750 0.000000
outer loop
vertex 0.000012 0.004124 0.150000
vertex 0.000012 0.004124 0.000000
vertex 0.000000 0.003828 0.000000
endloop
endfacet
facet normal -0.999210 0.039750 0.000000
outer loop
vertex 0.000012 0.004124 0.150000
vertex 0.000000 0.003828 0.000000
vertex 0.000000 0.003828 0.150000
endloop
endfacet
facet normal 0.868718 -0.495307 0.000000
outer loop
vertex 0.005324 0.000538 0.150000
vertex 0.005324 0.000538 0.000000
vertex 0.005428 0.000720 0.000000
endloop
endfacet
facet normal 0.868717 -0.495310 0.000000
outer loop
vertex 0.005324 0.000538 0.150000
vertex 0.005428 0.000720 0.000000
vertex 0.005428 0.000720 0.150000
endloop
endfacet
facet normal 0.000000 0.000000 1.000000
outer loop
vertex 0.004969 0.003451 0.000000
vertex 0.004816 0.003746 0.000000
vertex 0.004668 0.004016 0.000000
endloop
endfacet
facet normal 0.877866 0.478907 0.000000
outer loop
vertex 0.004668 0.004016 0.000000
vertex 0.004668 0.004016 0.150000
vertex 0.004816 0.003746 0.150000
endloop
endfacet
facet normal 0.887735 0.460355 -0.000043
outer loop
vertex 0.004668 0.004016 0.000000
vertex 0.004816 0.003746 0.150000
vertex 0.004969 0.003451 0.150000
endloop
endfacet
facet normal 0.000000 0.000000 1.000000
outer loop
vertex 0.005233 0.002925 0.000000
vertex 0.004969 0.003451 0.000000
vertex 0.004668 0.004016 0.000000
endloop
endfacet
facet normal 0.905022 0.425364 0.000000
outer loop
vertex 0.005323 0.002734 0.150000
vertex 0.005323 0.002734 0.000000
vertex 0.005233 0.002925 0.000000
endloop
endfacet
facet normal 0.893588 0.448888 -0.000098
outer loop
vertex 0.004668 0.004016 0.000000
vertex 0.004969 0.003451 0.150000
vertex 0.005233 0.002925 0.150000
endloop
endfacet
facet normal 0.905024 0.425361 0.000000
outer loop
vertex 0.005233 0.002925 0.150000
vertex 0.005323 0.002734 0.150000
vertex 0.005233 0.002925 0.000000
endloop
endfacet
facet normal 0.888154 0.459546 0.000000
outer loop
vertex 0.004668 0.004016 0.000000
vertex 0.005233 0.002925 0.150000
vertex 0.005233 0.002925 0.000000
endloop
endfacet
facet normal 0.000000 0.000000 -1.000000
outer loop
vertex 0.005323 0.002734 0.000000
vertex 0.005454 0.002388 0.000000
vertex 0.005530 0.002082 0.000000
endloop
endfacet
facet normal 0.000000 0.000000 -1.000000
outer loop
vertex 0.005530 0.002082 0.000000
vertex 0.005564 0.001804 0.000000
vertex 0.005568 0.001545 0.000000
endloop
endfacet
facet normal 0.000000 0.000000 -1.000000
outer loop
vertex 0.005568 0.001545 0.000000
vertex 0.005563 0.001420 0.000000
vertex 0.005555 0.001295 0.000000
endloop
endfacet
facet normal 0.000000 0.000000 -1.000000
outer loop
vertex 0.005555 0.001295 0.000000
vertex 0.005546 0.001170 0.000000
vertex 0.005530 0.001047 0.000000
endloop
endfacet
facet normal 0.000000 0.000000 -1.000000
outer loop
vertex 0.005530 0.001047 0.000000
vertex 0.005505 0.000931 0.000000
vertex 0.005471 0.000822 0.000000
endloop
endfacet
facet normal 0.000000 0.000000 -1.000000
outer loop
vertex 0.005471 0.000822 0.000000
vertex 0.005428 0.000720 0.000000
vertex 0.005324 0.000538 0.000000
endloop
endfacet
facet normal 0.000000 0.000000 -1.000000
outer loop
vertex 0.005324 0.000538 0.000000
vertex 0.005201 0.000384 0.000000
vertex 0.005069 0.000261 0.000000
endloop
endfacet
facet normal 0.000000 0.000000 -1.000000
outer loop
vertex 0.005069 0.000261 0.000000
vertex 0.004935 0.000168 0.000000
vertex 0.004794 0.000101 0.000000
endloop
endfacet
facet normal 0.000000 0.000000 -1.000000
outer loop
vertex 0.004794 0.000101 0.000000
vertex 0.004636 0.000052 0.000000
vertex 0.004466 0.000019 0.000000
endloop
endfacet
facet normal 0.000000 0.000000 -1.000000
outer loop
vertex 0.004466 0.000019 0.000000
vertex 0.004289 0.000003 0.000000
vertex 0.004199 0.000000 0.000000
endloop
endfacet
facet normal 0.000000 0.000000 -1.000000
outer loop
vertex 0.004199 0.000000 0.000000
vertex 0.004110 0.000001 0.000000
vertex 0.004022 0.000006 0.000000
endloop
endfacet
facet normal 0.000000 0.000000 -1.000000
outer loop
vertex 0.004022 0.000006 0.000000
vertex 0.003935 0.000014 0.000000
vertex 0.003754 0.000048 0.000000
endloop
endfacet
facet normal 0.000000 0.000000 -1.000000
outer loop
vertex 0.003754 0.000048 0.000000
vertex 0.003656 0.000076 0.000000
vertex 0.003553 0.000110 0.000000
endloop
endfacet
facet normal 0.000000 0.000000 -1.000000
outer loop
vertex 0.003553 0.000110 0.000000
vertex 0.003337 0.000193 0.000000
vertex 0.001680 0.000995 0.000000
endloop
endfacet
facet normal 0.000000 0.000000 -1.000000
outer loop
vertex 0.001680 0.000995 0.000000
vertex 0.001548 0.001074 0.000000
vertex 0.001420 0.001155 0.000000
endloop
endfacet
facet normal 0.000000 0.000000 -1.000000
outer loop
vertex 0.001420 0.001155 0.000000
vertex 0.001296 0.001237 0.000000
vertex 0.001179 0.001322 0.000000
endloop
endfacet
facet normal 0.000000 0.000000 -1.000000
outer loop
vertex 0.001179 0.001322 0.000000
vertex 0.001068 0.001408 0.000000
vertex 0.000964 0.001506 0.000000
endloop
endfacet
facet normal 0.000000 0.000000 -1.000000
outer loop
vertex 0.000964 0.001506 0.000000
vertex 0.000862 0.001623 0.000000
vertex 0.000668 0.001905 0.000000
endloop
endfacet
facet normal 0.000000 0.000000 -1.000000
outer loop
vertex 0.000668 0.001905 0.000000
vertex 0.000577 0.002066 0.000000
vertex 0.000489 0.002237 0.000000
endloop
endfacet
facet normal 0.000000 0.000000 -1.000000
outer loop
vertex 0.000489 0.002237 0.000000
vertex 0.000326 0.002602 0.000000
vertex 0.000251 0.002791 0.000000
endloop
endfacet
facet normal 0.000000 0.000000 -1.000000
outer loop
vertex 0.000251 0.002791 0.000000
vertex 0.000181 0.002981 0.000000
vertex 0.000115 0.003170 0.000000
endloop
endfacet
facet normal 0.000000 0.000000 -1.000000
outer loop
vertex 0.000115 0.003170 0.000000
vertex 0.000055 0.003357 0.000000
vertex 0.000013 0.003568 0.000000
endloop
endfacet
facet normal 0.000000 0.000000 -1.000000
outer loop
vertex 0.000013 0.003568 0.000000
vertex 0.000000 0.003828 0.000000
vertex 0.000012 0.004124 0.000000
endloop
endfacet
facet normal 0.000000 0.000000 -1.000000
outer loop
vertex 0.000012 0.004124 0.000000
vertex 0.000043 0.004445 0.000000
vertex 0.000090 0.004778 0.000000
endloop
endfacet
facet normal 0.000000 0.000000 -1.000000
outer loop
vertex 0.000090 0.004778 0.000000
vertex 0.000147 0.005112 0.000000
vertex 0.000273 0.005734 0.000000
endloop
endfacet
facet normal 0.000000 0.000000 -1.000000
outer loop
vertex 0.000273 0.005734 0.000000
vertex 0.000443 0.006465 0.000000
vertex 0.000708 0.006941 0.000000
endloop
endfacet
facet normal 0.000000 0.000000 -1.000000
outer loop
vertex 0.000708 0.006941 0.000000
vertex 0.000716 0.006948 0.000000
vertex 0.000739 0.006967 0.000000
endloop
endfacet
facet normal 0.000000 0.000000 -1.000000
outer loop
vertex 0.000739 0.006967 0.000000
vertex 0.000776 0.006998 0.000000
vertex 0.000826 0.007039 0.000000
endloop
endfacet
facet normal 0.000000 0.000000 -1.000000
outer loop
vertex 0.000826 0.007039 0.000000
vertex 0.000890 0.007089 0.000000
vertex 0.000967 0.007145 0.000000
endloop
endfacet
facet normal 0.000000 0.000000 -1.000000
outer loop
vertex 0.000967 0.007145 0.000000
vertex 0.001056 0.007207 0.000000
vertex 0.001156 0.007273 0.000000
endloop
endfacet
facet normal 0.000000 0.000000 -1.000000
outer loop
vertex 0.001156 0.007273 0.000000
vertex 0.001267 0.007343 0.000000
vertex 0.001389 0.007413 0.000000
endloop
endfacet
facet normal 0.000000 0.000000 -1.000000
outer loop
vertex 0.001389 0.007413 0.000000
vertex 0.001520 0.007483 0.000000
vertex 0.001661 0.007552 0.000000
endloop
endfacet
facet normal 0.000000 0.000000 -1.000000
outer loop
vertex 0.001661 0.007552 0.000000
vertex 0.001791 0.007608 0.000000
vertex 0.001895 0.007639 0.000000
endloop
endfacet
facet normal 0.000000 0.000000 -1.000000
outer loop
vertex 0.001895 0.007639 0.000000
vertex 0.001978 0.007650 0.000000
vertex 0.002043 0.007643 0.000000
endloop
endfacet
facet normal 0.000000 0.000000 -1.000000
outer loop
vertex 0.002043 0.007643 0.000000
vertex 0.002095 0.007619 0.000000
vertex 0.002139 0.007581 0.000000
endloop
endfacet
facet normal 0.000000 0.000000 -1.000000
outer loop
vertex 0.002043 0.007643 0.000000
vertex 0.002139 0.007581 0.000000
vertex 0.002319 0.007343 0.000000
endloop
endfacet
facet normal 0.000000 0.000000 -1.000000
outer loop
vertex 0.001661 0.007552 0.000000
vertex 0.001895 0.007639 0.000000
vertex 0.002043 0.007643 0.000000
endloop
endfacet
facet normal 0.000000 0.000000 -1.000000
outer loop
vertex 0.001156 0.007273 0.000000
vertex 0.001389 0.007413 0.000000
vertex 0.001661 0.007552 0.000000
endloop
endfacet
facet normal 0.000000 0.000000 -1.000000
outer loop
vertex 0.000826 0.007039 0.000000
vertex 0.000967 0.007145 0.000000
vertex 0.001156 0.007273 0.000000
endloop
endfacet
facet normal 0.000000 0.000000 -1.000000
outer loop
vertex 0.000708 0.006941 0.000000
vertex 0.000739 0.006967 0.000000
vertex 0.000826 0.007039 0.000000
endloop
endfacet
facet normal 0.000000 0.000000 -1.000000
outer loop
vertex 0.000090 0.004778 0.000000
vertex 0.000273 0.005734 0.000000
vertex 0.000708 0.006941 0.000000
endloop
endfacet
facet normal 0.000000 0.000000 -1.000000
outer loop
vertex 0.000013 0.003568 0.000000
vertex 0.000012 0.004124 0.000000
vertex 0.000090 0.004778 0.000000
endloop
endfacet
facet normal 0.000000 0.000000 -1.000000
outer loop
vertex 0.000251 0.002791 0.000000
vertex 0.000115 0.003170 0.000000
vertex 0.000013 0.003568 0.000000
endloop
endfacet
facet normal 0.000000 0.000000 -1.000000
outer loop
vertex 0.000668 0.001905 0.000000
vertex 0.000489 0.002237 0.000000
vertex 0.000251 0.002791 0.000000
endloop
endfacet
facet normal 0.000000 0.000000 -1.000000
outer loop
vertex 0.001179 0.001322 0.000000
vertex 0.000964 0.001506 0.000000
vertex 0.000668 0.001905 0.000000
endloop
endfacet
facet normal 0.000000 0.000000 -1.000000
outer loop
vertex 0.001680 0.000995 0.000000
vertex 0.001420 0.001155 0.000000
vertex 0.001179 0.001322 0.000000
endloop
endfacet
facet normal 0.000000 0.000000 -1.000000
outer loop
vertex 0.003754 0.000048 0.000000
vertex 0.003553 0.000110 0.000000
vertex 0.001680 0.000995 0.000000
endloop
endfacet
facet normal 0.000000 0.000000 -1.000000
outer loop
vertex 0.004199 0.000000 0.000000
vertex 0.004022 0.000006 0.000000
vertex 0.003754 0.000048 0.000000
endloop
endfacet
facet normal 0.000000 0.000000 -1.000000
outer loop
vertex 0.004794 0.000101 0.000000
vertex 0.004466 0.000019 0.000000
vertex 0.004199 0.000000 0.000000
endloop
endfacet
facet normal 0.000000 0.000000 -1.000000
outer loop
vertex 0.005324 0.000538 0.000000
vertex 0.005069 0.000261 0.000000
vertex 0.004794 0.000101 0.000000
endloop
endfacet
facet normal 0.000000 0.000000 -1.000000
outer loop
vertex 0.005530 0.001047 0.000000
vertex 0.005471 0.000822 0.000000
vertex 0.005324 0.000538 0.000000
endloop
endfacet
facet normal 0.000000 0.000000 -1.000000
outer loop
vertex 0.005568 0.001545 0.000000
vertex 0.005555 0.001295 0.000000
vertex 0.005530 0.001047 0.000000
endloop
endfacet
facet normal 0.000000 0.000000 -1.000000
outer loop
vertex 0.005323 0.002734 0.000000
vertex 0.005530 0.002082 0.000000
vertex 0.005568 0.001545 0.000000
endloop
endfacet
facet normal 0.000000 0.000000 -1.000000
outer loop
vertex 0.004969 0.003451 0.000000
vertex 0.005233 0.002925 0.000000
vertex 0.005323 0.002734 0.000000
endloop
endfacet
facet normal 0.000000 0.000000 -1.000000
outer loop
vertex 0.004668 0.004016 0.000000
vertex 0.004816 0.003746 0.000000
vertex 0.004969 0.003451 0.000000
endloop
endfacet
facet normal 0.000000 0.000000 -1.000000
outer loop
vertex 0.004516 0.004277 0.000000
vertex 0.004594 0.004147 0.000000
vertex 0.004668 0.004016 0.000000
endloop
endfacet
facet normal 0.000000 0.000000 -1.000000
outer loop
vertex 0.004349 0.004545 0.000000
vertex 0.004435 0.004409 0.000000
vertex 0.004516 0.004277 0.000000
endloop
endfacet
facet normal 0.000000 0.000000 -1.000000
outer loop
vertex 0.004099 0.004923 0.000000
vertex 0.004349 0.004545 0.000000
vertex 0.004516 0.004277 0.000000
endloop
endfacet
facet normal 0.000000 0.000000 -1.000000
outer loop
vertex 0.004516 0.004277 0.000000
vertex 0.004668 0.004016 0.000000
vertex 0.004969 0.003451 0.000000
endloop
endfacet
facet normal 0.000000 0.000000 -1.000000
outer loop
vertex 0.004969 0.003451 0.000000
vertex 0.005323 0.002734 0.000000
vertex 0.005568 0.001545 0.000000
endloop
endfacet
facet normal 0.000000 0.000000 -1.000000
outer loop
vertex 0.005568 0.001545 0.000000
vertex 0.005530 0.001047 0.000000
vertex 0.005324 0.000538 0.000000
endloop
endfacet
facet normal 0.000000 0.000000 -1.000000
outer loop
vertex 0.005324 0.000538 0.000000
vertex 0.004794 0.000101 0.000000
vertex 0.004199 0.000000 0.000000
endloop
endfacet
facet normal 0.000000 0.000000 -1.000000
outer loop
vertex 0.004199 0.000000 0.000000
vertex 0.003754 0.000048 0.000000
vertex 0.001680 0.000995 0.000000
endloop
endfacet
facet normal 0.000000 0.000000 -1.000000
outer loop
vertex 0.001680 0.000995 0.000000
vertex 0.001179 0.001322 0.000000
vertex 0.000668 0.001905 0.000000
endloop
endfacet
facet normal 0.000000 0.000000 -1.000000
outer loop
vertex 0.000668 0.001905 0.000000
vertex 0.000251 0.002791 0.000000
vertex 0.000013 0.003568 0.000000
endloop
endfacet
facet normal 0.000000 0.000000 -1.000000
outer loop
vertex 0.000013 0.003568 0.000000
vertex 0.000090 0.004778 0.000000
vertex 0.000708 0.006941 0.000000
endloop
endfacet
facet normal 0.000000 0.000000 -1.000000
outer loop
vertex 0.000708 0.006941 0.000000
vertex 0.000826 0.007039 0.000000
vertex 0.001156 0.007273 0.000000
endloop
endfacet
facet normal 0.000000 0.000000 -1.000000
outer loop
vertex 0.001156 0.007273 0.000000
vertex 0.001661 0.007552 0.000000
vertex 0.002043 0.007643 0.000000
endloop
endfacet
facet normal 0.000000 0.000000 -1.000000
outer loop
vertex 0.001156 0.007273 0.000000
vertex 0.002043 0.007643 0.000000
vertex 0.002319 0.007343 0.000000
endloop
endfacet
facet normal 0.000000 0.000000 -1.000000
outer loop
vertex 0.000013 0.003568 0.000000
vertex 0.000708 0.006941 0.000000
vertex 0.001156 0.007273 0.000000
endloop
endfacet
facet normal 0.000000 0.000000 -1.000000
outer loop
vertex 0.001680 0.000995 0.000000
vertex 0.000668 0.001905 0.000000
vertex 0.000013 0.003568 0.000000
endloop
endfacet
facet normal 0.000000 0.000000 -1.000000
outer loop
vertex 0.005324 0.000538 0.000000
vertex 0.004199 0.000000 0.000000
vertex 0.001680 0.000995 0.000000
endloop
endfacet
facet normal 0.000000 0.000000 -1.000000
outer loop
vertex 0.004969 0.003451 0.000000
vertex 0.005568 0.001545 0.000000
vertex 0.005324 0.000538 0.000000
endloop
endfacet
facet normal 0.000000 0.000000 -1.000000
outer loop
vertex 0.004099 0.004923 0.000000
vertex 0.004516 0.004277 0.000000
vertex 0.004969 0.003451 0.000000
endloop
endfacet
facet normal 0.000000 0.000000 -1.000000
outer loop
vertex 0.003708 0.005526 0.000000
vertex 0.003830 0.005338 0.000000
vertex 0.004042 0.005009 0.000000
endloop
endfacet
facet normal 0.000000 0.000000 -1.000000
outer loop
vertex 0.004042 0.005009 0.000000
vertex 0.004099 0.004923 0.000000
vertex 0.004969 0.003451 0.000000
endloop
endfacet
facet normal 0.000000 0.000000 -1.000000
outer loop
vertex 0.004969 0.003451 0.000000
vertex 0.005324 0.000538 0.000000
vertex 0.001680 0.000995 0.000000
endloop
endfacet
facet normal 0.000000 0.000000 -1.000000
outer loop
vertex 0.001680 0.000995 0.000000
vertex 0.000013 0.003568 0.000000
vertex 0.001156 0.007273 0.000000
endloop
endfacet
facet normal 0.000000 0.000000 -1.000000
outer loop
vertex 0.001156 0.007273 0.000000
vertex 0.002319 0.007343 0.000000
vertex 0.002387 0.007273 0.000000
endloop
endfacet
facet normal 0.000000 0.000000 -1.000000
outer loop
vertex 0.002473 0.007204 0.000000
vertex 0.002566 0.007133 0.000000
vertex 0.002653 0.007055 0.000000
endloop
endfacet
facet normal 0.000000 0.000000 -1.000000
outer loop
vertex 0.001156 0.007273 0.000000
vertex 0.002387 0.007273 0.000000
vertex 0.002473 0.007204 0.000000
endloop
endfacet
facet normal 0.000000 0.000000 -1.000000
outer loop
vertex 0.004969 0.003451 0.000000
vertex 0.001680 0.000995 0.000000
vertex 0.001156 0.007273 0.000000
endloop
endfacet
facet normal 0.000000 0.000000 -1.000000
outer loop
vertex 0.003708 0.005526 0.000000
vertex 0.004042 0.005009 0.000000
vertex 0.004969 0.003451 0.000000
endloop
endfacet
facet normal 0.000000 0.000000 -1.000000
outer loop
vertex 0.003519 0.005811 0.000000
vertex 0.003708 0.005526 0.000000
vertex 0.004969 0.003451 0.000000
endloop
endfacet
facet normal 0.000000 0.000000 -1.000000
outer loop
vertex 0.004969 0.003451 0.000000
vertex 0.001156 0.007273 0.000000
vertex 0.002473 0.007204 0.000000
endloop
endfacet
facet normal 0.000000 0.000000 -1.000000
outer loop
vertex 0.002473 0.007204 0.000000
vertex 0.002653 0.007055 0.000000
vertex 0.002735 0.006970 0.000000
endloop
endfacet
facet normal 0.000000 0.000000 -1.000000
outer loop
vertex 0.002735 0.006970 0.000000
vertex 0.002890 0.006776 0.000000
vertex 0.002967 0.006667 0.000000
endloop
endfacet
facet normal 0.000000 0.000000 -1.000000
outer loop
vertex 0.002967 0.006667 0.000000
vertex 0.003046 0.006549 0.000000
vertex 0.003127 0.006421 0.000000
endloop
endfacet
facet normal 0.000000 0.000000 -1.000000
outer loop
vertex 0.002967 0.006667 0.000000
vertex 0.003127 0.006421 0.000000
vertex 0.003307 0.006137 0.000000
endloop
endfacet
facet normal 0.000000 0.000000 -1.000000
outer loop
vertex 0.002473 0.007204 0.000000
vertex 0.002735 0.006970 0.000000
vertex 0.002967 0.006667 0.000000
endloop
endfacet
facet normal 0.000000 0.000000 -1.000000
outer loop
vertex 0.003519 0.005811 0.000000
vertex 0.004969 0.003451 0.000000
vertex 0.002473 0.007204 0.000000
endloop
endfacet
facet normal 0.000000 0.000000 -1.000000
outer loop
vertex 0.002967 0.006667 0.000000
vertex 0.003307 0.006137 0.000000
vertex 0.003408 0.005979 0.000000
endloop
endfacet
facet normal 0.000000 0.000000 -1.000000
outer loop
vertex 0.003408 0.005979 0.000000
vertex 0.003519 0.005811 0.000000
vertex 0.002473 0.007204 0.000000
endloop
endfacet
facet normal 0.000000 0.000000 -1.000000
outer loop
vertex 0.002473 0.007204 0.000000
vertex 0.002967 0.006667 0.000000
vertex 0.003408 0.005979 0.000000
endloop
endfacet
facet normal 0.569275 -0.822147 0.000000
outer loop
vertex 0.005069 0.000261 0.000000
vertex 0.005069 0.000261 0.150000
vertex 0.004935 0.000168 0.150000
endloop
endfacet
facet normal 0.569278 -0.822145 0.000000
outer loop
vertex 0.005069 0.000261 0.000000
vertex 0.004935 0.000168 0.150000
vertex 0.004935 0.000168 0.000000
endloop
endfacet
facet normal -0.187042 -0.982352 0.000000
outer loop
vertex 0.003754 0.000048 0.000000
vertex 0.003935 0.000014 0.000000
vertex 0.003935 0.000014 0.150000
endloop
endfacet
facet normal -0.187042 -0.982352 0.000000
outer loop
vertex 0.003754 0.000048 0.000000
vertex 0.003935 0.000014 0.150000
vertex 0.003754 0.000048 0.150000
endloop
endfacet
facet normal 0.092662 -0.995698 0.000000
outer loop
vertex 0.004289 0.000003 0.150000
vertex 0.004289 0.000003 0.000000
vertex 0.004466 0.000019 0.000000
endloop
endfacet
facet normal 0.092662 -0.995698 0.000000
outer loop
vertex 0.004289 0.000003 0.150000
vertex 0.004466 0.000019 0.000000
vertex 0.004466 0.000019 0.150000
endloop
endfacet
facet normal 0.430190 -0.902738 0.000000
outer loop
vertex 0.004794 0.000101 0.000000
vertex 0.004935 0.000168 0.000000
vertex 0.004935 0.000168 0.150000
endloop
endfacet
facet normal 0.430188 -0.902739 0.000000
outer loop
vertex 0.004794 0.000101 0.000000
vertex 0.004935 0.000168 0.150000
vertex 0.004794 0.000101 0.150000
endloop
endfacet
facet normal 0.992494 0.122297 0.000000
outer loop
vertex 0.005564 0.001804 0.150000
vertex 0.005564 0.001804 0.000000
vertex 0.005530 0.002082 0.000000
endloop
endfacet
facet normal 0.992493 0.122300 0.000000
outer loop
vertex 0.005564 0.001804 0.150000
vertex 0.005530 0.002082 0.000000
vertex 0.005530 0.002082 0.150000
endloop
endfacet
facet normal 0.798870 0.601503 0.000000
outer loop
vertex 0.002319 0.007343 0.000000
vertex 0.002139 0.007581 0.000000
vertex 0.002139 0.007581 0.150000
endloop
endfacet
facet normal 0.798869 0.601505 0.000000
outer loop
vertex 0.002319 0.007343 0.000000
vertex 0.002139 0.007581 0.150000
vertex 0.002319 0.007343 0.150000
endloop
endfacet
facet normal 0.953611 -0.301040 0.000000
outer loop
vertex 0.005471 0.000822 0.150000
vertex 0.005471 0.000822 0.000000
vertex 0.005505 0.000931 0.000000
endloop
endfacet
facet normal 0.953615 -0.301028 0.000000
outer loop
vertex 0.005471 0.000822 0.150000
vertex 0.005505 0.000931 0.000000
vertex 0.005505 0.000931 0.150000
endloop
endfacet
facet normal -0.435867 -0.900011 0.000000
outer loop
vertex 0.001680 0.000995 0.000000
vertex 0.003337 0.000193 0.000000
vertex 0.003337 0.000193 0.150000
endloop
endfacet
facet normal -0.435867 -0.900011 0.000000
outer loop
vertex 0.001680 0.000995 0.000000
vertex 0.003337 0.000193 0.150000
vertex 0.001680 0.000995 0.150000
endloop
endfacet
facet normal 0.187290 -0.982305 0.000000
outer loop
vertex 0.004466 0.000019 0.000000
vertex 0.004636 0.000052 0.000000
vertex 0.004636 0.000052 0.150000
endloop
endfacet
facet normal 0.187290 -0.982305 0.000000
outer loop
vertex 0.004466 0.000019 0.000000
vertex 0.004636 0.000052 0.150000
vertex 0.004466 0.000019 0.150000
endloop
endfacet
facet normal -0.824601 -0.565715 0.000000
outer loop
vertex 0.000668 0.001905 0.150000
vertex 0.000668 0.001905 0.000000
vertex 0.000862 0.001623 0.000000
endloop
endfacet
facet normal -0.824601 -0.565715 0.000000
outer loop
vertex 0.000668 0.001905 0.150000
vertex 0.000862 0.001623 0.000000
vertex 0.000862 0.001623 0.150000
endloop
endfacet
facet normal -0.511459 -0.859308 0.000000
outer loop
vertex 0.001548 0.001074 0.000000
vertex 0.001680 0.000995 0.000000
vertex 0.001680 0.000995 0.150000
endloop
endfacet
facet normal -0.511458 -0.859308 0.000000
outer loop
vertex 0.001548 0.001074 0.000000
vertex 0.001680 0.000995 0.150000
vertex 0.001548 0.001074 0.150000
endloop
endfacet
facet normal -0.532695 -0.846307 0.000000
outer loop
vertex 0.001420 0.001155 0.000000
vertex 0.001548 0.001074 0.000000
vertex 0.001548 0.001074 0.150000
endloop
endfacet
facet normal -0.532696 -0.846306 0.000000
outer loop
vertex 0.001420 0.001155 0.000000
vertex 0.001548 0.001074 0.150000
vertex 0.001420 0.001155 0.150000
endloop
endfacet
facet normal -0.556891 -0.830586 0.000000
outer loop
vertex 0.001296 0.001237 0.000000
vertex 0.001420 0.001155 0.000000
vertex 0.001420 0.001155 0.150000
endloop
endfacet
facet normal -0.556891 -0.830586 0.000000
outer loop
vertex 0.001296 0.001237 0.000000
vertex 0.001420 0.001155 0.150000
vertex 0.001296 0.001237 0.150000
endloop
endfacet
facet normal -0.615941 -0.787792 0.000000
outer loop
vertex 0.001068 0.001408 0.150000
vertex 0.001068 0.001408 0.000000
vertex 0.001179 0.001322 0.000000
endloop
endfacet
facet normal -0.584476 -0.811411 0.000000
outer loop
vertex 0.001179 0.001322 0.000000
vertex 0.001296 0.001237 0.000000
vertex 0.001296 0.001237 0.150000
endloop
endfacet
facet normal -0.615941 -0.787792 0.000000
outer loop
vertex 0.001179 0.001322 0.150000
vertex 0.001068 0.001408 0.150000
vertex 0.001179 0.001322 0.000000
endloop
endfacet
facet normal -0.584475 -0.811412 0.000000
outer loop
vertex 0.001179 0.001322 0.000000
vertex 0.001296 0.001237 0.150000
vertex 0.001179 0.001322 0.150000
endloop
endfacet
facet normal -0.998807 -0.048841 0.000000
outer loop
vertex 0.000000 0.003828 0.150000
vertex 0.000000 0.003828 0.000000
vertex 0.000013 0.003568 0.000000
endloop
endfacet
facet normal -0.998807 -0.048840 0.000000
outer loop
vertex 0.000000 0.003828 0.150000
vertex 0.000013 0.003568 0.000000
vertex 0.000013 0.003568 0.150000
endloop
endfacet
facet normal -0.527758 0.849395 0.000000
outer loop
vertex 0.001267 0.007343 0.000000
vertex 0.001156 0.007273 0.000000
vertex 0.001156 0.007273 0.150000
endloop
endfacet
facet normal -0.527757 0.849395 0.000000
outer loop
vertex 0.001267 0.007343 0.000000
vertex 0.001156 0.007273 0.150000
vertex 0.001267 0.007343 0.150000
endloop
endfacet
facet normal -0.501559 0.865124 0.000000
outer loop
vertex 0.001389 0.007413 0.000000
vertex 0.001267 0.007343 0.000000
vertex 0.001267 0.007343 0.150000
endloop
endfacet
facet normal -0.501557 0.865124 0.000000
outer loop
vertex 0.001389 0.007413 0.000000
vertex 0.001267 0.007343 0.150000
vertex 0.001389 0.007413 0.150000
endloop
endfacet
facet normal -0.440504 0.897750 0.000000
outer loop
vertex 0.001661 0.007552 0.150000
vertex 0.001661 0.007552 0.000000
vertex 0.001520 0.007483 0.000000
endloop
endfacet
facet normal -0.472588 0.881284 0.000000
outer loop
vertex 0.001520 0.007483 0.000000
vertex 0.001389 0.007413 0.000000
vertex 0.001389 0.007413 0.150000
endloop
endfacet
facet normal -0.440505 0.897750 0.000000
outer loop
vertex 0.001520 0.007483 0.150000
vertex 0.001661 0.007552 0.150000
vertex 0.001520 0.007483 0.000000
endloop
endfacet
facet normal -0.472587 0.881284 0.000000
outer loop
vertex 0.001520 0.007483 0.000000
vertex 0.001389 0.007413 0.150000
vertex 0.001520 0.007483 0.150000
endloop
endfacet
facet normal -0.680426 -0.732817 0.000000
outer loop
vertex 0.000964 0.001506 0.150000
vertex 0.000964 0.001506 0.000000
vertex 0.001068 0.001408 0.000000
endloop
endfacet
facet normal -0.680426 -0.732817 0.000000
outer loop
vertex 0.000964 0.001506 0.150000
vertex 0.001068 0.001408 0.000000
vertex 0.001068 0.001408 0.150000
endloop
endfacet
facet normal 0.970344 0.241726 0.000000
outer loop
vertex 0.005454 0.002388 0.000000
vertex 0.005454 0.002388 0.150000
vertex 0.005530 0.002082 0.150000
endloop
endfacet
facet normal 0.970344 0.241729 0.000000
outer loop
vertex 0.005454 0.002388 0.000000
vertex 0.005530 0.002082 0.150000
vertex 0.005530 0.002082 0.000000
endloop
endfacet
facet normal 0.817967 0.575266 0.000000
outer loop
vertex 0.002967 0.006667 0.000000
vertex 0.002890 0.006776 0.000000
vertex 0.002890 0.006776 0.150000
endloop
endfacet
facet normal 0.817967 0.575266 0.000000
outer loop
vertex 0.002967 0.006667 0.000000
vertex 0.002890 0.006776 0.150000
vertex 0.002967 0.006667 0.150000
endloop
endfacet
facet normal 0.833017 0.553247 0.000000
outer loop
vertex 0.003046 0.006549 0.000000
vertex 0.002967 0.006667 0.000000
vertex 0.002967 0.006667 0.150000
endloop
endfacet
facet normal 0.833016 0.553249 0.000000
outer loop
vertex 0.003046 0.006549 0.000000
vertex 0.002967 0.006667 0.150000
vertex 0.003046 0.006549 0.150000
endloop
endfacet
facet normal 0.841833 0.539738 0.000000
outer loop
vertex 0.003127 0.006421 0.000000
vertex 0.003046 0.006549 0.000000
vertex 0.003046 0.006549 0.150000
endloop
endfacet
facet normal 0.841835 0.539736 0.000000
outer loop
vertex 0.003127 0.006421 0.000000
vertex 0.003046 0.006549 0.150000
vertex 0.003127 0.006421 0.150000
endloop
endfacet
facet normal 0.845517 0.533949 0.000000
outer loop
vertex 0.003307 0.006137 0.000000
vertex 0.003127 0.006421 0.000000
vertex 0.003127 0.006421 0.150000
endloop
endfacet
facet normal 0.845517 0.533948 0.000000
outer loop
vertex 0.003307 0.006137 0.000000
vertex 0.003127 0.006421 0.150000
vertex 0.003307 0.006137 0.150000
endloop
endfacet
facet normal 0.841910 0.539618 0.000000
outer loop
vertex 0.003408 0.005979 0.000000
vertex 0.003307 0.006137 0.000000
vertex 0.003307 0.006137 0.150000
endloop
endfacet
facet normal 0.841912 0.539615 0.000000
outer loop
vertex 0.003408 0.005979 0.000000
vertex 0.003307 0.006137 0.150000
vertex 0.003408 0.005979 0.150000
endloop
endfacet
facet normal 0.835774 0.549074 0.000000
outer loop
vertex 0.003519 0.005811 0.000000
vertex 0.003408 0.005979 0.000000
vertex 0.003408 0.005979 0.150000
endloop
endfacet
facet normal 0.835775 0.549072 0.000000
outer loop
vertex 0.003519 0.005811 0.000000
vertex 0.003408 0.005979 0.150000
vertex 0.003519 0.005811 0.150000
endloop
endfacet
facet normal 0.833272 0.552864 0.000000
outer loop
vertex 0.003708 0.005526 0.000000
vertex 0.003519 0.005811 0.000000
vertex 0.003519 0.005811 0.150000
endloop
endfacet
facet normal 0.833273 0.552862 0.000000
outer loop
vertex 0.003708 0.005526 0.000000
vertex 0.003519 0.005811 0.150000
vertex 0.003708 0.005526 0.150000
endloop
endfacet
facet normal 0.836848 0.547436 0.000000
outer loop
vertex 0.003830 0.005338 0.000000
vertex 0.003708 0.005526 0.000000
vertex 0.003708 0.005526 0.150000
endloop
endfacet
facet normal 0.836849 0.547434 0.000000
outer loop
vertex 0.003830 0.005338 0.000000
vertex 0.003708 0.005526 0.150000
vertex 0.003830 0.005338 0.150000
endloop
endfacet
facet normal 0.840701 0.541500 0.000000
outer loop
vertex 0.004042 0.005009 0.000000
vertex 0.003830 0.005338 0.000000
vertex 0.003830 0.005338 0.150000
endloop
endfacet
facet normal 0.840700 0.541501 0.000000
outer loop
vertex 0.004042 0.005009 0.000000
vertex 0.003830 0.005338 0.150000
vertex 0.004042 0.005009 0.150000
endloop
endfacet
facet normal 0.836684 0.547687 0.000000
outer loop
vertex 0.004099 0.004923 0.000000
vertex 0.004042 0.005009 0.000000
vertex 0.004042 0.005009 0.150000
endloop
endfacet
facet normal 0.836687 0.547681 0.000000
outer loop
vertex 0.004099 0.004923 0.000000
vertex 0.004042 0.005009 0.150000
vertex 0.004099 0.004923 0.150000
endloop
endfacet
facet normal 0.834337 0.551255 0.000000
outer loop
vertex 0.004349 0.004545 0.000000
vertex 0.004099 0.004923 0.000000
vertex 0.004099 0.004923 0.150000
endloop
endfacet
facet normal 0.834336 0.551256 0.000000
outer loop
vertex 0.004349 0.004545 0.000000
vertex 0.004099 0.004923 0.150000
vertex 0.004349 0.004545 0.150000
endloop
endfacet
facet normal 0.843466 0.537183 0.000000
outer loop
vertex 0.004435 0.004409 0.000000
vertex 0.004349 0.004545 0.000000
vertex 0.004349 0.004545 0.150000
endloop
endfacet
facet normal 0.843464 0.537186 0.000000
outer loop
vertex 0.004435 0.004409 0.000000
vertex 0.004349 0.004545 0.150000
vertex 0.004435 0.004409 0.150000
endloop
endfacet
facet normal 0.851645 0.524119 0.000000
outer loop
vertex 0.004516 0.004277 0.000000
vertex 0.004435 0.004409 0.000000
vertex 0.004435 0.004409 0.150000
endloop
endfacet
facet normal 0.851645 0.524119 0.000000
outer loop
vertex 0.004516 0.004277 0.000000
vertex 0.004435 0.004409 0.150000
vertex 0.004516 0.004277 0.150000
endloop
endfacet
facet normal 0.867666 0.497148 0.000000
outer loop
vertex 0.004668 0.004016 0.150000
vertex 0.004668 0.004016 0.000000
vertex 0.004594 0.004147 0.000000
endloop
endfacet
facet normal 0.859842 0.510561 0.000000
outer loop
vertex 0.004594 0.004147 0.000000
vertex 0.004516 0.004277 0.000000
vertex 0.004516 0.004277 0.150000
endloop
endfacet
facet normal 0.867668 0.497144 0.000000
outer loop
vertex 0.004594 0.004147 0.150000
vertex 0.004668 0.004016 0.150000
vertex 0.004594 0.004147 0.000000
endloop
endfacet
facet normal 0.859844 0.510557 0.000000
outer loop
vertex 0.004516 0.004277 0.150000
vertex 0.004594 0.004147 0.150000
vertex 0.004594 0.004147 0.000000
endloop
endfacet
facet normal 0.649581 0.760292 0.000000
outer loop
vertex 0.002139 0.007581 0.150000
vertex 0.002139 0.007581 0.000000
vertex 0.002095 0.007619 0.000000
endloop
endfacet
facet normal 0.649585 0.760289 0.000000
outer loop
vertex 0.002139 0.007581 0.150000
vertex 0.002095 0.007619 0.000000
vertex 0.002095 0.007619 0.150000
endloop
endfacet
facet normal -0.292296 0.956328 0.000000
outer loop
vertex 0.001895 0.007639 0.150000
vertex 0.001895 0.007639 0.000000
vertex 0.001791 0.007608 0.000000
endloop
endfacet
facet normal -0.292296 0.956328 0.000000
outer loop
vertex 0.001895 0.007639 0.150000
vertex 0.001791 0.007608 0.000000
vertex 0.001791 0.007608 0.150000
endloop
endfacet
facet normal -0.873028 0.487671 0.000000
outer loop
vertex 0.000443 0.006465 0.150000
vertex 0.000708 0.006941 0.150000
vertex 0.000708 0.006941 0.000000
endloop
endfacet
facet normal -0.873028 0.487671 0.000000
outer loop
vertex 0.000443 0.006465 0.150000
vertex 0.000708 0.006941 0.000000
vertex 0.000443 0.006465 0.000000
endloop
endfacet
facet normal 0.028390 -0.999597 0.000000
outer loop
vertex 0.004199 0.000000 0.000000
vertex 0.004289 0.000003 0.000000
vertex 0.004289 0.000003 0.150000
endloop
endfacet
facet normal 0.028390 -0.999597 0.000000
outer loop
vertex 0.004199 0.000000 0.000000
vertex 0.004289 0.000003 0.150000
vertex 0.004199 0.000000 0.150000
endloop
endfacet
facet normal -0.012319 -0.999924 0.000000
outer loop
vertex 0.004110 0.000001 0.000000
vertex 0.004199 0.000000 0.000000
vertex 0.004199 0.000000 0.150000
endloop
endfacet
facet normal -0.012319 -0.999924 0.000000
outer loop
vertex 0.004110 0.000001 0.000000
vertex 0.004199 0.000000 0.150000
vertex 0.004110 0.000001 0.150000
endloop
endfacet
facet normal -0.092027 -0.995756 0.000000
outer loop
vertex 0.003935 0.000014 0.150000
vertex 0.003935 0.000014 0.000000
vertex 0.004022 0.000006 0.000000
endloop
endfacet
facet normal -0.052232 -0.998635 0.000000
outer loop
vertex 0.004022 0.000006 0.000000
vertex 0.004110 0.000001 0.000000
vertex 0.004110 0.000001 0.150000
endloop
endfacet
facet normal -0.092027 -0.995756 0.000000
outer loop
vertex 0.004022 0.000006 0.150000
vertex 0.003935 0.000014 0.150000
vertex 0.004022 0.000006 0.000000
endloop
endfacet
facet normal -0.052232 -0.998635 0.000000
outer loop
vertex 0.004110 0.000001 0.150000
vertex 0.004022 0.000006 0.150000
vertex 0.004022 0.000006 0.000000
endloop
endfacet
facet normal -0.272210 -0.962238 0.000000
outer loop
vertex 0.003656 0.000076 0.000000
vertex 0.003754 0.000048 0.000000
vertex 0.003754 0.000048 0.150000
endloop
endfacet
facet normal -0.272208 -0.962239 0.000000
outer loop
vertex 0.003656 0.000076 0.000000
vertex 0.003754 0.000048 0.150000
vertex 0.003656 0.000076 0.150000
endloop
endfacet
facet normal -0.358315 -0.933601 0.000000
outer loop
vertex 0.003337 0.000193 0.150000
vertex 0.003337 0.000193 0.000000
vertex 0.003553 0.000110 0.000000
endloop
endfacet
facet normal -0.313455 -0.949603 0.000000
outer loop
vertex 0.003553 0.000110 0.000000
vertex 0.003656 0.000076 0.000000
vertex 0.003656 0.000076 0.150000
endloop
endfacet
facet normal -0.358316 -0.933600 0.000000
outer loop
vertex 0.003553 0.000110 0.150000
vertex 0.003337 0.000193 0.150000
vertex 0.003553 0.000110 0.000000
endloop
endfacet
facet normal -0.313453 -0.949604 0.000000
outer loop
vertex 0.003656 0.000076 0.150000
vertex 0.003553 0.000110 0.150000
vertex 0.003553 0.000110 0.000000
endloop
endfacet
facet normal 0.781065 -0.624449 0.000000
outer loop
vertex 0.005201 0.000384 0.150000
vertex 0.005201 0.000384 0.000000
vertex 0.005324 0.000538 0.000000
endloop
endfacet
facet normal 0.781063 -0.624452 0.000000
outer loop
vertex 0.005201 0.000384 0.150000
vertex 0.005324 0.000538 0.000000
vertex 0.005324 0.000538 0.150000
endloop
endfacet
facet normal 0.000000 0.000000 1.000000
outer loop
vertex 0.000181 0.002981 0.000000
vertex 0.000251 0.002791 0.000000
vertex 0.000326 0.002602 0.000000
endloop
endfacet
facet normal -0.929515 -0.368786 0.000000
outer loop
vertex 0.000326 0.002602 0.000000
vertex 0.000326 0.002602 0.150000
vertex 0.000251 0.002791 0.150000
endloop
endfacet
facet normal -0.937914 -0.346867 -0.000032
outer loop
vertex 0.000326 0.002602 0.000000
vertex 0.000251 0.002791 0.150000
vertex 0.000181 0.002981 0.150000
endloop
endfacet
facet normal 0.000000 0.000000 1.000000
outer loop
vertex 0.000115 0.003170 0.000000
vertex 0.000181 0.002981 0.000000
vertex 0.000326 0.002602 0.000000
endloop
endfacet
facet normal -0.950873 -0.309582 0.000000
outer loop
vertex 0.000055 0.003357 0.150000
vertex 0.000055 0.003357 0.000000
vertex 0.000115 0.003170 0.000000
endloop
endfacet
facet normal -0.944923 -0.327292 -0.000088
outer loop
vertex 0.000326 0.002602 0.000000
vertex 0.000181 0.002981 0.150000
vertex 0.000115 0.003170 0.150000
endloop
endfacet
facet normal -0.950873 -0.309582 0.000000
outer loop
vertex 0.000115 0.003170 0.150000
vertex 0.000055 0.003357 0.150000
vertex 0.000115 0.003170 0.000000
endloop
endfacet
facet normal -0.937568 -0.347801 0.000000
outer loop
vertex 0.000326 0.002602 0.000000
vertex 0.000115 0.003170 0.150000
vertex 0.000115 0.003170 0.000000
endloop
endfacet
facet normal 0.297879 -0.954604 0.000000
outer loop
vertex 0.004636 0.000052 0.150000
vertex 0.004636 0.000052 0.000000
vertex 0.004794 0.000101 0.000000
endloop
endfacet
facet normal 0.297878 -0.954604 0.000000
outer loop
vertex 0.004636 0.000052 0.150000
vertex 0.004794 0.000101 0.000000
vertex 0.004794 0.000101 0.150000
endloop
endfacet
facet normal 0.999862 0.016593 0.000000
outer loop
vertex 0.005568 0.001545 0.000000
vertex 0.005564 0.001804 0.000000
vertex 0.005564 0.001804 0.150000
endloop
endfacet
facet normal 0.999862 0.016593 0.000000
outer loop
vertex 0.005568 0.001545 0.000000
vertex 0.005564 0.001804 0.150000
vertex 0.005568 0.001545 0.150000
endloop
endfacet
facet normal 0.935301 0.353853 0.000000
outer loop
vertex 0.005454 0.002388 0.000000
vertex 0.005323 0.002734 0.000000
vertex 0.005323 0.002734 0.150000
endloop
endfacet
facet normal 0.935300 0.353855 0.000000
outer loop
vertex 0.005454 0.002388 0.000000
vertex 0.005323 0.002734 0.150000
vertex 0.005454 0.002388 0.150000
endloop
endfacet
facet normal -0.869672 -0.493630 0.000000
outer loop
vertex 0.000577 0.002066 0.000000
vertex 0.000668 0.001905 0.000000
vertex 0.000668 0.001905 0.150000
endloop
endfacet
facet normal -0.869672 -0.493630 0.000000
outer loop
vertex 0.000577 0.002066 0.000000
vertex 0.000668 0.001905 0.150000
vertex 0.000577 0.002066 0.150000
endloop
endfacet
facet normal -0.913083 -0.407774 0.000000
outer loop
vertex 0.000326 0.002602 0.150000
vertex 0.000326 0.002602 0.000000
vertex 0.000489 0.002237 0.000000
endloop
endfacet
facet normal -0.890465 -0.455052 0.000000
outer loop
vertex 0.000489 0.002237 0.000000
vertex 0.000577 0.002066 0.000000
vertex 0.000577 0.002066 0.150000
endloop
endfacet
facet normal -0.913083 -0.407774 0.000000
outer loop
vertex 0.000489 0.002237 0.150000
vertex 0.000326 0.002602 0.150000
vertex 0.000489 0.002237 0.000000
endloop
endfacet
facet normal -0.890465 -0.455052 0.000000
outer loop
vertex 0.000577 0.002066 0.150000
vertex 0.000489 0.002237 0.150000
vertex 0.000489 0.002237 0.000000
endloop
endfacet
facet normal 0.976909 -0.213658 0.000000
outer loop
vertex 0.005505 0.000931 0.150000
vertex 0.005505 0.000931 0.000000
vertex 0.005530 0.001047 0.000000
endloop
endfacet
facet normal 0.976911 -0.213646 0.000000
outer loop
vertex 0.005505 0.000931 0.150000
vertex 0.005530 0.001047 0.000000
vertex 0.005530 0.001047 0.150000
endloop
endfacet
facet normal -0.995187 0.097995 0.000000
outer loop
vertex 0.000043 0.004445 0.000000
vertex 0.000012 0.004124 0.000000
vertex 0.000012 0.004124 0.150000
endloop
endfacet
facet normal -0.995187 0.097995 0.000000
outer loop
vertex 0.000043 0.004445 0.000000
vertex 0.000012 0.004124 0.150000
vertex 0.000043 0.004445 0.150000
endloop
endfacet
facet normal -0.990341 0.138656 0.000000
outer loop
vertex 0.000090 0.004778 0.000000
vertex 0.000043 0.004445 0.000000
vertex 0.000043 0.004445 0.150000
endloop
endfacet
facet normal -0.990341 0.138656 0.000000
outer loop
vertex 0.000090 0.004778 0.000000
vertex 0.000043 0.004445 0.150000
vertex 0.000090 0.004778 0.150000
endloop
endfacet
facet normal -0.985733 0.168317 0.000000
outer loop
vertex 0.000147 0.005112 0.000000
vertex 0.000090 0.004778 0.000000
vertex 0.000090 0.004778 0.150000
endloop
endfacet
facet normal -0.985733 0.168317 0.000000
outer loop
vertex 0.000147 0.005112 0.000000
vertex 0.000090 0.004778 0.150000
vertex 0.000147 0.005112 0.150000
endloop
endfacet
facet normal -0.974229 0.225561 0.000000
outer loop
vertex 0.000443 0.006465 0.150000
vertex 0.000443 0.006465 0.000000
vertex 0.000273 0.005734 0.000000
endloop
endfacet
facet normal -0.980043 0.198786 0.000000
outer loop
vertex 0.000273 0.005734 0.000000
vertex 0.000147 0.005112 0.000000
vertex 0.000147 0.005112 0.150000
endloop
endfacet
facet normal -0.974229 0.225561 0.000000
outer loop
vertex 0.000273 0.005734 0.150000
vertex 0.000443 0.006465 0.150000
vertex 0.000273 0.005734 0.000000
endloop
endfacet
facet normal -0.980043 0.198786 0.000000
outer loop
vertex 0.000147 0.005112 0.150000
vertex 0.000273 0.005734 0.150000
vertex 0.000273 0.005734 0.000000
endloop
endfacet
facet normal 0.715458 0.698656 0.000000
outer loop
vertex 0.002387 0.007273 0.150000
vertex 0.002387 0.007273 0.000000
vertex 0.002319 0.007343 0.000000
endloop
endfacet
facet normal 0.715462 0.698652 0.000000
outer loop
vertex 0.002387 0.007273 0.150000
vertex 0.002319 0.007343 0.000000
vertex 0.002319 0.007343 0.150000
endloop
endfacet
facet normal -0.390136 0.920757 0.000000
outer loop
vertex 0.001791 0.007608 0.150000
vertex 0.001791 0.007608 0.000000
vertex 0.001661 0.007552 0.000000
endloop
endfacet
facet normal -0.390135 0.920758 0.000000
outer loop
vertex 0.001791 0.007608 0.150000
vertex 0.001661 0.007552 0.000000
vertex 0.001661 0.007552 0.150000
endloop
endfacet
facet normal 0.923544 -0.383492 0.000000
outer loop
vertex 0.005428 0.000720 0.150000
vertex 0.005428 0.000720 0.000000
vertex 0.005471 0.000822 0.000000
endloop
endfacet
facet normal 0.923546 -0.383486 0.000000
outer loop
vertex 0.005428 0.000720 0.150000
vertex 0.005471 0.000822 0.000000
vertex 0.005471 0.000822 0.150000
endloop
endfacet
facet normal -0.130831 0.991405 0.000000
outer loop
vertex 0.001978 0.007650 0.150000
vertex 0.001978 0.007650 0.000000
vertex 0.001895 0.007639 0.000000
endloop
endfacet
facet normal -0.130831 0.991405 0.000000
outer loop
vertex 0.001978 0.007650 0.150000
vertex 0.001895 0.007639 0.000000
vertex 0.001895 0.007639 0.150000
endloop
endfacet
facet normal 0.116708 0.993166 0.000000
outer loop
vertex 0.002043 0.007643 0.150000
vertex 0.002043 0.007643 0.000000
vertex 0.001978 0.007650 0.000000
endloop
endfacet
facet normal 0.116709 0.993166 0.000000
outer loop
vertex 0.002043 0.007643 0.150000
vertex 0.001978 0.007650 0.000000
vertex 0.001978 0.007650 0.150000
endloop
endfacet
facet normal 0.999129 -0.041736 0.000000
outer loop
vertex 0.005563 0.001420 0.000000
vertex 0.005568 0.001545 0.000000
vertex 0.005568 0.001545 0.150000
endloop
endfacet
facet normal 0.999129 -0.041736 0.000000
outer loop
vertex 0.005563 0.001420 0.000000
vertex 0.005568 0.001545 0.150000
vertex 0.005563 0.001420 0.150000
endloop
endfacet
facet normal 0.997878 -0.065113 0.000000
outer loop
vertex 0.005555 0.001295 0.000000
vertex 0.005563 0.001420 0.000000
vertex 0.005563 0.001420 0.150000
endloop
endfacet
facet normal 0.997878 -0.065113 0.000000
outer loop
vertex 0.005555 0.001295 0.000000
vertex 0.005563 0.001420 0.150000
vertex 0.005555 0.001295 0.150000
endloop
endfacet
facet normal 0.992448 -0.122670 0.000000
outer loop
vertex 0.005530 0.001047 0.150000
vertex 0.005530 0.001047 0.000000
vertex 0.005546 0.001170 0.000000
endloop
endfacet
facet normal 0.997129 -0.075722 0.000000
outer loop
vertex 0.005546 0.001170 0.000000
vertex 0.005555 0.001295 0.000000
vertex 0.005555 0.001295 0.150000
endloop
endfacet
facet normal 0.992447 -0.122676 0.000000
outer loop
vertex 0.005546 0.001170 0.150000
vertex 0.005530 0.001047 0.150000
vertex 0.005546 0.001170 0.000000
endloop
endfacet
facet normal 0.997129 -0.075722 0.000000
outer loop
vertex 0.005546 0.001170 0.000000
vertex 0.005555 0.001295 0.150000
vertex 0.005546 0.001170 0.150000
endloop
endfacet
facet normal 0.000000 0.000000 1.000000
outer loop
vertex 0.002653 0.007055 0.000000
vertex 0.002566 0.007133 0.000000
vertex 0.002473 0.007204 0.000000
endloop
endfacet
facet normal 0.624426 0.781084 0.000000
outer loop
vertex 0.002473 0.007204 0.000000
vertex 0.002387 0.007273 0.000000
vertex 0.002387 0.007273 0.150000
endloop
endfacet
facet normal 0.624428 0.781083 0.000000
outer loop
vertex 0.002473 0.007204 0.000000
vertex 0.002387 0.007273 0.150000
vertex 0.002473 0.007204 0.150000
endloop
endfacet
facet normal 0.638282 0.769803 0.000000
outer loop
vertex 0.002653 0.007055 0.150000
vertex 0.002653 0.007055 0.000000
vertex 0.002473 0.007204 0.000000
endloop
endfacet
facet normal 0.606868 0.794803 0.000000
outer loop
vertex 0.002473 0.007204 0.000000
vertex 0.002473 0.007204 0.150000
vertex 0.002566 0.007133 0.150000
endloop
endfacet
facet normal 0.668818 0.743426 -0.000063
outer loop
vertex 0.002473 0.007204 0.000000
vertex 0.002566 0.007133 0.150000
vertex 0.002653 0.007055 0.150000
endloop
endfacet
facet normal 0.014637 0.000000 0.999893
outer loop
vertex 0.003830 0.005338 0.150000
vertex 0.003708 0.005526 0.150000
vertex 0.003519 0.005811 0.150000
endloop
endfacet
facet normal 0.000000 0.000000 1.000000
outer loop
vertex 0.004042 0.005009 0.150000
vertex 0.003830 0.005338 0.150000
vertex 0.003519 0.005811 0.150000
endloop
endfacet
facet normal -0.005949 0.000000 0.999982
outer loop
vertex 0.004435 0.004409 0.150000
vertex 0.004349 0.004545 0.150000
vertex 0.004099 0.004923 0.150000
endloop
endfacet
facet normal 0.014875 0.000000 0.999889
outer loop
vertex 0.004042 0.005009 0.150000
vertex 0.003519 0.005811 0.150000
vertex 0.003408 0.005979 0.150000
endloop
endfacet
facet normal -0.219839 0.000000 0.975536
outer loop
vertex 0.004435 0.004409 0.150000
vertex 0.004099 0.004923 0.150000
vertex 0.004042 0.005009 0.150000
endloop
endfacet
facet normal -0.009779 0.000000 0.999952
outer loop
vertex 0.004594 0.004147 0.150000
vertex 0.004516 0.004277 0.150000
vertex 0.004435 0.004409 0.150000
endloop
endfacet
facet normal 0.003765 0.000000 0.999993
outer loop
vertex 0.004816 0.003746 0.150000
vertex 0.004668 0.004016 0.150000
vertex 0.004594 0.004147 0.150000
endloop
endfacet
facet normal 0.000000 0.000000 1.000000
outer loop
vertex 0.005233 0.002925 0.150000
vertex 0.004969 0.003451 0.150000
vertex 0.004816 0.003746 0.150000
endloop
endfacet
facet normal -0.000603 0.000000 1.000000
outer loop
vertex 0.005454 0.002388 0.150000
vertex 0.005323 0.002734 0.150000
vertex 0.005233 0.002925 0.150000
endloop
endfacet
facet normal -0.000679 0.000000 1.000000
outer loop
vertex 0.005564 0.001804 0.150000
vertex 0.005530 0.002082 0.150000
vertex 0.005454 0.002388 0.150000
endloop
endfacet
facet normal 0.000000 0.000000 1.000000
outer loop
vertex 0.005563 0.001420 0.150000
vertex 0.005568 0.001545 0.150000
vertex 0.005564 0.001804 0.150000
endloop
endfacet
facet normal 0.021780 0.000000 0.999763
outer loop
vertex 0.005546 0.001170 0.150000
vertex 0.005555 0.001295 0.150000
vertex 0.005563 0.001420 0.150000
endloop
endfacet
facet normal -0.002697 0.000000 0.999996
outer loop
vertex 0.005505 0.000931 0.150000
vertex 0.005530 0.001047 0.150000
vertex 0.005546 0.001170 0.150000
endloop
endfacet
facet normal 0.000000 0.000000 1.000000
outer loop
vertex 0.005428 0.000720 0.150000
vertex 0.005471 0.000822 0.150000
vertex 0.005505 0.000931 0.150000
endloop
endfacet
facet normal 0.000565 0.000000 1.000000
outer loop
vertex 0.005201 0.000384 0.150000
vertex 0.005324 0.000538 0.150000
vertex 0.005428 0.000720 0.150000
endloop
endfacet
facet normal 0.000860 0.000000 1.000000
outer loop
vertex 0.004935 0.000168 0.150000
vertex 0.005069 0.000261 0.150000
vertex 0.005201 0.000384 0.150000
endloop
endfacet
facet normal 0.000000 0.000000 1.000000
outer loop
vertex 0.004636 0.000052 0.150000
vertex 0.004794 0.000101 0.150000
vertex 0.004935 0.000168 0.150000
endloop
endfacet
facet normal -0.000309 0.000000 1.000000
outer loop
vertex 0.004289 0.000003 0.150000
vertex 0.004466 0.000019 0.150000
vertex 0.004636 0.000052 0.150000
endloop
endfacet
facet normal 0.000000 0.000000 1.000000
outer loop
vertex 0.004110 0.000001 0.150000
vertex 0.004199 0.000000 0.150000
vertex 0.004289 0.000003 0.150000
endloop
endfacet
facet normal 0.000000 0.000000 1.000000
outer loop
vertex 0.003935 0.000014 0.150000
vertex 0.004022 0.000006 0.150000
vertex 0.004110 0.000001 0.150000
endloop
endfacet
facet normal -0.000553 0.000000 1.000000
outer loop
vertex 0.003656 0.000076 0.150000
vertex 0.003754 0.000048 0.150000
vertex 0.003935 0.000014 0.150000
endloop
endfacet
facet normal -0.001532 0.000000 0.999999
outer loop
vertex 0.003337 0.000193 0.150000
vertex 0.003553 0.000110 0.150000
vertex 0.003656 0.000076 0.150000
endloop
endfacet
facet normal 0.000000 0.000000 1.000000
outer loop
vertex 0.001548 0.001074 0.150000
vertex 0.001680 0.000995 0.150000
vertex 0.003337 0.000193 0.150000
endloop
endfacet
facet normal 0.000000 0.000000 1.000000
outer loop
vertex 0.001296 0.001237 0.150000
vertex 0.001420 0.001155 0.150000
vertex 0.001548 0.001074 0.150000
endloop
endfacet
facet normal -0.002281 0.000000 0.999997
outer loop
vertex 0.001068 0.001408 0.150000
vertex 0.001179 0.001322 0.150000
vertex 0.001296 0.001237 0.150000
endloop
endfacet
facet normal -0.000782 0.000000 1.000000
outer loop
vertex 0.000862 0.001623 0.150000
vertex 0.000964 0.001506 0.150000
vertex 0.001068 0.001408 0.150000
endloop
endfacet
facet normal 0.000000 0.000000 1.000000
outer loop
vertex 0.000577 0.002066 0.150000
vertex 0.000668 0.001905 0.150000
vertex 0.000862 0.001623 0.150000
endloop
endfacet
facet normal -0.000903 0.000000 1.000000
outer loop
vertex 0.000326 0.002602 0.150000
vertex 0.000489 0.002237 0.150000
vertex 0.000577 0.002066 0.150000
endloop
endfacet
facet normal 0.003762 0.000000 0.999993
outer loop
vertex 0.000181 0.002981 0.150000
vertex 0.000251 0.002791 0.150000
vertex 0.000326 0.002602 0.150000
endloop
endfacet
facet normal 0.004964 0.000000 0.999988
outer loop
vertex 0.000055 0.003357 0.150000
vertex 0.000115 0.003170 0.150000
vertex 0.000181 0.002981 0.150000
endloop
endfacet
facet normal 0.000887 0.000000 1.000000
outer loop
vertex 0.000000 0.003828 0.150000
vertex 0.000013 0.003568 0.150000
vertex 0.000055 0.003357 0.150000
endloop
endfacet
facet normal -0.001307 0.000000 0.999999
outer loop
vertex 0.000043 0.004445 0.150000
vertex 0.000012 0.004124 0.150000
vertex 0.000000 0.003828 0.150000
endloop
endfacet
facet normal 0.000000 0.000000 1.000000
outer loop
vertex 0.000147 0.005112 0.150000
vertex 0.000090 0.004778 0.150000
vertex 0.000043 0.004445 0.150000
endloop
endfacet
facet normal 0.000000 0.000000 1.000000
outer loop
vertex 0.000443 0.006465 0.150000
vertex 0.000273 0.005734 0.150000
vertex 0.000147 0.005112 0.150000
endloop
endfacet
facet normal 0.007957 0.000000 0.999968
outer loop
vertex 0.000716 0.006948 0.150000
vertex 0.000708 0.006941 0.150000
vertex 0.000443 0.006465 0.150000
endloop
endfacet
facet normal 0.017815 0.000000 0.999841
outer loop
vertex 0.000776 0.006998 0.150000
vertex 0.000739 0.006967 0.150000
vertex 0.000716 0.006948 0.150000
endloop
endfacet
facet normal 0.000000 0.000000 1.000000
outer loop
vertex 0.000890 0.007089 0.150000
vertex 0.000826 0.007039 0.150000
vertex 0.000776 0.006998 0.150000
endloop
endfacet
facet normal 0.007322 0.000000 0.999973
outer loop
vertex 0.001056 0.007207 0.150000
vertex 0.000967 0.007145 0.150000
vertex 0.000890 0.007089 0.150000
endloop
endfacet
facet normal 0.000000 0.000000 1.000000
outer loop
vertex 0.001267 0.007343 0.150000
vertex 0.001156 0.007273 0.150000
vertex 0.001056 0.007207 0.150000
endloop
endfacet
facet normal 0.000000 0.000000 1.000000
outer loop
vertex 0.001520 0.007483 0.150000
vertex 0.001389 0.007413 0.150000
vertex 0.001267 0.007343 0.150000
endloop
endfacet
facet normal 0.000000 0.000000 1.000000
outer loop
vertex 0.001791 0.007608 0.150000
vertex 0.001661 0.007552 0.150000
vertex 0.001520 0.007483 0.150000
endloop
endfacet
facet normal 0.000000 0.000000 1.000000
outer loop
vertex 0.001978 0.007650 0.150000
vertex 0.001895 0.007639 0.150000
vertex 0.001791 0.007608 0.150000
endloop
endfacet
facet normal -0.000198 0.000000 1.000000
outer loop
vertex 0.002095 0.007619 0.150000
vertex 0.002043 0.007643 0.150000
vertex 0.001978 0.007650 0.150000
endloop
endfacet
facet normal 0.000000 0.000000 1.000000
outer loop
vertex 0.002319 0.007343 0.150000
vertex 0.002139 0.007581 0.150000
vertex 0.002095 0.007619 0.150000
endloop
endfacet
facet normal 0.000000 0.000000 1.000000
outer loop
vertex 0.002319 0.007343 0.150000
vertex 0.002095 0.007619 0.150000
vertex 0.001978 0.007650 0.150000
endloop
endfacet
facet normal 0.000000 0.000000 1.000000
outer loop
vertex 0.001978 0.007650 0.150000
vertex 0.001791 0.007608 0.150000
vertex 0.001520 0.007483 0.150000
endloop
endfacet
facet normal -0.000819 0.000000 1.000000
outer loop
vertex 0.001520 0.007483 0.150000
vertex 0.001267 0.007343 0.150000
vertex 0.001056 0.007207 0.150000
endloop
endfacet
facet normal -0.001378 0.000000 0.999999
outer loop
vertex 0.001056 0.007207 0.150000
vertex 0.000890 0.007089 0.150000
vertex 0.000776 0.006998 0.150000
endloop
endfacet
facet normal 0.000000 0.000000 1.000000
outer loop
vertex 0.000776 0.006998 0.150000
vertex 0.000716 0.006948 0.150000
vertex 0.000443 0.006465 0.150000
endloop
endfacet
facet normal 0.000256 0.000000 1.000000
outer loop
vertex 0.000443 0.006465 0.150000
vertex 0.000147 0.005112 0.150000
vertex 0.000043 0.004445 0.150000
endloop
endfacet
facet normal 0.000269 0.000000 1.000000
outer loop
vertex 0.000043 0.004445 0.150000
vertex 0.000000 0.003828 0.150000
vertex 0.000055 0.003357 0.150000
endloop
endfacet
facet normal 0.000000 0.000000 1.000000
outer loop
vertex 0.000055 0.003357 0.150000
vertex 0.000181 0.002981 0.150000
vertex 0.000326 0.002602 0.150000
endloop
endfacet
facet normal 0.000348 0.000000 1.000000
outer loop
vertex 0.000326 0.002602 0.150000
vertex 0.000577 0.002066 0.150000
vertex 0.000862 0.001623 0.150000
endloop
endfacet
facet normal 0.000271 0.000000 1.000000
outer loop
vertex 0.000862 0.001623 0.150000
vertex 0.001068 0.001408 0.150000
vertex 0.001296 0.001237 0.150000
endloop
endfacet
facet normal 0.000000 0.000000 1.000000
outer loop
vertex 0.001296 0.001237 0.150000
vertex 0.001548 0.001074 0.150000
vertex 0.003337 0.000193 0.150000
endloop
endfacet
facet normal 0.000142 0.000000 1.000000
outer loop
vertex 0.003337 0.000193 0.150000
vertex 0.003656 0.000076 0.150000
vertex 0.003935 0.000014 0.150000
endloop
endfacet
facet normal -0.000034 0.000000 1.000000
outer loop
vertex 0.003935 0.000014 0.150000
vertex 0.004110 0.000001 0.150000
vertex 0.004289 0.000003 0.150000
endloop
endfacet
facet normal 0.000000 0.000000 1.000000
outer loop
vertex 0.004289 0.000003 0.150000
vertex 0.004636 0.000052 0.150000
vertex 0.004935 0.000168 0.150000
endloop
endfacet
facet normal -0.000180 0.000000 1.000000
outer loop
vertex 0.004935 0.000168 0.150000
vertex 0.005201 0.000384 0.150000
vertex 0.005428 0.000720 0.150000
endloop
endfacet
facet normal 0.000746 0.000000 1.000000
outer loop
vertex 0.005428 0.000720 0.150000
vertex 0.005505 0.000931 0.150000
vertex 0.005546 0.001170 0.150000
endloop
endfacet
facet normal 0.000000 0.000000 1.000000
outer loop
vertex 0.005546 0.001170 0.150000
vertex 0.005563 0.001420 0.150000
vertex 0.005564 0.001804 0.150000
endloop
endfacet
facet normal 0.000210 0.000000 1.000000
outer loop
vertex 0.005564 0.001804 0.150000
vertex 0.005454 0.002388 0.150000
vertex 0.005233 0.002925 0.150000
endloop
endfacet
facet normal 0.001433 0.000000 0.999999
outer loop
vertex 0.005233 0.002925 0.150000
vertex 0.004816 0.003746 0.150000
vertex 0.004594 0.004147 0.150000
endloop
endfacet
facet normal 0.001859 0.000000 0.999998
outer loop
vertex 0.004594 0.004147 0.150000
vertex 0.004435 0.004409 0.150000
vertex 0.004042 0.005009 0.150000
endloop
endfacet
facet normal -0.002372 0.000000 0.999997
outer loop
vertex 0.004594 0.004147 0.150000
vertex 0.004042 0.005009 0.150000
vertex 0.003408 0.005979 0.150000
endloop
endfacet
facet normal 0.000093 0.000000 1.000000
outer loop
vertex 0.005564 0.001804 0.150000
vertex 0.005233 0.002925 0.150000
vertex 0.004594 0.004147 0.150000
endloop
endfacet
facet normal 0.000000 0.000000 1.000000
outer loop
vertex 0.005428 0.000720 0.150000
vertex 0.005546 0.001170 0.150000
vertex 0.005564 0.001804 0.150000
endloop
endfacet
facet normal 0.000000 0.000000 1.000000
outer loop
vertex 0.004289 0.000003 0.150000
vertex 0.004935 0.000168 0.150000
vertex 0.005428 0.000720 0.150000
endloop
endfacet
facet normal 0.000032 0.000000 1.000000
outer loop
vertex 0.003337 0.000193 0.150000
vertex 0.003935 0.000014 0.150000
vertex 0.004289 0.000003 0.150000
endloop
endfacet
facet normal 0.000000 0.000000 1.000000
outer loop
vertex 0.000862 0.001623 0.150000
vertex 0.001296 0.001237 0.150000
vertex 0.003337 0.000193 0.150000
endloop
endfacet
facet normal -0.000421 0.000000 1.000000
outer loop
vertex 0.000055 0.003357 0.150000
vertex 0.000326 0.002602 0.150000
vertex 0.000862 0.001623 0.150000
endloop
endfacet
facet normal 0.000000 0.000000 1.000000
outer loop
vertex 0.000443 0.006465 0.150000
vertex 0.000043 0.004445 0.150000
vertex 0.000055 0.003357 0.150000
endloop
endfacet
facet normal 0.000000 0.000000 1.000000
outer loop
vertex 0.001056 0.007207 0.150000
vertex 0.000776 0.006998 0.150000
vertex 0.000443 0.006465 0.150000
endloop
endfacet
facet normal 0.000000 0.000000 1.000000
outer loop
vertex 0.001978 0.007650 0.150000
vertex 0.001520 0.007483 0.150000
vertex 0.001056 0.007207 0.150000
endloop
endfacet
facet normal 0.000000 0.000000 1.000000
outer loop
vertex 0.002387 0.007273 0.150000
vertex 0.002319 0.007343 0.150000
vertex 0.001978 0.007650 0.150000
endloop
endfacet
facet normal 0.000000 0.000000 1.000000
outer loop
vertex 0.002653 0.007055 0.150000
vertex 0.002566 0.007133 0.150000
vertex 0.002473 0.007204 0.150000
endloop
endfacet
facet normal 0.000000 0.000000 1.000000
outer loop
vertex 0.002387 0.007273 0.150000
vertex 0.001978 0.007650 0.150000
vertex 0.001056 0.007207 0.150000
endloop
endfacet
facet normal -0.003953 0.000000 0.999992
outer loop
vertex 0.002653 0.007055 0.150000
vertex 0.002473 0.007204 0.150000
vertex 0.002387 0.007273 0.150000
endloop
endfacet
facet normal 0.000700 0.000000 1.000000
outer loop
vertex 0.002890 0.006776 0.150000
vertex 0.002735 0.006970 0.150000
vertex 0.002653 0.007055 0.150000
endloop
endfacet
facet normal 0.007192 0.000000 0.999974
outer loop
vertex 0.003046 0.006549 0.150000
vertex 0.002967 0.006667 0.150000
vertex 0.002890 0.006776 0.150000
endloop
endfacet
facet normal 0.020822 0.000000 0.999783
outer loop
vertex 0.003307 0.006137 0.150000
vertex 0.003127 0.006421 0.150000
vertex 0.003046 0.006549 0.150000
endloop
endfacet
facet normal 0.000000 0.000000 1.000000
outer loop
vertex 0.005564 0.001804 0.150000
vertex 0.004594 0.004147 0.150000
vertex 0.003408 0.005979 0.150000
endloop
endfacet
facet normal 0.000000 0.000000 1.000000
outer loop
vertex 0.003307 0.006137 0.150000
vertex 0.003046 0.006549 0.150000
vertex 0.002890 0.006776 0.150000
endloop
endfacet
facet normal -0.000044 0.000000 1.000000
outer loop
vertex 0.005564 0.001804 0.150000
vertex 0.003408 0.005979 0.150000
vertex 0.003307 0.006137 0.150000
endloop
endfacet
facet normal 0.000000 0.000000 1.000000
outer loop
vertex 0.004289 0.000003 0.150000
vertex 0.005428 0.000720 0.150000
vertex 0.005564 0.001804 0.150000
endloop
endfacet
facet normal -0.000025 0.000000 1.000000
outer loop
vertex 0.000862 0.001623 0.150000
vertex 0.003337 0.000193 0.150000
vertex 0.004289 0.000003 0.150000
endloop
endfacet
facet normal -0.000018 0.000000 1.000000
outer loop
vertex 0.000443 0.006465 0.150000
vertex 0.000055 0.003357 0.150000
vertex 0.000862 0.001623 0.150000
endloop
endfacet
facet normal 0.000000 0.000000 1.000000
outer loop
vertex 0.002387 0.007273 0.150000
vertex 0.001056 0.007207 0.150000
vertex 0.000443 0.006465 0.150000
endloop
endfacet
facet normal 0.000000 0.000000 1.000000
outer loop
vertex 0.002890 0.006776 0.150000
vertex 0.002653 0.007055 0.150000
vertex 0.002387 0.007273 0.150000
endloop
endfacet
facet normal -0.000040 0.000000 1.000000
outer loop
vertex 0.005564 0.001804 0.150000
vertex 0.003307 0.006137 0.150000
vertex 0.002890 0.006776 0.150000
endloop
endfacet
facet normal 0.000000 0.000000 1.000000
outer loop
vertex 0.000862 0.001623 0.150000
vertex 0.004289 0.000003 0.150000
vertex 0.005564 0.001804 0.150000
endloop
endfacet
facet normal 0.000012 0.000000 1.000000
outer loop
vertex 0.002387 0.007273 0.150000
vertex 0.000443 0.006465 0.150000
vertex 0.000862 0.001623 0.150000
endloop
endfacet
facet normal -0.000025 0.000000 1.000000
outer loop
vertex 0.005564 0.001804 0.150000
vertex 0.002890 0.006776 0.150000
vertex 0.002387 0.007273 0.150000
endloop
endfacet
facet normal -0.000002 0.000000 1.000000
outer loop
vertex 0.002387 0.007273 0.150000
vertex 0.000862 0.001623 0.150000
vertex 0.005564 0.001804 0.150000
endloop
endfacet
facet normal 0.721402 0.692516 0.000000
outer loop
vertex 0.002735 0.006970 0.150000
vertex 0.002735 0.006970 0.000000
vertex 0.002653 0.007055 0.000000
endloop
endfacet
facet normal 0.721399 0.692520 0.000000
outer loop
vertex 0.002735 0.006970 0.150000
vertex 0.002653 0.007055 0.000000
vertex 0.002653 0.007055 0.150000
endloop
endfacet
facet normal 0.413872 0.910335 0.000000
outer loop
vertex 0.002095 0.007619 0.150000
vertex 0.002095 0.007619 0.000000
vertex 0.002043 0.007643 0.000000
endloop
endfacet
facet normal 0.413872 0.910335 0.000000
outer loop
vertex 0.002095 0.007619 0.150000
vertex 0.002043 0.007643 0.000000
vertex 0.002043 0.007643 0.150000
endloop
endfacet
endsolid Exported from Blender-3.6.8
