solid Exported from Blender-3.6.8
facet normal 0.306301 0.951935 0.000000
outer loop
vertex 0.006580 0.005381 0.150000
vertex 0.006580 0.005381 0.000000
vertex 0.006372 0.005448 0.000000
endloop
endfacet
facet normal 0.306301 0.951935 0.000000
outer loop
vertex 0.006580 0.005381 0.150000
vertex 0.006372 0.005448 0.000000
vertex 0.006372 0.005448 0.150000
endloop
endfacet
facet normal 0.152346 0.988327 0.000000
outer loop
vertex 0.006372 0.005448 0.000000
vertex 0.005004 0.005658 0.000000
vertex 0.005004 0.005658 0.150000
endloop
endfacet
facet normal 0.152346 0.988327 0.000000
outer loop
vertex 0.006372 0.005448 0.000000
vertex 0.005004 0.005658 0.150000
vertex 0.006372 0.005448 0.150000
endloop
endfacet
facet normal -0.206457 0.978456 0.000000
outer loop
vertex 0.000120 0.005748 0.150000
vertex 0.000120 0.005748 0.000000
vertex 0.000067 0.005737 0.000000
endloop
endfacet
facet normal -0.206457 0.978456 0.000000
outer loop
vertex 0.000120 0.005748 0.150000
vertex 0.000067 0.005737 0.000000
vertex 0.000067 0.005737 0.150000
endloop
endfacet
facet normal 0.556878 -0.830594 0.000000
outer loop
vertex 0.006188 0.000119 0.150000
vertex 0.006188 0.000119 0.000000
vertex 0.006341 0.000222 0.000000
endloop
endfacet
facet normal 0.556878 -0.830594 0.000000
outer loop
vertex 0.006188 0.000119 0.150000
vertex 0.006341 0.000222 0.000000
vertex 0.006341 0.000222 0.150000
endloop
endfacet
facet normal 0.998371 0.057061 0.000000
outer loop
vertex 0.008012 0.003238 0.000000
vertex 0.008012 0.003238 0.150000
vertex 0.008028 0.002943 0.150000
endloop
endfacet
facet normal 0.998371 0.057050 0.000000
outer loop
vertex 0.008012 0.003238 0.000000
vertex 0.008028 0.002943 0.150000
vertex 0.008028 0.002943 0.000000
endloop
endfacet
facet normal -0.038997 0.999239 0.000000
outer loop
vertex 0.000273 0.005758 0.000000
vertex 0.000189 0.005755 0.000000
vertex 0.000189 0.005755 0.150000
endloop
endfacet
facet normal -0.038997 0.999239 0.000000
outer loop
vertex 0.000273 0.005758 0.000000
vertex 0.000189 0.005755 0.150000
vertex 0.000273 0.005758 0.150000
endloop
endfacet
facet normal -0.001763 0.999998 0.000000
outer loop
vertex 0.000367 0.005759 0.000000
vertex 0.000273 0.005758 0.000000
vertex 0.000273 0.005758 0.150000
endloop
endfacet
facet normal -0.001763 0.999998 0.000000
outer loop
vertex 0.000367 0.005759 0.000000
vertex 0.000273 0.005758 0.150000
vertex 0.000367 0.005759 0.150000
endloop
endfacet
facet normal 0.031549 0.999502 0.000000
outer loop
vertex 0.000577 0.005752 0.000000
vertex 0.000367 0.005759 0.000000
vertex 0.000367 0.005759 0.150000
endloop
endfacet
facet normal 0.031549 0.999502 0.000000
outer loop
vertex 0.000577 0.005752 0.000000
vertex 0.000367 0.005759 0.150000
vertex 0.000577 0.005752 0.150000
endloop
endfacet
facet normal 0.057162 0.998365 0.000000
outer loop
vertex 0.001185 0.005717 0.000000
vertex 0.000577 0.005752 0.000000
vertex 0.000577 0.005752 0.150000
endloop
endfacet
facet normal 0.057163 0.998365 0.000000
outer loop
vertex 0.001185 0.005717 0.000000
vertex 0.000577 0.005752 0.150000
vertex 0.001185 0.005717 0.150000
endloop
endfacet
facet normal 0.011088 0.999939 0.000000
outer loop
vertex 0.004658 0.005679 0.000000
vertex 0.001185 0.005717 0.000000
vertex 0.001185 0.005717 0.150000
endloop
endfacet
facet normal 0.011088 0.999939 0.000000
outer loop
vertex 0.004658 0.005679 0.000000
vertex 0.001185 0.005717 0.150000
vertex 0.004658 0.005679 0.150000
endloop
endfacet
facet normal 0.070544 0.997509 0.000000
outer loop
vertex 0.005004 0.005658 0.150000
vertex 0.005004 0.005658 0.000000
vertex 0.004830 0.005671 0.000000
endloop
endfacet
facet normal 0.045378 0.998970 0.000000
outer loop
vertex 0.004830 0.005671 0.000000
vertex 0.004658 0.005679 0.000000
vertex 0.004658 0.005679 0.150000
endloop
endfacet
facet normal 0.070544 0.997509 0.000000
outer loop
vertex 0.004830 0.005671 0.150000
vertex 0.005004 0.005658 0.150000
vertex 0.004830 0.005671 0.000000
endloop
endfacet
facet normal 0.045378 0.998970 0.000000
outer loop
vertex 0.004658 0.005679 0.150000
vertex 0.004830 0.005671 0.150000
vertex 0.004830 0.005671 0.000000
endloop
endfacet
facet normal 0.000000 0.000000 1.000000
outer loop
vertex 0.000061 0.005229 0.150000
vertex 0.000061 0.005229 0.150000
vertex 0.000058 0.005237 0.150000
endloop
endfacet
facet normal 0.000000 0.000000 0.000000
outer loop
vertex 0.000061 0.005229 0.000000
vertex 0.000061 0.005229 0.000000
vertex 0.000061 0.005229 0.000000
endloop
endfacet
facet normal 0.995634 0.000000 0.093341
outer loop
vertex 0.000061 0.005229 0.150000
vertex 0.000061 0.005229 0.150000
vertex 0.000058 0.005237 0.150000
endloop
endfacet
facet normal 0.000000 0.000000 -1.000000
outer loop
vertex 0.001185 0.005717 0.000000
vertex 0.004658 0.005679 0.000000
vertex 0.004830 0.005671 0.000000
endloop
endfacet
facet normal 0.000000 0.000000 -1.000000
outer loop
vertex 0.004830 0.005671 0.000000
vertex 0.005004 0.005658 0.000000
vertex 0.006372 0.005448 0.000000
endloop
endfacet
facet normal 0.000000 0.000000 -1.000000
outer loop
vertex 0.006372 0.005448 0.000000
vertex 0.006580 0.005381 0.000000
vertex 0.006779 0.005280 0.000000
endloop
endfacet
facet normal 0.000000 0.000000 -1.000000
outer loop
vertex 0.006779 0.005280 0.000000
vertex 0.006970 0.005154 0.000000
vertex 0.007611 0.004601 0.000000
endloop
endfacet
facet normal 0.000000 0.000000 -1.000000
outer loop
vertex 0.007611 0.004601 0.000000
vertex 0.007680 0.004520 0.000000
vertex 0.007737 0.004439 0.000000
endloop
endfacet
facet normal 0.000000 0.000000 -1.000000
outer loop
vertex 0.007737 0.004439 0.000000
vertex 0.007783 0.004355 0.000000
vertex 0.007819 0.004268 0.000000
endloop
endfacet
facet normal 0.000000 0.000000 -1.000000
outer loop
vertex 0.007819 0.004268 0.000000
vertex 0.007873 0.004074 0.000000
vertex 0.008012 0.003238 0.000000
endloop
endfacet
facet normal 0.000000 0.000000 -1.000000
outer loop
vertex 0.008012 0.003238 0.000000
vertex 0.008028 0.002943 0.000000
vertex 0.008005 0.002679 0.000000
endloop
endfacet
facet normal 0.000000 0.000000 -1.000000
outer loop
vertex 0.008005 0.002679 0.000000
vertex 0.007949 0.002429 0.000000
vertex 0.007910 0.002304 0.000000
endloop
endfacet
facet normal 0.000000 0.000000 -1.000000
outer loop
vertex 0.007910 0.002304 0.000000
vertex 0.007865 0.002176 0.000000
vertex 0.007702 0.001753 0.000000
endloop
endfacet
facet normal 0.000000 0.000000 -1.000000
outer loop
vertex 0.007702 0.001753 0.000000
vertex 0.007641 0.001608 0.000000
vertex 0.007513 0.001364 0.000000
endloop
endfacet
facet normal 0.000000 0.000000 -1.000000
outer loop
vertex 0.007513 0.001364 0.000000
vertex 0.007363 0.001160 0.000000
vertex 0.007277 0.001064 0.000000
endloop
endfacet
facet normal 0.000000 0.000000 -1.000000
outer loop
vertex 0.007277 0.001064 0.000000
vertex 0.007182 0.000968 0.000000
vertex 0.007075 0.000868 0.000000
endloop
endfacet
facet normal 0.000000 0.000000 -1.000000
outer loop
vertex 0.007075 0.000868 0.000000
vertex 0.006956 0.000761 0.000000
vertex 0.006823 0.000643 0.000000
endloop
endfacet
facet normal 0.000000 0.000000 -1.000000
outer loop
vertex 0.006674 0.000511 0.000000
vertex 0.006508 0.000362 0.000000
vertex 0.006341 0.000222 0.000000
endloop
endfacet
facet normal 0.000000 0.000000 -1.000000
outer loop
vertex 0.007075 0.000868 0.000000
vertex 0.006823 0.000643 0.000000
vertex 0.006674 0.000511 0.000000
endloop
endfacet
facet normal 0.000000 0.000000 -1.000000
outer loop
vertex 0.007513 0.001364 0.000000
vertex 0.007277 0.001064 0.000000
vertex 0.007075 0.000868 0.000000
endloop
endfacet
facet normal 0.000000 0.000000 -1.000000
outer loop
vertex 0.007910 0.002304 0.000000
vertex 0.007702 0.001753 0.000000
vertex 0.007513 0.001364 0.000000
endloop
endfacet
facet normal 0.000000 0.000000 -1.000000
outer loop
vertex 0.008012 0.003238 0.000000
vertex 0.008005 0.002679 0.000000
vertex 0.007910 0.002304 0.000000
endloop
endfacet
facet normal 0.000000 0.000000 -1.000000
outer loop
vertex 0.007737 0.004439 0.000000
vertex 0.007819 0.004268 0.000000
vertex 0.008012 0.003238 0.000000
endloop
endfacet
facet normal 0.000000 0.000000 -1.000000
outer loop
vertex 0.006779 0.005280 0.000000
vertex 0.007611 0.004601 0.000000
vertex 0.007737 0.004439 0.000000
endloop
endfacet
facet normal 0.000000 0.000000 -1.000000
outer loop
vertex 0.004830 0.005671 0.000000
vertex 0.006372 0.005448 0.000000
vertex 0.006779 0.005280 0.000000
endloop
endfacet
facet normal 0.000000 0.000000 -1.000000
outer loop
vertex 0.000367 0.005759 0.000000
vertex 0.000577 0.005752 0.000000
vertex 0.001185 0.005717 0.000000
endloop
endfacet
facet normal 0.000000 0.000000 -1.000000
outer loop
vertex 0.001185 0.005717 0.000000
vertex 0.004830 0.005671 0.000000
vertex 0.006779 0.005280 0.000000
endloop
endfacet
facet normal 0.000000 0.000000 -1.000000
outer loop
vertex 0.006779 0.005280 0.000000
vertex 0.007737 0.004439 0.000000
vertex 0.008012 0.003238 0.000000
endloop
endfacet
facet normal 0.000000 0.000000 -1.000000
outer loop
vertex 0.008012 0.003238 0.000000
vertex 0.007910 0.002304 0.000000
vertex 0.007513 0.001364 0.000000
endloop
endfacet
facet normal 0.000000 0.000000 -1.000000
outer loop
vertex 0.007513 0.001364 0.000000
vertex 0.007075 0.000868 0.000000
vertex 0.006674 0.000511 0.000000
endloop
endfacet
facet normal 0.000000 0.000000 -1.000000
outer loop
vertex 0.006674 0.000511 0.000000
vertex 0.006341 0.000222 0.000000
vertex 0.006188 0.000119 0.000000
endloop
endfacet
facet normal 0.000000 0.000000 -1.000000
outer loop
vertex 0.006188 0.000119 0.000000
vertex 0.006043 0.000050 0.000000
vertex 0.005901 0.000012 0.000000
endloop
endfacet
facet normal 0.000000 0.000000 -1.000000
outer loop
vertex 0.005901 0.000012 0.000000
vertex 0.005758 0.000000 0.000000
vertex 0.005607 0.000012 0.000000
endloop
endfacet
facet normal 0.000000 0.000000 -1.000000
outer loop
vertex 0.005607 0.000012 0.000000
vertex 0.005444 0.000044 0.000000
vertex 0.005264 0.000093 0.000000
endloop
endfacet
facet normal 0.000000 0.000000 -1.000000
outer loop
vertex 0.004570 0.000306 0.000000
vertex 0.004270 0.000389 0.000000
vertex 0.003978 0.000478 0.000000
endloop
endfacet
facet normal 0.000000 0.000000 -1.000000
outer loop
vertex 0.005607 0.000012 0.000000
vertex 0.005264 0.000093 0.000000
vertex 0.004570 0.000306 0.000000
endloop
endfacet
facet normal 0.000000 0.000000 -1.000000
outer loop
vertex 0.006188 0.000119 0.000000
vertex 0.005901 0.000012 0.000000
vertex 0.005607 0.000012 0.000000
endloop
endfacet
facet normal 0.000000 0.000000 -1.000000
outer loop
vertex 0.007513 0.001364 0.000000
vertex 0.006674 0.000511 0.000000
vertex 0.006188 0.000119 0.000000
endloop
endfacet
facet normal 0.000000 0.000000 -1.000000
outer loop
vertex 0.006779 0.005280 0.000000
vertex 0.008012 0.003238 0.000000
vertex 0.007513 0.001364 0.000000
endloop
endfacet
facet normal 0.000000 0.000000 -1.000000
outer loop
vertex 0.000367 0.005759 0.000000
vertex 0.001185 0.005717 0.000000
vertex 0.006779 0.005280 0.000000
endloop
endfacet
facet normal 0.000000 0.000000 -1.000000
outer loop
vertex 0.000189 0.005755 0.000000
vertex 0.000273 0.005758 0.000000
vertex 0.000367 0.005759 0.000000
endloop
endfacet
facet normal 0.000000 0.000000 -1.000000
outer loop
vertex 0.000067 0.005737 0.000000
vertex 0.000120 0.005748 0.000000
vertex 0.000189 0.005755 0.000000
endloop
endfacet
facet normal 0.000000 0.000000 -1.000000
outer loop
vertex 0.000016 0.005696 0.000000
vertex 0.000034 0.005721 0.000000
vertex 0.000067 0.005737 0.000000
endloop
endfacet
facet normal 0.000000 0.000000 -1.000000
outer loop
vertex 0.000000 0.005613 0.000000
vertex 0.000005 0.005659 0.000000
vertex 0.000016 0.005696 0.000000
endloop
endfacet
facet normal 0.000000 0.000000 -1.000000
outer loop
vertex 0.000023 0.005391 0.000000
vertex 0.000001 0.005561 0.000000
vertex 0.000000 0.005613 0.000000
endloop
endfacet
facet normal 0.000000 0.000000 -1.000000
outer loop
vertex 0.000061 0.005229 0.000000
vertex 0.000061 0.005229 0.000000
vertex 0.000023 0.005391 0.000000
endloop
endfacet
facet normal 0.000000 0.000000 -1.000000
outer loop
vertex 0.000351 0.004826 0.000000
vertex 0.000189 0.005040 0.000000
vertex 0.000061 0.005229 0.000000
endloop
endfacet
facet normal 0.000000 0.000000 -1.000000
outer loop
vertex 0.000061 0.005229 0.000000
vertex 0.000061 0.005229 0.000000
vertex 0.000023 0.005391 0.000000
endloop
endfacet
facet normal 0.000000 0.000000 -1.000000
outer loop
vertex 0.000023 0.005391 0.000000
vertex 0.000000 0.005613 0.000000
vertex 0.000016 0.005696 0.000000
endloop
endfacet
facet normal 0.000000 0.000000 -1.000000
outer loop
vertex 0.000016 0.005696 0.000000
vertex 0.000067 0.005737 0.000000
vertex 0.000189 0.005755 0.000000
endloop
endfacet
facet normal 0.000000 0.000000 -1.000000
outer loop
vertex 0.000189 0.005755 0.000000
vertex 0.000367 0.005759 0.000000
vertex 0.006779 0.005280 0.000000
endloop
endfacet
facet normal 0.000000 0.000000 -1.000000
outer loop
vertex 0.006779 0.005280 0.000000
vertex 0.007513 0.001364 0.000000
vertex 0.006188 0.000119 0.000000
endloop
endfacet
facet normal 0.000000 0.000000 -1.000000
outer loop
vertex 0.006188 0.000119 0.000000
vertex 0.005607 0.000012 0.000000
vertex 0.004570 0.000306 0.000000
endloop
endfacet
facet normal 0.000000 0.000000 -1.000000
outer loop
vertex 0.004570 0.000306 0.000000
vertex 0.003978 0.000478 0.000000
vertex 0.003739 0.000581 0.000000
endloop
endfacet
facet normal 0.000000 0.000000 -1.000000
outer loop
vertex 0.003739 0.000581 0.000000
vertex 0.003545 0.000696 0.000000
vertex 0.003388 0.000823 0.000000
endloop
endfacet
facet normal 0.000000 0.000000 -1.000000
outer loop
vertex 0.003388 0.000823 0.000000
vertex 0.003260 0.000963 0.000000
vertex 0.003154 0.001113 0.000000
endloop
endfacet
facet normal 0.000000 0.000000 -1.000000
outer loop
vertex 0.003154 0.001113 0.000000
vertex 0.003061 0.001275 0.000000
vertex 0.002884 0.001631 0.000000
endloop
endfacet
facet normal 0.000000 0.000000 -1.000000
outer loop
vertex 0.003154 0.001113 0.000000
vertex 0.002884 0.001631 0.000000
vertex 0.002785 0.001825 0.000000
endloop
endfacet
facet normal 0.000000 0.000000 -1.000000
outer loop
vertex 0.003739 0.000581 0.000000
vertex 0.003388 0.000823 0.000000
vertex 0.003154 0.001113 0.000000
endloop
endfacet
facet normal 0.000000 0.000000 -1.000000
outer loop
vertex 0.006188 0.000119 0.000000
vertex 0.004570 0.000306 0.000000
vertex 0.003739 0.000581 0.000000
endloop
endfacet
facet normal 0.000000 0.000000 -1.000000
outer loop
vertex 0.000189 0.005755 0.000000
vertex 0.006779 0.005280 0.000000
vertex 0.006188 0.000119 0.000000
endloop
endfacet
facet normal 0.000000 0.000000 -1.000000
outer loop
vertex 0.000023 0.005391 0.000000
vertex 0.000016 0.005696 0.000000
vertex 0.000189 0.005755 0.000000
endloop
endfacet
facet normal 0.000000 0.000000 -1.000000
outer loop
vertex 0.000351 0.004826 0.000000
vertex 0.000061 0.005229 0.000000
vertex 0.000023 0.005391 0.000000
endloop
endfacet
facet normal 0.000000 0.000000 -1.000000
outer loop
vertex 0.002152 0.002714 0.000000
vertex 0.000540 0.004590 0.000000
vertex 0.000351 0.004826 0.000000
endloop
endfacet
facet normal 0.000000 0.000000 -1.000000
outer loop
vertex 0.002152 0.002714 0.000000
vertex 0.000351 0.004826 0.000000
vertex 0.000023 0.005391 0.000000
endloop
endfacet
facet normal 0.000000 0.000000 -1.000000
outer loop
vertex 0.000023 0.005391 0.000000
vertex 0.000189 0.005755 0.000000
vertex 0.006188 0.000119 0.000000
endloop
endfacet
facet normal 0.000000 0.000000 -1.000000
outer loop
vertex 0.006188 0.000119 0.000000
vertex 0.003739 0.000581 0.000000
vertex 0.003154 0.001113 0.000000
endloop
endfacet
facet normal 0.000000 0.000000 -1.000000
outer loop
vertex 0.006188 0.000119 0.000000
vertex 0.003154 0.001113 0.000000
vertex 0.002785 0.001825 0.000000
endloop
endfacet
facet normal 0.000000 0.000000 -1.000000
outer loop
vertex 0.002152 0.002714 0.000000
vertex 0.000023 0.005391 0.000000
vertex 0.006188 0.000119 0.000000
endloop
endfacet
facet normal 0.000000 0.000000 -1.000000
outer loop
vertex 0.002351 0.002467 0.000000
vertex 0.002152 0.002714 0.000000
vertex 0.006188 0.000119 0.000000
endloop
endfacet
facet normal 0.000000 0.000000 -1.000000
outer loop
vertex 0.006188 0.000119 0.000000
vertex 0.002785 0.001825 0.000000
vertex 0.002667 0.002027 0.000000
endloop
endfacet
facet normal 0.000000 0.000000 -1.000000
outer loop
vertex 0.002524 0.002240 0.000000
vertex 0.002351 0.002467 0.000000
vertex 0.006188 0.000119 0.000000
endloop
endfacet
facet normal 0.000000 0.000000 -1.000000
outer loop
vertex 0.006188 0.000119 0.000000
vertex 0.002667 0.002027 0.000000
vertex 0.002524 0.002240 0.000000
endloop
endfacet
facet normal 0.263416 -0.964682 0.000000
outer loop
vertex 0.005901 0.000012 0.150000
vertex 0.005901 0.000012 0.000000
vertex 0.006043 0.000050 0.000000
endloop
endfacet
facet normal 0.263416 -0.964682 0.000000
outer loop
vertex 0.005901 0.000012 0.150000
vertex 0.006043 0.000050 0.000000
vertex 0.006043 0.000050 0.150000
endloop
endfacet
facet normal 1.000000 0.000000 0.000000
outer loop
vertex 0.000061 0.005229 0.150000
vertex 0.000061 0.005229 0.150000
vertex 0.000061 0.005229 0.000000
endloop
endfacet
facet normal 1.000000 0.000000 0.000000
outer loop
vertex 0.000061 0.005229 0.000000
vertex 0.000061 0.005229 0.000000
vertex 0.000061 0.005229 0.150000
endloop
endfacet
facet normal 1.000000 0.000000 0.000000
outer loop
vertex 0.000061 0.005229 0.150000
vertex 0.000061 0.005229 0.150000
vertex 0.000061 0.005229 0.000000
endloop
endfacet
facet normal 1.000000 0.000000 0.000000
outer loop
vertex 0.000061 0.005229 0.000000
vertex 0.000061 0.005229 0.150000
vertex 0.000061 0.005229 0.150000
endloop
endfacet
facet normal 0.000000 0.000000 1.000000
outer loop
vertex 0.000061 0.005229 0.150000
vertex 0.000061 0.005229 0.150000
vertex 0.000058 0.005237 0.150000
endloop
endfacet
facet normal 0.000000 0.000000 1.000000
outer loop
vertex 0.000061 0.005229 0.150000
vertex 0.000058 0.005237 0.150000
vertex 0.000061 0.005229 0.150000
endloop
endfacet
facet normal -0.098961 0.995091 0.000000
outer loop
vertex 0.000189 0.005755 0.150000
vertex 0.000189 0.005755 0.000000
vertex 0.000120 0.005748 0.000000
endloop
endfacet
facet normal -0.098961 0.995091 0.000000
outer loop
vertex 0.000189 0.005755 0.150000
vertex 0.000120 0.005748 0.000000
vertex 0.000120 0.005748 0.150000
endloop
endfacet
facet normal -0.867265 -0.497846 0.000000
outer loop
vertex 0.003061 0.001275 0.000000
vertex 0.003154 0.001113 0.000000
vertex 0.003154 0.001113 0.150000
endloop
endfacet
facet normal -0.867266 -0.497845 0.000000
outer loop
vertex 0.003061 0.001275 0.000000
vertex 0.003154 0.001113 0.150000
vertex 0.003061 0.001275 0.150000
endloop
endfacet
facet normal -0.895606 -0.444848 0.000000
outer loop
vertex 0.002884 0.001631 0.000000
vertex 0.003061 0.001275 0.000000
vertex 0.003061 0.001275 0.150000
endloop
endfacet
facet normal -0.895606 -0.444849 0.000000
outer loop
vertex 0.002884 0.001631 0.000000
vertex 0.003061 0.001275 0.150000
vertex 0.002884 0.001631 0.150000
endloop
endfacet
facet normal -0.865638 -0.500670 0.000000
outer loop
vertex 0.002667 0.002027 0.150000
vertex 0.002667 0.002027 0.000000
vertex 0.002785 0.001825 0.000000
endloop
endfacet
facet normal -0.889051 -0.457809 0.000000
outer loop
vertex 0.002785 0.001825 0.000000
vertex 0.002884 0.001631 0.000000
vertex 0.002884 0.001631 0.150000
endloop
endfacet
facet normal -0.865638 -0.500671 0.000000
outer loop
vertex 0.002785 0.001825 0.150000
vertex 0.002667 0.002027 0.150000
vertex 0.002785 0.001825 0.000000
endloop
endfacet
facet normal -0.889050 -0.457810 0.000000
outer loop
vertex 0.002884 0.001631 0.150000
vertex 0.002785 0.001825 0.150000
vertex 0.002785 0.001825 0.000000
endloop
endfacet
facet normal 0.000000 0.000000 0.000000
outer loop
vertex 0.000061 0.005229 0.150000
vertex 0.000061 0.005229 0.150000
vertex 0.000061 0.005229 0.150000
endloop
endfacet
facet normal -0.510247 -0.860028 0.000000
outer loop
vertex 0.003545 0.000696 0.150000
vertex 0.003545 0.000696 0.000000
vertex 0.003739 0.000581 0.000000
endloop
endfacet
facet normal -0.510247 -0.860028 0.000000
outer loop
vertex 0.003545 0.000696 0.150000
vertex 0.003739 0.000581 0.000000
vertex 0.003739 0.000581 0.150000
endloop
endfacet
facet normal 0.756212 0.654326 0.000000
outer loop
vertex 0.007680 0.004520 0.150000
vertex 0.007680 0.004520 0.000000
vertex 0.007611 0.004601 0.000000
endloop
endfacet
facet normal 0.756212 0.654326 0.000000
outer loop
vertex 0.007680 0.004520 0.150000
vertex 0.007611 0.004601 0.000000
vertex 0.007611 0.004601 0.150000
endloop
endfacet
facet normal -0.795617 -0.605800 0.000000
outer loop
vertex 0.002351 0.002467 0.000000
vertex 0.002524 0.002240 0.000000
vertex 0.002524 0.002240 0.150000
endloop
endfacet
facet normal -0.795616 -0.605801 0.000000
outer loop
vertex 0.002351 0.002467 0.000000
vertex 0.002524 0.002240 0.150000
vertex 0.002351 0.002467 0.150000
endloop
endfacet
facet normal -0.778050 -0.628203 0.000000
outer loop
vertex 0.002152 0.002714 0.000000
vertex 0.002351 0.002467 0.000000
vertex 0.002351 0.002467 0.150000
endloop
endfacet
facet normal -0.778050 -0.628202 0.000000
outer loop
vertex 0.002152 0.002714 0.000000
vertex 0.002351 0.002467 0.150000
vertex 0.002152 0.002714 0.150000
endloop
endfacet
facet normal -0.758640 -0.651510 0.000000
outer loop
vertex 0.000540 0.004590 0.000000
vertex 0.002152 0.002714 0.000000
vertex 0.002152 0.002714 0.150000
endloop
endfacet
facet normal -0.758640 -0.651510 0.000000
outer loop
vertex 0.000540 0.004590 0.000000
vertex 0.002152 0.002714 0.150000
vertex 0.000540 0.004590 0.150000
endloop
endfacet
facet normal -0.797973 -0.602694 0.000000
outer loop
vertex 0.000189 0.005040 0.150000
vertex 0.000189 0.005040 0.000000
vertex 0.000351 0.004826 0.000000
endloop
endfacet
facet normal -0.778955 -0.627080 0.000000
outer loop
vertex 0.000351 0.004826 0.000000
vertex 0.000540 0.004590 0.000000
vertex 0.000540 0.004590 0.150000
endloop
endfacet
facet normal -0.797973 -0.602694 0.000000
outer loop
vertex 0.000351 0.004826 0.150000
vertex 0.000189 0.005040 0.150000
vertex 0.000351 0.004826 0.000000
endloop
endfacet
facet normal -0.778955 -0.627080 0.000000
outer loop
vertex 0.000540 0.004590 0.150000
vertex 0.000351 0.004826 0.150000
vertex 0.000351 0.004826 0.000000
endloop
endfacet
facet normal -1.000000 0.000000 0.000000
outer loop
vertex 0.000061 0.005229 0.150000
vertex 0.000061 0.005229 0.000000
vertex 0.000061 0.005229 0.000000
endloop
endfacet
facet normal -1.000000 0.000000 0.000000
outer loop
vertex 0.000061 0.005229 0.150000
vertex 0.000061 0.005229 0.000000
vertex 0.000061 0.005229 0.150000
endloop
endfacet
facet normal 0.081461 -0.996676 0.000000
outer loop
vertex 0.005758 0.000000 0.150000
vertex 0.005758 0.000000 0.000000
vertex 0.005901 0.000012 0.000000
endloop
endfacet
facet normal 0.081462 -0.996676 0.000000
outer loop
vertex 0.005758 0.000000 0.150000
vertex 0.005901 0.000012 0.000000
vertex 0.005901 0.000012 0.150000
endloop
endfacet
facet normal 0.653397 0.757016 0.000000
outer loop
vertex 0.007611 0.004601 0.000000
vertex 0.006970 0.005154 0.000000
vertex 0.006970 0.005154 0.150000
endloop
endfacet
facet normal 0.653396 0.757017 0.000000
outer loop
vertex 0.007611 0.004601 0.000000
vertex 0.006970 0.005154 0.150000
vertex 0.007611 0.004601 0.150000
endloop
endfacet
facet normal -0.827189 -0.561924 0.000000
outer loop
vertex 0.000061 0.005229 0.150000
vertex 0.000061 0.005229 0.000000
vertex 0.000189 0.005040 0.000000
endloop
endfacet
facet normal -0.827189 -0.561924 0.000000
outer loop
vertex 0.000061 0.005229 0.150000
vertex 0.000189 0.005040 0.000000
vertex 0.000189 0.005040 0.150000
endloop
endfacet
facet normal 0.819797 0.572654 0.000000
outer loop
vertex 0.007737 0.004439 0.150000
vertex 0.007737 0.004439 0.000000
vertex 0.007680 0.004520 0.000000
endloop
endfacet
facet normal 0.819797 0.572654 0.000000
outer loop
vertex 0.007737 0.004439 0.150000
vertex 0.007680 0.004520 0.000000
vertex 0.007680 0.004520 0.150000
endloop
endfacet
facet normal 0.954893 -0.296948 0.000000
outer loop
vertex 0.007910 0.002304 0.000000
vertex 0.007949 0.002429 0.000000
vertex 0.007949 0.002429 0.150000
endloop
endfacet
facet normal 0.954887 -0.296970 0.000000
outer loop
vertex 0.007910 0.002304 0.000000
vertex 0.007949 0.002429 0.150000
vertex 0.007910 0.002304 0.150000
endloop
endfacet
facet normal 0.943554 -0.331219 0.000000
outer loop
vertex 0.007865 0.002176 0.000000
vertex 0.007910 0.002304 0.000000
vertex 0.007910 0.002304 0.150000
endloop
endfacet
facet normal 0.943554 -0.331219 0.000000
outer loop
vertex 0.007865 0.002176 0.000000
vertex 0.007910 0.002304 0.150000
vertex 0.007865 0.002176 0.150000
endloop
endfacet
facet normal 0.923368 -0.383916 0.000000
outer loop
vertex 0.007641 0.001608 0.150000
vertex 0.007641 0.001608 0.000000
vertex 0.007702 0.001753 0.000000
endloop
endfacet
facet normal 0.932988 -0.359909 0.000000
outer loop
vertex 0.007702 0.001753 0.000000
vertex 0.007865 0.002176 0.000000
vertex 0.007865 0.002176 0.150000
endloop
endfacet
facet normal 0.923368 -0.383916 0.000000
outer loop
vertex 0.007702 0.001753 0.150000
vertex 0.007641 0.001608 0.150000
vertex 0.007702 0.001753 0.000000
endloop
endfacet
facet normal 0.932988 -0.359909 0.000000
outer loop
vertex 0.007865 0.002176 0.150000
vertex 0.007702 0.001753 0.150000
vertex 0.007702 0.001753 0.000000
endloop
endfacet
facet normal -0.816887 -0.576798 0.000000
outer loop
vertex 0.003154 0.001113 0.150000
vertex 0.003154 0.001113 0.000000
vertex 0.003260 0.000963 0.000000
endloop
endfacet
facet normal -0.816888 -0.576797 0.000000
outer loop
vertex 0.003154 0.001113 0.150000
vertex 0.003260 0.000963 0.000000
vertex 0.003260 0.000963 0.150000
endloop
endfacet
facet normal 0.975350 -0.220661 0.000000
outer loop
vertex 0.007949 0.002429 0.150000
vertex 0.007949 0.002429 0.000000
vertex 0.008005 0.002679 0.000000
endloop
endfacet
facet normal 0.975349 -0.220667 0.000000
outer loop
vertex 0.007949 0.002429 0.150000
vertex 0.008005 0.002679 0.000000
vertex 0.008005 0.002679 0.150000
endloop
endfacet
facet normal -0.959106 0.283047 0.000000
outer loop
vertex 0.000016 0.005696 0.150000
vertex 0.000016 0.005696 0.000000
vertex 0.000005 0.005659 0.000000
endloop
endfacet
facet normal -0.959106 0.283047 0.000000
outer loop
vertex 0.000016 0.005696 0.150000
vertex 0.000005 0.005659 0.000000
vertex 0.000005 0.005659 0.150000
endloop
endfacet
facet normal -0.432177 0.901789 0.000000
outer loop
vertex 0.000067 0.005737 0.150000
vertex 0.000067 0.005737 0.000000
vertex 0.000034 0.005721 0.000000
endloop
endfacet
facet normal -0.432177 0.901789 0.000000
outer loop
vertex 0.000067 0.005737 0.150000
vertex 0.000034 0.005721 0.000000
vertex 0.000034 0.005721 0.150000
endloop
endfacet
facet normal -0.736734 -0.676183 0.000000
outer loop
vertex 0.003260 0.000963 0.150000
vertex 0.003260 0.000963 0.000000
vertex 0.003388 0.000823 0.000000
endloop
endfacet
facet normal -0.736734 -0.676183 0.000000
outer loop
vertex 0.003260 0.000963 0.150000
vertex 0.003388 0.000823 0.000000
vertex 0.003388 0.000823 0.150000
endloop
endfacet
facet normal 0.552630 0.833427 0.000000
outer loop
vertex 0.006970 0.005154 0.150000
vertex 0.006970 0.005154 0.000000
vertex 0.006779 0.005280 0.000000
endloop
endfacet
facet normal 0.552630 0.833427 0.000000
outer loop
vertex 0.006970 0.005154 0.150000
vertex 0.006779 0.005280 0.000000
vertex 0.006779 0.005280 0.150000
endloop
endfacet
facet normal -0.974657 -0.223702 0.000000
outer loop
vertex 0.000023 0.005391 0.000000
vertex 0.000061 0.005229 0.000000
vertex 0.000061 0.005229 0.150000
endloop
endfacet
facet normal -0.975128 -0.221645 0.000000
outer loop
vertex 0.000058 0.005237 0.150000
vertex 0.000023 0.005391 0.150000
vertex 0.000023 0.005391 0.000000
endloop
endfacet
facet normal -0.965192 -0.261541 -0.000043
outer loop
vertex 0.000061 0.005229 0.150000
vertex 0.000058 0.005237 0.150000
vertex 0.000023 0.005391 0.000000
endloop
endfacet
facet normal -0.991376 -0.131045 0.000000
outer loop
vertex 0.000001 0.005561 0.000000
vertex 0.000023 0.005391 0.000000
vertex 0.000023 0.005391 0.150000
endloop
endfacet
facet normal -0.991376 -0.131045 0.000000
outer loop
vertex 0.000001 0.005561 0.000000
vertex 0.000023 0.005391 0.150000
vertex 0.000001 0.005561 0.150000
endloop
endfacet
facet normal -0.999909 -0.013512 0.000000
outer loop
vertex 0.000000 0.005613 0.150000
vertex 0.000000 0.005613 0.000000
vertex 0.000001 0.005561 0.000000
endloop
endfacet
facet normal -0.999909 -0.013512 0.000000
outer loop
vertex 0.000000 0.005613 0.150000
vertex 0.000001 0.005561 0.000000
vertex 0.000001 0.005561 0.150000
endloop
endfacet
facet normal 0.430042 -0.902809 0.000000
outer loop
vertex 0.006043 0.000050 0.150000
vertex 0.006043 0.000050 0.000000
vertex 0.006188 0.000119 0.000000
endloop
endfacet
facet normal 0.430040 -0.902810 0.000000
outer loop
vertex 0.006043 0.000050 0.150000
vertex 0.006188 0.000119 0.000000
vertex 0.006188 0.000119 0.150000
endloop
endfacet
facet normal -0.193159 -0.981167 0.000000
outer loop
vertex 0.005444 0.000044 0.150000
vertex 0.005444 0.000044 0.000000
vertex 0.005607 0.000012 0.000000
endloop
endfacet
facet normal -0.193161 -0.981167 0.000000
outer loop
vertex 0.005444 0.000044 0.150000
vertex 0.005607 0.000012 0.000000
vertex 0.005607 0.000012 0.150000
endloop
endfacet
facet normal -0.394284 -0.918989 0.000000
outer loop
vertex 0.003739 0.000581 0.150000
vertex 0.003739 0.000581 0.000000
vertex 0.003978 0.000478 0.000000
endloop
endfacet
facet normal -0.394283 -0.918989 0.000000
outer loop
vertex 0.003739 0.000581 0.150000
vertex 0.003978 0.000478 0.000000
vertex 0.003978 0.000478 0.150000
endloop
endfacet
facet normal 0.986525 0.163613 0.000000
outer loop
vertex 0.008012 0.003238 0.000000
vertex 0.007873 0.004074 0.000000
vertex 0.007873 0.004074 0.150000
endloop
endfacet
facet normal 0.986525 0.163612 0.000000
outer loop
vertex 0.008012 0.003238 0.000000
vertex 0.007873 0.004074 0.150000
vertex 0.008012 0.003238 0.150000
endloop
endfacet
facet normal -0.261989 -0.965071 0.000000
outer loop
vertex 0.005264 0.000093 0.000000
vertex 0.005444 0.000044 0.000000
vertex 0.005444 0.000044 0.150000
endloop
endfacet
facet normal -0.261989 -0.965071 0.000000
outer loop
vertex 0.005264 0.000093 0.000000
vertex 0.005444 0.000044 0.150000
vertex 0.005264 0.000093 0.150000
endloop
endfacet
facet normal -0.294139 -0.955763 0.000000
outer loop
vertex 0.004570 0.000306 0.000000
vertex 0.005264 0.000093 0.000000
vertex 0.005264 0.000093 0.150000
endloop
endfacet
facet normal -0.294139 -0.955763 0.000000
outer loop
vertex 0.004570 0.000306 0.000000
vertex 0.005264 0.000093 0.150000
vertex 0.004570 0.000306 0.150000
endloop
endfacet
facet normal -0.293450 -0.955975 0.000000
outer loop
vertex 0.003978 0.000478 0.150000
vertex 0.003978 0.000478 0.000000
vertex 0.004270 0.000389 0.000000
endloop
endfacet
facet normal -0.264737 -0.964321 0.000000
outer loop
vertex 0.004270 0.000389 0.000000
vertex 0.004570 0.000306 0.000000
vertex 0.004570 0.000306 0.150000
endloop
endfacet
facet normal -0.293449 -0.955975 0.000000
outer loop
vertex 0.004270 0.000389 0.150000
vertex 0.003978 0.000478 0.150000
vertex 0.004270 0.000389 0.000000
endloop
endfacet
facet normal -0.264736 -0.964321 0.000000
outer loop
vertex 0.004270 0.000389 0.000000
vertex 0.004570 0.000306 0.150000
vertex 0.004270 0.000389 0.150000
endloop
endfacet
facet normal -0.829197 -0.558956 0.000000
outer loop
vertex 0.002524 0.002240 0.150000
vertex 0.002524 0.002240 0.000000
vertex 0.002667 0.002027 0.000000
endloop
endfacet
facet normal -0.829198 -0.558955 0.000000
outer loop
vertex 0.002524 0.002240 0.150000
vertex 0.002667 0.002027 0.000000
vertex 0.002667 0.002027 0.150000
endloop
endfacet
facet normal 0.000000 0.000000 1.000000
outer loop
vertex 0.007075 0.000868 0.000000
vertex 0.007182 0.000968 0.000000
vertex 0.007277 0.001064 0.000000
endloop
endfacet
facet normal 0.743614 -0.668609 0.000000
outer loop
vertex 0.007277 0.001064 0.000000
vertex 0.007363 0.001160 0.000000
vertex 0.007363 0.001160 0.150000
endloop
endfacet
facet normal 0.743614 -0.668609 0.000000
outer loop
vertex 0.007277 0.001064 0.000000
vertex 0.007363 0.001160 0.150000
vertex 0.007277 0.001064 0.150000
endloop
endfacet
facet normal 0.000000 0.000000 1.000000
outer loop
vertex 0.006956 0.000761 0.000000
vertex 0.007075 0.000868 0.000000
vertex 0.007277 0.001064 0.000000
endloop
endfacet
facet normal 0.000000 0.000000 1.000000
outer loop
vertex 0.006823 0.000643 0.000000
vertex 0.006956 0.000761 0.000000
vertex 0.007277 0.001064 0.000000
endloop
endfacet
facet normal 0.708665 -0.705546 0.000000
outer loop
vertex 0.007277 0.001064 0.000000
vertex 0.007277 0.001064 0.150000
vertex 0.007182 0.000968 0.150000
endloop
endfacet
facet normal 0.683271 -0.730165 -0.000032
outer loop
vertex 0.007277 0.001064 0.000000
vertex 0.007182 0.000968 0.150000
vertex 0.007075 0.000868 0.150000
endloop
endfacet
facet normal 0.000000 0.000000 1.000000
outer loop
vertex 0.006674 0.000511 0.000000
vertex 0.006823 0.000643 0.000000
vertex 0.007277 0.001064 0.000000
endloop
endfacet
facet normal 0.000000 0.000000 1.000000
outer loop
vertex 0.006341 0.000222 0.000000
vertex 0.006508 0.000362 0.000000
vertex 0.006674 0.000511 0.000000
endloop
endfacet
facet normal 0.642716 -0.766105 0.000000
outer loop
vertex 0.006508 0.000362 0.150000
vertex 0.006341 0.000222 0.150000
vertex 0.006341 0.000222 0.000000
endloop
endfacet
facet normal 0.669229 -0.743056 -0.000051
outer loop
vertex 0.006674 0.000511 0.150000
vertex 0.006508 0.000362 0.150000
vertex 0.006341 0.000222 0.000000
endloop
endfacet
facet normal 0.000000 0.000000 1.000000
outer loop
vertex 0.006341 0.000222 0.000000
vertex 0.006674 0.000511 0.000000
vertex 0.007277 0.001064 0.000000
endloop
endfacet
facet normal 0.668083 -0.744087 -0.000071
outer loop
vertex 0.007277 0.001064 0.000000
vertex 0.007075 0.000868 0.150000
vertex 0.006956 0.000761 0.150000
endloop
endfacet
facet normal 0.663087 -0.748543 -0.000027
outer loop
vertex 0.006823 0.000643 0.150000
vertex 0.006674 0.000511 0.150000
vertex 0.006341 0.000222 0.000000
endloop
endfacet
facet normal 0.662015 -0.749490 -0.000095
outer loop
vertex 0.007277 0.001064 0.000000
vertex 0.006956 0.000761 0.150000
vertex 0.006823 0.000643 0.150000
endloop
endfacet
facet normal 0.668586 -0.743635 -0.000058
outer loop
vertex 0.007277 0.001064 0.000000
vertex 0.006823 0.000643 0.150000
vertex 0.006341 0.000222 0.000000
endloop
endfacet
facet normal 0.000000 0.000000 1.000000
outer loop
vertex 0.006043 0.000050 0.150000
vertex 0.006188 0.000119 0.150000
vertex 0.006341 0.000222 0.150000
endloop
endfacet
facet normal -0.002131 0.000000 0.999998
outer loop
vertex 0.006341 0.000222 0.150000
vertex 0.006508 0.000362 0.150000
vertex 0.006674 0.000511 0.150000
endloop
endfacet
facet normal -0.015682 0.000000 0.999877
outer loop
vertex 0.006823 0.000643 0.150000
vertex 0.006956 0.000761 0.150000
vertex 0.007075 0.000868 0.150000
endloop
endfacet
facet normal 0.000000 0.000000 1.000000
outer loop
vertex 0.006341 0.000222 0.150000
vertex 0.006674 0.000511 0.150000
vertex 0.006823 0.000643 0.150000
endloop
endfacet
facet normal 0.000000 0.000000 1.000000
outer loop
vertex 0.005901 0.000012 0.150000
vertex 0.006043 0.000050 0.150000
vertex 0.006341 0.000222 0.150000
endloop
endfacet
facet normal 0.000000 0.000000 1.000000
outer loop
vertex 0.005607 0.000012 0.150000
vertex 0.005758 0.000000 0.150000
vertex 0.005901 0.000012 0.150000
endloop
endfacet
facet normal -0.000416 0.000000 1.000000
outer loop
vertex 0.005264 0.000093 0.150000
vertex 0.005444 0.000044 0.150000
vertex 0.005607 0.000012 0.150000
endloop
endfacet
facet normal 0.000641 0.000000 1.000000
outer loop
vertex 0.003978 0.000478 0.150000
vertex 0.004270 0.000389 0.150000
vertex 0.004570 0.000306 0.150000
endloop
endfacet
facet normal 0.000107 0.000000 1.000000
outer loop
vertex 0.004570 0.000306 0.150000
vertex 0.005264 0.000093 0.150000
vertex 0.005607 0.000012 0.150000
endloop
endfacet
facet normal 0.000000 0.000000 1.000000
outer loop
vertex 0.005607 0.000012 0.150000
vertex 0.005901 0.000012 0.150000
vertex 0.006341 0.000222 0.150000
endloop
endfacet
facet normal 0.003871 0.000000 0.999993
outer loop
vertex 0.006341 0.000222 0.150000
vertex 0.006823 0.000643 0.150000
vertex 0.007075 0.000868 0.150000
endloop
endfacet
facet normal 0.002597 0.000000 0.999997
outer loop
vertex 0.007075 0.000868 0.150000
vertex 0.007182 0.000968 0.150000
vertex 0.007277 0.001064 0.150000
endloop
endfacet
facet normal 0.000000 0.000000 1.000000
outer loop
vertex 0.007277 0.001064 0.150000
vertex 0.007363 0.001160 0.150000
vertex 0.007513 0.001364 0.150000
endloop
endfacet
facet normal 0.000000 0.000000 1.000000
outer loop
vertex 0.007513 0.001364 0.150000
vertex 0.007641 0.001608 0.150000
vertex 0.007702 0.001753 0.150000
endloop
endfacet
facet normal -0.001936 0.000000 0.999998
outer loop
vertex 0.007702 0.001753 0.150000
vertex 0.007865 0.002176 0.150000
vertex 0.007910 0.002304 0.150000
endloop
endfacet
facet normal 0.000000 0.000000 1.000000
outer loop
vertex 0.007910 0.002304 0.150000
vertex 0.007949 0.002429 0.150000
vertex 0.008005 0.002679 0.150000
endloop
endfacet
facet normal -0.000648 0.000000 1.000000
outer loop
vertex 0.008005 0.002679 0.150000
vertex 0.008028 0.002943 0.150000
vertex 0.008012 0.003238 0.150000
endloop
endfacet
facet normal 0.000607 0.000000 1.000000
outer loop
vertex 0.008012 0.003238 0.150000
vertex 0.007873 0.004074 0.150000
vertex 0.007819 0.004268 0.150000
endloop
endfacet
facet normal 0.001932 0.000000 0.999998
outer loop
vertex 0.007819 0.004268 0.150000
vertex 0.007783 0.004355 0.150000
vertex 0.007737 0.004439 0.150000
endloop
endfacet
facet normal 0.001662 0.000000 0.999999
outer loop
vertex 0.007737 0.004439 0.150000
vertex 0.007680 0.004520 0.150000
vertex 0.007611 0.004601 0.150000
endloop
endfacet
facet normal 0.000446 0.000000 1.000000
outer loop
vertex 0.007611 0.004601 0.150000
vertex 0.006970 0.005154 0.150000
vertex 0.006779 0.005280 0.150000
endloop
endfacet
facet normal 0.000000 0.000000 1.000000
outer loop
vertex 0.006779 0.005280 0.150000
vertex 0.006580 0.005381 0.150000
vertex 0.006372 0.005448 0.150000
endloop
endfacet
facet normal -0.000080 0.000000 1.000000
outer loop
vertex 0.006372 0.005448 0.150000
vertex 0.005004 0.005658 0.150000
vertex 0.004830 0.005671 0.150000
endloop
endfacet
facet normal 0.000000 0.000000 1.000000
outer loop
vertex 0.004830 0.005671 0.150000
vertex 0.004658 0.005679 0.150000
vertex 0.001185 0.005717 0.150000
endloop
endfacet
facet normal 0.000000 0.000000 1.000000
outer loop
vertex 0.001185 0.005717 0.150000
vertex 0.000577 0.005752 0.150000
vertex 0.000367 0.005759 0.150000
endloop
endfacet
facet normal 0.000389 0.000000 1.000000
outer loop
vertex 0.000367 0.005759 0.150000
vertex 0.000273 0.005758 0.150000
vertex 0.000189 0.005755 0.150000
endloop
endfacet
facet normal 0.000557 0.000000 1.000000
outer loop
vertex 0.000189 0.005755 0.150000
vertex 0.000120 0.005748 0.150000
vertex 0.000067 0.005737 0.150000
endloop
endfacet
facet normal 0.000000 0.000000 1.000000
outer loop
vertex 0.000067 0.005737 0.150000
vertex 0.000034 0.005721 0.150000
vertex 0.000016 0.005696 0.150000
endloop
endfacet
facet normal 0.000000 0.000000 1.000000
outer loop
vertex 0.000016 0.005696 0.150000
vertex 0.000005 0.005659 0.150000
vertex 0.000000 0.005613 0.150000
endloop
endfacet
facet normal 0.003457 0.000000 0.999994
outer loop
vertex 0.000000 0.005613 0.150000
vertex 0.000001 0.005561 0.150000
vertex 0.000023 0.005391 0.150000
endloop
endfacet
facet normal -0.012074 0.000000 0.999927
outer loop
vertex 0.000023 0.005391 0.150000
vertex 0.000058 0.005237 0.150000
vertex 0.000061 0.005229 0.150000
endloop
endfacet
facet normal 0.000000 0.000000 1.000000
outer loop
vertex 0.000061 0.005229 0.150000
vertex 0.000189 0.005040 0.150000
vertex 0.000351 0.004826 0.150000
endloop
endfacet
facet normal 0.002447 0.000000 0.999997
outer loop
vertex 0.000351 0.004826 0.150000
vertex 0.000540 0.004590 0.150000
vertex 0.002152 0.002714 0.150000
endloop
endfacet
facet normal 0.000000 0.000000 1.000000
outer loop
vertex 0.000061 0.005229 0.150000
vertex 0.000351 0.004826 0.150000
vertex 0.002152 0.002714 0.150000
endloop
endfacet
facet normal 0.000000 0.000000 1.000000
outer loop
vertex 0.000000 0.005613 0.150000
vertex 0.000023 0.005391 0.150000
vertex 0.000061 0.005229 0.150000
endloop
endfacet
facet normal 0.000000 0.000000 1.000000
outer loop
vertex 0.000067 0.005737 0.150000
vertex 0.000016 0.005696 0.150000
vertex 0.000000 0.005613 0.150000
endloop
endfacet
facet normal -0.000163 0.000000 1.000000
outer loop
vertex 0.000367 0.005759 0.150000
vertex 0.000189 0.005755 0.150000
vertex 0.000067 0.005737 0.150000
endloop
endfacet
facet normal -0.000005 0.000000 1.000000
outer loop
vertex 0.006372 0.005448 0.150000
vertex 0.004830 0.005671 0.150000
vertex 0.001185 0.005717 0.150000
endloop
endfacet
facet normal 0.000000 0.000000 1.000000
outer loop
vertex 0.001185 0.005717 0.150000
vertex 0.000367 0.005759 0.150000
vertex 0.000067 0.005737 0.150000
endloop
endfacet
facet normal 0.000000 0.000000 1.000000
outer loop
vertex 0.000067 0.005737 0.150000
vertex 0.000000 0.005613 0.150000
vertex 0.000061 0.005229 0.150000
endloop
endfacet
facet normal 0.000000 0.000000 1.000000
outer loop
vertex 0.000067 0.005737 0.150000
vertex 0.000061 0.005229 0.150000
vertex 0.002152 0.002714 0.150000
endloop
endfacet
facet normal 0.000014 0.000000 1.000000
outer loop
vertex 0.006372 0.005448 0.150000
vertex 0.001185 0.005717 0.150000
vertex 0.000067 0.005737 0.150000
endloop
endfacet
facet normal 0.000026 0.000000 1.000000
outer loop
vertex 0.007611 0.004601 0.150000
vertex 0.006779 0.005280 0.150000
vertex 0.006372 0.005448 0.150000
endloop
endfacet
facet normal -0.000437 0.000000 1.000000
outer loop
vertex 0.007819 0.004268 0.150000
vertex 0.007737 0.004439 0.150000
vertex 0.007611 0.004601 0.150000
endloop
endfacet
facet normal 0.000000 0.000000 1.000000
outer loop
vertex 0.008005 0.002679 0.150000
vertex 0.008012 0.003238 0.150000
vertex 0.007819 0.004268 0.150000
endloop
endfacet
facet normal 0.000000 0.000000 1.000000
outer loop
vertex 0.007702 0.001753 0.150000
vertex 0.007910 0.002304 0.150000
vertex 0.008005 0.002679 0.150000
endloop
endfacet
facet normal 0.000000 0.000000 1.000000
outer loop
vertex 0.007277 0.001064 0.150000
vertex 0.007513 0.001364 0.150000
vertex 0.007702 0.001753 0.150000
endloop
endfacet
facet normal -0.001389 0.000000 0.999999
outer loop
vertex 0.006341 0.000222 0.150000
vertex 0.007075 0.000868 0.150000
vertex 0.007277 0.001064 0.150000
endloop
endfacet
facet normal 0.000000 0.000000 1.000000
outer loop
vertex 0.004570 0.000306 0.150000
vertex 0.005607 0.000012 0.150000
vertex 0.006341 0.000222 0.150000
endloop
endfacet
facet normal 0.000000 0.000000 1.000000
outer loop
vertex 0.003739 0.000581 0.150000
vertex 0.003978 0.000478 0.150000
vertex 0.004570 0.000306 0.150000
endloop
endfacet
facet normal 0.000548 0.000000 1.000000
outer loop
vertex 0.003388 0.000823 0.150000
vertex 0.003545 0.000696 0.150000
vertex 0.003739 0.000581 0.150000
endloop
endfacet
facet normal 0.000000 0.000000 1.000000
outer loop
vertex 0.003154 0.001113 0.150000
vertex 0.003260 0.000963 0.150000
vertex 0.003388 0.000823 0.150000
endloop
endfacet
facet normal 0.000816 0.000000 1.000000
outer loop
vertex 0.002884 0.001631 0.150000
vertex 0.003061 0.001275 0.150000
vertex 0.003154 0.001113 0.150000
endloop
endfacet
facet normal 0.000000 0.000000 1.000000
outer loop
vertex 0.002785 0.001825 0.150000
vertex 0.002884 0.001631 0.150000
vertex 0.003154 0.001113 0.150000
endloop
endfacet
facet normal -0.000162 0.000000 1.000000
outer loop
vertex 0.003154 0.001113 0.150000
vertex 0.003388 0.000823 0.150000
vertex 0.003739 0.000581 0.150000
endloop
endfacet
facet normal 0.000013 0.000000 1.000000
outer loop
vertex 0.003739 0.000581 0.150000
vertex 0.004570 0.000306 0.150000
vertex 0.006341 0.000222 0.150000
endloop
endfacet
facet normal 0.000152 0.000000 1.000000
outer loop
vertex 0.006341 0.000222 0.150000
vertex 0.007277 0.001064 0.150000
vertex 0.007702 0.001753 0.150000
endloop
endfacet
facet normal 0.000089 0.000000 1.000000
outer loop
vertex 0.007702 0.001753 0.150000
vertex 0.008005 0.002679 0.150000
vertex 0.007819 0.004268 0.150000
endloop
endfacet
facet normal -0.000124 0.000000 1.000000
outer loop
vertex 0.007819 0.004268 0.150000
vertex 0.007611 0.004601 0.150000
vertex 0.006372 0.005448 0.150000
endloop
endfacet
facet normal 0.000000 0.000000 1.000000
outer loop
vertex 0.006372 0.005448 0.150000
vertex 0.000067 0.005737 0.150000
vertex 0.002152 0.002714 0.150000
endloop
endfacet
facet normal 0.000009 0.000000 1.000000
outer loop
vertex 0.006372 0.005448 0.150000
vertex 0.002152 0.002714 0.150000
vertex 0.002351 0.002467 0.150000
endloop
endfacet
facet normal -0.000008 0.000000 1.000000
outer loop
vertex 0.007702 0.001753 0.150000
vertex 0.007819 0.004268 0.150000
vertex 0.006372 0.005448 0.150000
endloop
endfacet
facet normal -0.000007 0.000000 1.000000
outer loop
vertex 0.003739 0.000581 0.150000
vertex 0.006341 0.000222 0.150000
vertex 0.007702 0.001753 0.150000
endloop
endfacet
facet normal 0.000000 0.000000 1.000000
outer loop
vertex 0.002785 0.001825 0.150000
vertex 0.003154 0.001113 0.150000
vertex 0.003739 0.000581 0.150000
endloop
endfacet
facet normal 0.000000 0.000000 1.000000
outer loop
vertex 0.002667 0.002027 0.150000
vertex 0.002785 0.001825 0.150000
vertex 0.003739 0.000581 0.150000
endloop
endfacet
facet normal 0.000000 0.000000 1.000000
outer loop
vertex 0.003739 0.000581 0.150000
vertex 0.007702 0.001753 0.150000
vertex 0.006372 0.005448 0.150000
endloop
endfacet
facet normal 0.000010 0.000000 1.000000
outer loop
vertex 0.006372 0.005448 0.150000
vertex 0.002351 0.002467 0.150000
vertex 0.002524 0.002240 0.150000
endloop
endfacet
facet normal 0.001416 0.000000 0.999999
outer loop
vertex 0.002524 0.002240 0.150000
vertex 0.002667 0.002027 0.150000
vertex 0.003739 0.000581 0.150000
endloop
endfacet
facet normal -0.000006 0.000000 1.000000
outer loop
vertex 0.006372 0.005448 0.150000
vertex 0.002524 0.002240 0.150000
vertex 0.003739 0.000581 0.150000
endloop
endfacet
facet normal 0.807086 -0.590434 0.000000
outer loop
vertex 0.007363 0.001160 0.150000
vertex 0.007363 0.001160 0.000000
vertex 0.007513 0.001364 0.000000
endloop
endfacet
facet normal 0.807083 -0.590438 0.000000
outer loop
vertex 0.007363 0.001160 0.150000
vertex 0.007513 0.001364 0.000000
vertex 0.007513 0.001364 0.150000
endloop
endfacet
facet normal 0.963725 0.266898 0.000000
outer loop
vertex 0.007873 0.004074 0.000000
vertex 0.007819 0.004268 0.000000
vertex 0.007819 0.004268 0.150000
endloop
endfacet
facet normal 0.963721 0.266913 0.000000
outer loop
vertex 0.007873 0.004074 0.000000
vertex 0.007819 0.004268 0.150000
vertex 0.007873 0.004074 0.150000
endloop
endfacet
facet normal 0.450884 0.892582 0.000000
outer loop
vertex 0.006779 0.005280 0.000000
vertex 0.006580 0.005381 0.000000
vertex 0.006580 0.005381 0.150000
endloop
endfacet
facet normal 0.450879 0.892585 0.000000
outer loop
vertex 0.006779 0.005280 0.000000
vertex 0.006580 0.005381 0.150000
vertex 0.006779 0.005280 0.150000
endloop
endfacet
facet normal 0.884210 -0.467090 0.000000
outer loop
vertex 0.007513 0.001364 0.000000
vertex 0.007641 0.001608 0.000000
vertex 0.007641 0.001608 0.150000
endloop
endfacet
facet normal 0.884210 -0.467090 0.000000
outer loop
vertex 0.007513 0.001364 0.000000
vertex 0.007641 0.001608 0.150000
vertex 0.007513 0.001364 0.150000
endloop
endfacet
facet normal -0.630015 -0.776583 0.000000
outer loop
vertex 0.003388 0.000823 0.150000
vertex 0.003388 0.000823 0.000000
vertex 0.003545 0.000696 0.000000
endloop
endfacet
facet normal -0.630015 -0.776583 0.000000
outer loop
vertex 0.003388 0.000823 0.150000
vertex 0.003545 0.000696 0.000000
vertex 0.003545 0.000696 0.150000
endloop
endfacet
facet normal 0.877421 0.479722 0.000000
outer loop
vertex 0.007783 0.004355 0.150000
vertex 0.007783 0.004355 0.000000
vertex 0.007737 0.004439 0.000000
endloop
endfacet
facet normal 0.877421 0.479722 0.000000
outer loop
vertex 0.007783 0.004355 0.150000
vertex 0.007737 0.004439 0.000000
vertex 0.007737 0.004439 0.150000
endloop
endfacet
facet normal -0.995174 0.098129 0.000000
outer loop
vertex 0.000005 0.005659 0.150000
vertex 0.000005 0.005659 0.000000
vertex 0.000000 0.005613 0.000000
endloop
endfacet
facet normal -0.995174 0.098129 0.000000
outer loop
vertex 0.000005 0.005659 0.150000
vertex 0.000000 0.005613 0.000000
vertex 0.000000 0.005613 0.150000
endloop
endfacet
facet normal -0.808161 0.588962 0.000000
outer loop
vertex 0.000034 0.005721 0.150000
vertex 0.000034 0.005721 0.000000
vertex 0.000016 0.005696 0.000000
endloop
endfacet
facet normal -0.808161 0.588962 0.000000
outer loop
vertex 0.000034 0.005721 0.150000
vertex 0.000016 0.005696 0.000000
vertex 0.000016 0.005696 0.150000
endloop
endfacet
facet normal 0.922741 0.385422 0.000000
outer loop
vertex 0.007819 0.004268 0.150000
vertex 0.007819 0.004268 0.000000
vertex 0.007783 0.004355 0.000000
endloop
endfacet
facet normal 0.922746 0.385408 0.000000
outer loop
vertex 0.007819 0.004268 0.150000
vertex 0.007783 0.004355 0.000000
vertex 0.007783 0.004355 0.150000
endloop
endfacet
facet normal -0.078369 -0.996924 0.000000
outer loop
vertex 0.005607 0.000012 0.150000
vertex 0.005607 0.000012 0.000000
vertex 0.005758 0.000000 0.000000
endloop
endfacet
facet normal -0.078369 -0.996924 0.000000
outer loop
vertex 0.005607 0.000012 0.150000
vertex 0.005758 0.000000 0.000000
vertex 0.005758 0.000000 0.150000
endloop
endfacet
facet normal 0.996231 -0.086743 0.000000
outer loop
vertex 0.008028 0.002943 0.000000
vertex 0.008028 0.002943 0.150000
vertex 0.008005 0.002679 0.150000
endloop
endfacet
facet normal 0.996230 -0.086755 0.000000
outer loop
vertex 0.008028 0.002943 0.000000
vertex 0.008005 0.002679 0.150000
vertex 0.008005 0.002679 0.000000
endloop
endfacet
endsolid Exported from Blender-3.6.8
