solid Exported from Blender-3.6.8
facet normal -0.099679 -0.995020 0.000000
outer loop
vertex 0.001013 0.000009 0.150000
vertex 0.001013 0.000009 0.000000
vertex 0.001099 0.000000 0.000000
endloop
endfacet
facet normal -0.099679 -0.995020 0.000000
outer loop
vertex 0.001013 0.000009 0.150000
vertex 0.001099 0.000000 0.000000
vertex 0.001099 0.000000 0.150000
endloop
endfacet
facet normal -0.000245 1.000000 0.000000
outer loop
vertex 0.003591 0.004121 0.000000
vertex 0.000000 0.004120 0.000000
vertex 0.000000 0.004120 0.150000
endloop
endfacet
facet normal -0.000245 1.000000 0.000000
outer loop
vertex 0.003591 0.004121 0.000000
vertex 0.000000 0.004120 0.150000
vertex 0.003591 0.004121 0.150000
endloop
endfacet
facet normal -0.879446 -0.475998 0.000000
outer loop
vertex 0.000331 0.000765 0.150000
vertex 0.000331 0.000765 0.000000
vertex 0.000380 0.000675 0.000000
endloop
endfacet
facet normal -0.879446 -0.475999 0.000000
outer loop
vertex 0.000331 0.000765 0.150000
vertex 0.000380 0.000675 0.000000
vertex 0.000380 0.000675 0.150000
endloop
endfacet
facet normal -0.990887 -0.134699 0.000000
outer loop
vertex 0.000256 0.001071 0.150000
vertex 0.000256 0.001071 0.000000
vertex 0.000271 0.000963 0.000000
endloop
endfacet
facet normal -0.990887 -0.134699 0.000000
outer loop
vertex 0.000256 0.001071 0.150000
vertex 0.000271 0.000963 0.000000
vertex 0.000271 0.000963 0.150000
endloop
endfacet
facet normal -0.995070 -0.099177 0.000000
outer loop
vertex 0.000232 0.002687 0.000000
vertex 0.000252 0.002480 0.000000
vertex 0.000252 0.002480 0.150000
endloop
endfacet
facet normal -0.995070 -0.099177 0.000000
outer loop
vertex 0.000232 0.002687 0.000000
vertex 0.000252 0.002480 0.150000
vertex 0.000232 0.002687 0.150000
endloop
endfacet
facet normal -0.992299 -0.123865 0.000000
outer loop
vertex 0.000206 0.002895 0.000000
vertex 0.000232 0.002687 0.000000
vertex 0.000232 0.002687 0.150000
endloop
endfacet
facet normal -0.992299 -0.123866 0.000000
outer loop
vertex 0.000206 0.002895 0.000000
vertex 0.000232 0.002687 0.150000
vertex 0.000206 0.002895 0.150000
endloop
endfacet
facet normal -0.989699 -0.143163 0.000000
outer loop
vertex 0.000176 0.003101 0.000000
vertex 0.000206 0.002895 0.000000
vertex 0.000206 0.002895 0.150000
endloop
endfacet
facet normal -0.989699 -0.143163 0.000000
outer loop
vertex 0.000176 0.003101 0.000000
vertex 0.000206 0.002895 0.150000
vertex 0.000176 0.003101 0.150000
endloop
endfacet
facet normal -0.987413 -0.158163 0.000000
outer loop
vertex 0.000144 0.003300 0.000000
vertex 0.000176 0.003101 0.000000
vertex 0.000176 0.003101 0.150000
endloop
endfacet
facet normal -0.987413 -0.158163 0.000000
outer loop
vertex 0.000144 0.003300 0.000000
vertex 0.000176 0.003101 0.150000
vertex 0.000144 0.003300 0.150000
endloop
endfacet
facet normal -0.985533 -0.169486 0.000000
outer loop
vertex 0.000112 0.003488 0.000000
vertex 0.000144 0.003300 0.000000
vertex 0.000144 0.003300 0.150000
endloop
endfacet
facet normal -0.985533 -0.169486 0.000000
outer loop
vertex 0.000112 0.003488 0.000000
vertex 0.000144 0.003300 0.150000
vertex 0.000112 0.003488 0.150000
endloop
endfacet
facet normal 0.000000 0.000000 1.000000
outer loop
vertex 0.000028 0.003945 0.000000
vertex 0.000052 0.003815 0.000000
vertex 0.000080 0.003661 0.000000
endloop
endfacet
facet normal -0.984152 -0.177327 0.000000
outer loop
vertex 0.000080 0.003661 0.000000
vertex 0.000112 0.003488 0.000000
vertex 0.000112 0.003488 0.150000
endloop
endfacet
facet normal -0.984152 -0.177327 0.000000
outer loop
vertex 0.000080 0.003661 0.000000
vertex 0.000112 0.003488 0.150000
vertex 0.000080 0.003661 0.150000
endloop
endfacet
facet normal 0.000000 0.000000 1.000000
outer loop
vertex 0.000010 0.004049 0.000000
vertex 0.000028 0.003945 0.000000
vertex 0.000080 0.003661 0.000000
endloop
endfacet
facet normal -0.990067 -0.140593 0.000000
outer loop
vertex 0.000000 0.004120 0.150000
vertex 0.000000 0.004120 0.000000
vertex 0.000010 0.004049 0.000000
endloop
endfacet
facet normal -0.990067 -0.140593 0.000000
outer loop
vertex 0.000010 0.004049 0.150000
vertex 0.000000 0.004120 0.150000
vertex 0.000010 0.004049 0.000000
endloop
endfacet
facet normal -0.983996 -0.178189 0.000000
outer loop
vertex 0.000010 0.004049 0.000000
vertex 0.000080 0.003661 0.000000
vertex 0.000080 0.003661 0.150000
endloop
endfacet
facet normal -0.983416 -0.181363 -0.000008
outer loop
vertex 0.000010 0.004049 0.000000
vertex 0.000080 0.003661 0.150000
vertex 0.000052 0.003815 0.150000
endloop
endfacet
facet normal -0.985322 -0.170705 0.000000
outer loop
vertex 0.000028 0.003945 0.150000
vertex 0.000010 0.004049 0.150000
vertex 0.000010 0.004049 0.000000
endloop
endfacet
facet normal -0.983603 -0.180345 -0.000007
outer loop
vertex 0.000052 0.003815 0.150000
vertex 0.000028 0.003945 0.150000
vertex 0.000010 0.004049 0.000000
endloop
endfacet
facet normal 0.000000 0.000000 -1.000000
outer loop
vertex 0.001013 0.000009 0.000000
vertex 0.000937 0.000034 0.000000
vertex 0.000868 0.000074 0.000000
endloop
endfacet
facet normal 0.000000 0.000000 -1.000000
outer loop
vertex 0.000868 0.000074 0.000000
vertex 0.000806 0.000126 0.000000
vertex 0.000747 0.000189 0.000000
endloop
endfacet
facet normal 0.000000 0.000000 -1.000000
outer loop
vertex 0.000747 0.000189 0.000000
vertex 0.000690 0.000260 0.000000
vertex 0.000575 0.000420 0.000000
endloop
endfacet
facet normal 0.000000 0.000000 -1.000000
outer loop
vertex 0.000512 0.000504 0.000000
vertex 0.000444 0.000589 0.000000
vertex 0.000380 0.000675 0.000000
endloop
endfacet
facet normal 0.000000 0.000000 -1.000000
outer loop
vertex 0.000747 0.000189 0.000000
vertex 0.000575 0.000420 0.000000
vertex 0.000512 0.000504 0.000000
endloop
endfacet
facet normal 0.000000 0.000000 -1.000000
outer loop
vertex 0.001013 0.000009 0.000000
vertex 0.000868 0.000074 0.000000
vertex 0.000747 0.000189 0.000000
endloop
endfacet
facet normal 0.000000 0.000000 -1.000000
outer loop
vertex 0.001196 0.000010 0.000000
vertex 0.001099 0.000000 0.000000
vertex 0.001013 0.000009 0.000000
endloop
endfacet
facet normal 0.000000 0.000000 -1.000000
outer loop
vertex 0.001538 0.000136 0.000000
vertex 0.001307 0.000041 0.000000
vertex 0.001196 0.000010 0.000000
endloop
endfacet
facet normal 0.000000 0.000000 -1.000000
outer loop
vertex 0.001956 0.000411 0.000000
vertex 0.001754 0.000258 0.000000
vertex 0.001538 0.000136 0.000000
endloop
endfacet
facet normal 0.000000 0.000000 -1.000000
outer loop
vertex 0.002322 0.000827 0.000000
vertex 0.002145 0.000600 0.000000
vertex 0.001956 0.000411 0.000000
endloop
endfacet
facet normal 0.000000 0.000000 -1.000000
outer loop
vertex 0.003863 0.003503 0.000000
vertex 0.003834 0.003441 0.000000
vertex 0.003112 0.002364 0.000000
endloop
endfacet
facet normal 0.000000 0.000000 -1.000000
outer loop
vertex 0.003112 0.002364 0.000000
vertex 0.002322 0.000827 0.000000
vertex 0.001956 0.000411 0.000000
endloop
endfacet
facet normal 0.000000 0.000000 -1.000000
outer loop
vertex 0.001956 0.000411 0.000000
vertex 0.001538 0.000136 0.000000
vertex 0.001196 0.000010 0.000000
endloop
endfacet
facet normal 0.000000 0.000000 -1.000000
outer loop
vertex 0.001196 0.000010 0.000000
vertex 0.001013 0.000009 0.000000
vertex 0.000747 0.000189 0.000000
endloop
endfacet
facet normal 0.000000 0.000000 -1.000000
outer loop
vertex 0.000512 0.000504 0.000000
vertex 0.000380 0.000675 0.000000
vertex 0.000331 0.000765 0.000000
endloop
endfacet
facet normal 0.000000 0.000000 -1.000000
outer loop
vertex 0.001196 0.000010 0.000000
vertex 0.000747 0.000189 0.000000
vertex 0.000512 0.000504 0.000000
endloop
endfacet
facet normal 0.000000 0.000000 -1.000000
outer loop
vertex 0.003112 0.002364 0.000000
vertex 0.001956 0.000411 0.000000
vertex 0.001196 0.000010 0.000000
endloop
endfacet
facet normal 0.000000 0.000000 -1.000000
outer loop
vertex 0.003880 0.003562 0.000000
vertex 0.003863 0.003503 0.000000
vertex 0.003112 0.002364 0.000000
endloop
endfacet
facet normal 0.000000 0.000000 -1.000000
outer loop
vertex 0.003877 0.003678 0.000000
vertex 0.003885 0.003620 0.000000
vertex 0.003880 0.003562 0.000000
endloop
endfacet
facet normal 0.000000 0.000000 -1.000000
outer loop
vertex 0.003830 0.003972 0.000000
vertex 0.003840 0.003932 0.000000
vertex 0.003865 0.003735 0.000000
endloop
endfacet
facet normal 0.000000 0.000000 -1.000000
outer loop
vertex 0.003865 0.003735 0.000000
vertex 0.003877 0.003678 0.000000
vertex 0.003880 0.003562 0.000000
endloop
endfacet
facet normal 0.000000 0.000000 -1.000000
outer loop
vertex 0.003880 0.003562 0.000000
vertex 0.003112 0.002364 0.000000
vertex 0.001196 0.000010 0.000000
endloop
endfacet
facet normal 0.000000 0.000000 -1.000000
outer loop
vertex 0.001196 0.000010 0.000000
vertex 0.000512 0.000504 0.000000
vertex 0.000331 0.000765 0.000000
endloop
endfacet
facet normal 0.000000 0.000000 -1.000000
outer loop
vertex 0.000331 0.000765 0.000000
vertex 0.000295 0.000861 0.000000
vertex 0.000271 0.000963 0.000000
endloop
endfacet
facet normal 0.000000 0.000000 -1.000000
outer loop
vertex 0.000271 0.000963 0.000000
vertex 0.000256 0.001071 0.000000
vertex 0.000249 0.001188 0.000000
endloop
endfacet
facet normal 0.000000 0.000000 -1.000000
outer loop
vertex 0.000249 0.001188 0.000000
vertex 0.000248 0.001312 0.000000
vertex 0.000271 0.002089 0.000000
endloop
endfacet
facet normal 0.000000 0.000000 -1.000000
outer loop
vertex 0.000271 0.000963 0.000000
vertex 0.000249 0.001188 0.000000
vertex 0.000271 0.002089 0.000000
endloop
endfacet
facet normal 0.000000 0.000000 -1.000000
outer loop
vertex 0.001196 0.000010 0.000000
vertex 0.000331 0.000765 0.000000
vertex 0.000271 0.000963 0.000000
endloop
endfacet
facet normal 0.000000 0.000000 -1.000000
outer loop
vertex 0.003865 0.003735 0.000000
vertex 0.003880 0.003562 0.000000
vertex 0.001196 0.000010 0.000000
endloop
endfacet
facet normal 0.000000 0.000000 -1.000000
outer loop
vertex 0.003814 0.004008 0.000000
vertex 0.003830 0.003972 0.000000
vertex 0.003865 0.003735 0.000000
endloop
endfacet
facet normal 0.000000 0.000000 -1.000000
outer loop
vertex 0.003760 0.004068 0.000000
vertex 0.003792 0.004040 0.000000
vertex 0.003814 0.004008 0.000000
endloop
endfacet
facet normal 0.000000 0.000000 -1.000000
outer loop
vertex 0.003661 0.004108 0.000000
vertex 0.003717 0.004091 0.000000
vertex 0.003760 0.004068 0.000000
endloop
endfacet
facet normal 0.000000 0.000000 -1.000000
outer loop
vertex 0.000000 0.004120 0.000000
vertex 0.003591 0.004121 0.000000
vertex 0.003661 0.004108 0.000000
endloop
endfacet
facet normal 0.000000 0.000000 -1.000000
outer loop
vertex 0.000010 0.004049 0.000000
vertex 0.000000 0.004120 0.000000
vertex 0.000000 0.004120 0.000000
endloop
endfacet
facet normal 0.000000 0.000000 -1.000000
outer loop
vertex 0.000052 0.003815 0.000000
vertex 0.000028 0.003945 0.000000
vertex 0.000010 0.004049 0.000000
endloop
endfacet
facet normal 0.000000 0.000000 -1.000000
outer loop
vertex 0.000080 0.003661 0.000000
vertex 0.000052 0.003815 0.000000
vertex 0.000010 0.004049 0.000000
endloop
endfacet
facet normal 0.000000 0.000000 -1.000000
outer loop
vertex 0.000010 0.004049 0.000000
vertex 0.000000 0.004120 0.000000
vertex 0.003661 0.004108 0.000000
endloop
endfacet
facet normal 0.000000 0.000000 -1.000000
outer loop
vertex 0.003661 0.004108 0.000000
vertex 0.003760 0.004068 0.000000
vertex 0.003814 0.004008 0.000000
endloop
endfacet
facet normal 0.000000 0.000000 -1.000000
outer loop
vertex 0.003814 0.004008 0.000000
vertex 0.003865 0.003735 0.000000
vertex 0.001196 0.000010 0.000000
endloop
endfacet
facet normal 0.000000 0.000000 -1.000000
outer loop
vertex 0.001196 0.000010 0.000000
vertex 0.000271 0.000963 0.000000
vertex 0.000271 0.002089 0.000000
endloop
endfacet
facet normal 0.000000 0.000000 -1.000000
outer loop
vertex 0.001196 0.000010 0.000000
vertex 0.000271 0.002089 0.000000
vertex 0.000266 0.002280 0.000000
endloop
endfacet
facet normal 0.000000 0.000000 -1.000000
outer loop
vertex 0.003661 0.004108 0.000000
vertex 0.003814 0.004008 0.000000
vertex 0.001196 0.000010 0.000000
endloop
endfacet
facet normal 0.000000 0.000000 -1.000000
outer loop
vertex 0.000080 0.003661 0.000000
vertex 0.000010 0.004049 0.000000
vertex 0.003661 0.004108 0.000000
endloop
endfacet
facet normal 0.000000 0.000000 -1.000000
outer loop
vertex 0.000112 0.003488 0.000000
vertex 0.000080 0.003661 0.000000
vertex 0.003661 0.004108 0.000000
endloop
endfacet
facet normal 0.000000 0.000000 -1.000000
outer loop
vertex 0.003661 0.004108 0.000000
vertex 0.001196 0.000010 0.000000
vertex 0.000266 0.002280 0.000000
endloop
endfacet
facet normal 0.000000 0.000000 -1.000000
outer loop
vertex 0.003661 0.004108 0.000000
vertex 0.000266 0.002280 0.000000
vertex 0.000252 0.002480 0.000000
endloop
endfacet
facet normal 0.000000 0.000000 -1.000000
outer loop
vertex 0.000144 0.003300 0.000000
vertex 0.000112 0.003488 0.000000
vertex 0.003661 0.004108 0.000000
endloop
endfacet
facet normal 0.000000 0.000000 -1.000000
outer loop
vertex 0.000176 0.003101 0.000000
vertex 0.000144 0.003300 0.000000
vertex 0.003661 0.004108 0.000000
endloop
endfacet
facet normal 0.000000 0.000000 -1.000000
outer loop
vertex 0.003661 0.004108 0.000000
vertex 0.000252 0.002480 0.000000
vertex 0.000232 0.002687 0.000000
endloop
endfacet
facet normal 0.000000 0.000000 -1.000000
outer loop
vertex 0.000206 0.002895 0.000000
vertex 0.000176 0.003101 0.000000
vertex 0.003661 0.004108 0.000000
endloop
endfacet
facet normal 0.000000 0.000000 -1.000000
outer loop
vertex 0.000232 0.002687 0.000000
vertex 0.000206 0.002895 0.000000
vertex 0.003661 0.004108 0.000000
endloop
endfacet
facet normal -0.972535 -0.232756 0.000000
outer loop
vertex 0.000271 0.000963 0.150000
vertex 0.000271 0.000963 0.000000
vertex 0.000295 0.000861 0.000000
endloop
endfacet
facet normal -0.972535 -0.232756 0.000000
outer loop
vertex 0.000271 0.000963 0.150000
vertex 0.000295 0.000861 0.000000
vertex 0.000295 0.000861 0.150000
endloop
endfacet
facet normal -0.802210 -0.597043 0.000000
outer loop
vertex 0.000444 0.000589 0.150000
vertex 0.000380 0.000675 0.150000
vertex 0.000380 0.000675 0.000000
endloop
endfacet
facet normal 0.000000 0.000000 -1.000000
outer loop
vertex 0.000444 0.000589 0.000000
vertex 0.000512 0.000504 0.000000
vertex 0.000575 0.000420 0.000000
endloop
endfacet
facet normal -0.802209 -0.597043 0.000000
outer loop
vertex 0.000444 0.000589 0.150000
vertex 0.000380 0.000675 0.000000
vertex 0.000444 0.000589 0.000000
endloop
endfacet
facet normal -0.776954 -0.629558 0.000000
outer loop
vertex 0.000512 0.000504 0.150000
vertex 0.000444 0.000589 0.150000
vertex 0.000444 0.000589 0.000000
endloop
endfacet
facet normal 0.000000 0.000000 -1.000000
outer loop
vertex 0.000444 0.000589 0.000000
vertex 0.000575 0.000420 0.000000
vertex 0.000690 0.000260 0.000000
endloop
endfacet
facet normal -0.782701 -0.622398 0.000000
outer loop
vertex 0.000690 0.000260 0.000000
vertex 0.000747 0.000189 0.000000
vertex 0.000747 0.000189 0.150000
endloop
endfacet
facet normal -0.782701 -0.622398 0.000000
outer loop
vertex 0.000690 0.000260 0.000000
vertex 0.000747 0.000189 0.150000
vertex 0.000690 0.000260 0.150000
endloop
endfacet
facet normal -0.799868 -0.600176 0.000027
outer loop
vertex 0.000512 0.000504 0.150000
vertex 0.000444 0.000589 0.000000
vertex 0.000690 0.000260 0.000000
endloop
endfacet
facet normal -0.810527 -0.585702 0.000000
outer loop
vertex 0.000690 0.000260 0.000000
vertex 0.000690 0.000260 0.150000
vertex 0.000575 0.000420 0.150000
endloop
endfacet
facet normal -0.802783 -0.596272 0.000017
outer loop
vertex 0.000690 0.000260 0.000000
vertex 0.000575 0.000420 0.150000
vertex 0.000512 0.000504 0.150000
endloop
endfacet
facet normal 0.177493 0.984122 0.000000
outer loop
vertex 0.003661 0.004108 0.150000
vertex 0.003661 0.004108 0.000000
vertex 0.003591 0.004121 0.000000
endloop
endfacet
facet normal 0.177493 0.984122 0.000000
outer loop
vertex 0.003661 0.004108 0.150000
vertex 0.003591 0.004121 0.000000
vertex 0.003591 0.004121 0.150000
endloop
endfacet
facet normal 0.267018 -0.963692 0.000000
outer loop
vertex 0.001196 0.000010 0.150000
vertex 0.001196 0.000010 0.000000
vertex 0.001307 0.000041 0.000000
endloop
endfacet
facet normal 0.267018 -0.963692 0.000000
outer loop
vertex 0.001196 0.000010 0.150000
vertex 0.001307 0.000041 0.000000
vertex 0.001307 0.000041 0.150000
endloop
endfacet
facet normal 0.491807 -0.870704 0.000000
outer loop
vertex 0.001538 0.000136 0.000000
vertex 0.001754 0.000258 0.000000
vertex 0.001754 0.000258 0.150000
endloop
endfacet
facet normal 0.491807 -0.870704 0.000000
outer loop
vertex 0.001538 0.000136 0.000000
vertex 0.001754 0.000258 0.150000
vertex 0.001538 0.000136 0.150000
endloop
endfacet
facet normal 0.000384 0.000000 1.000000
outer loop
vertex 0.003112 0.002364 0.150000
vertex 0.003834 0.003441 0.150000
vertex 0.003863 0.003503 0.150000
endloop
endfacet
facet normal -0.002607 0.000000 0.999997
outer loop
vertex 0.003863 0.003503 0.150000
vertex 0.003880 0.003562 0.150000
vertex 0.003885 0.003620 0.150000
endloop
endfacet
facet normal 0.007689 0.000000 0.999970
outer loop
vertex 0.003885 0.003620 0.150000
vertex 0.003877 0.003678 0.150000
vertex 0.003865 0.003735 0.150000
endloop
endfacet
facet normal -0.000935 0.000000 1.000000
outer loop
vertex 0.003865 0.003735 0.150000
vertex 0.003840 0.003932 0.150000
vertex 0.003830 0.003972 0.150000
endloop
endfacet
facet normal 0.002778 0.000000 0.999996
outer loop
vertex 0.003830 0.003972 0.150000
vertex 0.003814 0.004008 0.150000
vertex 0.003792 0.004040 0.150000
endloop
endfacet
facet normal 0.000000 0.000000 1.000000
outer loop
vertex 0.003792 0.004040 0.150000
vertex 0.003760 0.004068 0.150000
vertex 0.003717 0.004091 0.150000
endloop
endfacet
facet normal -0.000826 0.000000 1.000000
outer loop
vertex 0.003717 0.004091 0.150000
vertex 0.003661 0.004108 0.150000
vertex 0.003591 0.004121 0.150000
endloop
endfacet
facet normal -0.000021 0.000000 1.000000
outer loop
vertex 0.003591 0.004121 0.150000
vertex 0.000000 0.004120 0.150000
vertex 0.000000 0.004120 0.150000
endloop
endfacet
facet normal 0.000000 0.000000 1.000000
outer loop
vertex 0.000000 0.004120 0.150000
vertex 0.000010 0.004049 0.150000
vertex 0.000028 0.003945 0.150000
endloop
endfacet
facet normal 0.000000 0.000000 1.000000
outer loop
vertex 0.000028 0.003945 0.150000
vertex 0.000052 0.003815 0.150000
vertex 0.000080 0.003661 0.150000
endloop
endfacet
facet normal 0.006224 0.000000 0.999981
outer loop
vertex 0.000000 0.004120 0.150000
vertex 0.000028 0.003945 0.150000
vertex 0.000080 0.003661 0.150000
endloop
endfacet
facet normal 0.000002 0.000000 1.000000
outer loop
vertex 0.003717 0.004091 0.150000
vertex 0.003591 0.004121 0.150000
vertex 0.000000 0.004120 0.150000
endloop
endfacet
facet normal -0.000573 0.000000 1.000000
outer loop
vertex 0.003830 0.003972 0.150000
vertex 0.003792 0.004040 0.150000
vertex 0.003717 0.004091 0.150000
endloop
endfacet
facet normal 0.000746 0.000000 1.000000
outer loop
vertex 0.003863 0.003503 0.150000
vertex 0.003885 0.003620 0.150000
vertex 0.003865 0.003735 0.150000
endloop
endfacet
facet normal 0.000000 0.000000 1.000000
outer loop
vertex 0.003865 0.003735 0.150000
vertex 0.003830 0.003972 0.150000
vertex 0.003717 0.004091 0.150000
endloop
endfacet
facet normal 0.000000 0.000000 1.000000
outer loop
vertex 0.003717 0.004091 0.150000
vertex 0.000000 0.004120 0.150000
vertex 0.000080 0.003661 0.150000
endloop
endfacet
facet normal -0.000006 0.000000 1.000000
outer loop
vertex 0.003717 0.004091 0.150000
vertex 0.000080 0.003661 0.150000
vertex 0.000112 0.003488 0.150000
endloop
endfacet
facet normal -0.000208 0.000000 1.000000
outer loop
vertex 0.003863 0.003503 0.150000
vertex 0.003865 0.003735 0.150000
vertex 0.003717 0.004091 0.150000
endloop
endfacet
facet normal 0.000000 0.000000 1.000000
outer loop
vertex 0.002145 0.000600 0.150000
vertex 0.002322 0.000827 0.150000
vertex 0.003112 0.002364 0.150000
endloop
endfacet
facet normal 0.000048 0.000000 1.000000
outer loop
vertex 0.003112 0.002364 0.150000
vertex 0.003863 0.003503 0.150000
vertex 0.003717 0.004091 0.150000
endloop
endfacet
facet normal 0.000005 0.000000 1.000000
outer loop
vertex 0.003717 0.004091 0.150000
vertex 0.000112 0.003488 0.150000
vertex 0.000144 0.003300 0.150000
endloop
endfacet
facet normal -0.000010 0.000000 1.000000
outer loop
vertex 0.003717 0.004091 0.150000
vertex 0.000144 0.003300 0.150000
vertex 0.000176 0.003101 0.150000
endloop
endfacet
facet normal 0.000000 0.000000 1.000000
outer loop
vertex 0.002145 0.000600 0.150000
vertex 0.003112 0.002364 0.150000
vertex 0.003717 0.004091 0.150000
endloop
endfacet
facet normal 0.000397 0.000000 1.000000
outer loop
vertex 0.001754 0.000258 0.150000
vertex 0.001956 0.000411 0.150000
vertex 0.002145 0.000600 0.150000
endloop
endfacet
facet normal 0.000000 0.000000 1.000000
outer loop
vertex 0.001307 0.000041 0.150000
vertex 0.001538 0.000136 0.150000
vertex 0.001754 0.000258 0.150000
endloop
endfacet
facet normal 0.000000 0.000000 1.000000
outer loop
vertex 0.001099 0.000000 0.150000
vertex 0.001196 0.000010 0.150000
vertex 0.001307 0.000041 0.150000
endloop
endfacet
facet normal 0.000150 0.000000 1.000000
outer loop
vertex 0.000937 0.000034 0.150000
vertex 0.001013 0.000009 0.150000
vertex 0.001099 0.000000 0.150000
endloop
endfacet
facet normal 0.001670 0.000000 0.999999
outer loop
vertex 0.000806 0.000126 0.150000
vertex 0.000868 0.000074 0.150000
vertex 0.000937 0.000034 0.150000
endloop
endfacet
facet normal 0.000000 0.000000 1.000000
outer loop
vertex 0.000690 0.000260 0.150000
vertex 0.000747 0.000189 0.150000
vertex 0.000806 0.000126 0.150000
endloop
endfacet
facet normal 0.001240 0.000000 0.999999
outer loop
vertex 0.000575 0.000420 0.150000
vertex 0.000690 0.000260 0.150000
vertex 0.000806 0.000126 0.150000
endloop
endfacet
facet normal -0.000260 0.000000 1.000000
outer loop
vertex 0.000806 0.000126 0.150000
vertex 0.000937 0.000034 0.150000
vertex 0.001099 0.000000 0.150000
endloop
endfacet
facet normal -0.000268 0.000000 1.000000
outer loop
vertex 0.001099 0.000000 0.150000
vertex 0.001307 0.000041 0.150000
vertex 0.001754 0.000258 0.150000
endloop
endfacet
facet normal 0.000000 0.000000 1.000000
outer loop
vertex 0.001754 0.000258 0.150000
vertex 0.002145 0.000600 0.150000
vertex 0.003717 0.004091 0.150000
endloop
endfacet
facet normal -0.000010 0.000000 1.000000
outer loop
vertex 0.003717 0.004091 0.150000
vertex 0.000176 0.003101 0.150000
vertex 0.000206 0.002895 0.150000
endloop
endfacet
facet normal 0.000029 0.000000 1.000000
outer loop
vertex 0.003717 0.004091 0.150000
vertex 0.000206 0.002895 0.150000
vertex 0.000232 0.002687 0.150000
endloop
endfacet
facet normal 0.000000 0.000000 1.000000
outer loop
vertex 0.001099 0.000000 0.150000
vertex 0.001754 0.000258 0.150000
vertex 0.003717 0.004091 0.150000
endloop
endfacet
facet normal 0.000000 0.000000 1.000000
outer loop
vertex 0.000575 0.000420 0.150000
vertex 0.000806 0.000126 0.150000
vertex 0.001099 0.000000 0.150000
endloop
endfacet
facet normal 0.000000 0.000000 1.000000
outer loop
vertex 0.000380 0.000675 0.150000
vertex 0.000444 0.000589 0.150000
vertex 0.000512 0.000504 0.150000
endloop
endfacet
facet normal -0.000816 0.000000 1.000000
outer loop
vertex 0.000512 0.000504 0.150000
vertex 0.000575 0.000420 0.150000
vertex 0.001099 0.000000 0.150000
endloop
endfacet
facet normal -0.000003 0.000000 1.000000
outer loop
vertex 0.001099 0.000000 0.150000
vertex 0.003717 0.004091 0.150000
vertex 0.000232 0.002687 0.150000
endloop
endfacet
facet normal 0.000118 0.000000 1.000000
outer loop
vertex 0.001099 0.000000 0.150000
vertex 0.000232 0.002687 0.150000
vertex 0.000252 0.002480 0.150000
endloop
endfacet
facet normal 0.000439 0.000000 1.000000
outer loop
vertex 0.000380 0.000675 0.150000
vertex 0.000512 0.000504 0.150000
vertex 0.001099 0.000000 0.150000
endloop
endfacet
facet normal -0.001251 0.000000 0.999999
outer loop
vertex 0.000295 0.000861 0.150000
vertex 0.000331 0.000765 0.150000
vertex 0.000380 0.000675 0.150000
endloop
endfacet
facet normal 0.000000 0.000000 1.000000
outer loop
vertex 0.000256 0.001071 0.150000
vertex 0.000271 0.000963 0.150000
vertex 0.000295 0.000861 0.150000
endloop
endfacet
facet normal -0.004806 0.000000 0.999988
outer loop
vertex 0.000248 0.001312 0.150000
vertex 0.000249 0.001188 0.150000
vertex 0.000256 0.001071 0.150000
endloop
endfacet
facet normal 0.001261 0.000000 0.999999
outer loop
vertex 0.000271 0.002089 0.150000
vertex 0.000248 0.001312 0.150000
vertex 0.000256 0.001071 0.150000
endloop
endfacet
facet normal 0.000345 0.000000 1.000000
outer loop
vertex 0.000256 0.001071 0.150000
vertex 0.000295 0.000861 0.150000
vertex 0.000380 0.000675 0.150000
endloop
endfacet
facet normal 0.000000 0.000000 1.000000
outer loop
vertex 0.000380 0.000675 0.150000
vertex 0.001099 0.000000 0.150000
vertex 0.000252 0.002480 0.150000
endloop
endfacet
facet normal 0.002979 0.000000 0.999996
outer loop
vertex 0.000380 0.000675 0.150000
vertex 0.000252 0.002480 0.150000
vertex 0.000266 0.002280 0.150000
endloop
endfacet
facet normal -0.000110 0.000000 1.000000
outer loop
vertex 0.000271 0.002089 0.150000
vertex 0.000256 0.001071 0.150000
vertex 0.000380 0.000675 0.150000
endloop
endfacet
facet normal 0.000000 0.000000 1.000000
outer loop
vertex 0.000266 0.002280 0.150000
vertex 0.000271 0.002089 0.150000
vertex 0.000380 0.000675 0.150000
endloop
endfacet
facet normal 0.960846 -0.277084 0.000000
outer loop
vertex 0.003863 0.003503 0.150000
vertex 0.003863 0.003503 0.000000
vertex 0.003880 0.003562 0.000000
endloop
endfacet
facet normal 0.960842 -0.277096 0.000000
outer loop
vertex 0.003863 0.003503 0.150000
vertex 0.003880 0.003562 0.000000
vertex 0.003880 0.003562 0.150000
endloop
endfacet
facet normal 0.830313 -0.557298 0.000000
outer loop
vertex 0.003112 0.002364 0.000000
vertex 0.003834 0.003441 0.000000
vertex 0.003834 0.003441 0.150000
endloop
endfacet
facet normal 0.830312 -0.557298 0.000000
outer loop
vertex 0.003112 0.002364 0.000000
vertex 0.003834 0.003441 0.150000
vertex 0.003112 0.002364 0.150000
endloop
endfacet
facet normal 0.653529 0.756901 0.000000
outer loop
vertex 0.003792 0.004040 0.150000
vertex 0.003792 0.004040 0.000000
vertex 0.003760 0.004068 0.000000
endloop
endfacet
facet normal 0.653538 0.756893 0.000000
outer loop
vertex 0.003792 0.004040 0.150000
vertex 0.003760 0.004068 0.000000
vertex 0.003760 0.004068 0.150000
endloop
endfacet
facet normal 0.705276 -0.708933 0.000000
outer loop
vertex 0.001956 0.000411 0.150000
vertex 0.001956 0.000411 0.000000
vertex 0.002145 0.000600 0.000000
endloop
endfacet
facet normal 0.705276 -0.708933 0.000000
outer loop
vertex 0.001956 0.000411 0.150000
vertex 0.002145 0.000600 0.000000
vertex 0.002145 0.000600 0.150000
endloop
endfacet
facet normal 0.920394 0.390991 0.000000
outer loop
vertex 0.003830 0.003972 0.150000
vertex 0.003830 0.003972 0.000000
vertex 0.003814 0.004008 0.000000
endloop
endfacet
facet normal 0.920394 0.390991 0.000000
outer loop
vertex 0.003830 0.003972 0.150000
vertex 0.003814 0.004008 0.000000
vertex 0.003814 0.004008 0.150000
endloop
endfacet
facet normal -0.936788 -0.349899 0.000000
outer loop
vertex 0.000295 0.000861 0.150000
vertex 0.000295 0.000861 0.000000
vertex 0.000331 0.000765 0.000000
endloop
endfacet
facet normal -0.936788 -0.349898 0.000000
outer loop
vertex 0.000295 0.000861 0.150000
vertex 0.000331 0.000765 0.000000
vertex 0.000331 0.000765 0.150000
endloop
endfacet
facet normal 0.908903 -0.417008 0.000000
outer loop
vertex 0.003834 0.003441 0.150000
vertex 0.003834 0.003441 0.000000
vertex 0.003863 0.003503 0.000000
endloop
endfacet
facet normal 0.908894 -0.417027 0.000000
outer loop
vertex 0.003834 0.003441 0.150000
vertex 0.003863 0.003503 0.000000
vertex 0.003863 0.003503 0.150000
endloop
endfacet
facet normal 0.304690 0.952452 0.000000
outer loop
vertex 0.003717 0.004091 0.150000
vertex 0.003717 0.004091 0.000000
vertex 0.003661 0.004108 0.000000
endloop
endfacet
facet normal 0.304694 0.952451 0.000000
outer loop
vertex 0.003717 0.004091 0.150000
vertex 0.003661 0.004108 0.000000
vertex 0.003661 0.004108 0.150000
endloop
endfacet
facet normal 0.602867 -0.797841 0.000000
outer loop
vertex 0.001754 0.000258 0.000000
vertex 0.001956 0.000411 0.000000
vertex 0.001956 0.000411 0.150000
endloop
endfacet
facet normal 0.602868 -0.797841 0.000000
outer loop
vertex 0.001754 0.000258 0.000000
vertex 0.001956 0.000411 0.150000
vertex 0.001754 0.000258 0.150000
endloop
endfacet
facet normal 0.815879 0.578222 0.000000
outer loop
vertex 0.003814 0.004008 0.150000
vertex 0.003814 0.004008 0.000000
vertex 0.003792 0.004040 0.000000
endloop
endfacet
facet normal 0.815870 0.578235 0.000000
outer loop
vertex 0.003814 0.004008 0.150000
vertex 0.003792 0.004040 0.000000
vertex 0.003792 0.004040 0.150000
endloop
endfacet
facet normal 0.970309 0.241870 0.000000
outer loop
vertex 0.003840 0.003932 0.150000
vertex 0.003840 0.003932 0.000000
vertex 0.003830 0.003972 0.000000
endloop
endfacet
facet normal 0.970309 0.241870 0.000000
outer loop
vertex 0.003840 0.003932 0.150000
vertex 0.003830 0.003972 0.000000
vertex 0.003830 0.003972 0.150000
endloop
endfacet
facet normal -0.642175 -0.766558 0.000000
outer loop
vertex 0.000806 0.000126 0.150000
vertex 0.000806 0.000126 0.000000
vertex 0.000868 0.000074 0.000000
endloop
endfacet
facet normal -0.642176 -0.766557 0.000000
outer loop
vertex 0.000806 0.000126 0.150000
vertex 0.000868 0.000074 0.000000
vertex 0.000868 0.000074 0.150000
endloop
endfacet
facet normal 0.000000 0.000000 -1.000000
outer loop
vertex 0.003877 0.003678 0.000000
vertex 0.003865 0.003735 0.000000
vertex 0.003840 0.003932 0.000000
endloop
endfacet
facet normal 0.992097 0.125472 0.000000
outer loop
vertex 0.003840 0.003932 0.000000
vertex 0.003840 0.003932 0.150000
vertex 0.003865 0.003735 0.150000
endloop
endfacet
facet normal 0.990572 0.136991 0.000000
outer loop
vertex 0.003877 0.003678 0.150000
vertex 0.003885 0.003620 0.150000
vertex 0.003885 0.003620 0.000000
endloop
endfacet
facet normal 0.978753 0.205043 0.000107
outer loop
vertex 0.003840 0.003932 0.000000
vertex 0.003865 0.003735 0.150000
vertex 0.003877 0.003678 0.150000
endloop
endfacet
facet normal 0.990574 0.136978 0.000000
outer loop
vertex 0.003877 0.003678 0.150000
vertex 0.003885 0.003620 0.000000
vertex 0.003877 0.003678 0.000000
endloop
endfacet
facet normal 0.989627 0.143661 0.000000
outer loop
vertex 0.003877 0.003678 0.000000
vertex 0.003840 0.003932 0.000000
vertex 0.003877 0.003678 0.150000
endloop
endfacet
facet normal -0.503485 -0.864004 0.000000
outer loop
vertex 0.000868 0.000074 0.150000
vertex 0.000868 0.000074 0.000000
vertex 0.000937 0.000034 0.000000
endloop
endfacet
facet normal -0.503484 -0.864005 0.000000
outer loop
vertex 0.000868 0.000074 0.150000
vertex 0.000937 0.000034 0.000000
vertex 0.000937 0.000034 0.150000
endloop
endfacet
facet normal -1.000000 0.000000 0.000000
outer loop
vertex 0.000000 0.004120 0.150000
vertex 0.000000 0.004120 0.000000
vertex 0.000000 0.004120 0.000000
endloop
endfacet
facet normal -1.000000 0.000000 0.000000
outer loop
vertex 0.000000 0.004120 0.150000
vertex 0.000000 0.004120 0.000000
vertex 0.000000 0.004120 0.150000
endloop
endfacet
facet normal 0.469017 0.883189 0.000000
outer loop
vertex 0.003760 0.004068 0.150000
vertex 0.003760 0.004068 0.000000
vertex 0.003717 0.004091 0.000000
endloop
endfacet
facet normal 0.469017 0.883189 0.000000
outer loop
vertex 0.003760 0.004068 0.150000
vertex 0.003717 0.004091 0.000000
vertex 0.003717 0.004091 0.150000
endloop
endfacet
facet normal 0.889313 -0.457299 0.000000
outer loop
vertex 0.002322 0.000827 0.150000
vertex 0.002322 0.000827 0.000000
vertex 0.003112 0.002364 0.000000
endloop
endfacet
facet normal 0.889313 -0.457299 0.000000
outer loop
vertex 0.002322 0.000827 0.150000
vertex 0.003112 0.002364 0.000000
vertex 0.003112 0.002364 0.150000
endloop
endfacet
facet normal -0.731291 -0.682066 0.000000
outer loop
vertex 0.000747 0.000189 0.150000
vertex 0.000747 0.000189 0.000000
vertex 0.000806 0.000126 0.000000
endloop
endfacet
facet normal -0.731290 -0.682067 0.000000
outer loop
vertex 0.000747 0.000189 0.150000
vertex 0.000806 0.000126 0.000000
vertex 0.000806 0.000126 0.150000
endloop
endfacet
facet normal -0.998207 -0.059849 0.000000
outer loop
vertex 0.000249 0.001188 0.000000
vertex 0.000256 0.001071 0.000000
vertex 0.000256 0.001071 0.150000
endloop
endfacet
facet normal -0.998207 -0.059850 0.000000
outer loop
vertex 0.000249 0.001188 0.000000
vertex 0.000256 0.001071 0.150000
vertex 0.000249 0.001188 0.150000
endloop
endfacet
facet normal -0.999970 -0.007771 0.000000
outer loop
vertex 0.000248 0.001312 0.000000
vertex 0.000249 0.001188 0.000000
vertex 0.000249 0.001188 0.150000
endloop
endfacet
facet normal -0.999970 -0.007772 0.000000
outer loop
vertex 0.000248 0.001312 0.000000
vertex 0.000249 0.001188 0.150000
vertex 0.000248 0.001312 0.150000
endloop
endfacet
facet normal -0.999587 0.028726 0.000000
outer loop
vertex 0.000271 0.002089 0.000000
vertex 0.000248 0.001312 0.000000
vertex 0.000248 0.001312 0.150000
endloop
endfacet
facet normal -0.999587 0.028726 0.000000
outer loop
vertex 0.000271 0.002089 0.000000
vertex 0.000248 0.001312 0.150000
vertex 0.000271 0.002089 0.150000
endloop
endfacet
facet normal -0.997730 -0.067338 0.000000
outer loop
vertex 0.000252 0.002480 0.150000
vertex 0.000252 0.002480 0.000000
vertex 0.000266 0.002280 0.000000
endloop
endfacet
facet normal -0.999673 -0.025560 0.000000
outer loop
vertex 0.000266 0.002280 0.000000
vertex 0.000271 0.002089 0.000000
vertex 0.000271 0.002089 0.150000
endloop
endfacet
facet normal -0.997730 -0.067338 0.000000
outer loop
vertex 0.000266 0.002280 0.150000
vertex 0.000252 0.002480 0.150000
vertex 0.000266 0.002280 0.000000
endloop
endfacet
facet normal -0.999673 -0.025560 0.000000
outer loop
vertex 0.000266 0.002280 0.000000
vertex 0.000271 0.002089 0.150000
vertex 0.000266 0.002280 0.150000
endloop
endfacet
facet normal -0.314669 -0.949201 0.000000
outer loop
vertex 0.000937 0.000034 0.150000
vertex 0.000937 0.000034 0.000000
vertex 0.001013 0.000009 0.000000
endloop
endfacet
facet normal -0.314669 -0.949202 0.000000
outer loop
vertex 0.000937 0.000034 0.150000
vertex 0.001013 0.000009 0.000000
vertex 0.001013 0.000009 0.150000
endloop
endfacet
facet normal 0.790683 -0.612226 0.000000
outer loop
vertex 0.002145 0.000600 0.150000
vertex 0.002145 0.000600 0.000000
vertex 0.002322 0.000827 0.000000
endloop
endfacet
facet normal 0.790684 -0.612224 0.000000
outer loop
vertex 0.002145 0.000600 0.150000
vertex 0.002322 0.000827 0.000000
vertex 0.002322 0.000827 0.150000
endloop
endfacet
facet normal 0.102784 -0.994704 0.000000
outer loop
vertex 0.001099 0.000000 0.150000
vertex 0.001099 0.000000 0.000000
vertex 0.001196 0.000010 0.000000
endloop
endfacet
facet normal 0.102784 -0.994704 0.000000
outer loop
vertex 0.001099 0.000000 0.150000
vertex 0.001196 0.000010 0.000000
vertex 0.001196 0.000010 0.150000
endloop
endfacet
facet normal 0.996442 -0.084281 0.000000
outer loop
vertex 0.003880 0.003562 0.150000
vertex 0.003880 0.003562 0.000000
vertex 0.003885 0.003620 0.000000
endloop
endfacet
facet normal 0.996441 -0.084295 0.000000
outer loop
vertex 0.003880 0.003562 0.150000
vertex 0.003885 0.003620 0.000000
vertex 0.003885 0.003620 0.150000
endloop
endfacet
facet normal 0.383303 -0.923622 0.000000
outer loop
vertex 0.001538 0.000136 0.000000
vertex 0.001538 0.000136 0.150000
vertex 0.001307 0.000041 0.150000
endloop
endfacet
facet normal 0.383303 -0.923623 0.000000
outer loop
vertex 0.001538 0.000136 0.000000
vertex 0.001307 0.000041 0.150000
vertex 0.001307 0.000041 0.000000
endloop
endfacet
endsolid Exported from Blender-3.6.8
