solid Exported from Blender-3.6.8
facet normal 0.338099 0.941110 0.000000
outer loop
vertex 0.001579 0.005401 0.150000
vertex 0.001579 0.005401 0.000000
vertex 0.001492 0.005432 0.000000
endloop
endfacet
facet normal 0.338099 0.941111 0.000000
outer loop
vertex 0.001579 0.005401 0.150000
vertex 0.001492 0.005432 0.000000
vertex 0.001492 0.005432 0.150000
endloop
endfacet
facet normal 0.354915 -0.934899 0.000000
outer loop
vertex 0.003997 0.001143 0.000000
vertex 0.003997 0.001143 0.150000
vertex 0.001299 0.000119 0.150000
endloop
endfacet
facet normal 0.354915 -0.934899 0.000000
outer loop
vertex 0.003997 0.001143 0.000000
vertex 0.001299 0.000119 0.150000
vertex 0.001299 0.000119 0.000000
endloop
endfacet
facet normal 0.262812 -0.964847 0.000000
outer loop
vertex 0.005712 0.001622 0.150000
vertex 0.005712 0.001622 0.000000
vertex 0.005785 0.001642 0.000000
endloop
endfacet
facet normal 0.262809 -0.964848 0.000000
outer loop
vertex 0.005712 0.001622 0.150000
vertex 0.005785 0.001642 0.000000
vertex 0.005785 0.001642 0.150000
endloop
endfacet
facet normal 0.104323 -0.994543 0.000000
outer loop
vertex 0.000704 0.000001 0.150000
vertex 0.000704 0.000001 0.000000
vertex 0.000827 0.000014 0.000000
endloop
endfacet
facet normal 0.104323 -0.994543 0.000000
outer loop
vertex 0.000704 0.000001 0.150000
vertex 0.000827 0.000014 0.000000
vertex 0.000827 0.000014 0.150000
endloop
endfacet
facet normal 0.000000 0.000000 -1.000000
outer loop
vertex 0.004093 0.001188 0.000000
vertex 0.003997 0.001143 0.000000
vertex 0.001299 0.000119 0.000000
endloop
endfacet
facet normal 0.000000 0.000000 -1.000000
outer loop
vertex 0.001299 0.000119 0.000000
vertex 0.001130 0.000075 0.000000
vertex 0.000971 0.000039 0.000000
endloop
endfacet
facet normal 0.000000 0.000000 -1.000000
outer loop
vertex 0.000971 0.000039 0.000000
vertex 0.000827 0.000014 0.000000
vertex 0.000704 0.000001 0.000000
endloop
endfacet
facet normal 0.000000 0.000000 -1.000000
outer loop
vertex 0.000704 0.000001 0.000000
vertex 0.000607 0.000003 0.000000
vertex 0.000528 0.000018 0.000000
endloop
endfacet
facet normal 0.000000 0.000000 -1.000000
outer loop
vertex 0.000528 0.000018 0.000000
vertex 0.000454 0.000042 0.000000
vertex 0.000386 0.000075 0.000000
endloop
endfacet
facet normal 0.000000 0.000000 -1.000000
outer loop
vertex 0.000386 0.000075 0.000000
vertex 0.000323 0.000115 0.000000
vertex 0.000267 0.000161 0.000000
endloop
endfacet
facet normal 0.000000 0.000000 -1.000000
outer loop
vertex 0.000267 0.000161 0.000000
vertex 0.000215 0.000213 0.000000
vertex 0.000170 0.000270 0.000000
endloop
endfacet
facet normal 0.000000 0.000000 -1.000000
outer loop
vertex 0.000170 0.000270 0.000000
vertex 0.000130 0.000330 0.000000
vertex 0.000067 0.000456 0.000000
endloop
endfacet
facet normal 0.000000 0.000000 -1.000000
outer loop
vertex 0.000067 0.000456 0.000000
vertex 0.000027 0.000583 0.000000
vertex 0.000014 0.000667 0.000000
endloop
endfacet
facet normal 0.000000 0.000000 -1.000000
outer loop
vertex 0.000014 0.000667 0.000000
vertex 0.000006 0.000787 0.000000
vertex 0.000002 0.000936 0.000000
endloop
endfacet
facet normal 0.000000 0.000000 -1.000000
outer loop
vertex 0.000002 0.000936 0.000000
vertex 0.000000 0.001108 0.000000
vertex 0.000001 0.001296 0.000000
endloop
endfacet
facet normal 0.000000 0.000000 -1.000000
outer loop
vertex 0.000001 0.001296 0.000000
vertex 0.000002 0.001493 0.000000
vertex 0.000005 0.001692 0.000000
endloop
endfacet
facet normal 0.000000 0.000000 -1.000000
outer loop
vertex 0.000001 0.001296 0.000000
vertex 0.000005 0.001692 0.000000
vertex 0.000008 0.001885 0.000000
endloop
endfacet
facet normal 0.000000 0.000000 -1.000000
outer loop
vertex 0.000014 0.000667 0.000000
vertex 0.000002 0.000936 0.000000
vertex 0.000001 0.001296 0.000000
endloop
endfacet
facet normal 0.000000 0.000000 -1.000000
outer loop
vertex 0.000170 0.000270 0.000000
vertex 0.000067 0.000456 0.000000
vertex 0.000014 0.000667 0.000000
endloop
endfacet
facet normal 0.000000 0.000000 -1.000000
outer loop
vertex 0.000386 0.000075 0.000000
vertex 0.000267 0.000161 0.000000
vertex 0.000170 0.000270 0.000000
endloop
endfacet
facet normal 0.000000 0.000000 -1.000000
outer loop
vertex 0.000704 0.000001 0.000000
vertex 0.000528 0.000018 0.000000
vertex 0.000386 0.000075 0.000000
endloop
endfacet
facet normal 0.000000 0.000000 -1.000000
outer loop
vertex 0.001299 0.000119 0.000000
vertex 0.000971 0.000039 0.000000
vertex 0.000704 0.000001 0.000000
endloop
endfacet
facet normal 0.000000 0.000000 -1.000000
outer loop
vertex 0.004193 0.001238 0.000000
vertex 0.004093 0.001188 0.000000
vertex 0.001299 0.000119 0.000000
endloop
endfacet
facet normal 0.000000 0.000000 -1.000000
outer loop
vertex 0.004391 0.001345 0.000000
vertex 0.004293 0.001291 0.000000
vertex 0.004193 0.001238 0.000000
endloop
endfacet
facet normal 0.000000 0.000000 -1.000000
outer loop
vertex 0.004570 0.001449 0.000000
vertex 0.004484 0.001398 0.000000
vertex 0.004391 0.001345 0.000000
endloop
endfacet
facet normal 0.000000 0.000000 -1.000000
outer loop
vertex 0.004710 0.001533 0.000000
vertex 0.004646 0.001494 0.000000
vertex 0.004570 0.001449 0.000000
endloop
endfacet
facet normal 0.000000 0.000000 -1.000000
outer loop
vertex 0.004789 0.001583 0.000000
vertex 0.004758 0.001563 0.000000
vertex 0.004710 0.001533 0.000000
endloop
endfacet
facet normal 0.000000 0.000000 -1.000000
outer loop
vertex 0.004868 0.001587 0.000000
vertex 0.004818 0.001589 0.000000
vertex 0.004800 0.001590 0.000000
endloop
endfacet
facet normal 0.000000 0.000000 -1.000000
outer loop
vertex 0.004800 0.001590 0.000000
vertex 0.004789 0.001583 0.000000
vertex 0.004710 0.001533 0.000000
endloop
endfacet
facet normal 0.000000 0.000000 -1.000000
outer loop
vertex 0.004710 0.001533 0.000000
vertex 0.004570 0.001449 0.000000
vertex 0.004391 0.001345 0.000000
endloop
endfacet
facet normal 0.000000 0.000000 -1.000000
outer loop
vertex 0.004391 0.001345 0.000000
vertex 0.004193 0.001238 0.000000
vertex 0.001299 0.000119 0.000000
endloop
endfacet
facet normal 0.000000 0.000000 -1.000000
outer loop
vertex 0.001299 0.000119 0.000000
vertex 0.000704 0.000001 0.000000
vertex 0.000386 0.000075 0.000000
endloop
endfacet
facet normal 0.000000 0.000000 -1.000000
outer loop
vertex 0.000386 0.000075 0.000000
vertex 0.000170 0.000270 0.000000
vertex 0.000014 0.000667 0.000000
endloop
endfacet
facet normal 0.000000 0.000000 -1.000000
outer loop
vertex 0.000014 0.000667 0.000000
vertex 0.000001 0.001296 0.000000
vertex 0.000008 0.001885 0.000000
endloop
endfacet
facet normal 0.000000 0.000000 -1.000000
outer loop
vertex 0.000014 0.000667 0.000000
vertex 0.000008 0.001885 0.000000
vertex 0.000010 0.002068 0.000000
endloop
endfacet
facet normal 0.000000 0.000000 -1.000000
outer loop
vertex 0.001299 0.000119 0.000000
vertex 0.000386 0.000075 0.000000
vertex 0.000014 0.000667 0.000000
endloop
endfacet
facet normal 0.000000 0.000000 -1.000000
outer loop
vertex 0.004710 0.001533 0.000000
vertex 0.004391 0.001345 0.000000
vertex 0.001299 0.000119 0.000000
endloop
endfacet
facet normal 0.000000 0.000000 -1.000000
outer loop
vertex 0.004944 0.001586 0.000000
vertex 0.004868 0.001587 0.000000
vertex 0.004800 0.001590 0.000000
endloop
endfacet
facet normal 0.000000 0.000000 -1.000000
outer loop
vertex 0.004800 0.001590 0.000000
vertex 0.004710 0.001533 0.000000
vertex 0.001299 0.000119 0.000000
endloop
endfacet
facet normal 0.000000 0.000000 -1.000000
outer loop
vertex 0.001299 0.000119 0.000000
vertex 0.000014 0.000667 0.000000
vertex 0.000010 0.002068 0.000000
endloop
endfacet
facet normal 0.000000 0.000000 -1.000000
outer loop
vertex 0.001299 0.000119 0.000000
vertex 0.000010 0.002068 0.000000
vertex 0.000011 0.002231 0.000000
endloop
endfacet
facet normal 0.000000 0.000000 -1.000000
outer loop
vertex 0.005040 0.001584 0.000000
vertex 0.004944 0.001586 0.000000
vertex 0.004800 0.001590 0.000000
endloop
endfacet
facet normal 0.000000 0.000000 -1.000000
outer loop
vertex 0.004800 0.001590 0.000000
vertex 0.001299 0.000119 0.000000
vertex 0.000011 0.002231 0.000000
endloop
endfacet
facet normal 0.000000 0.000000 -1.000000
outer loop
vertex 0.000011 0.002369 0.000000
vertex 0.000007 0.002475 0.000000
vertex 0.000013 0.002585 0.000000
endloop
endfacet
facet normal 0.000000 0.000000 -1.000000
outer loop
vertex 0.004800 0.001590 0.000000
vertex 0.000011 0.002231 0.000000
vertex 0.000011 0.002369 0.000000
endloop
endfacet
facet normal 0.000000 0.000000 -1.000000
outer loop
vertex 0.005150 0.001584 0.000000
vertex 0.005040 0.001584 0.000000
vertex 0.004800 0.001590 0.000000
endloop
endfacet
facet normal 0.000000 0.000000 -1.000000
outer loop
vertex 0.005390 0.001589 0.000000
vertex 0.005269 0.001586 0.000000
vertex 0.005150 0.001584 0.000000
endloop
endfacet
facet normal 0.000000 0.000000 -1.000000
outer loop
vertex 0.005712 0.001622 0.000000
vertex 0.005508 0.001596 0.000000
vertex 0.005390 0.001589 0.000000
endloop
endfacet
facet normal 0.000000 0.000000 -1.000000
outer loop
vertex 0.005832 0.001668 0.000000
vertex 0.005785 0.001642 0.000000
vertex 0.005712 0.001622 0.000000
endloop
endfacet
facet normal 0.000000 0.000000 -1.000000
outer loop
vertex 0.005937 0.001797 0.000000
vertex 0.005865 0.001702 0.000000
vertex 0.005832 0.001668 0.000000
endloop
endfacet
facet normal 0.000000 0.000000 -1.000000
outer loop
vertex 0.006063 0.002043 0.000000
vertex 0.006007 0.001915 0.000000
vertex 0.005937 0.001797 0.000000
endloop
endfacet
facet normal 0.000000 0.000000 -1.000000
outer loop
vertex 0.006096 0.002165 0.000000
vertex 0.006083 0.002105 0.000000
vertex 0.006063 0.002043 0.000000
endloop
endfacet
facet normal 0.000000 0.000000 -1.000000
outer loop
vertex 0.006093 0.002266 0.000000
vertex 0.006099 0.002219 0.000000
vertex 0.006096 0.002165 0.000000
endloop
endfacet
facet normal 0.000000 0.000000 -1.000000
outer loop
vertex 0.006014 0.002351 0.000000
vertex 0.006075 0.002305 0.000000
vertex 0.006093 0.002266 0.000000
endloop
endfacet
facet normal 0.000000 0.000000 -1.000000
outer loop
vertex 0.003929 0.003221 0.000000
vertex 0.005890 0.002416 0.000000
vertex 0.006014 0.002351 0.000000
endloop
endfacet
facet normal 0.000000 0.000000 -1.000000
outer loop
vertex 0.003929 0.003221 0.000000
vertex 0.006014 0.002351 0.000000
vertex 0.006093 0.002266 0.000000
endloop
endfacet
facet normal 0.000000 0.000000 -1.000000
outer loop
vertex 0.006093 0.002266 0.000000
vertex 0.006096 0.002165 0.000000
vertex 0.006063 0.002043 0.000000
endloop
endfacet
facet normal 0.000000 0.000000 -1.000000
outer loop
vertex 0.006063 0.002043 0.000000
vertex 0.005937 0.001797 0.000000
vertex 0.005832 0.001668 0.000000
endloop
endfacet
facet normal 0.000000 0.000000 -1.000000
outer loop
vertex 0.005832 0.001668 0.000000
vertex 0.005712 0.001622 0.000000
vertex 0.005390 0.001589 0.000000
endloop
endfacet
facet normal 0.000000 0.000000 -1.000000
outer loop
vertex 0.005390 0.001589 0.000000
vertex 0.005150 0.001584 0.000000
vertex 0.004800 0.001590 0.000000
endloop
endfacet
facet normal 0.000000 0.000000 -1.000000
outer loop
vertex 0.004800 0.001590 0.000000
vertex 0.000011 0.002369 0.000000
vertex 0.000013 0.002585 0.000000
endloop
endfacet
facet normal 0.000000 0.000000 -1.000000
outer loop
vertex 0.000013 0.002585 0.000000
vertex 0.000036 0.002736 0.000000
vertex 0.000074 0.002920 0.000000
endloop
endfacet
facet normal 0.000000 0.000000 -1.000000
outer loop
vertex 0.000074 0.002920 0.000000
vertex 0.000179 0.003345 0.000000
vertex 0.000488 0.004439 0.000000
endloop
endfacet
facet normal 0.000000 0.000000 -1.000000
outer loop
vertex 0.000488 0.004439 0.000000
vertex 0.000502 0.004499 0.000000
vertex 0.000573 0.004629 0.000000
endloop
endfacet
facet normal 0.000000 0.000000 -1.000000
outer loop
vertex 0.000573 0.004629 0.000000
vertex 0.000683 0.004816 0.000000
vertex 0.000822 0.005034 0.000000
endloop
endfacet
facet normal 0.000000 0.000000 -1.000000
outer loop
vertex 0.000822 0.005034 0.000000
vertex 0.000897 0.005141 0.000000
vertex 0.001048 0.005326 0.000000
endloop
endfacet
facet normal 0.000000 0.000000 -1.000000
outer loop
vertex 0.001048 0.005326 0.000000
vertex 0.001120 0.005393 0.000000
vertex 0.001186 0.005436 0.000000
endloop
endfacet
facet normal 0.000000 0.000000 -1.000000
outer loop
vertex 0.001186 0.005436 0.000000
vertex 0.001253 0.005457 0.000000
vertex 0.001327 0.005462 0.000000
endloop
endfacet
facet normal 0.000000 0.000000 -1.000000
outer loop
vertex 0.001327 0.005462 0.000000
vertex 0.001407 0.005453 0.000000
vertex 0.001492 0.005432 0.000000
endloop
endfacet
facet normal 0.000000 0.000000 -1.000000
outer loop
vertex 0.001492 0.005432 0.000000
vertex 0.001579 0.005401 0.000000
vertex 0.001757 0.005313 0.000000
endloop
endfacet
facet normal 0.000000 0.000000 -1.000000
outer loop
vertex 0.001757 0.005313 0.000000
vertex 0.001929 0.005203 0.000000
vertex 0.002009 0.005143 0.000000
endloop
endfacet
facet normal 0.000000 0.000000 -1.000000
outer loop
vertex 0.002009 0.005143 0.000000
vertex 0.002083 0.005083 0.000000
vertex 0.002150 0.005024 0.000000
endloop
endfacet
facet normal 0.000000 0.000000 -1.000000
outer loop
vertex 0.002150 0.005024 0.000000
vertex 0.002211 0.004963 0.000000
vertex 0.002320 0.004825 0.000000
endloop
endfacet
facet normal 0.000000 0.000000 -1.000000
outer loop
vertex 0.002320 0.004825 0.000000
vertex 0.002369 0.004750 0.000000
vertex 0.002416 0.004672 0.000000
endloop
endfacet
facet normal 0.000000 0.000000 -1.000000
outer loop
vertex 0.002416 0.004672 0.000000
vertex 0.002461 0.004592 0.000000
vertex 0.002504 0.004512 0.000000
endloop
endfacet
facet normal 0.000000 0.000000 -1.000000
outer loop
vertex 0.002416 0.004672 0.000000
vertex 0.002504 0.004512 0.000000
vertex 0.002587 0.004352 0.000000
endloop
endfacet
facet normal 0.000000 0.000000 -1.000000
outer loop
vertex 0.002150 0.005024 0.000000
vertex 0.002320 0.004825 0.000000
vertex 0.002416 0.004672 0.000000
endloop
endfacet
facet normal 0.000000 0.000000 -1.000000
outer loop
vertex 0.001757 0.005313 0.000000
vertex 0.002009 0.005143 0.000000
vertex 0.002150 0.005024 0.000000
endloop
endfacet
facet normal 0.000000 0.000000 -1.000000
outer loop
vertex 0.001327 0.005462 0.000000
vertex 0.001492 0.005432 0.000000
vertex 0.001757 0.005313 0.000000
endloop
endfacet
facet normal 0.000000 0.000000 -1.000000
outer loop
vertex 0.001048 0.005326 0.000000
vertex 0.001186 0.005436 0.000000
vertex 0.001327 0.005462 0.000000
endloop
endfacet
facet normal 0.000000 0.000000 -1.000000
outer loop
vertex 0.000573 0.004629 0.000000
vertex 0.000822 0.005034 0.000000
vertex 0.001048 0.005326 0.000000
endloop
endfacet
facet normal 0.000000 0.000000 -1.000000
outer loop
vertex 0.000074 0.002920 0.000000
vertex 0.000488 0.004439 0.000000
vertex 0.000573 0.004629 0.000000
endloop
endfacet
facet normal 0.000000 0.000000 -1.000000
outer loop
vertex 0.004800 0.001590 0.000000
vertex 0.000013 0.002585 0.000000
vertex 0.000074 0.002920 0.000000
endloop
endfacet
facet normal 0.000000 0.000000 -1.000000
outer loop
vertex 0.005832 0.001668 0.000000
vertex 0.005390 0.001589 0.000000
vertex 0.004800 0.001590 0.000000
endloop
endfacet
facet normal 0.000000 0.000000 -1.000000
outer loop
vertex 0.006093 0.002266 0.000000
vertex 0.006063 0.002043 0.000000
vertex 0.005832 0.001668 0.000000
endloop
endfacet
facet normal 0.000000 0.000000 -1.000000
outer loop
vertex 0.003929 0.003221 0.000000
vertex 0.006093 0.002266 0.000000
vertex 0.005832 0.001668 0.000000
endloop
endfacet
facet normal 0.000000 0.000000 -1.000000
outer loop
vertex 0.005832 0.001668 0.000000
vertex 0.004800 0.001590 0.000000
vertex 0.000074 0.002920 0.000000
endloop
endfacet
facet normal 0.000000 0.000000 -1.000000
outer loop
vertex 0.000074 0.002920 0.000000
vertex 0.000573 0.004629 0.000000
vertex 0.001048 0.005326 0.000000
endloop
endfacet
facet normal 0.000000 0.000000 -1.000000
outer loop
vertex 0.001048 0.005326 0.000000
vertex 0.001327 0.005462 0.000000
vertex 0.001757 0.005313 0.000000
endloop
endfacet
facet normal 0.000000 0.000000 -1.000000
outer loop
vertex 0.001757 0.005313 0.000000
vertex 0.002150 0.005024 0.000000
vertex 0.002416 0.004672 0.000000
endloop
endfacet
facet normal 0.000000 0.000000 -1.000000
outer loop
vertex 0.001757 0.005313 0.000000
vertex 0.002416 0.004672 0.000000
vertex 0.002587 0.004352 0.000000
endloop
endfacet
facet normal 0.000000 0.000000 -1.000000
outer loop
vertex 0.000074 0.002920 0.000000
vertex 0.001048 0.005326 0.000000
vertex 0.001757 0.005313 0.000000
endloop
endfacet
facet normal 0.000000 0.000000 -1.000000
outer loop
vertex 0.003929 0.003221 0.000000
vertex 0.005832 0.001668 0.000000
vertex 0.000074 0.002920 0.000000
endloop
endfacet
facet normal 0.000000 0.000000 -1.000000
outer loop
vertex 0.002962 0.003882 0.000000
vertex 0.003929 0.003221 0.000000
vertex 0.000074 0.002920 0.000000
endloop
endfacet
facet normal 0.000000 0.000000 -1.000000
outer loop
vertex 0.000074 0.002920 0.000000
vertex 0.001757 0.005313 0.000000
vertex 0.002587 0.004352 0.000000
endloop
endfacet
facet normal 0.000000 0.000000 -1.000000
outer loop
vertex 0.000074 0.002920 0.000000
vertex 0.002587 0.004352 0.000000
vertex 0.002628 0.004275 0.000000
endloop
endfacet
facet normal 0.000000 0.000000 -1.000000
outer loop
vertex 0.002772 0.004057 0.000000
vertex 0.002962 0.003882 0.000000
vertex 0.000074 0.002920 0.000000
endloop
endfacet
facet normal 0.000000 0.000000 -1.000000
outer loop
vertex 0.002713 0.004131 0.000000
vertex 0.002772 0.004057 0.000000
vertex 0.000074 0.002920 0.000000
endloop
endfacet
facet normal 0.000000 0.000000 -1.000000
outer loop
vertex 0.000074 0.002920 0.000000
vertex 0.002628 0.004275 0.000000
vertex 0.002670 0.004201 0.000000
endloop
endfacet
facet normal 0.000000 0.000000 -1.000000
outer loop
vertex 0.000074 0.002920 0.000000
vertex 0.002670 0.004201 0.000000
vertex 0.002713 0.004131 0.000000
endloop
endfacet
facet normal -0.540453 -0.841374 0.000000
outer loop
vertex 0.000323 0.000115 0.150000
vertex 0.000323 0.000115 0.000000
vertex 0.000386 0.000075 0.000000
endloop
endfacet
facet normal -0.540452 -0.841375 0.000000
outer loop
vertex 0.000323 0.000115 0.150000
vertex 0.000386 0.000075 0.000000
vertex 0.000386 0.000075 0.150000
endloop
endfacet
facet normal -0.894768 -0.446531 0.000000
outer loop
vertex 0.000067 0.000456 0.000000
vertex 0.000130 0.000330 0.000000
vertex 0.000130 0.000330 0.150000
endloop
endfacet
facet normal -0.894768 -0.446531 0.000000
outer loop
vertex 0.000067 0.000456 0.000000
vertex 0.000130 0.000330 0.150000
vertex 0.000067 0.000456 0.150000
endloop
endfacet
facet normal 0.715899 -0.698203 0.000000
outer loop
vertex 0.005832 0.001668 0.150000
vertex 0.005832 0.001668 0.000000
vertex 0.005865 0.001702 0.000000
endloop
endfacet
facet normal 0.715908 -0.698195 0.000000
outer loop
vertex 0.005832 0.001668 0.150000
vertex 0.005865 0.001702 0.000000
vertex 0.005865 0.001702 0.150000
endloop
endfacet
facet normal -0.997755 -0.066975 0.000000
outer loop
vertex 0.000006 0.000787 0.000000
vertex 0.000014 0.000667 0.000000
vertex 0.000014 0.000667 0.150000
endloop
endfacet
facet normal -0.997755 -0.066975 0.000000
outer loop
vertex 0.000006 0.000787 0.000000
vertex 0.000014 0.000667 0.150000
vertex 0.000006 0.000787 0.150000
endloop
endfacet
facet normal -0.999537 -0.030435 0.000000
outer loop
vertex 0.000002 0.000936 0.000000
vertex 0.000006 0.000787 0.000000
vertex 0.000006 0.000787 0.150000
endloop
endfacet
facet normal -0.999537 -0.030435 0.000000
outer loop
vertex 0.000002 0.000936 0.000000
vertex 0.000006 0.000787 0.150000
vertex 0.000002 0.000936 0.150000
endloop
endfacet
facet normal -0.999950 -0.010027 0.000000
outer loop
vertex 0.000000 0.001108 0.000000
vertex 0.000002 0.000936 0.000000
vertex 0.000002 0.000936 0.150000
endloop
endfacet
facet normal -0.999950 -0.010027 0.000000
outer loop
vertex 0.000000 0.001108 0.000000
vertex 0.000002 0.000936 0.150000
vertex 0.000000 0.001108 0.150000
endloop
endfacet
facet normal -0.999997 0.002267 0.000000
outer loop
vertex 0.000001 0.001296 0.000000
vertex 0.000000 0.001108 0.000000
vertex 0.000000 0.001108 0.150000
endloop
endfacet
facet normal -0.999997 0.002267 0.000000
outer loop
vertex 0.000001 0.001296 0.000000
vertex 0.000000 0.001108 0.150000
vertex 0.000001 0.001296 0.150000
endloop
endfacet
facet normal -0.999953 0.009682 0.000000
outer loop
vertex 0.000002 0.001493 0.000000
vertex 0.000001 0.001296 0.000000
vertex 0.000001 0.001296 0.150000
endloop
endfacet
facet normal -0.999953 0.009682 0.000000
outer loop
vertex 0.000002 0.001493 0.000000
vertex 0.000001 0.001296 0.150000
vertex 0.000002 0.001493 0.150000
endloop
endfacet
facet normal 0.000000 0.000000 -1.000000
outer loop
vertex 0.000010 0.002068 0.000000
vertex 0.000008 0.001885 0.000000
vertex 0.000005 0.001692 0.000000
endloop
endfacet
facet normal -0.999907 0.013642 0.000000
outer loop
vertex 0.000005 0.001692 0.000000
vertex 0.000002 0.001493 0.000000
vertex 0.000002 0.001493 0.150000
endloop
endfacet
facet normal -0.999907 0.013642 0.000000
outer loop
vertex 0.000005 0.001692 0.000000
vertex 0.000002 0.001493 0.150000
vertex 0.000005 0.001692 0.150000
endloop
endfacet
facet normal 0.000000 0.000000 -1.000000
outer loop
vertex 0.000011 0.002231 0.000000
vertex 0.000010 0.002068 0.000000
vertex 0.000005 0.001692 0.000000
endloop
endfacet
facet normal 0.000000 0.000000 -1.000000
outer loop
vertex 0.000007 0.002475 0.000000
vertex 0.000011 0.002369 0.000000
vertex 0.000011 0.002231 0.000000
endloop
endfacet
facet normal -0.998858 0.047776 0.000000
outer loop
vertex 0.000013 0.002585 0.150000
vertex 0.000013 0.002585 0.000000
vertex 0.000007 0.002475 0.000000
endloop
endfacet
facet normal -0.998858 0.047776 0.000000
outer loop
vertex 0.000007 0.002475 0.150000
vertex 0.000013 0.002585 0.150000
vertex 0.000007 0.002475 0.000000
endloop
endfacet
facet normal 0.000000 0.000000 -1.000000
outer loop
vertex 0.000007 0.002475 0.000000
vertex 0.000011 0.002231 0.000000
vertex 0.000005 0.001692 0.000000
endloop
endfacet
facet normal -0.999892 0.014678 0.000000
outer loop
vertex 0.000005 0.001692 0.000000
vertex 0.000005 0.001692 0.150000
vertex 0.000008 0.001885 0.150000
endloop
endfacet
facet normal -0.999920 0.012674 0.000003
outer loop
vertex 0.000005 0.001692 0.000000
vertex 0.000008 0.001885 0.150000
vertex 0.000010 0.002068 0.150000
endloop
endfacet
facet normal -0.999996 0.002722 0.000000
outer loop
vertex 0.000007 0.002475 0.150000
vertex 0.000007 0.002475 0.000000
vertex 0.000005 0.001692 0.000000
endloop
endfacet
facet normal -0.999501 -0.031598 0.000179
outer loop
vertex 0.000011 0.002369 0.150000
vertex 0.000007 0.002475 0.150000
vertex 0.000005 0.001692 0.000000
endloop
endfacet
facet normal -0.999977 0.006719 0.000018
outer loop
vertex 0.000005 0.001692 0.000000
vertex 0.000010 0.002068 0.150000
vertex 0.000011 0.002231 0.150000
endloop
endfacet
facet normal -0.999984 -0.005678 0.000062
outer loop
vertex 0.000005 0.001692 0.000000
vertex 0.000011 0.002231 0.150000
vertex 0.000011 0.002369 0.150000
endloop
endfacet
facet normal -0.070291 0.997527 0.000000
outer loop
vertex 0.001327 0.005462 0.150000
vertex 0.001327 0.005462 0.000000
vertex 0.001253 0.005457 0.000000
endloop
endfacet
facet normal -0.070291 0.997527 0.000000
outer loop
vertex 0.001327 0.005462 0.150000
vertex 0.001253 0.005457 0.000000
vertex 0.001253 0.005457 0.150000
endloop
endfacet
facet normal -0.182547 -0.983197 0.000000
outer loop
vertex 0.000528 0.000018 0.150000
vertex 0.000528 0.000018 0.000000
vertex 0.000607 0.000003 0.000000
endloop
endfacet
facet normal -0.182547 -0.983197 0.000000
outer loop
vertex 0.000528 0.000018 0.150000
vertex 0.000607 0.000003 0.000000
vertex 0.000607 0.000003 0.150000
endloop
endfacet
facet normal 0.251112 -0.967958 0.000000
outer loop
vertex 0.001130 0.000075 0.000000
vertex 0.001299 0.000119 0.000000
vertex 0.001299 0.000119 0.150000
endloop
endfacet
facet normal 0.251112 -0.967958 0.000000
outer loop
vertex 0.001130 0.000075 0.000000
vertex 0.001299 0.000119 0.150000
vertex 0.001130 0.000075 0.150000
endloop
endfacet
facet normal 0.173910 -0.984762 0.000000
outer loop
vertex 0.000827 0.000014 0.150000
vertex 0.000827 0.000014 0.000000
vertex 0.000971 0.000039 0.000000
endloop
endfacet
facet normal 0.219013 -0.975722 0.000000
outer loop
vertex 0.000971 0.000039 0.000000
vertex 0.001130 0.000075 0.000000
vertex 0.001130 0.000075 0.150000
endloop
endfacet
facet normal 0.173909 -0.984762 0.000000
outer loop
vertex 0.000971 0.000039 0.150000
vertex 0.000827 0.000014 0.150000
vertex 0.000971 0.000039 0.000000
endloop
endfacet
facet normal 0.219012 -0.975722 0.000000
outer loop
vertex 0.000971 0.000039 0.000000
vertex 0.001130 0.000075 0.150000
vertex 0.000971 0.000039 0.150000
endloop
endfacet
facet normal 0.379704 0.925108 0.000000
outer loop
vertex 0.005890 0.002416 0.000000
vertex 0.003929 0.003221 0.000000
vertex 0.003929 0.003221 0.150000
endloop
endfacet
facet normal 0.379704 0.925108 0.000000
outer loop
vertex 0.005890 0.002416 0.000000
vertex 0.003929 0.003221 0.150000
vertex 0.005890 0.002416 0.150000
endloop
endfacet
facet normal -0.832140 -0.554565 0.000000
outer loop
vertex 0.000130 0.000330 0.150000
vertex 0.000130 0.000330 0.000000
vertex 0.000170 0.000270 0.000000
endloop
endfacet
facet normal -0.832140 -0.554565 0.000000
outer loop
vertex 0.000130 0.000330 0.150000
vertex 0.000170 0.000270 0.000000
vertex 0.000170 0.000270 0.150000
endloop
endfacet
facet normal 0.785177 0.619271 0.000000
outer loop
vertex 0.002320 0.004825 0.150000
vertex 0.002320 0.004825 0.000000
vertex 0.002211 0.004963 0.000000
endloop
endfacet
facet normal 0.785177 0.619271 0.000000
outer loop
vertex 0.002320 0.004825 0.150000
vertex 0.002211 0.004963 0.000000
vertex 0.002211 0.004963 0.150000
endloop
endfacet
facet normal 0.595772 0.803154 0.000000
outer loop
vertex 0.002009 0.005143 0.000000
vertex 0.001929 0.005203 0.000000
vertex 0.001929 0.005203 0.150000
endloop
endfacet
facet normal 0.595770 0.803155 0.000000
outer loop
vertex 0.002009 0.005143 0.000000
vertex 0.001929 0.005203 0.150000
vertex 0.002009 0.005143 0.150000
endloop
endfacet
facet normal 0.661354 0.750074 0.000000
outer loop
vertex 0.002150 0.005024 0.150000
vertex 0.002150 0.005024 0.000000
vertex 0.002083 0.005083 0.000000
endloop
endfacet
facet normal 0.628830 0.777543 0.000000
outer loop
vertex 0.002083 0.005083 0.000000
vertex 0.002009 0.005143 0.000000
vertex 0.002009 0.005143 0.150000
endloop
endfacet
facet normal 0.661354 0.750074 0.000000
outer loop
vertex 0.002083 0.005083 0.150000
vertex 0.002150 0.005024 0.150000
vertex 0.002083 0.005083 0.000000
endloop
endfacet
facet normal 0.628833 0.777540 0.000000
outer loop
vertex 0.002009 0.005143 0.150000
vertex 0.002083 0.005083 0.150000
vertex 0.002083 0.005083 0.000000
endloop
endfacet
facet normal 0.443240 0.896403 0.000000
outer loop
vertex 0.001757 0.005313 0.150000
vertex 0.001757 0.005313 0.000000
vertex 0.001579 0.005401 0.000000
endloop
endfacet
facet normal 0.443240 0.896403 0.000000
outer loop
vertex 0.001757 0.005313 0.150000
vertex 0.001579 0.005401 0.000000
vertex 0.001579 0.005401 0.150000
endloop
endfacet
facet normal 0.107075 0.994251 0.000000
outer loop
vertex 0.001407 0.005453 0.150000
vertex 0.001407 0.005453 0.000000
vertex 0.001327 0.005462 0.000000
endloop
endfacet
facet normal 0.107075 0.994251 0.000000
outer loop
vertex 0.001407 0.005453 0.150000
vertex 0.001327 0.005462 0.000000
vertex 0.001327 0.005462 0.150000
endloop
endfacet
facet normal -0.989451 -0.144870 0.000000
outer loop
vertex 0.000014 0.000667 0.150000
vertex 0.000014 0.000667 0.000000
vertex 0.000027 0.000583 0.000000
endloop
endfacet
facet normal -0.989451 -0.144870 0.000000
outer loop
vertex 0.000014 0.000667 0.150000
vertex 0.000027 0.000583 0.000000
vertex 0.000027 0.000583 0.150000
endloop
endfacet
facet normal 0.978553 -0.205994 0.000000
outer loop
vertex 0.006083 0.002105 0.150000
vertex 0.006083 0.002105 0.000000
vertex 0.006096 0.002165 0.000000
endloop
endfacet
facet normal 0.978553 -0.205994 0.000000
outer loop
vertex 0.006083 0.002105 0.150000
vertex 0.006096 0.002165 0.000000
vertex 0.006096 0.002165 0.150000
endloop
endfacet
facet normal -0.633883 -0.773429 0.000000
outer loop
vertex 0.000267 0.000161 0.150000
vertex 0.000267 0.000161 0.000000
vertex 0.000323 0.000115 0.000000
endloop
endfacet
facet normal -0.633883 -0.773429 0.000000
outer loop
vertex 0.000267 0.000161 0.150000
vertex 0.000323 0.000115 0.000000
vertex 0.000323 0.000115 0.150000
endloop
endfacet
facet normal -0.432502 -0.901633 0.000000
outer loop
vertex 0.000386 0.000075 0.150000
vertex 0.000386 0.000075 0.000000
vertex 0.000454 0.000042 0.000000
endloop
endfacet
facet normal -0.432501 -0.901633 0.000000
outer loop
vertex 0.000386 0.000075 0.150000
vertex 0.000454 0.000042 0.000000
vertex 0.000454 0.000042 0.150000
endloop
endfacet
facet normal 0.710398 0.703800 0.000000
outer loop
vertex 0.002211 0.004963 0.150000
vertex 0.002211 0.004963 0.000000
vertex 0.002150 0.005024 0.000000
endloop
endfacet
facet normal 0.710398 0.703800 0.000000
outer loop
vertex 0.002211 0.004963 0.150000
vertex 0.002150 0.005024 0.000000
vertex 0.002150 0.005024 0.150000
endloop
endfacet
facet normal -0.875982 0.482345 0.000000
outer loop
vertex 0.000573 0.004629 0.000000
vertex 0.000502 0.004499 0.000000
vertex 0.000502 0.004499 0.150000
endloop
endfacet
facet normal -0.875981 0.482345 0.000000
outer loop
vertex 0.000573 0.004629 0.000000
vertex 0.000502 0.004499 0.150000
vertex 0.000573 0.004629 0.150000
endloop
endfacet
facet normal -0.862995 0.505212 0.000000
outer loop
vertex 0.000683 0.004816 0.000000
vertex 0.000573 0.004629 0.000000
vertex 0.000573 0.004629 0.150000
endloop
endfacet
facet normal -0.862995 0.505212 0.000000
outer loop
vertex 0.000683 0.004816 0.000000
vertex 0.000573 0.004629 0.150000
vertex 0.000683 0.004816 0.150000
endloop
endfacet
facet normal -0.818838 0.574025 0.000000
outer loop
vertex 0.000897 0.005141 0.150000
vertex 0.000897 0.005141 0.000000
vertex 0.000822 0.005034 0.000000
endloop
endfacet
facet normal -0.843107 0.537747 0.000000
outer loop
vertex 0.000822 0.005034 0.000000
vertex 0.000683 0.004816 0.000000
vertex 0.000683 0.004816 0.150000
endloop
endfacet
facet normal -0.818838 0.574025 0.000000
outer loop
vertex 0.000822 0.005034 0.150000
vertex 0.000897 0.005141 0.150000
vertex 0.000822 0.005034 0.000000
endloop
endfacet
facet normal -0.843106 0.537747 0.000000
outer loop
vertex 0.000822 0.005034 0.000000
vertex 0.000683 0.004816 0.150000
vertex 0.000822 0.005034 0.150000
endloop
endfacet
facet normal 0.862069 -0.506791 0.000000
outer loop
vertex 0.006007 0.001915 0.000000
vertex 0.006007 0.001915 0.150000
vertex 0.005937 0.001797 0.150000
endloop
endfacet
facet normal 0.862074 -0.506783 0.000000
outer loop
vertex 0.006007 0.001915 0.000000
vertex 0.005937 0.001797 0.150000
vertex 0.005937 0.001797 0.000000
endloop
endfacet
facet normal -0.712765 -0.701403 0.000000
outer loop
vertex 0.000215 0.000213 0.150000
vertex 0.000215 0.000213 0.000000
vertex 0.000267 0.000161 0.000000
endloop
endfacet
facet normal -0.712765 -0.701402 0.000000
outer loop
vertex 0.000215 0.000213 0.150000
vertex 0.000267 0.000161 0.000000
vertex 0.000267 0.000161 0.150000
endloop
endfacet
facet normal 0.465947 0.884812 0.000000
outer loop
vertex 0.006014 0.002351 0.150000
vertex 0.006014 0.002351 0.000000
vertex 0.005890 0.002416 0.000000
endloop
endfacet
facet normal 0.465947 0.884812 0.000000
outer loop
vertex 0.006014 0.002351 0.150000
vertex 0.005890 0.002416 0.000000
vertex 0.005890 0.002416 0.150000
endloop
endfacet
facet normal 0.125256 -0.992124 0.000000
outer loop
vertex 0.005508 0.001596 0.000000
vertex 0.005712 0.001622 0.000000
vertex 0.005712 0.001622 0.150000
endloop
endfacet
facet normal 0.125257 -0.992124 0.000000
outer loop
vertex 0.005508 0.001596 0.000000
vertex 0.005712 0.001622 0.150000
vertex 0.005508 0.001596 0.150000
endloop
endfacet
facet normal 0.677797 0.735249 0.000000
outer loop
vertex 0.002962 0.003882 0.150000
vertex 0.002962 0.003882 0.000000
vertex 0.002772 0.004057 0.000000
endloop
endfacet
facet normal 0.677798 0.735248 0.000000
outer loop
vertex 0.002962 0.003882 0.150000
vertex 0.002772 0.004057 0.000000
vertex 0.002772 0.004057 0.150000
endloop
endfacet
facet normal -0.953558 -0.301210 0.000000
outer loop
vertex 0.000027 0.000583 0.150000
vertex 0.000027 0.000583 0.000000
vertex 0.000067 0.000456 0.000000
endloop
endfacet
facet normal -0.953558 -0.301210 0.000000
outer loop
vertex 0.000027 0.000583 0.150000
vertex 0.000067 0.000456 0.000000
vertex 0.000067 0.000456 0.150000
endloop
endfacet
facet normal 0.058800 -0.998270 0.000000
outer loop
vertex 0.005390 0.001589 0.000000
vertex 0.005508 0.001596 0.000000
vertex 0.005508 0.001596 0.150000
endloop
endfacet
facet normal 0.058800 -0.998270 0.000000
outer loop
vertex 0.005390 0.001589 0.000000
vertex 0.005508 0.001596 0.150000
vertex 0.005390 0.001589 0.150000
endloop
endfacet
facet normal 0.032229 -0.999480 0.000000
outer loop
vertex 0.005269 0.001586 0.000000
vertex 0.005390 0.001589 0.000000
vertex 0.005390 0.001589 0.150000
endloop
endfacet
facet normal 0.032229 -0.999480 0.000000
outer loop
vertex 0.005269 0.001586 0.000000
vertex 0.005390 0.001589 0.150000
vertex 0.005269 0.001586 0.150000
endloop
endfacet
facet normal 0.012799 -0.999918 0.000000
outer loop
vertex 0.005150 0.001584 0.000000
vertex 0.005269 0.001586 0.000000
vertex 0.005269 0.001586 0.150000
endloop
endfacet
facet normal 0.012799 -0.999918 0.000000
outer loop
vertex 0.005150 0.001584 0.000000
vertex 0.005269 0.001586 0.150000
vertex 0.005150 0.001584 0.150000
endloop
endfacet
facet normal -0.002004 -0.999998 0.000000
outer loop
vertex 0.005040 0.001584 0.000000
vertex 0.005150 0.001584 0.000000
vertex 0.005150 0.001584 0.150000
endloop
endfacet
facet normal -0.002004 -0.999998 0.000000
outer loop
vertex 0.005040 0.001584 0.000000
vertex 0.005150 0.001584 0.150000
vertex 0.005040 0.001584 0.150000
endloop
endfacet
facet normal -0.013642 -0.999907 0.000000
outer loop
vertex 0.004944 0.001586 0.000000
vertex 0.005040 0.001584 0.000000
vertex 0.005040 0.001584 0.150000
endloop
endfacet
facet normal -0.013642 -0.999907 0.000000
outer loop
vertex 0.004944 0.001586 0.000000
vertex 0.005040 0.001584 0.150000
vertex 0.004944 0.001586 0.150000
endloop
endfacet
facet normal -0.023008 -0.999735 0.000000
outer loop
vertex 0.004868 0.001587 0.000000
vertex 0.004944 0.001586 0.000000
vertex 0.004944 0.001586 0.150000
endloop
endfacet
facet normal -0.023008 -0.999735 0.000000
outer loop
vertex 0.004868 0.001587 0.000000
vertex 0.004944 0.001586 0.150000
vertex 0.004868 0.001587 0.150000
endloop
endfacet
facet normal -0.036530 -0.999333 0.000000
outer loop
vertex 0.004800 0.001590 0.150000
vertex 0.004800 0.001590 0.000000
vertex 0.004818 0.001589 0.000000
endloop
endfacet
facet normal -0.030645 -0.999530 0.000000
outer loop
vertex 0.004818 0.001589 0.000000
vertex 0.004868 0.001587 0.000000
vertex 0.004868 0.001587 0.150000
endloop
endfacet
facet normal -0.036527 -0.999333 0.000000
outer loop
vertex 0.004818 0.001589 0.150000
vertex 0.004800 0.001590 0.150000
vertex 0.004818 0.001589 0.000000
endloop
endfacet
facet normal -0.030644 -0.999530 0.000000
outer loop
vertex 0.004868 0.001587 0.150000
vertex 0.004818 0.001589 0.150000
vertex 0.004818 0.001589 0.000000
endloop
endfacet
facet normal 0.535791 -0.844351 0.000000
outer loop
vertex 0.004789 0.001583 0.000000
vertex 0.004800 0.001590 0.000000
vertex 0.004800 0.001590 0.150000
endloop
endfacet
facet normal 0.535791 -0.844351 0.000000
outer loop
vertex 0.004789 0.001583 0.000000
vertex 0.004800 0.001590 0.150000
vertex 0.004789 0.001583 0.150000
endloop
endfacet
facet normal 0.531685 -0.846942 0.000000
outer loop
vertex 0.004758 0.001563 0.000000
vertex 0.004789 0.001583 0.000000
vertex 0.004789 0.001583 0.150000
endloop
endfacet
facet normal 0.531675 -0.846948 0.000000
outer loop
vertex 0.004758 0.001563 0.000000
vertex 0.004789 0.001583 0.150000
vertex 0.004758 0.001563 0.150000
endloop
endfacet
facet normal 0.526585 -0.850123 0.000000
outer loop
vertex 0.004710 0.001533 0.000000
vertex 0.004758 0.001563 0.000000
vertex 0.004758 0.001563 0.150000
endloop
endfacet
facet normal 0.526597 -0.850115 0.000000
outer loop
vertex 0.004710 0.001533 0.000000
vertex 0.004758 0.001563 0.150000
vertex 0.004710 0.001533 0.150000
endloop
endfacet
facet normal 0.520633 -0.853781 0.000000
outer loop
vertex 0.004646 0.001494 0.000000
vertex 0.004710 0.001533 0.000000
vertex 0.004710 0.001533 0.150000
endloop
endfacet
facet normal 0.520633 -0.853781 0.000000
outer loop
vertex 0.004646 0.001494 0.000000
vertex 0.004710 0.001533 0.150000
vertex 0.004646 0.001494 0.150000
endloop
endfacet
facet normal 0.513652 -0.857999 0.000000
outer loop
vertex 0.004570 0.001449 0.000000
vertex 0.004646 0.001494 0.000000
vertex 0.004646 0.001494 0.150000
endloop
endfacet
facet normal 0.513656 -0.857996 0.000000
outer loop
vertex 0.004570 0.001449 0.000000
vertex 0.004646 0.001494 0.150000
vertex 0.004570 0.001449 0.150000
endloop
endfacet
facet normal 0.505376 -0.862899 0.000000
outer loop
vertex 0.004484 0.001398 0.000000
vertex 0.004570 0.001449 0.000000
vertex 0.004570 0.001449 0.150000
endloop
endfacet
facet normal 0.505373 -0.862901 0.000000
outer loop
vertex 0.004484 0.001398 0.000000
vertex 0.004570 0.001449 0.150000
vertex 0.004484 0.001398 0.150000
endloop
endfacet
facet normal 0.495422 -0.868652 0.000000
outer loop
vertex 0.004391 0.001345 0.000000
vertex 0.004484 0.001398 0.000000
vertex 0.004484 0.001398 0.150000
endloop
endfacet
facet normal 0.495425 -0.868651 0.000000
outer loop
vertex 0.004391 0.001345 0.000000
vertex 0.004484 0.001398 0.150000
vertex 0.004391 0.001345 0.150000
endloop
endfacet
facet normal 0.483235 -0.875490 0.000000
outer loop
vertex 0.004293 0.001291 0.000000
vertex 0.004391 0.001345 0.000000
vertex 0.004391 0.001345 0.150000
endloop
endfacet
facet normal 0.483238 -0.875489 0.000000
outer loop
vertex 0.004293 0.001291 0.000000
vertex 0.004391 0.001345 0.150000
vertex 0.004293 0.001291 0.150000
endloop
endfacet
facet normal 0.467987 -0.883736 0.000000
outer loop
vertex 0.004193 0.001238 0.000000
vertex 0.004293 0.001291 0.000000
vertex 0.004293 0.001291 0.150000
endloop
endfacet
facet normal 0.467981 -0.883739 0.000000
outer loop
vertex 0.004193 0.001238 0.000000
vertex 0.004293 0.001291 0.150000
vertex 0.004193 0.001238 0.150000
endloop
endfacet
facet normal 0.422282 -0.906464 0.000000
outer loop
vertex 0.003997 0.001143 0.150000
vertex 0.003997 0.001143 0.000000
vertex 0.004093 0.001188 0.000000
endloop
endfacet
facet normal 0.448377 -0.893844 0.000000
outer loop
vertex 0.004093 0.001188 0.000000
vertex 0.004193 0.001238 0.000000
vertex 0.004193 0.001238 0.150000
endloop
endfacet
facet normal 0.422279 -0.906466 0.000000
outer loop
vertex 0.004093 0.001188 0.150000
vertex 0.003997 0.001143 0.150000
vertex 0.004093 0.001188 0.000000
endloop
endfacet
facet normal 0.448377 -0.893844 0.000000
outer loop
vertex 0.004193 0.001238 0.150000
vertex 0.004093 0.001188 0.150000
vertex 0.004093 0.001188 0.000000
endloop
endfacet
facet normal -0.017415 -0.999848 0.000000
outer loop
vertex 0.000607 0.000003 0.150000
vertex 0.000607 0.000003 0.000000
vertex 0.000704 0.000001 0.000000
endloop
endfacet
facet normal -0.017415 -0.999848 0.000000
outer loop
vertex 0.000607 0.000003 0.150000
vertex 0.000704 0.000001 0.000000
vertex 0.000704 0.000001 0.150000
endloop
endfacet
facet normal -0.542840 0.839836 0.000000
outer loop
vertex 0.001186 0.005436 0.150000
vertex 0.001186 0.005436 0.000000
vertex 0.001120 0.005393 0.000000
endloop
endfacet
facet normal -0.542840 0.839836 0.000000
outer loop
vertex 0.001186 0.005436 0.150000
vertex 0.001120 0.005393 0.000000
vertex 0.001120 0.005393 0.150000
endloop
endfacet
facet normal 0.835250 0.549870 0.000000
outer loop
vertex 0.002369 0.004750 0.000000
vertex 0.002320 0.004825 0.000000
vertex 0.002320 0.004825 0.150000
endloop
endfacet
facet normal 0.835246 0.549876 0.000000
outer loop
vertex 0.002369 0.004750 0.000000
vertex 0.002320 0.004825 0.150000
vertex 0.002369 0.004750 0.150000
endloop
endfacet
facet normal 0.857104 0.515144 0.000000
outer loop
vertex 0.002416 0.004672 0.000000
vertex 0.002369 0.004750 0.000000
vertex 0.002369 0.004750 0.150000
endloop
endfacet
facet normal 0.857100 0.515150 0.000000
outer loop
vertex 0.002416 0.004672 0.000000
vertex 0.002369 0.004750 0.150000
vertex 0.002416 0.004672 0.150000
endloop
endfacet
facet normal 0.872197 0.489154 0.000000
outer loop
vertex 0.002461 0.004592 0.000000
vertex 0.002416 0.004672 0.000000
vertex 0.002416 0.004672 0.150000
endloop
endfacet
facet normal 0.872199 0.489151 0.000000
outer loop
vertex 0.002461 0.004592 0.000000
vertex 0.002416 0.004672 0.150000
vertex 0.002461 0.004592 0.150000
endloop
endfacet
facet normal 0.000000 0.000000 -1.000000
outer loop
vertex 0.002628 0.004275 0.000000
vertex 0.002587 0.004352 0.000000
vertex 0.002504 0.004512 0.000000
endloop
endfacet
facet normal 0.881678 0.471852 0.000000
outer loop
vertex 0.002504 0.004512 0.000000
vertex 0.002461 0.004592 0.000000
vertex 0.002461 0.004592 0.150000
endloop
endfacet
facet normal 0.881678 0.471852 0.000000
outer loop
vertex 0.002504 0.004512 0.000000
vertex 0.002461 0.004592 0.150000
vertex 0.002504 0.004512 0.150000
endloop
endfacet
facet normal 0.000000 0.000000 -1.000000
outer loop
vertex 0.002670 0.004201 0.000000
vertex 0.002628 0.004275 0.000000
vertex 0.002504 0.004512 0.000000
endloop
endfacet
facet normal 0.852894 0.522084 0.000000
outer loop
vertex 0.002713 0.004131 0.150000
vertex 0.002713 0.004131 0.000000
vertex 0.002670 0.004201 0.000000
endloop
endfacet
facet normal 0.852892 0.522088 0.000000
outer loop
vertex 0.002670 0.004201 0.150000
vertex 0.002713 0.004131 0.150000
vertex 0.002670 0.004201 0.000000
endloop
endfacet
facet normal 0.881214 0.472717 0.000000
outer loop
vertex 0.002670 0.004201 0.000000
vertex 0.002504 0.004512 0.000000
vertex 0.002504 0.004512 0.150000
endloop
endfacet
facet normal 0.886178 0.463345 0.000025
outer loop
vertex 0.002670 0.004201 0.000000
vertex 0.002504 0.004512 0.150000
vertex 0.002587 0.004352 0.150000
endloop
endfacet
facet normal 0.870503 0.492162 0.000000
outer loop
vertex 0.002628 0.004275 0.150000
vertex 0.002670 0.004201 0.150000
vertex 0.002670 0.004201 0.000000
endloop
endfacet
facet normal 0.881117 0.472898 0.000012
outer loop
vertex 0.002587 0.004352 0.150000
vertex 0.002628 0.004275 0.150000
vertex 0.002670 0.004201 0.000000
endloop
endfacet
facet normal 0.564158 0.825667 0.000000
outer loop
vertex 0.003929 0.003221 0.000000
vertex 0.002962 0.003882 0.000000
vertex 0.002962 0.003882 0.150000
endloop
endfacet
facet normal 0.564158 0.825667 0.000000
outer loop
vertex 0.003929 0.003221 0.000000
vertex 0.002962 0.003882 0.150000
vertex 0.003929 0.003221 0.150000
endloop
endfacet
facet normal 0.239476 0.970902 0.000000
outer loop
vertex 0.001492 0.005432 0.150000
vertex 0.001492 0.005432 0.000000
vertex 0.001407 0.005453 0.000000
endloop
endfacet
facet normal 0.239477 0.970902 0.000000
outer loop
vertex 0.001492 0.005432 0.150000
vertex 0.001407 0.005453 0.000000
vertex 0.001407 0.005453 0.150000
endloop
endfacet
facet normal -0.773935 0.633265 0.000000
outer loop
vertex 0.001048 0.005326 0.150000
vertex 0.001048 0.005326 0.000000
vertex 0.000897 0.005141 0.000000
endloop
endfacet
facet normal -0.773935 0.633265 0.000000
outer loop
vertex 0.001048 0.005326 0.150000
vertex 0.000897 0.005141 0.000000
vertex 0.000897 0.005141 0.150000
endloop
endfacet
facet normal -0.311885 -0.950120 0.000000
outer loop
vertex 0.000454 0.000042 0.150000
vertex 0.000454 0.000042 0.000000
vertex 0.000528 0.000018 0.000000
endloop
endfacet
facet normal -0.311885 -0.950120 0.000000
outer loop
vertex 0.000454 0.000042 0.150000
vertex 0.000528 0.000018 0.000000
vertex 0.000528 0.000018 0.150000
endloop
endfacet
facet normal 0.540060 0.841626 0.000000
outer loop
vertex 0.001757 0.005313 0.000000
vertex 0.001757 0.005313 0.150000
vertex 0.001929 0.005203 0.150000
endloop
endfacet
facet normal 0.540060 0.841626 0.000000
outer loop
vertex 0.001757 0.005313 0.000000
vertex 0.001929 0.005203 0.150000
vertex 0.001929 0.005203 0.000000
endloop
endfacet
facet normal 0.797669 -0.603096 0.000000
outer loop
vertex 0.005865 0.001702 0.000000
vertex 0.005937 0.001797 0.000000
vertex 0.005937 0.001797 0.150000
endloop
endfacet
facet normal 0.797669 -0.603096 0.000000
outer loop
vertex 0.005865 0.001702 0.000000
vertex 0.005937 0.001797 0.150000
vertex 0.005865 0.001702 0.150000
endloop
endfacet
facet normal -0.988396 0.151897 0.000000
outer loop
vertex 0.000036 0.002736 0.000000
vertex 0.000013 0.002585 0.000000
vertex 0.000013 0.002585 0.150000
endloop
endfacet
facet normal -0.988396 0.151897 0.000000
outer loop
vertex 0.000036 0.002736 0.000000
vertex 0.000013 0.002585 0.150000
vertex 0.000036 0.002736 0.150000
endloop
endfacet
facet normal -0.979347 0.202188 0.000000
outer loop
vertex 0.000074 0.002920 0.000000
vertex 0.000036 0.002736 0.000000
vertex 0.000036 0.002736 0.150000
endloop
endfacet
facet normal -0.979347 0.202188 0.000000
outer loop
vertex 0.000074 0.002920 0.000000
vertex 0.000036 0.002736 0.150000
vertex 0.000074 0.002920 0.150000
endloop
endfacet
facet normal -0.970565 0.240838 0.000000
outer loop
vertex 0.000179 0.003345 0.000000
vertex 0.000074 0.002920 0.000000
vertex 0.000074 0.002920 0.150000
endloop
endfacet
facet normal -0.970565 0.240838 0.000000
outer loop
vertex 0.000179 0.003345 0.000000
vertex 0.000074 0.002920 0.150000
vertex 0.000179 0.003345 0.150000
endloop
endfacet
facet normal -0.973526 0.228578 0.000000
outer loop
vertex 0.000502 0.004499 0.150000
vertex 0.000502 0.004499 0.000000
vertex 0.000488 0.004439 0.000000
endloop
endfacet
facet normal -0.962451 0.271454 0.000000
outer loop
vertex 0.000488 0.004439 0.000000
vertex 0.000179 0.003345 0.000000
vertex 0.000179 0.003345 0.150000
endloop
endfacet
facet normal -0.973526 0.228577 0.000000
outer loop
vertex 0.000488 0.004439 0.150000
vertex 0.000502 0.004499 0.150000
vertex 0.000488 0.004439 0.000000
endloop
endfacet
facet normal -0.962451 0.271454 0.000000
outer loop
vertex 0.000179 0.003345 0.150000
vertex 0.000488 0.004439 0.150000
vertex 0.000488 0.004439 0.000000
endloop
endfacet
facet normal -0.295810 0.955247 0.000000
outer loop
vertex 0.001253 0.005457 0.150000
vertex 0.001253 0.005457 0.000000
vertex 0.001186 0.005436 0.000000
endloop
endfacet
facet normal -0.295809 0.955247 0.000000
outer loop
vertex 0.001253 0.005457 0.150000
vertex 0.001186 0.005436 0.000000
vertex 0.001186 0.005436 0.150000
endloop
endfacet
facet normal 0.997674 -0.068166 0.000000
outer loop
vertex 0.006096 0.002165 0.150000
vertex 0.006096 0.002165 0.000000
vertex 0.006099 0.002219 0.000000
endloop
endfacet
facet normal 0.997674 -0.068166 0.000000
outer loop
vertex 0.006096 0.002165 0.150000
vertex 0.006099 0.002219 0.000000
vertex 0.006099 0.002219 0.150000
endloop
endfacet
facet normal 0.480112 -0.877207 0.000000
outer loop
vertex 0.005785 0.001642 0.150000
vertex 0.005785 0.001642 0.000000
vertex 0.005832 0.001668 0.000000
endloop
endfacet
facet normal 0.480118 -0.877204 0.000000
outer loop
vertex 0.005785 0.001642 0.150000
vertex 0.005832 0.001668 0.000000
vertex 0.005832 0.001668 0.150000
endloop
endfacet
facet normal -0.682132 0.731229 0.000000
outer loop
vertex 0.001120 0.005393 0.150000
vertex 0.001120 0.005393 0.000000
vertex 0.001048 0.005326 0.000000
endloop
endfacet
facet normal -0.682132 0.731229 0.000000
outer loop
vertex 0.001120 0.005393 0.150000
vertex 0.001048 0.005326 0.000000
vertex 0.001048 0.005326 0.150000
endloop
endfacet
facet normal -0.778270 -0.627930 0.000000
outer loop
vertex 0.000170 0.000270 0.150000
vertex 0.000170 0.000270 0.000000
vertex 0.000215 0.000213 0.000000
endloop
endfacet
facet normal -0.778270 -0.627930 0.000000
outer loop
vertex 0.000170 0.000270 0.150000
vertex 0.000215 0.000213 0.000000
vertex 0.000215 0.000213 0.150000
endloop
endfacet
facet normal 0.600454 0.799659 0.000000
outer loop
vertex 0.006075 0.002305 0.150000
vertex 0.006075 0.002305 0.000000
vertex 0.006014 0.002351 0.000000
endloop
endfacet
facet normal 0.600449 0.799663 0.000000
outer loop
vertex 0.006075 0.002305 0.150000
vertex 0.006014 0.002351 0.000000
vertex 0.006014 0.002351 0.150000
endloop
endfacet
facet normal 0.990910 0.134524 0.000000
outer loop
vertex 0.006099 0.002219 0.150000
vertex 0.006099 0.002219 0.000000
vertex 0.006093 0.002266 0.000000
endloop
endfacet
facet normal 0.990912 0.134508 0.000000
outer loop
vertex 0.006099 0.002219 0.150000
vertex 0.006093 0.002266 0.000000
vertex 0.006093 0.002266 0.150000
endloop
endfacet
facet normal 0.907391 0.420288 0.000000
outer loop
vertex 0.006093 0.002266 0.150000
vertex 0.006093 0.002266 0.000000
vertex 0.006075 0.002305 0.000000
endloop
endfacet
facet normal 0.907384 0.420303 0.000000
outer loop
vertex 0.006093 0.002266 0.150000
vertex 0.006075 0.002305 0.000000
vertex 0.006075 0.002305 0.150000
endloop
endfacet
facet normal 0.783818 0.620990 0.000000
outer loop
vertex 0.002772 0.004057 0.150000
vertex 0.002772 0.004057 0.000000
vertex 0.002713 0.004131 0.000000
endloop
endfacet
facet normal 0.783820 0.620988 0.000000
outer loop
vertex 0.002772 0.004057 0.150000
vertex 0.002713 0.004131 0.000000
vertex 0.002713 0.004131 0.150000
endloop
endfacet
facet normal 0.952949 -0.303130 0.000000
outer loop
vertex 0.006063 0.002043 0.150000
vertex 0.006063 0.002043 0.000000
vertex 0.006083 0.002105 0.000000
endloop
endfacet
facet normal 0.952949 -0.303130 0.000000
outer loop
vertex 0.006063 0.002043 0.150000
vertex 0.006083 0.002105 0.000000
vertex 0.006083 0.002105 0.150000
endloop
endfacet
facet normal -0.000527 0.000000 1.000000
outer loop
vertex 0.001299 0.000119 0.150000
vertex 0.003997 0.001143 0.150000
vertex 0.004093 0.001188 0.150000
endloop
endfacet
facet normal -0.006550 0.000000 0.999979
outer loop
vertex 0.004093 0.001188 0.150000
vertex 0.004193 0.001238 0.150000
vertex 0.004293 0.001291 0.150000
endloop
endfacet
facet normal -0.010858 0.000000 0.999941
outer loop
vertex 0.004293 0.001291 0.150000
vertex 0.004391 0.001345 0.150000
vertex 0.004484 0.001398 0.150000
endloop
endfacet
facet normal 0.000000 0.000000 1.000000
outer loop
vertex 0.004484 0.001398 0.150000
vertex 0.004570 0.001449 0.150000
vertex 0.004646 0.001494 0.150000
endloop
endfacet
facet normal -0.030491 0.000000 0.999535
outer loop
vertex 0.004646 0.001494 0.150000
vertex 0.004710 0.001533 0.150000
vertex 0.004758 0.001563 0.150000
endloop
endfacet
facet normal -0.097690 0.000000 0.995217
outer loop
vertex 0.004758 0.001563 0.150000
vertex 0.004789 0.001583 0.150000
vertex 0.004800 0.001590 0.150000
endloop
endfacet
facet normal 0.005435 0.000000 0.999985
outer loop
vertex 0.004800 0.001590 0.150000
vertex 0.004818 0.001589 0.150000
vertex 0.004868 0.001587 0.150000
endloop
endfacet
facet normal -0.000417 0.000000 1.000000
outer loop
vertex 0.004868 0.001587 0.150000
vertex 0.004944 0.001586 0.150000
vertex 0.005040 0.001584 0.150000
endloop
endfacet
facet normal 0.000000 0.000000 1.000000
outer loop
vertex 0.005040 0.001584 0.150000
vertex 0.005150 0.001584 0.150000
vertex 0.005269 0.001586 0.150000
endloop
endfacet
facet normal 0.000000 0.000000 1.000000
outer loop
vertex 0.005269 0.001586 0.150000
vertex 0.005390 0.001589 0.150000
vertex 0.005508 0.001596 0.150000
endloop
endfacet
facet normal -0.000208 0.000000 1.000000
outer loop
vertex 0.005508 0.001596 0.150000
vertex 0.005712 0.001622 0.150000
vertex 0.005785 0.001642 0.150000
endloop
endfacet
facet normal -0.001219 0.000000 0.999999
outer loop
vertex 0.005785 0.001642 0.150000
vertex 0.005832 0.001668 0.150000
vertex 0.005865 0.001702 0.150000
endloop
endfacet
facet normal 0.000000 0.000000 1.000000
outer loop
vertex 0.005865 0.001702 0.150000
vertex 0.005937 0.001797 0.150000
vertex 0.006007 0.001915 0.150000
endloop
endfacet
facet normal -0.001820 0.000000 0.999998
outer loop
vertex 0.006007 0.001915 0.150000
vertex 0.006063 0.002043 0.150000
vertex 0.006083 0.002105 0.150000
endloop
endfacet
facet normal 0.003969 0.000000 0.999992
outer loop
vertex 0.006083 0.002105 0.150000
vertex 0.006096 0.002165 0.150000
vertex 0.006099 0.002219 0.150000
endloop
endfacet
facet normal -0.001508 0.000000 0.999999
outer loop
vertex 0.006099 0.002219 0.150000
vertex 0.006093 0.002266 0.150000
vertex 0.006075 0.002305 0.150000
endloop
endfacet
facet normal 0.000000 0.000000 1.000000
outer loop
vertex 0.006075 0.002305 0.150000
vertex 0.006014 0.002351 0.150000
vertex 0.005890 0.002416 0.150000
endloop
endfacet
facet normal 0.000000 0.000000 1.000000
outer loop
vertex 0.006075 0.002305 0.150000
vertex 0.005890 0.002416 0.150000
vertex 0.003929 0.003221 0.150000
endloop
endfacet
facet normal -0.000436 0.000000 1.000000
outer loop
vertex 0.006083 0.002105 0.150000
vertex 0.006099 0.002219 0.150000
vertex 0.006075 0.002305 0.150000
endloop
endfacet
facet normal -0.000344 0.000000 1.000000
outer loop
vertex 0.005865 0.001702 0.150000
vertex 0.006007 0.001915 0.150000
vertex 0.006083 0.002105 0.150000
endloop
endfacet
facet normal 0.000282 0.000000 1.000000
outer loop
vertex 0.005508 0.001596 0.150000
vertex 0.005785 0.001642 0.150000
vertex 0.005865 0.001702 0.150000
endloop
endfacet
facet normal -0.000104 0.000000 1.000000
outer loop
vertex 0.005040 0.001584 0.150000
vertex 0.005269 0.001586 0.150000
vertex 0.005508 0.001596 0.150000
endloop
endfacet
facet normal 0.000339 0.000000 1.000000
outer loop
vertex 0.004800 0.001590 0.150000
vertex 0.004868 0.001587 0.150000
vertex 0.005040 0.001584 0.150000
endloop
endfacet
facet normal 0.012371 0.000000 0.999923
outer loop
vertex 0.004646 0.001494 0.150000
vertex 0.004758 0.001563 0.150000
vertex 0.004800 0.001590 0.150000
endloop
endfacet
facet normal 0.001905 0.000000 0.999998
outer loop
vertex 0.004293 0.001291 0.150000
vertex 0.004484 0.001398 0.150000
vertex 0.004646 0.001494 0.150000
endloop
endfacet
facet normal 0.000000 0.000000 1.000000
outer loop
vertex 0.001299 0.000119 0.150000
vertex 0.004093 0.001188 0.150000
vertex 0.004293 0.001291 0.150000
endloop
endfacet
facet normal 0.000965 0.000000 1.000000
outer loop
vertex 0.000971 0.000039 0.150000
vertex 0.001130 0.000075 0.150000
vertex 0.001299 0.000119 0.150000
endloop
endfacet
facet normal -0.000360 0.000000 1.000000
outer loop
vertex 0.000704 0.000001 0.150000
vertex 0.000827 0.000014 0.150000
vertex 0.000971 0.000039 0.150000
endloop
endfacet
facet normal -0.000088 0.000000 1.000000
outer loop
vertex 0.000528 0.000018 0.150000
vertex 0.000607 0.000003 0.150000
vertex 0.000704 0.000001 0.150000
endloop
endfacet
facet normal -0.001194 0.000000 0.999999
outer loop
vertex 0.000386 0.000075 0.150000
vertex 0.000454 0.000042 0.150000
vertex 0.000528 0.000018 0.150000
endloop
endfacet
facet normal 0.000000 0.000000 1.000000
outer loop
vertex 0.000267 0.000161 0.150000
vertex 0.000323 0.000115 0.150000
vertex 0.000386 0.000075 0.150000
endloop
endfacet
facet normal 0.000000 0.000000 1.000000
outer loop
vertex 0.000170 0.000270 0.150000
vertex 0.000215 0.000213 0.150000
vertex 0.000267 0.000161 0.150000
endloop
endfacet
facet normal 0.000000 0.000000 1.000000
outer loop
vertex 0.000067 0.000456 0.150000
vertex 0.000130 0.000330 0.150000
vertex 0.000170 0.000270 0.150000
endloop
endfacet
facet normal -0.004031 0.000000 0.999992
outer loop
vertex 0.000014 0.000667 0.150000
vertex 0.000027 0.000583 0.150000
vertex 0.000067 0.000456 0.150000
endloop
endfacet
facet normal -0.005540 0.000000 0.999985
outer loop
vertex 0.000002 0.000936 0.150000
vertex 0.000006 0.000787 0.150000
vertex 0.000014 0.000667 0.150000
endloop
endfacet
facet normal -0.009155 0.000000 0.999958
outer loop
vertex 0.000001 0.001296 0.150000
vertex 0.000000 0.001108 0.150000
vertex 0.000002 0.000936 0.150000
endloop
endfacet
facet normal 0.000000 0.000000 1.000000
outer loop
vertex 0.000005 0.001692 0.150000
vertex 0.000002 0.001493 0.150000
vertex 0.000001 0.001296 0.150000
endloop
endfacet
facet normal 0.031541 0.000000 0.999502
outer loop
vertex 0.000008 0.001885 0.150000
vertex 0.000005 0.001692 0.150000
vertex 0.000001 0.001296 0.150000
endloop
endfacet
facet normal 0.000000 0.000000 1.000000
outer loop
vertex 0.000001 0.001296 0.150000
vertex 0.000002 0.000936 0.150000
vertex 0.000014 0.000667 0.150000
endloop
endfacet
facet normal 0.000305 0.000000 1.000000
outer loop
vertex 0.000014 0.000667 0.150000
vertex 0.000067 0.000456 0.150000
vertex 0.000170 0.000270 0.150000
endloop
endfacet
facet normal -0.000798 0.000000 1.000000
outer loop
vertex 0.000170 0.000270 0.150000
vertex 0.000267 0.000161 0.150000
vertex 0.000386 0.000075 0.150000
endloop
endfacet
facet normal 0.000236 0.000000 1.000000
outer loop
vertex 0.000386 0.000075 0.150000
vertex 0.000528 0.000018 0.150000
vertex 0.000704 0.000001 0.150000
endloop
endfacet
facet normal -0.000210 0.000000 1.000000
outer loop
vertex 0.000704 0.000001 0.150000
vertex 0.000971 0.000039 0.150000
vertex 0.001299 0.000119 0.150000
endloop
endfacet
facet normal 0.000075 0.000000 1.000000
outer loop
vertex 0.001299 0.000119 0.150000
vertex 0.004293 0.001291 0.150000
vertex 0.004646 0.001494 0.150000
endloop
endfacet
facet normal -0.000042 0.000000 1.000000
outer loop
vertex 0.004800 0.001590 0.150000
vertex 0.005040 0.001584 0.150000
vertex 0.005508 0.001596 0.150000
endloop
endfacet
facet normal -0.000119 0.000000 1.000000
outer loop
vertex 0.001299 0.000119 0.150000
vertex 0.004646 0.001494 0.150000
vertex 0.004800 0.001590 0.150000
endloop
endfacet
facet normal 0.000000 0.000000 1.000000
outer loop
vertex 0.000386 0.000075 0.150000
vertex 0.000704 0.000001 0.150000
vertex 0.001299 0.000119 0.150000
endloop
endfacet
facet normal 0.000000 0.000000 1.000000
outer loop
vertex 0.000014 0.000667 0.150000
vertex 0.000170 0.000270 0.150000
vertex 0.000386 0.000075 0.150000
endloop
endfacet
facet normal 0.001130 0.000000 0.999999
outer loop
vertex 0.000008 0.001885 0.150000
vertex 0.000001 0.001296 0.150000
vertex 0.000014 0.000667 0.150000
endloop
endfacet
facet normal 0.000000 0.000000 1.000000
outer loop
vertex 0.000010 0.002068 0.150000
vertex 0.000008 0.001885 0.150000
vertex 0.000014 0.000667 0.150000
endloop
endfacet
facet normal 0.000018 0.000000 1.000000
outer loop
vertex 0.000014 0.000667 0.150000
vertex 0.000386 0.000075 0.150000
vertex 0.001299 0.000119 0.150000
endloop
endfacet
facet normal 0.000000 0.000000 1.000000
outer loop
vertex 0.004800 0.001590 0.150000
vertex 0.005508 0.001596 0.150000
vertex 0.005865 0.001702 0.150000
endloop
endfacet
facet normal 0.000000 0.000000 1.000000
outer loop
vertex 0.000014 0.000667 0.150000
vertex 0.001299 0.000119 0.150000
vertex 0.004800 0.001590 0.150000
endloop
endfacet
facet normal 0.000000 0.000000 1.000000
outer loop
vertex 0.000011 0.002231 0.150000
vertex 0.000010 0.002068 0.150000
vertex 0.000014 0.000667 0.150000
endloop
endfacet
facet normal 0.000000 0.000000 1.000000
outer loop
vertex 0.000013 0.002585 0.150000
vertex 0.000007 0.002475 0.150000
vertex 0.000011 0.002369 0.150000
endloop
endfacet
facet normal 0.000000 0.000000 1.000000
outer loop
vertex 0.000011 0.002231 0.150000
vertex 0.000014 0.000667 0.150000
vertex 0.004800 0.001590 0.150000
endloop
endfacet
facet normal 0.000000 0.000000 1.000000
outer loop
vertex 0.000013 0.002585 0.150000
vertex 0.000011 0.002369 0.150000
vertex 0.000011 0.002231 0.150000
endloop
endfacet
facet normal -0.002488 0.000000 0.999997
outer loop
vertex 0.000074 0.002920 0.150000
vertex 0.000036 0.002736 0.150000
vertex 0.000013 0.002585 0.150000
endloop
endfacet
facet normal 0.000923 0.000000 1.000000
outer loop
vertex 0.000488 0.004439 0.150000
vertex 0.000179 0.003345 0.150000
vertex 0.000074 0.002920 0.150000
endloop
endfacet
facet normal 0.001460 0.000000 0.999999
outer loop
vertex 0.000573 0.004629 0.150000
vertex 0.000502 0.004499 0.150000
vertex 0.000488 0.004439 0.150000
endloop
endfacet
facet normal 0.000000 0.000000 1.000000
outer loop
vertex 0.000822 0.005034 0.150000
vertex 0.000683 0.004816 0.150000
vertex 0.000573 0.004629 0.150000
endloop
endfacet
facet normal 0.000000 0.000000 1.000000
outer loop
vertex 0.001048 0.005326 0.150000
vertex 0.000897 0.005141 0.150000
vertex 0.000822 0.005034 0.150000
endloop
endfacet
facet normal 0.000000 0.000000 1.000000
outer loop
vertex 0.001186 0.005436 0.150000
vertex 0.001120 0.005393 0.150000
vertex 0.001048 0.005326 0.150000
endloop
endfacet
facet normal 0.000000 0.000000 1.000000
outer loop
vertex 0.001327 0.005462 0.150000
vertex 0.001253 0.005457 0.150000
vertex 0.001186 0.005436 0.150000
endloop
endfacet
facet normal 0.000000 0.000000 1.000000
outer loop
vertex 0.001492 0.005432 0.150000
vertex 0.001407 0.005453 0.150000
vertex 0.001327 0.005462 0.150000
endloop
endfacet
facet normal 0.000000 0.000000 1.000000
outer loop
vertex 0.001757 0.005313 0.150000
vertex 0.001579 0.005401 0.150000
vertex 0.001492 0.005432 0.150000
endloop
endfacet
facet normal 0.000000 0.000000 1.000000
outer loop
vertex 0.002009 0.005143 0.150000
vertex 0.001929 0.005203 0.150000
vertex 0.001757 0.005313 0.150000
endloop
endfacet
facet normal 0.000000 0.000000 1.000000
outer loop
vertex 0.002150 0.005024 0.150000
vertex 0.002083 0.005083 0.150000
vertex 0.002009 0.005143 0.150000
endloop
endfacet
facet normal 0.000000 0.000000 1.000000
outer loop
vertex 0.002320 0.004825 0.150000
vertex 0.002211 0.004963 0.150000
vertex 0.002150 0.005024 0.150000
endloop
endfacet
facet normal -0.005429 0.000000 0.999985
outer loop
vertex 0.002416 0.004672 0.150000
vertex 0.002369 0.004750 0.150000
vertex 0.002320 0.004825 0.150000
endloop
endfacet
facet normal 0.000000 0.000000 1.000000
outer loop
vertex 0.002504 0.004512 0.150000
vertex 0.002461 0.004592 0.150000
vertex 0.002416 0.004672 0.150000
endloop
endfacet
facet normal -0.005683 0.000000 0.999984
outer loop
vertex 0.002587 0.004352 0.150000
vertex 0.002504 0.004512 0.150000
vertex 0.002416 0.004672 0.150000
endloop
endfacet
facet normal 0.000000 0.000000 1.000000
outer loop
vertex 0.002416 0.004672 0.150000
vertex 0.002320 0.004825 0.150000
vertex 0.002150 0.005024 0.150000
endloop
endfacet
facet normal 0.000000 0.000000 1.000000
outer loop
vertex 0.002150 0.005024 0.150000
vertex 0.002009 0.005143 0.150000
vertex 0.001757 0.005313 0.150000
endloop
endfacet
facet normal -0.000077 0.000000 1.000000
outer loop
vertex 0.001757 0.005313 0.150000
vertex 0.001492 0.005432 0.150000
vertex 0.001327 0.005462 0.150000
endloop
endfacet
facet normal 0.000000 0.000000 1.000000
outer loop
vertex 0.001327 0.005462 0.150000
vertex 0.001186 0.005436 0.150000
vertex 0.001048 0.005326 0.150000
endloop
endfacet
facet normal -0.000381 0.000000 1.000000
outer loop
vertex 0.001048 0.005326 0.150000
vertex 0.000822 0.005034 0.150000
vertex 0.000573 0.004629 0.150000
endloop
endfacet
facet normal 0.000000 0.000000 1.000000
outer loop
vertex 0.000573 0.004629 0.150000
vertex 0.000488 0.004439 0.150000
vertex 0.000074 0.002920 0.150000
endloop
endfacet
facet normal 0.000343 0.000000 1.000000
outer loop
vertex 0.000074 0.002920 0.150000
vertex 0.000013 0.002585 0.150000
vertex 0.000011 0.002231 0.150000
endloop
endfacet
facet normal 0.000000 0.000000 1.000000
outer loop
vertex 0.000011 0.002231 0.150000
vertex 0.004800 0.001590 0.150000
vertex 0.005865 0.001702 0.150000
endloop
endfacet
facet normal -0.000078 0.000000 1.000000
outer loop
vertex 0.005865 0.001702 0.150000
vertex 0.006083 0.002105 0.150000
vertex 0.006075 0.002305 0.150000
endloop
endfacet
facet normal 0.000000 0.000000 1.000000
outer loop
vertex 0.005865 0.001702 0.150000
vertex 0.006075 0.002305 0.150000
vertex 0.003929 0.003221 0.150000
endloop
endfacet
facet normal 0.000000 0.000000 1.000000
outer loop
vertex 0.000074 0.002920 0.150000
vertex 0.000011 0.002231 0.150000
vertex 0.005865 0.001702 0.150000
endloop
endfacet
facet normal 0.000000 0.000000 1.000000
outer loop
vertex 0.001048 0.005326 0.150000
vertex 0.000573 0.004629 0.150000
vertex 0.000074 0.002920 0.150000
endloop
endfacet
facet normal 0.000000 0.000000 1.000000
outer loop
vertex 0.001757 0.005313 0.150000
vertex 0.001327 0.005462 0.150000
vertex 0.001048 0.005326 0.150000
endloop
endfacet
facet normal 0.000000 0.000000 1.000000
outer loop
vertex 0.002416 0.004672 0.150000
vertex 0.002150 0.005024 0.150000
vertex 0.001757 0.005313 0.150000
endloop
endfacet
facet normal 0.000144 0.000000 1.000000
outer loop
vertex 0.002587 0.004352 0.150000
vertex 0.002416 0.004672 0.150000
vertex 0.001757 0.005313 0.150000
endloop
endfacet
facet normal 0.000000 0.000000 1.000000
outer loop
vertex 0.001757 0.005313 0.150000
vertex 0.001048 0.005326 0.150000
vertex 0.000074 0.002920 0.150000
endloop
endfacet
facet normal 0.000000 0.000000 1.000000
outer loop
vertex 0.000074 0.002920 0.150000
vertex 0.005865 0.001702 0.150000
vertex 0.003929 0.003221 0.150000
endloop
endfacet
facet normal 0.000005 0.000000 1.000000
outer loop
vertex 0.000074 0.002920 0.150000
vertex 0.003929 0.003221 0.150000
vertex 0.002962 0.003882 0.150000
endloop
endfacet
facet normal 0.000000 0.000000 1.000000
outer loop
vertex 0.002587 0.004352 0.150000
vertex 0.001757 0.005313 0.150000
vertex 0.000074 0.002920 0.150000
endloop
endfacet
facet normal 0.000115 0.000000 1.000000
outer loop
vertex 0.002628 0.004275 0.150000
vertex 0.002587 0.004352 0.150000
vertex 0.000074 0.002920 0.150000
endloop
endfacet
facet normal -0.000011 0.000000 1.000000
outer loop
vertex 0.000074 0.002920 0.150000
vertex 0.002962 0.003882 0.150000
vertex 0.002772 0.004057 0.150000
endloop
endfacet
facet normal 0.000000 0.000000 1.000000
outer loop
vertex 0.000074 0.002920 0.150000
vertex 0.002772 0.004057 0.150000
vertex 0.002713 0.004131 0.150000
endloop
endfacet
facet normal 0.000000 0.000000 1.000000
outer loop
vertex 0.002670 0.004201 0.150000
vertex 0.002628 0.004275 0.150000
vertex 0.000074 0.002920 0.150000
endloop
endfacet
facet normal 0.000000 0.000000 1.000000
outer loop
vertex 0.002713 0.004131 0.150000
vertex 0.002670 0.004201 0.150000
vertex 0.000074 0.002920 0.150000
endloop
endfacet
facet normal 0.914159 -0.405355 0.000000
outer loop
vertex 0.006007 0.001915 0.150000
vertex 0.006007 0.001915 0.000000
vertex 0.006063 0.002043 0.000000
endloop
endfacet
facet normal 0.914159 -0.405355 0.000000
outer loop
vertex 0.006007 0.001915 0.150000
vertex 0.006063 0.002043 0.000000
vertex 0.006063 0.002043 0.150000
endloop
endfacet
endsolid Exported from Blender-3.6.8
