solid Exported from Blender-3.6.8
facet normal 0.047924 -0.998851 0.000000
outer loop
vertex 0.006745 0.000003 0.000000
vertex 0.006935 0.000012 0.000000
vertex 0.006935 0.000012 0.150000
endloop
endfacet
facet normal 0.047924 -0.998851 0.000000
outer loop
vertex 0.006745 0.000003 0.000000
vertex 0.006935 0.000012 0.150000
vertex 0.006745 0.000003 0.150000
endloop
endfacet
facet normal 0.015789 -0.999875 0.000000
outer loop
vertex 0.006572 -0.000000 0.000000
vertex 0.006745 0.000003 0.000000
vertex 0.006745 0.000003 0.150000
endloop
endfacet
facet normal 0.015789 -0.999875 0.000000
outer loop
vertex 0.006572 -0.000000 0.000000
vertex 0.006745 0.000003 0.150000
vertex 0.006572 -0.000000 0.150000
endloop
endfacet
facet normal -0.053533 -0.998566 0.000000
outer loop
vertex 0.006298 0.000009 0.150000
vertex 0.006298 0.000009 0.000000
vertex 0.006421 0.000003 0.000000
endloop
endfacet
facet normal -0.016600 -0.999862 0.000000
outer loop
vertex 0.006421 0.000003 0.000000
vertex 0.006572 -0.000000 0.000000
vertex 0.006572 -0.000000 0.150000
endloop
endfacet
facet normal -0.053533 -0.998566 0.000000
outer loop
vertex 0.006421 0.000003 0.150000
vertex 0.006298 0.000009 0.150000
vertex 0.006421 0.000003 0.000000
endloop
endfacet
facet normal -0.016600 -0.999862 0.000000
outer loop
vertex 0.006421 0.000003 0.000000
vertex 0.006572 -0.000000 0.150000
vertex 0.006421 0.000003 0.150000
endloop
endfacet
facet normal 0.221376 0.975189 0.000000
outer loop
vertex 0.006776 0.009462 0.000000
vertex 0.005862 0.009670 0.000000
vertex 0.005862 0.009670 0.150000
endloop
endfacet
facet normal 0.221376 0.975189 0.000000
outer loop
vertex 0.006776 0.009462 0.000000
vertex 0.005862 0.009670 0.150000
vertex 0.006776 0.009462 0.150000
endloop
endfacet
facet normal 0.762890 -0.646528 0.000000
outer loop
vertex 0.008622 0.000704 0.000000
vertex 0.008753 0.000859 0.000000
vertex 0.008753 0.000859 0.150000
endloop
endfacet
facet normal 0.762897 -0.646519 0.000000
outer loop
vertex 0.008622 0.000704 0.000000
vertex 0.008753 0.000859 0.150000
vertex 0.008622 0.000704 0.150000
endloop
endfacet
facet normal 0.720817 -0.693126 0.000000
outer loop
vertex 0.008384 0.000447 0.150000
vertex 0.008384 0.000447 0.000000
vertex 0.008498 0.000566 0.000000
endloop
endfacet
facet normal 0.743660 -0.668558 0.000000
outer loop
vertex 0.008498 0.000566 0.000000
vertex 0.008622 0.000704 0.000000
vertex 0.008622 0.000704 0.150000
endloop
endfacet
facet normal 0.720822 -0.693121 0.000000
outer loop
vertex 0.008498 0.000566 0.150000
vertex 0.008384 0.000447 0.150000
vertex 0.008498 0.000566 0.000000
endloop
endfacet
facet normal 0.743660 -0.668558 0.000000
outer loop
vertex 0.008498 0.000566 0.000000
vertex 0.008622 0.000704 0.150000
vertex 0.008498 0.000566 0.150000
endloop
endfacet
facet normal -0.666207 -0.745767 0.000000
outer loop
vertex 0.004563 0.000902 0.000000
vertex 0.004563 0.000902 0.150000
vertex 0.004240 0.001190 0.150000
endloop
endfacet
facet normal -0.666207 -0.745767 0.000000
outer loop
vertex 0.004563 0.000902 0.000000
vertex 0.004240 0.001190 0.150000
vertex 0.004240 0.001190 0.000000
endloop
endfacet
facet normal 0.492138 0.870517 0.000000
outer loop
vertex 0.007518 0.009101 0.150000
vertex 0.007518 0.009101 0.000000
vertex 0.007146 0.009311 0.000000
endloop
endfacet
facet normal 0.492138 0.870517 0.000000
outer loop
vertex 0.007518 0.009101 0.150000
vertex 0.007146 0.009311 0.000000
vertex 0.007146 0.009311 0.150000
endloop
endfacet
facet normal -0.119000 0.992894 0.000000
outer loop
vertex 0.004118 0.009796 0.000000
vertex 0.002972 0.009659 0.000000
vertex 0.002972 0.009659 0.150000
endloop
endfacet
facet normal -0.119000 0.992894 0.000000
outer loop
vertex 0.004118 0.009796 0.000000
vertex 0.002972 0.009659 0.150000
vertex 0.004118 0.009796 0.150000
endloop
endfacet
facet normal 0.999533 0.030575 0.000000
outer loop
vertex 0.010169 0.004952 0.000000
vertex 0.010169 0.004952 0.150000
vertex 0.010184 0.004451 0.150000
endloop
endfacet
facet normal 0.999533 0.030569 0.000000
outer loop
vertex 0.010169 0.004952 0.000000
vertex 0.010184 0.004451 0.150000
vertex 0.010184 0.004451 0.000000
endloop
endfacet
facet normal 0.000082 0.000000 1.000000
outer loop
vertex 0.006298 0.000009 0.150000
vertex 0.006421 0.000003 0.150000
vertex 0.006572 -0.000000 0.150000
endloop
endfacet
facet normal -0.000216 0.000000 1.000000
outer loop
vertex 0.006572 -0.000000 0.150000
vertex 0.006745 0.000003 0.150000
vertex 0.006935 0.000012 0.150000
endloop
endfacet
facet normal -0.000115 0.000000 1.000000
outer loop
vertex 0.006935 0.000012 0.150000
vertex 0.007341 0.000054 0.150000
vertex 0.007747 0.000134 0.150000
endloop
endfacet
facet normal -0.000532 0.000000 1.000000
outer loop
vertex 0.007747 0.000134 0.150000
vertex 0.007936 0.000192 0.150000
vertex 0.008109 0.000262 0.150000
endloop
endfacet
facet normal 0.000000 0.000000 1.000000
outer loop
vertex 0.008109 0.000262 0.150000
vertex 0.008260 0.000347 0.150000
vertex 0.008384 0.000447 0.150000
endloop
endfacet
facet normal -0.003548 0.000000 0.999994
outer loop
vertex 0.008384 0.000447 0.150000
vertex 0.008498 0.000566 0.150000
vertex 0.008622 0.000704 0.150000
endloop
endfacet
facet normal 0.002997 0.000000 0.999996
outer loop
vertex 0.008622 0.000704 0.150000
vertex 0.008753 0.000859 0.150000
vertex 0.008890 0.001029 0.150000
endloop
endfacet
facet normal -0.002396 0.000000 0.999997
outer loop
vertex 0.008890 0.001029 0.150000
vertex 0.009028 0.001211 0.150000
vertex 0.009165 0.001404 0.150000
endloop
endfacet
facet normal -0.002409 0.000000 0.999997
outer loop
vertex 0.009165 0.001404 0.150000
vertex 0.009299 0.001604 0.150000
vertex 0.009546 0.002017 0.150000
endloop
endfacet
facet normal 0.000808 0.000000 1.000000
outer loop
vertex 0.009546 0.002017 0.150000
vertex 0.009746 0.002432 0.150000
vertex 0.009822 0.002635 0.150000
endloop
endfacet
facet normal -0.006809 0.000000 0.999977
outer loop
vertex 0.009822 0.002635 0.150000
vertex 0.009888 0.002839 0.150000
vertex 0.009951 0.003050 0.150000
endloop
endfacet
facet normal 0.004355 0.000000 0.999991
outer loop
vertex 0.009951 0.003050 0.150000
vertex 0.010010 0.003269 0.150000
vertex 0.010063 0.003495 0.150000
endloop
endfacet
facet normal -0.000680 0.000000 1.000000
outer loop
vertex 0.010063 0.003495 0.150000
vertex 0.010145 0.003964 0.150000
vertex 0.010184 0.004451 0.150000
endloop
endfacet
facet normal 0.000431 0.000000 1.000000
outer loop
vertex 0.010184 0.004451 0.150000
vertex 0.010169 0.004952 0.150000
vertex 0.010086 0.005462 0.150000
endloop
endfacet
facet normal 0.000000 0.000000 1.000000
outer loop
vertex 0.010086 0.005462 0.150000
vertex 0.009950 0.005965 0.150000
vertex 0.009870 0.006210 0.150000
endloop
endfacet
facet normal -0.002084 0.000000 0.999998
outer loop
vertex 0.009870 0.006210 0.150000
vertex 0.009784 0.006448 0.150000
vertex 0.009590 0.006900 0.150000
endloop
endfacet
facet normal 0.001449 0.000000 0.999999
outer loop
vertex 0.009590 0.006900 0.150000
vertex 0.009484 0.007112 0.150000
vertex 0.009370 0.007313 0.150000
endloop
endfacet
facet normal 0.000000 0.000000 1.000000
outer loop
vertex 0.009370 0.007313 0.150000
vertex 0.009125 0.007680 0.150000
vertex 0.008857 0.007990 0.150000
endloop
endfacet
facet normal 0.000000 0.000000 1.000000
outer loop
vertex 0.008857 0.007990 0.150000
vertex 0.008712 0.008132 0.150000
vertex 0.008559 0.008277 0.150000
endloop
endfacet
facet normal 0.000000 0.000000 1.000000
outer loop
vertex 0.008559 0.008277 0.150000
vertex 0.008399 0.008423 0.150000
vertex 0.008232 0.008568 0.150000
endloop
endfacet
facet normal 0.002442 0.000000 0.999997
outer loop
vertex 0.008232 0.008568 0.150000
vertex 0.008059 0.008711 0.150000
vertex 0.007882 0.008848 0.150000
endloop
endfacet
facet normal 0.000000 0.000000 1.000000
outer loop
vertex 0.007882 0.008848 0.150000
vertex 0.007701 0.008979 0.150000
vertex 0.007518 0.009101 0.150000
endloop
endfacet
facet normal 0.000000 0.000000 1.000000
outer loop
vertex 0.007518 0.009101 0.150000
vertex 0.007146 0.009311 0.150000
vertex 0.006776 0.009462 0.150000
endloop
endfacet
facet normal 0.000034 0.000000 1.000000
outer loop
vertex 0.006776 0.009462 0.150000
vertex 0.005862 0.009670 0.150000
vertex 0.004806 0.009791 0.150000
endloop
endfacet
facet normal 0.000036 0.000000 1.000000
outer loop
vertex 0.004806 0.009791 0.150000
vertex 0.004118 0.009796 0.150000
vertex 0.002972 0.009659 0.150000
endloop
endfacet
facet normal -0.000279 0.000000 1.000000
outer loop
vertex 0.002972 0.009659 0.150000
vertex 0.002743 0.009608 0.150000
vertex 0.002516 0.009530 0.150000
endloop
endfacet
facet normal 0.000000 0.000000 1.000000
outer loop
vertex 0.002516 0.009530 0.150000
vertex 0.002400 0.009477 0.150000
vertex 0.002279 0.009417 0.150000
endloop
endfacet
facet normal 0.013244 0.000000 0.999912
outer loop
vertex 0.002149 0.009354 0.150000
vertex 0.001873 0.009220 0.150000
vertex 0.001732 0.009151 0.150000
endloop
endfacet
facet normal 0.005521 0.000000 0.999985
outer loop
vertex 0.002516 0.009530 0.150000
vertex 0.002279 0.009417 0.150000
vertex 0.002149 0.009354 0.150000
endloop
endfacet
facet normal 0.000000 0.000000 1.000000
outer loop
vertex 0.004806 0.009791 0.150000
vertex 0.002972 0.009659 0.150000
vertex 0.002516 0.009530 0.150000
endloop
endfacet
facet normal 0.000000 0.000000 1.000000
outer loop
vertex 0.007518 0.009101 0.150000
vertex 0.006776 0.009462 0.150000
vertex 0.004806 0.009791 0.150000
endloop
endfacet
facet normal 0.000000 0.000000 1.000000
outer loop
vertex 0.008232 0.008568 0.150000
vertex 0.007882 0.008848 0.150000
vertex 0.007518 0.009101 0.150000
endloop
endfacet
facet normal -0.000989 0.000000 1.000000
outer loop
vertex 0.008857 0.007990 0.150000
vertex 0.008559 0.008277 0.150000
vertex 0.008232 0.008568 0.150000
endloop
endfacet
facet normal 0.000000 0.000000 1.000000
outer loop
vertex 0.009590 0.006900 0.150000
vertex 0.009370 0.007313 0.150000
vertex 0.008857 0.007990 0.150000
endloop
endfacet
facet normal 0.000000 0.000000 1.000000
outer loop
vertex 0.010086 0.005462 0.150000
vertex 0.009870 0.006210 0.150000
vertex 0.009590 0.006900 0.150000
endloop
endfacet
facet normal 0.000000 0.000000 1.000000
outer loop
vertex 0.010063 0.003495 0.150000
vertex 0.010184 0.004451 0.150000
vertex 0.010086 0.005462 0.150000
endloop
endfacet
facet normal 0.000000 0.000000 1.000000
outer loop
vertex 0.009822 0.002635 0.150000
vertex 0.009951 0.003050 0.150000
vertex 0.010063 0.003495 0.150000
endloop
endfacet
facet normal 0.000000 0.000000 1.000000
outer loop
vertex 0.009165 0.001404 0.150000
vertex 0.009546 0.002017 0.150000
vertex 0.009822 0.002635 0.150000
endloop
endfacet
facet normal -0.000680 0.000000 1.000000
outer loop
vertex 0.008622 0.000704 0.150000
vertex 0.008890 0.001029 0.150000
vertex 0.009165 0.001404 0.150000
endloop
endfacet
facet normal 0.000275 0.000000 1.000000
outer loop
vertex 0.008109 0.000262 0.150000
vertex 0.008384 0.000447 0.150000
vertex 0.008622 0.000704 0.150000
endloop
endfacet
facet normal 0.000061 0.000000 1.000000
outer loop
vertex 0.006935 0.000012 0.150000
vertex 0.007747 0.000134 0.150000
vertex 0.008109 0.000262 0.150000
endloop
endfacet
facet normal 0.000035 0.000000 1.000000
outer loop
vertex 0.006298 0.000009 0.150000
vertex 0.006572 -0.000000 0.150000
vertex 0.006935 0.000012 0.150000
endloop
endfacet
facet normal 0.000389 0.000000 1.000000
outer loop
vertex 0.005908 0.000105 0.150000
vertex 0.006182 0.000026 0.150000
vertex 0.006298 0.000009 0.150000
endloop
endfacet
facet normal -0.000308 0.000000 1.000000
outer loop
vertex 0.005252 0.000422 0.150000
vertex 0.005592 0.000239 0.150000
vertex 0.005908 0.000105 0.150000
endloop
endfacet
facet normal -0.000332 0.000000 1.000000
outer loop
vertex 0.004240 0.001190 0.150000
vertex 0.004563 0.000902 0.150000
vertex 0.005252 0.000422 0.150000
endloop
endfacet
facet normal 0.000000 0.000000 1.000000
outer loop
vertex 0.003903 0.001536 0.150000
vertex 0.004073 0.001357 0.150000
vertex 0.004240 0.001190 0.150000
endloop
endfacet
facet normal 0.000000 0.000000 1.000000
outer loop
vertex 0.003383 0.002135 0.150000
vertex 0.003556 0.001928 0.150000
vertex 0.003903 0.001536 0.150000
endloop
endfacet
facet normal 0.006808 0.000000 0.999977
outer loop
vertex 0.003043 0.002560 0.150000
vertex 0.003211 0.002346 0.150000
vertex 0.003383 0.002135 0.150000
endloop
endfacet
facet normal -0.007911 0.000000 0.999969
outer loop
vertex 0.002722 0.002984 0.150000
vertex 0.002879 0.002773 0.150000
vertex 0.003043 0.002560 0.150000
endloop
endfacet
facet normal -0.002541 0.000000 0.999997
outer loop
vertex 0.000888 0.005568 0.150000
vertex 0.002573 0.003190 0.150000
vertex 0.002722 0.002984 0.150000
endloop
endfacet
facet normal 0.000000 0.000000 1.000000
outer loop
vertex 0.000442 0.006209 0.150000
vertex 0.000654 0.005902 0.150000
vertex 0.000888 0.005568 0.150000
endloop
endfacet
facet normal 0.000000 0.000000 1.000000
outer loop
vertex 0.000112 0.006705 0.150000
vertex 0.000258 0.006481 0.150000
vertex 0.000442 0.006209 0.150000
endloop
endfacet
facet normal 0.000135 0.000000 1.000000
outer loop
vertex 0.000007 0.007403 0.150000
vertex 0.000009 0.006873 0.150000
vertex 0.000112 0.006705 0.150000
endloop
endfacet
facet normal -0.003537 0.000000 0.999994
outer loop
vertex 0.000040 0.007583 0.150000
vertex 0.000026 0.007535 0.150000
vertex 0.000007 0.007403 0.150000
endloop
endfacet
facet normal 0.000000 0.000000 1.000000
outer loop
vertex 0.000111 0.007711 0.150000
vertex 0.000067 0.007637 0.150000
vertex 0.000040 0.007583 0.150000
endloop
endfacet
facet normal 0.004967 0.000000 0.999988
outer loop
vertex 0.000243 0.007905 0.150000
vertex 0.000171 0.007802 0.150000
vertex 0.000111 0.007711 0.150000
endloop
endfacet
facet normal 0.000000 0.000000 1.000000
outer loop
vertex 0.000414 0.008135 0.150000
vertex 0.000325 0.008018 0.150000
vertex 0.000243 0.007905 0.150000
endloop
endfacet
facet normal 0.000000 0.000000 1.000000
outer loop
vertex 0.000601 0.008368 0.150000
vertex 0.000507 0.008253 0.150000
vertex 0.000414 0.008135 0.150000
endloop
endfacet
facet normal -0.001659 0.000000 0.999999
outer loop
vertex 0.000936 0.008712 0.150000
vertex 0.000864 0.008652 0.150000
vertex 0.000601 0.008368 0.150000
endloop
endfacet
facet normal 0.003448 0.000000 0.999994
outer loop
vertex 0.001104 0.008822 0.150000
vertex 0.001012 0.008765 0.150000
vertex 0.000936 0.008712 0.150000
endloop
endfacet
facet normal -0.004689 0.000000 0.999989
outer loop
vertex 0.001330 0.008947 0.150000
vertex 0.001211 0.008883 0.150000
vertex 0.001104 0.008822 0.150000
endloop
endfacet
facet normal -0.007149 0.000000 0.999974
outer loop
vertex 0.001593 0.009082 0.150000
vertex 0.001458 0.009014 0.150000
vertex 0.001330 0.008947 0.150000
endloop
endfacet
facet normal -0.007061 0.000000 0.999975
outer loop
vertex 0.002149 0.009354 0.150000
vertex 0.001732 0.009151 0.150000
vertex 0.001593 0.009082 0.150000
endloop
endfacet
facet normal -0.000012 0.000000 1.000000
outer loop
vertex 0.004806 0.009791 0.150000
vertex 0.002516 0.009530 0.150000
vertex 0.002149 0.009354 0.150000
endloop
endfacet
facet normal 0.000000 0.000000 1.000000
outer loop
vertex 0.008232 0.008568 0.150000
vertex 0.007518 0.009101 0.150000
vertex 0.004806 0.009791 0.150000
endloop
endfacet
facet normal 0.000113 0.000000 1.000000
outer loop
vertex 0.009590 0.006900 0.150000
vertex 0.008857 0.007990 0.150000
vertex 0.008232 0.008568 0.150000
endloop
endfacet
facet normal -0.000029 0.000000 1.000000
outer loop
vertex 0.010063 0.003495 0.150000
vertex 0.010086 0.005462 0.150000
vertex 0.009590 0.006900 0.150000
endloop
endfacet
facet normal 0.000108 0.000000 1.000000
outer loop
vertex 0.009165 0.001404 0.150000
vertex 0.009822 0.002635 0.150000
vertex 0.010063 0.003495 0.150000
endloop
endfacet
facet normal -0.000245 0.000000 1.000000
outer loop
vertex 0.008109 0.000262 0.150000
vertex 0.008622 0.000704 0.150000
vertex 0.009165 0.001404 0.150000
endloop
endfacet
facet normal 0.000000 0.000000 1.000000
outer loop
vertex 0.006298 0.000009 0.150000
vertex 0.006935 0.000012 0.150000
vertex 0.008109 0.000262 0.150000
endloop
endfacet
facet normal 0.000119 0.000000 1.000000
outer loop
vertex 0.005252 0.000422 0.150000
vertex 0.005908 0.000105 0.150000
vertex 0.006298 0.000009 0.150000
endloop
endfacet
facet normal 0.000000 0.000000 1.000000
outer loop
vertex 0.003903 0.001536 0.150000
vertex 0.004240 0.001190 0.150000
vertex 0.005252 0.000422 0.150000
endloop
endfacet
facet normal 0.000000 0.000000 1.000000
outer loop
vertex 0.003043 0.002560 0.150000
vertex 0.003383 0.002135 0.150000
vertex 0.003903 0.001536 0.150000
endloop
endfacet
facet normal 0.000000 0.000000 1.000000
outer loop
vertex 0.000888 0.005568 0.150000
vertex 0.002722 0.002984 0.150000
vertex 0.003043 0.002560 0.150000
endloop
endfacet
facet normal 0.000000 0.000000 1.000000
outer loop
vertex 0.000112 0.006705 0.150000
vertex 0.000442 0.006209 0.150000
vertex 0.000888 0.005568 0.150000
endloop
endfacet
facet normal 0.000000 0.000000 1.000000
outer loop
vertex 0.000040 0.007583 0.150000
vertex 0.000007 0.007403 0.150000
vertex 0.000112 0.006705 0.150000
endloop
endfacet
facet normal 0.000000 0.000000 1.000000
outer loop
vertex 0.000243 0.007905 0.150000
vertex 0.000111 0.007711 0.150000
vertex 0.000040 0.007583 0.150000
endloop
endfacet
facet normal -0.002189 0.000000 0.999998
outer loop
vertex 0.000601 0.008368 0.150000
vertex 0.000414 0.008135 0.150000
vertex 0.000243 0.007905 0.150000
endloop
endfacet
facet normal 0.000345 0.000000 1.000000
outer loop
vertex 0.001104 0.008822 0.150000
vertex 0.000936 0.008712 0.150000
vertex 0.000601 0.008368 0.150000
endloop
endfacet
facet normal 0.000000 0.000000 1.000000
outer loop
vertex 0.001593 0.009082 0.150000
vertex 0.001330 0.008947 0.150000
vertex 0.001104 0.008822 0.150000
endloop
endfacet
facet normal 0.000015 0.000000 1.000000
outer loop
vertex 0.004806 0.009791 0.150000
vertex 0.002149 0.009354 0.150000
vertex 0.001593 0.009082 0.150000
endloop
endfacet
facet normal -0.000007 0.000000 1.000000
outer loop
vertex 0.009590 0.006900 0.150000
vertex 0.008232 0.008568 0.150000
vertex 0.004806 0.009791 0.150000
endloop
endfacet
facet normal 0.000000 0.000000 1.000000
outer loop
vertex 0.009165 0.001404 0.150000
vertex 0.010063 0.003495 0.150000
vertex 0.009590 0.006900 0.150000
endloop
endfacet
facet normal 0.000032 0.000000 1.000000
outer loop
vertex 0.006298 0.000009 0.150000
vertex 0.008109 0.000262 0.150000
vertex 0.009165 0.001404 0.150000
endloop
endfacet
facet normal 0.000024 0.000000 1.000000
outer loop
vertex 0.003903 0.001536 0.150000
vertex 0.005252 0.000422 0.150000
vertex 0.006298 0.000009 0.150000
endloop
endfacet
facet normal 0.000000 0.000000 1.000000
outer loop
vertex 0.000888 0.005568 0.150000
vertex 0.003043 0.002560 0.150000
vertex 0.003903 0.001536 0.150000
endloop
endfacet
facet normal 0.000000 0.000000 1.000000
outer loop
vertex 0.000040 0.007583 0.150000
vertex 0.000112 0.006705 0.150000
vertex 0.000888 0.005568 0.150000
endloop
endfacet
facet normal 0.000341 0.000000 1.000000
outer loop
vertex 0.000601 0.008368 0.150000
vertex 0.000243 0.007905 0.150000
vertex 0.000040 0.007583 0.150000
endloop
endfacet
facet normal 0.000000 0.000000 1.000000
outer loop
vertex 0.001593 0.009082 0.150000
vertex 0.001104 0.008822 0.150000
vertex 0.000601 0.008368 0.150000
endloop
endfacet
facet normal 0.000001 0.000000 1.000000
outer loop
vertex 0.009590 0.006900 0.150000
vertex 0.004806 0.009791 0.150000
vertex 0.001593 0.009082 0.150000
endloop
endfacet
facet normal 0.000008 0.000000 1.000000
outer loop
vertex 0.006298 0.000009 0.150000
vertex 0.009165 0.001404 0.150000
vertex 0.009590 0.006900 0.150000
endloop
endfacet
facet normal -0.000006 0.000000 1.000000
outer loop
vertex 0.000888 0.005568 0.150000
vertex 0.003903 0.001536 0.150000
vertex 0.006298 0.000009 0.150000
endloop
endfacet
facet normal 0.000000 0.000000 1.000000
outer loop
vertex 0.000601 0.008368 0.150000
vertex 0.000040 0.007583 0.150000
vertex 0.000888 0.005568 0.150000
endloop
endfacet
facet normal -0.000004 0.000000 1.000000
outer loop
vertex 0.009590 0.006900 0.150000
vertex 0.001593 0.009082 0.150000
vertex 0.000601 0.008368 0.150000
endloop
endfacet
facet normal 0.000000 0.000000 1.000000
outer loop
vertex 0.000888 0.005568 0.150000
vertex 0.006298 0.000009 0.150000
vertex 0.009590 0.006900 0.150000
endloop
endfacet
facet normal 0.000000 0.000000 1.000000
outer loop
vertex 0.009590 0.006900 0.150000
vertex 0.000601 0.008368 0.150000
vertex 0.000888 0.005568 0.150000
endloop
endfacet
facet normal -0.732739 0.680510 0.000000
outer loop
vertex 0.000864 0.008652 0.000000
vertex 0.000601 0.008368 0.000000
vertex 0.000601 0.008368 0.150000
endloop
endfacet
facet normal -0.732739 0.680510 0.000000
outer loop
vertex 0.000864 0.008652 0.000000
vertex 0.000601 0.008368 0.150000
vertex 0.000864 0.008652 0.150000
endloop
endfacet
facet normal -0.325408 0.945574 0.000000
outer loop
vertex 0.002743 0.009608 0.000000
vertex 0.002516 0.009530 0.000000
vertex 0.002516 0.009530 0.150000
endloop
endfacet
facet normal -0.325408 0.945574 0.000000
outer loop
vertex 0.002743 0.009608 0.000000
vertex 0.002516 0.009530 0.150000
vertex 0.002743 0.009608 0.150000
endloop
endfacet
facet normal 0.996701 -0.081166 0.000000
outer loop
vertex 0.010145 0.003964 0.150000
vertex 0.010145 0.003964 0.000000
vertex 0.010184 0.004451 0.000000
endloop
endfacet
facet normal 0.996701 -0.081166 0.000000
outer loop
vertex 0.010145 0.003964 0.150000
vertex 0.010184 0.004451 0.000000
vertex 0.010184 0.004451 0.150000
endloop
endfacet
facet normal -0.392518 -0.919744 0.000000
outer loop
vertex 0.005908 0.000105 0.000000
vertex 0.005908 0.000105 0.150000
vertex 0.005592 0.000239 0.150000
endloop
endfacet
facet normal -0.392518 -0.919744 0.000000
outer loop
vertex 0.005908 0.000105 0.000000
vertex 0.005592 0.000239 0.150000
vertex 0.005592 0.000239 0.000000
endloop
endfacet
facet normal 0.291037 -0.956712 0.000000
outer loop
vertex 0.007747 0.000134 0.150000
vertex 0.007747 0.000134 0.000000
vertex 0.007936 0.000192 0.000000
endloop
endfacet
facet normal 0.291034 -0.956713 0.000000
outer loop
vertex 0.007747 0.000134 0.150000
vertex 0.007936 0.000192 0.000000
vertex 0.007936 0.000192 0.150000
endloop
endfacet
facet normal -0.571517 -0.820590 0.000000
outer loop
vertex 0.004563 0.000902 0.150000
vertex 0.004563 0.000902 0.000000
vertex 0.005252 0.000422 0.000000
endloop
endfacet
facet normal -0.571517 -0.820590 0.000000
outer loop
vertex 0.004563 0.000902 0.150000
vertex 0.005252 0.000422 0.000000
vertex 0.005252 0.000422 0.150000
endloop
endfacet
facet normal -0.214036 0.976826 0.000000
outer loop
vertex 0.002743 0.009608 0.000000
vertex 0.002743 0.009608 0.150000
vertex 0.002972 0.009659 0.150000
endloop
endfacet
facet normal -0.214036 0.976826 0.000000
outer loop
vertex 0.002743 0.009608 0.000000
vertex 0.002972 0.009659 0.150000
vertex 0.002972 0.009659 0.000000
endloop
endfacet
facet normal 0.900746 -0.434346 0.000000
outer loop
vertex 0.009746 0.002432 0.000000
vertex 0.009746 0.002432 0.150000
vertex 0.009546 0.002017 0.150000
endloop
endfacet
facet normal 0.900746 -0.434346 0.000000
outer loop
vertex 0.009746 0.002432 0.000000
vertex 0.009546 0.002017 0.150000
vertex 0.009546 0.002017 0.000000
endloop
endfacet
facet normal -0.999993 -0.003830 0.000000
outer loop
vertex 0.000007 0.007403 0.000000
vertex 0.000009 0.006873 0.000000
vertex 0.000009 0.006873 0.150000
endloop
endfacet
facet normal -0.999993 -0.003830 0.000000
outer loop
vertex 0.000007 0.007403 0.000000
vertex 0.000009 0.006873 0.150000
vertex 0.000007 0.007403 0.150000
endloop
endfacet
facet normal 0.656127 0.754651 0.000000
outer loop
vertex 0.008399 0.008423 0.000000
vertex 0.008232 0.008568 0.000000
vertex 0.008232 0.008568 0.150000
endloop
endfacet
facet normal 0.656127 0.754651 0.000000
outer loop
vertex 0.008399 0.008423 0.000000
vertex 0.008232 0.008568 0.150000
vertex 0.008399 0.008423 0.150000
endloop
endfacet
facet normal 0.673247 0.739417 0.000000
outer loop
vertex 0.008559 0.008277 0.000000
vertex 0.008399 0.008423 0.000000
vertex 0.008399 0.008423 0.150000
endloop
endfacet
facet normal 0.673247 0.739417 0.000000
outer loop
vertex 0.008559 0.008277 0.000000
vertex 0.008399 0.008423 0.150000
vertex 0.008559 0.008277 0.150000
endloop
endfacet
facet normal 0.701005 0.713156 0.000000
outer loop
vertex 0.008857 0.007990 0.150000
vertex 0.008857 0.007990 0.000000
vertex 0.008712 0.008132 0.000000
endloop
endfacet
facet normal 0.688091 0.725624 0.000000
outer loop
vertex 0.008712 0.008132 0.000000
vertex 0.008559 0.008277 0.000000
vertex 0.008559 0.008277 0.150000
endloop
endfacet
facet normal 0.701013 0.713148 0.000000
outer loop
vertex 0.008712 0.008132 0.150000
vertex 0.008857 0.007990 0.150000
vertex 0.008712 0.008132 0.000000
endloop
endfacet
facet normal 0.688091 0.725624 0.000000
outer loop
vertex 0.008559 0.008277 0.150000
vertex 0.008712 0.008132 0.150000
vertex 0.008712 0.008132 0.000000
endloop
endfacet
facet normal 0.756307 0.654217 0.000000
outer loop
vertex 0.009125 0.007680 0.000000
vertex 0.008857 0.007990 0.000000
vertex 0.008857 0.007990 0.150000
endloop
endfacet
facet normal 0.756305 0.654219 0.000000
outer loop
vertex 0.009125 0.007680 0.000000
vertex 0.008857 0.007990 0.150000
vertex 0.009125 0.007680 0.150000
endloop
endfacet
facet normal -0.569969 0.821666 0.000000
outer loop
vertex 0.001012 0.008765 0.150000
vertex 0.001012 0.008765 0.000000
vertex 0.000936 0.008712 0.000000
endloop
endfacet
facet normal -0.569968 0.821667 0.000000
outer loop
vertex 0.001012 0.008765 0.150000
vertex 0.000936 0.008712 0.000000
vertex 0.000936 0.008712 0.150000
endloop
endfacet
facet normal 0.553554 0.832813 0.000000
outer loop
vertex 0.007701 0.008979 0.000000
vertex 0.007518 0.009101 0.000000
vertex 0.007518 0.009101 0.150000
endloop
endfacet
facet normal 0.553551 0.832815 0.000000
outer loop
vertex 0.007701 0.008979 0.000000
vertex 0.007518 0.009101 0.150000
vertex 0.007701 0.008979 0.150000
endloop
endfacet
facet normal 0.585856 0.810415 0.000000
outer loop
vertex 0.007882 0.008848 0.000000
vertex 0.007701 0.008979 0.000000
vertex 0.007701 0.008979 0.150000
endloop
endfacet
facet normal 0.585856 0.810415 0.000000
outer loop
vertex 0.007882 0.008848 0.000000
vertex 0.007701 0.008979 0.150000
vertex 0.007882 0.008848 0.150000
endloop
endfacet
facet normal 0.636275 0.771462 0.000000
outer loop
vertex 0.008232 0.008568 0.150000
vertex 0.008232 0.008568 0.000000
vertex 0.008059 0.008711 0.000000
endloop
endfacet
facet normal 0.613103 0.790003 0.000000
outer loop
vertex 0.008059 0.008711 0.000000
vertex 0.007882 0.008848 0.000000
vertex 0.007882 0.008848 0.150000
endloop
endfacet
facet normal 0.636275 0.771462 0.000000
outer loop
vertex 0.008059 0.008711 0.150000
vertex 0.008232 0.008568 0.150000
vertex 0.008059 0.008711 0.000000
endloop
endfacet
facet normal 0.613103 0.790003 0.000000
outer loop
vertex 0.007882 0.008848 0.150000
vertex 0.008059 0.008711 0.150000
vertex 0.008059 0.008711 0.000000
endloop
endfacet
facet normal 0.000000 0.000000 -1.000000
outer loop
vertex 0.002573 0.003190 0.000000
vertex 0.000888 0.005568 0.000000
vertex 0.000654 0.005902 0.000000
endloop
endfacet
facet normal 0.000000 0.000000 -1.000000
outer loop
vertex 0.000654 0.005902 0.000000
vertex 0.000442 0.006209 0.000000
vertex 0.000258 0.006481 0.000000
endloop
endfacet
facet normal 0.000000 0.000000 -1.000000
outer loop
vertex 0.000258 0.006481 0.000000
vertex 0.000112 0.006705 0.000000
vertex 0.000009 0.006873 0.000000
endloop
endfacet
facet normal 0.000000 0.000000 -1.000000
outer loop
vertex 0.000009 0.006873 0.000000
vertex 0.000007 0.007403 0.000000
vertex 0.000026 0.007535 0.000000
endloop
endfacet
facet normal 0.000000 0.000000 -1.000000
outer loop
vertex 0.000026 0.007535 0.000000
vertex 0.000040 0.007583 0.000000
vertex 0.000067 0.007637 0.000000
endloop
endfacet
facet normal 0.000000 0.000000 -1.000000
outer loop
vertex 0.000067 0.007637 0.000000
vertex 0.000111 0.007711 0.000000
vertex 0.000171 0.007802 0.000000
endloop
endfacet
facet normal 0.000000 0.000000 -1.000000
outer loop
vertex 0.000171 0.007802 0.000000
vertex 0.000243 0.007905 0.000000
vertex 0.000325 0.008018 0.000000
endloop
endfacet
facet normal 0.000000 0.000000 -1.000000
outer loop
vertex 0.000325 0.008018 0.000000
vertex 0.000414 0.008135 0.000000
vertex 0.000507 0.008253 0.000000
endloop
endfacet
facet normal 0.000000 0.000000 -1.000000
outer loop
vertex 0.000507 0.008253 0.000000
vertex 0.000601 0.008368 0.000000
vertex 0.000864 0.008652 0.000000
endloop
endfacet
facet normal 0.000000 0.000000 -1.000000
outer loop
vertex 0.000864 0.008652 0.000000
vertex 0.000936 0.008712 0.000000
vertex 0.001012 0.008765 0.000000
endloop
endfacet
facet normal 0.000000 0.000000 -1.000000
outer loop
vertex 0.001012 0.008765 0.000000
vertex 0.001104 0.008822 0.000000
vertex 0.001211 0.008883 0.000000
endloop
endfacet
facet normal 0.000000 0.000000 -1.000000
outer loop
vertex 0.001211 0.008883 0.000000
vertex 0.001330 0.008947 0.000000
vertex 0.001458 0.009014 0.000000
endloop
endfacet
facet normal 0.000000 0.000000 -1.000000
outer loop
vertex 0.001458 0.009014 0.000000
vertex 0.001593 0.009082 0.000000
vertex 0.001732 0.009151 0.000000
endloop
endfacet
facet normal 0.000000 0.000000 -1.000000
outer loop
vertex 0.001732 0.009151 0.000000
vertex 0.001873 0.009220 0.000000
vertex 0.002149 0.009354 0.000000
endloop
endfacet
facet normal 0.000000 0.000000 -1.000000
outer loop
vertex 0.002279 0.009417 0.000000
vertex 0.002400 0.009477 0.000000
vertex 0.002516 0.009530 0.000000
endloop
endfacet
facet normal 0.000000 0.000000 -1.000000
outer loop
vertex 0.001458 0.009014 0.000000
vertex 0.001732 0.009151 0.000000
vertex 0.002149 0.009354 0.000000
endloop
endfacet
facet normal 0.000000 0.000000 -1.000000
outer loop
vertex 0.002149 0.009354 0.000000
vertex 0.002279 0.009417 0.000000
vertex 0.002516 0.009530 0.000000
endloop
endfacet
facet normal 0.000000 0.000000 -1.000000
outer loop
vertex 0.002516 0.009530 0.000000
vertex 0.002743 0.009608 0.000000
vertex 0.002972 0.009659 0.000000
endloop
endfacet
facet normal 0.000000 0.000000 -1.000000
outer loop
vertex 0.002972 0.009659 0.000000
vertex 0.004118 0.009796 0.000000
vertex 0.004806 0.009791 0.000000
endloop
endfacet
facet normal 0.000000 0.000000 -1.000000
outer loop
vertex 0.004806 0.009791 0.000000
vertex 0.005862 0.009670 0.000000
vertex 0.006776 0.009462 0.000000
endloop
endfacet
facet normal 0.000000 0.000000 -1.000000
outer loop
vertex 0.006776 0.009462 0.000000
vertex 0.007146 0.009311 0.000000
vertex 0.007518 0.009101 0.000000
endloop
endfacet
facet normal 0.000000 0.000000 -1.000000
outer loop
vertex 0.007518 0.009101 0.000000
vertex 0.007701 0.008979 0.000000
vertex 0.007882 0.008848 0.000000
endloop
endfacet
facet normal 0.000000 0.000000 -1.000000
outer loop
vertex 0.007882 0.008848 0.000000
vertex 0.008059 0.008711 0.000000
vertex 0.008232 0.008568 0.000000
endloop
endfacet
facet normal 0.000000 0.000000 -1.000000
outer loop
vertex 0.008232 0.008568 0.000000
vertex 0.008399 0.008423 0.000000
vertex 0.008559 0.008277 0.000000
endloop
endfacet
facet normal 0.000000 0.000000 -1.000000
outer loop
vertex 0.008559 0.008277 0.000000
vertex 0.008712 0.008132 0.000000
vertex 0.008857 0.007990 0.000000
endloop
endfacet
facet normal 0.000000 0.000000 -1.000000
outer loop
vertex 0.008857 0.007990 0.000000
vertex 0.009125 0.007680 0.000000
vertex 0.009370 0.007313 0.000000
endloop
endfacet
facet normal 0.000000 0.000000 -1.000000
outer loop
vertex 0.009370 0.007313 0.000000
vertex 0.009484 0.007112 0.000000
vertex 0.009590 0.006900 0.000000
endloop
endfacet
facet normal 0.000000 0.000000 -1.000000
outer loop
vertex 0.009590 0.006900 0.000000
vertex 0.009784 0.006448 0.000000
vertex 0.009870 0.006210 0.000000
endloop
endfacet
facet normal 0.000000 0.000000 -1.000000
outer loop
vertex 0.009870 0.006210 0.000000
vertex 0.009950 0.005965 0.000000
vertex 0.010086 0.005462 0.000000
endloop
endfacet
facet normal 0.000000 0.000000 -1.000000
outer loop
vertex 0.010086 0.005462 0.000000
vertex 0.010169 0.004952 0.000000
vertex 0.010184 0.004451 0.000000
endloop
endfacet
facet normal 0.000000 0.000000 -1.000000
outer loop
vertex 0.010184 0.004451 0.000000
vertex 0.010145 0.003964 0.000000
vertex 0.010063 0.003495 0.000000
endloop
endfacet
facet normal 0.000000 0.000000 -1.000000
outer loop
vertex 0.010063 0.003495 0.000000
vertex 0.010010 0.003269 0.000000
vertex 0.009951 0.003050 0.000000
endloop
endfacet
facet normal 0.000000 0.000000 -1.000000
outer loop
vertex 0.009951 0.003050 0.000000
vertex 0.009888 0.002839 0.000000
vertex 0.009822 0.002635 0.000000
endloop
endfacet
facet normal 0.000000 0.000000 -1.000000
outer loop
vertex 0.009822 0.002635 0.000000
vertex 0.009746 0.002432 0.000000
vertex 0.009546 0.002017 0.000000
endloop
endfacet
facet normal 0.000000 0.000000 -1.000000
outer loop
vertex 0.009546 0.002017 0.000000
vertex 0.009299 0.001604 0.000000
vertex 0.009165 0.001404 0.000000
endloop
endfacet
facet normal 0.000000 0.000000 -1.000000
outer loop
vertex 0.009165 0.001404 0.000000
vertex 0.009028 0.001211 0.000000
vertex 0.008890 0.001029 0.000000
endloop
endfacet
facet normal 0.000000 0.000000 -1.000000
outer loop
vertex 0.008890 0.001029 0.000000
vertex 0.008753 0.000859 0.000000
vertex 0.008622 0.000704 0.000000
endloop
endfacet
facet normal 0.000000 0.000000 -1.000000
outer loop
vertex 0.008622 0.000704 0.000000
vertex 0.008498 0.000566 0.000000
vertex 0.008384 0.000447 0.000000
endloop
endfacet
facet normal 0.000000 0.000000 -1.000000
outer loop
vertex 0.008384 0.000447 0.000000
vertex 0.008260 0.000347 0.000000
vertex 0.008109 0.000262 0.000000
endloop
endfacet
facet normal 0.000000 0.000000 -1.000000
outer loop
vertex 0.008109 0.000262 0.000000
vertex 0.007936 0.000192 0.000000
vertex 0.007747 0.000134 0.000000
endloop
endfacet
facet normal 0.000000 0.000000 -1.000000
outer loop
vertex 0.007747 0.000134 0.000000
vertex 0.007341 0.000054 0.000000
vertex 0.006935 0.000012 0.000000
endloop
endfacet
facet normal 0.000000 0.000000 -1.000000
outer loop
vertex 0.006935 0.000012 0.000000
vertex 0.006745 0.000003 0.000000
vertex 0.006572 -0.000000 0.000000
endloop
endfacet
facet normal 0.000000 0.000000 -1.000000
outer loop
vertex 0.006572 -0.000000 0.000000
vertex 0.006421 0.000003 0.000000
vertex 0.006298 0.000009 0.000000
endloop
endfacet
facet normal 0.000000 0.000000 -1.000000
outer loop
vertex 0.006298 0.000009 0.000000
vertex 0.006182 0.000026 0.000000
vertex 0.005908 0.000105 0.000000
endloop
endfacet
facet normal 0.000000 0.000000 -1.000000
outer loop
vertex 0.005908 0.000105 0.000000
vertex 0.005592 0.000239 0.000000
vertex 0.005252 0.000422 0.000000
endloop
endfacet
facet normal 0.000000 0.000000 -1.000000
outer loop
vertex 0.005252 0.000422 0.000000
vertex 0.004563 0.000902 0.000000
vertex 0.004240 0.001190 0.000000
endloop
endfacet
facet normal 0.000000 0.000000 -1.000000
outer loop
vertex 0.004240 0.001190 0.000000
vertex 0.004073 0.001357 0.000000
vertex 0.003903 0.001536 0.000000
endloop
endfacet
facet normal 0.000000 0.000000 -1.000000
outer loop
vertex 0.003903 0.001536 0.000000
vertex 0.003556 0.001928 0.000000
vertex 0.003383 0.002135 0.000000
endloop
endfacet
facet normal 0.000000 0.000000 -1.000000
outer loop
vertex 0.003383 0.002135 0.000000
vertex 0.003211 0.002346 0.000000
vertex 0.003043 0.002560 0.000000
endloop
endfacet
facet normal 0.000000 0.000000 -1.000000
outer loop
vertex 0.003043 0.002560 0.000000
vertex 0.002879 0.002773 0.000000
vertex 0.002722 0.002984 0.000000
endloop
endfacet
facet normal 0.000000 0.000000 -1.000000
outer loop
vertex 0.002722 0.002984 0.000000
vertex 0.002573 0.003190 0.000000
vertex 0.000654 0.005902 0.000000
endloop
endfacet
facet normal 0.000000 0.000000 -1.000000
outer loop
vertex 0.000654 0.005902 0.000000
vertex 0.000258 0.006481 0.000000
vertex 0.000009 0.006873 0.000000
endloop
endfacet
facet normal 0.000000 0.000000 -1.000000
outer loop
vertex 0.000009 0.006873 0.000000
vertex 0.000026 0.007535 0.000000
vertex 0.000067 0.007637 0.000000
endloop
endfacet
facet normal 0.000000 0.000000 -1.000000
outer loop
vertex 0.000067 0.007637 0.000000
vertex 0.000171 0.007802 0.000000
vertex 0.000325 0.008018 0.000000
endloop
endfacet
facet normal 0.000000 0.000000 -1.000000
outer loop
vertex 0.000325 0.008018 0.000000
vertex 0.000507 0.008253 0.000000
vertex 0.000864 0.008652 0.000000
endloop
endfacet
facet normal 0.000000 0.000000 -1.000000
outer loop
vertex 0.000864 0.008652 0.000000
vertex 0.001012 0.008765 0.000000
vertex 0.001211 0.008883 0.000000
endloop
endfacet
facet normal 0.000000 0.000000 -1.000000
outer loop
vertex 0.001211 0.008883 0.000000
vertex 0.001458 0.009014 0.000000
vertex 0.002149 0.009354 0.000000
endloop
endfacet
facet normal 0.000000 0.000000 -1.000000
outer loop
vertex 0.002149 0.009354 0.000000
vertex 0.002516 0.009530 0.000000
vertex 0.002972 0.009659 0.000000
endloop
endfacet
facet normal 0.000000 0.000000 -1.000000
outer loop
vertex 0.002972 0.009659 0.000000
vertex 0.004806 0.009791 0.000000
vertex 0.006776 0.009462 0.000000
endloop
endfacet
facet normal 0.000000 0.000000 -1.000000
outer loop
vertex 0.006776 0.009462 0.000000
vertex 0.007518 0.009101 0.000000
vertex 0.007882 0.008848 0.000000
endloop
endfacet
facet normal 0.000000 0.000000 -1.000000
outer loop
vertex 0.007882 0.008848 0.000000
vertex 0.008232 0.008568 0.000000
vertex 0.008559 0.008277 0.000000
endloop
endfacet
facet normal 0.000000 0.000000 -1.000000
outer loop
vertex 0.008559 0.008277 0.000000
vertex 0.008857 0.007990 0.000000
vertex 0.009370 0.007313 0.000000
endloop
endfacet
facet normal 0.000000 0.000000 -1.000000
outer loop
vertex 0.009370 0.007313 0.000000
vertex 0.009590 0.006900 0.000000
vertex 0.009870 0.006210 0.000000
endloop
endfacet
facet normal 0.000000 0.000000 -1.000000
outer loop
vertex 0.009870 0.006210 0.000000
vertex 0.010086 0.005462 0.000000
vertex 0.010184 0.004451 0.000000
endloop
endfacet
facet normal 0.000000 0.000000 -1.000000
outer loop
vertex 0.010184 0.004451 0.000000
vertex 0.010063 0.003495 0.000000
vertex 0.009951 0.003050 0.000000
endloop
endfacet
facet normal 0.000000 0.000000 -1.000000
outer loop
vertex 0.009951 0.003050 0.000000
vertex 0.009822 0.002635 0.000000
vertex 0.009546 0.002017 0.000000
endloop
endfacet
facet normal 0.000000 0.000000 -1.000000
outer loop
vertex 0.009546 0.002017 0.000000
vertex 0.009165 0.001404 0.000000
vertex 0.008890 0.001029 0.000000
endloop
endfacet
facet normal 0.000000 0.000000 -1.000000
outer loop
vertex 0.008890 0.001029 0.000000
vertex 0.008622 0.000704 0.000000
vertex 0.008384 0.000447 0.000000
endloop
endfacet
facet normal 0.000000 0.000000 -1.000000
outer loop
vertex 0.008384 0.000447 0.000000
vertex 0.008109 0.000262 0.000000
vertex 0.007747 0.000134 0.000000
endloop
endfacet
facet normal 0.000000 0.000000 -1.000000
outer loop
vertex 0.007747 0.000134 0.000000
vertex 0.006935 0.000012 0.000000
vertex 0.006572 -0.000000 0.000000
endloop
endfacet
facet normal 0.000000 0.000000 -1.000000
outer loop
vertex 0.006572 -0.000000 0.000000
vertex 0.006298 0.000009 0.000000
vertex 0.005908 0.000105 0.000000
endloop
endfacet
facet normal 0.000000 0.000000 -1.000000
outer loop
vertex 0.005908 0.000105 0.000000
vertex 0.005252 0.000422 0.000000
vertex 0.004240 0.001190 0.000000
endloop
endfacet
facet normal 0.000000 0.000000 -1.000000
outer loop
vertex 0.004240 0.001190 0.000000
vertex 0.003903 0.001536 0.000000
vertex 0.003383 0.002135 0.000000
endloop
endfacet
facet normal 0.000000 0.000000 -1.000000
outer loop
vertex 0.003383 0.002135 0.000000
vertex 0.003043 0.002560 0.000000
vertex 0.002722 0.002984 0.000000
endloop
endfacet
facet normal 0.000000 0.000000 -1.000000
outer loop
vertex 0.002722 0.002984 0.000000
vertex 0.000654 0.005902 0.000000
vertex 0.000009 0.006873 0.000000
endloop
endfacet
facet normal 0.000000 0.000000 -1.000000
outer loop
vertex 0.000009 0.006873 0.000000
vertex 0.000067 0.007637 0.000000
vertex 0.000325 0.008018 0.000000
endloop
endfacet
facet normal 0.000000 0.000000 -1.000000
outer loop
vertex 0.000325 0.008018 0.000000
vertex 0.000864 0.008652 0.000000
vertex 0.001211 0.008883 0.000000
endloop
endfacet
facet normal 0.000000 0.000000 -1.000000
outer loop
vertex 0.001211 0.008883 0.000000
vertex 0.002149 0.009354 0.000000
vertex 0.002972 0.009659 0.000000
endloop
endfacet
facet normal 0.000000 0.000000 -1.000000
outer loop
vertex 0.002972 0.009659 0.000000
vertex 0.006776 0.009462 0.000000
vertex 0.007882 0.008848 0.000000
endloop
endfacet
facet normal 0.000000 0.000000 -1.000000
outer loop
vertex 0.007882 0.008848 0.000000
vertex 0.008559 0.008277 0.000000
vertex 0.009370 0.007313 0.000000
endloop
endfacet
facet normal 0.000000 0.000000 -1.000000
outer loop
vertex 0.009370 0.007313 0.000000
vertex 0.009870 0.006210 0.000000
vertex 0.010184 0.004451 0.000000
endloop
endfacet
facet normal 0.000000 0.000000 -1.000000
outer loop
vertex 0.010184 0.004451 0.000000
vertex 0.009951 0.003050 0.000000
vertex 0.009546 0.002017 0.000000
endloop
endfacet
facet normal 0.000000 0.000000 -1.000000
outer loop
vertex 0.009546 0.002017 0.000000
vertex 0.008890 0.001029 0.000000
vertex 0.008384 0.000447 0.000000
endloop
endfacet
facet normal 0.000000 0.000000 -1.000000
outer loop
vertex 0.008384 0.000447 0.000000
vertex 0.007747 0.000134 0.000000
vertex 0.006572 -0.000000 0.000000
endloop
endfacet
facet normal 0.000000 0.000000 -1.000000
outer loop
vertex 0.006572 -0.000000 0.000000
vertex 0.005908 0.000105 0.000000
vertex 0.004240 0.001190 0.000000
endloop
endfacet
facet normal 0.000000 0.000000 -1.000000
outer loop
vertex 0.004240 0.001190 0.000000
vertex 0.003383 0.002135 0.000000
vertex 0.002722 0.002984 0.000000
endloop
endfacet
facet normal 0.000000 0.000000 -1.000000
outer loop
vertex 0.002722 0.002984 0.000000
vertex 0.000009 0.006873 0.000000
vertex 0.000325 0.008018 0.000000
endloop
endfacet
facet normal 0.000000 0.000000 -1.000000
outer loop
vertex 0.000325 0.008018 0.000000
vertex 0.001211 0.008883 0.000000
vertex 0.002972 0.009659 0.000000
endloop
endfacet
facet normal 0.000000 0.000000 -1.000000
outer loop
vertex 0.002972 0.009659 0.000000
vertex 0.007882 0.008848 0.000000
vertex 0.009370 0.007313 0.000000
endloop
endfacet
facet normal 0.000000 0.000000 -1.000000
outer loop
vertex 0.009370 0.007313 0.000000
vertex 0.010184 0.004451 0.000000
vertex 0.009546 0.002017 0.000000
endloop
endfacet
facet normal 0.000000 0.000000 -1.000000
outer loop
vertex 0.009546 0.002017 0.000000
vertex 0.008384 0.000447 0.000000
vertex 0.006572 -0.000000 0.000000
endloop
endfacet
facet normal 0.000000 0.000000 -1.000000
outer loop
vertex 0.006572 -0.000000 0.000000
vertex 0.004240 0.001190 0.000000
vertex 0.002722 0.002984 0.000000
endloop
endfacet
facet normal 0.000000 0.000000 -1.000000
outer loop
vertex 0.002722 0.002984 0.000000
vertex 0.000325 0.008018 0.000000
vertex 0.002972 0.009659 0.000000
endloop
endfacet
facet normal 0.000000 0.000000 -1.000000
outer loop
vertex 0.002972 0.009659 0.000000
vertex 0.009370 0.007313 0.000000
vertex 0.009546 0.002017 0.000000
endloop
endfacet
facet normal 0.000000 0.000000 -1.000000
outer loop
vertex 0.009546 0.002017 0.000000
vertex 0.006572 -0.000000 0.000000
vertex 0.002722 0.002984 0.000000
endloop
endfacet
facet normal 0.000000 0.000000 -1.000000
outer loop
vertex 0.002972 0.009659 0.000000
vertex 0.009546 0.002017 0.000000
vertex 0.002722 0.002984 0.000000
endloop
endfacet
facet normal 0.858682 -0.512509 0.000000
outer loop
vertex 0.009546 0.002017 0.000000
vertex 0.009546 0.002017 0.150000
vertex 0.009299 0.001604 0.150000
endloop
endfacet
facet normal 0.858685 -0.512505 0.000000
outer loop
vertex 0.009546 0.002017 0.000000
vertex 0.009299 0.001604 0.150000
vertex 0.009299 0.001604 0.000000
endloop
endfacet
facet normal 0.194482 -0.980906 0.000000
outer loop
vertex 0.007341 0.000054 0.150000
vertex 0.007341 0.000054 0.000000
vertex 0.007747 0.000134 0.000000
endloop
endfacet
facet normal 0.194482 -0.980906 0.000000
outer loop
vertex 0.007341 0.000054 0.150000
vertex 0.007747 0.000134 0.000000
vertex 0.007747 0.000134 0.150000
endloop
endfacet
facet normal 0.871622 0.490178 0.000000
outer loop
vertex 0.009484 0.007112 0.000000
vertex 0.009370 0.007313 0.000000
vertex 0.009370 0.007313 0.150000
endloop
endfacet
facet normal 0.871625 0.490173 0.000000
outer loop
vertex 0.009484 0.007112 0.000000
vertex 0.009370 0.007313 0.150000
vertex 0.009484 0.007112 0.150000
endloop
endfacet
facet normal 0.919264 0.393643 0.000000
outer loop
vertex 0.009784 0.006448 0.150000
vertex 0.009784 0.006448 0.000000
vertex 0.009590 0.006900 0.000000
endloop
endfacet
facet normal 0.893135 0.449789 0.000000
outer loop
vertex 0.009590 0.006900 0.000000
vertex 0.009484 0.007112 0.000000
vertex 0.009484 0.007112 0.150000
endloop
endfacet
facet normal 0.919261 0.393648 0.000000
outer loop
vertex 0.009590 0.006900 0.150000
vertex 0.009784 0.006448 0.150000
vertex 0.009590 0.006900 0.000000
endloop
endfacet
facet normal 0.893140 0.449779 0.000000
outer loop
vertex 0.009484 0.007112 0.150000
vertex 0.009590 0.006900 0.150000
vertex 0.009590 0.006900 0.000000
endloop
endfacet
facet normal 0.114573 0.993415 0.000000
outer loop
vertex 0.005862 0.009670 0.000000
vertex 0.004806 0.009791 0.000000
vertex 0.004806 0.009791 0.150000
endloop
endfacet
facet normal 0.114573 0.993415 0.000000
outer loop
vertex 0.005862 0.009670 0.000000
vertex 0.004806 0.009791 0.150000
vertex 0.005862 0.009670 0.150000
endloop
endfacet
facet normal 0.000000 0.000000 1.000000
outer loop
vertex 0.009951 0.003050 0.000000
vertex 0.010010 0.003269 0.000000
vertex 0.010063 0.003495 0.000000
endloop
endfacet
facet normal 0.973561 -0.228428 0.000000
outer loop
vertex 0.010063 0.003495 0.000000
vertex 0.010063 0.003495 0.150000
vertex 0.010010 0.003269 0.150000
endloop
endfacet
facet normal 0.965814 -0.259236 -0.000049
outer loop
vertex 0.010063 0.003495 0.000000
vertex 0.010010 0.003269 0.150000
vertex 0.009951 0.003050 0.150000
endloop
endfacet
facet normal 0.000000 0.000000 1.000000
outer loop
vertex 0.009888 0.002839 0.000000
vertex 0.009951 0.003050 0.000000
vertex 0.010063 0.003495 0.000000
endloop
endfacet
facet normal 0.000000 0.000000 1.000000
outer loop
vertex 0.009746 0.002432 0.000000
vertex 0.009822 0.002635 0.000000
vertex 0.009888 0.002839 0.000000
endloop
endfacet
facet normal 0.936295 -0.351216 0.000000
outer loop
vertex 0.009822 0.002635 0.150000
vertex 0.009746 0.002432 0.150000
vertex 0.009746 0.002432 0.000000
endloop
endfacet
facet normal 0.958405 -0.285412 -0.000132
outer loop
vertex 0.010063 0.003495 0.000000
vertex 0.009951 0.003050 0.150000
vertex 0.009888 0.002839 0.150000
endloop
endfacet
facet normal 0.951716 -0.306979 -0.000068
outer loop
vertex 0.009888 0.002839 0.150000
vertex 0.009822 0.002635 0.150000
vertex 0.009746 0.002432 0.000000
endloop
endfacet
facet normal 0.000000 0.000000 1.000000
outer loop
vertex 0.009746 0.002432 0.000000
vertex 0.009888 0.002839 0.000000
vertex 0.010063 0.003495 0.000000
endloop
endfacet
facet normal 0.958404 -0.285417 -0.000132
outer loop
vertex 0.010063 0.003495 0.000000
vertex 0.009888 0.002839 0.150000
vertex 0.009746 0.002432 0.000000
endloop
endfacet
facet normal 0.102149 -0.994769 0.000000
outer loop
vertex 0.007341 0.000054 0.000000
vertex 0.007341 0.000054 0.150000
vertex 0.006935 0.000012 0.150000
endloop
endfacet
facet normal 0.102150 -0.994769 0.000000
outer loop
vertex 0.007341 0.000054 0.000000
vertex 0.006935 0.000012 0.150000
vertex 0.006935 0.000012 0.000000
endloop
endfacet
facet normal -0.894933 0.446200 0.000000
outer loop
vertex 0.000067 0.007637 0.150000
vertex 0.000067 0.007637 0.000000
vertex 0.000040 0.007583 0.000000
endloop
endfacet
facet normal -0.894933 0.446200 0.000000
outer loop
vertex 0.000067 0.007637 0.150000
vertex 0.000040 0.007583 0.000000
vertex 0.000040 0.007583 0.150000
endloop
endfacet
facet normal 0.000000 0.000000 1.000000
outer loop
vertex 0.009028 0.001211 0.000000
vertex 0.009165 0.001404 0.000000
vertex 0.009299 0.001604 0.000000
endloop
endfacet
facet normal 0.830794 -0.556580 0.000000
outer loop
vertex 0.009299 0.001604 0.000000
vertex 0.009299 0.001604 0.150000
vertex 0.009165 0.001404 0.150000
endloop
endfacet
facet normal 0.813640 -0.581369 -0.000048
outer loop
vertex 0.009299 0.001604 0.000000
vertex 0.009165 0.001404 0.150000
vertex 0.009028 0.001211 0.150000
endloop
endfacet
facet normal 0.000000 0.000000 1.000000
outer loop
vertex 0.008890 0.001029 0.000000
vertex 0.009028 0.001211 0.000000
vertex 0.009299 0.001604 0.000000
endloop
endfacet
facet normal 0.780319 -0.625381 0.000000
outer loop
vertex 0.008753 0.000859 0.150000
vertex 0.008753 0.000859 0.000000
vertex 0.008890 0.001029 0.000000
endloop
endfacet
facet normal 0.797004 -0.603974 -0.000138
outer loop
vertex 0.009299 0.001604 0.000000
vertex 0.009028 0.001211 0.150000
vertex 0.008890 0.001029 0.150000
endloop
endfacet
facet normal 0.780316 -0.625386 0.000000
outer loop
vertex 0.008890 0.001029 0.150000
vertex 0.008753 0.000859 0.150000
vertex 0.008890 0.001029 0.000000
endloop
endfacet
facet normal 0.814325 -0.580410 0.000000
outer loop
vertex 0.009299 0.001604 0.000000
vertex 0.008890 0.001029 0.150000
vertex 0.008890 0.001029 0.000000
endloop
endfacet
facet normal 0.986975 0.160874 0.000000
outer loop
vertex 0.010169 0.004952 0.000000
vertex 0.010086 0.005462 0.000000
vertex 0.010086 0.005462 0.150000
endloop
endfacet
facet normal 0.986975 0.160877 0.000000
outer loop
vertex 0.010169 0.004952 0.000000
vertex 0.010086 0.005462 0.150000
vertex 0.010169 0.004952 0.150000
endloop
endfacet
facet normal 0.000000 0.000000 1.000000
outer loop
vertex 0.002573 0.003190 0.000000
vertex 0.002722 0.002984 0.000000
vertex 0.002879 0.002773 0.000000
endloop
endfacet
facet normal 0.000000 0.000000 1.000000
outer loop
vertex 0.002879 0.002773 0.000000
vertex 0.003043 0.002560 0.000000
vertex 0.003211 0.002346 0.000000
endloop
endfacet
facet normal 0.000000 0.000000 1.000000
outer loop
vertex 0.003211 0.002346 0.000000
vertex 0.003383 0.002135 0.000000
vertex 0.003556 0.001928 0.000000
endloop
endfacet
facet normal -0.766391 -0.642374 0.000000
outer loop
vertex 0.003556 0.001928 0.000000
vertex 0.003556 0.001928 0.150000
vertex 0.003383 0.002135 0.150000
endloop
endfacet
facet normal -0.776426 -0.630208 -0.000028
outer loop
vertex 0.003556 0.001928 0.000000
vertex 0.003383 0.002135 0.150000
vertex 0.003211 0.002346 0.150000
endloop
endfacet
facet normal 0.000000 0.000000 1.000000
outer loop
vertex 0.002879 0.002773 0.000000
vertex 0.003211 0.002346 0.000000
vertex 0.003556 0.001928 0.000000
endloop
endfacet
facet normal 0.000000 0.000000 1.000000
outer loop
vertex 0.000888 0.005568 0.000000
vertex 0.002573 0.003190 0.000000
vertex 0.002879 0.002773 0.000000
endloop
endfacet
facet normal 0.000000 0.000000 1.000000
outer loop
vertex 0.000442 0.006209 0.000000
vertex 0.000654 0.005902 0.000000
vertex 0.000888 0.005568 0.000000
endloop
endfacet
facet normal 0.000000 0.000000 1.000000
outer loop
vertex 0.000112 0.006705 0.000000
vertex 0.000258 0.006481 0.000000
vertex 0.000442 0.006209 0.000000
endloop
endfacet
facet normal -0.853674 -0.520807 0.000000
outer loop
vertex 0.000009 0.006873 0.150000
vertex 0.000009 0.006873 0.000000
vertex 0.000112 0.006705 0.000000
endloop
endfacet
facet normal -0.853674 -0.520807 0.000000
outer loop
vertex 0.000112 0.006705 0.150000
vertex 0.000009 0.006873 0.150000
vertex 0.000112 0.006705 0.000000
endloop
endfacet
facet normal 0.000000 0.000000 1.000000
outer loop
vertex 0.000112 0.006705 0.000000
vertex 0.000442 0.006209 0.000000
vertex 0.000888 0.005568 0.000000
endloop
endfacet
facet normal 0.000000 0.000000 1.000000
outer loop
vertex 0.000888 0.005568 0.000000
vertex 0.002879 0.002773 0.000000
vertex 0.003556 0.001928 0.000000
endloop
endfacet
facet normal -0.785445 -0.618931 -0.000081
outer loop
vertex 0.003556 0.001928 0.000000
vertex 0.003211 0.002346 0.150000
vertex 0.003043 0.002560 0.150000
endloop
endfacet
facet normal -0.793753 -0.608240 -0.000154
outer loop
vertex 0.003556 0.001928 0.000000
vertex 0.003043 0.002560 0.150000
vertex 0.002879 0.002773 0.150000
endloop
endfacet
facet normal 0.000000 0.000000 1.000000
outer loop
vertex 0.000112 0.006705 0.000000
vertex 0.000888 0.005568 0.000000
vertex 0.003556 0.001928 0.000000
endloop
endfacet
facet normal -0.836995 -0.547211 0.000000
outer loop
vertex 0.000258 0.006481 0.150000
vertex 0.000112 0.006705 0.150000
vertex 0.000112 0.006705 0.000000
endloop
endfacet
facet normal -0.828254 -0.560353 -0.000028
outer loop
vertex 0.000442 0.006209 0.150000
vertex 0.000258 0.006481 0.150000
vertex 0.000112 0.006705 0.000000
endloop
endfacet
facet normal -0.811167 -0.584814 -0.000365
outer loop
vertex 0.000112 0.006705 0.000000
vertex 0.003556 0.001928 0.000000
vertex 0.002879 0.002773 0.150000
endloop
endfacet
facet normal -0.801606 -0.597853 -0.000883
outer loop
vertex 0.000112 0.006705 0.000000
vertex 0.002879 0.002773 0.150000
vertex 0.002722 0.002984 0.150000
endloop
endfacet
facet normal -0.822986 -0.568061 -0.000065
outer loop
vertex 0.000654 0.005902 0.150000
vertex 0.000442 0.006209 0.150000
vertex 0.000112 0.006705 0.000000
endloop
endfacet
facet normal -0.819571 -0.572978 -0.000104
outer loop
vertex 0.000888 0.005568 0.150000
vertex 0.000654 0.005902 0.150000
vertex 0.000112 0.006705 0.000000
endloop
endfacet
facet normal -0.809240 -0.587478 -0.000493
outer loop
vertex 0.000112 0.006705 0.000000
vertex 0.002722 0.002984 0.150000
vertex 0.002573 0.003190 0.150000
endloop
endfacet
facet normal -0.815992 -0.578064 -0.000161
outer loop
vertex 0.002573 0.003190 0.150000
vertex 0.000888 0.005568 0.150000
vertex 0.000112 0.006705 0.000000
endloop
endfacet
facet normal -0.525788 0.850616 0.000000
outer loop
vertex 0.001104 0.008822 0.000000
vertex 0.001012 0.008765 0.000000
vertex 0.001012 0.008765 0.150000
endloop
endfacet
facet normal -0.525788 0.850616 0.000000
outer loop
vertex 0.001104 0.008822 0.000000
vertex 0.001012 0.008765 0.150000
vertex 0.001104 0.008822 0.150000
endloop
endfacet
facet normal -0.496468 0.868055 0.000000
outer loop
vertex 0.001211 0.008883 0.000000
vertex 0.001104 0.008822 0.000000
vertex 0.001104 0.008822 0.150000
endloop
endfacet
facet normal -0.496467 0.868056 0.000000
outer loop
vertex 0.001211 0.008883 0.000000
vertex 0.001104 0.008822 0.150000
vertex 0.001211 0.008883 0.150000
endloop
endfacet
facet normal -0.476096 0.879393 0.000000
outer loop
vertex 0.001330 0.008947 0.000000
vertex 0.001211 0.008883 0.000000
vertex 0.001211 0.008883 0.150000
endloop
endfacet
facet normal -0.476096 0.879393 0.000000
outer loop
vertex 0.001330 0.008947 0.000000
vertex 0.001211 0.008883 0.150000
vertex 0.001330 0.008947 0.150000
endloop
endfacet
facet normal -0.461587 0.887095 0.000000
outer loop
vertex 0.001458 0.009014 0.000000
vertex 0.001330 0.008947 0.000000
vertex 0.001330 0.008947 0.150000
endloop
endfacet
facet normal -0.461587 0.887095 0.000000
outer loop
vertex 0.001458 0.009014 0.000000
vertex 0.001330 0.008947 0.150000
vertex 0.001458 0.009014 0.150000
endloop
endfacet
facet normal -0.451209 0.892418 0.000000
outer loop
vertex 0.001593 0.009082 0.000000
vertex 0.001458 0.009014 0.000000
vertex 0.001458 0.009014 0.150000
endloop
endfacet
facet normal -0.451209 0.892418 0.000000
outer loop
vertex 0.001593 0.009082 0.000000
vertex 0.001458 0.009014 0.150000
vertex 0.001593 0.009082 0.150000
endloop
endfacet
facet normal -0.443957 0.896048 0.000000
outer loop
vertex 0.001732 0.009151 0.000000
vertex 0.001593 0.009082 0.000000
vertex 0.001593 0.009082 0.150000
endloop
endfacet
facet normal -0.443959 0.896047 0.000000
outer loop
vertex 0.001732 0.009151 0.000000
vertex 0.001593 0.009082 0.150000
vertex 0.001732 0.009151 0.150000
endloop
endfacet
facet normal 0.000000 0.000000 -1.000000
outer loop
vertex 0.002279 0.009417 0.000000
vertex 0.002149 0.009354 0.000000
vertex 0.001873 0.009220 0.000000
endloop
endfacet
facet normal -0.439248 0.898366 0.000000
outer loop
vertex 0.001873 0.009220 0.000000
vertex 0.001732 0.009151 0.000000
vertex 0.001732 0.009151 0.150000
endloop
endfacet
facet normal -0.439248 0.898366 0.000000
outer loop
vertex 0.001873 0.009220 0.000000
vertex 0.001732 0.009151 0.150000
vertex 0.001873 0.009220 0.150000
endloop
endfacet
facet normal 0.000000 0.000000 -1.000000
outer loop
vertex 0.002400 0.009477 0.000000
vertex 0.002279 0.009417 0.000000
vertex 0.001873 0.009220 0.000000
endloop
endfacet
facet normal -0.417127 0.908848 0.000000
outer loop
vertex 0.002516 0.009530 0.150000
vertex 0.002516 0.009530 0.000000
vertex 0.002400 0.009477 0.000000
endloop
endfacet
facet normal -0.417126 0.908849 0.000000
outer loop
vertex 0.002400 0.009477 0.150000
vertex 0.002516 0.009530 0.150000
vertex 0.002400 0.009477 0.000000
endloop
endfacet
facet normal -0.438730 0.898619 0.000000
outer loop
vertex 0.002400 0.009477 0.000000
vertex 0.001873 0.009220 0.000000
vertex 0.001873 0.009220 0.150000
endloop
endfacet
facet normal -0.436667 0.899623 0.000009
outer loop
vertex 0.002400 0.009477 0.000000
vertex 0.001873 0.009220 0.150000
vertex 0.002149 0.009354 0.150000
endloop
endfacet
facet normal -0.443509 0.896270 0.000000
outer loop
vertex 0.002279 0.009417 0.150000
vertex 0.002400 0.009477 0.150000
vertex 0.002400 0.009477 0.000000
endloop
endfacet
facet normal -0.438616 0.898674 0.000005
outer loop
vertex 0.002149 0.009354 0.150000
vertex 0.002279 0.009417 0.150000
vertex 0.002400 0.009477 0.000000
endloop
endfacet
facet normal -0.277729 -0.960659 0.000000
outer loop
vertex 0.005908 0.000105 0.150000
vertex 0.005908 0.000105 0.000000
vertex 0.006182 0.000026 0.000000
endloop
endfacet
facet normal -0.277728 -0.960660 0.000000
outer loop
vertex 0.005908 0.000105 0.150000
vertex 0.006182 0.000026 0.000000
vertex 0.006182 0.000026 0.150000
endloop
endfacet
facet normal 0.378225 -0.925714 0.000000
outer loop
vertex 0.007936 0.000192 0.150000
vertex 0.007936 0.000192 0.000000
vertex 0.008109 0.000262 0.000000
endloop
endfacet
facet normal 0.378225 -0.925714 0.000000
outer loop
vertex 0.007936 0.000192 0.150000
vertex 0.008109 0.000262 0.000000
vertex 0.008109 0.000262 0.150000
endloop
endfacet
facet normal 0.629216 -0.777231 0.000000
outer loop
vertex 0.008260 0.000347 0.150000
vertex 0.008260 0.000347 0.000000
vertex 0.008384 0.000447 0.000000
endloop
endfacet
facet normal 0.629216 -0.777231 0.000000
outer loop
vertex 0.008260 0.000347 0.150000
vertex 0.008384 0.000447 0.000000
vertex 0.008384 0.000447 0.150000
endloop
endfacet
facet normal 0.006608 0.999978 0.000000
outer loop
vertex 0.004806 0.009791 0.000000
vertex 0.004118 0.009796 0.000000
vertex 0.004118 0.009796 0.150000
endloop
endfacet
facet normal 0.006608 0.999978 0.000000
outer loop
vertex 0.004806 0.009791 0.000000
vertex 0.004118 0.009796 0.150000
vertex 0.004806 0.009791 0.150000
endloop
endfacet
facet normal -0.140503 -0.990080 0.000000
outer loop
vertex 0.006182 0.000026 0.150000
vertex 0.006182 0.000026 0.000000
vertex 0.006298 0.000009 0.000000
endloop
endfacet
facet normal -0.140503 -0.990080 0.000000
outer loop
vertex 0.006182 0.000026 0.150000
vertex 0.006298 0.000009 0.000000
vertex 0.006298 0.000009 0.150000
endloop
endfacet
facet normal 0.000000 0.000000 1.000000
outer loop
vertex 0.009950 0.005965 0.000000
vertex 0.009870 0.006210 0.000000
vertex 0.009784 0.006448 0.000000
endloop
endfacet
facet normal 0.939896 0.341462 0.000000
outer loop
vertex 0.009784 0.006448 0.000000
vertex 0.009784 0.006448 0.150000
vertex 0.009870 0.006210 0.150000
endloop
endfacet
facet normal 0.965305 0.261124 0.000000
outer loop
vertex 0.009950 0.005965 0.150000
vertex 0.010086 0.005462 0.150000
vertex 0.010086 0.005462 0.000000
endloop
endfacet
facet normal 0.951208 0.308551 -0.000059
outer loop
vertex 0.009784 0.006448 0.000000
vertex 0.009870 0.006210 0.150000
vertex 0.009950 0.005965 0.150000
endloop
endfacet
facet normal 0.000000 0.000000 1.000000
outer loop
vertex 0.010086 0.005462 0.000000
vertex 0.009950 0.005965 0.000000
vertex 0.009784 0.006448 0.000000
endloop
endfacet
facet normal 0.956167 0.292822 -0.000115
outer loop
vertex 0.009784 0.006448 0.000000
vertex 0.009950 0.005965 0.150000
vertex 0.010086 0.005462 0.000000
endloop
endfacet
facet normal 0.000000 0.000000 1.000000
outer loop
vertex 0.000243 0.007905 0.000000
vertex 0.000171 0.007802 0.000000
vertex 0.000111 0.007711 0.000000
endloop
endfacet
facet normal -0.857110 0.515133 0.000000
outer loop
vertex 0.000111 0.007711 0.000000
vertex 0.000067 0.007637 0.000000
vertex 0.000067 0.007637 0.150000
endloop
endfacet
facet normal -0.857110 0.515133 0.000000
outer loop
vertex 0.000111 0.007711 0.000000
vertex 0.000067 0.007637 0.150000
vertex 0.000111 0.007711 0.150000
endloop
endfacet
facet normal 0.000000 0.000000 1.000000
outer loop
vertex 0.000325 0.008018 0.000000
vertex 0.000243 0.007905 0.000000
vertex 0.000111 0.007711 0.000000
endloop
endfacet
facet normal 0.000000 0.000000 1.000000
outer loop
vertex 0.000507 0.008253 0.000000
vertex 0.000414 0.008135 0.000000
vertex 0.000325 0.008018 0.000000
endloop
endfacet
facet normal -0.772381 0.635160 0.000000
outer loop
vertex 0.000601 0.008368 0.150000
vertex 0.000601 0.008368 0.000000
vertex 0.000507 0.008253 0.000000
endloop
endfacet
facet normal -0.772381 0.635159 0.000000
outer loop
vertex 0.000507 0.008253 0.150000
vertex 0.000601 0.008368 0.150000
vertex 0.000507 0.008253 0.000000
endloop
endfacet
facet normal 0.000000 0.000000 1.000000
outer loop
vertex 0.000507 0.008253 0.000000
vertex 0.000325 0.008018 0.000000
vertex 0.000111 0.007711 0.000000
endloop
endfacet
facet normal -0.835752 0.549107 0.000000
outer loop
vertex 0.000111 0.007711 0.000000
vertex 0.000111 0.007711 0.150000
vertex 0.000171 0.007802 0.150000
endloop
endfacet
facet normal -0.820832 0.571170 -0.000019
outer loop
vertex 0.000111 0.007711 0.000000
vertex 0.000171 0.007802 0.150000
vertex 0.000243 0.007905 0.150000
endloop
endfacet
facet normal -0.808040 0.589128 0.000000
outer loop
vertex 0.000507 0.008253 0.150000
vertex 0.000507 0.008253 0.000000
vertex 0.000111 0.007711 0.000000
endloop
endfacet
facet normal -0.785623 0.618706 -0.000166
outer loop
vertex 0.000414 0.008135 0.150000
vertex 0.000507 0.008253 0.150000
vertex 0.000111 0.007711 0.000000
endloop
endfacet
facet normal -0.808632 0.588315 -0.000052
outer loop
vertex 0.000111 0.007711 0.000000
vertex 0.000243 0.007905 0.150000
vertex 0.000325 0.008018 0.150000
endloop
endfacet
facet normal -0.797310 0.603570 -0.000100
outer loop
vertex 0.000111 0.007711 0.000000
vertex 0.000325 0.008018 0.150000
vertex 0.000414 0.008135 0.150000
endloop
endfacet
facet normal 0.378181 0.925732 0.000000
outer loop
vertex 0.007146 0.009311 0.000000
vertex 0.006776 0.009462 0.000000
vertex 0.006776 0.009462 0.150000
endloop
endfacet
facet normal 0.378181 0.925732 0.000000
outer loop
vertex 0.007146 0.009311 0.000000
vertex 0.006776 0.009462 0.150000
vertex 0.007146 0.009311 0.150000
endloop
endfacet
facet normal 0.489685 -0.871900 0.000000
outer loop
vertex 0.008109 0.000262 0.150000
vertex 0.008109 0.000262 0.000000
vertex 0.008260 0.000347 0.000000
endloop
endfacet
facet normal 0.489685 -0.871900 0.000000
outer loop
vertex 0.008109 0.000262 0.150000
vertex 0.008260 0.000347 0.000000
vertex 0.008260 0.000347 0.150000
endloop
endfacet
facet normal 0.985020 -0.172439 0.000000
outer loop
vertex 0.010063 0.003495 0.000000
vertex 0.010145 0.003964 0.000000
vertex 0.010145 0.003964 0.150000
endloop
endfacet
facet normal 0.985020 -0.172439 0.000000
outer loop
vertex 0.010063 0.003495 0.000000
vertex 0.010145 0.003964 0.150000
vertex 0.010063 0.003495 0.150000
endloop
endfacet
facet normal -0.472867 -0.881134 0.000000
outer loop
vertex 0.005252 0.000422 0.000000
vertex 0.005592 0.000239 0.000000
vertex 0.005592 0.000239 0.150000
endloop
endfacet
facet normal -0.472867 -0.881134 0.000000
outer loop
vertex 0.005252 0.000422 0.000000
vertex 0.005592 0.000239 0.150000
vertex 0.005252 0.000422 0.150000
endloop
endfacet
facet normal -0.958378 0.285504 0.000000
outer loop
vertex 0.000040 0.007583 0.150000
vertex 0.000040 0.007583 0.000000
vertex 0.000026 0.007535 0.000000
endloop
endfacet
facet normal -0.958378 0.285504 0.000000
outer loop
vertex 0.000040 0.007583 0.150000
vertex 0.000026 0.007535 0.000000
vertex 0.000026 0.007535 0.150000
endloop
endfacet
facet normal -0.706217 -0.707996 0.000000
outer loop
vertex 0.004073 0.001357 0.000000
vertex 0.004240 0.001190 0.000000
vertex 0.004240 0.001190 0.150000
endloop
endfacet
facet normal -0.706215 -0.707997 0.000000
outer loop
vertex 0.004073 0.001357 0.000000
vertex 0.004240 0.001190 0.150000
vertex 0.004073 0.001357 0.150000
endloop
endfacet
facet normal -0.748441 -0.663202 0.000000
outer loop
vertex 0.003556 0.001928 0.150000
vertex 0.003556 0.001928 0.000000
vertex 0.003903 0.001536 0.000000
endloop
endfacet
facet normal -0.725735 -0.687974 0.000000
outer loop
vertex 0.003903 0.001536 0.000000
vertex 0.004073 0.001357 0.000000
vertex 0.004073 0.001357 0.150000
endloop
endfacet
facet normal -0.748440 -0.663202 0.000000
outer loop
vertex 0.003903 0.001536 0.150000
vertex 0.003556 0.001928 0.150000
vertex 0.003903 0.001536 0.000000
endloop
endfacet
facet normal -0.725738 -0.687971 0.000000
outer loop
vertex 0.003903 0.001536 0.000000
vertex 0.004073 0.001357 0.150000
vertex 0.003903 0.001536 0.150000
endloop
endfacet
facet normal -0.990630 0.136572 0.000000
outer loop
vertex 0.000026 0.007535 0.150000
vertex 0.000026 0.007535 0.000000
vertex 0.000007 0.007403 0.000000
endloop
endfacet
facet normal -0.990630 0.136572 0.000000
outer loop
vertex 0.000026 0.007535 0.150000
vertex 0.000007 0.007403 0.000000
vertex 0.000007 0.007403 0.150000
endloop
endfacet
facet normal -0.645537 0.763729 0.000000
outer loop
vertex 0.000936 0.008712 0.150000
vertex 0.000936 0.008712 0.000000
vertex 0.000864 0.008652 0.000000
endloop
endfacet
facet normal -0.645536 0.763729 0.000000
outer loop
vertex 0.000936 0.008712 0.150000
vertex 0.000864 0.008652 0.000000
vertex 0.000864 0.008652 0.150000
endloop
endfacet
facet normal 0.831139 0.556065 0.000000
outer loop
vertex 0.009370 0.007313 0.000000
vertex 0.009125 0.007680 0.000000
vertex 0.009125 0.007680 0.150000
endloop
endfacet
facet normal 0.831139 0.556065 0.000000
outer loop
vertex 0.009370 0.007313 0.000000
vertex 0.009125 0.007680 0.150000
vertex 0.009370 0.007313 0.150000
endloop
endfacet
endsolid Exported from Blender-3.6.8
