solid Exported from Blender-3.6.8
facet normal -0.931645 0.363370 0.000000
outer loop
vertex 0.000087 0.008562 0.150000
vertex 0.000087 0.008562 0.000000
vertex 0.000064 0.008502 0.000000
endloop
endfacet
facet normal -0.931645 0.363370 0.000000
outer loop
vertex 0.000087 0.008562 0.150000
vertex 0.000064 0.008502 0.000000
vertex 0.000064 0.008502 0.150000
endloop
endfacet
facet normal -0.414791 -0.909917 0.000000
outer loop
vertex 0.003847 0.000564 0.150000
vertex 0.003847 0.000564 0.000000
vertex 0.004083 0.000457 0.000000
endloop
endfacet
facet normal -0.414791 -0.909917 0.000000
outer loop
vertex 0.003847 0.000564 0.150000
vertex 0.004083 0.000457 0.000000
vertex 0.004083 0.000457 0.150000
endloop
endfacet
facet normal 0.000000 0.000000 -1.000000
outer loop
vertex 0.000759 0.006031 0.000000
vertex 0.000332 0.006839 0.000000
vertex 0.000286 0.006944 0.000000
endloop
endfacet
facet normal 0.000000 0.000000 -1.000000
outer loop
vertex 0.000286 0.006944 0.000000
vertex 0.000244 0.007046 0.000000
vertex 0.000223 0.007097 0.000000
endloop
endfacet
facet normal 0.000000 0.000000 -1.000000
outer loop
vertex 0.000223 0.007097 0.000000
vertex 0.000202 0.007148 0.000000
vertex 0.000182 0.007201 0.000000
endloop
endfacet
facet normal 0.000000 0.000000 -1.000000
outer loop
vertex 0.000182 0.007201 0.000000
vertex 0.000161 0.007256 0.000000
vertex 0.000140 0.007314 0.000000
endloop
endfacet
facet normal 0.000000 0.000000 -1.000000
outer loop
vertex 0.000140 0.007314 0.000000
vertex 0.000118 0.007375 0.000000
vertex 0.000072 0.007509 0.000000
endloop
endfacet
facet normal 0.000000 0.000000 -1.000000
outer loop
vertex 0.000072 0.007509 0.000000
vertex 0.000051 0.007579 0.000000
vertex 0.000020 0.007709 0.000000
endloop
endfacet
facet normal 0.000000 0.000000 -1.000000
outer loop
vertex 0.000020 0.007709 0.000000
vertex 0.000004 0.007833 0.000000
vertex 0.000000 0.007961 0.000000
endloop
endfacet
facet normal 0.000000 0.000000 -1.000000
outer loop
vertex 0.000000 0.007961 0.000000
vertex 0.000003 0.008028 0.000000
vertex 0.000007 0.008099 0.000000
endloop
endfacet
facet normal 0.000000 0.000000 -1.000000
outer loop
vertex 0.000007 0.008099 0.000000
vertex 0.000014 0.008175 0.000000
vertex 0.000032 0.008346 0.000000
endloop
endfacet
facet normal 0.000000 0.000000 -1.000000
outer loop
vertex 0.000032 0.008346 0.000000
vertex 0.000045 0.008431 0.000000
vertex 0.000064 0.008502 0.000000
endloop
endfacet
facet normal 0.000000 0.000000 -1.000000
outer loop
vertex 0.000064 0.008502 0.000000
vertex 0.000087 0.008562 0.000000
vertex 0.000114 0.008611 0.000000
endloop
endfacet
facet normal 0.000000 0.000000 -1.000000
outer loop
vertex 0.000114 0.008611 0.000000
vertex 0.000145 0.008652 0.000000
vertex 0.000178 0.008687 0.000000
endloop
endfacet
facet normal 0.000000 0.000000 -1.000000
outer loop
vertex 0.000178 0.008687 0.000000
vertex 0.000214 0.008718 0.000000
vertex 0.000329 0.008803 0.000000
endloop
endfacet
facet normal 0.000000 0.000000 -1.000000
outer loop
vertex 0.000368 0.008835 0.000000
vertex 0.000445 0.008908 0.000000
vertex 0.000487 0.008934 0.000000
endloop
endfacet
facet normal 0.000000 0.000000 -1.000000
outer loop
vertex 0.000114 0.008611 0.000000
vertex 0.000178 0.008687 0.000000
vertex 0.000329 0.008803 0.000000
endloop
endfacet
facet normal 0.000000 0.000000 -1.000000
outer loop
vertex 0.000329 0.008803 0.000000
vertex 0.000368 0.008835 0.000000
vertex 0.000487 0.008934 0.000000
endloop
endfacet
facet normal 0.000000 0.000000 -1.000000
outer loop
vertex 0.000487 0.008934 0.000000
vertex 0.000532 0.008951 0.000000
vertex 0.000580 0.008960 0.000000
endloop
endfacet
facet normal 0.000000 0.000000 -1.000000
outer loop
vertex 0.000580 0.008960 0.000000
vertex 0.000632 0.008963 0.000000
vertex 0.001232 0.008903 0.000000
endloop
endfacet
facet normal 0.000000 0.000000 -1.000000
outer loop
vertex 0.001232 0.008903 0.000000
vertex 0.001361 0.008876 0.000000
vertex 0.001511 0.008837 0.000000
endloop
endfacet
facet normal 0.000000 0.000000 -1.000000
outer loop
vertex 0.001511 0.008837 0.000000
vertex 0.001676 0.008787 0.000000
vertex 0.001852 0.008729 0.000000
endloop
endfacet
facet normal 0.000000 0.000000 -1.000000
outer loop
vertex 0.001852 0.008729 0.000000
vertex 0.002034 0.008663 0.000000
vertex 0.002218 0.008594 0.000000
endloop
endfacet
facet normal 0.000000 0.000000 -1.000000
outer loop
vertex 0.002218 0.008594 0.000000
vertex 0.002398 0.008522 0.000000
vertex 0.002570 0.008449 0.000000
endloop
endfacet
facet normal 0.000000 0.000000 -1.000000
outer loop
vertex 0.002218 0.008594 0.000000
vertex 0.002570 0.008449 0.000000
vertex 0.004541 0.007404 0.000000
endloop
endfacet
facet normal 0.000000 0.000000 -1.000000
outer loop
vertex 0.001511 0.008837 0.000000
vertex 0.001852 0.008729 0.000000
vertex 0.002218 0.008594 0.000000
endloop
endfacet
facet normal 0.000000 0.000000 -1.000000
outer loop
vertex 0.000580 0.008960 0.000000
vertex 0.001232 0.008903 0.000000
vertex 0.001511 0.008837 0.000000
endloop
endfacet
facet normal 0.000000 0.000000 -1.000000
outer loop
vertex 0.000329 0.008803 0.000000
vertex 0.000487 0.008934 0.000000
vertex 0.000580 0.008960 0.000000
endloop
endfacet
facet normal 0.000000 0.000000 -1.000000
outer loop
vertex 0.000064 0.008502 0.000000
vertex 0.000114 0.008611 0.000000
vertex 0.000329 0.008803 0.000000
endloop
endfacet
facet normal 0.000000 0.000000 -1.000000
outer loop
vertex 0.000007 0.008099 0.000000
vertex 0.000032 0.008346 0.000000
vertex 0.000064 0.008502 0.000000
endloop
endfacet
facet normal 0.000000 0.000000 -1.000000
outer loop
vertex 0.000020 0.007709 0.000000
vertex 0.000000 0.007961 0.000000
vertex 0.000007 0.008099 0.000000
endloop
endfacet
facet normal 0.000000 0.000000 -1.000000
outer loop
vertex 0.000140 0.007314 0.000000
vertex 0.000072 0.007509 0.000000
vertex 0.000020 0.007709 0.000000
endloop
endfacet
facet normal 0.000000 0.000000 -1.000000
outer loop
vertex 0.000223 0.007097 0.000000
vertex 0.000182 0.007201 0.000000
vertex 0.000140 0.007314 0.000000
endloop
endfacet
facet normal 0.000000 0.000000 -1.000000
outer loop
vertex 0.000759 0.006031 0.000000
vertex 0.000286 0.006944 0.000000
vertex 0.000223 0.007097 0.000000
endloop
endfacet
facet normal 0.000000 0.000000 -1.000000
outer loop
vertex 0.001601 0.003782 0.000000
vertex 0.001410 0.004244 0.000000
vertex 0.000759 0.006031 0.000000
endloop
endfacet
facet normal 0.000000 0.000000 -1.000000
outer loop
vertex 0.002258 0.002297 0.000000
vertex 0.002209 0.002406 0.000000
vertex 0.002029 0.002839 0.000000
endloop
endfacet
facet normal 0.000000 0.000000 -1.000000
outer loop
vertex 0.002029 0.002839 0.000000
vertex 0.001601 0.003782 0.000000
vertex 0.000759 0.006031 0.000000
endloop
endfacet
facet normal 0.000000 0.000000 -1.000000
outer loop
vertex 0.000759 0.006031 0.000000
vertex 0.000223 0.007097 0.000000
vertex 0.000140 0.007314 0.000000
endloop
endfacet
facet normal 0.000000 0.000000 -1.000000
outer loop
vertex 0.000140 0.007314 0.000000
vertex 0.000020 0.007709 0.000000
vertex 0.000007 0.008099 0.000000
endloop
endfacet
facet normal 0.000000 0.000000 -1.000000
outer loop
vertex 0.000007 0.008099 0.000000
vertex 0.000064 0.008502 0.000000
vertex 0.000329 0.008803 0.000000
endloop
endfacet
facet normal 0.000000 0.000000 -1.000000
outer loop
vertex 0.000329 0.008803 0.000000
vertex 0.000580 0.008960 0.000000
vertex 0.001511 0.008837 0.000000
endloop
endfacet
facet normal 0.000000 0.000000 -1.000000
outer loop
vertex 0.001511 0.008837 0.000000
vertex 0.002218 0.008594 0.000000
vertex 0.004541 0.007404 0.000000
endloop
endfacet
facet normal 0.000000 0.000000 -1.000000
outer loop
vertex 0.000329 0.008803 0.000000
vertex 0.001511 0.008837 0.000000
vertex 0.004541 0.007404 0.000000
endloop
endfacet
facet normal 0.000000 0.000000 -1.000000
outer loop
vertex 0.000140 0.007314 0.000000
vertex 0.000007 0.008099 0.000000
vertex 0.000329 0.008803 0.000000
endloop
endfacet
facet normal 0.000000 0.000000 -1.000000
outer loop
vertex 0.002258 0.002297 0.000000
vertex 0.002029 0.002839 0.000000
vertex 0.000759 0.006031 0.000000
endloop
endfacet
facet normal 0.000000 0.000000 -1.000000
outer loop
vertex 0.000759 0.006031 0.000000
vertex 0.000140 0.007314 0.000000
vertex 0.000329 0.008803 0.000000
endloop
endfacet
facet normal 0.000000 0.000000 -1.000000
outer loop
vertex 0.000329 0.008803 0.000000
vertex 0.004541 0.007404 0.000000
vertex 0.005140 0.007160 0.000000
endloop
endfacet
facet normal 0.000000 0.000000 -1.000000
outer loop
vertex 0.005427 0.007070 0.000000
vertex 0.006125 0.006878 0.000000
vertex 0.006290 0.006819 0.000000
endloop
endfacet
facet normal 0.000000 0.000000 -1.000000
outer loop
vertex 0.000759 0.006031 0.000000
vertex 0.000329 0.008803 0.000000
vertex 0.005140 0.007160 0.000000
endloop
endfacet
facet normal 0.000000 0.000000 -1.000000
outer loop
vertex 0.005427 0.007070 0.000000
vertex 0.006290 0.006819 0.000000
vertex 0.006351 0.006793 0.000000
endloop
endfacet
facet normal 0.000000 0.000000 -1.000000
outer loop
vertex 0.000759 0.006031 0.000000
vertex 0.005140 0.007160 0.000000
vertex 0.005427 0.007070 0.000000
endloop
endfacet
facet normal 0.000000 0.000000 -1.000000
outer loop
vertex 0.002374 0.002091 0.000000
vertex 0.002258 0.002297 0.000000
vertex 0.000759 0.006031 0.000000
endloop
endfacet
facet normal 0.000000 0.000000 -1.000000
outer loop
vertex 0.002673 0.001715 0.000000
vertex 0.002550 0.001858 0.000000
vertex 0.002374 0.002091 0.000000
endloop
endfacet
facet normal 0.000000 0.000000 -1.000000
outer loop
vertex 0.002988 0.001371 0.000000
vertex 0.002828 0.001546 0.000000
vertex 0.002673 0.001715 0.000000
endloop
endfacet
facet normal 0.000000 0.000000 -1.000000
outer loop
vertex 0.003251 0.001083 0.000000
vertex 0.003128 0.001218 0.000000
vertex 0.002988 0.001371 0.000000
endloop
endfacet
facet normal 0.000000 0.000000 -1.000000
outer loop
vertex 0.003461 0.000862 0.000000
vertex 0.003361 0.000965 0.000000
vertex 0.003251 0.001083 0.000000
endloop
endfacet
facet normal 0.000000 0.000000 -1.000000
outer loop
vertex 0.003847 0.000564 0.000000
vertex 0.003650 0.000694 0.000000
vertex 0.003461 0.000862 0.000000
endloop
endfacet
facet normal 0.000000 0.000000 -1.000000
outer loop
vertex 0.004998 0.000212 0.000000
vertex 0.004083 0.000457 0.000000
vertex 0.003847 0.000564 0.000000
endloop
endfacet
facet normal 0.000000 0.000000 -1.000000
outer loop
vertex 0.005555 0.000131 0.000000
vertex 0.005290 0.000163 0.000000
vertex 0.004998 0.000212 0.000000
endloop
endfacet
facet normal 0.000000 0.000000 -1.000000
outer loop
vertex 0.005777 0.000114 0.000000
vertex 0.005672 0.000121 0.000000
vertex 0.005555 0.000131 0.000000
endloop
endfacet
facet normal 0.000000 0.000000 -1.000000
outer loop
vertex 0.005869 0.000112 0.000000
vertex 0.005777 0.000114 0.000000
vertex 0.005555 0.000131 0.000000
endloop
endfacet
facet normal 0.000000 0.000000 -1.000000
outer loop
vertex 0.005555 0.000131 0.000000
vertex 0.004998 0.000212 0.000000
vertex 0.003847 0.000564 0.000000
endloop
endfacet
facet normal 0.000000 0.000000 -1.000000
outer loop
vertex 0.003847 0.000564 0.000000
vertex 0.003461 0.000862 0.000000
vertex 0.003251 0.001083 0.000000
endloop
endfacet
facet normal 0.000000 0.000000 -1.000000
outer loop
vertex 0.002988 0.001371 0.000000
vertex 0.002673 0.001715 0.000000
vertex 0.002374 0.002091 0.000000
endloop
endfacet
facet normal 0.000000 0.000000 -1.000000
outer loop
vertex 0.003847 0.000564 0.000000
vertex 0.003251 0.001083 0.000000
vertex 0.002988 0.001371 0.000000
endloop
endfacet
facet normal 0.000000 0.000000 -1.000000
outer loop
vertex 0.005869 0.000112 0.000000
vertex 0.005555 0.000131 0.000000
vertex 0.003847 0.000564 0.000000
endloop
endfacet
facet normal 0.000000 0.000000 -1.000000
outer loop
vertex 0.005949 0.000105 0.000000
vertex 0.005869 0.000112 0.000000
vertex 0.003847 0.000564 0.000000
endloop
endfacet
facet normal 0.000000 0.000000 -1.000000
outer loop
vertex 0.003847 0.000564 0.000000
vertex 0.002988 0.001371 0.000000
vertex 0.002374 0.002091 0.000000
endloop
endfacet
facet normal 0.000000 0.000000 -1.000000
outer loop
vertex 0.002374 0.002091 0.000000
vertex 0.000759 0.006031 0.000000
vertex 0.005427 0.007070 0.000000
endloop
endfacet
facet normal 0.000000 0.000000 -1.000000
outer loop
vertex 0.005427 0.007070 0.000000
vertex 0.006351 0.006793 0.000000
vertex 0.006418 0.006764 0.000000
endloop
endfacet
facet normal 0.000000 0.000000 -1.000000
outer loop
vertex 0.006418 0.006764 0.000000
vertex 0.006577 0.006693 0.000000
vertex 0.006660 0.006652 0.000000
endloop
endfacet
facet normal 0.000000 0.000000 -1.000000
outer loop
vertex 0.006660 0.006652 0.000000
vertex 0.006800 0.006570 0.000000
vertex 0.006911 0.006485 0.000000
endloop
endfacet
facet normal 0.000000 0.000000 -1.000000
outer loop
vertex 0.006911 0.006485 0.000000
vertex 0.007006 0.006394 0.000000
vertex 0.007294 0.006064 0.000000
endloop
endfacet
facet normal 0.000000 0.000000 -1.000000
outer loop
vertex 0.007294 0.006064 0.000000
vertex 0.007370 0.005958 0.000000
vertex 0.007399 0.005908 0.000000
endloop
endfacet
facet normal 0.000000 0.000000 -1.000000
outer loop
vertex 0.007399 0.005908 0.000000
vertex 0.007443 0.005808 0.000000
vertex 0.007461 0.005756 0.000000
endloop
endfacet
facet normal 0.000000 0.000000 -1.000000
outer loop
vertex 0.007461 0.005756 0.000000
vertex 0.007611 0.005241 0.000000
vertex 0.007630 0.005158 0.000000
endloop
endfacet
facet normal 0.000000 0.000000 -1.000000
outer loop
vertex 0.007630 0.005158 0.000000
vertex 0.007895 0.003153 0.000000
vertex 0.007890 0.003034 0.000000
endloop
endfacet
facet normal 0.000000 0.000000 -1.000000
outer loop
vertex 0.007890 0.003034 0.000000
vertex 0.007859 0.002792 0.000000
vertex 0.007728 0.002287 0.000000
endloop
endfacet
facet normal 0.000000 0.000000 -1.000000
outer loop
vertex 0.007728 0.002287 0.000000
vertex 0.007485 0.001606 0.000000
vertex 0.007437 0.001483 0.000000
endloop
endfacet
facet normal 0.000000 0.000000 -1.000000
outer loop
vertex 0.007437 0.001483 0.000000
vertex 0.007388 0.001370 0.000000
vertex 0.007339 0.001263 0.000000
endloop
endfacet
facet normal 0.000000 0.000000 -1.000000
outer loop
vertex 0.007339 0.001263 0.000000
vertex 0.007288 0.001160 0.000000
vertex 0.007232 0.001060 0.000000
endloop
endfacet
facet normal 0.000000 0.000000 -1.000000
outer loop
vertex 0.007232 0.001060 0.000000
vertex 0.007172 0.000958 0.000000
vertex 0.007105 0.000853 0.000000
endloop
endfacet
facet normal 0.000000 0.000000 -1.000000
outer loop
vertex 0.007105 0.000853 0.000000
vertex 0.007030 0.000743 0.000000
vertex 0.006946 0.000623 0.000000
endloop
endfacet
facet normal 0.000000 0.000000 -1.000000
outer loop
vertex 0.006946 0.000623 0.000000
vertex 0.006745 0.000349 0.000000
vertex 0.006638 0.000216 0.000000
endloop
endfacet
facet normal 0.000000 0.000000 -1.000000
outer loop
vertex 0.006638 0.000216 0.000000
vertex 0.006546 0.000120 0.000000
vertex 0.006464 0.000055 0.000000
endloop
endfacet
facet normal 0.000000 0.000000 -1.000000
outer loop
vertex 0.006464 0.000055 0.000000
vertex 0.006391 0.000017 0.000000
vertex 0.006325 0.000001 0.000000
endloop
endfacet
facet normal 0.000000 0.000000 -1.000000
outer loop
vertex 0.006325 0.000001 0.000000
vertex 0.006263 0.000003 0.000000
vertex 0.006204 0.000017 0.000000
endloop
endfacet
facet normal 0.000000 0.000000 -1.000000
outer loop
vertex 0.006204 0.000017 0.000000
vertex 0.006145 0.000038 0.000000
vertex 0.006084 0.000064 0.000000
endloop
endfacet
facet normal 0.000000 0.000000 -1.000000
outer loop
vertex 0.006325 0.000001 0.000000
vertex 0.006204 0.000017 0.000000
vertex 0.006084 0.000064 0.000000
endloop
endfacet
facet normal 0.000000 0.000000 -1.000000
outer loop
vertex 0.006638 0.000216 0.000000
vertex 0.006464 0.000055 0.000000
vertex 0.006325 0.000001 0.000000
endloop
endfacet
facet normal 0.000000 0.000000 -1.000000
outer loop
vertex 0.007105 0.000853 0.000000
vertex 0.006946 0.000623 0.000000
vertex 0.006638 0.000216 0.000000
endloop
endfacet
facet normal 0.000000 0.000000 -1.000000
outer loop
vertex 0.007339 0.001263 0.000000
vertex 0.007232 0.001060 0.000000
vertex 0.007105 0.000853 0.000000
endloop
endfacet
facet normal 0.000000 0.000000 -1.000000
outer loop
vertex 0.007728 0.002287 0.000000
vertex 0.007437 0.001483 0.000000
vertex 0.007339 0.001263 0.000000
endloop
endfacet
facet normal 0.000000 0.000000 -1.000000
outer loop
vertex 0.007630 0.005158 0.000000
vertex 0.007890 0.003034 0.000000
vertex 0.007728 0.002287 0.000000
endloop
endfacet
facet normal 0.000000 0.000000 -1.000000
outer loop
vertex 0.007399 0.005908 0.000000
vertex 0.007461 0.005756 0.000000
vertex 0.007630 0.005158 0.000000
endloop
endfacet
facet normal 0.000000 0.000000 -1.000000
outer loop
vertex 0.006911 0.006485 0.000000
vertex 0.007294 0.006064 0.000000
vertex 0.007399 0.005908 0.000000
endloop
endfacet
facet normal 0.000000 0.000000 -1.000000
outer loop
vertex 0.006418 0.006764 0.000000
vertex 0.006660 0.006652 0.000000
vertex 0.006911 0.006485 0.000000
endloop
endfacet
facet normal 0.000000 0.000000 -1.000000
outer loop
vertex 0.002374 0.002091 0.000000
vertex 0.005427 0.007070 0.000000
vertex 0.006418 0.006764 0.000000
endloop
endfacet
facet normal 0.000000 0.000000 -1.000000
outer loop
vertex 0.005949 0.000105 0.000000
vertex 0.003847 0.000564 0.000000
vertex 0.002374 0.002091 0.000000
endloop
endfacet
facet normal 0.000000 0.000000 -1.000000
outer loop
vertex 0.006325 0.000001 0.000000
vertex 0.006084 0.000064 0.000000
vertex 0.006020 0.000087 0.000000
endloop
endfacet
facet normal 0.000000 0.000000 -1.000000
outer loop
vertex 0.006020 0.000087 0.000000
vertex 0.005949 0.000105 0.000000
vertex 0.002374 0.002091 0.000000
endloop
endfacet
facet normal 0.000000 0.000000 -1.000000
outer loop
vertex 0.002374 0.002091 0.000000
vertex 0.006418 0.006764 0.000000
vertex 0.006911 0.006485 0.000000
endloop
endfacet
facet normal 0.000000 0.000000 -1.000000
outer loop
vertex 0.006911 0.006485 0.000000
vertex 0.007399 0.005908 0.000000
vertex 0.007630 0.005158 0.000000
endloop
endfacet
facet normal 0.000000 0.000000 -1.000000
outer loop
vertex 0.007630 0.005158 0.000000
vertex 0.007728 0.002287 0.000000
vertex 0.007339 0.001263 0.000000
endloop
endfacet
facet normal 0.000000 0.000000 -1.000000
outer loop
vertex 0.007339 0.001263 0.000000
vertex 0.007105 0.000853 0.000000
vertex 0.006638 0.000216 0.000000
endloop
endfacet
facet normal 0.000000 0.000000 -1.000000
outer loop
vertex 0.006638 0.000216 0.000000
vertex 0.006325 0.000001 0.000000
vertex 0.006020 0.000087 0.000000
endloop
endfacet
facet normal 0.000000 0.000000 -1.000000
outer loop
vertex 0.006020 0.000087 0.000000
vertex 0.002374 0.002091 0.000000
vertex 0.006911 0.006485 0.000000
endloop
endfacet
facet normal 0.000000 0.000000 -1.000000
outer loop
vertex 0.006911 0.006485 0.000000
vertex 0.007630 0.005158 0.000000
vertex 0.007339 0.001263 0.000000
endloop
endfacet
facet normal 0.000000 0.000000 -1.000000
outer loop
vertex 0.007339 0.001263 0.000000
vertex 0.006638 0.000216 0.000000
vertex 0.006020 0.000087 0.000000
endloop
endfacet
facet normal 0.000000 0.000000 -1.000000
outer loop
vertex 0.006911 0.006485 0.000000
vertex 0.007339 0.001263 0.000000
vertex 0.006020 0.000087 0.000000
endloop
endfacet
facet normal 0.999235 -0.039115 0.000000
outer loop
vertex 0.007890 0.003034 0.150000
vertex 0.007890 0.003034 0.000000
vertex 0.007895 0.003153 0.000000
endloop
endfacet
facet normal 0.999234 -0.039128 0.000000
outer loop
vertex 0.007890 0.003034 0.150000
vertex 0.007895 0.003153 0.000000
vertex 0.007895 0.003153 0.150000
endloop
endfacet
facet normal -0.020721 -0.999785 0.000000
outer loop
vertex 0.006263 0.000003 0.150000
vertex 0.006263 0.000003 0.000000
vertex 0.006325 0.000001 0.000000
endloop
endfacet
facet normal -0.020721 -0.999785 0.000000
outer loop
vertex 0.006263 0.000003 0.150000
vertex 0.006325 0.000001 0.000000
vertex 0.006325 0.000001 0.150000
endloop
endfacet
facet normal -0.551251 -0.834339 0.000000
outer loop
vertex 0.003847 0.000564 0.000000
vertex 0.003847 0.000564 0.150000
vertex 0.003650 0.000694 0.150000
endloop
endfacet
facet normal -0.551251 -0.834339 0.000000
outer loop
vertex 0.003847 0.000564 0.000000
vertex 0.003650 0.000694 0.150000
vertex 0.003650 0.000694 0.000000
endloop
endfacet
facet normal -0.972925 -0.231120 0.000000
outer loop
vertex 0.000020 0.007709 0.150000
vertex 0.000020 0.007709 0.000000
vertex 0.000051 0.007579 0.000000
endloop
endfacet
facet normal -0.972925 -0.231119 0.000000
outer loop
vertex 0.000020 0.007709 0.150000
vertex 0.000051 0.007579 0.000000
vertex 0.000051 0.007579 0.150000
endloop
endfacet
facet normal -0.258060 -0.966129 0.000000
outer loop
vertex 0.004083 0.000457 0.000000
vertex 0.004998 0.000212 0.000000
vertex 0.004998 0.000212 0.150000
endloop
endfacet
facet normal -0.258060 -0.966129 0.000000
outer loop
vertex 0.004083 0.000457 0.000000
vertex 0.004998 0.000212 0.150000
vertex 0.004083 0.000457 0.150000
endloop
endfacet
facet normal 0.719353 -0.694645 0.000000
outer loop
vertex 0.006546 0.000120 0.150000
vertex 0.006546 0.000120 0.000000
vertex 0.006638 0.000216 0.000000
endloop
endfacet
facet normal 0.719359 -0.694639 0.000000
outer loop
vertex 0.006546 0.000120 0.150000
vertex 0.006638 0.000216 0.000000
vertex 0.006638 0.000216 0.150000
endloop
endfacet
facet normal -0.999421 0.034030 0.000000
outer loop
vertex 0.000003 0.008028 0.000000
vertex 0.000000 0.007961 0.000000
vertex 0.000000 0.007961 0.150000
endloop
endfacet
facet normal -0.999421 0.034030 0.000000
outer loop
vertex 0.000003 0.008028 0.000000
vertex 0.000000 0.007961 0.150000
vertex 0.000003 0.008028 0.150000
endloop
endfacet
facet normal -0.997925 0.064382 0.000000
outer loop
vertex 0.000007 0.008099 0.000000
vertex 0.000003 0.008028 0.000000
vertex 0.000003 0.008028 0.150000
endloop
endfacet
facet normal -0.997925 0.064382 0.000000
outer loop
vertex 0.000007 0.008099 0.000000
vertex 0.000003 0.008028 0.150000
vertex 0.000007 0.008099 0.150000
endloop
endfacet
facet normal -0.996249 0.086531 0.000000
outer loop
vertex 0.000014 0.008175 0.000000
vertex 0.000007 0.008099 0.000000
vertex 0.000007 0.008099 0.150000
endloop
endfacet
facet normal -0.996249 0.086531 0.000000
outer loop
vertex 0.000014 0.008175 0.000000
vertex 0.000007 0.008099 0.150000
vertex 0.000014 0.008175 0.150000
endloop
endfacet
facet normal -0.988151 0.153485 0.000000
outer loop
vertex 0.000045 0.008431 0.150000
vertex 0.000045 0.008431 0.000000
vertex 0.000032 0.008346 0.000000
endloop
endfacet
facet normal -0.994431 0.105390 0.000000
outer loop
vertex 0.000032 0.008346 0.000000
vertex 0.000014 0.008175 0.000000
vertex 0.000014 0.008175 0.150000
endloop
endfacet
facet normal -0.988151 0.153485 0.000000
outer loop
vertex 0.000032 0.008346 0.150000
vertex 0.000045 0.008431 0.150000
vertex 0.000032 0.008346 0.000000
endloop
endfacet
facet normal -0.994431 0.105390 0.000000
outer loop
vertex 0.000014 0.008175 0.150000
vertex 0.000032 0.008346 0.150000
vertex 0.000032 0.008346 0.000000
endloop
endfacet
facet normal -0.720897 0.693042 0.000000
outer loop
vertex 0.000178 0.008687 0.150000
vertex 0.000178 0.008687 0.000000
vertex 0.000145 0.008652 0.000000
endloop
endfacet
facet normal -0.720897 0.693042 0.000000
outer loop
vertex 0.000178 0.008687 0.150000
vertex 0.000145 0.008652 0.000000
vertex 0.000145 0.008652 0.150000
endloop
endfacet
facet normal 0.200842 0.979624 0.000000
outer loop
vertex 0.001361 0.008876 0.150000
vertex 0.001361 0.008876 0.000000
vertex 0.001232 0.008903 0.000000
endloop
endfacet
facet normal 0.200842 0.979624 0.000000
outer loop
vertex 0.001361 0.008876 0.150000
vertex 0.001232 0.008903 0.000000
vertex 0.001232 0.008903 0.150000
endloop
endfacet
facet normal -0.242525 -0.970145 0.000000
outer loop
vertex 0.005949 0.000105 0.150000
vertex 0.005949 0.000105 0.000000
vertex 0.006020 0.000087 0.000000
endloop
endfacet
facet normal -0.242525 -0.970145 0.000000
outer loop
vertex 0.005949 0.000105 0.150000
vertex 0.006020 0.000087 0.000000
vertex 0.006020 0.000087 0.150000
endloop
endfacet
facet normal -0.999633 -0.027077 0.000000
outer loop
vertex 0.000000 0.007961 0.150000
vertex 0.000000 0.007961 0.000000
vertex 0.000004 0.007833 0.000000
endloop
endfacet
facet normal -0.999633 -0.027077 0.000000
outer loop
vertex 0.000000 0.007961 0.150000
vertex 0.000004 0.007833 0.000000
vertex 0.000004 0.007833 0.150000
endloop
endfacet
facet normal 0.753647 0.657280 0.000000
outer loop
vertex 0.007294 0.006064 0.000000
vertex 0.007006 0.006394 0.000000
vertex 0.007006 0.006394 0.150000
endloop
endfacet
facet normal 0.753649 0.657278 0.000000
outer loop
vertex 0.007294 0.006064 0.000000
vertex 0.007006 0.006394 0.150000
vertex 0.007294 0.006064 0.150000
endloop
endfacet
facet normal -0.229410 -0.973330 0.000000
outer loop
vertex 0.006204 0.000017 0.150000
vertex 0.006204 0.000017 0.000000
vertex 0.006263 0.000003 0.000000
endloop
endfacet
facet normal -0.229407 -0.973331 0.000000
outer loop
vertex 0.006204 0.000017 0.150000
vertex 0.006263 0.000003 0.000000
vertex 0.006263 0.000003 0.150000
endloop
endfacet
facet normal -0.000141 0.000000 1.000000
outer loop
vertex 0.001232 0.008903 0.150000
vertex 0.000632 0.008963 0.150000
vertex 0.000580 0.008960 0.150000
endloop
endfacet
facet normal 0.000000 0.000000 1.000000
outer loop
vertex 0.000580 0.008960 0.150000
vertex 0.000532 0.008951 0.150000
vertex 0.000487 0.008934 0.150000
endloop
endfacet
facet normal 0.000000 0.000000 1.000000
outer loop
vertex 0.000487 0.008934 0.150000
vertex 0.000445 0.008908 0.150000
vertex 0.000368 0.008835 0.150000
endloop
endfacet
facet normal 0.000000 0.000000 1.000000
outer loop
vertex 0.000329 0.008803 0.150000
vertex 0.000214 0.008718 0.150000
vertex 0.000178 0.008687 0.150000
endloop
endfacet
facet normal -0.049628 0.000000 0.998768
outer loop
vertex 0.000487 0.008934 0.150000
vertex 0.000368 0.008835 0.150000
vertex 0.000329 0.008803 0.150000
endloop
endfacet
facet normal 0.000041 0.000000 1.000000
outer loop
vertex 0.001232 0.008903 0.150000
vertex 0.000580 0.008960 0.150000
vertex 0.000487 0.008934 0.150000
endloop
endfacet
facet normal 0.000000 0.000000 1.000000
outer loop
vertex 0.001511 0.008837 0.150000
vertex 0.001361 0.008876 0.150000
vertex 0.001232 0.008903 0.150000
endloop
endfacet
facet normal 0.003099 0.000000 0.999995
outer loop
vertex 0.001852 0.008729 0.150000
vertex 0.001676 0.008787 0.150000
vertex 0.001511 0.008837 0.150000
endloop
endfacet
facet normal -0.002527 0.000000 0.999997
outer loop
vertex 0.002218 0.008594 0.150000
vertex 0.002034 0.008663 0.150000
vertex 0.001852 0.008729 0.150000
endloop
endfacet
facet normal 0.000000 0.000000 1.000000
outer loop
vertex 0.002570 0.008449 0.150000
vertex 0.002398 0.008522 0.150000
vertex 0.002218 0.008594 0.150000
endloop
endfacet
facet normal 0.000259 0.000000 1.000000
outer loop
vertex 0.004541 0.007404 0.150000
vertex 0.002570 0.008449 0.150000
vertex 0.002218 0.008594 0.150000
endloop
endfacet
facet normal -0.000581 0.000000 1.000000
outer loop
vertex 0.002218 0.008594 0.150000
vertex 0.001852 0.008729 0.150000
vertex 0.001511 0.008837 0.150000
endloop
endfacet
facet normal 0.000000 0.000000 1.000000
outer loop
vertex 0.001511 0.008837 0.150000
vertex 0.001232 0.008903 0.150000
vertex 0.000487 0.008934 0.150000
endloop
endfacet
facet normal 0.001312 0.000000 0.999999
outer loop
vertex 0.000329 0.008803 0.150000
vertex 0.000178 0.008687 0.150000
vertex 0.000145 0.008652 0.150000
endloop
endfacet
facet normal 0.000000 0.000000 1.000000
outer loop
vertex 0.001511 0.008837 0.150000
vertex 0.000487 0.008934 0.150000
vertex 0.000329 0.008803 0.150000
endloop
endfacet
facet normal 0.000000 0.000000 1.000000
outer loop
vertex 0.004541 0.007404 0.150000
vertex 0.002218 0.008594 0.150000
vertex 0.001511 0.008837 0.150000
endloop
endfacet
facet normal -0.000006 0.000000 1.000000
outer loop
vertex 0.004541 0.007404 0.150000
vertex 0.001511 0.008837 0.150000
vertex 0.000329 0.008803 0.150000
endloop
endfacet
facet normal -0.000613 0.000000 1.000000
outer loop
vertex 0.000329 0.008803 0.150000
vertex 0.000145 0.008652 0.150000
vertex 0.000114 0.008611 0.150000
endloop
endfacet
facet normal 0.000000 0.000000 1.000000
outer loop
vertex 0.000114 0.008611 0.150000
vertex 0.000087 0.008562 0.150000
vertex 0.000064 0.008502 0.150000
endloop
endfacet
facet normal -0.002880 0.000000 0.999996
outer loop
vertex 0.000064 0.008502 0.150000
vertex 0.000045 0.008431 0.150000
vertex 0.000032 0.008346 0.150000
endloop
endfacet
facet normal -0.007319 0.000000 0.999973
outer loop
vertex 0.000032 0.008346 0.150000
vertex 0.000014 0.008175 0.150000
vertex 0.000007 0.008099 0.150000
endloop
endfacet
facet normal 0.000000 0.000000 1.000000
outer loop
vertex 0.000007 0.008099 0.150000
vertex 0.000003 0.008028 0.150000
vertex 0.000000 0.007961 0.150000
endloop
endfacet
facet normal 0.000000 0.000000 1.000000
outer loop
vertex 0.000000 0.007961 0.150000
vertex 0.000004 0.007833 0.150000
vertex 0.000020 0.007709 0.150000
endloop
endfacet
facet normal 0.000000 0.000000 1.000000
outer loop
vertex 0.000020 0.007709 0.150000
vertex 0.000051 0.007579 0.150000
vertex 0.000072 0.007509 0.150000
endloop
endfacet
facet normal 0.000000 0.000000 1.000000
outer loop
vertex 0.000072 0.007509 0.150000
vertex 0.000118 0.007375 0.150000
vertex 0.000140 0.007314 0.150000
endloop
endfacet
facet normal 0.000000 0.000000 1.000000
outer loop
vertex 0.000140 0.007314 0.150000
vertex 0.000161 0.007256 0.150000
vertex 0.000182 0.007201 0.150000
endloop
endfacet
facet normal -0.061956 0.000000 0.998079
outer loop
vertex 0.000182 0.007201 0.150000
vertex 0.000202 0.007148 0.150000
vertex 0.000223 0.007097 0.150000
endloop
endfacet
facet normal -0.027317 0.000000 0.999627
outer loop
vertex 0.000223 0.007097 0.150000
vertex 0.000244 0.007046 0.150000
vertex 0.000286 0.006944 0.150000
endloop
endfacet
facet normal 0.000000 0.000000 1.000000
outer loop
vertex 0.000286 0.006944 0.150000
vertex 0.000332 0.006839 0.150000
vertex 0.000759 0.006031 0.150000
endloop
endfacet
facet normal -0.000351 0.000000 1.000000
outer loop
vertex 0.000759 0.006031 0.150000
vertex 0.001410 0.004244 0.150000
vertex 0.001601 0.003782 0.150000
endloop
endfacet
facet normal 0.004046 0.000000 0.999992
outer loop
vertex 0.002029 0.002839 0.150000
vertex 0.002209 0.002406 0.150000
vertex 0.002258 0.002297 0.150000
endloop
endfacet
facet normal 0.000173 0.000000 1.000000
outer loop
vertex 0.000759 0.006031 0.150000
vertex 0.001601 0.003782 0.150000
vertex 0.002029 0.002839 0.150000
endloop
endfacet
facet normal 0.000000 0.000000 1.000000
outer loop
vertex 0.000223 0.007097 0.150000
vertex 0.000286 0.006944 0.150000
vertex 0.000759 0.006031 0.150000
endloop
endfacet
facet normal 0.000000 0.000000 1.000000
outer loop
vertex 0.000140 0.007314 0.150000
vertex 0.000182 0.007201 0.150000
vertex 0.000223 0.007097 0.150000
endloop
endfacet
facet normal 0.001126 0.000000 0.999999
outer loop
vertex 0.000020 0.007709 0.150000
vertex 0.000072 0.007509 0.150000
vertex 0.000140 0.007314 0.150000
endloop
endfacet
facet normal 0.000000 0.000000 1.000000
outer loop
vertex 0.000007 0.008099 0.150000
vertex 0.000000 0.007961 0.150000
vertex 0.000020 0.007709 0.150000
endloop
endfacet
facet normal 0.000000 0.000000 1.000000
outer loop
vertex 0.000064 0.008502 0.150000
vertex 0.000032 0.008346 0.150000
vertex 0.000007 0.008099 0.150000
endloop
endfacet
facet normal 0.000000 0.000000 1.000000
outer loop
vertex 0.000329 0.008803 0.150000
vertex 0.000114 0.008611 0.150000
vertex 0.000064 0.008502 0.150000
endloop
endfacet
facet normal 0.000000 0.000000 1.000000
outer loop
vertex 0.005140 0.007160 0.150000
vertex 0.004541 0.007404 0.150000
vertex 0.000329 0.008803 0.150000
endloop
endfacet
facet normal 0.000357 0.000000 1.000000
outer loop
vertex 0.006290 0.006819 0.150000
vertex 0.006125 0.006878 0.150000
vertex 0.005427 0.007070 0.150000
endloop
endfacet
facet normal -0.000004 0.000000 1.000000
outer loop
vertex 0.005140 0.007160 0.150000
vertex 0.000329 0.008803 0.150000
vertex 0.000064 0.008502 0.150000
endloop
endfacet
facet normal 0.000000 0.000000 1.000000
outer loop
vertex 0.006351 0.006793 0.150000
vertex 0.006290 0.006819 0.150000
vertex 0.005427 0.007070 0.150000
endloop
endfacet
facet normal 0.000000 0.000000 1.000000
outer loop
vertex 0.005427 0.007070 0.150000
vertex 0.005140 0.007160 0.150000
vertex 0.000064 0.008502 0.150000
endloop
endfacet
facet normal -0.000269 0.000000 1.000000
outer loop
vertex 0.000064 0.008502 0.150000
vertex 0.000007 0.008099 0.150000
vertex 0.000020 0.007709 0.150000
endloop
endfacet
facet normal 0.000000 0.000000 1.000000
outer loop
vertex 0.000020 0.007709 0.150000
vertex 0.000140 0.007314 0.150000
vertex 0.000223 0.007097 0.150000
endloop
endfacet
facet normal -0.000684 0.000000 1.000000
outer loop
vertex 0.000759 0.006031 0.150000
vertex 0.002029 0.002839 0.150000
vertex 0.002258 0.002297 0.150000
endloop
endfacet
facet normal 0.000000 0.000000 1.000000
outer loop
vertex 0.000020 0.007709 0.150000
vertex 0.000223 0.007097 0.150000
vertex 0.000759 0.006031 0.150000
endloop
endfacet
facet normal 0.000003 0.000000 1.000000
outer loop
vertex 0.005427 0.007070 0.150000
vertex 0.000064 0.008502 0.150000
vertex 0.000020 0.007709 0.150000
endloop
endfacet
facet normal 0.000000 0.000000 1.000000
outer loop
vertex 0.006418 0.006764 0.150000
vertex 0.006351 0.006793 0.150000
vertex 0.005427 0.007070 0.150000
endloop
endfacet
facet normal 0.000000 0.000000 1.000000
outer loop
vertex 0.006660 0.006652 0.150000
vertex 0.006577 0.006693 0.150000
vertex 0.006418 0.006764 0.150000
endloop
endfacet
facet normal -0.000678 0.000000 1.000000
outer loop
vertex 0.006911 0.006485 0.150000
vertex 0.006800 0.006570 0.150000
vertex 0.006660 0.006652 0.150000
endloop
endfacet
facet normal 0.000000 0.000000 1.000000
outer loop
vertex 0.007294 0.006064 0.150000
vertex 0.007006 0.006394 0.150000
vertex 0.006911 0.006485 0.150000
endloop
endfacet
facet normal 0.000000 0.000000 1.000000
outer loop
vertex 0.007399 0.005908 0.150000
vertex 0.007370 0.005958 0.150000
vertex 0.007294 0.006064 0.150000
endloop
endfacet
facet normal 0.003537 0.000000 0.999994
outer loop
vertex 0.007461 0.005756 0.150000
vertex 0.007443 0.005808 0.150000
vertex 0.007399 0.005908 0.150000
endloop
endfacet
facet normal -0.005438 0.000000 0.999985
outer loop
vertex 0.007630 0.005158 0.150000
vertex 0.007611 0.005241 0.150000
vertex 0.007461 0.005756 0.150000
endloop
endfacet
facet normal 0.000000 0.000000 1.000000
outer loop
vertex 0.007890 0.003034 0.150000
vertex 0.007895 0.003153 0.150000
vertex 0.007630 0.005158 0.150000
endloop
endfacet
facet normal 0.000000 0.000000 1.000000
outer loop
vertex 0.007728 0.002287 0.150000
vertex 0.007859 0.002792 0.150000
vertex 0.007890 0.003034 0.150000
endloop
endfacet
facet normal 0.000000 0.000000 1.000000
outer loop
vertex 0.007437 0.001483 0.150000
vertex 0.007485 0.001606 0.150000
vertex 0.007728 0.002287 0.150000
endloop
endfacet
facet normal 0.008291 0.000000 0.999966
outer loop
vertex 0.007339 0.001263 0.150000
vertex 0.007388 0.001370 0.150000
vertex 0.007437 0.001483 0.150000
endloop
endfacet
facet normal 0.000000 0.000000 1.000000
outer loop
vertex 0.007232 0.001060 0.150000
vertex 0.007288 0.001160 0.150000
vertex 0.007339 0.001263 0.150000
endloop
endfacet
facet normal -0.007954 0.000000 0.999968
outer loop
vertex 0.007105 0.000853 0.150000
vertex 0.007172 0.000958 0.150000
vertex 0.007232 0.001060 0.150000
endloop
endfacet
facet normal 0.000000 0.000000 1.000000
outer loop
vertex 0.006946 0.000623 0.150000
vertex 0.007030 0.000743 0.150000
vertex 0.007105 0.000853 0.150000
endloop
endfacet
facet normal 0.000000 0.000000 1.000000
outer loop
vertex 0.006638 0.000216 0.150000
vertex 0.006745 0.000349 0.150000
vertex 0.006946 0.000623 0.150000
endloop
endfacet
facet normal 0.000000 0.000000 1.000000
outer loop
vertex 0.006464 0.000055 0.150000
vertex 0.006546 0.000120 0.150000
vertex 0.006638 0.000216 0.150000
endloop
endfacet
facet normal -0.000675 0.000000 1.000000
outer loop
vertex 0.006325 0.000001 0.150000
vertex 0.006391 0.000017 0.150000
vertex 0.006464 0.000055 0.150000
endloop
endfacet
facet normal 0.000291 0.000000 1.000000
outer loop
vertex 0.006204 0.000017 0.150000
vertex 0.006263 0.000003 0.150000
vertex 0.006325 0.000001 0.150000
endloop
endfacet
facet normal 0.000000 0.000000 1.000000
outer loop
vertex 0.006084 0.000064 0.150000
vertex 0.006145 0.000038 0.150000
vertex 0.006204 0.000017 0.150000
endloop
endfacet
facet normal 0.000000 0.000000 1.000000
outer loop
vertex 0.006084 0.000064 0.150000
vertex 0.006204 0.000017 0.150000
vertex 0.006325 0.000001 0.150000
endloop
endfacet
facet normal 0.000282 0.000000 1.000000
outer loop
vertex 0.006325 0.000001 0.150000
vertex 0.006464 0.000055 0.150000
vertex 0.006638 0.000216 0.150000
endloop
endfacet
facet normal 0.000000 0.000000 1.000000
outer loop
vertex 0.006638 0.000216 0.150000
vertex 0.006946 0.000623 0.150000
vertex 0.007105 0.000853 0.150000
endloop
endfacet
facet normal -0.000954 0.000000 1.000000
outer loop
vertex 0.007105 0.000853 0.150000
vertex 0.007232 0.001060 0.150000
vertex 0.007339 0.001263 0.150000
endloop
endfacet
facet normal -0.001028 0.000000 0.999999
outer loop
vertex 0.007339 0.001263 0.150000
vertex 0.007437 0.001483 0.150000
vertex 0.007728 0.002287 0.150000
endloop
endfacet
facet normal 0.000000 0.000000 1.000000
outer loop
vertex 0.007728 0.002287 0.150000
vertex 0.007890 0.003034 0.150000
vertex 0.007630 0.005158 0.150000
endloop
endfacet
facet normal 0.000318 0.000000 1.000000
outer loop
vertex 0.007630 0.005158 0.150000
vertex 0.007461 0.005756 0.150000
vertex 0.007399 0.005908 0.150000
endloop
endfacet
facet normal 0.000000 0.000000 1.000000
outer loop
vertex 0.007399 0.005908 0.150000
vertex 0.007294 0.006064 0.150000
vertex 0.006911 0.006485 0.150000
endloop
endfacet
facet normal -0.000297 0.000000 1.000000
outer loop
vertex 0.006911 0.006485 0.150000
vertex 0.006660 0.006652 0.150000
vertex 0.006418 0.006764 0.150000
endloop
endfacet
facet normal 0.000000 0.000000 1.000000
outer loop
vertex 0.006418 0.006764 0.150000
vertex 0.005427 0.007070 0.150000
vertex 0.000020 0.007709 0.150000
endloop
endfacet
facet normal 0.000407 0.000000 1.000000
outer loop
vertex 0.000759 0.006031 0.150000
vertex 0.002258 0.002297 0.150000
vertex 0.002374 0.002091 0.150000
endloop
endfacet
facet normal 0.000000 0.000000 1.000000
outer loop
vertex 0.006418 0.006764 0.150000
vertex 0.000020 0.007709 0.150000
vertex 0.000759 0.006031 0.150000
endloop
endfacet
facet normal 0.000000 0.000000 1.000000
outer loop
vertex 0.007399 0.005908 0.150000
vertex 0.006911 0.006485 0.150000
vertex 0.006418 0.006764 0.150000
endloop
endfacet
facet normal 0.000025 0.000000 1.000000
outer loop
vertex 0.007728 0.002287 0.150000
vertex 0.007630 0.005158 0.150000
vertex 0.007399 0.005908 0.150000
endloop
endfacet
facet normal 0.000361 0.000000 1.000000
outer loop
vertex 0.007105 0.000853 0.150000
vertex 0.007339 0.001263 0.150000
vertex 0.007728 0.002287 0.150000
endloop
endfacet
facet normal -0.000146 0.000000 1.000000
outer loop
vertex 0.006325 0.000001 0.150000
vertex 0.006638 0.000216 0.150000
vertex 0.007105 0.000853 0.150000
endloop
endfacet
facet normal 0.000000 0.000000 1.000000
outer loop
vertex 0.006020 0.000087 0.150000
vertex 0.006084 0.000064 0.150000
vertex 0.006325 0.000001 0.150000
endloop
endfacet
facet normal 0.000000 0.000000 1.000000
outer loop
vertex 0.006020 0.000087 0.150000
vertex 0.006325 0.000001 0.150000
vertex 0.007105 0.000853 0.150000
endloop
endfacet
facet normal -0.000043 0.000000 1.000000
outer loop
vertex 0.007105 0.000853 0.150000
vertex 0.007728 0.002287 0.150000
vertex 0.007399 0.005908 0.150000
endloop
endfacet
facet normal 0.000000 0.000000 1.000000
outer loop
vertex 0.007399 0.005908 0.150000
vertex 0.006418 0.006764 0.150000
vertex 0.000759 0.006031 0.150000
endloop
endfacet
facet normal -0.000069 0.000000 1.000000
outer loop
vertex 0.000759 0.006031 0.150000
vertex 0.002374 0.002091 0.150000
vertex 0.002550 0.001858 0.150000
endloop
endfacet
facet normal 0.003120 0.000000 0.999995
outer loop
vertex 0.002550 0.001858 0.150000
vertex 0.002673 0.001715 0.150000
vertex 0.002828 0.001546 0.150000
endloop
endfacet
facet normal -0.073957 0.000000 0.997261
outer loop
vertex 0.002988 0.001371 0.150000
vertex 0.003128 0.001218 0.150000
vertex 0.003251 0.001083 0.150000
endloop
endfacet
facet normal -0.002112 0.000000 0.999998
outer loop
vertex 0.002550 0.001858 0.150000
vertex 0.002828 0.001546 0.150000
vertex 0.002988 0.001371 0.150000
endloop
endfacet
facet normal 0.000000 0.000000 1.000000
outer loop
vertex 0.007399 0.005908 0.150000
vertex 0.000759 0.006031 0.150000
vertex 0.002550 0.001858 0.150000
endloop
endfacet
facet normal 0.000022 0.000000 1.000000
outer loop
vertex 0.006020 0.000087 0.150000
vertex 0.007105 0.000853 0.150000
vertex 0.007399 0.005908 0.150000
endloop
endfacet
facet normal -0.000266 0.000000 1.000000
outer loop
vertex 0.005949 0.000105 0.150000
vertex 0.006020 0.000087 0.150000
vertex 0.007399 0.005908 0.150000
endloop
endfacet
facet normal -0.000004 0.000000 1.000000
outer loop
vertex 0.007399 0.005908 0.150000
vertex 0.002550 0.001858 0.150000
vertex 0.002988 0.001371 0.150000
endloop
endfacet
facet normal 0.004896 0.000000 0.999988
outer loop
vertex 0.002988 0.001371 0.150000
vertex 0.003251 0.001083 0.150000
vertex 0.003361 0.000965 0.150000
endloop
endfacet
facet normal 0.001458 0.000000 0.999999
outer loop
vertex 0.003361 0.000965 0.150000
vertex 0.003461 0.000862 0.150000
vertex 0.003650 0.000694 0.150000
endloop
endfacet
facet normal 0.000000 0.000000 1.000000
outer loop
vertex 0.003650 0.000694 0.150000
vertex 0.003847 0.000564 0.150000
vertex 0.004083 0.000457 0.150000
endloop
endfacet
facet normal 0.000170 0.000000 1.000000
outer loop
vertex 0.004083 0.000457 0.150000
vertex 0.004998 0.000212 0.150000
vertex 0.005290 0.000163 0.150000
endloop
endfacet
facet normal -0.000604 0.000000 1.000000
outer loop
vertex 0.005290 0.000163 0.150000
vertex 0.005555 0.000131 0.150000
vertex 0.005672 0.000121 0.150000
endloop
endfacet
facet normal 0.000167 0.000000 1.000000
outer loop
vertex 0.005672 0.000121 0.150000
vertex 0.005777 0.000114 0.150000
vertex 0.005869 0.000112 0.150000
endloop
endfacet
facet normal 0.000247 0.000000 1.000000
outer loop
vertex 0.005869 0.000112 0.150000
vertex 0.005949 0.000105 0.150000
vertex 0.007399 0.005908 0.150000
endloop
endfacet
facet normal 0.000029 0.000000 1.000000
outer loop
vertex 0.007399 0.005908 0.150000
vertex 0.002988 0.001371 0.150000
vertex 0.003361 0.000965 0.150000
endloop
endfacet
facet normal -0.000150 0.000000 1.000000
outer loop
vertex 0.003361 0.000965 0.150000
vertex 0.003650 0.000694 0.150000
vertex 0.004083 0.000457 0.150000
endloop
endfacet
facet normal 0.000075 0.000000 1.000000
outer loop
vertex 0.004083 0.000457 0.150000
vertex 0.005290 0.000163 0.150000
vertex 0.005672 0.000121 0.150000
endloop
endfacet
facet normal 0.000000 0.000000 1.000000
outer loop
vertex 0.005672 0.000121 0.150000
vertex 0.005869 0.000112 0.150000
vertex 0.007399 0.005908 0.150000
endloop
endfacet
facet normal -0.000008 0.000000 1.000000
outer loop
vertex 0.007399 0.005908 0.150000
vertex 0.003361 0.000965 0.150000
vertex 0.004083 0.000457 0.150000
endloop
endfacet
facet normal -0.000012 0.000000 1.000000
outer loop
vertex 0.004083 0.000457 0.150000
vertex 0.005672 0.000121 0.150000
vertex 0.007399 0.005908 0.150000
endloop
endfacet
facet normal -0.910954 -0.412508 0.000000
outer loop
vertex 0.002209 0.002406 0.000000
vertex 0.002258 0.002297 0.000000
vertex 0.002258 0.002297 0.150000
endloop
endfacet
facet normal -0.910955 -0.412505 0.000000
outer loop
vertex 0.002209 0.002406 0.000000
vertex 0.002258 0.002297 0.150000
vertex 0.002209 0.002406 0.150000
endloop
endfacet
facet normal 0.000000 0.000000 -1.000000
outer loop
vertex 0.001601 0.003782 0.000000
vertex 0.002029 0.002839 0.000000
vertex 0.002209 0.002406 0.000000
endloop
endfacet
facet normal -0.939654 -0.342127 0.000000
outer loop
vertex 0.000759 0.006031 0.150000
vertex 0.000759 0.006031 0.000000
vertex 0.001410 0.004244 0.000000
endloop
endfacet
facet normal -0.914807 -0.403890 0.000000
outer loop
vertex 0.001601 0.003782 0.000000
vertex 0.002209 0.002406 0.000000
vertex 0.002209 0.002406 0.150000
endloop
endfacet
facet normal -0.923846 -0.382764 0.000553
outer loop
vertex 0.000759 0.006031 0.150000
vertex 0.001410 0.004244 0.000000
vertex 0.001601 0.003782 0.000000
endloop
endfacet
facet normal -0.939654 -0.342126 -0.000145
outer loop
vertex 0.001410 0.004244 0.150000
vertex 0.000759 0.006031 0.150000
vertex 0.001601 0.003782 0.000000
endloop
endfacet
facet normal -0.923692 -0.383136 0.000226
outer loop
vertex 0.001601 0.003782 0.000000
vertex 0.002209 0.002406 0.150000
vertex 0.002029 0.002839 0.150000
endloop
endfacet
facet normal -0.923846 -0.382764 0.000000
outer loop
vertex 0.001601 0.003782 0.150000
vertex 0.001410 0.004244 0.150000
vertex 0.001601 0.003782 0.000000
endloop
endfacet
facet normal -0.910635 -0.413212 0.000000
outer loop
vertex 0.002029 0.002839 0.150000
vertex 0.001601 0.003782 0.150000
vertex 0.001601 0.003782 0.000000
endloop
endfacet
facet normal 0.000000 0.000000 1.000000
outer loop
vertex 0.002988 0.001371 0.000000
vertex 0.003128 0.001218 0.000000
vertex 0.003251 0.001083 0.000000
endloop
endfacet
facet normal 0.000000 0.000000 1.000000
outer loop
vertex 0.003251 0.001083 0.000000
vertex 0.003361 0.000965 0.000000
vertex 0.003461 0.000862 0.000000
endloop
endfacet
facet normal -0.714387 -0.699751 0.000000
outer loop
vertex 0.003461 0.000862 0.000000
vertex 0.003461 0.000862 0.150000
vertex 0.003361 0.000965 0.150000
endloop
endfacet
facet normal -0.731234 -0.682127 -0.000023
outer loop
vertex 0.003461 0.000862 0.000000
vertex 0.003361 0.000965 0.150000
vertex 0.003251 0.001083 0.150000
endloop
endfacet
facet normal 0.000000 0.000000 1.000000
outer loop
vertex 0.002988 0.001371 0.000000
vertex 0.003251 0.001083 0.000000
vertex 0.003461 0.000862 0.000000
endloop
endfacet
facet normal 0.000000 0.000000 1.000000
outer loop
vertex 0.002673 0.001715 0.000000
vertex 0.002828 0.001546 0.000000
vertex 0.002988 0.001371 0.000000
endloop
endfacet
facet normal -0.757333 -0.653029 0.000000
outer loop
vertex 0.002550 0.001858 0.150000
vertex 0.002550 0.001858 0.000000
vertex 0.002673 0.001715 0.000000
endloop
endfacet
facet normal -0.757332 -0.653030 0.000000
outer loop
vertex 0.002673 0.001715 0.150000
vertex 0.002550 0.001858 0.150000
vertex 0.002673 0.001715 0.000000
endloop
endfacet
facet normal 0.000000 0.000000 1.000000
outer loop
vertex 0.002673 0.001715 0.000000
vertex 0.002988 0.001371 0.000000
vertex 0.003461 0.000862 0.000000
endloop
endfacet
facet normal -0.738772 -0.673955 -0.000046
outer loop
vertex 0.003461 0.000862 0.000000
vertex 0.003251 0.001083 0.150000
vertex 0.003128 0.001218 0.150000
endloop
endfacet
facet normal -0.739643 -0.672999 -0.000050
outer loop
vertex 0.003461 0.000862 0.000000
vertex 0.003128 0.001218 0.150000
vertex 0.002988 0.001371 0.150000
endloop
endfacet
facet normal -0.734481 -0.678629 0.000000
outer loop
vertex 0.002673 0.001715 0.150000
vertex 0.002673 0.001715 0.000000
vertex 0.003461 0.000862 0.000000
endloop
endfacet
facet normal -0.735960 -0.677025 -0.000025
outer loop
vertex 0.003461 0.000862 0.000000
vertex 0.002988 0.001371 0.150000
vertex 0.002828 0.001546 0.150000
endloop
endfacet
facet normal -0.739500 -0.673156 -0.000058
outer loop
vertex 0.003461 0.000862 0.000000
vertex 0.002828 0.001546 0.150000
vertex 0.002673 0.001715 0.150000
endloop
endfacet
facet normal 0.811898 0.583799 0.000000
outer loop
vertex 0.007370 0.005958 0.000000
vertex 0.007294 0.006064 0.000000
vertex 0.007294 0.006064 0.150000
endloop
endfacet
facet normal 0.811893 0.583807 0.000000
outer loop
vertex 0.007370 0.005958 0.000000
vertex 0.007294 0.006064 0.150000
vertex 0.007370 0.005958 0.150000
endloop
endfacet
facet normal 0.691132 0.722728 0.000000
outer loop
vertex 0.007006 0.006394 0.150000
vertex 0.007006 0.006394 0.000000
vertex 0.006911 0.006485 0.000000
endloop
endfacet
facet normal 0.691132 0.722728 0.000000
outer loop
vertex 0.007006 0.006394 0.150000
vertex 0.006911 0.006485 0.000000
vertex 0.006911 0.006485 0.150000
endloop
endfacet
facet normal -0.968006 0.250928 0.000000
outer loop
vertex 0.000064 0.008502 0.150000
vertex 0.000064 0.008502 0.000000
vertex 0.000045 0.008431 0.000000
endloop
endfacet
facet normal -0.968006 0.250928 0.000000
outer loop
vertex 0.000064 0.008502 0.150000
vertex 0.000045 0.008431 0.000000
vertex 0.000045 0.008431 0.150000
endloop
endfacet
facet normal 0.867482 0.497468 0.000000
outer loop
vertex 0.007399 0.005908 0.150000
vertex 0.007399 0.005908 0.000000
vertex 0.007370 0.005958 0.000000
endloop
endfacet
facet normal 0.867482 0.497468 0.000000
outer loop
vertex 0.007399 0.005908 0.150000
vertex 0.007370 0.005958 0.000000
vertex 0.007370 0.005958 0.150000
endloop
endfacet
facet normal 0.000000 0.000000 -1.000000
outer loop
vertex 0.006125 0.006878 0.000000
vertex 0.005427 0.007070 0.000000
vertex 0.005140 0.007160 0.000000
endloop
endfacet
facet normal 0.299390 0.954131 0.000000
outer loop
vertex 0.005140 0.007160 0.000000
vertex 0.005140 0.007160 0.150000
vertex 0.005427 0.007070 0.150000
endloop
endfacet
facet normal 0.341086 0.940032 0.000000
outer loop
vertex 0.006125 0.006878 0.150000
vertex 0.006290 0.006819 0.150000
vertex 0.006290 0.006819 0.000000
endloop
endfacet
facet normal 0.264748 0.964318 0.000072
outer loop
vertex 0.005140 0.007160 0.000000
vertex 0.005427 0.007070 0.150000
vertex 0.006125 0.006878 0.150000
endloop
endfacet
facet normal 0.341088 0.940031 0.000000
outer loop
vertex 0.006125 0.006878 0.150000
vertex 0.006290 0.006819 0.000000
vertex 0.006125 0.006878 0.000000
endloop
endfacet
facet normal 0.274952 0.961458 0.000000
outer loop
vertex 0.006125 0.006878 0.000000
vertex 0.005140 0.007160 0.000000
vertex 0.006125 0.006878 0.150000
endloop
endfacet
facet normal 0.620944 -0.783855 0.000000
outer loop
vertex 0.006464 0.000055 0.150000
vertex 0.006464 0.000055 0.000000
vertex 0.006546 0.000120 0.000000
endloop
endfacet
facet normal 0.620937 -0.783861 0.000000
outer loop
vertex 0.006464 0.000055 0.150000
vertex 0.006546 0.000120 0.000000
vertex 0.006546 0.000120 0.150000
endloop
endfacet
facet normal -0.801596 0.597866 0.000000
outer loop
vertex 0.000145 0.008652 0.150000
vertex 0.000145 0.008652 0.000000
vertex 0.000114 0.008611 0.000000
endloop
endfacet
facet normal -0.801596 0.597866 0.000000
outer loop
vertex 0.000145 0.008652 0.150000
vertex 0.000114 0.008611 0.000000
vertex 0.000114 0.008611 0.150000
endloop
endfacet
facet normal 0.843150 -0.537679 0.000000
outer loop
vertex 0.007105 0.000853 0.000000
vertex 0.007172 0.000958 0.000000
vertex 0.007172 0.000958 0.150000
endloop
endfacet
facet normal 0.843150 -0.537679 0.000000
outer loop
vertex 0.007105 0.000853 0.000000
vertex 0.007172 0.000958 0.150000
vertex 0.007105 0.000853 0.150000
endloop
endfacet
facet normal 0.828894 -0.559406 0.000000
outer loop
vertex 0.007030 0.000743 0.000000
vertex 0.007105 0.000853 0.000000
vertex 0.007105 0.000853 0.150000
endloop
endfacet
facet normal 0.828889 -0.559414 0.000000
outer loop
vertex 0.007030 0.000743 0.000000
vertex 0.007105 0.000853 0.150000
vertex 0.007030 0.000743 0.150000
endloop
endfacet
facet normal 0.817420 -0.576042 0.000000
outer loop
vertex 0.006946 0.000623 0.000000
vertex 0.007030 0.000743 0.000000
vertex 0.007030 0.000743 0.150000
endloop
endfacet
facet normal 0.817415 -0.576049 0.000000
outer loop
vertex 0.006946 0.000623 0.000000
vertex 0.007030 0.000743 0.150000
vertex 0.006946 0.000623 0.150000
endloop
endfacet
facet normal 0.779942 -0.625852 0.000000
outer loop
vertex 0.006638 0.000216 0.150000
vertex 0.006638 0.000216 0.000000
vertex 0.006745 0.000349 0.000000
endloop
endfacet
facet normal 0.805857 -0.592110 0.000000
outer loop
vertex 0.006745 0.000349 0.000000
vertex 0.006946 0.000623 0.000000
vertex 0.006946 0.000623 0.150000
endloop
endfacet
facet normal 0.779942 -0.625852 0.000000
outer loop
vertex 0.006745 0.000349 0.150000
vertex 0.006638 0.000216 0.150000
vertex 0.006745 0.000349 0.000000
endloop
endfacet
facet normal 0.805857 -0.592110 0.000000
outer loop
vertex 0.006946 0.000623 0.150000
vertex 0.006745 0.000349 0.150000
vertex 0.006745 0.000349 0.000000
endloop
endfacet
facet normal -0.185580 0.982629 0.000000
outer loop
vertex 0.000580 0.008960 0.150000
vertex 0.000580 0.008960 0.000000
vertex 0.000532 0.008951 0.000000
endloop
endfacet
facet normal -0.185579 0.982629 0.000000
outer loop
vertex 0.000580 0.008960 0.150000
vertex 0.000532 0.008951 0.000000
vertex 0.000532 0.008951 0.150000
endloop
endfacet
facet normal -0.689069 0.724696 0.000000
outer loop
vertex 0.000445 0.008908 0.150000
vertex 0.000445 0.008908 0.000000
vertex 0.000368 0.008835 0.000000
endloop
endfacet
facet normal -0.689069 0.724696 0.000000
outer loop
vertex 0.000445 0.008908 0.150000
vertex 0.000368 0.008835 0.000000
vertex 0.000368 0.008835 0.150000
endloop
endfacet
facet normal 0.914423 0.404759 0.000000
outer loop
vertex 0.007443 0.005808 0.000000
vertex 0.007399 0.005908 0.000000
vertex 0.007399 0.005908 0.150000
endloop
endfacet
facet normal 0.914423 0.404759 0.000000
outer loop
vertex 0.007443 0.005808 0.000000
vertex 0.007399 0.005908 0.150000
vertex 0.007443 0.005808 0.150000
endloop
endfacet
facet normal 0.376867 0.926267 0.000000
outer loop
vertex 0.005140 0.007160 0.000000
vertex 0.004541 0.007404 0.000000
vertex 0.004541 0.007404 0.150000
endloop
endfacet
facet normal 0.376866 0.926268 0.000000
outer loop
vertex 0.005140 0.007160 0.000000
vertex 0.004541 0.007404 0.150000
vertex 0.005140 0.007160 0.150000
endloop
endfacet
facet normal -0.664727 -0.747086 0.000000
outer loop
vertex 0.003461 0.000862 0.150000
vertex 0.003461 0.000862 0.000000
vertex 0.003650 0.000694 0.000000
endloop
endfacet
facet normal -0.664727 -0.747086 0.000000
outer loop
vertex 0.003461 0.000862 0.150000
vertex 0.003650 0.000694 0.000000
vertex 0.003650 0.000694 0.150000
endloop
endfacet
facet normal 0.236084 -0.971733 0.000000
outer loop
vertex 0.006325 0.000001 0.150000
vertex 0.006325 0.000001 0.000000
vertex 0.006391 0.000017 0.000000
endloop
endfacet
facet normal 0.236081 -0.971733 0.000000
outer loop
vertex 0.006325 0.000001 0.150000
vertex 0.006391 0.000017 0.000000
vertex 0.006391 0.000017 0.150000
endloop
endfacet
facet normal 0.463193 -0.886257 0.000000
outer loop
vertex 0.006391 0.000017 0.150000
vertex 0.006391 0.000017 0.000000
vertex 0.006464 0.000055 0.000000
endloop
endfacet
facet normal 0.463185 -0.886261 0.000000
outer loop
vertex 0.006391 0.000017 0.150000
vertex 0.006464 0.000055 0.000000
vertex 0.006464 0.000055 0.150000
endloop
endfacet
facet normal -0.991796 -0.127832 0.000000
outer loop
vertex 0.000004 0.007833 0.150000
vertex 0.000004 0.007833 0.000000
vertex 0.000020 0.007709 0.000000
endloop
endfacet
facet normal -0.991796 -0.127832 0.000000
outer loop
vertex 0.000004 0.007833 0.150000
vertex 0.000020 0.007709 0.000000
vertex 0.000020 0.007709 0.150000
endloop
endfacet
facet normal -0.348868 -0.937172 0.000000
outer loop
vertex 0.006145 0.000038 0.000000
vertex 0.006204 0.000017 0.000000
vertex 0.006204 0.000017 0.150000
endloop
endfacet
facet normal -0.348864 -0.937173 0.000000
outer loop
vertex 0.006145 0.000038 0.000000
vertex 0.006204 0.000017 0.150000
vertex 0.006145 0.000038 0.150000
endloop
endfacet
facet normal -0.344914 -0.938634 0.000000
outer loop
vertex 0.006020 0.000087 0.150000
vertex 0.006020 0.000087 0.000000
vertex 0.006084 0.000064 0.000000
endloop
endfacet
facet normal -0.383161 -0.923681 0.000000
outer loop
vertex 0.006084 0.000064 0.000000
vertex 0.006145 0.000038 0.000000
vertex 0.006145 0.000038 0.150000
endloop
endfacet
facet normal -0.344918 -0.938633 0.000000
outer loop
vertex 0.006084 0.000064 0.150000
vertex 0.006020 0.000087 0.150000
vertex 0.006084 0.000064 0.000000
endloop
endfacet
facet normal -0.383165 -0.923680 0.000000
outer loop
vertex 0.006145 0.000038 0.150000
vertex 0.006084 0.000064 0.150000
vertex 0.006084 0.000064 0.000000
endloop
endfacet
facet normal -0.798972 -0.601368 0.000000
outer loop
vertex 0.002374 0.002091 0.000000
vertex 0.002550 0.001858 0.000000
vertex 0.002550 0.001858 0.150000
endloop
endfacet
facet normal -0.798972 -0.601368 0.000000
outer loop
vertex 0.002374 0.002091 0.000000
vertex 0.002550 0.001858 0.150000
vertex 0.002374 0.002091 0.150000
endloop
endfacet
facet normal 0.606108 0.795383 0.000000
outer loop
vertex 0.006800 0.006570 0.000000
vertex 0.006800 0.006570 0.150000
vertex 0.006911 0.006485 0.150000
endloop
endfacet
facet normal 0.606113 0.795379 0.000000
outer loop
vertex 0.006800 0.006570 0.000000
vertex 0.006911 0.006485 0.150000
vertex 0.006911 0.006485 0.000000
endloop
endfacet
facet normal 0.000000 0.000000 1.000000
outer loop
vertex 0.000329 0.008803 0.000000
vertex 0.000214 0.008718 0.000000
vertex 0.000178 0.008687 0.000000
endloop
endfacet
facet normal -0.649296 0.760536 0.000000
outer loop
vertex 0.000178 0.008687 0.000000
vertex 0.000178 0.008687 0.150000
vertex 0.000214 0.008718 0.150000
endloop
endfacet
facet normal -0.641000 0.767541 0.000000
outer loop
vertex 0.000329 0.008803 0.150000
vertex 0.000368 0.008835 0.150000
vertex 0.000368 0.008835 0.000000
endloop
endfacet
facet normal -0.594195 0.804321 -0.000022
outer loop
vertex 0.000178 0.008687 0.000000
vertex 0.000214 0.008718 0.150000
vertex 0.000329 0.008803 0.150000
endloop
endfacet
facet normal -0.640999 0.767541 0.000000
outer loop
vertex 0.000329 0.008803 0.150000
vertex 0.000368 0.008835 0.000000
vertex 0.000329 0.008803 0.000000
endloop
endfacet
facet normal -0.608118 0.793846 0.000000
outer loop
vertex 0.000329 0.008803 0.000000
vertex 0.000178 0.008687 0.000000
vertex 0.000329 0.008803 0.150000
endloop
endfacet
facet normal 0.920498 -0.390747 0.000000
outer loop
vertex 0.007437 0.001483 0.150000
vertex 0.007388 0.001370 0.150000
vertex 0.007388 0.001370 0.000000
endloop
endfacet
facet normal 0.000000 0.000000 1.000000
outer loop
vertex 0.007388 0.001370 0.000000
vertex 0.007437 0.001483 0.000000
vertex 0.007485 0.001606 0.000000
endloop
endfacet
facet normal 0.942088 -0.335366 0.000000
outer loop
vertex 0.007485 0.001606 0.000000
vertex 0.007728 0.002287 0.000000
vertex 0.007728 0.002287 0.150000
endloop
endfacet
facet normal 0.929858 -0.367918 -0.000020
outer loop
vertex 0.007485 0.001606 0.150000
vertex 0.007437 0.001483 0.150000
vertex 0.007388 0.001370 0.000000
endloop
endfacet
facet normal 0.942088 -0.335366 0.000000
outer loop
vertex 0.007485 0.001606 0.000000
vertex 0.007728 0.002287 0.150000
vertex 0.007485 0.001606 0.150000
endloop
endfacet
facet normal 0.925417 -0.378951 0.000000
outer loop
vertex 0.007388 0.001370 0.000000
vertex 0.007485 0.001606 0.000000
vertex 0.007485 0.001606 0.150000
endloop
endfacet
facet normal 0.991388 0.130958 0.000000
outer loop
vertex 0.007895 0.003153 0.000000
vertex 0.007630 0.005158 0.000000
vertex 0.007630 0.005158 0.150000
endloop
endfacet
facet normal 0.991388 0.130958 0.000000
outer loop
vertex 0.007895 0.003153 0.000000
vertex 0.007630 0.005158 0.150000
vertex 0.007895 0.003153 0.150000
endloop
endfacet
facet normal 0.099038 0.995084 0.000000
outer loop
vertex 0.001232 0.008903 0.150000
vertex 0.001232 0.008903 0.000000
vertex 0.000632 0.008963 0.000000
endloop
endfacet
facet normal 0.099039 0.995084 0.000000
outer loop
vertex 0.001232 0.008903 0.150000
vertex 0.000632 0.008963 0.000000
vertex 0.000632 0.008963 0.150000
endloop
endfacet
facet normal -0.883993 -0.467500 0.000000
outer loop
vertex 0.000332 0.006839 0.150000
vertex 0.000332 0.006839 0.000000
vertex 0.000759 0.006031 0.000000
endloop
endfacet
facet normal -0.883993 -0.467500 0.000000
outer loop
vertex 0.000332 0.006839 0.150000
vertex 0.000759 0.006031 0.000000
vertex 0.000759 0.006031 0.150000
endloop
endfacet
facet normal -0.917374 -0.398025 0.000000
outer loop
vertex 0.000286 0.006944 0.000000
vertex 0.000332 0.006839 0.000000
vertex 0.000332 0.006839 0.150000
endloop
endfacet
facet normal -0.917374 -0.398025 0.000000
outer loop
vertex 0.000286 0.006944 0.000000
vertex 0.000332 0.006839 0.150000
vertex 0.000286 0.006944 0.150000
endloop
endfacet
facet normal -0.921391 -0.388637 0.000000
outer loop
vertex 0.000244 0.007046 0.000000
vertex 0.000286 0.006944 0.000000
vertex 0.000286 0.006944 0.150000
endloop
endfacet
facet normal -0.921391 -0.388636 0.000000
outer loop
vertex 0.000244 0.007046 0.000000
vertex 0.000286 0.006944 0.150000
vertex 0.000244 0.007046 0.150000
endloop
endfacet
facet normal -0.925613 -0.378471 0.000000
outer loop
vertex 0.000223 0.007097 0.000000
vertex 0.000244 0.007046 0.000000
vertex 0.000244 0.007046 0.150000
endloop
endfacet
facet normal -0.925614 -0.378469 0.000000
outer loop
vertex 0.000223 0.007097 0.000000
vertex 0.000244 0.007046 0.150000
vertex 0.000223 0.007097 0.150000
endloop
endfacet
facet normal -0.928863 -0.370425 0.000000
outer loop
vertex 0.000202 0.007148 0.000000
vertex 0.000223 0.007097 0.000000
vertex 0.000223 0.007097 0.150000
endloop
endfacet
facet normal -0.928863 -0.370424 0.000000
outer loop
vertex 0.000202 0.007148 0.000000
vertex 0.000223 0.007097 0.150000
vertex 0.000202 0.007148 0.150000
endloop
endfacet
facet normal -0.932264 -0.361780 0.000000
outer loop
vertex 0.000182 0.007201 0.000000
vertex 0.000202 0.007148 0.000000
vertex 0.000202 0.007148 0.150000
endloop
endfacet
facet normal -0.932264 -0.361780 0.000000
outer loop
vertex 0.000182 0.007201 0.000000
vertex 0.000202 0.007148 0.150000
vertex 0.000182 0.007201 0.150000
endloop
endfacet
facet normal -0.935677 -0.352857 0.000000
outer loop
vertex 0.000161 0.007256 0.000000
vertex 0.000182 0.007201 0.000000
vertex 0.000182 0.007201 0.150000
endloop
endfacet
facet normal -0.935677 -0.352858 0.000000
outer loop
vertex 0.000161 0.007256 0.000000
vertex 0.000182 0.007201 0.150000
vertex 0.000161 0.007256 0.150000
endloop
endfacet
facet normal -0.938985 -0.343958 0.000000
outer loop
vertex 0.000140 0.007314 0.000000
vertex 0.000161 0.007256 0.000000
vertex 0.000161 0.007256 0.150000
endloop
endfacet
facet normal -0.938985 -0.343958 0.000000
outer loop
vertex 0.000140 0.007314 0.000000
vertex 0.000161 0.007256 0.150000
vertex 0.000140 0.007314 0.150000
endloop
endfacet
facet normal -0.942093 -0.335350 0.000000
outer loop
vertex 0.000118 0.007375 0.000000
vertex 0.000140 0.007314 0.000000
vertex 0.000140 0.007314 0.150000
endloop
endfacet
facet normal -0.942094 -0.335350 0.000000
outer loop
vertex 0.000118 0.007375 0.000000
vertex 0.000140 0.007314 0.150000
vertex 0.000118 0.007375 0.150000
endloop
endfacet
facet normal -0.954773 -0.297336 0.000000
outer loop
vertex 0.000051 0.007579 0.150000
vertex 0.000051 0.007579 0.000000
vertex 0.000072 0.007509 0.000000
endloop
endfacet
facet normal -0.946271 -0.323373 0.000000
outer loop
vertex 0.000072 0.007509 0.000000
vertex 0.000118 0.007375 0.000000
vertex 0.000118 0.007375 0.150000
endloop
endfacet
facet normal -0.954773 -0.297337 0.000000
outer loop
vertex 0.000072 0.007509 0.150000
vertex 0.000051 0.007579 0.150000
vertex 0.000072 0.007509 0.000000
endloop
endfacet
facet normal -0.946271 -0.323373 0.000000
outer loop
vertex 0.000118 0.007375 0.150000
vertex 0.000072 0.007509 0.150000
vertex 0.000072 0.007509 0.000000
endloop
endfacet
facet normal 0.000000 0.000000 1.000000
outer loop
vertex 0.005290 0.000163 0.000000
vertex 0.005555 0.000131 0.000000
vertex 0.005672 0.000121 0.000000
endloop
endfacet
facet normal 0.000000 0.000000 1.000000
outer loop
vertex 0.005672 0.000121 0.000000
vertex 0.005777 0.000114 0.000000
vertex 0.005869 0.000112 0.000000
endloop
endfacet
facet normal -0.088160 -0.996106 0.000000
outer loop
vertex 0.005869 0.000112 0.000000
vertex 0.005949 0.000105 0.000000
vertex 0.005949 0.000105 0.150000
endloop
endfacet
facet normal -0.088159 -0.996106 0.000000
outer loop
vertex 0.005869 0.000112 0.000000
vertex 0.005949 0.000105 0.150000
vertex 0.005869 0.000112 0.150000
endloop
endfacet
facet normal 0.000000 0.000000 1.000000
outer loop
vertex 0.005290 0.000163 0.000000
vertex 0.005672 0.000121 0.000000
vertex 0.005869 0.000112 0.000000
endloop
endfacet
facet normal -0.164717 -0.986341 0.000000
outer loop
vertex 0.004998 0.000212 0.150000
vertex 0.004998 0.000212 0.000000
vertex 0.005290 0.000163 0.000000
endloop
endfacet
facet normal -0.164718 -0.986341 0.000000
outer loop
vertex 0.005290 0.000163 0.150000
vertex 0.004998 0.000212 0.150000
vertex 0.005290 0.000163 0.000000
endloop
endfacet
facet normal -0.087710 -0.996146 0.000000
outer loop
vertex 0.005290 0.000163 0.000000
vertex 0.005869 0.000112 0.000000
vertex 0.005869 0.000112 0.150000
endloop
endfacet
facet normal -0.022901 -0.999738 -0.000251
outer loop
vertex 0.005290 0.000163 0.000000
vertex 0.005869 0.000112 0.150000
vertex 0.005777 0.000114 0.150000
endloop
endfacet
facet normal -0.122262 -0.992498 0.000000
outer loop
vertex 0.005555 0.000131 0.150000
vertex 0.005290 0.000163 0.150000
vertex 0.005290 0.000163 0.000000
endloop
endfacet
facet normal -0.058089 -0.998311 -0.000137
outer loop
vertex 0.005290 0.000163 0.000000
vertex 0.005777 0.000114 0.150000
vertex 0.005672 0.000121 0.150000
endloop
endfacet
facet normal -0.086390 -0.996261 -0.000064
outer loop
vertex 0.005672 0.000121 0.150000
vertex 0.005555 0.000131 0.150000
vertex 0.005290 0.000163 0.000000
endloop
endfacet
facet normal 0.380395 0.924824 0.000000
outer loop
vertex 0.006351 0.006793 0.000000
vertex 0.006290 0.006819 0.000000
vertex 0.006290 0.006819 0.150000
endloop
endfacet
facet normal 0.380399 0.924822 0.000000
outer loop
vertex 0.006351 0.006793 0.000000
vertex 0.006290 0.006819 0.150000
vertex 0.006351 0.006793 0.150000
endloop
endfacet
facet normal 0.395582 0.918431 0.000000
outer loop
vertex 0.006418 0.006764 0.000000
vertex 0.006351 0.006793 0.000000
vertex 0.006351 0.006793 0.150000
endloop
endfacet
facet normal 0.395582 0.918431 0.000000
outer loop
vertex 0.006418 0.006764 0.000000
vertex 0.006351 0.006793 0.150000
vertex 0.006418 0.006764 0.150000
endloop
endfacet
facet normal 0.439579 0.898204 0.000000
outer loop
vertex 0.006660 0.006652 0.150000
vertex 0.006660 0.006652 0.000000
vertex 0.006577 0.006693 0.000000
endloop
endfacet
facet normal 0.411750 0.911297 0.000000
outer loop
vertex 0.006577 0.006693 0.000000
vertex 0.006418 0.006764 0.000000
vertex 0.006418 0.006764 0.150000
endloop
endfacet
facet normal 0.439579 0.898204 0.000000
outer loop
vertex 0.006577 0.006693 0.150000
vertex 0.006660 0.006652 0.150000
vertex 0.006577 0.006693 0.000000
endloop
endfacet
facet normal 0.411752 0.911296 0.000000
outer loop
vertex 0.006418 0.006764 0.150000
vertex 0.006577 0.006693 0.150000
vertex 0.006577 0.006693 0.000000
endloop
endfacet
facet normal 0.945601 0.325328 0.000000
outer loop
vertex 0.007461 0.005756 0.000000
vertex 0.007443 0.005808 0.000000
vertex 0.007443 0.005808 0.150000
endloop
endfacet
facet normal 0.945601 0.325328 0.000000
outer loop
vertex 0.007461 0.005756 0.000000
vertex 0.007443 0.005808 0.150000
vertex 0.007461 0.005756 0.150000
endloop
endfacet
facet normal 0.974822 0.222983 0.000000
outer loop
vertex 0.007630 0.005158 0.150000
vertex 0.007630 0.005158 0.000000
vertex 0.007611 0.005241 0.000000
endloop
endfacet
facet normal 0.960053 0.279819 0.000000
outer loop
vertex 0.007611 0.005241 0.000000
vertex 0.007461 0.005756 0.000000
vertex 0.007461 0.005756 0.150000
endloop
endfacet
facet normal 0.974826 0.222965 0.000000
outer loop
vertex 0.007611 0.005241 0.150000
vertex 0.007630 0.005158 0.150000
vertex 0.007611 0.005241 0.000000
endloop
endfacet
facet normal 0.960053 0.279819 0.000000
outer loop
vertex 0.007461 0.005756 0.150000
vertex 0.007611 0.005241 0.150000
vertex 0.007611 0.005241 0.000000
endloop
endfacet
facet normal -0.347997 0.937496 0.000000
outer loop
vertex 0.000532 0.008951 0.150000
vertex 0.000532 0.008951 0.000000
vertex 0.000487 0.008934 0.000000
endloop
endfacet
facet normal -0.347998 0.937495 0.000000
outer loop
vertex 0.000532 0.008951 0.150000
vertex 0.000487 0.008934 0.000000
vertex 0.000487 0.008934 0.150000
endloop
endfacet
facet normal 0.908280 -0.418362 0.000000
outer loop
vertex 0.007339 0.001263 0.000000
vertex 0.007388 0.001370 0.000000
vertex 0.007388 0.001370 0.150000
endloop
endfacet
facet normal 0.908280 -0.418362 0.000000
outer loop
vertex 0.007339 0.001263 0.000000
vertex 0.007388 0.001370 0.150000
vertex 0.007339 0.001263 0.150000
endloop
endfacet
facet normal 0.893420 -0.449222 0.000000
outer loop
vertex 0.007288 0.001160 0.000000
vertex 0.007339 0.001263 0.000000
vertex 0.007339 0.001263 0.150000
endloop
endfacet
facet normal 0.893420 -0.449222 0.000000
outer loop
vertex 0.007288 0.001160 0.000000
vertex 0.007339 0.001263 0.150000
vertex 0.007288 0.001160 0.150000
endloop
endfacet
facet normal 0.859489 -0.511154 0.000000
outer loop
vertex 0.007172 0.000958 0.150000
vertex 0.007172 0.000958 0.000000
vertex 0.007232 0.001060 0.000000
endloop
endfacet
facet normal 0.876732 -0.480979 0.000000
outer loop
vertex 0.007232 0.001060 0.000000
vertex 0.007288 0.001160 0.000000
vertex 0.007288 0.001160 0.150000
endloop
endfacet
facet normal 0.859495 -0.511144 0.000000
outer loop
vertex 0.007232 0.001060 0.150000
vertex 0.007172 0.000958 0.150000
vertex 0.007232 0.001060 0.000000
endloop
endfacet
facet normal 0.876732 -0.480979 0.000000
outer loop
vertex 0.007232 0.001060 0.000000
vertex 0.007288 0.001160 0.150000
vertex 0.007232 0.001060 0.150000
endloop
endfacet
facet normal 0.254129 0.967170 0.000000
outer loop
vertex 0.001511 0.008837 0.000000
vertex 0.001361 0.008876 0.000000
vertex 0.001361 0.008876 0.150000
endloop
endfacet
facet normal 0.254129 0.967170 0.000000
outer loop
vertex 0.001511 0.008837 0.000000
vertex 0.001361 0.008876 0.150000
vertex 0.001511 0.008837 0.150000
endloop
endfacet
facet normal 0.289828 0.957079 0.000000
outer loop
vertex 0.001676 0.008787 0.000000
vertex 0.001511 0.008837 0.000000
vertex 0.001511 0.008837 0.150000
endloop
endfacet
facet normal 0.289828 0.957079 0.000000
outer loop
vertex 0.001676 0.008787 0.000000
vertex 0.001511 0.008837 0.150000
vertex 0.001676 0.008787 0.150000
endloop
endfacet
facet normal 0.316080 0.948732 0.000000
outer loop
vertex 0.001852 0.008729 0.000000
vertex 0.001676 0.008787 0.000000
vertex 0.001676 0.008787 0.150000
endloop
endfacet
facet normal 0.316081 0.948732 0.000000
outer loop
vertex 0.001852 0.008729 0.000000
vertex 0.001676 0.008787 0.150000
vertex 0.001852 0.008729 0.150000
endloop
endfacet
facet normal 0.336917 0.941534 0.000000
outer loop
vertex 0.002034 0.008663 0.000000
vertex 0.001852 0.008729 0.000000
vertex 0.001852 0.008729 0.150000
endloop
endfacet
facet normal 0.336917 0.941534 0.000000
outer loop
vertex 0.002034 0.008663 0.000000
vertex 0.001852 0.008729 0.150000
vertex 0.002034 0.008663 0.150000
endloop
endfacet
facet normal 0.354684 0.934986 0.000000
outer loop
vertex 0.002218 0.008594 0.000000
vertex 0.002034 0.008663 0.000000
vertex 0.002034 0.008663 0.150000
endloop
endfacet
facet normal 0.354683 0.934986 0.000000
outer loop
vertex 0.002218 0.008594 0.000000
vertex 0.002034 0.008663 0.150000
vertex 0.002218 0.008594 0.150000
endloop
endfacet
facet normal 0.386963 0.922095 0.000000
outer loop
vertex 0.002570 0.008449 0.150000
vertex 0.002570 0.008449 0.000000
vertex 0.002398 0.008522 0.000000
endloop
endfacet
facet normal 0.370936 0.928658 0.000000
outer loop
vertex 0.002398 0.008522 0.000000
vertex 0.002218 0.008594 0.000000
vertex 0.002218 0.008594 0.150000
endloop
endfacet
facet normal 0.386964 0.922095 0.000000
outer loop
vertex 0.002398 0.008522 0.150000
vertex 0.002570 0.008449 0.150000
vertex 0.002398 0.008522 0.000000
endloop
endfacet
facet normal 0.370936 0.928658 0.000000
outer loop
vertex 0.002218 0.008594 0.150000
vertex 0.002398 0.008522 0.150000
vertex 0.002398 0.008522 0.000000
endloop
endfacet
facet normal 0.468680 0.883368 0.000000
outer loop
vertex 0.004541 0.007404 0.000000
vertex 0.002570 0.008449 0.000000
vertex 0.002570 0.008449 0.150000
endloop
endfacet
facet normal 0.468680 0.883368 0.000000
outer loop
vertex 0.004541 0.007404 0.000000
vertex 0.002570 0.008449 0.150000
vertex 0.004541 0.007404 0.150000
endloop
endfacet
facet normal 0.507865 0.861437 0.000000
outer loop
vertex 0.006800 0.006570 0.000000
vertex 0.006660 0.006652 0.000000
vertex 0.006660 0.006652 0.150000
endloop
endfacet
facet normal 0.507865 0.861437 0.000000
outer loop
vertex 0.006800 0.006570 0.000000
vertex 0.006660 0.006652 0.150000
vertex 0.006800 0.006570 0.150000
endloop
endfacet
facet normal -0.875419 0.483365 0.000000
outer loop
vertex 0.000114 0.008611 0.150000
vertex 0.000114 0.008611 0.000000
vertex 0.000087 0.008562 0.000000
endloop
endfacet
facet normal -0.875419 0.483365 0.000000
outer loop
vertex 0.000114 0.008611 0.150000
vertex 0.000087 0.008562 0.000000
vertex 0.000087 0.008562 0.150000
endloop
endfacet
facet normal 0.991844 -0.127454 0.000000
outer loop
vertex 0.007859 0.002792 0.000000
vertex 0.007890 0.003034 0.000000
vertex 0.007890 0.003034 0.150000
endloop
endfacet
facet normal 0.991844 -0.127454 0.000000
outer loop
vertex 0.007859 0.002792 0.000000
vertex 0.007890 0.003034 0.150000
vertex 0.007859 0.002792 0.150000
endloop
endfacet
facet normal 0.967658 -0.252268 0.000000
outer loop
vertex 0.007728 0.002287 0.000000
vertex 0.007859 0.002792 0.000000
vertex 0.007859 0.002792 0.150000
endloop
endfacet
facet normal 0.967658 -0.252268 0.000000
outer loop
vertex 0.007728 0.002287 0.000000
vertex 0.007859 0.002792 0.150000
vertex 0.007728 0.002287 0.150000
endloop
endfacet
facet normal -0.520807 0.853674 0.000000
outer loop
vertex 0.000487 0.008934 0.150000
vertex 0.000487 0.008934 0.000000
vertex 0.000445 0.008908 0.000000
endloop
endfacet
facet normal -0.520807 0.853674 0.000000
outer loop
vertex 0.000487 0.008934 0.150000
vertex 0.000445 0.008908 0.000000
vertex 0.000445 0.008908 0.150000
endloop
endfacet
facet normal -0.054970 0.998488 0.000000
outer loop
vertex 0.000632 0.008963 0.150000
vertex 0.000632 0.008963 0.000000
vertex 0.000580 0.008960 0.000000
endloop
endfacet
facet normal -0.054970 0.998488 0.000000
outer loop
vertex 0.000632 0.008963 0.150000
vertex 0.000580 0.008960 0.000000
vertex 0.000580 0.008960 0.150000
endloop
endfacet
facet normal -0.870919 -0.491426 0.000000
outer loop
vertex 0.002258 0.002297 0.150000
vertex 0.002258 0.002297 0.000000
vertex 0.002374 0.002091 0.000000
endloop
endfacet
facet normal -0.870919 -0.491426 0.000000
outer loop
vertex 0.002258 0.002297 0.150000
vertex 0.002374 0.002091 0.000000
vertex 0.002374 0.002091 0.150000
endloop
endfacet
endsolid Exported from Blender-3.6.8
