solid Exported from Blender-3.6.8
facet normal -0.161323 -0.986902 0.000000
outer loop
vertex 0.003932 0.000061 0.000000
vertex 0.004182 0.000020 0.000000
vertex 0.004182 0.000020 0.150000
endloop
endfacet
facet normal -0.161323 -0.986902 0.000000
outer loop
vertex 0.003932 0.000061 0.000000
vertex 0.004182 0.000020 0.150000
vertex 0.003932 0.000061 0.150000
endloop
endfacet
facet normal -0.737278 -0.675589 0.000000
outer loop
vertex 0.000485 0.002876 0.000000
vertex 0.001080 0.002227 0.000000
vertex 0.001080 0.002227 0.150000
endloop
endfacet
facet normal -0.737278 -0.675589 0.000000
outer loop
vertex 0.000485 0.002876 0.000000
vertex 0.001080 0.002227 0.150000
vertex 0.000485 0.002876 0.150000
endloop
endfacet
facet normal 0.331548 -0.943438 0.000000
outer loop
vertex 0.005042 0.000076 0.150000
vertex 0.005042 0.000076 0.000000
vertex 0.005192 0.000129 0.000000
endloop
endfacet
facet normal 0.331547 -0.943439 0.000000
outer loop
vertex 0.005042 0.000076 0.150000
vertex 0.005192 0.000129 0.000000
vertex 0.005192 0.000129 0.150000
endloop
endfacet
facet normal 0.422431 -0.906395 0.000000
outer loop
vertex 0.005192 0.000129 0.150000
vertex 0.005192 0.000129 0.000000
vertex 0.005340 0.000198 0.000000
endloop
endfacet
facet normal 0.422429 -0.906396 0.000000
outer loop
vertex 0.005192 0.000129 0.150000
vertex 0.005340 0.000198 0.000000
vertex 0.005340 0.000198 0.150000
endloop
endfacet
facet normal 0.989759 0.142746 0.000000
outer loop
vertex 0.006901 0.002875 0.150000
vertex 0.006901 0.002875 0.000000
vertex 0.006882 0.003009 0.000000
endloop
endfacet
facet normal 0.989759 0.142746 0.000000
outer loop
vertex 0.006901 0.002875 0.150000
vertex 0.006882 0.003009 0.000000
vertex 0.006882 0.003009 0.150000
endloop
endfacet
facet normal -0.253195 -0.967415 0.000000
outer loop
vertex 0.003813 0.000092 0.150000
vertex 0.003813 0.000092 0.000000
vertex 0.003932 0.000061 0.000000
endloop
endfacet
facet normal -0.253196 -0.967415 0.000000
outer loop
vertex 0.003813 0.000092 0.150000
vertex 0.003932 0.000061 0.000000
vertex 0.003932 0.000061 0.150000
endloop
endfacet
facet normal 0.000000 0.000000 1.000000
outer loop
vertex 0.002504 0.000973 0.000000
vertex 0.002674 0.000829 0.000000
vertex 0.002837 0.000696 0.000000
endloop
endfacet
facet normal 0.000000 0.000000 1.000000
outer loop
vertex 0.002837 0.000696 0.000000
vertex 0.002994 0.000573 0.000000
vertex 0.003144 0.000461 0.000000
endloop
endfacet
facet normal -0.596747 -0.802430 0.000000
outer loop
vertex 0.003144 0.000461 0.000000
vertex 0.003144 0.000461 0.150000
vertex 0.002994 0.000573 0.150000
endloop
endfacet
facet normal -0.617521 -0.786554 -0.000033
outer loop
vertex 0.003144 0.000461 0.000000
vertex 0.002994 0.000573 0.150000
vertex 0.002837 0.000696 0.150000
endloop
endfacet
facet normal 0.000000 0.000000 1.000000
outer loop
vertex 0.002504 0.000973 0.000000
vertex 0.002837 0.000696 0.000000
vertex 0.003144 0.000461 0.000000
endloop
endfacet
facet normal 0.000000 0.000000 1.000000
outer loop
vertex 0.001954 0.001449 0.000000
vertex 0.002326 0.001125 0.000000
vertex 0.002504 0.000973 0.000000
endloop
endfacet
facet normal 0.000000 0.000000 1.000000
outer loop
vertex 0.001590 0.001764 0.000000
vertex 0.001770 0.001608 0.000000
vertex 0.001954 0.001449 0.000000
endloop
endfacet
facet normal 0.000000 0.000000 1.000000
outer loop
vertex 0.001244 0.002072 0.000000
vertex 0.001415 0.001918 0.000000
vertex 0.001590 0.001764 0.000000
endloop
endfacet
facet normal -0.684132 -0.729358 0.000000
outer loop
vertex 0.001080 0.002227 0.150000
vertex 0.001080 0.002227 0.000000
vertex 0.001244 0.002072 0.000000
endloop
endfacet
facet normal -0.684132 -0.729358 0.000000
outer loop
vertex 0.001244 0.002072 0.150000
vertex 0.001080 0.002227 0.150000
vertex 0.001244 0.002072 0.000000
endloop
endfacet
facet normal 0.000000 0.000000 1.000000
outer loop
vertex 0.001244 0.002072 0.000000
vertex 0.001590 0.001764 0.000000
vertex 0.001954 0.001449 0.000000
endloop
endfacet
facet normal 0.000000 0.000000 1.000000
outer loop
vertex 0.001954 0.001449 0.000000
vertex 0.002504 0.000973 0.000000
vertex 0.003144 0.000461 0.000000
endloop
endfacet
facet normal -0.633026 -0.774131 -0.000084
outer loop
vertex 0.003144 0.000461 0.000000
vertex 0.002837 0.000696 0.150000
vertex 0.002674 0.000829 0.150000
endloop
endfacet
facet normal -0.644267 -0.764801 -0.000142
outer loop
vertex 0.003144 0.000461 0.000000
vertex 0.002674 0.000829 0.150000
vertex 0.002504 0.000973 0.150000
endloop
endfacet
facet normal 0.000000 0.000000 1.000000
outer loop
vertex 0.001244 0.002072 0.000000
vertex 0.001954 0.001449 0.000000
vertex 0.003144 0.000461 0.000000
endloop
endfacet
facet normal -0.670458 -0.741948 0.000000
outer loop
vertex 0.001415 0.001918 0.150000
vertex 0.001244 0.002072 0.150000
vertex 0.001244 0.002072 0.000000
endloop
endfacet
facet normal -0.660878 -0.750493 -0.000020
outer loop
vertex 0.001590 0.001764 0.150000
vertex 0.001415 0.001918 0.150000
vertex 0.001244 0.002072 0.000000
endloop
endfacet
facet normal -0.646909 -0.762567 -0.000161
outer loop
vertex 0.001244 0.002072 0.000000
vertex 0.003144 0.000461 0.000000
vertex 0.002504 0.000973 0.150000
endloop
endfacet
facet normal -0.652003 -0.758216 -0.000086
outer loop
vertex 0.001244 0.002072 0.000000
vertex 0.002504 0.000973 0.150000
vertex 0.002326 0.001125 0.150000
endloop
endfacet
facet normal -0.655380 -0.755300 -0.000042
outer loop
vertex 0.001770 0.001608 0.150000
vertex 0.001590 0.001764 0.150000
vertex 0.001244 0.002072 0.000000
endloop
endfacet
facet normal -0.656429 -0.754388 -0.000030
outer loop
vertex 0.001244 0.002072 0.000000
vertex 0.002326 0.001125 0.150000
vertex 0.001954 0.001449 0.150000
endloop
endfacet
facet normal -0.653841 -0.756632 -0.000052
outer loop
vertex 0.001954 0.001449 0.150000
vertex 0.001770 0.001608 0.150000
vertex 0.001244 0.002072 0.000000
endloop
endfacet
facet normal 0.000000 0.000000 1.000000
outer loop
vertex 0.001079 0.004235 0.150000
vertex 0.000806 0.004224 0.150000
vertex 0.000000 0.004137 0.150000
endloop
endfacet
facet normal 0.000152 0.000000 1.000000
outer loop
vertex 0.000000 0.004137 0.150000
vertex 0.000233 0.003236 0.150000
vertex 0.000485 0.002876 0.150000
endloop
endfacet
facet normal -0.000242 0.000000 1.000000
outer loop
vertex 0.000485 0.002876 0.150000
vertex 0.001080 0.002227 0.150000
vertex 0.001244 0.002072 0.150000
endloop
endfacet
facet normal 0.000000 0.000000 1.000000
outer loop
vertex 0.001244 0.002072 0.150000
vertex 0.001415 0.001918 0.150000
vertex 0.001590 0.001764 0.150000
endloop
endfacet
facet normal 0.000000 0.000000 1.000000
outer loop
vertex 0.001590 0.001764 0.150000
vertex 0.001770 0.001608 0.150000
vertex 0.001954 0.001449 0.150000
endloop
endfacet
facet normal -0.005379 0.000000 0.999985
outer loop
vertex 0.001954 0.001449 0.150000
vertex 0.002326 0.001125 0.150000
vertex 0.002504 0.000973 0.150000
endloop
endfacet
facet normal -0.005306 0.000000 0.999986
outer loop
vertex 0.002504 0.000973 0.150000
vertex 0.002674 0.000829 0.150000
vertex 0.002837 0.000696 0.150000
endloop
endfacet
facet normal 0.003729 0.000000 0.999993
outer loop
vertex 0.002837 0.000696 0.150000
vertex 0.002994 0.000573 0.150000
vertex 0.003144 0.000461 0.150000
endloop
endfacet
facet normal -0.000671 0.000000 1.000000
outer loop
vertex 0.003144 0.000461 0.150000
vertex 0.003427 0.000273 0.150000
vertex 0.003689 0.000138 0.150000
endloop
endfacet
facet normal -0.001096 0.000000 0.999999
outer loop
vertex 0.003689 0.000138 0.150000
vertex 0.003813 0.000092 0.150000
vertex 0.003932 0.000061 0.150000
endloop
endfacet
facet normal 0.000145 0.000000 1.000000
outer loop
vertex 0.003932 0.000061 0.150000
vertex 0.004182 0.000020 0.150000
vertex 0.004455 0.000000 0.150000
endloop
endfacet
facet normal -0.000269 0.000000 1.000000
outer loop
vertex 0.004455 0.000000 0.150000
vertex 0.004745 0.000015 0.150000
vertex 0.005042 0.000076 0.150000
endloop
endfacet
facet normal 0.000000 0.000000 1.000000
outer loop
vertex 0.005042 0.000076 0.150000
vertex 0.005192 0.000129 0.150000
vertex 0.005340 0.000198 0.150000
endloop
endfacet
facet normal 0.000000 0.000000 1.000000
outer loop
vertex 0.005340 0.000198 0.150000
vertex 0.005486 0.000285 0.150000
vertex 0.005629 0.000392 0.150000
endloop
endfacet
facet normal 0.011864 0.000000 0.999930
outer loop
vertex 0.005629 0.000392 0.150000
vertex 0.005772 0.000512 0.150000
vertex 0.005916 0.000636 0.150000
endloop
endfacet
facet normal -0.017748 0.000000 0.999843
outer loop
vertex 0.005916 0.000636 0.150000
vertex 0.006058 0.000760 0.150000
vertex 0.006197 0.000882 0.150000
endloop
endfacet
facet normal -0.029392 0.000000 0.999568
outer loop
vertex 0.006197 0.000882 0.150000
vertex 0.006329 0.000999 0.150000
vertex 0.006452 0.001109 0.150000
endloop
endfacet
facet normal 0.000000 0.000000 1.000000
outer loop
vertex 0.006452 0.001109 0.150000
vertex 0.006564 0.001210 0.150000
vertex 0.006661 0.001298 0.150000
endloop
endfacet
facet normal 0.082248 0.000000 0.996612
outer loop
vertex 0.006661 0.001298 0.150000
vertex 0.006741 0.001371 0.150000
vertex 0.006801 0.001426 0.150000
endloop
endfacet
facet normal 0.000000 0.000000 1.000000
outer loop
vertex 0.006801 0.001426 0.150000
vertex 0.006839 0.001461 0.150000
vertex 0.006852 0.001474 0.150000
endloop
endfacet
facet normal -0.001076 0.000000 0.999999
outer loop
vertex 0.006852 0.001474 0.150000
vertex 0.006895 0.001991 0.150000
vertex 0.006912 0.002356 0.150000
endloop
endfacet
facet normal 0.000000 0.000000 1.000000
outer loop
vertex 0.006912 0.002356 0.150000
vertex 0.006915 0.002541 0.150000
vertex 0.006901 0.002875 0.150000
endloop
endfacet
facet normal -0.001820 0.000000 0.999998
outer loop
vertex 0.006901 0.002875 0.150000
vertex 0.006882 0.003009 0.150000
vertex 0.006852 0.003108 0.150000
endloop
endfacet
facet normal -0.000935 0.000000 1.000000
outer loop
vertex 0.006852 0.003108 0.150000
vertex 0.006707 0.003454 0.150000
vertex 0.006609 0.003633 0.150000
endloop
endfacet
facet normal 0.000000 0.000000 1.000000
outer loop
vertex 0.006609 0.003633 0.150000
vertex 0.006549 0.003719 0.150000
vertex 0.006477 0.003803 0.150000
endloop
endfacet
facet normal 0.001198 0.000000 0.999999
outer loop
vertex 0.006477 0.003803 0.150000
vertex 0.006394 0.003883 0.150000
vertex 0.006297 0.003958 0.150000
endloop
endfacet
facet normal 0.000918 0.000000 1.000000
outer loop
vertex 0.006297 0.003958 0.150000
vertex 0.006184 0.004028 0.150000
vertex 0.006054 0.004090 0.150000
endloop
endfacet
facet normal 0.000086 0.000000 1.000000
outer loop
vertex 0.006054 0.004090 0.150000
vertex 0.005553 0.004268 0.150000
vertex 0.004761 0.004465 0.150000
endloop
endfacet
facet normal 0.000065 0.000000 1.000000
outer loop
vertex 0.004761 0.004465 0.150000
vertex 0.004384 0.004520 0.150000
vertex 0.004062 0.004529 0.150000
endloop
endfacet
facet normal -0.000021 0.000000 1.000000
outer loop
vertex 0.001079 0.004235 0.150000
vertex 0.000000 0.004137 0.150000
vertex 0.000485 0.002876 0.150000
endloop
endfacet
facet normal -0.000018 0.000000 1.000000
outer loop
vertex 0.004761 0.004465 0.150000
vertex 0.004062 0.004529 0.150000
vertex 0.001079 0.004235 0.150000
endloop
endfacet
facet normal -0.000093 0.000000 1.000000
outer loop
vertex 0.006297 0.003958 0.150000
vertex 0.006054 0.004090 0.150000
vertex 0.004761 0.004465 0.150000
endloop
endfacet
facet normal 0.000000 0.000000 1.000000
outer loop
vertex 0.006609 0.003633 0.150000
vertex 0.006477 0.003803 0.150000
vertex 0.006297 0.003958 0.150000
endloop
endfacet
facet normal 0.000467 0.000000 1.000000
outer loop
vertex 0.006901 0.002875 0.150000
vertex 0.006852 0.003108 0.150000
vertex 0.006609 0.003633 0.150000
endloop
endfacet
facet normal 0.000359 0.000000 1.000000
outer loop
vertex 0.006852 0.001474 0.150000
vertex 0.006912 0.002356 0.150000
vertex 0.006901 0.002875 0.150000
endloop
endfacet
facet normal 0.000000 0.000000 1.000000
outer loop
vertex 0.006661 0.001298 0.150000
vertex 0.006801 0.001426 0.150000
vertex 0.006852 0.001474 0.150000
endloop
endfacet
facet normal 0.000000 0.000000 1.000000
outer loop
vertex 0.006197 0.000882 0.150000
vertex 0.006452 0.001109 0.150000
vertex 0.006661 0.001298 0.150000
endloop
endfacet
facet normal 0.007258 0.000000 0.999974
outer loop
vertex 0.005629 0.000392 0.150000
vertex 0.005916 0.000636 0.150000
vertex 0.006197 0.000882 0.150000
endloop
endfacet
facet normal 0.000000 0.000000 1.000000
outer loop
vertex 0.005042 0.000076 0.150000
vertex 0.005340 0.000198 0.150000
vertex 0.005629 0.000392 0.150000
endloop
endfacet
facet normal 0.000024 0.000000 1.000000
outer loop
vertex 0.003932 0.000061 0.150000
vertex 0.004455 0.000000 0.150000
vertex 0.005042 0.000076 0.150000
endloop
endfacet
facet normal 0.000452 0.000000 1.000000
outer loop
vertex 0.003144 0.000461 0.150000
vertex 0.003689 0.000138 0.150000
vertex 0.003932 0.000061 0.150000
endloop
endfacet
facet normal -0.001085 0.000000 0.999999
outer loop
vertex 0.002504 0.000973 0.150000
vertex 0.002837 0.000696 0.150000
vertex 0.003144 0.000461 0.150000
endloop
endfacet
facet normal 0.002224 0.000000 0.999998
outer loop
vertex 0.001244 0.002072 0.150000
vertex 0.001590 0.001764 0.150000
vertex 0.001954 0.001449 0.150000
endloop
endfacet
facet normal 0.000608 0.000000 1.000000
outer loop
vertex 0.001954 0.001449 0.150000
vertex 0.002504 0.000973 0.150000
vertex 0.003144 0.000461 0.150000
endloop
endfacet
facet normal -0.000003 0.000000 1.000000
outer loop
vertex 0.003144 0.000461 0.150000
vertex 0.003932 0.000061 0.150000
vertex 0.005042 0.000076 0.150000
endloop
endfacet
facet normal -0.000135 0.000000 1.000000
outer loop
vertex 0.005042 0.000076 0.150000
vertex 0.005629 0.000392 0.150000
vertex 0.006197 0.000882 0.150000
endloop
endfacet
facet normal -0.002097 0.000000 0.999998
outer loop
vertex 0.006197 0.000882 0.150000
vertex 0.006661 0.001298 0.150000
vertex 0.006852 0.001474 0.150000
endloop
endfacet
facet normal 0.000033 0.000000 1.000000
outer loop
vertex 0.006852 0.001474 0.150000
vertex 0.006901 0.002875 0.150000
vertex 0.006609 0.003633 0.150000
endloop
endfacet
facet normal 0.000043 0.000000 1.000000
outer loop
vertex 0.006609 0.003633 0.150000
vertex 0.006297 0.003958 0.150000
vertex 0.004761 0.004465 0.150000
endloop
endfacet
facet normal 0.000000 0.000000 1.000000
outer loop
vertex 0.004761 0.004465 0.150000
vertex 0.001079 0.004235 0.150000
vertex 0.000485 0.002876 0.150000
endloop
endfacet
facet normal -0.000151 0.000000 1.000000
outer loop
vertex 0.000485 0.002876 0.150000
vertex 0.001244 0.002072 0.150000
vertex 0.001954 0.001449 0.150000
endloop
endfacet
facet normal -0.000015 0.000000 1.000000
outer loop
vertex 0.001954 0.001449 0.150000
vertex 0.003144 0.000461 0.150000
vertex 0.005042 0.000076 0.150000
endloop
endfacet
facet normal 0.000000 0.000000 1.000000
outer loop
vertex 0.005042 0.000076 0.150000
vertex 0.006197 0.000882 0.150000
vertex 0.006852 0.001474 0.150000
endloop
endfacet
facet normal -0.000008 0.000000 1.000000
outer loop
vertex 0.006852 0.001474 0.150000
vertex 0.006609 0.003633 0.150000
vertex 0.004761 0.004465 0.150000
endloop
endfacet
facet normal 0.000000 0.000000 1.000000
outer loop
vertex 0.004761 0.004465 0.150000
vertex 0.000485 0.002876 0.150000
vertex 0.001954 0.001449 0.150000
endloop
endfacet
facet normal 0.000004 0.000000 1.000000
outer loop
vertex 0.001954 0.001449 0.150000
vertex 0.005042 0.000076 0.150000
vertex 0.006852 0.001474 0.150000
endloop
endfacet
facet normal 0.000000 0.000000 1.000000
outer loop
vertex 0.001954 0.001449 0.150000
vertex 0.006852 0.001474 0.150000
vertex 0.004761 0.004465 0.150000
endloop
endfacet
facet normal 0.000000 0.000000 -1.000000
outer loop
vertex 0.004745 0.000015 0.000000
vertex 0.004455 0.000000 0.000000
vertex 0.004182 0.000020 0.000000
endloop
endfacet
facet normal 0.000000 0.000000 -1.000000
outer loop
vertex 0.004182 0.000020 0.000000
vertex 0.003932 0.000061 0.000000
vertex 0.003813 0.000092 0.000000
endloop
endfacet
facet normal 0.000000 0.000000 -1.000000
outer loop
vertex 0.003813 0.000092 0.000000
vertex 0.003689 0.000138 0.000000
vertex 0.003427 0.000273 0.000000
endloop
endfacet
facet normal 0.000000 0.000000 -1.000000
outer loop
vertex 0.003427 0.000273 0.000000
vertex 0.003144 0.000461 0.000000
vertex 0.002994 0.000573 0.000000
endloop
endfacet
facet normal 0.000000 0.000000 -1.000000
outer loop
vertex 0.002994 0.000573 0.000000
vertex 0.002837 0.000696 0.000000
vertex 0.002674 0.000829 0.000000
endloop
endfacet
facet normal 0.000000 0.000000 -1.000000
outer loop
vertex 0.002674 0.000829 0.000000
vertex 0.002504 0.000973 0.000000
vertex 0.002326 0.001125 0.000000
endloop
endfacet
facet normal 0.000000 0.000000 -1.000000
outer loop
vertex 0.001954 0.001449 0.000000
vertex 0.001770 0.001608 0.000000
vertex 0.001590 0.001764 0.000000
endloop
endfacet
facet normal 0.000000 0.000000 -1.000000
outer loop
vertex 0.002674 0.000829 0.000000
vertex 0.002326 0.001125 0.000000
vertex 0.001954 0.001449 0.000000
endloop
endfacet
facet normal 0.000000 0.000000 -1.000000
outer loop
vertex 0.003427 0.000273 0.000000
vertex 0.002994 0.000573 0.000000
vertex 0.002674 0.000829 0.000000
endloop
endfacet
facet normal 0.000000 0.000000 -1.000000
outer loop
vertex 0.004182 0.000020 0.000000
vertex 0.003813 0.000092 0.000000
vertex 0.003427 0.000273 0.000000
endloop
endfacet
facet normal 0.000000 0.000000 -1.000000
outer loop
vertex 0.005042 0.000076 0.000000
vertex 0.004745 0.000015 0.000000
vertex 0.004182 0.000020 0.000000
endloop
endfacet
facet normal 0.000000 0.000000 -1.000000
outer loop
vertex 0.005340 0.000198 0.000000
vertex 0.005192 0.000129 0.000000
vertex 0.005042 0.000076 0.000000
endloop
endfacet
facet normal 0.000000 0.000000 -1.000000
outer loop
vertex 0.005629 0.000392 0.000000
vertex 0.005486 0.000285 0.000000
vertex 0.005340 0.000198 0.000000
endloop
endfacet
facet normal 0.000000 0.000000 -1.000000
outer loop
vertex 0.005916 0.000636 0.000000
vertex 0.005772 0.000512 0.000000
vertex 0.005629 0.000392 0.000000
endloop
endfacet
facet normal 0.000000 0.000000 -1.000000
outer loop
vertex 0.006197 0.000882 0.000000
vertex 0.006058 0.000760 0.000000
vertex 0.005916 0.000636 0.000000
endloop
endfacet
facet normal 0.000000 0.000000 -1.000000
outer loop
vertex 0.006452 0.001109 0.000000
vertex 0.006329 0.000999 0.000000
vertex 0.006197 0.000882 0.000000
endloop
endfacet
facet normal 0.000000 0.000000 -1.000000
outer loop
vertex 0.006661 0.001298 0.000000
vertex 0.006564 0.001210 0.000000
vertex 0.006452 0.001109 0.000000
endloop
endfacet
facet normal 0.000000 0.000000 -1.000000
outer loop
vertex 0.006801 0.001426 0.000000
vertex 0.006741 0.001371 0.000000
vertex 0.006661 0.001298 0.000000
endloop
endfacet
facet normal 0.000000 0.000000 -1.000000
outer loop
vertex 0.006852 0.001474 0.000000
vertex 0.006839 0.001461 0.000000
vertex 0.006801 0.001426 0.000000
endloop
endfacet
facet normal 0.000000 0.000000 -1.000000
outer loop
vertex 0.006912 0.002356 0.000000
vertex 0.006895 0.001991 0.000000
vertex 0.006852 0.001474 0.000000
endloop
endfacet
facet normal 0.000000 0.000000 -1.000000
outer loop
vertex 0.006901 0.002875 0.000000
vertex 0.006915 0.002541 0.000000
vertex 0.006912 0.002356 0.000000
endloop
endfacet
facet normal 0.000000 0.000000 -1.000000
outer loop
vertex 0.006852 0.003108 0.000000
vertex 0.006882 0.003009 0.000000
vertex 0.006901 0.002875 0.000000
endloop
endfacet
facet normal 0.000000 0.000000 -1.000000
outer loop
vertex 0.006609 0.003633 0.000000
vertex 0.006707 0.003454 0.000000
vertex 0.006852 0.003108 0.000000
endloop
endfacet
facet normal 0.000000 0.000000 -1.000000
outer loop
vertex 0.006477 0.003803 0.000000
vertex 0.006549 0.003719 0.000000
vertex 0.006609 0.003633 0.000000
endloop
endfacet
facet normal 0.000000 0.000000 -1.000000
outer loop
vertex 0.006297 0.003958 0.000000
vertex 0.006394 0.003883 0.000000
vertex 0.006477 0.003803 0.000000
endloop
endfacet
facet normal 0.000000 0.000000 -1.000000
outer loop
vertex 0.006054 0.004090 0.000000
vertex 0.006184 0.004028 0.000000
vertex 0.006297 0.003958 0.000000
endloop
endfacet
facet normal 0.000000 0.000000 -1.000000
outer loop
vertex 0.004761 0.004465 0.000000
vertex 0.005553 0.004268 0.000000
vertex 0.006054 0.004090 0.000000
endloop
endfacet
facet normal 0.000000 0.000000 -1.000000
outer loop
vertex 0.004062 0.004529 0.000000
vertex 0.004384 0.004520 0.000000
vertex 0.004761 0.004465 0.000000
endloop
endfacet
facet normal 0.000000 0.000000 -1.000000
outer loop
vertex 0.000000 0.004137 0.000000
vertex 0.000806 0.004224 0.000000
vertex 0.001079 0.004235 0.000000
endloop
endfacet
facet normal 0.000000 0.000000 -1.000000
outer loop
vertex 0.001079 0.004235 0.000000
vertex 0.004062 0.004529 0.000000
vertex 0.004761 0.004465 0.000000
endloop
endfacet
facet normal 0.000000 0.000000 -1.000000
outer loop
vertex 0.004761 0.004465 0.000000
vertex 0.006054 0.004090 0.000000
vertex 0.006297 0.003958 0.000000
endloop
endfacet
facet normal 0.000000 0.000000 -1.000000
outer loop
vertex 0.006297 0.003958 0.000000
vertex 0.006477 0.003803 0.000000
vertex 0.006609 0.003633 0.000000
endloop
endfacet
facet normal 0.000000 0.000000 -1.000000
outer loop
vertex 0.006609 0.003633 0.000000
vertex 0.006852 0.003108 0.000000
vertex 0.006901 0.002875 0.000000
endloop
endfacet
facet normal 0.000000 0.000000 -1.000000
outer loop
vertex 0.006901 0.002875 0.000000
vertex 0.006912 0.002356 0.000000
vertex 0.006852 0.001474 0.000000
endloop
endfacet
facet normal 0.000000 0.000000 -1.000000
outer loop
vertex 0.006852 0.001474 0.000000
vertex 0.006801 0.001426 0.000000
vertex 0.006661 0.001298 0.000000
endloop
endfacet
facet normal 0.000000 0.000000 -1.000000
outer loop
vertex 0.006661 0.001298 0.000000
vertex 0.006452 0.001109 0.000000
vertex 0.006197 0.000882 0.000000
endloop
endfacet
facet normal 0.000000 0.000000 -1.000000
outer loop
vertex 0.006197 0.000882 0.000000
vertex 0.005916 0.000636 0.000000
vertex 0.005629 0.000392 0.000000
endloop
endfacet
facet normal 0.000000 0.000000 -1.000000
outer loop
vertex 0.005629 0.000392 0.000000
vertex 0.005340 0.000198 0.000000
vertex 0.005042 0.000076 0.000000
endloop
endfacet
facet normal 0.000000 0.000000 -1.000000
outer loop
vertex 0.005042 0.000076 0.000000
vertex 0.004182 0.000020 0.000000
vertex 0.003427 0.000273 0.000000
endloop
endfacet
facet normal 0.000000 0.000000 -1.000000
outer loop
vertex 0.003427 0.000273 0.000000
vertex 0.002674 0.000829 0.000000
vertex 0.001954 0.001449 0.000000
endloop
endfacet
facet normal 0.000000 0.000000 -1.000000
outer loop
vertex 0.001954 0.001449 0.000000
vertex 0.001590 0.001764 0.000000
vertex 0.001415 0.001918 0.000000
endloop
endfacet
facet normal 0.000000 0.000000 -1.000000
outer loop
vertex 0.001415 0.001918 0.000000
vertex 0.001244 0.002072 0.000000
vertex 0.001080 0.002227 0.000000
endloop
endfacet
facet normal 0.000000 0.000000 -1.000000
outer loop
vertex 0.001080 0.002227 0.000000
vertex 0.000485 0.002876 0.000000
vertex 0.000233 0.003236 0.000000
endloop
endfacet
facet normal 0.000000 0.000000 -1.000000
outer loop
vertex 0.000233 0.003236 0.000000
vertex 0.000000 0.004137 0.000000
vertex 0.001079 0.004235 0.000000
endloop
endfacet
facet normal 0.000000 0.000000 -1.000000
outer loop
vertex 0.001079 0.004235 0.000000
vertex 0.004761 0.004465 0.000000
vertex 0.006297 0.003958 0.000000
endloop
endfacet
facet normal 0.000000 0.000000 -1.000000
outer loop
vertex 0.006297 0.003958 0.000000
vertex 0.006609 0.003633 0.000000
vertex 0.006901 0.002875 0.000000
endloop
endfacet
facet normal 0.000000 0.000000 -1.000000
outer loop
vertex 0.006901 0.002875 0.000000
vertex 0.006852 0.001474 0.000000
vertex 0.006661 0.001298 0.000000
endloop
endfacet
facet normal 0.000000 0.000000 -1.000000
outer loop
vertex 0.006661 0.001298 0.000000
vertex 0.006197 0.000882 0.000000
vertex 0.005629 0.000392 0.000000
endloop
endfacet
facet normal 0.000000 0.000000 -1.000000
outer loop
vertex 0.005629 0.000392 0.000000
vertex 0.005042 0.000076 0.000000
vertex 0.003427 0.000273 0.000000
endloop
endfacet
facet normal 0.000000 0.000000 -1.000000
outer loop
vertex 0.003427 0.000273 0.000000
vertex 0.001954 0.001449 0.000000
vertex 0.001415 0.001918 0.000000
endloop
endfacet
facet normal 0.000000 0.000000 -1.000000
outer loop
vertex 0.001415 0.001918 0.000000
vertex 0.001080 0.002227 0.000000
vertex 0.000233 0.003236 0.000000
endloop
endfacet
facet normal 0.000000 0.000000 -1.000000
outer loop
vertex 0.000233 0.003236 0.000000
vertex 0.001079 0.004235 0.000000
vertex 0.006297 0.003958 0.000000
endloop
endfacet
facet normal 0.000000 0.000000 -1.000000
outer loop
vertex 0.006297 0.003958 0.000000
vertex 0.006901 0.002875 0.000000
vertex 0.006661 0.001298 0.000000
endloop
endfacet
facet normal 0.000000 0.000000 -1.000000
outer loop
vertex 0.006661 0.001298 0.000000
vertex 0.005629 0.000392 0.000000
vertex 0.003427 0.000273 0.000000
endloop
endfacet
facet normal 0.000000 0.000000 -1.000000
outer loop
vertex 0.003427 0.000273 0.000000
vertex 0.001415 0.001918 0.000000
vertex 0.000233 0.003236 0.000000
endloop
endfacet
facet normal 0.000000 0.000000 -1.000000
outer loop
vertex 0.000233 0.003236 0.000000
vertex 0.006297 0.003958 0.000000
vertex 0.006661 0.001298 0.000000
endloop
endfacet
facet normal 0.000000 0.000000 -1.000000
outer loop
vertex 0.003427 0.000273 0.000000
vertex 0.000233 0.003236 0.000000
vertex 0.006661 0.001298 0.000000
endloop
endfacet
facet normal 0.202436 -0.979296 0.000000
outer loop
vertex 0.005042 0.000076 0.000000
vertex 0.005042 0.000076 0.150000
vertex 0.004745 0.000015 0.150000
endloop
endfacet
facet normal 0.202436 -0.979296 0.000000
outer loop
vertex 0.005042 0.000076 0.000000
vertex 0.004745 0.000015 0.150000
vertex 0.004745 0.000015 0.000000
endloop
endfacet
facet normal 0.522491 0.852645 0.000000
outer loop
vertex 0.006297 0.003958 0.150000
vertex 0.006297 0.003958 0.000000
vertex 0.006184 0.004028 0.000000
endloop
endfacet
facet normal 0.522489 0.852646 0.000000
outer loop
vertex 0.006297 0.003958 0.150000
vertex 0.006184 0.004028 0.000000
vertex 0.006184 0.004028 0.150000
endloop
endfacet
facet normal 0.143583 0.989638 0.000000
outer loop
vertex 0.004761 0.004465 0.150000
vertex 0.004761 0.004465 0.000000
vertex 0.004384 0.004520 0.000000
endloop
endfacet
facet normal 0.143582 0.989638 0.000000
outer loop
vertex 0.004761 0.004465 0.150000
vertex 0.004384 0.004520 0.000000
vertex 0.004384 0.004520 0.150000
endloop
endfacet
facet normal 0.512874 -0.858464 0.000000
outer loop
vertex 0.005340 0.000198 0.150000
vertex 0.005340 0.000198 0.000000
vertex 0.005486 0.000285 0.000000
endloop
endfacet
facet normal 0.512874 -0.858464 0.000000
outer loop
vertex 0.005340 0.000198 0.150000
vertex 0.005486 0.000285 0.000000
vertex 0.005486 0.000285 0.150000
endloop
endfacet
facet normal 0.000000 0.000000 1.000000
outer loop
vertex 0.006852 0.001474 0.000000
vertex 0.006895 0.001991 0.000000
vertex 0.006912 0.002356 0.000000
endloop
endfacet
facet normal 0.999895 -0.014460 0.000000
outer loop
vertex 0.006912 0.002356 0.000000
vertex 0.006915 0.002541 0.000000
vertex 0.006915 0.002541 0.150000
endloop
endfacet
facet normal 0.999895 -0.014460 0.000000
outer loop
vertex 0.006912 0.002356 0.000000
vertex 0.006915 0.002541 0.150000
vertex 0.006912 0.002356 0.150000
endloop
endfacet
facet normal 0.997730 -0.067344 0.000000
outer loop
vertex 0.006852 0.001474 0.150000
vertex 0.006852 0.001474 0.000000
vertex 0.006912 0.002356 0.000000
endloop
endfacet
facet normal 0.998918 -0.046496 0.000000
outer loop
vertex 0.006912 0.002356 0.000000
vertex 0.006912 0.002356 0.150000
vertex 0.006895 0.001991 0.150000
endloop
endfacet
facet normal 0.996629 -0.082043 -0.000087
outer loop
vertex 0.006912 0.002356 0.000000
vertex 0.006895 0.001991 0.150000
vertex 0.006852 0.001474 0.150000
endloop
endfacet
facet normal -0.458570 -0.888658 0.000000
outer loop
vertex 0.003427 0.000273 0.150000
vertex 0.003427 0.000273 0.000000
vertex 0.003689 0.000138 0.000000
endloop
endfacet
facet normal -0.458570 -0.888658 0.000000
outer loop
vertex 0.003427 0.000273 0.150000
vertex 0.003689 0.000138 0.000000
vertex 0.003689 0.000138 0.150000
endloop
endfacet
facet normal 0.877373 0.479808 0.000000
outer loop
vertex 0.006707 0.003454 0.150000
vertex 0.006707 0.003454 0.000000
vertex 0.006609 0.003633 0.000000
endloop
endfacet
facet normal 0.877380 0.479797 0.000000
outer loop
vertex 0.006707 0.003454 0.150000
vertex 0.006609 0.003633 0.000000
vertex 0.006609 0.003633 0.150000
endloop
endfacet
facet normal 0.049895 -0.998755 0.000000
outer loop
vertex 0.004455 0.000000 0.150000
vertex 0.004455 0.000000 0.000000
vertex 0.004745 0.000015 0.000000
endloop
endfacet
facet normal 0.049895 -0.998755 0.000000
outer loop
vertex 0.004455 0.000000 0.150000
vertex 0.004745 0.000015 0.000000
vertex 0.004745 0.000015 0.150000
endloop
endfacet
facet normal -0.968279 -0.249871 0.000000
outer loop
vertex 0.000233 0.003236 0.150000
vertex 0.000000 0.004137 0.150000
vertex 0.000000 0.004137 0.000000
endloop
endfacet
facet normal -0.968279 -0.249871 0.000000
outer loop
vertex 0.000233 0.003236 0.150000
vertex 0.000000 0.004137 0.000000
vertex 0.000233 0.003236 0.000000
endloop
endfacet
facet normal 0.999171 0.040719 0.000000
outer loop
vertex 0.006915 0.002541 0.000000
vertex 0.006901 0.002875 0.000000
vertex 0.006901 0.002875 0.150000
endloop
endfacet
facet normal 0.999170 0.040724 0.000000
outer loop
vertex 0.006915 0.002541 0.000000
vertex 0.006901 0.002875 0.150000
vertex 0.006915 0.002541 0.150000
endloop
endfacet
facet normal -0.107406 0.994215 0.000000
outer loop
vertex 0.000806 0.004224 0.000000
vertex 0.000000 0.004137 0.000000
vertex 0.000000 0.004137 0.150000
endloop
endfacet
facet normal -0.107406 0.994215 0.000000
outer loop
vertex 0.000806 0.004224 0.000000
vertex 0.000000 0.004137 0.150000
vertex 0.000806 0.004224 0.150000
endloop
endfacet
facet normal -0.098206 0.995166 0.000000
outer loop
vertex 0.004062 0.004529 0.150000
vertex 0.004062 0.004529 0.000000
vertex 0.001079 0.004235 0.000000
endloop
endfacet
facet normal -0.039365 0.999225 0.000000
outer loop
vertex 0.001079 0.004235 0.000000
vertex 0.000806 0.004224 0.000000
vertex 0.000806 0.004224 0.150000
endloop
endfacet
facet normal -0.098206 0.995166 0.000000
outer loop
vertex 0.001079 0.004235 0.150000
vertex 0.004062 0.004529 0.150000
vertex 0.001079 0.004235 0.000000
endloop
endfacet
facet normal -0.039365 0.999225 0.000000
outer loop
vertex 0.001079 0.004235 0.000000
vertex 0.000806 0.004224 0.150000
vertex 0.001079 0.004235 0.150000
endloop
endfacet
facet normal -0.552231 -0.833691 0.000000
outer loop
vertex 0.003144 0.000461 0.150000
vertex 0.003144 0.000461 0.000000
vertex 0.003427 0.000273 0.000000
endloop
endfacet
facet normal -0.552230 -0.833691 0.000000
outer loop
vertex 0.003144 0.000461 0.150000
vertex 0.003427 0.000273 0.000000
vertex 0.003427 0.000273 0.150000
endloop
endfacet
facet normal 0.921796 0.387676 0.000000
outer loop
vertex 0.006852 0.003108 0.000000
vertex 0.006707 0.003454 0.000000
vertex 0.006707 0.003454 0.150000
endloop
endfacet
facet normal 0.921796 0.387676 0.000000
outer loop
vertex 0.006852 0.003108 0.000000
vertex 0.006707 0.003454 0.150000
vertex 0.006852 0.003108 0.150000
endloop
endfacet
facet normal 0.679133 -0.734015 0.000000
outer loop
vertex 0.006839 0.001461 0.000000
vertex 0.006852 0.001474 0.000000
vertex 0.006852 0.001474 0.150000
endloop
endfacet
facet normal 0.679176 -0.733975 0.000000
outer loop
vertex 0.006839 0.001461 0.000000
vertex 0.006852 0.001474 0.150000
vertex 0.006839 0.001461 0.150000
endloop
endfacet
facet normal 0.677806 -0.735241 0.000000
outer loop
vertex 0.006801 0.001426 0.000000
vertex 0.006839 0.001461 0.000000
vertex 0.006839 0.001461 0.150000
endloop
endfacet
facet normal 0.677821 -0.735227 0.000000
outer loop
vertex 0.006801 0.001426 0.000000
vertex 0.006839 0.001461 0.150000
vertex 0.006801 0.001426 0.150000
endloop
endfacet
facet normal 0.676183 -0.736734 0.000000
outer loop
vertex 0.006741 0.001371 0.000000
vertex 0.006801 0.001426 0.000000
vertex 0.006801 0.001426 0.150000
endloop
endfacet
facet normal 0.676201 -0.736717 0.000000
outer loop
vertex 0.006741 0.001371 0.000000
vertex 0.006801 0.001426 0.150000
vertex 0.006741 0.001371 0.150000
endloop
endfacet
facet normal 0.674359 -0.738403 0.000000
outer loop
vertex 0.006661 0.001298 0.000000
vertex 0.006741 0.001371 0.000000
vertex 0.006741 0.001371 0.150000
endloop
endfacet
facet normal 0.674359 -0.738403 0.000000
outer loop
vertex 0.006661 0.001298 0.000000
vertex 0.006741 0.001371 0.150000
vertex 0.006661 0.001298 0.150000
endloop
endfacet
facet normal 0.672283 -0.740294 0.000000
outer loop
vertex 0.006564 0.001210 0.000000
vertex 0.006661 0.001298 0.000000
vertex 0.006661 0.001298 0.150000
endloop
endfacet
facet normal 0.672283 -0.740294 0.000000
outer loop
vertex 0.006564 0.001210 0.000000
vertex 0.006661 0.001298 0.150000
vertex 0.006564 0.001210 0.150000
endloop
endfacet
facet normal 0.669919 -0.742435 0.000000
outer loop
vertex 0.006452 0.001109 0.000000
vertex 0.006564 0.001210 0.000000
vertex 0.006564 0.001210 0.150000
endloop
endfacet
facet normal 0.669921 -0.742432 0.000000
outer loop
vertex 0.006452 0.001109 0.000000
vertex 0.006564 0.001210 0.150000
vertex 0.006452 0.001109 0.150000
endloop
endfacet
facet normal 0.667197 -0.744882 0.000000
outer loop
vertex 0.006329 0.000999 0.000000
vertex 0.006452 0.001109 0.000000
vertex 0.006452 0.001109 0.150000
endloop
endfacet
facet normal 0.667201 -0.744877 0.000000
outer loop
vertex 0.006329 0.000999 0.000000
vertex 0.006452 0.001109 0.150000
vertex 0.006329 0.000999 0.150000
endloop
endfacet
facet normal 0.664042 -0.747696 0.000000
outer loop
vertex 0.006197 0.000882 0.000000
vertex 0.006329 0.000999 0.000000
vertex 0.006329 0.000999 0.150000
endloop
endfacet
facet normal 0.664042 -0.747696 0.000000
outer loop
vertex 0.006197 0.000882 0.000000
vertex 0.006329 0.000999 0.150000
vertex 0.006197 0.000882 0.150000
endloop
endfacet
facet normal 0.660333 -0.750973 0.000000
outer loop
vertex 0.006058 0.000760 0.000000
vertex 0.006197 0.000882 0.000000
vertex 0.006197 0.000882 0.150000
endloop
endfacet
facet normal 0.660333 -0.750973 0.000000
outer loop
vertex 0.006058 0.000760 0.000000
vertex 0.006197 0.000882 0.150000
vertex 0.006058 0.000760 0.150000
endloop
endfacet
facet normal 0.655919 -0.754831 0.000000
outer loop
vertex 0.005916 0.000636 0.000000
vertex 0.006058 0.000760 0.000000
vertex 0.006058 0.000760 0.150000
endloop
endfacet
facet normal 0.655915 -0.754835 0.000000
outer loop
vertex 0.005916 0.000636 0.000000
vertex 0.006058 0.000760 0.150000
vertex 0.005916 0.000636 0.150000
endloop
endfacet
facet normal 0.650571 -0.759445 0.000000
outer loop
vertex 0.005772 0.000512 0.000000
vertex 0.005916 0.000636 0.000000
vertex 0.005916 0.000636 0.150000
endloop
endfacet
facet normal 0.650567 -0.759449 0.000000
outer loop
vertex 0.005772 0.000512 0.000000
vertex 0.005916 0.000636 0.150000
vertex 0.005772 0.000512 0.150000
endloop
endfacet
facet normal 0.599530 -0.800352 0.000000
outer loop
vertex 0.005486 0.000285 0.150000
vertex 0.005486 0.000285 0.000000
vertex 0.005629 0.000392 0.000000
endloop
endfacet
facet normal 0.643962 -0.765058 0.000000
outer loop
vertex 0.005629 0.000392 0.000000
vertex 0.005772 0.000512 0.000000
vertex 0.005772 0.000512 0.150000
endloop
endfacet
facet normal 0.599528 -0.800354 0.000000
outer loop
vertex 0.005629 0.000392 0.150000
vertex 0.005486 0.000285 0.150000
vertex 0.005629 0.000392 0.000000
endloop
endfacet
facet normal 0.643960 -0.765059 0.000000
outer loop
vertex 0.005772 0.000512 0.150000
vertex 0.005629 0.000392 0.150000
vertex 0.005629 0.000392 0.000000
endloop
endfacet
facet normal -0.818857 -0.573997 0.000000
outer loop
vertex 0.000233 0.003236 0.150000
vertex 0.000233 0.003236 0.000000
vertex 0.000485 0.002876 0.000000
endloop
endfacet
facet normal -0.818857 -0.573997 0.000000
outer loop
vertex 0.000233 0.003236 0.150000
vertex 0.000485 0.002876 0.000000
vertex 0.000485 0.002876 0.150000
endloop
endfacet
facet normal 0.959303 0.282380 0.000000
outer loop
vertex 0.006882 0.003009 0.150000
vertex 0.006882 0.003009 0.000000
vertex 0.006852 0.003108 0.000000
endloop
endfacet
facet normal 0.959307 0.282366 0.000000
outer loop
vertex 0.006882 0.003009 0.150000
vertex 0.006852 0.003108 0.000000
vertex 0.006852 0.003108 0.150000
endloop
endfacet
facet normal 0.334903 0.942253 0.000000
outer loop
vertex 0.005553 0.004268 0.000000
vertex 0.005553 0.004268 0.150000
vertex 0.006054 0.004090 0.150000
endloop
endfacet
facet normal 0.334903 0.942253 0.000000
outer loop
vertex 0.005553 0.004268 0.000000
vertex 0.006054 0.004090 0.150000
vertex 0.006054 0.004090 0.000000
endloop
endfacet
facet normal 0.611063 0.791582 0.000000
outer loop
vertex 0.006394 0.003883 0.150000
vertex 0.006394 0.003883 0.000000
vertex 0.006297 0.003958 0.000000
endloop
endfacet
facet normal 0.611066 0.791579 0.000000
outer loop
vertex 0.006394 0.003883 0.150000
vertex 0.006297 0.003958 0.000000
vertex 0.006297 0.003958 0.150000
endloop
endfacet
facet normal 0.241639 0.970366 0.000000
outer loop
vertex 0.004761 0.004465 0.000000
vertex 0.004761 0.004465 0.150000
vertex 0.005553 0.004268 0.150000
endloop
endfacet
facet normal 0.241639 0.970366 0.000000
outer loop
vertex 0.004761 0.004465 0.000000
vertex 0.005553 0.004268 0.150000
vertex 0.005553 0.004268 0.000000
endloop
endfacet
facet normal 0.029702 0.999559 0.000000
outer loop
vertex 0.004384 0.004520 0.150000
vertex 0.004384 0.004520 0.000000
vertex 0.004062 0.004529 0.000000
endloop
endfacet
facet normal 0.029702 0.999559 0.000000
outer loop
vertex 0.004384 0.004520 0.150000
vertex 0.004062 0.004529 0.000000
vertex 0.004062 0.004529 0.150000
endloop
endfacet
facet normal 0.818638 0.574310 0.000000
outer loop
vertex 0.006609 0.003633 0.150000
vertex 0.006609 0.003633 0.000000
vertex 0.006549 0.003719 0.000000
endloop
endfacet
facet normal 0.818638 0.574310 0.000000
outer loop
vertex 0.006609 0.003633 0.150000
vertex 0.006549 0.003719 0.000000
vertex 0.006549 0.003719 0.150000
endloop
endfacet
facet normal -0.071555 -0.997437 0.000000
outer loop
vertex 0.004455 0.000000 0.000000
vertex 0.004455 0.000000 0.150000
vertex 0.004182 0.000020 0.150000
endloop
endfacet
facet normal -0.071556 -0.997437 0.000000
outer loop
vertex 0.004455 0.000000 0.000000
vertex 0.004182 0.000020 0.150000
vertex 0.004182 0.000020 0.000000
endloop
endfacet
facet normal 0.431147 0.902282 0.000000
outer loop
vertex 0.006184 0.004028 0.150000
vertex 0.006184 0.004028 0.000000
vertex 0.006054 0.004090 0.000000
endloop
endfacet
facet normal 0.431145 0.902283 0.000000
outer loop
vertex 0.006184 0.004028 0.150000
vertex 0.006054 0.004090 0.000000
vertex 0.006054 0.004090 0.150000
endloop
endfacet
facet normal -0.350338 -0.936623 0.000000
outer loop
vertex 0.003689 0.000138 0.150000
vertex 0.003689 0.000138 0.000000
vertex 0.003813 0.000092 0.000000
endloop
endfacet
facet normal -0.350342 -0.936622 0.000000
outer loop
vertex 0.003689 0.000138 0.150000
vertex 0.003813 0.000092 0.000000
vertex 0.003813 0.000092 0.150000
endloop
endfacet
facet normal 0.692189 0.721716 0.000000
outer loop
vertex 0.006477 0.003803 0.150000
vertex 0.006477 0.003803 0.000000
vertex 0.006394 0.003883 0.000000
endloop
endfacet
facet normal 0.692186 0.721719 0.000000
outer loop
vertex 0.006477 0.003803 0.150000
vertex 0.006394 0.003883 0.000000
vertex 0.006394 0.003883 0.150000
endloop
endfacet
facet normal 0.762065 0.647501 0.000000
outer loop
vertex 0.006549 0.003719 0.150000
vertex 0.006549 0.003719 0.000000
vertex 0.006477 0.003803 0.000000
endloop
endfacet
facet normal 0.762068 0.647497 0.000000
outer loop
vertex 0.006549 0.003719 0.150000
vertex 0.006477 0.003803 0.000000
vertex 0.006477 0.003803 0.150000
endloop
endfacet
endsolid Exported from Blender-3.6.8
