solid Exported from Blender-3.6.8
facet normal -0.582268 0.812997 0.000000
outer loop
vertex 0.000443 0.004453 0.000000
vertex 0.000378 0.004407 0.000000
vertex 0.000378 0.004407 0.150000
endloop
endfacet
facet normal -0.582268 0.812997 0.000000
outer loop
vertex 0.000443 0.004453 0.000000
vertex 0.000378 0.004407 0.150000
vertex 0.000443 0.004453 0.150000
endloop
endfacet
facet normal -0.662298 0.749241 0.000000
outer loop
vertex 0.000378 0.004407 0.150000
vertex 0.000378 0.004407 0.000000
vertex 0.000347 0.004379 0.000000
endloop
endfacet
facet normal -0.662298 0.749241 0.000000
outer loop
vertex 0.000378 0.004407 0.150000
vertex 0.000347 0.004379 0.000000
vertex 0.000347 0.004379 0.150000
endloop
endfacet
facet normal 0.613104 -0.790002 0.000000
outer loop
vertex 0.002297 0.000137 0.000000
vertex 0.002297 0.000137 0.150000
vertex 0.002181 0.000047 0.150000
endloop
endfacet
facet normal 0.613103 -0.790003 0.000000
outer loop
vertex 0.002297 0.000137 0.000000
vertex 0.002181 0.000047 0.150000
vertex 0.002181 0.000047 0.000000
endloop
endfacet
facet normal 0.881441 -0.472295 0.000000
outer loop
vertex 0.002532 0.000421 0.150000
vertex 0.002532 0.000421 0.000000
vertex 0.002577 0.000505 0.000000
endloop
endfacet
facet normal 0.881441 -0.472295 0.000000
outer loop
vertex 0.002532 0.000421 0.150000
vertex 0.002577 0.000505 0.000000
vertex 0.002577 0.000505 0.150000
endloop
endfacet
facet normal -0.360396 -0.932799 0.000000
outer loop
vertex 0.001909 0.000030 0.150000
vertex 0.001909 0.000030 0.000000
vertex 0.001947 0.000015 0.000000
endloop
endfacet
facet normal -0.360400 -0.932798 0.000000
outer loop
vertex 0.001909 0.000030 0.150000
vertex 0.001947 0.000015 0.000000
vertex 0.001947 0.000015 0.150000
endloop
endfacet
facet normal -0.560825 0.827934 0.000000
outer loop
vertex 0.001402 0.005084 0.150000
vertex 0.001402 0.005084 0.000000
vertex 0.000561 0.004514 0.000000
endloop
endfacet
facet normal -0.560825 0.827934 0.000000
outer loop
vertex 0.001402 0.005084 0.150000
vertex 0.000561 0.004514 0.000000
vertex 0.000561 0.004514 0.150000
endloop
endfacet
facet normal -0.865681 0.500595 0.000000
outer loop
vertex 0.000291 0.004313 0.150000
vertex 0.000291 0.004313 0.000000
vertex 0.000269 0.004275 0.000000
endloop
endfacet
facet normal -0.865681 0.500596 0.000000
outer loop
vertex 0.000291 0.004313 0.150000
vertex 0.000269 0.004275 0.000000
vertex 0.000269 0.004275 0.150000
endloop
endfacet
facet normal 0.000000 0.000000 1.000000
outer loop
vertex 0.002506 0.003066 0.150000
vertex 0.002586 0.004473 0.150000
vertex 0.002587 0.005427 0.150000
endloop
endfacet
facet normal 0.006647 0.000000 0.999978
outer loop
vertex 0.002587 0.005427 0.150000
vertex 0.002581 0.005629 0.150000
vertex 0.002574 0.005748 0.150000
endloop
endfacet
facet normal 0.000000 0.000000 1.000000
outer loop
vertex 0.002574 0.005748 0.150000
vertex 0.002568 0.005844 0.150000
vertex 0.002563 0.005908 0.150000
endloop
endfacet
facet normal 0.000000 0.000000 1.000000
outer loop
vertex 0.002563 0.005908 0.150000
vertex 0.002561 0.005932 0.150000
vertex 0.002374 0.006086 0.150000
endloop
endfacet
facet normal -0.000080 0.000000 1.000000
outer loop
vertex 0.002563 0.005908 0.150000
vertex 0.002374 0.006086 0.150000
vertex 0.001402 0.005084 0.150000
endloop
endfacet
facet normal 0.002238 0.000000 0.999997
outer loop
vertex 0.002587 0.005427 0.150000
vertex 0.002574 0.005748 0.150000
vertex 0.002563 0.005908 0.150000
endloop
endfacet
facet normal -0.027661 0.000000 0.999617
outer loop
vertex 0.002558 0.002310 0.150000
vertex 0.002528 0.002757 0.150000
vertex 0.002506 0.003066 0.150000
endloop
endfacet
facet normal 0.000000 0.000000 1.000000
outer loop
vertex 0.002506 0.003066 0.150000
vertex 0.002587 0.005427 0.150000
vertex 0.002563 0.005908 0.150000
endloop
endfacet
facet normal -0.000009 0.000000 1.000000
outer loop
vertex 0.002506 0.003066 0.150000
vertex 0.002563 0.005908 0.150000
vertex 0.001402 0.005084 0.150000
endloop
endfacet
facet normal 0.010162 0.000000 0.999948
outer loop
vertex 0.002592 0.001785 0.150000
vertex 0.002558 0.002310 0.150000
vertex 0.002506 0.003066 0.150000
endloop
endfacet
facet normal 0.000000 0.000000 1.000000
outer loop
vertex 0.002622 0.001279 0.150000
vertex 0.002608 0.001523 0.150000
vertex 0.002592 0.001785 0.150000
endloop
endfacet
facet normal 0.000000 0.000000 1.000000
outer loop
vertex 0.002641 0.000890 0.150000
vertex 0.002633 0.001063 0.150000
vertex 0.002622 0.001279 0.150000
endloop
endfacet
facet normal 0.002995 0.000000 0.999996
outer loop
vertex 0.002635 0.000681 0.150000
vertex 0.002643 0.000770 0.150000
vertex 0.002641 0.000890 0.150000
endloop
endfacet
facet normal 0.000000 0.000000 1.000000
outer loop
vertex 0.002577 0.000505 0.150000
vertex 0.002612 0.000593 0.150000
vertex 0.002635 0.000681 0.150000
endloop
endfacet
facet normal 0.000767 0.000000 1.000000
outer loop
vertex 0.002420 0.000265 0.150000
vertex 0.002532 0.000421 0.150000
vertex 0.002577 0.000505 0.150000
endloop
endfacet
facet normal -0.000960 0.000000 1.000000
outer loop
vertex 0.002181 0.000047 0.150000
vertex 0.002297 0.000137 0.150000
vertex 0.002420 0.000265 0.150000
endloop
endfacet
facet normal 0.000000 0.000000 1.000000
outer loop
vertex 0.002090 0.000005 0.150000
vertex 0.002131 0.000019 0.150000
vertex 0.002181 0.000047 0.150000
endloop
endfacet
facet normal 0.000000 0.000000 1.000000
outer loop
vertex 0.002019 0.000001 0.150000
vertex 0.002055 0.000001 0.150000
vertex 0.002090 0.000005 0.150000
endloop
endfacet
facet normal 0.002010 0.000000 0.999998
outer loop
vertex 0.001947 0.000015 0.150000
vertex 0.001983 0.000006 0.150000
vertex 0.002019 0.000001 0.150000
endloop
endfacet
facet normal 0.002740 0.000000 0.999996
outer loop
vertex 0.001869 0.000050 0.150000
vertex 0.001909 0.000030 0.150000
vertex 0.001947 0.000015 0.150000
endloop
endfacet
facet normal -0.004085 0.000000 0.999992
outer loop
vertex 0.001735 0.000140 0.150000
vertex 0.001783 0.000104 0.150000
vertex 0.001869 0.000050 0.150000
endloop
endfacet
facet normal 0.000000 0.000000 1.000000
outer loop
vertex 0.001570 0.000279 0.150000
vertex 0.001685 0.000181 0.150000
vertex 0.001735 0.000140 0.150000
endloop
endfacet
facet normal -0.001985 0.000000 0.999998
outer loop
vertex 0.001377 0.000497 0.150000
vertex 0.001443 0.000413 0.150000
vertex 0.001570 0.000279 0.150000
endloop
endfacet
facet normal 0.000000 0.000000 1.000000
outer loop
vertex 0.001164 0.000816 0.150000
vertex 0.001308 0.000593 0.150000
vertex 0.001377 0.000497 0.150000
endloop
endfacet
facet normal 0.009119 0.000000 0.999958
outer loop
vertex 0.001011 0.001078 0.150000
vertex 0.001089 0.000942 0.150000
vertex 0.001164 0.000816 0.150000
endloop
endfacet
facet normal -0.003516 0.000000 0.999994
outer loop
vertex 0.000674 0.001704 0.150000
vertex 0.000847 0.001375 0.150000
vertex 0.001011 0.001078 0.150000
endloop
endfacet
facet normal 0.000000 0.000000 1.000000
outer loop
vertex 0.000499 0.002068 0.150000
vertex 0.000585 0.001882 0.150000
vertex 0.000674 0.001704 0.150000
endloop
endfacet
facet normal -0.004437 0.000000 0.999990
outer loop
vertex 0.000340 0.002447 0.150000
vertex 0.000417 0.002258 0.150000
vertex 0.000499 0.002068 0.150000
endloop
endfacet
facet normal 0.007354 0.000000 0.999973
outer loop
vertex 0.000203 0.002805 0.150000
vertex 0.000268 0.002631 0.150000
vertex 0.000340 0.002447 0.150000
endloop
endfacet
facet normal -0.014508 0.000000 0.999895
outer loop
vertex 0.000095 0.003106 0.150000
vertex 0.000145 0.002965 0.150000
vertex 0.000203 0.002805 0.150000
endloop
endfacet
facet normal 0.000000 0.000000 1.000000
outer loop
vertex 0.000025 0.003313 0.150000
vertex 0.000055 0.003223 0.150000
vertex 0.000095 0.003106 0.150000
endloop
endfacet
facet normal 0.000000 0.000000 1.000000
outer loop
vertex 0.000000 0.003390 0.150000
vertex 0.000006 0.003370 0.150000
vertex 0.000025 0.003313 0.150000
endloop
endfacet
facet normal 0.000258 0.000000 1.000000
outer loop
vertex 0.000248 0.004227 0.150000
vertex 0.000016 0.003501 0.150000
vertex 0.000000 0.003390 0.150000
endloop
endfacet
facet normal 0.003528 0.000000 0.999994
outer loop
vertex 0.000291 0.004313 0.150000
vertex 0.000269 0.004275 0.150000
vertex 0.000248 0.004227 0.150000
endloop
endfacet
facet normal -0.004583 0.000000 0.999990
outer loop
vertex 0.000347 0.004379 0.150000
vertex 0.000317 0.004347 0.150000
vertex 0.000291 0.004313 0.150000
endloop
endfacet
facet normal -0.002625 0.000000 0.999997
outer loop
vertex 0.000443 0.004453 0.150000
vertex 0.000378 0.004407 0.150000
vertex 0.000347 0.004379 0.150000
endloop
endfacet
facet normal -0.008456 0.000000 0.999964
outer loop
vertex 0.000526 0.004499 0.150000
vertex 0.000502 0.004487 0.150000
vertex 0.000443 0.004453 0.150000
endloop
endfacet
facet normal -0.062257 0.000000 0.998060
outer loop
vertex 0.000556 0.004512 0.150000
vertex 0.000544 0.004507 0.150000
vertex 0.000526 0.004499 0.150000
endloop
endfacet
facet normal 0.000013 0.000000 1.000000
outer loop
vertex 0.002506 0.003066 0.150000
vertex 0.001402 0.005084 0.150000
vertex 0.000561 0.004514 0.150000
endloop
endfacet
facet normal 0.075970 0.000000 0.997110
outer loop
vertex 0.000561 0.004514 0.150000
vertex 0.000556 0.004512 0.150000
vertex 0.000526 0.004499 0.150000
endloop
endfacet
facet normal 0.000000 0.000000 1.000000
outer loop
vertex 0.000526 0.004499 0.150000
vertex 0.000443 0.004453 0.150000
vertex 0.000347 0.004379 0.150000
endloop
endfacet
facet normal 0.000914 0.000000 1.000000
outer loop
vertex 0.000347 0.004379 0.150000
vertex 0.000291 0.004313 0.150000
vertex 0.000248 0.004227 0.150000
endloop
endfacet
facet normal -0.000272 0.000000 1.000000
outer loop
vertex 0.000248 0.004227 0.150000
vertex 0.000000 0.003390 0.150000
vertex 0.000025 0.003313 0.150000
endloop
endfacet
facet normal 0.006100 0.000000 0.999981
outer loop
vertex 0.000025 0.003313 0.150000
vertex 0.000095 0.003106 0.150000
vertex 0.000203 0.002805 0.150000
endloop
endfacet
facet normal 0.000000 0.000000 1.000000
outer loop
vertex 0.000203 0.002805 0.150000
vertex 0.000340 0.002447 0.150000
vertex 0.000499 0.002068 0.150000
endloop
endfacet
facet normal 0.001094 0.000000 0.999999
outer loop
vertex 0.000499 0.002068 0.150000
vertex 0.000674 0.001704 0.150000
vertex 0.001011 0.001078 0.150000
endloop
endfacet
facet normal 0.000000 0.000000 1.000000
outer loop
vertex 0.001011 0.001078 0.150000
vertex 0.001164 0.000816 0.150000
vertex 0.001377 0.000497 0.150000
endloop
endfacet
facet normal -0.000398 0.000000 1.000000
outer loop
vertex 0.001377 0.000497 0.150000
vertex 0.001570 0.000279 0.150000
vertex 0.001735 0.000140 0.150000
endloop
endfacet
facet normal 0.000755 0.000000 1.000000
outer loop
vertex 0.001735 0.000140 0.150000
vertex 0.001869 0.000050 0.150000
vertex 0.001947 0.000015 0.150000
endloop
endfacet
facet normal -0.000084 0.000000 1.000000
outer loop
vertex 0.001947 0.000015 0.150000
vertex 0.002019 0.000001 0.150000
vertex 0.002090 0.000005 0.150000
endloop
endfacet
facet normal 0.000740 0.000000 1.000000
outer loop
vertex 0.002090 0.000005 0.150000
vertex 0.002181 0.000047 0.150000
vertex 0.002420 0.000265 0.150000
endloop
endfacet
facet normal -0.000267 0.000000 1.000000
outer loop
vertex 0.002420 0.000265 0.150000
vertex 0.002577 0.000505 0.150000
vertex 0.002635 0.000681 0.150000
endloop
endfacet
facet normal 0.000000 0.000000 1.000000
outer loop
vertex 0.002635 0.000681 0.150000
vertex 0.002641 0.000890 0.150000
vertex 0.002622 0.001279 0.150000
endloop
endfacet
facet normal 0.000000 0.000000 1.000000
outer loop
vertex 0.002622 0.001279 0.150000
vertex 0.002592 0.001785 0.150000
vertex 0.002506 0.003066 0.150000
endloop
endfacet
facet normal 0.000000 0.000000 1.000000
outer loop
vertex 0.002506 0.003066 0.150000
vertex 0.000561 0.004514 0.150000
vertex 0.000526 0.004499 0.150000
endloop
endfacet
facet normal -0.000238 0.000000 1.000000
outer loop
vertex 0.000526 0.004499 0.150000
vertex 0.000347 0.004379 0.150000
vertex 0.000248 0.004227 0.150000
endloop
endfacet
facet normal 0.000000 0.000000 1.000000
outer loop
vertex 0.000248 0.004227 0.150000
vertex 0.000025 0.003313 0.150000
vertex 0.000203 0.002805 0.150000
endloop
endfacet
facet normal 0.000352 0.000000 1.000000
outer loop
vertex 0.000203 0.002805 0.150000
vertex 0.000499 0.002068 0.150000
vertex 0.001011 0.001078 0.150000
endloop
endfacet
facet normal -0.000188 0.000000 1.000000
outer loop
vertex 0.001011 0.001078 0.150000
vertex 0.001377 0.000497 0.150000
vertex 0.001735 0.000140 0.150000
endloop
endfacet
facet normal -0.000087 0.000000 1.000000
outer loop
vertex 0.001735 0.000140 0.150000
vertex 0.001947 0.000015 0.150000
vertex 0.002090 0.000005 0.150000
endloop
endfacet
facet normal 0.000000 0.000000 1.000000
outer loop
vertex 0.002090 0.000005 0.150000
vertex 0.002420 0.000265 0.150000
vertex 0.002635 0.000681 0.150000
endloop
endfacet
facet normal 0.000000 0.000000 1.000000
outer loop
vertex 0.002635 0.000681 0.150000
vertex 0.002622 0.001279 0.150000
vertex 0.002506 0.003066 0.150000
endloop
endfacet
facet normal 0.000000 0.000000 1.000000
outer loop
vertex 0.002506 0.003066 0.150000
vertex 0.000526 0.004499 0.150000
vertex 0.000248 0.004227 0.150000
endloop
endfacet
facet normal 0.000000 0.000000 1.000000
outer loop
vertex 0.000248 0.004227 0.150000
vertex 0.000203 0.002805 0.150000
vertex 0.001011 0.001078 0.150000
endloop
endfacet
facet normal 0.000124 0.000000 1.000000
outer loop
vertex 0.001011 0.001078 0.150000
vertex 0.001735 0.000140 0.150000
vertex 0.002090 0.000005 0.150000
endloop
endfacet
facet normal 0.000042 0.000000 1.000000
outer loop
vertex 0.002090 0.000005 0.150000
vertex 0.002635 0.000681 0.150000
vertex 0.002506 0.003066 0.150000
endloop
endfacet
facet normal 0.000000 0.000000 1.000000
outer loop
vertex 0.002506 0.003066 0.150000
vertex 0.000248 0.004227 0.150000
vertex 0.001011 0.001078 0.150000
endloop
endfacet
facet normal -0.000016 0.000000 1.000000
outer loop
vertex 0.002506 0.003066 0.150000
vertex 0.001011 0.001078 0.150000
vertex 0.002090 0.000005 0.150000
endloop
endfacet
facet normal -0.256053 -0.966663 0.000000
outer loop
vertex 0.001947 0.000015 0.150000
vertex 0.001947 0.000015 0.000000
vertex 0.001983 0.000006 0.000000
endloop
endfacet
facet normal -0.256053 -0.966663 0.000000
outer loop
vertex 0.001947 0.000015 0.150000
vertex 0.001983 0.000006 0.000000
vertex 0.001983 0.000006 0.150000
endloop
endfacet
facet normal -0.717893 0.696154 0.000000
outer loop
vertex 0.002374 0.006086 0.000000
vertex 0.001402 0.005084 0.000000
vertex 0.001402 0.005084 0.150000
endloop
endfacet
facet normal -0.717893 0.696154 0.000000
outer loop
vertex 0.002374 0.006086 0.000000
vertex 0.001402 0.005084 0.150000
vertex 0.002374 0.006086 0.150000
endloop
endfacet
facet normal -0.917818 -0.397002 0.000000
outer loop
vertex 0.000417 0.002258 0.000000
vertex 0.000499 0.002068 0.000000
vertex 0.000499 0.002068 0.150000
endloop
endfacet
facet normal -0.917818 -0.397002 0.000000
outer loop
vertex 0.000417 0.002258 0.000000
vertex 0.000499 0.002068 0.150000
vertex 0.000417 0.002258 0.150000
endloop
endfacet
facet normal -0.925347 -0.379122 0.000000
outer loop
vertex 0.000340 0.002447 0.000000
vertex 0.000417 0.002258 0.000000
vertex 0.000417 0.002258 0.150000
endloop
endfacet
facet normal -0.925347 -0.379122 0.000000
outer loop
vertex 0.000340 0.002447 0.000000
vertex 0.000417 0.002258 0.150000
vertex 0.000340 0.002447 0.150000
endloop
endfacet
facet normal -0.931308 -0.364232 0.000000
outer loop
vertex 0.000268 0.002631 0.000000
vertex 0.000340 0.002447 0.000000
vertex 0.000340 0.002447 0.150000
endloop
endfacet
facet normal -0.931308 -0.364232 0.000000
outer loop
vertex 0.000268 0.002631 0.000000
vertex 0.000340 0.002447 0.150000
vertex 0.000268 0.002631 0.150000
endloop
endfacet
facet normal -0.936131 -0.351651 0.000000
outer loop
vertex 0.000203 0.002805 0.000000
vertex 0.000268 0.002631 0.000000
vertex 0.000268 0.002631 0.150000
endloop
endfacet
facet normal -0.936131 -0.351651 0.000000
outer loop
vertex 0.000203 0.002805 0.000000
vertex 0.000268 0.002631 0.150000
vertex 0.000203 0.002805 0.150000
endloop
endfacet
facet normal -0.940103 -0.340890 0.000000
outer loop
vertex 0.000145 0.002965 0.000000
vertex 0.000203 0.002805 0.000000
vertex 0.000203 0.002805 0.150000
endloop
endfacet
facet normal -0.940103 -0.340889 0.000000
outer loop
vertex 0.000145 0.002965 0.000000
vertex 0.000203 0.002805 0.150000
vertex 0.000145 0.002965 0.150000
endloop
endfacet
facet normal -0.943425 -0.331586 0.000000
outer loop
vertex 0.000095 0.003106 0.000000
vertex 0.000145 0.002965 0.000000
vertex 0.000145 0.002965 0.150000
endloop
endfacet
facet normal -0.943425 -0.331586 0.000000
outer loop
vertex 0.000095 0.003106 0.000000
vertex 0.000145 0.002965 0.150000
vertex 0.000095 0.003106 0.150000
endloop
endfacet
facet normal -0.946238 -0.323472 0.000000
outer loop
vertex 0.000055 0.003223 0.000000
vertex 0.000095 0.003106 0.000000
vertex 0.000095 0.003106 0.150000
endloop
endfacet
facet normal -0.946238 -0.323472 0.000000
outer loop
vertex 0.000055 0.003223 0.000000
vertex 0.000095 0.003106 0.150000
vertex 0.000055 0.003223 0.150000
endloop
endfacet
facet normal -0.948642 -0.316352 0.000000
outer loop
vertex 0.000025 0.003313 0.000000
vertex 0.000055 0.003223 0.000000
vertex 0.000055 0.003223 0.150000
endloop
endfacet
facet normal -0.948642 -0.316352 0.000000
outer loop
vertex 0.000025 0.003313 0.000000
vertex 0.000055 0.003223 0.150000
vertex 0.000025 0.003313 0.150000
endloop
endfacet
facet normal -0.952353 -0.304996 0.000000
outer loop
vertex 0.000000 0.003390 0.150000
vertex 0.000000 0.003390 0.000000
vertex 0.000006 0.003370 0.000000
endloop
endfacet
facet normal -0.950703 -0.310102 0.000000
outer loop
vertex 0.000006 0.003370 0.000000
vertex 0.000025 0.003313 0.000000
vertex 0.000025 0.003313 0.150000
endloop
endfacet
facet normal -0.952353 -0.304996 0.000000
outer loop
vertex 0.000006 0.003370 0.150000
vertex 0.000000 0.003390 0.150000
vertex 0.000006 0.003370 0.000000
endloop
endfacet
facet normal -0.950703 -0.310102 0.000000
outer loop
vertex 0.000025 0.003313 0.150000
vertex 0.000006 0.003370 0.150000
vertex 0.000006 0.003370 0.000000
endloop
endfacet
facet normal -0.989577 0.144002 0.000000
outer loop
vertex 0.000016 0.003501 0.150000
vertex 0.000016 0.003501 0.000000
vertex 0.000000 0.003390 0.000000
endloop
endfacet
facet normal -0.989577 0.144002 0.000000
outer loop
vertex 0.000016 0.003501 0.150000
vertex 0.000000 0.003390 0.000000
vertex 0.000000 0.003390 0.150000
endloop
endfacet
facet normal 0.638843 0.769337 0.000000
outer loop
vertex 0.002561 0.005932 0.150000
vertex 0.002561 0.005932 0.000000
vertex 0.002374 0.006086 0.000000
endloop
endfacet
facet normal 0.638843 0.769337 0.000000
outer loop
vertex 0.002561 0.005932 0.150000
vertex 0.002374 0.006086 0.000000
vertex 0.002374 0.006086 0.150000
endloop
endfacet
facet normal 0.126903 -0.991915 0.000000
outer loop
vertex 0.002055 0.000001 0.150000
vertex 0.002055 0.000001 0.000000
vertex 0.002090 0.000005 0.000000
endloop
endfacet
facet normal 0.126903 -0.991915 0.000000
outer loop
vertex 0.002055 0.000001 0.150000
vertex 0.002090 0.000005 0.000000
vertex 0.002090 0.000005 0.150000
endloop
endfacet
facet normal -0.496049 0.868295 0.000000
outer loop
vertex 0.000443 0.004453 0.000000
vertex 0.000443 0.004453 0.150000
vertex 0.000502 0.004487 0.150000
endloop
endfacet
facet normal -0.496049 0.868294 0.000000
outer loop
vertex 0.000443 0.004453 0.000000
vertex 0.000502 0.004487 0.150000
vertex 0.000502 0.004487 0.000000
endloop
endfacet
facet normal 0.000000 0.000000 -1.000000
outer loop
vertex 0.002506 0.003066 0.000000
vertex 0.002528 0.002757 0.000000
vertex 0.002558 0.002310 0.000000
endloop
endfacet
facet normal 0.000000 0.000000 -1.000000
outer loop
vertex 0.002558 0.002310 0.000000
vertex 0.002592 0.001785 0.000000
vertex 0.002608 0.001523 0.000000
endloop
endfacet
facet normal 0.000000 0.000000 -1.000000
outer loop
vertex 0.002608 0.001523 0.000000
vertex 0.002622 0.001279 0.000000
vertex 0.002633 0.001063 0.000000
endloop
endfacet
facet normal 0.000000 0.000000 -1.000000
outer loop
vertex 0.002633 0.001063 0.000000
vertex 0.002641 0.000890 0.000000
vertex 0.002643 0.000770 0.000000
endloop
endfacet
facet normal 0.000000 0.000000 -1.000000
outer loop
vertex 0.002643 0.000770 0.000000
vertex 0.002635 0.000681 0.000000
vertex 0.002612 0.000593 0.000000
endloop
endfacet
facet normal 0.000000 0.000000 -1.000000
outer loop
vertex 0.002612 0.000593 0.000000
vertex 0.002577 0.000505 0.000000
vertex 0.002532 0.000421 0.000000
endloop
endfacet
facet normal 0.000000 0.000000 -1.000000
outer loop
vertex 0.002532 0.000421 0.000000
vertex 0.002420 0.000265 0.000000
vertex 0.002297 0.000137 0.000000
endloop
endfacet
facet normal 0.000000 0.000000 -1.000000
outer loop
vertex 0.002297 0.000137 0.000000
vertex 0.002181 0.000047 0.000000
vertex 0.002131 0.000019 0.000000
endloop
endfacet
facet normal 0.000000 0.000000 -1.000000
outer loop
vertex 0.002131 0.000019 0.000000
vertex 0.002090 0.000005 0.000000
vertex 0.002055 0.000001 0.000000
endloop
endfacet
facet normal 0.000000 0.000000 -1.000000
outer loop
vertex 0.002055 0.000001 0.000000
vertex 0.002019 0.000001 0.000000
vertex 0.001983 0.000006 0.000000
endloop
endfacet
facet normal 0.000000 0.000000 -1.000000
outer loop
vertex 0.001983 0.000006 0.000000
vertex 0.001947 0.000015 0.000000
vertex 0.001909 0.000030 0.000000
endloop
endfacet
facet normal 0.000000 0.000000 -1.000000
outer loop
vertex 0.001909 0.000030 0.000000
vertex 0.001869 0.000050 0.000000
vertex 0.001783 0.000104 0.000000
endloop
endfacet
facet normal 0.000000 0.000000 -1.000000
outer loop
vertex 0.001783 0.000104 0.000000
vertex 0.001735 0.000140 0.000000
vertex 0.001685 0.000181 0.000000
endloop
endfacet
facet normal 0.000000 0.000000 -1.000000
outer loop
vertex 0.001685 0.000181 0.000000
vertex 0.001570 0.000279 0.000000
vertex 0.001443 0.000413 0.000000
endloop
endfacet
facet normal 0.000000 0.000000 -1.000000
outer loop
vertex 0.001443 0.000413 0.000000
vertex 0.001377 0.000497 0.000000
vertex 0.001308 0.000593 0.000000
endloop
endfacet
facet normal 0.000000 0.000000 -1.000000
outer loop
vertex 0.001308 0.000593 0.000000
vertex 0.001164 0.000816 0.000000
vertex 0.001089 0.000942 0.000000
endloop
endfacet
facet normal 0.000000 0.000000 -1.000000
outer loop
vertex 0.001089 0.000942 0.000000
vertex 0.001011 0.001078 0.000000
vertex 0.000847 0.001375 0.000000
endloop
endfacet
facet normal 0.000000 0.000000 -1.000000
outer loop
vertex 0.000847 0.001375 0.000000
vertex 0.000674 0.001704 0.000000
vertex 0.000585 0.001882 0.000000
endloop
endfacet
facet normal 0.000000 0.000000 -1.000000
outer loop
vertex 0.000585 0.001882 0.000000
vertex 0.000499 0.002068 0.000000
vertex 0.000417 0.002258 0.000000
endloop
endfacet
facet normal 0.000000 0.000000 -1.000000
outer loop
vertex 0.000417 0.002258 0.000000
vertex 0.000340 0.002447 0.000000
vertex 0.000268 0.002631 0.000000
endloop
endfacet
facet normal 0.000000 0.000000 -1.000000
outer loop
vertex 0.000268 0.002631 0.000000
vertex 0.000203 0.002805 0.000000
vertex 0.000145 0.002965 0.000000
endloop
endfacet
facet normal 0.000000 0.000000 -1.000000
outer loop
vertex 0.000145 0.002965 0.000000
vertex 0.000095 0.003106 0.000000
vertex 0.000055 0.003223 0.000000
endloop
endfacet
facet normal 0.000000 0.000000 -1.000000
outer loop
vertex 0.000055 0.003223 0.000000
vertex 0.000025 0.003313 0.000000
vertex 0.000006 0.003370 0.000000
endloop
endfacet
facet normal 0.000000 0.000000 -1.000000
outer loop
vertex 0.000006 0.003370 0.000000
vertex 0.000000 0.003390 0.000000
vertex 0.000016 0.003501 0.000000
endloop
endfacet
facet normal 0.000000 0.000000 -1.000000
outer loop
vertex 0.000016 0.003501 0.000000
vertex 0.000248 0.004227 0.000000
vertex 0.000269 0.004275 0.000000
endloop
endfacet
facet normal 0.000000 0.000000 -1.000000
outer loop
vertex 0.000269 0.004275 0.000000
vertex 0.000291 0.004313 0.000000
vertex 0.000317 0.004347 0.000000
endloop
endfacet
facet normal 0.000000 0.000000 -1.000000
outer loop
vertex 0.000317 0.004347 0.000000
vertex 0.000347 0.004379 0.000000
vertex 0.000378 0.004407 0.000000
endloop
endfacet
facet normal 0.000000 0.000000 -1.000000
outer loop
vertex 0.000378 0.004407 0.000000
vertex 0.000443 0.004453 0.000000
vertex 0.000502 0.004487 0.000000
endloop
endfacet
facet normal 0.000000 0.000000 -1.000000
outer loop
vertex 0.000502 0.004487 0.000000
vertex 0.000526 0.004499 0.000000
vertex 0.000544 0.004507 0.000000
endloop
endfacet
facet normal 0.000000 0.000000 -1.000000
outer loop
vertex 0.000544 0.004507 0.000000
vertex 0.000556 0.004512 0.000000
vertex 0.000561 0.004514 0.000000
endloop
endfacet
facet normal 0.000000 0.000000 -1.000000
outer loop
vertex 0.001402 0.005084 0.000000
vertex 0.002374 0.006086 0.000000
vertex 0.002561 0.005932 0.000000
endloop
endfacet
facet normal 0.000000 0.000000 -1.000000
outer loop
vertex 0.000502 0.004487 0.000000
vertex 0.000544 0.004507 0.000000
vertex 0.000561 0.004514 0.000000
endloop
endfacet
facet normal 0.000000 0.000000 -1.000000
outer loop
vertex 0.001402 0.005084 0.000000
vertex 0.002561 0.005932 0.000000
vertex 0.002563 0.005908 0.000000
endloop
endfacet
facet normal 0.000000 0.000000 -1.000000
outer loop
vertex 0.000378 0.004407 0.000000
vertex 0.000502 0.004487 0.000000
vertex 0.000561 0.004514 0.000000
endloop
endfacet
facet normal 0.000000 0.000000 -1.000000
outer loop
vertex 0.001402 0.005084 0.000000
vertex 0.002563 0.005908 0.000000
vertex 0.002568 0.005844 0.000000
endloop
endfacet
facet normal 0.000000 0.000000 -1.000000
outer loop
vertex 0.000317 0.004347 0.000000
vertex 0.000378 0.004407 0.000000
vertex 0.000561 0.004514 0.000000
endloop
endfacet
facet normal 0.000000 0.000000 -1.000000
outer loop
vertex 0.000561 0.004514 0.000000
vertex 0.001402 0.005084 0.000000
vertex 0.002568 0.005844 0.000000
endloop
endfacet
facet normal 0.000000 0.000000 -1.000000
outer loop
vertex 0.002568 0.005844 0.000000
vertex 0.002574 0.005748 0.000000
vertex 0.002581 0.005629 0.000000
endloop
endfacet
facet normal 0.000000 0.000000 -1.000000
outer loop
vertex 0.002581 0.005629 0.000000
vertex 0.002587 0.005427 0.000000
vertex 0.002586 0.004473 0.000000
endloop
endfacet
facet normal 0.000000 0.000000 -1.000000
outer loop
vertex 0.002506 0.003066 0.000000
vertex 0.002558 0.002310 0.000000
vertex 0.002608 0.001523 0.000000
endloop
endfacet
facet normal 0.000000 0.000000 -1.000000
outer loop
vertex 0.002581 0.005629 0.000000
vertex 0.002586 0.004473 0.000000
vertex 0.002506 0.003066 0.000000
endloop
endfacet
facet normal 0.000000 0.000000 -1.000000
outer loop
vertex 0.000561 0.004514 0.000000
vertex 0.002568 0.005844 0.000000
vertex 0.002581 0.005629 0.000000
endloop
endfacet
facet normal 0.000000 0.000000 -1.000000
outer loop
vertex 0.000269 0.004275 0.000000
vertex 0.000317 0.004347 0.000000
vertex 0.000561 0.004514 0.000000
endloop
endfacet
facet normal 0.000000 0.000000 -1.000000
outer loop
vertex 0.000006 0.003370 0.000000
vertex 0.000016 0.003501 0.000000
vertex 0.000269 0.004275 0.000000
endloop
endfacet
facet normal 0.000000 0.000000 -1.000000
outer loop
vertex 0.000145 0.002965 0.000000
vertex 0.000055 0.003223 0.000000
vertex 0.000006 0.003370 0.000000
endloop
endfacet
facet normal 0.000000 0.000000 -1.000000
outer loop
vertex 0.000417 0.002258 0.000000
vertex 0.000268 0.002631 0.000000
vertex 0.000145 0.002965 0.000000
endloop
endfacet
facet normal 0.000000 0.000000 -1.000000
outer loop
vertex 0.000847 0.001375 0.000000
vertex 0.000585 0.001882 0.000000
vertex 0.000417 0.002258 0.000000
endloop
endfacet
facet normal 0.000000 0.000000 -1.000000
outer loop
vertex 0.001308 0.000593 0.000000
vertex 0.001089 0.000942 0.000000
vertex 0.000847 0.001375 0.000000
endloop
endfacet
facet normal 0.000000 0.000000 -1.000000
outer loop
vertex 0.001685 0.000181 0.000000
vertex 0.001443 0.000413 0.000000
vertex 0.001308 0.000593 0.000000
endloop
endfacet
facet normal 0.000000 0.000000 -1.000000
outer loop
vertex 0.001909 0.000030 0.000000
vertex 0.001783 0.000104 0.000000
vertex 0.001685 0.000181 0.000000
endloop
endfacet
facet normal 0.000000 0.000000 -1.000000
outer loop
vertex 0.002055 0.000001 0.000000
vertex 0.001983 0.000006 0.000000
vertex 0.001909 0.000030 0.000000
endloop
endfacet
facet normal 0.000000 0.000000 -1.000000
outer loop
vertex 0.002297 0.000137 0.000000
vertex 0.002131 0.000019 0.000000
vertex 0.002055 0.000001 0.000000
endloop
endfacet
facet normal 0.000000 0.000000 -1.000000
outer loop
vertex 0.002612 0.000593 0.000000
vertex 0.002532 0.000421 0.000000
vertex 0.002297 0.000137 0.000000
endloop
endfacet
facet normal 0.000000 0.000000 -1.000000
outer loop
vertex 0.002633 0.001063 0.000000
vertex 0.002643 0.000770 0.000000
vertex 0.002612 0.000593 0.000000
endloop
endfacet
facet normal 0.000000 0.000000 -1.000000
outer loop
vertex 0.002506 0.003066 0.000000
vertex 0.002608 0.001523 0.000000
vertex 0.002633 0.001063 0.000000
endloop
endfacet
facet normal 0.000000 0.000000 -1.000000
outer loop
vertex 0.000561 0.004514 0.000000
vertex 0.002581 0.005629 0.000000
vertex 0.002506 0.003066 0.000000
endloop
endfacet
facet normal 0.000000 0.000000 -1.000000
outer loop
vertex 0.000006 0.003370 0.000000
vertex 0.000269 0.004275 0.000000
vertex 0.000561 0.004514 0.000000
endloop
endfacet
facet normal 0.000000 0.000000 -1.000000
outer loop
vertex 0.000417 0.002258 0.000000
vertex 0.000145 0.002965 0.000000
vertex 0.000006 0.003370 0.000000
endloop
endfacet
facet normal 0.000000 0.000000 -1.000000
outer loop
vertex 0.001308 0.000593 0.000000
vertex 0.000847 0.001375 0.000000
vertex 0.000417 0.002258 0.000000
endloop
endfacet
facet normal 0.000000 0.000000 -1.000000
outer loop
vertex 0.001909 0.000030 0.000000
vertex 0.001685 0.000181 0.000000
vertex 0.001308 0.000593 0.000000
endloop
endfacet
facet normal 0.000000 0.000000 -1.000000
outer loop
vertex 0.002297 0.000137 0.000000
vertex 0.002055 0.000001 0.000000
vertex 0.001909 0.000030 0.000000
endloop
endfacet
facet normal 0.000000 0.000000 -1.000000
outer loop
vertex 0.002633 0.001063 0.000000
vertex 0.002612 0.000593 0.000000
vertex 0.002297 0.000137 0.000000
endloop
endfacet
facet normal 0.000000 0.000000 -1.000000
outer loop
vertex 0.000561 0.004514 0.000000
vertex 0.002506 0.003066 0.000000
vertex 0.002633 0.001063 0.000000
endloop
endfacet
facet normal 0.000000 0.000000 -1.000000
outer loop
vertex 0.000417 0.002258 0.000000
vertex 0.000006 0.003370 0.000000
vertex 0.000561 0.004514 0.000000
endloop
endfacet
facet normal 0.000000 0.000000 -1.000000
outer loop
vertex 0.001909 0.000030 0.000000
vertex 0.001308 0.000593 0.000000
vertex 0.000417 0.002258 0.000000
endloop
endfacet
facet normal 0.000000 0.000000 -1.000000
outer loop
vertex 0.002633 0.001063 0.000000
vertex 0.002297 0.000137 0.000000
vertex 0.001909 0.000030 0.000000
endloop
endfacet
facet normal 0.000000 0.000000 -1.000000
outer loop
vertex 0.000417 0.002258 0.000000
vertex 0.000561 0.004514 0.000000
vertex 0.002633 0.001063 0.000000
endloop
endfacet
facet normal 0.000000 0.000000 -1.000000
outer loop
vertex 0.002633 0.001063 0.000000
vertex 0.001909 0.000030 0.000000
vertex 0.000417 0.002258 0.000000
endloop
endfacet
facet normal 0.484999 -0.874515 0.000000
outer loop
vertex 0.002131 0.000019 0.150000
vertex 0.002131 0.000019 0.000000
vertex 0.002181 0.000047 0.000000
endloop
endfacet
facet normal 0.484999 -0.874515 0.000000
outer loop
vertex 0.002131 0.000019 0.150000
vertex 0.002181 0.000047 0.000000
vertex 0.002181 0.000047 0.150000
endloop
endfacet
facet normal 0.968333 -0.249663 0.000000
outer loop
vertex 0.002612 0.000593 0.150000
vertex 0.002612 0.000593 0.000000
vertex 0.002635 0.000681 0.000000
endloop
endfacet
facet normal 0.968334 -0.249659 0.000000
outer loop
vertex 0.002612 0.000593 0.150000
vertex 0.002635 0.000681 0.000000
vertex 0.002635 0.000681 0.150000
endloop
endfacet
facet normal -0.916833 0.399272 0.000000
outer loop
vertex 0.000269 0.004275 0.150000
vertex 0.000269 0.004275 0.000000
vertex 0.000248 0.004227 0.000000
endloop
endfacet
facet normal -0.916833 0.399272 0.000000
outer loop
vertex 0.000269 0.004275 0.150000
vertex 0.000248 0.004227 0.000000
vertex 0.000248 0.004227 0.150000
endloop
endfacet
facet normal 0.927230 -0.374492 0.000000
outer loop
vertex 0.002577 0.000505 0.150000
vertex 0.002577 0.000505 0.000000
vertex 0.002612 0.000593 0.000000
endloop
endfacet
facet normal 0.927231 -0.374489 0.000000
outer loop
vertex 0.002577 0.000505 0.150000
vertex 0.002612 0.000593 0.000000
vertex 0.002612 0.000593 0.150000
endloop
endfacet
facet normal -0.785674 -0.618641 0.000000
outer loop
vertex 0.001377 0.000497 0.000000
vertex 0.001443 0.000413 0.000000
vertex 0.001443 0.000413 0.150000
endloop
endfacet
facet normal -0.785674 -0.618641 0.000000
outer loop
vertex 0.001377 0.000497 0.000000
vertex 0.001443 0.000413 0.150000
vertex 0.001377 0.000497 0.150000
endloop
endfacet
facet normal -0.839980 -0.542618 0.000000
outer loop
vertex 0.001164 0.000816 0.150000
vertex 0.001164 0.000816 0.000000
vertex 0.001308 0.000593 0.000000
endloop
endfacet
facet normal -0.812342 -0.583181 0.000000
outer loop
vertex 0.001308 0.000593 0.000000
vertex 0.001377 0.000497 0.000000
vertex 0.001377 0.000497 0.150000
endloop
endfacet
facet normal -0.839979 -0.542618 0.000000
outer loop
vertex 0.001308 0.000593 0.150000
vertex 0.001164 0.000816 0.150000
vertex 0.001308 0.000593 0.000000
endloop
endfacet
facet normal -0.812343 -0.583180 0.000000
outer loop
vertex 0.001377 0.000497 0.150000
vertex 0.001308 0.000593 0.150000
vertex 0.001308 0.000593 0.000000
endloop
endfacet
facet normal -0.537054 -0.843548 0.000000
outer loop
vertex 0.001783 0.000104 0.150000
vertex 0.001783 0.000104 0.000000
vertex 0.001869 0.000050 0.000000
endloop
endfacet
facet normal -0.537054 -0.843548 0.000000
outer loop
vertex 0.001783 0.000104 0.150000
vertex 0.001869 0.000050 0.000000
vertex 0.001869 0.000050 0.150000
endloop
endfacet
facet normal 0.997612 0.069067 0.000000
outer loop
vertex 0.002528 0.002757 0.000000
vertex 0.002506 0.003066 0.000000
vertex 0.002506 0.003066 0.150000
endloop
endfacet
facet normal 0.997612 0.069066 0.000000
outer loop
vertex 0.002528 0.002757 0.000000
vertex 0.002506 0.003066 0.150000
vertex 0.002528 0.002757 0.150000
endloop
endfacet
facet normal 0.997741 0.067177 0.000000
outer loop
vertex 0.002558 0.002310 0.000000
vertex 0.002528 0.002757 0.000000
vertex 0.002528 0.002757 0.150000
endloop
endfacet
facet normal 0.997741 0.067176 0.000000
outer loop
vertex 0.002558 0.002310 0.000000
vertex 0.002528 0.002757 0.150000
vertex 0.002558 0.002310 0.150000
endloop
endfacet
facet normal 0.997926 0.064370 0.000000
outer loop
vertex 0.002592 0.001785 0.000000
vertex 0.002558 0.002310 0.000000
vertex 0.002558 0.002310 0.150000
endloop
endfacet
facet normal 0.997926 0.064369 0.000000
outer loop
vertex 0.002592 0.001785 0.000000
vertex 0.002558 0.002310 0.150000
vertex 0.002592 0.001785 0.150000
endloop
endfacet
facet normal 0.998135 0.061047 0.000000
outer loop
vertex 0.002608 0.001523 0.000000
vertex 0.002592 0.001785 0.000000
vertex 0.002592 0.001785 0.150000
endloop
endfacet
facet normal 0.998135 0.061050 0.000000
outer loop
vertex 0.002608 0.001523 0.000000
vertex 0.002592 0.001785 0.150000
vertex 0.002608 0.001523 0.150000
endloop
endfacet
facet normal 0.998341 0.057578 0.000000
outer loop
vertex 0.002622 0.001279 0.000000
vertex 0.002608 0.001523 0.000000
vertex 0.002608 0.001523 0.150000
endloop
endfacet
facet normal 0.998341 0.057579 0.000000
outer loop
vertex 0.002622 0.001279 0.000000
vertex 0.002608 0.001523 0.150000
vertex 0.002622 0.001279 0.150000
endloop
endfacet
facet normal 0.998636 0.052222 0.000000
outer loop
vertex 0.002633 0.001063 0.000000
vertex 0.002622 0.001279 0.000000
vertex 0.002622 0.001279 0.150000
endloop
endfacet
facet normal 0.998635 0.052224 0.000000
outer loop
vertex 0.002633 0.001063 0.000000
vertex 0.002622 0.001279 0.150000
vertex 0.002633 0.001063 0.150000
endloop
endfacet
facet normal 0.999746 0.022522 0.000000
outer loop
vertex 0.002643 0.000770 0.150000
vertex 0.002643 0.000770 0.000000
vertex 0.002641 0.000890 0.000000
endloop
endfacet
facet normal 0.999080 0.042889 0.000000
outer loop
vertex 0.002641 0.000890 0.000000
vertex 0.002633 0.001063 0.000000
vertex 0.002633 0.001063 0.150000
endloop
endfacet
facet normal 0.999746 0.022519 0.000000
outer loop
vertex 0.002641 0.000890 0.150000
vertex 0.002643 0.000770 0.150000
vertex 0.002641 0.000890 0.000000
endloop
endfacet
facet normal 0.999080 0.042891 0.000000
outer loop
vertex 0.002633 0.001063 0.150000
vertex 0.002641 0.000890 0.150000
vertex 0.002641 0.000890 0.000000
endloop
endfacet
facet normal 0.999471 0.032532 0.000000
outer loop
vertex 0.002587 0.005427 0.000000
vertex 0.002581 0.005629 0.000000
vertex 0.002581 0.005629 0.150000
endloop
endfacet
facet normal 0.999471 0.032532 0.000000
outer loop
vertex 0.002587 0.005427 0.000000
vertex 0.002581 0.005629 0.150000
vertex 0.002587 0.005427 0.150000
endloop
endfacet
facet normal 0.998391 -0.056698 0.000000
outer loop
vertex 0.002506 0.003066 0.150000
vertex 0.002506 0.003066 0.000000
vertex 0.002586 0.004473 0.000000
endloop
endfacet
facet normal 0.999999 -0.001116 0.000000
outer loop
vertex 0.002586 0.004473 0.000000
vertex 0.002587 0.005427 0.000000
vertex 0.002587 0.005427 0.150000
endloop
endfacet
facet normal 0.998391 -0.056698 0.000000
outer loop
vertex 0.002586 0.004473 0.150000
vertex 0.002506 0.003066 0.150000
vertex 0.002586 0.004473 0.000000
endloop
endfacet
facet normal 0.999999 -0.001115 0.000000
outer loop
vertex 0.002587 0.005427 0.150000
vertex 0.002586 0.004473 0.150000
vertex 0.002586 0.004473 0.000000
endloop
endfacet
facet normal 0.324800 -0.945783 0.000000
outer loop
vertex 0.002090 0.000005 0.150000
vertex 0.002090 0.000005 0.000000
vertex 0.002131 0.000019 0.000000
endloop
endfacet
facet normal 0.324797 -0.945784 0.000000
outer loop
vertex 0.002090 0.000005 0.150000
vertex 0.002131 0.000019 0.000000
vertex 0.002131 0.000019 0.150000
endloop
endfacet
facet normal -0.794589 0.607148 0.000000
outer loop
vertex 0.000317 0.004347 0.150000
vertex 0.000317 0.004347 0.000000
vertex 0.000291 0.004313 0.000000
endloop
endfacet
facet normal -0.794589 0.607148 0.000000
outer loop
vertex 0.000317 0.004347 0.150000
vertex 0.000291 0.004313 0.000000
vertex 0.000291 0.004313 0.150000
endloop
endfacet
facet normal -0.858502 -0.512810 0.000000
outer loop
vertex 0.001089 0.000942 0.000000
vertex 0.001164 0.000816 0.000000
vertex 0.001164 0.000816 0.150000
endloop
endfacet
facet normal -0.858502 -0.512809 0.000000
outer loop
vertex 0.001089 0.000942 0.000000
vertex 0.001164 0.000816 0.150000
vertex 0.001089 0.000942 0.150000
endloop
endfacet
facet normal -0.867259 -0.497857 0.000000
outer loop
vertex 0.001011 0.001078 0.000000
vertex 0.001089 0.000942 0.000000
vertex 0.001089 0.000942 0.150000
endloop
endfacet
facet normal -0.867259 -0.497857 0.000000
outer loop
vertex 0.001011 0.001078 0.000000
vertex 0.001089 0.000942 0.150000
vertex 0.001011 0.001078 0.150000
endloop
endfacet
facet normal -0.876628 -0.481168 0.000000
outer loop
vertex 0.000847 0.001375 0.000000
vertex 0.001011 0.001078 0.000000
vertex 0.001011 0.001078 0.150000
endloop
endfacet
facet normal -0.876628 -0.481168 0.000000
outer loop
vertex 0.000847 0.001375 0.000000
vertex 0.001011 0.001078 0.150000
vertex 0.000847 0.001375 0.150000
endloop
endfacet
facet normal -0.884398 -0.466734 0.000000
outer loop
vertex 0.000674 0.001704 0.000000
vertex 0.000847 0.001375 0.000000
vertex 0.000847 0.001375 0.150000
endloop
endfacet
facet normal -0.884398 -0.466734 0.000000
outer loop
vertex 0.000674 0.001704 0.000000
vertex 0.000847 0.001375 0.150000
vertex 0.000674 0.001704 0.150000
endloop
endfacet
facet normal -0.908060 -0.418841 0.000000
outer loop
vertex 0.000499 0.002068 0.150000
vertex 0.000499 0.002068 0.000000
vertex 0.000585 0.001882 0.000000
endloop
endfacet
facet normal -0.895003 -0.446061 0.000000
outer loop
vertex 0.000585 0.001882 0.000000
vertex 0.000674 0.001704 0.000000
vertex 0.000674 0.001704 0.150000
endloop
endfacet
facet normal -0.908060 -0.418841 0.000000
outer loop
vertex 0.000585 0.001882 0.150000
vertex 0.000499 0.002068 0.150000
vertex 0.000585 0.001882 0.000000
endloop
endfacet
facet normal -0.895003 -0.446060 0.000000
outer loop
vertex 0.000674 0.001704 0.150000
vertex 0.000585 0.001882 0.150000
vertex 0.000585 0.001882 0.000000
endloop
endfacet
facet normal -0.134461 -0.990919 0.000000
outer loop
vertex 0.001983 0.000006 0.150000
vertex 0.001983 0.000006 0.000000
vertex 0.002019 0.000001 0.000000
endloop
endfacet
facet normal -0.134462 -0.990919 0.000000
outer loop
vertex 0.001983 0.000006 0.150000
vertex 0.002019 0.000001 0.000000
vertex 0.002019 0.000001 0.150000
endloop
endfacet
facet normal 0.812987 -0.582281 0.000000
outer loop
vertex 0.002420 0.000265 0.000000
vertex 0.002532 0.000421 0.000000
vertex 0.002532 0.000421 0.150000
endloop
endfacet
facet normal 0.812989 -0.582279 0.000000
outer loop
vertex 0.002420 0.000265 0.000000
vertex 0.002532 0.000421 0.150000
vertex 0.002420 0.000265 0.150000
endloop
endfacet
facet normal -0.952664 0.304025 0.000000
outer loop
vertex 0.000248 0.004227 0.000000
vertex 0.000016 0.003501 0.000000
vertex 0.000016 0.003501 0.150000
endloop
endfacet
facet normal -0.952664 0.304025 0.000000
outer loop
vertex 0.000248 0.004227 0.000000
vertex 0.000016 0.003501 0.150000
vertex 0.000248 0.004227 0.150000
endloop
endfacet
facet normal -0.725562 0.688156 0.000000
outer loop
vertex 0.000347 0.004379 0.150000
vertex 0.000347 0.004379 0.000000
vertex 0.000317 0.004347 0.000000
endloop
endfacet
facet normal -0.725562 0.688157 0.000000
outer loop
vertex 0.000347 0.004379 0.150000
vertex 0.000317 0.004347 0.000000
vertex 0.000317 0.004347 0.150000
endloop
endfacet
facet normal -0.003127 -0.999995 0.000000
outer loop
vertex 0.002019 0.000001 0.150000
vertex 0.002019 0.000001 0.000000
vertex 0.002055 0.000001 0.000000
endloop
endfacet
facet normal -0.003127 -0.999995 0.000000
outer loop
vertex 0.002019 0.000001 0.150000
vertex 0.002055 0.000001 0.000000
vertex 0.002055 0.000001 0.150000
endloop
endfacet
facet normal 0.995820 -0.091338 0.000000
outer loop
vertex 0.002635 0.000681 0.150000
vertex 0.002635 0.000681 0.000000
vertex 0.002643 0.000770 0.000000
endloop
endfacet
facet normal 0.995820 -0.091338 0.000000
outer loop
vertex 0.002635 0.000681 0.150000
vertex 0.002643 0.000770 0.000000
vertex 0.002643 0.000770 0.150000
endloop
endfacet
facet normal 0.720980 -0.692956 0.000000
outer loop
vertex 0.002297 0.000137 0.150000
vertex 0.002297 0.000137 0.000000
vertex 0.002420 0.000265 0.000000
endloop
endfacet
facet normal 0.720981 -0.692955 0.000000
outer loop
vertex 0.002297 0.000137 0.150000
vertex 0.002420 0.000265 0.000000
vertex 0.002420 0.000265 0.150000
endloop
endfacet
facet normal -0.444899 -0.895581 0.000000
outer loop
vertex 0.001869 0.000050 0.150000
vertex 0.001869 0.000050 0.000000
vertex 0.001909 0.000030 0.000000
endloop
endfacet
facet normal -0.444903 -0.895579 0.000000
outer loop
vertex 0.001869 0.000050 0.150000
vertex 0.001909 0.000030 0.000000
vertex 0.001909 0.000030 0.150000
endloop
endfacet
facet normal 0.000000 0.000000 1.000000
outer loop
vertex 0.001685 0.000181 0.000000
vertex 0.001735 0.000140 0.000000
vertex 0.001783 0.000104 0.000000
endloop
endfacet
facet normal -0.597730 -0.801698 0.000000
outer loop
vertex 0.001783 0.000104 0.000000
vertex 0.001783 0.000104 0.150000
vertex 0.001735 0.000140 0.150000
endloop
endfacet
facet normal -0.652256 -0.757999 0.000000
outer loop
vertex 0.001685 0.000181 0.150000
vertex 0.001570 0.000279 0.150000
vertex 0.001570 0.000279 0.000000
endloop
endfacet
facet normal -0.625077 -0.780563 -0.000014
outer loop
vertex 0.001783 0.000104 0.000000
vertex 0.001735 0.000140 0.150000
vertex 0.001685 0.000181 0.150000
endloop
endfacet
facet normal 0.000000 0.000000 1.000000
outer loop
vertex 0.001570 0.000279 0.000000
vertex 0.001685 0.000181 0.000000
vertex 0.001783 0.000104 0.000000
endloop
endfacet
facet normal -0.634326 -0.773066 -0.000024
outer loop
vertex 0.001783 0.000104 0.000000
vertex 0.001685 0.000181 0.150000
vertex 0.001570 0.000279 0.000000
endloop
endfacet
facet normal -0.725250 -0.688485 0.000000
outer loop
vertex 0.001443 0.000413 0.150000
vertex 0.001443 0.000413 0.000000
vertex 0.001570 0.000279 0.000000
endloop
endfacet
facet normal -0.725249 -0.688486 0.000000
outer loop
vertex 0.001443 0.000413 0.150000
vertex 0.001570 0.000279 0.000000
vertex 0.001570 0.000279 0.150000
endloop
endfacet
facet normal -0.443244 0.896401 0.000000
outer loop
vertex 0.000526 0.004499 0.000000
vertex 0.000502 0.004487 0.000000
vertex 0.000502 0.004487 0.150000
endloop
endfacet
facet normal -0.443245 0.896400 0.000000
outer loop
vertex 0.000526 0.004499 0.000000
vertex 0.000502 0.004487 0.150000
vertex 0.000526 0.004499 0.150000
endloop
endfacet
facet normal -0.414525 0.910038 0.000000
outer loop
vertex 0.000544 0.004507 0.000000
vertex 0.000526 0.004499 0.000000
vertex 0.000526 0.004499 0.150000
endloop
endfacet
facet normal -0.414527 0.910037 0.000000
outer loop
vertex 0.000544 0.004507 0.000000
vertex 0.000526 0.004499 0.150000
vertex 0.000544 0.004507 0.150000
endloop
endfacet
facet normal -0.369107 0.929387 0.000000
outer loop
vertex 0.000561 0.004514 0.150000
vertex 0.000561 0.004514 0.000000
vertex 0.000556 0.004512 0.000000
endloop
endfacet
facet normal -0.389495 0.921028 0.000000
outer loop
vertex 0.000556 0.004512 0.000000
vertex 0.000544 0.004507 0.000000
vertex 0.000544 0.004507 0.150000
endloop
endfacet
facet normal -0.369114 0.929384 0.000000
outer loop
vertex 0.000556 0.004512 0.150000
vertex 0.000561 0.004514 0.150000
vertex 0.000556 0.004512 0.000000
endloop
endfacet
facet normal -0.389501 0.921026 0.000000
outer loop
vertex 0.000544 0.004507 0.150000
vertex 0.000556 0.004512 0.150000
vertex 0.000556 0.004512 0.000000
endloop
endfacet
facet normal 0.000000 0.000000 1.000000
outer loop
vertex 0.002574 0.005748 0.000000
vertex 0.002568 0.005844 0.000000
vertex 0.002563 0.005908 0.000000
endloop
endfacet
facet normal 0.996286 0.086107 0.000000
outer loop
vertex 0.002563 0.005908 0.000000
vertex 0.002561 0.005932 0.000000
vertex 0.002561 0.005932 0.150000
endloop
endfacet
facet normal 0.996286 0.086107 0.000000
outer loop
vertex 0.002563 0.005908 0.000000
vertex 0.002561 0.005932 0.150000
vertex 0.002563 0.005908 0.150000
endloop
endfacet
facet normal 0.000000 0.000000 1.000000
outer loop
vertex 0.002581 0.005629 0.000000
vertex 0.002574 0.005748 0.000000
vertex 0.002563 0.005908 0.000000
endloop
endfacet
facet normal 0.998470 0.055296 0.000000
outer loop
vertex 0.002574 0.005748 0.150000
vertex 0.002581 0.005629 0.150000
vertex 0.002581 0.005629 0.000000
endloop
endfacet
facet normal 0.996910 0.078553 0.000000
outer loop
vertex 0.002563 0.005908 0.000000
vertex 0.002563 0.005908 0.150000
vertex 0.002568 0.005844 0.150000
endloop
endfacet
facet normal 0.997661 0.068355 -0.000010
outer loop
vertex 0.002568 0.005844 0.150000
vertex 0.002574 0.005748 0.150000
vertex 0.002581 0.005629 0.000000
endloop
endfacet
facet normal 0.997875 0.065153 -0.000006
outer loop
vertex 0.002563 0.005908 0.000000
vertex 0.002568 0.005844 0.150000
vertex 0.002581 0.005629 0.000000
endloop
endfacet
endsolid Exported from Blender-3.6.8
