solid Exported from Blender-3.6.8
facet normal 0.608455 -0.793588 0.000000
outer loop
vertex 0.003736 0.000252 0.150000
vertex 0.003736 0.000252 0.000000
vertex 0.003776 0.000282 0.000000
endloop
endfacet
facet normal 0.608455 -0.793588 0.000000
outer loop
vertex 0.003736 0.000252 0.150000
vertex 0.003776 0.000282 0.000000
vertex 0.003776 0.000282 0.150000
endloop
endfacet
facet normal 0.896918 -0.442197 0.000000
outer loop
vertex 0.004945 0.001674 0.000000
vertex 0.004945 0.001674 0.150000
vertex 0.004865 0.001513 0.150000
endloop
endfacet
facet normal 0.896918 -0.442197 0.000000
outer loop
vertex 0.004945 0.001674 0.000000
vertex 0.004865 0.001513 0.150000
vertex 0.004865 0.001513 0.000000
endloop
endfacet
facet normal -0.883671 -0.468108 0.000000
outer loop
vertex 0.000118 0.002233 0.000000
vertex 0.000351 0.001793 0.000000
vertex 0.000351 0.001793 0.150000
endloop
endfacet
facet normal -0.883671 -0.468108 0.000000
outer loop
vertex 0.000118 0.002233 0.000000
vertex 0.000351 0.001793 0.150000
vertex 0.000118 0.002233 0.150000
endloop
endfacet
facet normal -0.081840 -0.996646 0.000000
outer loop
vertex 0.002350 0.000015 0.150000
vertex 0.002350 0.000015 0.000000
vertex 0.002514 0.000001 0.000000
endloop
endfacet
facet normal -0.081840 -0.996646 0.000000
outer loop
vertex 0.002350 0.000015 0.150000
vertex 0.002514 0.000001 0.000000
vertex 0.002514 0.000001 0.150000
endloop
endfacet
facet normal 0.000000 0.000000 -1.000000
outer loop
vertex 0.000040 0.002663 0.000000
vertex 0.000136 0.002678 0.000000
vertex 0.000270 0.002697 0.000000
endloop
endfacet
facet normal 0.000000 0.000000 -1.000000
outer loop
vertex 0.000270 0.002697 0.000000
vertex 0.000344 0.002706 0.000000
vertex 0.000419 0.002715 0.000000
endloop
endfacet
facet normal 0.000000 0.000000 -1.000000
outer loop
vertex 0.000419 0.002715 0.000000
vertex 0.000492 0.002722 0.000000
vertex 0.004210 0.002698 0.000000
endloop
endfacet
facet normal 0.000000 0.000000 -1.000000
outer loop
vertex 0.004210 0.002698 0.000000
vertex 0.004317 0.002674 0.000000
vertex 0.004442 0.002632 0.000000
endloop
endfacet
facet normal 0.000000 0.000000 -1.000000
outer loop
vertex 0.004442 0.002632 0.000000
vertex 0.004581 0.002570 0.000000
vertex 0.004654 0.002533 0.000000
endloop
endfacet
facet normal 0.000000 0.000000 -1.000000
outer loop
vertex 0.004654 0.002533 0.000000
vertex 0.004728 0.002490 0.000000
vertex 0.004804 0.002444 0.000000
endloop
endfacet
facet normal 0.000000 0.000000 -1.000000
outer loop
vertex 0.004804 0.002444 0.000000
vertex 0.004879 0.002393 0.000000
vertex 0.005028 0.002277 0.000000
endloop
endfacet
facet normal 0.000000 0.000000 -1.000000
outer loop
vertex 0.005028 0.002277 0.000000
vertex 0.005090 0.002218 0.000000
vertex 0.005131 0.002164 0.000000
endloop
endfacet
facet normal 0.000000 0.000000 -1.000000
outer loop
vertex 0.005131 0.002164 0.000000
vertex 0.005154 0.002114 0.000000
vertex 0.005160 0.002066 0.000000
endloop
endfacet
facet normal 0.000000 0.000000 -1.000000
outer loop
vertex 0.005160 0.002066 0.000000
vertex 0.005152 0.002018 0.000000
vertex 0.005133 0.001970 0.000000
endloop
endfacet
facet normal 0.000000 0.000000 -1.000000
outer loop
vertex 0.004945 0.001674 0.000000
vertex 0.004865 0.001513 0.000000
vertex 0.004822 0.001443 0.000000
endloop
endfacet
facet normal 0.000000 0.000000 -1.000000
outer loop
vertex 0.005160 0.002066 0.000000
vertex 0.005133 0.001970 0.000000
vertex 0.004945 0.001674 0.000000
endloop
endfacet
facet normal 0.000000 0.000000 -1.000000
outer loop
vertex 0.005028 0.002277 0.000000
vertex 0.005131 0.002164 0.000000
vertex 0.005160 0.002066 0.000000
endloop
endfacet
facet normal 0.000000 0.000000 -1.000000
outer loop
vertex 0.004654 0.002533 0.000000
vertex 0.004804 0.002444 0.000000
vertex 0.005028 0.002277 0.000000
endloop
endfacet
facet normal 0.000000 0.000000 -1.000000
outer loop
vertex 0.004210 0.002698 0.000000
vertex 0.004442 0.002632 0.000000
vertex 0.004654 0.002533 0.000000
endloop
endfacet
facet normal 0.000000 0.000000 -1.000000
outer loop
vertex 0.000270 0.002697 0.000000
vertex 0.000419 0.002715 0.000000
vertex 0.004210 0.002698 0.000000
endloop
endfacet
facet normal 0.000000 0.000000 -1.000000
outer loop
vertex 0.000003 0.002656 0.000000
vertex 0.000040 0.002663 0.000000
vertex 0.000270 0.002697 0.000000
endloop
endfacet
facet normal 0.000000 0.000000 -1.000000
outer loop
vertex 0.000014 0.002524 0.000000
vertex 0.000001 0.002598 0.000000
vertex 0.000003 0.002656 0.000000
endloop
endfacet
facet normal 0.000000 0.000000 -1.000000
outer loop
vertex 0.000118 0.002233 0.000000
vertex 0.000039 0.002436 0.000000
vertex 0.000014 0.002524 0.000000
endloop
endfacet
facet normal 0.000000 0.000000 -1.000000
outer loop
vertex 0.000478 0.001601 0.000000
vertex 0.000351 0.001793 0.000000
vertex 0.000118 0.002233 0.000000
endloop
endfacet
facet normal 0.000000 0.000000 -1.000000
outer loop
vertex 0.000597 0.001451 0.000000
vertex 0.000538 0.001523 0.000000
vertex 0.000478 0.001601 0.000000
endloop
endfacet
facet normal 0.000000 0.000000 -1.000000
outer loop
vertex 0.000721 0.001306 0.000000
vertex 0.000658 0.001378 0.000000
vertex 0.000597 0.001451 0.000000
endloop
endfacet
facet normal 0.000000 0.000000 -1.000000
outer loop
vertex 0.000850 0.001163 0.000000
vertex 0.000785 0.001234 0.000000
vertex 0.000721 0.001306 0.000000
endloop
endfacet
facet normal 0.000000 0.000000 -1.000000
outer loop
vertex 0.001049 0.000952 0.000000
vertex 0.000916 0.001092 0.000000
vertex 0.000850 0.001163 0.000000
endloop
endfacet
facet normal 0.000000 0.000000 -1.000000
outer loop
vertex 0.001318 0.000688 0.000000
vertex 0.001184 0.000817 0.000000
vertex 0.001049 0.000952 0.000000
endloop
endfacet
facet normal 0.000000 0.000000 -1.000000
outer loop
vertex 0.001318 0.000688 0.000000
vertex 0.001049 0.000952 0.000000
vertex 0.000850 0.001163 0.000000
endloop
endfacet
facet normal 0.000000 0.000000 -1.000000
outer loop
vertex 0.000850 0.001163 0.000000
vertex 0.000721 0.001306 0.000000
vertex 0.000597 0.001451 0.000000
endloop
endfacet
facet normal 0.000000 0.000000 -1.000000
outer loop
vertex 0.000597 0.001451 0.000000
vertex 0.000478 0.001601 0.000000
vertex 0.000118 0.002233 0.000000
endloop
endfacet
facet normal 0.000000 0.000000 -1.000000
outer loop
vertex 0.000118 0.002233 0.000000
vertex 0.000014 0.002524 0.000000
vertex 0.000003 0.002656 0.000000
endloop
endfacet
facet normal 0.000000 0.000000 -1.000000
outer loop
vertex 0.000003 0.002656 0.000000
vertex 0.000270 0.002697 0.000000
vertex 0.004210 0.002698 0.000000
endloop
endfacet
facet normal 0.000000 0.000000 -1.000000
outer loop
vertex 0.004210 0.002698 0.000000
vertex 0.004654 0.002533 0.000000
vertex 0.005028 0.002277 0.000000
endloop
endfacet
facet normal 0.000000 0.000000 -1.000000
outer loop
vertex 0.005028 0.002277 0.000000
vertex 0.005160 0.002066 0.000000
vertex 0.004945 0.001674 0.000000
endloop
endfacet
facet normal 0.000000 0.000000 -1.000000
outer loop
vertex 0.004945 0.001674 0.000000
vertex 0.004822 0.001443 0.000000
vertex 0.004725 0.001323 0.000000
endloop
endfacet
facet normal 0.000000 0.000000 -1.000000
outer loop
vertex 0.004725 0.001323 0.000000
vertex 0.004671 0.001270 0.000000
vertex 0.004613 0.001219 0.000000
endloop
endfacet
facet normal 0.000000 0.000000 -1.000000
outer loop
vertex 0.004725 0.001323 0.000000
vertex 0.004613 0.001219 0.000000
vertex 0.004488 0.001112 0.000000
endloop
endfacet
facet normal 0.000000 0.000000 -1.000000
outer loop
vertex 0.005028 0.002277 0.000000
vertex 0.004945 0.001674 0.000000
vertex 0.004725 0.001323 0.000000
endloop
endfacet
facet normal 0.000000 0.000000 -1.000000
outer loop
vertex 0.000003 0.002656 0.000000
vertex 0.004210 0.002698 0.000000
vertex 0.005028 0.002277 0.000000
endloop
endfacet
facet normal 0.000000 0.000000 -1.000000
outer loop
vertex 0.000597 0.001451 0.000000
vertex 0.000118 0.002233 0.000000
vertex 0.000003 0.002656 0.000000
endloop
endfacet
facet normal 0.000000 0.000000 -1.000000
outer loop
vertex 0.001318 0.000688 0.000000
vertex 0.000850 0.001163 0.000000
vertex 0.000597 0.001451 0.000000
endloop
endfacet
facet normal 0.000000 0.000000 -1.000000
outer loop
vertex 0.001379 0.000626 0.000000
vertex 0.001318 0.000688 0.000000
vertex 0.000597 0.001451 0.000000
endloop
endfacet
facet normal 0.000000 0.000000 -1.000000
outer loop
vertex 0.000597 0.001451 0.000000
vertex 0.000003 0.002656 0.000000
vertex 0.005028 0.002277 0.000000
endloop
endfacet
facet normal 0.000000 0.000000 -1.000000
outer loop
vertex 0.005028 0.002277 0.000000
vertex 0.004725 0.001323 0.000000
vertex 0.004488 0.001112 0.000000
endloop
endfacet
facet normal 0.000000 0.000000 -1.000000
outer loop
vertex 0.005028 0.002277 0.000000
vertex 0.004488 0.001112 0.000000
vertex 0.004420 0.001053 0.000000
endloop
endfacet
facet normal 0.000000 0.000000 -1.000000
outer loop
vertex 0.001379 0.000626 0.000000
vertex 0.000597 0.001451 0.000000
vertex 0.005028 0.002277 0.000000
endloop
endfacet
facet normal 0.000000 0.000000 -1.000000
outer loop
vertex 0.001577 0.000385 0.000000
vertex 0.001529 0.000443 0.000000
vertex 0.001433 0.000564 0.000000
endloop
endfacet
facet normal 0.000000 0.000000 -1.000000
outer loop
vertex 0.001433 0.000564 0.000000
vertex 0.001379 0.000626 0.000000
vertex 0.005028 0.002277 0.000000
endloop
endfacet
facet normal 0.000000 0.000000 -1.000000
outer loop
vertex 0.005028 0.002277 0.000000
vertex 0.004420 0.001053 0.000000
vertex 0.004349 0.000988 0.000000
endloop
endfacet
facet normal 0.000000 0.000000 -1.000000
outer loop
vertex 0.005028 0.002277 0.000000
vertex 0.004349 0.000988 0.000000
vertex 0.004274 0.000914 0.000000
endloop
endfacet
facet normal 0.000000 0.000000 -1.000000
outer loop
vertex 0.001577 0.000385 0.000000
vertex 0.001433 0.000564 0.000000
vertex 0.005028 0.002277 0.000000
endloop
endfacet
facet normal 0.000000 0.000000 -1.000000
outer loop
vertex 0.001688 0.000275 0.000000
vertex 0.001629 0.000329 0.000000
vertex 0.001577 0.000385 0.000000
endloop
endfacet
facet normal 0.000000 0.000000 -1.000000
outer loop
vertex 0.001839 0.000174 0.000000
vertex 0.001757 0.000223 0.000000
vertex 0.001688 0.000275 0.000000
endloop
endfacet
facet normal 0.000000 0.000000 -1.000000
outer loop
vertex 0.002194 0.000044 0.000000
vertex 0.001938 0.000128 0.000000
vertex 0.001839 0.000174 0.000000
endloop
endfacet
facet normal 0.000000 0.000000 -1.000000
outer loop
vertex 0.002514 0.000001 0.000000
vertex 0.002350 0.000015 0.000000
vertex 0.002194 0.000044 0.000000
endloop
endfacet
facet normal 0.000000 0.000000 -1.000000
outer loop
vertex 0.003176 0.000065 0.000000
vertex 0.002851 0.000014 0.000000
vertex 0.002514 0.000001 0.000000
endloop
endfacet
facet normal 0.000000 0.000000 -1.000000
outer loop
vertex 0.003667 0.000216 0.000000
vertex 0.003457 0.000139 0.000000
vertex 0.003176 0.000065 0.000000
endloop
endfacet
facet normal 0.000000 0.000000 -1.000000
outer loop
vertex 0.003776 0.000282 0.000000
vertex 0.003736 0.000252 0.000000
vertex 0.003667 0.000216 0.000000
endloop
endfacet
facet normal 0.000000 0.000000 -1.000000
outer loop
vertex 0.003818 0.000335 0.000000
vertex 0.003798 0.000309 0.000000
vertex 0.003776 0.000282 0.000000
endloop
endfacet
facet normal 0.000000 0.000000 -1.000000
outer loop
vertex 0.003857 0.000392 0.000000
vertex 0.003837 0.000363 0.000000
vertex 0.003818 0.000335 0.000000
endloop
endfacet
facet normal 0.000000 0.000000 -1.000000
outer loop
vertex 0.003878 0.000425 0.000000
vertex 0.003857 0.000392 0.000000
vertex 0.003818 0.000335 0.000000
endloop
endfacet
facet normal 0.000000 0.000000 -1.000000
outer loop
vertex 0.003818 0.000335 0.000000
vertex 0.003776 0.000282 0.000000
vertex 0.003667 0.000216 0.000000
endloop
endfacet
facet normal 0.000000 0.000000 -1.000000
outer loop
vertex 0.003667 0.000216 0.000000
vertex 0.003176 0.000065 0.000000
vertex 0.002514 0.000001 0.000000
endloop
endfacet
facet normal 0.000000 0.000000 -1.000000
outer loop
vertex 0.002514 0.000001 0.000000
vertex 0.002194 0.000044 0.000000
vertex 0.001839 0.000174 0.000000
endloop
endfacet
facet normal 0.000000 0.000000 -1.000000
outer loop
vertex 0.001839 0.000174 0.000000
vertex 0.001688 0.000275 0.000000
vertex 0.001577 0.000385 0.000000
endloop
endfacet
facet normal 0.000000 0.000000 -1.000000
outer loop
vertex 0.001577 0.000385 0.000000
vertex 0.005028 0.002277 0.000000
vertex 0.004274 0.000914 0.000000
endloop
endfacet
facet normal 0.000000 0.000000 -1.000000
outer loop
vertex 0.001577 0.000385 0.000000
vertex 0.004274 0.000914 0.000000
vertex 0.004197 0.000830 0.000000
endloop
endfacet
facet normal 0.000000 0.000000 -1.000000
outer loop
vertex 0.002514 0.000001 0.000000
vertex 0.001839 0.000174 0.000000
vertex 0.001577 0.000385 0.000000
endloop
endfacet
facet normal 0.000000 0.000000 -1.000000
outer loop
vertex 0.003818 0.000335 0.000000
vertex 0.003667 0.000216 0.000000
vertex 0.002514 0.000001 0.000000
endloop
endfacet
facet normal 0.000000 0.000000 -1.000000
outer loop
vertex 0.003878 0.000425 0.000000
vertex 0.003818 0.000335 0.000000
vertex 0.002514 0.000001 0.000000
endloop
endfacet
facet normal 0.000000 0.000000 -1.000000
outer loop
vertex 0.002514 0.000001 0.000000
vertex 0.001577 0.000385 0.000000
vertex 0.004197 0.000830 0.000000
endloop
endfacet
facet normal 0.000000 0.000000 -1.000000
outer loop
vertex 0.002514 0.000001 0.000000
vertex 0.004197 0.000830 0.000000
vertex 0.004124 0.000746 0.000000
endloop
endfacet
facet normal 0.000000 0.000000 -1.000000
outer loop
vertex 0.003903 0.000462 0.000000
vertex 0.003878 0.000425 0.000000
vertex 0.002514 0.000001 0.000000
endloop
endfacet
facet normal 0.000000 0.000000 -1.000000
outer loop
vertex 0.003932 0.000504 0.000000
vertex 0.003903 0.000462 0.000000
vertex 0.002514 0.000001 0.000000
endloop
endfacet
facet normal 0.000000 0.000000 -1.000000
outer loop
vertex 0.002514 0.000001 0.000000
vertex 0.004124 0.000746 0.000000
vertex 0.004062 0.000672 0.000000
endloop
endfacet
facet normal 0.000000 0.000000 -1.000000
outer loop
vertex 0.002514 0.000001 0.000000
vertex 0.004062 0.000672 0.000000
vertex 0.004011 0.000608 0.000000
endloop
endfacet
facet normal 0.000000 0.000000 -1.000000
outer loop
vertex 0.003968 0.000552 0.000000
vertex 0.003932 0.000504 0.000000
vertex 0.002514 0.000001 0.000000
endloop
endfacet
facet normal 0.000000 0.000000 -1.000000
outer loop
vertex 0.004011 0.000608 0.000000
vertex 0.003968 0.000552 0.000000
vertex 0.002514 0.000001 0.000000
endloop
endfacet
facet normal 0.000000 0.000000 1.000000
outer loop
vertex 0.004488 0.001112 0.150000
vertex 0.004613 0.001219 0.150000
vertex 0.004671 0.001270 0.150000
endloop
endfacet
facet normal 0.000000 0.000000 1.000000
outer loop
vertex 0.004671 0.001270 0.150000
vertex 0.004725 0.001323 0.150000
vertex 0.004822 0.001443 0.150000
endloop
endfacet
facet normal 0.002636 0.000000 0.999997
outer loop
vertex 0.004822 0.001443 0.150000
vertex 0.004865 0.001513 0.150000
vertex 0.004945 0.001674 0.150000
endloop
endfacet
facet normal -0.000276 0.000000 1.000000
outer loop
vertex 0.004945 0.001674 0.150000
vertex 0.005133 0.001970 0.150000
vertex 0.005152 0.002018 0.150000
endloop
endfacet
facet normal 0.000000 0.000000 1.000000
outer loop
vertex 0.005152 0.002018 0.150000
vertex 0.005160 0.002066 0.150000
vertex 0.005154 0.002114 0.150000
endloop
endfacet
facet normal 0.002123 0.000000 0.999998
outer loop
vertex 0.005154 0.002114 0.150000
vertex 0.005131 0.002164 0.150000
vertex 0.005090 0.002218 0.150000
endloop
endfacet
facet normal 0.000000 0.000000 1.000000
outer loop
vertex 0.005090 0.002218 0.150000
vertex 0.005028 0.002277 0.150000
vertex 0.004879 0.002393 0.150000
endloop
endfacet
facet normal 0.000000 0.000000 1.000000
outer loop
vertex 0.004879 0.002393 0.150000
vertex 0.004804 0.002444 0.150000
vertex 0.004728 0.002490 0.150000
endloop
endfacet
facet normal 0.000000 0.000000 1.000000
outer loop
vertex 0.004728 0.002490 0.150000
vertex 0.004654 0.002533 0.150000
vertex 0.004581 0.002570 0.150000
endloop
endfacet
facet normal -0.000511 0.000000 1.000000
outer loop
vertex 0.004581 0.002570 0.150000
vertex 0.004442 0.002632 0.150000
vertex 0.004317 0.002674 0.150000
endloop
endfacet
facet normal 0.000000 0.000000 1.000000
outer loop
vertex 0.004317 0.002674 0.150000
vertex 0.004210 0.002698 0.150000
vertex 0.000492 0.002722 0.150000
endloop
endfacet
facet normal -0.002277 0.000000 0.999997
outer loop
vertex 0.000492 0.002722 0.150000
vertex 0.000419 0.002715 0.150000
vertex 0.000344 0.002706 0.150000
endloop
endfacet
facet normal 0.000000 0.000000 1.000000
outer loop
vertex 0.000344 0.002706 0.150000
vertex 0.000270 0.002697 0.150000
vertex 0.000136 0.002678 0.150000
endloop
endfacet
facet normal 0.003394 0.000000 0.999994
outer loop
vertex 0.000136 0.002678 0.150000
vertex 0.000040 0.002663 0.150000
vertex 0.000003 0.002656 0.150000
endloop
endfacet
facet normal 0.000000 0.000000 1.000000
outer loop
vertex 0.000003 0.002656 0.150000
vertex 0.000001 0.002598 0.150000
vertex 0.000014 0.002524 0.150000
endloop
endfacet
facet normal -0.001882 0.000000 0.999998
outer loop
vertex 0.000014 0.002524 0.150000
vertex 0.000039 0.002436 0.150000
vertex 0.000118 0.002233 0.150000
endloop
endfacet
facet normal -0.000328 0.000000 1.000000
outer loop
vertex 0.000118 0.002233 0.150000
vertex 0.000351 0.001793 0.150000
vertex 0.000478 0.001601 0.150000
endloop
endfacet
facet normal 0.000000 0.000000 1.000000
outer loop
vertex 0.000478 0.001601 0.150000
vertex 0.000538 0.001523 0.150000
vertex 0.000597 0.001451 0.150000
endloop
endfacet
facet normal -0.015704 0.000000 0.999877
outer loop
vertex 0.000597 0.001451 0.150000
vertex 0.000658 0.001378 0.150000
vertex 0.000721 0.001306 0.150000
endloop
endfacet
facet normal -0.017133 0.000000 0.999853
outer loop
vertex 0.000721 0.001306 0.150000
vertex 0.000785 0.001234 0.150000
vertex 0.000850 0.001163 0.150000
endloop
endfacet
facet normal -0.012595 0.000000 0.999921
outer loop
vertex 0.000850 0.001163 0.150000
vertex 0.000916 0.001092 0.150000
vertex 0.001049 0.000952 0.150000
endloop
endfacet
facet normal 0.000000 0.000000 1.000000
outer loop
vertex 0.001049 0.000952 0.150000
vertex 0.001184 0.000817 0.150000
vertex 0.001318 0.000688 0.150000
endloop
endfacet
facet normal 0.001954 0.000000 0.999998
outer loop
vertex 0.000850 0.001163 0.150000
vertex 0.001049 0.000952 0.150000
vertex 0.001318 0.000688 0.150000
endloop
endfacet
facet normal 0.004108 0.000000 0.999992
outer loop
vertex 0.000597 0.001451 0.150000
vertex 0.000721 0.001306 0.150000
vertex 0.000850 0.001163 0.150000
endloop
endfacet
facet normal 0.000173 0.000000 1.000000
outer loop
vertex 0.000118 0.002233 0.150000
vertex 0.000478 0.001601 0.150000
vertex 0.000597 0.001451 0.150000
endloop
endfacet
facet normal 0.000000 0.000000 1.000000
outer loop
vertex 0.000003 0.002656 0.150000
vertex 0.000014 0.002524 0.150000
vertex 0.000118 0.002233 0.150000
endloop
endfacet
facet normal 0.000000 0.000000 1.000000
outer loop
vertex 0.000344 0.002706 0.150000
vertex 0.000136 0.002678 0.150000
vertex 0.000003 0.002656 0.150000
endloop
endfacet
facet normal 0.000000 0.000000 1.000000
outer loop
vertex 0.004317 0.002674 0.150000
vertex 0.000492 0.002722 0.150000
vertex 0.000344 0.002706 0.150000
endloop
endfacet
facet normal 0.000632 0.000000 1.000000
outer loop
vertex 0.004728 0.002490 0.150000
vertex 0.004581 0.002570 0.150000
vertex 0.004317 0.002674 0.150000
endloop
endfacet
facet normal 0.000647 0.000000 1.000000
outer loop
vertex 0.005090 0.002218 0.150000
vertex 0.004879 0.002393 0.150000
vertex 0.004728 0.002490 0.150000
endloop
endfacet
facet normal 0.000000 0.000000 1.000000
outer loop
vertex 0.005152 0.002018 0.150000
vertex 0.005154 0.002114 0.150000
vertex 0.005090 0.002218 0.150000
endloop
endfacet
facet normal 0.000000 0.000000 1.000000
outer loop
vertex 0.004671 0.001270 0.150000
vertex 0.004822 0.001443 0.150000
vertex 0.004945 0.001674 0.150000
endloop
endfacet
facet normal 0.000058 0.000000 1.000000
outer loop
vertex 0.004945 0.001674 0.150000
vertex 0.005152 0.002018 0.150000
vertex 0.005090 0.002218 0.150000
endloop
endfacet
facet normal -0.000080 0.000000 1.000000
outer loop
vertex 0.005090 0.002218 0.150000
vertex 0.004728 0.002490 0.150000
vertex 0.004317 0.002674 0.150000
endloop
endfacet
facet normal 0.000004 0.000000 1.000000
outer loop
vertex 0.004317 0.002674 0.150000
vertex 0.000344 0.002706 0.150000
vertex 0.000003 0.002656 0.150000
endloop
endfacet
facet normal 0.000000 0.000000 1.000000
outer loop
vertex 0.000003 0.002656 0.150000
vertex 0.000118 0.002233 0.150000
vertex 0.000597 0.001451 0.150000
endloop
endfacet
facet normal 0.000000 0.000000 1.000000
outer loop
vertex 0.000597 0.001451 0.150000
vertex 0.000850 0.001163 0.150000
vertex 0.001318 0.000688 0.150000
endloop
endfacet
facet normal -0.004144 0.000000 0.999991
outer loop
vertex 0.000597 0.001451 0.150000
vertex 0.001318 0.000688 0.150000
vertex 0.001379 0.000626 0.150000
endloop
endfacet
facet normal -0.000006 0.000000 1.000000
outer loop
vertex 0.004317 0.002674 0.150000
vertex 0.000003 0.002656 0.150000
vertex 0.000597 0.001451 0.150000
endloop
endfacet
facet normal 0.000000 0.000000 1.000000
outer loop
vertex 0.004945 0.001674 0.150000
vertex 0.005090 0.002218 0.150000
vertex 0.004317 0.002674 0.150000
endloop
endfacet
facet normal 0.000000 0.000000 1.000000
outer loop
vertex 0.004488 0.001112 0.150000
vertex 0.004671 0.001270 0.150000
vertex 0.004945 0.001674 0.150000
endloop
endfacet
facet normal 0.000000 0.000000 1.000000
outer loop
vertex 0.004420 0.001053 0.150000
vertex 0.004488 0.001112 0.150000
vertex 0.004945 0.001674 0.150000
endloop
endfacet
facet normal 0.000000 0.000000 1.000000
outer loop
vertex 0.004945 0.001674 0.150000
vertex 0.004317 0.002674 0.150000
vertex 0.000597 0.001451 0.150000
endloop
endfacet
facet normal 0.000008 0.000000 1.000000
outer loop
vertex 0.004945 0.001674 0.150000
vertex 0.000597 0.001451 0.150000
vertex 0.001379 0.000626 0.150000
endloop
endfacet
facet normal 0.000000 0.000000 1.000000
outer loop
vertex 0.004349 0.000988 0.150000
vertex 0.004420 0.001053 0.150000
vertex 0.004945 0.001674 0.150000
endloop
endfacet
facet normal 0.000000 0.000000 1.000000
outer loop
vertex 0.004274 0.000914 0.150000
vertex 0.004349 0.000988 0.150000
vertex 0.004945 0.001674 0.150000
endloop
endfacet
facet normal -0.000020 0.000000 1.000000
outer loop
vertex 0.004945 0.001674 0.150000
vertex 0.001379 0.000626 0.150000
vertex 0.001433 0.000564 0.150000
endloop
endfacet
facet normal 0.007928 0.000000 0.999969
outer loop
vertex 0.001433 0.000564 0.150000
vertex 0.001529 0.000443 0.150000
vertex 0.001577 0.000385 0.150000
endloop
endfacet
facet normal 0.000000 0.000000 1.000000
outer loop
vertex 0.001577 0.000385 0.150000
vertex 0.001629 0.000329 0.150000
vertex 0.001688 0.000275 0.150000
endloop
endfacet
facet normal 0.001067 0.000000 0.999999
outer loop
vertex 0.001688 0.000275 0.150000
vertex 0.001757 0.000223 0.150000
vertex 0.001839 0.000174 0.150000
endloop
endfacet
facet normal -0.000490 0.000000 1.000000
outer loop
vertex 0.001839 0.000174 0.150000
vertex 0.001938 0.000128 0.150000
vertex 0.002194 0.000044 0.150000
endloop
endfacet
facet normal -0.000332 0.000000 1.000000
outer loop
vertex 0.002194 0.000044 0.150000
vertex 0.002350 0.000015 0.150000
vertex 0.002514 0.000001 0.150000
endloop
endfacet
facet normal -0.000138 0.000000 1.000000
outer loop
vertex 0.002514 0.000001 0.150000
vertex 0.002851 0.000014 0.150000
vertex 0.003176 0.000065 0.150000
endloop
endfacet
facet normal -0.000275 0.000000 1.000000
outer loop
vertex 0.003176 0.000065 0.150000
vertex 0.003457 0.000139 0.150000
vertex 0.003667 0.000216 0.150000
endloop
endfacet
facet normal 0.001339 0.000000 0.999999
outer loop
vertex 0.003667 0.000216 0.150000
vertex 0.003736 0.000252 0.150000
vertex 0.003776 0.000282 0.150000
endloop
endfacet
facet normal 0.016298 0.000000 0.999867
outer loop
vertex 0.003776 0.000282 0.150000
vertex 0.003798 0.000309 0.150000
vertex 0.003818 0.000335 0.150000
endloop
endfacet
facet normal 0.000000 0.000000 1.000000
outer loop
vertex 0.003818 0.000335 0.150000
vertex 0.003837 0.000363 0.150000
vertex 0.003857 0.000392 0.150000
endloop
endfacet
facet normal 0.000000 0.000000 1.000000
outer loop
vertex 0.003818 0.000335 0.150000
vertex 0.003857 0.000392 0.150000
vertex 0.003878 0.000425 0.150000
endloop
endfacet
facet normal 0.000000 0.000000 1.000000
outer loop
vertex 0.003667 0.000216 0.150000
vertex 0.003776 0.000282 0.150000
vertex 0.003818 0.000335 0.150000
endloop
endfacet
facet normal 0.000053 0.000000 1.000000
outer loop
vertex 0.002514 0.000001 0.150000
vertex 0.003176 0.000065 0.150000
vertex 0.003667 0.000216 0.150000
endloop
endfacet
facet normal 0.000104 0.000000 1.000000
outer loop
vertex 0.001839 0.000174 0.150000
vertex 0.002194 0.000044 0.150000
vertex 0.002514 0.000001 0.150000
endloop
endfacet
facet normal 0.000333 0.000000 1.000000
outer loop
vertex 0.001577 0.000385 0.150000
vertex 0.001688 0.000275 0.150000
vertex 0.001839 0.000174 0.150000
endloop
endfacet
facet normal -0.000028 0.000000 1.000000
outer loop
vertex 0.004945 0.001674 0.150000
vertex 0.001433 0.000564 0.150000
vertex 0.001577 0.000385 0.150000
endloop
endfacet
facet normal 0.000000 0.000000 1.000000
outer loop
vertex 0.004197 0.000830 0.150000
vertex 0.004274 0.000914 0.150000
vertex 0.004945 0.001674 0.150000
endloop
endfacet
facet normal 0.000000 0.000000 1.000000
outer loop
vertex 0.004197 0.000830 0.150000
vertex 0.004945 0.001674 0.150000
vertex 0.001577 0.000385 0.150000
endloop
endfacet
facet normal -0.000037 0.000000 1.000000
outer loop
vertex 0.001577 0.000385 0.150000
vertex 0.001839 0.000174 0.150000
vertex 0.002514 0.000001 0.150000
endloop
endfacet
facet normal -0.000035 0.000000 1.000000
outer loop
vertex 0.002514 0.000001 0.150000
vertex 0.003667 0.000216 0.150000
vertex 0.003818 0.000335 0.150000
endloop
endfacet
facet normal 0.000019 0.000000 1.000000
outer loop
vertex 0.002514 0.000001 0.150000
vertex 0.003818 0.000335 0.150000
vertex 0.003878 0.000425 0.150000
endloop
endfacet
facet normal 0.000005 0.000000 1.000000
outer loop
vertex 0.004197 0.000830 0.150000
vertex 0.001577 0.000385 0.150000
vertex 0.002514 0.000001 0.150000
endloop
endfacet
facet normal 0.000000 0.000000 1.000000
outer loop
vertex 0.004124 0.000746 0.150000
vertex 0.004197 0.000830 0.150000
vertex 0.002514 0.000001 0.150000
endloop
endfacet
facet normal -0.000092 0.000000 1.000000
outer loop
vertex 0.002514 0.000001 0.150000
vertex 0.003878 0.000425 0.150000
vertex 0.003903 0.000462 0.150000
endloop
endfacet
facet normal -0.000264 0.000000 1.000000
outer loop
vertex 0.002514 0.000001 0.150000
vertex 0.003903 0.000462 0.150000
vertex 0.003932 0.000504 0.150000
endloop
endfacet
facet normal 0.000000 0.000000 1.000000
outer loop
vertex 0.004062 0.000672 0.150000
vertex 0.004124 0.000746 0.150000
vertex 0.002514 0.000001 0.150000
endloop
endfacet
facet normal 0.000000 0.000000 1.000000
outer loop
vertex 0.004011 0.000608 0.150000
vertex 0.004062 0.000672 0.150000
vertex 0.002514 0.000001 0.150000
endloop
endfacet
facet normal 0.000054 0.000000 1.000000
outer loop
vertex 0.002514 0.000001 0.150000
vertex 0.003932 0.000504 0.150000
vertex 0.003968 0.000552 0.150000
endloop
endfacet
facet normal 0.000127 0.000000 1.000000
outer loop
vertex 0.002514 0.000001 0.150000
vertex 0.003968 0.000552 0.150000
vertex 0.004011 0.000608 0.150000
endloop
endfacet
facet normal 0.844297 -0.535876 0.000000
outer loop
vertex 0.004945 0.001674 0.000000
vertex 0.005133 0.001970 0.000000
vertex 0.005133 0.001970 0.150000
endloop
endfacet
facet normal 0.844297 -0.535876 0.000000
outer loop
vertex 0.004945 0.001674 0.000000
vertex 0.005133 0.001970 0.150000
vertex 0.004945 0.001674 0.150000
endloop
endfacet
facet normal 0.006429 0.999979 0.000000
outer loop
vertex 0.004210 0.002698 0.000000
vertex 0.000492 0.002722 0.000000
vertex 0.000492 0.002722 0.150000
endloop
endfacet
facet normal 0.006429 0.999979 0.000000
outer loop
vertex 0.004210 0.002698 0.000000
vertex 0.000492 0.002722 0.150000
vertex 0.004210 0.002698 0.150000
endloop
endfacet
facet normal -0.599288 -0.800533 0.000000
outer loop
vertex 0.001688 0.000275 0.150000
vertex 0.001688 0.000275 0.000000
vertex 0.001757 0.000223 0.000000
endloop
endfacet
facet normal -0.599288 -0.800533 0.000000
outer loop
vertex 0.001688 0.000275 0.150000
vertex 0.001757 0.000223 0.000000
vertex 0.001757 0.000223 0.150000
endloop
endfacet
facet normal 0.913198 0.407516 0.000000
outer loop
vertex 0.005154 0.002114 0.150000
vertex 0.005154 0.002114 0.000000
vertex 0.005131 0.002164 0.000000
endloop
endfacet
facet normal 0.913193 0.407528 0.000000
outer loop
vertex 0.005154 0.002114 0.150000
vertex 0.005131 0.002164 0.000000
vertex 0.005131 0.002164 0.150000
endloop
endfacet
facet normal 0.795805 0.605553 0.000000
outer loop
vertex 0.005131 0.002164 0.150000
vertex 0.005131 0.002164 0.000000
vertex 0.005090 0.002218 0.000000
endloop
endfacet
facet normal 0.795800 0.605560 0.000000
outer loop
vertex 0.005131 0.002164 0.150000
vertex 0.005090 0.002218 0.000000
vertex 0.005090 0.002218 0.150000
endloop
endfacet
facet normal -0.513762 -0.857933 0.000000
outer loop
vertex 0.001757 0.000223 0.150000
vertex 0.001757 0.000223 0.000000
vertex 0.001839 0.000174 0.000000
endloop
endfacet
facet normal -0.513763 -0.857932 0.000000
outer loop
vertex 0.001757 0.000223 0.150000
vertex 0.001839 0.000174 0.000000
vertex 0.001839 0.000174 0.150000
endloop
endfacet
facet normal 0.348206 -0.937418 0.000000
outer loop
vertex 0.003457 0.000139 0.150000
vertex 0.003457 0.000139 0.000000
vertex 0.003667 0.000216 0.000000
endloop
endfacet
facet normal 0.348206 -0.937418 0.000000
outer loop
vertex 0.003457 0.000139 0.150000
vertex 0.003667 0.000216 0.000000
vertex 0.003667 0.000216 0.150000
endloop
endfacet
facet normal 0.404815 0.914399 0.000000
outer loop
vertex 0.004581 0.002570 0.150000
vertex 0.004581 0.002570 0.000000
vertex 0.004442 0.002632 0.000000
endloop
endfacet
facet normal 0.404816 0.914398 0.000000
outer loop
vertex 0.004581 0.002570 0.150000
vertex 0.004442 0.002632 0.000000
vertex 0.004442 0.002632 0.150000
endloop
endfacet
facet normal 0.156407 -0.987693 0.000000
outer loop
vertex 0.003176 0.000065 0.000000
vertex 0.003176 0.000065 0.150000
vertex 0.002851 0.000014 0.150000
endloop
endfacet
facet normal 0.156407 -0.987693 0.000000
outer loop
vertex 0.003176 0.000065 0.000000
vertex 0.002851 0.000014 0.150000
vertex 0.002851 0.000014 0.000000
endloop
endfacet
facet normal 0.986973 -0.160886 0.000000
outer loop
vertex 0.005152 0.002018 0.150000
vertex 0.005152 0.002018 0.000000
vertex 0.005160 0.002066 0.000000
endloop
endfacet
facet normal 0.986976 -0.160870 0.000000
outer loop
vertex 0.005152 0.002018 0.150000
vertex 0.005160 0.002066 0.000000
vertex 0.005160 0.002066 0.150000
endloop
endfacet
facet normal 0.459115 -0.888377 0.000000
outer loop
vertex 0.003667 0.000216 0.150000
vertex 0.003667 0.000216 0.000000
vertex 0.003736 0.000252 0.000000
endloop
endfacet
facet normal 0.459111 -0.888379 0.000000
outer loop
vertex 0.003667 0.000216 0.150000
vertex 0.003736 0.000252 0.000000
vertex 0.003736 0.000252 0.150000
endloop
endfacet
facet normal -0.185522 -0.982640 0.000000
outer loop
vertex 0.002194 0.000044 0.150000
vertex 0.002194 0.000044 0.000000
vertex 0.002350 0.000015 0.000000
endloop
endfacet
facet normal -0.185523 -0.982640 0.000000
outer loop
vertex 0.002194 0.000044 0.150000
vertex 0.002350 0.000015 0.000000
vertex 0.002350 0.000015 0.150000
endloop
endfacet
facet normal 0.251108 -0.967959 0.000000
outer loop
vertex 0.003176 0.000065 0.000000
vertex 0.003457 0.000139 0.000000
vertex 0.003457 0.000139 0.150000
endloop
endfacet
facet normal 0.251108 -0.967959 0.000000
outer loop
vertex 0.003176 0.000065 0.000000
vertex 0.003457 0.000139 0.150000
vertex 0.003176 0.000065 0.150000
endloop
endfacet
facet normal -0.674941 -0.737871 0.000000
outer loop
vertex 0.001629 0.000329 0.150000
vertex 0.001629 0.000329 0.000000
vertex 0.001688 0.000275 0.000000
endloop
endfacet
facet normal -0.674939 -0.737874 0.000000
outer loop
vertex 0.001629 0.000329 0.150000
vertex 0.001688 0.000275 0.000000
vertex 0.001688 0.000275 0.150000
endloop
endfacet
facet normal 0.000000 0.000000 1.000000
outer loop
vertex 0.000419 0.002715 0.000000
vertex 0.000344 0.002706 0.000000
vertex 0.000270 0.002697 0.000000
endloop
endfacet
facet normal 0.000000 0.000000 1.000000
outer loop
vertex 0.000270 0.002697 0.000000
vertex 0.000136 0.002678 0.000000
vertex 0.000040 0.002663 0.000000
endloop
endfacet
facet normal -0.163511 0.986542 0.000000
outer loop
vertex 0.000040 0.002663 0.000000
vertex 0.000003 0.002656 0.000000
vertex 0.000003 0.002656 0.150000
endloop
endfacet
facet normal -0.163511 0.986542 0.000000
outer loop
vertex 0.000040 0.002663 0.000000
vertex 0.000003 0.002656 0.150000
vertex 0.000040 0.002663 0.150000
endloop
endfacet
facet normal 0.000000 0.000000 1.000000
outer loop
vertex 0.000419 0.002715 0.000000
vertex 0.000270 0.002697 0.000000
vertex 0.000040 0.002663 0.000000
endloop
endfacet
facet normal -0.094779 0.995498 0.000000
outer loop
vertex 0.000492 0.002722 0.150000
vertex 0.000492 0.002722 0.000000
vertex 0.000419 0.002715 0.000000
endloop
endfacet
facet normal -0.094779 0.995498 0.000000
outer loop
vertex 0.000419 0.002715 0.150000
vertex 0.000492 0.002722 0.150000
vertex 0.000419 0.002715 0.000000
endloop
endfacet
facet normal -0.136006 0.990708 0.000000
outer loop
vertex 0.000419 0.002715 0.000000
vertex 0.000040 0.002663 0.000000
vertex 0.000040 0.002663 0.150000
endloop
endfacet
facet normal -0.154561 0.987983 -0.000048
outer loop
vertex 0.000419 0.002715 0.000000
vertex 0.000040 0.002663 0.150000
vertex 0.000136 0.002678 0.150000
endloop
endfacet
facet normal -0.112785 0.993619 0.000000
outer loop
vertex 0.000344 0.002706 0.150000
vertex 0.000419 0.002715 0.150000
vertex 0.000419 0.002715 0.000000
endloop
endfacet
facet normal -0.140808 0.990037 -0.000021
outer loop
vertex 0.000419 0.002715 0.000000
vertex 0.000136 0.002678 0.150000
vertex 0.000270 0.002697 0.150000
endloop
endfacet
facet normal -0.126301 0.991992 -0.000007
outer loop
vertex 0.000270 0.002697 0.150000
vertex 0.000344 0.002706 0.150000
vertex 0.000419 0.002715 0.000000
endloop
endfacet
facet normal -0.930955 -0.365133 0.000000
outer loop
vertex 0.000039 0.002436 0.150000
vertex 0.000039 0.002436 0.000000
vertex 0.000118 0.002233 0.000000
endloop
endfacet
facet normal -0.930955 -0.365133 0.000000
outer loop
vertex 0.000039 0.002436 0.150000
vertex 0.000118 0.002233 0.000000
vertex 0.000118 0.002233 0.150000
endloop
endfacet
facet normal 0.000000 0.000000 -1.000000
outer loop
vertex 0.004420 0.001053 0.000000
vertex 0.004488 0.001112 0.000000
vertex 0.004613 0.001219 0.000000
endloop
endfacet
facet normal 0.701397 -0.712771 0.000000
outer loop
vertex 0.004671 0.001270 0.000000
vertex 0.004725 0.001323 0.000000
vertex 0.004725 0.001323 0.150000
endloop
endfacet
facet normal 0.000000 0.000000 -1.000000
outer loop
vertex 0.004349 0.000988 0.000000
vertex 0.004420 0.001053 0.000000
vertex 0.004613 0.001219 0.000000
endloop
endfacet
facet normal 0.667170 -0.744905 0.000024
outer loop
vertex 0.004613 0.001219 0.000000
vertex 0.004671 0.001270 0.000000
vertex 0.004725 0.001323 0.150000
endloop
endfacet
facet normal 0.701397 -0.712771 -0.000024
outer loop
vertex 0.004613 0.001219 0.000000
vertex 0.004725 0.001323 0.150000
vertex 0.004671 0.001270 0.150000
endloop
endfacet
facet normal 0.000000 0.000000 -1.000000
outer loop
vertex 0.004274 0.000914 0.000000
vertex 0.004349 0.000988 0.000000
vertex 0.004613 0.001219 0.000000
endloop
endfacet
facet normal 0.704082 -0.710119 0.000000
outer loop
vertex 0.004349 0.000988 0.150000
vertex 0.004274 0.000914 0.150000
vertex 0.004274 0.000914 0.000000
endloop
endfacet
facet normal 0.676119 -0.736793 0.000027
outer loop
vertex 0.004420 0.001053 0.150000
vertex 0.004349 0.000988 0.150000
vertex 0.004274 0.000914 0.000000
endloop
endfacet
facet normal 0.668016 -0.744147 -0.000001
outer loop
vertex 0.004274 0.000914 0.000000
vertex 0.004613 0.001219 0.000000
vertex 0.004671 0.001270 0.150000
endloop
endfacet
facet normal 0.667165 -0.744910 0.000003
outer loop
vertex 0.004274 0.000914 0.000000
vertex 0.004671 0.001270 0.150000
vertex 0.004613 0.001219 0.150000
endloop
endfacet
facet normal 0.655150 -0.755499 0.000065
outer loop
vertex 0.004488 0.001112 0.150000
vertex 0.004420 0.001053 0.150000
vertex 0.004274 0.000914 0.000000
endloop
endfacet
facet normal 0.646446 -0.762960 0.000087
outer loop
vertex 0.004613 0.001219 0.150000
vertex 0.004488 0.001112 0.150000
vertex 0.004274 0.000914 0.000000
endloop
endfacet
facet normal 0.851681 -0.524061 0.000000
outer loop
vertex 0.004822 0.001443 0.150000
vertex 0.004822 0.001443 0.000000
vertex 0.004865 0.001513 0.000000
endloop
endfacet
facet normal 0.851677 -0.524068 0.000000
outer loop
vertex 0.004822 0.001443 0.150000
vertex 0.004865 0.001513 0.000000
vertex 0.004865 0.001513 0.150000
endloop
endfacet
facet normal -0.985999 -0.166754 0.000000
outer loop
vertex 0.000001 0.002598 0.150000
vertex 0.000001 0.002598 0.000000
vertex 0.000014 0.002524 0.000000
endloop
endfacet
facet normal -0.985999 -0.166754 0.000000
outer loop
vertex 0.000001 0.002598 0.150000
vertex 0.000014 0.002524 0.000000
vertex 0.000014 0.002524 0.150000
endloop
endfacet
facet normal -0.834142 -0.551549 0.000000
outer loop
vertex 0.000351 0.001793 0.000000
vertex 0.000478 0.001601 0.000000
vertex 0.000478 0.001601 0.150000
endloop
endfacet
facet normal -0.834142 -0.551549 0.000000
outer loop
vertex 0.000351 0.001793 0.000000
vertex 0.000478 0.001601 0.150000
vertex 0.000351 0.001793 0.150000
endloop
endfacet
facet normal 0.774914 -0.632067 0.000000
outer loop
vertex 0.004725 0.001323 0.150000
vertex 0.004725 0.001323 0.000000
vertex 0.004822 0.001443 0.000000
endloop
endfacet
facet normal 0.774914 -0.632067 0.000000
outer loop
vertex 0.004725 0.001323 0.150000
vertex 0.004822 0.001443 0.000000
vertex 0.004822 0.001443 0.150000
endloop
endfacet
facet normal 0.560929 0.827864 0.000000
outer loop
vertex 0.004804 0.002444 0.150000
vertex 0.004879 0.002393 0.150000
vertex 0.004879 0.002393 0.000000
endloop
endfacet
facet normal 0.000000 0.000000 1.000000
outer loop
vertex 0.004879 0.002393 0.000000
vertex 0.004804 0.002444 0.000000
vertex 0.004728 0.002490 0.000000
endloop
endfacet
facet normal 0.000000 0.000000 1.000000
outer loop
vertex 0.004728 0.002490 0.000000
vertex 0.004654 0.002533 0.000000
vertex 0.004581 0.002570 0.000000
endloop
endfacet
facet normal 0.458916 0.888480 0.000000
outer loop
vertex 0.004581 0.002570 0.000000
vertex 0.004581 0.002570 0.150000
vertex 0.004654 0.002533 0.150000
endloop
endfacet
facet normal 0.527297 0.849681 -0.000024
outer loop
vertex 0.004728 0.002490 0.150000
vertex 0.004804 0.002444 0.150000
vertex 0.004879 0.002393 0.000000
endloop
endfacet
facet normal 0.493445 0.869777 -0.000021
outer loop
vertex 0.004581 0.002570 0.000000
vertex 0.004654 0.002533 0.150000
vertex 0.004728 0.002490 0.150000
endloop
endfacet
facet normal 0.000000 0.000000 1.000000
outer loop
vertex 0.004879 0.002393 0.000000
vertex 0.004728 0.002490 0.000000
vertex 0.004581 0.002570 0.000000
endloop
endfacet
facet normal 0.512139 0.858902 -0.000046
outer loop
vertex 0.004879 0.002393 0.000000
vertex 0.004581 0.002570 0.000000
vertex 0.004728 0.002490 0.150000
endloop
endfacet
facet normal 0.322154 0.946687 0.000000
outer loop
vertex 0.004442 0.002632 0.000000
vertex 0.004317 0.002674 0.000000
vertex 0.004317 0.002674 0.150000
endloop
endfacet
facet normal 0.322157 0.946686 0.000000
outer loop
vertex 0.004442 0.002632 0.000000
vertex 0.004317 0.002674 0.150000
vertex 0.004442 0.002632 0.150000
endloop
endfacet
facet normal -0.309082 -0.951035 0.000000
outer loop
vertex 0.001938 0.000128 0.150000
vertex 0.001938 0.000128 0.000000
vertex 0.002194 0.000044 0.000000
endloop
endfacet
facet normal -0.309082 -0.951035 0.000000
outer loop
vertex 0.001938 0.000128 0.150000
vertex 0.002194 0.000044 0.000000
vertex 0.002194 0.000044 0.150000
endloop
endfacet
facet normal 0.927510 -0.373799 0.000000
outer loop
vertex 0.005133 0.001970 0.150000
vertex 0.005133 0.001970 0.000000
vertex 0.005152 0.002018 0.000000
endloop
endfacet
facet normal 0.927504 -0.373812 0.000000
outer loop
vertex 0.005133 0.001970 0.150000
vertex 0.005152 0.002018 0.000000
vertex 0.005152 0.002018 0.150000
endloop
endfacet
facet normal 0.000000 0.000000 -1.000000
outer loop
vertex 0.003968 0.000552 0.000000
vertex 0.004011 0.000608 0.000000
vertex 0.004062 0.000672 0.000000
endloop
endfacet
facet normal 0.000000 0.000000 -1.000000
outer loop
vertex 0.004062 0.000672 0.000000
vertex 0.004124 0.000746 0.000000
vertex 0.004197 0.000830 0.000000
endloop
endfacet
facet normal 0.735613 -0.677402 0.000000
outer loop
vertex 0.004197 0.000830 0.000000
vertex 0.004274 0.000914 0.000000
vertex 0.004274 0.000914 0.150000
endloop
endfacet
facet normal 0.735620 -0.677394 0.000000
outer loop
vertex 0.004197 0.000830 0.000000
vertex 0.004274 0.000914 0.150000
vertex 0.004197 0.000830 0.150000
endloop
endfacet
facet normal 0.000000 0.000000 -1.000000
outer loop
vertex 0.003968 0.000552 0.000000
vertex 0.004062 0.000672 0.000000
vertex 0.004197 0.000830 0.000000
endloop
endfacet
facet normal 0.000000 0.000000 -1.000000
outer loop
vertex 0.003903 0.000462 0.000000
vertex 0.003932 0.000504 0.000000
vertex 0.003968 0.000552 0.000000
endloop
endfacet
facet normal 0.000000 0.000000 -1.000000
outer loop
vertex 0.003857 0.000392 0.000000
vertex 0.003878 0.000425 0.000000
vertex 0.003903 0.000462 0.000000
endloop
endfacet
facet normal 0.000000 0.000000 -1.000000
outer loop
vertex 0.003837 0.000363 0.000000
vertex 0.003857 0.000392 0.000000
vertex 0.003903 0.000462 0.000000
endloop
endfacet
facet normal 0.000000 0.000000 -1.000000
outer loop
vertex 0.003903 0.000462 0.000000
vertex 0.003968 0.000552 0.000000
vertex 0.004197 0.000830 0.000000
endloop
endfacet
facet normal 0.756714 -0.653747 0.000000
outer loop
vertex 0.004197 0.000830 0.000000
vertex 0.004197 0.000830 0.150000
vertex 0.004124 0.000746 0.150000
endloop
endfacet
facet normal 0.768094 -0.640338 0.000013
outer loop
vertex 0.004197 0.000830 0.000000
vertex 0.004124 0.000746 0.150000
vertex 0.004062 0.000672 0.150000
endloop
endfacet
facet normal 0.000000 0.000000 -1.000000
outer loop
vertex 0.003837 0.000363 0.000000
vertex 0.003903 0.000462 0.000000
vertex 0.004197 0.000830 0.000000
endloop
endfacet
facet normal 0.000000 0.000000 -1.000000
outer loop
vertex 0.003818 0.000335 0.000000
vertex 0.003837 0.000363 0.000000
vertex 0.004197 0.000830 0.000000
endloop
endfacet
facet normal 0.780420 -0.625255 0.000040
outer loop
vertex 0.004197 0.000830 0.000000
vertex 0.004062 0.000672 0.150000
vertex 0.004011 0.000608 0.150000
endloop
endfacet
facet normal 0.793462 -0.608620 0.000081
outer loop
vertex 0.004197 0.000830 0.000000
vertex 0.004011 0.000608 0.150000
vertex 0.003968 0.000552 0.150000
endloop
endfacet
facet normal 0.000000 0.000000 -1.000000
outer loop
vertex 0.003798 0.000309 0.000000
vertex 0.003818 0.000335 0.000000
vertex 0.004197 0.000830 0.000000
endloop
endfacet
facet normal 0.767662 -0.640855 0.000000
outer loop
vertex 0.003776 0.000282 0.150000
vertex 0.003776 0.000282 0.000000
vertex 0.003798 0.000309 0.000000
endloop
endfacet
facet normal 0.767662 -0.640855 0.000000
outer loop
vertex 0.003798 0.000309 0.150000
vertex 0.003776 0.000282 0.150000
vertex 0.003798 0.000309 0.000000
endloop
endfacet
facet normal 0.794149 -0.607724 0.000084
outer loop
vertex 0.003798 0.000309 0.000000
vertex 0.004197 0.000830 0.000000
vertex 0.003968 0.000552 0.150000
endloop
endfacet
facet normal 0.806590 -0.591111 0.000043
outer loop
vertex 0.003798 0.000309 0.000000
vertex 0.003968 0.000552 0.150000
vertex 0.003932 0.000504 0.150000
endloop
endfacet
facet normal 0.797799 -0.602924 0.000000
outer loop
vertex 0.003818 0.000335 0.150000
vertex 0.003798 0.000309 0.150000
vertex 0.003798 0.000309 0.000000
endloop
endfacet
facet normal 0.819630 -0.572893 -0.000008
outer loop
vertex 0.003837 0.000363 0.150000
vertex 0.003818 0.000335 0.150000
vertex 0.003798 0.000309 0.000000
endloop
endfacet
facet normal 0.818816 -0.574056 0.000009
outer loop
vertex 0.003798 0.000309 0.000000
vertex 0.003932 0.000504 0.150000
vertex 0.003903 0.000462 0.150000
endloop
endfacet
facet normal 0.828516 -0.559965 -0.000012
outer loop
vertex 0.003798 0.000309 0.000000
vertex 0.003903 0.000462 0.150000
vertex 0.003878 0.000425 0.150000
endloop
endfacet
facet normal 0.831284 -0.555848 -0.000017
outer loop
vertex 0.003857 0.000392 0.150000
vertex 0.003837 0.000363 0.150000
vertex 0.003798 0.000309 0.000000
endloop
endfacet
facet normal 0.833518 -0.552492 -0.000020
outer loop
vertex 0.003878 0.000425 0.150000
vertex 0.003857 0.000392 0.150000
vertex 0.003798 0.000309 0.000000
endloop
endfacet
facet normal -0.427232 -0.904142 0.000000
outer loop
vertex 0.001839 0.000174 0.150000
vertex 0.001839 0.000174 0.000000
vertex 0.001938 0.000128 0.000000
endloop
endfacet
facet normal -0.427231 -0.904143 0.000000
outer loop
vertex 0.001839 0.000174 0.150000
vertex 0.001938 0.000128 0.000000
vertex 0.001938 0.000128 0.150000
endloop
endfacet
facet normal 0.037499 -0.999297 0.000000
outer loop
vertex 0.002514 0.000001 0.150000
vertex 0.002514 0.000001 0.000000
vertex 0.002851 0.000014 0.000000
endloop
endfacet
facet normal 0.037499 -0.999297 0.000000
outer loop
vertex 0.002514 0.000001 0.150000
vertex 0.002851 0.000014 0.000000
vertex 0.002851 0.000014 0.150000
endloop
endfacet
facet normal 0.000000 0.000000 1.000000
outer loop
vertex 0.001433 0.000564 0.000000
vertex 0.001529 0.000443 0.000000
vertex 0.001577 0.000385 0.000000
endloop
endfacet
facet normal -0.733172 -0.680043 0.000000
outer loop
vertex 0.001577 0.000385 0.000000
vertex 0.001629 0.000329 0.000000
vertex 0.001629 0.000329 0.150000
endloop
endfacet
facet normal -0.733169 -0.680046 0.000000
outer loop
vertex 0.001577 0.000385 0.000000
vertex 0.001629 0.000329 0.150000
vertex 0.001577 0.000385 0.150000
endloop
endfacet
facet normal -0.778533 -0.627603 0.000000
outer loop
vertex 0.001433 0.000564 0.000000
vertex 0.001577 0.000385 0.000000
vertex 0.001577 0.000385 0.150000
endloop
endfacet
facet normal -0.770111 -0.637910 -0.000020
outer loop
vertex 0.001433 0.000564 0.000000
vertex 0.001577 0.000385 0.150000
vertex 0.001529 0.000443 0.150000
endloop
endfacet
facet normal -0.755365 -0.655305 -0.000044
outer loop
vertex 0.001379 0.000626 0.000000
vertex 0.001433 0.000564 0.000000
vertex 0.001529 0.000443 0.150000
endloop
endfacet
facet normal -0.782606 -0.622517 0.000023
outer loop
vertex 0.001379 0.000626 0.000000
vertex 0.001529 0.000443 0.150000
vertex 0.001433 0.000564 0.150000
endloop
endfacet
facet normal 0.000000 0.000000 1.000000
outer loop
vertex 0.001049 0.000952 0.000000
vertex 0.001184 0.000817 0.000000
vertex 0.001318 0.000688 0.000000
endloop
endfacet
facet normal -0.713532 -0.700623 -0.000034
outer loop
vertex 0.001318 0.000688 0.000000
vertex 0.001379 0.000626 0.000000
vertex 0.001433 0.000564 0.150000
endloop
endfacet
facet normal -0.755364 -0.655306 0.000036
outer loop
vertex 0.001318 0.000688 0.000000
vertex 0.001433 0.000564 0.150000
vertex 0.001379 0.000626 0.150000
endloop
endfacet
facet normal 0.000000 0.000000 1.000000
outer loop
vertex 0.000916 0.001092 0.000000
vertex 0.001049 0.000952 0.000000
vertex 0.001318 0.000688 0.000000
endloop
endfacet
facet normal 0.000000 0.000000 1.000000
outer loop
vertex 0.000785 0.001234 0.000000
vertex 0.000850 0.001163 0.000000
vertex 0.000916 0.001092 0.000000
endloop
endfacet
facet normal 0.000000 0.000000 1.000000
outer loop
vertex 0.000658 0.001378 0.000000
vertex 0.000721 0.001306 0.000000
vertex 0.000785 0.001234 0.000000
endloop
endfacet
facet normal 0.000000 0.000000 1.000000
outer loop
vertex 0.000538 0.001523 0.000000
vertex 0.000597 0.001451 0.000000
vertex 0.000658 0.001378 0.000000
endloop
endfacet
facet normal -0.795526 -0.605920 0.000000
outer loop
vertex 0.000478 0.001601 0.150000
vertex 0.000478 0.001601 0.000000
vertex 0.000538 0.001523 0.000000
endloop
endfacet
facet normal -0.795525 -0.605920 0.000000
outer loop
vertex 0.000538 0.001523 0.150000
vertex 0.000478 0.001601 0.150000
vertex 0.000538 0.001523 0.000000
endloop
endfacet
facet normal 0.000000 0.000000 1.000000
outer loop
vertex 0.000538 0.001523 0.000000
vertex 0.000658 0.001378 0.000000
vertex 0.000785 0.001234 0.000000
endloop
endfacet
facet normal 0.000000 0.000000 1.000000
outer loop
vertex 0.000785 0.001234 0.000000
vertex 0.000916 0.001092 0.000000
vertex 0.001318 0.000688 0.000000
endloop
endfacet
facet normal -0.713532 -0.700623 0.000000
outer loop
vertex 0.001318 0.000688 0.000000
vertex 0.001379 0.000626 0.150000
vertex 0.001318 0.000688 0.150000
endloop
endfacet
facet normal -0.694703 -0.719296 0.000000
outer loop
vertex 0.001318 0.000688 0.000000
vertex 0.001318 0.000688 0.150000
vertex 0.001184 0.000817 0.150000
endloop
endfacet
facet normal 0.000000 0.000000 1.000000
outer loop
vertex 0.000538 0.001523 0.000000
vertex 0.000785 0.001234 0.000000
vertex 0.001318 0.000688 0.000000
endloop
endfacet
facet normal -0.772596 -0.634898 0.000000
outer loop
vertex 0.000597 0.001451 0.150000
vertex 0.000538 0.001523 0.150000
vertex 0.000538 0.001523 0.000000
endloop
endfacet
facet normal -0.763786 -0.645470 -0.000009
outer loop
vertex 0.000658 0.001378 0.150000
vertex 0.000597 0.001451 0.150000
vertex 0.000538 0.001523 0.000000
endloop
endfacet
facet normal -0.730641 -0.682762 -0.000064
outer loop
vertex 0.000538 0.001523 0.000000
vertex 0.001318 0.000688 0.000000
vertex 0.001184 0.000817 0.150000
endloop
endfacet
facet normal -0.708204 -0.706008 -0.000269
outer loop
vertex 0.000538 0.001523 0.000000
vertex 0.001184 0.000817 0.150000
vertex 0.001049 0.000952 0.150000
endloop
endfacet
facet normal -0.755430 -0.655229 -0.000025
outer loop
vertex 0.000721 0.001306 0.150000
vertex 0.000658 0.001378 0.150000
vertex 0.000538 0.001523 0.000000
endloop
endfacet
facet normal -0.747467 -0.664299 -0.000047
outer loop
vertex 0.000785 0.001234 0.150000
vertex 0.000721 0.001306 0.150000
vertex 0.000538 0.001523 0.000000
endloop
endfacet
facet normal -0.721888 -0.692010 -0.000170
outer loop
vertex 0.000538 0.001523 0.000000
vertex 0.001049 0.000952 0.150000
vertex 0.000916 0.001092 0.150000
endloop
endfacet
facet normal -0.739835 -0.672788 -0.000076
outer loop
vertex 0.000850 0.001163 0.150000
vertex 0.000785 0.001234 0.150000
vertex 0.000538 0.001523 0.000000
endloop
endfacet
facet normal -0.732480 -0.680789 -0.000111
outer loop
vertex 0.000916 0.001092 0.150000
vertex 0.000850 0.001163 0.150000
vertex 0.000538 0.001523 0.000000
endloop
endfacet
facet normal 0.214310 0.976766 0.000000
outer loop
vertex 0.004317 0.002674 0.000000
vertex 0.004210 0.002698 0.000000
vertex 0.004210 0.002698 0.150000
endloop
endfacet
facet normal 0.214307 0.976766 0.000000
outer loop
vertex 0.004317 0.002674 0.000000
vertex 0.004210 0.002698 0.150000
vertex 0.004317 0.002674 0.150000
endloop
endfacet
facet normal 0.611988 0.790867 0.000000
outer loop
vertex 0.005028 0.002277 0.000000
vertex 0.004879 0.002393 0.000000
vertex 0.004879 0.002393 0.150000
endloop
endfacet
facet normal 0.611986 0.790869 0.000000
outer loop
vertex 0.005028 0.002277 0.000000
vertex 0.004879 0.002393 0.150000
vertex 0.005028 0.002277 0.150000
endloop
endfacet
facet normal 0.991776 0.127987 0.000000
outer loop
vertex 0.005160 0.002066 0.150000
vertex 0.005160 0.002066 0.000000
vertex 0.005154 0.002114 0.000000
endloop
endfacet
facet normal 0.991776 0.127987 0.000000
outer loop
vertex 0.005160 0.002066 0.150000
vertex 0.005154 0.002114 0.000000
vertex 0.005154 0.002114 0.150000
endloop
endfacet
facet normal 0.689236 0.724537 0.000000
outer loop
vertex 0.005090 0.002218 0.150000
vertex 0.005090 0.002218 0.000000
vertex 0.005028 0.002277 0.000000
endloop
endfacet
facet normal 0.689227 0.724545 0.000000
outer loop
vertex 0.005090 0.002218 0.150000
vertex 0.005028 0.002277 0.000000
vertex 0.005028 0.002277 0.150000
endloop
endfacet
facet normal -0.962081 -0.272766 0.000000
outer loop
vertex 0.000014 0.002524 0.150000
vertex 0.000014 0.002524 0.000000
vertex 0.000039 0.002436 0.000000
endloop
endfacet
facet normal -0.962081 -0.272766 0.000000
outer loop
vertex 0.000014 0.002524 0.150000
vertex 0.000039 0.002436 0.000000
vertex 0.000039 0.002436 0.150000
endloop
endfacet
facet normal -0.999750 0.022357 0.000000
outer loop
vertex 0.000003 0.002656 0.150000
vertex 0.000003 0.002656 0.000000
vertex 0.000001 0.002598 0.000000
endloop
endfacet
facet normal -0.999750 0.022357 0.000000
outer loop
vertex 0.000003 0.002656 0.150000
vertex 0.000001 0.002598 0.000000
vertex 0.000001 0.002598 0.150000
endloop
endfacet
endsolid Exported from Blender-3.6.8
