solid Exported from Blender-3.6.8
facet normal 0.457881 -0.889014 0.000000
outer loop
vertex 0.009294 0.000320 0.150000
vertex 0.009294 0.000320 0.000000
vertex 0.009457 0.000404 0.000000
endloop
endfacet
facet normal 0.457884 -0.889012 0.000000
outer loop
vertex 0.009294 0.000320 0.150000
vertex 0.009457 0.000404 0.000000
vertex 0.009457 0.000404 0.150000
endloop
endfacet
facet normal 0.940953 -0.338538 0.000000
outer loop
vertex 0.010195 0.001381 0.150000
vertex 0.010195 0.001381 0.000000
vertex 0.010244 0.001517 0.000000
endloop
endfacet
facet normal 0.940953 -0.338538 0.000000
outer loop
vertex 0.010195 0.001381 0.150000
vertex 0.010244 0.001517 0.000000
vertex 0.010244 0.001517 0.150000
endloop
endfacet
facet normal -0.217275 -0.976110 0.000000
outer loop
vertex 0.006747 0.000108 0.150000
vertex 0.006747 0.000108 0.000000
vertex 0.007104 0.000028 0.000000
endloop
endfacet
facet normal -0.217276 -0.976110 0.000000
outer loop
vertex 0.006747 0.000108 0.150000
vertex 0.007104 0.000028 0.000000
vertex 0.007104 0.000028 0.150000
endloop
endfacet
facet normal -0.371127 -0.928582 0.000000
outer loop
vertex 0.006433 0.000233 0.000000
vertex 0.006747 0.000108 0.000000
vertex 0.006747 0.000108 0.150000
endloop
endfacet
facet normal -0.371126 -0.928582 0.000000
outer loop
vertex 0.006433 0.000233 0.000000
vertex 0.006747 0.000108 0.150000
vertex 0.006433 0.000233 0.150000
endloop
endfacet
facet normal 0.998540 0.054026 0.000000
outer loop
vertex 0.010311 0.002037 0.150000
vertex 0.010311 0.002037 0.000000
vertex 0.010299 0.002260 0.000000
endloop
endfacet
facet normal 0.998540 0.054019 0.000000
outer loop
vertex 0.010311 0.002037 0.150000
vertex 0.010299 0.002260 0.000000
vertex 0.010299 0.002260 0.150000
endloop
endfacet
facet normal -0.022360 0.000000 0.999750
outer loop
vertex 0.000116 0.006379 0.150000
vertex 0.000032 0.006242 0.150000
vertex 0.000000 0.006189 0.150000
endloop
endfacet
facet normal 0.000000 0.000000 1.000000
outer loop
vertex 0.000000 0.006189 0.150000
vertex 0.000126 0.006018 0.150000
vertex 0.000529 0.005521 0.150000
endloop
endfacet
facet normal 0.000256 0.000000 1.000000
outer loop
vertex 0.000529 0.005521 0.150000
vertex 0.001719 0.004171 0.150000
vertex 0.002382 0.003467 0.150000
endloop
endfacet
facet normal 0.000587 0.000000 1.000000
outer loop
vertex 0.002382 0.003467 0.150000
vertex 0.003006 0.002843 0.150000
vertex 0.003285 0.002585 0.150000
endloop
endfacet
facet normal 0.000000 0.000000 1.000000
outer loop
vertex 0.003285 0.002585 0.150000
vertex 0.003771 0.002159 0.150000
vertex 0.003986 0.001977 0.150000
endloop
endfacet
facet normal 0.000000 0.000000 1.000000
outer loop
vertex 0.003986 0.001977 0.150000
vertex 0.004187 0.001813 0.150000
vertex 0.004374 0.001663 0.150000
endloop
endfacet
facet normal 0.001691 0.000000 0.999999
outer loop
vertex 0.004374 0.001663 0.150000
vertex 0.004721 0.001397 0.150000
vertex 0.005045 0.001161 0.150000
endloop
endfacet
facet normal -0.000283 0.000000 1.000000
outer loop
vertex 0.005045 0.001161 0.150000
vertex 0.005997 0.000492 0.150000
vertex 0.006142 0.000397 0.150000
endloop
endfacet
facet normal 0.000242 0.000000 1.000000
outer loop
vertex 0.006142 0.000397 0.150000
vertex 0.006433 0.000233 0.150000
vertex 0.006747 0.000108 0.150000
endloop
endfacet
facet normal 0.000076 0.000000 1.000000
outer loop
vertex 0.006747 0.000108 0.150000
vertex 0.007104 0.000028 0.150000
vertex 0.007530 -0.000000 0.150000
endloop
endfacet
facet normal -0.000063 0.000000 1.000000
outer loop
vertex 0.007530 -0.000000 0.150000
vertex 0.008003 0.000020 0.150000
vertex 0.008239 0.000046 0.150000
endloop
endfacet
facet normal -0.000234 0.000000 1.000000
outer loop
vertex 0.008239 0.000046 0.150000
vertex 0.008472 0.000081 0.150000
vertex 0.008911 0.000181 0.150000
endloop
endfacet
facet normal -0.000191 0.000000 1.000000
outer loop
vertex 0.008911 0.000181 0.150000
vertex 0.009294 0.000320 0.150000
vertex 0.009457 0.000404 0.150000
endloop
endfacet
facet normal 0.000000 0.000000 1.000000
outer loop
vertex 0.009457 0.000404 0.150000
vertex 0.009596 0.000498 0.150000
vertex 0.009709 0.000600 0.150000
endloop
endfacet
facet normal -0.000254 0.000000 1.000000
outer loop
vertex 0.009709 0.000600 0.150000
vertex 0.010137 0.001259 0.150000
vertex 0.010195 0.001381 0.150000
endloop
endfacet
facet normal -0.001526 0.000000 0.999999
outer loop
vertex 0.010195 0.001381 0.150000
vertex 0.010244 0.001517 0.150000
vertex 0.010281 0.001669 0.150000
endloop
endfacet
facet normal 0.000000 0.000000 1.000000
outer loop
vertex 0.010281 0.001669 0.150000
vertex 0.010304 0.001841 0.150000
vertex 0.010311 0.002037 0.150000
endloop
endfacet
facet normal 0.000000 0.000000 1.000000
outer loop
vertex 0.010311 0.002037 0.150000
vertex 0.010299 0.002260 0.150000
vertex 0.010265 0.002515 0.150000
endloop
endfacet
facet normal -0.001398 0.000000 0.999999
outer loop
vertex 0.010265 0.002515 0.150000
vertex 0.010080 0.003647 0.150000
vertex 0.010039 0.003839 0.150000
endloop
endfacet
facet normal 0.000000 0.000000 1.000000
outer loop
vertex 0.010039 0.003839 0.150000
vertex 0.009992 0.004028 0.150000
vertex 0.009795 0.004602 0.150000
endloop
endfacet
facet normal 0.000247 0.000000 1.000000
outer loop
vertex 0.009490 0.005243 0.150000
vertex 0.009152 0.006130 0.150000
vertex 0.009081 0.006272 0.150000
endloop
endfacet
facet normal 0.000191 0.000000 1.000000
outer loop
vertex 0.010039 0.003839 0.150000
vertex 0.009795 0.004602 0.150000
vertex 0.009490 0.005243 0.150000
endloop
endfacet
facet normal -0.000603 0.000000 1.000000
outer loop
vertex 0.010311 0.002037 0.150000
vertex 0.010265 0.002515 0.150000
vertex 0.010039 0.003839 0.150000
endloop
endfacet
facet normal 0.000316 0.000000 1.000000
outer loop
vertex 0.010195 0.001381 0.150000
vertex 0.010281 0.001669 0.150000
vertex 0.010311 0.002037 0.150000
endloop
endfacet
facet normal 0.000000 0.000000 1.000000
outer loop
vertex 0.009457 0.000404 0.150000
vertex 0.009709 0.000600 0.150000
vertex 0.010195 0.001381 0.150000
endloop
endfacet
facet normal 0.000096 0.000000 1.000000
outer loop
vertex 0.008239 0.000046 0.150000
vertex 0.008911 0.000181 0.150000
vertex 0.009457 0.000404 0.150000
endloop
endfacet
facet normal -0.000008 0.000000 1.000000
outer loop
vertex 0.006747 0.000108 0.150000
vertex 0.007530 -0.000000 0.150000
vertex 0.008239 0.000046 0.150000
endloop
endfacet
facet normal 0.000201 0.000000 1.000000
outer loop
vertex 0.005045 0.001161 0.150000
vertex 0.006142 0.000397 0.150000
vertex 0.006747 0.000108 0.150000
endloop
endfacet
facet normal 0.000000 0.000000 1.000000
outer loop
vertex 0.003986 0.001977 0.150000
vertex 0.004374 0.001663 0.150000
vertex 0.005045 0.001161 0.150000
endloop
endfacet
facet normal -0.000209 0.000000 1.000000
outer loop
vertex 0.002382 0.003467 0.150000
vertex 0.003285 0.002585 0.150000
vertex 0.003986 0.001977 0.150000
endloop
endfacet
facet normal 0.000000 0.000000 1.000000
outer loop
vertex 0.000000 0.006189 0.150000
vertex 0.000529 0.005521 0.150000
vertex 0.002382 0.003467 0.150000
endloop
endfacet
facet normal 0.007154 0.000000 0.999974
outer loop
vertex 0.000173 0.006469 0.150000
vertex 0.000116 0.006379 0.150000
vertex 0.000000 0.006189 0.150000
endloop
endfacet
facet normal -0.006693 0.000000 0.999978
outer loop
vertex 0.000308 0.006669 0.150000
vertex 0.000238 0.006567 0.150000
vertex 0.000173 0.006469 0.150000
endloop
endfacet
facet normal 0.001079 0.000000 0.999999
outer loop
vertex 0.000605 0.007034 0.150000
vertex 0.000381 0.006771 0.150000
vertex 0.000308 0.006669 0.150000
endloop
endfacet
facet normal 0.000000 0.000000 1.000000
outer loop
vertex 0.000819 0.007183 0.150000
vertex 0.000673 0.007093 0.150000
vertex 0.000605 0.007034 0.150000
endloop
endfacet
facet normal -0.001472 0.000000 0.999999
outer loop
vertex 0.001082 0.007290 0.150000
vertex 0.000989 0.007257 0.150000
vertex 0.000819 0.007183 0.150000
endloop
endfacet
facet normal -0.004579 0.000000 0.999990
outer loop
vertex 0.001281 0.007352 0.150000
vertex 0.001180 0.007322 0.150000
vertex 0.001082 0.007290 0.150000
endloop
endfacet
facet normal 0.002189 0.000000 0.999998
outer loop
vertex 0.001496 0.007416 0.150000
vertex 0.001281 0.007352 0.150000
vertex 0.001082 0.007290 0.150000
endloop
endfacet
facet normal 0.000000 0.000000 1.000000
outer loop
vertex 0.001082 0.007290 0.150000
vertex 0.000819 0.007183 0.150000
vertex 0.000605 0.007034 0.150000
endloop
endfacet
facet normal -0.000714 0.000000 1.000000
outer loop
vertex 0.000605 0.007034 0.150000
vertex 0.000308 0.006669 0.150000
vertex 0.000173 0.006469 0.150000
endloop
endfacet
facet normal 0.000000 0.000000 1.000000
outer loop
vertex 0.000173 0.006469 0.150000
vertex 0.000000 0.006189 0.150000
vertex 0.002382 0.003467 0.150000
endloop
endfacet
facet normal -0.000109 0.000000 1.000000
outer loop
vertex 0.002382 0.003467 0.150000
vertex 0.003986 0.001977 0.150000
vertex 0.005045 0.001161 0.150000
endloop
endfacet
facet normal -0.000025 0.000000 1.000000
outer loop
vertex 0.005045 0.001161 0.150000
vertex 0.006747 0.000108 0.150000
vertex 0.008239 0.000046 0.150000
endloop
endfacet
facet normal 0.000000 0.000000 1.000000
outer loop
vertex 0.008239 0.000046 0.150000
vertex 0.009457 0.000404 0.150000
vertex 0.010195 0.001381 0.150000
endloop
endfacet
facet normal 0.000151 0.000000 1.000000
outer loop
vertex 0.010195 0.001381 0.150000
vertex 0.010311 0.002037 0.150000
vertex 0.010039 0.003839 0.150000
endloop
endfacet
facet normal 0.000000 0.000000 1.000000
outer loop
vertex 0.010039 0.003839 0.150000
vertex 0.009490 0.005243 0.150000
vertex 0.009081 0.006272 0.150000
endloop
endfacet
facet normal 0.001044 0.000000 0.999999
outer loop
vertex 0.009081 0.006272 0.150000
vertex 0.008996 0.006403 0.150000
vertex 0.008891 0.006524 0.150000
endloop
endfacet
facet normal 0.000000 0.000000 1.000000
outer loop
vertex 0.008891 0.006524 0.150000
vertex 0.008760 0.006636 0.150000
vertex 0.008597 0.006739 0.150000
endloop
endfacet
facet normal 0.000083 0.000000 1.000000
outer loop
vertex 0.008597 0.006739 0.150000
vertex 0.008157 0.006928 0.150000
vertex 0.005732 0.007567 0.150000
endloop
endfacet
facet normal -0.000018 0.000000 1.000000
outer loop
vertex 0.005732 0.007567 0.150000
vertex 0.004168 0.007753 0.150000
vertex 0.003686 0.007757 0.150000
endloop
endfacet
facet normal 0.000000 0.000000 1.000000
outer loop
vertex 0.003686 0.007757 0.150000
vertex 0.003489 0.007745 0.150000
vertex 0.002290 0.007641 0.150000
endloop
endfacet
facet normal 0.000000 0.000000 1.000000
outer loop
vertex 0.002290 0.007641 0.150000
vertex 0.002208 0.007629 0.150000
vertex 0.002126 0.007613 0.150000
endloop
endfacet
facet normal 0.000000 0.000000 1.000000
outer loop
vertex 0.002126 0.007613 0.150000
vertex 0.002040 0.007591 0.150000
vertex 0.001945 0.007562 0.150000
endloop
endfacet
facet normal -0.000705 0.000000 1.000000
outer loop
vertex 0.002126 0.007613 0.150000
vertex 0.001945 0.007562 0.150000
vertex 0.001721 0.007486 0.150000
endloop
endfacet
facet normal 0.000090 0.000000 1.000000
outer loop
vertex 0.003686 0.007757 0.150000
vertex 0.002290 0.007641 0.150000
vertex 0.002126 0.007613 0.150000
endloop
endfacet
facet normal -0.000016 0.000000 1.000000
outer loop
vertex 0.008597 0.006739 0.150000
vertex 0.005732 0.007567 0.150000
vertex 0.003686 0.007757 0.150000
endloop
endfacet
facet normal -0.000219 0.000000 1.000000
outer loop
vertex 0.009081 0.006272 0.150000
vertex 0.008891 0.006524 0.150000
vertex 0.008597 0.006739 0.150000
endloop
endfacet
facet normal -0.000059 0.000000 1.000000
outer loop
vertex 0.010195 0.001381 0.150000
vertex 0.010039 0.003839 0.150000
vertex 0.009081 0.006272 0.150000
endloop
endfacet
facet normal 0.000005 0.000000 1.000000
outer loop
vertex 0.005045 0.001161 0.150000
vertex 0.008239 0.000046 0.150000
vertex 0.010195 0.001381 0.150000
endloop
endfacet
facet normal 0.000020 0.000000 1.000000
outer loop
vertex 0.000173 0.006469 0.150000
vertex 0.002382 0.003467 0.150000
vertex 0.005045 0.001161 0.150000
endloop
endfacet
facet normal 0.000000 0.000000 1.000000
outer loop
vertex 0.001082 0.007290 0.150000
vertex 0.000605 0.007034 0.150000
vertex 0.000173 0.006469 0.150000
endloop
endfacet
facet normal 0.000000 0.000000 1.000000
outer loop
vertex 0.001607 0.007449 0.150000
vertex 0.001496 0.007416 0.150000
vertex 0.001082 0.007290 0.150000
endloop
endfacet
facet normal 0.011256 0.000000 0.999937
outer loop
vertex 0.002126 0.007613 0.150000
vertex 0.001721 0.007486 0.150000
vertex 0.001607 0.007449 0.150000
endloop
endfacet
facet normal 0.000003 0.000000 1.000000
outer loop
vertex 0.008597 0.006739 0.150000
vertex 0.003686 0.007757 0.150000
vertex 0.002126 0.007613 0.150000
endloop
endfacet
facet normal 0.000000 0.000000 1.000000
outer loop
vertex 0.010195 0.001381 0.150000
vertex 0.009081 0.006272 0.150000
vertex 0.008597 0.006739 0.150000
endloop
endfacet
facet normal -0.000005 0.000000 1.000000
outer loop
vertex 0.000173 0.006469 0.150000
vertex 0.005045 0.001161 0.150000
vertex 0.010195 0.001381 0.150000
endloop
endfacet
facet normal 0.000000 0.000000 1.000000
outer loop
vertex 0.001607 0.007449 0.150000
vertex 0.001082 0.007290 0.150000
vertex 0.000173 0.006469 0.150000
endloop
endfacet
facet normal 0.000002 0.000000 1.000000
outer loop
vertex 0.008597 0.006739 0.150000
vertex 0.002126 0.007613 0.150000
vertex 0.001607 0.007449 0.150000
endloop
endfacet
facet normal 0.000005 0.000000 1.000000
outer loop
vertex 0.000173 0.006469 0.150000
vertex 0.010195 0.001381 0.150000
vertex 0.008597 0.006739 0.150000
endloop
endfacet
facet normal 0.000000 0.000000 1.000000
outer loop
vertex 0.008597 0.006739 0.150000
vertex 0.001607 0.007449 0.150000
vertex 0.000173 0.006469 0.150000
endloop
endfacet
facet normal -0.804920 -0.593384 0.000000
outer loop
vertex 0.000000 0.006189 0.150000
vertex 0.000000 0.006189 0.000000
vertex 0.000126 0.006018 0.000000
endloop
endfacet
facet normal -0.804920 -0.593384 0.000000
outer loop
vertex 0.000000 0.006189 0.150000
vertex 0.000126 0.006018 0.000000
vertex 0.000126 0.006018 0.150000
endloop
endfacet
facet normal 0.971490 -0.237080 0.000000
outer loop
vertex 0.010244 0.001517 0.150000
vertex 0.010244 0.001517 0.000000
vertex 0.010281 0.001669 0.000000
endloop
endfacet
facet normal 0.971490 -0.237080 0.000000
outer loop
vertex 0.010244 0.001517 0.150000
vertex 0.010281 0.001669 0.000000
vertex 0.010281 0.001669 0.150000
endloop
endfacet
facet normal 0.673736 -0.738972 0.000000
outer loop
vertex 0.009596 0.000498 0.150000
vertex 0.009596 0.000498 0.000000
vertex 0.009709 0.000600 0.000000
endloop
endfacet
facet normal 0.673731 -0.738977 0.000000
outer loop
vertex 0.009596 0.000498 0.150000
vertex 0.009709 0.000600 0.000000
vertex 0.009709 0.000600 0.150000
endloop
endfacet
facet normal -0.398768 0.917052 0.000000
outer loop
vertex 0.000989 0.007257 0.150000
vertex 0.000989 0.007257 0.000000
vertex 0.000819 0.007183 0.000000
endloop
endfacet
facet normal -0.398768 0.917052 0.000000
outer loop
vertex 0.000989 0.007257 0.150000
vertex 0.000819 0.007183 0.000000
vertex 0.000819 0.007183 0.150000
endloop
endfacet
facet normal -0.654279 0.756253 0.000000
outer loop
vertex 0.000673 0.007093 0.150000
vertex 0.000673 0.007093 0.000000
vertex 0.000605 0.007034 0.000000
endloop
endfacet
facet normal -0.654279 0.756253 0.000000
outer loop
vertex 0.000673 0.007093 0.150000
vertex 0.000605 0.007034 0.000000
vertex 0.000605 0.007034 0.150000
endloop
endfacet
facet normal 0.000000 0.000000 -1.000000
outer loop
vertex 0.001607 0.007449 0.000000
vertex 0.001496 0.007416 0.000000
vertex 0.001281 0.007352 0.000000
endloop
endfacet
facet normal 0.000000 0.000000 -1.000000
outer loop
vertex 0.001721 0.007486 0.000000
vertex 0.001607 0.007449 0.000000
vertex 0.001281 0.007352 0.000000
endloop
endfacet
facet normal 0.000000 0.000000 -1.000000
outer loop
vertex 0.001945 0.007562 0.000000
vertex 0.001721 0.007486 0.000000
vertex 0.001281 0.007352 0.000000
endloop
endfacet
facet normal 0.000000 0.000000 -1.000000
outer loop
vertex 0.001945 0.007562 0.000000
vertex 0.001281 0.007352 0.000000
vertex 0.001180 0.007322 0.000000
endloop
endfacet
facet normal -0.244683 0.969603 0.000000
outer loop
vertex 0.002126 0.007613 0.150000
vertex 0.002126 0.007613 0.000000
vertex 0.002040 0.007591 0.000000
endloop
endfacet
facet normal -0.289202 0.957268 0.000027
outer loop
vertex 0.002126 0.007613 0.150000
vertex 0.002040 0.007591 0.000000
vertex 0.001945 0.007562 0.000000
endloop
endfacet
facet normal -0.244683 0.969603 -0.000030
outer loop
vertex 0.002040 0.007591 0.150000
vertex 0.002126 0.007613 0.150000
vertex 0.001945 0.007562 0.000000
endloop
endfacet
facet normal -0.300172 0.953885 0.000008
outer loop
vertex 0.002040 0.007591 0.150000
vertex 0.001945 0.007562 0.000000
vertex 0.001180 0.007322 0.000000
endloop
endfacet
facet normal -0.289201 0.957268 -0.000061
outer loop
vertex 0.001945 0.007562 0.150000
vertex 0.002040 0.007591 0.150000
vertex 0.001180 0.007322 0.000000
endloop
endfacet
facet normal -0.335880 0.941905 0.000000
outer loop
vertex 0.001082 0.007290 0.000000
vertex 0.000989 0.007257 0.000000
vertex 0.000989 0.007257 0.150000
endloop
endfacet
facet normal -0.308595 0.951194 0.000047
outer loop
vertex 0.001945 0.007562 0.150000
vertex 0.001180 0.007322 0.000000
vertex 0.001082 0.007290 0.000000
endloop
endfacet
facet normal -0.323721 0.946153 0.000144
outer loop
vertex 0.001721 0.007486 0.150000
vertex 0.001945 0.007562 0.150000
vertex 0.001082 0.007290 0.000000
endloop
endfacet
facet normal -0.335880 0.941905 0.000000
outer loop
vertex 0.001082 0.007290 0.000000
vertex 0.000989 0.007257 0.150000
vertex 0.001082 0.007290 0.150000
endloop
endfacet
facet normal -0.308594 0.951194 0.000000
outer loop
vertex 0.001082 0.007290 0.000000
vertex 0.001082 0.007290 0.150000
vertex 0.001180 0.007322 0.150000
endloop
endfacet
facet normal -0.303853 0.952719 0.000050
outer loop
vertex 0.001607 0.007449 0.150000
vertex 0.001721 0.007486 0.150000
vertex 0.001082 0.007290 0.000000
endloop
endfacet
facet normal -0.289824 0.957080 -0.000003
outer loop
vertex 0.001496 0.007416 0.150000
vertex 0.001607 0.007449 0.150000
vertex 0.001082 0.007290 0.000000
endloop
endfacet
facet normal -0.291244 0.956649 -0.000012
outer loop
vertex 0.001082 0.007290 0.000000
vertex 0.001180 0.007322 0.150000
vertex 0.001281 0.007352 0.150000
endloop
endfacet
facet normal -0.282746 0.959195 -0.000025
outer loop
vertex 0.001082 0.007290 0.000000
vertex 0.001281 0.007352 0.150000
vertex 0.001496 0.007416 0.150000
endloop
endfacet
facet normal 0.970514 0.241046 0.000000
outer loop
vertex 0.010039 0.003839 0.000000
vertex 0.009992 0.004028 0.000000
vertex 0.009992 0.004028 0.150000
endloop
endfacet
facet normal 0.970517 0.241031 0.000000
outer loop
vertex 0.010039 0.003839 0.000000
vertex 0.009992 0.004028 0.150000
vertex 0.010039 0.003839 0.150000
endloop
endfacet
facet normal 0.978266 0.207354 0.000000
outer loop
vertex 0.010080 0.003647 0.000000
vertex 0.010039 0.003839 0.000000
vertex 0.010039 0.003839 0.150000
endloop
endfacet
facet normal 0.978269 0.207339 0.000000
outer loop
vertex 0.010080 0.003647 0.000000
vertex 0.010039 0.003839 0.150000
vertex 0.010080 0.003647 0.150000
endloop
endfacet
facet normal 0.991582 0.129480 0.000000
outer loop
vertex 0.010299 0.002260 0.150000
vertex 0.010299 0.002260 0.000000
vertex 0.010265 0.002515 0.000000
endloop
endfacet
facet normal 0.986798 0.161953 0.000000
outer loop
vertex 0.010265 0.002515 0.000000
vertex 0.010080 0.003647 0.000000
vertex 0.010080 0.003647 0.150000
endloop
endfacet
facet normal 0.991584 0.129468 0.000000
outer loop
vertex 0.010265 0.002515 0.150000
vertex 0.010299 0.002260 0.150000
vertex 0.010265 0.002515 0.000000
endloop
endfacet
facet normal 0.986798 0.161953 0.000000
outer loop
vertex 0.010080 0.003647 0.150000
vertex 0.010265 0.002515 0.150000
vertex 0.010265 0.002515 0.000000
endloop
endfacet
facet normal 0.991138 -0.132839 0.000000
outer loop
vertex 0.010281 0.001669 0.150000
vertex 0.010281 0.001669 0.000000
vertex 0.010304 0.001841 0.000000
endloop
endfacet
facet normal 0.991138 -0.132839 0.000000
outer loop
vertex 0.010281 0.001669 0.150000
vertex 0.010304 0.001841 0.000000
vertex 0.010304 0.001841 0.150000
endloop
endfacet
facet normal 0.117525 0.993070 0.000000
outer loop
vertex 0.005732 0.007567 0.000000
vertex 0.004168 0.007753 0.000000
vertex 0.004168 0.007753 0.150000
endloop
endfacet
facet normal 0.117525 0.993070 0.000000
outer loop
vertex 0.005732 0.007567 0.000000
vertex 0.004168 0.007753 0.150000
vertex 0.005732 0.007567 0.150000
endloop
endfacet
facet normal 0.000000 0.000000 1.000000
outer loop
vertex 0.000173 0.006469 0.000000
vertex 0.000116 0.006379 0.000000
vertex 0.000032 0.006242 0.000000
endloop
endfacet
facet normal -0.860367 0.509675 0.000000
outer loop
vertex 0.000032 0.006242 0.000000
vertex 0.000000 0.006189 0.000000
vertex 0.000000 0.006189 0.150000
endloop
endfacet
facet normal -0.860367 0.509675 0.000000
outer loop
vertex 0.000032 0.006242 0.000000
vertex 0.000000 0.006189 0.150000
vertex 0.000032 0.006242 0.150000
endloop
endfacet
facet normal 0.000000 0.000000 1.000000
outer loop
vertex 0.000238 0.006567 0.000000
vertex 0.000173 0.006469 0.000000
vertex 0.000032 0.006242 0.000000
endloop
endfacet
facet normal 0.000000 0.000000 1.000000
outer loop
vertex 0.000381 0.006771 0.000000
vertex 0.000308 0.006669 0.000000
vertex 0.000238 0.006567 0.000000
endloop
endfacet
facet normal -0.810486 0.585758 0.000000
outer loop
vertex 0.000308 0.006669 0.150000
vertex 0.000381 0.006771 0.150000
vertex 0.000381 0.006771 0.000000
endloop
endfacet
facet normal -0.824226 0.566262 -0.000020
outer loop
vertex 0.000238 0.006567 0.150000
vertex 0.000308 0.006669 0.150000
vertex 0.000381 0.006771 0.000000
endloop
endfacet
facet normal 0.000000 0.000000 1.000000
outer loop
vertex 0.000381 0.006771 0.000000
vertex 0.000238 0.006567 0.000000
vertex 0.000032 0.006242 0.000000
endloop
endfacet
facet normal -0.851920 0.523672 0.000000
outer loop
vertex 0.000032 0.006242 0.000000
vertex 0.000032 0.006242 0.150000
vertex 0.000116 0.006379 0.150000
endloop
endfacet
facet normal -0.834693 0.550715 -0.000051
outer loop
vertex 0.000173 0.006469 0.150000
vertex 0.000238 0.006567 0.150000
vertex 0.000381 0.006771 0.000000
endloop
endfacet
facet normal -0.842919 0.538041 -0.000018
outer loop
vertex 0.000032 0.006242 0.000000
vertex 0.000116 0.006379 0.150000
vertex 0.000173 0.006469 0.150000
endloop
endfacet
facet normal -0.833902 0.551913 -0.000048
outer loop
vertex 0.000032 0.006242 0.000000
vertex 0.000173 0.006469 0.150000
vertex 0.000381 0.006771 0.000000
endloop
endfacet
facet normal 0.755238 0.655451 0.000000
outer loop
vertex 0.008996 0.006403 0.150000
vertex 0.008996 0.006403 0.000000
vertex 0.008891 0.006524 0.000000
endloop
endfacet
facet normal 0.755233 0.655456 0.000000
outer loop
vertex 0.008996 0.006403 0.150000
vertex 0.008891 0.006524 0.000000
vertex 0.008891 0.006524 0.150000
endloop
endfacet
facet normal 0.255062 0.966925 0.000000
outer loop
vertex 0.008157 0.006928 0.000000
vertex 0.005732 0.007567 0.000000
vertex 0.005732 0.007567 0.150000
endloop
endfacet
facet normal 0.255062 0.966925 0.000000
outer loop
vertex 0.008157 0.006928 0.000000
vertex 0.005732 0.007567 0.150000
vertex 0.008157 0.006928 0.150000
endloop
endfacet
facet normal 0.649368 0.760475 0.000000
outer loop
vertex 0.008891 0.006524 0.150000
vertex 0.008891 0.006524 0.000000
vertex 0.008760 0.006636 0.000000
endloop
endfacet
facet normal 0.649372 0.760471 0.000000
outer loop
vertex 0.008891 0.006524 0.150000
vertex 0.008760 0.006636 0.000000
vertex 0.008760 0.006636 0.150000
endloop
endfacet
facet normal 0.556440 -0.830888 0.000000
outer loop
vertex 0.009457 0.000404 0.150000
vertex 0.009457 0.000404 0.000000
vertex 0.009596 0.000498 0.000000
endloop
endfacet
facet normal 0.556444 -0.830885 0.000000
outer loop
vertex 0.009457 0.000404 0.150000
vertex 0.009596 0.000498 0.000000
vertex 0.009596 0.000498 0.150000
endloop
endfacet
facet normal -0.065506 -0.997852 0.000000
outer loop
vertex 0.007104 0.000028 0.000000
vertex 0.007530 -0.000000 0.000000
vertex 0.007530 -0.000000 0.150000
endloop
endfacet
facet normal -0.065506 -0.997852 0.000000
outer loop
vertex 0.007104 0.000028 0.000000
vertex 0.007530 -0.000000 0.150000
vertex 0.007104 0.000028 0.150000
endloop
endfacet
facet normal 0.536041 0.844192 0.000000
outer loop
vertex 0.008760 0.006636 0.150000
vertex 0.008760 0.006636 0.000000
vertex 0.008597 0.006739 0.000000
endloop
endfacet
facet normal 0.536033 0.844197 0.000000
outer loop
vertex 0.008760 0.006636 0.150000
vertex 0.008597 0.006739 0.000000
vertex 0.008597 0.006739 0.150000
endloop
endfacet
facet normal 0.894974 0.446119 0.000000
outer loop
vertex 0.009152 0.006130 0.000000
vertex 0.009081 0.006272 0.000000
vertex 0.009081 0.006272 0.150000
endloop
endfacet
facet normal 0.894970 0.446127 0.000000
outer loop
vertex 0.009152 0.006130 0.000000
vertex 0.009081 0.006272 0.150000
vertex 0.009152 0.006130 0.150000
endloop
endfacet
facet normal 0.934431 0.356145 0.000000
outer loop
vertex 0.009490 0.005243 0.000000
vertex 0.009152 0.006130 0.000000
vertex 0.009152 0.006130 0.150000
endloop
endfacet
facet normal 0.934432 0.356142 0.000000
outer loop
vertex 0.009490 0.005243 0.000000
vertex 0.009152 0.006130 0.150000
vertex 0.009490 0.005243 0.150000
endloop
endfacet
facet normal 0.945720 0.324983 0.000000
outer loop
vertex 0.009992 0.004028 0.150000
vertex 0.009992 0.004028 0.000000
vertex 0.009795 0.004602 0.000000
endloop
endfacet
facet normal 0.902987 0.429668 0.000000
outer loop
vertex 0.009795 0.004602 0.000000
vertex 0.009490 0.005243 0.000000
vertex 0.009490 0.005243 0.150000
endloop
endfacet
facet normal 0.945719 0.324985 0.000000
outer loop
vertex 0.009795 0.004602 0.150000
vertex 0.009992 0.004028 0.150000
vertex 0.009795 0.004602 0.000000
endloop
endfacet
facet normal 0.902987 0.429668 0.000000
outer loop
vertex 0.009490 0.005243 0.150000
vertex 0.009795 0.004602 0.150000
vertex 0.009795 0.004602 0.000000
endloop
endfacet
facet normal -0.491440 -0.870911 0.000000
outer loop
vertex 0.006142 0.000397 0.000000
vertex 0.006433 0.000233 0.000000
vertex 0.006433 0.000233 0.150000
endloop
endfacet
facet normal -0.491440 -0.870911 0.000000
outer loop
vertex 0.006142 0.000397 0.000000
vertex 0.006433 0.000233 0.150000
vertex 0.006142 0.000397 0.150000
endloop
endfacet
facet normal 0.341014 -0.940058 0.000000
outer loop
vertex 0.008911 0.000181 0.150000
vertex 0.008911 0.000181 0.000000
vertex 0.009294 0.000320 0.000000
endloop
endfacet
facet normal 0.341014 -0.940058 0.000000
outer loop
vertex 0.008911 0.000181 0.150000
vertex 0.009294 0.000320 0.000000
vertex 0.009294 0.000320 0.150000
endloop
endfacet
facet normal 0.393353 0.919388 0.000000
outer loop
vertex 0.008597 0.006739 0.150000
vertex 0.008597 0.006739 0.000000
vertex 0.008157 0.006928 0.000000
endloop
endfacet
facet normal 0.393351 0.919388 0.000000
outer loop
vertex 0.008597 0.006739 0.150000
vertex 0.008157 0.006928 0.000000
vertex 0.008157 0.006928 0.150000
endloop
endfacet
facet normal 0.009347 0.999956 0.000000
outer loop
vertex 0.003686 0.007757 0.000000
vertex 0.003686 0.007757 0.150000
vertex 0.004168 0.007753 0.150000
endloop
endfacet
facet normal 0.009347 0.999956 0.000000
outer loop
vertex 0.003686 0.007757 0.000000
vertex 0.004168 0.007753 0.150000
vertex 0.004168 0.007753 0.000000
endloop
endfacet
facet normal 0.903893 -0.427758 0.000000
outer loop
vertex 0.010137 0.001259 0.150000
vertex 0.010137 0.001259 0.000000
vertex 0.010195 0.001381 0.000000
endloop
endfacet
facet normal 0.903885 -0.427776 0.000000
outer loop
vertex 0.010137 0.001259 0.150000
vertex 0.010195 0.001381 0.000000
vertex 0.010195 0.001381 0.150000
endloop
endfacet
facet normal 0.150414 -0.988623 0.000000
outer loop
vertex 0.008239 0.000046 0.000000
vertex 0.008472 0.000081 0.000000
vertex 0.008472 0.000081 0.150000
endloop
endfacet
facet normal 0.150416 -0.988623 0.000000
outer loop
vertex 0.008239 0.000046 0.000000
vertex 0.008472 0.000081 0.150000
vertex 0.008239 0.000046 0.150000
endloop
endfacet
facet normal 0.043081 -0.999072 0.000000
outer loop
vertex 0.007530 -0.000000 0.150000
vertex 0.007530 -0.000000 0.000000
vertex 0.008003 0.000020 0.000000
endloop
endfacet
facet normal 0.106593 -0.994303 0.000000
outer loop
vertex 0.008003 0.000020 0.000000
vertex 0.008239 0.000046 0.000000
vertex 0.008239 0.000046 0.150000
endloop
endfacet
facet normal 0.043081 -0.999072 0.000000
outer loop
vertex 0.008003 0.000020 0.150000
vertex 0.007530 -0.000000 0.150000
vertex 0.008003 0.000020 0.000000
endloop
endfacet
facet normal 0.106592 -0.994303 0.000000
outer loop
vertex 0.008003 0.000020 0.000000
vertex 0.008239 0.000046 0.150000
vertex 0.008003 0.000020 0.150000
endloop
endfacet
facet normal -0.523262 0.852172 0.000000
outer loop
vertex 0.000819 0.007183 0.000000
vertex 0.000673 0.007093 0.000000
vertex 0.000673 0.007093 0.150000
endloop
endfacet
facet normal -0.523262 0.852172 0.000000
outer loop
vertex 0.000819 0.007183 0.000000
vertex 0.000673 0.007093 0.150000
vertex 0.000819 0.007183 0.150000
endloop
endfacet
facet normal 0.839011 0.544114 0.000000
outer loop
vertex 0.009081 0.006272 0.150000
vertex 0.009081 0.006272 0.000000
vertex 0.008996 0.006403 0.000000
endloop
endfacet
facet normal 0.839007 0.544121 0.000000
outer loop
vertex 0.009081 0.006272 0.150000
vertex 0.008996 0.006403 0.000000
vertex 0.008996 0.006403 0.150000
endloop
endfacet
facet normal 0.000000 0.000000 1.000000
outer loop
vertex 0.004721 0.001397 0.000000
vertex 0.005045 0.001161 0.000000
vertex 0.005997 0.000492 0.000000
endloop
endfacet
facet normal -0.548776 -0.835969 0.000000
outer loop
vertex 0.005997 0.000492 0.000000
vertex 0.006142 0.000397 0.000000
vertex 0.006142 0.000397 0.150000
endloop
endfacet
facet normal -0.548776 -0.835969 0.000000
outer loop
vertex 0.005997 0.000492 0.000000
vertex 0.006142 0.000397 0.150000
vertex 0.005997 0.000492 0.150000
endloop
endfacet
facet normal 0.000000 0.000000 1.000000
outer loop
vertex 0.004374 0.001663 0.000000
vertex 0.004721 0.001397 0.000000
vertex 0.005997 0.000492 0.000000
endloop
endfacet
facet normal -0.624255 -0.781220 0.000000
outer loop
vertex 0.004187 0.001813 0.150000
vertex 0.004187 0.001813 0.000000
vertex 0.004374 0.001663 0.000000
endloop
endfacet
facet normal -0.624254 -0.781222 0.000000
outer loop
vertex 0.004374 0.001663 0.150000
vertex 0.004187 0.001813 0.150000
vertex 0.004374 0.001663 0.000000
endloop
endfacet
facet normal -0.585012 -0.811025 0.000000
outer loop
vertex 0.004374 0.001663 0.000000
vertex 0.005997 0.000492 0.000000
vertex 0.005997 0.000492 0.150000
endloop
endfacet
facet normal -0.575171 -0.818033 -0.000161
outer loop
vertex 0.004374 0.001663 0.000000
vertex 0.005997 0.000492 0.150000
vertex 0.005045 0.001161 0.150000
endloop
endfacet
facet normal -0.607922 -0.793997 0.000000
outer loop
vertex 0.004721 0.001397 0.150000
vertex 0.004374 0.001663 0.150000
vertex 0.004374 0.001663 0.000000
endloop
endfacet
facet normal -0.588232 -0.808692 -0.000072
outer loop
vertex 0.005045 0.001161 0.150000
vertex 0.004721 0.001397 0.150000
vertex 0.004374 0.001663 0.000000
endloop
endfacet
facet normal 0.000000 0.000000 -1.000000
outer loop
vertex 0.006747 0.000108 0.000000
vertex 0.006433 0.000233 0.000000
vertex 0.006142 0.000397 0.000000
endloop
endfacet
facet normal 0.000000 0.000000 -1.000000
outer loop
vertex 0.006142 0.000397 0.000000
vertex 0.005997 0.000492 0.000000
vertex 0.005045 0.001161 0.000000
endloop
endfacet
facet normal 0.000000 0.000000 -1.000000
outer loop
vertex 0.005045 0.001161 0.000000
vertex 0.004721 0.001397 0.000000
vertex 0.004374 0.001663 0.000000
endloop
endfacet
facet normal 0.000000 0.000000 -1.000000
outer loop
vertex 0.004374 0.001663 0.000000
vertex 0.004187 0.001813 0.000000
vertex 0.003986 0.001977 0.000000
endloop
endfacet
facet normal 0.000000 0.000000 -1.000000
outer loop
vertex 0.003986 0.001977 0.000000
vertex 0.003771 0.002159 0.000000
vertex 0.003285 0.002585 0.000000
endloop
endfacet
facet normal 0.000000 0.000000 -1.000000
outer loop
vertex 0.003285 0.002585 0.000000
vertex 0.003006 0.002843 0.000000
vertex 0.002382 0.003467 0.000000
endloop
endfacet
facet normal 0.000000 0.000000 -1.000000
outer loop
vertex 0.002382 0.003467 0.000000
vertex 0.001719 0.004171 0.000000
vertex 0.000529 0.005521 0.000000
endloop
endfacet
facet normal 0.000000 0.000000 -1.000000
outer loop
vertex 0.000529 0.005521 0.000000
vertex 0.000126 0.006018 0.000000
vertex 0.000000 0.006189 0.000000
endloop
endfacet
facet normal 0.000000 0.000000 -1.000000
outer loop
vertex 0.000000 0.006189 0.000000
vertex 0.000032 0.006242 0.000000
vertex 0.000116 0.006379 0.000000
endloop
endfacet
facet normal 0.000000 0.000000 -1.000000
outer loop
vertex 0.000116 0.006379 0.000000
vertex 0.000173 0.006469 0.000000
vertex 0.000238 0.006567 0.000000
endloop
endfacet
facet normal 0.000000 0.000000 -1.000000
outer loop
vertex 0.000238 0.006567 0.000000
vertex 0.000308 0.006669 0.000000
vertex 0.000381 0.006771 0.000000
endloop
endfacet
facet normal 0.000000 0.000000 -1.000000
outer loop
vertex 0.000381 0.006771 0.000000
vertex 0.000605 0.007034 0.000000
vertex 0.000673 0.007093 0.000000
endloop
endfacet
facet normal 0.000000 0.000000 -1.000000
outer loop
vertex 0.000673 0.007093 0.000000
vertex 0.000819 0.007183 0.000000
vertex 0.000989 0.007257 0.000000
endloop
endfacet
facet normal 0.000000 0.000000 -1.000000
outer loop
vertex 0.000989 0.007257 0.000000
vertex 0.001082 0.007290 0.000000
vertex 0.001180 0.007322 0.000000
endloop
endfacet
facet normal 0.000000 0.000000 -1.000000
outer loop
vertex 0.001180 0.007322 0.000000
vertex 0.001281 0.007352 0.000000
vertex 0.001496 0.007416 0.000000
endloop
endfacet
facet normal 0.000000 0.000000 -1.000000
outer loop
vertex 0.000989 0.007257 0.000000
vertex 0.001180 0.007322 0.000000
vertex 0.001496 0.007416 0.000000
endloop
endfacet
facet normal 0.000000 0.000000 -1.000000
outer loop
vertex 0.000381 0.006771 0.000000
vertex 0.000673 0.007093 0.000000
vertex 0.000989 0.007257 0.000000
endloop
endfacet
facet normal 0.000000 0.000000 -1.000000
outer loop
vertex 0.000116 0.006379 0.000000
vertex 0.000238 0.006567 0.000000
vertex 0.000381 0.006771 0.000000
endloop
endfacet
facet normal 0.000000 0.000000 -1.000000
outer loop
vertex 0.000529 0.005521 0.000000
vertex 0.000000 0.006189 0.000000
vertex 0.000116 0.006379 0.000000
endloop
endfacet
facet normal 0.000000 0.000000 -1.000000
outer loop
vertex 0.003285 0.002585 0.000000
vertex 0.002382 0.003467 0.000000
vertex 0.000529 0.005521 0.000000
endloop
endfacet
facet normal 0.000000 0.000000 -1.000000
outer loop
vertex 0.004374 0.001663 0.000000
vertex 0.003986 0.001977 0.000000
vertex 0.003285 0.002585 0.000000
endloop
endfacet
facet normal 0.000000 0.000000 -1.000000
outer loop
vertex 0.006142 0.000397 0.000000
vertex 0.005045 0.001161 0.000000
vertex 0.004374 0.001663 0.000000
endloop
endfacet
facet normal 0.000000 0.000000 -1.000000
outer loop
vertex 0.007104 0.000028 0.000000
vertex 0.006747 0.000108 0.000000
vertex 0.006142 0.000397 0.000000
endloop
endfacet
facet normal 0.000000 0.000000 -1.000000
outer loop
vertex 0.008003 0.000020 0.000000
vertex 0.007530 -0.000000 0.000000
vertex 0.007104 0.000028 0.000000
endloop
endfacet
facet normal 0.000000 0.000000 -1.000000
outer loop
vertex 0.008472 0.000081 0.000000
vertex 0.008239 0.000046 0.000000
vertex 0.008003 0.000020 0.000000
endloop
endfacet
facet normal 0.000000 0.000000 -1.000000
outer loop
vertex 0.009294 0.000320 0.000000
vertex 0.008911 0.000181 0.000000
vertex 0.008472 0.000081 0.000000
endloop
endfacet
facet normal 0.000000 0.000000 -1.000000
outer loop
vertex 0.009596 0.000498 0.000000
vertex 0.009457 0.000404 0.000000
vertex 0.009294 0.000320 0.000000
endloop
endfacet
facet normal 0.000000 0.000000 -1.000000
outer loop
vertex 0.010137 0.001259 0.000000
vertex 0.009709 0.000600 0.000000
vertex 0.009596 0.000498 0.000000
endloop
endfacet
facet normal 0.000000 0.000000 -1.000000
outer loop
vertex 0.010244 0.001517 0.000000
vertex 0.010195 0.001381 0.000000
vertex 0.010137 0.001259 0.000000
endloop
endfacet
facet normal 0.000000 0.000000 -1.000000
outer loop
vertex 0.010304 0.001841 0.000000
vertex 0.010281 0.001669 0.000000
vertex 0.010244 0.001517 0.000000
endloop
endfacet
facet normal 0.000000 0.000000 -1.000000
outer loop
vertex 0.010299 0.002260 0.000000
vertex 0.010311 0.002037 0.000000
vertex 0.010304 0.001841 0.000000
endloop
endfacet
facet normal 0.000000 0.000000 -1.000000
outer loop
vertex 0.010080 0.003647 0.000000
vertex 0.010265 0.002515 0.000000
vertex 0.010299 0.002260 0.000000
endloop
endfacet
facet normal 0.000000 0.000000 -1.000000
outer loop
vertex 0.009992 0.004028 0.000000
vertex 0.010039 0.003839 0.000000
vertex 0.010080 0.003647 0.000000
endloop
endfacet
facet normal 0.000000 0.000000 -1.000000
outer loop
vertex 0.009490 0.005243 0.000000
vertex 0.009795 0.004602 0.000000
vertex 0.009992 0.004028 0.000000
endloop
endfacet
facet normal 0.000000 0.000000 -1.000000
outer loop
vertex 0.009081 0.006272 0.000000
vertex 0.009152 0.006130 0.000000
vertex 0.009490 0.005243 0.000000
endloop
endfacet
facet normal 0.000000 0.000000 -1.000000
outer loop
vertex 0.008891 0.006524 0.000000
vertex 0.008996 0.006403 0.000000
vertex 0.009081 0.006272 0.000000
endloop
endfacet
facet normal 0.000000 0.000000 -1.000000
outer loop
vertex 0.008597 0.006739 0.000000
vertex 0.008760 0.006636 0.000000
vertex 0.008891 0.006524 0.000000
endloop
endfacet
facet normal 0.000000 0.000000 -1.000000
outer loop
vertex 0.005732 0.007567 0.000000
vertex 0.008157 0.006928 0.000000
vertex 0.008597 0.006739 0.000000
endloop
endfacet
facet normal 0.000000 0.000000 -1.000000
outer loop
vertex 0.003686 0.007757 0.000000
vertex 0.004168 0.007753 0.000000
vertex 0.005732 0.007567 0.000000
endloop
endfacet
facet normal 0.000000 0.000000 -1.000000
outer loop
vertex 0.002290 0.007641 0.000000
vertex 0.003489 0.007745 0.000000
vertex 0.003686 0.007757 0.000000
endloop
endfacet
facet normal 0.000000 0.000000 -1.000000
outer loop
vertex 0.002126 0.007613 0.000000
vertex 0.002208 0.007629 0.000000
vertex 0.002290 0.007641 0.000000
endloop
endfacet
facet normal 0.000000 0.000000 -1.000000
outer loop
vertex 0.001945 0.007562 0.000000
vertex 0.002040 0.007591 0.000000
vertex 0.002126 0.007613 0.000000
endloop
endfacet
facet normal 0.000000 0.000000 -1.000000
outer loop
vertex 0.001721 0.007486 0.000000
vertex 0.001945 0.007562 0.000000
vertex 0.002126 0.007613 0.000000
endloop
endfacet
facet normal 0.000000 0.000000 -1.000000
outer loop
vertex 0.002126 0.007613 0.000000
vertex 0.002290 0.007641 0.000000
vertex 0.003686 0.007757 0.000000
endloop
endfacet
facet normal 0.000000 0.000000 -1.000000
outer loop
vertex 0.003686 0.007757 0.000000
vertex 0.005732 0.007567 0.000000
vertex 0.008597 0.006739 0.000000
endloop
endfacet
facet normal 0.000000 0.000000 -1.000000
outer loop
vertex 0.008597 0.006739 0.000000
vertex 0.008891 0.006524 0.000000
vertex 0.009081 0.006272 0.000000
endloop
endfacet
facet normal 0.000000 0.000000 -1.000000
outer loop
vertex 0.009490 0.005243 0.000000
vertex 0.009992 0.004028 0.000000
vertex 0.010080 0.003647 0.000000
endloop
endfacet
facet normal 0.000000 0.000000 -1.000000
outer loop
vertex 0.008597 0.006739 0.000000
vertex 0.009081 0.006272 0.000000
vertex 0.009490 0.005243 0.000000
endloop
endfacet
facet normal 0.000000 0.000000 -1.000000
outer loop
vertex 0.002126 0.007613 0.000000
vertex 0.003686 0.007757 0.000000
vertex 0.008597 0.006739 0.000000
endloop
endfacet
facet normal 0.000000 0.000000 -1.000000
outer loop
vertex 0.001607 0.007449 0.000000
vertex 0.001721 0.007486 0.000000
vertex 0.002126 0.007613 0.000000
endloop
endfacet
facet normal 0.000000 0.000000 -1.000000
outer loop
vertex 0.000989 0.007257 0.000000
vertex 0.001496 0.007416 0.000000
vertex 0.001607 0.007449 0.000000
endloop
endfacet
facet normal 0.000000 0.000000 -1.000000
outer loop
vertex 0.000116 0.006379 0.000000
vertex 0.000381 0.006771 0.000000
vertex 0.000989 0.007257 0.000000
endloop
endfacet
facet normal 0.000000 0.000000 -1.000000
outer loop
vertex 0.003285 0.002585 0.000000
vertex 0.000529 0.005521 0.000000
vertex 0.000116 0.006379 0.000000
endloop
endfacet
facet normal 0.000000 0.000000 -1.000000
outer loop
vertex 0.006142 0.000397 0.000000
vertex 0.004374 0.001663 0.000000
vertex 0.003285 0.002585 0.000000
endloop
endfacet
facet normal 0.000000 0.000000 -1.000000
outer loop
vertex 0.008003 0.000020 0.000000
vertex 0.007104 0.000028 0.000000
vertex 0.006142 0.000397 0.000000
endloop
endfacet
facet normal 0.000000 0.000000 -1.000000
outer loop
vertex 0.009294 0.000320 0.000000
vertex 0.008472 0.000081 0.000000
vertex 0.008003 0.000020 0.000000
endloop
endfacet
facet normal 0.000000 0.000000 -1.000000
outer loop
vertex 0.010137 0.001259 0.000000
vertex 0.009596 0.000498 0.000000
vertex 0.009294 0.000320 0.000000
endloop
endfacet
facet normal 0.000000 0.000000 -1.000000
outer loop
vertex 0.010304 0.001841 0.000000
vertex 0.010244 0.001517 0.000000
vertex 0.010137 0.001259 0.000000
endloop
endfacet
facet normal 0.000000 0.000000 -1.000000
outer loop
vertex 0.010080 0.003647 0.000000
vertex 0.010299 0.002260 0.000000
vertex 0.010304 0.001841 0.000000
endloop
endfacet
facet normal 0.000000 0.000000 -1.000000
outer loop
vertex 0.008597 0.006739 0.000000
vertex 0.009490 0.005243 0.000000
vertex 0.010080 0.003647 0.000000
endloop
endfacet
facet normal 0.000000 0.000000 -1.000000
outer loop
vertex 0.001607 0.007449 0.000000
vertex 0.002126 0.007613 0.000000
vertex 0.008597 0.006739 0.000000
endloop
endfacet
facet normal 0.000000 0.000000 -1.000000
outer loop
vertex 0.000116 0.006379 0.000000
vertex 0.000989 0.007257 0.000000
vertex 0.001607 0.007449 0.000000
endloop
endfacet
facet normal 0.000000 0.000000 -1.000000
outer loop
vertex 0.006142 0.000397 0.000000
vertex 0.003285 0.002585 0.000000
vertex 0.000116 0.006379 0.000000
endloop
endfacet
facet normal 0.000000 0.000000 -1.000000
outer loop
vertex 0.009294 0.000320 0.000000
vertex 0.008003 0.000020 0.000000
vertex 0.006142 0.000397 0.000000
endloop
endfacet
facet normal 0.000000 0.000000 -1.000000
outer loop
vertex 0.010304 0.001841 0.000000
vertex 0.010137 0.001259 0.000000
vertex 0.009294 0.000320 0.000000
endloop
endfacet
facet normal 0.000000 0.000000 -1.000000
outer loop
vertex 0.008597 0.006739 0.000000
vertex 0.010080 0.003647 0.000000
vertex 0.010304 0.001841 0.000000
endloop
endfacet
facet normal 0.000000 0.000000 -1.000000
outer loop
vertex 0.000116 0.006379 0.000000
vertex 0.001607 0.007449 0.000000
vertex 0.008597 0.006739 0.000000
endloop
endfacet
facet normal 0.000000 0.000000 -1.000000
outer loop
vertex 0.009294 0.000320 0.000000
vertex 0.006142 0.000397 0.000000
vertex 0.000116 0.006379 0.000000
endloop
endfacet
facet normal 0.000000 0.000000 -1.000000
outer loop
vertex 0.008597 0.006739 0.000000
vertex 0.010304 0.001841 0.000000
vertex 0.009294 0.000320 0.000000
endloop
endfacet
facet normal 0.000000 0.000000 -1.000000
outer loop
vertex 0.000116 0.006379 0.000000
vertex 0.008597 0.006739 0.000000
vertex 0.009294 0.000320 0.000000
endloop
endfacet
facet normal -0.762565 0.646912 0.000000
outer loop
vertex 0.000605 0.007034 0.000000
vertex 0.000381 0.006771 0.000000
vertex 0.000381 0.006771 0.150000
endloop
endfacet
facet normal -0.762565 0.646912 0.000000
outer loop
vertex 0.000605 0.007034 0.000000
vertex 0.000381 0.006771 0.150000
vertex 0.000605 0.007034 0.150000
endloop
endfacet
facet normal -0.193688 0.981063 0.000000
outer loop
vertex 0.002208 0.007629 0.000000
vertex 0.002126 0.007613 0.000000
vertex 0.002126 0.007613 0.150000
endloop
endfacet
facet normal -0.193690 0.981063 0.000000
outer loop
vertex 0.002208 0.007629 0.000000
vertex 0.002126 0.007613 0.150000
vertex 0.002208 0.007629 0.150000
endloop
endfacet
facet normal -0.144276 0.989537 0.000000
outer loop
vertex 0.002290 0.007641 0.000000
vertex 0.002208 0.007629 0.000000
vertex 0.002208 0.007629 0.150000
endloop
endfacet
facet normal -0.144276 0.989537 0.000000
outer loop
vertex 0.002290 0.007641 0.000000
vertex 0.002208 0.007629 0.150000
vertex 0.002290 0.007641 0.150000
endloop
endfacet
facet normal -0.059605 0.998222 0.000000
outer loop
vertex 0.003686 0.007757 0.150000
vertex 0.003686 0.007757 0.000000
vertex 0.003489 0.007745 0.000000
endloop
endfacet
facet normal -0.086704 0.996234 0.000000
outer loop
vertex 0.003489 0.007745 0.000000
vertex 0.002290 0.007641 0.000000
vertex 0.002290 0.007641 0.150000
endloop
endfacet
facet normal -0.059605 0.998222 0.000000
outer loop
vertex 0.003489 0.007745 0.150000
vertex 0.003686 0.007757 0.150000
vertex 0.003489 0.007745 0.000000
endloop
endfacet
facet normal -0.086704 0.996234 0.000000
outer loop
vertex 0.002290 0.007641 0.150000
vertex 0.003489 0.007745 0.150000
vertex 0.003489 0.007745 0.000000
endloop
endfacet
facet normal 0.838199 -0.545364 0.000000
outer loop
vertex 0.009709 0.000600 0.000000
vertex 0.010137 0.001259 0.000000
vertex 0.010137 0.001259 0.150000
endloop
endfacet
facet normal 0.838200 -0.545363 0.000000
outer loop
vertex 0.009709 0.000600 0.000000
vertex 0.010137 0.001259 0.150000
vertex 0.009709 0.000600 0.150000
endloop
endfacet
facet normal 0.222672 -0.974893 0.000000
outer loop
vertex 0.008911 0.000181 0.000000
vertex 0.008911 0.000181 0.150000
vertex 0.008472 0.000081 0.150000
endloop
endfacet
facet normal 0.222671 -0.974894 0.000000
outer loop
vertex 0.008911 0.000181 0.000000
vertex 0.008472 0.000081 0.150000
vertex 0.008472 0.000081 0.000000
endloop
endfacet
facet normal -0.635060 -0.772462 0.000000
outer loop
vertex 0.003986 0.001977 0.000000
vertex 0.004187 0.001813 0.000000
vertex 0.004187 0.001813 0.150000
endloop
endfacet
facet normal -0.635063 -0.772460 0.000000
outer loop
vertex 0.003986 0.001977 0.000000
vertex 0.004187 0.001813 0.150000
vertex 0.003986 0.001977 0.150000
endloop
endfacet
facet normal -0.645242 -0.763978 0.000000
outer loop
vertex 0.003771 0.002159 0.000000
vertex 0.003986 0.001977 0.000000
vertex 0.003986 0.001977 0.150000
endloop
endfacet
facet normal -0.645242 -0.763978 0.000000
outer loop
vertex 0.003771 0.002159 0.000000
vertex 0.003986 0.001977 0.150000
vertex 0.003771 0.002159 0.150000
endloop
endfacet
facet normal -0.679812 -0.733386 0.000000
outer loop
vertex 0.003006 0.002843 0.150000
vertex 0.003006 0.002843 0.000000
vertex 0.003285 0.002585 0.000000
endloop
endfacet
facet normal -0.658986 -0.752155 0.000000
outer loop
vertex 0.003285 0.002585 0.000000
vertex 0.003771 0.002159 0.000000
vertex 0.003771 0.002159 0.150000
endloop
endfacet
facet normal -0.679812 -0.733387 0.000000
outer loop
vertex 0.003285 0.002585 0.150000
vertex 0.003006 0.002843 0.150000
vertex 0.003285 0.002585 0.000000
endloop
endfacet
facet normal -0.658986 -0.752155 0.000000
outer loop
vertex 0.003771 0.002159 0.150000
vertex 0.003285 0.002585 0.150000
vertex 0.003285 0.002585 0.000000
endloop
endfacet
facet normal -0.706465 -0.707748 0.000000
outer loop
vertex 0.002382 0.003467 0.000000
vertex 0.003006 0.002843 0.000000
vertex 0.003006 0.002843 0.150000
endloop
endfacet
facet normal -0.706465 -0.707748 0.000000
outer loop
vertex 0.002382 0.003467 0.000000
vertex 0.003006 0.002843 0.150000
vertex 0.002382 0.003467 0.150000
endloop
endfacet
facet normal -0.728140 -0.685429 0.000000
outer loop
vertex 0.001719 0.004171 0.000000
vertex 0.002382 0.003467 0.000000
vertex 0.002382 0.003467 0.150000
endloop
endfacet
facet normal -0.728140 -0.685429 0.000000
outer loop
vertex 0.001719 0.004171 0.000000
vertex 0.002382 0.003467 0.150000
vertex 0.001719 0.004171 0.150000
endloop
endfacet
facet normal -0.776707 -0.629862 0.000000
outer loop
vertex 0.000126 0.006018 0.150000
vertex 0.000126 0.006018 0.000000
vertex 0.000529 0.005521 0.000000
endloop
endfacet
facet normal -0.750187 -0.661226 0.000000
outer loop
vertex 0.000529 0.005521 0.000000
vertex 0.001719 0.004171 0.000000
vertex 0.001719 0.004171 0.150000
endloop
endfacet
facet normal -0.776707 -0.629862 0.000000
outer loop
vertex 0.000529 0.005521 0.150000
vertex 0.000126 0.006018 0.150000
vertex 0.000529 0.005521 0.000000
endloop
endfacet
facet normal -0.750187 -0.661226 0.000000
outer loop
vertex 0.001719 0.004171 0.150000
vertex 0.000529 0.005521 0.150000
vertex 0.000529 0.005521 0.000000
endloop
endfacet
facet normal 0.999419 -0.034077 0.000000
outer loop
vertex 0.010304 0.001841 0.150000
vertex 0.010304 0.001841 0.000000
vertex 0.010311 0.002037 0.000000
endloop
endfacet
facet normal 0.999420 -0.034069 0.000000
outer loop
vertex 0.010304 0.001841 0.150000
vertex 0.010311 0.002037 0.000000
vertex 0.010311 0.002037 0.150000
endloop
endfacet
endsolid Exported from Blender-3.6.8
