solid Exported from Blender-3.6.8
facet normal 0.000000 0.000000 -1.000000
outer loop
vertex 0.002131 0.010647 0.000000
vertex 0.002986 0.010407 0.000000
vertex 0.003237 0.010318 0.000000
endloop
endfacet
facet normal 0.000000 0.000000 -1.000000
outer loop
vertex 0.003237 0.010318 0.000000
vertex 0.003494 0.010219 0.000000
vertex 0.003753 0.010112 0.000000
endloop
endfacet
facet normal 0.000000 0.000000 -1.000000
outer loop
vertex 0.003753 0.010112 0.000000
vertex 0.004010 0.009998 0.000000
vertex 0.004730 0.009625 0.000000
endloop
endfacet
facet normal 0.000000 0.000000 -1.000000
outer loop
vertex 0.004730 0.009625 0.000000
vertex 0.005107 0.009360 0.000000
vertex 0.005257 0.009222 0.000000
endloop
endfacet
facet normal 0.000000 0.000000 -1.000000
outer loop
vertex 0.005257 0.009222 0.000000
vertex 0.005386 0.009079 0.000000
vertex 0.005499 0.008929 0.000000
endloop
endfacet
facet normal 0.000000 0.000000 -1.000000
outer loop
vertex 0.005499 0.008929 0.000000
vertex 0.005693 0.008605 0.000000
vertex 0.005782 0.008430 0.000000
endloop
endfacet
facet normal 0.000000 0.000000 -1.000000
outer loop
vertex 0.006066 0.007833 0.000000
vertex 0.006180 0.007607 0.000000
vertex 0.006285 0.007372 0.000000
endloop
endfacet
facet normal 0.000000 0.000000 -1.000000
outer loop
vertex 0.005499 0.008929 0.000000
vertex 0.005782 0.008430 0.000000
vertex 0.006066 0.007833 0.000000
endloop
endfacet
facet normal 0.000000 0.000000 -1.000000
outer loop
vertex 0.004730 0.009625 0.000000
vertex 0.005257 0.009222 0.000000
vertex 0.005499 0.008929 0.000000
endloop
endfacet
facet normal 0.000000 0.000000 -1.000000
outer loop
vertex 0.003237 0.010318 0.000000
vertex 0.003753 0.010112 0.000000
vertex 0.004730 0.009625 0.000000
endloop
endfacet
facet normal 0.000000 0.000000 -1.000000
outer loop
vertex 0.001084 0.010805 0.000000
vertex 0.002131 0.010647 0.000000
vertex 0.003237 0.010318 0.000000
endloop
endfacet
facet normal 0.000000 0.000000 -1.000000
outer loop
vertex 0.000814 0.010824 0.000000
vertex 0.000945 0.010818 0.000000
vertex 0.001084 0.010805 0.000000
endloop
endfacet
facet normal 0.000000 0.000000 -1.000000
outer loop
vertex 0.000586 0.010807 0.000000
vertex 0.000694 0.010821 0.000000
vertex 0.000814 0.010824 0.000000
endloop
endfacet
facet normal 0.000000 0.000000 -1.000000
outer loop
vertex 0.000418 0.010738 0.000000
vertex 0.000493 0.010780 0.000000
vertex 0.000586 0.010807 0.000000
endloop
endfacet
facet normal 0.000000 0.000000 -1.000000
outer loop
vertex 0.000294 0.010563 0.000000
vertex 0.000353 0.010668 0.000000
vertex 0.000418 0.010738 0.000000
endloop
endfacet
facet normal 0.000000 0.000000 -1.000000
outer loop
vertex 0.000000 0.009310 0.000000
vertex 0.000191 0.010279 0.000000
vertex 0.000294 0.010563 0.000000
endloop
endfacet
facet normal 0.000000 0.000000 -1.000000
outer loop
vertex 0.000038 0.005584 0.000000
vertex 0.000025 0.006518 0.000000
vertex 0.000000 0.009310 0.000000
endloop
endfacet
facet normal 0.000000 0.000000 -1.000000
outer loop
vertex 0.000074 0.003735 0.000000
vertex 0.000054 0.004640 0.000000
vertex 0.000038 0.005584 0.000000
endloop
endfacet
facet normal 0.000000 0.000000 -1.000000
outer loop
vertex 0.000127 0.002238 0.000000
vertex 0.000098 0.002918 0.000000
vertex 0.000074 0.003735 0.000000
endloop
endfacet
facet normal 0.000000 0.000000 -1.000000
outer loop
vertex 0.000200 0.001486 0.000000
vertex 0.000161 0.001744 0.000000
vertex 0.000127 0.002238 0.000000
endloop
endfacet
facet normal 0.000000 0.000000 -1.000000
outer loop
vertex 0.000281 0.001258 0.000000
vertex 0.000241 0.001367 0.000000
vertex 0.000200 0.001486 0.000000
endloop
endfacet
facet normal 0.000000 0.000000 -1.000000
outer loop
vertex 0.000364 0.001065 0.000000
vertex 0.000322 0.001157 0.000000
vertex 0.000281 0.001258 0.000000
endloop
endfacet
facet normal 0.000000 0.000000 -1.000000
outer loop
vertex 0.000557 0.000755 0.000000
vertex 0.000454 0.000901 0.000000
vertex 0.000364 0.001065 0.000000
endloop
endfacet
facet normal 0.000000 0.000000 -1.000000
outer loop
vertex 0.000753 0.000555 0.000000
vertex 0.000681 0.000621 0.000000
vertex 0.000557 0.000755 0.000000
endloop
endfacet
facet normal 0.000000 0.000000 -1.000000
outer loop
vertex 0.000914 0.000422 0.000000
vertex 0.000832 0.000489 0.000000
vertex 0.000753 0.000555 0.000000
endloop
endfacet
facet normal 0.000000 0.000000 -1.000000
outer loop
vertex 0.001072 0.000288 0.000000
vertex 0.000993 0.000354 0.000000
vertex 0.000914 0.000422 0.000000
endloop
endfacet
facet normal 0.000000 0.000000 -1.000000
outer loop
vertex 0.001328 0.000115 0.000000
vertex 0.001153 0.000225 0.000000
vertex 0.001072 0.000288 0.000000
endloop
endfacet
facet normal 0.000000 0.000000 -1.000000
outer loop
vertex 0.001534 0.000035 0.000000
vertex 0.001426 0.000070 0.000000
vertex 0.001328 0.000115 0.000000
endloop
endfacet
facet normal 0.000000 0.000000 -1.000000
outer loop
vertex 0.001785 0.000001 0.000000
vertex 0.001653 0.000012 0.000000
vertex 0.001534 0.000035 0.000000
endloop
endfacet
facet normal 0.000000 0.000000 -1.000000
outer loop
vertex 0.002096 0.000023 0.000000
vertex 0.001932 0.000004 0.000000
vertex 0.001785 0.000001 0.000000
endloop
endfacet
facet normal 0.000000 0.000000 -1.000000
outer loop
vertex 0.002810 0.000250 0.000000
vertex 0.002450 0.000111 0.000000
vertex 0.002096 0.000023 0.000000
endloop
endfacet
facet normal 0.000000 0.000000 -1.000000
outer loop
vertex 0.004990 0.001444 0.000000
vertex 0.004884 0.001371 0.000000
vertex 0.002810 0.000250 0.000000
endloop
endfacet
facet normal 0.000000 0.000000 -1.000000
outer loop
vertex 0.005192 0.001634 0.000000
vertex 0.005093 0.001530 0.000000
vertex 0.004990 0.001444 0.000000
endloop
endfacet
facet normal 0.000000 0.000000 -1.000000
outer loop
vertex 0.005384 0.001909 0.000000
vertex 0.005289 0.001759 0.000000
vertex 0.005192 0.001634 0.000000
endloop
endfacet
facet normal 0.000000 0.000000 -1.000000
outer loop
vertex 0.005907 0.002980 0.000000
vertex 0.005829 0.002807 0.000000
vertex 0.005384 0.001909 0.000000
endloop
endfacet
facet normal 0.000000 0.000000 -1.000000
outer loop
vertex 0.006105 0.003542 0.000000
vertex 0.005980 0.003159 0.000000
vertex 0.005907 0.002980 0.000000
endloop
endfacet
facet normal 0.000000 0.000000 -1.000000
outer loop
vertex 0.006231 0.004235 0.000000
vertex 0.006199 0.003984 0.000000
vertex 0.006105 0.003542 0.000000
endloop
endfacet
facet normal 0.000000 0.000000 -1.000000
outer loop
vertex 0.006276 0.004798 0.000000
vertex 0.006254 0.004511 0.000000
vertex 0.006231 0.004235 0.000000
endloop
endfacet
facet normal 0.000000 0.000000 -1.000000
outer loop
vertex 0.006276 0.004798 0.000000
vertex 0.006231 0.004235 0.000000
vertex 0.006105 0.003542 0.000000
endloop
endfacet
facet normal 0.000000 0.000000 -1.000000
outer loop
vertex 0.006105 0.003542 0.000000
vertex 0.005907 0.002980 0.000000
vertex 0.005384 0.001909 0.000000
endloop
endfacet
facet normal 0.000000 0.000000 -1.000000
outer loop
vertex 0.005384 0.001909 0.000000
vertex 0.005192 0.001634 0.000000
vertex 0.004990 0.001444 0.000000
endloop
endfacet
facet normal 0.000000 0.000000 -1.000000
outer loop
vertex 0.004990 0.001444 0.000000
vertex 0.002810 0.000250 0.000000
vertex 0.002096 0.000023 0.000000
endloop
endfacet
facet normal 0.000000 0.000000 -1.000000
outer loop
vertex 0.002096 0.000023 0.000000
vertex 0.001785 0.000001 0.000000
vertex 0.001534 0.000035 0.000000
endloop
endfacet
facet normal 0.000000 0.000000 -1.000000
outer loop
vertex 0.001534 0.000035 0.000000
vertex 0.001328 0.000115 0.000000
vertex 0.001072 0.000288 0.000000
endloop
endfacet
facet normal 0.000000 0.000000 -1.000000
outer loop
vertex 0.000914 0.000422 0.000000
vertex 0.000753 0.000555 0.000000
vertex 0.000557 0.000755 0.000000
endloop
endfacet
facet normal 0.000000 0.000000 -1.000000
outer loop
vertex 0.001534 0.000035 0.000000
vertex 0.001072 0.000288 0.000000
vertex 0.000914 0.000422 0.000000
endloop
endfacet
facet normal 0.000000 0.000000 -1.000000
outer loop
vertex 0.004990 0.001444 0.000000
vertex 0.002096 0.000023 0.000000
vertex 0.001534 0.000035 0.000000
endloop
endfacet
facet normal 0.000000 0.000000 -1.000000
outer loop
vertex 0.006105 0.003542 0.000000
vertex 0.005384 0.001909 0.000000
vertex 0.004990 0.001444 0.000000
endloop
endfacet
facet normal 0.000000 0.000000 -1.000000
outer loop
vertex 0.006305 0.005078 0.000000
vertex 0.006276 0.004798 0.000000
vertex 0.006105 0.003542 0.000000
endloop
endfacet
facet normal 0.000000 0.000000 -1.000000
outer loop
vertex 0.006402 0.005885 0.000000
vertex 0.006372 0.005621 0.000000
vertex 0.006339 0.005352 0.000000
endloop
endfacet
facet normal 0.000000 0.000000 -1.000000
outer loop
vertex 0.006339 0.005352 0.000000
vertex 0.006305 0.005078 0.000000
vertex 0.006105 0.003542 0.000000
endloop
endfacet
facet normal 0.000000 0.000000 -1.000000
outer loop
vertex 0.006105 0.003542 0.000000
vertex 0.004990 0.001444 0.000000
vertex 0.001534 0.000035 0.000000
endloop
endfacet
facet normal 0.000000 0.000000 -1.000000
outer loop
vertex 0.001534 0.000035 0.000000
vertex 0.000914 0.000422 0.000000
vertex 0.000557 0.000755 0.000000
endloop
endfacet
facet normal 0.000000 0.000000 -1.000000
outer loop
vertex 0.000557 0.000755 0.000000
vertex 0.000364 0.001065 0.000000
vertex 0.000281 0.001258 0.000000
endloop
endfacet
facet normal 0.000000 0.000000 -1.000000
outer loop
vertex 0.000281 0.001258 0.000000
vertex 0.000200 0.001486 0.000000
vertex 0.000127 0.002238 0.000000
endloop
endfacet
facet normal 0.000000 0.000000 -1.000000
outer loop
vertex 0.000127 0.002238 0.000000
vertex 0.000074 0.003735 0.000000
vertex 0.000038 0.005584 0.000000
endloop
endfacet
facet normal 0.000000 0.000000 -1.000000
outer loop
vertex 0.000038 0.005584 0.000000
vertex 0.000000 0.009310 0.000000
vertex 0.000294 0.010563 0.000000
endloop
endfacet
facet normal 0.000000 0.000000 -1.000000
outer loop
vertex 0.000294 0.010563 0.000000
vertex 0.000418 0.010738 0.000000
vertex 0.000586 0.010807 0.000000
endloop
endfacet
facet normal 0.000000 0.000000 -1.000000
outer loop
vertex 0.000586 0.010807 0.000000
vertex 0.000814 0.010824 0.000000
vertex 0.001084 0.010805 0.000000
endloop
endfacet
facet normal 0.000000 0.000000 -1.000000
outer loop
vertex 0.001084 0.010805 0.000000
vertex 0.003237 0.010318 0.000000
vertex 0.004730 0.009625 0.000000
endloop
endfacet
facet normal 0.000000 0.000000 -1.000000
outer loop
vertex 0.004730 0.009625 0.000000
vertex 0.005499 0.008929 0.000000
vertex 0.006066 0.007833 0.000000
endloop
endfacet
facet normal 0.000000 0.000000 -1.000000
outer loop
vertex 0.006066 0.007833 0.000000
vertex 0.006285 0.007372 0.000000
vertex 0.006359 0.007134 0.000000
endloop
endfacet
facet normal 0.000000 0.000000 -1.000000
outer loop
vertex 0.006359 0.007134 0.000000
vertex 0.006406 0.006892 0.000000
vertex 0.006430 0.006647 0.000000
endloop
endfacet
facet normal 0.000000 0.000000 -1.000000
outer loop
vertex 0.006430 0.006647 0.000000
vertex 0.006424 0.006144 0.000000
vertex 0.006402 0.005885 0.000000
endloop
endfacet
facet normal 0.000000 0.000000 -1.000000
outer loop
vertex 0.006402 0.005885 0.000000
vertex 0.006339 0.005352 0.000000
vertex 0.006105 0.003542 0.000000
endloop
endfacet
facet normal 0.000000 0.000000 -1.000000
outer loop
vertex 0.006105 0.003542 0.000000
vertex 0.001534 0.000035 0.000000
vertex 0.000557 0.000755 0.000000
endloop
endfacet
facet normal 0.000000 0.000000 -1.000000
outer loop
vertex 0.000557 0.000755 0.000000
vertex 0.000281 0.001258 0.000000
vertex 0.000127 0.002238 0.000000
endloop
endfacet
facet normal 0.000000 0.000000 -1.000000
outer loop
vertex 0.000127 0.002238 0.000000
vertex 0.000038 0.005584 0.000000
vertex 0.000294 0.010563 0.000000
endloop
endfacet
facet normal 0.000000 0.000000 -1.000000
outer loop
vertex 0.000294 0.010563 0.000000
vertex 0.000586 0.010807 0.000000
vertex 0.001084 0.010805 0.000000
endloop
endfacet
facet normal 0.000000 0.000000 -1.000000
outer loop
vertex 0.001084 0.010805 0.000000
vertex 0.004730 0.009625 0.000000
vertex 0.006066 0.007833 0.000000
endloop
endfacet
facet normal 0.000000 0.000000 -1.000000
outer loop
vertex 0.006066 0.007833 0.000000
vertex 0.006359 0.007134 0.000000
vertex 0.006430 0.006647 0.000000
endloop
endfacet
facet normal 0.000000 0.000000 -1.000000
outer loop
vertex 0.006430 0.006647 0.000000
vertex 0.006402 0.005885 0.000000
vertex 0.006105 0.003542 0.000000
endloop
endfacet
facet normal 0.000000 0.000000 -1.000000
outer loop
vertex 0.006105 0.003542 0.000000
vertex 0.000557 0.000755 0.000000
vertex 0.000127 0.002238 0.000000
endloop
endfacet
facet normal 0.000000 0.000000 -1.000000
outer loop
vertex 0.000127 0.002238 0.000000
vertex 0.000294 0.010563 0.000000
vertex 0.001084 0.010805 0.000000
endloop
endfacet
facet normal 0.000000 0.000000 -1.000000
outer loop
vertex 0.001084 0.010805 0.000000
vertex 0.006066 0.007833 0.000000
vertex 0.006430 0.006647 0.000000
endloop
endfacet
facet normal 0.000000 0.000000 -1.000000
outer loop
vertex 0.006430 0.006647 0.000000
vertex 0.006105 0.003542 0.000000
vertex 0.000127 0.002238 0.000000
endloop
endfacet
facet normal 0.000000 0.000000 -1.000000
outer loop
vertex 0.006430 0.006647 0.000000
vertex 0.000127 0.002238 0.000000
vertex 0.001084 0.010805 0.000000
endloop
endfacet
facet normal 0.845113 -0.534588 0.000000
outer loop
vertex 0.005289 0.001759 0.150000
vertex 0.005289 0.001759 0.000000
vertex 0.005384 0.001909 0.000000
endloop
endfacet
facet normal 0.845115 -0.534585 0.000000
outer loop
vertex 0.005289 0.001759 0.150000
vertex 0.005384 0.001909 0.000000
vertex 0.005384 0.001909 0.150000
endloop
endfacet
facet normal 0.047045 0.998893 0.000000
outer loop
vertex 0.000945 0.010818 0.000000
vertex 0.000814 0.010824 0.000000
vertex 0.000814 0.010824 0.150000
endloop
endfacet
facet normal 0.047046 0.998893 0.000000
outer loop
vertex 0.000945 0.010818 0.000000
vertex 0.000814 0.010824 0.150000
vertex 0.000945 0.010818 0.150000
endloop
endfacet
facet normal 0.148930 0.988848 0.000000
outer loop
vertex 0.002131 0.010647 0.150000
vertex 0.002131 0.010647 0.000000
vertex 0.001084 0.010805 0.000000
endloop
endfacet
facet normal 0.096899 0.995294 0.000000
outer loop
vertex 0.001084 0.010805 0.000000
vertex 0.000945 0.010818 0.000000
vertex 0.000945 0.010818 0.150000
endloop
endfacet
facet normal 0.148930 0.988848 0.000000
outer loop
vertex 0.001084 0.010805 0.150000
vertex 0.002131 0.010647 0.150000
vertex 0.001084 0.010805 0.000000
endloop
endfacet
facet normal 0.096899 0.995294 0.000000
outer loop
vertex 0.000945 0.010818 0.150000
vertex 0.001084 0.010805 0.150000
vertex 0.001084 0.010805 0.000000
endloop
endfacet
facet normal 0.000000 0.000000 1.000000
outer loop
vertex 0.004010 0.009998 0.000000
vertex 0.003753 0.010112 0.000000
vertex 0.003494 0.010219 0.000000
endloop
endfacet
facet normal 0.000000 0.000000 1.000000
outer loop
vertex 0.003494 0.010219 0.000000
vertex 0.003237 0.010318 0.000000
vertex 0.002986 0.010407 0.000000
endloop
endfacet
facet normal 0.335986 0.941867 0.000000
outer loop
vertex 0.002986 0.010407 0.000000
vertex 0.002986 0.010407 0.150000
vertex 0.003237 0.010318 0.150000
endloop
endfacet
facet normal 0.358827 0.933404 -0.000043
outer loop
vertex 0.002986 0.010407 0.000000
vertex 0.003237 0.010318 0.150000
vertex 0.003494 0.010219 0.150000
endloop
endfacet
facet normal 0.000000 0.000000 1.000000
outer loop
vertex 0.004010 0.009998 0.000000
vertex 0.003494 0.010219 0.000000
vertex 0.002986 0.010407 0.000000
endloop
endfacet
facet normal 0.405191 0.914232 0.000000
outer loop
vertex 0.003753 0.010112 0.150000
vertex 0.004010 0.009998 0.150000
vertex 0.004010 0.009998 0.000000
endloop
endfacet
facet normal 0.381568 0.924341 -0.000131
outer loop
vertex 0.002986 0.010407 0.000000
vertex 0.003494 0.010219 0.150000
vertex 0.003753 0.010112 0.150000
endloop
endfacet
facet normal 0.371074 0.928603 -0.000069
outer loop
vertex 0.002986 0.010407 0.000000
vertex 0.003753 0.010112 0.150000
vertex 0.004010 0.009998 0.000000
endloop
endfacet
facet normal 0.270058 0.962844 0.000000
outer loop
vertex 0.002986 0.010407 0.000000
vertex 0.002131 0.010647 0.000000
vertex 0.002131 0.010647 0.150000
endloop
endfacet
facet normal 0.270058 0.962844 0.000000
outer loop
vertex 0.002986 0.010407 0.000000
vertex 0.002131 0.010647 0.150000
vertex 0.002986 0.010407 0.150000
endloop
endfacet
facet normal -0.195954 -0.980613 0.000000
outer loop
vertex 0.001534 0.000035 0.150000
vertex 0.001534 0.000035 0.000000
vertex 0.001653 0.000012 0.000000
endloop
endfacet
facet normal -0.195954 -0.980613 0.000000
outer loop
vertex 0.001534 0.000035 0.150000
vertex 0.001653 0.000012 0.000000
vertex 0.001653 0.000012 0.150000
endloop
endfacet
facet normal -0.483922 0.875111 0.000000
outer loop
vertex 0.000493 0.010780 0.150000
vertex 0.000493 0.010780 0.000000
vertex 0.000418 0.010738 0.000000
endloop
endfacet
facet normal -0.483921 0.875112 0.000000
outer loop
vertex 0.000493 0.010780 0.150000
vertex 0.000418 0.010738 0.000000
vertex 0.000418 0.010738 0.150000
endloop
endfacet
facet normal 0.999936 -0.011301 0.000000
outer loop
vertex 0.006424 0.006144 0.000000
vertex 0.006430 0.006647 0.000000
vertex 0.006430 0.006647 0.150000
endloop
endfacet
facet normal 0.999936 -0.011300 0.000000
outer loop
vertex 0.006424 0.006144 0.000000
vertex 0.006430 0.006647 0.150000
vertex 0.006424 0.006144 0.150000
endloop
endfacet
facet normal 0.644491 -0.764612 0.000000
outer loop
vertex 0.004990 0.001444 0.150000
vertex 0.004990 0.001444 0.000000
vertex 0.005093 0.001530 0.000000
endloop
endfacet
facet normal 0.644485 -0.764617 0.000000
outer loop
vertex 0.004990 0.001444 0.150000
vertex 0.005093 0.001530 0.000000
vertex 0.005093 0.001530 0.150000
endloop
endfacet
facet normal -0.000124 0.000000 1.000000
outer loop
vertex 0.001084 0.010805 0.150000
vertex 0.000945 0.010818 0.150000
vertex 0.000814 0.010824 0.150000
endloop
endfacet
facet normal 0.000000 0.000000 1.000000
outer loop
vertex 0.000814 0.010824 0.150000
vertex 0.000694 0.010821 0.150000
vertex 0.000586 0.010807 0.150000
endloop
endfacet
facet normal 0.000000 0.000000 1.000000
outer loop
vertex 0.000586 0.010807 0.150000
vertex 0.000493 0.010780 0.150000
vertex 0.000418 0.010738 0.150000
endloop
endfacet
facet normal 0.001404 0.000000 0.999999
outer loop
vertex 0.000418 0.010738 0.150000
vertex 0.000353 0.010668 0.150000
vertex 0.000294 0.010563 0.150000
endloop
endfacet
facet normal 0.000000 0.000000 1.000000
outer loop
vertex 0.000294 0.010563 0.150000
vertex 0.000191 0.010279 0.150000
vertex 0.000000 0.009310 0.150000
endloop
endfacet
facet normal -0.004462 0.000000 0.999990
outer loop
vertex 0.000000 0.009310 0.150000
vertex 0.000025 0.006518 0.150000
vertex 0.000038 0.005584 0.150000
endloop
endfacet
facet normal 0.006877 0.000000 0.999976
outer loop
vertex 0.000038 0.005584 0.150000
vertex 0.000054 0.004640 0.150000
vertex 0.000074 0.003735 0.150000
endloop
endfacet
facet normal 0.002075 0.000000 0.999998
outer loop
vertex 0.000074 0.003735 0.150000
vertex 0.000098 0.002918 0.150000
vertex 0.000127 0.002238 0.150000
endloop
endfacet
facet normal 0.000000 0.000000 1.000000
outer loop
vertex 0.000127 0.002238 0.150000
vertex 0.000161 0.001744 0.150000
vertex 0.000200 0.001486 0.150000
endloop
endfacet
facet normal 0.000000 0.000000 1.000000
outer loop
vertex 0.000200 0.001486 0.150000
vertex 0.000241 0.001367 0.150000
vertex 0.000281 0.001258 0.150000
endloop
endfacet
facet normal 0.000000 0.000000 1.000000
outer loop
vertex 0.000281 0.001258 0.150000
vertex 0.000322 0.001157 0.150000
vertex 0.000364 0.001065 0.150000
endloop
endfacet
facet normal -0.000906 0.000000 1.000000
outer loop
vertex 0.000364 0.001065 0.150000
vertex 0.000454 0.000901 0.150000
vertex 0.000557 0.000755 0.150000
endloop
endfacet
facet normal -0.001222 0.000000 0.999999
outer loop
vertex 0.000557 0.000755 0.150000
vertex 0.000681 0.000621 0.150000
vertex 0.000753 0.000555 0.150000
endloop
endfacet
facet normal -0.030189 0.000000 0.999544
outer loop
vertex 0.000753 0.000555 0.150000
vertex 0.000832 0.000489 0.150000
vertex 0.000914 0.000422 0.150000
endloop
endfacet
facet normal 0.018489 0.000000 0.999829
outer loop
vertex 0.000914 0.000422 0.150000
vertex 0.000993 0.000354 0.150000
vertex 0.001072 0.000288 0.150000
endloop
endfacet
facet normal 0.000000 0.000000 1.000000
outer loop
vertex 0.001072 0.000288 0.150000
vertex 0.001153 0.000225 0.150000
vertex 0.001328 0.000115 0.150000
endloop
endfacet
facet normal -0.001347 0.000000 0.999999
outer loop
vertex 0.001328 0.000115 0.150000
vertex 0.001426 0.000070 0.150000
vertex 0.001534 0.000035 0.150000
endloop
endfacet
facet normal 0.000124 0.000000 1.000000
outer loop
vertex 0.001534 0.000035 0.150000
vertex 0.001653 0.000012 0.150000
vertex 0.001785 0.000001 0.150000
endloop
endfacet
facet normal 0.000000 0.000000 1.000000
outer loop
vertex 0.001785 0.000001 0.150000
vertex 0.001932 0.000004 0.150000
vertex 0.002096 0.000023 0.150000
endloop
endfacet
facet normal 0.000000 0.000000 1.000000
outer loop
vertex 0.002096 0.000023 0.150000
vertex 0.002450 0.000111 0.150000
vertex 0.002810 0.000250 0.150000
endloop
endfacet
facet normal 0.000000 0.000000 1.000000
outer loop
vertex 0.002810 0.000250 0.150000
vertex 0.004884 0.001371 0.150000
vertex 0.004990 0.001444 0.150000
endloop
endfacet
facet normal 0.000000 0.000000 1.000000
outer loop
vertex 0.004990 0.001444 0.150000
vertex 0.005093 0.001530 0.150000
vertex 0.005192 0.001634 0.150000
endloop
endfacet
facet normal -0.001347 0.000000 0.999999
outer loop
vertex 0.005192 0.001634 0.150000
vertex 0.005289 0.001759 0.150000
vertex 0.005384 0.001909 0.150000
endloop
endfacet
facet normal 0.001515 0.000000 0.999999
outer loop
vertex 0.005384 0.001909 0.150000
vertex 0.005829 0.002807 0.150000
vertex 0.005907 0.002980 0.150000
endloop
endfacet
facet normal 0.001325 0.000000 0.999999
outer loop
vertex 0.005907 0.002980 0.150000
vertex 0.005980 0.003159 0.150000
vertex 0.006105 0.003542 0.150000
endloop
endfacet
facet normal -0.000806 0.000000 1.000000
outer loop
vertex 0.006105 0.003542 0.150000
vertex 0.006199 0.003984 0.150000
vertex 0.006231 0.004235 0.150000
endloop
endfacet
facet normal -0.022390 0.000000 0.999749
outer loop
vertex 0.006231 0.004235 0.150000
vertex 0.006254 0.004511 0.150000
vertex 0.006276 0.004798 0.150000
endloop
endfacet
facet normal 0.000361 0.000000 1.000000
outer loop
vertex 0.006105 0.003542 0.150000
vertex 0.006231 0.004235 0.150000
vertex 0.006276 0.004798 0.150000
endloop
endfacet
facet normal 0.000000 0.000000 1.000000
outer loop
vertex 0.005384 0.001909 0.150000
vertex 0.005907 0.002980 0.150000
vertex 0.006105 0.003542 0.150000
endloop
endfacet
facet normal -0.000381 0.000000 1.000000
outer loop
vertex 0.004990 0.001444 0.150000
vertex 0.005192 0.001634 0.150000
vertex 0.005384 0.001909 0.150000
endloop
endfacet
facet normal -0.000081 0.000000 1.000000
outer loop
vertex 0.002096 0.000023 0.150000
vertex 0.002810 0.000250 0.150000
vertex 0.004990 0.001444 0.150000
endloop
endfacet
facet normal -0.000027 0.000000 1.000000
outer loop
vertex 0.001534 0.000035 0.150000
vertex 0.001785 0.000001 0.150000
vertex 0.002096 0.000023 0.150000
endloop
endfacet
facet normal -0.000118 0.000000 1.000000
outer loop
vertex 0.001072 0.000288 0.150000
vertex 0.001328 0.000115 0.150000
vertex 0.001534 0.000035 0.150000
endloop
endfacet
facet normal 0.000000 0.000000 1.000000
outer loop
vertex 0.000557 0.000755 0.150000
vertex 0.000753 0.000555 0.150000
vertex 0.000914 0.000422 0.150000
endloop
endfacet
facet normal 0.000000 0.000000 1.000000
outer loop
vertex 0.000914 0.000422 0.150000
vertex 0.001072 0.000288 0.150000
vertex 0.001534 0.000035 0.150000
endloop
endfacet
facet normal 0.000035 0.000000 1.000000
outer loop
vertex 0.001534 0.000035 0.150000
vertex 0.002096 0.000023 0.150000
vertex 0.004990 0.001444 0.150000
endloop
endfacet
facet normal -0.000189 0.000000 1.000000
outer loop
vertex 0.004990 0.001444 0.150000
vertex 0.005384 0.001909 0.150000
vertex 0.006105 0.003542 0.150000
endloop
endfacet
facet normal -0.000693 0.000000 1.000000
outer loop
vertex 0.006105 0.003542 0.150000
vertex 0.006276 0.004798 0.150000
vertex 0.006305 0.005078 0.150000
endloop
endfacet
facet normal 0.008529 0.000000 0.999964
outer loop
vertex 0.006339 0.005352 0.150000
vertex 0.006372 0.005621 0.150000
vertex 0.006402 0.005885 0.150000
endloop
endfacet
facet normal 0.008574 0.000000 0.999963
outer loop
vertex 0.006105 0.003542 0.150000
vertex 0.006305 0.005078 0.150000
vertex 0.006339 0.005352 0.150000
endloop
endfacet
facet normal 0.000010 0.000000 1.000000
outer loop
vertex 0.001534 0.000035 0.150000
vertex 0.004990 0.001444 0.150000
vertex 0.006105 0.003542 0.150000
endloop
endfacet
facet normal 0.000000 0.000000 1.000000
outer loop
vertex 0.000557 0.000755 0.150000
vertex 0.000914 0.000422 0.150000
vertex 0.001534 0.000035 0.150000
endloop
endfacet
facet normal 0.000625 0.000000 1.000000
outer loop
vertex 0.000281 0.001258 0.150000
vertex 0.000364 0.001065 0.150000
vertex 0.000557 0.000755 0.150000
endloop
endfacet
facet normal -0.000325 0.000000 1.000000
outer loop
vertex 0.000127 0.002238 0.150000
vertex 0.000200 0.001486 0.150000
vertex 0.000281 0.001258 0.150000
endloop
endfacet
facet normal -0.001335 0.000000 0.999999
outer loop
vertex 0.000038 0.005584 0.150000
vertex 0.000074 0.003735 0.150000
vertex 0.000127 0.002238 0.150000
endloop
endfacet
facet normal 0.000000 0.000000 1.000000
outer loop
vertex 0.000294 0.010563 0.150000
vertex 0.000000 0.009310 0.150000
vertex 0.000038 0.005584 0.150000
endloop
endfacet
facet normal 0.000000 0.000000 1.000000
outer loop
vertex 0.000586 0.010807 0.150000
vertex 0.000418 0.010738 0.150000
vertex 0.000294 0.010563 0.150000
endloop
endfacet
facet normal 0.000000 0.000000 1.000000
outer loop
vertex 0.001084 0.010805 0.150000
vertex 0.000814 0.010824 0.150000
vertex 0.000586 0.010807 0.150000
endloop
endfacet
facet normal 0.000000 0.000000 1.000000
outer loop
vertex 0.002986 0.010407 0.150000
vertex 0.002131 0.010647 0.150000
vertex 0.001084 0.010805 0.150000
endloop
endfacet
facet normal 0.001019 0.000000 1.000000
outer loop
vertex 0.003494 0.010219 0.150000
vertex 0.003237 0.010318 0.150000
vertex 0.002986 0.010407 0.150000
endloop
endfacet
facet normal 0.001793 0.000000 0.999998
outer loop
vertex 0.004010 0.009998 0.150000
vertex 0.003753 0.010112 0.150000
vertex 0.003494 0.010219 0.150000
endloop
endfacet
facet normal -0.000146 0.000000 1.000000
outer loop
vertex 0.005107 0.009360 0.150000
vertex 0.004730 0.009625 0.150000
vertex 0.004010 0.009998 0.150000
endloop
endfacet
facet normal 0.000000 0.000000 1.000000
outer loop
vertex 0.005386 0.009079 0.150000
vertex 0.005257 0.009222 0.150000
vertex 0.005107 0.009360 0.150000
endloop
endfacet
facet normal -0.000964 0.000000 1.000000
outer loop
vertex 0.005693 0.008605 0.150000
vertex 0.005499 0.008929 0.150000
vertex 0.005386 0.009079 0.150000
endloop
endfacet
facet normal 0.001145 0.000000 0.999999
outer loop
vertex 0.006066 0.007833 0.150000
vertex 0.005782 0.008430 0.150000
vertex 0.005693 0.008605 0.150000
endloop
endfacet
facet normal 0.000000 0.000000 1.000000
outer loop
vertex 0.006285 0.007372 0.150000
vertex 0.006180 0.007607 0.150000
vertex 0.006066 0.007833 0.150000
endloop
endfacet
facet normal -0.001091 0.000000 0.999999
outer loop
vertex 0.006406 0.006892 0.150000
vertex 0.006359 0.007134 0.150000
vertex 0.006285 0.007372 0.150000
endloop
endfacet
facet normal -0.000538 0.000000 1.000000
outer loop
vertex 0.006424 0.006144 0.150000
vertex 0.006430 0.006647 0.150000
vertex 0.006406 0.006892 0.150000
endloop
endfacet
facet normal 0.000000 0.000000 1.000000
outer loop
vertex 0.006339 0.005352 0.150000
vertex 0.006402 0.005885 0.150000
vertex 0.006424 0.006144 0.150000
endloop
endfacet
facet normal 0.000000 0.000000 1.000000
outer loop
vertex 0.001534 0.000035 0.150000
vertex 0.006105 0.003542 0.150000
vertex 0.006339 0.005352 0.150000
endloop
endfacet
facet normal 0.000050 0.000000 1.000000
outer loop
vertex 0.000281 0.001258 0.150000
vertex 0.000557 0.000755 0.150000
vertex 0.001534 0.000035 0.150000
endloop
endfacet
facet normal 0.000272 0.000000 1.000000
outer loop
vertex 0.000038 0.005584 0.150000
vertex 0.000127 0.002238 0.150000
vertex 0.000281 0.001258 0.150000
endloop
endfacet
facet normal -0.000084 0.000000 1.000000
outer loop
vertex 0.000586 0.010807 0.150000
vertex 0.000294 0.010563 0.150000
vertex 0.000038 0.005584 0.150000
endloop
endfacet
facet normal -0.000000 0.000000 1.000000
outer loop
vertex 0.002986 0.010407 0.150000
vertex 0.001084 0.010805 0.150000
vertex 0.000586 0.010807 0.150000
endloop
endfacet
facet normal 0.000000 0.000000 1.000000
outer loop
vertex 0.004010 0.009998 0.150000
vertex 0.003494 0.010219 0.150000
vertex 0.002986 0.010407 0.150000
endloop
endfacet
facet normal 0.000000 0.000000 1.000000
outer loop
vertex 0.005386 0.009079 0.150000
vertex 0.005107 0.009360 0.150000
vertex 0.004010 0.009998 0.150000
endloop
endfacet
facet normal 0.000239 0.000000 1.000000
outer loop
vertex 0.006066 0.007833 0.150000
vertex 0.005693 0.008605 0.150000
vertex 0.005386 0.009079 0.150000
endloop
endfacet
facet normal 0.000000 0.000000 1.000000
outer loop
vertex 0.006406 0.006892 0.150000
vertex 0.006285 0.007372 0.150000
vertex 0.006066 0.007833 0.150000
endloop
endfacet
facet normal 0.000000 0.000000 1.000000
outer loop
vertex 0.006339 0.005352 0.150000
vertex 0.006424 0.006144 0.150000
vertex 0.006406 0.006892 0.150000
endloop
endfacet
facet normal 0.000000 0.000000 1.000000
outer loop
vertex 0.000281 0.001258 0.150000
vertex 0.001534 0.000035 0.150000
vertex 0.006339 0.005352 0.150000
endloop
endfacet
facet normal -0.000032 0.000000 1.000000
outer loop
vertex 0.000586 0.010807 0.150000
vertex 0.000038 0.005584 0.150000
vertex 0.000281 0.001258 0.150000
endloop
endfacet
facet normal 0.000000 0.000000 1.000000
outer loop
vertex 0.004010 0.009998 0.150000
vertex 0.002986 0.010407 0.150000
vertex 0.000586 0.010807 0.150000
endloop
endfacet
facet normal -0.000027 0.000000 1.000000
outer loop
vertex 0.006066 0.007833 0.150000
vertex 0.005386 0.009079 0.150000
vertex 0.004010 0.009998 0.150000
endloop
endfacet
facet normal 0.000000 0.000000 1.000000
outer loop
vertex 0.006339 0.005352 0.150000
vertex 0.006406 0.006892 0.150000
vertex 0.006066 0.007833 0.150000
endloop
endfacet
facet normal 0.000002 0.000000 1.000000
outer loop
vertex 0.000586 0.010807 0.150000
vertex 0.000281 0.001258 0.150000
vertex 0.006339 0.005352 0.150000
endloop
endfacet
facet normal 0.000000 0.000000 1.000000
outer loop
vertex 0.006066 0.007833 0.150000
vertex 0.004010 0.009998 0.150000
vertex 0.000586 0.010807 0.150000
endloop
endfacet
facet normal 0.000000 0.000000 1.000000
outer loop
vertex 0.000586 0.010807 0.150000
vertex 0.006339 0.005352 0.150000
vertex 0.006066 0.007833 0.150000
endloop
endfacet
facet normal 0.000000 0.000000 1.000000
outer loop
vertex 0.006339 0.005352 0.000000
vertex 0.006372 0.005621 0.000000
vertex 0.006402 0.005885 0.000000
endloop
endfacet
facet normal 0.996383 -0.084978 0.000000
outer loop
vertex 0.006402 0.005885 0.000000
vertex 0.006424 0.006144 0.000000
vertex 0.006424 0.006144 0.150000
endloop
endfacet
facet normal 0.996383 -0.084978 0.000000
outer loop
vertex 0.006402 0.005885 0.000000
vertex 0.006424 0.006144 0.150000
vertex 0.006402 0.005885 0.150000
endloop
endfacet
facet normal 0.000000 0.000000 1.000000
outer loop
vertex 0.006305 0.005078 0.000000
vertex 0.006339 0.005352 0.000000
vertex 0.006402 0.005885 0.000000
endloop
endfacet
facet normal 0.000000 0.000000 1.000000
outer loop
vertex 0.006231 0.004235 0.000000
vertex 0.006254 0.004511 0.000000
vertex 0.006276 0.004798 0.000000
endloop
endfacet
facet normal 0.992874 -0.119167 0.000000
outer loop
vertex 0.006305 0.005078 0.000000
vertex 0.006402 0.005885 0.000000
vertex 0.006402 0.005885 0.150000
endloop
endfacet
facet normal 0.000000 0.000000 1.000000
outer loop
vertex 0.006199 0.003984 0.000000
vertex 0.006231 0.004235 0.000000
vertex 0.006276 0.004798 0.000000
endloop
endfacet
facet normal 0.994440 -0.105309 -0.000076
outer loop
vertex 0.006276 0.004798 0.000000
vertex 0.006305 0.005078 0.000000
vertex 0.006402 0.005885 0.150000
endloop
endfacet
facet normal 0.993698 -0.112091 -0.000026
outer loop
vertex 0.006276 0.004798 0.000000
vertex 0.006402 0.005885 0.150000
vertex 0.006372 0.005621 0.150000
endloop
endfacet
facet normal 0.995553 -0.094199 0.000000
outer loop
vertex 0.006199 0.003984 0.150000
vertex 0.006199 0.003984 0.000000
vertex 0.006276 0.004798 0.000000
endloop
endfacet
facet normal 0.991628 -0.129126 -0.000192
outer loop
vertex 0.006231 0.004235 0.150000
vertex 0.006199 0.003984 0.150000
vertex 0.006276 0.004798 0.000000
endloop
endfacet
facet normal 0.992298 -0.123873 0.000040
outer loop
vertex 0.006276 0.004798 0.000000
vertex 0.006372 0.005621 0.150000
vertex 0.006339 0.005352 0.150000
endloop
endfacet
facet normal 0.992611 -0.121337 0.000030
outer loop
vertex 0.006276 0.004798 0.000000
vertex 0.006339 0.005352 0.150000
vertex 0.006305 0.005078 0.150000
endloop
endfacet
facet normal 0.996751 -0.080546 -0.000008
outer loop
vertex 0.006254 0.004511 0.150000
vertex 0.006231 0.004235 0.150000
vertex 0.006276 0.004798 0.000000
endloop
endfacet
facet normal 0.994440 -0.105309 0.000000
outer loop
vertex 0.006276 0.004798 0.000000
vertex 0.006305 0.005078 0.150000
vertex 0.006276 0.004798 0.150000
endloop
endfacet
facet normal 0.997071 -0.076480 0.000000
outer loop
vertex 0.006276 0.004798 0.150000
vertex 0.006254 0.004511 0.150000
vertex 0.006276 0.004798 0.000000
endloop
endfacet
facet normal -0.939832 0.341637 0.000000
outer loop
vertex 0.000294 0.010563 0.000000
vertex 0.000191 0.010279 0.000000
vertex 0.000191 0.010279 0.150000
endloop
endfacet
facet normal -0.939832 0.341636 0.000000
outer loop
vertex 0.000294 0.010563 0.000000
vertex 0.000191 0.010279 0.150000
vertex 0.000294 0.010563 0.150000
endloop
endfacet
facet normal 0.857813 0.513963 0.000000
outer loop
vertex 0.005693 0.008605 0.000000
vertex 0.005499 0.008929 0.000000
vertex 0.005499 0.008929 0.150000
endloop
endfacet
facet normal 0.857813 0.513963 0.000000
outer loop
vertex 0.005693 0.008605 0.000000
vertex 0.005499 0.008929 0.150000
vertex 0.005693 0.008605 0.150000
endloop
endfacet
facet normal -0.981131 0.193344 0.000000
outer loop
vertex 0.000191 0.010279 0.000000
vertex 0.000000 0.009310 0.000000
vertex 0.000000 0.009310 0.150000
endloop
endfacet
facet normal -0.981131 0.193344 0.000000
outer loop
vertex 0.000191 0.010279 0.000000
vertex 0.000000 0.009310 0.150000
vertex 0.000191 0.010279 0.150000
endloop
endfacet
facet normal -0.082821 -0.996565 0.000000
outer loop
vertex 0.001653 0.000012 0.150000
vertex 0.001653 0.000012 0.000000
vertex 0.001785 0.000001 0.000000
endloop
endfacet
facet normal -0.082821 -0.996565 0.000000
outer loop
vertex 0.001653 0.000012 0.150000
vertex 0.001785 0.000001 0.000000
vertex 0.001785 0.000001 0.150000
endloop
endfacet
facet normal 0.677913 0.735142 0.000000
outer loop
vertex 0.005257 0.009222 0.150000
vertex 0.005257 0.009222 0.000000
vertex 0.005107 0.009360 0.000000
endloop
endfacet
facet normal 0.677909 0.735146 0.000000
outer loop
vertex 0.005257 0.009222 0.150000
vertex 0.005107 0.009360 0.000000
vertex 0.005107 0.009360 0.150000
endloop
endfacet
facet normal 0.567619 -0.823291 0.000000
outer loop
vertex 0.004884 0.001371 0.150000
vertex 0.004884 0.001371 0.000000
vertex 0.004990 0.001444 0.000000
endloop
endfacet
facet normal 0.567616 -0.823293 0.000000
outer loop
vertex 0.004884 0.001371 0.150000
vertex 0.004990 0.001444 0.000000
vertex 0.004990 0.001444 0.150000
endloop
endfacet
facet normal 0.798165 0.602439 0.000000
outer loop
vertex 0.005499 0.008929 0.150000
vertex 0.005499 0.008929 0.000000
vertex 0.005386 0.009079 0.000000
endloop
endfacet
facet normal 0.798167 0.602436 0.000000
outer loop
vertex 0.005499 0.008929 0.150000
vertex 0.005386 0.009079 0.000000
vertex 0.005386 0.009079 0.150000
endloop
endfacet
facet normal 0.023119 -0.999733 0.000000
outer loop
vertex 0.001785 0.000001 0.150000
vertex 0.001785 0.000001 0.000000
vertex 0.001932 0.000004 0.000000
endloop
endfacet
facet normal 0.023119 -0.999733 0.000000
outer loop
vertex 0.001785 0.000001 0.150000
vertex 0.001932 0.000004 0.000000
vertex 0.001932 0.000004 0.150000
endloop
endfacet
facet normal -0.412715 -0.910860 0.000000
outer loop
vertex 0.001328 0.000115 0.150000
vertex 0.001328 0.000115 0.000000
vertex 0.001426 0.000070 0.000000
endloop
endfacet
facet normal -0.412713 -0.910861 0.000000
outer loop
vertex 0.001328 0.000115 0.150000
vertex 0.001426 0.000070 0.000000
vertex 0.001426 0.000070 0.150000
endloop
endfacet
facet normal 0.721508 -0.692406 0.000000
outer loop
vertex 0.005093 0.001530 0.150000
vertex 0.005093 0.001530 0.000000
vertex 0.005192 0.001634 0.000000
endloop
endfacet
facet normal 0.721508 -0.692406 0.000000
outer loop
vertex 0.005093 0.001530 0.150000
vertex 0.005192 0.001634 0.000000
vertex 0.005192 0.001634 0.150000
endloop
endfacet
facet normal 0.954866 0.297036 0.000000
outer loop
vertex 0.006359 0.007134 0.150000
vertex 0.006359 0.007134 0.000000
vertex 0.006285 0.007372 0.000000
endloop
endfacet
facet normal 0.954866 0.297036 0.000000
outer loop
vertex 0.006359 0.007134 0.150000
vertex 0.006285 0.007372 0.000000
vertex 0.006285 0.007372 0.150000
endloop
endfacet
facet normal -0.737502 0.675345 0.000000
outer loop
vertex 0.000418 0.010738 0.150000
vertex 0.000418 0.010738 0.000000
vertex 0.000353 0.010668 0.000000
endloop
endfacet
facet normal -0.737502 0.675345 0.000000
outer loop
vertex 0.000418 0.010738 0.150000
vertex 0.000353 0.010668 0.000000
vertex 0.000353 0.010668 0.150000
endloop
endfacet
facet normal -0.988876 -0.148743 0.000000
outer loop
vertex 0.000161 0.001744 0.150000
vertex 0.000161 0.001744 0.000000
vertex 0.000200 0.001486 0.000000
endloop
endfacet
facet normal -0.988876 -0.148743 0.000000
outer loop
vertex 0.000161 0.001744 0.150000
vertex 0.000200 0.001486 0.000000
vertex 0.000200 0.001486 0.150000
endloop
endfacet
facet normal 0.475649 -0.879635 0.000000
outer loop
vertex 0.004884 0.001371 0.000000
vertex 0.004884 0.001371 0.150000
vertex 0.002810 0.000250 0.150000
endloop
endfacet
facet normal 0.475649 -0.879635 0.000000
outer loop
vertex 0.004884 0.001371 0.000000
vertex 0.002810 0.000250 0.150000
vertex 0.002810 0.000250 0.000000
endloop
endfacet
facet normal -0.877986 -0.478686 0.000000
outer loop
vertex 0.000364 0.001065 0.150000
vertex 0.000364 0.001065 0.000000
vertex 0.000454 0.000901 0.000000
endloop
endfacet
facet normal -0.877986 -0.478686 0.000000
outer loop
vertex 0.000364 0.001065 0.150000
vertex 0.000454 0.000901 0.000000
vertex 0.000454 0.000901 0.150000
endloop
endfacet
facet normal -0.814272 -0.580484 0.000000
outer loop
vertex 0.000454 0.000901 0.000000
vertex 0.000557 0.000755 0.000000
vertex 0.000557 0.000755 0.150000
endloop
endfacet
facet normal -0.814272 -0.580484 0.000000
outer loop
vertex 0.000454 0.000901 0.000000
vertex 0.000557 0.000755 0.150000
vertex 0.000454 0.000901 0.150000
endloop
endfacet
facet normal 0.950503 -0.310714 0.000000
outer loop
vertex 0.005980 0.003159 0.000000
vertex 0.006105 0.003542 0.000000
vertex 0.006105 0.003542 0.150000
endloop
endfacet
facet normal 0.950504 -0.310713 0.000000
outer loop
vertex 0.005980 0.003159 0.000000
vertex 0.006105 0.003542 0.150000
vertex 0.005980 0.003159 0.150000
endloop
endfacet
facet normal -0.130580 0.991438 0.000000
outer loop
vertex 0.000694 0.010821 0.150000
vertex 0.000694 0.010821 0.000000
vertex 0.000586 0.010807 0.000000
endloop
endfacet
facet normal -0.130580 0.991438 0.000000
outer loop
vertex 0.000694 0.010821 0.150000
vertex 0.000586 0.010807 0.000000
vertex 0.000586 0.010807 0.150000
endloop
endfacet
facet normal 0.742526 0.669818 0.000000
outer loop
vertex 0.005386 0.009079 0.150000
vertex 0.005386 0.009079 0.000000
vertex 0.005257 0.009222 0.000000
endloop
endfacet
facet normal 0.742522 0.669822 0.000000
outer loop
vertex 0.005386 0.009079 0.150000
vertex 0.005257 0.009222 0.000000
vertex 0.005257 0.009222 0.150000
endloop
endfacet
facet normal 0.117242 -0.993103 0.000000
outer loop
vertex 0.001932 0.000004 0.150000
vertex 0.001932 0.000004 0.000000
vertex 0.002096 0.000023 0.000000
endloop
endfacet
facet normal 0.117242 -0.993103 0.000000
outer loop
vertex 0.001932 0.000004 0.150000
vertex 0.002096 0.000023 0.000000
vertex 0.002096 0.000023 0.150000
endloop
endfacet
facet normal -0.734978 -0.678091 0.000000
outer loop
vertex 0.000557 0.000755 0.150000
vertex 0.000557 0.000755 0.000000
vertex 0.000681 0.000621 0.000000
endloop
endfacet
facet normal -0.734978 -0.678091 0.000000
outer loop
vertex 0.000557 0.000755 0.150000
vertex 0.000681 0.000621 0.000000
vertex 0.000681 0.000621 0.150000
endloop
endfacet
facet normal 0.359541 -0.933129 0.000000
outer loop
vertex 0.002450 0.000111 0.150000
vertex 0.002450 0.000111 0.000000
vertex 0.002810 0.000250 0.000000
endloop
endfacet
facet normal 0.359541 -0.933129 0.000000
outer loop
vertex 0.002450 0.000111 0.150000
vertex 0.002810 0.000250 0.000000
vertex 0.002810 0.000250 0.150000
endloop
endfacet
facet normal 0.574484 0.818516 0.000000
outer loop
vertex 0.005107 0.009360 0.000000
vertex 0.004730 0.009625 0.000000
vertex 0.004730 0.009625 0.150000
endloop
endfacet
facet normal 0.574484 0.818516 0.000000
outer loop
vertex 0.005107 0.009360 0.000000
vertex 0.004730 0.009625 0.150000
vertex 0.005107 0.009360 0.150000
endloop
endfacet
facet normal -0.871164 0.490992 0.000000
outer loop
vertex 0.000353 0.010668 0.150000
vertex 0.000353 0.010668 0.000000
vertex 0.000294 0.010563 0.000000
endloop
endfacet
facet normal -0.871164 0.490993 0.000000
outer loop
vertex 0.000353 0.010668 0.150000
vertex 0.000294 0.010563 0.000000
vertex 0.000294 0.010563 0.150000
endloop
endfacet
facet normal -0.614342 -0.789040 0.000000
outer loop
vertex 0.001072 0.000288 0.000000
vertex 0.001153 0.000225 0.000000
vertex 0.001153 0.000225 0.150000
endloop
endfacet
facet normal -0.614343 -0.789039 0.000000
outer loop
vertex 0.001072 0.000288 0.000000
vertex 0.001153 0.000225 0.150000
vertex 0.001072 0.000288 0.150000
endloop
endfacet
facet normal -0.640381 -0.768057 0.000000
outer loop
vertex 0.000993 0.000354 0.000000
vertex 0.001072 0.000288 0.000000
vertex 0.001072 0.000288 0.150000
endloop
endfacet
facet normal -0.640381 -0.768057 0.000000
outer loop
vertex 0.000993 0.000354 0.000000
vertex 0.001072 0.000288 0.150000
vertex 0.000993 0.000354 0.150000
endloop
endfacet
facet normal -0.647377 -0.762170 0.000000
outer loop
vertex 0.000914 0.000422 0.000000
vertex 0.000993 0.000354 0.000000
vertex 0.000993 0.000354 0.150000
endloop
endfacet
facet normal -0.647378 -0.762169 0.000000
outer loop
vertex 0.000914 0.000422 0.000000
vertex 0.000993 0.000354 0.150000
vertex 0.000914 0.000422 0.150000
endloop
endfacet
facet normal -0.636186 -0.771536 0.000000
outer loop
vertex 0.000832 0.000489 0.000000
vertex 0.000914 0.000422 0.000000
vertex 0.000914 0.000422 0.150000
endloop
endfacet
facet normal -0.636187 -0.771534 0.000000
outer loop
vertex 0.000832 0.000489 0.000000
vertex 0.000914 0.000422 0.150000
vertex 0.000832 0.000489 0.150000
endloop
endfacet
facet normal -0.675623 -0.737247 0.000000
outer loop
vertex 0.000681 0.000621 0.150000
vertex 0.000681 0.000621 0.000000
vertex 0.000753 0.000555 0.000000
endloop
endfacet
facet normal -0.640444 -0.768005 0.000000
outer loop
vertex 0.000753 0.000555 0.000000
vertex 0.000832 0.000489 0.000000
vertex 0.000832 0.000489 0.150000
endloop
endfacet
facet normal -0.675623 -0.737247 0.000000
outer loop
vertex 0.000753 0.000555 0.150000
vertex 0.000681 0.000621 0.150000
vertex 0.000753 0.000555 0.000000
endloop
endfacet
facet normal -0.640445 -0.768004 0.000000
outer loop
vertex 0.000832 0.000489 0.150000
vertex 0.000753 0.000555 0.150000
vertex 0.000753 0.000555 0.000000
endloop
endfacet
facet normal 0.000000 0.000000 1.000000
outer loop
vertex 0.006066 0.007833 0.000000
vertex 0.005782 0.008430 0.000000
vertex 0.005693 0.008605 0.000000
endloop
endfacet
facet normal 0.892429 0.451187 0.000000
outer loop
vertex 0.005693 0.008605 0.000000
vertex 0.005693 0.008605 0.150000
vertex 0.005782 0.008430 0.150000
endloop
endfacet
facet normal 0.903171 0.429280 -0.000032
outer loop
vertex 0.005693 0.008605 0.000000
vertex 0.005782 0.008430 0.150000
vertex 0.006066 0.007833 0.150000
endloop
endfacet
facet normal 0.000000 0.000000 1.000000
outer loop
vertex 0.006285 0.007372 0.000000
vertex 0.006180 0.007607 0.000000
vertex 0.006066 0.007833 0.000000
endloop
endfacet
facet normal 0.900752 0.434333 0.000000
outer loop
vertex 0.006066 0.007833 0.000000
vertex 0.005693 0.008605 0.000000
vertex 0.006066 0.007833 0.150000
endloop
endfacet
facet normal 0.913142 0.407642 0.000000
outer loop
vertex 0.006180 0.007607 0.150000
vertex 0.006285 0.007372 0.150000
vertex 0.006285 0.007372 0.000000
endloop
endfacet
facet normal 0.892829 0.450395 0.000000
outer loop
vertex 0.006066 0.007833 0.000000
vertex 0.006066 0.007833 0.150000
vertex 0.006180 0.007607 0.150000
endloop
endfacet
facet normal 0.903322 0.428962 -0.000040
outer loop
vertex 0.006066 0.007833 0.000000
vertex 0.006180 0.007607 0.150000
vertex 0.006285 0.007372 0.000000
endloop
endfacet
facet normal -0.280528 0.959846 0.000000
outer loop
vertex 0.000586 0.010807 0.150000
vertex 0.000586 0.010807 0.000000
vertex 0.000493 0.010780 0.000000
endloop
endfacet
facet normal -0.280528 0.959846 0.000000
outer loop
vertex 0.000586 0.010807 0.150000
vertex 0.000493 0.010780 0.000000
vertex 0.000493 0.010780 0.150000
endloop
endfacet
facet normal -0.997681 -0.068061 0.000000
outer loop
vertex 0.000127 0.002238 0.000000
vertex 0.000161 0.001744 0.000000
vertex 0.000161 0.001744 0.150000
endloop
endfacet
facet normal -0.997681 -0.068061 0.000000
outer loop
vertex 0.000127 0.002238 0.000000
vertex 0.000161 0.001744 0.150000
vertex 0.000127 0.002238 0.150000
endloop
endfacet
facet normal -0.999102 -0.042377 0.000000
outer loop
vertex 0.000098 0.002918 0.000000
vertex 0.000127 0.002238 0.000000
vertex 0.000127 0.002238 0.150000
endloop
endfacet
facet normal -0.999102 -0.042377 0.000000
outer loop
vertex 0.000098 0.002918 0.000000
vertex 0.000127 0.002238 0.150000
vertex 0.000098 0.002918 0.150000
endloop
endfacet
facet normal -0.999556 -0.029780 0.000000
outer loop
vertex 0.000074 0.003735 0.000000
vertex 0.000098 0.002918 0.000000
vertex 0.000098 0.002918 0.150000
endloop
endfacet
facet normal -0.999556 -0.029780 0.000000
outer loop
vertex 0.000074 0.003735 0.000000
vertex 0.000098 0.002918 0.150000
vertex 0.000074 0.003735 0.150000
endloop
endfacet
facet normal -0.999751 -0.022302 0.000000
outer loop
vertex 0.000054 0.004640 0.000000
vertex 0.000074 0.003735 0.000000
vertex 0.000074 0.003735 0.150000
endloop
endfacet
facet normal -0.999751 -0.022302 0.000000
outer loop
vertex 0.000054 0.004640 0.000000
vertex 0.000074 0.003735 0.150000
vertex 0.000054 0.004640 0.150000
endloop
endfacet
facet normal -0.999849 -0.017351 0.000000
outer loop
vertex 0.000038 0.005584 0.000000
vertex 0.000054 0.004640 0.000000
vertex 0.000054 0.004640 0.150000
endloop
endfacet
facet normal -0.999849 -0.017351 0.000000
outer loop
vertex 0.000038 0.005584 0.000000
vertex 0.000054 0.004640 0.150000
vertex 0.000038 0.005584 0.150000
endloop
endfacet
facet normal -0.999961 -0.008828 0.000000
outer loop
vertex 0.000000 0.009310 0.150000
vertex 0.000000 0.009310 0.000000
vertex 0.000025 0.006518 0.000000
endloop
endfacet
facet normal -0.999904 -0.013832 0.000000
outer loop
vertex 0.000025 0.006518 0.000000
vertex 0.000038 0.005584 0.000000
vertex 0.000038 0.005584 0.150000
endloop
endfacet
facet normal -0.999961 -0.008828 0.000000
outer loop
vertex 0.000025 0.006518 0.150000
vertex 0.000000 0.009310 0.150000
vertex 0.000025 0.006518 0.000000
endloop
endfacet
facet normal -0.999904 -0.013832 0.000000
outer loop
vertex 0.000038 0.005584 0.150000
vertex 0.000025 0.006518 0.150000
vertex 0.000025 0.006518 0.000000
endloop
endfacet
facet normal 0.239561 -0.970881 0.000000
outer loop
vertex 0.002096 0.000023 0.150000
vertex 0.002096 0.000023 0.000000
vertex 0.002450 0.000111 0.000000
endloop
endfacet
facet normal 0.239562 -0.970881 0.000000
outer loop
vertex 0.002096 0.000023 0.150000
vertex 0.002450 0.000111 0.000000
vertex 0.002450 0.000111 0.150000
endloop
endfacet
facet normal -0.308800 -0.951127 0.000000
outer loop
vertex 0.001426 0.000070 0.150000
vertex 0.001426 0.000070 0.000000
vertex 0.001534 0.000035 0.000000
endloop
endfacet
facet normal -0.308801 -0.951127 0.000000
outer loop
vertex 0.001426 0.000070 0.150000
vertex 0.001534 0.000035 0.000000
vertex 0.001534 0.000035 0.150000
endloop
endfacet
facet normal 0.926139 -0.377182 0.000000
outer loop
vertex 0.005907 0.002980 0.000000
vertex 0.005980 0.003159 0.000000
vertex 0.005980 0.003159 0.150000
endloop
endfacet
facet normal 0.926136 -0.377189 0.000000
outer loop
vertex 0.005907 0.002980 0.000000
vertex 0.005980 0.003159 0.150000
vertex 0.005907 0.002980 0.150000
endloop
endfacet
facet normal 0.895934 -0.444186 0.000000
outer loop
vertex 0.005384 0.001909 0.150000
vertex 0.005384 0.001909 0.000000
vertex 0.005829 0.002807 0.000000
endloop
endfacet
facet normal 0.912076 -0.410021 0.000000
outer loop
vertex 0.005829 0.002807 0.000000
vertex 0.005907 0.002980 0.000000
vertex 0.005907 0.002980 0.150000
endloop
endfacet
facet normal 0.895935 -0.444186 0.000000
outer loop
vertex 0.005829 0.002807 0.150000
vertex 0.005384 0.001909 0.150000
vertex 0.005829 0.002807 0.000000
endloop
endfacet
facet normal 0.912075 -0.410024 0.000000
outer loop
vertex 0.005907 0.002980 0.150000
vertex 0.005829 0.002807 0.150000
vertex 0.005829 0.002807 0.000000
endloop
endfacet
facet normal 0.978363 -0.206895 0.000000
outer loop
vertex 0.006105 0.003542 0.150000
vertex 0.006105 0.003542 0.000000
vertex 0.006199 0.003984 0.000000
endloop
endfacet
facet normal 0.978363 -0.206896 0.000000
outer loop
vertex 0.006105 0.003542 0.150000
vertex 0.006199 0.003984 0.000000
vertex 0.006199 0.003984 0.150000
endloop
endfacet
facet normal -0.025600 0.999672 0.000000
outer loop
vertex 0.000814 0.010824 0.150000
vertex 0.000814 0.010824 0.000000
vertex 0.000694 0.010821 0.000000
endloop
endfacet
facet normal -0.025600 0.999672 0.000000
outer loop
vertex 0.000814 0.010824 0.150000
vertex 0.000694 0.010821 0.000000
vertex 0.000694 0.010821 0.150000
endloop
endfacet
facet normal 0.789898 -0.613238 0.000000
outer loop
vertex 0.005192 0.001634 0.150000
vertex 0.005192 0.001634 0.000000
vertex 0.005289 0.001759 0.000000
endloop
endfacet
facet normal 0.789896 -0.613241 0.000000
outer loop
vertex 0.005192 0.001634 0.150000
vertex 0.005289 0.001759 0.000000
vertex 0.005289 0.001759 0.150000
endloop
endfacet
facet normal 0.981495 0.191488 0.000000
outer loop
vertex 0.006406 0.006892 0.150000
vertex 0.006406 0.006892 0.000000
vertex 0.006359 0.007134 0.000000
endloop
endfacet
facet normal 0.981494 0.191491 0.000000
outer loop
vertex 0.006406 0.006892 0.150000
vertex 0.006359 0.007134 0.000000
vertex 0.006359 0.007134 0.150000
endloop
endfacet
facet normal 0.459989 0.887925 0.000000
outer loop
vertex 0.004730 0.009625 0.000000
vertex 0.004010 0.009998 0.000000
vertex 0.004010 0.009998 0.150000
endloop
endfacet
facet normal 0.459988 0.887925 0.000000
outer loop
vertex 0.004730 0.009625 0.000000
vertex 0.004010 0.009998 0.150000
vertex 0.004730 0.009625 0.150000
endloop
endfacet
facet normal 0.995227 0.097588 0.000000
outer loop
vertex 0.006430 0.006647 0.150000
vertex 0.006430 0.006647 0.000000
vertex 0.006406 0.006892 0.000000
endloop
endfacet
facet normal 0.995227 0.097585 0.000000
outer loop
vertex 0.006430 0.006647 0.150000
vertex 0.006406 0.006892 0.000000
vertex 0.006406 0.006892 0.150000
endloop
endfacet
facet normal -0.534424 -0.845216 0.000000
outer loop
vertex 0.001153 0.000225 0.150000
vertex 0.001153 0.000225 0.000000
vertex 0.001328 0.000115 0.000000
endloop
endfacet
facet normal -0.534424 -0.845216 0.000000
outer loop
vertex 0.001153 0.000225 0.150000
vertex 0.001328 0.000115 0.000000
vertex 0.001328 0.000115 0.150000
endloop
endfacet
facet normal -0.911018 -0.412366 0.000000
outer loop
vertex 0.000322 0.001157 0.000000
vertex 0.000364 0.001065 0.000000
vertex 0.000364 0.001065 0.150000
endloop
endfacet
facet normal -0.911019 -0.412365 0.000000
outer loop
vertex 0.000322 0.001157 0.000000
vertex 0.000364 0.001065 0.150000
vertex 0.000322 0.001157 0.150000
endloop
endfacet
facet normal -0.926416 -0.376501 0.000000
outer loop
vertex 0.000281 0.001258 0.000000
vertex 0.000322 0.001157 0.000000
vertex 0.000322 0.001157 0.150000
endloop
endfacet
facet normal -0.926416 -0.376501 0.000000
outer loop
vertex 0.000281 0.001258 0.000000
vertex 0.000322 0.001157 0.150000
vertex 0.000281 0.001258 0.150000
endloop
endfacet
facet normal -0.945441 -0.325792 0.000000
outer loop
vertex 0.000200 0.001486 0.150000
vertex 0.000200 0.001486 0.000000
vertex 0.000241 0.001367 0.000000
endloop
endfacet
facet normal -0.937591 -0.347740 0.000000
outer loop
vertex 0.000241 0.001367 0.000000
vertex 0.000281 0.001258 0.000000
vertex 0.000281 0.001258 0.150000
endloop
endfacet
facet normal -0.945441 -0.325792 0.000000
outer loop
vertex 0.000241 0.001367 0.150000
vertex 0.000200 0.001486 0.150000
vertex 0.000241 0.001367 0.000000
endloop
endfacet
facet normal -0.937591 -0.347741 0.000000
outer loop
vertex 0.000281 0.001258 0.150000
vertex 0.000241 0.001367 0.150000
vertex 0.000241 0.001367 0.000000
endloop
endfacet
endsolid Exported from Blender-3.6.8
