solid Exported from Blender-3.6.8
facet normal -0.892178 -0.451684 0.000000
outer loop
vertex 0.001109 0.000559 0.150000
vertex 0.001109 0.000559 0.000000
vertex 0.001161 0.000457 0.000000
endloop
endfacet
facet normal -0.892177 -0.451685 0.000000
outer loop
vertex 0.001109 0.000559 0.150000
vertex 0.001161 0.000457 0.000000
vertex 0.001161 0.000457 0.150000
endloop
endfacet
facet normal -0.478493 -0.878092 0.000000
outer loop
vertex 0.001377 0.000218 0.150000
vertex 0.001377 0.000218 0.000000
vertex 0.001476 0.000164 0.000000
endloop
endfacet
facet normal -0.478494 -0.878091 0.000000
outer loop
vertex 0.001377 0.000218 0.150000
vertex 0.001476 0.000164 0.000000
vertex 0.001476 0.000164 0.150000
endloop
endfacet
facet normal 0.987436 0.158019 0.000000
outer loop
vertex 0.009996 0.001672 0.150000
vertex 0.009996 0.001672 0.000000
vertex 0.009965 0.001861 0.000000
endloop
endfacet
facet normal 0.987434 0.158035 0.000000
outer loop
vertex 0.009996 0.001672 0.150000
vertex 0.009965 0.001861 0.000000
vertex 0.009965 0.001861 0.150000
endloop
endfacet
facet normal 0.022539 -0.999746 0.000000
outer loop
vertex 0.005711 0.000384 0.000000
vertex 0.006098 0.000393 0.000000
vertex 0.006098 0.000393 0.150000
endloop
endfacet
facet normal 0.022539 -0.999746 0.000000
outer loop
vertex 0.005711 0.000384 0.000000
vertex 0.006098 0.000393 0.150000
vertex 0.005711 0.000384 0.150000
endloop
endfacet
facet normal 0.303373 -0.952872 0.000000
outer loop
vertex 0.009208 0.000432 0.150000
vertex 0.009208 0.000432 0.000000
vertex 0.009311 0.000464 0.000000
endloop
endfacet
facet normal 0.303369 -0.952873 0.000000
outer loop
vertex 0.009208 0.000432 0.150000
vertex 0.009311 0.000464 0.000000
vertex 0.009311 0.000464 0.150000
endloop
endfacet
facet normal 0.839642 0.543140 0.000000
outer loop
vertex 0.009233 0.003890 0.000000
vertex 0.009233 0.003890 0.150000
vertex 0.009444 0.003564 0.150000
endloop
endfacet
facet normal 0.839640 0.543143 0.000000
outer loop
vertex 0.009233 0.003890 0.000000
vertex 0.009444 0.003564 0.150000
vertex 0.009444 0.003564 0.000000
endloop
endfacet
facet normal 0.334437 0.942418 0.000000
outer loop
vertex 0.006979 0.005845 0.150000
vertex 0.006979 0.005845 0.000000
vertex 0.006810 0.005905 0.000000
endloop
endfacet
facet normal 0.334437 0.942418 0.000000
outer loop
vertex 0.006979 0.005845 0.150000
vertex 0.006810 0.005905 0.000000
vertex 0.006810 0.005905 0.150000
endloop
endfacet
facet normal 0.096262 -0.995356 0.000000
outer loop
vertex 0.005528 0.000366 0.000000
vertex 0.005711 0.000384 0.000000
vertex 0.005711 0.000384 0.150000
endloop
endfacet
facet normal 0.096262 -0.995356 0.000000
outer loop
vertex 0.005528 0.000366 0.000000
vertex 0.005711 0.000384 0.150000
vertex 0.005528 0.000366 0.150000
endloop
endfacet
facet normal 0.137836 -0.990455 0.000000
outer loop
vertex 0.005352 0.000342 0.000000
vertex 0.005528 0.000366 0.000000
vertex 0.005528 0.000366 0.150000
endloop
endfacet
facet normal 0.137837 -0.990455 0.000000
outer loop
vertex 0.005352 0.000342 0.000000
vertex 0.005528 0.000366 0.150000
vertex 0.005352 0.000342 0.150000
endloop
endfacet
facet normal 0.200955 -0.979601 0.000000
outer loop
vertex 0.004145 0.000094 0.000000
vertex 0.005352 0.000342 0.000000
vertex 0.005352 0.000342 0.150000
endloop
endfacet
facet normal 0.200955 -0.979601 0.000000
outer loop
vertex 0.004145 0.000094 0.000000
vertex 0.005352 0.000342 0.150000
vertex 0.004145 0.000094 0.150000
endloop
endfacet
facet normal 0.070590 -0.997505 0.000000
outer loop
vertex 0.003309 0.000009 0.150000
vertex 0.003309 0.000009 0.000000
vertex 0.003758 0.000041 0.000000
endloop
endfacet
facet normal 0.135698 -0.990750 0.000000
outer loop
vertex 0.003758 0.000041 0.000000
vertex 0.004145 0.000094 0.000000
vertex 0.004145 0.000094 0.150000
endloop
endfacet
facet normal 0.070590 -0.997505 0.000000
outer loop
vertex 0.003758 0.000041 0.150000
vertex 0.003309 0.000009 0.150000
vertex 0.003758 0.000041 0.000000
endloop
endfacet
facet normal 0.135698 -0.990750 0.000000
outer loop
vertex 0.004145 0.000094 0.150000
vertex 0.003758 0.000041 0.150000
vertex 0.003758 0.000041 0.000000
endloop
endfacet
facet normal -0.928557 -0.371191 0.000000
outer loop
vertex 0.001065 0.000671 0.150000
vertex 0.001065 0.000671 0.000000
vertex 0.001109 0.000559 0.000000
endloop
endfacet
facet normal -0.928555 -0.371194 0.000000
outer loop
vertex 0.001065 0.000671 0.150000
vertex 0.001109 0.000559 0.000000
vertex 0.001109 0.000559 0.150000
endloop
endfacet
facet normal 0.000000 0.000000 1.000000
outer loop
vertex 0.009848 0.002304 0.150000
vertex 0.009715 0.002843 0.150000
vertex 0.009675 0.002994 0.150000
endloop
endfacet
facet normal 0.000000 0.000000 1.000000
outer loop
vertex 0.009675 0.002994 0.150000
vertex 0.009632 0.003137 0.150000
vertex 0.009520 0.003418 0.150000
endloop
endfacet
facet normal 0.000000 0.000000 1.000000
outer loop
vertex 0.009520 0.003418 0.150000
vertex 0.009444 0.003564 0.150000
vertex 0.009233 0.003890 0.150000
endloop
endfacet
facet normal 0.000301 0.000000 1.000000
outer loop
vertex 0.009233 0.003890 0.150000
vertex 0.008933 0.004272 0.150000
vertex 0.008268 0.004957 0.150000
endloop
endfacet
facet normal 0.000133 0.000000 1.000000
outer loop
vertex 0.008268 0.004957 0.150000
vertex 0.007600 0.005486 0.150000
vertex 0.007134 0.005773 0.150000
endloop
endfacet
facet normal 0.000000 0.000000 1.000000
outer loop
vertex 0.007134 0.005773 0.150000
vertex 0.006979 0.005845 0.150000
vertex 0.006810 0.005905 0.150000
endloop
endfacet
facet normal 0.000000 0.000000 1.000000
outer loop
vertex 0.006810 0.005905 0.150000
vertex 0.006454 0.005991 0.150000
vertex 0.002592 0.006280 0.150000
endloop
endfacet
facet normal -0.000094 0.000000 1.000000
outer loop
vertex 0.002592 0.006280 0.150000
vertex 0.001619 0.006155 0.150000
vertex 0.001495 0.006119 0.150000
endloop
endfacet
facet normal 0.000000 0.000000 1.000000
outer loop
vertex 0.001495 0.006119 0.150000
vertex 0.001364 0.006067 0.150000
vertex 0.001225 0.005996 0.150000
endloop
endfacet
facet normal 0.000000 0.000000 1.000000
outer loop
vertex 0.001225 0.005996 0.150000
vertex 0.001075 0.005903 0.150000
vertex 0.000753 0.005658 0.150000
endloop
endfacet
facet normal 0.000000 0.000000 1.000000
outer loop
vertex 0.000753 0.005658 0.150000
vertex 0.000466 0.005452 0.150000
vertex 0.000344 0.005359 0.150000
endloop
endfacet
facet normal 0.000000 0.000000 1.000000
outer loop
vertex 0.000344 0.005359 0.150000
vertex 0.000238 0.005265 0.150000
vertex 0.000150 0.005164 0.150000
endloop
endfacet
facet normal -0.001003 0.000000 1.000000
outer loop
vertex 0.000150 0.005164 0.150000
vertex 0.000080 0.005050 0.150000
vertex 0.000031 0.004918 0.150000
endloop
endfacet
facet normal 0.000000 0.000000 1.000000
outer loop
vertex 0.000031 0.004918 0.150000
vertex 0.000005 0.004761 0.150000
vertex 0.000002 0.004574 0.150000
endloop
endfacet
facet normal 0.000648 0.000000 1.000000
outer loop
vertex 0.000002 0.004574 0.150000
vertex 0.000072 0.004088 0.150000
vertex 0.000136 0.003807 0.150000
endloop
endfacet
facet normal 0.000000 0.000000 1.000000
outer loop
vertex 0.000136 0.003807 0.150000
vertex 0.000202 0.003541 0.150000
vertex 0.000269 0.003287 0.150000
endloop
endfacet
facet normal 0.000000 0.000000 1.000000
outer loop
vertex 0.000269 0.003287 0.150000
vertex 0.000337 0.003045 0.150000
vertex 0.000474 0.002597 0.150000
endloop
endfacet
facet normal 0.000000 0.000000 1.000000
outer loop
vertex 0.000269 0.003287 0.150000
vertex 0.000474 0.002597 0.150000
vertex 0.000831 0.001501 0.150000
endloop
endfacet
facet normal 0.000000 0.000000 1.000000
outer loop
vertex 0.000002 0.004574 0.150000
vertex 0.000136 0.003807 0.150000
vertex 0.000269 0.003287 0.150000
endloop
endfacet
facet normal 0.000219 0.000000 1.000000
outer loop
vertex 0.000150 0.005164 0.150000
vertex 0.000031 0.004918 0.150000
vertex 0.000002 0.004574 0.150000
endloop
endfacet
facet normal 0.000000 0.000000 1.000000
outer loop
vertex 0.000753 0.005658 0.150000
vertex 0.000344 0.005359 0.150000
vertex 0.000150 0.005164 0.150000
endloop
endfacet
facet normal -0.000216 0.000000 1.000000
outer loop
vertex 0.001495 0.006119 0.150000
vertex 0.001225 0.005996 0.150000
vertex 0.000753 0.005658 0.150000
endloop
endfacet
facet normal 0.000003 0.000000 1.000000
outer loop
vertex 0.006810 0.005905 0.150000
vertex 0.002592 0.006280 0.150000
vertex 0.001495 0.006119 0.150000
endloop
endfacet
facet normal -0.000064 0.000000 1.000000
outer loop
vertex 0.008268 0.004957 0.150000
vertex 0.007134 0.005773 0.150000
vertex 0.006810 0.005905 0.150000
endloop
endfacet
facet normal 0.000000 0.000000 1.000000
outer loop
vertex 0.009520 0.003418 0.150000
vertex 0.009233 0.003890 0.150000
vertex 0.008268 0.004957 0.150000
endloop
endfacet
facet normal 0.000000 0.000000 1.000000
outer loop
vertex 0.009848 0.002304 0.150000
vertex 0.009675 0.002994 0.150000
vertex 0.009520 0.003418 0.150000
endloop
endfacet
facet normal -0.005572 0.000000 0.999985
outer loop
vertex 0.009965 0.001861 0.150000
vertex 0.009910 0.002081 0.150000
vertex 0.009848 0.002304 0.150000
endloop
endfacet
facet normal 0.000000 0.000000 1.000000
outer loop
vertex 0.010004 0.001511 0.150000
vertex 0.009996 0.001672 0.150000
vertex 0.009965 0.001861 0.150000
endloop
endfacet
facet normal 0.001530 0.000000 0.999999
outer loop
vertex 0.009967 0.001256 0.150000
vertex 0.009993 0.001373 0.150000
vertex 0.010004 0.001511 0.150000
endloop
endfacet
facet normal 0.000000 0.000000 1.000000
outer loop
vertex 0.009880 0.001068 0.150000
vertex 0.009928 0.001156 0.150000
vertex 0.009967 0.001256 0.150000
endloop
endfacet
facet normal 0.000000 0.000000 1.000000
outer loop
vertex 0.009766 0.000916 0.150000
vertex 0.009824 0.000989 0.150000
vertex 0.009880 0.001068 0.150000
endloop
endfacet
facet normal 0.000000 0.000000 1.000000
outer loop
vertex 0.009706 0.000845 0.150000
vertex 0.009766 0.000916 0.150000
vertex 0.009880 0.001068 0.150000
endloop
endfacet
facet normal -0.000473 0.000000 1.000000
outer loop
vertex 0.009880 0.001068 0.150000
vertex 0.009967 0.001256 0.150000
vertex 0.010004 0.001511 0.150000
endloop
endfacet
facet normal 0.000000 0.000000 1.000000
outer loop
vertex 0.010004 0.001511 0.150000
vertex 0.009965 0.001861 0.150000
vertex 0.009848 0.002304 0.150000
endloop
endfacet
facet normal 0.000033 0.000000 1.000000
outer loop
vertex 0.009848 0.002304 0.150000
vertex 0.009520 0.003418 0.150000
vertex 0.008268 0.004957 0.150000
endloop
endfacet
facet normal -0.000003 0.000000 1.000000
outer loop
vertex 0.008268 0.004957 0.150000
vertex 0.006810 0.005905 0.150000
vertex 0.001495 0.006119 0.150000
endloop
endfacet
facet normal -0.000165 0.000000 1.000000
outer loop
vertex 0.001495 0.006119 0.150000
vertex 0.000753 0.005658 0.150000
vertex 0.000150 0.005164 0.150000
endloop
endfacet
facet normal 0.000000 0.000000 1.000000
outer loop
vertex 0.000150 0.005164 0.150000
vertex 0.000002 0.004574 0.150000
vertex 0.000269 0.003287 0.150000
endloop
endfacet
facet normal 0.000000 0.000000 1.000000
outer loop
vertex 0.000150 0.005164 0.150000
vertex 0.000269 0.003287 0.150000
vertex 0.000831 0.001501 0.150000
endloop
endfacet
facet normal 0.000004 0.000000 1.000000
outer loop
vertex 0.008268 0.004957 0.150000
vertex 0.001495 0.006119 0.150000
vertex 0.000150 0.005164 0.150000
endloop
endfacet
facet normal 0.000069 0.000000 1.000000
outer loop
vertex 0.010004 0.001511 0.150000
vertex 0.009848 0.002304 0.150000
vertex 0.008268 0.004957 0.150000
endloop
endfacet
facet normal 0.000000 0.000000 1.000000
outer loop
vertex 0.009706 0.000845 0.150000
vertex 0.009880 0.001068 0.150000
vertex 0.010004 0.001511 0.150000
endloop
endfacet
facet normal 0.005213 0.000000 0.999986
outer loop
vertex 0.009546 0.000619 0.150000
vertex 0.009599 0.000694 0.150000
vertex 0.009650 0.000772 0.150000
endloop
endfacet
facet normal 0.000000 0.000000 1.000000
outer loop
vertex 0.009650 0.000772 0.150000
vertex 0.009706 0.000845 0.150000
vertex 0.010004 0.001511 0.150000
endloop
endfacet
facet normal -0.000002 0.000000 1.000000
outer loop
vertex 0.010004 0.001511 0.150000
vertex 0.008268 0.004957 0.150000
vertex 0.000150 0.005164 0.150000
endloop
endfacet
facet normal -0.000370 0.000000 1.000000
outer loop
vertex 0.000150 0.005164 0.150000
vertex 0.000831 0.001501 0.150000
vertex 0.000876 0.001348 0.150000
endloop
endfacet
facet normal 0.002915 0.000000 0.999996
outer loop
vertex 0.000876 0.001348 0.150000
vertex 0.000988 0.000921 0.150000
vertex 0.001025 0.000792 0.150000
endloop
endfacet
facet normal 0.000000 0.000000 1.000000
outer loop
vertex 0.001025 0.000792 0.150000
vertex 0.001065 0.000671 0.150000
vertex 0.001109 0.000559 0.150000
endloop
endfacet
facet normal 0.001245 0.000000 0.999999
outer loop
vertex 0.001109 0.000559 0.150000
vertex 0.001161 0.000457 0.150000
vertex 0.001221 0.000365 0.150000
endloop
endfacet
facet normal 0.000000 0.000000 1.000000
outer loop
vertex 0.001221 0.000365 0.150000
vertex 0.001293 0.000286 0.150000
vertex 0.001377 0.000218 0.150000
endloop
endfacet
facet normal 0.000379 0.000000 1.000000
outer loop
vertex 0.001377 0.000218 0.150000
vertex 0.001476 0.000164 0.150000
vertex 0.001600 0.000121 0.150000
endloop
endfacet
facet normal -0.000451 0.000000 1.000000
outer loop
vertex 0.001600 0.000121 0.150000
vertex 0.001756 0.000084 0.150000
vertex 0.001938 0.000055 0.150000
endloop
endfacet
facet normal 0.000268 0.000000 1.000000
outer loop
vertex 0.001938 0.000055 0.150000
vertex 0.002141 0.000031 0.150000
vertex 0.002361 0.000015 0.150000
endloop
endfacet
facet normal 0.000000 0.000000 1.000000
outer loop
vertex 0.002361 0.000015 0.150000
vertex 0.002592 0.000004 0.150000
vertex 0.002831 0.000000 0.150000
endloop
endfacet
facet normal 0.000000 0.000000 1.000000
outer loop
vertex 0.002831 0.000000 0.150000
vertex 0.003309 0.000009 0.150000
vertex 0.003758 0.000041 0.150000
endloop
endfacet
facet normal -0.000228 0.000000 1.000000
outer loop
vertex 0.003758 0.000041 0.150000
vertex 0.004145 0.000094 0.150000
vertex 0.005352 0.000342 0.150000
endloop
endfacet
facet normal 0.000034 0.000000 1.000000
outer loop
vertex 0.002831 0.000000 0.150000
vertex 0.003758 0.000041 0.150000
vertex 0.005352 0.000342 0.150000
endloop
endfacet
facet normal -0.000073 0.000000 1.000000
outer loop
vertex 0.001938 0.000055 0.150000
vertex 0.002361 0.000015 0.150000
vertex 0.002831 0.000000 0.150000
endloop
endfacet
facet normal 0.000101 0.000000 1.000000
outer loop
vertex 0.001377 0.000218 0.150000
vertex 0.001600 0.000121 0.150000
vertex 0.001938 0.000055 0.150000
endloop
endfacet
facet normal 0.000000 0.000000 1.000000
outer loop
vertex 0.001109 0.000559 0.150000
vertex 0.001221 0.000365 0.150000
vertex 0.001377 0.000218 0.150000
endloop
endfacet
facet normal 0.000000 0.000000 1.000000
outer loop
vertex 0.000876 0.001348 0.150000
vertex 0.001025 0.000792 0.150000
vertex 0.001109 0.000559 0.150000
endloop
endfacet
facet normal 0.000000 0.000000 1.000000
outer loop
vertex 0.010004 0.001511 0.150000
vertex 0.000150 0.005164 0.150000
vertex 0.000876 0.001348 0.150000
endloop
endfacet
facet normal 0.000000 0.000000 1.000000
outer loop
vertex 0.009546 0.000619 0.150000
vertex 0.009650 0.000772 0.150000
vertex 0.010004 0.001511 0.150000
endloop
endfacet
facet normal 0.000000 0.000000 1.000000
outer loop
vertex 0.009401 0.000505 0.150000
vertex 0.009480 0.000556 0.150000
vertex 0.009546 0.000619 0.150000
endloop
endfacet
facet normal 0.000000 0.000000 1.000000
outer loop
vertex 0.009208 0.000432 0.150000
vertex 0.009311 0.000464 0.150000
vertex 0.009401 0.000505 0.150000
endloop
endfacet
facet normal 0.000000 0.000000 1.000000
outer loop
vertex 0.008830 0.000369 0.150000
vertex 0.008968 0.000385 0.150000
vertex 0.009208 0.000432 0.150000
endloop
endfacet
facet normal 0.000342 0.000000 1.000000
outer loop
vertex 0.007988 0.000298 0.150000
vertex 0.008681 0.000355 0.150000
vertex 0.008830 0.000369 0.150000
endloop
endfacet
facet normal 0.000220 0.000000 1.000000
outer loop
vertex 0.007645 0.000291 0.150000
vertex 0.007814 0.000291 0.150000
vertex 0.007988 0.000298 0.150000
endloop
endfacet
facet normal 0.000020 0.000000 1.000000
outer loop
vertex 0.006098 0.000393 0.150000
vertex 0.007645 0.000291 0.150000
vertex 0.007988 0.000298 0.150000
endloop
endfacet
facet normal 0.000000 0.000000 1.000000
outer loop
vertex 0.007988 0.000298 0.150000
vertex 0.008830 0.000369 0.150000
vertex 0.009208 0.000432 0.150000
endloop
endfacet
facet normal 0.000000 0.000000 1.000000
outer loop
vertex 0.009208 0.000432 0.150000
vertex 0.009401 0.000505 0.150000
vertex 0.009546 0.000619 0.150000
endloop
endfacet
facet normal 0.000000 0.000000 1.000000
outer loop
vertex 0.009546 0.000619 0.150000
vertex 0.010004 0.001511 0.150000
vertex 0.000876 0.001348 0.150000
endloop
endfacet
facet normal 0.000000 0.000000 1.000000
outer loop
vertex 0.000876 0.001348 0.150000
vertex 0.001109 0.000559 0.150000
vertex 0.001377 0.000218 0.150000
endloop
endfacet
facet normal 0.000016 0.000000 1.000000
outer loop
vertex 0.001377 0.000218 0.150000
vertex 0.001938 0.000055 0.150000
vertex 0.002831 0.000000 0.150000
endloop
endfacet
facet normal 0.000827 0.000000 1.000000
outer loop
vertex 0.002831 0.000000 0.150000
vertex 0.005352 0.000342 0.150000
vertex 0.005528 0.000366 0.150000
endloop
endfacet
facet normal -0.000006 0.000000 1.000000
outer loop
vertex 0.001377 0.000218 0.150000
vertex 0.002831 0.000000 0.150000
vertex 0.005528 0.000366 0.150000
endloop
endfacet
facet normal 0.000000 0.000000 1.000000
outer loop
vertex 0.009546 0.000619 0.150000
vertex 0.000876 0.001348 0.150000
vertex 0.001377 0.000218 0.150000
endloop
endfacet
facet normal -0.000020 0.000000 1.000000
outer loop
vertex 0.007988 0.000298 0.150000
vertex 0.009208 0.000432 0.150000
vertex 0.009546 0.000619 0.150000
endloop
endfacet
facet normal 0.000010 0.000000 1.000000
outer loop
vertex 0.006098 0.000393 0.150000
vertex 0.007988 0.000298 0.150000
vertex 0.009546 0.000619 0.150000
endloop
endfacet
facet normal 0.000030 0.000000 1.000000
outer loop
vertex 0.001377 0.000218 0.150000
vertex 0.005528 0.000366 0.150000
vertex 0.005711 0.000384 0.150000
endloop
endfacet
facet normal 0.000000 0.000000 1.000000
outer loop
vertex 0.005711 0.000384 0.150000
vertex 0.006098 0.000393 0.150000
vertex 0.009546 0.000619 0.150000
endloop
endfacet
facet normal 0.000000 0.000000 1.000000
outer loop
vertex 0.001377 0.000218 0.150000
vertex 0.005711 0.000384 0.150000
vertex 0.009546 0.000619 0.150000
endloop
endfacet
facet normal 0.998672 0.051512 0.000000
outer loop
vertex 0.010004 0.001511 0.150000
vertex 0.010004 0.001511 0.000000
vertex 0.009996 0.001672 0.000000
endloop
endfacet
facet normal 0.998672 0.051512 0.000000
outer loop
vertex 0.010004 0.001511 0.150000
vertex 0.009996 0.001672 0.000000
vertex 0.009996 0.001672 0.150000
endloop
endfacet
facet normal -0.367011 0.930217 0.000000
outer loop
vertex 0.001495 0.006119 0.150000
vertex 0.001495 0.006119 0.000000
vertex 0.001364 0.006067 0.000000
endloop
endfacet
facet normal -0.367011 0.930217 0.000000
outer loop
vertex 0.001495 0.006119 0.150000
vertex 0.001364 0.006067 0.000000
vertex 0.001364 0.006067 0.150000
endloop
endfacet
facet normal 0.412966 -0.910747 0.000000
outer loop
vertex 0.009311 0.000464 0.150000
vertex 0.009311 0.000464 0.000000
vertex 0.009401 0.000505 0.000000
endloop
endfacet
facet normal 0.412977 -0.910741 0.000000
outer loop
vertex 0.009311 0.000464 0.150000
vertex 0.009401 0.000505 0.000000
vertex 0.009401 0.000505 0.150000
endloop
endfacet
facet normal -0.127902 0.991787 0.000000
outer loop
vertex 0.002592 0.006280 0.150000
vertex 0.002592 0.006280 0.000000
vertex 0.001619 0.006155 0.000000
endloop
endfacet
facet normal -0.127902 0.991787 0.000000
outer loop
vertex 0.002592 0.006280 0.150000
vertex 0.001619 0.006155 0.000000
vertex 0.001619 0.006155 0.150000
endloop
endfacet
facet normal 0.000000 0.000000 -1.000000
outer loop
vertex 0.008681 0.000355 0.000000
vertex 0.007988 0.000298 0.000000
vertex 0.007814 0.000291 0.000000
endloop
endfacet
facet normal 0.000000 0.000000 -1.000000
outer loop
vertex 0.007814 0.000291 0.000000
vertex 0.007645 0.000291 0.000000
vertex 0.006098 0.000393 0.000000
endloop
endfacet
facet normal 0.000000 0.000000 -1.000000
outer loop
vertex 0.008681 0.000355 0.000000
vertex 0.007814 0.000291 0.000000
vertex 0.006098 0.000393 0.000000
endloop
endfacet
facet normal 0.000000 0.000000 -1.000000
outer loop
vertex 0.008968 0.000385 0.000000
vertex 0.008830 0.000369 0.000000
vertex 0.008681 0.000355 0.000000
endloop
endfacet
facet normal 0.000000 0.000000 -1.000000
outer loop
vertex 0.009311 0.000464 0.000000
vertex 0.009208 0.000432 0.000000
vertex 0.008968 0.000385 0.000000
endloop
endfacet
facet normal 0.000000 0.000000 -1.000000
outer loop
vertex 0.009480 0.000556 0.000000
vertex 0.009401 0.000505 0.000000
vertex 0.009311 0.000464 0.000000
endloop
endfacet
facet normal 0.000000 0.000000 -1.000000
outer loop
vertex 0.009599 0.000694 0.000000
vertex 0.009546 0.000619 0.000000
vertex 0.009480 0.000556 0.000000
endloop
endfacet
facet normal 0.000000 0.000000 -1.000000
outer loop
vertex 0.009650 0.000772 0.000000
vertex 0.009599 0.000694 0.000000
vertex 0.009480 0.000556 0.000000
endloop
endfacet
facet normal 0.000000 0.000000 -1.000000
outer loop
vertex 0.009480 0.000556 0.000000
vertex 0.009311 0.000464 0.000000
vertex 0.008968 0.000385 0.000000
endloop
endfacet
facet normal 0.000000 0.000000 -1.000000
outer loop
vertex 0.008968 0.000385 0.000000
vertex 0.008681 0.000355 0.000000
vertex 0.006098 0.000393 0.000000
endloop
endfacet
facet normal 0.000000 0.000000 -1.000000
outer loop
vertex 0.009480 0.000556 0.000000
vertex 0.008968 0.000385 0.000000
vertex 0.006098 0.000393 0.000000
endloop
endfacet
facet normal 0.000000 0.000000 -1.000000
outer loop
vertex 0.009706 0.000845 0.000000
vertex 0.009650 0.000772 0.000000
vertex 0.009480 0.000556 0.000000
endloop
endfacet
facet normal 0.000000 0.000000 -1.000000
outer loop
vertex 0.009824 0.000989 0.000000
vertex 0.009766 0.000916 0.000000
vertex 0.009706 0.000845 0.000000
endloop
endfacet
facet normal 0.000000 0.000000 -1.000000
outer loop
vertex 0.009928 0.001156 0.000000
vertex 0.009880 0.001068 0.000000
vertex 0.009824 0.000989 0.000000
endloop
endfacet
facet normal 0.000000 0.000000 -1.000000
outer loop
vertex 0.009993 0.001373 0.000000
vertex 0.009967 0.001256 0.000000
vertex 0.009928 0.001156 0.000000
endloop
endfacet
facet normal 0.000000 0.000000 -1.000000
outer loop
vertex 0.009996 0.001672 0.000000
vertex 0.010004 0.001511 0.000000
vertex 0.009993 0.001373 0.000000
endloop
endfacet
facet normal 0.000000 0.000000 -1.000000
outer loop
vertex 0.009910 0.002081 0.000000
vertex 0.009965 0.001861 0.000000
vertex 0.009996 0.001672 0.000000
endloop
endfacet
facet normal 0.000000 0.000000 -1.000000
outer loop
vertex 0.009675 0.002994 0.000000
vertex 0.009715 0.002843 0.000000
vertex 0.009848 0.002304 0.000000
endloop
endfacet
facet normal 0.000000 0.000000 -1.000000
outer loop
vertex 0.009848 0.002304 0.000000
vertex 0.009910 0.002081 0.000000
vertex 0.009996 0.001672 0.000000
endloop
endfacet
facet normal 0.000000 0.000000 -1.000000
outer loop
vertex 0.009996 0.001672 0.000000
vertex 0.009993 0.001373 0.000000
vertex 0.009928 0.001156 0.000000
endloop
endfacet
facet normal 0.000000 0.000000 -1.000000
outer loop
vertex 0.009928 0.001156 0.000000
vertex 0.009824 0.000989 0.000000
vertex 0.009706 0.000845 0.000000
endloop
endfacet
facet normal 0.000000 0.000000 -1.000000
outer loop
vertex 0.009706 0.000845 0.000000
vertex 0.009480 0.000556 0.000000
vertex 0.006098 0.000393 0.000000
endloop
endfacet
facet normal 0.000000 0.000000 -1.000000
outer loop
vertex 0.009706 0.000845 0.000000
vertex 0.006098 0.000393 0.000000
vertex 0.005711 0.000384 0.000000
endloop
endfacet
facet normal 0.000000 0.000000 -1.000000
outer loop
vertex 0.009996 0.001672 0.000000
vertex 0.009928 0.001156 0.000000
vertex 0.009706 0.000845 0.000000
endloop
endfacet
facet normal 0.000000 0.000000 -1.000000
outer loop
vertex 0.009675 0.002994 0.000000
vertex 0.009848 0.002304 0.000000
vertex 0.009996 0.001672 0.000000
endloop
endfacet
facet normal 0.000000 0.000000 -1.000000
outer loop
vertex 0.009520 0.003418 0.000000
vertex 0.009632 0.003137 0.000000
vertex 0.009675 0.002994 0.000000
endloop
endfacet
facet normal 0.000000 0.000000 -1.000000
outer loop
vertex 0.009233 0.003890 0.000000
vertex 0.009444 0.003564 0.000000
vertex 0.009520 0.003418 0.000000
endloop
endfacet
facet normal 0.000000 0.000000 -1.000000
outer loop
vertex 0.008268 0.004957 0.000000
vertex 0.008933 0.004272 0.000000
vertex 0.009233 0.003890 0.000000
endloop
endfacet
facet normal 0.000000 0.000000 -1.000000
outer loop
vertex 0.007134 0.005773 0.000000
vertex 0.007600 0.005486 0.000000
vertex 0.008268 0.004957 0.000000
endloop
endfacet
facet normal 0.000000 0.000000 -1.000000
outer loop
vertex 0.006810 0.005905 0.000000
vertex 0.006979 0.005845 0.000000
vertex 0.007134 0.005773 0.000000
endloop
endfacet
facet normal 0.000000 0.000000 -1.000000
outer loop
vertex 0.002592 0.006280 0.000000
vertex 0.006454 0.005991 0.000000
vertex 0.006810 0.005905 0.000000
endloop
endfacet
facet normal 0.000000 0.000000 -1.000000
outer loop
vertex 0.001495 0.006119 0.000000
vertex 0.001619 0.006155 0.000000
vertex 0.002592 0.006280 0.000000
endloop
endfacet
facet normal 0.000000 0.000000 -1.000000
outer loop
vertex 0.001225 0.005996 0.000000
vertex 0.001364 0.006067 0.000000
vertex 0.001495 0.006119 0.000000
endloop
endfacet
facet normal 0.000000 0.000000 -1.000000
outer loop
vertex 0.000753 0.005658 0.000000
vertex 0.001075 0.005903 0.000000
vertex 0.001225 0.005996 0.000000
endloop
endfacet
facet normal 0.000000 0.000000 -1.000000
outer loop
vertex 0.000344 0.005359 0.000000
vertex 0.000466 0.005452 0.000000
vertex 0.000753 0.005658 0.000000
endloop
endfacet
facet normal 0.000000 0.000000 -1.000000
outer loop
vertex 0.000150 0.005164 0.000000
vertex 0.000238 0.005265 0.000000
vertex 0.000344 0.005359 0.000000
endloop
endfacet
facet normal 0.000000 0.000000 -1.000000
outer loop
vertex 0.000031 0.004918 0.000000
vertex 0.000080 0.005050 0.000000
vertex 0.000150 0.005164 0.000000
endloop
endfacet
facet normal 0.000000 0.000000 -1.000000
outer loop
vertex 0.000002 0.004574 0.000000
vertex 0.000005 0.004761 0.000000
vertex 0.000031 0.004918 0.000000
endloop
endfacet
facet normal 0.000000 0.000000 -1.000000
outer loop
vertex 0.000136 0.003807 0.000000
vertex 0.000072 0.004088 0.000000
vertex 0.000002 0.004574 0.000000
endloop
endfacet
facet normal 0.000000 0.000000 -1.000000
outer loop
vertex 0.000269 0.003287 0.000000
vertex 0.000202 0.003541 0.000000
vertex 0.000136 0.003807 0.000000
endloop
endfacet
facet normal 0.000000 0.000000 -1.000000
outer loop
vertex 0.000474 0.002597 0.000000
vertex 0.000337 0.003045 0.000000
vertex 0.000269 0.003287 0.000000
endloop
endfacet
facet normal 0.000000 0.000000 -1.000000
outer loop
vertex 0.000831 0.001501 0.000000
vertex 0.000474 0.002597 0.000000
vertex 0.000269 0.003287 0.000000
endloop
endfacet
facet normal 0.000000 0.000000 -1.000000
outer loop
vertex 0.000269 0.003287 0.000000
vertex 0.000136 0.003807 0.000000
vertex 0.000002 0.004574 0.000000
endloop
endfacet
facet normal 0.000000 0.000000 -1.000000
outer loop
vertex 0.000002 0.004574 0.000000
vertex 0.000031 0.004918 0.000000
vertex 0.000150 0.005164 0.000000
endloop
endfacet
facet normal 0.000000 0.000000 -1.000000
outer loop
vertex 0.000150 0.005164 0.000000
vertex 0.000344 0.005359 0.000000
vertex 0.000753 0.005658 0.000000
endloop
endfacet
facet normal 0.000000 0.000000 -1.000000
outer loop
vertex 0.000753 0.005658 0.000000
vertex 0.001225 0.005996 0.000000
vertex 0.001495 0.006119 0.000000
endloop
endfacet
facet normal 0.000000 0.000000 -1.000000
outer loop
vertex 0.001495 0.006119 0.000000
vertex 0.002592 0.006280 0.000000
vertex 0.006810 0.005905 0.000000
endloop
endfacet
facet normal 0.000000 0.000000 -1.000000
outer loop
vertex 0.006810 0.005905 0.000000
vertex 0.007134 0.005773 0.000000
vertex 0.008268 0.004957 0.000000
endloop
endfacet
facet normal 0.000000 0.000000 -1.000000
outer loop
vertex 0.008268 0.004957 0.000000
vertex 0.009233 0.003890 0.000000
vertex 0.009520 0.003418 0.000000
endloop
endfacet
facet normal 0.000000 0.000000 -1.000000
outer loop
vertex 0.009520 0.003418 0.000000
vertex 0.009675 0.002994 0.000000
vertex 0.009996 0.001672 0.000000
endloop
endfacet
facet normal 0.000000 0.000000 -1.000000
outer loop
vertex 0.009996 0.001672 0.000000
vertex 0.009706 0.000845 0.000000
vertex 0.005711 0.000384 0.000000
endloop
endfacet
facet normal 0.000000 0.000000 -1.000000
outer loop
vertex 0.009996 0.001672 0.000000
vertex 0.005711 0.000384 0.000000
vertex 0.005528 0.000366 0.000000
endloop
endfacet
facet normal 0.000000 0.000000 -1.000000
outer loop
vertex 0.008268 0.004957 0.000000
vertex 0.009520 0.003418 0.000000
vertex 0.009996 0.001672 0.000000
endloop
endfacet
facet normal 0.000000 0.000000 -1.000000
outer loop
vertex 0.001495 0.006119 0.000000
vertex 0.006810 0.005905 0.000000
vertex 0.008268 0.004957 0.000000
endloop
endfacet
facet normal 0.000000 0.000000 -1.000000
outer loop
vertex 0.000150 0.005164 0.000000
vertex 0.000753 0.005658 0.000000
vertex 0.001495 0.006119 0.000000
endloop
endfacet
facet normal 0.000000 0.000000 -1.000000
outer loop
vertex 0.000269 0.003287 0.000000
vertex 0.000002 0.004574 0.000000
vertex 0.000150 0.005164 0.000000
endloop
endfacet
facet normal 0.000000 0.000000 -1.000000
outer loop
vertex 0.000831 0.001501 0.000000
vertex 0.000269 0.003287 0.000000
vertex 0.000150 0.005164 0.000000
endloop
endfacet
facet normal 0.000000 0.000000 -1.000000
outer loop
vertex 0.000150 0.005164 0.000000
vertex 0.001495 0.006119 0.000000
vertex 0.008268 0.004957 0.000000
endloop
endfacet
facet normal 0.000000 0.000000 -1.000000
outer loop
vertex 0.008268 0.004957 0.000000
vertex 0.009996 0.001672 0.000000
vertex 0.005528 0.000366 0.000000
endloop
endfacet
facet normal 0.000000 0.000000 -1.000000
outer loop
vertex 0.005352 0.000342 0.000000
vertex 0.004145 0.000094 0.000000
vertex 0.003758 0.000041 0.000000
endloop
endfacet
facet normal 0.000000 0.000000 -1.000000
outer loop
vertex 0.008268 0.004957 0.000000
vertex 0.005528 0.000366 0.000000
vertex 0.005352 0.000342 0.000000
endloop
endfacet
facet normal 0.000000 0.000000 -1.000000
outer loop
vertex 0.000831 0.001501 0.000000
vertex 0.000150 0.005164 0.000000
vertex 0.008268 0.004957 0.000000
endloop
endfacet
facet normal 0.000000 0.000000 -1.000000
outer loop
vertex 0.001025 0.000792 0.000000
vertex 0.000988 0.000921 0.000000
vertex 0.000876 0.001348 0.000000
endloop
endfacet
facet normal 0.000000 0.000000 -1.000000
outer loop
vertex 0.000876 0.001348 0.000000
vertex 0.000831 0.001501 0.000000
vertex 0.008268 0.004957 0.000000
endloop
endfacet
facet normal 0.000000 0.000000 -1.000000
outer loop
vertex 0.008268 0.004957 0.000000
vertex 0.005352 0.000342 0.000000
vertex 0.003758 0.000041 0.000000
endloop
endfacet
facet normal 0.000000 0.000000 -1.000000
outer loop
vertex 0.003758 0.000041 0.000000
vertex 0.003309 0.000009 0.000000
vertex 0.002831 0.000000 0.000000
endloop
endfacet
facet normal 0.000000 0.000000 -1.000000
outer loop
vertex 0.002831 0.000000 0.000000
vertex 0.002592 0.000004 0.000000
vertex 0.002361 0.000015 0.000000
endloop
endfacet
facet normal 0.000000 0.000000 -1.000000
outer loop
vertex 0.002361 0.000015 0.000000
vertex 0.002141 0.000031 0.000000
vertex 0.001938 0.000055 0.000000
endloop
endfacet
facet normal 0.000000 0.000000 -1.000000
outer loop
vertex 0.001938 0.000055 0.000000
vertex 0.001756 0.000084 0.000000
vertex 0.001600 0.000121 0.000000
endloop
endfacet
facet normal 0.000000 0.000000 -1.000000
outer loop
vertex 0.001600 0.000121 0.000000
vertex 0.001476 0.000164 0.000000
vertex 0.001377 0.000218 0.000000
endloop
endfacet
facet normal 0.000000 0.000000 -1.000000
outer loop
vertex 0.001377 0.000218 0.000000
vertex 0.001293 0.000286 0.000000
vertex 0.001221 0.000365 0.000000
endloop
endfacet
facet normal 0.000000 0.000000 -1.000000
outer loop
vertex 0.001221 0.000365 0.000000
vertex 0.001161 0.000457 0.000000
vertex 0.001109 0.000559 0.000000
endloop
endfacet
facet normal 0.000000 0.000000 -1.000000
outer loop
vertex 0.001109 0.000559 0.000000
vertex 0.001065 0.000671 0.000000
vertex 0.001025 0.000792 0.000000
endloop
endfacet
facet normal 0.000000 0.000000 -1.000000
outer loop
vertex 0.001025 0.000792 0.000000
vertex 0.000876 0.001348 0.000000
vertex 0.008268 0.004957 0.000000
endloop
endfacet
facet normal 0.000000 0.000000 -1.000000
outer loop
vertex 0.008268 0.004957 0.000000
vertex 0.003758 0.000041 0.000000
vertex 0.002831 0.000000 0.000000
endloop
endfacet
facet normal 0.000000 0.000000 -1.000000
outer loop
vertex 0.002831 0.000000 0.000000
vertex 0.002361 0.000015 0.000000
vertex 0.001938 0.000055 0.000000
endloop
endfacet
facet normal 0.000000 0.000000 -1.000000
outer loop
vertex 0.001938 0.000055 0.000000
vertex 0.001600 0.000121 0.000000
vertex 0.001377 0.000218 0.000000
endloop
endfacet
facet normal 0.000000 0.000000 -1.000000
outer loop
vertex 0.001377 0.000218 0.000000
vertex 0.001221 0.000365 0.000000
vertex 0.001109 0.000559 0.000000
endloop
endfacet
facet normal 0.000000 0.000000 -1.000000
outer loop
vertex 0.001109 0.000559 0.000000
vertex 0.001025 0.000792 0.000000
vertex 0.008268 0.004957 0.000000
endloop
endfacet
facet normal 0.000000 0.000000 -1.000000
outer loop
vertex 0.008268 0.004957 0.000000
vertex 0.002831 0.000000 0.000000
vertex 0.001938 0.000055 0.000000
endloop
endfacet
facet normal 0.000000 0.000000 -1.000000
outer loop
vertex 0.001938 0.000055 0.000000
vertex 0.001377 0.000218 0.000000
vertex 0.001109 0.000559 0.000000
endloop
endfacet
facet normal 0.000000 0.000000 -1.000000
outer loop
vertex 0.001938 0.000055 0.000000
vertex 0.001109 0.000559 0.000000
vertex 0.008268 0.004957 0.000000
endloop
endfacet
facet normal -0.999863 0.016527 0.000000
outer loop
vertex 0.000005 0.004761 0.150000
vertex 0.000005 0.004761 0.000000
vertex 0.000002 0.004574 0.000000
endloop
endfacet
facet normal -0.999863 0.016527 0.000000
outer loop
vertex 0.000005 0.004761 0.150000
vertex 0.000002 0.004574 0.000000
vertex 0.000002 0.004574 0.150000
endloop
endfacet
facet normal -0.853920 0.520405 0.000000
outer loop
vertex 0.000150 0.005164 0.150000
vertex 0.000150 0.005164 0.000000
vertex 0.000080 0.005050 0.000000
endloop
endfacet
facet normal -0.853920 0.520405 0.000000
outer loop
vertex 0.000150 0.005164 0.150000
vertex 0.000080 0.005050 0.000000
vertex 0.000080 0.005050 0.150000
endloop
endfacet
facet normal -0.454060 0.890971 0.000000
outer loop
vertex 0.001364 0.006067 0.150000
vertex 0.001364 0.006067 0.000000
vertex 0.001225 0.005996 0.000000
endloop
endfacet
facet normal -0.454059 0.890971 0.000000
outer loop
vertex 0.001364 0.006067 0.150000
vertex 0.001225 0.005996 0.000000
vertex 0.001225 0.005996 0.150000
endloop
endfacet
facet normal -0.752587 0.658493 0.000000
outer loop
vertex 0.000238 0.005265 0.150000
vertex 0.000238 0.005265 0.000000
vertex 0.000150 0.005164 0.000000
endloop
endfacet
facet normal -0.752587 0.658493 0.000000
outer loop
vertex 0.000238 0.005265 0.150000
vertex 0.000150 0.005164 0.000000
vertex 0.000150 0.005164 0.150000
endloop
endfacet
facet normal 0.000000 0.000000 -1.000000
outer loop
vertex 0.000831 0.001501 0.000000
vertex 0.000876 0.001348 0.000000
vertex 0.000988 0.000921 0.000000
endloop
endfacet
facet normal -0.949910 -0.312525 0.000000
outer loop
vertex 0.001025 0.000792 0.000000
vertex 0.001065 0.000671 0.000000
vertex 0.001065 0.000671 0.150000
endloop
endfacet
facet normal 0.000000 0.000000 -1.000000
outer loop
vertex 0.000474 0.002597 0.000000
vertex 0.000831 0.001501 0.000000
vertex 0.000988 0.000921 0.000000
endloop
endfacet
facet normal -0.961671 -0.274205 0.000034
outer loop
vertex 0.000988 0.000921 0.000000
vertex 0.001025 0.000792 0.000000
vertex 0.001065 0.000671 0.150000
endloop
endfacet
facet normal -0.949910 -0.312525 -0.000036
outer loop
vertex 0.000988 0.000921 0.000000
vertex 0.001065 0.000671 0.150000
vertex 0.001025 0.000792 0.150000
endloop
endfacet
facet normal -0.956007 -0.293343 -0.000018
outer loop
vertex 0.000474 0.002597 0.000000
vertex 0.000988 0.000921 0.000000
vertex 0.001025 0.000792 0.150000
endloop
endfacet
facet normal -0.961671 -0.274205 0.000233
outer loop
vertex 0.000474 0.002597 0.000000
vertex 0.001025 0.000792 0.150000
vertex 0.000988 0.000921 0.150000
endloop
endfacet
facet normal -0.956765 -0.290863 0.000030
outer loop
vertex 0.000337 0.003045 0.000000
vertex 0.000474 0.002597 0.000000
vertex 0.000988 0.000921 0.150000
endloop
endfacet
facet normal -0.967226 -0.253915 0.000599
outer loop
vertex 0.000337 0.003045 0.000000
vertex 0.000988 0.000921 0.150000
vertex 0.000876 0.001348 0.150000
endloop
endfacet
facet normal -0.962384 -0.271694 0.000380
outer loop
vertex 0.000269 0.003287 0.000000
vertex 0.000337 0.003045 0.000000
vertex 0.000876 0.001348 0.150000
endloop
endfacet
facet normal -0.960104 -0.279643 0.000269
outer loop
vertex 0.000269 0.003287 0.000000
vertex 0.000876 0.001348 0.150000
vertex 0.000831 0.001501 0.150000
endloop
endfacet
facet normal -0.966568 -0.256411 0.000569
outer loop
vertex 0.000202 0.003541 0.000000
vertex 0.000269 0.003287 0.000000
vertex 0.000831 0.001501 0.150000
endloop
endfacet
facet normal -0.950665 -0.310221 -0.000229
outer loop
vertex 0.000202 0.003541 0.000000
vertex 0.000831 0.001501 0.150000
vertex 0.000474 0.002597 0.150000
endloop
endfacet
facet normal -0.975138 -0.221597 0.000000
outer loop
vertex 0.000072 0.004088 0.150000
vertex 0.000072 0.004088 0.000000
vertex 0.000136 0.003807 0.000000
endloop
endfacet
facet normal -0.970863 -0.239636 0.000252
outer loop
vertex 0.000136 0.003807 0.000000
vertex 0.000202 0.003541 0.000000
vertex 0.000474 0.002597 0.150000
endloop
endfacet
facet normal -0.956765 -0.290863 -0.000194
outer loop
vertex 0.000136 0.003807 0.000000
vertex 0.000474 0.002597 0.150000
vertex 0.000337 0.003045 0.150000
endloop
endfacet
facet normal -0.975138 -0.221597 0.000000
outer loop
vertex 0.000136 0.003807 0.150000
vertex 0.000072 0.004088 0.150000
vertex 0.000136 0.003807 0.000000
endloop
endfacet
facet normal -0.970863 -0.239636 0.000000
outer loop
vertex 0.000202 0.003541 0.150000
vertex 0.000136 0.003807 0.150000
vertex 0.000136 0.003807 0.000000
endloop
endfacet
facet normal -0.962384 -0.271694 -0.000089
outer loop
vertex 0.000136 0.003807 0.000000
vertex 0.000337 0.003045 0.150000
vertex 0.000269 0.003287 0.150000
endloop
endfacet
facet normal -0.966568 -0.256411 -0.000032
outer loop
vertex 0.000269 0.003287 0.150000
vertex 0.000202 0.003541 0.150000
vertex 0.000136 0.003807 0.000000
endloop
endfacet
facet normal -0.044842 -0.998994 0.000000
outer loop
vertex 0.002592 0.000004 0.150000
vertex 0.002361 0.000015 0.150000
vertex 0.002361 0.000015 0.000000
endloop
endfacet
facet normal -0.044842 -0.998994 0.000000
outer loop
vertex 0.002592 0.000004 0.150000
vertex 0.002361 0.000015 0.000000
vertex 0.002592 0.000004 0.000000
endloop
endfacet
facet normal 0.019205 -0.999816 0.000000
outer loop
vertex 0.003309 0.000009 0.000000
vertex 0.003309 0.000009 0.150000
vertex 0.002831 0.000000 0.150000
endloop
endfacet
facet normal -0.017884 -0.999840 0.000000
outer loop
vertex 0.002831 0.000000 0.150000
vertex 0.002592 0.000004 0.150000
vertex 0.002592 0.000004 0.000000
endloop
endfacet
facet normal 0.019205 -0.999816 0.000000
outer loop
vertex 0.002831 0.000000 0.000000
vertex 0.003309 0.000009 0.000000
vertex 0.002831 0.000000 0.150000
endloop
endfacet
facet normal -0.017884 -0.999840 0.000000
outer loop
vertex 0.002592 0.000004 0.000000
vertex 0.002831 0.000000 0.000000
vertex 0.002831 0.000000 0.150000
endloop
endfacet
facet normal -0.833392 -0.552683 0.000000
outer loop
vertex 0.001161 0.000457 0.150000
vertex 0.001161 0.000457 0.000000
vertex 0.001221 0.000365 0.000000
endloop
endfacet
facet normal -0.833392 -0.552683 0.000000
outer loop
vertex 0.001161 0.000457 0.150000
vertex 0.001221 0.000365 0.000000
vertex 0.001221 0.000365 0.150000
endloop
endfacet
facet normal 0.932399 -0.361431 0.000000
outer loop
vertex 0.009928 0.001156 0.150000
vertex 0.009928 0.001156 0.000000
vertex 0.009967 0.001256 0.000000
endloop
endfacet
facet normal 0.932404 -0.361419 0.000000
outer loop
vertex 0.009928 0.001156 0.150000
vertex 0.009967 0.001256 0.000000
vertex 0.009967 0.001256 0.150000
endloop
endfacet
facet normal 0.524230 0.851576 0.000000
outer loop
vertex 0.007600 0.005486 0.150000
vertex 0.007600 0.005486 0.000000
vertex 0.007134 0.005773 0.000000
endloop
endfacet
facet normal 0.524232 0.851576 0.000000
outer loop
vertex 0.007600 0.005486 0.150000
vertex 0.007134 0.005773 0.000000
vertex 0.007134 0.005773 0.150000
endloop
endfacet
facet normal 0.817942 -0.575300 0.000000
outer loop
vertex 0.009824 0.000989 0.000000
vertex 0.009880 0.001068 0.000000
vertex 0.009880 0.001068 0.150000
endloop
endfacet
facet normal 0.817950 -0.575289 0.000000
outer loop
vertex 0.009824 0.000989 0.000000
vertex 0.009880 0.001068 0.150000
vertex 0.009824 0.000989 0.150000
endloop
endfacet
facet normal 0.000000 0.000000 -1.000000
outer loop
vertex 0.009650 0.000772 0.000000
vertex 0.009706 0.000845 0.000000
vertex 0.009766 0.000916 0.000000
endloop
endfacet
facet normal 0.778997 -0.627028 0.000000
outer loop
vertex 0.009766 0.000916 0.000000
vertex 0.009824 0.000989 0.000000
vertex 0.009824 0.000989 0.150000
endloop
endfacet
facet normal 0.778989 -0.627038 0.000000
outer loop
vertex 0.009766 0.000916 0.000000
vertex 0.009824 0.000989 0.150000
vertex 0.009766 0.000916 0.150000
endloop
endfacet
facet normal 0.000000 0.000000 -1.000000
outer loop
vertex 0.009599 0.000694 0.000000
vertex 0.009650 0.000772 0.000000
vertex 0.009766 0.000916 0.000000
endloop
endfacet
facet normal 0.815878 -0.578224 0.000000
outer loop
vertex 0.009546 0.000619 0.150000
vertex 0.009546 0.000619 0.000000
vertex 0.009599 0.000694 0.000000
endloop
endfacet
facet normal 0.815878 -0.578224 0.000000
outer loop
vertex 0.009599 0.000694 0.150000
vertex 0.009546 0.000619 0.150000
vertex 0.009599 0.000694 0.000000
endloop
endfacet
facet normal 0.800165 -0.599780 0.000000
outer loop
vertex 0.009599 0.000694 0.000000
vertex 0.009766 0.000916 0.000000
vertex 0.009766 0.000916 0.150000
endloop
endfacet
facet normal 0.768529 -0.639815 0.000094
outer loop
vertex 0.009599 0.000694 0.000000
vertex 0.009766 0.000916 0.150000
vertex 0.009706 0.000845 0.150000
endloop
endfacet
facet normal 0.838578 -0.544782 0.000000
outer loop
vertex 0.009650 0.000772 0.150000
vertex 0.009599 0.000694 0.150000
vertex 0.009599 0.000694 0.000000
endloop
endfacet
facet normal 0.789983 -0.613128 0.000052
outer loop
vertex 0.009706 0.000845 0.150000
vertex 0.009650 0.000772 0.150000
vertex 0.009599 0.000694 0.000000
endloop
endfacet
facet normal 0.000000 0.000000 1.000000
outer loop
vertex 0.007645 0.000291 0.000000
vertex 0.007814 0.000291 0.000000
vertex 0.007988 0.000298 0.000000
endloop
endfacet
facet normal 0.000000 0.000000 1.000000
outer loop
vertex 0.007988 0.000298 0.000000
vertex 0.008681 0.000355 0.000000
vertex 0.008830 0.000369 0.000000
endloop
endfacet
facet normal 0.119079 -0.992885 0.000000
outer loop
vertex 0.008830 0.000369 0.000000
vertex 0.008968 0.000385 0.000000
vertex 0.008968 0.000385 0.150000
endloop
endfacet
facet normal 0.119078 -0.992885 0.000000
outer loop
vertex 0.008830 0.000369 0.000000
vertex 0.008968 0.000385 0.150000
vertex 0.008830 0.000369 0.150000
endloop
endfacet
facet normal 0.000000 0.000000 1.000000
outer loop
vertex 0.007645 0.000291 0.000000
vertex 0.007988 0.000298 0.000000
vertex 0.008830 0.000369 0.000000
endloop
endfacet
facet normal 0.001727 -0.999999 0.000000
outer loop
vertex 0.007814 0.000291 0.150000
vertex 0.007645 0.000291 0.150000
vertex 0.007645 0.000291 0.000000
endloop
endfacet
facet normal 0.037056 -0.999313 -0.000040
outer loop
vertex 0.007988 0.000298 0.150000
vertex 0.007814 0.000291 0.150000
vertex 0.007645 0.000291 0.000000
endloop
endfacet
facet normal 0.065487 -0.997853 0.000000
outer loop
vertex 0.007645 0.000291 0.000000
vertex 0.008830 0.000369 0.000000
vertex 0.008830 0.000369 0.150000
endloop
endfacet
facet normal 0.081735 -0.996654 -0.000142
outer loop
vertex 0.008681 0.000355 0.150000
vertex 0.007988 0.000298 0.150000
vertex 0.007645 0.000291 0.000000
endloop
endfacet
facet normal 0.094490 -0.995526 -0.000230
outer loop
vertex 0.008830 0.000369 0.150000
vertex 0.008681 0.000355 0.150000
vertex 0.007645 0.000291 0.000000
endloop
endfacet
facet normal 0.975733 -0.218962 0.000000
outer loop
vertex 0.009967 0.001256 0.150000
vertex 0.009967 0.001256 0.000000
vertex 0.009993 0.001373 0.000000
endloop
endfacet
facet normal 0.975736 -0.218950 0.000000
outer loop
vertex 0.009967 0.001256 0.150000
vertex 0.009993 0.001373 0.000000
vertex 0.009993 0.001373 0.150000
endloop
endfacet
facet normal 0.929090 0.369854 0.000000
outer loop
vertex 0.009520 0.003418 0.000000
vertex 0.009520 0.003418 0.150000
vertex 0.009632 0.003137 0.150000
endloop
endfacet
facet normal 0.929092 0.369849 0.000000
outer loop
vertex 0.009520 0.003418 0.000000
vertex 0.009632 0.003137 0.150000
vertex 0.009632 0.003137 0.000000
endloop
endfacet
facet normal 0.717455 0.696605 0.000000
outer loop
vertex 0.008933 0.004272 0.150000
vertex 0.008933 0.004272 0.000000
vertex 0.008268 0.004957 0.000000
endloop
endfacet
facet normal 0.717457 0.696603 0.000000
outer loop
vertex 0.008933 0.004272 0.150000
vertex 0.008268 0.004957 0.000000
vertex 0.008268 0.004957 0.150000
endloop
endfacet
facet normal 0.997082 -0.076340 0.000000
outer loop
vertex 0.009993 0.001373 0.150000
vertex 0.009993 0.001373 0.000000
vertex 0.010004 0.001511 0.000000
endloop
endfacet
facet normal 0.997081 -0.076351 0.000000
outer loop
vertex 0.009993 0.001373 0.150000
vertex 0.010004 0.001511 0.000000
vertex 0.010004 0.001511 0.150000
endloop
endfacet
facet normal 0.874560 -0.484917 0.000000
outer loop
vertex 0.009880 0.001068 0.150000
vertex 0.009880 0.001068 0.000000
vertex 0.009928 0.001156 0.000000
endloop
endfacet
facet normal 0.874547 -0.484941 0.000000
outer loop
vertex 0.009880 0.001068 0.150000
vertex 0.009928 0.001156 0.000000
vertex 0.009928 0.001156 0.150000
endloop
endfacet
facet normal 0.000000 0.000000 1.000000
outer loop
vertex 0.009848 0.002304 0.000000
vertex 0.009715 0.002843 0.000000
vertex 0.009675 0.002994 0.000000
endloop
endfacet
facet normal 0.957451 0.288597 0.000000
outer loop
vertex 0.009675 0.002994 0.000000
vertex 0.009632 0.003137 0.000000
vertex 0.009632 0.003137 0.150000
endloop
endfacet
facet normal 0.957454 0.288588 0.000000
outer loop
vertex 0.009675 0.002994 0.000000
vertex 0.009632 0.003137 0.150000
vertex 0.009675 0.002994 0.150000
endloop
endfacet
facet normal 0.000000 0.000000 1.000000
outer loop
vertex 0.009965 0.001861 0.000000
vertex 0.009910 0.002081 0.000000
vertex 0.009848 0.002304 0.000000
endloop
endfacet
facet normal 0.969879 0.243586 0.000000
outer loop
vertex 0.009848 0.002304 0.000000
vertex 0.009675 0.002994 0.000000
vertex 0.009675 0.002994 0.150000
endloop
endfacet
facet normal 0.967231 0.253898 -0.000050
outer loop
vertex 0.009848 0.002304 0.000000
vertex 0.009675 0.002994 0.150000
vertex 0.009715 0.002843 0.150000
endloop
endfacet
facet normal 0.966839 0.255387 0.000000
outer loop
vertex 0.009965 0.001861 0.150000
vertex 0.009965 0.001861 0.000000
vertex 0.009848 0.002304 0.000000
endloop
endfacet
facet normal 0.969969 0.243227 -0.000038
outer loop
vertex 0.009910 0.002081 0.150000
vertex 0.009965 0.001861 0.150000
vertex 0.009848 0.002304 0.000000
endloop
endfacet
facet normal 0.970601 0.240694 0.000000
outer loop
vertex 0.009848 0.002304 0.000000
vertex 0.009715 0.002843 0.150000
vertex 0.009848 0.002304 0.150000
endloop
endfacet
facet normal 0.963625 0.267259 0.000000
outer loop
vertex 0.009848 0.002304 0.000000
vertex 0.009848 0.002304 0.150000
vertex 0.009910 0.002081 0.150000
endloop
endfacet
facet normal -0.065374 -0.997861 0.000000
outer loop
vertex 0.006098 0.000393 0.150000
vertex 0.006098 0.000393 0.000000
vertex 0.007645 0.000291 0.000000
endloop
endfacet
facet normal -0.065374 -0.997861 0.000000
outer loop
vertex 0.006098 0.000393 0.150000
vertex 0.007645 0.000291 0.000000
vertex 0.007645 0.000291 0.150000
endloop
endfacet
facet normal -0.330429 -0.943831 0.000000
outer loop
vertex 0.001476 0.000164 0.150000
vertex 0.001476 0.000164 0.000000
vertex 0.001600 0.000121 0.000000
endloop
endfacet
facet normal -0.330429 -0.943831 0.000000
outer loop
vertex 0.001476 0.000164 0.150000
vertex 0.001600 0.000121 0.000000
vertex 0.001600 0.000121 0.150000
endloop
endfacet
facet normal -0.228974 -0.973433 0.000000
outer loop
vertex 0.001600 0.000121 0.150000
vertex 0.001600 0.000121 0.000000
vertex 0.001756 0.000084 0.000000
endloop
endfacet
facet normal -0.228974 -0.973433 0.000000
outer loop
vertex 0.001600 0.000121 0.150000
vertex 0.001756 0.000084 0.000000
vertex 0.001756 0.000084 0.150000
endloop
endfacet
facet normal -0.938306 0.345807 0.000000
outer loop
vertex 0.000080 0.005050 0.150000
vertex 0.000080 0.005050 0.000000
vertex 0.000031 0.004918 0.000000
endloop
endfacet
facet normal -0.938306 0.345807 0.000000
outer loop
vertex 0.000080 0.005050 0.150000
vertex 0.000031 0.004918 0.000000
vertex 0.000031 0.004918 0.150000
endloop
endfacet
facet normal 0.074624 0.997212 0.000000
outer loop
vertex 0.006454 0.005991 0.000000
vertex 0.002592 0.006280 0.000000
vertex 0.002592 0.006280 0.150000
endloop
endfacet
facet normal 0.074624 0.997212 0.000000
outer loop
vertex 0.006454 0.005991 0.000000
vertex 0.002592 0.006280 0.150000
vertex 0.006454 0.005991 0.150000
endloop
endfacet
facet normal -0.744829 -0.667255 0.000000
outer loop
vertex 0.001221 0.000365 0.150000
vertex 0.001221 0.000365 0.000000
vertex 0.001293 0.000286 0.000000
endloop
endfacet
facet normal -0.744831 -0.667253 0.000000
outer loop
vertex 0.001221 0.000365 0.150000
vertex 0.001293 0.000286 0.000000
vertex 0.001293 0.000286 0.150000
endloop
endfacet
facet normal 0.545338 -0.838216 0.000000
outer loop
vertex 0.009401 0.000505 0.150000
vertex 0.009401 0.000505 0.000000
vertex 0.009480 0.000556 0.000000
endloop
endfacet
facet normal 0.545330 -0.838221 0.000000
outer loop
vertex 0.009401 0.000505 0.150000
vertex 0.009480 0.000556 0.000000
vertex 0.009480 0.000556 0.150000
endloop
endfacet
facet normal 0.000000 0.000000 -1.000000
outer loop
vertex 0.001075 0.005903 0.000000
vertex 0.000753 0.005658 0.000000
vertex 0.000466 0.005452 0.000000
endloop
endfacet
facet normal -0.605932 0.795516 0.000000
outer loop
vertex 0.000466 0.005452 0.000000
vertex 0.000344 0.005359 0.000000
vertex 0.000344 0.005359 0.150000
endloop
endfacet
facet normal -0.605932 0.795516 0.000000
outer loop
vertex 0.000466 0.005452 0.000000
vertex 0.000344 0.005359 0.150000
vertex 0.000466 0.005452 0.150000
endloop
endfacet
facet normal -0.532346 0.846527 0.000000
outer loop
vertex 0.001225 0.005996 0.150000
vertex 0.001225 0.005996 0.000000
vertex 0.001075 0.005903 0.000000
endloop
endfacet
facet normal -0.594767 0.803898 0.000000
outer loop
vertex 0.001075 0.005903 0.000000
vertex 0.000466 0.005452 0.000000
vertex 0.000466 0.005452 0.150000
endloop
endfacet
facet normal -0.583330 0.812235 0.000071
outer loop
vertex 0.001075 0.005903 0.000000
vertex 0.000466 0.005452 0.150000
vertex 0.000753 0.005658 0.150000
endloop
endfacet
facet normal -0.532347 0.846526 0.000000
outer loop
vertex 0.001075 0.005903 0.150000
vertex 0.001225 0.005996 0.150000
vertex 0.001075 0.005903 0.000000
endloop
endfacet
facet normal -0.604649 0.796492 0.000000
outer loop
vertex 0.000753 0.005658 0.150000
vertex 0.001075 0.005903 0.150000
vertex 0.001075 0.005903 0.000000
endloop
endfacet
facet normal 0.620704 0.784045 0.000000
outer loop
vertex 0.007600 0.005486 0.000000
vertex 0.007600 0.005486 0.150000
vertex 0.008268 0.004957 0.150000
endloop
endfacet
facet normal 0.620705 0.784044 0.000000
outer loop
vertex 0.007600 0.005486 0.000000
vertex 0.008268 0.004957 0.150000
vertex 0.008268 0.004957 0.000000
endloop
endfacet
facet normal 0.235589 0.971853 0.000000
outer loop
vertex 0.006454 0.005991 0.000000
vertex 0.006454 0.005991 0.150000
vertex 0.006810 0.005905 0.150000
endloop
endfacet
facet normal 0.235591 0.971852 0.000000
outer loop
vertex 0.006454 0.005991 0.000000
vertex 0.006810 0.005905 0.150000
vertex 0.006810 0.005905 0.000000
endloop
endfacet
facet normal 0.785986 0.618245 0.000000
outer loop
vertex 0.008933 0.004272 0.000000
vertex 0.008933 0.004272 0.150000
vertex 0.009233 0.003890 0.150000
endloop
endfacet
facet normal 0.785987 0.618243 0.000000
outer loop
vertex 0.008933 0.004272 0.000000
vertex 0.009233 0.003890 0.150000
vertex 0.009233 0.003890 0.000000
endloop
endfacet
facet normal -0.277497 0.960726 0.000000
outer loop
vertex 0.001619 0.006155 0.150000
vertex 0.001619 0.006155 0.000000
vertex 0.001495 0.006119 0.000000
endloop
endfacet
facet normal -0.277497 0.960727 0.000000
outer loop
vertex 0.001619 0.006155 0.150000
vertex 0.001495 0.006119 0.000000
vertex 0.001495 0.006119 0.150000
endloop
endfacet
facet normal 0.887347 0.461102 0.000000
outer loop
vertex 0.009520 0.003418 0.150000
vertex 0.009520 0.003418 0.000000
vertex 0.009444 0.003564 0.000000
endloop
endfacet
facet normal 0.887347 0.461102 0.000000
outer loop
vertex 0.009520 0.003418 0.150000
vertex 0.009444 0.003564 0.000000
vertex 0.009444 0.003564 0.150000
endloop
endfacet
facet normal -0.663985 0.747746 0.000000
outer loop
vertex 0.000344 0.005359 0.150000
vertex 0.000344 0.005359 0.000000
vertex 0.000238 0.005265 0.000000
endloop
endfacet
facet normal -0.663985 0.747746 0.000000
outer loop
vertex 0.000344 0.005359 0.150000
vertex 0.000238 0.005265 0.000000
vertex 0.000238 0.005265 0.150000
endloop
endfacet
facet normal 0.423068 0.906098 0.000000
outer loop
vertex 0.007134 0.005773 0.150000
vertex 0.007134 0.005773 0.000000
vertex 0.006979 0.005845 0.000000
endloop
endfacet
facet normal 0.423068 0.906098 0.000000
outer loop
vertex 0.007134 0.005773 0.150000
vertex 0.006979 0.005845 0.000000
vertex 0.006979 0.005845 0.150000
endloop
endfacet
facet normal -0.989660 -0.143434 0.000000
outer loop
vertex 0.000002 0.004574 0.150000
vertex 0.000002 0.004574 0.000000
vertex 0.000072 0.004088 0.000000
endloop
endfacet
facet normal -0.989660 -0.143434 0.000000
outer loop
vertex 0.000002 0.004574 0.150000
vertex 0.000072 0.004088 0.000000
vertex 0.000072 0.004088 0.150000
endloop
endfacet
facet normal 0.188415 -0.982089 0.000000
outer loop
vertex 0.008968 0.000385 0.000000
vertex 0.009208 0.000432 0.000000
vertex 0.009208 0.000432 0.150000
endloop
endfacet
facet normal 0.188415 -0.982089 0.000000
outer loop
vertex 0.008968 0.000385 0.000000
vertex 0.009208 0.000432 0.150000
vertex 0.008968 0.000385 0.150000
endloop
endfacet
facet normal -0.985806 0.167891 0.000000
outer loop
vertex 0.000031 0.004918 0.150000
vertex 0.000031 0.004918 0.000000
vertex 0.000005 0.004761 0.000000
endloop
endfacet
facet normal -0.985806 0.167891 0.000000
outer loop
vertex 0.000031 0.004918 0.150000
vertex 0.000005 0.004761 0.000000
vertex 0.000005 0.004761 0.150000
endloop
endfacet
facet normal -0.623991 -0.781432 0.000000
outer loop
vertex 0.001293 0.000286 0.150000
vertex 0.001293 0.000286 0.000000
vertex 0.001377 0.000218 0.000000
endloop
endfacet
facet normal -0.623991 -0.781432 0.000000
outer loop
vertex 0.001293 0.000286 0.150000
vertex 0.001377 0.000218 0.000000
vertex 0.001377 0.000218 0.150000
endloop
endfacet
facet normal -0.075709 -0.997130 0.000000
outer loop
vertex 0.002141 0.000031 0.000000
vertex 0.002361 0.000015 0.000000
vertex 0.002361 0.000015 0.150000
endloop
endfacet
facet normal -0.075709 -0.997130 0.000000
outer loop
vertex 0.002141 0.000031 0.000000
vertex 0.002361 0.000015 0.150000
vertex 0.002141 0.000031 0.150000
endloop
endfacet
facet normal -0.161673 -0.986844 0.000000
outer loop
vertex 0.001756 0.000084 0.150000
vertex 0.001756 0.000084 0.000000
vertex 0.001938 0.000055 0.000000
endloop
endfacet
facet normal -0.113193 -0.993573 0.000000
outer loop
vertex 0.001938 0.000055 0.000000
vertex 0.002141 0.000031 0.000000
vertex 0.002141 0.000031 0.150000
endloop
endfacet
facet normal -0.161673 -0.986844 0.000000
outer loop
vertex 0.001938 0.000055 0.150000
vertex 0.001756 0.000084 0.150000
vertex 0.001938 0.000055 0.000000
endloop
endfacet
facet normal -0.113193 -0.993573 0.000000
outer loop
vertex 0.002141 0.000031 0.150000
vertex 0.001938 0.000055 0.150000
vertex 0.001938 0.000055 0.000000
endloop
endfacet
facet normal 0.687199 -0.726469 0.000000
outer loop
vertex 0.009480 0.000556 0.150000
vertex 0.009480 0.000556 0.000000
vertex 0.009546 0.000619 0.000000
endloop
endfacet
facet normal 0.687199 -0.726469 0.000000
outer loop
vertex 0.009480 0.000556 0.150000
vertex 0.009546 0.000619 0.000000
vertex 0.009546 0.000619 0.150000
endloop
endfacet
endsolid Exported from Blender-3.6.8
