solid Exported from Blender-3.6.8
facet normal 0.000000 0.000000 -1.000000
outer loop
vertex 0.001820 0.003841 0.000000
vertex 0.003025 0.004053 0.000000
vertex 0.003179 0.004064 0.000000
endloop
endfacet
facet normal 0.000000 0.000000 -1.000000
outer loop
vertex 0.003179 0.004064 0.000000
vertex 0.003540 0.004045 0.000000
vertex 0.003643 0.004033 0.000000
endloop
endfacet
facet normal 0.000000 0.000000 -1.000000
outer loop
vertex 0.003643 0.004033 0.000000
vertex 0.003750 0.004017 0.000000
vertex 0.003968 0.003979 0.000000
endloop
endfacet
facet normal 0.000000 0.000000 -1.000000
outer loop
vertex 0.003968 0.003979 0.000000
vertex 0.004502 0.003840 0.000000
vertex 0.004704 0.003764 0.000000
endloop
endfacet
facet normal 0.000000 0.000000 -1.000000
outer loop
vertex 0.004704 0.003764 0.000000
vertex 0.004806 0.003721 0.000000
vertex 0.004912 0.003672 0.000000
endloop
endfacet
facet normal 0.000000 0.000000 -1.000000
outer loop
vertex 0.004912 0.003672 0.000000
vertex 0.005023 0.003618 0.000000
vertex 0.005141 0.003558 0.000000
endloop
endfacet
facet normal 0.000000 0.000000 -1.000000
outer loop
vertex 0.005141 0.003558 0.000000
vertex 0.005703 0.003246 0.000000
vertex 0.005853 0.003156 0.000000
endloop
endfacet
facet normal 0.000000 0.000000 -1.000000
outer loop
vertex 0.005853 0.003156 0.000000
vertex 0.006076 0.002996 0.000000
vertex 0.006158 0.002921 0.000000
endloop
endfacet
facet normal 0.000000 0.000000 -1.000000
outer loop
vertex 0.006158 0.002921 0.000000
vertex 0.006224 0.002845 0.000000
vertex 0.006280 0.002766 0.000000
endloop
endfacet
facet normal 0.000000 0.000000 -1.000000
outer loop
vertex 0.006280 0.002766 0.000000
vertex 0.006329 0.002681 0.000000
vertex 0.006375 0.002589 0.000000
endloop
endfacet
facet normal 0.000000 0.000000 -1.000000
outer loop
vertex 0.006280 0.002766 0.000000
vertex 0.006375 0.002589 0.000000
vertex 0.006473 0.002369 0.000000
endloop
endfacet
facet normal 0.000000 0.000000 -1.000000
outer loop
vertex 0.005853 0.003156 0.000000
vertex 0.006158 0.002921 0.000000
vertex 0.006280 0.002766 0.000000
endloop
endfacet
facet normal 0.000000 0.000000 -1.000000
outer loop
vertex 0.004912 0.003672 0.000000
vertex 0.005141 0.003558 0.000000
vertex 0.005853 0.003156 0.000000
endloop
endfacet
facet normal 0.000000 0.000000 -1.000000
outer loop
vertex 0.003968 0.003979 0.000000
vertex 0.004704 0.003764 0.000000
vertex 0.004912 0.003672 0.000000
endloop
endfacet
facet normal 0.000000 0.000000 -1.000000
outer loop
vertex 0.003179 0.004064 0.000000
vertex 0.003643 0.004033 0.000000
vertex 0.003968 0.003979 0.000000
endloop
endfacet
facet normal 0.000000 0.000000 -1.000000
outer loop
vertex 0.001607 0.003756 0.000000
vertex 0.001820 0.003841 0.000000
vertex 0.003179 0.004064 0.000000
endloop
endfacet
facet normal 0.000000 0.000000 -1.000000
outer loop
vertex 0.001142 0.003513 0.000000
vertex 0.001308 0.003607 0.000000
vertex 0.001607 0.003756 0.000000
endloop
endfacet
facet normal 0.000000 0.000000 -1.000000
outer loop
vertex 0.000652 0.003171 0.000000
vertex 0.000974 0.003408 0.000000
vertex 0.001142 0.003513 0.000000
endloop
endfacet
facet normal 0.000000 0.000000 -1.000000
outer loop
vertex 0.000393 0.002911 0.000000
vertex 0.000512 0.003043 0.000000
vertex 0.000652 0.003171 0.000000
endloop
endfacet
facet normal 0.000000 0.000000 -1.000000
outer loop
vertex 0.000244 0.002640 0.000000
vertex 0.000301 0.002776 0.000000
vertex 0.000393 0.002911 0.000000
endloop
endfacet
facet normal 0.000000 0.000000 -1.000000
outer loop
vertex 0.000144 0.002263 0.000000
vertex 0.000174 0.002383 0.000000
vertex 0.000244 0.002640 0.000000
endloop
endfacet
facet normal 0.000000 0.000000 -1.000000
outer loop
vertex 0.000095 0.002035 0.000000
vertex 0.000118 0.002148 0.000000
vertex 0.000144 0.002263 0.000000
endloop
endfacet
facet normal 0.000000 0.000000 -1.000000
outer loop
vertex 0.000058 0.001813 0.000000
vertex 0.000075 0.001923 0.000000
vertex 0.000095 0.002035 0.000000
endloop
endfacet
facet normal 0.000000 0.000000 -1.000000
outer loop
vertex 0.000014 0.001348 0.000000
vertex 0.000031 0.001587 0.000000
vertex 0.000058 0.001813 0.000000
endloop
endfacet
facet normal 0.000000 0.000000 -1.000000
outer loop
vertex 0.000000 0.000857 0.000000
vertex 0.000001 0.000972 0.000000
vertex 0.000014 0.001348 0.000000
endloop
endfacet
facet normal 0.000000 0.000000 -1.000000
outer loop
vertex 0.000015 0.000556 0.000000
vertex 0.000002 0.000749 0.000000
vertex 0.000000 0.000857 0.000000
endloop
endfacet
facet normal 0.000000 0.000000 -1.000000
outer loop
vertex 0.000071 0.000331 0.000000
vertex 0.000047 0.000397 0.000000
vertex 0.000015 0.000556 0.000000
endloop
endfacet
facet normal 0.000000 0.000000 -1.000000
outer loop
vertex 0.000138 0.000230 0.000000
vertex 0.000101 0.000275 0.000000
vertex 0.000071 0.000331 0.000000
endloop
endfacet
facet normal 0.000000 0.000000 -1.000000
outer loop
vertex 0.000376 0.000095 0.000000
vertex 0.000182 0.000195 0.000000
vertex 0.000138 0.000230 0.000000
endloop
endfacet
facet normal 0.000000 0.000000 -1.000000
outer loop
vertex 0.000547 0.000047 0.000000
vertex 0.000486 0.000060 0.000000
vertex 0.000376 0.000095 0.000000
endloop
endfacet
facet normal 0.000000 0.000000 -1.000000
outer loop
vertex 0.004430 0.000214 0.000000
vertex 0.000689 0.000032 0.000000
vertex 0.000547 0.000047 0.000000
endloop
endfacet
facet normal 0.000000 0.000000 -1.000000
outer loop
vertex 0.004430 0.000214 0.000000
vertex 0.000547 0.000047 0.000000
vertex 0.000376 0.000095 0.000000
endloop
endfacet
facet normal 0.000000 0.000000 -1.000000
outer loop
vertex 0.000376 0.000095 0.000000
vertex 0.000138 0.000230 0.000000
vertex 0.000071 0.000331 0.000000
endloop
endfacet
facet normal 0.000000 0.000000 -1.000000
outer loop
vertex 0.000071 0.000331 0.000000
vertex 0.000015 0.000556 0.000000
vertex 0.000000 0.000857 0.000000
endloop
endfacet
facet normal 0.000000 0.000000 -1.000000
outer loop
vertex 0.000000 0.000857 0.000000
vertex 0.000014 0.001348 0.000000
vertex 0.000058 0.001813 0.000000
endloop
endfacet
facet normal 0.000000 0.000000 -1.000000
outer loop
vertex 0.000058 0.001813 0.000000
vertex 0.000095 0.002035 0.000000
vertex 0.000144 0.002263 0.000000
endloop
endfacet
facet normal 0.000000 0.000000 -1.000000
outer loop
vertex 0.000144 0.002263 0.000000
vertex 0.000244 0.002640 0.000000
vertex 0.000393 0.002911 0.000000
endloop
endfacet
facet normal 0.000000 0.000000 -1.000000
outer loop
vertex 0.000393 0.002911 0.000000
vertex 0.000652 0.003171 0.000000
vertex 0.001142 0.003513 0.000000
endloop
endfacet
facet normal 0.000000 0.000000 -1.000000
outer loop
vertex 0.001142 0.003513 0.000000
vertex 0.001607 0.003756 0.000000
vertex 0.003179 0.004064 0.000000
endloop
endfacet
facet normal 0.000000 0.000000 -1.000000
outer loop
vertex 0.003179 0.004064 0.000000
vertex 0.003968 0.003979 0.000000
vertex 0.004912 0.003672 0.000000
endloop
endfacet
facet normal 0.000000 0.000000 -1.000000
outer loop
vertex 0.004912 0.003672 0.000000
vertex 0.005853 0.003156 0.000000
vertex 0.006280 0.002766 0.000000
endloop
endfacet
facet normal 0.000000 0.000000 -1.000000
outer loop
vertex 0.006280 0.002766 0.000000
vertex 0.006473 0.002369 0.000000
vertex 0.006534 0.002237 0.000000
endloop
endfacet
facet normal 0.000000 0.000000 -1.000000
outer loop
vertex 0.006534 0.002237 0.000000
vertex 0.006607 0.002086 0.000000
vertex 0.006678 0.001934 0.000000
endloop
endfacet
facet normal 0.000000 0.000000 -1.000000
outer loop
vertex 0.006678 0.001934 0.000000
vertex 0.006730 0.001795 0.000000
vertex 0.006766 0.001669 0.000000
endloop
endfacet
facet normal 0.000000 0.000000 -1.000000
outer loop
vertex 0.006766 0.001669 0.000000
vertex 0.006787 0.001551 0.000000
vertex 0.006795 0.001440 0.000000
endloop
endfacet
facet normal 0.000000 0.000000 -1.000000
outer loop
vertex 0.006795 0.001440 0.000000
vertex 0.006794 0.001333 0.000000
vertex 0.006674 0.000502 0.000000
endloop
endfacet
facet normal 0.000000 0.000000 -1.000000
outer loop
vertex 0.006674 0.000502 0.000000
vertex 0.006645 0.000396 0.000000
vertex 0.006605 0.000311 0.000000
endloop
endfacet
facet normal 0.000000 0.000000 -1.000000
outer loop
vertex 0.006605 0.000311 0.000000
vertex 0.006556 0.000244 0.000000
vertex 0.006497 0.000193 0.000000
endloop
endfacet
facet normal 0.000000 0.000000 -1.000000
outer loop
vertex 0.006497 0.000193 0.000000
vertex 0.006429 0.000154 0.000000
vertex 0.006353 0.000125 0.000000
endloop
endfacet
facet normal 0.000000 0.000000 -1.000000
outer loop
vertex 0.006353 0.000125 0.000000
vertex 0.006267 0.000103 0.000000
vertex 0.005631 0.000002 0.000000
endloop
endfacet
facet normal 0.000000 0.000000 -1.000000
outer loop
vertex 0.005631 0.000002 0.000000
vertex 0.005545 0.000000 0.000000
vertex 0.005469 0.000006 0.000000
endloop
endfacet
facet normal 0.000000 0.000000 -1.000000
outer loop
vertex 0.005469 0.000006 0.000000
vertex 0.005400 0.000017 0.000000
vertex 0.005336 0.000034 0.000000
endloop
endfacet
facet normal 0.000000 0.000000 -1.000000
outer loop
vertex 0.005336 0.000034 0.000000
vertex 0.005274 0.000054 0.000000
vertex 0.005212 0.000076 0.000000
endloop
endfacet
facet normal 0.000000 0.000000 -1.000000
outer loop
vertex 0.005336 0.000034 0.000000
vertex 0.005212 0.000076 0.000000
vertex 0.005146 0.000100 0.000000
endloop
endfacet
facet normal 0.000000 0.000000 -1.000000
outer loop
vertex 0.005631 0.000002 0.000000
vertex 0.005469 0.000006 0.000000
vertex 0.005336 0.000034 0.000000
endloop
endfacet
facet normal 0.000000 0.000000 -1.000000
outer loop
vertex 0.006497 0.000193 0.000000
vertex 0.006353 0.000125 0.000000
vertex 0.005631 0.000002 0.000000
endloop
endfacet
facet normal 0.000000 0.000000 -1.000000
outer loop
vertex 0.006674 0.000502 0.000000
vertex 0.006605 0.000311 0.000000
vertex 0.006497 0.000193 0.000000
endloop
endfacet
facet normal 0.000000 0.000000 -1.000000
outer loop
vertex 0.006766 0.001669 0.000000
vertex 0.006795 0.001440 0.000000
vertex 0.006674 0.000502 0.000000
endloop
endfacet
facet normal 0.000000 0.000000 -1.000000
outer loop
vertex 0.006534 0.002237 0.000000
vertex 0.006678 0.001934 0.000000
vertex 0.006766 0.001669 0.000000
endloop
endfacet
facet normal 0.000000 0.000000 -1.000000
outer loop
vertex 0.004912 0.003672 0.000000
vertex 0.006280 0.002766 0.000000
vertex 0.006534 0.002237 0.000000
endloop
endfacet
facet normal 0.000000 0.000000 -1.000000
outer loop
vertex 0.001142 0.003513 0.000000
vertex 0.003179 0.004064 0.000000
vertex 0.004912 0.003672 0.000000
endloop
endfacet
facet normal 0.000000 0.000000 -1.000000
outer loop
vertex 0.000144 0.002263 0.000000
vertex 0.000393 0.002911 0.000000
vertex 0.001142 0.003513 0.000000
endloop
endfacet
facet normal 0.000000 0.000000 -1.000000
outer loop
vertex 0.000000 0.000857 0.000000
vertex 0.000058 0.001813 0.000000
vertex 0.000144 0.002263 0.000000
endloop
endfacet
facet normal 0.000000 0.000000 -1.000000
outer loop
vertex 0.000376 0.000095 0.000000
vertex 0.000071 0.000331 0.000000
vertex 0.000000 0.000857 0.000000
endloop
endfacet
facet normal 0.000000 0.000000 -1.000000
outer loop
vertex 0.004430 0.000214 0.000000
vertex 0.000376 0.000095 0.000000
vertex 0.000000 0.000857 0.000000
endloop
endfacet
facet normal 0.000000 0.000000 -1.000000
outer loop
vertex 0.000000 0.000857 0.000000
vertex 0.000144 0.002263 0.000000
vertex 0.001142 0.003513 0.000000
endloop
endfacet
facet normal 0.000000 0.000000 -1.000000
outer loop
vertex 0.001142 0.003513 0.000000
vertex 0.004912 0.003672 0.000000
vertex 0.006534 0.002237 0.000000
endloop
endfacet
facet normal 0.000000 0.000000 -1.000000
outer loop
vertex 0.006534 0.002237 0.000000
vertex 0.006766 0.001669 0.000000
vertex 0.006674 0.000502 0.000000
endloop
endfacet
facet normal 0.000000 0.000000 -1.000000
outer loop
vertex 0.006674 0.000502 0.000000
vertex 0.006497 0.000193 0.000000
vertex 0.005631 0.000002 0.000000
endloop
endfacet
facet normal 0.000000 0.000000 -1.000000
outer loop
vertex 0.005631 0.000002 0.000000
vertex 0.005336 0.000034 0.000000
vertex 0.005146 0.000100 0.000000
endloop
endfacet
facet normal 0.000000 0.000000 -1.000000
outer loop
vertex 0.005631 0.000002 0.000000
vertex 0.005146 0.000100 0.000000
vertex 0.005075 0.000124 0.000000
endloop
endfacet
facet normal 0.000000 0.000000 -1.000000
outer loop
vertex 0.006534 0.002237 0.000000
vertex 0.006674 0.000502 0.000000
vertex 0.005631 0.000002 0.000000
endloop
endfacet
facet normal 0.000000 0.000000 -1.000000
outer loop
vertex 0.000000 0.000857 0.000000
vertex 0.001142 0.003513 0.000000
vertex 0.006534 0.002237 0.000000
endloop
endfacet
facet normal 0.000000 0.000000 -1.000000
outer loop
vertex 0.004622 0.000206 0.000000
vertex 0.004430 0.000214 0.000000
vertex 0.000000 0.000857 0.000000
endloop
endfacet
facet normal 0.000000 0.000000 -1.000000
outer loop
vertex 0.004715 0.000197 0.000000
vertex 0.004622 0.000206 0.000000
vertex 0.000000 0.000857 0.000000
endloop
endfacet
facet normal 0.000000 0.000000 -1.000000
outer loop
vertex 0.006534 0.002237 0.000000
vertex 0.005631 0.000002 0.000000
vertex 0.005075 0.000124 0.000000
endloop
endfacet
facet normal 0.000000 0.000000 -1.000000
outer loop
vertex 0.006534 0.002237 0.000000
vertex 0.005075 0.000124 0.000000
vertex 0.004995 0.000147 0.000000
endloop
endfacet
facet normal 0.000000 0.000000 -1.000000
outer loop
vertex 0.004715 0.000197 0.000000
vertex 0.000000 0.000857 0.000000
vertex 0.006534 0.002237 0.000000
endloop
endfacet
facet normal 0.000000 0.000000 -1.000000
outer loop
vertex 0.006534 0.002237 0.000000
vertex 0.004995 0.000147 0.000000
vertex 0.004809 0.000185 0.000000
endloop
endfacet
facet normal 0.000000 0.000000 -1.000000
outer loop
vertex 0.006534 0.002237 0.000000
vertex 0.004809 0.000185 0.000000
vertex 0.004715 0.000197 0.000000
endloop
endfacet
facet normal -0.369406 0.929268 0.000000
outer loop
vertex 0.001820 0.003841 0.150000
vertex 0.001820 0.003841 0.000000
vertex 0.001607 0.003756 0.000000
endloop
endfacet
facet normal -0.369405 0.929268 0.000000
outer loop
vertex 0.001820 0.003841 0.150000
vertex 0.001607 0.003756 0.000000
vertex 0.001607 0.003756 0.150000
endloop
endfacet
facet normal 0.351250 -0.936282 0.000000
outer loop
vertex 0.006353 0.000125 0.150000
vertex 0.006353 0.000125 0.000000
vertex 0.006429 0.000154 0.000000
endloop
endfacet
facet normal 0.351250 -0.936282 0.000000
outer loop
vertex 0.006353 0.000125 0.150000
vertex 0.006429 0.000154 0.000000
vertex 0.006429 0.000154 0.150000
endloop
endfacet
facet normal -0.529441 0.848347 0.000000
outer loop
vertex 0.001142 0.003513 0.000000
vertex 0.000974 0.003408 0.000000
vertex 0.000974 0.003408 0.150000
endloop
endfacet
facet normal -0.529441 0.848347 0.000000
outer loop
vertex 0.001142 0.003513 0.000000
vertex 0.000974 0.003408 0.150000
vertex 0.001142 0.003513 0.150000
endloop
endfacet
facet normal -0.446590 0.894739 0.000000
outer loop
vertex 0.001607 0.003756 0.150000
vertex 0.001607 0.003756 0.000000
vertex 0.001308 0.003607 0.000000
endloop
endfacet
facet normal -0.494428 0.869219 0.000000
outer loop
vertex 0.001308 0.003607 0.000000
vertex 0.001142 0.003513 0.000000
vertex 0.001142 0.003513 0.150000
endloop
endfacet
facet normal -0.446590 0.894739 0.000000
outer loop
vertex 0.001308 0.003607 0.150000
vertex 0.001607 0.003756 0.150000
vertex 0.001308 0.003607 0.000000
endloop
endfacet
facet normal -0.494428 0.869219 0.000000
outer loop
vertex 0.001308 0.003607 0.000000
vertex 0.001142 0.003513 0.150000
vertex 0.001308 0.003607 0.150000
endloop
endfacet
facet normal -0.105120 -0.994460 0.000000
outer loop
vertex 0.000547 0.000047 0.150000
vertex 0.000547 0.000047 0.000000
vertex 0.000689 0.000032 0.000000
endloop
endfacet
facet normal -0.105120 -0.994460 0.000000
outer loop
vertex 0.000547 0.000047 0.150000
vertex 0.000689 0.000032 0.000000
vertex 0.000689 0.000032 0.150000
endloop
endfacet
facet normal 0.495453 -0.868635 0.000000
outer loop
vertex 0.006429 0.000154 0.150000
vertex 0.006429 0.000154 0.000000
vertex 0.006497 0.000193 0.000000
endloop
endfacet
facet normal 0.495453 -0.868635 0.000000
outer loop
vertex 0.006429 0.000154 0.150000
vertex 0.006497 0.000193 0.000000
vertex 0.006497 0.000193 0.150000
endloop
endfacet
facet normal 0.252502 0.967596 0.000000
outer loop
vertex 0.004502 0.003840 0.000000
vertex 0.003968 0.003979 0.000000
vertex 0.003968 0.003979 0.150000
endloop
endfacet
facet normal 0.252501 0.967597 0.000000
outer loop
vertex 0.004502 0.003840 0.000000
vertex 0.003968 0.003979 0.150000
vertex 0.004502 0.003840 0.150000
endloop
endfacet
facet normal -0.204790 -0.978806 0.000000
outer loop
vertex 0.000486 0.000060 0.150000
vertex 0.000486 0.000060 0.000000
vertex 0.000547 0.000047 0.000000
endloop
endfacet
facet normal -0.204790 -0.978806 0.000000
outer loop
vertex 0.000486 0.000060 0.150000
vertex 0.000547 0.000047 0.000000
vertex 0.000547 0.000047 0.150000
endloop
endfacet
facet normal 0.805233 -0.592958 0.000000
outer loop
vertex 0.006556 0.000244 0.150000
vertex 0.006556 0.000244 0.000000
vertex 0.006605 0.000311 0.000000
endloop
endfacet
facet normal 0.805242 -0.592946 0.000000
outer loop
vertex 0.006556 0.000244 0.150000
vertex 0.006605 0.000311 0.000000
vertex 0.006605 0.000311 0.150000
endloop
endfacet
facet normal -0.459864 -0.887989 0.000000
outer loop
vertex 0.000182 0.000195 0.000000
vertex 0.000376 0.000095 0.000000
vertex 0.000376 0.000095 0.150000
endloop
endfacet
facet normal -0.459864 -0.887989 0.000000
outer loop
vertex 0.000182 0.000195 0.000000
vertex 0.000376 0.000095 0.150000
vertex 0.000182 0.000195 0.150000
endloop
endfacet
facet normal -0.000299 0.000000 1.000000
outer loop
vertex 0.004704 0.003764 0.150000
vertex 0.004502 0.003840 0.150000
vertex 0.003968 0.003979 0.150000
endloop
endfacet
facet normal 0.000000 0.000000 1.000000
outer loop
vertex 0.003968 0.003979 0.150000
vertex 0.003750 0.004017 0.150000
vertex 0.003643 0.004033 0.150000
endloop
endfacet
facet normal 0.000000 0.000000 1.000000
outer loop
vertex 0.003643 0.004033 0.150000
vertex 0.003540 0.004045 0.150000
vertex 0.003179 0.004064 0.150000
endloop
endfacet
facet normal 0.000000 0.000000 1.000000
outer loop
vertex 0.003179 0.004064 0.150000
vertex 0.003025 0.004053 0.150000
vertex 0.001820 0.003841 0.150000
endloop
endfacet
facet normal 0.000000 0.000000 1.000000
outer loop
vertex 0.001820 0.003841 0.150000
vertex 0.001607 0.003756 0.150000
vertex 0.001308 0.003607 0.150000
endloop
endfacet
facet normal 0.000000 0.000000 1.000000
outer loop
vertex 0.001308 0.003607 0.150000
vertex 0.001142 0.003513 0.150000
vertex 0.000974 0.003408 0.150000
endloop
endfacet
facet normal -0.000462 0.000000 1.000000
outer loop
vertex 0.000974 0.003408 0.150000
vertex 0.000652 0.003171 0.150000
vertex 0.000512 0.003043 0.150000
endloop
endfacet
facet normal -0.000919 0.000000 1.000000
outer loop
vertex 0.000512 0.003043 0.150000
vertex 0.000393 0.002911 0.150000
vertex 0.000301 0.002776 0.150000
endloop
endfacet
facet normal 0.001363 0.000000 0.999999
outer loop
vertex 0.000301 0.002776 0.150000
vertex 0.000244 0.002640 0.150000
vertex 0.000174 0.002383 0.150000
endloop
endfacet
facet normal 0.012898 0.000000 0.999917
outer loop
vertex 0.000174 0.002383 0.150000
vertex 0.000144 0.002263 0.150000
vertex 0.000118 0.002148 0.150000
endloop
endfacet
facet normal 0.012065 0.000000 0.999927
outer loop
vertex 0.000118 0.002148 0.150000
vertex 0.000095 0.002035 0.150000
vertex 0.000075 0.001923 0.150000
endloop
endfacet
facet normal 0.000000 0.000000 1.000000
outer loop
vertex 0.000075 0.001923 0.150000
vertex 0.000058 0.001813 0.150000
vertex 0.000031 0.001587 0.150000
endloop
endfacet
facet normal 0.000000 0.000000 1.000000
outer loop
vertex 0.000031 0.001587 0.150000
vertex 0.000014 0.001348 0.150000
vertex 0.000001 0.000972 0.150000
endloop
endfacet
facet normal -0.012324 0.000000 0.999924
outer loop
vertex 0.000001 0.000972 0.150000
vertex 0.000000 0.000857 0.150000
vertex 0.000002 0.000749 0.150000
endloop
endfacet
facet normal 0.000000 0.000000 1.000000
outer loop
vertex 0.000002 0.000749 0.150000
vertex 0.000015 0.000556 0.150000
vertex 0.000047 0.000397 0.150000
endloop
endfacet
facet normal -0.002814 0.000000 0.999996
outer loop
vertex 0.000047 0.000397 0.150000
vertex 0.000071 0.000331 0.150000
vertex 0.000101 0.000275 0.150000
endloop
endfacet
facet normal 0.000000 0.000000 1.000000
outer loop
vertex 0.000101 0.000275 0.150000
vertex 0.000138 0.000230 0.150000
vertex 0.000182 0.000195 0.150000
endloop
endfacet
facet normal 0.000218 0.000000 1.000000
outer loop
vertex 0.000182 0.000195 0.150000
vertex 0.000376 0.000095 0.150000
vertex 0.000486 0.000060 0.150000
endloop
endfacet
facet normal 0.000505 0.000000 1.000000
outer loop
vertex 0.000486 0.000060 0.150000
vertex 0.000547 0.000047 0.150000
vertex 0.000689 0.000032 0.150000
endloop
endfacet
facet normal 0.000000 0.000000 1.000000
outer loop
vertex 0.000486 0.000060 0.150000
vertex 0.000689 0.000032 0.150000
vertex 0.004430 0.000214 0.150000
endloop
endfacet
facet normal -0.000550 0.000000 1.000000
outer loop
vertex 0.000101 0.000275 0.150000
vertex 0.000182 0.000195 0.150000
vertex 0.000486 0.000060 0.150000
endloop
endfacet
facet normal 0.000000 0.000000 1.000000
outer loop
vertex 0.000002 0.000749 0.150000
vertex 0.000047 0.000397 0.150000
vertex 0.000101 0.000275 0.150000
endloop
endfacet
facet normal -0.001998 0.000000 0.999998
outer loop
vertex 0.000031 0.001587 0.150000
vertex 0.000001 0.000972 0.150000
vertex 0.000002 0.000749 0.150000
endloop
endfacet
facet normal -0.001565 0.000000 0.999999
outer loop
vertex 0.000118 0.002148 0.150000
vertex 0.000075 0.001923 0.150000
vertex 0.000031 0.001587 0.150000
endloop
endfacet
facet normal 0.000000 0.000000 1.000000
outer loop
vertex 0.000301 0.002776 0.150000
vertex 0.000174 0.002383 0.150000
vertex 0.000118 0.002148 0.150000
endloop
endfacet
facet normal 0.000000 0.000000 1.000000
outer loop
vertex 0.000974 0.003408 0.150000
vertex 0.000512 0.003043 0.150000
vertex 0.000301 0.002776 0.150000
endloop
endfacet
facet normal 0.000000 0.000000 1.000000
outer loop
vertex 0.001820 0.003841 0.150000
vertex 0.001308 0.003607 0.150000
vertex 0.000974 0.003408 0.150000
endloop
endfacet
facet normal 0.000000 0.000000 1.000000
outer loop
vertex 0.003643 0.004033 0.150000
vertex 0.003179 0.004064 0.150000
vertex 0.001820 0.003841 0.150000
endloop
endfacet
facet normal 0.000060 0.000000 1.000000
outer loop
vertex 0.004704 0.003764 0.150000
vertex 0.003968 0.003979 0.150000
vertex 0.003643 0.004033 0.150000
endloop
endfacet
facet normal 0.002576 0.000000 0.999997
outer loop
vertex 0.004912 0.003672 0.150000
vertex 0.004806 0.003721 0.150000
vertex 0.004704 0.003764 0.150000
endloop
endfacet
facet normal 0.000000 0.000000 1.000000
outer loop
vertex 0.005141 0.003558 0.150000
vertex 0.005023 0.003618 0.150000
vertex 0.004912 0.003672 0.150000
endloop
endfacet
facet normal -0.001944 0.000000 0.999998
outer loop
vertex 0.005853 0.003156 0.150000
vertex 0.005703 0.003246 0.150000
vertex 0.005141 0.003558 0.150000
endloop
endfacet
facet normal -0.000950 0.000000 1.000000
outer loop
vertex 0.006158 0.002921 0.150000
vertex 0.006076 0.002996 0.150000
vertex 0.005853 0.003156 0.150000
endloop
endfacet
facet normal 0.000000 0.000000 1.000000
outer loop
vertex 0.006280 0.002766 0.150000
vertex 0.006224 0.002845 0.150000
vertex 0.006158 0.002921 0.150000
endloop
endfacet
facet normal 0.002809 0.000000 0.999996
outer loop
vertex 0.006375 0.002589 0.150000
vertex 0.006329 0.002681 0.150000
vertex 0.006280 0.002766 0.150000
endloop
endfacet
facet normal -0.001086 0.000000 0.999999
outer loop
vertex 0.006473 0.002369 0.150000
vertex 0.006375 0.002589 0.150000
vertex 0.006280 0.002766 0.150000
endloop
endfacet
facet normal 0.000000 0.000000 1.000000
outer loop
vertex 0.006280 0.002766 0.150000
vertex 0.006158 0.002921 0.150000
vertex 0.005853 0.003156 0.150000
endloop
endfacet
facet normal 0.000356 0.000000 1.000000
outer loop
vertex 0.005853 0.003156 0.150000
vertex 0.005141 0.003558 0.150000
vertex 0.004912 0.003672 0.150000
endloop
endfacet
facet normal 0.000000 0.000000 1.000000
outer loop
vertex 0.004912 0.003672 0.150000
vertex 0.004704 0.003764 0.150000
vertex 0.003643 0.004033 0.150000
endloop
endfacet
facet normal 0.000000 0.000000 1.000000
outer loop
vertex 0.003643 0.004033 0.150000
vertex 0.001820 0.003841 0.150000
vertex 0.000974 0.003408 0.150000
endloop
endfacet
facet normal -0.000047 0.000000 1.000000
outer loop
vertex 0.000974 0.003408 0.150000
vertex 0.000301 0.002776 0.150000
vertex 0.000118 0.002148 0.150000
endloop
endfacet
facet normal -0.000519 0.000000 1.000000
outer loop
vertex 0.000118 0.002148 0.150000
vertex 0.000031 0.001587 0.150000
vertex 0.000002 0.000749 0.150000
endloop
endfacet
facet normal 0.000000 0.000000 1.000000
outer loop
vertex 0.000002 0.000749 0.150000
vertex 0.000101 0.000275 0.150000
vertex 0.000486 0.000060 0.150000
endloop
endfacet
facet normal 0.000000 0.000000 1.000000
outer loop
vertex 0.000002 0.000749 0.150000
vertex 0.000486 0.000060 0.150000
vertex 0.004430 0.000214 0.150000
endloop
endfacet
facet normal 0.000000 0.000000 1.000000
outer loop
vertex 0.000974 0.003408 0.150000
vertex 0.000118 0.002148 0.150000
vertex 0.000002 0.000749 0.150000
endloop
endfacet
facet normal 0.000008 0.000000 1.000000
outer loop
vertex 0.004912 0.003672 0.150000
vertex 0.003643 0.004033 0.150000
vertex 0.000974 0.003408 0.150000
endloop
endfacet
facet normal 0.000099 0.000000 1.000000
outer loop
vertex 0.006280 0.002766 0.150000
vertex 0.005853 0.003156 0.150000
vertex 0.004912 0.003672 0.150000
endloop
endfacet
facet normal -0.004853 0.000000 0.999988
outer loop
vertex 0.006534 0.002237 0.150000
vertex 0.006473 0.002369 0.150000
vertex 0.006280 0.002766 0.150000
endloop
endfacet
facet normal 0.007116 0.000000 0.999975
outer loop
vertex 0.006678 0.001934 0.150000
vertex 0.006607 0.002086 0.150000
vertex 0.006534 0.002237 0.150000
endloop
endfacet
facet normal 0.000000 0.000000 1.000000
outer loop
vertex 0.006766 0.001669 0.150000
vertex 0.006730 0.001795 0.150000
vertex 0.006678 0.001934 0.150000
endloop
endfacet
facet normal 0.000000 0.000000 1.000000
outer loop
vertex 0.006795 0.001440 0.150000
vertex 0.006787 0.001551 0.150000
vertex 0.006766 0.001669 0.150000
endloop
endfacet
facet normal 0.001253 0.000000 0.999999
outer loop
vertex 0.006674 0.000502 0.150000
vertex 0.006794 0.001333 0.150000
vertex 0.006795 0.001440 0.150000
endloop
endfacet
facet normal -0.002170 0.000000 0.999998
outer loop
vertex 0.006605 0.000311 0.150000
vertex 0.006645 0.000396 0.150000
vertex 0.006674 0.000502 0.150000
endloop
endfacet
facet normal -0.001307 0.000000 0.999999
outer loop
vertex 0.006497 0.000193 0.150000
vertex 0.006556 0.000244 0.150000
vertex 0.006605 0.000311 0.150000
endloop
endfacet
facet normal 0.000895 0.000000 1.000000
outer loop
vertex 0.006353 0.000125 0.150000
vertex 0.006429 0.000154 0.150000
vertex 0.006497 0.000193 0.150000
endloop
endfacet
facet normal -0.000089 0.000000 1.000000
outer loop
vertex 0.005631 0.000002 0.150000
vertex 0.006267 0.000103 0.150000
vertex 0.006353 0.000125 0.150000
endloop
endfacet
facet normal 0.000286 0.000000 1.000000
outer loop
vertex 0.005469 0.000006 0.150000
vertex 0.005545 0.000000 0.150000
vertex 0.005631 0.000002 0.150000
endloop
endfacet
facet normal -0.000591 0.000000 1.000000
outer loop
vertex 0.005336 0.000034 0.150000
vertex 0.005400 0.000017 0.150000
vertex 0.005469 0.000006 0.150000
endloop
endfacet
facet normal -0.003146 0.000000 0.999995
outer loop
vertex 0.005212 0.000076 0.150000
vertex 0.005274 0.000054 0.150000
vertex 0.005336 0.000034 0.150000
endloop
endfacet
facet normal 0.005072 0.000000 0.999987
outer loop
vertex 0.005146 0.000100 0.150000
vertex 0.005212 0.000076 0.150000
vertex 0.005336 0.000034 0.150000
endloop
endfacet
facet normal 0.000000 0.000000 1.000000
outer loop
vertex 0.005336 0.000034 0.150000
vertex 0.005469 0.000006 0.150000
vertex 0.005631 0.000002 0.150000
endloop
endfacet
facet normal -0.000059 0.000000 1.000000
outer loop
vertex 0.005631 0.000002 0.150000
vertex 0.006353 0.000125 0.150000
vertex 0.006497 0.000193 0.150000
endloop
endfacet
facet normal -0.000292 0.000000 1.000000
outer loop
vertex 0.006497 0.000193 0.150000
vertex 0.006605 0.000311 0.150000
vertex 0.006674 0.000502 0.150000
endloop
endfacet
facet normal -0.000393 0.000000 1.000000
outer loop
vertex 0.006674 0.000502 0.150000
vertex 0.006795 0.001440 0.150000
vertex 0.006766 0.001669 0.150000
endloop
endfacet
facet normal -0.000624 0.000000 1.000000
outer loop
vertex 0.006766 0.001669 0.150000
vertex 0.006678 0.001934 0.150000
vertex 0.006534 0.002237 0.150000
endloop
endfacet
facet normal 0.000000 0.000000 1.000000
outer loop
vertex 0.006534 0.002237 0.150000
vertex 0.006280 0.002766 0.150000
vertex 0.004912 0.003672 0.150000
endloop
endfacet
facet normal 0.000006 0.000000 1.000000
outer loop
vertex 0.004912 0.003672 0.150000
vertex 0.000974 0.003408 0.150000
vertex 0.000002 0.000749 0.150000
endloop
endfacet
facet normal -0.000040 0.000000 1.000000
outer loop
vertex 0.000002 0.000749 0.150000
vertex 0.004430 0.000214 0.150000
vertex 0.004622 0.000206 0.150000
endloop
endfacet
facet normal 0.000890 0.000000 1.000000
outer loop
vertex 0.000002 0.000749 0.150000
vertex 0.004622 0.000206 0.150000
vertex 0.004715 0.000197 0.150000
endloop
endfacet
facet normal -0.000005 0.000000 1.000000
outer loop
vertex 0.006534 0.002237 0.150000
vertex 0.004912 0.003672 0.150000
vertex 0.000002 0.000749 0.150000
endloop
endfacet
facet normal 0.000045 0.000000 1.000000
outer loop
vertex 0.006674 0.000502 0.150000
vertex 0.006766 0.001669 0.150000
vertex 0.006534 0.002237 0.150000
endloop
endfacet
facet normal 0.000031 0.000000 1.000000
outer loop
vertex 0.005631 0.000002 0.150000
vertex 0.006497 0.000193 0.150000
vertex 0.006674 0.000502 0.150000
endloop
endfacet
facet normal -0.000067 0.000000 1.000000
outer loop
vertex 0.005146 0.000100 0.150000
vertex 0.005336 0.000034 0.150000
vertex 0.005631 0.000002 0.150000
endloop
endfacet
facet normal 0.000000 0.000000 1.000000
outer loop
vertex 0.005075 0.000124 0.150000
vertex 0.005146 0.000100 0.150000
vertex 0.005631 0.000002 0.150000
endloop
endfacet
facet normal 0.000000 0.000000 1.000000
outer loop
vertex 0.005631 0.000002 0.150000
vertex 0.006674 0.000502 0.150000
vertex 0.006534 0.002237 0.150000
endloop
endfacet
facet normal 0.000001 0.000000 1.000000
outer loop
vertex 0.006534 0.002237 0.150000
vertex 0.000002 0.000749 0.150000
vertex 0.004715 0.000197 0.150000
endloop
endfacet
facet normal -0.000006 0.000000 1.000000
outer loop
vertex 0.006534 0.002237 0.150000
vertex 0.004715 0.000197 0.150000
vertex 0.004809 0.000185 0.150000
endloop
endfacet
facet normal 0.000000 0.000000 1.000000
outer loop
vertex 0.005075 0.000124 0.150000
vertex 0.005631 0.000002 0.150000
vertex 0.006534 0.002237 0.150000
endloop
endfacet
facet normal 0.000065 0.000000 1.000000
outer loop
vertex 0.006534 0.002237 0.150000
vertex 0.004809 0.000185 0.150000
vertex 0.004995 0.000147 0.150000
endloop
endfacet
facet normal -0.000289 0.000000 1.000000
outer loop
vertex 0.004995 0.000147 0.150000
vertex 0.005075 0.000124 0.150000
vertex 0.006534 0.002237 0.150000
endloop
endfacet
facet normal 0.679894 0.733310 0.000000
outer loop
vertex 0.006158 0.002921 0.150000
vertex 0.006158 0.002921 0.000000
vertex 0.006076 0.002996 0.000000
endloop
endfacet
facet normal 0.679887 0.733316 0.000000
outer loop
vertex 0.006158 0.002921 0.150000
vertex 0.006076 0.002996 0.000000
vertex 0.006076 0.002996 0.150000
endloop
endfacet
facet normal 0.866011 0.500024 0.000000
outer loop
vertex 0.006329 0.002681 0.150000
vertex 0.006329 0.002681 0.000000
vertex 0.006280 0.002766 0.000000
endloop
endfacet
facet normal 0.866011 0.500024 0.000000
outer loop
vertex 0.006329 0.002681 0.150000
vertex 0.006280 0.002766 0.000000
vertex 0.006280 0.002766 0.150000
endloop
endfacet
facet normal 0.392382 0.919802 0.000000
outer loop
vertex 0.004806 0.003721 0.000000
vertex 0.004704 0.003764 0.000000
vertex 0.004704 0.003764 0.150000
endloop
endfacet
facet normal 0.392379 0.919804 0.000000
outer loop
vertex 0.004806 0.003721 0.000000
vertex 0.004704 0.003764 0.150000
vertex 0.004806 0.003721 0.150000
endloop
endfacet
facet normal 0.417170 0.908828 0.000000
outer loop
vertex 0.004912 0.003672 0.000000
vertex 0.004806 0.003721 0.000000
vertex 0.004806 0.003721 0.150000
endloop
endfacet
facet normal 0.417173 0.908827 0.000000
outer loop
vertex 0.004912 0.003672 0.000000
vertex 0.004806 0.003721 0.150000
vertex 0.004912 0.003672 0.150000
endloop
endfacet
facet normal 0.438542 0.898711 0.000000
outer loop
vertex 0.005023 0.003618 0.000000
vertex 0.004912 0.003672 0.000000
vertex 0.004912 0.003672 0.150000
endloop
endfacet
facet normal 0.438544 0.898710 0.000000
outer loop
vertex 0.005023 0.003618 0.000000
vertex 0.004912 0.003672 0.150000
vertex 0.005023 0.003618 0.150000
endloop
endfacet
facet normal 0.456252 0.889851 0.000000
outer loop
vertex 0.005141 0.003558 0.000000
vertex 0.005023 0.003618 0.000000
vertex 0.005023 0.003618 0.150000
endloop
endfacet
facet normal 0.456252 0.889851 0.000000
outer loop
vertex 0.005141 0.003558 0.000000
vertex 0.005023 0.003618 0.150000
vertex 0.005141 0.003558 0.150000
endloop
endfacet
facet normal 0.513653 0.857998 0.000000
outer loop
vertex 0.005853 0.003156 0.150000
vertex 0.005853 0.003156 0.000000
vertex 0.005703 0.003246 0.000000
endloop
endfacet
facet normal 0.484771 0.874641 0.000000
outer loop
vertex 0.005703 0.003246 0.000000
vertex 0.005141 0.003558 0.000000
vertex 0.005141 0.003558 0.150000
endloop
endfacet
facet normal 0.513655 0.857997 0.000000
outer loop
vertex 0.005703 0.003246 0.150000
vertex 0.005853 0.003156 0.150000
vertex 0.005703 0.003246 0.000000
endloop
endfacet
facet normal 0.484771 0.874641 0.000000
outer loop
vertex 0.005141 0.003558 0.150000
vertex 0.005703 0.003246 0.150000
vertex 0.005703 0.003246 0.000000
endloop
endfacet
facet normal 0.906741 -0.421687 0.000000
outer loop
vertex 0.006605 0.000311 0.150000
vertex 0.006605 0.000311 0.000000
vertex 0.006645 0.000396 0.000000
endloop
endfacet
facet normal 0.906748 -0.421673 0.000000
outer loop
vertex 0.006605 0.000311 0.150000
vertex 0.006645 0.000396 0.000000
vertex 0.006645 0.000396 0.150000
endloop
endfacet
facet normal 0.000000 0.000000 1.000000
outer loop
vertex 0.000118 0.002148 0.000000
vertex 0.000095 0.002035 0.000000
vertex 0.000075 0.001923 0.000000
endloop
endfacet
facet normal -0.988236 0.152936 0.000000
outer loop
vertex 0.000075 0.001923 0.000000
vertex 0.000058 0.001813 0.000000
vertex 0.000058 0.001813 0.150000
endloop
endfacet
facet normal -0.988236 0.152936 0.000000
outer loop
vertex 0.000075 0.001923 0.000000
vertex 0.000058 0.001813 0.150000
vertex 0.000075 0.001923 0.150000
endloop
endfacet
facet normal 0.000000 0.000000 1.000000
outer loop
vertex 0.000144 0.002263 0.000000
vertex 0.000118 0.002148 0.000000
vertex 0.000075 0.001923 0.000000
endloop
endfacet
facet normal 0.000000 0.000000 1.000000
outer loop
vertex 0.000244 0.002640 0.000000
vertex 0.000174 0.002383 0.000000
vertex 0.000144 0.002263 0.000000
endloop
endfacet
facet normal -0.964989 0.262290 0.000000
outer loop
vertex 0.000174 0.002383 0.150000
vertex 0.000244 0.002640 0.150000
vertex 0.000244 0.002640 0.000000
endloop
endfacet
facet normal -0.970986 0.239135 -0.000042
outer loop
vertex 0.000144 0.002263 0.150000
vertex 0.000174 0.002383 0.150000
vertex 0.000244 0.002640 0.000000
endloop
endfacet
facet normal 0.000000 0.000000 1.000000
outer loop
vertex 0.000244 0.002640 0.000000
vertex 0.000144 0.002263 0.000000
vertex 0.000075 0.001923 0.000000
endloop
endfacet
facet normal -0.984260 0.176728 0.000000
outer loop
vertex 0.000075 0.001923 0.000000
vertex 0.000075 0.001923 0.150000
vertex 0.000095 0.002035 0.150000
endloop
endfacet
facet normal -0.975406 0.220414 -0.000092
outer loop
vertex 0.000118 0.002148 0.150000
vertex 0.000144 0.002263 0.150000
vertex 0.000244 0.002640 0.000000
endloop
endfacet
facet normal -0.979909 0.199447 -0.000017
outer loop
vertex 0.000075 0.001923 0.000000
vertex 0.000095 0.002035 0.150000
vertex 0.000118 0.002148 0.150000
endloop
endfacet
facet normal -0.973468 0.228823 -0.000063
outer loop
vertex 0.000075 0.001923 0.000000
vertex 0.000118 0.002148 0.150000
vertex 0.000244 0.002640 0.000000
endloop
endfacet
facet normal -0.997484 -0.070892 0.000000
outer loop
vertex 0.000002 0.000749 0.000000
vertex 0.000015 0.000556 0.000000
vertex 0.000015 0.000556 0.150000
endloop
endfacet
facet normal -0.997484 -0.070892 0.000000
outer loop
vertex 0.000002 0.000749 0.000000
vertex 0.000015 0.000556 0.150000
vertex 0.000002 0.000749 0.150000
endloop
endfacet
facet normal -0.164586 -0.986363 0.000000
outer loop
vertex 0.005400 0.000017 0.150000
vertex 0.005400 0.000017 0.000000
vertex 0.005469 0.000006 0.000000
endloop
endfacet
facet normal -0.164588 -0.986362 0.000000
outer loop
vertex 0.005400 0.000017 0.150000
vertex 0.005469 0.000006 0.000000
vertex 0.005469 0.000006 0.150000
endloop
endfacet
facet normal 0.984349 0.176232 0.000000
outer loop
vertex 0.006787 0.001551 0.150000
vertex 0.006787 0.001551 0.000000
vertex 0.006766 0.001669 0.000000
endloop
endfacet
facet normal 0.984351 0.176219 0.000000
outer loop
vertex 0.006787 0.001551 0.150000
vertex 0.006766 0.001669 0.000000
vertex 0.006766 0.001669 0.150000
endloop
endfacet
facet normal 0.000000 0.000000 -1.000000
outer loop
vertex 0.005075 0.000124 0.000000
vertex 0.005146 0.000100 0.000000
vertex 0.005212 0.000076 0.000000
endloop
endfacet
facet normal 0.000000 0.000000 -1.000000
outer loop
vertex 0.005075 0.000124 0.000000
vertex 0.005212 0.000076 0.000000
vertex 0.005274 0.000054 0.000000
endloop
endfacet
facet normal -0.277096 -0.960842 0.000000
outer loop
vertex 0.004995 0.000147 0.150000
vertex 0.004995 0.000147 0.000000
vertex 0.005075 0.000124 0.000000
endloop
endfacet
facet normal -0.277096 -0.960842 0.000000
outer loop
vertex 0.005075 0.000124 0.150000
vertex 0.004995 0.000147 0.150000
vertex 0.005075 0.000124 0.000000
endloop
endfacet
facet normal -0.331732 -0.943373 0.000000
outer loop
vertex 0.005075 0.000124 0.150000
vertex 0.005075 0.000124 0.000000
vertex 0.005274 0.000054 0.000000
endloop
endfacet
facet normal -0.318244 -0.948009 0.000020
outer loop
vertex 0.005146 0.000100 0.150000
vertex 0.005075 0.000124 0.150000
vertex 0.005274 0.000054 0.000000
endloop
endfacet
facet normal -0.246277 -0.969199 0.000000
outer loop
vertex 0.005336 0.000034 0.000000
vertex 0.005400 0.000017 0.000000
vertex 0.005400 0.000017 0.150000
endloop
endfacet
facet normal -0.306100 -0.951999 0.000032
outer loop
vertex 0.005146 0.000100 0.150000
vertex 0.005274 0.000054 0.000000
vertex 0.005336 0.000034 0.000000
endloop
endfacet
facet normal -0.340520 -0.940237 -0.000017
outer loop
vertex 0.005212 0.000076 0.150000
vertex 0.005146 0.000100 0.150000
vertex 0.005336 0.000034 0.000000
endloop
endfacet
facet normal -0.246274 -0.969200 0.000000
outer loop
vertex 0.005336 0.000034 0.000000
vertex 0.005400 0.000017 0.150000
vertex 0.005336 0.000034 0.150000
endloop
endfacet
facet normal -0.337710 -0.941250 -0.000015
outer loop
vertex 0.005274 0.000054 0.150000
vertex 0.005212 0.000076 0.150000
vertex 0.005336 0.000034 0.000000
endloop
endfacet
facet normal -0.306096 -0.952000 0.000000
outer loop
vertex 0.005336 0.000034 0.000000
vertex 0.005336 0.000034 0.150000
vertex 0.005274 0.000054 0.150000
endloop
endfacet
facet normal -0.999874 -0.015859 0.000000
outer loop
vertex 0.000000 0.000857 0.000000
vertex 0.000002 0.000749 0.000000
vertex 0.000002 0.000749 0.150000
endloop
endfacet
facet normal -0.999874 -0.015859 0.000000
outer loop
vertex 0.000000 0.000857 0.000000
vertex 0.000002 0.000749 0.150000
vertex 0.000000 0.000857 0.150000
endloop
endfacet
facet normal -0.999969 0.007902 0.000000
outer loop
vertex 0.000001 0.000972 0.000000
vertex 0.000000 0.000857 0.000000
vertex 0.000000 0.000857 0.150000
endloop
endfacet
facet normal -0.999969 0.007902 0.000000
outer loop
vertex 0.000001 0.000972 0.000000
vertex 0.000000 0.000857 0.150000
vertex 0.000001 0.000972 0.150000
endloop
endfacet
facet normal -0.999404 0.034504 0.000000
outer loop
vertex 0.000014 0.001348 0.000000
vertex 0.000001 0.000972 0.000000
vertex 0.000001 0.000972 0.150000
endloop
endfacet
facet normal -0.999404 0.034504 0.000000
outer loop
vertex 0.000014 0.001348 0.000000
vertex 0.000001 0.000972 0.150000
vertex 0.000014 0.001348 0.150000
endloop
endfacet
facet normal -0.993128 0.117032 0.000000
outer loop
vertex 0.000058 0.001813 0.150000
vertex 0.000058 0.001813 0.000000
vertex 0.000031 0.001587 0.000000
endloop
endfacet
facet normal -0.997342 0.072870 0.000000
outer loop
vertex 0.000031 0.001587 0.000000
vertex 0.000014 0.001348 0.000000
vertex 0.000014 0.001348 0.150000
endloop
endfacet
facet normal -0.993128 0.117032 0.000000
outer loop
vertex 0.000031 0.001587 0.150000
vertex 0.000058 0.001813 0.150000
vertex 0.000031 0.001587 0.000000
endloop
endfacet
facet normal -0.997342 0.072870 0.000000
outer loop
vertex 0.000031 0.001587 0.000000
vertex 0.000014 0.001348 0.150000
vertex 0.000031 0.001587 0.150000
endloop
endfacet
facet normal 0.018970 -0.999820 0.000000
outer loop
vertex 0.005545 0.000000 0.150000
vertex 0.005545 0.000000 0.000000
vertex 0.005631 0.000002 0.000000
endloop
endfacet
facet normal 0.018970 -0.999820 0.000000
outer loop
vertex 0.005545 0.000000 0.150000
vertex 0.005631 0.000002 0.000000
vertex 0.005631 0.000002 0.150000
endloop
endfacet
facet normal 0.658933 -0.752202 0.000000
outer loop
vertex 0.006497 0.000193 0.150000
vertex 0.006497 0.000193 0.000000
vertex 0.006556 0.000244 0.000000
endloop
endfacet
facet normal 0.658928 -0.752206 0.000000
outer loop
vertex 0.006497 0.000193 0.150000
vertex 0.006556 0.000244 0.000000
vertex 0.006556 0.000244 0.150000
endloop
endfacet
facet normal 0.000000 0.000000 -1.000000
outer loop
vertex 0.004430 0.000214 0.000000
vertex 0.004622 0.000206 0.000000
vertex 0.004715 0.000197 0.000000
endloop
endfacet
facet normal -0.134219 -0.990952 0.000000
outer loop
vertex 0.004715 0.000197 0.000000
vertex 0.004809 0.000185 0.000000
vertex 0.004809 0.000185 0.150000
endloop
endfacet
facet normal -0.134219 -0.990952 0.000000
outer loop
vertex 0.004715 0.000197 0.000000
vertex 0.004809 0.000185 0.150000
vertex 0.004715 0.000197 0.150000
endloop
endfacet
facet normal -0.058394 -0.998294 0.000000
outer loop
vertex 0.004430 0.000214 0.150000
vertex 0.004430 0.000214 0.000000
vertex 0.004715 0.000197 0.000000
endloop
endfacet
facet normal -0.093967 -0.995575 0.000000
outer loop
vertex 0.004715 0.000197 0.000000
vertex 0.004715 0.000197 0.150000
vertex 0.004622 0.000206 0.150000
endloop
endfacet
facet normal -0.040993 -0.999159 0.000033
outer loop
vertex 0.004715 0.000197 0.000000
vertex 0.004622 0.000206 0.150000
vertex 0.004430 0.000214 0.150000
endloop
endfacet
facet normal -0.939680 -0.342054 0.000000
outer loop
vertex 0.000047 0.000397 0.150000
vertex 0.000047 0.000397 0.000000
vertex 0.000071 0.000331 0.000000
endloop
endfacet
facet normal -0.939680 -0.342054 0.000000
outer loop
vertex 0.000047 0.000397 0.150000
vertex 0.000071 0.000331 0.000000
vertex 0.000071 0.000331 0.150000
endloop
endfacet
facet normal -0.920347 0.391103 0.000000
outer loop
vertex 0.000301 0.002776 0.150000
vertex 0.000301 0.002776 0.000000
vertex 0.000244 0.002640 0.000000
endloop
endfacet
facet normal -0.920347 0.391103 0.000000
outer loop
vertex 0.000301 0.002776 0.150000
vertex 0.000244 0.002640 0.000000
vertex 0.000244 0.002640 0.150000
endloop
endfacet
facet normal -0.305639 -0.952147 0.000000
outer loop
vertex 0.000376 0.000095 0.000000
vertex 0.000486 0.000060 0.000000
vertex 0.000486 0.000060 0.150000
endloop
endfacet
facet normal -0.305639 -0.952147 0.000000
outer loop
vertex 0.000376 0.000095 0.000000
vertex 0.000486 0.000060 0.150000
vertex 0.000376 0.000095 0.150000
endloop
endfacet
facet normal -0.980996 -0.194028 0.000000
outer loop
vertex 0.000015 0.000556 0.150000
vertex 0.000015 0.000556 0.000000
vertex 0.000047 0.000397 0.000000
endloop
endfacet
facet normal -0.980996 -0.194028 0.000000
outer loop
vertex 0.000015 0.000556 0.150000
vertex 0.000047 0.000397 0.000000
vertex 0.000047 0.000397 0.150000
endloop
endfacet
facet normal 0.999914 -0.013108 0.000000
outer loop
vertex 0.006794 0.001333 0.150000
vertex 0.006794 0.001333 0.000000
vertex 0.006795 0.001440 0.000000
endloop
endfacet
facet normal 0.999914 -0.013108 0.000000
outer loop
vertex 0.006794 0.001333 0.150000
vertex 0.006795 0.001440 0.000000
vertex 0.006795 0.001440 0.150000
endloop
endfacet
facet normal -0.592789 0.805358 0.000000
outer loop
vertex 0.000974 0.003408 0.150000
vertex 0.000974 0.003408 0.000000
vertex 0.000652 0.003171 0.000000
endloop
endfacet
facet normal -0.592789 0.805358 0.000000
outer loop
vertex 0.000974 0.003408 0.150000
vertex 0.000652 0.003171 0.000000
vertex 0.000652 0.003171 0.150000
endloop
endfacet
facet normal -0.827611 0.561302 0.000000
outer loop
vertex 0.000393 0.002911 0.150000
vertex 0.000393 0.002911 0.000000
vertex 0.000301 0.002776 0.000000
endloop
endfacet
facet normal -0.827611 0.561302 0.000000
outer loop
vertex 0.000393 0.002911 0.150000
vertex 0.000301 0.002776 0.000000
vertex 0.000301 0.002776 0.150000
endloop
endfacet
facet normal 0.000000 0.000000 -1.000000
outer loop
vertex 0.006607 0.002086 0.000000
vertex 0.006534 0.002237 0.000000
vertex 0.006473 0.002369 0.000000
endloop
endfacet
facet normal 0.896368 0.443310 0.000000
outer loop
vertex 0.006375 0.002589 0.000000
vertex 0.006329 0.002681 0.000000
vertex 0.006329 0.002681 0.150000
endloop
endfacet
facet normal 0.000000 0.000000 -1.000000
outer loop
vertex 0.006607 0.002086 0.000000
vertex 0.006473 0.002369 0.000000
vertex 0.006375 0.002589 0.000000
endloop
endfacet
facet normal 0.935730 0.352717 0.000000
outer loop
vertex 0.006730 0.001795 0.150000
vertex 0.006730 0.001795 0.000000
vertex 0.006678 0.001934 0.000000
endloop
endfacet
facet normal 0.000000 0.000000 -1.000000
outer loop
vertex 0.006678 0.001934 0.000000
vertex 0.006607 0.002086 0.000000
vertex 0.006375 0.002589 0.000000
endloop
endfacet
facet normal 0.896374 0.443298 0.000000
outer loop
vertex 0.006375 0.002589 0.000000
vertex 0.006329 0.002681 0.150000
vertex 0.006375 0.002589 0.150000
endloop
endfacet
facet normal 0.912624 0.408801 0.000000
outer loop
vertex 0.006375 0.002589 0.000000
vertex 0.006375 0.002589 0.150000
vertex 0.006473 0.002369 0.150000
endloop
endfacet
facet normal 0.907479 0.420097 0.000072
outer loop
vertex 0.006730 0.001795 0.150000
vertex 0.006678 0.001934 0.000000
vertex 0.006375 0.002589 0.000000
endloop
endfacet
facet normal 0.935730 0.352717 -0.000351
outer loop
vertex 0.006678 0.001934 0.150000
vertex 0.006730 0.001795 0.150000
vertex 0.006375 0.002589 0.000000
endloop
endfacet
facet normal 0.909251 0.416248 0.000013
outer loop
vertex 0.006375 0.002589 0.000000
vertex 0.006473 0.002369 0.150000
vertex 0.006534 0.002237 0.150000
endloop
endfacet
facet normal 0.906770 0.421626 0.000008
outer loop
vertex 0.006607 0.002086 0.150000
vertex 0.006678 0.001934 0.150000
vertex 0.006375 0.002589 0.000000
endloop
endfacet
facet normal 0.898974 0.438002 0.000075
outer loop
vertex 0.006375 0.002589 0.000000
vertex 0.006534 0.002237 0.150000
vertex 0.006607 0.002086 0.150000
endloop
endfacet
facet normal -0.173025 0.984917 0.000000
outer loop
vertex 0.003025 0.004053 0.000000
vertex 0.001820 0.003841 0.000000
vertex 0.001820 0.003841 0.150000
endloop
endfacet
facet normal -0.173025 0.984917 0.000000
outer loop
vertex 0.003025 0.004053 0.000000
vertex 0.001820 0.003841 0.150000
vertex 0.003025 0.004053 0.150000
endloop
endfacet
facet normal 0.053370 0.998575 0.000000
outer loop
vertex 0.003540 0.004045 0.000000
vertex 0.003179 0.004064 0.000000
vertex 0.003179 0.004064 0.150000
endloop
endfacet
facet normal 0.053370 0.998575 0.000000
outer loop
vertex 0.003540 0.004045 0.000000
vertex 0.003179 0.004064 0.150000
vertex 0.003540 0.004045 0.150000
endloop
endfacet
facet normal -0.775267 -0.631634 0.000000
outer loop
vertex 0.000101 0.000275 0.150000
vertex 0.000101 0.000275 0.000000
vertex 0.000138 0.000230 0.000000
endloop
endfacet
facet normal -0.775267 -0.631634 0.000000
outer loop
vertex 0.000101 0.000275 0.150000
vertex 0.000138 0.000230 0.000000
vertex 0.000138 0.000230 0.150000
endloop
endfacet
facet normal 0.350235 0.936662 0.000000
outer loop
vertex 0.004704 0.003764 0.150000
vertex 0.004704 0.003764 0.000000
vertex 0.004502 0.003840 0.000000
endloop
endfacet
facet normal 0.350235 0.936662 0.000000
outer loop
vertex 0.004704 0.003764 0.150000
vertex 0.004502 0.003840 0.000000
vertex 0.004502 0.003840 0.150000
endloop
endfacet
facet normal -0.074628 0.997212 0.000000
outer loop
vertex 0.003179 0.004064 0.150000
vertex 0.003179 0.004064 0.000000
vertex 0.003025 0.004053 0.000000
endloop
endfacet
facet normal -0.074627 0.997212 0.000000
outer loop
vertex 0.003179 0.004064 0.150000
vertex 0.003025 0.004053 0.000000
vertex 0.003025 0.004053 0.150000
endloop
endfacet
facet normal -0.743135 0.669141 0.000000
outer loop
vertex 0.000512 0.003043 0.150000
vertex 0.000512 0.003043 0.000000
vertex 0.000393 0.002911 0.000000
endloop
endfacet
facet normal -0.743135 0.669141 0.000000
outer loop
vertex 0.000512 0.003043 0.150000
vertex 0.000393 0.002911 0.000000
vertex 0.000393 0.002911 0.150000
endloop
endfacet
facet normal 0.118674 0.992933 0.000000
outer loop
vertex 0.003643 0.004033 0.000000
vertex 0.003540 0.004045 0.000000
vertex 0.003540 0.004045 0.150000
endloop
endfacet
facet normal 0.118675 0.992933 0.000000
outer loop
vertex 0.003643 0.004033 0.000000
vertex 0.003540 0.004045 0.150000
vertex 0.003643 0.004033 0.150000
endloop
endfacet
facet normal 0.173055 0.984912 0.000000
outer loop
vertex 0.003968 0.003979 0.150000
vertex 0.003968 0.003979 0.000000
vertex 0.003750 0.004017 0.000000
endloop
endfacet
facet normal 0.140972 0.990013 0.000000
outer loop
vertex 0.003750 0.004017 0.000000
vertex 0.003643 0.004033 0.000000
vertex 0.003643 0.004033 0.150000
endloop
endfacet
facet normal 0.173055 0.984912 0.000000
outer loop
vertex 0.003750 0.004017 0.150000
vertex 0.003968 0.003979 0.150000
vertex 0.003750 0.004017 0.000000
endloop
endfacet
facet normal 0.140973 0.990013 0.000000
outer loop
vertex 0.003643 0.004033 0.150000
vertex 0.003750 0.004017 0.150000
vertex 0.003750 0.004017 0.000000
endloop
endfacet
facet normal -0.199446 -0.979909 0.000000
outer loop
vertex 0.004995 0.000147 0.000000
vertex 0.004995 0.000147 0.150000
vertex 0.004809 0.000185 0.150000
endloop
endfacet
facet normal -0.199445 -0.979909 0.000000
outer loop
vertex 0.004995 0.000147 0.000000
vertex 0.004809 0.000185 0.150000
vertex 0.004809 0.000185 0.000000
endloop
endfacet
facet normal 0.996915 0.078488 0.000000
outer loop
vertex 0.006795 0.001440 0.150000
vertex 0.006795 0.001440 0.000000
vertex 0.006787 0.001551 0.000000
endloop
endfacet
facet normal 0.996916 0.078474 0.000000
outer loop
vertex 0.006795 0.001440 0.150000
vertex 0.006787 0.001551 0.000000
vertex 0.006787 0.001551 0.150000
endloop
endfacet
facet normal 0.246275 -0.969200 0.000000
outer loop
vertex 0.006267 0.000103 0.150000
vertex 0.006267 0.000103 0.000000
vertex 0.006353 0.000125 0.000000
endloop
endfacet
facet normal 0.246275 -0.969200 0.000000
outer loop
vertex 0.006267 0.000103 0.150000
vertex 0.006353 0.000125 0.000000
vertex 0.006353 0.000125 0.150000
endloop
endfacet
facet normal 0.962870 0.269965 0.000000
outer loop
vertex 0.006766 0.001669 0.150000
vertex 0.006766 0.001669 0.000000
vertex 0.006730 0.001795 0.000000
endloop
endfacet
facet normal 0.962870 0.269965 0.000000
outer loop
vertex 0.006766 0.001669 0.150000
vertex 0.006730 0.001795 0.000000
vertex 0.006730 0.001795 0.150000
endloop
endfacet
facet normal -0.072185 -0.997391 0.000000
outer loop
vertex 0.005469 0.000006 0.150000
vertex 0.005469 0.000006 0.000000
vertex 0.005545 0.000000 0.000000
endloop
endfacet
facet normal -0.072186 -0.997391 0.000000
outer loop
vertex 0.005469 0.000006 0.150000
vertex 0.005545 0.000000 0.000000
vertex 0.005545 0.000000 0.150000
endloop
endfacet
facet normal 0.962990 -0.269535 0.000000
outer loop
vertex 0.006645 0.000396 0.150000
vertex 0.006645 0.000396 0.000000
vertex 0.006674 0.000502 0.000000
endloop
endfacet
facet normal 0.962987 -0.269548 0.000000
outer loop
vertex 0.006645 0.000396 0.150000
vertex 0.006674 0.000502 0.000000
vertex 0.006674 0.000502 0.150000
endloop
endfacet
facet normal 0.816959 0.576696 0.000000
outer loop
vertex 0.006280 0.002766 0.150000
vertex 0.006280 0.002766 0.000000
vertex 0.006224 0.002845 0.000000
endloop
endfacet
facet normal 0.816959 0.576696 0.000000
outer loop
vertex 0.006280 0.002766 0.150000
vertex 0.006224 0.002845 0.000000
vertex 0.006224 0.002845 0.150000
endloop
endfacet
facet normal 0.157651 -0.987495 0.000000
outer loop
vertex 0.005631 0.000002 0.000000
vertex 0.006267 0.000103 0.000000
vertex 0.006267 0.000103 0.150000
endloop
endfacet
facet normal 0.157651 -0.987495 0.000000
outer loop
vertex 0.005631 0.000002 0.000000
vertex 0.006267 0.000103 0.150000
vertex 0.005631 0.000002 0.150000
endloop
endfacet
facet normal 0.751794 0.659398 0.000000
outer loop
vertex 0.006224 0.002845 0.150000
vertex 0.006224 0.002845 0.000000
vertex 0.006158 0.002921 0.000000
endloop
endfacet
facet normal 0.751794 0.659398 0.000000
outer loop
vertex 0.006224 0.002845 0.150000
vertex 0.006158 0.002921 0.000000
vertex 0.006158 0.002921 0.150000
endloop
endfacet
facet normal 0.048594 -0.998819 0.000000
outer loop
vertex 0.004430 0.000214 0.000000
vertex 0.004430 0.000214 0.150000
vertex 0.000689 0.000032 0.150000
endloop
endfacet
facet normal 0.048594 -0.998819 0.000000
outer loop
vertex 0.004430 0.000214 0.000000
vertex 0.000689 0.000032 0.150000
vertex 0.000689 0.000032 0.000000
endloop
endfacet
facet normal -0.614105 -0.789225 0.000000
outer loop
vertex 0.000138 0.000230 0.150000
vertex 0.000138 0.000230 0.000000
vertex 0.000182 0.000195 0.000000
endloop
endfacet
facet normal -0.614105 -0.789224 0.000000
outer loop
vertex 0.000138 0.000230 0.150000
vertex 0.000182 0.000195 0.000000
vertex 0.000182 0.000195 0.150000
endloop
endfacet
facet normal -0.673173 0.739485 0.000000
outer loop
vertex 0.000652 0.003171 0.150000
vertex 0.000652 0.003171 0.000000
vertex 0.000512 0.003043 0.000000
endloop
endfacet
facet normal -0.673173 0.739485 0.000000
outer loop
vertex 0.000652 0.003171 0.150000
vertex 0.000512 0.003043 0.000000
vertex 0.000512 0.003043 0.150000
endloop
endfacet
facet normal 0.989807 -0.142413 0.000000
outer loop
vertex 0.006794 0.001333 0.000000
vertex 0.006794 0.001333 0.150000
vertex 0.006674 0.000502 0.150000
endloop
endfacet
facet normal 0.989807 -0.142413 0.000000
outer loop
vertex 0.006794 0.001333 0.000000
vertex 0.006674 0.000502 0.150000
vertex 0.006674 0.000502 0.000000
endloop
endfacet
facet normal 0.582572 0.812779 0.000000
outer loop
vertex 0.006076 0.002996 0.150000
vertex 0.006076 0.002996 0.000000
vertex 0.005853 0.003156 0.000000
endloop
endfacet
facet normal 0.582572 0.812779 0.000000
outer loop
vertex 0.006076 0.002996 0.150000
vertex 0.005853 0.003156 0.000000
vertex 0.005853 0.003156 0.150000
endloop
endfacet
facet normal -0.879688 -0.475551 0.000000
outer loop
vertex 0.000071 0.000331 0.150000
vertex 0.000071 0.000331 0.000000
vertex 0.000101 0.000275 0.000000
endloop
endfacet
facet normal -0.879688 -0.475551 0.000000
outer loop
vertex 0.000071 0.000331 0.150000
vertex 0.000101 0.000275 0.000000
vertex 0.000101 0.000275 0.150000
endloop
endfacet
endsolid Exported from Blender-3.6.8
