solid Exported from Blender-3.6.8
facet normal -0.478821 0.877912 0.000000
outer loop
vertex 0.000469 0.003102 0.000000
vertex 0.000354 0.003040 0.000000
vertex 0.000354 0.003040 0.150000
endloop
endfacet
facet normal -0.478821 0.877912 0.000000
outer loop
vertex 0.000469 0.003102 0.000000
vertex 0.000354 0.003040 0.150000
vertex 0.000469 0.003102 0.150000
endloop
endfacet
facet normal -0.860878 -0.508811 0.000000
outer loop
vertex 0.000564 0.000812 0.000000
vertex 0.000680 0.000614 0.000000
vertex 0.000680 0.000614 0.150000
endloop
endfacet
facet normal -0.860878 -0.508811 0.000000
outer loop
vertex 0.000564 0.000812 0.000000
vertex 0.000680 0.000614 0.150000
vertex 0.000564 0.000812 0.150000
endloop
endfacet
facet normal -0.909031 -0.416730 0.000000
outer loop
vertex 0.000383 0.001173 0.150000
vertex 0.000383 0.001173 0.000000
vertex 0.000443 0.001042 0.000000
endloop
endfacet
facet normal -0.885045 -0.465506 0.000000
outer loop
vertex 0.000443 0.001042 0.000000
vertex 0.000564 0.000812 0.000000
vertex 0.000564 0.000812 0.150000
endloop
endfacet
facet normal -0.909031 -0.416730 0.000000
outer loop
vertex 0.000443 0.001042 0.150000
vertex 0.000383 0.001173 0.150000
vertex 0.000443 0.001042 0.000000
endloop
endfacet
facet normal -0.885045 -0.465505 0.000000
outer loop
vertex 0.000564 0.000812 0.150000
vertex 0.000443 0.001042 0.150000
vertex 0.000443 0.001042 0.000000
endloop
endfacet
facet normal 0.000000 0.000000 -1.000000
outer loop
vertex 0.003215 0.000539 0.000000
vertex 0.002281 0.000186 0.000000
vertex 0.001973 0.000084 0.000000
endloop
endfacet
facet normal 0.000000 0.000000 -1.000000
outer loop
vertex 0.001973 0.000084 0.000000
vertex 0.001700 0.000017 0.000000
vertex 0.001593 0.000003 0.000000
endloop
endfacet
facet normal 0.000000 0.000000 -1.000000
outer loop
vertex 0.001593 0.000003 0.000000
vertex 0.001504 0.000000 0.000000
vertex 0.001430 0.000007 0.000000
endloop
endfacet
facet normal 0.000000 0.000000 -1.000000
outer loop
vertex 0.001430 0.000007 0.000000
vertex 0.001367 0.000021 0.000000
vertex 0.001314 0.000041 0.000000
endloop
endfacet
facet normal 0.000000 0.000000 -1.000000
outer loop
vertex 0.001314 0.000041 0.000000
vertex 0.001268 0.000065 0.000000
vertex 0.001226 0.000091 0.000000
endloop
endfacet
facet normal 0.000000 0.000000 -1.000000
outer loop
vertex 0.001314 0.000041 0.000000
vertex 0.001226 0.000091 0.000000
vertex 0.001186 0.000118 0.000000
endloop
endfacet
facet normal 0.000000 0.000000 -1.000000
outer loop
vertex 0.001593 0.000003 0.000000
vertex 0.001430 0.000007 0.000000
vertex 0.001314 0.000041 0.000000
endloop
endfacet
facet normal 0.000000 0.000000 -1.000000
outer loop
vertex 0.003215 0.000539 0.000000
vertex 0.001973 0.000084 0.000000
vertex 0.001593 0.000003 0.000000
endloop
endfacet
facet normal 0.000000 0.000000 -1.000000
outer loop
vertex 0.003215 0.000539 0.000000
vertex 0.001593 0.000003 0.000000
vertex 0.001314 0.000041 0.000000
endloop
endfacet
facet normal 0.000000 0.000000 -1.000000
outer loop
vertex 0.001314 0.000041 0.000000
vertex 0.001186 0.000118 0.000000
vertex 0.001144 0.000144 0.000000
endloop
endfacet
facet normal 0.000000 0.000000 -1.000000
outer loop
vertex 0.001144 0.000144 0.000000
vertex 0.001052 0.000191 0.000000
vertex 0.001002 0.000225 0.000000
endloop
endfacet
facet normal 0.000000 0.000000 -1.000000
outer loop
vertex 0.001002 0.000225 0.000000
vertex 0.000900 0.000320 0.000000
vertex 0.000793 0.000450 0.000000
endloop
endfacet
facet normal 0.000000 0.000000 -1.000000
outer loop
vertex 0.000793 0.000450 0.000000
vertex 0.000680 0.000614 0.000000
vertex 0.000564 0.000812 0.000000
endloop
endfacet
facet normal 0.000000 0.000000 -1.000000
outer loop
vertex 0.000564 0.000812 0.000000
vertex 0.000443 0.001042 0.000000
vertex 0.000383 0.001173 0.000000
endloop
endfacet
facet normal 0.000000 0.000000 -1.000000
outer loop
vertex 0.000383 0.001173 0.000000
vertex 0.000180 0.001794 0.000000
vertex 0.000000 0.002767 0.000000
endloop
endfacet
facet normal 0.000000 0.000000 -1.000000
outer loop
vertex 0.000000 0.002767 0.000000
vertex 0.000069 0.002825 0.000000
vertex 0.000170 0.002907 0.000000
endloop
endfacet
facet normal 0.000000 0.000000 -1.000000
outer loop
vertex 0.000170 0.002907 0.000000
vertex 0.000229 0.002953 0.000000
vertex 0.000292 0.002998 0.000000
endloop
endfacet
facet normal 0.000000 0.000000 -1.000000
outer loop
vertex 0.000292 0.002998 0.000000
vertex 0.000354 0.003040 0.000000
vertex 0.000469 0.003102 0.000000
endloop
endfacet
facet normal 0.000000 0.000000 -1.000000
outer loop
vertex 0.000469 0.003102 0.000000
vertex 0.000517 0.003118 0.000000
vertex 0.000555 0.003119 0.000000
endloop
endfacet
facet normal 0.000000 0.000000 -1.000000
outer loop
vertex 0.000469 0.003102 0.000000
vertex 0.000555 0.003119 0.000000
vertex 0.000650 0.003112 0.000000
endloop
endfacet
facet normal 0.000000 0.000000 -1.000000
outer loop
vertex 0.000170 0.002907 0.000000
vertex 0.000292 0.002998 0.000000
vertex 0.000469 0.003102 0.000000
endloop
endfacet
facet normal 0.000000 0.000000 -1.000000
outer loop
vertex 0.000383 0.001173 0.000000
vertex 0.000000 0.002767 0.000000
vertex 0.000170 0.002907 0.000000
endloop
endfacet
facet normal 0.000000 0.000000 -1.000000
outer loop
vertex 0.000793 0.000450 0.000000
vertex 0.000564 0.000812 0.000000
vertex 0.000383 0.001173 0.000000
endloop
endfacet
facet normal 0.000000 0.000000 -1.000000
outer loop
vertex 0.001144 0.000144 0.000000
vertex 0.001002 0.000225 0.000000
vertex 0.000793 0.000450 0.000000
endloop
endfacet
facet normal 0.000000 0.000000 -1.000000
outer loop
vertex 0.003215 0.000539 0.000000
vertex 0.001314 0.000041 0.000000
vertex 0.001144 0.000144 0.000000
endloop
endfacet
facet normal 0.000000 0.000000 -1.000000
outer loop
vertex 0.003339 0.000580 0.000000
vertex 0.003215 0.000539 0.000000
vertex 0.001144 0.000144 0.000000
endloop
endfacet
facet normal 0.000000 0.000000 -1.000000
outer loop
vertex 0.001144 0.000144 0.000000
vertex 0.000793 0.000450 0.000000
vertex 0.000383 0.001173 0.000000
endloop
endfacet
facet normal 0.000000 0.000000 -1.000000
outer loop
vertex 0.000383 0.001173 0.000000
vertex 0.000170 0.002907 0.000000
vertex 0.000469 0.003102 0.000000
endloop
endfacet
facet normal 0.000000 0.000000 -1.000000
outer loop
vertex 0.000469 0.003102 0.000000
vertex 0.000650 0.003112 0.000000
vertex 0.000716 0.003113 0.000000
endloop
endfacet
facet normal 0.000000 0.000000 -1.000000
outer loop
vertex 0.000469 0.003102 0.000000
vertex 0.000716 0.003113 0.000000
vertex 0.000790 0.003115 0.000000
endloop
endfacet
facet normal 0.000000 0.000000 -1.000000
outer loop
vertex 0.001144 0.000144 0.000000
vertex 0.000383 0.001173 0.000000
vertex 0.000469 0.003102 0.000000
endloop
endfacet
facet normal 0.000000 0.000000 -1.000000
outer loop
vertex 0.003462 0.000615 0.000000
vertex 0.003339 0.000580 0.000000
vertex 0.001144 0.000144 0.000000
endloop
endfacet
facet normal 0.000000 0.000000 -1.000000
outer loop
vertex 0.003585 0.000646 0.000000
vertex 0.003462 0.000615 0.000000
vertex 0.001144 0.000144 0.000000
endloop
endfacet
facet normal 0.000000 0.000000 -1.000000
outer loop
vertex 0.001144 0.000144 0.000000
vertex 0.000469 0.003102 0.000000
vertex 0.000790 0.003115 0.000000
endloop
endfacet
facet normal 0.000000 0.000000 -1.000000
outer loop
vertex 0.001144 0.000144 0.000000
vertex 0.000790 0.003115 0.000000
vertex 0.001245 0.003147 0.000000
endloop
endfacet
facet normal 0.000000 0.000000 -1.000000
outer loop
vertex 0.003818 0.000696 0.000000
vertex 0.003585 0.000646 0.000000
vertex 0.001144 0.000144 0.000000
endloop
endfacet
facet normal 0.000000 0.000000 -1.000000
outer loop
vertex 0.004030 0.000741 0.000000
vertex 0.003818 0.000696 0.000000
vertex 0.001144 0.000144 0.000000
endloop
endfacet
facet normal 0.000000 0.000000 -1.000000
outer loop
vertex 0.001144 0.000144 0.000000
vertex 0.001245 0.003147 0.000000
vertex 0.003015 0.003381 0.000000
endloop
endfacet
facet normal 0.000000 0.000000 -1.000000
outer loop
vertex 0.001144 0.000144 0.000000
vertex 0.003015 0.003381 0.000000
vertex 0.003124 0.003401 0.000000
endloop
endfacet
facet normal 0.000000 0.000000 -1.000000
outer loop
vertex 0.004030 0.000741 0.000000
vertex 0.001144 0.000144 0.000000
vertex 0.003124 0.003401 0.000000
endloop
endfacet
facet normal 0.000000 0.000000 -1.000000
outer loop
vertex 0.004030 0.000741 0.000000
vertex 0.003124 0.003401 0.000000
vertex 0.003255 0.003431 0.000000
endloop
endfacet
facet normal 0.000000 0.000000 -1.000000
outer loop
vertex 0.004227 0.000781 0.000000
vertex 0.004030 0.000741 0.000000
vertex 0.003255 0.003431 0.000000
endloop
endfacet
facet normal 0.000000 0.000000 -1.000000
outer loop
vertex 0.004227 0.000781 0.000000
vertex 0.003255 0.003431 0.000000
vertex 0.003404 0.003469 0.000000
endloop
endfacet
facet normal 0.000000 0.000000 -1.000000
outer loop
vertex 0.004808 0.000897 0.000000
vertex 0.004227 0.000781 0.000000
vertex 0.003404 0.003469 0.000000
endloop
endfacet
facet normal 0.000000 0.000000 -1.000000
outer loop
vertex 0.004808 0.000897 0.000000
vertex 0.003404 0.003469 0.000000
vertex 0.003565 0.003515 0.000000
endloop
endfacet
facet normal 0.000000 0.000000 -1.000000
outer loop
vertex 0.005443 0.000948 0.000000
vertex 0.005371 0.000937 0.000000
vertex 0.004905 0.000913 0.000000
endloop
endfacet
facet normal 0.000000 0.000000 -1.000000
outer loop
vertex 0.004905 0.000913 0.000000
vertex 0.004808 0.000897 0.000000
vertex 0.003565 0.003515 0.000000
endloop
endfacet
facet normal 0.000000 0.000000 -1.000000
outer loop
vertex 0.004905 0.000913 0.000000
vertex 0.003565 0.003515 0.000000
vertex 0.003734 0.003564 0.000000
endloop
endfacet
facet normal 0.000000 0.000000 -1.000000
outer loop
vertex 0.005517 0.000967 0.000000
vertex 0.005443 0.000948 0.000000
vertex 0.004905 0.000913 0.000000
endloop
endfacet
facet normal 0.000000 0.000000 -1.000000
outer loop
vertex 0.005681 0.001036 0.000000
vertex 0.005596 0.000995 0.000000
vertex 0.005517 0.000967 0.000000
endloop
endfacet
facet normal 0.000000 0.000000 -1.000000
outer loop
vertex 0.005864 0.001147 0.000000
vertex 0.005773 0.001090 0.000000
vertex 0.005681 0.001036 0.000000
endloop
endfacet
facet normal 0.000000 0.000000 -1.000000
outer loop
vertex 0.005864 0.001147 0.000000
vertex 0.005681 0.001036 0.000000
vertex 0.005517 0.000967 0.000000
endloop
endfacet
facet normal 0.000000 0.000000 -1.000000
outer loop
vertex 0.005517 0.000967 0.000000
vertex 0.004905 0.000913 0.000000
vertex 0.003734 0.003564 0.000000
endloop
endfacet
facet normal 0.000000 0.000000 -1.000000
outer loop
vertex 0.003907 0.003617 0.000000
vertex 0.004531 0.003811 0.000000
vertex 0.004647 0.003847 0.000000
endloop
endfacet
facet normal 0.000000 0.000000 -1.000000
outer loop
vertex 0.005517 0.000967 0.000000
vertex 0.003734 0.003564 0.000000
vertex 0.003907 0.003617 0.000000
endloop
endfacet
facet normal 0.000000 0.000000 -1.000000
outer loop
vertex 0.005947 0.001195 0.000000
vertex 0.005864 0.001147 0.000000
vertex 0.005517 0.000967 0.000000
endloop
endfacet
facet normal 0.000000 0.000000 -1.000000
outer loop
vertex 0.006151 0.001308 0.000000
vertex 0.006090 0.001274 0.000000
vertex 0.006022 0.001237 0.000000
endloop
endfacet
facet normal 0.000000 0.000000 -1.000000
outer loop
vertex 0.006022 0.001237 0.000000
vertex 0.005947 0.001195 0.000000
vertex 0.005517 0.000967 0.000000
endloop
endfacet
facet normal 0.000000 0.000000 -1.000000
outer loop
vertex 0.005517 0.000967 0.000000
vertex 0.003907 0.003617 0.000000
vertex 0.004647 0.003847 0.000000
endloop
endfacet
facet normal 0.000000 0.000000 -1.000000
outer loop
vertex 0.004647 0.003847 0.000000
vertex 0.004736 0.003872 0.000000
vertex 0.004812 0.003891 0.000000
endloop
endfacet
facet normal 0.000000 0.000000 -1.000000
outer loop
vertex 0.004812 0.003891 0.000000
vertex 0.004887 0.003905 0.000000
vertex 0.004961 0.003916 0.000000
endloop
endfacet
facet normal 0.000000 0.000000 -1.000000
outer loop
vertex 0.004961 0.003916 0.000000
vertex 0.005032 0.003923 0.000000
vertex 0.005099 0.003928 0.000000
endloop
endfacet
facet normal 0.000000 0.000000 -1.000000
outer loop
vertex 0.005099 0.003928 0.000000
vertex 0.005161 0.003931 0.000000
vertex 0.006021 0.003904 0.000000
endloop
endfacet
facet normal 0.000000 0.000000 -1.000000
outer loop
vertex 0.006021 0.003904 0.000000
vertex 0.006051 0.003894 0.000000
vertex 0.006081 0.003877 0.000000
endloop
endfacet
facet normal 0.000000 0.000000 -1.000000
outer loop
vertex 0.006081 0.003877 0.000000
vertex 0.006113 0.003853 0.000000
vertex 0.006145 0.003823 0.000000
endloop
endfacet
facet normal 0.000000 0.000000 -1.000000
outer loop
vertex 0.006145 0.003823 0.000000
vertex 0.006178 0.003788 0.000000
vertex 0.006212 0.003749 0.000000
endloop
endfacet
facet normal 0.000000 0.000000 -1.000000
outer loop
vertex 0.006212 0.003749 0.000000
vertex 0.006249 0.003707 0.000000
vertex 0.006286 0.003662 0.000000
endloop
endfacet
facet normal 0.000000 0.000000 -1.000000
outer loop
vertex 0.006212 0.003749 0.000000
vertex 0.006286 0.003662 0.000000
vertex 0.006326 0.003614 0.000000
endloop
endfacet
facet normal 0.000000 0.000000 -1.000000
outer loop
vertex 0.006081 0.003877 0.000000
vertex 0.006145 0.003823 0.000000
vertex 0.006212 0.003749 0.000000
endloop
endfacet
facet normal 0.000000 0.000000 -1.000000
outer loop
vertex 0.005099 0.003928 0.000000
vertex 0.006021 0.003904 0.000000
vertex 0.006081 0.003877 0.000000
endloop
endfacet
facet normal 0.000000 0.000000 -1.000000
outer loop
vertex 0.004812 0.003891 0.000000
vertex 0.004961 0.003916 0.000000
vertex 0.005099 0.003928 0.000000
endloop
endfacet
facet normal 0.000000 0.000000 -1.000000
outer loop
vertex 0.005517 0.000967 0.000000
vertex 0.004647 0.003847 0.000000
vertex 0.004812 0.003891 0.000000
endloop
endfacet
facet normal 0.000000 0.000000 -1.000000
outer loop
vertex 0.006151 0.001308 0.000000
vertex 0.006022 0.001237 0.000000
vertex 0.005517 0.000967 0.000000
endloop
endfacet
facet normal 0.000000 0.000000 -1.000000
outer loop
vertex 0.006254 0.001374 0.000000
vertex 0.006205 0.001341 0.000000
vertex 0.006151 0.001308 0.000000
endloop
endfacet
facet normal 0.000000 0.000000 -1.000000
outer loop
vertex 0.006336 0.001449 0.000000
vertex 0.006297 0.001409 0.000000
vertex 0.006254 0.001374 0.000000
endloop
endfacet
facet normal 0.000000 0.000000 -1.000000
outer loop
vertex 0.006402 0.001548 0.000000
vertex 0.006371 0.001495 0.000000
vertex 0.006336 0.001449 0.000000
endloop
endfacet
facet normal 0.000000 0.000000 -1.000000
outer loop
vertex 0.006578 0.002116 0.000000
vertex 0.006485 0.001760 0.000000
vertex 0.006402 0.001548 0.000000
endloop
endfacet
facet normal 0.000000 0.000000 -1.000000
outer loop
vertex 0.006619 0.002410 0.000000
vertex 0.006609 0.002311 0.000000
vertex 0.006578 0.002116 0.000000
endloop
endfacet
facet normal 0.000000 0.000000 -1.000000
outer loop
vertex 0.006626 0.002607 0.000000
vertex 0.006625 0.002509 0.000000
vertex 0.006619 0.002410 0.000000
endloop
endfacet
facet normal 0.000000 0.000000 -1.000000
outer loop
vertex 0.006607 0.003096 0.000000
vertex 0.006610 0.003030 0.000000
vertex 0.006617 0.002796 0.000000
endloop
endfacet
facet normal 0.000000 0.000000 -1.000000
outer loop
vertex 0.006617 0.002796 0.000000
vertex 0.006626 0.002607 0.000000
vertex 0.006619 0.002410 0.000000
endloop
endfacet
facet normal 0.000000 0.000000 -1.000000
outer loop
vertex 0.006619 0.002410 0.000000
vertex 0.006578 0.002116 0.000000
vertex 0.006402 0.001548 0.000000
endloop
endfacet
facet normal 0.000000 0.000000 -1.000000
outer loop
vertex 0.006402 0.001548 0.000000
vertex 0.006336 0.001449 0.000000
vertex 0.006254 0.001374 0.000000
endloop
endfacet
facet normal 0.000000 0.000000 -1.000000
outer loop
vertex 0.006254 0.001374 0.000000
vertex 0.006151 0.001308 0.000000
vertex 0.005517 0.000967 0.000000
endloop
endfacet
facet normal 0.000000 0.000000 -1.000000
outer loop
vertex 0.005517 0.000967 0.000000
vertex 0.004812 0.003891 0.000000
vertex 0.005099 0.003928 0.000000
endloop
endfacet
facet normal 0.000000 0.000000 -1.000000
outer loop
vertex 0.005099 0.003928 0.000000
vertex 0.006081 0.003877 0.000000
vertex 0.006212 0.003749 0.000000
endloop
endfacet
facet normal 0.000000 0.000000 -1.000000
outer loop
vertex 0.005099 0.003928 0.000000
vertex 0.006212 0.003749 0.000000
vertex 0.006326 0.003614 0.000000
endloop
endfacet
facet normal 0.000000 0.000000 -1.000000
outer loop
vertex 0.006254 0.001374 0.000000
vertex 0.005517 0.000967 0.000000
vertex 0.005099 0.003928 0.000000
endloop
endfacet
facet normal 0.000000 0.000000 -1.000000
outer loop
vertex 0.006619 0.002410 0.000000
vertex 0.006402 0.001548 0.000000
vertex 0.006254 0.001374 0.000000
endloop
endfacet
facet normal 0.000000 0.000000 -1.000000
outer loop
vertex 0.006607 0.003096 0.000000
vertex 0.006617 0.002796 0.000000
vertex 0.006619 0.002410 0.000000
endloop
endfacet
facet normal 0.000000 0.000000 -1.000000
outer loop
vertex 0.006593 0.003216 0.000000
vertex 0.006601 0.003158 0.000000
vertex 0.006607 0.003096 0.000000
endloop
endfacet
facet normal 0.000000 0.000000 -1.000000
outer loop
vertex 0.006560 0.003323 0.000000
vertex 0.006579 0.003271 0.000000
vertex 0.006593 0.003216 0.000000
endloop
endfacet
facet normal 0.000000 0.000000 -1.000000
outer loop
vertex 0.006501 0.003421 0.000000
vertex 0.006535 0.003373 0.000000
vertex 0.006560 0.003323 0.000000
endloop
endfacet
facet normal 0.000000 0.000000 -1.000000
outer loop
vertex 0.006412 0.003517 0.000000
vertex 0.006458 0.003469 0.000000
vertex 0.006501 0.003421 0.000000
endloop
endfacet
facet normal 0.000000 0.000000 -1.000000
outer loop
vertex 0.005099 0.003928 0.000000
vertex 0.006326 0.003614 0.000000
vertex 0.006368 0.003566 0.000000
endloop
endfacet
facet normal 0.000000 0.000000 -1.000000
outer loop
vertex 0.006412 0.003517 0.000000
vertex 0.006501 0.003421 0.000000
vertex 0.006560 0.003323 0.000000
endloop
endfacet
facet normal 0.000000 0.000000 -1.000000
outer loop
vertex 0.005099 0.003928 0.000000
vertex 0.006368 0.003566 0.000000
vertex 0.006412 0.003517 0.000000
endloop
endfacet
facet normal 0.000000 0.000000 -1.000000
outer loop
vertex 0.006619 0.002410 0.000000
vertex 0.006254 0.001374 0.000000
vertex 0.005099 0.003928 0.000000
endloop
endfacet
facet normal 0.000000 0.000000 -1.000000
outer loop
vertex 0.006593 0.003216 0.000000
vertex 0.006607 0.003096 0.000000
vertex 0.006619 0.002410 0.000000
endloop
endfacet
facet normal 0.000000 0.000000 -1.000000
outer loop
vertex 0.006412 0.003517 0.000000
vertex 0.006560 0.003323 0.000000
vertex 0.006593 0.003216 0.000000
endloop
endfacet
facet normal 0.000000 0.000000 -1.000000
outer loop
vertex 0.006619 0.002410 0.000000
vertex 0.005099 0.003928 0.000000
vertex 0.006412 0.003517 0.000000
endloop
endfacet
facet normal 0.000000 0.000000 -1.000000
outer loop
vertex 0.006412 0.003517 0.000000
vertex 0.006593 0.003216 0.000000
vertex 0.006619 0.002410 0.000000
endloop
endfacet
facet normal 0.888647 0.458591 0.000000
outer loop
vertex 0.006560 0.003323 0.150000
vertex 0.006560 0.003323 0.000000
vertex 0.006535 0.003373 0.000000
endloop
endfacet
facet normal 0.888659 0.458569 0.000000
outer loop
vertex 0.006560 0.003323 0.150000
vertex 0.006535 0.003373 0.000000
vertex 0.006535 0.003373 0.150000
endloop
endfacet
facet normal -0.770629 -0.637284 0.000000
outer loop
vertex 0.000793 0.000450 0.150000
vertex 0.000793 0.000450 0.000000
vertex 0.000900 0.000320 0.000000
endloop
endfacet
facet normal -0.770630 -0.637283 0.000000
outer loop
vertex 0.000793 0.000450 0.150000
vertex 0.000900 0.000320 0.000000
vertex 0.000900 0.000320 0.150000
endloop
endfacet
facet normal 0.128007 -0.991773 0.000000
outer loop
vertex 0.001593 0.000003 0.150000
vertex 0.001593 0.000003 0.000000
vertex 0.001700 0.000017 0.000000
endloop
endfacet
facet normal 0.128006 -0.991773 0.000000
outer loop
vertex 0.001593 0.000003 0.150000
vertex 0.001700 0.000017 0.000000
vertex 0.001700 0.000017 0.150000
endloop
endfacet
facet normal 0.000066 0.000000 1.000000
outer loop
vertex 0.004905 0.000913 0.150000
vertex 0.005371 0.000937 0.150000
vertex 0.005443 0.000948 0.150000
endloop
endfacet
facet normal 0.000000 0.000000 1.000000
outer loop
vertex 0.005443 0.000948 0.150000
vertex 0.005517 0.000967 0.150000
vertex 0.005596 0.000995 0.150000
endloop
endfacet
facet normal 0.000000 0.000000 1.000000
outer loop
vertex 0.005596 0.000995 0.150000
vertex 0.005681 0.001036 0.150000
vertex 0.005773 0.001090 0.150000
endloop
endfacet
facet normal 0.000000 0.000000 1.000000
outer loop
vertex 0.005596 0.000995 0.150000
vertex 0.005773 0.001090 0.150000
vertex 0.005864 0.001147 0.150000
endloop
endfacet
facet normal 0.000000 0.000000 1.000000
outer loop
vertex 0.004905 0.000913 0.150000
vertex 0.005443 0.000948 0.150000
vertex 0.005596 0.000995 0.150000
endloop
endfacet
facet normal 0.000000 0.000000 1.000000
outer loop
vertex 0.004905 0.000913 0.150000
vertex 0.005596 0.000995 0.150000
vertex 0.005864 0.001147 0.150000
endloop
endfacet
facet normal 0.000034 0.000000 1.000000
outer loop
vertex 0.004905 0.000913 0.150000
vertex 0.005864 0.001147 0.150000
vertex 0.005947 0.001195 0.150000
endloop
endfacet
facet normal -0.000684 0.000000 1.000000
outer loop
vertex 0.004808 0.000897 0.150000
vertex 0.004905 0.000913 0.150000
vertex 0.005947 0.001195 0.150000
endloop
endfacet
facet normal -0.019256 0.000000 0.999815
outer loop
vertex 0.006022 0.001237 0.150000
vertex 0.006090 0.001274 0.150000
vertex 0.006151 0.001308 0.150000
endloop
endfacet
facet normal -0.000036 0.000000 1.000000
outer loop
vertex 0.004808 0.000897 0.150000
vertex 0.005947 0.001195 0.150000
vertex 0.006022 0.001237 0.150000
endloop
endfacet
facet normal 0.000126 0.000000 1.000000
outer loop
vertex 0.004227 0.000781 0.150000
vertex 0.004808 0.000897 0.150000
vertex 0.006022 0.001237 0.150000
endloop
endfacet
facet normal 0.002741 0.000000 0.999996
outer loop
vertex 0.006022 0.001237 0.150000
vertex 0.006151 0.001308 0.150000
vertex 0.006205 0.001341 0.150000
endloop
endfacet
facet normal 0.000000 0.000000 1.000000
outer loop
vertex 0.006205 0.001341 0.150000
vertex 0.006254 0.001374 0.150000
vertex 0.006297 0.001409 0.150000
endloop
endfacet
facet normal 0.000000 0.000000 1.000000
outer loop
vertex 0.006297 0.001409 0.150000
vertex 0.006336 0.001449 0.150000
vertex 0.006371 0.001495 0.150000
endloop
endfacet
facet normal 0.000000 0.000000 1.000000
outer loop
vertex 0.006371 0.001495 0.150000
vertex 0.006402 0.001548 0.150000
vertex 0.006485 0.001760 0.150000
endloop
endfacet
facet normal 0.000523 0.000000 1.000000
outer loop
vertex 0.006485 0.001760 0.150000
vertex 0.006578 0.002116 0.150000
vertex 0.006609 0.002311 0.150000
endloop
endfacet
facet normal 0.000000 0.000000 1.000000
outer loop
vertex 0.006609 0.002311 0.150000
vertex 0.006619 0.002410 0.150000
vertex 0.006625 0.002509 0.150000
endloop
endfacet
facet normal -0.003190 0.000000 0.999995
outer loop
vertex 0.006625 0.002509 0.150000
vertex 0.006626 0.002607 0.150000
vertex 0.006617 0.002796 0.150000
endloop
endfacet
facet normal -0.014144 0.000000 0.999900
outer loop
vertex 0.006617 0.002796 0.150000
vertex 0.006610 0.003030 0.150000
vertex 0.006607 0.003096 0.150000
endloop
endfacet
facet normal -0.007838 0.000000 0.999969
outer loop
vertex 0.006607 0.003096 0.150000
vertex 0.006601 0.003158 0.150000
vertex 0.006593 0.003216 0.150000
endloop
endfacet
facet normal 0.000000 0.000000 1.000000
outer loop
vertex 0.006593 0.003216 0.150000
vertex 0.006579 0.003271 0.150000
vertex 0.006560 0.003323 0.150000
endloop
endfacet
facet normal -0.002109 0.000000 0.999998
outer loop
vertex 0.006560 0.003323 0.150000
vertex 0.006535 0.003373 0.150000
vertex 0.006501 0.003421 0.150000
endloop
endfacet
facet normal -0.005701 0.000000 0.999984
outer loop
vertex 0.006501 0.003421 0.150000
vertex 0.006458 0.003469 0.150000
vertex 0.006412 0.003517 0.150000
endloop
endfacet
facet normal 0.000000 0.000000 1.000000
outer loop
vertex 0.006560 0.003323 0.150000
vertex 0.006501 0.003421 0.150000
vertex 0.006412 0.003517 0.150000
endloop
endfacet
facet normal 0.000000 0.000000 1.000000
outer loop
vertex 0.006607 0.003096 0.150000
vertex 0.006593 0.003216 0.150000
vertex 0.006560 0.003323 0.150000
endloop
endfacet
facet normal 0.019161 0.000000 0.999816
outer loop
vertex 0.006625 0.002509 0.150000
vertex 0.006617 0.002796 0.150000
vertex 0.006607 0.003096 0.150000
endloop
endfacet
facet normal -0.000463 0.000000 1.000000
outer loop
vertex 0.006485 0.001760 0.150000
vertex 0.006609 0.002311 0.150000
vertex 0.006625 0.002509 0.150000
endloop
endfacet
facet normal 0.000000 0.000000 1.000000
outer loop
vertex 0.006297 0.001409 0.150000
vertex 0.006371 0.001495 0.150000
vertex 0.006485 0.001760 0.150000
endloop
endfacet
facet normal 0.000605 0.000000 1.000000
outer loop
vertex 0.006022 0.001237 0.150000
vertex 0.006205 0.001341 0.150000
vertex 0.006297 0.001409 0.150000
endloop
endfacet
facet normal 0.000000 0.000000 1.000000
outer loop
vertex 0.004030 0.000741 0.150000
vertex 0.004227 0.000781 0.150000
vertex 0.006022 0.001237 0.150000
endloop
endfacet
facet normal 0.000000 0.000000 1.000000
outer loop
vertex 0.003818 0.000696 0.150000
vertex 0.004030 0.000741 0.150000
vertex 0.006022 0.001237 0.150000
endloop
endfacet
facet normal 0.000000 0.000000 1.000000
outer loop
vertex 0.006022 0.001237 0.150000
vertex 0.006297 0.001409 0.150000
vertex 0.006485 0.001760 0.150000
endloop
endfacet
facet normal 0.000000 0.000000 1.000000
outer loop
vertex 0.006485 0.001760 0.150000
vertex 0.006625 0.002509 0.150000
vertex 0.006607 0.003096 0.150000
endloop
endfacet
facet normal 0.000148 0.000000 1.000000
outer loop
vertex 0.006607 0.003096 0.150000
vertex 0.006560 0.003323 0.150000
vertex 0.006412 0.003517 0.150000
endloop
endfacet
facet normal -0.000705 0.000000 1.000000
outer loop
vertex 0.006607 0.003096 0.150000
vertex 0.006412 0.003517 0.150000
vertex 0.006368 0.003566 0.150000
endloop
endfacet
facet normal 0.000000 0.000000 1.000000
outer loop
vertex 0.006022 0.001237 0.150000
vertex 0.006485 0.001760 0.150000
vertex 0.006607 0.003096 0.150000
endloop
endfacet
facet normal -0.001050 0.000000 0.999999
outer loop
vertex 0.003585 0.000646 0.150000
vertex 0.003818 0.000696 0.150000
vertex 0.006022 0.001237 0.150000
endloop
endfacet
facet normal 0.000014 0.000000 1.000000
outer loop
vertex 0.003585 0.000646 0.150000
vertex 0.006022 0.001237 0.150000
vertex 0.006607 0.003096 0.150000
endloop
endfacet
facet normal 0.001354 0.000000 0.999999
outer loop
vertex 0.006607 0.003096 0.150000
vertex 0.006368 0.003566 0.150000
vertex 0.006326 0.003614 0.150000
endloop
endfacet
facet normal -0.035337 0.000000 0.999376
outer loop
vertex 0.006286 0.003662 0.150000
vertex 0.006249 0.003707 0.150000
vertex 0.006212 0.003749 0.150000
endloop
endfacet
facet normal -0.000498 0.000000 1.000000
outer loop
vertex 0.006607 0.003096 0.150000
vertex 0.006326 0.003614 0.150000
vertex 0.006286 0.003662 0.150000
endloop
endfacet
facet normal -0.000555 0.000000 1.000000
outer loop
vertex 0.003462 0.000615 0.150000
vertex 0.003585 0.000646 0.150000
vertex 0.006607 0.003096 0.150000
endloop
endfacet
facet normal 0.000302 0.000000 1.000000
outer loop
vertex 0.003339 0.000580 0.150000
vertex 0.003462 0.000615 0.150000
vertex 0.006607 0.003096 0.150000
endloop
endfacet
facet normal -0.000267 0.000000 1.000000
outer loop
vertex 0.006607 0.003096 0.150000
vertex 0.006286 0.003662 0.150000
vertex 0.006212 0.003749 0.150000
endloop
endfacet
facet normal 0.000000 0.000000 1.000000
outer loop
vertex 0.006212 0.003749 0.150000
vertex 0.006178 0.003788 0.150000
vertex 0.006145 0.003823 0.150000
endloop
endfacet
facet normal 0.002860 0.000000 0.999996
outer loop
vertex 0.006145 0.003823 0.150000
vertex 0.006113 0.003853 0.150000
vertex 0.006081 0.003877 0.150000
endloop
endfacet
facet normal 0.000000 0.000000 1.000000
outer loop
vertex 0.006081 0.003877 0.150000
vertex 0.006051 0.003894 0.150000
vertex 0.006021 0.003904 0.150000
endloop
endfacet
facet normal 0.000130 0.000000 1.000000
outer loop
vertex 0.006021 0.003904 0.150000
vertex 0.005161 0.003931 0.150000
vertex 0.005099 0.003928 0.150000
endloop
endfacet
facet normal 0.000000 0.000000 1.000000
outer loop
vertex 0.005099 0.003928 0.150000
vertex 0.005032 0.003923 0.150000
vertex 0.004961 0.003916 0.150000
endloop
endfacet
facet normal 0.000000 0.000000 1.000000
outer loop
vertex 0.004961 0.003916 0.150000
vertex 0.004887 0.003905 0.150000
vertex 0.004812 0.003891 0.150000
endloop
endfacet
facet normal -0.002961 0.000000 0.999996
outer loop
vertex 0.004812 0.003891 0.150000
vertex 0.004736 0.003872 0.150000
vertex 0.004647 0.003847 0.150000
endloop
endfacet
facet normal 0.000000 0.000000 1.000000
outer loop
vertex 0.004647 0.003847 0.150000
vertex 0.004531 0.003811 0.150000
vertex 0.003907 0.003617 0.150000
endloop
endfacet
facet normal 0.001381 0.000000 0.999999
outer loop
vertex 0.004812 0.003891 0.150000
vertex 0.004647 0.003847 0.150000
vertex 0.003907 0.003617 0.150000
endloop
endfacet
facet normal 0.000000 0.000000 1.000000
outer loop
vertex 0.005099 0.003928 0.150000
vertex 0.004961 0.003916 0.150000
vertex 0.004812 0.003891 0.150000
endloop
endfacet
facet normal 0.000019 0.000000 1.000000
outer loop
vertex 0.006081 0.003877 0.150000
vertex 0.006021 0.003904 0.150000
vertex 0.005099 0.003928 0.150000
endloop
endfacet
facet normal -0.001758 0.000000 0.999999
outer loop
vertex 0.006212 0.003749 0.150000
vertex 0.006145 0.003823 0.150000
vertex 0.006081 0.003877 0.150000
endloop
endfacet
facet normal -0.000028 0.000000 1.000000
outer loop
vertex 0.003339 0.000580 0.150000
vertex 0.006607 0.003096 0.150000
vertex 0.006212 0.003749 0.150000
endloop
endfacet
facet normal -0.000547 0.000000 1.000000
outer loop
vertex 0.001973 0.000084 0.150000
vertex 0.002281 0.000186 0.150000
vertex 0.003215 0.000539 0.150000
endloop
endfacet
facet normal 0.000000 0.000000 1.000000
outer loop
vertex 0.003215 0.000539 0.150000
vertex 0.003339 0.000580 0.150000
vertex 0.006212 0.003749 0.150000
endloop
endfacet
facet normal 0.000015 0.000000 1.000000
outer loop
vertex 0.006212 0.003749 0.150000
vertex 0.006081 0.003877 0.150000
vertex 0.005099 0.003928 0.150000
endloop
endfacet
facet normal -0.000161 0.000000 1.000000
outer loop
vertex 0.005099 0.003928 0.150000
vertex 0.004812 0.003891 0.150000
vertex 0.003907 0.003617 0.150000
endloop
endfacet
facet normal 0.000000 0.000000 1.000000
outer loop
vertex 0.005099 0.003928 0.150000
vertex 0.003907 0.003617 0.150000
vertex 0.003734 0.003564 0.150000
endloop
endfacet
facet normal -0.000001 0.000000 1.000000
outer loop
vertex 0.003215 0.000539 0.150000
vertex 0.006212 0.003749 0.150000
vertex 0.005099 0.003928 0.150000
endloop
endfacet
facet normal 0.000358 0.000000 1.000000
outer loop
vertex 0.001700 0.000017 0.150000
vertex 0.001973 0.000084 0.150000
vertex 0.003215 0.000539 0.150000
endloop
endfacet
facet normal 0.000000 0.000000 1.000000
outer loop
vertex 0.001504 0.000000 0.150000
vertex 0.001593 0.000003 0.150000
vertex 0.001700 0.000017 0.150000
endloop
endfacet
facet normal 0.000710 0.000000 1.000000
outer loop
vertex 0.001367 0.000021 0.150000
vertex 0.001430 0.000007 0.150000
vertex 0.001504 0.000000 0.150000
endloop
endfacet
facet normal -0.001297 0.000000 0.999999
outer loop
vertex 0.001268 0.000065 0.150000
vertex 0.001314 0.000041 0.150000
vertex 0.001367 0.000021 0.150000
endloop
endfacet
facet normal 0.000000 0.000000 1.000000
outer loop
vertex 0.001186 0.000118 0.150000
vertex 0.001226 0.000091 0.150000
vertex 0.001268 0.000065 0.150000
endloop
endfacet
facet normal 0.001124 0.000000 0.999999
outer loop
vertex 0.001002 0.000225 0.150000
vertex 0.001052 0.000191 0.150000
vertex 0.001144 0.000144 0.150000
endloop
endfacet
facet normal 0.000000 0.000000 1.000000
outer loop
vertex 0.001186 0.000118 0.150000
vertex 0.001268 0.000065 0.150000
vertex 0.001367 0.000021 0.150000
endloop
endfacet
facet normal -0.000358 0.000000 1.000000
outer loop
vertex 0.000900 0.000320 0.150000
vertex 0.001002 0.000225 0.150000
vertex 0.001144 0.000144 0.150000
endloop
endfacet
facet normal 0.002791 0.000000 0.999996
outer loop
vertex 0.001144 0.000144 0.150000
vertex 0.001186 0.000118 0.150000
vertex 0.001367 0.000021 0.150000
endloop
endfacet
facet normal -0.000072 0.000000 1.000000
outer loop
vertex 0.001367 0.000021 0.150000
vertex 0.001504 0.000000 0.150000
vertex 0.001700 0.000017 0.150000
endloop
endfacet
facet normal 0.000000 0.000000 1.000000
outer loop
vertex 0.001700 0.000017 0.150000
vertex 0.003215 0.000539 0.150000
vertex 0.005099 0.003928 0.150000
endloop
endfacet
facet normal 0.001319 0.000000 0.999999
outer loop
vertex 0.005099 0.003928 0.150000
vertex 0.003734 0.003564 0.150000
vertex 0.003565 0.003515 0.150000
endloop
endfacet
facet normal 0.000361 0.000000 1.000000
outer loop
vertex 0.005099 0.003928 0.150000
vertex 0.003565 0.003515 0.150000
vertex 0.003404 0.003469 0.150000
endloop
endfacet
facet normal -0.000089 0.000000 1.000000
outer loop
vertex 0.001367 0.000021 0.150000
vertex 0.001700 0.000017 0.150000
vertex 0.005099 0.003928 0.150000
endloop
endfacet
facet normal 0.000384 0.000000 1.000000
outer loop
vertex 0.000900 0.000320 0.150000
vertex 0.001144 0.000144 0.150000
vertex 0.001367 0.000021 0.150000
endloop
endfacet
facet normal 0.001192 0.000000 0.999999
outer loop
vertex 0.000680 0.000614 0.150000
vertex 0.000793 0.000450 0.150000
vertex 0.000900 0.000320 0.150000
endloop
endfacet
facet normal 0.002458 0.000000 0.999997
outer loop
vertex 0.000443 0.001042 0.150000
vertex 0.000564 0.000812 0.150000
vertex 0.000680 0.000614 0.150000
endloop
endfacet
facet normal 0.000000 0.000000 1.000000
outer loop
vertex 0.000180 0.001794 0.150000
vertex 0.000383 0.001173 0.150000
vertex 0.000443 0.001042 0.150000
endloop
endfacet
facet normal 0.000000 0.000000 1.000000
outer loop
vertex 0.000069 0.002825 0.150000
vertex 0.000000 0.002767 0.150000
vertex 0.000180 0.001794 0.150000
endloop
endfacet
facet normal 0.006692 0.000000 0.999978
outer loop
vertex 0.000229 0.002953 0.150000
vertex 0.000170 0.002907 0.150000
vertex 0.000069 0.002825 0.150000
endloop
endfacet
facet normal 0.000000 0.000000 1.000000
outer loop
vertex 0.000354 0.003040 0.150000
vertex 0.000292 0.002998 0.150000
vertex 0.000229 0.002953 0.150000
endloop
endfacet
facet normal 0.000000 0.000000 1.000000
outer loop
vertex 0.000517 0.003118 0.150000
vertex 0.000469 0.003102 0.150000
vertex 0.000354 0.003040 0.150000
endloop
endfacet
facet normal 0.000210 0.000000 1.000000
outer loop
vertex 0.000650 0.003112 0.150000
vertex 0.000555 0.003119 0.150000
vertex 0.000517 0.003118 0.150000
endloop
endfacet
facet normal 0.000000 0.000000 1.000000
outer loop
vertex 0.000650 0.003112 0.150000
vertex 0.000517 0.003118 0.150000
vertex 0.000354 0.003040 0.150000
endloop
endfacet
facet normal 0.000000 0.000000 1.000000
outer loop
vertex 0.000354 0.003040 0.150000
vertex 0.000229 0.002953 0.150000
vertex 0.000069 0.002825 0.150000
endloop
endfacet
facet normal 0.000078 0.000000 1.000000
outer loop
vertex 0.000069 0.002825 0.150000
vertex 0.000180 0.001794 0.150000
vertex 0.000443 0.001042 0.150000
endloop
endfacet
facet normal -0.000303 0.000000 1.000000
outer loop
vertex 0.000443 0.001042 0.150000
vertex 0.000680 0.000614 0.150000
vertex 0.000900 0.000320 0.150000
endloop
endfacet
facet normal 0.000040 0.000000 1.000000
outer loop
vertex 0.000900 0.000320 0.150000
vertex 0.001367 0.000021 0.150000
vertex 0.005099 0.003928 0.150000
endloop
endfacet
facet normal -0.000014 0.000000 1.000000
outer loop
vertex 0.000900 0.000320 0.150000
vertex 0.005099 0.003928 0.150000
vertex 0.003404 0.003469 0.150000
endloop
endfacet
facet normal -0.000027 0.000000 1.000000
outer loop
vertex 0.000069 0.002825 0.150000
vertex 0.000443 0.001042 0.150000
vertex 0.000900 0.000320 0.150000
endloop
endfacet
facet normal 0.000000 0.000000 1.000000
outer loop
vertex 0.000650 0.003112 0.150000
vertex 0.000354 0.003040 0.150000
vertex 0.000069 0.002825 0.150000
endloop
endfacet
facet normal 0.000386 0.000000 1.000000
outer loop
vertex 0.000716 0.003113 0.150000
vertex 0.000650 0.003112 0.150000
vertex 0.000069 0.002825 0.150000
endloop
endfacet
facet normal 0.000159 0.000000 1.000000
outer loop
vertex 0.000900 0.000320 0.150000
vertex 0.003404 0.003469 0.150000
vertex 0.003255 0.003431 0.150000
endloop
endfacet
facet normal -0.000068 0.000000 1.000000
outer loop
vertex 0.000900 0.000320 0.150000
vertex 0.003255 0.003431 0.150000
vertex 0.003124 0.003401 0.150000
endloop
endfacet
facet normal 0.000031 0.000000 1.000000
outer loop
vertex 0.000716 0.003113 0.150000
vertex 0.000069 0.002825 0.150000
vertex 0.000900 0.000320 0.150000
endloop
endfacet
facet normal 0.000000 0.000000 1.000000
outer loop
vertex 0.000790 0.003115 0.150000
vertex 0.000716 0.003113 0.150000
vertex 0.000900 0.000320 0.150000
endloop
endfacet
facet normal -0.000198 0.000000 1.000000
outer loop
vertex 0.000900 0.000320 0.150000
vertex 0.003124 0.003401 0.150000
vertex 0.003015 0.003381 0.150000
endloop
endfacet
facet normal 0.000000 0.000000 1.000000
outer loop
vertex 0.001245 0.003147 0.150000
vertex 0.000790 0.003115 0.150000
vertex 0.000900 0.000320 0.150000
endloop
endfacet
facet normal 0.000000 0.000000 1.000000
outer loop
vertex 0.003015 0.003381 0.150000
vertex 0.001245 0.003147 0.150000
vertex 0.000900 0.000320 0.150000
endloop
endfacet
facet normal -0.569262 -0.822156 0.000000
outer loop
vertex 0.001002 0.000225 0.150000
vertex 0.001002 0.000225 0.000000
vertex 0.001052 0.000191 0.000000
endloop
endfacet
facet normal -0.569262 -0.822156 0.000000
outer loop
vertex 0.001002 0.000225 0.150000
vertex 0.001052 0.000191 0.000000
vertex 0.001052 0.000191 0.150000
endloop
endfacet
facet normal -0.457788 -0.889061 0.000000
outer loop
vertex 0.001144 0.000144 0.000000
vertex 0.001144 0.000144 0.150000
vertex 0.001052 0.000191 0.150000
endloop
endfacet
facet normal -0.457787 -0.889062 0.000000
outer loop
vertex 0.001144 0.000144 0.000000
vertex 0.001052 0.000191 0.150000
vertex 0.001052 0.000191 0.000000
endloop
endfacet
facet normal -0.950547 -0.310581 0.000000
outer loop
vertex 0.000180 0.001794 0.000000
vertex 0.000383 0.001173 0.000000
vertex 0.000383 0.001173 0.150000
endloop
endfacet
facet normal -0.950547 -0.310581 0.000000
outer loop
vertex 0.000180 0.001794 0.000000
vertex 0.000383 0.001173 0.150000
vertex 0.000180 0.001794 0.150000
endloop
endfacet
facet normal -0.983362 -0.181659 0.000000
outer loop
vertex 0.000000 0.002767 0.000000
vertex 0.000180 0.001794 0.000000
vertex 0.000180 0.001794 0.150000
endloop
endfacet
facet normal -0.983362 -0.181659 0.000000
outer loop
vertex 0.000000 0.002767 0.000000
vertex 0.000180 0.001794 0.150000
vertex 0.000000 0.002767 0.150000
endloop
endfacet
facet normal 0.000000 0.000000 -1.000000
outer loop
vertex 0.003565 0.003515 0.000000
vertex 0.003404 0.003469 0.000000
vertex 0.003255 0.003431 0.000000
endloop
endfacet
facet normal -0.223780 0.974640 0.000000
outer loop
vertex 0.003255 0.003431 0.000000
vertex 0.003124 0.003401 0.000000
vertex 0.003124 0.003401 0.150000
endloop
endfacet
facet normal -0.223780 0.974640 0.000000
outer loop
vertex 0.003255 0.003431 0.000000
vertex 0.003124 0.003401 0.150000
vertex 0.003255 0.003431 0.150000
endloop
endfacet
facet normal 0.000000 0.000000 -1.000000
outer loop
vertex 0.003734 0.003564 0.000000
vertex 0.003565 0.003515 0.000000
vertex 0.003255 0.003431 0.000000
endloop
endfacet
facet normal 0.000000 0.000000 -1.000000
outer loop
vertex 0.004531 0.003811 0.000000
vertex 0.003907 0.003617 0.000000
vertex 0.003734 0.003564 0.000000
endloop
endfacet
facet normal 0.000000 0.000000 -1.000000
outer loop
vertex 0.004531 0.003811 0.000000
vertex 0.003734 0.003564 0.000000
vertex 0.003255 0.003431 0.000000
endloop
endfacet
facet normal -0.251345 0.967898 0.000000
outer loop
vertex 0.003255 0.003431 0.000000
vertex 0.003255 0.003431 0.150000
vertex 0.003404 0.003469 0.150000
endloop
endfacet
facet normal -0.269250 0.963070 0.000019
outer loop
vertex 0.003255 0.003431 0.000000
vertex 0.003404 0.003469 0.150000
vertex 0.003565 0.003515 0.150000
endloop
endfacet
facet normal 0.000000 0.000000 -1.000000
outer loop
vertex 0.004647 0.003847 0.000000
vertex 0.004531 0.003811 0.000000
vertex 0.003255 0.003431 0.000000
endloop
endfacet
facet normal -0.286136 0.958189 0.000057
outer loop
vertex 0.004647 0.003847 0.000000
vertex 0.003255 0.003431 0.000000
vertex 0.003565 0.003515 0.150000
endloop
endfacet
facet normal -0.281434 0.959581 0.000094
outer loop
vertex 0.004647 0.003847 0.000000
vertex 0.003565 0.003515 0.150000
vertex 0.003734 0.003564 0.150000
endloop
endfacet
facet normal -0.277170 0.960821 0.000122
outer loop
vertex 0.004736 0.003872 0.000000
vertex 0.004647 0.003847 0.000000
vertex 0.003734 0.003564 0.150000
endloop
endfacet
facet normal -0.289828 0.957079 0.000030
outer loop
vertex 0.004736 0.003872 0.000000
vertex 0.003734 0.003564 0.150000
vertex 0.003907 0.003617 0.150000
endloop
endfacet
facet normal -0.186122 0.982527 0.000000
outer loop
vertex 0.004887 0.003905 0.150000
vertex 0.004887 0.003905 0.000000
vertex 0.004812 0.003891 0.000000
endloop
endfacet
facet normal -0.236166 0.971713 0.000351
outer loop
vertex 0.004812 0.003891 0.000000
vertex 0.004736 0.003872 0.000000
vertex 0.003907 0.003617 0.150000
endloop
endfacet
facet normal -0.297796 0.954630 -0.000052
outer loop
vertex 0.004812 0.003891 0.000000
vertex 0.003907 0.003617 0.150000
vertex 0.004531 0.003811 0.150000
endloop
endfacet
facet normal -0.186124 0.982526 0.000000
outer loop
vertex 0.004812 0.003891 0.150000
vertex 0.004887 0.003905 0.150000
vertex 0.004812 0.003891 0.000000
endloop
endfacet
facet normal -0.236164 0.971713 0.000000
outer loop
vertex 0.004736 0.003872 0.150000
vertex 0.004812 0.003891 0.150000
vertex 0.004812 0.003891 0.000000
endloop
endfacet
facet normal -0.291605 0.956539 -0.000039
outer loop
vertex 0.004812 0.003891 0.000000
vertex 0.004531 0.003811 0.150000
vertex 0.004647 0.003847 0.150000
endloop
endfacet
facet normal -0.277172 0.960820 -0.000022
outer loop
vertex 0.004647 0.003847 0.150000
vertex 0.004736 0.003872 0.150000
vertex 0.004812 0.003891 0.000000
endloop
endfacet
facet normal -0.459868 -0.887987 0.000000
outer loop
vertex 0.001268 0.000065 0.150000
vertex 0.001268 0.000065 0.000000
vertex 0.001314 0.000041 0.000000
endloop
endfacet
facet normal -0.459868 -0.887987 0.000000
outer loop
vertex 0.001268 0.000065 0.150000
vertex 0.001314 0.000041 0.000000
vertex 0.001314 0.000041 0.150000
endloop
endfacet
facet normal -0.142684 0.989768 0.000000
outer loop
vertex 0.004961 0.003916 0.000000
vertex 0.004887 0.003905 0.000000
vertex 0.004887 0.003905 0.150000
endloop
endfacet
facet normal -0.142681 0.989769 0.000000
outer loop
vertex 0.004961 0.003916 0.000000
vertex 0.004887 0.003905 0.150000
vertex 0.004961 0.003916 0.150000
endloop
endfacet
facet normal -0.104821 0.994491 0.000000
outer loop
vertex 0.005032 0.003923 0.000000
vertex 0.004961 0.003916 0.000000
vertex 0.004961 0.003916 0.150000
endloop
endfacet
facet normal -0.104822 0.994491 0.000000
outer loop
vertex 0.005032 0.003923 0.000000
vertex 0.004961 0.003916 0.150000
vertex 0.005032 0.003923 0.150000
endloop
endfacet
facet normal -0.042503 0.999096 0.000000
outer loop
vertex 0.005161 0.003931 0.150000
vertex 0.005161 0.003931 0.000000
vertex 0.005099 0.003928 0.000000
endloop
endfacet
facet normal -0.071671 0.997428 0.000000
outer loop
vertex 0.005099 0.003928 0.000000
vertex 0.005032 0.003923 0.000000
vertex 0.005032 0.003923 0.150000
endloop
endfacet
facet normal -0.042503 0.999096 0.000000
outer loop
vertex 0.005099 0.003928 0.150000
vertex 0.005161 0.003931 0.150000
vertex 0.005099 0.003928 0.000000
endloop
endfacet
facet normal -0.071670 0.997428 0.000000
outer loop
vertex 0.005032 0.003923 0.150000
vertex 0.005099 0.003928 0.150000
vertex 0.005099 0.003928 0.000000
endloop
endfacet
facet normal 0.430108 -0.902777 0.000000
outer loop
vertex 0.005596 0.000995 0.150000
vertex 0.005596 0.000995 0.000000
vertex 0.005681 0.001036 0.000000
endloop
endfacet
facet normal 0.430108 -0.902777 0.000000
outer loop
vertex 0.005596 0.000995 0.150000
vertex 0.005681 0.001036 0.000000
vertex 0.005681 0.001036 0.150000
endloop
endfacet
facet normal 0.031188 0.999514 0.000000
outer loop
vertex 0.006021 0.003904 0.150000
vertex 0.006021 0.003904 0.000000
vertex 0.005161 0.003931 0.000000
endloop
endfacet
facet normal 0.031188 0.999514 0.000000
outer loop
vertex 0.006021 0.003904 0.150000
vertex 0.005161 0.003931 0.000000
vertex 0.005161 0.003931 0.150000
endloop
endfacet
facet normal 0.971653 0.236411 0.000000
outer loop
vertex 0.006593 0.003216 0.150000
vertex 0.006593 0.003216 0.000000
vertex 0.006579 0.003271 0.000000
endloop
endfacet
facet normal 0.971647 0.236437 0.000000
outer loop
vertex 0.006593 0.003216 0.150000
vertex 0.006579 0.003271 0.000000
vertex 0.006579 0.003271 0.150000
endloop
endfacet
facet normal 0.073369 0.997305 0.000000
outer loop
vertex 0.000650 0.003112 0.000000
vertex 0.000555 0.003119 0.000000
vertex 0.000555 0.003119 0.150000
endloop
endfacet
facet normal 0.073369 0.997305 0.000000
outer loop
vertex 0.000650 0.003112 0.000000
vertex 0.000555 0.003119 0.150000
vertex 0.000650 0.003112 0.150000
endloop
endfacet
facet normal 0.340123 -0.940381 0.000000
outer loop
vertex 0.005517 0.000967 0.150000
vertex 0.005517 0.000967 0.000000
vertex 0.005596 0.000995 0.000000
endloop
endfacet
facet normal 0.340120 -0.940382 0.000000
outer loop
vertex 0.005517 0.000967 0.150000
vertex 0.005596 0.000995 0.000000
vertex 0.005596 0.000995 0.150000
endloop
endfacet
facet normal 0.278703 -0.960377 0.000000
outer loop
vertex 0.003339 0.000580 0.000000
vertex 0.003462 0.000615 0.000000
vertex 0.003462 0.000615 0.150000
endloop
endfacet
facet normal 0.278703 -0.960377 0.000000
outer loop
vertex 0.003339 0.000580 0.000000
vertex 0.003462 0.000615 0.150000
vertex 0.003339 0.000580 0.150000
endloop
endfacet
facet normal 0.000000 0.000000 1.000000
outer loop
vertex 0.001973 0.000084 0.000000
vertex 0.002281 0.000186 0.000000
vertex 0.003215 0.000539 0.000000
endloop
endfacet
facet normal 0.310377 -0.950613 0.000000
outer loop
vertex 0.003215 0.000539 0.000000
vertex 0.003339 0.000580 0.000000
vertex 0.003339 0.000580 0.150000
endloop
endfacet
facet normal 0.310378 -0.950613 0.000000
outer loop
vertex 0.003215 0.000539 0.000000
vertex 0.003339 0.000580 0.150000
vertex 0.003215 0.000539 0.150000
endloop
endfacet
facet normal 0.343969 -0.938981 0.000000
outer loop
vertex 0.001973 0.000084 0.150000
vertex 0.001973 0.000084 0.000000
vertex 0.003215 0.000539 0.000000
endloop
endfacet
facet normal 0.353393 -0.935475 0.000000
outer loop
vertex 0.003215 0.000539 0.000000
vertex 0.003215 0.000539 0.150000
vertex 0.002281 0.000186 0.150000
endloop
endfacet
facet normal 0.314664 -0.949203 -0.000274
outer loop
vertex 0.003215 0.000539 0.000000
vertex 0.002281 0.000186 0.150000
vertex 0.001973 0.000084 0.150000
endloop
endfacet
facet normal 0.861419 -0.507894 0.000000
outer loop
vertex 0.006371 0.001495 0.150000
vertex 0.006371 0.001495 0.000000
vertex 0.006402 0.001548 0.000000
endloop
endfacet
facet normal 0.861408 -0.507913 0.000000
outer loop
vertex 0.006371 0.001495 0.150000
vertex 0.006402 0.001548 0.000000
vertex 0.006402 0.001548 0.150000
endloop
endfacet
facet normal 0.745930 0.666024 0.000000
outer loop
vertex 0.006458 0.003469 0.150000
vertex 0.006501 0.003421 0.150000
vertex 0.006501 0.003421 0.000000
endloop
endfacet
facet normal 0.000000 0.000000 -1.000000
outer loop
vertex 0.006458 0.003469 0.000000
vertex 0.006412 0.003517 0.000000
vertex 0.006368 0.003566 0.000000
endloop
endfacet
facet normal 0.745918 0.666037 0.000000
outer loop
vertex 0.006458 0.003469 0.150000
vertex 0.006501 0.003421 0.000000
vertex 0.006458 0.003469 0.000000
endloop
endfacet
facet normal 0.720731 0.693215 0.000000
outer loop
vertex 0.006412 0.003517 0.150000
vertex 0.006458 0.003469 0.150000
vertex 0.006458 0.003469 0.000000
endloop
endfacet
facet normal 0.000000 0.000000 -1.000000
outer loop
vertex 0.006458 0.003469 0.000000
vertex 0.006368 0.003566 0.000000
vertex 0.006326 0.003614 0.000000
endloop
endfacet
facet normal 0.000000 0.000000 -1.000000
outer loop
vertex 0.006326 0.003614 0.000000
vertex 0.006286 0.003662 0.000000
vertex 0.006249 0.003707 0.000000
endloop
endfacet
facet normal 0.000000 0.000000 -1.000000
outer loop
vertex 0.006458 0.003469 0.000000
vertex 0.006326 0.003614 0.000000
vertex 0.006249 0.003707 0.000000
endloop
endfacet
facet normal 0.741975 0.670427 0.000014
outer loop
vertex 0.006368 0.003566 0.150000
vertex 0.006412 0.003517 0.150000
vertex 0.006458 0.003469 0.000000
endloop
endfacet
facet normal 0.756743 0.653713 0.000034
outer loop
vertex 0.006326 0.003614 0.150000
vertex 0.006368 0.003566 0.150000
vertex 0.006458 0.003469 0.000000
endloop
endfacet
facet normal 0.000000 0.000000 -1.000000
outer loop
vertex 0.006458 0.003469 0.000000
vertex 0.006249 0.003707 0.000000
vertex 0.006212 0.003749 0.000000
endloop
endfacet
facet normal 0.722562 0.691306 0.000000
outer loop
vertex 0.006178 0.003788 0.000000
vertex 0.006145 0.003823 0.000000
vertex 0.006145 0.003823 0.150000
endloop
endfacet
facet normal 0.751871 0.659311 0.000024
outer loop
vertex 0.006326 0.003614 0.150000
vertex 0.006458 0.003469 0.000000
vertex 0.006212 0.003749 0.000000
endloop
endfacet
facet normal 0.748519 0.663113 0.000012
outer loop
vertex 0.006212 0.003749 0.000000
vertex 0.006178 0.003788 0.000000
vertex 0.006145 0.003823 0.150000
endloop
endfacet
facet normal 0.722570 0.691297 -0.000013
outer loop
vertex 0.006212 0.003749 0.000000
vertex 0.006145 0.003823 0.150000
vertex 0.006178 0.003788 0.150000
endloop
endfacet
facet normal 0.765306 0.643666 -0.000000
outer loop
vertex 0.006286 0.003662 0.150000
vertex 0.006326 0.003614 0.150000
vertex 0.006212 0.003749 0.000000
endloop
endfacet
facet normal 0.767473 0.641081 -0.000003
outer loop
vertex 0.006249 0.003707 0.150000
vertex 0.006286 0.003662 0.150000
vertex 0.006212 0.003749 0.000000
endloop
endfacet
facet normal 0.748519 0.663113 0.000000
outer loop
vertex 0.006212 0.003749 0.000000
vertex 0.006178 0.003788 0.150000
vertex 0.006212 0.003749 0.150000
endloop
endfacet
facet normal 0.762423 0.647079 0.000000
outer loop
vertex 0.006212 0.003749 0.000000
vertex 0.006212 0.003749 0.150000
vertex 0.006249 0.003707 0.150000
endloop
endfacet
facet normal 0.239465 -0.970905 0.000000
outer loop
vertex 0.001700 0.000017 0.150000
vertex 0.001700 0.000017 0.000000
vertex 0.001973 0.000084 0.000000
endloop
endfacet
facet normal 0.239464 -0.970905 0.000000
outer loop
vertex 0.001700 0.000017 0.150000
vertex 0.001973 0.000084 0.000000
vertex 0.001973 0.000084 0.150000
endloop
endfacet
facet normal 0.153447 -0.988157 0.000000
outer loop
vertex 0.005371 0.000937 0.150000
vertex 0.005371 0.000937 0.000000
vertex 0.005443 0.000948 0.000000
endloop
endfacet
facet normal 0.153445 -0.988157 0.000000
outer loop
vertex 0.005371 0.000937 0.150000
vertex 0.005443 0.000948 0.000000
vertex 0.005443 0.000948 0.150000
endloop
endfacet
facet normal 0.632511 -0.774551 0.000000
outer loop
vertex 0.006254 0.001374 0.150000
vertex 0.006254 0.001374 0.000000
vertex 0.006297 0.001409 0.000000
endloop
endfacet
facet normal 0.632511 -0.774551 0.000000
outer loop
vertex 0.006254 0.001374 0.150000
vertex 0.006297 0.001409 0.000000
vertex 0.006297 0.001409 0.150000
endloop
endfacet
facet normal 0.998225 -0.059563 0.000000
outer loop
vertex 0.006619 0.002410 0.000000
vertex 0.006625 0.002509 0.000000
vertex 0.006625 0.002509 0.150000
endloop
endfacet
facet normal 0.998224 -0.059578 0.000000
outer loop
vertex 0.006619 0.002410 0.000000
vertex 0.006625 0.002509 0.150000
vertex 0.006619 0.002410 0.150000
endloop
endfacet
facet normal 0.987376 -0.158395 0.000000
outer loop
vertex 0.006578 0.002116 0.150000
vertex 0.006578 0.002116 0.000000
vertex 0.006609 0.002311 0.000000
endloop
endfacet
facet normal 0.994755 -0.102284 0.000000
outer loop
vertex 0.006609 0.002311 0.000000
vertex 0.006619 0.002410 0.000000
vertex 0.006619 0.002410 0.150000
endloop
endfacet
facet normal 0.987376 -0.158395 0.000000
outer loop
vertex 0.006609 0.002311 0.150000
vertex 0.006578 0.002116 0.150000
vertex 0.006609 0.002311 0.000000
endloop
endfacet
facet normal 0.994754 -0.102300 0.000000
outer loop
vertex 0.006619 0.002410 0.150000
vertex 0.006609 0.002311 0.150000
vertex 0.006609 0.002311 0.000000
endloop
endfacet
facet normal 0.000000 0.000000 -1.000000
outer loop
vertex 0.005947 0.001195 0.000000
vertex 0.006022 0.001237 0.000000
vertex 0.006090 0.001274 0.000000
endloop
endfacet
facet normal 0.000000 0.000000 -1.000000
outer loop
vertex 0.005864 0.001147 0.000000
vertex 0.005947 0.001195 0.000000
vertex 0.006090 0.001274 0.000000
endloop
endfacet
facet normal 0.507706 -0.861530 0.000000
outer loop
vertex 0.005681 0.001036 0.150000
vertex 0.005681 0.001036 0.000000
vertex 0.005773 0.001090 0.000000
endloop
endfacet
facet normal 0.000000 0.000000 -1.000000
outer loop
vertex 0.005773 0.001090 0.000000
vertex 0.005864 0.001147 0.000000
vertex 0.006090 0.001274 0.000000
endloop
endfacet
facet normal 0.000000 0.000000 -1.000000
outer loop
vertex 0.005773 0.001090 0.000000
vertex 0.006090 0.001274 0.000000
vertex 0.006151 0.001308 0.000000
endloop
endfacet
facet normal 0.507709 -0.861529 0.000000
outer loop
vertex 0.005773 0.001090 0.150000
vertex 0.005681 0.001036 0.150000
vertex 0.005773 0.001090 0.000000
endloop
endfacet
facet normal 0.528019 -0.849232 0.000000
outer loop
vertex 0.005864 0.001147 0.150000
vertex 0.005773 0.001090 0.150000
vertex 0.005773 0.001090 0.000000
endloop
endfacet
facet normal 0.500032 -0.866007 0.000023
outer loop
vertex 0.005864 0.001147 0.150000
vertex 0.005773 0.001090 0.000000
vertex 0.006151 0.001308 0.000000
endloop
endfacet
facet normal 0.504419 -0.863459 0.000035
outer loop
vertex 0.005947 0.001195 0.150000
vertex 0.005864 0.001147 0.150000
vertex 0.006151 0.001308 0.000000
endloop
endfacet
facet normal 0.563475 -0.826133 0.000000
outer loop
vertex 0.006205 0.001341 0.000000
vertex 0.006254 0.001374 0.000000
vertex 0.006254 0.001374 0.150000
endloop
endfacet
facet normal 0.514709 -0.857365 0.000053
outer loop
vertex 0.005947 0.001195 0.150000
vertex 0.006151 0.001308 0.000000
vertex 0.006205 0.001341 0.000000
endloop
endfacet
facet normal 0.487150 -0.873318 -0.000010
outer loop
vertex 0.006022 0.001237 0.150000
vertex 0.005947 0.001195 0.150000
vertex 0.006205 0.001341 0.000000
endloop
endfacet
facet normal 0.563462 -0.826142 0.000000
outer loop
vertex 0.006205 0.001341 0.000000
vertex 0.006254 0.001374 0.150000
vertex 0.006205 0.001341 0.150000
endloop
endfacet
facet normal 0.514704 -0.857368 0.000000
outer loop
vertex 0.006205 0.001341 0.000000
vertex 0.006205 0.001341 0.150000
vertex 0.006151 0.001308 0.150000
endloop
endfacet
facet normal 0.480117 -0.877205 -0.000021
outer loop
vertex 0.006090 0.001274 0.150000
vertex 0.006022 0.001237 0.150000
vertex 0.006205 0.001341 0.000000
endloop
endfacet
facet normal 0.487836 -0.872935 -0.000013
outer loop
vertex 0.006205 0.001341 0.000000
vertex 0.006151 0.001308 0.150000
vertex 0.006090 0.001274 0.150000
endloop
endfacet
facet normal 0.313132 0.949709 0.000000
outer loop
vertex 0.006051 0.003894 0.150000
vertex 0.006051 0.003894 0.000000
vertex 0.006021 0.003904 0.000000
endloop
endfacet
facet normal 0.313125 0.949712 0.000000
outer loop
vertex 0.006051 0.003894 0.150000
vertex 0.006021 0.003904 0.000000
vertex 0.006021 0.003904 0.150000
endloop
endfacet
facet normal 0.000000 0.000000 -1.000000
outer loop
vertex 0.006626 0.002607 0.000000
vertex 0.006617 0.002796 0.000000
vertex 0.006610 0.003030 0.000000
endloop
endfacet
facet normal 0.996303 0.085904 0.000000
outer loop
vertex 0.006607 0.003096 0.000000
vertex 0.006601 0.003158 0.000000
vertex 0.006601 0.003158 0.150000
endloop
endfacet
facet normal 0.998941 0.046006 0.000017
outer loop
vertex 0.006610 0.003030 0.000000
vertex 0.006607 0.003096 0.000000
vertex 0.006601 0.003158 0.150000
endloop
endfacet
facet normal 0.996303 0.085904 -0.000018
outer loop
vertex 0.006610 0.003030 0.000000
vertex 0.006601 0.003158 0.150000
vertex 0.006607 0.003096 0.150000
endloop
endfacet
facet normal 0.999931 -0.011764 0.000000
outer loop
vertex 0.006625 0.002509 0.150000
vertex 0.006625 0.002509 0.000000
vertex 0.006626 0.002607 0.000000
endloop
endfacet
facet normal 0.999254 0.038615 0.000003
outer loop
vertex 0.006626 0.002607 0.000000
vertex 0.006610 0.003030 0.000000
vertex 0.006607 0.003096 0.150000
endloop
endfacet
facet normal 0.998941 0.046006 -0.000021
outer loop
vertex 0.006626 0.002607 0.000000
vertex 0.006607 0.003096 0.150000
vertex 0.006610 0.003030 0.150000
endloop
endfacet
facet normal 0.999931 -0.011748 0.000000
outer loop
vertex 0.006626 0.002607 0.150000
vertex 0.006625 0.002509 0.150000
vertex 0.006626 0.002607 0.000000
endloop
endfacet
facet normal 0.999564 0.029542 0.000026
outer loop
vertex 0.006626 0.002607 0.000000
vertex 0.006610 0.003030 0.150000
vertex 0.006617 0.002796 0.150000
endloop
endfacet
facet normal 0.998755 0.049879 0.000000
outer loop
vertex 0.006617 0.002796 0.150000
vertex 0.006626 0.002607 0.150000
vertex 0.006626 0.002607 0.000000
endloop
endfacet
facet normal 0.244303 -0.969699 0.000000
outer loop
vertex 0.005443 0.000948 0.150000
vertex 0.005443 0.000948 0.000000
vertex 0.005517 0.000967 0.000000
endloop
endfacet
facet normal 0.244300 -0.969700 0.000000
outer loop
vertex 0.005443 0.000948 0.150000
vertex 0.005517 0.000967 0.000000
vertex 0.005517 0.000967 0.150000
endloop
endfacet
facet normal -0.004554 0.999990 0.000000
outer loop
vertex 0.000716 0.003113 0.000000
vertex 0.000650 0.003112 0.000000
vertex 0.000650 0.003112 0.150000
endloop
endfacet
facet normal -0.004554 0.999990 0.000000
outer loop
vertex 0.000716 0.003113 0.000000
vertex 0.000650 0.003112 0.150000
vertex 0.000716 0.003113 0.150000
endloop
endfacet
facet normal -0.030139 0.999546 0.000000
outer loop
vertex 0.000790 0.003115 0.000000
vertex 0.000716 0.003113 0.000000
vertex 0.000716 0.003113 0.150000
endloop
endfacet
facet normal -0.030139 0.999546 0.000000
outer loop
vertex 0.000790 0.003115 0.000000
vertex 0.000716 0.003113 0.150000
vertex 0.000790 0.003115 0.150000
endloop
endfacet
facet normal -0.069980 0.997548 0.000000
outer loop
vertex 0.001245 0.003147 0.000000
vertex 0.000790 0.003115 0.000000
vertex 0.000790 0.003115 0.150000
endloop
endfacet
facet normal -0.069980 0.997548 0.000000
outer loop
vertex 0.001245 0.003147 0.000000
vertex 0.000790 0.003115 0.150000
vertex 0.001245 0.003147 0.150000
endloop
endfacet
facet normal -0.177515 0.984118 0.000000
outer loop
vertex 0.003124 0.003401 0.150000
vertex 0.003124 0.003401 0.000000
vertex 0.003015 0.003381 0.000000
endloop
endfacet
facet normal -0.131216 0.991354 0.000000
outer loop
vertex 0.003015 0.003381 0.000000
vertex 0.001245 0.003147 0.000000
vertex 0.001245 0.003147 0.150000
endloop
endfacet
facet normal -0.177515 0.984118 0.000000
outer loop
vertex 0.003015 0.003381 0.150000
vertex 0.003124 0.003401 0.150000
vertex 0.003015 0.003381 0.000000
endloop
endfacet
facet normal -0.131216 0.991354 0.000000
outer loop
vertex 0.001245 0.003147 0.150000
vertex 0.003015 0.003381 0.150000
vertex 0.003015 0.003381 0.000000
endloop
endfacet
facet normal -0.038645 0.999253 0.000000
outer loop
vertex 0.000555 0.003119 0.150000
vertex 0.000555 0.003119 0.000000
vertex 0.000517 0.003118 0.000000
endloop
endfacet
facet normal -0.038645 0.999253 0.000000
outer loop
vertex 0.000555 0.003119 0.150000
vertex 0.000517 0.003118 0.000000
vertex 0.000517 0.003118 0.150000
endloop
endfacet
facet normal 0.029814 -0.999555 0.000000
outer loop
vertex 0.001504 0.000000 0.150000
vertex 0.001504 0.000000 0.000000
vertex 0.001593 0.000003 0.000000
endloop
endfacet
facet normal 0.029814 -0.999556 0.000000
outer loop
vertex 0.001504 0.000000 0.150000
vertex 0.001593 0.000003 0.000000
vertex 0.001593 0.000003 0.150000
endloop
endfacet
facet normal 0.713794 -0.700356 0.000000
outer loop
vertex 0.006297 0.001409 0.150000
vertex 0.006297 0.001409 0.000000
vertex 0.006336 0.001449 0.000000
endloop
endfacet
facet normal 0.713801 -0.700349 0.000000
outer loop
vertex 0.006297 0.001409 0.150000
vertex 0.006336 0.001449 0.000000
vertex 0.006336 0.001449 0.150000
endloop
endfacet
facet normal 0.000000 0.000000 -1.000000
outer loop
vertex 0.001144 0.000144 0.000000
vertex 0.001186 0.000118 0.000000
vertex 0.001226 0.000091 0.000000
endloop
endfacet
facet normal -0.529743 -0.848158 0.000000
outer loop
vertex 0.001226 0.000091 0.000000
vertex 0.001268 0.000065 0.000000
vertex 0.001268 0.000065 0.150000
endloop
endfacet
facet normal -0.529743 -0.848158 0.000000
outer loop
vertex 0.001226 0.000091 0.000000
vertex 0.001268 0.000065 0.150000
vertex 0.001226 0.000091 0.150000
endloop
endfacet
facet normal -0.540156 -0.841565 0.000000
outer loop
vertex 0.001144 0.000144 0.150000
vertex 0.001144 0.000144 0.000000
vertex 0.001226 0.000091 0.000000
endloop
endfacet
facet normal -0.553114 -0.833106 0.000000
outer loop
vertex 0.001226 0.000091 0.000000
vertex 0.001226 0.000091 0.150000
vertex 0.001186 0.000118 0.150000
endloop
endfacet
facet normal -0.527087 -0.849812 0.000010
outer loop
vertex 0.001226 0.000091 0.000000
vertex 0.001186 0.000118 0.150000
vertex 0.001144 0.000144 0.150000
endloop
endfacet
facet normal 0.051638 -0.998666 0.000000
outer loop
vertex 0.005371 0.000937 0.000000
vertex 0.005371 0.000937 0.150000
vertex 0.004905 0.000913 0.150000
endloop
endfacet
facet normal 0.051638 -0.998666 0.000000
outer loop
vertex 0.005371 0.000937 0.000000
vertex 0.004905 0.000913 0.150000
vertex 0.004905 0.000913 0.000000
endloop
endfacet
facet normal -0.088689 -0.996059 0.000000
outer loop
vertex 0.001430 0.000007 0.150000
vertex 0.001430 0.000007 0.000000
vertex 0.001504 0.000000 0.000000
endloop
endfacet
facet normal -0.088689 -0.996059 0.000000
outer loop
vertex 0.001430 0.000007 0.150000
vertex 0.001504 0.000000 0.000000
vertex 0.001504 0.000000 0.150000
endloop
endfacet
facet normal -0.679774 -0.733422 0.000000
outer loop
vertex 0.000900 0.000320 0.150000
vertex 0.000900 0.000320 0.000000
vertex 0.001002 0.000225 0.000000
endloop
endfacet
facet normal -0.679775 -0.733421 0.000000
outer loop
vertex 0.000900 0.000320 0.150000
vertex 0.001002 0.000225 0.000000
vertex 0.001002 0.000225 0.150000
endloop
endfacet
facet normal 0.493377 0.869815 0.000000
outer loop
vertex 0.006081 0.003877 0.150000
vertex 0.006081 0.003877 0.000000
vertex 0.006051 0.003894 0.000000
endloop
endfacet
facet normal 0.493368 0.869821 0.000000
outer loop
vertex 0.006081 0.003877 0.150000
vertex 0.006051 0.003894 0.000000
vertex 0.006051 0.003894 0.150000
endloop
endfacet
facet normal 0.607992 0.793943 0.000000
outer loop
vertex 0.006113 0.003853 0.150000
vertex 0.006113 0.003853 0.000000
vertex 0.006081 0.003877 0.000000
endloop
endfacet
facet normal 0.608001 0.793936 0.000000
outer loop
vertex 0.006113 0.003853 0.150000
vertex 0.006081 0.003877 0.000000
vertex 0.006081 0.003877 0.150000
endloop
endfacet
facet normal 0.821664 0.569972 0.000000
outer loop
vertex 0.006535 0.003373 0.150000
vertex 0.006535 0.003373 0.000000
vertex 0.006501 0.003421 0.000000
endloop
endfacet
facet normal 0.821664 0.569972 0.000000
outer loop
vertex 0.006535 0.003373 0.150000
vertex 0.006501 0.003421 0.000000
vertex 0.006501 0.003421 0.150000
endloop
endfacet
facet normal -0.220977 -0.975279 0.000000
outer loop
vertex 0.001367 0.000021 0.150000
vertex 0.001367 0.000021 0.000000
vertex 0.001430 0.000007 0.000000
endloop
endfacet
facet normal -0.220978 -0.975279 0.000000
outer loop
vertex 0.001367 0.000021 0.150000
vertex 0.001430 0.000007 0.000000
vertex 0.001430 0.000007 0.150000
endloop
endfacet
facet normal 0.939361 0.342929 0.000000
outer loop
vertex 0.006579 0.003271 0.150000
vertex 0.006579 0.003271 0.000000
vertex 0.006560 0.003323 0.000000
endloop
endfacet
facet normal 0.939361 0.342929 0.000000
outer loop
vertex 0.006579 0.003271 0.150000
vertex 0.006560 0.003323 0.000000
vertex 0.006560 0.003323 0.150000
endloop
endfacet
facet normal 0.794135 -0.607742 0.000000
outer loop
vertex 0.006336 0.001449 0.150000
vertex 0.006336 0.001449 0.000000
vertex 0.006371 0.001495 0.000000
endloop
endfacet
facet normal 0.794135 -0.607742 0.000000
outer loop
vertex 0.006336 0.001449 0.150000
vertex 0.006371 0.001495 0.000000
vertex 0.006371 0.001495 0.150000
endloop
endfacet
facet normal 0.000000 0.000000 -1.000000
outer loop
vertex 0.003585 0.000646 0.000000
vertex 0.003818 0.000696 0.000000
vertex 0.004030 0.000741 0.000000
endloop
endfacet
facet normal 0.000000 0.000000 -1.000000
outer loop
vertex 0.004030 0.000741 0.000000
vertex 0.004227 0.000781 0.000000
vertex 0.004808 0.000897 0.000000
endloop
endfacet
facet normal 0.164532 -0.986372 0.000000
outer loop
vertex 0.004808 0.000897 0.000000
vertex 0.004905 0.000913 0.000000
vertex 0.004905 0.000913 0.150000
endloop
endfacet
facet normal 0.164532 -0.986372 0.000000
outer loop
vertex 0.004808 0.000897 0.000000
vertex 0.004905 0.000913 0.150000
vertex 0.004808 0.000897 0.150000
endloop
endfacet
facet normal 0.000000 0.000000 -1.000000
outer loop
vertex 0.003585 0.000646 0.000000
vertex 0.004030 0.000741 0.000000
vertex 0.004808 0.000897 0.000000
endloop
endfacet
facet normal 0.239247 -0.970959 0.000000
outer loop
vertex 0.003462 0.000615 0.150000
vertex 0.003462 0.000615 0.000000
vertex 0.003585 0.000646 0.000000
endloop
endfacet
facet normal 0.239249 -0.970958 0.000000
outer loop
vertex 0.003585 0.000646 0.150000
vertex 0.003462 0.000615 0.150000
vertex 0.003585 0.000646 0.000000
endloop
endfacet
facet normal 0.201175 -0.979555 0.000000
outer loop
vertex 0.003585 0.000646 0.000000
vertex 0.004808 0.000897 0.000000
vertex 0.004808 0.000897 0.150000
endloop
endfacet
facet normal 0.194782 -0.980846 0.000054
outer loop
vertex 0.003585 0.000646 0.000000
vertex 0.004808 0.000897 0.150000
vertex 0.004227 0.000781 0.150000
endloop
endfacet
facet normal 0.213341 -0.976978 0.000000
outer loop
vertex 0.003818 0.000696 0.150000
vertex 0.003585 0.000646 0.150000
vertex 0.003585 0.000646 0.000000
endloop
endfacet
facet normal 0.200055 -0.979785 0.000031
outer loop
vertex 0.003585 0.000646 0.000000
vertex 0.004227 0.000781 0.150000
vertex 0.004030 0.000741 0.150000
endloop
endfacet
facet normal 0.206254 -0.978499 0.000012
outer loop
vertex 0.004030 0.000741 0.150000
vertex 0.003818 0.000696 0.150000
vertex 0.003585 0.000646 0.000000
endloop
endfacet
facet normal 0.931852 -0.362839 0.000000
outer loop
vertex 0.006402 0.001548 0.000000
vertex 0.006485 0.001760 0.000000
vertex 0.006485 0.001760 0.150000
endloop
endfacet
facet normal 0.931852 -0.362839 0.000000
outer loop
vertex 0.006402 0.001548 0.000000
vertex 0.006485 0.001760 0.150000
vertex 0.006402 0.001548 0.150000
endloop
endfacet
facet normal -0.650490 0.759515 0.000000
outer loop
vertex 0.000069 0.002825 0.000000
vertex 0.000000 0.002767 0.000000
vertex 0.000000 0.002767 0.150000
endloop
endfacet
facet normal -0.650490 0.759515 0.000000
outer loop
vertex 0.000069 0.002825 0.000000
vertex 0.000000 0.002767 0.150000
vertex 0.000069 0.002825 0.150000
endloop
endfacet
facet normal -0.629336 0.777133 0.000000
outer loop
vertex 0.000170 0.002907 0.000000
vertex 0.000069 0.002825 0.000000
vertex 0.000069 0.002825 0.150000
endloop
endfacet
facet normal -0.629336 0.777133 0.000000
outer loop
vertex 0.000170 0.002907 0.000000
vertex 0.000069 0.002825 0.150000
vertex 0.000170 0.002907 0.150000
endloop
endfacet
facet normal -0.607438 0.794367 0.000000
outer loop
vertex 0.000229 0.002953 0.000000
vertex 0.000170 0.002907 0.000000
vertex 0.000170 0.002907 0.150000
endloop
endfacet
facet normal -0.607438 0.794367 0.000000
outer loop
vertex 0.000229 0.002953 0.000000
vertex 0.000170 0.002907 0.150000
vertex 0.000229 0.002953 0.150000
endloop
endfacet
facet normal -0.556106 0.831111 0.000000
outer loop
vertex 0.000354 0.003040 0.150000
vertex 0.000354 0.003040 0.000000
vertex 0.000292 0.002998 0.000000
endloop
endfacet
facet normal -0.586000 0.810311 0.000000
outer loop
vertex 0.000292 0.002998 0.000000
vertex 0.000229 0.002953 0.000000
vertex 0.000229 0.002953 0.150000
endloop
endfacet
facet normal -0.556106 0.831111 0.000000
outer loop
vertex 0.000292 0.002998 0.150000
vertex 0.000354 0.003040 0.150000
vertex 0.000292 0.002998 0.000000
endloop
endfacet
facet normal -0.586000 0.810311 0.000000
outer loop
vertex 0.000229 0.002953 0.150000
vertex 0.000292 0.002998 0.150000
vertex 0.000292 0.002998 0.000000
endloop
endfacet
facet normal 0.967677 -0.252191 0.000000
outer loop
vertex 0.006485 0.001760 0.000000
vertex 0.006578 0.002116 0.000000
vertex 0.006578 0.002116 0.150000
endloop
endfacet
facet normal 0.967679 -0.252185 0.000000
outer loop
vertex 0.006485 0.001760 0.000000
vertex 0.006578 0.002116 0.150000
vertex 0.006485 0.001760 0.150000
endloop
endfacet
facet normal -0.310965 0.950421 0.000000
outer loop
vertex 0.000517 0.003118 0.150000
vertex 0.000517 0.003118 0.000000
vertex 0.000469 0.003102 0.000000
endloop
endfacet
facet normal -0.310966 0.950421 0.000000
outer loop
vertex 0.000517 0.003118 0.150000
vertex 0.000469 0.003102 0.000000
vertex 0.000469 0.003102 0.150000
endloop
endfacet
facet normal -0.351508 -0.936185 0.000000
outer loop
vertex 0.001314 0.000041 0.150000
vertex 0.001314 0.000041 0.000000
vertex 0.001367 0.000021 0.000000
endloop
endfacet
facet normal -0.351510 -0.936184 0.000000
outer loop
vertex 0.001314 0.000041 0.150000
vertex 0.001367 0.000021 0.000000
vertex 0.001367 0.000021 0.150000
endloop
endfacet
facet normal -0.825498 -0.564406 0.000000
outer loop
vertex 0.000680 0.000614 0.000000
vertex 0.000793 0.000450 0.000000
vertex 0.000793 0.000450 0.150000
endloop
endfacet
facet normal -0.825498 -0.564405 0.000000
outer loop
vertex 0.000680 0.000614 0.000000
vertex 0.000793 0.000450 0.150000
vertex 0.000680 0.000614 0.150000
endloop
endfacet
facet normal 0.678988 0.734150 0.000000
outer loop
vertex 0.006145 0.003823 0.150000
vertex 0.006145 0.003823 0.000000
vertex 0.006113 0.003853 0.000000
endloop
endfacet
facet normal 0.679005 0.734133 0.000000
outer loop
vertex 0.006145 0.003823 0.150000
vertex 0.006113 0.003853 0.000000
vertex 0.006113 0.003853 0.150000
endloop
endfacet
facet normal 0.988794 0.149284 0.000000
outer loop
vertex 0.006601 0.003158 0.150000
vertex 0.006601 0.003158 0.000000
vertex 0.006593 0.003216 0.000000
endloop
endfacet
facet normal 0.988794 0.149284 0.000000
outer loop
vertex 0.006601 0.003158 0.150000
vertex 0.006593 0.003216 0.000000
vertex 0.006593 0.003216 0.150000
endloop
endfacet
endsolid Exported from Blender-3.6.8
