solid Exported from Blender-3.6.8
facet normal -0.212994 -0.977054 0.000000
outer loop
vertex 0.000291 0.000148 0.150000
vertex 0.000291 0.000148 0.000000
vertex 0.000514 0.000099 0.000000
endloop
endfacet
facet normal -0.212994 -0.977054 0.000000
outer loop
vertex 0.000291 0.000148 0.150000
vertex 0.000514 0.000099 0.000000
vertex 0.000514 0.000099 0.150000
endloop
endfacet
facet normal 0.000000 0.000000 1.000000
outer loop
vertex 0.008003 0.003911 0.150000
vertex 0.007983 0.004057 0.150000
vertex 0.007949 0.004191 0.150000
endloop
endfacet
facet normal -0.001197 0.000000 0.999999
outer loop
vertex 0.007949 0.004191 0.150000
vertex 0.007897 0.004316 0.150000
vertex 0.007824 0.004434 0.150000
endloop
endfacet
facet normal 0.000000 0.000000 1.000000
outer loop
vertex 0.007824 0.004434 0.150000
vertex 0.007726 0.004546 0.150000
vertex 0.007601 0.004654 0.150000
endloop
endfacet
facet normal 0.000000 0.000000 1.000000
outer loop
vertex 0.007601 0.004654 0.150000
vertex 0.007413 0.004749 0.150000
vertex 0.007141 0.004825 0.150000
endloop
endfacet
facet normal 0.000000 0.000000 1.000000
outer loop
vertex 0.007141 0.004825 0.150000
vertex 0.006806 0.004884 0.150000
vertex 0.002813 0.005021 0.150000
endloop
endfacet
facet normal -0.000226 0.000000 1.000000
outer loop
vertex 0.002813 0.005021 0.150000
vertex 0.002285 0.004698 0.150000
vertex 0.002175 0.004600 0.150000
endloop
endfacet
facet normal 0.000000 0.000000 1.000000
outer loop
vertex 0.002175 0.004600 0.150000
vertex 0.002030 0.004461 0.150000
vertex 0.001860 0.004291 0.150000
endloop
endfacet
facet normal 0.000000 0.000000 1.000000
outer loop
vertex 0.001860 0.004291 0.150000
vertex 0.001673 0.004098 0.150000
vertex 0.001480 0.003893 0.150000
endloop
endfacet
facet normal -0.003350 0.000000 0.999994
outer loop
vertex 0.001480 0.003893 0.150000
vertex 0.001288 0.003685 0.150000
vertex 0.001108 0.003483 0.150000
endloop
endfacet
facet normal -0.002616 0.000000 0.999997
outer loop
vertex 0.001108 0.003483 0.150000
vertex 0.000948 0.003298 0.150000
vertex 0.000817 0.003137 0.150000
endloop
endfacet
facet normal 0.000966 0.000000 1.000000
outer loop
vertex 0.000817 0.003137 0.150000
vertex 0.000725 0.003012 0.150000
vertex 0.000680 0.002931 0.150000
endloop
endfacet
facet normal 0.000000 0.000000 1.000000
outer loop
vertex 0.000680 0.002931 0.150000
vertex 0.000084 0.001446 0.150000
vertex 0.000007 0.001143 0.150000
endloop
endfacet
facet normal 0.002290 0.000000 0.999997
outer loop
vertex 0.000007 0.001143 0.150000
vertex 0.000001 0.001039 0.150000
vertex 0.000036 0.000525 0.150000
endloop
endfacet
facet normal 0.000000 0.000000 1.000000
outer loop
vertex 0.000036 0.000525 0.150000
vertex 0.000067 0.000377 0.150000
vertex 0.000092 0.000313 0.150000
endloop
endfacet
facet normal 0.000000 0.000000 1.000000
outer loop
vertex 0.000092 0.000313 0.150000
vertex 0.000125 0.000258 0.150000
vertex 0.000166 0.000211 0.150000
endloop
endfacet
facet normal 0.000828 0.000000 1.000000
outer loop
vertex 0.000166 0.000211 0.150000
vertex 0.000218 0.000176 0.150000
vertex 0.000291 0.000148 0.150000
endloop
endfacet
facet normal 0.000169 0.000000 1.000000
outer loop
vertex 0.000291 0.000148 0.150000
vertex 0.000514 0.000099 0.150000
vertex 0.000979 0.000046 0.150000
endloop
endfacet
facet normal 0.000000 0.000000 1.000000
outer loop
vertex 0.000979 0.000046 0.150000
vertex 0.001661 0.000013 0.150000
vertex 0.003821 0.000056 0.150000
endloop
endfacet
facet normal 0.000005 0.000000 1.000000
outer loop
vertex 0.003821 0.000056 0.150000
vertex 0.004568 0.000004 0.150000
vertex 0.004813 0.000002 0.150000
endloop
endfacet
facet normal 0.000000 0.000000 1.000000
outer loop
vertex 0.003821 0.000056 0.150000
vertex 0.004813 0.000002 0.150000
vertex 0.005761 0.000115 0.150000
endloop
endfacet
facet normal -0.000005 0.000000 1.000000
outer loop
vertex 0.000291 0.000148 0.150000
vertex 0.000979 0.000046 0.150000
vertex 0.003821 0.000056 0.150000
endloop
endfacet
facet normal 0.000000 0.000000 1.000000
outer loop
vertex 0.000092 0.000313 0.150000
vertex 0.000166 0.000211 0.150000
vertex 0.000291 0.000148 0.150000
endloop
endfacet
facet normal 0.000000 0.000000 1.000000
outer loop
vertex 0.000007 0.001143 0.150000
vertex 0.000036 0.000525 0.150000
vertex 0.000092 0.000313 0.150000
endloop
endfacet
facet normal -0.000553 0.000000 1.000000
outer loop
vertex 0.000817 0.003137 0.150000
vertex 0.000680 0.002931 0.150000
vertex 0.000007 0.001143 0.150000
endloop
endfacet
facet normal 0.000764 0.000000 1.000000
outer loop
vertex 0.001480 0.003893 0.150000
vertex 0.001108 0.003483 0.150000
vertex 0.000817 0.003137 0.150000
endloop
endfacet
facet normal 0.000000 0.000000 1.000000
outer loop
vertex 0.002175 0.004600 0.150000
vertex 0.001860 0.004291 0.150000
vertex 0.001480 0.003893 0.150000
endloop
endfacet
facet normal 0.000000 0.000000 1.000000
outer loop
vertex 0.007141 0.004825 0.150000
vertex 0.002813 0.005021 0.150000
vertex 0.002175 0.004600 0.150000
endloop
endfacet
facet normal 0.000058 0.000000 1.000000
outer loop
vertex 0.007824 0.004434 0.150000
vertex 0.007601 0.004654 0.150000
vertex 0.007141 0.004825 0.150000
endloop
endfacet
facet normal 0.000000 0.000000 1.000000
outer loop
vertex 0.008003 0.003911 0.150000
vertex 0.007949 0.004191 0.150000
vertex 0.007824 0.004434 0.150000
endloop
endfacet
facet normal 0.002704 0.000000 0.999996
outer loop
vertex 0.008012 0.003582 0.150000
vertex 0.008011 0.003754 0.150000
vertex 0.008003 0.003911 0.150000
endloop
endfacet
facet normal 0.024620 0.000000 0.999697
outer loop
vertex 0.008004 0.003191 0.150000
vertex 0.008009 0.003395 0.150000
vertex 0.008012 0.003582 0.150000
endloop
endfacet
facet normal 0.000000 0.000000 1.000000
outer loop
vertex 0.008004 0.003191 0.150000
vertex 0.008012 0.003582 0.150000
vertex 0.008003 0.003911 0.150000
endloop
endfacet
facet normal 0.000025 0.000000 1.000000
outer loop
vertex 0.008003 0.003911 0.150000
vertex 0.007824 0.004434 0.150000
vertex 0.007141 0.004825 0.150000
endloop
endfacet
facet normal 0.000000 0.000000 1.000000
outer loop
vertex 0.007141 0.004825 0.150000
vertex 0.002175 0.004600 0.150000
vertex 0.001480 0.003893 0.150000
endloop
endfacet
facet normal 0.000082 0.000000 1.000000
outer loop
vertex 0.001480 0.003893 0.150000
vertex 0.000817 0.003137 0.150000
vertex 0.000007 0.001143 0.150000
endloop
endfacet
facet normal 0.000072 0.000000 1.000000
outer loop
vertex 0.000007 0.001143 0.150000
vertex 0.000092 0.000313 0.150000
vertex 0.000291 0.000148 0.150000
endloop
endfacet
facet normal 0.000000 0.000000 1.000000
outer loop
vertex 0.000291 0.000148 0.150000
vertex 0.003821 0.000056 0.150000
vertex 0.005761 0.000115 0.150000
endloop
endfacet
facet normal -0.000031 0.000000 1.000000
outer loop
vertex 0.005961 0.000120 0.150000
vertex 0.006576 0.000077 0.150000
vertex 0.006702 0.000092 0.150000
endloop
endfacet
facet normal 0.000020 0.000000 1.000000
outer loop
vertex 0.000291 0.000148 0.150000
vertex 0.005761 0.000115 0.150000
vertex 0.005961 0.000120 0.150000
endloop
endfacet
facet normal -0.000026 0.000000 1.000000
outer loop
vertex 0.001480 0.003893 0.150000
vertex 0.000007 0.001143 0.150000
vertex 0.000291 0.000148 0.150000
endloop
endfacet
facet normal 0.000000 0.000000 1.000000
outer loop
vertex 0.008003 0.003911 0.150000
vertex 0.007141 0.004825 0.150000
vertex 0.001480 0.003893 0.150000
endloop
endfacet
facet normal 0.007047 0.000000 0.999975
outer loop
vertex 0.008002 0.002969 0.150000
vertex 0.008004 0.003191 0.150000
vertex 0.008003 0.003911 0.150000
endloop
endfacet
facet normal 0.009832 0.000000 0.999952
outer loop
vertex 0.008006 0.002301 0.150000
vertex 0.008009 0.002494 0.150000
vertex 0.008005 0.002726 0.150000
endloop
endfacet
facet normal -0.000003 0.000000 1.000000
outer loop
vertex 0.008002 0.002969 0.150000
vertex 0.008003 0.003911 0.150000
vertex 0.001480 0.003893 0.150000
endloop
endfacet
facet normal -0.006296 0.000000 0.999980
outer loop
vertex 0.008006 0.002301 0.150000
vertex 0.008005 0.002726 0.150000
vertex 0.008002 0.002969 0.150000
endloop
endfacet
facet normal 0.000000 0.000000 1.000000
outer loop
vertex 0.007974 0.001998 0.150000
vertex 0.007995 0.002138 0.150000
vertex 0.008006 0.002301 0.150000
endloop
endfacet
facet normal 0.002182 0.000000 0.999998
outer loop
vertex 0.007900 0.001753 0.150000
vertex 0.007943 0.001872 0.150000
vertex 0.007974 0.001998 0.150000
endloop
endfacet
facet normal 0.002147 0.000000 0.999998
outer loop
vertex 0.007197 0.000507 0.150000
vertex 0.007845 0.001633 0.150000
vertex 0.007900 0.001753 0.150000
endloop
endfacet
facet normal 0.001285 0.000000 0.999999
outer loop
vertex 0.006944 0.000212 0.150000
vertex 0.007068 0.000333 0.150000
vertex 0.007197 0.000507 0.150000
endloop
endfacet
facet normal 0.000420 0.000000 1.000000
outer loop
vertex 0.006702 0.000092 0.150000
vertex 0.006823 0.000134 0.150000
vertex 0.006944 0.000212 0.150000
endloop
endfacet
facet normal 0.000004 0.000000 1.000000
outer loop
vertex 0.001480 0.003893 0.150000
vertex 0.000291 0.000148 0.150000
vertex 0.005961 0.000120 0.150000
endloop
endfacet
facet normal 0.000000 0.000000 1.000000
outer loop
vertex 0.005961 0.000120 0.150000
vertex 0.006702 0.000092 0.150000
vertex 0.006944 0.000212 0.150000
endloop
endfacet
facet normal -0.000268 0.000000 1.000000
outer loop
vertex 0.006944 0.000212 0.150000
vertex 0.007197 0.000507 0.150000
vertex 0.007900 0.001753 0.150000
endloop
endfacet
facet normal 0.000000 0.000000 1.000000
outer loop
vertex 0.007900 0.001753 0.150000
vertex 0.007974 0.001998 0.150000
vertex 0.008006 0.002301 0.150000
endloop
endfacet
facet normal 0.000000 0.000000 1.000000
outer loop
vertex 0.008006 0.002301 0.150000
vertex 0.008002 0.002969 0.150000
vertex 0.001480 0.003893 0.150000
endloop
endfacet
facet normal -0.000019 0.000000 1.000000
outer loop
vertex 0.001480 0.003893 0.150000
vertex 0.005961 0.000120 0.150000
vertex 0.006944 0.000212 0.150000
endloop
endfacet
facet normal 0.000000 0.000000 1.000000
outer loop
vertex 0.006944 0.000212 0.150000
vertex 0.007900 0.001753 0.150000
vertex 0.008006 0.002301 0.150000
endloop
endfacet
facet normal 0.000004 0.000000 1.000000
outer loop
vertex 0.001480 0.003893 0.150000
vertex 0.006944 0.000212 0.150000
vertex 0.008006 0.002301 0.150000
endloop
endfacet
facet normal 0.034170 0.999416 0.000000
outer loop
vertex 0.006806 0.004884 0.150000
vertex 0.006806 0.004884 0.000000
vertex 0.002813 0.005021 0.000000
endloop
endfacet
facet normal 0.034170 0.999416 0.000000
outer loop
vertex 0.006806 0.004884 0.150000
vertex 0.002813 0.005021 0.000000
vertex 0.002813 0.005021 0.150000
endloop
endfacet
facet normal -0.775005 0.631955 0.000000
outer loop
vertex 0.000948 0.003298 0.000000
vertex 0.000817 0.003137 0.000000
vertex 0.000817 0.003137 0.150000
endloop
endfacet
facet normal -0.775006 0.631954 0.000000
outer loop
vertex 0.000948 0.003298 0.000000
vertex 0.000817 0.003137 0.150000
vertex 0.000948 0.003298 0.150000
endloop
endfacet
facet normal -0.757396 0.652956 0.000000
outer loop
vertex 0.001108 0.003483 0.000000
vertex 0.000948 0.003298 0.000000
vertex 0.000948 0.003298 0.150000
endloop
endfacet
facet normal -0.757396 0.652956 0.000000
outer loop
vertex 0.001108 0.003483 0.000000
vertex 0.000948 0.003298 0.150000
vertex 0.001108 0.003483 0.150000
endloop
endfacet
facet normal -0.745323 0.666704 0.000000
outer loop
vertex 0.001288 0.003685 0.000000
vertex 0.001108 0.003483 0.000000
vertex 0.001108 0.003483 0.150000
endloop
endfacet
facet normal -0.745322 0.666705 0.000000
outer loop
vertex 0.001288 0.003685 0.000000
vertex 0.001108 0.003483 0.150000
vertex 0.001288 0.003685 0.150000
endloop
endfacet
facet normal -0.735795 0.677205 0.000000
outer loop
vertex 0.001480 0.003893 0.000000
vertex 0.001288 0.003685 0.000000
vertex 0.001288 0.003685 0.150000
endloop
endfacet
facet normal -0.735795 0.677205 0.000000
outer loop
vertex 0.001480 0.003893 0.000000
vertex 0.001288 0.003685 0.150000
vertex 0.001480 0.003893 0.150000
endloop
endfacet
facet normal -0.727218 0.686406 0.000000
outer loop
vertex 0.001673 0.004098 0.000000
vertex 0.001480 0.003893 0.000000
vertex 0.001480 0.003893 0.150000
endloop
endfacet
facet normal -0.727219 0.686406 0.000000
outer loop
vertex 0.001673 0.004098 0.000000
vertex 0.001480 0.003893 0.150000
vertex 0.001673 0.004098 0.150000
endloop
endfacet
facet normal -0.718364 0.695667 0.000000
outer loop
vertex 0.001860 0.004291 0.000000
vertex 0.001673 0.004098 0.000000
vertex 0.001673 0.004098 0.150000
endloop
endfacet
facet normal -0.718364 0.695667 0.000000
outer loop
vertex 0.001860 0.004291 0.000000
vertex 0.001673 0.004098 0.150000
vertex 0.001860 0.004291 0.150000
endloop
endfacet
facet normal -0.707718 0.706495 0.000000
outer loop
vertex 0.002030 0.004461 0.000000
vertex 0.001860 0.004291 0.000000
vertex 0.001860 0.004291 0.150000
endloop
endfacet
facet normal -0.707719 0.706495 0.000000
outer loop
vertex 0.002030 0.004461 0.000000
vertex 0.001860 0.004291 0.150000
vertex 0.002030 0.004461 0.150000
endloop
endfacet
facet normal -0.663931 0.747794 0.000000
outer loop
vertex 0.002285 0.004698 0.150000
vertex 0.002285 0.004698 0.000000
vertex 0.002175 0.004600 0.000000
endloop
endfacet
facet normal -0.692366 0.721546 0.000000
outer loop
vertex 0.002175 0.004600 0.000000
vertex 0.002030 0.004461 0.000000
vertex 0.002030 0.004461 0.150000
endloop
endfacet
facet normal -0.663933 0.747792 0.000000
outer loop
vertex 0.002175 0.004600 0.150000
vertex 0.002285 0.004698 0.150000
vertex 0.002175 0.004600 0.000000
endloop
endfacet
facet normal -0.692367 0.721545 0.000000
outer loop
vertex 0.002030 0.004461 0.150000
vertex 0.002175 0.004600 0.150000
vertex 0.002175 0.004600 0.000000
endloop
endfacet
facet normal -0.928003 0.372572 0.000000
outer loop
vertex 0.000680 0.002931 0.000000
vertex 0.000084 0.001446 0.000000
vertex 0.000084 0.001446 0.150000
endloop
endfacet
facet normal -0.928003 0.372572 0.000000
outer loop
vertex 0.000680 0.002931 0.000000
vertex 0.000084 0.001446 0.150000
vertex 0.000680 0.002931 0.150000
endloop
endfacet
facet normal 0.000000 0.000000 1.000000
outer loop
vertex 0.003821 0.000056 0.000000
vertex 0.004568 0.000004 0.000000
vertex 0.004813 0.000002 0.000000
endloop
endfacet
facet normal -0.010270 -0.999947 0.000000
outer loop
vertex 0.004813 0.000002 0.000000
vertex 0.004813 0.000002 0.150000
vertex 0.004568 0.000004 0.150000
endloop
endfacet
facet normal -0.069577 -0.997577 -0.000097
outer loop
vertex 0.004813 0.000002 0.000000
vertex 0.004568 0.000004 0.150000
vertex 0.003821 0.000056 0.150000
endloop
endfacet
facet normal 0.000000 0.000000 1.000000
outer loop
vertex 0.000979 0.000046 0.000000
vertex 0.001661 0.000013 0.000000
vertex 0.003821 0.000056 0.000000
endloop
endfacet
facet normal -0.054950 -0.998489 0.000000
outer loop
vertex 0.003821 0.000056 0.000000
vertex 0.004813 0.000002 0.000000
vertex 0.003821 0.000056 0.150000
endloop
endfacet
facet normal 0.019856 -0.999803 0.000000
outer loop
vertex 0.003821 0.000056 0.000000
vertex 0.003821 0.000056 0.150000
vertex 0.001661 0.000013 0.150000
endloop
endfacet
facet normal 0.000000 0.000000 1.000000
outer loop
vertex 0.000514 0.000099 0.000000
vertex 0.000979 0.000046 0.000000
vertex 0.003821 0.000056 0.000000
endloop
endfacet
facet normal -0.113432 -0.993546 0.000000
outer loop
vertex 0.000979 0.000046 0.150000
vertex 0.000514 0.000099 0.150000
vertex 0.000514 0.000099 0.000000
endloop
endfacet
facet normal -0.048134 -0.998840 -0.000979
outer loop
vertex 0.003821 0.000056 0.000000
vertex 0.001661 0.000013 0.150000
vertex 0.000979 0.000046 0.150000
endloop
endfacet
facet normal -0.013027 -0.999915 -0.000314
outer loop
vertex 0.000979 0.000046 0.150000
vertex 0.000514 0.000099 0.000000
vertex 0.003821 0.000056 0.000000
endloop
endfacet
facet normal -0.997763 -0.066849 0.000000
outer loop
vertex 0.000001 0.001039 0.000000
vertex 0.000036 0.000525 0.000000
vertex 0.000036 0.000525 0.150000
endloop
endfacet
facet normal -0.997763 -0.066849 0.000000
outer loop
vertex 0.000001 0.001039 0.000000
vertex 0.000036 0.000525 0.150000
vertex 0.000001 0.001039 0.150000
endloop
endfacet
facet normal -0.978013 -0.208544 0.000000
outer loop
vertex 0.000036 0.000525 0.150000
vertex 0.000036 0.000525 0.000000
vertex 0.000067 0.000377 0.000000
endloop
endfacet
facet normal -0.978013 -0.208544 0.000000
outer loop
vertex 0.000036 0.000525 0.150000
vertex 0.000067 0.000377 0.000000
vertex 0.000067 0.000377 0.150000
endloop
endfacet
facet normal 0.329023 -0.944322 0.000000
outer loop
vertex 0.006702 0.000092 0.150000
vertex 0.006702 0.000092 0.000000
vertex 0.006823 0.000134 0.000000
endloop
endfacet
facet normal 0.329019 -0.944323 0.000000
outer loop
vertex 0.006702 0.000092 0.150000
vertex 0.006823 0.000134 0.000000
vertex 0.006823 0.000134 0.150000
endloop
endfacet
facet normal 0.701057 -0.713105 0.000000
outer loop
vertex 0.006944 0.000212 0.150000
vertex 0.006944 0.000212 0.000000
vertex 0.007068 0.000333 0.000000
endloop
endfacet
facet normal 0.701053 -0.713109 0.000000
outer loop
vertex 0.006944 0.000212 0.150000
vertex 0.007068 0.000333 0.000000
vertex 0.007068 0.000333 0.150000
endloop
endfacet
facet normal 0.800613 -0.599182 0.000000
outer loop
vertex 0.007068 0.000333 0.150000
vertex 0.007068 0.000333 0.000000
vertex 0.007197 0.000507 0.000000
endloop
endfacet
facet normal 0.800617 -0.599177 0.000000
outer loop
vertex 0.007068 0.000333 0.150000
vertex 0.007197 0.000507 0.000000
vertex 0.007197 0.000507 0.150000
endloop
endfacet
facet normal 0.651135 0.758962 0.000000
outer loop
vertex 0.007726 0.004546 0.150000
vertex 0.007726 0.004546 0.000000
vertex 0.007601 0.004654 0.000000
endloop
endfacet
facet normal 0.651140 0.758958 0.000000
outer loop
vertex 0.007726 0.004546 0.150000
vertex 0.007601 0.004654 0.000000
vertex 0.007601 0.004654 0.150000
endloop
endfacet
facet normal 0.866952 -0.498392 0.000000
outer loop
vertex 0.007197 0.000507 0.000000
vertex 0.007845 0.001633 0.000000
vertex 0.007845 0.001633 0.150000
endloop
endfacet
facet normal 0.866953 -0.498391 0.000000
outer loop
vertex 0.007197 0.000507 0.000000
vertex 0.007845 0.001633 0.150000
vertex 0.007197 0.000507 0.150000
endloop
endfacet
facet normal 0.120474 -0.992716 0.000000
outer loop
vertex 0.006576 0.000077 0.150000
vertex 0.006576 0.000077 0.000000
vertex 0.006702 0.000092 0.000000
endloop
endfacet
facet normal 0.120474 -0.992716 0.000000
outer loop
vertex 0.006576 0.000077 0.150000
vertex 0.006702 0.000092 0.000000
vertex 0.006702 0.000092 0.150000
endloop
endfacet
facet normal 0.969090 0.246708 0.000000
outer loop
vertex 0.007983 0.004057 0.150000
vertex 0.007983 0.004057 0.000000
vertex 0.007949 0.004191 0.000000
endloop
endfacet
facet normal 0.969090 0.246708 0.000000
outer loop
vertex 0.007983 0.004057 0.150000
vertex 0.007949 0.004191 0.000000
vertex 0.007949 0.004191 0.150000
endloop
endfacet
facet normal -0.998653 0.051876 0.000000
outer loop
vertex 0.000007 0.001143 0.150000
vertex 0.000007 0.001143 0.000000
vertex 0.000001 0.001039 0.000000
endloop
endfacet
facet normal -0.998653 0.051876 0.000000
outer loop
vertex 0.000007 0.001143 0.150000
vertex 0.000001 0.001039 0.000000
vertex 0.000001 0.001039 0.150000
endloop
endfacet
facet normal -0.362793 -0.931870 0.000000
outer loop
vertex 0.000218 0.000176 0.150000
vertex 0.000218 0.000176 0.000000
vertex 0.000291 0.000148 0.000000
endloop
endfacet
facet normal -0.362792 -0.931870 0.000000
outer loop
vertex 0.000218 0.000176 0.150000
vertex 0.000291 0.000148 0.000000
vertex 0.000291 0.000148 0.150000
endloop
endfacet
facet normal -0.862209 -0.506553 0.000000
outer loop
vertex 0.000092 0.000313 0.150000
vertex 0.000092 0.000313 0.000000
vertex 0.000125 0.000258 0.000000
endloop
endfacet
facet normal -0.862209 -0.506553 0.000000
outer loop
vertex 0.000092 0.000313 0.150000
vertex 0.000125 0.000258 0.000000
vertex 0.000125 0.000258 0.150000
endloop
endfacet
facet normal 0.990817 0.135209 0.000000
outer loop
vertex 0.008003 0.003911 0.150000
vertex 0.008003 0.003911 0.000000
vertex 0.007983 0.004057 0.000000
endloop
endfacet
facet normal 0.990818 0.135199 0.000000
outer loop
vertex 0.008003 0.003911 0.150000
vertex 0.007983 0.004057 0.000000
vertex 0.007983 0.004057 0.150000
endloop
endfacet
facet normal 0.989375 -0.145386 0.000000
outer loop
vertex 0.007974 0.001998 0.150000
vertex 0.007974 0.001998 0.000000
vertex 0.007995 0.002138 0.000000
endloop
endfacet
facet normal 0.989375 -0.145386 0.000000
outer loop
vertex 0.007974 0.001998 0.150000
vertex 0.007995 0.002138 0.000000
vertex 0.007995 0.002138 0.150000
endloop
endfacet
facet normal 0.173227 0.984882 0.000000
outer loop
vertex 0.007141 0.004825 0.150000
vertex 0.007141 0.004825 0.000000
vertex 0.006806 0.004884 0.000000
endloop
endfacet
facet normal 0.173227 0.984882 0.000000
outer loop
vertex 0.007141 0.004825 0.150000
vertex 0.006806 0.004884 0.000000
vertex 0.006806 0.004884 0.150000
endloop
endfacet
facet normal 0.753789 0.657117 0.000000
outer loop
vertex 0.007824 0.004434 0.150000
vertex 0.007824 0.004434 0.000000
vertex 0.007726 0.004546 0.000000
endloop
endfacet
facet normal 0.753794 0.657111 0.000000
outer loop
vertex 0.007824 0.004434 0.150000
vertex 0.007726 0.004546 0.000000
vertex 0.007726 0.004546 0.150000
endloop
endfacet
facet normal 0.923700 0.383117 0.000000
outer loop
vertex 0.007949 0.004191 0.150000
vertex 0.007949 0.004191 0.000000
vertex 0.007897 0.004316 0.000000
endloop
endfacet
facet normal 0.923704 0.383107 0.000000
outer loop
vertex 0.007949 0.004191 0.150000
vertex 0.007897 0.004316 0.000000
vertex 0.007897 0.004316 0.150000
endloop
endfacet
facet normal 0.000000 0.000000 -1.000000
outer loop
vertex 0.000067 0.000377 0.000000
vertex 0.000036 0.000525 0.000000
vertex 0.000001 0.001039 0.000000
endloop
endfacet
facet normal 0.000000 0.000000 -1.000000
outer loop
vertex 0.000001 0.001039 0.000000
vertex 0.000007 0.001143 0.000000
vertex 0.000084 0.001446 0.000000
endloop
endfacet
facet normal 0.000000 0.000000 -1.000000
outer loop
vertex 0.000084 0.001446 0.000000
vertex 0.000680 0.002931 0.000000
vertex 0.000725 0.003012 0.000000
endloop
endfacet
facet normal 0.000000 0.000000 -1.000000
outer loop
vertex 0.000725 0.003012 0.000000
vertex 0.000817 0.003137 0.000000
vertex 0.000948 0.003298 0.000000
endloop
endfacet
facet normal 0.000000 0.000000 -1.000000
outer loop
vertex 0.000948 0.003298 0.000000
vertex 0.001108 0.003483 0.000000
vertex 0.001288 0.003685 0.000000
endloop
endfacet
facet normal 0.000000 0.000000 -1.000000
outer loop
vertex 0.001288 0.003685 0.000000
vertex 0.001480 0.003893 0.000000
vertex 0.001673 0.004098 0.000000
endloop
endfacet
facet normal 0.000000 0.000000 -1.000000
outer loop
vertex 0.001673 0.004098 0.000000
vertex 0.001860 0.004291 0.000000
vertex 0.002030 0.004461 0.000000
endloop
endfacet
facet normal 0.000000 0.000000 -1.000000
outer loop
vertex 0.002030 0.004461 0.000000
vertex 0.002175 0.004600 0.000000
vertex 0.002285 0.004698 0.000000
endloop
endfacet
facet normal 0.000000 0.000000 -1.000000
outer loop
vertex 0.002285 0.004698 0.000000
vertex 0.002813 0.005021 0.000000
vertex 0.006806 0.004884 0.000000
endloop
endfacet
facet normal 0.000000 0.000000 -1.000000
outer loop
vertex 0.006806 0.004884 0.000000
vertex 0.007141 0.004825 0.000000
vertex 0.007413 0.004749 0.000000
endloop
endfacet
facet normal 0.000000 0.000000 -1.000000
outer loop
vertex 0.007413 0.004749 0.000000
vertex 0.007601 0.004654 0.000000
vertex 0.007726 0.004546 0.000000
endloop
endfacet
facet normal 0.000000 0.000000 -1.000000
outer loop
vertex 0.007726 0.004546 0.000000
vertex 0.007824 0.004434 0.000000
vertex 0.007897 0.004316 0.000000
endloop
endfacet
facet normal 0.000000 0.000000 -1.000000
outer loop
vertex 0.007897 0.004316 0.000000
vertex 0.007949 0.004191 0.000000
vertex 0.007983 0.004057 0.000000
endloop
endfacet
facet normal 0.000000 0.000000 -1.000000
outer loop
vertex 0.007983 0.004057 0.000000
vertex 0.008003 0.003911 0.000000
vertex 0.008011 0.003754 0.000000
endloop
endfacet
facet normal 0.000000 0.000000 -1.000000
outer loop
vertex 0.008011 0.003754 0.000000
vertex 0.008012 0.003582 0.000000
vertex 0.008009 0.003395 0.000000
endloop
endfacet
facet normal 0.000000 0.000000 -1.000000
outer loop
vertex 0.008011 0.003754 0.000000
vertex 0.008009 0.003395 0.000000
vertex 0.008004 0.003191 0.000000
endloop
endfacet
facet normal 0.000000 0.000000 -1.000000
outer loop
vertex 0.007897 0.004316 0.000000
vertex 0.007983 0.004057 0.000000
vertex 0.008011 0.003754 0.000000
endloop
endfacet
facet normal 0.000000 0.000000 -1.000000
outer loop
vertex 0.007413 0.004749 0.000000
vertex 0.007726 0.004546 0.000000
vertex 0.007897 0.004316 0.000000
endloop
endfacet
facet normal 0.000000 0.000000 -1.000000
outer loop
vertex 0.002285 0.004698 0.000000
vertex 0.006806 0.004884 0.000000
vertex 0.007413 0.004749 0.000000
endloop
endfacet
facet normal 0.000000 0.000000 -1.000000
outer loop
vertex 0.001673 0.004098 0.000000
vertex 0.002030 0.004461 0.000000
vertex 0.002285 0.004698 0.000000
endloop
endfacet
facet normal 0.000000 0.000000 -1.000000
outer loop
vertex 0.000948 0.003298 0.000000
vertex 0.001288 0.003685 0.000000
vertex 0.001673 0.004098 0.000000
endloop
endfacet
facet normal 0.000000 0.000000 -1.000000
outer loop
vertex 0.000084 0.001446 0.000000
vertex 0.000725 0.003012 0.000000
vertex 0.000948 0.003298 0.000000
endloop
endfacet
facet normal 0.000000 0.000000 -1.000000
outer loop
vertex 0.000067 0.000377 0.000000
vertex 0.000001 0.001039 0.000000
vertex 0.000084 0.001446 0.000000
endloop
endfacet
facet normal 0.000000 0.000000 -1.000000
outer loop
vertex 0.000125 0.000258 0.000000
vertex 0.000092 0.000313 0.000000
vertex 0.000067 0.000377 0.000000
endloop
endfacet
facet normal 0.000000 0.000000 -1.000000
outer loop
vertex 0.000218 0.000176 0.000000
vertex 0.000166 0.000211 0.000000
vertex 0.000125 0.000258 0.000000
endloop
endfacet
facet normal 0.000000 0.000000 -1.000000
outer loop
vertex 0.000514 0.000099 0.000000
vertex 0.000291 0.000148 0.000000
vertex 0.000218 0.000176 0.000000
endloop
endfacet
facet normal 0.000000 0.000000 -1.000000
outer loop
vertex 0.001661 0.000013 0.000000
vertex 0.000979 0.000046 0.000000
vertex 0.000514 0.000099 0.000000
endloop
endfacet
facet normal 0.000000 0.000000 -1.000000
outer loop
vertex 0.004813 0.000002 0.000000
vertex 0.004568 0.000004 0.000000
vertex 0.003821 0.000056 0.000000
endloop
endfacet
facet normal 0.000000 0.000000 -1.000000
outer loop
vertex 0.003821 0.000056 0.000000
vertex 0.001661 0.000013 0.000000
vertex 0.000514 0.000099 0.000000
endloop
endfacet
facet normal 0.000000 0.000000 -1.000000
outer loop
vertex 0.000514 0.000099 0.000000
vertex 0.000218 0.000176 0.000000
vertex 0.000125 0.000258 0.000000
endloop
endfacet
facet normal 0.000000 0.000000 -1.000000
outer loop
vertex 0.000125 0.000258 0.000000
vertex 0.000067 0.000377 0.000000
vertex 0.000084 0.001446 0.000000
endloop
endfacet
facet normal 0.000000 0.000000 -1.000000
outer loop
vertex 0.000084 0.001446 0.000000
vertex 0.000948 0.003298 0.000000
vertex 0.001673 0.004098 0.000000
endloop
endfacet
facet normal 0.000000 0.000000 -1.000000
outer loop
vertex 0.001673 0.004098 0.000000
vertex 0.002285 0.004698 0.000000
vertex 0.007413 0.004749 0.000000
endloop
endfacet
facet normal 0.000000 0.000000 -1.000000
outer loop
vertex 0.007413 0.004749 0.000000
vertex 0.007897 0.004316 0.000000
vertex 0.008011 0.003754 0.000000
endloop
endfacet
facet normal 0.000000 0.000000 -1.000000
outer loop
vertex 0.007413 0.004749 0.000000
vertex 0.008011 0.003754 0.000000
vertex 0.008004 0.003191 0.000000
endloop
endfacet
facet normal 0.000000 0.000000 -1.000000
outer loop
vertex 0.000084 0.001446 0.000000
vertex 0.001673 0.004098 0.000000
vertex 0.007413 0.004749 0.000000
endloop
endfacet
facet normal 0.000000 0.000000 -1.000000
outer loop
vertex 0.000514 0.000099 0.000000
vertex 0.000125 0.000258 0.000000
vertex 0.000084 0.001446 0.000000
endloop
endfacet
facet normal 0.000000 0.000000 -1.000000
outer loop
vertex 0.005761 0.000115 0.000000
vertex 0.004813 0.000002 0.000000
vertex 0.003821 0.000056 0.000000
endloop
endfacet
facet normal 0.000000 0.000000 -1.000000
outer loop
vertex 0.003821 0.000056 0.000000
vertex 0.000514 0.000099 0.000000
vertex 0.000084 0.001446 0.000000
endloop
endfacet
facet normal 0.000000 0.000000 -1.000000
outer loop
vertex 0.000084 0.001446 0.000000
vertex 0.007413 0.004749 0.000000
vertex 0.008004 0.003191 0.000000
endloop
endfacet
facet normal 0.000000 0.000000 -1.000000
outer loop
vertex 0.000084 0.001446 0.000000
vertex 0.008004 0.003191 0.000000
vertex 0.008002 0.002969 0.000000
endloop
endfacet
facet normal 0.000000 0.000000 -1.000000
outer loop
vertex 0.005761 0.000115 0.000000
vertex 0.003821 0.000056 0.000000
vertex 0.000084 0.001446 0.000000
endloop
endfacet
facet normal 0.000000 0.000000 -1.000000
outer loop
vertex 0.006702 0.000092 0.000000
vertex 0.006576 0.000077 0.000000
vertex 0.005961 0.000120 0.000000
endloop
endfacet
facet normal 0.000000 0.000000 -1.000000
outer loop
vertex 0.005961 0.000120 0.000000
vertex 0.005761 0.000115 0.000000
vertex 0.000084 0.001446 0.000000
endloop
endfacet
facet normal 0.000000 0.000000 -1.000000
outer loop
vertex 0.000084 0.001446 0.000000
vertex 0.008002 0.002969 0.000000
vertex 0.008005 0.002726 0.000000
endloop
endfacet
facet normal 0.000000 0.000000 -1.000000
outer loop
vertex 0.008005 0.002726 0.000000
vertex 0.008009 0.002494 0.000000
vertex 0.008006 0.002301 0.000000
endloop
endfacet
facet normal 0.000000 0.000000 -1.000000
outer loop
vertex 0.008006 0.002301 0.000000
vertex 0.007995 0.002138 0.000000
vertex 0.007974 0.001998 0.000000
endloop
endfacet
facet normal 0.000000 0.000000 -1.000000
outer loop
vertex 0.007974 0.001998 0.000000
vertex 0.007943 0.001872 0.000000
vertex 0.007900 0.001753 0.000000
endloop
endfacet
facet normal 0.000000 0.000000 -1.000000
outer loop
vertex 0.007900 0.001753 0.000000
vertex 0.007845 0.001633 0.000000
vertex 0.007197 0.000507 0.000000
endloop
endfacet
facet normal 0.000000 0.000000 -1.000000
outer loop
vertex 0.007197 0.000507 0.000000
vertex 0.007068 0.000333 0.000000
vertex 0.006944 0.000212 0.000000
endloop
endfacet
facet normal 0.000000 0.000000 -1.000000
outer loop
vertex 0.006944 0.000212 0.000000
vertex 0.006823 0.000134 0.000000
vertex 0.006702 0.000092 0.000000
endloop
endfacet
facet normal 0.000000 0.000000 -1.000000
outer loop
vertex 0.006702 0.000092 0.000000
vertex 0.005961 0.000120 0.000000
vertex 0.000084 0.001446 0.000000
endloop
endfacet
facet normal 0.000000 0.000000 -1.000000
outer loop
vertex 0.000084 0.001446 0.000000
vertex 0.008005 0.002726 0.000000
vertex 0.008006 0.002301 0.000000
endloop
endfacet
facet normal 0.000000 0.000000 -1.000000
outer loop
vertex 0.008006 0.002301 0.000000
vertex 0.007974 0.001998 0.000000
vertex 0.007900 0.001753 0.000000
endloop
endfacet
facet normal 0.000000 0.000000 -1.000000
outer loop
vertex 0.007900 0.001753 0.000000
vertex 0.007197 0.000507 0.000000
vertex 0.006944 0.000212 0.000000
endloop
endfacet
facet normal 0.000000 0.000000 -1.000000
outer loop
vertex 0.006944 0.000212 0.000000
vertex 0.006702 0.000092 0.000000
vertex 0.000084 0.001446 0.000000
endloop
endfacet
facet normal 0.000000 0.000000 -1.000000
outer loop
vertex 0.000084 0.001446 0.000000
vertex 0.008006 0.002301 0.000000
vertex 0.007900 0.001753 0.000000
endloop
endfacet
facet normal 0.000000 0.000000 -1.000000
outer loop
vertex 0.000084 0.001446 0.000000
vertex 0.007900 0.001753 0.000000
vertex 0.006944 0.000212 0.000000
endloop
endfacet
facet normal 0.452736 0.891645 0.000000
outer loop
vertex 0.007601 0.004654 0.150000
vertex 0.007601 0.004654 0.000000
vertex 0.007413 0.004749 0.000000
endloop
endfacet
facet normal 0.452739 0.891643 0.000000
outer loop
vertex 0.007601 0.004654 0.150000
vertex 0.007413 0.004749 0.000000
vertex 0.007413 0.004749 0.150000
endloop
endfacet
facet normal 0.541252 -0.840861 0.000000
outer loop
vertex 0.006823 0.000134 0.150000
vertex 0.006823 0.000134 0.000000
vertex 0.006944 0.000212 0.000000
endloop
endfacet
facet normal 0.541247 -0.840864 0.000000
outer loop
vertex 0.006823 0.000134 0.150000
vertex 0.006944 0.000212 0.000000
vertex 0.006944 0.000212 0.150000
endloop
endfacet
facet normal 0.970739 -0.240138 0.000000
outer loop
vertex 0.007943 0.001872 0.150000
vertex 0.007943 0.001872 0.000000
vertex 0.007974 0.001998 0.000000
endloop
endfacet
facet normal 0.970739 -0.240138 0.000000
outer loop
vertex 0.007943 0.001872 0.150000
vertex 0.007974 0.001998 0.000000
vertex 0.007974 0.001998 0.150000
endloop
endfacet
facet normal 0.941157 -0.337969 0.000000
outer loop
vertex 0.007900 0.001753 0.150000
vertex 0.007900 0.001753 0.000000
vertex 0.007943 0.001872 0.000000
endloop
endfacet
facet normal 0.941161 -0.337958 0.000000
outer loop
vertex 0.007900 0.001753 0.150000
vertex 0.007943 0.001872 0.000000
vertex 0.007943 0.001872 0.150000
endloop
endfacet
facet normal -0.521480 0.853263 0.000000
outer loop
vertex 0.002813 0.005021 0.150000
vertex 0.002813 0.005021 0.000000
vertex 0.002285 0.004698 0.000000
endloop
endfacet
facet normal -0.521480 0.853264 0.000000
outer loop
vertex 0.002813 0.005021 0.150000
vertex 0.002285 0.004698 0.000000
vertex 0.002285 0.004698 0.150000
endloop
endfacet
facet normal -0.805701 0.592322 0.000000
outer loop
vertex 0.000817 0.003137 0.150000
vertex 0.000817 0.003137 0.000000
vertex 0.000725 0.003012 0.000000
endloop
endfacet
facet normal -0.805701 0.592322 0.000000
outer loop
vertex 0.000817 0.003137 0.150000
vertex 0.000725 0.003012 0.000000
vertex 0.000725 0.003012 0.150000
endloop
endfacet
facet normal -0.069589 -0.997576 0.000000
outer loop
vertex 0.005961 0.000120 0.000000
vertex 0.006576 0.000077 0.000000
vertex 0.006576 0.000077 0.150000
endloop
endfacet
facet normal -0.069589 -0.997576 0.000000
outer loop
vertex 0.005961 0.000120 0.000000
vertex 0.006576 0.000077 0.150000
vertex 0.005961 0.000120 0.150000
endloop
endfacet
facet normal 0.270571 0.962700 0.000000
outer loop
vertex 0.007413 0.004749 0.150000
vertex 0.007413 0.004749 0.000000
vertex 0.007141 0.004825 0.000000
endloop
endfacet
facet normal 0.270571 0.962700 0.000000
outer loop
vertex 0.007413 0.004749 0.150000
vertex 0.007141 0.004825 0.000000
vertex 0.007141 0.004825 0.150000
endloop
endfacet
facet normal 0.024701 -0.999695 0.000000
outer loop
vertex 0.005761 0.000115 0.150000
vertex 0.005761 0.000115 0.000000
vertex 0.005961 0.000120 0.000000
endloop
endfacet
facet normal 0.024701 -0.999695 0.000000
outer loop
vertex 0.005761 0.000115 0.150000
vertex 0.005961 0.000120 0.000000
vertex 0.005961 0.000120 0.150000
endloop
endfacet
facet normal -0.742093 -0.670297 0.000000
outer loop
vertex 0.000125 0.000258 0.150000
vertex 0.000125 0.000258 0.000000
vertex 0.000166 0.000211 0.000000
endloop
endfacet
facet normal -0.742094 -0.670296 0.000000
outer loop
vertex 0.000125 0.000258 0.150000
vertex 0.000166 0.000211 0.000000
vertex 0.000166 0.000211 0.150000
endloop
endfacet
facet normal -0.968777 0.247933 0.000000
outer loop
vertex 0.000084 0.001446 0.150000
vertex 0.000084 0.001446 0.000000
vertex 0.000007 0.001143 0.000000
endloop
endfacet
facet normal -0.968777 0.247933 0.000000
outer loop
vertex 0.000084 0.001446 0.150000
vertex 0.000007 0.001143 0.000000
vertex 0.000007 0.001143 0.150000
endloop
endfacet
facet normal 0.907807 -0.419389 0.000000
outer loop
vertex 0.007845 0.001633 0.150000
vertex 0.007845 0.001633 0.000000
vertex 0.007900 0.001753 0.000000
endloop
endfacet
facet normal 0.907811 -0.419379 0.000000
outer loop
vertex 0.007845 0.001633 0.150000
vertex 0.007900 0.001753 0.000000
vertex 0.007900 0.001753 0.150000
endloop
endfacet
facet normal -0.876359 0.481658 0.000000
outer loop
vertex 0.000725 0.003012 0.150000
vertex 0.000725 0.003012 0.000000
vertex 0.000680 0.002931 0.000000
endloop
endfacet
facet normal -0.876359 0.481658 0.000000
outer loop
vertex 0.000725 0.003012 0.150000
vertex 0.000680 0.002931 0.000000
vertex 0.000680 0.002931 0.150000
endloop
endfacet
facet normal 0.000000 0.000000 1.000000
outer loop
vertex 0.008004 0.003191 0.000000
vertex 0.008009 0.003395 0.000000
vertex 0.008012 0.003582 0.000000
endloop
endfacet
facet normal 0.000000 0.000000 1.000000
outer loop
vertex 0.008012 0.003582 0.000000
vertex 0.008011 0.003754 0.000000
vertex 0.008003 0.003911 0.000000
endloop
endfacet
facet normal 0.998471 0.055273 0.000000
outer loop
vertex 0.008003 0.003911 0.000000
vertex 0.008003 0.003911 0.150000
vertex 0.008011 0.003754 0.150000
endloop
endfacet
facet normal 0.999985 0.005558 -0.000052
outer loop
vertex 0.008003 0.003911 0.000000
vertex 0.008011 0.003754 0.150000
vertex 0.008012 0.003582 0.150000
endloop
endfacet
facet normal 0.000000 0.000000 1.000000
outer loop
vertex 0.008004 0.003191 0.000000
vertex 0.008012 0.003582 0.000000
vertex 0.008003 0.003911 0.000000
endloop
endfacet
facet normal 0.000000 0.000000 1.000000
outer loop
vertex 0.008002 0.002969 0.000000
vertex 0.008004 0.003191 0.000000
vertex 0.008003 0.003911 0.000000
endloop
endfacet
facet normal 0.999826 -0.018645 -0.000105
outer loop
vertex 0.008003 0.003911 0.000000
vertex 0.008012 0.003582 0.150000
vertex 0.008009 0.003395 0.150000
endloop
endfacet
facet normal 0.999746 -0.022524 -0.000119
outer loop
vertex 0.008003 0.003911 0.000000
vertex 0.008009 0.003395 0.150000
vertex 0.008004 0.003191 0.150000
endloop
endfacet
facet normal 1.000000 -0.000828 -0.000015
outer loop
vertex 0.008002 0.002969 0.000000
vertex 0.008003 0.003911 0.000000
vertex 0.008004 0.003191 0.150000
endloop
endfacet
facet normal 0.999943 -0.010667 0.000000
outer loop
vertex 0.008002 0.002969 0.000000
vertex 0.008004 0.003191 0.150000
vertex 0.008002 0.002969 0.150000
endloop
endfacet
facet normal 0.000000 0.000000 1.000000
outer loop
vertex 0.008006 0.002301 0.000000
vertex 0.008009 0.002494 0.000000
vertex 0.008005 0.002726 0.000000
endloop
endfacet
facet normal 0.999915 0.013076 0.000000
outer loop
vertex 0.008005 0.002726 0.000000
vertex 0.008002 0.002969 0.000000
vertex 0.008002 0.002969 0.150000
endloop
endfacet
facet normal 0.999915 0.013076 0.000000
outer loop
vertex 0.008005 0.002726 0.000000
vertex 0.008002 0.002969 0.150000
vertex 0.008005 0.002726 0.150000
endloop
endfacet
facet normal 0.000000 0.000000 1.000000
outer loop
vertex 0.007995 0.002138 0.000000
vertex 0.008006 0.002301 0.000000
vertex 0.008005 0.002726 0.000000
endloop
endfacet
facet normal 0.997603 -0.069199 0.000000
outer loop
vertex 0.008006 0.002301 0.150000
vertex 0.007995 0.002138 0.150000
vertex 0.007995 0.002138 0.000000
endloop
endfacet
facet normal 0.999857 0.016915 0.000000
outer loop
vertex 0.008005 0.002726 0.000000
vertex 0.008005 0.002726 0.150000
vertex 0.008009 0.002494 0.150000
endloop
endfacet
facet normal 0.999870 -0.016129 -0.000058
outer loop
vertex 0.008009 0.002494 0.150000
vertex 0.008006 0.002301 0.150000
vertex 0.007995 0.002138 0.000000
endloop
endfacet
facet normal 0.999840 -0.017855 -0.000054
outer loop
vertex 0.008009 0.002494 0.150000
vertex 0.007995 0.002138 0.000000
vertex 0.008005 0.002726 0.000000
endloop
endfacet
facet normal -0.931587 -0.363520 0.000000
outer loop
vertex 0.000067 0.000377 0.150000
vertex 0.000067 0.000377 0.000000
vertex 0.000092 0.000313 0.000000
endloop
endfacet
facet normal -0.931587 -0.363519 0.000000
outer loop
vertex 0.000067 0.000377 0.150000
vertex 0.000092 0.000313 0.000000
vertex 0.000092 0.000313 0.150000
endloop
endfacet
facet normal -0.563265 -0.826276 0.000000
outer loop
vertex 0.000166 0.000211 0.150000
vertex 0.000166 0.000211 0.000000
vertex 0.000218 0.000176 0.000000
endloop
endfacet
facet normal -0.563265 -0.826276 0.000000
outer loop
vertex 0.000166 0.000211 0.150000
vertex 0.000218 0.000176 0.000000
vertex 0.000218 0.000176 0.150000
endloop
endfacet
facet normal 0.849777 0.527142 0.000000
outer loop
vertex 0.007897 0.004316 0.150000
vertex 0.007897 0.004316 0.000000
vertex 0.007824 0.004434 0.000000
endloop
endfacet
facet normal 0.849782 0.527134 0.000000
outer loop
vertex 0.007897 0.004316 0.150000
vertex 0.007824 0.004434 0.000000
vertex 0.007824 0.004434 0.150000
endloop
endfacet
facet normal 0.118704 -0.992930 0.000000
outer loop
vertex 0.004813 0.000002 0.150000
vertex 0.004813 0.000002 0.000000
vertex 0.005761 0.000115 0.000000
endloop
endfacet
facet normal 0.118705 -0.992930 0.000000
outer loop
vertex 0.004813 0.000002 0.150000
vertex 0.005761 0.000115 0.000000
vertex 0.005761 0.000115 0.150000
endloop
endfacet
endsolid Exported from Blender-3.6.8
