solid Exported from Blender-3.6.8
facet normal 0.000000 0.000000 1.000000
outer loop
vertex 0.005323 0.007490 0.150000
vertex 0.005129 0.007529 0.150000
vertex 0.005027 0.007539 0.150000
endloop
endfacet
facet normal 0.000000 0.000000 1.000000
outer loop
vertex 0.005027 0.007539 0.150000
vertex 0.004801 0.007534 0.150000
vertex 0.004674 0.007519 0.150000
endloop
endfacet
facet normal 0.000585 0.000000 1.000000
outer loop
vertex 0.004674 0.007519 0.150000
vertex 0.003962 0.007422 0.150000
vertex 0.003861 0.007405 0.150000
endloop
endfacet
facet normal -0.000832 0.000000 1.000000
outer loop
vertex 0.003861 0.007405 0.150000
vertex 0.003766 0.007386 0.150000
vertex 0.003597 0.007341 0.150000
endloop
endfacet
facet normal -0.001782 0.000000 0.999998
outer loop
vertex 0.003597 0.007341 0.150000
vertex 0.003522 0.007314 0.150000
vertex 0.003456 0.007282 0.150000
endloop
endfacet
facet normal 0.001323 0.000000 0.999999
outer loop
vertex 0.003597 0.007341 0.150000
vertex 0.003456 0.007282 0.150000
vertex 0.003395 0.007252 0.150000
endloop
endfacet
facet normal 0.000000 0.000000 1.000000
outer loop
vertex 0.004674 0.007519 0.150000
vertex 0.003861 0.007405 0.150000
vertex 0.003597 0.007341 0.150000
endloop
endfacet
facet normal 0.000000 0.000000 1.000000
outer loop
vertex 0.005323 0.007490 0.150000
vertex 0.005027 0.007539 0.150000
vertex 0.004674 0.007519 0.150000
endloop
endfacet
facet normal 0.000000 0.000000 1.000000
outer loop
vertex 0.006045 0.007182 0.150000
vertex 0.005511 0.007427 0.150000
vertex 0.005323 0.007490 0.150000
endloop
endfacet
facet normal -0.000311 0.000000 1.000000
outer loop
vertex 0.006564 0.006789 0.150000
vertex 0.006299 0.007013 0.150000
vertex 0.006045 0.007182 0.150000
endloop
endfacet
facet normal -0.002583 0.000000 0.999997
outer loop
vertex 0.006834 0.006519 0.150000
vertex 0.006699 0.006660 0.150000
vertex 0.006564 0.006789 0.150000
endloop
endfacet
facet normal 0.001696 0.000000 0.999999
outer loop
vertex 0.007229 0.006046 0.150000
vertex 0.007100 0.006212 0.150000
vertex 0.006834 0.006519 0.150000
endloop
endfacet
facet normal -0.002405 0.000000 0.999997
outer loop
vertex 0.007475 0.005696 0.150000
vertex 0.007355 0.005874 0.150000
vertex 0.007229 0.006046 0.150000
endloop
endfacet
facet normal 0.000902 0.000000 1.000000
outer loop
vertex 0.007662 0.005343 0.150000
vertex 0.007580 0.005519 0.150000
vertex 0.007475 0.005696 0.150000
endloop
endfacet
facet normal -0.000998 0.000000 0.999999
outer loop
vertex 0.007763 0.004983 0.150000
vertex 0.007722 0.005166 0.150000
vertex 0.007662 0.005343 0.150000
endloop
endfacet
facet normal 0.000860 0.000000 1.000000
outer loop
vertex 0.007797 0.004373 0.150000
vertex 0.007787 0.004793 0.150000
vertex 0.007763 0.004983 0.150000
endloop
endfacet
facet normal -0.000749 0.000000 1.000000
outer loop
vertex 0.007593 0.001902 0.150000
vertex 0.007660 0.002324 0.150000
vertex 0.007797 0.004373 0.150000
endloop
endfacet
facet normal 0.000000 0.000000 1.000000
outer loop
vertex 0.007451 0.001493 0.150000
vertex 0.007505 0.001609 0.150000
vertex 0.007593 0.001902 0.150000
endloop
endfacet
facet normal -0.003790 0.000000 0.999993
outer loop
vertex 0.007322 0.001284 0.150000
vertex 0.007390 0.001387 0.150000
vertex 0.007451 0.001493 0.150000
endloop
endfacet
facet normal 0.000000 0.000000 1.000000
outer loop
vertex 0.006971 0.000783 0.150000
vertex 0.007068 0.000918 0.150000
vertex 0.007161 0.001057 0.150000
endloop
endfacet
facet normal 0.000000 0.000000 1.000000
outer loop
vertex 0.007161 0.001057 0.150000
vertex 0.007322 0.001284 0.150000
vertex 0.007451 0.001493 0.150000
endloop
endfacet
facet normal 0.000217 0.000000 1.000000
outer loop
vertex 0.007451 0.001493 0.150000
vertex 0.007593 0.001902 0.150000
vertex 0.007797 0.004373 0.150000
endloop
endfacet
facet normal -0.000148 0.000000 1.000000
outer loop
vertex 0.007797 0.004373 0.150000
vertex 0.007763 0.004983 0.150000
vertex 0.007662 0.005343 0.150000
endloop
endfacet
facet normal -0.000333 0.000000 1.000000
outer loop
vertex 0.007662 0.005343 0.150000
vertex 0.007475 0.005696 0.150000
vertex 0.007229 0.006046 0.150000
endloop
endfacet
facet normal 0.000000 0.000000 1.000000
outer loop
vertex 0.007229 0.006046 0.150000
vertex 0.006834 0.006519 0.150000
vertex 0.006564 0.006789 0.150000
endloop
endfacet
facet normal 0.000059 0.000000 1.000000
outer loop
vertex 0.006564 0.006789 0.150000
vertex 0.006045 0.007182 0.150000
vertex 0.005323 0.007490 0.150000
endloop
endfacet
facet normal 0.000000 0.000000 1.000000
outer loop
vertex 0.005323 0.007490 0.150000
vertex 0.004674 0.007519 0.150000
vertex 0.003597 0.007341 0.150000
endloop
endfacet
facet normal 0.000015 0.000000 1.000000
outer loop
vertex 0.005323 0.007490 0.150000
vertex 0.003597 0.007341 0.150000
vertex 0.003395 0.007252 0.150000
endloop
endfacet
facet normal 0.000000 0.000000 1.000000
outer loop
vertex 0.007229 0.006046 0.150000
vertex 0.006564 0.006789 0.150000
vertex 0.005323 0.007490 0.150000
endloop
endfacet
facet normal 0.000000 0.000000 1.000000
outer loop
vertex 0.007797 0.004373 0.150000
vertex 0.007662 0.005343 0.150000
vertex 0.007229 0.006046 0.150000
endloop
endfacet
facet normal 0.000000 0.000000 1.000000
outer loop
vertex 0.007161 0.001057 0.150000
vertex 0.007451 0.001493 0.150000
vertex 0.007797 0.004373 0.150000
endloop
endfacet
facet normal 0.001244 0.000000 0.999999
outer loop
vertex 0.006876 0.000676 0.150000
vertex 0.006971 0.000783 0.150000
vertex 0.007161 0.001057 0.150000
endloop
endfacet
facet normal 0.000880 0.000000 1.000000
outer loop
vertex 0.006683 0.000531 0.150000
vertex 0.006780 0.000594 0.150000
vertex 0.006876 0.000676 0.150000
endloop
endfacet
facet normal -0.000588 0.000000 1.000000
outer loop
vertex 0.005076 0.000042 0.150000
vertex 0.006581 0.000484 0.150000
vertex 0.006683 0.000531 0.150000
endloop
endfacet
facet normal 0.000000 0.000000 1.000000
outer loop
vertex 0.004425 0.000005 0.150000
vertex 0.004755 0.000004 0.150000
vertex 0.005076 0.000042 0.150000
endloop
endfacet
facet normal 0.000597 0.000000 1.000000
outer loop
vertex 0.004057 0.000033 0.150000
vertex 0.004247 0.000016 0.150000
vertex 0.004425 0.000005 0.150000
endloop
endfacet
facet normal 0.001219 0.000000 0.999999
outer loop
vertex 0.003140 0.000122 0.150000
vertex 0.003379 0.000097 0.150000
vertex 0.004057 0.000033 0.150000
endloop
endfacet
facet normal 0.000000 0.000000 1.000000
outer loop
vertex 0.002639 0.000228 0.150000
vertex 0.002941 0.000152 0.150000
vertex 0.003140 0.000122 0.150000
endloop
endfacet
facet normal 0.000000 0.000000 1.000000
outer loop
vertex 0.002431 0.000321 0.150000
vertex 0.002526 0.000272 0.150000
vertex 0.002639 0.000228 0.150000
endloop
endfacet
facet normal -0.000493 0.000000 1.000000
outer loop
vertex 0.002040 0.000616 0.150000
vertex 0.002349 0.000373 0.150000
vertex 0.002431 0.000321 0.150000
endloop
endfacet
facet normal 0.000154 0.000000 1.000000
outer loop
vertex 0.000614 0.001648 0.150000
vertex 0.001744 0.000813 0.150000
vertex 0.002040 0.000616 0.150000
endloop
endfacet
facet normal 0.000000 0.000000 1.000000
outer loop
vertex 0.000275 0.001961 0.150000
vertex 0.000437 0.001798 0.150000
vertex 0.000614 0.001648 0.150000
endloop
endfacet
facet normal -0.001242 0.000000 0.999999
outer loop
vertex 0.000085 0.002227 0.150000
vertex 0.000139 0.002136 0.150000
vertex 0.000275 0.001961 0.150000
endloop
endfacet
facet normal 0.001290 0.000000 0.999999
outer loop
vertex 0.000018 0.002477 0.150000
vertex 0.000044 0.002337 0.150000
vertex 0.000085 0.002227 0.150000
endloop
endfacet
facet normal 0.000679 0.000000 1.000000
outer loop
vertex 0.000005 0.003009 0.150000
vertex 0.000004 0.002641 0.150000
vertex 0.000018 0.002477 0.150000
endloop
endfacet
facet normal 0.000000 0.000000 1.000000
outer loop
vertex 0.001603 0.005190 0.150000
vertex 0.000107 0.003976 0.150000
vertex 0.000005 0.003009 0.150000
endloop
endfacet
facet normal 0.000000 0.000000 1.000000
outer loop
vertex 0.001795 0.005370 0.150000
vertex 0.001603 0.005190 0.150000
vertex 0.000005 0.003009 0.150000
endloop
endfacet
facet normal 0.000000 0.000000 1.000000
outer loop
vertex 0.000005 0.003009 0.150000
vertex 0.000018 0.002477 0.150000
vertex 0.000085 0.002227 0.150000
endloop
endfacet
facet normal 0.000236 0.000000 1.000000
outer loop
vertex 0.000085 0.002227 0.150000
vertex 0.000275 0.001961 0.150000
vertex 0.000614 0.001648 0.150000
endloop
endfacet
facet normal 0.000220 0.000000 1.000000
outer loop
vertex 0.002040 0.000616 0.150000
vertex 0.002431 0.000321 0.150000
vertex 0.002639 0.000228 0.150000
endloop
endfacet
facet normal 0.000000 0.000000 1.000000
outer loop
vertex 0.000085 0.002227 0.150000
vertex 0.000614 0.001648 0.150000
vertex 0.002040 0.000616 0.150000
endloop
endfacet
facet normal 0.000009 0.000000 1.000000
outer loop
vertex 0.001795 0.005370 0.150000
vertex 0.000005 0.003009 0.150000
vertex 0.000085 0.002227 0.150000
endloop
endfacet
facet normal 0.000000 0.000000 1.000000
outer loop
vertex 0.001893 0.005469 0.150000
vertex 0.001795 0.005370 0.150000
vertex 0.000085 0.002227 0.150000
endloop
endfacet
facet normal 0.000106 0.000000 1.000000
outer loop
vertex 0.000085 0.002227 0.150000
vertex 0.002040 0.000616 0.150000
vertex 0.002639 0.000228 0.150000
endloop
endfacet
facet normal -0.000035 0.000000 1.000000
outer loop
vertex 0.002639 0.000228 0.150000
vertex 0.003140 0.000122 0.150000
vertex 0.004057 0.000033 0.150000
endloop
endfacet
facet normal 0.000000 0.000000 1.000000
outer loop
vertex 0.004057 0.000033 0.150000
vertex 0.004425 0.000005 0.150000
vertex 0.005076 0.000042 0.150000
endloop
endfacet
facet normal 0.000000 0.000000 1.000000
outer loop
vertex 0.005076 0.000042 0.150000
vertex 0.006683 0.000531 0.150000
vertex 0.006876 0.000676 0.150000
endloop
endfacet
facet normal 0.000000 0.000000 1.000000
outer loop
vertex 0.006876 0.000676 0.150000
vertex 0.007161 0.001057 0.150000
vertex 0.007797 0.004373 0.150000
endloop
endfacet
facet normal 0.000012 0.000000 1.000000
outer loop
vertex 0.007797 0.004373 0.150000
vertex 0.007229 0.006046 0.150000
vertex 0.005323 0.007490 0.150000
endloop
endfacet
facet normal -0.000118 0.000000 1.000000
outer loop
vertex 0.005323 0.007490 0.150000
vertex 0.003395 0.007252 0.150000
vertex 0.003338 0.007227 0.150000
endloop
endfacet
facet normal 0.002638 0.000000 0.999997
outer loop
vertex 0.003338 0.007227 0.150000
vertex 0.003229 0.007181 0.150000
vertex 0.003176 0.007156 0.150000
endloop
endfacet
facet normal -0.002407 0.000000 0.999997
outer loop
vertex 0.003176 0.007156 0.150000
vertex 0.003121 0.007125 0.150000
vertex 0.003065 0.007086 0.150000
endloop
endfacet
facet normal -0.000659 0.000000 1.000000
outer loop
vertex 0.003065 0.007086 0.150000
vertex 0.002941 0.006973 0.150000
vertex 0.002796 0.006795 0.150000
endloop
endfacet
facet normal 0.004040 0.000000 0.999992
outer loop
vertex 0.002796 0.006795 0.150000
vertex 0.002713 0.006675 0.150000
vertex 0.002565 0.006442 0.150000
endloop
endfacet
facet normal 0.001081 0.000000 0.999999
outer loop
vertex 0.002796 0.006795 0.150000
vertex 0.002565 0.006442 0.150000
vertex 0.002324 0.006015 0.150000
endloop
endfacet
facet normal 0.000000 0.000000 1.000000
outer loop
vertex 0.003176 0.007156 0.150000
vertex 0.003065 0.007086 0.150000
vertex 0.002796 0.006795 0.150000
endloop
endfacet
facet normal 0.000037 0.000000 1.000000
outer loop
vertex 0.005323 0.007490 0.150000
vertex 0.003338 0.007227 0.150000
vertex 0.003176 0.007156 0.150000
endloop
endfacet
facet normal -0.000005 0.000000 1.000000
outer loop
vertex 0.006876 0.000676 0.150000
vertex 0.007797 0.004373 0.150000
vertex 0.005323 0.007490 0.150000
endloop
endfacet
facet normal 0.000000 0.000000 1.000000
outer loop
vertex 0.004057 0.000033 0.150000
vertex 0.005076 0.000042 0.150000
vertex 0.006876 0.000676 0.150000
endloop
endfacet
facet normal -0.000005 0.000000 1.000000
outer loop
vertex 0.000085 0.002227 0.150000
vertex 0.002639 0.000228 0.150000
vertex 0.004057 0.000033 0.150000
endloop
endfacet
facet normal 0.000000 0.000000 1.000000
outer loop
vertex 0.001992 0.005575 0.150000
vertex 0.001893 0.005469 0.150000
vertex 0.000085 0.002227 0.150000
endloop
endfacet
facet normal 0.000503 0.000000 1.000000
outer loop
vertex 0.002221 0.005857 0.150000
vertex 0.001992 0.005575 0.150000
vertex 0.000085 0.002227 0.150000
endloop
endfacet
facet normal -0.000003 0.000000 1.000000
outer loop
vertex 0.000085 0.002227 0.150000
vertex 0.004057 0.000033 0.150000
vertex 0.006876 0.000676 0.150000
endloop
endfacet
facet normal 0.000003 0.000000 1.000000
outer loop
vertex 0.006876 0.000676 0.150000
vertex 0.005323 0.007490 0.150000
vertex 0.003176 0.007156 0.150000
endloop
endfacet
facet normal 0.000000 0.000000 1.000000
outer loop
vertex 0.003176 0.007156 0.150000
vertex 0.002796 0.006795 0.150000
vertex 0.002324 0.006015 0.150000
endloop
endfacet
facet normal 0.000000 0.000000 1.000000
outer loop
vertex 0.002276 0.005937 0.150000
vertex 0.002221 0.005857 0.150000
vertex 0.000085 0.002227 0.150000
endloop
endfacet
facet normal -0.000833 0.000000 1.000000
outer loop
vertex 0.003176 0.007156 0.150000
vertex 0.002324 0.006015 0.150000
vertex 0.002276 0.005937 0.150000
endloop
endfacet
facet normal 0.000000 0.000000 1.000000
outer loop
vertex 0.000085 0.002227 0.150000
vertex 0.006876 0.000676 0.150000
vertex 0.003176 0.007156 0.150000
endloop
endfacet
facet normal 0.000000 0.000000 1.000000
outer loop
vertex 0.003176 0.007156 0.150000
vertex 0.002276 0.005937 0.150000
vertex 0.000085 0.002227 0.150000
endloop
endfacet
facet normal -0.494526 0.869163 0.000000
outer loop
vertex 0.003176 0.007156 0.150000
vertex 0.003176 0.007156 0.000000
vertex 0.003121 0.007125 0.000000
endloop
endfacet
facet normal -0.494523 0.869164 0.000000
outer loop
vertex 0.003176 0.007156 0.150000
vertex 0.003121 0.007125 0.000000
vertex 0.003121 0.007125 0.150000
endloop
endfacet
facet normal -0.367169 -0.930154 0.000000
outer loop
vertex 0.002526 0.000272 0.150000
vertex 0.002526 0.000272 0.000000
vertex 0.002639 0.000228 0.000000
endloop
endfacet
facet normal -0.367168 -0.930155 0.000000
outer loop
vertex 0.002526 0.000272 0.150000
vertex 0.002639 0.000228 0.000000
vertex 0.002639 0.000228 0.150000
endloop
endfacet
facet normal -0.999997 0.002637 0.000000
outer loop
vertex 0.000004 0.002641 0.000000
vertex 0.000004 0.002641 0.150000
vertex 0.000005 0.003009 0.150000
endloop
endfacet
facet normal -0.999997 0.002637 0.000000
outer loop
vertex 0.000004 0.002641 0.000000
vertex 0.000005 0.003009 0.150000
vertex 0.000005 0.003009 0.000000
endloop
endfacet
facet normal 0.000000 0.000000 -1.000000
outer loop
vertex 0.006834 0.006519 0.000000
vertex 0.007100 0.006212 0.000000
vertex 0.007229 0.006046 0.000000
endloop
endfacet
facet normal 0.000000 0.000000 -1.000000
outer loop
vertex 0.007229 0.006046 0.000000
vertex 0.007355 0.005874 0.000000
vertex 0.007475 0.005696 0.000000
endloop
endfacet
facet normal 0.000000 0.000000 -1.000000
outer loop
vertex 0.007475 0.005696 0.000000
vertex 0.007580 0.005519 0.000000
vertex 0.007662 0.005343 0.000000
endloop
endfacet
facet normal 0.000000 0.000000 -1.000000
outer loop
vertex 0.007662 0.005343 0.000000
vertex 0.007722 0.005166 0.000000
vertex 0.007763 0.004983 0.000000
endloop
endfacet
facet normal 0.000000 0.000000 -1.000000
outer loop
vertex 0.007763 0.004983 0.000000
vertex 0.007787 0.004793 0.000000
vertex 0.007797 0.004373 0.000000
endloop
endfacet
facet normal 0.000000 0.000000 -1.000000
outer loop
vertex 0.007797 0.004373 0.000000
vertex 0.007660 0.002324 0.000000
vertex 0.007593 0.001902 0.000000
endloop
endfacet
facet normal 0.000000 0.000000 -1.000000
outer loop
vertex 0.007593 0.001902 0.000000
vertex 0.007505 0.001609 0.000000
vertex 0.007451 0.001493 0.000000
endloop
endfacet
facet normal 0.000000 0.000000 -1.000000
outer loop
vertex 0.007451 0.001493 0.000000
vertex 0.007390 0.001387 0.000000
vertex 0.007322 0.001284 0.000000
endloop
endfacet
facet normal 0.000000 0.000000 -1.000000
outer loop
vertex 0.007161 0.001057 0.000000
vertex 0.007068 0.000918 0.000000
vertex 0.006971 0.000783 0.000000
endloop
endfacet
facet normal 0.000000 0.000000 -1.000000
outer loop
vertex 0.007451 0.001493 0.000000
vertex 0.007322 0.001284 0.000000
vertex 0.007161 0.001057 0.000000
endloop
endfacet
facet normal 0.000000 0.000000 -1.000000
outer loop
vertex 0.007797 0.004373 0.000000
vertex 0.007593 0.001902 0.000000
vertex 0.007451 0.001493 0.000000
endloop
endfacet
facet normal 0.000000 0.000000 -1.000000
outer loop
vertex 0.007662 0.005343 0.000000
vertex 0.007763 0.004983 0.000000
vertex 0.007797 0.004373 0.000000
endloop
endfacet
facet normal 0.000000 0.000000 -1.000000
outer loop
vertex 0.007229 0.006046 0.000000
vertex 0.007475 0.005696 0.000000
vertex 0.007662 0.005343 0.000000
endloop
endfacet
facet normal 0.000000 0.000000 -1.000000
outer loop
vertex 0.006699 0.006660 0.000000
vertex 0.006834 0.006519 0.000000
vertex 0.007229 0.006046 0.000000
endloop
endfacet
facet normal 0.000000 0.000000 -1.000000
outer loop
vertex 0.006299 0.007013 0.000000
vertex 0.006564 0.006789 0.000000
vertex 0.006699 0.006660 0.000000
endloop
endfacet
facet normal 0.000000 0.000000 -1.000000
outer loop
vertex 0.005511 0.007427 0.000000
vertex 0.006045 0.007182 0.000000
vertex 0.006299 0.007013 0.000000
endloop
endfacet
facet normal 0.000000 0.000000 -1.000000
outer loop
vertex 0.005129 0.007529 0.000000
vertex 0.005323 0.007490 0.000000
vertex 0.005511 0.007427 0.000000
endloop
endfacet
facet normal 0.000000 0.000000 -1.000000
outer loop
vertex 0.004801 0.007534 0.000000
vertex 0.005027 0.007539 0.000000
vertex 0.005129 0.007529 0.000000
endloop
endfacet
facet normal 0.000000 0.000000 -1.000000
outer loop
vertex 0.003962 0.007422 0.000000
vertex 0.004674 0.007519 0.000000
vertex 0.004801 0.007534 0.000000
endloop
endfacet
facet normal 0.000000 0.000000 -1.000000
outer loop
vertex 0.003766 0.007386 0.000000
vertex 0.003861 0.007405 0.000000
vertex 0.003962 0.007422 0.000000
endloop
endfacet
facet normal 0.000000 0.000000 -1.000000
outer loop
vertex 0.003522 0.007314 0.000000
vertex 0.003597 0.007341 0.000000
vertex 0.003766 0.007386 0.000000
endloop
endfacet
facet normal 0.000000 0.000000 -1.000000
outer loop
vertex 0.003395 0.007252 0.000000
vertex 0.003456 0.007282 0.000000
vertex 0.003522 0.007314 0.000000
endloop
endfacet
facet normal 0.000000 0.000000 -1.000000
outer loop
vertex 0.003176 0.007156 0.000000
vertex 0.003229 0.007181 0.000000
vertex 0.003338 0.007227 0.000000
endloop
endfacet
facet normal 0.000000 0.000000 -1.000000
outer loop
vertex 0.003395 0.007252 0.000000
vertex 0.003522 0.007314 0.000000
vertex 0.003766 0.007386 0.000000
endloop
endfacet
facet normal 0.000000 0.000000 -1.000000
outer loop
vertex 0.003121 0.007125 0.000000
vertex 0.003176 0.007156 0.000000
vertex 0.003338 0.007227 0.000000
endloop
endfacet
facet normal 0.000000 0.000000 -1.000000
outer loop
vertex 0.003338 0.007227 0.000000
vertex 0.003395 0.007252 0.000000
vertex 0.003766 0.007386 0.000000
endloop
endfacet
facet normal 0.000000 0.000000 -1.000000
outer loop
vertex 0.003766 0.007386 0.000000
vertex 0.003962 0.007422 0.000000
vertex 0.004801 0.007534 0.000000
endloop
endfacet
facet normal 0.000000 0.000000 -1.000000
outer loop
vertex 0.004801 0.007534 0.000000
vertex 0.005129 0.007529 0.000000
vertex 0.005511 0.007427 0.000000
endloop
endfacet
facet normal 0.000000 0.000000 -1.000000
outer loop
vertex 0.005511 0.007427 0.000000
vertex 0.006299 0.007013 0.000000
vertex 0.006699 0.006660 0.000000
endloop
endfacet
facet normal 0.000000 0.000000 -1.000000
outer loop
vertex 0.006699 0.006660 0.000000
vertex 0.007229 0.006046 0.000000
vertex 0.007662 0.005343 0.000000
endloop
endfacet
facet normal 0.000000 0.000000 -1.000000
outer loop
vertex 0.007662 0.005343 0.000000
vertex 0.007797 0.004373 0.000000
vertex 0.007451 0.001493 0.000000
endloop
endfacet
facet normal 0.000000 0.000000 -1.000000
outer loop
vertex 0.007451 0.001493 0.000000
vertex 0.007161 0.001057 0.000000
vertex 0.006971 0.000783 0.000000
endloop
endfacet
facet normal 0.000000 0.000000 -1.000000
outer loop
vertex 0.006971 0.000783 0.000000
vertex 0.006876 0.000676 0.000000
vertex 0.006780 0.000594 0.000000
endloop
endfacet
facet normal 0.000000 0.000000 -1.000000
outer loop
vertex 0.006780 0.000594 0.000000
vertex 0.006683 0.000531 0.000000
vertex 0.006581 0.000484 0.000000
endloop
endfacet
facet normal 0.000000 0.000000 -1.000000
outer loop
vertex 0.006581 0.000484 0.000000
vertex 0.005076 0.000042 0.000000
vertex 0.004755 0.000004 0.000000
endloop
endfacet
facet normal 0.000000 0.000000 -1.000000
outer loop
vertex 0.004755 0.000004 0.000000
vertex 0.004425 0.000005 0.000000
vertex 0.004247 0.000016 0.000000
endloop
endfacet
facet normal 0.000000 0.000000 -1.000000
outer loop
vertex 0.004247 0.000016 0.000000
vertex 0.004057 0.000033 0.000000
vertex 0.003379 0.000097 0.000000
endloop
endfacet
facet normal 0.000000 0.000000 -1.000000
outer loop
vertex 0.003379 0.000097 0.000000
vertex 0.003140 0.000122 0.000000
vertex 0.002941 0.000152 0.000000
endloop
endfacet
facet normal 0.000000 0.000000 -1.000000
outer loop
vertex 0.002941 0.000152 0.000000
vertex 0.002639 0.000228 0.000000
vertex 0.002526 0.000272 0.000000
endloop
endfacet
facet normal 0.000000 0.000000 -1.000000
outer loop
vertex 0.002526 0.000272 0.000000
vertex 0.002431 0.000321 0.000000
vertex 0.002349 0.000373 0.000000
endloop
endfacet
facet normal 0.000000 0.000000 -1.000000
outer loop
vertex 0.002040 0.000616 0.000000
vertex 0.001744 0.000813 0.000000
vertex 0.000614 0.001648 0.000000
endloop
endfacet
facet normal 0.000000 0.000000 -1.000000
outer loop
vertex 0.002526 0.000272 0.000000
vertex 0.002349 0.000373 0.000000
vertex 0.002040 0.000616 0.000000
endloop
endfacet
facet normal 0.000000 0.000000 -1.000000
outer loop
vertex 0.003379 0.000097 0.000000
vertex 0.002941 0.000152 0.000000
vertex 0.002526 0.000272 0.000000
endloop
endfacet
facet normal 0.000000 0.000000 -1.000000
outer loop
vertex 0.004755 0.000004 0.000000
vertex 0.004247 0.000016 0.000000
vertex 0.003379 0.000097 0.000000
endloop
endfacet
facet normal 0.000000 0.000000 -1.000000
outer loop
vertex 0.006780 0.000594 0.000000
vertex 0.006581 0.000484 0.000000
vertex 0.004755 0.000004 0.000000
endloop
endfacet
facet normal 0.000000 0.000000 -1.000000
outer loop
vertex 0.007451 0.001493 0.000000
vertex 0.006971 0.000783 0.000000
vertex 0.006780 0.000594 0.000000
endloop
endfacet
facet normal 0.000000 0.000000 -1.000000
outer loop
vertex 0.006699 0.006660 0.000000
vertex 0.007662 0.005343 0.000000
vertex 0.007451 0.001493 0.000000
endloop
endfacet
facet normal 0.000000 0.000000 -1.000000
outer loop
vertex 0.004801 0.007534 0.000000
vertex 0.005511 0.007427 0.000000
vertex 0.006699 0.006660 0.000000
endloop
endfacet
facet normal 0.000000 0.000000 -1.000000
outer loop
vertex 0.003338 0.007227 0.000000
vertex 0.003766 0.007386 0.000000
vertex 0.004801 0.007534 0.000000
endloop
endfacet
facet normal 0.000000 0.000000 -1.000000
outer loop
vertex 0.003065 0.007086 0.000000
vertex 0.003121 0.007125 0.000000
vertex 0.003338 0.007227 0.000000
endloop
endfacet
facet normal 0.000000 0.000000 -1.000000
outer loop
vertex 0.002796 0.006795 0.000000
vertex 0.002941 0.006973 0.000000
vertex 0.003065 0.007086 0.000000
endloop
endfacet
facet normal 0.000000 0.000000 -1.000000
outer loop
vertex 0.002565 0.006442 0.000000
vertex 0.002713 0.006675 0.000000
vertex 0.002796 0.006795 0.000000
endloop
endfacet
facet normal 0.000000 0.000000 -1.000000
outer loop
vertex 0.002324 0.006015 0.000000
vertex 0.002565 0.006442 0.000000
vertex 0.002796 0.006795 0.000000
endloop
endfacet
facet normal 0.000000 0.000000 -1.000000
outer loop
vertex 0.002796 0.006795 0.000000
vertex 0.003065 0.007086 0.000000
vertex 0.003338 0.007227 0.000000
endloop
endfacet
facet normal 0.000000 0.000000 -1.000000
outer loop
vertex 0.003338 0.007227 0.000000
vertex 0.004801 0.007534 0.000000
vertex 0.006699 0.006660 0.000000
endloop
endfacet
facet normal 0.000000 0.000000 -1.000000
outer loop
vertex 0.006699 0.006660 0.000000
vertex 0.007451 0.001493 0.000000
vertex 0.006780 0.000594 0.000000
endloop
endfacet
facet normal 0.000000 0.000000 -1.000000
outer loop
vertex 0.006780 0.000594 0.000000
vertex 0.004755 0.000004 0.000000
vertex 0.003379 0.000097 0.000000
endloop
endfacet
facet normal 0.000000 0.000000 -1.000000
outer loop
vertex 0.003379 0.000097 0.000000
vertex 0.002526 0.000272 0.000000
vertex 0.002040 0.000616 0.000000
endloop
endfacet
facet normal 0.000000 0.000000 -1.000000
outer loop
vertex 0.002040 0.000616 0.000000
vertex 0.000614 0.001648 0.000000
vertex 0.000437 0.001798 0.000000
endloop
endfacet
facet normal 0.000000 0.000000 -1.000000
outer loop
vertex 0.000437 0.001798 0.000000
vertex 0.000275 0.001961 0.000000
vertex 0.000139 0.002136 0.000000
endloop
endfacet
facet normal 0.000000 0.000000 -1.000000
outer loop
vertex 0.000139 0.002136 0.000000
vertex 0.000085 0.002227 0.000000
vertex 0.000044 0.002337 0.000000
endloop
endfacet
facet normal 0.000000 0.000000 -1.000000
outer loop
vertex 0.000044 0.002337 0.000000
vertex 0.000018 0.002477 0.000000
vertex 0.000004 0.002641 0.000000
endloop
endfacet
facet normal 0.000000 0.000000 -1.000000
outer loop
vertex 0.000004 0.002641 0.000000
vertex 0.000005 0.003009 0.000000
vertex 0.000107 0.003976 0.000000
endloop
endfacet
facet normal 0.000000 0.000000 -1.000000
outer loop
vertex 0.000004 0.002641 0.000000
vertex 0.000107 0.003976 0.000000
vertex 0.001603 0.005190 0.000000
endloop
endfacet
facet normal 0.000000 0.000000 -1.000000
outer loop
vertex 0.000139 0.002136 0.000000
vertex 0.000044 0.002337 0.000000
vertex 0.000004 0.002641 0.000000
endloop
endfacet
facet normal 0.000000 0.000000 -1.000000
outer loop
vertex 0.002040 0.000616 0.000000
vertex 0.000437 0.001798 0.000000
vertex 0.000139 0.002136 0.000000
endloop
endfacet
facet normal 0.000000 0.000000 -1.000000
outer loop
vertex 0.006780 0.000594 0.000000
vertex 0.003379 0.000097 0.000000
vertex 0.002040 0.000616 0.000000
endloop
endfacet
facet normal 0.000000 0.000000 -1.000000
outer loop
vertex 0.003338 0.007227 0.000000
vertex 0.006699 0.006660 0.000000
vertex 0.006780 0.000594 0.000000
endloop
endfacet
facet normal 0.000000 0.000000 -1.000000
outer loop
vertex 0.002324 0.006015 0.000000
vertex 0.002796 0.006795 0.000000
vertex 0.003338 0.007227 0.000000
endloop
endfacet
facet normal 0.000000 0.000000 -1.000000
outer loop
vertex 0.002276 0.005937 0.000000
vertex 0.002324 0.006015 0.000000
vertex 0.003338 0.007227 0.000000
endloop
endfacet
facet normal 0.000000 0.000000 -1.000000
outer loop
vertex 0.003338 0.007227 0.000000
vertex 0.006780 0.000594 0.000000
vertex 0.002040 0.000616 0.000000
endloop
endfacet
facet normal 0.000000 0.000000 -1.000000
outer loop
vertex 0.002040 0.000616 0.000000
vertex 0.000139 0.002136 0.000000
vertex 0.000004 0.002641 0.000000
endloop
endfacet
facet normal 0.000000 0.000000 -1.000000
outer loop
vertex 0.000004 0.002641 0.000000
vertex 0.001603 0.005190 0.000000
vertex 0.001795 0.005370 0.000000
endloop
endfacet
facet normal 0.000000 0.000000 -1.000000
outer loop
vertex 0.000004 0.002641 0.000000
vertex 0.001795 0.005370 0.000000
vertex 0.001893 0.005469 0.000000
endloop
endfacet
facet normal 0.000000 0.000000 -1.000000
outer loop
vertex 0.003338 0.007227 0.000000
vertex 0.002040 0.000616 0.000000
vertex 0.000004 0.002641 0.000000
endloop
endfacet
facet normal 0.000000 0.000000 -1.000000
outer loop
vertex 0.002221 0.005857 0.000000
vertex 0.002276 0.005937 0.000000
vertex 0.003338 0.007227 0.000000
endloop
endfacet
facet normal 0.000000 0.000000 -1.000000
outer loop
vertex 0.000004 0.002641 0.000000
vertex 0.001893 0.005469 0.000000
vertex 0.001992 0.005575 0.000000
endloop
endfacet
facet normal 0.000000 0.000000 -1.000000
outer loop
vertex 0.001992 0.005575 0.000000
vertex 0.002221 0.005857 0.000000
vertex 0.003338 0.007227 0.000000
endloop
endfacet
facet normal 0.000000 0.000000 -1.000000
outer loop
vertex 0.000004 0.002641 0.000000
vertex 0.001992 0.005575 0.000000
vertex 0.003338 0.007227 0.000000
endloop
endfacet
facet normal -0.456911 -0.889512 0.000000
outer loop
vertex 0.002431 0.000321 0.150000
vertex 0.002431 0.000321 0.000000
vertex 0.002526 0.000272 0.000000
endloop
endfacet
facet normal -0.456911 -0.889512 0.000000
outer loop
vertex 0.002431 0.000321 0.150000
vertex 0.002526 0.000272 0.000000
vertex 0.002526 0.000272 0.150000
endloop
endfacet
facet normal -0.630082 0.776529 0.000000
outer loop
vertex 0.001603 0.005190 0.000000
vertex 0.000107 0.003976 0.000000
vertex 0.000107 0.003976 0.150000
endloop
endfacet
facet normal -0.630082 0.776529 0.000000
outer loop
vertex 0.001603 0.005190 0.000000
vertex 0.000107 0.003976 0.150000
vertex 0.001603 0.005190 0.150000
endloop
endfacet
facet normal -0.860184 -0.509983 0.000000
outer loop
vertex 0.000085 0.002227 0.150000
vertex 0.000085 0.002227 0.000000
vertex 0.000139 0.002136 0.000000
endloop
endfacet
facet normal -0.860184 -0.509983 0.000000
outer loop
vertex 0.000085 0.002227 0.150000
vertex 0.000139 0.002136 0.000000
vertex 0.000139 0.002136 0.150000
endloop
endfacet
facet normal -0.064114 -0.997943 0.000000
outer loop
vertex 0.004247 0.000016 0.000000
vertex 0.004425 0.000005 0.000000
vertex 0.004425 0.000005 0.150000
endloop
endfacet
facet normal -0.064114 -0.997943 0.000000
outer loop
vertex 0.004247 0.000016 0.000000
vertex 0.004425 0.000005 0.150000
vertex 0.004247 0.000016 0.150000
endloop
endfacet
facet normal -0.086526 -0.996250 0.000000
outer loop
vertex 0.004057 0.000033 0.000000
vertex 0.004247 0.000016 0.000000
vertex 0.004247 0.000016 0.150000
endloop
endfacet
facet normal -0.086526 -0.996250 0.000000
outer loop
vertex 0.004057 0.000033 0.000000
vertex 0.004247 0.000016 0.150000
vertex 0.004057 0.000033 0.150000
endloop
endfacet
facet normal -0.094411 -0.995533 0.000000
outer loop
vertex 0.003379 0.000097 0.000000
vertex 0.004057 0.000033 0.000000
vertex 0.004057 0.000033 0.150000
endloop
endfacet
facet normal -0.094411 -0.995533 0.000000
outer loop
vertex 0.003379 0.000097 0.000000
vertex 0.004057 0.000033 0.150000
vertex 0.003379 0.000097 0.150000
endloop
endfacet
facet normal -0.150060 -0.988677 0.000000
outer loop
vertex 0.002941 0.000152 0.150000
vertex 0.002941 0.000152 0.000000
vertex 0.003140 0.000122 0.000000
endloop
endfacet
facet normal -0.103486 -0.994631 0.000000
outer loop
vertex 0.003140 0.000122 0.000000
vertex 0.003379 0.000097 0.000000
vertex 0.003379 0.000097 0.150000
endloop
endfacet
facet normal -0.150059 -0.988677 0.000000
outer loop
vertex 0.003140 0.000122 0.150000
vertex 0.002941 0.000152 0.150000
vertex 0.003140 0.000122 0.000000
endloop
endfacet
facet normal -0.103486 -0.994631 0.000000
outer loop
vertex 0.003379 0.000097 0.150000
vertex 0.003140 0.000122 0.150000
vertex 0.003140 0.000122 0.000000
endloop
endfacet
facet normal -0.193902 0.981021 0.000000
outer loop
vertex 0.003861 0.007405 0.000000
vertex 0.003766 0.007386 0.000000
vertex 0.003766 0.007386 0.150000
endloop
endfacet
facet normal -0.193902 0.981021 0.000000
outer loop
vertex 0.003861 0.007405 0.000000
vertex 0.003766 0.007386 0.150000
vertex 0.003861 0.007405 0.150000
endloop
endfacet
facet normal -0.165700 0.986176 0.000000
outer loop
vertex 0.003962 0.007422 0.000000
vertex 0.003861 0.007405 0.000000
vertex 0.003861 0.007405 0.150000
endloop
endfacet
facet normal -0.165700 0.986176 0.000000
outer loop
vertex 0.003962 0.007422 0.000000
vertex 0.003861 0.007405 0.150000
vertex 0.003962 0.007422 0.150000
endloop
endfacet
facet normal -0.117906 0.993025 0.000000
outer loop
vertex 0.004801 0.007534 0.150000
vertex 0.004801 0.007534 0.000000
vertex 0.004674 0.007519 0.000000
endloop
endfacet
facet normal -0.134330 0.990937 0.000000
outer loop
vertex 0.004674 0.007519 0.000000
vertex 0.003962 0.007422 0.000000
vertex 0.003962 0.007422 0.150000
endloop
endfacet
facet normal -0.117907 0.993025 0.000000
outer loop
vertex 0.004674 0.007519 0.150000
vertex 0.004801 0.007534 0.150000
vertex 0.004674 0.007519 0.000000
endloop
endfacet
facet normal -0.134330 0.990937 0.000000
outer loop
vertex 0.003962 0.007422 0.150000
vertex 0.004674 0.007519 0.150000
vertex 0.004674 0.007519 0.000000
endloop
endfacet
facet normal -0.675713 0.737165 0.000000
outer loop
vertex 0.003065 0.007086 0.150000
vertex 0.003065 0.007086 0.000000
vertex 0.002941 0.006973 0.000000
endloop
endfacet
facet normal -0.675709 0.737168 0.000000
outer loop
vertex 0.003065 0.007086 0.150000
vertex 0.002941 0.006973 0.000000
vertex 0.002941 0.006973 0.150000
endloop
endfacet
facet normal 0.000000 0.000000 -1.000000
outer loop
vertex 0.001992 0.005575 0.000000
vertex 0.001893 0.005469 0.000000
vertex 0.001795 0.005370 0.000000
endloop
endfacet
facet normal -0.684046 0.729439 0.000000
outer loop
vertex 0.001795 0.005370 0.000000
vertex 0.001603 0.005190 0.000000
vertex 0.001603 0.005190 0.150000
endloop
endfacet
facet normal -0.684045 0.729440 0.000000
outer loop
vertex 0.001795 0.005370 0.000000
vertex 0.001603 0.005190 0.150000
vertex 0.001795 0.005370 0.150000
endloop
endfacet
facet normal -0.721822 0.692079 0.000000
outer loop
vertex 0.001992 0.005575 0.150000
vertex 0.001992 0.005575 0.000000
vertex 0.001795 0.005370 0.000000
endloop
endfacet
facet normal -0.711565 0.702620 0.000000
outer loop
vertex 0.001795 0.005370 0.000000
vertex 0.001795 0.005370 0.150000
vertex 0.001893 0.005469 0.150000
endloop
endfacet
facet normal -0.731590 0.681745 0.000027
outer loop
vertex 0.001795 0.005370 0.000000
vertex 0.001893 0.005469 0.150000
vertex 0.001992 0.005575 0.150000
endloop
endfacet
facet normal 0.907665 0.419696 0.000000
outer loop
vertex 0.007662 0.005343 0.150000
vertex 0.007662 0.005343 0.000000
vertex 0.007580 0.005519 0.000000
endloop
endfacet
facet normal 0.907668 0.419689 0.000000
outer loop
vertex 0.007662 0.005343 0.150000
vertex 0.007580 0.005519 0.000000
vertex 0.007580 0.005519 0.150000
endloop
endfacet
facet normal 0.788245 0.615361 0.000000
outer loop
vertex 0.007229 0.006046 0.000000
vertex 0.007100 0.006212 0.000000
vertex 0.007100 0.006212 0.150000
endloop
endfacet
facet normal 0.788242 0.615366 0.000000
outer loop
vertex 0.007229 0.006046 0.000000
vertex 0.007100 0.006212 0.150000
vertex 0.007229 0.006046 0.150000
endloop
endfacet
facet normal 0.827108 0.562043 0.000000
outer loop
vertex 0.007475 0.005696 0.150000
vertex 0.007475 0.005696 0.000000
vertex 0.007355 0.005874 0.000000
endloop
endfacet
facet normal 0.808050 0.589114 0.000000
outer loop
vertex 0.007355 0.005874 0.000000
vertex 0.007229 0.006046 0.000000
vertex 0.007229 0.006046 0.150000
endloop
endfacet
facet normal 0.827105 0.562048 0.000000
outer loop
vertex 0.007355 0.005874 0.150000
vertex 0.007475 0.005696 0.150000
vertex 0.007355 0.005874 0.000000
endloop
endfacet
facet normal 0.808053 0.589110 0.000000
outer loop
vertex 0.007229 0.006046 0.150000
vertex 0.007355 0.005874 0.150000
vertex 0.007355 0.005874 0.000000
endloop
endfacet
facet normal 0.422138 -0.906532 0.000000
outer loop
vertex 0.006581 0.000484 0.150000
vertex 0.006581 0.000484 0.000000
vertex 0.006683 0.000531 0.000000
endloop
endfacet
facet normal 0.422133 -0.906534 0.000000
outer loop
vertex 0.006581 0.000484 0.150000
vertex 0.006683 0.000531 0.000000
vertex 0.006683 0.000531 0.150000
endloop
endfacet
facet normal 0.653027 -0.757335 0.000000
outer loop
vertex 0.006780 0.000594 0.150000
vertex 0.006780 0.000594 0.000000
vertex 0.006876 0.000676 0.000000
endloop
endfacet
facet normal 0.653021 -0.757340 0.000000
outer loop
vertex 0.006780 0.000594 0.150000
vertex 0.006876 0.000676 0.000000
vertex 0.006876 0.000676 0.150000
endloop
endfacet
facet normal 0.907151 -0.420805 0.000000
outer loop
vertex 0.007451 0.001493 0.150000
vertex 0.007451 0.001493 0.000000
vertex 0.007505 0.001609 0.000000
endloop
endfacet
facet normal 0.907156 -0.420795 0.000000
outer loop
vertex 0.007451 0.001493 0.150000
vertex 0.007505 0.001609 0.000000
vertex 0.007505 0.001609 0.150000
endloop
endfacet
facet normal 0.997756 -0.066953 0.000000
outer loop
vertex 0.007660 0.002324 0.000000
vertex 0.007797 0.004373 0.000000
vertex 0.007797 0.004373 0.150000
endloop
endfacet
facet normal 0.997756 -0.066953 0.000000
outer loop
vertex 0.007660 0.002324 0.000000
vertex 0.007797 0.004373 0.150000
vertex 0.007660 0.002324 0.150000
endloop
endfacet
facet normal -0.021593 0.999767 0.000000
outer loop
vertex 0.005027 0.007539 0.150000
vertex 0.005027 0.007539 0.000000
vertex 0.004801 0.007534 0.000000
endloop
endfacet
facet normal -0.021593 0.999767 0.000000
outer loop
vertex 0.005027 0.007539 0.150000
vertex 0.004801 0.007534 0.000000
vertex 0.004801 0.007534 0.150000
endloop
endfacet
facet normal 0.539546 -0.841956 0.000000
outer loop
vertex 0.006683 0.000531 0.150000
vertex 0.006683 0.000531 0.000000
vertex 0.006780 0.000594 0.000000
endloop
endfacet
facet normal 0.539553 -0.841952 0.000000
outer loop
vertex 0.006683 0.000531 0.150000
vertex 0.006780 0.000594 0.000000
vertex 0.006780 0.000594 0.150000
endloop
endfacet
facet normal 0.000000 0.000000 -1.000000
outer loop
vertex 0.003395 0.007252 0.000000
vertex 0.003338 0.007227 0.000000
vertex 0.003229 0.007181 0.000000
endloop
endfacet
facet normal -0.430474 0.902603 0.000000
outer loop
vertex 0.003229 0.007181 0.000000
vertex 0.003176 0.007156 0.000000
vertex 0.003176 0.007156 0.150000
endloop
endfacet
facet normal -0.430471 0.902604 0.000000
outer loop
vertex 0.003229 0.007181 0.000000
vertex 0.003176 0.007156 0.150000
vertex 0.003229 0.007181 0.150000
endloop
endfacet
facet normal 0.000000 0.000000 -1.000000
outer loop
vertex 0.003456 0.007282 0.000000
vertex 0.003395 0.007252 0.000000
vertex 0.003229 0.007181 0.000000
endloop
endfacet
facet normal -0.347516 0.937674 0.000000
outer loop
vertex 0.003597 0.007341 0.150000
vertex 0.003597 0.007341 0.000000
vertex 0.003522 0.007314 0.000000
endloop
endfacet
facet normal 0.000000 0.000000 -1.000000
outer loop
vertex 0.003522 0.007314 0.000000
vertex 0.003456 0.007282 0.000000
vertex 0.003229 0.007181 0.000000
endloop
endfacet
facet normal -0.385193 0.922836 0.000000
outer loop
vertex 0.003229 0.007181 0.000000
vertex 0.003229 0.007181 0.150000
vertex 0.003338 0.007227 0.150000
endloop
endfacet
facet normal -0.401898 0.915685 0.000014
outer loop
vertex 0.003229 0.007181 0.000000
vertex 0.003338 0.007227 0.150000
vertex 0.003395 0.007252 0.150000
endloop
endfacet
facet normal -0.411434 0.911439 0.000036
outer loop
vertex 0.003597 0.007341 0.150000
vertex 0.003522 0.007314 0.000000
vertex 0.003229 0.007181 0.000000
endloop
endfacet
facet normal -0.347516 0.937674 -0.000148
outer loop
vertex 0.003522 0.007314 0.150000
vertex 0.003597 0.007341 0.150000
vertex 0.003229 0.007181 0.000000
endloop
endfacet
facet normal -0.446884 0.894592 0.000074
outer loop
vertex 0.003229 0.007181 0.000000
vertex 0.003395 0.007252 0.150000
vertex 0.003456 0.007282 0.150000
endloop
endfacet
facet normal -0.428000 0.903779 0.000039
outer loop
vertex 0.003229 0.007181 0.000000
vertex 0.003456 0.007282 0.150000
vertex 0.003522 0.007314 0.150000
endloop
endfacet
facet normal -0.538938 -0.842345 0.000000
outer loop
vertex 0.002349 0.000373 0.000000
vertex 0.002431 0.000321 0.000000
vertex 0.002431 0.000321 0.150000
endloop
endfacet
facet normal -0.538938 -0.842345 0.000000
outer loop
vertex 0.002349 0.000373 0.000000
vertex 0.002431 0.000321 0.150000
vertex 0.002349 0.000373 0.150000
endloop
endfacet
facet normal -0.617499 -0.786572 0.000000
outer loop
vertex 0.002040 0.000616 0.000000
vertex 0.002349 0.000373 0.000000
vertex 0.002349 0.000373 0.150000
endloop
endfacet
facet normal -0.617499 -0.786572 0.000000
outer loop
vertex 0.002040 0.000616 0.000000
vertex 0.002349 0.000373 0.150000
vertex 0.002040 0.000616 0.150000
endloop
endfacet
facet normal -0.555250 -0.831683 0.000000
outer loop
vertex 0.001744 0.000813 0.000000
vertex 0.002040 0.000616 0.000000
vertex 0.002040 0.000616 0.150000
endloop
endfacet
facet normal -0.555251 -0.831683 0.000000
outer loop
vertex 0.001744 0.000813 0.000000
vertex 0.002040 0.000616 0.150000
vertex 0.001744 0.000813 0.150000
endloop
endfacet
facet normal -0.646315 -0.763071 0.000000
outer loop
vertex 0.000437 0.001798 0.150000
vertex 0.000437 0.001798 0.000000
vertex 0.000614 0.001648 0.000000
endloop
endfacet
facet normal -0.593958 -0.804496 0.000000
outer loop
vertex 0.000614 0.001648 0.000000
vertex 0.001744 0.000813 0.000000
vertex 0.001744 0.000813 0.150000
endloop
endfacet
facet normal -0.646315 -0.763071 0.000000
outer loop
vertex 0.000614 0.001648 0.150000
vertex 0.000437 0.001798 0.150000
vertex 0.000614 0.001648 0.000000
endloop
endfacet
facet normal -0.593958 -0.804496 0.000000
outer loop
vertex 0.001744 0.000813 0.150000
vertex 0.000614 0.001648 0.150000
vertex 0.000614 0.001648 0.000000
endloop
endfacet
facet normal -0.982663 -0.185400 0.000000
outer loop
vertex 0.000018 0.002477 0.150000
vertex 0.000018 0.002477 0.000000
vertex 0.000044 0.002337 0.000000
endloop
endfacet
facet normal -0.982663 -0.185400 0.000000
outer loop
vertex 0.000018 0.002477 0.150000
vertex 0.000044 0.002337 0.000000
vertex 0.000044 0.002337 0.150000
endloop
endfacet
facet normal 0.947356 0.320182 0.000000
outer loop
vertex 0.007722 0.005166 0.150000
vertex 0.007722 0.005166 0.000000
vertex 0.007662 0.005343 0.000000
endloop
endfacet
facet normal 0.947359 0.320174 0.000000
outer loop
vertex 0.007722 0.005166 0.150000
vertex 0.007662 0.005343 0.000000
vertex 0.007662 0.005343 0.150000
endloop
endfacet
facet normal -0.789784 -0.613385 0.000000
outer loop
vertex 0.000139 0.002136 0.150000
vertex 0.000139 0.002136 0.000000
vertex 0.000275 0.001961 0.000000
endloop
endfacet
facet normal -0.789784 -0.613385 0.000000
outer loop
vertex 0.000139 0.002136 0.150000
vertex 0.000275 0.001961 0.000000
vertex 0.000275 0.001961 0.150000
endloop
endfacet
facet normal 0.417155 0.908835 0.000000
outer loop
vertex 0.006045 0.007182 0.000000
vertex 0.005511 0.007427 0.000000
vertex 0.005511 0.007427 0.150000
endloop
endfacet
facet normal 0.417155 0.908835 0.000000
outer loop
vertex 0.006045 0.007182 0.000000
vertex 0.005511 0.007427 0.150000
vertex 0.006045 0.007182 0.150000
endloop
endfacet
facet normal 0.117537 -0.993069 0.000000
outer loop
vertex 0.004755 0.000004 0.150000
vertex 0.004755 0.000004 0.000000
vertex 0.005076 0.000042 0.000000
endloop
endfacet
facet normal 0.117536 -0.993069 0.000000
outer loop
vertex 0.004755 0.000004 0.150000
vertex 0.005076 0.000042 0.000000
vertex 0.005076 0.000042 0.150000
endloop
endfacet
facet normal -0.003681 -0.999993 0.000000
outer loop
vertex 0.004425 0.000005 0.000000
vertex 0.004755 0.000004 0.000000
vertex 0.004755 0.000004 0.150000
endloop
endfacet
facet normal -0.003681 -0.999993 0.000000
outer loop
vertex 0.004425 0.000005 0.000000
vertex 0.004755 0.000004 0.150000
vertex 0.004425 0.000005 0.150000
endloop
endfacet
facet normal -0.242770 -0.970084 0.000000
outer loop
vertex 0.002639 0.000228 0.150000
vertex 0.002639 0.000228 0.000000
vertex 0.002941 0.000152 0.000000
endloop
endfacet
facet normal -0.242770 -0.970084 0.000000
outer loop
vertex 0.002639 0.000228 0.150000
vertex 0.002941 0.000152 0.000000
vertex 0.002941 0.000152 0.150000
endloop
endfacet
facet normal -0.256819 0.966460 0.000000
outer loop
vertex 0.003766 0.007386 0.000000
vertex 0.003597 0.007341 0.000000
vertex 0.003597 0.007341 0.150000
endloop
endfacet
facet normal -0.256817 0.966460 0.000000
outer loop
vertex 0.003766 0.007386 0.000000
vertex 0.003597 0.007341 0.150000
vertex 0.003766 0.007386 0.150000
endloop
endfacet
facet normal -0.937414 -0.348217 0.000000
outer loop
vertex 0.000044 0.002337 0.150000
vertex 0.000044 0.002337 0.000000
vertex 0.000085 0.002227 0.000000
endloop
endfacet
facet normal -0.937414 -0.348217 0.000000
outer loop
vertex 0.000044 0.002337 0.150000
vertex 0.000085 0.002227 0.000000
vertex 0.000085 0.002227 0.150000
endloop
endfacet
facet normal 0.975585 0.219621 0.000000
outer loop
vertex 0.007763 0.004983 0.150000
vertex 0.007763 0.004983 0.000000
vertex 0.007722 0.005166 0.000000
endloop
endfacet
facet normal 0.975587 0.219613 0.000000
outer loop
vertex 0.007763 0.004983 0.150000
vertex 0.007722 0.005166 0.000000
vertex 0.007722 0.005166 0.150000
endloop
endfacet
facet normal 0.197764 0.980250 0.000000
outer loop
vertex 0.005323 0.007490 0.000000
vertex 0.005129 0.007529 0.000000
vertex 0.005129 0.007529 0.150000
endloop
endfacet
facet normal 0.197763 0.980250 0.000000
outer loop
vertex 0.005323 0.007490 0.000000
vertex 0.005129 0.007529 0.150000
vertex 0.005323 0.007490 0.150000
endloop
endfacet
facet normal 0.957063 -0.289880 0.000000
outer loop
vertex 0.007505 0.001609 0.000000
vertex 0.007593 0.001902 0.000000
vertex 0.007593 0.001902 0.150000
endloop
endfacet
facet normal 0.957064 -0.289875 0.000000
outer loop
vertex 0.007505 0.001609 0.000000
vertex 0.007593 0.001902 0.150000
vertex 0.007505 0.001609 0.150000
endloop
endfacet
facet normal -0.569166 0.822223 0.000000
outer loop
vertex 0.003121 0.007125 0.150000
vertex 0.003121 0.007125 0.000000
vertex 0.003065 0.007086 0.000000
endloop
endfacet
facet normal -0.569166 0.822223 0.000000
outer loop
vertex 0.003121 0.007125 0.150000
vertex 0.003065 0.007086 0.000000
vertex 0.003065 0.007086 0.150000
endloop
endfacet
facet normal -0.994449 0.105218 0.000000
outer loop
vertex 0.000107 0.003976 0.000000
vertex 0.000005 0.003009 0.000000
vertex 0.000005 0.003009 0.150000
endloop
endfacet
facet normal -0.994449 0.105218 0.000000
outer loop
vertex 0.000107 0.003976 0.000000
vertex 0.000005 0.003009 0.150000
vertex 0.000107 0.003976 0.150000
endloop
endfacet
facet normal -0.996301 -0.085929 0.000000
outer loop
vertex 0.000004 0.002641 0.150000
vertex 0.000004 0.002641 0.000000
vertex 0.000018 0.002477 0.000000
endloop
endfacet
facet normal -0.996301 -0.085929 0.000000
outer loop
vertex 0.000004 0.002641 0.150000
vertex 0.000018 0.002477 0.000000
vertex 0.000018 0.002477 0.150000
endloop
endfacet
facet normal 0.000000 0.000000 -1.000000
outer loop
vertex 0.002324 0.006015 0.000000
vertex 0.002276 0.005937 0.000000
vertex 0.002221 0.005857 0.000000
endloop
endfacet
facet normal -0.826979 0.562232 0.000000
outer loop
vertex 0.002221 0.005857 0.000000
vertex 0.002221 0.005857 0.150000
vertex 0.002276 0.005937 0.150000
endloop
endfacet
facet normal -0.848926 0.528511 0.000026
outer loop
vertex 0.002221 0.005857 0.000000
vertex 0.002276 0.005937 0.150000
vertex 0.002324 0.006015 0.150000
endloop
endfacet
facet normal 0.000000 0.000000 -1.000000
outer loop
vertex 0.002565 0.006442 0.000000
vertex 0.002324 0.006015 0.000000
vertex 0.002221 0.005857 0.000000
endloop
endfacet
facet normal -0.820581 0.571531 0.000000
outer loop
vertex 0.002796 0.006795 0.150000
vertex 0.002796 0.006795 0.000000
vertex 0.002713 0.006675 0.000000
endloop
endfacet
facet normal -0.861950 0.506993 0.000058
outer loop
vertex 0.002565 0.006442 0.000000
vertex 0.002221 0.005857 0.000000
vertex 0.002324 0.006015 0.150000
endloop
endfacet
facet normal -0.845282 0.534320 0.000043
outer loop
vertex 0.002796 0.006795 0.150000
vertex 0.002713 0.006675 0.000000
vertex 0.002565 0.006442 0.000000
endloop
endfacet
facet normal -0.820581 0.571531 -0.000082
outer loop
vertex 0.002713 0.006675 0.150000
vertex 0.002796 0.006795 0.150000
vertex 0.002565 0.006442 0.000000
endloop
endfacet
facet normal -0.870747 0.491731 0.000000
outer loop
vertex 0.002565 0.006442 0.000000
vertex 0.002324 0.006015 0.150000
vertex 0.002565 0.006442 0.150000
endloop
endfacet
facet normal -0.845283 0.534319 0.000000
outer loop
vertex 0.002565 0.006442 0.150000
vertex 0.002713 0.006675 0.150000
vertex 0.002565 0.006442 0.000000
endloop
endfacet
facet normal 0.860720 0.509078 0.000000
outer loop
vertex 0.007580 0.005519 0.150000
vertex 0.007580 0.005519 0.000000
vertex 0.007475 0.005696 0.000000
endloop
endfacet
facet normal 0.860723 0.509073 0.000000
outer loop
vertex 0.007580 0.005519 0.150000
vertex 0.007475 0.005696 0.000000
vertex 0.007475 0.005696 0.150000
endloop
endfacet
facet normal 0.644110 0.764933 0.000000
outer loop
vertex 0.006299 0.007013 0.000000
vertex 0.006299 0.007013 0.150000
vertex 0.006564 0.006789 0.150000
endloop
endfacet
facet normal 0.644109 0.764934 0.000000
outer loop
vertex 0.006299 0.007013 0.000000
vertex 0.006564 0.006789 0.150000
vertex 0.006564 0.006789 0.000000
endloop
endfacet
facet normal -0.775364 0.631515 0.000000
outer loop
vertex 0.002221 0.005857 0.000000
vertex 0.001992 0.005575 0.000000
vertex 0.001992 0.005575 0.150000
endloop
endfacet
facet normal -0.775365 0.631514 0.000000
outer loop
vertex 0.002221 0.005857 0.000000
vertex 0.001992 0.005575 0.150000
vertex 0.002221 0.005857 0.150000
endloop
endfacet
facet normal 0.088736 0.996055 0.000000
outer loop
vertex 0.005129 0.007529 0.150000
vertex 0.005129 0.007529 0.000000
vertex 0.005027 0.007539 0.000000
endloop
endfacet
facet normal 0.088737 0.996055 0.000000
outer loop
vertex 0.005129 0.007529 0.150000
vertex 0.005027 0.007539 0.000000
vertex 0.005027 0.007539 0.150000
endloop
endfacet
facet normal 0.555362 0.831608 0.000000
outer loop
vertex 0.006299 0.007013 0.000000
vertex 0.006045 0.007182 0.000000
vertex 0.006045 0.007182 0.150000
endloop
endfacet
facet normal 0.555362 0.831608 0.000000
outer loop
vertex 0.006299 0.007013 0.000000
vertex 0.006045 0.007182 0.150000
vertex 0.006299 0.007013 0.150000
endloop
endfacet
facet normal 0.282070 -0.959394 0.000000
outer loop
vertex 0.006581 0.000484 0.000000
vertex 0.006581 0.000484 0.150000
vertex 0.005076 0.000042 0.150000
endloop
endfacet
facet normal 0.282070 -0.959394 0.000000
outer loop
vertex 0.006581 0.000484 0.000000
vertex 0.005076 0.000042 0.150000
vertex 0.005076 0.000042 0.000000
endloop
endfacet
facet normal 0.991777 0.127977 0.000000
outer loop
vertex 0.007787 0.004793 0.150000
vertex 0.007787 0.004793 0.000000
vertex 0.007763 0.004983 0.000000
endloop
endfacet
facet normal 0.991776 0.127985 0.000000
outer loop
vertex 0.007787 0.004793 0.150000
vertex 0.007763 0.004983 0.000000
vertex 0.007763 0.004983 0.150000
endloop
endfacet
facet normal -0.708863 -0.705346 0.000000
outer loop
vertex 0.000275 0.001961 0.150000
vertex 0.000275 0.001961 0.000000
vertex 0.000437 0.001798 0.000000
endloop
endfacet
facet normal -0.708863 -0.705346 0.000000
outer loop
vertex 0.000275 0.001961 0.150000
vertex 0.000437 0.001798 0.000000
vertex 0.000437 0.001798 0.150000
endloop
endfacet
facet normal 0.318670 0.947866 0.000000
outer loop
vertex 0.005511 0.007427 0.150000
vertex 0.005511 0.007427 0.000000
vertex 0.005323 0.007490 0.000000
endloop
endfacet
facet normal 0.318670 0.947866 0.000000
outer loop
vertex 0.005511 0.007427 0.150000
vertex 0.005323 0.007490 0.000000
vertex 0.005323 0.007490 0.150000
endloop
endfacet
facet normal 0.745994 -0.665953 0.000000
outer loop
vertex 0.006876 0.000676 0.150000
vertex 0.006876 0.000676 0.000000
vertex 0.006971 0.000783 0.000000
endloop
endfacet
facet normal 0.745994 -0.665953 0.000000
outer loop
vertex 0.006876 0.000676 0.150000
vertex 0.006971 0.000783 0.000000
vertex 0.006971 0.000783 0.150000
endloop
endfacet
facet normal 0.987915 -0.154997 0.000000
outer loop
vertex 0.007593 0.001902 0.000000
vertex 0.007660 0.002324 0.000000
vertex 0.007660 0.002324 0.150000
endloop
endfacet
facet normal 0.987914 -0.155004 0.000000
outer loop
vertex 0.007593 0.001902 0.000000
vertex 0.007660 0.002324 0.150000
vertex 0.007593 0.001902 0.150000
endloop
endfacet
facet normal 0.999728 0.023331 0.000000
outer loop
vertex 0.007797 0.004373 0.000000
vertex 0.007787 0.004793 0.000000
vertex 0.007787 0.004793 0.150000
endloop
endfacet
facet normal 0.999728 0.023331 0.000000
outer loop
vertex 0.007797 0.004373 0.000000
vertex 0.007787 0.004793 0.150000
vertex 0.007797 0.004373 0.150000
endloop
endfacet
facet normal 0.000000 0.000000 -1.000000
outer loop
vertex 0.007068 0.000918 0.000000
vertex 0.007161 0.001057 0.000000
vertex 0.007322 0.001284 0.000000
endloop
endfacet
facet normal 0.867007 -0.498297 0.000000
outer loop
vertex 0.007390 0.001387 0.000000
vertex 0.007451 0.001493 0.000000
vertex 0.007451 0.001493 0.150000
endloop
endfacet
facet normal 0.833526 -0.552480 0.000052
outer loop
vertex 0.007322 0.001284 0.000000
vertex 0.007390 0.001387 0.000000
vertex 0.007451 0.001493 0.150000
endloop
endfacet
facet normal 0.867007 -0.498297 -0.000052
outer loop
vertex 0.007322 0.001284 0.000000
vertex 0.007451 0.001493 0.150000
vertex 0.007390 0.001387 0.150000
endloop
endfacet
facet normal 0.813766 -0.581193 0.000000
outer loop
vertex 0.006971 0.000783 0.150000
vertex 0.006971 0.000783 0.000000
vertex 0.007068 0.000918 0.000000
endloop
endfacet
facet normal 0.821496 -0.570214 0.000018
outer loop
vertex 0.007068 0.000918 0.000000
vertex 0.007322 0.001284 0.000000
vertex 0.007390 0.001387 0.150000
endloop
endfacet
facet normal 0.833521 -0.552488 -0.000064
outer loop
vertex 0.007068 0.000918 0.000000
vertex 0.007390 0.001387 0.150000
vertex 0.007322 0.001284 0.150000
endloop
endfacet
facet normal 0.813770 -0.581187 0.000000
outer loop
vertex 0.007068 0.000918 0.150000
vertex 0.006971 0.000783 0.150000
vertex 0.007068 0.000918 0.000000
endloop
endfacet
facet normal 0.816306 -0.577619 0.000027
outer loop
vertex 0.007068 0.000918 0.000000
vertex 0.007322 0.001284 0.150000
vertex 0.007161 0.001057 0.150000
endloop
endfacet
facet normal 0.829969 -0.557809 0.000000
outer loop
vertex 0.007161 0.001057 0.150000
vertex 0.007068 0.000918 0.150000
vertex 0.007068 0.000918 0.000000
endloop
endfacet
facet normal 0.692991 0.720946 0.000000
outer loop
vertex 0.006699 0.006660 0.000000
vertex 0.006564 0.006789 0.000000
vertex 0.006564 0.006789 0.150000
endloop
endfacet
facet normal 0.692995 0.720942 0.000000
outer loop
vertex 0.006699 0.006660 0.000000
vertex 0.006564 0.006789 0.150000
vertex 0.006699 0.006660 0.150000
endloop
endfacet
facet normal 0.756386 0.654126 0.000000
outer loop
vertex 0.007100 0.006212 0.150000
vertex 0.007100 0.006212 0.000000
vertex 0.006834 0.006519 0.000000
endloop
endfacet
facet normal 0.720381 0.693578 0.000000
outer loop
vertex 0.006834 0.006519 0.000000
vertex 0.006699 0.006660 0.000000
vertex 0.006699 0.006660 0.150000
endloop
endfacet
facet normal 0.756386 0.654126 0.000000
outer loop
vertex 0.006834 0.006519 0.150000
vertex 0.007100 0.006212 0.150000
vertex 0.006834 0.006519 0.000000
endloop
endfacet
facet normal 0.720381 0.693578 0.000000
outer loop
vertex 0.006699 0.006660 0.150000
vertex 0.006834 0.006519 0.150000
vertex 0.006834 0.006519 0.000000
endloop
endfacet
facet normal -0.774727 0.632296 0.000000
outer loop
vertex 0.002941 0.006973 0.000000
vertex 0.002796 0.006795 0.000000
vertex 0.002796 0.006795 0.150000
endloop
endfacet
facet normal -0.774727 0.632296 0.000000
outer loop
vertex 0.002941 0.006973 0.000000
vertex 0.002796 0.006795 0.150000
vertex 0.002941 0.006973 0.150000
endloop
endfacet
endsolid Exported from Blender-3.6.8
