solid Exported from Blender-3.6.8
facet normal -0.818134 -0.575028 0.000000
outer loop
vertex 0.000208 0.004956 0.150000
vertex 0.000208 0.004956 0.000000
vertex 0.000331 0.004782 0.000000
endloop
endfacet
facet normal -0.818134 -0.575028 0.000000
outer loop
vertex 0.000208 0.004956 0.150000
vertex 0.000331 0.004782 0.000000
vertex 0.000331 0.004782 0.150000
endloop
endfacet
facet normal -0.706758 -0.707456 0.000000
outer loop
vertex 0.001001 0.004112 0.000000
vertex 0.001001 0.004112 0.150000
vertex 0.000331 0.004782 0.150000
endloop
endfacet
facet normal -0.706758 -0.707456 0.000000
outer loop
vertex 0.001001 0.004112 0.000000
vertex 0.000331 0.004782 0.150000
vertex 0.000331 0.004782 0.000000
endloop
endfacet
facet normal 0.234410 0.972138 0.000000
outer loop
vertex 0.002304 0.007800 0.150000
vertex 0.002304 0.007800 0.000000
vertex 0.002184 0.007828 0.000000
endloop
endfacet
facet normal 0.234410 0.972138 0.000000
outer loop
vertex 0.002304 0.007800 0.150000
vertex 0.002184 0.007828 0.000000
vertex 0.002184 0.007828 0.150000
endloop
endfacet
facet normal 0.844831 0.535033 0.000000
outer loop
vertex 0.003678 0.006278 0.150000
vertex 0.003678 0.006278 0.000000
vertex 0.003496 0.006566 0.000000
endloop
endfacet
facet normal 0.844830 0.535035 0.000000
outer loop
vertex 0.003678 0.006278 0.150000
vertex 0.003496 0.006566 0.000000
vertex 0.003496 0.006566 0.150000
endloop
endfacet
facet normal 0.121427 0.992600 0.000000
outer loop
vertex 0.002184 0.007828 0.150000
vertex 0.002184 0.007828 0.000000
vertex 0.002017 0.007849 0.000000
endloop
endfacet
facet normal 0.121427 0.992600 0.000000
outer loop
vertex 0.002184 0.007828 0.150000
vertex 0.002017 0.007849 0.000000
vertex 0.002017 0.007849 0.150000
endloop
endfacet
facet normal -0.026303 -0.999654 0.000000
outer loop
vertex 0.003176 0.000003 0.150000
vertex 0.003176 0.000003 0.000000
vertex 0.003245 0.000001 0.000000
endloop
endfacet
facet normal -0.026303 -0.999654 0.000000
outer loop
vertex 0.003176 0.000003 0.150000
vertex 0.003245 0.000001 0.000000
vertex 0.003245 0.000001 0.150000
endloop
endfacet
facet normal 0.000000 0.000000 -1.000000
outer loop
vertex 0.001001 0.004112 0.000000
vertex 0.000331 0.004782 0.000000
vertex 0.000208 0.004956 0.000000
endloop
endfacet
facet normal 0.000000 0.000000 -1.000000
outer loop
vertex 0.000208 0.004956 0.000000
vertex 0.000167 0.005041 0.000000
vertex 0.000109 0.005222 0.000000
endloop
endfacet
facet normal 0.000000 0.000000 -1.000000
outer loop
vertex 0.000109 0.005222 0.000000
vertex 0.000065 0.005432 0.000000
vertex 0.000014 0.005905 0.000000
endloop
endfacet
facet normal 0.000000 0.000000 -1.000000
outer loop
vertex 0.000014 0.005905 0.000000
vertex 0.000007 0.006030 0.000000
vertex 0.000003 0.006156 0.000000
endloop
endfacet
facet normal 0.000000 0.000000 -1.000000
outer loop
vertex 0.000003 0.006156 0.000000
vertex 0.000001 0.006282 0.000000
vertex 0.000000 0.006407 0.000000
endloop
endfacet
facet normal 0.000000 0.000000 -1.000000
outer loop
vertex 0.000000 0.006407 0.000000
vertex 0.000003 0.006532 0.000000
vertex 0.000012 0.006658 0.000000
endloop
endfacet
facet normal 0.000000 0.000000 -1.000000
outer loop
vertex 0.000000 0.006407 0.000000
vertex 0.000012 0.006658 0.000000
vertex 0.000163 0.007575 0.000000
endloop
endfacet
facet normal 0.000000 0.000000 -1.000000
outer loop
vertex 0.000014 0.005905 0.000000
vertex 0.000003 0.006156 0.000000
vertex 0.000000 0.006407 0.000000
endloop
endfacet
facet normal 0.000000 0.000000 -1.000000
outer loop
vertex 0.000208 0.004956 0.000000
vertex 0.000109 0.005222 0.000000
vertex 0.000014 0.005905 0.000000
endloop
endfacet
facet normal 0.000000 0.000000 -1.000000
outer loop
vertex 0.001001 0.004112 0.000000
vertex 0.000208 0.004956 0.000000
vertex 0.000014 0.005905 0.000000
endloop
endfacet
facet normal 0.000000 0.000000 -1.000000
outer loop
vertex 0.000014 0.005905 0.000000
vertex 0.000000 0.006407 0.000000
vertex 0.000163 0.007575 0.000000
endloop
endfacet
facet normal 0.000000 0.000000 -1.000000
outer loop
vertex 0.000166 0.007630 0.000000
vertex 0.000151 0.007840 0.000000
vertex 0.002017 0.007849 0.000000
endloop
endfacet
facet normal 0.000000 0.000000 -1.000000
outer loop
vertex 0.001001 0.004112 0.000000
vertex 0.000014 0.005905 0.000000
vertex 0.000163 0.007575 0.000000
endloop
endfacet
facet normal 0.000000 0.000000 -1.000000
outer loop
vertex 0.000163 0.007575 0.000000
vertex 0.000166 0.007630 0.000000
vertex 0.002017 0.007849 0.000000
endloop
endfacet
facet normal 0.000000 0.000000 -1.000000
outer loop
vertex 0.002017 0.007849 0.000000
vertex 0.002184 0.007828 0.000000
vertex 0.002304 0.007800 0.000000
endloop
endfacet
facet normal 0.000000 0.000000 -1.000000
outer loop
vertex 0.002304 0.007800 0.000000
vertex 0.002393 0.007762 0.000000
vertex 0.002478 0.007716 0.000000
endloop
endfacet
facet normal 0.000000 0.000000 -1.000000
outer loop
vertex 0.002478 0.007716 0.000000
vertex 0.002641 0.007596 0.000000
vertex 0.002803 0.007438 0.000000
endloop
endfacet
facet normal 0.000000 0.000000 -1.000000
outer loop
vertex 0.002803 0.007438 0.000000
vertex 0.002887 0.007344 0.000000
vertex 0.002975 0.007240 0.000000
endloop
endfacet
facet normal 0.000000 0.000000 -1.000000
outer loop
vertex 0.002975 0.007240 0.000000
vertex 0.003067 0.007125 0.000000
vertex 0.003165 0.007000 0.000000
endloop
endfacet
facet normal 0.000000 0.000000 -1.000000
outer loop
vertex 0.003165 0.007000 0.000000
vertex 0.003385 0.006716 0.000000
vertex 0.003496 0.006566 0.000000
endloop
endfacet
facet normal 0.000000 0.000000 -1.000000
outer loop
vertex 0.003496 0.006566 0.000000
vertex 0.003678 0.006278 0.000000
vertex 0.003821 0.005992 0.000000
endloop
endfacet
facet normal 0.000000 0.000000 -1.000000
outer loop
vertex 0.003821 0.005992 0.000000
vertex 0.003884 0.005843 0.000000
vertex 0.003944 0.005688 0.000000
endloop
endfacet
facet normal 0.000000 0.000000 -1.000000
outer loop
vertex 0.003944 0.005688 0.000000
vertex 0.004353 0.004500 0.000000
vertex 0.004444 0.004136 0.000000
endloop
endfacet
facet normal 0.000000 0.000000 -1.000000
outer loop
vertex 0.004444 0.004136 0.000000
vertex 0.004478 0.003838 0.000000
vertex 0.004480 0.003701 0.000000
endloop
endfacet
facet normal 0.000000 0.000000 -1.000000
outer loop
vertex 0.004449 0.002905 0.000000
vertex 0.004466 0.002102 0.000000
vertex 0.004460 0.001806 0.000000
endloop
endfacet
facet normal 0.000000 0.000000 -1.000000
outer loop
vertex 0.004444 0.004136 0.000000
vertex 0.004480 0.003701 0.000000
vertex 0.004449 0.002905 0.000000
endloop
endfacet
facet normal 0.000000 0.000000 -1.000000
outer loop
vertex 0.003821 0.005992 0.000000
vertex 0.003944 0.005688 0.000000
vertex 0.004444 0.004136 0.000000
endloop
endfacet
facet normal 0.000000 0.000000 -1.000000
outer loop
vertex 0.003165 0.007000 0.000000
vertex 0.003496 0.006566 0.000000
vertex 0.003821 0.005992 0.000000
endloop
endfacet
facet normal 0.000000 0.000000 -1.000000
outer loop
vertex 0.002803 0.007438 0.000000
vertex 0.002975 0.007240 0.000000
vertex 0.003165 0.007000 0.000000
endloop
endfacet
facet normal 0.000000 0.000000 -1.000000
outer loop
vertex 0.002304 0.007800 0.000000
vertex 0.002478 0.007716 0.000000
vertex 0.002803 0.007438 0.000000
endloop
endfacet
facet normal 0.000000 0.000000 -1.000000
outer loop
vertex 0.000163 0.007575 0.000000
vertex 0.002017 0.007849 0.000000
vertex 0.002304 0.007800 0.000000
endloop
endfacet
facet normal 0.000000 0.000000 -1.000000
outer loop
vertex 0.001065 0.004043 0.000000
vertex 0.001001 0.004112 0.000000
vertex 0.000163 0.007575 0.000000
endloop
endfacet
facet normal 0.000000 0.000000 -1.000000
outer loop
vertex 0.001123 0.003976 0.000000
vertex 0.001065 0.004043 0.000000
vertex 0.000163 0.007575 0.000000
endloop
endfacet
facet normal 0.000000 0.000000 -1.000000
outer loop
vertex 0.000163 0.007575 0.000000
vertex 0.002304 0.007800 0.000000
vertex 0.002803 0.007438 0.000000
endloop
endfacet
facet normal 0.000000 0.000000 -1.000000
outer loop
vertex 0.002803 0.007438 0.000000
vertex 0.003165 0.007000 0.000000
vertex 0.003821 0.005992 0.000000
endloop
endfacet
facet normal 0.000000 0.000000 -1.000000
outer loop
vertex 0.003821 0.005992 0.000000
vertex 0.004444 0.004136 0.000000
vertex 0.004449 0.002905 0.000000
endloop
endfacet
facet normal 0.000000 0.000000 -1.000000
outer loop
vertex 0.004449 0.002905 0.000000
vertex 0.004460 0.001806 0.000000
vertex 0.004453 0.001673 0.000000
endloop
endfacet
facet normal 0.000000 0.000000 -1.000000
outer loop
vertex 0.004453 0.001673 0.000000
vertex 0.004443 0.001543 0.000000
vertex 0.004431 0.001412 0.000000
endloop
endfacet
facet normal 0.000000 0.000000 -1.000000
outer loop
vertex 0.004431 0.001412 0.000000
vertex 0.004416 0.001275 0.000000
vertex 0.004398 0.001127 0.000000
endloop
endfacet
facet normal 0.000000 0.000000 -1.000000
outer loop
vertex 0.004398 0.001127 0.000000
vertex 0.004377 0.000965 0.000000
vertex 0.004353 0.000782 0.000000
endloop
endfacet
facet normal 0.000000 0.000000 -1.000000
outer loop
vertex 0.004353 0.000782 0.000000
vertex 0.004319 0.000607 0.000000
vertex 0.004268 0.000464 0.000000
endloop
endfacet
facet normal 0.000000 0.000000 -1.000000
outer loop
vertex 0.004268 0.000464 0.000000
vertex 0.004201 0.000350 0.000000
vertex 0.004123 0.000262 0.000000
endloop
endfacet
facet normal 0.000000 0.000000 -1.000000
outer loop
vertex 0.004123 0.000262 0.000000
vertex 0.004034 0.000196 0.000000
vertex 0.003938 0.000147 0.000000
endloop
endfacet
facet normal 0.000000 0.000000 -1.000000
outer loop
vertex 0.003938 0.000147 0.000000
vertex 0.003836 0.000112 0.000000
vertex 0.003245 0.000001 0.000000
endloop
endfacet
facet normal 0.000000 0.000000 -1.000000
outer loop
vertex 0.003245 0.000001 0.000000
vertex 0.003176 0.000003 0.000000
vertex 0.003119 0.000023 0.000000
endloop
endfacet
facet normal 0.000000 0.000000 -1.000000
outer loop
vertex 0.003119 0.000023 0.000000
vertex 0.003070 0.000059 0.000000
vertex 0.003027 0.000113 0.000000
endloop
endfacet
facet normal 0.000000 0.000000 -1.000000
outer loop
vertex 0.003119 0.000023 0.000000
vertex 0.003027 0.000113 0.000000
vertex 0.001492 0.003458 0.000000
endloop
endfacet
facet normal 0.000000 0.000000 -1.000000
outer loop
vertex 0.003938 0.000147 0.000000
vertex 0.003245 0.000001 0.000000
vertex 0.003119 0.000023 0.000000
endloop
endfacet
facet normal 0.000000 0.000000 -1.000000
outer loop
vertex 0.004268 0.000464 0.000000
vertex 0.004123 0.000262 0.000000
vertex 0.003938 0.000147 0.000000
endloop
endfacet
facet normal 0.000000 0.000000 -1.000000
outer loop
vertex 0.004398 0.001127 0.000000
vertex 0.004353 0.000782 0.000000
vertex 0.004268 0.000464 0.000000
endloop
endfacet
facet normal 0.000000 0.000000 -1.000000
outer loop
vertex 0.004453 0.001673 0.000000
vertex 0.004431 0.001412 0.000000
vertex 0.004398 0.001127 0.000000
endloop
endfacet
facet normal 0.000000 0.000000 -1.000000
outer loop
vertex 0.003821 0.005992 0.000000
vertex 0.004449 0.002905 0.000000
vertex 0.004453 0.001673 0.000000
endloop
endfacet
facet normal 0.000000 0.000000 -1.000000
outer loop
vertex 0.000163 0.007575 0.000000
vertex 0.002803 0.007438 0.000000
vertex 0.003821 0.005992 0.000000
endloop
endfacet
facet normal 0.000000 0.000000 -1.000000
outer loop
vertex 0.001180 0.003907 0.000000
vertex 0.001123 0.003976 0.000000
vertex 0.000163 0.007575 0.000000
endloop
endfacet
facet normal 0.000000 0.000000 -1.000000
outer loop
vertex 0.001238 0.003834 0.000000
vertex 0.001180 0.003907 0.000000
vertex 0.000163 0.007575 0.000000
endloop
endfacet
facet normal 0.000000 0.000000 -1.000000
outer loop
vertex 0.000163 0.007575 0.000000
vertex 0.003821 0.005992 0.000000
vertex 0.004453 0.001673 0.000000
endloop
endfacet
facet normal 0.000000 0.000000 -1.000000
outer loop
vertex 0.004453 0.001673 0.000000
vertex 0.004398 0.001127 0.000000
vertex 0.004268 0.000464 0.000000
endloop
endfacet
facet normal 0.000000 0.000000 -1.000000
outer loop
vertex 0.004268 0.000464 0.000000
vertex 0.003938 0.000147 0.000000
vertex 0.003119 0.000023 0.000000
endloop
endfacet
facet normal 0.000000 0.000000 -1.000000
outer loop
vertex 0.004268 0.000464 0.000000
vertex 0.003119 0.000023 0.000000
vertex 0.001492 0.003458 0.000000
endloop
endfacet
facet normal 0.000000 0.000000 -1.000000
outer loop
vertex 0.000163 0.007575 0.000000
vertex 0.004453 0.001673 0.000000
vertex 0.004268 0.000464 0.000000
endloop
endfacet
facet normal 0.000000 0.000000 -1.000000
outer loop
vertex 0.001297 0.003755 0.000000
vertex 0.001238 0.003834 0.000000
vertex 0.000163 0.007575 0.000000
endloop
endfacet
facet normal 0.000000 0.000000 -1.000000
outer loop
vertex 0.001358 0.003667 0.000000
vertex 0.001297 0.003755 0.000000
vertex 0.000163 0.007575 0.000000
endloop
endfacet
facet normal 0.000000 0.000000 -1.000000
outer loop
vertex 0.000163 0.007575 0.000000
vertex 0.004268 0.000464 0.000000
vertex 0.001492 0.003458 0.000000
endloop
endfacet
facet normal 0.000000 0.000000 -1.000000
outer loop
vertex 0.001423 0.003569 0.000000
vertex 0.001358 0.003667 0.000000
vertex 0.000163 0.007575 0.000000
endloop
endfacet
facet normal 0.000000 0.000000 -1.000000
outer loop
vertex 0.001492 0.003458 0.000000
vertex 0.001423 0.003569 0.000000
vertex 0.000163 0.007575 0.000000
endloop
endfacet
facet normal -0.994270 -0.106901 0.000000
outer loop
vertex 0.000014 0.005905 0.000000
vertex 0.000065 0.005432 0.000000
vertex 0.000065 0.005432 0.150000
endloop
endfacet
facet normal -0.994270 -0.106901 0.000000
outer loop
vertex 0.000014 0.005905 0.000000
vertex 0.000065 0.005432 0.150000
vertex 0.000014 0.005905 0.150000
endloop
endfacet
facet normal 0.478473 0.878102 0.000000
outer loop
vertex 0.002478 0.007716 0.150000
vertex 0.002478 0.007716 0.000000
vertex 0.002393 0.007762 0.000000
endloop
endfacet
facet normal 0.478471 0.878103 0.000000
outer loop
vertex 0.002478 0.007716 0.150000
vertex 0.002393 0.007762 0.000000
vertex 0.002393 0.007762 0.150000
endloop
endfacet
facet normal 0.940994 -0.338424 0.000000
outer loop
vertex 0.004268 0.000464 0.150000
vertex 0.004268 0.000464 0.000000
vertex 0.004319 0.000607 0.000000
endloop
endfacet
facet normal 0.940992 -0.338428 0.000000
outer loop
vertex 0.004268 0.000464 0.150000
vertex 0.004319 0.000607 0.000000
vertex 0.004319 0.000607 0.150000
endloop
endfacet
facet normal -0.998217 0.059691 0.000000
outer loop
vertex 0.000166 0.007630 0.150000
vertex 0.000166 0.007630 0.000000
vertex 0.000163 0.007575 0.000000
endloop
endfacet
facet normal -0.998217 0.059691 0.000000
outer loop
vertex 0.000166 0.007630 0.150000
vertex 0.000163 0.007575 0.000000
vertex 0.000163 0.007575 0.150000
endloop
endfacet
facet normal -0.784361 -0.620304 0.000000
outer loop
vertex 0.003027 0.000113 0.150000
vertex 0.003027 0.000113 0.000000
vertex 0.003070 0.000059 0.000000
endloop
endfacet
facet normal -0.784361 -0.620304 0.000000
outer loop
vertex 0.003027 0.000113 0.150000
vertex 0.003070 0.000059 0.000000
vertex 0.003070 0.000059 0.150000
endloop
endfacet
facet normal 0.592565 0.805523 0.000000
outer loop
vertex 0.002641 0.007596 0.150000
vertex 0.002641 0.007596 0.000000
vertex 0.002478 0.007716 0.000000
endloop
endfacet
facet normal 0.592566 0.805522 0.000000
outer loop
vertex 0.002641 0.007596 0.150000
vertex 0.002478 0.007716 0.000000
vertex 0.002478 0.007716 0.150000
endloop
endfacet
facet normal -0.802091 -0.597202 0.000000
outer loop
vertex 0.001238 0.003834 0.000000
vertex 0.001297 0.003755 0.000000
vertex 0.001297 0.003755 0.150000
endloop
endfacet
facet normal -0.802090 -0.597204 0.000000
outer loop
vertex 0.001238 0.003834 0.000000
vertex 0.001297 0.003755 0.150000
vertex 0.001238 0.003834 0.150000
endloop
endfacet
facet normal -0.785017 -0.619474 0.000000
outer loop
vertex 0.001180 0.003907 0.000000
vertex 0.001238 0.003834 0.000000
vertex 0.001238 0.003834 0.150000
endloop
endfacet
facet normal -0.785017 -0.619474 0.000000
outer loop
vertex 0.001180 0.003907 0.000000
vertex 0.001238 0.003834 0.150000
vertex 0.001180 0.003907 0.150000
endloop
endfacet
facet normal -0.769483 -0.638667 0.000000
outer loop
vertex 0.001123 0.003976 0.000000
vertex 0.001180 0.003907 0.000000
vertex 0.001180 0.003907 0.150000
endloop
endfacet
facet normal -0.769484 -0.638666 0.000000
outer loop
vertex 0.001123 0.003976 0.000000
vertex 0.001180 0.003907 0.150000
vertex 0.001123 0.003976 0.150000
endloop
endfacet
facet normal -0.733786 -0.679381 0.000000
outer loop
vertex 0.001001 0.004112 0.150000
vertex 0.001001 0.004112 0.000000
vertex 0.001065 0.004043 0.000000
endloop
endfacet
facet normal -0.757181 -0.653205 0.000000
outer loop
vertex 0.001065 0.004043 0.000000
vertex 0.001123 0.003976 0.000000
vertex 0.001123 0.003976 0.150000
endloop
endfacet
facet normal -0.733785 -0.679382 0.000000
outer loop
vertex 0.001065 0.004043 0.150000
vertex 0.001001 0.004112 0.150000
vertex 0.001065 0.004043 0.000000
endloop
endfacet
facet normal -0.757182 -0.653204 0.000000
outer loop
vertex 0.001123 0.003976 0.150000
vertex 0.001065 0.004043 0.150000
vertex 0.001065 0.004043 0.000000
endloop
endfacet
facet normal 0.000000 0.000000 1.000000
outer loop
vertex 0.004123 0.000262 0.150000
vertex 0.004201 0.000350 0.150000
vertex 0.004268 0.000464 0.150000
endloop
endfacet
facet normal 0.000000 0.000000 1.000000
outer loop
vertex 0.004268 0.000464 0.150000
vertex 0.004319 0.000607 0.150000
vertex 0.004353 0.000782 0.150000
endloop
endfacet
facet normal 0.096853 0.000000 0.995299
outer loop
vertex 0.004353 0.000782 0.150000
vertex 0.004377 0.000965 0.150000
vertex 0.004398 0.001127 0.150000
endloop
endfacet
facet normal -0.016597 0.000000 0.999862
outer loop
vertex 0.004398 0.001127 0.150000
vertex 0.004416 0.001275 0.150000
vertex 0.004431 0.001412 0.150000
endloop
endfacet
facet normal 0.010406 0.000000 0.999946
outer loop
vertex 0.004431 0.001412 0.150000
vertex 0.004443 0.001543 0.150000
vertex 0.004453 0.001673 0.150000
endloop
endfacet
facet normal 0.000000 0.000000 1.000000
outer loop
vertex 0.004453 0.001673 0.150000
vertex 0.004460 0.001806 0.150000
vertex 0.004466 0.002102 0.150000
endloop
endfacet
facet normal 0.003053 0.000000 0.999995
outer loop
vertex 0.004449 0.002905 0.150000
vertex 0.004480 0.003701 0.150000
vertex 0.004478 0.003838 0.150000
endloop
endfacet
facet normal 0.000000 0.000000 1.000000
outer loop
vertex 0.004453 0.001673 0.150000
vertex 0.004466 0.002102 0.150000
vertex 0.004449 0.002905 0.150000
endloop
endfacet
facet normal -0.003060 0.000000 0.999995
outer loop
vertex 0.004398 0.001127 0.150000
vertex 0.004431 0.001412 0.150000
vertex 0.004453 0.001673 0.150000
endloop
endfacet
facet normal 0.000000 0.000000 1.000000
outer loop
vertex 0.004268 0.000464 0.150000
vertex 0.004353 0.000782 0.150000
vertex 0.004398 0.001127 0.150000
endloop
endfacet
facet normal -0.000441 0.000000 1.000000
outer loop
vertex 0.004034 0.000196 0.150000
vertex 0.004123 0.000262 0.150000
vertex 0.004268 0.000464 0.150000
endloop
endfacet
facet normal 0.000562 0.000000 1.000000
outer loop
vertex 0.003836 0.000112 0.150000
vertex 0.003938 0.000147 0.150000
vertex 0.004034 0.000196 0.150000
endloop
endfacet
facet normal 0.000418 0.000000 1.000000
outer loop
vertex 0.003176 0.000003 0.150000
vertex 0.003245 0.000001 0.150000
vertex 0.003836 0.000112 0.150000
endloop
endfacet
facet normal -0.000390 0.000000 1.000000
outer loop
vertex 0.003070 0.000059 0.150000
vertex 0.003119 0.000023 0.150000
vertex 0.003176 0.000003 0.150000
endloop
endfacet
facet normal 0.000914 0.000000 1.000000
outer loop
vertex 0.001492 0.003458 0.150000
vertex 0.003027 0.000113 0.150000
vertex 0.003070 0.000059 0.150000
endloop
endfacet
facet normal -0.000387 0.000000 1.000000
outer loop
vertex 0.001492 0.003458 0.150000
vertex 0.003070 0.000059 0.150000
vertex 0.003176 0.000003 0.150000
endloop
endfacet
facet normal -0.000164 0.000000 1.000000
outer loop
vertex 0.003176 0.000003 0.150000
vertex 0.003836 0.000112 0.150000
vertex 0.004034 0.000196 0.150000
endloop
endfacet
facet normal 0.000121 0.000000 1.000000
outer loop
vertex 0.004034 0.000196 0.150000
vertex 0.004268 0.000464 0.150000
vertex 0.004398 0.001127 0.150000
endloop
endfacet
facet normal 0.000410 0.000000 1.000000
outer loop
vertex 0.004398 0.001127 0.150000
vertex 0.004453 0.001673 0.150000
vertex 0.004449 0.002905 0.150000
endloop
endfacet
facet normal 0.000000 0.000000 1.000000
outer loop
vertex 0.004449 0.002905 0.150000
vertex 0.004478 0.003838 0.150000
vertex 0.004444 0.004136 0.150000
endloop
endfacet
facet normal 0.000000 0.000000 1.000000
outer loop
vertex 0.004444 0.004136 0.150000
vertex 0.004353 0.004500 0.150000
vertex 0.003944 0.005688 0.150000
endloop
endfacet
facet normal -0.004206 0.000000 0.999991
outer loop
vertex 0.003944 0.005688 0.150000
vertex 0.003884 0.005843 0.150000
vertex 0.003821 0.005992 0.150000
endloop
endfacet
facet normal 0.000664 0.000000 1.000000
outer loop
vertex 0.003821 0.005992 0.150000
vertex 0.003678 0.006278 0.150000
vertex 0.003496 0.006566 0.150000
endloop
endfacet
facet normal 0.010166 0.000000 0.999948
outer loop
vertex 0.003496 0.006566 0.150000
vertex 0.003385 0.006716 0.150000
vertex 0.003165 0.007000 0.150000
endloop
endfacet
facet normal 0.000000 0.000000 1.000000
outer loop
vertex 0.003165 0.007000 0.150000
vertex 0.003067 0.007125 0.150000
vertex 0.002975 0.007240 0.150000
endloop
endfacet
facet normal 0.003456 0.000000 0.999994
outer loop
vertex 0.002975 0.007240 0.150000
vertex 0.002887 0.007344 0.150000
vertex 0.002803 0.007438 0.150000
endloop
endfacet
facet normal -0.000576 0.000000 1.000000
outer loop
vertex 0.002803 0.007438 0.150000
vertex 0.002641 0.007596 0.150000
vertex 0.002478 0.007716 0.150000
endloop
endfacet
facet normal 0.000000 0.000000 1.000000
outer loop
vertex 0.002478 0.007716 0.150000
vertex 0.002393 0.007762 0.150000
vertex 0.002304 0.007800 0.150000
endloop
endfacet
facet normal -0.000192 0.000000 1.000000
outer loop
vertex 0.002304 0.007800 0.150000
vertex 0.002184 0.007828 0.150000
vertex 0.002017 0.007849 0.150000
endloop
endfacet
facet normal -0.000019 0.000000 1.000000
outer loop
vertex 0.002017 0.007849 0.150000
vertex 0.000151 0.007840 0.150000
vertex 0.000166 0.007630 0.150000
endloop
endfacet
facet normal 0.000000 0.000000 1.000000
outer loop
vertex 0.000163 0.007575 0.150000
vertex 0.000012 0.006658 0.150000
vertex 0.000003 0.006532 0.150000
endloop
endfacet
facet normal 0.000072 0.000000 1.000000
outer loop
vertex 0.002017 0.007849 0.150000
vertex 0.000166 0.007630 0.150000
vertex 0.000163 0.007575 0.150000
endloop
endfacet
facet normal 0.000000 0.000000 1.000000
outer loop
vertex 0.002478 0.007716 0.150000
vertex 0.002304 0.007800 0.150000
vertex 0.002017 0.007849 0.150000
endloop
endfacet
facet normal 0.000434 0.000000 1.000000
outer loop
vertex 0.002975 0.007240 0.150000
vertex 0.002803 0.007438 0.150000
vertex 0.002478 0.007716 0.150000
endloop
endfacet
facet normal -0.002240 0.000000 0.999997
outer loop
vertex 0.003496 0.006566 0.150000
vertex 0.003165 0.007000 0.150000
vertex 0.002975 0.007240 0.150000
endloop
endfacet
facet normal -0.000507 0.000000 1.000000
outer loop
vertex 0.003944 0.005688 0.150000
vertex 0.003821 0.005992 0.150000
vertex 0.003496 0.006566 0.150000
endloop
endfacet
facet normal 0.000000 0.000000 1.000000
outer loop
vertex 0.004449 0.002905 0.150000
vertex 0.004444 0.004136 0.150000
vertex 0.003944 0.005688 0.150000
endloop
endfacet
facet normal 0.000000 0.000000 1.000000
outer loop
vertex 0.004034 0.000196 0.150000
vertex 0.004398 0.001127 0.150000
vertex 0.004449 0.002905 0.150000
endloop
endfacet
facet normal 0.000014 0.000000 1.000000
outer loop
vertex 0.001492 0.003458 0.150000
vertex 0.003176 0.000003 0.150000
vertex 0.004034 0.000196 0.150000
endloop
endfacet
facet normal 0.000000 0.000000 1.000000
outer loop
vertex 0.001423 0.003569 0.150000
vertex 0.001492 0.003458 0.150000
vertex 0.004034 0.000196 0.150000
endloop
endfacet
facet normal -0.000023 0.000000 1.000000
outer loop
vertex 0.004034 0.000196 0.150000
vertex 0.004449 0.002905 0.150000
vertex 0.003944 0.005688 0.150000
endloop
endfacet
facet normal 0.000000 0.000000 1.000000
outer loop
vertex 0.003944 0.005688 0.150000
vertex 0.003496 0.006566 0.150000
vertex 0.002975 0.007240 0.150000
endloop
endfacet
facet normal -0.000024 0.000000 1.000000
outer loop
vertex 0.002975 0.007240 0.150000
vertex 0.002478 0.007716 0.150000
vertex 0.002017 0.007849 0.150000
endloop
endfacet
facet normal 0.000000 0.000000 1.000000
outer loop
vertex 0.002017 0.007849 0.150000
vertex 0.000163 0.007575 0.150000
vertex 0.000003 0.006532 0.150000
endloop
endfacet
facet normal 0.007216 0.000000 0.999974
outer loop
vertex 0.000003 0.006532 0.150000
vertex 0.000000 0.006407 0.150000
vertex 0.000001 0.006282 0.150000
endloop
endfacet
facet normal 0.015394 0.000000 0.999881
outer loop
vertex 0.000001 0.006282 0.150000
vertex 0.000003 0.006156 0.150000
vertex 0.000007 0.006030 0.150000
endloop
endfacet
facet normal 0.000000 0.000000 1.000000
outer loop
vertex 0.000007 0.006030 0.150000
vertex 0.000014 0.005905 0.150000
vertex 0.000065 0.005432 0.150000
endloop
endfacet
facet normal 0.000000 0.000000 1.000000
outer loop
vertex 0.000065 0.005432 0.150000
vertex 0.000109 0.005222 0.150000
vertex 0.000167 0.005041 0.150000
endloop
endfacet
facet normal 0.000000 0.000000 1.000000
outer loop
vertex 0.000167 0.005041 0.150000
vertex 0.000208 0.004956 0.150000
vertex 0.000331 0.004782 0.150000
endloop
endfacet
facet normal 0.000000 0.000000 1.000000
outer loop
vertex 0.000167 0.005041 0.150000
vertex 0.000331 0.004782 0.150000
vertex 0.001001 0.004112 0.150000
endloop
endfacet
facet normal 0.000000 0.000000 1.000000
outer loop
vertex 0.000007 0.006030 0.150000
vertex 0.000065 0.005432 0.150000
vertex 0.000167 0.005041 0.150000
endloop
endfacet
facet normal -0.003155 0.000000 0.999995
outer loop
vertex 0.000003 0.006532 0.150000
vertex 0.000001 0.006282 0.150000
vertex 0.000007 0.006030 0.150000
endloop
endfacet
facet normal 0.000000 0.000000 1.000000
outer loop
vertex 0.002975 0.007240 0.150000
vertex 0.002017 0.007849 0.150000
vertex 0.000003 0.006532 0.150000
endloop
endfacet
facet normal 0.000017 0.000000 1.000000
outer loop
vertex 0.004034 0.000196 0.150000
vertex 0.003944 0.005688 0.150000
vertex 0.002975 0.007240 0.150000
endloop
endfacet
facet normal 0.000000 0.000000 1.000000
outer loop
vertex 0.001358 0.003667 0.150000
vertex 0.001423 0.003569 0.150000
vertex 0.004034 0.000196 0.150000
endloop
endfacet
facet normal 0.000000 0.000000 1.000000
outer loop
vertex 0.001297 0.003755 0.150000
vertex 0.001358 0.003667 0.150000
vertex 0.004034 0.000196 0.150000
endloop
endfacet
facet normal -0.000001 0.000000 1.000000
outer loop
vertex 0.004034 0.000196 0.150000
vertex 0.002975 0.007240 0.150000
vertex 0.000003 0.006532 0.150000
endloop
endfacet
facet normal 0.000000 0.000000 1.000000
outer loop
vertex 0.000003 0.006532 0.150000
vertex 0.000007 0.006030 0.150000
vertex 0.000167 0.005041 0.150000
endloop
endfacet
facet normal 0.000000 0.000000 1.000000
outer loop
vertex 0.000167 0.005041 0.150000
vertex 0.001001 0.004112 0.150000
vertex 0.001065 0.004043 0.150000
endloop
endfacet
facet normal -0.000025 0.000000 1.000000
outer loop
vertex 0.000003 0.006532 0.150000
vertex 0.000167 0.005041 0.150000
vertex 0.001065 0.004043 0.150000
endloop
endfacet
facet normal 0.000000 0.000000 1.000000
outer loop
vertex 0.001297 0.003755 0.150000
vertex 0.004034 0.000196 0.150000
vertex 0.000003 0.006532 0.150000
endloop
endfacet
facet normal 0.000000 0.000000 1.000000
outer loop
vertex 0.001238 0.003834 0.150000
vertex 0.001297 0.003755 0.150000
vertex 0.000003 0.006532 0.150000
endloop
endfacet
facet normal 0.000501 0.000000 1.000000
outer loop
vertex 0.000003 0.006532 0.150000
vertex 0.001065 0.004043 0.150000
vertex 0.001123 0.003976 0.150000
endloop
endfacet
facet normal 0.000000 0.000000 1.000000
outer loop
vertex 0.001180 0.003907 0.150000
vertex 0.001238 0.003834 0.150000
vertex 0.000003 0.006532 0.150000
endloop
endfacet
facet normal -0.000500 0.000000 1.000000
outer loop
vertex 0.000003 0.006532 0.150000
vertex 0.001123 0.003976 0.150000
vertex 0.001180 0.003907 0.150000
endloop
endfacet
facet normal 0.450823 -0.892614 0.000000
outer loop
vertex 0.003938 0.000147 0.150000
vertex 0.003938 0.000147 0.000000
vertex 0.004034 0.000196 0.000000
endloop
endfacet
facet normal 0.450817 -0.892617 0.000000
outer loop
vertex 0.003938 0.000147 0.150000
vertex 0.004034 0.000196 0.000000
vertex 0.004034 0.000196 0.150000
endloop
endfacet
facet normal -0.004511 0.999990 0.000000
outer loop
vertex 0.002017 0.007849 0.000000
vertex 0.000151 0.007840 0.000000
vertex 0.000151 0.007840 0.150000
endloop
endfacet
facet normal -0.004511 0.999990 0.000000
outer loop
vertex 0.002017 0.007849 0.000000
vertex 0.000151 0.007840 0.150000
vertex 0.002017 0.007849 0.150000
endloop
endfacet
facet normal 0.970138 0.242553 0.000000
outer loop
vertex 0.004353 0.004500 0.000000
vertex 0.004353 0.004500 0.150000
vertex 0.004444 0.004136 0.150000
endloop
endfacet
facet normal 0.970138 0.242553 0.000000
outer loop
vertex 0.004353 0.004500 0.000000
vertex 0.004444 0.004136 0.150000
vertex 0.004444 0.004136 0.000000
endloop
endfacet
facet normal 0.697840 0.716253 0.000000
outer loop
vertex 0.002803 0.007438 0.150000
vertex 0.002803 0.007438 0.000000
vertex 0.002641 0.007596 0.000000
endloop
endfacet
facet normal 0.697841 0.716253 0.000000
outer loop
vertex 0.002803 0.007438 0.150000
vertex 0.002641 0.007596 0.000000
vertex 0.002641 0.007596 0.150000
endloop
endfacet
facet normal -0.978736 -0.205125 0.000000
outer loop
vertex 0.000065 0.005432 0.150000
vertex 0.000065 0.005432 0.000000
vertex 0.000109 0.005222 0.000000
endloop
endfacet
facet normal -0.978736 -0.205126 0.000000
outer loop
vertex 0.000065 0.005432 0.150000
vertex 0.000109 0.005222 0.000000
vertex 0.000109 0.005222 0.150000
endloop
endfacet
facet normal 0.184522 -0.982828 0.000000
outer loop
vertex 0.003836 0.000112 0.000000
vertex 0.003836 0.000112 0.150000
vertex 0.003245 0.000001 0.150000
endloop
endfacet
facet normal 0.184522 -0.982828 0.000000
outer loop
vertex 0.003836 0.000112 0.000000
vertex 0.003245 0.000001 0.150000
vertex 0.003245 0.000001 0.000000
endloop
endfacet
facet normal 0.921459 0.388476 0.000000
outer loop
vertex 0.003884 0.005843 0.000000
vertex 0.003821 0.005992 0.000000
vertex 0.003821 0.005992 0.150000
endloop
endfacet
facet normal 0.921459 0.388476 0.000000
outer loop
vertex 0.003884 0.005843 0.000000
vertex 0.003821 0.005992 0.150000
vertex 0.003884 0.005843 0.150000
endloop
endfacet
facet normal 0.945539 0.325508 0.000000
outer loop
vertex 0.004353 0.004500 0.150000
vertex 0.004353 0.004500 0.000000
vertex 0.003944 0.005688 0.000000
endloop
endfacet
facet normal 0.933465 0.358669 0.000000
outer loop
vertex 0.003944 0.005688 0.000000
vertex 0.003884 0.005843 0.000000
vertex 0.003884 0.005843 0.150000
endloop
endfacet
facet normal 0.945539 0.325508 0.000000
outer loop
vertex 0.003944 0.005688 0.150000
vertex 0.004353 0.004500 0.150000
vertex 0.003944 0.005688 0.000000
endloop
endfacet
facet normal 0.933466 0.358665 0.000000
outer loop
vertex 0.003884 0.005843 0.150000
vertex 0.003944 0.005688 0.150000
vertex 0.003944 0.005688 0.000000
endloop
endfacet
facet normal -0.601125 -0.799155 0.000000
outer loop
vertex 0.003070 0.000059 0.150000
vertex 0.003070 0.000059 0.000000
vertex 0.003119 0.000023 0.000000
endloop
endfacet
facet normal -0.601125 -0.799155 0.000000
outer loop
vertex 0.003070 0.000059 0.150000
vertex 0.003119 0.000023 0.000000
vertex 0.003119 0.000023 0.150000
endloop
endfacet
facet normal 0.000000 0.000000 1.000000
outer loop
vertex 0.004416 0.001275 0.000000
vertex 0.004431 0.001412 0.000000
vertex 0.004443 0.001543 0.000000
endloop
endfacet
facet normal 0.000000 0.000000 1.000000
outer loop
vertex 0.004443 0.001543 0.000000
vertex 0.004453 0.001673 0.000000
vertex 0.004460 0.001806 0.000000
endloop
endfacet
facet normal 0.998640 -0.052136 0.000000
outer loop
vertex 0.004460 0.001806 0.000000
vertex 0.004460 0.001806 0.150000
vertex 0.004453 0.001673 0.150000
endloop
endfacet
facet normal 0.997199 -0.074795 -0.000020
outer loop
vertex 0.004460 0.001806 0.000000
vertex 0.004453 0.001673 0.150000
vertex 0.004443 0.001543 0.150000
endloop
endfacet
facet normal 0.000000 0.000000 1.000000
outer loop
vertex 0.004416 0.001275 0.000000
vertex 0.004443 0.001543 0.000000
vertex 0.004460 0.001806 0.000000
endloop
endfacet
facet normal 0.000000 0.000000 1.000000
outer loop
vertex 0.004377 0.000965 0.000000
vertex 0.004398 0.001127 0.000000
vertex 0.004416 0.001275 0.000000
endloop
endfacet
facet normal 0.991728 -0.128355 0.000000
outer loop
vertex 0.004353 0.000782 0.150000
vertex 0.004353 0.000782 0.000000
vertex 0.004377 0.000965 0.000000
endloop
endfacet
facet normal 0.991728 -0.128360 0.000000
outer loop
vertex 0.004377 0.000965 0.150000
vertex 0.004353 0.000782 0.150000
vertex 0.004377 0.000965 0.000000
endloop
endfacet
facet normal 0.000000 0.000000 1.000000
outer loop
vertex 0.004377 0.000965 0.000000
vertex 0.004416 0.001275 0.000000
vertex 0.004460 0.001806 0.000000
endloop
endfacet
facet normal 0.995470 -0.095081 -0.000056
outer loop
vertex 0.004460 0.001806 0.000000
vertex 0.004443 0.001543 0.150000
vertex 0.004431 0.001412 0.150000
endloop
endfacet
facet normal 0.993820 -0.111004 -0.000098
outer loop
vertex 0.004460 0.001806 0.000000
vertex 0.004431 0.001412 0.150000
vertex 0.004416 0.001275 0.150000
endloop
endfacet
facet normal 0.995120 -0.098671 0.000000
outer loop
vertex 0.004377 0.000965 0.150000
vertex 0.004377 0.000965 0.000000
vertex 0.004460 0.001806 0.000000
endloop
endfacet
facet normal 0.992575 -0.121634 -0.000136
outer loop
vertex 0.004460 0.001806 0.000000
vertex 0.004416 0.001275 0.150000
vertex 0.004398 0.001127 0.150000
endloop
endfacet
facet normal 0.991887 -0.127123 -0.000161
outer loop
vertex 0.004460 0.001806 0.000000
vertex 0.004398 0.001127 0.150000
vertex 0.004377 0.000965 0.150000
endloop
endfacet
facet normal 0.000000 0.000000 1.000000
outer loop
vertex 0.003067 0.007125 0.000000
vertex 0.002975 0.007240 0.000000
vertex 0.002887 0.007344 0.000000
endloop
endfacet
facet normal 0.745638 0.666351 0.000000
outer loop
vertex 0.002887 0.007344 0.000000
vertex 0.002803 0.007438 0.000000
vertex 0.002803 0.007438 0.150000
endloop
endfacet
facet normal 0.745637 0.666352 0.000000
outer loop
vertex 0.002887 0.007344 0.000000
vertex 0.002803 0.007438 0.150000
vertex 0.002887 0.007344 0.150000
endloop
endfacet
facet normal 0.000000 0.000000 1.000000
outer loop
vertex 0.003165 0.007000 0.000000
vertex 0.003067 0.007125 0.000000
vertex 0.002887 0.007344 0.000000
endloop
endfacet
facet normal 0.000000 0.000000 1.000000
outer loop
vertex 0.003496 0.006566 0.000000
vertex 0.003385 0.006716 0.000000
vertex 0.003165 0.007000 0.000000
endloop
endfacet
facet normal 0.803412 0.595423 0.000000
outer loop
vertex 0.003385 0.006716 0.150000
vertex 0.003496 0.006566 0.150000
vertex 0.003496 0.006566 0.000000
endloop
endfacet
facet normal 0.790518 0.612439 -0.000027
outer loop
vertex 0.003165 0.007000 0.150000
vertex 0.003385 0.006716 0.150000
vertex 0.003496 0.006566 0.000000
endloop
endfacet
facet normal 0.000000 0.000000 1.000000
outer loop
vertex 0.003496 0.006566 0.000000
vertex 0.003165 0.007000 0.000000
vertex 0.002887 0.007344 0.000000
endloop
endfacet
facet normal 0.765756 0.643131 0.000000
outer loop
vertex 0.002887 0.007344 0.000000
vertex 0.002887 0.007344 0.150000
vertex 0.002975 0.007240 0.150000
endloop
endfacet
facet normal 0.786782 0.617232 -0.000049
outer loop
vertex 0.003067 0.007125 0.150000
vertex 0.003165 0.007000 0.150000
vertex 0.003496 0.006566 0.000000
endloop
endfacet
facet normal 0.778970 0.627061 -0.000019
outer loop
vertex 0.002887 0.007344 0.000000
vertex 0.002975 0.007240 0.150000
vertex 0.003067 0.007125 0.150000
endloop
endfacet
facet normal 0.787354 0.616501 -0.000044
outer loop
vertex 0.002887 0.007344 0.000000
vertex 0.003067 0.007125 0.150000
vertex 0.003496 0.006566 0.000000
endloop
endfacet
facet normal -0.997273 -0.073799 0.000000
outer loop
vertex 0.000151 0.007840 0.150000
vertex 0.000151 0.007840 0.000000
vertex 0.000166 0.007630 0.000000
endloop
endfacet
facet normal -0.997273 -0.073799 0.000000
outer loop
vertex 0.000151 0.007840 0.150000
vertex 0.000166 0.007630 0.000000
vertex 0.000166 0.007630 0.150000
endloop
endfacet
facet normal 0.999824 -0.018747 0.000000
outer loop
vertex 0.004466 0.002102 0.150000
vertex 0.004460 0.001806 0.150000
vertex 0.004460 0.001806 0.000000
endloop
endfacet
facet normal 0.999824 -0.018747 0.000000
outer loop
vertex 0.004466 0.002102 0.150000
vertex 0.004460 0.001806 0.000000
vertex 0.004466 0.002102 0.000000
endloop
endfacet
facet normal 0.999780 0.020970 0.000000
outer loop
vertex 0.004449 0.002905 0.150000
vertex 0.004466 0.002102 0.150000
vertex 0.004466 0.002102 0.000000
endloop
endfacet
facet normal 0.999780 0.020969 0.000000
outer loop
vertex 0.004449 0.002905 0.150000
vertex 0.004466 0.002102 0.000000
vertex 0.004449 0.002905 0.000000
endloop
endfacet
facet normal 0.999880 0.015505 0.000000
outer loop
vertex 0.004478 0.003838 0.000000
vertex 0.004478 0.003838 0.150000
vertex 0.004480 0.003701 0.150000
endloop
endfacet
facet normal 0.999243 -0.038891 0.000000
outer loop
vertex 0.004480 0.003701 0.150000
vertex 0.004449 0.002905 0.150000
vertex 0.004449 0.002905 0.000000
endloop
endfacet
facet normal 0.999880 0.015505 0.000000
outer loop
vertex 0.004480 0.003701 0.000000
vertex 0.004478 0.003838 0.000000
vertex 0.004480 0.003701 0.150000
endloop
endfacet
facet normal 0.999243 -0.038892 0.000000
outer loop
vertex 0.004449 0.002905 0.000000
vertex 0.004480 0.003701 0.000000
vertex 0.004480 0.003701 0.150000
endloop
endfacet
facet normal -0.952027 -0.306013 0.000000
outer loop
vertex 0.000109 0.005222 0.150000
vertex 0.000109 0.005222 0.000000
vertex 0.000167 0.005041 0.000000
endloop
endfacet
facet normal -0.952027 -0.306013 0.000000
outer loop
vertex 0.000109 0.005222 0.150000
vertex 0.000167 0.005041 0.000000
vertex 0.000167 0.005041 0.150000
endloop
endfacet
facet normal 0.993586 0.113079 0.000000
outer loop
vertex 0.004478 0.003838 0.150000
vertex 0.004478 0.003838 0.000000
vertex 0.004444 0.004136 0.000000
endloop
endfacet
facet normal 0.993586 0.113081 0.000000
outer loop
vertex 0.004478 0.003838 0.150000
vertex 0.004444 0.004136 0.000000
vertex 0.004444 0.004136 0.150000
endloop
endfacet
facet normal -0.319137 -0.947709 0.000000
outer loop
vertex 0.003119 0.000023 0.150000
vertex 0.003119 0.000023 0.000000
vertex 0.003176 0.000003 0.000000
endloop
endfacet
facet normal -0.319137 -0.947709 0.000000
outer loop
vertex 0.003119 0.000023 0.150000
vertex 0.003176 0.000003 0.000000
vertex 0.003176 0.000003 0.150000
endloop
endfacet
facet normal -0.986764 0.162161 0.000000
outer loop
vertex 0.000163 0.007575 0.000000
vertex 0.000012 0.006658 0.000000
vertex 0.000012 0.006658 0.150000
endloop
endfacet
facet normal -0.986764 0.162161 0.000000
outer loop
vertex 0.000163 0.007575 0.000000
vertex 0.000012 0.006658 0.150000
vertex 0.000163 0.007575 0.150000
endloop
endfacet
facet normal 0.746697 -0.665164 0.000000
outer loop
vertex 0.004123 0.000262 0.150000
vertex 0.004123 0.000262 0.000000
vertex 0.004201 0.000350 0.000000
endloop
endfacet
facet normal 0.746700 -0.665160 0.000000
outer loop
vertex 0.004123 0.000262 0.150000
vertex 0.004201 0.000350 0.000000
vertex 0.004201 0.000350 0.150000
endloop
endfacet
facet normal -0.998705 -0.050879 0.000000
outer loop
vertex 0.000007 0.006030 0.000000
vertex 0.000014 0.005905 0.000000
vertex 0.000014 0.005905 0.150000
endloop
endfacet
facet normal -0.998705 -0.050879 0.000000
outer loop
vertex 0.000007 0.006030 0.000000
vertex 0.000014 0.005905 0.150000
vertex 0.000007 0.006030 0.150000
endloop
endfacet
facet normal -0.999426 -0.033887 0.000000
outer loop
vertex 0.000003 0.006156 0.000000
vertex 0.000007 0.006030 0.000000
vertex 0.000007 0.006030 0.150000
endloop
endfacet
facet normal -0.999426 -0.033887 0.000000
outer loop
vertex 0.000003 0.006156 0.000000
vertex 0.000007 0.006030 0.150000
vertex 0.000003 0.006156 0.150000
endloop
endfacet
facet normal -0.999819 -0.019016 0.000000
outer loop
vertex 0.000001 0.006282 0.000000
vertex 0.000003 0.006156 0.000000
vertex 0.000003 0.006156 0.150000
endloop
endfacet
facet normal -0.999819 -0.019016 0.000000
outer loop
vertex 0.000001 0.006282 0.000000
vertex 0.000003 0.006156 0.150000
vertex 0.000001 0.006282 0.150000
endloop
endfacet
facet normal -0.999982 -0.005978 0.000000
outer loop
vertex 0.000000 0.006407 0.000000
vertex 0.000001 0.006282 0.000000
vertex 0.000001 0.006282 0.150000
endloop
endfacet
facet normal -0.999982 -0.005978 0.000000
outer loop
vertex 0.000000 0.006407 0.000000
vertex 0.000001 0.006282 0.150000
vertex 0.000000 0.006407 0.150000
endloop
endfacet
facet normal -0.997403 0.072028 0.000000
outer loop
vertex 0.000012 0.006658 0.150000
vertex 0.000012 0.006658 0.000000
vertex 0.000003 0.006532 0.000000
endloop
endfacet
facet normal -0.999659 0.026130 0.000000
outer loop
vertex 0.000003 0.006532 0.000000
vertex 0.000000 0.006407 0.000000
vertex 0.000000 0.006407 0.150000
endloop
endfacet
facet normal -0.997403 0.072028 0.000000
outer loop
vertex 0.000003 0.006532 0.150000
vertex 0.000012 0.006658 0.150000
vertex 0.000003 0.006532 0.000000
endloop
endfacet
facet normal -0.999659 0.026130 0.000000
outer loop
vertex 0.000003 0.006532 0.000000
vertex 0.000000 0.006407 0.150000
vertex 0.000003 0.006532 0.150000
endloop
endfacet
facet normal -0.849048 -0.528316 0.000000
outer loop
vertex 0.001423 0.003569 0.000000
vertex 0.001492 0.003458 0.000000
vertex 0.001492 0.003458 0.150000
endloop
endfacet
facet normal -0.849047 -0.528317 0.000000
outer loop
vertex 0.001423 0.003569 0.000000
vertex 0.001492 0.003458 0.150000
vertex 0.001423 0.003569 0.150000
endloop
endfacet
facet normal -0.819125 -0.573616 0.000000
outer loop
vertex 0.001297 0.003755 0.150000
vertex 0.001297 0.003755 0.000000
vertex 0.001358 0.003667 0.000000
endloop
endfacet
facet normal -0.834989 -0.550267 0.000000
outer loop
vertex 0.001358 0.003667 0.000000
vertex 0.001423 0.003569 0.000000
vertex 0.001423 0.003569 0.150000
endloop
endfacet
facet normal -0.819125 -0.573614 0.000000
outer loop
vertex 0.001358 0.003667 0.150000
vertex 0.001297 0.003755 0.150000
vertex 0.001358 0.003667 0.000000
endloop
endfacet
facet normal -0.834990 -0.550265 0.000000
outer loop
vertex 0.001423 0.003569 0.150000
vertex 0.001358 0.003667 0.150000
vertex 0.001358 0.003667 0.000000
endloop
endfacet
facet normal -0.908807 -0.417218 0.000000
outer loop
vertex 0.001492 0.003458 0.000000
vertex 0.003027 0.000113 0.000000
vertex 0.003027 0.000113 0.150000
endloop
endfacet
facet normal -0.908807 -0.417218 0.000000
outer loop
vertex 0.001492 0.003458 0.000000
vertex 0.003027 0.000113 0.150000
vertex 0.001492 0.003458 0.150000
endloop
endfacet
facet normal -0.898829 -0.438300 0.000000
outer loop
vertex 0.000167 0.005041 0.150000
vertex 0.000167 0.005041 0.000000
vertex 0.000208 0.004956 0.000000
endloop
endfacet
facet normal -0.898829 -0.438300 0.000000
outer loop
vertex 0.000167 0.005041 0.150000
vertex 0.000208 0.004956 0.000000
vertex 0.000208 0.004956 0.150000
endloop
endfacet
facet normal 0.600320 -0.799760 0.000000
outer loop
vertex 0.004034 0.000196 0.150000
vertex 0.004034 0.000196 0.000000
vertex 0.004123 0.000262 0.000000
endloop
endfacet
facet normal 0.600320 -0.799760 0.000000
outer loop
vertex 0.004034 0.000196 0.150000
vertex 0.004123 0.000262 0.000000
vertex 0.004123 0.000262 0.150000
endloop
endfacet
facet normal 0.321986 -0.946744 0.000000
outer loop
vertex 0.003836 0.000112 0.150000
vertex 0.003836 0.000112 0.000000
vertex 0.003938 0.000147 0.000000
endloop
endfacet
facet normal 0.321986 -0.946744 0.000000
outer loop
vertex 0.003836 0.000112 0.150000
vertex 0.003938 0.000147 0.000000
vertex 0.003938 0.000147 0.150000
endloop
endfacet
facet normal 0.981519 -0.191365 0.000000
outer loop
vertex 0.004319 0.000607 0.150000
vertex 0.004319 0.000607 0.000000
vertex 0.004353 0.000782 0.000000
endloop
endfacet
facet normal 0.981520 -0.191360 0.000000
outer loop
vertex 0.004319 0.000607 0.150000
vertex 0.004353 0.000782 0.000000
vertex 0.004353 0.000782 0.150000
endloop
endfacet
facet normal 0.894391 0.447286 0.000000
outer loop
vertex 0.003821 0.005992 0.150000
vertex 0.003821 0.005992 0.000000
vertex 0.003678 0.006278 0.000000
endloop
endfacet
facet normal 0.894391 0.447286 0.000000
outer loop
vertex 0.003821 0.005992 0.150000
vertex 0.003678 0.006278 0.000000
vertex 0.003678 0.006278 0.150000
endloop
endfacet
facet normal 0.388661 0.921381 0.000000
outer loop
vertex 0.002393 0.007762 0.150000
vertex 0.002393 0.007762 0.000000
vertex 0.002304 0.007800 0.000000
endloop
endfacet
facet normal 0.388662 0.921380 0.000000
outer loop
vertex 0.002393 0.007762 0.150000
vertex 0.002304 0.007800 0.000000
vertex 0.002304 0.007800 0.150000
endloop
endfacet
facet normal 0.864264 -0.503038 0.000000
outer loop
vertex 0.004201 0.000350 0.150000
vertex 0.004201 0.000350 0.000000
vertex 0.004268 0.000464 0.000000
endloop
endfacet
facet normal 0.864269 -0.503029 0.000000
outer loop
vertex 0.004201 0.000350 0.150000
vertex 0.004268 0.000464 0.000000
vertex 0.004268 0.000464 0.150000
endloop
endfacet
endsolid Exported from Blender-3.6.8
