solid Exported from Blender-3.6.8
facet normal 0.488489 -0.872570 0.000000
outer loop
vertex 0.008016 0.001169 0.000000
vertex 0.008016 0.001169 0.150000
vertex 0.007678 0.000980 0.150000
endloop
endfacet
facet normal 0.488486 -0.872572 0.000000
outer loop
vertex 0.008016 0.001169 0.000000
vertex 0.007678 0.000980 0.150000
vertex 0.007678 0.000980 0.000000
endloop
endfacet
facet normal -0.999995 0.003240 0.000000
outer loop
vertex 0.000010 0.001711 0.150000
vertex 0.000010 0.001711 0.000000
vertex 0.000009 0.001178 0.000000
endloop
endfacet
facet normal -0.999995 0.003240 0.000000
outer loop
vertex 0.000010 0.001711 0.150000
vertex 0.000009 0.001178 0.000000
vertex 0.000009 0.001178 0.150000
endloop
endfacet
facet normal 0.000000 0.000000 1.000000
outer loop
vertex 0.003651 0.000012 0.150000
vertex 0.005876 0.000274 0.150000
vertex 0.006702 0.000486 0.150000
endloop
endfacet
facet normal 0.000000 0.000000 1.000000
outer loop
vertex 0.006702 0.000486 0.150000
vertex 0.006842 0.000531 0.150000
vertex 0.006973 0.000578 0.150000
endloop
endfacet
facet normal 0.000000 0.000000 1.000000
outer loop
vertex 0.006973 0.000578 0.150000
vertex 0.007096 0.000628 0.150000
vertex 0.007212 0.000680 0.150000
endloop
endfacet
facet normal -0.000373 0.000000 1.000000
outer loop
vertex 0.007212 0.000680 0.150000
vertex 0.007419 0.000793 0.150000
vertex 0.007678 0.000980 0.150000
endloop
endfacet
facet normal 0.000000 0.000000 1.000000
outer loop
vertex 0.007678 0.000980 0.150000
vertex 0.008016 0.001169 0.150000
vertex 0.008074 0.001214 0.150000
endloop
endfacet
facet normal 0.000000 0.000000 1.000000
outer loop
vertex 0.008074 0.001214 0.150000
vertex 0.008130 0.001270 0.150000
vertex 0.008183 0.001343 0.150000
endloop
endfacet
facet normal -0.002643 0.000000 0.999997
outer loop
vertex 0.008183 0.001343 0.150000
vertex 0.008236 0.001435 0.150000
vertex 0.008287 0.001552 0.150000
endloop
endfacet
facet normal 0.000773 0.000000 1.000000
outer loop
vertex 0.008183 0.001343 0.150000
vertex 0.008287 0.001552 0.150000
vertex 0.008388 0.001849 0.150000
endloop
endfacet
facet normal -0.000142 0.000000 1.000000
outer loop
vertex 0.007678 0.000980 0.150000
vertex 0.008074 0.001214 0.150000
vertex 0.008183 0.001343 0.150000
endloop
endfacet
facet normal 0.000000 0.000000 1.000000
outer loop
vertex 0.006973 0.000578 0.150000
vertex 0.007212 0.000680 0.150000
vertex 0.007678 0.000980 0.150000
endloop
endfacet
facet normal -0.000023 0.000000 1.000000
outer loop
vertex 0.003651 0.000012 0.150000
vertex 0.006702 0.000486 0.150000
vertex 0.006973 0.000578 0.150000
endloop
endfacet
facet normal 0.000000 0.000000 1.000000
outer loop
vertex 0.003079 0.000002 0.150000
vertex 0.003384 0.000001 0.150000
vertex 0.003651 0.000012 0.150000
endloop
endfacet
facet normal 0.000109 0.000000 1.000000
outer loop
vertex 0.001349 0.000174 0.150000
vertex 0.002747 0.000016 0.150000
vertex 0.003079 0.000002 0.150000
endloop
endfacet
facet normal -0.000266 0.000000 1.000000
outer loop
vertex 0.000513 0.000378 0.150000
vertex 0.000751 0.000304 0.150000
vertex 0.001349 0.000174 0.150000
endloop
endfacet
facet normal -0.000183 0.000000 1.000000
outer loop
vertex 0.000196 0.000570 0.150000
vertex 0.000329 0.000458 0.150000
vertex 0.000513 0.000378 0.150000
endloop
endfacet
facet normal -0.000384 0.000000 1.000000
outer loop
vertex 0.000041 0.000940 0.150000
vertex 0.000102 0.000734 0.150000
vertex 0.000196 0.000570 0.150000
endloop
endfacet
facet normal 0.000000 0.000000 1.000000
outer loop
vertex 0.000010 0.001711 0.150000
vertex 0.000009 0.001178 0.150000
vertex 0.000041 0.000940 0.150000
endloop
endfacet
facet normal 0.002654 0.000000 0.999996
outer loop
vertex 0.000069 0.002253 0.150000
vertex 0.000035 0.001986 0.150000
vertex 0.000010 0.001711 0.150000
endloop
endfacet
facet normal -0.000640 0.000000 1.000000
outer loop
vertex 0.000240 0.003113 0.150000
vertex 0.000199 0.003041 0.150000
vertex 0.000069 0.002253 0.150000
endloop
endfacet
facet normal 0.000000 0.000000 1.000000
outer loop
vertex 0.000353 0.003286 0.150000
vertex 0.000288 0.003190 0.150000
vertex 0.000240 0.003113 0.150000
endloop
endfacet
facet normal 0.003205 0.000000 0.999995
outer loop
vertex 0.000522 0.003499 0.150000
vertex 0.000431 0.003391 0.150000
vertex 0.000353 0.003286 0.150000
endloop
endfacet
facet normal 0.000000 0.000000 1.000000
outer loop
vertex 0.000675 0.003640 0.150000
vertex 0.000622 0.003596 0.150000
vertex 0.000522 0.003499 0.150000
endloop
endfacet
facet normal 0.000755 0.000000 1.000000
outer loop
vertex 0.001186 0.003976 0.150000
vertex 0.000732 0.003682 0.150000
vertex 0.000675 0.003640 0.150000
endloop
endfacet
facet normal -0.000358 0.000000 1.000000
outer loop
vertex 0.001186 0.003976 0.150000
vertex 0.000675 0.003640 0.150000
vertex 0.000522 0.003499 0.150000
endloop
endfacet
facet normal -0.000674 0.000000 1.000000
outer loop
vertex 0.000522 0.003499 0.150000
vertex 0.000353 0.003286 0.150000
vertex 0.000240 0.003113 0.150000
endloop
endfacet
facet normal 0.000000 0.000000 1.000000
outer loop
vertex 0.000240 0.003113 0.150000
vertex 0.000069 0.002253 0.150000
vertex 0.000010 0.001711 0.150000
endloop
endfacet
facet normal 0.000067 0.000000 1.000000
outer loop
vertex 0.000010 0.001711 0.150000
vertex 0.000041 0.000940 0.150000
vertex 0.000196 0.000570 0.150000
endloop
endfacet
facet normal 0.000076 0.000000 1.000000
outer loop
vertex 0.000196 0.000570 0.150000
vertex 0.000513 0.000378 0.150000
vertex 0.001349 0.000174 0.150000
endloop
endfacet
facet normal -0.000010 0.000000 1.000000
outer loop
vertex 0.001349 0.000174 0.150000
vertex 0.003079 0.000002 0.150000
vertex 0.003651 0.000012 0.150000
endloop
endfacet
facet normal 0.000023 0.000000 1.000000
outer loop
vertex 0.003651 0.000012 0.150000
vertex 0.006973 0.000578 0.150000
vertex 0.007678 0.000980 0.150000
endloop
endfacet
facet normal 0.000080 0.000000 1.000000
outer loop
vertex 0.007678 0.000980 0.150000
vertex 0.008183 0.001343 0.150000
vertex 0.008388 0.001849 0.150000
endloop
endfacet
facet normal -0.002504 0.000000 0.999997
outer loop
vertex 0.008439 0.001984 0.150000
vertex 0.008581 0.002331 0.150000
vertex 0.008618 0.002442 0.150000
endloop
endfacet
facet normal 0.000000 0.000000 1.000000
outer loop
vertex 0.007678 0.000980 0.150000
vertex 0.008388 0.001849 0.150000
vertex 0.008439 0.001984 0.150000
endloop
endfacet
facet normal -0.000010 0.000000 1.000000
outer loop
vertex 0.001349 0.000174 0.150000
vertex 0.003651 0.000012 0.150000
vertex 0.007678 0.000980 0.150000
endloop
endfacet
facet normal -0.000029 0.000000 1.000000
outer loop
vertex 0.000010 0.001711 0.150000
vertex 0.000196 0.000570 0.150000
vertex 0.001349 0.000174 0.150000
endloop
endfacet
facet normal 0.000095 0.000000 1.000000
outer loop
vertex 0.000522 0.003499 0.150000
vertex 0.000240 0.003113 0.150000
vertex 0.000010 0.001711 0.150000
endloop
endfacet
facet normal 0.000000 0.000000 1.000000
outer loop
vertex 0.001504 0.004198 0.150000
vertex 0.001186 0.003976 0.150000
vertex 0.000522 0.003499 0.150000
endloop
endfacet
facet normal -0.000042 0.000000 1.000000
outer loop
vertex 0.001504 0.004198 0.150000
vertex 0.000522 0.003499 0.150000
vertex 0.000010 0.001711 0.150000
endloop
endfacet
facet normal 0.000003 0.000000 1.000000
outer loop
vertex 0.000010 0.001711 0.150000
vertex 0.001349 0.000174 0.150000
vertex 0.007678 0.000980 0.150000
endloop
endfacet
facet normal -0.000086 0.000000 1.000000
outer loop
vertex 0.007678 0.000980 0.150000
vertex 0.008439 0.001984 0.150000
vertex 0.008618 0.002442 0.150000
endloop
endfacet
facet normal 0.000000 0.000000 1.000000
outer loop
vertex 0.008618 0.002442 0.150000
vertex 0.008646 0.002556 0.150000
vertex 0.008664 0.002679 0.150000
endloop
endfacet
facet normal -0.001177 0.000000 0.999999
outer loop
vertex 0.008664 0.002679 0.150000
vertex 0.008671 0.002814 0.150000
vertex 0.008640 0.003139 0.150000
endloop
endfacet
facet normal 0.000163 0.000000 1.000000
outer loop
vertex 0.008640 0.003139 0.150000
vertex 0.008353 0.004273 0.150000
vertex 0.008233 0.004593 0.150000
endloop
endfacet
facet normal 0.000000 0.000000 1.000000
outer loop
vertex 0.008233 0.004593 0.150000
vertex 0.008082 0.004892 0.150000
vertex 0.007992 0.005036 0.150000
endloop
endfacet
facet normal 0.001461 0.000000 0.999999
outer loop
vertex 0.007992 0.005036 0.150000
vertex 0.007774 0.005317 0.150000
vertex 0.007651 0.005452 0.150000
endloop
endfacet
facet normal -0.004895 0.000000 0.999988
outer loop
vertex 0.007651 0.005452 0.150000
vertex 0.007529 0.005579 0.150000
vertex 0.007408 0.005700 0.150000
endloop
endfacet
facet normal 0.000000 0.000000 1.000000
outer loop
vertex 0.007408 0.005700 0.150000
vertex 0.007289 0.005813 0.150000
vertex 0.007171 0.005920 0.150000
endloop
endfacet
facet normal -0.003241 0.000000 0.999995
outer loop
vertex 0.007171 0.005920 0.150000
vertex 0.007054 0.006020 0.150000
vertex 0.006939 0.006114 0.150000
endloop
endfacet
facet normal 0.002607 0.000000 0.999997
outer loop
vertex 0.006939 0.006114 0.150000
vertex 0.006826 0.006201 0.150000
vertex 0.006606 0.006360 0.150000
endloop
endfacet
facet normal 0.000000 0.000000 1.000000
outer loop
vertex 0.006606 0.006360 0.150000
vertex 0.006395 0.006497 0.150000
vertex 0.006190 0.006620 0.150000
endloop
endfacet
facet normal 0.000391 0.000000 1.000000
outer loop
vertex 0.006606 0.006360 0.150000
vertex 0.006190 0.006620 0.150000
vertex 0.004750 0.007431 0.150000
endloop
endfacet
facet normal -0.000962 0.000000 1.000000
outer loop
vertex 0.007171 0.005920 0.150000
vertex 0.006939 0.006114 0.150000
vertex 0.006606 0.006360 0.150000
endloop
endfacet
facet normal 0.000000 0.000000 1.000000
outer loop
vertex 0.007651 0.005452 0.150000
vertex 0.007408 0.005700 0.150000
vertex 0.007171 0.005920 0.150000
endloop
endfacet
facet normal -0.000286 0.000000 1.000000
outer loop
vertex 0.008233 0.004593 0.150000
vertex 0.007992 0.005036 0.150000
vertex 0.007651 0.005452 0.150000
endloop
endfacet
facet normal 0.000000 0.000000 1.000000
outer loop
vertex 0.008664 0.002679 0.150000
vertex 0.008640 0.003139 0.150000
vertex 0.008233 0.004593 0.150000
endloop
endfacet
facet normal 0.000188 0.000000 1.000000
outer loop
vertex 0.007678 0.000980 0.150000
vertex 0.008618 0.002442 0.150000
vertex 0.008664 0.002679 0.150000
endloop
endfacet
facet normal 0.000001 0.000000 1.000000
outer loop
vertex 0.001504 0.004198 0.150000
vertex 0.000010 0.001711 0.150000
vertex 0.007678 0.000980 0.150000
endloop
endfacet
facet normal 0.000089 0.000000 1.000000
outer loop
vertex 0.001585 0.004261 0.150000
vertex 0.001504 0.004198 0.150000
vertex 0.007678 0.000980 0.150000
endloop
endfacet
facet normal -0.000022 0.000000 1.000000
outer loop
vertex 0.007678 0.000980 0.150000
vertex 0.008664 0.002679 0.150000
vertex 0.008233 0.004593 0.150000
endloop
endfacet
facet normal 0.000104 0.000000 1.000000
outer loop
vertex 0.008233 0.004593 0.150000
vertex 0.007651 0.005452 0.150000
vertex 0.007171 0.005920 0.150000
endloop
endfacet
facet normal 0.000000 0.000000 1.000000
outer loop
vertex 0.007171 0.005920 0.150000
vertex 0.006606 0.006360 0.150000
vertex 0.004750 0.007431 0.150000
endloop
endfacet
facet normal 0.002415 0.000000 0.999997
outer loop
vertex 0.004582 0.007532 0.150000
vertex 0.003936 0.007961 0.150000
vertex 0.003844 0.008019 0.150000
endloop
endfacet
facet normal -0.000189 0.000000 1.000000
outer loop
vertex 0.007171 0.005920 0.150000
vertex 0.004750 0.007431 0.150000
vertex 0.004582 0.007532 0.150000
endloop
endfacet
facet normal 0.000006 0.000000 1.000000
outer loop
vertex 0.007678 0.000980 0.150000
vertex 0.008233 0.004593 0.150000
vertex 0.007171 0.005920 0.150000
endloop
endfacet
facet normal 0.000000 0.000000 1.000000
outer loop
vertex 0.001648 0.004315 0.150000
vertex 0.001585 0.004261 0.150000
vertex 0.007678 0.000980 0.150000
endloop
endfacet
facet normal -0.000143 0.000000 1.000000
outer loop
vertex 0.001732 0.004404 0.150000
vertex 0.001648 0.004315 0.150000
vertex 0.007678 0.000980 0.150000
endloop
endfacet
facet normal -0.000005 0.000000 1.000000
outer loop
vertex 0.007678 0.000980 0.150000
vertex 0.007171 0.005920 0.150000
vertex 0.004582 0.007532 0.150000
endloop
endfacet
facet normal 0.000000 0.000000 1.000000
outer loop
vertex 0.004582 0.007532 0.150000
vertex 0.003844 0.008019 0.150000
vertex 0.003755 0.008071 0.150000
endloop
endfacet
facet normal 0.001867 0.000000 0.999998
outer loop
vertex 0.003755 0.008071 0.150000
vertex 0.003671 0.008115 0.150000
vertex 0.003593 0.008151 0.150000
endloop
endfacet
facet normal 0.000000 0.000000 1.000000
outer loop
vertex 0.003593 0.008151 0.150000
vertex 0.003522 0.008176 0.150000
vertex 0.003460 0.008189 0.150000
endloop
endfacet
facet normal 0.000551 0.000000 1.000000
outer loop
vertex 0.003460 0.008189 0.150000
vertex 0.003406 0.008189 0.150000
vertex 0.003363 0.008173 0.150000
endloop
endfacet
facet normal 0.000562 0.000000 1.000000
outer loop
vertex 0.003363 0.008173 0.150000
vertex 0.003175 0.008050 0.150000
vertex 0.003067 0.007962 0.150000
endloop
endfacet
facet normal 0.000000 0.000000 1.000000
outer loop
vertex 0.003067 0.007962 0.150000
vertex 0.002963 0.007850 0.150000
vertex 0.002916 0.007783 0.150000
endloop
endfacet
facet normal 0.000000 0.000000 1.000000
outer loop
vertex 0.002916 0.007783 0.150000
vertex 0.002873 0.007709 0.150000
vertex 0.002837 0.007626 0.150000
endloop
endfacet
facet normal 0.003529 0.000000 0.999994
outer loop
vertex 0.002837 0.007626 0.150000
vertex 0.002809 0.007534 0.150000
vertex 0.002766 0.007360 0.150000
endloop
endfacet
facet normal -0.015767 0.000000 0.999876
outer loop
vertex 0.002766 0.007360 0.150000
vertex 0.002734 0.007216 0.150000
vertex 0.002721 0.007151 0.150000
endloop
endfacet
facet normal 0.007309 0.000000 0.999973
outer loop
vertex 0.002721 0.007151 0.150000
vertex 0.002710 0.007086 0.150000
vertex 0.002681 0.006883 0.150000
endloop
endfacet
facet normal -0.001326 0.000000 0.999999
outer loop
vertex 0.002721 0.007151 0.150000
vertex 0.002681 0.006883 0.150000
vertex 0.002618 0.006197 0.150000
endloop
endfacet
facet normal 0.000000 0.000000 1.000000
outer loop
vertex 0.002837 0.007626 0.150000
vertex 0.002766 0.007360 0.150000
vertex 0.002721 0.007151 0.150000
endloop
endfacet
facet normal -0.000369 0.000000 1.000000
outer loop
vertex 0.003067 0.007962 0.150000
vertex 0.002916 0.007783 0.150000
vertex 0.002837 0.007626 0.150000
endloop
endfacet
facet normal 0.000000 0.000000 1.000000
outer loop
vertex 0.003460 0.008189 0.150000
vertex 0.003363 0.008173 0.150000
vertex 0.003067 0.007962 0.150000
endloop
endfacet
facet normal -0.000200 0.000000 1.000000
outer loop
vertex 0.003755 0.008071 0.150000
vertex 0.003593 0.008151 0.150000
vertex 0.003460 0.008189 0.150000
endloop
endfacet
facet normal 0.000035 0.000000 1.000000
outer loop
vertex 0.007678 0.000980 0.150000
vertex 0.004582 0.007532 0.150000
vertex 0.003755 0.008071 0.150000
endloop
endfacet
facet normal 0.000000 0.000000 1.000000
outer loop
vertex 0.001761 0.004444 0.150000
vertex 0.001732 0.004404 0.150000
vertex 0.007678 0.000980 0.150000
endloop
endfacet
facet normal 0.000000 0.000000 1.000000
outer loop
vertex 0.001864 0.004633 0.150000
vertex 0.001832 0.004577 0.150000
vertex 0.001784 0.004485 0.150000
endloop
endfacet
facet normal 0.000000 0.000000 1.000000
outer loop
vertex 0.001784 0.004485 0.150000
vertex 0.001761 0.004444 0.150000
vertex 0.007678 0.000980 0.150000
endloop
endfacet
facet normal -0.000058 0.000000 1.000000
outer loop
vertex 0.007678 0.000980 0.150000
vertex 0.003755 0.008071 0.150000
vertex 0.003460 0.008189 0.150000
endloop
endfacet
facet normal 0.000091 0.000000 1.000000
outer loop
vertex 0.003460 0.008189 0.150000
vertex 0.003067 0.007962 0.150000
vertex 0.002837 0.007626 0.150000
endloop
endfacet
facet normal 0.000000 0.000000 1.000000
outer loop
vertex 0.002837 0.007626 0.150000
vertex 0.002721 0.007151 0.150000
vertex 0.002618 0.006197 0.150000
endloop
endfacet
facet normal 0.002023 0.000000 0.999998
outer loop
vertex 0.002837 0.007626 0.150000
vertex 0.002618 0.006197 0.150000
vertex 0.002610 0.006123 0.150000
endloop
endfacet
facet normal 0.000000 0.000000 1.000000
outer loop
vertex 0.007678 0.000980 0.150000
vertex 0.003460 0.008189 0.150000
vertex 0.002837 0.007626 0.150000
endloop
endfacet
facet normal -0.000101 0.000000 1.000000
outer loop
vertex 0.001864 0.004633 0.150000
vertex 0.001784 0.004485 0.150000
vertex 0.007678 0.000980 0.150000
endloop
endfacet
facet normal 0.000000 0.000000 1.000000
outer loop
vertex 0.001961 0.004780 0.150000
vertex 0.001906 0.004700 0.150000
vertex 0.001864 0.004633 0.150000
endloop
endfacet
facet normal 0.000000 0.000000 1.000000
outer loop
vertex 0.002076 0.004940 0.150000
vertex 0.001961 0.004780 0.150000
vertex 0.001864 0.004633 0.150000
endloop
endfacet
facet normal 0.000000 0.000000 1.000000
outer loop
vertex 0.007678 0.000980 0.150000
vertex 0.002837 0.007626 0.150000
vertex 0.002610 0.006123 0.150000
endloop
endfacet
facet normal 0.000000 0.000000 1.000000
outer loop
vertex 0.007678 0.000980 0.150000
vertex 0.002610 0.006123 0.150000
vertex 0.002598 0.006050 0.150000
endloop
endfacet
facet normal 0.000000 0.000000 1.000000
outer loop
vertex 0.002076 0.004940 0.150000
vertex 0.001864 0.004633 0.150000
vertex 0.007678 0.000980 0.150000
endloop
endfacet
facet normal 0.000000 0.000000 1.000000
outer loop
vertex 0.002126 0.005011 0.150000
vertex 0.002076 0.004940 0.150000
vertex 0.007678 0.000980 0.150000
endloop
endfacet
facet normal 0.000106 0.000000 1.000000
outer loop
vertex 0.007678 0.000980 0.150000
vertex 0.002598 0.006050 0.150000
vertex 0.002584 0.005976 0.150000
endloop
endfacet
facet normal -0.000095 0.000000 1.000000
outer loop
vertex 0.007678 0.000980 0.150000
vertex 0.002584 0.005976 0.150000
vertex 0.002565 0.005901 0.150000
endloop
endfacet
facet normal 0.000000 0.000000 1.000000
outer loop
vertex 0.002172 0.005078 0.150000
vertex 0.002126 0.005011 0.150000
vertex 0.007678 0.000980 0.150000
endloop
endfacet
facet normal 0.000000 0.000000 1.000000
outer loop
vertex 0.002215 0.005143 0.150000
vertex 0.002172 0.005078 0.150000
vertex 0.007678 0.000980 0.150000
endloop
endfacet
facet normal 0.000067 0.000000 1.000000
outer loop
vertex 0.007678 0.000980 0.150000
vertex 0.002565 0.005901 0.150000
vertex 0.002513 0.005739 0.150000
endloop
endfacet
facet normal -0.000035 0.000000 1.000000
outer loop
vertex 0.007678 0.000980 0.150000
vertex 0.002513 0.005739 0.150000
vertex 0.002478 0.005650 0.150000
endloop
endfacet
facet normal 0.000225 0.000000 1.000000
outer loop
vertex 0.002255 0.005207 0.150000
vertex 0.002215 0.005143 0.150000
vertex 0.007678 0.000980 0.150000
endloop
endfacet
facet normal -0.000228 0.000000 1.000000
outer loop
vertex 0.002294 0.005271 0.150000
vertex 0.002255 0.005207 0.150000
vertex 0.007678 0.000980 0.150000
endloop
endfacet
facet normal -0.000036 0.000000 1.000000
outer loop
vertex 0.007678 0.000980 0.150000
vertex 0.002478 0.005650 0.150000
vertex 0.002403 0.005481 0.150000
endloop
endfacet
facet normal 0.000085 0.000000 1.000000
outer loop
vertex 0.007678 0.000980 0.150000
vertex 0.002403 0.005481 0.150000
vertex 0.002367 0.005407 0.150000
endloop
endfacet
facet normal 0.000000 0.000000 1.000000
outer loop
vertex 0.002330 0.005337 0.150000
vertex 0.002294 0.005271 0.150000
vertex 0.007678 0.000980 0.150000
endloop
endfacet
facet normal 0.000000 0.000000 1.000000
outer loop
vertex 0.007678 0.000980 0.150000
vertex 0.002367 0.005407 0.150000
vertex 0.002330 0.005337 0.150000
endloop
endfacet
facet normal 0.610017 -0.792388 0.000000
outer loop
vertex 0.008016 0.001169 0.150000
vertex 0.008016 0.001169 0.000000
vertex 0.008074 0.001214 0.000000
endloop
endfacet
facet normal 0.610027 -0.792380 0.000000
outer loop
vertex 0.008016 0.001169 0.150000
vertex 0.008074 0.001214 0.000000
vertex 0.008074 0.001214 0.150000
endloop
endfacet
facet normal 0.936034 0.351909 0.000000
outer loop
vertex 0.008353 0.004273 0.000000
vertex 0.008233 0.004593 0.000000
vertex 0.008233 0.004593 0.150000
endloop
endfacet
facet normal 0.936036 0.351905 0.000000
outer loop
vertex 0.008353 0.004273 0.000000
vertex 0.008233 0.004593 0.150000
vertex 0.008353 0.004273 0.150000
endloop
endfacet
facet normal 0.415621 0.909538 0.000000
outer loop
vertex 0.003671 0.008115 0.150000
vertex 0.003671 0.008115 0.000000
vertex 0.003593 0.008151 0.000000
endloop
endfacet
facet normal 0.415625 0.909536 0.000000
outer loop
vertex 0.003671 0.008115 0.150000
vertex 0.003593 0.008151 0.000000
vertex 0.003593 0.008151 0.150000
endloop
endfacet
facet normal -0.958923 -0.283668 0.000000
outer loop
vertex 0.000041 0.000940 0.150000
vertex 0.000041 0.000940 0.000000
vertex 0.000102 0.000734 0.000000
endloop
endfacet
facet normal -0.958923 -0.283668 0.000000
outer loop
vertex 0.000041 0.000940 0.150000
vertex 0.000102 0.000734 0.000000
vertex 0.000102 0.000734 0.150000
endloop
endfacet
facet normal 0.669923 0.742431 0.000000
outer loop
vertex 0.007171 0.005920 0.150000
vertex 0.007289 0.005813 0.150000
vertex 0.007289 0.005813 0.000000
endloop
endfacet
facet normal 0.000000 0.000000 1.000000
outer loop
vertex 0.007289 0.005813 0.000000
vertex 0.007171 0.005920 0.000000
vertex 0.007054 0.006020 0.000000
endloop
endfacet
facet normal 0.000000 0.000000 1.000000
outer loop
vertex 0.007054 0.006020 0.000000
vertex 0.006939 0.006114 0.000000
vertex 0.006826 0.006201 0.000000
endloop
endfacet
facet normal 0.613380 0.789788 0.000000
outer loop
vertex 0.006826 0.006201 0.000000
vertex 0.006826 0.006201 0.150000
vertex 0.006939 0.006114 0.150000
endloop
endfacet
facet normal 0.651358 0.758770 -0.000026
outer loop
vertex 0.007054 0.006020 0.150000
vertex 0.007171 0.005920 0.150000
vertex 0.007289 0.005813 0.000000
endloop
endfacet
facet normal 0.632492 0.774567 -0.000023
outer loop
vertex 0.006826 0.006201 0.000000
vertex 0.006939 0.006114 0.150000
vertex 0.007054 0.006020 0.150000
endloop
endfacet
facet normal 0.000000 0.000000 1.000000
outer loop
vertex 0.007289 0.005813 0.000000
vertex 0.007054 0.006020 0.000000
vertex 0.006826 0.006201 0.000000
endloop
endfacet
facet normal 0.642860 0.765984 -0.000049
outer loop
vertex 0.007289 0.005813 0.000000
vertex 0.006826 0.006201 0.000000
vertex 0.007054 0.006020 0.150000
endloop
endfacet
facet normal 0.989219 -0.146447 0.000000
outer loop
vertex 0.008646 0.002556 0.150000
vertex 0.008646 0.002556 0.000000
vertex 0.008664 0.002679 0.000000
endloop
endfacet
facet normal 0.989219 -0.146447 0.000000
outer loop
vertex 0.008646 0.002556 0.150000
vertex 0.008664 0.002679 0.000000
vertex 0.008664 0.002679 0.150000
endloop
endfacet
facet normal -0.815828 0.578295 0.000000
outer loop
vertex 0.002963 0.007850 0.150000
vertex 0.002963 0.007850 0.000000
vertex 0.002916 0.007783 0.000000
endloop
endfacet
facet normal -0.815828 0.578295 0.000000
outer loop
vertex 0.002963 0.007850 0.150000
vertex 0.002916 0.007783 0.000000
vertex 0.002916 0.007783 0.150000
endloop
endfacet
facet normal -0.869786 0.493429 0.000000
outer loop
vertex 0.002916 0.007783 0.150000
vertex 0.002916 0.007783 0.000000
vertex 0.002873 0.007709 0.000000
endloop
endfacet
facet normal -0.869784 0.493432 0.000000
outer loop
vertex 0.002916 0.007783 0.150000
vertex 0.002873 0.007709 0.000000
vertex 0.002873 0.007709 0.150000
endloop
endfacet
facet normal 0.000000 0.000000 1.000000
outer loop
vertex 0.007529 0.005579 0.000000
vertex 0.007408 0.005700 0.000000
vertex 0.007289 0.005813 0.000000
endloop
endfacet
facet normal 0.688107 0.725610 0.000000
outer loop
vertex 0.007289 0.005813 0.000000
vertex 0.007289 0.005813 0.150000
vertex 0.007408 0.005700 0.150000
endloop
endfacet
facet normal 0.705877 0.708334 -0.000027
outer loop
vertex 0.007289 0.005813 0.000000
vertex 0.007408 0.005700 0.150000
vertex 0.007529 0.005579 0.150000
endloop
endfacet
facet normal 0.000000 0.000000 1.000000
outer loop
vertex 0.007651 0.005452 0.000000
vertex 0.007529 0.005579 0.000000
vertex 0.007289 0.005813 0.000000
endloop
endfacet
facet normal 0.739958 0.672653 0.000000
outer loop
vertex 0.007774 0.005317 0.150000
vertex 0.007774 0.005317 0.000000
vertex 0.007651 0.005452 0.000000
endloop
endfacet
facet normal 0.723167 0.690673 -0.000082
outer loop
vertex 0.007289 0.005813 0.000000
vertex 0.007529 0.005579 0.150000
vertex 0.007651 0.005452 0.150000
endloop
endfacet
facet normal 0.739954 0.672658 0.000000
outer loop
vertex 0.007651 0.005452 0.150000
vertex 0.007774 0.005317 0.150000
vertex 0.007651 0.005452 0.000000
endloop
endfacet
facet normal 0.706259 0.707953 0.000000
outer loop
vertex 0.007289 0.005813 0.000000
vertex 0.007651 0.005452 0.150000
vertex 0.007651 0.005452 0.000000
endloop
endfacet
facet normal 0.000000 0.000000 -1.000000
outer loop
vertex 0.005876 0.000274 0.000000
vertex 0.003651 0.000012 0.000000
vertex 0.003384 0.000001 0.000000
endloop
endfacet
facet normal 0.000000 0.000000 -1.000000
outer loop
vertex 0.003384 0.000001 0.000000
vertex 0.003079 0.000002 0.000000
vertex 0.002747 0.000016 0.000000
endloop
endfacet
facet normal 0.000000 0.000000 -1.000000
outer loop
vertex 0.002747 0.000016 0.000000
vertex 0.001349 0.000174 0.000000
vertex 0.000751 0.000304 0.000000
endloop
endfacet
facet normal 0.000000 0.000000 -1.000000
outer loop
vertex 0.000751 0.000304 0.000000
vertex 0.000513 0.000378 0.000000
vertex 0.000329 0.000458 0.000000
endloop
endfacet
facet normal 0.000000 0.000000 -1.000000
outer loop
vertex 0.000329 0.000458 0.000000
vertex 0.000196 0.000570 0.000000
vertex 0.000102 0.000734 0.000000
endloop
endfacet
facet normal 0.000000 0.000000 -1.000000
outer loop
vertex 0.000102 0.000734 0.000000
vertex 0.000041 0.000940 0.000000
vertex 0.000009 0.001178 0.000000
endloop
endfacet
facet normal 0.000000 0.000000 -1.000000
outer loop
vertex 0.000009 0.001178 0.000000
vertex 0.000010 0.001711 0.000000
vertex 0.000035 0.001986 0.000000
endloop
endfacet
facet normal 0.000000 0.000000 -1.000000
outer loop
vertex 0.000035 0.001986 0.000000
vertex 0.000069 0.002253 0.000000
vertex 0.000199 0.003041 0.000000
endloop
endfacet
facet normal 0.000000 0.000000 -1.000000
outer loop
vertex 0.000199 0.003041 0.000000
vertex 0.000240 0.003113 0.000000
vertex 0.000288 0.003190 0.000000
endloop
endfacet
facet normal 0.000000 0.000000 -1.000000
outer loop
vertex 0.000288 0.003190 0.000000
vertex 0.000353 0.003286 0.000000
vertex 0.000431 0.003391 0.000000
endloop
endfacet
facet normal 0.000000 0.000000 -1.000000
outer loop
vertex 0.000431 0.003391 0.000000
vertex 0.000522 0.003499 0.000000
vertex 0.000622 0.003596 0.000000
endloop
endfacet
facet normal 0.000000 0.000000 -1.000000
outer loop
vertex 0.000622 0.003596 0.000000
vertex 0.000675 0.003640 0.000000
vertex 0.000732 0.003682 0.000000
endloop
endfacet
facet normal 0.000000 0.000000 -1.000000
outer loop
vertex 0.000622 0.003596 0.000000
vertex 0.000732 0.003682 0.000000
vertex 0.001186 0.003976 0.000000
endloop
endfacet
facet normal 0.000000 0.000000 -1.000000
outer loop
vertex 0.000288 0.003190 0.000000
vertex 0.000431 0.003391 0.000000
vertex 0.000622 0.003596 0.000000
endloop
endfacet
facet normal 0.000000 0.000000 -1.000000
outer loop
vertex 0.000035 0.001986 0.000000
vertex 0.000199 0.003041 0.000000
vertex 0.000288 0.003190 0.000000
endloop
endfacet
facet normal 0.000000 0.000000 -1.000000
outer loop
vertex 0.000102 0.000734 0.000000
vertex 0.000009 0.001178 0.000000
vertex 0.000035 0.001986 0.000000
endloop
endfacet
facet normal 0.000000 0.000000 -1.000000
outer loop
vertex 0.000751 0.000304 0.000000
vertex 0.000329 0.000458 0.000000
vertex 0.000102 0.000734 0.000000
endloop
endfacet
facet normal 0.000000 0.000000 -1.000000
outer loop
vertex 0.003384 0.000001 0.000000
vertex 0.002747 0.000016 0.000000
vertex 0.000751 0.000304 0.000000
endloop
endfacet
facet normal 0.000000 0.000000 -1.000000
outer loop
vertex 0.006702 0.000486 0.000000
vertex 0.005876 0.000274 0.000000
vertex 0.003384 0.000001 0.000000
endloop
endfacet
facet normal 0.000000 0.000000 -1.000000
outer loop
vertex 0.006973 0.000578 0.000000
vertex 0.006842 0.000531 0.000000
vertex 0.006702 0.000486 0.000000
endloop
endfacet
facet normal 0.000000 0.000000 -1.000000
outer loop
vertex 0.007212 0.000680 0.000000
vertex 0.007096 0.000628 0.000000
vertex 0.006973 0.000578 0.000000
endloop
endfacet
facet normal 0.000000 0.000000 -1.000000
outer loop
vertex 0.007678 0.000980 0.000000
vertex 0.007419 0.000793 0.000000
vertex 0.007212 0.000680 0.000000
endloop
endfacet
facet normal 0.000000 0.000000 -1.000000
outer loop
vertex 0.008074 0.001214 0.000000
vertex 0.008016 0.001169 0.000000
vertex 0.007678 0.000980 0.000000
endloop
endfacet
facet normal 0.000000 0.000000 -1.000000
outer loop
vertex 0.008183 0.001343 0.000000
vertex 0.008130 0.001270 0.000000
vertex 0.008074 0.001214 0.000000
endloop
endfacet
facet normal 0.000000 0.000000 -1.000000
outer loop
vertex 0.008287 0.001552 0.000000
vertex 0.008236 0.001435 0.000000
vertex 0.008183 0.001343 0.000000
endloop
endfacet
facet normal 0.000000 0.000000 -1.000000
outer loop
vertex 0.008388 0.001849 0.000000
vertex 0.008287 0.001552 0.000000
vertex 0.008183 0.001343 0.000000
endloop
endfacet
facet normal 0.000000 0.000000 -1.000000
outer loop
vertex 0.008183 0.001343 0.000000
vertex 0.008074 0.001214 0.000000
vertex 0.007678 0.000980 0.000000
endloop
endfacet
facet normal 0.000000 0.000000 -1.000000
outer loop
vertex 0.007678 0.000980 0.000000
vertex 0.007212 0.000680 0.000000
vertex 0.006973 0.000578 0.000000
endloop
endfacet
facet normal 0.000000 0.000000 -1.000000
outer loop
vertex 0.006973 0.000578 0.000000
vertex 0.006702 0.000486 0.000000
vertex 0.003384 0.000001 0.000000
endloop
endfacet
facet normal 0.000000 0.000000 -1.000000
outer loop
vertex 0.003384 0.000001 0.000000
vertex 0.000751 0.000304 0.000000
vertex 0.000102 0.000734 0.000000
endloop
endfacet
facet normal 0.000000 0.000000 -1.000000
outer loop
vertex 0.000102 0.000734 0.000000
vertex 0.000035 0.001986 0.000000
vertex 0.000288 0.003190 0.000000
endloop
endfacet
facet normal 0.000000 0.000000 -1.000000
outer loop
vertex 0.000288 0.003190 0.000000
vertex 0.000622 0.003596 0.000000
vertex 0.001186 0.003976 0.000000
endloop
endfacet
facet normal 0.000000 0.000000 -1.000000
outer loop
vertex 0.000288 0.003190 0.000000
vertex 0.001186 0.003976 0.000000
vertex 0.001504 0.004198 0.000000
endloop
endfacet
facet normal 0.000000 0.000000 -1.000000
outer loop
vertex 0.003384 0.000001 0.000000
vertex 0.000102 0.000734 0.000000
vertex 0.000288 0.003190 0.000000
endloop
endfacet
facet normal 0.000000 0.000000 -1.000000
outer loop
vertex 0.007678 0.000980 0.000000
vertex 0.006973 0.000578 0.000000
vertex 0.003384 0.000001 0.000000
endloop
endfacet
facet normal 0.000000 0.000000 -1.000000
outer loop
vertex 0.008388 0.001849 0.000000
vertex 0.008183 0.001343 0.000000
vertex 0.007678 0.000980 0.000000
endloop
endfacet
facet normal 0.000000 0.000000 -1.000000
outer loop
vertex 0.008618 0.002442 0.000000
vertex 0.008581 0.002331 0.000000
vertex 0.008439 0.001984 0.000000
endloop
endfacet
facet normal 0.000000 0.000000 -1.000000
outer loop
vertex 0.008439 0.001984 0.000000
vertex 0.008388 0.001849 0.000000
vertex 0.007678 0.000980 0.000000
endloop
endfacet
facet normal 0.000000 0.000000 -1.000000
outer loop
vertex 0.007678 0.000980 0.000000
vertex 0.003384 0.000001 0.000000
vertex 0.000288 0.003190 0.000000
endloop
endfacet
facet normal 0.000000 0.000000 -1.000000
outer loop
vertex 0.000288 0.003190 0.000000
vertex 0.001504 0.004198 0.000000
vertex 0.001585 0.004261 0.000000
endloop
endfacet
facet normal 0.000000 0.000000 -1.000000
outer loop
vertex 0.007678 0.000980 0.000000
vertex 0.000288 0.003190 0.000000
vertex 0.001585 0.004261 0.000000
endloop
endfacet
facet normal 0.000000 0.000000 -1.000000
outer loop
vertex 0.008618 0.002442 0.000000
vertex 0.008439 0.001984 0.000000
vertex 0.007678 0.000980 0.000000
endloop
endfacet
facet normal 0.000000 0.000000 -1.000000
outer loop
vertex 0.008664 0.002679 0.000000
vertex 0.008646 0.002556 0.000000
vertex 0.008618 0.002442 0.000000
endloop
endfacet
facet normal 0.000000 0.000000 -1.000000
outer loop
vertex 0.008640 0.003139 0.000000
vertex 0.008671 0.002814 0.000000
vertex 0.008664 0.002679 0.000000
endloop
endfacet
facet normal 0.000000 0.000000 -1.000000
outer loop
vertex 0.008233 0.004593 0.000000
vertex 0.008353 0.004273 0.000000
vertex 0.008640 0.003139 0.000000
endloop
endfacet
facet normal 0.000000 0.000000 -1.000000
outer loop
vertex 0.007992 0.005036 0.000000
vertex 0.008082 0.004892 0.000000
vertex 0.008233 0.004593 0.000000
endloop
endfacet
facet normal 0.000000 0.000000 -1.000000
outer loop
vertex 0.007651 0.005452 0.000000
vertex 0.007774 0.005317 0.000000
vertex 0.007992 0.005036 0.000000
endloop
endfacet
facet normal 0.000000 0.000000 -1.000000
outer loop
vertex 0.007408 0.005700 0.000000
vertex 0.007529 0.005579 0.000000
vertex 0.007651 0.005452 0.000000
endloop
endfacet
facet normal 0.000000 0.000000 -1.000000
outer loop
vertex 0.007171 0.005920 0.000000
vertex 0.007289 0.005813 0.000000
vertex 0.007408 0.005700 0.000000
endloop
endfacet
facet normal 0.000000 0.000000 -1.000000
outer loop
vertex 0.006939 0.006114 0.000000
vertex 0.007054 0.006020 0.000000
vertex 0.007171 0.005920 0.000000
endloop
endfacet
facet normal 0.000000 0.000000 -1.000000
outer loop
vertex 0.006606 0.006360 0.000000
vertex 0.006826 0.006201 0.000000
vertex 0.006939 0.006114 0.000000
endloop
endfacet
facet normal 0.000000 0.000000 -1.000000
outer loop
vertex 0.006190 0.006620 0.000000
vertex 0.006395 0.006497 0.000000
vertex 0.006606 0.006360 0.000000
endloop
endfacet
facet normal 0.000000 0.000000 -1.000000
outer loop
vertex 0.004750 0.007431 0.000000
vertex 0.006190 0.006620 0.000000
vertex 0.006606 0.006360 0.000000
endloop
endfacet
facet normal 0.000000 0.000000 -1.000000
outer loop
vertex 0.006606 0.006360 0.000000
vertex 0.006939 0.006114 0.000000
vertex 0.007171 0.005920 0.000000
endloop
endfacet
facet normal 0.000000 0.000000 -1.000000
outer loop
vertex 0.007171 0.005920 0.000000
vertex 0.007408 0.005700 0.000000
vertex 0.007651 0.005452 0.000000
endloop
endfacet
facet normal 0.000000 0.000000 -1.000000
outer loop
vertex 0.007651 0.005452 0.000000
vertex 0.007992 0.005036 0.000000
vertex 0.008233 0.004593 0.000000
endloop
endfacet
facet normal 0.000000 0.000000 -1.000000
outer loop
vertex 0.008233 0.004593 0.000000
vertex 0.008640 0.003139 0.000000
vertex 0.008664 0.002679 0.000000
endloop
endfacet
facet normal 0.000000 0.000000 -1.000000
outer loop
vertex 0.008664 0.002679 0.000000
vertex 0.008618 0.002442 0.000000
vertex 0.007678 0.000980 0.000000
endloop
endfacet
facet normal 0.000000 0.000000 -1.000000
outer loop
vertex 0.007678 0.000980 0.000000
vertex 0.001585 0.004261 0.000000
vertex 0.001648 0.004315 0.000000
endloop
endfacet
facet normal 0.000000 0.000000 -1.000000
outer loop
vertex 0.007678 0.000980 0.000000
vertex 0.001648 0.004315 0.000000
vertex 0.001732 0.004404 0.000000
endloop
endfacet
facet normal 0.000000 0.000000 -1.000000
outer loop
vertex 0.008233 0.004593 0.000000
vertex 0.008664 0.002679 0.000000
vertex 0.007678 0.000980 0.000000
endloop
endfacet
facet normal 0.000000 0.000000 -1.000000
outer loop
vertex 0.007171 0.005920 0.000000
vertex 0.007651 0.005452 0.000000
vertex 0.008233 0.004593 0.000000
endloop
endfacet
facet normal 0.000000 0.000000 -1.000000
outer loop
vertex 0.004750 0.007431 0.000000
vertex 0.006606 0.006360 0.000000
vertex 0.007171 0.005920 0.000000
endloop
endfacet
facet normal 0.000000 0.000000 -1.000000
outer loop
vertex 0.003844 0.008019 0.000000
vertex 0.003936 0.007961 0.000000
vertex 0.004582 0.007532 0.000000
endloop
endfacet
facet normal 0.000000 0.000000 -1.000000
outer loop
vertex 0.004582 0.007532 0.000000
vertex 0.004750 0.007431 0.000000
vertex 0.007171 0.005920 0.000000
endloop
endfacet
facet normal 0.000000 0.000000 -1.000000
outer loop
vertex 0.007171 0.005920 0.000000
vertex 0.008233 0.004593 0.000000
vertex 0.007678 0.000980 0.000000
endloop
endfacet
facet normal 0.000000 0.000000 -1.000000
outer loop
vertex 0.007678 0.000980 0.000000
vertex 0.001732 0.004404 0.000000
vertex 0.001761 0.004444 0.000000
endloop
endfacet
facet normal 0.000000 0.000000 -1.000000
outer loop
vertex 0.001784 0.004485 0.000000
vertex 0.001832 0.004577 0.000000
vertex 0.001864 0.004633 0.000000
endloop
endfacet
facet normal 0.000000 0.000000 -1.000000
outer loop
vertex 0.007678 0.000980 0.000000
vertex 0.001761 0.004444 0.000000
vertex 0.001784 0.004485 0.000000
endloop
endfacet
facet normal 0.000000 0.000000 -1.000000
outer loop
vertex 0.004582 0.007532 0.000000
vertex 0.007171 0.005920 0.000000
vertex 0.007678 0.000980 0.000000
endloop
endfacet
facet normal 0.000000 0.000000 -1.000000
outer loop
vertex 0.003755 0.008071 0.000000
vertex 0.003844 0.008019 0.000000
vertex 0.004582 0.007532 0.000000
endloop
endfacet
facet normal 0.000000 0.000000 -1.000000
outer loop
vertex 0.003593 0.008151 0.000000
vertex 0.003671 0.008115 0.000000
vertex 0.003755 0.008071 0.000000
endloop
endfacet
facet normal 0.000000 0.000000 -1.000000
outer loop
vertex 0.003460 0.008189 0.000000
vertex 0.003522 0.008176 0.000000
vertex 0.003593 0.008151 0.000000
endloop
endfacet
facet normal 0.000000 0.000000 -1.000000
outer loop
vertex 0.003363 0.008173 0.000000
vertex 0.003406 0.008189 0.000000
vertex 0.003460 0.008189 0.000000
endloop
endfacet
facet normal 0.000000 0.000000 -1.000000
outer loop
vertex 0.003067 0.007962 0.000000
vertex 0.003175 0.008050 0.000000
vertex 0.003363 0.008173 0.000000
endloop
endfacet
facet normal 0.000000 0.000000 -1.000000
outer loop
vertex 0.002916 0.007783 0.000000
vertex 0.002963 0.007850 0.000000
vertex 0.003067 0.007962 0.000000
endloop
endfacet
facet normal 0.000000 0.000000 -1.000000
outer loop
vertex 0.002837 0.007626 0.000000
vertex 0.002873 0.007709 0.000000
vertex 0.002916 0.007783 0.000000
endloop
endfacet
facet normal 0.000000 0.000000 -1.000000
outer loop
vertex 0.002766 0.007360 0.000000
vertex 0.002809 0.007534 0.000000
vertex 0.002837 0.007626 0.000000
endloop
endfacet
facet normal 0.000000 0.000000 -1.000000
outer loop
vertex 0.002721 0.007151 0.000000
vertex 0.002734 0.007216 0.000000
vertex 0.002766 0.007360 0.000000
endloop
endfacet
facet normal 0.000000 0.000000 -1.000000
outer loop
vertex 0.002681 0.006883 0.000000
vertex 0.002710 0.007086 0.000000
vertex 0.002721 0.007151 0.000000
endloop
endfacet
facet normal 0.000000 0.000000 -1.000000
outer loop
vertex 0.002618 0.006197 0.000000
vertex 0.002681 0.006883 0.000000
vertex 0.002721 0.007151 0.000000
endloop
endfacet
facet normal 0.000000 0.000000 -1.000000
outer loop
vertex 0.002721 0.007151 0.000000
vertex 0.002766 0.007360 0.000000
vertex 0.002837 0.007626 0.000000
endloop
endfacet
facet normal 0.000000 0.000000 -1.000000
outer loop
vertex 0.002837 0.007626 0.000000
vertex 0.002916 0.007783 0.000000
vertex 0.003067 0.007962 0.000000
endloop
endfacet
facet normal 0.000000 0.000000 -1.000000
outer loop
vertex 0.003067 0.007962 0.000000
vertex 0.003363 0.008173 0.000000
vertex 0.003460 0.008189 0.000000
endloop
endfacet
facet normal 0.000000 0.000000 -1.000000
outer loop
vertex 0.003460 0.008189 0.000000
vertex 0.003593 0.008151 0.000000
vertex 0.003755 0.008071 0.000000
endloop
endfacet
facet normal 0.000000 0.000000 -1.000000
outer loop
vertex 0.003755 0.008071 0.000000
vertex 0.004582 0.007532 0.000000
vertex 0.007678 0.000980 0.000000
endloop
endfacet
facet normal 0.000000 0.000000 -1.000000
outer loop
vertex 0.007678 0.000980 0.000000
vertex 0.001784 0.004485 0.000000
vertex 0.001864 0.004633 0.000000
endloop
endfacet
facet normal 0.000000 0.000000 -1.000000
outer loop
vertex 0.001864 0.004633 0.000000
vertex 0.001906 0.004700 0.000000
vertex 0.001961 0.004780 0.000000
endloop
endfacet
facet normal 0.000000 0.000000 -1.000000
outer loop
vertex 0.001864 0.004633 0.000000
vertex 0.001961 0.004780 0.000000
vertex 0.002076 0.004940 0.000000
endloop
endfacet
facet normal 0.000000 0.000000 -1.000000
outer loop
vertex 0.003460 0.008189 0.000000
vertex 0.003755 0.008071 0.000000
vertex 0.007678 0.000980 0.000000
endloop
endfacet
facet normal 0.000000 0.000000 -1.000000
outer loop
vertex 0.002837 0.007626 0.000000
vertex 0.003067 0.007962 0.000000
vertex 0.003460 0.008189 0.000000
endloop
endfacet
facet normal 0.000000 0.000000 -1.000000
outer loop
vertex 0.002618 0.006197 0.000000
vertex 0.002721 0.007151 0.000000
vertex 0.002837 0.007626 0.000000
endloop
endfacet
facet normal 0.000000 0.000000 -1.000000
outer loop
vertex 0.002610 0.006123 0.000000
vertex 0.002618 0.006197 0.000000
vertex 0.002837 0.007626 0.000000
endloop
endfacet
facet normal 0.000000 0.000000 -1.000000
outer loop
vertex 0.002837 0.007626 0.000000
vertex 0.003460 0.008189 0.000000
vertex 0.007678 0.000980 0.000000
endloop
endfacet
facet normal 0.000000 0.000000 -1.000000
outer loop
vertex 0.007678 0.000980 0.000000
vertex 0.001864 0.004633 0.000000
vertex 0.002076 0.004940 0.000000
endloop
endfacet
facet normal 0.000000 0.000000 -1.000000
outer loop
vertex 0.007678 0.000980 0.000000
vertex 0.002076 0.004940 0.000000
vertex 0.002126 0.005011 0.000000
endloop
endfacet
facet normal 0.000000 0.000000 -1.000000
outer loop
vertex 0.002610 0.006123 0.000000
vertex 0.002837 0.007626 0.000000
vertex 0.007678 0.000980 0.000000
endloop
endfacet
facet normal 0.000000 0.000000 -1.000000
outer loop
vertex 0.002598 0.006050 0.000000
vertex 0.002610 0.006123 0.000000
vertex 0.007678 0.000980 0.000000
endloop
endfacet
facet normal 0.000000 0.000000 -1.000000
outer loop
vertex 0.007678 0.000980 0.000000
vertex 0.002126 0.005011 0.000000
vertex 0.002172 0.005078 0.000000
endloop
endfacet
facet normal 0.000000 0.000000 -1.000000
outer loop
vertex 0.007678 0.000980 0.000000
vertex 0.002172 0.005078 0.000000
vertex 0.002215 0.005143 0.000000
endloop
endfacet
facet normal 0.000000 0.000000 -1.000000
outer loop
vertex 0.002584 0.005976 0.000000
vertex 0.002598 0.006050 0.000000
vertex 0.007678 0.000980 0.000000
endloop
endfacet
facet normal 0.000000 0.000000 -1.000000
outer loop
vertex 0.002565 0.005901 0.000000
vertex 0.002584 0.005976 0.000000
vertex 0.007678 0.000980 0.000000
endloop
endfacet
facet normal 0.000000 0.000000 -1.000000
outer loop
vertex 0.007678 0.000980 0.000000
vertex 0.002215 0.005143 0.000000
vertex 0.002255 0.005207 0.000000
endloop
endfacet
facet normal 0.000000 0.000000 -1.000000
outer loop
vertex 0.007678 0.000980 0.000000
vertex 0.002255 0.005207 0.000000
vertex 0.002294 0.005271 0.000000
endloop
endfacet
facet normal 0.000000 0.000000 -1.000000
outer loop
vertex 0.002513 0.005739 0.000000
vertex 0.002565 0.005901 0.000000
vertex 0.007678 0.000980 0.000000
endloop
endfacet
facet normal 0.000000 0.000000 -1.000000
outer loop
vertex 0.002478 0.005650 0.000000
vertex 0.002513 0.005739 0.000000
vertex 0.007678 0.000980 0.000000
endloop
endfacet
facet normal 0.000000 0.000000 -1.000000
outer loop
vertex 0.007678 0.000980 0.000000
vertex 0.002294 0.005271 0.000000
vertex 0.002330 0.005337 0.000000
endloop
endfacet
facet normal 0.000000 0.000000 -1.000000
outer loop
vertex 0.007678 0.000980 0.000000
vertex 0.002330 0.005337 0.000000
vertex 0.002367 0.005407 0.000000
endloop
endfacet
facet normal 0.000000 0.000000 -1.000000
outer loop
vertex 0.002403 0.005481 0.000000
vertex 0.002478 0.005650 0.000000
vertex 0.007678 0.000980 0.000000
endloop
endfacet
facet normal 0.000000 0.000000 -1.000000
outer loop
vertex 0.002367 0.005407 0.000000
vertex 0.002403 0.005481 0.000000
vertex 0.007678 0.000980 0.000000
endloop
endfacet
facet normal -0.211776 -0.977318 0.000000
outer loop
vertex 0.000751 0.000304 0.000000
vertex 0.001349 0.000174 0.000000
vertex 0.001349 0.000174 0.150000
endloop
endfacet
facet normal -0.211776 -0.977318 0.000000
outer loop
vertex 0.000751 0.000304 0.000000
vertex 0.001349 0.000174 0.150000
vertex 0.000751 0.000304 0.150000
endloop
endfacet
facet normal 0.000000 0.000000 1.000000
outer loop
vertex 0.002747 0.000016 0.000000
vertex 0.003079 0.000002 0.000000
vertex 0.003384 0.000001 0.000000
endloop
endfacet
facet normal 0.042418 -0.999100 0.000000
outer loop
vertex 0.003384 0.000001 0.000000
vertex 0.003651 0.000012 0.000000
vertex 0.003651 0.000012 0.150000
endloop
endfacet
facet normal 0.042418 -0.999100 0.000000
outer loop
vertex 0.003384 0.000001 0.000000
vertex 0.003651 0.000012 0.150000
vertex 0.003384 0.000001 0.150000
endloop
endfacet
facet normal -0.023895 -0.999714 0.000000
outer loop
vertex 0.002747 0.000016 0.150000
vertex 0.002747 0.000016 0.000000
vertex 0.003384 0.000001 0.000000
endloop
endfacet
facet normal -0.005166 -0.999987 0.000000
outer loop
vertex 0.003384 0.000001 0.000000
vertex 0.003384 0.000001 0.150000
vertex 0.003079 0.000002 0.150000
endloop
endfacet
facet normal -0.041061 -0.999157 -0.000073
outer loop
vertex 0.003384 0.000001 0.000000
vertex 0.003079 0.000002 0.150000
vertex 0.002747 0.000016 0.150000
endloop
endfacet
facet normal 0.476878 -0.878969 0.000000
outer loop
vertex 0.007212 0.000680 0.150000
vertex 0.007212 0.000680 0.000000
vertex 0.007419 0.000793 0.000000
endloop
endfacet
facet normal 0.476881 -0.878968 0.000000
outer loop
vertex 0.007212 0.000680 0.150000
vertex 0.007419 0.000793 0.000000
vertex 0.007419 0.000793 0.150000
endloop
endfacet
facet normal 0.333968 0.942584 0.000000
outer loop
vertex 0.003593 0.008151 0.150000
vertex 0.003593 0.008151 0.000000
vertex 0.003522 0.008176 0.000000
endloop
endfacet
facet normal 0.333965 0.942585 0.000000
outer loop
vertex 0.003593 0.008151 0.150000
vertex 0.003522 0.008176 0.000000
vertex 0.003522 0.008176 0.150000
endloop
endfacet
facet normal -0.732522 0.680744 0.000000
outer loop
vertex 0.003067 0.007962 0.000000
vertex 0.002963 0.007850 0.000000
vertex 0.002963 0.007850 0.150000
endloop
endfacet
facet normal -0.732521 0.680745 0.000000
outer loop
vertex 0.003067 0.007962 0.000000
vertex 0.002963 0.007850 0.150000
vertex 0.003067 0.007962 0.150000
endloop
endfacet
facet normal -0.298329 -0.954463 0.000000
outer loop
vertex 0.000513 0.000378 0.150000
vertex 0.000513 0.000378 0.000000
vertex 0.000751 0.000304 0.000000
endloop
endfacet
facet normal -0.298330 -0.954463 0.000000
outer loop
vertex 0.000513 0.000378 0.150000
vertex 0.000751 0.000304 0.000000
vertex 0.000751 0.000304 0.150000
endloop
endfacet
facet normal 0.203536 0.979067 0.000000
outer loop
vertex 0.003522 0.008176 0.150000
vertex 0.003522 0.008176 0.000000
vertex 0.003460 0.008189 0.000000
endloop
endfacet
facet normal 0.203531 0.979068 0.000000
outer loop
vertex 0.003522 0.008176 0.150000
vertex 0.003460 0.008189 0.000000
vertex 0.003460 0.008189 0.150000
endloop
endfacet
facet normal -0.643583 -0.765377 0.000000
outer loop
vertex 0.000196 0.000570 0.150000
vertex 0.000196 0.000570 0.000000
vertex 0.000329 0.000458 0.000000
endloop
endfacet
facet normal -0.643583 -0.765377 0.000000
outer loop
vertex 0.000196 0.000570 0.150000
vertex 0.000329 0.000458 0.000000
vertex 0.000329 0.000458 0.150000
endloop
endfacet
facet normal -0.632955 0.774189 0.000000
outer loop
vertex 0.000675 0.003640 0.000000
vertex 0.000622 0.003596 0.000000
vertex 0.000622 0.003596 0.150000
endloop
endfacet
facet normal -0.632955 0.774189 0.000000
outer loop
vertex 0.000675 0.003640 0.000000
vertex 0.000622 0.003596 0.150000
vertex 0.000675 0.003640 0.150000
endloop
endfacet
facet normal -0.596001 0.802984 0.000000
outer loop
vertex 0.000732 0.003682 0.000000
vertex 0.000675 0.003640 0.000000
vertex 0.000675 0.003640 0.150000
endloop
endfacet
facet normal -0.596001 0.802984 0.000000
outer loop
vertex 0.000732 0.003682 0.000000
vertex 0.000675 0.003640 0.150000
vertex 0.000732 0.003682 0.150000
endloop
endfacet
facet normal -0.544142 0.838993 0.000000
outer loop
vertex 0.001186 0.003976 0.000000
vertex 0.000732 0.003682 0.000000
vertex 0.000732 0.003682 0.150000
endloop
endfacet
facet normal -0.544142 0.838993 0.000000
outer loop
vertex 0.001186 0.003976 0.000000
vertex 0.000732 0.003682 0.150000
vertex 0.001186 0.003976 0.150000
endloop
endfacet
facet normal -0.572256 0.820075 0.000000
outer loop
vertex 0.001504 0.004198 0.000000
vertex 0.001186 0.003976 0.000000
vertex 0.001186 0.003976 0.150000
endloop
endfacet
facet normal -0.572256 0.820075 0.000000
outer loop
vertex 0.001504 0.004198 0.000000
vertex 0.001186 0.003976 0.150000
vertex 0.001504 0.004198 0.150000
endloop
endfacet
facet normal -0.650080 0.759866 0.000000
outer loop
vertex 0.001648 0.004315 0.150000
vertex 0.001648 0.004315 0.000000
vertex 0.001585 0.004261 0.000000
endloop
endfacet
facet normal -0.613312 0.789841 0.000000
outer loop
vertex 0.001585 0.004261 0.000000
vertex 0.001504 0.004198 0.000000
vertex 0.001504 0.004198 0.150000
endloop
endfacet
facet normal -0.650079 0.759866 0.000000
outer loop
vertex 0.001585 0.004261 0.150000
vertex 0.001648 0.004315 0.150000
vertex 0.001585 0.004261 0.000000
endloop
endfacet
facet normal -0.613313 0.789840 0.000000
outer loop
vertex 0.001504 0.004198 0.150000
vertex 0.001585 0.004261 0.150000
vertex 0.001585 0.004261 0.000000
endloop
endfacet
facet normal 0.893229 0.449601 0.000000
outer loop
vertex 0.008233 0.004593 0.150000
vertex 0.008233 0.004593 0.000000
vertex 0.008082 0.004892 0.000000
endloop
endfacet
facet normal 0.893226 0.449608 0.000000
outer loop
vertex 0.008233 0.004593 0.150000
vertex 0.008082 0.004892 0.000000
vertex 0.008082 0.004892 0.150000
endloop
endfacet
facet normal -0.397664 -0.917531 0.000000
outer loop
vertex 0.000329 0.000458 0.150000
vertex 0.000329 0.000458 0.000000
vertex 0.000513 0.000378 0.000000
endloop
endfacet
facet normal -0.397664 -0.917531 0.000000
outer loop
vertex 0.000329 0.000458 0.150000
vertex 0.000513 0.000378 0.000000
vertex 0.000513 0.000378 0.150000
endloop
endfacet
facet normal 0.586505 -0.809945 0.000000
outer loop
vertex 0.007419 0.000793 0.000000
vertex 0.007678 0.000980 0.000000
vertex 0.007678 0.000980 0.150000
endloop
endfacet
facet normal 0.586505 -0.809945 0.000000
outer loop
vertex 0.007419 0.000793 0.000000
vertex 0.007678 0.000980 0.150000
vertex 0.007419 0.000793 0.150000
endloop
endfacet
facet normal -0.350517 0.936556 0.000000
outer loop
vertex 0.003406 0.008189 0.150000
vertex 0.003406 0.008189 0.000000
vertex 0.003363 0.008173 0.000000
endloop
endfacet
facet normal -0.350512 0.936558 0.000000
outer loop
vertex 0.003406 0.008189 0.150000
vertex 0.003363 0.008173 0.000000
vertex 0.003363 0.008173 0.150000
endloop
endfacet
facet normal -0.917396 0.397976 0.000000
outer loop
vertex 0.002873 0.007709 0.150000
vertex 0.002873 0.007709 0.000000
vertex 0.002837 0.007626 0.000000
endloop
endfacet
facet normal -0.917396 0.397976 0.000000
outer loop
vertex 0.002873 0.007709 0.150000
vertex 0.002837 0.007626 0.000000
vertex 0.002837 0.007626 0.150000
endloop
endfacet
facet normal -0.996071 0.088559 0.000000
outer loop
vertex 0.000035 0.001986 0.000000
vertex 0.000010 0.001711 0.000000
vertex 0.000010 0.001711 0.150000
endloop
endfacet
facet normal -0.996071 0.088559 0.000000
outer loop
vertex 0.000035 0.001986 0.000000
vertex 0.000010 0.001711 0.150000
vertex 0.000035 0.001986 0.150000
endloop
endfacet
facet normal -0.986491 0.163816 0.000000
outer loop
vertex 0.000199 0.003041 0.150000
vertex 0.000199 0.003041 0.000000
vertex 0.000069 0.002253 0.000000
endloop
endfacet
facet normal -0.992122 0.125274 0.000000
outer loop
vertex 0.000069 0.002253 0.000000
vertex 0.000035 0.001986 0.000000
vertex 0.000035 0.001986 0.150000
endloop
endfacet
facet normal -0.986491 0.163816 0.000000
outer loop
vertex 0.000069 0.002253 0.150000
vertex 0.000199 0.003041 0.150000
vertex 0.000069 0.002253 0.000000
endloop
endfacet
facet normal -0.992122 0.125274 0.000000
outer loop
vertex 0.000035 0.001986 0.150000
vertex 0.000069 0.002253 0.150000
vertex 0.000069 0.002253 0.000000
endloop
endfacet
facet normal -0.629687 0.776849 0.000000
outer loop
vertex 0.003175 0.008050 0.000000
vertex 0.003067 0.007962 0.000000
vertex 0.003067 0.007962 0.150000
endloop
endfacet
facet normal -0.629686 0.776850 0.000000
outer loop
vertex 0.003175 0.008050 0.000000
vertex 0.003067 0.007962 0.150000
vertex 0.003175 0.008050 0.150000
endloop
endfacet
facet normal 0.995543 0.094313 0.000000
outer loop
vertex 0.008671 0.002814 0.150000
vertex 0.008671 0.002814 0.000000
vertex 0.008640 0.003139 0.000000
endloop
endfacet
facet normal 0.995543 0.094313 0.000000
outer loop
vertex 0.008671 0.002814 0.150000
vertex 0.008640 0.003139 0.000000
vertex 0.008640 0.003139 0.150000
endloop
endfacet
facet normal -0.763753 0.645508 0.000000
outer loop
vertex 0.000522 0.003499 0.000000
vertex 0.000431 0.003391 0.000000
vertex 0.000431 0.003391 0.150000
endloop
endfacet
facet normal -0.763753 0.645509 0.000000
outer loop
vertex 0.000522 0.003499 0.000000
vertex 0.000431 0.003391 0.150000
vertex 0.000522 0.003499 0.150000
endloop
endfacet
facet normal 0.469186 0.883099 0.000000
outer loop
vertex 0.003755 0.008071 0.000000
vertex 0.003671 0.008115 0.000000
vertex 0.003671 0.008115 0.150000
endloop
endfacet
facet normal 0.469183 0.883101 0.000000
outer loop
vertex 0.003755 0.008071 0.000000
vertex 0.003671 0.008115 0.150000
vertex 0.003755 0.008071 0.150000
endloop
endfacet
facet normal 0.505505 0.862824 0.000000
outer loop
vertex 0.003844 0.008019 0.000000
vertex 0.003755 0.008071 0.000000
vertex 0.003755 0.008071 0.150000
endloop
endfacet
facet normal 0.505501 0.862826 0.000000
outer loop
vertex 0.003844 0.008019 0.000000
vertex 0.003755 0.008071 0.150000
vertex 0.003844 0.008019 0.150000
endloop
endfacet
facet normal 0.530528 0.847667 0.000000
outer loop
vertex 0.003936 0.007961 0.000000
vertex 0.003844 0.008019 0.000000
vertex 0.003844 0.008019 0.150000
endloop
endfacet
facet normal 0.530525 0.847669 0.000000
outer loop
vertex 0.003936 0.007961 0.000000
vertex 0.003844 0.008019 0.150000
vertex 0.003936 0.007961 0.150000
endloop
endfacet
facet normal 0.553091 0.833121 0.000000
outer loop
vertex 0.004582 0.007532 0.000000
vertex 0.003936 0.007961 0.000000
vertex 0.003936 0.007961 0.150000
endloop
endfacet
facet normal 0.553091 0.833121 0.000000
outer loop
vertex 0.004582 0.007532 0.000000
vertex 0.003936 0.007961 0.150000
vertex 0.004582 0.007532 0.150000
endloop
endfacet
facet normal 0.515040 0.857166 0.000000
outer loop
vertex 0.004750 0.007431 0.000000
vertex 0.004582 0.007532 0.000000
vertex 0.004582 0.007532 0.150000
endloop
endfacet
facet normal 0.515042 0.857165 0.000000
outer loop
vertex 0.004750 0.007431 0.000000
vertex 0.004582 0.007532 0.150000
vertex 0.004750 0.007431 0.150000
endloop
endfacet
facet normal 0.490822 0.871260 0.000000
outer loop
vertex 0.006190 0.006620 0.000000
vertex 0.004750 0.007431 0.000000
vertex 0.004750 0.007431 0.150000
endloop
endfacet
facet normal 0.490822 0.871260 0.000000
outer loop
vertex 0.006190 0.006620 0.000000
vertex 0.004750 0.007431 0.150000
vertex 0.006190 0.006620 0.150000
endloop
endfacet
facet normal 0.513783 0.857920 0.000000
outer loop
vertex 0.006395 0.006497 0.000000
vertex 0.006190 0.006620 0.000000
vertex 0.006190 0.006620 0.150000
endloop
endfacet
facet normal 0.513782 0.857921 0.000000
outer loop
vertex 0.006395 0.006497 0.000000
vertex 0.006190 0.006620 0.150000
vertex 0.006395 0.006497 0.150000
endloop
endfacet
facet normal 0.584619 0.811308 0.000000
outer loop
vertex 0.006826 0.006201 0.150000
vertex 0.006826 0.006201 0.000000
vertex 0.006606 0.006360 0.000000
endloop
endfacet
facet normal 0.545872 0.837868 0.000000
outer loop
vertex 0.006606 0.006360 0.000000
vertex 0.006395 0.006497 0.000000
vertex 0.006395 0.006497 0.150000
endloop
endfacet
facet normal 0.584619 0.811308 0.000000
outer loop
vertex 0.006606 0.006360 0.150000
vertex 0.006826 0.006201 0.150000
vertex 0.006606 0.006360 0.000000
endloop
endfacet
facet normal 0.545872 0.837868 0.000000
outer loop
vertex 0.006395 0.006497 0.150000
vertex 0.006606 0.006360 0.150000
vertex 0.006606 0.006360 0.000000
endloop
endfacet
facet normal 0.969504 0.245076 0.000000
outer loop
vertex 0.008640 0.003139 0.000000
vertex 0.008353 0.004273 0.000000
vertex 0.008353 0.004273 0.150000
endloop
endfacet
facet normal 0.969504 0.245075 0.000000
outer loop
vertex 0.008640 0.003139 0.000000
vertex 0.008353 0.004273 0.150000
vertex 0.008640 0.003139 0.150000
endloop
endfacet
facet normal 0.000000 0.000000 -1.000000
outer loop
vertex 0.002610 0.006123 0.000000
vertex 0.002598 0.006050 0.000000
vertex 0.002584 0.005976 0.000000
endloop
endfacet
facet normal -0.971300 0.237856 0.000000
outer loop
vertex 0.002584 0.005976 0.000000
vertex 0.002565 0.005901 0.000000
vertex 0.002565 0.005901 0.150000
endloop
endfacet
facet normal -0.971300 0.237856 0.000000
outer loop
vertex 0.002584 0.005976 0.000000
vertex 0.002565 0.005901 0.150000
vertex 0.002584 0.005976 0.150000
endloop
endfacet
facet normal -0.985023 0.172421 0.000000
outer loop
vertex 0.002610 0.006123 0.150000
vertex 0.002610 0.006123 0.000000
vertex 0.002584 0.005976 0.000000
endloop
endfacet
facet normal -0.981267 0.192654 0.000000
outer loop
vertex 0.002584 0.005976 0.000000
vertex 0.002584 0.005976 0.150000
vertex 0.002598 0.006050 0.150000
endloop
endfacet
facet normal -0.988409 0.151813 0.000021
outer loop
vertex 0.002584 0.005976 0.000000
vertex 0.002598 0.006050 0.150000
vertex 0.002610 0.006123 0.150000
endloop
endfacet
facet normal -0.951609 0.307312 0.000000
outer loop
vertex 0.002565 0.005901 0.000000
vertex 0.002513 0.005739 0.000000
vertex 0.002513 0.005739 0.150000
endloop
endfacet
facet normal -0.951608 0.307314 0.000000
outer loop
vertex 0.002565 0.005901 0.000000
vertex 0.002513 0.005739 0.150000
vertex 0.002565 0.005901 0.150000
endloop
endfacet
facet normal -0.727247 0.686376 0.000000
outer loop
vertex 0.001732 0.004404 0.150000
vertex 0.001732 0.004404 0.000000
vertex 0.001648 0.004315 0.000000
endloop
endfacet
facet normal -0.727245 0.686378 0.000000
outer loop
vertex 0.001732 0.004404 0.150000
vertex 0.001648 0.004315 0.000000
vertex 0.001648 0.004315 0.150000
endloop
endfacet
facet normal 0.789427 0.613844 0.000000
outer loop
vertex 0.007992 0.005036 0.000000
vertex 0.007774 0.005317 0.000000
vertex 0.007774 0.005317 0.150000
endloop
endfacet
facet normal 0.789427 0.613844 0.000000
outer loop
vertex 0.007992 0.005036 0.000000
vertex 0.007774 0.005317 0.150000
vertex 0.007992 0.005036 0.150000
endloop
endfacet
facet normal 0.000000 0.000000 -1.000000
outer loop
vertex 0.002513 0.005739 0.000000
vertex 0.002478 0.005650 0.000000
vertex 0.002403 0.005481 0.000000
endloop
endfacet
facet normal 0.000000 0.000000 -1.000000
outer loop
vertex 0.002403 0.005481 0.000000
vertex 0.002367 0.005407 0.000000
vertex 0.002330 0.005337 0.000000
endloop
endfacet
facet normal -0.886641 0.462458 0.000000
outer loop
vertex 0.002330 0.005337 0.000000
vertex 0.002330 0.005337 0.150000
vertex 0.002367 0.005407 0.150000
endloop
endfacet
facet normal -0.898887 0.438180 0.000014
outer loop
vertex 0.002330 0.005337 0.000000
vertex 0.002367 0.005407 0.150000
vertex 0.002403 0.005481 0.150000
endloop
endfacet
facet normal 0.000000 0.000000 -1.000000
outer loop
vertex 0.002513 0.005739 0.000000
vertex 0.002403 0.005481 0.000000
vertex 0.002330 0.005337 0.000000
endloop
endfacet
facet normal -0.929244 0.369468 0.000000
outer loop
vertex 0.002478 0.005650 0.150000
vertex 0.002513 0.005739 0.150000
vertex 0.002513 0.005739 0.000000
endloop
endfacet
facet normal -0.913939 0.405850 0.000052
outer loop
vertex 0.002330 0.005337 0.000000
vertex 0.002403 0.005481 0.150000
vertex 0.002478 0.005650 0.150000
endloop
endfacet
facet normal -0.910141 0.414298 0.000031
outer loop
vertex 0.002330 0.005337 0.000000
vertex 0.002478 0.005650 0.150000
vertex 0.002513 0.005739 0.000000
endloop
endfacet
facet normal 0.247918 -0.968781 0.000000
outer loop
vertex 0.005876 0.000274 0.000000
vertex 0.006702 0.000486 0.000000
vertex 0.006702 0.000486 0.150000
endloop
endfacet
facet normal 0.247918 -0.968781 0.000000
outer loop
vertex 0.005876 0.000274 0.000000
vertex 0.006702 0.000486 0.150000
vertex 0.005876 0.000274 0.150000
endloop
endfacet
facet normal 0.116985 -0.993134 0.000000
outer loop
vertex 0.003651 0.000012 0.000000
vertex 0.005876 0.000274 0.000000
vertex 0.005876 0.000274 0.150000
endloop
endfacet
facet normal 0.116985 -0.993134 0.000000
outer loop
vertex 0.003651 0.000012 0.000000
vertex 0.005876 0.000274 0.150000
vertex 0.003651 0.000012 0.150000
endloop
endfacet
facet normal -0.984215 0.176977 0.000000
outer loop
vertex 0.002721 0.007151 0.000000
vertex 0.002710 0.007086 0.000000
vertex 0.002710 0.007086 0.150000
endloop
endfacet
facet normal -0.984216 0.176971 0.000000
outer loop
vertex 0.002721 0.007151 0.000000
vertex 0.002710 0.007086 0.150000
vertex 0.002721 0.007151 0.150000
endloop
endfacet
facet normal -0.980752 0.195256 0.000000
outer loop
vertex 0.002734 0.007216 0.000000
vertex 0.002721 0.007151 0.000000
vertex 0.002721 0.007151 0.150000
endloop
endfacet
facet normal -0.980753 0.195250 0.000000
outer loop
vertex 0.002734 0.007216 0.000000
vertex 0.002721 0.007151 0.150000
vertex 0.002734 0.007216 0.150000
endloop
endfacet
facet normal -0.975936 0.218058 0.000000
outer loop
vertex 0.002766 0.007360 0.000000
vertex 0.002734 0.007216 0.000000
vertex 0.002734 0.007216 0.150000
endloop
endfacet
facet normal -0.975935 0.218060 0.000000
outer loop
vertex 0.002766 0.007360 0.000000
vertex 0.002734 0.007216 0.150000
vertex 0.002766 0.007360 0.150000
endloop
endfacet
facet normal -0.955490 0.295024 0.000000
outer loop
vertex 0.002837 0.007626 0.150000
vertex 0.002837 0.007626 0.000000
vertex 0.002809 0.007534 0.000000
endloop
endfacet
facet normal -0.971447 0.237257 0.000000
outer loop
vertex 0.002809 0.007534 0.000000
vertex 0.002766 0.007360 0.000000
vertex 0.002766 0.007360 0.150000
endloop
endfacet
facet normal -0.955489 0.295027 0.000000
outer loop
vertex 0.002809 0.007534 0.150000
vertex 0.002837 0.007626 0.150000
vertex 0.002809 0.007534 0.000000
endloop
endfacet
facet normal -0.971447 0.237259 0.000000
outer loop
vertex 0.002766 0.007360 0.150000
vertex 0.002809 0.007534 0.150000
vertex 0.002809 0.007534 0.000000
endloop
endfacet
facet normal -0.866471 -0.499227 0.000000
outer loop
vertex 0.000102 0.000734 0.150000
vertex 0.000102 0.000734 0.000000
vertex 0.000196 0.000570 0.000000
endloop
endfacet
facet normal -0.866471 -0.499227 0.000000
outer loop
vertex 0.000102 0.000734 0.150000
vertex 0.000196 0.000570 0.000000
vertex 0.000196 0.000570 0.150000
endloop
endfacet
facet normal 0.803646 -0.595107 0.000000
outer loop
vertex 0.008130 0.001270 0.150000
vertex 0.008130 0.001270 0.000000
vertex 0.008183 0.001343 0.000000
endloop
endfacet
facet normal 0.803638 -0.595118 0.000000
outer loop
vertex 0.008130 0.001270 0.150000
vertex 0.008183 0.001343 0.000000
vertex 0.008183 0.001343 0.150000
endloop
endfacet
facet normal 0.000000 0.000000 1.000000
outer loop
vertex 0.002710 0.007086 0.000000
vertex 0.002681 0.006883 0.000000
vertex 0.002618 0.006197 0.000000
endloop
endfacet
facet normal -0.992986 0.118228 0.000000
outer loop
vertex 0.002618 0.006197 0.000000
vertex 0.002610 0.006123 0.000000
vertex 0.002610 0.006123 0.150000
endloop
endfacet
facet normal -0.992986 0.118233 0.000000
outer loop
vertex 0.002618 0.006197 0.000000
vertex 0.002610 0.006123 0.150000
vertex 0.002618 0.006197 0.150000
endloop
endfacet
facet normal -0.994788 0.101969 0.000000
outer loop
vertex 0.002710 0.007086 0.150000
vertex 0.002710 0.007086 0.000000
vertex 0.002618 0.006197 0.000000
endloop
endfacet
facet normal -0.995890 0.090565 0.000000
outer loop
vertex 0.002618 0.006197 0.000000
vertex 0.002618 0.006197 0.150000
vertex 0.002681 0.006883 0.150000
endloop
endfacet
facet normal -0.990120 0.140222 -0.000230
outer loop
vertex 0.002618 0.006197 0.000000
vertex 0.002681 0.006883 0.150000
vertex 0.002710 0.007086 0.150000
endloop
endfacet
facet normal -0.801773 0.597628 0.000000
outer loop
vertex 0.000431 0.003391 0.150000
vertex 0.000431 0.003391 0.000000
vertex 0.000353 0.003286 0.000000
endloop
endfacet
facet normal 0.000000 0.000000 1.000000
outer loop
vertex 0.000353 0.003286 0.000000
vertex 0.000288 0.003190 0.000000
vertex 0.000240 0.003113 0.000000
endloop
endfacet
facet normal -0.868717 0.495308 0.000000
outer loop
vertex 0.000240 0.003113 0.000000
vertex 0.000199 0.003041 0.000000
vertex 0.000199 0.003041 0.150000
endloop
endfacet
facet normal -0.868717 0.495309 0.000000
outer loop
vertex 0.000240 0.003113 0.000000
vertex 0.000199 0.003041 0.150000
vertex 0.000240 0.003113 0.150000
endloop
endfacet
facet normal -0.838591 0.544761 0.000056
outer loop
vertex 0.000431 0.003391 0.150000
vertex 0.000353 0.003286 0.000000
vertex 0.000240 0.003113 0.000000
endloop
endfacet
facet normal -0.801774 0.597628 -0.000089
outer loop
vertex 0.000353 0.003286 0.150000
vertex 0.000431 0.003391 0.150000
vertex 0.000240 0.003113 0.000000
endloop
endfacet
facet normal -0.849919 0.526914 0.000000
outer loop
vertex 0.000240 0.003113 0.000000
vertex 0.000240 0.003113 0.150000
vertex 0.000288 0.003190 0.150000
endloop
endfacet
facet normal -0.829327 0.558764 -0.000023
outer loop
vertex 0.000240 0.003113 0.000000
vertex 0.000288 0.003190 0.150000
vertex 0.000353 0.003286 0.150000
endloop
endfacet
facet normal -0.012458 0.999922 0.000000
outer loop
vertex 0.003460 0.008189 0.150000
vertex 0.003460 0.008189 0.000000
vertex 0.003406 0.008189 0.000000
endloop
endfacet
facet normal -0.012458 0.999922 0.000000
outer loop
vertex 0.003460 0.008189 0.150000
vertex 0.003406 0.008189 0.000000
vertex 0.003406 0.008189 0.150000
endloop
endfacet
facet normal 0.000000 0.000000 -1.000000
outer loop
vertex 0.008388 0.001849 0.000000
vertex 0.008439 0.001984 0.000000
vertex 0.008581 0.002331 0.000000
endloop
endfacet
facet normal 0.948965 -0.315383 0.000000
outer loop
vertex 0.008581 0.002331 0.000000
vertex 0.008618 0.002442 0.000000
vertex 0.008618 0.002442 0.150000
endloop
endfacet
facet normal 0.948968 -0.315371 0.000000
outer loop
vertex 0.008581 0.002331 0.000000
vertex 0.008618 0.002442 0.150000
vertex 0.008581 0.002331 0.150000
endloop
endfacet
facet normal 0.000000 0.000000 -1.000000
outer loop
vertex 0.008287 0.001552 0.000000
vertex 0.008388 0.001849 0.000000
vertex 0.008581 0.002331 0.000000
endloop
endfacet
facet normal 0.916683 -0.399615 0.000000
outer loop
vertex 0.008236 0.001435 0.150000
vertex 0.008236 0.001435 0.000000
vertex 0.008287 0.001552 0.000000
endloop
endfacet
facet normal 0.916683 -0.399615 0.000000
outer loop
vertex 0.008287 0.001552 0.150000
vertex 0.008236 0.001435 0.150000
vertex 0.008287 0.001552 0.000000
endloop
endfacet
facet normal 0.935329 -0.353779 0.000000
outer loop
vertex 0.008287 0.001552 0.000000
vertex 0.008581 0.002331 0.000000
vertex 0.008581 0.002331 0.150000
endloop
endfacet
facet normal 0.925828 -0.377945 0.000144
outer loop
vertex 0.008287 0.001552 0.000000
vertex 0.008581 0.002331 0.150000
vertex 0.008439 0.001984 0.150000
endloop
endfacet
facet normal 0.946545 -0.322573 0.000000
outer loop
vertex 0.008388 0.001849 0.150000
vertex 0.008287 0.001552 0.150000
vertex 0.008287 0.001552 0.000000
endloop
endfacet
facet normal 0.933698 -0.358063 0.000079
outer loop
vertex 0.008439 0.001984 0.150000
vertex 0.008388 0.001849 0.150000
vertex 0.008287 0.001552 0.000000
endloop
endfacet
facet normal -0.697554 0.716532 0.000000
outer loop
vertex 0.000622 0.003596 0.000000
vertex 0.000522 0.003499 0.000000
vertex 0.000522 0.003499 0.150000
endloop
endfacet
facet normal -0.697553 0.716533 0.000000
outer loop
vertex 0.000622 0.003596 0.000000
vertex 0.000522 0.003499 0.150000
vertex 0.000622 0.003596 0.150000
endloop
endfacet
facet normal 0.871477 -0.490437 0.000000
outer loop
vertex 0.008183 0.001343 0.150000
vertex 0.008183 0.001343 0.000000
vertex 0.008236 0.001435 0.000000
endloop
endfacet
facet normal 0.871477 -0.490437 0.000000
outer loop
vertex 0.008183 0.001343 0.150000
vertex 0.008236 0.001435 0.000000
vertex 0.008236 0.001435 0.150000
endloop
endfacet
facet normal 0.998947 -0.045886 0.000000
outer loop
vertex 0.008664 0.002679 0.150000
vertex 0.008664 0.002679 0.000000
vertex 0.008671 0.002814 0.000000
endloop
endfacet
facet normal 0.998946 -0.045897 0.000000
outer loop
vertex 0.008664 0.002679 0.150000
vertex 0.008671 0.002814 0.000000
vertex 0.008671 0.002814 0.150000
endloop
endfacet
facet normal -0.112571 -0.993644 0.000000
outer loop
vertex 0.001349 0.000174 0.000000
vertex 0.002747 0.000016 0.000000
vertex 0.002747 0.000016 0.150000
endloop
endfacet
facet normal -0.112571 -0.993644 0.000000
outer loop
vertex 0.001349 0.000174 0.000000
vertex 0.002747 0.000016 0.150000
vertex 0.001349 0.000174 0.150000
endloop
endfacet
facet normal 0.712561 -0.701610 0.000000
outer loop
vertex 0.008074 0.001214 0.150000
vertex 0.008074 0.001214 0.000000
vertex 0.008130 0.001270 0.000000
endloop
endfacet
facet normal 0.712571 -0.701600 0.000000
outer loop
vertex 0.008074 0.001214 0.150000
vertex 0.008130 0.001270 0.000000
vertex 0.008130 0.001270 0.150000
endloop
endfacet
facet normal 0.846898 0.531756 0.000000
outer loop
vertex 0.008082 0.004892 0.150000
vertex 0.008082 0.004892 0.000000
vertex 0.007992 0.005036 0.000000
endloop
endfacet
facet normal 0.846894 0.531762 0.000000
outer loop
vertex 0.008082 0.004892 0.150000
vertex 0.007992 0.005036 0.000000
vertex 0.007992 0.005036 0.150000
endloop
endfacet
facet normal 0.970723 -0.240200 0.000000
outer loop
vertex 0.008618 0.002442 0.150000
vertex 0.008618 0.002442 0.000000
vertex 0.008646 0.002556 0.000000
endloop
endfacet
facet normal 0.970723 -0.240200 0.000000
outer loop
vertex 0.008618 0.002442 0.150000
vertex 0.008646 0.002556 0.000000
vertex 0.008646 0.002556 0.150000
endloop
endfacet
facet normal 0.000000 0.000000 1.000000
outer loop
vertex 0.002076 0.004940 0.000000
vertex 0.001961 0.004780 0.000000
vertex 0.001906 0.004700 0.000000
endloop
endfacet
facet normal 0.000000 0.000000 1.000000
outer loop
vertex 0.001906 0.004700 0.000000
vertex 0.001864 0.004633 0.000000
vertex 0.001832 0.004577 0.000000
endloop
endfacet
facet normal 0.000000 0.000000 1.000000
outer loop
vertex 0.001906 0.004700 0.000000
vertex 0.001832 0.004577 0.000000
vertex 0.001784 0.004485 0.000000
endloop
endfacet
facet normal 0.000000 0.000000 1.000000
outer loop
vertex 0.002076 0.004940 0.000000
vertex 0.001906 0.004700 0.000000
vertex 0.001784 0.004485 0.000000
endloop
endfacet
facet normal -0.818472 0.574547 0.000000
outer loop
vertex 0.001761 0.004444 0.000000
vertex 0.001732 0.004404 0.000000
vertex 0.001732 0.004404 0.150000
endloop
endfacet
facet normal 0.000000 0.000000 1.000000
outer loop
vertex 0.002076 0.004940 0.000000
vertex 0.001784 0.004485 0.000000
vertex 0.001761 0.004444 0.000000
endloop
endfacet
facet normal 0.000000 0.000000 1.000000
outer loop
vertex 0.002126 0.005011 0.000000
vertex 0.002076 0.004940 0.000000
vertex 0.001761 0.004444 0.000000
endloop
endfacet
facet normal -0.818475 0.574541 0.000000
outer loop
vertex 0.001761 0.004444 0.000000
vertex 0.001732 0.004404 0.150000
vertex 0.001761 0.004444 0.150000
endloop
endfacet
facet normal -0.863221 0.504826 0.000000
outer loop
vertex 0.001761 0.004444 0.000000
vertex 0.001761 0.004444 0.150000
vertex 0.001784 0.004485 0.150000
endloop
endfacet
facet normal 0.000000 0.000000 1.000000
outer loop
vertex 0.002172 0.005078 0.000000
vertex 0.002126 0.005011 0.000000
vertex 0.001761 0.004444 0.000000
endloop
endfacet
facet normal 0.000000 0.000000 1.000000
outer loop
vertex 0.002215 0.005143 0.000000
vertex 0.002172 0.005078 0.000000
vertex 0.001761 0.004444 0.000000
endloop
endfacet
facet normal -0.885792 0.464084 0.000015
outer loop
vertex 0.001761 0.004444 0.000000
vertex 0.001784 0.004485 0.150000
vertex 0.001832 0.004577 0.150000
endloop
endfacet
facet normal -0.872257 0.489048 -0.000014
outer loop
vertex 0.001761 0.004444 0.000000
vertex 0.001832 0.004577 0.150000
vertex 0.001864 0.004633 0.150000
endloop
endfacet
facet normal -0.838308 0.545197 -0.000108
outer loop
vertex 0.002215 0.005143 0.000000
vertex 0.001761 0.004444 0.000000
vertex 0.001864 0.004633 0.150000
endloop
endfacet
facet normal -0.849549 0.527510 -0.000195
outer loop
vertex 0.002215 0.005143 0.000000
vertex 0.001864 0.004633 0.150000
vertex 0.001906 0.004700 0.150000
endloop
endfacet
facet normal -0.845609 0.533803 -0.000168
outer loop
vertex 0.002255 0.005207 0.000000
vertex 0.002215 0.005143 0.000000
vertex 0.001906 0.004700 0.150000
endloop
endfacet
facet normal -0.823442 0.567401 -0.000003
outer loop
vertex 0.002255 0.005207 0.000000
vertex 0.001906 0.004700 0.150000
vertex 0.001961 0.004780 0.150000
endloop
endfacet
facet normal -0.873111 0.487522 0.000000
outer loop
vertex 0.002330 0.005337 0.150000
vertex 0.002330 0.005337 0.000000
vertex 0.002294 0.005271 0.000000
endloop
endfacet
facet normal -0.859094 0.511817 -0.000231
outer loop
vertex 0.002294 0.005271 0.000000
vertex 0.002255 0.005207 0.000000
vertex 0.001961 0.004780 0.150000
endloop
endfacet
facet normal -0.811779 0.583965 0.000110
outer loop
vertex 0.002294 0.005271 0.000000
vertex 0.001961 0.004780 0.150000
vertex 0.002076 0.004940 0.150000
endloop
endfacet
facet normal -0.873111 0.487522 0.000000
outer loop
vertex 0.002294 0.005271 0.150000
vertex 0.002330 0.005337 0.150000
vertex 0.002294 0.005271 0.000000
endloop
endfacet
facet normal -0.859092 0.511821 0.000000
outer loop
vertex 0.002255 0.005207 0.150000
vertex 0.002294 0.005271 0.150000
vertex 0.002294 0.005271 0.000000
endloop
endfacet
facet normal -0.817050 0.576566 0.000086
outer loop
vertex 0.002294 0.005271 0.000000
vertex 0.002076 0.004940 0.150000
vertex 0.002126 0.005011 0.150000
endloop
endfacet
facet normal -0.824011 0.566573 0.000061
outer loop
vertex 0.002294 0.005271 0.000000
vertex 0.002126 0.005011 0.150000
vertex 0.002172 0.005078 0.150000
endloop
endfacet
facet normal -0.845611 0.533799 0.000013
outer loop
vertex 0.002215 0.005143 0.150000
vertex 0.002255 0.005207 0.150000
vertex 0.002294 0.005271 0.000000
endloop
endfacet
facet normal -0.833658 0.552281 0.000035
outer loop
vertex 0.002172 0.005078 0.150000
vertex 0.002215 0.005143 0.150000
vertex 0.002294 0.005271 0.000000
endloop
endfacet
facet normal -0.546000 0.837785 0.000000
outer loop
vertex 0.003363 0.008173 0.000000
vertex 0.003175 0.008050 0.000000
vertex 0.003175 0.008050 0.150000
endloop
endfacet
facet normal -0.546001 0.837785 0.000000
outer loop
vertex 0.003363 0.008173 0.000000
vertex 0.003175 0.008050 0.150000
vertex 0.003363 0.008173 0.150000
endloop
endfacet
facet normal -0.990902 -0.134585 0.000000
outer loop
vertex 0.000009 0.001178 0.150000
vertex 0.000009 0.001178 0.000000
vertex 0.000041 0.000940 0.000000
endloop
endfacet
facet normal -0.990902 -0.134585 0.000000
outer loop
vertex 0.000009 0.001178 0.150000
vertex 0.000041 0.000940 0.000000
vertex 0.000041 0.000940 0.150000
endloop
endfacet
facet normal 0.410202 -0.911994 0.000000
outer loop
vertex 0.007096 0.000628 0.000000
vertex 0.007212 0.000680 0.000000
vertex 0.007212 0.000680 0.150000
endloop
endfacet
facet normal 0.410198 -0.911996 0.000000
outer loop
vertex 0.007096 0.000628 0.000000
vertex 0.007212 0.000680 0.150000
vertex 0.007096 0.000628 0.150000
endloop
endfacet
facet normal 0.372003 -0.928231 0.000000
outer loop
vertex 0.006973 0.000578 0.000000
vertex 0.007096 0.000628 0.000000
vertex 0.007096 0.000628 0.150000
endloop
endfacet
facet normal 0.372003 -0.928231 0.000000
outer loop
vertex 0.006973 0.000578 0.000000
vertex 0.007096 0.000628 0.150000
vertex 0.006973 0.000578 0.150000
endloop
endfacet
facet normal 0.310107 -0.950702 0.000000
outer loop
vertex 0.006702 0.000486 0.150000
vertex 0.006702 0.000486 0.000000
vertex 0.006842 0.000531 0.000000
endloop
endfacet
facet normal 0.338709 -0.940891 0.000000
outer loop
vertex 0.006842 0.000531 0.000000
vertex 0.006973 0.000578 0.000000
vertex 0.006973 0.000578 0.150000
endloop
endfacet
facet normal 0.310107 -0.950702 0.000000
outer loop
vertex 0.006842 0.000531 0.150000
vertex 0.006702 0.000486 0.150000
vertex 0.006842 0.000531 0.000000
endloop
endfacet
facet normal 0.338706 -0.940892 0.000000
outer loop
vertex 0.006973 0.000578 0.150000
vertex 0.006842 0.000531 0.150000
vertex 0.006842 0.000531 0.000000
endloop
endfacet
endsolid Exported from Blender-3.6.8
