ply
format ascii 1.0
comment Created by Blender 3.6.8 - www.blender.org
element vertex 148
property float x
property float y
property float z
element face 292
property list uchar uint vertex_indices
end_header
0.005548 0.005637 0.000000
0.005610 0.005632 0.000000
0.005665 0.005611 0.000000
0.005748 0.005567 0.000000
0.005853 0.005504 0.000000
0.005975 0.005427 0.000000
0.006110 0.005338 0.000000
0.006251 0.005242 0.000000
0.006394 0.005142 0.000000
0.006534 0.005043 0.000000
0.006664 0.004948 0.000000
0.006781 0.004861 0.000000
0.006878 0.004787 0.000000
0.006950 0.004727 0.000000
0.004131 0.005570 0.000000
0.000844 0.003482 0.000000
0.002153 0.004421 0.000000
0.000305 0.002918 0.000000
0.000525 0.003187 0.000000
0.000013 0.001651 0.000000
0.000209 0.002686 0.000000
0.000004 0.001388 0.000000
0.000001 0.001515 0.000000
0.000071 0.001155 0.000000
0.000026 0.001268 0.000000
0.000242 0.000945 0.000000
0.000141 0.001048 0.000000
0.000598 0.000731 0.000000
0.000391 0.000841 0.000000
0.001136 0.000504 0.000000
0.000850 0.000617 0.000000
0.001759 0.000292 0.000000
0.001443 0.000394 0.000000
0.002370 0.000121 0.000000
0.002072 0.000199 0.000000
0.003052 0.000000 0.000000
0.002641 0.000059 0.000000
0.003311 0.000038 0.000000
0.003169 0.000010 0.000000
0.007020 0.004674 0.000000
0.003563 0.000072 0.000000
0.004767 0.000199 0.000000
0.007113 0.004615 0.000000
0.007315 0.000418 0.000000
0.007225 0.004551 0.000000
0.007977 0.004146 0.000000
0.008144 0.004051 0.000000
0.008311 0.003952 0.000000
0.008896 0.003534 0.000000
0.009103 0.003344 0.000000
0.009267 0.003162 0.000000
0.009742 0.002448 0.000000
0.009791 0.002341 0.000000
0.009827 0.002238 0.000000
0.009849 0.002139 0.000000
0.009860 0.002042 0.000000
0.009857 0.001851 0.000000
0.009753 0.001223 0.000000
0.009721 0.001129 0.000000
0.009680 0.001048 0.000000
0.009631 0.000978 0.000000
0.009575 0.000917 0.000000
0.009513 0.000862 0.000000
0.008995 0.000517 0.000000
0.008898 0.000480 0.000000
0.008787 0.000453 0.000000
0.008535 0.000428 0.000000
0.008397 0.000425 0.000000
0.008253 0.000427 0.000000
0.008106 0.000430 0.000000
0.007956 0.000434 0.000000
0.007514 0.000431 0.000000
0.007658 0.000437 0.000000
0.007806 0.000437 0.000000
0.009680 0.001048 0.150000
0.009721 0.001129 0.150000
0.005665 0.005611 0.150000
0.005610 0.005632 0.150000
0.000004 0.001388 0.150000
0.000026 0.001268 0.150000
0.009849 0.002139 0.150000
0.009827 0.002238 0.150000
0.000305 0.002918 0.150000
0.000209 0.002686 0.150000
0.000844 0.003482 0.150000
0.002153 0.004421 0.150000
0.005748 0.005567 0.150000
0.005548 0.005637 0.150000
0.004131 0.005570 0.150000
0.000525 0.003187 0.150000
0.000013 0.001651 0.150000
0.000001 0.001515 0.150000
0.000071 0.001155 0.150000
0.000141 0.001048 0.150000
0.000242 0.000945 0.150000
0.000391 0.000841 0.150000
0.000598 0.000731 0.150000
0.000850 0.000617 0.150000
0.001136 0.000504 0.150000
0.001443 0.000394 0.150000
0.001759 0.000292 0.150000
0.002072 0.000199 0.150000
0.002370 0.000121 0.150000
0.002641 0.000059 0.150000
0.003052 0.000000 0.150000
0.003169 0.000010 0.150000
0.003311 0.000038 0.150000
0.005975 0.005427 0.150000
0.005853 0.005504 0.150000
0.006251 0.005242 0.150000
0.006110 0.005338 0.150000
0.006534 0.005043 0.150000
0.006394 0.005142 0.150000
0.006781 0.004861 0.150000
0.006664 0.004948 0.150000
0.006950 0.004727 0.150000
0.006878 0.004787 0.150000
0.003563 0.000072 0.150000
0.004767 0.000199 0.150000
0.007020 0.004674 0.150000
0.007113 0.004615 0.150000
0.007315 0.000418 0.150000
0.007514 0.000431 0.150000
0.007225 0.004551 0.150000
0.008144 0.004051 0.150000
0.007977 0.004146 0.150000
0.008896 0.003534 0.150000
0.008311 0.003952 0.150000
0.009267 0.003162 0.150000
0.009103 0.003344 0.150000
0.009791 0.002341 0.150000
0.009742 0.002448 0.150000
0.009857 0.001851 0.150000
0.009860 0.002042 0.150000
0.009753 0.001223 0.150000
0.009631 0.000978 0.150000
0.009513 0.000862 0.150000
0.009575 0.000917 0.150000
0.008898 0.000480 0.150000
0.008995 0.000517 0.150000
0.008535 0.000428 0.150000
0.008787 0.000453 0.150000
0.008253 0.000427 0.150000
0.008397 0.000425 0.150000
0.007956 0.000434 0.150000
0.008106 0.000430 0.150000
0.007658 0.000437 0.150000
0.007806 0.000437 0.150000
3 0 1 2
3 2 3 4
3 4 5 6
3 6 7 8
3 8 9 10
3 10 11 12
3 10 12 13
3 6 8 10
3 2 4 6
3 14 0 2
3 15 16 14
3 17 18 15
3 19 20 17
3 21 22 19
3 23 24 21
3 25 26 23
3 27 28 25
3 29 30 27
3 31 32 29
3 33 34 31
3 35 36 33
3 37 38 35
3 37 35 33
3 33 31 29
3 29 27 25
3 25 23 21
3 21 19 17
3 17 15 14
3 14 2 6
3 6 10 13
3 6 13 39
3 17 14 6
3 25 21 17
3 33 29 25
3 40 37 33
3 41 40 33
3 33 25 17
3 17 6 39
3 17 39 42
3 41 33 17
3 43 41 17
3 17 42 44
3 44 45 46
3 46 47 48
3 48 49 50
3 50 51 52
3 52 53 54
3 54 55 56
3 56 57 58
3 58 59 60
3 60 61 62
3 62 63 64
3 64 65 66
3 66 67 68
3 68 69 70
3 66 68 70
3 62 64 66
3 58 60 62
3 54 56 58
3 50 52 54
3 46 48 50
3 17 44 46
3 71 43 17
3 72 71 17
3 17 46 50
3 50 54 58
3 58 62 66
3 66 70 73
3 73 72 17
3 17 50 58
3 58 66 73
3 58 73 17
3 74 59 58
3 74 58 75
3 76 2 1
3 76 1 77
3 78 21 24
3 78 24 79
3 80 54 53
3 80 53 81
3 82 17 20
3 82 20 83
3 16 15 84
3 16 84 85
3 86 76 77
3 77 87 88
3 88 85 84
3 84 89 82
3 82 83 90
3 90 91 78
3 78 79 92
3 92 93 94
3 94 95 96
3 96 97 98
3 98 99 100
3 100 101 102
3 102 103 104
3 104 105 106
3 102 104 106
3 98 100 102
3 94 96 98
3 78 92 94
3 82 90 78
3 88 84 82
3 86 77 88
3 107 108 86
3 109 110 107
3 111 112 109
3 113 114 111
3 115 116 113
3 115 113 111
3 111 109 107
3 107 86 88
3 88 82 78
3 78 94 98
3 98 102 106
3 98 106 117
3 88 78 98
3 111 107 88
3 115 111 88
3 88 98 117
3 88 117 118
3 119 115 88
3 120 119 88
3 88 118 121
3 88 121 122
3 123 120 88
3 124 125 123
3 126 127 124
3 128 129 126
3 130 131 128
3 80 81 130
3 132 133 80
3 75 134 132
3 135 74 75
3 136 137 135
3 138 139 136
3 140 141 138
3 142 143 140
3 144 145 142
3 144 142 140
3 140 138 136
3 136 135 75
3 75 132 80
3 80 130 128
3 128 126 124
3 124 123 88
3 88 122 146
3 147 144 140
3 88 146 147
3 128 124 88
3 75 80 128
3 140 136 75
3 88 147 140
3 75 128 88
3 88 140 75
3 63 62 136
3 63 136 139
3 67 66 140
3 67 140 143
3 68 67 143
3 68 143 142
3 73 70 69
3 69 68 142
3 69 142 145
3 72 73 69
3 122 71 72
3 146 122 72
3 72 69 145
3 72 145 144
3 147 146 72
3 144 147 72
3 137 61 60
3 137 60 135
3 7 6 5
3 5 4 3
3 3 86 108
3 3 108 107
3 7 5 3
3 9 8 7
3 11 10 9
3 13 12 11
3 119 39 13
3 115 119 13
3 13 11 9
3 9 7 3
3 3 107 110
3 3 110 109
3 13 9 3
3 116 115 13
3 113 116 13
3 13 3 109
3 13 109 112
3 114 113 13
3 13 112 111
3 111 114 13
3 57 56 132
3 57 132 134
3 95 28 27
3 95 27 96
3 45 44 42
3 42 39 119
3 42 119 120
3 45 42 120
3 45 120 123
3 127 47 46
3 46 45 123
3 46 123 125
3 124 127 46
3 125 124 46
3 92 23 26
3 92 26 93
3 14 16 85
3 14 85 88
3 75 58 57
3 75 57 134
3 36 35 104
3 36 104 103
3 33 36 103
3 33 103 102
3 34 33 102
3 34 102 101
3 99 32 31
3 31 34 101
3 100 99 31
3 101 100 31
3 20 19 90
3 20 90 83
3 135 60 59
3 135 59 74
3 128 50 49
3 128 49 129
3 29 32 99
3 29 99 98
3 96 27 30
3 30 29 98
3 97 96 30
3 30 98 97
3 89 18 17
3 89 17 82
3 132 56 55
3 132 55 133
3 138 64 63
3 138 63 139
3 43 71 122
3 43 122 121
3 41 43 121
3 41 121 118
3 106 37 40
3 40 41 118
3 117 106 40
3 118 117 40
3 90 19 22
3 90 22 91
3 48 47 127
3 48 127 126
3 79 24 23
3 79 23 92
3 130 52 51
3 130 51 131
3 91 22 21
3 91 21 78
3 129 49 48
3 129 48 126
3 133 55 54
3 133 54 80
3 81 53 52
3 81 52 130
3 51 50 128
3 51 128 131
3 77 1 0
3 77 0 87
3 93 26 25
3 93 25 94
3 94 25 28
3 94 28 95
3 136 62 61
3 136 61 137
3 141 65 64
3 141 64 138
3 84 15 18
3 84 18 89
3 140 66 65
3 140 65 141
3 104 35 38
3 104 38 105
3 86 3 2
3 86 2 76
3 105 38 37
3 105 37 106
3 0 14 88
3 0 88 87
