ply
format ascii 1.0
comment Created by Blender 3.6.8 - www.blender.org
element vertex 160
property float x
property float y
property float z
element face 309
property list uchar uint vertex_indices
end_header
0.007671 0.005986 0.000000
0.007701 0.005611 0.000000
0.007664 0.003824 0.000000
0.007648 0.003625 0.000000
0.007627 0.003430 0.000000
0.007603 0.003239 0.000000
0.007574 0.003054 0.000000
0.007501 0.002705 0.000000
0.007451 0.002544 0.000000
0.007385 0.002393 0.000000
0.007213 0.002112 0.000000
0.007109 0.001980 0.000000
0.006996 0.001851 0.000000
0.006876 0.001723 0.000000
0.006485 0.001330 0.000000
0.006350 0.001191 0.000000
0.006216 0.001045 0.000000
0.006081 0.000902 0.000000
0.005946 0.000773 0.000000
0.007638 0.006169 0.000000
0.007522 0.006526 0.000000
0.007590 0.006349 0.000000
0.007317 0.006868 0.000000
0.007432 0.006699 0.000000
0.006999 0.007193 0.000000
0.007174 0.007032 0.000000
0.006279 0.007771 0.000000
0.006627 0.007497 0.000000
0.005963 0.008004 0.000000
0.006117 0.007893 0.000000
0.005446 0.008311 0.000000
0.005683 0.008187 0.000000
0.005256 0.008365 0.000000
0.005345 0.008347 0.000000
0.000923 0.005827 0.000000
0.002901 0.008480 0.000000
0.000415 0.005095 0.000000
0.000642 0.005430 0.000000
0.000191 0.004700 0.000000
0.000258 0.004844 0.000000
0.000038 0.003970 0.000000
0.000063 0.004119 0.000000
0.000000 0.003476 0.000000
0.000018 0.003812 0.000000
0.000059 0.002939 0.000000
0.000025 0.003121 0.000000
0.000182 0.002434 0.000000
0.000141 0.002593 0.000000
0.000271 0.002137 0.000000
0.000225 0.002282 0.000000
0.000436 0.001722 0.000000
0.000375 0.001858 0.000000
0.000579 0.001452 0.000000
0.000503 0.001587 0.000000
0.000852 0.001038 0.000000
0.000663 0.001316 0.000000
0.001019 0.000786 0.000000
0.000937 0.000908 0.000000
0.001192 0.000568 0.000000
0.001102 0.000672 0.000000
0.001407 0.000388 0.000000
0.001292 0.000473 0.000000
0.001705 0.000252 0.000000
0.001543 0.000314 0.000000
0.002122 0.000162 0.000000
0.001896 0.000201 0.000000
0.003887 0.000017 0.000000
0.002389 0.000135 0.000000
0.004261 0.000000 0.000000
0.004084 0.000006 0.000000
0.004673 0.000029 0.000000
0.004557 0.000011 0.000000
0.004851 0.000093 0.000000
0.004765 0.000057 0.000000
0.005053 0.000183 0.000000
0.004948 0.000134 0.000000
0.005412 0.000376 0.000000
0.005166 0.000239 0.000000
0.005674 0.000552 0.000000
0.005541 0.000458 0.000000
0.007213 0.002112 0.150000
0.007109 0.001980 0.150000
0.006996 0.001851 0.150000
0.006876 0.001723 0.150000
0.006485 0.001330 0.150000
0.005946 0.000773 0.150000
0.006081 0.000902 0.150000
0.006216 0.001045 0.150000
0.006350 0.001191 0.150000
0.005446 0.008311 0.150000
0.005683 0.008187 0.150000
0.007590 0.006349 0.150000
0.007522 0.006526 0.150000
0.007603 0.003239 0.150000
0.007574 0.003054 0.150000
0.007664 0.003824 0.150000
0.007648 0.003625 0.150000
0.007627 0.003430 0.150000
0.001705 0.000252 0.150000
0.001896 0.000201 0.150000
0.005674 0.000552 0.150000
0.007432 0.006699 0.150000
0.007317 0.006868 0.150000
0.005963 0.008004 0.150000
0.005345 0.008347 0.150000
0.005256 0.008365 0.150000
0.002901 0.008480 0.150000
0.000923 0.005827 0.150000
0.000642 0.005430 0.150000
0.000415 0.005095 0.150000
0.000258 0.004844 0.150000
0.000191 0.004700 0.150000
0.000063 0.004119 0.150000
0.000038 0.003970 0.150000
0.000018 0.003812 0.150000
0.000000 0.003476 0.150000
0.000025 0.003121 0.150000
0.000059 0.002939 0.150000
0.000141 0.002593 0.150000
0.000182 0.002434 0.150000
0.000225 0.002282 0.150000
0.000271 0.002137 0.150000
0.000375 0.001858 0.150000
0.000436 0.001722 0.150000
0.000503 0.001587 0.150000
0.000579 0.001452 0.150000
0.000663 0.001316 0.150000
0.000852 0.001038 0.150000
0.000937 0.000908 0.150000
0.001019 0.000786 0.150000
0.006117 0.007893 0.150000
0.006627 0.007497 0.150000
0.006279 0.007771 0.150000
0.007174 0.007032 0.150000
0.006999 0.007193 0.150000
0.007671 0.005986 0.150000
0.007638 0.006169 0.150000
0.007701 0.005611 0.150000
0.007451 0.002544 0.150000
0.007501 0.002705 0.150000
0.007385 0.002393 0.150000
0.001102 0.000672 0.150000
0.001192 0.000568 0.150000
0.001292 0.000473 0.150000
0.001407 0.000388 0.150000
0.001543 0.000314 0.150000
0.002122 0.000162 0.150000
0.002389 0.000135 0.150000
0.003887 0.000017 0.150000
0.004084 0.000006 0.150000
0.004261 0.000000 0.150000
0.004557 0.000011 0.150000
0.004673 0.000029 0.150000
0.004765 0.000057 0.150000
0.004851 0.000093 0.150000
0.004948 0.000134 0.150000
0.005053 0.000183 0.150000
0.005166 0.000239 0.150000
0.005412 0.000376 0.150000
0.005541 0.000458 0.150000
3 0 1 2
3 2 3 4
3 4 5 6
3 6 7 8
3 8 9 10
3 10 11 12
3 12 13 14
3 15 16 17
3 10 12 14
3 15 17 18
3 10 14 15
3 6 8 10
3 2 4 6
3 19 0 2
3 20 21 19
3 22 23 20
3 24 25 22
3 26 27 24
3 28 29 26
3 30 31 28
3 32 33 30
3 34 35 32
3 36 37 34
3 38 39 36
3 40 41 38
3 42 43 40
3 44 45 42
3 46 47 44
3 48 49 46
3 50 51 48
3 52 53 50
3 54 55 52
3 56 57 54
3 58 59 56
3 60 61 58
3 62 63 60
3 64 65 62
3 66 67 64
3 68 69 66
3 70 71 68
3 72 73 70
3 74 75 72
3 76 77 74
3 78 79 76
3 15 18 78
3 6 10 15
3 19 2 6
3 22 20 19
3 26 24 22
3 30 28 26
3 34 32 30
3 38 36 34
3 42 40 38
3 46 44 42
3 50 48 46
3 54 52 50
3 58 56 54
3 62 60 58
3 66 64 62
3 70 68 66
3 74 72 70
3 78 76 74
3 6 15 78
3 22 19 6
3 30 26 22
3 38 34 30
3 46 42 38
3 54 50 46
3 62 58 54
3 70 66 62
3 78 74 70
3 22 6 78
3 38 30 22
3 54 46 38
3 70 62 54
3 22 78 70
3 54 38 22
3 70 54 22
3 10 80 81
3 10 81 82
3 13 12 10
3 14 13 10
3 10 82 83
3 10 83 84
3 85 18 17
3 86 85 17
3 15 10 84
3 86 17 15
3 87 86 15
3 15 84 88
3 88 87 15
3 31 30 89
3 31 89 90
3 91 21 20
3 91 20 92
3 93 94 6
3 2 95 96
3 97 93 6
3 2 96 97
3 6 2 97
3 98 62 65
3 98 65 99
3 100 78 18
3 100 18 85
3 101 23 22
3 101 22 102
3 103 28 31
3 103 31 90
3 104 105 106
3 106 107 108
3 108 109 110
3 110 111 112
3 112 113 114
3 114 115 116
3 116 117 118
3 118 119 120
3 120 121 122
3 122 123 124
3 124 125 126
3 127 128 129
3 124 126 127
3 120 122 124
3 116 118 120
3 112 114 116
3 108 110 112
3 104 106 108
3 90 89 104
3 130 103 90
3 131 132 130
3 133 134 131
3 101 102 133
3 91 92 101
3 135 136 91
3 95 137 135
3 97 96 95
3 94 93 97
3 138 139 94
3 80 140 138
3 82 81 80
3 84 83 82
3 86 87 88
3 84 82 80
3 85 86 88
3 88 84 80
3 80 138 94
3 94 97 95
3 95 135 91
3 91 101 133
3 133 131 130
3 130 90 104
3 104 108 112
3 112 116 120
3 120 124 127
3 127 129 141
3 141 142 143
3 143 144 145
3 145 98 99
3 99 146 147
3 147 148 149
3 149 150 151
3 151 152 153
3 153 154 155
3 155 156 157
3 157 158 159
3 159 100 85
3 85 88 80
3 80 94 95
3 95 91 133
3 133 130 104
3 104 112 120
3 120 127 141
3 141 143 145
3 145 99 147
3 147 149 151
3 151 153 155
3 155 157 159
3 159 85 80
3 80 95 133
3 133 104 120
3 120 141 145
3 145 147 151
3 151 155 159
3 159 80 133
3 133 120 145
3 145 151 159
3 145 159 133
3 0 135 137
3 0 137 1
3 102 22 25
3 102 25 133
3 32 35 106
3 32 106 105
3 2 1 137
3 2 137 95
3 92 20 23
3 92 23 101
3 36 39 110
3 36 110 109
3 37 36 109
3 37 109 108
3 106 35 34
3 34 37 108
3 107 106 34
3 34 108 107
3 79 78 100
3 79 100 159
3 157 77 76
3 76 79 159
3 158 157 76
3 76 159 158
3 42 45 116
3 42 116 115
3 110 39 38
3 110 38 111
3 151 71 70
3 151 70 152
3 144 60 63
3 144 63 145
3 150 68 71
3 150 71 151
3 145 63 62
3 145 62 98
3 138 8 7
3 138 7 139
3 40 43 114
3 40 114 113
3 111 38 41
3 41 40 113
3 112 111 41
3 113 112 41
3 69 68 150
3 69 150 149
3 66 69 149
3 66 149 148
3 146 64 67
3 67 66 148
3 147 146 67
3 148 147 67
3 48 51 122
3 48 122 121
3 139 7 6
3 139 6 94
3 114 43 42
3 114 42 115
3 136 19 21
3 136 21 91
3 123 122 51
3 123 51 50
3 52 125 124
3 124 123 50
3 53 52 124
3 50 53 124
3 75 74 77
3 77 157 156
3 77 156 155
3 72 75 77
3 153 73 72
3 77 155 154
3 154 153 72
3 77 154 72
3 89 30 33
3 89 33 104
3 55 54 57
3 56 59 141
3 55 57 56
3 125 52 55
3 126 125 55
3 55 56 141
3 55 141 129
3 127 126 55
3 55 129 128
3 128 127 55
3 141 59 58
3 141 58 142
3 152 70 73
3 152 73 153
3 28 103 130
3 28 130 132
3 27 26 28
3 25 24 27
3 134 133 25
3 28 132 131
3 131 134 25
3 25 27 28
3 28 131 25
3 142 58 61
3 142 61 143
3 140 9 8
3 140 8 138
3 80 10 9
3 80 9 140
3 99 65 64
3 99 64 146
3 143 61 60
3 143 60 144
3 135 0 19
3 135 19 136
3 104 33 32
3 104 32 105
3 47 46 49
3 49 48 121
3 49 121 120
3 44 47 49
3 116 45 44
3 117 116 44
3 44 49 120
3 44 120 119
3 118 117 44
3 119 118 44
