ply
format ascii 1.0
comment Created by Blender 3.6.8 - www.blender.org
element vertex 132
property float x
property float y
property float z
element face 257
property list uchar uint vertex_indices
end_header
0.004132 0.006864 0.150000
0.004132 0.006864 0.000000
0.004107 0.006850 0.000000
0.004107 0.006850 0.150000
0.000136 0.000466 0.150000
0.000136 0.000466 0.000000
0.000172 0.000401 0.000000
0.000172 0.000401 0.150000
0.001055 0.000018 0.150000
0.001055 0.000018 0.000000
0.001186 0.000066 0.000000
0.001186 0.000066 0.150000
0.002132 0.001015 0.000000
0.002213 0.001108 0.000000
0.002213 0.001108 0.150000
0.002132 0.001015 0.150000
0.001465 0.000270 0.000000
0.001863 0.000736 0.000000
0.001863 0.000736 0.150000
0.001465 0.000270 0.150000
0.004094 0.006495 0.000000
0.004094 0.006495 0.150000
0.004075 0.006263 0.150000
0.004075 0.006263 0.000000
0.000501 0.000128 0.150000
0.000501 0.000128 0.000000
0.000596 0.000076 0.000000
0.000596 0.000076 0.150000
0.000025 0.001337 0.150000
0.000025 0.001337 0.000000
0.000002 0.001214 0.000000
0.000002 0.001214 0.150000
0.003773 0.004865 0.000000
0.003753 0.004723 0.000000
0.003739 0.004632 0.000000
0.003718 0.004521 0.000000
0.003687 0.004388 0.000000
0.003644 0.004228 0.000000
0.003585 0.004037 0.000000
0.003409 0.003549 0.000000
0.002392 0.001367 0.000000
0.001323 0.000148 0.000000
0.003792 0.004976 0.000000
0.000929 0.000000 0.000000
0.000811 0.000008 0.000000
0.000700 0.000034 0.000000
0.000272 0.000292 0.000000
0.000217 0.000343 0.000000
0.000108 0.000537 0.000000
0.000069 0.000693 0.000000
0.000056 0.000776 0.000000
0.000046 0.000862 0.000000
0.000027 0.001038 0.000000
0.000016 0.001126 0.000000
0.003801 0.005027 0.000000
0.000119 0.001525 0.000000
0.000270 0.001763 0.000000
0.000464 0.002037 0.000000
0.000687 0.002333 0.000000
0.001169 0.002936 0.000000
0.001888 0.003797 0.000000
0.003821 0.005126 0.000000
0.004058 0.006160 0.000000
0.004046 0.006106 0.000000
0.004067 0.006212 0.000000
0.004154 0.006847 0.000000
0.004154 0.006819 0.000000
0.001938 0.003859 0.000000
0.004147 0.006862 0.000000
0.004024 0.006776 0.000000
0.004070 0.006818 0.000000
0.003647 0.006463 0.000000
0.003717 0.006524 0.000000
0.003509 0.006327 0.000000
0.003578 0.006398 0.000000
0.003379 0.006171 0.000000
0.003443 0.006252 0.000000
0.002524 0.004633 0.000000
0.002957 0.005517 0.000000
0.002347 0.004385 0.000000
0.002461 0.004538 0.000000
0.002501 0.004595 0.000000
0.000069 0.000693 0.150000
0.000056 0.000776 0.150000
0.000046 0.000862 0.150000
0.000027 0.001038 0.150000
0.000016 0.001126 0.150000
0.000108 0.000537 0.150000
0.003821 0.005126 0.150000
0.004046 0.006106 0.150000
0.004058 0.006160 0.150000
0.004067 0.006212 0.150000
0.004154 0.006819 0.150000
0.004154 0.006847 0.150000
0.004147 0.006862 0.150000
0.004070 0.006818 0.150000
0.004024 0.006776 0.150000
0.003717 0.006524 0.150000
0.003647 0.006463 0.150000
0.003578 0.006398 0.150000
0.003509 0.006327 0.150000
0.003443 0.006252 0.150000
0.003379 0.006171 0.150000
0.002957 0.005517 0.150000
0.002524 0.004633 0.150000
0.003801 0.005027 0.150000
0.002501 0.004595 0.150000
0.003792 0.004976 0.150000
0.002461 0.004538 0.150000
0.003739 0.004632 0.150000
0.003753 0.004723 0.150000
0.003773 0.004865 0.150000
0.002347 0.004385 0.150000
0.003718 0.004521 0.150000
0.003644 0.004228 0.150000
0.003687 0.004388 0.150000
0.003409 0.003549 0.150000
0.003585 0.004037 0.150000
0.002392 0.001367 0.150000
0.001323 0.000148 0.150000
0.000811 0.000008 0.150000
0.000929 0.000000 0.150000
0.000700 0.000034 0.150000
0.000272 0.000292 0.150000
0.000217 0.000343 0.150000
0.000270 0.001763 0.150000
0.000119 0.001525 0.150000
0.000687 0.002333 0.150000
0.000464 0.002037 0.150000
0.001888 0.003797 0.150000
0.001169 0.002936 0.150000
0.001938 0.003859 0.150000
3 0 1 2
3 0 2 3
3 4 5 6
3 4 6 7
3 8 9 10
3 8 10 11
3 12 13 14
3 12 14 15
3 16 17 12
3 18 19 16
3 12 15 18
3 12 18 16
3 20 21 22
3 20 22 23
3 24 25 26
3 24 26 27
3 28 29 30
3 28 30 31
3 32 33 34
3 34 35 36
3 36 37 38
3 38 39 40
3 40 13 12
3 17 16 41
3 40 12 17
3 36 38 40
3 32 34 36
3 42 32 36
3 36 40 17
3 17 41 10
3 10 9 43
3 43 44 45
3 45 26 25
3 25 46 47
3 47 6 5
3 5 48 49
3 49 50 51
3 49 51 52
3 47 5 49
3 45 25 47
3 10 43 45
3 36 17 10
3 42 36 10
3 10 45 47
3 47 49 52
3 53 30 29
3 47 52 53
3 42 10 47
3 54 42 47
3 47 53 29
3 29 55 56
3 56 57 58
3 58 59 60
3 56 58 60
3 47 29 56
3 61 54 47
3 62 63 61
3 23 64 62
3 65 66 20
3 20 23 62
3 62 61 47
3 47 56 60
3 47 60 67
3 20 62 47
3 68 65 20
3 2 1 68
3 69 70 2
3 71 72 69
3 73 74 71
3 75 76 73
3 77 78 75
3 77 75 73
3 73 71 69
3 69 2 68
3 68 20 47
3 47 67 79
3 47 79 80
3 69 68 47
3 77 73 69
3 47 80 81
3 81 77 69
3 47 81 69
3 50 49 82
3 50 82 83
3 51 50 83
3 51 83 84
3 52 51 84
3 52 84 85
3 31 30 53
3 53 52 85
3 86 31 53
3 85 86 53
3 87 48 5
3 87 5 4
3 88 89 90
3 90 91 22
3 21 92 93
3 90 22 21
3 88 90 21
3 21 93 94
3 94 0 3
3 3 95 96
3 96 97 98
3 98 99 100
3 100 101 102
3 102 103 104
3 100 102 104
3 96 98 100
3 94 3 96
3 88 21 94
3 105 88 94
3 94 96 100
3 94 100 104
3 105 94 104
3 105 104 106
3 107 105 106
3 107 106 108
3 109 110 111
3 111 107 108
3 111 108 112
3 113 109 111
3 114 115 113
3 116 117 114
3 14 118 116
3 18 15 14
3 119 19 18
3 8 11 119
3 120 121 8
3 27 122 120
3 123 24 27
3 7 124 123
3 87 4 7
3 83 82 87
3 85 84 83
3 28 31 86
3 85 83 87
3 28 86 85
3 125 126 28
3 127 128 125
3 129 130 127
3 111 112 131
3 129 127 125
3 111 131 129
3 114 113 111
3 14 116 114
3 8 119 18
3 18 14 114
3 114 111 129
3 129 125 28
3 28 85 87
3 87 7 123
3 123 27 120
3 120 8 18
3 18 114 129
3 129 28 87
3 87 123 120
3 120 18 129
3 129 87 120
3 27 26 45
3 27 45 122
3 78 77 104
3 78 104 103
3 126 55 29
3 126 29 28
3 92 66 65
3 92 65 93
3 94 68 1
3 94 1 0
3 11 10 41
3 11 41 119
3 75 78 103
3 75 103 102
3 104 77 81
3 104 81 106
3 124 47 46
3 124 46 123
3 74 73 76
3 76 75 102
3 76 102 101
3 99 74 76
3 76 101 100
3 76 100 99
3 46 25 24
3 46 24 123
3 56 125 128
3 56 128 127
3 59 58 56
3 60 59 56
3 56 127 130
3 56 130 129
3 67 60 56
3 67 56 129
3 67 129 131
3 79 67 131
3 79 131 112
3 106 81 80
3 80 79 112
3 108 106 80
3 112 108 80
3 119 41 16
3 119 16 19
3 121 43 9
3 121 9 8
3 64 23 22
3 64 22 91
3 62 64 91
3 62 91 90
3 63 62 90
3 63 90 89
3 61 63 89
3 61 89 88
3 54 61 88
3 54 88 105
3 42 54 105
3 42 105 107
3 32 42 107
3 32 107 111
3 33 32 111
3 33 111 110
3 34 33 110
3 34 110 109
3 115 36 35
3 35 34 109
3 113 115 35
3 109 113 35
3 125 56 55
3 125 55 126
3 95 3 2
3 71 74 99
3 71 99 98
3 95 2 69
3 69 71 98
3 69 98 97
3 96 95 69
3 69 97 96
3 120 44 43
3 120 43 121
3 20 66 92
3 20 92 21
3 122 45 44
3 122 44 120
3 37 36 115
3 37 115 114
3 116 39 38
3 38 37 114
3 117 116 38
3 114 117 38
3 14 13 40
3 14 40 118
3 82 49 48
3 82 48 87
3 39 116 118
3 39 118 40
3 7 6 47
3 7 47 124
3 93 65 68
3 93 68 94
