ply
format ascii 1.0
comment Created by Blender 3.6.8 - www.blender.org
element vertex 258
property float x
property float y
property float z
element face 508
property list uchar uint vertex_indices
end_header
0.004068 0.001646 0.150000
0.004017 0.001499 0.150000
0.004017 0.001499 0.000000
0.004068 0.001646 0.000000
0.004123 0.001820 0.150000
0.004123 0.001820 0.000000
0.004512 0.003172 0.000000
0.004512 0.003172 0.150000
0.004301 0.002417 0.150000
0.004301 0.002417 0.000000
0.006123 0.005653 0.000000
0.006659 0.005978 0.000000
0.006659 0.005978 0.150000
0.006123 0.005653 0.150000
0.005590 0.005367 0.000000
0.005667 0.005413 0.000000
0.005923 0.005542 0.000000
0.005923 0.005542 0.150000
0.005590 0.005367 0.150000
0.005667 0.005413 0.150000
0.004275 0.008249 0.150000
0.004275 0.008249 0.000000
0.004223 0.008221 0.000000
0.004223 0.008221 0.150000
0.002767 0.000023 0.150000
0.002767 0.000023 0.000000
0.002849 0.000057 0.000000
0.002849 0.000057 0.150000
0.004454 0.008264 0.150000
0.004454 0.008264 0.000000
0.004430 0.008271 0.000000
0.004430 0.008271 0.150000
0.006689 0.006117 0.000000
0.006689 0.006117 0.150000
0.006703 0.006270 0.150000
0.006703 0.006270 0.000000
0.006695 0.006459 0.000000
0.006695 0.006459 0.150000
0.000215 0.003812 0.150000
0.000215 0.003812 0.000000
0.000109 0.003545 0.000000
0.000109 0.003545 0.150000
0.006647 0.006671 0.150000
0.006603 0.006780 0.150000
0.006054 0.007656 0.150000
0.005905 0.007825 0.150000
0.005829 0.007891 0.150000
0.005751 0.007943 0.150000
0.005671 0.007979 0.150000
0.005579 0.008006 0.150000
0.005471 0.008036 0.150000
0.005349 0.008066 0.150000
0.005220 0.008096 0.150000
0.004957 0.008154 0.150000
0.004721 0.008202 0.150000
0.004486 0.008249 0.150000
0.004472 0.008257 0.150000
0.006677 0.006563 0.150000
0.004400 0.008274 0.150000
0.004364 0.008273 0.150000
0.004322 0.008265 0.150000
0.004166 0.008181 0.150000
0.004104 0.008125 0.150000
0.004039 0.008053 0.150000
0.003446 0.007323 0.150000
0.003275 0.007125 0.150000
0.005516 0.005315 0.150000
0.003180 0.007019 0.150000
0.003087 0.006919 0.150000
0.005445 0.005261 0.150000
0.005378 0.005206 0.150000
0.005317 0.005152 0.150000
0.002997 0.006824 0.150000
0.005263 0.005101 0.150000
0.002908 0.006734 0.150000
0.005216 0.005055 0.150000
0.002820 0.006647 0.150000
0.002317 0.006166 0.150000
0.002234 0.006085 0.150000
0.005150 0.004985 0.150000
0.002152 0.006006 0.150000
0.002070 0.005933 0.150000
0.001518 0.005483 0.150000
0.001373 0.005342 0.150000
0.001304 0.005264 0.150000
0.005126 0.004958 0.150000
0.001228 0.005171 0.150000
0.001039 0.004937 0.150000
0.000722 0.004534 0.150000
0.000345 0.004049 0.150000
0.000307 0.003987 0.150000
0.000265 0.003912 0.150000
0.000025 0.003205 0.150000
0.000004 0.003014 0.150000
0.000002 0.002812 0.150000
0.000025 0.002601 0.150000
0.000077 0.002384 0.150000
0.000219 0.001969 0.150000
0.000294 0.001778 0.150000
0.000372 0.001597 0.150000
0.000537 0.001268 0.150000
0.000715 0.000980 0.150000
0.000909 0.000731 0.150000
0.001012 0.000622 0.150000
0.001410 0.000275 0.150000
0.001575 0.000156 0.150000
0.001653 0.000111 0.150000
0.001730 0.000074 0.150000
0.001808 0.000047 0.150000
0.001888 0.000028 0.150000
0.001972 0.000019 0.150000
0.002061 0.000019 0.150000
0.002157 0.000028 0.150000
0.002251 0.000036 0.150000
0.005040 0.004797 0.150000
0.004954 0.004633 0.150000
0.002335 0.000033 0.150000
0.004860 0.004448 0.150000
0.002412 0.000025 0.150000
0.002484 0.000014 0.150000
0.002553 0.000004 0.150000
0.004813 0.004355 0.150000
0.004771 0.004266 0.150000
0.002621 0.000000 0.150000
0.002692 0.000005 0.150000
0.002939 0.000112 0.150000
0.003041 0.000191 0.150000
0.003156 0.000298 0.150000
0.003376 0.000524 0.150000
0.003551 0.000717 0.150000
0.003625 0.000805 0.150000
0.003691 0.000889 0.150000
0.003749 0.000971 0.150000
0.003802 0.001051 0.150000
0.003894 0.001214 0.150000
0.003935 0.001298 0.150000
0.003974 0.001387 0.150000
0.004513 0.003186 0.150000
0.004518 0.003224 0.150000
0.004733 0.004185 0.150000
0.004526 0.003283 0.150000
0.004702 0.004114 0.150000
0.004675 0.004042 0.150000
0.004537 0.003359 0.150000
0.004650 0.003955 0.150000
0.004626 0.003858 0.150000
0.004550 0.003448 0.150000
0.004566 0.003547 0.150000
0.004604 0.003756 0.150000
0.004584 0.003650 0.150000
0.003749 0.000971 0.000000
0.003802 0.001051 0.000000
0.003691 0.000889 0.000000
0.003551 0.000717 0.000000
0.003625 0.000805 0.000000
0.003376 0.000524 0.000000
0.003156 0.000298 0.000000
0.003041 0.000191 0.000000
0.002939 0.000112 0.000000
0.002692 0.000005 0.000000
0.002621 0.000000 0.000000
0.002553 0.000004 0.000000
0.002484 0.000014 0.000000
0.002412 0.000025 0.000000
0.003935 0.001298 0.000000
0.003894 0.001214 0.000000
0.003974 0.001387 0.000000
0.004513 0.003186 0.000000
0.002335 0.000033 0.000000
0.004518 0.003224 0.000000
0.002251 0.000036 0.000000
0.004526 0.003283 0.000000
0.004537 0.003359 0.000000
0.002157 0.000028 0.000000
0.002061 0.000019 0.000000
0.001972 0.000019 0.000000
0.001888 0.000028 0.000000
0.001808 0.000047 0.000000
0.001730 0.000074 0.000000
0.001653 0.000111 0.000000
0.001575 0.000156 0.000000
0.001410 0.000275 0.000000
0.001012 0.000622 0.000000
0.000909 0.000731 0.000000
0.000715 0.000980 0.000000
0.000537 0.001268 0.000000
0.000372 0.001597 0.000000
0.000294 0.001778 0.000000
0.000219 0.001969 0.000000
0.000077 0.002384 0.000000
0.000025 0.002601 0.000000
0.000002 0.002812 0.000000
0.000004 0.003014 0.000000
0.000025 0.003205 0.000000
0.000265 0.003912 0.000000
0.000307 0.003987 0.000000
0.000345 0.004049 0.000000
0.000722 0.004534 0.000000
0.001039 0.004937 0.000000
0.001228 0.005171 0.000000
0.001304 0.005264 0.000000
0.001373 0.005342 0.000000
0.001518 0.005483 0.000000
0.002070 0.005933 0.000000
0.004550 0.003448 0.000000
0.002152 0.006006 0.000000
0.004566 0.003547 0.000000
0.002234 0.006085 0.000000
0.002317 0.006166 0.000000
0.002820 0.006647 0.000000
0.004584 0.003650 0.000000
0.004604 0.003756 0.000000
0.002908 0.006734 0.000000
0.004626 0.003858 0.000000
0.004650 0.003955 0.000000
0.002997 0.006824 0.000000
0.003087 0.006919 0.000000
0.004675 0.004042 0.000000
0.004702 0.004114 0.000000
0.003180 0.007019 0.000000
0.003275 0.007125 0.000000
0.004733 0.004185 0.000000
0.004771 0.004266 0.000000
0.003446 0.007323 0.000000
0.004039 0.008053 0.000000
0.004104 0.008125 0.000000
0.004166 0.008181 0.000000
0.004322 0.008265 0.000000
0.004364 0.008273 0.000000
0.004400 0.008274 0.000000
0.004472 0.008257 0.000000
0.004486 0.008249 0.000000
0.004721 0.008202 0.000000
0.004957 0.008154 0.000000
0.005220 0.008096 0.000000
0.005349 0.008066 0.000000
0.005471 0.008036 0.000000
0.005579 0.008006 0.000000
0.005671 0.007979 0.000000
0.005751 0.007943 0.000000
0.005829 0.007891 0.000000
0.005905 0.007825 0.000000
0.006054 0.007656 0.000000
0.006603 0.006780 0.000000
0.006647 0.006671 0.000000
0.006677 0.006563 0.000000
0.004813 0.004355 0.000000
0.004860 0.004448 0.000000
0.005516 0.005315 0.000000
0.005445 0.005261 0.000000
0.004954 0.004633 0.000000
0.005378 0.005206 0.000000
0.005040 0.004797 0.000000
0.005126 0.004958 0.000000
0.005317 0.005152 0.000000
0.005263 0.005101 0.000000
0.005150 0.004985 0.000000
0.005216 0.005055 0.000000
3 0 1 2
3 0 2 3
3 4 0 3
3 4 3 5
3 6 7 8
3 8 4 5
3 9 6 8
3 5 9 8
3 10 11 12
3 10 12 13
3 14 15 16
3 16 10 13
3 16 13 17
3 18 14 16
3 16 17 19
3 19 18 16
3 20 21 22
3 20 22 23
3 24 25 26
3 24 26 27
3 28 29 30
3 28 30 31
3 11 32 33
3 11 33 12
3 34 35 36
3 34 36 37
3 38 39 40
3 38 40 41
3 42 43 44
3 44 45 46
3 46 47 48
3 48 49 50
3 50 51 52
3 52 53 54
3 55 56 28
3 52 54 55
3 48 50 52
3 44 46 48
3 57 42 44
3 34 37 57
3 12 33 34
3 17 13 12
3 19 17 12
3 12 34 57
3 57 44 48
3 48 52 55
3 55 28 31
3 31 58 59
3 59 60 20
3 20 23 61
3 61 62 63
3 61 63 64
3 59 20 61
3 55 31 59
3 57 48 55
3 19 12 57
3 18 19 57
3 57 55 59
3 59 61 64
3 59 64 65
3 18 57 59
3 66 18 59
3 59 65 67
3 59 67 68
3 69 66 59
3 70 69 59
3 70 59 68
3 71 70 68
3 71 68 72
3 73 71 72
3 73 72 74
3 75 73 74
3 76 77 78
3 75 74 76
3 79 75 76
3 76 78 80
3 81 82 83
3 79 76 80
3 81 83 84
3 79 80 81
3 85 79 81
3 81 84 86
3 86 87 88
3 88 89 90
3 90 91 38
3 38 41 92
3 92 93 94
3 94 95 96
3 96 97 98
3 98 99 100
3 100 101 102
3 102 103 104
3 104 105 106
3 106 107 108
3 108 109 110
3 110 111 112
3 110 112 113
3 106 108 110
3 102 104 106
3 98 100 102
3 94 96 98
3 38 92 94
3 88 90 38
3 81 86 88
3 114 85 81
3 115 114 81
3 81 88 38
3 38 94 98
3 98 102 106
3 106 110 113
3 106 113 116
3 38 98 106
3 115 81 38
3 117 115 38
3 38 106 116
3 118 119 120
3 38 116 118
3 121 117 38
3 122 121 38
3 38 118 120
3 120 123 124
3 124 24 27
3 27 125 126
3 126 127 128
3 128 129 130
3 130 131 132
3 132 133 134
3 134 135 136
3 136 1 0
3 0 4 8
3 8 7 137
3 8 137 138
3 136 0 8
3 132 134 136
3 128 130 132
3 27 126 128
3 120 124 27
3 122 38 120
3 139 122 120
3 120 27 128
3 128 132 136
3 136 8 138
3 136 138 140
3 120 128 136
3 141 139 120
3 142 141 120
3 120 136 140
3 120 140 143
3 144 142 120
3 145 144 120
3 120 143 146
3 120 146 147
3 148 145 120
3 120 147 149
3 120 149 148
3 150 151 133
3 150 133 132
3 152 150 132
3 152 132 131
3 129 153 154
3 154 152 131
3 130 129 154
3 131 130 154
3 153 155 156
3 156 157 158
3 158 26 25
3 25 159 160
3 160 161 162
3 160 162 163
3 158 25 160
3 153 156 158
3 152 154 153
3 151 150 152
3 164 165 151
3 2 166 164
3 5 3 2
3 6 9 5
3 167 6 5
3 5 2 164
3 164 151 152
3 152 153 158
3 158 160 163
3 158 163 168
3 164 152 158
3 167 5 164
3 169 167 164
3 164 158 168
3 164 168 170
3 171 169 164
3 172 171 164
3 164 170 173
3 173 174 175
3 175 176 177
3 177 178 179
3 179 180 181
3 181 182 183
3 183 184 185
3 185 186 187
3 187 188 189
3 189 190 191
3 191 192 193
3 193 40 39
3 39 194 195
3 195 196 197
3 197 198 199
3 199 200 201
3 201 202 203
3 199 201 203
3 195 197 199
3 193 39 195
3 189 191 193
3 185 187 189
3 181 183 185
3 177 179 181
3 173 175 177
3 172 164 173
3 204 172 173
3 173 177 181
3 181 185 189
3 189 193 195
3 195 199 203
3 195 203 205
3 181 189 195
3 204 173 181
3 206 204 181
3 181 195 205
3 207 208 209
3 181 205 207
3 210 206 181
3 211 210 181
3 181 207 209
3 181 209 212
3 213 211 181
3 214 213 181
3 181 212 215
3 181 215 216
3 217 214 181
3 218 217 181
3 181 216 219
3 181 219 220
3 221 218 181
3 222 221 181
3 181 220 223
3 223 224 225
3 225 226 22
3 22 21 227
3 227 228 229
3 229 30 29
3 29 230 231
3 231 232 233
3 233 234 235
3 235 236 237
3 237 238 239
3 239 240 241
3 241 242 243
3 243 244 245
3 245 36 35
3 35 32 11
3 11 10 16
3 11 16 15
3 245 35 11
3 241 243 245
3 237 239 241
3 233 235 237
3 229 29 231
3 231 233 237
3 237 241 245
3 245 11 15
3 245 15 14
3 231 237 245
3 227 229 231
3 225 22 227
3 181 223 225
3 246 222 181
3 247 246 181
3 181 225 227
3 227 231 245
3 245 14 248
3 245 248 249
3 247 181 227
3 250 247 227
3 227 245 249
3 227 249 251
3 252 250 227
3 253 252 227
3 227 251 254
3 227 254 255
3 256 253 227
3 227 255 257
3 227 257 256
3 203 202 82
3 203 82 81
3 220 219 67
3 220 67 65
3 223 220 65
3 223 65 64
3 62 225 223
3 223 64 63
3 223 63 62
3 133 151 165
3 133 165 134
3 205 203 81
3 209 207 205
3 209 205 81
3 209 81 80
3 212 209 80
3 212 80 78
3 215 212 78
3 215 78 77
3 67 219 216
3 216 215 77
3 216 77 76
3 68 67 216
3 72 68 216
3 216 76 74
3 74 72 216
3 106 179 178
3 106 178 107
3 42 244 243
3 42 243 43
3 249 248 14
3 14 18 66
3 14 66 69
3 251 249 14
3 71 254 251
3 14 69 70
3 70 71 251
3 14 70 251
3 99 186 185
3 99 185 100
3 194 39 38
3 194 38 91
3 89 196 195
3 195 194 91
3 90 89 195
3 195 91 90
3 100 185 184
3 100 184 101
3 94 191 190
3 94 190 95
3 102 183 182
3 102 182 103
3 107 178 177
3 107 177 108
3 124 159 25
3 124 25 24
3 135 134 165
3 165 164 166
3 166 2 1
3 136 135 165
3 166 1 136
3 165 166 136
3 123 160 159
3 123 159 124
3 93 192 191
3 93 191 94
3 125 158 157
3 125 157 126
3 173 170 113
3 173 113 112
3 111 110 175
3 173 112 111
3 173 111 175
3 197 196 89
3 197 89 88
3 198 197 88
3 198 88 87
3 199 198 87
3 199 87 86
3 83 201 200
3 200 199 86
3 84 83 200
3 200 86 84
3 46 240 239
3 46 239 47
3 232 231 55
3 232 55 54
3 233 232 54
3 233 54 53
3 234 233 53
3 234 53 52
3 235 234 52
3 235 52 51
3 236 235 51
3 236 51 50
3 48 238 237
3 237 236 50
3 49 48 237
3 50 49 237
3 255 254 71
3 255 71 73
3 257 255 73
3 257 73 75
3 85 253 256
3 256 257 75
3 79 85 256
3 256 75 79
3 44 242 241
3 44 241 45
3 214 217 142
3 214 142 144
3 213 214 144
3 213 144 145
3 211 213 145
3 211 145 148
3 210 211 148
3 210 148 149
3 206 210 149
3 206 149 147
3 204 206 147
3 204 147 146
3 172 204 146
3 172 146 143
3 171 172 143
3 171 143 140
3 169 171 140
3 169 140 138
3 7 6 167
3 167 169 138
3 137 7 167
3 138 137 167
3 109 176 175
3 109 175 110
3 161 160 123
3 161 123 120
3 162 161 120
3 162 120 119
3 163 162 119
3 163 119 118
3 113 170 168
3 168 163 118
3 116 113 168
3 118 116 168
3 184 183 102
3 184 102 101
3 45 241 240
3 45 240 46
3 243 242 44
3 243 44 43
3 92 193 192
3 92 192 93
3 187 186 99
3 187 99 98
3 96 189 188
3 188 187 98
3 97 96 188
3 188 98 97
3 33 32 35
3 33 35 34
3 182 181 104
3 182 104 103
3 142 217 218
3 142 218 141
3 57 245 244
3 57 244 42
3 47 239 238
3 47 238 48
3 40 193 92
3 40 92 41
3 153 129 128
3 127 126 157
3 153 128 127
3 157 156 153
3 153 127 157
3 58 229 228
3 58 228 59
3 60 227 21
3 60 21 20
3 61 226 225
3 61 225 62
3 27 26 158
3 27 158 125
3 56 230 29
3 56 29 28
3 23 22 226
3 23 226 61
3 59 228 227
3 59 227 60
3 37 36 245
3 37 245 57
3 108 177 176
3 108 176 109
3 95 190 189
3 95 189 96
3 252 253 85
3 252 85 114
3 250 252 114
3 250 114 115
3 247 250 115
3 247 115 117
3 246 247 117
3 246 117 121
3 222 246 121
3 222 121 122
3 141 218 221
3 221 222 122
3 139 141 221
3 122 139 221
3 31 30 229
3 31 229 58
3 231 230 56
3 231 56 55
3 82 202 201
3 82 201 83
3 180 105 104
3 180 104 181
3 105 180 179
3 105 179 106
