ply
format ascii 1.0
comment Created by Blender 3.6.8 - www.blender.org
element vertex 192
property float x
property float y
property float z
element face 368
property list uchar uint vertex_indices
end_header
0.003666 0.006690 0.000000
0.003347 0.006646 0.000000
0.003347 0.006646 0.150000
0.003666 0.006690 0.150000
0.008032 0.005509 0.150000
0.007679 0.005778 0.150000
0.006488 0.006415 0.150000
0.006077 0.006568 0.150000
0.005505 0.006699 0.150000
0.005134 0.006729 0.150000
0.004947 0.006729 0.150000
0.004761 0.006724 0.150000
0.008257 0.005266 0.150000
0.008157 0.005386 0.150000
0.008693 0.004513 0.150000
0.008338 0.005149 0.150000
0.009832 0.002711 0.150000
0.009316 0.003633 0.150000
0.009932 0.002458 0.150000
0.009886 0.002582 0.150000
0.010003 0.002224 0.150000
0.009971 0.002338 0.150000
0.010072 0.001747 0.150000
0.010048 0.002013 0.150000
0.010050 0.001576 0.150000
0.010066 0.001666 0.150000
0.009905 0.001176 0.150000
0.009991 0.001382 0.150000
0.009801 0.000971 0.150000
0.009855 0.001073 0.150000
0.009577 0.000617 0.150000
0.009689 0.000781 0.150000
0.009460 0.000497 0.150000
0.009521 0.000551 0.150000
0.009323 0.000417 0.150000
0.009394 0.000453 0.150000
0.008759 0.000254 0.150000
0.009245 0.000387 0.150000
0.008177 0.000058 0.150000
0.008278 0.000087 0.150000
0.007911 0.000010 0.150000
0.008084 0.000036 0.150000
0.007742 0.000001 0.150000
0.007828 0.000004 0.150000
0.007083 0.000009 0.150000
0.007209 0.000004 0.150000
0.006687 0.000051 0.150000
0.006822 0.000033 0.150000
0.006407 0.000098 0.150000
0.006549 0.000072 0.150000
0.006108 0.000160 0.150000
0.006260 0.000127 0.150000
0.005789 0.000238 0.150000
0.005951 0.000197 0.150000
0.005620 0.000282 0.150000
0.005451 0.000323 0.150000
0.005286 0.000352 0.150000
0.004581 0.006721 0.150000
0.004408 0.006718 0.150000
0.004242 0.006715 0.150000
0.004084 0.006711 0.150000
0.003934 0.006706 0.150000
0.003795 0.006699 0.150000
0.003267 0.006624 0.150000
0.003176 0.006591 0.150000
0.003057 0.006544 0.150000
0.002915 0.006487 0.150000
0.002758 0.006422 0.150000
0.002594 0.006352 0.150000
0.002428 0.006282 0.150000
0.002268 0.006213 0.150000
0.002122 0.006150 0.150000
0.001996 0.006095 0.150000
0.001897 0.006052 0.150000
0.001832 0.006023 0.150000
0.001809 0.006013 0.150000
0.000608 0.004127 0.150000
0.000406 0.003767 0.150000
0.000231 0.003428 0.150000
0.000098 0.003124 0.150000
0.000018 0.002870 0.150000
0.000003 0.002680 0.150000
0.000034 0.002523 0.150000
0.000082 0.002357 0.150000
0.000223 0.002014 0.150000
0.000413 0.001675 0.150000
0.000637 0.001365 0.150000
0.000882 0.001107 0.150000
0.001008 0.001006 0.150000
0.001134 0.000927 0.150000
0.001396 0.000801 0.150000
0.001845 0.000645 0.150000
0.002598 0.000493 0.150000
0.003062 0.000442 0.150000
0.003578 0.000407 0.150000
0.004788 0.000391 0.150000
0.005122 0.000372 0.150000
0.004957 0.000385 0.150000
0.000231 0.003428 0.000000
0.000098 0.003124 0.000000
0.000882 0.001107 0.000000
0.001008 0.001006 0.000000
0.001396 0.000801 0.000000
0.001845 0.000645 0.000000
0.010072 0.001747 0.000000
0.010048 0.002013 0.000000
0.005505 0.006699 0.000000
0.005134 0.006729 0.000000
0.009245 0.000387 0.000000
0.009323 0.000417 0.000000
0.008759 0.000254 0.000000
0.008278 0.000087 0.000000
0.008084 0.000036 0.000000
0.008177 0.000058 0.000000
0.009394 0.000453 0.000000
0.009855 0.001073 0.000000
0.009905 0.001176 0.000000
0.009689 0.000781 0.000000
0.009801 0.000971 0.000000
0.010050 0.001576 0.000000
0.010066 0.001666 0.000000
0.003267 0.006624 0.000000
0.003176 0.006591 0.000000
0.003057 0.006544 0.000000
0.002915 0.006487 0.000000
0.002758 0.006422 0.000000
0.002594 0.006352 0.000000
0.002428 0.006282 0.000000
0.002268 0.006213 0.000000
0.002122 0.006150 0.000000
0.001996 0.006095 0.000000
0.001897 0.006052 0.000000
0.001832 0.006023 0.000000
0.001809 0.006013 0.000000
0.001134 0.000927 0.000000
0.000223 0.002014 0.000000
0.000413 0.001675 0.000000
0.007911 0.000010 0.000000
0.008338 0.005149 0.000000
0.008257 0.005266 0.000000
0.008157 0.005386 0.000000
0.008032 0.005509 0.000000
0.009460 0.000497 0.000000
0.009521 0.000551 0.000000
0.009991 0.001382 0.000000
0.008693 0.004513 0.000000
0.006822 0.000033 0.000000
0.007083 0.000009 0.000000
0.006488 0.006415 0.000000
0.006077 0.006568 0.000000
0.002598 0.000493 0.000000
0.000018 0.002870 0.000000
0.000082 0.002357 0.000000
0.003795 0.006699 0.000000
0.003934 0.006706 0.000000
0.004084 0.006711 0.000000
0.004242 0.006715 0.000000
0.004408 0.006718 0.000000
0.004581 0.006721 0.000000
0.004761 0.006724 0.000000
0.004947 0.006729 0.000000
0.007209 0.000004 0.000000
0.007742 0.000001 0.000000
0.007828 0.000004 0.000000
0.009577 0.000617 0.000000
0.005620 0.000282 0.000000
0.005789 0.000238 0.000000
0.005951 0.000197 0.000000
0.006108 0.000160 0.000000
0.006260 0.000127 0.000000
0.006407 0.000098 0.000000
0.006549 0.000072 0.000000
0.006687 0.000051 0.000000
0.005286 0.000352 0.000000
0.005451 0.000323 0.000000
0.009886 0.002582 0.000000
0.009832 0.002711 0.000000
0.009932 0.002458 0.000000
0.010003 0.002224 0.000000
0.009971 0.002338 0.000000
0.009316 0.003633 0.000000
0.007679 0.005778 0.000000
0.000406 0.003767 0.000000
0.000608 0.004127 0.000000
0.000003 0.002680 0.000000
0.000034 0.002523 0.000000
0.000637 0.001365 0.000000
0.003062 0.000442 0.000000
0.004788 0.000391 0.000000
0.003578 0.000407 0.000000
0.004957 0.000385 0.000000
0.005122 0.000372 0.000000
3 0 1 2
3 0 2 3
3 4 5 6
3 6 7 8
3 8 9 10
3 8 10 11
3 4 6 8
3 12 13 4
3 14 15 12
3 16 17 14
3 18 19 16
3 20 21 18
3 22 23 20
3 24 25 22
3 26 27 24
3 28 29 26
3 30 31 28
3 32 33 30
3 34 35 32
3 36 37 34
3 38 39 36
3 40 41 38
3 42 43 40
3 44 45 42
3 46 47 44
3 48 49 46
3 50 51 48
3 52 53 50
3 54 52 50
3 50 48 46
3 46 44 42
3 42 40 38
3 36 34 32
3 42 38 36
3 50 46 42
3 54 50 42
3 42 36 32
3 32 30 28
3 28 26 24
3 24 22 20
3 20 18 16
3 14 12 4
3 20 16 14
3 28 24 20
3 42 32 28
3 55 54 42
3 56 55 42
3 42 28 20
3 20 14 4
3 4 8 11
3 57 58 59
3 4 11 57
3 42 20 4
3 56 42 4
3 4 57 59
3 59 60 61
3 61 62 3
3 3 2 63
3 63 64 65
3 65 66 67
3 67 68 69
3 69 70 71
3 71 72 73
3 73 74 75
3 75 76 77
3 77 78 79
3 79 80 81
3 81 82 83
3 83 84 85
3 85 86 87
3 87 88 89
3 89 90 91
3 91 92 93
3 93 94 95
3 91 93 95
3 87 89 91
3 83 85 87
3 79 81 83
3 75 77 79
3 71 73 75
3 67 69 71
3 63 65 67
3 61 3 63
3 4 59 61
3 96 56 4
3 91 95 97
3 97 96 4
3 4 61 63
3 63 67 71
3 71 75 79
3 79 83 87
3 87 91 97
3 97 4 63
3 63 71 79
3 79 87 97
3 63 79 97
3 78 98 99
3 78 99 79
3 87 100 101
3 87 101 88
3 102 103 91
3 102 91 90
3 104 105 23
3 104 23 22
3 8 106 107
3 8 107 9
3 108 109 34
3 108 34 37
3 110 108 37
3 110 37 36
3 111 110 36
3 111 36 39
3 41 112 113
3 113 111 39
3 38 41 113
3 39 38 113
3 34 109 114
3 34 114 35
3 115 116 26
3 115 26 29
3 31 117 118
3 118 115 29
3 28 31 118
3 29 28 118
3 24 119 120
3 24 120 25
3 121 122 123
3 123 124 125
3 125 126 127
3 127 128 129
3 129 130 131
3 131 132 133
3 133 75 74
3 133 74 73
3 129 131 133
3 125 127 129
3 121 123 125
3 64 63 121
3 65 64 121
3 121 125 129
3 129 133 73
3 129 73 72
3 65 121 129
3 66 65 129
3 129 72 71
3 129 71 70
3 67 66 129
3 68 67 129
3 129 70 69
3 129 69 68
3 134 102 90
3 134 90 89
3 84 135 136
3 84 136 85
3 112 41 40
3 112 40 137
3 25 120 104
3 25 104 22
3 15 138 139
3 15 139 12
3 13 140 141
3 13 141 4
3 32 142 143
3 32 143 33
3 27 144 119
3 27 119 24
3 145 138 15
3 145 15 14
3 47 146 147
3 47 147 44
3 6 148 149
3 6 149 7
3 103 150 92
3 103 92 91
3 79 99 151
3 79 151 80
3 152 135 84
3 152 84 83
3 153 0 3
3 153 3 62
3 154 153 62
3 154 62 61
3 155 154 61
3 155 61 60
3 156 155 60
3 156 60 59
3 157 156 59
3 157 59 58
3 158 157 58
3 158 58 57
3 159 158 57
3 159 57 11
3 9 107 160
3 160 159 11
3 10 9 160
3 11 10 160
3 147 161 162
3 162 163 137
3 137 40 43
3 137 43 42
3 147 162 137
3 45 44 147
3 137 42 45
3 137 45 147
3 33 143 164
3 33 164 30
3 165 166 167
3 167 168 169
3 169 170 171
3 171 172 146
3 146 47 46
3 146 46 49
3 169 171 146
3 165 167 169
3 56 173 174
3 165 169 146
3 56 174 165
3 55 56 165
3 165 146 49
3 165 49 48
3 54 55 165
3 52 54 165
3 165 48 51
3 165 51 50
3 53 52 165
3 50 53 165
3 35 114 142
3 35 142 32
3 175 176 16
3 175 16 19
3 177 175 19
3 177 19 18
3 20 178 179
3 179 177 18
3 21 20 179
3 179 18 21
3 147 146 172
3 172 171 170
3 170 169 168
3 168 167 166
3 168 166 165
3 172 170 168
3 162 147 172
3 113 112 137
3 110 111 113
3 109 108 110
3 142 114 109
3 164 143 142
3 118 117 164
3 116 115 118
3 119 144 116
3 104 120 119
3 178 105 104
3 177 179 178
3 176 175 177
3 145 180 176
3 139 138 145
3 141 140 139
3 148 181 141
3 106 149 148
3 160 107 106
3 159 160 106
3 106 148 141
3 141 139 145
3 145 176 177
3 177 178 104
3 104 119 116
3 116 118 164
3 164 142 109
3 110 113 137
3 164 109 110
3 104 116 164
3 145 177 104
3 106 141 145
3 158 159 106
3 156 157 158
3 154 155 156
3 0 153 154
3 121 1 0
3 182 183 133
3 99 98 182
3 184 151 99
3 152 185 184
3 136 135 152
3 100 186 136
3 134 101 100
3 103 102 134
3 187 150 103
3 188 189 187
3 188 187 103
3 103 134 100
3 100 136 152
3 152 184 99
3 99 182 133
3 121 0 154
3 154 156 158
3 158 106 145
3 145 104 164
3 164 110 137
3 137 162 172
3 172 168 165
3 172 165 174
3 164 137 172
3 158 145 164
3 121 154 158
3 99 133 129
3 100 152 99
3 188 103 100
3 190 188 100
3 100 99 129
3 129 121 158
3 158 164 172
3 158 172 174
3 100 129 158
3 191 190 100
3 158 174 173
3 173 191 100
3 173 100 158
3 164 117 31
3 164 31 30
3 2 1 121
3 2 121 63
3 136 186 86
3 136 86 85
3 81 184 185
3 81 185 82
3 12 139 140
3 12 140 13
3 186 100 87
3 186 87 86
3 182 98 78
3 182 78 77
3 75 133 183
3 183 182 77
3 76 75 183
3 77 76 183
3 17 180 145
3 17 145 14
3 16 176 180
3 16 180 17
3 92 150 187
3 189 188 190
3 92 187 189
3 93 92 189
3 189 190 191
3 191 173 56
3 191 56 96
3 93 189 191
3 94 93 191
3 191 96 97
3 95 94 191
3 191 97 95
3 80 151 184
3 80 184 81
3 181 5 4
3 181 4 141
3 82 185 152
3 82 152 83
3 7 149 106
3 7 106 8
3 26 116 144
3 26 144 27
3 88 101 134
3 88 134 89
3 105 178 20
3 105 20 23
3 181 148 6
3 181 6 5
