ply
format ascii 1.0
comment Created by Blender 3.6.8 - www.blender.org
element vertex 183
property float x
property float y
property float z
element face 357
property list uchar uint vertex_indices
end_header
0.001667 0.002318 0.000000
0.001808 0.002146 0.000000
0.001808 0.002146 0.150000
0.001667 0.002318 0.150000
0.001353 0.002735 0.150000
0.001353 0.002735 0.000000
0.001514 0.002516 0.000000
0.001514 0.002516 0.150000
0.003766 0.000153 0.150000
0.003766 0.000153 0.000000
0.003877 0.000097 0.000000
0.003877 0.000097 0.150000
0.001260 0.007183 0.000000
0.001070 0.007053 0.000000
0.000975 0.006993 0.000000
0.000702 0.006829 0.000000
0.001351 0.007242 0.000000
0.000617 0.006775 0.000000
0.000538 0.006719 0.000000
0.000538 0.006719 0.150000
0.000617 0.006775 0.150000
0.000702 0.006829 0.150000
0.001441 0.007296 0.000000
0.000975 0.006993 0.150000
0.001626 0.007394 0.150000
0.001626 0.007394 0.000000
0.001532 0.007346 0.000000
0.001070 0.007053 0.150000
0.001532 0.007346 0.150000
0.001441 0.007296 0.150000
0.001260 0.007183 0.150000
0.001351 0.007242 0.150000
0.006589 0.007509 0.150000
0.006589 0.007509 0.000000
0.006361 0.007604 0.000000
0.006361 0.007604 0.150000
0.000394 0.006593 0.000000
0.000394 0.006593 0.150000
0.004000 0.000052 0.000000
0.004000 0.000052 0.150000
0.000227 0.004704 0.000000
0.000094 0.005120 0.000000
0.000049 0.005287 0.000000
0.000014 0.005447 0.000000
0.000000 0.005592 0.000000
0.000010 0.005730 0.000000
0.000042 0.005867 0.000000
0.000064 0.005939 0.000000
0.000091 0.006012 0.000000
0.000122 0.006089 0.000000
0.000233 0.006350 0.000000
0.000279 0.006440 0.000000
0.000333 0.006521 0.000000
0.001725 0.007442 0.000000
0.001831 0.007490 0.000000
0.001946 0.007540 0.000000
0.002531 0.007787 0.000000
0.002709 0.007852 0.000000
0.002888 0.007900 0.000000
0.003264 0.007948 0.000000
0.003682 0.007945 0.000000
0.005793 0.007743 0.000000
0.006098 0.007682 0.000000
0.006789 0.007400 0.000000
0.006967 0.007278 0.000000
0.008316 0.006038 0.000000
0.008451 0.005871 0.000000
0.008564 0.005701 0.000000
0.008738 0.005347 0.000000
0.009139 0.003880 0.000000
0.009165 0.003690 0.000000
0.009169 0.003525 0.000000
0.009153 0.003380 0.000000
0.009119 0.003250 0.000000
0.009069 0.003130 0.000000
0.009005 0.003015 0.000000
0.008930 0.002897 0.000000
0.008752 0.002637 0.000000
0.008654 0.002484 0.000000
0.008441 0.002123 0.000000
0.008312 0.001949 0.000000
0.008167 0.001785 0.000000
0.007837 0.001482 0.000000
0.007468 0.001206 0.000000
0.006121 0.000387 0.000000
0.005837 0.000247 0.000000
0.005585 0.000154 0.000000
0.005189 0.000072 0.000000
0.004465 0.000001 0.000000
0.004290 0.000003 0.000000
0.004136 0.000021 0.000000
0.003662 0.000221 0.000000
0.003466 0.000388 0.000000
0.003367 0.000486 0.000000
0.003263 0.000591 0.000000
0.001022 0.003221 0.000000
0.000704 0.003736 0.000000
0.000429 0.004243 0.000000
0.002047 0.001886 0.000000
0.001934 0.002006 0.000000
0.002153 0.001771 0.000000
0.003152 0.000704 0.000000
0.003039 0.000818 0.000000
0.002932 0.000928 0.000000
0.002831 0.001035 0.000000
0.002733 0.001139 0.000000
0.002637 0.001242 0.000000
0.002543 0.001345 0.000000
0.002449 0.001448 0.000000
0.002353 0.001553 0.000000
0.002255 0.001660 0.000000
0.004136 0.000021 0.150000
0.009119 0.003250 0.150000
0.009153 0.003380 0.150000
0.009069 0.003130 0.150000
0.006967 0.007278 0.150000
0.008316 0.006038 0.150000
0.006098 0.007682 0.150000
0.009165 0.003690 0.150000
0.009139 0.003880 0.150000
0.000333 0.006521 0.150000
0.001725 0.007442 0.150000
0.001831 0.007490 0.150000
0.001946 0.007540 0.150000
0.002709 0.007852 0.150000
0.002531 0.007787 0.150000
0.003682 0.007945 0.150000
0.005793 0.007743 0.150000
0.008564 0.005701 0.150000
0.008451 0.005871 0.150000
0.009005 0.003015 0.150000
0.008930 0.002897 0.150000
0.008752 0.002637 0.150000
0.008654 0.002484 0.150000
0.008312 0.001949 0.150000
0.008441 0.002123 0.150000
0.005189 0.000072 0.150000
0.004465 0.000001 0.150000
0.000042 0.005867 0.150000
0.000064 0.005939 0.150000
0.000091 0.006012 0.150000
0.000233 0.006350 0.150000
0.000122 0.006089 0.150000
0.004290 0.000003 0.150000
0.000014 0.005447 0.150000
0.000227 0.004704 0.150000
0.000049 0.005287 0.150000
0.000094 0.005120 0.150000
0.006789 0.007400 0.150000
0.009169 0.003525 0.150000
0.002888 0.007900 0.150000
0.008167 0.001785 0.150000
0.007468 0.001206 0.150000
0.006121 0.000387 0.150000
0.003264 0.007948 0.150000
0.000429 0.004243 0.150000
0.005585 0.000154 0.150000
0.005837 0.000247 0.150000
0.007837 0.001482 0.150000
0.003662 0.000221 0.150000
0.003367 0.000486 0.150000
0.003466 0.000388 0.150000
0.003263 0.000591 0.150000
0.008973 0.004557 0.150000
0.000704 0.003736 0.150000
0.001022 0.003221 0.150000
0.001934 0.002006 0.150000
0.002047 0.001886 0.150000
0.002153 0.001771 0.150000
0.003152 0.000704 0.150000
0.002932 0.000928 0.150000
0.003039 0.000818 0.150000
0.002733 0.001139 0.150000
0.002831 0.001035 0.150000
0.002543 0.001345 0.150000
0.002637 0.001242 0.150000
0.002353 0.001553 0.150000
0.002449 0.001448 0.150000
0.002255 0.001660 0.150000
0.008738 0.005347 0.150000
0.000279 0.006440 0.150000
0.000010 0.005730 0.150000
0.000000 0.005592 0.150000
3 0 1 2
3 0 2 3
3 4 5 6
3 6 0 3
3 7 4 6
3 6 3 7
3 8 9 10
3 8 10 11
3 12 13 14
3 12 14 15
3 16 12 15
3 17 18 19
3 15 17 19
3 15 19 20
3 16 15 20
3 16 20 21
3 22 16 21
3 22 21 23
3 24 25 26
3 26 22 23
3 26 23 27
3 28 24 26
3 29 28 26
3 26 27 30
3 31 29 26
3 30 31 26
3 32 33 34
3 32 34 35
3 19 18 36
3 19 36 37
3 11 10 38
3 11 38 39
3 40 41 42
3 42 43 44
3 44 45 46
3 46 47 48
3 48 49 50
3 50 51 52
3 52 36 18
3 18 17 15
3 18 15 14
3 50 52 18
3 46 48 50
3 42 44 46
3 40 42 46
3 46 50 18
3 46 18 14
3 40 46 14
3 13 12 16
3 40 14 13
3 40 13 16
3 16 22 26
3 26 25 53
3 53 54 55
3 55 56 57
3 57 58 59
3 59 60 61
3 61 62 34
3 34 33 63
3 63 64 65
3 65 66 67
3 67 68 69
3 69 70 71
3 71 72 73
3 73 74 75
3 75 76 77
3 78 79 80
3 73 75 77
3 77 78 80
3 80 81 82
3 82 83 84
3 84 85 86
3 86 87 88
3 88 89 90
3 90 38 10
3 10 9 91
3 91 92 93
3 91 93 94
3 90 10 91
3 86 88 90
3 82 84 86
3 77 80 82
3 71 73 77
3 67 69 71
3 63 65 67
3 61 34 63
3 57 59 61
3 53 55 57
3 16 26 53
3 95 96 97
3 6 5 95
3 1 0 6
3 98 99 1
3 100 98 1
3 1 6 95
3 40 16 53
3 53 57 61
3 61 63 67
3 67 71 77
3 77 82 86
3 86 90 91
3 91 94 101
3 101 102 103
3 103 104 105
3 105 106 107
3 107 108 109
3 110 100 1
3 105 107 109
3 110 1 95
3 105 109 110
3 101 103 105
3 86 91 101
3 67 77 86
3 53 61 67
3 110 95 97
3 101 105 110
3 67 86 101
3 40 53 67
3 40 67 101
3 101 110 97
3 40 101 97
3 39 38 90
3 39 90 111
3 112 73 72
3 112 72 113
3 114 74 73
3 114 73 112
3 65 64 115
3 65 115 116
3 35 34 62
3 35 62 117
3 118 70 69
3 118 69 119
3 37 36 52
3 37 52 120
3 53 25 24
3 53 24 121
3 54 53 121
3 54 121 122
3 55 54 122
3 55 122 123
3 124 57 56
3 56 55 123
3 125 124 56
3 123 125 56
3 61 60 126
3 61 126 127
3 128 67 66
3 128 66 129
3 75 74 114
3 75 114 130
3 76 75 130
3 76 130 131
3 77 76 131
3 77 131 132
3 78 77 132
3 78 132 133
3 134 80 79
3 79 78 133
3 135 134 79
3 133 135 79
3 87 136 137
3 87 137 88
3 47 46 138
3 47 138 139
3 48 47 139
3 48 139 140
3 141 50 49
3 49 48 140
3 142 141 49
3 140 142 49
3 111 90 89
3 111 89 143
3 144 43 42
3 41 40 145
3 144 42 41
3 146 144 41
3 41 145 147
3 41 147 146
3 117 62 61
3 117 61 127
3 148 63 33
3 148 33 32
3 113 72 71
3 113 71 149
3 150 58 57
3 150 57 124
3 151 81 80
3 151 80 134
3 84 83 152
3 84 152 153
3 154 59 58
3 154 58 150
3 149 71 70
3 149 70 118
3 145 40 97
3 145 97 155
3 143 89 88
3 143 88 137
3 137 136 156
3 156 157 153
3 153 152 158
3 158 151 134
3 134 135 133
3 132 131 130
3 134 133 132
3 153 158 134
3 137 156 153
3 111 143 137
3 11 39 111
3 159 8 11
3 160 161 159
3 162 160 159
3 159 11 111
3 111 137 153
3 153 134 132
3 132 130 114
3 114 112 113
3 113 149 118
3 118 119 163
3 155 164 165
3 165 4 7
3 7 3 2
3 2 166 167
3 2 167 168
3 165 7 2
3 118 163 145
3 114 113 118
3 153 132 114
3 159 111 153
3 169 162 159
3 170 171 169
3 172 173 170
3 174 175 172
3 176 177 174
3 2 168 178
3 176 174 172
3 165 2 178
3 178 176 172
3 172 170 169
3 169 159 153
3 153 114 118
3 155 165 178
3 178 172 169
3 169 153 118
3 155 178 169
3 169 118 145
3 155 169 145
3 159 91 9
3 159 9 8
3 115 64 63
3 115 63 148
3 82 158 152
3 82 152 83
3 179 68 67
3 179 67 128
3 180 51 50
3 180 50 141
3 94 93 92
3 103 101 94
3 107 105 103
3 109 107 103
3 103 94 92
3 92 161 160
3 92 160 162
3 109 103 92
3 110 109 92
3 92 162 169
3 92 169 171
3 100 110 92
3 98 100 92
3 92 171 170
3 92 170 173
3 1 98 92
3 166 2 1
3 167 166 1
3 1 92 173
3 1 173 172
3 168 167 1
3 178 168 1
3 1 172 175
3 1 175 174
3 176 178 1
3 1 174 177
3 177 176 1
3 181 45 44
3 181 44 182
3 87 86 156
3 87 156 136
3 156 86 85
3 156 85 157
3 91 159 161
3 91 161 92
3 81 151 158
3 81 158 82
3 95 5 4
3 95 4 165
3 155 97 96
3 96 95 165
3 164 155 96
3 96 165 164
3 182 44 43
3 182 43 144
3 119 69 68
3 68 179 163
3 68 163 119
3 84 153 157
3 84 157 85
3 129 66 65
3 129 65 116
3 60 59 154
3 60 154 126
3 120 52 51
3 120 51 180
3 117 127 126
3 126 154 150
3 150 124 125
3 125 123 122
3 122 121 24
3 24 28 29
3 29 31 30
3 29 30 27
3 122 24 29
3 150 125 122
3 117 126 150
3 32 35 117
3 115 148 32
3 129 116 115
3 179 128 129
3 145 163 179
3 146 147 145
3 182 144 146
3 138 181 182
3 140 139 138
3 141 142 140
3 120 180 141
3 19 37 120
3 21 20 19
3 23 21 19
3 19 120 141
3 141 140 138
3 138 182 146
3 146 145 179
3 179 129 115
3 115 32 117
3 117 150 122
3 122 29 27
3 23 19 141
3 122 27 23
3 115 117 122
3 146 179 115
3 141 138 146
3 122 23 141
3 146 115 122
3 122 141 146
3 46 45 181
3 46 181 138
