ply
format ascii 1.0
comment Created by Blender 3.6.8 - www.blender.org
element vertex 178
property float x
property float y
property float z
element face 349
property list uchar uint vertex_indices
end_header
0.010480 0.011599 0.150000
0.010480 0.011599 0.000000
0.010201 0.011755 0.000000
0.010201 0.011755 0.150000
0.003679 0.002082 0.150000
0.003679 0.002082 0.000000
0.003866 0.001853 0.000000
0.003866 0.001853 0.150000
0.003730 0.012505 0.150000
0.003730 0.012505 0.000000
0.003482 0.012389 0.000000
0.003482 0.012389 0.150000
0.009823 0.011897 0.150000
0.009823 0.011897 0.000000
0.009332 0.012028 0.000000
0.009332 0.012028 0.150000
0.011129 0.009819 0.150000
0.011129 0.009819 0.000000
0.011051 0.010100 0.000000
0.011051 0.010100 0.150000
0.011677 0.006827 0.000000
0.011700 0.007114 0.000000
0.011700 0.007114 0.150000
0.011677 0.006827 0.150000
0.011519 0.005727 0.150000
0.011519 0.005727 0.000000
0.011646 0.006543 0.000000
0.011646 0.006543 0.150000
0.009848 0.000696 0.000000
0.010447 0.001759 0.000000
0.010447 0.001759 0.150000
0.009848 0.000696 0.150000
0.000030 0.008658 0.000000
0.000004 0.009490 0.000000
0.000011 0.009559 0.000000
0.000022 0.009606 0.000000
0.000050 0.009648 0.000000
0.000106 0.009707 0.000000
0.000184 0.009781 0.000000
0.000279 0.009866 0.000000
0.000386 0.009960 0.000000
0.000500 0.010059 0.000000
0.000617 0.010161 0.000000
0.000794 0.007546 0.000000
0.000731 0.010263 0.000000
0.001407 0.006620 0.000000
0.000838 0.010363 0.000000
0.001584 0.006339 0.000000
0.000932 0.010457 0.000000
0.001139 0.010711 0.000000
0.001282 0.010846 0.000000
0.001734 0.006091 0.000000
0.001478 0.011015 0.000000
0.001718 0.011209 0.000000
0.002904 0.012052 0.000000
0.003936 0.012575 0.000000
0.004153 0.012610 0.000000
0.004435 0.012629 0.000000
0.005603 0.012594 0.000000
0.006582 0.012498 0.000000
0.007658 0.012348 0.000000
0.010677 0.011431 0.000000
0.010809 0.011248 0.000000
0.010892 0.011050 0.000000
0.010941 0.010837 0.000000
0.011005 0.010363 0.000000
0.001915 0.005743 0.000000
0.011504 0.008903 0.000000
0.011648 0.008296 0.000000
0.011707 0.007699 0.000000
0.001952 0.005638 0.000000
0.011473 0.005487 0.000000
0.011426 0.005263 0.000000
0.011377 0.005050 0.000000
0.010741 0.002570 0.000000
0.010681 0.002360 0.000000
0.010624 0.002182 0.000000
0.010568 0.002028 0.000000
0.009706 0.000514 0.000000
0.009554 0.000366 0.000000
0.009394 0.000249 0.000000
0.009222 0.000160 0.000000
0.009040 0.000095 0.000000
0.008847 0.000050 0.000000
0.008422 0.000007 0.000000
0.008190 0.000001 0.000000
0.007943 0.000000 0.000000
0.007681 0.000002 0.000000
0.007417 0.000014 0.000000
0.006911 0.000092 0.000000
0.006422 0.000241 0.000000
0.005933 0.000455 0.000000
0.005683 0.000584 0.000000
0.005426 0.000728 0.000000
0.005161 0.000884 0.000000
0.004597 0.001235 0.000000
0.004320 0.001429 0.000000
0.004078 0.001635 0.000000
0.003365 0.002567 0.000000
0.002168 0.004987 0.000000
0.002117 0.005111 0.000000
0.002079 0.005215 0.000000
0.002049 0.005305 0.000000
0.002025 0.005387 0.000000
0.001980 0.005548 0.000000
0.010809 0.011248 0.150000
0.010677 0.011431 0.150000
0.010741 0.002570 0.150000
0.011377 0.005050 0.150000
0.011426 0.005263 0.150000
0.011473 0.005487 0.150000
0.011707 0.007699 0.150000
0.011648 0.008296 0.150000
0.011504 0.008903 0.150000
0.010624 0.002182 0.150000
0.010681 0.002360 0.150000
0.010568 0.002028 0.150000
0.009706 0.000514 0.150000
0.009394 0.000249 0.150000
0.009554 0.000366 0.150000
0.009040 0.000095 0.150000
0.009222 0.000160 0.150000
0.008422 0.000007 0.150000
0.008847 0.000050 0.150000
0.007943 0.000000 0.150000
0.008190 0.000001 0.150000
0.007417 0.000014 0.150000
0.007681 0.000002 0.150000
0.006422 0.000241 0.150000
0.006911 0.000092 0.150000
0.005683 0.000584 0.150000
0.005933 0.000455 0.150000
0.005161 0.000884 0.150000
0.005426 0.000728 0.150000
0.004320 0.001429 0.150000
0.004597 0.001235 0.150000
0.004078 0.001635 0.150000
0.003365 0.002567 0.150000
0.002117 0.005111 0.150000
0.002168 0.004987 0.150000
0.002049 0.005305 0.150000
0.002079 0.005215 0.150000
0.001980 0.005548 0.150000
0.002025 0.005387 0.150000
0.001952 0.005638 0.150000
0.011005 0.010363 0.150000
0.010941 0.010837 0.150000
0.010892 0.011050 0.150000
0.001915 0.005743 0.150000
0.007658 0.012348 0.150000
0.006582 0.012498 0.150000
0.005603 0.012594 0.150000
0.004435 0.012629 0.150000
0.004153 0.012610 0.150000
0.003936 0.012575 0.150000
0.002904 0.012052 0.150000
0.001718 0.011209 0.150000
0.001478 0.011015 0.150000
0.001282 0.010846 0.150000
0.001139 0.010711 0.150000
0.000932 0.010457 0.150000
0.001734 0.006091 0.150000
0.000838 0.010363 0.150000
0.001584 0.006339 0.150000
0.000731 0.010263 0.150000
0.000617 0.010161 0.150000
0.001407 0.006620 0.150000
0.000794 0.007546 0.150000
0.000500 0.010059 0.150000
0.000386 0.009960 0.150000
0.000279 0.009866 0.150000
0.000184 0.009781 0.150000
0.000106 0.009707 0.150000
0.000050 0.009648 0.150000
0.000022 0.009606 0.150000
0.000011 0.009559 0.150000
0.000004 0.009490 0.150000
0.000030 0.008658 0.150000
3 0 1 2
3 0 2 3
3 4 5 6
3 4 6 7
3 8 9 10
3 8 10 11
3 12 13 14
3 12 14 15
3 16 17 18
3 16 18 19
3 20 21 22
3 20 22 23
3 24 25 26
3 26 20 23
3 27 24 26
3 23 27 26
3 28 29 30
3 28 30 31
3 32 33 34
3 34 35 36
3 36 37 38
3 38 39 40
3 38 40 41
3 34 36 38
3 32 34 38
3 38 41 42
3 32 38 42
3 43 32 42
3 43 42 44
3 45 43 44
3 45 44 46
3 47 45 46
3 48 49 50
3 47 46 48
3 51 47 48
3 48 50 52
3 52 53 54
3 54 10 9
3 9 55 56
3 56 57 58
3 58 59 60
3 60 14 13
3 13 2 1
3 1 61 62
3 62 63 64
3 62 64 65
3 13 1 62
3 58 60 13
3 9 56 58
3 52 54 9
3 51 48 52
3 66 51 52
3 52 9 58
3 58 13 62
3 62 65 18
3 17 67 68
3 58 62 18
3 17 68 69
3 58 18 17
3 66 52 58
3 70 66 58
3 58 17 69
3 69 21 20
3 20 26 25
3 25 71 72
3 72 73 74
3 74 75 76
3 76 77 29
3 29 28 78
3 78 79 80
3 80 81 82
3 82 83 84
3 84 85 86
3 86 87 88
3 88 89 90
3 90 91 92
3 92 93 94
3 94 95 96
3 96 97 6
3 6 5 98
3 98 99 100
3 100 101 102
3 102 103 104
3 104 70 58
3 58 69 20
3 20 25 72
3 72 74 76
3 76 29 78
3 78 80 82
3 82 84 86
3 86 88 90
3 90 92 94
3 94 96 6
3 6 98 100
3 100 102 104
3 104 58 20
3 20 72 76
3 76 78 82
3 82 86 90
3 90 94 6
3 6 100 104
3 104 20 76
3 76 82 90
3 90 6 104
3 76 90 104
3 105 62 61
3 105 61 106
3 107 108 109
3 109 110 24
3 24 27 23
3 23 22 111
3 111 112 113
3 111 113 16
3 24 23 111
3 107 109 24
3 114 115 107
3 30 116 114
3 117 31 30
3 118 119 117
3 120 121 118
3 122 123 120
3 124 125 122
3 126 127 124
3 128 129 126
3 130 131 128
3 132 133 130
3 134 135 132
3 7 136 134
3 137 4 7
3 138 139 137
3 140 141 138
3 142 143 140
3 142 140 138
3 138 137 7
3 7 134 132
3 132 130 128
3 128 126 124
3 124 122 120
3 120 118 117
3 117 30 114
3 114 107 24
3 24 111 16
3 24 16 19
3 117 114 24
3 124 120 117
3 132 128 124
3 138 7 132
3 144 142 138
3 144 138 132
3 132 124 117
3 117 24 19
3 145 146 147
3 117 19 145
3 144 132 117
3 148 144 117
3 117 145 147
3 147 105 106
3 106 0 3
3 3 12 15
3 15 149 150
3 150 151 152
3 152 153 154
3 154 8 11
3 11 155 156
3 156 157 158
3 158 159 160
3 156 158 160
3 154 11 156
3 150 152 154
3 3 15 150
3 147 106 3
3 148 117 147
3 161 148 147
3 147 3 150
3 150 154 156
3 156 160 162
3 150 156 162
3 161 147 150
3 163 161 150
3 150 162 164
3 150 164 165
3 166 163 150
3 167 166 150
3 150 165 168
3 168 169 170
3 170 171 172
3 172 173 174
3 174 175 176
3 176 177 167
3 167 150 168
3 168 170 172
3 172 174 176
3 176 167 168
3 168 172 176
3 173 36 35
3 173 35 174
3 175 34 33
3 175 33 176
3 155 54 53
3 155 53 156
3 3 2 13
3 3 13 12
3 154 55 9
3 154 9 8
3 45 47 51
3 51 161 163
3 51 163 166
3 43 45 51
3 177 32 43
3 51 166 167
3 167 177 43
3 51 167 43
3 120 82 81
3 120 81 121
3 89 129 128
3 89 128 90
3 71 25 24
3 71 24 110
3 72 71 110
3 72 110 109
3 73 72 109
3 73 109 108
3 74 73 108
3 74 108 107
3 75 74 107
3 75 107 115
3 116 77 76
3 76 75 115
3 114 116 76
3 115 114 76
3 117 78 28
3 117 28 31
3 111 69 68
3 111 68 112
3 21 69 111
3 21 111 22
3 106 61 1
3 106 1 0
3 99 98 137
3 99 137 139
3 68 67 113
3 68 113 112
3 85 84 122
3 85 122 125
3 86 85 125
3 86 125 124
3 126 88 87
3 87 86 124
3 127 126 87
3 124 127 87
3 176 33 32
3 176 32 177
3 152 57 56
3 152 56 153
3 131 91 90
3 131 90 128
3 67 17 16
3 67 16 113
3 151 58 57
3 151 57 152
3 11 10 54
3 11 54 155
3 153 56 55
3 153 55 154
3 121 81 80
3 121 80 118
3 98 5 4
3 98 4 137
3 174 35 34
3 174 34 175
3 118 80 79
3 118 79 119
3 119 79 78
3 119 78 117
3 42 41 40
3 44 42 40
3 48 46 44
3 162 160 48
3 164 162 48
3 48 44 40
3 48 40 39
3 165 164 48
3 168 165 48
3 48 39 38
3 37 36 173
3 168 48 38
3 38 37 173
3 38 173 172
3 169 168 38
3 170 169 38
3 38 172 171
3 38 171 170
3 159 49 48
3 159 48 160
3 89 88 126
3 89 126 129
3 7 6 97
3 7 97 136
3 50 49 159
3 50 159 158
3 156 53 52
3 52 50 158
3 157 156 52
3 52 158 157
3 122 84 83
3 122 83 123
3 123 83 82
3 123 82 120
3 59 58 151
3 59 151 150
3 15 14 60
3 60 59 150
3 149 15 60
3 150 149 60
3 30 29 77
3 30 77 116
3 136 97 96
3 136 96 134
3 100 99 139
3 100 139 138
3 148 66 70
3 70 104 100
3 100 138 141
3 100 141 140
3 148 70 100
3 144 148 100
3 100 140 143
3 142 144 100
3 100 143 142
3 92 91 131
3 92 131 130
3 93 92 130
3 93 130 133
3 94 93 133
3 94 133 132
3 134 96 95
3 95 94 132
3 135 134 95
3 132 135 95
3 51 66 148
3 51 148 161
3 147 63 62
3 147 62 105
3 64 63 147
3 64 147 146
3 19 18 65
3 65 64 146
3 145 19 65
3 146 145 65
