ply
format ascii 1.0
comment Created by Blender 3.6.8 - www.blender.org
element vertex 118
property float x
property float y
property float z
element face 230
property list uchar uint vertex_indices
end_header
0.003932 0.000061 0.000000
0.004182 0.000020 0.000000
0.004182 0.000020 0.150000
0.003932 0.000061 0.150000
0.000485 0.002876 0.000000
0.001080 0.002227 0.000000
0.001080 0.002227 0.150000
0.000485 0.002876 0.150000
0.005042 0.000076 0.150000
0.005042 0.000076 0.000000
0.005192 0.000129 0.000000
0.005192 0.000129 0.150000
0.005340 0.000198 0.000000
0.005340 0.000198 0.150000
0.006901 0.002875 0.150000
0.006901 0.002875 0.000000
0.006882 0.003009 0.000000
0.006882 0.003009 0.150000
0.003813 0.000092 0.150000
0.003813 0.000092 0.000000
0.002504 0.000973 0.000000
0.002674 0.000829 0.000000
0.002837 0.000696 0.000000
0.002994 0.000573 0.000000
0.003144 0.000461 0.000000
0.003144 0.000461 0.150000
0.002994 0.000573 0.150000
0.002837 0.000696 0.150000
0.001954 0.001449 0.000000
0.002326 0.001125 0.000000
0.001590 0.001764 0.000000
0.001770 0.001608 0.000000
0.001244 0.002072 0.000000
0.001415 0.001918 0.000000
0.001244 0.002072 0.150000
0.002674 0.000829 0.150000
0.002504 0.000973 0.150000
0.001415 0.001918 0.150000
0.001590 0.001764 0.150000
0.002326 0.001125 0.150000
0.001770 0.001608 0.150000
0.001954 0.001449 0.150000
0.001079 0.004235 0.150000
0.000806 0.004224 0.150000
0.000000 0.004137 0.150000
0.000233 0.003236 0.150000
0.003427 0.000273 0.150000
0.003689 0.000138 0.150000
0.004455 0.000000 0.150000
0.004745 0.000015 0.150000
0.005486 0.000285 0.150000
0.005629 0.000392 0.150000
0.005772 0.000512 0.150000
0.005916 0.000636 0.150000
0.006058 0.000760 0.150000
0.006197 0.000882 0.150000
0.006329 0.000999 0.150000
0.006452 0.001109 0.150000
0.006564 0.001210 0.150000
0.006661 0.001298 0.150000
0.006741 0.001371 0.150000
0.006801 0.001426 0.150000
0.006839 0.001461 0.150000
0.006852 0.001474 0.150000
0.006895 0.001991 0.150000
0.006912 0.002356 0.150000
0.006915 0.002541 0.150000
0.006852 0.003108 0.150000
0.006707 0.003454 0.150000
0.006609 0.003633 0.150000
0.006549 0.003719 0.150000
0.006477 0.003803 0.150000
0.006394 0.003883 0.150000
0.006297 0.003958 0.150000
0.006184 0.004028 0.150000
0.006054 0.004090 0.150000
0.005553 0.004268 0.150000
0.004761 0.004465 0.150000
0.004384 0.004520 0.150000
0.004062 0.004529 0.150000
0.004745 0.000015 0.000000
0.004455 0.000000 0.000000
0.003689 0.000138 0.000000
0.003427 0.000273 0.000000
0.005629 0.000392 0.000000
0.005486 0.000285 0.000000
0.005916 0.000636 0.000000
0.005772 0.000512 0.000000
0.006197 0.000882 0.000000
0.006058 0.000760 0.000000
0.006452 0.001109 0.000000
0.006329 0.000999 0.000000
0.006661 0.001298 0.000000
0.006564 0.001210 0.000000
0.006801 0.001426 0.000000
0.006741 0.001371 0.000000
0.006852 0.001474 0.000000
0.006839 0.001461 0.000000
0.006912 0.002356 0.000000
0.006895 0.001991 0.000000
0.006915 0.002541 0.000000
0.006852 0.003108 0.000000
0.006609 0.003633 0.000000
0.006707 0.003454 0.000000
0.006477 0.003803 0.000000
0.006549 0.003719 0.000000
0.006297 0.003958 0.000000
0.006394 0.003883 0.000000
0.006054 0.004090 0.000000
0.006184 0.004028 0.000000
0.004761 0.004465 0.000000
0.005553 0.004268 0.000000
0.004062 0.004529 0.000000
0.004384 0.004520 0.000000
0.000000 0.004137 0.000000
0.000806 0.004224 0.000000
0.001079 0.004235 0.000000
0.000233 0.003236 0.000000
3 0 1 2
3 0 2 3
3 4 5 6
3 4 6 7
3 8 9 10
3 8 10 11
3 11 10 12
3 11 12 13
3 14 15 16
3 14 16 17
3 18 19 0
3 18 0 3
3 20 21 22
3 22 23 24
3 24 25 26
3 24 26 27
3 20 22 24
3 28 29 20
3 30 31 28
3 32 33 30
3 6 5 32
3 34 6 32
3 32 30 28
3 28 20 24
3 24 27 35
3 24 35 36
3 32 28 24
3 37 34 32
3 38 37 32
3 32 24 36
3 32 36 39
3 40 38 32
3 32 39 41
3 41 40 32
3 42 43 44
3 44 45 7
3 7 6 34
3 34 37 38
3 38 40 41
3 41 39 36
3 36 35 27
3 27 26 25
3 25 46 47
3 47 18 3
3 3 2 48
3 48 49 8
3 8 11 13
3 13 50 51
3 51 52 53
3 53 54 55
3 55 56 57
3 57 58 59
3 59 60 61
3 61 62 63
3 63 64 65
3 65 66 14
3 14 17 67
3 67 68 69
3 69 70 71
3 71 72 73
3 73 74 75
3 75 76 77
3 77 78 79
3 42 44 7
3 77 79 42
3 73 75 77
3 69 71 73
3 14 67 69
3 63 65 14
3 59 61 63
3 55 57 59
3 51 53 55
3 8 13 51
3 3 48 8
3 25 47 3
3 36 27 25
3 34 38 41
3 41 36 25
3 25 3 8
3 8 51 55
3 55 59 63
3 63 14 69
3 69 73 77
3 77 42 7
3 7 34 41
3 41 25 8
3 8 55 63
3 63 69 77
3 77 7 41
3 41 8 63
3 41 63 77
3 80 81 1
3 1 0 19
3 19 82 83
3 83 24 23
3 23 22 21
3 21 20 29
3 21 29 28
3 83 23 21
3 1 19 83
3 9 80 1
3 12 10 9
3 84 85 12
3 86 87 84
3 88 89 86
3 90 91 88
3 92 93 90
3 94 95 92
3 96 97 94
3 98 99 96
3 15 100 98
3 101 16 15
3 102 103 101
3 104 105 102
3 106 107 104
3 108 109 106
3 110 111 108
3 112 113 110
3 114 115 116
3 116 112 110
3 110 108 106
3 106 104 102
3 102 101 15
3 15 98 96
3 96 94 92
3 92 90 88
3 88 86 84
3 84 12 9
3 9 1 83
3 83 21 28
3 28 30 33
3 33 32 5
3 5 4 117
3 117 114 116
3 116 110 106
3 106 102 15
3 15 96 92
3 92 88 84
3 84 9 83
3 83 28 33
3 33 5 117
3 117 116 106
3 106 15 92
3 92 84 83
3 83 33 117
3 117 106 92
3 83 117 92
3 9 8 49
3 9 49 80
3 73 106 109
3 73 109 74
3 77 110 113
3 77 113 78
3 13 12 85
3 13 85 50
3 98 100 66
3 98 66 65
3 63 96 98
3 98 65 64
3 98 64 63
3 46 83 82
3 46 82 47
3 68 103 102
3 68 102 69
3 48 81 80
3 48 80 49
3 45 44 114
3 45 114 117
3 100 15 14
3 100 14 66
3 115 114 44
3 115 44 43
3 79 112 116
3 116 115 43
3 42 79 116
3 116 43 42
3 25 24 83
3 25 83 46
3 101 103 68
3 101 68 67
3 97 96 63
3 97 63 62
3 94 97 62
3 94 62 61
3 95 94 61
3 95 61 60
3 92 95 60
3 92 60 59
3 93 92 59
3 93 59 58
3 90 93 58
3 90 58 57
3 91 90 57
3 91 57 56
3 88 91 56
3 88 56 55
3 89 88 55
3 89 55 54
3 86 89 54
3 86 54 53
3 87 86 53
3 87 53 52
3 50 85 84
3 84 87 52
3 51 50 84
3 52 51 84
3 45 117 4
3 45 4 7
3 17 16 101
3 17 101 67
3 111 76 75
3 111 75 108
3 72 107 106
3 72 106 73
3 110 77 76
3 110 76 111
3 78 113 112
3 78 112 79
3 69 102 105
3 69 105 70
3 81 48 2
3 81 2 1
3 74 109 108
3 74 108 75
3 47 82 19
3 47 19 18
3 71 104 107
3 71 107 72
3 70 105 104
3 70 104 71
