ply
format ascii 1.0
comment Created by Blender 3.6.8 - www.blender.org
element vertex 184
property float x
property float y
property float z
element face 362
property list uchar uint vertex_indices
end_header
0.007506 0.003671 0.150000
0.007506 0.003671 0.000000
0.007491 0.003816 0.000000
0.007491 0.003816 0.150000
0.005386 0.009010 0.150000
0.005386 0.009010 0.000000
0.005255 0.009533 0.000000
0.004935 0.011116 0.000000
0.004875 0.011345 0.000000
0.004875 0.011345 0.150000
0.005255 0.009533 0.150000
0.004935 0.011116 0.150000
0.002564 0.000513 0.150000
0.002564 0.000513 0.000000
0.003152 0.000180 0.000000
0.003152 0.000180 0.150000
0.000467 0.002882 0.000000
0.000743 0.002188 0.000000
0.000743 0.002188 0.150000
0.000467 0.002882 0.150000
0.007415 0.004168 0.000000
0.006864 0.005698 0.000000
0.006864 0.005698 0.150000
0.007415 0.004168 0.150000
0.007350 0.002844 0.000000
0.007452 0.003200 0.000000
0.007478 0.003310 0.000000
0.007478 0.003310 0.150000
0.007452 0.003200 0.150000
0.007350 0.002844 0.150000
0.007266 0.002544 0.000000
0.007316 0.002702 0.000000
0.007316 0.002702 0.150000
0.007266 0.002544 0.150000
0.002232 0.010632 0.150000
0.002232 0.010632 0.000000
0.002168 0.010585 0.000000
0.002168 0.010585 0.150000
0.004845 0.011432 0.150000
0.004845 0.011432 0.000000
0.004814 0.011502 0.000000
0.004814 0.011502 0.150000
0.000530 0.004922 0.000000
0.000000 0.004559 0.000000
0.000000 0.004559 0.150000
0.000530 0.004922 0.150000
0.005286 0.000384 0.150000
0.005286 0.000384 0.000000
0.005454 0.000480 0.000000
0.005454 0.000480 0.150000
0.000885 0.001954 0.000000
0.000885 0.001954 0.150000
0.001864 0.009722 0.000000
0.001884 0.007277 0.000000
0.001884 0.007277 0.150000
0.001864 0.009722 0.150000
0.002312 0.010677 0.150000
0.002312 0.010677 0.000000
0.005909 0.007544 0.000000
0.005688 0.008112 0.000000
0.005512 0.008604 0.000000
0.005444 0.008816 0.000000
0.005444 0.008816 0.150000
0.005512 0.008604 0.150000
0.006084 0.007141 0.000000
0.006004 0.007320 0.000000
0.006004 0.007320 0.150000
0.006084 0.007141 0.150000
0.005909 0.007544 0.150000
0.005688 0.008112 0.150000
0.004709 0.011592 0.150000
0.004709 0.011592 0.000000
0.004648 0.011581 0.000000
0.004648 0.011581 0.150000
0.006475 0.006482 0.000000
0.006269 0.006796 0.000000
0.006215 0.006887 0.000000
0.006154 0.006999 0.000000
0.006154 0.006999 0.150000
0.006215 0.006887 0.150000
0.006536 0.006376 0.000000
0.006536 0.006376 0.150000
0.006269 0.006796 0.150000
0.006475 0.006482 0.150000
0.007188 0.002372 0.150000
0.007188 0.002372 0.000000
0.004781 0.011552 0.150000
0.004746 0.011582 0.150000
0.004548 0.011551 0.150000
0.004418 0.011504 0.150000
0.004265 0.011444 0.150000
0.004096 0.011376 0.150000
0.003920 0.011304 0.150000
0.003743 0.011229 0.150000
0.003287 0.011035 0.150000
0.003186 0.010993 0.150000
0.003123 0.010967 0.150000
0.003071 0.010949 0.150000
0.003000 0.010927 0.150000
0.002915 0.010900 0.150000
0.002819 0.010870 0.150000
0.002716 0.010837 0.150000
0.002610 0.010801 0.150000
0.002505 0.010762 0.150000
0.002404 0.010721 0.150000
0.002125 0.010537 0.150000
0.002092 0.010485 0.150000
0.002028 0.010358 0.150000
0.001921 0.010049 0.150000
0.001884 0.009883 0.150000
0.001861 0.007124 0.150000
0.001805 0.006934 0.150000
0.007507 0.003541 0.150000
0.001508 0.006203 0.150000
0.006653 0.001610 0.150000
0.006956 0.002000 0.150000
0.005616 0.000594 0.150000
0.005952 0.000882 0.150000
0.004595 0.000147 0.150000
0.004940 0.000240 0.150000
0.003597 0.000011 0.150000
0.003735 0.000004 0.150000
0.003399 0.000072 0.150000
0.001926 0.000956 0.150000
0.001086 0.001707 0.150000
0.001334 0.001454 0.150000
0.000394 0.003114 0.150000
0.000082 0.004308 0.150000
0.000329 0.003341 0.150000
0.000041 0.004446 0.150000
0.000944 0.005326 0.150000
0.001229 0.005687 0.150000
0.001166 0.005595 0.150000
0.001021 0.005413 0.150000
0.001096 0.005503 0.150000
0.003735 0.000004 0.000000
0.004595 0.000147 0.000000
0.001861 0.007124 0.000000
0.001805 0.006934 0.000000
0.001508 0.006203 0.000000
0.001884 0.009883 0.000000
0.004781 0.011552 0.000000
0.002092 0.010485 0.000000
0.002028 0.010358 0.000000
0.006653 0.001610 0.000000
0.005952 0.000882 0.000000
0.003597 0.000011 0.000000
0.004940 0.000240 0.000000
0.003287 0.011035 0.000000
0.003743 0.011229 0.000000
0.003920 0.011304 0.000000
0.004096 0.011376 0.000000
0.004265 0.011444 0.000000
0.004418 0.011504 0.000000
0.004548 0.011551 0.000000
0.004746 0.011582 0.000000
0.003186 0.010993 0.000000
0.003123 0.010967 0.000000
0.003071 0.010949 0.000000
0.002819 0.010870 0.000000
0.002915 0.010900 0.000000
0.003000 0.010927 0.000000
0.002716 0.010837 0.000000
0.002505 0.010762 0.000000
0.002610 0.010801 0.000000
0.002404 0.010721 0.000000
0.002125 0.010537 0.000000
0.001921 0.010049 0.000000
0.007507 0.003541 0.000000
0.006956 0.002000 0.000000
0.005616 0.000594 0.000000
0.003399 0.000072 0.000000
0.001926 0.000956 0.000000
0.001334 0.001454 0.000000
0.001086 0.001707 0.000000
0.000394 0.003114 0.000000
0.000329 0.003341 0.000000
0.000082 0.004308 0.000000
0.000041 0.004446 0.000000
0.000944 0.005326 0.000000
0.001229 0.005687 0.000000
0.001166 0.005595 0.000000
0.001021 0.005413 0.000000
0.001096 0.005503 0.000000
3 0 1 2
3 0 2 3
3 4 5 6
3 7 8 9
3 4 6 7
3 10 4 7
3 7 9 11
3 7 11 10
3 12 13 14
3 12 14 15
3 16 17 18
3 16 18 19
3 20 21 22
3 20 22 23
3 24 25 26
3 26 27 28
3 26 28 29
3 30 31 24
3 24 26 29
3 32 33 30
3 24 29 32
3 24 32 30
3 34 35 36
3 34 36 37
3 38 39 40
3 38 40 41
3 42 43 44
3 42 44 45
3 46 47 48
3 46 48 49
3 18 17 50
3 18 50 51
3 52 53 54
3 52 54 55
3 56 57 35
3 56 35 34
3 58 59 60
3 60 61 5
3 5 4 62
3 5 62 63
3 58 60 5
3 64 65 58
3 66 67 64
3 68 66 64
3 64 58 5
3 5 63 69
3 69 68 64
3 5 69 64
3 70 71 72
3 70 72 73
3 74 75 76
3 76 77 64
3 64 67 78
3 64 78 79
3 74 76 64
3 22 21 80
3 74 64 79
3 22 80 74
3 81 22 74
3 74 79 82
3 83 81 74
3 74 82 83
3 84 85 30
3 84 30 33
3 10 11 9
3 9 38 41
3 41 86 87
3 87 70 73
3 73 88 89
3 89 90 91
3 91 92 93
3 91 93 94
3 73 89 91
3 41 87 73
3 10 9 41
3 10 41 73
3 73 91 94
3 73 94 95
3 4 10 73
3 4 73 95
3 4 95 96
3 62 4 96
3 62 96 97
3 63 62 97
3 98 99 100
3 63 97 98
3 69 63 98
3 98 100 101
3 101 102 103
3 103 104 56
3 56 34 37
3 37 105 106
3 106 107 108
3 108 109 55
3 108 55 54
3 37 106 108
3 103 56 37
3 98 101 103
3 68 69 98
3 66 68 98
3 98 103 37
3 37 108 54
3 98 37 54
3 67 66 98
3 78 67 98
3 98 54 110
3 98 110 111
3 79 78 98
3 81 83 82
3 82 79 98
3 82 98 111
3 22 81 82
3 3 23 22
3 112 0 3
3 28 27 112
3 33 32 29
3 29 28 112
3 112 3 22
3 22 82 111
3 22 111 113
3 29 112 22
3 84 33 29
3 114 115 84
3 116 117 114
3 46 49 116
3 118 119 46
3 120 121 118
3 15 122 120
3 123 12 15
3 124 125 123
3 18 51 124
3 126 19 18
3 127 128 126
3 45 44 129
3 127 126 18
3 45 129 127
3 130 45 127
3 127 18 124
3 124 123 15
3 15 120 118
3 118 46 116
3 116 114 84
3 84 29 22
3 22 113 131
3 22 131 132
3 116 84 22
3 15 118 116
3 127 124 15
3 133 130 127
3 22 132 134
3 133 127 15
3 22 134 133
3 15 116 22
3 133 15 22
3 135 136 118
3 135 118 121
3 110 137 138
3 110 138 111
3 138 139 113
3 138 113 111
3 109 140 52
3 109 52 55
3 41 40 141
3 41 141 86
3 142 143 107
3 142 107 106
3 144 114 117
3 144 117 145
3 120 146 135
3 120 135 121
3 136 147 119
3 136 119 118
3 148 149 150
3 150 151 152
3 152 153 154
3 154 72 71
3 71 155 141
3 141 40 39
3 39 8 7
3 39 7 6
3 71 141 39
3 152 154 71
3 148 150 152
3 156 148 152
3 152 71 39
3 152 39 6
3 156 152 6
3 156 6 5
3 157 156 5
3 157 5 61
3 158 157 61
3 158 61 60
3 159 160 161
3 161 158 60
3 161 60 59
3 162 159 161
3 163 164 162
3 57 165 163
3 36 35 57
3 142 166 36
3 167 143 142
3 52 140 167
3 53 52 167
3 167 142 36
3 36 57 163
3 163 162 161
3 161 59 58
3 161 58 65
3 36 163 161
3 53 167 36
3 53 36 161
3 161 65 64
3 161 64 77
3 137 53 161
3 138 137 161
3 161 77 76
3 75 74 80
3 161 76 75
3 138 161 75
3 75 80 21
3 21 20 2
3 2 1 168
3 168 26 25
3 168 25 24
3 21 2 168
3 138 75 21
3 139 138 21
3 21 168 24
3 24 30 85
3 85 169 144
3 144 145 170
3 170 48 47
3 47 147 136
3 136 135 146
3 146 171 14
3 14 13 172
3 172 173 174
3 174 50 17
3 17 16 175
3 175 176 177
3 178 43 42
3 17 175 177
3 177 178 42
3 177 42 179
3 174 17 177
3 14 172 174
3 136 146 14
3 170 47 136
3 85 144 170
3 21 24 85
3 180 139 21
3 181 180 21
3 21 85 170
3 170 136 14
3 14 174 177
3 177 179 182
3 183 181 21
3 14 177 182
3 182 183 21
3 21 170 14
3 21 14 182
3 132 131 180
3 132 180 181
3 134 132 181
3 134 181 183
3 179 130 133
3 133 134 183
3 182 179 133
3 183 182 133
3 51 50 174
3 51 174 124
3 54 53 137
3 54 137 110
3 124 174 173
3 124 173 125
3 20 23 3
3 20 3 2
3 115 169 85
3 115 85 84
3 172 13 12
3 172 12 123
3 179 42 45
3 179 45 130
3 122 171 146
3 122 146 120
3 140 109 108
3 140 108 167
3 26 168 112
3 26 112 27
3 112 168 1
3 112 1 0
3 175 16 19
3 175 19 126
3 177 175 126
3 177 126 128
3 44 43 178
3 178 177 128
3 178 128 127
3 129 44 178
3 127 129 178
3 87 155 71
3 87 71 70
3 49 48 170
3 49 170 116
3 37 36 166
3 37 166 105
3 165 57 56
3 165 56 104
3 163 165 104
3 163 104 103
3 164 163 103
3 164 103 102
3 162 164 102
3 162 102 101
3 159 162 101
3 159 101 100
3 160 159 100
3 160 100 99
3 161 160 99
3 161 99 98
3 158 161 98
3 158 98 97
3 157 158 97
3 157 97 96
3 156 157 96
3 156 96 95
3 148 156 95
3 148 95 94
3 149 148 94
3 149 94 93
3 150 149 93
3 150 93 92
3 151 150 92
3 151 92 91
3 152 151 91
3 152 91 90
3 153 152 90
3 153 90 89
3 73 72 154
3 154 153 89
3 88 73 154
3 89 88 154
3 105 166 142
3 105 142 106
3 86 141 155
3 86 155 87
3 9 8 39
3 9 39 38
3 144 169 115
3 144 115 114
3 15 14 171
3 15 171 122
3 139 180 131
3 139 131 113
3 172 123 125
3 172 125 173
3 107 143 167
3 107 167 108
3 119 147 47
3 119 47 46
3 170 145 117
3 170 117 116
