ply
format ascii 1.0
comment Created by Blender 3.6.8 - www.blender.org
element vertex 138
property float x
property float y
property float z
element face 268
property list uchar uint vertex_indices
end_header
0.000074 0.001727 0.150000
0.000074 0.001727 0.000000
0.000125 0.001619 0.000000
0.000125 0.001619 0.150000
0.006915 0.002830 0.150000
0.006915 0.002830 0.000000
0.006872 0.002980 0.000000
0.006872 0.002980 0.150000
0.004437 0.000002 0.000000
0.004204 0.000000 0.000000
0.003967 0.000003 0.000000
0.003729 0.000011 0.000000
0.003261 0.000032 0.000000
0.003045 0.000043 0.000000
0.002851 0.000056 0.000000
0.002675 0.000073 0.000000
0.002369 0.000116 0.000000
0.002098 0.000179 0.000000
0.001968 0.000220 0.000000
0.001837 0.000269 0.000000
0.001703 0.000325 0.000000
0.001561 0.000389 0.000000
0.001408 0.000464 0.000000
0.001254 0.000545 0.000000
0.000972 0.000720 0.000000
0.000727 0.000908 0.000000
0.000515 0.001105 0.000000
0.000336 0.001309 0.000000
0.000037 0.001842 0.000000
0.000014 0.001963 0.000000
0.000002 0.002091 0.000000
0.000007 0.002359 0.000000
0.000021 0.002498 0.000000
0.000040 0.002638 0.000000
0.000141 0.003197 0.000000
0.000181 0.003342 0.000000
0.000248 0.003503 0.000000
0.000443 0.003854 0.000000
0.001264 0.004936 0.000000
0.002516 0.005149 0.000000
0.002767 0.005151 0.000000
0.002908 0.005143 0.000000
0.003062 0.005132 0.000000
0.003400 0.005097 0.000000
0.004641 0.004873 0.000000
0.004803 0.004823 0.000000
0.005145 0.004671 0.000000
0.005498 0.004461 0.000000
0.005675 0.004337 0.000000
0.005848 0.004204 0.000000
0.006180 0.003915 0.000000
0.006335 0.003762 0.000000
0.006479 0.003605 0.000000
0.006611 0.003446 0.000000
0.006723 0.003288 0.000000
0.006809 0.003133 0.000000
0.006941 0.002682 0.000000
0.006951 0.002392 0.000000
0.006846 0.001553 0.000000
0.006798 0.001422 0.000000
0.006731 0.001297 0.000000
0.006648 0.001176 0.000000
0.006552 0.001059 0.000000
0.006329 0.000836 0.000000
0.006208 0.000729 0.000000
0.006084 0.000624 0.000000
0.005960 0.000522 0.000000
0.005838 0.000421 0.000000
0.005721 0.000322 0.000000
0.005595 0.000232 0.000000
0.005274 0.000104 0.000000
0.004880 0.000031 0.000000
0.005445 0.000160 0.000000
0.003400 0.005097 0.150000
0.004641 0.004873 0.150000
0.006552 0.001059 0.150000
0.006648 0.001176 0.150000
0.001264 0.004936 0.150000
0.002516 0.005149 0.150000
0.001703 0.000325 0.150000
0.001561 0.000389 0.150000
0.001254 0.000545 0.150000
0.001408 0.000464 0.150000
0.000727 0.000908 0.150000
0.000972 0.000720 0.150000
0.006723 0.003288 0.150000
0.006611 0.003446 0.150000
0.005445 0.000160 0.150000
0.005595 0.000232 0.150000
0.005498 0.004461 0.150000
0.005675 0.004337 0.150000
0.006180 0.003915 0.150000
0.005848 0.004204 0.150000
0.005274 0.000104 0.150000
0.006809 0.003133 0.150000
0.004880 0.000031 0.150000
0.005721 0.000322 0.150000
0.005838 0.000421 0.150000
0.004437 0.000002 0.150000
0.003967 0.000003 0.150000
0.004204 0.000000 0.150000
0.003261 0.000032 0.150000
0.003729 0.000011 0.150000
0.002851 0.000056 0.150000
0.003045 0.000043 0.150000
0.002369 0.000116 0.150000
0.002675 0.000073 0.150000
0.001968 0.000220 0.150000
0.002098 0.000179 0.150000
0.001837 0.000269 0.150000
0.000515 0.001105 0.150000
0.000336 0.001309 0.150000
0.000037 0.001842 0.150000
0.000002 0.002091 0.150000
0.000014 0.001963 0.150000
0.000021 0.002498 0.150000
0.000007 0.002359 0.150000
0.000141 0.003197 0.150000
0.000040 0.002638 0.150000
0.000248 0.003503 0.150000
0.000181 0.003342 0.150000
0.000443 0.003854 0.150000
0.002767 0.005151 0.150000
0.003062 0.005132 0.150000
0.002908 0.005143 0.150000
0.005145 0.004671 0.150000
0.004803 0.004823 0.150000
0.006479 0.003605 0.150000
0.006335 0.003762 0.150000
0.006941 0.002682 0.150000
0.006846 0.001553 0.150000
0.006951 0.002392 0.150000
0.006731 0.001297 0.150000
0.006798 0.001422 0.150000
0.006208 0.000729 0.150000
0.006329 0.000836 0.150000
0.005960 0.000522 0.150000
0.006084 0.000624 0.150000
3 0 1 2
3 0 2 3
3 4 5 6
3 4 6 7
3 8 9 10
3 10 11 12
3 12 13 14
3 14 15 16
3 16 17 18
3 18 19 20
3 20 21 22
3 22 23 24
3 24 25 26
3 26 27 2
3 2 1 28
3 28 29 30
3 30 31 32
3 32 33 34
3 34 35 36
3 36 37 38
3 38 39 40
3 40 41 42
3 42 43 44
3 44 45 46
3 46 47 48
3 48 49 50
3 50 51 52
3 52 53 54
3 54 55 6
3 6 5 56
3 56 57 58
3 58 59 60
3 60 61 62
3 62 63 64
3 64 65 66
3 67 68 69
3 64 66 67
3 60 62 64
3 56 58 60
3 54 6 56
3 50 52 54
3 46 48 50
3 42 44 46
3 38 40 42
3 34 36 38
3 30 32 34
3 2 28 30
3 24 26 2
3 20 22 24
3 16 18 20
3 12 14 16
3 8 10 12
3 70 71 8
3 69 72 70
3 64 67 69
3 56 60 64
3 50 54 56
3 42 46 50
3 34 38 42
3 2 30 34
3 20 24 2
3 12 16 20
3 70 8 12
3 64 69 70
3 50 56 64
3 34 42 50
3 20 2 34
3 70 12 20
3 50 64 70
3 20 34 50
3 20 50 70
3 44 43 73
3 44 73 74
3 75 62 61
3 75 61 76
3 39 38 77
3 39 77 78
3 21 20 79
3 21 79 80
3 81 23 22
3 22 21 80
3 82 81 22
3 80 82 22
3 83 25 24
3 83 24 84
3 85 54 53
3 85 53 86
3 87 72 69
3 87 69 88
3 48 47 89
3 48 89 90
3 91 50 49
3 49 48 90
3 92 91 49
3 90 92 49
3 93 70 72
3 93 72 87
3 7 6 55
3 7 55 94
3 95 93 87
3 87 88 96
3 87 96 97
3 98 95 87
3 99 100 98
3 101 102 99
3 103 104 101
3 105 106 103
3 107 108 105
3 79 109 107
3 82 80 79
3 84 81 82
3 110 83 84
3 3 111 110
3 112 0 3
3 113 114 112
3 115 116 113
3 117 118 115
3 119 120 117
3 77 121 119
3 122 78 77
3 123 124 122
3 74 73 123
3 125 126 74
3 90 89 125
3 91 92 90
3 127 128 91
3 85 86 127
3 7 94 85
3 129 4 7
3 130 131 129
3 132 133 130
3 75 76 132
3 134 135 75
3 136 137 134
3 87 97 136
3 99 98 87
3 103 101 99
3 107 105 103
3 82 79 107
3 110 84 82
3 112 3 110
3 115 113 112
3 119 117 115
3 122 77 119
3 74 123 122
3 90 125 74
3 127 91 90
3 7 85 127
3 130 129 7
3 75 132 130
3 136 134 75
3 99 87 136
3 107 103 99
3 110 82 107
3 115 112 110
3 122 119 115
3 90 74 122
3 7 127 90
3 75 130 7
3 99 136 75
3 110 107 99
3 122 115 110
3 7 90 122
3 99 75 7
3 122 110 99
3 7 122 99
3 15 106 105
3 15 105 16
3 16 105 108
3 16 108 17
3 76 61 60
3 76 60 132
3 37 36 119
3 37 119 121
3 39 78 122
3 39 122 40
3 31 30 113
3 31 113 116
3 70 93 95
3 70 95 71
3 41 40 122
3 41 122 124
3 73 43 42
3 42 41 124
3 123 73 42
3 42 124 123
3 131 57 56
3 131 56 129
3 129 56 5
3 129 5 4
3 64 63 135
3 64 135 134
3 96 88 69
3 97 96 69
3 64 134 137
3 136 97 69
3 64 137 136
3 64 136 69
3 45 126 125
3 45 125 46
3 132 60 59
3 132 59 133
3 38 37 121
3 38 121 77
3 58 57 131
3 58 131 130
3 126 45 44
3 126 44 74
3 98 8 71
3 98 71 95
3 119 36 35
3 119 35 120
3 110 26 25
3 110 25 83
3 46 125 89
3 46 89 47
3 23 81 84
3 23 84 24
3 113 30 29
3 113 29 114
3 109 79 20
3 109 20 19
3 17 108 107
3 107 109 19
3 18 17 107
3 19 18 107
3 114 29 28
3 114 28 112
3 15 14 13
3 13 12 11
3 11 10 9
3 9 8 98
3 9 98 100
3 13 11 9
3 106 15 13
3 103 106 13
3 13 9 100
3 13 100 99
3 104 103 13
3 101 104 13
3 13 99 102
3 13 102 101
3 111 27 26
3 111 26 110
3 133 59 58
3 133 58 130
3 112 28 1
3 112 1 0
3 51 50 91
3 51 91 128
3 86 53 52
3 52 51 128
3 127 86 52
3 52 128 127
3 135 63 62
3 135 62 75
3 32 31 116
3 32 116 115
3 117 34 33
3 33 32 115
3 118 117 33
3 115 118 33
3 120 35 34
3 120 34 117
3 94 55 54
3 94 54 85
3 2 27 111
3 2 111 3
