ply
format ascii 1.0
comment Created by Blender 3.6.8 - www.blender.org
element vertex 270
property float x
property float y
property float z
element face 530
property list uchar uint vertex_indices
end_header
0.000892 0.008544 0.150000
0.000892 0.008544 0.000000
0.000825 0.008471 0.000000
0.000825 0.008471 0.150000
0.007549 0.003909 0.150000
0.007549 0.003909 0.000000
0.007538 0.004095 0.000000
0.007538 0.004095 0.150000
0.007103 0.005546 0.150000
0.007168 0.005385 0.150000
0.007168 0.005385 0.000000
0.007103 0.005546 0.000000
0.006948 0.005871 0.000000
0.006948 0.005871 0.150000
0.007030 0.005707 0.150000
0.007030 0.005707 0.000000
0.006939 0.001101 0.150000
0.006939 0.001101 0.000000
0.007045 0.001378 0.000000
0.007045 0.001378 0.150000
0.000762 0.008385 0.000000
0.000762 0.008385 0.150000
0.004581 0.008629 0.150000
0.004581 0.008629 0.000000
0.004431 0.008717 0.000000
0.004431 0.008717 0.150000
0.006369 0.000255 0.150000
0.006369 0.000255 0.000000
0.006461 0.000315 0.000000
0.006461 0.000315 0.150000
0.000465 0.007695 0.000000
0.000424 0.007587 0.000000
0.000387 0.007478 0.000000
0.000355 0.007368 0.000000
0.000355 0.007368 0.150000
0.000387 0.007478 0.150000
0.000508 0.007805 0.000000
0.000555 0.007919 0.000000
0.000424 0.007587 0.150000
0.000465 0.007695 0.150000
0.000603 0.008037 0.000000
0.000705 0.008284 0.000000
0.000652 0.008163 0.000000
0.000652 0.008163 0.150000
0.000705 0.008284 0.150000
0.000603 0.008037 0.150000
0.000508 0.007805 0.150000
0.000555 0.007919 0.150000
0.000076 0.001729 0.000000
0.000224 0.001449 0.000000
0.000224 0.001449 0.150000
0.000076 0.001729 0.150000
0.001865 0.009018 0.150000
0.001865 0.009018 0.000000
0.001721 0.008986 0.000000
0.001721 0.008986 0.150000
0.004241 0.008789 0.000000
0.004241 0.008789 0.150000
0.000481 0.004678 0.000000
0.000454 0.004469 0.000000
0.000454 0.004469 0.150000
0.000481 0.004678 0.150000
0.007508 0.004287 0.150000
0.006749 0.006215 0.150000
0.005624 0.007678 0.150000
0.005365 0.007951 0.150000
0.005246 0.008069 0.150000
0.005134 0.008174 0.150000
0.003985 0.008846 0.150000
0.003824 0.008868 0.150000
0.003644 0.008891 0.150000
0.003450 0.008918 0.150000
0.003246 0.008946 0.150000
0.003036 0.008974 0.150000
0.002824 0.009000 0.150000
0.002613 0.009020 0.150000
0.002409 0.009035 0.150000
0.002031 0.009036 0.150000
0.001601 0.008937 0.150000
0.001496 0.008883 0.150000
0.001396 0.008835 0.150000
0.001301 0.008791 0.150000
0.001210 0.008749 0.150000
0.007499 0.003370 0.150000
0.007528 0.003549 0.150000
0.007419 0.003001 0.150000
0.007462 0.003188 0.150000
0.007324 0.002601 0.150000
0.001123 0.008705 0.150000
0.000964 0.008605 0.150000
0.007143 0.001722 0.150000
0.007189 0.001925 0.150000
0.007276 0.002384 0.150000
0.007095 0.001541 0.150000
0.006828 0.000872 0.150000
0.006884 0.000982 0.150000
0.006716 0.000671 0.150000
0.006772 0.000769 0.150000
0.006540 0.000389 0.150000
0.006603 0.000479 0.150000
0.006659 0.000575 0.150000
0.000307 0.007134 0.150000
0.000286 0.006872 0.150000
0.000286 0.006725 0.150000
0.000292 0.006582 0.150000
0.000299 0.006455 0.150000
0.000308 0.006343 0.150000
0.000317 0.006242 0.150000
0.000328 0.006149 0.150000
0.000340 0.006061 0.150000
0.000352 0.005975 0.150000
0.000379 0.005798 0.150000
0.006150 0.000168 0.150000
0.006265 0.000206 0.150000
0.005749 0.000093 0.150000
0.005890 0.000113 0.150000
0.004957 0.000012 0.150000
0.005133 0.000028 0.150000
0.004526 0.000000 0.150000
0.004754 0.000002 0.150000
0.004009 0.000013 0.150000
0.004277 0.000004 0.150000
0.003433 0.000046 0.150000
0.003727 0.000027 0.150000
0.002516 0.000125 0.150000
0.003131 0.000069 0.150000
0.001634 0.000232 0.150000
0.001909 0.000191 0.150000
0.001056 0.000411 0.150000
0.001212 0.000344 0.150000
0.000832 0.000557 0.150000
0.000931 0.000483 0.150000
0.000698 0.000706 0.150000
0.000756 0.000632 0.150000
0.000534 0.000987 0.150000
0.000558 0.000955 0.150000
0.000566 0.000944 0.150000
0.000393 0.005701 0.150000
0.000407 0.005594 0.150000
0.000436 0.005354 0.150000
0.000463 0.005143 0.150000
0.000498 0.001036 0.150000
0.000400 0.001176 0.150000
0.000453 0.001100 0.150000
0.000283 0.001353 0.150000
0.000342 0.001261 0.150000
0.000025 0.001890 0.150000
0.000046 0.001811 0.150000
0.000002 0.002231 0.150000
0.000003 0.002055 0.150000
0.000016 0.002421 0.150000
0.000007 0.002324 0.150000
0.000120 0.003173 0.150000
0.000102 0.003068 0.150000
0.000163 0.003368 0.150000
0.000140 0.003272 0.150000
0.000213 0.003554 0.150000
0.000187 0.003461 0.150000
0.000301 0.003852 0.150000
0.000333 0.003964 0.150000
0.000473 0.005047 0.150000
0.000481 0.004955 0.150000
0.000367 0.004086 0.150000
0.000485 0.004864 0.150000
0.000401 0.004218 0.150000
0.000431 0.004350 0.150000
0.006150 0.000168 0.000000
0.005890 0.000113 0.000000
0.005749 0.000093 0.000000
0.005133 0.000028 0.000000
0.004957 0.000012 0.000000
0.004754 0.000002 0.000000
0.004526 0.000000 0.000000
0.004277 0.000004 0.000000
0.004009 0.000013 0.000000
0.003727 0.000027 0.000000
0.003433 0.000046 0.000000
0.003131 0.000069 0.000000
0.002516 0.000125 0.000000
0.001909 0.000191 0.000000
0.001634 0.000232 0.000000
0.001212 0.000344 0.000000
0.001056 0.000411 0.000000
0.000931 0.000483 0.000000
0.000832 0.000557 0.000000
0.000756 0.000632 0.000000
0.000698 0.000706 0.000000
0.000566 0.000944 0.000000
0.000558 0.000955 0.000000
0.000534 0.000987 0.000000
0.006265 0.000206 0.000000
0.006603 0.000479 0.000000
0.006540 0.000389 0.000000
0.006772 0.000769 0.000000
0.006716 0.000671 0.000000
0.006659 0.000575 0.000000
0.000498 0.001036 0.000000
0.006884 0.000982 0.000000
0.006828 0.000872 0.000000
0.007143 0.001722 0.000000
0.007095 0.001541 0.000000
0.007276 0.002384 0.000000
0.007189 0.001925 0.000000
0.007462 0.003188 0.000000
0.007419 0.003001 0.000000
0.007324 0.002601 0.000000
0.007499 0.003370 0.000000
0.000453 0.001100 0.000000
0.000400 0.001176 0.000000
0.000342 0.001261 0.000000
0.000283 0.001353 0.000000
0.000046 0.001811 0.000000
0.000025 0.001890 0.000000
0.000003 0.002055 0.000000
0.000002 0.002231 0.000000
0.000007 0.002324 0.000000
0.000016 0.002421 0.000000
0.000102 0.003068 0.000000
0.000120 0.003173 0.000000
0.000140 0.003272 0.000000
0.000163 0.003368 0.000000
0.000187 0.003461 0.000000
0.000213 0.003554 0.000000
0.000301 0.003852 0.000000
0.007528 0.003549 0.000000
0.007508 0.004287 0.000000
0.006749 0.006215 0.000000
0.005365 0.007951 0.000000
0.005624 0.007678 0.000000
0.005134 0.008174 0.000000
0.005246 0.008069 0.000000
0.003985 0.008846 0.000000
0.003644 0.008891 0.000000
0.003824 0.008868 0.000000
0.003036 0.008974 0.000000
0.003246 0.008946 0.000000
0.003450 0.008918 0.000000
0.002613 0.009020 0.000000
0.002824 0.009000 0.000000
0.002031 0.009036 0.000000
0.002409 0.009035 0.000000
0.001496 0.008883 0.000000
0.001601 0.008937 0.000000
0.001210 0.008749 0.000000
0.001301 0.008791 0.000000
0.001396 0.008835 0.000000
0.000333 0.003964 0.000000
0.001123 0.008705 0.000000
0.000964 0.008605 0.000000
0.000367 0.004086 0.000000
0.000401 0.004218 0.000000
0.000307 0.007134 0.000000
0.000286 0.006725 0.000000
0.000286 0.006872 0.000000
0.000299 0.006455 0.000000
0.000292 0.006582 0.000000
0.000317 0.006242 0.000000
0.000308 0.006343 0.000000
0.000340 0.006061 0.000000
0.000328 0.006149 0.000000
0.000379 0.005798 0.000000
0.000352 0.005975 0.000000
0.000431 0.004350 0.000000
0.000393 0.005701 0.000000
0.000463 0.005143 0.000000
0.000436 0.005354 0.000000
0.000407 0.005594 0.000000
0.000485 0.004864 0.000000
0.000481 0.004955 0.000000
0.000473 0.005047 0.000000
3 0 1 2
3 0 2 3
3 4 5 6
3 4 6 7
3 8 9 10
3 8 10 11
3 12 13 14
3 14 8 11
3 15 12 14
3 11 15 14
3 16 17 18
3 16 18 19
3 3 2 20
3 3 20 21
3 22 23 24
3 22 24 25
3 26 27 28
3 26 28 29
3 30 31 32
3 32 33 34
3 32 34 35
3 36 30 32
3 37 36 32
3 32 35 38
3 32 38 39
3 40 37 32
3 41 42 40
3 43 44 41
3 45 43 41
3 41 40 32
3 32 39 46
3 47 45 41
3 32 46 47
3 32 47 41
3 48 49 50
3 48 50 51
3 52 53 54
3 52 54 55
3 56 57 25
3 56 25 24
3 21 20 41
3 21 41 44
3 58 59 60
3 58 60 61
3 7 62 9
3 9 8 14
3 14 13 63
3 63 64 65
3 65 66 67
3 67 22 25
3 25 57 68
3 68 69 70
3 71 72 73
3 25 68 70
3 70 71 73
3 73 74 75
3 75 76 77
3 77 52 55
3 55 78 79
3 80 81 82
3 55 79 80
3 75 77 55
3 70 73 75
3 67 25 70
3 63 65 67
3 9 14 63
3 4 7 9
3 83 84 4
3 85 86 83
3 87 85 83
3 83 4 9
3 9 63 67
3 67 70 75
3 75 55 80
3 80 82 88
3 88 89 0
3 0 3 21
3 21 44 43
3 21 43 45
3 88 0 21
3 75 80 88
3 9 67 75
3 87 83 9
3 90 91 92
3 92 87 9
3 9 75 88
3 88 21 45
3 47 46 39
3 88 45 47
3 92 9 88
3 93 90 92
3 16 19 93
3 94 95 16
3 96 97 94
3 98 99 100
3 100 96 94
3 94 16 93
3 93 92 88
3 88 47 39
3 39 38 35
3 35 34 101
3 101 102 103
3 103 104 105
3 105 106 107
3 107 108 109
3 109 110 111
3 107 109 111
3 103 105 107
3 35 101 103
3 88 39 35
3 94 93 88
3 98 100 94
3 26 29 98
3 112 113 26
3 114 115 112
3 116 117 114
3 118 119 116
3 120 121 118
3 122 123 120
3 124 125 122
3 126 127 124
3 128 129 126
3 130 131 128
3 132 133 130
3 134 135 136
3 136 132 130
3 130 128 126
3 126 124 122
3 122 120 118
3 118 116 114
3 114 112 26
3 26 98 94
3 94 88 35
3 35 103 107
3 107 111 137
3 138 139 140
3 35 107 137
3 35 137 138
3 26 94 35
3 118 114 26
3 126 122 118
3 136 130 126
3 141 134 136
3 142 143 141
3 144 145 142
3 51 50 144
3 146 147 51
3 148 149 146
3 150 151 148
3 152 153 150
3 154 155 152
3 156 157 154
3 158 156 154
3 154 152 150
3 150 148 146
3 146 51 144
3 144 142 141
3 141 136 126
3 126 118 26
3 26 35 138
3 26 138 140
3 141 126 26
3 146 144 141
3 154 150 146
3 159 158 154
3 159 154 146
3 146 141 26
3 26 140 160
3 26 160 161
3 159 146 26
3 162 159 26
3 26 161 163
3 26 163 61
3 164 162 26
3 165 164 26
3 26 61 60
3 60 165 26
3 166 167 168
3 168 169 170
3 170 171 172
3 172 173 174
3 174 175 176
3 176 177 178
3 178 179 180
3 180 181 182
3 182 183 184
3 184 185 186
3 187 188 189
3 184 186 187
3 180 182 184
3 176 178 180
3 172 174 176
3 168 170 172
3 190 166 168
3 28 27 190
3 191 192 28
3 193 194 195
3 195 191 28
3 28 190 168
3 168 172 176
3 176 180 184
3 187 189 196
3 176 184 187
3 28 168 176
3 193 195 28
3 197 198 193
3 18 17 197
3 199 200 18
3 201 202 199
3 203 204 205
3 201 199 18
3 206 203 205
3 205 201 18
3 18 197 193
3 193 28 176
3 176 187 196
3 196 207 208
3 208 209 210
3 210 49 48
3 48 211 212
3 212 213 214
3 214 215 216
3 216 217 218
3 218 219 220
3 220 221 222
3 220 222 223
3 216 218 220
3 212 214 216
3 210 48 212
3 196 208 210
3 193 176 196
3 205 18 193
3 224 206 205
3 6 5 224
3 10 225 6
3 15 11 10
3 226 12 15
3 227 228 226
3 229 230 227
3 24 23 229
3 231 56 24
3 232 233 231
3 234 235 236
3 232 231 24
3 234 236 232
3 237 238 234
3 239 240 237
3 54 53 239
3 241 242 54
3 243 244 245
3 245 241 54
3 54 239 237
3 237 234 232
3 232 24 229
3 229 227 226
3 226 15 10
3 10 6 224
3 224 205 193
3 193 196 210
3 210 212 216
3 216 220 223
3 216 223 246
3 193 210 216
3 10 224 193
3 229 226 10
3 237 232 229
3 245 54 237
3 247 243 245
3 1 248 247
3 20 2 1
3 42 41 20
3 40 42 20
3 20 1 247
3 247 245 237
3 237 229 10
3 10 193 216
3 216 246 249
3 216 249 250
3 237 10 216
3 20 247 237
3 37 40 20
3 30 36 37
3 251 33 32
3 252 253 251
3 254 255 252
3 256 257 254
3 258 259 256
3 260 261 258
3 260 258 256
3 256 254 252
3 252 251 32
3 32 30 37
3 37 20 237
3 237 216 250
3 237 250 262
3 32 37 237
3 256 252 32
3 263 260 256
3 264 265 266
3 263 256 32
3 266 263 32
3 237 262 59
3 237 59 58
3 266 32 237
3 264 266 237
3 237 58 267
3 237 267 268
3 269 264 237
3 268 269 237
3 213 149 148
3 213 148 214
3 147 211 48
3 147 48 51
3 197 17 16
3 197 16 95
3 194 193 197
3 99 191 195
3 195 194 197
3 197 95 94
3 197 94 97
3 99 195 197
3 100 99 197
3 197 97 96
3 197 96 100
3 237 240 76
3 237 76 75
3 238 237 75
3 238 75 74
3 234 238 74
3 234 74 73
3 232 236 235
3 235 234 73
3 235 73 72
3 233 232 235
3 68 231 233
3 69 68 233
3 233 235 72
3 233 72 71
3 70 69 233
3 71 70 233
3 213 212 146
3 213 146 149
3 230 229 67
3 230 67 66
3 64 228 227
3 227 230 66
3 65 64 227
3 66 65 227
3 7 6 225
3 7 225 62
3 226 228 64
3 226 64 63
3 239 77 76
3 239 76 240
3 132 186 185
3 132 185 133
3 188 187 136
3 188 136 135
3 189 188 135
3 189 135 134
3 196 189 134
3 196 134 141
3 207 196 141
3 207 141 143
3 208 207 143
3 208 143 142
3 209 208 142
3 209 142 145
3 50 49 210
3 210 209 145
3 144 50 210
3 145 144 210
3 130 184 183
3 130 183 131
3 215 214 148
3 215 148 151
3 216 215 151
3 216 151 150
3 152 218 217
3 217 216 150
3 153 152 217
3 217 150 153
3 34 33 251
3 34 251 101
3 98 192 191
3 98 191 99
3 133 185 184
3 133 184 130
3 241 245 244
3 243 247 88
3 241 244 243
3 55 54 242
3 242 241 243
3 243 88 82
3 243 82 81
3 55 242 243
3 78 55 243
3 243 81 80
3 79 78 243
3 243 80 79
3 77 239 53
3 77 53 52
3 251 253 102
3 251 102 101
3 174 173 121
3 174 121 120
3 177 176 174
3 179 178 177
3 126 180 179
3 127 126 179
3 179 177 174
3 174 120 123
3 174 123 122
3 127 179 174
3 124 127 174
3 174 122 125
3 174 125 124
3 56 231 68
3 56 68 57
3 202 201 205
3 202 205 204
3 202 204 203
3 206 224 84
3 203 206 84
3 203 84 83
3 202 203 83
3 202 83 86
3 199 202 86
3 199 86 85
3 19 18 200
3 200 199 85
3 200 85 87
3 93 19 200
3 90 93 200
3 200 87 92
3 91 90 200
3 92 91 200
3 128 182 181
3 128 181 129
3 131 183 182
3 131 182 128
3 146 212 211
3 146 211 147
3 13 12 226
3 13 226 63
3 163 267 58
3 163 58 61
3 29 28 192
3 29 192 98
3 268 267 163
3 268 163 161
3 269 268 161
3 269 161 160
3 264 269 160
3 264 160 140
3 266 264 140
3 266 140 139
3 263 266 139
3 263 139 138
3 260 263 138
3 260 138 137
3 259 258 260
3 257 256 259
3 255 254 257
3 253 252 255
3 103 102 253
3 104 103 253
3 253 255 257
3 257 259 260
3 260 137 111
3 260 111 110
3 253 257 260
3 105 104 253
3 106 105 253
3 253 260 110
3 253 110 109
3 107 106 253
3 253 109 108
3 108 107 253
3 5 4 84
3 5 84 224
3 112 166 190
3 112 190 113
3 129 181 180
3 129 180 126
3 10 9 62
3 10 62 225
3 218 152 155
3 218 155 154
3 221 220 218
3 223 222 221
3 223 221 218
3 218 154 157
3 218 157 156
3 246 223 218
3 249 246 218
3 218 156 158
3 218 158 159
3 249 218 159
3 249 159 162
3 250 249 162
3 250 162 164
3 60 59 262
3 262 250 164
3 165 60 262
3 164 165 262
3 229 23 22
3 229 22 67
3 168 167 115
3 168 115 114
3 116 170 169
3 169 168 114
3 117 116 169
3 114 117 169
3 113 190 27
3 113 27 26
3 88 247 248
3 88 248 89
3 167 166 112
3 167 112 115
3 118 121 173
3 118 173 172
3 170 116 119
3 119 118 172
3 171 170 119
3 172 171 119
3 89 248 1
3 89 1 0
3 187 186 132
3 187 132 136
