ply
format ascii 1.0
comment Created by Blender 3.6.8 - www.blender.org
element vertex 310
property float x
property float y
property float z
element face 608
property list uchar uint vertex_indices
end_header
0.000132 0.002001 0.000000
0.000149 0.001955 0.000000
0.000149 0.001955 0.150000
0.000132 0.002001 0.150000
0.000027 0.002358 0.150000
0.000027 0.002358 0.000000
0.000116 0.002051 0.000000
0.000116 0.002051 0.150000
0.001136 0.008666 0.150000
0.001136 0.008666 0.000000
0.001096 0.008645 0.000000
0.001096 0.008645 0.150000
0.001038 0.001150 0.150000
0.001038 0.001150 0.000000
0.001080 0.001093 0.000000
0.001080 0.001093 0.150000
0.003349 0.005777 0.150000
0.003349 0.005777 0.000000
0.003281 0.005882 0.000000
0.003281 0.005882 0.150000
0.004902 0.004229 0.000000
0.004860 0.004270 0.000000
0.004860 0.004270 0.150000
0.004902 0.004229 0.150000
0.004945 0.004184 0.000000
0.004945 0.004184 0.150000
0.004991 0.004134 0.000000
0.004991 0.004134 0.150000
0.005093 0.004016 0.150000
0.005093 0.004016 0.000000
0.005043 0.004076 0.000000
0.005043 0.004076 0.150000
0.005225 0.003795 0.150000
0.005225 0.003795 0.000000
0.005171 0.003904 0.000000
0.005171 0.003904 0.150000
0.001062 0.008615 0.150000
0.001062 0.008615 0.000000
0.001037 0.008574 0.000000
0.001037 0.008574 0.150000
0.000932 0.008194 0.000000
0.000930 0.008158 0.000000
0.000930 0.008158 0.150000
0.000932 0.008194 0.150000
0.000939 0.008265 0.150000
0.000939 0.008265 0.000000
0.000935 0.008230 0.000000
0.000935 0.008230 0.150000
0.005115 0.002729 0.000000
0.004921 0.002403 0.000000
0.004861 0.002311 0.000000
0.004751 0.002175 0.000000
0.004697 0.002124 0.000000
0.004643 0.002079 0.000000
0.004389 0.001892 0.000000
0.005300 0.003014 0.000000
0.005263 0.002955 0.000000
0.003387 0.001050 0.000000
0.005328 0.003069 0.000000
0.005362 0.003176 0.000000
0.005349 0.003122 0.000000
0.005360 0.003296 0.000000
0.005365 0.003233 0.000000
0.005325 0.003438 0.000000
0.005344 0.003366 0.000000
0.005278 0.003629 0.000000
0.005293 0.003569 0.000000
0.005263 0.003686 0.000000
0.004773 0.004350 0.000000
0.004188 0.004848 0.000000
0.004265 0.004785 0.000000
0.003986 0.005004 0.000000
0.003091 0.000734 0.000000
0.003947 0.005038 0.000000
0.003055 0.000687 0.000000
0.003862 0.005125 0.000000
0.003024 0.000644 0.000000
0.002997 0.000605 0.000000
0.002930 0.000500 0.000000
0.002908 0.000467 0.000000
0.002884 0.000434 0.000000
0.002842 0.000397 0.000000
0.002770 0.000355 0.000000
0.002674 0.000309 0.000000
0.002562 0.000262 0.000000
0.002188 0.000122 0.000000
0.001818 0.000000 0.000000
0.001797 0.000017 0.000000
0.001743 0.000065 0.000000
0.001668 0.000137 0.000000
0.001626 0.000180 0.000000
0.001583 0.000227 0.000000
0.001466 0.000383 0.000000
0.001435 0.000437 0.000000
0.001297 0.000710 0.000000
0.003211 0.006017 0.000000
0.003172 0.006105 0.000000
0.001239 0.000819 0.000000
0.003084 0.006317 0.000000
0.001178 0.000929 0.000000
0.001114 0.001038 0.000000
0.003051 0.006405 0.000000
0.002946 0.006701 0.000000
0.002966 0.006649 0.000000
0.002854 0.006893 0.000000
0.002922 0.006756 0.000000
0.002348 0.007757 0.000000
0.002437 0.007620 0.000000
0.001958 0.008208 0.000000
0.002244 0.007896 0.000000
0.001670 0.008473 0.000000
0.001807 0.008351 0.000000
0.001455 0.008651 0.000000
0.001558 0.008568 0.000000
0.001322 0.008679 0.000000
0.001401 0.008665 0.000000
0.001181 0.008678 0.000000
0.001229 0.008683 0.000000
0.001001 0.008485 0.000000
0.001018 0.008528 0.000000
0.000973 0.008407 0.000000
0.000986 0.008445 0.000000
0.000945 0.008299 0.000000
0.000953 0.008334 0.000000
0.000946 0.007933 0.000000
0.000935 0.008005 0.000000
0.000987 0.007793 0.000000
0.000963 0.007862 0.000000
0.001019 0.007726 0.000000
0.001002 0.007759 0.000000
0.001112 0.007566 0.000000
0.000983 0.001209 0.000000
0.001129 0.007533 0.000000
0.001146 0.007497 0.000000
0.000845 0.001335 0.000000
0.000766 0.001398 0.000000
0.001163 0.007458 0.000000
0.000685 0.001460 0.000000
0.000604 0.001519 0.000000
0.000387 0.001673 0.000000
0.000332 0.001712 0.000000
0.001180 0.007415 0.000000
0.001198 0.007366 0.000000
0.000291 0.001744 0.000000
0.000260 0.001772 0.000000
0.000232 0.001803 0.000000
0.000208 0.001836 0.000000
0.000186 0.001873 0.000000
0.000002 0.002543 0.000000
0.000000 0.002597 0.000000
0.000001 0.002645 0.000000
0.000003 0.002688 0.000000
0.000007 0.002725 0.000000
0.000018 0.002795 0.000000
0.000212 0.002999 0.000000
0.000647 0.002999 0.000000
0.001235 0.007248 0.000000
0.001566 0.005708 0.000000
0.001464 0.006121 0.000000
0.001322 0.006909 0.000000
0.001150 0.003239 0.000000
0.001626 0.005300 0.000000
0.001344 0.003407 0.000000
0.001630 0.005259 0.000000
0.001633 0.005213 0.000000
0.001596 0.004074 0.000000
0.001636 0.005159 0.000000
0.001637 0.005095 0.000000
0.001606 0.004129 0.000000
0.001615 0.004197 0.000000
0.001638 0.005021 0.000000
0.001638 0.004935 0.000000
0.001622 0.004275 0.000000
0.001627 0.004361 0.000000
0.001638 0.004844 0.000000
0.001637 0.004748 0.000000
0.001631 0.004454 0.000000
0.001634 0.004550 0.000000
0.001636 0.004649 0.000000
0.001198 0.007366 0.150000
0.001180 0.007415 0.150000
0.001146 0.007497 0.150000
0.001163 0.007458 0.150000
0.003862 0.005125 0.150000
0.003947 0.005038 0.150000
0.000983 0.001209 0.150000
0.001322 0.008679 0.150000
0.001401 0.008665 0.150000
0.002842 0.000397 0.150000
0.002884 0.000434 0.150000
0.005365 0.003233 0.150000
0.005360 0.003296 0.150000
0.001807 0.008351 0.150000
0.001958 0.008208 0.150000
0.001670 0.008473 0.150000
0.001455 0.008651 0.150000
0.001558 0.008568 0.150000
0.000186 0.001873 0.150000
0.000208 0.001836 0.150000
0.001583 0.000227 0.150000
0.001466 0.000383 0.150000
0.005263 0.003686 0.150000
0.005278 0.003629 0.150000
0.005293 0.003569 0.150000
0.005344 0.003366 0.150000
0.005325 0.003438 0.150000
0.001129 0.007533 0.150000
0.001112 0.007566 0.150000
0.001019 0.007726 0.150000
0.000987 0.007793 0.150000
0.001002 0.007759 0.150000
0.005328 0.003069 0.150000
0.005300 0.003014 0.150000
0.005263 0.002955 0.150000
0.005115 0.002729 0.150000
0.004861 0.002311 0.150000
0.004921 0.002403 0.150000
0.001150 0.003239 0.150000
0.001344 0.003407 0.150000
0.000232 0.001803 0.150000
0.001596 0.004074 0.150000
0.001626 0.005300 0.150000
0.001566 0.005708 0.150000
0.001464 0.006121 0.150000
0.001322 0.006909 0.150000
0.001235 0.007248 0.150000
0.005349 0.003122 0.150000
0.005362 0.003176 0.150000
0.000973 0.008407 0.150000
0.000986 0.008445 0.150000
0.001001 0.008485 0.150000
0.001018 0.008528 0.150000
0.001229 0.008683 0.150000
0.001181 0.008678 0.150000
0.000945 0.008299 0.150000
0.000953 0.008334 0.150000
0.000260 0.001772 0.150000
0.000291 0.001744 0.150000
0.004773 0.004350 0.150000
0.004265 0.004785 0.150000
0.003986 0.005004 0.150000
0.004188 0.004848 0.150000
0.004751 0.002175 0.150000
0.004643 0.002079 0.150000
0.004697 0.002124 0.150000
0.004389 0.001892 0.150000
0.003387 0.001050 0.150000
0.003091 0.000734 0.150000
0.003055 0.000687 0.150000
0.003024 0.000644 0.150000
0.003211 0.006017 0.150000
0.002908 0.000467 0.150000
0.002930 0.000500 0.150000
0.002997 0.000605 0.150000
0.003172 0.006105 0.150000
0.002770 0.000355 0.150000
0.002562 0.000262 0.150000
0.002674 0.000309 0.150000
0.001818 0.000000 0.150000
0.002188 0.000122 0.150000
0.001743 0.000065 0.150000
0.001797 0.000017 0.150000
0.001626 0.000180 0.150000
0.001668 0.000137 0.150000
0.001297 0.000710 0.150000
0.001435 0.000437 0.150000
0.003084 0.006317 0.150000
0.003051 0.006405 0.150000
0.002966 0.006649 0.150000
0.002946 0.006701 0.150000
0.001239 0.000819 0.150000
0.002922 0.006756 0.150000
0.002854 0.006893 0.150000
0.002437 0.007620 0.150000
0.002348 0.007757 0.150000
0.002244 0.007896 0.150000
0.000935 0.008005 0.150000
0.000946 0.007933 0.150000
0.000963 0.007862 0.150000
0.001178 0.000929 0.150000
0.001114 0.001038 0.150000
0.000845 0.001335 0.150000
0.000766 0.001398 0.150000
0.000685 0.001460 0.150000
0.000332 0.001712 0.150000
0.000387 0.001673 0.150000
0.000604 0.001519 0.150000
0.000000 0.002597 0.150000
0.000002 0.002543 0.150000
0.000003 0.002688 0.150000
0.000001 0.002645 0.150000
0.000018 0.002795 0.150000
0.000007 0.002725 0.150000
0.000647 0.002999 0.150000
0.000212 0.002999 0.150000
0.001630 0.005259 0.150000
0.001633 0.005213 0.150000
0.001636 0.005159 0.150000
0.001637 0.005095 0.150000
0.001638 0.005021 0.150000
0.001638 0.004935 0.150000
0.001638 0.004844 0.150000
0.001606 0.004129 0.150000
0.001615 0.004197 0.150000
0.001637 0.004748 0.150000
0.001636 0.004649 0.150000
0.001622 0.004275 0.150000
0.001627 0.004361 0.150000
0.001634 0.004550 0.150000
0.001631 0.004454 0.150000
3 0 1 2
3 0 2 3
3 4 5 6
3 6 0 3
3 7 4 6
3 3 7 6
3 8 9 10
3 8 10 11
3 12 13 14
3 12 14 15
3 16 17 18
3 16 18 19
3 20 21 22
3 20 22 23
3 24 20 23
3 24 23 25
3 26 24 25
3 26 25 27
3 28 29 30
3 30 26 27
3 31 28 30
3 27 31 30
3 32 33 34
3 32 34 35
3 36 37 38
3 36 38 39
3 40 41 42
3 40 42 43
3 44 45 46
3 46 40 43
3 47 44 46
3 46 43 47
3 48 49 50
3 50 51 52
3 52 53 54
3 50 52 54
3 55 56 48
3 48 50 54
3 48 54 57
3 58 55 48
3 59 60 58
3 61 62 59
3 63 64 61
3 65 66 63
3 33 67 65
3 29 34 33
3 26 30 29
3 20 24 26
3 68 21 20
3 69 70 68
3 71 69 68
3 68 20 26
3 26 29 33
3 33 65 63
3 63 61 59
3 59 58 48
3 59 48 57
3 33 63 59
3 68 26 33
3 71 68 33
3 33 59 57
3 33 57 72
3 73 71 33
3 73 33 72
3 73 72 74
3 75 73 74
3 75 74 76
3 17 75 76
3 77 78 79
3 17 76 77
3 18 17 77
3 77 79 80
3 80 81 82
3 82 83 84
3 84 85 86
3 86 87 88
3 88 89 90
3 90 91 92
3 92 93 94
3 90 92 94
3 86 88 90
3 82 84 86
3 77 80 82
3 95 18 77
3 96 95 77
3 77 82 86
3 86 90 94
3 86 94 97
3 96 77 86
3 98 96 86
3 86 97 99
3 86 99 100
3 101 98 86
3 102 103 101
3 104 105 102
3 106 107 104
3 108 109 106
3 110 111 108
3 112 113 110
3 114 115 112
3 116 117 114
3 10 9 116
3 38 37 10
3 118 119 38
3 120 121 118
3 122 123 120
3 46 45 122
3 41 40 46
3 124 125 41
3 126 127 124
3 128 129 126
3 130 128 126
3 126 124 41
3 41 46 122
3 122 120 118
3 118 38 10
3 10 116 114
3 114 112 110
3 110 108 106
3 106 104 102
3 102 101 86
3 86 100 14
3 102 86 14
3 110 106 102
3 10 114 110
3 122 118 10
3 126 41 122
3 130 126 122
3 122 10 110
3 102 14 13
3 102 13 131
3 122 110 102
3 132 130 122
3 133 132 122
3 102 131 134
3 102 134 135
3 133 122 102
3 136 133 102
3 102 135 137
3 138 139 140
3 102 137 138
3 141 136 102
3 142 141 102
3 138 140 143
3 143 144 145
3 145 146 147
3 147 1 0
3 0 6 5
3 5 148 149
3 149 150 151
3 151 152 153
3 153 154 155
3 151 153 155
3 5 149 151
3 147 0 5
3 143 145 147
3 156 142 102
3 157 158 159
3 159 156 102
3 138 143 147
3 147 5 151
3 151 155 160
3 147 151 160
3 157 159 102
3 161 157 102
3 138 147 160
3 138 160 162
3 163 161 102
3 164 163 102
3 102 138 162
3 102 162 165
3 166 164 102
3 167 166 102
3 102 165 168
3 102 168 169
3 170 167 102
3 171 170 102
3 102 169 172
3 102 172 173
3 174 171 102
3 175 174 102
3 102 173 176
3 102 176 177
3 178 175 102
3 177 178 102
3 141 142 179
3 141 179 180
3 181 133 136
3 136 141 180
3 182 181 136
3 180 182 136
3 75 183 184
3 75 184 73
3 185 131 13
3 185 13 12
3 114 186 187
3 114 187 115
3 188 81 80
3 188 80 189
3 190 62 61
3 190 61 191
3 192 193 108
3 192 108 111
3 194 192 111
3 194 111 110
3 112 195 196
3 196 194 110
3 113 112 196
3 110 113 196
3 197 147 146
3 197 146 198
3 92 91 199
3 92 199 200
3 65 67 201
3 65 201 202
3 63 65 202
3 63 202 203
3 191 61 63
3 204 191 63
3 63 203 205
3 63 205 204
3 132 133 181
3 132 181 206
3 130 132 206
3 130 206 207
3 128 130 207
3 128 207 208
3 209 126 129
3 129 128 208
3 210 209 129
3 208 210 129
3 55 58 211
3 55 211 212
3 56 55 212
3 56 212 213
3 48 56 213
3 48 213 214
3 215 50 49
3 49 48 214
3 216 215 49
3 214 216 49
3 160 217 218
3 160 218 162
3 198 146 145
3 198 145 219
3 162 218 220
3 162 220 165
3 67 33 32
3 67 32 201
3 158 157 161
3 161 221 222
3 161 222 223
3 156 159 158
3 158 161 223
3 158 223 224
3 142 156 158
3 225 179 142
3 158 224 225
3 158 225 142
3 226 60 59
3 226 59 227
3 120 228 229
3 120 229 230
3 119 118 120
3 39 38 119
3 120 230 231
3 231 39 119
3 120 231 119
3 232 117 116
3 232 116 233
3 122 45 44
3 122 44 234
3 228 120 123
3 123 122 234
3 235 228 123
3 234 235 123
3 236 144 143
3 236 143 237
3 233 116 9
3 233 9 8
3 22 21 68
3 71 73 184
3 238 22 68
3 239 238 68
3 68 71 184
3 68 184 240
3 241 239 68
3 68 240 241
3 227 190 191
3 191 204 205
3 205 203 202
3 202 201 32
3 32 35 28
3 28 31 27
3 27 25 23
3 23 22 238
3 238 239 241
3 238 241 240
3 27 23 238
3 32 28 27
3 205 202 32
3 227 191 205
3 211 226 227
3 213 212 211
3 215 216 214
3 214 213 211
3 211 227 205
3 205 32 27
3 27 238 240
3 205 27 240
3 214 211 205
3 242 215 214
3 243 244 242
3 245 243 242
3 242 214 205
3 205 240 184
3 205 184 183
3 245 242 205
3 246 245 205
3 246 205 183
3 247 246 183
3 247 183 16
3 248 247 16
3 248 16 19
3 249 248 19
3 249 19 250
3 251 252 253
3 253 249 250
3 253 250 254
3 189 251 253
3 255 188 189
3 256 257 255
3 258 259 256
3 260 261 258
3 262 263 260
3 200 199 262
3 264 265 200
3 264 200 262
3 262 260 258
3 258 256 255
3 255 189 253
3 253 254 266
3 267 268 269
3 253 266 267
3 258 255 253
3 264 262 258
3 270 264 258
3 258 253 267
3 267 269 271
3 271 272 273
3 273 274 275
3 275 193 192
3 192 194 196
3 196 195 187
3 187 186 232
3 232 233 8
3 8 11 36
3 36 39 231
3 231 230 229
3 229 228 235
3 235 234 44
3 44 47 43
3 43 42 276
3 276 277 278
3 278 209 210
3 210 208 207
3 278 210 207
3 43 276 278
3 235 44 43
3 231 229 235
3 8 36 231
3 187 232 8
3 192 196 187
3 273 275 192
3 267 271 273
3 270 258 267
3 279 270 267
3 267 273 192
3 192 187 8
3 8 231 235
3 235 43 278
3 278 207 206
3 235 278 206
3 192 8 235
3 280 279 267
3 15 280 267
3 267 192 235
3 235 206 181
3 235 181 182
3 12 15 267
3 185 12 267
3 267 235 182
3 267 182 180
3 281 185 267
3 282 281 267
3 267 180 179
3 267 179 225
3 283 282 267
3 284 285 286
3 286 283 267
3 267 225 224
3 224 223 222
3 267 224 222
3 237 284 286
3 219 236 237
3 197 198 219
3 3 2 197
3 4 7 3
3 287 288 4
3 289 290 287
3 291 292 289
3 293 294 291
3 293 291 289
3 289 287 4
3 4 3 197
3 197 219 237
3 267 222 221
3 267 221 295
3 197 237 286
3 289 4 197
3 217 293 289
3 217 289 197
3 267 295 296
3 267 296 297
3 217 197 286
3 218 217 286
3 267 297 298
3 267 298 299
3 218 286 267
3 220 218 267
3 267 299 300
3 267 300 301
3 302 220 267
3 303 302 267
3 267 301 304
3 267 304 305
3 306 303 267
3 307 306 267
3 267 305 308
3 309 307 267
3 267 308 309
3 219 145 144
3 219 144 236
3 211 58 60
3 211 60 226
3 135 134 281
3 135 281 282
3 137 135 282
3 137 282 283
3 138 137 283
3 138 283 286
3 284 237 143
3 138 286 285
3 285 284 143
3 138 285 143
3 35 34 29
3 35 29 28
3 93 92 200
3 93 200 265
3 94 93 265
3 94 265 264
3 97 94 264
3 97 264 270
3 99 97 270
3 99 270 279
3 15 14 100
3 100 99 279
3 280 15 100
3 279 280 100
3 291 294 154
3 291 154 153
3 72 57 246
3 72 246 247
3 255 82 81
3 255 81 188
3 293 155 154
3 293 154 294
3 217 160 155
3 217 155 293
3 19 18 95
3 19 95 250
3 277 124 127
3 277 127 278
3 186 114 117
3 186 117 232
3 75 17 16
3 75 16 183
3 272 271 105
3 272 105 104
3 106 274 273
3 273 272 104
3 107 106 273
3 104 107 273
3 78 77 76
3 76 74 72
3 72 247 248
3 72 248 249
3 78 76 72
3 189 80 79
3 79 78 72
3 72 249 253
3 72 253 252
3 189 79 72
3 72 252 251
3 72 251 189
3 1 147 197
3 1 197 2
3 83 82 255
3 83 255 257
3 84 83 257
3 84 257 256
3 258 86 85
3 85 84 256
3 259 258 85
3 256 259 85
3 195 112 115
3 195 115 187
3 102 105 271
3 102 271 269
3 103 102 269
3 103 269 268
3 101 103 268
3 101 268 267
3 98 101 267
3 98 267 266
3 250 95 96
3 96 98 266
3 254 250 96
3 266 254 96
3 109 108 193
3 109 193 275
3 52 51 242
3 52 242 244
3 246 57 54
3 54 52 244
3 54 244 243
3 245 246 54
3 54 243 245
3 87 86 258
3 87 258 261
3 88 87 261
3 88 261 260
3 89 88 260
3 89 260 263
3 199 91 90
3 90 89 263
3 262 199 90
3 263 262 90
3 127 126 209
3 127 209 278
3 41 125 276
3 41 276 42
3 51 50 215
3 51 215 242
3 124 277 276
3 124 276 125
3 281 134 131
3 281 131 185
3 227 59 62
3 227 62 190
3 153 152 292
3 153 292 291
3 11 10 37
3 11 37 36
3 288 148 5
3 288 5 4
3 149 148 288
3 149 288 287
3 150 149 287
3 150 287 290
3 292 152 151
3 151 150 290
3 289 292 151
3 290 289 151
3 173 172 306
3 173 306 307
3 176 173 307
3 176 307 309
3 177 176 309
3 177 309 308
3 178 177 308
3 178 308 305
3 175 178 305
3 175 305 304
3 174 175 304
3 174 304 301
3 171 174 301
3 171 301 300
3 170 171 300
3 170 300 299
3 167 170 299
3 167 299 298
3 166 167 298
3 166 298 297
3 164 166 297
3 164 297 296
3 221 161 163
3 163 164 296
3 295 221 163
3 163 296 295
3 168 165 220
3 168 220 302
3 306 172 169
3 169 168 302
3 303 306 169
3 169 302 303
3 274 106 109
3 274 109 275
