ply
format ascii 1.0
comment Created by Blender 3.6.8 - www.blender.org
element vertex 208
property float x
property float y
property float z
element face 411
property list uchar uint vertex_indices
end_header
0.000469 0.003102 0.000000
0.000354 0.003040 0.000000
0.000354 0.003040 0.150000
0.000469 0.003102 0.150000
0.000564 0.000812 0.000000
0.000680 0.000614 0.000000
0.000680 0.000614 0.150000
0.000564 0.000812 0.150000
0.000383 0.001173 0.150000
0.000383 0.001173 0.000000
0.000443 0.001042 0.000000
0.000443 0.001042 0.150000
0.003215 0.000539 0.000000
0.002281 0.000186 0.000000
0.001973 0.000084 0.000000
0.001700 0.000017 0.000000
0.001593 0.000003 0.000000
0.001504 0.000000 0.000000
0.001430 0.000007 0.000000
0.001367 0.000021 0.000000
0.001314 0.000041 0.000000
0.001268 0.000065 0.000000
0.001226 0.000091 0.000000
0.001186 0.000118 0.000000
0.001144 0.000144 0.000000
0.001052 0.000191 0.000000
0.001002 0.000225 0.000000
0.000900 0.000320 0.000000
0.000793 0.000450 0.000000
0.000180 0.001794 0.000000
0.000000 0.002767 0.000000
0.000069 0.002825 0.000000
0.000170 0.002907 0.000000
0.000229 0.002953 0.000000
0.000292 0.002998 0.000000
0.000517 0.003118 0.000000
0.000555 0.003119 0.000000
0.000650 0.003112 0.000000
0.003339 0.000580 0.000000
0.000716 0.003113 0.000000
0.000790 0.003115 0.000000
0.003462 0.000615 0.000000
0.003585 0.000646 0.000000
0.001245 0.003147 0.000000
0.003818 0.000696 0.000000
0.004030 0.000741 0.000000
0.003015 0.003381 0.000000
0.003124 0.003401 0.000000
0.003255 0.003431 0.000000
0.004227 0.000781 0.000000
0.003404 0.003469 0.000000
0.004808 0.000897 0.000000
0.003565 0.003515 0.000000
0.005443 0.000948 0.000000
0.005371 0.000937 0.000000
0.004905 0.000913 0.000000
0.003734 0.003564 0.000000
0.005517 0.000967 0.000000
0.005681 0.001036 0.000000
0.005596 0.000995 0.000000
0.005864 0.001147 0.000000
0.005773 0.001090 0.000000
0.003907 0.003617 0.000000
0.004531 0.003811 0.000000
0.004647 0.003847 0.000000
0.005947 0.001195 0.000000
0.006151 0.001308 0.000000
0.006090 0.001274 0.000000
0.006022 0.001237 0.000000
0.004736 0.003872 0.000000
0.004812 0.003891 0.000000
0.004887 0.003905 0.000000
0.004961 0.003916 0.000000
0.005032 0.003923 0.000000
0.005099 0.003928 0.000000
0.005161 0.003931 0.000000
0.006021 0.003904 0.000000
0.006051 0.003894 0.000000
0.006081 0.003877 0.000000
0.006113 0.003853 0.000000
0.006145 0.003823 0.000000
0.006178 0.003788 0.000000
0.006212 0.003749 0.000000
0.006249 0.003707 0.000000
0.006286 0.003662 0.000000
0.006326 0.003614 0.000000
0.006254 0.001374 0.000000
0.006205 0.001341 0.000000
0.006336 0.001449 0.000000
0.006297 0.001409 0.000000
0.006402 0.001548 0.000000
0.006371 0.001495 0.000000
0.006578 0.002116 0.000000
0.006485 0.001760 0.000000
0.006619 0.002410 0.000000
0.006609 0.002311 0.000000
0.006626 0.002607 0.000000
0.006625 0.002509 0.000000
0.006607 0.003096 0.000000
0.006610 0.003030 0.000000
0.006617 0.002796 0.000000
0.006593 0.003216 0.000000
0.006601 0.003158 0.000000
0.006560 0.003323 0.000000
0.006579 0.003271 0.000000
0.006501 0.003421 0.000000
0.006535 0.003373 0.000000
0.006412 0.003517 0.000000
0.006458 0.003469 0.000000
0.006368 0.003566 0.000000
0.006560 0.003323 0.150000
0.006535 0.003373 0.150000
0.000793 0.000450 0.150000
0.000900 0.000320 0.150000
0.001593 0.000003 0.150000
0.001700 0.000017 0.150000
0.004905 0.000913 0.150000
0.005371 0.000937 0.150000
0.005443 0.000948 0.150000
0.005517 0.000967 0.150000
0.005596 0.000995 0.150000
0.005681 0.001036 0.150000
0.005773 0.001090 0.150000
0.005864 0.001147 0.150000
0.005947 0.001195 0.150000
0.004808 0.000897 0.150000
0.006022 0.001237 0.150000
0.006090 0.001274 0.150000
0.006151 0.001308 0.150000
0.004227 0.000781 0.150000
0.006205 0.001341 0.150000
0.006254 0.001374 0.150000
0.006297 0.001409 0.150000
0.006336 0.001449 0.150000
0.006371 0.001495 0.150000
0.006402 0.001548 0.150000
0.006485 0.001760 0.150000
0.006578 0.002116 0.150000
0.006609 0.002311 0.150000
0.006619 0.002410 0.150000
0.006625 0.002509 0.150000
0.006626 0.002607 0.150000
0.006617 0.002796 0.150000
0.006610 0.003030 0.150000
0.006607 0.003096 0.150000
0.006601 0.003158 0.150000
0.006593 0.003216 0.150000
0.006579 0.003271 0.150000
0.006501 0.003421 0.150000
0.006458 0.003469 0.150000
0.006412 0.003517 0.150000
0.004030 0.000741 0.150000
0.003818 0.000696 0.150000
0.006368 0.003566 0.150000
0.003585 0.000646 0.150000
0.006326 0.003614 0.150000
0.006286 0.003662 0.150000
0.006249 0.003707 0.150000
0.006212 0.003749 0.150000
0.003462 0.000615 0.150000
0.003339 0.000580 0.150000
0.006178 0.003788 0.150000
0.006145 0.003823 0.150000
0.006113 0.003853 0.150000
0.006081 0.003877 0.150000
0.006051 0.003894 0.150000
0.006021 0.003904 0.150000
0.005161 0.003931 0.150000
0.005099 0.003928 0.150000
0.005032 0.003923 0.150000
0.004961 0.003916 0.150000
0.004887 0.003905 0.150000
0.004812 0.003891 0.150000
0.004736 0.003872 0.150000
0.004647 0.003847 0.150000
0.004531 0.003811 0.150000
0.003907 0.003617 0.150000
0.001973 0.000084 0.150000
0.002281 0.000186 0.150000
0.003215 0.000539 0.150000
0.003734 0.003564 0.150000
0.001504 0.000000 0.150000
0.001367 0.000021 0.150000
0.001430 0.000007 0.150000
0.001268 0.000065 0.150000
0.001314 0.000041 0.150000
0.001186 0.000118 0.150000
0.001226 0.000091 0.150000
0.001002 0.000225 0.150000
0.001052 0.000191 0.150000
0.001144 0.000144 0.150000
0.003565 0.003515 0.150000
0.003404 0.003469 0.150000
0.000180 0.001794 0.150000
0.000069 0.002825 0.150000
0.000000 0.002767 0.150000
0.000229 0.002953 0.150000
0.000170 0.002907 0.150000
0.000292 0.002998 0.150000
0.000517 0.003118 0.150000
0.000650 0.003112 0.150000
0.000555 0.003119 0.150000
0.000716 0.003113 0.150000
0.003255 0.003431 0.150000
0.003124 0.003401 0.150000
0.000790 0.003115 0.150000
0.003015 0.003381 0.150000
0.001245 0.003147 0.150000
3 0 1 2
3 0 2 3
3 4 5 6
3 4 6 7
3 8 9 10
3 10 4 7
3 11 8 10
3 7 11 10
3 12 13 14
3 14 15 16
3 16 17 18
3 18 19 20
3 20 21 22
3 20 22 23
3 16 18 20
3 12 14 16
3 12 16 20
3 20 23 24
3 24 25 26
3 26 27 28
3 28 5 4
3 4 10 9
3 9 29 30
3 30 31 32
3 32 33 34
3 34 1 0
3 0 35 36
3 0 36 37
3 32 34 0
3 9 30 32
3 28 4 9
3 24 26 28
3 12 20 24
3 38 12 24
3 24 28 9
3 9 32 0
3 0 37 39
3 0 39 40
3 24 9 0
3 41 38 24
3 42 41 24
3 24 0 40
3 24 40 43
3 44 42 24
3 45 44 24
3 24 43 46
3 24 46 47
3 45 24 47
3 45 47 48
3 49 45 48
3 49 48 50
3 51 49 50
3 51 50 52
3 53 54 55
3 55 51 52
3 55 52 56
3 57 53 55
3 58 59 57
3 60 61 58
3 60 58 57
3 57 55 56
3 62 63 64
3 57 56 62
3 65 60 57
3 66 67 68
3 68 65 57
3 57 62 64
3 64 69 70
3 70 71 72
3 72 73 74
3 74 75 76
3 76 77 78
3 78 79 80
3 80 81 82
3 82 83 84
3 82 84 85
3 78 80 82
3 74 76 78
3 70 72 74
3 57 64 70
3 66 68 57
3 86 87 66
3 88 89 86
3 90 91 88
3 92 93 90
3 94 95 92
3 96 97 94
3 98 99 100
3 100 96 94
3 94 92 90
3 90 88 86
3 86 66 57
3 57 70 74
3 74 78 82
3 74 82 85
3 86 57 74
3 94 90 86
3 98 100 94
3 101 102 98
3 103 104 101
3 105 106 103
3 107 108 105
3 74 85 109
3 107 105 103
3 74 109 107
3 94 86 74
3 101 98 94
3 107 103 101
3 94 74 107
3 107 101 94
3 110 103 106
3 110 106 111
3 112 28 27
3 112 27 113
3 114 16 15
3 114 15 115
3 116 117 118
3 118 119 120
3 120 121 122
3 120 122 123
3 116 118 120
3 116 120 123
3 116 123 124
3 125 116 124
3 126 127 128
3 125 124 126
3 129 125 126
3 126 128 130
3 130 131 132
3 132 133 134
3 134 135 136
3 136 137 138
3 138 139 140
3 140 141 142
3 142 143 144
3 144 145 146
3 146 147 110
3 110 111 148
3 148 149 150
3 110 148 150
3 144 146 110
3 140 142 144
3 136 138 140
3 132 134 136
3 126 130 132
3 151 129 126
3 152 151 126
3 126 132 136
3 136 140 144
3 144 110 150
3 144 150 153
3 126 136 144
3 154 152 126
3 154 126 144
3 144 153 155
3 156 157 158
3 144 155 156
3 159 154 144
3 160 159 144
3 144 156 158
3 158 161 162
3 162 163 164
3 164 165 166
3 166 167 168
3 168 169 170
3 170 171 172
3 172 173 174
3 174 175 176
3 172 174 176
3 168 170 172
3 164 166 168
3 158 162 164
3 160 144 158
3 177 178 179
3 179 160 158
3 158 164 168
3 168 172 176
3 168 176 180
3 179 158 168
3 115 177 179
3 181 114 115
3 182 183 181
3 184 185 182
3 186 187 184
3 188 189 190
3 186 184 182
3 113 188 190
3 190 186 182
3 182 181 115
3 115 179 168
3 168 180 191
3 168 191 192
3 182 115 168
3 113 190 182
3 6 112 113
3 11 7 6
3 193 8 11
3 194 195 193
3 196 197 194
3 2 198 196
3 199 3 2
3 200 201 199
3 200 199 2
3 2 196 194
3 194 193 11
3 11 6 113
3 113 182 168
3 113 168 192
3 194 11 113
3 200 2 194
3 202 200 194
3 113 192 203
3 113 203 204
3 202 194 113
3 205 202 113
3 113 204 206
3 207 205 113
3 206 207 113
3 188 26 25
3 188 25 189
3 24 190 189
3 24 189 25
3 29 9 8
3 29 8 193
3 30 29 193
3 30 193 195
3 52 50 48
3 48 47 204
3 48 204 203
3 56 52 48
3 63 62 56
3 63 56 48
3 48 203 192
3 48 192 191
3 64 63 48
3 64 48 191
3 64 191 180
3 69 64 180
3 69 180 176
3 171 71 70
3 70 69 176
3 70 176 175
3 172 171 70
3 173 172 70
3 70 175 174
3 174 173 70
3 184 21 20
3 184 20 185
3 72 71 171
3 72 171 170
3 73 72 170
3 73 170 169
3 167 75 74
3 74 73 169
3 168 167 74
3 169 168 74
3 120 59 58
3 120 58 121
3 166 76 75
3 166 75 167
3 146 101 104
3 146 104 147
3 37 36 201
3 37 201 200
3 119 57 59
3 119 59 120
3 38 41 159
3 38 159 160
3 12 38 160
3 12 160 179
3 177 14 12
3 12 179 178
3 12 178 177
3 134 91 90
3 134 90 135
3 149 148 105
3 108 107 109
3 149 105 108
3 150 149 108
3 108 109 85
3 85 84 83
3 108 85 83
3 153 150 108
3 155 153 108
3 108 83 82
3 81 80 162
3 155 108 82
3 82 81 162
3 82 162 161
3 156 155 82
3 157 156 82
3 82 161 158
3 82 158 157
3 115 15 14
3 115 14 177
3 117 54 53
3 117 53 118
3 131 86 89
3 131 89 132
3 94 97 140
3 94 140 139
3 137 92 95
3 95 94 139
3 138 137 95
3 139 138 95
3 65 68 67
3 60 65 67
3 121 58 61
3 61 60 67
3 61 67 66
3 122 121 61
3 123 122 61
3 123 61 66
3 124 123 66
3 87 86 131
3 124 66 87
3 126 124 87
3 87 131 130
3 87 130 128
3 127 126 87
3 87 128 127
3 165 77 76
3 165 76 166
3 96 100 99
3 98 102 145
3 99 98 145
3 99 145 144
3 140 97 96
3 96 99 144
3 96 144 143
3 141 140 96
3 96 143 142
3 142 141 96
3 118 53 57
3 118 57 119
3 39 37 200
3 39 200 202
3 40 39 202
3 40 202 205
3 43 40 205
3 43 205 207
3 204 47 46
3 46 43 207
3 206 204 46
3 207 206 46
3 201 36 35
3 201 35 199
3 181 17 16
3 181 16 114
3 132 89 88
3 132 88 133
3 24 23 22
3 22 21 184
3 22 184 187
3 190 24 22
3 22 187 186
3 22 186 190
3 54 117 116
3 54 116 55
3 183 18 17
3 183 17 181
3 113 27 26
3 113 26 188
3 164 78 77
3 164 77 165
3 163 79 78
3 163 78 164
3 111 106 105
3 111 105 148
3 182 19 18
3 182 18 183
3 147 104 103
3 147 103 110
3 133 88 91
3 133 91 134
3 42 44 45
3 45 49 51
3 51 55 116
3 51 116 125
3 42 45 51
3 159 41 42
3 154 159 42
3 42 51 125
3 42 125 129
3 152 154 42
3 42 129 151
3 151 152 42
3 90 93 136
3 90 136 135
3 31 30 195
3 31 195 194
3 32 31 194
3 32 194 197
3 33 32 197
3 33 197 196
3 2 1 34
3 34 33 196
3 198 2 34
3 196 198 34
3 93 92 137
3 93 137 136
3 199 35 0
3 199 0 3
3 185 20 19
3 185 19 182
3 5 28 112
3 5 112 6
3 162 80 79
3 162 79 163
3 145 102 101
3 145 101 146
