ply
format ascii 1.0
comment Created by Blender 3.6.8 - www.blender.org
element vertex 222
property float x
property float y
property float z
element face 436
property list uchar uint vertex_indices
end_header
0.000517 0.007142 0.000000
0.000639 0.006696 0.000000
0.000715 0.006405 0.000000
0.000751 0.006255 0.000000
0.000785 0.006105 0.000000
0.000816 0.005961 0.000000
0.000841 0.005824 0.000000
0.000860 0.005698 0.000000
0.000860 0.005698 0.150000
0.000841 0.005824 0.150000
0.000491 0.007223 0.000000
0.000517 0.007142 0.150000
0.000491 0.007223 0.150000
0.000639 0.006696 0.150000
0.000816 0.005961 0.150000
0.000785 0.006105 0.150000
0.000715 0.006405 0.150000
0.000751 0.006255 0.150000
0.000096 0.009591 0.000000
0.000072 0.009540 0.000000
0.000072 0.009540 0.150000
0.000096 0.009591 0.150000
0.000124 0.009640 0.000000
0.000124 0.009640 0.150000
0.000154 0.009687 0.000000
0.000154 0.009687 0.150000
0.000255 0.009838 0.000000
0.000255 0.009838 0.150000
0.000933 0.011077 0.150000
0.000933 0.011077 0.000000
0.000291 0.009896 0.000000
0.000291 0.009896 0.150000
0.003589 0.001142 0.000000
0.003592 0.000940 0.000000
0.003586 0.000892 0.000000
0.003567 0.000831 0.000000
0.003500 0.000678 0.000000
0.003456 0.000593 0.000000
0.003405 0.000505 0.000000
0.003295 0.000331 0.000000
0.003238 0.000251 0.000000
0.003182 0.000180 0.000000
0.003130 0.000119 0.000000
0.003081 0.000073 0.000000
0.003035 0.000039 0.000000
0.002987 0.000017 0.000000
0.002939 0.000004 0.000000
0.002890 0.000000 0.000000
0.002841 0.000004 0.000000
0.002792 0.000014 0.000000
0.002744 0.000030 0.000000
0.002649 0.000074 0.000000
0.002604 0.000100 0.000000
0.002560 0.000127 0.000000
0.002518 0.000155 0.000000
0.002476 0.000187 0.000000
0.002434 0.000229 0.000000
0.002346 0.000339 0.000000
0.002302 0.000406 0.000000
0.002258 0.000480 0.000000
0.002169 0.000645 0.000000
0.001905 0.001288 0.000000
0.000873 0.004994 0.000000
0.000859 0.005146 0.000000
0.000859 0.005204 0.000000
0.000862 0.005255 0.000000
0.000871 0.005359 0.000000
0.003578 0.001628 0.000000
0.003443 0.007341 0.000000
0.003519 0.004227 0.000000
0.003400 0.008946 0.000000
0.003420 0.008229 0.000000
0.003374 0.009641 0.000000
0.003384 0.009435 0.000000
0.003372 0.009686 0.000000
0.000875 0.005421 0.000000
0.000875 0.005495 0.000000
0.000871 0.005587 0.000000
0.003378 0.009732 0.000000
0.003414 0.009878 0.000000
0.003401 0.009828 0.000000
0.003388 0.009779 0.000000
0.003423 0.009930 0.000000
0.003422 0.010043 0.000000
0.003426 0.009985 0.000000
0.003376 0.010168 0.000000
0.003406 0.010104 0.000000
0.003266 0.010309 0.000000
0.003331 0.010237 0.000000
0.002909 0.010679 0.000000
0.002964 0.010626 0.000000
0.002726 0.010825 0.000000
0.002853 0.010729 0.000000
0.002471 0.010966 0.000000
0.002567 0.010919 0.000000
0.001827 0.011216 0.000000
0.002258 0.011059 0.000000
0.001640 0.011272 0.000000
0.001729 0.011246 0.000000
0.001493 0.011309 0.000000
0.001561 0.011293 0.000000
0.001401 0.011322 0.000000
0.001439 0.011319 0.000000
0.001325 0.011304 0.000000
0.001367 0.011317 0.000000
0.001174 0.011230 0.000000
0.001227 0.011259 0.000000
0.001073 0.011169 0.000000
0.001122 0.011200 0.000000
0.000989 0.011115 0.000000
0.001028 0.011141 0.000000
0.000940 0.011082 0.000000
0.000959 0.011095 0.000000
0.000052 0.009484 0.000000
0.000028 0.009354 0.000000
0.000037 0.009423 0.000000
0.000024 0.008456 0.000000
0.000000 0.008790 0.000000
0.000113 0.008108 0.000000
0.000074 0.008227 0.000000
0.000208 0.007867 0.000000
0.000158 0.007987 0.000000
0.000313 0.007631 0.000000
0.000260 0.007748 0.000000
0.000365 0.007519 0.000000
0.000413 0.007413 0.000000
0.000456 0.007313 0.000000
0.003426 0.009985 0.150000
0.003422 0.010043 0.150000
0.002649 0.000074 0.150000
0.002744 0.000030 0.150000
0.002853 0.010729 0.150000
0.002909 0.010679 0.150000
0.002964 0.010626 0.150000
0.003331 0.010237 0.150000
0.003266 0.010309 0.150000
0.002346 0.000339 0.150000
0.002302 0.000406 0.150000
0.002169 0.000645 0.150000
0.002258 0.000480 0.150000
0.003567 0.000831 0.150000
0.003586 0.000892 0.150000
0.001367 0.011317 0.150000
0.001325 0.011304 0.150000
0.000024 0.008456 0.150000
0.000074 0.008227 0.150000
0.002434 0.000229 0.150000
0.002476 0.000187 0.150000
0.003423 0.009930 0.150000
0.001827 0.011216 0.150000
0.002258 0.011059 0.150000
0.002567 0.010919 0.150000
0.002471 0.010966 0.150000
0.003372 0.009686 0.150000
0.003374 0.009641 0.150000
0.003384 0.009435 0.150000
0.003400 0.008946 0.150000
0.003420 0.008229 0.150000
0.003443 0.007341 0.150000
0.003519 0.004227 0.150000
0.003578 0.001628 0.150000
0.003592 0.000940 0.150000
0.003589 0.001142 0.150000
0.000859 0.005146 0.150000
0.000873 0.004994 0.150000
0.001905 0.001288 0.150000
0.002518 0.000155 0.150000
0.002560 0.000127 0.150000
0.002604 0.000100 0.150000
0.002792 0.000014 0.150000
0.002841 0.000004 0.150000
0.002890 0.000000 0.150000
0.002939 0.000004 0.150000
0.002987 0.000017 0.150000
0.003035 0.000039 0.150000
0.003081 0.000073 0.150000
0.003130 0.000119 0.150000
0.003182 0.000180 0.150000
0.003238 0.000251 0.150000
0.003295 0.000331 0.150000
0.003405 0.000505 0.150000
0.003456 0.000593 0.150000
0.003500 0.000678 0.150000
0.000862 0.005255 0.150000
0.000859 0.005204 0.150000
0.000871 0.005359 0.150000
0.000875 0.005421 0.150000
0.000875 0.005495 0.150000
0.003378 0.009732 0.150000
0.000871 0.005587 0.150000
0.003388 0.009779 0.150000
0.003401 0.009828 0.150000
0.003414 0.009878 0.150000
0.003406 0.010104 0.150000
0.003376 0.010168 0.150000
0.002726 0.010825 0.150000
0.001729 0.011246 0.150000
0.001640 0.011272 0.150000
0.001561 0.011293 0.150000
0.001493 0.011309 0.150000
0.001439 0.011319 0.150000
0.001401 0.011322 0.150000
0.001227 0.011259 0.150000
0.001174 0.011230 0.150000
0.001122 0.011200 0.150000
0.001073 0.011169 0.150000
0.001028 0.011141 0.150000
0.000989 0.011115 0.150000
0.000959 0.011095 0.150000
0.000940 0.011082 0.150000
0.000052 0.009484 0.150000
0.000037 0.009423 0.150000
0.000028 0.009354 0.150000
0.000000 0.008790 0.150000
0.000113 0.008108 0.150000
0.000158 0.007987 0.150000
0.000208 0.007867 0.150000
0.000260 0.007748 0.150000
0.000313 0.007631 0.150000
0.000365 0.007519 0.150000
0.000413 0.007413 0.150000
0.000456 0.007313 0.150000
3 0 1 2
3 2 3 4
3 4 5 6
3 6 7 8
3 6 8 9
3 2 4 6
3 10 0 2
3 11 12 10
3 13 11 10
3 10 2 6
3 6 9 14
3 6 14 15
3 13 10 6
3 16 13 6
3 6 15 17
3 6 17 16
3 18 19 20
3 18 20 21
3 22 18 21
3 22 21 23
3 24 22 23
3 24 23 25
3 26 24 25
3 26 25 27
3 28 29 30
3 30 26 27
3 31 28 30
3 27 31 30
3 32 33 34
3 34 35 36
3 36 37 38
3 38 39 40
3 40 41 42
3 42 43 44
3 44 45 46
3 46 47 48
3 48 49 50
3 50 51 52
3 52 53 54
3 54 55 56
3 56 57 58
3 58 59 60
3 60 61 62
3 62 63 64
3 64 65 66
3 62 64 66
3 58 60 62
3 54 56 58
3 50 52 54
3 46 48 50
3 42 44 46
3 38 40 42
3 34 36 38
3 67 32 34
3 68 69 67
3 70 71 68
3 72 73 70
3 74 72 70
3 70 68 67
3 67 34 38
3 38 42 46
3 46 50 54
3 54 58 62
3 62 66 75
3 54 62 75
3 38 46 54
3 70 67 38
3 74 70 38
3 38 54 75
3 38 75 76
3 74 38 76
3 74 76 77
3 78 74 77
3 78 77 7
3 79 80 81
3 81 78 7
3 81 7 6
3 82 79 81
3 83 84 82
3 85 86 83
3 87 88 85
3 89 90 87
3 91 92 89
3 93 94 91
3 95 96 93
3 97 98 95
3 99 100 97
3 101 102 99
3 103 104 101
3 105 106 103
3 107 108 105
3 109 110 107
3 111 112 109
3 30 29 111
3 22 24 26
3 30 111 109
3 18 22 26
3 30 109 107
3 19 18 26
3 26 30 107
3 107 105 103
3 103 101 99
3 99 97 95
3 95 93 91
3 91 89 87
3 87 85 83
3 83 82 81
3 81 6 5
3 81 5 4
3 87 83 81
3 95 91 87
3 103 99 95
3 26 107 103
3 113 19 26
3 114 115 113
3 116 117 114
3 118 119 116
3 120 121 118
3 122 123 120
3 124 122 120
3 120 118 116
3 116 114 113
3 113 26 103
3 103 95 87
3 87 81 4
3 87 4 3
3 113 103 87
3 120 116 113
3 125 124 120
3 125 120 113
3 113 87 3
3 113 3 2
3 126 125 113
3 10 126 113
3 113 2 1
3 0 10 113
3 1 0 113
3 127 84 83
3 127 83 128
3 129 51 50
3 129 50 130
3 89 92 131
3 89 131 132
3 90 89 132
3 90 132 133
3 134 88 87
3 87 90 133
3 135 134 87
3 133 135 87
3 58 57 136
3 58 136 137
3 138 60 59
3 59 58 137
3 139 138 59
3 137 139 59
3 140 35 34
3 140 34 141
3 142 104 103
3 142 103 143
3 144 116 119
3 144 119 145
3 146 56 55
3 146 55 147
3 148 82 84
3 148 84 127
3 94 93 96
3 96 95 149
3 96 149 150
3 151 94 96
3 96 150 152
3 96 152 151
3 72 74 153
3 72 153 154
3 73 72 154
3 73 154 155
3 70 73 155
3 70 155 156
3 71 70 156
3 71 156 157
3 68 71 157
3 68 157 158
3 69 68 158
3 69 158 159
3 67 69 159
3 67 159 160
3 161 33 32
3 32 67 160
3 162 161 32
3 160 162 32
3 163 164 165
3 165 138 139
3 139 137 136
3 136 146 147
3 147 166 167
3 167 168 129
3 129 130 169
3 169 170 171
3 171 172 173
3 173 174 175
3 175 176 177
3 177 178 179
3 179 180 181
3 181 182 140
3 140 141 161
3 161 162 160
3 160 159 158
3 158 157 156
3 156 155 154
3 156 154 153
3 160 158 156
3 140 161 160
3 179 181 140
3 175 177 179
3 171 173 175
3 129 169 171
3 147 167 129
3 139 136 147
3 163 165 139
3 183 184 163
3 185 183 163
3 163 139 147
3 147 129 171
3 171 175 179
3 179 140 160
3 160 156 153
3 179 160 153
3 147 171 179
3 185 163 147
3 186 185 147
3 147 179 153
3 186 147 153
3 187 186 153
3 187 153 188
3 189 187 188
3 190 191 192
3 189 188 190
3 8 189 190
3 190 192 148
3 148 127 128
3 128 193 194
3 194 134 135
3 135 133 132
3 132 131 195
3 195 151 152
3 152 150 149
3 149 196 197
3 197 198 199
3 199 200 201
3 201 142 143
3 143 202 203
3 203 204 205
3 205 206 207
3 207 208 209
3 209 28 31
3 27 25 23
3 207 209 31
3 27 23 21
3 205 207 31
3 27 21 20
3 205 31 27
3 143 203 205
3 199 201 143
3 149 197 199
3 195 152 149
3 135 132 195
3 128 194 135
3 190 148 128
3 9 8 190
3 14 9 190
3 190 128 135
3 135 195 149
3 149 199 143
3 143 205 27
3 27 20 210
3 210 211 212
3 212 213 144
3 144 145 214
3 214 215 216
3 216 217 218
3 216 218 219
3 144 214 216
3 210 212 144
3 143 27 210
3 135 149 143
3 14 190 135
3 15 14 135
3 135 143 210
3 210 144 216
3 216 219 220
3 210 216 220
3 15 135 210
3 17 15 210
3 210 220 221
3 210 221 12
3 16 17 210
3 13 16 210
3 210 12 11
3 210 11 13
3 36 35 140
3 36 140 182
3 167 166 54
3 167 54 53
3 51 129 168
3 168 167 53
3 52 51 168
3 53 52 168
3 91 94 151
3 91 151 195
3 40 39 179
3 40 179 178
3 176 42 41
3 41 40 178
3 177 176 41
3 41 178 177
3 61 60 138
3 61 138 165
3 200 102 101
3 200 101 201
3 62 61 165
3 62 165 164
3 130 50 49
3 130 49 169
3 194 85 88
3 194 88 134
3 173 45 44
3 173 44 174
3 37 36 182
3 37 182 181
3 179 39 38
3 38 37 181
3 180 179 38
3 38 181 180
3 64 63 163
3 64 163 184
3 65 64 184
3 65 184 183
3 186 75 66
3 66 65 183
3 185 186 66
3 183 185 66
3 99 199 198
3 99 198 197
3 98 97 99
3 149 95 98
3 99 197 196
3 196 149 98
3 99 196 98
3 143 103 106
3 143 106 202
3 170 48 47
3 170 47 171
3 193 86 85
3 193 85 194
3 128 83 86
3 128 86 193
3 122 124 125
3 125 126 10
3 10 12 221
3 10 221 220
3 122 125 10
3 123 122 10
3 10 220 219
3 10 219 218
3 123 10 218
3 123 218 217
3 120 123 217
3 120 217 216
3 121 120 216
3 121 216 215
3 145 119 118
3 118 121 215
3 214 145 118
3 118 215 214
3 111 29 28
3 111 28 209
3 107 109 111
3 106 105 107
3 203 202 106
3 204 203 106
3 106 107 111
3 111 209 208
3 111 208 207
3 204 106 111
3 205 204 111
3 111 207 206
3 111 206 205
3 201 101 104
3 201 104 142
3 57 56 146
3 57 146 136
3 62 164 163
3 62 163 63
3 175 43 42
3 175 42 176
3 174 44 43
3 174 43 175
3 114 117 213
3 114 213 212
3 199 99 102
3 199 102 200
3 171 47 46
3 171 46 172
3 117 116 144
3 117 144 213
3 153 74 78
3 153 78 188
3 141 34 33
3 141 33 161
3 76 75 186
3 76 186 187
3 8 7 77
3 77 76 187
3 189 8 77
3 77 187 189
3 211 115 114
3 211 114 212
3 172 46 45
3 172 45 173
3 147 55 54
3 147 54 166
3 78 81 80
3 79 82 148
3 78 80 79
3 190 188 78
3 191 190 78
3 78 79 148
3 192 191 78
3 148 192 78
3 210 113 115
3 210 115 211
3 169 49 48
3 169 48 170
3 91 195 131
3 91 131 92
3 20 19 113
3 20 113 210
