ply
format ascii 1.0
comment Created by Blender 3.6.8 - www.blender.org
element vertex 152
property float x
property float y
property float z
element face 299
property list uchar uint vertex_indices
end_header
0.005740 0.002791 0.150000
0.005740 0.002791 0.000000
0.005690 0.002902 0.000000
0.005690 0.002902 0.150000
0.004739 0.004071 0.150000
0.004739 0.004071 0.000000
0.004678 0.004095 0.000000
0.004678 0.004095 0.150000
0.005898 0.001604 0.150000
0.005898 0.001604 0.000000
0.005908 0.001690 0.000000
0.005908 0.001690 0.150000
0.005776 0.001232 0.000000
0.005401 0.000423 0.000000
0.003617 0.000428 0.000000
0.003530 0.000416 0.000000
0.005870 0.001495 0.000000
0.005864 0.002308 0.000000
0.005815 0.002553 0.000000
0.005632 0.003006 0.000000
0.005018 0.003822 0.000000
0.005094 0.003735 0.000000
0.004885 0.003964 0.000000
0.004948 0.003899 0.000000
0.004786 0.004047 0.000000
0.004830 0.004014 0.000000
0.004260 0.004195 0.000000
0.004438 0.004161 0.000000
0.004093 0.004216 0.000000
0.004173 0.004207 0.000000
0.003913 0.004217 0.000000
0.003959 0.004221 0.000000
0.003772 0.004187 0.000000
0.003857 0.004205 0.000000
0.002737 0.003957 0.000000
0.003539 0.004136 0.000000
0.001826 0.003806 0.000000
0.002360 0.003895 0.000000
0.001220 0.003699 0.000000
0.001524 0.003753 0.000000
0.000671 0.003595 0.000000
0.000930 0.003646 0.000000
0.000312 0.003512 0.000000
0.000460 0.003550 0.000000
0.000221 0.003431 0.000000
0.000245 0.003484 0.000000
0.000137 0.002988 0.000000
0.000195 0.003324 0.000000
0.000005 0.001816 0.000000
0.000033 0.002147 0.000000
0.000003 0.001664 0.000000
0.000000 0.001712 0.000000
0.001533 0.000357 0.000000
0.000021 0.001640 0.000000
0.001787 0.000098 0.000000
0.001706 0.000169 0.000000
0.001872 0.000046 0.000000
0.001829 0.000070 0.000000
0.001964 0.000012 0.000000
0.001917 0.000027 0.000000
0.002069 0.000000 0.000000
0.002015 0.000004 0.000000
0.002246 0.000014 0.000000
0.002127 0.000002 0.000000
0.002361 0.000030 0.000000
0.002304 0.000021 0.000000
0.002474 0.000051 0.000000
0.002418 0.000040 0.000000
0.002585 0.000077 0.000000
0.002530 0.000063 0.000000
0.002696 0.000110 0.000000
0.002641 0.000093 0.000000
0.002807 0.000150 0.000000
0.002751 0.000129 0.000000
0.002926 0.000201 0.000000
0.002864 0.000174 0.000000
0.002991 0.000230 0.000000
0.003059 0.000260 0.000000
0.003363 0.000375 0.000000
0.003283 0.000350 0.000000
0.003131 0.000291 0.000000
0.003206 0.000321 0.000000
0.004786 0.004047 0.150000
0.001787 0.000098 0.150000
0.001829 0.000070 0.150000
0.001706 0.000169 0.150000
0.000000 0.001712 0.150000
0.000003 0.001664 0.150000
0.005632 0.003006 0.150000
0.005094 0.003735 0.150000
0.005018 0.003822 0.150000
0.004948 0.003899 0.150000
0.004885 0.003964 0.150000
0.004830 0.004014 0.150000
0.004438 0.004161 0.150000
0.004260 0.004195 0.150000
0.004173 0.004207 0.150000
0.004093 0.004216 0.150000
0.003959 0.004221 0.150000
0.003913 0.004217 0.150000
0.003857 0.004205 0.150000
0.003772 0.004187 0.150000
0.003539 0.004136 0.150000
0.002737 0.003957 0.150000
0.002360 0.003895 0.150000
0.001826 0.003806 0.150000
0.001524 0.003753 0.150000
0.001220 0.003699 0.150000
0.000930 0.003646 0.150000
0.000671 0.003595 0.150000
0.000460 0.003550 0.150000
0.000312 0.003512 0.150000
0.000245 0.003484 0.150000
0.000221 0.003431 0.150000
0.000195 0.003324 0.150000
0.000137 0.002988 0.150000
0.000033 0.002147 0.150000
0.000005 0.001816 0.150000
0.000021 0.001640 0.150000
0.001533 0.000357 0.150000
0.001872 0.000046 0.150000
0.001917 0.000027 0.150000
0.001964 0.000012 0.150000
0.002015 0.000004 0.150000
0.002069 0.000000 0.150000
0.002127 0.000002 0.150000
0.002246 0.000014 0.150000
0.002304 0.000021 0.150000
0.002361 0.000030 0.150000
0.002418 0.000040 0.150000
0.002474 0.000051 0.150000
0.002530 0.000063 0.150000
0.002585 0.000077 0.150000
0.002641 0.000093 0.150000
0.002696 0.000110 0.150000
0.002751 0.000129 0.150000
0.002807 0.000150 0.150000
0.002864 0.000174 0.150000
0.002926 0.000201 0.150000
0.002991 0.000230 0.150000
0.003059 0.000260 0.150000
0.005864 0.002308 0.150000
0.005815 0.002553 0.150000
0.005776 0.001232 0.150000
0.005870 0.001495 0.150000
0.003617 0.000428 0.150000
0.005401 0.000423 0.150000
0.003530 0.000416 0.150000
0.003131 0.000291 0.150000
0.003206 0.000321 0.150000
0.003363 0.000375 0.150000
0.003283 0.000350 0.150000
3 0 1 2
3 0 2 3
3 4 5 6
3 4 6 7
3 8 9 10
3 8 10 11
3 12 13 14
3 12 14 15
3 9 16 12
3 17 10 9
3 1 18 17
3 19 2 1
3 20 21 19
3 22 23 20
3 24 25 22
3 6 5 24
3 26 27 6
3 28 29 26
3 30 31 28
3 32 33 30
3 34 35 32
3 36 37 34
3 38 39 36
3 40 41 38
3 42 43 40
3 44 45 42
3 46 47 44
3 48 49 46
3 50 51 48
3 52 53 50
3 54 55 52
3 56 57 54
3 58 59 56
3 60 61 58
3 62 63 60
3 64 65 62
3 66 67 64
3 68 69 66
3 70 71 68
3 72 73 70
3 74 75 72
3 76 74 72
3 72 70 68
3 68 66 64
3 64 62 60
3 60 58 56
3 56 54 52
3 52 50 48
3 48 46 44
3 44 42 40
3 40 38 36
3 34 32 30
3 40 36 34
3 48 44 40
3 56 52 48
3 64 60 56
3 72 68 64
3 77 76 72
3 77 72 64
3 64 56 48
3 48 40 34
3 34 30 28
3 28 26 6
3 6 24 22
3 22 20 19
3 19 1 17
3 17 9 12
3 12 15 78
3 12 78 79
3 19 17 12
3 6 22 19
3 34 28 6
3 64 48 34
3 80 77 64
3 81 80 64
3 64 34 6
3 6 19 12
3 79 81 64
3 6 12 79
3 79 64 6
3 82 24 5
3 82 5 4
3 83 54 57
3 83 57 84
3 85 55 54
3 85 54 83
3 86 51 50
3 86 50 87
3 88 89 90
3 90 91 92
3 92 93 82
3 82 4 7
3 7 94 95
3 95 96 97
3 97 98 99
3 99 100 101
3 101 102 103
3 103 104 105
3 105 106 107
3 107 108 109
3 109 110 111
3 111 112 113
3 113 114 115
3 115 116 117
3 117 86 87
3 87 118 119
3 119 85 83
3 83 84 120
3 120 121 122
3 122 123 124
3 124 125 126
3 126 127 128
3 128 129 130
3 130 131 132
3 132 133 134
3 134 135 136
3 136 137 138
3 136 138 139
3 132 134 136
3 128 130 132
3 124 126 128
3 120 122 124
3 119 83 120
3 117 87 119
3 113 115 117
3 109 111 113
3 105 107 109
3 99 101 103
3 103 105 109
3 109 113 117
3 117 119 120
3 120 124 128
3 128 132 136
3 136 139 140
3 128 136 140
3 117 120 128
3 103 109 117
3 97 99 103
3 7 95 97
3 92 82 7
3 88 90 92
3 0 3 88
3 141 142 0
3 8 11 141
3 143 144 8
3 145 146 143
3 147 145 143
3 143 8 141
3 141 0 88
3 88 92 7
3 7 97 103
3 103 117 128
3 128 140 148
3 128 148 149
3 7 103 128
3 141 88 7
3 147 143 141
3 150 147 141
3 141 7 128
3 128 149 151
3 151 150 141
3 128 151 141
3 21 89 88
3 21 88 19
3 80 81 79
3 79 78 150
3 79 150 151
3 77 80 79
3 74 76 77
3 74 77 79
3 79 151 149
3 79 149 148
3 75 74 79
3 75 79 148
3 75 148 140
3 72 75 140
3 72 140 139
3 73 72 139
3 73 139 138
3 70 73 138
3 70 138 137
3 132 68 71
3 71 70 137
3 71 137 136
3 133 132 71
3 134 133 71
3 71 136 135
3 135 134 71
3 144 16 9
3 144 9 8
3 28 31 98
3 28 98 97
3 3 2 19
3 3 19 88
3 84 57 56
3 84 56 120
3 52 55 85
3 52 85 119
3 142 18 1
3 142 1 0
3 65 64 128
3 65 128 127
3 62 65 127
3 62 127 126
3 124 60 63
3 63 62 126
3 125 124 63
3 126 125 63
3 23 22 92
3 23 92 91
3 89 21 20
3 20 23 91
3 90 89 20
3 20 91 90
3 147 15 14
3 147 14 145
3 123 61 60
3 123 60 124
3 47 46 49
3 49 48 51
3 51 86 117
3 51 117 116
3 47 49 51
3 115 114 47
3 51 116 115
3 51 115 47
3 143 12 16
3 143 16 144
3 121 59 58
3 121 58 122
3 39 38 41
3 41 40 43
3 43 42 111
3 43 111 110
3 39 41 43
3 37 36 39
3 34 37 39
3 39 43 110
3 39 110 109
3 33 32 34
3 34 39 109
3 34 109 108
3 30 33 34
3 100 99 30
3 101 100 30
3 30 34 108
3 30 108 107
3 102 101 30
3 103 102 30
3 30 107 106
3 30 106 105
3 104 103 30
3 105 104 30
3 78 15 147
3 78 147 150
3 111 42 45
3 111 45 112
3 6 27 94
3 6 94 7
3 14 13 146
3 14 146 145
3 53 52 119
3 53 119 118
3 69 68 132
3 69 132 131
3 66 69 131
3 66 131 130
3 128 64 67
3 67 66 130
3 129 128 67
3 130 129 67
3 113 44 47
3 113 47 114
3 18 142 141
3 18 141 17
3 13 12 143
3 13 143 146
3 122 58 61
3 122 61 123
3 98 31 30
3 98 30 99
3 93 25 24
3 93 24 82
3 92 22 25
3 92 25 93
3 120 56 59
3 120 59 121
3 29 28 97
3 29 97 96
3 94 27 26
3 26 29 96
3 95 94 26
3 26 96 95
3 112 45 44
3 112 44 113
3 10 17 141
3 10 141 11
3 87 50 53
3 87 53 118
