ply
format ascii 1.0
comment Created by Blender 3.6.8 - www.blender.org
element vertex 168
property float x
property float y
property float z
element face 331
property list uchar uint vertex_indices
end_header
0.001109 0.000559 0.150000
0.001109 0.000559 0.000000
0.001161 0.000457 0.000000
0.001161 0.000457 0.150000
0.001377 0.000218 0.150000
0.001377 0.000218 0.000000
0.001476 0.000164 0.000000
0.001476 0.000164 0.150000
0.009996 0.001672 0.150000
0.009996 0.001672 0.000000
0.009965 0.001861 0.000000
0.009965 0.001861 0.150000
0.005711 0.000384 0.000000
0.006098 0.000393 0.000000
0.006098 0.000393 0.150000
0.005711 0.000384 0.150000
0.009208 0.000432 0.150000
0.009208 0.000432 0.000000
0.009311 0.000464 0.000000
0.009311 0.000464 0.150000
0.009233 0.003890 0.000000
0.009233 0.003890 0.150000
0.009444 0.003564 0.150000
0.009444 0.003564 0.000000
0.006979 0.005845 0.150000
0.006979 0.005845 0.000000
0.006810 0.005905 0.000000
0.006810 0.005905 0.150000
0.005528 0.000366 0.000000
0.005528 0.000366 0.150000
0.005352 0.000342 0.000000
0.005352 0.000342 0.150000
0.004145 0.000094 0.000000
0.004145 0.000094 0.150000
0.003309 0.000009 0.150000
0.003309 0.000009 0.000000
0.003758 0.000041 0.000000
0.003758 0.000041 0.150000
0.001065 0.000671 0.150000
0.001065 0.000671 0.000000
0.009848 0.002304 0.150000
0.009715 0.002843 0.150000
0.009675 0.002994 0.150000
0.009632 0.003137 0.150000
0.009520 0.003418 0.150000
0.008933 0.004272 0.150000
0.008268 0.004957 0.150000
0.007600 0.005486 0.150000
0.007134 0.005773 0.150000
0.006454 0.005991 0.150000
0.002592 0.006280 0.150000
0.001619 0.006155 0.150000
0.001495 0.006119 0.150000
0.001364 0.006067 0.150000
0.001225 0.005996 0.150000
0.001075 0.005903 0.150000
0.000753 0.005658 0.150000
0.000466 0.005452 0.150000
0.000344 0.005359 0.150000
0.000238 0.005265 0.150000
0.000150 0.005164 0.150000
0.000080 0.005050 0.150000
0.000031 0.004918 0.150000
0.000005 0.004761 0.150000
0.000002 0.004574 0.150000
0.000072 0.004088 0.150000
0.000136 0.003807 0.150000
0.000202 0.003541 0.150000
0.000269 0.003287 0.150000
0.000337 0.003045 0.150000
0.000474 0.002597 0.150000
0.000831 0.001501 0.150000
0.009910 0.002081 0.150000
0.010004 0.001511 0.150000
0.009967 0.001256 0.150000
0.009993 0.001373 0.150000
0.009880 0.001068 0.150000
0.009928 0.001156 0.150000
0.009766 0.000916 0.150000
0.009824 0.000989 0.150000
0.009706 0.000845 0.150000
0.009546 0.000619 0.150000
0.009599 0.000694 0.150000
0.009650 0.000772 0.150000
0.000876 0.001348 0.150000
0.000988 0.000921 0.150000
0.001025 0.000792 0.150000
0.001221 0.000365 0.150000
0.001293 0.000286 0.150000
0.001600 0.000121 0.150000
0.001756 0.000084 0.150000
0.001938 0.000055 0.150000
0.002141 0.000031 0.150000
0.002361 0.000015 0.150000
0.002592 0.000004 0.150000
0.002831 0.000000 0.150000
0.009401 0.000505 0.150000
0.009480 0.000556 0.150000
0.008830 0.000369 0.150000
0.008968 0.000385 0.150000
0.007988 0.000298 0.150000
0.008681 0.000355 0.150000
0.007645 0.000291 0.150000
0.007814 0.000291 0.150000
0.010004 0.001511 0.000000
0.001495 0.006119 0.000000
0.001364 0.006067 0.000000
0.009401 0.000505 0.000000
0.002592 0.006280 0.000000
0.001619 0.006155 0.000000
0.008681 0.000355 0.000000
0.007988 0.000298 0.000000
0.007814 0.000291 0.000000
0.007645 0.000291 0.000000
0.008968 0.000385 0.000000
0.008830 0.000369 0.000000
0.009480 0.000556 0.000000
0.009599 0.000694 0.000000
0.009546 0.000619 0.000000
0.009650 0.000772 0.000000
0.009706 0.000845 0.000000
0.009824 0.000989 0.000000
0.009766 0.000916 0.000000
0.009928 0.001156 0.000000
0.009880 0.001068 0.000000
0.009993 0.001373 0.000000
0.009967 0.001256 0.000000
0.009910 0.002081 0.000000
0.009675 0.002994 0.000000
0.009715 0.002843 0.000000
0.009848 0.002304 0.000000
0.009520 0.003418 0.000000
0.009632 0.003137 0.000000
0.008268 0.004957 0.000000
0.008933 0.004272 0.000000
0.007134 0.005773 0.000000
0.007600 0.005486 0.000000
0.006454 0.005991 0.000000
0.001225 0.005996 0.000000
0.000753 0.005658 0.000000
0.001075 0.005903 0.000000
0.000344 0.005359 0.000000
0.000466 0.005452 0.000000
0.000150 0.005164 0.000000
0.000238 0.005265 0.000000
0.000031 0.004918 0.000000
0.000080 0.005050 0.000000
0.000002 0.004574 0.000000
0.000005 0.004761 0.000000
0.000136 0.003807 0.000000
0.000072 0.004088 0.000000
0.000269 0.003287 0.000000
0.000202 0.003541 0.000000
0.000474 0.002597 0.000000
0.000337 0.003045 0.000000
0.000831 0.001501 0.000000
0.001025 0.000792 0.000000
0.000988 0.000921 0.000000
0.000876 0.001348 0.000000
0.002831 0.000000 0.000000
0.002592 0.000004 0.000000
0.002361 0.000015 0.000000
0.002141 0.000031 0.000000
0.001938 0.000055 0.000000
0.001756 0.000084 0.000000
0.001600 0.000121 0.000000
0.001293 0.000286 0.000000
0.001221 0.000365 0.000000
3 0 1 2
3 0 2 3
3 4 5 6
3 4 6 7
3 8 9 10
3 8 10 11
3 12 13 14
3 12 14 15
3 16 17 18
3 16 18 19
3 20 21 22
3 20 22 23
3 24 25 26
3 24 26 27
3 28 12 15
3 28 15 29
3 30 28 29
3 30 29 31
3 32 30 31
3 32 31 33
3 34 35 36
3 36 32 33
3 37 34 36
3 33 37 36
3 38 39 1
3 38 1 0
3 40 41 42
3 42 43 44
3 44 22 21
3 21 45 46
3 46 47 48
3 48 24 27
3 27 49 50
3 50 51 52
3 52 53 54
3 54 55 56
3 56 57 58
3 58 59 60
3 60 61 62
3 62 63 64
3 64 65 66
3 66 67 68
3 68 69 70
3 68 70 71
3 64 66 68
3 60 62 64
3 56 58 60
3 52 54 56
3 27 50 52
3 46 48 27
3 44 21 46
3 40 42 44
3 11 72 40
3 73 8 11
3 74 75 73
3 76 77 74
3 78 79 76
3 80 78 76
3 76 74 73
3 73 11 40
3 40 44 46
3 46 27 52
3 52 56 60
3 60 64 68
3 60 68 71
3 46 52 60
3 73 40 46
3 80 76 73
3 81 82 83
3 83 80 73
3 73 46 60
3 60 71 84
3 84 85 86
3 86 38 0
3 0 3 87
3 87 88 4
3 4 7 89
3 89 90 91
3 91 92 93
3 93 94 95
3 95 34 37
3 37 33 31
3 95 37 31
3 91 93 95
3 4 89 91
3 0 87 4
3 84 86 0
3 73 60 84
3 81 83 73
3 96 97 81
3 16 19 96
3 98 99 16
3 100 101 98
3 102 103 100
3 14 102 100
3 100 98 16
3 16 96 81
3 81 73 84
3 84 0 4
3 4 91 95
3 95 31 29
3 4 95 29
3 81 84 4
3 100 16 81
3 14 100 81
3 4 29 15
3 15 14 81
3 4 15 81
3 73 104 9
3 73 9 8
3 52 105 106
3 52 106 53
3 19 18 107
3 19 107 96
3 50 108 109
3 50 109 51
3 110 111 112
3 112 113 13
3 110 112 13
3 114 115 110
3 18 17 114
3 116 107 18
3 117 118 116
3 119 117 116
3 116 18 114
3 114 110 13
3 116 114 13
3 120 119 116
3 121 122 120
3 123 124 121
3 125 126 123
3 9 104 125
3 127 10 9
3 128 129 130
3 130 127 9
3 9 125 123
3 123 121 120
3 120 116 13
3 120 13 12
3 9 123 120
3 128 130 9
3 131 132 128
3 20 23 131
3 133 134 20
3 135 136 133
3 26 25 135
3 108 137 26
3 105 109 108
3 138 106 105
3 139 140 138
3 141 142 139
3 143 144 141
3 145 146 143
3 147 148 145
3 149 150 147
3 151 152 149
3 153 154 151
3 155 153 151
3 151 149 147
3 147 145 143
3 143 141 139
3 139 138 105
3 105 108 26
3 26 135 133
3 133 20 131
3 131 128 9
3 9 120 12
3 9 12 28
3 133 131 9
3 105 26 133
3 143 139 105
3 151 147 143
3 155 151 143
3 143 105 133
3 133 9 28
3 30 32 36
3 133 28 30
3 155 143 133
3 156 157 158
3 158 155 133
3 133 30 36
3 36 35 159
3 159 160 161
3 161 162 163
3 163 164 165
3 165 6 5
3 5 166 167
3 167 2 1
3 1 39 156
3 156 158 133
3 133 36 159
3 159 161 163
3 163 165 5
3 5 167 1
3 1 156 133
3 133 159 163
3 163 5 1
3 163 1 133
3 63 148 147
3 63 147 64
3 60 143 146
3 60 146 61
3 53 106 138
3 53 138 54
3 59 144 143
3 59 143 60
3 155 158 157
3 156 39 38
3 153 155 157
3 157 156 38
3 157 38 86
3 153 157 86
3 153 86 85
3 154 153 85
3 154 85 84
3 151 154 84
3 151 84 71
3 152 151 71
3 152 71 70
3 65 150 149
3 149 152 70
3 149 70 69
3 66 65 149
3 67 66 149
3 149 69 68
3 68 67 149
3 94 93 161
3 94 161 160
3 35 34 95
3 95 94 160
3 159 35 95
3 160 159 95
3 3 2 167
3 3 167 87
3 77 123 126
3 77 126 74
3 47 136 135
3 47 135 48
3 121 124 76
3 121 76 79
3 119 120 122
3 122 121 79
3 122 79 78
3 117 119 122
3 81 118 117
3 82 81 117
3 117 122 78
3 117 78 80
3 83 82 117
3 80 83 117
3 113 112 111
3 111 110 115
3 115 114 99
3 115 99 98
3 113 111 115
3 103 102 113
3 100 103 113
3 113 115 98
3 101 100 113
3 98 101 113
3 74 126 125
3 74 125 75
3 131 44 43
3 131 43 132
3 45 134 133
3 45 133 46
3 75 125 104
3 75 104 73
3 76 124 123
3 76 123 77
3 128 132 43
3 128 43 42
3 10 127 130
3 130 128 42
3 130 42 41
3 11 10 130
3 72 11 130
3 130 41 40
3 130 40 72
3 14 13 113
3 14 113 102
3 7 6 165
3 7 165 89
3 89 165 164
3 89 164 90
3 61 146 145
3 61 145 62
3 137 108 50
3 137 50 49
3 87 167 166
3 87 166 88
3 96 107 116
3 96 116 97
3 140 139 142
3 142 141 58
3 142 58 57
3 54 138 140
3 140 142 57
3 140 57 56
3 55 54 140
3 56 55 140
3 136 47 46
3 136 46 133
3 137 49 27
3 137 27 26
3 134 45 21
3 134 21 20
3 51 109 105
3 51 105 52
3 44 131 23
3 44 23 22
3 58 141 144
3 58 144 59
3 48 135 25
3 48 25 24
3 64 147 150
3 64 150 65
3 114 17 16
3 114 16 99
3 62 145 148
3 62 148 63
3 88 166 5
3 88 5 4
3 162 161 93
3 162 93 92
3 90 164 163
3 163 162 92
3 91 90 163
3 92 91 163
3 97 116 118
3 97 118 81
