ply
format ascii 1.0
comment Created by Blender 3.6.8 - www.blender.org
element vertex 224
property float x
property float y
property float z
element face 443
property list uchar uint vertex_indices
end_header
0.008016 0.001169 0.000000
0.008016 0.001169 0.150000
0.007678 0.000980 0.150000
0.007678 0.000980 0.000000
0.000010 0.001711 0.150000
0.000010 0.001711 0.000000
0.000009 0.001178 0.000000
0.000009 0.001178 0.150000
0.003651 0.000012 0.150000
0.005876 0.000274 0.150000
0.006702 0.000486 0.150000
0.006842 0.000531 0.150000
0.006973 0.000578 0.150000
0.007096 0.000628 0.150000
0.007212 0.000680 0.150000
0.007419 0.000793 0.150000
0.008074 0.001214 0.150000
0.008130 0.001270 0.150000
0.008183 0.001343 0.150000
0.008236 0.001435 0.150000
0.008287 0.001552 0.150000
0.008388 0.001849 0.150000
0.003079 0.000002 0.150000
0.003384 0.000001 0.150000
0.001349 0.000174 0.150000
0.002747 0.000016 0.150000
0.000513 0.000378 0.150000
0.000751 0.000304 0.150000
0.000196 0.000570 0.150000
0.000329 0.000458 0.150000
0.000041 0.000940 0.150000
0.000102 0.000734 0.150000
0.000069 0.002253 0.150000
0.000035 0.001986 0.150000
0.000240 0.003113 0.150000
0.000199 0.003041 0.150000
0.000353 0.003286 0.150000
0.000288 0.003190 0.150000
0.000522 0.003499 0.150000
0.000431 0.003391 0.150000
0.000675 0.003640 0.150000
0.000622 0.003596 0.150000
0.001186 0.003976 0.150000
0.000732 0.003682 0.150000
0.008439 0.001984 0.150000
0.008581 0.002331 0.150000
0.008618 0.002442 0.150000
0.001504 0.004198 0.150000
0.008646 0.002556 0.150000
0.008664 0.002679 0.150000
0.008671 0.002814 0.150000
0.008640 0.003139 0.150000
0.008353 0.004273 0.150000
0.008233 0.004593 0.150000
0.008082 0.004892 0.150000
0.007992 0.005036 0.150000
0.007774 0.005317 0.150000
0.007651 0.005452 0.150000
0.007529 0.005579 0.150000
0.007408 0.005700 0.150000
0.007289 0.005813 0.150000
0.007171 0.005920 0.150000
0.007054 0.006020 0.150000
0.006939 0.006114 0.150000
0.006826 0.006201 0.150000
0.006606 0.006360 0.150000
0.006395 0.006497 0.150000
0.006190 0.006620 0.150000
0.004750 0.007431 0.150000
0.001585 0.004261 0.150000
0.004582 0.007532 0.150000
0.003936 0.007961 0.150000
0.003844 0.008019 0.150000
0.001648 0.004315 0.150000
0.001732 0.004404 0.150000
0.003755 0.008071 0.150000
0.003671 0.008115 0.150000
0.003593 0.008151 0.150000
0.003522 0.008176 0.150000
0.003460 0.008189 0.150000
0.003406 0.008189 0.150000
0.003363 0.008173 0.150000
0.003175 0.008050 0.150000
0.003067 0.007962 0.150000
0.002963 0.007850 0.150000
0.002916 0.007783 0.150000
0.002873 0.007709 0.150000
0.002837 0.007626 0.150000
0.002809 0.007534 0.150000
0.002766 0.007360 0.150000
0.002734 0.007216 0.150000
0.002721 0.007151 0.150000
0.002710 0.007086 0.150000
0.002681 0.006883 0.150000
0.002618 0.006197 0.150000
0.001761 0.004444 0.150000
0.001864 0.004633 0.150000
0.001832 0.004577 0.150000
0.001784 0.004485 0.150000
0.002610 0.006123 0.150000
0.001961 0.004780 0.150000
0.001906 0.004700 0.150000
0.002076 0.004940 0.150000
0.002598 0.006050 0.150000
0.002126 0.005011 0.150000
0.002584 0.005976 0.150000
0.002565 0.005901 0.150000
0.002172 0.005078 0.150000
0.002215 0.005143 0.150000
0.002513 0.005739 0.150000
0.002478 0.005650 0.150000
0.002255 0.005207 0.150000
0.002294 0.005271 0.150000
0.002403 0.005481 0.150000
0.002367 0.005407 0.150000
0.002330 0.005337 0.150000
0.008074 0.001214 0.000000
0.008353 0.004273 0.000000
0.008233 0.004593 0.000000
0.003671 0.008115 0.000000
0.003593 0.008151 0.000000
0.000041 0.000940 0.000000
0.000102 0.000734 0.000000
0.007289 0.005813 0.000000
0.007171 0.005920 0.000000
0.007054 0.006020 0.000000
0.006939 0.006114 0.000000
0.006826 0.006201 0.000000
0.008646 0.002556 0.000000
0.008664 0.002679 0.000000
0.002963 0.007850 0.000000
0.002916 0.007783 0.000000
0.002873 0.007709 0.000000
0.007529 0.005579 0.000000
0.007408 0.005700 0.000000
0.007651 0.005452 0.000000
0.007774 0.005317 0.000000
0.005876 0.000274 0.000000
0.003651 0.000012 0.000000
0.003384 0.000001 0.000000
0.003079 0.000002 0.000000
0.002747 0.000016 0.000000
0.001349 0.000174 0.000000
0.000751 0.000304 0.000000
0.000513 0.000378 0.000000
0.000329 0.000458 0.000000
0.000196 0.000570 0.000000
0.000035 0.001986 0.000000
0.000069 0.002253 0.000000
0.000199 0.003041 0.000000
0.000240 0.003113 0.000000
0.000288 0.003190 0.000000
0.000353 0.003286 0.000000
0.000431 0.003391 0.000000
0.000522 0.003499 0.000000
0.000622 0.003596 0.000000
0.000675 0.003640 0.000000
0.000732 0.003682 0.000000
0.001186 0.003976 0.000000
0.006702 0.000486 0.000000
0.006973 0.000578 0.000000
0.006842 0.000531 0.000000
0.007212 0.000680 0.000000
0.007096 0.000628 0.000000
0.007419 0.000793 0.000000
0.008183 0.001343 0.000000
0.008130 0.001270 0.000000
0.008287 0.001552 0.000000
0.008236 0.001435 0.000000
0.008388 0.001849 0.000000
0.001504 0.004198 0.000000
0.008618 0.002442 0.000000
0.008581 0.002331 0.000000
0.008439 0.001984 0.000000
0.001585 0.004261 0.000000
0.008640 0.003139 0.000000
0.008671 0.002814 0.000000
0.007992 0.005036 0.000000
0.008082 0.004892 0.000000
0.006606 0.006360 0.000000
0.006190 0.006620 0.000000
0.006395 0.006497 0.000000
0.004750 0.007431 0.000000
0.001648 0.004315 0.000000
0.001732 0.004404 0.000000
0.003844 0.008019 0.000000
0.003936 0.007961 0.000000
0.004582 0.007532 0.000000
0.001761 0.004444 0.000000
0.001784 0.004485 0.000000
0.001832 0.004577 0.000000
0.001864 0.004633 0.000000
0.003755 0.008071 0.000000
0.003460 0.008189 0.000000
0.003522 0.008176 0.000000
0.003363 0.008173 0.000000
0.003406 0.008189 0.000000
0.003067 0.007962 0.000000
0.003175 0.008050 0.000000
0.002837 0.007626 0.000000
0.002766 0.007360 0.000000
0.002809 0.007534 0.000000
0.002721 0.007151 0.000000
0.002734 0.007216 0.000000
0.002681 0.006883 0.000000
0.002710 0.007086 0.000000
0.002618 0.006197 0.000000
0.001906 0.004700 0.000000
0.001961 0.004780 0.000000
0.002076 0.004940 0.000000
0.002610 0.006123 0.000000
0.002126 0.005011 0.000000
0.002598 0.006050 0.000000
0.002172 0.005078 0.000000
0.002215 0.005143 0.000000
0.002584 0.005976 0.000000
0.002565 0.005901 0.000000
0.002255 0.005207 0.000000
0.002294 0.005271 0.000000
0.002513 0.005739 0.000000
0.002478 0.005650 0.000000
0.002330 0.005337 0.000000
0.002367 0.005407 0.000000
0.002403 0.005481 0.000000
3 0 1 2
3 0 2 3
3 4 5 6
3 4 6 7
3 8 9 10
3 10 11 12
3 12 13 14
3 14 15 2
3 2 1 16
3 16 17 18
3 18 19 20
3 18 20 21
3 2 16 18
3 12 14 2
3 8 10 12
3 22 23 8
3 24 25 22
3 26 27 24
3 28 29 26
3 30 31 28
3 4 7 30
3 32 33 4
3 34 35 32
3 36 37 34
3 38 39 36
3 40 41 38
3 42 43 40
3 42 40 38
3 38 36 34
3 34 32 4
3 4 30 28
3 28 26 24
3 24 22 8
3 8 12 2
3 2 18 21
3 44 45 46
3 2 21 44
3 24 8 2
3 4 28 24
3 38 34 4
3 47 42 38
3 47 38 4
3 4 24 2
3 2 44 46
3 46 48 49
3 49 50 51
3 51 52 53
3 53 54 55
3 55 56 57
3 57 58 59
3 59 60 61
3 61 62 63
3 63 64 65
3 65 66 67
3 65 67 68
3 61 63 65
3 57 59 61
3 53 55 57
3 49 51 53
3 2 46 49
3 47 4 2
3 69 47 2
3 2 49 53
3 53 57 61
3 61 65 68
3 70 71 72
3 61 68 70
3 2 53 61
3 73 69 2
3 74 73 2
3 2 61 70
3 70 72 75
3 75 76 77
3 77 78 79
3 79 80 81
3 81 82 83
3 83 84 85
3 85 86 87
3 87 88 89
3 89 90 91
3 91 92 93
3 91 93 94
3 87 89 91
3 83 85 87
3 79 81 83
3 75 77 79
3 2 70 75
3 95 74 2
3 96 97 98
3 98 95 2
3 2 75 79
3 79 83 87
3 87 91 94
3 87 94 99
3 2 79 87
3 96 98 2
3 100 101 96
3 102 100 96
3 2 87 99
3 2 99 103
3 102 96 2
3 104 102 2
3 2 103 105
3 2 105 106
3 107 104 2
3 108 107 2
3 2 106 109
3 2 109 110
3 111 108 2
3 112 111 2
3 2 110 113
3 2 113 114
3 115 112 2
3 2 114 115
3 1 0 116
3 1 116 16
3 117 118 53
3 117 53 52
3 76 119 120
3 76 120 77
3 30 121 122
3 30 122 31
3 61 60 123
3 123 124 125
3 125 126 127
3 127 64 63
3 62 61 123
3 127 63 62
3 123 125 127
3 123 127 62
3 48 128 129
3 48 129 49
3 84 130 131
3 84 131 85
3 85 131 132
3 85 132 86
3 133 134 123
3 123 60 59
3 123 59 58
3 135 133 123
3 56 136 135
3 123 58 57
3 57 56 135
3 123 57 135
3 137 138 139
3 139 140 141
3 141 142 143
3 143 144 145
3 145 146 122
3 122 121 6
3 6 5 147
3 147 148 149
3 149 150 151
3 151 152 153
3 153 154 155
3 155 156 157
3 155 157 158
3 151 153 155
3 147 149 151
3 122 6 147
3 143 145 122
3 139 141 143
3 159 137 139
3 160 161 159
3 162 163 160
3 3 164 162
3 116 0 3
3 165 166 116
3 167 168 165
3 169 167 165
3 165 116 3
3 3 162 160
3 160 159 139
3 139 143 122
3 122 147 151
3 151 155 158
3 151 158 170
3 139 122 151
3 3 160 139
3 169 165 3
3 171 172 173
3 173 169 3
3 3 139 151
3 151 170 174
3 3 151 174
3 171 173 3
3 129 128 171
3 175 176 129
3 118 117 175
3 177 178 118
3 135 136 177
3 134 133 135
3 124 123 134
3 126 125 124
3 179 127 126
3 180 181 179
3 182 180 179
3 179 126 124
3 124 134 135
3 135 177 118
3 118 175 129
3 129 171 3
3 3 174 183
3 3 183 184
3 118 129 3
3 124 135 118
3 182 179 124
3 185 186 187
3 187 182 124
3 124 118 3
3 3 184 188
3 189 190 191
3 3 188 189
3 187 124 3
3 192 185 187
3 120 119 192
3 193 194 120
3 195 196 193
3 197 198 195
3 131 130 197
3 199 132 131
3 200 201 199
3 202 203 200
3 204 205 202
3 206 204 202
3 202 200 199
3 199 131 197
3 197 195 193
3 193 120 192
3 192 187 3
3 3 189 191
3 191 207 208
3 191 208 209
3 193 192 3
3 199 197 193
3 206 202 199
3 210 206 199
3 199 193 3
3 3 191 209
3 3 209 211
3 210 199 3
3 212 210 3
3 3 211 213
3 3 213 214
3 215 212 3
3 216 215 3
3 3 214 217
3 3 217 218
3 219 216 3
3 220 219 3
3 3 218 221
3 3 221 222
3 223 220 3
3 222 223 3
3 143 142 24
3 143 24 27
3 139 138 8
3 139 8 23
3 25 141 139
3 139 23 22
3 139 22 25
3 14 162 164
3 14 164 15
3 77 120 194
3 77 194 78
3 197 130 84
3 197 84 83
3 26 144 143
3 26 143 27
3 78 194 193
3 78 193 79
3 28 146 145
3 28 145 29
3 156 155 41
3 156 41 40
3 157 156 40
3 157 40 43
3 158 157 43
3 158 43 42
3 170 158 42
3 170 42 47
3 73 183 174
3 174 170 47
3 69 73 174
3 47 69 174
3 53 118 178
3 53 178 54
3 29 145 144
3 29 144 26
3 164 3 2
3 164 2 15
3 80 196 195
3 80 195 81
3 86 132 199
3 86 199 87
3 147 5 4
3 147 4 33
3 35 149 148
3 148 147 33
3 32 35 148
3 33 32 148
3 198 197 83
3 198 83 82
3 50 176 175
3 50 175 51
3 154 153 39
3 154 39 38
3 192 119 76
3 192 76 75
3 185 192 75
3 185 75 72
3 186 185 72
3 186 72 71
3 187 186 71
3 187 71 70
3 182 187 70
3 182 70 68
3 180 182 68
3 180 68 67
3 181 180 67
3 181 67 66
3 64 127 179
3 179 181 66
3 65 64 179
3 66 65 179
3 175 117 52
3 175 52 51
3 210 212 215
3 215 216 106
3 215 106 105
3 99 210 215
3 215 105 103
3 215 103 99
3 216 219 109
3 216 109 106
3 74 184 183
3 74 183 73
3 177 136 56
3 177 56 55
3 219 220 223
3 223 222 221
3 221 115 114
3 221 114 113
3 219 223 221
3 110 109 219
3 221 113 110
3 221 110 219
3 137 159 10
3 137 10 9
3 138 137 9
3 138 9 8
3 202 205 92
3 202 92 91
3 203 202 91
3 203 91 90
3 200 203 90
3 200 90 89
3 87 199 201
3 201 200 89
3 88 87 201
3 89 88 201
3 31 122 146
3 31 146 28
3 17 166 165
3 17 165 18
3 205 204 206
3 206 210 99
3 206 99 94
3 92 205 206
3 206 94 93
3 206 93 92
3 39 153 152
3 152 151 150
3 150 149 35
3 150 35 34
3 39 152 150
3 36 39 150
3 150 34 37
3 150 37 36
3 79 193 196
3 79 196 80
3 169 173 172
3 172 171 46
3 172 46 45
3 167 169 172
3 19 168 167
3 20 19 167
3 167 172 45
3 167 45 44
3 21 20 167
3 44 21 167
3 155 154 38
3 155 38 41
3 18 165 168
3 18 168 19
3 49 129 176
3 49 176 50
3 142 141 25
3 142 25 24
3 16 116 166
3 16 166 17
3 54 178 177
3 54 177 55
3 46 171 128
3 46 128 48
3 209 208 207
3 207 191 190
3 207 190 189
3 209 207 189
3 188 184 74
3 209 189 188
3 211 209 188
3 188 74 95
3 188 95 98
3 213 211 188
3 214 213 188
3 188 98 97
3 188 97 96
3 214 188 96
3 214 96 101
3 217 214 101
3 217 101 100
3 115 221 218
3 218 217 100
3 218 100 102
3 112 115 218
3 111 112 218
3 218 102 104
3 218 104 107
3 108 111 218
3 107 108 218
3 195 198 82
3 195 82 81
3 7 6 121
3 7 121 30
3 163 162 14
3 163 14 13
3 160 163 13
3 160 13 12
3 10 159 161
3 161 160 12
3 11 10 161
3 12 11 161
