ply
format ascii 1.0
comment Created by Blender 3.6.8 - www.blender.org
element vertex 192
property float x
property float y
property float z
element face 378
property list uchar uint vertex_indices
end_header
0.000013 0.003568 0.150000
0.000013 0.003568 0.000000
0.000055 0.003357 0.000000
0.000055 0.003357 0.150000
0.000716 0.006948 0.000000
0.000708 0.006941 0.000000
0.000708 0.006941 0.150000
0.000716 0.006948 0.150000
0.000739 0.006967 0.000000
0.000739 0.006967 0.150000
0.000776 0.006998 0.000000
0.000776 0.006998 0.150000
0.000826 0.007039 0.000000
0.000826 0.007039 0.150000
0.000890 0.007089 0.000000
0.000890 0.007089 0.150000
0.000967 0.007145 0.000000
0.000967 0.007145 0.150000
0.001156 0.007273 0.150000
0.001156 0.007273 0.000000
0.001056 0.007207 0.000000
0.001056 0.007207 0.150000
0.005201 0.000384 0.000000
0.005201 0.000384 0.150000
0.005069 0.000261 0.150000
0.005069 0.000261 0.000000
0.002890 0.006776 0.150000
0.002890 0.006776 0.000000
0.002735 0.006970 0.000000
0.002735 0.006970 0.150000
0.000862 0.001623 0.150000
0.000862 0.001623 0.000000
0.000964 0.001506 0.000000
0.000964 0.001506 0.150000
0.000012 0.004124 0.150000
0.000012 0.004124 0.000000
0.000000 0.003828 0.000000
0.000000 0.003828 0.150000
0.005324 0.000538 0.150000
0.005324 0.000538 0.000000
0.005428 0.000720 0.000000
0.005428 0.000720 0.150000
0.004969 0.003451 0.000000
0.004816 0.003746 0.000000
0.004668 0.004016 0.000000
0.004668 0.004016 0.150000
0.004816 0.003746 0.150000
0.004969 0.003451 0.150000
0.005233 0.002925 0.000000
0.005323 0.002734 0.150000
0.005323 0.002734 0.000000
0.005233 0.002925 0.150000
0.005454 0.002388 0.000000
0.005530 0.002082 0.000000
0.005564 0.001804 0.000000
0.005568 0.001545 0.000000
0.005563 0.001420 0.000000
0.005555 0.001295 0.000000
0.005546 0.001170 0.000000
0.005530 0.001047 0.000000
0.005505 0.000931 0.000000
0.005471 0.000822 0.000000
0.004935 0.000168 0.000000
0.004794 0.000101 0.000000
0.004636 0.000052 0.000000
0.004466 0.000019 0.000000
0.004289 0.000003 0.000000
0.004199 0.000000 0.000000
0.004110 0.000001 0.000000
0.004022 0.000006 0.000000
0.003935 0.000014 0.000000
0.003754 0.000048 0.000000
0.003656 0.000076 0.000000
0.003553 0.000110 0.000000
0.003337 0.000193 0.000000
0.001680 0.000995 0.000000
0.001548 0.001074 0.000000
0.001420 0.001155 0.000000
0.001296 0.001237 0.000000
0.001179 0.001322 0.000000
0.001068 0.001408 0.000000
0.000668 0.001905 0.000000
0.000577 0.002066 0.000000
0.000489 0.002237 0.000000
0.000326 0.002602 0.000000
0.000251 0.002791 0.000000
0.000181 0.002981 0.000000
0.000115 0.003170 0.000000
0.000043 0.004445 0.000000
0.000090 0.004778 0.000000
0.000147 0.005112 0.000000
0.000273 0.005734 0.000000
0.000443 0.006465 0.000000
0.001267 0.007343 0.000000
0.001389 0.007413 0.000000
0.001520 0.007483 0.000000
0.001661 0.007552 0.000000
0.001791 0.007608 0.000000
0.001895 0.007639 0.000000
0.001978 0.007650 0.000000
0.002043 0.007643 0.000000
0.002095 0.007619 0.000000
0.002139 0.007581 0.000000
0.002319 0.007343 0.000000
0.004516 0.004277 0.000000
0.004594 0.004147 0.000000
0.004349 0.004545 0.000000
0.004435 0.004409 0.000000
0.004099 0.004923 0.000000
0.003708 0.005526 0.000000
0.003830 0.005338 0.000000
0.004042 0.005009 0.000000
0.002387 0.007273 0.000000
0.002473 0.007204 0.000000
0.002566 0.007133 0.000000
0.002653 0.007055 0.000000
0.003519 0.005811 0.000000
0.002967 0.006667 0.000000
0.003046 0.006549 0.000000
0.003127 0.006421 0.000000
0.003307 0.006137 0.000000
0.003408 0.005979 0.000000
0.004935 0.000168 0.150000
0.003935 0.000014 0.150000
0.003754 0.000048 0.150000
0.004289 0.000003 0.150000
0.004466 0.000019 0.150000
0.004794 0.000101 0.150000
0.005564 0.001804 0.150000
0.005530 0.002082 0.150000
0.002139 0.007581 0.150000
0.002319 0.007343 0.150000
0.005471 0.000822 0.150000
0.005505 0.000931 0.150000
0.003337 0.000193 0.150000
0.001680 0.000995 0.150000
0.004636 0.000052 0.150000
0.000668 0.001905 0.150000
0.001548 0.001074 0.150000
0.001420 0.001155 0.150000
0.001296 0.001237 0.150000
0.001068 0.001408 0.150000
0.001179 0.001322 0.150000
0.001267 0.007343 0.150000
0.001389 0.007413 0.150000
0.001661 0.007552 0.150000
0.001520 0.007483 0.150000
0.005454 0.002388 0.150000
0.002967 0.006667 0.150000
0.003046 0.006549 0.150000
0.003127 0.006421 0.150000
0.003307 0.006137 0.150000
0.003408 0.005979 0.150000
0.003519 0.005811 0.150000
0.003708 0.005526 0.150000
0.003830 0.005338 0.150000
0.004042 0.005009 0.150000
0.004099 0.004923 0.150000
0.004349 0.004545 0.150000
0.004435 0.004409 0.150000
0.004516 0.004277 0.150000
0.004594 0.004147 0.150000
0.002095 0.007619 0.150000
0.001895 0.007639 0.150000
0.001791 0.007608 0.150000
0.000443 0.006465 0.150000
0.004199 0.000000 0.150000
0.004110 0.000001 0.150000
0.004022 0.000006 0.150000
0.003656 0.000076 0.150000
0.003553 0.000110 0.150000
0.000326 0.002602 0.150000
0.000251 0.002791 0.150000
0.000181 0.002981 0.150000
0.000115 0.003170 0.150000
0.005568 0.001545 0.150000
0.000577 0.002066 0.150000
0.000489 0.002237 0.150000
0.005530 0.001047 0.150000
0.000043 0.004445 0.150000
0.000090 0.004778 0.150000
0.000147 0.005112 0.150000
0.000273 0.005734 0.150000
0.002387 0.007273 0.150000
0.001978 0.007650 0.150000
0.002043 0.007643 0.150000
0.005563 0.001420 0.150000
0.005555 0.001295 0.150000
0.005546 0.001170 0.150000
0.002473 0.007204 0.150000
0.002653 0.007055 0.150000
0.002566 0.007133 0.150000
3 0 1 2
3 0 2 3
3 4 5 6
3 4 6 7
3 8 4 7
3 8 7 9
3 10 8 9
3 10 9 11
3 12 10 11
3 12 11 13
3 14 12 13
3 14 13 15
3 16 14 15
3 16 15 17
3 18 19 20
3 20 16 17
3 21 18 20
3 20 17 21
3 22 23 24
3 22 24 25
3 26 27 28
3 26 28 29
3 30 31 32
3 30 32 33
3 34 35 36
3 34 36 37
3 38 39 40
3 38 40 41
3 42 43 44
3 44 45 46
3 44 46 47
3 48 42 44
3 49 50 48
3 44 47 51
3 51 49 48
3 44 51 48
3 50 52 53
3 53 54 55
3 55 56 57
3 57 58 59
3 59 60 61
3 61 40 39
3 39 22 25
3 25 62 63
3 63 64 65
3 65 66 67
3 67 68 69
3 69 70 71
3 71 72 73
3 73 74 75
3 75 76 77
3 77 78 79
3 79 80 32
3 32 31 81
3 81 82 83
3 83 84 85
3 85 86 87
3 87 2 1
3 1 36 35
3 35 88 89
3 89 90 91
3 91 92 5
3 5 4 8
3 8 10 12
3 12 14 16
3 16 20 19
3 19 93 94
3 94 95 96
3 96 97 98
3 98 99 100
3 100 101 102
3 100 102 103
3 96 98 100
3 19 94 96
3 12 16 19
3 5 8 12
3 89 91 5
3 1 35 89
3 85 87 1
3 81 83 85
3 79 32 81
3 75 77 79
3 71 73 75
3 67 69 71
3 63 65 67
3 39 25 63
3 59 61 39
3 55 57 59
3 50 53 55
3 42 48 50
3 104 105 44
3 106 107 104
3 108 106 104
3 104 44 42
3 42 50 55
3 55 59 39
3 39 63 67
3 67 71 75
3 75 79 81
3 81 85 1
3 1 89 5
3 5 12 19
3 19 96 100
3 19 100 103
3 1 5 19
3 75 81 1
3 39 67 75
3 42 55 39
3 108 104 42
3 109 110 111
3 111 108 42
3 42 39 75
3 75 1 19
3 19 103 112
3 113 114 115
3 19 112 113
3 42 75 19
3 109 111 42
3 116 109 42
3 42 19 113
3 113 115 28
3 28 27 117
3 117 118 119
3 117 119 120
3 113 28 117
3 116 42 113
3 117 120 121
3 121 116 113
3 113 117 121
3 25 24 122
3 25 122 62
3 71 70 123
3 71 123 124
3 125 66 65
3 125 65 126
3 63 62 122
3 63 122 127
3 128 54 53
3 128 53 129
3 103 102 130
3 103 130 131
3 132 61 60
3 132 60 133
3 75 74 134
3 75 134 135
3 65 64 136
3 65 136 126
3 137 81 31
3 137 31 30
3 76 75 135
3 76 135 138
3 77 76 138
3 77 138 139
3 78 77 139
3 78 139 140
3 141 80 79
3 79 78 140
3 142 141 79
3 79 140 142
3 37 36 1
3 37 1 0
3 93 19 18
3 93 18 143
3 94 93 143
3 94 143 144
3 145 96 95
3 95 94 144
3 146 145 95
3 95 144 146
3 33 32 80
3 33 80 141
3 52 147 129
3 52 129 53
3 117 27 26
3 117 26 148
3 118 117 148
3 118 148 149
3 119 118 149
3 119 149 150
3 120 119 150
3 120 150 151
3 121 120 151
3 121 151 152
3 116 121 152
3 116 152 153
3 109 116 153
3 109 153 154
3 110 109 154
3 110 154 155
3 111 110 155
3 111 155 156
3 108 111 156
3 108 156 157
3 106 108 157
3 106 157 158
3 107 106 158
3 107 158 159
3 104 107 159
3 104 159 160
3 45 44 105
3 105 104 160
3 161 45 105
3 160 161 105
3 130 102 101
3 130 101 162
3 163 98 97
3 163 97 164
3 165 6 5
3 165 5 92
3 67 66 125
3 67 125 166
3 68 67 166
3 68 166 167
3 123 70 69
3 69 68 167
3 168 123 69
3 167 168 69
3 72 71 124
3 72 124 169
3 134 74 73
3 73 72 169
3 170 134 73
3 169 170 73
3 23 22 39
3 23 39 38
3 86 85 84
3 84 171 172
3 84 172 173
3 87 86 84
3 3 2 87
3 84 173 174
3 174 3 87
3 84 174 87
3 136 64 63
3 136 63 127
3 55 54 128
3 55 128 175
3 52 50 49
3 52 49 147
3 82 81 137
3 82 137 176
3 171 84 83
3 83 82 176
3 177 171 83
3 176 177 83
3 133 60 59
3 133 59 178
3 88 35 34
3 88 34 179
3 89 88 179
3 89 179 180
3 90 89 180
3 90 180 181
3 165 92 91
3 91 90 181
3 182 165 91
3 181 182 91
3 183 112 103
3 183 103 131
3 164 97 96
3 164 96 145
3 41 40 61
3 41 61 132
3 184 99 98
3 184 98 163
3 185 100 99
3 185 99 184
3 56 55 175
3 56 175 186
3 57 56 186
3 57 186 187
3 178 59 58
3 58 57 187
3 188 178 58
3 58 187 188
3 113 112 183
3 113 183 189
3 190 115 113
3 113 189 191
3 113 191 190
3 155 154 153
3 156 155 153
3 159 158 157
3 156 153 152
3 159 157 156
3 161 160 159
3 46 45 161
3 51 47 46
3 147 49 51
3 128 129 147
3 186 175 128
3 188 187 186
3 133 178 188
3 41 132 133
3 23 38 41
3 122 24 23
3 136 127 122
3 125 126 136
3 167 166 125
3 123 168 167
3 169 124 123
3 134 170 169
3 138 135 134
3 140 139 138
3 141 142 140
3 30 33 141
3 176 137 30
3 171 177 176
3 173 172 171
3 3 174 173
3 37 0 3
3 179 34 37
3 181 180 179
3 165 182 181
3 7 6 165
3 11 9 7
3 15 13 11
3 21 17 15
3 143 18 21
3 146 144 143
3 164 145 146
3 184 163 164
3 162 185 184
3 131 130 162
3 131 162 184
3 184 164 146
3 146 143 21
3 21 15 11
3 11 7 165
3 165 181 179
3 179 37 3
3 3 173 171
3 171 176 30
3 30 141 140
3 140 138 134
3 134 169 123
3 123 167 125
3 125 136 122
3 122 23 41
3 41 133 188
3 188 186 128
3 128 147 51
3 51 46 161
3 161 159 156
3 161 156 152
3 128 51 161
3 41 188 128
3 125 122 41
3 134 123 125
3 30 140 134
3 3 171 30
3 165 179 3
3 21 11 165
3 184 146 21
3 183 131 184
3 190 191 189
3 183 184 21
3 190 189 183
3 26 29 190
3 149 148 26
3 151 150 149
3 128 161 152
3 151 149 26
3 128 152 151
3 125 41 128
3 30 134 125
3 165 3 30
3 183 21 165
3 26 190 183
3 128 151 26
3 30 125 128
3 183 165 30
3 128 26 183
3 183 30 128
3 29 28 115
3 29 115 190
3 162 101 100
3 162 100 185
