ply
format ascii 1.0
comment Created by Blender 3.6.8 - www.blender.org
element vertex 164
property float x
property float y
property float z
element face 321
property list uchar uint vertex_indices
end_header
0.000119 0.001728 0.150000
0.000119 0.001728 0.000000
0.000188 0.001599 0.000000
0.000188 0.001599 0.150000
0.002058 0.007048 0.150000
0.002103 0.007126 0.150000
0.002103 0.007126 0.000000
0.002058 0.007048 0.000000
0.002007 0.006964 0.150000
0.002007 0.006964 0.000000
0.001950 0.006876 0.150000
0.001950 0.006876 0.000000
0.001890 0.006784 0.150000
0.001890 0.006784 0.000000
0.001762 0.006595 0.150000
0.001762 0.006595 0.000000
0.001631 0.006409 0.150000
0.001631 0.006409 0.000000
0.001506 0.006237 0.150000
0.001506 0.006237 0.000000
0.001396 0.006088 0.000000
0.001337 0.005999 0.000000
0.001337 0.005999 0.150000
0.001396 0.006088 0.150000
0.003424 0.008380 0.000000
0.004207 0.007462 0.000000
0.004390 0.007169 0.000000
0.004480 0.007006 0.000000
0.004574 0.006827 0.000000
0.004671 0.006631 0.000000
0.004776 0.006416 0.000000
0.004890 0.006178 0.000000
0.005016 0.005916 0.000000
0.005155 0.005627 0.000000
0.005288 0.005338 0.000000
0.005478 0.004832 0.000000
0.005587 0.004397 0.000000
0.005639 0.004007 0.000000
0.005651 0.003820 0.000000
0.005671 0.003038 0.000000
0.005673 0.002841 0.000000
0.005659 0.002672 0.000000
0.005630 0.002524 0.000000
0.005586 0.002392 0.000000
0.005526 0.002268 0.000000
0.005450 0.002147 0.000000
0.005357 0.002021 0.000000
0.004980 0.001550 0.000000
0.004464 0.000851 0.000000
0.004296 0.000658 0.000000
0.003274 0.008508 0.000000
0.003348 0.008452 0.000000
0.003129 0.008565 0.000000
0.003201 0.008547 0.000000
0.002979 0.008535 0.000000
0.003055 0.008562 0.000000
0.002816 0.008405 0.000000
0.002898 0.008482 0.000000
0.002581 0.008078 0.000000
0.002735 0.008310 0.000000
0.002438 0.007816 0.000000
0.002508 0.007949 0.000000
0.002147 0.007210 0.000000
0.002371 0.007682 0.000000
0.004136 0.000506 0.000000
0.003980 0.000391 0.000000
0.003825 0.000306 0.000000
0.003667 0.000244 0.000000
0.003504 0.000201 0.000000
0.002230 0.000003 0.000000
0.002014 0.000006 0.000000
0.001823 0.000041 0.000000
0.001652 0.000105 0.000000
0.001497 0.000194 0.000000
0.001355 0.000304 0.000000
0.001220 0.000431 0.000000
0.001091 0.000571 0.000000
0.000962 0.000720 0.000000
0.000829 0.000874 0.000000
0.000689 0.001029 0.000000
0.000538 0.001181 0.000000
0.000395 0.001327 0.000000
0.000279 0.001466 0.000000
0.000069 0.001855 0.000000
0.000035 0.001980 0.000000
0.000003 0.002231 0.000000
0.000012 0.002927 0.000000
0.000029 0.003073 0.000000
0.000091 0.003359 0.000000
0.000133 0.003497 0.000000
0.000179 0.003633 0.000000
0.000229 0.003765 0.000000
0.000434 0.004254 0.000000
0.000479 0.004366 0.000000
0.003129 0.008565 0.150000
0.003055 0.008562 0.150000
0.005639 0.004007 0.150000
0.005651 0.003820 0.150000
0.005673 0.002841 0.150000
0.005671 0.003038 0.150000
0.000003 0.002231 0.150000
0.000035 0.001980 0.150000
0.000091 0.003359 0.150000
0.000029 0.003073 0.150000
0.000279 0.001466 0.150000
0.002147 0.007210 0.150000
0.002371 0.007682 0.150000
0.002438 0.007816 0.150000
0.002581 0.008078 0.150000
0.002508 0.007949 0.150000
0.003667 0.000244 0.150000
0.003825 0.000306 0.150000
0.001652 0.000105 0.150000
0.001823 0.000041 0.150000
0.005587 0.004397 0.150000
0.002816 0.008405 0.150000
0.002735 0.008310 0.150000
0.003201 0.008547 0.150000
0.002014 0.000006 0.150000
0.005478 0.004832 0.150000
0.002230 0.000003 0.150000
0.002898 0.008482 0.150000
0.004136 0.000506 0.150000
0.004296 0.000658 0.150000
0.003424 0.008380 0.150000
0.003348 0.008452 0.150000
0.005450 0.002147 0.150000
0.005526 0.002268 0.150000
0.005659 0.002672 0.150000
0.000069 0.001855 0.150000
0.001355 0.000304 0.150000
0.001497 0.000194 0.150000
0.005630 0.002524 0.150000
0.003980 0.000391 0.150000
0.003274 0.008508 0.150000
0.002979 0.008535 0.150000
0.005357 0.002021 0.150000
0.004980 0.001550 0.150000
0.004464 0.000851 0.150000
0.004390 0.007169 0.150000
0.004207 0.007462 0.150000
0.005288 0.005338 0.150000
0.000012 0.002927 0.150000
0.000133 0.003497 0.150000
0.000179 0.003633 0.150000
0.000229 0.003765 0.150000
0.000479 0.004366 0.150000
0.000434 0.004254 0.150000
0.003504 0.000201 0.150000
0.004480 0.007006 0.150000
0.004574 0.006827 0.150000
0.004671 0.006631 0.150000
0.004776 0.006416 0.150000
0.004890 0.006178 0.150000
0.005016 0.005916 0.150000
0.005155 0.005627 0.150000
0.005586 0.002392 0.150000
0.001220 0.000431 0.150000
0.001091 0.000571 0.150000
0.000962 0.000720 0.150000
0.000829 0.000874 0.150000
0.000689 0.001029 0.150000
0.000395 0.001327 0.150000
0.000538 0.001181 0.150000
3 0 1 2
3 0 2 3
3 4 5 6
3 4 6 7
3 8 4 7
3 8 7 9
3 10 8 9
3 10 9 11
3 12 10 11
3 12 11 13
3 14 12 13
3 14 13 15
3 16 14 15
3 16 15 17
3 18 16 17
3 19 20 21
3 18 17 19
3 21 22 23
3 23 18 19
3 19 21 23
3 24 25 26
3 26 27 28
3 28 29 30
3 30 31 32
3 32 33 34
3 34 35 36
3 36 37 38
3 38 39 40
3 40 41 42
3 42 43 44
3 44 45 46
3 47 48 49
3 44 46 47
3 40 42 44
3 36 38 40
3 32 34 36
3 28 30 32
3 24 26 28
3 50 51 24
3 52 53 50
3 54 55 52
3 56 57 54
3 58 59 56
3 60 61 58
3 62 63 60
3 62 60 58
3 58 56 54
3 54 52 50
3 50 24 28
3 28 32 36
3 36 40 44
3 44 47 49
3 49 64 65
3 65 66 67
3 67 68 69
3 69 70 71
3 71 72 73
3 73 74 75
3 75 76 77
3 75 77 78
3 71 73 75
3 67 69 71
3 49 65 67
3 36 44 49
3 50 28 36
3 58 54 50
3 62 58 50
3 50 36 49
3 49 67 71
3 71 75 78
3 79 80 81
3 71 78 79
3 50 49 71
3 6 62 50
3 7 6 50
3 50 71 79
3 79 81 82
3 82 2 1
3 1 83 84
3 84 85 86
3 86 87 88
3 88 89 90
3 90 91 92
3 92 93 21
3 21 19 17
3 90 92 21
3 86 88 90
3 1 84 86
3 79 82 1
3 7 50 79
3 9 7 79
3 79 1 86
3 86 90 21
3 86 21 17
3 9 79 86
3 11 9 86
3 86 17 15
3 13 11 86
3 86 15 13
3 94 52 55
3 94 55 95
3 38 37 96
3 38 96 97
3 98 40 39
3 39 38 97
3 99 98 39
3 97 99 39
3 100 85 84
3 100 84 101
3 102 88 87
3 102 87 103
3 3 2 82
3 3 82 104
3 62 6 5
3 62 5 105
3 63 62 105
3 63 105 106
3 60 63 106
3 60 106 107
3 108 58 61
3 61 60 107
3 109 108 61
3 107 109 61
3 110 67 66
3 110 66 111
3 112 72 71
3 112 71 113
3 96 37 36
3 96 36 114
3 115 56 59
3 115 59 116
3 117 53 52
3 117 52 94
3 113 71 70
3 113 70 118
3 35 119 114
3 35 114 36
3 118 70 69
3 118 69 120
3 121 57 56
3 121 56 115
3 122 64 49
3 122 49 123
3 124 24 51
3 124 51 125
3 126 45 44
3 126 44 127
3 128 41 40
3 128 40 98
3 129 83 1
3 129 1 0
3 130 74 73
3 130 73 131
3 132 42 41
3 132 41 128
3 131 73 72
3 131 72 112
3 111 66 65
3 111 65 133
3 125 51 50
3 125 50 134
3 95 55 54
3 95 54 135
3 46 45 126
3 46 126 136
3 47 46 136
3 47 136 137
3 123 49 48
3 48 47 137
3 138 123 48
3 137 138 48
3 139 26 25
3 139 25 140
3 35 34 141
3 35 141 119
3 103 87 86
3 103 86 142
3 86 85 100
3 86 100 142
3 59 58 108
3 59 108 116
3 89 88 102
3 89 102 143
3 90 89 143
3 90 143 144
3 93 92 91
3 91 90 144
3 91 144 145
3 146 93 91
3 91 145 147
3 147 146 91
3 140 25 24
3 140 24 124
3 133 65 64
3 133 64 122
3 148 68 67
3 148 67 110
3 27 26 139
3 27 139 149
3 28 27 149
3 28 149 150
3 29 28 150
3 29 150 151
3 30 29 151
3 30 151 152
3 33 32 31
3 31 30 152
3 31 152 153
3 141 34 33
3 33 31 153
3 33 153 154
3 155 141 33
3 154 155 33
3 134 50 53
3 134 53 117
3 156 43 42
3 156 42 132
3 135 54 57
3 135 57 121
3 68 148 120
3 68 120 69
3 127 44 43
3 127 43 156
3 78 77 76
3 76 75 74
3 74 130 157
3 74 157 158
3 78 76 74
3 79 78 74
3 74 158 159
3 74 159 160
3 79 74 160
3 79 160 161
3 104 82 79
3 162 104 79
3 79 161 163
3 163 162 79
3 21 93 146
3 21 146 22
3 156 132 128
3 128 98 99
3 99 97 96
3 96 114 119
3 119 141 155
3 154 153 152
3 119 155 154
3 99 96 119
3 156 128 99
3 126 127 156
3 137 136 126
3 123 138 137
3 133 122 123
3 110 111 133
3 120 148 110
3 113 118 120
3 131 112 113
3 157 130 131
3 159 158 157
3 160 159 157
3 157 131 113
3 113 120 110
3 110 133 123
3 137 126 156
3 110 123 137
3 157 113 110
3 160 157 110
3 110 137 156
3 156 99 119
3 119 154 152
3 152 151 150
3 150 149 139
3 139 140 124
3 124 125 134
3 134 117 94
3 94 95 135
3 135 121 115
3 115 116 108
3 108 109 107
3 107 106 105
3 108 107 105
3 135 115 108
3 134 94 135
3 139 124 134
3 152 150 139
3 156 119 152
3 160 110 156
3 162 163 161
3 161 160 156
3 156 152 139
3 139 134 135
3 135 108 105
3 135 105 5
3 156 139 135
3 162 161 156
3 3 104 162
3 129 0 3
3 100 101 129
3 103 142 100
3 143 102 103
3 145 144 143
3 22 146 147
3 147 145 143
3 143 103 100
3 100 129 3
3 3 162 156
3 156 135 5
3 156 5 4
3 100 3 156
3 147 143 100
3 23 22 147
3 18 23 147
3 147 100 156
3 156 4 8
3 156 8 10
3 18 147 156
3 16 18 156
3 156 10 12
3 14 16 156
3 12 14 156
3 101 84 83
3 101 83 129
