ply
format ascii 1.0
comment Created by Blender 3.6.8 - www.blender.org
element vertex 158
property float x
property float y
property float z
element face 309
property list uchar uint vertex_indices
end_header
0.002131 0.010647 0.000000
0.002986 0.010407 0.000000
0.003237 0.010318 0.000000
0.003494 0.010219 0.000000
0.003753 0.010112 0.000000
0.004010 0.009998 0.000000
0.004730 0.009625 0.000000
0.005107 0.009360 0.000000
0.005257 0.009222 0.000000
0.005386 0.009079 0.000000
0.005499 0.008929 0.000000
0.005693 0.008605 0.000000
0.005782 0.008430 0.000000
0.006066 0.007833 0.000000
0.006180 0.007607 0.000000
0.006285 0.007372 0.000000
0.001084 0.010805 0.000000
0.000814 0.010824 0.000000
0.000945 0.010818 0.000000
0.000586 0.010807 0.000000
0.000694 0.010821 0.000000
0.000418 0.010738 0.000000
0.000493 0.010780 0.000000
0.000294 0.010563 0.000000
0.000353 0.010668 0.000000
0.000000 0.009310 0.000000
0.000191 0.010279 0.000000
0.000038 0.005584 0.000000
0.000025 0.006518 0.000000
0.000074 0.003735 0.000000
0.000054 0.004640 0.000000
0.000127 0.002238 0.000000
0.000098 0.002918 0.000000
0.000200 0.001486 0.000000
0.000161 0.001744 0.000000
0.000281 0.001258 0.000000
0.000241 0.001367 0.000000
0.000364 0.001065 0.000000
0.000322 0.001157 0.000000
0.000557 0.000755 0.000000
0.000454 0.000901 0.000000
0.000753 0.000555 0.000000
0.000681 0.000621 0.000000
0.000914 0.000422 0.000000
0.000832 0.000489 0.000000
0.001072 0.000288 0.000000
0.000993 0.000354 0.000000
0.001328 0.000115 0.000000
0.001153 0.000225 0.000000
0.001534 0.000035 0.000000
0.001426 0.000070 0.000000
0.001785 0.000001 0.000000
0.001653 0.000012 0.000000
0.002096 0.000023 0.000000
0.001932 0.000004 0.000000
0.002810 0.000250 0.000000
0.002450 0.000111 0.000000
0.004990 0.001444 0.000000
0.004884 0.001371 0.000000
0.005192 0.001634 0.000000
0.005093 0.001530 0.000000
0.005384 0.001909 0.000000
0.005289 0.001759 0.000000
0.005907 0.002980 0.000000
0.005829 0.002807 0.000000
0.006105 0.003542 0.000000
0.005980 0.003159 0.000000
0.006231 0.004235 0.000000
0.006199 0.003984 0.000000
0.006276 0.004798 0.000000
0.006254 0.004511 0.000000
0.006305 0.005078 0.000000
0.006402 0.005885 0.000000
0.006372 0.005621 0.000000
0.006339 0.005352 0.000000
0.006359 0.007134 0.000000
0.006406 0.006892 0.000000
0.006430 0.006647 0.000000
0.006424 0.006144 0.000000
0.005289 0.001759 0.150000
0.005384 0.001909 0.150000
0.000814 0.010824 0.150000
0.000945 0.010818 0.150000
0.002131 0.010647 0.150000
0.001084 0.010805 0.150000
0.002986 0.010407 0.150000
0.003237 0.010318 0.150000
0.003494 0.010219 0.150000
0.003753 0.010112 0.150000
0.004010 0.009998 0.150000
0.001534 0.000035 0.150000
0.001653 0.000012 0.150000
0.000493 0.010780 0.150000
0.000418 0.010738 0.150000
0.006430 0.006647 0.150000
0.006424 0.006144 0.150000
0.004990 0.001444 0.150000
0.005093 0.001530 0.150000
0.000694 0.010821 0.150000
0.000586 0.010807 0.150000
0.000353 0.010668 0.150000
0.000294 0.010563 0.150000
0.000191 0.010279 0.150000
0.000000 0.009310 0.150000
0.000025 0.006518 0.150000
0.000038 0.005584 0.150000
0.000054 0.004640 0.150000
0.000074 0.003735 0.150000
0.000098 0.002918 0.150000
0.000127 0.002238 0.150000
0.000161 0.001744 0.150000
0.000200 0.001486 0.150000
0.000241 0.001367 0.150000
0.000281 0.001258 0.150000
0.000322 0.001157 0.150000
0.000364 0.001065 0.150000
0.000454 0.000901 0.150000
0.000557 0.000755 0.150000
0.000681 0.000621 0.150000
0.000753 0.000555 0.150000
0.000832 0.000489 0.150000
0.000914 0.000422 0.150000
0.000993 0.000354 0.150000
0.001072 0.000288 0.150000
0.001153 0.000225 0.150000
0.001328 0.000115 0.150000
0.001426 0.000070 0.150000
0.001785 0.000001 0.150000
0.001932 0.000004 0.150000
0.002096 0.000023 0.150000
0.002450 0.000111 0.150000
0.002810 0.000250 0.150000
0.004884 0.001371 0.150000
0.005192 0.001634 0.150000
0.005829 0.002807 0.150000
0.005907 0.002980 0.150000
0.005980 0.003159 0.150000
0.006105 0.003542 0.150000
0.006199 0.003984 0.150000
0.006231 0.004235 0.150000
0.006254 0.004511 0.150000
0.006276 0.004798 0.150000
0.006305 0.005078 0.150000
0.006339 0.005352 0.150000
0.006372 0.005621 0.150000
0.006402 0.005885 0.150000
0.005107 0.009360 0.150000
0.004730 0.009625 0.150000
0.005386 0.009079 0.150000
0.005257 0.009222 0.150000
0.005693 0.008605 0.150000
0.005499 0.008929 0.150000
0.006066 0.007833 0.150000
0.005782 0.008430 0.150000
0.006285 0.007372 0.150000
0.006180 0.007607 0.150000
0.006406 0.006892 0.150000
0.006359 0.007134 0.150000
3 0 1 2
3 2 3 4
3 4 5 6
3 6 7 8
3 8 9 10
3 10 11 12
3 13 14 15
3 10 12 13
3 6 8 10
3 2 4 6
3 16 0 2
3 17 18 16
3 19 20 17
3 21 22 19
3 23 24 21
3 25 26 23
3 27 28 25
3 29 30 27
3 31 32 29
3 33 34 31
3 35 36 33
3 37 38 35
3 39 40 37
3 41 42 39
3 43 44 41
3 45 46 43
3 47 48 45
3 49 50 47
3 51 52 49
3 53 54 51
3 55 56 53
3 57 58 55
3 59 60 57
3 61 62 59
3 63 64 61
3 65 66 63
3 67 68 65
3 69 70 67
3 69 67 65
3 65 63 61
3 61 59 57
3 57 55 53
3 53 51 49
3 49 47 45
3 43 41 39
3 49 45 43
3 57 53 49
3 65 61 57
3 71 69 65
3 72 73 74
3 74 71 65
3 65 57 49
3 49 43 39
3 39 37 35
3 35 33 31
3 31 29 27
3 27 25 23
3 23 21 19
3 19 17 16
3 16 2 6
3 6 10 13
3 13 15 75
3 75 76 77
3 77 78 72
3 72 74 65
3 65 49 39
3 39 35 31
3 31 27 23
3 23 19 16
3 16 6 13
3 13 75 77
3 77 72 65
3 65 39 31
3 31 23 16
3 16 13 77
3 77 65 31
3 77 31 16
3 79 62 61
3 79 61 80
3 18 17 81
3 18 81 82
3 83 0 16
3 16 18 82
3 84 83 16
3 82 84 16
3 5 4 3
3 3 2 1
3 1 85 86
3 1 86 87
3 5 3 1
3 88 89 5
3 1 87 88
3 1 88 5
3 1 0 83
3 1 83 85
3 90 49 52
3 90 52 91
3 92 22 21
3 92 21 93
3 78 77 94
3 78 94 95
3 96 57 60
3 96 60 97
3 84 82 81
3 81 98 99
3 99 92 93
3 93 100 101
3 101 102 103
3 103 104 105
3 105 106 107
3 107 108 109
3 109 110 111
3 111 112 113
3 113 114 115
3 115 116 117
3 117 118 119
3 119 120 121
3 121 122 123
3 123 124 125
3 125 126 90
3 90 91 127
3 127 128 129
3 129 130 131
3 131 132 96
3 96 97 133
3 133 79 80
3 80 134 135
3 135 136 137
3 137 138 139
3 139 140 141
3 137 139 141
3 80 135 137
3 96 133 80
3 129 131 96
3 90 127 129
3 123 125 90
3 117 119 121
3 121 123 90
3 90 129 96
3 96 80 137
3 137 141 142
3 143 144 145
3 137 142 143
3 90 96 137
3 117 121 90
3 113 115 117
3 109 111 113
3 105 107 109
3 101 103 105
3 99 93 101
3 84 81 99
3 85 83 84
3 87 86 85
3 89 88 87
3 146 147 89
3 148 149 146
3 150 151 148
3 152 153 150
3 154 155 152
3 156 157 154
3 95 94 156
3 143 145 95
3 90 137 143
3 113 117 90
3 105 109 113
3 99 101 105
3 85 84 99
3 89 87 85
3 148 146 89
3 152 150 148
3 156 154 152
3 143 95 156
3 113 90 143
3 99 105 113
3 89 85 99
3 152 148 89
3 143 156 152
3 99 113 143
3 152 89 99
3 99 143 152
3 72 78 95
3 72 95 145
3 71 74 72
3 71 72 145
3 68 67 69
3 69 71 145
3 69 145 144
3 138 68 69
3 139 138 69
3 69 144 143
3 69 143 142
3 140 139 69
3 69 142 141
3 141 140 69
3 23 26 102
3 23 102 101
3 11 10 151
3 11 151 150
3 26 25 103
3 26 103 102
3 91 52 51
3 91 51 127
3 149 8 7
3 149 7 146
3 132 58 57
3 132 57 96
3 151 10 9
3 151 9 148
3 127 51 54
3 127 54 128
3 125 47 50
3 125 50 126
3 97 60 59
3 97 59 133
3 157 75 15
3 157 15 154
3 93 21 24
3 93 24 100
3 110 34 33
3 110 33 111
3 58 132 131
3 58 131 55
3 115 37 40
3 115 40 116
3 40 39 117
3 40 117 116
3 66 65 137
3 66 137 136
3 98 20 19
3 98 19 99
3 148 9 8
3 148 8 149
3 128 54 53
3 128 53 129
3 117 39 42
3 117 42 118
3 130 56 55
3 130 55 131
3 7 6 147
3 7 147 146
3 100 24 23
3 100 23 101
3 45 48 124
3 45 124 123
3 46 45 123
3 46 123 122
3 43 46 122
3 43 122 121
3 44 43 121
3 44 121 120
3 118 42 41
3 41 44 120
3 119 118 41
3 120 119 41
3 13 12 11
3 11 150 153
3 11 153 152
3 13 11 152
3 155 154 15
3 13 152 155
3 13 155 15
3 99 19 22
3 99 22 92
3 31 34 110
3 31 110 109
3 32 31 109
3 32 109 108
3 29 32 108
3 29 108 107
3 30 29 107
3 30 107 106
3 27 30 106
3 27 106 105
3 103 25 28
3 28 27 105
3 104 103 28
3 105 104 28
3 129 53 56
3 129 56 130
3 126 50 49
3 126 49 90
3 63 66 136
3 63 136 135
3 80 61 64
3 64 63 135
3 134 80 64
3 135 134 64
3 137 65 68
3 137 68 138
3 81 17 20
3 81 20 98
3 133 59 62
3 133 62 79
3 156 76 75
3 156 75 157
3 6 5 89
3 6 89 147
3 94 77 76
3 94 76 156
3 124 48 47
3 124 47 125
3 38 37 115
3 38 115 114
3 35 38 114
3 35 114 113
3 111 33 36
3 36 35 113
3 112 111 36
3 113 112 36
