ply
format ascii 1.0
comment Created by Blender 3.6.8 - www.blender.org
element vertex 120
property float x
property float y
property float z
element face 234
property list uchar uint vertex_indices
end_header
0.000291 0.000148 0.150000
0.000291 0.000148 0.000000
0.000514 0.000099 0.000000
0.000514 0.000099 0.150000
0.008003 0.003911 0.150000
0.007983 0.004057 0.150000
0.007949 0.004191 0.150000
0.007897 0.004316 0.150000
0.007824 0.004434 0.150000
0.007726 0.004546 0.150000
0.007601 0.004654 0.150000
0.007413 0.004749 0.150000
0.007141 0.004825 0.150000
0.006806 0.004884 0.150000
0.002813 0.005021 0.150000
0.002285 0.004698 0.150000
0.002175 0.004600 0.150000
0.002030 0.004461 0.150000
0.001860 0.004291 0.150000
0.001673 0.004098 0.150000
0.001480 0.003893 0.150000
0.001288 0.003685 0.150000
0.001108 0.003483 0.150000
0.000948 0.003298 0.150000
0.000817 0.003137 0.150000
0.000725 0.003012 0.150000
0.000680 0.002931 0.150000
0.000084 0.001446 0.150000
0.000007 0.001143 0.150000
0.000001 0.001039 0.150000
0.000036 0.000525 0.150000
0.000067 0.000377 0.150000
0.000092 0.000313 0.150000
0.000125 0.000258 0.150000
0.000166 0.000211 0.150000
0.000218 0.000176 0.150000
0.000979 0.000046 0.150000
0.001661 0.000013 0.150000
0.003821 0.000056 0.150000
0.004568 0.000004 0.150000
0.004813 0.000002 0.150000
0.005761 0.000115 0.150000
0.008012 0.003582 0.150000
0.008011 0.003754 0.150000
0.008004 0.003191 0.150000
0.008009 0.003395 0.150000
0.005961 0.000120 0.150000
0.006576 0.000077 0.150000
0.006702 0.000092 0.150000
0.008002 0.002969 0.150000
0.008006 0.002301 0.150000
0.008009 0.002494 0.150000
0.008005 0.002726 0.150000
0.007974 0.001998 0.150000
0.007995 0.002138 0.150000
0.007900 0.001753 0.150000
0.007943 0.001872 0.150000
0.007197 0.000507 0.150000
0.007845 0.001633 0.150000
0.006944 0.000212 0.150000
0.007068 0.000333 0.150000
0.006823 0.000134 0.150000
0.006806 0.004884 0.000000
0.002813 0.005021 0.000000
0.000948 0.003298 0.000000
0.000817 0.003137 0.000000
0.001108 0.003483 0.000000
0.001288 0.003685 0.000000
0.001480 0.003893 0.000000
0.001673 0.004098 0.000000
0.001860 0.004291 0.000000
0.002030 0.004461 0.000000
0.002285 0.004698 0.000000
0.002175 0.004600 0.000000
0.000680 0.002931 0.000000
0.000084 0.001446 0.000000
0.003821 0.000056 0.000000
0.004568 0.000004 0.000000
0.004813 0.000002 0.000000
0.000979 0.000046 0.000000
0.001661 0.000013 0.000000
0.000001 0.001039 0.000000
0.000036 0.000525 0.000000
0.000067 0.000377 0.000000
0.006702 0.000092 0.000000
0.006823 0.000134 0.000000
0.006944 0.000212 0.000000
0.007068 0.000333 0.000000
0.007197 0.000507 0.000000
0.007726 0.004546 0.000000
0.007601 0.004654 0.000000
0.007845 0.001633 0.000000
0.006576 0.000077 0.000000
0.007983 0.004057 0.000000
0.007949 0.004191 0.000000
0.000007 0.001143 0.000000
0.000218 0.000176 0.000000
0.000092 0.000313 0.000000
0.000125 0.000258 0.000000
0.008003 0.003911 0.000000
0.007974 0.001998 0.000000
0.007995 0.002138 0.000000
0.007141 0.004825 0.000000
0.007824 0.004434 0.000000
0.007897 0.004316 0.000000
0.000725 0.003012 0.000000
0.007413 0.004749 0.000000
0.008011 0.003754 0.000000
0.008012 0.003582 0.000000
0.008009 0.003395 0.000000
0.008004 0.003191 0.000000
0.000166 0.000211 0.000000
0.005761 0.000115 0.000000
0.008002 0.002969 0.000000
0.005961 0.000120 0.000000
0.008005 0.002726 0.000000
0.008009 0.002494 0.000000
0.008006 0.002301 0.000000
0.007943 0.001872 0.000000
0.007900 0.001753 0.000000
3 0 1 2
3 0 2 3
3 4 5 6
3 6 7 8
3 8 9 10
3 10 11 12
3 12 13 14
3 14 15 16
3 16 17 18
3 18 19 20
3 20 21 22
3 22 23 24
3 24 25 26
3 26 27 28
3 28 29 30
3 30 31 32
3 32 33 34
3 34 35 0
3 0 3 36
3 36 37 38
3 38 39 40
3 38 40 41
3 0 36 38
3 32 34 0
3 28 30 32
3 24 26 28
3 20 22 24
3 16 18 20
3 12 14 16
3 8 10 12
3 4 6 8
3 42 43 4
3 44 45 42
3 44 42 4
3 4 8 12
3 12 16 20
3 20 24 28
3 28 32 0
3 0 38 41
3 46 47 48
3 0 41 46
3 20 28 0
3 4 12 20
3 49 44 4
3 50 51 52
3 49 4 20
3 50 52 49
3 53 54 50
3 55 56 53
3 57 58 55
3 59 60 57
3 48 61 59
3 20 0 46
3 46 48 59
3 59 57 55
3 55 53 50
3 50 49 20
3 20 46 59
3 59 55 50
3 20 59 50
3 13 62 63
3 13 63 14
3 64 65 24
3 64 24 23
3 66 64 23
3 66 23 22
3 67 66 22
3 67 22 21
3 68 67 21
3 68 21 20
3 69 68 20
3 69 20 19
3 70 69 19
3 70 19 18
3 71 70 18
3 71 18 17
3 15 72 73
3 73 71 17
3 16 15 73
3 17 16 73
3 74 75 27
3 74 27 26
3 76 77 78
3 78 40 39
3 78 39 38
3 79 80 76
3 76 78 38
3 76 38 37
3 2 79 76
3 36 3 2
3 76 37 36
3 36 2 76
3 81 82 30
3 81 30 29
3 30 82 83
3 30 83 31
3 48 84 85
3 48 85 61
3 59 86 87
3 59 87 60
3 60 87 88
3 60 88 57
3 9 89 90
3 9 90 10
3 88 91 58
3 88 58 57
3 47 92 84
3 47 84 48
3 5 93 94
3 5 94 6
3 28 95 81
3 28 81 29
3 35 96 1
3 35 1 0
3 32 97 98
3 32 98 33
3 4 99 93
3 4 93 5
3 53 100 101
3 53 101 54
3 12 102 62
3 12 62 13
3 8 103 89
3 8 89 9
3 6 94 104
3 6 104 7
3 83 82 81
3 81 95 75
3 75 74 105
3 105 65 64
3 64 66 67
3 67 68 69
3 69 70 71
3 71 73 72
3 72 63 62
3 62 102 106
3 106 90 89
3 89 103 104
3 104 94 93
3 93 99 107
3 107 108 109
3 107 109 110
3 104 93 107
3 106 89 104
3 72 62 106
3 69 71 72
3 64 67 69
3 75 105 64
3 83 81 75
3 98 97 83
3 96 111 98
3 2 1 96
3 80 79 2
3 76 80 2
3 2 96 98
3 98 83 75
3 75 64 69
3 69 72 106
3 106 104 107
3 106 107 110
3 75 69 106
3 2 98 75
3 112 78 76
3 76 2 75
3 75 106 110
3 75 110 113
3 112 76 75
3 84 92 114
3 114 112 75
3 75 113 115
3 115 116 117
3 117 101 100
3 100 118 119
3 119 91 88
3 88 87 86
3 86 85 84
3 84 114 75
3 75 115 117
3 117 100 119
3 119 88 86
3 86 84 75
3 75 117 119
3 75 119 86
3 10 90 106
3 10 106 11
3 61 85 86
3 61 86 59
3 56 118 100
3 56 100 53
3 55 119 118
3 55 118 56
3 14 63 72
3 14 72 15
3 24 65 105
3 24 105 25
3 114 92 47
3 114 47 46
3 11 106 102
3 11 102 12
3 41 112 114
3 41 114 46
3 33 98 111
3 33 111 34
3 27 75 95
3 27 95 28
3 58 91 119
3 58 119 55
3 25 105 74
3 25 74 26
3 110 109 108
3 108 107 99
3 99 4 43
3 99 43 42
3 110 108 99
3 113 110 99
3 99 42 45
3 99 45 44
3 113 99 44
3 113 44 49
3 115 113 49
3 115 49 52
3 101 117 115
3 50 54 101
3 115 52 51
3 51 50 101
3 51 101 115
3 31 83 97
3 31 97 32
3 34 111 96
3 34 96 35
3 7 104 103
3 7 103 8
3 40 78 112
3 40 112 41
