ply
format ascii 1.0
comment Created by Blender 3.6.8 - www.blender.org
element vertex 202
property float x
property float y
property float z
element face 397
property list uchar uint vertex_indices
end_header
0.002296 0.000008 0.150000
0.002296 0.000008 0.000000
0.002389 0.000000 0.000000
0.002389 0.000000 0.150000
0.002108 0.000375 0.150000
0.002108 0.000375 0.000000
0.002125 0.000307 0.000000
0.002125 0.000307 0.150000
0.000203 0.004432 0.000000
0.000235 0.004340 0.000000
0.000235 0.004340 0.150000
0.000203 0.004432 0.150000
0.000173 0.004528 0.000000
0.000173 0.004528 0.150000
0.000121 0.004736 0.150000
0.000121 0.004736 0.000000
0.000146 0.004628 0.000000
0.000146 0.004628 0.150000
0.005321 0.007226 0.150000
0.005321 0.007226 0.000000
0.005075 0.007528 0.000000
0.005075 0.007528 0.150000
0.000892 0.007350 0.000000
0.000662 0.007158 0.000000
0.000662 0.007158 0.150000
0.000892 0.007350 0.150000
0.001573 0.001873 0.000000
0.001633 0.001763 0.000000
0.001633 0.001763 0.150000
0.001573 0.001873 0.150000
0.000918 0.002892 0.000000
0.001070 0.002644 0.000000
0.001509 0.001981 0.000000
0.001509 0.001981 0.150000
0.000791 0.003125 0.000000
0.000918 0.002892 0.150000
0.000791 0.003125 0.150000
0.001070 0.002644 0.150000
0.002231 0.000026 0.150000
0.002231 0.000026 0.000000
0.000096 0.004851 0.000000
0.000096 0.004851 0.150000
0.000073 0.004977 0.000000
0.000073 0.004977 0.150000
0.000007 0.005415 0.150000
0.000007 0.005415 0.000000
0.000026 0.005265 0.000000
0.000026 0.005265 0.150000
0.000462 0.006931 0.150000
0.000462 0.006931 0.000000
0.000383 0.006805 0.000000
0.000383 0.006805 0.150000
0.006072 0.005948 0.000000
0.006072 0.005948 0.150000
0.006262 0.003118 0.150000
0.006262 0.003118 0.000000
0.006308 0.003268 0.000000
0.006308 0.003268 0.150000
0.000742 0.003224 0.000000
0.000700 0.003316 0.000000
0.000663 0.003401 0.000000
0.000568 0.003635 0.000000
0.000535 0.003713 0.000000
0.000498 0.003794 0.000000
0.000456 0.003880 0.000000
0.000357 0.004068 0.000000
0.000312 0.004159 0.000000
0.000272 0.004249 0.000000
0.000003 0.005674 0.000000
0.000036 0.005896 0.000000
0.000098 0.006101 0.000000
0.000137 0.006204 0.000000
0.000180 0.006310 0.000000
0.000226 0.006421 0.000000
0.000274 0.006541 0.000000
0.000323 0.006672 0.000000
0.000557 0.007049 0.000000
0.001007 0.007432 0.000000
0.001118 0.007505 0.000000
0.001432 0.007689 0.000000
0.001803 0.007745 0.000000
0.002347 0.007819 0.000000
0.002666 0.007859 0.000000
0.002999 0.007896 0.000000
0.003331 0.007928 0.000000
0.003648 0.007951 0.000000
0.003938 0.007963 0.000000
0.004186 0.007960 0.000000
0.004378 0.007941 0.000000
0.004532 0.007900 0.000000
0.004678 0.007838 0.000000
0.004816 0.007755 0.000000
0.004948 0.007651 0.000000
0.006230 0.005560 0.000000
0.006303 0.005239 0.000000
0.006318 0.005090 0.000000
0.006323 0.004942 0.000000
0.006324 0.004452 0.000000
0.006365 0.003813 0.000000
0.006362 0.003612 0.000000
0.006342 0.003432 0.000000
0.006139 0.002850 0.000000
0.006068 0.002727 0.000000
0.005991 0.002607 0.000000
0.005832 0.002367 0.000000
0.005753 0.002241 0.000000
0.005673 0.002115 0.000000
0.005586 0.001991 0.000000
0.005492 0.001868 0.000000
0.005391 0.001745 0.000000
0.005168 0.001491 0.000000
0.004137 0.000396 0.000000
0.003992 0.000268 0.000000
0.003859 0.000173 0.000000
0.003737 0.000108 0.000000
0.003620 0.000066 0.000000
0.003506 0.000043 0.000000
0.002187 0.000054 0.000000
0.002161 0.000090 0.000000
0.002146 0.000135 0.000000
0.002011 0.000595 0.000000
0.001985 0.000672 0.000000
0.001962 0.000753 0.000000
0.001940 0.000836 0.000000
0.001919 0.000923 0.000000
0.001897 0.001014 0.000000
0.001780 0.001421 0.000000
0.001873 0.001108 0.000000
0.001816 0.001311 0.000000
0.001847 0.001207 0.000000
0.003506 0.000043 0.150000
0.003620 0.000066 0.150000
0.004678 0.007838 0.150000
0.004532 0.007900 0.150000
0.006230 0.005560 0.150000
0.006303 0.005239 0.150000
0.003737 0.000108 0.150000
0.003859 0.000173 0.150000
0.003992 0.000268 0.150000
0.004137 0.000396 0.150000
0.005168 0.001491 0.150000
0.005391 0.001745 0.150000
0.005492 0.001868 0.150000
0.005586 0.001991 0.150000
0.005673 0.002115 0.150000
0.005753 0.002241 0.150000
0.005832 0.002367 0.150000
0.005991 0.002607 0.150000
0.006068 0.002727 0.150000
0.006139 0.002850 0.150000
0.006342 0.003432 0.150000
0.006362 0.003612 0.150000
0.006365 0.003813 0.150000
0.006324 0.004452 0.150000
0.006323 0.004942 0.150000
0.006318 0.005090 0.150000
0.002187 0.000054 0.150000
0.002146 0.000135 0.150000
0.002161 0.000090 0.150000
0.004948 0.007651 0.150000
0.004816 0.007755 0.150000
0.004378 0.007941 0.150000
0.004186 0.007960 0.150000
0.003938 0.007963 0.150000
0.003648 0.007951 0.150000
0.003331 0.007928 0.150000
0.002999 0.007896 0.150000
0.002666 0.007859 0.150000
0.002347 0.007819 0.150000
0.001803 0.007745 0.150000
0.001432 0.007689 0.150000
0.001118 0.007505 0.150000
0.001007 0.007432 0.150000
0.000557 0.007049 0.150000
0.000323 0.006672 0.150000
0.000274 0.006541 0.150000
0.001985 0.000672 0.150000
0.002011 0.000595 0.150000
0.000226 0.006421 0.150000
0.000180 0.006310 0.150000
0.000137 0.006204 0.150000
0.001962 0.000753 0.150000
0.001919 0.000923 0.150000
0.001940 0.000836 0.150000
0.001897 0.001014 0.150000
0.000098 0.006101 0.150000
0.000036 0.005896 0.150000
0.000003 0.005674 0.150000
0.000272 0.004249 0.150000
0.000312 0.004159 0.150000
0.000357 0.004068 0.150000
0.000456 0.003880 0.150000
0.001873 0.001108 0.150000
0.001847 0.001207 0.150000
0.001816 0.001311 0.150000
0.000498 0.003794 0.150000
0.001780 0.001421 0.150000
0.000535 0.003713 0.150000
0.000568 0.003635 0.150000
0.000663 0.003401 0.150000
0.000700 0.003316 0.150000
0.000742 0.003224 0.150000
3 0 1 2
3 0 2 3
3 4 5 6
3 4 6 7
3 8 9 10
3 8 10 11
3 12 8 11
3 12 11 13
3 14 15 16
3 16 12 13
3 17 14 16
3 13 17 16
3 18 19 20
3 18 20 21
3 22 23 24
3 22 24 25
3 26 27 28
3 26 28 29
3 30 31 32
3 32 26 29
3 32 29 33
3 34 30 32
3 35 36 34
3 32 33 37
3 37 35 34
3 32 37 34
3 38 39 1
3 38 1 0
3 40 15 14
3 40 14 41
3 42 40 41
3 42 41 43
3 44 45 46
3 46 42 43
3 47 44 46
3 43 47 46
3 48 49 50
3 48 50 51
3 52 19 18
3 52 18 53
3 54 55 56
3 54 56 57
3 31 30 34
3 34 58 59
3 59 60 61
3 34 59 61
3 32 31 34
3 32 34 61
3 32 61 62
3 26 32 62
3 26 62 63
3 26 63 64
3 64 65 66
3 66 67 9
3 9 8 12
3 12 16 15
3 15 40 42
3 42 46 45
3 45 68 69
3 69 70 71
3 71 72 73
3 74 75 50
3 69 71 73
3 73 74 50
3 50 49 76
3 76 23 22
3 22 77 78
3 78 79 80
3 80 81 82
3 82 83 84
3 84 85 86
3 86 87 88
3 88 89 90
3 90 91 92
3 92 20 19
3 19 52 93
3 93 94 95
3 95 96 97
3 97 98 99
3 99 100 56
3 56 55 101
3 101 102 103
3 104 105 106
3 101 103 104
3 99 56 101
3 93 95 97
3 97 99 101
3 104 106 107
3 97 101 104
3 19 93 97
3 90 92 19
3 86 88 90
3 82 84 86
3 78 80 82
3 76 22 78
3 73 50 76
3 45 69 73
3 15 42 45
3 9 12 15
3 64 66 9
3 26 64 9
3 9 15 45
3 45 73 76
3 76 78 82
3 82 86 90
3 90 19 97
3 97 104 107
3 107 108 109
3 109 110 111
3 111 112 113
3 113 114 115
3 115 116 2
3 2 1 39
3 39 117 118
3 118 119 6
3 5 120 121
3 39 118 6
3 5 121 122
3 39 6 5
3 115 2 39
3 111 113 115
3 107 109 111
3 90 97 107
3 76 82 90
3 9 45 76
3 27 26 9
3 27 9 76
3 76 90 107
3 107 111 115
3 115 39 5
3 5 122 123
3 123 124 125
3 5 123 125
3 107 115 5
3 27 76 107
3 126 27 107
3 107 5 125
3 107 125 127
3 128 126 107
3 107 127 129
3 107 129 128
3 130 116 115
3 130 115 131
3 132 90 89
3 132 89 133
3 93 134 135
3 93 135 94
3 0 3 130
3 130 131 136
3 136 137 138
3 138 139 140
3 140 141 142
3 142 143 144
3 144 145 146
3 146 147 148
3 148 149 54
3 54 57 150
3 150 151 152
3 153 154 155
3 150 152 153
3 148 54 150
3 142 144 146
3 146 148 150
3 153 155 135
3 146 150 153
3 140 142 146
3 136 138 140
3 0 130 136
3 156 38 0
3 157 158 156
3 7 157 156
3 156 0 136
3 136 140 146
3 146 153 135
3 135 134 53
3 53 18 21
3 21 159 160
3 160 132 133
3 133 161 162
3 162 163 164
3 164 165 166
3 166 167 168
3 168 169 170
3 170 171 172
3 172 25 24
3 24 173 48
3 48 51 174
3 48 174 175
3 172 24 48
3 168 170 172
3 164 166 168
3 133 162 164
3 21 160 133
3 135 53 21
3 136 146 135
3 7 156 136
3 176 177 4
3 4 7 136
3 136 135 21
3 21 133 164
3 164 168 172
3 172 48 175
3 178 179 180
3 172 175 178
3 21 164 172
3 4 136 21
3 181 176 4
3 182 183 181
3 184 182 181
3 181 4 21
3 21 172 178
3 178 180 185
3 185 186 187
3 187 44 47
3 47 43 41
3 41 14 17
3 17 13 11
3 11 10 188
3 188 189 190
3 188 190 191
3 17 11 188
3 47 41 17
3 185 187 47
3 21 178 185
3 184 181 21
3 192 184 21
3 21 185 47
3 47 17 188
3 47 188 191
3 193 192 21
3 194 193 21
3 21 47 191
3 21 191 195
3 196 194 21
3 28 196 21
3 21 195 197
3 198 199 200
3 21 197 198
3 29 28 21
3 35 37 33
3 33 29 21
3 21 198 200
3 200 201 36
3 36 35 33
3 33 21 200
3 200 36 33
3 157 119 118
3 157 118 158
3 77 22 25
3 77 25 172
3 170 79 78
3 78 77 172
3 171 170 78
3 172 171 78
3 57 56 100
3 57 100 150
3 80 79 170
3 80 170 169
3 84 82 80
3 164 163 86
3 165 164 86
3 86 84 80
3 80 169 168
3 80 168 167
3 165 86 80
3 80 167 166
3 80 166 165
3 101 55 54
3 101 54 149
3 58 34 36
3 58 36 201
3 59 58 201
3 59 201 200
3 62 61 60
3 60 59 200
3 60 200 199
3 63 62 60
3 65 64 63
3 65 63 60
3 60 199 198
3 60 198 197
3 66 65 60
3 10 9 67
3 66 60 197
3 10 67 66
3 188 10 66
3 66 197 195
3 66 195 191
3 189 188 66
3 66 191 190
3 190 189 66
3 21 20 92
3 21 92 159
3 6 119 157
3 6 157 7
3 120 5 4
3 120 4 177
3 105 104 103
3 102 101 149
3 106 105 103
3 103 102 149
3 103 149 148
3 143 107 106
3 106 103 148
3 106 148 147
3 144 143 106
3 145 144 106
3 106 147 146
3 146 145 106
3 150 100 99
3 150 99 151
3 68 187 186
3 68 186 69
3 158 118 117
3 158 117 156
3 95 94 135
3 95 135 155
3 96 95 155
3 96 155 154
3 97 96 154
3 97 154 153
3 151 99 98
3 98 97 153
3 152 151 98
3 153 152 98
3 138 112 111
3 138 111 139
3 156 117 39
3 156 39 38
3 108 107 143
3 108 143 142
3 109 108 142
3 109 142 141
3 139 111 110
3 110 109 141
3 140 139 110
3 141 140 110
3 160 91 90
3 160 90 132
3 133 89 88
3 133 88 161
3 70 69 186
3 70 186 185
3 162 87 86
3 162 86 163
3 137 113 112
3 137 112 138
3 173 76 49
3 173 49 48
3 71 70 185
3 71 185 180
3 72 71 180
3 72 180 179
3 73 72 179
3 73 179 178
3 74 73 178
3 74 178 175
3 51 50 75
3 75 74 175
3 174 51 75
3 175 174 75
3 24 23 76
3 24 76 173
3 134 93 52
3 134 52 53
3 2 116 130
3 2 130 3
3 68 45 44
3 68 44 187
3 136 114 113
3 136 113 137
3 159 92 91
3 159 91 160
3 27 126 196
3 27 196 28
3 161 88 87
3 161 87 162
3 121 120 177
3 121 177 176
3 122 121 176
3 122 176 181
3 123 122 181
3 123 181 183
3 124 123 183
3 124 183 182
3 125 124 182
3 125 182 184
3 127 125 184
3 127 184 192
3 129 127 192
3 129 192 193
3 196 126 128
3 128 129 193
3 194 196 128
3 193 194 128
3 131 115 114
3 131 114 136
