ply
format ascii 1.0
comment Created by Blender 3.6.8 - www.blender.org
element vertex 126
property float x
property float y
property float z
element face 247
property list uchar uint vertex_indices
end_header
0.004649 0.002199 0.000000
0.004477 0.001874 0.000000
0.004365 0.001720 0.000000
0.004306 0.001655 0.000000
0.003930 0.001283 0.000000
0.003601 0.000907 0.000000
0.003486 0.000796 0.000000
0.003368 0.000702 0.000000
0.003246 0.000623 0.000000
0.003114 0.000556 0.000000
0.002808 0.000442 0.000000
0.001159 0.000019 0.000000
0.001013 0.000001 0.000000
0.000915 0.000006 0.000000
0.000856 0.000031 0.000000
0.000825 0.000075 0.000000
0.000813 0.000136 0.000000
0.000804 0.000295 0.000000
0.000786 0.000390 0.000000
0.004954 0.002676 0.000000
0.004920 0.002598 0.000000
0.004989 0.002867 0.000000
0.004978 0.002764 0.000000
0.004963 0.003138 0.000000
0.004985 0.002991 0.000000
0.004707 0.004281 0.000000
0.004742 0.004145 0.000000
0.004877 0.003503 0.000000
0.000746 0.000491 0.000000
0.000454 0.000901 0.000000
0.000353 0.001096 0.000000
0.004666 0.004407 0.000000
0.004554 0.004635 0.000000
0.004616 0.004525 0.000000
0.004383 0.004830 0.000000
0.004477 0.004736 0.000000
0.003999 0.005085 0.000000
0.004269 0.004917 0.000000
0.003699 0.005243 0.000000
0.003852 0.005166 0.000000
0.003068 0.005460 0.000000
0.003384 0.005374 0.000000
0.002767 0.005485 0.000000
0.002915 0.005482 0.000000
0.002494 0.005430 0.000000
0.002626 0.005469 0.000000
0.001952 0.005120 0.000000
0.002228 0.005298 0.000000
0.001476 0.004753 0.000000
0.001693 0.004928 0.000000
0.000562 0.004132 0.000000
0.000659 0.004210 0.000000
0.001272 0.004576 0.000000
0.000273 0.001305 0.000000
0.000032 0.002167 0.000000
0.000008 0.002318 0.000000
0.000000 0.002457 0.000000
0.000005 0.002586 0.000000
0.000020 0.002707 0.000000
0.000274 0.003712 0.000000
0.000326 0.003837 0.000000
0.000393 0.003948 0.000000
0.000472 0.004046 0.000000
0.003699 0.005243 0.150000
0.003384 0.005374 0.150000
0.000274 0.003712 0.150000
0.000020 0.002707 0.150000
0.002228 0.005298 0.150000
0.001952 0.005120 0.150000
0.001272 0.004576 0.150000
0.001476 0.004753 0.150000
0.001693 0.004928 0.150000
0.000856 0.000031 0.150000
0.000915 0.000006 0.150000
0.004954 0.002676 0.150000
0.004978 0.002764 0.150000
0.000326 0.003837 0.150000
0.000659 0.004210 0.150000
0.004920 0.002598 0.150000
0.004649 0.002199 0.150000
0.002808 0.000442 0.150000
0.001159 0.000019 0.150000
0.000008 0.002318 0.150000
0.000032 0.002167 0.150000
0.004707 0.004281 0.150000
0.004742 0.004145 0.150000
0.004877 0.003503 0.150000
0.004963 0.003138 0.150000
0.004985 0.002991 0.150000
0.004383 0.004830 0.150000
0.004269 0.004917 0.150000
0.002915 0.005482 0.150000
0.002767 0.005485 0.150000
0.004365 0.001720 0.150000
0.004306 0.001655 0.150000
0.003930 0.001283 0.150000
0.003486 0.000796 0.150000
0.003601 0.000907 0.150000
0.004477 0.001874 0.150000
0.001013 0.000001 0.150000
0.003068 0.005460 0.150000
0.004989 0.002867 0.150000
0.003114 0.000556 0.150000
0.003246 0.000623 0.150000
0.004666 0.004407 0.150000
0.000472 0.004046 0.150000
0.000393 0.003948 0.150000
0.000273 0.001305 0.150000
0.002626 0.005469 0.150000
0.002494 0.005430 0.150000
0.003368 0.000702 0.150000
0.000353 0.001096 0.150000
0.000562 0.004132 0.150000
0.003999 0.005085 0.150000
0.003852 0.005166 0.150000
0.004554 0.004635 0.150000
0.004477 0.004736 0.150000
0.004616 0.004525 0.150000
0.000005 0.002586 0.150000
0.000000 0.002457 0.150000
0.000454 0.000901 0.150000
0.000746 0.000491 0.150000
0.000825 0.000075 0.150000
0.000804 0.000295 0.150000
0.000813 0.000136 0.150000
0.000786 0.000390 0.150000
3 0 1 2
3 2 3 4
3 4 5 6
3 6 7 8
3 8 9 10
3 10 11 12
3 12 13 14
3 14 15 16
3 14 16 17
3 10 12 14
3 6 8 10
3 0 2 4
3 4 6 10
3 10 14 17
3 10 17 18
3 0 4 10
3 19 20 0
3 21 22 19
3 23 24 21
3 25 26 27
3 27 23 21
3 21 19 0
3 0 10 18
3 28 29 30
3 0 18 28
3 27 21 0
3 31 25 27
3 32 33 31
3 34 35 32
3 36 37 34
3 38 39 36
3 40 41 38
3 42 43 40
3 44 45 42
3 46 47 44
3 48 49 46
3 50 51 52
3 52 48 46
3 46 44 42
3 42 40 38
3 38 36 34
3 34 32 31
3 31 27 0
3 0 28 30
3 30 53 54
3 54 55 56
3 56 57 58
3 58 59 60
3 60 61 62
3 62 50 52
3 52 46 42
3 42 38 34
3 34 31 0
3 0 30 54
3 54 56 58
3 58 60 62
3 62 52 42
3 42 34 0
3 0 54 58
3 58 62 42
3 0 58 42
3 63 38 41
3 63 41 64
3 65 59 58
3 65 58 66
3 67 47 46
3 67 46 68
3 48 52 69
3 48 69 70
3 68 46 49
3 49 48 70
3 71 68 49
3 70 71 49
3 72 14 13
3 72 13 73
3 74 19 22
3 74 22 75
3 76 60 59
3 76 59 65
3 52 51 77
3 52 77 69
3 0 20 78
3 0 78 79
3 10 80 81
3 10 81 11
3 82 55 54
3 82 54 83
3 25 84 85
3 25 85 86
3 24 23 27
3 27 25 86
3 87 88 24
3 27 86 87
3 27 87 24
3 89 34 37
3 89 37 90
3 91 43 42
3 91 42 92
3 3 2 93
3 3 93 94
3 4 3 94
3 4 94 95
3 96 6 5
3 5 4 95
3 97 96 5
3 95 97 5
3 0 79 98
3 0 98 1
3 99 12 11
3 99 11 81
3 100 40 43
3 100 43 91
3 101 21 24
3 101 24 88
3 102 9 8
3 102 8 103
3 84 25 31
3 84 31 104
3 105 62 61
3 105 61 106
3 73 13 12
3 73 12 99
3 54 53 107
3 54 107 83
3 108 45 44
3 108 44 109
3 92 42 45
3 92 45 108
3 103 8 7
3 103 7 110
3 30 111 107
3 30 107 53
3 77 51 50
3 77 50 112
3 63 64 100
3 100 91 92
3 92 108 109
3 109 67 68
3 68 71 70
3 69 77 112
3 68 70 69
3 92 109 68
3 63 100 92
3 113 114 63
3 89 90 113
3 115 116 89
3 104 117 115
3 85 84 104
3 88 87 86
3 86 85 104
3 104 115 89
3 89 113 63
3 63 92 68
3 69 112 105
3 63 68 69
3 104 89 63
3 88 86 104
3 75 101 88
3 78 74 75
3 93 98 79
3 79 78 75
3 75 88 104
3 104 63 69
3 69 105 106
3 106 76 65
3 65 66 118
3 118 119 82
3 82 83 107
3 107 111 120
3 107 120 121
3 118 82 107
3 106 65 118
3 104 69 106
3 79 75 104
3 94 93 79
3 96 97 95
3 95 94 79
3 79 104 106
3 106 118 107
3 106 107 121
3 95 79 106
3 110 96 95
3 102 103 110
3 81 80 102
3 73 99 81
3 122 72 73
3 123 124 122
3 106 121 125
3 123 122 73
3 106 125 123
3 110 95 106
3 81 102 110
3 123 73 81
3 110 106 123
3 123 81 110
3 115 32 35
3 115 35 116
3 29 28 121
3 29 121 120
3 1 98 93
3 1 93 2
3 124 16 15
3 124 15 122
3 123 17 16
3 123 16 124
3 44 47 67
3 44 67 109
3 39 38 63
3 39 63 114
3 90 37 36
3 36 39 114
3 113 90 36
3 36 114 113
3 111 30 29
3 111 29 120
3 104 31 33
3 104 33 117
3 75 22 21
3 75 21 101
3 125 18 17
3 125 17 123
3 78 20 19
3 78 19 74
3 9 102 80
3 9 80 10
3 117 33 32
3 117 32 115
3 110 7 6
3 110 6 96
3 106 61 60
3 106 60 76
3 112 50 62
3 112 62 105
3 118 57 56
3 118 56 119
3 122 15 14
3 122 14 72
3 116 35 34
3 116 34 89
3 66 58 57
3 66 57 118
3 121 28 18
3 121 18 125
3 119 56 55
3 119 55 82
3 41 40 100
3 41 100 64
