ply
format ascii 1.0
comment Created by Blender 3.6.8 - www.blender.org
element vertex 164
property float x
property float y
property float z
element face 323
property list uchar uint vertex_indices
end_header
0.003996 0.003589 0.000000
0.004219 0.003416 0.000000
0.004219 0.003416 0.150000
0.003996 0.003589 0.150000
0.005912 0.000755 0.000000
0.005912 0.000755 0.150000
0.005664 0.000966 0.150000
0.005664 0.000966 0.000000
0.005581 0.001059 0.150000
0.005581 0.001059 0.000000
0.009295 0.003222 0.150000
0.009295 0.003222 0.000000
0.009277 0.003382 0.000000
0.009277 0.003382 0.150000
0.000078 0.006324 0.150000
0.000078 0.006324 0.000000
0.000111 0.006210 0.000000
0.000111 0.006210 0.150000
0.008914 0.004142 0.000000
0.008914 0.004142 0.150000
0.009077 0.003904 0.150000
0.009077 0.003904 0.000000
0.004853 0.007825 0.000000
0.004406 0.008070 0.000000
0.004406 0.008070 0.150000
0.004853 0.007825 0.150000
0.005240 0.007586 0.000000
0.005240 0.007586 0.150000
0.005509 0.007398 0.150000
0.005509 0.007398 0.000000
0.005393 0.007483 0.000000
0.005393 0.007483 0.150000
0.008350 0.004728 0.000000
0.008350 0.004728 0.150000
0.008729 0.004361 0.150000
0.008729 0.004361 0.000000
0.008857 0.000584 0.150000
0.008857 0.000584 0.000000
0.008982 0.000677 0.000000
0.008982 0.000677 0.150000
0.003555 0.008409 0.150000
0.003555 0.008409 0.000000
0.003394 0.008431 0.000000
0.003394 0.008431 0.150000
0.005582 0.007336 0.150000
0.005582 0.007336 0.000000
0.000041 0.007791 0.000000
0.000063 0.007838 0.000000
0.000090 0.007884 0.000000
0.000122 0.007933 0.000000
0.000195 0.008035 0.000000
0.000408 0.008301 0.000000
0.000499 0.008343 0.000000
0.003744 0.008357 0.000000
0.003954 0.008279 0.000000
0.004177 0.008182 0.000000
0.005647 0.007262 0.000000
0.006750 0.005813 0.000000
0.000006 0.007611 0.000000
0.000025 0.007738 0.000000
0.000034 0.006583 0.000000
0.000200 0.006000 0.000000
0.000778 0.005170 0.000000
0.000682 0.005265 0.000000
0.001117 0.004950 0.000000
0.000883 0.005087 0.000000
0.001655 0.004718 0.000000
0.001245 0.004890 0.000000
0.001797 0.004654 0.000000
0.006872 0.005668 0.000000
0.001940 0.004583 0.000000
0.002381 0.004338 0.000000
0.002230 0.004418 0.000000
0.002693 0.004188 0.000000
0.002536 0.004261 0.000000
0.003568 0.003816 0.000000
0.002850 0.004118 0.000000
0.006971 0.005562 0.000000
0.007040 0.005506 0.000000
0.008025 0.004966 0.000000
0.003685 0.003764 0.000000
0.009203 0.003649 0.000000
0.009247 0.003517 0.000000
0.009305 0.003021 0.000000
0.009307 0.002788 0.000000
0.009303 0.002533 0.000000
0.009273 0.001991 0.000000
0.009250 0.001723 0.000000
0.009221 0.001467 0.000000
0.009148 0.001034 0.000000
0.009105 0.000874 0.000000
0.009058 0.000764 0.000000
0.008692 0.000488 0.000000
0.008283 0.000300 0.000000
0.007831 0.000138 0.000000
0.007413 0.000030 0.000000
0.007240 0.000004 0.000000
0.007104 0.000002 0.000000
0.007015 0.000026 0.000000
0.005532 0.001139 0.000000
0.005182 0.002160 0.000000
0.003789 0.003714 0.000000
0.005007 0.002520 0.000000
0.004853 0.002748 0.000000
0.004662 0.002982 0.000000
0.009247 0.003517 0.150000
0.009203 0.003649 0.150000
0.003744 0.008357 0.150000
0.008692 0.000488 0.150000
0.007015 0.000026 0.150000
0.008283 0.000300 0.150000
0.007831 0.000138 0.150000
0.009058 0.000764 0.150000
0.009105 0.000874 0.150000
0.003789 0.003714 0.150000
0.003685 0.003764 0.150000
0.003568 0.003816 0.150000
0.002850 0.004118 0.150000
0.002693 0.004188 0.150000
0.002536 0.004261 0.150000
0.002381 0.004338 0.150000
0.001117 0.004950 0.150000
0.002230 0.004418 0.150000
0.001940 0.004583 0.150000
0.001245 0.004890 0.150000
0.001797 0.004654 0.150000
0.001655 0.004718 0.150000
0.000778 0.005170 0.150000
0.000883 0.005087 0.150000
0.000006 0.007611 0.150000
0.000025 0.007738 0.150000
0.009221 0.001467 0.150000
0.009148 0.001034 0.150000
0.000034 0.006583 0.150000
0.004662 0.002982 0.150000
0.000499 0.008343 0.150000
0.005532 0.001139 0.150000
0.005182 0.002160 0.150000
0.000063 0.007838 0.150000
0.000041 0.007791 0.150000
0.005007 0.002520 0.150000
0.004853 0.002748 0.150000
0.009305 0.003021 0.150000
0.009303 0.002533 0.150000
0.009307 0.002788 0.150000
0.003954 0.008279 0.150000
0.004177 0.008182 0.150000
0.008025 0.004966 0.150000
0.007040 0.005506 0.150000
0.006971 0.005562 0.150000
0.007240 0.000004 0.150000
0.007413 0.000030 0.150000
0.000090 0.007884 0.150000
0.000200 0.006000 0.150000
0.000682 0.005265 0.150000
0.007104 0.000002 0.150000
0.000408 0.008301 0.150000
0.006872 0.005668 0.150000
0.005647 0.007262 0.150000
0.006750 0.005813 0.150000
0.009250 0.001723 0.150000
0.009273 0.001991 0.150000
0.000122 0.007933 0.150000
0.000195 0.008035 0.150000
3 0 1 2
3 0 2 3
3 4 5 6
3 4 6 7
3 8 9 7
3 8 7 6
3 10 11 12
3 10 12 13
3 14 15 16
3 14 16 17
3 18 19 20
3 18 20 21
3 22 23 24
3 22 24 25
3 26 22 25
3 26 25 27
3 28 29 30
3 30 26 27
3 31 28 30
3 27 31 30
3 32 33 34
3 32 34 35
3 36 37 38
3 36 38 39
3 40 41 42
3 40 42 43
3 44 45 29
3 44 29 28
3 46 47 48
3 48 49 50
3 50 51 52
3 52 42 41
3 41 53 54
3 54 55 23
3 23 22 26
3 26 30 29
3 29 45 56
3 29 56 57
3 23 26 29
3 41 54 23
3 50 52 41
3 46 48 50
3 58 59 46
3 15 60 58
3 61 16 15
3 62 63 61
3 64 65 62
3 66 67 64
3 66 64 62
3 62 61 15
3 15 58 46
3 46 50 41
3 41 23 29
3 41 29 57
3 15 46 41
3 66 62 15
3 68 66 15
3 15 41 57
3 15 57 69
3 70 68 15
3 71 72 70
3 73 74 71
3 75 76 73
3 75 73 71
3 71 70 15
3 15 69 77
3 78 79 32
3 15 77 78
3 75 71 15
3 80 75 15
3 15 78 32
3 32 35 18
3 18 21 81
3 81 82 12
3 12 11 83
3 83 84 85
3 85 86 87
3 87 88 89
3 89 90 91
3 91 38 37
3 37 92 93
3 93 94 95
3 95 96 97
3 97 98 4
3 4 7 9
3 9 99 100
3 4 9 100
3 95 97 4
3 37 93 95
3 89 91 37
3 85 87 89
3 12 83 85
3 18 81 12
3 15 32 18
3 101 80 15
3 0 101 15
3 15 18 12
3 12 85 89
3 89 37 95
3 95 4 100
3 95 100 102
3 12 89 95
3 0 15 12
3 1 0 12
3 12 95 102
3 12 102 103
3 104 1 12
3 12 103 104
3 105 82 81
3 105 81 106
3 107 53 41
3 107 41 40
3 108 92 37
3 108 37 36
3 4 98 109
3 4 109 5
3 93 110 111
3 93 111 94
3 112 91 90
3 112 90 113
3 76 75 80
3 80 101 114
3 80 114 115
3 76 80 115
3 76 115 116
3 73 76 116
3 73 116 117
3 74 73 117
3 74 117 118
3 71 74 118
3 71 118 119
3 68 70 72
3 72 71 119
3 72 119 120
3 66 68 72
3 121 64 67
3 67 66 72
3 72 120 122
3 72 122 123
3 121 67 72
3 124 121 72
3 72 123 125
3 126 124 72
3 125 126 72
3 127 62 65
3 127 65 128
3 58 129 130
3 58 130 59
3 88 131 132
3 88 132 89
3 60 133 129
3 60 129 58
3 104 134 2
3 104 2 1
3 52 135 43
3 52 43 42
3 113 90 89
3 113 89 132
3 39 38 91
3 39 91 112
3 100 99 136
3 100 136 137
3 138 47 46
3 138 46 139
3 102 140 141
3 102 141 103
3 83 11 10
3 83 10 142
3 143 85 84
3 84 83 142
3 144 143 84
3 84 142 144
3 54 53 107
3 54 107 145
3 24 23 54
3 54 145 146
3 54 146 24
3 79 147 33
3 79 33 32
3 148 78 77
3 148 77 149
3 0 3 114
3 0 114 101
3 150 96 95
3 150 95 151
3 13 12 82
3 13 82 105
3 152 48 47
3 152 47 138
3 21 20 106
3 21 106 81
3 61 153 17
3 61 17 16
3 134 104 103
3 134 103 141
3 154 63 62
3 154 62 127
3 100 137 140
3 100 140 102
3 136 99 9
3 136 9 8
3 61 63 154
3 61 154 153
3 109 98 97
3 109 97 155
3 52 51 156
3 52 156 135
3 149 77 69
3 149 69 157
3 35 34 19
3 35 19 18
3 56 45 44
3 56 44 158
3 69 57 56
3 159 157 69
3 56 158 159
3 56 159 69
3 128 65 64
3 128 64 121
3 160 131 88
3 160 88 87
3 85 143 161
3 161 160 87
3 86 85 161
3 87 86 161
3 110 93 92
3 110 92 108
3 139 46 59
3 139 59 130
3 95 94 111
3 95 111 151
3 49 48 152
3 49 152 162
3 156 51 50
3 50 49 162
3 163 156 50
3 162 163 50
3 155 97 96
3 155 96 150
3 79 78 148
3 79 148 147
3 137 136 8
3 8 6 5
3 5 109 155
3 155 150 151
3 151 111 110
3 110 108 36
3 36 39 112
3 112 113 132
3 132 131 160
3 160 161 143
3 143 144 142
3 142 10 13
3 13 105 106
3 106 20 19
3 19 34 33
3 33 147 148
3 19 33 148
3 13 106 19
3 143 142 13
3 132 160 143
3 36 112 132
3 151 110 36
3 5 155 151
3 137 8 5
3 140 137 5
3 5 151 36
3 36 132 143
3 143 13 19
3 143 19 148
3 5 36 143
3 140 5 143
3 143 148 149
3 143 149 157
3 141 140 143
3 134 141 143
3 143 157 159
3 159 158 44
3 44 28 31
3 31 27 25
3 25 24 146
3 146 145 107
3 107 40 43
3 43 135 156
3 156 163 162
3 162 152 138
3 138 139 130
3 130 129 133
3 133 14 17
3 17 153 154
3 154 127 128
3 128 121 124
3 128 124 126
3 17 154 128
3 130 133 17
3 162 138 130
3 43 156 162
3 146 107 43
3 31 25 146
3 159 44 31
3 134 143 159
3 2 134 159
3 159 31 146
3 146 43 162
3 162 130 17
3 17 128 126
3 17 126 125
3 146 162 17
3 2 159 146
3 3 2 146
3 146 17 125
3 123 122 120
3 146 125 123
3 114 3 146
3 115 114 146
3 146 123 120
3 120 119 118
3 118 117 116
3 116 115 146
3 146 120 118
3 146 118 116
3 15 14 133
3 15 133 60
