ply
format ascii 1.0
comment Created by Blender 3.6.8 - www.blender.org
element vertex 154
property float x
property float y
property float z
element face 301
property list uchar uint vertex_indices
end_header
0.004747 0.009174 0.150000
0.004747 0.009174 0.000000
0.004584 0.009160 0.000000
0.004584 0.009160 0.150000
0.005275 0.000114 0.150000
0.005275 0.000114 0.000000
0.005556 0.000182 0.000000
0.005556 0.000182 0.150000
0.000197 0.001652 0.150000
0.000197 0.001652 0.000000
0.000307 0.001442 0.000000
0.000307 0.001442 0.150000
0.008204 0.005557 0.000000
0.008029 0.006050 0.000000
0.008029 0.006050 0.150000
0.008204 0.005557 0.150000
0.007320 0.000936 0.150000
0.007320 0.000936 0.000000
0.007643 0.001157 0.000000
0.007643 0.001157 0.150000
0.000115 0.001922 0.150000
0.000115 0.001922 0.000000
0.004651 0.000029 0.000000
0.004651 0.000029 0.150000
0.003989 0.000000 0.150000
0.003989 0.000000 0.000000
0.006931 0.000736 0.000000
0.006931 0.000736 0.150000
0.001550 0.007642 0.000000
0.001743 0.007850 0.000000
0.001947 0.008049 0.000000
0.002359 0.008412 0.000000
0.002474 0.008493 0.000000
0.002779 0.008641 0.000000
0.005114 0.009153 0.000000
0.005511 0.009077 0.000000
0.005908 0.008956 0.000000
0.006275 0.008802 0.000000
0.006581 0.008626 0.000000
0.006708 0.008527 0.000000
0.006824 0.008411 0.000000
0.007032 0.008133 0.000000
0.007127 0.007973 0.000000
0.007219 0.007800 0.000000
0.007310 0.007615 0.000000
0.007700 0.006768 0.000000
0.007814 0.006534 0.000000
0.007927 0.006294 0.000000
0.001298 0.007322 0.000000
0.001376 0.007429 0.000000
0.001148 0.007086 0.000000
0.001227 0.007213 0.000000
0.001045 0.006925 0.000000
0.008343 0.005067 0.000000
0.008451 0.004592 0.000000
0.008597 0.003731 0.000000
0.008613 0.003535 0.000000
0.008607 0.003338 0.000000
0.008542 0.002947 0.000000
0.008423 0.002564 0.000000
0.008351 0.002379 0.000000
0.008273 0.002198 0.000000
0.008193 0.002024 0.000000
0.007964 0.001547 0.000000
0.007882 0.001408 0.000000
0.007774 0.001278 0.000000
0.003660 0.000003 0.000000
0.003343 0.000015 0.000000
0.003043 0.000034 0.000000
0.002768 0.000059 0.000000
0.002321 0.000121 0.000000
0.001953 0.000216 0.000000
0.001586 0.000366 0.000000
0.001229 0.000567 0.000000
0.000892 0.000815 0.000000
0.000581 0.001108 0.000000
0.000059 0.002239 0.000000
0.000023 0.002593 0.000000
0.000005 0.002972 0.000000
0.000000 0.003364 0.000000
0.000004 0.003758 0.000000
0.000031 0.004831 0.000000
0.000032 0.005115 0.000000
0.000022 0.005341 0.000000
0.000173 0.005573 0.000000
0.000275 0.005731 0.000000
0.000927 0.006739 0.000000
0.000394 0.005914 0.000000
0.000796 0.006536 0.000000
0.000525 0.006115 0.000000
0.000661 0.006325 0.000000
0.008423 0.002564 0.150000
0.008351 0.002379 0.150000
0.008193 0.002024 0.150000
0.007964 0.001547 0.150000
0.008273 0.002198 0.150000
0.006824 0.008411 0.150000
0.007032 0.008133 0.150000
0.000022 0.005341 0.150000
0.000173 0.005573 0.150000
0.000275 0.005731 0.150000
0.001376 0.007429 0.150000
0.001298 0.007322 0.150000
0.000394 0.005914 0.150000
0.000525 0.006115 0.150000
0.001227 0.007213 0.150000
0.000661 0.006325 0.150000
0.000796 0.006536 0.150000
0.001148 0.007086 0.150000
0.001045 0.006925 0.150000
0.000927 0.006739 0.150000
0.001953 0.000216 0.150000
0.002321 0.000121 0.150000
0.006708 0.008527 0.150000
0.006581 0.008626 0.150000
0.002474 0.008493 0.150000
0.002779 0.008641 0.150000
0.008613 0.003535 0.150000
0.008597 0.003731 0.150000
0.001586 0.000366 0.150000
0.008542 0.002947 0.150000
0.008607 0.003338 0.150000
0.008451 0.004592 0.150000
0.008343 0.005067 0.150000
0.007927 0.006294 0.150000
0.007814 0.006534 0.150000
0.007700 0.006768 0.150000
0.007310 0.007615 0.150000
0.007219 0.007800 0.150000
0.007774 0.001278 0.150000
0.007882 0.001408 0.150000
0.003660 0.000003 0.150000
0.003043 0.000034 0.150000
0.003343 0.000015 0.150000
0.002768 0.000059 0.150000
0.000892 0.000815 0.150000
0.001229 0.000567 0.150000
0.000581 0.001108 0.150000
0.000023 0.002593 0.150000
0.000059 0.002239 0.150000
0.000000 0.003364 0.150000
0.000005 0.002972 0.150000
0.000031 0.004831 0.150000
0.000004 0.003758 0.150000
0.000032 0.005115 0.150000
0.007127 0.007973 0.150000
0.006275 0.008802 0.150000
0.005908 0.008956 0.150000
0.005511 0.009077 0.150000
0.005114 0.009153 0.150000
0.002359 0.008412 0.150000
0.001947 0.008049 0.150000
0.001743 0.007850 0.150000
0.001550 0.007642 0.150000
3 0 1 2
3 0 2 3
3 4 5 6
3 4 6 7
3 8 9 10
3 8 10 11
3 12 13 14
3 12 14 15
3 16 17 18
3 16 18 19
3 20 21 9
3 20 9 8
3 22 23 24
3 22 24 25
3 6 26 27
3 6 27 7
3 28 29 30
3 30 31 32
3 32 33 2
3 2 1 34
3 34 35 36
3 36 37 38
3 38 39 40
3 40 41 42
3 42 43 44
3 45 46 47
3 42 44 45
3 38 40 42
3 34 36 38
3 32 2 34
3 28 30 32
3 48 49 28
3 50 51 48
3 52 50 48
3 48 28 32
3 32 34 38
3 38 42 45
3 45 47 13
3 13 12 53
3 53 54 55
3 55 56 57
3 57 58 59
3 59 60 61
3 61 62 63
3 63 64 65
3 65 18 17
3 17 26 6
3 6 5 22
3 22 25 66
3 66 67 68
3 68 69 70
3 70 71 72
3 72 73 74
3 74 75 10
3 10 9 21
3 21 76 77
3 77 78 79
3 79 80 81
3 82 83 84
3 77 79 81
3 81 82 84
3 81 84 85
3 21 77 81
3 74 10 21
3 70 72 74
3 66 68 70
3 6 22 66
3 65 17 6
3 61 63 65
3 57 59 61
3 53 55 57
3 45 13 53
3 32 38 45
3 52 48 32
3 86 52 32
3 32 45 53
3 53 57 61
3 61 65 6
3 6 66 70
3 70 74 21
3 21 81 85
3 21 85 87
3 6 70 21
3 53 61 6
3 86 32 53
3 88 86 53
3 53 6 21
3 21 87 89
3 90 88 53
3 21 89 90
3 53 21 90
3 62 61 60
3 60 59 91
3 60 91 92
3 63 62 60
3 93 94 63
3 60 92 95
3 95 93 63
3 60 95 63
3 41 40 96
3 41 96 97
3 52 86 88
3 88 90 89
3 89 87 85
3 85 84 83
3 83 98 99
3 83 99 100
3 89 85 83
3 52 88 89
3 51 50 52
3 101 49 48
3 51 52 89
3 101 48 51
3 102 101 51
3 51 89 83
3 83 100 103
3 83 103 104
3 102 51 83
3 105 102 83
3 83 104 106
3 83 106 107
3 108 105 83
3 109 108 83
3 83 107 110
3 83 110 109
3 111 71 70
3 111 70 112
3 113 39 38
3 113 38 114
3 96 40 39
3 96 39 113
3 33 32 115
3 33 115 116
3 117 56 55
3 117 55 118
3 72 71 111
3 72 111 119
3 91 120 121
3 121 117 118
3 118 122 123
3 123 15 14
3 14 124 125
3 126 127 128
3 14 125 126
3 118 123 14
3 91 121 118
3 95 92 91
3 94 93 95
3 129 130 94
3 16 19 129
3 7 27 16
3 23 4 7
3 131 24 23
3 132 133 131
3 112 134 132
3 119 111 112
3 135 136 119
3 11 137 135
3 20 8 11
3 138 139 20
3 140 141 138
3 142 143 140
3 99 98 144
3 142 140 138
3 99 144 142
3 100 99 142
3 142 138 20
3 20 11 135
3 135 119 112
3 112 132 131
3 131 23 7
3 7 16 129
3 129 94 95
3 95 91 118
3 118 14 126
3 126 128 145
3 145 97 96
3 96 113 114
3 114 146 147
3 147 148 149
3 149 0 3
3 3 116 115
3 115 150 151
3 151 152 153
3 153 101 102
3 102 105 108
3 102 108 109
3 151 153 102
3 3 115 151
3 147 149 3
3 96 114 147
3 126 145 96
3 95 118 126
3 7 129 95
3 112 131 7
3 20 135 112
3 100 142 20
3 103 100 20
3 20 112 7
3 7 95 126
3 126 96 147
3 147 3 151
3 151 102 109
3 151 109 110
3 126 147 151
3 20 7 126
3 104 103 20
3 106 104 20
3 20 126 151
3 151 110 107
3 107 106 20
3 151 107 20
3 23 22 5
3 23 5 4
3 129 65 64
3 129 64 130
3 130 64 63
3 130 63 94
3 77 76 139
3 77 139 138
3 98 83 82
3 81 77 138
3 98 82 81
3 144 98 81
3 81 138 141
3 81 141 140
3 142 144 81
3 81 140 143
3 81 143 142
3 11 10 75
3 11 75 137
3 35 34 149
3 35 149 148
3 136 73 72
3 136 72 119
3 153 28 49
3 153 49 101
3 42 41 97
3 42 97 145
3 43 42 145
3 43 145 128
3 46 45 44
3 44 43 128
3 44 128 127
3 47 46 44
3 14 13 47
3 124 14 47
3 47 44 127
3 47 127 126
3 125 124 47
3 126 125 47
3 19 18 65
3 19 65 129
3 58 57 121
3 58 121 120
3 139 76 21
3 139 21 20
3 147 36 35
3 147 35 148
3 38 37 146
3 38 146 114
3 70 69 134
3 70 134 112
3 54 53 12
3 12 15 123
3 122 118 55
3 12 123 122
3 55 54 12
3 12 122 55
3 29 28 153
3 29 153 152
3 150 31 30
3 30 29 152
3 151 150 30
3 152 151 30
3 37 36 147
3 37 147 146
3 121 57 56
3 121 56 117
3 74 73 136
3 74 136 135
3 66 25 24
3 66 24 131
3 67 66 131
3 67 131 133
3 134 69 68
3 68 67 133
3 132 134 68
3 133 132 68
3 115 32 31
3 115 31 150
3 27 26 17
3 27 17 16
3 75 74 135
3 75 135 137
3 2 33 116
3 2 116 3
3 58 120 91
3 58 91 59
3 149 34 1
3 149 1 0
