ply
format ascii 1.0
comment Created by Blender 3.6.8 - www.blender.org
element vertex 160
property float x
property float y
property float z
element face 309
property list uchar uint vertex_indices
end_header
0.001788 0.002406 0.000000
0.002190 0.002583 0.000000
0.002293 0.002625 0.000000
0.002847 0.002836 0.000000
0.003061 0.002912 0.000000
0.003285 0.002986 0.000000
0.003397 0.003021 0.000000
0.003508 0.003053 0.000000
0.003619 0.003081 0.000000
0.003731 0.003106 0.000000
0.003846 0.003128 0.000000
0.003966 0.003147 0.000000
0.004228 0.003179 0.000000
0.005286 0.003253 0.000000
0.005566 0.003259 0.000000
0.005751 0.003247 0.000000
0.006588 0.003040 0.000000
0.006741 0.002983 0.000000
0.006885 0.002914 0.000000
0.007148 0.002743 0.000000
0.007381 0.002539 0.000000
0.007489 0.002428 0.000000
0.007592 0.002312 0.000000
0.007880 0.001956 0.000000
0.007960 0.001840 0.000000
0.008017 0.001731 0.000000
0.008055 0.001626 0.000000
0.008073 0.001526 0.000000
0.008076 0.001429 0.000000
0.008065 0.001336 0.000000
0.008043 0.001244 0.000000
0.008011 0.001154 0.000000
0.007972 0.001065 0.000000
0.007928 0.000975 0.000000
0.007882 0.000886 0.000000
0.007835 0.000794 0.000000
0.007783 0.000709 0.000000
0.007719 0.000636 0.000000
0.007642 0.000574 0.000000
0.007550 0.000521 0.000000
0.007441 0.000473 0.000000
0.007314 0.000430 0.000000
0.007168 0.000390 0.000000
0.007001 0.000349 0.000000
0.006811 0.000306 0.000000
0.006360 0.000206 0.000000
0.006095 0.000144 0.000000
0.005836 0.000087 0.000000
0.001289 0.002330 0.000000
0.001429 0.002355 0.000000
0.005613 0.000046 0.000000
0.005251 0.000005 0.000000
0.001186 0.000169 0.000000
0.001008 0.000195 0.000000
0.000825 0.000225 0.000000
0.000638 0.000260 0.000000
0.000466 0.000302 0.000000
0.000327 0.000349 0.000000
0.000218 0.000402 0.000000
0.000136 0.000459 0.000000
0.000076 0.000519 0.000000
0.000036 0.000581 0.000000
0.000012 0.000645 0.000000
0.000002 0.000709 0.000000
0.000001 0.000773 0.000000
0.000006 0.000835 0.000000
0.000021 0.000951 0.000000
0.000031 0.001011 0.000000
0.000067 0.001154 0.000000
0.000121 0.001323 0.000000
0.000190 0.001504 0.000000
0.000267 0.001687 0.000000
0.000308 0.001776 0.000000
0.000349 0.001860 0.000000
0.000390 0.001940 0.000000
0.000444 0.002013 0.000000
0.000523 0.002077 0.000000
0.000622 0.002135 0.000000
0.000867 0.002230 0.000000
0.001147 0.002302 0.000000
0.000136 0.000459 0.150000
0.000218 0.000402 0.150000
0.007960 0.001840 0.150000
0.007880 0.001956 0.150000
0.007148 0.002743 0.150000
0.006885 0.002914 0.150000
0.007550 0.000521 0.150000
0.007642 0.000574 0.150000
0.007719 0.000636 0.150000
0.007783 0.000709 0.150000
0.005751 0.003247 0.150000
0.006588 0.003040 0.150000
0.008073 0.001526 0.150000
0.008055 0.001626 0.150000
0.008017 0.001731 0.150000
0.007592 0.002312 0.150000
0.007489 0.002428 0.150000
0.007381 0.002539 0.150000
0.006741 0.002983 0.150000
0.005566 0.003259 0.150000
0.005286 0.003253 0.150000
0.004228 0.003179 0.150000
0.003966 0.003147 0.150000
0.003846 0.003128 0.150000
0.003731 0.003106 0.150000
0.003619 0.003081 0.150000
0.003508 0.003053 0.150000
0.003397 0.003021 0.150000
0.003285 0.002986 0.150000
0.003061 0.002912 0.150000
0.002847 0.002836 0.150000
0.002293 0.002625 0.150000
0.002190 0.002583 0.150000
0.001788 0.002406 0.150000
0.001429 0.002355 0.150000
0.001289 0.002330 0.150000
0.008065 0.001336 0.150000
0.008076 0.001429 0.150000
0.008011 0.001154 0.150000
0.008043 0.001244 0.150000
0.007928 0.000975 0.150000
0.007972 0.001065 0.150000
0.007835 0.000794 0.150000
0.007882 0.000886 0.150000
0.001147 0.002302 0.150000
0.007314 0.000430 0.150000
0.007441 0.000473 0.150000
0.007001 0.000349 0.150000
0.007168 0.000390 0.150000
0.006360 0.000206 0.150000
0.006811 0.000306 0.150000
0.005836 0.000087 0.150000
0.006095 0.000144 0.150000
0.005251 0.000005 0.150000
0.005613 0.000046 0.150000
0.001008 0.000195 0.150000
0.001186 0.000169 0.150000
0.000638 0.000260 0.150000
0.000825 0.000225 0.150000
0.000327 0.000349 0.150000
0.000466 0.000302 0.150000
0.000036 0.000581 0.150000
0.000076 0.000519 0.150000
0.000002 0.000709 0.150000
0.000012 0.000645 0.150000
0.000006 0.000835 0.150000
0.000001 0.000773 0.150000
0.000031 0.001011 0.150000
0.000021 0.000951 0.150000
0.000121 0.001323 0.150000
0.000067 0.001154 0.150000
0.000267 0.001687 0.150000
0.000190 0.001504 0.150000
0.000349 0.001860 0.150000
0.000308 0.001776 0.150000
0.000444 0.002013 0.150000
0.000390 0.001940 0.150000
0.000622 0.002135 0.150000
0.000523 0.002077 0.150000
0.000867 0.002230 0.150000
3 0 1 2
3 2 3 4
3 4 5 6
3 6 7 8
3 8 9 10
3 10 11 12
3 12 13 14
3 14 15 16
3 16 17 18
3 18 19 20
3 20 21 22
3 22 23 24
3 24 25 26
3 26 27 28
3 28 29 30
3 30 31 32
3 32 33 34
3 34 35 36
3 36 37 38
3 38 39 40
3 40 41 42
3 42 43 44
3 45 46 47
3 42 44 45
3 38 40 42
3 34 36 38
3 30 32 34
3 26 28 30
3 22 24 26
3 18 20 22
3 14 16 18
3 10 12 14
3 6 8 10
3 2 4 6
3 48 49 0
3 0 2 6
3 6 10 14
3 14 18 22
3 22 26 30
3 30 34 38
3 38 42 45
3 45 47 50
3 50 51 52
3 52 53 54
3 54 55 56
3 56 57 58
3 58 59 60
3 60 61 62
3 62 63 64
3 64 65 66
3 66 67 68
3 68 69 70
3 70 71 72
3 72 73 74
3 74 75 76
3 76 77 78
3 78 79 48
3 0 6 14
3 78 48 0
3 74 76 78
3 70 72 74
3 66 68 70
3 62 64 66
3 58 60 62
3 54 56 58
3 50 52 54
3 38 45 50
3 22 30 38
3 0 14 22
3 74 78 0
3 66 70 74
3 58 62 66
3 50 54 58
3 22 38 50
3 74 0 22
3 58 66 74
3 22 50 58
3 22 58 74
3 80 59 58
3 80 58 81
3 82 24 23
3 82 23 83
3 84 19 18
3 84 18 85
3 86 39 38
3 86 38 87
3 88 37 36
3 88 36 89
3 16 15 90
3 16 90 91
3 92 93 94
3 94 82 83
3 83 95 96
3 96 97 84
3 84 85 98
3 98 91 90
3 90 99 100
3 100 101 102
3 102 103 104
3 104 105 106
3 106 107 108
3 108 109 110
3 110 111 112
3 113 114 115
3 110 112 113
3 106 108 110
3 102 104 106
3 90 100 102
3 84 98 90
3 83 96 84
3 92 94 83
3 116 117 92
3 118 119 116
3 120 121 118
3 89 122 123
3 123 120 118
3 118 116 92
3 92 83 84
3 84 90 102
3 102 106 110
3 113 115 124
3 102 110 113
3 92 84 102
3 123 118 92
3 88 89 123
3 86 87 88
3 125 126 86
3 127 128 125
3 129 130 127
3 131 132 129
3 133 134 131
3 135 136 133
3 137 138 135
3 139 140 137
3 80 81 139
3 141 142 80
3 143 144 141
3 145 146 143
3 147 148 145
3 149 150 147
3 151 152 149
3 153 154 151
3 155 156 153
3 157 158 155
3 124 159 157
3 92 102 113
3 113 124 157
3 157 155 153
3 153 151 149
3 149 147 145
3 145 143 141
3 141 80 139
3 139 137 135
3 135 133 131
3 129 127 125
3 135 131 129
3 141 139 135
3 149 145 141
3 157 153 149
3 92 113 157
3 88 123 92
3 125 86 88
3 135 129 125
3 149 141 135
3 92 157 149
3 125 88 92
3 149 135 125
3 149 125 92
3 98 17 16
3 98 16 91
3 159 78 77
3 159 77 157
3 157 77 76
3 157 76 158
3 67 66 65
3 65 64 146
3 65 146 145
3 147 67 65
3 65 145 148
3 65 148 147
3 94 25 24
3 94 24 82
3 158 76 75
3 158 75 155
3 141 61 60
3 141 60 142
3 72 71 151
3 72 151 154
3 156 74 73
3 73 72 154
3 153 156 73
3 154 153 73
3 40 126 125
3 40 125 128
3 43 42 40
3 45 44 43
3 134 50 47
3 131 134 47
3 45 43 40
3 131 47 45
3 132 131 45
3 45 40 128
3 45 128 127
3 129 132 45
3 45 127 130
3 130 129 45
3 133 51 50
3 133 50 134
3 123 122 35
3 35 34 33
3 32 31 118
3 123 35 33
3 33 32 118
3 33 118 121
3 120 123 33
3 33 121 120
3 68 67 147
3 68 147 150
3 93 26 25
3 93 25 94
3 89 36 35
3 89 35 122
3 139 57 56
3 139 56 140
3 14 99 90
3 14 90 15
3 71 70 69
3 69 68 150
3 69 150 149
3 151 71 69
3 69 149 152
3 69 152 151
3 143 63 62
3 143 62 144
3 53 52 136
3 53 136 135
3 54 53 135
3 54 135 138
3 140 56 55
3 55 54 138
3 137 140 55
3 138 137 55
3 119 30 29
3 119 29 116
3 0 113 112
3 0 112 111
3 4 2 0
3 108 107 6
3 109 108 6
3 6 4 0
3 0 111 110
3 110 109 6
3 0 110 6
3 117 28 27
3 117 27 92
3 118 31 30
3 118 30 119
3 116 29 28
3 116 28 117
3 124 79 78
3 124 78 159
3 48 79 124
3 48 124 115
3 113 0 48
3 48 115 114
3 48 114 113
3 97 20 19
3 97 19 84
3 126 40 39
3 126 39 86
3 21 20 97
3 21 97 96
3 83 23 22
3 22 21 96
3 95 83 22
3 96 95 22
3 85 18 17
3 85 17 98
3 155 75 74
3 155 74 156
3 87 38 37
3 87 37 88
3 144 62 61
3 144 61 141
3 81 58 57
3 81 57 139
3 100 99 14
3 12 11 102
3 101 100 14
3 12 102 101
3 14 12 101
3 146 64 63
3 146 63 143
3 142 60 59
3 142 59 80
3 52 51 133
3 52 133 136
3 103 102 11
3 103 11 10
3 104 103 10
3 104 10 9
3 105 104 9
3 105 9 8
3 6 107 106
3 106 105 8
3 7 6 106
3 8 7 106
3 92 27 26
3 92 26 93
