ply
format ascii 1.0
comment Created by Blender 3.6.8 - www.blender.org
element vertex 164
property float x
property float y
property float z
element face 321
property list uchar uint vertex_indices
end_header
0.002421 0.006026 0.150000
0.002421 0.006026 0.000000
0.002348 0.006062 0.000000
0.002348 0.006062 0.150000
0.002641 0.005835 0.150000
0.002641 0.005835 0.000000
0.002594 0.005889 0.000000
0.002594 0.005889 0.150000
0.000936 0.000093 0.150000
0.000936 0.000093 0.000000
0.001113 0.000027 0.000000
0.001113 0.000027 0.150000
0.000507 0.004227 0.000000
0.000495 0.004115 0.000000
0.000495 0.004115 0.150000
0.000507 0.004227 0.150000
0.000267 0.006103 0.150000
0.000267 0.006103 0.000000
0.000249 0.006077 0.000000
0.000249 0.006077 0.150000
0.001434 0.000029 0.150000
0.001434 0.000029 0.000000
0.001502 0.000070 0.000000
0.001502 0.000070 0.150000
0.000427 0.006185 0.150000
0.000427 0.006185 0.000000
0.000355 0.006161 0.000000
0.000355 0.006161 0.150000
0.000363 0.000547 0.000000
0.000363 0.000547 0.150000
0.000239 0.000841 0.150000
0.000239 0.000841 0.000000
0.003090 0.004721 0.000000
0.003096 0.004512 0.000000
0.003095 0.004144 0.000000
0.003091 0.004014 0.000000
0.003075 0.003753 0.000000
0.003063 0.003620 0.000000
0.003048 0.003485 0.000000
0.003011 0.003206 0.000000
0.002964 0.002915 0.000000
0.002907 0.002607 0.000000
0.002874 0.002454 0.000000
0.002838 0.002312 0.000000
0.002666 0.001821 0.000000
0.002617 0.001711 0.000000
0.002565 0.001603 0.000000
0.002512 0.001497 0.000000
0.002342 0.001171 0.000000
0.002282 0.001061 0.000000
0.002088 0.000766 0.000000
0.002020 0.000677 0.000000
0.001952 0.000592 0.000000
0.001884 0.000510 0.000000
0.001686 0.000279 0.000000
0.001624 0.000205 0.000000
0.001564 0.000132 0.000000
0.001360 0.000007 0.000000
0.001281 0.000000 0.000000
0.001198 0.000008 0.000000
0.000847 0.000135 0.000000
0.000759 0.000180 0.000000
0.000589 0.000271 0.000000
0.000509 0.000333 0.000000
0.000434 0.000427 0.000000
0.000186 0.001002 0.000000
0.000138 0.001165 0.000000
0.000062 0.001468 0.000000
0.000000 0.001774 0.000000
0.000131 0.002310 0.000000
0.000195 0.002607 0.000000
0.000299 0.003171 0.000000
0.000395 0.003607 0.000000
0.003074 0.004907 0.000000
0.002994 0.005228 0.000000
0.003044 0.005074 0.000000
0.002724 0.005717 0.000000
0.002960 0.005302 0.000000
0.002485 0.005984 0.000000
0.002543 0.005939 0.000000
0.002108 0.006120 0.000000
0.002248 0.006093 0.000000
0.000564 0.006212 0.000000
0.000322 0.006144 0.000000
0.000291 0.006125 0.000000
0.000235 0.006051 0.000000
0.000211 0.006001 0.000000
0.000222 0.006026 0.000000
0.000180 0.005900 0.000000
0.000192 0.005953 0.000000
0.000179 0.005807 0.000000
0.000177 0.005872 0.000000
0.000465 0.004742 0.000000
0.000192 0.005728 0.000000
0.000478 0.004655 0.000000
0.000507 0.004314 0.000000
0.000484 0.004527 0.000000
0.000481 0.004611 0.000000
0.000564 0.006212 0.150000
0.003091 0.004014 0.150000
0.003095 0.004144 0.150000
0.003096 0.004512 0.150000
0.003090 0.004721 0.150000
0.003074 0.004907 0.150000
0.003044 0.005074 0.150000
0.002994 0.005228 0.150000
0.002960 0.005302 0.150000
0.002724 0.005717 0.150000
0.002543 0.005939 0.150000
0.002485 0.005984 0.150000
0.002248 0.006093 0.150000
0.002108 0.006120 0.150000
0.000322 0.006144 0.150000
0.000291 0.006125 0.150000
0.000235 0.006051 0.150000
0.000222 0.006026 0.150000
0.000211 0.006001 0.150000
0.000192 0.005953 0.150000
0.000180 0.005900 0.150000
0.000177 0.005872 0.150000
0.000179 0.005807 0.150000
0.000192 0.005728 0.150000
0.000465 0.004742 0.150000
0.003063 0.003620 0.150000
0.003075 0.003753 0.150000
0.003011 0.003206 0.150000
0.003048 0.003485 0.150000
0.002907 0.002607 0.150000
0.002964 0.002915 0.150000
0.002838 0.002312 0.150000
0.002874 0.002454 0.150000
0.002617 0.001711 0.150000
0.002666 0.001821 0.150000
0.002512 0.001497 0.150000
0.002565 0.001603 0.150000
0.002282 0.001061 0.150000
0.002342 0.001171 0.150000
0.002020 0.000677 0.150000
0.002088 0.000766 0.150000
0.001884 0.000510 0.150000
0.001952 0.000592 0.150000
0.001686 0.000279 0.150000
0.001624 0.000205 0.150000
0.001564 0.000132 0.150000
0.001360 0.000007 0.150000
0.001198 0.000008 0.150000
0.001281 0.000000 0.150000
0.000759 0.000180 0.150000
0.000847 0.000135 0.150000
0.000509 0.000333 0.150000
0.000589 0.000271 0.150000
0.000434 0.000427 0.150000
0.000186 0.001002 0.150000
0.000062 0.001468 0.150000
0.000138 0.001165 0.150000
0.000131 0.002310 0.150000
0.000000 0.001774 0.150000
0.000395 0.003607 0.150000
0.000299 0.003171 0.150000
0.000195 0.002607 0.150000
0.000478 0.004655 0.150000
0.000481 0.004611 0.150000
0.000484 0.004527 0.150000
0.000507 0.004314 0.150000
3 0 1 2
3 0 2 3
3 4 5 6
3 4 6 7
3 8 9 10
3 8 10 11
3 12 13 14
3 12 14 15
3 16 17 18
3 16 18 19
3 20 21 22
3 20 22 23
3 24 25 26
3 24 26 27
3 28 29 30
3 28 30 31
3 32 33 34
3 34 35 36
3 36 37 38
3 38 39 40
3 40 41 42
3 42 43 44
3 44 45 46
3 46 47 48
3 48 49 50
3 50 51 52
3 52 53 54
3 55 56 22
3 50 52 54
3 54 55 22
3 22 21 57
3 57 58 59
3 59 10 9
3 9 60 61
3 61 62 63
3 63 64 28
3 28 31 65
3 65 66 67
3 67 68 69
3 70 71 72
3 67 69 70
3 28 65 67
3 61 63 28
3 59 9 61
3 22 57 59
3 50 54 22
3 46 48 50
3 42 44 46
3 38 40 42
3 34 36 38
3 73 32 34
3 74 75 73
3 76 77 74
3 6 5 76
3 78 79 6
3 2 1 78
3 80 81 2
3 25 82 80
3 83 26 25
3 17 84 83
3 85 18 17
3 86 87 85
3 88 89 86
3 90 91 88
3 92 93 90
3 92 90 88
3 88 86 85
3 85 17 83
3 83 25 80
3 80 2 78
3 78 6 76
3 76 74 73
3 73 34 38
3 38 42 46
3 46 50 22
3 22 59 61
3 61 28 67
3 67 70 72
3 67 72 13
3 22 61 67
3 38 46 22
3 76 73 38
3 80 78 76
3 85 83 80
3 92 88 85
3 92 85 80
3 80 76 38
3 38 22 67
3 38 67 13
3 92 80 38
3 94 92 38
3 38 13 12
3 95 96 97
3 38 12 95
3 97 94 38
3 38 95 97
3 82 25 24
3 82 24 98
3 99 100 101
3 101 102 103
3 103 104 105
3 105 106 107
3 107 4 7
3 7 108 109
3 109 0 3
3 3 110 111
3 111 98 24
3 24 27 112
3 112 113 16
3 16 19 114
3 114 115 116
3 116 117 118
3 118 119 120
3 120 121 122
3 118 120 122
3 114 116 118
3 112 16 114
3 111 24 112
3 109 3 111
3 107 7 109
3 103 105 107
3 99 101 103
3 123 124 99
3 125 126 123
3 127 128 125
3 129 130 127
3 131 132 129
3 133 134 131
3 135 136 133
3 137 138 135
3 139 140 137
3 141 139 137
3 137 135 133
3 133 131 129
3 129 127 125
3 125 123 99
3 99 103 107
3 107 109 111
3 111 112 114
3 114 118 122
3 111 114 122
3 99 107 111
3 129 125 99
3 137 133 129
3 142 141 137
3 23 143 142
3 144 20 23
3 145 146 144
3 8 11 145
3 147 148 8
3 149 150 147
3 29 151 149
3 152 30 29
3 153 154 152
3 155 156 153
3 157 158 159
3 159 155 153
3 153 152 29
3 29 149 147
3 147 8 145
3 145 144 23
3 23 142 137
3 137 129 99
3 99 111 122
3 99 122 160
3 23 137 99
3 147 145 23
3 153 29 147
3 157 159 153
3 14 157 153
3 153 147 23
3 23 99 160
3 161 162 163
3 23 160 161
3 14 153 23
3 15 14 23
3 23 161 163
3 163 15 23
3 146 58 57
3 146 57 144
3 44 43 129
3 44 129 132
3 93 92 122
3 93 122 121
3 149 63 62
3 149 62 150
3 116 86 89
3 116 89 117
3 29 28 64
3 29 64 151
3 73 75 104
3 73 104 103
3 39 38 37
3 37 36 124
3 37 124 123
3 40 39 37
3 129 43 42
3 130 129 42
3 42 40 37
3 37 123 126
3 37 126 125
3 130 42 37
3 127 130 37
3 37 125 128
3 37 128 127
3 75 74 105
3 75 105 104
3 77 76 107
3 77 107 106
3 95 163 162
3 95 162 161
3 94 97 95
3 122 92 94
3 95 161 160
3 160 122 94
3 94 95 160
3 147 150 62
3 147 62 61
3 9 8 148
3 148 147 61
3 60 9 148
3 61 60 148
3 12 15 163
3 12 163 95
3 151 64 63
3 151 63 149
3 114 19 18
3 114 18 85
3 86 116 115
3 115 114 85
3 87 86 115
3 85 87 115
3 32 73 103
3 32 103 102
3 119 91 90
3 119 90 120
3 144 57 21
3 144 21 20
3 11 10 59
3 11 59 145
3 120 90 93
3 120 93 121
3 80 82 98
3 80 98 111
3 51 50 138
3 51 138 137
3 52 51 137
3 52 137 140
3 55 54 53
3 53 52 140
3 53 140 139
3 56 55 53
3 142 143 56
3 53 139 141
3 141 142 56
3 141 56 53
3 105 74 77
3 105 77 106
3 108 79 78
3 108 78 109
3 7 6 79
3 7 79 108
3 110 81 80
3 110 80 111
3 109 78 1
3 109 1 0
3 113 84 17
3 113 17 16
3 45 44 132
3 45 132 131
3 46 45 131
3 46 131 134
3 47 46 134
3 47 134 133
3 135 49 48
3 48 47 133
3 136 135 48
3 133 136 48
3 145 59 58
3 145 58 146
3 118 88 91
3 118 91 119
3 117 89 88
3 117 88 118
3 156 68 67
3 65 31 30
3 65 30 152
3 156 67 65
3 153 156 65
3 65 152 154
3 65 154 153
3 27 26 83
3 27 83 112
3 99 124 36
3 99 36 35
3 100 99 35
3 100 35 34
3 32 102 101
3 101 100 34
3 33 32 101
3 34 33 101
3 3 2 81
3 3 81 110
3 14 13 72
3 71 70 69
3 14 72 71
3 157 14 71
3 71 69 68
3 68 156 155
3 68 155 159
3 157 71 68
3 68 159 158
3 68 158 157
3 23 22 56
3 23 56 143
3 107 76 5
3 107 5 4
3 50 49 135
3 50 135 138
3 112 83 84
3 112 84 113
