ply
format ascii 1.0
comment Created by Blender 3.6.8 - www.blender.org
element vertex 168
property float x
property float y
property float z
element face 329
property list uchar uint vertex_indices
end_header
0.000624 0.002423 0.000000
0.000713 0.002215 0.000000
0.000713 0.002215 0.150000
0.000624 0.002423 0.150000
0.000536 0.002655 0.000000
0.000536 0.002655 0.150000
0.000448 0.002901 0.000000
0.000448 0.002901 0.150000
0.000363 0.003155 0.000000
0.000363 0.003155 0.150000
0.000282 0.003407 0.000000
0.000282 0.003407 0.150000
0.000025 0.004236 0.000000
0.000076 0.004073 0.000000
0.000207 0.003650 0.000000
0.000207 0.003650 0.150000
0.000025 0.004236 0.150000
0.000076 0.004073 0.150000
0.001010 0.007389 0.150000
0.001010 0.007389 0.000000
0.000978 0.007337 0.000000
0.000978 0.007337 0.150000
0.007227 0.007315 0.150000
0.007227 0.007315 0.000000
0.006830 0.007601 0.000000
0.006830 0.007601 0.150000
0.000964 0.001817 0.150000
0.000964 0.001817 0.000000
0.001054 0.001751 0.000000
0.001054 0.001751 0.150000
0.001169 0.001673 0.000000
0.000884 0.001904 0.000000
0.000800 0.002040 0.000000
0.000000 0.004401 0.000000
0.000016 0.004603 0.000000
0.000065 0.004833 0.000000
0.000140 0.005083 0.000000
0.000236 0.005344 0.000000
0.000345 0.005606 0.000000
0.000461 0.005861 0.000000
0.000577 0.006100 0.000000
0.000686 0.006315 0.000000
0.000782 0.006495 0.000000
0.000908 0.006721 0.000000
0.000908 0.006836 0.000000
0.000912 0.006954 0.000000
0.000923 0.007088 0.000000
0.000944 0.007222 0.000000
0.000960 0.007283 0.000000
0.001063 0.007444 0.000000
0.001223 0.007561 0.000000
0.001438 0.007680 0.000000
0.001561 0.007738 0.000000
0.001690 0.007793 0.000000
0.001824 0.007844 0.000000
0.001959 0.007891 0.000000
0.002228 0.007966 0.000000
0.002586 0.008019 0.000000
0.003713 0.008074 0.000000
0.005034 0.008054 0.000000
0.005634 0.008014 0.000000
0.005901 0.007976 0.000000
0.006153 0.007913 0.000000
0.006391 0.007828 0.000000
0.007414 0.007156 0.000000
0.007595 0.006989 0.000000
0.007771 0.006817 0.000000
0.008115 0.006468 0.000000
0.008275 0.006283 0.000000
0.008415 0.006077 0.000000
0.008536 0.005851 0.000000
0.008640 0.005608 0.000000
0.008800 0.005071 0.000000
0.008904 0.004476 0.000000
0.008937 0.004161 0.000000
0.008960 0.003835 0.000000
0.008978 0.003156 0.000000
0.008965 0.002836 0.000000
0.008926 0.002563 0.000000
0.008864 0.002332 0.000000
0.008781 0.002133 0.000000
0.008680 0.001961 0.000000
0.008564 0.001807 0.000000
0.007396 0.000541 0.000000
0.007261 0.000423 0.000000
0.007128 0.000333 0.000000
0.006993 0.000266 0.000000
0.006854 0.000217 0.000000
0.006706 0.000182 0.000000
0.005475 0.000009 0.000000
0.004985 0.000013 0.000000
0.004511 0.000092 0.000000
0.004056 0.000226 0.000000
0.002410 0.000956 0.000000
0.002207 0.001064 0.000000
0.002007 0.001172 0.000000
0.001631 0.001387 0.000000
0.001461 0.001489 0.000000
0.001306 0.001585 0.000000
0.000908 0.006721 0.150000
0.000908 0.006836 0.150000
0.000923 0.007088 0.150000
0.000912 0.006954 0.150000
0.004985 0.000013 0.150000
0.004511 0.000092 0.150000
0.000960 0.007283 0.150000
0.000944 0.007222 0.150000
0.000016 0.004603 0.150000
0.000000 0.004401 0.150000
0.008904 0.004476 0.150000
0.008800 0.005071 0.150000
0.006706 0.000182 0.150000
0.006854 0.000217 0.150000
0.002586 0.008019 0.150000
0.002228 0.007966 0.150000
0.008965 0.002836 0.150000
0.008978 0.003156 0.150000
0.005475 0.000009 0.150000
0.003713 0.008074 0.150000
0.005634 0.008014 0.150000
0.005034 0.008054 0.150000
0.007128 0.000333 0.150000
0.007261 0.000423 0.150000
0.007396 0.000541 0.150000
0.008564 0.001807 0.150000
0.008680 0.001961 0.150000
0.008781 0.002133 0.150000
0.008864 0.002332 0.150000
0.008926 0.002563 0.150000
0.008960 0.003835 0.150000
0.008937 0.004161 0.150000
0.008640 0.005608 0.150000
0.008536 0.005851 0.150000
0.008415 0.006077 0.150000
0.008275 0.006283 0.150000
0.008115 0.006468 0.150000
0.007771 0.006817 0.150000
0.007595 0.006989 0.150000
0.007414 0.007156 0.150000
0.006391 0.007828 0.150000
0.006153 0.007913 0.150000
0.005901 0.007976 0.150000
0.001959 0.007891 0.150000
0.001824 0.007844 0.150000
0.001690 0.007793 0.150000
0.001561 0.007738 0.150000
0.001438 0.007680 0.150000
0.001223 0.007561 0.150000
0.001063 0.007444 0.150000
0.000782 0.006495 0.150000
0.000686 0.006315 0.150000
0.000577 0.006100 0.150000
0.000461 0.005861 0.150000
0.000345 0.005606 0.150000
0.000236 0.005344 0.150000
0.000140 0.005083 0.150000
0.000065 0.004833 0.150000
0.000800 0.002040 0.150000
0.000884 0.001904 0.150000
0.001169 0.001673 0.150000
0.001306 0.001585 0.150000
0.001461 0.001489 0.150000
0.001631 0.001387 0.150000
0.002007 0.001172 0.150000
0.002207 0.001064 0.150000
0.002410 0.000956 0.150000
0.004056 0.000226 0.150000
0.006993 0.000266 0.150000
3 0 1 2
3 0 2 3
3 4 0 3
3 4 3 5
3 6 4 5
3 6 5 7
3 8 6 7
3 8 7 9
3 10 8 9
3 10 9 11
3 12 13 14
3 14 10 11
3 14 11 15
3 16 12 14
3 14 15 17
3 17 16 14
3 18 19 20
3 18 20 21
3 22 23 24
3 22 24 25
3 26 27 28
3 26 28 29
3 30 28 27
3 27 31 32
3 32 1 0
3 0 4 6
3 6 8 10
3 10 14 13
3 13 12 33
3 33 34 35
3 35 36 37
3 37 38 39
3 39 40 41
3 41 42 43
3 43 44 45
3 45 46 47
3 47 48 20
3 20 19 49
3 49 50 51
3 51 52 53
3 53 54 55
3 55 56 57
3 57 58 59
3 59 60 61
3 61 62 63
3 63 24 23
3 23 64 65
3 65 66 67
3 67 68 69
3 69 70 71
3 71 72 73
3 73 74 75
3 75 76 77
3 77 78 79
3 79 80 81
3 81 82 83
3 83 84 85
3 85 86 87
3 87 88 89
3 89 90 91
3 91 92 93
3 93 94 95
3 95 96 97
3 97 98 30
3 30 27 32
3 32 0 6
3 6 10 13
3 13 33 35
3 35 37 39
3 39 41 43
3 43 45 47
3 47 20 49
3 49 51 53
3 53 55 57
3 57 59 61
3 61 63 23
3 23 65 67
3 67 69 71
3 71 73 75
3 75 77 79
3 79 81 83
3 83 85 87
3 87 89 91
3 91 93 95
3 95 97 30
3 30 32 6
3 6 13 35
3 35 39 43
3 43 47 49
3 49 53 57
3 57 61 23
3 23 67 71
3 71 75 79
3 79 83 87
3 87 91 95
3 95 30 6
3 6 35 43
3 43 49 57
3 57 23 71
3 71 79 87
3 87 95 6
3 6 43 57
3 57 71 87
3 6 57 87
3 44 43 99
3 44 99 100
3 101 46 45
3 45 44 100
3 102 101 45
3 100 102 45
3 90 103 104
3 90 104 91
3 105 48 47
3 105 47 106
3 107 34 33
3 107 33 108
3 109 73 72
3 109 72 110
3 111 88 87
3 111 87 112
3 113 57 56
3 113 56 114
3 115 77 76
3 115 76 116
3 88 111 117
3 88 117 89
3 60 59 58
3 58 57 113
3 58 113 118
3 119 60 58
3 58 118 120
3 58 120 119
3 121 122 123
3 123 124 125
3 125 126 127
3 127 128 115
3 115 116 129
3 129 130 109
3 109 110 131
3 131 132 133
3 133 134 135
3 135 136 137
3 137 138 22
3 22 25 139
3 139 140 141
3 141 119 120
3 120 118 113
3 113 114 142
3 142 143 144
3 144 145 146
3 146 147 148
3 148 18 21
3 21 105 106
3 106 101 102
3 102 100 99
3 99 149 150
3 150 151 152
3 152 153 154
3 154 155 156
3 156 107 108
3 108 16 17
3 17 15 11
3 11 9 7
3 7 5 3
3 3 2 157
3 157 158 26
3 26 29 159
3 159 160 161
3 161 162 163
3 163 164 165
3 165 166 104
3 104 103 117
3 117 111 112
3 112 167 121
3 121 123 125
3 125 127 115
3 115 129 109
3 109 131 133
3 133 135 137
3 137 22 139
3 139 141 120
3 120 113 142
3 142 144 146
3 146 148 21
3 21 106 102
3 99 150 152
3 21 102 99
3 142 146 21
3 139 120 142
3 133 137 139
3 115 109 133
3 121 125 115
3 117 112 121
3 165 104 117
3 161 163 165
3 26 159 161
3 3 157 26
3 11 7 3
3 108 17 11
3 154 156 108
3 99 152 154
3 142 21 99
3 133 139 142
3 121 115 133
3 165 117 121
3 26 161 165
3 11 3 26
3 154 108 11
3 142 99 154
3 121 133 142
3 26 165 121
3 154 11 26
3 121 142 154
3 154 26 121
3 146 51 50
3 146 50 147
3 121 85 84
3 121 84 122
3 92 91 104
3 92 104 166
3 83 82 124
3 83 124 123
3 128 78 77
3 128 77 115
3 112 87 86
3 112 86 167
3 132 70 69
3 132 69 133
3 156 35 34
3 156 34 107
3 110 72 71
3 110 71 131
3 133 69 68
3 133 68 134
3 2 1 32
3 2 32 157
3 167 86 85
3 167 85 121
3 125 81 80
3 125 80 126
3 122 84 83
3 122 83 123
3 94 93 165
3 94 165 164
3 95 94 164
3 95 164 163
3 96 95 163
3 96 163 162
3 97 96 162
3 97 162 161
3 98 97 161
3 98 161 160
3 29 28 30
3 30 98 160
3 159 29 30
3 30 160 159
3 126 80 79
3 126 79 127
3 140 62 61
3 140 61 141
3 139 63 62
3 139 62 140
3 158 31 27
3 158 27 26
3 47 46 101
3 47 101 106
3 148 49 19
3 148 19 18
3 50 49 148
3 50 148 147
3 76 75 74
3 74 73 109
3 74 109 130
3 116 76 74
3 74 130 129
3 74 129 116
3 93 92 166
3 93 166 165
3 21 20 48
3 21 48 105
3 38 37 36
3 36 35 156
3 36 156 155
3 153 38 36
3 36 155 154
3 36 154 153
3 141 61 60
3 141 60 119
3 127 79 78
3 127 78 128
3 52 51 146
3 52 146 145
3 53 52 145
3 53 145 144
3 142 55 54
3 54 53 144
3 143 142 54
3 144 143 54
3 108 33 12
3 108 12 16
3 64 23 22
3 64 22 138
3 65 64 138
3 65 138 137
3 135 67 66
3 66 65 137
3 136 135 66
3 137 136 66
3 131 71 70
3 131 70 132
3 63 139 25
3 63 25 24
3 124 82 81
3 124 81 125
3 114 56 55
3 114 55 142
3 157 32 31
3 157 31 158
3 90 89 117
3 90 117 103
3 39 38 153
3 39 153 152
3 149 99 43
3 150 149 43
3 43 39 152
3 151 150 43
3 152 151 43
3 134 68 67
3 134 67 135
