ply
format ascii 1.0
comment Created by Blender 3.6.8 - www.blender.org
element vertex 132
property float x
property float y
property float z
element face 259
property list uchar uint vertex_indices
end_header
0.006081 0.000013 0.150000
0.006081 0.000013 0.000000
0.006218 0.000000 0.000000
0.006218 0.000000 0.150000
0.008216 0.008494 0.150000
0.008216 0.008494 0.000000
0.008119 0.008662 0.000000
0.008119 0.008662 0.150000
0.008350 0.008168 0.150000
0.008350 0.008168 0.000000
0.008292 0.008330 0.000000
0.008292 0.008330 0.150000
0.008424 0.007845 0.000000
0.008424 0.007845 0.150000
0.008845 0.004044 0.000000
0.008845 0.004044 0.150000
0.007718 0.000965 0.150000
0.007718 0.000965 0.000000
0.007921 0.001178 0.000000
0.007921 0.001178 0.150000
0.008006 0.001286 0.000000
0.008006 0.001286 0.150000
0.006366 0.000017 0.150000
0.006529 0.000070 0.150000
0.006711 0.000164 0.150000
0.006915 0.000305 0.150000
0.007118 0.000463 0.150000
0.007298 0.000605 0.150000
0.007456 0.000734 0.150000
0.007595 0.000853 0.150000
0.008154 0.001517 0.150000
0.008673 0.002581 0.150000
0.008770 0.002858 0.150000
0.008807 0.003012 0.150000
0.008852 0.003363 0.150000
0.007542 0.009439 0.150000
0.007316 0.009694 0.150000
0.007035 0.009940 0.150000
0.006659 0.010197 0.150000
0.006422 0.010335 0.150000
0.006145 0.010482 0.150000
0.005844 0.010632 0.150000
0.005538 0.010776 0.150000
0.005231 0.010913 0.150000
0.004927 0.011041 0.150000
0.003812 0.011439 0.150000
0.003576 0.011504 0.150000
0.003366 0.011551 0.150000
0.003184 0.011581 0.150000
0.003033 0.011591 0.150000
0.002577 0.011597 0.150000
0.002410 0.011597 0.150000
0.002239 0.011595 0.150000
0.002071 0.011589 0.150000
0.001907 0.011577 0.150000
0.001608 0.011532 0.150000
0.001480 0.011495 0.150000
0.001370 0.011448 0.150000
0.000457 0.010772 0.150000
0.000399 0.010714 0.150000
0.000352 0.010657 0.150000
0.000311 0.010585 0.150000
0.000269 0.010489 0.150000
0.000000 0.009459 0.150000
0.000122 0.009286 0.150000
0.000412 0.008855 0.150000
0.005829 0.000106 0.150000
0.005953 0.000050 0.150000
0.004874 0.000630 0.150000
0.005013 0.000539 0.150000
0.005315 0.000405 0.150000
0.001071 0.007814 0.150000
0.004627 0.000872 0.150000
0.004746 0.000742 0.150000
0.004302 0.001363 0.150000
0.004514 0.001020 0.150000
0.001375 0.007297 0.150000
0.001608 0.011532 0.000000
0.001480 0.011495 0.000000
0.004746 0.000742 0.000000
0.004874 0.000630 0.000000
0.008770 0.002858 0.000000
0.008807 0.003012 0.000000
0.006529 0.000070 0.000000
0.006711 0.000164 0.000000
0.004627 0.000872 0.000000
0.008673 0.002581 0.000000
0.004302 0.001363 0.000000
0.001375 0.007297 0.000000
0.007316 0.009694 0.000000
0.007035 0.009940 0.000000
0.008154 0.001517 0.000000
0.006422 0.010335 0.000000
0.006145 0.010482 0.000000
0.005844 0.010632 0.000000
0.005538 0.010776 0.000000
0.005231 0.010913 0.000000
0.004927 0.011041 0.000000
0.006659 0.010197 0.000000
0.003366 0.011551 0.000000
0.003184 0.011581 0.000000
0.003812 0.011439 0.000000
0.003576 0.011504 0.000000
0.005829 0.000106 0.000000
0.005953 0.000050 0.000000
0.000311 0.010585 0.000000
0.000269 0.010489 0.000000
0.007298 0.000605 0.000000
0.007456 0.000734 0.000000
0.007595 0.000853 0.000000
0.007118 0.000463 0.000000
0.006915 0.000305 0.000000
0.008852 0.003363 0.000000
0.000457 0.010772 0.000000
0.000399 0.010714 0.000000
0.004514 0.001020 0.000000
0.000122 0.009286 0.000000
0.000412 0.008855 0.000000
0.001071 0.007814 0.000000
0.000000 0.009459 0.000000
0.001370 0.011448 0.000000
0.005315 0.000405 0.000000
0.005013 0.000539 0.000000
0.000352 0.010657 0.000000
0.007542 0.009439 0.000000
0.001907 0.011577 0.000000
0.006366 0.000017 0.000000
0.002071 0.011589 0.000000
0.002239 0.011595 0.000000
0.002410 0.011597 0.000000
0.002577 0.011597 0.000000
0.003033 0.011591 0.000000
3 0 1 2
3 0 2 3
3 4 5 6
3 4 6 7
3 8 9 10
3 8 10 11
3 12 9 8
3 12 8 13
3 14 12 13
3 14 13 15
3 16 17 18
3 16 18 19
3 19 18 20
3 19 20 21
3 3 22 23
3 23 24 25
3 25 26 27
3 27 28 29
3 29 16 19
3 19 21 30
3 30 31 32
3 32 33 34
3 34 15 13
3 13 8 11
3 11 4 7
3 7 35 36
3 36 37 38
3 38 39 40
3 40 41 42
3 42 43 44
3 44 45 46
3 46 47 48
3 48 49 50
3 50 51 52
3 52 53 54
3 54 55 56
3 56 57 58
3 58 59 60
3 60 61 62
3 62 63 64
3 62 64 65
3 58 60 62
3 54 56 58
3 50 52 54
3 46 48 50
3 42 44 46
3 38 40 42
3 7 36 38
3 13 11 7
3 32 34 13
3 19 30 32
3 27 29 19
3 23 25 27
3 0 3 23
3 66 67 0
3 68 69 70
3 70 66 0
3 0 23 27
3 27 19 32
3 32 13 7
3 7 38 42
3 42 46 50
3 50 54 58
3 58 62 65
3 58 65 71
3 42 50 58
3 32 7 42
3 0 27 32
3 68 70 0
3 72 73 68
3 74 75 72
3 58 71 76
3 76 74 72
3 72 68 0
3 0 32 42
3 42 58 76
3 76 72 0
3 42 76 0
3 55 77 78
3 55 78 56
3 73 79 80
3 73 80 68
3 32 81 82
3 32 82 33
3 23 83 84
3 23 84 24
3 72 85 79
3 72 79 73
3 31 86 81
3 31 81 32
3 87 74 76
3 87 76 88
3 36 89 90
3 36 90 37
3 21 20 91
3 21 91 30
3 11 10 5
3 11 5 4
3 92 93 94
3 94 95 96
3 96 97 44
3 96 44 43
3 92 94 96
3 38 98 92
3 39 38 92
3 92 96 43
3 92 43 42
3 40 39 92
3 92 42 41
3 41 40 92
3 99 100 48
3 99 48 47
3 45 101 102
3 102 99 47
3 46 45 102
3 102 47 46
3 66 103 104
3 66 104 67
3 61 105 106
3 61 106 62
3 107 108 109
3 109 17 16
3 109 16 29
3 110 107 109
3 84 111 110
3 25 24 84
3 26 25 84
3 84 110 109
3 109 29 28
3 27 26 84
3 109 28 27
3 109 27 84
3 112 14 15
3 112 15 34
3 58 113 114
3 58 114 59
3 75 115 85
3 75 85 72
3 116 117 118
3 118 88 76
3 118 76 71
3 119 116 118
3 64 63 119
3 118 71 65
3 65 64 119
3 118 65 119
3 120 113 58
3 120 58 57
3 121 103 66
3 121 66 70
3 69 122 121
3 69 121 70
3 74 87 115
3 74 115 75
3 59 114 123
3 59 123 60
3 56 78 120
3 56 120 57
3 91 86 31
3 91 31 30
3 124 89 36
3 124 36 35
3 33 82 112
3 33 112 34
3 68 80 122
3 68 122 69
3 77 55 54
3 77 54 125
3 106 119 63
3 106 63 62
3 3 2 126
3 3 126 22
3 60 123 105
3 60 105 61
3 127 125 54
3 127 54 53
3 128 127 53
3 128 53 52
3 129 128 52
3 129 52 51
3 130 129 51
3 130 51 50
3 48 100 131
3 131 130 50
3 49 48 131
3 50 49 131
3 97 101 45
3 97 45 44
3 37 90 98
3 37 98 38
3 6 124 35
3 6 35 7
3 130 131 100
3 100 99 102
3 102 101 97
3 97 96 95
3 95 94 93
3 93 92 98
3 98 90 89
3 89 124 6
3 6 5 10
3 10 9 12
3 12 14 112
3 112 82 81
3 81 86 91
3 91 20 18
3 18 17 109
3 107 110 111
3 111 84 83
3 83 126 2
3 2 1 104
3 104 103 121
3 121 122 80
3 80 79 85
3 85 115 87
3 85 87 88
3 121 80 85
3 2 104 121
3 111 83 2
3 109 107 111
3 91 18 109
3 112 81 91
3 10 12 112
3 89 6 10
3 93 98 89
3 97 95 93
3 100 102 97
3 129 130 100
3 127 128 129
3 77 125 127
3 120 78 77
3 114 113 120
3 105 123 114
3 119 106 105
3 116 119 105
3 105 114 120
3 120 77 127
3 127 129 100
3 100 97 93
3 93 89 10
3 10 112 91
3 91 109 111
3 111 2 121
3 121 85 88
3 111 121 88
3 10 91 111
3 100 93 10
3 120 127 100
3 116 105 120
3 117 116 120
3 120 100 10
3 10 111 88
3 118 117 120
3 10 88 118
3 10 118 120
3 67 104 1
3 67 1 0
3 22 126 83
3 22 83 23
