ply
format ascii 1.0
comment Created by Blender 3.6.8 - www.blender.org
element vertex 180
property float x
property float y
property float z
element face 355
property list uchar uint vertex_indices
end_header
0.009567 0.003104 0.150000
0.009567 0.003104 0.000000
0.009510 0.003236 0.000000
0.009510 0.003236 0.150000
0.002994 0.005522 0.000000
0.003254 0.005577 0.000000
0.003382 0.005600 0.000000
0.003510 0.005621 0.000000
0.003644 0.005640 0.000000
0.003785 0.005658 0.000000
0.003936 0.005676 0.000000
0.004100 0.005694 0.000000
0.004699 0.005750 0.000000
0.004920 0.005763 0.000000
0.005308 0.005745 0.000000
0.005635 0.005681 0.000000
0.005921 0.005583 0.000000
0.006054 0.005527 0.000000
0.006183 0.005467 0.000000
0.006440 0.005346 0.000000
0.006817 0.005182 0.000000
0.006925 0.005134 0.000000
0.002277 0.005346 0.000000
0.002480 0.005399 0.000000
0.001348 0.005012 0.000000
0.002000 0.005261 0.000000
0.000000 0.004360 0.000000
0.000450 0.004724 0.000000
0.000245 0.003863 0.000000
0.000145 0.004046 0.000000
0.000486 0.003465 0.000000
0.000360 0.003668 0.000000
0.000760 0.003051 0.000000
0.000620 0.003258 0.000000
0.001041 0.002651 0.000000
0.000901 0.002847 0.000000
0.001304 0.002299 0.000000
0.001176 0.002467 0.000000
0.001629 0.001893 0.000000
0.001421 0.002150 0.000000
0.001819 0.001665 0.000000
0.001726 0.001776 0.000000
0.002094 0.001348 0.000000
0.001911 0.001558 0.000000
0.002897 0.000443 0.000000
0.002813 0.000534 0.000000
0.002611 0.000767 0.000000
0.007119 0.005044 0.000000
0.007650 0.004787 0.000000
0.007749 0.004740 0.000000
0.007860 0.004683 0.000000
0.002977 0.000365 0.000000
0.003155 0.000246 0.000000
0.003061 0.000300 0.000000
0.003562 0.000132 0.000000
0.003266 0.000201 0.000000
0.004003 0.000079 0.000000
0.003761 0.000104 0.000000
0.004607 0.000031 0.000000
0.004295 0.000053 0.000000
0.005193 0.000005 0.000000
0.004907 0.000015 0.000000
0.005720 0.000001 0.000000
0.005465 0.000000 0.000000
0.006863 0.000107 0.000000
0.006564 0.000054 0.000000
0.007781 0.000453 0.000000
0.007583 0.000357 0.000000
0.008077 0.000645 0.000000
0.007978 0.000574 0.000000
0.008271 0.000805 0.000000
0.008176 0.000725 0.000000
0.008530 0.001008 0.000000
0.008448 0.000944 0.000000
0.008362 0.000877 0.000000
0.008608 0.001073 0.000000
0.008266 0.004416 0.000000
0.008879 0.003913 0.000000
0.009417 0.003367 0.000000
0.009594 0.002973 0.000000
0.009595 0.002840 0.000000
0.009572 0.002707 0.000000
0.009531 0.002573 0.000000
0.009475 0.002438 0.000000
0.009407 0.002301 0.000000
0.009332 0.002163 0.000000
0.009254 0.002023 0.000000
0.009177 0.001881 0.000000
0.009035 0.001601 0.000000
0.008966 0.001483 0.000000
0.008828 0.001291 0.000000
0.008684 0.001139 0.000000
0.008684 0.001139 0.150000
0.008608 0.001073 0.150000
0.008530 0.001008 0.150000
0.008448 0.000944 0.150000
0.008362 0.000877 0.150000
0.008271 0.000805 0.150000
0.008176 0.000725 0.150000
0.007978 0.000574 0.150000
0.008077 0.000645 0.150000
0.007781 0.000453 0.150000
0.006925 0.005134 0.150000
0.006817 0.005182 0.150000
0.006440 0.005346 0.150000
0.006183 0.005467 0.150000
0.006054 0.005527 0.150000
0.005921 0.005583 0.150000
0.005635 0.005681 0.150000
0.005308 0.005745 0.150000
0.004920 0.005763 0.150000
0.004699 0.005750 0.150000
0.004100 0.005694 0.150000
0.003936 0.005676 0.150000
0.003785 0.005658 0.150000
0.003644 0.005640 0.150000
0.003510 0.005621 0.150000
0.003382 0.005600 0.150000
0.003254 0.005577 0.150000
0.002994 0.005522 0.150000
0.002480 0.005399 0.150000
0.002277 0.005346 0.150000
0.002000 0.005261 0.150000
0.001348 0.005012 0.150000
0.000450 0.004724 0.150000
0.000000 0.004360 0.150000
0.007119 0.005044 0.150000
0.007860 0.004683 0.150000
0.007749 0.004740 0.150000
0.007650 0.004787 0.150000
0.000145 0.004046 0.150000
0.000245 0.003863 0.150000
0.000360 0.003668 0.150000
0.000486 0.003465 0.150000
0.000620 0.003258 0.150000
0.000760 0.003051 0.150000
0.000901 0.002847 0.150000
0.001041 0.002651 0.150000
0.001176 0.002467 0.150000
0.001304 0.002299 0.150000
0.001421 0.002150 0.150000
0.001629 0.001893 0.150000
0.001726 0.001776 0.150000
0.001819 0.001665 0.150000
0.001911 0.001558 0.150000
0.002094 0.001348 0.150000
0.002611 0.000767 0.150000
0.002813 0.000534 0.150000
0.002897 0.000443 0.150000
0.008879 0.003913 0.150000
0.008266 0.004416 0.150000
0.009417 0.003367 0.150000
0.009594 0.002973 0.150000
0.009572 0.002707 0.150000
0.009595 0.002840 0.150000
0.009475 0.002438 0.150000
0.009531 0.002573 0.150000
0.009332 0.002163 0.150000
0.009407 0.002301 0.150000
0.009254 0.002023 0.150000
0.002977 0.000365 0.150000
0.003061 0.000300 0.150000
0.003155 0.000246 0.150000
0.003266 0.000201 0.150000
0.003562 0.000132 0.150000
0.003761 0.000104 0.150000
0.004003 0.000079 0.150000
0.004295 0.000053 0.150000
0.004607 0.000031 0.150000
0.004907 0.000015 0.150000
0.005193 0.000005 0.150000
0.005465 0.000000 0.150000
0.005720 0.000001 0.150000
0.006564 0.000054 0.150000
0.006863 0.000107 0.150000
0.007583 0.000357 0.150000
0.008966 0.001483 0.150000
0.009035 0.001601 0.150000
0.009177 0.001881 0.150000
0.008828 0.001291 0.150000
3 0 1 2
3 0 2 3
3 4 5 6
3 6 7 8
3 8 9 10
3 10 11 12
3 12 13 14
3 14 15 16
3 16 17 18
3 19 20 21
3 16 18 19
3 12 14 16
3 8 10 12
3 4 6 8
3 22 23 4
3 24 25 22
3 26 27 24
3 28 29 26
3 30 31 28
3 32 33 30
3 34 35 32
3 36 37 34
3 38 39 36
3 40 41 38
3 42 43 40
3 44 45 46
3 46 42 40
3 40 38 36
3 36 34 32
3 32 30 28
3 28 26 24
3 24 22 4
3 4 8 12
3 12 16 19
3 19 21 47
3 48 49 50
3 19 47 48
3 4 12 19
3 28 24 4
3 36 32 28
3 46 40 36
3 51 44 46
3 52 53 51
3 54 55 52
3 56 57 54
3 58 59 56
3 60 61 58
3 62 63 60
3 64 65 62
3 66 67 64
3 68 69 66
3 70 71 68
3 72 73 74
3 70 68 66
3 75 72 74
3 74 70 66
3 66 64 62
3 62 60 58
3 58 56 54
3 54 52 51
3 51 46 36
3 36 28 4
3 4 19 48
3 48 50 76
3 76 77 78
3 78 2 1
3 1 79 80
3 80 81 82
3 82 83 84
3 84 85 86
3 87 88 89
3 82 84 86
3 87 89 90
3 82 86 87
3 1 80 82
3 76 78 1
3 4 48 76
3 51 36 4
3 58 54 51
3 66 62 58
3 75 74 66
3 90 91 75
3 82 87 90
3 76 1 82
3 51 4 76
3 66 58 51
3 90 75 66
3 76 82 90
3 66 51 76
3 76 90 66
3 75 91 92
3 75 92 93
3 72 75 93
3 72 93 94
3 73 72 94
3 73 94 95
3 74 73 95
3 74 95 96
3 70 74 96
3 70 96 97
3 71 70 97
3 71 97 98
3 99 69 68
3 68 71 98
3 100 99 68
3 98 100 68
3 101 66 69
3 101 69 99
3 102 103 104
3 104 105 106
3 106 107 108
3 108 109 110
3 110 111 112
3 112 113 114
3 114 115 116
3 116 117 118
3 118 119 120
3 120 121 122
3 123 124 125
3 120 122 123
3 116 118 120
3 112 114 116
3 108 110 112
3 104 106 108
3 126 102 104
3 127 128 129
3 129 126 104
3 104 108 112
3 112 116 120
3 120 123 125
3 125 130 131
3 131 132 133
3 133 134 135
3 135 136 137
3 137 138 139
3 139 140 141
3 141 142 143
3 143 144 145
3 146 147 148
3 143 145 146
3 139 141 143
3 135 137 139
3 131 133 135
3 120 125 131
3 104 112 120
3 127 129 104
3 149 150 127
3 3 151 149
3 152 0 3
3 153 154 152
3 155 156 153
3 157 158 155
3 159 157 155
3 155 153 152
3 152 3 149
3 149 127 104
3 104 120 131
3 131 135 139
3 139 143 146
3 146 148 160
3 160 161 162
3 162 163 164
3 164 165 166
3 166 167 168
3 168 169 170
3 170 171 172
3 172 173 174
3 174 175 101
3 101 99 100
3 100 98 97
3 96 95 94
3 101 100 97
3 96 94 93
3 101 97 96
3 172 174 101
3 168 170 172
3 164 166 168
3 160 162 164
3 139 146 160
3 104 131 139
3 152 149 104
3 159 155 152
3 176 177 178
3 178 159 152
3 152 104 139
3 139 160 164
3 164 168 172
3 172 101 96
3 96 93 92
3 92 179 176
3 176 178 152
3 152 139 164
3 164 172 96
3 96 92 176
3 176 152 164
3 164 96 176
3 62 65 173
3 62 173 172
3 90 179 92
3 90 92 91
3 63 62 172
3 63 172 171
3 60 63 171
3 60 171 170
3 61 60 170
3 61 170 169
3 58 61 169
3 58 169 168
3 59 58 168
3 59 168 167
3 56 59 167
3 56 167 166
3 164 54 57
3 57 56 166
3 165 164 57
3 166 165 57
3 24 27 124
3 24 124 123
3 122 121 22
3 24 123 122
3 24 122 22
3 179 90 89
3 179 89 176
3 20 19 18
3 17 16 107
3 20 18 17
3 21 20 17
3 17 107 106
3 17 106 105
3 21 17 105
3 21 105 104
3 49 48 47
3 47 21 104
3 47 104 103
3 127 50 49
3 49 47 103
3 49 103 102
3 128 127 49
3 129 128 49
3 49 102 126
3 126 129 49
3 173 65 64
3 173 64 174
3 154 80 79
3 154 79 152
3 84 83 155
3 84 155 158
3 85 84 158
3 85 158 157
3 86 85 157
3 86 157 159
3 87 86 159
3 87 159 178
3 176 89 88
3 88 87 178
3 177 176 88
3 178 177 88
3 153 81 80
3 153 80 154
3 148 44 51
3 148 51 160
3 77 76 150
3 77 150 149
3 161 53 52
3 161 52 162
3 124 27 26
3 124 26 125
3 78 77 149
3 78 149 151
3 175 67 66
3 175 66 101
3 109 14 13
3 109 13 110
3 3 2 78
3 3 78 151
3 26 29 130
3 26 130 125
3 14 109 108
3 14 108 15
3 131 130 29
3 29 28 31
3 31 30 33
3 33 32 35
3 35 34 37
3 37 36 39
3 39 140 139
3 39 139 138
3 35 37 39
3 31 33 35
3 131 29 31
3 132 131 31
3 31 35 39
3 39 138 137
3 39 137 136
3 132 31 39
3 133 132 39
3 39 136 135
3 134 133 39
3 39 135 134
3 23 22 121
3 23 121 120
3 118 5 4
3 4 23 120
3 119 118 4
3 120 119 4
3 76 50 127
3 76 127 150
3 156 82 81
3 156 81 153
3 42 46 45
3 45 44 148
3 45 148 147
3 42 45 147
3 42 147 146
3 43 42 146
3 43 146 145
3 40 43 145
3 40 145 144
3 41 40 144
3 41 144 143
3 140 39 38
3 38 41 143
3 38 143 142
3 141 140 38
3 142 141 38
3 54 164 163
3 54 163 55
3 64 67 175
3 64 175 174
3 162 52 55
3 162 55 163
3 11 10 9
3 9 8 7
3 7 6 5
3 5 118 117
3 5 117 116
3 9 7 5
3 12 11 9
3 110 13 12
3 111 110 12
3 12 9 5
3 5 116 115
3 5 115 114
3 111 12 5
3 112 111 5
3 5 114 113
3 5 113 112
3 152 79 1
3 152 1 0
3 160 51 53
3 160 53 161
3 155 83 82
3 155 82 156
3 107 16 15
3 107 15 108
