ply
format ascii 1.0
comment Created by Blender 3.6.8 - www.blender.org
element vertex 192
property float x
property float y
property float z
element face 376
property list uchar uint vertex_indices
end_header
0.000063 0.005775 0.150000
0.000063 0.005775 0.000000
0.000082 0.005654 0.000000
0.000082 0.005654 0.150000
0.003046 0.000025 0.150000
0.003046 0.000025 0.000000
0.003074 0.000055 0.000000
0.003074 0.000055 0.150000
0.002137 0.000850 0.150000
0.002137 0.000850 0.000000
0.002215 0.000711 0.000000
0.002215 0.000711 0.150000
0.002867 0.000026 0.150000
0.002867 0.000026 0.000000
0.002904 0.000012 0.000000
0.002904 0.000012 0.150000
0.000000 0.008873 0.150000
0.000000 0.008873 0.000000
0.000190 0.007632 0.000000
0.000190 0.007632 0.150000
0.003014 0.000007 0.150000
0.003014 0.000007 0.000000
0.003257 0.008922 0.000000
0.003257 0.008922 0.150000
0.003228 0.000609 0.150000
0.003228 0.000609 0.000000
0.000874 0.010358 0.150000
0.000874 0.010358 0.000000
0.000784 0.010358 0.000000
0.000784 0.010358 0.150000
0.000059 0.005914 0.150000
0.000059 0.005914 0.000000
0.002773 0.000080 0.000000
0.002832 0.000043 0.000000
0.002832 0.000043 0.150000
0.002773 0.000080 0.150000
0.003098 0.009151 0.150000
0.002975 0.009291 0.150000
0.002819 0.009441 0.150000
0.002126 0.009938 0.150000
0.002047 0.009986 0.150000
0.001965 0.010032 0.150000
0.001877 0.010075 0.150000
0.001677 0.010153 0.150000
0.001560 0.010188 0.150000
0.001096 0.010317 0.150000
0.001032 0.010332 0.150000
0.000975 0.010344 0.150000
0.000690 0.010344 0.150000
0.000634 0.010332 0.150000
0.000573 0.010317 0.150000
0.000509 0.010301 0.150000
0.000445 0.010283 0.150000
0.000383 0.010266 0.150000
0.000324 0.010249 0.150000
0.000271 0.010233 0.150000
0.000226 0.010220 0.150000
0.000192 0.010209 0.150000
0.000169 0.010202 0.150000
0.000161 0.010199 0.150000
0.003214 0.000487 0.150000
0.003198 0.000382 0.150000
0.003207 0.000433 0.150000
0.003178 0.000290 0.150000
0.003189 0.000334 0.150000
0.003118 0.000130 0.150000
0.003152 0.000207 0.150000
0.002979 0.000000 0.150000
0.002942 0.000002 0.150000
0.002734 0.000109 0.150000
0.002320 0.000562 0.150000
0.002066 0.001031 0.150000
0.002039 0.001140 0.150000
0.002051 0.001086 0.150000
0.002015 0.001248 0.150000
0.002027 0.001194 0.150000
0.000190 0.007613 0.150000
0.002002 0.001304 0.150000
0.000189 0.007561 0.150000
0.001987 0.001361 0.150000
0.000189 0.007481 0.150000
0.000188 0.007379 0.150000
0.001969 0.001420 0.150000
0.001948 0.001480 0.150000
0.000186 0.007260 0.150000
0.000183 0.007132 0.150000
0.001928 0.001537 0.150000
0.001907 0.001592 0.150000
0.000179 0.006999 0.150000
0.000174 0.006867 0.150000
0.001886 0.001646 0.150000
0.001748 0.001989 0.150000
0.001773 0.001926 0.150000
0.001696 0.002129 0.150000
0.001723 0.002056 0.150000
0.000167 0.006743 0.150000
0.001667 0.002205 0.150000
0.000159 0.006631 0.150000
0.001635 0.002282 0.150000
0.000099 0.005588 0.150000
0.000124 0.005498 0.150000
0.000154 0.005391 0.150000
0.000190 0.005270 0.150000
0.000230 0.005139 0.150000
0.000273 0.005003 0.150000
0.000319 0.004864 0.150000
0.000365 0.004728 0.150000
0.000413 0.004598 0.150000
0.000459 0.004479 0.150000
0.000504 0.004374 0.150000
0.000547 0.004288 0.150000
0.001252 0.003067 0.150000
0.001601 0.002361 0.150000
0.001528 0.002518 0.150000
0.001601 0.002361 0.000000
0.001635 0.002282 0.000000
0.001528 0.002518 0.000000
0.001252 0.003067 0.000000
0.000547 0.004288 0.000000
0.000459 0.004479 0.000000
0.000504 0.004374 0.000000
0.000161 0.010199 0.000000
0.002002 0.001304 0.000000
0.002015 0.001248 0.000000
0.002027 0.001194 0.000000
0.002039 0.001140 0.000000
0.001969 0.001420 0.000000
0.001987 0.001361 0.000000
0.002051 0.001086 0.000000
0.002066 0.001031 0.000000
0.002320 0.000562 0.000000
0.002734 0.000109 0.000000
0.002942 0.000002 0.000000
0.002979 0.000000 0.000000
0.003152 0.000207 0.000000
0.003118 0.000130 0.000000
0.003189 0.000334 0.000000
0.003178 0.000290 0.000000
0.003207 0.000433 0.000000
0.003198 0.000382 0.000000
0.003214 0.000487 0.000000
0.003098 0.009151 0.000000
0.002819 0.009441 0.000000
0.002975 0.009291 0.000000
0.002047 0.009986 0.000000
0.002126 0.009938 0.000000
0.001877 0.010075 0.000000
0.001965 0.010032 0.000000
0.001560 0.010188 0.000000
0.001677 0.010153 0.000000
0.001032 0.010332 0.000000
0.001096 0.010317 0.000000
0.000975 0.010344 0.000000
0.000690 0.010344 0.000000
0.000573 0.010317 0.000000
0.000634 0.010332 0.000000
0.000445 0.010283 0.000000
0.000509 0.010301 0.000000
0.000324 0.010249 0.000000
0.000383 0.010266 0.000000
0.000226 0.010220 0.000000
0.000271 0.010233 0.000000
0.000169 0.010202 0.000000
0.000192 0.010209 0.000000
0.000190 0.007613 0.000000
0.000189 0.007561 0.000000
0.000189 0.007481 0.000000
0.000188 0.007379 0.000000
0.000186 0.007260 0.000000
0.001948 0.001480 0.000000
0.001928 0.001537 0.000000
0.000183 0.007132 0.000000
0.000179 0.006999 0.000000
0.001907 0.001592 0.000000
0.001886 0.001646 0.000000
0.001773 0.001926 0.000000
0.001748 0.001989 0.000000
0.000174 0.006867 0.000000
0.001723 0.002056 0.000000
0.001696 0.002129 0.000000
0.000167 0.006743 0.000000
0.000159 0.006631 0.000000
0.001667 0.002205 0.000000
0.000124 0.005498 0.000000
0.000099 0.005588 0.000000
0.000190 0.005270 0.000000
0.000154 0.005391 0.000000
0.000273 0.005003 0.000000
0.000230 0.005139 0.000000
0.000365 0.004728 0.000000
0.000319 0.004864 0.000000
0.000413 0.004598 0.000000
3 0 1 2
3 0 2 3
3 4 5 6
3 4 6 7
3 8 9 10
3 8 10 11
3 12 13 14
3 12 14 15
3 16 17 18
3 16 18 19
3 20 21 5
3 20 5 4
3 22 23 24
3 22 24 25
3 26 27 28
3 26 28 29
3 30 31 1
3 30 1 0
3 32 33 34
3 32 34 35
3 24 23 36
3 36 37 38
3 38 39 40
3 40 41 42
3 42 43 44
3 44 45 46
3 46 47 26
3 26 29 48
3 48 49 50
3 50 51 52
3 52 53 54
3 54 55 56
3 56 57 58
3 58 59 16
3 58 16 19
3 54 56 58
3 50 52 54
3 26 48 50
3 44 46 26
3 40 42 44
3 36 38 40
3 60 24 36
3 61 62 60
3 63 64 61
3 65 66 63
3 4 7 65
3 67 20 4
3 15 68 67
3 34 12 15
3 69 35 34
3 11 70 69
3 71 8 11
3 72 73 71
3 74 75 72
3 74 72 71
3 71 11 69
3 69 34 15
3 15 67 4
3 4 65 63
3 63 61 60
3 60 36 40
3 40 44 26
3 26 50 54
3 54 58 19
3 54 19 76
3 40 26 54
3 63 60 40
3 15 4 63
3 71 69 15
3 77 74 71
3 77 71 15
3 15 63 40
3 40 54 76
3 40 76 78
3 77 15 40
3 79 77 40
3 40 78 80
3 40 80 81
3 82 79 40
3 83 82 40
3 40 81 84
3 40 84 85
3 86 83 40
3 87 86 40
3 40 85 88
3 40 88 89
3 90 87 40
3 91 92 90
3 93 94 91
3 93 91 90
3 90 40 89
3 90 89 95
3 96 93 90
3 96 90 95
3 97 30 0
3 96 95 97
3 98 96 97
3 97 0 3
3 3 99 100
3 100 101 102
3 102 103 104
3 104 105 106
3 106 107 108
3 108 109 110
3 108 110 111
3 104 106 108
3 100 102 104
3 97 3 100
3 112 98 97
3 113 112 97
3 97 100 104
3 104 108 111
3 111 113 97
3 97 104 111
3 114 115 98
3 114 98 112
3 116 114 112
3 116 112 113
3 117 116 113
3 117 113 111
3 118 117 111
3 118 111 110
3 108 119 120
3 120 118 110
3 109 108 120
3 110 109 120
3 59 121 17
3 59 17 16
3 122 123 124
3 122 124 125
3 126 127 122
3 79 82 126
3 77 79 126
3 126 122 125
3 128 129 71
3 126 125 128
3 74 77 126
3 75 74 126
3 126 128 71
3 126 71 73
3 72 75 126
3 73 72 126
3 130 10 9
3 9 129 128
3 128 125 124
3 128 124 123
3 130 9 128
3 32 131 130
3 13 33 32
3 132 14 13
3 21 133 132
3 6 5 21
3 134 135 6
3 136 137 134
3 138 139 136
3 25 140 138
3 141 22 25
3 142 143 141
3 144 145 142
3 146 147 144
3 148 149 146
3 150 151 148
3 27 152 150
3 153 28 27
3 154 155 153
3 156 157 154
3 158 159 156
3 160 161 158
3 162 163 160
3 17 121 162
3 18 17 162
3 162 160 158
3 158 156 154
3 154 153 27
3 27 150 148
3 148 146 144
3 144 142 141
3 141 25 138
3 138 136 134
3 134 6 21
3 21 132 13
3 13 32 130
3 130 128 123
3 130 123 122
3 21 13 130
3 138 134 21
3 144 141 138
3 27 148 144
3 158 154 27
3 18 162 158
3 164 18 158
3 158 27 144
3 144 138 21
3 21 130 122
3 21 122 127
3 158 144 21
3 165 164 158
3 166 165 158
3 158 21 127
3 158 127 126
3 167 166 158
3 168 167 158
3 158 126 169
3 158 169 170
3 171 168 158
3 172 171 158
3 158 170 173
3 174 175 176
3 158 173 174
3 177 172 158
3 177 158 174
3 174 176 178
3 174 178 179
3 180 177 174
3 1 31 181
3 181 180 174
3 174 179 182
3 181 174 182
3 2 1 181
3 183 184 2
3 185 186 183
3 187 188 185
3 189 190 187
3 119 191 189
3 118 120 119
3 117 118 119
3 119 189 187
3 187 185 183
3 183 2 181
3 181 182 115
3 181 115 114
3 187 183 181
3 117 119 187
3 181 114 116
3 117 187 181
3 116 117 181
3 177 180 181
3 181 97 95
3 181 95 89
3 172 177 181
3 168 171 172
3 166 167 168
3 164 165 166
3 19 18 164
3 76 19 164
3 164 166 168
3 168 172 181
3 181 89 88
3 181 88 85
3 164 168 181
3 78 76 164
3 80 78 164
3 164 181 85
3 164 85 84
3 81 80 164
3 84 81 164
3 69 131 32
3 69 32 35
3 181 31 30
3 181 30 97
3 130 131 69
3 130 69 70
3 135 65 7
3 135 7 6
3 152 27 26
3 152 26 47
3 68 132 133
3 68 133 67
3 134 137 63
3 134 63 66
3 135 134 66
3 135 66 65
3 11 10 130
3 11 130 70
3 142 145 39
3 142 39 38
3 67 133 21
3 67 21 20
3 64 63 137
3 137 136 139
3 139 138 140
3 140 25 24
3 140 24 60
3 137 139 140
3 61 64 137
3 140 60 62
3 62 61 137
3 137 140 62
3 150 152 47
3 150 47 46
3 151 150 46
3 151 46 45
3 43 149 148
3 148 151 45
3 44 43 148
3 45 44 148
3 40 39 145
3 40 145 144
3 146 42 41
3 41 40 144
3 147 146 41
3 144 147 41
3 29 28 153
3 29 153 48
3 22 141 36
3 22 36 23
3 191 119 108
3 191 108 107
3 189 191 107
3 189 107 106
3 190 189 106
3 190 106 105
3 187 190 105
3 187 105 104
3 188 187 104
3 188 104 103
3 185 188 103
3 185 103 102
3 186 185 102
3 186 102 101
3 183 186 101
3 183 101 100
3 3 2 184
3 184 183 100
3 99 3 184
3 100 99 184
3 129 9 8
3 129 8 71
3 36 141 143
3 36 143 37
3 155 154 157
3 157 156 159
3 159 158 161
3 161 160 163
3 163 162 121
3 121 59 58
3 121 58 57
3 161 163 121
3 157 159 161
3 153 155 157
3 49 48 153
3 50 49 153
3 153 157 161
3 161 121 57
3 161 57 56
3 50 153 161
3 51 50 161
3 161 56 55
3 161 55 54
3 52 51 161
3 161 54 53
3 161 53 52
3 169 126 82
3 169 82 83
3 170 169 83
3 170 83 86
3 173 170 86
3 173 86 87
3 174 173 87
3 174 87 90
3 174 90 92
3 174 92 91
3 98 115 182
3 96 98 182
3 182 174 91
3 182 91 94
3 93 96 182
3 94 93 182
3 143 142 38
3 143 38 37
3 42 146 149
3 42 149 43
3 34 33 13
3 34 13 12
3 15 14 132
3 15 132 68
