ply
format ascii 1.0
comment Created by Blender 3.6.8 - www.blender.org
element vertex 134
property float x
property float y
property float z
element face 263
property list uchar uint vertex_indices
end_header
0.000208 0.004956 0.150000
0.000208 0.004956 0.000000
0.000331 0.004782 0.000000
0.000331 0.004782 0.150000
0.001001 0.004112 0.000000
0.001001 0.004112 0.150000
0.002304 0.007800 0.150000
0.002304 0.007800 0.000000
0.002184 0.007828 0.000000
0.002184 0.007828 0.150000
0.003678 0.006278 0.150000
0.003678 0.006278 0.000000
0.003496 0.006566 0.000000
0.003496 0.006566 0.150000
0.002017 0.007849 0.000000
0.002017 0.007849 0.150000
0.003176 0.000003 0.150000
0.003176 0.000003 0.000000
0.003245 0.000001 0.000000
0.003245 0.000001 0.150000
0.000167 0.005041 0.000000
0.000109 0.005222 0.000000
0.000065 0.005432 0.000000
0.000014 0.005905 0.000000
0.000007 0.006030 0.000000
0.000003 0.006156 0.000000
0.000001 0.006282 0.000000
0.000000 0.006407 0.000000
0.000003 0.006532 0.000000
0.000012 0.006658 0.000000
0.000163 0.007575 0.000000
0.000166 0.007630 0.000000
0.000151 0.007840 0.000000
0.002393 0.007762 0.000000
0.002478 0.007716 0.000000
0.002641 0.007596 0.000000
0.002803 0.007438 0.000000
0.002887 0.007344 0.000000
0.002975 0.007240 0.000000
0.003067 0.007125 0.000000
0.003165 0.007000 0.000000
0.003385 0.006716 0.000000
0.003821 0.005992 0.000000
0.003884 0.005843 0.000000
0.003944 0.005688 0.000000
0.004353 0.004500 0.000000
0.004444 0.004136 0.000000
0.004478 0.003838 0.000000
0.004480 0.003701 0.000000
0.004449 0.002905 0.000000
0.004466 0.002102 0.000000
0.004460 0.001806 0.000000
0.001065 0.004043 0.000000
0.001123 0.003976 0.000000
0.004453 0.001673 0.000000
0.004443 0.001543 0.000000
0.004431 0.001412 0.000000
0.004416 0.001275 0.000000
0.004398 0.001127 0.000000
0.004377 0.000965 0.000000
0.004353 0.000782 0.000000
0.004319 0.000607 0.000000
0.004268 0.000464 0.000000
0.004201 0.000350 0.000000
0.004123 0.000262 0.000000
0.004034 0.000196 0.000000
0.003938 0.000147 0.000000
0.003836 0.000112 0.000000
0.003119 0.000023 0.000000
0.003070 0.000059 0.000000
0.003027 0.000113 0.000000
0.001492 0.003458 0.000000
0.001180 0.003907 0.000000
0.001238 0.003834 0.000000
0.001297 0.003755 0.000000
0.001358 0.003667 0.000000
0.001423 0.003569 0.000000
0.000065 0.005432 0.150000
0.000014 0.005905 0.150000
0.002478 0.007716 0.150000
0.002393 0.007762 0.150000
0.004268 0.000464 0.150000
0.004319 0.000607 0.150000
0.000166 0.007630 0.150000
0.000163 0.007575 0.150000
0.003027 0.000113 0.150000
0.003070 0.000059 0.150000
0.002641 0.007596 0.150000
0.001297 0.003755 0.150000
0.001238 0.003834 0.150000
0.001180 0.003907 0.150000
0.001123 0.003976 0.150000
0.001065 0.004043 0.150000
0.004123 0.000262 0.150000
0.004201 0.000350 0.150000
0.004353 0.000782 0.150000
0.004377 0.000965 0.150000
0.004398 0.001127 0.150000
0.004416 0.001275 0.150000
0.004431 0.001412 0.150000
0.004443 0.001543 0.150000
0.004453 0.001673 0.150000
0.004460 0.001806 0.150000
0.004466 0.002102 0.150000
0.004449 0.002905 0.150000
0.004480 0.003701 0.150000
0.004478 0.003838 0.150000
0.004034 0.000196 0.150000
0.003836 0.000112 0.150000
0.003938 0.000147 0.150000
0.003119 0.000023 0.150000
0.001492 0.003458 0.150000
0.004444 0.004136 0.150000
0.004353 0.004500 0.150000
0.003944 0.005688 0.150000
0.003884 0.005843 0.150000
0.003821 0.005992 0.150000
0.003385 0.006716 0.150000
0.003165 0.007000 0.150000
0.003067 0.007125 0.150000
0.002975 0.007240 0.150000
0.002887 0.007344 0.150000
0.002803 0.007438 0.150000
0.000151 0.007840 0.150000
0.000012 0.006658 0.150000
0.000003 0.006532 0.150000
0.001423 0.003569 0.150000
0.000000 0.006407 0.150000
0.000001 0.006282 0.150000
0.000003 0.006156 0.150000
0.000007 0.006030 0.150000
0.000109 0.005222 0.150000
0.000167 0.005041 0.150000
0.001358 0.003667 0.150000
3 0 1 2
3 0 2 3
3 4 5 3
3 4 3 2
3 6 7 8
3 6 8 9
3 10 11 12
3 10 12 13
3 9 8 14
3 9 14 15
3 16 17 18
3 16 18 19
3 4 2 1
3 1 20 21
3 21 22 23
3 23 24 25
3 25 26 27
3 27 28 29
3 27 29 30
3 23 25 27
3 1 21 23
3 4 1 23
3 23 27 30
3 31 32 14
3 4 23 30
3 30 31 14
3 14 8 7
3 7 33 34
3 34 35 36
3 36 37 38
3 38 39 40
3 40 41 12
3 12 11 42
3 42 43 44
3 44 45 46
3 46 47 48
3 49 50 51
3 46 48 49
3 42 44 46
3 40 12 42
3 36 38 40
3 7 34 36
3 30 14 7
3 52 4 30
3 53 52 30
3 30 7 36
3 36 40 42
3 42 46 49
3 49 51 54
3 54 55 56
3 56 57 58
3 58 59 60
3 60 61 62
3 62 63 64
3 64 65 66
3 66 67 18
3 18 17 68
3 68 69 70
3 68 70 71
3 66 18 68
3 62 64 66
3 58 60 62
3 54 56 58
3 42 49 54
3 30 36 42
3 72 53 30
3 73 72 30
3 30 42 54
3 54 58 62
3 62 66 68
3 62 68 71
3 30 54 62
3 74 73 30
3 75 74 30
3 30 62 71
3 76 75 30
3 71 76 30
3 23 22 77
3 23 77 78
3 79 34 33
3 79 33 80
3 81 62 61
3 81 61 82
3 83 31 30
3 83 30 84
3 85 70 69
3 85 69 86
3 87 35 34
3 87 34 79
3 73 74 88
3 73 88 89
3 72 73 89
3 72 89 90
3 53 72 90
3 53 90 91
3 5 4 52
3 52 53 91
3 92 5 52
3 91 92 52
3 93 94 81
3 81 82 95
3 95 96 97
3 97 98 99
3 99 100 101
3 101 102 103
3 104 105 106
3 101 103 104
3 97 99 101
3 81 95 97
3 107 93 81
3 108 109 107
3 16 19 108
3 86 110 16
3 111 85 86
3 111 86 16
3 16 108 107
3 107 81 97
3 97 101 104
3 104 106 112
3 112 113 114
3 114 115 116
3 116 10 13
3 13 117 118
3 118 119 120
3 120 121 122
3 122 87 79
3 79 80 6
3 6 9 15
3 15 123 83
3 84 124 125
3 15 83 84
3 79 6 15
3 120 122 79
3 13 118 120
3 114 116 13
3 104 112 114
3 107 97 104
3 111 16 107
3 126 111 107
3 107 104 114
3 114 13 120
3 120 79 15
3 15 84 125
3 125 127 128
3 128 129 130
3 130 78 77
3 77 131 132
3 132 0 3
3 132 3 5
3 130 77 132
3 125 128 130
3 120 15 125
3 107 114 120
3 133 126 107
3 88 133 107
3 107 120 125
3 125 130 132
3 132 5 92
3 125 132 92
3 88 107 125
3 89 88 125
3 125 92 91
3 90 89 125
3 125 91 90
3 109 66 65
3 109 65 107
3 14 32 123
3 14 123 15
3 45 113 112
3 45 112 46
3 122 36 35
3 122 35 87
3 77 22 21
3 77 21 131
3 67 108 19
3 67 19 18
3 43 42 116
3 43 116 115
3 113 45 44
3 44 43 115
3 114 113 44
3 115 114 44
3 86 69 68
3 86 68 110
3 57 56 55
3 55 54 51
3 51 102 101
3 51 101 100
3 57 55 51
3 59 58 57
3 95 60 59
3 96 95 59
3 59 57 51
3 51 100 99
3 51 99 98
3 96 59 51
3 51 98 97
3 51 97 96
3 39 38 37
3 37 36 122
3 37 122 121
3 40 39 37
3 117 13 12
3 118 117 12
3 12 40 37
3 37 121 120
3 119 118 12
3 37 120 119
3 37 119 12
3 123 32 31
3 123 31 83
3 103 102 51
3 103 51 50
3 104 103 50
3 104 50 49
3 47 106 105
3 105 104 49
3 48 47 105
3 49 48 105
3 131 21 20
3 131 20 132
3 106 47 46
3 106 46 112
3 110 68 17
3 110 17 16
3 30 29 124
3 30 124 84
3 93 64 63
3 93 63 94
3 24 23 78
3 24 78 130
3 25 24 130
3 25 130 129
3 26 25 129
3 26 129 128
3 27 26 128
3 27 128 127
3 124 29 28
3 28 27 127
3 125 124 28
3 28 127 125
3 76 71 111
3 76 111 126
3 88 74 75
3 75 76 126
3 133 88 75
3 126 133 75
3 71 70 85
3 71 85 111
3 132 20 1
3 132 1 0
3 107 65 64
3 107 64 93
3 108 67 66
3 108 66 109
3 82 61 60
3 82 60 95
3 116 42 11
3 116 11 10
3 80 33 7
3 80 7 6
3 94 63 62
3 94 62 81
