ply
format ascii 1.0
comment Created by Blender 3.6.8 - www.blender.org
element vertex 178
property float x
property float y
property float z
element face 346
property list uchar uint vertex_indices
end_header
0.000068 0.002316 0.000000
0.000086 0.002148 0.000000
0.000106 0.001992 0.000000
0.000131 0.001847 0.000000
0.000131 0.001847 0.150000
0.000106 0.001992 0.150000
0.000052 0.002502 0.000000
0.000001 0.003156 0.000000
0.000015 0.002935 0.000000
0.000035 0.002707 0.000000
0.000086 0.002148 0.150000
0.000068 0.002316 0.150000
0.000015 0.002935 0.150000
0.000001 0.003156 0.150000
0.000035 0.002707 0.150000
0.000052 0.002502 0.150000
0.003985 0.001127 0.150000
0.003985 0.001127 0.000000
0.004107 0.001297 0.000000
0.004107 0.001297 0.150000
0.005830 0.005092 0.150000
0.005830 0.005092 0.000000
0.005822 0.005265 0.000000
0.005822 0.005265 0.150000
0.000694 0.004922 0.150000
0.000694 0.004922 0.000000
0.000540 0.004665 0.000000
0.000540 0.004665 0.150000
0.001104 0.000072 0.150000
0.001104 0.000072 0.000000
0.001212 0.000024 0.000000
0.001212 0.000024 0.150000
0.005289 0.007328 0.150000
0.005353 0.007149 0.150000
0.005353 0.007149 0.000000
0.005289 0.007328 0.000000
0.005225 0.007487 0.000000
0.005162 0.007624 0.000000
0.005162 0.007624 0.150000
0.005225 0.007487 0.150000
0.003062 0.000484 0.150000
0.003062 0.000484 0.000000
0.003481 0.000704 0.000000
0.003481 0.000704 0.150000
0.000598 0.000881 0.000000
0.000679 0.000734 0.000000
0.000749 0.000593 0.000000
0.000812 0.000460 0.000000
0.000404 0.001175 0.000000
0.000501 0.001030 0.000000
0.000323 0.001313 0.150000
0.000323 0.001313 0.000000
0.000404 0.001175 0.150000
0.000874 0.000339 0.000000
0.000940 0.000232 0.000000
0.000940 0.000232 0.150000
0.000501 0.001030 0.150000
0.000598 0.000881 0.150000
0.000874 0.000339 0.150000
0.000679 0.000734 0.150000
0.000749 0.000593 0.150000
0.000812 0.000460 0.150000
0.003669 0.000831 0.000000
0.003669 0.000831 0.150000
0.000133 0.003849 0.150000
0.000133 0.003849 0.000000
0.000087 0.003747 0.000000
0.000087 0.003747 0.150000
0.000353 0.004229 0.000000
0.000353 0.004229 0.150000
0.005498 0.004243 0.000000
0.005572 0.004379 0.000000
0.005702 0.004606 0.000000
0.005754 0.004712 0.000000
0.005754 0.004712 0.150000
0.005702 0.004606 0.150000
0.005498 0.004243 0.150000
0.005572 0.004379 0.150000
0.001015 0.000142 0.150000
0.001015 0.000142 0.000000
0.004612 0.008125 0.000000
0.004536 0.008165 0.000000
0.004461 0.008201 0.000000
0.004461 0.008201 0.150000
0.004536 0.008165 0.150000
0.004612 0.008125 0.150000
0.004689 0.008081 0.000000
0.004764 0.008035 0.150000
0.004764 0.008035 0.000000
0.004689 0.008081 0.150000
0.000049 0.003633 0.000000
0.000049 0.003633 0.150000
0.002608 0.000305 0.000000
0.002376 0.000230 0.000000
0.002145 0.000161 0.000000
0.001919 0.000100 0.000000
0.001700 0.000044 0.000000
0.001505 0.000007 0.000000
0.001344 0.000001 0.000000
0.003838 0.000972 0.000000
0.004984 0.002997 0.000000
0.004881 0.002769 0.000000
0.005177 0.003451 0.000000
0.005084 0.003225 0.000000
0.005345 0.003889 0.000000
0.005265 0.003673 0.000000
0.005422 0.004082 0.000000
0.000205 0.001577 0.000000
0.005794 0.004823 0.000000
0.005821 0.004948 0.000000
0.005792 0.005474 0.000000
0.005675 0.005997 0.000000
0.005740 0.005726 0.000000
0.005546 0.006502 0.000000
0.005610 0.006256 0.000000
0.005417 0.006950 0.000000
0.005481 0.006734 0.000000
0.005035 0.007827 0.000000
0.005098 0.007738 0.000000
0.004972 0.007889 0.000000
0.004255 0.008273 0.000000
0.004320 0.008256 0.000000
0.004144 0.008282 0.000000
0.004196 0.008282 0.000000
0.003988 0.008238 0.000000
0.004080 0.008268 0.000000
0.001995 0.006685 0.000000
0.002836 0.007732 0.000000
0.000903 0.005232 0.000000
0.001153 0.005580 0.000000
0.000003 0.003342 0.000000
0.000020 0.003499 0.000000
0.000185 0.003942 0.000000
0.000240 0.004033 0.000000
0.000297 0.004127 0.000000
0.001344 0.000001 0.150000
0.001505 0.000007 0.150000
0.001700 0.000044 0.150000
0.001919 0.000100 0.150000
0.002145 0.000161 0.150000
0.002376 0.000230 0.150000
0.002608 0.000305 0.150000
0.003838 0.000972 0.150000
0.004881 0.002769 0.150000
0.004984 0.002997 0.150000
0.005084 0.003225 0.150000
0.005177 0.003451 0.150000
0.005265 0.003673 0.150000
0.005345 0.003889 0.150000
0.005422 0.004082 0.150000
0.005794 0.004823 0.150000
0.005821 0.004948 0.150000
0.005792 0.005474 0.150000
0.005740 0.005726 0.150000
0.005675 0.005997 0.150000
0.005610 0.006256 0.150000
0.005546 0.006502 0.150000
0.005481 0.006734 0.150000
0.005417 0.006950 0.150000
0.005098 0.007738 0.150000
0.005035 0.007827 0.150000
0.004972 0.007889 0.150000
0.004320 0.008256 0.150000
0.004255 0.008273 0.150000
0.004196 0.008282 0.150000
0.004144 0.008282 0.150000
0.004080 0.008268 0.150000
0.003988 0.008238 0.150000
0.002836 0.007732 0.150000
0.001995 0.006685 0.150000
0.001153 0.005580 0.150000
0.000903 0.005232 0.150000
0.000205 0.001577 0.150000
0.000297 0.004127 0.150000
0.000240 0.004033 0.150000
0.000185 0.003942 0.150000
0.000020 0.003499 0.150000
0.000003 0.003342 0.150000
3 0 1 2
3 2 3 4
3 2 4 5
3 6 0 2
3 7 8 9
3 9 6 2
3 2 5 10
3 2 10 11
3 7 9 2
3 12 13 7
3 14 12 7
3 7 2 11
3 15 14 7
3 11 15 7
3 16 17 18
3 16 18 19
3 20 21 22
3 20 22 23
3 24 25 26
3 24 26 27
3 28 29 30
3 28 30 31
3 32 33 34
3 34 35 36
3 36 37 38
3 39 32 34
3 36 38 39
3 34 36 39
3 40 41 42
3 40 42 43
3 44 45 46
3 44 46 47
3 48 49 44
3 50 51 48
3 52 50 48
3 48 44 47
3 53 54 55
3 48 47 53
3 56 52 48
3 57 56 48
3 48 53 55
3 48 55 58
3 59 57 48
3 60 59 48
3 48 58 61
3 61 60 48
3 43 42 62
3 43 62 63
3 64 65 66
3 64 66 67
3 27 26 68
3 27 68 69
3 70 71 72
3 72 73 74
3 72 74 75
3 76 70 72
3 72 75 77
3 72 77 76
3 78 79 29
3 78 29 28
3 80 81 82
3 82 83 84
3 82 84 85
3 86 80 82
3 87 88 86
3 82 85 89
3 89 87 86
3 82 89 86
3 67 66 90
3 67 90 91
3 42 41 92
3 92 93 94
3 94 95 96
3 96 97 98
3 98 30 29
3 29 79 54
3 54 53 47
3 54 47 46
3 98 29 54
3 94 96 98
3 42 92 94
3 99 62 42
3 18 17 99
3 100 101 18
3 102 103 100
3 104 105 102
3 104 102 100
3 100 18 99
3 99 42 94
3 94 98 54
3 54 46 45
3 94 54 45
3 100 99 94
3 106 104 100
3 106 100 94
3 94 45 44
3 49 48 51
3 94 44 49
3 70 106 94
3 73 72 71
3 71 70 94
3 94 49 51
3 51 107 3
3 3 2 1
3 1 0 6
3 1 6 9
3 51 3 1
3 71 94 51
3 108 73 71
3 21 109 108
3 110 22 21
3 111 112 110
3 113 114 111
3 115 116 113
3 35 34 115
3 37 36 35
3 117 118 37
3 88 119 117
3 80 86 88
3 120 121 82
3 122 123 120
3 124 125 122
3 126 127 124
3 128 129 126
3 26 25 128
3 68 26 128
3 128 126 124
3 124 122 120
3 120 82 80
3 80 88 117
3 117 37 35
3 35 115 113
3 113 111 110
3 110 21 108
3 108 71 51
3 51 1 9
3 9 7 130
3 130 131 90
3 90 66 65
3 65 132 133
3 65 133 134
3 130 90 65
3 51 9 130
3 110 108 51
3 35 113 110
3 80 117 35
3 124 120 80
3 68 128 124
3 130 65 134
3 134 68 124
3 124 80 35
3 35 110 51
3 51 130 134
3 134 124 35
3 51 134 35
3 31 135 136
3 136 137 138
3 138 139 140
3 140 141 40
3 40 43 63
3 63 142 16
3 16 19 143
3 143 144 145
3 145 146 147
3 145 147 148
3 16 143 145
3 40 63 16
3 138 140 40
3 31 136 138
3 78 28 31
3 58 55 78
3 60 61 58
3 59 60 58
3 58 78 31
3 31 138 40
3 40 16 145
3 40 145 148
3 58 31 40
3 59 58 40
3 40 148 149
3 40 149 76
3 57 59 40
3 50 52 56
3 56 57 40
3 40 76 77
3 77 75 74
3 74 150 151
3 151 20 23
3 23 152 153
3 153 154 155
3 155 156 157
3 157 158 33
3 33 32 39
3 39 38 159
3 159 160 161
3 161 87 89
3 89 85 84
3 84 83 162
3 162 163 164
3 164 165 166
3 166 167 168
3 168 169 170
3 170 171 24
3 24 27 69
3 170 24 69
3 166 168 170
3 162 164 166
3 89 84 162
3 159 161 89
3 33 39 159
3 155 157 33
3 23 153 155
3 74 151 23
3 40 77 74
3 50 56 40
3 4 172 50
3 10 5 4
3 15 11 10
3 13 12 14
3 14 15 10
3 10 4 50
3 50 40 74
3 74 23 155
3 155 33 159
3 159 89 162
3 162 166 170
3 170 69 173
3 174 175 64
3 162 170 173
3 173 174 64
3 64 67 91
3 91 176 177
3 177 13 14
3 14 10 50
3 50 74 155
3 155 159 162
3 162 173 64
3 64 91 177
3 177 14 50
3 50 155 162
3 162 64 177
3 162 177 50
3 142 99 17
3 142 17 16
3 74 73 108
3 74 108 150
3 55 54 79
3 55 79 78
3 119 88 87
3 119 87 161
3 150 108 109
3 150 109 151
3 141 92 41
3 141 41 40
3 92 141 140
3 92 140 139
3 95 94 92
3 137 96 95
3 92 139 138
3 138 137 95
3 92 138 95
3 159 118 117
3 159 117 160
3 31 30 98
3 31 98 135
3 177 130 7
3 177 7 13
3 128 25 24
3 128 24 171
3 129 128 171
3 129 171 170
3 168 127 126
3 126 129 170
3 169 168 126
3 170 169 126
3 101 143 19
3 101 19 18
3 160 117 119
3 160 119 161
3 121 162 83
3 121 83 82
3 162 121 120
3 162 120 163
3 151 109 21
3 151 21 20
3 165 122 125
3 165 125 166
3 23 22 110
3 23 110 152
3 164 123 122
3 164 122 165
3 63 62 99
3 63 99 142
3 3 107 172
3 3 172 4
3 172 107 51
3 172 51 50
3 136 97 96
3 136 96 137
3 176 131 130
3 176 130 177
3 106 70 76
3 106 76 149
3 104 106 149
3 104 149 148
3 105 104 148
3 105 148 147
3 102 105 147
3 102 147 146
3 103 102 146
3 103 146 145
3 143 101 100
3 100 103 145
3 144 143 100
3 145 144 100
3 38 37 118
3 38 118 159
3 115 34 33
3 115 33 158
3 111 113 115
3 153 152 110
3 154 153 110
3 110 111 115
3 115 158 157
3 115 157 156
3 154 110 115
3 115 156 155
3 115 155 154
3 135 98 97
3 135 97 136
3 124 127 168
3 124 168 167
3 166 125 124
3 166 124 167
3 91 90 131
3 91 131 176
3 163 120 123
3 163 123 164
3 134 133 132
3 132 65 64
3 132 64 175
3 68 134 132
3 173 69 68
3 132 175 174
3 174 173 68
3 132 174 68
