ply
format ascii 1.0
comment Created by Blender 3.6.8 - www.blender.org
element vertex 196
property float x
property float y
property float z
element face 379
property list uchar uint vertex_indices
end_header
0.004936 0.000027 0.000000
0.004936 0.000027 0.150000
0.004612 0.000000 0.150000
0.004612 0.000000 0.000000
0.008559 0.002816 0.150000
0.008599 0.002995 0.150000
0.008623 0.003200 0.150000
0.008622 0.003714 0.150000
0.008469 0.005341 0.150000
0.008447 0.005533 0.150000
0.008421 0.005715 0.150000
0.008390 0.005891 0.150000
0.008350 0.006068 0.150000
0.008300 0.006251 0.150000
0.008237 0.006445 0.150000
0.007936 0.007257 0.150000
0.007869 0.007429 0.150000
0.007800 0.007585 0.150000
0.007727 0.007723 0.150000
0.007648 0.007842 0.150000
0.007560 0.007942 0.150000
0.007459 0.008020 0.150000
0.007343 0.008075 0.150000
0.007209 0.008107 0.150000
0.007055 0.008114 0.150000
0.006496 0.008096 0.150000
0.006290 0.008088 0.150000
0.006080 0.008078 0.150000
0.005869 0.008065 0.150000
0.005660 0.008048 0.150000
0.005457 0.008028 0.150000
0.005081 0.007972 0.150000
0.004768 0.007891 0.150000
0.004250 0.007689 0.150000
0.004027 0.007583 0.150000
0.003928 0.007530 0.150000
0.003840 0.007478 0.150000
0.003697 0.007375 0.150000
0.003646 0.007325 0.150000
0.003570 0.007225 0.150000
0.008443 0.002513 0.150000
0.008507 0.002658 0.150000
0.007780 0.001488 0.150000
0.007896 0.001633 0.150000
0.007366 0.001130 0.150000
0.007653 0.001358 0.150000
0.007031 0.000929 0.150000
0.007205 0.001028 0.150000
0.005728 0.000274 0.150000
0.006845 0.000831 0.150000
0.005303 0.000112 0.150000
0.004318 0.000013 0.150000
0.004039 0.000046 0.150000
0.004177 0.000028 0.150000
0.003744 0.000087 0.150000
0.003901 0.000065 0.150000
0.003335 0.000158 0.150000
0.003554 0.000118 0.150000
0.002832 0.000260 0.150000
0.003093 0.000205 0.150000
0.002272 0.000389 0.150000
0.002557 0.000321 0.150000
0.001695 0.000540 0.150000
0.001984 0.000462 0.150000
0.001139 0.000710 0.150000
0.001412 0.000623 0.150000
0.000490 0.000972 0.150000
0.000881 0.000800 0.150000
0.000273 0.001134 0.150000
0.000363 0.001054 0.150000
0.000175 0.001300 0.150000
0.000212 0.001216 0.150000
0.000109 0.001703 0.150000
0.000153 0.001389 0.150000
0.000000 0.002161 0.150000
0.000030 0.001969 0.150000
0.000079 0.001829 0.150000
0.000028 0.002428 0.150000
0.003448 0.007097 0.150000
0.000215 0.003117 0.150000
0.000507 0.003897 0.150000
0.000353 0.003504 0.150000
0.000819 0.004627 0.150000
0.000665 0.004277 0.150000
0.001067 0.005169 0.150000
0.000956 0.004931 0.150000
0.001169 0.005380 0.150000
0.001142 0.005324 0.150000
0.001481 0.005584 0.150000
0.003373 0.007027 0.150000
0.003292 0.006955 0.150000
0.001803 0.005802 0.150000
0.003211 0.006885 0.150000
0.003058 0.006758 0.150000
0.002901 0.006633 0.150000
0.002737 0.006494 0.150000
0.001987 0.005930 0.150000
0.002558 0.006351 0.150000
0.002177 0.006066 0.150000
0.002370 0.006207 0.150000
0.000273 0.001134 0.000000
0.000363 0.001054 0.000000
0.007366 0.001130 0.000000
0.007653 0.001358 0.000000
0.005303 0.000112 0.000000
0.004318 0.000013 0.000000
0.004177 0.000028 0.000000
0.004039 0.000046 0.000000
0.003901 0.000065 0.000000
0.003744 0.000087 0.000000
0.003554 0.000118 0.000000
0.003335 0.000158 0.000000
0.003093 0.000205 0.000000
0.002832 0.000260 0.000000
0.002557 0.000321 0.000000
0.002272 0.000389 0.000000
0.001984 0.000462 0.000000
0.001695 0.000540 0.000000
0.001412 0.000623 0.000000
0.001139 0.000710 0.000000
0.000881 0.000800 0.000000
0.000490 0.000972 0.000000
0.000212 0.001216 0.000000
0.000175 0.001300 0.000000
0.000153 0.001389 0.000000
0.000109 0.001703 0.000000
0.005728 0.000274 0.000000
0.007031 0.000929 0.000000
0.006845 0.000831 0.000000
0.007205 0.001028 0.000000
0.007780 0.001488 0.000000
0.008443 0.002513 0.000000
0.007896 0.001633 0.000000
0.008559 0.002816 0.000000
0.008507 0.002658 0.000000
0.008623 0.003200 0.000000
0.008599 0.002995 0.000000
0.008469 0.005341 0.000000
0.008622 0.003714 0.000000
0.008421 0.005715 0.000000
0.008447 0.005533 0.000000
0.008350 0.006068 0.000000
0.008390 0.005891 0.000000
0.008237 0.006445 0.000000
0.008300 0.006251 0.000000
0.007869 0.007429 0.000000
0.007936 0.007257 0.000000
0.007727 0.007723 0.000000
0.007800 0.007585 0.000000
0.007560 0.007942 0.000000
0.007648 0.007842 0.000000
0.007343 0.008075 0.000000
0.007459 0.008020 0.000000
0.007055 0.008114 0.000000
0.007209 0.008107 0.000000
0.006290 0.008088 0.000000
0.006496 0.008096 0.000000
0.005869 0.008065 0.000000
0.006080 0.008078 0.000000
0.005457 0.008028 0.000000
0.005660 0.008048 0.000000
0.004768 0.007891 0.000000
0.005081 0.007972 0.000000
0.004027 0.007583 0.000000
0.004250 0.007689 0.000000
0.003840 0.007478 0.000000
0.003928 0.007530 0.000000
0.003646 0.007325 0.000000
0.003697 0.007375 0.000000
0.003570 0.007225 0.000000
0.000079 0.001829 0.000000
0.000030 0.001969 0.000000
0.000000 0.002161 0.000000
0.003448 0.007097 0.000000
0.000028 0.002428 0.000000
0.000215 0.003117 0.000000
0.000353 0.003504 0.000000
0.000507 0.003897 0.000000
0.000665 0.004277 0.000000
0.000819 0.004627 0.000000
0.000956 0.004931 0.000000
0.001067 0.005169 0.000000
0.001142 0.005324 0.000000
0.001169 0.005380 0.000000
0.001481 0.005584 0.000000
0.003373 0.007027 0.000000
0.003292 0.006955 0.000000
0.001803 0.005802 0.000000
0.001987 0.005930 0.000000
0.003211 0.006885 0.000000
0.002737 0.006494 0.000000
0.002901 0.006633 0.000000
0.003058 0.006758 0.000000
0.002177 0.006066 0.000000
0.002558 0.006351 0.000000
0.002370 0.006207 0.000000
3 0 1 2
3 0 2 3
3 4 5 6
3 6 7 8
3 8 9 10
3 10 11 12
3 12 13 14
3 14 15 16
3 16 17 18
3 18 19 20
3 20 21 22
3 22 23 24
3 24 25 26
3 26 27 28
3 28 29 30
3 30 31 32
3 32 33 34
3 34 35 36
3 36 37 38
3 36 38 39
3 32 34 36
3 28 30 32
3 24 26 28
3 20 22 24
3 16 18 20
3 12 14 16
3 8 10 12
3 4 6 8
3 40 41 4
3 42 43 40
3 44 45 42
3 46 47 44
3 48 49 46
3 1 50 48
3 51 2 1
3 52 53 51
3 54 55 52
3 56 57 54
3 58 59 56
3 60 61 58
3 62 63 60
3 64 65 62
3 66 67 64
3 68 69 66
3 70 71 68
3 72 73 70
3 74 75 76
3 72 70 68
3 77 74 76
3 76 72 68
3 68 66 64
3 64 62 60
3 60 58 56
3 56 54 52
3 52 51 1
3 1 48 46
3 46 44 42
3 42 40 4
3 4 8 12
3 12 16 20
3 20 24 28
3 28 32 36
3 36 39 78
3 28 36 78
3 12 20 28
3 42 4 12
3 1 46 42
3 56 52 1
3 64 60 56
3 76 68 64
3 79 77 76
3 80 81 79
3 82 83 80
3 84 85 82
3 86 87 84
3 88 86 84
3 84 82 80
3 80 79 76
3 76 64 56
3 56 1 42
3 42 12 28
3 28 78 89
3 28 89 90
3 56 42 28
3 80 76 56
3 88 84 80
3 91 88 80
3 80 56 28
3 28 90 92
3 93 94 95
3 28 92 93
3 91 80 28
3 96 91 28
3 28 93 95
3 28 95 97
3 98 96 28
3 28 97 99
3 28 99 98
3 68 100 101
3 68 101 69
3 44 102 103
3 44 103 45
3 104 0 3
3 3 105 106
3 106 107 108
3 108 109 110
3 110 111 112
3 112 113 114
3 114 115 116
3 116 117 118
3 118 119 120
3 120 121 101
3 101 100 122
3 122 123 124
3 122 124 125
3 120 101 122
3 116 118 120
3 112 114 116
3 108 110 112
3 3 106 108
3 126 104 3
3 127 128 126
3 102 129 127
3 130 103 102
3 131 132 130
3 133 134 131
3 135 136 133
3 137 138 135
3 139 140 137
3 141 142 139
3 143 144 141
3 145 146 143
3 147 148 145
3 149 150 147
3 151 152 149
3 153 154 151
3 155 156 153
3 157 158 155
3 159 160 157
3 161 162 159
3 163 164 161
3 165 166 163
3 167 168 165
3 169 167 165
3 165 163 161
3 161 159 157
3 157 155 153
3 153 151 149
3 149 147 145
3 145 143 141
3 141 139 137
3 137 135 133
3 133 131 130
3 130 102 127
3 127 126 3
3 3 108 112
3 112 116 120
3 120 122 125
3 170 171 172
3 120 125 170
3 3 112 120
3 130 127 3
3 137 133 130
3 145 141 137
3 153 149 145
3 161 157 153
3 169 165 161
3 173 169 161
3 161 153 145
3 145 137 130
3 130 3 120
3 120 170 172
3 172 174 175
3 175 176 177
3 177 178 179
3 179 180 181
3 181 182 183
3 181 183 184
3 177 179 181
3 172 175 177
3 130 120 172
3 161 145 130
3 185 173 161
3 186 185 161
3 161 130 172
3 172 177 181
3 181 184 187
3 181 187 188
3 161 172 181
3 189 186 161
3 190 191 192
3 192 189 161
3 161 181 188
3 161 188 193
3 190 192 161
3 194 190 161
3 161 193 195
3 195 194 161
3 41 134 133
3 41 133 4
3 76 170 125
3 76 125 72
3 3 2 51
3 3 51 105
3 129 102 44
3 129 44 47
3 127 129 47
3 127 47 46
3 48 126 128
3 128 127 46
3 49 48 128
3 46 49 128
3 4 133 136
3 4 136 5
3 66 121 120
3 66 120 67
3 104 50 1
3 104 1 0
3 74 172 171
3 74 171 75
3 160 159 30
3 160 30 29
3 157 160 29
3 157 29 28
3 158 157 28
3 158 28 27
3 155 158 27
3 155 27 26
3 24 153 156
3 156 155 26
3 25 24 156
3 26 25 156
3 70 123 122
3 70 122 71
3 159 162 31
3 159 31 30
3 135 138 7
3 135 7 6
3 144 143 14
3 144 14 13
3 11 142 141
3 141 144 13
3 12 11 141
3 13 12 141
3 132 131 40
3 132 40 43
3 18 147 150
3 18 150 19
3 165 168 37
3 165 37 36
3 69 101 121
3 69 121 66
3 22 151 154
3 22 154 23
3 37 168 167
3 37 167 38
3 73 124 123
3 73 123 70
3 175 79 81
3 175 81 80
3 179 177 175
3 87 86 183
3 84 87 183
3 183 181 179
3 179 175 80
3 179 80 83
3 84 183 179
3 85 84 179
3 179 83 82
3 82 85 179
3 126 48 50
3 126 50 104
3 165 36 35
3 34 33 164
3 165 35 34
3 164 163 165
3 165 34 164
3 15 14 143
3 15 143 146
3 148 17 16
3 16 15 146
3 145 148 16
3 146 145 16
3 78 173 185
3 89 78 185
3 89 185 186
3 90 89 186
3 90 186 189
3 92 90 189
3 92 189 192
3 93 92 192
3 93 192 190
3 94 93 190
3 94 190 194
3 95 94 194
3 95 194 195
3 97 95 195
3 97 195 193
3 99 97 193
3 99 193 188
3 98 99 188
3 98 188 187
3 96 98 187
3 184 183 86
3 96 187 184
3 91 96 184
3 184 86 88
3 184 88 91
3 77 174 172
3 77 172 74
3 45 103 130
3 45 130 42
3 42 130 132
3 42 132 43
3 20 149 152
3 20 152 21
3 79 175 174
3 79 174 77
3 64 67 120
3 116 63 62
3 65 64 120
3 116 62 65
3 120 116 65
3 161 164 33
3 161 33 32
3 38 167 169
3 38 169 39
3 23 154 153
3 23 153 24
3 19 150 149
3 19 149 20
3 106 105 51
3 106 51 53
3 107 106 53
3 107 53 52
3 108 107 52
3 108 52 55
3 109 108 55
3 109 55 54
3 110 109 54
3 110 54 57
3 111 110 57
3 111 57 56
3 112 111 56
3 112 56 59
3 113 112 59
3 113 59 58
3 114 113 58
3 114 58 61
3 63 116 115
3 115 114 61
3 60 63 115
3 115 61 60
3 71 122 100
3 71 100 68
3 139 142 11
3 139 11 10
3 140 139 10
3 140 10 9
3 7 138 137
3 137 140 9
3 8 7 137
3 9 8 137
3 5 136 135
3 5 135 6
3 125 124 73
3 125 73 72
3 17 148 147
3 17 147 18
3 162 161 32
3 162 32 31
3 21 152 151
3 21 151 22
3 75 171 170
3 75 170 76
3 40 131 134
3 40 134 41
3 39 169 173
3 39 173 78
