ply
format ascii 1.0
comment Created by Blender 3.6.8 - www.blender.org
element vertex 290
property float x
property float y
property float z
element face 566
property list uchar uint vertex_indices
end_header
0.005947 0.000001 0.150000
0.005947 0.000001 0.000000
0.006346 0.000022 0.000000
0.006346 0.000022 0.150000
0.000405 0.006197 0.000000
0.000398 0.006139 0.000000
0.000386 0.006072 0.000000
0.000369 0.005996 0.000000
0.000350 0.005918 0.000000
0.000350 0.005918 0.150000
0.000369 0.005996 0.150000
0.000386 0.006072 0.150000
0.000398 0.006139 0.150000
0.000405 0.006197 0.150000
0.006669 0.000109 0.000000
0.007565 0.000619 0.000000
0.007565 0.000619 0.150000
0.006669 0.000109 0.150000
0.005540 0.010041 0.000000
0.005413 0.010032 0.000000
0.005413 0.010032 0.150000
0.005540 0.010041 0.150000
0.000000 0.004574 0.150000
0.000000 0.004574 0.000000
0.000012 0.004447 0.000000
0.000012 0.004447 0.150000
0.001764 0.008570 0.000000
0.001647 0.008530 0.000000
0.001647 0.008530 0.150000
0.001764 0.008570 0.150000
0.003631 0.009078 0.000000
0.003589 0.009056 0.000000
0.003589 0.009056 0.150000
0.003631 0.009078 0.150000
0.003676 0.009103 0.000000
0.003676 0.009103 0.150000
0.003724 0.009132 0.000000
0.003724 0.009132 0.150000
0.003776 0.009163 0.000000
0.003776 0.009163 0.150000
0.003831 0.009197 0.000000
0.003831 0.009197 0.150000
0.004347 0.009532 0.000000
0.004288 0.009495 0.000000
0.003889 0.009234 0.000000
0.003889 0.009234 0.150000
0.004402 0.009565 0.000000
0.004497 0.009622 0.000000
0.004452 0.009595 0.000000
0.004722 0.009750 0.000000
0.004693 0.009735 0.000000
0.004668 0.009720 0.000000
0.004288 0.009495 0.150000
0.004693 0.009735 0.150000
0.004722 0.009750 0.150000
0.004668 0.009720 0.150000
0.004347 0.009532 0.150000
0.004497 0.009622 0.150000
0.004452 0.009595 0.150000
0.004402 0.009565 0.150000
0.008771 0.002084 0.000000
0.008672 0.001943 0.000000
0.008362 0.001551 0.000000
0.008263 0.001416 0.000000
0.008078 0.001132 0.000000
0.007983 0.001006 0.000000
0.008948 0.002407 0.000000
0.007782 0.000793 0.000000
0.009082 0.002813 0.000000
0.009022 0.002598 0.000000
0.009152 0.003335 0.000000
0.009126 0.003057 0.000000
0.009192 0.004371 0.000000
0.009188 0.004136 0.000000
0.009118 0.005405 0.000000
0.009190 0.004593 0.000000
0.008972 0.005999 0.000000
0.009031 0.005798 0.000000
0.008718 0.006788 0.000000
0.008782 0.006597 0.000000
0.008588 0.007154 0.000000
0.008654 0.006974 0.000000
0.008220 0.007956 0.000000
0.008520 0.007329 0.000000
0.008053 0.008220 0.000000
0.008135 0.008093 0.000000
0.007728 0.008752 0.000000
0.007788 0.008656 0.000000
0.007979 0.008339 0.000000
0.007665 0.008844 0.000000
0.006515 0.000057 0.000000
0.005443 0.000041 0.000000
0.005143 0.000083 0.000000
0.004804 0.000140 0.000000
0.004424 0.000209 0.000000
0.003525 0.000388 0.000000
0.003087 0.000484 0.000000
0.002534 0.000651 0.000000
0.002386 0.000727 0.000000
0.002303 0.000800 0.000000
0.002269 0.000872 0.000000
0.002267 0.000946 0.000000
0.002296 0.001108 0.000000
0.007598 0.008934 0.000000
0.007246 0.009290 0.000000
0.007443 0.009110 0.000000
0.006784 0.009624 0.000000
0.007017 0.009466 0.000000
0.006357 0.009869 0.000000
0.006560 0.009760 0.000000
0.006188 0.009945 0.000000
0.006268 0.009911 0.000000
0.006013 0.009995 0.000000
0.006065 0.009985 0.000000
0.005890 0.010015 0.000000
0.005954 0.010005 0.000000
0.005751 0.010032 0.000000
0.005822 0.010024 0.000000
0.005680 0.010037 0.000000
0.005358 0.010020 0.000000
0.004857 0.009813 0.000000
0.005311 0.010004 0.000000
0.004760 0.009769 0.000000
0.004805 0.009790 0.000000
0.002295 0.001201 0.000000
0.002261 0.001303 0.000000
0.002180 0.001419 0.000000
0.001689 0.001973 0.000000
0.001254 0.002476 0.000000
0.000812 0.003003 0.000000
0.000610 0.003253 0.000000
0.000430 0.003483 0.000000
0.000283 0.003683 0.000000
0.000175 0.003844 0.000000
0.000117 0.003958 0.000000
0.000002 0.004623 0.000000
0.000008 0.004667 0.000000
0.000015 0.004712 0.000000
0.000152 0.005348 0.000000
0.000169 0.005410 0.000000
0.000187 0.005467 0.000000
0.000309 0.005786 0.000000
0.003515 0.009020 0.000000
0.000395 0.006903 0.000000
0.000473 0.007518 0.000000
0.000481 0.007561 0.000000
0.000489 0.007599 0.000000
0.000498 0.007633 0.000000
0.000506 0.007665 0.000000
0.000516 0.007694 0.000000
0.000526 0.007723 0.000000
0.000563 0.007814 0.000000
0.000582 0.007849 0.000000
0.000610 0.007886 0.000000
0.000685 0.007963 0.000000
0.000778 0.008041 0.000000
0.000829 0.008080 0.000000
0.000880 0.008116 0.000000
0.000930 0.008151 0.000000
0.000979 0.008184 0.000000
0.001066 0.008240 0.000000
0.001106 0.008264 0.000000
0.001150 0.008289 0.000000
0.001197 0.008315 0.000000
0.001246 0.008340 0.000000
0.001297 0.008366 0.000000
0.001349 0.008392 0.000000
0.001401 0.008417 0.000000
0.001453 0.008442 0.000000
0.001504 0.008465 0.000000
0.001554 0.008488 0.000000
0.001602 0.008510 0.000000
0.001928 0.008613 0.000000
0.002736 0.008785 0.000000
0.003220 0.008919 0.000000
0.004760 0.009769 0.150000
0.004805 0.009790 0.150000
0.004857 0.009813 0.150000
0.005358 0.010020 0.150000
0.005311 0.010004 0.150000
0.008588 0.007154 0.150000
0.008520 0.007329 0.150000
0.008220 0.007956 0.150000
0.008135 0.008093 0.150000
0.008053 0.008220 0.150000
0.007979 0.008339 0.150000
0.007788 0.008656 0.150000
0.007728 0.008752 0.150000
0.007665 0.008844 0.150000
0.008718 0.006788 0.150000
0.008654 0.006974 0.150000
0.008972 0.005999 0.150000
0.008782 0.006597 0.150000
0.009118 0.005405 0.150000
0.009031 0.005798 0.150000
0.009192 0.004371 0.150000
0.009190 0.004593 0.150000
0.009152 0.003335 0.150000
0.009188 0.004136 0.150000
0.009082 0.002813 0.150000
0.009126 0.003057 0.150000
0.008948 0.002407 0.150000
0.009022 0.002598 0.150000
0.008672 0.001943 0.150000
0.008771 0.002084 0.150000
0.008362 0.001551 0.150000
0.007598 0.008934 0.150000
0.007443 0.009110 0.150000
0.007246 0.009290 0.150000
0.007017 0.009466 0.150000
0.006784 0.009624 0.150000
0.006560 0.009760 0.150000
0.006357 0.009869 0.150000
0.006268 0.009911 0.150000
0.006188 0.009945 0.150000
0.006065 0.009985 0.150000
0.006013 0.009995 0.150000
0.005954 0.010005 0.150000
0.005890 0.010015 0.150000
0.005822 0.010024 0.150000
0.005751 0.010032 0.150000
0.005680 0.010037 0.150000
0.008263 0.001416 0.150000
0.007983 0.001006 0.150000
0.008078 0.001132 0.150000
0.007782 0.000793 0.150000
0.006515 0.000057 0.150000
0.005143 0.000083 0.150000
0.005443 0.000041 0.150000
0.004424 0.000209 0.150000
0.004804 0.000140 0.150000
0.003087 0.000484 0.150000
0.003525 0.000388 0.150000
0.002386 0.000727 0.150000
0.002534 0.000651 0.150000
0.002269 0.000872 0.150000
0.002303 0.000800 0.150000
0.002296 0.001108 0.150000
0.002267 0.000946 0.150000
0.002295 0.001201 0.150000
0.002261 0.001303 0.150000
0.002180 0.001419 0.150000
0.001254 0.002476 0.150000
0.001689 0.001973 0.150000
0.000610 0.003253 0.150000
0.000812 0.003003 0.150000
0.000283 0.003683 0.150000
0.000430 0.003483 0.150000
0.000117 0.003958 0.150000
0.000175 0.003844 0.150000
0.000008 0.004667 0.150000
0.000002 0.004623 0.150000
0.000152 0.005348 0.150000
0.000015 0.004712 0.150000
0.000187 0.005467 0.150000
0.000169 0.005410 0.150000
0.000309 0.005786 0.150000
0.003515 0.009020 0.150000
0.003220 0.008919 0.150000
0.002736 0.008785 0.150000
0.001928 0.008613 0.150000
0.000473 0.007518 0.150000
0.000395 0.006903 0.150000
0.000489 0.007599 0.150000
0.000481 0.007561 0.150000
0.000506 0.007665 0.150000
0.000498 0.007633 0.150000
0.000526 0.007723 0.150000
0.000516 0.007694 0.150000
0.000582 0.007849 0.150000
0.000563 0.007814 0.150000
0.000685 0.007963 0.150000
0.000610 0.007886 0.150000
0.000829 0.008080 0.150000
0.000778 0.008041 0.150000
0.000930 0.008151 0.150000
0.000880 0.008116 0.150000
0.001066 0.008240 0.150000
0.000979 0.008184 0.150000
0.001150 0.008289 0.150000
0.001106 0.008264 0.150000
0.001246 0.008340 0.150000
0.001197 0.008315 0.150000
0.001349 0.008392 0.150000
0.001297 0.008366 0.150000
0.001453 0.008442 0.150000
0.001401 0.008417 0.150000
0.001554 0.008488 0.150000
0.001504 0.008465 0.150000
0.001602 0.008510 0.150000
3 0 1 2
3 0 2 3
3 4 5 6
3 6 7 8
3 8 9 10
3 8 10 11
3 4 6 8
3 12 13 4
3 8 11 12
3 8 12 4
3 14 15 16
3 14 16 17
3 18 19 20
3 18 20 21
3 22 23 24
3 22 24 25
3 26 27 28
3 26 28 29
3 30 31 32
3 30 32 33
3 34 30 33
3 34 33 35
3 36 34 35
3 36 35 37
3 38 36 37
3 38 37 39
3 40 38 39
3 40 39 41
3 42 43 44
3 44 40 41
3 44 41 45
3 46 42 44
3 47 48 46
3 49 50 51
3 51 47 46
3 46 44 45
3 46 45 52
3 49 51 46
3 53 54 49
3 55 53 49
3 49 46 52
3 49 52 56
3 57 55 49
3 58 57 49
3 49 56 59
3 59 58 49
3 60 61 62
3 63 64 65
3 66 60 62
3 63 65 67
3 66 62 63
3 68 69 66
3 70 71 68
3 72 73 70
3 74 75 72
3 76 77 74
3 78 79 76
3 80 81 78
3 82 83 80
3 84 85 82
3 86 87 88
3 84 82 80
3 89 86 88
3 88 84 80
3 80 78 76
3 76 74 72
3 72 70 68
3 68 66 63
3 63 67 15
3 15 14 90
3 90 2 1
3 1 91 92
3 92 93 94
3 94 95 96
3 96 97 98
3 98 99 100
3 100 101 102
3 98 100 102
3 94 96 98
3 1 92 94
3 15 90 1
3 68 63 15
3 76 72 68
3 88 80 76
3 103 89 88
3 104 105 103
3 106 107 104
3 108 109 106
3 110 111 108
3 112 113 110
3 114 115 112
3 116 117 114
3 18 118 116
3 119 19 18
3 120 121 119
3 122 123 120
3 50 49 122
3 48 47 51
3 51 50 122
3 122 120 119
3 119 18 116
3 116 114 112
3 112 110 108
3 108 106 104
3 104 103 88
3 88 76 68
3 68 15 1
3 1 94 98
3 98 102 124
3 1 98 124
3 88 68 1
3 108 104 88
3 116 112 108
3 122 119 116
3 48 51 122
3 42 46 48
3 44 42 48
3 48 122 116
3 116 108 88
3 88 1 124
3 88 124 125
3 48 116 88
3 44 48 88
3 88 125 126
3 126 127 128
3 128 129 130
3 130 131 132
3 132 133 134
3 134 24 23
3 23 135 136
3 136 137 138
3 138 139 140
3 138 140 141
3 23 136 138
3 132 134 23
3 128 130 132
3 88 126 128
3 40 44 88
3 38 40 88
3 88 128 132
3 132 23 138
3 132 138 141
3 38 88 132
3 36 38 132
3 132 141 8
3 132 8 7
3 34 36 132
3 30 34 132
3 132 7 6
3 132 6 5
3 31 30 132
3 142 31 132
3 132 5 4
3 4 143 144
3 144 145 146
3 146 147 148
3 148 149 150
3 150 151 152
3 152 153 154
3 154 155 156
3 156 157 158
3 158 159 160
3 160 161 162
3 162 163 164
3 164 165 166
3 166 167 168
3 168 169 170
3 170 171 27
3 27 26 172
3 27 172 173
3 168 170 27
3 164 166 168
3 160 162 164
3 156 158 160
3 152 154 156
3 148 150 152
3 144 146 148
3 132 4 144
3 174 142 132
3 168 27 173
3 173 174 132
3 132 144 148
3 148 152 156
3 156 160 164
3 164 168 173
3 173 132 148
3 148 156 164
3 148 164 173
3 122 49 54
3 122 54 175
3 123 122 175
3 123 175 176
3 120 123 176
3 120 176 177
3 178 119 121
3 121 120 177
3 179 178 121
3 177 179 121
3 180 181 182
3 182 183 184
3 185 186 187
3 180 182 184
3 185 187 188
3 180 184 185
3 189 190 180
3 191 192 189
3 193 194 191
3 195 196 193
3 197 198 195
3 199 200 197
3 201 202 199
3 203 204 201
3 205 203 201
3 201 199 197
3 197 195 193
3 193 191 189
3 189 180 185
3 185 188 206
3 206 207 208
3 208 209 210
3 210 211 212
3 212 213 214
3 214 215 216
3 216 217 218
3 218 219 220
3 220 221 21
3 21 20 178
3 178 179 177
3 177 176 175
3 175 54 53
3 55 57 58
3 175 53 55
3 178 177 175
3 220 21 178
3 216 218 220
3 212 214 216
3 208 210 212
3 185 206 208
3 193 189 185
3 201 197 193
3 222 205 201
3 223 224 222
3 16 225 223
3 226 17 16
3 0 3 226
3 227 228 0
3 229 230 227
3 231 232 229
3 233 234 231
3 235 236 233
3 237 238 235
3 237 235 233
3 233 231 229
3 229 227 0
3 0 226 16
3 16 223 222
3 222 201 193
3 193 185 208
3 208 212 216
3 216 220 178
3 178 175 55
3 55 58 59
3 59 56 52
3 59 52 45
3 178 55 59
3 208 216 178
3 222 193 208
3 0 16 222
3 233 229 0
3 239 237 233
3 239 233 0
3 0 222 208
3 208 178 59
3 208 59 45
3 239 0 208
3 240 239 208
3 208 45 41
3 208 41 39
3 241 240 208
3 242 243 241
3 244 245 242
3 246 247 244
3 248 249 246
3 22 25 248
3 250 251 22
3 252 253 250
3 254 255 252
3 256 254 252
3 252 250 22
3 22 248 246
3 246 244 242
3 242 241 208
3 208 39 37
3 208 37 35
3 246 242 208
3 252 22 246
3 256 252 246
3 246 208 35
3 246 35 33
3 9 256 246
3 10 9 246
3 246 33 32
3 246 32 257
3 11 10 246
3 12 11 246
3 246 257 258
3 259 260 29
3 246 258 259
3 13 12 246
3 261 262 13
3 263 264 261
3 265 266 263
3 267 268 265
3 269 270 267
3 271 272 269
3 273 274 271
3 275 276 273
3 277 278 275
3 279 280 277
3 281 282 279
3 283 284 281
3 285 286 283
3 287 288 285
3 28 289 287
3 259 29 28
3 13 246 259
3 263 261 13
3 267 265 263
3 271 269 267
3 275 273 271
3 279 277 275
3 283 281 279
3 287 285 283
3 259 28 287
3 263 13 259
3 271 267 263
3 279 275 271
3 287 283 279
3 263 259 287
3 279 271 263
3 287 279 263
3 149 148 265
3 149 265 268
3 270 151 150
3 150 149 268
3 267 270 150
3 268 267 150
3 72 75 196
3 72 196 195
3 73 72 195
3 73 195 198
3 200 71 70
3 70 73 198
3 197 200 70
3 198 197 70
3 61 60 204
3 61 204 203
3 62 61 203
3 62 203 205
3 63 62 205
3 63 205 222
3 223 65 64
3 64 63 222
3 224 223 64
3 222 224 64
3 111 110 214
3 111 214 213
3 211 109 108
3 108 111 213
3 212 211 108
3 213 212 108
3 101 238 237
3 101 237 102
3 221 118 18
3 221 18 21
3 75 74 193
3 75 193 196
3 172 26 29
3 172 29 260
3 258 174 173
3 173 172 260
3 259 258 173
3 260 259 173
3 74 77 194
3 74 194 193
3 91 1 0
3 91 0 228
3 239 124 102
3 239 102 237
3 256 9 8
3 256 8 141
3 254 256 141
3 254 141 140
3 138 252 255
3 255 254 140
3 139 138 255
3 140 139 255
3 238 101 100
3 238 100 235
3 235 100 99
3 235 99 236
3 105 104 208
3 105 208 207
3 80 83 181
3 80 181 180
3 194 77 76
3 191 194 76
3 76 80 180
3 76 180 190
3 192 191 76
3 76 190 189
3 189 192 76
3 92 91 228
3 92 228 227
3 93 92 227
3 93 227 230
3 94 93 230
3 94 230 229
3 231 96 95
3 95 94 229
3 232 231 95
3 229 232 95
3 142 174 258
3 142 258 257
3 226 90 14
3 226 14 17
3 20 19 119
3 20 119 178
3 206 103 105
3 206 105 207
3 163 162 279
3 163 279 282
3 164 163 282
3 164 282 281
3 165 164 281
3 165 281 284
3 166 165 284
3 166 284 283
3 167 166 283
3 167 283 286
3 168 167 286
3 168 286 285
3 169 168 285
3 169 285 288
3 170 169 288
3 170 288 287
3 28 27 171
3 171 170 287
3 289 28 171
3 287 289 171
3 110 113 215
3 110 215 214
3 269 152 151
3 269 151 270
3 134 248 25
3 134 25 24
3 155 154 271
3 155 271 274
3 225 67 65
3 225 65 223
3 89 103 206
3 89 206 188
3 86 89 188
3 86 188 187
3 87 86 187
3 87 187 186
3 88 87 186
3 88 186 185
3 84 88 185
3 84 185 184
3 182 82 85
3 85 84 184
3 183 182 85
3 184 183 85
3 266 265 148
3 144 261 264
3 263 266 148
3 144 264 263
3 148 144 263
3 199 68 71
3 199 71 200
3 249 133 132
3 249 132 246
3 233 98 97
3 233 97 234
3 136 135 251
3 136 251 250
3 252 138 137
3 137 136 250
3 253 252 137
3 250 253 137
3 251 135 23
3 251 23 22
3 32 31 142
3 32 142 257
3 240 125 124
3 240 124 239
3 3 2 90
3 3 90 226
3 202 69 68
3 202 68 199
3 247 246 132
3 126 125 240
3 126 240 241
3 130 128 126
3 247 132 130
3 244 247 130
3 130 126 241
3 130 241 243
3 245 244 130
3 130 243 242
3 130 242 245
3 272 153 152
3 272 152 269
3 97 96 231
3 97 231 234
3 262 143 4
3 262 4 13
3 156 155 274
3 156 274 273
3 157 156 273
3 157 273 276
3 158 157 276
3 158 276 275
3 159 158 275
3 159 275 278
3 160 159 278
3 160 278 277
3 279 162 161
3 161 160 277
3 280 279 161
3 277 280 161
3 204 60 66
3 204 66 201
3 116 118 221
3 116 221 220
3 117 116 220
3 117 220 219
3 114 117 219
3 114 219 218
3 115 114 218
3 115 218 217
3 215 113 112
3 112 115 217
3 216 215 112
3 217 216 112
3 144 143 262
3 144 262 261
3 15 67 225
3 15 225 16
3 106 109 211
3 106 211 210
3 208 104 107
3 107 106 210
3 209 208 107
3 107 210 209
3 248 134 133
3 248 133 249
3 236 99 98
3 236 98 233
3 271 154 153
3 271 153 272
3 201 66 69
3 201 69 202
3 83 82 182
3 83 182 181
