ply
format ascii 1.0
comment Created by Blender 3.6.8 - www.blender.org
element vertex 158
property float x
property float y
property float z
element face 309
property list uchar uint vertex_indices
end_header
0.009158 0.000177 0.150000
0.009158 0.000177 0.000000
0.009268 0.000228 0.000000
0.009268 0.000228 0.150000
0.007492 0.000018 0.150000
0.007492 0.000018 0.000000
0.007719 0.000001 0.000000
0.007719 0.000001 0.150000
0.001228 0.010036 0.000000
0.001001 0.009964 0.000000
0.001001 0.009964 0.150000
0.001228 0.010036 0.150000
0.003545 0.002476 0.000000
0.004081 0.001863 0.000000
0.004185 0.001758 0.000000
0.004185 0.001758 0.150000
0.004081 0.001863 0.150000
0.003545 0.002476 0.150000
0.003214 0.002816 0.150000
0.003214 0.002816 0.000000
0.000841 0.005023 0.000000
0.000999 0.004785 0.000000
0.000999 0.004785 0.150000
0.000841 0.005023 0.150000
0.001361 0.010069 0.000000
0.001361 0.010069 0.150000
0.001502 0.010101 0.000000
0.001502 0.010101 0.150000
0.001647 0.010129 0.000000
0.001647 0.010129 0.150000
0.001793 0.010155 0.000000
0.001793 0.010155 0.150000
0.002076 0.010197 0.150000
0.002076 0.010197 0.000000
0.001937 0.010177 0.000000
0.001937 0.010177 0.150000
0.002683 0.010201 0.150000
0.002683 0.010201 0.000000
0.002599 0.010221 0.000000
0.002599 0.010221 0.150000
0.008566 0.000049 0.000000
0.008893 0.000099 0.000000
0.008893 0.000099 0.150000
0.008566 0.000049 0.150000
0.009877 0.001360 0.000000
0.009885 0.001206 0.000000
0.009871 0.001080 0.000000
0.009839 0.000977 0.000000
0.009794 0.000888 0.000000
0.009740 0.000808 0.000000
0.009682 0.000729 0.000000
0.009624 0.000644 0.000000
0.009514 0.000448 0.000000
0.009445 0.000363 0.000000
0.009363 0.000290 0.000000
0.009842 0.001550 0.000000
0.008822 0.003914 0.000000
0.009676 0.002066 0.000000
0.008291 0.004729 0.000000
0.008561 0.004357 0.000000
0.007838 0.005187 0.000000
0.007998 0.005046 0.000000
0.006977 0.005910 0.000000
0.007044 0.000104 0.000000
0.006591 0.000258 0.000000
0.006122 0.000476 0.000000
0.005626 0.000753 0.000000
0.004834 0.001254 0.000000
0.004449 0.001531 0.000000
0.001222 0.004524 0.000000
0.006807 0.006060 0.000000
0.000721 0.005264 0.000000
0.000416 0.006056 0.000000
0.000232 0.006840 0.000000
0.000000 0.008516 0.000000
0.000140 0.009322 0.000000
0.000160 0.009393 0.000000
0.000179 0.009443 0.000000
0.000204 0.009482 0.000000
0.000238 0.009521 0.000000
0.000282 0.009561 0.000000
0.000393 0.009642 0.000000
0.000459 0.009683 0.000000
0.000529 0.009725 0.000000
0.000679 0.009807 0.000000
0.000914 0.009926 0.000000
0.002206 0.010212 0.000000
0.002323 0.010224 0.000000
0.002424 0.010231 0.000000
0.002513 0.010230 0.000000
0.002766 0.010173 0.000000
0.002934 0.010089 0.000000
0.003112 0.009972 0.000000
0.003667 0.009551 0.000000
0.003888 0.009365 0.000000
0.003991 0.009270 0.000000
0.004092 0.009172 0.000000
0.004293 0.008958 0.000000
0.006333 0.006502 0.000000
0.006642 0.006208 0.000000
0.006483 0.006356 0.000000
0.002513 0.010230 0.150000
0.000179 0.009443 0.150000
0.000160 0.009393 0.150000
0.006333 0.006502 0.150000
0.004293 0.008958 0.150000
0.004092 0.009172 0.150000
0.003991 0.009270 0.150000
0.003888 0.009365 0.150000
0.003667 0.009551 0.150000
0.003112 0.009972 0.150000
0.002934 0.010089 0.150000
0.002766 0.010173 0.150000
0.002424 0.010231 0.150000
0.002323 0.010224 0.150000
0.002206 0.010212 0.150000
0.000914 0.009926 0.150000
0.000679 0.009807 0.150000
0.000529 0.009725 0.150000
0.000459 0.009683 0.150000
0.000393 0.009642 0.150000
0.000282 0.009561 0.150000
0.000238 0.009521 0.150000
0.000204 0.009482 0.150000
0.000140 0.009322 0.150000
0.000000 0.008516 0.150000
0.000232 0.006840 0.150000
0.000416 0.006056 0.150000
0.000721 0.005264 0.150000
0.001222 0.004524 0.150000
0.006483 0.006356 0.150000
0.006642 0.006208 0.150000
0.004449 0.001531 0.150000
0.004834 0.001254 0.150000
0.005626 0.000753 0.150000
0.006122 0.000476 0.150000
0.006591 0.000258 0.150000
0.007044 0.000104 0.150000
0.009363 0.000290 0.150000
0.009445 0.000363 0.150000
0.009514 0.000448 0.150000
0.009624 0.000644 0.150000
0.006807 0.006060 0.150000
0.009682 0.000729 0.150000
0.009740 0.000808 0.150000
0.009794 0.000888 0.150000
0.007998 0.005046 0.150000
0.007838 0.005187 0.150000
0.006977 0.005910 0.150000
0.009839 0.000977 0.150000
0.009871 0.001080 0.150000
0.009885 0.001206 0.150000
0.009877 0.001360 0.150000
0.009842 0.001550 0.150000
0.009676 0.002066 0.150000
0.008822 0.003914 0.150000
0.008561 0.004357 0.150000
0.008291 0.004729 0.150000
3 0 1 2
3 0 2 3
3 4 5 6
3 4 6 7
3 8 9 10
3 8 10 11
3 12 13 14
3 14 15 16
3 17 18 19
3 14 16 17
3 17 19 12
3 12 14 17
3 20 21 22
3 20 22 23
3 24 8 11
3 24 11 25
3 26 24 25
3 26 25 27
3 28 26 27
3 28 27 29
3 30 28 29
3 30 29 31
3 32 33 34
3 34 30 31
3 35 32 34
3 31 35 34
3 36 37 38
3 36 38 39
3 40 41 42
3 40 42 43
3 44 45 46
3 46 47 48
3 48 49 50
3 51 52 53
3 46 48 50
3 51 53 54
3 46 50 51
3 55 44 46
3 56 57 55
3 58 59 56
3 60 61 58
3 62 60 58
3 58 56 55
3 55 46 51
3 51 54 2
3 2 1 41
3 41 40 6
3 6 5 63
3 63 64 65
3 65 66 67
3 67 68 14
3 19 69 21
3 67 14 12
3 19 21 20
3 67 12 19
3 63 65 67
3 41 6 63
3 51 2 41
3 58 55 51
3 70 62 58
3 70 58 51
3 51 41 63
3 63 67 19
3 19 20 71
3 71 72 73
3 73 74 75
3 75 76 77
3 77 78 79
3 79 80 81
3 81 82 83
3 83 84 85
3 85 9 8
3 8 24 26
3 26 28 30
3 30 34 33
3 33 86 87
3 87 88 89
3 89 38 37
3 37 90 91
3 91 92 93
3 93 94 95
3 95 96 97
3 95 97 98
3 91 93 95
3 89 37 91
3 33 87 89
3 26 30 33
3 85 8 26
3 81 83 85
3 77 79 81
3 73 75 77
3 19 71 73
3 51 63 19
3 99 70 51
3 100 99 51
3 51 19 73
3 73 77 81
3 81 85 26
3 26 33 89
3 89 91 95
3 98 100 51
3 89 95 98
3 81 26 89
3 51 73 81
3 89 98 51
3 51 81 89
3 39 38 89
3 39 89 101
3 102 77 76
3 102 76 103
3 104 105 106
3 106 107 108
3 108 109 110
3 110 111 112
3 112 36 39
3 39 101 113
3 113 114 115
3 115 32 35
3 35 31 29
3 29 27 25
3 25 11 10
3 10 116 117
3 117 118 119
3 119 120 121
3 121 122 123
3 123 102 103
3 103 124 125
3 125 126 127
3 127 128 23
3 23 22 129
3 23 129 18
3 125 127 23
3 123 103 125
3 119 121 123
3 10 117 119
3 29 25 10
3 115 35 29
3 39 113 115
3 110 112 39
3 106 108 110
3 104 106 110
3 110 39 115
3 115 29 10
3 10 119 123
3 123 125 23
3 123 23 18
3 115 10 123
3 104 110 115
3 130 104 115
3 115 123 18
3 17 16 15
3 115 18 17
3 131 130 115
3 131 115 17
3 17 15 132
3 132 133 134
3 134 135 136
3 136 137 4
3 4 7 43
3 43 42 0
3 0 3 138
3 138 139 140
3 138 140 141
3 43 0 138
3 136 4 43
3 132 134 136
3 131 17 132
3 142 131 132
3 132 136 43
3 43 138 141
3 143 144 145
3 43 141 143
3 142 132 43
3 146 147 148
3 148 142 43
3 43 143 145
3 145 149 150
3 150 151 152
3 152 153 154
3 154 155 156
3 156 157 146
3 146 148 43
3 43 145 150
3 150 152 154
3 154 156 146
3 146 43 150
3 150 154 146
3 112 90 37
3 112 37 36
3 108 94 93
3 92 91 111
3 108 93 92
3 109 108 92
3 92 111 110
3 92 110 109
3 135 65 64
3 135 64 136
3 156 59 58
3 156 58 157
3 72 71 128
3 72 128 127
3 57 56 155
3 57 155 154
3 84 83 82
3 82 81 120
3 82 120 119
3 85 84 82
3 117 116 85
3 82 119 118
3 118 117 85
3 82 118 85
3 152 44 55
3 152 55 153
3 56 59 156
3 56 156 155
3 138 54 53
3 138 53 139
3 104 98 97
3 104 97 105
3 103 76 75
3 103 75 124
3 151 45 44
3 151 44 152
3 121 80 79
3 121 79 122
3 120 81 80
3 120 80 121
3 10 9 85
3 10 85 116
3 95 94 108
3 95 108 107
3 105 97 96
3 96 95 107
3 106 105 96
3 107 106 96
3 69 19 18
3 69 18 129
3 143 141 51
3 143 51 50
3 48 145 144
3 144 143 50
3 50 48 144
3 140 52 51
3 140 51 141
3 3 2 54
3 3 54 138
3 65 135 134
3 133 132 68
3 65 134 133
3 68 67 65
3 65 133 68
3 22 21 69
3 22 69 129
3 136 64 63
3 136 63 137
3 73 72 127
3 73 127 126
3 145 48 47
3 145 47 149
3 101 89 88
3 101 88 113
3 157 58 61
3 157 61 146
3 122 79 78
3 122 78 123
3 86 33 32
3 86 32 115
3 113 88 87
3 87 86 115
3 114 113 87
3 115 114 87
3 71 20 23
3 71 23 128
3 149 47 46
3 149 46 150
3 55 57 154
3 55 154 153
3 15 14 68
3 15 68 132
3 75 74 125
3 75 125 124
3 123 78 77
3 123 77 102
3 91 90 112
3 91 112 111
3 74 73 126
3 74 126 125
3 139 53 52
3 139 52 140
3 6 40 43
3 6 43 7
3 63 5 4
3 63 4 137
3 42 41 1
3 42 1 0
3 100 98 104
3 100 104 130
3 99 100 130
3 99 130 131
3 70 99 131
3 70 131 142
3 62 70 142
3 62 142 148
3 146 61 60
3 60 62 148
3 147 146 60
3 148 147 60
3 150 46 45
3 150 45 151
