ply
format ascii 1.0
comment Created by Blender 3.6.8 - www.blender.org
element vertex 144
property float x
property float y
property float z
element face 282
property list uchar uint vertex_indices
end_header
0.004845 0.000128 0.000000
0.004588 0.000068 0.000000
0.003451 0.000001 0.000000
0.003296 0.000009 0.000000
0.002991 0.000055 0.000000
0.002683 0.000144 0.000000
0.002361 0.000274 0.000000
0.002190 0.000355 0.000000
0.002013 0.000447 0.000000
0.001650 0.000652 0.000000
0.001506 0.000742 0.000000
0.001291 0.000904 0.000000
0.001209 0.000985 0.000000
0.001070 0.001165 0.000000
0.000409 0.002306 0.000000
0.000278 0.002628 0.000000
0.000206 0.002913 0.000000
0.000006 0.004569 0.000000
0.000001 0.004728 0.000000
0.000000 0.004883 0.000000
0.000014 0.005192 0.000000
0.000027 0.005350 0.000000
0.000044 0.005512 0.000000
0.000065 0.005682 0.000000
0.000088 0.005861 0.000000
0.000133 0.006047 0.000000
0.000212 0.006232 0.000000
0.000320 0.006416 0.000000
0.000450 0.006595 0.000000
0.000751 0.006930 0.000000
0.001513 0.007571 0.000000
0.001539 0.007579 0.000000
0.001612 0.007600 0.000000
0.005302 0.000338 0.000000
0.004985 0.000179 0.000000
0.006395 0.001052 0.000000
0.006273 0.000964 0.000000
0.006708 0.001334 0.000000
0.006507 0.001141 0.000000
0.007559 0.002606 0.000000
0.006799 0.001443 0.000000
0.007778 0.003094 0.000000
0.007720 0.002930 0.000000
0.007833 0.003425 0.000000
0.007817 0.003259 0.000000
0.007677 0.004542 0.000000
0.007735 0.004293 0.000000
0.007499 0.004942 0.000000
0.007632 0.004669 0.000000
0.007171 0.005419 0.000000
0.007405 0.005093 0.000000
0.006788 0.005982 0.000000
0.006881 0.005851 0.000000
0.007067 0.005572 0.000000
0.006577 0.006238 0.000000
0.001726 0.007633 0.000000
0.001871 0.007673 0.000000
0.002042 0.007719 0.000000
0.002230 0.007766 0.000000
0.002429 0.007813 0.000000
0.002631 0.007857 0.000000
0.002828 0.007894 0.000000
0.003181 0.007937 0.000000
0.003321 0.007937 0.000000
0.003589 0.007896 0.000000
0.003898 0.007805 0.000000
0.004657 0.007473 0.000000
0.004880 0.007358 0.000000
0.005118 0.007230 0.000000
0.005640 0.006936 0.000000
0.005895 0.006781 0.000000
0.006293 0.006498 0.000000
0.000006 0.004569 0.150000
0.000001 0.004728 0.150000
0.000014 0.005192 0.150000
0.000000 0.004883 0.150000
0.006788 0.005982 0.150000
0.006881 0.005851 0.150000
0.007499 0.004942 0.150000
0.007405 0.005093 0.150000
0.007067 0.005572 0.150000
0.007171 0.005419 0.150000
0.003898 0.007805 0.150000
0.004657 0.007473 0.150000
0.006293 0.006498 0.150000
0.005895 0.006781 0.150000
0.003589 0.007896 0.150000
0.003321 0.007937 0.150000
0.007677 0.004542 0.150000
0.007632 0.004669 0.150000
0.000206 0.002913 0.150000
0.000278 0.002628 0.150000
0.007735 0.004293 0.150000
0.007833 0.003425 0.150000
0.002361 0.000274 0.150000
0.002190 0.000355 0.150000
0.002013 0.000447 0.150000
0.001650 0.000652 0.150000
0.001506 0.000742 0.150000
0.006507 0.001141 0.150000
0.006708 0.001334 0.150000
0.006799 0.001443 0.150000
0.007559 0.002606 0.150000
0.007720 0.002930 0.150000
0.007778 0.003094 0.150000
0.007817 0.003259 0.150000
0.006395 0.001052 0.150000
0.005302 0.000338 0.150000
0.006273 0.000964 0.150000
0.004845 0.000128 0.150000
0.004985 0.000179 0.150000
0.003451 0.000001 0.150000
0.004588 0.000068 0.150000
0.002991 0.000055 0.150000
0.003296 0.000009 0.150000
0.002683 0.000144 0.150000
0.001209 0.000985 0.150000
0.001291 0.000904 0.150000
0.000409 0.002306 0.150000
0.001070 0.001165 0.150000
0.000044 0.005512 0.150000
0.000027 0.005350 0.150000
0.000088 0.005861 0.150000
0.000065 0.005682 0.150000
0.000212 0.006232 0.150000
0.000133 0.006047 0.150000
0.000450 0.006595 0.150000
0.000320 0.006416 0.150000
0.001513 0.007571 0.150000
0.000751 0.006930 0.150000
0.001612 0.007600 0.150000
0.001539 0.007579 0.150000
0.001726 0.007633 0.150000
0.002042 0.007719 0.150000
0.001871 0.007673 0.150000
0.002429 0.007813 0.150000
0.002230 0.007766 0.150000
0.002828 0.007894 0.150000
0.002631 0.007857 0.150000
0.003181 0.007937 0.150000
0.004880 0.007358 0.150000
0.005640 0.006936 0.150000
0.005118 0.007230 0.150000
0.006577 0.006238 0.150000
3 0 1 2
3 2 3 4
3 4 5 6
3 6 7 8
3 8 9 10
3 10 11 12
3 12 13 14
3 14 15 16
3 16 17 18
3 18 19 20
3 20 21 22
3 22 23 24
3 24 25 26
3 26 27 28
3 28 29 30
3 30 31 32
3 24 26 28
3 20 22 24
3 16 18 20
3 12 14 16
3 8 10 12
3 4 6 8
3 0 2 4
3 33 34 0
3 35 36 33
3 37 38 35
3 39 40 37
3 41 42 39
3 43 44 41
3 45 46 43
3 47 48 45
3 49 50 47
3 51 52 53
3 49 47 45
3 54 51 53
3 53 49 45
3 45 43 41
3 41 39 37
3 37 35 33
3 33 0 4
3 4 8 12
3 12 16 20
3 20 24 28
3 28 30 32
3 32 55 56
3 56 57 58
3 58 59 60
3 60 61 62
3 62 63 64
3 64 65 66
3 66 67 68
3 68 69 70
3 70 71 54
3 54 53 45
3 45 41 37
3 37 33 4
3 4 12 20
3 20 28 32
3 32 56 58
3 58 60 62
3 62 64 66
3 66 68 70
3 70 54 45
3 45 37 4
3 4 20 32
3 32 58 62
3 62 66 70
3 70 45 4
3 4 32 62
3 4 62 70
3 18 17 72
3 18 72 73
3 74 20 19
3 19 18 73
3 75 74 19
3 73 75 19
3 49 53 52
3 52 51 76
3 52 76 77
3 50 49 52
3 78 47 50
3 79 78 50
3 50 52 77
3 50 77 80
3 81 79 50
3 80 81 50
3 66 65 82
3 66 82 83
3 84 71 70
3 84 70 85
3 86 64 63
3 86 63 87
3 88 45 48
3 88 48 89
3 90 16 15
3 90 15 91
3 43 46 92
3 43 92 93
3 6 94 95
3 6 95 96
3 10 8 6
3 97 98 10
3 6 96 97
3 6 97 10
3 99 100 101
3 101 102 103
3 103 104 105
3 105 93 92
3 92 88 89
3 89 78 79
3 89 79 81
3 105 92 89
3 101 103 105
3 106 99 101
3 107 108 106
3 109 110 107
3 111 112 109
3 113 114 111
3 94 115 113
3 96 95 94
3 98 97 96
3 116 117 98
3 118 119 116
3 90 91 118
3 73 72 90
3 74 75 73
3 120 121 74
3 122 123 120
3 124 125 122
3 126 127 124
3 128 129 126
3 130 131 128
3 126 124 122
3 122 120 74
3 74 73 90
3 90 118 116
3 116 98 96
3 96 94 113
3 113 111 109
3 109 107 106
3 106 101 105
3 105 89 81
3 80 77 76
3 105 81 80
3 109 106 105
3 96 113 109
3 90 116 96
3 122 74 90
3 128 126 122
3 132 130 128
3 133 134 132
3 135 136 133
3 137 138 135
3 87 139 137
3 82 86 87
3 140 83 82
3 141 142 140
3 84 85 141
3 76 143 84
3 105 80 76
3 96 109 105
3 122 90 96
3 132 128 122
3 135 133 132
3 87 137 135
3 140 82 87
3 84 141 140
3 105 76 84
3 122 96 105
3 135 132 122
3 140 87 135
3 105 84 140
3 135 122 105
3 105 140 135
3 14 13 119
3 14 119 118
3 109 0 34
3 109 34 110
3 119 13 12
3 119 12 116
3 139 62 61
3 139 61 137
3 129 29 28
3 129 28 126
3 105 44 43
3 105 43 93
3 21 20 74
3 21 74 121
3 22 21 121
3 22 121 120
3 122 24 23
3 23 22 120
3 123 122 23
3 120 123 23
3 1 0 109
3 1 109 112
3 2 1 112
3 2 112 111
3 33 107 110
3 33 110 34
3 89 48 47
3 89 47 78
3 31 30 128
3 31 128 131
3 32 31 131
3 32 131 130
3 55 32 130
3 55 130 132
3 56 55 132
3 56 132 134
3 57 56 134
3 57 134 133
3 58 57 133
3 58 133 136
3 59 58 136
3 59 136 135
3 137 61 60
3 60 59 135
3 138 137 60
3 135 138 60
3 87 63 62
3 87 62 139
3 104 41 44
3 104 44 105
3 39 42 103
3 39 103 102
3 103 42 41
3 103 41 104
3 115 5 4
3 115 4 113
3 127 27 26
3 127 26 124
3 125 25 24
3 125 24 122
3 11 10 98
3 11 98 117
3 30 29 129
3 30 129 128
3 51 54 143
3 51 143 76
3 40 39 102
3 40 102 101
3 15 14 118
3 15 118 91
3 99 38 37
3 99 37 100
3 116 12 11
3 116 11 117
3 17 16 90
3 17 90 72
3 114 3 2
3 114 2 111
3 65 64 86
3 65 86 82
3 46 45 88
3 46 88 92
3 71 84 143
3 71 143 54
3 124 26 25
3 124 25 125
3 94 6 5
3 94 5 115
3 35 38 99
3 35 99 106
3 107 33 36
3 36 35 106
3 108 107 36
3 106 108 36
3 67 66 83
3 67 83 140
3 68 67 140
3 68 140 142
3 85 70 69
3 69 68 142
3 141 85 69
3 142 141 69
3 126 28 27
3 126 27 127
3 100 37 40
3 100 40 101
3 113 4 3
3 113 3 114
