ply
format ascii 1.0
comment Created by Blender 3.6.8 - www.blender.org
element vertex 140
property float x
property float y
property float z
element face 275
property list uchar uint vertex_indices
end_header
0.009819 0.000127 0.150000
0.009819 0.000127 0.000000
0.010094 0.000312 0.000000
0.010094 0.000312 0.150000
0.011129 0.003819 0.150000
0.011129 0.003819 0.000000
0.011007 0.004027 0.000000
0.011007 0.004027 0.150000
0.000003 0.004144 0.150000
0.000003 0.004144 0.000000
0.000001 0.003923 0.000000
0.000001 0.003923 0.150000
0.000484 0.005990 0.150000
0.000484 0.005990 0.000000
0.000415 0.005852 0.000000
0.000415 0.005852 0.150000
0.009336 0.005926 0.150000
0.009336 0.005926 0.000000
0.008988 0.006155 0.000000
0.008988 0.006155 0.150000
0.000361 0.002565 0.150000
0.000361 0.002565 0.000000
0.000441 0.002421 0.000000
0.000441 0.002421 0.150000
0.000751 0.006252 0.150000
0.000751 0.006252 0.000000
0.000587 0.006118 0.000000
0.000587 0.006118 0.150000
0.000654 0.002143 0.150000
0.000654 0.002143 0.000000
0.000793 0.002008 0.000000
0.000793 0.002008 0.150000
0.011119 0.001314 0.000000
0.011052 0.001101 0.000000
0.010976 0.000932 0.000000
0.010892 0.000800 0.000000
0.010799 0.000698 0.000000
0.010698 0.000619 0.000000
0.009686 0.000063 0.000000
0.009553 0.000023 0.000000
0.009417 0.000003 0.000000
0.009274 0.000001 0.000000
0.009119 0.000012 0.000000
0.008040 0.000156 0.000000
0.005024 0.000415 0.000000
0.003076 0.000786 0.000000
0.011176 0.001579 0.000000
0.011310 0.002363 0.000000
0.011272 0.002121 0.000000
0.011352 0.002808 0.000000
0.011338 0.002592 0.000000
0.011330 0.003218 0.000000
0.011350 0.003016 0.000000
0.011222 0.003616 0.000000
0.011288 0.003417 0.000000
0.010680 0.004466 0.000000
0.010852 0.004245 0.000000
0.010343 0.004891 0.000000
0.010511 0.004682 0.000000
0.010009 0.005283 0.000000
0.010176 0.005092 0.000000
0.009675 0.005632 0.000000
0.008810 0.006241 0.000000
0.004535 0.007258 0.000000
0.007961 0.006530 0.000000
0.002523 0.007109 0.000000
0.002920 0.007262 0.000000
0.002032 0.006910 0.000000
0.002292 0.007017 0.000000
0.001478 0.006662 0.000000
0.001756 0.006790 0.000000
0.000962 0.006389 0.000000
0.001209 0.006527 0.000000
0.000209 0.005291 0.000000
0.000275 0.005498 0.000000
0.000095 0.004841 0.000000
0.000148 0.005071 0.000000
0.000052 0.004607 0.000000
0.000018 0.003717 0.000000
0.000238 0.002865 0.000000
0.000538 0.002280 0.000000
0.001882 0.001288 0.000000
0.000958 0.001875 0.000000
0.002226 0.001103 0.000000
0.002051 0.001193 0.000000
0.002610 0.000937 0.000000
0.003076 0.000786 0.150000
0.002610 0.000937 0.150000
0.009417 0.000003 0.150000
0.009553 0.000023 0.150000
0.000962 0.006389 0.150000
0.010799 0.000698 0.150000
0.010892 0.000800 0.150000
0.000238 0.002865 0.150000
0.009686 0.000063 0.150000
0.000958 0.001875 0.150000
0.010009 0.005283 0.150000
0.010176 0.005092 0.150000
0.010852 0.004245 0.150000
0.010680 0.004466 0.150000
0.010343 0.004891 0.150000
0.010511 0.004682 0.150000
0.010698 0.000619 0.150000
0.004535 0.007258 0.150000
0.007961 0.006530 0.150000
0.009675 0.005632 0.150000
0.000018 0.003717 0.150000
0.009274 0.000001 0.150000
0.001209 0.006527 0.150000
0.001478 0.006662 0.150000
0.001756 0.006790 0.150000
0.002032 0.006910 0.150000
0.002292 0.007017 0.150000
0.002920 0.007262 0.150000
0.002523 0.007109 0.150000
0.011350 0.003016 0.150000
0.011330 0.003218 0.150000
0.010976 0.000932 0.150000
0.005024 0.000415 0.150000
0.000052 0.004607 0.150000
0.000095 0.004841 0.150000
0.000148 0.005071 0.150000
0.000275 0.005498 0.150000
0.000209 0.005291 0.150000
0.008040 0.000156 0.150000
0.009119 0.000012 0.150000
0.011352 0.002808 0.150000
0.002226 0.001103 0.150000
0.002051 0.001193 0.150000
0.001882 0.001288 0.150000
0.011052 0.001101 0.150000
0.011119 0.001314 0.150000
0.011176 0.001579 0.150000
0.011272 0.002121 0.150000
0.011310 0.002363 0.150000
0.011338 0.002592 0.150000
0.011288 0.003417 0.150000
0.011222 0.003616 0.150000
0.008810 0.006241 0.150000
0.000538 0.002280 0.150000
3 0 1 2
3 0 2 3
3 4 5 6
3 4 6 7
3 8 9 10
3 8 10 11
3 12 13 14
3 12 14 15
3 16 17 18
3 16 18 19
3 20 21 22
3 20 22 23
3 24 25 26
3 24 26 27
3 28 29 30
3 28 30 31
3 32 33 34
3 34 35 36
3 36 37 2
3 2 1 38
3 38 39 40
3 40 41 42
3 43 44 45
3 40 42 43
3 2 38 40
3 34 36 2
3 46 32 34
3 47 48 46
3 49 50 47
3 51 52 49
3 53 54 51
3 6 5 53
3 55 56 6
3 57 58 55
3 59 60 57
3 17 61 59
3 62 18 17
3 63 64 62
3 65 66 63
3 67 68 65
3 69 70 67
3 71 72 69
3 26 25 71
3 14 13 26
3 73 74 14
3 75 76 73
3 9 77 75
3 78 10 9
3 21 79 78
3 80 22 21
3 30 29 80
3 81 82 30
3 83 84 81
3 45 85 83
3 40 43 45
3 34 2 40
3 47 46 34
3 51 49 47
3 6 53 51
3 57 55 6
3 17 59 57
3 63 62 17
3 67 65 63
3 71 69 67
3 14 26 71
3 75 73 14
3 78 9 75
3 80 21 78
3 81 30 80
3 45 83 81
3 34 40 45
3 51 47 34
3 57 6 51
3 63 17 57
3 71 67 63
3 75 14 71
3 80 78 75
3 45 81 80
3 51 34 45
3 63 57 51
3 75 71 63
3 45 80 75
3 63 51 45
3 45 75 63
3 85 45 86
3 85 86 87
3 88 40 39
3 88 39 89
3 90 71 25
3 90 25 24
3 91 36 35
3 91 35 92
3 79 21 20
3 79 20 93
3 94 38 1
3 94 1 0
3 31 30 82
3 31 82 95
3 58 57 60
3 60 59 96
3 60 96 97
3 55 58 60
3 98 7 6
3 99 98 6
3 6 55 60
3 60 97 100
3 101 99 6
3 60 100 101
3 60 101 6
3 102 37 36
3 102 36 91
3 63 103 104
3 63 104 64
3 105 61 17
3 105 17 16
3 78 79 93
3 78 93 106
3 107 41 40
3 107 40 88
3 72 71 90
3 72 90 108
3 69 72 108
3 69 108 109
3 70 69 109
3 70 109 110
3 67 70 110
3 67 110 111
3 68 67 111
3 68 111 112
3 113 66 65
3 65 68 112
3 114 113 65
3 112 114 65
3 115 52 51
3 115 51 116
3 11 10 78
3 11 78 106
3 27 26 13
3 27 13 12
3 92 35 34
3 92 34 117
3 45 44 118
3 45 118 86
3 75 77 119
3 75 119 120
3 76 75 120
3 76 120 121
3 122 74 73
3 73 76 121
3 123 122 73
3 121 123 73
3 14 74 122
3 14 122 15
3 89 39 38
3 89 38 94
3 118 44 43
3 42 41 107
3 118 43 42
3 124 118 42
3 42 107 125
3 42 125 124
3 126 49 52
3 126 52 115
3 119 77 9
3 119 9 8
3 84 83 127
3 84 127 128
3 95 82 81
3 81 84 128
3 129 95 81
3 128 129 81
3 130 131 132
3 132 133 134
3 134 135 126
3 126 115 116
3 116 136 137
3 137 4 7
3 7 98 99
3 99 101 100
3 100 97 96
3 96 105 16
3 16 19 138
3 138 104 103
3 103 113 114
3 114 112 111
3 111 110 109
3 109 108 90
3 90 24 27
3 27 12 15
3 15 122 123
3 123 121 120
3 120 119 8
3 8 11 106
3 106 93 20
3 20 23 139
3 139 28 31
3 31 95 129
3 129 128 127
3 127 87 86
3 86 118 124
3 124 125 107
3 107 88 89
3 89 94 0
3 3 102 91
3 89 0 3
3 124 107 89
3 127 86 124
3 31 129 127
3 20 139 31
3 8 106 20
3 123 120 8
3 27 15 123
3 109 90 27
3 114 111 109
3 138 103 114
3 96 16 138
3 99 100 96
3 137 7 99
3 126 116 137
3 132 134 126
3 117 130 132
3 91 92 117
3 89 3 91
3 127 124 89
3 20 31 127
3 123 8 20
3 109 27 123
3 138 114 109
3 99 96 138
3 126 137 99
3 117 132 126
3 89 91 117
3 20 127 89
3 109 123 20
3 99 138 109
3 117 126 99
3 20 89 117
3 99 109 20
3 99 20 117
3 62 64 104
3 62 104 138
3 139 80 29
3 139 29 28
3 137 53 5
3 137 5 4
3 130 33 32
3 130 32 131
3 117 34 33
3 117 33 130
3 50 49 126
3 50 126 135
3 47 50 135
3 47 135 134
3 48 47 134
3 48 134 133
3 131 32 46
3 46 48 133
3 132 131 46
3 133 132 46
3 136 54 53
3 136 53 137
3 23 22 80
3 23 80 139
3 19 18 62
3 19 62 138
3 2 37 102
3 2 102 3
3 83 85 87
3 83 87 127
3 96 59 61
3 96 61 105
3 116 51 54
3 116 54 136
3 63 66 113
3 63 113 103
