ply
format ascii 1.0
comment Created by Blender 3.6.8 - www.blender.org
element vertex 128
property float x
property float y
property float z
element face 251
property list uchar uint vertex_indices
end_header
0.006045 0.002689 0.000000
0.006103 0.002817 0.000000
0.006103 0.002817 0.150000
0.006045 0.002689 0.150000
0.005980 0.002558 0.000000
0.005980 0.002558 0.150000
0.005760 0.002137 0.000000
0.005836 0.002283 0.000000
0.005909 0.002423 0.000000
0.005909 0.002423 0.150000
0.005685 0.001983 0.000000
0.005600 0.001825 0.150000
0.005600 0.001825 0.000000
0.005685 0.001983 0.150000
0.005836 0.002283 0.150000
0.005760 0.002137 0.150000
0.001363 0.005840 0.000000
0.000498 0.005625 0.000000
0.000498 0.005625 0.150000
0.001363 0.005840 0.150000
0.002172 0.000385 0.000000
0.002383 0.000000 0.000000
0.002383 0.000000 0.150000
0.002172 0.000385 0.150000
0.001869 0.000951 0.000000
0.001869 0.000951 0.150000
0.001514 0.001632 0.000000
0.001514 0.001632 0.150000
0.001177 0.002316 0.150000
0.001177 0.002316 0.000000
0.001339 0.001981 0.000000
0.001339 0.001981 0.150000
0.001865 0.005883 0.000000
0.002062 0.005889 0.000000
0.002261 0.005891 0.000000
0.004181 0.005822 0.000000
0.004708 0.005791 0.000000
0.004887 0.005775 0.000000
0.004988 0.005758 0.000000
0.005046 0.005735 0.000000
0.005107 0.005701 0.000000
0.005237 0.005602 0.000000
0.005306 0.005538 0.000000
0.005376 0.005467 0.000000
0.005448 0.005389 0.000000
0.005521 0.005305 0.000000
0.005595 0.005215 0.000000
0.005670 0.005122 0.000000
0.005745 0.005025 0.000000
0.005820 0.004926 0.000000
0.005889 0.004828 0.000000
0.005995 0.004639 0.000000
0.006068 0.004449 0.000000
0.006119 0.004248 0.000000
0.006139 0.004140 0.000000
0.006158 0.004025 0.000000
0.006198 0.003769 0.000000
0.006221 0.003625 0.000000
0.006237 0.003479 0.000000
0.006237 0.003340 0.000000
0.006221 0.003205 0.000000
0.006193 0.003074 0.000000
0.005499 0.001667 0.000000
0.001757 0.005878 0.000000
0.001544 0.005863 0.000000
0.001649 0.005872 0.000000
0.000496 0.004107 0.000000
0.000000 0.005305 0.000000
0.000658 0.003682 0.000000
0.005259 0.001357 0.000000
0.004239 0.000366 0.000000
0.004125 0.000288 0.000000
0.003973 0.000222 0.000000
0.003793 0.000167 0.000000
0.003384 0.000085 0.000000
0.001037 0.002623 0.000000
0.000926 0.002887 0.000000
0.000853 0.003096 0.000000
0.000797 0.003279 0.000000
0.000732 0.003476 0.000000
0.005259 0.001357 0.150000
0.004239 0.000366 0.150000
0.005499 0.001667 0.150000
0.005237 0.005602 0.150000
0.005306 0.005538 0.150000
0.005376 0.005467 0.150000
0.005521 0.005305 0.150000
0.005448 0.005389 0.150000
0.001544 0.005863 0.150000
0.003973 0.000222 0.150000
0.004125 0.000288 0.150000
0.005046 0.005735 0.150000
0.004988 0.005758 0.150000
0.006221 0.003205 0.150000
0.006237 0.003340 0.150000
0.005595 0.005215 0.150000
0.005670 0.005122 0.150000
0.005745 0.005025 0.150000
0.005889 0.004828 0.150000
0.005820 0.004926 0.150000
0.006193 0.003074 0.150000
0.004181 0.005822 0.150000
0.002261 0.005891 0.150000
0.002062 0.005889 0.150000
0.001865 0.005883 0.150000
0.001757 0.005878 0.150000
0.001649 0.005872 0.150000
0.000000 0.005305 0.150000
0.000496 0.004107 0.150000
0.000658 0.003682 0.150000
0.004887 0.005775 0.150000
0.004708 0.005791 0.150000
0.005107 0.005701 0.150000
0.005995 0.004639 0.150000
0.006119 0.004248 0.150000
0.006068 0.004449 0.150000
0.006158 0.004025 0.150000
0.006139 0.004140 0.150000
0.006237 0.003479 0.150000
0.006221 0.003625 0.150000
0.006198 0.003769 0.150000
0.000732 0.003476 0.150000
0.000797 0.003279 0.150000
0.000853 0.003096 0.150000
0.000926 0.002887 0.150000
0.001037 0.002623 0.150000
0.003384 0.000085 0.150000
0.003793 0.000167 0.150000
3 0 1 2
3 0 2 3
3 4 0 3
3 4 3 5
3 6 7 8
3 8 4 5
3 8 5 9
3 10 6 8
3 11 12 10
3 13 11 10
3 10 8 9
3 10 9 14
3 15 13 10
3 14 15 10
3 16 17 18
3 16 18 19
3 20 21 22
3 20 22 23
3 24 20 23
3 24 23 25
3 26 24 25
3 26 25 27
3 28 29 30
3 30 26 27
3 31 28 30
3 27 31 30
3 32 33 34
3 34 35 36
3 36 37 38
3 38 39 40
3 40 41 42
3 42 43 44
3 44 45 46
3 46 47 48
3 48 49 50
3 50 51 52
3 52 53 54
3 54 55 56
3 56 57 58
3 58 59 60
3 60 61 1
3 1 0 4
3 4 8 7
3 6 10 12
3 1 4 7
3 6 12 62
3 1 7 6
3 58 60 1
3 54 56 58
3 50 52 54
3 46 48 50
3 42 44 46
3 38 40 42
3 34 36 38
3 63 32 34
3 64 65 63
3 17 16 64
3 66 67 17
3 68 66 17
3 17 64 63
3 63 34 38
3 38 42 46
3 46 50 54
3 54 58 1
3 1 6 62
3 62 69 70
3 70 71 72
3 72 73 74
3 74 21 20
3 20 24 26
3 26 30 29
3 29 75 76
3 76 77 78
3 79 68 17
3 29 76 78
3 78 79 17
3 17 63 38
3 38 46 54
3 54 1 62
3 62 70 72
3 72 74 20
3 20 26 29
3 29 78 17
3 17 38 54
3 54 62 72
3 72 20 29
3 29 17 54
3 54 72 29
3 69 80 81
3 69 81 70
3 69 62 82
3 69 82 80
3 42 41 83
3 42 83 84
3 43 42 84
3 43 84 85
3 86 45 44
3 44 43 85
3 87 86 44
3 85 87 44
3 64 16 19
3 64 19 88
3 89 72 71
3 89 71 90
3 91 39 38
3 91 38 92
3 93 60 59
3 93 59 94
3 46 45 86
3 46 86 95
3 47 46 95
3 47 95 96
3 48 47 96
3 48 96 97
3 98 50 49
3 49 48 97
3 99 98 49
3 97 99 49
3 100 61 60
3 100 60 93
3 82 62 12
3 82 12 11
3 1 61 100
3 1 100 2
3 101 102 103
3 103 104 105
3 105 106 88
3 88 19 18
3 18 107 108
3 18 108 109
3 105 88 18
3 101 103 105
3 110 111 101
3 91 92 110
3 83 112 91
3 85 84 83
3 86 87 85
3 96 95 86
3 99 97 96
3 113 98 99
3 114 115 113
3 116 117 114
3 118 119 120
3 120 116 114
3 114 113 99
3 99 96 86
3 86 85 83
3 83 91 110
3 110 101 105
3 105 18 109
3 105 109 121
3 83 110 105
3 99 86 83
3 120 114 99
3 94 118 120
3 100 93 94
3 3 2 100
3 9 5 3
3 14 9 3
3 3 100 94
3 94 120 99
3 99 83 105
3 105 121 122
3 122 123 124
3 124 125 28
3 28 31 27
3 27 25 23
3 23 22 126
3 126 127 89
3 89 90 81
3 81 80 82
3 82 11 13
3 15 14 3
3 82 13 15
3 89 81 82
3 23 126 89
3 28 27 23
3 122 124 28
3 99 105 122
3 3 94 99
3 82 15 3
3 23 89 82
3 122 28 23
3 3 99 122
3 23 82 3
3 122 23 3
3 21 74 126
3 21 126 22
3 114 53 52
3 114 52 115
3 90 71 70
3 90 70 81
3 37 36 35
3 35 34 33
3 33 32 63
3 64 88 106
3 64 106 105
3 33 63 64
3 37 35 33
3 111 110 37
3 101 111 37
3 37 33 64
3 64 105 104
3 64 104 103
3 101 37 64
3 64 103 102
3 64 102 101
3 112 40 39
3 112 39 91
3 54 53 114
3 54 114 117
3 55 54 117
3 55 117 116
3 56 55 116
3 56 116 120
3 118 58 57
3 57 56 120
3 119 118 57
3 120 119 57
3 126 74 73
3 126 73 127
3 94 59 58
3 94 58 118
3 113 51 50
3 113 50 98
3 115 52 51
3 115 51 113
3 41 40 112
3 41 112 83
3 107 18 17
3 107 17 67
3 75 29 28
3 75 28 125
3 76 75 125
3 76 125 124
3 77 76 124
3 77 124 123
3 78 77 123
3 78 123 122
3 79 78 122
3 79 122 121
3 68 79 121
3 68 121 109
3 107 67 66
3 66 68 109
3 108 107 66
3 109 108 66
3 127 73 72
3 127 72 89
3 92 38 37
3 92 37 110
