ply
format ascii 1.0
comment Created by Blender 3.6.8 - www.blender.org
element vertex 174
property float x
property float y
property float z
element face 332
property list uchar uint vertex_indices
end_header
0.001571 0.007573 0.150000
0.001571 0.007573 0.000000
0.001475 0.007572 0.000000
0.001475 0.007572 0.150000
0.008148 0.001111 0.150000
0.008148 0.001111 0.000000
0.008154 0.001215 0.000000
0.008154 0.001215 0.150000
0.001004 0.002042 0.000000
0.001184 0.001776 0.000000
0.001184 0.001776 0.150000
0.001004 0.002042 0.150000
0.000820 0.002412 0.000000
0.000771 0.002541 0.000000
0.000723 0.002678 0.000000
0.000673 0.002826 0.000000
0.000619 0.002989 0.000000
0.000558 0.003169 0.000000
0.000486 0.003370 0.000000
0.000413 0.003597 0.000000
0.000347 0.003848 0.000000
0.000288 0.004116 0.000000
0.000236 0.004393 0.000000
0.000000 0.006136 0.000000
0.000392 0.006784 0.000000
0.000525 0.006938 0.000000
0.000666 0.007088 0.000000
0.000837 0.007252 0.000000
0.001020 0.007401 0.000000
0.001112 0.007462 0.000000
0.001201 0.007508 0.000000
0.001289 0.007541 0.000000
0.001381 0.007561 0.000000
0.001771 0.007552 0.000000
0.001873 0.007532 0.000000
0.001977 0.007508 0.000000
0.002399 0.007392 0.000000
0.002511 0.007358 0.000000
0.004317 0.006573 0.000000
0.004418 0.006516 0.000000
0.004526 0.006452 0.000000
0.004643 0.006379 0.000000
0.004770 0.006298 0.000000
0.004910 0.006208 0.000000
0.005229 0.005997 0.000000
0.005389 0.005886 0.000000
0.005631 0.005692 0.000000
0.005805 0.005515 0.000000
0.007770 0.002885 0.000000
0.007854 0.002728 0.000000
0.007980 0.002419 0.000000
0.008062 0.002115 0.000000
0.008111 0.001812 0.000000
0.008127 0.001660 0.000000
0.008140 0.001507 0.000000
0.008150 0.001352 0.000000
0.008130 0.001036 0.000000
0.008101 0.000982 0.000000
0.008061 0.000946 0.000000
0.008011 0.000921 0.000000
0.007950 0.000902 0.000000
0.007879 0.000883 0.000000
0.001299 0.001628 0.000000
0.001768 0.001082 0.000000
0.001655 0.001205 0.000000
0.002108 0.000757 0.000000
0.001880 0.000966 0.000000
0.002352 0.000576 0.000000
0.002228 0.000663 0.000000
0.002773 0.000349 0.000000
0.002484 0.000495 0.000000
0.003264 0.000170 0.000000
0.003095 0.000224 0.000000
0.003794 0.000049 0.000000
0.003437 0.000122 0.000000
0.004718 0.000016 0.000000
0.004161 0.000007 0.000000
0.005829 0.000190 0.000000
0.004903 0.000039 0.000000
0.006291 0.000272 0.000000
0.006072 0.000232 0.000000
0.006491 0.000311 0.000000
0.006393 0.000292 0.000000
0.006821 0.000369 0.000000
0.006746 0.000356 0.000000
0.006583 0.000328 0.000000
0.006894 0.000385 0.000000
0.007799 0.000858 0.000000
0.007040 0.000429 0.000000
0.007708 0.000823 0.000000
0.007607 0.000772 0.000000
0.007289 0.000555 0.000000
0.007117 0.000462 0.000000
0.001289 0.007541 0.150000
0.001201 0.007508 0.150000
0.001381 0.007561 0.150000
0.003437 0.000122 0.150000
0.003264 0.000170 0.150000
0.002773 0.000349 0.150000
0.003095 0.000224 0.150000
0.005631 0.005692 0.150000
0.005805 0.005515 0.150000
0.000413 0.003597 0.150000
0.000347 0.003848 0.150000
0.000288 0.004116 0.150000
0.000000 0.006136 0.150000
0.000236 0.004393 0.150000
0.000392 0.006784 0.150000
0.007770 0.002885 0.150000
0.000820 0.002412 0.150000
0.000771 0.002541 0.150000
0.000723 0.002678 0.150000
0.000673 0.002826 0.150000
0.000619 0.002989 0.150000
0.000558 0.003169 0.150000
0.000486 0.003370 0.150000
0.004317 0.006573 0.150000
0.004418 0.006516 0.150000
0.005229 0.005997 0.150000
0.005389 0.005886 0.150000
0.004910 0.006208 0.150000
0.004526 0.006452 0.150000
0.004643 0.006379 0.150000
0.004770 0.006298 0.150000
0.007040 0.000429 0.150000
0.007117 0.000462 0.150000
0.007289 0.000555 0.150000
0.007607 0.000772 0.150000
0.006821 0.000369 0.150000
0.006894 0.000385 0.150000
0.006583 0.000328 0.150000
0.006746 0.000356 0.150000
0.006291 0.000272 0.150000
0.006393 0.000292 0.150000
0.006491 0.000311 0.150000
0.006072 0.000232 0.150000
0.005829 0.000190 0.150000
0.004718 0.000016 0.150000
0.004903 0.000039 0.150000
0.003794 0.000049 0.150000
0.004161 0.000007 0.150000
0.002352 0.000576 0.150000
0.002484 0.000495 0.150000
0.002108 0.000757 0.150000
0.002228 0.000663 0.150000
0.001768 0.001082 0.150000
0.001880 0.000966 0.150000
0.001299 0.001628 0.150000
0.001655 0.001205 0.150000
0.007708 0.000823 0.150000
0.007799 0.000858 0.150000
0.007879 0.000883 0.150000
0.007950 0.000902 0.150000
0.008011 0.000921 0.150000
0.008061 0.000946 0.150000
0.000525 0.006938 0.150000
0.000837 0.007252 0.150000
0.000666 0.007088 0.150000
0.001112 0.007462 0.150000
0.001020 0.007401 0.150000
0.001771 0.007552 0.150000
0.001977 0.007508 0.150000
0.001873 0.007532 0.150000
0.002511 0.007358 0.150000
0.002399 0.007392 0.150000
0.007854 0.002728 0.150000
0.008062 0.002115 0.150000
0.007980 0.002419 0.150000
0.008127 0.001660 0.150000
0.008111 0.001812 0.150000
0.008150 0.001352 0.150000
0.008140 0.001507 0.150000
0.008101 0.000982 0.150000
0.008130 0.001036 0.150000
3 0 1 2
3 0 2 3
3 4 5 6
3 4 6 7
3 8 9 10
3 8 10 11
3 12 13 14
3 14 15 16
3 17 18 19
3 12 14 16
3 16 17 19
3 19 20 21
3 21 22 23
3 23 24 25
3 25 26 27
3 27 28 29
3 29 30 31
3 31 32 2
3 2 1 33
3 33 34 35
3 35 36 37
3 37 38 39
3 39 40 41
3 41 42 43
3 43 44 45
3 45 46 47
3 47 48 49
3 49 50 51
3 51 52 53
3 53 54 55
3 55 6 5
3 5 56 57
3 57 58 59
3 59 60 61
3 57 59 61
3 55 5 57
3 51 53 55
3 47 49 51
3 43 45 47
3 39 41 43
3 35 37 39
3 2 33 35
3 29 31 2
3 25 27 29
3 21 23 25
3 16 19 21
3 8 12 16
3 62 9 8
3 63 64 62
3 65 66 63
3 67 68 65
3 69 70 67
3 71 72 69
3 73 74 71
3 75 76 73
3 77 78 75
3 79 80 77
3 81 82 79
3 83 84 85
3 81 79 77
3 86 83 85
3 85 81 77
3 77 75 73
3 73 71 69
3 69 67 65
3 65 63 62
3 62 8 16
3 16 21 25
3 25 29 2
3 2 35 39
3 39 43 47
3 47 51 55
3 55 57 61
3 55 61 87
3 39 47 55
3 25 2 39
3 62 16 25
3 69 65 62
3 77 73 69
3 88 86 85
3 85 77 69
3 69 62 25
3 25 39 55
3 55 87 89
3 90 91 92
3 55 89 90
3 69 25 55
3 88 85 69
3 90 92 88
3 69 55 90
3 90 88 69
3 93 31 30
3 93 30 94
3 95 32 31
3 95 31 93
3 71 74 96
3 71 96 97
3 98 69 72
3 72 71 97
3 99 98 72
3 97 99 72
3 46 100 101
3 46 101 47
3 20 19 102
3 20 102 103
3 21 20 103
3 21 103 104
3 105 23 22
3 22 21 104
3 106 105 22
3 22 104 106
3 107 24 23
3 107 23 105
3 48 47 101
3 48 101 108
3 13 12 109
3 13 109 110
3 14 13 110
3 14 110 111
3 15 14 111
3 15 111 112
3 16 15 112
3 16 112 113
3 17 16 113
3 17 113 114
3 102 19 18
3 18 17 114
3 115 102 18
3 114 115 18
3 39 38 116
3 39 116 117
3 118 119 45
3 120 118 45
3 45 43 39
3 39 117 121
3 39 121 122
3 120 45 39
3 39 122 123
3 39 123 120
3 124 125 126
3 124 126 127
3 128 129 124
3 130 131 128
3 132 133 134
3 130 128 124
3 135 132 134
3 134 130 124
3 134 124 127
3 136 135 134
3 137 138 136
3 139 140 137
3 97 96 139
3 98 99 97
3 141 142 98
3 143 144 141
3 145 146 143
3 147 148 145
3 11 10 147
3 110 109 11
3 112 111 110
3 113 112 110
3 110 11 147
3 147 145 143
3 143 141 98
3 98 97 139
3 139 137 136
3 136 134 127
3 136 127 149
3 98 139 136
3 147 143 98
3 113 110 147
3 102 115 114
3 114 113 147
3 147 98 136
3 136 149 150
3 151 152 153
3 147 136 150
3 151 153 154
3 147 150 151
3 102 114 147
3 104 103 102
3 105 106 104
3 155 107 105
3 156 157 155
3 158 159 156
3 93 94 158
3 3 95 93
3 160 0 3
3 161 162 160
3 163 164 161
3 117 116 163
3 122 121 117
3 120 123 122
3 119 118 120
3 101 100 119
3 165 108 101
3 166 167 165
3 168 169 166
3 170 171 168
3 4 7 170
3 172 173 4
3 151 154 172
3 102 147 151
3 105 104 102
3 156 155 105
3 93 158 156
3 160 3 93
3 163 161 160
3 122 117 163
3 119 120 122
3 165 101 119
3 168 166 165
3 4 170 168
3 151 172 4
3 105 102 151
3 93 156 105
3 163 160 93
3 119 122 163
3 168 165 119
3 151 4 168
3 93 105 151
3 119 163 93
3 151 168 119
3 151 119 93
3 28 27 156
3 28 156 159
3 33 1 0
3 33 0 160
3 63 66 146
3 63 146 145
3 64 63 145
3 64 145 148
3 10 9 62
3 62 64 148
3 147 10 62
3 62 148 147
3 70 69 98
3 70 98 142
3 94 30 29
3 94 29 158
3 59 153 152
3 59 152 151
3 61 59 151
3 150 149 89
3 61 151 150
3 150 89 87
3 87 61 150
3 3 2 32
3 3 32 95
3 172 57 56
3 172 56 173
3 90 127 126
3 90 126 91
3 45 119 100
3 45 100 46
3 158 29 28
3 158 28 159
3 138 137 75
3 136 138 75
3 75 77 85
3 85 86 129
3 85 129 128
3 136 75 85
3 135 136 85
3 85 128 131
3 85 131 130
3 132 135 85
3 133 132 85
3 85 130 134
3 85 134 133
3 38 37 163
3 38 163 116
3 127 90 89
3 127 89 149
3 140 76 75
3 140 75 137
3 173 56 5
3 173 5 4
3 124 88 92
3 124 92 125
3 153 59 58
3 153 58 154
3 165 49 48
3 165 48 108
3 25 24 107
3 25 107 155
3 156 27 26
3 26 25 155
3 157 156 26
3 155 157 26
3 146 66 65
3 146 65 143
3 51 166 169
3 51 169 52
3 139 73 76
3 139 76 140
3 144 143 65
3 144 65 68
3 70 142 141
3 141 144 68
3 67 70 141
3 68 67 141
3 74 73 139
3 74 139 96
3 129 86 88
3 129 88 124
3 166 51 50
3 166 50 167
3 167 50 49
3 167 49 165
3 36 35 34
3 34 33 160
3 34 160 162
3 37 36 34
3 164 163 37
3 34 162 161
3 161 164 37
3 34 161 37
3 154 58 57
3 154 57 172
3 53 52 169
3 53 169 168
3 54 53 168
3 54 168 171
3 7 6 55
3 55 54 171
3 170 7 55
3 171 170 55
3 125 92 91
3 125 91 126
3 109 12 8
3 109 8 11
