ply
format ascii 1.0
comment Created by Blender 3.6.8 - www.blender.org
element vertex 188
property float x
property float y
property float z
element face 364
property list uchar uint vertex_indices
end_header
0.007654 0.005682 0.150000
0.007654 0.005682 0.000000
0.007583 0.006035 0.000000
0.007583 0.006035 0.150000
0.007470 0.002883 0.150000
0.007470 0.002883 0.000000
0.007535 0.003025 0.000000
0.007535 0.003025 0.150000
0.006680 0.007432 0.150000
0.006680 0.007432 0.000000
0.006597 0.007459 0.000000
0.006597 0.007459 0.150000
0.003317 0.007283 0.150000
0.003317 0.007283 0.000000
0.003213 0.007239 0.000000
0.003213 0.007239 0.150000
0.003561 0.007355 0.000000
0.003561 0.007355 0.150000
0.007037 0.007071 0.150000
0.007037 0.007071 0.000000
0.006887 0.007262 0.000000
0.006887 0.007262 0.150000
0.000236 0.000869 0.150000
0.000236 0.000869 0.000000
0.000311 0.000755 0.000000
0.000311 0.000755 0.150000
0.001396 0.005298 0.150000
0.001396 0.005298 0.000000
0.001301 0.005230 0.000000
0.001301 0.005230 0.150000
0.007297 0.002635 0.150000
0.007297 0.002635 0.000000
0.007390 0.002755 0.000000
0.007390 0.002755 0.150000
0.002259 0.006591 0.000000
0.002151 0.006455 0.000000
0.002151 0.006455 0.150000
0.002259 0.006591 0.150000
0.003237 0.000007 0.150000
0.003237 0.000007 0.000000
0.003595 0.000004 0.000000
0.003595 0.000004 0.150000
0.000643 0.000453 0.150000
0.000643 0.000453 0.000000
0.000800 0.000369 0.000000
0.000800 0.000369 0.150000
0.000705 0.004883 0.150000
0.000748 0.004921 0.150000
0.000748 0.004921 0.000000
0.000705 0.004883 0.000000
0.000595 0.004774 0.000000
0.000179 0.004315 0.000000
0.000179 0.004315 0.150000
0.000595 0.004774 0.150000
0.001580 0.005510 0.000000
0.001548 0.005464 0.000000
0.001548 0.005464 0.150000
0.001580 0.005510 0.150000
0.001610 0.005556 0.000000
0.001610 0.005556 0.150000
0.002044 0.006298 0.000000
0.002044 0.006298 0.150000
0.000031 0.001394 0.150000
0.000031 0.001394 0.000000
0.000070 0.001233 0.000000
0.000070 0.001233 0.150000
0.000173 0.000988 0.000000
0.000173 0.000988 0.150000
0.002480 0.006789 0.150000
0.002480 0.006789 0.000000
0.002365 0.006698 0.000000
0.002365 0.006698 0.150000
0.000402 0.000647 0.150000
0.000402 0.000647 0.000000
0.000512 0.000546 0.000000
0.000512 0.000546 0.150000
0.007585 0.003185 0.150000
0.007585 0.003185 0.000000
0.007622 0.003369 0.000000
0.007622 0.003369 0.150000
0.003757 0.000021 0.150000
0.003757 0.000021 0.000000
0.003910 0.000054 0.000000
0.003910 0.000054 0.150000
0.005047 0.000678 0.000000
0.005245 0.000805 0.000000
0.005245 0.000805 0.150000
0.005047 0.000678 0.150000
0.004856 0.000560 0.000000
0.004856 0.000560 0.150000
0.004673 0.000452 0.000000
0.004673 0.000452 0.150000
0.004055 0.000104 0.150000
0.004055 0.000104 0.000000
0.004195 0.000174 0.000000
0.004195 0.000174 0.150000
0.006814 0.007336 0.150000
0.006814 0.007336 0.000000
0.006745 0.007394 0.000000
0.006745 0.007394 0.150000
0.007113 0.006958 0.000000
0.007113 0.006958 0.150000
0.007337 0.006577 0.150000
0.007337 0.006577 0.000000
0.007189 0.006837 0.000000
0.007189 0.006837 0.150000
0.001478 0.005377 0.000000
0.001478 0.005377 0.150000
0.001204 0.000236 0.000000
0.001204 0.000236 0.150000
0.000986 0.000297 0.000000
0.000986 0.000297 0.150000
0.000788 0.004951 0.150000
0.000788 0.004951 0.000000
0.000009 0.001619 0.150000
0.000009 0.001619 0.000000
0.006476 0.007485 0.000000
0.006476 0.007485 0.150000
0.007532 0.006178 0.000000
0.007532 0.006178 0.150000
0.007695 0.005029 0.000000
0.007689 0.005259 0.000000
0.007689 0.005259 0.150000
0.007695 0.005029 0.150000
0.007696 0.004791 0.000000
0.007696 0.004791 0.150000
0.007691 0.004548 0.000000
0.007691 0.004548 0.150000
0.007682 0.004302 0.000000
0.007682 0.004302 0.150000
0.007643 0.003582 0.000000
0.007643 0.003582 0.150000
0.005130 0.007580 0.000000
0.004784 0.007563 0.000000
0.004784 0.007563 0.150000
0.005130 0.007580 0.150000
0.003834 0.007412 0.000000
0.003695 0.007385 0.000000
0.003695 0.007385 0.150000
0.003834 0.007412 0.150000
0.003976 0.007436 0.000000
0.004397 0.007501 0.000000
0.003976 0.007436 0.150000
0.004397 0.007501 0.150000
0.004528 0.007522 0.000000
0.004650 0.007544 0.000000
0.004650 0.007544 0.150000
0.004528 0.007522 0.150000
0.006053 0.001415 0.000000
0.006053 0.001415 0.150000
0.007189 0.002518 0.000000
0.006616 0.001969 0.000000
0.006249 0.001595 0.000000
0.000000 0.001893 0.000000
0.000003 0.002203 0.000000
0.000016 0.002536 0.000000
0.000061 0.003212 0.000000
0.000163 0.004217 0.000000
0.000831 0.004979 0.000000
0.000879 0.005007 0.000000
0.000928 0.005034 0.000000
0.001142 0.005141 0.000000
0.003042 0.007137 0.000000
0.003123 0.007188 0.000000
0.002606 0.006874 0.000000
0.002672 0.006915 0.000000
0.002541 0.006832 0.000000
0.001196 0.005169 0.000000
0.001249 0.005198 0.000000
0.006249 0.001595 0.150000
0.007189 0.002518 0.150000
0.006616 0.001969 0.150000
0.002541 0.006832 0.150000
0.002606 0.006874 0.150000
0.003123 0.007188 0.150000
0.003042 0.007137 0.150000
0.002672 0.006915 0.150000
0.000000 0.001893 0.150000
0.000003 0.002203 0.150000
0.000163 0.004217 0.150000
0.000016 0.002536 0.150000
0.000061 0.003212 0.150000
0.001249 0.005198 0.150000
0.001196 0.005169 0.150000
0.001142 0.005141 0.150000
0.000928 0.005034 0.150000
0.000879 0.005007 0.150000
0.000831 0.004979 0.150000
3 0 1 2
3 0 2 3
3 4 5 6
3 4 6 7
3 8 9 10
3 8 10 11
3 12 13 14
3 12 14 15
3 16 13 12
3 16 12 17
3 18 19 20
3 18 20 21
3 22 23 24
3 22 24 25
3 26 27 28
3 26 28 29
3 30 31 32
3 30 32 33
3 34 35 36
3 34 36 37
3 38 39 40
3 38 40 41
3 42 43 44
3 42 44 45
3 46 47 48
3 48 49 50
3 50 51 52
3 53 46 48
3 50 52 53
3 48 50 53
3 54 55 56
3 54 56 57
3 58 54 57
3 58 57 59
3 36 35 60
3 60 58 59
3 61 36 60
3 59 61 60
3 62 63 64
3 62 64 65
3 65 64 66
3 65 66 67
3 68 69 70
3 68 70 71
3 72 73 74
3 72 74 75
3 67 66 23
3 67 23 22
3 76 77 78
3 76 78 79
3 80 81 82
3 80 82 83
3 84 85 86
3 84 86 87
3 88 84 87
3 88 87 89
3 90 88 89
3 90 89 91
3 92 93 94
3 94 90 91
3 95 92 94
3 91 95 94
3 96 97 98
3 96 98 99
3 100 19 18
3 100 18 101
3 102 103 104
3 104 100 101
3 105 102 104
3 104 101 105
3 106 107 56
3 106 56 55
3 107 106 27
3 107 27 26
3 108 39 38
3 108 38 109
3 25 24 73
3 25 73 72
3 34 37 71
3 34 71 70
3 41 40 81
3 41 81 80
3 45 44 110
3 45 110 111
3 21 20 97
3 21 97 96
3 112 113 48
3 112 48 47
3 33 32 5
3 33 5 4
3 114 115 63
3 114 63 62
3 111 110 108
3 111 108 109
3 11 10 116
3 11 116 117
3 118 103 102
3 118 102 119
3 7 6 77
3 7 77 76
3 75 74 43
3 75 43 42
3 3 2 118
3 3 118 119
3 120 121 122
3 120 122 123
3 124 120 123
3 124 123 125
3 126 124 125
3 126 125 127
3 128 126 127
3 128 127 129
3 79 78 130
3 130 128 129
3 131 79 130
3 129 131 130
3 132 133 134
3 132 134 135
3 116 132 135
3 116 135 117
3 136 137 16
3 16 17 138
3 16 138 139
3 140 136 16
3 141 140 16
3 16 139 142
3 16 142 143
3 144 141 16
3 133 145 144
3 146 134 133
3 16 143 147
3 147 146 133
3 133 144 16
3 16 147 133
3 85 148 149
3 85 149 86
3 83 82 93
3 83 93 92
3 99 98 9
3 99 9 8
3 145 133 132
3 132 116 10
3 10 9 98
3 98 97 20
3 20 19 100
3 100 104 103
3 103 118 2
3 2 1 121
3 121 120 124
3 124 126 128
3 128 130 78
3 78 77 6
3 6 5 32
3 32 31 150
3 151 152 148
3 32 150 151
3 78 6 32
3 124 128 78
3 2 121 124
3 100 103 2
3 98 20 100
3 132 10 98
3 144 145 132
3 136 140 141
3 141 144 132
3 132 98 100
3 100 2 124
3 124 78 32
3 32 151 148
3 148 85 84
3 84 88 90
3 90 94 93
3 93 82 81
3 81 40 39
3 39 108 110
3 110 44 43
3 43 74 73
3 73 24 23
3 23 66 64
3 64 63 115
3 115 153 154
3 154 155 156
3 156 157 51
3 51 50 49
3 49 48 113
3 113 158 159
3 159 160 161
3 113 159 161
3 51 49 113
3 154 156 51
3 64 115 154
3 73 23 64
3 110 43 73
3 81 39 110
3 90 93 81
3 148 84 90
3 124 32 148
3 132 100 124
3 136 141 132
3 14 13 16
3 162 163 14
3 164 165 162
3 69 166 164
3 34 70 69
3 60 35 34
3 58 60 34
3 34 69 164
3 164 162 14
3 14 16 136
3 136 132 124
3 124 148 90
3 90 81 110
3 110 73 64
3 64 154 51
3 51 113 161
3 51 161 167
3 110 64 51
3 124 90 110
3 14 136 124
3 34 164 14
3 58 34 14
3 14 124 110
3 110 51 167
3 110 167 168
3 58 14 110
3 54 58 110
3 110 168 28
3 110 28 27
3 55 54 110
3 110 27 106
3 110 106 55
3 169 149 148
3 151 150 31
3 31 30 170
3 171 169 148
3 31 170 171
3 171 148 151
3 171 151 31
3 69 68 172
3 69 172 173
3 162 164 69
3 174 15 14
3 175 174 14
3 14 162 69
3 69 173 176
3 176 175 14
3 69 176 14
3 115 114 177
3 115 177 178
3 156 154 115
3 52 51 156
3 179 52 156
3 156 115 178
3 156 178 180
3 181 179 156
3 156 180 181
3 1 0 122
3 1 122 121
3 182 29 28
3 28 168 167
3 167 161 160
3 28 167 160
3 183 182 28
3 184 183 28
3 184 28 160
3 185 184 160
3 185 160 159
3 186 185 159
3 158 113 112
3 186 159 158
3 158 112 187
3 158 187 186
3 38 41 80
3 80 83 92
3 92 95 91
3 91 89 87
3 87 86 149
3 149 169 171
3 171 170 30
3 30 33 4
3 4 7 76
3 76 79 131
3 131 129 127
3 127 125 123
3 123 122 0
3 0 3 119
3 119 102 105
3 105 101 18
3 18 21 96
3 96 99 8
3 8 11 117
3 117 135 134
3 134 146 147
3 143 142 139
3 134 147 143
3 8 117 134
3 18 96 8
3 119 105 18
3 123 0 119
3 131 127 123
3 4 76 131
3 171 30 4
3 87 149 171
3 92 91 87
3 38 80 92
3 111 109 38
3 42 45 111
3 72 75 42
3 22 25 72
3 65 67 22
3 114 62 65
3 178 177 114
3 181 180 178
3 52 179 181
3 46 53 52
3 112 47 46
3 186 187 112
3 184 185 186
3 184 186 112
3 112 46 52
3 52 181 178
3 178 114 65
3 65 22 72
3 72 42 111
3 111 38 92
3 92 87 171
3 171 4 131
3 131 123 119
3 119 18 8
3 8 134 143
3 143 139 138
3 138 17 12
3 12 15 174
3 175 176 173
3 12 174 175
3 143 138 12
3 119 8 143
3 171 131 119
3 111 92 171
3 65 72 111
3 52 178 65
3 184 112 52
3 183 184 52
3 52 65 111
3 111 171 119
3 119 143 12
3 12 175 173
3 173 172 68
3 68 71 37
3 37 36 61
3 37 61 59
3 173 68 37
3 119 12 173
3 52 111 119
3 182 183 52
3 29 182 52
3 119 173 37
3 119 37 59
3 29 52 119
3 26 29 119
3 119 59 57
3 119 57 56
3 107 26 119
3 119 56 107
