ply
format ascii 1.0
comment Created by Blender 3.6.8 - www.blender.org
element vertex 140
property float x
property float y
property float z
element face 272
property list uchar uint vertex_indices
end_header
0.000376 0.000020 0.150000
0.000376 0.000020 0.000000
0.000465 0.000002 0.000000
0.000465 0.000002 0.150000
0.001171 0.005002 0.000000
0.001343 0.005567 0.000000
0.001483 0.006024 0.000000
0.001581 0.006337 0.000000
0.001625 0.006471 0.000000
0.002184 0.007560 0.000000
0.002294 0.007720 0.000000
0.002347 0.007765 0.000000
0.002418 0.007804 0.000000
0.002503 0.007838 0.000000
0.002601 0.007866 0.000000
0.002822 0.007906 0.000000
0.002940 0.007918 0.000000
0.003059 0.007926 0.000000
0.003177 0.007930 0.000000
0.003291 0.007930 0.000000
0.003497 0.007917 0.000000
0.003586 0.007902 0.000000
0.003670 0.007875 0.000000
0.003750 0.007838 0.000000
0.003827 0.007791 0.000000
0.003903 0.007734 0.000000
0.004053 0.007592 0.000000
0.004739 0.006778 0.000000
0.004873 0.006576 0.000000
0.005037 0.006265 0.000000
0.005270 0.005653 0.000000
0.005294 0.005539 0.000000
0.005303 0.005438 0.000000
0.005298 0.005346 0.000000
0.005282 0.005259 0.000000
0.005256 0.005176 0.000000
0.005221 0.005092 0.000000
0.005179 0.005005 0.000000
0.005131 0.004912 0.000000
0.005080 0.004809 0.000000
0.000778 0.003692 0.000000
0.000979 0.004365 0.000000
0.000393 0.002379 0.000000
0.000579 0.003018 0.000000
0.000104 0.001350 0.000000
0.000231 0.001811 0.000000
0.000001 0.000892 0.000000
0.000023 0.001032 0.000000
0.000138 0.000298 0.000000
0.000074 0.000497 0.000000
0.000235 0.000127 0.000000
0.000181 0.000207 0.000000
0.000299 0.000064 0.000000
0.000567 0.000000 0.000000
0.001040 0.000065 0.000000
0.000793 0.000018 0.000000
0.001548 0.000261 0.000000
0.001296 0.000145 0.000000
0.001891 0.000510 0.000000
0.001783 0.000416 0.000000
0.002565 0.001188 0.000000
0.002333 0.000938 0.000000
0.003581 0.002484 0.000000
0.002727 0.001381 0.000000
0.004184 0.003317 0.000000
0.003879 0.002885 0.000000
0.004671 0.003986 0.000000
0.004601 0.003885 0.000000
0.004859 0.004308 0.000000
0.004799 0.004195 0.000000
0.005026 0.004694 0.000000
0.004916 0.004430 0.000000
0.005303 0.005438 0.150000
0.005294 0.005539 0.150000
0.004053 0.007592 0.150000
0.004739 0.006778 0.150000
0.003586 0.007902 0.150000
0.003497 0.007917 0.150000
0.003750 0.007838 0.150000
0.003670 0.007875 0.150000
0.003291 0.007930 0.150000
0.003177 0.007930 0.150000
0.003059 0.007926 0.150000
0.002940 0.007918 0.150000
0.002822 0.007906 0.150000
0.002601 0.007866 0.150000
0.002503 0.007838 0.150000
0.002418 0.007804 0.150000
0.002347 0.007765 0.150000
0.002294 0.007720 0.150000
0.002184 0.007560 0.150000
0.001625 0.006471 0.150000
0.001581 0.006337 0.150000
0.001483 0.006024 0.150000
0.001343 0.005567 0.150000
0.001171 0.005002 0.150000
0.000979 0.004365 0.150000
0.000778 0.003692 0.150000
0.000579 0.003018 0.150000
0.000393 0.002379 0.150000
0.000231 0.001811 0.150000
0.000104 0.001350 0.150000
0.000023 0.001032 0.150000
0.000001 0.000892 0.150000
0.000074 0.000497 0.150000
0.000138 0.000298 0.150000
0.000181 0.000207 0.150000
0.000235 0.000127 0.150000
0.000299 0.000064 0.150000
0.000567 0.000000 0.150000
0.000793 0.000018 0.150000
0.001040 0.000065 0.150000
0.001296 0.000145 0.150000
0.001548 0.000261 0.150000
0.001783 0.000416 0.150000
0.001891 0.000510 0.150000
0.002333 0.000938 0.150000
0.002565 0.001188 0.150000
0.002727 0.001381 0.150000
0.003581 0.002484 0.150000
0.003879 0.002885 0.150000
0.004184 0.003317 0.150000
0.004601 0.003885 0.150000
0.004671 0.003986 0.150000
0.003903 0.007734 0.150000
0.003827 0.007791 0.150000
0.005037 0.006265 0.150000
0.004873 0.006576 0.150000
0.005270 0.005653 0.150000
0.005298 0.005346 0.150000
0.005256 0.005176 0.150000
0.005282 0.005259 0.150000
0.005179 0.005005 0.150000
0.005221 0.005092 0.150000
0.005131 0.004912 0.150000
0.004799 0.004195 0.150000
0.004859 0.004308 0.150000
0.004916 0.004430 0.150000
0.005026 0.004694 0.150000
0.005080 0.004809 0.150000
3 0 1 2
3 0 2 3
3 4 5 6
3 6 7 8
3 8 9 10
3 10 11 12
3 12 13 14
3 14 15 16
3 16 17 18
3 18 19 20
3 20 21 22
3 22 23 24
3 24 25 26
3 26 27 28
3 28 29 30
3 30 31 32
3 32 33 34
3 34 35 36
3 36 37 38
3 36 38 39
3 32 34 36
3 28 30 32
3 24 26 28
3 20 22 24
3 16 18 20
3 12 14 16
3 8 10 12
3 4 6 8
3 40 41 4
3 42 43 40
3 44 45 42
3 46 47 44
3 48 49 46
3 50 51 48
3 1 52 50
3 53 2 1
3 54 55 53
3 56 57 54
3 58 59 56
3 60 61 58
3 62 63 60
3 64 65 62
3 66 67 64
3 68 69 66
3 70 71 68
3 32 36 39
3 70 68 66
3 32 39 70
3 24 28 32
3 16 20 24
3 8 12 16
3 40 4 8
3 44 42 40
3 48 46 44
3 1 50 48
3 54 53 1
3 58 56 54
3 62 60 58
3 70 66 64
3 64 62 58
3 58 54 1
3 1 48 44
3 44 40 8
3 8 16 24
3 24 32 70
3 70 64 58
3 58 1 44
3 44 8 24
3 24 70 58
3 24 58 44
3 72 32 31
3 72 31 73
3 27 26 74
3 27 74 75
3 76 21 20
3 76 20 77
3 78 79 76
3 76 77 80
3 80 81 82
3 82 83 84
3 84 85 86
3 86 87 88
3 88 89 90
3 90 91 92
3 92 93 94
3 94 95 96
3 96 97 98
3 98 99 100
3 100 101 102
3 102 103 104
3 104 105 106
3 106 107 108
3 108 0 3
3 3 109 110
3 110 111 112
3 112 113 114
3 114 115 116
3 116 117 118
3 118 119 120
3 121 122 123
3 118 120 121
3 114 116 118
3 110 112 114
3 108 3 110
3 104 106 108
3 100 102 104
3 96 98 100
3 92 94 96
3 88 90 92
3 84 86 88
3 80 82 84
3 78 76 80
3 124 125 78
3 75 74 124
3 126 127 75
3 73 128 126
3 129 72 73
3 130 131 129
3 132 133 130
3 134 132 130
3 130 129 73
3 73 126 75
3 75 124 78
3 78 80 84
3 84 88 92
3 92 96 100
3 100 104 108
3 108 110 114
3 114 118 121
3 121 123 135
3 135 136 137
3 135 137 138
3 114 121 135
3 100 108 114
3 84 92 100
3 75 78 84
3 130 73 75
3 139 134 130
3 114 135 138
3 139 130 75
3 114 138 139
3 84 100 114
3 139 75 84
3 84 114 139
3 125 24 23
3 125 23 78
3 105 48 51
3 105 51 106
3 86 13 12
3 86 12 87
3 73 31 30
3 73 30 128
3 27 75 127
3 27 127 28
3 67 66 123
3 67 123 122
3 64 67 122
3 64 122 121
3 65 64 121
3 65 121 120
3 118 63 62
3 62 65 120
3 119 118 62
3 120 119 62
3 10 9 90
3 10 90 89
3 106 51 50
3 106 50 107
3 126 29 28
3 126 28 127
3 46 49 104
3 46 104 103
3 16 15 84
3 16 84 83
3 17 16 83
3 17 83 82
3 80 19 18
3 18 17 82
3 81 80 18
3 82 81 18
3 123 66 69
3 123 69 135
3 74 26 25
3 74 25 124
3 130 35 34
3 130 34 131
3 44 47 102
3 44 102 101
3 43 42 44
3 41 40 43
3 5 4 41
3 7 6 5
3 91 8 7
3 92 91 7
3 7 5 41
3 41 43 44
3 44 101 100
3 44 100 99
3 7 41 44
3 93 92 7
3 94 93 7
3 7 44 99
3 7 99 98
3 95 94 7
3 96 95 7
3 7 98 97
3 97 96 7
3 107 50 52
3 107 52 108
3 104 49 48
3 104 48 105
3 111 54 57
3 111 57 112
3 53 55 110
3 53 110 109
3 131 34 33
3 131 33 129
3 3 2 53
3 3 53 109
3 85 14 13
3 85 13 86
3 36 35 130
3 36 130 133
3 39 36 133
3 69 68 70
3 70 39 133
3 70 133 132
3 135 69 70
3 136 135 70
3 70 132 134
3 70 134 139
3 137 136 70
3 70 139 138
3 70 138 137
3 108 52 1
3 108 1 0
3 77 20 19
3 77 19 80
3 87 12 11
3 87 11 88
3 79 22 21
3 79 21 76
3 84 15 14
3 84 14 85
3 88 11 10
3 88 10 89
3 56 113 112
3 56 112 57
3 110 55 54
3 110 54 111
3 124 25 24
3 124 24 125
3 102 47 46
3 102 46 103
3 9 8 91
3 9 91 90
3 30 29 126
3 30 126 128
3 60 63 118
3 60 118 117
3 61 60 117
3 61 117 116
3 114 59 58
3 58 61 116
3 115 114 58
3 116 115 58
3 56 59 114
3 56 114 113
3 129 33 32
3 129 32 72
3 78 23 22
3 78 22 79
