ply
format ascii 1.0
comment Created by Blender 3.6.8 - www.blender.org
element vertex 200
property float x
property float y
property float z
element face 387
property list uchar uint vertex_indices
end_header
0.005342 0.000490 0.150000
0.005342 0.000490 0.000000
0.005428 0.000564 0.000000
0.005428 0.000564 0.150000
0.000292 0.005865 0.150000
0.000292 0.005865 0.000000
0.000207 0.005770 0.000000
0.000207 0.005770 0.150000
0.000936 0.006445 0.000000
0.000868 0.006394 0.000000
0.000868 0.006394 0.150000
0.000936 0.006445 0.150000
0.001025 0.006506 0.000000
0.001025 0.006506 0.150000
0.001129 0.006576 0.000000
0.001129 0.006576 0.150000
0.001242 0.006649 0.000000
0.001242 0.006649 0.150000
0.001361 0.006724 0.000000
0.001361 0.006724 0.150000
0.001478 0.006797 0.000000
0.001478 0.006797 0.150000
0.001591 0.006865 0.000000
0.001591 0.006865 0.150000
0.001777 0.006971 0.150000
0.001777 0.006971 0.000000
0.001692 0.006924 0.000000
0.001692 0.006924 0.150000
0.005293 0.002890 0.150000
0.005293 0.002890 0.000000
0.005220 0.003004 0.000000
0.005220 0.003004 0.150000
0.003735 0.000023 0.000000
0.003577 0.000010 0.000000
0.003437 0.000003 0.000000
0.003208 0.000003 0.000000
0.003080 0.000012 0.000000
0.002940 0.000028 0.000000
0.002635 0.000079 0.000000
0.002321 0.000156 0.000000
0.002023 0.000258 0.000000
0.001769 0.000387 0.000000
0.001666 0.000461 0.000000
0.001563 0.000559 0.000000
0.001162 0.001045 0.000000
0.001014 0.001247 0.000000
0.000864 0.001458 0.000000
0.000719 0.001669 0.000000
0.000583 0.001876 0.000000
0.000459 0.002069 0.000000
0.000352 0.002242 0.000000
0.000267 0.002389 0.000000
0.000208 0.002502 0.000000
0.000167 0.002624 0.000000
0.000131 0.002798 0.000000
0.000101 0.003011 0.000000
0.000076 0.003253 0.000000
0.000055 0.003513 0.000000
0.000025 0.004040 0.000000
0.000000 0.004890 0.000000
0.000168 0.005695 0.000000
0.000184 0.005736 0.000000
0.000350 0.005922 0.000000
0.000414 0.005983 0.000000
0.000482 0.006046 0.000000
0.000552 0.006109 0.000000
0.000741 0.006278 0.000000
0.000788 0.006322 0.000000
0.000824 0.006357 0.000000
0.001842 0.007004 0.000000
0.001880 0.007019 0.000000
0.001905 0.007014 0.000000
0.001933 0.006991 0.000000
0.001964 0.006951 0.000000
0.001998 0.006896 0.000000
0.002035 0.006828 0.000000
0.002076 0.006749 0.000000
0.002268 0.006354 0.000000
0.003906 0.000039 0.000000
0.004768 0.000186 0.000000
0.004084 0.000061 0.000000
0.005103 0.000318 0.000000
0.005019 0.000271 0.000000
0.005584 0.000747 0.000000
0.005510 0.000649 0.000000
0.005697 0.000987 0.000000
0.005648 0.000859 0.000000
0.005735 0.001299 0.000000
0.005727 0.001133 0.000000
0.005668 0.001695 0.000000
0.005716 0.001485 0.000000
0.005609 0.001903 0.000000
0.002323 0.006244 0.000000
0.005482 0.002401 0.000000
0.005520 0.002253 0.000000
0.005561 0.002088 0.000000
0.002382 0.006134 0.000000
0.002445 0.006024 0.000000
0.005402 0.002659 0.000000
0.005444 0.002535 0.000000
0.004880 0.003376 0.000000
0.005017 0.003243 0.000000
0.003977 0.004187 0.000000
0.002594 0.005798 0.000000
0.003867 0.004291 0.000000
0.002677 0.005683 0.000000
0.002765 0.005568 0.000000
0.003760 0.004397 0.000000
0.003655 0.004505 0.000000
0.002857 0.005451 0.000000
0.002952 0.005333 0.000000
0.003553 0.004617 0.000000
0.003150 0.005095 0.000000
0.003352 0.004855 0.000000
0.003452 0.004734 0.000000
0.003050 0.005214 0.000000
0.005584 0.000747 0.150000
0.005648 0.000859 0.150000
0.005697 0.000987 0.150000
0.001933 0.006991 0.150000
0.001905 0.007014 0.150000
0.003452 0.004734 0.150000
0.003352 0.004855 0.150000
0.003150 0.005095 0.150000
0.005017 0.003243 0.150000
0.004880 0.003376 0.150000
0.003977 0.004187 0.150000
0.005444 0.002535 0.150000
0.005402 0.002659 0.150000
0.005520 0.002253 0.150000
0.005482 0.002401 0.150000
0.005561 0.002088 0.150000
0.005609 0.001903 0.150000
0.005716 0.001485 0.150000
0.005668 0.001695 0.150000
0.005727 0.001133 0.150000
0.005735 0.001299 0.150000
0.005510 0.000649 0.150000
0.005019 0.000271 0.150000
0.005103 0.000318 0.150000
0.004084 0.000061 0.150000
0.004768 0.000186 0.150000
0.003735 0.000023 0.150000
0.003906 0.000039 0.150000
0.003437 0.000003 0.150000
0.003577 0.000010 0.150000
0.003080 0.000012 0.150000
0.003208 0.000003 0.150000
0.002635 0.000079 0.150000
0.002940 0.000028 0.150000
0.002023 0.000258 0.150000
0.002321 0.000156 0.150000
0.001666 0.000461 0.150000
0.001769 0.000387 0.150000
0.001162 0.001045 0.150000
0.001563 0.000559 0.150000
0.000864 0.001458 0.150000
0.001014 0.001247 0.150000
0.000583 0.001876 0.150000
0.000719 0.001669 0.150000
0.000352 0.002242 0.150000
0.000459 0.002069 0.150000
0.000208 0.002502 0.150000
0.000267 0.002389 0.150000
0.000131 0.002798 0.150000
0.000167 0.002624 0.150000
0.000076 0.003253 0.150000
0.000101 0.003011 0.150000
0.000025 0.004040 0.150000
0.000055 0.003513 0.150000
0.000168 0.005695 0.150000
0.000000 0.004890 0.150000
0.000184 0.005736 0.150000
0.000350 0.005922 0.150000
0.000482 0.006046 0.150000
0.000414 0.005983 0.150000
0.000741 0.006278 0.150000
0.000552 0.006109 0.150000
0.000824 0.006357 0.150000
0.000788 0.006322 0.150000
0.001842 0.007004 0.150000
0.001880 0.007019 0.150000
0.001964 0.006951 0.150000
0.002035 0.006828 0.150000
0.001998 0.006896 0.150000
0.002268 0.006354 0.150000
0.002076 0.006749 0.150000
0.003867 0.004291 0.150000
0.003760 0.004397 0.150000
0.002323 0.006244 0.150000
0.003655 0.004505 0.150000
0.003553 0.004617 0.150000
0.002382 0.006134 0.150000
0.002445 0.006024 0.150000
0.002594 0.005798 0.150000
0.003050 0.005214 0.150000
0.002677 0.005683 0.150000
0.002765 0.005568 0.150000
0.002952 0.005333 0.150000
0.002857 0.005451 0.150000
3 0 1 2
3 0 2 3
3 4 5 6
3 4 6 7
3 8 9 10
3 8 10 11
3 12 8 11
3 12 11 13
3 14 12 13
3 14 13 15
3 16 14 15
3 16 15 17
3 18 16 17
3 18 17 19
3 20 18 19
3 20 19 21
3 22 20 21
3 22 21 23
3 24 25 26
3 26 22 23
3 27 24 26
3 23 27 26
3 28 29 30
3 28 30 31
3 32 33 34
3 34 35 36
3 36 37 38
3 38 39 40
3 40 41 42
3 42 43 44
3 44 45 46
3 46 47 48
3 48 49 50
3 50 51 52
3 52 53 54
3 54 55 56
3 56 57 58
3 58 59 60
3 60 61 6
3 6 5 62
3 62 63 64
3 64 65 66
3 67 68 9
3 62 64 66
3 66 67 9
3 9 8 12
3 12 14 16
3 16 18 20
3 20 22 26
3 26 25 69
3 69 70 71
3 71 72 73
3 73 74 75
3 75 76 77
3 73 75 77
3 69 71 73
3 20 26 69
3 12 16 20
3 66 9 12
3 6 62 66
3 58 60 6
3 54 56 58
3 50 52 54
3 46 48 50
3 42 44 46
3 38 40 42
3 34 36 38
3 78 32 34
3 79 80 78
3 81 82 79
3 2 1 81
3 83 84 2
3 85 86 83
3 87 88 85
3 89 90 87
3 91 89 87
3 87 85 83
3 83 2 81
3 81 79 78
3 78 34 38
3 38 42 46
3 46 50 54
3 54 58 6
3 6 66 12
3 12 20 69
3 69 73 77
3 69 77 92
3 6 12 69
3 46 54 6
3 78 38 46
3 83 81 78
3 91 87 83
3 93 94 95
3 95 91 83
3 83 78 46
3 46 6 69
3 69 92 96
3 69 96 97
3 83 46 69
3 93 95 83
3 98 99 93
3 30 29 98
3 100 101 30
3 102 100 30
3 30 98 93
3 83 69 97
3 83 97 103
3 30 93 83
3 104 102 30
3 104 30 83
3 83 103 105
3 83 105 106
3 107 104 83
3 108 107 83
3 83 106 109
3 83 109 110
3 111 108 83
3 112 113 114
3 114 111 83
3 83 110 115
3 112 114 83
3 115 112 83
3 116 83 86
3 116 86 117
3 117 86 85
3 117 85 118
3 119 72 71
3 119 71 120
3 121 122 123
3 124 125 126
3 28 31 124
3 127 128 28
3 129 130 127
3 131 129 127
3 127 28 124
3 127 124 126
3 132 131 127
3 133 134 132
3 135 136 133
3 117 118 135
3 137 116 117
3 0 3 137
3 138 139 0
3 140 141 138
3 142 143 140
3 144 145 142
3 146 147 144
3 148 149 146
3 150 151 148
3 152 153 150
3 154 155 152
3 156 157 154
3 158 159 156
3 160 161 158
3 162 163 160
3 164 165 162
3 166 167 164
3 168 169 166
3 170 171 168
3 7 172 170
3 173 4 7
3 174 175 173
3 176 177 174
3 10 178 179
3 176 174 173
3 10 179 176
3 13 11 10
3 17 15 13
3 21 19 17
3 27 23 21
3 180 24 27
3 120 181 180
3 182 119 120
3 183 184 182
3 185 186 183
3 185 183 182
3 182 120 180
3 180 27 21
3 21 17 13
3 13 10 176
3 176 173 7
3 7 170 168
3 168 166 164
3 164 162 160
3 160 158 156
3 156 154 152
3 152 150 148
3 148 146 144
3 144 142 140
3 140 138 0
3 0 137 117
3 117 135 133
3 133 132 127
3 127 126 187
3 127 187 188
3 117 133 127
3 140 0 117
3 148 144 140
3 156 152 148
3 164 160 156
3 7 168 164
3 13 176 7
3 180 21 13
3 185 182 180
3 189 185 180
3 180 13 7
3 7 164 156
3 156 148 140
3 140 117 127
3 127 188 190
3 127 190 191
3 156 140 127
3 180 7 156
3 192 189 180
3 193 192 180
3 156 127 191
3 156 191 121
3 193 180 156
3 194 193 156
3 156 121 123
3 156 123 195
3 196 194 156
3 197 196 156
3 156 195 198
3 199 197 156
3 198 199 156
3 150 40 39
3 150 39 151
3 115 110 109
3 109 106 105
3 105 103 194
3 105 194 196
3 115 109 105
3 113 112 115
3 111 114 113
3 107 108 111
3 190 188 107
3 191 190 107
3 107 111 113
3 113 115 105
3 105 196 197
3 105 197 199
3 107 113 105
3 121 191 107
3 122 121 107
3 107 105 199
3 107 199 198
3 123 122 107
3 107 198 195
3 195 123 107
3 3 2 84
3 3 84 137
3 152 42 41
3 152 41 153
3 7 6 61
3 7 61 172
3 145 144 34
3 145 34 33
3 142 145 33
3 142 33 32
3 80 140 143
3 143 142 32
3 78 80 143
3 32 78 143
3 138 82 81
3 138 81 139
3 180 69 25
3 180 25 24
3 79 82 138
3 79 138 141
3 155 43 42
3 155 42 152
3 153 41 40
3 153 40 150
3 136 87 90
3 136 90 133
3 147 35 34
3 147 34 144
3 73 182 184
3 73 184 183
3 92 77 73
3 73 183 186
3 73 186 185
3 92 73 185
3 92 185 189
3 193 97 96
3 96 92 189
3 192 193 96
3 189 192 96
3 137 84 83
3 137 83 116
3 165 53 52
3 165 52 162
3 45 44 154
3 45 154 157
3 46 45 157
3 46 157 156
3 47 46 156
3 47 156 159
3 48 47 159
3 48 159 158
3 49 48 158
3 49 158 161
3 163 51 50
3 50 49 161
3 160 163 50
3 50 161 160
3 194 103 97
3 194 97 193
3 135 88 87
3 135 87 136
3 102 104 107
3 107 188 187
3 107 187 126
3 100 102 107
3 124 101 100
3 107 126 125
3 125 124 100
3 107 125 100
3 60 59 171
3 60 171 170
3 62 5 4
3 62 4 173
3 66 62 173
3 178 10 9
3 179 178 9
3 9 66 173
3 9 173 175
3 176 179 9
3 177 176 9
3 9 175 174
3 174 177 9
3 91 95 94
3 89 91 94
3 133 90 89
3 134 133 89
3 89 94 93
3 99 98 128
3 134 89 93
3 93 99 128
3 93 128 127
3 132 134 93
3 131 132 93
3 93 127 130
3 129 131 93
3 93 130 129
3 164 54 53
3 164 53 165
3 80 79 141
3 80 141 140
3 39 38 148
3 39 148 151
3 182 73 72
3 182 72 119
3 98 29 28
3 98 28 128
3 181 70 69
3 181 69 180
3 36 35 147
3 36 147 146
3 148 38 37
3 37 36 146
3 149 148 37
3 146 149 37
3 101 124 31
3 101 31 30
3 154 44 43
3 154 43 155
3 118 85 88
3 118 88 135
3 54 164 167
3 54 167 166
3 57 56 54
3 59 58 57
3 168 171 59
3 54 166 169
3 169 168 59
3 59 57 54
3 54 169 59
3 162 52 51
3 162 51 163
3 120 71 70
3 120 70 181
3 81 1 0
3 81 0 139
3 172 61 60
3 172 60 170
