ply
format ascii 1.0
comment Created by Blender 3.6.8 - www.blender.org
element vertex 154
property float x
property float y
property float z
element face 299
property list uchar uint vertex_indices
end_header
0.003657 0.003239 0.000000
0.002343 0.000579 0.000000
0.002177 0.000349 0.000000
0.002101 0.000273 0.000000
0.002029 0.000218 0.000000
0.001958 0.000179 0.000000
0.001887 0.000151 0.000000
0.001815 0.000132 0.000000
0.001661 0.000098 0.000000
0.001576 0.000075 0.000000
0.001390 0.000013 0.000000
0.001304 0.000001 0.000000
0.001222 0.000003 0.000000
0.003773 0.003628 0.000000
0.003741 0.003487 0.000000
0.003956 0.005337 0.000000
0.003948 0.005070 0.000000
0.003904 0.005736 0.000000
0.003932 0.005601 0.000000
0.003767 0.006353 0.000000
0.003796 0.006242 0.000000
0.003873 0.005869 0.000000
0.001146 0.000019 0.000000
0.001074 0.000046 0.000000
0.001005 0.000081 0.000000
0.000938 0.000122 0.000000
0.000679 0.000310 0.000000
0.000550 0.000392 0.000000
0.000496 0.000437 0.000000
0.000450 0.000487 0.000000
0.000410 0.000543 0.000000
0.000375 0.000605 0.000000
0.000314 0.000756 0.000000
0.000285 0.000845 0.000000
0.000076 0.001572 0.000000
0.000050 0.001675 0.000000
0.000031 0.001768 0.000000
0.000007 0.001938 0.000000
0.000002 0.002024 0.000000
0.000000 0.002116 0.000000
0.000001 0.002216 0.000000
0.000003 0.002330 0.000000
0.000012 0.002613 0.000000
0.000025 0.002775 0.000000
0.000089 0.003091 0.000000
0.000191 0.003391 0.000000
0.000250 0.003534 0.000000
0.000312 0.003671 0.000000
0.000374 0.003801 0.000000
0.000489 0.004041 0.000000
0.003733 0.006457 0.000000
0.003640 0.006637 0.000000
0.003692 0.006552 0.000000
0.003496 0.006773 0.000000
0.003576 0.006711 0.000000
0.003284 0.006859 0.000000
0.003400 0.006823 0.000000
0.002999 0.006899 0.000000
0.003148 0.006883 0.000000
0.002680 0.006908 0.000000
0.002842 0.006907 0.000000
0.002364 0.006898 0.000000
0.002519 0.006905 0.000000
0.001824 0.006849 0.000000
0.002090 0.006878 0.000000
0.001604 0.006395 0.000000
0.001671 0.006520 0.000000
0.001711 0.006584 0.000000
0.000538 0.004150 0.000000
0.000629 0.004373 0.000000
0.000705 0.004546 0.000000
0.001514 0.006221 0.000000
0.001287 0.005769 0.000000
0.001406 0.006008 0.000000
0.000913 0.004996 0.000000
0.001035 0.005252 0.000000
0.000801 0.004758 0.000000
0.000007 0.001938 0.150000
0.000002 0.002024 0.150000
0.000000 0.002116 0.150000
0.000001 0.002216 0.150000
0.000003 0.002330 0.150000
0.000025 0.002775 0.150000
0.000012 0.002613 0.150000
0.000450 0.000487 0.150000
0.000496 0.000437 0.150000
0.000550 0.000392 0.150000
0.000679 0.000310 0.150000
0.000938 0.000122 0.150000
0.001005 0.000081 0.150000
0.000375 0.000605 0.150000
0.000410 0.000543 0.150000
0.000285 0.000845 0.150000
0.000314 0.000756 0.150000
0.000050 0.001675 0.150000
0.000076 0.001572 0.150000
0.000031 0.001768 0.150000
0.000191 0.003391 0.150000
0.000089 0.003091 0.150000
0.000312 0.003671 0.150000
0.000250 0.003534 0.150000
0.000489 0.004041 0.150000
0.000374 0.003801 0.150000
0.000705 0.004546 0.150000
0.000629 0.004373 0.150000
0.000538 0.004150 0.150000
0.000801 0.004758 0.150000
0.000913 0.004996 0.150000
0.001074 0.000046 0.150000
0.001146 0.000019 0.150000
0.001222 0.000003 0.150000
0.001304 0.000001 0.150000
0.001390 0.000013 0.150000
0.001576 0.000075 0.150000
0.001287 0.005769 0.150000
0.001035 0.005252 0.150000
0.001514 0.006221 0.150000
0.001406 0.006008 0.150000
0.001671 0.006520 0.150000
0.001604 0.006395 0.150000
0.002090 0.006878 0.150000
0.001824 0.006849 0.150000
0.001711 0.006584 0.150000
0.001661 0.000098 0.150000
0.001815 0.000132 0.150000
0.001887 0.000151 0.150000
0.001958 0.000179 0.150000
0.002029 0.000218 0.150000
0.002101 0.000273 0.150000
0.002177 0.000349 0.150000
0.002343 0.000579 0.150000
0.003657 0.003239 0.150000
0.003741 0.003487 0.150000
0.003773 0.003628 0.150000
0.003948 0.005070 0.150000
0.003956 0.005337 0.150000
0.003932 0.005601 0.150000
0.003904 0.005736 0.150000
0.003873 0.005869 0.150000
0.003796 0.006242 0.150000
0.003767 0.006353 0.150000
0.002519 0.006905 0.150000
0.002364 0.006898 0.150000
0.002842 0.006907 0.150000
0.002680 0.006908 0.150000
0.003148 0.006883 0.150000
0.002999 0.006899 0.150000
0.003400 0.006823 0.150000
0.003284 0.006859 0.150000
0.003576 0.006711 0.150000
0.003496 0.006773 0.150000
0.003692 0.006552 0.150000
0.003640 0.006637 0.150000
0.003733 0.006457 0.150000
3 0 1 2
3 2 3 4
3 4 5 6
3 6 7 8
3 9 10 11
3 4 6 8
3 9 11 12
3 4 8 9
3 0 2 4
3 13 14 0
3 15 16 13
3 17 18 15
3 19 20 21
3 21 17 15
3 15 13 0
3 0 4 9
3 9 12 22
3 22 23 24
3 24 25 26
3 26 27 28
3 28 29 30
3 30 31 32
3 32 33 34
3 34 35 36
3 36 37 38
3 38 39 40
3 40 41 42
3 42 43 44
3 44 45 46
3 46 47 48
3 46 48 49
3 42 44 46
3 38 40 42
3 34 36 38
3 30 32 34
3 26 28 30
3 22 24 26
3 0 9 22
3 21 15 0
3 50 19 21
3 51 52 50
3 53 54 51
3 55 56 53
3 57 58 55
3 59 60 57
3 61 62 59
3 63 64 61
3 65 66 67
3 67 63 61
3 61 59 57
3 57 55 53
3 53 51 50
3 50 21 0
3 0 22 26
3 26 30 34
3 34 38 42
3 42 46 49
3 68 69 70
3 42 49 68
3 26 34 42
3 50 0 26
3 57 53 50
3 67 61 57
3 71 65 67
3 72 73 71
3 74 75 72
3 70 76 74
3 42 68 70
3 50 26 42
3 67 57 50
3 72 71 67
3 70 74 72
3 50 42 70
3 72 67 50
3 70 72 50
3 38 37 77
3 38 77 78
3 39 38 78
3 39 78 79
3 40 39 79
3 40 79 80
3 41 40 80
3 41 80 81
3 82 43 42
3 42 41 81
3 83 82 42
3 42 81 83
3 84 85 86
3 87 88 89
3 84 86 87
3 90 91 84
3 92 93 90
3 94 95 92
3 77 96 94
3 79 78 77
3 81 80 79
3 82 83 81
3 97 98 82
3 99 100 97
3 101 102 99
3 103 104 105
3 101 99 97
3 106 103 105
3 101 97 82
3 107 106 105
3 105 101 82
3 82 81 79
3 79 77 94
3 94 92 90
3 90 84 87
3 87 89 108
3 108 109 110
3 110 111 112
3 110 112 113
3 87 108 110
3 94 90 87
3 82 79 94
3 107 105 82
3 114 115 107
3 116 117 114
3 118 119 116
3 120 121 122
3 122 118 116
3 116 114 107
3 107 82 94
3 94 87 110
3 110 113 123
3 123 124 125
3 125 126 127
3 127 128 129
3 129 130 131
3 131 132 133
3 133 134 135
3 135 136 137
3 138 139 140
3 135 137 138
3 131 133 135
3 127 129 131
3 123 125 127
3 94 110 123
3 116 107 94
3 120 122 116
3 141 142 120
3 143 144 141
3 145 146 143
3 147 148 145
3 149 150 147
3 151 152 149
3 140 153 151
3 135 138 140
3 127 131 135
3 94 123 127
3 120 116 94
3 143 141 120
3 147 145 143
3 151 149 147
3 135 140 151
3 94 127 135
3 143 120 94
3 151 147 143
3 94 135 151
3 151 143 94
3 125 6 5
3 125 5 126
3 140 19 50
3 140 50 153
3 49 48 47
3 76 70 68
3 49 47 46
3 74 76 68
3 49 46 45
3 75 74 68
3 49 45 97
3 72 75 68
3 68 49 97
3 68 97 100
3 73 72 68
3 65 71 73
3 118 66 65
3 119 118 65
3 65 73 68
3 68 100 99
3 68 99 102
3 119 65 68
3 116 119 68
3 68 102 101
3 68 101 105
3 117 116 68
3 114 117 68
3 68 105 104
3 68 104 103
3 115 114 68
3 107 115 68
3 68 103 106
3 68 106 107
3 84 29 28
3 84 28 85
3 135 15 18
3 135 18 136
3 110 12 11
3 110 11 111
3 91 30 29
3 91 29 84
3 148 55 58
3 148 58 145
3 14 132 131
3 14 131 0
3 132 14 13
3 132 13 133
3 151 52 51
3 151 51 152
3 121 63 67
3 121 67 122
3 93 32 31
3 93 31 90
3 32 93 92
3 32 92 95
3 36 34 32
3 94 96 36
3 32 95 94
3 32 94 36
3 44 98 97
3 44 97 45
3 0 131 130
3 0 130 1
3 16 15 135
3 16 135 134
3 150 53 56
3 150 56 147
3 89 24 23
3 89 23 108
3 60 59 144
3 60 144 143
3 145 58 57
3 57 60 143
3 146 145 57
3 143 146 57
3 147 56 55
3 147 55 148
3 111 11 10
3 111 10 112
3 126 5 4
3 126 4 127
3 122 67 66
3 122 66 118
3 108 23 22
3 108 22 109
3 137 136 18
3 18 17 21
3 19 140 139
3 138 137 18
3 19 139 138
3 138 18 21
3 21 19 138
3 128 3 2
3 128 2 129
3 90 31 30
3 90 30 91
3 63 121 120
3 63 120 142
3 62 61 63
3 144 59 62
3 63 142 141
3 141 144 62
3 63 141 62
3 9 8 7
3 7 6 125
3 7 125 124
3 10 9 7
3 113 112 10
3 7 124 123
3 123 113 10
3 7 123 10
3 152 51 54
3 152 54 149
3 37 36 96
3 37 96 77
3 109 22 12
3 109 12 110
3 13 16 134
3 13 134 133
3 127 4 3
3 127 3 128
3 149 54 53
3 149 53 150
3 153 50 52
3 153 52 151
3 85 28 27
3 85 27 86
3 129 2 1
3 129 1 130
3 98 44 43
3 98 43 82
3 25 24 89
3 25 89 88
3 86 27 26
3 26 25 88
3 87 86 26
3 26 88 87
