ply
format ascii 1.0
comment Created by Blender 3.6.8 - www.blender.org
element vertex 160
property float x
property float y
property float z
element face 309
property list uchar uint vertex_indices
end_header
0.004597 0.010752 0.000000
0.004353 0.010913 0.000000
0.004353 0.010913 0.150000
0.004597 0.010752 0.150000
0.000976 0.009787 0.150000
0.001059 0.009887 0.150000
0.001059 0.009887 0.000000
0.000976 0.009787 0.000000
0.000899 0.009690 0.000000
0.000829 0.009598 0.000000
0.000000 0.008442 0.000000
0.000000 0.008442 0.150000
0.000829 0.009598 0.150000
0.000899 0.009690 0.150000
0.001146 0.009991 0.000000
0.001236 0.010095 0.000000
0.001329 0.010201 0.000000
0.001422 0.010305 0.000000
0.001515 0.010408 0.000000
0.001607 0.010508 0.000000
0.001695 0.010604 0.000000
0.001781 0.010694 0.000000
0.001879 0.010778 0.000000
0.002005 0.010854 0.000000
0.002322 0.010982 0.000000
0.002697 0.011074 0.000000
0.003094 0.011128 0.000000
0.003476 0.011143 0.000000
0.003808 0.011116 0.000000
0.003953 0.011084 0.000000
0.004092 0.011038 0.000000
0.004713 0.010662 0.000000
0.004826 0.010568 0.000000
0.005356 0.010085 0.000000
0.005449 0.009993 0.000000
0.005535 0.009898 0.000000
0.005618 0.009800 0.000000
0.005699 0.009696 0.000000
0.005781 0.009585 0.000000
0.005867 0.009463 0.000000
0.006416 0.008625 0.000000
0.000065 0.008370 0.000000
0.005457 0.003338 0.000000
0.005205 0.003574 0.000000
0.003559 0.005507 0.000000
0.006560 0.008417 0.000000
0.005721 0.003113 0.000000
0.008262 0.001180 0.000000
0.008458 0.001016 0.000000
0.006865 0.008039 0.000000
0.008620 0.000857 0.000000
0.007203 0.007694 0.000000
0.008757 0.000705 0.000000
0.007388 0.007525 0.000000
0.009090 0.000311 0.000000
0.008984 0.000430 0.000000
0.008875 0.000562 0.000000
0.007585 0.007355 0.000000
0.009202 0.000209 0.000000
0.009476 0.000059 0.000000
0.009328 0.000124 0.000000
0.009868 0.000000 0.000000
0.009653 0.000018 0.000000
0.011346 0.000063 0.000000
0.011208 0.000029 0.000000
0.011549 0.000232 0.000000
0.011459 0.000127 0.000000
0.011660 0.000597 0.000000
0.011616 0.000385 0.000000
0.011592 0.002772 0.000000
0.011682 0.000875 0.000000
0.011406 0.003438 0.000000
0.011485 0.003226 0.000000
0.011036 0.004070 0.000000
0.011307 0.003646 0.000000
0.010377 0.004884 0.000000
0.010859 0.004296 0.000000
0.010112 0.005193 0.000000
0.010243 0.005044 0.000000
0.009683 0.005632 0.000000
0.009979 0.005338 0.000000
0.009307 0.005965 0.000000
0.009508 0.005791 0.000000
0.008805 0.006377 0.000000
0.009075 0.006158 0.000000
0.008022 0.006999 0.000000
0.007796 0.007180 0.000000
0.005205 0.003574 0.150000
0.003559 0.005507 0.150000
0.011660 0.000597 0.150000
0.011682 0.000875 0.150000
0.011592 0.002772 0.150000
0.011485 0.003226 0.150000
0.011406 0.003438 0.150000
0.011307 0.003646 0.150000
0.011036 0.004070 0.150000
0.010859 0.004296 0.150000
0.010377 0.004884 0.150000
0.010243 0.005044 0.150000
0.010112 0.005193 0.150000
0.009979 0.005338 0.150000
0.009683 0.005632 0.150000
0.009508 0.005791 0.150000
0.009307 0.005965 0.150000
0.009075 0.006158 0.150000
0.008805 0.006377 0.150000
0.008022 0.006999 0.150000
0.011616 0.000385 0.150000
0.011459 0.000127 0.150000
0.011549 0.000232 0.150000
0.011208 0.000029 0.150000
0.011346 0.000063 0.150000
0.009653 0.000018 0.150000
0.009868 0.000000 0.150000
0.009328 0.000124 0.150000
0.009476 0.000059 0.150000
0.009090 0.000311 0.150000
0.009202 0.000209 0.150000
0.008875 0.000562 0.150000
0.008984 0.000430 0.150000
0.008757 0.000705 0.150000
0.007796 0.007180 0.150000
0.007585 0.007355 0.150000
0.008620 0.000857 0.150000
0.008458 0.001016 0.150000
0.007388 0.007525 0.150000
0.007203 0.007694 0.150000
0.008262 0.001180 0.150000
0.005457 0.003338 0.150000
0.005721 0.003113 0.150000
0.000065 0.008370 0.150000
0.001236 0.010095 0.150000
0.001146 0.009991 0.150000
0.001422 0.010305 0.150000
0.001329 0.010201 0.150000
0.001607 0.010508 0.150000
0.001515 0.010408 0.150000
0.001781 0.010694 0.150000
0.001695 0.010604 0.150000
0.002005 0.010854 0.150000
0.001879 0.010778 0.150000
0.002697 0.011074 0.150000
0.002322 0.010982 0.150000
0.003476 0.011143 0.150000
0.003094 0.011128 0.150000
0.003953 0.011084 0.150000
0.003808 0.011116 0.150000
0.004092 0.011038 0.150000
0.004713 0.010662 0.150000
0.005356 0.010085 0.150000
0.004826 0.010568 0.150000
0.005535 0.009898 0.150000
0.005449 0.009993 0.150000
0.005699 0.009696 0.150000
0.005618 0.009800 0.150000
0.005867 0.009463 0.150000
0.005781 0.009585 0.150000
0.006416 0.008625 0.150000
0.006865 0.008039 0.150000
0.006560 0.008417 0.150000
3 0 1 2
3 0 2 3
3 4 5 6
3 6 7 8
3 8 9 10
3 10 11 12
3 13 4 6
3 10 12 13
3 6 8 10
3 6 10 13
3 6 14 15
3 15 16 17
3 17 18 19
3 19 20 21
3 21 22 23
3 23 24 25
3 25 26 27
3 27 28 29
3 29 30 1
3 1 0 31
3 31 32 33
3 33 34 35
3 35 36 37
3 37 38 39
3 37 39 40
3 33 35 37
3 1 31 33
3 27 29 1
3 23 25 27
3 19 21 23
3 15 17 19
3 8 6 15
3 41 10 8
3 42 43 44
3 44 41 8
3 8 15 19
3 19 23 27
3 27 1 33
3 33 37 40
3 33 40 45
3 19 27 33
3 44 8 19
3 46 42 44
3 47 46 44
3 44 19 33
3 44 33 45
3 48 47 44
3 48 44 45
3 48 45 49
3 50 48 49
3 50 49 51
3 52 50 51
3 52 51 53
3 54 55 56
3 56 52 53
3 56 53 57
3 58 54 56
3 59 60 58
3 61 62 59
3 63 64 61
3 65 66 63
3 67 68 65
3 69 70 67
3 71 72 69
3 73 74 71
3 75 76 73
3 77 78 75
3 79 80 77
3 81 82 79
3 83 84 81
3 85 83 81
3 81 79 77
3 77 75 73
3 73 71 69
3 69 67 65
3 65 63 61
3 61 59 58
3 58 56 57
3 58 57 86
3 65 61 58
3 73 69 65
3 81 77 73
3 58 86 85
3 85 81 73
3 73 65 58
3 85 73 58
3 44 43 87
3 44 87 88
3 89 90 91
3 91 92 93
3 93 94 95
3 95 96 97
3 97 98 99
3 99 100 101
3 101 102 103
3 103 104 105
3 103 105 106
3 99 101 103
3 95 97 99
3 91 93 95
3 107 89 91
3 108 109 107
3 110 111 108
3 112 113 110
3 114 115 112
3 116 117 114
3 118 119 116
3 120 118 116
3 116 114 112
3 112 110 108
3 108 107 91
3 91 95 99
3 99 103 106
3 99 106 121
3 108 91 99
3 116 112 108
3 120 116 108
3 108 99 121
3 108 121 122
3 123 120 108
3 124 123 108
3 108 122 125
3 108 125 126
3 127 124 108
3 128 129 127
3 88 87 128
3 11 130 88
3 13 12 11
3 5 4 13
3 131 132 5
3 133 134 131
3 135 136 133
3 137 138 135
3 139 140 137
3 141 142 139
3 143 144 141
3 145 146 143
3 2 147 145
3 148 3 2
3 149 150 148
3 151 152 149
3 153 154 151
3 155 156 153
3 157 155 153
3 153 151 149
3 149 148 2
3 2 145 143
3 143 141 139
3 139 137 135
3 135 133 131
3 131 5 13
3 13 11 88
3 88 128 127
3 127 108 126
3 127 126 158
3 13 88 127
3 135 131 13
3 143 139 135
3 149 2 143
3 157 153 149
3 127 158 159
3 159 157 149
3 149 143 135
3 135 13 127
3 127 159 149
3 149 135 127
3 2 1 30
3 2 30 147
3 111 63 66
3 111 66 108
3 69 91 90
3 69 90 70
3 110 64 63
3 110 63 111
3 91 69 72
3 91 72 92
3 140 22 21
3 140 21 137
3 61 64 110
3 61 110 113
3 89 67 70
3 89 70 90
3 38 37 153
3 38 153 156
3 39 38 156
3 39 156 155
3 159 45 40
3 40 39 155
3 157 159 40
3 155 157 40
3 77 80 100
3 77 100 99
3 78 77 99
3 78 99 98
3 75 78 98
3 75 98 97
3 95 73 76
3 76 75 97
3 96 95 76
3 97 96 76
3 92 72 71
3 92 71 93
3 114 60 59
3 114 59 115
3 143 27 26
3 143 26 144
3 116 54 58
3 116 58 117
3 145 29 28
3 145 28 146
3 108 66 65
3 108 65 109
3 109 65 68
3 109 68 107
3 49 158 126
3 49 126 51
3 28 27 143
3 28 143 146
3 144 26 25
3 144 25 141
3 115 59 62
3 115 62 112
3 14 6 5
3 14 5 132
3 15 14 132
3 15 132 131
3 16 15 131
3 16 131 134
3 17 16 134
3 17 134 133
3 18 17 133
3 18 133 136
3 19 18 136
3 19 136 135
3 137 21 20
3 20 19 135
3 138 137 20
3 135 138 20
3 41 44 88
3 41 88 130
3 24 23 139
3 24 139 142
3 33 149 152
3 33 152 151
3 36 35 33
3 153 37 36
3 33 151 154
3 154 153 36
3 33 154 36
3 102 101 79
3 102 79 81
3 103 102 81
3 103 81 85
3 104 103 85
3 104 85 86
3 105 104 86
3 105 86 57
3 106 105 57
3 53 51 126
3 106 57 53
3 121 106 53
3 53 126 125
3 122 121 53
3 53 125 122
3 139 23 22
3 139 22 140
3 94 74 73
3 94 73 95
3 117 58 60
3 117 60 114
3 43 42 46
3 47 48 124
3 43 46 47
3 128 87 43
3 129 128 43
3 43 47 124
3 127 129 43
3 124 127 43
3 107 68 67
3 107 67 89
3 93 71 74
3 93 74 94
3 11 10 41
3 11 41 130
3 112 62 61
3 112 61 113
3 54 116 119
3 54 119 118
3 52 56 54
3 124 48 50
3 52 54 118
3 124 50 52
3 123 124 52
3 52 118 120
3 52 120 123
3 31 0 3
3 31 3 148
3 149 33 32
3 32 31 148
3 150 149 32
3 148 150 32
3 147 30 29
3 147 29 145
3 25 24 142
3 25 142 141
3 80 79 101
3 80 101 100
3 158 49 45
3 158 45 159
