ply
format ascii 1.0
comment Created by Blender 3.6.8 - www.blender.org
element vertex 170
property float x
property float y
property float z
element face 326
property list uchar uint vertex_indices
end_header
0.002728 0.004806 0.000000
0.000500 0.003429 0.000000
0.000500 0.003429 0.150000
0.002728 0.004806 0.150000
0.000198 0.003178 0.150000
0.000198 0.003178 0.000000
0.000114 0.003091 0.000000
0.000114 0.003091 0.150000
0.000647 0.000658 0.150000
0.000647 0.000658 0.000000
0.000646 0.000657 0.000000
0.000646 0.000657 0.150000
0.000643 0.000655 0.000000
0.000643 0.000655 0.150000
0.002266 0.000260 0.150000
0.003146 0.000065 0.150000
0.003994 0.000000 0.150000
0.004449 0.000677 0.150000
0.004521 0.000789 0.150000
0.004555 0.000845 0.150000
0.004586 0.000898 0.150000
0.004787 0.001320 0.150000
0.004813 0.001396 0.150000
0.004843 0.001522 0.150000
0.001562 0.000415 0.150000
0.001354 0.000460 0.150000
0.005093 0.002220 0.150000
0.001176 0.000499 0.150000
0.000932 0.000552 0.150000
0.001037 0.000529 0.150000
0.000780 0.000591 0.150000
0.000847 0.000573 0.150000
0.000668 0.000631 0.150000
0.000729 0.000607 0.150000
0.000645 0.000646 0.150000
0.000652 0.000639 0.150000
0.000642 0.000652 0.150000
0.000010 0.002931 0.150000
0.000001 0.002863 0.150000
0.000050 0.003008 0.150000
0.000294 0.003265 0.150000
0.000396 0.003350 0.150000
0.004583 0.005893 0.150000
0.003661 0.005521 0.150000
0.004614 0.005877 0.150000
0.004591 0.005889 0.150000
0.004702 0.005831 0.150000
0.004652 0.005858 0.150000
0.004836 0.005757 0.150000
0.004764 0.005797 0.150000
0.005006 0.005657 0.150000
0.004917 0.005710 0.150000
0.005202 0.005536 0.150000
0.005102 0.005599 0.150000
0.005414 0.005395 0.150000
0.005307 0.005468 0.150000
0.005663 0.005206 0.150000
0.005513 0.005325 0.150000
0.005809 0.005058 0.150000
0.005767 0.005106 0.150000
0.006018 0.004775 0.150000
0.005847 0.005010 0.150000
0.006135 0.004619 0.150000
0.006079 0.004698 0.150000
0.006194 0.004479 0.150000
0.006173 0.004546 0.150000
0.006197 0.004353 0.150000
0.006202 0.004415 0.150000
0.005957 0.003657 0.150000
0.006182 0.004291 0.150000
0.005817 0.003403 0.150000
0.005892 0.003518 0.150000
0.005735 0.003299 0.150000
0.005777 0.003350 0.150000
0.005646 0.003194 0.150000
0.005599 0.003137 0.150000
0.005551 0.003075 0.150000
0.005506 0.003013 0.150000
0.005114 0.002269 0.150000
0.005136 0.002318 0.150000
0.005435 0.002904 0.150000
0.005408 0.002855 0.150000
0.005160 0.002369 0.150000
0.005383 0.002810 0.150000
0.005188 0.002422 0.150000
0.005219 0.002478 0.150000
0.005250 0.002533 0.150000
0.005276 0.002584 0.150000
0.005299 0.002632 0.150000
0.005321 0.002678 0.150000
0.005341 0.002722 0.150000
0.005362 0.002765 0.150000
0.005892 0.003518 0.000000
0.005957 0.003657 0.000000
0.006197 0.004353 0.000000
0.006202 0.004415 0.000000
0.000001 0.002863 0.000000
0.000645 0.000646 0.000000
0.000652 0.000639 0.000000
0.003661 0.005521 0.000000
0.000668 0.000631 0.000000
0.004583 0.005893 0.000000
0.003994 0.000000 0.000000
0.003146 0.000065 0.000000
0.004787 0.001320 0.000000
0.004586 0.000898 0.000000
0.005646 0.003194 0.000000
0.005735 0.003299 0.000000
0.005777 0.003350 0.000000
0.005817 0.003403 0.000000
0.005599 0.003137 0.000000
0.005506 0.003013 0.000000
0.005551 0.003075 0.000000
0.005435 0.002904 0.000000
0.005767 0.005106 0.000000
0.005663 0.005206 0.000000
0.004843 0.001522 0.000000
0.005093 0.002220 0.000000
0.006173 0.004546 0.000000
0.006135 0.004619 0.000000
0.000050 0.003008 0.000000
0.000010 0.002931 0.000000
0.004555 0.000845 0.000000
0.004521 0.000789 0.000000
0.004449 0.000677 0.000000
0.006182 0.004291 0.000000
0.000642 0.000652 0.000000
0.000729 0.000607 0.000000
0.006194 0.004479 0.000000
0.000396 0.003350 0.000000
0.000294 0.003265 0.000000
0.005513 0.005325 0.000000
0.005809 0.005058 0.000000
0.005847 0.005010 0.000000
0.006018 0.004775 0.000000
0.006079 0.004698 0.000000
0.004591 0.005889 0.000000
0.004614 0.005877 0.000000
0.004652 0.005858 0.000000
0.004702 0.005831 0.000000
0.004764 0.005797 0.000000
0.004836 0.005757 0.000000
0.004917 0.005710 0.000000
0.005006 0.005657 0.000000
0.005102 0.005599 0.000000
0.005202 0.005536 0.000000
0.005307 0.005468 0.000000
0.005414 0.005395 0.000000
0.000847 0.000573 0.000000
0.000780 0.000591 0.000000
0.001037 0.000529 0.000000
0.000932 0.000552 0.000000
0.001176 0.000499 0.000000
0.001354 0.000460 0.000000
0.001562 0.000415 0.000000
0.002266 0.000260 0.000000
0.004813 0.001396 0.000000
0.005408 0.002855 0.000000
0.005383 0.002810 0.000000
0.005362 0.002765 0.000000
0.005114 0.002269 0.000000
0.005136 0.002318 0.000000
0.005341 0.002722 0.000000
0.005321 0.002678 0.000000
0.005299 0.002632 0.000000
0.005276 0.002584 0.000000
0.005250 0.002533 0.000000
0.005219 0.002478 0.000000
0.005188 0.002422 0.000000
0.005160 0.002369 0.000000
3 0 1 2
3 0 2 3
3 4 5 6
3 4 6 7
3 8 9 10
3 8 10 11
3 11 10 12
3 11 12 13
3 14 15 16
3 16 17 18
3 18 19 20
3 20 21 22
3 20 22 23
3 16 18 20
3 24 14 16
3 25 24 16
3 16 20 23
3 16 23 26
3 27 25 16
3 28 29 27
3 30 31 28
3 32 33 30
3 34 35 32
3 13 36 34
3 8 11 13
3 37 38 8
3 7 39 37
3 40 4 7
3 2 41 40
3 42 43 3
3 3 2 40
3 40 7 37
3 8 13 34
3 40 37 8
3 42 3 40
3 44 45 42
3 46 47 44
3 48 49 46
3 50 51 48
3 52 53 50
3 54 55 52
3 56 57 54
3 58 59 56
3 60 61 58
3 62 63 60
3 64 65 62
3 66 67 64
3 68 69 66
3 70 71 68
3 72 73 70
3 74 72 70
3 70 68 66
3 66 64 62
3 60 58 56
3 66 62 60
3 74 70 66
3 75 74 66
3 66 60 56
3 56 54 52
3 52 50 48
3 48 46 44
3 44 42 40
3 8 34 32
3 44 40 8
3 52 48 44
3 66 56 52
3 76 75 66
3 77 76 66
3 66 52 44
3 44 8 32
3 32 30 28
3 28 27 16
3 16 26 78
3 16 78 79
3 32 28 16
3 66 44 32
3 80 77 66
3 81 80 66
3 32 16 79
3 32 79 82
3 81 66 32
3 83 81 32
3 32 82 84
3 84 85 86
3 86 87 88
3 88 89 90
3 91 83 32
3 86 88 90
3 90 91 32
3 32 84 86
3 86 90 32
3 71 92 93
3 71 93 68
3 66 94 95
3 66 95 67
3 96 9 8
3 96 8 38
3 34 97 98
3 34 98 35
3 99 0 3
3 99 3 43
3 35 98 100
3 35 100 32
3 101 99 43
3 101 43 42
3 102 16 15
3 102 15 103
3 104 21 20
3 104 20 105
3 106 107 108
3 108 109 70
3 108 70 73
3 106 108 73
3 106 73 72
3 110 106 72
3 110 72 74
3 77 111 112
3 112 110 74
3 112 74 75
3 76 77 112
3 75 76 112
3 80 113 111
3 80 111 77
3 59 114 115
3 59 115 56
3 116 117 26
3 116 26 23
3 65 118 119
3 65 119 62
3 39 120 121
3 39 121 37
3 122 105 20
3 122 20 19
3 123 122 19
3 123 19 18
3 16 102 124
3 124 123 18
3 17 16 124
3 18 17 124
3 7 6 120
3 7 120 39
3 69 125 94
3 69 94 66
3 13 12 126
3 13 126 36
3 100 127 33
3 100 33 32
3 67 95 128
3 67 128 64
3 37 121 96
3 37 96 38
3 41 2 1
3 41 1 129
3 5 4 40
3 40 41 129
3 130 5 40
3 129 130 40
3 56 115 131
3 56 131 57
3 132 114 59
3 132 59 58
3 133 132 58
3 133 58 61
3 134 133 61
3 134 61 60
3 62 119 135
3 135 134 60
3 63 62 135
3 60 63 135
3 36 126 97
3 36 97 34
3 136 101 42
3 136 42 45
3 137 136 45
3 137 45 44
3 138 137 44
3 138 44 47
3 139 138 47
3 139 47 46
3 140 139 46
3 140 46 49
3 141 140 49
3 141 49 48
3 142 141 48
3 142 48 51
3 143 142 51
3 143 51 50
3 144 143 50
3 144 50 53
3 145 144 53
3 145 53 52
3 146 145 52
3 146 52 55
3 57 131 147
3 147 146 55
3 54 57 147
3 147 55 54
3 99 101 136
3 136 137 138
3 138 139 140
3 140 141 142
3 142 143 144
3 144 145 146
3 146 147 131
3 131 115 114
3 114 132 133
3 134 135 119
3 114 133 134
3 146 131 114
3 142 144 146
3 138 140 142
3 99 136 138
3 129 1 0
3 0 99 138
3 138 142 146
3 146 114 134
3 134 119 118
3 118 128 95
3 95 94 125
3 125 93 92
3 92 109 108
3 92 108 106
3 95 125 92
3 134 118 95
3 138 146 134
3 129 0 138
3 5 130 129
3 120 6 5
3 96 121 120
3 12 10 9
3 9 96 120
3 120 5 129
3 129 138 134
3 134 95 92
3 92 106 110
3 92 110 112
3 129 134 92
3 9 120 129
3 126 12 9
3 98 97 126
3 127 100 98
3 148 149 127
3 150 151 148
3 152 150 148
3 148 127 98
3 98 126 9
3 9 129 92
3 9 92 112
3 148 98 9
3 153 152 148
3 154 153 148
3 148 9 112
3 148 112 111
3 155 154 148
3 102 103 155
3 123 124 102
3 105 122 123
3 156 104 105
3 116 156 105
3 105 123 102
3 102 155 148
3 148 111 113
3 148 113 157
3 105 102 148
3 117 116 105
3 117 105 148
3 148 157 158
3 148 158 159
3 160 117 148
3 161 160 148
3 148 159 162
3 162 163 164
3 164 165 166
3 166 167 168
3 169 161 148
3 164 166 168
3 168 169 148
3 148 162 164
3 164 168 148
3 93 125 69
3 93 69 68
3 104 156 22
3 104 22 21
3 92 71 70
3 92 70 109
3 116 23 22
3 116 22 156
3 64 128 118
3 64 118 65
3 33 127 148
3 30 33 148
3 31 30 148
3 28 31 148
3 155 103 15
3 155 15 14
3 28 148 155
3 29 28 155
3 155 14 24
3 155 24 25
3 27 29 155
3 155 25 27
3 166 164 162
3 168 166 162
3 168 162 159
3 169 168 159
3 169 159 158
3 157 113 80
3 157 80 81
3 158 157 81
3 158 81 83
3 169 158 83
3 169 83 91
3 161 169 91
3 161 91 90
3 26 117 160
3 160 161 90
3 160 90 89
3 78 26 160
3 79 78 160
3 160 89 88
3 160 88 87
3 82 79 160
3 84 82 160
3 160 87 86
3 85 84 160
3 86 85 160
