ply
format ascii 1.0
comment Created by Blender 3.6.8 - www.blender.org
element vertex 140
property float x
property float y
property float z
element face 275
property list uchar uint vertex_indices
end_header
0.000443 0.004453 0.000000
0.000378 0.004407 0.000000
0.000378 0.004407 0.150000
0.000443 0.004453 0.150000
0.000347 0.004379 0.000000
0.000347 0.004379 0.150000
0.002297 0.000137 0.000000
0.002297 0.000137 0.150000
0.002181 0.000047 0.150000
0.002181 0.000047 0.000000
0.002532 0.000421 0.150000
0.002532 0.000421 0.000000
0.002577 0.000505 0.000000
0.002577 0.000505 0.150000
0.001909 0.000030 0.150000
0.001909 0.000030 0.000000
0.001947 0.000015 0.000000
0.001947 0.000015 0.150000
0.001402 0.005084 0.150000
0.001402 0.005084 0.000000
0.000561 0.004514 0.000000
0.000561 0.004514 0.150000
0.000291 0.004313 0.150000
0.000291 0.004313 0.000000
0.000269 0.004275 0.000000
0.000269 0.004275 0.150000
0.002506 0.003066 0.150000
0.002586 0.004473 0.150000
0.002587 0.005427 0.150000
0.002581 0.005629 0.150000
0.002574 0.005748 0.150000
0.002568 0.005844 0.150000
0.002563 0.005908 0.150000
0.002561 0.005932 0.150000
0.002374 0.006086 0.150000
0.002558 0.002310 0.150000
0.002528 0.002757 0.150000
0.002592 0.001785 0.150000
0.002622 0.001279 0.150000
0.002608 0.001523 0.150000
0.002641 0.000890 0.150000
0.002633 0.001063 0.150000
0.002635 0.000681 0.150000
0.002643 0.000770 0.150000
0.002612 0.000593 0.150000
0.002420 0.000265 0.150000
0.002090 0.000005 0.150000
0.002131 0.000019 0.150000
0.002019 0.000001 0.150000
0.002055 0.000001 0.150000
0.001983 0.000006 0.150000
0.001869 0.000050 0.150000
0.001735 0.000140 0.150000
0.001783 0.000104 0.150000
0.001570 0.000279 0.150000
0.001685 0.000181 0.150000
0.001377 0.000497 0.150000
0.001443 0.000413 0.150000
0.001164 0.000816 0.150000
0.001308 0.000593 0.150000
0.001011 0.001078 0.150000
0.001089 0.000942 0.150000
0.000674 0.001704 0.150000
0.000847 0.001375 0.150000
0.000499 0.002068 0.150000
0.000585 0.001882 0.150000
0.000340 0.002447 0.150000
0.000417 0.002258 0.150000
0.000203 0.002805 0.150000
0.000268 0.002631 0.150000
0.000095 0.003106 0.150000
0.000145 0.002965 0.150000
0.000025 0.003313 0.150000
0.000055 0.003223 0.150000
0.000000 0.003390 0.150000
0.000006 0.003370 0.150000
0.000248 0.004227 0.150000
0.000016 0.003501 0.150000
0.000317 0.004347 0.150000
0.000526 0.004499 0.150000
0.000502 0.004487 0.150000
0.000556 0.004512 0.150000
0.000544 0.004507 0.150000
0.001983 0.000006 0.000000
0.002374 0.006086 0.000000
0.000417 0.002258 0.000000
0.000499 0.002068 0.000000
0.000340 0.002447 0.000000
0.000268 0.002631 0.000000
0.000203 0.002805 0.000000
0.000145 0.002965 0.000000
0.000095 0.003106 0.000000
0.000055 0.003223 0.000000
0.000025 0.003313 0.000000
0.000000 0.003390 0.000000
0.000006 0.003370 0.000000
0.000016 0.003501 0.000000
0.002561 0.005932 0.000000
0.002055 0.000001 0.000000
0.002090 0.000005 0.000000
0.000502 0.004487 0.000000
0.002506 0.003066 0.000000
0.002528 0.002757 0.000000
0.002558 0.002310 0.000000
0.002592 0.001785 0.000000
0.002608 0.001523 0.000000
0.002622 0.001279 0.000000
0.002633 0.001063 0.000000
0.002641 0.000890 0.000000
0.002643 0.000770 0.000000
0.002635 0.000681 0.000000
0.002612 0.000593 0.000000
0.002420 0.000265 0.000000
0.002131 0.000019 0.000000
0.002019 0.000001 0.000000
0.001869 0.000050 0.000000
0.001783 0.000104 0.000000
0.001735 0.000140 0.000000
0.001685 0.000181 0.000000
0.001570 0.000279 0.000000
0.001443 0.000413 0.000000
0.001377 0.000497 0.000000
0.001308 0.000593 0.000000
0.001164 0.000816 0.000000
0.001089 0.000942 0.000000
0.001011 0.001078 0.000000
0.000847 0.001375 0.000000
0.000674 0.001704 0.000000
0.000585 0.001882 0.000000
0.000248 0.004227 0.000000
0.000317 0.004347 0.000000
0.000526 0.004499 0.000000
0.000544 0.004507 0.000000
0.000556 0.004512 0.000000
0.002563 0.005908 0.000000
0.002568 0.005844 0.000000
0.002574 0.005748 0.000000
0.002581 0.005629 0.000000
0.002587 0.005427 0.000000
0.002586 0.004473 0.000000
3 0 1 2
3 0 2 3
3 2 1 4
3 2 4 5
3 6 7 8
3 6 8 9
3 10 11 12
3 10 12 13
3 14 15 16
3 14 16 17
3 18 19 20
3 18 20 21
3 22 23 24
3 22 24 25
3 26 27 28
3 28 29 30
3 30 31 32
3 32 33 34
3 32 34 18
3 28 30 32
3 35 36 26
3 26 28 32
3 26 32 18
3 37 35 26
3 38 39 37
3 40 41 38
3 42 43 40
3 13 44 42
3 45 10 13
3 8 7 45
3 46 47 8
3 48 49 46
3 17 50 48
3 51 14 17
3 52 53 51
3 54 55 52
3 56 57 54
3 58 59 56
3 60 61 58
3 62 63 60
3 64 65 62
3 66 67 64
3 68 69 66
3 70 71 68
3 72 73 70
3 74 75 72
3 76 77 74
3 22 25 76
3 5 78 22
3 3 2 5
3 79 80 3
3 81 82 79
3 26 18 21
3 21 81 79
3 79 3 5
3 5 22 76
3 76 74 72
3 72 70 68
3 68 66 64
3 64 62 60
3 60 58 56
3 56 54 52
3 52 51 17
3 17 48 46
3 46 8 45
3 45 13 42
3 42 40 38
3 38 37 26
3 26 21 79
3 79 5 76
3 76 72 68
3 68 64 60
3 60 56 52
3 52 17 46
3 46 45 42
3 42 38 26
3 26 79 76
3 76 68 60
3 60 52 46
3 46 42 26
3 26 76 60
3 26 60 46
3 17 16 83
3 17 83 50
3 84 19 18
3 84 18 34
3 85 86 64
3 85 64 67
3 87 85 67
3 87 67 66
3 88 87 66
3 88 66 69
3 89 88 69
3 89 69 68
3 90 89 68
3 90 68 71
3 91 90 71
3 91 71 70
3 92 91 70
3 92 70 73
3 93 92 73
3 93 73 72
3 74 94 95
3 95 93 72
3 75 74 95
3 72 75 95
3 77 96 94
3 77 94 74
3 33 97 84
3 33 84 34
3 49 98 99
3 49 99 46
3 0 3 80
3 0 80 100
3 101 102 103
3 103 104 105
3 105 106 107
3 107 108 109
3 109 110 111
3 111 12 11
3 11 112 6
3 6 9 113
3 113 99 98
3 98 114 83
3 83 16 15
3 15 115 116
3 116 117 118
3 118 119 120
3 120 121 122
3 122 123 124
3 124 125 126
3 126 127 128
3 128 86 85
3 85 87 88
3 88 89 90
3 90 91 92
3 92 93 95
3 95 94 96
3 96 129 24
3 24 23 130
3 130 4 1
3 1 0 100
3 100 131 132
3 132 133 20
3 19 84 97
3 100 132 20
3 19 97 134
3 1 100 20
3 19 134 135
3 130 1 20
3 20 19 135
3 135 136 137
3 137 138 139
3 101 103 105
3 137 139 101
3 20 135 137
3 24 130 20
3 95 96 24
3 90 92 95
3 85 88 90
3 126 128 85
3 122 124 126
3 118 120 122
3 15 116 118
3 98 83 15
3 6 113 98
3 111 11 6
3 107 109 111
3 101 105 107
3 20 137 101
3 95 24 20
3 85 90 95
3 122 126 85
3 15 118 122
3 6 98 15
3 107 111 6
3 20 101 107
3 85 95 20
3 15 122 85
3 107 6 15
3 85 20 107
3 107 15 85
3 47 113 9
3 47 9 8
3 44 111 110
3 44 110 42
3 25 24 129
3 25 129 76
3 13 12 111
3 13 111 44
3 121 120 57
3 121 57 56
3 58 123 122
3 122 121 56
3 59 58 122
3 56 59 122
3 53 116 115
3 53 115 51
3 102 101 26
3 102 26 36
3 103 102 36
3 103 36 35
3 104 103 35
3 104 35 37
3 105 104 37
3 105 37 39
3 106 105 39
3 106 39 38
3 107 106 38
3 107 38 41
3 43 109 108
3 108 107 41
3 40 43 108
3 41 40 108
3 138 137 29
3 138 29 28
3 26 101 139
3 139 138 28
3 27 26 139
3 28 27 139
3 46 99 113
3 46 113 47
3 78 130 23
3 78 23 22
3 124 123 58
3 124 58 61
3 125 124 61
3 125 61 60
3 126 125 60
3 126 60 63
3 127 126 63
3 127 63 62
3 64 86 128
3 128 127 62
3 65 64 128
3 62 65 128
3 50 83 114
3 50 114 48
3 112 11 10
3 112 10 45
3 129 96 77
3 129 77 76
3 5 4 130
3 5 130 78
3 48 114 98
3 48 98 49
3 42 110 109
3 42 109 43
3 7 6 112
3 7 112 45
3 51 115 15
3 51 15 14
3 116 53 52
3 55 54 119
3 116 52 55
3 119 118 116
3 116 55 119
3 57 120 119
3 57 119 54
3 131 100 80
3 131 80 79
3 132 131 79
3 132 79 82
3 21 20 133
3 133 132 82
3 81 21 133
3 82 81 133
3 136 135 134
3 134 97 33
3 134 33 32
3 137 136 134
3 30 29 137
3 134 32 31
3 31 30 137
3 134 31 137
