ply
format ascii 1.0
comment Created by Blender 3.6.8 - www.blender.org
element vertex 222
property float x
property float y
property float z
element face 426
property list uchar uint vertex_indices
end_header
0.006726 0.005807 0.000000
0.006358 0.006188 0.000000
0.006358 0.006188 0.150000
0.006726 0.005807 0.150000
0.006197 0.006320 0.150000
0.006197 0.006320 0.000000
0.006105 0.006380 0.000000
0.006105 0.006380 0.150000
0.003523 0.006577 0.150000
0.003523 0.006577 0.000000
0.003462 0.006550 0.000000
0.003462 0.006550 0.150000
0.004287 0.006685 0.150000
0.004287 0.006685 0.000000
0.004094 0.006668 0.000000
0.004094 0.006668 0.150000
0.000025 0.001118 0.000000
0.000025 0.001118 0.150000
0.000071 0.001208 0.150000
0.000071 0.001208 0.000000
0.006533 0.002200 0.000000
0.006738 0.002574 0.000000
0.006738 0.002574 0.150000
0.006533 0.002200 0.150000
0.006268 0.001816 0.150000
0.006268 0.001816 0.000000
0.007135 0.003736 0.150000
0.007135 0.003736 0.000000
0.007171 0.003997 0.000000
0.007171 0.003997 0.150000
0.000100 0.001253 0.000000
0.000100 0.001253 0.150000
0.000250 0.001467 0.150000
0.000250 0.001467 0.000000
0.000224 0.001427 0.000000
0.000224 0.001427 0.150000
0.000001 0.000985 0.150000
0.000001 0.000985 0.000000
0.000012 0.000939 0.000000
0.000012 0.000939 0.150000
0.007068 0.003482 0.150000
0.007068 0.003482 0.000000
0.007167 0.004286 0.000000
0.007167 0.004286 0.150000
0.000035 0.000888 0.000000
0.000035 0.000888 0.150000
0.003329 0.006453 0.150000
0.003329 0.006453 0.000000
0.003252 0.006377 0.000000
0.003252 0.006377 0.150000
0.000009 0.001073 0.000000
0.000009 0.001073 0.150000
0.004695 0.000223 0.150000
0.004695 0.000223 0.000000
0.004806 0.000273 0.000000
0.004806 0.000273 0.150000
0.005618 0.006547 0.150000
0.004495 0.006678 0.150000
0.004389 0.006684 0.150000
0.003915 0.006629 0.150000
0.005762 0.006517 0.150000
0.006004 0.006433 0.150000
0.005890 0.006479 0.150000
0.006847 0.005626 0.150000
0.006790 0.005720 0.150000
0.007013 0.005180 0.150000
0.006940 0.005418 0.150000
0.005141 0.000513 0.150000
0.004917 0.000336 0.150000
0.005028 0.000415 0.150000
0.004343 0.000125 0.150000
0.004465 0.000152 0.150000
0.003588 0.000001 0.150000
0.003787 0.000021 0.150000
0.003939 0.000052 0.150000
0.003837 0.006618 0.150000
0.003641 0.006603 0.150000
0.003582 0.006593 0.150000
0.003398 0.006510 0.150000
0.003167 0.006279 0.150000
0.003082 0.006175 0.150000
0.003008 0.006083 0.150000
0.002718 0.005718 0.150000
0.003315 0.000007 0.150000
0.002619 0.000080 0.150000
0.002986 0.000035 0.150000
0.001839 0.000202 0.150000
0.002231 0.000137 0.150000
0.001111 0.000336 0.150000
0.001459 0.000270 0.150000
0.000573 0.000444 0.150000
0.000809 0.000396 0.150000
0.000337 0.000513 0.150000
0.000363 0.000488 0.150000
0.000233 0.000623 0.150000
0.000273 0.000579 0.150000
0.000145 0.000725 0.150000
0.000189 0.000672 0.150000
0.000066 0.000835 0.150000
0.000104 0.000780 0.150000
0.000001 0.001029 0.150000
0.002662 0.005649 0.150000
0.002603 0.005577 0.150000
0.002538 0.005498 0.150000
0.000272 0.001507 0.150000
0.000306 0.001590 0.150000
0.002464 0.005411 0.150000
0.002295 0.005211 0.150000
0.002213 0.005113 0.150000
0.002134 0.005016 0.150000
0.002059 0.004923 0.150000
0.001986 0.004831 0.150000
0.001641 0.004394 0.150000
0.000334 0.001686 0.150000
0.000345 0.001740 0.150000
0.001572 0.004308 0.150000
0.000357 0.001799 0.150000
0.000461 0.002473 0.150000
0.000442 0.002379 0.150000
0.000367 0.001864 0.150000
0.001502 0.004223 0.150000
0.001433 0.004141 0.150000
0.000506 0.002649 0.150000
0.000482 0.002562 0.150000
0.000594 0.002899 0.150000
0.000532 0.002733 0.150000
0.000667 0.003067 0.150000
0.000629 0.002982 0.150000
0.000752 0.003245 0.150000
0.000708 0.003154 0.150000
0.000849 0.003432 0.150000
0.000799 0.003339 0.150000
0.001005 0.003665 0.150000
0.000951 0.003593 0.150000
0.001118 0.003798 0.150000
0.001061 0.003733 0.150000
0.001300 0.003995 0.150000
0.001177 0.003863 0.150000
0.001365 0.004065 0.150000
0.003787 0.000021 0.000000
0.003939 0.000052 0.000000
0.004343 0.000125 0.000000
0.004465 0.000152 0.000000
0.006004 0.006433 0.000000
0.005890 0.006479 0.000000
0.003315 0.000007 0.000000
0.003588 0.000001 0.000000
0.002619 0.000080 0.000000
0.002986 0.000035 0.000000
0.002231 0.000137 0.000000
0.001459 0.000270 0.000000
0.001839 0.000202 0.000000
0.000809 0.000396 0.000000
0.001111 0.000336 0.000000
0.000363 0.000488 0.000000
0.000573 0.000444 0.000000
0.006940 0.005418 0.000000
0.006847 0.005626 0.000000
0.003398 0.006510 0.000000
0.005028 0.000415 0.000000
0.005141 0.000513 0.000000
0.000001 0.001029 0.000000
0.002464 0.005411 0.000000
0.002295 0.005211 0.000000
0.002213 0.005113 0.000000
0.002134 0.005016 0.000000
0.002059 0.004923 0.000000
0.001986 0.004831 0.000000
0.001641 0.004394 0.000000
0.001572 0.004308 0.000000
0.002538 0.005498 0.000000
0.002603 0.005577 0.000000
0.002662 0.005649 0.000000
0.003082 0.006175 0.000000
0.003008 0.006083 0.000000
0.002718 0.005718 0.000000
0.003167 0.006279 0.000000
0.001502 0.004223 0.000000
0.001433 0.004141 0.000000
0.001365 0.004065 0.000000
0.001300 0.003995 0.000000
0.001177 0.003863 0.000000
0.001118 0.003798 0.000000
0.001061 0.003733 0.000000
0.001005 0.003665 0.000000
0.000951 0.003593 0.000000
0.000334 0.001686 0.000000
0.000306 0.001590 0.000000
0.007013 0.005180 0.000000
0.004389 0.006684 0.000000
0.005618 0.006547 0.000000
0.004495 0.006678 0.000000
0.004917 0.000336 0.000000
0.000345 0.001740 0.000000
0.000357 0.001799 0.000000
0.000461 0.002473 0.000000
0.000442 0.002379 0.000000
0.000367 0.001864 0.000000
0.000482 0.002562 0.000000
0.005762 0.006517 0.000000
0.000849 0.003432 0.000000
0.006790 0.005720 0.000000
0.000799 0.003339 0.000000
0.000752 0.003245 0.000000
0.000708 0.003154 0.000000
0.000667 0.003067 0.000000
0.000629 0.002982 0.000000
0.000594 0.002899 0.000000
0.000337 0.000513 0.000000
0.000273 0.000579 0.000000
0.000233 0.000623 0.000000
0.000189 0.000672 0.000000
0.000145 0.000725 0.000000
0.000104 0.000780 0.000000
0.000066 0.000835 0.000000
0.003915 0.006629 0.000000
0.003582 0.006593 0.000000
0.003641 0.006603 0.000000
0.003837 0.006618 0.000000
0.000272 0.001507 0.000000
0.000506 0.002649 0.000000
0.000532 0.002733 0.000000
3 0 1 2
3 0 2 3
3 4 5 6
3 4 6 7
3 8 9 10
3 8 10 11
3 12 13 14
3 12 14 15
3 16 17 18
3 16 18 19
3 20 21 22
3 20 22 23
3 24 25 20
3 24 20 23
3 26 27 28
3 26 28 29
3 30 19 18
3 30 18 31
3 32 33 34
3 34 30 31
3 35 32 34
3 31 35 34
3 36 37 38
3 36 38 39
3 40 41 27
3 40 27 26
3 29 28 42
3 29 42 43
3 39 38 44
3 39 44 45
3 46 47 48
3 46 48 49
3 17 16 50
3 17 50 51
3 52 53 54
3 52 54 55
3 56 57 58
3 58 12 15
3 58 15 59
3 60 56 58
3 61 62 60
3 4 7 61
3 3 2 4
3 63 64 3
3 65 66 63
3 29 43 65
3 40 26 29
3 23 22 40
3 67 24 23
3 68 69 67
3 52 55 68
3 70 71 52
3 72 73 74
3 74 70 52
3 52 68 67
3 67 23 40
3 40 29 65
3 65 63 3
3 3 4 61
3 61 60 58
3 58 59 75
3 75 76 77
3 77 8 11
3 11 78 46
3 46 49 79
3 79 80 81
3 79 81 82
3 11 46 79
3 75 77 11
3 61 58 75
3 65 3 61
3 67 40 65
3 74 52 67
3 83 72 74
3 84 85 83
3 86 87 84
3 88 89 86
3 90 91 88
3 92 93 90
3 94 95 92
3 96 97 94
3 98 99 96
3 39 45 98
3 100 36 39
3 17 51 100
3 31 18 17
3 35 31 17
3 17 100 39
3 39 98 96
3 96 94 92
3 92 90 88
3 88 86 84
3 84 83 74
3 74 67 65
3 65 61 75
3 75 11 79
3 75 79 82
3 74 65 75
3 88 84 74
3 96 92 88
3 17 39 96
3 35 17 96
3 96 88 74
3 74 75 82
3 74 82 101
3 35 96 74
3 32 35 74
3 74 101 102
3 74 102 103
3 104 32 74
3 105 104 74
3 74 103 106
3 106 107 108
3 108 109 110
3 110 111 112
3 108 110 112
3 74 106 108
3 113 105 74
3 114 113 74
3 74 108 112
3 74 112 115
3 116 114 74
3 117 118 119
3 119 116 74
3 74 115 120
3 74 120 121
3 117 119 74
3 122 123 117
3 124 125 122
3 126 127 124
3 128 129 126
3 130 131 128
3 132 133 130
3 134 135 132
3 136 137 134
3 74 121 138
3 136 134 132
3 74 138 136
3 122 117 74
3 126 124 122
3 130 128 126
3 136 132 130
3 122 74 136
3 130 126 122
3 136 130 122
3 139 140 141
3 141 142 71
3 141 71 70
3 73 139 141
3 141 70 74
3 141 74 73
3 142 53 52
3 142 52 71
3 61 143 144
3 61 144 62
3 83 145 146
3 83 146 72
3 147 148 145
3 145 83 85
3 145 85 84
3 149 147 145
3 150 151 149
3 152 153 150
3 154 155 152
3 90 93 154
3 91 90 154
3 154 152 150
3 150 149 145
3 145 84 87
3 145 87 86
3 154 150 145
3 88 91 154
3 145 86 89
3 89 88 154
3 145 89 154
3 66 156 157
3 66 157 63
3 11 10 158
3 11 158 78
3 69 159 160
3 69 160 67
3 100 161 37
3 100 37 36
3 162 163 164
3 164 165 166
3 166 167 168
3 164 166 168
3 162 164 168
3 162 168 169
3 170 162 169
3 171 170 169
3 172 171 169
3 173 174 175
3 48 176 173
3 79 49 48
3 80 79 48
3 48 173 175
3 48 175 172
3 81 80 48
3 82 81 48
3 82 48 172
3 101 82 172
3 101 172 169
3 102 101 169
3 102 169 177
3 103 102 177
3 103 177 178
3 106 103 178
3 106 178 179
3 107 106 179
3 180 181 182
3 107 179 180
3 108 107 180
3 180 182 183
3 183 184 185
3 185 133 132
3 185 132 135
3 180 183 185
3 109 108 180
3 110 109 180
3 180 185 135
3 180 135 134
3 111 110 180
3 112 111 180
3 180 134 137
3 180 137 136
3 115 112 180
3 120 115 180
3 180 136 138
3 121 120 180
3 180 138 121
3 113 186 187
3 113 187 105
3 65 188 156
3 65 156 66
3 189 13 12
3 189 12 58
3 56 190 191
3 191 189 58
3 57 56 191
3 58 57 191
3 55 54 192
3 55 192 68
3 7 6 143
3 7 143 61
3 193 186 113
3 193 113 114
3 194 193 114
3 194 114 116
3 195 196 197
3 197 194 116
3 197 116 119
3 198 195 197
3 117 123 198
3 197 119 118
3 118 117 198
3 118 198 197
3 60 199 190
3 60 190 56
3 185 200 130
3 185 130 133
3 42 188 65
3 42 65 43
3 78 158 47
3 78 47 46
3 64 201 0
3 64 0 3
3 2 1 5
3 2 5 4
3 202 203 204
3 204 205 206
3 206 207 124
3 206 124 127
3 202 204 206
3 130 200 202
3 131 130 202
3 202 206 127
3 202 127 126
3 128 131 202
3 202 126 129
3 129 128 202
3 160 25 24
3 160 24 67
3 21 41 40
3 21 40 22
3 68 192 159
3 68 159 69
3 156 188 42
3 42 28 27
3 27 41 21
3 21 20 25
3 25 160 159
3 159 192 54
3 54 53 142
3 142 141 140
3 140 139 146
3 146 145 148
3 148 147 149
3 154 208 209
3 209 210 211
3 211 212 213
3 213 214 44
3 44 38 37
3 37 161 50
3 50 16 19
3 19 30 34
3 50 19 34
3 44 37 50
3 211 213 44
3 154 209 211
3 148 149 150
3 140 146 148
3 54 142 140
3 25 159 54
3 27 21 25
3 156 42 27
3 201 157 156
3 1 0 201
3 6 5 1
3 144 143 6
3 190 199 144
3 189 191 190
3 14 13 189
3 215 14 189
3 189 190 144
3 144 6 1
3 1 201 156
3 156 27 25
3 25 54 140
3 140 148 150
3 150 154 211
3 211 44 50
3 50 34 33
3 211 50 33
3 140 150 211
3 156 25 140
3 144 1 156
3 215 189 144
3 216 217 218
3 218 215 144
3 144 156 140
3 140 211 33
3 140 33 219
3 218 144 140
3 9 216 218
3 158 10 9
3 48 47 158
3 48 158 9
3 9 218 140
3 140 219 187
3 140 187 186
3 48 9 140
3 172 48 140
3 140 186 193
3 140 193 194
3 171 172 140
3 170 171 140
3 140 194 197
3 195 198 220
3 220 221 207
3 207 206 205
3 205 204 203
3 203 202 200
3 200 185 184
3 184 183 182
3 184 182 180
3 203 200 184
3 207 205 203
3 195 220 207
3 140 197 195
3 162 170 140
3 164 162 140
3 140 195 207
3 207 203 184
3 184 180 179
3 207 184 179
3 164 140 207
3 168 164 207
3 207 179 178
3 207 178 177
3 169 168 207
3 207 177 169
3 63 157 201
3 63 201 64
3 62 144 199
3 62 199 60
3 220 198 123
3 220 123 122
3 124 207 221
3 221 220 122
3 125 124 221
3 221 122 125
3 72 146 139
3 72 139 73
3 104 219 33
3 104 33 32
3 217 216 77
3 217 77 76
3 59 215 218
3 218 217 76
3 75 59 218
3 76 75 218
3 15 14 215
3 15 215 59
3 187 219 104
3 187 104 105
3 45 44 214
3 45 214 98
3 51 50 161
3 51 161 100
3 208 154 93
3 208 93 92
3 209 208 92
3 209 92 95
3 97 211 210
3 210 209 95
3 94 97 210
3 95 94 210
3 77 216 9
3 77 9 8
3 212 211 97
3 212 97 96
3 98 214 213
3 213 212 96
3 99 98 213
3 213 96 99
