ply
format ascii 1.0
comment Created by Blender 3.6.8 - www.blender.org
element vertex 176
property float x
property float y
property float z
element face 345
property list uchar uint vertex_indices
end_header
0.005691 0.006520 0.000000
0.005691 0.006520 0.150000
0.005789 0.006363 0.150000
0.005789 0.006363 0.000000
0.004548 0.000131 0.150000
0.004548 0.000131 0.000000
0.004666 0.000200 0.000000
0.004666 0.000200 0.150000
0.003223 0.000193 0.150000
0.003223 0.000193 0.000000
0.003302 0.000137 0.000000
0.003302 0.000137 0.150000
0.000316 0.006823 0.150000
0.000316 0.006823 0.000000
0.000235 0.006700 0.000000
0.000235 0.006700 0.150000
0.000082 0.004940 0.150000
0.000082 0.004940 0.000000
0.000126 0.004862 0.000000
0.000126 0.004862 0.150000
0.000628 0.007158 0.000000
0.000410 0.006941 0.000000
0.000410 0.006941 0.150000
0.000628 0.007158 0.150000
0.000049 0.005035 0.150000
0.000049 0.005035 0.000000
0.001654 0.007724 0.150000
0.001654 0.007724 0.000000
0.001452 0.007694 0.000000
0.001452 0.007694 0.150000
0.003064 0.000499 0.150000
0.003064 0.000499 0.000000
0.003086 0.000413 0.000000
0.003086 0.000413 0.150000
0.005575 0.006677 0.000000
0.005448 0.006829 0.000000
0.005448 0.006829 0.150000
0.005575 0.006677 0.150000
0.005635 0.006599 0.000000
0.005635 0.006599 0.150000
0.005279 0.000735 0.150000
0.005279 0.000735 0.000000
0.005346 0.000799 0.000000
0.005346 0.000799 0.150000
0.003898 0.000001 0.150000
0.003898 0.000001 0.000000
0.004164 0.000015 0.000000
0.004164 0.000015 0.150000
0.000171 0.006571 0.000000
0.000171 0.006571 0.150000
0.004985 0.007281 0.150000
0.004908 0.007323 0.150000
0.004710 0.007408 0.150000
0.004062 0.007618 0.150000
0.005041 0.007241 0.150000
0.005873 0.006205 0.150000
0.005833 0.006285 0.150000
0.005949 0.006037 0.150000
0.005912 0.006123 0.150000
0.006022 0.005852 0.150000
0.005985 0.005947 0.150000
0.006233 0.005262 0.150000
0.006059 0.005750 0.150000
0.006333 0.004923 0.150000
0.006277 0.005131 0.150000
0.006352 0.004676 0.150000
0.006346 0.004836 0.150000
0.006338 0.004507 0.150000
0.006347 0.004595 0.150000
0.006313 0.004292 0.150000
0.003885 0.007637 0.150000
0.003687 0.007655 0.150000
0.003436 0.007677 0.150000
0.003147 0.007699 0.150000
0.002834 0.007719 0.150000
0.002514 0.007734 0.150000
0.002200 0.007742 0.150000
0.001316 0.007646 0.150000
0.001214 0.007584 0.150000
0.001103 0.007513 0.150000
0.000986 0.007435 0.150000
0.000866 0.007350 0.150000
0.000125 0.006437 0.150000
0.000093 0.006297 0.150000
0.000064 0.006151 0.150000
0.000040 0.006000 0.150000
0.000008 0.005696 0.150000
0.000001 0.005547 0.150000
0.000001 0.005405 0.150000
0.000024 0.005146 0.150000
0.002762 0.001480 0.150000
0.006275 0.003831 0.150000
0.006289 0.003998 0.150000
0.006300 0.004157 0.150000
0.006255 0.003672 0.150000
0.005609 0.001274 0.150000
0.006229 0.003518 0.150000
0.005412 0.000877 0.150000
0.005478 0.000978 0.150000
0.004777 0.000285 0.150000
0.005055 0.000561 0.150000
0.002946 0.001159 0.150000
0.002989 0.001052 0.150000
0.003009 0.000963 0.150000
0.004296 0.000040 0.150000
0.004424 0.000078 0.150000
0.003402 0.000092 0.150000
0.003640 0.000029 0.150000
0.003118 0.000333 0.150000
0.003163 0.000259 0.150000
0.003040 0.000683 0.150000
0.003050 0.000590 0.150000
0.003022 0.000870 0.150000
0.002200 0.007742 0.000000
0.000064 0.006151 0.000000
0.000040 0.006000 0.000000
0.000125 0.006437 0.000000
0.000093 0.006297 0.000000
0.002946 0.001159 0.000000
0.002989 0.001052 0.000000
0.005412 0.000877 0.000000
0.005478 0.000978 0.000000
0.004424 0.000078 0.000000
0.000866 0.007350 0.000000
0.003163 0.000259 0.000000
0.005041 0.007241 0.000000
0.005833 0.006285 0.000000
0.005873 0.006205 0.000000
0.005949 0.006037 0.000000
0.005912 0.006123 0.000000
0.004985 0.007281 0.000000
0.003118 0.000333 0.000000
0.006346 0.004836 0.000000
0.006352 0.004676 0.000000
0.004296 0.000040 0.000000
0.006333 0.004923 0.000000
0.006313 0.004292 0.000000
0.006338 0.004507 0.000000
0.006347 0.004595 0.000000
0.006275 0.003831 0.000000
0.006289 0.003998 0.000000
0.006300 0.004157 0.000000
0.006255 0.003672 0.000000
0.006229 0.003518 0.000000
0.003402 0.000092 0.000000
0.003640 0.000029 0.000000
0.003009 0.000963 0.000000
0.000001 0.005547 0.000000
0.000001 0.005405 0.000000
0.000008 0.005696 0.000000
0.006277 0.005131 0.000000
0.005985 0.005947 0.000000
0.006022 0.005852 0.000000
0.006059 0.005750 0.000000
0.006233 0.005262 0.000000
0.003436 0.007677 0.000000
0.003147 0.007699 0.000000
0.002834 0.007719 0.000000
0.002514 0.007734 0.000000
0.003885 0.007637 0.000000
0.003687 0.007655 0.000000
0.004062 0.007618 0.000000
0.002762 0.001480 0.000000
0.000024 0.005146 0.000000
0.005609 0.001274 0.000000
0.004908 0.007323 0.000000
0.001316 0.007646 0.000000
0.004710 0.007408 0.000000
0.005055 0.000561 0.000000
0.004777 0.000285 0.000000
0.000986 0.007435 0.000000
0.001103 0.007513 0.000000
0.001214 0.007584 0.000000
0.003050 0.000590 0.000000
0.003040 0.000683 0.000000
0.003022 0.000870 0.000000
3 0 1 2
3 0 2 3
3 4 5 6
3 4 6 7
3 8 9 10
3 8 10 11
3 12 13 14
3 12 14 15
3 16 17 18
3 16 18 19
3 20 21 22
3 20 22 23
3 24 25 17
3 24 17 16
3 26 27 28
3 26 28 29
3 30 31 32
3 30 32 33
3 34 35 36
3 34 36 37
3 1 0 38
3 38 34 37
3 39 1 38
3 38 37 39
3 40 41 42
3 40 42 43
3 44 45 46
3 44 46 47
3 15 14 48
3 15 48 49
3 50 51 52
3 50 52 53
3 36 54 50
3 39 37 36
3 2 1 39
3 55 56 2
3 57 58 55
3 59 60 57
3 61 62 59
3 63 64 61
3 65 66 63
3 67 68 65
3 69 67 65
3 65 63 61
3 61 59 57
3 57 55 2
3 2 39 36
3 36 50 53
3 53 70 71
3 71 72 73
3 73 74 75
3 75 76 26
3 26 29 77
3 77 78 79
3 79 80 81
3 81 23 22
3 22 12 15
3 15 49 82
3 82 83 84
3 84 85 86
3 86 87 88
3 88 89 24
3 24 16 19
3 24 19 90
3 86 88 24
3 82 84 86
3 22 15 82
3 79 81 22
3 26 77 79
3 73 75 26
3 53 71 73
3 2 36 53
3 61 57 2
3 69 65 61
3 91 92 93
3 93 69 61
3 61 2 53
3 53 73 26
3 26 79 22
3 22 82 86
3 86 24 90
3 22 86 90
3 53 26 22
3 93 61 53
3 94 91 93
3 95 96 94
3 97 98 95
3 40 43 97
3 7 99 100
3 100 40 97
3 97 95 94
3 94 93 53
3 53 22 90
3 53 90 101
3 97 94 53
3 4 7 100
3 100 97 53
3 53 101 102
3 53 102 103
3 4 100 53
3 104 105 4
3 44 47 104
3 106 107 44
3 8 11 106
3 108 109 8
3 30 33 108
3 110 111 30
3 53 103 112
3 112 110 30
3 30 108 8
3 8 106 44
3 44 104 4
3 4 53 112
3 112 30 8
3 8 44 4
3 112 8 4
3 113 27 26
3 113 26 76
3 114 115 85
3 114 85 84
3 82 116 117
3 117 114 84
3 83 82 117
3 84 83 117
3 101 118 119
3 101 119 102
3 97 120 121
3 97 121 98
3 105 122 5
3 105 5 4
3 123 20 23
3 123 23 81
3 109 124 9
3 109 9 8
3 125 54 36
3 125 36 35
3 126 3 2
3 126 2 56
3 127 126 56
3 127 56 55
3 57 128 129
3 129 127 55
3 58 57 129
3 55 58 129
3 54 125 130
3 54 130 50
3 33 32 131
3 33 131 108
3 132 66 65
3 132 65 133
3 47 46 134
3 47 134 104
3 66 132 135
3 66 135 63
3 136 137 138
3 138 133 65
3 138 65 68
3 136 138 68
3 136 68 67
3 139 140 141
3 141 136 67
3 141 67 69
3 142 139 141
3 96 143 142
3 94 96 142
3 142 141 69
3 142 69 93
3 91 94 142
3 142 93 92
3 92 91 142
3 11 10 144
3 11 144 106
3 144 145 107
3 144 107 106
3 107 145 45
3 107 45 44
3 102 119 146
3 102 146 103
3 147 148 88
3 147 88 87
3 85 115 149
3 149 147 87
3 86 85 149
3 87 86 149
3 108 131 124
3 108 124 109
3 22 21 13
3 22 13 12
3 43 42 120
3 43 120 97
3 63 135 150
3 63 150 64
3 151 128 57
3 151 57 60
3 152 151 60
3 152 60 59
3 153 152 59
3 153 59 62
3 64 150 154
3 154 153 62
3 61 64 154
3 62 61 154
3 155 156 157
3 157 158 113
3 113 76 75
3 113 75 74
3 155 157 113
3 159 160 155
3 53 161 159
3 70 53 159
3 159 155 113
3 113 74 73
3 113 73 72
3 70 159 113
3 113 72 71
3 113 71 70
3 19 18 162
3 19 162 90
3 104 134 122
3 104 122 105
3 89 163 25
3 89 25 24
3 98 121 164
3 98 164 95
3 49 48 116
3 49 116 82
3 50 130 165
3 50 165 51
3 90 162 118
3 90 118 101
3 29 28 166
3 29 166 77
3 167 161 53
3 167 53 52
3 168 41 40
3 168 40 100
3 163 89 88
3 163 88 148
3 7 6 169
3 7 169 99
3 167 52 51
3 167 51 165
3 170 123 81
3 170 81 80
3 171 170 80
3 171 80 79
3 77 166 172
3 172 171 79
3 78 77 172
3 79 78 172
3 169 168 100
3 169 100 99
3 171 172 166
3 166 28 27
3 27 113 158
3 158 157 156
3 156 155 160
3 160 159 161
3 161 167 165
3 158 156 160
3 166 27 158
3 170 171 166
3 20 123 170
3 13 21 20
3 48 14 13
3 117 116 48
3 115 114 117
3 147 149 115
3 163 148 147
3 17 25 163
3 162 18 17
3 162 17 163
3 163 147 115
3 115 117 48
3 48 13 20
3 20 170 166
3 166 158 160
3 160 161 165
3 165 130 125
3 125 35 34
3 34 38 0
3 0 3 126
3 126 127 129
3 129 128 151
3 151 152 153
3 153 154 150
3 150 135 132
3 132 133 138
3 132 138 136
3 132 136 141
3 153 150 132
3 129 151 153
3 0 126 129
3 125 34 0
3 160 165 125
3 20 166 160
3 115 48 20
3 162 163 115
3 162 115 20
3 20 160 125
3 125 0 129
3 129 153 132
3 132 141 142
3 142 143 164
3 164 121 120
3 120 42 41
3 168 169 6
3 120 41 168
3 142 164 120
3 129 132 142
3 20 125 129
3 118 162 20
3 119 118 20
3 20 129 142
3 142 120 168
3 168 6 5
3 5 122 134
3 134 46 45
3 45 145 144
3 144 10 9
3 9 124 131
3 131 32 31
3 31 173 174
3 31 174 175
3 9 131 31
3 45 144 9
3 5 134 45
3 142 168 5
3 119 20 142
3 146 119 142
3 142 5 45
3 45 9 31
3 175 146 142
3 45 31 175
3 142 45 175
3 164 143 96
3 164 96 95
3 146 175 174
3 173 31 30
3 146 174 173
3 112 103 146
3 110 112 146
3 146 173 30
3 111 110 146
3 30 111 146
