ply
format ascii 1.0
comment Created by Blender 3.6.8 - www.blender.org
element vertex 144
property float x
property float y
property float z
element face 281
property list uchar uint vertex_indices
end_header
0.011757 0.000118 0.150000
0.011757 0.000118 0.000000
0.011839 0.000158 0.000000
0.011839 0.000158 0.150000
0.011786 0.004083 0.000000
0.011912 0.003758 0.000000
0.012037 0.003403 0.000000
0.012132 0.003057 0.000000
0.012244 0.002395 0.000000
0.012269 0.001789 0.000000
0.012228 0.001252 0.000000
0.012142 0.000799 0.000000
0.012034 0.000447 0.000000
0.011976 0.000317 0.000000
0.011912 0.000223 0.000000
0.011664 0.000098 0.000000
0.010959 0.000103 0.000000
0.010103 0.000005 0.000000
0.009746 0.000008 0.000000
0.009427 0.000059 0.000000
0.009113 0.000152 0.000000
0.008949 0.000212 0.000000
0.008158 0.000517 0.000000
0.007955 0.000604 0.000000
0.007761 0.000694 0.000000
0.007575 0.000787 0.000000
0.007217 0.000982 0.000000
0.005896 0.001770 0.000000
0.005448 0.002074 0.000000
0.005216 0.002246 0.000000
0.004979 0.002432 0.000000
0.004502 0.002836 0.000000
0.004032 0.003278 0.000000
0.003804 0.003510 0.000000
0.003583 0.003749 0.000000
0.003372 0.003993 0.000000
0.003131 0.004295 0.000000
0.000000 0.008808 0.000000
0.000211 0.009790 0.000000
0.000359 0.010262 0.000000
0.000412 0.010378 0.000000
0.000519 0.010554 0.000000
0.000630 0.010687 0.000000
0.000753 0.010794 0.000000
0.001382 0.011210 0.000000
0.001494 0.011267 0.000000
0.001722 0.011350 0.000000
0.001960 0.011400 0.000000
0.003053 0.011505 0.000000
0.003163 0.011499 0.000000
0.003260 0.011484 0.000000
0.003346 0.011462 0.000000
0.003425 0.011433 0.000000
0.003498 0.011398 0.000000
0.003880 0.011173 0.000000
0.007042 0.009983 0.000000
0.007819 0.009578 0.000000
0.008471 0.009161 0.000000
0.008987 0.008753 0.000000
0.009208 0.008541 0.000000
0.009605 0.008082 0.000000
0.009793 0.007827 0.000000
0.009981 0.007548 0.000000
0.010176 0.007241 0.000000
0.010382 0.006903 0.000000
0.010607 0.006529 0.000000
0.010819 0.006171 0.000000
0.010991 0.005877 0.000000
0.011128 0.005634 0.000000
0.011238 0.005430 0.000000
0.011327 0.005253 0.000000
0.011401 0.005091 0.000000
0.011467 0.004932 0.000000
0.011532 0.004763 0.000000
0.012269 0.001789 0.150000
0.012228 0.001252 0.150000
0.012132 0.003057 0.150000
0.012037 0.003403 0.150000
0.009605 0.008082 0.150000
0.009208 0.008541 0.150000
0.007819 0.009578 0.150000
0.008471 0.009161 0.150000
0.011912 0.000223 0.150000
0.011976 0.000317 0.150000
0.011238 0.005430 0.150000
0.011327 0.005253 0.150000
0.011401 0.005091 0.150000
0.011467 0.004932 0.150000
0.011532 0.004763 0.150000
0.011786 0.004083 0.150000
0.011912 0.003758 0.150000
0.003498 0.011398 0.150000
0.003425 0.011433 0.150000
0.000412 0.010378 0.150000
0.000359 0.010262 0.150000
0.003880 0.011173 0.150000
0.007042 0.009983 0.150000
0.001960 0.011400 0.150000
0.003053 0.011505 0.150000
0.009113 0.000152 0.150000
0.008949 0.000212 0.150000
0.008158 0.000517 0.150000
0.007955 0.000604 0.150000
0.007575 0.000787 0.150000
0.007761 0.000694 0.150000
0.000519 0.010554 0.150000
0.003346 0.011462 0.150000
0.003260 0.011484 0.150000
0.003163 0.011499 0.150000
0.001722 0.011350 0.150000
0.001494 0.011267 0.150000
0.001382 0.011210 0.150000
0.000753 0.010794 0.150000
0.000630 0.010687 0.150000
0.000211 0.009790 0.150000
0.000000 0.008808 0.150000
0.003131 0.004295 0.150000
0.003372 0.003993 0.150000
0.003583 0.003749 0.150000
0.003804 0.003510 0.150000
0.004032 0.003278 0.150000
0.004502 0.002836 0.150000
0.004979 0.002432 0.150000
0.005216 0.002246 0.150000
0.005448 0.002074 0.150000
0.005896 0.001770 0.150000
0.007217 0.000982 0.150000
0.009427 0.000059 0.150000
0.009746 0.000008 0.150000
0.010103 0.000005 0.150000
0.010959 0.000103 0.150000
0.011664 0.000098 0.150000
0.008987 0.008753 0.150000
0.009793 0.007827 0.150000
0.010176 0.007241 0.150000
0.009981 0.007548 0.150000
0.010607 0.006529 0.150000
0.010382 0.006903 0.150000
0.010991 0.005877 0.150000
0.010819 0.006171 0.150000
0.011128 0.005634 0.150000
0.012034 0.000447 0.150000
0.012142 0.000799 0.150000
0.012244 0.002395 0.150000
3 0 1 2
3 0 2 3
3 4 5 6
3 6 7 8
3 8 9 10
3 10 11 12
3 12 13 14
3 14 2 1
3 1 15 16
3 16 17 18
3 18 19 20
3 20 21 22
3 22 23 24
3 24 25 26
3 26 27 28
3 28 29 30
3 30 31 32
3 32 33 34
3 34 35 36
3 36 37 38
3 38 39 40
3 40 41 42
3 42 43 44
3 44 45 46
3 46 47 48
3 48 49 50
3 50 51 52
3 52 53 54
3 54 55 56
3 56 57 58
3 58 59 60
3 60 61 62
3 62 63 64
3 64 65 66
3 66 67 68
3 68 69 70
3 70 71 72
3 72 73 4
3 4 6 8
3 8 10 12
3 12 14 1
3 16 18 20
3 12 1 16
3 4 8 12
3 70 72 4
3 66 68 70
3 62 64 66
3 58 60 62
3 54 56 58
3 50 52 54
3 46 48 50
3 42 44 46
3 38 40 42
3 34 36 38
3 30 32 34
3 26 28 30
3 22 24 26
3 16 20 22
3 4 12 16
3 66 70 4
3 58 62 66
3 46 50 54
3 54 58 66
3 66 4 16
3 16 22 26
3 26 30 34
3 34 38 42
3 42 46 54
3 54 66 16
3 16 26 34
3 34 42 54
3 16 34 54
3 9 74 75
3 9 75 10
3 76 7 6
3 76 6 77
3 78 60 59
3 78 59 79
3 57 56 80
3 57 80 81
3 82 14 13
3 82 13 83
3 70 69 84
3 70 84 85
3 71 70 85
3 71 85 86
3 72 71 86
3 72 86 87
3 73 72 87
3 73 87 88
3 4 73 88
3 4 88 89
3 77 6 5
3 5 4 89
3 90 77 5
3 89 90 5
3 91 53 52
3 91 52 92
3 93 40 39
3 93 39 94
3 55 54 95
3 55 95 96
3 48 47 97
3 48 97 98
3 21 20 99
3 21 99 100
3 22 21 100
3 22 100 101
3 23 22 101
3 23 101 102
3 103 25 24
3 24 23 102
3 104 103 24
3 102 104 24
3 41 40 93
3 41 93 105
3 106 107 108
3 108 98 97
3 97 109 110
3 110 111 112
3 112 113 105
3 105 93 94
3 94 114 115
3 115 116 117
3 117 118 119
3 119 120 121
3 121 122 123
3 123 124 125
3 125 126 103
3 103 104 102
3 102 101 100
3 100 99 127
3 127 128 129
3 130 131 0
3 127 129 130
3 102 100 127
3 125 103 102
3 121 123 125
3 117 119 121
3 94 115 117
3 112 105 94
3 97 110 112
3 106 108 97
3 91 92 106
3 80 96 95
3 95 91 106
3 106 97 112
3 112 94 117
3 117 121 125
3 125 102 127
3 130 0 3
3 125 127 130
3 112 117 125
3 95 106 112
3 81 80 95
3 79 132 81
3 133 78 79
3 134 135 133
3 136 137 134
3 138 139 136
3 84 140 138
3 86 85 84
3 88 87 86
3 77 90 89
3 89 88 86
3 86 84 138
3 138 136 134
3 134 133 79
3 79 81 95
3 95 112 125
3 125 130 3
3 3 82 83
3 83 141 142
3 142 75 74
3 74 143 76
3 76 77 89
3 89 86 138
3 138 134 79
3 79 95 125
3 125 3 83
3 83 142 74
3 74 76 89
3 89 138 79
3 79 125 83
3 83 74 89
3 83 89 79
3 11 10 75
3 11 75 142
3 83 13 12
3 83 12 141
3 131 15 1
3 131 1 0
3 54 53 91
3 54 91 95
3 44 43 112
3 44 112 111
3 3 2 14
3 3 14 82
3 63 62 61
3 61 60 78
3 61 78 133
3 64 63 61
3 84 69 68
3 140 84 68
3 68 66 64
3 64 61 133
3 64 133 135
3 140 68 64
3 138 140 64
3 64 135 134
3 64 134 137
3 139 138 64
3 64 137 136
3 136 139 64
3 143 8 7
3 143 7 76
3 47 46 109
3 47 109 97
3 18 17 129
3 18 129 128
3 35 34 118
3 35 118 117
3 115 37 36
3 36 35 117
3 116 115 36
3 117 116 36
3 110 45 44
3 110 44 111
3 119 118 34
3 32 31 121
3 120 119 34
3 32 121 120
3 34 32 120
3 19 18 128
3 19 128 127
3 43 42 113
3 43 113 112
3 11 142 141
3 11 141 12
3 79 59 58
3 79 58 132
3 16 15 131
3 16 131 130
3 26 25 103
3 26 103 126
3 124 28 27
3 27 26 126
3 125 124 27
3 126 125 27
3 106 51 50
3 106 50 107
3 8 143 74
3 8 74 9
3 38 37 115
3 38 115 114
3 109 46 45
3 109 45 110
3 99 20 19
3 99 19 127
3 56 55 96
3 56 96 80
3 42 41 105
3 42 105 113
3 108 49 48
3 108 48 98
3 58 57 81
3 58 81 132
3 29 28 124
3 29 124 123
3 121 31 30
3 30 29 123
3 122 121 30
3 123 122 30
3 39 38 114
3 39 114 94
3 17 16 130
3 17 130 129
3 107 50 49
3 107 49 108
3 92 52 51
3 92 51 106
