ply
format ascii 1.0
comment Created by Blender 3.6.8 - www.blender.org
element vertex 196
property float x
property float y
property float z
element face 386
property list uchar uint vertex_indices
end_header
0.006745 0.000003 0.000000
0.006935 0.000012 0.000000
0.006935 0.000012 0.150000
0.006745 0.000003 0.150000
0.006572 0.000000 0.000000
0.006572 0.000000 0.150000
0.006298 0.000009 0.150000
0.006298 0.000009 0.000000
0.006421 0.000003 0.000000
0.006421 0.000003 0.150000
0.006776 0.009462 0.000000
0.005862 0.009670 0.000000
0.005862 0.009670 0.150000
0.006776 0.009462 0.150000
0.008622 0.000704 0.000000
0.008753 0.000859 0.000000
0.008753 0.000859 0.150000
0.008622 0.000704 0.150000
0.008384 0.000447 0.150000
0.008384 0.000447 0.000000
0.008498 0.000566 0.000000
0.008498 0.000566 0.150000
0.004563 0.000902 0.000000
0.004563 0.000902 0.150000
0.004240 0.001190 0.150000
0.004240 0.001190 0.000000
0.007518 0.009101 0.150000
0.007518 0.009101 0.000000
0.007146 0.009311 0.000000
0.007146 0.009311 0.150000
0.004118 0.009796 0.000000
0.002972 0.009659 0.000000
0.002972 0.009659 0.150000
0.004118 0.009796 0.150000
0.010169 0.004952 0.000000
0.010169 0.004952 0.150000
0.010184 0.004451 0.150000
0.010184 0.004451 0.000000
0.007341 0.000054 0.150000
0.007747 0.000134 0.150000
0.007936 0.000192 0.150000
0.008109 0.000262 0.150000
0.008260 0.000347 0.150000
0.008890 0.001029 0.150000
0.009028 0.001211 0.150000
0.009165 0.001404 0.150000
0.009299 0.001604 0.150000
0.009546 0.002017 0.150000
0.009746 0.002432 0.150000
0.009822 0.002635 0.150000
0.009888 0.002839 0.150000
0.009951 0.003050 0.150000
0.010010 0.003269 0.150000
0.010063 0.003495 0.150000
0.010145 0.003964 0.150000
0.010086 0.005462 0.150000
0.009950 0.005965 0.150000
0.009870 0.006210 0.150000
0.009784 0.006448 0.150000
0.009590 0.006900 0.150000
0.009484 0.007112 0.150000
0.009370 0.007313 0.150000
0.009125 0.007680 0.150000
0.008857 0.007990 0.150000
0.008712 0.008132 0.150000
0.008559 0.008277 0.150000
0.008399 0.008423 0.150000
0.008232 0.008568 0.150000
0.008059 0.008711 0.150000
0.007882 0.008848 0.150000
0.007701 0.008979 0.150000
0.004806 0.009791 0.150000
0.002743 0.009608 0.150000
0.002516 0.009530 0.150000
0.002400 0.009477 0.150000
0.002279 0.009417 0.150000
0.002149 0.009354 0.150000
0.001873 0.009220 0.150000
0.001732 0.009151 0.150000
0.005908 0.000105 0.150000
0.006182 0.000026 0.150000
0.005252 0.000422 0.150000
0.005592 0.000239 0.150000
0.003903 0.001536 0.150000
0.004073 0.001357 0.150000
0.003383 0.002135 0.150000
0.003556 0.001928 0.150000
0.003043 0.002560 0.150000
0.003211 0.002346 0.150000
0.002722 0.002984 0.150000
0.002879 0.002773 0.150000
0.000888 0.005568 0.150000
0.002573 0.003190 0.150000
0.000442 0.006209 0.150000
0.000654 0.005902 0.150000
0.000112 0.006705 0.150000
0.000258 0.006481 0.150000
0.000007 0.007403 0.150000
0.000009 0.006873 0.150000
0.000040 0.007583 0.150000
0.000026 0.007535 0.150000
0.000111 0.007711 0.150000
0.000067 0.007637 0.150000
0.000243 0.007905 0.150000
0.000171 0.007802 0.150000
0.000414 0.008135 0.150000
0.000325 0.008018 0.150000
0.000601 0.008368 0.150000
0.000507 0.008253 0.150000
0.000936 0.008712 0.150000
0.000864 0.008652 0.150000
0.001104 0.008822 0.150000
0.001012 0.008765 0.150000
0.001330 0.008947 0.150000
0.001211 0.008883 0.150000
0.001593 0.009082 0.150000
0.001458 0.009014 0.150000
0.000864 0.008652 0.000000
0.000601 0.008368 0.000000
0.002743 0.009608 0.000000
0.002516 0.009530 0.000000
0.010145 0.003964 0.000000
0.005908 0.000105 0.000000
0.005592 0.000239 0.000000
0.007747 0.000134 0.000000
0.007936 0.000192 0.000000
0.005252 0.000422 0.000000
0.009746 0.002432 0.000000
0.009546 0.002017 0.000000
0.000007 0.007403 0.000000
0.000009 0.006873 0.000000
0.008399 0.008423 0.000000
0.008232 0.008568 0.000000
0.008559 0.008277 0.000000
0.008857 0.007990 0.000000
0.008712 0.008132 0.000000
0.009125 0.007680 0.000000
0.001012 0.008765 0.000000
0.000936 0.008712 0.000000
0.007701 0.008979 0.000000
0.007882 0.008848 0.000000
0.008059 0.008711 0.000000
0.002573 0.003190 0.000000
0.000888 0.005568 0.000000
0.000654 0.005902 0.000000
0.000442 0.006209 0.000000
0.000258 0.006481 0.000000
0.000112 0.006705 0.000000
0.000026 0.007535 0.000000
0.000040 0.007583 0.000000
0.000067 0.007637 0.000000
0.000111 0.007711 0.000000
0.000171 0.007802 0.000000
0.000243 0.007905 0.000000
0.000325 0.008018 0.000000
0.000414 0.008135 0.000000
0.000507 0.008253 0.000000
0.001104 0.008822 0.000000
0.001211 0.008883 0.000000
0.001330 0.008947 0.000000
0.001458 0.009014 0.000000
0.001593 0.009082 0.000000
0.001732 0.009151 0.000000
0.001873 0.009220 0.000000
0.002149 0.009354 0.000000
0.002279 0.009417 0.000000
0.002400 0.009477 0.000000
0.004806 0.009791 0.000000
0.009370 0.007313 0.000000
0.009484 0.007112 0.000000
0.009590 0.006900 0.000000
0.009784 0.006448 0.000000
0.009870 0.006210 0.000000
0.009950 0.005965 0.000000
0.010086 0.005462 0.000000
0.010063 0.003495 0.000000
0.010010 0.003269 0.000000
0.009951 0.003050 0.000000
0.009888 0.002839 0.000000
0.009822 0.002635 0.000000
0.009299 0.001604 0.000000
0.009165 0.001404 0.000000
0.009028 0.001211 0.000000
0.008890 0.001029 0.000000
0.008260 0.000347 0.000000
0.008109 0.000262 0.000000
0.007341 0.000054 0.000000
0.006182 0.000026 0.000000
0.004073 0.001357 0.000000
0.003903 0.001536 0.000000
0.003556 0.001928 0.000000
0.003383 0.002135 0.000000
0.003211 0.002346 0.000000
0.003043 0.002560 0.000000
0.002879 0.002773 0.000000
0.002722 0.002984 0.000000
3 0 1 2
3 0 2 3
3 4 0 3
3 4 3 5
3 6 7 8
3 8 4 5
3 9 6 8
3 8 5 9
3 10 11 12
3 10 12 13
3 14 15 16
3 14 16 17
3 18 19 20
3 20 14 17
3 21 18 20
3 20 17 21
3 22 23 24
3 22 24 25
3 26 27 28
3 26 28 29
3 30 31 32
3 30 32 33
3 34 35 36
3 34 36 37
3 6 9 5
3 5 3 2
3 2 38 39
3 39 40 41
3 41 42 18
3 18 21 17
3 17 16 43
3 43 44 45
3 45 46 47
3 47 48 49
3 49 50 51
3 51 52 53
3 53 54 36
3 36 35 55
3 55 56 57
3 57 58 59
3 59 60 61
3 61 62 63
3 63 64 65
3 65 66 67
3 67 68 69
3 69 70 26
3 26 29 13
3 13 12 71
3 71 33 32
3 32 72 73
3 73 74 75
3 76 77 78
3 73 75 76
3 71 32 73
3 26 13 71
3 67 69 26
3 63 65 67
3 59 61 63
3 55 57 59
3 53 36 55
3 49 51 53
3 45 47 49
3 17 43 45
3 41 18 17
3 2 39 41
3 6 5 2
3 79 80 6
3 81 82 79
3 24 23 81
3 83 84 24
3 85 86 83
3 87 88 85
3 89 90 87
3 91 92 89
3 93 94 91
3 95 96 93
3 97 98 95
3 99 100 97
3 101 102 99
3 103 104 101
3 105 106 103
3 107 108 105
3 109 110 107
3 111 112 109
3 113 114 111
3 115 116 113
3 76 78 115
3 71 73 76
3 67 26 71
3 59 63 67
3 53 55 59
3 45 49 53
3 41 17 45
3 6 2 41
3 81 79 6
3 83 24 81
3 87 85 83
3 91 89 87
3 95 93 91
3 99 97 95
3 103 101 99
3 107 105 103
3 111 109 107
3 115 113 111
3 71 76 115
3 59 67 71
3 45 53 59
3 6 41 45
3 83 81 6
3 91 87 83
3 99 95 91
3 107 103 99
3 115 111 107
3 59 71 115
3 6 45 59
3 91 83 6
3 107 99 91
3 59 115 107
3 91 6 59
3 59 107 91
3 117 118 107
3 117 107 110
3 119 120 73
3 119 73 72
3 54 121 37
3 54 37 36
3 122 79 82
3 122 82 123
3 39 124 125
3 39 125 40
3 23 22 126
3 23 126 81
3 119 72 32
3 119 32 31
3 127 48 47
3 127 47 128
3 129 130 98
3 129 98 97
3 131 132 67
3 131 67 66
3 133 131 66
3 133 66 65
3 63 134 135
3 135 133 65
3 64 63 135
3 65 64 135
3 136 134 63
3 136 63 62
3 112 137 138
3 112 138 109
3 139 27 26
3 139 26 70
3 140 139 70
3 140 70 69
3 67 132 141
3 141 140 69
3 68 67 141
3 69 68 141
3 142 143 144
3 144 145 146
3 146 147 130
3 130 129 148
3 148 149 150
3 150 151 152
3 152 153 154
3 154 155 156
3 156 118 117
3 117 138 137
3 137 157 158
3 158 159 160
3 160 161 162
3 162 163 164
3 165 166 120
3 160 162 164
3 164 165 120
3 120 119 31
3 31 30 167
3 167 11 10
3 10 28 27
3 27 139 140
3 140 141 132
3 132 131 133
3 133 135 134
3 134 136 168
3 168 169 170
3 170 171 172
3 172 173 174
3 174 34 37
3 37 121 175
3 175 176 177
3 177 178 179
3 179 127 128
3 128 180 181
3 181 182 183
3 183 15 14
3 14 20 19
3 19 184 185
3 185 125 124
3 124 186 1
3 1 0 4
3 4 8 7
3 7 187 122
3 122 123 126
3 126 22 25
3 25 188 189
3 189 190 191
3 191 192 193
3 193 194 195
3 195 142 144
3 144 146 130
3 130 148 150
3 150 152 154
3 154 156 117
3 117 137 158
3 158 160 164
3 164 120 31
3 31 167 10
3 10 27 140
3 140 132 133
3 133 134 168
3 168 170 172
3 172 174 37
3 37 175 177
3 177 179 128
3 128 181 183
3 183 14 19
3 19 185 124
3 124 1 4
3 4 7 122
3 122 126 25
3 25 189 191
3 191 193 195
3 195 144 130
3 130 150 154
3 154 117 158
3 158 164 31
3 31 10 140
3 140 133 168
3 168 172 37
3 37 177 128
3 128 183 19
3 19 124 4
3 4 122 25
3 25 191 195
3 195 130 154
3 154 158 31
3 31 140 168
3 168 37 128
3 128 19 4
3 4 25 195
3 195 154 31
3 31 168 128
3 128 4 195
3 31 128 195
3 128 47 46
3 128 46 180
3 38 186 124
3 38 124 39
3 169 168 61
3 169 61 60
3 58 171 170
3 170 169 60
3 59 58 170
3 60 59 170
3 11 167 71
3 11 71 12
3 175 53 52
3 175 52 51
3 178 177 175
3 127 179 178
3 49 48 127
3 175 51 50
3 50 49 127
3 127 178 175
3 175 50 127
3 186 38 2
3 186 2 1
3 102 150 149
3 102 149 99
3 182 181 180
3 180 46 45
3 180 45 44
3 183 182 180
3 16 15 183
3 180 44 43
3 43 16 183
3 180 43 183
3 34 174 55
3 34 55 35
3 142 195 194
3 194 193 192
3 192 191 190
3 190 86 85
3 190 85 88
3 194 192 190
3 143 142 194
3 145 144 143
3 147 146 145
3 98 130 147
3 95 98 147
3 147 145 143
3 143 194 190
3 190 88 87
3 190 87 90
3 147 143 190
3 96 95 147
3 93 96 147
3 147 190 90
3 147 90 89
3 94 93 147
3 91 94 147
3 147 89 92
3 92 91 147
3 157 137 112
3 157 112 111
3 158 157 111
3 158 111 114
3 159 158 114
3 159 114 113
3 160 159 113
3 160 113 116
3 161 160 116
3 161 116 115
3 162 161 115
3 162 115 78
3 165 164 163
3 163 162 78
3 163 78 77
3 166 165 163
3 73 120 166
3 74 73 166
3 166 163 77
3 166 77 76
3 75 74 166
3 76 75 166
3 79 122 187
3 79 187 80
3 40 125 185
3 40 185 41
3 42 184 19
3 42 19 18
3 167 30 33
3 167 33 71
3 80 187 7
3 80 7 6
3 173 172 171
3 171 58 57
3 56 55 174
3 171 57 56
3 174 173 171
3 171 56 174
3 153 152 151
3 151 150 102
3 151 102 101
3 154 153 151
3 107 118 156
3 108 107 156
3 156 154 151
3 151 101 104
3 151 104 103
3 108 156 151
3 105 108 151
3 151 103 106
3 151 106 105
3 28 10 13
3 28 13 29
3 41 185 184
3 41 184 42
3 175 121 54
3 175 54 53
3 126 123 82
3 126 82 81
3 99 149 148
3 99 148 100
3 188 25 24
3 188 24 84
3 86 190 189
3 189 188 84
3 83 86 189
3 189 84 83
3 100 148 129
3 100 129 97
3 109 138 117
3 109 117 110
3 168 136 62
3 168 62 61
