ply
format ascii 1.0
comment Created by Blender 3.6.8 - www.blender.org
element vertex 160
property float x
property float y
property float z
element face 313
property list uchar uint vertex_indices
end_header
0.006654 0.005838 0.000000
0.006611 0.005870 0.000000
0.006573 0.005898 0.000000
0.006536 0.005924 0.000000
0.006536 0.005924 0.150000
0.006573 0.005898 0.150000
0.006705 0.005804 0.000000
0.006654 0.005838 0.150000
0.006705 0.005804 0.150000
0.006611 0.005870 0.150000
0.007413 0.000285 0.150000
0.007413 0.000285 0.000000
0.007463 0.000318 0.000000
0.007463 0.000318 0.150000
0.007809 0.001132 0.150000
0.007827 0.002199 0.150000
0.007776 0.003380 0.150000
0.007768 0.003473 0.150000
0.007756 0.003570 0.150000
0.007720 0.003789 0.150000
0.007695 0.003917 0.150000
0.007665 0.004049 0.150000
0.007633 0.004175 0.150000
0.007601 0.004294 0.150000
0.007384 0.004890 0.150000
0.007069 0.005487 0.150000
0.006993 0.005594 0.150000
0.006947 0.005642 0.150000
0.006896 0.005688 0.150000
0.006837 0.005730 0.150000
0.007785 0.000868 0.150000
0.007804 0.001031 0.150000
0.007711 0.000645 0.150000
0.007754 0.000745 0.150000
0.007510 0.000357 0.150000
0.007553 0.000402 0.150000
0.007255 0.000208 0.150000
0.007308 0.000230 0.150000
0.007100 0.000152 0.150000
0.007201 0.000188 0.150000
0.006919 0.000082 0.150000
0.006968 0.000098 0.150000
0.007053 0.000134 0.150000
0.006867 0.000067 0.150000
0.006811 0.000053 0.150000
0.006691 0.000030 0.150000
0.006752 0.000041 0.150000
0.006565 0.000014 0.150000
0.006628 0.000021 0.150000
0.006440 0.000003 0.150000
0.006502 0.000008 0.150000
0.006321 0.000000 0.150000
0.006379 0.000001 0.150000
0.006121 0.000003 0.150000
0.006241 0.000001 0.150000
0.004433 0.000045 0.150000
0.004617 0.000040 0.150000
0.003792 0.000072 0.150000
0.004150 0.000056 0.150000
0.002930 0.000127 0.150000
0.003378 0.000096 0.150000
0.002017 0.000217 0.150000
0.002469 0.000167 0.150000
0.000919 0.000437 0.150000
0.001594 0.000278 0.150000
0.000569 0.000644 0.150000
0.000711 0.000536 0.150000
0.000356 0.000864 0.150000
0.000452 0.000753 0.150000
0.000220 0.001095 0.150000
0.000280 0.000978 0.150000
0.000014 0.002007 0.150000
0.000137 0.001336 0.150000
0.000050 0.002621 0.150000
0.000000 0.002175 0.150000
0.001765 0.005334 0.150000
0.000662 0.004843 0.150000
0.002845 0.005527 0.150000
0.002739 0.005508 0.150000
0.002480 0.005450 0.150000
0.006494 0.005945 0.150000
0.006446 0.005961 0.150000
0.006385 0.005972 0.150000
0.006308 0.005978 0.150000
0.006091 0.005969 0.150000
0.005942 0.005953 0.150000
0.004587 0.005740 0.150000
0.007633 0.004175 0.000000
0.007601 0.004294 0.000000
0.007665 0.004049 0.000000
0.007720 0.003789 0.000000
0.007695 0.003917 0.000000
0.006446 0.005961 0.000000
0.006494 0.005945 0.000000
0.006308 0.005978 0.000000
0.006385 0.005972 0.000000
0.005942 0.005953 0.000000
0.006091 0.005969 0.000000
0.002739 0.005508 0.000000
0.002845 0.005527 0.000000
0.004587 0.005740 0.000000
0.002480 0.005450 0.000000
0.006837 0.005730 0.000000
0.006896 0.005688 0.000000
0.001765 0.005334 0.000000
0.000050 0.002621 0.000000
0.000662 0.004843 0.000000
0.000014 0.002007 0.000000
0.000000 0.002175 0.000000
0.000220 0.001095 0.000000
0.000137 0.001336 0.000000
0.000356 0.000864 0.000000
0.000280 0.000978 0.000000
0.000569 0.000644 0.000000
0.000452 0.000753 0.000000
0.000919 0.000437 0.000000
0.000711 0.000536 0.000000
0.002017 0.000217 0.000000
0.001594 0.000278 0.000000
0.002930 0.000127 0.000000
0.002469 0.000167 0.000000
0.003792 0.000072 0.000000
0.003378 0.000096 0.000000
0.004433 0.000045 0.000000
0.004150 0.000056 0.000000
0.006121 0.000003 0.000000
0.004617 0.000040 0.000000
0.006321 0.000000 0.000000
0.006241 0.000001 0.000000
0.006440 0.000003 0.000000
0.006379 0.000001 0.000000
0.006565 0.000014 0.000000
0.006502 0.000008 0.000000
0.006691 0.000030 0.000000
0.006628 0.000021 0.000000
0.006811 0.000053 0.000000
0.006752 0.000041 0.000000
0.006919 0.000082 0.000000
0.006867 0.000067 0.000000
0.007053 0.000134 0.000000
0.006968 0.000098 0.000000
0.007255 0.000208 0.000000
0.007201 0.000188 0.000000
0.007100 0.000152 0.000000
0.007308 0.000230 0.000000
0.006947 0.005642 0.000000
0.006993 0.005594 0.000000
0.007069 0.005487 0.000000
0.007384 0.004890 0.000000
0.007756 0.003570 0.000000
0.007768 0.003473 0.000000
0.007776 0.003380 0.000000
0.007827 0.002199 0.000000
0.007809 0.001132 0.000000
0.007804 0.001031 0.000000
0.007785 0.000868 0.000000
0.007754 0.000745 0.000000
0.007711 0.000645 0.000000
0.007553 0.000402 0.000000
0.007510 0.000357 0.000000
3 0 1 2
3 2 3 4
3 2 4 5
3 6 0 2
3 7 8 6
3 2 5 9
3 9 7 6
3 2 9 6
3 10 11 12
3 10 12 13
3 14 15 16
3 16 17 18
3 18 19 20
3 20 21 22
3 22 23 24
3 24 25 26
3 26 27 28
3 28 29 8
3 26 28 8
3 22 24 26
3 18 20 22
3 14 16 18
3 30 31 14
3 32 33 30
3 34 35 32
3 10 13 34
3 36 37 10
3 38 39 36
3 40 41 42
3 38 36 10
3 43 40 42
3 42 38 10
3 10 34 32
3 32 30 14
3 14 18 22
3 22 26 8
3 22 8 7
3 32 14 22
3 42 10 32
3 44 43 42
3 45 46 44
3 47 48 45
3 49 50 47
3 51 52 49
3 53 54 51
3 55 56 53
3 57 58 55
3 59 60 57
3 61 62 59
3 63 64 61
3 65 66 63
3 67 68 65
3 69 70 67
3 71 72 69
3 73 74 71
3 75 76 73
3 77 78 79
3 79 75 73
3 73 71 69
3 69 67 65
3 65 63 61
3 61 59 57
3 57 55 53
3 53 51 49
3 49 47 45
3 45 44 42
3 42 32 22
3 22 7 9
3 9 5 4
3 4 80 81
3 81 82 83
3 83 84 85
3 86 77 79
3 83 85 86
3 4 81 83
3 22 9 4
3 45 42 22
3 53 49 45
3 61 57 53
3 69 65 61
3 79 73 69
3 4 83 86
3 86 79 69
3 69 61 53
3 53 45 22
3 22 4 86
3 86 69 53
3 22 86 53
3 87 88 23
3 87 23 22
3 89 87 22
3 89 22 21
3 19 90 91
3 91 89 21
3 20 19 91
3 21 20 91
3 3 2 1
3 3 1 0
3 92 93 3
3 94 95 92
3 96 97 94
3 98 99 100
3 100 96 94
3 94 92 3
3 94 3 0
3 101 98 100
3 100 94 0
3 6 102 103
3 100 0 6
3 104 101 100
3 105 106 104
3 107 108 105
3 109 110 107
3 111 112 109
3 113 114 111
3 115 116 113
3 117 118 115
3 119 120 117
3 121 122 119
3 123 124 121
3 125 126 123
3 127 128 125
3 129 130 127
3 131 132 129
3 133 134 131
3 135 136 133
3 137 138 135
3 139 140 137
3 141 142 143
3 139 137 135
3 144 141 143
3 143 139 135
3 135 133 131
3 131 129 127
3 127 125 123
3 123 121 119
3 119 117 115
3 115 113 111
3 111 109 107
3 107 105 104
3 104 100 6
3 6 103 145
3 145 146 147
3 147 148 88
3 88 87 89
3 89 91 90
3 90 149 150
3 150 151 152
3 152 153 154
3 154 155 156
3 156 157 158
3 158 159 12
3 12 11 144
3 144 143 135
3 135 131 127
3 127 123 119
3 119 115 111
3 111 107 104
3 104 6 145
3 145 147 88
3 88 89 90
3 90 150 152
3 152 154 156
3 156 158 12
3 12 144 135
3 135 127 119
3 119 111 104
3 104 145 88
3 88 90 152
3 152 156 12
3 12 135 119
3 119 104 88
3 88 152 12
3 88 12 119
3 98 101 104
3 104 75 79
3 104 79 78
3 99 98 104
3 96 100 99
3 84 97 96
3 85 84 96
3 99 104 78
3 85 96 99
3 86 85 99
3 99 78 77
3 77 86 99
3 134 133 45
3 134 45 48
3 131 134 48
3 131 48 47
3 49 129 132
3 132 131 47
3 50 49 132
3 47 50 132
3 13 12 159
3 13 159 34
3 80 93 92
3 80 92 81
3 68 114 113
3 68 113 65
3 110 109 69
3 110 69 72
3 67 111 114
3 67 114 68
3 129 49 52
3 129 52 51
3 125 127 129
3 124 123 125
3 122 121 124
3 120 119 122
3 118 117 120
3 61 64 118
3 62 61 118
3 118 120 122
3 122 124 125
3 125 129 51
3 125 51 54
3 118 122 125
3 59 62 118
3 60 59 118
3 118 125 54
3 118 54 53
3 57 60 118
3 58 57 118
3 118 53 56
3 55 58 118
3 56 55 118
3 63 115 118
3 63 118 64
3 107 110 72
3 107 72 71
3 37 144 11
3 37 11 10
3 104 106 76
3 104 76 75
3 27 145 103
3 27 103 28
3 30 155 154
3 30 154 31
3 34 159 158
3 34 158 35
3 26 146 145
3 26 145 27
3 148 147 25
3 148 25 24
3 70 112 111
3 70 111 67
3 17 16 151
3 151 150 149
3 149 90 19
3 18 17 151
3 149 19 18
3 151 149 18
3 4 3 93
3 4 93 80
3 6 8 29
3 6 29 102
3 66 116 115
3 66 115 63
3 106 105 73
3 106 73 76
3 82 95 94
3 82 94 83
3 33 156 155
3 33 155 30
3 153 152 151
3 151 16 15
3 14 31 154
3 151 15 14
3 154 153 151
3 151 14 154
3 147 146 26
3 147 26 25
3 94 97 84
3 94 84 83
3 74 108 107
3 74 107 71
3 69 109 112
3 69 112 70
3 158 157 32
3 158 32 35
3 138 137 40
3 138 40 43
3 135 138 43
3 135 43 44
3 45 133 136
3 136 135 44
3 46 45 136
3 44 46 136
3 148 24 23
3 148 23 88
3 65 113 116
3 65 116 66
3 28 103 102
3 28 102 29
3 81 92 95
3 81 95 82
3 157 156 33
3 157 33 32
3 141 144 37
3 141 37 36
3 142 141 36
3 142 36 39
3 143 142 39
3 143 39 38
3 139 143 38
3 139 38 42
3 40 137 140
3 140 139 42
3 41 40 140
3 42 41 140
3 73 105 108
3 73 108 74
