ply
format ascii 1.0
comment Created by Blender 3.6.8 - www.blender.org
element vertex 142
property float x
property float y
property float z
element face 278
property list uchar uint vertex_indices
end_header
0.001716 0.004976 0.000000
0.001858 0.005123 0.000000
0.001994 0.005259 0.000000
0.002117 0.005379 0.000000
0.002222 0.005479 0.000000
0.002303 0.005555 0.000000
0.002375 0.005621 0.000000
0.002544 0.005614 0.000000
0.002796 0.005595 0.000000
0.003116 0.005563 0.000000
0.003897 0.005465 0.000000
0.004764 0.005323 0.000000
0.005190 0.005236 0.000000
0.005590 0.005140 0.000000
0.005950 0.005035 0.000000
0.006254 0.004921 0.000000
0.006485 0.004799 0.000000
0.007266 0.004289 0.000000
0.007380 0.004193 0.000000
0.007479 0.004090 0.000000
0.007563 0.003974 0.000000
0.007631 0.003844 0.000000
0.007683 0.003694 0.000000
0.007719 0.003521 0.000000
0.007811 0.001898 0.000000
0.007781 0.001554 0.000000
0.007749 0.001397 0.000000
0.007703 0.001252 0.000000
0.007641 0.001120 0.000000
0.007557 0.000994 0.000000
0.007449 0.000868 0.000000
0.007166 0.000622 0.000000
0.006813 0.000398 0.000000
0.006412 0.000213 0.000000
0.005982 0.000080 0.000000
0.005546 0.000017 0.000000
0.003635 0.000052 0.000000
0.003025 0.000122 0.000000
0.002724 0.000171 0.000000
0.002429 0.000229 0.000000
0.002145 0.000298 0.000000
0.001882 0.000365 0.000000
0.001264 0.000510 0.000000
0.001107 0.000551 0.000000
0.001571 0.004821 0.000000
0.001298 0.004502 0.000000
0.001430 0.004661 0.000000
0.001081 0.004199 0.000000
0.001180 0.004347 0.000000
0.000857 0.003827 0.000000
0.000925 0.003941 0.000000
0.000731 0.003609 0.000000
0.000793 0.003717 0.000000
0.000607 0.003381 0.000000
0.000670 0.003498 0.000000
0.000467 0.003114 0.000000
0.000540 0.003254 0.000000
0.000105 0.002377 0.000000
0.000196 0.002576 0.000000
0.000010 0.002068 0.000000
0.000044 0.002209 0.000000
0.000011 0.001842 0.000000
0.000000 0.001947 0.000000
0.000085 0.001659 0.000000
0.000041 0.001748 0.000000
0.000566 0.000870 0.000000
0.000490 0.000982 0.000000
0.000347 0.001257 0.000000
0.000848 0.000645 0.000000
0.000743 0.000705 0.000000
0.000650 0.000779 0.000000
0.000490 0.000982 0.150000
0.000566 0.000870 0.150000
0.000105 0.002377 0.150000
0.000044 0.002209 0.150000
0.007479 0.004090 0.150000
0.007380 0.004193 0.150000
0.002544 0.005614 0.150000
0.002796 0.005595 0.150000
0.003897 0.005465 0.150000
0.004764 0.005323 0.150000
0.003116 0.005563 0.150000
0.007449 0.000868 0.150000
0.007166 0.000622 0.150000
0.000011 0.001842 0.150000
0.000041 0.001748 0.150000
0.007719 0.003521 0.150000
0.007683 0.003694 0.150000
0.006485 0.004799 0.150000
0.007266 0.004289 0.150000
0.002375 0.005621 0.150000
0.002303 0.005555 0.150000
0.002222 0.005479 0.150000
0.002117 0.005379 0.150000
0.001994 0.005259 0.150000
0.001858 0.005123 0.150000
0.001716 0.004976 0.150000
0.001571 0.004821 0.150000
0.001430 0.004661 0.150000
0.001298 0.004502 0.150000
0.001180 0.004347 0.150000
0.001081 0.004199 0.150000
0.000925 0.003941 0.150000
0.000857 0.003827 0.150000
0.000793 0.003717 0.150000
0.000731 0.003609 0.150000
0.000670 0.003498 0.150000
0.000607 0.003381 0.150000
0.000540 0.003254 0.150000
0.000467 0.003114 0.150000
0.000196 0.002576 0.150000
0.000010 0.002068 0.150000
0.000000 0.001947 0.150000
0.000085 0.001659 0.150000
0.000347 0.001257 0.150000
0.000650 0.000779 0.150000
0.000743 0.000705 0.150000
0.000848 0.000645 0.150000
0.001107 0.000551 0.150000
0.001264 0.000510 0.150000
0.001882 0.000365 0.150000
0.002145 0.000298 0.150000
0.002429 0.000229 0.150000
0.002724 0.000171 0.150000
0.003025 0.000122 0.150000
0.003635 0.000052 0.150000
0.005546 0.000017 0.150000
0.005982 0.000080 0.150000
0.006412 0.000213 0.150000
0.006813 0.000398 0.150000
0.007557 0.000994 0.150000
0.007641 0.001120 0.150000
0.007703 0.001252 0.150000
0.007749 0.001397 0.150000
0.007781 0.001554 0.150000
0.007811 0.001898 0.150000
0.007631 0.003844 0.150000
0.007563 0.003974 0.150000
0.006254 0.004921 0.150000
0.005950 0.005035 0.150000
0.005590 0.005140 0.150000
0.005190 0.005236 0.150000
3 0 1 2
3 2 3 4
3 4 5 6
3 6 7 8
3 8 9 10
3 10 11 12
3 12 13 14
3 14 15 16
3 16 17 18
3 18 19 20
3 20 21 22
3 22 23 24
3 24 25 26
3 26 27 28
3 28 29 30
3 30 31 32
3 32 33 34
3 34 35 36
3 36 37 38
3 38 39 40
3 41 42 43
3 38 40 41
3 34 36 38
3 30 32 34
3 26 28 30
3 22 24 26
3 18 20 22
3 14 16 18
3 10 12 14
3 6 8 10
3 2 4 6
3 44 0 2
3 45 46 44
3 47 48 45
3 49 50 47
3 51 52 49
3 53 54 51
3 55 56 53
3 57 58 55
3 59 60 57
3 61 62 59
3 63 64 61
3 65 66 67
3 67 63 61
3 61 59 57
3 57 55 53
3 53 51 49
3 49 47 45
3 45 44 2
3 2 6 10
3 10 14 18
3 18 22 26
3 26 30 34
3 34 38 41
3 41 43 68
3 68 69 70
3 70 65 67
3 67 61 57
3 57 53 49
3 49 45 2
3 2 10 18
3 18 26 34
3 34 41 68
3 68 70 67
3 67 57 49
3 49 2 18
3 18 34 68
3 68 67 49
3 18 68 49
3 71 66 65
3 71 65 72
3 73 57 60
3 73 60 74
3 75 19 18
3 75 18 76
3 8 7 77
3 8 77 78
3 11 10 8
3 79 80 11
3 8 78 81
3 81 79 11
3 8 81 11
3 30 82 83
3 30 83 31
3 84 61 64
3 84 64 85
3 86 23 22
3 86 22 87
3 17 16 88
3 17 88 89
3 79 81 78
3 78 77 90
3 90 91 92
3 92 93 94
3 94 95 96
3 96 97 98
3 98 99 100
3 100 101 102
3 102 103 104
3 104 105 106
3 106 107 108
3 108 109 110
3 110 73 74
3 74 111 112
3 112 84 85
3 85 113 114
3 114 71 72
3 72 115 116
3 116 117 118
3 118 119 120
3 120 121 122
3 122 123 124
3 124 125 126
3 126 127 128
3 128 129 83
3 83 82 130
3 130 131 132
3 132 133 134
3 134 135 86
3 86 87 136
3 136 137 75
3 75 76 89
3 89 88 138
3 138 139 140
3 140 141 80
3 80 79 78
3 78 90 92
3 92 94 96
3 96 98 100
3 100 102 104
3 104 106 108
3 108 110 74
3 74 112 85
3 114 72 116
3 74 85 114
3 104 108 74
3 96 100 104
3 78 92 96
3 140 80 78
3 89 138 140
3 136 75 89
3 134 86 136
3 130 132 134
3 128 83 130
3 124 126 128
3 120 122 124
3 116 118 120
3 74 114 116
3 96 104 74
3 140 78 96
3 136 89 140
3 130 134 136
3 124 128 130
3 116 120 124
3 96 74 116
3 136 140 96
3 124 130 136
3 96 116 124
3 96 124 136
3 82 30 29
3 82 29 130
3 132 27 26
3 132 26 133
3 45 48 100
3 45 100 99
3 97 44 46
3 46 45 99
3 98 97 46
3 46 99 98
3 137 20 19
3 137 19 75
3 138 15 14
3 138 14 139
3 116 69 68
3 116 68 117
3 136 21 20
3 136 20 137
3 125 36 35
3 125 35 126
3 127 34 33
3 127 33 128
3 37 36 125
3 37 125 124
3 133 26 25
3 133 25 134
3 88 16 15
3 88 15 138
3 112 62 61
3 112 61 84
3 87 22 21
3 87 21 136
3 111 59 62
3 111 62 112
3 76 18 17
3 76 17 89
3 85 64 63
3 85 63 113
3 58 57 73
3 58 73 110
3 55 58 110
3 55 110 109
3 56 55 109
3 56 109 108
3 53 56 108
3 53 108 107
3 54 53 107
3 54 107 106
3 51 54 106
3 51 106 105
3 52 51 105
3 52 105 104
3 49 52 104
3 49 104 103
3 50 49 103
3 50 103 102
3 100 48 47
3 47 50 102
3 101 100 47
3 102 101 47
3 32 129 128
3 32 128 33
3 134 25 24
3 134 24 135
3 131 28 27
3 131 27 132
3 34 127 126
3 34 126 35
3 24 23 86
3 24 86 135
3 117 68 43
3 117 43 118
3 0 44 97
3 0 97 96
3 1 0 96
3 1 96 95
3 2 1 95
3 2 95 94
3 3 2 94
3 3 94 93
3 4 3 93
3 4 93 92
3 90 6 5
3 5 4 92
3 91 90 5
3 5 92 91
3 130 29 28
3 130 28 131
3 31 83 129
3 31 129 32
3 72 65 70
3 72 70 115
3 77 7 6
3 77 6 90
3 38 37 124
3 38 124 123
3 39 38 123
3 39 123 122
3 42 41 40
3 40 39 122
3 40 122 121
3 118 43 42
3 42 40 121
3 42 121 120
3 119 118 42
3 120 119 42
3 63 67 114
3 63 114 113
3 12 11 80
3 12 80 141
3 139 14 12
3 12 141 140
3 12 140 139
3 114 67 66
3 114 66 71
3 115 70 69
3 115 69 116
3 74 60 59
3 74 59 111
