ply
format ascii 1.0
comment Created by Blender 3.6.8 - www.blender.org
element vertex 160
property float x
property float y
property float z
element face 316
property list uchar uint vertex_indices
end_header
0.001199 0.000068 0.150000
0.001199 0.000068 0.000000
0.001331 0.000022 0.000000
0.001331 0.000022 0.150000
0.002448 0.000510 0.000000
0.002448 0.000510 0.150000
0.002075 0.000230 0.150000
0.002075 0.000230 0.000000
0.006929 0.013871 0.150000
0.006929 0.013871 0.000000
0.006896 0.013994 0.000000
0.006896 0.013994 0.150000
0.000051 0.001748 0.000000
0.000080 0.001562 0.000000
0.000116 0.001383 0.000000
0.000116 0.001383 0.150000
0.000080 0.001562 0.150000
0.000051 0.001748 0.150000
0.000030 0.001935 0.000000
0.000015 0.002118 0.150000
0.000015 0.002118 0.000000
0.000030 0.001935 0.150000
0.004839 0.013930 0.150000
0.004839 0.013930 0.000000
0.004738 0.013793 0.000000
0.004738 0.013793 0.150000
0.006556 0.014328 0.000000
0.005678 0.014293 0.000000
0.005678 0.014293 0.150000
0.006556 0.014328 0.150000
0.006804 0.014188 0.150000
0.006804 0.014188 0.000000
0.006739 0.014256 0.000000
0.006739 0.014256 0.150000
0.000004 0.002713 0.150000
0.000004 0.002713 0.000000
0.001828 0.006445 0.000000
0.001722 0.006287 0.000000
0.001722 0.006287 0.150000
0.001828 0.006445 0.150000
0.001334 0.005885 0.000000
0.001309 0.005865 0.000000
0.001309 0.005865 0.150000
0.001334 0.005885 0.150000
0.001400 0.005942 0.000000
0.001400 0.005942 0.150000
0.001496 0.006032 0.150000
0.001496 0.006032 0.000000
0.001445 0.005983 0.000000
0.001445 0.005983 0.150000
0.000032 0.002859 0.150000
0.000032 0.002859 0.000000
0.000722 0.000419 0.150000
0.000722 0.000419 0.000000
0.000950 0.000219 0.000000
0.000950 0.000219 0.150000
0.002832 0.000866 0.000000
0.003191 0.001271 0.000000
0.003191 0.001271 0.150000
0.002832 0.000866 0.150000
0.001467 0.000001 0.000000
0.001467 0.000001 0.150000
0.001904 0.000126 0.150000
0.001904 0.000126 0.000000
0.006856 0.014101 0.150000
0.006856 0.014101 0.000000
0.007087 0.012285 0.150000
0.007087 0.012285 0.000000
0.007111 0.012470 0.000000
0.007111 0.012470 0.150000
0.000213 0.001064 0.150000
0.000213 0.001064 0.000000
0.000276 0.000934 0.000000
0.000276 0.000934 0.150000
0.005369 0.014239 0.150000
0.005369 0.014239 0.000000
0.005222 0.014192 0.000000
0.005222 0.014192 0.150000
0.000521 0.000635 0.150000
0.000349 0.000831 0.150000
0.000349 0.000831 0.000000
0.000521 0.000635 0.000000
0.000618 0.000527 0.150000
0.000618 0.000527 0.000000
0.000202 0.003357 0.000000
0.000100 0.003079 0.000000
0.000100 0.003079 0.150000
0.000202 0.003357 0.150000
0.000329 0.003677 0.000000
0.000329 0.003677 0.150000
0.000474 0.004024 0.000000
0.000474 0.004024 0.150000
0.000628 0.004381 0.000000
0.000628 0.004381 0.150000
0.000783 0.004733 0.000000
0.000783 0.004733 0.150000
0.000932 0.005065 0.000000
0.000932 0.005065 0.150000
0.001067 0.005359 0.000000
0.001067 0.005359 0.150000
0.001180 0.005601 0.000000
0.001180 0.005601 0.150000
0.001263 0.005775 0.000000
0.001263 0.005775 0.150000
0.007119 0.012657 0.150000
0.007119 0.012657 0.000000
0.007109 0.012847 0.000000
0.007109 0.012847 0.150000
0.006657 0.014303 0.150000
0.006657 0.014303 0.000000
0.005083 0.014126 0.000000
0.005083 0.014126 0.150000
0.001072 0.000136 0.150000
0.001072 0.000136 0.000000
0.003816 0.002532 0.150000
0.005142 0.006052 0.150000
0.005477 0.007052 0.150000
0.006328 0.010068 0.150000
0.006937 0.011727 0.150000
0.006998 0.011914 0.150000
0.003597 0.001912 0.150000
0.003679 0.002121 0.150000
0.003485 0.001698 0.150000
0.001607 0.000009 0.150000
0.001750 0.000051 0.150000
0.004955 0.014040 0.150000
0.004500 0.013408 0.150000
0.004434 0.013298 0.150000
0.004371 0.013189 0.150000
0.004311 0.013076 0.150000
0.004250 0.012954 0.150000
0.004121 0.012662 0.150000
0.003716 0.011554 0.150000
0.002850 0.008853 0.150000
0.002712 0.008468 0.150000
0.002035 0.006856 0.150000
0.001928 0.006631 0.150000
0.001928 0.006631 0.000000
0.004955 0.014040 0.000000
0.002850 0.008853 0.000000
0.003716 0.011554 0.000000
0.004121 0.012662 0.000000
0.004250 0.012954 0.000000
0.004311 0.013076 0.000000
0.004371 0.013189 0.000000
0.004434 0.013298 0.000000
0.004500 0.013408 0.000000
0.006998 0.011914 0.000000
0.006937 0.011727 0.000000
0.006328 0.010068 0.000000
0.005477 0.007052 0.000000
0.005142 0.006052 0.000000
0.003816 0.002532 0.000000
0.003679 0.002121 0.000000
0.003597 0.001912 0.000000
0.003485 0.001698 0.000000
0.001750 0.000051 0.000000
0.001607 0.000009 0.000000
0.002712 0.008468 0.000000
0.002035 0.006856 0.000000
3 0 1 2
3 0 2 3
3 4 5 6
3 4 6 7
3 8 9 10
3 8 10 11
3 12 13 14
3 14 15 16
3 14 16 17
3 18 12 14
3 19 20 18
3 14 17 21
3 21 19 18
3 14 21 18
3 22 23 24
3 22 24 25
3 26 27 28
3 26 28 29
3 30 31 32
3 30 32 33
3 34 35 20
3 34 20 19
3 36 37 38
3 36 38 39
3 40 41 42
3 40 42 43
3 44 40 43
3 44 43 45
3 46 47 48
3 48 44 45
3 49 46 48
3 45 49 48
3 50 51 35
3 50 35 34
3 52 53 54
3 52 54 55
3 56 57 58
3 56 58 59
3 37 47 46
3 37 46 38
3 3 2 60
3 3 60 61
3 62 63 7
3 62 7 6
3 64 65 31
3 64 31 30
3 66 67 68
3 66 68 69
3 70 71 72
3 70 72 73
3 74 75 76
3 74 76 77
3 78 79 80
3 78 80 81
3 53 52 82
3 82 78 81
3 83 53 82
3 81 83 82
3 84 85 86
3 84 86 87
3 88 84 87
3 88 87 89
3 90 88 89
3 90 89 91
3 92 90 91
3 92 91 93
3 94 92 93
3 94 93 95
3 96 94 95
3 96 95 97
3 98 96 97
3 98 97 99
3 100 98 99
3 100 99 101
3 42 41 102
3 102 100 101
3 103 42 102
3 101 103 102
3 104 105 106
3 104 106 107
3 56 59 5
3 56 5 4
3 108 109 26
3 108 26 29
3 77 76 110
3 77 110 111
3 33 32 109
3 33 109 108
3 11 10 65
3 11 65 64
3 73 72 80
3 73 80 79
3 112 113 1
3 112 1 0
3 114 115 116
3 117 118 119
3 114 116 117
3 120 121 114
3 58 122 120
3 5 59 58
3 62 6 5
3 123 124 62
3 3 61 123
3 112 0 3
3 52 55 112
3 78 82 52
3 73 79 78
3 15 70 73
3 17 16 15
3 19 21 17
3 50 34 19
3 87 86 50
3 91 89 87
3 95 93 91
3 99 97 95
3 103 101 99
3 43 42 103
3 45 43 103
3 103 99 95
3 95 91 87
3 87 50 19
3 19 17 15
3 15 73 78
3 78 52 112
3 112 3 123
3 123 62 5
3 5 58 120
3 120 114 117
3 117 119 66
3 66 69 104
3 104 107 8
3 8 11 64
3 64 30 33
3 33 108 29
3 29 28 74
3 74 77 111
3 111 125 22
3 22 25 126
3 126 127 128
3 128 129 130
3 130 131 132
3 130 132 133
3 126 128 130
3 111 22 126
3 29 74 111
3 64 33 29
3 104 8 64
3 117 66 104
3 5 120 117
3 112 123 5
3 15 78 112
3 87 19 15
3 103 95 87
3 49 45 103
3 46 49 103
3 103 87 15
3 15 112 5
3 5 117 104
3 104 64 29
3 29 111 126
3 126 130 133
3 126 133 134
3 104 29 126
3 15 5 104
3 46 103 15
3 38 46 15
3 104 126 134
3 104 134 135
3 38 15 104
3 39 38 104
3 104 135 136
3 104 136 39
3 137 36 39
3 137 39 136
3 86 85 51
3 86 51 50
3 125 138 23
3 125 23 22
3 69 68 105
3 69 105 104
3 139 140 141
3 141 142 143
3 143 144 145
3 145 146 24
3 24 23 138
3 138 110 76
3 76 75 27
3 27 26 109
3 109 32 31
3 31 65 10
3 10 9 106
3 106 105 68
3 68 67 147
3 147 148 149
3 149 150 151
3 152 153 154
3 149 151 152
3 68 147 149
3 10 106 68
3 109 31 10
3 76 27 109
3 24 138 76
3 143 145 24
3 139 141 143
3 139 143 24
3 24 76 109
3 109 10 68
3 68 149 152
3 152 154 155
3 155 57 56
3 56 4 7
3 7 63 156
3 156 157 60
3 60 2 1
3 1 113 54
3 54 53 83
3 83 81 80
3 80 72 71
3 71 14 13
3 13 12 18
3 18 20 35
3 35 51 85
3 85 84 88
3 88 90 92
3 92 94 96
3 96 98 100
3 100 102 41
3 100 41 40
3 92 96 100
3 85 88 92
3 18 35 85
3 71 13 18
3 83 80 71
3 1 54 83
3 156 60 1
3 56 7 156
3 152 155 56
3 109 68 152
3 139 24 109
3 158 139 109
3 109 152 56
3 56 156 1
3 1 83 71
3 71 18 85
3 85 92 100
3 100 40 44
3 100 44 48
3 71 85 100
3 56 1 71
3 158 109 56
3 159 158 56
3 56 71 100
3 100 48 47
3 100 47 37
3 137 159 56
3 36 137 56
3 56 100 37
3 56 37 36
3 144 143 129
3 144 129 128
3 145 144 128
3 145 128 127
3 25 24 146
3 146 145 127
3 126 25 146
3 127 126 146
3 55 54 113
3 55 113 112
3 124 156 63
3 124 63 62
3 111 110 138
3 111 138 125
3 61 60 157
3 61 157 123
3 122 155 154
3 122 154 120
3 15 14 71
3 15 71 70
3 119 147 67
3 119 67 66
3 106 9 8
3 106 8 107
3 28 27 75
3 28 75 74
3 159 137 136
3 159 136 135
3 158 159 135
3 158 135 134
3 139 158 134
3 139 134 133
3 140 139 133
3 140 133 132
3 141 140 132
3 141 132 131
3 129 143 142
3 142 141 131
3 130 129 142
3 131 130 142
3 150 149 148
3 148 147 119
3 148 119 118
3 150 148 118
3 150 118 117
3 153 152 151
3 151 150 117
3 151 117 116
3 120 154 153
3 153 151 116
3 153 116 115
3 121 120 153
3 153 115 114
3 114 121 153
3 123 157 156
3 123 156 124
3 155 122 58
3 155 58 57
