ply
format ascii 1.0
comment Created by Blender 3.6.8 - www.blender.org
element vertex 192
property float x
property float y
property float z
element face 368
property list uchar uint vertex_indices
end_header
0.000929 0.000547 0.000000
0.001236 0.000364 0.000000
0.001236 0.000364 0.150000
0.000929 0.000547 0.150000
0.008462 0.007582 0.150000
0.008462 0.007582 0.000000
0.008256 0.007874 0.000000
0.008256 0.007874 0.150000
0.008772 0.006924 0.000000
0.008631 0.007266 0.000000
0.008631 0.007266 0.150000
0.008772 0.006924 0.150000
0.005498 0.008737 0.150000
0.005498 0.008737 0.000000
0.005406 0.008680 0.000000
0.005406 0.008680 0.150000
0.007500 0.002388 0.000000
0.007791 0.002687 0.000000
0.007919 0.002821 0.000000
0.008038 0.002953 0.000000
0.008147 0.003089 0.000000
0.008147 0.003089 0.150000
0.008038 0.002953 0.150000
0.007919 0.002821 0.150000
0.007334 0.002210 0.000000
0.007791 0.002687 0.150000
0.007500 0.002388 0.150000
0.007334 0.002210 0.150000
0.006838 0.001645 0.000000
0.006981 0.001805 0.000000
0.007153 0.002004 0.000000
0.007153 0.002004 0.150000
0.006719 0.001518 0.000000
0.006532 0.001334 0.000000
0.006619 0.001417 0.000000
0.006295 0.001125 0.000000
0.006453 0.001262 0.000000
0.006981 0.001805 0.150000
0.006205 0.001046 0.000000
0.006838 0.001645 0.150000
0.006102 0.000949 0.000000
0.006719 0.001518 0.150000
0.005662 0.000523 0.000000
0.005831 0.000678 0.000000
0.005979 0.000829 0.000000
0.006619 0.001417 0.150000
0.005662 0.000523 0.150000
0.005831 0.000678 0.150000
0.006532 0.001334 0.150000
0.006453 0.001262 0.150000
0.005979 0.000829 0.150000
0.006102 0.000949 0.150000
0.006295 0.001125 0.150000
0.006205 0.001046 0.150000
0.008249 0.003234 0.000000
0.008249 0.003234 0.150000
0.000559 0.000850 0.150000
0.000559 0.000850 0.000000
0.000670 0.000742 0.000000
0.000670 0.000742 0.150000
0.000221 0.003042 0.000000
0.000048 0.002680 0.000000
0.000048 0.002680 0.150000
0.000221 0.003042 0.150000
0.004645 0.000107 0.000000
0.005086 0.000214 0.000000
0.005086 0.000214 0.150000
0.004645 0.000107 0.150000
0.000074 0.002048 0.000000
0.000004 0.002417 0.000000
0.000007 0.002533 0.000000
0.000339 0.003243 0.000000
0.000469 0.003446 0.000000
0.000604 0.003644 0.000000
0.000863 0.003999 0.000000
0.001063 0.004249 0.000000
0.001124 0.004316 0.000000
0.002846 0.005709 0.000000
0.000144 0.001742 0.000000
0.000106 0.001899 0.000000
0.000304 0.001265 0.000000
0.000189 0.001582 0.000000
0.000462 0.000976 0.000000
0.000377 0.001116 0.000000
0.001800 0.000140 0.000000
0.001598 0.000206 0.000000
0.002772 0.000001 0.000000
0.002252 0.000043 0.000000
0.004407 0.000074 0.000000
0.004159 0.000051 0.000000
0.005482 0.000396 0.000000
0.005290 0.000294 0.000000
0.002996 0.005857 0.000000
0.003252 0.006132 0.000000
0.003489 0.006406 0.000000
0.004889 0.008166 0.000000
0.005016 0.008310 0.000000
0.005075 0.008372 0.000000
0.005133 0.008432 0.000000
0.005193 0.008490 0.000000
0.005256 0.008551 0.000000
0.005326 0.008616 0.000000
0.005710 0.008831 0.000000
0.005937 0.008902 0.000000
0.006476 0.009014 0.000000
0.006536 0.009015 0.000000
0.006617 0.008999 0.000000
0.006717 0.008968 0.000000
0.006961 0.008861 0.000000
0.007552 0.008505 0.000000
0.007856 0.008271 0.000000
0.008135 0.008012 0.000000
0.008834 0.006743 0.000000
0.008894 0.006554 0.000000
0.008951 0.006358 0.000000
0.009007 0.006153 0.000000
0.009052 0.005957 0.000000
0.009078 0.005783 0.000000
0.009085 0.005624 0.000000
0.009076 0.005476 0.000000
0.009052 0.005334 0.000000
0.009014 0.005192 0.000000
0.008965 0.005044 0.000000
0.008906 0.004887 0.000000
0.008839 0.004713 0.000000
0.008765 0.004519 0.000000
0.008687 0.004299 0.000000
0.008605 0.004047 0.000000
0.008521 0.003797 0.000000
0.008434 0.003582 0.000000
0.001124 0.004316 0.150000
0.001063 0.004249 0.150000
0.002772 0.000001 0.150000
0.002252 0.000043 0.150000
0.001800 0.000140 0.150000
0.001598 0.000206 0.150000
0.004159 0.000051 0.150000
0.004407 0.000074 0.150000
0.005290 0.000294 0.150000
0.005482 0.000396 0.150000
0.000462 0.000976 0.150000
0.000304 0.001265 0.150000
0.000377 0.001116 0.150000
0.000144 0.001742 0.150000
0.000189 0.001582 0.150000
0.000074 0.002048 0.150000
0.000106 0.001899 0.150000
0.000007 0.002533 0.150000
0.000004 0.002417 0.150000
0.000469 0.003446 0.150000
0.000339 0.003243 0.150000
0.000863 0.003999 0.150000
0.000604 0.003644 0.150000
0.002846 0.005709 0.150000
0.002996 0.005857 0.150000
0.003252 0.006132 0.150000
0.005016 0.008310 0.150000
0.004889 0.008166 0.150000
0.003489 0.006406 0.150000
0.008434 0.003582 0.150000
0.008521 0.003797 0.150000
0.008605 0.004047 0.150000
0.008687 0.004299 0.150000
0.005133 0.008432 0.150000
0.005075 0.008372 0.150000
0.005256 0.008551 0.150000
0.005193 0.008490 0.150000
0.005326 0.008616 0.150000
0.005710 0.008831 0.150000
0.006476 0.009014 0.150000
0.005937 0.008902 0.150000
0.006617 0.008999 0.150000
0.006536 0.009015 0.150000
0.006961 0.008861 0.150000
0.006717 0.008968 0.150000
0.007856 0.008271 0.150000
0.007552 0.008505 0.150000
0.008135 0.008012 0.150000
0.008834 0.006743 0.150000
0.008951 0.006358 0.150000
0.008894 0.006554 0.150000
0.009052 0.005957 0.150000
0.009007 0.006153 0.150000
0.009085 0.005624 0.150000
0.009078 0.005783 0.150000
0.009052 0.005334 0.150000
0.009076 0.005476 0.150000
0.008965 0.005044 0.150000
0.009014 0.005192 0.150000
0.008839 0.004713 0.150000
0.008906 0.004887 0.150000
0.008765 0.004519 0.150000
3 0 1 2
3 0 2 3
3 4 5 6
3 4 6 7
3 8 9 10
3 8 10 11
3 12 13 14
3 12 14 15
3 16 17 18
3 18 19 20
3 20 21 22
3 20 22 23
3 16 18 20
3 24 16 20
3 20 23 25
3 20 25 26
3 24 20 26
3 24 26 27
3 28 29 30
3 30 24 27
3 30 27 31
3 32 28 30
3 33 34 32
3 35 36 33
3 35 33 32
3 32 30 31
3 32 31 37
3 38 35 32
3 38 32 37
3 38 37 39
3 40 38 39
3 40 39 41
3 42 43 44
3 44 40 41
3 44 41 45
3 46 42 44
3 47 46 44
3 44 45 48
3 44 48 49
3 50 47 44
3 51 50 44
3 44 49 52
3 53 51 44
3 52 53 44
3 21 20 54
3 21 54 55
3 56 57 58
3 56 58 59
3 60 61 62
3 60 62 63
3 64 65 66
3 64 66 67
3 68 69 70
3 70 61 60
3 60 71 72
3 72 73 74
3 74 75 76
3 74 76 77
3 60 72 74
3 68 70 60
3 78 79 68
3 80 81 78
3 82 83 80
3 58 57 82
3 1 0 58
3 84 85 1
3 86 87 84
3 88 89 86
3 65 64 88
3 90 91 65
3 43 42 90
3 44 43 90
3 90 65 88
3 88 86 84
3 84 1 58
3 58 82 80
3 80 78 68
3 68 60 74
3 68 74 77
3 58 80 68
3 88 84 58
3 44 90 88
3 40 44 88
3 88 58 68
3 68 77 92
3 68 92 93
3 40 88 68
3 38 40 68
3 68 93 94
3 94 95 96
3 96 97 98
3 98 99 100
3 100 101 14
3 14 13 102
3 102 103 104
3 104 105 106
3 106 107 108
3 108 109 110
3 110 111 6
3 6 5 9
3 9 8 112
3 112 113 114
3 114 115 116
3 116 117 118
3 118 119 120
3 120 121 122
3 122 123 124
3 120 122 124
3 116 118 120
3 112 114 116
3 6 9 112
3 108 110 6
3 104 106 108
3 14 102 104
3 98 100 14
3 94 96 98
3 38 68 94
3 35 38 94
3 94 98 14
3 14 104 108
3 108 6 112
3 112 116 120
3 120 124 125
3 126 127 128
3 120 125 126
3 108 112 120
3 94 14 108
3 33 35 94
3 29 28 32
3 30 29 32
3 32 33 94
3 94 108 120
3 126 128 129
3 94 120 126
3 30 32 94
3 24 30 94
3 94 126 129
3 129 54 20
3 16 24 94
3 94 129 20
3 94 20 16
3 130 76 75
3 130 75 131
3 10 9 5
3 10 5 4
3 87 86 132
3 87 132 133
3 87 133 134
3 87 134 84
3 56 59 3
3 3 2 135
3 135 134 133
3 133 132 136
3 136 137 67
3 67 66 138
3 138 139 46
3 46 47 50
3 46 50 51
3 67 138 46
3 133 136 67
3 3 135 133
3 140 56 3
3 141 142 140
3 143 144 141
3 145 146 143
3 147 148 145
3 63 62 147
3 149 150 63
3 151 152 149
3 130 131 151
3 153 130 151
3 151 149 63
3 63 147 145
3 145 143 141
3 141 140 3
3 3 133 67
3 67 46 51
3 67 51 53
3 141 3 67
3 63 145 141
3 153 151 63
3 154 153 63
3 63 141 67
3 67 53 52
3 52 49 48
3 48 45 41
3 41 39 37
3 41 37 31
3 52 48 41
3 63 67 52
3 154 63 52
3 52 41 31
3 52 31 27
3 155 154 52
3 156 157 158
3 158 155 52
3 52 27 26
3 26 25 23
3 23 22 21
3 21 55 159
3 159 160 161
3 159 161 162
3 23 21 159
3 158 52 26
3 26 23 159
3 26 159 162
3 156 158 26
3 163 164 156
3 165 166 163
3 15 167 165
3 168 12 15
3 169 170 168
3 171 172 169
3 173 174 171
3 175 176 173
3 7 177 175
3 10 4 7
3 178 11 10
3 179 180 178
3 181 182 179
3 183 184 181
3 185 186 183
3 187 188 185
3 189 190 187
3 26 162 191
3 189 187 185
3 26 191 189
3 163 156 26
3 15 165 163
3 169 168 15
3 173 171 169
3 7 175 173
3 178 10 7
3 181 179 178
3 185 183 181
3 26 189 185
3 15 163 26
3 173 169 15
3 178 7 173
3 185 181 178
3 15 26 185
3 178 173 15
3 185 178 15
3 98 97 164
3 98 164 163
3 99 98 163
3 99 163 166
3 167 101 100
3 100 99 166
3 165 167 100
3 166 165 100
3 2 1 85
3 2 85 135
3 66 65 91
3 66 91 138
3 88 64 67
3 88 67 137
3 132 86 88
3 88 137 136
3 88 136 132
3 109 108 173
3 109 173 176
3 172 105 104
3 172 104 169
3 59 58 0
3 59 0 3
3 104 103 170
3 104 170 169
3 184 117 116
3 184 116 181
3 15 14 101
3 15 101 167
3 144 81 80
3 144 80 141
3 107 174 173
3 107 173 108
3 183 118 117
3 183 117 184
3 142 83 82
3 142 82 140
3 188 121 120
3 188 120 185
3 147 70 69
3 147 69 148
3 186 119 118
3 186 118 183
3 55 54 129
3 55 129 159
3 138 91 90
3 138 90 139
3 122 121 188
3 122 188 187
3 124 122 187
3 124 187 190
3 125 124 190
3 125 190 189
3 126 125 189
3 126 189 191
3 160 159 129
3 161 160 129
3 129 126 191
3 162 161 129
3 191 162 129
3 7 6 111
3 7 111 177
3 177 111 110
3 177 110 175
3 171 106 105
3 171 105 172
3 93 92 154
3 93 154 155
3 94 93 155
3 94 155 158
3 95 94 158
3 95 158 157
3 164 97 96
3 96 95 157
3 156 164 96
3 157 156 96
3 62 61 70
3 62 70 147
3 175 110 109
3 175 109 176
3 78 81 144
3 78 144 143
3 79 78 143
3 79 143 146
3 148 69 68
3 68 79 146
3 145 148 68
3 146 145 68
3 139 90 42
3 139 42 46
3 154 92 77
3 154 77 153
3 170 103 102
3 170 102 168
3 140 82 57
3 140 57 56
3 141 80 83
3 141 83 142
3 77 76 130
3 77 130 153
3 168 102 13
3 168 13 12
3 174 107 106
3 174 106 171
3 60 63 150
3 60 150 149
3 131 75 74
3 151 131 74
3 74 60 149
3 152 151 74
3 149 152 74
3 185 120 119
3 185 119 186
3 135 85 84
3 135 84 134
3 112 8 11
3 112 11 178
3 113 112 178
3 113 178 180
3 114 113 180
3 114 180 179
3 181 116 115
3 115 114 179
3 182 181 115
3 179 182 115
