ply
format ascii 1.0
comment Created by Blender 3.6.8 - www.blender.org
element vertex 254
property float x
property float y
property float z
element face 493
property list uchar uint vertex_indices
end_header
0.006716 0.002470 0.150000
0.006716 0.002470 0.000000
0.006698 0.002587 0.000000
0.006698 0.002587 0.150000
0.003735 0.007496 0.000000
0.003980 0.007346 0.000000
0.004050 0.007285 0.000000
0.004115 0.007208 0.000000
0.004227 0.007022 0.000000
0.004315 0.006820 0.000000
0.004350 0.006724 0.000000
0.004379 0.006636 0.000000
0.004402 0.006560 0.000000
0.004418 0.006501 0.000000
0.004431 0.006449 0.000000
0.005804 0.004688 0.000000
0.005822 0.004651 0.000000
0.005871 0.004548 0.000000
0.005946 0.004391 0.000000
0.006040 0.004191 0.000000
0.006147 0.003961 0.000000
0.006260 0.003711 0.000000
0.006373 0.003454 0.000000
0.006479 0.003202 0.000000
0.006573 0.002965 0.000000
0.006648 0.002756 0.000000
0.006708 0.002316 0.000000
0.006685 0.002197 0.000000
0.006648 0.002096 0.000000
0.006625 0.002048 0.000000
0.006597 0.001997 0.000000
0.006534 0.001884 0.000000
0.003553 0.007587 0.000000
0.003365 0.007666 0.000000
0.003460 0.007628 0.000000
0.003000 0.007769 0.000000
0.003178 0.007728 0.000000
0.002574 0.007815 0.000000
0.002917 0.007781 0.000000
0.002466 0.007824 0.000000
0.002518 0.007820 0.000000
0.002370 0.007830 0.000000
0.002417 0.007828 0.000000
0.002285 0.007831 0.000000
0.002326 0.007831 0.000000
0.002126 0.007810 0.000000
0.002245 0.007830 0.000000
0.001948 0.007767 0.000000
0.002042 0.007791 0.000000
0.001746 0.007711 0.000000
0.001848 0.007740 0.000000
0.001558 0.007656 0.000000
0.001648 0.007683 0.000000
0.001418 0.007614 0.000000
0.001480 0.007633 0.000000
0.001364 0.007597 0.000000
0.001378 0.007602 0.000000
0.001118 0.007284 0.000000
0.001294 0.007511 0.000000
0.000880 0.006964 0.000000
0.001004 0.007133 0.000000
0.000629 0.006599 0.000000
0.000754 0.006784 0.000000
0.000329 0.006069 0.000000
0.000513 0.006414 0.000000
0.000231 0.005790 0.000000
0.000273 0.005922 0.000000
0.000112 0.005438 0.000000
0.000150 0.005549 0.000000
0.000190 0.005666 0.000000
0.000049 0.005226 0.000000
0.000078 0.005330 0.000000
0.000001 0.004917 0.000000
0.000009 0.005021 0.000000
0.000013 0.004702 0.000000
0.000002 0.004811 0.000000
0.000162 0.004178 0.000000
0.000129 0.004270 0.000000
0.000267 0.003929 0.000000
0.000196 0.004091 0.000000
0.000341 0.003777 0.000000
0.000303 0.003852 0.000000
0.000605 0.003282 0.000000
0.000380 0.003702 0.000000
0.006497 0.001817 0.000000
0.006457 0.001740 0.000000
0.006411 0.001661 0.000000
0.006353 0.001586 0.000000
0.006210 0.001448 0.000000
0.006034 0.001320 0.000000
0.005110 0.000773 0.000000
0.004984 0.000711 0.000000
0.004857 0.000653 0.000000
0.004726 0.000598 0.000000
0.004592 0.000545 0.000000
0.003656 0.000201 0.000000
0.003478 0.000140 0.000000
0.003140 0.000054 0.000000
0.002827 0.000011 0.000000
0.002540 0.000000 0.000000
0.002406 0.000003 0.000000
0.002280 0.000011 0.000000
0.002160 0.000021 0.000000
0.002048 0.000033 0.000000
0.001943 0.000045 0.000000
0.001847 0.000060 0.000000
0.001762 0.000082 0.000000
0.001685 0.000111 0.000000
0.001615 0.000146 0.000000
0.001552 0.000188 0.000000
0.001494 0.000236 0.000000
0.001441 0.000291 0.000000
0.001340 0.000419 0.000000
0.001143 0.000742 0.000000
0.001108 0.000824 0.000000
0.001082 0.000904 0.000000
0.001065 0.000981 0.000000
0.001054 0.001058 0.000000
0.001049 0.001136 0.000000
0.001048 0.001214 0.000000
0.001053 0.001566 0.000000
0.001049 0.001668 0.000000
0.000636 0.003221 0.000000
0.001033 0.001872 0.000000
0.000978 0.002245 0.000000
0.000666 0.003161 0.000000
0.000695 0.003100 0.000000
0.000837 0.002752 0.000000
0.000723 0.003038 0.000000
0.002326 0.007831 0.150000
0.002370 0.007830 0.150000
0.002245 0.007830 0.150000
0.002285 0.007831 0.150000
0.001065 0.000981 0.150000
0.001082 0.000904 0.150000
0.001108 0.000824 0.150000
0.001340 0.000419 0.150000
0.001441 0.000291 0.150000
0.006573 0.002965 0.150000
0.006648 0.002756 0.150000
0.006479 0.003202 0.150000
0.006373 0.003454 0.150000
0.006260 0.003711 0.150000
0.006147 0.003961 0.150000
0.006040 0.004191 0.150000
0.005946 0.004391 0.150000
0.005871 0.004548 0.150000
0.005804 0.004688 0.150000
0.005822 0.004651 0.150000
0.004050 0.007285 0.150000
0.003980 0.007346 0.150000
0.001494 0.000236 0.150000
0.006648 0.002096 0.150000
0.006685 0.002197 0.150000
0.006708 0.002316 0.150000
0.004431 0.006449 0.150000
0.004418 0.006501 0.150000
0.004402 0.006560 0.150000
0.004379 0.006636 0.150000
0.004350 0.006724 0.150000
0.004315 0.006820 0.150000
0.004227 0.007022 0.150000
0.004115 0.007208 0.150000
0.003735 0.007496 0.150000
0.003553 0.007587 0.150000
0.003460 0.007628 0.150000
0.003365 0.007666 0.150000
0.003178 0.007728 0.150000
0.003000 0.007769 0.150000
0.002917 0.007781 0.150000
0.002574 0.007815 0.150000
0.002518 0.007820 0.150000
0.002466 0.007824 0.150000
0.002417 0.007828 0.150000
0.002126 0.007810 0.150000
0.002042 0.007791 0.150000
0.001948 0.007767 0.150000
0.001848 0.007740 0.150000
0.001746 0.007711 0.150000
0.001648 0.007683 0.150000
0.001558 0.007656 0.150000
0.001480 0.007633 0.150000
0.001418 0.007614 0.150000
0.001378 0.007602 0.150000
0.001364 0.007597 0.150000
0.001294 0.007511 0.150000
0.001118 0.007284 0.150000
0.001004 0.007133 0.150000
0.000880 0.006964 0.150000
0.000754 0.006784 0.150000
0.000629 0.006599 0.150000
0.000513 0.006414 0.150000
0.000329 0.006069 0.150000
0.000273 0.005922 0.150000
0.000231 0.005790 0.150000
0.000190 0.005666 0.150000
0.000150 0.005549 0.150000
0.000112 0.005438 0.150000
0.000078 0.005330 0.150000
0.000049 0.005226 0.150000
0.000009 0.005021 0.150000
0.000001 0.004917 0.150000
0.000002 0.004811 0.150000
0.000013 0.004702 0.150000
0.000129 0.004270 0.150000
0.000162 0.004178 0.150000
0.000196 0.004091 0.150000
0.000267 0.003929 0.150000
0.000303 0.003852 0.150000
0.000341 0.003777 0.150000
0.000380 0.003702 0.150000
0.000605 0.003282 0.150000
0.006597 0.001997 0.150000
0.006625 0.002048 0.150000
0.006534 0.001884 0.150000
0.000636 0.003221 0.150000
0.006411 0.001661 0.150000
0.006457 0.001740 0.150000
0.006497 0.001817 0.150000
0.000666 0.003161 0.150000
0.006210 0.001448 0.150000
0.006353 0.001586 0.150000
0.005110 0.000773 0.150000
0.006034 0.001320 0.150000
0.004857 0.000653 0.150000
0.004984 0.000711 0.150000
0.004592 0.000545 0.150000
0.004726 0.000598 0.150000
0.003478 0.000140 0.150000
0.003656 0.000201 0.150000
0.002827 0.000011 0.150000
0.003140 0.000054 0.150000
0.002406 0.000003 0.150000
0.002540 0.000000 0.150000
0.002160 0.000021 0.150000
0.002280 0.000011 0.150000
0.001943 0.000045 0.150000
0.002048 0.000033 0.150000
0.001762 0.000082 0.150000
0.001847 0.000060 0.150000
0.001615 0.000146 0.150000
0.001685 0.000111 0.150000
0.001552 0.000188 0.150000
0.001143 0.000742 0.150000
0.001049 0.001136 0.150000
0.001054 0.001058 0.150000
0.001053 0.001566 0.150000
0.001048 0.001214 0.150000
0.000695 0.003100 0.150000
0.000723 0.003038 0.150000
0.000837 0.002752 0.150000
0.001049 0.001668 0.150000
0.000978 0.002245 0.150000
0.001033 0.001872 0.150000
3 0 1 2
3 0 2 3
3 4 5 6
3 6 7 8
3 8 9 10
3 10 11 12
3 12 13 14
3 14 15 16
3 16 17 18
3 18 19 20
3 20 21 22
3 22 23 24
3 24 25 2
3 2 1 26
3 26 27 28
3 28 29 30
3 28 30 31
3 2 26 28
3 22 24 2
3 18 20 22
3 14 16 18
3 10 12 14
3 6 8 10
3 32 4 6
3 33 34 32
3 35 36 33
3 37 38 35
3 39 40 37
3 41 42 39
3 43 44 41
3 45 46 43
3 47 48 45
3 49 50 47
3 51 52 49
3 53 54 51
3 55 56 53
3 57 58 55
3 59 60 57
3 61 62 59
3 63 64 61
3 65 66 63
3 67 68 69
3 69 65 63
3 63 61 59
3 59 57 55
3 55 53 51
3 51 49 47
3 47 45 43
3 43 41 39
3 39 37 35
3 35 33 32
3 32 6 10
3 14 18 22
3 32 10 14
3 39 35 32
3 47 43 39
3 55 51 47
3 63 59 55
3 67 69 63
3 70 71 67
3 72 73 70
3 74 75 72
3 76 77 74
3 78 79 76
3 80 81 78
3 82 83 80
3 82 80 78
3 78 76 74
3 74 72 70
3 70 67 63
3 63 55 47
3 47 39 32
3 32 14 22
3 22 2 28
3 28 31 84
3 84 85 86
3 86 87 88
3 88 89 90
3 90 91 92
3 92 93 94
3 94 95 96
3 96 97 98
3 98 99 100
3 100 101 102
3 102 103 104
3 104 105 106
3 106 107 108
3 108 109 110
3 110 111 112
3 112 113 114
3 114 115 116
3 116 117 118
3 118 119 120
3 116 118 120
3 112 114 116
3 108 110 112
3 104 106 108
3 100 102 104
3 96 98 100
3 92 94 96
3 88 90 92
3 84 86 88
3 22 28 84
3 47 32 22
3 70 63 47
3 78 74 70
3 82 78 70
3 70 47 22
3 22 84 88
3 88 92 96
3 96 100 104
3 104 108 112
3 112 116 120
3 112 120 121
3 96 104 112
3 22 88 96
3 82 70 22
3 122 82 22
3 22 96 112
3 112 121 123
3 112 123 124
3 125 122 22
3 126 125 22
3 22 112 124
3 22 124 127
3 128 126 22
3 22 127 128
3 129 130 41
3 129 41 44
3 46 131 132
3 132 129 44
3 43 46 132
3 44 43 132
3 133 116 115
3 133 115 134
3 134 115 114
3 134 114 135
3 136 112 111
3 136 111 137
3 138 139 25
3 138 25 24
3 140 138 24
3 140 24 23
3 141 140 23
3 141 23 22
3 142 141 22
3 142 22 21
3 143 142 21
3 143 21 20
3 144 143 20
3 144 20 19
3 145 144 19
3 145 19 18
3 146 145 18
3 146 18 17
3 15 147 148
3 148 146 17
3 16 15 148
3 17 16 148
3 149 6 5
3 149 5 150
3 137 111 110
3 137 110 151
3 152 153 154
3 154 0 3
3 3 139 138
3 138 140 141
3 141 142 143
3 143 144 145
3 145 146 148
3 148 147 155
3 155 156 157
3 157 158 159
3 159 160 161
3 161 162 149
3 149 150 163
3 163 164 165
3 165 166 167
3 167 168 169
3 169 170 171
3 171 172 173
3 173 130 129
3 129 132 131
3 131 174 175
3 175 176 177
3 177 178 179
3 179 180 181
3 181 182 183
3 183 184 185
3 185 186 187
3 187 188 189
3 189 190 191
3 191 192 193
3 191 193 194
3 187 189 191
3 183 185 187
3 179 181 183
3 175 177 179
3 129 131 175
3 171 173 129
3 167 169 171
3 163 165 167
3 161 149 163
3 157 159 161
3 145 148 155
3 155 157 161
3 161 163 167
3 167 171 129
3 129 175 179
3 179 183 187
3 187 191 194
3 195 196 197
3 187 194 195
3 129 179 187
3 161 167 129
3 143 145 155
3 155 161 129
3 129 187 195
3 195 197 198
3 198 199 200
3 200 201 202
3 202 203 204
3 204 205 206
3 206 207 208
3 208 209 210
3 208 210 211
3 204 206 208
3 200 202 204
3 195 198 200
3 155 129 195
3 141 143 155
3 3 138 141
3 152 154 3
3 212 213 152
3 214 212 152
3 152 3 141
3 141 155 195
3 195 200 204
3 204 208 211
3 204 211 215
3 141 195 204
3 214 152 141
3 216 217 218
3 218 214 141
3 141 204 215
3 141 215 219
3 216 218 141
3 220 221 216
3 222 223 220
3 224 225 222
3 226 227 224
3 228 229 226
3 230 231 228
3 232 233 230
3 234 235 232
3 236 237 234
3 238 239 236
3 240 241 238
3 151 242 240
3 136 137 151
3 135 243 136
3 133 134 135
3 244 245 133
3 246 247 244
3 246 244 133
3 133 135 136
3 136 151 240
3 240 238 236
3 236 234 232
3 232 230 228
3 228 226 224
3 224 222 220
3 220 216 141
3 141 219 248
3 141 248 249
3 224 220 141
3 232 228 224
3 240 236 232
3 133 136 240
3 246 133 240
3 240 232 224
3 224 141 249
3 224 249 250
3 246 240 224
3 251 246 224
3 224 250 252
3 253 251 224
3 252 253 224
3 167 36 35
3 167 35 168
3 240 108 107
3 240 107 241
3 199 70 73
3 199 73 200
3 220 88 87
3 220 87 221
3 14 155 147
3 14 147 15
3 105 104 103
3 103 102 101
3 101 100 99
3 99 233 232
3 99 232 235
3 103 101 99
3 239 105 103
3 236 239 103
3 103 99 235
3 103 235 234
3 237 236 103
3 103 234 237
3 34 33 166
3 34 166 165
3 163 4 32
3 32 34 165
3 164 163 32
3 165 164 32
3 27 26 154
3 27 154 153
3 161 8 7
3 161 7 162
3 46 45 174
3 46 174 131
3 74 77 204
3 74 204 203
3 70 199 198
3 70 198 197
3 69 67 70
3 65 69 70
3 70 197 196
3 70 196 195
3 63 65 70
3 193 192 63
3 70 195 194
3 194 193 63
3 70 194 63
3 151 110 109
3 151 109 242
3 10 9 160
3 10 160 159
3 11 10 159
3 11 159 158
3 12 11 158
3 12 158 157
3 155 14 13
3 13 12 157
3 156 155 13
3 13 157 156
3 91 90 222
3 91 222 225
3 92 91 225
3 92 225 224
3 93 92 224
3 93 224 227
3 94 93 227
3 94 227 226
3 228 96 95
3 95 94 226
3 229 228 95
3 226 229 95
3 201 72 75
3 201 75 202
3 98 230 233
3 98 233 99
3 175 174 45
3 55 184 183
3 55 183 182
3 175 45 47
3 176 175 47
3 55 182 181
3 55 181 180
3 176 47 55
3 177 176 55
3 55 180 179
3 178 177 55
3 55 179 178
3 97 231 230
3 97 230 98
3 200 73 72
3 200 72 201
3 126 128 249
3 126 249 248
3 125 126 248
3 125 248 219
3 122 125 219
3 122 219 215
3 82 122 215
3 82 215 211
3 83 82 211
3 83 211 210
3 80 83 210
3 80 210 209
3 207 78 81
3 81 80 209
3 208 207 81
3 209 208 81
3 61 64 191
3 61 191 190
3 62 61 190
3 62 190 189
3 59 62 189
3 59 189 188
3 60 59 188
3 60 188 187
3 57 60 187
3 57 187 186
3 184 55 58
3 58 57 186
3 185 184 58
3 186 185 58
3 84 31 30
3 29 28 152
3 85 84 30
3 30 29 152
3 30 152 213
3 216 86 85
3 85 30 213
3 85 213 212
3 217 216 85
3 218 217 85
3 85 212 214
3 214 218 85
3 135 114 113
3 135 113 243
3 242 109 108
3 242 108 240
3 166 33 36
3 166 36 167
3 9 8 161
3 9 161 160
3 1 0 154
3 1 154 26
3 5 4 163
3 5 163 150
3 27 153 152
3 27 152 28
3 241 107 106
3 241 106 238
3 251 253 123
3 123 121 120
3 123 120 119
3 246 251 123
3 247 246 123
3 123 119 118
3 117 116 133
3 247 123 118
3 118 117 133
3 118 133 245
3 244 247 118
3 118 245 244
3 221 87 86
3 221 86 216
3 202 75 74
3 202 74 203
3 223 89 88
3 223 88 220
3 64 63 192
3 64 192 191
3 238 106 105
3 238 105 239
3 162 7 6
3 162 6 149
3 42 41 130
3 42 130 173
3 39 42 173
3 39 173 172
3 40 39 172
3 40 172 171
3 37 40 171
3 37 171 170
3 168 35 38
3 38 37 170
3 169 168 38
3 170 169 38
3 252 124 123
3 252 123 253
3 113 112 136
3 113 136 243
3 231 97 96
3 231 96 228
3 205 204 77
3 205 77 76
3 78 207 206
3 206 205 76
3 79 78 206
3 76 79 206
3 128 127 250
3 128 250 249
3 3 2 25
3 3 25 139
3 90 89 223
3 90 223 222
3 127 124 252
3 127 252 250
