ply
format ascii 1.0
comment Created by Blender 3.6.8 - www.blender.org
element vertex 160
property float x
property float y
property float z
element face 314
property list uchar uint vertex_indices
end_header
0.010940 0.000109 0.000000
0.011106 0.000064 0.000000
0.011106 0.000064 0.150000
0.010940 0.000109 0.150000
0.010766 0.000163 0.000000
0.010766 0.000163 0.150000
0.009571 0.000560 0.150000
0.009571 0.000560 0.000000
0.009765 0.000487 0.000000
0.009765 0.000487 0.150000
0.013375 0.002541 0.150000
0.013375 0.002541 0.000000
0.013340 0.002796 0.000000
0.013340 0.002796 0.150000
0.000032 0.009042 0.150000
0.000032 0.009042 0.000000
0.000009 0.008966 0.000000
0.000009 0.008966 0.150000
0.000169 0.009189 0.150000
0.000169 0.009189 0.000000
0.000113 0.009151 0.000000
0.000113 0.009151 0.150000
0.011416 0.000008 0.000000
0.011416 0.000008 0.150000
0.011869 0.005421 0.150000
0.011869 0.005421 0.000000
0.011468 0.005759 0.000000
0.011468 0.005759 0.150000
0.011562 0.000000 0.150000
0.011562 0.000000 0.000000
0.011703 0.000009 0.000000
0.011703 0.000009 0.150000
0.013274 0.003063 0.000000
0.013274 0.003063 0.150000
0.011840 0.000037 0.000000
0.012673 0.000311 0.000000
0.012673 0.000311 0.150000
0.011840 0.000037 0.150000
0.013139 0.001043 0.000000
0.013244 0.001420 0.000000
0.013295 0.001624 0.000000
0.013295 0.001624 0.150000
0.013244 0.001420 0.150000
0.013139 0.001043 0.150000
0.013050 0.000715 0.000000
0.013095 0.000868 0.000000
0.013095 0.000868 0.150000
0.013050 0.000715 0.150000
0.009218 0.000723 0.150000
0.009218 0.000723 0.000000
0.001932 0.009131 0.150000
0.001256 0.009341 0.150000
0.001146 0.009371 0.150000
0.001043 0.009394 0.150000
0.000947 0.009408 0.150000
0.000855 0.009413 0.150000
0.000769 0.009407 0.150000
0.000686 0.009388 0.150000
0.000608 0.009357 0.150000
0.000529 0.009322 0.150000
0.000451 0.009294 0.150000
0.000375 0.009269 0.150000
0.000301 0.009245 0.150000
0.000232 0.009219 0.150000
0.000067 0.009103 0.150000
0.000000 0.008871 0.150000
0.000007 0.008754 0.150000
0.000044 0.008508 0.150000
0.000153 0.008069 0.150000
0.000354 0.007486 0.150000
0.000629 0.006518 0.150000
0.001575 0.005344 0.150000
0.002263 0.004603 0.150000
0.002712 0.004167 0.150000
0.002827 0.004065 0.150000
0.003044 0.003898 0.150000
0.003163 0.003823 0.150000
0.007442 0.001842 0.150000
0.002090 0.009087 0.150000
0.006056 0.008178 0.150000
0.005573 0.008303 0.150000
0.002245 0.009047 0.150000
0.007238 0.007799 0.150000
0.006518 0.008043 0.150000
0.008611 0.007243 0.150000
0.007774 0.007595 0.150000
0.009762 0.006700 0.150000
0.009181 0.006981 0.150000
0.010945 0.006085 0.150000
0.010350 0.006401 0.150000
0.012325 0.004856 0.150000
0.012186 0.005055 0.150000
0.012591 0.004418 0.150000
0.012459 0.004645 0.150000
0.013172 0.003340 0.150000
0.013028 0.003629 0.150000
0.013383 0.002296 0.150000
0.013369 0.002061 0.150000
0.012927 0.000493 0.150000
0.012994 0.000591 0.150000
0.012767 0.000357 0.150000
0.012852 0.000416 0.150000
0.009051 0.000815 0.150000
0.007689 0.001691 0.150000
0.008885 0.000913 0.150000
0.013369 0.002061 0.000000
0.013383 0.002296 0.000000
0.013028 0.003629 0.000000
0.013172 0.003340 0.000000
0.012459 0.004645 0.000000
0.012591 0.004418 0.000000
0.012186 0.005055 0.000000
0.012325 0.004856 0.000000
0.010350 0.006401 0.000000
0.010945 0.006085 0.000000
0.009181 0.006981 0.000000
0.009762 0.006700 0.000000
0.007774 0.007595 0.000000
0.008611 0.007243 0.000000
0.006518 0.008043 0.000000
0.007238 0.007799 0.000000
0.005573 0.008303 0.000000
0.006056 0.008178 0.000000
0.002245 0.009047 0.000000
0.012994 0.000591 0.000000
0.012927 0.000493 0.000000
0.012852 0.000416 0.000000
0.012767 0.000357 0.000000
0.009051 0.000815 0.000000
0.008885 0.000913 0.000000
0.007689 0.001691 0.000000
0.007442 0.001842 0.000000
0.003163 0.003823 0.000000
0.003044 0.003898 0.000000
0.002827 0.004065 0.000000
0.002090 0.009087 0.000000
0.002712 0.004167 0.000000
0.001932 0.009131 0.000000
0.001146 0.009371 0.000000
0.001256 0.009341 0.000000
0.000947 0.009408 0.000000
0.001043 0.009394 0.000000
0.000769 0.009407 0.000000
0.000855 0.009413 0.000000
0.000608 0.009357 0.000000
0.000686 0.009388 0.000000
0.000529 0.009322 0.000000
0.000451 0.009294 0.000000
0.000301 0.009245 0.000000
0.000375 0.009269 0.000000
0.000232 0.009219 0.000000
0.000067 0.009103 0.000000
0.000007 0.008754 0.000000
0.000000 0.008871 0.000000
0.000153 0.008069 0.000000
0.000044 0.008508 0.000000
0.001575 0.005344 0.000000
0.000629 0.006518 0.000000
0.000354 0.007486 0.000000
0.002263 0.004603 0.000000
3 0 1 2
3 0 2 3
3 4 0 3
3 4 3 5
3 6 7 8
3 8 4 5
3 9 6 8
3 5 9 8
3 10 11 12
3 10 12 13
3 14 15 16
3 14 16 17
3 18 19 20
3 18 20 21
3 2 1 22
3 2 22 23
3 24 25 26
3 24 26 27
3 28 29 30
3 28 30 31
3 13 12 32
3 13 32 33
3 34 35 36
3 34 36 37
3 38 39 40
3 40 41 42
3 40 42 43
3 44 45 38
3 38 40 43
3 46 47 44
3 38 43 46
3 38 46 44
3 48 49 7
3 48 7 6
3 50 51 52
3 52 53 54
3 54 55 56
3 56 57 58
3 56 58 59
3 52 54 56
3 50 52 56
3 56 59 60
3 60 61 62
3 62 63 18
3 18 21 64
3 64 14 17
3 17 65 66
3 66 67 68
3 69 70 71
3 66 68 69
3 64 17 66
3 62 18 64
3 50 56 60
3 60 62 64
3 64 66 69
3 69 71 72
3 72 73 74
3 74 75 76
3 74 76 77
3 69 72 74
3 60 64 69
3 78 50 60
3 79 80 81
3 81 78 60
3 60 69 74
3 60 74 77
3 79 81 60
3 82 83 79
3 84 85 82
3 86 87 84
3 88 89 86
3 24 27 88
3 90 91 24
3 92 93 90
3 94 95 92
3 13 33 94
3 96 10 13
3 41 97 96
3 43 42 41
3 47 46 43
3 98 99 47
3 100 101 98
3 37 36 100
3 28 31 37
3 2 23 28
3 5 3 2
3 6 9 5
3 102 48 6
3 103 104 102
3 60 77 103
3 82 79 60
3 86 84 82
3 24 88 86
3 92 90 24
3 13 94 92
3 41 96 13
3 47 43 41
3 100 98 47
3 28 37 100
3 5 2 28
3 102 6 5
3 60 103 102
3 86 82 60
3 92 24 86
3 41 13 92
3 100 47 41
3 5 28 100
3 60 102 5
3 92 86 60
3 100 41 92
3 60 5 100
3 60 100 92
3 105 40 39
3 105 39 38
3 11 106 105
3 32 12 11
3 107 108 32
3 109 110 107
3 111 112 109
3 26 25 111
3 113 114 26
3 115 116 113
3 117 118 115
3 119 120 117
3 121 122 119
3 123 121 119
3 119 117 115
3 115 113 26
3 26 111 109
3 109 107 32
3 32 11 105
3 105 38 44
3 44 124 125
3 125 126 127
3 127 35 34
3 34 30 29
3 29 22 1
3 1 0 4
3 4 8 7
3 7 49 128
3 128 129 130
3 131 132 133
3 7 128 130
3 131 133 134
3 7 130 131
3 1 4 7
3 34 29 1
3 125 127 34
3 105 44 125
3 109 32 105
3 115 26 109
3 123 119 115
3 135 123 115
3 115 109 105
3 105 125 34
3 34 1 7
3 131 134 136
3 34 7 131
3 115 105 34
3 137 135 115
3 138 139 137
3 140 141 138
3 142 143 140
3 144 145 142
3 146 144 142
3 142 140 138
3 137 115 34
3 142 138 137
3 147 146 142
3 148 149 147
3 19 150 148
3 151 20 19
3 16 15 151
3 152 153 16
3 154 155 152
3 156 157 158
3 158 154 152
3 152 16 151
3 151 19 148
3 147 142 137
3 151 148 147
3 158 152 151
3 159 156 158
3 131 136 159
3 137 34 131
3 151 147 137
3 159 158 151
3 137 131 159
3 159 151 137
3 132 131 77
3 132 77 76
3 128 49 48
3 128 48 102
3 131 130 129
3 129 128 102
3 129 102 104
3 77 131 129
3 129 104 103
3 103 77 129
3 21 20 151
3 21 151 64
3 105 97 41
3 105 41 40
3 25 24 91
3 25 91 111
3 96 106 11
3 96 11 10
3 64 151 15
3 64 15 14
3 136 134 74
3 136 74 73
3 71 156 159
3 159 136 73
3 72 71 159
3 159 73 72
3 65 153 152
3 65 152 66
3 100 127 126
3 100 126 101
3 23 22 29
3 23 29 28
3 145 144 146
3 57 145 146
3 147 148 150
3 57 146 147
3 58 57 147
3 147 150 63
3 147 63 62
3 59 58 147
3 60 59 147
3 147 62 61
3 147 61 60
3 101 126 125
3 101 125 98
3 53 141 140
3 53 140 54
3 112 111 91
3 112 91 90
3 109 112 90
3 109 90 93
3 110 109 93
3 110 93 92
3 94 108 107
3 107 110 92
3 95 94 107
3 92 95 107
3 84 118 117
3 120 119 83
3 84 117 120
3 85 84 120
3 120 83 82
3 120 82 85
3 157 156 71
3 157 71 70
3 56 142 145
3 56 145 57
3 31 30 34
3 31 34 37
3 63 150 19
3 63 19 18
3 33 32 108
3 33 108 94
3 17 16 153
3 17 153 65
3 55 143 142
3 55 142 56
3 36 35 127
3 36 127 100
3 26 114 88
3 26 88 27
3 79 83 119
3 79 119 122
3 80 79 122
3 80 122 121
3 81 80 121
3 81 121 123
3 78 81 123
3 78 123 135
3 50 78 135
3 50 135 137
3 51 50 137
3 51 137 139
3 141 53 52
3 52 51 139
3 138 141 52
3 139 138 52
3 116 115 118
3 118 84 87
3 118 87 86
3 113 116 118
3 88 114 113
3 118 86 89
3 89 88 113
3 118 89 113
3 54 140 143
3 54 143 55
3 75 133 132
3 75 132 76
3 99 124 44
3 99 44 47
3 97 105 106
3 97 106 96
3 133 75 74
3 133 74 134
3 98 125 124
3 98 124 99
3 152 155 67
3 152 67 66
3 154 158 157
3 157 70 69
3 68 67 155
3 157 69 68
3 68 155 154
3 154 157 68
