ply
format ascii 1.0
comment Created by Blender 3.6.8 - www.blender.org
element vertex 164
property float x
property float y
property float z
element face 324
property list uchar uint vertex_indices
end_header
0.005991 0.000001 0.150000
0.005991 0.000001 0.000000
0.006150 0.000003 0.000000
0.006150 0.000003 0.150000
0.002650 0.009595 0.000000
0.001779 0.008973 0.000000
0.001779 0.008973 0.150000
0.002650 0.009595 0.150000
0.009309 0.008590 0.150000
0.009309 0.008590 0.000000
0.009193 0.008707 0.000000
0.009193 0.008707 0.150000
0.006878 0.009867 0.000000
0.006563 0.009914 0.000000
0.006563 0.009914 0.150000
0.006878 0.009867 0.150000
0.007162 0.009814 0.000000
0.007162 0.009814 0.150000
0.007501 0.009735 0.150000
0.007501 0.009735 0.000000
0.007402 0.009761 0.000000
0.007402 0.009761 0.150000
0.007077 0.000154 0.000000
0.007077 0.000154 0.150000
0.003203 0.009790 0.000000
0.002993 0.009751 0.000000
0.002993 0.009751 0.150000
0.003203 0.009790 0.150000
0.010109 0.002611 0.150000
0.010109 0.002611 0.000000
0.010261 0.002989 0.000000
0.010261 0.002989 0.150000
0.007500 0.000307 0.150000
0.007618 0.000364 0.150000
0.007877 0.000499 0.150000
0.008365 0.000725 0.150000
0.008482 0.000782 0.150000
0.008597 0.000845 0.150000
0.008828 0.000997 0.150000
0.008946 0.001091 0.150000
0.009187 0.001328 0.150000
0.009437 0.001615 0.150000
0.009561 0.001767 0.150000
0.009683 0.001925 0.150000
0.009912 0.002257 0.150000
0.010316 0.003186 0.150000
0.010354 0.003388 0.150000
0.010451 0.004022 0.150000
0.010481 0.004241 0.150000
0.010508 0.004462 0.150000
0.010528 0.004687 0.150000
0.010540 0.004915 0.150000
0.010531 0.005378 0.150000
0.010462 0.005852 0.150000
0.010401 0.006092 0.150000
0.010249 0.006580 0.150000
0.010082 0.007066 0.150000
0.009994 0.007303 0.150000
0.009902 0.007531 0.150000
0.009513 0.008314 0.150000
0.008565 0.009186 0.150000
0.007881 0.009580 0.150000
0.007606 0.009701 0.150000
0.005886 0.009963 0.150000
0.003983 0.009868 0.150000
0.003677 0.009818 0.150000
0.002883 0.009715 0.150000
0.002768 0.009664 0.150000
0.001611 0.008825 0.150000
0.001233 0.008422 0.150000
0.000881 0.008084 0.150000
0.000825 0.008023 0.150000
0.000721 0.007886 0.150000
0.000671 0.007804 0.150000
0.000278 0.007064 0.150000
0.000238 0.006980 0.150000
0.000174 0.006818 0.150000
0.000000 0.005979 0.150000
0.000082 0.005812 0.150000
0.000188 0.005603 0.150000
0.000456 0.005087 0.150000
0.000778 0.004492 0.150000
0.000951 0.004184 0.150000
0.001126 0.003877 0.150000
0.001302 0.003581 0.150000
0.001474 0.003302 0.150000
0.002478 0.001974 0.150000
0.003300 0.001165 0.150000
0.003744 0.000836 0.150000
0.003971 0.000701 0.150000
0.004200 0.000589 0.150000
0.005010 0.000243 0.150000
0.005185 0.000176 0.150000
0.005354 0.000119 0.150000
0.005676 0.000035 0.150000
0.007181 0.000184 0.150000
0.007284 0.000218 0.150000
0.007389 0.000259 0.150000
0.000238 0.006980 0.000000
0.000174 0.006818 0.000000
0.005676 0.000035 0.000000
0.005354 0.000119 0.000000
0.008597 0.000845 0.000000
0.008482 0.000782 0.000000
0.008365 0.000725 0.000000
0.007877 0.000499 0.000000
0.007618 0.000364 0.000000
0.007500 0.000307 0.000000
0.008946 0.001091 0.000000
0.008828 0.000997 0.000000
0.009437 0.001615 0.000000
0.009187 0.001328 0.000000
0.009683 0.001925 0.000000
0.009561 0.001767 0.000000
0.009912 0.002257 0.000000
0.010316 0.003186 0.000000
0.010451 0.004022 0.000000
0.010354 0.003388 0.000000
0.010508 0.004462 0.000000
0.010481 0.004241 0.000000
0.010540 0.004915 0.000000
0.010528 0.004687 0.000000
0.010462 0.005852 0.000000
0.010531 0.005378 0.000000
0.010249 0.006580 0.000000
0.010401 0.006092 0.000000
0.009994 0.007303 0.000000
0.010082 0.007066 0.000000
0.009513 0.008314 0.000000
0.009902 0.007531 0.000000
0.007881 0.009580 0.000000
0.008565 0.009186 0.000000
0.007606 0.009701 0.000000
0.003983 0.009868 0.000000
0.005886 0.009963 0.000000
0.003677 0.009818 0.000000
0.007389 0.000259 0.000000
0.007284 0.000218 0.000000
0.007181 0.000184 0.000000
0.005185 0.000176 0.000000
0.005010 0.000243 0.000000
0.004200 0.000589 0.000000
0.003971 0.000701 0.000000
0.003744 0.000836 0.000000
0.003300 0.001165 0.000000
0.002478 0.001974 0.000000
0.001474 0.003302 0.000000
0.001302 0.003581 0.000000
0.001126 0.003877 0.000000
0.000951 0.004184 0.000000
0.000778 0.004492 0.000000
0.000456 0.005087 0.000000
0.000188 0.005603 0.000000
0.000082 0.005812 0.000000
0.000000 0.005979 0.000000
0.000278 0.007064 0.000000
0.000671 0.007804 0.000000
0.000721 0.007886 0.000000
0.000825 0.008023 0.000000
0.000881 0.008084 0.000000
0.001233 0.008422 0.000000
0.001611 0.008825 0.000000
0.002768 0.009664 0.000000
0.002883 0.009715 0.000000
3 0 1 2
3 0 2 3
3 4 5 6
3 4 6 7
3 8 9 10
3 8 10 11
3 12 13 14
3 12 14 15
3 16 12 15
3 16 15 17
3 18 19 20
3 20 16 17
3 21 18 20
3 17 21 20
3 2 22 23
3 2 23 3
3 24 25 26
3 24 26 27
3 28 29 30
3 28 30 31
3 32 33 34
3 34 35 36
3 36 37 38
3 38 39 40
3 40 41 42
3 42 43 44
3 44 28 31
3 31 45 46
3 46 47 48
3 48 49 50
3 50 51 52
3 52 53 54
3 54 55 56
3 56 57 58
3 58 59 8
3 8 11 60
3 60 61 62
3 62 18 21
3 21 17 15
3 15 14 63
3 63 64 65
3 65 27 26
3 26 66 67
3 67 7 6
3 6 68 69
3 69 70 71
3 71 72 73
3 73 74 75
3 75 76 77
3 77 78 79
3 79 80 81
3 81 82 83
3 83 84 85
3 85 86 87
3 87 88 89
3 89 90 91
3 91 92 93
3 93 94 0
3 0 3 23
3 23 95 96
3 96 97 32
3 34 36 38
3 96 32 34
3 0 23 96
3 91 93 0
3 87 89 91
3 83 85 87
3 79 81 83
3 75 77 79
3 71 73 75
3 67 6 69
3 69 71 75
3 75 79 83
3 83 87 91
3 91 0 96
3 96 34 38
3 38 40 42
3 42 44 31
3 31 46 48
3 48 50 52
3 52 54 56
3 56 58 8
3 8 60 62
3 62 21 15
3 15 63 65
3 65 26 67
3 67 69 75
3 75 83 91
3 91 96 38
3 38 42 31
3 31 48 52
3 52 56 8
3 8 62 15
3 15 65 67
3 67 75 91
3 91 38 31
3 31 52 8
3 8 15 67
3 67 91 31
3 31 8 67
3 98 99 76
3 98 76 75
3 100 94 93
3 100 93 101
3 102 103 104
3 105 106 107
3 102 104 105
3 108 109 102
3 110 111 108
3 112 113 110
3 29 114 112
3 115 30 29
3 116 117 115
3 118 119 116
3 120 121 118
3 122 123 120
3 124 125 122
3 126 127 124
3 128 129 126
3 10 9 128
3 130 131 10
3 19 132 130
3 16 20 19
3 13 12 16
3 133 134 13
3 25 24 135
3 135 133 13
3 13 16 19
3 19 130 10
3 10 128 126
3 126 124 122
3 122 120 118
3 118 116 115
3 115 29 112
3 112 110 108
3 108 102 105
3 105 107 136
3 136 137 138
3 138 22 2
3 2 1 100
3 100 101 139
3 139 140 141
3 141 142 143
3 143 144 145
3 145 146 147
3 147 148 149
3 149 150 151
3 151 152 153
3 153 154 99
3 99 98 155
3 155 156 157
3 157 158 159
3 160 161 5
3 157 159 160
3 99 155 157
3 151 153 99
3 147 149 151
3 143 145 147
3 139 141 143
3 2 100 139
3 136 138 2
3 108 105 136
3 115 112 108
3 122 118 115
3 10 126 122
3 13 19 10
3 25 135 13
3 162 163 25
3 5 4 162
3 157 160 5
3 151 99 157
3 143 147 151
3 2 139 143
3 108 136 2
3 122 115 108
3 13 10 122
3 162 25 13
3 157 5 162
3 143 151 157
3 108 2 143
3 13 122 108
3 157 162 13
3 108 143 157
3 157 13 108
3 71 158 157
3 71 157 72
3 88 143 142
3 88 142 89
3 67 162 4
3 67 4 7
3 10 131 60
3 10 60 11
3 99 154 77
3 99 77 76
3 38 109 108
3 38 108 39
3 117 116 119
3 119 118 121
3 121 120 51
3 121 51 50
3 117 119 121
3 45 115 117
3 46 45 117
3 117 121 50
3 117 50 49
3 47 46 117
3 117 49 48
3 48 47 117
3 134 133 64
3 134 64 63
3 95 23 22
3 95 22 138
3 136 97 96
3 96 95 138
3 137 136 96
3 138 137 96
3 62 132 19
3 62 19 18
3 94 100 1
3 94 1 0
3 51 120 123
3 51 123 52
3 26 25 163
3 26 163 66
3 161 160 159
3 159 158 71
3 159 71 70
3 6 5 161
3 161 159 70
3 161 70 69
3 68 6 161
3 161 69 68
3 39 108 111
3 39 111 40
3 66 163 162
3 66 162 67
3 144 143 88
3 144 88 87
3 13 134 63
3 13 63 14
3 106 105 104
3 103 102 37
3 107 106 104
3 104 103 37
3 104 37 36
3 97 136 107
3 107 104 36
3 107 36 35
3 32 97 107
3 33 32 107
3 107 35 34
3 34 33 107
3 145 144 87
3 145 87 86
3 109 38 37
3 109 37 102
3 146 145 86
3 146 86 85
3 114 44 43
3 114 43 112
3 113 112 43
3 113 43 42
3 40 111 110
3 110 113 42
3 41 40 110
3 110 42 41
3 155 98 75
3 155 75 74
3 72 157 156
3 156 155 74
3 73 72 156
3 74 73 156
3 125 124 127
3 127 126 129
3 129 58 57
3 129 57 56
3 125 127 129
3 53 122 125
3 54 53 125
3 125 129 56
3 55 54 125
3 56 55 125
3 142 141 140
3 140 139 101
3 101 93 92
3 101 92 91
3 142 140 101
3 90 89 142
3 101 91 90
3 101 90 142
3 114 29 28
3 114 28 44
3 131 130 61
3 131 61 60
3 133 135 65
3 133 65 64
3 31 30 115
3 31 115 45
3 147 146 85
3 147 85 84
3 148 147 84
3 148 84 83
3 149 148 83
3 149 83 82
3 150 149 82
3 150 82 81
3 151 150 81
3 151 81 80
3 152 151 80
3 152 80 79
3 77 154 153
3 153 152 79
3 78 77 153
3 79 78 153
3 61 130 132
3 61 132 62
3 123 122 53
3 123 53 52
3 24 27 65
3 24 65 135
3 129 128 59
3 129 59 58
3 128 9 8
3 128 8 59
