ply
format ascii 1.0
comment Created by Blender 3.6.8 - www.blender.org
element vertex 204
property float x
property float y
property float z
element face 400
property list uchar uint vertex_indices
end_header
0.000798 0.002875 0.150000
0.000798 0.002875 0.000000
0.000983 0.002449 0.000000
0.000983 0.002449 0.150000
0.001273 0.001978 0.000000
0.001273 0.001978 0.150000
0.004523 0.000031 0.000000
0.004767 0.000011 0.000000
0.004767 0.000011 0.150000
0.004523 0.000031 0.150000
0.004277 0.000061 0.000000
0.004277 0.000061 0.150000
0.004031 0.000099 0.000000
0.004031 0.000099 0.150000
0.003563 0.000189 0.150000
0.003563 0.000189 0.000000
0.003787 0.000142 0.000000
0.003787 0.000142 0.150000
0.002264 0.008758 0.000000
0.002187 0.008779 0.000000
0.001997 0.008838 0.000000
0.001943 0.008849 0.000000
0.001943 0.008849 0.150000
0.001997 0.008838 0.150000
0.002264 0.008758 0.150000
0.002187 0.008779 0.150000
0.000821 0.007169 0.000000
0.000736 0.007097 0.000000
0.000736 0.007097 0.150000
0.000821 0.007169 0.150000
0.000099 0.006664 0.150000
0.000099 0.006664 0.000000
0.000069 0.006626 0.000000
0.000069 0.006626 0.150000
0.001615 0.001520 0.000000
0.001735 0.001379 0.000000
0.001735 0.001379 0.150000
0.001615 0.001520 0.150000
0.001498 0.001668 0.000000
0.001498 0.001668 0.150000
0.001383 0.001821 0.000000
0.001383 0.001821 0.150000
0.000027 0.006540 0.150000
0.000027 0.006540 0.000000
0.000015 0.006481 0.000000
0.000015 0.006481 0.150000
0.002416 0.000780 0.000000
0.002206 0.000925 0.000000
0.001974 0.001126 0.000000
0.000023 0.005641 0.000000
0.000006 0.006406 0.000000
0.000045 0.006585 0.000000
0.000135 0.006699 0.000000
0.000176 0.006732 0.000000
0.000223 0.006764 0.000000
0.000532 0.006954 0.000000
0.002757 0.000522 0.000000
0.002672 0.000585 0.000000
0.002506 0.000714 0.000000
0.002849 0.000461 0.000000
0.003209 0.000291 0.000000
0.002951 0.000402 0.000000
0.005696 0.000053 0.000000
0.005245 0.000003 0.000000
0.006108 0.000174 0.000000
0.005908 0.000104 0.000000
0.007262 0.000958 0.000000
0.006294 0.000265 0.000000
0.007664 0.001328 0.000000
0.007540 0.001198 0.000000
0.007873 0.001620 0.000000
0.007776 0.001468 0.000000
0.008292 0.002796 0.000000
0.007955 0.001786 0.000000
0.008361 0.003276 0.000000
0.008352 0.003110 0.000000
0.008320 0.003647 0.000000
0.008351 0.003454 0.000000
0.008183 0.004088 0.000000
0.008265 0.003857 0.000000
0.007756 0.005139 0.000000
0.007837 0.004953 0.000000
0.007495 0.005638 0.000000
0.007673 0.005315 0.000000
0.007048 0.006199 0.000000
0.007292 0.005931 0.000000
0.004698 0.007929 0.000000
0.006603 0.006593 0.000000
0.003953 0.008305 0.000000
0.004424 0.008087 0.000000
0.003747 0.008381 0.000000
0.003848 0.008345 0.000000
0.003125 0.008582 0.000000
0.003649 0.008414 0.000000
0.002969 0.008629 0.000000
0.003047 0.008606 0.000000
0.002725 0.008687 0.000000
0.002890 0.008650 0.000000
0.002351 0.008740 0.000000
0.002637 0.008703 0.000000
0.000851 0.007202 0.000000
0.000876 0.007234 0.000000
0.000898 0.007268 0.000000
0.001842 0.008846 0.000000
0.001892 0.008853 0.000000
0.001744 0.008795 0.000000
0.001793 0.008828 0.000000
0.001532 0.008571 0.000000
0.001692 0.008746 0.000000
0.001479 0.008504 0.000000
0.001504 0.008537 0.000000
0.001432 0.008431 0.000000
0.001455 0.008469 0.000000
0.001383 0.008336 0.000000
0.001409 0.008387 0.000000
0.001324 0.008204 0.000000
0.001356 0.008275 0.000000
0.001147 0.007791 0.000000
0.000917 0.007304 0.000000
0.000937 0.007344 0.000000
0.000984 0.007445 0.000000
0.001046 0.007572 0.000000
0.001075 0.007632 0.000000
0.001125 0.007740 0.000000
0.001101 0.007687 0.000000
0.000876 0.007234 0.150000
0.000851 0.007202 0.150000
0.000176 0.006732 0.150000
0.000135 0.006699 0.150000
0.007664 0.001328 0.150000
0.007776 0.001468 0.150000
0.007540 0.001198 0.150000
0.000898 0.007268 0.150000
0.000917 0.007304 0.150000
0.000937 0.007344 0.150000
0.000984 0.007445 0.150000
0.001046 0.007572 0.150000
0.001075 0.007632 0.150000
0.001409 0.008387 0.150000
0.001383 0.008336 0.150000
0.001101 0.007687 0.150000
0.001356 0.008275 0.150000
0.001324 0.008204 0.150000
0.001125 0.007740 0.150000
0.001147 0.007791 0.150000
0.007873 0.001620 0.150000
0.007955 0.001786 0.150000
0.001479 0.008504 0.150000
0.001504 0.008537 0.150000
0.001692 0.008746 0.150000
0.001532 0.008571 0.150000
0.007495 0.005638 0.150000
0.007292 0.005931 0.150000
0.002890 0.008650 0.150000
0.002969 0.008629 0.150000
0.003047 0.008606 0.150000
0.003125 0.008582 0.150000
0.003649 0.008414 0.150000
0.003747 0.008381 0.150000
0.003953 0.008305 0.150000
0.003848 0.008345 0.150000
0.000006 0.006406 0.150000
0.001892 0.008853 0.150000
0.001974 0.001126 0.150000
0.002206 0.000925 0.150000
0.005245 0.000003 0.150000
0.008361 0.003276 0.150000
0.008351 0.003454 0.150000
0.000223 0.006764 0.150000
0.000532 0.006954 0.150000
0.008320 0.003647 0.150000
0.006603 0.006593 0.150000
0.007048 0.006199 0.150000
0.008292 0.002796 0.150000
0.002849 0.000461 0.150000
0.002757 0.000522 0.150000
0.002672 0.000585 0.150000
0.002506 0.000714 0.150000
0.002416 0.000780 0.150000
0.002951 0.000402 0.150000
0.008352 0.003110 0.150000
0.001432 0.008431 0.150000
0.001455 0.008469 0.150000
0.005696 0.000053 0.150000
0.005908 0.000104 0.150000
0.004424 0.008087 0.150000
0.003209 0.000291 0.150000
0.007262 0.000958 0.150000
0.006108 0.000174 0.150000
0.004698 0.007929 0.150000
0.006294 0.000265 0.150000
0.000045 0.006585 0.150000
0.008265 0.003857 0.150000
0.000023 0.005641 0.150000
0.008183 0.004088 0.150000
0.007673 0.005315 0.150000
0.007756 0.005139 0.150000
0.007837 0.004953 0.150000
0.001744 0.008795 0.150000
0.001793 0.008828 0.150000
0.001842 0.008846 0.150000
0.002351 0.008740 0.150000
0.002725 0.008687 0.150000
0.002637 0.008703 0.150000
3 0 1 2
3 0 2 3
3 2 4 5
3 2 5 3
3 6 7 8
3 6 8 9
3 10 6 9
3 10 9 11
3 12 10 11
3 12 11 13
3 14 15 16
3 16 12 13
3 17 14 16
3 13 17 16
3 18 19 20
3 20 21 22
3 20 22 23
3 24 18 20
3 20 23 25
3 20 25 24
3 26 27 28
3 26 28 29
3 30 31 32
3 30 32 33
3 34 35 36
3 34 36 37
3 38 34 37
3 38 37 39
3 5 4 40
3 40 38 39
3 41 5 40
3 39 41 40
3 42 43 44
3 42 44 45
3 46 47 48
3 48 35 34
3 34 38 40
3 40 4 2
3 2 1 49
3 49 50 44
3 44 43 51
3 51 32 31
3 31 52 53
3 53 54 55
3 31 53 55
3 44 51 31
3 2 49 44
3 34 40 2
3 46 48 34
3 56 57 58
3 58 46 34
3 34 2 44
3 44 31 55
3 44 55 27
3 58 34 44
3 59 56 58
3 60 61 59
3 16 15 60
3 10 12 16
3 7 6 10
3 62 63 7
3 64 65 62
3 66 67 64
3 68 69 66
3 70 71 68
3 72 73 70
3 74 75 72
3 76 77 74
3 78 79 76
3 80 81 78
3 82 83 80
3 84 85 82
3 86 87 84
3 88 89 86
3 90 91 88
3 92 93 90
3 94 95 92
3 96 97 94
3 98 99 96
3 98 96 94
3 94 92 90
3 90 88 86
3 86 84 82
3 82 80 78
3 78 76 74
3 74 72 70
3 70 68 66
3 66 64 62
3 62 7 10
3 10 16 60
3 60 59 58
3 58 44 27
3 58 27 26
3 10 60 58
3 66 62 10
3 74 70 66
3 82 78 74
3 90 86 82
3 98 94 90
3 18 98 90
3 90 82 74
3 74 66 10
3 10 58 26
3 10 26 100
3 90 74 10
3 18 90 10
3 10 100 101
3 10 101 102
3 19 18 10
3 21 20 19
3 103 104 21
3 105 106 103
3 107 108 105
3 109 110 107
3 111 112 109
3 113 114 111
3 115 116 113
3 117 115 113
3 113 111 109
3 109 107 105
3 105 103 21
3 21 19 10
3 10 102 118
3 119 120 121
3 10 118 119
3 105 21 10
3 113 109 105
3 117 113 105
3 105 10 119
3 119 121 122
3 105 119 122
3 123 117 105
3 105 122 124
3 124 123 105
3 125 101 100
3 125 100 126
3 127 53 52
3 127 52 128
3 129 68 71
3 129 71 130
3 131 69 68
3 131 68 129
3 118 102 132
3 119 118 132
3 119 132 133
3 122 119 133
3 122 133 134
3 124 122 134
3 124 134 135
3 123 124 135
3 123 135 136
3 116 115 117
3 117 123 136
3 117 136 137
3 113 116 117
3 138 114 113
3 139 138 113
3 113 117 137
3 113 137 140
3 141 139 113
3 142 141 113
3 113 140 143
3 144 142 113
3 143 144 113
3 145 70 73
3 145 73 146
3 128 52 31
3 128 31 30
3 110 109 147
3 110 147 148
3 149 108 107
3 107 110 148
3 150 149 107
3 107 148 150
3 151 82 85
3 151 85 152
3 94 97 153
3 94 153 154
3 95 94 154
3 95 154 155
3 92 95 155
3 92 155 156
3 93 92 156
3 93 156 157
3 90 93 157
3 90 157 158
3 159 88 91
3 91 90 158
3 160 159 91
3 158 160 91
3 45 44 50
3 45 50 161
3 130 71 70
3 130 70 145
3 22 21 104
3 22 104 162
3 163 48 47
3 163 47 164
3 8 7 63
3 8 63 165
3 166 74 77
3 166 77 167
3 54 53 127
3 54 127 168
3 28 27 55
3 55 54 168
3 169 28 55
3 55 168 169
3 167 77 76
3 167 76 170
3 84 87 171
3 84 171 172
3 73 72 173
3 73 173 146
3 56 59 174
3 56 174 175
3 58 56 175
3 58 175 176
3 164 47 46
3 46 58 176
3 46 176 177
3 178 164 46
3 177 178 46
3 174 59 61
3 174 61 179
3 180 75 74
3 180 74 166
3 111 114 138
3 111 138 181
3 147 109 112
3 112 111 181
3 182 147 112
3 181 182 112
3 183 62 65
3 183 65 184
3 88 159 185
3 88 185 89
3 186 60 15
3 186 15 14
3 66 69 131
3 66 131 187
3 184 65 64
3 184 64 188
3 86 189 171
3 86 171 87
3 60 186 179
3 60 179 61
3 67 66 187
3 67 187 190
3 33 32 51
3 33 51 191
3 170 76 79
3 170 79 192
3 48 163 36
3 48 36 35
3 49 1 0
3 49 0 193
3 194 192 79
3 79 78 81
3 81 80 83
3 83 195 196
3 197 194 79
3 83 196 197
3 79 81 83
3 79 83 197
3 198 105 108
3 198 108 149
3 199 106 105
3 199 105 198
3 165 63 62
3 165 62 183
3 200 103 106
3 200 106 199
3 86 89 185
3 86 185 189
3 98 18 24
3 98 24 201
3 97 96 98
3 202 153 97
3 98 201 203
3 203 202 97
3 98 203 97
3 50 49 193
3 50 193 161
3 195 83 82
3 195 82 151
3 162 104 103
3 162 103 200
3 188 64 67
3 188 67 190
3 191 51 43
3 191 43 42
3 159 160 158
3 158 157 156
3 156 155 154
3 154 153 202
3 202 203 201
3 154 202 201
3 158 156 154
3 185 159 158
3 171 189 185
3 152 172 171
3 195 151 152
3 197 196 195
3 192 194 197
3 167 170 192
3 180 166 167
3 146 173 180
3 130 145 146
3 131 129 130
3 190 187 131
3 184 188 190
3 165 183 184
3 9 8 165
3 13 11 9
3 14 17 13
3 179 186 14
3 175 174 179
3 177 176 175
3 163 164 178
3 177 175 179
3 163 178 177
3 37 36 163
3 41 39 37
3 3 5 41
3 193 0 3
3 45 161 193
3 191 42 45
3 30 33 191
3 127 128 30
3 169 168 127
3 169 127 30
3 30 191 45
3 45 193 3
3 3 41 37
3 37 163 177
3 177 179 14
3 14 13 9
3 9 165 184
3 184 190 131
3 131 130 146
3 146 180 167
3 167 192 197
3 197 195 152
3 152 171 185
3 185 158 154
3 185 154 201
3 197 152 185
3 146 167 197
3 184 131 146
3 14 9 184
3 37 177 14
3 45 3 37
3 169 30 45
3 28 169 45
3 45 37 14
3 14 184 146
3 146 197 185
3 185 201 24
3 25 23 22
3 185 24 25
3 14 146 185
3 28 45 14
3 29 28 14
3 14 185 25
3 25 22 162
3 162 200 199
3 199 198 149
3 149 150 148
3 148 147 182
3 182 181 138
3 138 139 141
3 141 142 144
3 138 141 144
3 148 182 138
3 199 149 148
3 25 162 199
3 126 29 14
3 125 126 14
3 14 25 199
3 199 148 138
3 199 138 144
3 132 125 14
3 133 132 14
3 14 199 144
3 14 144 143
3 134 133 14
3 136 135 134
3 137 136 134
3 14 143 140
3 137 134 14
3 140 137 14
3 173 72 75
3 173 75 180
3 132 102 101
3 132 101 125
3 85 84 172
3 85 172 152
3 126 100 26
3 126 26 29
