ply
format ascii 1.0
comment Created by Blender 3.6.8 - www.blender.org
element vertex 234
property float x
property float y
property float z
element face 454
property list uchar uint vertex_indices
end_header
0.002916 0.000003 0.150000
0.002916 0.000003 0.000000
0.002997 0.000008 0.000000
0.002997 0.000008 0.150000
0.003449 0.007582 0.000000
0.003403 0.007713 0.000000
0.003403 0.007713 0.150000
0.003449 0.007582 0.150000
0.003488 0.007442 0.000000
0.003488 0.007442 0.150000
0.003793 0.005851 0.000000
0.003793 0.005851 0.150000
0.004645 0.002462 0.150000
0.004645 0.002462 0.000000
0.004454 0.003489 0.000000
0.004454 0.003489 0.150000
0.003085 0.008377 0.000000
0.003126 0.008314 0.000000
0.003165 0.008238 0.000000
0.003204 0.008152 0.000000
0.003294 0.007950 0.000000
0.003349 0.007835 0.000000
0.004672 0.002184 0.000000
0.004670 0.001967 0.000000
0.004640 0.001798 0.000000
0.004585 0.001665 0.000000
0.004504 0.001553 0.000000
0.003959 0.001056 0.000000
0.002990 0.008469 0.000000
0.003041 0.008429 0.000000
0.002861 0.008508 0.000000
0.002931 0.008495 0.000000
0.002680 0.008490 0.000000
0.002779 0.008506 0.000000
0.001889 0.008251 0.000000
0.002170 0.008350 0.000000
0.001621 0.008137 0.000000
0.001752 0.008196 0.000000
0.001301 0.007940 0.000000
0.001393 0.008008 0.000000
0.001164 0.007794 0.000000
0.001227 0.007868 0.000000
0.001035 0.007640 0.000000
0.001099 0.007718 0.000000
0.000909 0.007483 0.000000
0.000971 0.007561 0.000000
0.000792 0.007333 0.000000
0.000849 0.007407 0.000000
0.000692 0.007196 0.000000
0.000739 0.007262 0.000000
0.000614 0.007080 0.000000
0.000650 0.007135 0.000000
0.000586 0.007032 0.000000
0.003774 0.000854 0.000000
0.003379 0.000341 0.000000
0.003223 0.000167 0.000000
0.003097 0.000059 0.000000
0.002851 0.000035 0.000000
0.002795 0.000093 0.000000
0.002632 0.000321 0.000000
0.000557 0.006988 0.000000
0.002562 0.000381 0.000000
0.000519 0.006941 0.000000
0.000426 0.006847 0.000000
0.002475 0.000416 0.000000
0.002387 0.000437 0.000000
0.002316 0.000461 0.000000
0.002259 0.000489 0.000000
0.002212 0.000522 0.000000
0.002174 0.000561 0.000000
0.002141 0.000607 0.000000
0.002110 0.000661 0.000000
0.002079 0.000723 0.000000
0.002045 0.000795 0.000000
0.000324 0.006759 0.000000
0.000055 0.006435 0.000000
0.000135 0.006617 0.000000
0.000230 0.006686 0.000000
0.002004 0.000877 0.000000
0.001955 0.000970 0.000000
0.001894 0.001075 0.000000
0.001835 0.001178 0.000000
0.001792 0.001268 0.000000
0.000004 0.006210 0.000000
0.000016 0.006295 0.000000
0.000007 0.006010 0.000000
0.000000 0.006116 0.000000
0.000059 0.005765 0.000000
0.000025 0.005893 0.000000
0.000164 0.005486 0.000000
0.000108 0.005624 0.000000
0.000261 0.005258 0.000000
0.000215 0.005365 0.000000
0.000345 0.005079 0.000000
0.000304 0.005164 0.000000
0.000426 0.004925 0.000000
0.000386 0.005000 0.000000
0.000515 0.004778 0.000000
0.000469 0.004852 0.000000
0.000679 0.004521 0.000000
0.000564 0.004699 0.000000
0.000905 0.004179 0.000000
0.001763 0.001348 0.000000
0.001745 0.001420 0.000000
0.001736 0.001489 0.000000
0.001734 0.001557 0.000000
0.001735 0.001627 0.000000
0.001739 0.001704 0.000000
0.000954 0.004101 0.000000
0.001741 0.001791 0.000000
0.001002 0.004019 0.000000
0.001740 0.001890 0.000000
0.001734 0.002005 0.000000
0.001049 0.003933 0.000000
0.001097 0.003839 0.000000
0.001699 0.002273 0.000000
0.001677 0.002386 0.000000
0.001145 0.003736 0.000000
0.001450 0.002963 0.000000
0.001404 0.003068 0.000000
0.001194 0.003619 0.000000
0.001653 0.002482 0.000000
0.001626 0.002567 0.000000
0.001565 0.002717 0.000000
0.001597 0.002644 0.000000
0.000135 0.006617 0.150000
0.000230 0.006686 0.150000
0.000426 0.006847 0.150000
0.000324 0.006759 0.150000
0.003126 0.008314 0.150000
0.003085 0.008377 0.150000
0.000025 0.005893 0.150000
0.000059 0.005765 0.150000
0.004670 0.001967 0.150000
0.004672 0.002184 0.150000
0.002851 0.000035 0.150000
0.000016 0.006295 0.150000
0.000004 0.006210 0.150000
0.002562 0.000381 0.150000
0.002632 0.000321 0.150000
0.002990 0.008469 0.150000
0.002931 0.008495 0.150000
0.002861 0.008508 0.150000
0.002779 0.008506 0.150000
0.002680 0.008490 0.150000
0.002170 0.008350 0.150000
0.001889 0.008251 0.150000
0.001752 0.008196 0.150000
0.001621 0.008137 0.150000
0.001393 0.008008 0.150000
0.001301 0.007940 0.150000
0.001227 0.007868 0.150000
0.001164 0.007794 0.150000
0.001099 0.007718 0.150000
0.001035 0.007640 0.150000
0.000971 0.007561 0.150000
0.000909 0.007483 0.150000
0.000849 0.007407 0.150000
0.000792 0.007333 0.150000
0.000739 0.007262 0.150000
0.000692 0.007196 0.150000
0.000650 0.007135 0.150000
0.000614 0.007080 0.150000
0.000586 0.007032 0.150000
0.003041 0.008429 0.150000
0.003165 0.008238 0.150000
0.003294 0.007950 0.150000
0.003204 0.008152 0.150000
0.003349 0.007835 0.150000
0.004640 0.001798 0.150000
0.004504 0.001553 0.150000
0.004585 0.001665 0.150000
0.003959 0.001056 0.150000
0.000557 0.006988 0.150000
0.003774 0.000854 0.150000
0.003223 0.000167 0.150000
0.003379 0.000341 0.150000
0.003097 0.000059 0.150000
0.002795 0.000093 0.150000
0.000519 0.006941 0.150000
0.002475 0.000416 0.150000
0.002316 0.000461 0.150000
0.002387 0.000437 0.150000
0.002212 0.000522 0.150000
0.002259 0.000489 0.150000
0.002141 0.000607 0.150000
0.002174 0.000561 0.150000
0.002079 0.000723 0.150000
0.002110 0.000661 0.150000
0.002045 0.000795 0.150000
0.000055 0.006435 0.150000
0.000000 0.006116 0.150000
0.000007 0.006010 0.150000
0.000108 0.005624 0.150000
0.000164 0.005486 0.150000
0.000215 0.005365 0.150000
0.000261 0.005258 0.150000
0.000304 0.005164 0.150000
0.000345 0.005079 0.150000
0.000386 0.005000 0.150000
0.000426 0.004925 0.150000
0.000469 0.004852 0.150000
0.000515 0.004778 0.150000
0.000564 0.004699 0.150000
0.000679 0.004521 0.150000
0.000905 0.004179 0.150000
0.002004 0.000877 0.150000
0.001835 0.001178 0.150000
0.001894 0.001075 0.150000
0.001955 0.000970 0.150000
0.001792 0.001268 0.150000
0.000954 0.004101 0.150000
0.001745 0.001420 0.150000
0.001763 0.001348 0.150000
0.001734 0.001557 0.150000
0.001736 0.001489 0.150000
0.001739 0.001704 0.150000
0.001735 0.001627 0.150000
0.001002 0.004019 0.150000
0.001741 0.001791 0.150000
0.001049 0.003933 0.150000
0.001097 0.003839 0.150000
0.001740 0.001890 0.150000
0.001734 0.002005 0.150000
0.001145 0.003736 0.150000
0.001194 0.003619 0.150000
0.001404 0.003068 0.150000
0.001450 0.002963 0.150000
0.001699 0.002273 0.150000
0.001677 0.002386 0.150000
0.001565 0.002717 0.150000
0.001653 0.002482 0.150000
0.001626 0.002567 0.150000
0.001597 0.002644 0.150000
3 0 1 2
3 0 2 3
3 4 5 6
3 4 6 7
3 8 4 7
3 8 7 9
3 10 8 9
3 10 9 11
3 12 13 14
3 14 10 11
3 15 12 14
3 11 15 14
3 16 17 18
3 18 19 20
3 20 21 5
3 5 4 8
3 10 14 13
3 5 8 10
3 16 18 20
3 20 5 10
3 10 13 22
3 22 23 24
3 24 25 26
3 24 26 27
3 10 22 24
3 16 20 10
3 28 29 16
3 30 31 28
3 32 33 30
3 34 35 32
3 36 37 34
3 38 39 36
3 40 41 38
3 42 43 40
3 44 45 42
3 46 47 44
3 48 49 46
3 50 51 48
3 52 50 48
3 48 46 44
3 44 42 40
3 40 38 36
3 36 34 32
3 32 30 28
3 28 16 10
3 10 24 27
3 53 54 55
3 10 27 53
3 32 28 10
3 40 36 32
3 48 44 40
3 52 48 40
3 40 32 10
3 10 53 55
3 55 56 2
3 2 1 57
3 57 58 59
3 2 57 59
3 10 55 2
3 52 40 10
3 60 52 10
3 10 2 59
3 10 59 61
3 62 60 10
3 63 62 10
3 10 61 64
3 64 65 66
3 66 67 68
3 68 69 70
3 70 71 72
3 70 72 73
3 66 68 70
3 10 64 66
3 74 63 10
3 75 76 77
3 77 74 10
3 10 66 70
3 70 73 78
3 79 80 81
3 10 70 78
3 79 81 82
3 10 78 79
3 75 77 10
3 83 84 75
3 85 86 83
3 87 88 85
3 89 90 87
3 91 92 89
3 93 94 91
3 95 96 93
3 97 98 95
3 99 100 97
3 101 99 97
3 97 95 93
3 93 91 89
3 89 87 85
3 85 83 75
3 10 79 82
3 82 102 103
3 103 104 105
3 105 106 107
3 103 105 107
3 10 82 103
3 85 75 10
3 93 89 85
3 101 97 93
3 108 101 93
3 93 85 10
3 10 103 107
3 10 107 109
3 108 93 10
3 110 108 10
3 10 109 111
3 10 111 112
3 113 110 10
3 114 113 10
3 10 112 115
3 10 115 116
3 117 114 10
3 118 119 120
3 120 117 10
3 10 116 121
3 10 121 122
3 118 120 10
3 123 118 10
3 10 122 124
3 10 124 123
3 77 76 125
3 77 125 126
3 127 63 74
3 74 77 126
3 128 127 74
3 126 128 74
3 129 17 16
3 129 16 130
3 131 88 87
3 131 87 132
3 133 23 22
3 133 22 134
3 135 57 1
3 135 1 0
3 136 84 83
3 136 83 137
3 138 61 59
3 138 59 139
3 134 22 13
3 134 13 12
3 140 141 142
3 142 143 144
3 144 145 146
3 146 147 148
3 148 149 150
3 150 151 152
3 152 153 154
3 154 155 156
3 156 157 158
3 158 159 160
3 160 161 162
3 160 162 163
3 156 158 160
3 152 154 156
3 148 150 152
3 144 146 148
3 140 142 144
3 130 164 140
3 165 129 130
3 166 167 165
3 6 168 166
3 9 7 6
3 12 15 11
3 11 9 6
3 166 165 130
3 11 6 166
3 134 12 11
3 169 133 134
3 170 171 169
3 172 170 169
3 169 134 11
3 11 166 130
3 130 140 144
3 144 148 152
3 152 156 160
3 152 160 163
3 130 144 152
3 169 11 130
3 172 169 130
3 130 152 163
3 130 163 173
3 174 172 130
3 175 176 174
3 3 177 175
3 135 0 3
3 139 178 135
3 139 135 3
3 3 175 174
3 174 130 173
3 174 173 179
3 139 3 174
3 138 139 174
3 174 179 127
3 174 127 128
3 180 138 174
3 181 182 180
3 183 184 181
3 185 186 183
3 187 188 185
3 189 187 185
3 185 183 181
3 181 180 174
3 174 128 126
3 126 125 190
3 190 136 137
3 137 191 192
3 192 131 132
3 132 193 194
3 194 195 196
3 196 197 198
3 198 199 200
3 200 201 202
3 202 203 204
3 202 204 205
3 198 200 202
3 194 196 198
3 192 132 194
3 190 137 192
3 174 126 190
3 185 181 174
3 206 189 185
3 207 208 209
3 206 185 174
3 210 207 209
3 209 206 174
3 174 190 192
3 192 194 198
3 198 202 205
3 198 205 211
3 174 192 198
3 210 209 174
3 212 213 210
3 214 215 212
3 216 217 214
3 216 214 212
3 212 210 174
3 174 198 211
3 174 211 218
3 216 212 174
3 219 216 174
3 174 218 220
3 174 220 221
3 222 219 174
3 223 222 174
3 174 221 224
3 225 226 227
3 174 224 225
3 228 223 174
3 229 228 174
3 174 225 227
3 174 227 230
3 231 229 174
3 232 231 174
3 174 230 233
3 233 232 174
3 212 103 102
3 212 102 213
3 113 114 221
3 113 221 220
3 110 113 220
3 110 220 218
3 108 110 218
3 108 218 211
3 100 99 101
3 101 108 211
3 101 211 205
3 97 100 101
3 197 94 93
3 198 197 93
3 97 101 205
3 97 205 204
3 198 93 97
3 199 198 97
3 97 204 203
3 97 203 202
3 200 199 97
3 97 202 201
3 201 200 97
3 143 33 32
3 143 32 144
3 150 38 41
3 150 41 151
3 59 58 178
3 59 178 139
3 137 83 86
3 137 86 191
3 92 91 94
3 94 197 196
3 94 196 195
3 89 92 94
3 193 132 87
3 94 195 194
3 194 193 87
3 87 89 94
3 94 194 87
3 116 115 228
3 116 228 229
3 232 122 121
3 121 116 229
3 231 232 121
3 121 229 231
3 140 28 31
3 140 31 141
3 51 50 52
3 60 62 179
3 48 51 52
3 52 60 179
3 52 179 173
3 49 48 52
3 47 46 49
3 45 44 47
3 43 42 45
3 41 40 43
3 152 151 41
3 153 152 41
3 41 43 45
3 45 47 49
3 49 52 173
3 49 173 163
3 41 45 49
3 154 153 41
3 155 154 41
3 41 49 163
3 41 163 162
3 156 155 41
3 157 156 41
3 41 162 161
3 41 161 160
3 158 157 41
3 41 160 159
3 159 158 41
3 182 65 64
3 182 64 180
3 186 69 68
3 186 68 183
3 105 104 215
3 105 215 214
3 107 105 214
3 107 214 217
3 109 107 217
3 109 217 216
3 223 112 111
3 111 109 216
3 111 216 219
3 222 223 111
3 219 222 111
3 183 68 67
3 183 67 184
3 177 56 55
3 177 55 175
3 171 25 24
3 171 24 169
3 180 64 61
3 180 61 138
3 149 39 38
3 149 38 150
3 148 36 39
3 148 39 149
3 32 35 145
3 32 145 144
3 178 58 57
3 178 57 135
3 114 117 120
3 114 120 119
3 224 221 114
3 225 224 114
3 225 114 119
3 226 225 119
3 118 123 124
3 226 119 118
3 227 226 118
3 118 124 122
3 122 232 233
3 230 227 118
3 122 233 230
3 118 122 230
3 76 75 190
3 76 190 125
3 142 30 33
3 142 33 143
3 192 85 88
3 192 88 131
3 141 31 30
3 141 30 142
3 170 172 27
3 170 27 26
3 53 27 172
3 53 172 174
3 176 175 55
3 53 174 176
3 53 176 55
3 185 70 69
3 185 69 186
3 169 24 23
3 169 23 133
3 179 62 63
3 179 63 127
3 3 2 56
3 3 56 177
3 181 66 65
3 181 65 182
3 170 26 25
3 170 25 171
3 73 72 71
3 71 70 185
3 71 185 188
3 73 71 188
3 73 188 187
3 78 73 187
3 78 187 189
3 79 78 189
3 79 189 206
3 207 210 82
3 208 207 82
3 82 79 206
3 209 208 82
3 206 209 82
3 190 75 84
3 190 84 136
3 37 36 148
3 37 148 147
3 145 35 34
3 34 37 147
3 146 145 34
3 34 147 146
3 184 67 66
3 184 66 181
3 18 17 129
3 18 129 165
3 20 18 165
3 20 165 167
3 6 5 20
3 168 6 20
3 20 167 166
3 20 166 168
3 112 223 228
3 112 228 115
3 191 86 85
3 191 85 192
3 164 29 28
3 164 28 140
3 130 16 29
3 130 29 164
3 213 102 82
3 213 82 210
3 215 104 103
3 215 103 212
