ply
format ascii 1.0
comment Created by Blender 3.6.8 - www.blender.org
element vertex 172
property float x
property float y
property float z
element face 337
property list uchar uint vertex_indices
end_header
0.002337 0.001359 0.000000
0.003405 0.000754 0.000000
0.003640 0.000628 0.000000
0.003866 0.000513 0.000000
0.003866 0.000513 0.150000
0.003640 0.000628 0.150000
0.002173 0.001455 0.000000
0.002022 0.001546 0.150000
0.002022 0.001546 0.000000
0.002173 0.001455 0.150000
0.003405 0.000754 0.150000
0.002337 0.001359 0.150000
0.000050 0.004742 0.150000
0.000050 0.004742 0.000000
0.000011 0.004541 0.000000
0.000011 0.004541 0.150000
0.006472 0.006191 0.150000
0.006472 0.006191 0.000000
0.006398 0.006287 0.000000
0.006398 0.006287 0.150000
0.004899 0.007449 0.150000
0.004899 0.007449 0.000000
0.004764 0.007507 0.000000
0.004764 0.007507 0.150000
0.006700 0.000089 0.150000
0.006819 0.000138 0.150000
0.006934 0.000202 0.150000
0.007047 0.000282 0.150000
0.007265 0.000483 0.150000
0.007370 0.000571 0.150000
0.007657 0.000793 0.150000
0.007739 0.000864 0.150000
0.007812 0.000940 0.150000
0.006450 0.000028 0.150000
0.006577 0.000053 0.150000
0.006043 0.000000 0.150000
0.006184 0.000004 0.150000
0.005745 0.000001 0.150000
0.005897 0.000000 0.150000
0.005423 0.000008 0.150000
0.005587 0.000001 0.150000
0.004700 0.000163 0.150000
0.005075 0.000060 0.150000
0.004298 0.000315 0.150000
0.004502 0.000233 0.150000
0.004086 0.000408 0.150000
0.001751 0.001722 0.150000
0.001510 0.001900 0.150000
0.001628 0.001809 0.150000
0.001282 0.002096 0.150000
0.001395 0.001995 0.150000
0.001043 0.002355 0.150000
0.001165 0.002214 0.150000
0.000792 0.002692 0.150000
0.000918 0.002516 0.150000
0.000228 0.003670 0.150000
0.000667 0.002880 0.150000
0.000075 0.004033 0.150000
0.000144 0.003858 0.150000
0.000000 0.004356 0.150000
0.000024 0.004193 0.150000
0.000295 0.005396 0.150000
0.000114 0.004955 0.150000
0.001527 0.007077 0.150000
0.000914 0.006492 0.150000
0.003723 0.007589 0.150000
0.003480 0.007562 0.150000
0.003974 0.007603 0.150000
0.003848 0.007598 0.150000
0.004629 0.007551 0.150000
0.004496 0.007577 0.150000
0.005306 0.007201 0.150000
0.005170 0.007294 0.150000
0.006214 0.006474 0.150000
0.005441 0.007102 0.150000
0.006668 0.005859 0.150000
0.006604 0.005980 0.150000
0.006812 0.005569 0.150000
0.006737 0.005723 0.150000
0.006899 0.005394 0.150000
0.007874 0.001025 0.150000
0.007924 0.001121 0.150000
0.007962 0.001233 0.150000
0.007986 0.001365 0.150000
0.007994 0.001518 0.150000
0.007995 0.001678 0.150000
0.007998 0.001824 0.150000
0.008000 0.001961 0.150000
0.008001 0.002091 0.150000
0.007236 0.004745 0.150000
0.007119 0.004968 0.150000
0.007000 0.005194 0.150000
0.008000 0.002217 0.150000
0.007964 0.002598 0.150000
0.007902 0.002881 0.150000
0.007465 0.004247 0.150000
0.007405 0.004390 0.150000
0.007330 0.004554 0.150000
0.001043 0.002355 0.000000
0.001165 0.002214 0.000000
0.000918 0.002516 0.000000
0.000667 0.002880 0.000000
0.000792 0.002692 0.000000
0.007874 0.001025 0.000000
0.007924 0.001121 0.000000
0.001510 0.001900 0.000000
0.001628 0.001809 0.000000
0.001751 0.001722 0.000000
0.004496 0.007577 0.000000
0.003974 0.007603 0.000000
0.003723 0.007589 0.000000
0.003480 0.007562 0.000000
0.003848 0.007598 0.000000
0.000295 0.005396 0.000000
0.000914 0.006492 0.000000
0.001527 0.007077 0.000000
0.004629 0.007551 0.000000
0.005170 0.007294 0.000000
0.005306 0.007201 0.000000
0.005441 0.007102 0.000000
0.006214 0.006474 0.000000
0.006604 0.005980 0.000000
0.006668 0.005859 0.000000
0.006737 0.005723 0.000000
0.006812 0.005569 0.000000
0.006899 0.005394 0.000000
0.000114 0.004955 0.000000
0.000024 0.004193 0.000000
0.000000 0.004356 0.000000
0.000144 0.003858 0.000000
0.000075 0.004033 0.000000
0.000228 0.003670 0.000000
0.001395 0.001995 0.000000
0.001282 0.002096 0.000000
0.004086 0.000408 0.000000
0.004502 0.000233 0.000000
0.004298 0.000315 0.000000
0.005075 0.000060 0.000000
0.004700 0.000163 0.000000
0.005587 0.000001 0.000000
0.005423 0.000008 0.000000
0.006043 0.000000 0.000000
0.005897 0.000000 0.000000
0.005745 0.000001 0.000000
0.007000 0.005194 0.000000
0.007119 0.004968 0.000000
0.007236 0.004745 0.000000
0.006184 0.000004 0.000000
0.006577 0.000053 0.000000
0.006450 0.000028 0.000000
0.006819 0.000138 0.000000
0.006700 0.000089 0.000000
0.007047 0.000282 0.000000
0.006934 0.000202 0.000000
0.007265 0.000483 0.000000
0.007330 0.004554 0.000000
0.007405 0.004390 0.000000
0.007465 0.004247 0.000000
0.007902 0.002881 0.000000
0.007964 0.002598 0.000000
0.008000 0.002217 0.000000
0.008001 0.002091 0.000000
0.008000 0.001961 0.000000
0.007998 0.001824 0.000000
0.007370 0.000571 0.000000
0.007739 0.000864 0.000000
0.007657 0.000793 0.000000
0.007812 0.000940 0.000000
0.007962 0.001233 0.000000
0.007994 0.001518 0.000000
0.007986 0.001365 0.000000
0.007995 0.001678 0.000000
3 0 1 2
3 2 3 4
3 2 4 5
3 6 0 2
3 7 8 6
3 9 7 6
3 6 2 5
3 6 5 10
3 11 9 6
3 10 11 6
3 12 13 14
3 12 14 15
3 16 17 18
3 16 18 19
3 20 21 22
3 20 22 23
3 24 25 26
3 26 27 28
3 29 30 31
3 24 26 28
3 29 31 32
3 24 28 29
3 33 34 24
3 35 36 33
3 37 38 35
3 39 40 37
3 41 42 39
3 43 44 41
3 4 45 43
3 10 5 4
3 9 11 10
3 46 7 9
3 47 48 46
3 49 50 47
3 51 52 49
3 53 54 51
3 55 56 53
3 57 58 55
3 59 60 57
3 12 15 59
3 61 62 12
3 63 64 61
3 65 66 63
3 67 68 65
3 69 70 67
3 20 23 69
3 71 72 20
3 73 74 71
3 16 19 73
3 75 76 16
3 77 78 75
3 79 77 75
3 75 16 73
3 73 71 20
3 20 69 67
3 67 65 63
3 63 61 12
3 12 59 57
3 57 55 53
3 53 51 49
3 49 47 46
3 46 9 10
3 10 4 43
3 43 41 39
3 39 37 35
3 35 33 24
3 24 29 32
3 32 80 81
3 81 82 83
3 83 84 85
3 86 87 88
3 83 85 86
3 32 81 83
3 35 24 32
3 43 39 35
3 46 10 43
3 53 49 46
3 12 57 53
3 67 63 12
3 73 20 67
3 79 75 73
3 89 90 91
3 91 79 73
3 73 67 12
3 12 53 46
3 46 43 35
3 35 32 83
3 83 86 88
3 88 92 93
3 93 94 95
3 95 96 97
3 97 89 91
3 91 73 12
3 12 46 35
3 35 83 88
3 88 93 95
3 95 97 91
3 91 12 35
3 35 88 95
3 95 91 35
3 98 99 52
3 98 52 51
3 100 98 51
3 100 51 54
3 56 101 102
3 102 100 54
3 53 56 102
3 54 53 102
3 80 103 104
3 80 104 81
3 48 47 105
3 105 106 107
3 107 8 7
3 46 48 105
3 107 7 46
3 105 107 46
3 108 109 67
3 108 67 70
3 110 111 66
3 110 66 65
3 67 109 112
3 112 110 65
3 68 67 112
3 112 65 68
3 113 114 115
3 115 111 110
3 110 112 109
3 109 108 116
3 116 22 21
3 21 117 118
3 118 119 120
3 120 18 17
3 17 121 122
3 122 123 124
3 122 124 125
3 120 17 122
3 21 118 120
3 109 116 21
3 115 110 109
3 126 113 115
3 14 13 126
3 127 128 14
3 129 130 127
3 101 131 129
3 100 102 101
3 99 98 100
3 132 133 99
3 106 105 132
3 8 107 106
3 0 6 8
3 134 3 2
3 135 136 134
3 137 138 135
3 139 140 137
3 141 142 143
3 143 139 137
3 137 135 134
3 134 2 0
3 0 8 106
3 106 132 99
3 99 100 101
3 101 129 127
3 127 14 126
3 126 115 109
3 109 21 120
3 120 122 125
3 144 145 146
3 120 125 144
3 126 109 120
3 101 127 126
3 106 99 101
3 134 0 106
3 143 137 134
3 147 141 143
3 148 149 147
3 150 151 148
3 152 153 150
3 154 152 150
3 150 148 147
3 147 143 134
3 134 106 101
3 101 126 120
3 120 144 146
3 146 155 156
3 156 157 158
3 158 159 160
3 160 161 162
3 160 162 163
3 156 158 160
3 120 146 156
3 134 101 120
3 150 147 134
3 164 154 150
3 165 166 164
3 103 167 165
3 168 104 103
3 169 170 168
3 160 163 171
3 171 169 168
3 168 103 165
3 165 164 150
3 150 134 120
3 120 156 160
3 160 171 168
3 168 165 150
3 150 120 160
3 160 168 150
3 135 138 41
3 135 41 44
3 136 135 44
3 136 44 43
3 4 3 134
3 134 136 43
3 45 4 134
3 43 45 134
3 69 116 108
3 69 108 70
3 165 31 30
3 165 30 29
3 164 165 29
3 164 29 28
3 153 152 154
3 154 164 28
3 27 26 153
3 154 28 27
3 27 153 154
3 31 165 167
3 31 167 32
3 137 140 39
3 137 39 42
3 140 139 143
3 141 147 36
3 141 36 35
3 140 143 141
3 40 39 140
3 37 40 140
3 140 141 35
3 38 37 140
3 35 38 140
3 113 126 62
3 113 62 61
3 23 22 116
3 23 116 69
3 129 131 55
3 129 55 58
3 60 127 130
3 130 129 58
3 57 60 130
3 130 58 57
3 158 157 95
3 158 95 94
3 72 117 21
3 72 21 20
3 59 128 127
3 59 127 60
3 34 148 151
3 34 151 24
3 159 158 94
3 159 94 93
3 32 167 103
3 32 103 80
3 114 113 61
3 114 61 64
3 62 126 13
3 62 13 12
3 121 17 16
3 121 16 76
3 118 117 72
3 118 72 71
3 73 120 119
3 119 118 71
3 74 73 119
3 71 74 119
3 101 56 55
3 101 55 131
3 149 33 36
3 149 36 147
3 19 18 120
3 19 120 73
3 15 14 128
3 15 128 59
3 41 138 137
3 41 137 42
3 160 159 93
3 160 93 92
3 82 168 170
3 82 170 83
3 25 150 153
3 25 153 26
3 81 104 168
3 81 168 82
3 33 149 148
3 33 148 34
3 96 95 157
3 96 157 156
3 97 96 156
3 97 156 155
3 89 97 155
3 89 155 146
3 90 89 146
3 145 144 125
3 90 146 145
3 91 90 145
3 145 125 124
3 145 124 123
3 79 91 145
3 77 79 145
3 145 123 122
3 122 121 76
3 122 76 75
3 77 145 122
3 122 75 78
3 122 78 77
3 64 63 115
3 64 115 114
3 24 151 150
3 24 150 25
3 132 105 47
3 132 47 50
3 52 99 133
3 133 132 50
3 49 52 133
3 50 49 133
3 66 111 115
3 66 115 63
3 161 160 92
3 161 92 88
3 162 161 88
3 162 88 87
3 163 162 87
3 163 87 86
3 171 163 86
3 171 86 85
3 83 170 169
3 169 171 85
3 84 83 169
3 85 84 169
