ply
format ascii 1.0
comment Created by Blender 3.6.8 - www.blender.org
element vertex 204
property float x
property float y
property float z
element face 397
property list uchar uint vertex_indices
end_header
0.006308 0.000092 0.150000
0.006206 0.000047 0.150000
0.006206 0.000047 0.000000
0.006308 0.000092 0.000000
0.006399 0.000137 0.000000
0.006475 0.000169 0.000000
0.006475 0.000169 0.150000
0.006399 0.000137 0.150000
0.005965 0.006846 0.000000
0.005821 0.006850 0.000000
0.005682 0.006851 0.000000
0.005682 0.006851 0.150000
0.005821 0.006850 0.150000
0.005965 0.006846 0.150000
0.006132 0.006839 0.000000
0.006304 0.006826 0.000000
0.006219 0.006833 0.000000
0.006460 0.006806 0.000000
0.006385 0.006817 0.000000
0.006385 0.006817 0.150000
0.006460 0.006806 0.150000
0.006304 0.006826 0.150000
0.006132 0.006839 0.150000
0.006219 0.006833 0.150000
0.006606 0.006768 0.150000
0.006606 0.006768 0.000000
0.006771 0.000264 0.150000
0.006771 0.000264 0.000000
0.006842 0.000298 0.000000
0.006842 0.000298 0.150000
0.002390 0.000685 0.000000
0.002570 0.000621 0.000000
0.002570 0.000621 0.150000
0.002390 0.000685 0.150000
0.002214 0.000754 0.000000
0.002214 0.000754 0.150000
0.001882 0.000906 0.150000
0.001882 0.000906 0.000000
0.002044 0.000828 0.000000
0.002044 0.000828 0.150000
0.006916 0.006623 0.000000
0.006760 0.006705 0.000000
0.006760 0.006705 0.150000
0.006916 0.006623 0.150000
0.008739 0.001744 0.150000
0.009674 0.002407 0.150000
0.009805 0.002508 0.150000
0.009920 0.002604 0.150000
0.010014 0.002692 0.150000
0.010085 0.002771 0.150000
0.010129 0.002841 0.150000
0.010287 0.003160 0.150000
0.010360 0.003366 0.150000
0.010384 0.003481 0.150000
0.010397 0.003605 0.150000
0.010395 0.003738 0.150000
0.010375 0.003879 0.150000
0.010335 0.004029 0.150000
0.010204 0.004347 0.150000
0.010153 0.004493 0.150000
0.010075 0.004755 0.150000
0.010037 0.004873 0.150000
0.009992 0.004984 0.150000
0.009933 0.005090 0.150000
0.009854 0.005191 0.150000
0.009751 0.005290 0.150000
0.009616 0.005386 0.150000
0.009445 0.005481 0.150000
0.009231 0.005577 0.150000
0.008999 0.005669 0.150000
0.008780 0.005753 0.150000
0.007882 0.006087 0.150000
0.008344 0.001447 0.150000
0.007028 0.000412 0.150000
0.007152 0.000499 0.150000
0.006653 0.000223 0.150000
0.006709 0.000241 0.150000
0.006598 0.000208 0.150000
0.007745 0.006140 0.150000
0.006540 0.000191 0.150000
0.007623 0.006191 0.150000
0.007428 0.006288 0.150000
0.007355 0.006335 0.150000
0.007218 0.006432 0.150000
0.007070 0.006530 0.150000
0.006100 0.000019 0.150000
0.005884 0.000000 0.150000
0.005993 0.000003 0.150000
0.005663 0.000021 0.150000
0.005774 0.000007 0.150000
0.003281 0.000419 0.150000
0.005037 0.000163 0.150000
0.006994 0.006578 0.150000
0.005560 0.006843 0.150000
0.005151 0.006776 0.150000
0.004592 0.006647 0.150000
0.004282 0.006559 0.150000
0.003966 0.006457 0.150000
0.003358 0.006211 0.150000
0.003087 0.006068 0.150000
0.002852 0.005912 0.150000
0.002664 0.005743 0.150000
0.002502 0.005578 0.150000
0.001731 0.000989 0.150000
0.001452 0.001164 0.150000
0.001589 0.001075 0.150000
0.000691 0.001810 0.150000
0.001189 0.001355 0.150000
0.000445 0.002086 0.150000
0.000568 0.001943 0.150000
0.000193 0.002402 0.150000
0.000320 0.002239 0.150000
0.000025 0.002730 0.150000
0.000087 0.002569 0.150000
0.000011 0.003039 0.150000
0.000001 0.002886 0.150000
0.000117 0.003335 0.150000
0.000051 0.003188 0.150000
0.000953 0.004348 0.150000
0.000310 0.003625 0.150000
0.001237 0.004598 0.150000
0.001093 0.004477 0.150000
0.002177 0.005292 0.150000
0.002339 0.005428 0.150000
0.010287 0.003160 0.000000
0.010360 0.003366 0.000000
0.010397 0.003605 0.000000
0.010395 0.003738 0.000000
0.009854 0.005191 0.000000
0.009751 0.005290 0.000000
0.010037 0.004873 0.000000
0.009992 0.004984 0.000000
0.010075 0.004755 0.000000
0.010153 0.004493 0.000000
0.010204 0.004347 0.000000
0.010375 0.003879 0.000000
0.010335 0.004029 0.000000
0.009616 0.005386 0.000000
0.009445 0.005481 0.000000
0.005560 0.006843 0.000000
0.001189 0.001355 0.000000
0.001452 0.001164 0.000000
0.003358 0.006211 0.000000
0.003087 0.006068 0.000000
0.005151 0.006776 0.000000
0.006994 0.006578 0.000000
0.007070 0.006530 0.000000
0.007218 0.006432 0.000000
0.007355 0.006335 0.000000
0.004282 0.006559 0.000000
0.004592 0.006647 0.000000
0.003966 0.006457 0.000000
0.002852 0.005912 0.000000
0.002502 0.005578 0.000000
0.002664 0.005743 0.000000
0.007428 0.006288 0.000000
0.002339 0.005428 0.000000
0.001093 0.004477 0.000000
0.001237 0.004598 0.000000
0.002177 0.005292 0.000000
0.007623 0.006191 0.000000
0.000953 0.004348 0.000000
0.007745 0.006140 0.000000
0.000310 0.003625 0.000000
0.000051 0.003188 0.000000
0.000117 0.003335 0.000000
0.000001 0.002886 0.000000
0.000011 0.003039 0.000000
0.000087 0.002569 0.000000
0.000025 0.002730 0.000000
0.000320 0.002239 0.000000
0.000193 0.002402 0.000000
0.000568 0.001943 0.000000
0.000445 0.002086 0.000000
0.000691 0.001810 0.000000
0.001589 0.001075 0.000000
0.001731 0.000989 0.000000
0.005037 0.000163 0.000000
0.003281 0.000419 0.000000
0.005774 0.000007 0.000000
0.005663 0.000021 0.000000
0.005993 0.000003 0.000000
0.005884 0.000000 0.000000
0.006100 0.000019 0.000000
0.007882 0.006087 0.000000
0.008780 0.005753 0.000000
0.008999 0.005669 0.000000
0.009231 0.005577 0.000000
0.009933 0.005090 0.000000
0.006540 0.000191 0.000000
0.010384 0.003481 0.000000
0.010129 0.002841 0.000000
0.010085 0.002771 0.000000
0.010014 0.002692 0.000000
0.009920 0.002604 0.000000
0.009805 0.002508 0.000000
0.009674 0.002407 0.000000
0.008739 0.001744 0.000000
0.008344 0.001447 0.000000
0.007152 0.000499 0.000000
0.007028 0.000412 0.000000
0.006709 0.000241 0.000000
0.006653 0.000223 0.000000
0.006598 0.000208 0.000000
3 0 1 2
3 2 3 4
3 4 5 6
3 7 0 2
3 4 6 7
3 2 4 7
3 8 9 10
3 10 11 12
3 10 12 13
3 14 8 10
3 15 16 14
3 17 18 15
3 19 20 17
3 21 19 17
3 17 15 14
3 14 10 13
3 14 13 22
3 21 17 14
3 14 22 23
3 23 21 14
3 24 25 17
3 24 17 20
3 26 27 28
3 26 28 29
3 30 31 32
3 30 32 33
3 34 30 33
3 34 33 35
3 36 37 38
3 38 34 35
3 39 36 38
3 38 35 39
3 40 41 42
3 40 42 43
3 44 45 46
3 46 47 48
3 48 49 50
3 50 51 52
3 52 53 54
3 54 55 56
3 56 57 58
3 59 60 61
3 54 56 58
3 59 61 62
3 54 58 59
3 50 52 54
3 46 48 50
3 44 46 50
3 50 54 59
3 59 62 63
3 63 64 65
3 65 66 67
3 67 68 69
3 69 70 71
3 67 69 71
3 63 65 67
3 50 59 63
3 72 44 50
3 73 74 72
3 26 29 73
3 75 76 26
3 77 75 26
3 26 73 72
3 72 50 63
3 63 67 71
3 63 71 78
3 26 72 63
3 79 77 26
3 79 26 63
3 63 78 80
3 79 63 80
3 6 79 80
3 6 80 81
3 1 0 7
3 7 6 81
3 82 83 84
3 7 81 82
3 85 1 7
3 86 87 85
3 88 89 86
3 32 90 91
3 91 88 86
3 86 85 7
3 7 82 84
3 84 92 43
3 43 42 24
3 24 20 19
3 19 21 23
3 23 22 13
3 13 12 11
3 11 93 94
3 94 95 96
3 96 97 98
3 98 99 100
3 100 101 102
3 98 100 102
3 94 96 98
3 13 11 94
3 19 23 13
3 43 24 19
3 7 84 43
3 91 86 7
3 33 32 91
3 39 35 33
3 103 36 39
3 104 105 103
3 106 107 104
3 108 109 106
3 110 111 108
3 112 113 110
3 114 115 112
3 116 117 114
3 118 119 116
3 120 121 118
3 122 120 118
3 118 116 114
3 114 112 110
3 110 108 106
3 106 104 103
3 103 39 33
3 33 91 7
3 7 43 19
3 19 13 94
3 94 98 102
3 94 102 123
3 7 19 94
3 103 33 7
3 110 106 103
3 118 114 110
3 94 123 122
3 122 118 110
3 110 103 7
3 7 94 122
3 122 110 7
3 124 125 52
3 124 52 51
3 54 126 127
3 54 127 55
3 64 128 129
3 64 129 65
3 130 131 62
3 130 62 61
3 132 130 61
3 132 61 60
3 133 132 60
3 133 60 59
3 134 133 59
3 134 59 58
3 56 135 136
3 136 134 58
3 57 56 136
3 58 57 136
3 66 137 138
3 66 138 67
3 11 10 139
3 11 139 93
3 140 141 104
3 140 104 107
3 98 142 143
3 98 143 99
3 144 139 10
3 8 14 16
3 16 15 18
3 18 17 25
3 25 41 40
3 40 145 146
3 146 147 148
3 40 146 148
3 18 25 40
3 8 16 18
3 144 10 8
3 149 150 144
3 142 151 149
3 152 143 142
3 153 154 152
3 153 152 142
3 142 149 144
3 144 8 18
3 18 40 148
3 18 148 155
3 142 144 18
3 156 153 142
3 157 158 159
3 159 156 142
3 142 18 155
3 142 155 160
3 161 157 159
3 159 142 160
3 159 160 162
3 163 161 159
3 164 165 163
3 166 167 164
3 168 169 166
3 170 171 168
3 172 173 170
3 140 174 172
3 175 141 140
3 37 176 175
3 34 38 37
3 31 30 34
3 177 178 31
3 179 180 177
3 181 182 179
3 2 183 181
3 4 2 181
3 181 179 177
3 177 31 34
3 34 37 175
3 175 140 172
3 172 170 168
3 168 166 164
3 164 163 159
3 159 162 184
3 184 185 186
3 186 187 138
3 138 137 129
3 129 128 188
3 188 131 130
3 130 132 133
3 134 136 135
3 188 130 133
3 134 135 127
3 188 133 134
3 138 129 188
3 184 186 138
3 164 159 184
3 172 168 164
3 34 175 172
3 181 177 34
3 5 4 181
3 189 5 181
3 181 34 172
3 172 164 184
3 184 138 188
3 188 134 127
3 127 126 190
3 190 125 124
3 124 191 192
3 192 193 194
3 194 195 196
3 194 196 197
3 124 192 194
3 127 190 124
3 184 188 127
3 181 172 184
3 189 181 184
3 184 127 124
3 124 194 197
3 198 199 200
3 124 197 198
3 189 184 124
3 201 202 203
3 203 189 124
3 124 198 200
3 200 28 27
3 27 201 203
3 203 124 200
3 200 27 203
3 93 139 144
3 93 144 94
3 63 188 128
3 63 128 64
3 40 43 92
3 40 92 84
3 81 155 148
3 82 81 148
3 148 40 84
3 83 82 148
3 84 83 148
3 99 143 152
3 99 152 100
3 162 160 80
3 162 80 78
3 184 162 78
3 184 78 71
3 185 184 71
3 185 71 70
3 186 185 70
3 186 70 69
3 67 138 187
3 187 186 69
3 68 67 187
3 187 69 68
3 41 25 24
3 41 24 42
3 62 131 188
3 62 188 63
3 116 165 164
3 116 164 117
3 55 127 135
3 55 135 56
3 142 98 97
3 142 97 151
3 163 165 116
3 163 116 119
3 65 129 137
3 65 137 66
3 113 168 171
3 113 171 110
3 87 181 183
3 87 183 85
3 157 161 118
3 157 118 121
3 158 157 121
3 158 121 120
3 159 158 120
3 159 120 122
3 156 159 122
3 156 122 123
3 153 156 123
3 153 123 102
3 100 152 154
3 154 153 102
3 101 100 154
3 102 101 154
3 112 169 168
3 112 168 113
3 47 194 193
3 47 193 48
3 48 193 192
3 48 192 49
3 86 182 181
3 86 181 87
3 80 160 155
3 80 155 81
3 201 27 26
3 201 26 76
3 189 203 201
3 6 5 189
3 79 6 189
3 189 201 76
3 189 76 75
3 77 79 189
3 189 75 77
3 115 166 169
3 115 169 112
3 197 196 195
3 195 194 47
3 195 47 46
3 197 195 46
3 197 46 45
3 198 197 45
3 198 45 44
3 73 200 198
3 74 73 198
3 198 44 72
3 72 74 198
3 29 28 200
3 29 200 73
3 114 167 166
3 114 166 115
3 172 174 106
3 172 106 109
3 173 172 109
3 173 109 108
3 110 171 170
3 170 173 108
3 111 110 170
3 108 111 170
3 52 125 190
3 52 190 53
3 117 164 167
3 117 167 114
3 49 192 191
3 49 191 50
3 149 151 97
3 149 97 96
3 94 144 150
3 150 149 96
3 95 94 150
3 96 95 150
3 90 178 177
3 90 177 180
3 91 90 180
3 179 182 86
3 91 180 179
3 88 91 179
3 179 86 89
3 179 89 88
3 32 31 178
3 32 178 90
3 161 163 119
3 161 119 118
3 53 190 126
3 53 126 54
3 105 104 141
3 105 141 175
3 37 36 103
3 103 105 175
3 176 37 103
3 175 176 103
3 174 140 107
3 174 107 106
3 191 124 51
3 191 51 50
3 85 183 2
3 85 2 1
