ply
format ascii 1.0
comment Created by Blender 3.6.8 - www.blender.org
element vertex 138
property float x
property float y
property float z
element face 271
property list uchar uint vertex_indices
end_header
0.000052 0.004027 0.150000
0.000052 0.004027 0.000000
0.000126 0.003816 0.000000
0.000126 0.003816 0.150000
0.007745 0.008793 0.150000
0.007745 0.008793 0.000000
0.007598 0.009100 0.000000
0.007598 0.009100 0.150000
0.006113 0.000072 0.150000
0.006113 0.000072 0.000000
0.006190 0.000095 0.000000
0.006190 0.000095 0.150000
0.006273 0.000130 0.150000
0.006273 0.000130 0.000000
0.006467 0.000248 0.000000
0.006467 0.000248 0.150000
0.008352 0.002729 0.000000
0.008392 0.003021 0.000000
0.008392 0.003021 0.150000
0.008352 0.002729 0.150000
0.001209 0.002088 0.000000
0.001078 0.002247 0.000000
0.000935 0.002436 0.000000
0.000634 0.002874 0.000000
0.000350 0.003351 0.000000
0.000009 0.004215 0.000000
0.000001 0.004390 0.000000
0.000026 0.004565 0.000000
0.000080 0.004741 0.000000
0.000159 0.004918 0.000000
0.000378 0.005276 0.000000
0.000510 0.005457 0.000000
0.001616 0.006856 0.000000
0.002073 0.007393 0.000000
0.003416 0.008887 0.000000
0.005186 0.009944 0.000000
0.005310 0.009987 0.000000
0.005457 0.010027 0.000000
0.005620 0.010062 0.000000
0.005792 0.010093 0.000000
0.006614 0.010196 0.000000
0.007334 0.009461 0.000000
0.007517 0.009226 0.000000
0.007874 0.008425 0.000000
0.007934 0.008221 0.000000
0.007992 0.008006 0.000000
0.008047 0.007782 0.000000
0.008101 0.007549 0.000000
0.008153 0.007308 0.000000
0.008205 0.007063 0.000000
0.008258 0.006813 0.000000
0.008304 0.006567 0.000000
0.008364 0.006100 0.000000
0.008381 0.005874 0.000000
0.008391 0.005650 0.000000
0.008409 0.003401 0.000000
0.008403 0.003198 0.000000
0.008290 0.002482 0.000000
0.008031 0.001799 0.000000
0.007942 0.001644 0.000000
0.007715 0.001344 0.000000
0.007443 0.001059 0.000000
0.007297 0.000924 0.000000
0.007148 0.000794 0.000000
0.006584 0.000337 0.000000
0.006040 0.000058 0.000000
0.005968 0.000050 0.000000
0.005731 0.000036 0.000000
0.001321 0.001965 0.000000
0.001545 0.001795 0.000000
0.001409 0.001883 0.000000
0.002948 0.001047 0.000000
0.001787 0.001656 0.000000
0.004325 0.000395 0.000000
0.003876 0.000598 0.000000
0.005358 0.000016 0.000000
0.005086 0.000092 0.000000
0.005636 0.000024 0.000000
0.005529 0.000004 0.000000
0.005086 0.000092 0.150000
0.005358 0.000016 0.150000
0.000159 0.004918 0.150000
0.000080 0.004741 0.150000
0.007715 0.001344 0.150000
0.007942 0.001644 0.150000
0.007334 0.009461 0.150000
0.006614 0.010196 0.150000
0.005792 0.010093 0.150000
0.005620 0.010062 0.150000
0.005457 0.010027 0.150000
0.005310 0.009987 0.150000
0.005186 0.009944 0.150000
0.003416 0.008887 0.150000
0.002073 0.007393 0.150000
0.001616 0.006856 0.150000
0.000510 0.005457 0.150000
0.000378 0.005276 0.150000
0.000026 0.004565 0.150000
0.000001 0.004390 0.150000
0.000009 0.004215 0.150000
0.000350 0.003351 0.150000
0.000634 0.002874 0.150000
0.000935 0.002436 0.150000
0.001078 0.002247 0.150000
0.001209 0.002088 0.150000
0.001321 0.001965 0.150000
0.001409 0.001883 0.150000
0.001545 0.001795 0.150000
0.001787 0.001656 0.150000
0.002948 0.001047 0.150000
0.003876 0.000598 0.150000
0.004325 0.000395 0.150000
0.005529 0.000004 0.150000
0.005636 0.000024 0.150000
0.005731 0.000036 0.150000
0.005968 0.000050 0.150000
0.006040 0.000058 0.150000
0.007517 0.009226 0.150000
0.007874 0.008425 0.150000
0.007992 0.008006 0.150000
0.007934 0.008221 0.150000
0.008101 0.007549 0.150000
0.008047 0.007782 0.150000
0.008205 0.007063 0.150000
0.008153 0.007308 0.150000
0.008304 0.006567 0.150000
0.008258 0.006813 0.150000
0.008381 0.005874 0.150000
0.008364 0.006100 0.150000
0.008409 0.003401 0.150000
0.008391 0.005650 0.150000
0.008403 0.003198 0.150000
0.008290 0.002482 0.150000
0.008031 0.001799 0.150000
0.007443 0.001059 0.150000
0.007148 0.000794 0.150000
0.007297 0.000924 0.150000
0.006584 0.000337 0.150000
3 0 1 2
3 0 2 3
3 4 5 6
3 4 6 7
3 8 9 10
3 8 10 11
3 12 13 14
3 12 14 15
3 16 17 18
3 16 18 19
3 20 21 22
3 22 23 24
3 24 2 1
3 1 25 26
3 26 27 28
3 28 29 30
3 30 31 32
3 32 33 34
3 34 35 36
3 36 37 38
3 38 39 40
3 40 41 42
3 42 6 5
3 5 43 44
3 44 45 46
3 46 47 48
3 48 49 50
3 50 51 52
3 52 53 54
3 54 55 56
3 56 17 16
3 16 57 58
3 58 59 60
3 60 61 62
3 62 63 64
3 64 14 13
3 13 10 9
3 9 65 66
3 9 66 67
3 64 13 9
3 60 62 64
3 16 58 60
3 54 56 16
3 50 52 54
3 46 48 50
3 5 44 46
3 40 42 5
3 36 38 40
3 32 34 36
3 28 30 32
3 1 26 28
3 22 24 1
3 68 20 22
3 69 70 68
3 71 72 69
3 73 74 71
3 75 76 73
3 77 78 75
3 64 9 67
3 67 77 75
3 75 73 71
3 71 69 68
3 68 22 1
3 1 28 32
3 32 36 40
3 40 5 46
3 46 50 54
3 54 16 60
3 60 64 67
3 67 75 71
3 71 68 1
3 1 32 40
3 40 46 54
3 54 60 67
3 67 71 1
3 1 40 54
3 1 54 67
3 79 76 75
3 79 75 80
3 81 29 28
3 81 28 82
3 83 60 59
3 83 59 84
3 85 86 87
3 87 88 89
3 89 90 91
3 91 92 93
3 93 94 95
3 95 96 81
3 81 82 97
3 97 98 99
3 99 0 3
3 3 100 101
3 101 102 103
3 103 104 105
3 105 106 107
3 107 108 109
3 109 110 111
3 111 79 80
3 80 112 113
3 114 115 116
3 80 113 114
3 109 111 80
3 105 107 109
3 101 103 105
3 99 3 101
3 81 97 99
3 93 95 81
3 89 91 93
3 85 87 89
3 7 117 85
3 118 4 7
3 119 120 118
3 121 122 119
3 123 124 121
3 125 126 123
3 127 128 125
3 129 130 127
3 18 131 129
3 132 19 18
3 84 133 132
3 134 83 84
3 135 136 134
3 15 137 135
3 11 12 15
3 116 8 11
3 80 114 116
3 105 109 80
3 99 101 105
3 93 81 99
3 85 89 93
3 118 7 85
3 121 119 118
3 125 123 121
3 129 127 125
3 132 18 129
3 134 84 132
3 15 135 134
3 116 11 15
3 105 80 116
3 93 99 105
3 118 85 93
3 125 121 118
3 132 129 125
3 15 134 132
3 105 116 15
3 118 93 105
3 132 125 118
3 105 15 132
3 105 132 118
3 35 34 92
3 35 92 91
3 74 73 111
3 74 111 110
3 71 74 110
3 71 110 109
3 107 69 72
3 72 71 109
3 108 107 72
3 109 108 72
3 98 26 25
3 98 25 99
3 105 68 70
3 105 70 106
3 62 61 134
3 62 134 136
3 63 62 136
3 63 136 135
3 15 14 64
3 64 63 135
3 137 15 64
3 64 135 137
3 112 78 77
3 112 77 113
3 73 76 79
3 73 79 111
3 84 59 58
3 84 58 133
3 118 43 5
3 118 5 4
3 7 6 42
3 7 42 117
3 67 66 65
3 65 116 115
3 114 113 77
3 65 115 114
3 114 77 67
3 67 65 114
3 90 36 35
3 90 35 91
3 58 57 132
3 58 132 133
3 47 46 45
3 45 44 43
3 43 118 120
3 43 120 119
3 47 45 43
3 49 48 47
3 51 50 49
3 126 125 51
3 123 126 51
3 51 49 47
3 47 43 119
3 47 119 122
3 123 51 47
3 124 123 47
3 47 122 121
3 121 124 47
3 99 25 1
3 99 1 0
3 21 20 104
3 21 104 103
3 101 23 22
3 22 21 103
3 102 101 22
3 103 102 22
3 106 70 69
3 106 69 107
3 52 128 127
3 52 127 130
3 55 54 52
3 17 56 55
3 131 18 17
3 52 130 129
3 129 131 17
3 17 55 52
3 52 129 17
3 3 2 24
3 3 24 100
3 80 75 78
3 80 78 112
3 11 10 13
3 11 13 12
3 82 28 27
3 82 27 97
3 41 40 86
3 41 86 85
3 24 23 101
3 24 101 100
3 42 41 85
3 42 85 117
3 39 38 37
3 37 36 90
3 37 90 89
3 87 39 37
3 37 89 88
3 37 88 87
3 16 19 132
3 16 132 57
3 116 65 9
3 116 9 8
3 96 30 29
3 96 29 81
3 52 51 125
3 52 125 128
3 60 83 134
3 60 134 61
3 97 27 26
3 97 26 98
3 40 39 87
3 40 87 86
3 104 20 68
3 104 68 105
3 31 30 96
3 31 96 95
3 32 31 95
3 32 95 94
3 92 34 33
3 33 32 94
3 93 92 33
3 94 93 33
