ply
format ascii 1.0
comment Created by Blender 3.6.8 - www.blender.org
element vertex 244
property float x
property float y
property float z
element face 482
property list uchar uint vertex_indices
end_header
0.000051 0.005493 0.000000
0.000089 0.005329 0.000000
0.000089 0.005329 0.150000
0.000051 0.005493 0.150000
0.000362 0.001315 0.000000
0.000383 0.001420 0.000000
0.000541 0.002077 0.000000
0.000556 0.002120 0.000000
0.000337 0.001145 0.000000
0.000346 0.001222 0.000000
0.000345 0.001044 0.000000
0.000336 0.001092 0.000000
0.000482 0.000771 0.000000
0.000367 0.000987 0.000000
0.000690 0.000461 0.000000
0.000584 0.000612 0.000000
0.000867 0.000240 0.000000
0.000821 0.000282 0.000000
0.001020 0.000171 0.000000
0.000933 0.000204 0.000000
0.001533 0.000079 0.000000
0.001125 0.000143 0.000000
0.002807 0.000000 0.000000
0.002624 0.000003 0.000000
0.003462 0.000030 0.000000
0.003148 0.000007 0.000000
0.006886 0.000478 0.000000
0.000562 0.002144 0.000000
0.000570 0.002173 0.000000
0.000578 0.002208 0.000000
0.008267 0.000547 0.000000
0.000586 0.002249 0.000000
0.008406 0.000546 0.000000
0.000605 0.002403 0.000000
0.008507 0.000542 0.000000
0.000633 0.002913 0.000000
0.008596 0.000533 0.000000
0.000637 0.003123 0.000000
0.008956 0.000492 0.000000
0.000635 0.003234 0.000000
0.009893 0.000370 0.000000
0.009846 0.000374 0.000000
0.009708 0.000394 0.000000
0.000629 0.003349 0.000000
0.009946 0.000370 0.000000
0.010125 0.000396 0.000000
0.010063 0.000384 0.000000
0.010249 0.000428 0.000000
0.010187 0.000411 0.000000
0.010420 0.000492 0.000000
0.010310 0.000448 0.000000
0.010543 0.000564 0.000000
0.010510 0.000540 0.000000
0.010584 0.000617 0.000000
0.010567 0.000590 0.000000
0.010596 0.000679 0.000000
0.010593 0.000647 0.000000
0.010582 0.000757 0.000000
0.010592 0.000716 0.000000
0.010401 0.001186 0.000000
0.010435 0.001120 0.000000
0.009762 0.001933 0.000000
0.010324 0.001306 0.000000
0.009514 0.002125 0.000000
0.009681 0.002006 0.000000
0.008786 0.002490 0.000000
0.009422 0.002177 0.000000
0.000624 0.003410 0.000000
0.000617 0.003473 0.000000
0.008606 0.002585 0.000000
0.000598 0.003607 0.000000
0.000586 0.003680 0.000000
0.008403 0.002698 0.000000
0.000572 0.003757 0.000000
0.000555 0.003839 0.000000
0.000516 0.004010 0.000000
0.000455 0.004297 0.000000
0.008206 0.002814 0.000000
0.004193 0.006252 0.000000
0.004654 0.005945 0.000000
0.007897 0.003014 0.000000
0.000440 0.004363 0.000000
0.003466 0.006614 0.000000
0.003706 0.006506 0.000000
0.002506 0.006992 0.000000
0.003235 0.006711 0.000000
0.001676 0.006971 0.000000
0.002399 0.007038 0.000000
0.001018 0.006878 0.000000
0.001072 0.006888 0.000000
0.001527 0.006946 0.000000
0.000423 0.004429 0.000000
0.000912 0.006853 0.000000
0.000805 0.006821 0.000000
0.000859 0.006838 0.000000
0.000698 0.006780 0.000000
0.000752 0.006802 0.000000
0.000374 0.006612 0.000000
0.000474 0.006674 0.000000
0.000301 0.006546 0.000000
0.000335 0.006580 0.000000
0.000221 0.006433 0.000000
0.000245 0.006473 0.000000
0.000121 0.006239 0.000000
0.000198 0.006390 0.000000
0.000059 0.006121 0.000000
0.000089 0.006180 0.000000
0.000019 0.006019 0.000000
0.000035 0.006068 0.000000
0.000002 0.005930 0.000000
0.000008 0.005973 0.000000
0.000006 0.005803 0.000000
0.000002 0.005845 0.000000
0.000042 0.005548 0.000000
0.000027 0.005661 0.000000
0.000106 0.005271 0.000000
0.000150 0.005145 0.000000
0.000127 0.005210 0.000000
0.000208 0.004998 0.000000
0.000177 0.005075 0.000000
0.000320 0.004731 0.000000
0.000403 0.004498 0.000000
0.000352 0.004647 0.000000
0.000380 0.004570 0.000000
0.000008 0.005973 0.150000
0.000002 0.005930 0.150000
0.000474 0.006674 0.150000
0.000698 0.006780 0.150000
0.001018 0.006878 0.150000
0.001072 0.006888 0.150000
0.002399 0.007038 0.150000
0.001527 0.006946 0.150000
0.001676 0.006971 0.150000
0.010510 0.000540 0.150000
0.010543 0.000564 0.150000
0.008206 0.002814 0.150000
0.008403 0.002698 0.150000
0.008606 0.002585 0.150000
0.008786 0.002490 0.150000
0.009514 0.002125 0.150000
0.009422 0.002177 0.150000
0.010324 0.001306 0.150000
0.009762 0.001933 0.150000
0.009681 0.002006 0.150000
0.010401 0.001186 0.150000
0.010582 0.000757 0.150000
0.010435 0.001120 0.150000
0.010596 0.000679 0.150000
0.010592 0.000716 0.150000
0.010584 0.000617 0.150000
0.010593 0.000647 0.150000
0.010567 0.000590 0.150000
0.010420 0.000492 0.150000
0.010249 0.000428 0.150000
0.010310 0.000448 0.150000
0.010125 0.000396 0.150000
0.010187 0.000411 0.150000
0.009946 0.000370 0.150000
0.010063 0.000384 0.150000
0.009846 0.000374 0.150000
0.009893 0.000370 0.150000
0.009708 0.000394 0.150000
0.008956 0.000492 0.150000
0.008596 0.000533 0.150000
0.008507 0.000542 0.150000
0.007897 0.003014 0.150000
0.004654 0.005945 0.150000
0.004193 0.006252 0.150000
0.008406 0.000546 0.150000
0.008267 0.000547 0.150000
0.003706 0.006506 0.150000
0.003466 0.006614 0.150000
0.003235 0.006711 0.150000
0.002506 0.006992 0.150000
0.003148 0.000007 0.150000
0.003462 0.000030 0.150000
0.006886 0.000478 0.150000
0.000912 0.006853 0.150000
0.000859 0.006838 0.150000
0.000805 0.006821 0.150000
0.000752 0.006802 0.150000
0.000374 0.006612 0.150000
0.000335 0.006580 0.150000
0.000301 0.006546 0.150000
0.000245 0.006473 0.150000
0.000221 0.006433 0.150000
0.000198 0.006390 0.150000
0.000121 0.006239 0.150000
0.000089 0.006180 0.150000
0.000059 0.006121 0.150000
0.000035 0.006068 0.150000
0.000019 0.006019 0.150000
0.000002 0.005845 0.150000
0.000006 0.005803 0.150000
0.000027 0.005661 0.150000
0.000042 0.005548 0.150000
0.000106 0.005271 0.150000
0.000127 0.005210 0.150000
0.000150 0.005145 0.150000
0.000177 0.005075 0.150000
0.000208 0.004998 0.150000
0.000320 0.004731 0.150000
0.002807 0.000000 0.150000
0.001533 0.000079 0.150000
0.002624 0.000003 0.150000
0.001020 0.000171 0.150000
0.001125 0.000143 0.150000
0.000867 0.000240 0.150000
0.000933 0.000204 0.150000
0.000690 0.000461 0.150000
0.000821 0.000282 0.150000
0.000482 0.000771 0.150000
0.000584 0.000612 0.150000
0.000345 0.001044 0.150000
0.000367 0.000987 0.150000
0.000337 0.001145 0.150000
0.000336 0.001092 0.150000
0.000362 0.001315 0.150000
0.000346 0.001222 0.150000
0.000541 0.002077 0.150000
0.000383 0.001420 0.150000
0.000556 0.002120 0.150000
0.000352 0.004647 0.150000
0.000562 0.002144 0.150000
0.000380 0.004570 0.150000
0.000570 0.002173 0.150000
0.000578 0.002208 0.150000
0.000403 0.004498 0.150000
0.000423 0.004429 0.150000
0.000586 0.002249 0.150000
0.000440 0.004363 0.150000
0.000455 0.004297 0.150000
0.000516 0.004010 0.150000
0.000555 0.003839 0.150000
0.000605 0.002403 0.150000
0.000633 0.002913 0.150000
0.000572 0.003757 0.150000
0.000637 0.003123 0.150000
0.000635 0.003234 0.150000
0.000586 0.003680 0.150000
0.000598 0.003607 0.150000
0.000629 0.003349 0.150000
0.000624 0.003410 0.150000
0.000617 0.003473 0.150000
3 0 1 2
3 0 2 3
3 4 5 6
3 4 6 7
3 8 9 4
3 10 11 8
3 12 13 10
3 14 15 12
3 16 17 14
3 18 19 16
3 20 21 18
3 22 23 20
3 24 25 22
3 26 24 22
3 22 20 18
3 18 16 14
3 14 12 10
3 10 8 4
3 4 7 27
3 4 27 28
3 14 10 4
3 22 18 14
3 26 22 14
3 14 4 28
3 14 28 29
3 30 26 14
3 30 14 29
3 30 29 31
3 32 30 31
3 32 31 33
3 34 32 33
3 34 33 35
3 36 34 35
3 36 35 37
3 38 36 37
3 38 37 39
3 40 41 42
3 42 38 39
3 42 39 43
3 44 40 42
3 45 46 44
3 47 48 45
3 49 50 47
3 51 52 49
3 53 54 51
3 55 56 53
3 57 58 55
3 59 60 57
3 61 62 59
3 63 64 61
3 65 66 63
3 65 63 61
3 61 59 57
3 57 55 53
3 53 51 49
3 49 47 45
3 45 44 42
3 42 43 67
3 42 67 68
3 49 45 42
3 57 53 49
3 65 61 57
3 69 65 57
3 57 49 42
3 42 68 70
3 42 70 71
3 69 57 42
3 72 69 42
3 42 71 73
3 74 75 76
3 42 73 74
3 77 72 42
3 78 79 80
3 80 77 42
3 42 74 76
3 42 76 81
3 78 80 42
3 82 83 78
3 84 85 82
3 86 87 84
3 88 89 90
3 90 86 84
3 84 82 78
3 78 42 81
3 78 81 91
3 90 84 78
3 92 88 90
3 93 94 92
3 95 96 93
3 97 98 95
3 99 100 97
3 101 102 99
3 103 104 101
3 105 106 103
3 107 108 105
3 109 110 107
3 111 112 109
3 0 113 114
3 114 111 109
3 109 107 105
3 103 101 99
3 109 105 103
3 0 114 109
3 115 1 0
3 116 117 115
3 118 119 116
3 120 118 116
3 116 115 0
3 0 109 103
3 103 99 97
3 97 95 93
3 93 92 90
3 90 78 91
3 90 91 121
3 97 93 90
3 0 103 97
3 120 116 0
3 122 120 0
3 0 97 90
3 90 121 123
3 122 0 90
3 123 122 90
3 124 110 109
3 124 109 125
3 95 98 126
3 95 126 127
3 86 90 89
3 89 88 128
3 89 128 129
3 130 87 86
3 86 89 129
3 86 129 131
3 132 130 86
3 131 132 86
3 133 52 51
3 133 51 134
3 72 77 135
3 72 135 136
3 69 72 136
3 69 136 137
3 65 69 137
3 65 137 138
3 139 63 66
3 66 65 138
3 140 139 66
3 138 140 66
3 141 142 143
3 143 139 140
3 143 140 138
3 144 141 143
3 145 146 144
3 147 148 145
3 149 150 147
3 134 151 149
3 152 133 134
3 153 154 152
3 155 156 153
3 157 158 155
3 159 160 157
3 161 159 157
3 157 155 153
3 153 152 134
3 134 149 147
3 147 145 144
3 144 143 138
3 144 138 137
3 134 147 144
3 157 153 134
3 162 161 157
3 162 157 134
3 134 144 137
3 134 137 136
3 163 162 134
3 164 163 134
3 134 136 135
3 165 166 167
3 134 135 165
3 168 164 134
3 169 168 134
3 134 165 167
3 167 170 171
3 171 172 173
3 173 130 132
3 131 129 128
3 173 132 131
3 167 171 173
3 169 134 167
3 174 175 176
3 176 169 167
3 167 173 131
3 131 128 177
3 177 178 179
3 179 180 127
3 127 126 181
3 181 182 183
3 183 184 185
3 185 186 187
3 187 188 189
3 189 190 191
3 191 124 125
3 125 192 193
3 194 195 3
3 125 193 194
3 189 191 125
3 183 185 187
3 187 189 125
3 125 194 3
3 3 2 196
3 196 197 198
3 198 199 200
3 198 200 201
3 3 196 198
3 187 125 3
3 181 183 187
3 179 127 181
3 131 177 179
3 176 167 131
3 202 174 176
3 203 204 202
3 205 206 203
3 207 208 205
3 209 210 207
3 211 212 209
3 213 214 211
3 215 216 213
3 217 218 215
3 219 220 217
3 221 219 217
3 217 215 213
3 213 211 209
3 209 207 205
3 205 203 202
3 202 176 131
3 131 179 181
3 181 187 3
3 3 198 201
3 3 201 222
3 131 181 3
3 205 202 131
3 213 209 205
3 221 217 213
3 223 221 213
3 213 205 131
3 131 3 222
3 131 222 224
3 225 223 213
3 226 225 213
3 131 224 227
3 131 227 228
3 226 213 131
3 229 226 131
3 131 228 230
3 231 232 233
3 131 230 231
3 234 229 131
3 235 234 131
3 131 231 233
3 131 233 236
3 237 235 131
3 238 237 131
3 131 236 239
3 131 239 240
3 241 238 131
3 242 241 131
3 131 240 243
3 131 243 242
3 141 62 61
3 141 61 142
3 21 20 203
3 21 203 206
3 148 58 57
3 148 57 145
3 41 40 160
3 41 160 159
3 42 41 159
3 42 159 161
3 38 42 161
3 38 161 162
3 164 34 36
3 36 38 162
3 163 164 36
3 162 163 36
3 32 34 164
3 32 164 168
3 30 32 168
3 30 168 169
3 26 30 169
3 26 169 176
3 174 25 24
3 24 26 176
3 175 174 24
3 176 175 24
3 152 49 52
3 152 52 133
3 150 56 55
3 150 55 147
3 165 80 79
3 165 79 166
3 190 108 107
3 190 107 191
3 181 97 100
3 181 100 182
3 151 54 53
3 151 53 149
3 160 40 44
3 160 44 157
3 208 19 18
3 208 18 205
3 182 100 99
3 182 99 183
3 22 25 174
3 22 174 202
3 203 20 23
3 23 22 202
3 204 203 23
3 202 204 23
3 146 60 59
3 146 59 144
3 62 141 144
3 62 144 59
3 46 158 157
3 46 157 44
3 221 7 6
3 221 6 219
3 97 181 126
3 97 126 98
3 71 70 240
3 71 240 239
3 73 71 239
3 73 239 236
3 74 73 236
3 74 236 233
3 75 74 233
3 75 233 232
3 76 75 232
3 76 232 231
3 81 76 231
3 81 231 230
3 227 121 91
3 91 81 230
3 228 227 91
3 230 228 91
3 216 11 10
3 216 10 213
3 105 108 190
3 105 190 189
3 103 105 189
3 103 189 188
3 102 101 103
3 185 184 102
3 186 185 102
3 102 103 188
3 187 186 102
3 188 187 102
3 80 165 135
3 80 135 77
3 178 177 92
3 178 92 94
3 179 178 94
3 179 94 93
3 95 127 180
3 180 179 93
3 96 95 180
3 93 96 180
3 213 10 13
3 213 13 214
3 85 84 87
3 87 130 173
3 87 173 172
3 85 87 172
3 171 170 83
3 85 172 171
3 171 83 82
3 171 82 85
3 102 184 183
3 102 183 99
3 226 229 31
3 226 31 29
3 225 226 29
3 225 29 28
3 7 221 223
3 223 225 28
3 27 7 223
3 28 27 223
3 205 18 21
3 205 21 206
3 149 53 56
3 149 56 150
3 47 50 154
3 47 154 153
3 48 47 153
3 48 153 156
3 158 46 45
3 45 48 156
3 155 158 45
3 45 156 155
3 123 121 227
3 123 227 224
3 122 123 224
3 122 224 222
3 120 122 222
3 120 222 201
3 118 120 201
3 118 201 200
3 119 118 200
3 119 200 199
3 116 119 199
3 116 199 198
3 117 116 198
3 117 198 197
3 2 1 115
3 115 117 197
3 196 2 115
3 197 196 115
3 60 146 145
3 60 145 57
3 78 83 170
3 78 170 167
3 154 50 49
3 154 49 152
3 43 39 37
3 37 35 33
3 33 234 235
3 33 235 237
3 43 37 33
3 238 241 43
3 33 237 238
3 33 238 43
3 4 9 218
3 4 218 217
3 219 6 5
3 5 4 217
3 220 219 5
3 5 217 220
3 215 8 11
3 215 11 216
3 113 0 3
3 113 3 195
3 114 113 195
3 114 195 194
3 192 112 111
3 111 114 194
3 193 192 111
3 194 193 111
3 112 192 125
3 112 125 109
3 14 17 210
3 14 210 209
3 211 12 15
3 15 14 209
3 212 211 15
3 209 212 15
3 13 12 211
3 13 211 214
3 142 61 64
3 142 64 143
3 134 51 54
3 134 54 151
3 67 43 241
3 67 241 242
3 240 70 68
3 68 67 242
3 243 240 68
3 242 243 68
3 210 17 16
3 210 16 207
3 166 79 78
3 166 78 167
3 147 55 58
3 147 58 148
3 143 64 63
3 143 63 139
3 191 107 110
3 191 110 124
3 218 9 8
3 218 8 215
3 207 16 19
3 207 19 208
3 128 88 92
3 128 92 177
3 31 229 234
3 31 234 33
