ply
format ascii 1.0
comment Created by Blender 3.6.8 - www.blender.org
element vertex 212
property float x
property float y
property float z
element face 420
property list uchar uint vertex_indices
end_header
0.009439 0.000080 0.150000
0.009439 0.000080 0.000000
0.009502 0.000038 0.000000
0.009502 0.000038 0.150000
0.003015 0.007679 0.150000
0.003015 0.007679 0.000000
0.002930 0.007712 0.000000
0.002930 0.007712 0.150000
0.011416 0.001713 0.000000
0.011416 0.001713 0.150000
0.011401 0.001534 0.150000
0.011401 0.001534 0.000000
0.003106 0.007655 0.150000
0.003106 0.007655 0.000000
0.000684 0.008451 0.150000
0.000684 0.008451 0.000000
0.000606 0.008442 0.000000
0.000606 0.008442 0.150000
0.001579 0.005542 0.150000
0.001579 0.005542 0.000000
0.001743 0.005370 0.000000
0.001743 0.005370 0.150000
0.009825 0.005289 0.150000
0.009950 0.005117 0.150000
0.009950 0.005117 0.000000
0.009825 0.005289 0.000000
0.008766 0.006573 0.150000
0.008766 0.006573 0.000000
0.008695 0.006653 0.150000
0.008695 0.006653 0.000000
0.008547 0.006803 0.000000
0.008547 0.006803 0.150000
0.008622 0.006730 0.150000
0.008622 0.006730 0.000000
0.006510 0.007823 0.150000
0.006510 0.007823 0.000000
0.006255 0.007832 0.000000
0.006255 0.007832 0.150000
0.009767 0.000007 0.000000
0.010854 0.000304 0.000000
0.010854 0.000304 0.150000
0.009767 0.000007 0.150000
0.007674 0.007481 0.000000
0.007572 0.007522 0.000000
0.006966 0.007729 0.000000
0.006884 0.007755 0.000000
0.006884 0.007755 0.150000
0.006966 0.007729 0.150000
0.007674 0.007481 0.150000
0.007572 0.007522 0.150000
0.009575 0.000011 0.000000
0.009575 0.000011 0.150000
0.007912 0.007346 0.000000
0.007912 0.007346 0.150000
0.001452 0.008388 0.000000
0.001240 0.008417 0.000000
0.001240 0.008417 0.150000
0.001452 0.008388 0.150000
0.001883 0.008296 0.150000
0.001883 0.008296 0.000000
0.001668 0.008348 0.000000
0.001668 0.008348 0.150000
0.001941 0.005189 0.000000
0.002163 0.005001 0.000000
0.002402 0.004812 0.000000
0.002402 0.004812 0.150000
0.002163 0.005001 0.150000
0.001941 0.005189 0.150000
0.006712 0.007797 0.000000
0.006712 0.007797 0.150000
0.000008 0.008000 0.000000
0.000000 0.007991 0.000000
0.000000 0.007991 0.150000
0.000008 0.008000 0.150000
0.000029 0.008025 0.000000
0.000029 0.008025 0.150000
0.000064 0.008063 0.000000
0.000064 0.008063 0.150000
0.000109 0.008110 0.000000
0.000109 0.008110 0.150000
0.000227 0.008221 0.150000
0.000227 0.008221 0.000000
0.000164 0.008164 0.000000
0.000164 0.008164 0.150000
0.001137 0.008428 0.150000
0.001037 0.008437 0.150000
0.000850 0.008447 0.150000
0.000764 0.008450 0.150000
0.000527 0.008417 0.150000
0.000448 0.008379 0.150000
0.000370 0.008332 0.150000
0.000020 0.007884 0.150000
0.000077 0.007737 0.150000
0.000165 0.007557 0.150000
0.000280 0.007351 0.150000
0.000418 0.007125 0.150000
0.000572 0.006885 0.150000
0.000738 0.006639 0.150000
0.001087 0.006154 0.150000
0.001260 0.005928 0.150000
0.001426 0.005722 0.150000
0.002901 0.004447 0.150000
0.003374 0.004130 0.150000
0.003580 0.004002 0.150000
0.003757 0.003899 0.150000
0.003895 0.003827 0.150000
0.006041 0.003094 0.150000
0.002254 0.008147 0.150000
0.002081 0.008229 0.150000
0.002410 0.008054 0.150000
0.002334 0.008102 0.150000
0.002556 0.007955 0.150000
0.002484 0.008005 0.150000
0.002628 0.007904 0.150000
0.006777 0.002749 0.150000
0.002701 0.007854 0.150000
0.002774 0.007804 0.150000
0.002850 0.007755 0.150000
0.006906 0.002675 0.150000
0.007026 0.002598 0.150000
0.007133 0.002520 0.150000
0.008203 0.001545 0.150000
0.008266 0.001475 0.150000
0.008323 0.001407 0.150000
0.008655 0.000978 0.150000
0.008864 0.000730 0.150000
0.003306 0.007632 0.150000
0.009129 0.000451 0.150000
0.009203 0.000361 0.150000
0.009325 0.000201 0.150000
0.009381 0.000135 0.150000
0.007763 0.007438 0.150000
0.010762 0.003766 0.150000
0.010654 0.003967 0.150000
0.011230 0.002726 0.150000
0.010869 0.003549 0.150000
0.011379 0.002239 0.150000
0.011302 0.002533 0.150000
0.011407 0.002021 0.150000
0.011388 0.001445 0.150000
0.011252 0.000783 0.150000
0.011372 0.001354 0.150000
0.011169 0.000546 0.150000
0.011217 0.000652 0.150000
0.011035 0.000396 0.150000
0.011108 0.000462 0.150000
0.010950 0.000345 0.150000
0.009662 0.000000 0.150000
0.011302 0.002533 0.000000
0.011379 0.002239 0.000000
0.008864 0.000730 0.000000
0.009129 0.000451 0.000000
0.009203 0.000361 0.000000
0.009325 0.000201 0.000000
0.009381 0.000135 0.000000
0.008266 0.001475 0.000000
0.008323 0.001407 0.000000
0.008655 0.000978 0.000000
0.008203 0.001545 0.000000
0.000527 0.008417 0.000000
0.000448 0.008379 0.000000
0.002850 0.007755 0.000000
0.007763 0.007438 0.000000
0.009662 0.000000 0.000000
0.002334 0.008102 0.000000
0.002254 0.008147 0.000000
0.002410 0.008054 0.000000
0.002484 0.008005 0.000000
0.002556 0.007955 0.000000
0.002628 0.007904 0.000000
0.002701 0.007854 0.000000
0.002774 0.007804 0.000000
0.003306 0.007632 0.000000
0.001137 0.008428 0.000000
0.001037 0.008437 0.000000
0.000850 0.008447 0.000000
0.000764 0.008450 0.000000
0.011407 0.002021 0.000000
0.007133 0.002520 0.000000
0.011108 0.000462 0.000000
0.011169 0.000546 0.000000
0.002081 0.008229 0.000000
0.010950 0.000345 0.000000
0.011035 0.000396 0.000000
0.010654 0.003967 0.000000
0.003757 0.003899 0.000000
0.003895 0.003827 0.000000
0.003580 0.004002 0.000000
0.003374 0.004130 0.000000
0.002901 0.004447 0.000000
0.000165 0.007557 0.000000
0.000280 0.007351 0.000000
0.000418 0.007125 0.000000
0.000077 0.007737 0.000000
0.011230 0.002726 0.000000
0.010869 0.003549 0.000000
0.010762 0.003766 0.000000
0.006041 0.003094 0.000000
0.006777 0.002749 0.000000
0.000020 0.007884 0.000000
0.000370 0.008332 0.000000
0.006906 0.002675 0.000000
0.007026 0.002598 0.000000
0.011217 0.000652 0.000000
0.011388 0.001445 0.000000
0.011372 0.001354 0.000000
0.011252 0.000783 0.000000
0.001426 0.005722 0.000000
0.001260 0.005928 0.000000
0.001087 0.006154 0.000000
0.000738 0.006639 0.000000
0.000572 0.006885 0.000000
3 0 1 2
3 0 2 3
3 4 5 6
3 4 6 7
3 8 9 10
3 8 10 11
3 12 13 5
3 12 5 4
3 14 15 16
3 14 16 17
3 18 19 20
3 18 20 21
3 22 23 24
3 22 24 25
3 26 22 25
3 26 25 27
3 28 26 27
3 28 27 29
3 30 31 32
3 32 28 29
3 33 30 32
3 29 33 32
3 34 35 36
3 34 36 37
3 38 39 40
3 38 40 41
3 42 43 44
3 44 45 46
3 44 46 47
3 48 42 44
3 44 47 49
3 44 49 48
3 3 2 50
3 3 50 51
3 30 52 53
3 30 53 31
3 54 55 56
3 54 56 57
3 58 59 60
3 60 54 57
3 61 58 60
3 60 57 61
3 62 63 64
3 64 65 66
3 67 21 20
3 64 66 67
3 20 62 64
3 64 67 20
3 46 45 68
3 46 68 69
3 70 71 72
3 70 72 73
3 74 70 73
3 74 73 75
3 76 74 75
3 76 75 77
3 78 76 77
3 78 77 79
3 80 81 82
3 82 78 79
3 83 80 82
3 79 83 82
3 58 61 57
3 57 56 84
3 84 85 86
3 86 87 14
3 14 17 88
3 88 89 90
3 90 80 83
3 83 79 77
3 77 75 73
3 73 72 91
3 91 92 93
3 93 94 95
3 95 96 97
3 97 98 99
3 99 100 18
3 18 21 67
3 67 66 65
3 65 101 102
3 102 103 104
3 104 105 106
3 102 104 106
3 67 65 102
3 99 18 67
3 95 97 99
3 91 93 95
3 77 73 91
3 90 83 77
3 14 88 90
3 84 86 14
3 58 57 84
3 107 108 58
3 109 110 107
3 111 112 109
3 113 111 109
3 109 107 58
3 58 84 14
3 14 90 77
3 77 91 95
3 95 99 67
3 67 102 106
3 67 106 114
3 77 95 67
3 58 14 77
3 113 109 58
3 115 113 58
3 58 77 67
3 58 67 114
3 116 115 58
3 117 116 58
3 58 114 118
3 58 118 119
3 117 58 119
3 117 119 120
3 7 117 120
3 7 120 121
3 4 7 121
3 4 121 122
3 12 4 122
3 123 124 125
3 12 122 123
3 34 37 126
3 126 12 123
3 123 125 127
3 128 129 130
3 126 123 127
3 128 130 0
3 126 127 128
3 69 34 126
3 47 46 69
3 48 49 47
3 53 131 48
3 32 31 53
3 26 28 32
3 23 22 26
3 132 133 23
3 134 135 132
3 136 137 134
3 9 138 136
3 139 10 9
3 140 141 139
3 142 143 140
3 144 145 142
3 40 146 144
3 147 41 40
3 3 51 147
3 128 0 3
3 69 126 128
3 48 47 69
3 32 53 48
3 23 26 32
3 134 132 23
3 9 136 134
3 140 139 9
3 144 142 140
3 147 40 144
3 128 3 147
3 48 69 128
3 23 32 48
3 9 134 23
3 144 140 9
3 128 147 144
3 23 48 128
3 144 9 23
3 128 144 23
3 148 137 136
3 148 136 149
3 150 151 152
3 153 154 130
3 150 152 153
3 155 156 157
3 150 153 130
3 158 155 157
3 157 150 130
3 157 130 129
3 121 158 157
3 122 121 157
3 157 129 128
3 157 128 127
3 123 122 157
3 124 123 157
3 157 127 125
3 157 125 124
3 68 35 34
3 68 34 69
3 88 159 160
3 88 160 89
3 7 6 161
3 7 161 117
3 162 131 53
3 162 53 52
3 147 163 38
3 147 38 41
3 131 162 42
3 131 42 48
3 164 165 107
3 164 107 110
3 166 164 110
3 166 110 109
3 167 166 109
3 167 109 112
3 168 167 112
3 168 112 111
3 169 168 111
3 169 111 113
3 170 169 113
3 170 113 115
3 117 161 171
3 171 170 115
3 116 117 171
3 115 116 171
3 13 12 126
3 13 126 172
3 84 56 55
3 84 55 173
3 85 84 173
3 85 173 174
3 86 85 174
3 86 174 175
3 15 14 87
3 87 86 175
3 176 15 87
3 175 176 87
3 17 16 159
3 17 159 88
3 8 177 138
3 8 138 9
3 51 50 163
3 51 163 147
3 36 172 126
3 36 126 37
3 178 158 121
3 178 121 120
3 130 154 1
3 130 1 0
3 145 179 180
3 145 180 142
3 165 181 108
3 165 108 107
3 146 182 183
3 146 183 144
3 144 183 179
3 144 179 145
3 138 177 149
3 138 149 136
3 184 24 23
3 184 23 133
3 185 186 105
3 185 105 104
3 187 185 104
3 187 104 103
3 188 187 103
3 188 103 102
3 65 64 189
3 189 188 102
3 101 65 189
3 102 101 189
3 190 191 192
3 192 95 94
3 93 92 193
3 192 94 93
3 193 190 192
3 192 93 193
3 134 137 148
3 134 148 194
3 135 134 194
3 135 194 195
3 184 133 132
3 132 135 195
3 196 184 132
3 195 196 132
3 197 198 114
3 197 114 106
3 72 71 199
3 72 199 91
3 200 81 80
3 200 80 90
3 40 39 182
3 40 182 146
3 108 181 59
3 108 59 58
3 118 114 198
3 118 198 201
3 178 120 119
3 119 118 201
3 202 178 119
3 201 202 119
3 91 199 193
3 91 193 92
3 142 180 203
3 142 203 143
3 204 11 10
3 204 10 139
3 205 204 139
3 205 139 141
3 143 203 206
3 206 205 141
3 140 143 206
3 141 140 206
3 207 19 18
3 207 18 100
3 208 207 100
3 208 100 99
3 209 208 99
3 209 99 98
3 210 209 98
3 210 98 97
3 95 192 211
3 211 210 97
3 96 95 211
3 97 96 211
3 89 160 200
3 89 200 90
3 195 194 148
3 148 149 177
3 177 8 11
3 11 204 205
3 205 206 203
3 203 180 179
3 179 183 182
3 182 39 38
3 38 163 50
3 50 2 1
3 1 154 153
3 1 153 152
3 38 50 1
3 179 182 38
3 205 203 179
3 177 11 205
3 195 148 177
3 184 196 195
3 25 24 184
3 29 27 25
3 30 33 29
3 162 52 30
3 43 42 162
3 45 44 43
3 35 68 45
3 172 36 35
3 172 35 45
3 45 43 162
3 162 30 29
3 29 25 184
3 184 195 177
3 177 205 179
3 179 38 1
3 1 152 151
3 151 150 157
3 151 157 156
3 179 1 151
3 184 177 179
3 162 29 184
3 172 45 162
3 172 162 184
3 184 179 151
3 151 156 155
3 184 151 155
3 13 172 184
3 5 13 184
3 184 155 158
3 184 158 178
3 6 5 184
3 6 184 178
3 6 178 202
3 161 6 202
3 161 202 201
3 171 161 201
3 171 201 198
3 170 171 198
3 197 186 185
3 170 198 197
3 167 168 169
3 169 170 197
3 197 185 187
3 187 188 189
3 189 64 63
3 63 62 20
3 20 19 207
3 207 208 209
3 209 210 211
3 211 192 191
3 191 190 193
3 193 199 71
3 71 70 74
3 74 76 78
3 78 82 81
3 81 200 160
3 160 159 16
3 16 15 176
3 176 175 174
3 174 173 55
3 55 54 60
3 60 59 181
3 181 165 164
3 164 166 167
3 167 169 197
3 197 187 189
3 189 63 20
3 20 207 209
3 209 211 191
3 191 193 71
3 71 74 78
3 78 81 160
3 160 16 176
3 176 174 55
3 55 60 181
3 181 164 167
3 167 197 189
3 189 20 209
3 209 191 71
3 71 78 160
3 160 176 55
3 55 181 167
3 167 189 209
3 209 71 160
3 160 55 167
3 209 160 167
3 186 197 106
3 186 106 105
