ply
format ascii 1.0
comment Created by Blender 3.6.8 - www.blender.org
element vertex 168
property float x
property float y
property float z
element face 327
property list uchar uint vertex_indices
end_header
0.003218 0.005547 0.000000
0.002708 0.005938 0.000000
0.002708 0.005938 0.150000
0.003218 0.005547 0.150000
0.003962 0.003207 0.000000
0.003991 0.003326 0.000000
0.003991 0.003326 0.150000
0.003962 0.003207 0.150000
0.003787 0.002679 0.000000
0.003787 0.002679 0.150000
0.003624 0.002145 0.150000
0.003624 0.002145 0.000000
0.003656 0.002238 0.000000
0.003656 0.002238 0.150000
0.003984 0.003860 0.150000
0.003984 0.003860 0.000000
0.003942 0.004028 0.000000
0.003942 0.004028 0.150000
0.002462 0.006059 0.150000
0.002462 0.006059 0.000000
0.002408 0.006072 0.000000
0.002408 0.006072 0.150000
0.002579 0.006011 0.000000
0.002579 0.006011 0.150000
0.001671 0.005966 0.150000
0.001744 0.005984 0.150000
0.001744 0.005984 0.000000
0.001671 0.005966 0.000000
0.001607 0.005948 0.000000
0.001557 0.005929 0.000000
0.001557 0.005929 0.150000
0.001607 0.005948 0.150000
0.000278 0.003861 0.000000
0.000225 0.003739 0.000000
0.000199 0.003675 0.000000
0.000199 0.003675 0.150000
0.000225 0.003739 0.150000
0.000278 0.003861 0.150000
0.000305 0.003925 0.150000
0.000332 0.003994 0.150000
0.000332 0.003994 0.000000
0.000305 0.003925 0.000000
0.001195 0.000122 0.150000
0.001195 0.000122 0.000000
0.001275 0.000087 0.000000
0.001275 0.000087 0.150000
0.002719 0.000430 0.150000
0.002719 0.000430 0.000000
0.002767 0.000476 0.000000
0.002767 0.000476 0.150000
0.002863 0.000594 0.000000
0.002863 0.000594 0.150000
0.002130 0.000062 0.000000
0.002620 0.000354 0.000000
0.002620 0.000354 0.150000
0.002130 0.000062 0.150000
0.000376 0.000911 0.150000
0.000376 0.000911 0.000000
0.000496 0.000736 0.000000
0.000496 0.000736 0.150000
0.001814 0.000002 0.000000
0.001869 0.000000 0.000000
0.001869 0.000000 0.150000
0.001814 0.000002 0.150000
0.001754 0.000007 0.000000
0.001754 0.000007 0.150000
0.001613 0.000021 0.000000
0.001613 0.000021 0.150000
0.001441 0.000040 0.150000
0.001441 0.000040 0.000000
0.001529 0.000029 0.000000
0.001529 0.000029 0.150000
0.003628 0.004881 0.000000
0.003573 0.005008 0.000000
0.003573 0.005008 0.150000
0.003628 0.004881 0.150000
0.003685 0.004740 0.000000
0.003685 0.004740 0.150000
0.003880 0.004217 0.000000
0.003880 0.004217 0.150000
0.000406 0.004255 0.000000
0.000406 0.004255 0.150000
0.004009 0.003446 0.000000
0.004009 0.003446 0.150000
0.001040 0.000215 0.150000
0.001040 0.000215 0.000000
0.003463 0.005225 0.150000
0.003348 0.005402 0.150000
0.002358 0.006076 0.150000
0.002304 0.006074 0.150000
0.002237 0.006068 0.150000
0.002162 0.006060 0.150000
0.002080 0.006048 0.150000
0.001908 0.006019 0.150000
0.001824 0.006002 0.150000
0.000507 0.005310 0.150000
0.004016 0.003573 0.150000
0.004008 0.003710 0.150000
0.003435 0.001768 0.150000
0.003570 0.002019 0.150000
0.003102 0.000983 0.150000
0.003132 0.001040 0.150000
0.003036 0.000871 0.150000
0.003070 0.000927 0.150000
0.002958 0.000744 0.150000
0.002999 0.000810 0.150000
0.002912 0.000668 0.150000
0.002022 0.000019 0.150000
0.002074 0.000037 0.150000
0.001920 0.000001 0.150000
0.001971 0.000007 0.150000
0.001357 0.000059 0.150000
0.000887 0.000335 0.150000
0.000289 0.001095 0.150000
0.000006 0.002386 0.150000
0.000224 0.001298 0.150000
0.000007 0.002675 0.150000
0.000001 0.002492 0.150000
0.000031 0.002843 0.150000
0.000017 0.002759 0.150000
0.000063 0.003021 0.150000
0.000112 0.003347 0.150000
0.000095 0.003235 0.150000
0.000080 0.003122 0.150000
0.000130 0.003445 0.150000
0.000174 0.003607 0.150000
0.000152 0.003531 0.150000
0.003348 0.005402 0.000000
0.003463 0.005225 0.000000
0.004008 0.003710 0.000000
0.004016 0.003573 0.000000
0.002304 0.006074 0.000000
0.002358 0.006076 0.000000
0.002162 0.006060 0.000000
0.002237 0.006068 0.000000
0.001908 0.006019 0.000000
0.002080 0.006048 0.000000
0.001824 0.006002 0.000000
0.000507 0.005310 0.000000
0.003570 0.002019 0.000000
0.003435 0.001768 0.000000
0.003132 0.001040 0.000000
0.003102 0.000983 0.000000
0.003070 0.000927 0.000000
0.003036 0.000871 0.000000
0.002999 0.000810 0.000000
0.002958 0.000744 0.000000
0.002912 0.000668 0.000000
0.002074 0.000037 0.000000
0.002022 0.000019 0.000000
0.001971 0.000007 0.000000
0.001920 0.000001 0.000000
0.001357 0.000059 0.000000
0.000887 0.000335 0.000000
0.000289 0.001095 0.000000
0.000224 0.001298 0.000000
0.000006 0.002386 0.000000
0.000001 0.002492 0.000000
0.000007 0.002675 0.000000
0.000017 0.002759 0.000000
0.000031 0.002843 0.000000
0.000063 0.003021 0.000000
0.000080 0.003122 0.000000
0.000095 0.003235 0.000000
0.000112 0.003347 0.000000
0.000130 0.003445 0.000000
0.000152 0.003531 0.000000
0.000174 0.003607 0.000000
3 0 1 2
3 0 2 3
3 4 5 6
3 4 6 7
3 8 4 7
3 8 7 9
3 10 11 12
3 12 8 9
3 13 10 12
3 9 13 12
3 14 15 16
3 14 16 17
3 18 19 20
3 18 20 21
3 22 19 18
3 22 18 23
3 24 25 26
3 26 27 28
3 28 29 30
3 31 24 26
3 28 30 31
3 26 28 31
3 32 33 34
3 34 35 36
3 34 36 37
3 32 34 37
3 38 39 40
3 32 37 38
3 38 40 41
3 32 38 41
3 42 43 44
3 42 44 45
3 46 47 48
3 46 48 49
3 48 50 51
3 48 51 49
3 52 53 54
3 52 54 55
3 56 57 58
3 56 58 59
3 60 61 62
3 60 62 63
3 64 60 63
3 64 63 65
3 66 64 65
3 66 65 67
3 68 69 70
3 70 66 67
3 71 68 70
3 67 71 70
3 72 73 74
3 72 74 75
3 76 72 75
3 76 75 77
3 17 16 78
3 78 76 77
3 79 17 78
3 78 77 79
3 80 40 39
3 80 39 81
3 6 5 82
3 6 82 83
3 84 85 43
3 84 43 42
3 79 77 75
3 75 74 86
3 86 87 3
3 3 2 23
3 23 18 21
3 21 88 89
3 89 90 91
3 91 92 93
3 93 94 25
3 25 24 31
3 31 30 95
3 31 95 81
3 93 25 31
3 89 91 93
3 23 21 89
3 86 3 23
3 79 75 86
3 14 17 79
3 96 97 14
3 6 83 96
3 9 7 6
3 10 13 9
3 98 99 10
3 100 101 98
3 102 103 100
3 104 105 102
3 51 106 104
3 46 49 51
3 55 54 46
3 107 108 55
3 109 110 107
3 63 62 109
3 67 65 63
3 68 71 67
3 45 111 68
3 84 42 45
3 59 112 84
3 113 56 59
3 114 115 113
3 116 117 114
3 118 119 116
3 120 118 116
3 116 114 113
3 113 59 84
3 84 45 68
3 68 67 63
3 63 109 107
3 107 55 46
3 46 51 104
3 104 102 100
3 98 10 9
3 104 100 98
3 107 46 104
3 68 63 107
3 113 84 68
3 120 116 113
3 121 122 123
3 123 120 113
3 113 68 107
3 107 104 98
3 98 9 6
3 6 96 14
3 14 79 86
3 86 23 89
3 89 93 31
3 31 81 39
3 31 39 38
3 86 89 31
3 6 14 86
3 107 98 6
3 123 113 107
3 124 121 123
3 125 126 124
3 36 35 125
3 31 38 37
3 37 36 125
3 125 124 123
3 123 107 6
3 6 86 31
3 31 37 125
3 125 123 6
3 31 125 6
3 127 128 73
3 73 72 76
3 76 78 16
3 16 15 129
3 129 130 82
3 82 5 4
3 8 12 11
3 82 4 8
3 16 129 82
3 73 76 16
3 0 127 73
3 22 1 0
3 20 19 22
3 131 132 20
3 133 134 131
3 135 136 133
3 26 137 135
3 138 29 28
3 80 138 28
3 28 26 135
3 135 133 131
3 131 20 22
3 22 0 73
3 73 16 82
3 82 8 11
3 11 139 140
3 140 141 142
3 142 143 144
3 144 145 146
3 146 147 50
3 50 48 47
3 47 53 52
3 52 148 149
3 149 150 151
3 151 61 60
3 60 64 66
3 66 70 69
3 69 152 44
3 44 43 85
3 85 153 58
3 58 57 154
3 154 155 156
3 156 157 158
3 158 159 160
3 158 160 161
3 154 156 158
3 85 58 154
3 69 44 85
3 60 66 69
3 149 151 60
3 47 52 149
3 146 50 47
3 142 144 146
3 82 11 140
3 140 142 146
3 146 47 149
3 149 60 69
3 69 85 154
3 154 158 161
3 162 163 164
3 154 161 162
3 149 69 154
3 140 146 149
3 73 82 140
3 131 22 73
3 28 135 131
3 40 80 28
3 41 40 28
3 28 131 73
3 73 140 149
3 149 154 162
3 162 164 165
3 165 166 167
3 167 34 33
3 32 41 28
3 167 33 32
3 162 165 167
3 73 149 162
3 32 28 73
3 162 167 32
3 73 162 32
3 107 149 148
3 107 148 108
3 45 44 152
3 45 152 111
3 115 155 154
3 115 154 113
3 96 130 129
3 96 129 97
3 117 157 156
3 117 156 114
3 108 148 52
3 108 52 55
3 127 87 86
3 127 86 128
3 109 151 150
3 109 150 110
3 58 153 112
3 58 112 59
3 142 141 101
3 142 101 100
3 106 51 50
3 104 106 50
3 50 146 142
3 142 100 103
3 142 103 102
3 104 50 142
3 142 102 105
3 142 105 104
3 99 139 11
3 99 11 10
3 97 129 15
3 97 15 14
3 125 35 34
3 125 34 167
3 165 124 126
3 126 125 167
3 166 165 126
3 167 166 126
3 158 157 117
3 158 117 116
3 140 139 99
3 140 99 98
3 74 73 128
3 74 128 86
3 111 152 69
3 111 69 68
3 141 140 98
3 141 98 101
3 54 53 47
3 54 47 46
3 88 132 131
3 88 131 89
3 156 155 115
3 156 115 114
3 57 56 113
3 57 113 154
3 138 80 81
3 138 81 95
3 21 20 132
3 21 132 88
3 83 82 130
3 83 130 96
3 1 22 23
3 1 23 2
3 62 61 151
3 62 151 109
3 159 158 116
3 159 116 119
3 160 159 119
3 160 119 118
3 161 160 118
3 161 118 120
3 162 161 120
3 162 120 123
3 163 162 123
3 163 123 122
3 124 165 164
3 164 163 122
3 121 124 164
3 122 121 164
3 137 26 25
3 137 25 94
3 135 137 94
3 135 94 93
3 136 135 93
3 136 93 92
3 133 136 92
3 133 92 91
3 89 131 134
3 134 133 91
3 90 89 134
3 134 91 90
3 138 95 30
3 138 30 29
3 87 127 0
3 87 0 3
3 110 150 149
3 110 149 107
3 153 85 84
3 153 84 112
