ply
format ascii 1.0
comment Created by Blender 3.6.8 - www.blender.org
element vertex 198
property float x
property float y
property float z
element face 381
property list uchar uint vertex_indices
end_header
0.007911 0.006118 0.150000
0.007911 0.006118 0.000000
0.007805 0.006284 0.000000
0.007805 0.006284 0.150000
0.008426 0.004732 0.000000
0.008349 0.004961 0.000000
0.008214 0.005385 0.000000
0.008148 0.005581 0.000000
0.008079 0.005768 0.000000
0.008079 0.005768 0.150000
0.008503 0.004500 0.000000
0.008148 0.005581 0.150000
0.008214 0.005385 0.150000
0.008569 0.004277 0.000000
0.008349 0.004961 0.150000
0.008668 0.003855 0.150000
0.008668 0.003855 0.000000
0.008624 0.004063 0.000000
0.008426 0.004732 0.150000
0.008624 0.004063 0.150000
0.008569 0.004277 0.150000
0.008503 0.004500 0.150000
0.004763 0.000230 0.150000
0.004763 0.000230 0.000000
0.005179 0.000131 0.000000
0.005179 0.000131 0.150000
0.002615 0.001351 0.150000
0.002615 0.001351 0.000000
0.002769 0.001221 0.000000
0.002769 0.001221 0.150000
0.007679 0.006445 0.000000
0.007679 0.006445 0.150000
0.000544 0.007804 0.150000
0.000544 0.007804 0.000000
0.000476 0.007748 0.000000
0.000476 0.007748 0.150000
0.006692 0.000027 0.150000
0.006692 0.000027 0.000000
0.006825 0.000068 0.000000
0.006825 0.000068 0.150000
0.003527 0.008645 0.000000
0.004873 0.008212 0.000000
0.005083 0.008120 0.000000
0.005299 0.008015 0.000000
0.005747 0.007775 0.000000
0.005976 0.007642 0.000000
0.006208 0.007503 0.000000
0.006441 0.007358 0.000000
0.006674 0.007210 0.000000
0.007137 0.006907 0.000000
0.007349 0.006755 0.000000
0.007528 0.006601 0.000000
0.008759 0.003070 0.000000
0.008763 0.002881 0.000000
0.008761 0.002691 0.000000
0.008754 0.002501 0.000000
0.008742 0.002309 0.000000
0.008720 0.002125 0.000000
0.008679 0.001958 0.000000
0.008622 0.001804 0.000000
0.008549 0.001661 0.000000
0.008460 0.001524 0.000000
0.008238 0.001261 0.000000
0.008105 0.001128 0.000000
0.007449 0.000514 0.000000
0.007271 0.000352 0.000000
0.007111 0.000227 0.000000
0.006963 0.000134 0.000000
0.006561 0.000005 0.000000
0.006428 0.000000 0.000000
0.006290 0.000007 0.000000
0.005800 0.000062 0.000000
0.005388 0.000099 0.000000
0.003265 0.008695 0.000000
0.003011 0.008706 0.000000
0.003137 0.008706 0.000000
0.002755 0.008666 0.000000
0.002884 0.008693 0.000000
0.002110 0.008500 0.000000
0.002237 0.008534 0.000000
0.001859 0.008426 0.000000
0.001984 0.008464 0.000000
0.001617 0.008341 0.000000
0.001737 0.008386 0.000000
0.001384 0.008239 0.000000
0.001499 0.008293 0.000000
0.001165 0.008123 0.000000
0.003943 0.000544 0.000000
0.003740 0.000643 0.000000
0.003537 0.000748 0.000000
0.003334 0.000859 0.000000
0.003132 0.000975 0.000000
0.002346 0.001627 0.000000
0.002226 0.001775 0.000000
0.002111 0.001931 0.000000
0.001999 0.002095 0.000000
0.001519 0.002843 0.000000
0.001378 0.003069 0.000000
0.001231 0.003327 0.000000
0.001079 0.003608 0.000000
0.000926 0.003907 0.000000
0.000629 0.004527 0.000000
0.000360 0.005129 0.000000
0.000143 0.005656 0.000000
0.000061 0.005874 0.000000
0.000000 0.006051 0.000000
0.000009 0.006133 0.000000
0.000037 0.006347 0.000000
0.000082 0.006642 0.000000
0.000110 0.006804 0.000000
0.000142 0.006968 0.000000
0.000260 0.007409 0.000000
0.000306 0.007518 0.000000
0.000357 0.007606 0.000000
0.000414 0.007682 0.000000
0.000618 0.007854 0.000000
0.000696 0.007899 0.000000
0.000780 0.007942 0.000000
0.001062 0.008072 0.000000
0.000000 0.006051 0.150000
0.000009 0.006133 0.150000
0.000142 0.006968 0.150000
0.000110 0.006804 0.150000
0.000037 0.006347 0.150000
0.000082 0.006642 0.150000
0.008238 0.001261 0.150000
0.008460 0.001524 0.150000
0.008549 0.001661 0.150000
0.008622 0.001804 0.150000
0.008679 0.001958 0.150000
0.008720 0.002125 0.150000
0.008742 0.002309 0.150000
0.008754 0.002501 0.150000
0.008761 0.002691 0.150000
0.008763 0.002881 0.150000
0.008759 0.003070 0.150000
0.007528 0.006601 0.150000
0.007349 0.006755 0.150000
0.007137 0.006907 0.150000
0.006674 0.007210 0.150000
0.006441 0.007358 0.150000
0.006208 0.007503 0.150000
0.005976 0.007642 0.150000
0.005747 0.007775 0.150000
0.005299 0.008015 0.150000
0.005083 0.008120 0.150000
0.004873 0.008212 0.150000
0.003527 0.008645 0.150000
0.003265 0.008695 0.150000
0.003137 0.008706 0.150000
0.003011 0.008706 0.150000
0.002884 0.008693 0.150000
0.002755 0.008666 0.150000
0.002237 0.008534 0.150000
0.002110 0.008500 0.150000
0.001984 0.008464 0.150000
0.001859 0.008426 0.150000
0.001737 0.008386 0.150000
0.001617 0.008341 0.150000
0.001499 0.008293 0.150000
0.001384 0.008239 0.150000
0.001165 0.008123 0.150000
0.001062 0.008072 0.150000
0.000780 0.007942 0.150000
0.000696 0.007899 0.150000
0.000618 0.007854 0.150000
0.007449 0.000514 0.150000
0.008105 0.001128 0.150000
0.007111 0.000227 0.150000
0.007271 0.000352 0.150000
0.006963 0.000134 0.150000
0.006561 0.000005 0.150000
0.006290 0.000007 0.150000
0.006428 0.000000 0.150000
0.005388 0.000099 0.150000
0.005800 0.000062 0.150000
0.000414 0.007682 0.150000
0.000357 0.007606 0.150000
0.000306 0.007518 0.150000
0.000260 0.007409 0.150000
0.000061 0.005874 0.150000
0.000143 0.005656 0.150000
0.000360 0.005129 0.150000
0.000629 0.004527 0.150000
0.000926 0.003907 0.150000
0.001079 0.003608 0.150000
0.001231 0.003327 0.150000
0.001378 0.003069 0.150000
0.001519 0.002843 0.150000
0.001999 0.002095 0.150000
0.002111 0.001931 0.150000
0.002226 0.001775 0.150000
0.002346 0.001627 0.150000
0.003132 0.000975 0.150000
0.003334 0.000859 0.150000
0.003537 0.000748 0.150000
0.003740 0.000643 0.150000
0.003943 0.000544 0.150000
3 0 1 2
3 0 2 3
3 4 5 6
3 7 8 9
3 10 4 6
3 6 7 9
3 6 9 11
3 10 6 11
3 10 11 12
3 13 10 12
3 13 12 14
3 15 16 17
3 17 13 14
3 17 14 18
3 19 15 17
3 20 19 17
3 17 18 21
3 21 20 17
3 22 23 24
3 22 24 25
3 26 27 28
3 26 28 29
3 3 2 30
3 3 30 31
3 32 33 34
3 32 34 35
3 36 37 38
3 36 38 39
3 40 41 42
3 42 43 44
3 44 45 46
3 46 47 48
3 48 49 50
3 50 51 30
3 30 2 1
3 1 8 7
3 7 6 5
3 5 4 10
3 10 13 17
3 17 16 52
3 52 53 54
3 54 55 56
3 56 57 58
3 58 59 60
3 60 61 62
3 62 63 64
3 64 65 66
3 66 67 38
3 38 37 68
3 68 69 70
3 71 72 24
3 68 70 71
3 66 38 68
3 62 64 66
3 58 60 62
3 54 56 58
3 17 52 54
3 5 10 17
3 1 7 5
3 50 30 1
3 46 48 50
3 42 44 46
3 73 40 42
3 74 75 73
3 76 77 74
3 78 79 76
3 80 81 78
3 82 83 80
3 84 85 82
3 86 84 82
3 82 80 78
3 78 76 74
3 74 73 42
3 42 46 50
3 50 1 5
3 5 17 54
3 54 58 62
3 62 66 68
3 68 71 24
3 24 23 87
3 87 88 89
3 89 90 91
3 91 28 27
3 27 92 93
3 93 94 95
3 95 96 97
3 97 98 99
3 99 100 101
3 101 102 103
3 103 104 105
3 105 106 107
3 107 108 109
3 109 110 111
3 111 112 113
3 113 114 34
3 34 33 115
3 115 116 117
3 118 86 82
3 115 117 118
3 113 34 115
3 109 111 113
3 105 107 109
3 101 103 105
3 97 99 101
3 93 95 97
3 91 27 93
3 87 89 91
3 68 24 87
3 54 62 68
3 50 5 54
3 74 42 50
3 82 78 74
3 115 118 82
3 109 113 115
3 101 105 109
3 93 97 101
3 87 91 93
3 54 68 87
3 74 50 54
3 115 82 74
3 101 109 115
3 87 93 101
3 74 54 87
3 101 115 74
3 87 101 74
3 108 107 106
3 106 105 119
3 106 119 120
3 109 108 106
3 121 110 109
3 122 121 109
3 109 106 120
3 109 120 123
3 124 122 109
3 123 124 109
3 125 126 127
3 127 128 129
3 129 130 131
3 131 132 133
3 133 134 135
3 135 15 19
3 19 20 21
3 21 18 14
3 14 12 11
3 11 9 0
3 0 3 31
3 31 136 137
3 137 138 139
3 139 140 141
3 141 142 143
3 143 144 145
3 145 146 147
3 147 148 149
3 149 150 151
3 151 152 153
3 153 154 155
3 155 156 157
3 157 158 159
3 159 160 161
3 162 163 164
3 157 159 161
3 162 164 165
3 157 161 162
3 153 155 157
3 149 151 153
3 145 147 149
3 141 143 145
3 137 139 141
3 0 31 137
3 14 11 0
3 19 21 14
3 133 135 19
3 129 131 133
3 125 127 129
3 166 167 125
3 168 169 166
3 39 170 168
3 171 36 39
3 172 173 171
3 25 174 175
3 175 172 171
3 171 39 168
3 168 166 125
3 125 129 133
3 133 19 14
3 14 0 137
3 137 141 145
3 145 149 153
3 153 157 162
3 162 165 32
3 32 35 176
3 176 177 178
3 178 179 121
3 121 122 124
3 124 123 120
3 120 119 180
3 180 181 182
3 182 183 184
3 184 185 186
3 186 187 188
3 188 189 190
3 190 191 192
3 192 26 29
3 29 193 194
3 194 195 196
3 196 197 22
3 22 25 175
3 175 171 168
3 168 125 133
3 133 14 137
3 137 145 153
3 153 162 32
3 32 176 178
3 178 121 124
3 124 120 180
3 180 182 184
3 184 186 188
3 188 190 192
3 192 29 194
3 194 196 22
3 22 175 168
3 168 133 137
3 137 153 32
3 32 178 124
3 124 180 184
3 184 188 192
3 192 194 22
3 22 168 137
3 137 32 124
3 124 184 192
3 192 22 137
3 137 124 192
3 86 118 117
3 116 115 165
3 84 86 117
3 117 116 165
3 117 165 164
3 84 117 164
3 84 164 163
3 158 82 85
3 85 84 163
3 85 163 162
3 159 158 85
3 160 159 85
3 85 162 161
3 161 160 85
3 93 92 192
3 93 192 191
3 94 93 191
3 94 191 190
3 95 94 190
3 95 190 189
3 187 97 96
3 96 95 189
3 188 187 96
3 189 188 96
3 136 51 50
3 136 50 137
3 125 62 61
3 125 61 126
3 150 74 77
3 150 77 151
3 71 70 69
3 69 173 172
3 69 172 175
3 71 69 175
3 174 25 24
3 71 175 174
3 71 174 24
3 178 112 111
3 178 111 179
3 83 82 158
3 83 158 157
3 80 83 157
3 80 157 156
3 81 80 156
3 81 156 155
3 78 81 155
3 78 155 154
3 79 78 154
3 79 154 153
3 151 77 76
3 76 79 153
3 152 151 76
3 153 152 76
3 149 75 74
3 149 74 150
3 177 113 112
3 177 112 178
3 44 143 142
3 44 142 141
3 48 46 44
3 138 137 50
3 139 138 50
3 50 48 44
3 44 141 140
3 140 139 50
3 44 140 50
3 127 60 59
3 127 59 128
3 42 41 146
3 42 146 145
3 143 44 43
3 43 42 145
3 144 143 43
3 43 145 144
3 8 1 0
3 8 0 9
3 129 58 57
3 129 57 130
3 97 187 186
3 97 186 185
3 180 119 105
3 181 180 105
3 101 97 185
3 101 185 184
3 181 105 101
3 182 181 101
3 101 184 183
3 183 182 101
3 147 40 73
3 147 73 148
3 128 59 58
3 128 58 129
3 165 115 33
3 165 33 32
3 35 34 114
3 35 114 176
3 126 61 60
3 126 60 127
3 173 69 68
3 173 68 171
3 52 16 15
3 52 15 135
3 87 23 22
3 87 22 197
3 39 38 67
3 39 67 170
3 130 57 56
3 130 56 131
3 31 30 51
3 31 51 136
3 28 91 193
3 28 193 29
3 41 40 147
3 41 147 146
3 87 197 196
3 87 196 195
3 90 89 87
3 193 91 90
3 87 195 194
3 194 193 90
3 87 194 90
3 27 26 192
3 27 192 92
3 148 73 75
3 148 75 149
3 176 114 113
3 176 113 177
3 53 52 135
3 53 135 134
3 54 53 134
3 54 134 133
3 131 56 55
3 55 54 133
3 132 131 55
3 133 132 55
3 168 66 65
3 168 65 169
3 170 67 66
3 170 66 168
3 171 68 37
3 171 37 36
3 65 64 63
3 63 62 125
3 63 125 167
3 169 65 63
3 63 167 166
3 63 166 169
3 111 110 121
3 111 121 179
