ply
format ascii 1.0
comment Created by Blender 3.6.8 - www.blender.org
element vertex 216
property float x
property float y
property float z
element face 424
property list uchar uint vertex_indices
end_header
0.003893 0.004032 0.000000
0.004266 0.003091 0.000000
0.004322 0.002944 0.000000
0.004372 0.002802 0.000000
0.004418 0.002666 0.000000
0.004459 0.002533 0.000000
0.004494 0.002402 0.000000
0.004523 0.002274 0.000000
0.004546 0.002146 0.000000
0.004563 0.002017 0.000000
0.004584 0.001762 0.000000
0.004599 0.001648 0.000000
0.004666 0.001261 0.000000
0.004676 0.001173 0.000000
0.004678 0.001083 0.000000
0.004670 0.000991 0.000000
0.003800 0.004279 0.000000
0.004652 0.000894 0.000000
0.004621 0.000791 0.000000
0.004402 0.000278 0.000000
0.004359 0.000201 0.000000
0.004311 0.000135 0.000000
0.004252 0.000082 0.000000
0.004181 0.000041 0.000000
0.004093 0.000014 0.000000
0.003985 0.000001 0.000000
0.003855 0.000004 0.000000
0.003698 0.000023 0.000000
0.003331 0.000083 0.000000
0.002934 0.000153 0.000000
0.002542 0.000226 0.000000
0.002186 0.000297 0.000000
0.002033 0.000329 0.000000
0.001900 0.000359 0.000000
0.001794 0.000386 0.000000
0.001716 0.000409 0.000000
0.001646 0.000432 0.000000
0.003759 0.004393 0.000000
0.001561 0.000460 0.000000
0.001464 0.000490 0.000000
0.003721 0.004504 0.000000
0.003686 0.004616 0.000000
0.001360 0.000523 0.000000
0.003652 0.004730 0.000000
0.003457 0.005459 0.000000
0.003511 0.005273 0.000000
0.003619 0.004849 0.000000
0.001253 0.000557 0.000000
0.001147 0.000590 0.000000
0.003180 0.006310 0.000000
0.003325 0.005878 0.000000
0.001995 0.007478 0.000000
0.002910 0.007074 0.000000
0.001541 0.007405 0.000000
0.001668 0.007433 0.000000
0.001424 0.007369 0.000000
0.001481 0.007388 0.000000
0.000984 0.007130 0.000000
0.001247 0.007288 0.000000
0.000784 0.006983 0.000000
0.000850 0.007034 0.000000
0.000598 0.006822 0.000000
0.000719 0.006930 0.000000
0.000498 0.006717 0.000000
0.000546 0.006769 0.000000
0.000334 0.006489 0.000000
0.000373 0.006551 0.000000
0.000253 0.006348 0.000000
0.000294 0.006421 0.000000
0.000109 0.006082 0.000000
0.000209 0.006268 0.000000
0.000030 0.005903 0.000000
0.000062 0.005986 0.000000
0.000001 0.005768 0.000000
0.000010 0.005831 0.000000
0.000010 0.005658 0.000000
0.000001 0.005710 0.000000
0.000198 0.005130 0.000000
0.000178 0.005184 0.000000
0.000341 0.004841 0.000000
0.000219 0.005082 0.000000
0.000955 0.000650 0.000000
0.000361 0.004795 0.000000
0.000815 0.000693 0.000000
0.000761 0.000710 0.000000
0.000680 0.000818 0.000000
0.000382 0.004744 0.000000
0.000608 0.000935 0.000000
0.000540 0.001076 0.000000
0.000514 0.001153 0.000000
0.000497 0.001231 0.000000
0.000490 0.001309 0.000000
0.000496 0.001385 0.000000
0.000514 0.001467 0.000000
0.000539 0.001562 0.000000
0.000570 0.001665 0.000000
0.000605 0.001773 0.000000
0.000642 0.001882 0.000000
0.000680 0.001988 0.000000
0.000716 0.002089 0.000000
0.000750 0.002179 0.000000
0.000802 0.002315 0.000000
0.000823 0.002367 0.000000
0.000401 0.004690 0.000000
0.000845 0.003361 0.000000
0.000677 0.003832 0.000000
0.000856 0.003308 0.000000
0.000862 0.003233 0.000000
0.000498 0.006717 0.150000
0.000546 0.006769 0.150000
0.000719 0.006930 0.150000
0.000598 0.006822 0.150000
0.000540 0.001076 0.150000
0.000608 0.000935 0.150000
0.004621 0.000791 0.150000
0.004652 0.000894 0.150000
0.004093 0.000014 0.150000
0.004181 0.000041 0.150000
0.003855 0.000004 0.150000
0.003698 0.000023 0.150000
0.003331 0.000083 0.150000
0.002934 0.000153 0.150000
0.002542 0.000226 0.150000
0.002186 0.000297 0.150000
0.002033 0.000329 0.150000
0.001794 0.000386 0.150000
0.001900 0.000359 0.150000
0.004311 0.000135 0.150000
0.004359 0.000201 0.150000
0.000845 0.003361 0.150000
0.000677 0.003832 0.150000
0.000401 0.004690 0.150000
0.000382 0.004744 0.150000
0.000361 0.004795 0.150000
0.004252 0.000082 0.150000
0.000823 0.002367 0.150000
0.000862 0.003233 0.150000
0.000010 0.005831 0.150000
0.000001 0.005768 0.150000
0.000514 0.001153 0.150000
0.000856 0.003308 0.150000
0.003619 0.004849 0.150000
0.003511 0.005273 0.150000
0.003457 0.005459 0.150000
0.003325 0.005878 0.150000
0.003180 0.006310 0.150000
0.002910 0.007074 0.150000
0.001995 0.007478 0.150000
0.001668 0.007433 0.150000
0.001541 0.007405 0.150000
0.001481 0.007388 0.150000
0.001424 0.007369 0.150000
0.001247 0.007288 0.150000
0.000984 0.007130 0.150000
0.000850 0.007034 0.150000
0.000784 0.006983 0.150000
0.000373 0.006551 0.150000
0.000334 0.006489 0.150000
0.000294 0.006421 0.150000
0.000253 0.006348 0.150000
0.000209 0.006268 0.150000
0.000109 0.006082 0.150000
0.000062 0.005986 0.150000
0.000030 0.005903 0.150000
0.000001 0.005710 0.150000
0.000010 0.005658 0.150000
0.000178 0.005184 0.150000
0.000198 0.005130 0.150000
0.000219 0.005082 0.150000
0.000341 0.004841 0.150000
0.003652 0.004730 0.150000
0.003686 0.004616 0.150000
0.003721 0.004504 0.150000
0.003759 0.004393 0.150000
0.003800 0.004279 0.150000
0.004322 0.002944 0.150000
0.004266 0.003091 0.150000
0.003893 0.004032 0.150000
0.004418 0.002666 0.150000
0.004372 0.002802 0.150000
0.004494 0.002402 0.150000
0.004459 0.002533 0.150000
0.004546 0.002146 0.150000
0.004523 0.002274 0.150000
0.004584 0.001762 0.150000
0.004563 0.002017 0.150000
0.004676 0.001173 0.150000
0.004666 0.001261 0.150000
0.004599 0.001648 0.150000
0.004678 0.001083 0.150000
0.000802 0.002315 0.150000
0.000750 0.002179 0.150000
0.004670 0.000991 0.150000
0.004402 0.000278 0.150000
0.003985 0.000001 0.150000
0.001646 0.000432 0.150000
0.001716 0.000409 0.150000
0.001561 0.000460 0.150000
0.000716 0.002089 0.150000
0.000680 0.001988 0.150000
0.000642 0.001882 0.150000
0.000605 0.001773 0.150000
0.000570 0.001665 0.150000
0.000539 0.001562 0.150000
0.000514 0.001467 0.150000
0.000496 0.001385 0.150000
0.000490 0.001309 0.150000
0.000497 0.001231 0.150000
0.000680 0.000818 0.150000
0.000761 0.000710 0.150000
0.000815 0.000693 0.150000
0.001464 0.000490 0.150000
0.000955 0.000650 0.150000
0.001147 0.000590 0.150000
0.001360 0.000523 0.150000
0.001253 0.000557 0.150000
3 0 1 2
3 2 3 4
3 4 5 6
3 6 7 8
3 8 9 10
3 11 12 13
3 6 8 10
3 11 13 14
3 6 10 11
3 2 4 6
3 0 2 6
3 11 14 15
3 0 6 11
3 16 0 11
3 11 15 17
3 17 18 19
3 19 20 21
3 21 22 23
3 23 24 25
3 25 26 27
3 27 28 29
3 29 30 31
3 31 32 33
3 33 34 35
3 33 35 36
3 29 31 33
3 25 27 29
3 21 23 25
3 17 19 21
3 16 11 17
3 37 16 17
3 17 21 25
3 25 29 33
3 33 36 38
3 33 38 39
3 17 25 33
3 40 37 17
3 41 40 17
3 17 33 39
3 17 39 42
3 43 41 17
3 44 45 46
3 46 43 17
3 17 42 47
3 17 47 48
3 44 46 17
3 49 50 44
3 51 52 49
3 53 54 51
3 55 56 53
3 57 58 55
3 59 60 57
3 61 62 59
3 63 64 61
3 65 66 63
3 67 68 65
3 69 70 67
3 71 72 69
3 73 74 71
3 75 76 73
3 77 78 75
3 79 80 77
3 79 77 75
3 75 73 71
3 71 69 67
3 67 65 63
3 63 61 59
3 59 57 55
3 55 53 51
3 51 49 44
3 44 17 48
3 44 48 81
3 55 51 44
3 63 59 55
3 71 67 63
3 79 75 71
3 82 79 71
3 71 63 55
3 55 44 81
3 83 84 85
3 55 81 83
3 82 71 55
3 86 82 55
3 55 83 85
3 85 87 88
3 88 89 90
3 90 91 92
3 92 93 94
3 94 95 96
3 96 97 98
3 98 99 100
3 100 101 102
3 98 100 102
3 94 96 98
3 90 92 94
3 85 88 90
3 103 86 55
3 104 105 103
3 104 103 55
3 85 90 94
3 94 98 102
3 85 94 102
3 106 104 55
3 107 106 55
3 55 85 102
3 102 107 55
3 64 63 108
3 64 108 109
3 110 62 61
3 61 64 109
3 111 110 61
3 61 109 111
3 112 88 87
3 112 87 113
3 114 18 17
3 114 17 115
3 116 24 23
3 116 23 117
3 27 26 118
3 27 118 119
3 28 27 119
3 28 119 120
3 29 28 120
3 29 120 121
3 30 29 121
3 30 121 122
3 31 30 122
3 31 122 123
3 32 31 123
3 32 123 124
3 125 34 33
3 33 32 124
3 126 125 33
3 124 126 33
3 127 21 20
3 127 20 128
3 104 129 130
3 104 130 131
3 103 104 131
3 132 133 82
3 103 131 132
3 132 82 86
3 132 86 103
3 117 23 22
3 117 22 134
3 102 135 136
3 102 136 107
3 137 74 73
3 137 73 138
3 139 89 88
3 139 88 112
3 129 104 106
3 129 106 140
3 141 142 143
3 143 144 145
3 145 146 147
3 147 148 149
3 149 150 151
3 151 152 153
3 153 154 155
3 155 110 111
3 111 109 108
3 108 156 157
3 157 158 159
3 159 160 161
3 161 162 163
3 163 137 138
3 138 164 165
3 165 166 167
3 167 168 169
3 165 167 169
3 163 138 165
3 159 161 163
3 108 157 159
3 155 111 108
3 151 153 155
3 147 149 151
3 143 145 147
3 141 143 147
3 147 151 155
3 155 108 159
3 159 163 165
3 165 169 133
3 159 165 133
3 147 155 159
3 170 141 147
3 171 170 147
3 147 159 133
3 147 133 132
3 172 171 147
3 173 172 147
3 147 132 131
3 131 130 129
3 147 131 129
3 174 173 147
3 175 176 177
3 177 174 147
3 147 129 140
3 147 140 136
3 175 177 147
3 178 179 175
3 180 181 178
3 182 183 180
3 184 185 182
3 186 187 188
3 184 182 180
3 189 186 188
3 188 184 180
3 180 178 175
3 175 147 136
3 135 190 191
3 175 136 135
3 188 180 175
3 192 189 188
3 114 115 192
3 128 193 114
3 134 127 128
3 116 117 134
3 118 194 116
3 120 119 118
3 122 121 120
3 124 123 122
3 125 126 124
3 195 196 125
3 197 195 125
3 125 124 122
3 122 120 118
3 118 116 134
3 134 128 114
3 114 192 188
3 188 175 135
3 135 191 198
3 198 199 200
3 200 201 202
3 202 203 204
3 204 205 206
3 206 207 139
3 139 112 113
3 113 208 209
3 113 209 210
3 206 139 113
3 202 204 206
3 198 200 202
3 188 135 198
3 134 114 188
3 122 118 134
3 197 125 122
3 211 197 122
3 122 134 188
3 188 198 202
3 202 206 113
3 113 210 212
3 113 212 213
3 188 202 113
3 211 122 188
3 214 211 188
3 188 113 213
3 215 214 188
3 213 215 188
3 134 22 21
3 134 21 127
3 205 92 91
3 205 91 206
3 189 14 13
3 189 13 186
3 84 209 208
3 84 208 85
3 66 156 108
3 66 108 63
3 118 26 25
3 118 25 194
3 207 90 89
3 207 89 139
3 162 72 71
3 162 71 163
3 128 20 19
3 128 19 193
3 79 82 133
3 79 133 169
3 80 79 169
3 80 169 168
3 166 78 77
3 77 80 168
3 167 166 77
3 168 167 77
3 75 78 166
3 75 166 165
3 52 51 147
3 52 147 146
3 49 52 146
3 49 146 145
3 50 49 145
3 50 145 144
3 44 50 144
3 44 144 143
3 43 46 45
3 45 44 143
3 45 143 142
3 41 43 45
3 37 40 41
3 0 16 37
3 1 0 37
3 37 41 45
3 45 142 141
3 45 141 170
3 1 37 45
3 2 1 45
3 45 170 171
3 45 171 172
3 3 2 45
3 3 45 172
3 3 172 173
3 4 3 173
3 4 173 174
3 180 6 5
3 5 4 174
3 5 174 177
3 181 180 5
3 178 181 5
3 5 177 176
3 5 176 175
3 179 178 5
3 175 179 5
3 163 71 74
3 163 74 137
3 54 53 56
3 56 55 151
3 56 151 150
3 148 54 56
3 56 150 149
3 56 149 148
3 192 15 14
3 192 14 189
3 58 57 153
3 58 153 152
3 138 73 76
3 138 76 164
3 164 76 75
3 164 75 165
3 19 18 114
3 19 114 193
3 54 148 147
3 54 147 51
3 94 93 204
3 94 204 203
3 97 96 94
3 99 98 97
3 101 100 99
3 135 102 101
3 190 135 101
3 101 99 97
3 97 94 203
3 97 203 202
3 190 101 97
3 191 190 97
3 97 202 201
3 97 201 200
3 198 191 97
3 97 200 199
3 199 198 97
3 194 25 24
3 194 24 116
3 140 106 107
3 140 107 136
3 186 13 11
3 10 8 7
3 186 11 10
3 187 186 10
3 10 7 6
3 6 180 183
3 6 183 182
3 187 10 6
3 188 187 6
3 6 182 185
3 184 188 6
3 6 185 184
3 204 93 92
3 204 92 205
3 69 72 162
3 69 162 161
3 70 69 161
3 70 161 160
3 67 70 160
3 67 160 159
3 68 67 159
3 68 159 158
3 156 66 65
3 65 68 158
3 157 156 65
3 158 157 65
3 113 87 85
3 113 85 208
3 206 91 90
3 206 90 207
3 59 62 110
3 59 110 155
3 153 57 60
3 60 59 155
3 154 153 60
3 155 154 60
3 58 152 151
3 58 151 55
3 81 48 47
3 47 42 39
3 39 38 36
3 35 34 125
3 39 36 35
3 81 47 39
3 84 83 81
3 210 209 84
3 212 210 84
3 84 81 39
3 39 35 125
3 39 125 196
3 212 84 39
3 213 212 39
3 39 196 195
3 39 195 197
3 215 213 39
3 214 215 39
3 39 197 211
3 39 211 214
3 115 17 15
3 115 15 192
