ply
format ascii 1.0
comment Created by Blender 3.6.8 - www.blender.org
element vertex 148
property float x
property float y
property float z
element face 287
property list uchar uint vertex_indices
end_header
0.003182 0.000867 0.150000
0.003182 0.000867 0.000000
0.003243 0.000993 0.000000
0.003243 0.000993 0.150000
0.001114 0.004908 0.150000
0.001114 0.004908 0.000000
0.001090 0.004928 0.000000
0.001090 0.004928 0.150000
0.001712 0.000031 0.000000
0.001575 0.000007 0.000000
0.001451 0.000000 0.000000
0.001336 0.000007 0.000000
0.001229 0.000025 0.000000
0.001128 0.000052 0.000000
0.001030 0.000085 0.000000
0.000736 0.000201 0.000000
0.000530 0.000273 0.000000
0.000443 0.000313 0.000000
0.002623 0.000390 0.000000
0.001862 0.000073 0.000000
0.002947 0.000585 0.000000
0.002850 0.000514 0.000000
0.003112 0.000758 0.000000
0.003034 0.000665 0.000000
0.003563 0.002197 0.000000
0.003534 0.001958 0.000000
0.003553 0.002433 0.000000
0.003563 0.002315 0.000000
0.003496 0.002677 0.000000
0.003531 0.002554 0.000000
0.003458 0.002794 0.000000
0.000369 0.000358 0.000000
0.000307 0.000407 0.000000
0.000254 0.000458 0.000000
0.000211 0.000511 0.000000
0.000175 0.000565 0.000000
0.000121 0.000675 0.000000
0.000101 0.000729 0.000000
0.000083 0.000781 0.000000
0.000067 0.000832 0.000000
0.000052 0.000945 0.000000
0.000039 0.001171 0.000000
0.000029 0.001487 0.000000
0.000000 0.004638 0.000000
0.000293 0.004781 0.000000
0.000501 0.004873 0.000000
0.000606 0.004915 0.000000
0.000795 0.004977 0.000000
0.000871 0.004992 0.000000
0.000928 0.004992 0.000000
0.001006 0.004973 0.000000
0.001037 0.004960 0.000000
0.001065 0.004946 0.000000
0.001138 0.004884 0.000000
0.001226 0.004788 0.000000
0.001360 0.004647 0.000000
0.001409 0.004591 0.000000
0.003425 0.002898 0.000000
0.003370 0.003069 0.000000
0.003396 0.002989 0.000000
0.003294 0.003256 0.000000
0.003345 0.003139 0.000000
0.003232 0.003351 0.000000
0.003265 0.003306 0.000000
0.003097 0.003475 0.000000
0.003195 0.003393 0.000000
0.002915 0.003584 0.000000
0.003022 0.003523 0.000000
0.002636 0.003728 0.000000
0.002784 0.003653 0.000000
0.001649 0.004263 0.000000
0.001692 0.004196 0.000000
0.001708 0.004171 0.000000
0.001457 0.004533 0.000000
0.001502 0.004474 0.000000
0.001544 0.004416 0.000000
0.001584 0.004360 0.000000
0.001619 0.004309 0.000000
0.000000 0.004638 0.150000
0.000293 0.004781 0.150000
0.000606 0.004915 0.150000
0.000501 0.004873 0.150000
0.000369 0.000358 0.150000
0.000443 0.000313 0.150000
0.002947 0.000585 0.150000
0.003034 0.000665 0.150000
0.003022 0.003523 0.150000
0.003097 0.003475 0.150000
0.001708 0.004171 0.150000
0.002636 0.003728 0.150000
0.002915 0.003584 0.150000
0.002784 0.003653 0.150000
0.000121 0.000675 0.150000
0.000175 0.000565 0.150000
0.003112 0.000758 0.150000
0.003563 0.002197 0.150000
0.003534 0.001958 0.150000
0.000928 0.004992 0.150000
0.001006 0.004973 0.150000
0.002850 0.000514 0.150000
0.001128 0.000052 0.150000
0.001030 0.000085 0.150000
0.000736 0.000201 0.150000
0.000530 0.000273 0.150000
0.000254 0.000458 0.150000
0.000307 0.000407 0.150000
0.001692 0.004196 0.150000
0.001649 0.004263 0.150000
0.001619 0.004309 0.150000
0.001584 0.004360 0.150000
0.001544 0.004416 0.150000
0.001502 0.004474 0.150000
0.001457 0.004533 0.150000
0.001409 0.004591 0.150000
0.001360 0.004647 0.150000
0.001226 0.004788 0.150000
0.001138 0.004884 0.150000
0.001065 0.004946 0.150000
0.001037 0.004960 0.150000
0.000871 0.004992 0.150000
0.000795 0.004977 0.150000
0.000029 0.001487 0.150000
0.000039 0.001171 0.150000
0.000052 0.000945 0.150000
0.000067 0.000832 0.150000
0.000083 0.000781 0.150000
0.000101 0.000729 0.150000
0.000211 0.000511 0.150000
0.001229 0.000025 0.150000
0.001336 0.000007 0.150000
0.001451 0.000000 0.150000
0.001575 0.000007 0.150000
0.001712 0.000031 0.150000
0.001862 0.000073 0.150000
0.002623 0.000390 0.150000
0.003563 0.002315 0.150000
0.003553 0.002433 0.150000
0.003531 0.002554 0.150000
0.003496 0.002677 0.150000
0.003458 0.002794 0.150000
0.003425 0.002898 0.150000
0.003396 0.002989 0.150000
0.003370 0.003069 0.150000
0.003345 0.003139 0.150000
0.003294 0.003256 0.150000
0.003265 0.003306 0.150000
0.003232 0.003351 0.150000
0.003195 0.003393 0.150000
3 0 1 2
3 0 2 3
3 4 5 6
3 4 6 7
3 8 9 10
3 10 11 12
3 12 13 14
3 15 16 17
3 12 14 15
3 8 10 12
3 18 19 8
3 20 21 18
3 22 23 20
3 2 1 22
3 24 25 2
3 26 27 24
3 28 29 26
3 30 28 26
3 26 24 2
3 2 22 20
3 20 18 8
3 8 12 15
3 15 17 31
3 31 32 33
3 33 34 35
3 35 36 37
3 37 38 39
3 39 40 41
3 41 42 43
3 43 44 45
3 45 46 47
3 47 48 49
3 49 50 51
3 51 52 6
3 6 5 53
3 54 55 56
3 6 53 54
3 49 51 6
3 45 47 49
3 41 43 45
3 37 39 41
3 33 35 37
3 15 31 33
3 20 8 15
3 26 2 20
3 57 30 26
3 58 59 57
3 60 61 58
3 62 63 60
3 64 65 62
3 66 67 64
3 68 69 66
3 70 71 72
3 72 68 66
3 66 64 62
3 62 60 58
3 58 57 26
3 26 20 15
3 15 33 37
3 37 41 45
3 45 49 6
3 6 54 56
3 56 73 74
3 74 75 76
3 76 77 70
3 72 66 62
3 76 70 72
3 56 74 76
3 45 6 56
3 15 37 45
3 58 26 15
3 72 62 58
3 56 76 72
3 15 45 56
3 72 58 15
3 15 56 72
3 44 43 78
3 44 78 79
3 80 46 45
3 45 44 79
3 81 80 45
3 79 81 45
3 82 31 17
3 82 17 83
3 84 20 23
3 84 23 85
3 86 87 64
3 68 72 88
3 68 88 89
3 64 66 68
3 90 86 64
3 68 89 91
3 91 90 64
3 64 68 91
3 92 36 35
3 92 35 93
3 85 23 22
3 85 22 94
3 25 24 95
3 25 95 96
3 50 49 97
3 50 97 98
3 99 21 20
3 99 20 84
3 16 15 14
3 14 13 100
3 14 100 101
3 83 17 16
3 16 14 101
3 16 101 102
3 103 83 16
3 16 102 103
3 104 33 32
3 104 32 105
3 88 106 107
3 107 108 109
3 109 110 111
3 111 112 113
3 113 114 115
3 115 116 4
3 4 7 117
3 117 118 98
3 98 97 119
3 119 120 80
3 80 81 79
3 79 78 121
3 121 122 123
3 123 124 125
3 125 126 92
3 92 93 127
3 127 104 105
3 105 82 83
3 83 103 102
3 102 101 100
3 100 128 129
3 129 130 131
3 131 132 133
3 133 134 99
3 99 84 85
3 85 94 0
3 0 3 96
3 96 95 135
3 135 136 137
3 137 138 139
3 140 141 142
3 137 139 140
3 96 135 137
3 85 0 96
3 133 99 85
3 129 131 133
3 102 100 129
3 105 83 102
3 92 127 105
3 123 125 92
3 79 121 123
3 119 80 79
3 117 98 119
3 115 4 117
3 111 113 115
3 107 109 111
3 91 89 88
3 88 107 111
3 111 115 117
3 117 119 79
3 79 123 92
3 92 105 102
3 102 129 133
3 133 85 96
3 96 137 140
3 140 142 143
3 143 144 145
3 145 146 147
3 147 87 86
3 86 90 91
3 88 111 117
3 86 91 88
3 145 147 86
3 140 143 145
3 133 96 140
3 92 102 133
3 117 79 92
3 145 86 88
3 88 117 92
3 92 133 140
3 140 145 88
3 92 140 88
3 120 47 46
3 120 46 80
3 56 113 112
3 56 112 111
3 75 74 56
3 77 76 75
3 71 70 77
3 88 72 71
3 106 88 71
3 71 77 75
3 75 56 111
3 75 111 110
3 106 71 75
3 107 106 75
3 75 110 109
3 108 107 75
3 109 108 75
3 145 63 62
3 145 62 146
3 21 99 134
3 21 134 18
3 119 48 47
3 119 47 120
3 143 61 60
3 143 60 144
3 132 8 19
3 132 19 133
3 146 62 65
3 146 65 147
3 30 57 59
3 58 61 143
3 28 30 59
3 59 58 143
3 59 143 142
3 137 29 28
3 28 59 142
3 28 142 141
3 138 137 28
3 139 138 28
3 28 141 140
3 140 139 28
3 127 34 33
3 127 33 104
3 95 24 27
3 95 27 135
3 105 32 31
3 105 31 82
3 129 11 10
3 129 10 130
3 131 9 8
3 131 8 132
3 65 64 87
3 65 87 147
3 130 10 9
3 130 9 131
3 2 25 96
3 2 96 3
3 123 40 39
3 123 39 124
3 125 124 39
3 37 36 92
3 126 125 39
3 37 92 126
3 39 37 126
3 94 22 1
3 94 1 0
3 117 52 51
3 117 51 118
3 93 35 34
3 93 34 127
3 97 49 48
3 97 48 119
3 136 26 29
3 136 29 137
3 135 27 26
3 135 26 136
3 54 53 5
3 5 4 116
3 5 116 115
3 54 5 115
3 114 113 56
3 54 115 114
3 114 56 54
3 128 12 11
3 128 11 129
3 19 18 134
3 19 134 133
3 144 60 63
3 144 63 145
3 100 13 12
3 100 12 128
3 118 51 50
3 118 50 98
3 41 40 123
3 41 123 122
3 78 43 42
3 42 41 122
3 121 78 42
3 122 121 42
3 7 6 52
3 7 52 117
