ply
format ascii 1.0
comment Created by Blender 3.6.8 - www.blender.org
element vertex 156
property float x
property float y
property float z
element face 307
property list uchar uint vertex_indices
end_header
0.008386 0.005435 0.150000
0.008386 0.005435 0.000000
0.008276 0.005582 0.000000
0.008276 0.005582 0.150000
0.000852 0.001558 0.150000
0.000852 0.001558 0.000000
0.000990 0.001398 0.000000
0.000990 0.001398 0.150000
0.000202 0.004013 0.150000
0.000202 0.004013 0.000000
0.000130 0.003897 0.000000
0.000130 0.003897 0.150000
0.008180 0.001161 0.150000
0.008180 0.001161 0.000000
0.008273 0.001254 0.000000
0.008273 0.001254 0.150000
0.002071 0.000672 0.000000
0.005048 0.000030 0.000000
0.005048 0.000030 0.150000
0.002071 0.000672 0.150000
0.006882 0.000199 0.150000
0.006882 0.000199 0.000000
0.007020 0.000279 0.000000
0.007020 0.000279 0.150000
0.008612 0.004979 0.000000
0.008476 0.005287 0.000000
0.008476 0.005287 0.150000
0.008612 0.004979 0.150000
0.009020 0.003584 0.150000
0.009020 0.003584 0.000000
0.009070 0.003199 0.150000
0.009070 0.003199 0.000000
0.009058 0.003381 0.000000
0.009058 0.003381 0.150000
0.000867 0.004834 0.000000
0.000773 0.004705 0.000000
0.000674 0.004583 0.000000
0.000573 0.004465 0.000000
0.000473 0.004351 0.000000
0.000987 0.004979 0.150000
0.000987 0.004979 0.000000
0.000867 0.004834 0.150000
0.000376 0.004239 0.000000
0.000285 0.004127 0.000000
0.000285 0.004127 0.150000
0.000773 0.004705 0.150000
0.000674 0.004583 0.150000
0.000376 0.004239 0.150000
0.000473 0.004351 0.150000
0.000573 0.004465 0.150000
0.000141 0.002816 0.150000
0.000141 0.002816 0.000000
0.000335 0.002379 0.000000
0.000335 0.002379 0.150000
0.007059 0.006642 0.000000
0.006813 0.006811 0.000000
0.006813 0.006811 0.150000
0.007059 0.006642 0.150000
0.006495 0.006958 0.150000
0.006495 0.006958 0.000000
0.006400 0.006975 0.000000
0.006400 0.006975 0.150000
0.000005 0.003514 0.150000
0.000005 0.003514 0.000000
0.000001 0.003369 0.000000
0.000001 0.003369 0.150000
0.008360 0.001361 0.150000
0.008441 0.001487 0.150000
0.008515 0.001635 0.150000
0.008654 0.001993 0.150000
0.006616 0.000092 0.150000
0.006748 0.000138 0.150000
0.006222 0.000026 0.150000
0.006486 0.000060 0.150000
0.005946 0.000013 0.150000
0.006087 0.000018 0.150000
0.005473 0.000001 0.150000
0.005646 0.000003 0.150000
0.005800 0.000009 0.150000
0.008727 0.002159 0.150000
0.008871 0.002456 0.150000
0.008935 0.002596 0.150000
0.001804 0.000773 0.150000
0.001654 0.000858 0.150000
0.001719 0.000817 0.150000
0.001504 0.000990 0.150000
0.001602 0.000900 0.150000
0.001125 0.001267 0.150000
0.001443 0.001043 0.150000
0.008991 0.002737 0.150000
0.009034 0.002881 0.150000
0.009061 0.003034 0.150000
0.008141 0.005729 0.150000
0.007978 0.005879 0.150000
0.007482 0.006302 0.150000
0.007333 0.006426 0.150000
0.007192 0.006540 0.150000
0.006595 0.006924 0.150000
0.006191 0.006986 0.150000
0.005941 0.006988 0.150000
0.005675 0.006983 0.150000
0.005413 0.006972 0.150000
0.005180 0.006958 0.150000
0.005081 0.006950 0.150000
0.004998 0.006941 0.150000
0.003336 0.006663 0.150000
0.001364 0.005321 0.150000
0.000580 0.001944 0.150000
0.000024 0.003206 0.150000
0.000029 0.003649 0.150000
0.000071 0.003776 0.150000
0.000024 0.003206 0.000000
0.006748 0.000138 0.000000
0.006616 0.000092 0.000000
0.006486 0.000060 0.000000
0.006222 0.000026 0.000000
0.006087 0.000018 0.000000
0.005946 0.000013 0.000000
0.005800 0.000009 0.000000
0.005646 0.000003 0.000000
0.005473 0.000001 0.000000
0.008360 0.001361 0.000000
0.008515 0.001635 0.000000
0.008441 0.001487 0.000000
0.008654 0.001993 0.000000
0.001804 0.000773 0.000000
0.001719 0.000817 0.000000
0.001654 0.000858 0.000000
0.001602 0.000900 0.000000
0.001504 0.000990 0.000000
0.001443 0.001043 0.000000
0.001125 0.001267 0.000000
0.008727 0.002159 0.000000
0.008935 0.002596 0.000000
0.008871 0.002456 0.000000
0.009034 0.002881 0.000000
0.008991 0.002737 0.000000
0.009061 0.003034 0.000000
0.007978 0.005879 0.000000
0.008141 0.005729 0.000000
0.007333 0.006426 0.000000
0.007482 0.006302 0.000000
0.007192 0.006540 0.000000
0.006595 0.006924 0.000000
0.005941 0.006988 0.000000
0.006191 0.006986 0.000000
0.005413 0.006972 0.000000
0.005675 0.006983 0.000000
0.005081 0.006950 0.000000
0.005180 0.006958 0.000000
0.003336 0.006663 0.000000
0.004998 0.006941 0.000000
0.001364 0.005321 0.000000
0.000580 0.001944 0.000000
0.000029 0.003649 0.000000
0.000071 0.003776 0.000000
3 0 1 2
3 0 2 3
3 4 5 6
3 4 6 7
3 8 9 10
3 8 10 11
3 12 13 14
3 12 14 15
3 16 17 18
3 16 18 19
3 20 21 22
3 20 22 23
3 24 25 26
3 24 26 27
3 24 27 28
3 24 28 29
3 30 31 32
3 30 32 33
3 34 35 36
3 36 37 38
3 34 36 38
3 39 40 34
3 41 39 34
3 34 38 42
3 43 9 8
3 41 34 42
3 42 43 8
3 42 8 44
3 45 41 42
3 46 45 42
3 42 44 47
3 42 47 48
3 49 46 42
3 42 48 49
3 50 51 52
3 50 52 53
3 54 55 56
3 54 56 57
3 58 59 60
3 58 60 61
3 62 63 64
3 62 64 65
3 20 23 12
3 12 15 66
3 66 67 68
3 66 68 69
3 20 12 66
3 70 71 20
3 72 73 70
3 74 75 72
3 76 77 78
3 78 74 72
3 72 70 20
3 20 66 69
3 79 80 81
3 20 69 79
3 78 72 20
3 18 76 78
3 82 19 18
3 83 84 82
3 85 86 83
3 7 87 88
3 85 83 82
3 4 7 88
3 88 85 82
3 82 18 78
3 78 20 79
3 79 81 89
3 89 90 91
3 91 30 33
3 33 28 27
3 27 26 0
3 0 3 92
3 92 93 94
3 94 95 96
3 96 57 56
3 56 97 58
3 58 61 98
3 98 99 100
3 100 101 102
3 102 103 104
3 104 105 106
3 106 39 41
3 106 41 45
3 102 104 106
3 98 100 102
3 56 58 98
3 94 96 56
3 0 92 94
3 33 27 0
3 89 91 33
3 78 79 89
3 88 82 78
3 107 4 88
3 50 53 107
3 65 108 50
3 109 62 65
3 11 110 109
3 44 8 11
3 48 47 44
3 49 48 44
3 44 11 109
3 109 65 50
3 50 107 88
3 88 78 89
3 89 33 0
3 0 94 56
3 56 98 102
3 102 106 45
3 46 49 44
3 102 45 46
3 0 56 102
3 88 89 0
3 109 50 88
3 46 44 109
3 0 102 46
3 109 88 0
3 0 46 109
3 65 64 111
3 65 111 108
3 21 112 113
3 113 114 115
3 115 116 117
3 118 119 120
3 115 117 118
3 21 113 115
3 13 22 21
3 121 14 13
3 122 123 121
3 124 122 121
3 121 13 21
3 21 115 118
3 118 120 17
3 17 16 125
3 125 126 127
3 127 128 129
3 130 131 6
3 125 127 129
3 130 6 5
3 125 129 130
3 118 17 125
3 121 21 118
3 132 124 121
3 133 134 132
3 135 136 133
3 31 137 135
3 29 32 31
3 25 24 29
3 2 1 25
3 138 139 2
3 140 141 138
3 54 142 140
3 143 55 54
3 60 59 143
3 144 145 60
3 146 147 144
3 148 149 146
3 150 151 148
3 40 152 150
3 35 34 40
3 35 40 150
3 150 148 146
3 146 144 60
3 60 143 54
3 54 140 138
3 138 2 25
3 25 29 31
3 31 135 133
3 132 121 118
3 31 133 132
3 138 25 31
3 60 54 138
3 150 146 60
3 36 35 150
3 42 38 37
3 37 36 150
3 150 60 138
3 138 31 132
3 132 118 125
3 125 130 5
3 5 153 52
3 52 51 111
3 111 64 63
3 63 154 155
3 155 10 9
3 9 43 42
3 42 37 150
3 150 138 132
3 132 125 5
3 5 52 111
3 111 63 155
3 155 9 42
3 42 150 132
3 132 5 111
3 111 155 42
3 111 42 132
3 84 126 125
3 84 125 82
3 90 135 137
3 90 137 91
3 83 127 126
3 83 126 84
3 97 143 59
3 97 59 58
3 17 120 76
3 17 76 18
3 55 143 97
3 55 97 56
3 124 132 134
3 133 136 89
3 122 124 134
3 134 133 89
3 134 89 81
3 67 123 122
3 122 134 81
3 122 81 80
3 68 67 122
3 69 68 122
3 122 80 79
3 79 69 122
3 11 10 155
3 11 155 110
3 142 54 57
3 142 57 96
3 140 142 96
3 140 96 95
3 141 140 95
3 141 95 94
3 92 139 138
3 138 141 94
3 93 92 138
3 94 93 138
3 7 6 131
3 7 131 87
3 109 154 63
3 109 63 62
3 26 25 1
3 26 1 0
3 127 83 86
3 85 88 130
3 127 86 85
3 85 130 129
3 127 85 129
3 150 152 106
3 150 106 105
3 130 88 87
3 130 87 131
3 107 153 5
3 107 5 4
3 110 155 154
3 110 154 109
3 70 113 112
3 70 112 71
3 72 115 114
3 72 114 73
3 91 137 31
3 91 31 30
3 15 14 121
3 15 121 66
3 82 125 16
3 82 16 19
3 60 145 98
3 60 98 61
3 89 136 135
3 89 135 90
3 66 121 123
3 66 123 67
3 3 2 139
3 3 139 92
3 151 150 105
3 151 105 104
3 119 118 117
3 116 115 72
3 119 117 116
3 76 120 119
3 77 76 119
3 119 116 72
3 119 72 75
3 78 77 119
3 119 75 74
3 74 78 119
3 33 32 29
3 33 29 28
3 108 111 51
3 108 51 50
3 148 151 104
3 148 104 103
3 149 148 103
3 149 103 102
3 146 149 102
3 146 102 101
3 147 146 101
3 147 101 100
3 98 145 144
3 144 147 100
3 99 98 144
3 100 99 144
3 22 13 12
3 22 12 23
3 53 52 153
3 53 153 107
3 73 114 113
3 73 113 70
3 152 40 39
3 152 39 106
3 71 112 21
3 71 21 20
