ply
format ascii 1.0
comment Created by Blender 3.6.8 - www.blender.org
element vertex 190
property float x
property float y
property float z
element face 376
property list uchar uint vertex_indices
end_header
0.006066 0.006223 0.150000
0.006066 0.006223 0.000000
0.006006 0.006219 0.000000
0.006006 0.006219 0.150000
0.006983 0.006165 0.000000
0.006826 0.006186 0.000000
0.006826 0.006186 0.150000
0.006983 0.006165 0.150000
0.000003 0.001875 0.150000
0.000003 0.001875 0.000000
0.000026 0.001695 0.000000
0.000026 0.001695 0.150000
0.008439 0.003348 0.000000
0.008458 0.004234 0.000000
0.008458 0.004234 0.150000
0.008439 0.003348 0.150000
0.005396 0.000435 0.000000
0.005816 0.000615 0.000000
0.005816 0.000615 0.150000
0.005396 0.000435 0.150000
0.002135 0.000191 0.000000
0.002356 0.000144 0.000000
0.002356 0.000144 0.150000
0.002135 0.000191 0.150000
0.001758 0.000290 0.150000
0.001758 0.000290 0.000000
0.001934 0.000240 0.000000
0.001934 0.000240 0.150000
0.000759 0.000909 0.000000
0.000905 0.000790 0.000000
0.000905 0.000790 0.150000
0.000759 0.000909 0.150000
0.000617 0.001031 0.000000
0.000617 0.001031 0.150000
0.000360 0.001272 0.150000
0.000360 0.001272 0.000000
0.000483 0.001153 0.000000
0.000483 0.001153 0.150000
0.004270 0.005161 0.000000
0.004158 0.005100 0.000000
0.004158 0.005100 0.150000
0.004270 0.005161 0.150000
0.004599 0.005373 0.150000
0.004599 0.005373 0.000000
0.004381 0.005227 0.000000
0.004381 0.005227 0.150000
0.007048 0.006150 0.150000
0.007048 0.006150 0.000000
0.000003 0.002103 0.150000
0.000003 0.002103 0.000000
0.007477 0.005963 0.150000
0.007161 0.006112 0.150000
0.005945 0.006208 0.150000
0.005881 0.006191 0.150000
0.005811 0.006165 0.150000
0.005733 0.006129 0.150000
0.005506 0.006014 0.150000
0.005436 0.005976 0.150000
0.005367 0.005937 0.150000
0.005151 0.005800 0.150000
0.007603 0.005863 0.150000
0.007539 0.005919 0.150000
0.007804 0.005641 0.150000
0.007736 0.005723 0.150000
0.007943 0.005459 0.150000
0.007874 0.005552 0.150000
0.008082 0.005263 0.150000
0.008013 0.005362 0.150000
0.008218 0.005062 0.150000
0.008150 0.005162 0.150000
0.008330 0.004851 0.150000
0.008279 0.004959 0.150000
0.008428 0.004496 0.150000
0.008371 0.004738 0.150000
0.008357 0.002975 0.150000
0.008392 0.003090 0.150000
0.008200 0.002650 0.150000
0.008261 0.002758 0.150000
0.007633 0.001840 0.150000
0.008130 0.002538 0.150000
0.007222 0.001467 0.150000
0.007423 0.001617 0.150000
0.007014 0.001351 0.150000
0.007120 0.001407 0.150000
0.006903 0.001294 0.150000
0.006785 0.001230 0.150000
0.006658 0.001154 0.150000
0.003939 0.004994 0.150000
0.006519 0.001063 0.150000
0.006200 0.000830 0.150000
0.006368 0.000950 0.150000
0.003921 0.000013 0.150000
0.004072 0.000039 0.150000
0.003309 0.000014 0.150000
0.003740 0.000001 0.150000
0.002831 0.000065 0.150000
0.003073 0.000035 0.150000
0.002590 0.000102 0.150000
0.001615 0.000341 0.150000
0.001202 0.000571 0.150000
0.001485 0.000401 0.150000
0.000249 0.001384 0.150000
0.000077 0.001577 0.150000
0.000154 0.001487 0.150000
0.000022 0.002368 0.150000
0.000350 0.004249 0.150000
0.000056 0.002655 0.150000
0.001967 0.004732 0.150000
0.001070 0.004732 0.150000
0.002047 0.004734 0.150000
0.003832 0.004951 0.150000
0.002150 0.004738 0.150000
0.002411 0.004752 0.150000
0.003729 0.004915 0.150000
0.003536 0.004865 0.150000
0.002714 0.004774 0.150000
0.003026 0.004801 0.150000
0.003434 0.004849 0.150000
0.003174 0.004817 0.150000
0.003312 0.004832 0.150000
0.008357 0.002975 0.000000
0.008261 0.002758 0.000000
0.008200 0.002650 0.000000
0.008130 0.002538 0.000000
0.007633 0.001840 0.000000
0.007423 0.001617 0.000000
0.007222 0.001467 0.000000
0.007120 0.001407 0.000000
0.007014 0.001351 0.000000
0.006903 0.001294 0.000000
0.008392 0.003090 0.000000
0.008371 0.004738 0.000000
0.008428 0.004496 0.000000
0.008279 0.004959 0.000000
0.008330 0.004851 0.000000
0.008150 0.005162 0.000000
0.008218 0.005062 0.000000
0.008013 0.005362 0.000000
0.008082 0.005263 0.000000
0.007874 0.005552 0.000000
0.007943 0.005459 0.000000
0.007736 0.005723 0.000000
0.007804 0.005641 0.000000
0.007539 0.005919 0.000000
0.007603 0.005863 0.000000
0.007161 0.006112 0.000000
0.007477 0.005963 0.000000
0.005945 0.006208 0.000000
0.005811 0.006165 0.000000
0.005881 0.006191 0.000000
0.005506 0.006014 0.000000
0.005733 0.006129 0.000000
0.005367 0.005937 0.000000
0.005436 0.005976 0.000000
0.005151 0.005800 0.000000
0.006785 0.001230 0.000000
0.006658 0.001154 0.000000
0.006519 0.001063 0.000000
0.006368 0.000950 0.000000
0.006200 0.000830 0.000000
0.004072 0.000039 0.000000
0.003921 0.000013 0.000000
0.003740 0.000001 0.000000
0.003309 0.000014 0.000000
0.003073 0.000035 0.000000
0.002831 0.000065 0.000000
0.002590 0.000102 0.000000
0.001615 0.000341 0.000000
0.001485 0.000401 0.000000
0.001202 0.000571 0.000000
0.000249 0.001384 0.000000
0.000154 0.001487 0.000000
0.000077 0.001577 0.000000
0.000022 0.002368 0.000000
0.000056 0.002655 0.000000
0.000350 0.004249 0.000000
0.001070 0.004732 0.000000
0.001967 0.004732 0.000000
0.002047 0.004734 0.000000
0.002150 0.004738 0.000000
0.002411 0.004752 0.000000
0.003939 0.004994 0.000000
0.003832 0.004951 0.000000
0.002714 0.004774 0.000000
0.003026 0.004801 0.000000
0.003729 0.004915 0.000000
0.003536 0.004865 0.000000
0.003174 0.004817 0.000000
0.003434 0.004849 0.000000
0.003312 0.004832 0.000000
3 0 1 2
3 0 2 3
3 4 5 6
3 4 6 7
3 8 9 10
3 8 10 11
3 12 13 14
3 12 14 15
3 16 17 18
3 16 18 19
3 20 21 22
3 20 22 23
3 24 25 26
3 26 20 23
3 27 24 26
3 23 27 26
3 28 29 30
3 28 30 31
3 32 28 31
3 32 31 33
3 34 35 36
3 36 32 33
3 37 34 36
3 33 37 36
3 38 39 40
3 38 40 41
3 42 43 44
3 44 38 41
3 45 42 44
3 41 45 44
3 46 47 4
3 46 4 7
3 48 49 9
3 48 9 8
3 50 51 46
3 46 7 6
3 6 0 3
3 3 52 53
3 53 54 55
3 55 56 57
3 57 58 59
3 57 59 42
3 53 55 57
3 6 3 53
3 50 46 6
3 60 61 50
3 62 63 60
3 64 65 62
3 66 67 64
3 68 69 66
3 70 71 68
3 72 73 70
3 15 14 72
3 74 75 15
3 76 77 74
3 78 79 76
3 80 81 78
3 82 83 80
3 84 82 80
3 80 78 76
3 76 74 15
3 15 72 70
3 70 68 66
3 66 64 62
3 62 60 50
3 50 6 53
3 53 57 42
3 53 42 45
3 62 50 53
3 70 66 62
3 76 15 70
3 84 80 76
3 85 84 76
3 76 70 62
3 62 53 45
3 62 45 41
3 85 76 62
3 86 85 62
3 62 41 40
3 62 40 87
3 88 86 62
3 89 90 88
3 19 18 89
3 91 92 19
3 93 94 91
3 95 96 93
3 22 97 95
3 27 23 22
3 98 24 27
3 99 100 98
3 31 30 99
3 37 33 31
3 101 34 37
3 102 103 101
3 8 11 102
3 104 48 8
3 105 106 104
3 107 108 105
3 109 107 105
3 105 104 8
3 8 102 101
3 101 37 31
3 31 99 98
3 98 27 22
3 22 95 93
3 93 91 19
3 19 89 88
3 88 62 87
3 88 87 110
3 93 19 88
3 98 22 93
3 101 31 98
3 105 8 101
3 111 109 105
3 112 111 105
3 105 101 98
3 98 93 88
3 88 110 113
3 88 113 114
3 105 98 88
3 115 112 105
3 116 115 105
3 105 88 114
3 105 114 117
3 118 116 105
3 105 117 119
3 119 118 105
3 120 121 122
3 122 123 124
3 124 125 126
3 126 127 128
3 126 128 129
3 122 124 126
3 130 120 122
3 13 12 130
3 131 132 13
3 133 134 131
3 135 136 133
3 137 138 135
3 139 140 137
3 141 142 139
3 143 144 141
3 145 146 143
3 4 47 145
3 1 5 4
3 147 2 1
3 148 149 147
3 150 151 148
3 152 153 150
3 43 154 152
3 43 152 150
3 150 148 147
3 147 1 4
3 4 145 143
3 143 141 139
3 139 137 135
3 135 133 131
3 131 13 130
3 130 122 126
3 126 129 155
3 130 126 155
3 135 131 130
3 143 139 135
3 147 4 143
3 43 150 147
3 44 43 147
3 147 143 135
3 135 130 155
3 135 155 156
3 44 147 135
3 38 44 135
3 135 156 157
3 157 158 159
3 159 17 16
3 16 160 161
3 161 162 163
3 163 164 165
3 165 166 21
3 21 20 26
3 26 25 167
3 167 168 169
3 169 29 28
3 28 32 36
3 36 35 170
3 170 171 172
3 172 10 9
3 9 49 173
3 173 174 175
3 175 176 177
3 175 177 178
3 9 173 175
3 170 172 9
3 28 36 170
3 167 169 28
3 21 26 167
3 163 165 21
3 16 161 163
3 157 159 16
3 38 135 157
3 39 38 157
3 157 16 163
3 163 21 167
3 167 28 170
3 170 9 175
3 175 178 179
3 175 179 180
3 167 170 175
3 157 163 167
3 181 39 157
3 182 181 157
3 157 167 175
3 175 180 183
3 175 183 184
3 185 182 157
3 186 185 157
3 157 175 184
3 157 184 187
3 188 186 157
3 157 187 189
3 157 189 188
3 164 163 93
3 164 93 96
3 165 164 96
3 165 96 95
3 22 21 166
3 166 165 95
3 97 22 166
3 95 97 166
3 108 176 175
3 108 175 105
3 52 147 149
3 52 149 53
3 154 43 42
3 154 42 59
3 91 161 160
3 91 160 92
3 51 145 47
3 51 47 46
3 100 168 167
3 100 167 98
3 94 162 161
3 94 161 91
3 58 152 154
3 58 154 59
3 30 29 169
3 30 169 99
3 122 121 77
3 122 77 76
3 78 124 123
3 123 122 76
3 79 78 123
3 76 79 123
3 13 132 72
3 13 72 14
3 3 2 147
3 3 147 52
3 73 131 134
3 73 134 70
3 131 73 72
3 131 72 132
3 127 126 80
3 127 80 83
3 128 127 83
3 128 83 82
3 129 128 82
3 129 82 84
3 86 156 155
3 155 129 84
3 85 86 155
3 84 85 155
3 177 176 108
3 177 108 107
3 178 177 107
3 178 107 109
3 179 178 109
3 179 109 111
3 180 179 111
3 180 111 112
3 183 180 112
3 183 112 115
3 184 183 115
3 184 115 116
3 187 184 116
3 187 116 118
3 189 187 118
3 189 118 119
3 114 186 188
3 188 189 119
3 117 114 188
3 119 117 188
3 75 130 12
3 75 12 15
3 71 133 136
3 71 136 68
3 11 10 172
3 11 172 102
3 60 144 143
3 60 143 61
3 146 145 51
3 146 51 50
3 18 17 159
3 18 159 89
3 98 167 25
3 98 25 24
3 77 121 120
3 77 120 74
3 70 134 133
3 70 133 71
3 5 1 0
3 5 0 6
3 124 78 81
3 124 81 125
3 93 163 162
3 93 162 94
3 61 143 146
3 61 146 50
3 80 126 125
3 80 125 81
3 144 60 63
3 144 63 141
3 182 185 113
3 182 113 110
3 40 39 181
3 181 182 110
3 87 40 181
3 110 87 181
3 113 185 186
3 113 186 114
3 153 152 58
3 153 58 57
3 150 153 57
3 150 57 56
3 54 148 151
3 151 150 56
3 55 54 151
3 56 55 151
3 157 156 86
3 157 86 88
3 89 159 158
3 158 157 88
3 90 89 158
3 158 88 90
3 170 35 34
3 170 34 101
3 102 172 171
3 171 170 101
3 103 102 171
3 171 101 103
3 53 149 148
3 53 148 54
3 160 16 19
3 160 19 92
3 74 120 130
3 74 130 75
3 142 141 63
3 142 63 62
3 139 142 62
3 139 62 65
3 140 139 65
3 140 65 64
3 137 140 64
3 137 64 67
3 138 137 67
3 138 67 66
3 68 136 135
3 135 138 66
3 69 68 135
3 66 69 135
3 99 169 168
3 99 168 100
3 173 49 48
3 173 48 104
3 105 175 174
3 174 173 104
3 106 105 174
3 104 106 174
