ply
format ascii 1.0
comment Created by Blender 3.6.8 - www.blender.org
element vertex 118
property float x
property float y
property float z
element face 232
property list uchar uint vertex_indices
end_header
0.003709 0.000037 0.150000
0.003914 0.000110 0.150000
0.004142 0.000227 0.150000
0.004394 0.000396 0.150000
0.004674 0.000624 0.150000
0.005218 0.001110 0.150000
0.005682 0.001541 0.150000
0.006078 0.001934 0.150000
0.006256 0.002122 0.150000
0.006423 0.002307 0.150000
0.006580 0.002492 0.150000
0.006729 0.002678 0.150000
0.006872 0.002868 0.150000
0.007012 0.003063 0.150000
0.007278 0.003450 0.150000
0.007399 0.003634 0.150000
0.007510 0.003813 0.150000
0.007608 0.003988 0.150000
0.007752 0.004324 0.150000
0.007794 0.004486 0.150000
0.007813 0.004645 0.150000
0.007805 0.004801 0.150000
0.007769 0.004955 0.150000
0.007627 0.005258 0.150000
0.007371 0.005985 0.150000
0.007305 0.006109 0.150000
0.003351 0.000003 0.150000
0.003522 0.000004 0.150000
0.003045 0.000072 0.150000
0.003193 0.000028 0.150000
0.002628 0.000254 0.150000
0.002903 0.000129 0.150000
0.001520 0.000698 0.150000
0.001865 0.000546 0.150000
0.000440 0.001344 0.150000
0.000800 0.001093 0.150000
0.000165 0.001599 0.150000
0.000283 0.001475 0.150000
0.000031 0.001824 0.150000
0.000083 0.001714 0.150000
0.000001 0.002027 0.150000
0.000005 0.001928 0.150000
0.000038 0.002216 0.150000
0.000013 0.002123 0.150000
0.000233 0.002699 0.150000
0.000172 0.002578 0.150000
0.000534 0.003086 0.150000
0.000358 0.002872 0.150000
0.002289 0.004955 0.150000
0.000749 0.003330 0.150000
0.005104 0.006189 0.150000
0.002364 0.005043 0.150000
0.006334 0.006510 0.150000
0.005979 0.006448 0.150000
0.006815 0.006467 0.150000
0.006609 0.006511 0.150000
0.007116 0.006320 0.150000
0.006982 0.006403 0.150000
0.007222 0.006222 0.150000
0.007752 0.004324 0.000000
0.007794 0.004486 0.000000
0.002903 0.000129 0.000000
0.003045 0.000072 0.000000
0.002628 0.000254 0.000000
0.001520 0.000698 0.000000
0.001865 0.000546 0.000000
0.007510 0.003813 0.000000
0.007608 0.003988 0.000000
0.007399 0.003634 0.000000
0.007278 0.003450 0.000000
0.006872 0.002868 0.000000
0.007012 0.003063 0.000000
0.006609 0.006511 0.000000
0.006815 0.006467 0.000000
0.006982 0.006403 0.000000
0.007116 0.006320 0.000000
0.007222 0.006222 0.000000
0.007305 0.006109 0.000000
0.007371 0.005985 0.000000
0.007627 0.005258 0.000000
0.007769 0.004955 0.000000
0.007805 0.004801 0.000000
0.005979 0.006448 0.000000
0.006334 0.006510 0.000000
0.002364 0.005043 0.000000
0.005104 0.006189 0.000000
0.000534 0.003086 0.000000
0.000749 0.003330 0.000000
0.002289 0.004955 0.000000
0.007813 0.004645 0.000000
0.006729 0.002678 0.000000
0.006580 0.002492 0.000000
0.006423 0.002307 0.000000
0.006256 0.002122 0.000000
0.006078 0.001934 0.000000
0.005682 0.001541 0.000000
0.005218 0.001110 0.000000
0.004674 0.000624 0.000000
0.004394 0.000396 0.000000
0.004142 0.000227 0.000000
0.003914 0.000110 0.000000
0.003709 0.000037 0.000000
0.003522 0.000004 0.000000
0.003351 0.000003 0.000000
0.003193 0.000028 0.000000
0.000233 0.002699 0.000000
0.000358 0.002872 0.000000
0.000038 0.002216 0.000000
0.000172 0.002578 0.000000
0.000001 0.002027 0.000000
0.000013 0.002123 0.000000
0.000031 0.001824 0.000000
0.000005 0.001928 0.000000
0.000165 0.001599 0.000000
0.000083 0.001714 0.000000
0.000440 0.001344 0.000000
0.000283 0.001475 0.000000
0.000800 0.001093 0.000000
3 0 1 2
3 2 3 4
3 4 5 6
3 6 7 8
3 8 9 10
3 10 11 12
3 12 13 14
3 14 15 16
3 16 17 18
3 18 19 20
3 20 21 22
3 23 24 25
3 20 22 23
3 16 18 20
3 12 14 16
3 8 10 12
3 4 6 8
3 0 2 4
3 26 27 0
3 28 29 26
3 30 31 28
3 32 33 30
3 34 35 32
3 36 37 34
3 38 39 36
3 40 41 38
3 42 43 40
3 44 45 42
3 46 47 44
3 48 49 46
3 50 51 48
3 52 53 50
3 54 55 52
3 56 57 54
3 25 58 56
3 20 23 25
3 12 16 20
3 4 8 12
3 26 0 4
3 30 28 26
3 34 32 30
3 38 36 34
3 42 40 38
3 46 44 42
3 50 48 46
3 54 52 50
3 25 56 54
3 12 20 25
3 26 4 12
3 34 30 26
3 42 38 34
3 50 46 42
3 25 54 50
3 26 12 25
3 42 34 26
3 25 50 42
3 25 42 26
3 18 59 60
3 18 60 19
3 61 62 28
3 61 28 31
3 63 61 31
3 63 31 30
3 32 64 65
3 65 63 30
3 33 32 65
3 30 33 65
3 66 67 17
3 66 17 16
3 68 66 16
3 68 16 15
3 69 68 15
3 69 15 14
3 12 70 71
3 71 69 14
3 13 12 71
3 14 13 71
3 72 73 74
3 74 75 76
3 76 77 78
3 79 80 81
3 76 78 79
3 72 74 76
3 82 83 72
3 84 85 82
3 86 87 88
3 88 84 82
3 82 72 76
3 76 79 81
3 81 89 60
3 60 59 67
3 67 66 68
3 68 69 71
3 71 70 90
3 90 91 92
3 92 93 94
3 94 95 96
3 96 97 98
3 98 99 100
3 100 101 102
3 102 103 104
3 104 62 61
3 63 65 64
3 104 61 63
3 100 102 104
3 96 98 100
3 92 94 96
3 71 90 92
3 67 68 71
3 81 60 67
3 82 76 81
3 86 88 82
3 105 106 86
3 107 108 105
3 109 110 107
3 111 112 109
3 113 114 111
3 115 116 113
3 64 117 115
3 104 63 64
3 96 100 104
3 71 92 96
3 81 67 71
3 86 82 81
3 107 105 86
3 111 109 107
3 115 113 111
3 104 64 115
3 71 96 104
3 86 81 71
3 111 107 86
3 104 115 111
3 86 71 104
3 104 111 86
3 29 104 103
3 29 103 26
3 21 81 80
3 21 80 22
3 57 74 73
3 57 73 54
3 1 100 99
3 1 99 2
3 19 60 89
3 19 89 20
3 42 107 110
3 42 110 43
3 0 101 100
3 0 100 1
3 95 94 7
3 95 7 6
3 96 95 6
3 96 6 5
3 3 98 97
3 97 96 5
3 4 3 97
3 5 4 97
3 26 103 102
3 26 102 27
3 20 89 81
3 20 81 21
3 54 73 72
3 54 72 55
3 85 84 51
3 85 51 50
3 43 110 109
3 43 109 40
3 82 85 50
3 82 50 53
3 56 75 74
3 56 74 57
3 41 112 111
3 41 111 38
3 34 115 117
3 34 117 35
3 24 78 77
3 24 77 25
3 52 83 82
3 52 82 53
3 47 106 105
3 47 105 44
3 58 76 75
3 58 75 56
3 108 107 42
3 108 42 45
3 38 111 114
3 38 114 39
3 59 18 17
3 59 17 67
3 55 72 83
3 55 83 52
3 22 80 79
3 22 79 23
3 44 105 108
3 44 108 45
3 40 109 112
3 40 112 41
3 86 106 47
3 86 47 46
3 87 86 46
3 87 46 49
3 51 84 88
3 88 87 49
3 48 51 88
3 49 48 88
3 39 114 113
3 39 113 36
3 79 78 24
3 79 24 23
3 28 62 104
3 28 104 29
3 25 77 76
3 25 76 58
3 27 102 101
3 27 101 0
3 36 113 116
3 36 116 37
3 37 116 115
3 37 115 34
3 2 99 98
3 2 98 3
3 35 117 64
3 35 64 32
3 93 92 91
3 91 90 70
3 70 12 11
3 70 11 10
3 93 91 70
3 7 94 93
3 8 7 93
3 93 70 10
3 9 8 93
3 10 9 93
