ply
format ascii 1.0
comment Created by Blender 3.6.8 - www.blender.org
element vertex 208
property float x
property float y
property float z
element face 400
property list uchar uint vertex_indices
end_header
0.001279 0.000615 0.150000
0.001279 0.000615 0.000000
0.001358 0.000543 0.000000
0.001358 0.000543 0.150000
0.004481 0.001350 0.150000
0.004481 0.001350 0.000000
0.004714 0.001637 0.000000
0.004812 0.001769 0.000000
0.004894 0.001892 0.000000
0.004894 0.001892 0.150000
0.004714 0.001637 0.150000
0.004812 0.001769 0.150000
0.000007 0.004662 0.000000
0.000026 0.004503 0.000000
0.000097 0.004031 0.000000
0.000200 0.003432 0.000000
0.000324 0.002803 0.000000
0.000390 0.002507 0.000000
0.000456 0.002239 0.000000
0.000522 0.002012 0.000000
0.000522 0.002012 0.150000
0.000456 0.002239 0.150000
0.000007 0.004662 0.150000
0.000026 0.004503 0.150000
0.000390 0.002507 0.150000
0.000097 0.004031 0.150000
0.000200 0.003432 0.150000
0.000324 0.002803 0.150000
0.004921 0.005798 0.150000
0.004921 0.005798 0.000000
0.004895 0.005834 0.000000
0.004895 0.005834 0.150000
0.002807 0.000006 0.150000
0.002807 0.000006 0.000000
0.002869 0.000019 0.000000
0.002869 0.000019 0.150000
0.001451 0.000475 0.150000
0.001451 0.000475 0.000000
0.001563 0.000410 0.000000
0.001563 0.000410 0.150000
0.000059 0.005046 0.000000
0.000486 0.005270 0.000000
0.003312 0.005931 0.000000
0.004266 0.006005 0.000000
0.004449 0.005995 0.000000
0.004619 0.005970 0.000000
0.004694 0.005951 0.000000
0.004760 0.005927 0.000000
0.004816 0.005898 0.000000
0.004860 0.005867 0.000000
0.004941 0.005760 0.000000
0.004955 0.005718 0.000000
0.004965 0.005674 0.000000
0.004972 0.005627 0.000000
0.004986 0.005524 0.000000
0.004994 0.005468 0.000000
0.005019 0.005340 0.000000
0.005033 0.005257 0.000000
0.005046 0.005163 0.000000
0.000000 0.004754 0.000000
0.000585 0.001838 0.000000
0.000764 0.001431 0.000000
0.000706 0.001561 0.000000
0.000882 0.001189 0.000000
0.000823 0.001307 0.000000
0.001134 0.000780 0.000000
0.001003 0.000971 0.000000
0.002096 0.000184 0.000000
0.001823 0.000288 0.000000
0.002607 0.000021 0.000000
0.002592 0.000027 0.000000
0.002587 0.000029 0.000000
0.005060 0.005060 0.000000
0.005072 0.004950 0.000000
0.005084 0.004835 0.000000
0.005107 0.004601 0.000000
0.005127 0.004376 0.000000
0.005143 0.004178 0.000000
0.005149 0.004085 0.000000
0.005156 0.003983 0.000000
0.005162 0.003874 0.000000
0.005168 0.003760 0.000000
0.005173 0.003644 0.000000
0.005177 0.003526 0.000000
0.005180 0.003409 0.000000
0.005181 0.003294 0.000000
0.005181 0.003184 0.000000
0.005179 0.003079 0.000000
0.005176 0.002982 0.000000
0.005170 0.002895 0.000000
0.005150 0.002739 0.000000
0.005137 0.002668 0.000000
0.005121 0.002600 0.000000
0.005105 0.002536 0.000000
0.005039 0.002308 0.000000
0.002630 0.000013 0.000000
0.002703 0.000001 0.000000
0.002663 0.000006 0.000000
0.002751 0.000000 0.000000
0.002938 0.000043 0.000000
0.003093 0.000128 0.000000
0.003013 0.000079 0.000000
0.003263 0.000267 0.000000
0.003178 0.000194 0.000000
0.003417 0.000410 0.000000
0.003342 0.000339 0.000000
0.003735 0.000723 0.000000
0.005026 0.002256 0.000000
0.003789 0.000775 0.000000
0.005014 0.002207 0.000000
0.005006 0.002159 0.000000
0.004996 0.002111 0.000000
0.003841 0.000822 0.000000
0.004979 0.002060 0.000000
0.004957 0.002006 0.000000
0.004370 0.001232 0.000000
0.004318 0.001183 0.000000
0.004268 0.001139 0.000000
0.004220 0.001100 0.000000
0.004172 0.001064 0.000000
0.004126 0.001030 0.000000
0.003987 0.000935 0.000000
0.003891 0.000865 0.000000
0.003939 0.000902 0.000000
0.004266 0.006005 0.150000
0.004449 0.005995 0.150000
0.004941 0.005760 0.150000
0.002630 0.000013 0.150000
0.002663 0.000006 0.150000
0.000000 0.004754 0.150000
0.004965 0.005674 0.150000
0.004972 0.005627 0.150000
0.004986 0.005524 0.150000
0.004994 0.005468 0.150000
0.005019 0.005340 0.150000
0.005033 0.005257 0.150000
0.005046 0.005163 0.150000
0.005060 0.005060 0.150000
0.005072 0.004950 0.150000
0.005084 0.004835 0.150000
0.005107 0.004601 0.150000
0.005149 0.004085 0.150000
0.005127 0.004376 0.150000
0.005143 0.004178 0.150000
0.002703 0.000001 0.150000
0.002751 0.000000 0.150000
0.004955 0.005718 0.150000
0.004860 0.005867 0.150000
0.004816 0.005898 0.150000
0.004760 0.005927 0.150000
0.004694 0.005951 0.150000
0.004619 0.005970 0.150000
0.003312 0.005931 0.150000
0.000486 0.005270 0.150000
0.000059 0.005046 0.150000
0.000585 0.001838 0.150000
0.000706 0.001561 0.150000
0.000764 0.001431 0.150000
0.000823 0.001307 0.150000
0.000882 0.001189 0.150000
0.001003 0.000971 0.150000
0.001134 0.000780 0.150000
0.001823 0.000288 0.150000
0.002096 0.000184 0.150000
0.002587 0.000029 0.150000
0.002592 0.000027 0.150000
0.002607 0.000021 0.150000
0.002938 0.000043 0.150000
0.003013 0.000079 0.150000
0.003093 0.000128 0.150000
0.003178 0.000194 0.150000
0.003263 0.000267 0.150000
0.003342 0.000339 0.150000
0.003417 0.000410 0.150000
0.003735 0.000723 0.150000
0.005156 0.003983 0.150000
0.005168 0.003760 0.150000
0.005162 0.003874 0.150000
0.005177 0.003526 0.150000
0.005173 0.003644 0.150000
0.005181 0.003294 0.150000
0.005180 0.003409 0.150000
0.005179 0.003079 0.150000
0.005181 0.003184 0.150000
0.005170 0.002895 0.150000
0.005176 0.002982 0.150000
0.005137 0.002668 0.150000
0.005150 0.002739 0.150000
0.005105 0.002536 0.150000
0.005121 0.002600 0.150000
0.005039 0.002308 0.150000
0.003789 0.000775 0.150000
0.003841 0.000822 0.150000
0.003891 0.000865 0.150000
0.005026 0.002256 0.150000
0.004996 0.002111 0.150000
0.005006 0.002159 0.150000
0.005014 0.002207 0.150000
0.003939 0.000902 0.150000
0.004957 0.002006 0.150000
0.004979 0.002060 0.150000
0.004318 0.001183 0.150000
0.004370 0.001232 0.150000
0.004220 0.001100 0.150000
0.004268 0.001139 0.150000
0.004126 0.001030 0.150000
0.004172 0.001064 0.150000
0.003987 0.000935 0.150000
3 0 1 2
3 0 2 3
3 4 5 6
3 7 8 9
3 4 6 7
3 10 4 7
3 7 9 11
3 7 11 10
3 12 13 14
3 14 15 16
3 16 17 18
3 18 19 20
3 18 20 21
3 14 16 18
3 22 12 14
3 23 22 14
3 14 18 21
3 14 21 24
3 25 23 14
3 26 25 14
3 14 24 27
3 14 27 26
3 28 29 30
3 28 30 31
3 32 33 34
3 32 34 35
3 36 37 38
3 36 38 39
3 40 41 42
3 42 43 44
3 44 45 46
3 46 47 48
3 48 49 30
3 30 29 50
3 50 51 52
3 52 53 54
3 55 56 57
3 50 52 54
3 55 57 58
3 50 54 55
3 48 30 50
3 44 46 48
3 40 42 44
3 12 59 40
3 60 19 18
3 61 62 60
3 63 64 61
3 65 66 63
3 2 1 65
3 38 37 2
3 67 68 38
3 69 70 71
3 71 67 38
3 38 2 65
3 65 63 61
3 61 60 18
3 14 12 40
3 40 44 48
3 48 50 55
3 55 58 72
3 72 73 74
3 74 75 76
3 76 77 78
3 78 79 80
3 80 81 82
3 82 83 84
3 84 85 86
3 86 87 88
3 88 89 90
3 90 91 92
3 92 93 94
3 90 92 94
3 86 88 90
3 82 84 86
3 78 80 82
3 74 76 78
3 55 72 74
3 40 48 55
3 18 14 40
3 65 61 18
3 71 38 65
3 95 69 71
3 96 97 95
3 33 98 96
3 99 34 33
3 100 101 99
3 102 103 100
3 104 105 102
3 106 104 102
3 102 100 99
3 99 33 96
3 96 95 71
3 71 65 18
3 18 40 55
3 55 74 78
3 78 82 86
3 86 90 94
3 86 94 107
3 55 78 86
3 71 18 55
3 99 96 71
3 106 102 99
3 108 106 99
3 99 71 55
3 55 86 107
3 109 110 111
3 55 107 109
3 108 99 55
3 112 108 55
3 55 109 111
3 111 113 114
3 114 8 7
3 7 6 5
3 5 115 116
3 116 117 118
3 118 119 120
3 118 120 121
3 5 116 118
3 114 7 5
3 55 111 114
3 122 112 55
3 118 121 123
3 123 122 55
3 55 114 5
3 5 118 123
3 55 5 123
3 44 43 124
3 44 124 125
3 126 50 29
3 126 29 28
3 127 95 97
3 127 97 128
3 3 2 37
3 3 37 36
3 129 59 12
3 129 12 22
3 55 54 53
3 53 52 130
3 53 130 131
3 56 55 53
3 57 56 53
3 53 131 132
3 53 132 133
3 57 53 133
3 57 133 134
3 58 57 134
3 58 134 135
3 72 58 135
3 72 135 136
3 73 72 136
3 73 136 137
3 74 73 137
3 74 137 138
3 75 74 138
3 75 138 139
3 76 75 139
3 76 139 140
3 141 78 77
3 77 76 140
3 77 140 142
3 143 141 77
3 142 143 77
3 144 96 98
3 144 98 145
3 142 140 139
3 139 138 137
3 137 136 135
3 135 134 133
3 132 131 130
3 137 135 133
3 132 130 146
3 139 137 133
3 133 132 146
3 146 126 28
3 28 31 147
3 147 148 149
3 149 150 151
3 151 125 124
3 124 152 153
3 153 154 129
3 129 22 23
3 23 25 26
3 26 27 24
3 24 21 20
3 20 155 156
3 156 157 158
3 158 159 160
3 160 161 0
3 0 3 36
3 36 39 162
3 162 163 164
3 164 165 166
3 166 127 128
3 128 144 145
3 145 32 35
3 35 167 168
3 168 169 170
3 170 171 172
3 172 173 174
3 170 172 174
3 35 168 170
3 128 145 35
3 164 166 128
3 36 162 164
3 160 0 36
3 156 158 160
3 24 20 156
3 23 26 24
3 153 129 23
3 151 124 153
3 147 149 151
3 146 28 147
3 139 133 146
3 143 142 139
3 175 141 143
3 176 177 175
3 178 179 176
3 180 181 178
3 182 183 180
3 184 185 182
3 186 187 184
3 188 189 186
3 190 188 186
3 186 184 182
3 182 180 178
3 178 176 175
3 175 143 139
3 139 146 147
3 147 151 153
3 153 23 24
3 24 156 160
3 160 36 164
3 164 128 35
3 35 170 174
3 35 174 191
3 160 164 35
3 153 24 160
3 139 147 153
3 178 175 139
3 186 182 178
3 190 186 178
3 178 139 153
3 153 160 35
3 35 191 192
3 35 192 193
3 178 153 35
3 194 190 178
3 195 196 197
3 197 194 178
3 178 35 193
3 178 193 198
3 195 197 178
3 199 200 195
3 11 9 199
3 4 10 11
3 201 202 4
3 203 204 201
3 205 206 203
3 178 198 207
3 207 205 203
3 203 201 4
3 4 11 199
3 199 195 178
3 178 207 203
3 203 4 199
3 203 199 178
3 91 90 187
3 91 187 186
3 92 91 186
3 92 186 189
3 107 94 93
3 93 92 189
3 93 189 188
3 109 107 93
3 110 109 93
3 93 188 190
3 93 190 194
3 111 110 93
3 200 113 111
3 195 200 111
3 111 93 194
3 111 194 197
3 196 195 111
3 197 196 111
3 168 101 100
3 168 100 169
3 128 97 96
3 128 96 144
3 31 30 49
3 31 49 147
3 130 52 51
3 130 51 146
3 150 46 45
3 150 45 151
3 161 65 1
3 161 1 0
3 147 49 48
3 147 48 148
3 35 34 99
3 35 99 167
3 114 199 9
3 114 9 8
3 41 40 154
3 41 154 153
3 64 63 159
3 64 159 158
3 61 64 158
3 61 158 157
3 62 61 157
3 62 157 156
3 20 19 60
3 60 62 156
3 155 20 60
3 156 155 60
3 148 48 47
3 148 47 149
3 104 106 108
3 108 112 122
3 122 193 192
3 122 192 191
3 104 108 122
3 104 122 191
3 104 191 174
3 105 104 174
3 105 174 173
3 170 103 102
3 102 105 173
3 102 173 172
3 171 170 102
3 102 172 171
3 151 45 44
3 151 44 125
3 159 63 66
3 159 66 160
3 129 154 40
3 129 40 59
3 78 141 175
3 78 175 177
3 89 88 86
3 185 184 89
3 182 185 89
3 89 86 82
3 82 78 177
3 82 177 176
3 182 89 82
3 183 182 82
3 82 176 179
3 82 179 178
3 180 183 82
3 82 178 181
3 82 181 180
3 42 41 153
3 42 153 152
3 146 51 50
3 146 50 126
3 69 95 127
3 69 127 166
3 68 67 71
3 71 69 166
3 71 166 165
3 162 68 71
3 163 162 71
3 71 165 164
3 164 163 71
3 124 43 42
3 124 42 152
3 145 98 33
3 145 33 32
3 121 120 119
3 119 118 117
3 117 204 203
3 117 203 206
3 121 119 117
3 193 122 123
3 123 121 117
3 117 206 205
3 117 205 207
3 193 123 117
3 117 207 198
3 117 198 193
3 167 99 101
3 167 101 168
3 90 89 184
3 90 184 187
3 199 114 113
3 199 113 200
3 65 161 160
3 65 160 66
3 38 68 162
3 38 162 39
3 201 204 117
3 201 117 116
3 5 4 202
3 202 201 116
3 115 5 202
3 116 115 202
3 169 100 103
3 169 103 170
3 149 47 46
3 149 46 150
