ply
format ascii 1.0
comment Created by Blender 3.6.8 - www.blender.org
element vertex 206
property float x
property float y
property float z
element face 392
property list uchar uint vertex_indices
end_header
0.001507 0.008430 0.000000
0.001325 0.008312 0.000000
0.001325 0.008312 0.150000
0.001507 0.008430 0.150000
0.000121 0.005120 0.000000
0.000083 0.004826 0.000000
0.000083 0.004826 0.150000
0.000121 0.005120 0.150000
0.000168 0.005432 0.000000
0.000168 0.005432 0.150000
0.000223 0.005751 0.000000
0.000223 0.005751 0.150000
0.000281 0.006069 0.000000
0.000281 0.006069 0.150000
0.000539 0.007400 0.150000
0.000539 0.007400 0.000000
0.000522 0.007294 0.000000
0.000522 0.007294 0.150000
0.006533 0.002325 0.150000
0.006533 0.002325 0.000000
0.006550 0.002482 0.000000
0.006550 0.002482 0.150000
0.003445 0.000016 0.150000
0.003445 0.000016 0.000000
0.003652 0.000000 0.000000
0.003652 0.000000 0.150000
0.006500 0.002188 0.150000
0.006500 0.002188 0.000000
0.006455 0.002067 0.150000
0.006455 0.002067 0.000000
0.003072 0.008897 0.150000
0.003072 0.008897 0.000000
0.002772 0.008880 0.000000
0.002772 0.008880 0.150000
0.004449 0.008498 0.150000
0.004449 0.008498 0.000000
0.004371 0.008575 0.000000
0.004371 0.008575 0.150000
0.000914 0.007863 0.000000
0.001056 0.008034 0.000000
0.001123 0.008113 0.000000
0.001184 0.008184 0.000000
0.001249 0.008249 0.000000
0.001724 0.008539 0.000000
0.001842 0.008590 0.000000
0.001965 0.008640 0.000000
0.002093 0.008687 0.000000
0.002224 0.008733 0.000000
0.002491 0.008820 0.000000
0.002629 0.008856 0.000000
0.003375 0.008878 0.000000
0.003670 0.008832 0.000000
0.004182 0.008686 0.000000
0.004283 0.008638 0.000000
0.004520 0.008407 0.000000
0.004587 0.008302 0.000000
0.004652 0.008181 0.000000
0.004718 0.008046 0.000000
0.004788 0.007897 0.000000
0.004865 0.007732 0.000000
0.000058 0.004559 0.000000
0.000045 0.004128 0.000000
0.000049 0.004328 0.000000
0.000003 0.003430 0.000000
0.000012 0.003596 0.000000
0.000036 0.003941 0.000000
0.000000 0.003265 0.000000
0.000022 0.002920 0.000000
0.000167 0.002315 0.000000
0.000100 0.002533 0.000000
0.000257 0.002076 0.000000
0.004952 0.007551 0.000000
0.000337 0.001843 0.000000
0.005051 0.007356 0.000000
0.005165 0.007145 0.000000
0.005285 0.006929 0.000000
0.005401 0.006717 0.000000
0.000381 0.001641 0.000000
0.000415 0.001185 0.000000
0.000408 0.001315 0.000000
0.000401 0.001466 0.000000
0.005512 0.006509 0.000000
0.005618 0.006304 0.000000
0.005719 0.006099 0.000000
0.005816 0.005894 0.000000
0.005909 0.005687 0.000000
0.006237 0.004819 0.000000
0.006309 0.004585 0.000000
0.006372 0.004362 0.000000
0.006422 0.004165 0.000000
0.006461 0.003991 0.000000
0.006509 0.003691 0.000000
0.006523 0.003555 0.000000
0.006531 0.003424 0.000000
0.006536 0.003292 0.000000
0.006540 0.003006 0.000000
0.000434 0.001071 0.000000
0.000552 0.000879 0.000000
0.000475 0.000971 0.000000
0.000858 0.000710 0.000000
0.000676 0.000794 0.000000
0.001810 0.000439 0.000000
0.001111 0.000625 0.000000
0.002986 0.000107 0.000000
0.002728 0.000177 0.000000
0.003223 0.000053 0.000000
0.003848 0.000009 0.000000
0.004217 0.000113 0.000000
0.004035 0.000045 0.000000
0.005627 0.001077 0.000000
0.005439 0.000906 0.000000
0.005809 0.001285 0.000000
0.005718 0.001175 0.000000
0.005902 0.001395 0.000000
0.006544 0.002844 0.000000
0.006550 0.002663 0.000000
0.006397 0.001958 0.000000
0.006330 0.001860 0.000000
0.006254 0.001767 0.000000
0.006172 0.001678 0.000000
0.006084 0.001589 0.000000
0.005994 0.001496 0.000000
0.003670 0.008832 0.150000
0.003375 0.008878 0.150000
0.000022 0.002920 0.150000
0.000100 0.002533 0.150000
0.000676 0.000794 0.150000
0.000858 0.000710 0.150000
0.004283 0.008638 0.150000
0.004182 0.008686 0.150000
0.000000 0.003265 0.150000
0.002629 0.008856 0.150000
0.002491 0.008820 0.150000
0.002224 0.008733 0.150000
0.002093 0.008687 0.150000
0.001965 0.008640 0.150000
0.001842 0.008590 0.150000
0.001724 0.008539 0.150000
0.001249 0.008249 0.150000
0.001184 0.008184 0.150000
0.001123 0.008113 0.150000
0.001056 0.008034 0.150000
0.000914 0.007863 0.150000
0.004520 0.008407 0.150000
0.004652 0.008181 0.150000
0.004587 0.008302 0.150000
0.004788 0.007897 0.150000
0.004718 0.008046 0.150000
0.004865 0.007732 0.150000
0.000058 0.004559 0.150000
0.000049 0.004328 0.150000
0.000045 0.004128 0.150000
0.000036 0.003941 0.150000
0.000012 0.003596 0.150000
0.000003 0.003430 0.150000
0.000167 0.002315 0.150000
0.000257 0.002076 0.150000
0.004952 0.007551 0.150000
0.005051 0.007356 0.150000
0.000337 0.001843 0.150000
0.005165 0.007145 0.150000
0.005401 0.006717 0.150000
0.005285 0.006929 0.150000
0.005618 0.006304 0.150000
0.005512 0.006509 0.150000
0.005816 0.005894 0.150000
0.005719 0.006099 0.150000
0.006237 0.004819 0.150000
0.005909 0.005687 0.150000
0.006372 0.004362 0.150000
0.006309 0.004585 0.150000
0.006461 0.003991 0.150000
0.006422 0.004165 0.150000
0.006523 0.003555 0.150000
0.006509 0.003691 0.150000
0.006536 0.003292 0.150000
0.006531 0.003424 0.150000
0.006540 0.003006 0.150000
0.000381 0.001641 0.150000
0.000401 0.001466 0.150000
0.000408 0.001315 0.150000
0.000415 0.001185 0.150000
0.006544 0.002844 0.150000
0.006550 0.002663 0.150000
0.006397 0.001958 0.150000
0.006254 0.001767 0.150000
0.006330 0.001860 0.150000
0.006084 0.001589 0.150000
0.006172 0.001678 0.150000
0.005994 0.001496 0.150000
0.000434 0.001071 0.150000
0.000475 0.000971 0.150000
0.000552 0.000879 0.150000
0.001111 0.000625 0.150000
0.001810 0.000439 0.150000
0.002728 0.000177 0.150000
0.002986 0.000107 0.150000
0.003223 0.000053 0.150000
0.003848 0.000009 0.150000
0.004035 0.000045 0.150000
0.004217 0.000113 0.150000
0.005439 0.000906 0.150000
0.005627 0.001077 0.150000
0.005718 0.001175 0.150000
0.005809 0.001285 0.150000
0.005902 0.001395 0.150000
3 0 1 2
3 0 2 3
3 4 5 6
3 4 6 7
3 8 4 7
3 8 7 9
3 10 8 9
3 10 9 11
3 12 10 11
3 12 11 13
3 14 15 16
3 16 12 13
3 17 14 16
3 13 17 16
3 18 19 20
3 18 20 21
3 22 23 24
3 22 24 25
3 26 27 19
3 26 19 18
3 28 29 27
3 28 27 26
3 30 31 32
3 30 32 33
3 34 35 36
3 34 36 37
3 10 12 16
3 16 15 38
3 38 39 40
3 40 41 42
3 42 1 0
3 0 43 44
3 44 45 46
3 46 47 48
3 48 49 32
3 32 31 50
3 50 51 52
3 52 53 36
3 36 35 54
3 54 55 56
3 56 57 58
3 56 58 59
3 36 54 56
3 50 52 36
3 48 32 50
3 44 46 48
3 42 0 44
3 38 40 42
3 10 16 38
3 4 8 10
3 60 5 4
3 61 62 60
3 63 64 65
3 61 60 4
3 66 63 65
3 65 61 4
3 4 10 38
3 38 42 44
3 44 48 50
3 50 36 56
3 50 56 59
3 38 44 50
3 65 4 38
3 67 66 65
3 68 69 67
3 70 68 67
3 67 65 38
3 38 50 59
3 38 59 71
3 70 67 38
3 72 70 38
3 38 71 73
3 74 75 76
3 38 73 74
3 77 72 38
3 78 79 80
3 80 77 38
3 38 74 76
3 76 81 82
3 82 83 84
3 84 85 86
3 86 87 88
3 88 89 90
3 90 91 92
3 92 93 94
3 92 94 95
3 88 90 92
3 84 86 88
3 76 82 84
3 80 38 76
3 96 78 80
3 97 98 96
3 99 100 97
3 101 102 99
3 103 104 101
3 23 105 103
3 106 24 23
3 107 108 106
3 109 110 107
3 111 112 109
3 113 111 109
3 109 107 106
3 106 23 103
3 103 101 99
3 99 97 96
3 96 80 76
3 76 84 88
3 88 92 95
3 114 115 20
3 88 95 114
3 96 76 88
3 103 99 96
3 109 106 103
3 113 109 103
3 103 96 88
3 88 114 20
3 20 19 27
3 27 29 116
3 116 117 118
3 118 119 120
3 121 113 103
3 118 120 121
3 27 116 118
3 88 20 27
3 121 103 88
3 27 118 121
3 88 27 121
3 122 51 50
3 122 50 123
3 124 67 69
3 124 69 125
3 126 100 99
3 126 99 127
3 128 53 52
3 128 52 129
3 66 67 124
3 66 124 130
3 128 129 122
3 122 123 30
3 30 33 131
3 131 132 133
3 133 134 135
3 135 136 137
3 137 3 2
3 2 138 139
3 139 140 141
3 141 142 14
3 17 13 11
3 141 14 17
3 2 139 141
3 135 137 2
3 131 133 135
3 122 30 131
3 37 128 122
3 143 34 37
3 144 145 143
3 146 147 144
3 148 146 144
3 144 143 37
3 37 122 131
3 131 135 2
3 2 141 17
3 17 11 9
3 9 7 6
3 6 149 150
3 6 150 151
3 17 9 6
3 131 2 17
3 144 37 131
3 148 144 131
3 131 17 6
3 6 151 152
3 152 153 154
3 154 130 124
3 124 125 155
3 124 155 156
3 152 154 124
3 131 6 152
3 157 148 131
3 158 157 131
3 131 152 124
3 124 156 159
3 131 124 159
3 160 158 131
3 161 162 160
3 163 164 161
3 165 166 163
3 167 168 165
3 169 170 167
3 171 172 169
3 173 174 171
3 175 176 173
3 177 175 173
3 173 171 169
3 169 167 165
3 165 163 161
3 161 160 131
3 131 159 178
3 179 180 181
3 131 178 179
3 165 161 131
3 173 169 165
3 182 177 173
3 21 183 182
3 26 18 21
3 184 28 26
3 185 186 184
3 187 188 185
3 189 187 185
3 185 184 26
3 26 21 182
3 182 173 165
3 165 131 179
3 179 181 190
3 190 191 192
3 192 126 127
3 127 193 194
3 194 195 196
3 196 197 22
3 22 25 198
3 198 199 200
3 200 201 202
3 202 203 204
3 202 204 205
3 198 200 202
3 196 22 198
3 127 194 196
3 190 192 127
3 165 179 190
3 26 182 165
3 189 185 26
3 198 202 205
3 205 189 26
3 26 165 190
3 190 127 196
3 196 198 205
3 205 26 190
3 190 196 205
3 52 51 122
3 52 122 129
3 43 0 3
3 43 3 137
3 123 50 31
3 123 31 30
3 145 55 54
3 145 54 143
3 86 167 170
3 86 170 169
3 90 88 86
3 172 171 90
3 86 169 172
3 86 172 90
3 192 97 100
3 192 100 126
3 199 108 107
3 199 107 200
3 190 96 98
3 190 98 191
3 197 105 23
3 197 23 22
3 82 76 74
3 85 84 82
3 165 168 85
3 166 165 85
3 85 82 74
3 85 74 73
3 163 166 85
3 164 163 85
3 164 85 73
3 161 164 73
3 161 73 71
3 162 161 71
3 59 58 57
3 162 71 59
3 160 162 59
3 59 57 56
3 56 55 145
3 56 145 144
3 160 59 56
3 158 160 56
3 56 144 147
3 56 147 146
3 157 158 56
3 56 146 148
3 56 148 157
3 38 15 14
3 38 14 142
3 39 38 142
3 39 142 141
3 139 41 40
3 40 39 141
3 140 139 40
3 141 140 40
3 174 91 90
3 174 90 171
3 37 36 53
3 37 53 128
3 5 60 61
3 5 61 65
3 149 6 5
3 150 149 5
3 65 66 130
3 150 5 65
3 151 150 65
3 65 130 154
3 65 154 153
3 152 151 65
3 65 153 152
3 186 117 116
3 186 116 184
3 25 24 106
3 25 106 198
3 131 49 48
3 131 48 132
3 191 98 97
3 191 97 192
3 198 106 108
3 198 108 199
3 92 91 174
3 92 174 173
3 93 92 173
3 93 173 176
3 114 95 94
3 94 93 176
3 94 176 175
3 115 114 94
3 21 20 115
3 183 21 115
3 115 94 175
3 115 175 177
3 182 183 115
3 177 182 115
3 138 42 41
3 138 41 139
3 118 117 186
3 118 186 185
3 121 118 185
3 121 185 188
3 113 121 188
3 113 188 187
3 111 113 187
3 111 187 189
3 202 109 111
3 203 202 111
3 111 189 205
3 204 203 111
3 111 205 204
3 159 72 77
3 159 77 178
3 2 1 42
3 2 42 138
3 107 110 201
3 107 201 200
3 70 72 159
3 70 159 156
3 125 69 68
3 68 70 156
3 155 125 68
3 156 155 68
3 78 96 190
3 78 190 181
3 79 78 181
3 79 181 180
3 178 77 80
3 80 79 180
3 179 178 80
3 80 180 179
3 86 85 168
3 86 168 167
3 184 116 29
3 184 29 28
3 110 109 202
3 110 202 201
3 33 32 49
3 33 49 131
3 103 105 197
3 103 197 196
3 101 103 196
3 101 196 195
3 127 99 101
3 193 127 101
3 101 195 194
3 101 194 193
3 143 54 35
3 143 35 34
3 44 43 137
3 44 137 136
3 133 132 48
3 134 133 48
3 48 44 136
3 135 134 48
3 136 135 48
