ply
format ascii 1.0
comment Created by Blender 3.6.8 - www.blender.org
element vertex 152
property float x
property float y
property float z
element face 299
property list uchar uint vertex_indices
end_header
0.008722 0.003853 0.000000
0.008810 0.003769 0.000000
0.008888 0.003683 0.000000
0.009044 0.003446 0.000000
0.009121 0.003303 0.000000
0.009194 0.003151 0.000000
0.009329 0.002833 0.000000
0.009388 0.002678 0.000000
0.009440 0.002530 0.000000
0.009485 0.002394 0.000000
0.009521 0.002275 0.000000
0.009546 0.002178 0.000000
0.009556 0.002072 0.000000
0.009546 0.001932 0.000000
0.009473 0.001577 0.000000
0.009342 0.001170 0.000000
0.009169 0.000769 0.000000
0.008969 0.000432 0.000000
0.008863 0.000306 0.000000
0.008757 0.000217 0.000000
0.008649 0.000155 0.000000
0.008539 0.000105 0.000000
0.008427 0.000067 0.000000
0.008192 0.000018 0.000000
0.007942 0.000000 0.000000
0.007811 0.000001 0.000000
0.007674 0.000007 0.000000
0.007531 0.000016 0.000000
0.007229 0.000044 0.000000
0.007070 0.000067 0.000000
0.006749 0.000155 0.000000
0.006425 0.000293 0.000000
0.006262 0.000377 0.000000
0.006099 0.000470 0.000000
0.005774 0.000677 0.000000
0.000790 0.004942 0.000000
0.000680 0.005066 0.000000
0.000576 0.005229 0.000000
0.000479 0.005452 0.000000
0.000236 0.006347 0.000000
0.000002 0.007900 0.000000
0.000001 0.007967 0.000000
0.000314 0.008718 0.000000
0.000347 0.008774 0.000000
0.000374 0.008806 0.000000
0.000404 0.008824 0.000000
0.000446 0.008840 0.000000
0.000497 0.008853 0.000000
0.000619 0.008873 0.000000
0.000881 0.008889 0.000000
0.000937 0.008888 0.000000
0.000986 0.008886 0.000000
0.001025 0.008882 0.000000
0.001140 0.008853 0.000000
0.001227 0.008826 0.000000
0.001443 0.008755 0.000000
0.002116 0.008516 0.000000
0.002256 0.008462 0.000000
0.004240 0.007614 0.000000
0.004319 0.007578 0.000000
0.004400 0.007538 0.000000
0.004493 0.007487 0.000000
0.004596 0.007428 0.000000
0.004705 0.007363 0.000000
0.004818 0.007294 0.000000
0.004931 0.007223 0.000000
0.005040 0.007154 0.000000
0.005143 0.007087 0.000000
0.005237 0.007026 0.000000
0.005317 0.006973 0.000000
0.005381 0.006929 0.000000
0.005426 0.006898 0.000000
0.005470 0.006866 0.000000
0.005530 0.006818 0.000000
0.007052 0.005514 0.000000
0.007211 0.005368 0.000000
0.000479 0.005452 0.150000
0.000236 0.006347 0.150000
0.006425 0.000293 0.150000
0.006262 0.000377 0.150000
0.005774 0.000677 0.150000
0.006099 0.000470 0.150000
0.000497 0.008853 0.150000
0.000446 0.008840 0.150000
0.000576 0.005229 0.150000
0.009473 0.001577 0.150000
0.009342 0.001170 0.150000
0.009329 0.002833 0.150000
0.009388 0.002678 0.150000
0.009440 0.002530 0.150000
0.009485 0.002394 0.150000
0.009546 0.002178 0.150000
0.009521 0.002275 0.150000
0.000619 0.008873 0.150000
0.000881 0.008889 0.150000
0.000404 0.008824 0.150000
0.001140 0.008853 0.150000
0.001227 0.008826 0.150000
0.001443 0.008755 0.150000
0.002116 0.008516 0.150000
0.002256 0.008462 0.150000
0.004319 0.007578 0.150000
0.004240 0.007614 0.150000
0.000374 0.008806 0.150000
0.000347 0.008774 0.150000
0.009044 0.003446 0.150000
0.009121 0.003303 0.150000
0.009194 0.003151 0.150000
0.000001 0.007967 0.150000
0.000002 0.007900 0.150000
0.007942 0.000000 0.150000
0.008192 0.000018 0.150000
0.008427 0.000067 0.150000
0.008539 0.000105 0.150000
0.008649 0.000155 0.150000
0.008757 0.000217 0.150000
0.008863 0.000306 0.150000
0.008969 0.000432 0.150000
0.009169 0.000769 0.150000
0.009546 0.001932 0.150000
0.009556 0.002072 0.150000
0.008888 0.003683 0.150000
0.008810 0.003769 0.150000
0.008722 0.003853 0.150000
0.007211 0.005368 0.150000
0.007052 0.005514 0.150000
0.005530 0.006818 0.150000
0.005470 0.006866 0.150000
0.005426 0.006898 0.150000
0.005381 0.006929 0.150000
0.005317 0.006973 0.150000
0.005237 0.007026 0.150000
0.005143 0.007087 0.150000
0.005040 0.007154 0.150000
0.004931 0.007223 0.150000
0.004818 0.007294 0.150000
0.004705 0.007363 0.150000
0.004596 0.007428 0.150000
0.004493 0.007487 0.150000
0.004400 0.007538 0.150000
0.001025 0.008882 0.150000
0.000986 0.008886 0.150000
0.000937 0.008888 0.150000
0.000314 0.008718 0.150000
0.000680 0.005066 0.150000
0.000790 0.004942 0.150000
0.006749 0.000155 0.150000
0.007070 0.000067 0.150000
0.007229 0.000044 0.150000
0.007531 0.000016 0.150000
0.007674 0.000007 0.150000
0.007811 0.000001 0.150000
3 0 1 2
3 2 3 4
3 4 5 6
3 6 7 8
3 8 9 10
3 10 11 12
3 12 13 14
3 14 15 16
3 16 17 18
3 18 19 20
3 20 21 22
3 22 23 24
3 24 25 26
3 26 27 28
3 28 29 30
3 30 31 32
3 32 33 34
3 34 35 36
3 36 37 38
3 38 39 40
3 40 41 42
3 42 43 44
3 44 45 46
3 46 47 48
3 48 49 50
3 50 51 52
3 52 53 54
3 54 55 56
3 56 57 58
3 58 59 60
3 60 61 62
3 62 63 64
3 64 65 66
3 66 67 68
3 68 69 70
3 70 71 72
3 72 73 74
3 74 75 0
3 0 2 4
3 4 6 8
3 8 10 12
3 12 14 16
3 16 18 20
3 20 22 24
3 24 26 28
3 28 30 32
3 32 34 36
3 36 38 40
3 40 42 44
3 44 46 48
3 48 50 52
3 52 54 56
3 56 58 60
3 60 62 64
3 64 66 68
3 68 70 72
3 72 74 0
3 0 4 8
3 8 12 16
3 16 20 24
3 24 28 32
3 32 36 40
3 40 44 48
3 48 52 56
3 56 60 64
3 64 68 72
3 72 0 8
3 8 16 24
3 24 32 40
3 40 48 56
3 56 64 72
3 72 8 24
3 24 40 56
3 24 56 72
3 38 76 77
3 38 77 39
3 32 31 78
3 32 78 79
3 80 34 33
3 33 32 79
3 81 80 33
3 79 81 33
3 82 47 46
3 82 46 83
3 76 38 37
3 76 37 84
3 14 85 86
3 14 86 15
3 7 6 87
3 7 87 88
3 8 7 88
3 8 88 89
3 9 8 89
3 9 89 90
3 91 11 10
3 10 9 90
3 92 91 10
3 90 92 10
3 49 48 93
3 49 93 94
3 83 46 45
3 83 45 95
3 54 53 96
3 54 96 97
3 55 54 97
3 55 97 98
3 56 55 98
3 56 98 99
3 57 56 99
3 57 99 100
3 101 59 58
3 58 57 100
3 102 101 58
3 100 102 58
3 103 44 43
3 103 43 104
3 4 3 105
3 4 105 106
3 87 6 5
3 5 4 106
3 107 87 5
3 106 107 5
3 108 41 40
3 108 40 109
3 110 111 112
3 112 113 114
3 114 115 116
3 116 117 118
3 118 86 85
3 85 119 120
3 120 91 92
3 92 90 89
3 89 88 87
3 87 107 106
3 106 105 121
3 121 122 123
3 123 124 125
3 125 126 127
3 127 128 129
3 129 130 131
3 131 132 133
3 133 134 135
3 135 136 137
3 137 138 139
3 139 101 102
3 102 100 99
3 99 98 97
3 97 96 140
3 140 141 142
3 142 94 93
3 93 82 83
3 83 95 103
3 103 104 143
3 143 108 109
3 109 77 76
3 76 84 144
3 144 145 80
3 80 81 79
3 79 78 146
3 146 147 148
3 148 149 150
3 150 151 110
3 110 112 114
3 114 116 118
3 118 85 120
3 120 92 89
3 89 87 106
3 106 121 123
3 123 125 127
3 127 129 131
3 131 133 135
3 135 137 139
3 139 102 99
3 99 97 140
3 140 142 93
3 93 83 103
3 103 143 109
3 109 76 144
3 144 80 79
3 79 146 148
3 148 150 110
3 110 114 118
3 118 120 89
3 89 106 123
3 123 127 131
3 131 135 139
3 139 99 140
3 140 93 103
3 103 109 144
3 144 79 148
3 148 110 118
3 118 89 123
3 123 131 139
3 139 140 103
3 103 144 148
3 148 118 123
3 123 139 103
3 123 103 148
3 85 14 13
3 85 13 119
3 119 13 12
3 119 12 120
3 24 110 151
3 24 151 150
3 27 26 24
3 29 28 27
3 148 147 29
3 24 150 149
3 149 148 29
3 29 27 24
3 24 149 29
3 109 40 39
3 109 39 77
3 118 16 15
3 118 15 86
3 112 22 21
3 112 21 113
3 95 45 44
3 95 44 103
3 116 18 17
3 116 17 117
3 105 3 2
3 105 2 121
3 144 36 35
3 144 35 145
3 110 24 23
3 110 23 111
3 104 43 42
3 104 42 143
3 63 62 61
3 61 60 59
3 59 101 139
3 59 139 138
3 63 61 59
3 65 64 63
3 67 66 65
3 69 68 67
3 71 70 69
3 129 128 71
3 130 129 71
3 71 69 67
3 67 65 63
3 63 59 138
3 63 138 137
3 71 67 63
3 131 130 71
3 132 131 71
3 71 63 137
3 71 137 136
3 133 132 71
3 134 133 71
3 71 136 135
3 135 134 71
3 47 82 93
3 47 93 48
3 115 19 18
3 115 18 116
3 72 71 128
3 72 128 127
3 73 72 127
3 73 127 126
3 74 73 126
3 74 126 125
3 1 0 75
3 75 74 125
3 75 125 124
3 121 2 1
3 1 75 124
3 1 124 123
3 122 121 1
3 123 122 1
3 143 42 41
3 143 41 108
3 51 50 49
3 49 94 142
3 141 140 52
3 49 142 141
3 52 51 49
3 49 141 52
3 30 29 147
3 30 147 146
3 78 31 30
3 78 30 146
3 16 118 117
3 16 117 17
3 120 12 11
3 120 11 91
3 96 53 52
3 96 52 140
3 84 37 36
3 84 36 144
3 113 21 20
3 113 20 114
3 35 34 80
3 35 80 145
3 111 23 22
3 111 22 112
3 114 20 19
3 114 19 115
