ply
format ascii 1.0
comment Created by Blender 3.6.8 - www.blender.org
element vertex 164
property float x
property float y
property float z
element face 323
property list uchar uint vertex_indices
end_header
0.001820 0.003841 0.000000
0.003025 0.004053 0.000000
0.003179 0.004064 0.000000
0.003540 0.004045 0.000000
0.003643 0.004033 0.000000
0.003750 0.004017 0.000000
0.003968 0.003979 0.000000
0.004502 0.003840 0.000000
0.004704 0.003764 0.000000
0.004806 0.003721 0.000000
0.004912 0.003672 0.000000
0.005023 0.003618 0.000000
0.005141 0.003558 0.000000
0.005703 0.003246 0.000000
0.005853 0.003156 0.000000
0.006076 0.002996 0.000000
0.006158 0.002921 0.000000
0.006224 0.002845 0.000000
0.006280 0.002766 0.000000
0.006329 0.002681 0.000000
0.006375 0.002589 0.000000
0.006473 0.002369 0.000000
0.001607 0.003756 0.000000
0.001142 0.003513 0.000000
0.001308 0.003607 0.000000
0.000652 0.003171 0.000000
0.000974 0.003408 0.000000
0.000393 0.002911 0.000000
0.000512 0.003043 0.000000
0.000244 0.002640 0.000000
0.000301 0.002776 0.000000
0.000144 0.002263 0.000000
0.000174 0.002383 0.000000
0.000095 0.002035 0.000000
0.000118 0.002148 0.000000
0.000058 0.001813 0.000000
0.000075 0.001923 0.000000
0.000014 0.001348 0.000000
0.000031 0.001587 0.000000
0.000000 0.000857 0.000000
0.000001 0.000972 0.000000
0.000015 0.000556 0.000000
0.000002 0.000749 0.000000
0.000071 0.000331 0.000000
0.000047 0.000397 0.000000
0.000138 0.000230 0.000000
0.000101 0.000275 0.000000
0.000376 0.000095 0.000000
0.000182 0.000195 0.000000
0.000547 0.000047 0.000000
0.000486 0.000060 0.000000
0.004430 0.000214 0.000000
0.000689 0.000032 0.000000
0.006534 0.002237 0.000000
0.006607 0.002086 0.000000
0.006678 0.001934 0.000000
0.006730 0.001795 0.000000
0.006766 0.001669 0.000000
0.006787 0.001551 0.000000
0.006795 0.001440 0.000000
0.006794 0.001333 0.000000
0.006674 0.000502 0.000000
0.006645 0.000396 0.000000
0.006605 0.000311 0.000000
0.006556 0.000244 0.000000
0.006497 0.000193 0.000000
0.006429 0.000154 0.000000
0.006353 0.000125 0.000000
0.006267 0.000103 0.000000
0.005631 0.000002 0.000000
0.005545 0.000000 0.000000
0.005469 0.000006 0.000000
0.005400 0.000017 0.000000
0.005336 0.000034 0.000000
0.005274 0.000054 0.000000
0.005212 0.000076 0.000000
0.005146 0.000100 0.000000
0.005075 0.000124 0.000000
0.004622 0.000206 0.000000
0.004715 0.000197 0.000000
0.004995 0.000147 0.000000
0.004809 0.000185 0.000000
0.001820 0.003841 0.150000
0.001607 0.003756 0.150000
0.006353 0.000125 0.150000
0.006429 0.000154 0.150000
0.000974 0.003408 0.150000
0.001142 0.003513 0.150000
0.001308 0.003607 0.150000
0.000547 0.000047 0.150000
0.000689 0.000032 0.150000
0.006497 0.000193 0.150000
0.003968 0.003979 0.150000
0.004502 0.003840 0.150000
0.000486 0.000060 0.150000
0.006556 0.000244 0.150000
0.006605 0.000311 0.150000
0.000376 0.000095 0.150000
0.000182 0.000195 0.150000
0.004704 0.003764 0.150000
0.003750 0.004017 0.150000
0.003643 0.004033 0.150000
0.003540 0.004045 0.150000
0.003179 0.004064 0.150000
0.003025 0.004053 0.150000
0.000652 0.003171 0.150000
0.000512 0.003043 0.150000
0.000393 0.002911 0.150000
0.000301 0.002776 0.150000
0.000244 0.002640 0.150000
0.000174 0.002383 0.150000
0.000144 0.002263 0.150000
0.000118 0.002148 0.150000
0.000095 0.002035 0.150000
0.000075 0.001923 0.150000
0.000058 0.001813 0.150000
0.000031 0.001587 0.150000
0.000014 0.001348 0.150000
0.000001 0.000972 0.150000
0.000000 0.000857 0.150000
0.000002 0.000749 0.150000
0.000015 0.000556 0.150000
0.000047 0.000397 0.150000
0.000071 0.000331 0.150000
0.000101 0.000275 0.150000
0.000138 0.000230 0.150000
0.004430 0.000214 0.150000
0.004912 0.003672 0.150000
0.004806 0.003721 0.150000
0.005141 0.003558 0.150000
0.005023 0.003618 0.150000
0.005853 0.003156 0.150000
0.005703 0.003246 0.150000
0.006158 0.002921 0.150000
0.006076 0.002996 0.150000
0.006280 0.002766 0.150000
0.006224 0.002845 0.150000
0.006375 0.002589 0.150000
0.006329 0.002681 0.150000
0.006473 0.002369 0.150000
0.006534 0.002237 0.150000
0.006678 0.001934 0.150000
0.006607 0.002086 0.150000
0.006766 0.001669 0.150000
0.006730 0.001795 0.150000
0.006795 0.001440 0.150000
0.006787 0.001551 0.150000
0.006674 0.000502 0.150000
0.006794 0.001333 0.150000
0.006645 0.000396 0.150000
0.005631 0.000002 0.150000
0.006267 0.000103 0.150000
0.005469 0.000006 0.150000
0.005545 0.000000 0.150000
0.005336 0.000034 0.150000
0.005400 0.000017 0.150000
0.005212 0.000076 0.150000
0.005274 0.000054 0.150000
0.005146 0.000100 0.150000
0.004622 0.000206 0.150000
0.004715 0.000197 0.150000
0.005075 0.000124 0.150000
0.004809 0.000185 0.150000
0.004995 0.000147 0.150000
3 0 1 2
3 2 3 4
3 4 5 6
3 6 7 8
3 8 9 10
3 10 11 12
3 12 13 14
3 14 15 16
3 16 17 18
3 18 19 20
3 18 20 21
3 14 16 18
3 10 12 14
3 6 8 10
3 2 4 6
3 22 0 2
3 23 24 22
3 25 26 23
3 27 28 25
3 29 30 27
3 31 32 29
3 33 34 31
3 35 36 33
3 37 38 35
3 39 40 37
3 41 42 39
3 43 44 41
3 45 46 43
3 47 48 45
3 49 50 47
3 51 52 49
3 51 49 47
3 47 45 43
3 43 41 39
3 39 37 35
3 35 33 31
3 31 29 27
3 27 25 23
3 23 22 2
3 2 6 10
3 10 14 18
3 18 21 53
3 53 54 55
3 55 56 57
3 57 58 59
3 59 60 61
3 61 62 63
3 63 64 65
3 65 66 67
3 67 68 69
3 69 70 71
3 71 72 73
3 73 74 75
3 73 75 76
3 69 71 73
3 65 67 69
3 61 63 65
3 57 59 61
3 53 55 57
3 10 18 53
3 23 2 10
3 31 27 23
3 39 35 31
3 47 43 39
3 51 47 39
3 39 31 23
3 23 10 53
3 53 57 61
3 61 65 69
3 69 73 76
3 69 76 77
3 53 61 69
3 39 23 53
3 78 51 39
3 79 78 39
3 53 69 77
3 53 77 80
3 79 39 53
3 53 80 81
3 53 81 79
3 82 0 22
3 82 22 83
3 84 67 66
3 84 66 85
3 23 26 86
3 23 86 87
3 83 22 24
3 24 23 87
3 88 83 24
3 24 87 88
3 89 49 52
3 89 52 90
3 85 66 65
3 85 65 91
3 7 6 92
3 7 92 93
3 94 50 49
3 94 49 89
3 95 64 63
3 95 63 96
3 48 47 97
3 48 97 98
3 99 93 92
3 92 100 101
3 101 102 103
3 103 104 82
3 82 83 88
3 88 87 86
3 86 105 106
3 106 107 108
3 108 109 110
3 110 111 112
3 112 113 114
3 114 115 116
3 116 117 118
3 118 119 120
3 120 121 122
3 122 123 124
3 124 125 98
3 98 97 94
3 94 89 90
3 94 90 126
3 124 98 94
3 120 122 124
3 116 118 120
3 112 114 116
3 108 110 112
3 86 106 108
3 82 88 86
3 101 103 82
3 99 92 101
3 127 128 99
3 129 130 127
3 131 132 129
3 133 134 131
3 135 136 133
3 137 138 135
3 139 137 135
3 135 133 131
3 131 129 127
3 127 99 101
3 101 82 86
3 86 108 112
3 112 116 120
3 120 124 94
3 120 94 126
3 86 112 120
3 127 101 86
3 135 131 127
3 140 139 135
3 141 142 140
3 143 144 141
3 145 146 143
3 147 148 145
3 96 149 147
3 91 95 96
3 84 85 91
3 150 151 84
3 152 153 150
3 154 155 152
3 156 157 154
3 158 156 154
3 154 152 150
3 150 84 91
3 91 96 147
3 147 145 143
3 143 141 140
3 140 135 127
3 127 86 120
3 120 126 159
3 120 159 160
3 140 127 120
3 147 143 140
3 150 91 147
3 158 154 150
3 161 158 150
3 150 147 140
3 140 120 160
3 140 160 162
3 161 150 140
3 140 162 163
3 163 161 140
3 133 16 15
3 133 15 134
3 138 19 18
3 138 18 135
3 9 8 99
3 9 99 128
3 10 9 128
3 10 128 127
3 11 10 127
3 11 127 130
3 12 11 130
3 12 130 129
3 131 14 13
3 13 12 129
3 132 131 13
3 129 132 13
3 96 63 62
3 96 62 149
3 34 33 36
3 36 35 115
3 36 115 114
3 31 34 36
3 110 109 29
3 111 110 29
3 29 31 36
3 36 114 113
3 112 111 29
3 36 113 112
3 36 112 29
3 42 41 121
3 42 121 120
3 155 72 71
3 155 71 152
3 146 58 57
3 146 57 143
3 77 76 75
3 77 75 74
3 163 80 77
3 161 163 77
3 161 77 74
3 158 161 74
3 73 72 155
3 158 74 73
3 156 158 73
3 73 155 154
3 157 156 73
3 73 154 157
3 39 42 120
3 39 120 119
3 40 39 119
3 40 119 118
3 37 40 118
3 37 118 117
3 115 35 38
3 38 37 117
3 116 115 38
3 38 117 116
3 153 70 69
3 153 69 150
3 91 65 64
3 91 64 95
3 51 78 79
3 79 81 162
3 79 162 160
3 126 51 79
3 79 160 159
3 79 159 126
3 122 44 43
3 122 43 123
3 108 30 29
3 108 29 109
3 47 50 94
3 47 94 97
3 121 41 44
3 121 44 122
3 148 60 59
3 148 59 145
3 86 26 25
3 86 25 105
3 107 27 30
3 107 30 108
3 54 53 21
3 20 19 138
3 54 21 20
3 144 56 55
3 55 54 20
3 20 138 137
3 20 137 139
3 144 55 20
3 141 144 20
3 20 139 140
3 142 141 20
3 20 140 142
3 1 0 82
3 1 82 104
3 3 2 103
3 3 103 102
3 124 46 45
3 124 45 125
3 99 8 7
3 99 7 93
3 103 2 1
3 103 1 104
3 106 28 27
3 106 27 107
3 4 3 102
3 4 102 101
3 92 6 5
3 5 4 101
3 100 92 5
3 101 100 5
3 80 163 162
3 80 162 81
3 145 59 58
3 145 58 146
3 151 68 67
3 151 67 84
3 143 57 56
3 143 56 144
3 152 71 70
3 152 70 153
3 149 62 61
3 149 61 147
3 135 18 17
3 135 17 136
3 69 68 151
3 69 151 150
3 136 17 16
3 136 16 133
3 51 126 90
3 51 90 52
3 125 45 48
3 125 48 98
3 105 25 28
3 105 28 106
3 60 148 147
3 60 147 61
3 134 15 14
3 134 14 131
3 123 43 46
3 123 46 124
