ply
format ascii 1.0
comment Created by Blender 3.6.8 - www.blender.org
element vertex 148
property float x
property float y
property float z
element face 292
property list uchar uint vertex_indices
end_header
0.000910 0.005377 0.150000
0.000910 0.005377 0.000000
0.000766 0.005202 0.000000
0.000766 0.005202 0.150000
0.001628 0.000058 0.000000
0.001727 0.000020 0.000000
0.001727 0.000020 0.150000
0.001628 0.000058 0.150000
0.001525 0.000109 0.000000
0.001525 0.000109 0.150000
0.001285 0.000225 0.150000
0.001285 0.000225 0.000000
0.001412 0.000167 0.000000
0.001412 0.000167 0.150000
0.000299 0.001210 0.000000
0.000360 0.001046 0.000000
0.000360 0.001046 0.150000
0.000299 0.001210 0.150000
0.000238 0.001393 0.000000
0.000238 0.001393 0.150000
0.000044 0.002055 0.150000
0.000044 0.002055 0.000000
0.000104 0.001820 0.000000
0.000104 0.001820 0.150000
0.001934 0.000007 0.000000
0.001827 0.000001 0.000000
0.002053 0.000043 0.000000
0.002347 0.000232 0.000000
0.002189 0.000116 0.000000
0.003982 0.001934 0.000000
0.002533 0.000396 0.000000
0.004503 0.002635 0.000000
0.004372 0.002443 0.000000
0.005240 0.003783 0.000000
0.005135 0.003614 0.000000
0.005424 0.004111 0.000000
0.005337 0.003948 0.000000
0.005675 0.004804 0.000000
0.005570 0.004444 0.000000
0.005887 0.006131 0.000000
0.005871 0.005997 0.000000
0.005895 0.006509 0.000000
0.005896 0.006260 0.000000
0.005859 0.006755 0.000000
0.005881 0.006632 0.000000
0.005730 0.007360 0.000000
0.005751 0.007274 0.000000
0.005644 0.007606 0.000000
0.005706 0.007444 0.000000
0.005449 0.007945 0.000000
0.000989 0.000332 0.000000
0.000860 0.000395 0.000000
0.005418 0.008026 0.000000
0.000748 0.000469 0.000000
0.000651 0.000556 0.000000
0.000567 0.000656 0.000000
0.000491 0.000770 0.000000
0.000011 0.002291 0.000000
0.000000 0.002527 0.000000
0.000036 0.003000 0.000000
0.000128 0.003470 0.000000
0.000189 0.003702 0.000000
0.000255 0.003933 0.000000
0.000324 0.004161 0.000000
0.000393 0.004387 0.000000
0.000459 0.004609 0.000000
0.000536 0.004821 0.000000
0.005363 0.008321 0.000000
0.005378 0.008280 0.000000
0.005400 0.008101 0.000000
0.000640 0.005018 0.000000
0.002135 0.006549 0.000000
0.002295 0.006742 0.000000
0.003016 0.007362 0.000000
0.005294 0.008371 0.000000
0.005337 0.008352 0.000000
0.005135 0.008372 0.000000
0.005228 0.008378 0.000000
0.004259 0.008209 0.000000
0.004377 0.008246 0.000000
0.003429 0.007778 0.000000
0.003551 0.007856 0.000000
0.003315 0.007677 0.000000
0.003371 0.007731 0.000000
0.003194 0.007539 0.000000
0.003112 0.007454 0.000000
0.000860 0.000395 0.150000
0.000989 0.000332 0.150000
0.004377 0.008246 0.150000
0.004259 0.008209 0.150000
0.001827 0.000001 0.150000
0.005418 0.008026 0.150000
0.005400 0.008101 0.150000
0.005378 0.008280 0.150000
0.005363 0.008321 0.150000
0.005337 0.008352 0.150000
0.005294 0.008371 0.150000
0.005228 0.008378 0.150000
0.005135 0.008372 0.150000
0.003551 0.007856 0.150000
0.003429 0.007778 0.150000
0.003371 0.007731 0.150000
0.003315 0.007677 0.150000
0.003194 0.007539 0.150000
0.003112 0.007454 0.150000
0.005706 0.007444 0.150000
0.005644 0.007606 0.150000
0.005449 0.007945 0.150000
0.003016 0.007362 0.150000
0.002295 0.006742 0.150000
0.002135 0.006549 0.150000
0.000640 0.005018 0.150000
0.000536 0.004821 0.150000
0.000459 0.004609 0.150000
0.000393 0.004387 0.150000
0.000324 0.004161 0.150000
0.000255 0.003933 0.150000
0.000189 0.003702 0.150000
0.000128 0.003470 0.150000
0.000036 0.003000 0.150000
0.000000 0.002527 0.150000
0.000011 0.002291 0.150000
0.000491 0.000770 0.150000
0.000567 0.000656 0.150000
0.000651 0.000556 0.150000
0.000748 0.000469 0.150000
0.005730 0.007360 0.150000
0.005859 0.006755 0.150000
0.005751 0.007274 0.150000
0.005895 0.006509 0.150000
0.005881 0.006632 0.150000
0.005887 0.006131 0.150000
0.005896 0.006260 0.150000
0.005675 0.004804 0.150000
0.005871 0.005997 0.150000
0.005424 0.004111 0.150000
0.005570 0.004444 0.150000
0.005240 0.003783 0.150000
0.005337 0.003948 0.150000
0.004503 0.002635 0.150000
0.005135 0.003614 0.150000
0.003982 0.001934 0.150000
0.004372 0.002443 0.150000
0.002347 0.000232 0.150000
0.002533 0.000396 0.150000
0.002053 0.000043 0.150000
0.002189 0.000116 0.150000
0.001934 0.000007 0.150000
3 0 1 2
3 0 2 3
3 4 5 6
3 4 6 7
3 8 4 7
3 8 7 9
3 10 11 12
3 12 8 9
3 13 10 12
3 12 9 13
3 14 15 16
3 14 16 17
3 18 14 17
3 18 17 19
3 20 21 22
3 22 18 19
3 23 20 22
3 22 19 23
3 24 25 5
3 5 4 8
3 5 8 12
3 26 24 5
3 27 28 26
3 29 30 27
3 31 32 29
3 33 34 31
3 35 36 33
3 37 38 35
3 39 40 37
3 41 42 39
3 43 44 41
3 45 46 43
3 47 48 45
3 49 47 45
3 45 43 41
3 41 39 37
3 37 35 33
3 33 31 29
3 29 27 26
3 26 5 12
3 11 50 51
3 26 12 11
3 33 29 26
3 41 37 33
3 49 45 41
3 52 49 41
3 41 33 26
3 26 11 51
3 51 53 54
3 54 55 56
3 56 15 14
3 14 18 22
3 22 21 57
3 57 58 59
3 59 60 61
3 61 62 63
3 64 65 66
3 61 63 64
3 57 59 61
3 14 22 57
3 54 56 14
3 26 51 54
3 52 41 26
3 67 68 69
3 69 52 26
3 26 54 14
3 14 57 61
3 61 64 66
3 66 70 2
3 2 1 71
3 71 72 73
3 2 71 73
3 61 66 2
3 26 14 61
3 67 69 26
3 74 75 67
3 76 77 74
3 78 79 76
3 80 81 78
3 82 83 80
3 84 82 80
3 80 78 76
3 76 74 67
3 67 26 61
3 61 2 73
3 85 84 80
3 61 73 85
3 76 67 61
3 85 80 76
3 61 85 76
3 86 51 50
3 86 50 87
3 88 79 78
3 88 78 89
3 6 5 25
3 6 25 90
3 91 52 69
3 91 69 92
3 92 93 94
3 94 95 96
3 96 97 98
3 98 88 89
3 89 99 100
3 100 101 102
3 100 102 103
3 98 89 100
3 94 96 98
3 92 94 98
3 98 100 103
3 98 103 104
3 91 92 98
3 105 106 107
3 107 91 98
3 98 104 108
3 108 109 110
3 110 0 3
3 3 111 112
3 112 113 114
3 114 115 116
3 116 117 118
3 118 119 120
3 120 121 20
3 20 23 19
3 19 17 16
3 16 122 123
3 123 124 125
3 125 86 87
3 125 87 10
3 16 123 125
3 20 19 16
3 118 120 20
3 114 116 118
3 3 112 114
3 108 110 3
3 107 98 108
3 126 105 107
3 127 128 126
3 129 130 127
3 131 132 129
3 133 134 131
3 135 136 133
3 137 138 135
3 139 140 137
3 141 142 139
3 143 144 141
3 145 146 143
3 90 147 145
3 7 6 90
3 13 9 7
3 16 125 10
3 13 7 90
3 16 10 13
3 118 20 16
3 3 114 118
3 107 108 3
3 127 126 107
3 131 129 127
3 135 133 131
3 139 137 135
3 143 141 139
3 90 145 143
3 16 13 90
3 3 118 16
3 127 107 3
3 135 131 127
3 143 139 135
3 16 90 143
3 127 3 16
3 143 135 127
3 16 143 127
3 124 54 53
3 124 53 125
3 58 120 119
3 58 119 59
3 99 81 80
3 99 80 100
3 94 67 75
3 94 75 95
3 3 2 70
3 3 70 111
3 78 81 99
3 78 99 89
3 146 28 27
3 146 27 143
3 93 68 67
3 93 67 94
3 90 25 24
3 90 24 147
3 109 72 71
3 109 71 110
3 135 35 38
3 135 38 136
3 143 27 30
3 143 30 144
3 61 60 118
3 61 118 117
3 62 61 117
3 62 117 116
3 63 62 116
3 63 116 115
3 64 63 115
3 64 115 114
3 112 66 65
3 65 64 114
3 113 112 65
3 114 113 65
3 111 70 66
3 111 66 112
3 95 75 74
3 95 74 96
3 92 69 68
3 92 68 93
3 73 72 109
3 73 109 108
3 132 42 41
3 132 41 129
3 121 57 21
3 121 21 20
3 147 24 26
3 147 26 145
3 82 84 85
3 85 73 108
3 85 108 104
3 101 83 82
3 82 85 104
3 82 104 103
3 102 101 82
3 103 102 82
3 47 106 105
3 47 105 48
3 100 80 83
3 100 83 101
3 30 29 141
3 30 141 144
3 39 42 132
3 39 132 131
3 133 37 40
3 40 39 131
3 134 133 40
3 131 134 40
3 47 49 107
3 47 107 106
3 97 77 76
3 97 76 98
3 107 49 52
3 107 52 91
3 120 58 57
3 120 57 121
3 38 37 133
3 38 133 136
3 87 50 11
3 87 11 10
3 123 55 54
3 123 54 124
3 36 35 135
3 36 135 138
3 33 36 138
3 33 138 137
3 34 33 137
3 34 137 140
3 142 32 31
3 31 34 140
3 139 142 31
3 140 139 31
3 16 15 56
3 16 56 122
3 71 1 0
3 71 0 110
3 125 53 51
3 125 51 86
3 96 74 77
3 96 77 97
3 122 56 55
3 122 55 123
3 45 48 105
3 45 105 126
3 46 45 126
3 46 126 128
3 130 44 43
3 43 46 128
3 127 130 43
3 128 127 43
3 145 26 28
3 145 28 146
3 98 76 79
3 98 79 88
3 141 29 32
3 141 32 142
3 118 60 59
3 118 59 119
3 129 41 44
3 129 44 130
