ply
format ascii 1.0
comment Created by Blender 3.6.8 - www.blender.org
element vertex 192
property float x
property float y
property float z
element face 377
property list uchar uint vertex_indices
end_header
0.004032 0.000002 0.150000
0.004032 0.000002 0.000000
0.004619 0.000061 0.000000
0.004619 0.000061 0.150000
0.007574 0.000963 0.150000
0.007574 0.000963 0.000000
0.007653 0.001021 0.000000
0.007653 0.001021 0.150000
0.008821 0.003146 0.000000
0.008842 0.003319 0.000000
0.008842 0.003319 0.150000
0.008821 0.003146 0.150000
0.001084 0.001025 0.000000
0.001138 0.000921 0.000000
0.001138 0.000921 0.150000
0.001084 0.001025 0.150000
0.001030 0.001142 0.000000
0.001030 0.001142 0.150000
0.000974 0.001273 0.000000
0.000974 0.001273 0.150000
0.000701 0.001978 0.150000
0.000701 0.001978 0.000000
0.000777 0.001770 0.000000
0.000777 0.001770 0.150000
0.004982 0.005025 0.000000
0.005924 0.005042 0.000000
0.006759 0.005052 0.000000
0.007433 0.005052 0.000000
0.007891 0.005040 0.000000
0.008079 0.005014 0.000000
0.008147 0.004938 0.000000
0.008181 0.004895 0.000000
0.008214 0.004850 0.000000
0.008247 0.004802 0.000000
0.008279 0.004754 0.000000
0.008311 0.004705 0.000000
0.008342 0.004656 0.000000
0.008372 0.004608 0.000000
0.003988 0.005003 0.000000
0.002064 0.004952 0.000000
0.002997 0.004978 0.000000
0.000589 0.004908 0.000000
0.001243 0.004928 0.000000
0.000091 0.004412 0.000000
0.000000 0.004889 0.000000
0.000204 0.003869 0.000000
0.000145 0.004146 0.000000
0.000333 0.003297 0.000000
0.000266 0.003584 0.000000
0.000475 0.002732 0.000000
0.000402 0.003011 0.000000
0.000624 0.002211 0.000000
0.000549 0.002464 0.000000
0.001316 0.000675 0.000000
0.001252 0.000748 0.000000
0.001466 0.000548 0.000000
0.001386 0.000609 0.000000
0.001663 0.000438 0.000000
0.001556 0.000492 0.000000
0.002622 0.000155 0.000000
0.001936 0.000334 0.000000
0.003155 0.000060 0.000000
0.002982 0.000087 0.000000
0.003470 0.000021 0.000000
0.003319 0.000038 0.000000
0.003612 0.000010 0.000000
0.004780 0.000088 0.000000
0.005125 0.000161 0.000000
0.004948 0.000122 0.000000
0.005497 0.000252 0.000000
0.005313 0.000207 0.000000
0.008402 0.004561 0.000000
0.005665 0.000292 0.000000
0.006089 0.000391 0.000000
0.005959 0.000360 0.000000
0.005818 0.000327 0.000000
0.008431 0.004517 0.000000
0.008458 0.004475 0.000000
0.008485 0.004432 0.000000
0.006327 0.000452 0.000000
0.006211 0.000421 0.000000
0.006656 0.000559 0.000000
0.006438 0.000484 0.000000
0.007423 0.000877 0.000000
0.007347 0.000843 0.000000
0.006992 0.000705 0.000000
0.008536 0.004329 0.000000
0.008561 0.004270 0.000000
0.008586 0.004206 0.000000
0.008753 0.003742 0.000000
0.008786 0.003655 0.000000
0.008815 0.003568 0.000000
0.007828 0.001181 0.000000
0.008269 0.001666 0.000000
0.008196 0.001585 0.000000
0.008446 0.001902 0.000000
0.008334 0.001744 0.000000
0.008577 0.002190 0.000000
0.008494 0.001988 0.000000
0.008650 0.002453 0.000000
0.008615 0.002312 0.000000
0.008684 0.002596 0.000000
0.008833 0.003484 0.000000
0.008842 0.003402 0.000000
0.008801 0.003053 0.000000
0.008776 0.002953 0.000000
0.008748 0.002845 0.000000
0.008717 0.002726 0.000000
0.008079 0.005014 0.150000
0.007891 0.005040 0.150000
0.007433 0.005052 0.150000
0.006759 0.005052 0.150000
0.005924 0.005042 0.150000
0.004982 0.005025 0.150000
0.003988 0.005003 0.150000
0.002997 0.004978 0.150000
0.002064 0.004952 0.150000
0.001243 0.004928 0.150000
0.000589 0.004908 0.150000
0.000000 0.004889 0.150000
0.000091 0.004412 0.150000
0.000145 0.004146 0.150000
0.000204 0.003869 0.150000
0.000266 0.003584 0.150000
0.000333 0.003297 0.150000
0.000402 0.003011 0.150000
0.000475 0.002732 0.150000
0.000549 0.002464 0.150000
0.000624 0.002211 0.150000
0.001252 0.000748 0.150000
0.001316 0.000675 0.150000
0.001386 0.000609 0.150000
0.001466 0.000548 0.150000
0.001556 0.000492 0.150000
0.001663 0.000438 0.150000
0.001936 0.000334 0.150000
0.002622 0.000155 0.150000
0.002982 0.000087 0.150000
0.003155 0.000060 0.150000
0.003319 0.000038 0.150000
0.003470 0.000021 0.150000
0.003612 0.000010 0.150000
0.004780 0.000088 0.150000
0.004948 0.000122 0.150000
0.005125 0.000161 0.150000
0.005313 0.000207 0.150000
0.005497 0.000252 0.150000
0.008147 0.004938 0.150000
0.008214 0.004850 0.150000
0.008181 0.004895 0.150000
0.008279 0.004754 0.150000
0.008247 0.004802 0.150000
0.008342 0.004656 0.150000
0.008311 0.004705 0.150000
0.008372 0.004608 0.150000
0.005665 0.000292 0.150000
0.008402 0.004561 0.150000
0.008485 0.004432 0.150000
0.008458 0.004475 0.150000
0.008431 0.004517 0.150000
0.008561 0.004270 0.150000
0.008536 0.004329 0.150000
0.008753 0.003742 0.150000
0.008586 0.004206 0.150000
0.008815 0.003568 0.150000
0.008786 0.003655 0.150000
0.008842 0.003402 0.150000
0.008833 0.003484 0.150000
0.008776 0.002953 0.150000
0.008801 0.003053 0.150000
0.008717 0.002726 0.150000
0.008748 0.002845 0.150000
0.008615 0.002312 0.150000
0.008650 0.002453 0.150000
0.008684 0.002596 0.150000
0.008577 0.002190 0.150000
0.005818 0.000327 0.150000
0.005959 0.000360 0.150000
0.006089 0.000391 0.150000
0.008446 0.001902 0.150000
0.008494 0.001988 0.150000
0.008269 0.001666 0.150000
0.008334 0.001744 0.150000
0.007828 0.001181 0.150000
0.008196 0.001585 0.150000
0.007347 0.000843 0.150000
0.007423 0.000877 0.150000
0.006438 0.000484 0.150000
0.006656 0.000559 0.150000
0.006992 0.000705 0.150000
0.006211 0.000421 0.150000
0.006327 0.000452 0.150000
3 0 1 2
3 0 2 3
3 4 5 6
3 4 6 7
3 8 9 10
3 8 10 11
3 12 13 14
3 12 14 15
3 16 12 15
3 16 15 17
3 18 16 17
3 18 17 19
3 20 21 22
3 22 18 19
3 23 20 22
3 19 23 22
3 24 25 26
3 26 27 28
3 28 29 30
3 30 31 32
3 32 33 34
3 34 35 36
3 34 36 37
3 30 32 34
3 26 28 30
3 38 24 26
3 39 40 38
3 41 42 39
3 43 44 41
3 45 46 43
3 47 48 45
3 49 50 47
3 51 52 49
3 22 21 51
3 16 18 22
3 13 12 16
3 53 54 13
3 55 56 53
3 57 58 55
3 59 60 57
3 61 62 59
3 63 64 61
3 1 65 63
3 66 2 1
3 67 68 66
3 69 70 67
3 69 67 66
3 66 1 63
3 63 61 59
3 59 57 55
3 55 53 13
3 13 16 22
3 22 51 49
3 49 47 45
3 45 43 41
3 41 39 38
3 38 26 30
3 30 34 37
3 30 37 71
3 41 38 30
3 49 45 41
3 13 22 49
3 59 55 13
3 66 63 59
3 72 69 66
3 73 74 75
3 75 72 66
3 66 59 13
3 13 49 41
3 41 30 71
3 76 77 78
3 41 71 76
3 66 13 41
3 73 75 66
3 79 80 73
3 81 82 79
3 83 84 85
3 85 81 79
3 79 73 66
3 66 41 76
3 76 78 86
3 86 87 88
3 89 90 91
3 86 88 89
3 66 76 86
3 85 79 66
3 5 83 85
3 92 6 5
3 93 94 92
3 95 96 93
3 97 98 95
3 99 100 97
3 101 99 97
3 97 95 93
3 93 92 5
3 5 85 66
3 66 86 89
3 89 91 102
3 102 103 9
3 9 8 104
3 104 105 106
3 107 101 97
3 104 106 107
3 102 9 104
3 66 89 102
3 93 5 66
3 107 97 93
3 102 104 107
3 93 66 102
3 102 107 93
3 108 109 110
3 110 111 112
3 112 113 114
3 114 115 116
3 116 117 118
3 118 119 120
3 120 121 122
3 122 123 124
3 124 125 126
3 126 127 128
3 128 20 23
3 23 19 17
3 17 15 14
3 14 129 130
3 130 131 132
3 132 133 134
3 134 135 136
3 136 137 138
3 138 139 140
3 140 141 0
3 0 3 142
3 142 143 144
3 144 145 146
3 142 144 146
3 140 0 142
3 136 138 140
3 132 134 136
3 14 130 132
3 23 17 14
3 126 128 23
3 122 124 126
3 118 120 122
3 114 116 118
3 110 112 114
3 147 108 110
3 148 149 147
3 150 151 148
3 152 153 150
3 154 152 150
3 150 148 147
3 147 110 114
3 114 118 122
3 122 126 23
3 23 14 132
3 132 136 140
3 140 142 146
3 140 146 155
3 23 132 140
3 114 122 23
3 150 147 114
3 156 154 150
3 157 158 159
3 156 150 114
3 157 159 156
3 160 161 157
3 162 163 160
3 164 165 162
3 166 167 164
3 11 10 166
3 168 169 11
3 170 171 168
3 172 173 174
3 170 168 11
3 175 172 174
3 174 170 11
3 11 166 164
3 164 162 160
3 160 157 156
3 156 114 23
3 23 140 155
3 176 177 178
3 23 155 176
3 160 156 23
3 11 164 160
3 175 174 11
3 179 180 175
3 181 182 179
3 183 184 181
3 4 7 183
3 185 186 4
3 187 188 189
3 189 185 4
3 4 183 181
3 181 179 175
3 175 11 160
3 160 23 176
3 176 178 190
3 190 191 187
3 187 189 4
3 4 181 175
3 175 160 176
3 176 190 187
3 187 4 175
3 176 187 175
3 7 6 92
3 7 92 183
3 130 53 56
3 130 56 131
3 132 55 58
3 132 58 133
3 33 32 31
3 31 30 147
3 31 147 149
3 34 33 31
3 34 31 149
3 34 149 148
3 71 37 34
3 71 34 148
3 78 76 71
3 158 157 78
3 159 158 78
3 78 71 148
3 78 148 151
3 156 159 78
3 154 156 78
3 78 151 150
3 78 150 153
3 152 154 78
3 153 152 78
3 147 30 29
3 147 29 108
3 167 102 91
3 167 91 164
3 96 95 179
3 96 179 182
3 107 106 105
3 105 104 8
3 8 11 169
3 8 169 168
3 107 105 8
3 100 99 101
3 101 107 8
3 8 168 171
3 8 171 170
3 97 100 101
3 101 8 170
3 101 170 174
3 175 97 101
3 172 175 101
3 101 174 173
3 173 172 101
3 79 82 187
3 79 187 191
3 80 79 191
3 80 191 190
3 73 80 190
3 73 190 178
3 72 75 74
3 74 73 178
3 74 178 177
3 69 72 74
3 70 69 74
3 74 177 176
3 74 176 155
3 67 70 74
3 67 74 155
3 67 155 146
3 68 67 146
3 68 146 145
3 3 2 66
3 66 68 145
3 66 145 144
3 142 3 66
3 66 144 143
3 143 142 66
3 183 92 94
3 93 96 182
3 183 94 93
3 184 183 93
3 93 182 181
3 93 181 184
3 166 103 102
3 166 102 167
3 180 98 97
3 180 97 175
3 50 49 52
3 52 51 21
3 21 20 128
3 21 128 127
3 50 52 21
3 48 47 50
3 46 45 48
3 44 43 46
3 120 119 44
3 121 120 44
3 44 46 48
3 48 50 21
3 21 127 126
3 21 126 125
3 44 48 21
3 122 121 44
3 123 122 44
3 44 21 125
3 124 123 44
3 125 124 44
3 10 9 103
3 10 103 166
3 108 29 28
3 108 28 109
3 90 89 88
3 87 86 161
3 88 87 161
3 88 161 160
3 164 91 90
3 90 88 160
3 90 160 163
3 165 164 90
3 90 163 162
3 162 165 90
3 133 58 57
3 133 57 134
3 65 1 0
3 65 0 141
3 86 78 157
3 86 157 161
3 186 83 5
3 186 5 4
3 135 60 59
3 135 59 136
3 41 44 119
3 41 119 118
3 42 41 118
3 42 118 117
3 39 42 117
3 39 117 116
3 40 39 116
3 40 116 115
3 38 40 115
3 38 115 114
3 24 38 114
3 24 114 113
3 25 24 113
3 25 113 112
3 26 25 112
3 26 112 111
3 109 28 27
3 27 26 111
3 110 109 27
3 111 110 27
3 84 83 186
3 84 186 185
3 85 84 185
3 85 185 189
3 187 82 81
3 81 85 189
3 188 187 81
3 189 188 81
3 131 56 55
3 131 55 132
3 129 54 53
3 129 53 130
3 134 57 60
3 134 60 135
3 14 13 54
3 14 54 129
3 63 65 141
3 63 141 140
3 64 63 140
3 64 140 139
3 61 64 139
3 61 139 138
3 136 59 62
3 62 61 138
3 137 136 62
3 138 137 62
3 179 95 98
3 179 98 180
