ply
format ascii 1.0
comment Created by Blender 3.6.8 - www.blender.org
element vertex 160
property float x
property float y
property float z
element face 314
property list uchar uint vertex_indices
end_header
0.006592 0.005397 0.000000
0.006721 0.005317 0.000000
0.006854 0.005233 0.000000
0.006993 0.005144 0.000000
0.007125 0.005053 0.000000
0.007336 0.004876 0.000000
0.007419 0.004788 0.000000
0.007553 0.004606 0.000000
0.007659 0.004410 0.000000
0.007707 0.004304 0.000000
0.007755 0.004192 0.000000
0.007806 0.004072 0.000000
0.007861 0.003944 0.000000
0.007908 0.003813 0.000000
0.005722 0.005846 0.000000
0.006467 0.005472 0.000000
0.005451 0.005949 0.000000
0.005589 0.005898 0.000000
0.005315 0.005998 0.000000
0.007936 0.003687 0.000000
0.007945 0.003565 0.000000
0.007939 0.003445 0.000000
0.007918 0.003326 0.000000
0.007844 0.003089 0.000000
0.007794 0.002968 0.000000
0.007739 0.002844 0.000000
0.007681 0.002717 0.000000
0.004847 0.006169 0.000000
0.004956 0.006130 0.000000
0.005188 0.006044 0.000000
0.007621 0.002585 0.000000
0.007561 0.002447 0.000000
0.007499 0.002311 0.000000
0.007350 0.002070 0.000000
0.007170 0.001858 0.000000
0.007068 0.001759 0.000000
0.006960 0.001661 0.000000
0.006845 0.001563 0.000000
0.006318 0.001140 0.000000
0.006174 0.001030 0.000000
0.005889 0.000852 0.000000
0.005606 0.000716 0.000000
0.005467 0.000660 0.000000
0.005328 0.000608 0.000000
0.004917 0.000465 0.000000
0.004782 0.000414 0.000000
0.004649 0.000359 0.000000
0.004492 0.000304 0.000000
0.004051 0.000210 0.000000
0.004739 0.006206 0.000000
0.004523 0.006275 0.000000
0.004632 0.006241 0.000000
0.002743 0.006672 0.000000
0.002860 0.006651 0.000000
0.001988 0.006773 0.000000
0.002115 0.006759 0.000000
0.001740 0.006794 0.000000
0.001863 0.006785 0.000000
0.001391 0.006791 0.000000
0.001620 0.006798 0.000000
0.000982 0.006690 0.000000
0.001180 0.006756 0.000000
0.000622 0.006489 0.000000
0.000793 0.006598 0.000000
0.000375 0.006260 0.000000
0.000480 0.006374 0.000000
0.000000 0.005331 0.000000
0.000339 0.006208 0.000000
0.000017 0.000686 0.000000
0.000000 0.000743 0.000000
0.000081 0.000542 0.000000
0.000042 0.000622 0.000000
0.000216 0.000358 0.000000
0.000139 0.000452 0.000000
0.000444 0.000176 0.000000
0.000317 0.000264 0.000000
0.000786 0.000043 0.000000
0.000599 0.000101 0.000000
0.001264 0.000001 0.000000
0.001006 0.000008 0.000000
0.000017 0.000686 0.150000
0.000000 0.000743 0.150000
0.000317 0.000264 0.150000
0.000444 0.000176 0.150000
0.000216 0.000358 0.150000
0.007125 0.005053 0.150000
0.007336 0.004876 0.150000
0.000786 0.000043 0.150000
0.001006 0.000008 0.150000
0.005722 0.005846 0.150000
0.006467 0.005472 0.150000
0.000375 0.006260 0.150000
0.000339 0.006208 0.150000
0.006592 0.005397 0.150000
0.006721 0.005317 0.150000
0.006993 0.005144 0.150000
0.006854 0.005233 0.150000
0.007419 0.004788 0.150000
0.000982 0.006690 0.150000
0.000793 0.006598 0.150000
0.004523 0.006275 0.150000
0.004632 0.006241 0.150000
0.004739 0.006206 0.150000
0.004847 0.006169 0.150000
0.005589 0.005898 0.150000
0.004956 0.006130 0.150000
0.005451 0.005949 0.150000
0.005315 0.005998 0.150000
0.005188 0.006044 0.150000
0.007553 0.004606 0.150000
0.000042 0.000622 0.150000
0.000081 0.000542 0.150000
0.000000 0.005331 0.150000
0.001391 0.006791 0.150000
0.001180 0.006756 0.150000
0.000622 0.006489 0.150000
0.000480 0.006374 0.150000
0.001264 0.000001 0.150000
0.007936 0.003687 0.150000
0.007908 0.003813 0.150000
0.007659 0.004410 0.150000
0.007707 0.004304 0.150000
0.007755 0.004192 0.150000
0.007806 0.004072 0.150000
0.007861 0.003944 0.150000
0.000599 0.000101 0.150000
0.007939 0.003445 0.150000
0.007945 0.003565 0.150000
0.000139 0.000452 0.150000
0.007499 0.002311 0.150000
0.007350 0.002070 0.150000
0.005606 0.000716 0.150000
0.005889 0.000852 0.150000
0.007170 0.001858 0.150000
0.007068 0.001759 0.150000
0.006960 0.001661 0.150000
0.006845 0.001563 0.150000
0.006174 0.001030 0.150000
0.006318 0.001140 0.150000
0.001620 0.006798 0.150000
0.001740 0.006794 0.150000
0.001863 0.006785 0.150000
0.001988 0.006773 0.150000
0.002115 0.006759 0.150000
0.002860 0.006651 0.150000
0.002743 0.006672 0.150000
0.004051 0.000210 0.150000
0.004492 0.000304 0.150000
0.004649 0.000359 0.150000
0.004782 0.000414 0.150000
0.004917 0.000465 0.150000
0.005328 0.000608 0.150000
0.005467 0.000660 0.150000
0.007561 0.002447 0.150000
0.007621 0.002585 0.150000
0.007681 0.002717 0.150000
0.007739 0.002844 0.150000
0.007794 0.002968 0.150000
0.007844 0.003089 0.150000
0.007918 0.003326 0.150000
3 0 1 2
3 2 3 4
3 4 5 6
3 6 7 8
3 8 9 10
3 11 12 13
3 8 10 11
3 4 6 8
3 0 2 4
3 14 15 0
3 16 17 14
3 18 16 14
3 14 0 4
3 4 8 11
3 11 13 19
3 19 20 21
3 21 22 23
3 23 24 25
3 23 25 26
3 19 21 23
3 4 11 19
3 18 14 4
3 27 28 29
3 29 18 4
3 4 19 23
3 23 26 30
3 30 31 32
3 32 33 34
3 34 35 36
3 36 37 38
3 38 39 40
3 40 41 42
3 42 43 44
3 45 46 47
3 40 42 44
3 45 47 48
3 40 44 45
3 36 38 40
3 32 34 36
3 23 30 32
3 29 4 23
3 49 27 29
3 50 51 49
3 52 53 50
3 54 55 52
3 56 57 54
3 58 59 56
3 60 61 58
3 62 63 60
3 64 65 62
3 66 67 64
3 68 69 66
3 70 71 68
3 72 73 70
3 74 75 72
3 76 77 74
3 78 79 76
3 45 48 78
3 36 40 45
3 23 32 36
3 49 29 23
3 52 50 49
3 56 54 52
3 60 58 56
3 64 62 60
3 68 66 64
3 72 70 68
3 76 74 72
3 45 78 76
3 23 36 45
3 52 49 23
3 60 56 52
3 68 64 60
3 76 72 68
3 23 45 76
3 60 52 23
3 76 68 60
3 23 76 60
3 69 68 80
3 69 80 81
3 82 75 74
3 82 74 83
3 84 72 75
3 84 75 82
3 5 4 85
3 5 85 86
3 87 76 79
3 87 79 88
3 15 14 89
3 15 89 90
3 91 64 67
3 91 67 92
3 1 0 15
3 15 90 93
3 15 93 94
3 2 1 15
3 95 85 4
3 15 94 96
3 96 95 4
3 4 2 15
3 15 96 4
3 97 6 5
3 97 5 86
3 98 60 63
3 98 63 99
3 27 49 51
3 51 50 100
3 51 100 101
3 29 27 51
3 17 16 18
3 18 29 51
3 51 101 102
3 51 102 103
3 17 18 51
3 89 14 17
3 104 89 17
3 17 51 103
3 17 103 105
3 106 104 17
3 107 106 17
3 17 105 108
3 108 107 17
3 109 7 6
3 109 6 97
3 110 71 70
3 110 70 111
3 112 66 69
3 112 69 81
3 67 66 112
3 67 112 92
3 113 58 61
3 113 61 114
3 63 62 115
3 63 115 99
3 62 65 116
3 62 116 115
3 88 79 78
3 88 78 117
3 116 65 64
3 116 64 91
3 118 19 13
3 118 13 119
3 9 8 120
3 9 120 121
3 10 9 121
3 10 121 122
3 11 10 122
3 11 122 123
3 119 13 12
3 12 11 123
3 124 119 12
3 123 124 12
3 125 77 76
3 125 76 87
3 126 21 20
3 126 20 127
3 128 73 72
3 128 72 84
3 32 129 130
3 32 130 33
3 131 41 40
3 131 40 132
3 35 34 133
3 35 133 134
3 36 35 134
3 36 134 135
3 37 36 135
3 37 135 136
3 137 39 38
3 38 37 136
3 138 137 38
3 136 138 38
3 33 130 133
3 33 133 34
3 83 74 77
3 83 77 125
3 56 59 139
3 56 139 140
3 57 56 140
3 57 140 141
3 54 57 141
3 54 141 142
3 55 54 142
3 55 142 143
3 144 53 52
3 52 55 143
3 145 144 52
3 143 145 52
3 61 60 98
3 61 98 114
3 80 68 71
3 80 71 110
3 117 146 147
3 147 148 149
3 150 151 152
3 117 147 149
3 150 152 131
3 117 149 150
3 87 88 117
3 83 125 87
3 84 82 83
3 111 128 84
3 80 110 111
3 112 81 80
3 91 92 112
3 115 116 91
3 98 99 115
3 113 114 98
3 140 139 113
3 142 141 140
3 145 143 142
3 100 144 145
3 102 101 100
3 105 103 102
3 108 105 102
3 102 100 145
3 145 142 140
3 140 113 98
3 98 115 91
3 91 112 80
3 80 111 84
3 84 83 87
3 87 117 150
3 150 131 132
3 132 137 138
3 138 136 135
3 135 134 133
3 133 130 129
3 129 153 154
3 155 156 157
3 133 129 154
3 154 155 157
3 157 158 159
3 159 126 127
3 127 118 119
3 119 124 123
3 123 122 121
3 121 120 109
3 109 97 86
3 86 85 95
3 95 96 94
3 94 93 90
3 90 89 104
3 104 106 107
3 107 108 102
3 102 145 140
3 140 98 91
3 91 80 84
3 84 87 150
3 150 132 138
3 138 135 133
3 133 154 157
3 157 159 127
3 127 119 123
3 123 121 109
3 109 86 95
3 95 94 90
3 90 104 107
3 107 102 140
3 140 91 84
3 84 150 138
3 138 133 157
3 157 127 123
3 123 109 95
3 95 90 107
3 107 140 84
3 84 138 157
3 157 123 95
3 95 107 84
3 157 95 84
3 78 48 146
3 78 146 117
3 146 48 47
3 146 47 147
3 50 53 144
3 50 144 100
3 23 22 159
3 23 159 158
3 40 39 137
3 40 137 132
3 111 70 73
3 111 73 128
3 120 8 7
3 120 7 109
3 159 22 21
3 159 21 126
3 45 44 43
3 42 41 131
3 46 45 43
3 43 42 131
3 43 131 152
3 147 47 46
3 46 43 152
3 46 152 151
3 148 147 46
3 149 148 46
3 46 151 150
3 150 149 46
3 139 59 58
3 139 58 113
3 31 30 26
3 31 26 25
3 129 32 31
3 153 129 31
3 153 31 25
3 154 153 25
3 24 23 158
3 154 25 24
3 155 154 24
3 24 158 157
3 156 155 24
3 24 157 156
3 127 20 19
3 127 19 118
