ply
format ascii 1.0
comment Created by Blender 3.6.8 - www.blender.org
element vertex 254
property float x
property float y
property float z
element face 497
property list uchar uint vertex_indices
end_header
0.006552 0.002968 0.000000
0.006587 0.003146 0.000000
0.006587 0.003146 0.150000
0.006552 0.002968 0.150000
0.006514 0.002792 0.000000
0.006514 0.002792 0.150000
0.006472 0.002618 0.000000
0.006472 0.002618 0.150000
0.006428 0.002444 0.000000
0.006428 0.002444 0.150000
0.006380 0.002269 0.000000
0.006380 0.002269 0.150000
0.006329 0.002092 0.000000
0.006329 0.002092 0.150000
0.006159 0.001550 0.150000
0.006159 0.001550 0.000000
0.006219 0.001724 0.000000
0.006219 0.001724 0.150000
0.001216 0.001281 0.000000
0.001345 0.001145 0.000000
0.001345 0.001145 0.150000
0.001216 0.001281 0.150000
0.000868 0.001716 0.150000
0.000868 0.001716 0.000000
0.001094 0.001422 0.000000
0.001094 0.001422 0.150000
0.006296 0.007827 0.150000
0.006296 0.007827 0.000000
0.006184 0.007995 0.000000
0.006184 0.007995 0.150000
0.006389 0.007642 0.150000
0.006389 0.007642 0.000000
0.004988 0.000132 0.150000
0.004988 0.000132 0.000000
0.005085 0.000207 0.000000
0.005085 0.000207 0.150000
0.004583 0.000003 0.150000
0.004583 0.000003 0.000000
0.004691 0.000015 0.000000
0.004691 0.000015 0.150000
0.000742 0.006833 0.000000
0.000680 0.006787 0.000000
0.000621 0.006740 0.000000
0.000621 0.006740 0.150000
0.000680 0.006787 0.150000
0.000742 0.006833 0.150000
0.000810 0.006885 0.000000
0.000883 0.006948 0.150000
0.000883 0.006948 0.000000
0.000810 0.006885 0.150000
0.000005 0.004492 0.000000
0.000009 0.004092 0.000000
0.000009 0.004092 0.150000
0.000005 0.004492 0.150000
0.000052 0.003753 0.000000
0.000052 0.003753 0.150000
0.005135 0.008653 0.150000
0.005043 0.008694 0.150000
0.004889 0.008746 0.150000
0.004818 0.008761 0.150000
0.004666 0.008769 0.150000
0.003727 0.008649 0.150000
0.003604 0.008621 0.150000
0.003486 0.008591 0.150000
0.003373 0.008557 0.150000
0.003267 0.008521 0.150000
0.003169 0.008482 0.150000
0.003082 0.008440 0.150000
0.002807 0.008294 0.150000
0.002706 0.008239 0.150000
0.002602 0.008182 0.150000
0.002498 0.008123 0.150000
0.002393 0.008063 0.150000
0.002290 0.008001 0.150000
0.002189 0.007938 0.150000
0.002092 0.007875 0.150000
0.002000 0.007811 0.150000
0.001833 0.007688 0.150000
0.005709 0.008377 0.150000
0.006051 0.008143 0.150000
0.005894 0.008271 0.150000
0.006535 0.007222 0.150000
0.006646 0.006743 0.150000
0.006593 0.006989 0.150000
0.006750 0.006215 0.150000
0.006697 0.006485 0.150000
0.006855 0.005674 0.150000
0.006806 0.005936 0.150000
0.006902 0.005094 0.150000
0.006901 0.005259 0.150000
0.006873 0.004813 0.150000
0.006892 0.004947 0.150000
0.006816 0.004558 0.150000
0.006847 0.004686 0.150000
0.006784 0.004424 0.150000
0.001752 0.007634 0.150000
0.001673 0.007582 0.150000
0.001595 0.007533 0.150000
0.001517 0.007484 0.150000
0.001439 0.007434 0.150000
0.001362 0.007382 0.150000
0.001284 0.007325 0.150000
0.001205 0.007264 0.150000
0.006752 0.004276 0.150000
0.006722 0.004109 0.150000
0.006697 0.003916 0.150000
0.006648 0.003517 0.150000
0.006674 0.003712 0.150000
0.006619 0.003329 0.150000
0.005896 0.001080 0.150000
0.006034 0.001279 0.150000
0.005744 0.000917 0.150000
0.005822 0.000997 0.150000
0.005576 0.000754 0.150000
0.000567 0.006687 0.150000
0.000515 0.006620 0.150000
0.000465 0.006534 0.150000
0.000417 0.006423 0.150000
0.000369 0.006280 0.150000
0.000321 0.006099 0.150000
0.000273 0.005875 0.150000
0.000226 0.005642 0.150000
0.000182 0.005440 0.150000
0.005484 0.000661 0.150000
0.000143 0.005263 0.150000
0.000108 0.005107 0.150000
0.000078 0.004969 0.150000
0.000052 0.004842 0.150000
0.000031 0.004723 0.150000
0.000406 0.002429 0.150000
0.000487 0.002296 0.150000
0.000573 0.002157 0.150000
0.000666 0.002012 0.150000
0.000764 0.001864 0.150000
0.001621 0.000901 0.150000
0.001769 0.000795 0.150000
0.001925 0.000697 0.150000
0.002090 0.000602 0.150000
0.002440 0.000424 0.150000
0.002808 0.000269 0.150000
0.002994 0.000204 0.150000
0.003181 0.000147 0.150000
0.003367 0.000099 0.150000
0.003550 0.000063 0.150000
0.003728 0.000038 0.150000
0.003901 0.000026 0.150000
0.004063 0.000019 0.150000
0.004210 0.000011 0.150000
0.004345 0.000004 0.150000
0.005388 0.000554 0.150000
0.005184 0.000305 0.150000
0.005286 0.000428 0.150000
0.004793 0.000039 0.150000
0.004892 0.000077 0.150000
0.004468 0.000000 0.150000
0.004063 0.000019 0.000000
0.004210 0.000011 0.000000
0.004345 0.000004 0.000000
0.004468 0.000000 0.000000
0.003728 0.000038 0.000000
0.003901 0.000026 0.000000
0.006535 0.007222 0.000000
0.004666 0.008769 0.000000
0.003727 0.008649 0.000000
0.006902 0.005094 0.000000
0.006901 0.005259 0.000000
0.006806 0.005936 0.000000
0.006750 0.006215 0.000000
0.006697 0.006485 0.000000
0.006646 0.006743 0.000000
0.006855 0.005674 0.000000
0.006593 0.006989 0.000000
0.000417 0.006423 0.000000
0.000369 0.006280 0.000000
0.000465 0.006534 0.000000
0.000515 0.006620 0.000000
0.000567 0.006687 0.000000
0.000321 0.006099 0.000000
0.000226 0.005642 0.000000
0.000273 0.005875 0.000000
0.001205 0.007264 0.000000
0.001284 0.007325 0.000000
0.000182 0.005440 0.000000
0.000078 0.004969 0.000000
0.000108 0.005107 0.000000
0.000143 0.005263 0.000000
0.001362 0.007382 0.000000
0.001439 0.007434 0.000000
0.001517 0.007484 0.000000
0.001595 0.007533 0.000000
0.001673 0.007582 0.000000
0.000031 0.004723 0.000000
0.000052 0.004842 0.000000
0.000406 0.002429 0.000000
0.000573 0.002157 0.000000
0.000487 0.002296 0.000000
0.000764 0.001864 0.000000
0.000666 0.002012 0.000000
0.001769 0.000795 0.000000
0.001621 0.000901 0.000000
0.002090 0.000602 0.000000
0.001925 0.000697 0.000000
0.002808 0.000269 0.000000
0.002440 0.000424 0.000000
0.003181 0.000147 0.000000
0.002994 0.000204 0.000000
0.003550 0.000063 0.000000
0.003367 0.000099 0.000000
0.004793 0.000039 0.000000
0.004892 0.000077 0.000000
0.005184 0.000305 0.000000
0.005388 0.000554 0.000000
0.005286 0.000428 0.000000
0.001752 0.007634 0.000000
0.005484 0.000661 0.000000
0.001833 0.007688 0.000000
0.002000 0.007811 0.000000
0.002092 0.007875 0.000000
0.005576 0.000754 0.000000
0.005822 0.000997 0.000000
0.005744 0.000917 0.000000
0.006034 0.001279 0.000000
0.005896 0.001080 0.000000
0.006619 0.003329 0.000000
0.006674 0.003712 0.000000
0.006648 0.003517 0.000000
0.006697 0.003916 0.000000
0.002189 0.007938 0.000000
0.002290 0.008001 0.000000
0.002393 0.008063 0.000000
0.002498 0.008123 0.000000
0.002602 0.008182 0.000000
0.002706 0.008239 0.000000
0.002807 0.008294 0.000000
0.003082 0.008440 0.000000
0.003169 0.008482 0.000000
0.003267 0.008521 0.000000
0.003373 0.008557 0.000000
0.003486 0.008591 0.000000
0.003604 0.008621 0.000000
0.004818 0.008761 0.000000
0.004889 0.008746 0.000000
0.005043 0.008694 0.000000
0.005135 0.008653 0.000000
0.005709 0.008377 0.000000
0.005894 0.008271 0.000000
0.006051 0.008143 0.000000
0.006892 0.004947 0.000000
0.006873 0.004813 0.000000
0.006847 0.004686 0.000000
0.006816 0.004558 0.000000
0.006784 0.004424 0.000000
0.006722 0.004109 0.000000
0.006752 0.004276 0.000000
3 0 1 2
3 0 2 3
3 4 0 3
3 4 3 5
3 6 4 5
3 6 5 7
3 8 6 7
3 8 7 9
3 10 8 9
3 10 9 11
3 12 10 11
3 12 11 13
3 14 15 16
3 16 12 13
3 17 14 16
3 13 17 16
3 18 19 20
3 18 20 21
3 22 23 24
3 24 18 21
3 25 22 24
3 21 25 24
3 26 27 28
3 26 28 29
3 30 31 27
3 30 27 26
3 32 33 34
3 32 34 35
3 36 37 38
3 36 38 39
3 40 41 42
3 42 43 44
3 42 44 45
3 46 40 42
3 47 48 46
3 42 45 49
3 49 47 46
3 46 42 49
3 50 51 52
3 50 52 53
3 51 54 55
3 51 55 52
3 56 57 58
3 58 59 60
3 60 61 62
3 62 63 64
3 64 65 66
3 66 67 68
3 68 69 70
3 70 71 72
3 72 73 74
3 74 75 76
3 74 76 77
3 70 72 74
3 66 68 70
3 62 64 66
3 58 60 62
3 78 56 58
3 79 80 78
3 26 29 79
3 81 30 26
3 82 83 81
3 84 85 82
3 86 87 84
3 88 89 86
3 90 91 88
3 92 93 90
3 94 92 90
3 90 88 86
3 86 84 82
3 82 81 26
3 26 79 78
3 78 58 62
3 62 66 70
3 70 74 77
3 70 77 95
3 78 62 70
3 82 26 78
3 90 86 82
3 94 90 82
3 82 78 70
3 70 95 96
3 97 98 99
3 82 70 96
3 96 97 99
3 99 100 101
3 101 102 47
3 99 101 47
3 82 96 99
3 103 94 82
3 104 103 82
3 82 99 47
3 82 47 49
3 105 104 82
3 106 107 105
3 2 108 106
3 5 3 2
3 9 7 5
3 13 11 9
3 14 17 13
3 109 110 14
3 111 112 109
3 113 111 109
3 109 14 13
3 13 9 5
3 5 2 106
3 106 105 82
3 82 49 45
3 45 44 43
3 43 114 115
3 115 116 117
3 117 118 119
3 119 120 121
3 117 119 121
3 43 115 117
3 82 45 43
3 5 106 82
3 109 13 5
3 113 109 5
3 5 82 43
3 43 117 121
3 43 121 122
3 113 5 43
3 123 113 43
3 43 122 124
3 124 125 126
3 126 127 128
3 128 53 52
3 52 55 129
3 129 130 131
3 131 132 133
3 133 22 25
3 25 21 20
3 20 134 135
3 135 136 137
3 137 138 139
3 139 140 141
3 141 142 143
3 143 144 145
3 146 147 148
3 143 145 146
3 139 141 143
3 135 137 139
3 25 20 135
3 131 133 25
3 52 129 131
3 126 128 52
3 43 124 126
3 149 123 43
3 150 151 149
3 32 35 150
3 152 153 32
3 36 39 152
3 148 154 36
3 143 146 148
3 135 139 143
3 131 25 135
3 126 52 131
3 149 43 126
3 32 150 149
3 36 152 32
3 143 148 36
3 131 135 143
3 149 126 131
3 36 32 149
3 131 143 36
3 131 36 149
3 155 156 157
3 157 158 37
3 37 36 154
3 37 154 148
3 155 157 37
3 159 160 155
3 145 144 159
3 146 145 159
3 159 155 37
3 37 148 147
3 147 146 159
3 37 147 159
3 81 161 31
3 81 31 30
3 162 163 61
3 162 61 60
3 88 164 165
3 88 165 89
3 166 167 168
3 166 168 169
3 86 170 166
3 87 86 166
3 87 166 169
3 84 87 169
3 171 161 81
3 84 169 171
3 85 84 171
3 171 81 83
3 82 85 171
3 171 83 82
3 117 172 173
3 117 173 118
3 172 174 175
3 175 176 42
3 172 175 42
3 177 173 172
3 178 179 177
3 178 177 172
3 172 42 46
3 48 180 181
3 172 46 48
3 182 178 172
3 183 184 185
3 185 182 172
3 172 48 181
3 181 186 187
3 187 188 189
3 187 189 190
3 172 181 187
3 183 185 172
3 191 192 183
3 51 50 191
3 193 54 51
3 194 195 193
3 196 197 194
3 24 23 196
3 19 18 24
3 198 199 19
3 200 201 198
3 202 203 200
3 204 205 202
3 206 207 204
3 160 159 206
3 155 160 206
3 206 204 202
3 202 200 198
3 198 19 24
3 24 196 194
3 194 193 51
3 51 191 183
3 183 172 187
3 183 187 190
3 194 51 183
3 198 24 194
3 206 202 198
3 157 155 206
3 208 38 37
3 33 209 208
3 210 34 33
3 211 212 210
3 211 210 33
3 33 208 37
3 37 157 206
3 206 198 194
3 194 183 190
3 194 190 213
3 37 206 194
3 211 33 37
3 214 211 37
3 37 194 213
3 215 216 217
3 37 213 215
3 218 214 37
3 219 220 218
3 221 222 219
3 16 15 221
3 10 12 16
3 6 8 10
3 0 4 6
3 223 1 0
3 224 225 223
3 226 224 223
3 223 0 6
3 6 10 16
3 16 221 219
3 219 218 37
3 37 215 217
3 217 227 228
3 228 229 230
3 230 231 232
3 232 233 234
3 234 235 236
3 236 237 238
3 238 239 163
3 163 162 240
3 240 241 242
3 242 243 244
3 244 245 246
3 246 28 27
3 27 31 161
3 161 171 169
3 169 168 167
3 167 166 170
3 170 165 164
3 164 247 248
3 248 249 250
3 248 250 251
3 170 164 248
3 169 167 170
3 27 161 169
3 244 246 27
3 240 242 244
3 238 163 240
3 234 236 238
3 230 232 234
3 217 228 230
3 219 37 217
3 6 16 219
3 226 223 6
3 252 226 6
3 6 219 217
3 217 230 234
3 234 238 240
3 240 244 27
3 27 169 170
3 170 248 251
3 170 251 253
3 240 27 170
3 217 234 240
3 252 6 217
3 170 253 252
3 217 240 170
3 217 170 252
3 115 175 174
3 115 174 116
3 205 204 141
3 205 141 140
3 138 203 202
3 202 205 140
3 139 138 202
3 140 139 202
3 54 193 129
3 54 129 55
3 48 47 102
3 48 102 180
3 173 177 178
3 119 118 173
3 120 119 173
3 173 178 182
3 120 173 182
3 185 183 192
3 120 182 185
3 121 120 185
3 185 192 191
3 191 128 127
3 191 127 126
3 121 185 191
3 122 121 191
3 191 126 125
3 124 122 191
3 191 125 124
3 43 42 176
3 43 176 114
3 206 159 144
3 206 144 143
3 141 204 206
3 206 143 142
3 206 142 141
3 58 241 240
3 58 240 59
3 221 15 14
3 221 14 110
3 109 222 221
3 109 221 110
3 214 218 220
3 219 222 109
3 211 214 220
3 220 219 109
3 220 109 112
3 212 211 220
3 35 34 210
3 210 212 220
3 220 112 111
3 220 111 113
3 35 210 220
3 150 35 220
3 220 113 123
3 220 123 149
3 151 150 220
3 220 149 151
3 200 203 138
3 200 138 137
3 135 198 201
3 201 200 137
3 136 135 201
3 201 137 136
3 213 190 189
3 213 189 188
3 216 215 213
3 216 213 188
3 216 188 187
3 217 216 187
3 217 187 186
3 181 180 102
3 181 102 101
3 186 181 101
3 186 101 100
3 217 186 100
3 217 100 99
3 227 217 99
3 227 99 98
3 72 229 228
3 228 227 98
3 228 98 97
3 73 72 228
3 74 73 228
3 228 97 96
3 228 96 95
3 75 74 228
3 76 75 228
3 228 95 77
3 77 76 228
3 20 19 199
3 20 199 134
3 237 236 65
3 237 65 64
3 238 237 64
3 238 64 63
3 61 163 239
3 239 238 63
3 62 61 239
3 63 62 239
3 79 246 245
3 79 245 80
3 89 165 170
3 89 170 86
3 134 199 198
3 134 198 135
3 116 174 172
3 116 172 117
3 65 236 235
3 65 235 66
3 245 244 243
3 243 242 57
3 243 57 56
3 80 245 243
3 243 56 78
3 243 78 80
3 114 176 175
3 114 175 115
3 152 208 209
3 152 209 153
3 153 209 33
3 153 33 32
3 240 162 60
3 240 60 59
3 224 226 252
3 252 253 251
3 252 251 250
3 224 252 250
3 224 250 249
3 225 224 249
3 225 249 248
3 2 1 223
3 223 225 248
3 247 164 88
3 2 223 248
3 248 247 88
3 248 88 91
3 108 2 248
3 106 108 248
3 248 91 90
3 248 90 93
3 107 106 248
3 105 107 248
3 248 93 92
3 248 92 94
3 104 105 248
3 248 94 103
3 248 103 104
3 39 38 208
3 39 208 152
3 29 28 246
3 29 246 79
3 196 23 22
3 196 22 133
3 197 196 133
3 197 133 132
3 194 197 132
3 194 132 131
3 129 193 195
3 195 194 131
3 130 129 195
3 131 130 195
3 128 191 50
3 128 50 53
3 57 242 241
3 57 241 58
3 230 229 72
3 230 72 71
3 231 230 71
3 231 71 70
3 232 231 70
3 232 70 69
3 233 232 69
3 233 69 68
3 66 235 234
3 234 233 68
3 67 66 234
3 68 67 234
