ply
format ascii 1.0
comment Created by Blender 3.6.8 - www.blender.org
element vertex 234
property float x
property float y
property float z
element face 461
property list uchar uint vertex_indices
end_header
0.001702 0.010285 0.150000
0.001934 0.010103 0.150000
0.001934 0.010103 0.000000
0.001702 0.010285 0.000000
0.003998 0.007679 0.150000
0.003998 0.007679 0.000000
0.003956 0.007766 0.000000
0.003956 0.007766 0.150000
0.002527 0.000097 0.150000
0.002527 0.000097 0.000000
0.002593 0.000128 0.000000
0.002593 0.000128 0.150000
0.001376 0.010101 0.150000
0.001376 0.010101 0.000000
0.001348 0.010046 0.000000
0.001348 0.010046 0.150000
0.004139 0.007069 0.000000
0.004038 0.007559 0.000000
0.004038 0.007559 0.150000
0.004139 0.007069 0.150000
0.002294 0.000037 0.000000
0.001991 0.000000 0.000000
0.001610 0.000506 0.000000
0.001595 0.000534 0.000000
0.001582 0.000575 0.000000
0.001564 0.000648 0.000000
0.001541 0.000747 0.000000
0.001515 0.000865 0.000000
0.001457 0.001135 0.000000
0.002682 0.000180 0.000000
0.003041 0.000433 0.000000
0.002789 0.000251 0.000000
0.003568 0.000858 0.000000
0.003313 0.000644 0.000000
0.003945 0.001257 0.000000
0.003841 0.001121 0.000000
0.004093 0.001545 0.000000
0.004027 0.001397 0.000000
0.004244 0.002166 0.000000
0.004145 0.001703 0.000000
0.004260 0.002476 0.000000
0.004262 0.002407 0.000000
0.004215 0.002866 0.000000
0.004255 0.002541 0.000000
0.001426 0.001274 0.000000
0.004131 0.004275 0.000000
0.001397 0.001406 0.000000
0.004130 0.004341 0.000000
0.004246 0.006063 0.000000
0.004244 0.005992 0.000000
0.004133 0.004416 0.000000
0.001369 0.001525 0.000000
0.001344 0.001625 0.000000
0.001323 0.001698 0.000000
0.003746 0.008033 0.000000
0.003880 0.007869 0.000000
0.003354 0.008492 0.000000
0.001684 0.010279 0.000000
0.001573 0.010238 0.000000
0.001637 0.010263 0.000000
0.001439 0.010167 0.000000
0.001503 0.010206 0.000000
0.001392 0.010125 0.000000
0.001413 0.010146 0.000000
0.001315 0.009949 0.000000
0.001325 0.009983 0.000000
0.001250 0.009684 0.000000
0.001305 0.009913 0.000000
0.001234 0.009599 0.000000
0.001242 0.009643 0.000000
0.001221 0.009508 0.000000
0.001228 0.009554 0.000000
0.001212 0.009414 0.000000
0.001216 0.009461 0.000000
0.001205 0.009320 0.000000
0.001208 0.009367 0.000000
0.001202 0.009228 0.000000
0.001203 0.009274 0.000000
0.001201 0.009139 0.000000
0.001307 0.001740 0.000000
0.001200 0.009091 0.000000
0.000461 0.002999 0.000000
0.001198 0.009041 0.000000
0.000437 0.003023 0.000000
0.000364 0.003073 0.000000
0.000339 0.003095 0.000000
0.000314 0.003125 0.000000
0.000288 0.003165 0.000000
0.000261 0.003220 0.000000
0.000234 0.003292 0.000000
0.000206 0.003386 0.000000
0.000177 0.003503 0.000000
0.000149 0.003635 0.000000
0.000124 0.003767 0.000000
0.000080 0.004030 0.000000
0.000062 0.004159 0.000000
0.000046 0.004285 0.000000
0.000032 0.004407 0.000000
0.000021 0.004524 0.000000
0.000013 0.004635 0.000000
0.000007 0.004740 0.000000
0.000003 0.004836 0.000000
0.000002 0.004923 0.000000
0.000001 0.005009 0.000000
0.000001 0.005099 0.000000
0.000000 0.005193 0.000000
0.000000 0.005290 0.000000
0.000001 0.005389 0.000000
0.000004 0.005489 0.000000
0.000009 0.005589 0.000000
0.000016 0.005688 0.000000
0.000040 0.005879 0.000000
0.000079 0.006054 0.000000
0.000116 0.006149 0.000000
0.000176 0.006265 0.000000
0.000946 0.007437 0.000000
0.001196 0.008989 0.000000
0.001190 0.008882 0.000000
0.001182 0.008773 0.000000
0.001173 0.008666 0.000000
0.000969 0.007486 0.000000
0.001163 0.008565 0.000000
0.001156 0.008506 0.000000
0.000981 0.007531 0.000000
0.000996 0.007597 0.000000
0.001130 0.008333 0.000000
0.001053 0.007888 0.000000
0.000339 0.003095 0.150000
0.000364 0.003073 0.150000
0.000234 0.003292 0.150000
0.000261 0.003220 0.150000
0.000314 0.003125 0.150000
0.004145 0.001703 0.150000
0.004093 0.001545 0.150000
0.000016 0.005688 0.150000
0.000040 0.005879 0.150000
0.004027 0.001397 0.150000
0.000288 0.003165 0.150000
0.001392 0.010125 0.150000
0.001325 0.009983 0.150000
0.001315 0.009949 0.150000
0.001305 0.009913 0.150000
0.001250 0.009684 0.150000
0.001242 0.009643 0.150000
0.001234 0.009599 0.150000
0.001228 0.009554 0.150000
0.001221 0.009508 0.150000
0.001216 0.009461 0.150000
0.001212 0.009414 0.150000
0.001208 0.009367 0.150000
0.001205 0.009320 0.150000
0.001203 0.009274 0.150000
0.001202 0.009228 0.150000
0.001201 0.009139 0.150000
0.001413 0.010146 0.150000
0.001503 0.010206 0.150000
0.001439 0.010167 0.150000
0.001637 0.010263 0.150000
0.001573 0.010238 0.150000
0.001684 0.010279 0.150000
0.003354 0.008492 0.150000
0.003880 0.007869 0.150000
0.003746 0.008033 0.150000
0.004244 0.005992 0.150000
0.004246 0.006063 0.150000
0.004133 0.004416 0.150000
0.001200 0.009091 0.150000
0.004130 0.004341 0.150000
0.001198 0.009041 0.150000
0.001196 0.008989 0.150000
0.004131 0.004275 0.150000
0.004260 0.002476 0.150000
0.004255 0.002541 0.150000
0.004215 0.002866 0.150000
0.001190 0.008882 0.150000
0.004262 0.002407 0.150000
0.004244 0.002166 0.150000
0.003841 0.001121 0.150000
0.003945 0.001257 0.150000
0.003313 0.000644 0.150000
0.003568 0.000858 0.150000
0.002789 0.000251 0.150000
0.003041 0.000433 0.150000
0.002682 0.000180 0.150000
0.002294 0.000037 0.150000
0.001610 0.000506 0.150000
0.001991 0.000000 0.150000
0.001582 0.000575 0.150000
0.001595 0.000534 0.150000
0.001541 0.000747 0.150000
0.001564 0.000648 0.150000
0.001457 0.001135 0.150000
0.001515 0.000865 0.150000
0.001182 0.008773 0.150000
0.001173 0.008666 0.150000
0.001426 0.001274 0.150000
0.001163 0.008565 0.150000
0.001156 0.008506 0.150000
0.001397 0.001406 0.150000
0.001130 0.008333 0.150000
0.001053 0.007888 0.150000
0.001369 0.001525 0.150000
0.001344 0.001625 0.150000
0.000996 0.007597 0.150000
0.000981 0.007531 0.150000
0.001323 0.001698 0.150000
0.001307 0.001740 0.150000
0.000969 0.007486 0.150000
0.000946 0.007437 0.150000
0.000176 0.006265 0.150000
0.000116 0.006149 0.150000
0.000461 0.002999 0.150000
0.000437 0.003023 0.150000
0.000079 0.006054 0.150000
0.000009 0.005589 0.150000
0.000004 0.005489 0.150000
0.000001 0.005389 0.150000
0.000000 0.005290 0.150000
0.000000 0.005193 0.150000
0.000001 0.005099 0.150000
0.000001 0.005009 0.150000
0.000002 0.004923 0.150000
0.000003 0.004836 0.150000
0.000007 0.004740 0.150000
0.000013 0.004635 0.150000
0.000021 0.004524 0.150000
0.000032 0.004407 0.150000
0.000046 0.004285 0.150000
0.000062 0.004159 0.150000
0.000080 0.004030 0.150000
0.000124 0.003767 0.150000
0.000149 0.003635 0.150000
0.000177 0.003503 0.150000
0.000206 0.003386 0.150000
3 0 1 2
3 0 2 3
3 4 5 6
3 4 6 7
3 8 9 10
3 8 10 11
3 12 13 14
3 12 14 15
3 16 17 18
3 16 18 19
3 10 9 20
3 20 21 22
3 22 23 24
3 24 25 26
3 26 27 28
3 24 26 28
3 20 22 24
3 29 10 20
3 30 31 29
3 32 33 30
3 34 35 32
3 36 37 34
3 38 39 36
3 40 41 38
3 42 43 40
3 42 40 38
3 38 36 34
3 34 32 30
3 30 29 20
3 20 24 28
3 20 28 44
3 34 30 20
3 42 38 34
3 45 42 34
3 34 20 44
3 34 44 46
3 47 45 34
3 48 49 50
3 50 47 34
3 34 46 51
3 34 51 52
3 16 48 50
3 50 34 52
3 50 52 53
3 17 16 50
3 6 5 17
3 54 55 6
3 2 56 54
3 57 3 2
3 58 59 57
3 60 61 58
3 62 63 60
3 14 13 62
3 64 65 14
3 66 67 64
3 68 69 66
3 70 71 68
3 72 73 70
3 74 75 72
3 76 77 74
3 78 76 74
3 74 72 70
3 70 68 66
3 66 64 14
3 14 62 60
3 60 58 57
3 57 2 54
3 54 6 17
3 17 50 53
3 17 53 79
3 57 54 17
3 14 60 57
3 70 66 14
3 78 74 70
3 80 78 70
3 70 14 57
3 57 17 79
3 57 79 81
3 80 70 57
3 82 80 57
3 57 81 83
3 83 84 85
3 85 86 87
3 87 88 89
3 89 90 91
3 91 92 93
3 93 94 95
3 95 96 97
3 97 98 99
3 99 100 101
3 101 102 103
3 103 104 105
3 105 106 107
3 107 108 109
3 109 110 111
3 111 112 113
3 113 114 115
3 111 113 115
3 107 109 111
3 103 105 107
3 99 101 103
3 95 97 99
3 91 93 95
3 87 89 91
3 83 85 87
3 116 82 57
3 117 116 57
3 57 83 87
3 87 91 95
3 95 99 103
3 103 107 111
3 103 111 115
3 87 95 103
3 118 117 57
3 119 118 57
3 87 103 115
3 87 115 120
3 121 119 57
3 122 121 57
3 87 120 123
3 87 123 124
3 125 122 57
3 87 124 126
3 126 125 57
3 87 126 57
3 127 85 84
3 127 84 128
3 129 89 88
3 129 88 130
3 131 86 85
3 131 85 127
3 39 132 133
3 39 133 36
3 110 134 135
3 110 135 111
3 36 133 136
3 36 136 37
3 130 88 87
3 130 87 137
3 138 12 15
3 15 139 140
3 140 141 142
3 142 143 144
3 144 145 146
3 146 147 148
3 148 149 150
3 150 151 152
3 150 152 153
3 146 148 150
3 142 144 146
3 15 140 142
3 154 138 15
3 155 156 154
3 157 158 155
3 0 159 157
3 160 1 0
3 161 162 160
3 4 7 161
3 19 18 4
3 163 164 19
3 165 163 19
3 19 4 161
3 161 160 0
3 0 157 155
3 155 154 15
3 15 142 146
3 146 150 153
3 146 153 166
3 155 15 146
3 161 0 155
3 165 19 161
3 167 165 161
3 161 155 146
3 146 166 168
3 146 168 169
3 167 161 146
3 170 167 146
3 170 146 169
3 171 172 173
3 173 170 169
3 173 169 174
3 175 171 173
3 132 176 175
3 136 133 132
3 177 178 136
3 179 180 177
3 181 182 179
3 11 183 181
3 184 8 11
3 185 186 184
3 187 188 185
3 189 190 187
3 191 192 189
3 191 189 187
3 187 185 184
3 184 11 181
3 181 179 177
3 177 136 132
3 132 175 173
3 173 174 193
3 173 193 194
3 177 132 173
3 184 181 177
3 191 187 184
3 195 191 184
3 184 177 173
3 173 194 196
3 173 196 197
3 195 184 173
3 198 195 173
3 173 197 199
3 173 199 200
3 201 198 173
3 202 201 173
3 173 200 203
3 173 203 204
3 205 202 173
3 206 205 173
3 173 204 207
3 208 209 210
3 173 207 208
3 211 206 173
3 127 128 212
3 212 211 173
3 173 208 210
3 210 213 135
3 135 134 214
3 214 215 216
3 216 217 218
3 218 219 220
3 220 221 222
3 222 223 224
3 224 225 226
3 226 227 228
3 228 229 230
3 230 231 232
3 232 233 129
3 129 130 137
3 137 131 127
3 127 212 173
3 173 210 135
3 135 214 216
3 216 218 220
3 220 222 224
3 224 226 228
3 228 230 232
3 232 129 137
3 137 127 173
3 173 135 216
3 216 220 224
3 224 228 232
3 232 137 173
3 173 216 224
3 224 232 173
3 154 63 62
3 154 62 138
3 156 60 63
3 156 63 154
3 18 17 5
3 18 5 4
3 24 23 188
3 24 188 187
3 25 24 187
3 25 187 190
3 26 25 190
3 26 190 189
3 27 26 189
3 27 189 192
3 28 27 192
3 28 192 191
3 44 28 191
3 44 191 195
3 46 44 195
3 46 195 198
3 51 46 198
3 51 198 201
3 205 53 52
3 52 51 201
3 202 205 52
3 201 202 52
3 92 91 90
3 90 89 129
3 90 129 233
3 93 92 90
3 229 94 93
3 230 229 93
3 93 90 233
3 93 233 232
3 231 230 93
3 232 231 93
3 138 62 13
3 138 13 12
3 206 79 53
3 206 53 205
3 16 19 164
3 16 164 48
3 49 48 164
3 49 164 163
3 167 47 50
3 50 49 163
3 165 167 50
3 163 165 50
3 21 186 185
3 21 185 22
3 9 8 184
3 9 184 20
3 45 47 167
3 45 167 170
3 42 45 170
3 42 170 173
3 43 42 173
3 43 173 172
3 175 41 40
3 40 43 172
3 171 175 40
3 172 171 40
3 32 180 179
3 32 179 182
3 29 30 32
3 181 183 29
3 32 182 181
3 32 181 29
3 115 114 209
3 115 209 208
3 81 79 206
3 81 206 211
3 178 34 37
3 178 37 136
3 20 184 186
3 20 186 21
3 176 38 41
3 176 41 175
3 76 78 80
3 80 82 116
3 116 117 118
3 118 119 121
3 121 196 194
3 121 194 193
3 116 118 121
3 76 80 116
3 76 116 121
3 121 193 174
3 121 174 169
3 77 76 121
3 74 77 121
3 121 169 168
3 121 168 166
3 74 121 166
3 74 166 153
3 75 74 153
3 75 153 152
3 72 75 152
3 72 152 151
3 73 72 151
3 73 151 150
3 145 71 70
3 70 73 150
3 70 150 149
3 146 145 70
3 147 146 70
3 70 149 148
3 148 147 70
3 56 2 1
3 56 1 160
3 54 56 160
3 54 160 162
3 7 6 55
3 55 54 162
3 161 7 55
3 162 161 55
3 14 65 139
3 14 139 15
3 11 10 29
3 11 29 183
3 34 178 177
3 34 177 35
3 214 134 110
3 214 110 109
3 215 214 109
3 215 109 108
3 216 215 108
3 216 108 107
3 217 216 107
3 217 107 106
3 218 217 106
3 218 106 105
3 219 218 105
3 104 103 102
3 219 105 104
3 220 219 104
3 102 101 222
3 220 104 102
3 102 222 221
3 102 221 220
3 128 84 83
3 128 83 212
3 68 71 145
3 68 145 144
3 69 68 144
3 69 144 143
3 66 69 143
3 66 143 142
3 67 66 142
3 67 142 141
3 139 65 64
3 64 67 141
3 140 139 64
3 141 140 64
3 38 176 132
3 38 132 39
3 212 83 81
3 212 81 211
3 60 156 155
3 60 155 61
3 210 113 112
3 210 112 213
3 61 155 158
3 61 158 58
3 137 87 86
3 137 86 131
3 58 158 157
3 159 0 3
3 58 157 159
3 3 57 58
3 58 159 3
3 180 32 35
3 180 35 177
3 209 114 113
3 209 113 210
3 98 97 96
3 96 95 94
3 94 229 228
3 94 228 227
3 98 96 94
3 100 99 98
3 222 101 100
3 223 222 100
3 100 98 94
3 94 227 226
3 94 226 225
3 223 100 94
3 94 225 224
3 94 224 223
3 213 112 111
3 213 111 135
3 207 120 115
3 207 115 208
3 123 120 207
3 123 207 204
3 124 123 204
3 124 204 203
3 126 124 203
3 126 203 200
3 125 126 200
3 125 200 199
3 196 121 122
3 122 125 199
3 197 196 122
3 199 197 122
3 188 23 22
3 188 22 185
