ply
format ascii 1.0
comment Created by Blender 3.6.8 - www.blender.org
element vertex 220
property float x
property float y
property float z
element face 432
property list uchar uint vertex_indices
end_header
0.000087 0.008562 0.150000
0.000087 0.008562 0.000000
0.000064 0.008502 0.000000
0.000064 0.008502 0.150000
0.003847 0.000564 0.150000
0.003847 0.000564 0.000000
0.004083 0.000457 0.000000
0.004083 0.000457 0.150000
0.000759 0.006031 0.000000
0.000332 0.006839 0.000000
0.000286 0.006944 0.000000
0.000244 0.007046 0.000000
0.000223 0.007097 0.000000
0.000202 0.007148 0.000000
0.000182 0.007201 0.000000
0.000161 0.007256 0.000000
0.000140 0.007314 0.000000
0.000118 0.007375 0.000000
0.000072 0.007509 0.000000
0.000051 0.007579 0.000000
0.000020 0.007709 0.000000
0.000004 0.007833 0.000000
0.000000 0.007961 0.000000
0.000003 0.008028 0.000000
0.000007 0.008099 0.000000
0.000014 0.008175 0.000000
0.000032 0.008346 0.000000
0.000045 0.008431 0.000000
0.000114 0.008611 0.000000
0.000145 0.008652 0.000000
0.000178 0.008687 0.000000
0.000214 0.008718 0.000000
0.000329 0.008803 0.000000
0.000368 0.008835 0.000000
0.000445 0.008908 0.000000
0.000487 0.008934 0.000000
0.000532 0.008951 0.000000
0.000580 0.008960 0.000000
0.000632 0.008963 0.000000
0.001232 0.008903 0.000000
0.001361 0.008876 0.000000
0.001511 0.008837 0.000000
0.001676 0.008787 0.000000
0.001852 0.008729 0.000000
0.002034 0.008663 0.000000
0.002218 0.008594 0.000000
0.002398 0.008522 0.000000
0.002570 0.008449 0.000000
0.004541 0.007404 0.000000
0.001601 0.003782 0.000000
0.001410 0.004244 0.000000
0.002258 0.002297 0.000000
0.002209 0.002406 0.000000
0.002029 0.002839 0.000000
0.005140 0.007160 0.000000
0.005427 0.007070 0.000000
0.006125 0.006878 0.000000
0.006290 0.006819 0.000000
0.006351 0.006793 0.000000
0.002374 0.002091 0.000000
0.002673 0.001715 0.000000
0.002550 0.001858 0.000000
0.002988 0.001371 0.000000
0.002828 0.001546 0.000000
0.003251 0.001083 0.000000
0.003128 0.001218 0.000000
0.003461 0.000862 0.000000
0.003361 0.000965 0.000000
0.003650 0.000694 0.000000
0.004998 0.000212 0.000000
0.005555 0.000131 0.000000
0.005290 0.000163 0.000000
0.005777 0.000114 0.000000
0.005672 0.000121 0.000000
0.005869 0.000112 0.000000
0.005949 0.000105 0.000000
0.006418 0.006764 0.000000
0.006577 0.006693 0.000000
0.006660 0.006652 0.000000
0.006800 0.006570 0.000000
0.006911 0.006485 0.000000
0.007006 0.006394 0.000000
0.007294 0.006064 0.000000
0.007370 0.005958 0.000000
0.007399 0.005908 0.000000
0.007443 0.005808 0.000000
0.007461 0.005756 0.000000
0.007611 0.005241 0.000000
0.007630 0.005158 0.000000
0.007895 0.003153 0.000000
0.007890 0.003034 0.000000
0.007859 0.002792 0.000000
0.007728 0.002287 0.000000
0.007485 0.001606 0.000000
0.007437 0.001483 0.000000
0.007388 0.001370 0.000000
0.007339 0.001263 0.000000
0.007288 0.001160 0.000000
0.007232 0.001060 0.000000
0.007172 0.000958 0.000000
0.007105 0.000853 0.000000
0.007030 0.000743 0.000000
0.006946 0.000623 0.000000
0.006745 0.000349 0.000000
0.006638 0.000216 0.000000
0.006546 0.000120 0.000000
0.006464 0.000055 0.000000
0.006391 0.000017 0.000000
0.006325 0.000001 0.000000
0.006263 0.000003 0.000000
0.006204 0.000017 0.000000
0.006145 0.000038 0.000000
0.006084 0.000064 0.000000
0.006020 0.000087 0.000000
0.007890 0.003034 0.150000
0.007895 0.003153 0.150000
0.006263 0.000003 0.150000
0.006325 0.000001 0.150000
0.003650 0.000694 0.150000
0.000020 0.007709 0.150000
0.000051 0.007579 0.150000
0.004998 0.000212 0.150000
0.006546 0.000120 0.150000
0.006638 0.000216 0.150000
0.000000 0.007961 0.150000
0.000003 0.008028 0.150000
0.000007 0.008099 0.150000
0.000014 0.008175 0.150000
0.000045 0.008431 0.150000
0.000032 0.008346 0.150000
0.000178 0.008687 0.150000
0.000145 0.008652 0.150000
0.001361 0.008876 0.150000
0.001232 0.008903 0.150000
0.005949 0.000105 0.150000
0.006020 0.000087 0.150000
0.000004 0.007833 0.150000
0.007006 0.006394 0.150000
0.007294 0.006064 0.150000
0.006204 0.000017 0.150000
0.000632 0.008963 0.150000
0.000580 0.008960 0.150000
0.000532 0.008951 0.150000
0.000487 0.008934 0.150000
0.000445 0.008908 0.150000
0.000368 0.008835 0.150000
0.000329 0.008803 0.150000
0.000214 0.008718 0.150000
0.001511 0.008837 0.150000
0.001852 0.008729 0.150000
0.001676 0.008787 0.150000
0.002218 0.008594 0.150000
0.002034 0.008663 0.150000
0.002570 0.008449 0.150000
0.002398 0.008522 0.150000
0.004541 0.007404 0.150000
0.000114 0.008611 0.150000
0.000072 0.007509 0.150000
0.000118 0.007375 0.150000
0.000140 0.007314 0.150000
0.000161 0.007256 0.150000
0.000182 0.007201 0.150000
0.000202 0.007148 0.150000
0.000223 0.007097 0.150000
0.000244 0.007046 0.150000
0.000286 0.006944 0.150000
0.000332 0.006839 0.150000
0.000759 0.006031 0.150000
0.001410 0.004244 0.150000
0.001601 0.003782 0.150000
0.002029 0.002839 0.150000
0.002209 0.002406 0.150000
0.002258 0.002297 0.150000
0.005140 0.007160 0.150000
0.006290 0.006819 0.150000
0.006125 0.006878 0.150000
0.005427 0.007070 0.150000
0.006351 0.006793 0.150000
0.006418 0.006764 0.150000
0.006660 0.006652 0.150000
0.006577 0.006693 0.150000
0.006911 0.006485 0.150000
0.006800 0.006570 0.150000
0.007399 0.005908 0.150000
0.007370 0.005958 0.150000
0.007461 0.005756 0.150000
0.007443 0.005808 0.150000
0.007630 0.005158 0.150000
0.007611 0.005241 0.150000
0.007728 0.002287 0.150000
0.007859 0.002792 0.150000
0.007437 0.001483 0.150000
0.007485 0.001606 0.150000
0.007339 0.001263 0.150000
0.007388 0.001370 0.150000
0.007232 0.001060 0.150000
0.007288 0.001160 0.150000
0.007105 0.000853 0.150000
0.007172 0.000958 0.150000
0.006946 0.000623 0.150000
0.007030 0.000743 0.150000
0.006745 0.000349 0.150000
0.006464 0.000055 0.150000
0.006391 0.000017 0.150000
0.006084 0.000064 0.150000
0.006145 0.000038 0.150000
0.002374 0.002091 0.150000
0.002550 0.001858 0.150000
0.002673 0.001715 0.150000
0.002828 0.001546 0.150000
0.002988 0.001371 0.150000
0.003128 0.001218 0.150000
0.003251 0.001083 0.150000
0.003361 0.000965 0.150000
0.003461 0.000862 0.150000
0.005290 0.000163 0.150000
0.005555 0.000131 0.150000
0.005672 0.000121 0.150000
0.005777 0.000114 0.150000
0.005869 0.000112 0.150000
3 0 1 2
3 0 2 3
3 4 5 6
3 4 6 7
3 8 9 10
3 10 11 12
3 12 13 14
3 14 15 16
3 16 17 18
3 18 19 20
3 20 21 22
3 22 23 24
3 24 25 26
3 26 27 2
3 2 1 28
3 28 29 30
3 30 31 32
3 33 34 35
3 28 30 32
3 32 33 35
3 35 36 37
3 37 38 39
3 39 40 41
3 41 42 43
3 43 44 45
3 45 46 47
3 45 47 48
3 41 43 45
3 37 39 41
3 32 35 37
3 2 28 32
3 24 26 2
3 20 22 24
3 16 18 20
3 12 14 16
3 8 10 12
3 49 50 8
3 51 52 53
3 53 49 8
3 8 12 16
3 16 20 24
3 24 2 32
3 32 37 41
3 41 45 48
3 32 41 48
3 16 24 32
3 51 53 8
3 8 16 32
3 32 48 54
3 55 56 57
3 8 32 54
3 55 57 58
3 8 54 55
3 59 51 8
3 60 61 59
3 62 63 60
3 64 65 62
3 66 67 64
3 5 68 66
3 69 6 5
3 70 71 69
3 72 73 70
3 74 72 70
3 70 69 5
3 5 66 64
3 62 60 59
3 5 64 62
3 74 70 5
3 75 74 5
3 5 62 59
3 59 8 55
3 55 58 76
3 76 77 78
3 78 79 80
3 80 81 82
3 82 83 84
3 84 85 86
3 86 87 88
3 88 89 90
3 90 91 92
3 92 93 94
3 94 95 96
3 96 97 98
3 98 99 100
3 100 101 102
3 102 103 104
3 104 105 106
3 106 107 108
3 108 109 110
3 110 111 112
3 108 110 112
3 104 106 108
3 100 102 104
3 96 98 100
3 92 94 96
3 88 90 92
3 84 86 88
3 80 82 84
3 76 78 80
3 59 55 76
3 75 5 59
3 108 112 113
3 113 75 59
3 59 76 80
3 80 84 88
3 88 92 96
3 96 100 104
3 104 108 113
3 113 59 80
3 80 88 96
3 96 104 113
3 80 96 113
3 114 90 89
3 114 89 115
3 116 109 108
3 116 108 117
3 5 4 118
3 5 118 68
3 119 20 19
3 119 19 120
3 6 69 121
3 6 121 7
3 122 105 104
3 122 104 123
3 23 22 124
3 23 124 125
3 24 23 125
3 24 125 126
3 25 24 126
3 25 126 127
3 128 27 26
3 26 25 127
3 129 128 26
3 127 129 26
3 130 30 29
3 130 29 131
3 132 40 39
3 132 39 133
3 134 75 113
3 134 113 135
3 124 22 21
3 124 21 136
3 82 81 137
3 82 137 138
3 139 110 109
3 139 109 116
3 133 140 141
3 141 142 143
3 143 144 145
3 146 147 130
3 143 145 146
3 133 141 143
3 148 132 133
3 149 150 148
3 151 152 149
3 153 154 151
3 155 153 151
3 151 149 148
3 148 133 143
3 146 130 131
3 148 143 146
3 155 151 148
3 155 148 146
3 146 131 156
3 156 0 3
3 3 128 129
3 129 127 126
3 126 125 124
3 124 136 119
3 119 120 157
3 157 158 159
3 159 160 161
3 161 162 163
3 163 164 165
3 165 166 167
3 167 168 169
3 170 171 172
3 167 169 170
3 163 165 167
3 159 161 163
3 119 157 159
3 126 124 119
3 3 129 126
3 146 156 3
3 173 155 146
3 174 175 176
3 173 146 3
3 177 174 176
3 176 173 3
3 3 126 119
3 119 159 163
3 167 170 172
3 119 163 167
3 176 3 119
3 178 177 176
3 179 180 178
3 181 182 179
3 138 137 181
3 183 184 138
3 185 186 183
3 187 188 185
3 114 115 187
3 189 190 114
3 191 192 189
3 193 194 191
3 195 196 193
3 197 198 195
3 199 200 197
3 123 201 199
3 202 122 123
3 117 203 202
3 139 116 117
3 204 205 139
3 204 139 117
3 117 202 123
3 123 199 197
3 197 195 193
3 193 191 189
3 189 114 187
3 187 185 183
3 183 138 181
3 181 179 178
3 178 176 119
3 167 172 206
3 178 119 167
3 183 181 178
3 189 187 183
3 197 193 189
3 117 123 197
3 135 204 117
3 135 117 197
3 197 189 183
3 183 178 167
3 167 206 207
3 207 208 209
3 210 211 212
3 207 209 210
3 183 167 207
3 135 197 183
3 134 135 183
3 183 207 210
3 210 212 213
3 213 214 118
3 118 4 7
3 7 121 215
3 215 216 217
3 217 218 219
3 219 134 183
3 183 210 213
3 213 118 7
3 7 215 217
3 217 219 183
3 183 213 7
3 7 217 183
3 52 51 172
3 52 172 171
3 49 53 52
3 167 8 50
3 49 52 171
3 167 50 49
3 168 167 49
3 49 171 170
3 169 168 49
3 170 169 49
3 66 214 213
3 66 213 212
3 62 64 66
3 207 61 60
3 208 207 60
3 60 62 66
3 66 212 211
3 66 211 210
3 208 60 66
3 66 210 209
3 66 209 208
3 83 82 138
3 83 138 184
3 137 81 80
3 137 80 181
3 3 2 27
3 3 27 128
3 183 84 83
3 183 83 184
3 56 55 54
3 54 173 176
3 175 174 57
3 54 176 175
3 175 57 56
3 56 54 175
3 202 106 105
3 202 105 122
3 131 29 28
3 131 28 156
3 100 99 198
3 100 198 197
3 101 100 197
3 101 197 200
3 102 101 200
3 102 200 199
3 123 104 103
3 103 102 199
3 201 123 103
3 199 201 103
3 141 37 36
3 141 36 142
3 144 34 33
3 144 33 145
3 85 84 183
3 85 183 186
3 54 48 155
3 54 155 173
3 214 66 68
3 214 68 118
3 117 108 107
3 117 107 203
3 203 107 106
3 203 106 202
3 136 21 20
3 136 20 119
3 111 110 139
3 111 139 205
3 135 113 112
3 112 111 205
3 204 135 112
3 205 204 112
3 59 61 207
3 59 207 206
3 79 182 181
3 79 181 80
3 30 130 147
3 146 145 33
3 30 147 146
3 146 33 32
3 32 30 146
3 191 194 95
3 95 94 93
3 93 92 189
3 192 191 95
3 93 189 192
3 95 93 192
3 89 88 187
3 89 187 115
3 133 39 38
3 133 38 140
3 166 9 8
3 166 8 167
3 10 9 166
3 10 166 165
3 11 10 165
3 11 165 164
3 12 11 164
3 12 164 163
3 13 12 163
3 13 163 162
3 14 13 162
3 14 162 161
3 15 14 161
3 15 161 160
3 16 15 160
3 16 160 159
3 17 16 159
3 17 159 158
3 120 19 18
3 18 17 158
3 157 120 18
3 158 157 18
3 71 70 73
3 73 72 74
3 74 75 134
3 74 134 219
3 71 73 74
3 121 69 71
3 215 121 71
3 71 74 219
3 71 219 218
3 216 215 71
3 71 218 217
3 217 216 71
3 58 57 174
3 58 174 177
3 76 58 177
3 76 177 178
3 179 78 77
3 77 76 178
3 180 179 77
3 178 180 77
3 86 85 186
3 86 186 185
3 187 88 87
3 87 86 185
3 188 187 87
3 185 188 87
3 142 36 35
3 142 35 143
3 96 95 194
3 96 194 193
3 97 96 193
3 97 193 196
3 198 99 98
3 98 97 196
3 195 198 98
3 98 196 195
3 41 40 132
3 41 132 148
3 42 41 148
3 42 148 150
3 43 42 150
3 43 150 149
3 44 43 149
3 44 149 152
3 45 44 152
3 45 152 151
3 153 47 46
3 46 45 151
3 154 153 46
3 151 154 46
3 48 47 153
3 48 153 155
3 79 78 179
3 79 179 182
3 156 28 1
3 156 1 0
3 91 90 114
3 91 114 190
3 92 91 190
3 92 190 189
3 143 35 34
3 143 34 144
3 140 38 37
3 140 37 141
3 172 51 59
3 172 59 206
