ply
format ascii 1.0
comment Created by Blender 3.6.8 - www.blender.org
element vertex 204
property float x
property float y
property float z
element face 399
property list uchar uint vertex_indices
end_header
0.001332 0.005607 0.000000
0.001174 0.005390 0.000000
0.001174 0.005390 0.150000
0.001332 0.005607 0.150000
0.001494 0.005815 0.000000
0.001494 0.005815 0.150000
0.001655 0.006010 0.000000
0.001655 0.006010 0.150000
0.002186 0.006627 0.000000
0.002079 0.006502 0.000000
0.001809 0.006191 0.000000
0.001809 0.006191 0.150000
0.002267 0.006729 0.000000
0.002186 0.006627 0.150000
0.002267 0.006729 0.150000
0.002079 0.006502 0.150000
0.000113 0.003589 0.150000
0.000113 0.003589 0.000000
0.000061 0.003437 0.000000
0.000061 0.003437 0.150000
0.007268 0.002043 0.000000
0.007311 0.002131 0.000000
0.007349 0.002215 0.000000
0.007383 0.002300 0.000000
0.007383 0.002300 0.150000
0.007349 0.002215 0.150000
0.007049 0.001618 0.000000
0.006909 0.001343 0.000000
0.006981 0.001479 0.000000
0.006981 0.001479 0.150000
0.006909 0.001343 0.150000
0.007049 0.001618 0.150000
0.007311 0.002131 0.150000
0.007268 0.002043 0.150000
0.000117 0.001242 0.150000
0.000117 0.001242 0.000000
0.000167 0.001137 0.000000
0.000167 0.001137 0.150000
0.000242 0.001040 0.150000
0.000242 0.001040 0.000000
0.000348 0.000946 0.000000
0.000348 0.000946 0.150000
0.000442 0.004140 0.000000
0.000346 0.003996 0.000000
0.000258 0.003861 0.000000
0.000180 0.003728 0.000000
0.000180 0.003728 0.150000
0.000258 0.003861 0.150000
0.000346 0.003996 0.150000
0.000545 0.004301 0.000000
0.000442 0.004140 0.150000
0.001023 0.005165 0.000000
0.000884 0.004935 0.000000
0.000653 0.004485 0.000000
0.000545 0.004301 0.150000
0.001023 0.005165 0.150000
0.000884 0.004935 0.150000
0.000653 0.004485 0.150000
0.004971 0.000006 0.150000
0.004971 0.000006 0.000000
0.005094 0.000026 0.000000
0.005094 0.000026 0.150000
0.000489 0.000849 0.000000
0.000489 0.000849 0.150000
0.005513 0.000209 0.000000
0.006582 0.000954 0.000000
0.006582 0.000954 0.150000
0.005513 0.000209 0.150000
0.003432 0.007068 0.150000
0.003432 0.007068 0.000000
0.003367 0.007060 0.000000
0.003367 0.007060 0.150000
0.007439 0.002481 0.150000
0.007523 0.002891 0.150000
0.007588 0.003103 0.150000
0.007605 0.003168 0.150000
0.007615 0.003238 0.150000
0.007619 0.003316 0.150000
0.007598 0.003514 0.150000
0.007326 0.004572 0.150000
0.007211 0.004882 0.150000
0.007092 0.005108 0.150000
0.006719 0.005689 0.150000
0.006579 0.005869 0.150000
0.006424 0.006024 0.150000
0.006336 0.006094 0.150000
0.006128 0.006224 0.150000
0.006005 0.006284 0.150000
0.005881 0.006341 0.150000
0.005661 0.006445 0.150000
0.005560 0.006492 0.150000
0.005461 0.006537 0.150000
0.005362 0.006580 0.150000
0.005258 0.006621 0.150000
0.005147 0.006661 0.150000
0.005027 0.006701 0.150000
0.004894 0.006741 0.150000
0.004745 0.006781 0.150000
0.004409 0.006862 0.150000
0.003802 0.007021 0.150000
0.003716 0.007041 0.150000
0.006835 0.001226 0.150000
0.006756 0.001124 0.150000
0.005363 0.000124 0.150000
0.005224 0.000064 0.150000
0.004851 0.000000 0.150000
0.004358 0.000042 0.150000
0.004733 0.000005 0.150000
0.003565 0.007066 0.150000
0.003497 0.007070 0.150000
0.002319 0.006805 0.150000
0.004217 0.000050 0.150000
0.003510 0.000033 0.150000
0.003768 0.000038 0.150000
0.004065 0.000049 0.150000
0.003392 0.000033 0.150000
0.003278 0.000035 0.150000
0.003057 0.000046 0.150000
0.003166 0.000039 0.150000
0.002835 0.000065 0.150000
0.002947 0.000054 0.150000
0.002598 0.000095 0.150000
0.002719 0.000079 0.150000
0.002060 0.000200 0.150000
0.002340 0.000138 0.150000
0.001755 0.000286 0.150000
0.001911 0.000240 0.150000
0.001424 0.000403 0.150000
0.001593 0.000340 0.150000
0.001064 0.000554 0.150000
0.000070 0.001490 0.150000
0.000086 0.001358 0.150000
0.000055 0.002029 0.150000
0.000063 0.001643 0.150000
0.000003 0.003065 0.150000
0.000002 0.002829 0.150000
0.000044 0.002271 0.150000
0.000023 0.003265 0.150000
0.003497 0.007070 0.000000
0.006579 0.005869 0.000000
0.006424 0.006024 0.000000
0.006336 0.006094 0.000000
0.006128 0.006224 0.000000
0.007092 0.005108 0.000000
0.007211 0.004882 0.000000
0.002319 0.006805 0.000000
0.006835 0.001226 0.000000
0.003166 0.000039 0.000000
0.003278 0.000035 0.000000
0.003057 0.000046 0.000000
0.002947 0.000054 0.000000
0.002835 0.000065 0.000000
0.002598 0.000095 0.000000
0.002719 0.000079 0.000000
0.001064 0.000554 0.000000
0.000044 0.002271 0.000000
0.000055 0.002029 0.000000
0.000063 0.001643 0.000000
0.000070 0.001490 0.000000
0.000086 0.001358 0.000000
0.000002 0.002829 0.000000
0.000003 0.003065 0.000000
0.005147 0.006661 0.000000
0.005027 0.006701 0.000000
0.004894 0.006741 0.000000
0.004745 0.006781 0.000000
0.004409 0.006862 0.000000
0.003802 0.007021 0.000000
0.003716 0.007041 0.000000
0.007615 0.003238 0.000000
0.007619 0.003316 0.000000
0.005224 0.000064 0.000000
0.007523 0.002891 0.000000
0.007588 0.003103 0.000000
0.007605 0.003168 0.000000
0.007439 0.002481 0.000000
0.000023 0.003265 0.000000
0.004217 0.000050 0.000000
0.004358 0.000042 0.000000
0.004733 0.000005 0.000000
0.004851 0.000000 0.000000
0.006719 0.005689 0.000000
0.003565 0.007066 0.000000
0.005258 0.006621 0.000000
0.005362 0.006580 0.000000
0.005461 0.006537 0.000000
0.005560 0.006492 0.000000
0.006005 0.006284 0.000000
0.005881 0.006341 0.000000
0.005661 0.006445 0.000000
0.007326 0.004572 0.000000
0.007598 0.003514 0.000000
0.006756 0.001124 0.000000
0.005363 0.000124 0.000000
0.004065 0.000049 0.000000
0.003768 0.000038 0.000000
0.003510 0.000033 0.000000
0.003392 0.000033 0.000000
0.002340 0.000138 0.000000
0.002060 0.000200 0.000000
0.001911 0.000240 0.000000
0.001755 0.000286 0.000000
0.001593 0.000340 0.000000
0.001424 0.000403 0.000000
3 0 1 2
3 0 2 3
3 4 0 3
3 4 3 5
3 6 4 5
3 6 5 7
3 8 9 10
3 10 6 7
3 10 7 11
3 12 8 10
3 13 14 12
3 10 11 15
3 15 13 12
3 15 12 10
3 16 17 18
3 16 18 19
3 20 21 22
3 22 23 24
3 22 24 25
3 26 20 22
3 27 28 26
3 29 30 27
3 31 29 27
3 27 26 22
3 22 25 32
3 33 31 27
3 22 32 33
3 22 33 27
3 34 35 36
3 34 36 37
3 38 39 40
3 38 40 41
3 42 43 44
3 44 45 46
3 44 46 47
3 42 44 47
3 42 47 48
3 49 42 48
3 49 48 50
3 51 52 53
3 53 49 50
3 53 50 54
3 1 51 53
3 55 2 1
3 56 55 1
3 1 53 54
3 57 56 1
3 54 57 1
3 58 59 60
3 58 60 61
3 46 45 17
3 46 17 16
3 41 40 62
3 41 62 63
3 64 65 66
3 64 66 67
3 68 69 70
3 68 70 71
3 31 33 32
3 32 25 24
3 24 72 73
3 73 74 75
3 75 76 77
3 77 78 79
3 79 80 81
3 81 82 83
3 83 84 85
3 85 86 87
3 88 89 90
3 85 87 88
3 81 83 85
3 77 79 81
3 73 75 77
3 32 24 73
3 30 29 31
3 31 32 73
3 73 77 81
3 81 85 88
3 88 90 91
3 91 92 93
3 93 94 95
3 95 96 97
3 98 99 100
3 95 97 98
3 91 93 95
3 81 88 91
3 31 73 81
3 101 30 31
3 66 102 101
3 103 67 66
3 61 104 103
3 105 58 61
3 106 107 105
3 106 105 61
3 61 103 66
3 66 101 31
3 31 81 91
3 91 95 98
3 98 100 108
3 108 109 68
3 68 71 110
3 68 110 14
3 98 108 68
3 31 91 98
3 61 66 31
3 111 106 61
3 112 113 114
3 111 61 31
3 115 112 114
3 114 111 31
3 31 98 68
3 68 14 13
3 15 11 7
3 68 13 15
3 114 31 68
3 116 115 114
3 117 118 116
3 119 120 117
3 121 122 119
3 123 124 121
3 125 126 123
3 127 128 125
3 63 129 127
3 38 41 63
3 34 37 38
3 130 131 34
3 132 133 130
3 134 135 136
3 132 130 34
3 137 134 136
3 136 132 34
3 34 38 63
3 63 127 125
3 125 123 121
3 121 119 117
3 117 116 114
3 114 68 15
3 15 7 5
3 5 3 2
3 2 55 56
3 2 56 57
3 15 5 2
3 117 114 15
3 125 121 117
3 34 63 125
3 137 136 34
3 16 19 137
3 47 46 16
3 50 48 47
3 50 47 16
3 16 137 34
3 34 125 117
3 117 15 2
3 117 2 57
3 16 34 117
3 54 50 16
3 117 57 54
3 54 16 117
3 109 138 69
3 109 69 68
3 83 139 140
3 83 140 84
3 85 141 142
3 85 142 86
3 143 81 80
3 143 80 144
3 110 145 12
3 110 12 14
3 101 146 27
3 101 27 30
3 147 148 116
3 147 116 118
3 149 147 118
3 149 118 117
3 150 149 117
3 150 117 120
3 151 150 120
3 151 120 119
3 121 152 153
3 153 151 119
3 122 121 153
3 119 122 153
3 62 154 129
3 62 129 63
3 155 156 157
3 158 159 131
3 160 155 157
3 157 158 131
3 157 131 130
3 134 161 160
3 160 157 130
3 160 130 133
3 135 134 160
3 136 135 160
3 160 133 132
3 132 136 160
3 131 159 35
3 131 35 34
3 95 94 162
3 95 162 163
3 96 95 163
3 96 163 164
3 97 96 164
3 165 166 167
3 97 164 165
3 98 97 165
3 167 168 100
3 98 165 167
3 167 100 99
3 167 99 98
3 37 36 39
3 37 39 38
3 76 169 170
3 76 170 77
3 61 60 171
3 61 171 104
3 172 173 174
3 174 75 74
3 174 74 73
3 23 175 172
3 172 174 73
3 72 24 23
3 172 73 72
3 172 72 23
3 19 18 176
3 19 176 137
3 177 178 179
3 179 180 105
3 179 105 107
3 111 177 179
3 179 107 106
3 179 106 111
3 143 181 82
3 143 82 81
3 105 180 59
3 105 59 58
3 100 168 182
3 100 182 108
3 70 145 110
3 70 110 71
3 183 162 94
3 183 94 93
3 184 183 93
3 184 93 92
3 185 184 92
3 185 92 91
3 186 185 91
3 186 91 90
3 187 188 189
3 189 186 90
3 189 90 89
3 86 142 187
3 187 189 89
3 187 89 88
3 87 86 187
3 88 87 187
3 190 144 80
3 190 80 79
3 138 182 168
3 168 167 166
3 166 165 164
3 164 163 162
3 162 183 184
3 184 185 186
3 186 189 188
3 188 187 142
3 142 141 140
3 140 139 181
3 181 143 144
3 144 190 191
3 191 170 169
3 169 174 173
3 169 173 172
3 144 191 169
3 140 181 144
3 188 142 140
3 184 186 188
3 164 162 184
3 138 168 166
3 166 164 184
3 184 188 140
3 140 144 169
3 172 23 22
3 140 169 172
3 166 184 140
3 69 138 166
3 145 70 69
3 12 145 69
3 69 166 140
3 140 172 22
3 69 140 22
3 8 12 69
3 6 10 9
3 9 8 69
3 69 22 26
3 26 27 146
3 146 192 65
3 65 64 193
3 193 171 60
3 60 59 180
3 180 179 178
3 60 180 178
3 65 193 60
3 26 146 65
3 9 69 26
3 4 6 9
3 1 0 4
3 52 51 1
3 53 52 1
3 1 4 9
3 9 26 65
3 65 60 178
3 65 178 177
3 1 9 65
3 53 1 65
3 65 177 194
3 194 195 196
3 196 197 148
3 148 147 149
3 149 150 151
3 151 153 152
3 152 198 199
3 199 200 201
3 201 202 203
3 203 154 62
3 62 40 39
3 39 36 35
3 35 159 158
3 158 157 156
3 155 160 161
3 35 158 156
3 155 161 176
3 35 156 155
3 62 39 35
3 201 203 62
3 152 199 201
3 149 151 152
3 196 148 149
3 65 194 196
3 49 53 65
3 42 49 65
3 65 196 149
3 149 152 201
3 201 62 35
3 35 155 176
3 176 18 17
3 17 45 44
3 44 42 65
3 65 149 201
3 201 35 176
3 176 17 44
3 44 65 201
3 201 176 44
3 200 199 198
3 198 152 121
3 198 121 124
3 201 200 198
3 126 125 201
3 198 124 123
3 123 126 201
3 198 123 201
3 66 65 192
3 66 192 102
3 103 193 64
3 103 64 67
3 82 181 139
3 82 139 83
3 170 191 78
3 170 78 77
3 75 174 169
3 75 169 76
3 197 196 195
3 194 177 111
3 197 195 194
3 116 148 197
3 115 116 197
3 197 194 111
3 197 111 114
3 112 115 197
3 197 114 113
3 113 112 197
3 84 140 141
3 84 141 85
3 137 176 161
3 137 161 134
3 102 192 146
3 102 146 101
3 108 182 138
3 108 138 109
3 191 190 79
3 191 79 78
3 202 201 125
3 202 125 128
3 129 154 203
3 203 202 128
3 127 129 203
3 128 127 203
3 104 171 193
3 104 193 103
