ply
format ascii 1.0
comment Created by Blender 3.6.8 - www.blender.org
element vertex 138
property float x
property float y
property float z
element face 272
property list uchar uint vertex_indices
end_header
0.000010 0.001618 0.150000
0.000010 0.001618 0.000000
0.000004 0.001269 0.000000
0.000004 0.001269 0.150000
0.000285 0.002693 0.150000
0.000285 0.002693 0.000000
0.000180 0.002460 0.000000
0.000180 0.002460 0.150000
0.000194 0.000615 0.000000
0.000522 0.000228 0.000000
0.000522 0.000228 0.150000
0.000194 0.000615 0.150000
0.000725 0.000079 0.150000
0.000725 0.000079 0.000000
0.000809 0.000045 0.000000
0.000809 0.000045 0.150000
0.004523 0.000524 0.000000
0.005812 0.000861 0.000000
0.005812 0.000861 0.150000
0.004523 0.000524 0.150000
0.006212 0.003780 0.150000
0.005610 0.004291 0.150000
0.005444 0.004404 0.150000
0.005254 0.004501 0.150000
0.005025 0.004579 0.150000
0.004875 0.004607 0.150000
0.004469 0.004634 0.150000
0.004231 0.004635 0.150000
0.003985 0.004630 0.150000
0.003739 0.004620 0.150000
0.003504 0.004608 0.150000
0.003290 0.004595 0.150000
0.003105 0.004582 0.150000
0.002962 0.004570 0.150000
0.002868 0.004562 0.150000
0.002835 0.004559 0.150000
0.001768 0.003955 0.150000
0.001477 0.003773 0.150000
0.001188 0.003576 0.150000
0.000663 0.003149 0.150000
0.000450 0.002923 0.150000
0.000068 0.002016 0.150000
0.000019 0.001113 0.150000
0.000046 0.000969 0.150000
0.000084 0.000838 0.150000
0.000134 0.000720 0.150000
0.000585 0.000171 0.150000
0.000651 0.000121 0.150000
0.000905 0.000021 0.150000
0.001017 0.000005 0.150000
0.001295 0.000005 0.150000
0.001619 0.000041 0.150000
0.001780 0.000068 0.150000
0.001939 0.000099 0.150000
0.002094 0.000133 0.150000
0.002243 0.000167 0.150000
0.002384 0.000200 0.150000
0.002516 0.000231 0.150000
0.006304 0.003685 0.150000
0.006621 0.003222 0.150000
0.006473 0.003470 0.150000
0.006965 0.002328 0.150000
0.006752 0.002946 0.150000
0.007023 0.002038 0.150000
0.007003 0.002174 0.150000
0.007018 0.001810 0.150000
0.007027 0.001917 0.150000
0.006965 0.001625 0.150000
0.006997 0.001713 0.150000
0.006591 0.001072 0.150000
0.006924 0.001543 0.150000
0.006465 0.000970 0.150000
0.006529 0.001013 0.150000
0.006327 0.000919 0.150000
0.006398 0.000939 0.150000
0.002991 0.000301 0.150000
0.002837 0.000293 0.150000
0.002636 0.000258 0.150000
0.002744 0.000279 0.150000
0.000585 0.000171 0.000000
0.007018 0.001810 0.000000
0.007027 0.001917 0.000000
0.002991 0.000301 0.000000
0.002837 0.000293 0.000000
0.006591 0.001072 0.000000
0.006924 0.001543 0.000000
0.006304 0.003685 0.000000
0.006212 0.003780 0.000000
0.004875 0.004607 0.000000
0.004469 0.004634 0.000000
0.006398 0.000939 0.000000
0.006465 0.000970 0.000000
0.002868 0.004562 0.000000
0.002835 0.004559 0.000000
0.002962 0.004570 0.000000
0.003105 0.004582 0.000000
0.003290 0.004595 0.000000
0.003504 0.004608 0.000000
0.003739 0.004620 0.000000
0.003985 0.004630 0.000000
0.004231 0.004635 0.000000
0.000905 0.000021 0.000000
0.001017 0.000005 0.000000
0.006327 0.000919 0.000000
0.000134 0.000720 0.000000
0.000084 0.000838 0.000000
0.005444 0.004404 0.000000
0.005610 0.004291 0.000000
0.006529 0.001013 0.000000
0.000450 0.002923 0.000000
0.006752 0.002946 0.000000
0.006621 0.003222 0.000000
0.000651 0.000121 0.000000
0.000019 0.001113 0.000000
0.005025 0.004579 0.000000
0.005254 0.004501 0.000000
0.006473 0.003470 0.000000
0.006965 0.002328 0.000000
0.007003 0.002174 0.000000
0.007023 0.002038 0.000000
0.006997 0.001713 0.000000
0.006965 0.001625 0.000000
0.001768 0.003955 0.000000
0.001188 0.003576 0.000000
0.001477 0.003773 0.000000
0.000663 0.003149 0.000000
0.000068 0.002016 0.000000
0.000046 0.000969 0.000000
0.001295 0.000005 0.000000
0.001780 0.000068 0.000000
0.001619 0.000041 0.000000
0.002094 0.000133 0.000000
0.001939 0.000099 0.000000
0.002384 0.000200 0.000000
0.002243 0.000167 0.000000
0.002516 0.000231 0.000000
0.002744 0.000279 0.000000
0.002636 0.000258 0.000000
3 0 1 2
3 0 2 3
3 4 5 6
3 4 6 7
3 8 9 10
3 8 10 11
3 12 13 14
3 12 14 15
3 16 17 18
3 16 18 19
3 20 21 22
3 22 23 24
3 24 25 26
3 26 27 28
3 28 29 30
3 30 31 32
3 32 33 34
3 34 35 36
3 36 37 38
3 38 39 40
3 40 4 7
3 7 41 0
3 0 3 42
3 42 43 44
3 44 45 11
3 11 10 46
3 46 47 12
3 12 15 48
3 48 49 50
3 50 51 52
3 52 53 54
3 54 55 56
3 54 56 57
3 50 52 54
3 12 48 50
3 11 46 12
3 42 44 11
3 7 0 42
3 38 40 7
3 34 36 38
3 30 32 34
3 26 28 30
3 22 24 26
3 58 20 22
3 59 60 58
3 61 62 59
3 63 64 61
3 65 66 63
3 67 68 65
3 69 70 67
3 71 72 69
3 73 74 71
3 75 19 18
3 18 73 71
3 71 69 67
3 67 65 63
3 63 61 59
3 59 58 22
3 22 26 30
3 30 34 38
3 38 7 42
3 42 11 12
3 12 50 54
3 12 54 57
3 38 42 12
3 22 30 38
3 63 59 22
3 71 67 63
3 76 75 18
3 18 71 63
3 63 22 38
3 38 12 57
3 38 57 77
3 18 63 38
3 78 76 18
3 38 77 78
3 38 78 18
3 10 9 79
3 10 79 46
3 65 80 81
3 65 81 66
3 82 75 76
3 82 76 83
3 84 85 70
3 84 70 69
3 75 82 16
3 75 16 19
3 58 86 87
3 58 87 20
3 88 89 26
3 88 26 25
3 74 90 91
3 74 91 71
3 92 93 35
3 92 35 34
3 94 92 34
3 94 34 33
3 95 94 33
3 95 33 32
3 96 95 32
3 96 32 31
3 97 96 31
3 97 31 30
3 98 97 30
3 98 30 29
3 99 98 29
3 99 29 28
3 26 89 100
3 100 99 28
3 27 26 100
3 100 28 27
3 48 101 102
3 48 102 49
3 73 103 90
3 73 90 74
3 45 104 8
3 45 8 11
3 44 105 104
3 44 104 45
3 106 22 21
3 106 21 107
3 72 108 84
3 72 84 69
3 40 109 5
3 40 5 4
3 110 111 59
3 110 59 62
3 47 112 13
3 47 13 12
3 3 2 113
3 3 113 42
3 97 98 99
3 99 100 89
3 89 88 114
3 114 115 106
3 106 107 87
3 87 86 116
3 116 111 110
3 110 117 118
3 118 119 81
3 81 80 120
3 120 121 85
3 85 84 108
3 108 91 90
3 90 103 17
3 17 16 82
3 17 82 83
3 108 90 17
3 120 85 108
3 118 81 120
3 116 110 118
3 106 87 116
3 89 114 106
3 97 99 89
3 95 96 97
3 92 94 95
3 122 93 92
3 123 124 122
3 109 125 123
3 6 5 109
3 1 126 6
3 113 2 1
3 105 127 113
3 8 104 105
3 79 9 8
3 13 112 79
3 101 14 13
3 128 102 101
3 129 130 128
3 131 132 129
3 133 134 131
3 135 133 131
3 131 129 128
3 128 101 13
3 13 79 8
3 8 105 113
3 113 1 6
3 6 109 123
3 123 122 92
3 92 95 97
3 97 89 106
3 106 116 118
3 118 120 108
3 108 17 83
3 108 83 136
3 106 118 108
3 92 97 106
3 6 123 92
3 8 113 6
3 128 13 8
3 135 131 128
3 137 135 128
3 128 8 6
3 6 92 106
3 106 108 136
3 136 137 128
3 128 6 106
3 106 136 128
3 41 126 1
3 41 1 0
3 87 107 21
3 87 21 20
3 17 103 73
3 17 73 18
3 128 130 51
3 128 51 50
3 63 119 118
3 63 118 64
3 71 91 108
3 71 108 72
3 116 86 58
3 116 58 60
3 117 110 62
3 117 62 61
3 49 102 128
3 49 128 50
3 6 126 41
3 6 41 7
3 134 133 135
3 135 137 136
3 136 83 76
3 136 76 78
3 134 135 136
3 131 134 136
3 136 78 77
3 136 77 57
3 131 136 57
3 131 57 56
3 132 131 56
3 132 56 55
3 51 130 129
3 129 132 55
3 129 55 54
3 52 51 129
3 129 54 53
3 53 52 129
3 68 120 80
3 68 80 65
3 70 85 121
3 70 121 67
3 124 123 38
3 124 38 37
3 35 93 122
3 122 124 37
3 36 35 122
3 122 37 36
3 23 115 114
3 23 114 24
3 46 79 112
3 46 112 47
3 116 60 59
3 116 59 111
3 38 123 125
3 38 125 39
3 42 113 127
3 42 127 43
3 43 127 105
3 43 105 44
3 67 121 120
3 67 120 68
3 24 114 88
3 24 88 25
3 15 14 101
3 15 101 48
3 39 125 109
3 39 109 40
3 64 118 117
3 64 117 61
3 106 115 23
3 106 23 22
3 66 81 119
3 66 119 63
