ply
format ascii 1.0
comment Created by Blender 3.6.8 - www.blender.org
element vertex 148
property float x
property float y
property float z
element face 292
property list uchar uint vertex_indices
end_header
0.007178 0.002798 0.150000
0.007178 0.002798 0.000000
0.007137 0.003191 0.000000
0.007137 0.003191 0.150000
0.001472 0.006908 0.000000
0.001579 0.006907 0.000000
0.001686 0.006903 0.000000
0.001791 0.006894 0.000000
0.001889 0.006880 0.000000
0.001977 0.006859 0.000000
0.004354 0.005836 0.000000
0.004821 0.005583 0.000000
0.005798 0.004938 0.000000
0.006242 0.004580 0.000000
0.006612 0.004222 0.000000
0.006758 0.004049 0.000000
0.006877 0.003880 0.000000
0.006971 0.003713 0.000000
0.007045 0.003544 0.000000
0.007099 0.003371 0.000000
0.007202 0.001208 0.000000
0.007186 0.000992 0.000000
0.007153 0.000834 0.000000
0.007102 0.000724 0.000000
0.007034 0.000650 0.000000
0.006949 0.000603 0.000000
0.006426 0.000464 0.000000
0.006250 0.000389 0.000000
0.005833 0.000158 0.000000
0.005579 0.000076 0.000000
0.005299 0.000025 0.000000
0.001278 0.006902 0.000000
0.001370 0.006906 0.000000
0.001084 0.006889 0.000000
0.001138 0.006894 0.000000
0.000460 0.006498 0.000000
0.000486 0.006582 0.000000
0.000400 0.006105 0.000000
0.000432 0.006334 0.000000
0.000140 0.003471 0.000000
0.004998 0.000002 0.000000
0.004355 0.000026 0.000000
0.003696 0.000118 0.000000
0.002277 0.000469 0.000000
0.001989 0.000577 0.000000
0.001908 0.000622 0.000000
0.001857 0.000664 0.000000
0.001829 0.000706 0.000000
0.001814 0.000750 0.000000
0.001788 0.000854 0.000000
0.001760 0.000918 0.000000
0.000018 0.002781 0.000000
0.000035 0.002892 0.000000
0.000122 0.003358 0.000000
0.001711 0.000994 0.000000
0.001632 0.001084 0.000000
0.000000 0.002582 0.000000
0.000006 0.002678 0.000000
0.000016 0.002424 0.000000
0.000003 0.002497 0.000000
0.000112 0.002263 0.000000
0.000041 0.002365 0.000000
0.000442 0.001960 0.000000
0.000203 0.002162 0.000000
0.000590 0.001856 0.000000
0.000513 0.001909 0.000000
0.000756 0.001747 0.000000
0.000671 0.001802 0.000000
0.000916 0.001647 0.000000
0.000840 0.001694 0.000000
0.000987 0.001604 0.000000
0.001310 0.001380 0.000000
0.001053 0.001563 0.000000
0.001244 0.001432 0.000000
0.001180 0.001478 0.000000
0.001117 0.001521 0.000000
0.001908 0.000622 0.150000
0.001989 0.000577 0.150000
0.001977 0.006859 0.150000
0.001889 0.006880 0.150000
0.001472 0.006908 0.150000
0.001579 0.006907 0.150000
0.001791 0.006894 0.150000
0.001686 0.006903 0.150000
0.006250 0.000389 0.150000
0.006426 0.000464 0.150000
0.007186 0.000992 0.150000
0.007202 0.001208 0.150000
0.004998 0.000002 0.150000
0.005299 0.000025 0.150000
0.006949 0.000603 0.150000
0.007034 0.000650 0.150000
0.001829 0.000706 0.150000
0.001857 0.000664 0.150000
0.000112 0.002263 0.150000
0.000203 0.002162 0.150000
0.006612 0.004222 0.150000
0.006242 0.004580 0.150000
0.001370 0.006906 0.150000
0.001278 0.006902 0.150000
0.001138 0.006894 0.150000
0.001084 0.006889 0.150000
0.000486 0.006582 0.150000
0.000460 0.006498 0.150000
0.000432 0.006334 0.150000
0.000400 0.006105 0.150000
0.000140 0.003471 0.150000
0.000122 0.003358 0.150000
0.000035 0.002892 0.150000
0.000018 0.002781 0.150000
0.000006 0.002678 0.150000
0.000000 0.002582 0.150000
0.004354 0.005836 0.150000
0.005798 0.004938 0.150000
0.004821 0.005583 0.150000
0.006877 0.003880 0.150000
0.006758 0.004049 0.150000
0.007045 0.003544 0.150000
0.006971 0.003713 0.150000
0.007099 0.003371 0.150000
0.007153 0.000834 0.150000
0.007102 0.000724 0.150000
0.005579 0.000076 0.150000
0.005833 0.000158 0.150000
0.000003 0.002497 0.150000
0.000016 0.002424 0.150000
0.000041 0.002365 0.150000
0.000442 0.001960 0.150000
0.000513 0.001909 0.150000
0.000590 0.001856 0.150000
0.000671 0.001802 0.150000
0.000756 0.001747 0.150000
0.000840 0.001694 0.150000
0.000916 0.001647 0.150000
0.000987 0.001604 0.150000
0.003696 0.000118 0.150000
0.004355 0.000026 0.150000
0.002277 0.000469 0.150000
0.001814 0.000750 0.150000
0.001788 0.000854 0.150000
0.001053 0.001563 0.150000
0.001760 0.000918 0.150000
0.001711 0.000994 0.150000
0.001117 0.001521 0.150000
0.001180 0.001478 0.150000
0.001632 0.001084 0.150000
0.001310 0.001380 0.150000
0.001244 0.001432 0.150000
3 0 1 2
3 0 2 3
3 4 5 6
3 6 7 8
3 8 9 10
3 10 11 12
3 12 13 14
3 14 15 16
3 16 17 18
3 18 19 2
3 2 1 20
3 20 21 22
3 22 23 24
3 24 25 26
3 27 28 29
3 22 24 26
3 27 29 30
3 22 26 27
3 2 20 22
3 16 18 2
3 12 14 16
3 8 10 12
3 4 6 8
3 31 32 4
3 33 34 31
3 35 36 33
3 37 38 35
3 39 37 35
3 35 33 31
3 31 4 8
3 8 12 16
3 16 2 22
3 22 27 30
3 30 40 41
3 41 42 43
3 43 44 45
3 45 46 47
3 47 48 49
3 45 47 49
3 41 43 45
3 22 30 41
3 8 16 22
3 35 31 8
3 39 35 8
3 8 22 41
3 41 45 49
3 41 49 50
3 39 8 41
3 51 52 53
3 53 39 41
3 41 50 54
3 41 54 55
3 51 53 41
3 56 57 51
3 58 59 56
3 60 61 58
3 62 63 60
3 64 65 62
3 66 67 64
3 68 69 66
3 70 68 66
3 66 64 62
3 62 60 58
3 58 56 51
3 51 41 55
3 51 55 71
3 62 58 51
3 70 66 62
3 72 70 62
3 51 71 73
3 51 73 74
3 72 62 51
3 51 74 75
3 75 72 51
3 76 45 44
3 76 44 77
3 78 9 8
3 78 8 79
3 5 4 80
3 5 80 81
3 82 7 6
3 6 5 81
3 83 82 6
3 81 83 6
3 84 27 26
3 84 26 85
3 86 21 20
3 86 20 87
3 79 8 7
3 79 7 82
3 88 40 30
3 88 30 89
3 90 25 24
3 90 24 91
3 92 47 46
3 92 46 93
3 94 60 63
3 94 63 95
3 96 14 13
3 96 13 97
3 82 83 81
3 81 80 98
3 98 99 100
3 100 101 102
3 102 103 104
3 104 105 106
3 107 108 109
3 102 104 106
3 107 109 110
3 100 102 106
3 107 110 111
3 100 106 107
3 81 98 100
3 79 82 81
3 112 78 79
3 113 114 112
3 96 97 113
3 115 116 96
3 117 118 115
3 3 119 117
3 87 0 3
3 120 86 87
3 91 121 120
3 85 90 91
3 122 123 84
3 85 91 120
3 89 122 84
3 84 85 120
3 120 87 3
3 3 117 115
3 115 96 113
3 113 112 79
3 79 81 100
3 100 107 111
3 111 124 125
3 125 126 94
3 94 95 127
3 127 128 129
3 129 130 131
3 131 132 133
3 131 133 134
3 127 129 131
3 125 94 127
3 100 111 125
3 113 79 100
3 3 115 113
3 84 120 3
3 88 89 84
3 135 136 88
3 77 137 135
3 93 76 77
3 138 92 93
3 139 138 93
3 93 77 135
3 135 88 84
3 84 3 113
3 113 100 125
3 125 127 131
3 125 131 134
3 84 113 125
3 93 135 84
3 139 93 84
3 84 125 134
3 84 134 140
3 141 139 84
3 142 141 84
3 84 140 143
3 84 143 144
3 145 142 84
3 146 145 84
3 84 144 147
3 147 146 84
3 118 17 16
3 118 16 115
3 115 16 15
3 115 15 116
3 141 50 49
3 141 49 139
3 102 36 35
3 102 35 103
3 116 15 14
3 116 14 96
3 3 2 19
3 3 19 119
3 71 55 145
3 71 145 146
3 1 0 87
3 1 87 20
3 43 42 135
3 43 135 137
3 28 27 84
3 28 84 123
3 89 30 29
3 89 29 122
3 13 12 113
3 13 113 97
3 124 59 58
3 124 58 125
3 114 11 10
3 114 10 112
3 121 23 22
3 121 22 120
3 42 41 136
3 42 136 135
3 41 40 88
3 41 88 136
3 48 138 139
3 48 139 49
3 44 43 137
3 44 137 77
3 57 56 111
3 57 111 110
3 51 57 110
3 51 110 109
3 52 51 109
3 52 109 108
3 53 52 108
3 53 108 107
3 39 53 107
3 39 107 106
3 37 39 106
3 37 106 105
3 103 35 38
3 38 37 105
3 104 103 38
3 105 104 38
3 145 55 54
3 145 54 142
3 34 33 101
3 34 101 100
3 31 34 100
3 31 100 99
3 80 4 32
3 32 31 99
3 98 80 32
3 99 98 32
3 125 58 61
3 125 61 126
3 101 33 36
3 101 36 102
3 26 25 90
3 26 90 85
3 138 48 47
3 138 47 92
3 113 12 11
3 113 11 114
3 68 70 72
3 72 75 74
3 74 73 71
3 71 146 147
3 71 147 144
3 72 74 71
3 69 68 72
3 69 72 71
3 71 144 143
3 71 143 140
3 66 69 71
3 67 66 71
3 71 140 134
3 71 134 133
3 67 71 133
3 67 133 132
3 64 67 132
3 64 132 131
3 127 62 65
3 65 64 131
3 65 131 130
3 128 127 65
3 65 130 129
3 65 129 128
3 119 19 18
3 119 18 117
3 117 18 17
3 117 17 118
3 10 9 78
3 10 78 112
3 93 46 45
3 93 45 76
3 63 62 127
3 63 127 95
3 91 24 23
3 91 23 121
3 120 22 21
3 120 21 86
3 122 29 28
3 122 28 123
3 142 54 50
3 142 50 141
3 126 61 60
3 126 60 94
3 111 56 59
3 111 59 124
