ply
format ascii 1.0
comment Created by Blender 3.6.8 - www.blender.org
element vertex 246
property float x
property float y
property float z
element face 473
property list uchar uint vertex_indices
end_header
0.014656 0.004546 0.150000
0.014656 0.004546 0.000000
0.014650 0.004667 0.000000
0.014650 0.004667 0.150000
0.003592 0.008363 0.000000
0.003244 0.008299 0.000000
0.003244 0.008299 0.150000
0.003592 0.008363 0.150000
0.002752 0.003056 0.000000
0.003042 0.002730 0.000000
0.003042 0.002730 0.150000
0.002752 0.003056 0.150000
0.008823 0.000080 0.150000
0.008823 0.000080 0.000000
0.008954 0.000119 0.000000
0.008954 0.000119 0.150000
0.003882 0.008368 0.000000
0.004149 0.008328 0.000000
0.004284 0.008295 0.000000
0.004746 0.008165 0.000000
0.003742 0.008372 0.000000
0.001600 0.007766 0.000000
0.001225 0.007532 0.000000
0.001424 0.007680 0.000000
0.000935 0.007280 0.000000
0.001088 0.007415 0.000000
0.000611 0.006984 0.000000
0.000773 0.007134 0.000000
0.000309 0.006700 0.000000
0.000453 0.006837 0.000000
0.000087 0.006488 0.000000
0.000184 0.006581 0.000000
0.000000 0.006404 0.000000
0.000023 0.006426 0.000000
0.000293 0.006095 0.000000
0.004932 0.008116 0.000000
0.005565 0.007970 0.000000
0.005946 0.007875 0.000000
0.000710 0.005651 0.000000
0.006289 0.007781 0.000000
0.006596 0.007691 0.000000
0.007234 0.007487 0.000000
0.001187 0.005135 0.000000
0.007354 0.007451 0.000000
0.007477 0.007416 0.000000
0.001416 0.004882 0.000000
0.001623 0.004648 0.000000
0.001794 0.004446 0.000000
0.007602 0.007383 0.000000
0.001918 0.004290 0.000000
0.007729 0.007351 0.000000
0.002081 0.004004 0.000000
0.002021 0.004111 0.000000
0.001981 0.004191 0.000000
0.007857 0.007322 0.000000
0.002160 0.003875 0.000000
0.002364 0.003569 0.000000
0.002255 0.003729 0.000000
0.002614 0.003228 0.000000
0.002484 0.003401 0.000000
0.003745 0.002141 0.000000
0.003337 0.002458 0.000000
0.005700 0.000752 0.000000
0.005011 0.001219 0.000000
0.006567 0.000241 0.000000
0.006021 0.000548 0.000000
0.006955 0.000104 0.000000
0.006770 0.000156 0.000000
0.007602 0.000012 0.000000
0.007377 0.000032 0.000000
0.008056 0.000001 0.000000
0.007830 0.000002 0.000000
0.008662 0.000049 0.000000
0.008273 0.000008 0.000000
0.009133 0.000212 0.000000
0.009051 0.000164 0.000000
0.007985 0.007293 0.000000
0.009225 0.000260 0.000000
0.008114 0.007267 0.000000
0.008372 0.007218 0.000000
0.009326 0.000308 0.000000
0.008626 0.007177 0.000000
0.008928 0.007153 0.000000
0.009434 0.000359 0.000000
0.009670 0.000469 0.000000
0.009549 0.000412 0.000000
0.009925 0.000599 0.000000
0.009796 0.000532 0.000000
0.010193 0.000757 0.000000
0.010058 0.000674 0.000000
0.010464 0.000950 0.000000
0.010328 0.000848 0.000000
0.011353 0.001665 0.000000
0.009110 0.007151 0.000000
0.009508 0.007161 0.000000
0.010853 0.007260 0.000000
0.010985 0.007259 0.000000
0.011634 0.001887 0.000000
0.011129 0.007252 0.000000
0.011280 0.007241 0.000000
0.011433 0.007227 0.000000
0.011581 0.007210 0.000000
0.011722 0.007193 0.000000
0.011848 0.007177 0.000000
0.012038 0.007149 0.000000
0.012111 0.007138 0.000000
0.012435 0.007005 0.000000
0.012756 0.006863 0.000000
0.013110 0.006691 0.000000
0.013580 0.006415 0.000000
0.013692 0.006326 0.000000
0.013866 0.006153 0.000000
0.014072 0.005880 0.000000
0.014133 0.005779 0.000000
0.014193 0.005671 0.000000
0.014255 0.005554 0.000000
0.014319 0.005427 0.000000
0.014545 0.004969 0.000000
0.014614 0.004807 0.000000
0.014635 0.004439 0.000000
0.014592 0.004344 0.000000
0.014530 0.004257 0.000000
0.014061 0.003808 0.000000
0.013859 0.003567 0.000000
0.013619 0.003333 0.000000
0.011955 0.002131 0.000000
0.013483 0.003220 0.000000
0.013338 0.003108 0.000000
0.013185 0.002996 0.000000
0.012322 0.002399 0.000000
0.012136 0.002265 0.000000
0.014530 0.004257 0.150000
0.014061 0.003808 0.150000
0.002614 0.003228 0.150000
0.002364 0.003569 0.150000
0.002255 0.003729 0.150000
0.002484 0.003401 0.150000
0.013692 0.006326 0.150000
0.013866 0.006153 0.150000
0.006567 0.000241 0.150000
0.006021 0.000548 0.150000
0.003742 0.008372 0.150000
0.003337 0.002458 0.150000
0.008626 0.007177 0.150000
0.008928 0.007153 0.150000
0.006955 0.000104 0.150000
0.007377 0.000032 0.150000
0.012111 0.007138 0.150000
0.012435 0.007005 0.150000
0.013110 0.006691 0.150000
0.012756 0.006863 0.150000
0.006770 0.000156 0.150000
0.001981 0.004191 0.150000
0.002021 0.004111 0.150000
0.010058 0.000674 0.150000
0.009925 0.000599 0.150000
0.009796 0.000532 0.150000
0.009670 0.000469 0.150000
0.009549 0.000412 0.150000
0.009051 0.000164 0.150000
0.009133 0.000212 0.150000
0.009434 0.000359 0.150000
0.009326 0.000308 0.150000
0.009225 0.000260 0.150000
0.014635 0.004439 0.150000
0.001424 0.007680 0.150000
0.001600 0.007766 0.150000
0.000000 0.006404 0.150000
0.000023 0.006426 0.150000
0.000087 0.006488 0.150000
0.001225 0.007532 0.150000
0.001088 0.007415 0.150000
0.000184 0.006581 0.150000
0.000309 0.006700 0.150000
0.000935 0.007280 0.150000
0.000453 0.006837 0.150000
0.000611 0.006984 0.150000
0.000773 0.007134 0.150000
0.008662 0.000049 0.150000
0.014072 0.005880 0.150000
0.014133 0.005779 0.150000
0.014193 0.005671 0.150000
0.014255 0.005554 0.150000
0.014319 0.005427 0.150000
0.014614 0.004807 0.150000
0.014545 0.004969 0.150000
0.003882 0.008368 0.150000
0.004149 0.008328 0.150000
0.001918 0.004290 0.150000
0.008273 0.000008 0.150000
0.014592 0.004344 0.150000
0.013580 0.006415 0.150000
0.012038 0.007149 0.150000
0.011848 0.007177 0.150000
0.011722 0.007193 0.150000
0.011581 0.007210 0.150000
0.011433 0.007227 0.150000
0.011280 0.007241 0.150000
0.011129 0.007252 0.150000
0.010985 0.007259 0.150000
0.010853 0.007260 0.150000
0.009508 0.007161 0.150000
0.013619 0.003333 0.150000
0.013859 0.003567 0.150000
0.009110 0.007151 0.150000
0.013338 0.003108 0.150000
0.013483 0.003220 0.150000
0.012322 0.002399 0.150000
0.013185 0.002996 0.150000
0.012136 0.002265 0.150000
0.011955 0.002131 0.150000
0.008372 0.007218 0.150000
0.011634 0.001887 0.150000
0.008114 0.007267 0.150000
0.010328 0.000848 0.150000
0.010464 0.000950 0.150000
0.011353 0.001665 0.150000
0.007985 0.007293 0.150000
0.010193 0.000757 0.150000
0.007857 0.007322 0.150000
0.007729 0.007351 0.150000
0.007602 0.007383 0.150000
0.007477 0.007416 0.150000
0.007354 0.007451 0.150000
0.007830 0.000002 0.150000
0.008056 0.000001 0.150000
0.007602 0.000012 0.150000
0.005011 0.001219 0.150000
0.005700 0.000752 0.150000
0.003745 0.002141 0.150000
0.002081 0.004004 0.150000
0.002160 0.003875 0.150000
0.007234 0.007487 0.150000
0.006596 0.007691 0.150000
0.006289 0.007781 0.150000
0.005946 0.007875 0.150000
0.005565 0.007970 0.150000
0.004932 0.008116 0.150000
0.001794 0.004446 0.150000
0.004746 0.008165 0.150000
0.004284 0.008295 0.150000
0.001623 0.004648 0.150000
0.000293 0.006095 0.150000
0.001416 0.004882 0.150000
0.001187 0.005135 0.150000
0.000710 0.005651 0.150000
3 0 1 2
3 0 2 3
3 4 5 6
3 4 6 7
3 8 9 10
3 8 10 11
3 12 13 14
3 12 14 15
3 16 17 18
3 16 18 19
3 4 20 16
3 21 5 4
3 22 23 21
3 24 25 22
3 26 27 24
3 28 29 26
3 30 31 28
3 32 33 30
3 34 32 30
3 30 28 26
3 26 24 22
3 22 21 4
3 4 16 19
3 35 36 37
3 4 19 35
3 26 22 4
3 34 30 26
3 38 34 26
3 26 4 35
3 35 37 39
3 39 40 41
3 35 39 41
3 38 26 35
3 42 38 35
3 35 41 43
3 35 43 44
3 45 42 35
3 46 45 35
3 46 35 44
3 47 46 44
3 47 44 48
3 49 47 48
3 49 48 50
3 51 52 53
3 53 49 50
3 53 50 54
3 55 51 53
3 56 57 55
3 58 59 56
3 9 8 58
3 60 61 9
3 62 63 60
3 64 65 62
3 66 67 64
3 68 69 66
3 70 71 68
3 72 73 70
3 14 13 72
3 74 75 14
3 74 14 72
3 72 70 68
3 68 66 64
3 64 62 60
3 60 9 58
3 58 56 55
3 55 53 54
3 55 54 76
3 60 58 55
3 68 64 60
3 74 72 68
3 77 74 68
3 68 60 55
3 55 76 78
3 55 78 79
3 77 68 55
3 80 77 55
3 55 79 81
3 55 81 82
3 83 80 55
3 84 85 83
3 86 87 84
3 88 89 86
3 90 91 88
3 92 90 88
3 88 86 84
3 84 83 55
3 55 82 93
3 94 95 96
3 55 93 94
3 88 84 55
3 97 92 88
3 97 88 55
3 55 94 96
3 96 98 99
3 99 100 101
3 101 102 103
3 103 104 105
3 105 106 107
3 107 108 109
3 109 110 111
3 111 112 113
3 113 114 115
3 115 116 117
3 117 118 2
3 2 1 119
3 119 120 121
3 122 123 124
3 119 121 122
3 117 2 119
3 113 115 117
3 109 111 113
3 105 107 109
3 101 103 105
3 96 99 101
3 97 55 96
3 125 97 96
3 96 101 105
3 105 109 113
3 113 117 119
3 119 122 124
3 124 126 127
3 127 128 129
3 130 125 96
3 124 127 129
3 129 130 96
3 96 105 113
3 113 119 124
3 124 129 96
3 96 113 124
3 122 121 131
3 122 131 132
3 58 8 11
3 58 11 133
3 57 56 58
3 134 135 57
3 58 133 136
3 136 134 57
3 58 136 57
3 111 110 137
3 111 137 138
3 65 64 139
3 65 139 140
3 141 20 4
3 141 4 7
3 10 9 61
3 10 61 142
3 82 81 143
3 82 143 144
3 145 66 69
3 145 69 146
3 106 105 147
3 106 147 148
3 149 108 107
3 107 106 148
3 150 149 107
3 148 150 107
3 151 67 66
3 151 66 145
3 152 53 52
3 152 52 153
3 86 89 154
3 86 154 155
3 83 84 86
3 80 83 86
3 86 155 156
3 86 156 157
3 77 80 86
3 77 86 157
3 15 14 74
3 74 77 157
3 74 157 158
3 159 15 74
3 160 159 74
3 74 158 161
3 74 161 162
3 163 160 74
3 162 163 74
3 164 119 1
3 164 1 0
3 21 23 165
3 21 165 166
3 32 167 168
3 32 168 169
3 28 30 32
3 24 26 28
3 170 22 24
3 171 170 24
3 24 28 32
3 32 169 172
3 32 172 173
3 171 24 32
3 174 171 32
3 32 173 175
3 32 175 176
3 177 174 32
3 32 176 177
3 178 72 13
3 178 13 12
3 113 112 179
3 113 179 180
3 114 113 180
3 114 180 181
3 115 114 181
3 115 181 182
3 116 115 182
3 116 182 183
3 184 118 117
3 117 116 183
3 185 184 117
3 117 183 185
3 17 16 186
3 17 186 187
3 188 49 53
3 188 53 152
3 111 138 179
3 111 179 112
3 189 73 72
3 189 72 178
3 132 131 190
3 190 164 0
3 0 3 184
3 184 185 183
3 183 182 181
3 181 180 179
3 179 138 137
3 137 191 149
3 149 150 148
3 148 147 192
3 192 193 194
3 194 195 196
3 196 197 198
3 198 199 200
3 198 200 201
3 194 196 198
3 148 192 194
3 137 149 148
3 181 179 137
3 184 183 181
3 190 0 184
3 202 203 132
3 132 190 184
3 184 181 137
3 137 148 194
3 194 198 201
3 194 201 204
3 184 137 194
3 202 132 184
3 205 206 202
3 207 208 205
3 207 205 202
3 202 184 194
3 202 194 204
3 207 202 204
3 207 204 144
3 209 207 144
3 209 144 143
3 210 209 143
3 210 143 211
3 212 210 211
3 212 211 213
3 214 215 216
3 216 212 213
3 216 213 217
3 218 214 216
3 155 154 218
3 157 156 155
3 161 158 157
3 162 161 157
3 157 155 218
3 218 216 217
3 218 217 219
3 162 157 218
3 163 162 218
3 218 219 220
3 218 220 221
3 163 218 221
3 163 221 222
3 15 159 160
3 160 163 222
3 160 222 223
3 12 15 160
3 189 178 12
3 224 225 189
3 146 226 224
3 151 145 146
3 140 139 151
3 227 228 140
3 142 229 227
3 11 10 142
3 136 133 11
3 135 134 136
3 230 231 135
3 152 153 230
3 152 230 135
3 135 136 11
3 11 142 227
3 227 140 151
3 151 146 224
3 224 189 12
3 12 160 223
3 232 233 234
3 12 223 232
3 151 224 12
3 11 227 151
3 152 135 11
3 188 152 11
3 11 151 12
3 12 232 234
3 234 235 236
3 234 236 237
3 11 12 234
3 188 11 234
3 188 234 237
3 238 188 237
3 239 240 187
3 238 237 239
3 241 238 239
3 239 187 186
3 186 141 7
3 7 6 166
3 166 165 170
3 170 171 174
3 174 177 176
3 176 175 173
3 173 172 169
3 169 168 167
3 169 167 242
3 176 173 169
3 170 174 176
3 7 166 170
3 239 186 7
3 243 241 239
3 244 243 239
3 239 7 170
3 170 176 169
3 169 242 245
3 245 244 239
3 239 170 169
3 239 169 245
3 93 82 144
3 93 144 204
3 200 95 94
3 94 93 204
3 201 200 94
3 94 204 201
3 131 121 120
3 131 120 190
3 139 64 67
3 139 67 151
3 55 57 135
3 55 135 231
3 153 52 51
3 51 55 231
3 230 153 51
3 231 230 51
3 47 49 188
3 47 188 238
3 46 47 238
3 46 238 241
3 45 46 241
3 45 241 243
3 42 45 243
3 42 243 244
3 38 42 244
3 38 244 245
3 167 32 34
3 34 38 245
3 242 167 34
3 245 242 34
3 62 65 140
3 62 140 228
3 63 62 228
3 63 228 227
3 142 61 60
3 60 63 227
3 229 142 60
3 227 229 60
3 5 21 166
3 5 166 6
3 19 18 17
3 17 187 240
3 17 240 239
3 19 17 239
3 19 239 237
3 35 19 237
3 35 237 236
3 35 236 235
3 35 235 234
3 35 234 233
3 35 233 232
3 44 35 232
3 44 232 223
3 48 44 223
3 48 223 222
3 50 48 222
3 50 222 221
3 54 50 221
3 54 221 220
3 76 54 220
3 76 220 219
3 78 76 219
3 78 219 217
3 143 81 79
3 79 78 217
3 79 217 213
3 211 143 79
3 213 211 79
3 96 95 200
3 96 200 199
3 98 96 199
3 98 199 198
3 99 98 198
3 99 198 197
3 100 99 197
3 100 197 196
3 101 100 196
3 101 196 195
3 102 101 195
3 102 195 194
3 103 102 194
3 103 194 193
3 147 105 104
3 104 103 193
3 192 147 104
3 193 192 104
3 137 110 109
3 137 109 191
3 203 123 122
3 203 122 132
3 165 23 22
3 165 22 170
3 92 97 125
3 125 130 129
3 125 129 128
3 90 92 125
3 90 125 128
3 90 128 127
3 126 124 202
3 126 202 206
3 127 126 206
3 127 206 205
3 90 127 205
3 90 205 208
3 91 90 208
3 91 208 207
3 154 89 88
3 88 91 207
3 88 207 209
3 218 154 88
3 214 218 88
3 88 209 210
3 88 210 212
3 215 214 88
3 88 212 216
3 216 215 88
3 69 68 71
3 71 70 73
3 73 189 225
3 73 225 224
3 69 71 73
3 226 146 69
3 73 224 226
3 73 226 69
3 186 16 20
3 186 20 141
3 3 2 118
3 3 118 184
3 109 108 149
3 109 149 191
3 190 120 119
3 190 119 164
3 202 124 123
3 202 123 203
