ply
format ascii 1.0
comment Created by Blender 3.6.8 - www.blender.org
element vertex 222
property float x
property float y
property float z
element face 426
property list uchar uint vertex_indices
end_header
0.001610 0.003928 0.150000
0.001610 0.003928 0.000000
0.001527 0.003844 0.000000
0.001527 0.003844 0.150000
0.003134 0.006234 0.000000
0.003011 0.005941 0.000000
0.002953 0.005809 0.000000
0.002900 0.005692 0.000000
0.002900 0.005692 0.150000
0.002953 0.005809 0.150000
0.003182 0.006354 0.000000
0.003252 0.006541 0.000000
0.003221 0.006455 0.000000
0.003221 0.006455 0.150000
0.003252 0.006541 0.150000
0.003182 0.006354 0.150000
0.003011 0.005941 0.150000
0.003134 0.006234 0.150000
0.003609 0.007644 0.000000
0.003521 0.007431 0.000000
0.003521 0.007431 0.150000
0.003609 0.007644 0.150000
0.005764 0.008540 0.000000
0.005667 0.008652 0.000000
0.005667 0.008652 0.150000
0.005764 0.008540 0.150000
0.005861 0.008416 0.000000
0.005861 0.008416 0.150000
0.006261 0.007857 0.150000
0.006261 0.007857 0.000000
0.005960 0.008283 0.000000
0.005960 0.008283 0.150000
0.000698 0.000125 0.150000
0.000698 0.000125 0.000000
0.000799 0.000056 0.000000
0.000799 0.000056 0.150000
0.001869 0.004222 0.000000
0.001869 0.004222 0.150000
0.001997 0.004372 0.000000
0.001997 0.004372 0.150000
0.002127 0.004531 0.000000
0.002127 0.004531 0.150000
0.002264 0.004703 0.000000
0.002264 0.004703 0.150000
0.002480 0.004988 0.000000
0.002480 0.004988 0.150000
0.002602 0.005159 0.150000
0.002602 0.005159 0.000000
0.002543 0.005076 0.000000
0.002543 0.005076 0.150000
0.005390 0.008888 0.150000
0.005390 0.008888 0.000000
0.005301 0.008925 0.000000
0.005301 0.008925 0.150000
0.003650 0.007721 0.150000
0.003650 0.007721 0.000000
0.000610 0.000215 0.150000
0.000610 0.000215 0.000000
0.006098 0.004273 0.150000
0.006157 0.004434 0.150000
0.006255 0.004837 0.150000
0.006293 0.005092 0.150000
0.006353 0.005696 0.150000
0.006385 0.005977 0.150000
0.006445 0.006471 0.150000
0.006469 0.006688 0.150000
0.005958 0.004003 0.150000
0.005792 0.003764 0.150000
0.005878 0.003883 0.150000
0.005389 0.003216 0.150000
0.005494 0.003360 0.150000
0.005599 0.003508 0.150000
0.006484 0.006888 0.150000
0.006481 0.007247 0.150000
0.006456 0.007410 0.150000
0.006413 0.007564 0.150000
0.006349 0.007712 0.150000
0.005573 0.008749 0.150000
0.005480 0.008829 0.150000
0.005215 0.008935 0.150000
0.005132 0.008917 0.150000
0.004762 0.008766 0.150000
0.004662 0.008719 0.150000
0.004562 0.008668 0.150000
0.004368 0.008548 0.150000
0.004190 0.008400 0.150000
0.004110 0.008314 0.150000
0.004039 0.008219 0.150000
0.003976 0.008129 0.150000
0.005193 0.002998 0.150000
0.003919 0.008055 0.150000
0.003731 0.007840 0.150000
0.003690 0.007785 0.150000
0.004604 0.002526 0.150000
0.005099 0.002914 0.150000
0.003473 0.007287 0.150000
0.003429 0.007143 0.150000
0.003393 0.007023 0.150000
0.003364 0.006923 0.150000
0.003340 0.006837 0.150000
0.003319 0.006760 0.150000
0.004489 0.002418 0.150000
0.004364 0.002286 0.150000
0.004228 0.002127 0.150000
0.003968 0.001813 0.150000
0.004093 0.001962 0.150000
0.003740 0.001555 0.150000
0.003851 0.001679 0.150000
0.003526 0.001329 0.150000
0.003633 0.001440 0.150000
0.003307 0.001111 0.150000
0.003418 0.001221 0.150000
0.003061 0.000877 0.150000
0.003188 0.000998 0.150000
0.002619 0.000468 0.150000
0.002772 0.000603 0.150000
0.002923 0.000747 0.150000
0.003299 0.006689 0.150000
0.002226 0.000215 0.150000
0.002349 0.000277 0.150000
0.001993 0.000138 0.150000
0.002108 0.000170 0.150000
0.000914 0.000014 0.150000
0.001047 0.000000 0.150000
0.000532 0.000324 0.150000
0.000396 0.000586 0.150000
0.000462 0.000449 0.150000
0.000068 0.001337 0.150000
0.000131 0.001188 0.150000
0.000203 0.001036 0.150000
0.003277 0.006617 0.150000
0.000027 0.001485 0.150000
0.000000 0.001775 0.150000
0.000005 0.001631 0.150000
0.000198 0.002851 0.150000
0.000027 0.002057 0.150000
0.002850 0.005587 0.150000
0.002802 0.005492 0.150000
0.002754 0.005404 0.150000
0.002705 0.005321 0.150000
0.000462 0.000449 0.000000
0.000532 0.000324 0.000000
0.006481 0.007247 0.000000
0.006456 0.007410 0.000000
0.005215 0.008935 0.000000
0.005132 0.008917 0.000000
0.001993 0.000138 0.000000
0.002108 0.000170 0.000000
0.004368 0.008548 0.000000
0.004190 0.008400 0.000000
0.004110 0.008314 0.000000
0.004039 0.008219 0.000000
0.003976 0.008129 0.000000
0.003919 0.008055 0.000000
0.003731 0.007840 0.000000
0.003690 0.007785 0.000000
0.006484 0.006888 0.000000
0.004662 0.008719 0.000000
0.004562 0.008668 0.000000
0.004762 0.008766 0.000000
0.000000 0.001775 0.000000
0.000005 0.001631 0.000000
0.005494 0.003360 0.000000
0.005599 0.003508 0.000000
0.005792 0.003764 0.000000
0.005878 0.003883 0.000000
0.005958 0.004003 0.000000
0.005389 0.003216 0.000000
0.000027 0.002057 0.000000
0.003473 0.007287 0.000000
0.003429 0.007143 0.000000
0.003393 0.007023 0.000000
0.003364 0.006923 0.000000
0.003340 0.006837 0.000000
0.003319 0.006760 0.000000
0.003299 0.006689 0.000000
0.003277 0.006617 0.000000
0.006349 0.007712 0.000000
0.002923 0.000747 0.000000
0.002772 0.000603 0.000000
0.002619 0.000468 0.000000
0.002349 0.000277 0.000000
0.002226 0.000215 0.000000
0.001047 0.000000 0.000000
0.000914 0.000014 0.000000
0.000396 0.000586 0.000000
0.000203 0.001036 0.000000
0.000131 0.001188 0.000000
0.000068 0.001337 0.000000
0.003188 0.000998 0.000000
0.003061 0.000877 0.000000
0.003418 0.001221 0.000000
0.003307 0.001111 0.000000
0.003633 0.001440 0.000000
0.003526 0.001329 0.000000
0.003851 0.001679 0.000000
0.003740 0.001555 0.000000
0.004093 0.001962 0.000000
0.003968 0.001813 0.000000
0.004228 0.002127 0.000000
0.000027 0.001485 0.000000
0.000198 0.002851 0.000000
0.004364 0.002286 0.000000
0.004489 0.002418 0.000000
0.005193 0.002998 0.000000
0.005099 0.002914 0.000000
0.004604 0.002526 0.000000
0.006098 0.004273 0.000000
0.006255 0.004837 0.000000
0.006157 0.004434 0.000000
0.006353 0.005696 0.000000
0.006293 0.005092 0.000000
0.006469 0.006688 0.000000
0.006445 0.006471 0.000000
0.006385 0.005977 0.000000
0.006413 0.007564 0.000000
0.005573 0.008749 0.000000
0.005480 0.008829 0.000000
0.002705 0.005321 0.000000
0.002754 0.005404 0.000000
0.002802 0.005492 0.000000
0.002850 0.005587 0.000000
3 0 1 2
3 0 2 3
3 4 5 6
3 6 7 8
3 6 8 9
3 10 4 6
3 11 12 10
3 13 14 11
3 15 13 11
3 11 10 6
3 6 9 16
3 17 15 11
3 6 16 17
3 6 17 11
3 18 19 20
3 18 20 21
3 22 23 24
3 22 24 25
3 26 22 25
3 26 25 27
3 28 29 30
3 30 26 27
3 31 28 30
3 27 31 30
3 32 33 34
3 32 34 35
3 36 1 0
3 36 0 37
3 38 36 37
3 38 37 39
3 40 38 39
3 40 39 41
3 42 40 41
3 42 41 43
3 44 42 43
3 44 43 45
3 46 47 48
3 48 44 45
3 49 46 48
3 45 49 48
3 50 51 52
3 50 52 53
3 54 55 18
3 54 18 21
3 56 57 33
3 56 33 32
3 58 59 60
3 60 61 62
3 63 64 65
3 60 62 63
3 66 58 60
3 67 68 66
3 69 70 71
3 71 67 66
3 66 60 63
3 63 65 72
3 72 73 74
3 74 75 76
3 76 28 31
3 31 27 25
3 25 24 77
3 77 78 50
3 50 53 79
3 79 80 81
3 81 82 83
3 83 84 85
3 85 86 87
3 85 87 88
3 81 83 85
3 50 79 81
3 25 77 50
3 76 31 25
3 72 74 76
3 66 63 72
3 89 69 71
3 71 66 72
3 72 76 25
3 25 50 81
3 81 85 88
3 90 91 92
3 81 88 90
3 72 25 81
3 89 71 72
3 93 94 89
3 93 89 72
3 72 81 90
3 90 92 54
3 54 21 20
3 20 95 96
3 96 97 98
3 98 99 100
3 96 98 100
3 54 20 96
3 72 90 54
3 101 93 72
3 102 101 72
3 72 54 96
3 72 96 100
3 103 102 72
3 104 105 103
3 106 107 104
3 108 109 106
3 110 111 108
3 112 113 110
3 114 115 116
3 116 112 110
3 110 108 106
3 106 104 103
3 103 72 100
3 103 100 117
3 110 106 103
3 114 116 110
3 118 119 114
3 120 121 118
3 122 123 120
3 32 35 122
3 124 56 32
3 125 126 124
3 127 128 129
3 129 125 124
3 124 32 122
3 122 120 118
3 118 114 110
3 110 103 117
3 110 117 130
3 122 118 110
3 129 124 122
3 131 127 129
3 132 133 131
3 134 135 132
3 3 134 132
3 132 131 129
3 129 122 110
3 110 130 14
3 110 14 13
3 132 129 110
3 0 3 132
3 37 0 132
3 110 13 15
3 110 15 17
3 37 132 110
3 39 37 110
3 110 17 16
3 110 16 9
3 41 39 110
3 43 41 110
3 110 9 8
3 110 8 136
3 45 43 110
3 49 45 110
3 110 136 137
3 110 137 138
3 46 49 110
3 110 138 139
3 139 46 110
3 126 140 141
3 126 141 124
3 73 142 143
3 73 143 74
3 53 52 144
3 53 144 79
3 79 144 145
3 79 145 80
3 120 146 147
3 120 147 121
3 148 149 85
3 148 85 84
3 149 150 151
3 149 151 152
3 86 85 149
3 87 86 149
3 149 152 153
3 153 154 155
3 155 55 54
3 155 54 92
3 87 149 153
3 153 155 92
3 153 92 91
3 88 87 153
3 153 91 90
3 153 90 88
3 156 142 73
3 156 73 72
3 157 158 83
3 157 83 82
3 80 145 159
3 159 157 82
3 81 80 159
3 159 82 81
3 132 160 161
3 132 161 133
3 158 148 84
3 158 84 83
3 162 163 164
3 165 166 66
3 167 162 164
3 164 165 66
3 164 66 68
3 69 167 164
3 70 69 164
3 164 68 67
3 71 70 164
3 164 67 71
3 135 168 160
3 135 160 132
3 19 169 170
3 170 171 172
3 172 173 174
3 170 172 174
3 20 19 170
3 95 20 170
3 95 170 174
3 96 95 174
3 96 174 175
3 97 96 175
3 176 11 14
3 97 175 176
3 98 97 176
3 176 14 130
3 176 130 117
3 99 98 176
3 176 117 100
3 176 100 99
3 76 177 29
3 76 29 28
3 178 179 180
3 180 181 182
3 182 147 146
3 146 183 184
3 184 34 33
3 33 57 141
3 141 140 185
3 186 187 188
3 141 185 186
3 184 33 141
3 182 146 184
3 178 180 182
3 189 190 178
3 191 192 189
3 193 194 191
3 195 196 193
3 197 198 195
3 199 197 195
3 195 193 191
3 191 189 178
3 178 182 184
3 184 141 186
3 186 188 200
3 200 161 160
3 160 168 201
3 160 201 2
3 186 200 160
3 178 184 186
3 195 191 178
3 199 195 178
3 178 186 160
3 160 2 1
3 160 1 36
3 199 178 160
3 202 199 160
3 160 36 38
3 160 38 40
3 203 202 160
3 204 205 206
3 206 203 160
3 160 40 42
3 206 160 42
3 167 204 206
3 163 162 167
3 165 164 163
3 207 166 165
3 208 209 207
3 210 211 208
3 212 213 214
3 214 210 208
3 208 207 165
3 163 167 206
3 208 165 163
3 156 212 214
3 214 208 163
3 163 206 42
3 163 42 44
3 156 214 163
3 143 142 156
3 177 215 143
3 30 29 177
3 22 26 30
3 216 23 22
3 51 217 216
3 144 52 51
3 159 145 144
3 158 157 159
3 149 148 158
3 149 158 159
3 159 144 51
3 51 216 22
3 22 30 177
3 177 143 156
3 156 163 44
3 156 44 48
3 22 177 156
3 159 51 22
3 152 149 159
3 153 152 159
3 159 22 156
3 156 48 47
3 156 47 218
3 153 159 156
3 55 155 153
3 19 18 55
3 170 19 55
3 55 153 156
3 156 218 219
3 156 219 220
3 170 55 156
3 174 170 156
3 156 220 221
3 156 221 7
3 175 174 156
3 176 175 156
3 156 7 6
3 156 6 5
3 11 176 156
3 12 11 156
3 156 5 4
3 10 12 156
3 4 10 156
3 121 147 182
3 121 182 118
3 24 23 216
3 24 216 77
3 75 215 177
3 75 177 76
3 66 166 207
3 66 207 58
3 59 209 208
3 59 208 60
3 204 89 94
3 93 101 203
3 204 94 93
3 93 203 206
3 204 93 206
3 119 181 180
3 119 180 114
3 183 146 120
3 183 120 123
3 131 200 188
3 131 188 127
3 133 161 200
3 133 200 131
3 3 2 201
3 3 201 134
3 187 186 185
3 185 140 126
3 185 126 125
3 127 188 187
3 187 185 125
3 187 125 129
3 128 127 187
3 129 128 187
3 204 167 69
3 204 69 89
3 35 34 184
3 35 184 122
3 58 207 209
3 58 209 59
3 124 141 57
3 124 57 56
3 139 218 47
3 139 47 46
3 212 156 72
3 212 72 65
3 214 212 65
3 214 65 64
3 210 214 64
3 210 64 63
3 60 208 210
3 61 60 210
3 210 63 62
3 62 61 210
3 196 195 198
3 198 197 199
3 202 203 101
3 196 198 199
3 199 202 101
3 199 101 102
3 193 196 199
3 115 114 180
3 116 115 180
3 180 178 189
3 189 191 193
3 193 199 102
3 193 102 103
3 180 189 193
3 112 116 180
3 113 112 180
3 180 193 103
3 180 103 105
3 110 113 180
3 111 110 180
3 180 105 104
3 180 104 107
3 108 111 180
3 109 108 180
3 180 107 106
3 106 109 180
3 77 216 217
3 77 217 78
3 78 217 51
3 78 51 50
3 74 143 215
3 74 215 75
3 201 168 135
3 201 135 134
3 118 182 181
3 118 181 119
3 122 184 183
3 122 183 123
3 219 218 139
3 219 139 138
3 220 219 138
3 220 138 137
3 8 7 221
3 221 220 137
3 136 8 221
3 137 136 221
