ply
format ascii 1.0
comment Created by Blender 3.6.8 - www.blender.org
element vertex 154
property float x
property float y
property float z
element face 302
property list uchar uint vertex_indices
end_header
0.000844 0.000236 0.150000
0.000844 0.000236 0.000000
0.001291 0.000182 0.000000
0.001291 0.000182 0.150000
0.002118 0.007458 0.000000
0.000361 0.004676 0.000000
0.000361 0.004676 0.150000
0.002118 0.007458 0.150000
0.000383 0.000484 0.150000
0.000383 0.000484 0.000000
0.000430 0.000419 0.000000
0.000430 0.000419 0.150000
0.000037 0.001387 0.150000
0.000037 0.001387 0.000000
0.000100 0.001085 0.000000
0.000100 0.001085 0.150000
0.003476 0.008297 0.000000
0.003476 0.008297 0.150000
0.005589 0.000016 0.150000
0.005694 0.000058 0.150000
0.005826 0.000132 0.150000
0.007282 0.001299 0.150000
0.007554 0.001616 0.150000
0.007797 0.002003 0.150000
0.008560 0.003765 0.150000
0.008622 0.003938 0.150000
0.008675 0.004114 0.150000
0.008719 0.004296 0.150000
0.008778 0.004704 0.150000
0.008792 0.006087 0.150000
0.008747 0.006497 0.150000
0.008661 0.006876 0.150000
0.008523 0.007225 0.150000
0.008431 0.007387 0.150000
0.008329 0.007544 0.150000
0.008221 0.007699 0.150000
0.008109 0.007849 0.150000
0.007994 0.007994 0.150000
0.007754 0.008262 0.150000
0.007506 0.008495 0.150000
0.007254 0.008681 0.150000
0.007128 0.008754 0.150000
0.007003 0.008812 0.150000
0.006876 0.008865 0.150000
0.006744 0.008922 0.150000
0.006606 0.008980 0.150000
0.005504 0.000001 0.150000
0.005365 0.000022 0.150000
0.005431 0.000004 0.150000
0.005225 0.000073 0.150000
0.006463 0.009036 0.150000
0.006159 0.009128 0.150000
0.005997 0.009158 0.150000
0.005829 0.009172 0.150000
0.005653 0.009168 0.150000
0.005469 0.009142 0.150000
0.005278 0.009092 0.150000
0.005078 0.009013 0.150000
0.004875 0.008921 0.150000
0.005138 0.000095 0.150000
0.004676 0.008833 0.150000
0.003816 0.000074 0.150000
0.005030 0.000106 0.150000
0.004481 0.008749 0.150000
0.004110 0.008589 0.150000
0.003936 0.008513 0.150000
0.003771 0.008439 0.150000
0.003618 0.008367 0.150000
0.000307 0.004559 0.150000
0.000250 0.004335 0.150000
0.000011 0.002682 0.150000
0.000007 0.002565 0.150000
0.000006 0.002455 0.150000
0.000004 0.002328 0.150000
0.000001 0.002187 0.150000
0.000000 0.002035 0.150000
0.000002 0.001876 0.150000
0.000007 0.001712 0.150000
0.000147 0.000952 0.150000
0.000207 0.000835 0.150000
0.000264 0.000732 0.150000
0.000308 0.000640 0.150000
0.000345 0.000557 0.150000
0.000492 0.000363 0.150000
0.000577 0.000314 0.150000
0.000692 0.000272 0.150000
0.006463 0.009036 0.000000
0.006159 0.009128 0.000000
0.005829 0.009172 0.000000
0.005653 0.009168 0.000000
0.008523 0.007225 0.000000
0.008431 0.007387 0.000000
0.003618 0.008367 0.000000
0.003771 0.008439 0.000000
0.003936 0.008513 0.000000
0.004676 0.008833 0.000000
0.004481 0.008749 0.000000
0.004110 0.008589 0.000000
0.004875 0.008921 0.000000
0.005278 0.009092 0.000000
0.005078 0.009013 0.000000
0.005997 0.009158 0.000000
0.000307 0.004559 0.000000
0.000250 0.004335 0.000000
0.005826 0.000132 0.000000
0.007282 0.001299 0.000000
0.007506 0.008495 0.000000
0.007254 0.008681 0.000000
0.008747 0.006497 0.000000
0.008661 0.006876 0.000000
0.007128 0.008754 0.000000
0.000011 0.002682 0.000000
0.008109 0.007849 0.000000
0.007994 0.007994 0.000000
0.008221 0.007699 0.000000
0.008329 0.007544 0.000000
0.000001 0.002187 0.000000
0.000000 0.002035 0.000000
0.000002 0.001876 0.000000
0.000007 0.001712 0.000000
0.000004 0.002328 0.000000
0.000007 0.002565 0.000000
0.000006 0.002455 0.000000
0.007554 0.001616 0.000000
0.008792 0.006087 0.000000
0.000492 0.000363 0.000000
0.007797 0.002003 0.000000
0.008719 0.004296 0.000000
0.008778 0.004704 0.000000
0.007754 0.008262 0.000000
0.008675 0.004114 0.000000
0.008622 0.003938 0.000000
0.008560 0.003765 0.000000
0.005694 0.000058 0.000000
0.005589 0.000016 0.000000
0.005504 0.000001 0.000000
0.005431 0.000004 0.000000
0.005365 0.000022 0.000000
0.005225 0.000073 0.000000
0.007003 0.008812 0.000000
0.006606 0.008980 0.000000
0.006744 0.008922 0.000000
0.006876 0.008865 0.000000
0.005469 0.009142 0.000000
0.005138 0.000095 0.000000
0.005030 0.000106 0.000000
0.003816 0.000074 0.000000
0.000147 0.000952 0.000000
0.000264 0.000732 0.000000
0.000207 0.000835 0.000000
0.000345 0.000557 0.000000
0.000308 0.000640 0.000000
0.000692 0.000272 0.000000
0.000577 0.000314 0.000000
3 0 1 2
3 0 2 3
3 4 5 6
3 4 6 7
3 8 9 10
3 8 10 11
3 12 13 14
3 12 14 15
3 16 4 7
3 16 7 17
3 18 19 20
3 20 21 22
3 22 23 24
3 24 25 26
3 26 27 28
3 28 29 30
3 30 31 32
3 32 33 34
3 34 35 36
3 36 37 38
3 38 39 40
3 40 41 42
3 43 44 45
3 40 42 43
3 36 38 40
3 32 34 36
3 28 30 32
3 24 26 28
3 20 22 24
3 46 18 20
3 47 48 46
3 49 47 46
3 46 20 24
3 24 28 32
3 32 36 40
3 40 43 45
3 45 50 51
3 51 52 53
3 53 54 55
3 55 56 57
3 55 57 58
3 51 53 55
3 40 45 51
3 24 32 40
3 49 46 24
3 59 49 24
3 24 40 51
3 51 55 58
3 51 58 60
3 59 24 51
3 3 61 62
3 62 59 51
3 51 60 63
3 63 64 65
3 65 66 67
3 67 17 7
3 7 6 68
3 68 69 70
3 70 71 72
3 72 73 74
3 74 75 76
3 76 77 12
3 12 15 78
3 78 79 80
3 81 82 8
3 12 78 80
3 80 81 8
3 8 11 83
3 83 84 85
3 85 0 3
3 3 62 51
3 51 63 65
3 65 67 7
3 7 68 70
3 70 72 74
3 74 76 12
3 12 80 8
3 8 83 85
3 85 3 51
3 51 65 7
3 7 70 74
3 74 12 8
3 8 85 51
3 51 7 74
3 51 74 8
3 86 87 51
3 86 51 50
3 53 88 89
3 53 89 54
3 32 90 91
3 32 91 33
3 92 16 17
3 92 17 67
3 93 92 67
3 93 67 66
3 94 93 66
3 94 66 65
3 95 96 97
3 97 94 65
3 97 65 64
3 98 95 97
3 56 99 100
3 100 98 97
3 97 64 63
3 97 63 60
3 56 100 97
3 57 56 97
3 97 60 58
3 58 57 97
3 51 87 101
3 51 101 52
3 68 102 103
3 68 103 69
3 104 105 21
3 104 21 20
3 106 107 40
3 106 40 39
3 30 108 109
3 30 109 31
3 40 107 110
3 40 110 41
3 103 111 70
3 103 70 69
3 112 113 37
3 112 37 36
3 114 112 36
3 114 36 35
3 33 91 115
3 115 114 35
3 34 33 115
3 35 34 115
3 116 117 118
3 118 119 77
3 118 77 76
3 120 116 118
3 111 121 122
3 122 120 118
3 118 76 75
3 118 75 74
3 111 122 118
3 71 70 111
3 72 71 111
3 111 118 74
3 73 72 111
3 74 73 111
3 21 105 123
3 21 123 22
3 29 124 108
3 29 108 30
3 11 10 125
3 11 125 83
3 123 126 23
3 123 23 22
3 27 127 128
3 27 128 28
3 106 129 113
3 113 112 114
3 114 115 91
3 91 90 109
3 109 108 124
3 124 128 127
3 127 130 131
3 131 132 126
3 126 123 105
3 105 104 133
3 133 134 135
3 135 136 137
3 135 137 138
3 105 133 135
3 131 126 105
3 124 127 131
3 91 109 124
3 113 114 91
3 107 106 113
3 139 110 107
3 140 141 142
3 142 139 107
3 107 113 91
3 91 124 131
3 131 105 135
3 131 135 138
3 107 91 131
3 140 142 107
3 87 86 140
3 88 101 87
3 143 89 88
3 100 99 143
3 98 100 143
3 143 88 87
3 87 140 107
3 107 131 138
3 107 138 144
3 143 87 107
3 95 98 143
3 94 97 96
3 96 95 143
3 143 107 144
3 145 146 2
3 143 144 145
3 94 96 143
3 92 93 94
3 4 16 92
3 102 5 4
3 111 103 102
3 116 120 122
3 13 119 118
3 147 14 13
3 148 149 147
3 9 150 151
3 148 147 13
3 9 151 148
3 125 10 9
3 152 153 125
3 2 1 152
3 143 145 2
3 92 94 143
3 102 4 92
3 122 111 102
3 118 116 122
3 148 13 118
3 125 9 148
3 2 152 125
3 92 143 2
3 122 102 92
3 148 118 122
3 2 125 148
3 122 92 2
3 2 148 122
3 15 14 147
3 15 147 78
3 55 143 99
3 55 99 56
3 83 125 153
3 83 153 84
3 140 86 50
3 140 50 45
3 141 140 45
3 141 45 44
3 142 141 44
3 142 44 43
3 41 110 139
3 139 142 43
3 42 41 139
3 43 42 139
3 59 144 138
3 59 138 49
3 77 119 13
3 77 13 12
3 85 152 1
3 85 1 0
3 130 127 27
3 130 27 26
3 24 132 131
3 131 130 26
3 25 24 131
3 131 26 25
3 54 89 143
3 54 143 55
3 52 101 88
3 52 88 53
3 19 133 104
3 19 104 20
3 145 144 59
3 145 59 62
3 3 2 146
3 146 145 62
3 61 3 146
3 62 61 146
3 150 9 8
3 150 8 82
3 151 150 82
3 151 82 81
3 148 151 81
3 148 81 80
3 78 147 149
3 149 148 80
3 79 78 149
3 80 79 149
3 38 129 106
3 38 106 39
3 126 132 24
3 126 24 23
3 90 32 31
3 90 31 109
3 49 138 137
3 49 137 47
3 48 136 135
3 48 135 46
3 47 137 136
3 47 136 48
3 18 134 133
3 18 133 19
3 84 153 152
3 84 152 85
3 113 129 38
3 113 38 37
3 6 5 102
3 6 102 68
3 46 135 134
3 46 134 18
3 128 124 29
3 128 29 28
