ply
format ascii 1.0
comment Created by Blender 3.6.8 - www.blender.org
element vertex 236
property float x
property float y
property float z
element face 463
property list uchar uint vertex_indices
end_header
0.006393 0.007689 0.150000
0.006393 0.007689 0.000000
0.006308 0.007803 0.000000
0.006308 0.007803 0.150000
0.003540 0.008770 0.000000
0.002487 0.008458 0.000000
0.002392 0.008427 0.000000
0.001424 0.008083 0.000000
0.001424 0.008083 0.150000
0.002392 0.008427 0.150000
0.003713 0.008814 0.000000
0.003540 0.008770 0.150000
0.003713 0.008814 0.150000
0.002487 0.008458 0.150000
0.000707 0.007754 0.150000
0.000884 0.007845 0.150000
0.000884 0.007845 0.000000
0.000707 0.007754 0.000000
0.000363 0.007547 0.000000
0.000363 0.007547 0.150000
0.000530 0.007654 0.150000
0.000530 0.007654 0.000000
0.004962 0.008668 0.000000
0.004856 0.008694 0.000000
0.004444 0.008779 0.000000
0.004343 0.008797 0.000000
0.004244 0.008813 0.000000
0.004244 0.008813 0.150000
0.004343 0.008797 0.150000
0.004444 0.008779 0.150000
0.004856 0.008694 0.150000
0.004962 0.008668 0.150000
0.005422 0.000022 0.150000
0.005422 0.000022 0.000000
0.005493 0.000004 0.000000
0.005493 0.000004 0.150000
0.000083 0.005883 0.000000
0.000050 0.006201 0.000000
0.000026 0.006531 0.000000
0.000000 0.007097 0.000000
0.000025 0.007208 0.000000
0.000101 0.007322 0.000000
0.000217 0.007436 0.000000
0.001052 0.007925 0.000000
0.001199 0.007990 0.000000
0.001317 0.008040 0.000000
0.001396 0.008072 0.000000
0.003874 0.008835 0.000000
0.004052 0.008833 0.000000
0.005186 0.008591 0.000000
0.005422 0.008484 0.000000
0.005660 0.008350 0.000000
0.005893 0.008190 0.000000
0.006112 0.008007 0.000000
0.006543 0.007438 0.000000
0.006673 0.007155 0.000000
0.006734 0.007000 0.000000
0.006794 0.006837 0.000000
0.006853 0.006666 0.000000
0.006914 0.006485 0.000000
0.006977 0.006296 0.000000
0.007044 0.006098 0.000000
0.007110 0.005900 0.000000
0.007170 0.005710 0.000000
0.007225 0.005524 0.000000
0.007273 0.005341 0.000000
0.007352 0.004973 0.000000
0.007383 0.004783 0.000000
0.007429 0.004381 0.000000
0.007447 0.003279 0.000000
0.007420 0.003053 0.000000
0.007400 0.002987 0.000000
0.007376 0.002943 0.000000
0.007348 0.002914 0.000000
0.007283 0.002866 0.000000
0.000104 0.005739 0.000000
0.000184 0.005413 0.000000
0.000154 0.005500 0.000000
0.000294 0.005253 0.000000
0.000228 0.005336 0.000000
0.000478 0.005075 0.000000
0.000379 0.005165 0.000000
0.000705 0.004894 0.000000
0.000588 0.004984 0.000000
0.002168 0.003879 0.000000
0.007246 0.002832 0.000000
0.002301 0.003779 0.000000
0.007207 0.002782 0.000000
0.002426 0.003680 0.000000
0.007166 0.002709 0.000000
0.007126 0.002623 0.000000
0.002540 0.003584 0.000000
0.002715 0.003408 0.000000
0.007091 0.002543 0.000000
0.007058 0.002465 0.000000
0.002788 0.003317 0.000000
0.002971 0.003086 0.000000
0.007028 0.002389 0.000000
0.006998 0.002312 0.000000
0.003185 0.002806 0.000000
0.003410 0.002497 0.000000
0.006968 0.002232 0.000000
0.006936 0.002148 0.000000
0.006901 0.002058 0.000000
0.006862 0.001959 0.000000
0.006819 0.001850 0.000000
0.006769 0.001729 0.000000
0.006712 0.001595 0.000000
0.006651 0.001455 0.000000
0.006589 0.001319 0.000000
0.006526 0.001187 0.000000
0.006259 0.000699 0.000000
0.006113 0.000480 0.000000
0.005873 0.000183 0.000000
0.005790 0.000103 0.000000
0.005711 0.000048 0.000000
0.005636 0.000015 0.000000
0.005564 0.000001 0.000000
0.005352 0.000052 0.000000
0.005281 0.000091 0.000000
0.005207 0.000138 0.000000
0.005131 0.000190 0.000000
0.005050 0.000243 0.000000
0.004965 0.000297 0.000000
0.004876 0.000360 0.000000
0.003520 0.002339 0.000000
0.004783 0.000441 0.000000
0.004591 0.000647 0.000000
0.004494 0.000768 0.000000
0.004398 0.000898 0.000000
0.004303 0.001035 0.000000
0.004211 0.001176 0.000000
0.004038 0.001463 0.000000
0.003811 0.001880 0.000000
0.003625 0.002181 0.000000
0.003723 0.002028 0.000000
0.005422 0.008484 0.150000
0.005660 0.008350 0.150000
0.007420 0.003053 0.150000
0.007447 0.003279 0.150000
0.002540 0.003584 0.150000
0.002426 0.003680 0.150000
0.002301 0.003779 0.150000
0.002168 0.003879 0.150000
0.000379 0.005165 0.150000
0.000478 0.005075 0.150000
0.000705 0.004894 0.150000
0.000588 0.004984 0.150000
0.007246 0.002832 0.150000
0.007283 0.002866 0.150000
0.007348 0.002914 0.150000
0.007376 0.002943 0.150000
0.004211 0.001176 0.150000
0.004038 0.001463 0.150000
0.003811 0.001880 0.150000
0.003625 0.002181 0.150000
0.003723 0.002028 0.150000
0.006589 0.001319 0.150000
0.006651 0.001455 0.150000
0.006712 0.001595 0.150000
0.006769 0.001729 0.150000
0.006819 0.001850 0.150000
0.006862 0.001959 0.150000
0.006901 0.002058 0.150000
0.006936 0.002148 0.150000
0.006968 0.002232 0.150000
0.006998 0.002312 0.150000
0.006526 0.001187 0.150000
0.006113 0.000480 0.150000
0.006259 0.000699 0.150000
0.005790 0.000103 0.150000
0.005873 0.000183 0.150000
0.005636 0.000015 0.150000
0.005711 0.000048 0.150000
0.005564 0.000001 0.150000
0.005352 0.000052 0.150000
0.005207 0.000138 0.150000
0.005281 0.000091 0.150000
0.005131 0.000190 0.150000
0.007028 0.002389 0.150000
0.004876 0.000360 0.150000
0.004965 0.000297 0.150000
0.005050 0.000243 0.150000
0.007058 0.002465 0.150000
0.004591 0.000647 0.150000
0.004783 0.000441 0.150000
0.004398 0.000898 0.150000
0.004494 0.000768 0.150000
0.004303 0.001035 0.150000
0.007091 0.002543 0.150000
0.007126 0.002623 0.150000
0.007166 0.002709 0.150000
0.003520 0.002339 0.150000
0.007207 0.002782 0.150000
0.003410 0.002497 0.150000
0.007400 0.002987 0.150000
0.007429 0.004381 0.150000
0.007383 0.004783 0.150000
0.007352 0.004973 0.150000
0.007273 0.005341 0.150000
0.007225 0.005524 0.150000
0.007170 0.005710 0.150000
0.007110 0.005900 0.150000
0.007044 0.006098 0.150000
0.006977 0.006296 0.150000
0.006914 0.006485 0.150000
0.006853 0.006666 0.150000
0.003185 0.002806 0.150000
0.006794 0.006837 0.150000
0.006734 0.007000 0.150000
0.006673 0.007155 0.150000
0.006543 0.007438 0.150000
0.006112 0.008007 0.150000
0.005893 0.008190 0.150000
0.005186 0.008591 0.150000
0.004052 0.008833 0.150000
0.003874 0.008835 0.150000
0.001396 0.008072 0.150000
0.001317 0.008040 0.150000
0.001199 0.007990 0.150000
0.001052 0.007925 0.150000
0.000217 0.007436 0.150000
0.000101 0.007322 0.150000
0.000025 0.007208 0.150000
0.000000 0.007097 0.150000
0.000026 0.006531 0.150000
0.000050 0.006201 0.150000
0.000083 0.005883 0.150000
0.000104 0.005739 0.150000
0.000154 0.005500 0.150000
0.000184 0.005413 0.150000
0.000228 0.005336 0.150000
0.000294 0.005253 0.150000
0.002971 0.003086 0.150000
0.002788 0.003317 0.150000
0.002715 0.003408 0.150000
3 0 1 2
3 0 2 3
3 4 5 6
3 6 7 8
3 6 8 9
3 10 4 6
3 11 12 10
3 6 9 13
3 13 11 10
3 6 13 10
3 14 15 16
3 14 16 17
3 18 19 20
3 20 14 17
3 21 18 20
3 17 21 20
3 22 23 24
3 24 25 26
3 26 27 28
3 26 28 29
3 22 24 26
3 30 31 22
3 26 29 30
3 26 30 22
3 32 33 34
3 32 34 35
3 36 37 38
3 38 39 40
3 40 41 42
3 42 18 21
3 21 17 16
3 16 43 44
3 44 45 46
3 46 7 6
3 4 10 47
3 47 48 26
3 22 49 50
3 50 51 52
3 52 53 2
3 2 1 54
3 54 55 56
3 56 57 58
3 58 59 60
3 60 61 62
3 62 63 64
3 64 65 66
3 66 67 68
3 68 69 70
3 70 71 72
3 72 73 74
3 70 72 74
3 66 68 70
3 62 64 66
3 58 60 62
3 54 56 58
3 52 2 54
3 22 50 52
3 4 47 26
3 46 6 4
3 16 44 46
3 42 21 16
3 38 40 42
3 75 36 38
3 76 77 75
3 78 79 76
3 80 81 78
3 82 83 80
3 84 82 80
3 80 78 76
3 76 75 38
3 38 42 16
3 16 46 4
3 4 26 22
3 22 52 54
3 54 58 62
3 62 66 70
3 70 74 85
3 62 70 85
3 22 54 62
3 16 4 22
3 76 38 16
3 84 80 76
3 86 84 76
3 76 16 22
3 22 62 85
3 22 85 87
3 86 76 22
3 88 86 22
3 22 87 89
3 22 89 90
3 91 88 22
3 92 91 22
3 22 90 93
3 22 93 94
3 95 92 22
3 96 95 22
3 22 94 97
3 22 97 98
3 99 96 22
3 100 99 22
3 22 98 101
3 101 102 103
3 103 104 105
3 105 106 107
3 107 108 109
3 109 110 111
3 111 112 113
3 113 114 115
3 115 116 117
3 117 34 33
3 33 118 119
3 119 120 121
3 122 123 124
3 119 121 122
3 117 33 119
3 113 115 117
3 109 111 113
3 105 107 109
3 101 103 105
3 100 22 101
3 125 100 101
3 101 105 109
3 109 113 117
3 117 119 122
3 122 124 126
3 126 127 128
3 128 129 130
3 130 131 132
3 130 132 133
3 126 128 130
3 117 122 126
3 101 109 117
3 134 125 101
3 135 134 101
3 101 117 126
3 126 130 133
3 133 135 101
3 101 126 133
3 51 50 136
3 51 136 137
3 138 70 69
3 138 69 139
3 88 91 140
3 88 140 141
3 86 88 141
3 86 141 142
3 83 82 84
3 84 86 142
3 84 142 143
3 80 83 84
3 144 81 80
3 145 144 80
3 80 84 143
3 80 143 146
3 147 145 80
3 146 147 80
3 148 85 74
3 148 74 149
3 150 73 72
3 150 72 151
3 132 131 152
3 132 152 153
3 133 132 153
3 133 153 154
3 155 134 135
3 135 133 154
3 156 155 135
3 154 156 135
3 157 158 159
3 159 160 161
3 161 162 163
3 163 164 165
3 163 165 166
3 159 161 163
3 167 157 159
3 168 169 167
3 170 171 168
3 172 173 170
3 35 174 172
3 175 32 35
3 176 177 175
3 178 176 175
3 175 35 172
3 172 170 168
3 168 167 159
3 159 163 166
3 159 166 179
3 172 168 159
3 178 175 172
3 180 181 182
3 182 178 172
3 172 159 179
3 172 179 183
3 180 182 172
3 184 185 180
3 186 187 184
3 152 188 186
3 154 153 152
3 154 152 186
3 186 184 180
3 180 172 183
3 180 183 189
3 154 186 180
3 156 154 180
3 180 189 190
3 180 190 191
3 155 156 180
3 192 155 180
3 180 191 193
3 180 193 148
3 192 180 148
3 149 150 151
3 192 148 149
3 194 192 149
3 149 151 195
3 195 138 139
3 139 196 197
3 197 198 199
3 199 200 201
3 201 202 203
3 204 205 206
3 201 203 204
3 197 199 201
3 195 139 197
3 194 149 195
3 207 194 195
3 195 197 201
3 201 204 206
3 206 208 209
3 209 210 211
3 211 0 3
3 3 212 213
3 213 137 136
3 136 214 31
3 31 30 29
3 29 28 27
3 27 215 216
3 216 12 11
3 11 13 9
3 9 8 217
3 217 218 219
3 219 220 15
3 15 14 20
3 20 19 221
3 221 222 223
3 223 224 225
3 225 226 227
3 227 228 229
3 229 230 231
3 231 232 144
3 144 145 147
3 147 146 143
3 144 147 143
3 229 231 144
3 225 227 229
3 221 223 225
3 15 20 221
3 217 219 15
3 11 9 217
3 27 216 11
3 31 29 27
3 213 136 31
3 211 3 213
3 206 209 211
3 195 201 206
3 233 207 195
3 234 233 195
3 195 206 211
3 211 213 31
3 31 27 11
3 11 217 15
3 15 221 225
3 225 229 144
3 225 144 143
3 11 15 225
3 211 31 11
3 234 195 211
3 235 234 211
3 211 11 225
3 225 143 142
3 225 142 141
3 235 211 225
3 225 141 140
3 225 140 235
3 191 89 87
3 191 87 193
3 195 71 70
3 195 70 138
3 222 41 40
3 222 40 223
3 125 134 155
3 125 155 192
3 100 125 192
3 100 192 194
3 99 100 194
3 99 194 207
3 96 99 207
3 96 207 233
3 235 92 95
3 95 96 233
3 234 235 95
3 233 234 95
3 140 91 92
3 140 92 235
3 216 47 10
3 216 10 12
3 170 114 113
3 170 113 171
3 27 26 48
3 27 48 215
3 49 22 31
3 49 31 214
3 231 79 78
3 231 78 232
3 113 112 168
3 113 168 171
3 68 196 139
3 68 139 69
3 111 110 167
3 111 167 169
3 228 75 77
3 228 77 229
3 90 89 191
3 90 191 190
3 93 90 190
3 93 190 189
3 94 93 189
3 94 189 183
3 97 94 183
3 97 183 179
3 98 97 179
3 98 179 166
3 101 98 166
3 101 166 165
3 102 101 165
3 102 165 164
3 103 102 164
3 103 164 163
3 104 103 163
3 104 163 162
3 105 104 162
3 105 162 161
3 106 105 161
3 106 161 160
3 107 106 160
3 107 160 159
3 108 107 159
3 108 159 158
3 167 110 109
3 109 108 158
3 157 167 109
3 158 157 109
3 35 34 117
3 35 117 174
3 172 116 115
3 172 115 173
3 168 112 111
3 168 111 169
3 230 76 79
3 230 79 231
3 174 117 116
3 174 116 172
3 19 18 42
3 19 42 221
3 55 54 211
3 55 211 210
3 1 0 211
3 1 211 54
3 173 115 114
3 173 114 170
3 36 75 228
3 36 228 227
3 39 38 36
3 225 224 39
3 36 227 226
3 226 225 39
3 36 226 39
3 175 118 33
3 175 33 32
3 56 55 210
3 56 210 209
3 57 56 209
3 57 209 208
3 58 57 208
3 58 208 206
3 61 60 59
3 59 58 206
3 59 206 205
3 61 59 205
3 61 205 204
3 62 61 204
3 62 204 203
3 63 62 203
3 63 203 202
3 199 65 64
3 64 63 202
3 64 202 201
3 200 199 64
3 201 200 64
3 221 42 41
3 221 41 222
3 136 50 49
3 136 49 214
3 184 127 126
3 184 126 185
3 67 66 65
3 65 199 198
3 197 196 68
3 65 198 197
3 68 67 65
3 65 197 68
3 53 52 213
3 53 213 212
3 151 72 71
3 151 71 195
3 119 118 175
3 119 175 177
3 120 119 177
3 120 177 176
3 121 120 176
3 121 176 178
3 122 121 178
3 122 178 182
3 180 124 123
3 123 122 182
3 181 180 123
3 182 181 123
3 232 78 81
3 232 81 144
3 53 212 3
3 53 3 2
3 215 48 47
3 215 47 216
3 223 40 39
3 223 39 224
3 193 87 85
3 193 85 148
3 43 16 15
3 43 15 220
3 44 43 220
3 44 220 219
3 45 44 219
3 45 219 218
3 8 7 46
3 46 45 218
3 217 8 46
3 218 217 46
3 213 52 51
3 213 51 137
3 128 127 184
3 128 184 187
3 129 128 187
3 129 187 186
3 152 131 130
3 130 129 186
3 188 152 130
3 186 188 130
3 73 150 149
3 73 149 74
3 185 126 124
3 185 124 180
3 229 77 76
3 229 76 230
