ply
format ascii 1.0
comment Created by Blender 3.6.8 - www.blender.org
element vertex 170
property float x
property float y
property float z
element face 335
property list uchar uint vertex_indices
end_header
0.000345 0.005185 0.150000
0.000345 0.005185 0.000000
0.000429 0.005090 0.000000
0.000429 0.005090 0.150000
0.006454 0.003176 0.000000
0.006468 0.003273 0.000000
0.006468 0.003273 0.150000
0.006454 0.003176 0.150000
0.002567 0.008198 0.000000
0.002430 0.008354 0.000000
0.002430 0.008354 0.150000
0.002567 0.008198 0.150000
0.000009 0.006198 0.000000
0.000012 0.006100 0.000000
0.000012 0.006100 0.150000
0.000009 0.006198 0.150000
0.000009 0.006603 0.150000
0.000009 0.006603 0.000000
0.000011 0.006538 0.000000
0.000011 0.006538 0.150000
0.000007 0.006737 0.150000
0.000007 0.006737 0.000000
0.000001 0.006657 0.000000
0.000001 0.006657 0.150000
0.002710 0.003563 0.150000
0.002710 0.003563 0.000000
0.003135 0.002906 0.000000
0.003135 0.002906 0.150000
0.000031 0.005896 0.000000
0.000080 0.005693 0.000000
0.000080 0.005693 0.150000
0.000031 0.005896 0.150000
0.000864 0.008925 0.150000
0.001591 0.009051 0.150000
0.001591 0.009051 0.000000
0.000864 0.008925 0.000000
0.004018 0.000000 0.150000
0.004018 0.000000 0.000000
0.004392 0.000359 0.000000
0.004392 0.000359 0.150000
0.000118 0.005594 0.000000
0.000271 0.005292 0.000000
0.000271 0.005292 0.150000
0.000118 0.005594 0.150000
0.005868 0.004641 0.150000
0.005977 0.004506 0.150000
0.005977 0.004506 0.000000
0.005868 0.004641 0.000000
0.005743 0.004785 0.150000
0.005743 0.004785 0.000000
0.005532 0.005012 0.000000
0.005532 0.005012 0.150000
0.005602 0.004939 0.150000
0.005602 0.004939 0.000000
0.000809 0.008831 0.000000
0.002219 0.008554 0.000000
0.002640 0.008091 0.000000
0.003189 0.007133 0.000000
0.000169 0.007274 0.000000
0.003490 0.006707 0.000000
0.000531 0.004992 0.000000
0.000477 0.005042 0.000000
0.000660 0.004878 0.000000
0.000591 0.004938 0.000000
0.000779 0.004778 0.000000
0.000725 0.004822 0.000000
0.002434 0.003793 0.000000
0.000823 0.004745 0.000000
0.003561 0.006624 0.000000
0.006138 0.004274 0.000000
0.006188 0.004179 0.000000
0.006257 0.004021 0.000000
0.006311 0.003895 0.000000
0.006338 0.003829 0.000000
0.006364 0.003763 0.000000
0.006389 0.003697 0.000000
0.006411 0.003633 0.000000
0.006431 0.003573 0.000000
0.006447 0.003516 0.000000
0.006459 0.003465 0.000000
0.006471 0.003369 0.000000
0.006430 0.003080 0.000000
0.006416 0.003031 0.000000
0.006399 0.002983 0.000000
0.006381 0.002935 0.000000
0.006363 0.002886 0.000000
0.006339 0.002838 0.000000
0.006309 0.002791 0.000000
0.005220 0.001609 0.000000
0.002493 0.003753 0.000000
0.002549 0.003713 0.000000
0.002599 0.003673 0.000000
0.005178 0.001554 0.000000
0.005128 0.001488 0.000000
0.002644 0.003635 0.000000
0.002681 0.003598 0.000000
0.005074 0.001413 0.000000
0.005017 0.001333 0.000000
0.004902 0.001170 0.000000
0.004800 0.001024 0.000000
0.003392 0.002025 0.000000
0.003648 0.001146 0.000000
0.004699 0.000877 0.000000
0.003949 0.000160 0.000000
0.003912 0.000255 0.000000
0.003893 0.000303 0.000000
0.003877 0.000351 0.000000
0.003862 0.000396 0.000000
0.003851 0.000437 0.000000
0.003829 0.000518 0.000000
0.003723 0.000888 0.000000
0.003785 0.000674 0.000000
0.006138 0.004274 0.150000
0.005220 0.001609 0.150000
0.006309 0.002791 0.150000
0.006339 0.002838 0.150000
0.006363 0.002886 0.150000
0.006381 0.002935 0.150000
0.006399 0.002983 0.150000
0.006416 0.003031 0.150000
0.006430 0.003080 0.150000
0.006471 0.003369 0.150000
0.006459 0.003465 0.150000
0.006447 0.003516 0.150000
0.006431 0.003573 0.150000
0.006411 0.003633 0.150000
0.006389 0.003697 0.150000
0.006364 0.003763 0.150000
0.006338 0.003829 0.150000
0.006311 0.003895 0.150000
0.006257 0.004021 0.150000
0.006188 0.004179 0.150000
0.003561 0.006624 0.150000
0.005178 0.001554 0.150000
0.005128 0.001488 0.150000
0.003490 0.006707 0.150000
0.005074 0.001413 0.150000
0.003189 0.007133 0.150000
0.002640 0.008091 0.150000
0.005017 0.001333 0.150000
0.002219 0.008554 0.150000
0.000809 0.008831 0.150000
0.000169 0.007274 0.150000
0.004902 0.001170 0.150000
0.004800 0.001024 0.150000
0.004699 0.000877 0.150000
0.003912 0.000255 0.150000
0.003949 0.000160 0.150000
0.003877 0.000351 0.150000
0.003893 0.000303 0.150000
0.003851 0.000437 0.150000
0.003862 0.000396 0.150000
0.003829 0.000518 0.150000
0.000477 0.005042 0.150000
0.000531 0.004992 0.150000
0.000591 0.004938 0.150000
0.000660 0.004878 0.150000
0.000725 0.004822 0.150000
0.000779 0.004778 0.150000
0.000823 0.004745 0.150000
0.002434 0.003793 0.150000
0.003785 0.000674 0.150000
0.003723 0.000888 0.150000
0.003648 0.001146 0.150000
0.002493 0.003753 0.150000
0.002549 0.003713 0.150000
0.003392 0.002025 0.150000
0.002599 0.003673 0.150000
0.002644 0.003635 0.150000
0.002681 0.003598 0.150000
3 0 1 2
3 0 2 3
3 4 5 6
3 4 6 7
3 8 9 10
3 8 10 11
3 12 13 14
3 12 14 15
3 16 17 18
3 18 12 15
3 19 16 18
3 15 19 18
3 20 21 22
3 20 22 23
3 24 25 26
3 24 26 27
3 28 29 30
3 28 30 31
3 32 33 34
3 32 34 35
3 36 37 38
3 36 38 39
3 40 41 42
3 40 42 43
3 44 45 46
3 44 46 47
3 48 44 47
3 48 47 49
3 50 51 52
3 52 48 49
3 53 50 52
3 49 53 52
3 54 35 34
3 34 55 9
3 9 8 56
3 9 56 57
3 54 34 9
3 21 58 54
3 17 22 21
3 13 12 18
3 18 17 21
3 21 54 9
3 21 9 57
3 28 13 18
3 18 21 57
3 18 57 59
3 29 28 18
3 41 40 29
3 2 1 41
3 60 61 2
3 62 63 60
3 64 65 62
3 66 67 64
3 66 64 62
3 62 60 2
3 2 41 29
3 29 18 59
3 68 50 53
3 29 59 68
3 62 2 29
3 66 62 29
3 29 68 53
3 53 49 47
3 47 46 69
3 69 70 71
3 71 72 73
3 73 74 75
3 75 76 77
3 77 78 79
3 79 80 5
3 5 4 81
3 81 82 83
3 83 84 85
3 85 86 87
3 85 87 88
3 81 83 85
3 79 5 81
3 75 77 79
3 71 73 75
3 47 69 71
3 29 53 47
3 89 66 29
3 90 89 29
3 29 47 71
3 71 75 79
3 79 81 85
3 79 85 88
3 29 71 79
3 91 90 29
3 91 29 79
3 79 88 92
3 79 92 93
3 94 91 79
3 95 94 79
3 79 93 96
3 79 96 97
3 25 95 79
3 26 25 79
3 79 97 98
3 79 98 99
3 100 26 79
3 101 100 79
3 79 99 102
3 102 38 37
3 37 103 104
3 104 105 106
3 106 107 108
3 106 108 109
3 37 104 106
3 79 102 37
3 110 101 79
3 106 109 111
3 111 110 79
3 79 37 106
3 79 106 111
3 46 45 112
3 46 112 69
3 113 114 115
3 115 116 117
3 117 118 119
3 119 120 7
3 7 6 121
3 121 122 123
3 123 124 125
3 125 126 127
3 127 128 129
3 129 130 131
3 131 112 45
3 45 44 48
3 48 52 51
3 48 51 132
3 131 45 48
3 127 129 131
3 123 125 127
3 7 121 123
3 117 119 7
3 113 115 117
3 113 117 7
3 7 123 127
3 127 131 48
3 127 48 132
3 113 7 127
3 133 113 127
3 133 127 132
3 134 133 132
3 134 132 135
3 136 134 135
3 137 138 11
3 136 135 137
3 139 136 137
3 137 11 10
3 10 140 33
3 33 32 141
3 141 142 20
3 20 23 16
3 19 15 14
3 20 16 19
3 33 141 20
3 137 10 33
3 143 139 137
3 144 143 137
3 137 33 20
3 19 14 31
3 137 20 19
3 145 144 137
3 36 39 145
3 146 147 36
3 148 149 146
3 150 151 148
3 152 150 148
3 148 146 36
3 36 145 137
3 137 19 31
3 31 30 43
3 43 42 0
3 0 3 153
3 153 154 155
3 155 156 157
3 157 158 159
3 157 159 160
3 153 155 157
3 43 0 153
3 137 31 43
3 148 36 137
3 161 152 148
3 161 148 137
3 137 43 153
3 153 157 160
3 137 153 160
3 162 161 137
3 163 162 137
3 137 160 164
3 137 164 165
3 166 163 137
3 27 166 137
3 137 165 167
3 137 167 168
3 24 27 137
3 137 168 169
3 137 169 24
3 67 66 160
3 67 160 159
3 91 94 168
3 91 168 167
3 90 91 167
3 90 167 165
3 160 66 89
3 89 90 165
3 164 160 89
3 165 164 89
3 84 83 82
3 82 81 120
3 82 120 119
3 85 84 82
3 117 116 85
3 82 119 118
3 118 117 85
3 82 118 85
3 93 92 88
3 88 113 133
3 88 133 134
3 96 93 88
3 98 97 96
3 102 99 98
3 39 38 102
3 145 39 102
3 102 98 96
3 96 88 134
3 96 134 136
3 145 102 96
3 144 145 96
3 96 136 139
3 143 144 96
3 139 143 96
3 50 68 132
3 50 132 51
3 1 0 42
3 1 42 41
3 114 87 86
3 114 86 115
3 71 70 131
3 71 131 130
3 74 73 71
3 76 75 74
3 126 125 76
3 127 126 76
3 76 74 71
3 71 130 129
3 128 127 76
3 71 129 128
3 71 128 76
3 107 106 148
3 107 148 151
3 108 107 151
3 108 151 150
3 109 108 150
3 109 150 152
3 111 109 152
3 111 152 161
3 110 111 161
3 110 161 162
3 101 110 162
3 101 162 163
3 27 26 100
3 100 101 163
3 166 27 100
3 163 166 100
3 64 67 159
3 64 159 158
3 65 64 158
3 65 158 157
3 62 65 157
3 62 157 156
3 63 62 156
3 63 156 155
3 60 63 155
3 60 155 154
3 3 2 61
3 61 60 154
3 153 3 61
3 154 153 61
3 120 81 4
3 120 4 7
3 70 69 112
3 70 112 131
3 58 21 20
3 58 20 142
3 55 34 33
3 55 33 140
3 132 68 59
3 132 59 135
3 169 95 25
3 169 25 24
3 14 13 28
3 14 28 31
3 115 86 85
3 115 85 116
3 54 58 142
3 54 142 141
3 121 80 79
3 121 79 122
3 103 37 36
3 103 36 147
3 104 103 147
3 104 147 146
3 148 106 105
3 105 104 146
3 149 148 105
3 146 149 105
3 23 22 17
3 23 17 16
3 5 80 121
3 5 121 6
3 88 87 114
3 88 114 113
3 9 55 140
3 9 140 10
3 32 35 54
3 32 54 141
3 78 77 76
3 76 125 124
3 123 122 79
3 76 124 123
3 79 78 76
3 76 123 79
3 168 94 95
3 168 95 169
3 30 29 40
3 30 40 43
3 56 8 11
3 56 11 138
3 135 59 57
3 57 56 138
3 137 135 57
3 138 137 57
