ply
format ascii 1.0
comment Created by Blender 3.6.8 - www.blender.org
element vertex 154
property float x
property float y
property float z
element face 303
property list uchar uint vertex_indices
end_header
0.004910 0.007678 0.000000
0.004626 0.007538 0.000000
0.004626 0.007538 0.150000
0.004910 0.007678 0.150000
0.007268 0.000877 0.150000
0.007268 0.000877 0.000000
0.007557 0.000918 0.000000
0.007557 0.000918 0.150000
0.000043 0.002902 0.150000
0.000043 0.002902 0.000000
0.000002 0.002654 0.000000
0.000002 0.002654 0.150000
0.001839 0.000445 0.150000
0.001839 0.000445 0.000000
0.001986 0.000367 0.000000
0.001986 0.000367 0.150000
0.011870 0.003004 0.000000
0.011016 0.004579 0.000000
0.011016 0.004579 0.150000
0.011870 0.003004 0.150000
0.002992 0.006824 0.000000
0.001176 0.005496 0.000000
0.001176 0.005496 0.150000
0.002992 0.006824 0.150000
0.011959 0.001858 0.150000
0.011959 0.001858 0.000000
0.012005 0.002005 0.000000
0.012005 0.002005 0.150000
0.010935 0.000821 0.150000
0.010935 0.000821 0.000000
0.011081 0.000831 0.000000
0.011081 0.000831 0.150000
0.002331 0.000223 0.000000
0.002331 0.000223 0.150000
0.011690 0.001362 0.150000
0.011761 0.001477 0.150000
0.011833 0.001597 0.150000
0.011900 0.001723 0.150000
0.012033 0.002167 0.150000
0.012038 0.002345 0.150000
0.012015 0.002542 0.150000
0.011961 0.002761 0.150000
0.010715 0.005042 0.150000
0.010576 0.005245 0.150000
0.010449 0.005424 0.150000
0.010336 0.005576 0.150000
0.010242 0.005697 0.150000
0.010100 0.005817 0.150000
0.009532 0.006130 0.150000
0.006071 0.007556 0.150000
0.005534 0.007681 0.150000
0.005159 0.007720 0.150000
0.005060 0.007716 0.150000
0.004980 0.007702 0.150000
0.004493 0.007457 0.150000
0.004375 0.007378 0.150000
0.004241 0.007284 0.150000
0.011508 0.001033 0.150000
0.011568 0.001136 0.150000
0.011624 0.001249 0.150000
0.004189 0.007256 0.150000
0.011428 0.000954 0.150000
0.004108 0.007221 0.150000
0.004001 0.007181 0.150000
0.011213 0.000856 0.150000
0.011329 0.000896 0.150000
0.010605 0.000829 0.150000
0.010776 0.000820 0.150000
0.009465 0.000922 0.150000
0.003877 0.007137 0.150000
0.009141 0.000934 0.150000
0.003742 0.007091 0.150000
0.003328 0.006952 0.150000
0.003208 0.006911 0.150000
0.003108 0.006875 0.150000
0.003034 0.006846 0.150000
0.000689 0.004542 0.150000
0.000381 0.003865 0.150000
0.000242 0.003523 0.150000
0.000014 0.002466 0.150000
0.000073 0.002305 0.150000
0.000165 0.002132 0.150000
0.000285 0.001950 0.150000
0.000930 0.001205 0.150000
0.001106 0.001034 0.150000
0.001278 0.000876 0.150000
0.001440 0.000736 0.150000
0.001587 0.000618 0.150000
0.002725 0.000105 0.150000
0.003144 0.000027 0.150000
0.003567 0.000000 0.150000
0.003772 0.000011 0.150000
0.003968 0.000039 0.150000
0.007800 0.000932 0.150000
0.004241 0.007284 0.000000
0.004375 0.007378 0.000000
0.004493 0.007457 0.000000
0.004980 0.007702 0.000000
0.005060 0.007716 0.000000
0.005159 0.007720 0.000000
0.005534 0.007681 0.000000
0.006071 0.007556 0.000000
0.009532 0.006130 0.000000
0.010100 0.005817 0.000000
0.010242 0.005697 0.000000
0.010336 0.005576 0.000000
0.010449 0.005424 0.000000
0.010576 0.005245 0.000000
0.010715 0.005042 0.000000
0.011961 0.002761 0.000000
0.012015 0.002542 0.000000
0.012038 0.002345 0.000000
0.012033 0.002167 0.000000
0.011900 0.001723 0.000000
0.011833 0.001597 0.000000
0.011761 0.001477 0.000000
0.011690 0.001362 0.000000
0.011624 0.001249 0.000000
0.011568 0.001136 0.000000
0.011508 0.001033 0.000000
0.011428 0.000954 0.000000
0.011329 0.000896 0.000000
0.011213 0.000856 0.000000
0.010776 0.000820 0.000000
0.010605 0.000829 0.000000
0.009465 0.000922 0.000000
0.004189 0.007256 0.000000
0.004108 0.007221 0.000000
0.004001 0.007181 0.000000
0.009141 0.000934 0.000000
0.007800 0.000932 0.000000
0.003877 0.007137 0.000000
0.003208 0.006911 0.000000
0.003328 0.006952 0.000000
0.003742 0.007091 0.000000
0.003968 0.000039 0.000000
0.003772 0.000011 0.000000
0.003034 0.006846 0.000000
0.003108 0.006875 0.000000
0.000381 0.003865 0.000000
0.000689 0.004542 0.000000
0.000242 0.003523 0.000000
0.000014 0.002466 0.000000
0.000165 0.002132 0.000000
0.000073 0.002305 0.000000
0.000930 0.001205 0.000000
0.000285 0.001950 0.000000
0.001278 0.000876 0.000000
0.001106 0.001034 0.000000
0.001587 0.000618 0.000000
0.001440 0.000736 0.000000
0.002725 0.000105 0.000000
0.003567 0.000000 0.000000
0.003144 0.000027 0.000000
3 0 1 2
3 0 2 3
3 4 5 6
3 4 6 7
3 8 9 10
3 8 10 11
3 12 13 14
3 12 14 15
3 16 17 18
3 16 18 19
3 20 21 22
3 20 22 23
3 24 25 26
3 24 26 27
3 28 29 30
3 28 30 31
3 15 14 32
3 15 32 33
3 34 35 36
3 36 37 24
3 24 27 38
3 38 39 40
3 40 41 19
3 19 18 42
3 42 43 44
3 44 45 46
3 46 47 48
3 48 49 50
3 50 51 52
3 52 53 3
3 3 2 54
3 54 55 56
3 3 54 56
3 50 52 3
3 46 48 50
3 42 44 46
3 40 19 42
3 24 38 40
3 34 36 24
3 57 58 59
3 59 34 24
3 24 40 42
3 42 46 50
3 50 3 56
3 50 56 60
3 24 42 50
3 61 57 59
3 59 24 50
3 50 60 62
3 50 62 63
3 61 59 50
3 64 65 61
3 28 31 64
3 66 67 28
3 68 66 28
3 28 64 61
3 61 50 63
3 61 63 69
3 68 28 61
3 70 68 61
3 61 69 71
3 71 72 73
3 73 74 75
3 75 23 22
3 22 76 77
3 77 78 8
3 8 11 79
3 79 80 81
3 81 82 83
3 83 84 85
3 85 86 87
3 87 12 15
3 15 33 88
3 88 89 90
3 90 91 92
3 90 92 4
3 15 88 90
3 85 87 15
3 81 83 85
3 8 79 81
3 22 77 8
3 73 75 22
3 61 71 73
3 93 70 61
3 93 61 73
3 73 22 8
3 8 81 85
3 85 15 90
3 85 90 4
3 73 8 85
3 7 93 73
3 85 4 7
3 73 85 7
3 94 95 96
3 96 1 0
3 0 97 98
3 98 99 100
3 100 101 102
3 102 103 104
3 104 105 106
3 106 107 108
3 108 17 16
3 16 109 110
3 110 111 112
3 112 26 25
3 25 113 114
3 114 115 116
3 117 118 119
3 25 114 116
3 117 119 120
3 25 116 117
3 110 112 25
3 108 16 110
3 104 106 108
3 100 102 104
3 0 98 100
3 94 96 0
3 94 0 100
3 100 104 108
3 108 110 25
3 25 117 120
3 120 121 122
3 122 30 29
3 29 123 124
3 29 124 125
3 120 122 29
3 108 25 120
3 94 100 108
3 126 94 108
3 108 120 29
3 108 29 125
3 127 126 108
3 128 127 108
3 108 125 129
3 108 129 130
3 131 128 108
3 132 133 134
3 134 131 108
3 108 130 6
3 5 135 136
3 108 6 5
3 132 134 108
3 137 138 132
3 21 20 137
3 139 140 21
3 9 141 139
3 142 10 9
3 143 144 142
3 145 146 143
3 147 148 145
3 149 150 147
3 14 13 149
3 151 32 14
3 152 153 151
3 5 136 152
3 132 108 5
3 21 137 132
3 9 139 21
3 143 142 9
3 147 145 143
3 14 149 147
3 152 151 14
3 132 5 152
3 9 21 132
3 147 143 9
3 152 14 147
3 9 132 152
3 152 147 9
3 131 134 133
3 128 131 133
3 126 127 128
3 62 60 126
3 63 62 126
3 126 128 133
3 126 133 132
3 69 63 126
3 71 69 126
3 71 126 132
3 72 71 132
3 138 137 75
3 72 132 138
3 73 72 138
3 138 75 74
3 138 74 73
3 95 94 56
3 95 56 55
3 2 1 96
3 96 95 55
3 54 2 96
3 55 54 96
3 105 104 46
3 105 46 45
3 106 105 45
3 106 45 44
3 107 106 44
3 107 44 43
3 18 17 108
3 108 107 43
3 42 18 108
3 108 43 42
3 41 109 16
3 41 16 19
3 47 103 102
3 47 102 48
3 78 141 9
3 78 9 8
3 123 29 28
3 123 28 67
3 124 123 67
3 124 67 66
3 125 124 66
3 125 66 68
3 129 125 68
3 129 68 70
3 7 6 130
3 130 129 70
3 93 7 130
3 70 93 130
3 40 110 109
3 40 109 41
3 151 153 89
3 151 89 88
3 56 94 126
3 56 126 60
3 13 12 87
3 13 87 149
3 139 141 78
3 139 78 77
3 22 21 139
3 139 77 76
3 139 76 22
3 39 111 110
3 39 110 40
3 90 152 136
3 90 136 91
3 99 51 50
3 99 50 100
3 101 100 50
3 101 50 49
3 48 102 101
3 48 101 49
3 65 121 120
3 65 120 61
3 61 120 119
3 61 119 57
3 79 142 144
3 79 144 80
3 91 136 135
3 91 135 92
3 27 26 112
3 27 112 38
3 11 10 142
3 11 142 79
3 80 144 143
3 80 143 81
3 75 137 20
3 75 20 23
3 135 5 4
3 135 4 92
3 114 113 37
3 114 37 36
3 115 114 36
3 115 36 35
3 116 115 35
3 116 35 34
3 117 116 34
3 117 34 59
3 57 119 118
3 118 117 59
3 58 57 118
3 59 58 118
3 31 30 122
3 31 122 64
3 64 122 121
3 64 121 65
3 153 152 90
3 153 90 89
3 46 104 103
3 46 103 47
3 150 149 87
3 150 87 86
3 147 150 86
3 147 86 85
3 83 145 148
3 148 147 85
3 84 83 148
3 85 84 148
3 51 99 98
3 51 98 52
3 33 32 151
3 33 151 88
3 53 97 0
3 53 0 3
3 82 146 145
3 82 145 83
3 81 143 146
3 81 146 82
3 37 113 25
3 37 25 24
3 38 112 111
3 38 111 39
3 52 98 97
3 52 97 53
