ply
format ascii 1.0
comment Created by Blender 3.6.8 - www.blender.org
element vertex 190
property float x
property float y
property float z
element face 375
property list uchar uint vertex_indices
end_header
0.000366 0.007334 0.150000
0.000366 0.007334 0.000000
0.000291 0.007304 0.000000
0.000291 0.007304 0.150000
0.005837 0.000001 0.000000
0.005979 0.000002 0.000000
0.005979 0.000002 0.150000
0.005837 0.000001 0.150000
0.005355 0.000042 0.150000
0.005355 0.000042 0.000000
0.005684 0.000008 0.000000
0.005684 0.000008 0.150000
0.000222 0.007260 0.000000
0.000222 0.007260 0.150000
0.007160 0.004758 0.000000
0.006882 0.005192 0.000000
0.006882 0.005192 0.150000
0.007160 0.004758 0.150000
0.004632 0.006649 0.000000
0.004462 0.006722 0.000000
0.004462 0.006722 0.150000
0.004632 0.006649 0.150000
0.004798 0.006573 0.000000
0.004798 0.006573 0.150000
0.004963 0.006495 0.000000
0.004963 0.006495 0.150000
0.005127 0.006416 0.000000
0.005127 0.006416 0.150000
0.005462 0.006251 0.000000
0.005462 0.006251 0.150000
0.005635 0.006166 0.000000
0.005635 0.006166 0.150000
0.005987 0.005992 0.150000
0.005987 0.005992 0.000000
0.005814 0.006080 0.000000
0.005814 0.006080 0.150000
0.007083 0.000491 0.150000
0.007083 0.000491 0.000000
0.007165 0.000595 0.000000
0.007165 0.000595 0.150000
0.004073 0.000333 0.150000
0.004073 0.000333 0.000000
0.004370 0.000237 0.000000
0.004370 0.000237 0.150000
0.007810 0.002331 0.150000
0.007810 0.002331 0.000000
0.007816 0.002506 0.000000
0.007816 0.002506 0.150000
0.001774 0.002366 0.000000
0.001907 0.002125 0.000000
0.001907 0.002125 0.150000
0.001774 0.002366 0.150000
0.000453 0.004943 0.000000
0.000525 0.004732 0.000000
0.000595 0.004551 0.000000
0.000595 0.004551 0.150000
0.000525 0.004732 0.150000
0.000453 0.004943 0.150000
0.000380 0.005174 0.000000
0.000117 0.006101 0.000000
0.000238 0.005657 0.000000
0.000000 0.006552 0.150000
0.000000 0.006552 0.000000
0.000117 0.006101 0.150000
0.000380 0.005174 0.150000
0.000238 0.005657 0.150000
0.007806 0.002681 0.150000
0.007806 0.002681 0.000000
0.007777 0.002855 0.000000
0.007777 0.002855 0.150000
0.002106 0.001848 0.000000
0.002392 0.001526 0.000000
0.002392 0.001526 0.150000
0.002106 0.001848 0.150000
0.006523 0.000122 0.150000
0.006523 0.000122 0.000000
0.006720 0.000207 0.000000
0.006720 0.000207 0.150000
0.006719 0.005402 0.150000
0.006719 0.005402 0.000000
0.006524 0.005608 0.000000
0.006524 0.005608 0.150000
0.007755 0.001984 0.150000
0.007755 0.001984 0.000000
0.000009 0.006717 0.150000
0.000019 0.006793 0.150000
0.000019 0.006793 0.000000
0.000009 0.006717 0.000000
0.000003 0.006650 0.150000
0.000003 0.006650 0.000000
0.000001 0.006598 0.150000
0.000001 0.006598 0.000000
0.000000 0.006564 0.150000
0.000000 0.006564 0.000000
0.000165 0.007201 0.000000
0.000165 0.007201 0.150000
0.000717 0.007388 0.000000
0.000618 0.007382 0.000000
0.000618 0.007382 0.150000
0.000717 0.007388 0.150000
0.000828 0.007389 0.000000
0.000828 0.007389 0.150000
0.000951 0.007387 0.000000
0.000951 0.007387 0.150000
0.001622 0.007363 0.000000
0.001424 0.007370 0.000000
0.001091 0.007383 0.000000
0.001091 0.007383 0.150000
0.001844 0.007358 0.000000
0.002062 0.007351 0.000000
0.001424 0.007370 0.150000
0.001622 0.007363 0.150000
0.001844 0.007358 0.150000
0.002252 0.007340 0.000000
0.002062 0.007351 0.150000
0.002565 0.007306 0.150000
0.002565 0.007306 0.000000
0.002417 0.007325 0.000000
0.002252 0.007340 0.150000
0.002417 0.007325 0.150000
0.002950 0.007223 0.000000
0.002950 0.007223 0.150000
0.006284 0.005805 0.150000
0.006284 0.005805 0.000000
0.000659 0.004410 0.000000
0.000659 0.004410 0.150000
0.000054 0.006963 0.150000
0.000054 0.006963 0.000000
0.006908 0.000326 0.150000
0.006908 0.000326 0.000000
0.006997 0.000402 0.000000
0.006997 0.000402 0.150000
0.006815 0.000262 0.000000
0.006815 0.000262 0.150000
0.006107 0.000012 0.150000
0.006107 0.000012 0.000000
0.006218 0.000033 0.000000
0.006218 0.000033 0.150000
0.007243 0.000715 0.150000
0.007655 0.001644 0.150000
0.007691 0.003216 0.150000
0.007590 0.003593 0.150000
0.007478 0.003966 0.150000
0.007356 0.004317 0.150000
0.006422 0.000089 0.150000
0.006320 0.000060 0.150000
0.005184 0.000068 0.150000
0.004842 0.000130 0.150000
0.005012 0.000097 0.150000
0.004519 0.000201 0.150000
0.004677 0.000165 0.150000
0.003589 0.000572 0.150000
0.003754 0.000480 0.150000
0.003079 0.000916 0.150000
0.003421 0.000675 0.150000
0.001680 0.002579 0.150000
0.001723 0.002475 0.150000
0.001642 0.002678 0.150000
0.001604 0.002773 0.150000
0.000444 0.007356 0.150000
0.000119 0.007129 0.150000
0.000083 0.007048 0.150000
0.001521 0.002956 0.150000
0.001565 0.002865 0.150000
0.007243 0.000715 0.000000
0.007356 0.004317 0.000000
0.000119 0.007129 0.000000
0.000444 0.007356 0.000000
0.006320 0.000060 0.000000
0.006422 0.000089 0.000000
0.003589 0.000572 0.000000
0.003754 0.000480 0.000000
0.003079 0.000916 0.000000
0.003421 0.000675 0.000000
0.000083 0.007048 0.000000
0.005184 0.000068 0.000000
0.005012 0.000097 0.000000
0.004842 0.000130 0.000000
0.004677 0.000165 0.000000
0.004519 0.000201 0.000000
0.001723 0.002475 0.000000
0.001680 0.002579 0.000000
0.001642 0.002678 0.000000
0.007655 0.001644 0.000000
0.007691 0.003216 0.000000
0.007478 0.003966 0.000000
0.007590 0.003593 0.000000
0.001604 0.002773 0.000000
0.001565 0.002865 0.000000
0.001521 0.002956 0.000000
3 0 1 2
3 0 2 3
3 4 5 6
3 4 6 7
3 8 9 10
3 10 4 7
3 11 8 10
3 7 11 10
3 3 2 12
3 3 12 13
3 14 15 16
3 14 16 17
3 18 19 20
3 18 20 21
3 22 18 21
3 22 21 23
3 24 22 23
3 24 23 25
3 26 24 25
3 26 25 27
3 28 26 27
3 28 27 29
3 30 28 29
3 30 29 31
3 32 33 34
3 34 30 31
3 35 32 34
3 31 35 34
3 36 37 38
3 36 38 39
3 40 41 42
3 40 42 43
3 44 45 46
3 44 46 47
3 48 49 50
3 48 50 51
3 52 53 54
3 54 55 56
3 54 56 57
3 58 52 54
3 59 60 58
3 61 62 59
3 63 61 59
3 59 58 54
3 54 57 64
3 65 63 59
3 54 64 65
3 54 65 59
3 66 67 68
3 66 68 69
3 70 71 72
3 70 72 73
3 50 49 70
3 50 70 73
3 74 75 76
3 74 76 77
3 78 79 80
3 78 80 81
3 45 44 82
3 45 82 83
3 84 85 86
3 84 86 87
3 88 84 87
3 88 87 89
3 90 88 89
3 90 89 91
3 62 61 92
3 92 90 91
3 93 62 92
3 91 93 92
3 13 12 94
3 13 94 95
3 96 97 98
3 96 98 99
3 100 96 99
3 100 99 101
3 102 100 101
3 102 101 103
3 104 105 106
3 106 102 103
3 106 103 107
3 108 104 106
3 109 108 106
3 106 107 110
3 106 110 111
3 109 106 111
3 109 111 112
3 113 109 112
3 113 112 114
3 115 116 117
3 117 113 114
3 117 114 118
3 119 115 117
3 118 119 117
3 120 116 115
3 120 115 121
3 122 123 33
3 122 33 32
3 55 54 124
3 55 124 125
3 126 127 86
3 126 86 85
3 128 129 130
3 128 130 131
3 77 76 132
3 77 132 133
3 79 78 16
3 79 16 15
3 120 121 20
3 120 20 19
3 134 135 136
3 134 136 137
3 47 46 67
3 47 67 66
3 138 139 82
3 82 44 47
3 47 66 69
3 69 140 141
3 141 142 143
3 143 17 16
3 16 78 81
3 81 122 32
3 32 35 31
3 29 27 25
3 32 31 29
3 16 81 32
3 141 143 16
3 47 69 141
3 138 82 47
3 36 39 138
3 128 131 36
3 77 133 128
3 144 74 77
3 137 145 144
3 6 134 137
3 11 7 6
3 146 8 11
3 147 148 146
3 149 150 147
3 40 43 149
3 151 152 40
3 153 154 151
3 73 72 153
3 51 50 73
3 155 156 51
3 157 155 51
3 51 73 153
3 153 151 40
3 40 149 147
3 147 146 11
3 11 6 137
3 137 144 77
3 77 128 36
3 36 138 47
3 47 141 16
3 16 32 29
3 29 25 23
3 23 21 20
3 20 121 115
3 115 119 118
3 118 114 112
3 118 112 111
3 20 115 118
3 29 23 20
3 47 16 29
3 77 36 47
3 11 137 77
3 40 147 11
3 51 153 40
3 158 157 51
3 158 51 40
3 40 11 77
3 77 47 29
3 29 20 118
3 118 111 110
3 110 107 103
3 103 101 99
3 99 98 159
3 159 0 3
3 3 13 95
3 95 160 161
3 161 126 85
3 85 84 88
3 88 90 92
3 92 61 63
3 63 65 64
3 64 57 56
3 56 55 125
3 56 125 162
3 63 64 56
3 88 92 63
3 161 85 88
3 3 95 161
3 99 159 3
3 110 103 99
3 29 118 110
3 40 77 29
3 163 158 40
3 63 56 162
3 162 163 40
3 40 29 110
3 110 99 3
3 3 161 88
3 88 63 162
3 162 40 110
3 110 3 88
3 110 88 162
3 39 38 164
3 39 164 138
3 14 17 143
3 14 143 165
3 95 94 166
3 95 166 160
3 98 97 167
3 98 167 159
3 145 137 136
3 145 136 168
3 75 74 144
3 144 145 168
3 169 75 144
3 168 169 144
3 170 171 152
3 170 152 151
3 153 172 173
3 173 170 151
3 154 153 173
3 151 154 173
3 161 174 127
3 161 127 126
3 71 172 153
3 71 153 72
3 81 80 123
3 81 123 122
3 159 167 1
3 159 1 0
3 5 4 10
3 10 9 175
3 175 176 177
3 177 178 179
3 179 42 41
3 41 171 170
3 170 173 172
3 172 71 70
3 70 49 48
3 48 180 181
3 48 181 182
3 172 70 48
3 41 170 172
3 177 179 41
3 10 175 177
3 135 5 10
3 168 136 135
3 75 169 168
3 132 76 75
3 130 129 132
3 38 37 130
3 183 164 38
3 45 83 183
3 67 46 45
3 184 68 67
3 185 186 184
3 14 165 185
3 79 15 14
3 123 80 79
3 34 33 123
3 30 34 123
3 123 79 14
3 14 185 184
3 184 67 45
3 45 183 38
3 38 130 132
3 132 75 168
3 168 135 10
3 10 177 41
3 41 172 48
3 48 182 187
3 41 48 187
3 168 10 41
3 38 132 168
3 184 45 38
3 123 14 184
3 28 30 123
3 24 26 28
3 18 22 24
3 120 19 18
3 117 116 120
3 109 113 117
3 104 108 109
3 102 106 105
3 104 109 117
3 100 102 105
3 105 104 117
3 117 120 18
3 18 24 28
3 28 123 184
3 184 38 168
3 168 41 187
3 168 187 188
3 28 184 168
3 117 18 28
3 100 105 117
3 97 96 100
3 1 167 97
3 12 2 1
3 166 94 12
3 127 174 166
3 87 86 127
3 91 89 87
3 62 93 91
3 60 59 62
3 52 58 60
3 189 124 54
3 168 188 189
3 117 28 168
3 97 100 117
3 12 1 97
3 127 166 12
3 91 87 127
3 60 62 91
3 54 52 60
3 168 189 54
3 97 117 168
3 127 12 97
3 60 91 127
3 168 54 60
3 127 97 168
3 60 127 168
3 152 171 41
3 152 41 40
3 139 183 83
3 139 83 82
3 182 181 180
3 180 48 51
3 180 51 156
3 187 182 180
3 162 189 188
3 187 180 156
3 162 188 187
3 163 162 187
3 187 156 155
3 187 155 157
3 158 163 187
3 157 158 187
3 133 132 129
3 133 129 128
3 175 9 8
3 175 8 146
3 176 175 146
3 176 146 148
3 177 176 148
3 177 148 147
3 178 177 147
3 178 147 150
3 43 42 179
3 179 178 150
3 149 43 179
3 150 149 179
3 124 189 162
3 124 162 125
3 164 183 139
3 164 139 138
3 131 130 37
3 131 37 36
3 160 166 174
3 160 174 161
3 185 165 143
3 185 143 142
3 186 185 142
3 186 142 141
3 69 68 184
3 184 186 141
3 140 69 184
3 141 140 184
3 6 5 135
3 6 135 134
