ply
format ascii 1.0
comment Created by Blender 3.6.8 - www.blender.org
element vertex 160
property float x
property float y
property float z
element face 314
property list uchar uint vertex_indices
end_header
0.003952 0.004318 0.150000
0.003952 0.004318 0.000000
0.003875 0.004360 0.000000
0.003875 0.004360 0.150000
0.004779 0.002691 0.150000
0.004779 0.002691 0.000000
0.004733 0.002913 0.000000
0.004733 0.002913 0.150000
0.004063 0.000685 0.000000
0.004136 0.000706 0.000000
0.004206 0.000729 0.000000
0.004272 0.000753 0.000000
0.004272 0.000753 0.150000
0.004206 0.000729 0.150000
0.003987 0.000661 0.000000
0.003908 0.000635 0.150000
0.003908 0.000635 0.000000
0.003987 0.000661 0.150000
0.004136 0.000706 0.150000
0.004063 0.000685 0.150000
0.003138 0.004522 0.000000
0.003294 0.004497 0.000000
0.003441 0.004471 0.000000
0.003574 0.004443 0.000000
0.003692 0.004416 0.000000
0.003791 0.004391 0.000000
0.004022 0.004264 0.000000
0.004086 0.004200 0.000000
0.004147 0.004125 0.000000
0.004260 0.003950 0.000000
0.004659 0.003146 0.000000
0.004795 0.002582 0.000000
0.004807 0.002476 0.000000
0.004817 0.002371 0.000000
0.004825 0.002267 0.000000
0.004833 0.002164 0.000000
0.004842 0.002062 0.000000
0.004848 0.001962 0.000000
0.002809 0.004560 0.000000
0.002975 0.004543 0.000000
0.002323 0.004571 0.000000
0.002643 0.004571 0.000000
0.001767 0.004450 0.000000
0.002040 0.004534 0.000000
0.001197 0.004196 0.000000
0.001476 0.004329 0.000000
0.000132 0.002917 0.000000
0.000737 0.003946 0.000000
0.000023 0.002590 0.000000
0.000068 0.002753 0.000000
0.000007 0.002277 0.000000
0.000001 0.002431 0.000000
0.000173 0.001601 0.000000
0.000070 0.001954 0.000000
0.000488 0.000917 0.000000
0.000312 0.001247 0.000000
0.000698 0.000639 0.000000
0.000589 0.000770 0.000000
0.000942 0.000440 0.000000
0.000816 0.000528 0.000000
0.001339 0.000233 0.000000
0.001205 0.000297 0.000000
0.001747 0.000078 0.000000
0.001475 0.000174 0.000000
0.002288 0.000001 0.000000
0.002020 0.000018 0.000000
0.002550 0.000035 0.000000
0.002420 0.000011 0.000000
0.002800 0.000111 0.000000
0.002677 0.000070 0.000000
0.003036 0.000208 0.000000
0.002920 0.000157 0.000000
0.003258 0.000315 0.000000
0.003149 0.000261 0.000000
0.003654 0.000523 0.000000
0.004847 0.001866 0.000000
0.004827 0.001684 0.000000
0.004787 0.001511 0.000000
0.004731 0.001347 0.000000
0.004698 0.001267 0.000000
0.004663 0.001189 0.000000
0.004626 0.001110 0.000000
0.004587 0.001033 0.000000
0.004546 0.000962 0.000000
0.004500 0.000903 0.000000
0.004449 0.000854 0.000000
0.004394 0.000814 0.000000
0.004335 0.000781 0.000000
0.003743 0.000567 0.000000
0.003827 0.000604 0.000000
0.004833 0.002164 0.150000
0.004825 0.002267 0.150000
0.004817 0.002371 0.150000
0.004807 0.002476 0.150000
0.004795 0.002582 0.150000
0.004659 0.003146 0.150000
0.004260 0.003950 0.150000
0.004147 0.004125 0.150000
0.004086 0.004200 0.150000
0.004022 0.004264 0.150000
0.003791 0.004391 0.150000
0.003692 0.004416 0.150000
0.003574 0.004443 0.150000
0.003441 0.004471 0.150000
0.003294 0.004497 0.150000
0.003138 0.004522 0.150000
0.002975 0.004543 0.150000
0.002809 0.004560 0.150000
0.002643 0.004571 0.150000
0.002323 0.004571 0.150000
0.002040 0.004534 0.150000
0.001767 0.004450 0.150000
0.001476 0.004329 0.150000
0.001197 0.004196 0.150000
0.000737 0.003946 0.150000
0.000132 0.002917 0.150000
0.000068 0.002753 0.150000
0.000023 0.002590 0.150000
0.000001 0.002431 0.150000
0.000007 0.002277 0.150000
0.000070 0.001954 0.150000
0.000173 0.001601 0.150000
0.000312 0.001247 0.150000
0.000488 0.000917 0.150000
0.000589 0.000770 0.150000
0.000698 0.000639 0.150000
0.000816 0.000528 0.150000
0.000942 0.000440 0.150000
0.001205 0.000297 0.150000
0.001339 0.000233 0.150000
0.001475 0.000174 0.150000
0.001747 0.000078 0.150000
0.002020 0.000018 0.150000
0.002288 0.000001 0.150000
0.002420 0.000011 0.150000
0.002550 0.000035 0.150000
0.002677 0.000070 0.150000
0.002800 0.000111 0.150000
0.002920 0.000157 0.150000
0.003036 0.000208 0.150000
0.003149 0.000261 0.150000
0.003258 0.000315 0.150000
0.003654 0.000523 0.150000
0.004848 0.001962 0.150000
0.004842 0.002062 0.150000
0.004827 0.001684 0.150000
0.004847 0.001866 0.150000
0.004731 0.001347 0.150000
0.004787 0.001511 0.150000
0.004663 0.001189 0.150000
0.004698 0.001267 0.150000
0.004587 0.001033 0.150000
0.004626 0.001110 0.150000
0.004500 0.000903 0.150000
0.004546 0.000962 0.150000
0.004394 0.000814 0.150000
0.004449 0.000854 0.150000
0.004335 0.000781 0.150000
0.003743 0.000567 0.150000
0.003827 0.000604 0.150000
3 0 1 2
3 0 2 3
3 4 5 6
3 4 6 7
3 8 9 10
3 10 11 12
3 10 12 13
3 14 8 10
3 15 16 14
3 17 15 14
3 14 10 13
3 14 13 18
3 19 17 14
3 14 18 19
3 20 21 22
3 22 23 24
3 24 25 2
3 2 1 26
3 26 27 28
3 28 29 30
3 30 6 5
3 5 31 32
3 32 33 34
3 35 36 37
3 32 34 35
3 30 5 32
3 26 28 30
3 24 2 26
3 20 22 24
3 38 39 20
3 40 41 38
3 42 43 40
3 44 45 42
3 46 47 44
3 48 49 46
3 50 51 48
3 52 53 50
3 54 55 52
3 56 57 54
3 58 59 56
3 60 61 58
3 62 63 60
3 64 65 62
3 66 67 64
3 68 69 66
3 70 71 68
3 72 73 70
3 74 72 70
3 70 68 66
3 66 64 62
3 62 60 58
3 58 56 54
3 54 52 50
3 50 48 46
3 46 44 42
3 42 40 38
3 38 20 24
3 24 26 30
3 30 32 35
3 35 37 75
3 75 76 77
3 77 78 79
3 79 80 81
3 81 82 83
3 83 84 85
3 85 86 87
3 87 11 10
3 85 87 10
3 81 83 85
3 77 79 81
3 35 75 77
3 24 30 35
3 42 38 24
3 50 46 42
3 58 54 50
3 66 62 58
3 74 70 66
3 88 74 66
3 66 58 50
3 50 42 24
3 24 35 77
3 77 81 85
3 85 10 14
3 85 14 16
3 24 77 85
3 66 50 24
3 88 66 24
3 24 85 16
3 89 88 24
3 24 16 89
3 90 91 92
3 92 93 94
3 94 4 7
3 7 95 96
3 96 97 98
3 98 99 0
3 0 3 100
3 100 101 102
3 102 103 104
3 104 105 106
3 106 107 108
3 108 109 110
3 110 111 112
3 112 113 114
3 114 115 116
3 116 117 118
3 118 119 120
3 120 121 122
3 122 123 124
3 124 125 126
3 126 127 128
3 128 129 130
3 130 131 132
3 132 133 134
3 134 135 136
3 136 137 138
3 138 139 140
3 140 141 142
3 138 140 142
3 134 136 138
3 130 132 134
3 126 128 130
3 122 124 126
3 118 120 122
3 114 116 118
3 110 112 114
3 106 108 110
3 102 104 106
3 0 100 102
3 96 98 0
3 94 7 96
3 90 92 94
3 143 144 90
3 145 146 143
3 147 148 145
3 149 150 147
3 151 152 149
3 153 154 151
3 155 156 153
3 12 157 155
3 18 13 12
3 19 18 12
3 12 155 153
3 153 151 149
3 149 147 145
3 145 143 90
3 90 94 96
3 96 0 102
3 102 106 110
3 110 114 118
3 118 122 126
3 126 130 134
3 134 138 142
3 134 142 158
3 118 126 134
3 102 110 118
3 90 96 102
3 149 145 90
3 12 153 149
3 17 19 12
3 17 12 149
3 149 90 102
3 102 118 134
3 134 158 159
3 15 17 149
3 102 134 159
3 159 15 149
3 102 159 149
3 155 86 85
3 155 85 156
3 156 85 84
3 156 84 153
3 118 51 50
3 118 50 119
3 153 84 83
3 153 83 154
3 69 68 71
3 71 138 137
3 136 135 66
3 71 137 136
3 66 69 71
3 71 136 66
3 157 87 86
3 157 86 155
3 134 67 66
3 134 66 135
3 115 46 49
3 115 49 116
3 55 54 123
3 55 123 122
3 30 29 96
3 30 96 95
3 121 52 55
3 121 55 122
3 78 77 148
3 78 148 147
3 45 44 47
3 47 114 113
3 112 111 42
3 47 113 112
3 42 45 47
3 47 112 42
3 47 46 115
3 47 115 114
3 77 76 145
3 77 145 148
3 31 5 4
3 31 4 94
3 32 31 94
3 32 94 93
3 33 32 93
3 33 93 92
3 36 35 34
3 34 33 92
3 34 92 91
3 143 37 36
3 36 34 91
3 36 91 90
3 144 143 36
3 90 144 36
3 96 29 28
3 96 28 97
3 117 48 51
3 117 51 118
3 62 65 132
3 62 132 131
3 125 56 59
3 125 59 126
3 123 54 57
3 123 57 124
3 53 52 121
3 53 121 120
3 146 75 37
3 146 37 143
3 79 78 147
3 79 147 150
3 80 79 150
3 80 150 149
3 151 82 81
3 81 80 149
3 152 151 81
3 149 152 81
3 97 28 27
3 97 27 98
3 154 83 82
3 154 82 151
3 60 63 130
3 60 130 129
3 127 58 61
3 61 60 129
3 128 127 61
3 61 129 128
3 38 41 108
3 38 108 107
3 39 38 107
3 39 107 106
3 104 21 20
3 20 39 106
3 105 104 20
3 106 105 20
3 133 64 67
3 133 67 134
3 98 27 26
3 98 26 99
3 116 49 48
3 116 48 117
3 43 42 111
3 43 111 110
3 7 6 30
3 7 30 95
3 50 53 120
3 50 120 119
3 3 2 25
3 3 25 100
3 139 138 71
3 139 71 70
3 140 139 70
3 140 70 73
3 141 140 73
3 72 74 88
3 141 73 72
3 142 141 72
3 72 88 89
3 89 16 15
3 89 15 159
3 142 72 89
3 89 159 158
3 89 158 142
3 145 76 75
3 145 75 146
3 124 57 56
3 124 56 125
3 41 40 109
3 41 109 108
3 99 26 1
3 99 1 0
3 22 21 104
3 22 104 103
3 23 22 103
3 23 103 102
3 100 25 24
3 24 23 102
3 101 100 24
3 24 102 101
3 109 40 43
3 109 43 110
3 126 59 58
3 126 58 127
3 12 11 87
3 12 87 157
3 132 65 64
3 132 64 133
3 63 62 131
3 63 131 130
