ply
format ascii 1.0
comment Created by Blender 3.6.8 - www.blender.org
element vertex 200
property float x
property float y
property float z
element face 393
property list uchar uint vertex_indices
end_header
0.002388 0.004065 0.000000
0.002369 0.004046 0.000000
0.002369 0.004046 0.150000
0.002388 0.004065 0.150000
0.002444 0.004119 0.000000
0.002444 0.004119 0.150000
0.002528 0.004203 0.000000
0.002528 0.004203 0.150000
0.002635 0.004311 0.000000
0.002635 0.004311 0.150000
0.002760 0.004438 0.000000
0.002760 0.004438 0.150000
0.002895 0.004579 0.000000
0.002895 0.004579 0.150000
0.003034 0.004728 0.000000
0.003034 0.004728 0.150000
0.003301 0.005031 0.150000
0.003301 0.005031 0.000000
0.003172 0.004880 0.000000
0.003172 0.004880 0.150000
0.005671 0.008799 0.150000
0.005671 0.008799 0.000000
0.005594 0.008811 0.000000
0.005594 0.008811 0.150000
0.005520 0.008812 0.000000
0.005751 0.008776 0.000000
0.005922 0.008705 0.000000
0.006496 0.008393 0.000000
0.006601 0.008311 0.000000
0.006714 0.008176 0.000000
0.006832 0.007996 0.000000
0.006953 0.007780 0.000000
0.007075 0.007535 0.000000
0.007198 0.007269 0.000000
0.007319 0.006991 0.000000
0.007437 0.006708 0.000000
0.007550 0.006429 0.000000
0.007655 0.006161 0.000000
0.007753 0.005912 0.000000
0.007840 0.005691 0.000000
0.007911 0.005502 0.000000
0.008004 0.005198 0.000000
0.008029 0.005071 0.000000
0.008049 0.004841 0.000000
0.008047 0.004725 0.000000
0.008041 0.004602 0.000000
0.008033 0.004465 0.000000
0.005372 0.008774 0.000000
0.005450 0.008800 0.000000
0.004658 0.008387 0.000000
0.004913 0.008550 0.000000
0.004345 0.008106 0.000000
0.004434 0.008203 0.000000
0.004233 0.007912 0.000000
0.004276 0.008009 0.000000
0.003834 0.005983 0.000000
0.008024 0.004309 0.000000
0.008017 0.004127 0.000000
0.008011 0.003710 0.000000
0.008001 0.003549 0.000000
0.007984 0.003425 0.000000
0.007959 0.003330 0.000000
0.007928 0.003255 0.000000
0.007890 0.003192 0.000000
0.007844 0.003133 0.000000
0.007732 0.002997 0.000000
0.003780 0.005831 0.000000
0.007664 0.002903 0.000000
0.003581 0.005416 0.000000
0.003512 0.005304 0.000000
0.007589 0.002782 0.000000
0.007419 0.002457 0.000000
0.007328 0.002307 0.000000
0.007234 0.002174 0.000000
0.007036 0.001943 0.000000
0.006132 0.001094 0.000000
0.005773 0.000849 0.000000
0.005326 0.000617 0.000000
0.005082 0.000509 0.000000
0.004830 0.000408 0.000000
0.004575 0.000315 0.000000
0.004322 0.000231 0.000000
0.003622 0.000047 0.000000
0.003177 0.000001 0.000000
0.002691 0.000021 0.000000
0.002439 0.000052 0.000000
0.002185 0.000095 0.000000
0.001932 0.000149 0.000000
0.001682 0.000212 0.000000
0.001203 0.000362 0.000000
0.000979 0.000446 0.000000
0.000769 0.000533 0.000000
0.000583 0.000632 0.000000
0.000430 0.000749 0.000000
0.000305 0.000882 0.000000
0.000207 0.001028 0.000000
0.000132 0.001184 0.000000
0.000077 0.001347 0.000000
0.000039 0.001514 0.000000
0.000004 0.001848 0.000000
0.000000 0.002009 0.000000
0.000002 0.002163 0.000000
0.000007 0.002305 0.000000
0.000050 0.002448 0.000000
0.000162 0.002601 0.000000
0.000330 0.002762 0.000000
0.000787 0.003093 0.000000
0.001051 0.003257 0.000000
0.001323 0.003417 0.000000
0.001840 0.003712 0.000000
0.002062 0.003841 0.000000
0.002242 0.003953 0.000000
0.008049 0.004841 0.150000
0.008047 0.004725 0.150000
0.008001 0.003549 0.150000
0.008011 0.003710 0.150000
0.008041 0.004602 0.150000
0.008017 0.004127 0.150000
0.008024 0.004309 0.150000
0.008033 0.004465 0.150000
0.004345 0.008106 0.150000
0.004276 0.008009 0.150000
0.006714 0.008176 0.150000
0.006601 0.008311 0.150000
0.001682 0.000212 0.150000
0.001203 0.000362 0.150000
0.000769 0.000533 0.150000
0.000979 0.000446 0.150000
0.000330 0.002762 0.150000
0.000162 0.002601 0.150000
0.000430 0.000749 0.150000
0.000583 0.000632 0.150000
0.005326 0.000617 0.150000
0.005773 0.000849 0.150000
0.007036 0.001943 0.150000
0.006132 0.001094 0.150000
0.002691 0.000021 0.150000
0.003177 0.000001 0.150000
0.004913 0.008550 0.150000
0.005372 0.008774 0.150000
0.008004 0.005198 0.150000
0.007911 0.005502 0.150000
0.000787 0.003093 0.150000
0.001051 0.003257 0.150000
0.001323 0.003417 0.150000
0.002062 0.003841 0.150000
0.002242 0.003953 0.150000
0.001840 0.003712 0.150000
0.007732 0.002997 0.150000
0.007844 0.003133 0.150000
0.007890 0.003192 0.150000
0.007928 0.003255 0.150000
0.007959 0.003330 0.150000
0.007984 0.003425 0.150000
0.007664 0.002903 0.150000
0.008029 0.005071 0.150000
0.007840 0.005691 0.150000
0.007753 0.005912 0.150000
0.007655 0.006161 0.150000
0.007550 0.006429 0.150000
0.007589 0.002782 0.150000
0.007328 0.002307 0.150000
0.007419 0.002457 0.150000
0.007234 0.002174 0.150000
0.005082 0.000509 0.150000
0.004575 0.000315 0.150000
0.004830 0.000408 0.150000
0.003622 0.000047 0.150000
0.004322 0.000231 0.150000
0.002185 0.000095 0.150000
0.002439 0.000052 0.150000
0.001932 0.000149 0.150000
0.000305 0.000882 0.150000
0.000132 0.001184 0.150000
0.000207 0.001028 0.150000
0.000039 0.001514 0.150000
0.000077 0.001347 0.150000
0.000000 0.002009 0.150000
0.000004 0.001848 0.150000
0.000007 0.002305 0.150000
0.000002 0.002163 0.150000
0.000050 0.002448 0.150000
0.007437 0.006708 0.150000
0.007319 0.006991 0.150000
0.007198 0.007269 0.150000
0.007075 0.007535 0.150000
0.006953 0.007780 0.150000
0.006832 0.007996 0.150000
0.006496 0.008393 0.150000
0.005922 0.008705 0.150000
0.005751 0.008776 0.150000
0.005520 0.008812 0.150000
0.005450 0.008800 0.150000
0.004658 0.008387 0.150000
0.004434 0.008203 0.150000
0.004233 0.007912 0.150000
0.003834 0.005983 0.150000
0.003780 0.005831 0.150000
0.003581 0.005416 0.150000
0.003512 0.005304 0.150000
3 0 1 2
3 0 2 3
3 4 0 3
3 4 3 5
3 6 4 5
3 6 5 7
3 8 6 7
3 8 7 9
3 10 8 9
3 10 9 11
3 12 10 11
3 12 11 13
3 14 12 13
3 14 13 15
3 16 17 18
3 18 14 15
3 19 16 18
3 18 15 19
3 20 21 22
3 20 22 23
3 24 22 21
3 21 25 26
3 26 27 28
3 28 29 30
3 30 31 32
3 32 33 34
3 34 35 36
3 36 37 38
3 38 39 40
3 40 41 42
3 42 43 44
3 44 45 46
3 42 44 46
3 38 40 42
3 34 36 38
3 30 32 34
3 26 28 30
3 24 21 26
3 47 48 24
3 49 50 47
3 51 52 49
3 53 54 51
3 55 53 51
3 51 49 47
3 47 24 26
3 26 30 34
3 34 38 42
3 42 46 56
3 57 58 59
3 42 56 57
3 26 34 42
3 51 47 26
3 55 51 26
3 26 42 57
3 57 59 60
3 60 61 62
3 62 63 64
3 62 64 65
3 57 60 62
3 55 26 57
3 66 55 57
3 57 62 65
3 57 65 67
3 68 66 57
3 69 68 57
3 57 67 70
3 70 71 72
3 72 73 74
3 74 75 76
3 76 77 78
3 78 79 80
3 80 81 82
3 82 83 84
3 84 85 86
3 86 87 88
3 88 89 90
3 90 91 92
3 92 93 94
3 94 95 96
3 96 97 98
3 98 99 100
3 100 101 102
3 102 103 104
3 104 105 106
3 106 107 108
3 106 108 109
3 102 104 106
3 98 100 102
3 94 96 98
3 90 92 94
3 86 88 90
3 82 84 86
3 78 80 82
3 74 76 78
3 70 72 74
3 69 57 70
3 17 69 70
3 70 74 78
3 78 82 86
3 86 90 94
3 94 98 102
3 102 106 109
3 102 109 110
3 86 94 102
3 70 78 86
3 18 17 70
3 14 18 70
3 70 86 102
3 102 110 111
3 102 111 1
3 12 14 70
3 10 12 70
3 70 102 1
3 70 1 0
3 8 10 70
3 6 8 70
3 70 0 4
3 70 4 6
3 56 46 45
3 44 43 112
3 57 56 45
3 45 44 112
3 45 112 113
3 58 57 45
3 114 59 58
3 115 114 58
3 58 45 113
3 58 113 116
3 117 115 58
3 118 117 58
3 58 116 119
3 119 118 58
3 120 51 54
3 120 54 121
3 122 29 28
3 122 28 123
3 91 90 89
3 89 88 124
3 89 124 125
3 126 91 89
3 89 125 127
3 89 127 126
3 128 105 104
3 128 104 129
3 130 93 92
3 130 92 131
3 132 77 76
3 132 76 133
3 74 134 135
3 74 135 75
3 136 84 83
3 136 83 137
3 47 50 138
3 47 138 139
3 140 41 40
3 140 40 141
3 107 106 142
3 107 142 143
3 110 109 108
3 108 107 143
3 108 143 144
3 111 110 108
3 145 146 111
3 108 144 147
3 147 145 111
3 108 147 111
3 148 149 150
3 150 151 152
3 152 153 114
3 114 115 117
3 152 114 117
3 148 150 152
3 154 148 152
3 152 117 118
3 119 116 113
3 152 118 119
3 154 152 119
3 119 113 112
3 112 155 140
3 140 141 156
3 157 158 159
3 140 156 157
3 119 112 140
3 160 154 119
3 161 162 160
3 134 163 161
3 133 135 134
3 164 132 133
3 165 166 164
3 167 168 165
3 136 137 167
3 169 170 136
3 124 171 169
3 127 125 124
3 131 126 127
3 172 130 131
3 173 174 172
3 175 176 173
3 177 178 175
3 179 180 177
3 129 181 179
3 142 128 129
3 144 143 142
3 147 144 142
3 142 129 179
3 179 177 175
3 175 173 172
3 172 131 127
3 127 124 169
3 169 136 167
3 167 165 164
3 164 133 134
3 134 161 160
3 160 119 140
3 140 157 159
3 159 182 183
3 183 184 185
3 185 186 187
3 187 122 123
3 123 188 189
3 189 190 20
3 20 23 191
3 191 192 139
3 139 138 193
3 193 194 120
3 120 121 195
3 120 195 196
3 139 193 120
3 20 191 139
3 123 189 20
3 185 187 123
3 159 183 185
3 160 140 159
3 164 134 160
3 169 167 164
3 172 127 169
3 179 175 172
3 147 142 179
3 145 147 179
3 179 172 169
3 169 164 160
3 160 159 185
3 185 123 20
3 20 139 120
3 20 120 196
3 160 185 20
3 179 169 160
3 146 145 179
3 2 146 179
3 160 20 196
3 160 196 197
3 2 179 160
3 3 2 160
3 160 197 198
3 160 198 199
3 5 3 160
3 7 5 160
3 160 199 16
3 160 16 19
3 9 7 160
3 11 9 160
3 160 19 15
3 13 11 160
3 160 15 13
3 69 17 16
3 69 16 199
3 163 73 72
3 163 72 161
3 175 98 97
3 175 97 176
3 68 198 197
3 68 197 66
3 194 52 51
3 194 51 120
3 55 66 197
3 55 197 196
3 134 74 73
3 134 73 163
3 70 67 154
3 70 154 160
3 161 72 71
3 71 70 160
3 162 161 71
3 160 162 71
3 181 103 102
3 181 102 179
3 85 84 136
3 85 136 170
3 86 85 170
3 86 170 169
3 124 88 87
3 87 86 169
3 171 124 87
3 169 171 87
3 105 128 142
3 105 142 106
3 64 63 150
3 64 150 149
3 154 67 65
3 65 64 149
3 148 154 65
3 149 148 65
3 53 55 196
3 53 196 195
3 152 61 60
3 152 60 153
3 153 60 59
3 153 59 114
3 133 76 75
3 133 75 135
3 43 42 155
3 43 155 112
3 23 22 24
3 23 24 191
3 155 42 41
3 155 41 140
3 173 96 95
3 173 95 174
3 81 168 167
3 81 167 82
3 189 26 25
3 189 25 190
3 192 48 47
3 192 47 139
3 187 30 29
3 187 29 122
3 100 99 178
3 100 178 177
3 179 102 101
3 101 100 177
3 180 179 101
3 101 177 180
3 174 95 94
3 174 94 172
3 2 1 111
3 2 111 146
3 129 104 103
3 129 103 181
3 150 63 62
3 150 62 151
3 176 97 96
3 176 96 173
3 121 54 53
3 121 53 195
3 190 25 21
3 190 21 20
3 178 99 98
3 178 98 175
3 78 77 132
3 78 132 164
3 79 78 164
3 79 164 166
3 168 81 80
3 80 79 166
3 165 168 80
3 166 165 80
3 151 62 61
3 151 61 152
3 33 32 31
3 31 30 187
3 31 187 186
3 34 33 31
3 156 141 40
3 157 156 40
3 40 38 36
3 36 34 31
3 31 186 185
3 31 185 184
3 40 36 31
3 158 157 40
3 159 158 40
3 40 31 184
3 40 184 183
3 182 159 40
3 183 182 40
3 131 92 91
3 131 91 126
3 191 24 48
3 191 48 192
3 172 94 93
3 172 93 130
3 198 68 69
3 198 69 199
3 52 194 193
3 52 193 49
3 137 83 82
3 137 82 167
3 123 28 27
3 123 27 188
3 138 50 49
3 138 49 193
3 27 26 189
3 27 189 188
