ply
format ascii 1.0
comment Created by Blender 3.6.8 - www.blender.org
element vertex 226
property float x
property float y
property float z
element face 443
property list uchar uint vertex_indices
end_header
0.007352 0.000636 0.000000
0.007617 0.001365 0.000000
0.007658 0.001468 0.000000
0.007702 0.001570 0.000000
0.007702 0.001570 0.150000
0.007658 0.001468 0.150000
0.007309 0.000532 0.150000
0.007309 0.000532 0.000000
0.007617 0.001365 0.150000
0.007352 0.000636 0.150000
0.000093 0.003766 0.150000
0.000093 0.003766 0.000000
0.000067 0.003726 0.000000
0.000067 0.003726 0.150000
0.008215 0.002375 0.000000
0.008281 0.002489 0.000000
0.008281 0.002489 0.150000
0.008215 0.002375 0.150000
0.008151 0.002277 0.000000
0.008151 0.002277 0.150000
0.008089 0.002189 0.000000
0.008089 0.002189 0.150000
0.007857 0.001867 0.150000
0.007857 0.001867 0.000000
0.007913 0.001952 0.000000
0.007913 0.001952 0.150000
0.000291 0.002745 0.150000
0.000291 0.002745 0.000000
0.000345 0.002694 0.000000
0.000345 0.002694 0.150000
0.003402 0.000412 0.150000
0.003402 0.000412 0.000000
0.003499 0.000360 0.000000
0.003499 0.000360 0.150000
0.000045 0.003682 0.150000
0.000045 0.003682 0.000000
0.000026 0.003635 0.000000
0.000026 0.003635 0.150000
0.007071 0.006904 0.000000
0.006995 0.006898 0.000000
0.006995 0.006898 0.150000
0.007071 0.006904 0.150000
0.007154 0.006909 0.000000
0.007154 0.006909 0.150000
0.007243 0.006912 0.000000
0.007243 0.006912 0.150000
0.007428 0.006915 0.000000
0.007428 0.006915 0.150000
0.007518 0.006915 0.000000
0.007518 0.006915 0.150000
0.007602 0.006914 0.000000
0.007602 0.006914 0.150000
0.007745 0.006906 0.150000
0.007745 0.006906 0.000000
0.007679 0.006911 0.000000
0.007679 0.006911 0.150000
0.008639 0.006212 0.150000
0.008639 0.006212 0.000000
0.008577 0.006297 0.000000
0.008577 0.006297 0.150000
0.002564 0.001469 0.150000
0.002564 0.001469 0.000000
0.002631 0.001419 0.000000
0.002631 0.001419 0.150000
0.003877 0.000228 0.000000
0.003613 0.000312 0.000000
0.003317 0.000473 0.000000
0.003234 0.000547 0.000000
0.003078 0.000722 0.000000
0.002939 0.000916 0.000000
0.002877 0.001012 0.000000
0.002821 0.001104 0.000000
0.002669 0.001376 0.000000
0.004165 0.000160 0.000000
0.004686 0.000072 0.000000
0.004445 0.000108 0.000000
0.005256 0.000021 0.000000
0.004856 0.000052 0.000000
0.005776 0.000000 0.000000
0.005518 0.000007 0.000000
0.006084 0.000015 0.000000
0.005894 0.000001 0.000000
0.006976 0.000232 0.000000
0.006740 0.000151 0.000000
0.007176 0.000355 0.000000
0.007083 0.000288 0.000000
0.007253 0.000436 0.000000
0.002475 0.001523 0.000000
0.001591 0.001955 0.000000
0.001540 0.001987 0.000000
0.008721 0.003574 0.000000
0.008421 0.002780 0.000000
0.008975 0.004162 0.000000
0.008942 0.004063 0.000000
0.009007 0.004382 0.000000
0.008997 0.004267 0.000000
0.008986 0.004674 0.000000
0.009004 0.004516 0.000000
0.008790 0.005811 0.000000
0.008814 0.005688 0.000000
0.008689 0.006122 0.000000
0.008729 0.006026 0.000000
0.008279 0.006597 0.000000
0.008503 0.006380 0.000000
0.008150 0.006711 0.000000
0.008213 0.006657 0.000000
0.007918 0.006861 0.000000
0.008031 0.006799 0.000000
0.007804 0.006898 0.000000
0.007861 0.006883 0.000000
0.006882 0.006883 0.000000
0.006630 0.006785 0.000000
0.006848 0.006874 0.000000
0.005914 0.006431 0.000000
0.001493 0.002020 0.000000
0.005749 0.006362 0.000000
0.000534 0.002585 0.000000
0.000463 0.002619 0.000000
0.000402 0.002651 0.000000
0.005532 0.006282 0.000000
0.004403 0.005910 0.000000
0.000240 0.002804 0.000000
0.000152 0.002939 0.000000
0.000082 0.003089 0.000000
0.000032 0.003244 0.000000
0.000004 0.003393 0.000000
0.000000 0.003462 0.000000
0.000003 0.003525 0.000000
0.000012 0.003582 0.000000
0.000147 0.003835 0.000000
0.000175 0.003866 0.000000
0.000202 0.003895 0.000000
0.000227 0.003923 0.000000
0.000280 0.003977 0.000000
0.004133 0.005830 0.000000
0.003876 0.005761 0.000000
0.000383 0.004081 0.000000
0.000525 0.004224 0.000000
0.000697 0.004396 0.000000
0.001282 0.004980 0.000000
0.001871 0.005566 0.000000
0.002459 0.005537 0.000000
0.002590 0.005532 0.000000
0.002671 0.005534 0.000000
0.002631 0.005532 0.000000
0.000082 0.003089 0.150000
0.000152 0.002939 0.150000
0.000000 0.003462 0.150000
0.000004 0.003393 0.150000
0.008150 0.006711 0.150000
0.008213 0.006657 0.150000
0.008279 0.006597 0.150000
0.008503 0.006380 0.150000
0.006882 0.006883 0.150000
0.006848 0.006874 0.150000
0.002459 0.005537 0.150000
0.001871 0.005566 0.150000
0.001282 0.004980 0.150000
0.000697 0.004396 0.150000
0.000525 0.004224 0.150000
0.000383 0.004081 0.150000
0.000280 0.003977 0.150000
0.000227 0.003923 0.150000
0.000202 0.003895 0.150000
0.000175 0.003866 0.150000
0.000147 0.003835 0.150000
0.000012 0.003582 0.150000
0.000003 0.003525 0.150000
0.000032 0.003244 0.150000
0.000240 0.002804 0.150000
0.000402 0.002651 0.150000
0.000463 0.002619 0.150000
0.000534 0.002585 0.150000
0.002590 0.005532 0.150000
0.001493 0.002020 0.150000
0.001540 0.001987 0.150000
0.001591 0.001955 0.150000
0.002631 0.005532 0.150000
0.002671 0.005534 0.150000
0.002475 0.001523 0.150000
0.003876 0.005761 0.150000
0.004133 0.005830 0.150000
0.004403 0.005910 0.150000
0.005532 0.006282 0.150000
0.002669 0.001376 0.150000
0.002821 0.001104 0.150000
0.002877 0.001012 0.150000
0.002939 0.000916 0.150000
0.003078 0.000722 0.150000
0.003234 0.000547 0.150000
0.003317 0.000473 0.150000
0.003613 0.000312 0.150000
0.003877 0.000228 0.150000
0.004165 0.000160 0.150000
0.004445 0.000108 0.150000
0.004686 0.000072 0.150000
0.004856 0.000052 0.150000
0.005256 0.000021 0.150000
0.005518 0.000007 0.150000
0.005776 0.000000 0.150000
0.005894 0.000001 0.150000
0.006084 0.000015 0.150000
0.006740 0.000151 0.150000
0.006976 0.000232 0.150000
0.007083 0.000288 0.150000
0.007176 0.000355 0.150000
0.007253 0.000436 0.150000
0.005749 0.006362 0.150000
0.005914 0.006431 0.150000
0.006630 0.006785 0.150000
0.007861 0.006883 0.150000
0.007804 0.006898 0.150000
0.008031 0.006799 0.150000
0.007918 0.006861 0.150000
0.008729 0.006026 0.150000
0.008689 0.006122 0.150000
0.008814 0.005688 0.150000
0.008790 0.005811 0.150000
0.009004 0.004516 0.150000
0.008986 0.004674 0.150000
0.008997 0.004267 0.150000
0.009007 0.004382 0.150000
0.008942 0.004063 0.150000
0.008975 0.004162 0.150000
0.008421 0.002780 0.150000
0.008721 0.003574 0.150000
3 0 1 2
3 2 3 4
3 2 4 5
3 6 7 0
3 0 2 5
3 0 5 8
3 9 6 0
3 8 9 0
3 10 11 12
3 10 12 13
3 14 15 16
3 14 16 17
3 18 14 17
3 18 17 19
3 20 18 19
3 20 19 21
3 22 23 24
3 24 20 21
3 25 22 24
3 21 25 24
3 26 27 28
3 26 28 29
3 30 31 32
3 30 32 33
3 34 35 36
3 34 36 37
3 38 39 40
3 38 40 41
3 42 38 41
3 42 41 43
3 44 42 43
3 44 43 45
3 46 44 45
3 46 45 47
3 48 46 47
3 48 47 49
3 50 48 49
3 50 49 51
3 52 53 54
3 54 50 51
3 55 52 54
3 51 55 54
3 56 57 58
3 56 58 59
3 60 61 62
3 60 62 63
3 64 65 32
3 32 31 66
3 66 67 68
3 68 69 70
3 70 71 72
3 68 70 72
3 32 66 68
3 73 64 32
3 74 75 73
3 76 77 74
3 78 79 76
3 80 81 78
3 82 83 80
3 84 85 82
3 7 86 84
3 1 0 7
3 1 7 84
3 84 82 80
3 80 78 76
3 76 74 73
3 73 32 68
3 73 68 72
3 80 76 73
3 1 84 80
3 2 1 80
3 80 73 72
3 80 72 62
3 3 2 80
3 23 3 80
3 80 62 61
3 87 88 89
3 80 61 87
3 24 23 80
3 18 20 24
3 15 14 18
3 90 91 15
3 92 93 90
3 94 95 92
3 96 97 94
3 98 99 96
3 100 101 98
3 58 57 100
3 102 103 58
3 104 105 102
3 106 107 104
3 108 109 106
3 54 53 108
3 48 50 54
3 44 46 48
3 38 42 44
3 110 39 38
3 111 112 110
3 113 111 110
3 110 38 44
3 44 48 54
3 54 108 106
3 106 104 102
3 102 58 100
3 100 98 96
3 96 94 92
3 90 15 18
3 96 92 90
3 102 100 96
3 54 106 102
3 110 44 54
3 113 110 54
3 54 102 96
3 96 90 18
3 18 24 80
3 80 87 89
3 80 89 114
3 96 18 80
3 113 54 96
3 115 113 96
3 96 80 114
3 116 117 118
3 96 114 116
3 119 115 96
3 120 119 96
3 96 116 118
3 118 28 27
3 27 121 122
3 122 123 124
3 124 125 126
3 126 127 128
3 128 36 35
3 35 12 11
3 11 129 130
3 131 132 133
3 11 130 131
3 128 35 11
3 124 126 128
3 27 122 124
3 96 118 27
3 134 120 96
3 135 134 96
3 96 27 124
3 124 128 11
3 11 131 133
3 133 136 137
3 137 138 139
3 139 140 141
3 139 141 142
3 133 137 139
3 124 11 133
3 135 96 124
3 143 135 124
3 124 133 139
3 139 142 144
3 144 143 124
3 124 139 144
3 145 123 122
3 145 122 146
3 147 126 125
3 147 125 148
3 105 104 149
3 105 149 150
3 102 105 150
3 102 150 151
3 59 58 103
3 103 102 151
3 152 59 103
3 151 152 103
3 153 110 112
3 153 112 154
3 155 156 157
3 157 158 159
3 159 160 161
3 161 162 163
3 163 164 165
3 165 10 13
3 13 34 37
3 37 166 167
3 167 147 148
3 148 168 145
3 145 146 169
3 169 26 29
3 29 170 171
3 29 171 172
3 145 169 29
3 167 148 145
3 13 37 167
3 163 165 13
3 159 161 163
3 155 157 159
3 173 155 159
3 159 163 13
3 13 167 145
3 145 29 172
3 174 175 176
3 145 172 174
3 159 13 145
3 177 173 159
3 178 177 159
3 159 145 174
3 174 176 179
3 159 174 179
3 180 178 159
3 181 180 159
3 159 179 60
3 159 60 63
3 182 181 159
3 183 182 159
3 159 63 184
3 184 185 186
3 186 187 188
3 188 189 190
3 190 30 33
3 33 191 192
3 192 193 194
3 194 195 196
3 196 197 198
3 198 199 200
3 200 201 202
3 202 203 204
3 204 205 206
3 206 6 9
3 206 9 8
3 202 204 206
3 198 200 202
3 194 196 198
3 33 192 194
3 188 190 33
3 184 186 188
3 183 159 184
3 207 183 184
3 184 188 33
3 33 194 198
3 198 202 206
3 198 206 8
3 184 33 198
3 208 207 184
3 154 209 208
3 40 153 154
3 43 41 40
3 47 45 43
3 51 49 47
3 52 55 51
3 210 211 52
3 212 213 210
3 150 149 212
3 152 151 150
3 56 59 152
3 214 215 56
3 216 217 214
3 218 219 216
3 220 221 218
3 222 223 220
3 16 224 225
3 225 222 220
3 220 218 216
3 216 214 56
3 56 152 150
3 150 212 210
3 210 52 51
3 51 47 43
3 43 40 154
3 154 208 184
3 184 198 8
3 184 8 5
3 43 154 184
3 210 51 43
3 56 150 210
3 220 216 56
3 16 225 220
3 19 17 16
3 25 21 19
3 25 19 16
3 16 220 56
3 56 210 43
3 43 184 5
3 43 5 4
3 16 56 43
3 25 16 43
3 43 4 22
3 22 25 43
3 212 107 106
3 212 106 213
3 203 82 85
3 203 85 204
3 63 62 72
3 63 72 184
3 223 92 95
3 223 95 220
3 13 12 35
3 13 35 34
3 169 121 27
3 169 27 26
3 131 130 129
3 129 165 164
3 129 164 163
3 133 131 129
3 156 140 139
3 157 156 139
3 133 129 163
3 133 163 162
3 157 139 133
3 158 157 133
3 133 162 161
3 133 161 160
3 159 158 133
3 160 159 133
3 148 125 124
3 148 124 168
3 93 92 223
3 93 223 222
3 90 93 222
3 90 222 225
3 16 15 91
3 91 90 225
3 224 16 91
3 225 224 91
3 200 81 80
3 200 80 201
3 206 86 7
3 206 7 6
3 4 3 23
3 4 23 22
3 69 68 188
3 69 188 187
3 144 142 141
3 141 140 156
3 141 156 155
3 177 144 141
3 141 155 173
3 141 173 177
3 217 98 101
3 217 101 214
3 211 108 53
3 211 53 52
3 33 32 65
3 33 65 191
3 29 28 118
3 29 118 170
3 149 104 107
3 149 107 212
3 99 98 217
3 99 217 216
3 218 97 96
3 96 99 216
3 219 218 96
3 216 219 96
3 87 61 60
3 87 60 179
3 88 87 179
3 88 179 176
3 89 88 176
3 89 176 175
3 114 89 175
3 114 175 174
3 116 114 174
3 116 174 172
3 170 118 117
3 117 116 172
3 171 170 117
3 172 171 117
3 220 95 94
3 220 94 221
3 167 127 126
3 167 126 147
3 78 81 200
3 78 200 199
3 79 78 199
3 79 199 198
3 196 77 76
3 76 79 198
3 197 196 76
3 198 197 76
3 178 143 144
3 178 144 177
3 214 101 100
3 214 100 215
3 205 84 86
3 205 86 206
3 37 36 128
3 37 128 166
3 70 69 187
3 70 187 186
3 184 72 70
3 70 186 185
3 70 185 184
3 190 66 31
3 190 31 30
3 191 65 64
3 191 64 192
3 68 67 189
3 68 189 188
3 166 128 127
3 166 127 167
3 168 124 123
3 168 123 145
3 221 94 97
3 221 97 218
3 189 67 66
3 189 66 190
3 83 202 201
3 83 201 80
3 204 85 84
3 204 84 205
3 215 100 57
3 215 57 56
3 122 121 169
3 122 169 146
3 39 110 153
3 39 153 40
3 202 83 82
3 202 82 203
3 135 143 178
3 135 178 180
3 112 111 113
3 113 115 207
3 113 207 208
3 154 112 113
3 113 208 209
3 113 209 154
3 193 192 64
3 193 64 73
3 194 193 73
3 194 73 75
3 77 196 195
3 195 194 75
3 74 77 195
3 75 74 195
3 213 106 109
3 213 109 210
3 210 109 108
3 210 108 211
3 11 10 165
3 11 165 129
3 207 115 119
3 207 119 120
3 183 207 120
3 134 135 180
3 183 120 134
3 182 183 134
3 134 180 181
3 134 181 182
