ply
format ascii 1.0
comment Created by Blender 3.6.8 - www.blender.org
element vertex 152
property float x
property float y
property float z
element face 300
property list uchar uint vertex_indices
end_header
0.008538 0.002740 0.150000
0.008538 0.002740 0.000000
0.008545 0.002934 0.000000
0.008545 0.002934 0.150000
0.007674 0.000892 0.150000
0.007674 0.000892 0.000000
0.007777 0.001001 0.000000
0.007777 0.001001 0.150000
0.008468 0.002407 0.000000
0.008468 0.002407 0.150000
0.007957 0.001280 0.150000
0.007957 0.001280 0.000000
0.006592 0.000308 0.000000
0.006373 0.000197 0.000000
0.006146 0.000097 0.000000
0.005921 0.000033 0.000000
0.005697 0.000003 0.000000
0.005472 0.000004 0.000000
0.005242 0.000033 0.000000
0.005007 0.000087 0.000000
0.004512 0.000257 0.000000
0.004247 0.000367 0.000000
0.003968 0.000490 0.000000
0.003673 0.000623 0.000000
0.003360 0.000763 0.000000
0.003062 0.000907 0.000000
0.007434 0.000715 0.000000
0.007296 0.000639 0.000000
0.007560 0.000798 0.000000
0.007871 0.001129 0.000000
0.008511 0.002566 0.000000
0.008530 0.003155 0.000000
0.008150 0.004688 0.000000
0.008490 0.003406 0.000000
0.008019 0.005061 0.000000
0.008087 0.004881 0.000000
0.007634 0.005743 0.000000
0.007857 0.005400 0.000000
0.006594 0.006997 0.000000
0.007492 0.005927 0.000000
0.006217 0.007376 0.000000
0.006469 0.007134 0.000000
0.005602 0.007746 0.000000
0.005936 0.007578 0.000000
0.004799 0.008029 0.000000
0.005213 0.007893 0.000000
0.002334 0.008536 0.000000
0.003965 0.008252 0.000000
0.002060 0.008545 0.000000
0.002195 0.008547 0.000000
0.001800 0.008490 0.000000
0.001928 0.008527 0.000000
0.001558 0.008344 0.000000
0.001677 0.008430 0.000000
0.001255 0.008084 0.000000
0.001346 0.008163 0.000000
0.001447 0.008249 0.000000
0.002598 0.001203 0.000000
0.002418 0.001356 0.000000
0.002263 0.001513 0.000000
0.002127 0.001673 0.000000
0.001624 0.002364 0.000000
0.001171 0.008009 0.000000
0.001025 0.007863 0.000000
0.001095 0.007936 0.000000
0.000845 0.007624 0.000000
0.000901 0.007710 0.000000
0.000691 0.007308 0.000000
0.000741 0.007426 0.000000
0.000453 0.006711 0.000000
0.000497 0.006825 0.000000
0.000374 0.006494 0.000000
0.000412 0.006600 0.000000
0.000288 0.006206 0.000000
0.000341 0.006393 0.000000
0.000403 0.003938 0.000000
0.000000 0.004685 0.000000
0.000593 0.003625 0.000000
0.000494 0.003784 0.000000
0.000967 0.003118 0.000000
0.000828 0.003293 0.000000
0.001474 0.002551 0.000000
0.005697 0.000003 0.150000
0.005921 0.000033 0.150000
0.005602 0.007746 0.150000
0.003965 0.008252 0.150000
0.004799 0.008029 0.150000
0.005213 0.007893 0.150000
0.007560 0.000798 0.150000
0.000593 0.003625 0.150000
0.000494 0.003784 0.150000
0.000000 0.004685 0.150000
0.000403 0.003938 0.150000
0.002334 0.008536 0.150000
0.002195 0.008547 0.150000
0.002060 0.008545 0.150000
0.001928 0.008527 0.150000
0.001800 0.008490 0.150000
0.001677 0.008430 0.150000
0.001558 0.008344 0.150000
0.001447 0.008249 0.150000
0.001346 0.008163 0.150000
0.001255 0.008084 0.150000
0.001171 0.008009 0.150000
0.001095 0.007936 0.150000
0.001025 0.007863 0.150000
0.000901 0.007710 0.150000
0.000845 0.007624 0.150000
0.000741 0.007426 0.150000
0.000691 0.007308 0.150000
0.000497 0.006825 0.150000
0.000453 0.006711 0.150000
0.000412 0.006600 0.150000
0.000374 0.006494 0.150000
0.000341 0.006393 0.150000
0.000288 0.006206 0.150000
0.000828 0.003293 0.150000
0.000967 0.003118 0.150000
0.001474 0.002551 0.150000
0.001624 0.002364 0.150000
0.002127 0.001673 0.150000
0.002263 0.001513 0.150000
0.002418 0.001356 0.150000
0.006217 0.007376 0.150000
0.005936 0.007578 0.150000
0.006594 0.006997 0.150000
0.006469 0.007134 0.150000
0.007634 0.005743 0.150000
0.007492 0.005927 0.150000
0.008019 0.005061 0.150000
0.007857 0.005400 0.150000
0.008150 0.004688 0.150000
0.008087 0.004881 0.150000
0.008530 0.003155 0.150000
0.008490 0.003406 0.150000
0.008511 0.002566 0.150000
0.007871 0.001129 0.150000
0.007434 0.000715 0.150000
0.006592 0.000308 0.150000
0.007296 0.000639 0.150000
0.006146 0.000097 0.150000
0.006373 0.000197 0.150000
0.005242 0.000033 0.150000
0.005472 0.000004 0.150000
0.004512 0.000257 0.150000
0.005007 0.000087 0.150000
0.003968 0.000490 0.150000
0.004247 0.000367 0.150000
0.003062 0.000907 0.150000
0.003360 0.000763 0.150000
0.003673 0.000623 0.150000
0.002598 0.001203 0.150000
3 0 1 2
3 0 2 3
3 4 5 6
3 4 6 7
3 8 9 10
3 8 10 11
3 12 13 14
3 14 15 16
3 16 17 18
3 18 19 20
3 20 21 22
3 23 24 25
3 20 22 23
3 16 18 20
3 12 14 16
3 26 27 12
3 5 28 26
3 29 6 5
3 8 11 29
3 1 30 8
3 31 2 1
3 32 33 31
3 34 35 32
3 36 37 34
3 38 39 36
3 40 41 38
3 42 43 40
3 44 45 42
3 46 47 44
3 48 49 46
3 50 51 48
3 52 53 50
3 54 55 56
3 56 52 50
3 50 48 46
3 46 44 42
3 42 40 38
3 38 36 34
3 34 32 31
3 31 1 8
3 8 29 5
3 5 26 12
3 12 16 20
3 20 23 25
3 25 57 58
3 58 59 60
3 58 60 61
3 20 25 58
3 5 12 20
3 31 8 5
3 38 34 31
3 46 42 38
3 56 50 46
3 62 54 56
3 63 64 62
3 65 66 63
3 67 68 65
3 69 70 67
3 71 72 69
3 73 74 71
3 75 76 73
3 77 78 75
3 79 80 77
3 81 79 77
3 77 75 73
3 73 71 69
3 69 67 65
3 65 63 62
3 62 56 46
3 46 38 31
3 31 5 20
3 20 58 61
3 81 77 73
3 20 61 81
3 46 31 20
3 65 62 46
3 73 69 65
3 20 81 73
3 65 46 20
3 20 73 65
3 82 16 15
3 82 15 83
3 84 42 45
3 45 44 47
3 47 85 86
3 87 84 45
3 47 86 87
3 45 47 87
3 88 28 5
3 88 5 4
3 78 77 89
3 78 89 90
3 91 76 75
3 75 78 90
3 92 91 75
3 90 92 75
3 85 93 94
3 94 95 96
3 96 97 98
3 98 99 100
3 100 101 102
3 102 103 104
3 104 105 106
3 106 107 108
3 108 109 110
3 110 111 112
3 112 113 114
3 114 115 91
3 91 92 90
3 90 89 116
3 116 117 118
3 119 120 121
3 90 116 118
3 119 121 122
3 90 118 119
3 114 91 90
3 110 112 114
3 106 108 110
3 102 104 106
3 98 100 102
3 94 96 98
3 86 85 94
3 84 87 86
3 123 124 84
3 125 126 123
3 127 128 125
3 129 130 127
3 131 132 129
3 133 134 131
3 0 3 133
3 9 135 0
3 136 10 9
3 4 7 136
3 137 88 4
3 138 139 137
3 140 141 138
3 82 83 140
3 142 143 82
3 144 145 142
3 146 147 144
3 148 149 150
3 150 146 144
3 144 142 82
3 82 140 138
3 138 137 4
3 4 136 9
3 9 0 133
3 133 131 129
3 129 127 125
3 125 123 84
3 84 86 94
3 94 98 102
3 102 106 110
3 110 114 90
3 119 122 151
3 110 90 119
3 94 102 110
3 125 84 94
3 133 129 125
3 4 9 133
3 82 138 4
3 150 144 82
3 151 148 150
3 110 119 151
3 125 94 110
3 4 133 125
3 150 82 4
3 110 151 150
3 4 125 110
3 110 150 4
3 65 68 108
3 65 108 107
3 94 49 48
3 94 48 95
3 143 17 16
3 143 16 82
3 130 37 36
3 130 36 127
3 47 46 93
3 47 93 85
3 34 37 130
3 34 130 129
3 43 42 84
3 43 84 124
3 137 26 28
3 137 28 88
3 151 57 25
3 151 25 148
3 71 74 114
3 71 114 113
3 72 71 113
3 72 113 112
3 69 72 112
3 69 112 111
3 70 69 111
3 70 111 110
3 108 68 67
3 67 70 110
3 109 108 67
3 110 109 67
3 38 41 126
3 38 126 125
3 127 36 39
3 39 38 125
3 128 127 39
3 125 128 39
3 136 29 11
3 136 11 10
3 133 31 33
3 133 33 134
3 121 59 58
3 121 58 122
3 64 63 105
3 64 105 104
3 62 64 104
3 62 104 103
3 54 62 103
3 54 103 102
3 55 54 102
3 55 102 101
3 99 52 56
3 56 55 101
3 100 99 56
3 101 100 56
3 122 58 57
3 122 57 151
3 142 18 17
3 142 17 143
3 7 6 29
3 7 29 136
3 83 15 14
3 83 14 140
3 40 43 124
3 40 124 123
3 35 34 129
3 35 129 132
3 134 33 32
3 32 35 132
3 131 134 32
3 32 132 131
3 73 76 91
3 73 91 115
3 61 60 59
3 59 121 120
3 59 120 119
3 61 59 119
3 61 119 118
3 80 79 81
3 81 61 118
3 81 118 117
3 77 80 81
3 116 89 77
3 81 117 116
3 116 77 81
3 3 2 31
3 3 31 133
3 20 19 145
3 20 145 144
3 93 46 49
3 93 49 94
3 9 8 30
3 9 30 135
3 126 41 40
3 126 40 123
3 96 51 50
3 96 50 97
3 97 50 53
3 97 53 98
3 135 30 1
3 135 1 0
3 106 66 65
3 106 65 107
3 21 20 144
3 21 144 147
3 22 21 147
3 22 147 146
3 23 22 146
3 23 146 150
3 148 25 24
3 24 23 150
3 149 148 24
3 150 149 24
3 95 48 51
3 95 51 96
3 74 73 115
3 74 115 114
3 27 26 137
3 27 137 139
3 13 12 27
3 140 14 13
3 141 140 13
3 13 27 139
3 138 141 13
3 139 138 13
3 105 63 66
3 105 66 106
3 98 53 52
3 98 52 99
3 145 19 18
3 145 18 142
