ply
format ascii 1.0
comment Created by Blender 3.6.8 - www.blender.org
element vertex 184
property float x
property float y
property float z
element face 358
property list uchar uint vertex_indices
end_header
0.008249 0.002022 0.000000
0.008377 0.002289 0.000000
0.008377 0.002289 0.150000
0.008249 0.002022 0.150000
0.008454 0.002537 0.150000
0.008454 0.002537 0.000000
0.008475 0.002662 0.000000
0.008475 0.002662 0.150000
0.004871 0.005670 0.000000
0.004824 0.005672 0.000000
0.004824 0.005672 0.150000
0.004871 0.005670 0.150000
0.004962 0.005665 0.000000
0.004962 0.005665 0.150000
0.005089 0.005656 0.000000
0.005089 0.005656 0.150000
0.005244 0.005645 0.000000
0.005244 0.005645 0.150000
0.005422 0.005631 0.000000
0.005422 0.005631 0.150000
0.005613 0.005615 0.000000
0.005613 0.005615 0.150000
0.005812 0.005598 0.000000
0.005812 0.005598 0.150000
0.006011 0.005580 0.000000
0.006011 0.005580 0.150000
0.006203 0.005562 0.000000
0.006203 0.005562 0.150000
0.006380 0.005543 0.000000
0.006380 0.005543 0.150000
0.006661 0.005506 0.150000
0.006661 0.005506 0.000000
0.006535 0.005524 0.000000
0.006535 0.005524 0.150000
0.000543 0.005002 0.150000
0.000543 0.005002 0.000000
0.000501 0.004968 0.000000
0.000501 0.004968 0.150000
0.000234 0.004776 0.150000
0.000234 0.004776 0.000000
0.000195 0.004725 0.000000
0.000195 0.004725 0.150000
0.007506 0.000917 0.000000
0.007506 0.000917 0.150000
0.002586 0.000135 0.000000
0.003104 0.000078 0.000000
0.003630 0.000037 0.000000
0.004125 0.000012 0.000000
0.004555 0.000001 0.000000
0.004735 0.000000 0.000000
0.004735 0.000000 0.150000
0.004555 0.000001 0.150000
0.003104 0.000078 0.150000
0.002586 0.000135 0.150000
0.003630 0.000037 0.150000
0.004125 0.000012 0.150000
0.006647 0.000382 0.150000
0.006844 0.000420 0.150000
0.006939 0.000447 0.150000
0.007037 0.000488 0.150000
0.007139 0.000549 0.150000
0.007249 0.000637 0.150000
0.008485 0.002924 0.150000
0.008397 0.003883 0.150000
0.008333 0.004191 0.150000
0.008246 0.004451 0.150000
0.008193 0.004554 0.150000
0.008133 0.004636 0.150000
0.007967 0.004793 0.150000
0.007737 0.004971 0.150000
0.007181 0.005312 0.150000
0.006904 0.005437 0.150000
0.006777 0.005480 0.150000
0.003607 0.005654 0.150000
0.003585 0.005654 0.150000
0.006539 0.000359 0.150000
0.005800 0.000094 0.150000
0.006033 0.000166 0.150000
0.006422 0.000324 0.150000
0.005472 0.000035 0.150000
0.003436 0.005638 0.150000
0.002950 0.005570 0.150000
0.001642 0.005339 0.150000
0.001053 0.005209 0.150000
0.000826 0.005147 0.150000
0.000664 0.005091 0.150000
0.000582 0.005042 0.150000
0.000321 0.004853 0.150000
0.000276 0.004818 0.150000
0.005251 0.000017 0.150000
0.005363 0.000024 0.150000
0.004884 0.000003 0.150000
0.002110 0.000211 0.150000
0.001733 0.000299 0.150000
0.001906 0.000253 0.150000
0.001357 0.000456 0.150000
0.001463 0.000399 0.150000
0.001184 0.000589 0.150000
0.001266 0.000519 0.150000
0.001033 0.000752 0.150000
0.001108 0.000666 0.150000
0.000871 0.000954 0.150000
0.000955 0.000848 0.150000
0.000677 0.001202 0.150000
0.000774 0.001072 0.150000
0.000450 0.001652 0.150000
0.000592 0.001343 0.150000
0.000338 0.001980 0.150000
0.000391 0.001814 0.150000
0.000033 0.003195 0.150000
0.000059 0.003057 0.150000
0.000000 0.003617 0.150000
0.000004 0.003477 0.150000
0.000021 0.004024 0.150000
0.000002 0.003756 0.150000
0.000056 0.004273 0.150000
0.000037 0.004152 0.150000
0.000127 0.004586 0.150000
0.000100 0.004493 0.150000
0.000159 0.004662 0.150000
0.006777 0.005480 0.000000
0.005472 0.000035 0.000000
0.005800 0.000094 0.000000
0.006033 0.000166 0.000000
0.006422 0.000324 0.000000
0.001733 0.000299 0.000000
0.001906 0.000253 0.000000
0.002110 0.000211 0.000000
0.006904 0.005437 0.000000
0.007967 0.004793 0.000000
0.007737 0.004971 0.000000
0.000056 0.004273 0.000000
0.000037 0.004152 0.000000
0.000021 0.004024 0.000000
0.000100 0.004493 0.000000
0.001357 0.000456 0.000000
0.001463 0.000399 0.000000
0.008397 0.003883 0.000000
0.008333 0.004191 0.000000
0.007037 0.000488 0.000000
0.007139 0.000549 0.000000
0.000592 0.001343 0.000000
0.000677 0.001202 0.000000
0.007249 0.000637 0.000000
0.006939 0.000447 0.000000
0.003607 0.005654 0.000000
0.003585 0.005654 0.000000
0.000321 0.004853 0.000000
0.000159 0.004662 0.000000
0.000004 0.003477 0.000000
0.000033 0.003195 0.000000
0.001266 0.000519 0.000000
0.008485 0.002924 0.000000
0.000871 0.000954 0.000000
0.000955 0.000848 0.000000
0.001033 0.000752 0.000000
0.001108 0.000666 0.000000
0.000774 0.001072 0.000000
0.008246 0.004451 0.000000
0.008193 0.004554 0.000000
0.003436 0.005638 0.000000
0.002950 0.005570 0.000000
0.001642 0.005339 0.000000
0.001053 0.005209 0.000000
0.000826 0.005147 0.000000
0.005363 0.000024 0.000000
0.005251 0.000017 0.000000
0.004884 0.000003 0.000000
0.008133 0.004636 0.000000
0.000127 0.004586 0.000000
0.000000 0.003617 0.000000
0.000002 0.003756 0.000000
0.007181 0.005312 0.000000
0.000582 0.005042 0.000000
0.001184 0.000589 0.000000
0.000276 0.004818 0.000000
0.000664 0.005091 0.000000
0.006844 0.000420 0.000000
0.006647 0.000382 0.000000
0.006539 0.000359 0.000000
0.000059 0.003057 0.000000
0.000391 0.001814 0.000000
0.000338 0.001980 0.000000
0.000450 0.001652 0.000000
3 0 1 2
3 0 2 3
3 4 5 6
3 4 6 7
3 8 9 10
3 8 10 11
3 12 8 11
3 12 11 13
3 14 12 13
3 14 13 15
3 16 14 15
3 16 15 17
3 18 16 17
3 18 17 19
3 20 18 19
3 20 19 21
3 22 20 21
3 22 21 23
3 24 22 23
3 24 23 25
3 26 24 25
3 26 25 27
3 28 26 27
3 28 27 29
3 30 31 32
3 32 28 29
3 33 30 32
3 29 33 32
3 34 35 36
3 34 36 37
3 38 39 40
3 38 40 41
3 42 0 3
3 42 3 43
3 44 45 46
3 46 47 48
3 48 49 50
3 48 50 51
3 44 46 48
3 52 53 44
3 54 52 44
3 44 48 51
3 55 54 44
3 51 55 44
3 56 57 58
3 58 59 60
3 60 61 43
3 43 3 2
3 2 4 7
3 7 62 63
3 63 64 65
3 65 66 67
3 67 68 69
3 69 70 71
3 71 72 30
3 30 33 29
3 29 27 25
3 25 23 21
3 21 19 17
3 17 15 13
3 13 11 10
3 10 73 74
3 17 13 10
3 25 21 17
3 30 29 25
3 69 71 30
3 65 67 69
3 7 63 65
3 43 2 7
3 58 60 43
3 75 56 58
3 76 77 78
3 75 58 43
3 79 76 78
3 78 75 43
3 43 7 65
3 65 69 30
3 30 25 17
3 74 80 81
3 81 82 83
3 83 84 85
3 85 86 34
3 37 87 88
3 85 34 37
3 81 83 85
3 10 74 81
3 30 17 10
3 43 65 30
3 79 78 43
3 89 90 79
3 50 91 89
3 55 51 50
3 52 54 55
3 92 53 52
3 93 94 92
3 95 96 93
3 97 98 95
3 99 100 97
3 101 102 99
3 103 104 101
3 105 106 103
3 107 108 105
3 109 110 107
3 111 112 109
3 113 114 111
3 115 116 113
3 117 118 115
3 41 119 117
3 88 38 41
3 81 85 37
3 37 88 41
3 41 117 115
3 115 113 111
3 111 109 107
3 107 105 103
3 103 101 99
3 99 97 95
3 95 93 92
3 92 52 55
3 55 50 89
3 89 79 43
3 43 30 10
3 10 81 37
3 37 41 115
3 115 111 107
3 107 103 99
3 99 95 92
3 92 55 89
3 89 43 10
3 10 37 115
3 115 107 99
3 99 92 89
3 89 10 115
3 115 99 89
3 72 120 31
3 72 31 30
3 79 121 122
3 79 122 76
3 123 124 78
3 123 78 77
3 94 93 125
3 125 126 127
3 127 44 53
3 92 94 125
3 127 53 92
3 125 127 92
3 71 128 120
3 71 120 72
3 68 129 130
3 68 130 69
3 131 132 133
3 133 113 116
3 115 118 134
3 133 116 115
3 134 131 133
3 133 115 134
3 95 135 136
3 95 136 96
3 63 137 138
3 63 138 64
3 59 139 140
3 59 140 60
3 106 141 142
3 106 142 103
3 60 140 143
3 60 143 61
3 58 144 139
3 58 139 59
3 143 42 43
3 143 43 61
3 96 136 125
3 96 125 93
3 10 9 145
3 145 146 74
3 73 10 145
3 145 74 73
3 36 147 87
3 36 87 37
3 41 40 148
3 41 148 119
3 149 150 109
3 149 109 112
3 98 151 135
3 98 135 95
3 152 62 7
3 152 7 6
3 153 154 155
3 155 156 100
3 155 100 99
3 142 157 153
3 153 155 99
3 153 99 102
3 103 142 153
3 104 103 153
3 153 102 101
3 153 101 104
3 65 158 159
3 65 159 66
3 160 161 162
3 162 163 164
3 164 84 83
3 164 83 82
3 160 162 164
3 74 146 160
3 80 74 160
3 160 164 82
3 81 80 160
3 82 81 160
3 165 121 79
3 165 79 90
3 166 165 90
3 166 90 89
3 50 49 167
3 167 166 89
3 91 50 167
3 89 91 167
3 66 159 168
3 66 168 67
3 137 63 62
3 137 62 152
3 117 169 134
3 117 134 118
3 119 148 169
3 119 169 117
3 170 149 112
3 170 112 111
3 113 133 171
3 171 170 111
3 114 113 171
3 111 114 171
3 172 70 69
3 172 69 130
3 1 5 4
3 1 4 2
3 86 173 35
3 86 35 34
3 129 68 67
3 129 67 168
3 97 174 151
3 97 151 98
3 88 175 39
3 88 39 38
3 162 160 146
3 173 176 164
3 35 173 164
3 164 162 146
3 35 164 146
3 145 9 8
3 8 12 14
3 14 16 18
3 18 20 22
3 22 24 26
3 26 28 32
3 32 31 120
3 120 128 172
3 172 130 129
3 129 168 159
3 159 158 138
3 138 137 152
3 152 6 5
3 5 1 0
3 0 42 143
3 143 140 139
3 139 144 177
3 139 177 178
3 0 143 139
3 152 5 0
3 159 138 152
3 172 129 159
3 32 120 172
3 22 26 32
3 14 18 22
3 145 8 14
3 35 146 145
3 175 147 36
3 36 35 145
3 145 14 22
3 22 32 172
3 172 159 152
3 152 0 139
3 139 178 179
3 124 123 122
3 152 139 179
3 124 122 121
3 152 179 124
3 22 172 152
3 36 145 22
3 39 175 36
3 148 40 39
3 134 169 148
3 132 131 134
3 171 133 132
3 149 170 171
3 180 150 149
3 181 182 180
3 141 183 181
3 157 142 141
3 153 157 141
3 141 181 180
3 180 149 171
3 171 132 134
3 134 148 39
3 39 36 22
3 22 152 124
3 124 121 165
3 165 166 167
3 167 49 48
3 44 127 126
3 126 125 136
3 136 135 151
3 151 174 156
3 156 155 153
3 153 141 180
3 180 171 134
3 134 39 22
3 22 124 165
3 165 167 48
3 44 126 136
3 136 151 156
3 156 153 180
3 180 134 22
3 22 165 48
3 48 44 136
3 136 156 180
3 180 22 48
3 48 136 180
3 85 176 173
3 85 173 86
3 76 122 123
3 76 123 77
3 181 183 105
3 181 105 108
3 182 181 108
3 182 108 107
3 109 150 180
3 180 182 107
3 110 109 180
3 107 110 180
3 105 183 141
3 105 141 106
3 64 138 158
3 64 158 65
3 70 172 128
3 70 128 71
3 100 156 174
3 100 174 97
3 84 164 176
3 84 176 85
3 178 177 144
3 144 58 57
3 144 57 56
3 179 178 144
3 78 124 179
3 144 56 75
3 75 78 179
3 144 75 179
3 87 147 175
3 87 175 88
