ply
format ascii 1.0
comment Created by Blender 3.6.8 - www.blender.org
element vertex 232
property float x
property float y
property float z
element face 456
property list uchar uint vertex_indices
end_header
0.004222 0.000044 0.150000
0.004222 0.000044 0.000000
0.004340 0.000101 0.000000
0.004340 0.000101 0.150000
0.000642 0.002816 0.150000
0.000521 0.002965 0.150000
0.000521 0.002965 0.000000
0.000642 0.002816 0.000000
0.000757 0.002682 0.000000
0.000867 0.002562 0.000000
0.001166 0.002246 0.000000
0.000757 0.002682 0.150000
0.000867 0.002562 0.150000
0.001256 0.002146 0.000000
0.001343 0.002042 0.000000
0.001426 0.001931 0.000000
0.001426 0.001931 0.150000
0.001343 0.002042 0.150000
0.001166 0.002246 0.150000
0.001256 0.002146 0.150000
0.006047 0.001845 0.000000
0.006118 0.001887 0.000000
0.006188 0.001930 0.000000
0.006255 0.001978 0.000000
0.006255 0.001978 0.150000
0.006188 0.001930 0.150000
0.006118 0.001887 0.150000
0.005898 0.001741 0.150000
0.005898 0.001741 0.000000
0.005973 0.001797 0.000000
0.006047 0.001845 0.150000
0.005973 0.001797 0.150000
0.000067 0.003823 0.150000
0.000067 0.003823 0.000000
0.000146 0.003554 0.000000
0.000146 0.003554 0.150000
0.006319 0.002034 0.000000
0.006319 0.002034 0.150000
0.005191 0.010043 0.000000
0.004997 0.010072 0.000000
0.004997 0.010072 0.150000
0.005191 0.010043 0.150000
0.007490 0.008222 0.150000
0.007490 0.008222 0.000000
0.007432 0.008341 0.000000
0.007432 0.008341 0.150000
0.001658 0.001574 0.000000
0.001582 0.001689 0.000000
0.001505 0.001811 0.000000
0.001736 0.001465 0.000000
0.001993 0.001159 0.000000
0.001817 0.001360 0.000000
0.002198 0.000961 0.000000
0.002091 0.001060 0.000000
0.002444 0.000756 0.000000
0.002315 0.000860 0.000000
0.002908 0.000422 0.000000
0.002744 0.000534 0.000000
0.003385 0.000151 0.000000
0.003070 0.000320 0.000000
0.003828 0.000010 0.000000
0.003685 0.000040 0.000000
0.004097 0.000011 0.000000
0.003966 0.000000 0.000000
0.004560 0.000288 0.000000
0.004450 0.000184 0.000000
0.004924 0.000672 0.000000
0.004677 0.000406 0.000000
0.005737 0.001584 0.000000
0.005821 0.001672 0.000000
0.000262 0.003326 0.000000
0.000021 0.004124 0.000000
0.000004 0.004780 0.000000
0.000024 0.005115 0.000000
0.000056 0.005442 0.000000
0.000095 0.005751 0.000000
0.000136 0.006032 0.000000
0.000205 0.006468 0.000000
0.000223 0.006605 0.000000
0.001776 0.007232 0.000000
0.002145 0.007453 0.000000
0.002242 0.007530 0.000000
0.006441 0.002192 0.000000
0.006382 0.002104 0.000000
0.006601 0.002606 0.000000
0.006497 0.002301 0.000000
0.007065 0.004873 0.000000
0.006880 0.003798 0.000000
0.002393 0.007674 0.000000
0.007108 0.005073 0.000000
0.002558 0.007875 0.000000
0.002604 0.007946 0.000000
0.007152 0.005234 0.000000
0.007626 0.006367 0.000000
0.007597 0.006274 0.000000
0.007340 0.005781 0.000000
0.007648 0.006473 0.000000
0.002650 0.008021 0.000000
0.007660 0.006597 0.000000
0.007533 0.008100 0.000000
0.007585 0.007844 0.000000
0.007260 0.008575 0.000000
0.007356 0.008458 0.000000
0.007033 0.008816 0.000000
0.007150 0.008693 0.000000
0.006784 0.009066 0.000000
0.006911 0.008941 0.000000
0.006525 0.009309 0.000000
0.006655 0.009190 0.000000
0.006266 0.009530 0.000000
0.006395 0.009423 0.000000
0.005790 0.009840 0.000000
0.006017 0.009712 0.000000
0.005484 0.009964 0.000000
0.005584 0.009927 0.000000
0.005385 0.009995 0.000000
0.004798 0.010082 0.000000
0.004482 0.010059 0.000000
0.004592 0.010072 0.000000
0.004132 0.009985 0.000000
0.004367 0.010039 0.000000
0.003910 0.009922 0.000000
0.004018 0.009954 0.000000
0.003547 0.009801 0.000000
0.003724 0.009863 0.000000
0.003505 0.009749 0.000000
0.003528 0.009777 0.000000
0.003444 0.009667 0.000000
0.003477 0.009712 0.000000
0.003369 0.009557 0.000000
0.003407 0.009615 0.000000
0.003261 0.009363 0.000000
0.003331 0.009495 0.000000
0.003184 0.009121 0.000000
0.003209 0.009227 0.000000
0.003169 0.009018 0.000000
0.003061 0.008757 0.000000
0.003129 0.008897 0.000000
0.003161 0.008984 0.000000
0.006017 0.009712 0.150000
0.006266 0.009530 0.150000
0.001817 0.001360 0.150000
0.001736 0.001465 0.150000
0.001505 0.001811 0.150000
0.001658 0.001574 0.150000
0.001582 0.001689 0.150000
0.004798 0.010082 0.150000
0.004592 0.010072 0.150000
0.004482 0.010059 0.150000
0.004367 0.010039 0.150000
0.004132 0.009985 0.150000
0.004018 0.009954 0.150000
0.003910 0.009922 0.150000
0.003724 0.009863 0.150000
0.003547 0.009801 0.150000
0.003528 0.009777 0.150000
0.003505 0.009749 0.150000
0.003477 0.009712 0.150000
0.003444 0.009667 0.150000
0.003407 0.009615 0.150000
0.003369 0.009557 0.150000
0.003331 0.009495 0.150000
0.003261 0.009363 0.150000
0.003209 0.009227 0.150000
0.003184 0.009121 0.150000
0.003169 0.009018 0.150000
0.005385 0.009995 0.150000
0.005584 0.009927 0.150000
0.005484 0.009964 0.150000
0.005790 0.009840 0.150000
0.006395 0.009423 0.150000
0.006655 0.009190 0.150000
0.006525 0.009309 0.150000
0.006911 0.008941 0.150000
0.006784 0.009066 0.150000
0.007150 0.008693 0.150000
0.007033 0.008816 0.150000
0.007356 0.008458 0.150000
0.007260 0.008575 0.150000
0.007585 0.007844 0.150000
0.007533 0.008100 0.150000
0.007648 0.006473 0.150000
0.007660 0.006597 0.150000
0.007597 0.006274 0.150000
0.007626 0.006367 0.150000
0.007340 0.005781 0.150000
0.003161 0.008984 0.150000
0.007152 0.005234 0.150000
0.003129 0.008897 0.150000
0.007108 0.005073 0.150000
0.003061 0.008757 0.150000
0.002650 0.008021 0.150000
0.007065 0.004873 0.150000
0.006601 0.002606 0.150000
0.006880 0.003798 0.150000
0.006441 0.002192 0.150000
0.006497 0.002301 0.150000
0.006382 0.002104 0.150000
0.002604 0.007946 0.150000
0.002558 0.007875 0.150000
0.002393 0.007674 0.150000
0.002242 0.007530 0.150000
0.005821 0.001672 0.150000
0.002145 0.007453 0.150000
0.001776 0.007232 0.150000
0.000223 0.006605 0.150000
0.000205 0.006468 0.150000
0.000136 0.006032 0.150000
0.004677 0.000406 0.150000
0.004924 0.000672 0.150000
0.005737 0.001584 0.150000
0.000095 0.005751 0.150000
0.000056 0.005442 0.150000
0.000024 0.005115 0.150000
0.000004 0.004780 0.150000
0.000021 0.004124 0.150000
0.000262 0.003326 0.150000
0.004560 0.000288 0.150000
0.004450 0.000184 0.150000
0.004097 0.000011 0.150000
0.003828 0.000010 0.150000
0.003966 0.000000 0.150000
0.003385 0.000151 0.150000
0.003685 0.000040 0.150000
0.002908 0.000422 0.150000
0.003070 0.000320 0.150000
0.002444 0.000756 0.150000
0.002744 0.000534 0.150000
0.002198 0.000961 0.150000
0.002315 0.000860 0.150000
0.001993 0.001159 0.150000
0.002091 0.001060 0.150000
3 0 1 2
3 0 2 3
3 4 5 6
3 6 7 8
3 8 9 10
3 6 8 10
3 11 4 6
3 12 11 6
3 6 10 13
3 14 15 16
3 12 6 13
3 13 14 16
3 13 16 17
3 18 12 13
3 13 17 19
3 13 19 18
3 20 21 22
3 22 23 24
3 22 24 25
3 20 22 25
3 20 25 26
3 27 28 29
3 29 20 26
3 29 26 30
3 31 27 29
3 30 31 29
3 32 33 34
3 32 34 35
3 24 23 36
3 24 36 37
3 38 39 40
3 38 40 41
3 42 43 44
3 42 44 45
3 46 47 48
3 49 46 48
3 50 51 49
3 52 53 50
3 54 55 52
3 56 57 54
3 58 59 56
3 60 61 58
3 62 63 60
3 2 1 62
3 64 65 2
3 66 67 64
3 68 66 64
3 64 2 62
3 62 60 58
3 58 56 54
3 54 52 50
3 50 49 48
3 50 48 15
3 58 54 50
3 64 62 58
3 68 64 58
3 58 50 15
3 58 15 14
3 69 68 58
3 28 69 58
3 58 14 13
3 58 13 10
3 29 28 58
3 20 29 58
3 58 10 8
3 6 70 34
3 34 33 71
3 71 72 73
3 73 74 75
3 75 76 77
3 77 78 79
3 75 77 79
3 71 73 75
3 6 34 71
3 58 8 6
3 23 22 20
3 20 58 6
3 6 71 75
3 75 79 80
3 75 80 81
3 20 6 75
3 36 23 20
3 82 83 36
3 84 85 82
3 86 87 84
3 86 84 82
3 82 36 20
3 20 75 81
3 20 81 88
3 86 82 20
3 89 86 20
3 20 88 90
3 20 90 91
3 92 89 20
3 93 94 95
3 92 20 91
3 96 93 95
3 95 92 91
3 95 91 97
3 98 96 95
3 99 100 98
3 44 43 99
3 101 102 44
3 103 104 101
3 105 106 103
3 107 108 105
3 109 110 107
3 111 112 109
3 113 114 111
3 38 115 113
3 116 39 38
3 117 118 116
3 119 120 117
3 121 122 119
3 123 124 121
3 125 126 123
3 127 128 125
3 129 130 127
3 131 132 129
3 133 134 131
3 135 133 131
3 131 129 127
3 127 125 123
3 123 121 119
3 119 117 116
3 116 38 113
3 113 111 109
3 109 107 105
3 105 103 101
3 101 44 99
3 99 98 95
3 95 97 136
3 95 136 137
3 101 99 95
3 109 105 101
3 116 113 109
3 123 119 116
3 131 127 123
3 138 135 131
3 95 137 138
3 109 101 95
3 123 116 109
3 138 131 123
3 109 95 138
3 138 123 109
3 109 112 139
3 109 139 140
3 47 46 49
3 49 51 141
3 49 141 142
3 48 47 49
3 16 15 48
3 143 16 48
3 48 49 142
3 48 142 144
3 145 143 48
3 144 145 48
3 41 40 146
3 146 147 148
3 148 149 150
3 150 151 152
3 152 153 154
3 154 155 156
3 156 157 158
3 158 159 160
3 160 161 162
3 162 163 164
3 162 164 165
3 158 160 162
3 154 156 158
3 150 152 154
3 146 148 150
3 166 41 146
3 167 168 166
3 139 169 167
3 170 140 139
3 171 172 170
3 173 174 171
3 175 176 173
3 177 178 175
3 42 45 177
3 179 180 42
3 181 182 179
3 183 184 181
3 185 183 181
3 181 179 42
3 42 177 175
3 175 173 171
3 171 170 139
3 139 167 166
3 166 146 150
3 150 154 158
3 158 162 165
3 158 165 186
3 166 150 158
3 171 139 166
3 42 175 171
3 185 181 42
3 187 185 42
3 42 171 166
3 166 158 186
3 166 186 188
3 187 42 166
3 189 187 166
3 166 188 190
3 166 190 191
3 192 189 166
3 193 194 192
3 195 196 193
3 37 197 195
3 25 24 37
3 30 26 25
3 30 25 37
3 37 195 193
3 193 192 166
3 166 191 198
3 166 198 199
3 37 193 166
3 31 30 37
3 31 37 166
3 166 199 200
3 166 200 201
3 27 31 166
3 202 27 166
3 166 201 203
3 204 205 206
3 202 166 203
3 204 206 207
3 202 203 204
3 208 209 210
3 210 202 204
3 204 207 211
3 211 212 213
3 213 214 215
3 215 32 35
3 35 216 5
3 5 4 11
3 11 12 18
3 5 11 18
3 215 35 5
3 211 213 215
3 210 204 211
3 217 208 210
3 3 218 217
3 219 0 3
3 220 221 219
3 222 223 220
3 224 225 222
3 226 227 224
3 228 229 226
3 230 231 228
3 142 141 230
3 145 144 142
3 143 145 142
3 142 230 228
3 228 226 224
3 224 222 220
3 220 219 3
3 3 217 210
3 210 211 215
3 215 5 18
3 215 18 19
3 3 210 215
3 224 220 3
3 142 228 224
3 16 143 142
3 215 19 17
3 16 142 224
3 215 17 16
3 224 3 215
3 215 16 224
3 3 2 65
3 3 65 218
3 66 68 69
3 69 202 210
3 69 210 209
3 66 69 209
3 66 209 208
3 67 66 208
3 217 218 65
3 67 208 217
3 217 65 64
3 217 64 67
3 37 36 83
3 37 83 197
3 71 215 214
3 71 214 72
3 219 62 1
3 219 1 0
3 177 102 101
3 177 101 178
3 201 81 80
3 201 80 203
3 110 109 140
3 110 140 170
3 107 110 170
3 107 170 172
3 108 107 172
3 108 172 171
3 105 108 171
3 105 171 174
3 106 105 174
3 106 174 173
3 103 106 173
3 103 173 176
3 178 101 104
3 104 103 176
3 175 178 104
3 176 175 104
3 56 59 225
3 56 225 224
3 226 54 57
3 57 56 224
3 227 226 57
3 224 227 57
3 80 79 204
3 80 204 203
3 183 94 93
3 183 93 184
3 197 83 82
3 197 82 195
3 223 61 60
3 223 60 220
3 133 135 138
3 138 186 165
3 164 163 134
3 138 165 164
3 164 134 133
3 133 138 164
3 95 94 183
3 95 183 185
3 221 63 62
3 221 62 219
3 202 69 28
3 202 28 27
3 166 115 38
3 166 38 41
3 186 138 137
3 186 137 188
3 225 59 58
3 225 58 222
3 181 96 98
3 181 98 182
3 45 44 102
3 45 102 177
3 180 99 43
3 180 43 42
3 89 92 187
3 89 187 189
3 86 89 189
3 86 189 192
3 193 84 86
3 86 192 194
3 86 194 193
3 220 60 63
3 220 63 221
3 85 84 193
3 85 193 196
3 146 116 118
3 146 118 147
3 195 82 85
3 195 85 196
3 124 123 154
3 124 154 153
3 121 124 153
3 121 153 152
3 150 119 122
3 122 121 152
3 151 150 122
3 152 151 122
3 39 116 146
3 39 146 40
3 131 134 163
3 131 163 162
3 216 70 6
3 216 6 5
3 113 115 166
3 113 166 168
3 169 111 114
3 114 113 168
3 167 169 114
3 114 168 167
3 148 147 118
3 148 118 117
3 119 150 149
3 149 148 117
3 120 119 149
3 117 120 149
3 129 132 161
3 129 161 160
3 130 129 160
3 130 160 159
3 127 130 159
3 127 159 158
3 128 127 158
3 128 158 157
3 125 128 157
3 125 157 156
3 154 123 126
3 126 125 156
3 155 154 126
3 126 156 155
3 231 230 50
3 231 50 53
3 228 231 53
3 228 53 52
3 54 226 229
3 229 228 52
3 55 54 229
3 52 55 229
3 139 112 111
3 139 111 169
3 141 51 50
3 141 50 230
3 98 100 179
3 98 179 182
3 204 79 78
3 204 78 205
3 58 61 223
3 58 223 222
3 188 137 136
3 188 136 97
3 190 188 97
3 91 90 199
3 190 97 91
3 191 190 91
3 91 199 198
3 91 198 191
3 132 131 162
3 132 162 161
3 92 95 185
3 92 185 187
3 88 81 201
3 88 201 200
3 73 72 214
3 73 214 213
3 74 73 213
3 74 213 212
3 75 74 212
3 75 212 211
3 78 77 76
3 76 75 211
3 76 211 207
3 205 78 76
3 76 207 206
3 206 205 76
3 179 100 99
3 179 99 180
3 184 93 96
3 184 96 181
3 90 88 200
3 90 200 199
3 215 71 33
3 215 33 32
3 35 34 70
3 35 70 216
