ply
format ascii 1.0
comment Created by Blender 3.6.8 - www.blender.org
element vertex 198
property float x
property float y
property float z
element face 384
property list uchar uint vertex_indices
end_header
0.002468 0.003740 0.150000
0.002468 0.003740 0.000000
0.002343 0.003801 0.000000
0.002343 0.003801 0.150000
0.001980 0.000047 0.150000
0.001980 0.000047 0.000000
0.002050 0.000083 0.000000
0.002050 0.000083 0.150000
0.000164 0.001456 0.150000
0.000164 0.001456 0.000000
0.000214 0.001343 0.000000
0.000214 0.001343 0.150000
0.001760 0.000000 0.000000
0.001683 0.000003 0.000000
0.001605 0.000013 0.000000
0.001442 0.000055 0.000000
0.001271 0.000121 0.000000
0.001183 0.000160 0.000000
0.001093 0.000204 0.000000
0.001006 0.000251 0.000000
0.000928 0.000305 0.000000
0.000856 0.000364 0.000000
0.000728 0.000503 0.000000
0.000609 0.000669 0.000000
0.000550 0.000763 0.000000
0.000489 0.000865 0.000000
0.000357 0.001092 0.000000
0.000282 0.001219 0.000000
0.000131 0.001559 0.000000
0.000110 0.001653 0.000000
0.000100 0.001740 0.000000
0.000099 0.001821 0.000000
0.000119 0.002124 0.000000
0.000000 0.003771 0.000000
0.000435 0.004060 0.000000
0.000484 0.004083 0.000000
0.000535 0.004101 0.000000
0.000565 0.004109 0.000000
0.000599 0.004117 0.000000
0.000675 0.004130 0.000000
0.000762 0.004135 0.000000
0.000809 0.004134 0.000000
0.000858 0.004132 0.000000
0.000962 0.004126 0.000000
0.001072 0.004118 0.000000
0.001186 0.004108 0.000000
0.001243 0.004102 0.000000
0.001300 0.004095 0.000000
0.001357 0.004088 0.000000
0.001412 0.004081 0.000000
0.001467 0.004073 0.000000
0.001524 0.004062 0.000000
0.001588 0.004048 0.000000
0.001657 0.004032 0.000000
0.001730 0.004012 0.000000
0.001806 0.003990 0.000000
0.001885 0.003966 0.000000
0.001965 0.003940 0.000000
0.002123 0.003886 0.000000
0.002200 0.003858 0.000000
0.002274 0.003829 0.000000
0.002577 0.003667 0.000000
0.002675 0.003584 0.000000
0.002764 0.003487 0.000000
0.002933 0.003257 0.000000
0.002971 0.003193 0.000000
0.002999 0.003129 0.000000
0.003020 0.003064 0.000000
0.003034 0.002998 0.000000
0.003041 0.002930 0.000000
0.003042 0.002784 0.000000
0.003037 0.002704 0.000000
0.003030 0.002619 0.000000
0.003021 0.002529 0.000000
0.001835 0.000006 0.000000
0.001909 0.000022 0.000000
0.002116 0.000125 0.000000
0.002232 0.000204 0.000000
0.002176 0.000165 0.000000
0.002633 0.000576 0.000000
0.002283 0.000243 0.000000
0.002730 0.000650 0.000000
0.002699 0.000627 0.000000
0.002667 0.000603 0.000000
0.002758 0.000675 0.000000
0.002785 0.000706 0.000000
0.002832 0.000796 0.000000
0.002810 0.000745 0.000000
0.002870 0.000943 0.000000
0.002852 0.000861 0.000000
0.002898 0.001171 0.000000
0.002885 0.001046 0.000000
0.002909 0.001302 0.000000
0.003012 0.002431 0.000000
0.003004 0.002326 0.000000
0.002997 0.002222 0.000000
0.002989 0.002128 0.000000
0.002982 0.002040 0.000000
0.002920 0.001419 0.000000
0.002974 0.001956 0.000000
0.002965 0.001875 0.000000
0.002957 0.001793 0.000000
0.002948 0.001709 0.000000
0.002930 0.001524 0.000000
0.002939 0.001620 0.000000
0.001683 0.000003 0.150000
0.001760 0.000000 0.150000
0.000099 0.001821 0.150000
0.000119 0.002124 0.150000
0.000110 0.001653 0.150000
0.000131 0.001559 0.150000
0.001835 0.000006 0.150000
0.001588 0.004048 0.150000
0.001524 0.004062 0.150000
0.001467 0.004073 0.150000
0.001412 0.004081 0.150000
0.001357 0.004088 0.150000
0.001300 0.004095 0.150000
0.001243 0.004102 0.150000
0.001186 0.004108 0.150000
0.001072 0.004118 0.150000
0.000962 0.004126 0.150000
0.000858 0.004132 0.150000
0.000809 0.004134 0.150000
0.000762 0.004135 0.150000
0.000675 0.004130 0.150000
0.000599 0.004117 0.150000
0.000565 0.004109 0.150000
0.000535 0.004101 0.150000
0.000484 0.004083 0.150000
0.000435 0.004060 0.150000
0.000000 0.003771 0.150000
0.000100 0.001740 0.150000
0.000282 0.001219 0.150000
0.000357 0.001092 0.150000
0.000489 0.000865 0.150000
0.000550 0.000763 0.150000
0.000609 0.000669 0.150000
0.000728 0.000503 0.150000
0.000856 0.000364 0.150000
0.000928 0.000305 0.150000
0.001006 0.000251 0.150000
0.001093 0.000204 0.150000
0.001183 0.000160 0.150000
0.001271 0.000121 0.150000
0.001442 0.000055 0.150000
0.001605 0.000013 0.150000
0.001909 0.000022 0.150000
0.002116 0.000125 0.150000
0.002176 0.000165 0.150000
0.002232 0.000204 0.150000
0.002283 0.000243 0.150000
0.002633 0.000576 0.150000
0.001730 0.004012 0.150000
0.001657 0.004032 0.150000
0.001885 0.003966 0.150000
0.001806 0.003990 0.150000
0.002123 0.003886 0.150000
0.001965 0.003940 0.150000
0.002274 0.003829 0.150000
0.002200 0.003858 0.150000
0.002675 0.003584 0.150000
0.002577 0.003667 0.150000
0.002933 0.003257 0.150000
0.002764 0.003487 0.150000
0.002999 0.003129 0.150000
0.002971 0.003193 0.150000
0.003034 0.002998 0.150000
0.003020 0.003064 0.150000
0.003042 0.002784 0.150000
0.003041 0.002930 0.150000
0.003030 0.002619 0.150000
0.003037 0.002704 0.150000
0.003021 0.002529 0.150000
0.003012 0.002431 0.150000
0.002989 0.002128 0.150000
0.002997 0.002222 0.150000
0.003004 0.002326 0.150000
0.002982 0.002040 0.150000
0.002667 0.000603 0.150000
0.002699 0.000627 0.150000
0.002730 0.000650 0.150000
0.002758 0.000675 0.150000
0.002785 0.000706 0.150000
0.002810 0.000745 0.150000
0.002832 0.000796 0.150000
0.002852 0.000861 0.150000
0.002870 0.000943 0.150000
0.002885 0.001046 0.150000
0.002898 0.001171 0.150000
0.002909 0.001302 0.150000
0.002974 0.001956 0.150000
0.002957 0.001793 0.150000
0.002965 0.001875 0.150000
0.002948 0.001709 0.150000
0.002920 0.001419 0.150000
0.002939 0.001620 0.150000
0.002930 0.001524 0.150000
3 0 1 2
3 0 2 3
3 4 5 6
3 4 6 7
3 8 9 10
3 8 10 11
3 12 13 14
3 14 15 16
3 16 17 18
3 18 19 20
3 20 21 22
3 22 23 24
3 24 25 26
3 26 27 10
3 10 9 28
3 28 29 30
3 30 31 32
3 32 33 34
3 34 35 36
3 36 37 38
3 38 39 40
3 40 41 42
3 42 43 44
3 44 45 46
3 46 47 48
3 48 49 50
3 50 51 52
3 52 53 54
3 54 55 56
3 56 57 58
3 58 59 60
3 60 2 1
3 1 61 62
3 62 63 64
3 64 65 66
3 66 67 68
3 68 69 70
3 70 71 72
3 70 72 73
3 66 68 70
3 62 64 66
3 60 1 62
3 56 58 60
3 52 54 56
3 48 50 52
3 44 46 48
3 40 42 44
3 36 38 40
3 32 34 36
3 28 30 32
3 26 10 28
3 22 24 26
3 18 20 22
3 14 16 18
3 74 12 14
3 5 75 74
3 76 6 5
3 77 78 76
3 79 80 77
3 81 82 83
3 79 77 76
3 84 81 83
3 79 76 5
3 85 84 83
3 79 5 74
3 85 83 79
3 86 87 85
3 88 89 86
3 90 91 88
3 92 90 88
3 88 86 85
3 85 79 74
3 74 14 18
3 18 22 26
3 26 28 32
3 32 36 40
3 40 44 48
3 48 52 56
3 56 60 62
3 62 66 70
3 70 73 93
3 94 95 96
3 62 70 93
3 94 96 97
3 62 93 94
3 48 56 62
3 32 40 48
3 18 26 32
3 85 74 18
3 92 88 85
3 98 92 85
3 85 18 32
3 32 48 62
3 62 94 97
3 97 99 100
3 100 101 102
3 97 100 102
3 32 62 97
3 98 85 32
3 103 98 32
3 32 97 102
3 104 103 32
3 32 102 104
3 105 13 12
3 105 12 106
3 32 31 107
3 32 107 108
3 109 29 28
3 109 28 110
3 106 12 74
3 106 74 111
3 112 113 114
3 114 115 116
3 116 117 118
3 118 119 120
3 120 121 122
3 122 123 124
3 124 125 126
3 126 127 128
3 128 129 130
3 130 131 108
3 108 107 132
3 132 109 110
3 110 8 11
3 11 133 134
3 134 135 136
3 136 137 138
3 138 139 140
3 140 141 142
3 142 143 144
3 144 145 146
3 146 105 106
3 106 111 147
3 147 4 7
3 7 148 149
3 149 150 151
3 149 151 152
3 147 7 149
3 146 106 147
3 142 144 146
3 138 140 142
3 134 136 138
3 110 11 134
3 108 132 110
3 128 130 108
3 124 126 128
3 120 122 124
3 116 118 120
3 112 114 116
3 153 154 112
3 155 156 153
3 157 158 155
3 159 160 157
3 0 3 159
3 161 162 0
3 163 164 161
3 165 166 163
3 167 168 165
3 169 170 167
3 171 172 169
3 173 171 169
3 169 167 165
3 165 163 161
3 161 0 159
3 159 157 155
3 155 153 112
3 112 116 120
3 120 124 128
3 128 108 110
3 110 134 138
3 138 142 146
3 146 147 149
3 146 149 152
3 110 138 146
3 120 128 110
3 155 112 120
3 161 159 155
3 169 165 161
3 174 173 169
3 175 176 177
3 174 169 161
3 178 175 177
3 177 174 161
3 161 155 120
3 120 110 146
3 146 152 179
3 179 180 181
3 181 182 183
3 183 184 185
3 185 186 187
3 187 188 189
3 187 189 190
3 183 185 187
3 179 181 183
3 120 146 179
3 177 161 120
3 191 178 177
3 192 193 191
3 194 192 191
3 191 177 120
3 120 179 183
3 183 187 190
3 183 190 195
3 191 120 183
3 196 194 191
3 183 195 197
3 196 191 183
3 183 197 196
3 170 69 68
3 170 68 167
3 21 139 138
3 21 138 22
3 144 16 15
3 144 15 145
3 132 30 29
3 132 29 109
3 34 33 131
3 34 131 130
3 137 23 22
3 137 22 138
3 40 124 123
3 40 123 122
3 47 46 44
3 49 48 47
3 51 50 49
3 114 113 51
3 115 114 51
3 51 49 47
3 47 44 40
3 40 122 121
3 40 121 120
3 51 47 40
3 116 115 51
3 117 116 51
3 51 40 120
3 51 120 119
3 118 117 51
3 119 118 51
3 35 34 130
3 35 130 129
3 38 126 125
3 38 125 39
3 17 16 144
3 17 144 143
3 141 19 18
3 18 17 143
3 142 141 18
3 143 142 18
3 81 84 182
3 81 182 181
3 152 79 83
3 83 81 181
3 83 181 180
3 179 152 83
3 180 179 83
3 145 15 14
3 145 14 146
3 73 72 71
3 71 70 169
3 71 169 172
3 93 73 71
3 93 71 172
3 94 93 172
3 94 172 171
3 99 97 94
3 101 100 99
3 102 101 99
3 99 94 171
3 99 171 173
3 104 102 99
3 104 99 173
3 104 173 174
3 103 104 174
3 103 174 177
3 98 103 177
3 98 177 176
3 91 90 92
3 92 98 176
3 92 176 175
3 88 91 92
3 188 187 88
3 189 188 88
3 88 92 175
3 88 175 178
3 190 189 88
3 195 190 88
3 88 178 191
3 88 191 193
3 197 195 88
3 196 197 88
3 88 193 192
3 194 196 88
3 192 194 88
3 36 35 129
3 36 129 128
3 126 38 37
3 37 36 128
3 127 126 37
3 37 128 127
3 139 21 20
3 139 20 140
3 110 28 9
3 110 9 8
3 27 26 25
3 24 23 137
3 25 24 137
3 25 137 136
3 11 10 27
3 27 25 136
3 27 136 135
3 133 11 27
3 27 135 134
3 134 133 27
3 111 74 75
3 111 75 147
3 140 20 19
3 140 19 141
3 186 89 88
3 186 88 187
3 182 84 85
3 182 85 183
3 52 51 113
3 52 113 112
3 55 54 52
3 153 156 55
3 52 112 154
3 154 153 55
3 52 154 55
3 184 87 86
3 184 86 185
3 167 68 67
3 167 67 168
3 33 32 108
3 33 108 131
3 63 164 163
3 63 163 64
3 166 65 64
3 166 64 163
3 107 31 30
3 107 30 132
3 161 62 61
3 161 61 162
3 147 75 5
3 147 5 4
3 146 14 13
3 146 13 105
3 77 80 151
3 77 151 150
3 78 77 150
3 78 150 149
3 7 6 76
3 76 78 149
3 148 7 76
3 149 148 76
3 162 61 1
3 162 1 0
3 79 152 151
3 79 151 80
3 164 63 62
3 164 62 161
3 165 66 65
3 165 65 166
3 183 85 87
3 183 87 184
3 168 67 66
3 168 66 165
3 124 40 39
3 124 39 125
3 169 70 69
3 169 69 170
3 185 86 89
3 185 89 186
3 56 55 156
3 56 156 155
3 57 56 155
3 57 155 158
3 58 57 158
3 58 158 157
3 59 58 157
3 59 157 160
3 3 2 60
3 60 59 160
3 159 3 60
3 160 159 60
