ply
format ascii 1.0
comment Created by Blender 3.6.8 - www.blender.org
element vertex 124
property float x
property float y
property float z
element face 242
property list uchar uint vertex_indices
end_header
0.000399 0.009425 0.000000
0.001654 0.009462 0.000000
0.001826 0.009274 0.000000
0.002005 0.009068 0.000000
0.002214 0.008816 0.000000
0.002323 0.008678 0.000000
0.002431 0.008536 0.000000
0.002534 0.008392 0.000000
0.002631 0.008249 0.000000
0.002718 0.008109 0.000000
0.002871 0.007837 0.000000
0.004283 0.004393 0.000000
0.004352 0.004082 0.000000
0.004391 0.003777 0.000000
0.004403 0.003481 0.000000
0.004389 0.003195 0.000000
0.004373 0.003057 0.000000
0.004351 0.002922 0.000000
0.004323 0.002788 0.000000
0.004253 0.002518 0.000000
0.004213 0.002383 0.000000
0.004169 0.002249 0.000000
0.004124 0.002117 0.000000
0.004077 0.001988 0.000000
0.004029 0.001863 0.000000
0.003982 0.001742 0.000000
0.003935 0.001626 0.000000
0.003890 0.001516 0.000000
0.003847 0.001412 0.000000
0.003799 0.001311 0.000000
0.003670 0.001103 0.000000
0.003509 0.000894 0.000000
0.003419 0.000793 0.000000
0.003327 0.000696 0.000000
0.003138 0.000516 0.000000
0.002870 0.000301 0.000000
0.002785 0.000247 0.000000
0.002696 0.000201 0.000000
0.002507 0.000128 0.000000
0.002315 0.000077 0.000000
0.002220 0.000058 0.000000
0.002127 0.000043 0.000000
0.002038 0.000030 0.000000
0.001955 0.000019 0.000000
0.001877 0.000010 0.000000
0.001806 0.000001 0.000000
0.001715 0.000005 0.000000
0.001581 0.000028 0.000000
0.001414 0.000068 0.000000
0.001224 0.000121 0.000000
0.000607 0.000315 0.000000
0.000013 0.000520 0.000000
0.000009 0.001646 0.000000
0.000004 0.003236 0.000000
0.000002 0.004135 0.000000
0.000000 0.005038 0.000000
0.000000 0.005894 0.000000
0.000001 0.006655 0.000000
0.000004 0.007272 0.000000
0.000008 0.007695 0.000000
0.000015 0.007874 0.000000
0.000157 0.008847 0.000000
0.000015 0.007874 0.150000
0.000157 0.008847 0.150000
0.004352 0.004082 0.150000
0.004391 0.003777 0.150000
0.000399 0.009425 0.150000
0.001654 0.009462 0.150000
0.004389 0.003195 0.150000
0.004373 0.003057 0.150000
0.004323 0.002788 0.150000
0.004351 0.002922 0.150000
0.001826 0.009274 0.150000
0.002005 0.009068 0.150000
0.002214 0.008816 0.150000
0.002431 0.008536 0.150000
0.002323 0.008678 0.150000
0.001715 0.000005 0.150000
0.001806 0.000001 0.150000
0.002507 0.000128 0.150000
0.002696 0.000201 0.150000
0.003799 0.001311 0.150000
0.003847 0.001412 0.150000
0.004253 0.002518 0.150000
0.004213 0.002383 0.150000
0.003890 0.001516 0.150000
0.004169 0.002249 0.150000
0.003935 0.001626 0.150000
0.004124 0.002117 0.150000
0.004077 0.001988 0.150000
0.003982 0.001742 0.150000
0.004029 0.001863 0.150000
0.003138 0.000516 0.150000
0.003327 0.000696 0.150000
0.003419 0.000793 0.150000
0.003509 0.000894 0.150000
0.003670 0.001103 0.150000
0.004403 0.003481 0.150000
0.004283 0.004393 0.150000
0.002871 0.007837 0.150000
0.002718 0.008109 0.150000
0.002631 0.008249 0.150000
0.002534 0.008392 0.150000
0.000008 0.007695 0.150000
0.000004 0.007272 0.150000
0.000001 0.006655 0.150000
0.000000 0.005894 0.150000
0.000000 0.005038 0.150000
0.000002 0.004135 0.150000
0.000004 0.003236 0.150000
0.000009 0.001646 0.150000
0.000013 0.000520 0.150000
0.000607 0.000315 0.150000
0.001224 0.000121 0.150000
0.001414 0.000068 0.150000
0.001581 0.000028 0.150000
0.001877 0.000010 0.150000
0.001955 0.000019 0.150000
0.002038 0.000030 0.150000
0.002127 0.000043 0.150000
0.002220 0.000058 0.150000
0.002315 0.000077 0.150000
0.002785 0.000247 0.150000
0.002870 0.000301 0.150000
3 0 1 2
3 2 3 4
3 4 5 6
3 6 7 8
3 8 9 10
3 10 11 12
3 12 13 14
3 14 15 16
3 16 17 18
3 18 19 20
3 20 21 22
3 22 23 24
3 24 25 26
3 26 27 28
3 28 29 30
3 30 31 32
3 32 33 34
3 34 35 36
3 36 37 38
3 38 39 40
3 40 41 42
3 42 43 44
3 44 45 46
3 46 47 48
3 48 49 50
3 50 51 52
3 52 53 54
3 54 55 56
3 56 57 58
3 58 59 60
3 60 61 0
3 0 2 4
3 4 6 8
3 8 10 12
3 12 14 16
3 16 18 20
3 20 22 24
3 24 26 28
3 28 30 32
3 32 34 36
3 36 38 40
3 40 42 44
3 44 46 48
3 48 50 52
3 52 54 56
3 56 58 60
3 60 0 4
3 4 8 12
3 12 16 20
3 20 24 28
3 28 32 36
3 36 40 44
3 44 48 52
3 52 56 60
3 60 4 12
3 12 20 28
3 28 36 44
3 44 52 60
3 60 12 28
3 28 44 60
3 62 63 61
3 62 61 60
3 12 64 65
3 12 65 13
3 66 67 1
3 66 1 0
3 16 15 68
3 16 68 69
3 70 18 16
3 16 69 71
3 16 71 70
3 2 1 67
3 2 67 72
3 3 2 72
3 3 72 73
3 4 3 73
3 4 73 74
3 75 6 5
3 5 4 74
3 76 75 5
3 5 74 76
3 77 46 45
3 77 45 78
3 79 38 37
3 79 37 80
3 81 29 28
3 81 28 82
3 20 19 83
3 20 83 84
3 23 22 20
3 25 24 23
3 27 26 25
3 82 28 27
3 85 82 27
3 27 25 23
3 23 20 84
3 23 84 86
3 85 27 23
3 87 85 23
3 23 86 88
3 23 88 89
3 90 87 23
3 23 89 91
3 91 90 23
3 18 70 83
3 18 83 19
3 92 93 94
3 94 95 96
3 96 81 82
3 82 85 87
3 87 90 91
3 91 89 88
3 88 86 84
3 84 83 70
3 70 71 69
3 69 68 97
3 97 65 64
3 64 98 99
3 99 100 101
3 101 102 75
3 75 76 74
3 74 73 72
3 72 67 66
3 66 63 62
3 62 103 104
3 104 105 106
3 106 107 108
3 108 109 110
3 110 111 112
3 112 113 114
3 114 115 77
3 77 78 116
3 116 117 118
3 118 119 120
3 120 121 79
3 79 80 122
3 122 123 92
3 92 94 96
3 96 82 87
3 87 91 88
3 88 84 70
3 70 69 97
3 97 64 99
3 99 101 75
3 75 74 72
3 72 66 62
3 62 104 106
3 106 108 110
3 110 112 114
3 114 77 116
3 116 118 120
3 120 79 122
3 122 92 96
3 96 87 88
3 88 70 97
3 97 99 75
3 75 72 62
3 62 106 110
3 110 114 116
3 116 120 122
3 122 96 88
3 88 97 75
3 75 62 110
3 110 116 122
3 122 88 75
3 75 110 122
3 96 30 29
3 96 29 81
3 14 13 65
3 14 65 97
3 11 10 99
3 11 99 98
3 30 96 95
3 30 95 31
3 52 51 111
3 52 111 110
3 53 52 110
3 53 110 109
3 54 53 109
3 54 109 108
3 55 54 108
3 55 108 107
3 56 55 107
3 56 107 106
3 57 56 106
3 57 106 105
3 58 57 105
3 58 105 104
3 62 60 59
3 59 58 104
3 103 62 59
3 104 103 59
3 100 99 10
3 100 10 9
3 101 100 9
3 101 9 8
3 6 75 102
3 102 101 8
3 7 6 102
3 8 7 102
3 39 38 79
3 39 79 121
3 48 47 115
3 48 115 114
3 49 48 114
3 49 114 113
3 111 51 50
3 50 49 113
3 112 111 50
3 113 112 50
3 35 34 92
3 35 92 123
3 122 36 35
3 122 35 123
3 32 31 95
3 32 95 94
3 92 34 33
3 33 32 94
3 93 92 33
3 33 94 93
3 80 37 36
3 80 36 122
3 115 47 46
3 115 46 77
3 40 39 121
3 40 121 120
3 41 40 120
3 41 120 119
3 42 41 119
3 42 119 118
3 43 42 118
3 43 118 117
3 78 45 44
3 44 43 117
3 116 78 44
3 117 116 44
3 12 11 98
3 12 98 64
3 66 0 61
3 66 61 63
3 14 97 68
3 14 68 15
