ply
format ascii 1.0
comment Created by Blender 3.6.8 - www.blender.org
element vertex 168
property float x
property float y
property float z
element face 332
property list uchar uint vertex_indices
end_header
0.010454 0.002357 0.000000
0.010407 0.002487 0.000000
0.010407 0.002487 0.150000
0.010454 0.002357 0.150000
0.000000 0.007376 0.150000
0.000000 0.007376 0.000000
0.000016 0.007132 0.000000
0.000016 0.007132 0.150000
0.010655 0.001362 0.000000
0.010654 0.001531 0.000000
0.010654 0.001531 0.150000
0.010655 0.001362 0.150000
0.006324 0.007733 0.150000
0.006324 0.007733 0.000000
0.006257 0.007818 0.000000
0.006257 0.007818 0.150000
0.004953 0.008888 0.150000
0.004953 0.008888 0.000000
0.004613 0.009100 0.000000
0.004613 0.009100 0.150000
0.000847 0.005570 0.150000
0.000847 0.005570 0.000000
0.001085 0.005349 0.000000
0.001085 0.005349 0.150000
0.003111 0.009592 0.150000
0.002967 0.009610 0.150000
0.002705 0.009620 0.150000
0.001738 0.009547 0.150000
0.001499 0.009515 0.150000
0.001400 0.009497 0.150000
0.001260 0.009460 0.150000
0.001125 0.009391 0.150000
0.000347 0.008886 0.150000
0.000201 0.008500 0.150000
0.000088 0.008096 0.150000
0.000011 0.007623 0.150000
0.000064 0.006898 0.150000
0.000150 0.006678 0.150000
0.000353 0.006293 0.150000
0.000449 0.006124 0.150000
0.000544 0.005969 0.150000
0.000641 0.005825 0.150000
0.001371 0.005149 0.150000
0.001714 0.004964 0.150000
0.005008 0.003595 0.150000
0.003573 0.009494 0.150000
0.003261 0.009566 0.150000
0.003888 0.009400 0.150000
0.003731 0.009449 0.150000
0.004192 0.009291 0.150000
0.006155 0.007924 0.150000
0.006445 0.007546 0.150000
0.006379 0.007649 0.150000
0.006701 0.007136 0.150000
0.006522 0.007424 0.150000
0.007115 0.006449 0.150000
0.006902 0.006805 0.150000
0.007326 0.006087 0.150000
0.007221 0.006267 0.150000
0.007427 0.005910 0.150000
0.007530 0.005737 0.150000
0.005279 0.003424 0.150000
0.005543 0.003220 0.150000
0.007639 0.005571 0.150000
0.005679 0.003098 0.150000
0.005821 0.002960 0.150000
0.006362 0.002418 0.150000
0.006623 0.002162 0.150000
0.007753 0.005410 0.150000
0.007869 0.005255 0.150000
0.006758 0.002033 0.150000
0.006899 0.001902 0.150000
0.007048 0.001766 0.150000
0.007207 0.001624 0.150000
0.007747 0.001155 0.150000
0.008232 0.000715 0.150000
0.008378 0.000588 0.150000
0.007988 0.005105 0.150000
0.008225 0.004825 0.150000
0.008663 0.000371 0.150000
0.008806 0.000284 0.150000
0.008953 0.000214 0.150000
0.009105 0.000163 0.150000
0.009267 0.000131 0.150000
0.009610 0.000112 0.150000
0.010152 0.000010 0.150000
0.010253 0.000000 0.150000
0.010344 0.002611 0.150000
0.010253 0.002742 0.150000
0.008851 0.004122 0.150000
0.010341 0.000010 0.150000
0.010416 0.000045 0.150000
0.010479 0.000114 0.150000
0.010529 0.000222 0.150000
0.010566 0.000376 0.150000
0.010636 0.001677 0.150000
0.001125 0.009391 0.000000
0.000347 0.008886 0.000000
0.001499 0.009515 0.000000
0.001738 0.009547 0.000000
0.002705 0.009620 0.000000
0.002967 0.009610 0.000000
0.003111 0.009592 0.000000
0.003261 0.009566 0.000000
0.003573 0.009494 0.000000
0.003731 0.009449 0.000000
0.003888 0.009400 0.000000
0.004192 0.009291 0.000000
0.006155 0.007924 0.000000
0.006379 0.007649 0.000000
0.006445 0.007546 0.000000
0.006522 0.007424 0.000000
0.006701 0.007136 0.000000
0.006902 0.006805 0.000000
0.007115 0.006449 0.000000
0.007221 0.006267 0.000000
0.007326 0.006087 0.000000
0.007427 0.005910 0.000000
0.001260 0.009460 0.000000
0.001400 0.009497 0.000000
0.000088 0.008096 0.000000
0.000201 0.008500 0.000000
0.000011 0.007623 0.000000
0.000064 0.006898 0.000000
0.000353 0.006293 0.000000
0.000150 0.006678 0.000000
0.000544 0.005969 0.000000
0.000449 0.006124 0.000000
0.000641 0.005825 0.000000
0.001371 0.005149 0.000000
0.005008 0.003595 0.000000
0.001714 0.004964 0.000000
0.007530 0.005737 0.000000
0.005279 0.003424 0.000000
0.007639 0.005571 0.000000
0.005543 0.003220 0.000000
0.007753 0.005410 0.000000
0.005679 0.003098 0.000000
0.007869 0.005255 0.000000
0.006623 0.002162 0.000000
0.006362 0.002418 0.000000
0.005821 0.002960 0.000000
0.007988 0.005105 0.000000
0.006758 0.002033 0.000000
0.007048 0.001766 0.000000
0.006899 0.001902 0.000000
0.007747 0.001155 0.000000
0.007207 0.001624 0.000000
0.008378 0.000588 0.000000
0.008232 0.000715 0.000000
0.008806 0.000284 0.000000
0.008663 0.000371 0.000000
0.009105 0.000163 0.000000
0.008953 0.000214 0.000000
0.009610 0.000112 0.000000
0.009267 0.000131 0.000000
0.010253 0.000000 0.000000
0.010152 0.000010 0.000000
0.010416 0.000045 0.000000
0.010341 0.000010 0.000000
0.010529 0.000222 0.000000
0.010479 0.000114 0.000000
0.010566 0.000376 0.000000
0.010636 0.001677 0.000000
0.010253 0.002742 0.000000
0.010344 0.002611 0.000000
0.008851 0.004122 0.000000
0.008225 0.004825 0.000000
3 0 1 2
3 0 2 3
3 4 5 6
3 4 6 7
3 8 9 10
3 8 10 11
3 12 13 14
3 12 14 15
3 16 17 18
3 16 18 19
3 20 21 22
3 20 22 23
3 24 25 26
3 26 27 28
3 28 29 30
3 30 31 32
3 32 33 34
3 34 35 4
3 4 7 36
3 36 37 38
3 38 39 40
3 40 41 20
3 20 23 42
3 42 43 44
3 20 42 44
3 38 40 20
3 4 36 38
3 32 34 4
3 28 30 32
3 24 26 28
3 45 46 24
3 47 48 45
3 19 49 47
3 50 16 19
3 12 15 50
3 51 52 12
3 53 54 51
3 55 56 53
3 57 58 55
3 59 57 55
3 55 53 51
3 51 12 50
3 50 19 47
3 47 45 24
3 24 28 32
3 32 4 38
3 38 20 44
3 32 38 44
3 47 24 32
3 51 50 47
3 59 55 51
3 60 59 51
3 51 47 32
3 32 44 61
3 32 61 62
3 60 51 32
3 63 60 32
3 32 62 64
3 65 66 67
3 32 64 65
3 68 63 32
3 69 68 32
3 32 65 67
3 67 70 71
3 71 72 73
3 74 75 76
3 71 73 74
3 32 67 71
3 77 69 32
3 78 77 32
3 32 71 74
3 74 76 79
3 79 80 81
3 81 82 83
3 84 85 86
3 81 83 84
3 74 79 81
3 78 32 74
3 87 88 89
3 89 78 74
3 74 81 84
3 84 86 90
3 90 91 92
3 92 93 94
3 94 11 10
3 10 95 3
3 3 2 87
3 87 89 74
3 74 84 90
3 90 92 94
3 94 10 3
3 3 87 74
3 74 90 94
3 74 94 3
3 96 97 32
3 96 32 31
3 98 99 100
3 100 101 102
3 102 103 104
3 104 105 106
3 106 107 18
3 18 17 108
3 108 14 13
3 13 109 110
3 110 111 112
3 112 113 114
3 114 115 116
3 114 116 117
3 110 112 114
3 108 13 110
3 106 18 108
3 102 104 106
3 98 100 102
3 118 119 98
3 97 96 118
3 120 121 97
3 5 122 120
3 123 6 5
3 124 125 123
3 126 127 124
3 21 128 126
3 129 22 21
3 130 131 129
3 130 129 21
3 21 126 124
3 124 123 5
3 5 120 97
3 97 118 98
3 98 102 106
3 106 108 110
3 110 114 117
3 110 117 132
3 98 106 110
3 5 97 98
3 21 124 5
3 130 21 5
3 5 98 110
3 5 110 132
3 133 130 5
3 133 5 132
3 133 132 134
3 135 133 134
3 135 134 136
3 137 135 136
3 137 136 138
3 139 140 141
3 141 137 138
3 141 138 142
3 143 139 141
3 144 145 143
3 146 147 144
3 148 149 146
3 150 151 148
3 152 153 150
3 154 155 152
3 156 157 154
3 158 159 156
3 160 161 158
3 8 162 160
3 163 9 8
3 1 0 163
3 164 165 1
3 166 164 1
3 1 163 8
3 8 160 158
3 158 156 154
3 154 152 150
3 150 148 146
3 146 144 143
3 143 141 142
3 143 142 167
3 150 146 143
3 158 154 150
3 1 8 158
3 143 167 166
3 166 1 158
3 158 150 143
3 166 158 143
3 119 118 30
3 119 30 29
3 34 120 122
3 34 122 35
3 79 151 150
3 79 150 80
3 135 62 61
3 135 61 133
3 127 126 128
3 128 41 40
3 128 40 39
3 124 127 128
3 37 125 124
3 128 39 38
3 38 37 124
3 128 38 124
3 105 104 45
3 105 45 48
3 49 107 106
3 106 105 48
3 47 49 106
3 48 47 106
3 33 121 120
3 33 120 34
3 81 153 152
3 81 152 82
3 76 148 151
3 76 151 79
3 82 152 155
3 82 155 83
3 98 119 29
3 98 29 28
3 26 100 99
3 99 98 28
3 27 26 99
3 99 28 27
3 109 13 12
3 109 12 52
3 110 109 52
3 110 52 51
3 111 110 51
3 111 51 54
3 112 111 54
3 112 54 53
3 113 112 53
3 113 53 56
3 114 113 56
3 114 56 55
3 115 114 55
3 115 55 58
3 132 117 116
3 116 115 58
3 116 58 57
3 134 132 116
3 60 63 134
3 116 57 59
3 59 60 134
3 59 134 116
3 18 107 49
3 18 49 19
3 92 161 160
3 92 160 93
3 35 122 5
3 35 5 4
3 10 9 163
3 10 163 95
3 142 138 136
3 136 134 63
3 136 63 68
3 167 142 136
3 89 166 167
3 78 89 167
3 167 136 68
3 167 68 69
3 77 78 167
3 69 77 167
3 15 14 108
3 15 108 50
3 91 158 161
3 91 161 92
3 86 156 159
3 86 159 90
3 154 84 83
3 154 83 155
3 42 129 131
3 42 131 43
3 44 130 133
3 44 133 61
3 103 102 101
3 101 25 24
3 46 45 104
3 101 24 46
3 104 103 101
3 101 46 104
3 80 150 153
3 80 153 81
3 166 89 88
3 166 88 164
3 25 101 100
3 25 100 26
3 147 146 149
3 149 148 76
3 149 76 75
3 147 149 75
3 147 75 74
3 144 147 74
3 144 74 73
3 145 144 73
3 145 73 72
3 143 145 72
3 143 72 71
3 139 143 71
3 139 71 70
3 137 141 140
3 140 139 70
3 140 70 67
3 135 137 140
3 64 62 135
3 65 64 135
3 135 140 67
3 66 65 135
3 67 66 135
3 36 123 125
3 36 125 37
3 85 157 156
3 85 156 86
3 165 164 88
3 165 88 87
3 90 159 158
3 90 158 91
3 128 21 20
3 128 20 41
3 43 131 130
3 43 130 44
3 30 118 96
3 30 96 31
3 1 165 87
3 1 87 2
3 7 6 123
3 7 123 36
3 23 22 129
3 23 129 42
3 154 157 85
3 154 85 84
3 93 160 162
3 93 162 94
3 162 8 11
3 162 11 94
3 97 121 33
3 97 33 32
3 163 0 3
3 163 3 95
3 108 17 16
3 108 16 50
