ply
format ascii 1.0
comment Created by Blender 3.6.8 - www.blender.org
element vertex 214
property float x
property float y
property float z
element face 422
property list uchar uint vertex_indices
end_header
0.006071 0.002333 0.000000
0.006150 0.002282 0.000000
0.006150 0.002282 0.150000
0.006071 0.002333 0.150000
0.005988 0.002383 0.000000
0.005988 0.002383 0.150000
0.005359 0.002713 0.150000
0.005359 0.002713 0.000000
0.005813 0.002480 0.000000
0.005813 0.002480 0.150000
0.006677 0.005045 0.150000
0.006677 0.005045 0.000000
0.006603 0.005065 0.000000
0.006603 0.005065 0.150000
0.010415 0.000564 0.000000
0.010530 0.000626 0.000000
0.010530 0.000626 0.150000
0.010415 0.000564 0.150000
0.009871 0.000314 0.000000
0.009871 0.000314 0.150000
0.009407 0.000094 0.150000
0.009407 0.000094 0.000000
0.009559 0.000155 0.000000
0.009559 0.000155 0.150000
0.000352 0.008700 0.000000
0.000260 0.008573 0.000000
0.000213 0.008502 0.000000
0.000167 0.008427 0.000000
0.000167 0.008427 0.150000
0.000213 0.008502 0.150000
0.000352 0.008700 0.150000
0.000260 0.008573 0.150000
0.007135 0.000994 0.000000
0.007256 0.000892 0.000000
0.007362 0.000797 0.000000
0.007457 0.000709 0.000000
0.007693 0.000484 0.000000
0.007763 0.000419 0.000000
0.007833 0.000360 0.000000
0.007833 0.000360 0.150000
0.007763 0.000419 0.150000
0.007016 0.001100 0.000000
0.006916 0.001204 0.150000
0.006916 0.001204 0.000000
0.007016 0.001100 0.150000
0.007693 0.000484 0.150000
0.007135 0.000994 0.150000
0.007256 0.000892 0.150000
0.007457 0.000709 0.150000
0.007362 0.000797 0.150000
0.011158 0.001858 0.150000
0.011158 0.001858 0.000000
0.011196 0.002133 0.000000
0.011196 0.002133 0.150000
0.011054 0.001400 0.000000
0.011094 0.001557 0.000000
0.011129 0.001710 0.000000
0.011129 0.001710 0.150000
0.011010 0.001239 0.000000
0.011054 0.001400 0.150000
0.011010 0.001239 0.150000
0.011094 0.001557 0.150000
0.011208 0.002375 0.150000
0.011208 0.002375 0.000000
0.011203 0.002479 0.000000
0.011203 0.002479 0.150000
0.004297 0.008417 0.150000
0.004297 0.008417 0.000000
0.004266 0.008449 0.000000
0.004266 0.008449 0.150000
0.010731 0.000769 0.150000
0.010731 0.000769 0.000000
0.010817 0.000859 0.000000
0.010817 0.000859 0.150000
0.008210 0.004756 0.150000
0.008210 0.004756 0.000000
0.007253 0.004998 0.000000
0.007253 0.004998 0.150000
0.000097 0.007546 0.000000
0.000367 0.007058 0.000000
0.000367 0.007058 0.150000
0.000097 0.007546 0.150000
0.000701 0.006583 0.000000
0.000937 0.006319 0.000000
0.000937 0.006319 0.150000
0.000701 0.006583 0.150000
0.001126 0.008903 0.000000
0.000912 0.008875 0.000000
0.000912 0.008875 0.150000
0.001126 0.008903 0.150000
0.002211 0.008977 0.150000
0.002211 0.008977 0.000000
0.001565 0.008944 0.000000
0.001565 0.008944 0.150000
0.008362 0.000081 0.150000
0.008362 0.000081 0.000000
0.008591 0.000024 0.000000
0.008591 0.000024 0.150000
0.011190 0.002572 0.000000
0.011190 0.002572 0.150000
0.000551 0.008802 0.000000
0.000551 0.008802 0.150000
0.006844 0.005018 0.000000
0.006844 0.005018 0.150000
0.000008 0.008010 0.150000
0.000008 0.008010 0.000000
0.000000 0.007922 0.000000
0.000000 0.007922 0.150000
0.000085 0.008267 0.000000
0.000085 0.008267 0.150000
0.006291 0.002174 0.150000
0.006291 0.002174 0.000000
0.006405 0.002061 0.000000
0.006405 0.002061 0.150000
0.004929 0.007655 0.150000
0.004929 0.007655 0.000000
0.011169 0.002652 0.150000
0.011169 0.002652 0.000000
0.011140 0.002718 0.000000
0.011140 0.002718 0.150000
0.006325 0.005275 0.000000
0.006252 0.005348 0.000000
0.006175 0.005429 0.000000
0.006095 0.005516 0.000000
0.006095 0.005516 0.150000
0.006175 0.005429 0.150000
0.006391 0.005211 0.000000
0.006493 0.005119 0.000000
0.006447 0.005159 0.000000
0.006447 0.005159 0.150000
0.006493 0.005119 0.150000
0.006391 0.005211 0.150000
0.006252 0.005348 0.150000
0.006325 0.005275 0.150000
0.011097 0.002785 0.000000
0.010500 0.003500 0.000000
0.010500 0.003500 0.150000
0.011097 0.002785 0.150000
0.008155 0.000161 0.150000
0.008843 0.000000 0.150000
0.009116 0.000020 0.150000
0.009259 0.000050 0.150000
0.010635 0.000693 0.150000
0.010892 0.000965 0.150000
0.010956 0.001091 0.150000
0.010408 0.003594 0.150000
0.010324 0.003676 0.150000
0.010249 0.003741 0.150000
0.010189 0.003786 0.150000
0.008300 0.004724 0.150000
0.007981 0.000254 0.150000
0.006540 0.005089 0.150000
0.006832 0.001307 0.150000
0.006451 0.001999 0.150000
0.006701 0.001505 0.150000
0.005938 0.005700 0.150000
0.005865 0.005795 0.150000
0.005129 0.002855 0.150000
0.005799 0.005888 0.150000
0.004870 0.003030 0.150000
0.004165 0.003555 0.150000
0.000618 0.006692 0.150000
0.000449 0.006932 0.150000
0.000533 0.006809 0.150000
0.000004 0.007834 0.150000
0.000022 0.007746 0.150000
0.000025 0.008098 0.150000
0.000425 0.008755 0.150000
0.003931 0.008669 0.150000
0.003756 0.008765 0.150000
0.004114 0.008559 0.150000
0.004053 0.008597 0.150000
0.004224 0.008483 0.150000
0.004172 0.008521 0.150000
0.005173 0.007287 0.150000
0.005696 0.006065 0.150000
0.010956 0.001091 0.000000
0.010892 0.000965 0.000000
0.010635 0.000693 0.000000
0.010324 0.003676 0.000000
0.010408 0.003594 0.000000
0.010189 0.003786 0.000000
0.010249 0.003741 0.000000
0.008300 0.004724 0.000000
0.009259 0.000050 0.000000
0.009116 0.000020 0.000000
0.008843 0.000000 0.000000
0.008155 0.000161 0.000000
0.007981 0.000254 0.000000
0.006540 0.005089 0.000000
0.006832 0.001307 0.000000
0.006701 0.001505 0.000000
0.006451 0.001999 0.000000
0.005938 0.005700 0.000000
0.005129 0.002855 0.000000
0.005865 0.005795 0.000000
0.004870 0.003030 0.000000
0.004165 0.003555 0.000000
0.000618 0.006692 0.000000
0.000533 0.006809 0.000000
0.000449 0.006932 0.000000
0.000022 0.007746 0.000000
0.000004 0.007834 0.000000
0.000025 0.008098 0.000000
0.000425 0.008755 0.000000
0.003756 0.008765 0.000000
0.003931 0.008669 0.000000
0.004053 0.008597 0.000000
0.004114 0.008559 0.000000
0.004172 0.008521 0.000000
0.004224 0.008483 0.000000
0.005173 0.007287 0.000000
0.005696 0.006065 0.000000
0.005799 0.005888 0.000000
3 0 1 2
3 0 2 3
3 4 0 3
3 4 3 5
3 6 7 8
3 8 4 5
3 9 6 8
3 5 9 8
3 10 11 12
3 10 12 13
3 14 15 16
3 14 16 17
3 18 14 17
3 18 17 19
3 20 21 22
3 22 18 19
3 23 20 22
3 19 23 22
3 24 25 26
3 26 27 28
3 26 28 29
3 30 24 26
3 26 29 31
3 26 31 30
3 32 33 34
3 34 35 36
3 37 38 39
3 32 34 36
3 36 37 39
3 36 39 40
3 41 32 36
3 42 43 41
3 44 42 41
3 41 36 40
3 41 40 45
3 46 44 41
3 47 46 41
3 41 45 48
3 49 47 41
3 48 49 41
3 50 51 52
3 50 52 53
3 54 55 56
3 56 51 50
3 56 50 57
3 58 54 56
3 59 60 58
3 56 57 61
3 61 59 58
3 56 61 58
3 62 63 64
3 62 64 65
3 66 67 68
3 66 68 69
3 70 71 72
3 70 72 73
3 74 75 76
3 74 76 77
3 78 79 80
3 78 80 81
3 82 83 84
3 82 84 85
3 86 87 88
3 86 88 89
3 90 91 92
3 92 86 89
3 93 90 92
3 92 89 93
3 94 95 96
3 94 96 97
3 65 64 98
3 65 98 99
3 88 87 100
3 88 100 101
3 76 102 103
3 76 103 77
3 104 105 106
3 104 106 107
3 27 108 109
3 27 109 28
3 110 111 112
3 110 112 113
3 67 66 114
3 67 114 115
3 116 117 118
3 116 118 119
3 120 121 122
3 122 123 124
3 122 124 125
3 126 120 122
3 127 128 126
3 129 130 127
3 131 129 127
3 127 126 122
3 122 125 132
3 133 131 127
3 122 132 133
3 122 133 127
3 134 135 136
3 134 136 137
3 138 94 97
3 97 139 140
3 140 141 20
3 20 23 19
3 19 17 16
3 16 142 70
3 70 73 143
3 143 144 60
3 60 59 61
3 61 57 50
3 50 53 62
3 62 65 99
3 99 116 119
3 119 137 136
3 136 145 146
3 146 147 148
3 148 149 74
3 74 77 103
3 74 103 10
3 146 148 74
3 119 136 146
3 62 99 119
3 61 50 62
3 143 60 61
3 16 70 143
3 140 20 19
3 19 16 143
3 143 61 62
3 62 119 146
3 146 74 10
3 146 10 13
3 143 62 146
3 140 19 143
3 138 97 140
3 39 150 138
3 45 40 39
3 48 45 39
3 39 138 140
3 140 143 146
3 140 146 13
3 48 39 140
3 49 48 140
3 140 13 151
3 140 151 130
3 47 49 140
3 44 46 47
3 152 42 44
3 153 154 152
3 153 152 44
3 44 47 140
3 140 130 129
3 140 129 131
3 153 44 140
3 113 153 140
3 140 131 133
3 140 133 132
3 110 113 140
3 110 140 132
3 110 132 125
3 2 110 125
3 2 125 124
3 3 2 124
3 3 124 155
3 5 3 155
3 5 155 156
3 157 6 9
3 9 5 156
3 9 156 158
3 159 157 9
3 84 160 159
3 161 85 84
3 162 163 161
3 81 80 162
3 164 165 81
3 104 107 164
3 109 166 104
3 29 28 109
3 30 31 29
3 101 167 30
3 89 88 101
3 90 93 89
3 168 169 90
3 170 171 168
3 172 173 170
3 66 69 172
3 174 114 66
3 9 158 175
3 175 174 66
3 66 172 170
3 170 168 90
3 90 89 101
3 101 30 29
3 29 109 104
3 104 164 81
3 81 162 161
3 161 84 159
3 159 9 175
3 175 66 170
3 170 90 101
3 101 29 104
3 104 81 161
3 161 159 175
3 175 170 101
3 101 104 161
3 175 101 161
3 52 51 56
3 54 58 176
3 176 177 72
3 72 71 178
3 178 15 14
3 18 22 21
3 178 14 18
3 176 72 178
3 56 54 176
3 63 52 56
3 98 64 63
3 118 117 98
3 135 134 118
3 179 180 135
3 181 182 179
3 75 183 181
3 102 76 75
3 11 102 75
3 75 181 179
3 179 135 118
3 118 98 63
3 63 56 176
3 176 178 18
3 18 21 184
3 184 185 186
3 186 96 95
3 95 187 188
3 188 38 37
3 37 36 35
3 188 37 35
3 186 95 188
3 18 184 186
3 63 176 18
3 179 118 63
3 11 75 179
3 12 11 179
3 179 63 18
3 18 186 188
3 188 35 34
3 33 32 41
3 188 34 33
3 179 18 188
3 12 179 188
3 33 41 43
3 12 188 33
3 189 12 33
3 33 43 190
3 190 191 192
3 33 190 192
3 127 189 33
3 128 127 33
3 128 33 192
3 126 128 192
3 126 192 112
3 120 126 112
3 120 112 111
3 121 120 111
3 121 111 1
3 122 121 1
3 122 1 0
3 123 122 0
3 123 0 4
3 193 123 4
3 8 7 194
3 193 4 8
3 195 193 8
3 8 194 196
3 196 197 83
3 83 82 198
3 198 199 200
3 200 79 78
3 78 201 202
3 202 106 105
3 105 203 108
3 108 27 26
3 24 204 100
3 100 87 86
3 86 92 91
3 91 205 206
3 206 207 208
3 208 209 210
3 210 68 67
3 67 115 211
3 67 211 212
3 208 210 67
3 91 206 208
3 100 86 91
3 26 24 100
3 105 108 26
3 78 202 105
3 198 200 78
3 196 83 198
3 195 8 196
3 67 212 213
3 213 195 196
3 196 198 78
3 78 105 26
3 26 100 91
3 91 208 67
3 67 213 196
3 196 78 26
3 26 91 67
3 196 26 67
3 147 182 181
3 147 181 148
3 101 100 204
3 101 204 167
3 103 102 11
3 103 11 10
3 201 78 81
3 201 81 165
3 164 202 201
3 164 201 165
3 119 118 134
3 119 134 137
3 188 187 138
3 188 138 150
3 167 204 24
3 167 24 30
3 149 183 75
3 149 75 74
3 206 205 169
3 206 169 168
3 207 206 168
3 207 168 171
3 208 207 171
3 208 171 170
3 172 210 209
3 209 208 170
3 173 172 209
3 170 173 209
3 16 15 178
3 16 178 142
3 195 213 158
3 195 158 156
3 124 123 193
3 193 195 156
3 155 124 193
3 193 156 155
3 199 198 82
3 82 85 161
3 82 161 163
3 200 199 82
3 80 79 200
3 82 163 162
3 162 80 200
3 82 162 200
3 191 190 152
3 191 152 154
3 73 72 177
3 73 177 143
3 144 176 58
3 144 58 60
3 158 213 212
3 158 212 175
3 179 182 147
3 179 147 146
3 136 135 180
3 180 179 146
3 145 136 180
3 180 146 145
3 99 98 117
3 99 117 116
3 109 108 203
3 109 203 166
3 139 186 185
3 139 185 140
3 181 183 149
3 181 149 148
3 13 12 189
3 13 189 151
3 205 91 90
3 205 90 169
3 152 190 43
3 152 43 42
3 141 184 21
3 141 21 20
3 192 191 154
3 192 154 153
3 96 186 139
3 96 139 97
3 212 211 174
3 212 174 175
3 2 1 111
3 2 111 110
3 138 187 95
3 138 95 94
3 39 38 188
3 39 188 150
3 166 203 105
3 166 105 104
3 142 178 71
3 142 71 70
3 69 68 210
3 69 210 172
3 115 114 174
3 115 174 211
3 194 7 6
3 194 6 157
3 160 197 196
3 196 194 157
3 159 160 196
3 157 159 196
3 84 83 197
3 84 197 160
3 143 177 176
3 143 176 144
3 107 106 202
3 107 202 164
3 113 112 192
3 113 192 153
3 151 189 127
3 151 127 130
3 140 185 184
3 140 184 141
3 52 63 62
3 52 62 53
