ply
format ascii 1.0
comment Created by Blender 3.6.8 - www.blender.org
element vertex 106
property float x
property float y
property float z
element face 208
property list uchar uint vertex_indices
end_header
0.006140 0.000018 0.150000
0.006140 0.000018 0.000000
0.006282 0.000046 0.000000
0.006282 0.000046 0.150000
0.007972 0.000956 0.000000
0.007972 0.000956 0.150000
0.001984 0.000551 0.000000
0.002120 0.000413 0.000000
0.002120 0.000413 0.150000
0.001984 0.000551 0.150000
0.001828 0.000718 0.000000
0.001828 0.000718 0.150000
0.001659 0.000905 0.000000
0.001659 0.000905 0.150000
0.001483 0.001104 0.000000
0.001483 0.001104 0.150000
0.001139 0.001510 0.000000
0.001139 0.001510 0.150000
0.000846 0.001874 0.150000
0.000846 0.001874 0.000000
0.000983 0.001701 0.000000
0.000983 0.001701 0.150000
0.000659 0.002134 0.150000
0.000659 0.002134 0.000000
0.005892 0.000004 0.150000
0.005892 0.000004 0.000000
0.000704 0.007479 0.000000
0.000704 0.007479 0.150000
0.001470 0.007831 0.150000
0.001470 0.007831 0.000000
0.002230 0.000310 0.000000
0.002230 0.000310 0.150000
0.002428 0.000214 0.000000
0.002307 0.000250 0.000000
0.000596 0.002272 0.000000
0.000528 0.002487 0.000000
0.000457 0.002761 0.000000
0.000383 0.003078 0.000000
0.000176 0.004117 0.000000
0.000000 0.005129 0.000000
0.000238 0.006991 0.000000
0.000281 0.007135 0.000000
0.000326 0.007223 0.000000
0.000387 0.007282 0.000000
0.000474 0.007345 0.000000
0.006377 0.007805 0.000000
0.007761 0.007027 0.000000
0.007785 0.006985 0.000000
0.007853 0.006869 0.000000
0.007957 0.006691 0.000000
0.008089 0.006463 0.000000
0.008241 0.006200 0.000000
0.008405 0.005913 0.000000
0.008572 0.005615 0.000000
0.008736 0.005319 0.000000
0.008887 0.005038 0.000000
0.009019 0.004785 0.000000
0.009122 0.004573 0.000000
0.009190 0.004414 0.000000
0.009217 0.004250 0.000000
0.009209 0.004025 0.000000
0.009171 0.003752 0.000000
0.009108 0.003443 0.000000
0.009025 0.003112 0.000000
0.008928 0.002771 0.000000
0.008506 0.001578 0.000000
0.008419 0.001387 0.000000
0.008349 0.001266 0.000000
0.008265 0.001175 0.000000
0.009209 0.004025 0.150000
0.009217 0.004250 0.150000
0.000596 0.002272 0.150000
0.009122 0.004573 0.150000
0.009190 0.004414 0.150000
0.007761 0.007027 0.150000
0.007785 0.006985 0.150000
0.007853 0.006869 0.150000
0.009019 0.004785 0.150000
0.008887 0.005038 0.150000
0.007957 0.006691 0.150000
0.008736 0.005319 0.150000
0.008089 0.006463 0.150000
0.008241 0.006200 0.150000
0.008572 0.005615 0.150000
0.008405 0.005913 0.150000
0.006377 0.007805 0.150000
0.000474 0.007345 0.150000
0.000387 0.007282 0.150000
0.000326 0.007223 0.150000
0.000281 0.007135 0.150000
0.000238 0.006991 0.150000
0.000000 0.005129 0.150000
0.000176 0.004117 0.150000
0.000383 0.003078 0.150000
0.000457 0.002761 0.150000
0.000528 0.002487 0.150000
0.002307 0.000250 0.150000
0.002428 0.000214 0.150000
0.008265 0.001175 0.150000
0.008349 0.001266 0.150000
0.008419 0.001387 0.150000
0.008506 0.001578 0.150000
0.008928 0.002771 0.150000
0.009025 0.003112 0.150000
0.009108 0.003443 0.150000
0.009171 0.003752 0.150000
3 0 1 2
3 0 2 3
3 2 4 5
3 2 5 3
3 6 7 8
3 6 8 9
3 10 6 9
3 10 9 11
3 12 10 11
3 12 11 13
3 14 12 13
3 14 13 15
3 16 14 15
3 16 15 17
3 18 19 20
3 20 16 17
3 21 18 20
3 17 21 20
3 22 23 19
3 22 19 18
3 24 25 1
3 24 1 0
3 26 27 28
3 26 28 29
3 8 7 30
3 8 30 31
3 25 32 33
3 33 30 7
3 7 6 10
3 10 12 14
3 14 16 20
3 20 19 23
3 23 34 35
3 35 36 37
3 37 38 39
3 39 40 41
3 41 42 43
3 43 44 26
3 26 29 45
3 45 46 47
3 47 48 49
3 49 50 51
3 51 52 53
3 53 54 55
3 55 56 57
3 57 58 59
3 59 60 61
3 61 62 63
3 63 64 65
3 65 66 67
3 67 68 4
3 4 2 1
3 1 25 33
3 33 7 10
3 10 14 20
3 20 23 35
3 35 37 39
3 39 41 43
3 43 26 45
3 45 47 49
3 49 51 53
3 53 55 57
3 57 59 61
3 61 63 65
3 65 67 4
3 4 1 33
3 33 10 20
3 20 35 39
3 39 43 45
3 45 49 53
3 53 57 61
3 61 65 4
3 4 33 20
3 20 39 45
3 45 53 61
3 61 4 20
3 20 45 61
3 69 60 59
3 69 59 70
3 71 34 23
3 71 23 22
3 72 73 58
3 58 57 56
3 56 55 54
3 54 53 52
3 52 51 50
3 50 49 48
3 48 47 46
3 46 74 75
3 46 75 76
3 50 48 46
3 54 52 50
3 58 56 54
3 77 72 58
3 78 77 58
3 58 54 50
3 50 46 76
3 50 76 79
3 78 58 50
3 80 78 50
3 50 79 81
3 50 81 82
3 83 80 50
3 50 82 84
3 50 84 83
3 80 83 84
3 84 82 81
3 81 79 76
3 76 75 74
3 74 85 28
3 28 27 86
3 86 87 88
3 88 89 90
3 90 91 92
3 92 93 94
3 94 95 71
3 71 22 18
3 18 21 17
3 17 15 13
3 13 11 9
3 9 8 31
3 31 96 97
3 97 24 0
3 0 3 5
3 5 98 99
3 99 100 101
3 101 102 103
3 103 104 105
3 105 69 70
3 70 73 72
3 72 77 78
3 78 80 84
3 84 81 76
3 76 74 28
3 28 86 88
3 88 90 92
3 92 94 71
3 71 18 17
3 17 13 9
3 9 31 97
3 97 0 5
3 5 99 101
3 101 103 105
3 105 70 72
3 72 78 84
3 84 76 28
3 28 88 92
3 92 71 17
3 17 9 97
3 97 5 101
3 101 105 72
3 72 84 28
3 28 92 17
3 17 97 101
3 101 72 28
3 28 17 101
3 45 85 74
3 45 74 46
3 98 68 67
3 98 67 99
3 70 59 58
3 70 58 73
3 95 35 34
3 95 34 71
3 105 61 60
3 105 60 69
3 31 30 33
3 31 33 96
3 87 43 42
3 87 42 88
3 96 33 32
3 96 32 97
3 86 44 43
3 86 43 87
3 65 64 102
3 65 102 101
3 32 25 24
3 32 24 97
3 88 42 41
3 88 41 89
3 85 45 29
3 85 29 28
3 99 67 66
3 99 66 100
3 89 41 40
3 89 40 90
3 100 66 65
3 100 65 101
3 40 39 91
3 40 91 90
3 36 35 95
3 36 95 94
3 37 36 94
3 37 94 93
3 91 39 38
3 38 37 93
3 92 91 38
3 93 92 38
3 4 68 98
3 4 98 5
3 27 26 44
3 27 44 86
3 62 61 105
3 62 105 104
3 102 64 63
3 63 62 104
3 103 102 63
3 63 104 103
