ply
format ascii 1.0
comment Created by Blender 3.6.8 - www.blender.org
element vertex 168
property float x
property float y
property float z
element face 331
property list uchar uint vertex_indices
end_header
0.005905 0.006249 0.000000
0.005811 0.006361 0.000000
0.005811 0.006361 0.150000
0.005905 0.006249 0.150000
0.005997 0.006133 0.000000
0.005997 0.006133 0.150000
0.006180 0.005886 0.000000
0.006180 0.005886 0.150000
0.006361 0.005625 0.000000
0.006361 0.005625 0.150000
0.006718 0.005064 0.150000
0.006718 0.005064 0.000000
0.006633 0.005210 0.000000
0.006633 0.005210 0.150000
0.004700 0.007247 0.150000
0.004700 0.007247 0.000000
0.004253 0.007462 0.000000
0.004253 0.007462 0.150000
0.007011 0.002944 0.000000
0.006985 0.004062 0.000000
0.006985 0.004062 0.150000
0.007011 0.002944 0.150000
0.004993 0.000073 0.150000
0.004993 0.000073 0.000000
0.005110 0.000114 0.000000
0.005110 0.000114 0.150000
0.006927 0.002428 0.150000
0.006927 0.002428 0.000000
0.006993 0.002765 0.000000
0.006993 0.002765 0.150000
0.000119 0.006401 0.150000
0.000119 0.006401 0.000000
0.000038 0.006196 0.000000
0.000038 0.006196 0.150000
0.005619 0.006568 0.000000
0.005619 0.006568 0.150000
0.003025 0.000086 0.150000
0.003025 0.000086 0.000000
0.003163 0.000039 0.000000
0.003163 0.000039 0.150000
0.004101 0.007510 0.000000
0.004101 0.007510 0.150000
0.000569 0.006994 0.150000
0.000569 0.006994 0.000000
0.000241 0.006605 0.000000
0.000241 0.006605 0.150000
0.006130 0.000891 0.150000
0.006301 0.001061 0.150000
0.006375 0.001153 0.150000
0.006441 0.001250 0.150000
0.006831 0.002119 0.150000
0.006934 0.004416 0.150000
0.006849 0.004752 0.150000
0.005520 0.006662 0.150000
0.005320 0.006835 0.150000
0.005219 0.006913 0.150000
0.005118 0.006988 0.150000
0.003887 0.007553 0.150000
0.001499 0.007750 0.150000
0.000938 0.007332 0.150000
0.000008 0.005994 0.150000
0.000001 0.004912 0.150000
0.000003 0.004791 0.150000
0.000008 0.004675 0.150000
0.000016 0.004560 0.150000
0.000027 0.004446 0.150000
0.000054 0.004220 0.150000
0.005220 0.000167 0.150000
0.005324 0.000234 0.150000
0.004580 0.000011 0.150000
0.004867 0.000044 0.150000
0.003343 0.000009 0.150000
0.002921 0.000149 0.150000
0.002785 0.000310 0.150000
0.002843 0.000224 0.150000
0.002699 0.000501 0.150000
0.002739 0.000403 0.150000
0.002655 0.000603 0.150000
0.000062 0.004119 0.150000
0.000072 0.003845 0.150000
0.000080 0.003755 0.150000
0.002603 0.000704 0.150000
0.000094 0.003660 0.150000
0.000150 0.003448 0.150000
0.000261 0.003185 0.150000
0.000511 0.002741 0.150000
0.000728 0.002440 0.150000
0.000797 0.002362 0.150000
0.000866 0.002289 0.150000
0.000937 0.002219 0.150000
0.001012 0.002148 0.150000
0.001093 0.002072 0.150000
0.002533 0.000804 0.150000
0.001180 0.001990 0.150000
0.001275 0.001896 0.150000
0.001374 0.001800 0.150000
0.001470 0.001709 0.150000
0.001565 0.001623 0.150000
0.001658 0.001541 0.150000
0.001751 0.001462 0.150000
0.001845 0.001385 0.150000
0.001939 0.001308 0.150000
0.002034 0.001231 0.150000
0.002131 0.001152 0.150000
0.002231 0.001071 0.150000
0.002440 0.000898 0.150000
0.002333 0.000987 0.150000
0.000150 0.003448 0.000000
0.000094 0.003660 0.000000
0.005118 0.006988 0.000000
0.000511 0.002741 0.000000
0.000728 0.002440 0.000000
0.000938 0.007332 0.000000
0.001499 0.007750 0.000000
0.003887 0.007553 0.000000
0.005219 0.006913 0.000000
0.005320 0.006835 0.000000
0.005520 0.006662 0.000000
0.006849 0.004752 0.000000
0.006934 0.004416 0.000000
0.006831 0.002119 0.000000
0.006441 0.001250 0.000000
0.006375 0.001153 0.000000
0.006301 0.001061 0.000000
0.006130 0.000891 0.000000
0.005324 0.000234 0.000000
0.005220 0.000167 0.000000
0.004867 0.000044 0.000000
0.004580 0.000011 0.000000
0.003343 0.000009 0.000000
0.002921 0.000149 0.000000
0.002843 0.000224 0.000000
0.002785 0.000310 0.000000
0.002739 0.000403 0.000000
0.002699 0.000501 0.000000
0.002655 0.000603 0.000000
0.000001 0.004912 0.000000
0.000008 0.005994 0.000000
0.000008 0.004675 0.000000
0.000003 0.004791 0.000000
0.000027 0.004446 0.000000
0.000016 0.004560 0.000000
0.000054 0.004220 0.000000
0.002603 0.000704 0.000000
0.002533 0.000804 0.000000
0.000062 0.004119 0.000000
0.000080 0.003755 0.000000
0.000072 0.003845 0.000000
0.000261 0.003185 0.000000
0.000797 0.002362 0.000000
0.000937 0.002219 0.000000
0.000866 0.002289 0.000000
0.001093 0.002072 0.000000
0.001012 0.002148 0.000000
0.001374 0.001800 0.000000
0.001275 0.001896 0.000000
0.001180 0.001990 0.000000
0.001470 0.001709 0.000000
0.002440 0.000898 0.000000
0.001658 0.001541 0.000000
0.001565 0.001623 0.000000
0.001845 0.001385 0.000000
0.001751 0.001462 0.000000
0.002034 0.001231 0.000000
0.001939 0.001308 0.000000
0.002131 0.001152 0.000000
0.002333 0.000987 0.000000
0.002231 0.001071 0.000000
3 0 1 2
3 0 2 3
3 4 0 3
3 4 3 5
3 6 4 5
3 6 5 7
3 8 6 7
3 8 7 9
3 10 11 12
3 12 8 9
3 13 10 12
3 9 13 12
3 14 15 16
3 14 16 17
3 18 19 20
3 18 20 21
3 22 23 24
3 22 24 25
3 26 27 28
3 26 28 29
3 30 31 32
3 30 32 33
3 29 28 18
3 29 18 21
3 2 1 34
3 2 34 35
3 36 37 38
3 36 38 39
3 17 16 40
3 17 40 41
3 42 43 44
3 42 44 45
3 46 47 48
3 48 49 50
3 50 26 29
3 29 21 20
3 20 51 52
3 52 10 13
3 13 9 7
3 7 5 3
3 3 2 35
3 35 53 54
3 54 55 56
3 56 14 17
3 17 41 57
3 57 58 59
3 59 42 45
3 45 30 33
3 33 60 61
3 61 62 63
3 63 64 65
3 63 65 66
3 33 61 63
3 59 45 33
3 17 57 59
3 54 56 17
3 3 35 54
3 13 7 3
3 20 52 13
3 50 29 20
3 46 48 50
3 67 68 46
3 22 25 67
3 69 70 22
3 39 71 69
3 72 36 39
3 73 74 72
3 75 76 73
3 77 75 73
3 73 72 39
3 39 69 22
3 22 67 46
3 46 50 20
3 20 13 3
3 3 54 17
3 17 59 33
3 33 63 66
3 78 79 80
3 33 66 78
3 3 17 33
3 46 20 3
3 39 22 46
3 77 73 39
3 81 77 39
3 39 46 3
3 3 33 78
3 78 80 82
3 82 83 84
3 84 85 86
3 86 87 88
3 88 89 90
3 88 90 91
3 84 86 88
3 78 82 84
3 39 3 78
3 92 81 39
3 92 39 78
3 78 84 88
3 88 91 93
3 93 94 95
3 95 96 97
3 97 98 99
3 99 100 101
3 101 102 103
3 99 101 103
3 95 97 99
3 78 88 93
3 93 95 99
3 99 103 104
3 93 99 104
3 105 92 78
3 93 104 106
3 106 105 78
3 78 93 106
3 107 83 82
3 107 82 108
3 56 109 15
3 56 15 14
3 85 110 111
3 85 111 86
3 32 31 44
3 44 43 112
3 112 113 114
3 114 40 16
3 16 15 109
3 109 115 116
3 116 117 34
3 34 1 0
3 0 4 6
3 6 8 12
3 12 11 118
3 118 119 19
3 19 18 28
3 28 27 120
3 120 121 122
3 122 123 124
3 124 125 126
3 126 24 23
3 23 127 128
3 128 129 38
3 38 37 130
3 130 131 132
3 132 133 134
3 132 134 135
3 38 130 132
3 23 128 38
3 124 126 23
3 120 122 124
3 19 28 120
3 12 118 19
3 0 6 12
3 116 34 0
3 16 109 116
3 112 114 16
3 32 44 112
3 136 137 32
3 138 139 136
3 140 141 138
3 142 140 138
3 138 136 32
3 32 112 16
3 16 116 0
3 0 12 19
3 19 120 124
3 124 23 38
3 38 132 135
3 38 135 143
3 19 124 38
3 16 0 19
3 138 32 16
3 142 138 16
3 16 19 38
3 38 143 144
3 16 38 144
3 145 142 16
3 146 147 145
3 107 108 146
3 110 148 107
3 149 111 110
3 150 151 149
3 152 153 150
3 154 155 156
3 152 150 149
3 157 154 156
3 156 152 149
3 149 110 107
3 107 146 145
3 145 16 144
3 145 144 158
3 149 107 145
3 157 156 149
3 159 160 157
3 161 162 159
3 163 164 161
3 165 163 161
3 161 159 157
3 157 149 145
3 145 158 166
3 145 166 167
3 161 157 145
3 145 167 165
3 165 161 145
3 50 120 27
3 50 27 26
3 112 59 58
3 112 58 113
3 74 131 130
3 74 130 72
3 51 119 118
3 51 118 52
3 133 132 73
3 133 73 76
3 134 133 76
3 134 76 75
3 81 143 135
3 135 134 75
3 77 81 135
3 75 77 135
3 113 58 57
3 113 57 114
3 25 24 126
3 25 126 67
3 70 127 23
3 70 23 22
3 87 86 111
3 111 149 151
3 151 150 153
3 151 153 152
3 87 111 151
3 88 87 151
3 151 152 156
3 154 157 160
3 160 159 162
3 162 161 164
3 164 163 165
3 162 164 165
3 154 160 162
3 88 151 156
3 156 154 162
3 162 165 167
3 156 162 167
3 89 88 156
3 90 89 156
3 156 167 166
3 158 144 92
3 156 166 158
3 91 90 156
3 93 91 156
3 156 158 92
3 156 92 105
3 94 93 156
3 95 94 156
3 156 105 106
3 156 106 104
3 96 95 156
3 97 96 156
3 156 104 103
3 156 103 102
3 98 97 156
3 99 98 156
3 156 102 101
3 100 99 156
3 156 101 100
3 69 128 127
3 69 127 70
3 72 130 37
3 72 37 36
3 148 110 85
3 148 85 84
3 124 46 68
3 124 68 125
3 52 118 11
3 52 11 10
3 123 47 46
3 123 46 124
3 73 132 131
3 73 131 74
3 112 43 42
3 112 42 59
3 45 44 31
3 45 31 30
3 39 38 129
3 39 129 71
3 41 40 114
3 41 114 57
3 33 32 137
3 33 137 60
3 142 145 147
3 146 108 82
3 140 142 147
3 147 146 82
3 147 82 80
3 141 140 147
3 141 147 80
3 141 80 79
3 138 141 79
3 138 79 78
3 139 138 78
3 139 78 66
3 60 137 136
3 136 139 66
3 136 66 65
3 61 60 136
3 62 61 136
3 136 65 64
3 63 62 136
3 64 63 136
3 67 126 125
3 67 125 68
3 129 128 69
3 129 69 71
3 20 19 119
3 20 119 51
3 115 109 56
3 115 56 55
3 116 115 55
3 116 55 54
3 35 34 117
3 117 116 54
3 53 35 117
3 54 53 117
3 83 107 148
3 83 148 84
3 48 122 121
3 48 121 49
3 47 123 122
3 47 122 48
3 121 120 50
3 121 50 49
3 92 144 143
3 92 143 81
