ply
format ascii 1.0
comment Created by Blender 3.6.8 - www.blender.org
element vertex 220
property float x
property float y
property float z
element face 424
property list uchar uint vertex_indices
end_header
0.001133 0.000048 0.150000
0.001133 0.000048 0.000000
0.001250 0.000025 0.000000
0.001250 0.000025 0.150000
0.000759 0.000279 0.150000
0.000759 0.000279 0.000000
0.000817 0.000217 0.000000
0.000817 0.000217 0.150000
0.005716 0.003918 0.150000
0.005716 0.003918 0.000000
0.005687 0.003934 0.000000
0.005687 0.003934 0.150000
0.000578 0.000518 0.000000
0.000702 0.000350 0.000000
0.000702 0.000350 0.150000
0.000578 0.000518 0.150000
0.000427 0.000727 0.000000
0.000504 0.000616 0.000000
0.000504 0.000616 0.150000
0.000427 0.000727 0.150000
0.001774 0.003991 0.150000
0.001774 0.003991 0.000000
0.001733 0.003976 0.000000
0.001733 0.003976 0.150000
0.005993 0.003154 0.150000
0.005993 0.003154 0.000000
0.006017 0.003296 0.000000
0.006017 0.003296 0.150000
0.000022 0.002159 0.150000
0.000022 0.002159 0.000000
0.000000 0.002090 0.000000
0.000000 0.002090 0.150000
0.005572 0.003982 0.000000
0.005543 0.003992 0.000000
0.005543 0.003992 0.150000
0.005572 0.003982 0.150000
0.005600 0.003971 0.000000
0.005600 0.003971 0.150000
0.005629 0.003960 0.000000
0.005629 0.003960 0.150000
0.005658 0.003948 0.000000
0.005658 0.003948 0.150000
0.004448 0.003890 0.150000
0.004448 0.003890 0.000000
0.004165 0.003851 0.000000
0.004165 0.003851 0.150000
0.001825 0.003996 0.000000
0.001858 0.003995 0.000000
0.001899 0.003994 0.000000
0.001946 0.003993 0.000000
0.001999 0.003991 0.000000
0.002056 0.003989 0.000000
0.002116 0.003986 0.000000
0.002177 0.003983 0.000000
0.002239 0.003980 0.000000
0.002299 0.003976 0.000000
0.002358 0.003972 0.000000
0.002414 0.003967 0.000000
0.002469 0.003961 0.000000
0.002529 0.003954 0.000000
0.002591 0.003946 0.000000
0.002656 0.003937 0.000000
0.002724 0.003927 0.000000
0.002794 0.003916 0.000000
0.002938 0.003893 0.000000
0.001801 0.003996 0.000000
0.001621 0.003925 0.000000
0.001681 0.003953 0.000000
0.001426 0.003824 0.000000
0.001556 0.003892 0.000000
0.000317 0.002591 0.000000
0.001238 0.003720 0.000000
0.000088 0.002272 0.000000
0.000189 0.002419 0.000000
0.000096 0.001585 0.000000
0.000006 0.002032 0.000000
0.000291 0.000993 0.000000
0.000880 0.000163 0.000000
0.001034 0.000078 0.000000
0.000951 0.000116 0.000000
0.002183 0.000034 0.000000
0.001557 0.000001 0.000000
0.002611 0.000135 0.000000
0.002422 0.000079 0.000000
0.002802 0.000224 0.000000
0.002751 0.000195 0.000000
0.002873 0.000282 0.000000
0.002840 0.000252 0.000000
0.002947 0.000355 0.000000
0.002909 0.000316 0.000000
0.003232 0.000656 0.000000
0.003012 0.003882 0.000000
0.003086 0.003871 0.000000
0.003161 0.003860 0.000000
0.003288 0.000714 0.000000
0.003347 0.000773 0.000000
0.003235 0.003849 0.000000
0.003408 0.000832 0.000000
0.005722 0.002586 0.000000
0.005660 0.002531 0.000000
0.003815 0.001182 0.000000
0.003310 0.003841 0.000000
0.003385 0.003834 0.000000
0.005827 0.002707 0.000000
0.005778 0.002644 0.000000
0.005902 0.002849 0.000000
0.005869 0.002775 0.000000
0.005954 0.003004 0.000000
0.005930 0.002927 0.000000
0.005975 0.003080 0.000000
0.006024 0.003424 0.000000
0.006012 0.003535 0.000000
0.006021 0.003482 0.000000
0.005979 0.003626 0.000000
0.005998 0.003583 0.000000
0.005883 0.003768 0.000000
0.005933 0.003700 0.000000
0.005773 0.003877 0.000000
0.005829 0.003827 0.000000
0.005424 0.004023 0.000000
0.005290 0.004035 0.000000
0.005359 0.004032 0.000000
0.005116 0.004025 0.000000
0.005209 0.004032 0.000000
0.004914 0.003998 0.000000
0.005016 0.004013 0.000000
0.004548 0.003910 0.000000
0.004815 0.003978 0.000000
0.003461 0.003829 0.000000
0.003536 0.003826 0.000000
0.003685 0.003825 0.000000
0.003831 0.003829 0.000000
0.003971 0.003836 0.000000
0.003408 0.000832 0.150000
0.005722 0.002586 0.150000
0.003815 0.001182 0.150000
0.005660 0.002531 0.150000
0.005975 0.003080 0.150000
0.005954 0.003004 0.150000
0.005902 0.002849 0.150000
0.005930 0.002927 0.150000
0.005827 0.002707 0.150000
0.005869 0.002775 0.150000
0.002751 0.000195 0.150000
0.002802 0.000224 0.150000
0.005424 0.004023 0.150000
0.005359 0.004032 0.150000
0.005290 0.004035 0.150000
0.005209 0.004032 0.150000
0.005116 0.004025 0.150000
0.005016 0.004013 0.150000
0.004914 0.003998 0.150000
0.004815 0.003978 0.150000
0.004548 0.003910 0.150000
0.005829 0.003827 0.150000
0.005773 0.003877 0.150000
0.005933 0.003700 0.150000
0.005883 0.003768 0.150000
0.005998 0.003583 0.150000
0.005979 0.003626 0.150000
0.006021 0.003482 0.150000
0.006012 0.003535 0.150000
0.006024 0.003424 0.150000
0.005778 0.002644 0.150000
0.003971 0.003836 0.150000
0.003347 0.000773 0.150000
0.003831 0.003829 0.150000
0.003288 0.000714 0.150000
0.003685 0.003825 0.150000
0.002909 0.000316 0.150000
0.002947 0.000355 0.150000
0.003232 0.000656 0.150000
0.003536 0.003826 0.150000
0.002873 0.000282 0.150000
0.002840 0.000252 0.150000
0.002611 0.000135 0.150000
0.002183 0.000034 0.150000
0.002422 0.000079 0.150000
0.001557 0.000001 0.150000
0.001034 0.000078 0.150000
0.000880 0.000163 0.150000
0.000951 0.000116 0.150000
0.000096 0.001585 0.150000
0.000291 0.000993 0.150000
0.000006 0.002032 0.150000
0.000088 0.002272 0.150000
0.000317 0.002591 0.150000
0.000189 0.002419 0.150000
0.001426 0.003824 0.150000
0.001238 0.003720 0.150000
0.001621 0.003925 0.150000
0.001556 0.003892 0.150000
0.001681 0.003953 0.150000
0.001801 0.003996 0.150000
0.001858 0.003995 0.150000
0.001825 0.003996 0.150000
0.001946 0.003993 0.150000
0.001899 0.003994 0.150000
0.002056 0.003989 0.150000
0.001999 0.003991 0.150000
0.002177 0.003983 0.150000
0.002116 0.003986 0.150000
0.002299 0.003976 0.150000
0.002239 0.003980 0.150000
0.002414 0.003967 0.150000
0.002358 0.003972 0.150000
0.002529 0.003954 0.150000
0.002469 0.003961 0.150000
0.002656 0.003937 0.150000
0.002591 0.003946 0.150000
0.002794 0.003916 0.150000
0.002724 0.003927 0.150000
0.002938 0.003893 0.150000
0.003461 0.003829 0.150000
0.003385 0.003834 0.150000
0.003012 0.003882 0.150000
0.003310 0.003841 0.150000
0.003235 0.003849 0.150000
0.003086 0.003871 0.150000
0.003161 0.003860 0.150000
3 0 1 2
3 0 2 3
3 4 5 6
3 4 6 7
3 8 9 10
3 8 10 11
3 12 13 5
3 5 4 14
3 5 14 15
3 16 17 12
3 12 5 15
3 18 19 16
3 12 15 18
3 12 18 16
3 20 21 22
3 20 22 23
3 24 25 26
3 24 26 27
3 28 29 30
3 28 30 31
3 32 33 34
3 32 34 35
3 36 32 35
3 36 35 37
3 38 36 37
3 38 37 39
3 11 10 40
3 40 38 39
3 41 11 40
3 39 41 40
3 42 43 44
3 42 44 45
3 46 47 48
3 48 49 50
3 50 51 52
3 52 53 54
3 54 55 56
3 56 57 58
3 58 59 60
3 60 61 62
3 62 63 64
3 60 62 64
3 56 58 60
3 52 54 56
3 48 50 52
3 65 46 48
3 22 21 65
3 66 67 22
3 68 69 66
3 70 71 68
3 72 73 70
3 30 29 72
3 74 75 30
3 16 76 74
3 77 6 5
3 78 79 77
3 2 1 78
3 80 81 2
3 82 83 80
3 84 85 82
3 86 87 84
3 88 89 86
3 90 88 86
3 86 84 82
3 82 80 2
3 2 78 77
3 77 5 12
3 12 16 74
3 74 30 72
3 72 70 68
3 68 66 22
3 22 65 48
3 48 52 56
3 56 60 64
3 56 64 91
3 22 48 56
3 72 68 22
3 12 74 72
3 2 77 12
3 86 82 2
3 90 86 2
3 2 12 72
3 72 22 56
3 56 91 92
3 56 92 93
3 2 72 56
3 94 90 2
3 95 94 2
3 2 56 93
3 2 93 96
3 97 95 2
3 98 99 100
3 100 97 2
3 2 96 101
3 2 101 102
3 98 100 2
3 103 104 98
3 105 106 103
3 107 108 105
3 25 109 107
3 110 26 25
3 111 112 110
3 113 114 111
3 115 116 113
3 117 118 115
3 10 9 117
3 38 40 10
3 32 36 38
3 119 33 32
3 120 121 119
3 122 123 120
3 124 125 122
3 126 127 124
3 126 124 122
3 122 120 119
3 119 32 38
3 38 10 117
3 117 115 113
3 113 111 110
3 110 25 107
3 107 105 103
3 103 98 2
3 2 102 128
3 2 128 129
3 107 103 2
3 113 110 107
3 38 117 113
3 122 119 38
3 126 122 38
3 38 113 107
3 107 2 129
3 107 129 130
3 126 38 107
3 43 126 107
3 107 130 131
3 107 131 132
3 44 43 107
3 132 44 107
3 133 97 100
3 99 98 134
3 133 100 99
3 135 133 99
3 99 134 136
3 99 136 135
3 109 25 24
3 109 24 137
3 107 109 137
3 107 137 138
3 139 105 108
3 108 107 138
3 140 139 108
3 138 140 108
3 141 103 106
3 141 106 142
3 143 85 84
3 143 84 144
3 145 119 121
3 145 121 146
3 35 34 145
3 145 146 147
3 147 148 149
3 149 150 151
3 151 152 153
3 149 151 153
3 145 147 149
3 37 35 145
3 41 39 37
3 8 11 41
3 154 155 8
3 156 157 154
3 158 159 156
3 160 161 158
3 27 162 160
3 137 24 27
3 140 138 137
3 142 139 140
3 163 141 142
3 136 134 163
3 135 136 163
3 163 142 140
3 140 137 27
3 27 160 158
3 158 156 154
3 154 8 41
3 41 37 145
3 145 149 153
3 145 153 42
3 154 41 145
3 27 158 154
3 163 140 27
3 135 163 27
3 27 154 145
3 145 42 45
3 27 145 45
3 133 135 27
3 133 27 45
3 133 45 164
3 165 133 164
3 165 164 166
3 167 165 166
3 167 166 168
3 169 170 171
3 171 167 168
3 171 168 172
3 173 169 171
3 144 174 173
3 175 143 144
3 176 177 175
3 3 178 176
3 179 0 3
3 180 181 179
3 4 7 180
3 15 14 4
3 19 18 15
3 182 183 19
3 31 184 182
3 185 28 31
3 186 187 185
3 188 189 186
3 190 191 188
3 23 192 190
3 193 20 23
3 194 195 193
3 196 197 194
3 198 199 196
3 200 201 198
3 202 203 200
3 204 205 202
3 206 207 204
3 208 209 206
3 210 211 208
3 212 210 208
3 208 206 204
3 204 202 200
3 200 198 196
3 196 194 193
3 193 23 190
3 190 188 186
3 186 185 31
3 31 182 19
3 19 15 4
3 4 180 179
3 179 3 176
3 176 175 144
3 144 173 171
3 171 172 213
3 171 213 214
3 176 144 171
3 4 179 176
3 31 19 4
3 190 186 31
3 196 193 190
3 204 200 196
3 212 208 204
3 215 212 204
3 204 196 190
3 190 31 4
3 4 176 171
3 171 214 216
3 171 216 217
3 190 4 171
3 215 204 190
3 218 215 190
3 190 171 217
3 219 218 190
3 217 219 190
3 163 104 103
3 163 103 141
3 181 79 78
3 181 78 179
3 68 71 189
3 68 189 188
3 69 68 188
3 69 188 191
3 66 69 191
3 66 191 190
3 23 22 67
3 67 66 190
3 192 23 67
3 67 190 192
3 154 118 117
3 154 117 155
3 31 30 75
3 31 75 184
3 144 84 87
3 144 87 174
3 160 112 111
3 160 111 161
3 161 111 114
3 161 114 158
3 115 118 154
3 115 154 157
3 184 75 74
3 184 74 182
3 158 114 113
3 158 113 159
3 82 85 143
3 82 143 175
3 121 120 147
3 121 147 146
3 176 80 83
3 176 83 177
3 82 175 177
3 82 177 83
3 3 2 81
3 3 81 178
3 26 110 162
3 26 162 27
3 162 110 112
3 162 112 160
3 126 43 42
3 126 42 153
3 151 124 126
3 126 153 152
3 126 152 151
3 193 65 21
3 193 21 20
3 46 65 193
3 46 193 195
3 50 48 46
3 54 52 50
3 58 56 54
3 62 60 58
3 64 62 58
3 58 54 50
3 50 46 195
3 50 195 194
3 64 58 50
3 91 64 50
3 50 194 197
3 50 197 196
3 92 91 50
3 93 92 50
3 50 196 199
3 50 199 198
3 96 93 50
3 101 96 50
3 50 198 201
3 50 201 200
3 101 50 200
3 101 200 203
3 102 101 203
3 102 203 202
3 172 129 128
3 128 102 202
3 128 202 205
3 213 172 128
3 214 213 128
3 128 205 204
3 128 204 207
3 216 214 128
3 217 216 128
3 128 207 206
3 128 206 209
3 219 217 128
3 218 219 128
3 128 209 208
3 128 208 211
3 215 218 128
3 212 215 128
3 128 211 210
3 210 212 128
3 179 78 1
3 179 1 0
3 33 119 145
3 33 145 34
3 81 80 176
3 81 176 178
3 116 115 157
3 116 157 156
3 74 76 183
3 74 183 182
3 148 147 120
3 148 120 123
3 149 148 123
3 149 123 122
3 124 151 150
3 150 149 122
3 125 124 150
3 122 125 150
3 130 129 172
3 130 172 168
3 131 130 168
3 131 168 166
3 45 44 132
3 132 131 166
3 164 45 132
3 166 164 132
3 185 72 29
3 185 29 28
3 73 72 185
3 73 185 187
3 189 71 70
3 70 73 187
3 186 189 70
3 187 186 70
3 134 98 104
3 134 104 163
3 76 16 19
3 76 19 183
3 155 117 9
3 155 9 8
3 7 6 77
3 7 77 180
3 180 77 79
3 180 79 181
3 173 174 87
3 173 87 86
3 169 173 86
3 169 86 89
3 170 169 89
3 170 89 88
3 171 170 88
3 171 88 90
3 167 171 90
3 167 90 94
3 97 133 165
3 165 167 94
3 95 97 165
3 94 95 165
3 113 116 156
3 113 156 159
3 142 106 105
3 142 105 139
