ply
format ascii 1.0
comment Created by Blender 3.6.8 - www.blender.org
element vertex 246
property float x
property float y
property float z
element face 480
property list uchar uint vertex_indices
end_header
0.008166 0.007624 0.000000
0.008038 0.007669 0.000000
0.008038 0.007669 0.150000
0.008166 0.007624 0.150000
0.008558 0.007454 0.150000
0.008558 0.007454 0.000000
0.008295 0.007574 0.000000
0.008295 0.007574 0.150000
0.007163 0.007823 0.150000
0.007163 0.007823 0.000000
0.006707 0.007823 0.000000
0.006513 0.007815 0.000000
0.006707 0.007823 0.150000
0.006417 0.007807 0.000000
0.006318 0.007797 0.000000
0.006318 0.007797 0.150000
0.006513 0.007815 0.150000
0.006417 0.007807 0.150000
0.009573 0.004315 0.150000
0.009573 0.004315 0.000000
0.009589 0.004454 0.000000
0.009589 0.004454 0.150000
0.004160 0.000471 0.000000
0.004559 0.000332 0.000000
0.004942 0.000207 0.000000
0.005291 0.000105 0.000000
0.005291 0.000105 0.150000
0.004942 0.000207 0.150000
0.002499 0.001078 0.000000
0.002154 0.001179 0.000000
0.002252 0.001150 0.000000
0.002351 0.001124 0.000000
0.002057 0.001211 0.000000
0.004559 0.000332 0.150000
0.001961 0.001249 0.000000
0.002057 0.001211 0.150000
0.001961 0.001249 0.150000
0.002154 0.001179 0.150000
0.004160 0.000471 0.150000
0.002252 0.001150 0.150000
0.002351 0.001124 0.150000
0.002499 0.001078 0.150000
0.009475 0.003923 0.000000
0.009514 0.004051 0.000000
0.009514 0.004051 0.150000
0.009475 0.003923 0.150000
0.009430 0.003797 0.000000
0.009430 0.003797 0.150000
0.009099 0.003012 0.150000
0.009099 0.003012 0.000000
0.009380 0.003671 0.000000
0.009380 0.003671 0.150000
0.006064 0.000052 0.000000
0.005967 0.000016 0.000000
0.005820 0.000001 0.000000
0.005589 0.000034 0.000000
0.001769 0.001345 0.000000
0.001578 0.001477 0.000000
0.001384 0.001655 0.000000
0.001187 0.001890 0.000000
0.000897 0.002336 0.000000
0.000850 0.002430 0.000000
0.000808 0.002522 0.000000
0.000770 0.002615 0.000000
0.000654 0.002914 0.000000
0.006157 0.000079 0.000000
0.006429 0.000146 0.000000
0.006338 0.000122 0.000000
0.006248 0.000101 0.000000
0.000608 0.003029 0.000000
0.000500 0.003284 0.000000
0.000455 0.003406 0.000000
0.000387 0.003630 0.000000
0.000007 0.006032 0.000000
0.000005 0.006321 0.000000
0.000022 0.006410 0.000000
0.000066 0.006469 0.000000
0.000145 0.006516 0.000000
0.000250 0.006552 0.000000
0.000374 0.006578 0.000000
0.000792 0.006612 0.000000
0.001208 0.006605 0.000000
0.002693 0.007124 0.000000
0.002760 0.007141 0.000000
0.002844 0.007160 0.000000
0.002943 0.007180 0.000000
0.003055 0.007200 0.000000
0.003177 0.007222 0.000000
0.003307 0.007245 0.000000
0.003582 0.007291 0.000000
0.006618 0.000215 0.000000
0.006522 0.000175 0.000000
0.006828 0.000337 0.000000
0.006720 0.000267 0.000000
0.007069 0.000543 0.000000
0.006943 0.000428 0.000000
0.007336 0.000829 0.000000
0.007205 0.000687 0.000000
0.007447 0.000942 0.000000
0.003722 0.007316 0.000000
0.007541 0.001033 0.000000
0.007831 0.001295 0.000000
0.007764 0.001232 0.000000
0.007623 0.001108 0.000000
0.003860 0.007340 0.000000
0.003995 0.007365 0.000000
0.008992 0.002808 0.000000
0.007901 0.001366 0.000000
0.009597 0.004600 0.000000
0.009590 0.004897 0.000000
0.009594 0.004753 0.000000
0.004124 0.007390 0.000000
0.004247 0.007414 0.000000
0.004370 0.007438 0.000000
0.009591 0.005015 0.000000
0.009608 0.005274 0.000000
0.009603 0.005199 0.000000
0.009596 0.005114 0.000000
0.009611 0.005347 0.000000
0.004491 0.007460 0.000000
0.004613 0.007483 0.000000
0.004860 0.007528 0.000000
0.009608 0.005422 0.000000
0.009542 0.005712 0.000000
0.009597 0.005504 0.000000
0.009358 0.006193 0.000000
0.009493 0.005850 0.000000
0.009188 0.006655 0.000000
0.009240 0.006512 0.000000
0.009296 0.006358 0.000000
0.009135 0.006788 0.000000
0.009021 0.007023 0.000000
0.009080 0.006910 0.000000
0.008876 0.007220 0.000000
0.008953 0.007126 0.000000
0.008681 0.007384 0.000000
0.008786 0.007306 0.000000
0.007412 0.007804 0.000000
0.007786 0.007739 0.000000
0.006214 0.007784 0.000000
0.005981 0.007746 0.000000
0.006103 0.007767 0.000000
0.005696 0.007690 0.000000
0.005846 0.007721 0.000000
0.005542 0.007658 0.000000
0.004988 0.007551 0.000000
0.005395 0.007629 0.000000
0.005119 0.007575 0.000000
0.005254 0.007601 0.000000
0.005589 0.000034 0.150000
0.000387 0.003630 0.150000
0.000007 0.006032 0.150000
0.006522 0.000175 0.150000
0.006618 0.000215 0.150000
0.008681 0.007384 0.150000
0.007786 0.007739 0.150000
0.007412 0.007804 0.150000
0.006214 0.007784 0.150000
0.006103 0.007767 0.150000
0.005981 0.007746 0.150000
0.005846 0.007721 0.150000
0.005696 0.007690 0.150000
0.005542 0.007658 0.150000
0.008786 0.007306 0.150000
0.008953 0.007126 0.150000
0.008876 0.007220 0.150000
0.009080 0.006910 0.150000
0.009021 0.007023 0.150000
0.009188 0.006655 0.150000
0.009135 0.006788 0.150000
0.009296 0.006358 0.150000
0.009240 0.006512 0.150000
0.009542 0.005712 0.150000
0.009493 0.005850 0.150000
0.009358 0.006193 0.150000
0.009597 0.005504 0.150000
0.009611 0.005347 0.150000
0.009608 0.005422 0.150000
0.009603 0.005199 0.150000
0.009608 0.005274 0.150000
0.009596 0.005114 0.150000
0.005395 0.007629 0.150000
0.009591 0.005015 0.150000
0.005254 0.007601 0.150000
0.005119 0.007575 0.150000
0.009590 0.004897 0.150000
0.009597 0.004600 0.150000
0.009594 0.004753 0.150000
0.008992 0.002808 0.150000
0.007831 0.001295 0.150000
0.007901 0.001366 0.150000
0.007623 0.001108 0.150000
0.007764 0.001232 0.150000
0.004988 0.007551 0.150000
0.004860 0.007528 0.150000
0.004613 0.007483 0.150000
0.004491 0.007460 0.150000
0.007541 0.001033 0.150000
0.004370 0.007438 0.150000
0.004247 0.007414 0.150000
0.004124 0.007390 0.150000
0.003995 0.007365 0.150000
0.007447 0.000942 0.150000
0.007069 0.000543 0.150000
0.007205 0.000687 0.150000
0.007336 0.000829 0.150000
0.003860 0.007340 0.150000
0.006828 0.000337 0.150000
0.006943 0.000428 0.150000
0.006720 0.000267 0.150000
0.006429 0.000146 0.150000
0.006248 0.000101 0.150000
0.006338 0.000122 0.150000
0.006157 0.000079 0.150000
0.003722 0.007316 0.150000
0.003582 0.007291 0.150000
0.003307 0.007245 0.150000
0.003177 0.007222 0.150000
0.003055 0.007200 0.150000
0.002943 0.007180 0.150000
0.002844 0.007160 0.150000
0.002760 0.007141 0.150000
0.002693 0.007124 0.150000
0.001208 0.006605 0.150000
0.000792 0.006612 0.150000
0.000374 0.006578 0.150000
0.000250 0.006552 0.150000
0.000145 0.006516 0.150000
0.000066 0.006469 0.150000
0.000022 0.006410 0.150000
0.000005 0.006321 0.150000
0.000455 0.003406 0.150000
0.000500 0.003284 0.150000
0.000608 0.003029 0.150000
0.000654 0.002914 0.150000
0.000770 0.002615 0.150000
0.000808 0.002522 0.150000
0.000850 0.002430 0.150000
0.006064 0.000052 0.150000
0.005820 0.000001 0.150000
0.005967 0.000016 0.150000
0.001578 0.001477 0.150000
0.001769 0.001345 0.150000
0.001187 0.001890 0.150000
0.001384 0.001655 0.150000
0.000897 0.002336 0.150000
3 0 1 2
3 0 2 3
3 4 5 6
3 6 0 3
3 7 4 6
3 3 7 6
3 8 9 10
3 8 10 11
3 12 8 11
3 13 14 15
3 12 11 13
3 16 12 13
3 13 15 17
3 13 17 16
3 18 19 20
3 18 20 21
3 22 23 24
3 24 25 26
3 24 26 27
3 28 22 24
3 29 30 31
3 28 24 27
3 32 29 31
3 31 28 27
3 31 27 33
3 34 32 31
3 35 36 34
3 37 35 34
3 34 31 33
3 34 33 38
3 39 37 34
3 40 39 34
3 34 38 41
3 41 40 34
3 42 43 44
3 42 44 45
3 46 42 45
3 46 45 47
3 48 49 50
3 50 46 47
3 51 48 50
3 47 51 50
3 52 53 54
3 54 55 25
3 25 24 23
3 23 22 28
3 25 23 28
3 54 25 28
3 52 54 28
3 28 31 34
3 34 56 57
3 57 58 59
3 59 60 61
3 61 62 63
3 61 63 64
3 57 59 61
3 28 34 57
3 65 52 28
3 66 67 68
3 68 65 28
3 28 57 61
3 61 64 69
3 69 70 71
3 71 72 73
3 73 74 75
3 75 76 77
3 77 78 79
3 79 80 81
3 81 82 83
3 83 84 85
3 85 86 87
3 87 88 89
3 85 87 89
3 81 83 85
3 77 79 81
3 73 75 77
3 69 71 73
3 28 61 69
3 66 68 28
3 90 91 66
3 92 93 90
3 94 95 92
3 96 97 94
3 96 94 92
3 92 90 66
3 66 28 69
3 69 73 77
3 81 85 89
3 69 77 81
3 92 66 69
3 98 96 92
3 98 92 69
3 69 81 89
3 69 89 99
3 100 98 69
3 101 102 103
3 103 100 69
3 69 99 104
3 69 104 105
3 101 103 69
3 106 107 101
3 50 49 106
3 42 46 50
3 19 43 42
3 108 20 19
3 109 110 108
3 109 108 19
3 19 42 50
3 50 106 101
3 101 69 105
3 111 112 113
3 101 105 111
3 19 50 101
3 114 109 19
3 115 116 117
3 114 19 101
3 118 115 117
3 117 114 101
3 101 111 113
3 113 119 120
3 113 120 121
3 117 101 113
3 122 118 117
3 123 124 122
3 125 126 123
3 127 128 129
3 125 123 122
3 130 127 129
3 129 125 122
3 122 117 113
3 122 113 121
3 130 129 122
3 131 132 130
3 133 134 131
3 135 136 133
3 6 5 135
3 1 0 6
3 137 138 1
3 10 9 137
3 13 11 10
3 139 14 13
3 140 141 139
3 142 143 140
3 144 142 140
3 140 139 13
3 13 10 137
3 137 1 6
3 6 135 133
3 133 131 130
3 130 122 121
3 130 121 145
3 6 133 130
3 13 137 6
3 144 140 13
3 146 144 13
3 13 6 130
3 130 145 147
3 148 146 13
3 130 147 148
3 148 13 130
3 26 25 55
3 26 55 149
3 72 150 151
3 72 151 73
3 152 91 90
3 152 90 153
3 154 4 7
3 7 3 2
3 2 155 156
3 156 8 12
3 12 16 17
3 17 15 157
3 157 158 159
3 159 160 161
3 159 161 162
3 17 157 159
3 156 12 17
3 7 2 156
3 163 154 7
3 164 165 163
3 166 167 164
3 168 169 166
3 170 171 168
3 172 173 174
3 170 168 166
3 175 172 174
3 174 170 166
3 166 164 163
3 163 7 156
3 156 17 159
3 156 159 162
3 166 163 156
3 175 174 166
3 176 177 175
3 178 179 176
3 180 178 176
3 176 175 166
3 166 156 162
3 166 162 181
3 180 176 166
3 182 180 166
3 166 181 183
3 166 183 184
3 185 182 166
3 186 187 185
3 18 21 186
3 45 44 18
3 51 47 45
3 188 48 51
3 189 190 188
3 191 192 189
3 191 189 188
3 188 51 45
3 45 18 186
3 186 185 166
3 166 184 193
3 194 195 196
3 166 193 194
3 45 186 166
3 191 188 45
3 197 191 45
3 45 166 194
3 194 196 198
3 198 199 200
3 198 200 201
3 45 194 198
3 202 197 45
3 203 204 205
3 205 202 45
3 45 198 201
3 45 201 206
3 203 205 45
3 207 208 203
3 153 209 207
3 210 152 153
3 211 212 210
3 213 211 210
3 210 153 207
3 207 203 45
3 45 206 214
3 215 216 217
3 45 214 215
3 210 207 45
3 213 210 45
3 45 215 217
3 217 218 219
3 219 220 221
3 221 222 223
3 223 224 225
3 225 226 227
3 227 228 229
3 229 230 151
3 151 150 231
3 231 232 233
3 234 235 236
3 151 231 233
3 234 236 237
3 151 233 234
3 227 229 151
3 223 225 227
3 219 221 223
3 45 217 219
3 238 213 45
3 239 240 238
3 26 149 239
3 33 27 26
3 41 38 33
3 37 39 40
3 41 33 26
3 35 37 40
3 41 26 239
3 36 35 40
3 41 239 238
3 36 40 41
3 241 242 36
3 243 244 241
3 237 245 243
3 151 234 237
3 223 227 151
3 45 219 223
3 41 238 45
3 241 36 41
3 237 243 241
3 223 151 237
3 41 45 223
3 237 241 41
3 223 237 41
3 149 55 54
3 149 54 239
3 163 136 135
3 163 135 154
3 209 93 92
3 209 92 207
3 165 133 136
3 165 136 163
3 207 92 95
3 207 95 208
3 59 58 244
3 59 244 243
3 127 130 132
3 132 166 169
3 132 169 168
3 129 127 132
3 125 129 132
3 132 168 171
3 132 171 170
3 123 125 132
3 173 172 123
3 132 170 174
3 174 173 123
3 132 174 123
3 227 77 76
3 227 76 228
3 229 75 74
3 229 74 230
3 226 78 77
3 226 77 227
3 124 123 172
3 124 172 175
3 244 58 57
3 244 57 241
3 153 90 93
3 153 93 209
3 167 131 134
3 167 134 164
3 80 79 225
3 80 225 224
3 61 60 245
3 61 245 237
3 62 61 237
3 62 237 236
3 63 62 236
3 63 236 235
3 64 63 235
3 64 235 234
3 69 64 234
3 69 234 233
3 231 71 70
3 70 69 233
3 232 231 70
3 233 232 70
3 99 89 88
3 104 99 88
3 111 105 104
3 112 111 104
3 104 88 87
3 112 104 87
3 113 112 87
3 113 87 86
3 119 113 86
3 120 119 86
3 145 121 120
3 148 147 145
3 144 146 148
3 142 144 148
3 148 145 120
3 148 120 86
3 143 142 148
3 143 148 86
3 143 86 85
3 140 143 85
3 15 14 139
3 157 15 139
3 157 139 141
3 158 157 141
3 158 141 140
3 159 158 140
3 159 140 85
3 160 159 85
3 160 85 84
3 161 160 84
3 83 82 222
3 161 84 83
3 162 161 83
3 83 222 221
3 83 221 220
3 181 162 83
3 183 181 83
3 83 220 219
3 83 219 218
3 184 183 83
3 193 184 83
3 83 218 217
3 83 217 216
3 194 193 83
3 195 194 83
3 83 216 215
3 83 215 214
3 196 195 83
3 198 196 83
3 83 214 206
3 83 206 201
3 199 198 83
3 83 201 200
3 83 200 199
3 242 56 34
3 242 34 36
3 118 122 177
3 118 177 176
3 115 118 176
3 115 176 179
3 116 115 179
3 116 179 178
3 117 116 178
3 117 178 180
3 114 117 180
3 114 180 182
3 109 114 182
3 109 182 185
3 110 109 185
3 110 185 187
3 21 20 108
3 108 110 187
3 186 21 108
3 108 187 186
3 240 53 52
3 240 52 238
3 156 137 9
3 156 9 8
3 239 54 53
3 239 53 240
3 66 91 152
3 66 152 210
3 65 68 66
3 238 52 65
3 213 238 65
3 65 66 210
3 65 210 212
3 211 213 65
3 65 212 211
3 177 122 124
3 177 124 175
3 82 81 223
3 82 223 222
3 74 73 151
3 74 151 230
3 154 135 5
3 154 5 4
3 228 76 75
3 228 75 229
3 150 72 71
3 150 71 231
3 80 224 223
3 80 223 81
3 44 43 19
3 44 19 18
3 245 60 59
3 245 59 243
3 164 134 133
3 164 133 165
3 166 132 131
3 166 131 167
3 1 138 155
3 1 155 2
3 241 57 56
3 241 56 242
3 101 107 190
3 101 190 189
3 103 101 189
3 103 189 192
3 100 103 192
3 100 192 191
3 98 100 191
3 98 191 197
3 96 98 197
3 96 197 202
3 95 94 96
3 203 208 95
3 204 203 95
3 95 96 202
3 205 204 95
3 202 205 95
3 138 137 156
3 138 156 155
3 107 106 188
3 107 188 190
3 188 106 49
3 188 49 48
3 225 79 78
3 225 78 226
