ply
format ascii 1.0
comment Created by Blender 3.6.8 - www.blender.org
element vertex 144
property float x
property float y
property float z
element face 283
property list uchar uint vertex_indices
end_header
0.009294 0.000320 0.150000
0.009294 0.000320 0.000000
0.009457 0.000404 0.000000
0.009457 0.000404 0.150000
0.010195 0.001381 0.150000
0.010195 0.001381 0.000000
0.010244 0.001517 0.000000
0.010244 0.001517 0.150000
0.006747 0.000108 0.150000
0.006747 0.000108 0.000000
0.007104 0.000028 0.000000
0.007104 0.000028 0.150000
0.006433 0.000233 0.000000
0.006433 0.000233 0.150000
0.010311 0.002037 0.150000
0.010311 0.002037 0.000000
0.010299 0.002260 0.000000
0.010299 0.002260 0.150000
0.000116 0.006379 0.150000
0.000032 0.006242 0.150000
0.000000 0.006189 0.150000
0.000126 0.006018 0.150000
0.000529 0.005521 0.150000
0.001719 0.004171 0.150000
0.002382 0.003467 0.150000
0.003006 0.002843 0.150000
0.003285 0.002585 0.150000
0.003771 0.002159 0.150000
0.003986 0.001977 0.150000
0.004187 0.001813 0.150000
0.004374 0.001663 0.150000
0.004721 0.001397 0.150000
0.005045 0.001161 0.150000
0.005997 0.000492 0.150000
0.006142 0.000397 0.150000
0.007530 0.000000 0.150000
0.008003 0.000020 0.150000
0.008239 0.000046 0.150000
0.008472 0.000081 0.150000
0.008911 0.000181 0.150000
0.009596 0.000498 0.150000
0.009709 0.000600 0.150000
0.010137 0.001259 0.150000
0.010281 0.001669 0.150000
0.010304 0.001841 0.150000
0.010265 0.002515 0.150000
0.010080 0.003647 0.150000
0.010039 0.003839 0.150000
0.009992 0.004028 0.150000
0.009795 0.004602 0.150000
0.009490 0.005243 0.150000
0.009152 0.006130 0.150000
0.009081 0.006272 0.150000
0.000173 0.006469 0.150000
0.000308 0.006669 0.150000
0.000238 0.006567 0.150000
0.000605 0.007034 0.150000
0.000381 0.006771 0.150000
0.000819 0.007183 0.150000
0.000673 0.007093 0.150000
0.001082 0.007290 0.150000
0.000989 0.007257 0.150000
0.001281 0.007352 0.150000
0.001180 0.007322 0.150000
0.001496 0.007416 0.150000
0.008996 0.006403 0.150000
0.008891 0.006524 0.150000
0.008760 0.006636 0.150000
0.008597 0.006739 0.150000
0.008157 0.006928 0.150000
0.005732 0.007567 0.150000
0.004168 0.007753 0.150000
0.003686 0.007757 0.150000
0.003489 0.007745 0.150000
0.002290 0.007641 0.150000
0.002208 0.007629 0.150000
0.002126 0.007613 0.150000
0.002040 0.007591 0.150000
0.001945 0.007562 0.150000
0.001721 0.007486 0.150000
0.001607 0.007449 0.150000
0.000000 0.006189 0.000000
0.000126 0.006018 0.000000
0.010281 0.001669 0.000000
0.009596 0.000498 0.000000
0.009709 0.000600 0.000000
0.000989 0.007257 0.000000
0.000819 0.007183 0.000000
0.000673 0.007093 0.000000
0.000605 0.007034 0.000000
0.001607 0.007449 0.000000
0.001496 0.007416 0.000000
0.001281 0.007352 0.000000
0.001721 0.007486 0.000000
0.001945 0.007562 0.000000
0.001180 0.007322 0.000000
0.002126 0.007613 0.000000
0.002040 0.007591 0.000000
0.001082 0.007290 0.000000
0.010039 0.003839 0.000000
0.009992 0.004028 0.000000
0.010080 0.003647 0.000000
0.010265 0.002515 0.000000
0.010304 0.001841 0.000000
0.005732 0.007567 0.000000
0.004168 0.007753 0.000000
0.000173 0.006469 0.000000
0.000116 0.006379 0.000000
0.000032 0.006242 0.000000
0.000238 0.006567 0.000000
0.000381 0.006771 0.000000
0.000308 0.006669 0.000000
0.008996 0.006403 0.000000
0.008891 0.006524 0.000000
0.008157 0.006928 0.000000
0.008760 0.006636 0.000000
0.007530 0.000000 0.000000
0.008597 0.006739 0.000000
0.009152 0.006130 0.000000
0.009081 0.006272 0.000000
0.009490 0.005243 0.000000
0.009795 0.004602 0.000000
0.006142 0.000397 0.000000
0.008911 0.000181 0.000000
0.003686 0.007757 0.000000
0.010137 0.001259 0.000000
0.008239 0.000046 0.000000
0.008472 0.000081 0.000000
0.008003 0.000020 0.000000
0.004721 0.001397 0.000000
0.005045 0.001161 0.000000
0.005997 0.000492 0.000000
0.004374 0.001663 0.000000
0.004187 0.001813 0.000000
0.003986 0.001977 0.000000
0.003771 0.002159 0.000000
0.003285 0.002585 0.000000
0.003006 0.002843 0.000000
0.002382 0.003467 0.000000
0.001719 0.004171 0.000000
0.000529 0.005521 0.000000
0.002290 0.007641 0.000000
0.003489 0.007745 0.000000
0.002208 0.007629 0.000000
3 0 1 2
3 0 2 3
3 4 5 6
3 4 6 7
3 8 9 10
3 8 10 11
3 12 9 8
3 12 8 13
3 14 15 16
3 14 16 17
3 18 19 20
3 20 21 22
3 22 23 24
3 24 25 26
3 26 27 28
3 28 29 30
3 30 31 32
3 32 33 34
3 34 13 8
3 8 11 35
3 35 36 37
3 37 38 39
3 39 0 3
3 3 40 41
3 41 42 4
3 4 7 43
3 43 44 14
3 14 17 45
3 45 46 47
3 47 48 49
3 50 51 52
3 47 49 50
3 14 45 47
3 4 43 14
3 3 41 4
3 37 39 3
3 8 35 37
3 32 34 8
3 28 30 32
3 24 26 28
3 20 22 24
3 53 18 20
3 54 55 53
3 56 57 54
3 58 59 56
3 60 61 58
3 62 63 60
3 64 62 60
3 60 58 56
3 56 54 53
3 53 20 24
3 24 28 32
3 32 8 37
3 37 3 4
3 4 14 47
3 47 50 52
3 52 65 66
3 66 67 68
3 68 69 70
3 70 71 72
3 72 73 74
3 74 75 76
3 76 77 78
3 76 78 79
3 72 74 76
3 68 70 72
3 52 66 68
3 4 47 52
3 32 37 4
3 53 24 32
3 60 56 53
3 80 64 60
3 76 79 80
3 68 72 76
3 4 52 68
3 53 32 4
3 80 60 53
3 68 76 80
3 53 4 68
3 68 80 53
3 20 81 82
3 20 82 21
3 7 6 83
3 7 83 43
3 40 84 85
3 40 85 41
3 61 86 87
3 61 87 58
3 59 88 89
3 59 89 56
3 90 91 92
3 93 90 92
3 94 93 92
3 94 92 95
3 76 96 97
3 76 97 94
3 77 76 94
3 77 94 95
3 78 77 95
3 98 86 61
3 78 95 98
3 79 78 98
3 98 61 60
3 98 60 63
3 80 79 98
3 64 80 98
3 98 63 62
3 98 62 64
3 99 100 48
3 99 48 47
3 101 99 47
3 101 47 46
3 17 16 102
3 102 101 46
3 45 17 102
3 46 45 102
3 43 83 103
3 43 103 44
3 104 105 71
3 104 71 70
3 106 107 108
3 108 81 20
3 108 20 19
3 109 106 108
3 110 111 109
3 54 57 110
3 55 54 110
3 110 109 108
3 108 19 18
3 53 55 110
3 108 18 53
3 108 53 110
3 65 112 113
3 65 113 66
3 114 104 70
3 114 70 69
3 66 113 115
3 66 115 67
3 3 2 84
3 3 84 40
3 10 116 35
3 10 35 11
3 67 115 117
3 67 117 68
3 118 119 52
3 118 52 51
3 120 118 51
3 120 51 50
3 48 100 121
3 121 120 50
3 49 48 121
3 50 49 121
3 122 12 13
3 122 13 34
3 39 123 1
3 39 1 0
3 68 117 114
3 68 114 69
3 124 72 71
3 124 71 105
3 42 125 5
3 42 5 4
3 126 127 38
3 126 38 37
3 35 116 128
3 128 126 37
3 36 35 128
3 128 37 36
3 87 88 59
3 87 59 58
3 52 119 112
3 52 112 65
3 129 130 131
3 131 122 34
3 131 34 33
3 132 129 131
3 29 133 132
3 30 29 132
3 132 131 33
3 132 33 32
3 31 30 132
3 32 31 132
3 9 12 122
3 122 131 130
3 130 129 132
3 132 133 134
3 134 135 136
3 136 137 138
3 138 139 140
3 140 82 81
3 81 108 107
3 107 106 109
3 110 89 88
3 88 87 86
3 86 98 95
3 95 92 91
3 86 95 91
3 110 88 86
3 107 109 110
3 140 81 107
3 136 138 140
3 132 134 136
3 122 130 132
3 10 9 122
3 128 116 10
3 127 126 128
3 1 123 127
3 84 2 1
3 125 85 84
3 6 5 125
3 103 83 6
3 16 15 103
3 101 102 16
3 100 99 101
3 120 121 100
3 119 118 120
3 113 112 119
3 117 115 113
3 104 114 117
3 124 105 104
3 141 142 124
3 96 143 141
3 94 97 96
3 93 94 96
3 96 141 124
3 124 104 117
3 117 113 119
3 120 100 101
3 117 119 120
3 96 124 117
3 90 93 96
3 86 91 90
3 107 110 86
3 136 140 107
3 122 132 136
3 128 10 122
3 1 127 128
3 125 84 1
3 103 6 125
3 101 16 103
3 117 120 101
3 90 96 117
3 107 86 90
3 122 136 107
3 1 128 122
3 103 125 1
3 117 101 103
3 107 90 117
3 1 122 107
3 117 103 1
3 107 117 1
3 89 110 57
3 89 57 56
3 143 96 76
3 143 76 75
3 141 143 75
3 141 75 74
3 72 124 142
3 142 141 74
3 73 72 142
3 74 73 142
3 85 125 42
3 85 42 41
3 123 39 38
3 123 38 127
3 134 133 29
3 134 29 28
3 135 134 28
3 135 28 27
3 25 137 136
3 136 135 27
3 26 25 136
3 27 26 136
3 138 137 25
3 138 25 24
3 139 138 24
3 139 24 23
3 21 82 140
3 140 139 23
3 22 21 140
3 23 22 140
3 44 103 15
3 44 15 14
