ply
format ascii 1.0
comment Created by Blender 3.6.8 - www.blender.org
element vertex 200
property float x
property float y
property float z
element face 388
property list uchar uint vertex_indices
end_header
0.010403 0.001294 0.150000
0.010403 0.001294 0.000000
0.010488 0.001285 0.000000
0.010488 0.001285 0.150000
0.010840 0.001189 0.150000
0.010840 0.001189 0.000000
0.010909 0.001211 0.000000
0.010909 0.001211 0.150000
0.010706 0.001208 0.000000
0.010706 0.001208 0.150000
0.010566 0.001262 0.150000
0.010566 0.001262 0.000000
0.003135 0.000019 0.150000
0.003135 0.000019 0.000000
0.003319 0.000063 0.000000
0.003319 0.000063 0.150000
0.000056 0.004414 0.150000
0.000056 0.004414 0.000000
0.000001 0.004306 0.000000
0.000001 0.004306 0.150000
0.010983 0.001265 0.150000
0.010983 0.001265 0.000000
0.011063 0.001356 0.000000
0.011063 0.001356 0.150000
0.008240 0.007429 0.000000
0.008025 0.007441 0.000000
0.008025 0.007441 0.150000
0.008240 0.007429 0.150000
0.008446 0.007411 0.000000
0.008446 0.007411 0.150000
0.008830 0.007359 0.150000
0.008830 0.007359 0.000000
0.008643 0.007387 0.000000
0.008643 0.007387 0.150000
0.010447 0.006963 0.150000
0.010447 0.006963 0.000000
0.010169 0.007062 0.000000
0.010169 0.007062 0.150000
0.001114 0.001252 0.150000
0.001114 0.001252 0.000000
0.001199 0.001144 0.000000
0.001199 0.001144 0.150000
0.000390 0.002721 0.000000
0.000390 0.002721 0.150000
0.000130 0.003565 0.150000
0.000130 0.003565 0.000000
0.000467 0.002524 0.000000
0.000545 0.002343 0.000000
0.000624 0.002185 0.000000
0.000697 0.002045 0.000000
0.000467 0.002524 0.150000
0.000545 0.002343 0.150000
0.000760 0.001916 0.000000
0.000816 0.001795 0.000000
0.000869 0.001680 0.000000
0.000923 0.001571 0.000000
0.000624 0.002185 0.150000
0.000697 0.002045 0.150000
0.000979 0.001464 0.000000
0.000979 0.001464 0.150000
0.000923 0.001571 0.150000
0.000760 0.001916 0.150000
0.000869 0.001680 0.150000
0.000816 0.001795 0.150000
0.007168 0.000959 0.000000
0.007324 0.000968 0.000000
0.007324 0.000968 0.150000
0.007168 0.000959 0.150000
0.007003 0.000944 0.000000
0.007003 0.000944 0.150000
0.006830 0.000924 0.000000
0.006830 0.000924 0.150000
0.005720 0.000770 0.000000
0.005905 0.000794 0.000000
0.006650 0.000901 0.000000
0.006650 0.000901 0.150000
0.005539 0.000749 0.000000
0.005181 0.000689 0.150000
0.005181 0.000689 0.000000
0.005360 0.000725 0.000000
0.005360 0.000725 0.150000
0.005905 0.000794 0.150000
0.005720 0.000770 0.150000
0.005539 0.000749 0.150000
0.011507 0.006292 0.150000
0.011507 0.006292 0.000000
0.011358 0.006427 0.000000
0.011358 0.006427 0.150000
0.008516 0.000835 0.000000
0.008516 0.000835 0.150000
0.008303 0.000842 0.150000
0.008303 0.000842 0.000000
0.010773 0.001190 0.150000
0.011152 0.001493 0.150000
0.011608 0.002453 0.150000
0.011737 0.002802 0.150000
0.011828 0.003164 0.150000
0.011879 0.003569 0.150000
0.011888 0.003797 0.150000
0.011885 0.005012 0.150000
0.011877 0.005228 0.150000
0.011830 0.005629 0.150000
0.011783 0.005812 0.150000
0.011716 0.005984 0.150000
0.011625 0.006144 0.150000
0.011037 0.006655 0.150000
0.010735 0.006831 0.150000
0.010032 0.007102 0.150000
0.009896 0.007137 0.150000
0.009761 0.007169 0.150000
0.009626 0.007200 0.150000
0.009485 0.007230 0.150000
0.009335 0.007263 0.150000
0.009176 0.007296 0.150000
0.009008 0.007328 0.150000
0.007566 0.007441 0.150000
0.007322 0.007426 0.150000
0.005702 0.007272 0.150000
0.002712 0.006905 0.150000
0.001620 0.005944 0.150000
0.000974 0.005355 0.150000
0.000673 0.005069 0.150000
0.000408 0.004809 0.150000
0.000002 0.004216 0.150000
0.000017 0.004092 0.150000
0.001422 0.000912 0.150000
0.002127 0.000314 0.150000
0.002388 0.000142 0.150000
0.002522 0.000078 0.150000
0.002661 0.000032 0.150000
0.002808 0.000006 0.150000
0.002965 0.000001 0.150000
0.010308 0.001283 0.150000
0.010209 0.001259 0.150000
0.009224 0.000964 0.150000
0.009482 0.001036 0.150000
0.010112 0.001232 0.150000
0.008773 0.000862 0.150000
0.008925 0.000892 0.150000
0.008113 0.000872 0.150000
0.008207 0.000855 0.150000
0.007925 0.000911 0.150000
0.008021 0.000891 0.150000
0.007825 0.000931 0.150000
0.007717 0.000948 0.150000
0.007599 0.000962 0.150000
0.010308 0.001283 0.000000
0.011037 0.006655 0.000000
0.011625 0.006144 0.000000
0.002661 0.000032 0.000000
0.002808 0.000006 0.000000
0.002965 0.000001 0.000000
0.011888 0.003797 0.000000
0.011885 0.005012 0.000000
0.011877 0.005228 0.000000
0.011879 0.003569 0.000000
0.000673 0.005069 0.000000
0.000408 0.004809 0.000000
0.000974 0.005355 0.000000
0.002712 0.006905 0.000000
0.001620 0.005944 0.000000
0.007599 0.000962 0.000000
0.009482 0.001036 0.000000
0.010112 0.001232 0.000000
0.010209 0.001259 0.000000
0.009224 0.000964 0.000000
0.008773 0.000862 0.000000
0.008925 0.000892 0.000000
0.007566 0.007441 0.000000
0.011830 0.005629 0.000000
0.011783 0.005812 0.000000
0.002522 0.000078 0.000000
0.000017 0.004092 0.000000
0.011716 0.005984 0.000000
0.010773 0.001190 0.000000
0.005702 0.007272 0.000000
0.007322 0.007426 0.000000
0.010735 0.006831 0.000000
0.009761 0.007169 0.000000
0.009626 0.007200 0.000000
0.009485 0.007230 0.000000
0.009335 0.007263 0.000000
0.009176 0.007296 0.000000
0.009008 0.007328 0.000000
0.009896 0.007137 0.000000
0.010032 0.007102 0.000000
0.002388 0.000142 0.000000
0.002127 0.000314 0.000000
0.001422 0.000912 0.000000
0.000002 0.004216 0.000000
0.011828 0.003164 0.000000
0.011737 0.002802 0.000000
0.011608 0.002453 0.000000
0.011152 0.001493 0.000000
0.008207 0.000855 0.000000
0.008113 0.000872 0.000000
0.008021 0.000891 0.000000
0.007925 0.000911 0.000000
0.007825 0.000931 0.000000
0.007717 0.000948 0.000000
3 0 1 2
3 0 2 3
3 4 5 6
3 4 6 7
3 8 9 10
3 8 10 11
3 12 13 14
3 12 14 15
3 16 17 18
3 16 18 19
3 20 21 22
3 20 22 23
3 24 25 26
3 24 26 27
3 28 24 27
3 28 27 29
3 30 31 32
3 32 28 29
3 33 30 32
3 29 33 32
3 34 35 36
3 34 36 37
3 38 39 40
3 38 40 41
3 42 43 44
3 42 44 45
3 42 46 47
3 47 48 49
3 42 47 49
3 50 43 42
3 51 50 42
3 42 49 52
3 53 54 55
3 42 52 53
3 56 51 42
3 57 56 42
3 42 53 55
3 55 58 59
3 55 59 60
3 57 42 55
3 61 57 55
3 55 60 62
3 63 61 55
3 55 62 63
3 64 65 66
3 64 66 67
3 68 64 67
3 68 67 69
3 70 68 69
3 70 69 71
3 72 73 74
3 74 70 71
3 74 71 75
3 76 72 74
3 77 78 79
3 76 74 75
3 77 79 76
3 80 77 76
3 76 75 81
3 76 81 82
3 83 80 76
3 82 83 76
3 84 85 86
3 84 86 87
3 88 89 90
3 88 90 91
3 10 9 92
3 92 4 7
3 7 20 23
3 23 93 94
3 94 95 96
3 96 97 98
3 98 99 100
3 100 101 102
3 102 103 104
3 104 84 87
3 87 105 106
3 106 34 37
3 37 107 108
3 108 109 110
3 110 111 112
3 112 113 114
3 114 30 33
3 33 29 27
3 27 26 115
3 115 116 117
3 117 118 119
3 119 120 121
3 121 122 16
3 16 19 123
3 123 124 44
3 44 43 50
3 50 51 56
3 50 56 57
3 123 44 50
3 121 16 123
3 117 119 121
3 27 115 117
3 114 33 27
3 110 112 114
3 37 108 110
3 87 106 37
3 102 104 87
3 98 100 102
3 94 96 98
3 7 23 94
3 10 92 7
3 3 10 7
3 7 94 98
3 98 102 87
3 87 37 110
3 110 114 27
3 27 117 121
3 121 123 50
3 50 57 61
3 63 62 60
3 121 50 61
3 61 63 60
3 60 59 38
3 38 41 125
3 125 126 127
3 127 128 129
3 129 130 131
3 131 12 15
3 131 15 77
3 127 129 131
3 38 125 127
3 61 60 38
3 27 121 61
3 87 110 27
3 7 98 87
3 3 7 87
3 87 27 61
3 61 38 127
3 127 131 77
3 127 77 80
3 87 61 127
3 0 3 87
3 132 0 87
3 87 127 80
3 83 82 81
3 87 80 83
3 133 132 87
3 134 135 136
3 136 133 87
3 87 83 81
3 87 81 75
3 134 136 87
3 137 138 134
3 90 89 137
3 139 140 90
3 141 142 139
3 141 139 90
3 90 137 134
3 87 75 71
3 87 71 69
3 90 134 87
3 143 141 90
3 143 90 87
3 87 69 67
3 87 67 66
3 144 143 87
3 87 66 145
3 87 145 144
3 132 146 1
3 132 1 0
3 87 86 147
3 87 147 105
3 104 148 85
3 104 85 84
3 129 149 150
3 129 150 130
3 131 151 13
3 131 13 12
3 152 153 154
3 154 100 99
3 98 97 155
3 154 99 98
3 155 152 154
3 154 98 155
3 156 157 122
3 156 122 121
3 158 156 121
3 158 121 120
3 118 159 160
3 160 158 120
3 119 118 160
3 120 119 160
3 66 65 161
3 66 161 145
3 162 163 164
3 164 146 132
3 164 132 133
3 162 164 133
3 162 133 136
3 165 162 136
3 165 136 135
3 137 166 167
3 167 165 135
3 167 135 134
3 138 137 167
3 167 134 138
3 25 168 115
3 25 115 26
3 101 169 170
3 101 170 102
3 128 171 149
3 128 149 129
3 172 45 44
3 172 44 124
3 103 173 148
3 103 148 104
3 9 8 174
3 9 174 92
3 122 157 17
3 122 17 16
3 89 88 166
3 89 166 137
3 14 78 77
3 14 77 15
3 175 159 118
3 175 118 117
3 115 168 176
3 176 175 117
3 116 115 176
3 176 117 116
3 106 177 35
3 106 35 34
3 178 179 180
3 180 181 182
3 182 183 31
3 31 30 114
3 31 114 113
3 180 182 31
3 184 178 180
3 36 185 184
3 107 37 36
3 108 107 36
3 36 184 180
3 180 31 113
3 180 113 112
3 108 36 180
3 109 108 180
3 180 112 111
3 110 109 180
3 180 111 110
3 92 174 5
3 92 5 4
3 127 186 171
3 127 171 128
3 14 13 151
3 151 150 149
3 149 171 186
3 186 187 188
3 188 40 39
3 39 58 55
3 55 53 52
3 188 39 55
3 149 186 188
3 14 151 149
3 78 14 149
3 149 188 55
3 149 55 52
3 78 149 52
3 78 52 49
3 79 78 49
3 49 47 46
3 46 42 45
3 45 172 189
3 189 18 17
3 17 157 156
3 156 158 160
3 160 159 175
3 175 176 168
3 168 25 24
3 24 28 32
3 32 31 183
3 183 182 181
3 181 180 179
3 179 178 184
3 36 35 177
3 177 147 86
3 86 85 148
3 148 173 170
3 170 169 154
3 152 155 190
3 190 191 192
3 192 193 22
3 22 21 6
3 6 5 174
3 174 8 11
3 6 174 11
3 192 22 6
3 152 190 192
3 170 154 152
3 86 148 170
3 36 177 86
3 179 184 36
3 183 181 179
3 24 32 183
3 175 168 24
3 156 160 175
3 189 17 156
3 46 45 189
3 79 49 46
3 73 72 76
3 76 79 46
3 46 189 156
3 156 175 24
3 24 183 179
3 179 36 86
3 86 170 152
3 152 192 6
3 6 11 2
3 152 6 2
3 179 86 152
3 156 24 179
3 76 46 156
3 74 73 76
3 74 76 156
3 156 179 152
3 152 2 1
3 152 1 146
3 74 156 152
3 70 74 152
3 152 146 164
3 163 162 165
3 152 164 163
3 68 70 152
3 64 68 152
3 152 163 165
3 165 167 166
3 166 88 91
3 91 194 195
3 195 196 197
3 91 195 197
3 165 166 91
3 65 64 152
3 161 65 152
3 152 165 91
3 91 197 198
3 199 161 152
3 152 91 198
3 152 198 199
3 7 6 21
3 7 21 20
3 3 2 11
3 3 11 10
3 187 186 127
3 187 127 126
3 59 58 39
3 59 39 38
3 190 155 97
3 190 97 96
3 193 192 94
3 193 94 93
3 190 96 95
3 190 95 191
3 19 18 189
3 19 189 123
3 130 150 151
3 130 151 131
3 23 22 193
3 23 193 93
3 105 147 177
3 105 177 106
3 123 189 172
3 123 172 124
3 91 90 140
3 91 140 139
3 91 139 142
3 91 142 141
3 198 91 141
3 198 141 143
3 145 161 199
3 199 198 143
3 144 145 199
3 143 144 199
3 188 187 126
3 188 126 125
3 41 40 188
3 41 188 125
3 102 170 173
3 102 173 103
3 169 101 100
3 169 100 154
3 192 191 95
3 192 95 94
