ply
format ascii 1.0
comment Created by Blender 3.6.8 - www.blender.org
element vertex 178
property float x
property float y
property float z
element face 350
property list uchar uint vertex_indices
end_header
0.008571 0.007477 0.150000
0.008571 0.007477 0.000000
0.008479 0.007531 0.000000
0.008479 0.007531 0.150000
0.009113 0.005866 0.150000
0.009113 0.005866 0.000000
0.009085 0.006069 0.000000
0.009085 0.006069 0.150000
0.001106 0.000124 0.150000
0.001106 0.000124 0.000000
0.001241 0.000061 0.000000
0.001241 0.000061 0.150000
0.000150 0.002680 0.000000
0.000050 0.002226 0.000000
0.000023 0.002087 0.000000
0.000005 0.001952 0.000000
0.000005 0.001952 0.150000
0.000023 0.002087 0.150000
0.000179 0.002849 0.150000
0.000179 0.002849 0.000000
0.000050 0.002226 0.150000
0.000150 0.002680 0.150000
0.006103 0.001666 0.150000
0.006103 0.001666 0.000000
0.006265 0.001797 0.000000
0.006265 0.001797 0.150000
0.009089 0.005528 0.150000
0.009089 0.005528 0.000000
0.009114 0.005687 0.000000
0.009114 0.005687 0.150000
0.000883 0.000302 0.000000
0.000786 0.000414 0.000000
0.000172 0.001267 0.000000
0.000093 0.001411 0.000000
0.000041 0.001549 0.000000
0.000011 0.001684 0.000000
0.000000 0.001818 0.000000
0.000242 0.003040 0.000000
0.000372 0.003259 0.000000
0.000784 0.003752 0.000000
0.001039 0.004012 0.000000
0.001311 0.004271 0.000000
0.001586 0.004521 0.000000
0.002304 0.005150 0.000000
0.002465 0.005295 0.000000
0.002566 0.005396 0.000000
0.003985 0.006227 0.000000
0.004133 0.006301 0.000000
0.004302 0.006380 0.000000
0.004488 0.006463 0.000000
0.004685 0.006548 0.000000
0.004890 0.006634 0.000000
0.005302 0.006803 0.000000
0.006133 0.007133 0.000000
0.006259 0.007177 0.000000
0.006411 0.007220 0.000000
0.006584 0.007262 0.000000
0.006773 0.007303 0.000000
0.006973 0.007342 0.000000
0.007179 0.007380 0.000000
0.007386 0.007415 0.000000
0.008260 0.007553 0.000000
0.008376 0.007557 0.000000
0.008653 0.007396 0.000000
0.008726 0.007292 0.000000
0.008792 0.007166 0.000000
0.008850 0.007020 0.000000
0.008903 0.006856 0.000000
0.008952 0.006677 0.000000
0.009042 0.005384 0.000000
0.008976 0.005249 0.000000
0.008893 0.005120 0.000000
0.008795 0.004990 0.000000
0.008687 0.004856 0.000000
0.008571 0.004713 0.000000
0.000988 0.000205 0.000000
0.001396 0.000020 0.000000
0.001785 0.000007 0.000000
0.001576 0.000001 0.000000
0.002974 0.000257 0.000000
0.002536 0.000122 0.000000
0.003249 0.000367 0.000000
0.003111 0.000310 0.000000
0.005207 0.001251 0.000000
0.003390 0.000428 0.000000
0.005843 0.001520 0.000000
0.005749 0.001478 0.000000
0.005326 0.001303 0.000000
0.005932 0.001564 0.000000
0.008448 0.004555 0.000000
0.007219 0.003085 0.000000
0.006424 0.001970 0.000000
0.008323 0.004378 0.000000
0.008198 0.004177 0.000000
0.008081 0.003982 0.000000
0.007977 0.003823 0.000000
0.007352 0.003219 0.000000
0.007885 0.003694 0.000000
0.007802 0.003592 0.000000
0.007658 0.003448 0.000000
0.007594 0.003396 0.000000
0.007533 0.003352 0.000000
0.007474 0.003311 0.000000
0.007414 0.003268 0.000000
0.000172 0.001267 0.150000
0.000786 0.000414 0.150000
0.008850 0.007020 0.150000
0.008792 0.007166 0.150000
0.006424 0.001970 0.150000
0.007658 0.003448 0.150000
0.007594 0.003396 0.150000
0.007533 0.003352 0.150000
0.007352 0.003219 0.150000
0.007474 0.003311 0.150000
0.007414 0.003268 0.150000
0.008903 0.006856 0.150000
0.008952 0.006677 0.150000
0.008653 0.007396 0.150000
0.000000 0.001818 0.150000
0.007219 0.003085 0.150000
0.005843 0.001520 0.150000
0.005932 0.001564 0.150000
0.005326 0.001303 0.150000
0.005749 0.001478 0.150000
0.003249 0.000367 0.150000
0.003390 0.000428 0.150000
0.005207 0.001251 0.150000
0.003111 0.000310 0.150000
0.002974 0.000257 0.150000
0.001785 0.000007 0.150000
0.002536 0.000122 0.150000
0.001396 0.000020 0.150000
0.001576 0.000001 0.150000
0.000883 0.000302 0.150000
0.000988 0.000205 0.150000
0.000041 0.001549 0.150000
0.000093 0.001411 0.150000
0.000011 0.001684 0.150000
0.000242 0.003040 0.150000
0.000784 0.003752 0.150000
0.000372 0.003259 0.150000
0.001311 0.004271 0.150000
0.001039 0.004012 0.150000
0.002304 0.005150 0.150000
0.001586 0.004521 0.150000
0.003985 0.006227 0.150000
0.002566 0.005396 0.150000
0.002465 0.005295 0.150000
0.004302 0.006380 0.150000
0.004133 0.006301 0.150000
0.004685 0.006548 0.150000
0.004488 0.006463 0.150000
0.005302 0.006803 0.150000
0.004890 0.006634 0.150000
0.006259 0.007177 0.150000
0.006133 0.007133 0.150000
0.006584 0.007262 0.150000
0.006411 0.007220 0.150000
0.006973 0.007342 0.150000
0.006773 0.007303 0.150000
0.007386 0.007415 0.150000
0.007179 0.007380 0.150000
0.008376 0.007557 0.150000
0.008260 0.007553 0.150000
0.008726 0.007292 0.150000
0.008976 0.005249 0.150000
0.009042 0.005384 0.150000
0.008795 0.004990 0.150000
0.008893 0.005120 0.150000
0.008571 0.004713 0.150000
0.008687 0.004856 0.150000
0.008448 0.004555 0.150000
0.008323 0.004378 0.150000
0.007802 0.003592 0.150000
0.007885 0.003694 0.150000
0.007977 0.003823 0.150000
0.008081 0.003982 0.150000
0.008198 0.004177 0.150000
3 0 1 2
3 0 2 3
3 4 5 6
3 4 6 7
3 8 9 10
3 8 10 11
3 12 13 14
3 14 15 16
3 14 16 17
3 18 19 12
3 12 14 17
3 12 17 20
3 21 18 12
3 12 20 21
3 22 23 24
3 22 24 25
3 26 27 28
3 26 28 29
3 30 31 32
3 32 33 34
3 34 35 36
3 36 15 14
3 12 19 37
3 37 38 39
3 39 40 41
3 41 42 43
3 44 45 46
3 39 41 43
3 43 44 46
3 46 47 48
3 48 49 50
3 50 51 52
3 52 53 54
3 54 55 56
3 56 57 58
3 58 59 60
3 60 61 62
3 62 2 1
3 1 63 64
3 64 65 66
3 66 67 68
3 68 6 5
3 5 28 27
3 27 69 70
3 70 71 72
3 72 73 74
3 70 72 74
3 5 27 70
3 66 68 5
3 1 64 66
3 60 62 1
3 56 58 60
3 52 54 56
3 48 50 52
3 43 46 48
3 37 39 43
3 14 12 37
3 34 36 14
3 30 32 34
3 9 75 30
3 76 10 9
3 77 78 76
3 79 80 77
3 81 82 79
3 83 84 81
3 85 86 87
3 83 81 79
3 88 85 87
3 83 79 77
3 23 88 87
3 87 83 77
3 77 76 9
3 9 30 34
3 34 14 37
3 37 43 48
3 48 52 56
3 56 60 1
3 1 66 5
3 5 70 74
3 5 74 89
3 56 1 5
3 37 48 56
3 9 34 37
3 87 77 9
3 24 23 87
3 90 91 24
3 90 24 87
3 87 9 37
3 37 56 5
3 5 89 92
3 93 94 95
3 5 92 93
3 87 37 5
3 96 90 87
3 96 87 5
3 5 93 95
3 95 97 98
3 98 99 100
3 100 101 102
3 103 96 5
3 98 100 102
3 102 103 5
3 5 95 98
3 5 98 102
3 104 32 31
3 104 31 105
3 106 66 65
3 106 65 107
3 25 24 91
3 25 91 108
3 100 99 109
3 100 109 110
3 102 100 110
3 102 110 111
3 112 96 103
3 103 102 111
3 103 111 113
3 114 112 103
3 103 113 114
3 67 66 106
3 67 106 115
3 7 6 68
3 68 67 115
3 116 7 68
3 115 116 68
3 117 63 1
3 117 1 0
3 16 15 36
3 16 36 118
3 25 108 119
3 22 25 119
3 120 121 22
3 122 123 120
3 124 125 126
3 122 120 22
3 127 124 126
3 126 122 22
3 126 22 119
3 128 127 126
3 129 130 128
3 131 132 129
3 8 11 131
3 133 134 8
3 104 105 133
3 135 136 104
3 118 137 135
3 17 16 118
3 21 20 17
3 138 18 21
3 139 140 138
3 141 142 139
3 143 144 141
3 145 146 147
3 143 141 139
3 145 147 143
3 148 149 145
3 150 151 148
3 152 153 150
3 154 155 152
3 156 157 154
3 158 159 156
3 160 161 158
3 162 163 160
3 0 3 162
3 164 117 0
3 106 107 164
3 116 115 106
3 4 7 116
3 26 29 4
3 165 166 26
3 167 168 165
3 169 170 167
3 169 167 165
3 165 26 4
3 4 116 106
3 106 164 0
3 0 162 160
3 160 158 156
3 156 154 152
3 152 150 148
3 148 145 143
3 143 139 138
3 138 21 17
3 17 118 135
3 135 104 133
3 133 8 131
3 131 129 128
3 128 126 119
3 128 119 112
3 133 131 128
3 17 135 133
3 143 138 17
3 152 148 143
3 160 156 152
3 106 0 160
3 165 4 106
3 171 169 165
3 171 165 106
3 106 160 152
3 152 143 17
3 17 133 128
3 128 112 114
3 113 111 110
3 128 114 113
3 152 17 128
3 171 106 152
3 172 171 152
3 152 128 113
3 113 110 109
3 109 173 174
3 174 175 176
3 177 172 152
3 174 176 177
3 113 109 174
3 177 152 113
3 113 174 177
3 131 76 78
3 131 78 132
3 11 10 76
3 11 76 131
3 118 36 35
3 118 35 137
3 134 75 9
3 134 9 8
3 77 80 130
3 77 130 129
3 109 99 98
3 109 98 173
3 165 70 69
3 165 69 166
3 138 37 19
3 138 19 18
3 132 78 77
3 132 77 129
3 42 41 40
3 40 39 139
3 40 139 142
3 43 42 40
3 146 45 44
3 43 40 142
3 146 44 43
3 147 146 43
3 43 142 141
3 43 141 144
3 143 147 43
3 144 143 43
3 47 46 145
3 47 145 149
3 48 47 149
3 48 149 148
3 49 48 148
3 49 148 151
3 50 49 151
3 50 151 150
3 51 50 150
3 51 150 153
3 52 51 153
3 52 153 152
3 154 54 53
3 53 52 152
3 155 154 53
3 152 155 53
3 105 31 30
3 105 30 133
3 59 58 57
3 57 56 55
3 55 157 156
3 55 156 159
3 59 57 55
3 61 60 59
3 160 163 61
3 161 160 61
3 61 59 55
3 55 159 158
3 158 161 61
3 55 158 61
3 166 69 27
3 166 27 26
3 140 38 37
3 140 37 138
3 137 35 34
3 137 34 135
3 107 65 64
3 107 64 164
3 133 30 75
3 133 75 134
3 39 38 140
3 39 140 139
3 3 2 62
3 3 62 162
3 136 33 32
3 136 32 104
3 157 55 54
3 157 54 154
3 79 128 130
3 79 130 80
3 119 90 96
3 119 96 112
3 46 45 146
3 46 146 145
3 85 88 121
3 85 121 120
3 83 87 86
3 86 85 120
3 86 120 123
3 84 83 86
3 84 86 123
3 84 123 122
3 81 84 122
3 81 122 126
3 128 79 82
3 82 81 126
3 82 126 125
3 127 128 82
3 82 125 124
3 124 127 82
3 88 23 22
3 88 22 121
3 135 34 33
3 135 33 136
3 164 64 63
3 164 63 117
3 71 70 165
3 71 165 168
3 72 71 168
3 72 168 167
3 73 72 167
3 73 167 170
3 74 73 170
3 74 170 169
3 89 74 169
3 89 169 171
3 92 89 171
3 92 171 172
3 93 92 172
3 93 172 177
3 94 93 177
3 94 177 176
3 95 94 176
3 95 176 175
3 173 98 97
3 97 95 175
3 174 173 97
3 175 174 97
3 91 90 119
3 91 119 108
3 29 28 5
3 29 5 4
3 162 62 61
3 162 61 163
