ply
format ascii 1.0
comment Created by Blender 3.6.8 - www.blender.org
element vertex 132
property float x
property float y
property float z
element face 257
property list uchar uint vertex_indices
end_header
0.006304 0.002598 0.150000
0.006304 0.002598 0.000000
0.006416 0.002667 0.000000
0.006416 0.002667 0.150000
0.002861 0.000064 0.150000
0.002861 0.000064 0.000000
0.003107 0.000106 0.000000
0.003107 0.000106 0.150000
0.003297 0.000163 0.150000
0.003297 0.000163 0.000000
0.003418 0.000236 0.000000
0.003418 0.000236 0.150000
0.001606 0.006440 0.000000
0.000398 0.002451 0.000000
0.000398 0.002451 0.150000
0.001606 0.006440 0.150000
0.007748 0.004526 0.150000
0.007748 0.004526 0.000000
0.007768 0.004685 0.000000
0.007768 0.004685 0.150000
0.000069 0.000071 0.150000
0.000069 0.000071 0.000000
0.000147 0.000031 0.000000
0.000147 0.000031 0.150000
0.003511 0.007872 0.000000
0.001654 0.006696 0.000000
0.001654 0.006696 0.150000
0.003511 0.007872 0.150000
0.007775 0.005368 0.000000
0.007769 0.005511 0.000000
0.007769 0.005511 0.150000
0.007775 0.005368 0.150000
0.007775 0.004864 0.000000
0.007775 0.004864 0.150000
0.003885 0.007970 0.150000
0.003885 0.007970 0.000000
0.003790 0.007963 0.000000
0.003790 0.007963 0.150000
0.000260 0.000018 0.000000
0.000260 0.000018 0.150000
0.004926 0.001769 0.150000
0.004926 0.001769 0.000000
0.005310 0.002072 0.000000
0.005310 0.002072 0.150000
0.000265 0.001765 0.000000
0.000231 0.001501 0.000000
0.000189 0.001256 0.000000
0.000143 0.001030 0.000000
0.000097 0.000825 0.000000
0.000055 0.000642 0.000000
0.000023 0.000481 0.000000
0.000003 0.000342 0.000000
0.000003 0.000342 0.150000
0.000313 0.002076 0.000000
0.000023 0.000481 0.150000
0.000055 0.000642 0.150000
0.000313 0.002076 0.150000
0.000097 0.000825 0.150000
0.000143 0.001030 0.150000
0.000265 0.001765 0.150000
0.000231 0.001501 0.150000
0.000189 0.001256 0.150000
0.007670 0.004255 0.150000
0.007670 0.004255 0.000000
0.007715 0.004384 0.000000
0.007715 0.004384 0.150000
0.005657 0.002291 0.000000
0.005657 0.002291 0.150000
0.007654 0.006038 0.150000
0.007654 0.006038 0.000000
0.007590 0.006171 0.000000
0.007590 0.006171 0.150000
0.003604 0.007916 0.150000
0.003604 0.007916 0.000000
0.006808 0.007320 0.000000
0.006808 0.007320 0.150000
0.006672 0.007459 0.150000
0.006672 0.007459 0.000000
0.006580 0.007517 0.000000
0.006580 0.007517 0.150000
0.006463 0.007567 0.000000
0.006463 0.007567 0.150000
0.002252 0.000014 0.000000
0.002571 0.000034 0.000000
0.002571 0.000034 0.150000
0.002252 0.000014 0.150000
0.001915 0.000004 0.000000
0.001242 0.000001 0.000000
0.001574 0.000000 0.000000
0.000428 0.000016 0.000000
0.000931 0.000006 0.000000
0.000428 0.000016 0.150000
0.001915 0.000004 0.150000
0.000931 0.000006 0.150000
0.001574 0.000000 0.150000
0.001242 0.000001 0.150000
0.006530 0.002752 0.000000
0.006530 0.002752 0.150000
0.003697 0.007945 0.000000
0.003697 0.007945 0.150000
0.007734 0.005779 0.150000
0.007734 0.005779 0.000000
0.007701 0.005908 0.000000
0.007701 0.005908 0.150000
0.000022 0.000137 0.000000
0.000002 0.000227 0.000000
0.006646 0.002860 0.000000
0.006900 0.003169 0.000000
0.006769 0.002997 0.000000
0.007032 0.003348 0.000000
0.007370 0.003778 0.000000
0.007268 0.003649 0.000000
0.007155 0.003507 0.000000
0.005099 0.007888 0.000000
0.006746 0.007395 0.000000
0.007612 0.004134 0.000000
0.007543 0.004017 0.000000
0.007462 0.003900 0.000000
0.005099 0.007888 0.150000
0.000002 0.000227 0.150000
0.000022 0.000137 0.150000
0.007543 0.004017 0.150000
0.007612 0.004134 0.150000
0.006769 0.002997 0.150000
0.006646 0.002860 0.150000
0.006900 0.003169 0.150000
0.007462 0.003900 0.150000
0.007032 0.003348 0.150000
0.007370 0.003778 0.150000
0.007268 0.003649 0.150000
0.007155 0.003507 0.150000
0.006746 0.007395 0.150000
3 0 1 2
3 0 2 3
3 4 5 6
3 4 6 7
3 8 9 10
3 8 10 11
3 12 13 14
3 12 14 15
3 16 17 18
3 16 18 19
3 20 21 22
3 20 22 23
3 24 25 26
3 24 26 27
3 28 29 30
3 28 30 31
3 19 18 32
3 32 28 31
3 33 19 32
3 32 31 33
3 34 35 36
3 34 36 37
3 23 22 38
3 23 38 39
3 40 41 42
3 40 42 43
3 44 45 46
3 46 47 48
3 46 48 49
3 44 46 49
3 50 51 52
3 44 49 50
3 14 13 53
3 53 44 50
3 50 52 54
3 50 54 55
3 14 53 50
3 56 14 50
3 50 55 57
3 50 57 58
3 59 56 50
3 60 59 50
3 50 58 61
3 50 61 60
3 62 63 64
3 62 64 65
3 43 42 66
3 43 66 67
3 7 6 9
3 7 9 8
3 68 69 70
3 68 70 71
3 72 73 24
3 72 24 27
3 70 74 75
3 70 75 71
3 76 77 78
3 76 78 79
3 79 78 80
3 79 80 81
3 82 83 5
3 5 4 84
3 5 84 85
3 86 82 5
3 87 88 86
3 89 90 87
3 39 38 89
3 91 39 89
3 89 87 86
3 86 5 85
3 86 85 92
3 91 89 86
3 93 91 86
3 86 92 94
3 95 93 86
3 94 95 86
3 3 2 96
3 3 96 97
3 65 64 17
3 65 17 16
3 37 36 98
3 37 98 99
3 100 101 102
3 100 102 103
3 41 10 9
3 9 6 5
3 82 86 88
3 88 87 90
3 89 38 22
3 88 90 89
3 5 82 88
3 41 9 5
3 41 5 88
3 88 89 22
3 22 21 104
3 104 105 51
3 51 50 49
3 51 49 48
3 22 104 51
3 41 88 22
3 42 41 22
3 22 51 48
3 22 48 47
3 66 42 22
3 2 1 66
3 106 96 2
3 107 108 106
3 109 107 106
3 106 2 66
3 66 22 47
3 66 47 46
3 109 106 66
3 110 111 112
3 112 109 66
3 66 46 45
3 45 44 53
3 53 13 12
3 12 25 24
3 24 73 98
3 98 36 35
3 35 113 80
3 80 78 77
3 77 114 74
3 74 70 69
3 69 102 101
3 101 29 28
3 28 32 18
3 18 17 64
3 64 63 115
3 115 116 117
3 117 110 112
3 112 66 45
3 45 53 12
3 12 24 98
3 98 35 80
3 80 77 74
3 74 69 101
3 101 28 18
3 18 64 115
3 115 117 112
3 112 45 12
3 12 98 80
3 80 74 101
3 101 18 115
3 115 112 12
3 12 80 101
3 12 101 115
3 30 29 101
3 30 101 100
3 80 113 118
3 80 118 81
3 119 105 104
3 119 104 120
3 99 98 73
3 99 73 72
3 121 116 115
3 121 115 122
3 108 107 109
3 106 108 109
3 106 109 112
3 123 124 106
3 125 123 106
3 106 112 117
3 117 116 121
3 117 121 126
3 125 106 117
3 127 125 117
3 117 126 128
3 117 128 129
3 130 127 117
3 117 129 130
3 113 35 34
3 113 34 118
3 10 41 40
3 10 40 11
3 103 102 69
3 103 69 68
3 52 51 105
3 52 105 119
3 26 25 12
3 26 12 15
3 122 115 63
3 122 63 62
3 66 1 0
3 66 0 67
3 81 118 34
3 34 37 99
3 99 72 27
3 27 26 15
3 15 14 56
3 56 59 60
3 15 56 60
3 99 27 15
3 81 34 99
3 76 79 81
3 75 131 76
3 68 71 75
3 100 103 68
3 31 30 100
3 19 33 31
3 65 16 19
3 122 62 65
3 126 121 122
3 129 128 126
3 130 129 126
3 126 122 65
3 65 19 31
3 31 100 68
3 68 75 76
3 76 81 99
3 99 15 60
3 99 60 61
3 68 76 99
3 65 31 68
3 130 126 65
3 123 125 127
3 127 130 65
3 65 68 99
3 99 61 58
3 57 55 54
3 99 58 57
3 127 65 99
3 124 123 127
3 3 97 124
3 67 0 3
3 67 3 124
3 124 127 99
3 99 57 54
3 54 52 119
3 119 120 20
3 20 23 39
3 91 93 95
3 20 39 91
3 54 119 20
3 124 99 54
3 67 124 54
3 54 20 91
3 91 95 94
3 94 92 85
3 85 84 4
3 4 7 8
3 8 11 40
3 43 67 54
3 4 8 40
3 40 43 54
3 54 91 94
3 94 85 4
3 4 40 54
3 54 94 4
3 75 74 114
3 75 114 131
3 97 96 106
3 97 106 124
3 131 114 77
3 131 77 76
3 120 104 21
3 120 21 20
