ply
format ascii 1.0
comment Created by Blender 3.6.8 - www.blender.org
element vertex 138
property float x
property float y
property float z
element face 269
property list uchar uint vertex_indices
end_header
0.000114 0.007421 0.150000
0.000253 0.006778 0.150000
0.001464 0.003633 0.150000
0.001588 0.003383 0.150000
0.001705 0.003164 0.150000
0.001917 0.002794 0.150000
0.002107 0.002490 0.150000
0.002198 0.002357 0.150000
0.002289 0.002234 0.150000
0.002382 0.002119 0.150000
0.002478 0.002012 0.150000
0.002688 0.001807 0.150000
0.002932 0.001605 0.150000
0.003233 0.001384 0.150000
0.003591 0.001143 0.150000
0.003988 0.000900 0.150000
0.004195 0.000783 0.150000
0.004405 0.000673 0.150000
0.004824 0.000479 0.150000
0.005029 0.000401 0.150000
0.005227 0.000337 0.150000
0.005421 0.000278 0.150000
0.000037 0.008139 0.150000
0.000004 0.008866 0.150000
0.000016 0.008506 0.150000
0.000018 0.010422 0.150000
0.000001 0.009533 0.150000
0.000384 0.010723 0.150000
0.000273 0.010638 0.150000
0.000481 0.010787 0.150000
0.000435 0.010759 0.150000
0.000574 0.010821 0.150000
0.000519 0.010806 0.150000
0.000791 0.010855 0.150000
0.000667 0.010838 0.150000
0.001656 0.010940 0.150000
0.000941 0.010873 0.150000
0.002132 0.010968 0.150000
0.001992 0.010962 0.150000
0.002349 0.010969 0.150000
0.002244 0.010971 0.150000
0.004541 0.010845 0.150000
0.002471 0.010964 0.150000
0.005125 0.010754 0.150000
0.004745 0.010823 0.150000
0.005785 0.010521 0.150000
0.005471 0.010652 0.150000
0.006330 0.010181 0.150000
0.006070 0.010363 0.150000
0.006525 0.009982 0.150000
0.006440 0.010083 0.150000
0.006633 0.009766 0.150000
0.006589 0.009876 0.150000
0.006677 0.009525 0.150000
0.006661 0.009649 0.150000
0.006671 0.008779 0.150000
0.006683 0.009394 0.150000
0.006913 0.000390 0.150000
0.006939 0.000687 0.150000
0.006792 0.000123 0.150000
0.006864 0.000235 0.150000
0.006584 0.000011 0.150000
0.006698 0.000050 0.150000
0.006308 0.000014 0.150000
0.006454 0.000000 0.150000
0.005978 0.000095 0.150000
0.006148 0.000047 0.150000
0.005612 0.000215 0.150000
0.005799 0.000152 0.150000
0.000016 0.008506 0.000000
0.000037 0.008139 0.000000
0.000004 0.008866 0.000000
0.000018 0.010422 0.000000
0.000001 0.009533 0.000000
0.006698 0.000050 0.000000
0.006792 0.000123 0.000000
0.000519 0.010806 0.000000
0.000481 0.010787 0.000000
0.006864 0.000235 0.000000
0.006913 0.000390 0.000000
0.006589 0.009876 0.000000
0.006525 0.009982 0.000000
0.005471 0.010652 0.000000
0.005125 0.010754 0.000000
0.002244 0.010971 0.000000
0.002349 0.010969 0.000000
0.002471 0.010964 0.000000
0.004541 0.010845 0.000000
0.004745 0.010823 0.000000
0.005785 0.010521 0.000000
0.006070 0.010363 0.000000
0.006330 0.010181 0.000000
0.006440 0.010083 0.000000
0.006633 0.009766 0.000000
0.006661 0.009649 0.000000
0.006677 0.009525 0.000000
0.006683 0.009394 0.000000
0.006671 0.008779 0.000000
0.006939 0.000687 0.000000
0.002132 0.010968 0.000000
0.001656 0.010940 0.000000
0.001992 0.010962 0.000000
0.000791 0.010855 0.000000
0.000941 0.010873 0.000000
0.000574 0.010821 0.000000
0.000667 0.010838 0.000000
0.000384 0.010723 0.000000
0.000435 0.010759 0.000000
0.000273 0.010638 0.000000
0.000253 0.006778 0.000000
0.000114 0.007421 0.000000
0.001588 0.003383 0.000000
0.001464 0.003633 0.000000
0.001917 0.002794 0.000000
0.001705 0.003164 0.000000
0.002198 0.002357 0.000000
0.002107 0.002490 0.000000
0.002382 0.002119 0.000000
0.002289 0.002234 0.000000
0.002688 0.001807 0.000000
0.002478 0.002012 0.000000
0.003233 0.001384 0.000000
0.002932 0.001605 0.000000
0.003988 0.000900 0.000000
0.003591 0.001143 0.000000
0.004405 0.000673 0.000000
0.004195 0.000783 0.000000
0.005029 0.000401 0.000000
0.004824 0.000479 0.000000
0.005421 0.000278 0.000000
0.005227 0.000337 0.000000
0.005978 0.000095 0.000000
0.005799 0.000152 0.000000
0.005612 0.000215 0.000000
0.006308 0.000014 0.000000
0.006148 0.000047 0.000000
0.006584 0.000011 0.000000
0.006454 0.000000 0.000000
3 0 1 2
3 2 3 4
3 4 5 6
3 6 7 8
3 8 9 10
3 10 11 12
3 12 13 14
3 14 15 16
3 16 17 18
3 18 19 20
3 18 20 21
3 14 16 18
3 10 12 14
3 6 8 10
3 2 4 6
3 22 0 2
3 23 24 22
3 25 26 23
3 27 28 25
3 29 30 27
3 31 32 29
3 33 34 31
3 35 36 33
3 37 38 35
3 39 40 37
3 41 42 39
3 43 44 41
3 45 46 43
3 47 48 45
3 49 50 47
3 51 52 49
3 53 54 51
3 55 56 53
3 57 58 55
3 59 60 57
3 61 62 59
3 63 64 61
3 65 66 63
3 67 68 65
3 18 21 67
3 10 14 18
3 2 6 10
3 23 22 2
3 27 25 23
3 31 29 27
3 35 33 31
3 39 37 35
3 43 41 39
3 47 45 43
3 51 49 47
3 55 53 51
3 59 57 55
3 63 61 59
3 67 65 63
3 10 18 67
3 23 2 10
3 31 27 23
3 39 35 31
3 47 43 39
3 55 51 47
3 63 59 55
3 10 67 63
3 31 23 10
3 47 39 31
3 63 55 47
3 31 10 63
3 63 47 31
3 69 70 22
3 69 22 24
3 71 69 24
3 71 24 23
3 25 72 73
3 73 71 23
3 26 25 73
3 23 26 73
3 62 74 75
3 62 75 59
3 32 76 77
3 32 77 29
3 60 78 79
3 60 79 57
3 52 80 81
3 52 81 49
3 46 82 83
3 46 83 43
3 84 85 86
3 86 87 88
3 88 83 82
3 82 89 90
3 90 91 92
3 92 81 80
3 80 93 94
3 94 95 96
3 97 98 79
3 94 96 97
3 92 80 94
3 82 90 92
3 86 88 82
3 99 84 86
3 100 101 99
3 102 103 100
3 104 105 102
3 77 76 104
3 106 107 77
3 72 108 106
3 71 73 72
3 70 69 71
3 109 110 70
3 111 112 109
3 113 114 111
3 115 116 113
3 117 118 115
3 119 120 117
3 121 122 119
3 123 124 121
3 125 126 123
3 127 128 125
3 129 130 127
3 131 132 133
3 129 127 125
3 131 133 129
3 134 135 131
3 136 137 134
3 75 74 136
3 79 78 75
3 92 94 97
3 97 79 75
3 75 136 134
3 134 131 129
3 129 125 123
3 123 121 119
3 119 117 115
3 115 113 111
3 111 109 70
3 70 71 72
3 72 106 77
3 77 104 102
3 102 100 99
3 99 86 82
3 82 92 97
3 97 75 134
3 134 129 123
3 123 119 115
3 115 111 70
3 70 72 77
3 77 102 99
3 99 82 97
3 97 134 123
3 123 115 70
3 70 77 99
3 99 97 123
3 123 70 99
3 109 112 2
3 109 2 1
3 117 120 10
3 117 10 9
3 116 115 117
3 7 6 116
3 117 9 8
3 8 7 116
3 117 8 116
3 128 127 130
3 128 130 129
3 19 18 128
3 20 19 128
3 128 129 133
3 131 135 66
3 131 66 65
3 128 133 131
3 21 20 128
3 67 21 128
3 128 131 65
3 68 67 128
3 65 68 128
3 105 104 31
3 105 31 34
3 102 105 34
3 102 34 33
3 103 102 33
3 103 33 36
3 100 103 36
3 100 36 35
3 37 99 101
3 101 100 35
3 38 37 101
3 35 38 101
3 121 124 14
3 121 14 13
3 11 119 122
3 122 121 13
3 12 11 122
3 122 13 12
3 57 79 98
3 57 98 58
3 120 119 11
3 120 11 10
3 0 110 109
3 0 109 1
3 83 88 44
3 83 44 43
3 61 136 74
3 61 74 62
3 54 94 93
3 54 93 51
3 58 98 97
3 96 95 53
3 58 97 96
3 55 58 96
3 96 53 56
3 96 56 55
3 31 104 76
3 31 76 32
3 49 81 92
3 49 92 50
3 51 93 80
3 51 80 52
3 63 134 137
3 63 137 64
3 125 128 18
3 125 18 17
3 70 110 0
3 70 0 22
3 72 25 28
3 27 30 107
3 72 28 27
3 107 106 72
3 72 27 107
3 113 116 6
3 113 6 5
3 114 113 5
3 114 5 4
3 2 112 111
3 111 114 4
3 3 2 111
3 4 3 111
3 89 82 46
3 89 46 45
3 50 92 91
3 50 91 47
3 59 75 78
3 59 78 60
3 48 90 89
3 48 89 45
3 47 91 90
3 47 90 48
3 53 95 94
3 53 94 54
3 126 125 17
3 126 17 16
3 14 124 123
3 123 126 16
3 15 14 123
3 16 15 123
3 66 135 134
3 66 134 63
3 29 77 107
3 29 107 30
3 84 99 37
3 84 37 40
3 85 84 40
3 85 40 39
3 86 85 39
3 86 39 42
3 44 88 87
3 87 86 42
3 41 44 87
3 42 41 87
3 64 137 136
3 64 136 61
