ply
format ascii 1.0
comment Created by Blender 3.6.8 - www.blender.org
element vertex 144
property float x
property float y
property float z
element face 281
property list uchar uint vertex_indices
end_header
0.008547 0.010704 0.150000
0.008547 0.010704 0.000000
0.008425 0.010830 0.000000
0.008425 0.010830 0.150000
0.005155 0.003081 0.000000
0.005327 0.003313 0.000000
0.005327 0.003313 0.150000
0.005155 0.003081 0.150000
0.004682 0.002503 0.150000
0.004682 0.002503 0.000000
0.004991 0.002870 0.000000
0.004991 0.002870 0.150000
0.000129 0.001245 0.000000
0.000041 0.001076 0.000000
0.000041 0.001076 0.150000
0.000129 0.001245 0.150000
0.000261 0.001474 0.000000
0.000261 0.001474 0.150000
0.000427 0.001752 0.000000
0.000427 0.001752 0.150000
0.001903 0.004097 0.000000
0.001791 0.003915 0.000000
0.000620 0.002064 0.000000
0.000620 0.002064 0.150000
0.001791 0.003915 0.150000
0.003013 0.005611 0.000000
0.001903 0.004097 0.150000
0.003120 0.005750 0.000000
0.003013 0.005611 0.150000
0.004374 0.007311 0.000000
0.004075 0.006932 0.000000
0.003237 0.005899 0.000000
0.003120 0.005750 0.150000
0.004522 0.007503 0.000000
0.004809 0.007891 0.000000
0.004667 0.007696 0.000000
0.005084 0.008278 0.000000
0.004949 0.008085 0.000000
0.005577 0.009004 0.000000
0.005342 0.008652 0.000000
0.005961 0.009597 0.000000
0.005785 0.009322 0.000000
0.006065 0.009727 0.150000
0.006065 0.009727 0.000000
0.005961 0.009597 0.150000
0.003237 0.005899 0.150000
0.005785 0.009322 0.150000
0.005577 0.009004 0.150000
0.004075 0.006932 0.150000
0.005342 0.008652 0.150000
0.005084 0.008278 0.150000
0.004374 0.007311 0.150000
0.004522 0.007503 0.150000
0.004949 0.008085 0.150000
0.004809 0.007891 0.150000
0.004667 0.007696 0.150000
0.006393 0.010009 0.150000
0.006393 0.010009 0.000000
0.006211 0.009865 0.000000
0.006211 0.009865 0.150000
0.009128 0.009098 0.150000
0.009128 0.009098 0.000000
0.008983 0.009703 0.000000
0.008983 0.009703 0.150000
0.008667 0.010514 0.150000
0.008667 0.010514 0.000000
0.001753 0.000457 0.000000
0.001420 0.000298 0.000000
0.000862 0.000069 0.000000
0.000658 0.000013 0.000000
0.000501 0.000001 0.000000
0.000370 0.000024 0.000000
0.000263 0.000079 0.000000
0.000179 0.000158 0.000000
0.000115 0.000256 0.000000
0.000067 0.000368 0.000000
0.000034 0.000486 0.000000
0.000014 0.000606 0.000000
0.000000 0.000826 0.000000
0.000006 0.000981 0.000000
0.002820 0.001035 0.000000
0.002104 0.000638 0.000000
0.003749 0.001622 0.000000
0.003474 0.001437 0.000000
0.004134 0.001929 0.000000
0.003973 0.001789 0.000000
0.005695 0.003851 0.000000
0.005507 0.003569 0.000000
0.006098 0.004500 0.000000
0.005892 0.004160 0.000000
0.006331 0.004864 0.000000
0.009155 0.008234 0.000000
0.009070 0.008101 0.000000
0.006603 0.005241 0.000000
0.009188 0.008372 0.000000
0.009193 0.008571 0.000000
0.008782 0.010275 0.000000
0.008303 0.010878 0.000000
0.007983 0.010824 0.000000
0.008161 0.010866 0.000000
0.007551 0.010665 0.000000
0.007777 0.010756 0.000000
0.007070 0.010431 0.000000
0.007313 0.010555 0.000000
0.006830 0.010296 0.000000
0.009070 0.008101 0.150000
0.009155 0.008234 0.150000
0.000006 0.000981 0.150000
0.000263 0.000079 0.150000
0.000370 0.000024 0.150000
0.009188 0.008372 0.150000
0.009193 0.008571 0.150000
0.003973 0.001789 0.150000
0.004134 0.001929 0.150000
0.008303 0.010878 0.150000
0.006603 0.005241 0.150000
0.000014 0.000606 0.150000
0.000034 0.000486 0.150000
0.000501 0.000001 0.150000
0.000658 0.000013 0.150000
0.000115 0.000256 0.150000
0.000179 0.000158 0.150000
0.001753 0.000457 0.150000
0.001420 0.000298 0.150000
0.002820 0.001035 0.150000
0.002104 0.000638 0.150000
0.000862 0.000069 0.150000
0.000067 0.000368 0.150000
0.006830 0.010296 0.150000
0.000000 0.000826 0.150000
0.003474 0.001437 0.150000
0.003749 0.001622 0.150000
0.005507 0.003569 0.150000
0.005695 0.003851 0.150000
0.005892 0.004160 0.150000
0.006098 0.004500 0.150000
0.006331 0.004864 0.150000
0.008782 0.010275 0.150000
0.008161 0.010866 0.150000
0.007983 0.010824 0.150000
0.007777 0.010756 0.150000
0.007551 0.010665 0.150000
0.007313 0.010555 0.150000
0.007070 0.010431 0.150000
3 0 1 2
3 0 2 3
3 4 5 6
3 4 6 7
3 8 9 10
3 10 4 7
3 11 8 10
3 7 11 10
3 12 13 14
3 12 14 15
3 16 12 15
3 16 15 17
3 18 16 17
3 18 17 19
3 20 21 22
3 22 18 19
3 22 19 23
3 20 22 23
3 20 23 24
3 25 20 24
3 25 24 26
3 27 25 26
3 27 26 28
3 29 30 31
3 31 27 28
3 31 28 32
3 33 29 31
3 34 35 33
3 36 37 34
3 38 39 36
3 40 41 38
3 42 43 40
3 44 42 40
3 40 38 36
3 36 34 33
3 33 31 32
3 33 32 45
3 40 36 33
3 46 44 40
3 47 46 40
3 40 33 45
3 40 45 48
3 49 47 40
3 50 49 40
3 40 48 51
3 40 51 52
3 53 50 40
3 54 53 40
3 40 52 55
3 55 54 40
3 56 57 58
3 56 58 59
3 60 61 62
3 60 62 63
3 64 65 1
3 64 1 0
3 66 67 68
3 68 69 70
3 70 71 72
3 72 73 74
3 74 75 76
3 76 77 78
3 78 79 13
3 13 12 16
3 16 18 22
3 21 20 25
3 16 22 21
3 78 13 16
3 74 76 78
3 70 72 74
3 66 68 70
3 80 81 66
3 82 83 80
3 84 85 82
3 10 9 84
3 5 4 10
3 86 87 5
3 88 89 86
3 88 86 5
3 5 10 84
3 84 82 80
3 80 66 70
3 70 74 78
3 78 16 21
3 21 25 27
3 27 31 30
3 21 27 30
3 70 78 21
3 84 80 70
3 88 5 84
3 90 88 84
3 84 70 21
3 21 30 29
3 21 29 33
3 90 84 21
3 91 92 93
3 93 90 21
3 93 21 33
3 94 91 93
3 61 95 94
3 96 62 61
3 1 65 96
3 97 2 1
3 98 99 97
3 100 101 98
3 102 103 100
3 57 104 102
3 43 58 57
3 41 40 43
3 38 41 43
3 43 57 102
3 102 100 98
3 98 97 1
3 1 96 61
3 61 94 93
3 93 33 35
3 93 35 34
3 1 61 93
3 102 98 1
3 38 43 102
3 39 38 102
3 102 1 93
3 93 34 37
3 36 39 102
3 93 37 36
3 36 102 93
3 105 92 91
3 105 91 106
3 14 13 79
3 14 79 107
3 108 72 71
3 108 71 109
3 110 94 95
3 110 95 111
3 112 85 84
3 112 84 113
3 3 2 97
3 3 97 114
3 93 92 105
3 93 105 115
3 116 77 76
3 116 76 117
3 95 61 60
3 95 60 111
3 118 70 69
3 118 69 119
3 120 74 73
3 120 73 121
3 109 71 70
3 109 70 118
3 122 123 67
3 122 67 66
3 80 124 125
3 125 122 66
3 81 80 125
3 66 81 125
3 119 69 68
3 119 68 126
3 117 76 75
3 117 75 127
3 9 8 113
3 9 113 84
3 67 123 126
3 67 126 68
3 128 104 57
3 128 57 56
3 121 73 72
3 121 72 108
3 129 78 77
3 129 77 116
3 106 91 94
3 106 94 110
3 48 45 32
3 32 28 26
3 24 23 19
3 32 26 24
3 48 32 24
3 24 19 17
3 17 15 14
3 14 107 129
3 129 116 117
3 117 127 120
3 120 121 108
3 108 109 118
3 118 119 126
3 126 123 122
3 122 125 124
3 124 130 131
3 131 112 113
3 113 8 11
3 11 7 6
3 6 132 133
3 133 134 135
3 6 133 135
3 113 11 6
3 124 131 113
3 126 122 124
3 108 118 126
3 117 120 108
3 14 129 117
3 24 17 14
3 51 48 24
3 52 51 24
3 24 14 117
3 117 108 126
3 126 124 113
3 113 6 135
3 113 135 136
3 117 126 113
3 52 24 117
3 55 52 117
3 117 113 136
3 115 105 106
3 117 136 115
3 54 55 117
3 53 54 117
3 117 115 106
3 106 110 111
3 111 60 63
3 63 137 64
3 64 0 3
3 3 114 138
3 138 139 140
3 140 141 142
3 142 143 128
3 128 56 59
3 59 42 44
3 59 44 46
3 142 128 59
3 138 140 142
3 64 3 138
3 111 63 64
3 117 106 111
3 50 53 117
3 49 50 117
3 117 111 64
3 64 138 142
3 142 59 46
3 47 49 117
3 142 46 47
3 117 64 142
3 117 142 47
3 124 80 83
3 82 85 112
3 124 83 82
3 130 124 82
3 82 112 131
3 82 131 130
3 141 140 101
3 101 100 103
3 103 102 104
3 104 128 143
3 142 141 101
3 104 143 142
3 101 103 104
3 101 104 142
3 139 98 101
3 139 101 140
3 114 97 99
3 114 99 138
3 137 96 65
3 137 65 64
3 127 75 74
3 127 74 120
3 107 79 78
3 107 78 129
3 90 93 115
3 88 90 115
3 88 115 136
3 6 5 88
3 132 6 88
3 88 136 135
3 88 135 134
3 133 132 88
3 88 134 133
3 59 58 43
3 59 43 42
3 62 96 137
3 62 137 63
3 138 99 98
3 138 98 139
