ply
format ascii 1.0
comment Created by Blender 3.6.8 - www.blender.org
element vertex 196
property float x
property float y
property float z
element face 388
property list uchar uint vertex_indices
end_header
0.001832 0.000017 0.150000
0.001832 0.000017 0.000000
0.002105 0.000001 0.000000
0.002105 0.000001 0.150000
0.001323 0.008601 0.000000
0.001195 0.008585 0.000000
0.001195 0.008585 0.150000
0.001323 0.008601 0.150000
0.001467 0.008614 0.000000
0.001467 0.008614 0.150000
0.001623 0.008624 0.000000
0.001623 0.008624 0.150000
0.001961 0.008637 0.000000
0.001961 0.008637 0.150000
0.002955 0.008642 0.150000
0.002955 0.008642 0.000000
0.002804 0.008645 0.000000
0.002804 0.008645 0.150000
0.000722 0.004223 0.000000
0.000717 0.004090 0.000000
0.000717 0.004090 0.150000
0.000722 0.004223 0.150000
0.000726 0.004360 0.000000
0.000726 0.004360 0.150000
0.000728 0.004502 0.000000
0.000728 0.004502 0.150000
0.000729 0.004652 0.000000
0.000729 0.004652 0.150000
0.000729 0.005153 0.000000
0.000729 0.005153 0.150000
0.000729 0.005318 0.000000
0.000729 0.005318 0.150000
0.000727 0.005479 0.000000
0.000727 0.005479 0.150000
0.000717 0.005784 0.150000
0.000717 0.005784 0.000000
0.000723 0.005634 0.000000
0.000723 0.005634 0.150000
0.000014 0.007719 0.000000
0.000000 0.007704 0.000000
0.000000 0.007704 0.150000
0.000014 0.007719 0.150000
0.000053 0.007759 0.000000
0.000053 0.007759 0.150000
0.000114 0.007821 0.000000
0.000114 0.007821 0.150000
0.000193 0.007899 0.000000
0.000193 0.007899 0.150000
0.000286 0.007989 0.000000
0.000286 0.007989 0.150000
0.000388 0.008086 0.000000
0.000388 0.008086 0.150000
0.000497 0.008185 0.000000
0.000497 0.008185 0.150000
0.000718 0.008370 0.150000
0.000718 0.008370 0.000000
0.000608 0.008281 0.000000
0.000608 0.008281 0.150000
0.006285 0.005923 0.000000
0.005791 0.006833 0.000000
0.005483 0.007455 0.000000
0.005413 0.007581 0.000000
0.005413 0.007581 0.150000
0.005483 0.007455 0.150000
0.005791 0.006833 0.150000
0.006443 0.005614 0.000000
0.006285 0.005923 0.150000
0.006804 0.004831 0.150000
0.006804 0.004831 0.000000
0.006579 0.005331 0.000000
0.006443 0.005614 0.150000
0.006579 0.005331 0.150000
0.003418 0.008597 0.000000
0.003576 0.008569 0.000000
0.003737 0.008534 0.000000
0.004064 0.008444 0.000000
0.004231 0.008388 0.000000
0.004399 0.008325 0.000000
0.004744 0.008174 0.000000
0.004905 0.008089 0.000000
0.005041 0.008000 0.000000
0.005156 0.007906 0.000000
0.005253 0.007806 0.000000
0.005338 0.007698 0.000000
0.006850 0.004705 0.000000
0.006887 0.004561 0.000000
0.006938 0.004231 0.000000
0.006958 0.003858 0.000000
0.006956 0.003661 0.000000
0.006947 0.003460 0.000000
0.006930 0.003258 0.000000
0.006906 0.003055 0.000000
0.006788 0.002477 0.000000
0.006653 0.002150 0.000000
0.006486 0.001874 0.000000
0.006397 0.001753 0.000000
0.006307 0.001643 0.000000
0.005993 0.001299 0.000000
0.005938 0.001234 0.000000
0.005835 0.001156 0.000000
0.004995 0.000773 0.000000
0.003267 0.000204 0.000000
0.002446 0.000032 0.000000
0.001451 0.000108 0.000000
0.001314 0.000161 0.000000
0.001207 0.000219 0.000000
0.001123 0.000282 0.000000
0.001057 0.000350 0.000000
0.001003 0.000424 0.000000
0.000803 0.000779 0.000000
0.000596 0.001081 0.000000
0.000552 0.001168 0.000000
0.000520 0.001250 0.000000
0.000498 0.001329 0.000000
0.000484 0.001408 0.000000
0.000476 0.001488 0.000000
0.000473 0.001571 0.000000
0.000472 0.001660 0.000000
0.000471 0.001757 0.000000
0.000469 0.001863 0.000000
0.000463 0.001982 0.000000
0.000458 0.002101 0.000000
0.000457 0.002209 0.000000
0.000918 0.008506 0.000000
0.001000 0.008543 0.000000
0.000030 0.007675 0.000000
0.000109 0.007590 0.000000
0.000161 0.007528 0.000000
0.000219 0.007454 0.000000
0.000343 0.007270 0.000000
0.000464 0.007044 0.000000
0.000517 0.006916 0.000000
0.000601 0.006638 0.000000
0.000659 0.006358 0.000000
0.005041 0.008000 0.150000
0.004905 0.008089 0.150000
0.003418 0.008597 0.150000
0.003576 0.008569 0.150000
0.004064 0.008444 0.150000
0.003737 0.008534 0.150000
0.005156 0.007906 0.150000
0.006938 0.004231 0.150000
0.006887 0.004561 0.150000
0.006850 0.004705 0.150000
0.006956 0.003661 0.150000
0.006958 0.003858 0.150000
0.006930 0.003258 0.150000
0.006947 0.003460 0.150000
0.006788 0.002477 0.150000
0.006906 0.003055 0.150000
0.006486 0.001874 0.150000
0.006653 0.002150 0.150000
0.006307 0.001643 0.150000
0.006397 0.001753 0.150000
0.005835 0.001156 0.150000
0.005938 0.001234 0.150000
0.005993 0.001299 0.150000
0.005338 0.007698 0.150000
0.005253 0.007806 0.150000
0.004744 0.008174 0.150000
0.004399 0.008325 0.150000
0.004231 0.008388 0.150000
0.001000 0.008543 0.150000
0.000918 0.008506 0.150000
0.000030 0.007675 0.150000
0.003267 0.000204 0.150000
0.004995 0.000773 0.150000
0.002446 0.000032 0.150000
0.001451 0.000108 0.150000
0.001207 0.000219 0.150000
0.001314 0.000161 0.150000
0.001057 0.000350 0.150000
0.001123 0.000282 0.150000
0.000803 0.000779 0.150000
0.001003 0.000424 0.150000
0.000552 0.001168 0.150000
0.000596 0.001081 0.150000
0.000498 0.001329 0.150000
0.000520 0.001250 0.150000
0.000476 0.001488 0.150000
0.000484 0.001408 0.150000
0.000472 0.001660 0.150000
0.000473 0.001571 0.150000
0.000471 0.001757 0.150000
0.000109 0.007590 0.150000
0.000458 0.002101 0.150000
0.000463 0.001982 0.150000
0.000469 0.001863 0.150000
0.000161 0.007528 0.150000
0.000457 0.002209 0.150000
0.000219 0.007454 0.150000
0.000343 0.007270 0.150000
0.000464 0.007044 0.150000
0.000517 0.006916 0.150000
0.000601 0.006638 0.150000
0.000659 0.006358 0.150000
3 0 1 2
3 0 2 3
3 4 5 6
3 4 6 7
3 8 4 7
3 8 7 9
3 10 8 9
3 10 9 11
3 12 10 11
3 12 11 13
3 14 15 16
3 16 12 13
3 17 14 16
3 13 17 16
3 18 19 20
3 18 20 21
3 22 18 21
3 22 21 23
3 24 22 23
3 24 23 25
3 26 24 25
3 26 25 27
3 28 26 27
3 28 27 29
3 30 28 29
3 30 29 31
3 32 30 31
3 32 31 33
3 34 35 36
3 36 32 33
3 37 34 36
3 33 37 36
3 38 39 40
3 38 40 41
3 42 38 41
3 42 41 43
3 44 42 43
3 44 43 45
3 46 44 45
3 46 45 47
3 48 46 47
3 48 47 49
3 50 48 49
3 50 49 51
3 52 50 51
3 52 51 53
3 54 55 56
3 56 52 53
3 57 54 56
3 56 53 57
3 58 59 60
3 60 61 62
3 60 62 63
3 58 60 63
3 58 63 64
3 65 58 64
3 65 64 66
3 67 68 69
3 69 65 66
3 69 66 70
3 71 67 69
3 69 70 71
3 72 73 74
3 74 75 76
3 76 77 78
3 78 79 80
3 80 81 82
3 82 83 61
3 61 60 59
3 59 58 65
3 65 69 68
3 68 84 85
3 85 86 87
3 87 88 89
3 89 90 91
3 91 92 93
3 93 94 95
3 95 96 97
3 97 98 99
3 99 100 101
3 101 102 2
3 2 1 103
3 103 104 105
3 105 106 107
3 107 108 109
3 109 110 111
3 111 112 113
3 113 114 115
3 115 116 117
3 115 117 118
3 111 113 115
3 105 107 109
3 109 111 115
3 109 115 118
3 103 105 109
3 101 2 103
3 97 99 101
3 93 95 97
3 89 91 93
3 85 87 89
3 65 68 85
3 82 61 59
3 59 65 85
3 85 89 93
3 93 97 101
3 101 103 109
3 109 118 119
3 119 120 121
3 121 122 19
3 119 121 19
3 101 109 119
3 85 93 101
3 82 59 85
3 78 80 82
3 74 76 78
3 15 72 74
3 12 16 15
3 8 10 12
3 5 4 8
3 123 124 5
3 56 55 123
3 50 52 56
3 46 48 50
3 42 44 46
3 39 38 42
3 125 39 42
3 42 46 50
3 50 56 123
3 123 5 8
3 8 12 15
3 15 74 78
3 78 82 85
3 85 101 119
3 85 119 19
3 15 78 85
3 123 8 15
3 42 50 123
3 126 125 42
3 127 126 42
3 42 123 15
3 15 85 19
3 15 19 18
3 127 42 15
3 128 127 15
3 15 18 22
3 15 22 24
3 129 128 15
3 130 129 15
3 15 24 26
3 15 26 28
3 131 130 15
3 132 131 15
3 15 28 30
3 15 30 32
3 133 132 15
3 35 133 15
3 15 32 36
3 36 35 15
3 134 80 79
3 134 79 135
3 73 72 136
3 73 136 137
3 138 75 74
3 74 73 137
3 139 138 74
3 137 139 74
3 140 81 80
3 140 80 134
3 141 142 143
3 143 67 71
3 71 70 66
3 64 63 62
3 71 66 64
3 141 143 71
3 144 145 141
3 146 147 144
3 148 149 146
3 150 151 148
3 152 153 150
3 154 155 156
3 156 152 150
3 150 148 146
3 146 144 141
3 141 71 64
3 64 62 157
3 157 158 140
3 140 134 135
3 135 159 160
3 160 161 138
3 138 139 137
3 137 136 14
3 14 17 13
3 13 11 9
3 9 7 6
3 6 162 163
3 163 54 57
3 57 53 51
3 51 49 47
3 47 45 43
3 43 41 40
3 43 40 164
3 51 47 43
3 163 57 51
3 9 6 163
3 14 13 9
3 138 137 14
3 135 160 138
3 157 140 135
3 141 64 157
3 150 146 141
3 154 156 150
3 165 166 154
3 3 167 165
3 168 0 3
3 169 170 168
3 171 172 169
3 173 174 171
3 175 176 173
3 177 178 175
3 179 180 177
3 181 182 179
3 183 181 179
3 179 177 175
3 173 171 169
3 179 175 173
3 183 179 173
3 173 169 168
3 168 3 165
3 165 154 150
3 150 141 157
3 157 135 138
3 138 14 9
3 9 163 51
3 51 43 164
3 51 164 184
3 138 9 51
3 150 157 138
3 168 165 150
3 183 173 168
3 185 186 187
3 187 183 168
3 168 150 138
3 138 51 184
3 138 184 188
3 187 168 138
3 189 185 187
3 20 189 187
3 138 188 190
3 138 190 191
3 20 187 138
3 21 20 138
3 138 191 192
3 138 192 193
3 23 21 138
3 25 23 138
3 138 193 194
3 138 194 195
3 27 25 138
3 29 27 138
3 138 195 34
3 138 34 37
3 31 29 138
3 138 37 33
3 138 33 31
3 88 87 145
3 88 145 144
3 89 88 144
3 89 144 147
3 149 91 90
3 90 89 147
3 146 149 90
3 147 146 90
3 92 91 149
3 92 149 148
3 62 61 83
3 62 83 157
3 123 55 54
3 123 54 163
3 119 118 117
3 119 117 116
3 120 119 116
3 115 114 180
3 121 120 116
3 116 115 180
3 116 180 179
3 189 122 121
3 121 116 179
3 121 179 182
3 185 189 121
3 186 185 121
3 121 182 181
3 121 181 183
3 187 186 121
3 183 187 121
3 154 99 98
3 154 98 155
3 110 109 173
3 110 173 176
3 166 100 99
3 166 99 154
3 129 130 192
3 129 192 191
3 162 124 123
3 162 123 163
3 76 75 138
3 76 138 161
3 159 78 77
3 77 76 161
3 160 159 77
3 161 160 77
3 151 93 92
3 151 92 148
3 194 132 133
3 194 133 195
3 19 122 189
3 19 189 20
3 103 1 0
3 103 0 168
3 172 106 105
3 172 105 169
3 6 5 124
3 6 124 162
3 87 86 141
3 87 141 145
3 150 94 93
3 150 93 151
3 39 125 126
3 126 127 128
3 128 190 188
3 128 188 184
3 39 126 128
3 164 40 39
3 128 184 164
3 128 164 39
3 95 94 150
3 95 150 153
3 98 97 96
3 96 95 153
3 96 153 152
3 155 98 96
3 96 152 156
3 156 155 96
3 175 111 110
3 175 110 176
3 143 84 68
3 143 68 67
3 171 107 106
3 171 106 172
3 180 114 113
3 180 113 177
3 3 2 102
3 3 102 167
3 167 102 101
3 167 101 165
3 141 86 85
3 141 85 142
3 35 34 195
3 35 195 133
3 170 104 103
3 170 103 168
3 157 83 82
3 157 82 158
3 174 108 107
3 174 107 171
3 158 82 81
3 158 81 140
3 192 130 131
3 192 131 193
3 177 113 112
3 177 112 178
3 142 85 84
3 142 84 143
3 135 79 78
3 135 78 159
3 101 100 166
3 101 166 165
3 178 112 111
3 178 111 175
3 190 128 129
3 190 129 191
3 72 15 14
3 72 14 136
3 109 108 174
3 109 174 173
3 169 105 104
3 169 104 170
3 193 131 132
3 193 132 194
