ply
format ascii 1.0
comment Created by Blender 3.6.8 - www.blender.org
element vertex 206
property float x
property float y
property float z
element face 406
property list uchar uint vertex_indices
end_header
0.004718 0.000137 0.000000
0.004624 0.000183 0.000000
0.004431 0.000289 0.000000
0.004335 0.000349 0.000000
0.004232 0.000417 0.000000
0.002796 0.001451 0.000000
0.004809 0.000096 0.000000
0.005120 0.000004 0.000000
0.004978 0.000035 0.000000
0.005228 0.000006 0.000000
0.005179 0.000000 0.000000
0.005298 0.000040 0.000000
0.005265 0.000021 0.000000
0.005334 0.000057 0.000000
0.002535 0.001623 0.000000
0.001439 0.002306 0.000000
0.001126 0.002631 0.000000
0.000820 0.003036 0.000000
0.000493 0.003603 0.000000
0.000200 0.004330 0.000000
0.000000 0.005218 0.000000
0.000279 0.005997 0.000000
0.000295 0.006031 0.000000
0.000316 0.006064 0.000000
0.000342 0.006097 0.000000
0.000410 0.006164 0.000000
0.000503 0.006236 0.000000
0.000559 0.006275 0.000000
0.000622 0.006317 0.000000
0.000692 0.006362 0.000000
0.000769 0.006410 0.000000
0.000854 0.006463 0.000000
0.000948 0.006514 0.000000
0.001051 0.006560 0.000000
0.001281 0.006636 0.000000
0.001406 0.006667 0.000000
0.001536 0.006695 0.000000
0.001671 0.006720 0.000000
0.001810 0.006743 0.000000
0.002383 0.006825 0.000000
0.002526 0.006840 0.000000
0.002806 0.006840 0.000000
0.003080 0.006806 0.000000
0.003347 0.006747 0.000000
0.003478 0.006711 0.000000
0.003607 0.006672 0.000000
0.003734 0.006632 0.000000
0.004101 0.006509 0.000000
0.004208 0.006472 0.000000
0.004304 0.006438 0.000000
0.004393 0.006405 0.000000
0.004475 0.006373 0.000000
0.004551 0.006342 0.000000
0.004624 0.006311 0.000000
0.004693 0.006279 0.000000
0.004762 0.006246 0.000000
0.004831 0.006212 0.000000
0.005059 0.006091 0.000000
0.005480 0.000123 0.000000
0.005444 0.000107 0.000000
0.005370 0.000074 0.000000
0.005547 0.000161 0.000000
0.005515 0.000141 0.000000
0.005602 0.000207 0.000000
0.005576 0.000183 0.000000
0.005639 0.000265 0.000000
0.005623 0.000234 0.000000
0.005771 0.001954 0.000000
0.005651 0.000313 0.000000
0.005756 0.002910 0.000000
0.005160 0.006041 0.000000
0.005273 0.005987 0.000000
0.006025 0.005638 0.000000
0.006130 0.005587 0.000000
0.006220 0.005542 0.000000
0.006292 0.005504 0.000000
0.006351 0.005468 0.000000
0.006402 0.005426 0.000000
0.006448 0.005379 0.000000
0.006488 0.005326 0.000000
0.006523 0.005266 0.000000
0.006552 0.005200 0.000000
0.006599 0.005044 0.000000
0.006648 0.004628 0.000000
0.006646 0.004512 0.000000
0.006629 0.004408 0.000000
0.006597 0.004315 0.000000
0.006555 0.004231 0.000000
0.006504 0.004156 0.000000
0.006446 0.004088 0.000000
0.006385 0.004026 0.000000
0.006200 0.003860 0.000000
0.005769 0.003038 0.000000
0.005782 0.003097 0.000000
0.006147 0.003807 0.000000
0.005800 0.003153 0.000000
0.006101 0.003753 0.000000
0.006028 0.003648 0.000000
0.005878 0.003357 0.000000
0.005898 0.003405 0.000000
0.005996 0.003598 0.000000
0.005968 0.003549 0.000000
0.005920 0.003453 0.000000
0.006028 0.003648 0.150000
0.005996 0.003598 0.150000
0.005920 0.003453 0.150000
0.005968 0.003549 0.150000
0.004978 0.000035 0.150000
0.005120 0.000004 0.150000
0.000410 0.006164 0.150000
0.000342 0.006097 0.150000
0.000316 0.006064 0.150000
0.006446 0.004088 0.150000
0.006504 0.004156 0.150000
0.006555 0.004231 0.150000
0.005639 0.000265 0.150000
0.005651 0.000313 0.150000
0.005771 0.001954 0.150000
0.005756 0.002910 0.150000
0.005602 0.000207 0.150000
0.005623 0.000234 0.150000
0.005547 0.000161 0.150000
0.005576 0.000183 0.150000
0.005480 0.000123 0.150000
0.005515 0.000141 0.150000
0.005370 0.000074 0.150000
0.005444 0.000107 0.150000
0.005334 0.000057 0.150000
0.005228 0.000006 0.150000
0.005265 0.000021 0.150000
0.005298 0.000040 0.150000
0.005179 0.000000 0.150000
0.004809 0.000096 0.150000
0.004624 0.000183 0.150000
0.004718 0.000137 0.150000
0.004335 0.000349 0.150000
0.004431 0.000289 0.150000
0.002796 0.001451 0.150000
0.004232 0.000417 0.150000
0.001126 0.002631 0.150000
0.001439 0.002306 0.150000
0.002535 0.001623 0.150000
0.000493 0.003603 0.150000
0.000820 0.003036 0.150000
0.000000 0.005218 0.150000
0.000200 0.004330 0.150000
0.000295 0.006031 0.150000
0.000279 0.005997 0.150000
0.000503 0.006236 0.150000
0.000622 0.006317 0.150000
0.000559 0.006275 0.150000
0.000769 0.006410 0.150000
0.000692 0.006362 0.150000
0.000948 0.006514 0.150000
0.000854 0.006463 0.150000
0.001281 0.006636 0.150000
0.001051 0.006560 0.150000
0.001536 0.006695 0.150000
0.001406 0.006667 0.150000
0.001810 0.006743 0.150000
0.001671 0.006720 0.150000
0.002526 0.006840 0.150000
0.002383 0.006825 0.150000
0.003080 0.006806 0.150000
0.002806 0.006840 0.150000
0.003478 0.006711 0.150000
0.003347 0.006747 0.150000
0.003734 0.006632 0.150000
0.003607 0.006672 0.150000
0.004208 0.006472 0.150000
0.004101 0.006509 0.150000
0.004393 0.006405 0.150000
0.004304 0.006438 0.150000
0.004551 0.006342 0.150000
0.004475 0.006373 0.150000
0.004693 0.006279 0.150000
0.004624 0.006311 0.150000
0.004831 0.006212 0.150000
0.004762 0.006246 0.150000
0.005059 0.006091 0.150000
0.005769 0.003038 0.150000
0.005782 0.003097 0.150000
0.005160 0.006041 0.150000
0.006130 0.005587 0.150000
0.006025 0.005638 0.150000
0.005273 0.005987 0.150000
0.005800 0.003153 0.150000
0.006292 0.005504 0.150000
0.006220 0.005542 0.150000
0.006402 0.005426 0.150000
0.006351 0.005468 0.150000
0.006488 0.005326 0.150000
0.006448 0.005379 0.150000
0.006552 0.005200 0.150000
0.006523 0.005266 0.150000
0.006648 0.004628 0.150000
0.006599 0.005044 0.150000
0.006629 0.004408 0.150000
0.006646 0.004512 0.150000
0.006597 0.004315 0.150000
0.006200 0.003860 0.150000
0.006385 0.004026 0.150000
0.005878 0.003357 0.150000
0.005898 0.003405 0.150000
0.006147 0.003807 0.150000
0.006101 0.003753 0.150000
3 0 1 2
3 2 3 4
3 2 4 5
3 6 0 2
3 7 8 6
3 9 10 7
3 11 12 9
3 13 11 9
3 9 7 6
3 6 2 5
3 14 15 16
3 9 6 5
3 5 14 16
3 16 17 18
3 18 19 20
3 20 21 22
3 22 23 24
3 24 25 26
3 26 27 28
3 28 29 30
3 30 31 32
3 32 33 34
3 34 35 36
3 36 37 38
3 38 39 40
3 40 41 42
3 42 43 44
3 44 45 46
3 46 47 48
3 48 49 50
3 50 51 52
3 52 53 54
3 54 55 56
3 54 56 57
3 50 52 54
3 46 48 50
3 42 44 46
3 38 40 42
3 34 36 38
3 30 32 34
3 26 28 30
3 22 24 26
3 18 20 22
3 5 16 18
3 13 9 5
3 58 59 60
3 60 13 5
3 5 18 22
3 22 26 30
3 30 34 38
3 38 42 46
3 46 50 54
3 46 54 57
3 30 38 46
3 5 22 30
3 58 60 5
3 61 62 58
3 63 64 61
3 65 66 63
3 67 68 65
3 69 67 65
3 65 63 61
3 61 58 5
3 5 30 46
3 46 57 70
3 71 72 73
3 46 70 71
3 61 5 46
3 69 65 61
3 69 61 46
3 46 71 73
3 73 74 75
3 75 76 77
3 77 78 79
3 79 80 81
3 81 82 83
3 83 84 85
3 85 86 87
3 87 88 89
3 89 90 91
3 87 89 91
3 83 85 87
3 79 81 83
3 75 77 79
3 46 73 75
3 92 69 46
3 93 92 46
3 46 75 79
3 79 83 87
3 87 91 94
3 79 87 94
3 93 46 79
3 95 93 79
3 79 94 96
3 79 96 97
3 98 95 79
3 99 98 79
3 79 97 100
3 79 100 101
3 102 99 79
3 79 101 102
3 100 97 103
3 100 103 104
3 105 102 101
3 101 100 104
3 106 105 101
3 101 104 106
3 107 8 7
3 107 7 108
3 109 25 24
3 109 24 110
3 110 24 23
3 110 23 111
3 112 89 88
3 112 88 113
3 113 88 87
3 113 87 114
3 115 116 117
3 115 117 118
3 119 120 115
3 121 122 119
3 123 124 121
3 125 126 123
3 125 123 121
3 121 119 115
3 121 115 118
3 127 125 121
3 128 129 130
3 127 121 118
3 128 130 127
3 108 131 128
3 132 107 108
3 133 134 132
3 135 136 133
3 137 138 135
3 139 140 141
3 137 135 133
3 139 141 137
3 142 143 139
3 144 145 142
3 146 147 144
3 110 111 146
3 148 109 110
3 149 150 148
3 151 152 149
3 153 154 151
3 155 156 153
3 157 158 155
3 159 160 157
3 161 162 159
3 163 164 161
3 165 166 163
3 167 168 165
3 169 170 167
3 171 172 169
3 173 174 171
3 175 176 173
3 177 178 175
3 179 177 175
3 175 173 171
3 171 169 167
3 167 165 163
3 163 161 159
3 159 157 155
3 155 153 151
3 151 149 148
3 148 110 146
3 146 144 142
3 142 139 137
3 137 133 132
3 132 108 128
3 128 127 118
3 128 118 180
3 137 132 128
3 146 142 137
3 151 148 146
3 159 155 151
3 167 163 159
3 175 171 167
3 179 175 167
3 167 159 151
3 151 146 137
3 137 128 180
3 137 180 181
3 167 151 137
3 182 179 167
3 183 184 185
3 185 182 167
3 167 137 181
3 167 181 186
3 183 185 167
3 187 188 183
3 189 190 187
3 191 192 189
3 193 194 191
3 195 196 193
3 197 198 195
3 114 199 197
3 112 113 114
3 200 201 112
3 200 112 114
3 114 197 195
3 195 193 191
3 191 189 187
3 187 183 167
3 167 186 202
3 167 202 203
3 191 187 167
3 114 195 191
3 204 200 114
3 204 114 191
3 191 167 203
3 191 203 105
3 205 204 191
3 103 205 191
3 191 105 106
3 104 103 191
3 106 104 191
3 156 33 32
3 156 32 153
3 144 20 19
3 144 19 145
3 196 82 81
3 196 81 193
3 191 79 78
3 191 78 192
3 145 19 18
3 145 18 142
3 143 17 16
3 143 16 139
3 205 96 94
3 205 94 204
3 94 91 90
3 90 89 112
3 90 112 201
3 204 94 90
3 90 201 200
3 90 200 204
3 68 67 117
3 68 117 116
3 69 118 117
3 69 117 67
3 43 42 163
3 43 163 166
3 53 52 173
3 53 173 176
3 54 53 176
3 54 176 175
3 55 54 175
3 55 175 178
3 70 57 56
3 56 55 178
3 56 178 177
3 71 70 56
3 72 71 56
3 56 177 179
3 56 179 182
3 73 72 56
3 187 75 74
3 73 56 182
3 187 74 73
3 188 187 73
3 73 182 185
3 73 185 184
3 183 188 73
3 184 183 73
3 111 23 22
3 111 22 146
3 0 6 132
3 0 132 134
3 136 2 1
3 1 0 134
3 133 136 1
3 134 133 1
3 3 2 136
3 3 136 135
3 4 3 135
3 4 135 138
3 5 4 138
3 5 138 137
3 140 15 14
3 14 5 137
3 141 140 14
3 137 141 14
3 34 33 156
3 34 156 155
3 164 41 40
3 164 40 161
3 180 92 93
3 180 93 181
3 190 76 75
3 190 75 187
3 115 65 68
3 115 68 116
3 147 21 20
3 147 20 144
3 119 63 66
3 119 66 120
3 124 62 61
3 124 61 121
3 189 77 76
3 189 76 190
3 99 102 105
3 99 105 203
3 98 99 203
3 98 203 202
3 181 93 95
3 95 98 202
3 186 181 95
3 202 186 95
3 44 43 166
3 44 166 165
3 45 44 165
3 45 165 168
3 46 45 168
3 46 168 167
3 47 46 167
3 47 167 170
3 48 47 170
3 48 170 169
3 49 48 169
3 49 169 172
3 50 49 172
3 50 172 171
3 173 52 51
3 51 50 171
3 174 173 51
3 171 174 51
3 197 85 84
3 197 84 198
3 146 22 21
3 146 21 147
3 193 81 80
3 193 80 194
3 58 62 124
3 58 124 123
3 60 58 123
3 60 123 126
3 13 60 126
3 13 126 125
3 11 13 125
3 11 125 127
3 128 9 11
3 129 128 11
3 11 127 130
3 130 129 11
3 83 82 196
3 83 196 195
3 16 15 140
3 16 140 139
3 108 7 10
3 108 10 131
3 35 34 155
3 35 155 158
3 36 35 158
3 36 158 157
3 37 36 157
3 37 157 160
3 38 37 160
3 38 160 159
3 161 40 39
3 39 38 159
3 162 161 39
3 159 162 39
3 27 26 148
3 27 148 150
3 28 27 150
3 28 150 149
3 29 28 149
3 29 149 152
3 30 29 152
3 30 152 151
3 153 32 31
3 31 30 151
3 154 153 31
3 151 154 31
3 120 66 65
3 120 65 115
3 131 10 9
3 131 9 128
3 122 64 63
3 122 63 119
3 121 61 64
3 121 64 122
3 41 164 163
3 41 163 42
3 97 96 205
3 97 205 103
3 118 69 92
3 118 92 180
3 142 18 17
3 142 17 143
3 132 6 8
3 132 8 107
3 114 87 86
3 114 86 199
3 148 26 25
3 148 25 109
3 194 80 79
3 194 79 191
3 192 78 77
3 192 77 189
3 199 86 85
3 199 85 197
3 198 84 83
3 198 83 195
