ply
format ascii 1.0
comment Created by Blender 3.6.8 - www.blender.org
element vertex 260
property float x
property float y
property float z
element face 511
property list uchar uint vertex_indices
end_header
0.006990 0.001205 0.150000
0.007010 0.001286 0.150000
0.007028 0.001360 0.150000
0.007042 0.001430 0.150000
0.007048 0.001497 0.150000
0.007047 0.001565 0.150000
0.007036 0.001637 0.150000
0.007014 0.001714 0.150000
0.006978 0.001802 0.150000
0.006927 0.001900 0.150000
0.006826 0.002084 0.150000
0.006784 0.002158 0.150000
0.006744 0.002223 0.150000
0.006666 0.002336 0.150000
0.006622 0.002389 0.150000
0.006512 0.002497 0.150000
0.006443 0.002557 0.150000
0.006360 0.002625 0.150000
0.006262 0.002702 0.150000
0.006158 0.002777 0.150000
0.006058 0.002839 0.150000
0.005962 0.002892 0.150000
0.005782 0.002985 0.150000
0.005698 0.003033 0.150000
0.006968 0.001113 0.150000
0.005619 0.003087 0.150000
0.006905 0.000769 0.150000
0.006926 0.000886 0.150000
0.006946 0.001007 0.150000
0.005545 0.003151 0.150000
0.006876 0.000675 0.150000
0.006798 0.000544 0.150000
0.006840 0.000601 0.150000
0.006696 0.000467 0.150000
0.006750 0.000501 0.150000
0.006575 0.000418 0.150000
0.006638 0.000441 0.150000
0.006509 0.000395 0.150000
0.005475 0.003228 0.150000
0.006438 0.000370 0.150000
0.005410 0.003322 0.150000
0.006017 0.000180 0.150000
0.006208 0.000253 0.150000
0.006365 0.000338 0.150000
0.005349 0.003437 0.150000
0.005792 0.000125 0.150000
0.005538 0.000083 0.150000
0.005669 0.000102 0.150000
0.004637 0.000005 0.150000
0.005259 0.000052 0.150000
0.004284 0.000001 0.150000
0.004464 0.000001 0.150000
0.003910 0.000013 0.150000
0.004099 0.000005 0.150000
0.003526 0.000041 0.150000
0.003718 0.000026 0.150000
0.002161 0.000216 0.150000
0.005294 0.003576 0.150000
0.005046 0.004350 0.150000
0.004794 0.005400 0.150000
0.004763 0.005502 0.150000
0.004724 0.005600 0.150000
0.004677 0.005697 0.150000
0.004618 0.005792 0.150000
0.004546 0.005885 0.150000
0.004458 0.005977 0.150000
0.004231 0.006156 0.150000
0.003959 0.006321 0.150000
0.003815 0.006396 0.150000
0.003671 0.006466 0.150000
0.003529 0.006529 0.150000
0.003392 0.006586 0.150000
0.003150 0.006678 0.150000
0.002969 0.006738 0.150000
0.002910 0.006755 0.150000
0.002845 0.006766 0.150000
0.001618 0.006802 0.150000
0.001445 0.006787 0.150000
0.001401 0.006774 0.150000
0.001288 0.006737 0.150000
0.001215 0.006710 0.150000
0.001135 0.006676 0.150000
0.000970 0.006592 0.150000
0.000892 0.006541 0.150000
0.000822 0.006485 0.150000
0.000763 0.006423 0.150000
0.000720 0.006355 0.150000
0.000684 0.006286 0.150000
0.000579 0.006084 0.150000
0.000546 0.006016 0.150000
0.002034 0.000222 0.150000
0.001586 0.000239 0.150000
0.001693 0.000232 0.150000
0.001144 0.000329 0.150000
0.001371 0.000267 0.150000
0.000778 0.000498 0.150000
0.000937 0.000412 0.150000
0.000587 0.000655 0.150000
0.000648 0.000598 0.150000
0.000144 0.001157 0.150000
0.000526 0.000718 0.150000
0.000042 0.001318 0.150000
0.000084 0.001242 0.150000
0.000003 0.001459 0.150000
0.000016 0.001389 0.150000
0.000034 0.001924 0.150000
0.000000 0.001532 0.150000
0.000048 0.002553 0.150000
0.000038 0.002405 0.150000
0.000040 0.002066 0.150000
0.000093 0.002802 0.150000
0.000515 0.005948 0.150000
0.000487 0.005878 0.150000
0.000443 0.005732 0.150000
0.000419 0.005572 0.150000
0.000415 0.005487 0.150000
0.000406 0.004782 0.150000
0.000407 0.004711 0.150000
0.000411 0.004640 0.150000
0.000415 0.004569 0.150000
0.000422 0.004506 0.150000
0.000430 0.004454 0.150000
0.000438 0.004409 0.150000
0.000446 0.004368 0.150000
0.000125 0.002910 0.150000
0.000323 0.003442 0.150000
0.000453 0.004327 0.150000
0.000360 0.003574 0.150000
0.000457 0.004283 0.150000
0.000456 0.004167 0.150000
0.006638 0.000441 0.000000
0.006696 0.000467 0.000000
0.006575 0.000418 0.000000
0.006509 0.000395 0.000000
0.006365 0.000338 0.000000
0.006438 0.000370 0.000000
0.000937 0.000412 0.000000
0.001144 0.000329 0.000000
0.004637 0.000005 0.000000
0.005259 0.000052 0.000000
0.005538 0.000083 0.000000
0.005669 0.000102 0.000000
0.005792 0.000125 0.000000
0.001371 0.000267 0.000000
0.000892 0.006541 0.000000
0.000822 0.006485 0.000000
0.000093 0.002802 0.000000
0.000048 0.002553 0.000000
0.006208 0.000253 0.000000
0.004763 0.005502 0.000000
0.004724 0.005600 0.000000
0.000042 0.001318 0.000000
0.000084 0.001242 0.000000
0.002910 0.006755 0.000000
0.002845 0.006766 0.000000
0.006798 0.000544 0.000000
0.006840 0.000601 0.000000
0.000456 0.004167 0.000000
0.000360 0.003574 0.000000
0.006017 0.000180 0.000000
0.006744 0.002223 0.000000
0.006666 0.002336 0.000000
0.007028 0.001360 0.000000
0.007042 0.001430 0.000000
0.006968 0.001113 0.000000
0.006990 0.001205 0.000000
0.007010 0.001286 0.000000
0.006946 0.001007 0.000000
0.006905 0.000769 0.000000
0.006926 0.000886 0.000000
0.006262 0.002702 0.000000
0.006158 0.002777 0.000000
0.006360 0.002625 0.000000
0.006512 0.002497 0.000000
0.006443 0.002557 0.000000
0.000763 0.006423 0.000000
0.000720 0.006355 0.000000
0.000648 0.000598 0.000000
0.000778 0.000498 0.000000
0.006876 0.000675 0.000000
0.004458 0.005977 0.000000
0.004231 0.006156 0.000000
0.004677 0.005697 0.000000
0.004618 0.005792 0.000000
0.007036 0.001637 0.000000
0.007014 0.001714 0.000000
0.001586 0.000239 0.000000
0.006750 0.000501 0.000000
0.006622 0.002389 0.000000
0.004546 0.005885 0.000000
0.000415 0.004569 0.000000
0.000422 0.004506 0.000000
0.000411 0.004640 0.000000
0.000407 0.004711 0.000000
0.000406 0.004782 0.000000
0.000419 0.005572 0.000000
0.000415 0.005487 0.000000
0.005619 0.003087 0.000000
0.005545 0.003151 0.000000
0.006978 0.001802 0.000000
0.007048 0.001497 0.000000
0.007047 0.001565 0.000000
0.001618 0.006802 0.000000
0.001445 0.006787 0.000000
0.000487 0.005878 0.000000
0.000443 0.005732 0.000000
0.000038 0.002405 0.000000
0.000040 0.002066 0.000000
0.000034 0.001924 0.000000
0.000000 0.001532 0.000000
0.000003 0.001459 0.000000
0.006927 0.001900 0.000000
0.006826 0.002084 0.000000
0.006784 0.002158 0.000000
0.005475 0.003228 0.000000
0.005410 0.003322 0.000000
0.001401 0.006774 0.000000
0.001288 0.006737 0.000000
0.001215 0.006710 0.000000
0.001135 0.006676 0.000000
0.000515 0.005948 0.000000
0.000546 0.006016 0.000000
0.000579 0.006084 0.000000
0.000684 0.006286 0.000000
0.000970 0.006592 0.000000
0.000430 0.004454 0.000000
0.000438 0.004409 0.000000
0.000446 0.004368 0.000000
0.000453 0.004327 0.000000
0.000457 0.004283 0.000000
0.000587 0.000655 0.000000
0.000144 0.001157 0.000000
0.000526 0.000718 0.000000
0.003959 0.006321 0.000000
0.003815 0.006396 0.000000
0.003671 0.006466 0.000000
0.003392 0.006586 0.000000
0.003529 0.006529 0.000000
0.005349 0.003437 0.000000
0.001693 0.000232 0.000000
0.002034 0.000222 0.000000
0.002161 0.000216 0.000000
0.000016 0.001389 0.000000
0.005962 0.002892 0.000000
0.005782 0.002985 0.000000
0.005698 0.003033 0.000000
0.006058 0.002839 0.000000
0.002969 0.006738 0.000000
0.003150 0.006678 0.000000
0.000323 0.003442 0.000000
0.000125 0.002910 0.000000
0.004464 0.000001 0.000000
0.004284 0.000001 0.000000
0.004099 0.000005 0.000000
0.003910 0.000013 0.000000
0.003718 0.000026 0.000000
0.003526 0.000041 0.000000
0.004794 0.005400 0.000000
0.005046 0.004350 0.000000
0.005294 0.003576 0.000000
3 0 1 2
3 2 3 4
3 4 5 6
3 6 7 8
3 8 9 10
3 10 11 12
3 12 13 14
3 14 15 16
3 16 17 18
3 18 19 20
3 20 21 22
3 18 20 22
3 14 16 18
3 10 12 14
3 6 8 10
3 2 4 6
3 0 2 6
3 6 10 14
3 14 18 22
3 14 22 23
3 0 6 14
3 24 0 14
3 14 23 25
3 24 14 25
3 26 27 28
3 28 24 25
3 28 25 29
3 30 26 28
3 31 32 30
3 33 34 31
3 35 36 33
3 37 35 33
3 33 31 30
3 30 28 29
3 30 29 38
3 37 33 30
3 39 37 30
3 30 38 40
3 39 30 40
3 41 42 43
3 43 39 40
3 43 40 44
3 45 41 43
3 46 47 45
3 48 49 46
3 50 51 48
3 52 53 50
3 54 55 52
3 56 54 52
3 52 50 48
3 48 46 45
3 45 43 44
3 45 44 57
3 52 48 45
3 56 52 45
3 45 57 58
3 58 59 60
3 60 61 62
3 62 63 64
3 64 65 66
3 66 67 68
3 68 69 70
3 70 71 72
3 72 73 74
3 74 75 76
3 76 77 78
3 78 79 80
3 80 81 82
3 82 83 84
3 84 85 86
3 87 88 89
3 84 86 87
3 80 82 84
3 76 78 80
3 72 74 76
3 68 70 72
3 64 66 68
3 60 62 64
3 45 58 60
3 90 56 45
3 91 92 90
3 93 94 91
3 95 96 93
3 97 98 95
3 99 100 97
3 101 102 99
3 103 104 101
3 105 106 103
3 107 108 109
3 105 103 101
3 110 107 109
3 109 105 101
3 101 99 97
3 97 95 93
3 93 91 90
3 90 45 60
3 60 64 68
3 68 72 76
3 76 80 84
3 84 87 89
3 89 111 112
3 112 113 114
3 114 115 116
3 116 117 118
3 118 119 120
3 120 121 122
3 120 122 123
3 116 118 120
3 112 114 116
3 84 89 112
3 68 76 84
3 90 60 68
3 97 93 90
3 109 101 97
3 124 110 109
3 125 124 109
3 109 97 90
3 90 68 84
3 84 112 116
3 116 120 123
3 116 123 126
3 90 84 116
3 125 109 90
3 127 125 90
3 90 116 126
3 90 126 128
3 129 127 90
3 128 129 90
3 130 131 33
3 130 33 36
3 132 130 36
3 132 36 35
3 133 132 35
3 133 35 37
3 43 134 135
3 135 133 37
3 39 43 135
3 135 37 39
3 136 137 93
3 136 93 96
3 48 138 139
3 139 140 141
3 141 142 45
3 141 45 47
3 48 139 141
3 49 48 141
3 141 47 46
3 141 46 49
3 93 137 143
3 93 143 94
3 83 144 145
3 83 145 84
3 146 147 107
3 146 107 110
3 42 148 134
3 42 134 43
3 60 149 150
3 60 150 61
3 101 151 152
3 101 152 102
3 74 153 154
3 74 154 75
3 31 155 156
3 31 156 32
3 157 158 127
3 157 127 129
3 159 41 45
3 159 45 142
3 12 160 161
3 12 161 13
3 162 163 3
3 162 3 2
3 164 165 166
3 166 162 2
3 166 2 1
3 167 164 166
3 26 168 169
3 169 167 166
3 166 1 0
3 166 0 24
3 26 169 166
3 27 26 166
3 166 24 28
3 166 28 27
3 170 171 19
3 170 19 18
3 172 170 18
3 172 18 17
3 15 173 174
3 174 172 17
3 16 15 174
3 174 17 16
3 85 175 176
3 85 176 86
3 98 177 178
3 98 178 95
3 32 156 179
3 32 179 30
3 65 180 181
3 65 181 66
3 62 182 183
3 62 183 63
3 6 184 185
3 6 185 7
3 143 186 91
3 143 91 94
3 33 131 187
3 33 187 34
3 13 161 188
3 13 188 14
3 63 183 189
3 63 189 64
3 190 191 120
3 190 120 119
3 192 190 119
3 192 119 118
3 193 192 118
3 193 118 117
3 194 193 117
3 194 117 116
3 114 195 196
3 196 194 116
3 115 114 196
3 116 115 196
3 25 197 198
3 25 198 29
3 7 185 199
3 7 199 8
3 3 163 200
3 3 200 4
3 4 200 201
3 4 201 5
3 202 203 77
3 202 77 76
3 112 204 205
3 112 205 113
3 147 206 207
3 208 209 210
3 107 147 207
3 208 210 103
3 107 207 208
3 108 107 208
3 208 103 106
3 208 106 105
3 109 108 208
3 208 105 109
3 211 212 213
3 213 160 12
3 213 12 11
3 199 211 213
3 9 8 199
3 213 11 10
3 10 9 199
3 213 10 199
3 38 214 215
3 38 215 40
3 203 216 217
3 217 218 219
3 219 81 80
3 219 80 79
3 203 217 219
3 78 77 203
3 219 79 78
3 219 78 203
3 220 204 112
3 220 112 111
3 221 220 111
3 221 111 89
3 222 221 89
3 222 89 88
3 86 176 223
3 223 222 88
3 87 86 223
3 88 87 223
3 30 179 168
3 30 168 26
3 82 224 144
3 82 144 83
3 191 225 226
3 191 226 227
3 121 120 191
3 122 121 191
3 122 191 227
3 123 122 227
3 228 229 128
3 123 227 228
3 228 128 126
3 228 126 123
3 230 177 98
3 230 98 97
3 99 231 232
3 232 230 97
3 100 99 232
3 97 100 232
3 68 67 233
3 68 233 234
3 69 68 234
3 69 234 235
3 236 71 70
3 70 69 235
3 237 236 70
3 235 237 70
3 64 189 180
3 64 180 65
3 84 145 175
3 84 175 85
3 66 181 233
3 66 233 67
3 188 173 15
3 188 15 14
3 113 205 195
3 113 195 114
3 178 136 96
3 178 96 95
3 128 229 157
3 128 157 129
3 40 215 238
3 40 238 44
3 239 240 241
3 241 56 90
3 92 91 186
3 241 90 92
3 92 186 239
3 239 241 92
3 104 242 151
3 104 151 101
3 219 224 82
3 219 82 81
3 243 244 245
3 245 23 22
3 245 22 21
3 243 245 21
3 20 19 171
3 243 21 20
3 20 171 246
3 243 20 246
3 103 210 242
3 103 242 104
3 5 201 184
3 5 184 6
3 102 152 231
3 102 231 99
3 247 153 74
3 247 74 73
3 71 236 248
3 248 247 73
3 72 71 248
3 248 73 72
3 249 250 146
3 146 110 124
3 125 127 158
3 146 124 125
3 125 158 249
3 249 146 125
3 251 252 253
3 253 254 255
3 255 256 241
3 240 239 186
3 253 255 241
3 240 186 143
3 251 253 241
3 241 240 143
3 143 137 136
3 136 178 177
3 177 230 232
3 232 231 152
3 152 151 242
3 242 210 209
3 242 209 208
3 232 152 242
3 136 177 232
3 241 143 136
3 138 251 241
3 140 139 138
3 142 141 140
3 148 159 142
3 134 148 142
3 142 140 138
3 138 241 136
3 136 232 242
3 242 208 207
3 147 146 250
3 147 250 249
3 136 242 207
3 207 147 249
3 207 249 158
3 138 136 207
3 134 142 138
3 135 134 138
3 138 207 158
3 138 158 157
3 133 135 138
3 130 132 133
3 187 131 130
3 156 155 187
3 168 179 156
3 167 169 168
3 167 168 156
3 156 187 130
3 130 133 138
3 138 157 229
3 138 229 228
3 156 130 138
3 164 167 156
3 162 166 165
3 165 164 156
3 156 138 228
3 227 226 225
3 156 228 227
3 163 162 165
3 165 156 227
3 227 225 191
3 191 190 192
3 192 193 194
3 194 196 195
3 195 205 204
3 204 220 221
3 221 222 223
3 223 176 175
3 175 145 144
3 144 224 219
3 203 202 154
3 154 153 247
3 247 248 236
3 236 237 235
3 235 234 233
3 233 181 180
3 180 189 183
3 183 182 150
3 150 149 257
3 150 257 258
3 180 183 150
3 235 233 180
3 247 236 235
3 203 154 247
3 175 144 219
3 221 223 175
3 195 204 221
3 192 194 195
3 227 191 192
3 163 165 227
3 201 200 163
3 185 184 201
3 211 199 185
3 161 160 213
3 173 188 161
3 172 174 173
3 171 170 172
3 243 246 171
3 244 243 171
3 171 172 173
3 173 161 213
3 213 211 185
3 185 201 163
3 163 227 192
3 192 195 221
3 221 175 219
3 219 203 247
3 247 235 180
3 180 150 258
3 180 258 259
3 219 247 180
3 192 221 219
3 185 163 192
3 173 213 185
3 244 171 173
3 245 244 173
3 173 185 192
3 192 219 180
3 192 180 259
3 245 173 192
3 197 245 192
3 192 259 238
3 192 238 215
3 198 197 192
3 192 215 214
3 192 214 198
3 258 257 149
3 149 60 59
3 149 59 58
3 258 149 58
3 57 44 238
3 258 58 57
3 57 238 259
3 259 258 57
3 29 198 214
3 29 214 38
3 23 245 197
3 23 197 25
3 251 138 48
3 251 48 51
3 252 251 51
3 252 51 50
3 253 252 50
3 253 50 53
3 254 253 53
3 254 53 52
3 54 256 255
3 255 254 52
3 55 54 255
3 52 55 255
3 61 150 182
3 61 182 62
3 256 54 56
3 256 56 241
3 154 202 76
3 154 76 75
3 34 187 155
3 34 155 31
3 41 159 148
3 41 148 42
