ply
format ascii 1.0
comment Created by Blender 3.6.8 - www.blender.org
element vertex 140
property float x
property float y
property float z
element face 272
property list uchar uint vertex_indices
end_header
0.007878 0.004363 0.000000
0.007847 0.004135 0.000000
0.007748 0.003681 0.000000
0.007683 0.003457 0.000000
0.007609 0.003238 0.000000
0.007442 0.002818 0.000000
0.007352 0.002620 0.000000
0.007260 0.002431 0.000000
0.007073 0.002088 0.000000
0.006843 0.001766 0.000000
0.006201 0.001137 0.000000
0.005275 0.000434 0.000000
0.005155 0.000361 0.000000
0.005014 0.000293 0.000000
0.004688 0.000176 0.000000
0.003968 0.000026 0.000000
0.003635 0.000001 0.000000
0.003362 0.000014 0.000000
0.003116 0.000067 0.000000
0.002843 0.000163 0.000000
0.002547 0.000304 0.000000
0.002229 0.000496 0.000000
0.002063 0.000611 0.000000
0.001891 0.000740 0.000000
0.001535 0.001042 0.000000
0.001227 0.001357 0.000000
0.001011 0.001648 0.000000
0.000930 0.001789 0.000000
0.000802 0.002072 0.000000
0.000461 0.003058 0.000000
0.000395 0.003273 0.000000
0.000331 0.003506 0.000000
0.000005 0.005375 0.000000
0.000000 0.005533 0.000000
0.000055 0.005694 0.000000
0.000205 0.005889 0.000000
0.000718 0.006345 0.000000
0.001042 0.006586 0.000000
0.001386 0.006825 0.000000
0.001729 0.007053 0.000000
0.002053 0.007259 0.000000
0.002338 0.007436 0.000000
0.002566 0.007573 0.000000
0.002717 0.007662 0.000000
0.002771 0.007694 0.000000
0.004356 0.007456 0.000000
0.007894 0.004591 0.000000
0.007905 0.004806 0.000000
0.007921 0.005002 0.000000
0.007953 0.005342 0.000000
0.007938 0.005179 0.000000
0.007962 0.005630 0.000000
0.007962 0.005491 0.000000
0.007922 0.005886 0.000000
0.007950 0.005761 0.000000
0.007808 0.006129 0.000000
0.007876 0.006008 0.000000
0.007593 0.006376 0.000000
0.007715 0.006251 0.000000
0.006944 0.006867 0.000000
0.007289 0.006629 0.000000
0.005929 0.007364 0.000000
0.006237 0.007246 0.000000
0.005687 0.007417 0.000000
0.005798 0.007399 0.000000
0.005367 0.007436 0.000000
0.005584 0.007425 0.000000
0.004921 0.007448 0.000000
0.005143 0.007444 0.000000
0.004452 0.007451 0.000000
0.005155 0.000361 0.150000
0.005275 0.000434 0.150000
0.003635 0.000001 0.150000
0.003968 0.000026 0.150000
0.000000 0.005533 0.150000
0.000005 0.005375 0.150000
0.000055 0.005694 0.150000
0.007442 0.002818 0.150000
0.007352 0.002620 0.150000
0.007073 0.002088 0.150000
0.007260 0.002431 0.150000
0.004356 0.007456 0.150000
0.002771 0.007694 0.150000
0.002717 0.007662 0.150000
0.002566 0.007573 0.150000
0.002338 0.007436 0.150000
0.002053 0.007259 0.150000
0.001729 0.007053 0.150000
0.001386 0.006825 0.150000
0.001042 0.006586 0.150000
0.000718 0.006345 0.150000
0.000205 0.005889 0.150000
0.000331 0.003506 0.150000
0.000395 0.003273 0.150000
0.000461 0.003058 0.150000
0.000802 0.002072 0.150000
0.000930 0.001789 0.150000
0.001011 0.001648 0.150000
0.001227 0.001357 0.150000
0.001535 0.001042 0.150000
0.001891 0.000740 0.150000
0.002063 0.000611 0.150000
0.002229 0.000496 0.150000
0.002547 0.000304 0.150000
0.002843 0.000163 0.150000
0.003116 0.000067 0.150000
0.003362 0.000014 0.150000
0.004688 0.000176 0.150000
0.005014 0.000293 0.150000
0.006201 0.001137 0.150000
0.006843 0.001766 0.150000
0.007609 0.003238 0.150000
0.007683 0.003457 0.150000
0.007748 0.003681 0.150000
0.007847 0.004135 0.150000
0.007878 0.004363 0.150000
0.007894 0.004591 0.150000
0.007905 0.004806 0.150000
0.005143 0.007444 0.150000
0.004921 0.007448 0.150000
0.004452 0.007451 0.150000
0.007921 0.005002 0.150000
0.007938 0.005179 0.150000
0.007953 0.005342 0.150000
0.007962 0.005491 0.150000
0.007962 0.005630 0.150000
0.007950 0.005761 0.150000
0.007922 0.005886 0.150000
0.007876 0.006008 0.150000
0.007808 0.006129 0.150000
0.007715 0.006251 0.150000
0.007593 0.006376 0.150000
0.007289 0.006629 0.150000
0.006944 0.006867 0.150000
0.006237 0.007246 0.150000
0.005929 0.007364 0.150000
0.005798 0.007399 0.150000
0.005687 0.007417 0.150000
0.005584 0.007425 0.150000
0.005367 0.007436 0.150000
3 0 1 2
3 2 3 4
3 4 5 6
3 6 7 8
3 8 9 10
3 10 11 12
3 12 13 14
3 14 15 16
3 16 17 18
3 18 19 20
3 20 21 22
3 22 23 24
3 24 25 26
3 26 27 28
3 28 29 30
3 30 31 32
3 32 33 34
3 34 35 36
3 36 37 38
3 38 39 40
3 40 41 42
3 42 43 44
3 42 44 45
3 38 40 42
3 34 36 38
3 30 32 34
3 26 28 30
3 22 24 26
3 18 20 22
3 14 16 18
3 10 12 14
3 6 8 10
3 2 4 6
3 46 0 2
3 47 46 2
3 2 6 10
3 10 14 18
3 18 22 26
3 26 30 34
3 34 38 42
3 34 42 45
3 18 26 34
3 2 10 18
3 48 47 2
3 49 50 48
3 51 52 49
3 53 54 51
3 55 56 53
3 57 58 55
3 59 60 57
3 61 62 59
3 63 64 61
3 65 66 63
3 67 68 65
3 34 45 69
3 69 67 65
3 65 63 61
3 61 59 57
3 57 55 53
3 53 51 49
3 49 48 2
3 2 18 34
3 34 69 65
3 65 61 57
3 57 53 49
3 49 2 34
3 34 65 57
3 34 57 49
3 70 12 11
3 70 11 71
3 72 16 15
3 72 15 73
3 74 33 32
3 74 32 75
3 76 34 33
3 76 33 74
3 6 5 77
3 6 77 78
3 79 8 7
3 7 6 78
3 80 79 7
3 7 78 80
3 81 82 83
3 83 84 85
3 85 86 87
3 87 88 89
3 89 90 91
3 91 76 74
3 74 75 92
3 92 93 94
3 94 95 96
3 96 97 98
3 98 99 100
3 100 101 102
3 102 103 104
3 104 105 106
3 106 72 73
3 73 107 108
3 108 70 71
3 71 109 110
3 110 79 80
3 80 78 77
3 77 111 112
3 112 113 114
3 114 115 116
3 114 116 117
3 77 112 114
3 110 80 77
3 108 71 110
3 106 73 108
3 102 104 106
3 98 100 102
3 94 96 98
3 74 92 94
3 89 91 74
3 85 87 89
3 81 83 85
3 118 119 120
3 120 81 85
3 85 89 74
3 74 94 98
3 98 102 106
3 106 108 110
3 110 77 114
3 114 117 121
3 121 122 123
3 123 124 125
3 125 126 127
3 127 128 129
3 129 130 131
3 131 132 133
3 133 134 135
3 135 136 137
3 137 138 139
3 139 118 120
3 120 85 74
3 74 98 106
3 106 110 114
3 121 123 125
3 106 114 121
3 120 74 106
3 137 139 120
3 133 135 137
3 129 131 133
3 125 127 129
3 106 121 125
3 137 120 106
3 129 133 137
3 106 125 129
3 106 129 137
3 26 25 98
3 26 98 97
3 28 27 96
3 28 96 95
3 110 9 8
3 110 8 79
3 11 10 109
3 11 109 71
3 129 55 58
3 129 58 130
3 75 32 31
3 75 31 92
3 126 54 53
3 126 53 127
3 134 62 61
3 134 61 135
3 59 62 134
3 59 134 133
3 22 21 102
3 22 102 101
3 99 24 23
3 23 22 101
3 100 99 23
3 101 100 23
3 108 13 12
3 108 12 70
3 135 61 64
3 135 64 136
3 67 69 45
3 45 81 120
3 45 120 119
3 67 45 119
3 67 119 118
3 68 67 118
3 68 118 139
3 65 68 139
3 138 137 63
3 65 139 138
3 138 63 66
3 65 138 66
3 5 4 3
3 3 2 113
3 3 113 112
3 77 5 3
3 3 112 111
3 3 111 77
3 113 2 1
3 113 1 114
3 131 57 60
3 131 60 132
3 36 90 89
3 36 89 88
3 40 38 36
3 83 82 44
3 84 83 44
3 44 42 40
3 40 36 88
3 40 88 87
3 84 44 40
3 85 84 40
3 40 87 86
3 86 85 40
3 128 56 55
3 128 55 129
3 127 53 56
3 127 56 128
3 106 17 16
3 106 16 72
3 52 51 125
3 52 125 124
3 49 52 124
3 49 124 123
3 50 49 123
3 50 123 122
3 48 50 122
3 48 122 121
3 47 48 121
3 47 121 117
3 46 47 117
3 46 117 116
3 114 1 0
3 0 46 116
3 115 114 0
3 116 115 0
3 130 58 57
3 130 57 131
3 9 110 109
3 9 109 10
3 60 59 133
3 60 133 132
3 21 20 103
3 21 103 102
3 81 45 44
3 81 44 82
3 18 17 106
3 18 106 105
3 136 64 63
3 136 63 137
3 20 19 104
3 20 104 103
3 14 107 73
3 14 73 15
3 91 35 34
3 91 34 76
3 96 27 26
3 96 26 97
3 25 24 99
3 25 99 98
3 93 92 31
3 93 31 30
3 28 95 94
3 94 93 30
3 29 28 94
3 30 29 94
3 104 19 18
3 104 18 105
3 90 36 35
3 90 35 91
3 125 51 54
3 125 54 126
3 107 14 13
3 107 13 108
