ply
format ascii 1.0
comment Created by Blender 3.6.8 - www.blender.org
element vertex 162
property float x
property float y
property float z
element face 318
property list uchar uint vertex_indices
end_header
0.005272 0.010650 0.000000
0.007254 0.008743 0.000000
0.007395 0.008592 0.000000
0.007538 0.008429 0.000000
0.007611 0.008341 0.000000
0.007765 0.008147 0.000000
0.008065 0.007743 0.000000
0.008203 0.007545 0.000000
0.008366 0.007290 0.000000
0.008579 0.006932 0.000000
0.009223 0.005782 0.000000
0.010062 0.004198 0.000000
0.004828 0.011025 0.000000
0.005063 0.010834 0.000000
0.002611 0.012377 0.000000
0.002926 0.012240 0.000000
0.002389 0.012417 0.000000
0.002497 0.012407 0.000000
0.001818 0.012374 0.000000
0.002123 0.012414 0.000000
0.001366 0.012236 0.000000
0.001510 0.012293 0.000000
0.001119 0.012087 0.000000
0.001234 0.012168 0.000000
0.000957 0.011888 0.000000
0.001025 0.011994 0.000000
0.000850 0.011649 0.000000
0.000903 0.011771 0.000000
0.000744 0.011389 0.000000
0.000796 0.011521 0.000000
0.000552 0.010836 0.000000
0.000644 0.011116 0.000000
0.000345 0.010047 0.000000
0.000470 0.010557 0.000000
0.000113 0.009313 0.000000
0.000135 0.009389 0.000000
0.000288 0.009851 0.000000
0.000093 0.009234 0.000000
0.010524 0.003397 0.000000
0.000075 0.009141 0.000000
0.000034 0.008784 0.000000
0.000059 0.009033 0.000000
0.000000 0.008063 0.000000
0.000017 0.008525 0.000000
0.002538 0.004130 0.000000
0.000071 0.007908 0.000000
0.003515 0.003049 0.000000
0.003227 0.003313 0.000000
0.004578 0.002231 0.000000
0.004390 0.002369 0.000000
0.005390 0.001730 0.000000
0.004767 0.002101 0.000000
0.005914 0.001472 0.000000
0.005637 0.001604 0.000000
0.007690 0.000724 0.000000
0.007145 0.000941 0.000000
0.008448 0.000461 0.000000
0.008200 0.000541 0.000000
0.010533 0.000035 0.000000
0.008692 0.000390 0.000000
0.010865 0.000003 0.000000
0.010708 0.000015 0.000000
0.011121 0.000007 0.000000
0.011003 0.000000 0.000000
0.011292 0.000053 0.000000
0.011218 0.000024 0.000000
0.011582 0.000373 0.000000
0.011343 0.000095 0.000000
0.011708 0.000586 0.000000
0.011649 0.000473 0.000000
0.011788 0.000856 0.000000
0.011756 0.000713 0.000000
0.011782 0.001191 0.000000
0.011798 0.001015 0.000000
0.011654 0.001597 0.000000
0.011736 0.001385 0.000000
0.011468 0.001973 0.000000
0.011558 0.001800 0.000000
0.011298 0.002255 0.000000
0.011382 0.002122 0.000000
0.010805 0.002955 0.000000
0.001025 0.011994 0.150000
0.000957 0.011888 0.150000
0.002123 0.012414 0.150000
0.001818 0.012374 0.150000
0.011756 0.000713 0.150000
0.011788 0.000856 0.150000
0.002611 0.012377 0.150000
0.002926 0.012240 0.150000
0.011218 0.000024 0.150000
0.011292 0.000053 0.150000
0.011582 0.000373 0.150000
0.011649 0.000473 0.150000
0.002497 0.012407 0.150000
0.002389 0.012417 0.150000
0.004828 0.011025 0.150000
0.005063 0.010834 0.150000
0.007254 0.008743 0.150000
0.005272 0.010650 0.150000
0.007395 0.008592 0.150000
0.001510 0.012293 0.150000
0.001366 0.012236 0.150000
0.001234 0.012168 0.150000
0.001119 0.012087 0.150000
0.000903 0.011771 0.150000
0.000850 0.011649 0.150000
0.000796 0.011521 0.150000
0.000744 0.011389 0.150000
0.000644 0.011116 0.150000
0.000552 0.010836 0.150000
0.000470 0.010557 0.150000
0.000345 0.010047 0.150000
0.000288 0.009851 0.150000
0.000135 0.009389 0.150000
0.000113 0.009313 0.150000
0.000093 0.009234 0.150000
0.007611 0.008341 0.150000
0.007538 0.008429 0.150000
0.008065 0.007743 0.150000
0.007765 0.008147 0.150000
0.008366 0.007290 0.150000
0.008203 0.007545 0.150000
0.009223 0.005782 0.150000
0.008579 0.006932 0.150000
0.010062 0.004198 0.150000
0.000075 0.009141 0.150000
0.010524 0.003397 0.150000
0.000059 0.009033 0.150000
0.000034 0.008784 0.150000
0.000017 0.008525 0.150000
0.000000 0.008063 0.150000
0.000071 0.007908 0.150000
0.002538 0.004130 0.150000
0.003227 0.003313 0.150000
0.003515 0.003049 0.150000
0.004390 0.002369 0.150000
0.004578 0.002231 0.150000
0.004767 0.002101 0.150000
0.005390 0.001730 0.150000
0.005637 0.001604 0.150000
0.005914 0.001472 0.150000
0.007145 0.000941 0.150000
0.007690 0.000724 0.150000
0.008200 0.000541 0.150000
0.008448 0.000461 0.150000
0.008692 0.000390 0.150000
0.010533 0.000035 0.150000
0.010708 0.000015 0.150000
0.010865 0.000003 0.150000
0.011003 0.000000 0.150000
0.011121 0.000007 0.150000
0.011343 0.000095 0.150000
0.011708 0.000586 0.150000
0.011798 0.001015 0.150000
0.011782 0.001191 0.150000
0.011736 0.001385 0.150000
0.011654 0.001597 0.150000
0.011558 0.001800 0.150000
0.011468 0.001973 0.150000
0.011382 0.002122 0.150000
0.011298 0.002255 0.150000
0.010805 0.002955 0.150000
3 0 1 2
3 2 3 4
3 4 5 6
3 6 7 8
3 8 9 10
3 8 10 11
3 4 6 8
3 0 2 4
3 12 13 0
3 14 15 12
3 16 17 14
3 18 19 16
3 20 21 18
3 22 23 20
3 24 25 22
3 26 27 24
3 28 29 26
3 30 31 28
3 32 33 30
3 34 35 36
3 32 30 28
3 37 34 36
3 36 32 28
3 28 26 24
3 24 22 20
3 20 18 16
3 16 14 12
3 12 0 4
3 4 8 11
3 4 11 38
3 16 12 4
3 24 20 16
3 36 28 24
3 39 37 36
3 40 41 39
3 42 43 40
3 44 45 42
3 46 47 44
3 48 49 46
3 50 51 48
3 52 53 50
3 54 55 52
3 56 57 54
3 58 59 56
3 60 61 58
3 62 63 60
3 64 65 62
3 66 67 64
3 68 69 66
3 70 71 68
3 72 73 70
3 74 75 72
3 76 77 74
3 78 79 76
3 80 78 76
3 76 74 72
3 72 70 68
3 68 66 64
3 64 62 60
3 60 58 56
3 56 54 52
3 52 50 48
3 48 46 44
3 44 42 40
3 40 39 36
3 36 24 16
3 16 4 38
3 80 76 72
3 16 38 80
3 40 36 16
3 48 44 40
3 56 52 48
3 64 60 56
3 72 68 64
3 16 80 72
3 48 40 16
3 64 56 48
3 16 72 64
3 64 48 16
3 81 25 24
3 81 24 82
3 83 19 18
3 83 18 84
3 85 71 70
3 85 70 86
3 15 14 87
3 15 87 88
3 89 65 64
3 89 64 90
3 91 66 69
3 91 69 92
3 93 17 16
3 93 16 94
3 13 12 95
3 13 95 96
3 97 1 0
3 0 13 96
3 98 97 0
3 96 98 0
3 99 97 98
3 98 96 95
3 95 88 87
3 87 93 94
3 94 83 84
3 84 100 101
3 101 102 103
3 103 81 82
3 82 104 105
3 105 106 107
3 107 108 109
3 109 110 111
3 112 113 114
3 107 109 111
3 112 114 115
3 107 111 112
3 82 105 107
3 101 103 82
3 94 84 101
3 95 87 94
3 99 98 95
3 116 117 99
3 118 119 116
3 120 121 118
3 122 123 120
3 124 122 120
3 120 118 116
3 116 99 95
3 95 94 101
3 101 82 107
3 112 115 125
3 101 107 112
3 116 95 101
3 124 120 116
3 126 124 116
3 116 101 112
3 112 125 127
3 127 128 129
3 129 130 131
3 131 132 133
3 133 134 135
3 135 136 137
3 137 138 139
3 139 140 141
3 141 142 143
3 143 144 145
3 145 146 147
3 147 148 149
3 149 150 89
3 89 90 151
3 151 91 92
3 92 152 85
3 85 86 153
3 153 154 155
3 155 156 157
3 157 158 159
3 159 160 161
3 126 116 112
3 157 159 161
3 161 126 112
3 112 127 129
3 129 131 133
3 133 135 137
3 137 139 141
3 141 143 145
3 145 147 149
3 149 89 151
3 151 92 85
3 85 153 155
3 155 157 161
3 161 112 129
3 129 133 137
3 137 141 145
3 145 149 151
3 151 85 155
3 155 161 129
3 129 137 145
3 145 151 155
3 129 145 155
3 87 14 17
3 87 17 93
3 147 146 58
3 147 58 61
3 63 149 148
3 148 147 61
3 60 63 148
3 61 60 148
3 53 52 55
3 55 54 142
3 55 142 141
3 50 53 55
3 139 138 50
3 55 141 140
3 140 139 50
3 55 140 50
3 155 75 74
3 155 74 156
3 45 44 132
3 45 132 131
3 133 47 46
3 133 46 134
3 92 69 68
3 92 68 152
3 48 51 137
3 48 137 136
3 134 46 49
3 49 48 136
3 135 134 49
3 136 135 49
3 56 59 145
3 56 145 144
3 142 54 57
3 57 56 144
3 143 142 57
3 144 143 57
3 67 66 91
3 67 91 151
3 94 16 19
3 94 19 83
3 90 64 67
3 90 67 151
3 153 73 72
3 153 72 154
3 2 1 97
3 2 97 99
3 3 2 99
3 3 99 117
3 4 3 117
3 4 117 116
3 5 4 116
3 5 116 119
3 121 7 6
3 6 5 119
3 118 121 6
3 119 118 6
3 84 18 21
3 84 21 100
3 100 21 20
3 100 20 101
3 44 47 133
3 44 133 132
3 59 58 146
3 59 146 145
3 34 37 115
3 34 115 114
3 36 34 114
3 36 114 113
3 32 36 113
3 32 113 112
3 31 30 32
3 107 28 31
3 108 107 31
3 31 32 112
3 31 112 111
3 109 108 31
3 31 111 110
3 110 109 31
3 150 62 65
3 150 65 89
3 12 15 88
3 12 88 95
3 130 42 45
3 130 45 131
3 152 68 71
3 152 71 85
3 103 22 25
3 103 25 81
3 51 50 138
3 51 138 137
3 102 23 22
3 102 22 103
3 86 70 73
3 86 73 153
3 43 42 130
3 43 130 129
3 40 43 129
3 40 129 128
3 125 39 41
3 41 40 128
3 127 125 41
3 41 128 127
3 101 20 23
3 101 23 102
3 29 28 107
3 29 107 106
3 26 29 106
3 26 106 105
3 82 24 27
3 27 26 105
3 104 82 27
3 27 105 104
3 154 72 75
3 154 75 155
3 115 37 39
3 115 39 125
3 149 63 62
3 149 62 150
3 80 38 11
3 80 11 10
3 78 80 10
3 78 10 9
3 79 78 9
3 8 7 121
3 9 8 121
3 9 121 120
3 79 9 120
3 79 120 123
3 76 79 123
3 76 123 122
3 156 74 77
3 77 76 122
3 77 122 124
3 157 156 77
3 158 157 77
3 77 124 126
3 77 126 161
3 159 158 77
3 77 161 160
3 160 159 77
