ply
format ascii 1.0
comment Created by Blender 3.6.8 - www.blender.org
element vertex 162
property float x
property float y
property float z
element face 315
property list uchar uint vertex_indices
end_header
0.006250 0.000049 0.150000
0.006250 0.000049 0.000000
0.006374 0.000018 0.000000
0.006374 0.000018 0.150000
0.006942 0.006724 0.150000
0.006942 0.006724 0.000000
0.006871 0.006769 0.000000
0.006871 0.006769 0.150000
0.006192 0.007011 0.150000
0.006192 0.007011 0.000000
0.005925 0.007069 0.000000
0.005925 0.007069 0.150000
0.007809 0.004991 0.000000
0.007374 0.006063 0.000000
0.007326 0.006174 0.000000
0.007277 0.006277 0.000000
0.007277 0.006277 0.150000
0.007326 0.006174 0.150000
0.007923 0.004698 0.000000
0.008158 0.004046 0.000000
0.008039 0.004385 0.000000
0.008428 0.003211 0.000000
0.008333 0.003520 0.000000
0.008333 0.003520 0.150000
0.008428 0.003211 0.150000
0.008158 0.004046 0.150000
0.007374 0.006063 0.150000
0.008039 0.004385 0.150000
0.007809 0.004991 0.150000
0.007923 0.004698 0.150000
0.004854 0.006997 0.000000
0.004741 0.006973 0.000000
0.004741 0.006973 0.150000
0.004854 0.006997 0.150000
0.004965 0.007017 0.000000
0.004965 0.007017 0.150000
0.005075 0.007035 0.000000
0.005075 0.007035 0.150000
0.005383 0.007078 0.000000
0.005285 0.007064 0.000000
0.005183 0.007050 0.000000
0.005183 0.007050 0.150000
0.005474 0.007092 0.000000
0.005569 0.007101 0.150000
0.005569 0.007101 0.000000
0.005474 0.007092 0.150000
0.005285 0.007064 0.150000
0.005383 0.007078 0.150000
0.006688 0.006852 0.000000
0.006688 0.006852 0.150000
0.005678 0.007099 0.000000
0.005678 0.007099 0.150000
0.008658 0.000988 0.150000
0.008658 0.000988 0.000000
0.008698 0.001083 0.000000
0.008698 0.001083 0.150000
0.002982 0.005783 0.150000
0.002982 0.005783 0.000000
0.002869 0.005714 0.000000
0.002869 0.005714 0.150000
0.007068 0.006610 0.000000
0.007068 0.006610 0.150000
0.007177 0.006460 0.150000
0.007177 0.006460 0.000000
0.001183 0.005283 0.000000
0.000073 0.005196 0.000000
0.000073 0.005196 0.150000
0.001183 0.005283 0.150000
0.008726 0.001192 0.000000
0.008726 0.001192 0.150000
0.007820 0.000119 0.150000
0.007820 0.000119 0.000000
0.007929 0.000172 0.000000
0.007929 0.000172 0.150000
0.006454 0.006936 0.150000
0.006576 0.006894 0.150000
0.007007 0.006671 0.150000
0.008509 0.002913 0.150000
0.008470 0.003062 0.150000
0.008580 0.002603 0.150000
0.008545 0.002761 0.150000
0.008645 0.002257 0.150000
0.008613 0.002436 0.150000
0.008735 0.001642 0.150000
0.008709 0.001849 0.150000
0.008742 0.001318 0.150000
0.008548 0.000818 0.150000
0.008608 0.000901 0.150000
0.008402 0.000647 0.150000
0.008479 0.000735 0.150000
0.008131 0.000330 0.150000
0.008227 0.000438 0.150000
0.008318 0.000549 0.150000
0.004521 0.006911 0.150000
0.004313 0.006825 0.150000
0.004217 0.006770 0.150000
0.008032 0.000242 0.150000
0.007585 0.000051 0.150000
0.007706 0.000079 0.150000
0.007177 0.000014 0.150000
0.007322 0.000021 0.150000
0.006859 0.000007 0.150000
0.007023 0.000010 0.150000
0.006517 0.000002 0.150000
0.006684 0.000002 0.150000
0.006038 0.000157 0.150000
0.006140 0.000095 0.150000
0.005303 0.000845 0.150000
0.005939 0.000233 0.150000
0.001323 0.003951 0.150000
0.002766 0.005664 0.150000
0.000072 0.005187 0.150000
0.001086 0.004101 0.150000
0.000001 0.004748 0.150000
0.000000 0.004739 0.150000
0.000420 0.004498 0.150000
0.000636 0.004372 0.150000
0.000857 0.004241 0.150000
0.008608 0.000901 0.000000
0.007322 0.000021 0.000000
0.007585 0.000051 0.000000
0.004313 0.006825 0.000000
0.004217 0.006770 0.000000
0.000420 0.004498 0.000000
0.000000 0.004739 0.000000
0.000001 0.004748 0.000000
0.000072 0.005187 0.000000
0.000636 0.004372 0.000000
0.002766 0.005664 0.000000
0.000857 0.004241 0.000000
0.001086 0.004101 0.000000
0.001323 0.003951 0.000000
0.004521 0.006911 0.000000
0.006454 0.006936 0.000000
0.006576 0.006894 0.000000
0.007007 0.006671 0.000000
0.008470 0.003062 0.000000
0.008509 0.002913 0.000000
0.008545 0.002761 0.000000
0.008580 0.002603 0.000000
0.008613 0.002436 0.000000
0.008645 0.002257 0.000000
0.008709 0.001849 0.000000
0.008735 0.001642 0.000000
0.008742 0.001318 0.000000
0.008548 0.000818 0.000000
0.008479 0.000735 0.000000
0.008402 0.000647 0.000000
0.008318 0.000549 0.000000
0.008227 0.000438 0.000000
0.008131 0.000330 0.000000
0.006038 0.000157 0.000000
0.005939 0.000233 0.000000
0.005303 0.000845 0.000000
0.008032 0.000242 0.000000
0.006140 0.000095 0.000000
0.006517 0.000002 0.000000
0.006859 0.000007 0.000000
0.006684 0.000002 0.000000
0.007177 0.000014 0.000000
0.007023 0.000010 0.000000
0.007706 0.000079 0.000000
3 0 1 2
3 0 2 3
3 4 5 6
3 4 6 7
3 8 9 10
3 8 10 11
3 12 13 14
3 14 15 16
3 14 16 17
3 18 12 14
3 19 20 18
3 21 22 19
3 23 24 21
3 25 23 21
3 21 19 18
3 18 14 17
3 18 17 26
3 25 21 18
3 27 25 18
3 18 26 28
3 29 27 18
3 28 29 18
3 30 31 32
3 30 32 33
3 34 30 33
3 34 33 35
3 36 34 35
3 36 35 37
3 38 39 40
3 40 36 37
3 40 37 41
3 42 38 40
3 43 44 42
3 45 43 42
3 42 40 41
3 42 41 46
3 47 45 42
3 46 47 42
3 7 6 48
3 7 48 49
3 10 50 51
3 10 51 11
3 52 53 54
3 52 54 55
3 56 57 58
3 56 58 59
3 60 61 62
3 60 62 63
3 64 65 66
3 64 66 67
3 55 54 68
3 55 68 69
3 70 71 72
3 70 72 73
3 8 11 51
3 51 43 45
3 51 45 47
3 74 8 51
3 49 75 74
3 4 7 49
3 61 76 4
3 16 62 61
3 26 17 16
3 29 28 26
3 25 27 29
3 24 23 25
3 77 78 24
3 79 80 77
3 81 82 79
3 83 84 81
3 69 85 83
3 52 55 69
3 86 87 52
3 88 89 86
3 90 91 92
3 92 88 86
3 86 52 69
3 69 83 81
3 81 79 77
3 77 24 25
3 25 29 26
3 26 16 61
3 61 4 49
3 49 74 51
3 51 47 46
3 46 41 37
3 37 35 33
3 33 32 93
3 93 94 95
3 93 95 56
3 37 33 93
3 51 46 37
3 61 49 51
3 25 26 61
3 81 77 25
3 86 69 81
3 96 90 92
3 92 86 81
3 81 25 61
3 61 51 37
3 37 93 56
3 37 56 59
3 81 61 37
3 96 92 81
3 70 73 96
3 97 98 70
3 99 100 97
3 101 102 99
3 103 104 101
3 0 3 103
3 105 106 0
3 107 108 105
3 107 105 0
3 0 103 101
3 101 99 97
3 97 70 96
3 96 81 37
3 96 37 59
3 101 97 96
3 107 0 101
3 109 107 101
3 101 96 59
3 101 59 110
3 109 101 110
3 67 66 111
3 109 110 67
3 112 109 67
3 67 111 113
3 113 114 115
3 113 115 116
3 117 112 67
3 67 113 116
3 67 116 117
3 87 118 53
3 87 53 52
3 119 120 97
3 119 97 100
3 94 121 122
3 94 122 95
3 123 124 125
3 125 126 65
3 125 65 64
3 127 123 125
3 127 125 64
3 127 64 128
3 129 127 128
3 129 128 58
3 130 129 58
3 57 122 121
3 130 58 57
3 131 130 57
3 57 121 132
3 132 31 30
3 30 34 36
3 36 40 39
3 38 42 44
3 30 36 39
3 39 38 44
3 44 50 10
3 10 9 133
3 133 134 48
3 48 6 5
3 5 135 60
3 60 63 15
3 15 14 13
3 13 12 18
3 21 136 137
3 137 138 139
3 139 140 141
3 141 142 143
3 143 144 68
3 68 54 53
3 53 118 145
3 145 146 147
3 148 149 150
3 145 147 148
3 68 53 145
3 141 143 68
3 137 139 141
3 19 21 137
3 13 18 19
3 60 15 13
3 48 5 60
3 10 133 48
3 39 44 10
3 132 30 39
3 131 57 132
3 151 152 153
3 153 131 132
3 132 39 10
3 10 48 60
3 60 13 19
3 19 137 141
3 141 68 145
3 148 150 154
3 141 145 148
3 60 19 141
3 132 10 60
3 151 153 132
3 1 155 151
3 156 2 1
3 157 158 156
3 159 160 157
3 120 119 159
3 71 161 120
3 154 72 71
3 141 148 154
3 132 60 141
3 1 151 132
3 157 156 1
3 120 159 157
3 154 71 120
3 132 141 154
3 157 1 132
3 154 120 157
3 132 154 157
3 128 64 67
3 128 67 110
3 159 119 100
3 159 100 99
3 157 159 99
3 157 99 102
3 103 156 157
3 104 103 157
3 157 102 101
3 157 101 104
3 143 83 85
3 143 85 144
3 149 148 147
3 149 147 146
3 90 150 149
3 91 90 149
3 91 149 146
3 92 91 146
3 145 118 87
3 92 146 145
3 88 92 145
3 145 87 86
3 89 88 145
3 145 86 89
3 73 72 154
3 73 154 96
3 76 135 5
3 76 5 4
3 153 152 108
3 153 108 107
3 105 151 155
3 105 155 106
3 111 66 65
3 111 65 126
3 124 114 113
3 113 111 126
3 125 124 113
3 126 125 113
3 51 50 44
3 51 44 43
3 133 9 8
3 133 8 74
3 49 48 133
3 133 74 75
3 133 75 49
3 132 121 94
3 132 94 93
3 106 155 1
3 106 1 0
3 3 2 156
3 3 156 103
3 69 68 144
3 69 144 85
3 131 153 107
3 131 107 109
3 122 57 56
3 122 56 95
3 32 31 132
3 32 132 93
3 98 161 71
3 98 71 70
3 16 15 63
3 16 63 62
3 130 131 109
3 130 109 112
3 129 130 112
3 129 112 117
3 127 129 117
3 127 117 116
3 114 124 123
3 123 127 116
3 115 114 123
3 116 115 123
3 61 60 135
3 61 135 76
3 136 21 24
3 136 24 78
3 137 136 78
3 137 78 77
3 138 137 77
3 138 77 80
3 139 138 80
3 139 80 79
3 140 139 79
3 140 79 82
3 141 140 82
3 141 82 81
3 83 143 142
3 142 141 81
3 84 83 142
3 81 84 142
3 97 120 161
3 97 161 98
3 108 152 151
3 108 151 105
3 96 154 150
3 96 150 90
3 59 58 128
3 59 128 110
