ply
format ascii 1.0
comment Created by Blender 3.6.8 - www.blender.org
element vertex 174
property float x
property float y
property float z
element face 340
property list uchar uint vertex_indices
end_header
0.001852 0.000001 0.150000
0.001852 0.000001 0.000000
0.002350 0.000019 0.000000
0.002350 0.000019 0.150000
0.004551 0.010300 0.150000
0.004551 0.010300 0.000000
0.004052 0.010241 0.000000
0.004052 0.010241 0.150000
0.006319 0.010052 0.150000
0.006319 0.010052 0.000000
0.006181 0.010159 0.000000
0.006181 0.010159 0.150000
0.006438 0.009920 0.150000
0.006438 0.009920 0.000000
0.008665 0.004375 0.000000
0.008620 0.004710 0.000000
0.008620 0.004710 0.150000
0.008665 0.004375 0.150000
0.003590 0.010141 0.000000
0.003590 0.010141 0.150000
0.008413 0.002616 0.000000
0.008472 0.002684 0.000000
0.008472 0.002684 0.150000
0.008413 0.002616 0.150000
0.008198 0.002383 0.000000
0.008275 0.002471 0.000000
0.008275 0.002471 0.150000
0.008198 0.002383 0.150000
0.001098 0.008083 0.000000
0.000685 0.006835 0.000000
0.000685 0.006835 0.150000
0.001098 0.008083 0.150000
0.001436 0.000042 0.150000
0.001436 0.000042 0.000000
0.006973 0.008937 0.000000
0.006644 0.009588 0.000000
0.006544 0.009765 0.000000
0.006544 0.009765 0.150000
0.006644 0.009588 0.150000
0.006973 0.008937 0.150000
0.007114 0.008686 0.150000
0.007114 0.008686 0.000000
0.007282 0.008419 0.150000
0.007583 0.007944 0.000000
0.007448 0.008165 0.000000
0.007282 0.008419 0.000000
0.007448 0.008165 0.150000
0.007692 0.007748 0.000000
0.007780 0.007569 0.150000
0.007780 0.007569 0.000000
0.007692 0.007748 0.150000
0.007583 0.007944 0.150000
0.006578 0.000754 0.000000
0.006578 0.000754 0.150000
0.006276 0.000660 0.150000
0.006276 0.000660 0.000000
0.001257 0.000086 0.150000
0.001257 0.000086 0.000000
0.007310 0.001245 0.000000
0.007401 0.001326 0.000000
0.007401 0.001326 0.150000
0.007310 0.001245 0.150000
0.007211 0.001162 0.000000
0.007211 0.001162 0.150000
0.007103 0.001074 0.000000
0.007103 0.001074 0.150000
0.006854 0.000892 0.150000
0.006854 0.000892 0.000000
0.006983 0.000981 0.000000
0.006983 0.000981 0.150000
0.001606 0.008829 0.000000
0.001211 0.008311 0.000000
0.001211 0.008311 0.150000
0.001606 0.008829 0.150000
0.003184 0.009992 0.150000
0.003184 0.009992 0.000000
0.003007 0.009898 0.000000
0.003007 0.009898 0.150000
0.001685 0.008910 0.150000
0.001685 0.008910 0.000000
0.007913 0.007230 0.150000
0.008671 0.004090 0.150000
0.008671 0.004230 0.150000
0.008660 0.003794 0.150000
0.008666 0.003947 0.150000
0.008646 0.003232 0.150000
0.008651 0.003424 0.150000
0.008654 0.003622 0.150000
0.008630 0.003074 0.150000
0.008568 0.002844 0.150000
0.008604 0.002947 0.150000
0.008524 0.002758 0.150000
0.006017 0.010240 0.150000
0.005821 0.010293 0.150000
0.005587 0.010317 0.150000
0.002850 0.009789 0.150000
0.002708 0.009678 0.150000
0.007565 0.001491 0.150000
0.007791 0.001773 0.150000
0.008117 0.002277 0.150000
0.002570 0.009575 0.150000
0.001968 0.009144 0.150000
0.001867 0.009067 0.150000
0.006719 0.000817 0.150000
0.006115 0.000625 0.150000
0.004979 0.000470 0.150000
0.005946 0.000595 0.150000
0.002856 0.000077 0.150000
0.003353 0.000160 0.150000
0.004761 0.000437 0.150000
0.002604 0.000044 0.150000
0.001772 0.008989 0.150000
0.000380 0.005456 0.150000
0.000319 0.005230 0.150000
0.000191 0.004567 0.150000
0.000078 0.003723 0.150000
0.000036 0.003270 0.150000
0.000009 0.002816 0.150000
0.000013 0.001965 0.150000
0.000050 0.001598 0.150000
0.000117 0.001290 0.150000
0.000216 0.001054 0.150000
0.000445 0.000705 0.150000
0.000682 0.000429 0.150000
0.000810 0.000317 0.150000
0.000946 0.000223 0.150000
0.001095 0.000146 0.150000
0.000682 0.000429 0.000000
0.000810 0.000317 0.000000
0.000050 0.001598 0.000000
0.000117 0.001290 0.000000
0.008604 0.002947 0.000000
0.008630 0.003074 0.000000
0.000946 0.000223 0.000000
0.001095 0.000146 0.000000
0.007913 0.007230 0.000000
0.006719 0.000817 0.000000
0.008524 0.002758 0.000000
0.008568 0.002844 0.000000
0.004979 0.000470 0.000000
0.005946 0.000595 0.000000
0.006115 0.000625 0.000000
0.002856 0.000077 0.000000
0.003353 0.000160 0.000000
0.004761 0.000437 0.000000
0.002604 0.000044 0.000000
0.005821 0.010293 0.000000
0.005587 0.010317 0.000000
0.000445 0.000705 0.000000
0.007565 0.001491 0.000000
0.001772 0.008989 0.000000
0.001867 0.009067 0.000000
0.001968 0.009144 0.000000
0.002570 0.009575 0.000000
0.002708 0.009678 0.000000
0.002850 0.009789 0.000000
0.000013 0.001965 0.000000
0.008671 0.004230 0.000000
0.008671 0.004090 0.000000
0.008666 0.003947 0.000000
0.008660 0.003794 0.000000
0.008654 0.003622 0.000000
0.008651 0.003424 0.000000
0.008646 0.003232 0.000000
0.008117 0.002277 0.000000
0.007791 0.001773 0.000000
0.006017 0.010240 0.000000
0.000216 0.001054 0.000000
0.000009 0.002816 0.000000
0.000036 0.003270 0.000000
0.000078 0.003723 0.000000
0.000191 0.004567 0.000000
0.000319 0.005230 0.000000
0.000380 0.005456 0.000000
3 0 1 2
3 0 2 3
3 4 5 6
3 4 6 7
3 8 9 10
3 8 10 11
3 12 13 9
3 12 9 8
3 14 15 16
3 14 16 17
3 7 6 18
3 7 18 19
3 20 21 22
3 20 22 23
3 24 25 20
3 26 27 24
3 20 23 26
3 20 26 24
3 28 29 30
3 28 30 31
3 32 33 1
3 32 1 0
3 34 35 36
3 36 37 38
3 36 38 39
3 34 36 39
3 34 39 40
3 41 34 40
3 41 40 42
3 43 44 45
3 45 41 42
3 45 42 46
3 47 43 45
3 48 49 47
3 50 48 47
3 47 45 46
3 51 50 47
3 46 51 47
3 52 53 54
3 52 54 55
3 56 57 33
3 56 33 32
3 58 59 60
3 58 60 61
3 62 58 61
3 62 61 63
3 64 62 63
3 64 63 65
3 66 67 68
3 68 64 65
3 69 66 68
3 65 69 68
3 70 71 72
3 70 72 73
3 74 75 76
3 74 76 77
3 78 79 70
3 78 70 73
3 17 16 80
3 80 48 50
3 50 51 46
3 50 46 42
3 17 80 50
3 81 82 17
3 83 84 81
3 85 86 87
3 83 81 17
3 88 85 87
3 87 83 17
3 17 50 42
3 17 42 40
3 88 87 17
3 89 90 88
3 22 91 89
3 26 23 22
3 26 22 89
3 89 88 17
3 17 40 39
3 39 38 37
3 37 12 8
3 8 11 92
3 92 93 94
3 94 4 7
3 7 19 74
3 74 77 95
3 74 95 96
3 94 7 74
3 8 92 94
3 39 37 8
3 89 17 39
3 27 26 89
3 97 98 99
3 27 89 39
3 60 97 99
3 99 27 39
3 39 8 94
3 94 74 96
3 100 101 102
3 94 96 100
3 99 39 94
3 61 60 99
3 65 63 61
3 66 69 65
3 53 103 66
3 104 54 53
3 105 106 104
3 107 108 109
3 105 104 53
3 110 107 109
3 109 105 53
3 53 66 65
3 65 61 99
3 99 94 100
3 100 102 111
3 111 78 73
3 73 72 31
3 31 30 112
3 112 113 114
3 114 115 116
3 116 117 118
3 118 119 120
3 120 121 122
3 122 123 124
3 124 125 126
3 126 56 32
3 32 0 3
3 3 110 109
3 109 53 65
3 65 99 100
3 100 111 73
3 73 31 112
3 112 114 116
3 116 118 120
3 120 122 124
3 124 126 32
3 32 3 109
3 109 65 100
3 100 73 112
3 112 116 120
3 120 124 32
3 32 109 100
3 100 112 120
3 100 120 32
3 123 127 128
3 123 128 124
3 119 129 130
3 119 130 120
3 19 18 75
3 19 75 74
3 37 36 13
3 37 13 12
3 90 131 132
3 90 132 88
3 125 133 134
3 125 134 126
3 80 135 49
3 80 49 48
3 72 71 28
3 72 28 31
3 103 136 67
3 103 67 66
3 91 137 138
3 91 138 89
3 139 140 141
3 141 55 54
3 141 54 104
3 139 141 104
3 139 104 106
3 142 143 144
3 144 139 106
3 144 106 105
3 145 142 144
3 3 2 145
3 110 3 145
3 145 144 105
3 145 105 109
3 107 110 145
3 145 109 108
3 108 107 145
3 93 146 147
3 93 147 94
3 148 127 123
3 148 123 122
3 147 5 4
3 147 4 94
3 59 149 97
3 59 97 60
3 150 79 78
3 150 78 111
3 151 150 111
3 151 111 102
3 152 151 102
3 152 102 101
3 153 152 101
3 153 101 100
3 154 153 100
3 154 100 96
3 77 76 155
3 155 154 96
3 95 77 155
3 96 95 155
3 16 15 135
3 16 135 80
3 118 156 129
3 118 129 119
3 22 21 137
3 22 137 91
3 15 14 157
3 157 158 159
3 157 159 160
3 135 15 157
3 47 49 135
3 44 43 47
3 45 44 47
3 47 135 157
3 157 160 161
3 161 162 163
3 163 132 131
3 131 138 137
3 137 21 20
3 137 20 25
3 163 131 137
3 47 157 161
3 161 163 137
3 137 25 24
3 164 165 149
3 161 137 24
3 164 149 59
3 161 24 164
3 45 47 161
3 41 45 161
3 161 164 59
3 59 58 62
3 62 64 68
3 68 67 136
3 136 52 55
3 55 141 140
3 55 140 139
3 68 136 55
3 59 62 68
3 41 161 59
3 34 41 59
3 59 68 55
3 59 55 139
3 36 34 59
3 9 13 36
3 166 10 9
3 147 146 166
3 6 5 147
3 75 18 6
3 155 76 75
3 154 155 75
3 75 6 147
3 147 166 9
3 9 36 59
3 59 139 144
3 142 145 2
3 2 1 33
3 33 57 134
3 134 133 128
3 128 127 148
3 148 167 130
3 130 129 156
3 156 168 169
3 169 170 171
3 171 172 173
3 173 29 28
3 28 71 70
3 70 79 150
3 150 151 152
3 153 154 75
3 150 152 153
3 28 70 150
3 171 173 28
3 156 169 171
3 148 130 156
3 134 128 148
3 2 33 134
3 144 142 2
3 9 59 144
3 75 147 9
3 150 153 75
3 171 28 150
3 148 156 171
3 2 134 148
3 9 144 2
3 150 75 9
3 148 171 150
3 9 2 148
3 148 150 9
3 92 166 146
3 92 146 93
3 124 128 133
3 124 133 125
3 167 148 122
3 167 122 121
3 120 130 167
3 120 167 121
3 30 29 173
3 172 171 114
3 30 173 172
3 112 30 172
3 172 114 113
3 172 113 112
3 53 52 136
3 53 136 103
3 126 134 57
3 126 57 56
3 117 168 156
3 117 156 118
3 11 10 166
3 11 166 92
3 160 159 158
3 132 163 161
3 160 158 157
3 132 161 160
3 85 88 132
3 86 85 132
3 132 160 157
3 157 14 17
3 157 17 82
3 86 132 157
3 87 86 157
3 157 82 81
3 157 81 84
3 83 87 157
3 157 84 83
3 169 168 117
3 169 117 116
3 114 171 170
3 170 169 116
3 115 114 170
3 170 116 115
3 89 138 131
3 89 131 90
3 164 24 27
3 164 27 99
3 97 149 164
3 164 99 98
3 164 98 97
