ply
format ascii 1.0
comment Created by Blender 3.6.8 - www.blender.org
element vertex 316
property float x
property float y
property float z
element face 623
property list uchar uint vertex_indices
end_header
0.003485 0.001247 0.150000
0.003485 0.001247 0.000000
0.003588 0.001215 0.000000
0.003588 0.001215 0.150000
0.003472 0.008040 0.150000
0.003472 0.008040 0.000000
0.003439 0.007986 0.000000
0.003439 0.007986 0.150000
0.005091 0.000394 0.150000
0.005091 0.000394 0.000000
0.005183 0.000355 0.000000
0.005183 0.000355 0.150000
0.004775 0.000658 0.000000
0.004962 0.000476 0.000000
0.004962 0.000476 0.150000
0.004775 0.000658 0.150000
0.004420 0.009065 0.000000
0.004294 0.008956 0.000000
0.004294 0.008956 0.150000
0.004420 0.009065 0.150000
0.005203 0.009316 0.150000
0.005203 0.009316 0.000000
0.005133 0.009347 0.000000
0.005133 0.009347 0.150000
0.006321 0.006364 0.000000
0.006243 0.007258 0.000000
0.006222 0.007441 0.000000
0.006194 0.007615 0.000000
0.006194 0.007615 0.150000
0.006222 0.007441 0.150000
0.006400 0.005773 0.150000
0.006400 0.005773 0.000000
0.006243 0.007258 0.150000
0.006321 0.006364 0.150000
0.006105 0.007948 0.150000
0.006105 0.007948 0.000000
0.006038 0.008115 0.000000
0.006038 0.008115 0.150000
0.007304 0.001436 0.150000
0.007304 0.001436 0.000000
0.007341 0.001583 0.000000
0.007341 0.001583 0.150000
0.004714 0.000708 0.150000
0.004714 0.000708 0.000000
0.000702 0.000919 0.150000
0.000702 0.000919 0.000000
0.000783 0.000905 0.000000
0.000783 0.000905 0.150000
0.003121 0.001267 0.000000
0.003294 0.001274 0.000000
0.003294 0.001274 0.150000
0.003121 0.001267 0.150000
0.003387 0.001265 0.150000
0.003387 0.001265 0.000000
0.006144 0.000116 0.000000
0.006281 0.000075 0.000000
0.006403 0.000039 0.000000
0.006512 0.000013 0.000000
0.006512 0.000013 0.150000
0.006403 0.000039 0.150000
0.006281 0.000075 0.150000
0.005990 0.000161 0.000000
0.006144 0.000116 0.150000
0.005819 0.000204 0.000000
0.005990 0.000161 0.150000
0.005300 0.000317 0.000000
0.005446 0.000280 0.000000
0.005628 0.000244 0.000000
0.005819 0.000204 0.150000
0.005300 0.000317 0.150000
0.005446 0.000280 0.150000
0.005628 0.000244 0.150000
0.005278 0.009264 0.150000
0.005278 0.009264 0.000000
0.007533 0.002205 0.150000
0.007533 0.002205 0.000000
0.007530 0.002327 0.000000
0.007530 0.002327 0.150000
0.005703 0.008739 0.150000
0.005703 0.008739 0.000000
0.005527 0.008994 0.000000
0.005527 0.008994 0.150000
0.003730 0.008286 0.150000
0.003543 0.008125 0.150000
0.003506 0.008086 0.150000
0.003379 0.007836 0.150000
0.003350 0.007736 0.150000
0.003302 0.007549 0.150000
0.003285 0.007478 0.150000
0.003271 0.007417 0.150000
0.003260 0.007364 0.150000
0.003250 0.007315 0.150000
0.003242 0.007266 0.150000
0.003135 0.006521 0.150000
0.003113 0.006392 0.150000
0.003853 0.008413 0.150000
0.003914 0.008483 0.150000
0.003962 0.008540 0.150000
0.003089 0.006261 0.150000
0.003023 0.005952 0.150000
0.003011 0.005882 0.150000
0.004001 0.008587 0.150000
0.003002 0.005822 0.150000
0.002987 0.005718 0.150000
0.004031 0.008625 0.150000
0.004055 0.008656 0.150000
0.002979 0.005669 0.150000
0.004114 0.008738 0.150000
0.004095 0.008711 0.150000
0.004076 0.008684 0.150000
0.002970 0.005620 0.150000
0.004137 0.008767 0.150000
0.004198 0.008845 0.150000
0.004164 0.008803 0.150000
0.004241 0.008898 0.150000
0.004566 0.009163 0.150000
0.004871 0.009308 0.150000
0.004719 0.009246 0.150000
0.005071 0.009355 0.150000
0.005010 0.009346 0.150000
0.005357 0.009191 0.150000
0.002939 0.005510 0.150000
0.002916 0.005444 0.150000
0.006678 0.004552 0.150000
0.007508 0.002474 0.150000
0.007397 0.002863 0.150000
0.007496 0.002002 0.150000
0.007521 0.002098 0.150000
0.002885 0.005367 0.150000
0.007176 0.000650 0.150000
0.007190 0.000700 0.150000
0.002846 0.005278 0.150000
0.002707 0.004970 0.150000
0.006913 0.000152 0.150000
0.007158 0.000606 0.150000
0.006775 0.000029 0.150000
0.006847 0.000077 0.150000
0.006610 0.000001 0.150000
0.006697 0.000005 0.150000
0.002680 0.004911 0.150000
0.002653 0.004857 0.150000
0.002229 0.004174 0.150000
0.002061 0.003979 0.150000
0.002011 0.003931 0.150000
0.001955 0.003883 0.150000
0.005019 0.000434 0.150000
0.001899 0.003837 0.150000
0.001844 0.003795 0.150000
0.001791 0.003758 0.150000
0.001739 0.003723 0.150000
0.004476 0.000850 0.150000
0.004405 0.000884 0.150000
0.001686 0.003692 0.150000
0.001632 0.003663 0.150000
0.004337 0.000914 0.150000
0.003802 0.001121 0.150000
0.003983 0.001046 0.150000
0.003696 0.001170 0.150000
0.001518 0.003610 0.150000
0.001388 0.003562 0.150000
0.001237 0.003515 0.150000
0.001074 0.003474 0.150000
0.000996 0.003458 0.150000
0.000920 0.003445 0.150000
0.003040 0.001257 0.150000
0.000848 0.003434 0.150000
0.002816 0.001217 0.150000
0.002888 0.001230 0.150000
0.002963 0.001243 0.150000
0.000780 0.003424 0.150000
0.000659 0.003409 0.150000
0.000608 0.003402 0.150000
0.002746 0.001208 0.150000
0.002610 0.001203 0.150000
0.002678 0.001205 0.150000
0.000958 0.000896 0.150000
0.001133 0.000903 0.150000
0.002542 0.001197 0.150000
0.000564 0.003395 0.150000
0.000528 0.003388 0.150000
0.000501 0.003379 0.150000
0.000434 0.003343 0.150000
0.000026 0.003061 0.150000
0.000021 0.002997 0.150000
0.000014 0.002912 0.150000
0.000008 0.002808 0.150000
0.000003 0.002689 0.150000
0.000000 0.002559 0.150000
0.000001 0.002421 0.150000
0.000008 0.002277 0.150000
0.000042 0.001989 0.150000
0.000072 0.001850 0.150000
0.000112 0.001720 0.150000
0.000389 0.001163 0.150000
0.000429 0.001101 0.150000
0.000472 0.001049 0.150000
0.000519 0.001004 0.150000
0.000572 0.000968 0.150000
0.000632 0.000940 0.150000
0.002939 0.005510 0.000000
0.002916 0.005444 0.000000
0.002885 0.005367 0.000000
0.002846 0.005278 0.000000
0.002707 0.004970 0.000000
0.002653 0.004857 0.000000
0.002680 0.004911 0.000000
0.000632 0.000940 0.000000
0.005357 0.009191 0.000000
0.005071 0.009355 0.000000
0.005010 0.009346 0.000000
0.004719 0.009246 0.000000
0.004566 0.009163 0.000000
0.001133 0.000903 0.000000
0.002542 0.001197 0.000000
0.007176 0.000650 0.000000
0.007190 0.000700 0.000000
0.002061 0.003979 0.000000
0.002011 0.003931 0.000000
0.001955 0.003883 0.000000
0.001899 0.003837 0.000000
0.001844 0.003795 0.000000
0.000008 0.002277 0.000000
0.000042 0.001989 0.000000
0.002229 0.004174 0.000000
0.000001 0.002421 0.000000
0.000000 0.002559 0.000000
0.000003 0.002689 0.000000
0.000008 0.002808 0.000000
0.000014 0.002912 0.000000
0.000026 0.003061 0.000000
0.000021 0.002997 0.000000
0.000528 0.003388 0.000000
0.000501 0.003379 0.000000
0.003853 0.008413 0.000000
0.003730 0.008286 0.000000
0.003506 0.008086 0.000000
0.003543 0.008125 0.000000
0.001791 0.003758 0.000000
0.001739 0.003723 0.000000
0.001686 0.003692 0.000000
0.001632 0.003663 0.000000
0.007496 0.002002 0.000000
0.007521 0.002098 0.000000
0.005019 0.000434 0.000000
0.004137 0.008767 0.000000
0.004114 0.008738 0.000000
0.004095 0.008711 0.000000
0.004076 0.008684 0.000000
0.004198 0.008845 0.000000
0.004164 0.008803 0.000000
0.004241 0.008898 0.000000
0.004055 0.008656 0.000000
0.004031 0.008625 0.000000
0.004001 0.008587 0.000000
0.003962 0.008540 0.000000
0.003914 0.008483 0.000000
0.004476 0.000850 0.000000
0.000472 0.001049 0.000000
0.000519 0.001004 0.000000
0.000958 0.000896 0.000000
0.004871 0.009308 0.000000
0.006610 0.000001 0.000000
0.006847 0.000077 0.000000
0.006913 0.000152 0.000000
0.006775 0.000029 0.000000
0.000389 0.001163 0.000000
0.000429 0.001101 0.000000
0.000434 0.003343 0.000000
0.000072 0.001850 0.000000
0.002888 0.001230 0.000000
0.002963 0.001243 0.000000
0.003040 0.001257 0.000000
0.002746 0.001208 0.000000
0.002816 0.001217 0.000000
0.007158 0.000606 0.000000
0.000112 0.001720 0.000000
0.001074 0.003474 0.000000
0.000996 0.003458 0.000000
0.000920 0.003445 0.000000
0.000848 0.003434 0.000000
0.000780 0.003424 0.000000
0.000659 0.003409 0.000000
0.000608 0.003402 0.000000
0.000564 0.003395 0.000000
0.003696 0.001170 0.000000
0.003802 0.001121 0.000000
0.003983 0.001046 0.000000
0.004337 0.000914 0.000000
0.004405 0.000884 0.000000
0.000572 0.000968 0.000000
0.003379 0.007836 0.000000
0.003350 0.007736 0.000000
0.003302 0.007549 0.000000
0.003285 0.007478 0.000000
0.002610 0.001203 0.000000
0.002678 0.001205 0.000000
0.006678 0.004552 0.000000
0.006697 0.000005 0.000000
0.007397 0.002863 0.000000
0.007508 0.002474 0.000000
0.003260 0.007364 0.000000
0.003271 0.007417 0.000000
0.003242 0.007266 0.000000
0.003250 0.007315 0.000000
0.003135 0.006521 0.000000
0.003113 0.006392 0.000000
0.001237 0.003515 0.000000
0.003011 0.005882 0.000000
0.003023 0.005952 0.000000
0.003089 0.006261 0.000000
0.001388 0.003562 0.000000
0.001518 0.003610 0.000000
0.002987 0.005718 0.000000
0.003002 0.005822 0.000000
0.002979 0.005669 0.000000
0.002970 0.005620 0.000000
3 0 1 2
3 0 2 3
3 4 5 6
3 4 6 7
3 8 9 10
3 8 10 11
3 12 13 14
3 12 14 15
3 16 17 18
3 16 18 19
3 20 21 22
3 20 22 23
3 24 25 26
3 26 27 28
3 26 28 29
3 30 31 24
3 24 26 29
3 24 29 32
3 33 30 24
3 24 32 33
3 34 35 36
3 34 36 37
3 38 39 40
3 38 40 41
3 42 43 12
3 42 12 15
3 44 45 46
3 44 46 47
3 48 49 50
3 48 50 51
3 52 53 1
3 52 1 0
3 54 55 56
3 56 57 58
3 56 58 59
3 54 56 59
3 54 59 60
3 61 54 60
3 61 60 62
3 63 61 62
3 63 62 64
3 65 66 67
3 67 63 64
3 67 64 68
3 10 65 67
3 69 11 10
3 70 69 10
3 10 67 68
3 71 70 10
3 68 71 10
3 72 73 21
3 72 21 20
3 74 75 76
3 74 76 77
3 78 79 80
3 78 80 81
3 82 83 84
3 84 4 7
3 7 85 86
3 86 87 88
3 88 89 90
3 90 91 92
3 90 92 93
3 86 88 90
3 84 7 86
3 82 84 86
3 86 90 93
3 86 93 94
3 95 82 86
3 96 95 86
3 96 86 94
3 97 96 94
3 98 99 100
3 97 94 98
3 101 97 98
3 98 100 102
3 98 102 103
3 104 101 98
3 105 104 98
3 98 103 106
3 105 98 106
3 107 108 109
3 109 105 106
3 109 106 110
3 111 107 109
3 112 113 111
3 18 114 112
3 115 19 18
3 116 117 115
3 118 119 116
3 20 23 118
3 120 72 20
3 78 81 120
3 34 37 78
3 29 28 34
3 33 32 29
3 33 29 34
3 34 78 120
3 120 20 118
3 118 116 115
3 115 18 112
3 112 111 109
3 109 110 121
3 109 121 122
3 115 112 109
3 120 118 115
3 33 34 120
3 30 33 120
3 120 115 109
3 120 109 122
3 123 30 120
3 124 125 123
3 74 77 124
3 126 127 74
3 41 126 74
3 74 124 123
3 123 120 122
3 123 122 128
3 41 74 123
3 129 130 38
3 38 41 123
3 123 128 131
3 123 131 132
3 129 38 123
3 133 134 129
3 135 136 133
3 137 138 135
3 59 58 137
3 62 60 59
3 62 59 137
3 137 135 133
3 133 129 123
3 123 132 139
3 123 139 140
3 137 133 123
3 64 62 137
3 64 137 123
3 123 140 141
3 123 141 142
3 68 64 123
3 69 70 71
3 71 68 123
3 123 142 143
3 123 143 144
3 69 71 123
3 8 11 69
3 14 145 8
3 15 14 8
3 8 69 123
3 123 144 146
3 123 146 147
3 15 8 123
3 42 15 123
3 123 147 148
3 123 148 149
3 150 42 123
3 151 150 123
3 123 149 152
3 123 152 153
3 154 151 123
3 155 156 154
3 157 155 154
3 154 123 153
3 154 153 158
3 3 157 154
3 3 154 158
3 3 158 159
3 0 3 159
3 0 159 160
3 52 0 160
3 52 160 161
3 50 52 161
3 50 161 162
3 51 50 162
3 51 162 163
3 164 51 163
3 164 163 165
3 166 167 168
3 168 164 165
3 169 170 171
3 168 165 169
3 172 166 168
3 173 174 172
3 175 176 177
3 173 172 168
3 47 175 177
3 177 173 168
3 168 169 171
3 171 178 179
3 179 180 181
3 181 182 183
3 183 184 185
3 185 186 187
3 187 188 189
3 189 190 191
3 191 192 193
3 193 194 195
3 195 196 197
3 197 198 44
3 44 47 177
3 177 168 171
3 171 179 181
3 181 183 185
3 185 187 189
3 189 191 193
3 193 195 197
3 197 44 177
3 177 171 181
3 181 185 189
3 189 193 197
3 197 177 181
3 181 189 197
3 122 121 199
3 122 199 200
3 128 122 200
3 128 200 201
3 131 128 201
3 131 201 202
3 132 131 202
3 132 202 203
3 204 140 139
3 139 132 203
3 205 204 139
3 203 205 139
3 198 206 45
3 198 45 44
3 80 207 120
3 80 120 81
3 118 208 209
3 118 209 119
3 210 211 115
3 210 115 117
3 28 27 35
3 28 35 34
3 36 79 78
3 36 78 37
3 212 213 177
3 212 177 176
3 120 207 73
3 120 73 72
3 129 214 215
3 129 215 130
3 143 142 216
3 216 217 218
3 218 219 220
3 220 147 146
3 144 143 216
3 220 146 144
3 216 218 220
3 216 220 144
3 189 221 222
3 189 222 190
3 204 223 141
3 204 141 140
3 224 221 189
3 224 189 188
3 225 224 188
3 225 188 187
3 226 225 187
3 226 187 186
3 227 226 186
3 227 186 185
3 228 227 185
3 228 185 184
3 182 229 230
3 230 228 184
3 183 182 230
3 184 183 230
3 179 231 232
3 179 232 180
3 82 95 233
3 82 233 234
3 235 84 83
3 83 82 234
3 236 235 83
3 234 236 83
3 215 39 38
3 215 38 130
3 237 238 239
3 239 240 153
3 239 153 152
3 220 237 239
3 148 147 220
3 239 152 149
3 149 148 220
3 239 149 220
3 40 241 126
3 40 126 41
3 127 242 75
3 127 75 74
3 14 13 243
3 14 243 145
3 244 245 246
3 244 246 247
3 248 249 244
3 17 250 248
3 114 18 17
3 112 114 17
3 17 248 244
3 17 244 247
3 113 112 17
3 111 113 17
3 17 247 251
3 17 251 252
3 107 111 17
3 108 107 17
3 108 17 252
3 109 108 252
3 109 252 253
3 105 109 253
3 105 253 254
3 104 105 254
3 255 233 95
3 104 254 255
3 101 104 255
3 255 95 96
3 97 101 255
3 255 96 97
3 256 43 42
3 256 42 150
3 195 257 258
3 195 258 196
3 259 212 176
3 259 176 175
3 116 260 210
3 116 210 117
3 58 57 261
3 58 261 137
3 136 262 263
3 136 263 133
3 135 264 262
3 135 262 136
3 84 235 5
3 84 5 4
3 193 265 266
3 193 266 194
3 229 182 181
3 229 181 267
3 126 241 242
3 126 242 127
3 190 222 268
3 190 268 191
3 269 270 271
3 271 48 51
3 271 51 164
3 269 271 164
3 269 164 168
3 172 272 273
3 273 269 168
3 273 168 167
3 166 172 273
3 167 166 273
3 134 274 214
3 134 214 129
3 191 268 275
3 191 275 192
3 263 274 134
3 263 134 133
3 209 260 116
3 209 116 119
3 162 161 276
3 162 276 277
3 163 162 277
3 163 277 278
3 165 163 278
3 165 278 279
3 169 165 279
3 280 281 282
3 169 279 280
3 170 169 280
3 280 282 283
3 283 231 179
3 283 179 178
3 170 280 283
3 283 178 171
3 283 171 170
3 223 216 142
3 223 142 141
3 157 3 2
3 2 284 285
3 286 287 288
3 157 2 285
3 286 288 256
3 157 285 286
3 155 157 286
3 286 256 150
3 286 150 151
3 156 155 286
3 286 151 154
3 286 154 156
3 197 289 206
3 197 206 198
3 196 258 289
3 196 289 197
3 180 232 267
3 180 267 181
3 290 291 292
3 292 293 88
3 292 88 87
3 85 290 292
3 292 87 86
3 292 86 85
3 211 16 19
3 211 19 115
3 294 295 272
3 272 172 174
3 173 177 213
3 272 174 173
3 173 213 294
3 272 173 294
3 259 175 47
3 259 47 46
3 275 265 193
3 275 193 192
3 145 243 9
3 145 9 8
3 123 296 31
3 123 31 30
3 287 286 285
3 287 285 284
3 287 284 2
3 243 13 12
3 10 9 243
3 66 65 10
3 67 66 10
3 10 243 12
3 10 12 43
3 63 67 10
3 63 10 43
3 63 43 256
3 61 63 256
3 61 256 288
3 54 61 288
3 56 54 288
3 261 57 56
3 264 297 261
3 263 262 264
3 214 274 263
3 39 215 214
3 242 241 40
3 39 214 263
3 75 242 40
3 40 39 263
3 263 264 261
3 261 56 288
3 261 288 287
3 40 263 261
3 76 75 40
3 298 299 76
3 296 298 76
3 76 40 261
3 261 287 2
3 76 261 2
3 296 76 2
3 296 2 1
3 31 296 1
3 31 1 53
3 24 31 53
3 24 53 49
3 27 26 24
3 36 35 27
3 80 79 36
3 73 207 80
3 22 21 73
3 209 208 22
3 210 260 209
3 16 211 210
3 250 17 16
3 249 248 250
3 245 244 249
3 247 246 245
3 247 245 249
3 249 250 16
3 16 210 209
3 209 22 73
3 73 80 36
3 36 27 24
3 24 49 48
3 24 48 271
3 73 36 24
3 16 209 73
3 247 249 16
3 251 247 16
3 16 73 24
3 24 271 270
3 270 269 273
3 273 272 295
3 273 295 294
3 24 270 273
3 251 16 24
3 252 251 24
3 24 273 294
3 213 212 259
3 24 294 213
3 253 252 24
3 254 253 24
3 24 213 259
3 259 46 45
3 45 206 289
3 289 258 257
3 257 266 265
3 265 275 268
3 268 222 221
3 221 224 225
3 225 226 227
3 227 228 230
3 230 229 267
3 267 232 231
3 231 283 282
3 231 282 280
3 230 267 231
3 225 227 230
3 268 221 225
3 257 265 268
3 45 289 257
3 24 259 45
3 255 254 24
3 233 255 24
3 24 45 257
3 257 268 225
3 225 230 231
3 231 280 279
3 225 231 279
3 24 257 225
3 234 233 24
3 235 236 234
3 6 5 235
3 291 290 6
3 293 292 291
3 300 301 293
3 302 303 300
3 304 302 300
3 300 293 291
3 291 6 235
3 235 234 24
3 225 279 278
3 225 278 277
3 291 235 24
3 304 300 291
3 305 304 291
3 225 277 276
3 225 276 306
3 305 291 24
3 307 308 309
3 309 305 24
3 225 306 310
3 225 310 311
3 307 309 24
3 312 313 307
3 312 307 24
3 225 311 240
3 225 240 239
3 314 312 24
3 315 314 24
3 24 225 239
3 24 239 238
3 199 315 24
3 200 199 24
3 24 238 237
3 24 237 220
3 201 200 24
3 202 201 24
3 24 220 219
3 24 219 218
3 203 202 24
3 205 203 24
3 24 218 217
3 24 217 216
3 204 205 24
3 24 216 223
3 223 204 24
3 138 297 264
3 138 264 135
3 7 6 290
3 7 290 85
3 311 158 153
3 311 153 240
3 50 49 53
3 50 53 52
3 159 158 311
3 159 311 310
3 276 161 160
3 160 159 310
3 306 276 160
3 310 306 160
3 77 76 299
3 77 299 124
3 194 266 257
3 194 257 195
3 298 296 123
3 298 123 125
3 137 261 297
3 137 297 138
3 110 315 199
3 110 199 121
3 23 22 208
3 23 208 118
3 314 315 110
3 309 307 312
3 312 314 110
3 312 110 106
3 305 309 312
3 303 302 304
3 305 312 106
3 300 303 304
3 304 305 106
3 304 106 103
3 301 300 304
3 88 293 301
3 89 88 301
3 301 304 103
3 301 103 102
3 90 89 301
3 91 90 301
3 301 102 100
3 301 100 99
3 92 91 301
3 93 92 301
3 301 99 98
3 94 93 301
3 98 94 301
3 299 298 125
3 299 125 124
