ply
format ascii 1.0
comment Created by Blender 3.6.8 - www.blender.org
element vertex 148
property float x
property float y
property float z
element face 288
property list uchar uint vertex_indices
end_header
0.000198 0.004651 0.000000
0.000122 0.004504 0.000000
0.000122 0.004504 0.150000
0.000198 0.004651 0.150000
0.002363 0.000580 0.150000
0.002363 0.000580 0.000000
0.002461 0.000514 0.000000
0.002461 0.000514 0.150000
0.000238 0.004708 0.150000
0.000238 0.004708 0.000000
0.004254 0.006161 0.000000
0.004438 0.006119 0.000000
0.004657 0.006041 0.000000
0.004774 0.005991 0.000000
0.004894 0.005934 0.000000
0.005015 0.005873 0.000000
0.005135 0.005806 0.000000
0.005365 0.005663 0.000000
0.005472 0.005589 0.000000
0.005573 0.005509 0.000000
0.005862 0.005228 0.000000
0.006214 0.004763 0.000000
0.006296 0.004633 0.000000
0.006377 0.004499 0.000000
0.006532 0.004217 0.000000
0.006598 0.004077 0.000000
0.006647 0.003946 0.000000
0.006681 0.003820 0.000000
0.006701 0.003699 0.000000
0.006707 0.003459 0.000000
0.006697 0.003336 0.000000
0.006497 0.001966 0.000000
0.006390 0.001435 0.000000
0.006279 0.001005 0.000000
0.006239 0.000910 0.000000
0.006176 0.000816 0.000000
0.006094 0.000725 0.000000
0.005884 0.000550 0.000000
0.005067 0.000054 0.000000
0.004944 0.000014 0.000000
0.004761 0.000000 0.000000
0.004530 0.000010 0.000000
0.003675 0.000143 0.000000
0.002624 0.000440 0.000000
0.002273 0.000673 0.000000
0.002135 0.000820 0.000000
0.001956 0.001013 0.000000
0.001746 0.001240 0.000000
0.001515 0.001491 0.000000
0.001028 0.002025 0.000000
0.000568 0.002531 0.000000
0.000373 0.002748 0.000000
0.000213 0.002927 0.000000
0.000097 0.003059 0.000000
0.000084 0.003116 0.000000
0.000055 0.003270 0.000000
0.000038 0.003374 0.000000
0.000023 0.003492 0.000000
0.000002 0.003756 0.000000
0.000007 0.004033 0.000000
0.000023 0.004168 0.000000
0.000051 0.004296 0.000000
0.000280 0.004758 0.000000
0.000324 0.004802 0.000000
0.000369 0.004843 0.000000
0.000466 0.004929 0.000000
0.000517 0.004978 0.000000
0.000628 0.005096 0.000000
0.000689 0.005156 0.000000
0.000752 0.005214 0.000000
0.004097 0.006164 0.000000
0.004178 0.006167 0.000000
0.001482 0.005775 0.000000
0.001682 0.005837 0.000000
0.001337 0.005692 0.000000
0.001401 0.005736 0.000000
0.000818 0.005272 0.000000
0.000886 0.005328 0.000000
0.001281 0.005643 0.000000
0.002273 0.000673 0.150000
0.002135 0.000820 0.150000
0.001956 0.001013 0.150000
0.001746 0.001240 0.150000
0.001515 0.001491 0.150000
0.001028 0.002025 0.150000
0.000568 0.002531 0.150000
0.000373 0.002748 0.150000
0.000097 0.003059 0.150000
0.000213 0.002927 0.150000
0.003675 0.000143 0.150000
0.004530 0.000010 0.150000
0.006214 0.004763 0.150000
0.006296 0.004633 0.150000
0.006377 0.004499 0.150000
0.006598 0.004077 0.150000
0.006532 0.004217 0.150000
0.000023 0.004168 0.150000
0.000007 0.004033 0.150000
0.004178 0.006167 0.150000
0.004097 0.006164 0.150000
0.006701 0.003699 0.150000
0.006707 0.003459 0.150000
0.005862 0.005228 0.150000
0.005573 0.005509 0.150000
0.000051 0.004296 0.150000
0.000752 0.005214 0.150000
0.000818 0.005272 0.150000
0.000886 0.005328 0.150000
0.001401 0.005736 0.150000
0.001337 0.005692 0.150000
0.001281 0.005643 0.150000
0.002624 0.000440 0.150000
0.000689 0.005156 0.150000
0.000628 0.005096 0.150000
0.000517 0.004978 0.150000
0.000466 0.004929 0.150000
0.000280 0.004758 0.150000
0.000324 0.004802 0.150000
0.000369 0.004843 0.150000
0.006697 0.003336 0.150000
0.006390 0.001435 0.150000
0.006279 0.001005 0.150000
0.006497 0.001966 0.150000
0.004944 0.000014 0.150000
0.005067 0.000054 0.150000
0.006647 0.003946 0.150000
0.005884 0.000550 0.150000
0.006239 0.000910 0.150000
0.006176 0.000816 0.150000
0.004761 0.000000 0.150000
0.006094 0.000725 0.150000
0.006681 0.003820 0.150000
0.005472 0.005589 0.150000
0.005365 0.005663 0.150000
0.005135 0.005806 0.150000
0.005015 0.005873 0.150000
0.004894 0.005934 0.150000
0.004774 0.005991 0.150000
0.004657 0.006041 0.150000
0.004438 0.006119 0.150000
0.004254 0.006161 0.150000
0.001682 0.005837 0.150000
0.001482 0.005775 0.150000
0.000084 0.003116 0.150000
0.000038 0.003374 0.150000
0.000055 0.003270 0.150000
0.000002 0.003756 0.150000
0.000023 0.003492 0.150000
3 0 1 2
3 0 2 3
3 4 5 6
3 4 6 7
3 8 9 0
3 8 0 3
3 10 11 12
3 12 13 14
3 14 15 16
3 16 17 18
3 18 19 20
3 20 21 22
3 22 23 24
3 24 25 26
3 26 27 28
3 28 29 30
3 30 31 32
3 32 33 34
3 34 35 36
3 36 37 38
3 38 39 40
3 40 41 42
3 42 43 6
3 6 5 44
3 44 45 46
3 46 47 48
3 48 49 50
3 50 51 52
3 52 53 54
3 54 55 56
3 56 57 58
3 58 59 60
3 60 61 1
3 1 0 9
3 9 62 63
3 63 64 65
3 66 67 68
3 9 63 65
3 66 68 69
3 9 65 66
3 60 1 9
3 56 58 60
3 52 54 56
3 48 50 52
3 44 46 48
3 42 6 44
3 38 40 42
3 34 36 38
3 30 32 34
3 26 28 30
3 22 24 26
3 18 20 22
3 14 16 18
3 10 12 14
3 70 71 10
3 72 73 70
3 74 75 72
3 76 77 78
3 78 74 72
3 72 70 10
3 10 14 18
3 18 22 26
3 26 30 34
3 34 38 42
3 42 44 48
3 48 52 56
3 56 60 9
3 66 69 76
3 56 9 66
3 42 48 56
3 26 34 42
3 10 18 26
3 78 72 10
3 66 76 78
3 42 56 66
3 10 26 42
3 66 78 10
3 42 66 10
3 44 5 4
3 44 4 79
3 45 44 79
3 45 79 80
3 46 45 80
3 46 80 81
3 47 46 81
3 47 81 82
3 48 47 82
3 48 82 83
3 49 48 83
3 49 83 84
3 50 49 84
3 50 84 85
3 51 50 85
3 51 85 86
3 87 53 52
3 52 51 86
3 88 87 52
3 86 88 52
3 89 42 41
3 89 41 90
3 22 21 91
3 22 91 92
3 23 22 92
3 23 92 93
3 94 25 24
3 24 23 93
3 95 94 24
3 93 95 24
3 96 60 59
3 96 59 97
3 98 71 70
3 98 70 99
3 29 28 100
3 29 100 101
3 102 20 19
3 102 19 103
3 2 1 61
3 2 61 104
3 76 69 105
3 76 105 106
3 75 74 78
3 78 76 106
3 78 106 107
3 108 75 78
3 109 108 78
3 78 107 110
3 110 109 78
3 7 6 43
3 7 43 111
3 21 20 102
3 21 102 91
3 69 68 67
3 69 67 66
3 112 105 69
3 113 112 69
3 113 69 66
3 114 113 66
3 114 66 65
3 115 114 65
3 65 63 62
3 62 116 117
3 118 115 65
3 62 117 118
3 65 62 118
3 104 61 60
3 104 60 96
3 111 43 42
3 111 42 89
3 30 29 101
3 30 101 119
3 33 32 30
3 120 121 33
3 30 119 122
3 122 120 33
3 30 122 33
3 123 39 38
3 123 38 124
3 125 26 25
3 125 25 94
3 38 37 126
3 38 126 124
3 127 34 33
3 127 33 121
3 128 35 34
3 128 34 127
3 89 90 129
3 129 123 124
3 124 126 130
3 130 128 127
3 127 121 120
3 120 122 119
3 119 101 100
3 100 131 125
3 125 94 95
3 95 93 92
3 92 91 102
3 102 103 132
3 132 133 134
3 134 135 136
3 136 137 138
3 138 139 140
3 140 98 99
3 99 141 142
3 142 108 109
3 110 107 106
3 142 109 110
3 140 99 142
3 136 138 140
3 132 134 136
3 92 102 132
3 125 95 92
3 119 100 125
3 127 120 119
3 124 130 127
3 89 129 124
3 7 111 89
3 79 4 7
3 81 80 79
3 83 82 81
3 85 84 83
3 88 86 85
3 143 87 88
3 144 145 143
3 146 147 144
3 96 97 146
3 2 104 96
3 8 3 2
3 117 116 8
3 115 118 117
3 112 113 114
3 115 117 8
3 105 112 114
3 114 115 8
3 8 2 96
3 96 146 144
3 144 143 88
3 88 85 83
3 83 81 79
3 79 7 89
3 89 124 127
3 127 119 125
3 125 92 132
3 132 136 140
3 140 142 110
3 110 106 105
3 114 8 96
3 110 105 114
3 132 140 110
3 127 125 132
3 79 89 127
3 88 83 79
3 96 144 88
3 110 114 96
3 127 132 110
3 88 79 127
3 110 96 88
3 127 110 88
3 90 41 40
3 90 40 129
3 140 10 71
3 140 71 98
3 58 57 147
3 58 147 146
3 130 36 35
3 130 35 128
3 142 72 75
3 142 75 108
3 139 11 10
3 139 10 140
3 36 130 126
3 36 126 37
3 141 73 72
3 141 72 142
3 116 62 9
3 116 9 8
3 54 53 87
3 54 87 143
3 57 56 54
3 144 147 57
3 54 143 145
3 145 144 57
3 54 145 57
3 129 40 39
3 129 39 123
3 15 14 13
3 13 12 138
3 13 138 137
3 16 15 13
3 135 134 16
3 13 137 136
3 136 135 16
3 13 136 16
3 70 73 141
3 70 141 99
3 131 27 26
3 131 26 125
3 132 103 19
3 132 19 18
3 16 134 133
3 133 132 18
3 17 16 133
3 18 17 133
3 100 28 27
3 100 27 131
3 59 58 146
3 59 146 97
3 11 139 138
3 11 138 12
