ply
format ascii 1.0
comment Created by Blender 3.6.8 - www.blender.org
element vertex 198
property float x
property float y
property float z
element face 388
property list uchar uint vertex_indices
end_header
0.003055 0.000006 0.150000
0.003055 0.000006 0.000000
0.003137 0.000026 0.000000
0.003137 0.000026 0.150000
0.002723 0.000019 0.000000
0.002844 0.000005 0.000000
0.002844 0.000005 0.150000
0.002723 0.000019 0.150000
0.001827 0.000208 0.150000
0.001827 0.000208 0.000000
0.002597 0.000039 0.000000
0.002597 0.000039 0.150000
0.002850 0.005445 0.000000
0.002786 0.005475 0.000000
0.002786 0.005475 0.150000
0.002850 0.005445 0.150000
0.002913 0.005412 0.000000
0.002913 0.005412 0.150000
0.003395 0.005123 0.150000
0.003395 0.005123 0.000000
0.002978 0.005375 0.000000
0.002978 0.005375 0.150000
0.003753 0.004064 0.000000
0.003741 0.004142 0.000000
0.003741 0.004142 0.150000
0.003753 0.004064 0.150000
0.003761 0.003990 0.000000
0.003761 0.003990 0.150000
0.003766 0.003918 0.000000
0.003766 0.003918 0.150000
0.003769 0.003846 0.000000
0.003769 0.003846 0.150000
0.003775 0.003601 0.000000
0.003775 0.003601 0.150000
0.003780 0.003503 0.000000
0.003780 0.003503 0.150000
0.003788 0.003392 0.000000
0.003788 0.003392 0.150000
0.003797 0.003171 0.150000
0.003797 0.003171 0.000000
0.003795 0.003278 0.000000
0.003795 0.003278 0.150000
0.002957 0.000000 0.000000
0.001741 0.000232 0.000000
0.001647 0.000260 0.000000
0.001547 0.000294 0.000000
0.001445 0.000332 0.000000
0.001341 0.000374 0.000000
0.001238 0.000420 0.000000
0.001139 0.000470 0.000000
0.000958 0.000580 0.000000
0.000881 0.000640 0.000000
0.000621 0.000888 0.000000
0.000504 0.001032 0.000000
0.000388 0.001204 0.000000
0.000270 0.001414 0.000000
0.000145 0.001675 0.000000
0.000089 0.001811 0.000000
0.000021 0.002038 0.000000
0.000005 0.002138 0.000000
0.000000 0.002234 0.000000
0.000003 0.002330 0.000000
0.000012 0.002429 0.000000
0.000074 0.002944 0.000000
0.000109 0.003442 0.000000
0.000122 0.003563 0.000000
0.003351 0.000204 0.000000
0.003198 0.000062 0.000000
0.003540 0.000450 0.000000
0.003451 0.000317 0.000000
0.003608 0.000610 0.000000
0.003577 0.000526 0.000000
0.003647 0.000800 0.000000
0.003632 0.000701 0.000000
0.003655 0.001378 0.000000
0.003652 0.000909 0.000000
0.000135 0.003664 0.000000
0.000150 0.003748 0.000000
0.000166 0.003819 0.000000
0.000183 0.003883 0.000000
0.000263 0.004146 0.000000
0.000353 0.004496 0.000000
0.000363 0.004533 0.000000
0.000373 0.004564 0.000000
0.000460 0.004777 0.000000
0.000493 0.004839 0.000000
0.000598 0.004984 0.000000
0.000665 0.005062 0.000000
0.000736 0.005139 0.000000
0.000808 0.005215 0.000000
0.000943 0.005348 0.000000
0.001044 0.005442 0.000000
0.001084 0.005478 0.000000
0.001146 0.005490 0.000000
0.001311 0.005517 0.000000
0.001547 0.005550 0.000000
0.001681 0.005565 0.000000
0.001822 0.005578 0.000000
0.002103 0.005591 0.000000
0.002359 0.005578 0.000000
0.002561 0.005545 0.000000
0.002718 0.005501 0.000000
0.003465 0.005072 0.000000
0.003517 0.005024 0.000000
0.003553 0.004978 0.000000
0.003577 0.004930 0.000000
0.003592 0.004880 0.000000
0.003601 0.004826 0.000000
0.003615 0.004697 0.000000
0.003626 0.004619 0.000000
0.003644 0.004528 0.000000
0.003724 0.004226 0.000000
0.003657 0.001462 0.000000
0.003664 0.001639 0.000000
0.003691 0.002095 0.000000
0.003702 0.002230 0.000000
0.003794 0.003069 0.000000
0.003788 0.002971 0.000000
0.003779 0.002874 0.000000
0.003714 0.002353 0.000000
0.000598 0.004984 0.150000
0.000665 0.005062 0.150000
0.000736 0.005139 0.150000
0.000808 0.005215 0.150000
0.000943 0.005348 0.150000
0.001084 0.005478 0.150000
0.001044 0.005442 0.150000
0.003451 0.000317 0.150000
0.003540 0.000450 0.150000
0.003577 0.000526 0.150000
0.003608 0.000610 0.150000
0.003632 0.000701 0.150000
0.003647 0.000800 0.150000
0.003652 0.000909 0.150000
0.003655 0.001378 0.150000
0.003198 0.000062 0.150000
0.003351 0.000204 0.150000
0.002957 0.000000 0.150000
0.001741 0.000232 0.150000
0.001547 0.000294 0.150000
0.001647 0.000260 0.150000
0.001341 0.000374 0.150000
0.001445 0.000332 0.150000
0.001139 0.000470 0.150000
0.001238 0.000420 0.150000
0.000881 0.000640 0.150000
0.000958 0.000580 0.150000
0.000504 0.001032 0.150000
0.000621 0.000888 0.150000
0.000270 0.001414 0.150000
0.000388 0.001204 0.150000
0.000089 0.001811 0.150000
0.000145 0.001675 0.150000
0.000005 0.002138 0.150000
0.000021 0.002038 0.150000
0.000003 0.002330 0.150000
0.000000 0.002234 0.150000
0.000074 0.002944 0.150000
0.000012 0.002429 0.150000
0.000122 0.003563 0.150000
0.000109 0.003442 0.150000
0.000150 0.003748 0.150000
0.000135 0.003664 0.150000
0.000183 0.003883 0.150000
0.000166 0.003819 0.150000
0.000363 0.004533 0.150000
0.000353 0.004496 0.150000
0.000263 0.004146 0.150000
0.003657 0.001462 0.150000
0.000373 0.004564 0.150000
0.003664 0.001639 0.150000
0.000460 0.004777 0.150000
0.000493 0.004839 0.150000
0.001311 0.005517 0.150000
0.001146 0.005490 0.150000
0.001681 0.005565 0.150000
0.001547 0.005550 0.150000
0.002103 0.005591 0.150000
0.001822 0.005578 0.150000
0.002561 0.005545 0.150000
0.002359 0.005578 0.150000
0.002718 0.005501 0.150000
0.003517 0.005024 0.150000
0.003465 0.005072 0.150000
0.003577 0.004930 0.150000
0.003553 0.004978 0.150000
0.003601 0.004826 0.150000
0.003592 0.004880 0.150000
0.003615 0.004697 0.150000
0.003691 0.002095 0.150000
0.003626 0.004619 0.150000
0.003702 0.002230 0.150000
0.003724 0.004226 0.150000
0.003644 0.004528 0.150000
0.003714 0.002353 0.150000
0.003779 0.002874 0.150000
0.003788 0.002971 0.150000
0.003794 0.003069 0.150000
3 0 1 2
3 0 2 3
3 4 5 6
3 4 6 7
3 8 9 10
3 10 4 7
3 11 8 10
3 7 11 10
3 12 13 14
3 12 14 15
3 16 12 15
3 16 15 17
3 18 19 20
3 20 16 17
3 21 18 20
3 17 21 20
3 22 23 24
3 22 24 25
3 26 22 25
3 26 25 27
3 28 26 27
3 28 27 29
3 30 28 29
3 30 29 31
3 32 30 31
3 32 31 33
3 34 32 33
3 34 33 35
3 36 34 35
3 36 35 37
3 38 39 40
3 40 36 37
3 41 38 40
3 37 41 40
3 2 1 42
3 42 5 4
3 4 10 9
3 9 43 44
3 44 45 46
3 46 47 48
3 48 49 50
3 50 51 52
3 52 53 54
3 54 55 56
3 56 57 58
3 58 59 60
3 60 61 62
3 63 64 65
3 60 62 63
3 56 58 60
3 52 54 56
3 48 50 52
3 44 46 48
3 4 9 44
3 2 42 4
3 66 67 2
3 68 69 66
3 70 71 68
3 72 73 70
3 74 75 72
3 74 72 70
3 70 68 66
3 66 2 4
3 4 44 48
3 48 52 56
3 56 60 63
3 63 65 76
3 76 77 78
3 78 79 80
3 80 81 82
3 82 83 84
3 84 85 86
3 86 87 88
3 88 89 90
3 90 91 92
3 92 93 94
3 94 95 96
3 96 97 98
3 98 99 100
3 100 101 13
3 13 12 16
3 16 20 19
3 19 102 103
3 103 104 105
3 105 106 107
3 105 107 108
3 19 103 105
3 13 16 19
3 98 100 13
3 94 96 98
3 90 92 94
3 86 88 90
3 82 84 86
3 76 78 80
3 80 82 86
3 86 90 94
3 94 98 13
3 13 19 105
3 105 108 109
3 110 111 23
3 13 105 109
3 110 23 22
3 13 109 110
3 86 94 13
3 76 80 86
3 56 63 76
3 4 48 56
3 70 66 4
3 112 74 70
3 113 112 70
3 70 4 56
3 56 76 86
3 86 13 110
3 110 22 26
3 26 28 30
3 26 30 32
3 86 110 26
3 70 56 86
3 113 70 86
3 86 26 32
3 34 36 40
3 86 32 34
3 114 113 86
3 115 114 86
3 86 34 40
3 40 39 116
3 116 117 118
3 119 115 86
3 116 118 119
3 86 40 116
3 86 116 119
3 87 86 120
3 87 120 121
3 88 87 121
3 88 121 122
3 89 88 122
3 89 122 123
3 90 89 123
3 90 123 124
3 125 92 91
3 91 90 124
3 126 125 91
3 124 126 91
3 127 128 129
3 129 130 131
3 131 132 133
3 131 133 134
3 127 129 131
3 135 136 127
3 0 3 135
3 6 137 0
3 11 7 6
3 138 8 11
3 139 140 138
3 141 142 139
3 143 144 141
3 145 146 143
3 147 148 145
3 149 150 147
3 151 152 149
3 153 154 151
3 155 156 153
3 157 158 155
3 159 160 157
3 161 162 159
3 163 164 161
3 165 166 167
3 167 163 161
3 161 159 157
3 157 155 153
3 153 151 149
3 149 147 145
3 145 143 141
3 141 139 138
3 138 11 6
3 6 0 135
3 135 127 131
3 131 134 168
3 135 131 168
3 138 6 135
3 145 141 138
3 153 149 145
3 161 157 153
3 169 165 167
3 167 161 153
3 153 145 138
3 138 135 168
3 138 168 170
3 167 153 138
3 171 169 167
3 120 172 171
3 122 121 120
3 124 123 122
3 125 126 124
3 173 174 125
3 175 176 173
3 177 178 175
3 179 180 177
3 14 181 179
3 17 15 14
3 18 21 17
3 182 183 18
3 184 185 182
3 186 187 184
3 188 186 184
3 184 182 18
3 18 17 14
3 14 179 177
3 177 175 173
3 173 125 124
3 124 122 120
3 120 171 167
3 167 138 170
3 167 170 189
3 124 120 167
3 177 173 124
3 18 14 177
3 188 184 18
3 190 188 18
3 18 177 124
3 124 167 189
3 124 189 191
3 190 18 124
3 24 192 193
3 193 190 124
3 124 191 194
3 194 195 196
3 196 197 38
3 38 41 37
3 38 37 35
3 194 196 38
3 193 124 194
3 25 24 193
3 29 27 25
3 33 31 29
3 194 38 35
3 33 29 25
3 194 35 33
3 25 193 194
3 194 33 25
3 111 110 109
3 109 190 193
3 192 24 23
3 109 193 192
3 192 23 111
3 109 192 111
3 137 42 1
3 137 1 0
3 183 102 19
3 183 19 18
3 76 162 161
3 76 161 164
3 79 78 76
3 80 79 76
3 76 164 163
3 76 163 167
3 83 82 80
3 80 76 167
3 80 167 166
3 169 83 80
3 80 166 165
3 165 169 80
3 63 62 61
3 61 60 156
3 61 156 155
3 63 61 155
3 63 155 158
3 159 162 76
3 160 159 76
3 76 63 158
3 157 160 76
3 158 157 76
3 130 70 73
3 130 73 131
3 58 57 151
3 58 151 154
3 180 99 98
3 180 98 177
3 128 68 71
3 128 71 129
3 100 99 180
3 100 180 179
3 69 127 136
3 69 136 66
3 146 50 49
3 146 49 143
3 6 5 42
3 6 42 137
3 52 51 145
3 52 145 148
3 98 97 178
3 98 178 177
3 86 85 172
3 86 172 120
3 129 71 70
3 129 70 130
3 93 92 125
3 93 125 174
3 94 93 174
3 94 174 173
3 95 94 173
3 95 173 176
3 178 97 96
3 96 95 176
3 175 178 96
3 176 175 96
3 171 84 83
3 171 83 169
3 135 67 66
3 135 66 136
3 182 103 102
3 182 102 183
3 144 143 49
3 144 49 48
3 141 144 48
3 141 48 47
3 45 139 142
3 142 141 47
3 46 45 142
3 47 46 142
3 107 106 187
3 107 187 186
3 190 109 108
3 108 107 186
3 188 190 108
3 186 188 108
3 3 2 67
3 3 67 135
3 116 39 38
3 116 38 197
3 117 116 197
3 117 197 196
3 118 117 196
3 118 196 195
3 119 118 195
3 119 195 194
3 115 119 194
3 115 194 191
3 114 115 191
3 114 191 189
3 113 114 189
3 113 189 170
3 112 113 170
3 112 170 168
3 74 112 168
3 74 168 134
3 75 74 134
3 75 134 133
3 131 73 72
3 72 75 133
3 132 131 72
3 133 132 72
3 172 85 84
3 172 84 171
3 185 104 103
3 185 103 182
3 156 60 59
3 156 59 153
3 187 106 105
3 187 105 184
3 68 128 127
3 68 127 69
3 184 105 104
3 184 104 185
3 101 100 179
3 101 179 181
3 54 53 147
3 54 147 150
3 55 54 150
3 55 150 149
3 151 57 56
3 56 55 149
3 152 151 56
3 56 149 152
3 140 139 45
3 45 44 43
3 43 9 8
3 138 140 45
3 43 8 138
3 45 43 138
3 14 13 101
3 14 101 181
3 153 59 58
3 153 58 154
3 145 51 50
3 145 50 146
3 147 53 52
3 147 52 148
