ply
format ascii 1.0
comment Created by Blender 3.6.8 - www.blender.org
element vertex 258
property float x
property float y
property float z
element face 502
property list uchar uint vertex_indices
end_header
0.000192 0.004514 0.150000
0.000192 0.004514 0.000000
0.000142 0.004465 0.000000
0.000142 0.004465 0.150000
0.000030 0.003879 0.000000
0.000041 0.003825 0.000000
0.000041 0.003825 0.150000
0.000030 0.003879 0.150000
0.000022 0.003929 0.000000
0.000022 0.003929 0.150000
0.000016 0.003977 0.000000
0.000016 0.003977 0.150000
0.000002 0.004115 0.150000
0.000002 0.004115 0.000000
0.000007 0.004068 0.000000
0.000007 0.004068 0.150000
0.004670 0.003137 0.000000
0.004532 0.003306 0.000000
0.004532 0.003306 0.150000
0.004670 0.003137 0.150000
0.005046 0.002578 0.150000
0.005046 0.002578 0.000000
0.004817 0.002935 0.000000
0.004817 0.002935 0.150000
0.002294 0.000195 0.150000
0.002294 0.000195 0.000000
0.002328 0.000167 0.000000
0.002328 0.000167 0.150000
0.000226 0.004534 0.150000
0.000226 0.004534 0.000000
0.000211 0.004528 0.000000
0.000211 0.004528 0.150000
0.004230 0.003581 0.150000
0.004230 0.003581 0.000000
0.004177 0.003611 0.000000
0.004177 0.003611 0.150000
0.005282 0.000823 0.000000
0.005295 0.000892 0.000000
0.005295 0.000892 0.150000
0.005282 0.000823 0.150000
0.005211 0.000532 0.150000
0.005211 0.000532 0.000000
0.005269 0.000758 0.000000
0.005269 0.000758 0.150000
0.003094 0.000005 0.000000
0.003030 0.000002 0.000000
0.002970 0.000000 0.000000
0.002911 0.000000 0.000000
0.002853 0.000002 0.000000
0.002795 0.000006 0.000000
0.002678 0.000024 0.000000
0.002553 0.000059 0.000000
0.002422 0.000113 0.000000
0.002370 0.000140 0.000000
0.002266 0.000223 0.000000
0.002243 0.000254 0.000000
0.002224 0.000286 0.000000
0.002205 0.000321 0.000000
0.002166 0.000400 0.000000
0.002141 0.000446 0.000000
0.001813 0.000984 0.000000
0.001648 0.001264 0.000000
0.003161 0.000008 0.000000
0.003232 0.000010 0.000000
0.003302 0.000012 0.000000
0.001603 0.001339 0.000000
0.003366 0.000014 0.000000
0.003599 0.000020 0.000000
0.003541 0.000019 0.000000
0.003724 0.000024 0.000000
0.003659 0.000022 0.000000
0.003872 0.000029 0.000000
0.003794 0.000026 0.000000
0.004056 0.000036 0.000000
0.003958 0.000032 0.000000
0.004335 0.000045 0.000000
0.004249 0.000042 0.000000
0.004156 0.000040 0.000000
0.004416 0.000049 0.000000
0.004562 0.000061 0.000000
0.004491 0.000054 0.000000
0.004750 0.000102 0.000000
0.004691 0.000084 0.000000
0.004861 0.000152 0.000000
0.004807 0.000124 0.000000
0.005006 0.000253 0.000000
0.004914 0.000186 0.000000
0.005075 0.000307 0.000000
0.005043 0.000281 0.000000
0.005148 0.000387 0.000000
0.005127 0.000359 0.000000
0.005182 0.000450 0.000000
0.005166 0.000416 0.000000
0.005319 0.001130 0.000000
0.005314 0.001045 0.000000
0.005318 0.001320 0.000000
0.005321 0.001222 0.000000
0.005286 0.001649 0.000000
0.005311 0.001425 0.000000
0.005259 0.001934 0.000000
0.005268 0.001845 0.000000
0.005276 0.001751 0.000000
0.005248 0.002019 0.000000
0.001551 0.001416 0.000000
0.001494 0.001495 0.000000
0.005214 0.002189 0.000000
0.005151 0.002369 0.000000
0.004404 0.003441 0.000000
0.004286 0.003543 0.000000
0.004119 0.003638 0.000000
0.003969 0.003695 0.000000
0.004049 0.003666 0.000000
0.002109 0.004152 0.000000
0.003794 0.003754 0.000000
0.001760 0.004281 0.000000
0.001931 0.004220 0.000000
0.002014 0.004185 0.000000
0.001407 0.004389 0.000000
0.001229 0.004413 0.000000
0.001323 0.004400 0.000000
0.000977 0.004446 0.000000
0.001112 0.004428 0.000000
0.000690 0.004482 0.000000
0.000834 0.004464 0.000000
0.000430 0.004514 0.000000
0.000553 0.004499 0.000000
0.000259 0.004533 0.000000
0.000330 0.004526 0.000000
0.000039 0.004307 0.000000
0.000088 0.004393 0.000000
0.000007 0.004212 0.000000
0.000020 0.004260 0.000000
0.000000 0.004163 0.000000
0.001433 0.001574 0.000000
0.001370 0.001653 0.000000
0.001045 0.002045 0.000000
0.001014 0.002085 0.000000
0.000075 0.003700 0.000000
0.000056 0.003765 0.000000
0.000133 0.003544 0.000000
0.000101 0.003626 0.000000
0.000223 0.003349 0.000000
0.000174 0.003452 0.000000
0.000348 0.003113 0.000000
0.000281 0.003235 0.000000
0.000500 0.002858 0.000000
0.000422 0.002987 0.000000
0.000811 0.002378 0.000000
0.000660 0.002606 0.000000
0.000981 0.002131 0.000000
0.000935 0.002197 0.000000
0.005214 0.002189 0.150000
0.005151 0.002369 0.150000
0.005182 0.000450 0.150000
0.004404 0.003441 0.150000
0.004286 0.003543 0.150000
0.004119 0.003638 0.150000
0.004049 0.003666 0.150000
0.003969 0.003695 0.150000
0.003794 0.003754 0.150000
0.002109 0.004152 0.150000
0.002014 0.004185 0.150000
0.001931 0.004220 0.150000
0.001760 0.004281 0.150000
0.001407 0.004389 0.150000
0.001323 0.004400 0.150000
0.001229 0.004413 0.150000
0.001112 0.004428 0.150000
0.000977 0.004446 0.150000
0.000834 0.004464 0.150000
0.000690 0.004482 0.150000
0.000553 0.004499 0.150000
0.000430 0.004514 0.150000
0.000330 0.004526 0.150000
0.000259 0.004533 0.150000
0.000088 0.004393 0.150000
0.000039 0.004307 0.150000
0.000020 0.004260 0.150000
0.000007 0.004212 0.150000
0.000000 0.004163 0.150000
0.005248 0.002019 0.150000
0.005268 0.001845 0.150000
0.005259 0.001934 0.150000
0.005276 0.001751 0.150000
0.000056 0.003765 0.150000
0.000075 0.003700 0.150000
0.000101 0.003626 0.150000
0.000133 0.003544 0.150000
0.000174 0.003452 0.150000
0.000223 0.003349 0.150000
0.000281 0.003235 0.150000
0.000348 0.003113 0.150000
0.000422 0.002987 0.150000
0.000500 0.002858 0.150000
0.000660 0.002606 0.150000
0.000811 0.002378 0.150000
0.000935 0.002197 0.150000
0.000981 0.002131 0.150000
0.001014 0.002085 0.150000
0.001045 0.002045 0.150000
0.001370 0.001653 0.150000
0.005318 0.001320 0.150000
0.005311 0.001425 0.150000
0.005286 0.001649 0.150000
0.005319 0.001130 0.150000
0.005321 0.001222 0.150000
0.005314 0.001045 0.150000
0.005148 0.000387 0.150000
0.005166 0.000416 0.150000
0.005075 0.000307 0.150000
0.005127 0.000359 0.150000
0.005006 0.000253 0.150000
0.005043 0.000281 0.150000
0.004861 0.000152 0.150000
0.004914 0.000186 0.150000
0.004750 0.000102 0.150000
0.004807 0.000124 0.150000
0.004562 0.000061 0.150000
0.004691 0.000084 0.150000
0.004416 0.000049 0.150000
0.004491 0.000054 0.150000
0.004249 0.000042 0.150000
0.004335 0.000045 0.150000
0.004156 0.000040 0.150000
0.001433 0.001574 0.150000
0.004056 0.000036 0.150000
0.003872 0.000029 0.150000
0.003958 0.000032 0.150000
0.003724 0.000024 0.150000
0.003794 0.000026 0.150000
0.003599 0.000020 0.150000
0.003659 0.000022 0.150000
0.003366 0.000014 0.150000
0.003541 0.000019 0.150000
0.001494 0.001495 0.150000
0.001551 0.001416 0.150000
0.003302 0.000012 0.150000
0.001603 0.001339 0.150000
0.003232 0.000010 0.150000
0.003030 0.000002 0.150000
0.003094 0.000005 0.150000
0.003161 0.000008 0.150000
0.002970 0.000000 0.150000
0.001648 0.001264 0.150000
0.001813 0.000984 0.150000
0.002141 0.000446 0.150000
0.002911 0.000000 0.150000
0.002795 0.000006 0.150000
0.002853 0.000002 0.150000
0.002553 0.000059 0.150000
0.002678 0.000024 0.150000
0.002370 0.000140 0.150000
0.002422 0.000113 0.150000
0.002243 0.000254 0.150000
0.002266 0.000223 0.150000
0.002205 0.000321 0.150000
0.002224 0.000286 0.150000
0.002166 0.000400 0.150000
3 0 1 2
3 0 2 3
3 4 5 6
3 4 6 7
3 8 4 7
3 8 7 9
3 10 8 9
3 10 9 11
3 12 13 14
3 14 10 11
3 15 12 14
3 11 15 14
3 16 17 18
3 16 18 19
3 20 21 22
3 22 16 19
3 23 20 22
3 19 23 22
3 24 25 26
3 24 26 27
3 28 29 30
3 28 30 31
3 32 33 34
3 32 34 35
3 36 37 38
3 36 38 39
3 40 41 42
3 42 36 39
3 43 40 42
3 39 43 42
3 44 45 46
3 46 47 48
3 48 49 50
3 50 51 52
3 52 53 26
3 26 25 54
3 54 55 56
3 56 57 58
3 59 60 61
3 54 56 58
3 54 58 59
3 52 26 54
3 48 50 52
3 44 46 48
3 62 44 48
3 48 52 54
3 48 54 59
3 63 62 48
3 64 63 48
3 48 59 61
3 48 61 65
3 66 64 48
3 67 68 66
3 69 70 67
3 71 72 69
3 73 74 71
3 75 76 77
3 73 71 69
3 78 75 77
3 73 69 67
3 78 77 73
3 79 80 78
3 81 82 79
3 83 84 81
3 85 86 83
3 87 88 85
3 89 90 87
3 91 92 89
3 42 41 91
3 37 36 42
3 93 94 37
3 95 96 93
3 97 98 95
3 99 100 101
3 97 95 93
3 102 99 101
3 101 97 93
3 93 37 42
3 42 91 89
3 89 87 85
3 85 83 81
3 81 79 78
3 78 73 67
3 67 66 48
3 48 65 103
3 48 103 104
3 78 67 48
3 85 81 78
3 42 89 85
3 101 93 42
3 105 102 101
3 21 106 105
3 16 22 21
3 107 17 16
3 33 108 107
3 109 34 33
3 110 111 109
3 112 113 110
3 114 115 116
3 112 110 109
3 117 114 116
3 112 109 33
3 117 116 112
3 118 119 117
3 120 121 118
3 122 123 120
3 124 125 122
3 126 127 124
3 30 29 126
3 2 1 30
3 128 129 2
3 130 131 128
3 13 132 130
3 8 10 14
3 14 13 130
3 130 128 2
3 2 30 126
3 126 124 122
3 122 120 118
3 118 117 112
3 112 33 107
3 107 16 21
3 21 105 101
3 101 42 85
3 85 78 48
3 48 104 133
3 134 135 136
3 48 133 134
3 101 85 48
3 107 21 101
3 118 112 107
3 126 122 118
3 130 2 126
3 8 14 130
3 5 4 8
3 137 138 5
3 139 140 137
3 141 142 139
3 143 144 141
3 145 146 143
3 147 148 145
3 149 150 147
3 134 136 149
3 101 48 134
3 118 107 101
3 130 126 118
3 5 8 130
3 139 137 5
3 143 141 139
3 147 145 143
3 134 149 147
3 118 101 134
3 5 130 118
3 143 139 5
3 134 147 143
3 5 118 134
3 134 143 5
3 151 105 106
3 151 106 152
3 153 91 41
3 153 41 40
3 151 152 20
3 20 23 19
3 19 18 154
3 154 155 32
3 32 35 156
3 156 157 158
3 158 159 160
3 161 162 163
3 156 158 160
3 161 163 164
3 32 156 160
3 160 161 164
3 164 165 166
3 166 167 168
3 168 169 170
3 170 171 172
3 172 173 174
3 174 28 31
3 31 0 3
3 3 175 176
3 176 177 178
3 178 179 12
3 15 11 9
3 178 12 15
3 3 176 178
3 174 31 3
3 170 172 174
3 166 168 170
3 160 164 166
3 154 32 160
3 20 19 154
3 180 151 20
3 181 182 180
3 183 181 180
3 180 20 154
3 154 160 166
3 166 170 174
3 174 3 178
3 178 15 9
3 9 7 6
3 6 184 185
3 185 186 187
3 187 188 189
3 189 190 191
3 191 192 193
3 193 194 195
3 195 196 197
3 197 198 199
3 197 199 200
3 193 195 197
3 189 191 193
3 185 187 189
3 9 6 185
3 174 178 9
3 154 166 174
3 183 180 154
3 201 202 203
3 203 183 154
3 154 174 9
3 9 185 189
3 189 193 197
3 189 197 200
3 154 9 189
3 201 203 154
3 204 205 201
3 38 206 204
3 43 39 38
3 153 40 43
3 207 208 153
3 209 210 207
3 211 212 209
3 213 214 211
3 215 216 213
3 217 218 215
3 219 220 217
3 221 222 219
3 223 221 219
3 219 217 215
3 215 213 211
3 211 209 207
3 207 153 43
3 43 38 204
3 204 201 154
3 154 189 200
3 154 200 224
3 43 204 154
3 211 207 43
3 219 215 211
3 225 223 219
3 226 227 225
3 228 229 226
3 230 231 228
3 232 233 230
3 232 230 228
3 228 226 225
3 225 219 211
3 211 43 154
3 154 224 234
3 154 234 235
3 225 211 154
3 232 228 225
3 236 232 225
3 225 154 235
3 225 235 237
3 238 236 225
3 239 240 241
3 238 225 237
3 242 239 241
3 241 238 237
3 243 244 245
3 241 237 243
3 246 242 241
3 247 248 246
3 249 250 247
3 251 252 249
3 24 27 251
3 253 254 24
3 255 256 253
3 257 255 253
3 253 24 251
3 251 249 247
3 247 246 241
3 241 243 245
3 257 253 251
3 241 245 257
3 251 247 241
3 257 251 241
3 180 102 105
3 180 105 151
3 18 17 107
3 18 107 154
3 250 50 49
3 250 49 247
3 27 26 53
3 27 53 251
3 86 85 88
3 88 87 209
3 88 209 212
3 83 86 88
3 214 213 83
3 88 212 211
3 211 214 83
3 88 211 83
3 112 160 159
3 112 159 113
3 254 54 25
3 254 25 24
3 2 129 175
3 2 175 3
3 251 53 52
3 251 52 252
3 253 55 54
3 253 54 254
3 210 90 89
3 210 89 207
3 215 81 84
3 215 84 216
3 208 92 91
3 208 91 153
3 144 143 191
3 144 191 190
3 141 144 190
3 141 190 189
3 187 139 142
3 142 141 189
3 188 187 142
3 189 188 142
3 59 58 57
3 56 55 253
3 60 59 57
3 57 56 253
3 57 253 256
3 65 61 60
3 60 57 256
3 60 256 255
3 237 65 60
3 243 237 60
3 60 255 257
3 60 257 245
3 244 243 60
3 245 244 60
3 34 109 111
3 111 110 113
3 113 159 158
3 113 158 157
3 34 111 113
3 156 35 34
3 113 157 156
3 113 156 34
3 155 108 33
3 155 33 32
3 106 21 20
3 106 20 152
3 207 89 92
3 207 92 208
3 252 52 51
3 252 51 249
3 217 79 82
3 217 82 218
3 94 93 96
3 96 95 201
3 96 201 205
3 206 94 96
3 96 205 204
3 96 204 206
3 99 102 180
3 99 180 182
3 101 99 182
3 101 182 181
3 97 101 181
3 97 181 183
3 201 95 97
3 202 201 97
3 97 183 203
3 203 202 97
3 161 160 112
3 161 112 116
3 162 161 116
3 117 164 163
3 163 162 116
3 116 117 163
3 154 107 108
3 154 108 155
3 103 65 237
3 103 237 235
3 104 103 235
3 104 235 234
3 133 104 234
3 133 234 224
3 134 133 224
3 134 224 200
3 198 136 135
3 135 134 200
3 199 198 135
3 200 199 135
3 216 84 83
3 216 83 213
3 80 79 217
3 80 217 220
3 78 80 220
3 78 220 219
3 75 78 219
3 75 219 222
3 73 77 76
3 76 75 222
3 76 222 221
3 74 73 76
3 71 74 76
3 76 221 223
3 76 223 225
3 71 76 225
3 71 225 227
3 72 71 227
3 72 227 226
3 69 72 226
3 69 226 229
3 70 69 229
3 70 229 228
3 67 70 228
3 67 228 231
3 64 66 68
3 68 67 231
3 68 231 230
3 63 64 68
3 44 62 63
3 45 44 63
3 63 68 230
3 63 230 233
3 45 63 233
3 45 233 232
3 46 45 232
3 46 232 236
3 47 46 236
3 47 236 238
3 247 49 48
3 48 47 238
3 48 238 241
3 248 247 48
3 246 248 48
3 48 241 240
3 48 240 239
3 242 246 48
3 239 242 48
3 177 131 130
3 177 130 178
3 139 187 186
3 139 186 185
3 184 6 5
3 139 185 184
3 139 184 5
3 249 51 50
3 249 50 250
3 176 128 131
3 176 131 177
3 94 206 38
3 94 38 37
3 31 30 1
3 31 1 0
3 126 29 28
3 126 28 174
3 127 126 174
3 127 174 173
3 124 127 173
3 124 173 172
3 125 124 172
3 125 172 171
3 122 125 171
3 122 171 170
3 123 122 170
3 123 170 169
3 120 123 169
3 120 169 168
3 121 120 168
3 121 168 167
3 118 121 167
3 118 167 166
3 164 117 119
3 119 118 166
3 165 164 119
3 166 165 119
3 129 128 176
3 129 176 175
3 218 82 81
3 218 81 215
3 178 130 132
3 178 132 179
3 209 87 90
3 209 90 210
3 192 191 143
3 149 136 198
3 149 198 197
3 145 147 149
3 192 143 145
3 193 192 145
3 145 149 197
3 145 197 196
3 194 193 145
3 145 196 195
3 145 195 194
3 179 132 13
3 179 13 12
