ply
format ascii 1.0
comment Created by Blender 3.6.8 - www.blender.org
element vertex 122
property float x
property float y
property float z
element face 239
property list uchar uint vertex_indices
end_header
0.004765 0.002913 0.000000
0.006758 0.004210 0.000000
0.006758 0.004210 0.150000
0.004765 0.002913 0.150000
0.000570 0.000121 0.150000
0.000570 0.000121 0.000000
0.000733 0.000064 0.000000
0.000733 0.000064 0.150000
0.007247 0.005000 0.000000
0.007377 0.005437 0.000000
0.007377 0.005437 0.150000
0.007247 0.005000 0.150000
0.000421 0.000191 0.150000
0.000421 0.000191 0.000000
0.005192 0.008141 0.150000
0.005192 0.008141 0.000000
0.004718 0.008185 0.000000
0.004718 0.008185 0.150000
0.007016 0.004484 0.150000
0.007016 0.004484 0.000000
0.007095 0.004628 0.000000
0.007095 0.004628 0.150000
0.001611 0.000075 0.150000
0.001611 0.000075 0.000000
0.001765 0.000153 0.000000
0.001765 0.000153 0.150000
0.006108 0.007942 0.150000
0.005850 0.008012 0.150000
0.005532 0.008082 0.150000
0.004589 0.008182 0.150000
0.004481 0.008168 0.150000
0.004400 0.008141 0.150000
0.004328 0.008106 0.150000
0.004163 0.008025 0.150000
0.004071 0.007980 0.150000
0.003976 0.007932 0.150000
0.003879 0.007883 0.150000
0.003781 0.007833 0.150000
0.003684 0.007781 0.150000
0.003589 0.007729 0.150000
0.003498 0.007677 0.150000
0.003412 0.007626 0.150000
0.003333 0.007575 0.150000
0.002188 0.006828 0.150000
0.000902 0.005024 0.150000
0.000485 0.004418 0.150000
0.000328 0.004180 0.150000
0.000223 0.004007 0.150000
0.000179 0.003914 0.150000
0.000044 0.002151 0.150000
0.000048 0.001566 0.150000
0.000001 0.000982 0.150000
0.000011 0.000767 0.150000
0.000031 0.000663 0.150000
0.000065 0.000561 0.150000
0.000114 0.000461 0.150000
0.000189 0.000363 0.150000
0.000293 0.000273 0.150000
0.000907 0.000024 0.150000
0.001087 0.000003 0.150000
0.001267 0.000003 0.150000
0.001443 0.000026 0.150000
0.006940 0.004379 0.150000
0.006343 0.007820 0.150000
0.006222 0.007894 0.150000
0.006733 0.007481 0.150000
0.006471 0.007723 0.150000
0.006986 0.007199 0.150000
0.006862 0.007342 0.150000
0.007440 0.006544 0.150000
0.007209 0.006912 0.150000
0.007493 0.006268 0.150000
0.007478 0.006423 0.150000
0.007466 0.005879 0.150000
0.004589 0.008182 0.000000
0.003589 0.007729 0.000000
0.003684 0.007781 0.000000
0.003781 0.007833 0.000000
0.003879 0.007883 0.000000
0.003976 0.007932 0.000000
0.004071 0.007980 0.000000
0.004163 0.008025 0.000000
0.004328 0.008106 0.000000
0.004400 0.008141 0.000000
0.004481 0.008168 0.000000
0.003412 0.007626 0.000000
0.003498 0.007677 0.000000
0.002188 0.006828 0.000000
0.003333 0.007575 0.000000
0.000485 0.004418 0.000000
0.000902 0.005024 0.000000
0.000223 0.004007 0.000000
0.000328 0.004180 0.000000
0.000044 0.002151 0.000000
0.000179 0.003914 0.000000
0.000011 0.000767 0.000000
0.000001 0.000982 0.000000
0.000048 0.001566 0.000000
0.005532 0.008082 0.000000
0.005850 0.008012 0.000000
0.006108 0.007942 0.000000
0.006222 0.007894 0.000000
0.006343 0.007820 0.000000
0.006471 0.007723 0.000000
0.006733 0.007481 0.000000
0.006862 0.007342 0.000000
0.006986 0.007199 0.000000
0.007209 0.006912 0.000000
0.007440 0.006544 0.000000
0.007478 0.006423 0.000000
0.007493 0.006268 0.000000
0.007466 0.005879 0.000000
0.006940 0.004379 0.000000
0.000065 0.000561 0.000000
0.000031 0.000663 0.000000
0.000189 0.000363 0.000000
0.000114 0.000461 0.000000
0.000293 0.000273 0.000000
0.001087 0.000003 0.000000
0.000907 0.000024 0.000000
0.001443 0.000026 0.000000
0.001267 0.000003 0.000000
3 0 1 2
3 0 2 3
3 4 5 6
3 4 6 7
3 8 9 10
3 8 10 11
3 12 13 5
3 12 5 4
3 14 15 16
3 14 16 17
3 18 19 20
3 18 20 21
3 22 23 24
3 22 24 25
3 26 27 28
3 28 14 17
3 17 29 30
3 30 31 32
3 32 33 34
3 34 35 36
3 36 37 38
3 38 39 40
3 40 41 42
3 42 43 44
3 44 45 46
3 46 47 48
3 48 49 50
3 50 51 52
3 52 53 54
3 54 55 56
3 56 57 12
3 12 4 7
3 7 58 59
3 59 60 61
3 61 22 25
3 3 2 62
3 61 25 3
3 7 59 61
3 56 12 7
3 52 54 56
3 48 50 52
3 44 46 48
3 40 42 44
3 36 38 40
3 32 34 36
3 17 30 32
3 26 28 17
3 63 64 26
3 65 66 63
3 67 68 65
3 69 70 67
3 71 72 69
3 10 73 71
3 21 11 10
3 62 18 21
3 7 61 3
3 3 62 21
3 21 10 71
3 71 69 67
3 67 65 63
3 63 26 17
3 17 32 36
3 36 40 44
3 44 48 52
3 52 56 7
3 7 3 21
3 21 71 67
3 67 63 17
3 17 36 44
3 44 52 7
3 7 21 67
3 67 17 44
3 44 7 67
3 17 16 74
3 17 74 29
3 75 76 77
3 77 78 79
3 79 80 81
3 82 83 84
3 79 81 82
3 75 77 79
3 85 86 75
3 87 88 85
3 89 90 87
3 91 92 89
3 93 94 91
3 95 96 97
3 97 93 91
3 91 89 87
3 87 85 75
3 75 79 82
3 82 84 74
3 74 16 15
3 15 98 99
3 99 100 101
3 101 102 103
3 103 104 105
3 105 106 107
3 107 108 109
3 109 110 111
3 111 9 8
3 8 20 19
3 19 112 1
3 0 24 23
3 19 1 0
3 111 8 19
3 107 109 111
3 103 105 107
3 99 101 103
3 74 15 99
3 75 82 74
3 91 87 75
3 95 97 91
3 113 114 95
3 115 116 113
3 13 117 115
3 6 5 13
3 118 119 6
3 120 121 118
3 0 23 120
3 111 19 0
3 103 107 111
3 74 99 103
3 91 75 74
3 113 95 91
3 13 115 113
3 118 6 13
3 0 120 118
3 103 111 0
3 91 74 103
3 13 113 91
3 0 118 13
3 91 103 0
3 0 13 91
3 95 52 51
3 95 51 96
3 52 95 114
3 52 114 53
3 72 109 108
3 72 108 69
3 60 121 120
3 60 120 61
3 47 91 94
3 47 94 48
3 54 113 116
3 54 116 55
3 66 103 102
3 66 102 63
3 59 118 121
3 59 121 60
3 9 111 73
3 9 73 10
3 58 119 118
3 58 118 59
3 76 75 39
3 76 39 38
3 77 76 38
3 77 38 37
3 78 77 37
3 78 37 36
3 79 78 36
3 79 36 35
3 80 79 35
3 80 35 34
3 83 82 81
3 81 80 34
3 81 34 33
3 31 83 81
3 81 33 32
3 32 31 81
3 64 101 100
3 64 100 26
3 40 39 75
3 40 75 86
3 41 40 86
3 41 86 85
3 87 43 42
3 42 41 85
3 88 87 42
3 85 88 42
3 56 115 117
3 56 117 57
3 24 0 3
3 24 3 25
3 62 112 19
3 62 19 18
3 92 91 47
3 92 47 46
3 89 92 46
3 89 46 45
3 43 87 90
3 90 89 45
3 44 43 90
3 45 44 90
3 29 74 84
3 29 84 30
3 63 102 101
3 63 101 64
3 7 6 119
3 7 119 58
3 108 107 70
3 108 70 69
3 48 94 93
3 97 96 51
3 48 93 97
3 49 48 97
3 97 51 50
3 97 50 49
3 61 120 23
3 61 23 22
3 2 1 112
3 2 112 62
3 57 117 13
3 57 13 12
3 105 104 65
3 105 65 68
3 70 107 105
3 105 68 67
3 105 67 70
3 98 15 14
3 98 14 28
3 26 100 99
3 99 98 28
3 27 26 99
3 28 27 99
3 111 110 71
3 111 71 73
3 53 114 113
3 53 113 54
3 71 110 109
3 71 109 72
3 65 104 103
3 65 103 66
3 30 84 83
3 30 83 31
3 55 116 115
3 55 115 56
3 21 20 8
3 21 8 11
