ply
format ascii 1.0
comment Created by Blender 3.6.8 - www.blender.org
element vertex 168
property float x
property float y
property float z
element face 327
property list uchar uint vertex_indices
end_header
0.002728 0.009820 0.000000
0.002500 0.009759 0.000000
0.002500 0.009759 0.150000
0.002728 0.009820 0.150000
0.002265 0.009664 0.000000
0.002028 0.009523 0.000000
0.002028 0.009523 0.150000
0.002265 0.009664 0.150000
0.003848 0.009781 0.000000
0.003292 0.009885 0.000000
0.003292 0.009885 0.150000
0.003848 0.009781 0.150000
0.003144 0.009889 0.000000
0.003144 0.009889 0.150000
0.006325 0.009057 0.150000
0.005508 0.009327 0.150000
0.003047 0.009874 0.150000
0.002945 0.009859 0.150000
0.002838 0.009841 0.150000
0.001910 0.009432 0.150000
0.001793 0.009325 0.150000
0.001677 0.009210 0.150000
0.001558 0.009096 0.150000
0.006942 0.008810 0.150000
0.006667 0.008928 0.150000
0.007608 0.008367 0.150000
0.007132 0.008708 0.150000
0.008077 0.007946 0.150000
0.007895 0.008121 0.150000
0.008758 0.007191 0.150000
0.008476 0.007532 0.150000
0.008932 0.006950 0.150000
0.008846 0.007073 0.150000
0.009279 0.006397 0.150000
0.009103 0.006687 0.150000
0.009875 0.005196 0.150000
0.009562 0.005897 0.150000
0.010159 0.003872 0.150000
0.010039 0.004649 0.150000
0.010129 0.003484 0.150000
0.010159 0.003674 0.150000
0.009994 0.003125 0.150000
0.010073 0.003302 0.150000
0.008688 0.001414 0.150000
0.009783 0.002785 0.150000
0.007472 0.000405 0.150000
0.008194 0.000936 0.150000
0.006760 0.000034 0.150000
0.006939 0.000102 0.150000
0.006360 0.000005 0.150000
0.006566 0.000003 0.150000
0.005677 0.000171 0.150000
0.006142 0.000035 0.150000
0.005182 0.000382 0.150000
0.005432 0.000269 0.150000
0.003897 0.001065 0.150000
0.004145 0.000922 0.150000
0.003275 0.001525 0.150000
0.003672 0.001212 0.150000
0.002586 0.002263 0.150000
0.002923 0.001872 0.150000
0.001049 0.004267 0.150000
0.001417 0.003761 0.150000
0.000062 0.005768 0.150000
0.000064 0.005752 0.150000
0.000049 0.005882 0.150000
0.000057 0.005813 0.150000
0.000029 0.006078 0.150000
0.000039 0.005972 0.150000
0.000010 0.006319 0.150000
0.000019 0.006195 0.150000
0.000000 0.006573 0.150000
0.000004 0.006447 0.150000
0.000006 0.006803 0.150000
0.000001 0.006693 0.150000
0.000062 0.007074 0.150000
0.000018 0.006899 0.150000
0.000178 0.007343 0.150000
0.000134 0.007253 0.150000
0.000279 0.007528 0.150000
0.000226 0.007435 0.150000
0.000508 0.007914 0.150000
0.000334 0.007622 0.150000
0.000631 0.008118 0.150000
0.000567 0.008015 0.150000
0.000987 0.008541 0.150000
0.000886 0.008434 0.150000
0.001206 0.008760 0.150000
0.001094 0.008650 0.150000
0.001439 0.008983 0.150000
0.001322 0.008870 0.150000
0.000000 0.006573 0.000000
0.000004 0.006447 0.000000
0.000006 0.006803 0.000000
0.000001 0.006693 0.000000
0.003047 0.009874 0.000000
0.002945 0.009859 0.000000
0.002838 0.009841 0.000000
0.010129 0.003484 0.000000
0.010159 0.003674 0.000000
0.010159 0.003872 0.000000
0.002923 0.001872 0.000000
0.003275 0.001525 0.000000
0.005432 0.000269 0.000000
0.005677 0.000171 0.000000
0.005182 0.000382 0.000000
0.003897 0.001065 0.000000
0.004145 0.000922 0.000000
0.008194 0.000936 0.000000
0.007472 0.000405 0.000000
0.006760 0.000034 0.000000
0.006939 0.000102 0.000000
0.008758 0.007191 0.000000
0.008476 0.007532 0.000000
0.006942 0.008810 0.000000
0.006667 0.008928 0.000000
0.010039 0.004649 0.000000
0.009875 0.005196 0.000000
0.000062 0.005768 0.000000
0.000064 0.005752 0.000000
0.000057 0.005813 0.000000
0.000049 0.005882 0.000000
0.000039 0.005972 0.000000
0.000029 0.006078 0.000000
0.000019 0.006195 0.000000
0.000010 0.006319 0.000000
0.000018 0.006899 0.000000
0.000134 0.007253 0.000000
0.000062 0.007074 0.000000
0.009994 0.003125 0.000000
0.010073 0.003302 0.000000
0.006566 0.000003 0.000000
0.002586 0.002263 0.000000
0.001417 0.003761 0.000000
0.001049 0.004267 0.000000
0.006360 0.000005 0.000000
0.001206 0.008760 0.000000
0.001322 0.008870 0.000000
0.001439 0.008983 0.000000
0.001558 0.009096 0.000000
0.000987 0.008541 0.000000
0.001094 0.008650 0.000000
0.000631 0.008118 0.000000
0.000886 0.008434 0.000000
0.000508 0.007914 0.000000
0.000567 0.008015 0.000000
0.000279 0.007528 0.000000
0.000334 0.007622 0.000000
0.000178 0.007343 0.000000
0.000226 0.007435 0.000000
0.003672 0.001212 0.000000
0.006142 0.000035 0.000000
0.008688 0.001414 0.000000
0.009783 0.002785 0.000000
0.009279 0.006397 0.000000
0.009562 0.005897 0.000000
0.008932 0.006950 0.000000
0.009103 0.006687 0.000000
0.008846 0.007073 0.000000
0.008077 0.007946 0.000000
0.007608 0.008367 0.000000
0.007895 0.008121 0.000000
0.007132 0.008708 0.000000
0.006325 0.009057 0.000000
0.005508 0.009327 0.000000
0.001910 0.009432 0.000000
0.001677 0.009210 0.000000
0.001793 0.009325 0.000000
3 0 1 2
3 0 2 3
3 4 5 6
3 4 6 7
3 8 9 10
3 8 10 11
3 10 9 12
3 10 12 13
3 14 15 11
3 11 10 13
3 13 16 17
3 17 18 3
3 3 2 7
3 7 6 19
3 19 20 21
3 19 21 22
3 3 7 19
3 13 17 3
3 14 11 13
3 23 24 14
3 25 26 23
3 27 28 25
3 29 30 27
3 31 32 29
3 33 34 31
3 35 36 33
3 37 38 35
3 39 40 37
3 41 42 39
3 43 44 41
3 45 46 43
3 47 48 45
3 49 50 47
3 51 52 49
3 53 54 51
3 55 56 53
3 57 58 55
3 59 60 57
3 61 62 59
3 63 64 61
3 65 66 63
3 67 68 65
3 69 70 67
3 71 72 69
3 73 74 71
3 75 76 73
3 77 78 75
3 79 80 77
3 81 82 79
3 83 84 81
3 85 86 83
3 87 88 85
3 89 90 87
3 3 19 22
3 22 89 87
3 87 85 83
3 83 81 79
3 79 77 75
3 75 73 71
3 71 69 67
3 67 65 63
3 63 61 59
3 59 57 55
3 55 53 51
3 51 49 47
3 47 45 43
3 43 41 39
3 39 37 35
3 35 33 31
3 31 29 27
3 27 25 23
3 23 14 13
3 13 3 22
3 22 87 83
3 83 79 75
3 75 71 67
3 67 63 59
3 59 55 51
3 51 47 43
3 43 39 35
3 35 31 27
3 27 23 13
3 13 22 83
3 83 75 67
3 67 59 51
3 51 43 35
3 35 27 13
3 13 83 67
3 67 51 35
3 13 67 35
3 2 1 4
3 2 4 7
3 91 92 72
3 91 72 71
3 73 93 94
3 94 91 71
3 74 73 94
3 94 71 74
3 16 13 12
3 12 95 96
3 96 97 0
3 0 3 18
3 17 16 12
3 0 18 17
3 12 96 0
3 12 0 17
3 39 98 99
3 39 99 40
3 40 99 100
3 40 100 37
3 60 101 102
3 60 102 57
3 103 104 51
3 103 51 54
3 105 103 54
3 105 54 53
3 55 106 107
3 107 105 53
3 56 55 107
3 53 56 107
3 108 46 45
3 108 45 109
3 47 110 111
3 47 111 48
3 112 113 30
3 112 30 29
3 23 114 115
3 23 115 24
3 116 117 35
3 116 35 38
3 118 119 64
3 118 64 63
3 120 118 63
3 120 63 66
3 121 120 66
3 121 66 65
3 122 121 65
3 122 65 68
3 123 122 68
3 123 68 67
3 124 123 67
3 124 67 70
3 72 92 125
3 125 124 70
3 69 72 125
3 70 69 125
3 76 126 93
3 76 93 73
3 127 128 75
3 127 75 78
3 41 129 130
3 41 130 42
3 50 131 110
3 50 110 47
3 132 101 60
3 132 60 59
3 133 132 59
3 133 59 62
3 64 119 134
3 134 133 62
3 61 64 134
3 62 61 134
3 49 135 131
3 49 131 50
3 136 137 138
3 136 138 139
3 140 141 136
3 142 143 140
3 144 145 142
3 146 147 144
3 148 149 146
3 128 127 148
3 93 126 128
3 91 94 93
3 125 92 91
3 123 124 125
3 121 122 123
3 118 120 121
3 134 119 118
3 132 133 134
3 102 101 132
3 106 150 102
3 105 107 106
3 104 103 105
3 135 151 104
3 110 131 135
3 109 111 110
3 152 108 109
3 129 153 152
3 98 130 129
3 100 99 98
3 117 116 100
3 154 155 117
3 156 157 154
3 112 158 156
3 159 113 112
3 160 161 159
3 114 162 160
3 163 115 114
3 8 164 163
3 12 9 8
3 4 1 0
3 165 5 4
3 166 167 165
3 140 136 139
3 139 166 165
3 165 4 0
3 12 8 163
3 163 114 160
3 160 159 112
3 112 156 154
3 154 117 100
3 100 98 129
3 129 152 109
3 109 110 135
3 135 104 105
3 105 106 102
3 102 132 134
3 134 118 121
3 121 123 125
3 125 91 93
3 93 128 148
3 148 146 144
3 144 142 140
3 140 139 165
3 165 0 12
3 12 163 160
3 160 112 154
3 154 100 129
3 129 109 135
3 135 105 102
3 102 134 121
3 121 125 93
3 93 148 144
3 144 140 165
3 165 12 160
3 160 154 129
3 129 135 102
3 102 121 93
3 93 144 165
3 165 160 129
3 129 102 93
3 165 129 93
3 46 108 152
3 46 152 43
3 57 102 150
3 57 150 58
3 26 162 114
3 26 114 23
3 164 8 11
3 164 11 15
3 24 115 163
3 163 164 15
3 14 24 163
3 163 15 14
3 30 113 159
3 161 160 25
3 30 159 161
3 27 30 161
3 161 25 28
3 161 28 27
3 42 130 98
3 42 98 39
3 100 116 38
3 100 38 37
3 153 44 43
3 153 43 152
3 75 128 126
3 75 126 76
3 143 142 83
3 143 83 86
3 111 109 45
3 111 45 48
3 148 127 78
3 148 78 77
3 147 146 148
3 144 147 148
3 148 77 80
3 148 80 79
3 142 144 148
3 84 83 142
3 81 84 142
3 142 148 79
3 82 81 142
3 79 82 142
3 35 117 155
3 35 155 36
3 44 153 129
3 44 129 41
3 52 151 135
3 52 135 49
3 58 150 106
3 58 106 55
3 140 143 86
3 140 86 85
3 141 140 85
3 141 85 88
3 136 141 88
3 136 88 87
3 137 136 87
3 137 87 90
3 138 137 90
3 138 90 89
3 139 138 89
3 139 89 22
3 166 139 22
3 166 22 21
3 19 165 167
3 167 166 21
3 20 19 167
3 21 20 167
3 157 156 158
3 158 112 29
3 158 29 32
3 154 157 158
3 36 155 154
3 33 36 154
3 154 158 32
3 154 32 31
3 34 33 154
3 31 34 154
3 6 5 165
3 6 165 19
3 51 104 151
3 51 151 52
3 160 162 26
3 160 26 25
