ply
format ascii 1.0
comment Created by Blender 3.6.8 - www.blender.org
element vertex 104
property float x
property float y
property float z
element face 204
property list uchar uint vertex_indices
end_header
0.001013 0.000009 0.150000
0.001013 0.000009 0.000000
0.001099 0.000000 0.000000
0.001099 0.000000 0.150000
0.003591 0.004121 0.000000
0.000000 0.004120 0.000000
0.000000 0.004120 0.150000
0.003591 0.004121 0.150000
0.000331 0.000765 0.150000
0.000331 0.000765 0.000000
0.000380 0.000675 0.000000
0.000380 0.000675 0.150000
0.000256 0.001071 0.150000
0.000256 0.001071 0.000000
0.000271 0.000963 0.000000
0.000271 0.000963 0.150000
0.000232 0.002687 0.000000
0.000252 0.002480 0.000000
0.000252 0.002480 0.150000
0.000232 0.002687 0.150000
0.000206 0.002895 0.000000
0.000206 0.002895 0.150000
0.000176 0.003101 0.000000
0.000176 0.003101 0.150000
0.000144 0.003300 0.000000
0.000144 0.003300 0.150000
0.000112 0.003488 0.000000
0.000112 0.003488 0.150000
0.000028 0.003945 0.000000
0.000052 0.003815 0.000000
0.000080 0.003661 0.000000
0.000080 0.003661 0.150000
0.000010 0.004049 0.000000
0.000010 0.004049 0.150000
0.000052 0.003815 0.150000
0.000028 0.003945 0.150000
0.000937 0.000034 0.000000
0.000868 0.000074 0.000000
0.000806 0.000126 0.000000
0.000747 0.000189 0.000000
0.000690 0.000260 0.000000
0.000575 0.000420 0.000000
0.000512 0.000504 0.000000
0.000444 0.000589 0.000000
0.001196 0.000010 0.000000
0.001538 0.000136 0.000000
0.001307 0.000041 0.000000
0.001956 0.000411 0.000000
0.001754 0.000258 0.000000
0.002322 0.000827 0.000000
0.002145 0.000600 0.000000
0.003863 0.003503 0.000000
0.003834 0.003441 0.000000
0.003112 0.002364 0.000000
0.003880 0.003562 0.000000
0.003877 0.003678 0.000000
0.003885 0.003620 0.000000
0.003830 0.003972 0.000000
0.003840 0.003932 0.000000
0.003865 0.003735 0.000000
0.000295 0.000861 0.000000
0.000249 0.001188 0.000000
0.000248 0.001312 0.000000
0.000271 0.002089 0.000000
0.003814 0.004008 0.000000
0.003760 0.004068 0.000000
0.003792 0.004040 0.000000
0.003661 0.004108 0.000000
0.003717 0.004091 0.000000
0.000266 0.002280 0.000000
0.000295 0.000861 0.150000
0.000444 0.000589 0.150000
0.000512 0.000504 0.150000
0.000747 0.000189 0.150000
0.000690 0.000260 0.150000
0.000575 0.000420 0.150000
0.003661 0.004108 0.150000
0.001196 0.000010 0.150000
0.001307 0.000041 0.150000
0.001754 0.000258 0.150000
0.001538 0.000136 0.150000
0.003112 0.002364 0.150000
0.003834 0.003441 0.150000
0.003863 0.003503 0.150000
0.003880 0.003562 0.150000
0.003885 0.003620 0.150000
0.003877 0.003678 0.150000
0.003865 0.003735 0.150000
0.003840 0.003932 0.150000
0.003830 0.003972 0.150000
0.003814 0.004008 0.150000
0.003792 0.004040 0.150000
0.003760 0.004068 0.150000
0.003717 0.004091 0.150000
0.002145 0.000600 0.150000
0.002322 0.000827 0.150000
0.001956 0.000411 0.150000
0.000937 0.000034 0.150000
0.000806 0.000126 0.150000
0.000868 0.000074 0.150000
0.000248 0.001312 0.150000
0.000249 0.001188 0.150000
0.000271 0.002089 0.150000
0.000266 0.002280 0.150000
3 0 1 2
3 0 2 3
3 4 5 6
3 4 6 7
3 8 9 10
3 8 10 11
3 12 13 14
3 12 14 15
3 16 17 18
3 16 18 19
3 20 16 19
3 20 19 21
3 22 20 21
3 22 21 23
3 24 22 23
3 24 23 25
3 26 24 25
3 26 25 27
3 28 29 30
3 30 26 27
3 30 27 31
3 32 28 30
3 6 5 32
3 33 6 32
3 32 30 31
3 32 31 34
3 35 33 32
3 34 35 32
3 1 36 37
3 37 38 39
3 39 40 41
3 42 43 10
3 39 41 42
3 1 37 39
3 44 2 1
3 45 46 44
3 47 48 45
3 49 50 47
3 51 52 53
3 53 49 47
3 47 45 44
3 44 1 39
3 42 10 9
3 44 39 42
3 53 47 44
3 54 51 53
3 55 56 54
3 57 58 59
3 59 55 54
3 54 53 44
3 44 42 9
3 9 60 14
3 14 13 61
3 61 62 63
3 14 61 63
3 44 9 14
3 59 54 44
3 64 57 59
3 65 66 64
3 67 68 65
3 5 4 67
3 29 28 32
3 30 29 32
3 32 5 67
3 67 65 64
3 64 59 44
3 44 14 63
3 44 63 69
3 67 64 44
3 30 32 67
3 26 30 67
3 67 44 69
3 67 69 17
3 24 26 67
3 22 24 67
3 67 17 16
3 20 22 67
3 16 20 67
3 15 14 60
3 15 60 70
3 71 11 10
3 43 42 41
3 71 10 43
3 72 71 43
3 43 41 40
3 40 39 73
3 40 73 74
3 72 43 40
3 40 74 75
3 40 75 72
3 76 67 4
3 76 4 7
3 77 44 46
3 77 46 78
3 45 48 79
3 45 79 80
3 81 82 83
3 83 84 85
3 85 86 87
3 87 88 89
3 89 90 91
3 91 92 93
3 93 76 7
3 6 33 35
3 35 34 31
3 6 35 31
3 93 7 6
3 89 91 93
3 83 85 87
3 87 89 93
3 93 6 31
3 93 31 27
3 83 87 93
3 94 95 81
3 81 83 93
3 93 27 25
3 93 25 23
3 94 81 93
3 79 96 94
3 78 80 79
3 3 77 78
3 97 0 3
3 98 99 97
3 74 73 98
3 75 74 98
3 98 97 3
3 3 78 79
3 79 94 93
3 93 23 21
3 93 21 19
3 3 79 93
3 75 98 3
3 11 71 72
3 72 75 3
3 3 93 19
3 3 19 18
3 11 72 3
3 70 8 11
3 12 15 70
3 100 101 12
3 102 100 12
3 12 70 11
3 11 3 18
3 11 18 103
3 102 12 11
3 103 102 11
3 83 51 54
3 83 54 84
3 53 52 82
3 53 82 81
3 91 66 65
3 91 65 92
3 96 47 50
3 96 50 94
3 89 57 64
3 89 64 90
3 70 60 9
3 70 9 8
3 82 52 51
3 82 51 83
3 93 68 67
3 93 67 76
3 48 47 96
3 48 96 79
3 90 64 66
3 90 66 91
3 88 58 57
3 88 57 89
3 98 38 37
3 98 37 99
3 55 59 58
3 58 88 87
3 86 85 56
3 58 87 86
3 86 56 55
3 55 58 86
3 99 37 36
3 99 36 97
3 92 65 68
3 92 68 93
3 95 49 53
3 95 53 81
3 73 39 38
3 73 38 98
3 61 13 12
3 61 12 101
3 62 61 101
3 62 101 100
3 63 62 100
3 63 100 102
3 18 17 69
3 69 63 102
3 103 18 69
3 69 102 103
3 97 36 1
3 97 1 0
3 94 50 49
3 94 49 95
3 3 2 44
3 3 44 77
3 84 54 56
3 84 56 85
3 45 80 78
3 45 78 46
