ply
format ascii 1.0
comment Created by Blender 3.6.8 - www.blender.org
element vertex 162
property float x
property float y
property float z
element face 320
property list uchar uint vertex_indices
end_header
0.005323 0.007490 0.150000
0.005129 0.007529 0.150000
0.005027 0.007539 0.150000
0.004801 0.007534 0.150000
0.004674 0.007519 0.150000
0.003962 0.007422 0.150000
0.003861 0.007405 0.150000
0.003766 0.007386 0.150000
0.003597 0.007341 0.150000
0.003522 0.007314 0.150000
0.003456 0.007282 0.150000
0.003395 0.007252 0.150000
0.006045 0.007182 0.150000
0.005511 0.007427 0.150000
0.006564 0.006789 0.150000
0.006299 0.007013 0.150000
0.006834 0.006519 0.150000
0.006699 0.006660 0.150000
0.007229 0.006046 0.150000
0.007100 0.006212 0.150000
0.007475 0.005696 0.150000
0.007355 0.005874 0.150000
0.007662 0.005343 0.150000
0.007580 0.005519 0.150000
0.007763 0.004983 0.150000
0.007722 0.005166 0.150000
0.007797 0.004373 0.150000
0.007787 0.004793 0.150000
0.007593 0.001902 0.150000
0.007660 0.002324 0.150000
0.007451 0.001493 0.150000
0.007505 0.001609 0.150000
0.007322 0.001284 0.150000
0.007390 0.001387 0.150000
0.006971 0.000783 0.150000
0.007068 0.000918 0.150000
0.007161 0.001057 0.150000
0.006876 0.000676 0.150000
0.006683 0.000531 0.150000
0.006780 0.000594 0.150000
0.005076 0.000042 0.150000
0.006581 0.000484 0.150000
0.004425 0.000005 0.150000
0.004755 0.000004 0.150000
0.004057 0.000033 0.150000
0.004247 0.000016 0.150000
0.003140 0.000122 0.150000
0.003379 0.000097 0.150000
0.002639 0.000228 0.150000
0.002941 0.000152 0.150000
0.002431 0.000321 0.150000
0.002526 0.000272 0.150000
0.002040 0.000616 0.150000
0.002349 0.000373 0.150000
0.000614 0.001648 0.150000
0.001744 0.000813 0.150000
0.000275 0.001961 0.150000
0.000437 0.001798 0.150000
0.000085 0.002227 0.150000
0.000139 0.002136 0.150000
0.000018 0.002477 0.150000
0.000044 0.002337 0.150000
0.000005 0.003009 0.150000
0.000004 0.002641 0.150000
0.001603 0.005190 0.150000
0.000107 0.003976 0.150000
0.001795 0.005370 0.150000
0.001893 0.005469 0.150000
0.003338 0.007227 0.150000
0.003229 0.007181 0.150000
0.003176 0.007156 0.150000
0.003121 0.007125 0.150000
0.003065 0.007086 0.150000
0.002941 0.006973 0.150000
0.002796 0.006795 0.150000
0.002713 0.006675 0.150000
0.002565 0.006442 0.150000
0.002324 0.006015 0.150000
0.001992 0.005575 0.150000
0.002221 0.005857 0.150000
0.002276 0.005937 0.150000
0.003176 0.007156 0.000000
0.003121 0.007125 0.000000
0.002526 0.000272 0.000000
0.002639 0.000228 0.000000
0.000004 0.002641 0.000000
0.000005 0.003009 0.000000
0.006834 0.006519 0.000000
0.007100 0.006212 0.000000
0.007229 0.006046 0.000000
0.007355 0.005874 0.000000
0.007475 0.005696 0.000000
0.007580 0.005519 0.000000
0.007662 0.005343 0.000000
0.007722 0.005166 0.000000
0.007763 0.004983 0.000000
0.007787 0.004793 0.000000
0.007797 0.004373 0.000000
0.007660 0.002324 0.000000
0.007593 0.001902 0.000000
0.007505 0.001609 0.000000
0.007451 0.001493 0.000000
0.007390 0.001387 0.000000
0.007322 0.001284 0.000000
0.007161 0.001057 0.000000
0.007068 0.000918 0.000000
0.006971 0.000783 0.000000
0.006699 0.006660 0.000000
0.006299 0.007013 0.000000
0.006564 0.006789 0.000000
0.005511 0.007427 0.000000
0.006045 0.007182 0.000000
0.005129 0.007529 0.000000
0.005323 0.007490 0.000000
0.004801 0.007534 0.000000
0.005027 0.007539 0.000000
0.003962 0.007422 0.000000
0.004674 0.007519 0.000000
0.003766 0.007386 0.000000
0.003861 0.007405 0.000000
0.003522 0.007314 0.000000
0.003597 0.007341 0.000000
0.003395 0.007252 0.000000
0.003456 0.007282 0.000000
0.003229 0.007181 0.000000
0.003338 0.007227 0.000000
0.006876 0.000676 0.000000
0.006780 0.000594 0.000000
0.006683 0.000531 0.000000
0.006581 0.000484 0.000000
0.005076 0.000042 0.000000
0.004755 0.000004 0.000000
0.004425 0.000005 0.000000
0.004247 0.000016 0.000000
0.004057 0.000033 0.000000
0.003379 0.000097 0.000000
0.003140 0.000122 0.000000
0.002941 0.000152 0.000000
0.002431 0.000321 0.000000
0.002349 0.000373 0.000000
0.002040 0.000616 0.000000
0.001744 0.000813 0.000000
0.000614 0.001648 0.000000
0.003065 0.007086 0.000000
0.002796 0.006795 0.000000
0.002941 0.006973 0.000000
0.002565 0.006442 0.000000
0.002713 0.006675 0.000000
0.002324 0.006015 0.000000
0.000437 0.001798 0.000000
0.000275 0.001961 0.000000
0.000139 0.002136 0.000000
0.000085 0.002227 0.000000
0.000044 0.002337 0.000000
0.000018 0.002477 0.000000
0.000107 0.003976 0.000000
0.001603 0.005190 0.000000
0.002276 0.005937 0.000000
0.001795 0.005370 0.000000
0.001893 0.005469 0.000000
0.002221 0.005857 0.000000
0.001992 0.005575 0.000000
3 0 1 2
3 2 3 4
3 4 5 6
3 6 7 8
3 8 9 10
3 8 10 11
3 4 6 8
3 0 2 4
3 12 13 0
3 14 15 12
3 16 17 14
3 18 19 16
3 20 21 18
3 22 23 20
3 24 25 22
3 26 27 24
3 28 29 26
3 30 31 28
3 32 33 30
3 34 35 36
3 36 32 30
3 30 28 26
3 26 24 22
3 22 20 18
3 18 16 14
3 14 12 0
3 0 4 8
3 0 8 11
3 18 14 0
3 26 22 18
3 36 30 26
3 37 34 36
3 38 39 37
3 40 41 38
3 42 43 40
3 44 45 42
3 46 47 44
3 48 49 46
3 50 51 48
3 52 53 50
3 54 55 52
3 56 57 54
3 58 59 56
3 60 61 58
3 62 63 60
3 64 65 62
3 66 64 62
3 62 60 58
3 58 56 54
3 52 50 48
3 58 54 52
3 66 62 58
3 67 66 58
3 58 52 48
3 48 46 44
3 44 42 40
3 40 38 37
3 37 36 26
3 26 18 0
3 0 11 68
3 68 69 70
3 70 71 72
3 72 73 74
3 74 75 76
3 74 76 77
3 70 72 74
3 0 68 70
3 37 26 0
3 44 40 37
3 58 48 44
3 78 67 58
3 79 78 58
3 58 44 37
3 37 0 70
3 70 74 77
3 80 79 58
3 70 77 80
3 58 37 70
3 70 80 58
3 70 81 82
3 70 82 71
3 51 83 84
3 51 84 48
3 85 63 62
3 85 62 86
3 87 88 89
3 89 90 91
3 91 92 93
3 93 94 95
3 95 96 97
3 97 98 99
3 99 100 101
3 101 102 103
3 104 105 106
3 101 103 104
3 97 99 101
3 93 95 97
3 89 91 93
3 107 87 89
3 108 109 107
3 110 111 108
3 112 113 110
3 114 115 112
3 116 117 114
3 118 119 116
3 120 121 118
3 122 123 120
3 81 124 125
3 122 120 118
3 82 81 125
3 125 122 118
3 118 116 114
3 114 112 110
3 110 108 107
3 107 89 93
3 93 97 101
3 101 104 106
3 106 126 127
3 127 128 129
3 129 130 131
3 131 132 133
3 133 134 135
3 135 136 137
3 137 84 83
3 83 138 139
3 140 141 142
3 83 139 140
3 135 137 83
3 131 133 135
3 127 129 131
3 101 106 127
3 107 93 101
3 114 110 107
3 125 118 114
3 143 82 125
3 144 145 143
3 146 147 144
3 148 146 144
3 144 143 125
3 125 114 107
3 107 101 127
3 127 131 135
3 135 83 140
3 140 142 149
3 149 150 151
3 151 152 153
3 153 154 85
3 85 86 155
3 85 155 156
3 151 153 85
3 140 149 151
3 127 135 140
3 125 107 127
3 148 144 125
3 157 148 125
3 125 127 140
3 140 151 85
3 85 156 158
3 85 158 159
3 125 140 85
3 160 157 125
3 85 159 161
3 161 160 125
3 85 161 125
3 50 138 83
3 50 83 51
3 156 155 65
3 156 65 64
3 58 152 151
3 58 151 59
3 133 132 42
3 133 42 45
3 134 133 45
3 134 45 44
3 135 134 44
3 135 44 47
3 49 137 136
3 136 135 47
3 46 49 136
3 47 46 136
3 119 118 7
3 119 7 6
3 116 119 6
3 116 6 5
3 3 114 117
3 117 116 5
3 4 3 117
3 5 4 117
3 72 143 145
3 72 145 73
3 161 159 158
3 158 156 64
3 158 64 66
3 78 161 158
3 158 66 67
3 158 67 78
3 22 93 92
3 22 92 23
3 89 88 19
3 89 19 18
3 20 91 90
3 90 89 18
3 21 20 90
3 18 21 90
3 41 129 128
3 41 128 38
3 39 127 126
3 39 126 37
3 30 101 100
3 30 100 31
3 98 97 26
3 98 26 29
3 2 115 114
3 2 114 3
3 38 128 127
3 38 127 39
3 122 125 124
3 124 81 70
3 124 70 69
3 123 122 124
3 8 121 120
3 120 123 124
3 124 69 68
3 124 68 11
3 8 120 124
3 9 8 124
3 124 11 10
3 124 10 9
3 139 138 50
3 139 50 53
3 140 139 53
3 140 53 52
3 141 140 52
3 141 52 55
3 57 149 142
3 142 141 55
3 54 57 142
3 55 54 142
3 60 154 153
3 60 153 61
3 25 94 93
3 25 93 22
3 59 151 150
3 59 150 56
3 111 110 13
3 111 13 12
3 43 131 130
3 43 130 40
3 132 131 43
3 132 43 42
3 48 84 137
3 48 137 49
3 118 121 8
3 118 8 7
3 61 153 152
3 61 152 58
3 24 95 94
3 24 94 25
3 113 112 1
3 113 1 0
3 100 99 28
3 100 28 31
3 71 82 143
3 71 143 72
3 155 86 62
3 155 62 65
3 63 85 154
3 63 154 60
3 148 157 160
3 160 79 80
3 160 80 77
3 146 148 160
3 74 144 147
3 146 160 77
3 74 147 146
3 75 74 146
3 146 77 76
3 76 75 146
3 23 92 91
3 23 91 20
3 108 15 14
3 108 14 109
3 160 161 78
3 160 78 79
3 1 112 115
3 1 115 2
3 108 111 12
3 108 12 15
3 129 41 40
3 129 40 130
3 27 96 95
3 27 95 24
3 56 150 149
3 56 149 57
3 13 110 113
3 13 113 0
3 37 126 106
3 37 106 34
3 99 98 29
3 99 29 28
3 97 96 27
3 97 27 26
3 105 104 103
3 102 101 30
3 103 102 30
3 103 30 33
3 34 106 105
3 105 103 33
3 105 33 32
3 35 34 105
3 105 32 36
3 36 35 105
3 107 109 14
3 107 14 17
3 19 88 87
3 87 107 17
3 16 19 87
3 17 16 87
3 145 144 74
3 145 74 73
