ply
format ascii 1.0
comment Created by Blender 3.6.8 - www.blender.org
element vertex 156
property float x
property float y
property float z
element face 304
property list uchar uint vertex_indices
end_header
0.003736 0.000252 0.150000
0.003736 0.000252 0.000000
0.003776 0.000282 0.000000
0.003776 0.000282 0.150000
0.004945 0.001674 0.000000
0.004945 0.001674 0.150000
0.004865 0.001513 0.150000
0.004865 0.001513 0.000000
0.000118 0.002233 0.000000
0.000351 0.001793 0.000000
0.000351 0.001793 0.150000
0.000118 0.002233 0.150000
0.002350 0.000015 0.150000
0.002350 0.000015 0.000000
0.002514 0.000001 0.000000
0.002514 0.000001 0.150000
0.000040 0.002663 0.000000
0.000136 0.002678 0.000000
0.000270 0.002697 0.000000
0.000344 0.002706 0.000000
0.000419 0.002715 0.000000
0.000492 0.002722 0.000000
0.004210 0.002698 0.000000
0.004317 0.002674 0.000000
0.004442 0.002632 0.000000
0.004581 0.002570 0.000000
0.004654 0.002533 0.000000
0.004728 0.002490 0.000000
0.004804 0.002444 0.000000
0.004879 0.002393 0.000000
0.005028 0.002277 0.000000
0.005090 0.002218 0.000000
0.005131 0.002164 0.000000
0.005154 0.002114 0.000000
0.005160 0.002066 0.000000
0.005152 0.002018 0.000000
0.005133 0.001970 0.000000
0.004822 0.001443 0.000000
0.000003 0.002656 0.000000
0.000014 0.002524 0.000000
0.000001 0.002598 0.000000
0.000039 0.002436 0.000000
0.000478 0.001601 0.000000
0.000597 0.001451 0.000000
0.000538 0.001523 0.000000
0.000721 0.001306 0.000000
0.000658 0.001378 0.000000
0.000850 0.001163 0.000000
0.000785 0.001234 0.000000
0.001049 0.000952 0.000000
0.000916 0.001092 0.000000
0.001318 0.000688 0.000000
0.001184 0.000817 0.000000
0.004725 0.001323 0.000000
0.004671 0.001270 0.000000
0.004613 0.001219 0.000000
0.004488 0.001112 0.000000
0.001379 0.000626 0.000000
0.004420 0.001053 0.000000
0.001577 0.000385 0.000000
0.001529 0.000443 0.000000
0.001433 0.000564 0.000000
0.004349 0.000988 0.000000
0.004274 0.000914 0.000000
0.001688 0.000275 0.000000
0.001629 0.000329 0.000000
0.001839 0.000174 0.000000
0.001757 0.000223 0.000000
0.002194 0.000044 0.000000
0.001938 0.000128 0.000000
0.003176 0.000065 0.000000
0.002851 0.000014 0.000000
0.003667 0.000216 0.000000
0.003457 0.000139 0.000000
0.003818 0.000335 0.000000
0.003798 0.000309 0.000000
0.003857 0.000392 0.000000
0.003837 0.000363 0.000000
0.003878 0.000425 0.000000
0.004197 0.000830 0.000000
0.004124 0.000746 0.000000
0.003903 0.000462 0.000000
0.003932 0.000504 0.000000
0.004062 0.000672 0.000000
0.004011 0.000608 0.000000
0.003968 0.000552 0.000000
0.004488 0.001112 0.150000
0.004613 0.001219 0.150000
0.004671 0.001270 0.150000
0.004725 0.001323 0.150000
0.004822 0.001443 0.150000
0.005133 0.001970 0.150000
0.005152 0.002018 0.150000
0.005160 0.002066 0.150000
0.005154 0.002114 0.150000
0.005131 0.002164 0.150000
0.005090 0.002218 0.150000
0.005028 0.002277 0.150000
0.004879 0.002393 0.150000
0.004804 0.002444 0.150000
0.004728 0.002490 0.150000
0.004654 0.002533 0.150000
0.004581 0.002570 0.150000
0.004442 0.002632 0.150000
0.004317 0.002674 0.150000
0.004210 0.002698 0.150000
0.000492 0.002722 0.150000
0.000419 0.002715 0.150000
0.000344 0.002706 0.150000
0.000270 0.002697 0.150000
0.000136 0.002678 0.150000
0.000040 0.002663 0.150000
0.000003 0.002656 0.150000
0.000001 0.002598 0.150000
0.000014 0.002524 0.150000
0.000039 0.002436 0.150000
0.000478 0.001601 0.150000
0.000538 0.001523 0.150000
0.000597 0.001451 0.150000
0.000658 0.001378 0.150000
0.000721 0.001306 0.150000
0.000785 0.001234 0.150000
0.000850 0.001163 0.150000
0.000916 0.001092 0.150000
0.001049 0.000952 0.150000
0.001184 0.000817 0.150000
0.001318 0.000688 0.150000
0.001379 0.000626 0.150000
0.004420 0.001053 0.150000
0.004349 0.000988 0.150000
0.004274 0.000914 0.150000
0.001433 0.000564 0.150000
0.001529 0.000443 0.150000
0.001577 0.000385 0.150000
0.001629 0.000329 0.150000
0.001688 0.000275 0.150000
0.001757 0.000223 0.150000
0.001839 0.000174 0.150000
0.001938 0.000128 0.150000
0.002194 0.000044 0.150000
0.002851 0.000014 0.150000
0.003176 0.000065 0.150000
0.003457 0.000139 0.150000
0.003667 0.000216 0.150000
0.003798 0.000309 0.150000
0.003818 0.000335 0.150000
0.003837 0.000363 0.150000
0.003857 0.000392 0.150000
0.003878 0.000425 0.150000
0.004197 0.000830 0.150000
0.004124 0.000746 0.150000
0.003903 0.000462 0.150000
0.003932 0.000504 0.150000
0.004062 0.000672 0.150000
0.004011 0.000608 0.150000
0.003968 0.000552 0.150000
3 0 1 2
3 0 2 3
3 4 5 6
3 4 6 7
3 8 9 10
3 8 10 11
3 12 13 14
3 12 14 15
3 16 17 18
3 18 19 20
3 20 21 22
3 22 23 24
3 24 25 26
3 26 27 28
3 28 29 30
3 30 31 32
3 32 33 34
3 34 35 36
3 4 7 37
3 34 36 4
3 30 32 34
3 26 28 30
3 22 24 26
3 18 20 22
3 38 16 18
3 39 40 38
3 8 41 39
3 42 9 8
3 43 44 42
3 45 46 43
3 47 48 45
3 49 50 47
3 51 52 49
3 51 49 47
3 47 45 43
3 43 42 8
3 8 39 38
3 38 18 22
3 22 26 30
3 30 34 4
3 4 37 53
3 53 54 55
3 53 55 56
3 30 4 53
3 38 22 30
3 43 8 38
3 51 47 43
3 57 51 43
3 43 38 30
3 30 53 56
3 30 56 58
3 57 43 30
3 59 60 61
3 61 57 30
3 30 58 62
3 30 62 63
3 59 61 30
3 64 65 59
3 66 67 64
3 68 69 66
3 14 13 68
3 70 71 14
3 72 73 70
3 2 1 72
3 74 75 2
3 76 77 74
3 78 76 74
3 74 2 72
3 72 70 14
3 14 68 66
3 66 64 59
3 59 30 63
3 59 63 79
3 14 66 59
3 74 72 14
3 78 74 14
3 14 59 79
3 14 79 80
3 81 78 14
3 82 81 14
3 14 80 83
3 14 83 84
3 85 82 14
3 84 85 14
3 86 87 88
3 88 89 90
3 90 6 5
3 5 91 92
3 92 93 94
3 94 95 96
3 96 97 98
3 98 99 100
3 100 101 102
3 102 103 104
3 104 105 106
3 106 107 108
3 108 109 110
3 110 111 112
3 112 113 114
3 114 115 11
3 11 10 116
3 116 117 118
3 118 119 120
3 120 121 122
3 122 123 124
3 124 125 126
3 122 124 126
3 118 120 122
3 11 116 118
3 112 114 11
3 108 110 112
3 104 106 108
3 100 102 104
3 96 98 100
3 92 94 96
3 88 90 5
3 5 92 96
3 96 100 104
3 104 108 112
3 112 11 118
3 118 122 126
3 118 126 127
3 104 112 118
3 5 96 104
3 86 88 5
3 128 86 5
3 5 104 118
3 5 118 127
3 129 128 5
3 130 129 5
3 5 127 131
3 131 132 133
3 133 134 135
3 135 136 137
3 137 138 139
3 139 12 15
3 15 140 141
3 141 142 143
3 143 0 3
3 3 144 145
3 145 146 147
3 145 147 148
3 143 3 145
3 15 141 143
3 137 139 15
3 133 135 137
3 5 131 133
3 149 130 5
3 149 5 133
3 133 137 15
3 15 143 145
3 15 145 148
3 149 133 15
3 150 149 15
3 15 148 151
3 15 151 152
3 153 150 15
3 154 153 15
3 15 152 155
3 15 155 154
3 4 36 91
3 4 91 5
3 22 21 106
3 22 106 105
3 135 64 67
3 135 67 136
3 94 33 32
3 94 32 95
3 95 32 31
3 95 31 96
3 136 67 66
3 136 66 137
3 142 73 72
3 142 72 143
3 102 25 24
3 102 24 103
3 70 141 140
3 70 140 71
3 92 35 34
3 92 34 93
3 143 72 1
3 143 1 0
3 139 68 13
3 139 13 12
3 70 73 142
3 70 142 141
3 134 65 64
3 134 64 135
3 16 38 112
3 16 112 111
3 20 18 16
3 106 21 20
3 107 106 20
3 20 16 111
3 20 111 110
3 108 107 20
3 20 110 109
3 109 108 20
3 115 41 8
3 115 8 11
3 58 56 55
3 54 53 89
3 62 58 55
3 55 54 89
3 55 89 88
3 63 62 55
3 129 130 63
3 128 129 63
3 63 55 88
3 63 88 87
3 86 128 63
3 87 86 63
3 90 37 7
3 90 7 6
3 113 40 39
3 113 39 114
3 9 42 116
3 9 116 10
3 89 53 37
3 89 37 90
3 99 98 29
3 29 28 27
3 27 26 25
3 25 102 101
3 100 99 29
3 25 101 100
3 29 27 25
3 29 25 100
3 24 23 104
3 24 104 103
3 138 69 68
3 138 68 139
3 91 36 35
3 91 35 92
3 85 84 83
3 83 80 79
3 79 63 130
3 79 130 149
3 85 83 79
3 81 82 85
3 76 78 81
3 77 76 81
3 81 85 79
3 79 149 150
3 79 150 153
3 77 81 79
3 74 77 79
3 79 153 154
3 79 154 155
3 75 74 79
3 3 2 75
3 144 3 75
3 75 79 155
3 75 155 152
3 145 144 75
3 146 145 75
3 75 152 151
3 75 151 148
3 147 146 75
3 148 147 75
3 137 66 69
3 137 69 138
3 15 14 71
3 15 71 140
3 59 65 134
3 59 134 133
3 61 59 133
3 61 133 132
3 57 61 132
3 57 132 131
3 51 57 131
3 51 131 127
3 50 49 51
3 48 47 50
3 46 45 48
3 44 43 46
3 116 42 44
3 117 116 44
3 44 46 48
3 48 50 51
3 51 127 126
3 51 126 125
3 44 48 51
3 118 117 44
3 119 118 44
3 44 51 125
3 44 125 124
3 120 119 44
3 121 120 44
3 44 124 123
3 122 121 44
3 123 122 44
3 23 22 105
3 23 105 104
3 30 29 98
3 30 98 97
3 93 34 33
3 93 33 94
3 96 31 30
3 96 30 97
3 114 39 41
3 114 41 115
3 112 38 40
3 112 40 113
