ply
format ascii 1.0
comment Created by Blender 3.6.8 - www.blender.org
element vertex 188
property float x
property float y
property float z
element face 371
property list uchar uint vertex_indices
end_header
0.004034 0.007003 0.000000
0.003937 0.006979 0.000000
0.003937 0.006979 0.150000
0.004034 0.007003 0.150000
0.004137 0.007023 0.000000
0.004137 0.007023 0.150000
0.004246 0.007041 0.000000
0.004246 0.007041 0.150000
0.004361 0.007057 0.000000
0.004361 0.007057 0.150000
0.004742 0.007107 0.000000
0.004609 0.007089 0.000000
0.004482 0.007073 0.000000
0.004482 0.007073 0.150000
0.004880 0.007126 0.000000
0.005169 0.007165 0.150000
0.005169 0.007165 0.000000
0.005024 0.007148 0.000000
0.004609 0.007089 0.150000
0.004742 0.007107 0.150000
0.005024 0.007148 0.150000
0.004880 0.007126 0.150000
0.000000 0.002539 0.000000
0.000019 0.002300 0.000000
0.000019 0.002300 0.150000
0.000000 0.002539 0.150000
0.007875 0.006047 0.000000
0.008068 0.005823 0.000000
0.008143 0.005714 0.000000
0.008262 0.005492 0.000000
0.008352 0.005260 0.000000
0.008536 0.004574 0.000000
0.008548 0.004413 0.000000
0.008542 0.004246 0.000000
0.008522 0.004076 0.000000
0.008443 0.003731 0.000000
0.008390 0.003561 0.000000
0.008330 0.003394 0.000000
0.008267 0.003233 0.000000
0.008201 0.003079 0.000000
0.008073 0.002800 0.000000
0.007926 0.002535 0.000000
0.007837 0.002397 0.000000
0.007739 0.002256 0.000000
0.007633 0.002112 0.000000
0.007523 0.001967 0.000000
0.006721 0.000969 0.000000
0.006508 0.000743 0.000000
0.006300 0.000562 0.000000
0.006097 0.000415 0.000000
0.005610 0.000144 0.000000
0.005512 0.000103 0.000000
0.005403 0.000070 0.000000
0.005161 0.000029 0.000000
0.005028 0.000018 0.000000
0.004887 0.000012 0.000000
0.003577 0.000002 0.000000
0.003416 0.000009 0.000000
0.003257 0.000022 0.000000
0.002613 0.000122 0.000000
0.001410 0.000438 0.000000
0.001236 0.000517 0.000000
0.001171 0.000557 0.000000
0.001112 0.000600 0.000000
0.000913 0.000764 0.000000
0.000820 0.000836 0.000000
0.000488 0.001072 0.000000
0.000411 0.001134 0.000000
0.000351 0.001192 0.000000
0.007753 0.006164 0.000000
0.007205 0.006652 0.000000
0.007302 0.006571 0.000000
0.006927 0.006843 0.000000
0.007112 0.006724 0.000000
0.006635 0.006959 0.000000
0.006737 0.006928 0.000000
0.006415 0.007000 0.000000
0.006527 0.006981 0.000000
0.005828 0.007126 0.000000
0.005950 0.007102 0.000000
0.006301 0.007024 0.000000
0.005704 0.007146 0.000000
0.000305 0.001249 0.000000
0.000268 0.001311 0.000000
0.000238 0.001380 0.000000
0.000213 0.001462 0.000000
0.000188 0.001558 0.000000
0.000127 0.001815 0.000000
0.000085 0.001983 0.000000
0.000045 0.002153 0.000000
0.005309 0.007173 0.000000
0.005576 0.007162 0.000000
0.000003 0.002639 0.000000
0.000058 0.003083 0.000000
0.000065 0.003423 0.000000
0.000086 0.003538 0.000000
0.000122 0.003647 0.000000
0.000171 0.003751 0.000000
0.000298 0.003949 0.000000
0.000680 0.004414 0.000000
0.000838 0.004622 0.000000
0.000971 0.004770 0.000000
0.001136 0.004943 0.000000
0.001325 0.005134 0.000000
0.001935 0.005725 0.000000
0.002523 0.006274 0.000000
0.003760 0.006919 0.000000
0.001171 0.000557 0.150000
0.001236 0.000517 0.150000
0.001410 0.000438 0.150000
0.003257 0.000022 0.150000
0.002613 0.000122 0.150000
0.006927 0.006843 0.150000
0.006737 0.006928 0.150000
0.008262 0.005492 0.150000
0.008143 0.005714 0.150000
0.006635 0.006959 0.150000
0.006508 0.000743 0.150000
0.006300 0.000562 0.150000
0.008352 0.005260 0.150000
0.000971 0.004770 0.150000
0.001136 0.004943 0.150000
0.001325 0.005134 0.150000
0.002523 0.006274 0.150000
0.001935 0.005725 0.150000
0.007926 0.002535 0.150000
0.007837 0.002397 0.150000
0.007739 0.002256 0.150000
0.007633 0.002112 0.150000
0.006721 0.000969 0.150000
0.007523 0.001967 0.150000
0.008542 0.004246 0.150000
0.008548 0.004413 0.150000
0.007112 0.006724 0.150000
0.008536 0.004574 0.150000
0.000058 0.003083 0.150000
0.000065 0.003423 0.150000
0.006097 0.000415 0.150000
0.005610 0.000144 0.150000
0.000351 0.001192 0.150000
0.000411 0.001134 0.150000
0.005576 0.007162 0.150000
0.005309 0.007173 0.150000
0.008073 0.002800 0.150000
0.000003 0.002639 0.150000
0.008068 0.005823 0.150000
0.007875 0.006047 0.150000
0.000305 0.001249 0.150000
0.000298 0.003949 0.150000
0.000171 0.003751 0.150000
0.005512 0.000103 0.150000
0.005704 0.007146 0.150000
0.005828 0.007126 0.150000
0.005950 0.007102 0.150000
0.006301 0.007024 0.150000
0.006415 0.007000 0.150000
0.006527 0.006981 0.150000
0.000238 0.001380 0.150000
0.000213 0.001462 0.150000
0.000188 0.001558 0.150000
0.000127 0.001815 0.150000
0.000045 0.002153 0.150000
0.000085 0.001983 0.150000
0.000680 0.004414 0.150000
0.000838 0.004622 0.150000
0.000268 0.001311 0.150000
0.005161 0.000029 0.150000
0.005028 0.000018 0.150000
0.004887 0.000012 0.150000
0.003577 0.000002 0.150000
0.003416 0.000009 0.150000
0.007302 0.006571 0.150000
0.007205 0.006652 0.150000
0.007753 0.006164 0.150000
0.008522 0.004076 0.150000
0.008390 0.003561 0.150000
0.008443 0.003731 0.150000
0.008267 0.003233 0.150000
0.008330 0.003394 0.150000
0.008201 0.003079 0.150000
0.005403 0.000070 0.150000
0.000913 0.000764 0.150000
0.001112 0.000600 0.150000
0.000488 0.001072 0.150000
0.000820 0.000836 0.150000
0.003760 0.006919 0.150000
0.000086 0.003538 0.150000
0.000122 0.003647 0.150000
3 0 1 2
3 0 2 3
3 4 0 3
3 4 3 5
3 6 4 5
3 6 5 7
3 8 6 7
3 8 7 9
3 10 11 12
3 12 8 9
3 12 9 13
3 14 10 12
3 15 16 17
3 17 14 12
3 12 13 18
3 12 18 19
3 15 17 12
3 20 15 12
3 12 19 21
3 21 20 12
3 22 23 24
3 22 24 25
3 26 27 28
3 28 29 30
3 30 31 32
3 32 33 34
3 34 35 36
3 36 37 38
3 38 39 40
3 40 41 42
3 42 43 44
3 44 45 46
3 46 47 48
3 48 49 50
3 50 51 52
3 52 53 54
3 54 55 56
3 56 57 58
3 58 59 60
3 60 61 62
3 62 63 64
3 65 66 67
3 60 62 64
3 65 67 68
3 60 64 65
3 56 58 60
3 52 54 56
3 48 50 52
3 44 46 48
3 40 42 44
3 36 38 40
3 32 34 36
3 28 30 32
3 69 26 28
3 70 71 69
3 72 73 70
3 74 75 72
3 76 77 74
3 78 79 80
3 76 74 72
3 81 78 80
3 80 76 72
3 72 70 69
3 69 28 32
3 32 36 40
3 40 44 48
3 48 52 56
3 56 60 65
3 65 68 82
3 82 83 84
3 84 85 86
3 87 88 89
3 84 86 87
3 65 82 84
3 48 56 65
3 32 40 48
3 72 69 32
3 81 80 72
3 90 91 81
3 17 16 90
3 14 17 90
3 90 81 72
3 72 32 48
3 48 65 84
3 84 87 89
3 89 23 22
3 22 92 93
3 93 94 95
3 95 96 97
3 97 98 99
3 99 100 101
3 101 102 103
3 103 104 105
3 105 106 1
3 1 0 4
3 4 6 8
3 8 12 11
3 10 14 90
3 4 8 11
3 11 10 90
3 90 72 48
3 48 84 89
3 89 22 93
3 93 95 97
3 97 99 101
3 101 103 105
3 105 1 4
3 4 11 90
3 90 48 89
3 89 93 97
3 97 101 105
3 105 4 90
3 90 89 97
3 97 105 90
3 107 62 61
3 107 61 108
3 108 61 60
3 108 60 109
3 59 58 110
3 59 110 111
3 112 72 75
3 112 75 113
3 114 29 28
3 114 28 115
3 113 75 74
3 113 74 116
3 47 117 118
3 47 118 48
3 119 30 29
3 119 29 114
3 102 101 120
3 102 120 121
3 103 102 121
3 103 121 122
3 123 105 104
3 104 103 122
3 124 123 104
3 122 124 104
3 42 41 125
3 42 125 126
3 43 42 126
3 43 126 127
3 44 43 127
3 44 127 128
3 129 46 45
3 45 44 128
3 130 129 45
3 128 130 45
3 131 33 32
3 131 32 132
3 73 72 112
3 73 112 133
3 132 32 31
3 132 31 134
3 93 135 136
3 93 136 94
3 49 137 138
3 49 138 50
3 139 68 67
3 139 67 140
3 141 91 90
3 141 90 142
3 41 40 143
3 41 143 125
3 144 92 22
3 144 22 25
3 145 27 26
3 145 26 146
3 147 82 68
3 147 68 139
3 148 98 97
3 148 97 149
3 93 92 144
3 93 144 135
3 150 51 50
3 150 50 138
3 49 48 118
3 49 118 137
3 81 91 141
3 81 141 151
3 78 81 151
3 78 151 152
3 79 78 152
3 79 152 153
3 80 79 153
3 80 153 154
3 76 80 154
3 76 154 155
3 116 74 77
3 77 76 155
3 156 116 77
3 155 156 77
3 115 28 27
3 115 27 145
3 88 87 86
3 85 84 157
3 86 85 157
3 86 157 158
3 88 86 158
3 88 158 159
3 24 23 89
3 89 88 159
3 89 159 160
3 161 24 89
3 89 160 162
3 162 161 89
3 99 98 148
3 99 148 163
3 164 120 101
3 99 163 164
3 99 164 101
3 31 30 119
3 31 119 134
3 165 83 82
3 165 82 147
3 54 53 166
3 54 166 167
3 55 54 167
3 55 167 168
3 56 55 168
3 56 168 169
3 110 58 57
3 57 56 169
3 170 110 57
3 169 170 57
3 60 59 111
3 60 111 109
3 151 141 142
3 142 15 20
3 142 20 21
3 152 151 142
3 154 153 152
3 116 156 155
3 154 152 142
3 113 116 155
3 155 154 142
3 142 21 19
3 18 13 9
3 142 19 18
3 113 155 142
3 133 112 113
3 171 172 133
3 146 173 171
3 115 145 146
3 119 114 115
3 132 134 119
3 174 131 132
3 175 176 174
3 177 178 175
3 143 179 177
3 126 125 143
3 128 127 126
3 129 130 128
3 118 117 129
3 138 137 118
3 180 150 138
3 167 166 180
3 169 168 167
3 110 170 169
3 109 111 110
3 107 108 109
3 181 182 107
3 140 183 184
3 181 107 109
3 139 140 184
3 184 181 109
3 109 110 169
3 169 167 180
3 180 138 118
3 118 129 128
3 128 126 143
3 143 177 175
3 175 174 132
3 132 119 115
3 115 146 171
3 171 133 113
3 113 142 18
3 18 9 7
3 7 5 3
3 3 2 185
3 185 123 124
3 124 122 121
3 121 120 164
3 163 148 149
3 121 164 163
3 185 124 121
3 7 3 185
3 113 18 7
3 115 171 113
3 175 132 115
3 128 143 175
3 180 118 128
3 109 169 180
3 139 184 109
3 165 147 139
3 158 157 165
3 160 159 158
3 161 162 160
3 25 24 161
3 135 144 25
3 186 136 135
3 149 187 186
3 121 163 149
3 7 185 121
3 115 113 7
3 128 175 115
3 109 180 128
3 165 139 109
3 160 158 165
3 25 161 160
3 149 186 135
3 135 25 160
3 160 165 109
3 109 128 115
3 115 7 121
3 121 149 135
3 135 160 109
3 109 115 121
3 121 135 109
3 1 106 185
3 1 185 2
3 187 96 95
3 187 95 186
3 157 84 83
3 157 83 165
3 142 90 16
3 142 16 15
3 36 35 176
3 36 176 175
3 37 36 175
3 37 175 178
3 38 37 178
3 38 178 177
3 143 40 39
3 39 38 177
3 179 143 39
3 39 177 179
3 63 62 107
3 63 107 182
3 64 63 182
3 64 182 181
3 65 64 181
3 65 181 184
3 140 67 66
3 66 65 184
3 183 140 66
3 184 183 66
3 53 52 180
3 53 180 166
3 149 97 96
3 149 96 187
3 176 35 34
3 176 34 174
3 174 34 33
3 174 33 131
3 180 52 51
3 180 51 150
3 70 73 133
3 70 133 172
3 71 70 172
3 71 172 171
3 146 26 69
3 69 71 171
3 173 146 69
3 171 173 69
3 106 105 123
3 106 123 185
3 186 95 94
3 186 94 136
3 117 47 46
3 117 46 129
