ply
format ascii 1.0
comment Created by Blender 3.6.8 - www.blender.org
element vertex 196
property float x
property float y
property float z
element face 388
property list uchar uint vertex_indices
end_header
0.001579 0.005401 0.150000
0.001579 0.005401 0.000000
0.001492 0.005432 0.000000
0.001492 0.005432 0.150000
0.003997 0.001143 0.000000
0.003997 0.001143 0.150000
0.001299 0.000119 0.150000
0.001299 0.000119 0.000000
0.005712 0.001622 0.150000
0.005712 0.001622 0.000000
0.005785 0.001642 0.000000
0.005785 0.001642 0.150000
0.000704 0.000001 0.150000
0.000704 0.000001 0.000000
0.000827 0.000014 0.000000
0.000827 0.000014 0.150000
0.004093 0.001188 0.000000
0.001130 0.000075 0.000000
0.000971 0.000039 0.000000
0.000607 0.000003 0.000000
0.000528 0.000018 0.000000
0.000454 0.000042 0.000000
0.000386 0.000075 0.000000
0.000323 0.000115 0.000000
0.000267 0.000161 0.000000
0.000215 0.000213 0.000000
0.000170 0.000270 0.000000
0.000130 0.000330 0.000000
0.000067 0.000456 0.000000
0.000027 0.000583 0.000000
0.000014 0.000667 0.000000
0.000006 0.000787 0.000000
0.000002 0.000936 0.000000
0.000000 0.001108 0.000000
0.000001 0.001296 0.000000
0.000002 0.001493 0.000000
0.000005 0.001692 0.000000
0.000008 0.001885 0.000000
0.004193 0.001238 0.000000
0.004391 0.001345 0.000000
0.004293 0.001291 0.000000
0.004570 0.001449 0.000000
0.004484 0.001398 0.000000
0.004710 0.001533 0.000000
0.004646 0.001494 0.000000
0.004789 0.001583 0.000000
0.004758 0.001563 0.000000
0.004868 0.001587 0.000000
0.004818 0.001589 0.000000
0.004800 0.001590 0.000000
0.000010 0.002068 0.000000
0.004944 0.001586 0.000000
0.000011 0.002231 0.000000
0.005040 0.001584 0.000000
0.000011 0.002369 0.000000
0.000007 0.002475 0.000000
0.000013 0.002585 0.000000
0.005150 0.001584 0.000000
0.005390 0.001589 0.000000
0.005269 0.001586 0.000000
0.005508 0.001596 0.000000
0.005832 0.001668 0.000000
0.005937 0.001797 0.000000
0.005865 0.001702 0.000000
0.006063 0.002043 0.000000
0.006007 0.001915 0.000000
0.006096 0.002165 0.000000
0.006083 0.002105 0.000000
0.006093 0.002266 0.000000
0.006099 0.002219 0.000000
0.006014 0.002351 0.000000
0.006075 0.002305 0.000000
0.003929 0.003221 0.000000
0.005890 0.002416 0.000000
0.000036 0.002736 0.000000
0.000074 0.002920 0.000000
0.000179 0.003345 0.000000
0.000488 0.004439 0.000000
0.000502 0.004499 0.000000
0.000573 0.004629 0.000000
0.000683 0.004816 0.000000
0.000822 0.005034 0.000000
0.000897 0.005141 0.000000
0.001048 0.005326 0.000000
0.001120 0.005393 0.000000
0.001186 0.005436 0.000000
0.001253 0.005457 0.000000
0.001327 0.005462 0.000000
0.001407 0.005453 0.000000
0.001757 0.005313 0.000000
0.001929 0.005203 0.000000
0.002009 0.005143 0.000000
0.002083 0.005083 0.000000
0.002150 0.005024 0.000000
0.002211 0.004963 0.000000
0.002320 0.004825 0.000000
0.002369 0.004750 0.000000
0.002416 0.004672 0.000000
0.002461 0.004592 0.000000
0.002504 0.004512 0.000000
0.002587 0.004352 0.000000
0.002962 0.003882 0.000000
0.002628 0.004275 0.000000
0.002772 0.004057 0.000000
0.002713 0.004131 0.000000
0.002670 0.004201 0.000000
0.000323 0.000115 0.150000
0.000386 0.000075 0.150000
0.000130 0.000330 0.150000
0.000067 0.000456 0.150000
0.005832 0.001668 0.150000
0.005865 0.001702 0.150000
0.000014 0.000667 0.150000
0.000006 0.000787 0.150000
0.000002 0.000936 0.150000
0.000000 0.001108 0.150000
0.000001 0.001296 0.150000
0.000002 0.001493 0.150000
0.000005 0.001692 0.150000
0.000013 0.002585 0.150000
0.000007 0.002475 0.150000
0.000008 0.001885 0.150000
0.000010 0.002068 0.150000
0.000011 0.002369 0.150000
0.000011 0.002231 0.150000
0.001327 0.005462 0.150000
0.001253 0.005457 0.150000
0.000528 0.000018 0.150000
0.000607 0.000003 0.150000
0.001130 0.000075 0.150000
0.000971 0.000039 0.150000
0.003929 0.003221 0.150000
0.005890 0.002416 0.150000
0.000170 0.000270 0.150000
0.002320 0.004825 0.150000
0.002211 0.004963 0.150000
0.001929 0.005203 0.150000
0.002009 0.005143 0.150000
0.002150 0.005024 0.150000
0.002083 0.005083 0.150000
0.001757 0.005313 0.150000
0.001407 0.005453 0.150000
0.000027 0.000583 0.150000
0.006083 0.002105 0.150000
0.006096 0.002165 0.150000
0.000267 0.000161 0.150000
0.000454 0.000042 0.150000
0.000502 0.004499 0.150000
0.000573 0.004629 0.150000
0.000683 0.004816 0.150000
0.000897 0.005141 0.150000
0.000822 0.005034 0.150000
0.006007 0.001915 0.150000
0.005937 0.001797 0.150000
0.000215 0.000213 0.150000
0.006014 0.002351 0.150000
0.005508 0.001596 0.150000
0.002962 0.003882 0.150000
0.002772 0.004057 0.150000
0.005390 0.001589 0.150000
0.005269 0.001586 0.150000
0.005150 0.001584 0.150000
0.005040 0.001584 0.150000
0.004944 0.001586 0.150000
0.004868 0.001587 0.150000
0.004800 0.001590 0.150000
0.004818 0.001589 0.150000
0.004789 0.001583 0.150000
0.004758 0.001563 0.150000
0.004710 0.001533 0.150000
0.004646 0.001494 0.150000
0.004570 0.001449 0.150000
0.004484 0.001398 0.150000
0.004391 0.001345 0.150000
0.004293 0.001291 0.150000
0.004193 0.001238 0.150000
0.004093 0.001188 0.150000
0.001186 0.005436 0.150000
0.001120 0.005393 0.150000
0.002369 0.004750 0.150000
0.002416 0.004672 0.150000
0.002461 0.004592 0.150000
0.002504 0.004512 0.150000
0.002713 0.004131 0.150000
0.002670 0.004201 0.150000
0.002587 0.004352 0.150000
0.002628 0.004275 0.150000
0.001048 0.005326 0.150000
0.000036 0.002736 0.150000
0.000074 0.002920 0.150000
0.000179 0.003345 0.150000
0.000488 0.004439 0.150000
0.006099 0.002219 0.150000
0.006075 0.002305 0.150000
0.006093 0.002266 0.150000
0.006063 0.002043 0.150000
3 0 1 2
3 0 2 3
3 4 5 6
3 4 6 7
3 8 9 10
3 8 10 11
3 12 13 14
3 12 14 15
3 16 4 7
3 7 17 18
3 18 14 13
3 13 19 20
3 20 21 22
3 22 23 24
3 24 25 26
3 26 27 28
3 28 29 30
3 30 31 32
3 32 33 34
3 34 35 36
3 34 36 37
3 30 32 34
3 26 28 30
3 22 24 26
3 13 20 22
3 7 18 13
3 38 16 7
3 39 40 38
3 41 42 39
3 43 44 41
3 45 46 43
3 47 48 49
3 49 45 43
3 43 41 39
3 39 38 7
3 7 13 22
3 22 26 30
3 30 34 37
3 30 37 50
3 7 22 30
3 43 39 7
3 51 47 49
3 49 43 7
3 7 30 50
3 7 50 52
3 53 51 49
3 49 7 52
3 54 55 56
3 49 52 54
3 57 53 49
3 58 59 57
3 9 60 58
3 61 10 9
3 62 63 61
3 64 65 62
3 66 67 64
3 68 69 66
3 70 71 68
3 72 73 70
3 72 70 68
3 68 66 64
3 64 62 61
3 61 9 58
3 58 57 49
3 49 54 56
3 56 74 75
3 75 76 77
3 77 78 79
3 79 80 81
3 81 82 83
3 83 84 85
3 85 86 87
3 87 88 2
3 2 1 89
3 89 90 91
3 91 92 93
3 93 94 95
3 95 96 97
3 97 98 99
3 97 99 100
3 93 95 97
3 89 91 93
3 87 2 89
3 83 85 87
3 79 81 83
3 75 77 79
3 49 56 75
3 61 58 49
3 68 64 61
3 72 68 61
3 61 49 75
3 75 79 83
3 83 87 89
3 89 93 97
3 89 97 100
3 75 83 89
3 72 61 75
3 101 72 75
3 75 89 100
3 75 100 102
3 103 101 75
3 104 103 75
3 75 102 105
3 75 105 104
3 106 23 22
3 106 22 107
3 28 27 108
3 28 108 109
3 110 61 63
3 110 63 111
3 31 30 112
3 31 112 113
3 32 31 113
3 32 113 114
3 33 32 114
3 33 114 115
3 34 33 115
3 34 115 116
3 35 34 116
3 35 116 117
3 50 37 36
3 36 35 117
3 36 117 118
3 52 50 36
3 55 54 52
3 119 56 55
3 120 119 55
3 55 52 36
3 36 118 121
3 36 121 122
3 120 55 36
3 123 120 36
3 36 122 124
3 36 124 123
3 125 87 86
3 125 86 126
3 127 20 19
3 127 19 128
3 17 7 6
3 17 6 129
3 15 14 18
3 18 17 129
3 130 15 18
3 18 129 130
3 73 72 131
3 73 131 132
3 108 27 26
3 108 26 133
3 134 95 94
3 134 94 135
3 91 90 136
3 91 136 137
3 138 93 92
3 92 91 137
3 139 138 92
3 137 139 92
3 140 89 1
3 140 1 0
3 141 88 87
3 141 87 125
3 112 30 29
3 112 29 142
3 143 67 66
3 143 66 144
3 145 24 23
3 145 23 106
3 107 22 21
3 107 21 146
3 135 94 93
3 135 93 138
3 79 78 147
3 79 147 148
3 80 79 148
3 80 148 149
3 150 82 81
3 81 80 149
3 151 150 81
3 81 149 151
3 65 152 153
3 65 153 62
3 154 25 24
3 154 24 145
3 155 70 73
3 155 73 132
3 60 9 8
3 60 8 156
3 157 101 103
3 157 103 158
3 142 29 28
3 142 28 109
3 58 60 156
3 58 156 159
3 59 58 159
3 59 159 160
3 57 59 160
3 57 160 161
3 53 57 161
3 53 161 162
3 51 53 162
3 51 162 163
3 47 51 163
3 47 163 164
3 165 49 48
3 48 47 164
3 166 165 48
3 164 166 48
3 45 49 165
3 45 165 167
3 46 45 167
3 46 167 168
3 43 46 168
3 43 168 169
3 44 43 169
3 44 169 170
3 41 44 170
3 41 170 171
3 42 41 171
3 42 171 172
3 39 42 172
3 39 172 173
3 40 39 173
3 40 173 174
3 38 40 174
3 38 174 175
3 5 4 16
3 16 38 175
3 176 5 16
3 175 176 16
3 128 19 13
3 128 13 12
3 177 85 84
3 177 84 178
3 96 95 134
3 96 134 179
3 97 96 179
3 97 179 180
3 98 97 180
3 98 180 181
3 102 100 99
3 99 98 181
3 99 181 182
3 105 102 99
3 183 104 105
3 184 183 105
3 105 99 182
3 105 182 185
3 186 184 105
3 185 186 105
3 72 101 157
3 72 157 131
3 3 2 88
3 3 88 141
3 187 83 82
3 187 82 150
3 146 21 20
3 146 20 127
3 89 140 136
3 89 136 90
3 63 62 153
3 63 153 111
3 74 56 119
3 74 119 188
3 75 74 188
3 75 188 189
3 76 75 189
3 76 189 190
3 147 78 77
3 77 76 190
3 191 147 77
3 190 191 77
3 126 86 85
3 126 85 177
3 144 66 69
3 144 69 192
3 11 10 61
3 11 61 110
3 178 84 83
3 178 83 187
3 133 26 25
3 133 25 154
3 193 71 70
3 193 70 155
3 192 69 68
3 192 68 194
3 194 68 71
3 194 71 193
3 158 103 104
3 158 104 183
3 195 64 67
3 195 67 143
3 6 5 176
3 176 175 174
3 174 173 172
3 172 171 170
3 170 169 168
3 168 167 165
3 165 166 164
3 164 163 162
3 162 161 160
3 160 159 156
3 156 8 11
3 11 110 111
3 111 153 152
3 152 195 143
3 143 144 192
3 192 194 193
3 193 155 132
3 193 132 131
3 143 192 193
3 111 152 143
3 156 11 111
3 162 160 156
3 165 164 162
3 170 168 165
3 174 172 170
3 6 176 174
3 130 129 6
3 12 15 130
3 127 128 12
3 107 146 127
3 145 106 107
3 133 154 145
3 109 108 133
3 112 142 109
3 114 113 112
3 116 115 114
3 118 117 116
3 121 118 116
3 116 114 112
3 112 109 133
3 133 145 107
3 107 127 12
3 12 130 6
3 6 174 170
3 165 162 156
3 6 170 165
3 107 12 6
3 112 133 107
3 121 116 112
3 122 121 112
3 112 107 6
3 165 156 111
3 112 6 165
3 124 122 112
3 119 120 123
3 124 112 165
3 119 123 124
3 189 188 119
3 191 190 189
3 148 147 191
3 151 149 148
3 187 150 151
3 177 178 187
3 125 126 177
3 3 141 125
3 140 0 3
3 137 136 140
3 138 139 137
3 134 135 138
3 180 179 134
3 182 181 180
3 185 182 180
3 180 134 138
3 138 137 140
3 140 3 125
3 125 177 187
3 187 151 148
3 148 191 189
3 189 119 124
3 124 165 111
3 111 143 193
3 111 193 131
3 189 124 111
3 187 148 189
3 140 125 187
3 180 138 140
3 185 180 140
3 140 187 189
3 189 111 131
3 189 131 157
3 185 140 189
3 186 185 189
3 189 157 158
3 189 158 183
3 184 186 189
3 183 184 189
3 152 65 64
3 152 64 195
