ply
format ascii 1.0
comment Created by Blender 3.6.8 - www.blender.org
element vertex 196
property float x
property float y
property float z
element face 387
property list uchar uint vertex_indices
end_header
0.010318 0.003025 0.150000
0.010887 0.004232 0.150000
0.011055 0.004706 0.150000
0.011123 0.004936 0.150000
0.011179 0.005161 0.150000
0.011252 0.005588 0.150000
0.011268 0.005789 0.150000
0.011268 0.005980 0.150000
0.011263 0.006164 0.150000
0.011260 0.006521 0.150000
0.011255 0.006695 0.150000
0.011243 0.006869 0.150000
0.011190 0.007215 0.150000
0.011142 0.007389 0.150000
0.011076 0.007565 0.150000
0.010989 0.007744 0.150000
0.010878 0.007927 0.150000
0.010739 0.008114 0.150000
0.010586 0.008302 0.150000
0.010434 0.008485 0.150000
0.010284 0.008663 0.150000
0.010135 0.008833 0.150000
0.009987 0.008995 0.150000
0.009407 0.009532 0.150000
0.009125 0.009714 0.150000
0.008986 0.009779 0.150000
0.008112 0.010039 0.150000
0.007833 0.010110 0.150000
0.007548 0.010178 0.150000
0.006998 0.010303 0.150000
0.006536 0.010400 0.150000
0.006362 0.010433 0.150000
0.005823 0.010518 0.150000
0.009729 0.002271 0.150000
0.010036 0.002616 0.150000
0.009072 0.001719 0.150000
0.009404 0.001977 0.150000
0.007909 0.000936 0.150000
0.008415 0.001258 0.150000
0.007566 0.000734 0.150000
0.007737 0.000834 0.150000
0.007226 0.000542 0.150000
0.007395 0.000637 0.150000
0.006895 0.000360 0.150000
0.007059 0.000449 0.150000
0.006428 0.000116 0.150000
0.006581 0.000189 0.150000
0.006121 0.000028 0.150000
0.006275 0.000064 0.150000
0.005678 0.000003 0.150000
0.005970 0.000008 0.150000
0.005409 0.000030 0.150000
0.005540 0.000014 0.150000
0.004984 0.000107 0.150000
0.005287 0.000050 0.150000
0.004627 0.000278 0.150000
0.004851 0.000158 0.150000
0.001275 0.002721 0.150000
0.002305 0.001851 0.150000
0.000753 0.003426 0.150000
0.001064 0.002954 0.150000
0.000282 0.004559 0.150000
0.000491 0.003970 0.150000
0.000033 0.005748 0.150000
0.000129 0.005161 0.150000
0.000031 0.006570 0.150000
0.000000 0.006291 0.150000
0.000249 0.007238 0.150000
0.000117 0.006889 0.150000
0.000607 0.007979 0.150000
0.000416 0.007605 0.150000
0.001022 0.008705 0.150000
0.000813 0.008349 0.150000
0.001411 0.009325 0.150000
0.001225 0.009034 0.150000
0.002390 0.010359 0.150000
0.001763 0.009867 0.150000
0.001690 0.009753 0.150000
0.005081 0.010643 0.150000
0.002794 0.010556 0.150000
0.003346 0.010808 0.150000
0.003215 0.010751 0.150000
0.003554 0.010889 0.150000
0.003461 0.010855 0.150000
0.003671 0.010909 0.150000
0.003618 0.010905 0.150000
0.003950 0.010882 0.150000
0.003873 0.010894 0.150000
0.004107 0.010851 0.150000
0.004029 0.010867 0.150000
0.004257 0.010816 0.150000
0.004184 0.010834 0.150000
0.004387 0.010783 0.150000
0.004325 0.010799 0.150000
0.004440 0.010768 0.150000
0.004748 0.010704 0.150000
0.004613 0.010730 0.150000
0.004508 0.010751 0.150000
0.011252 0.005588 0.000000
0.011268 0.005789 0.000000
0.003671 0.010909 0.000000
0.003618 0.010905 0.000000
0.003461 0.010855 0.000000
0.003346 0.010808 0.000000
0.003215 0.010751 0.000000
0.002390 0.010359 0.000000
0.002794 0.010556 0.000000
0.001064 0.002954 0.000000
0.001275 0.002721 0.000000
0.009404 0.001977 0.000000
0.009729 0.002271 0.000000
0.001763 0.009867 0.000000
0.000000 0.006291 0.000000
0.000033 0.005748 0.000000
0.010989 0.007744 0.000000
0.010878 0.007927 0.000000
0.010318 0.003025 0.000000
0.010887 0.004232 0.000000
0.001022 0.008705 0.000000
0.000813 0.008349 0.000000
0.001225 0.009034 0.000000
0.001411 0.009325 0.000000
0.001690 0.009753 0.000000
0.009407 0.009532 0.000000
0.009125 0.009714 0.000000
0.011142 0.007389 0.000000
0.011076 0.007565 0.000000
0.010036 0.002616 0.000000
0.003554 0.010889 0.000000
0.003873 0.010894 0.000000
0.003950 0.010882 0.000000
0.004029 0.010867 0.000000
0.004107 0.010851 0.000000
0.004184 0.010834 0.000000
0.004257 0.010816 0.000000
0.004325 0.010799 0.000000
0.004387 0.010783 0.000000
0.004440 0.010768 0.000000
0.000416 0.007605 0.000000
0.000607 0.007979 0.000000
0.000117 0.006889 0.000000
0.000249 0.007238 0.000000
0.000031 0.006570 0.000000
0.000129 0.005161 0.000000
0.000491 0.003970 0.000000
0.000282 0.004559 0.000000
0.000753 0.003426 0.000000
0.002305 0.001851 0.000000
0.004851 0.000158 0.000000
0.004627 0.000278 0.000000
0.005287 0.000050 0.000000
0.004984 0.000107 0.000000
0.005540 0.000014 0.000000
0.005409 0.000030 0.000000
0.005970 0.000008 0.000000
0.005678 0.000003 0.000000
0.006275 0.000064 0.000000
0.006121 0.000028 0.000000
0.006581 0.000189 0.000000
0.006428 0.000116 0.000000
0.007059 0.000449 0.000000
0.006895 0.000360 0.000000
0.007395 0.000637 0.000000
0.007226 0.000542 0.000000
0.007737 0.000834 0.000000
0.007566 0.000734 0.000000
0.008415 0.001258 0.000000
0.007909 0.000936 0.000000
0.009072 0.001719 0.000000
0.011123 0.004936 0.000000
0.011055 0.004706 0.000000
0.011179 0.005161 0.000000
0.011268 0.005980 0.000000
0.011255 0.006695 0.000000
0.011260 0.006521 0.000000
0.011263 0.006164 0.000000
0.011243 0.006869 0.000000
0.011190 0.007215 0.000000
0.010739 0.008114 0.000000
0.010434 0.008485 0.000000
0.010586 0.008302 0.000000
0.010135 0.008833 0.000000
0.010284 0.008663 0.000000
0.009987 0.008995 0.000000
0.008986 0.009779 0.000000
0.007833 0.010110 0.000000
0.008112 0.010039 0.000000
0.006998 0.010303 0.000000
0.007548 0.010178 0.000000
0.006362 0.010433 0.000000
0.006536 0.010400 0.000000
0.005823 0.010518 0.000000
0.004508 0.010751 0.000000
0.005081 0.010643 0.000000
0.004613 0.010730 0.000000
0.004748 0.010704 0.000000
3 0 1 2
3 2 3 4
3 4 5 6
3 6 7 8
3 8 9 10
3 10 11 12
3 12 13 14
3 14 15 16
3 16 17 18
3 18 19 20
3 20 21 22
3 22 23 24
3 24 25 26
3 26 27 28
3 28 29 30
3 30 31 32
3 28 30 32
3 24 26 28
3 20 22 24
3 16 18 20
3 12 14 16
3 8 10 12
3 4 6 8
3 0 2 4
3 33 34 0
3 35 36 33
3 37 38 35
3 39 40 37
3 41 42 39
3 43 44 41
3 45 46 43
3 47 48 45
3 49 50 47
3 51 52 49
3 53 54 51
3 55 56 53
3 57 58 55
3 59 60 57
3 61 62 59
3 63 64 61
3 65 66 63
3 67 68 65
3 69 70 67
3 71 72 69
3 73 74 71
3 75 76 77
3 77 73 71
3 71 69 67
3 67 65 63
3 63 61 59
3 59 57 55
3 55 53 51
3 51 49 47
3 47 45 43
3 43 41 39
3 39 37 35
3 35 33 0
3 0 4 8
3 8 12 16
3 16 20 24
3 24 28 32
3 24 32 78
3 8 16 24
3 35 0 8
3 43 39 35
3 51 47 43
3 59 55 51
3 67 63 59
3 77 71 67
3 79 75 77
3 80 81 79
3 82 83 80
3 84 85 82
3 86 87 84
3 88 89 86
3 90 91 88
3 92 93 90
3 94 92 90
3 90 88 86
3 86 84 82
3 82 80 79
3 79 77 67
3 67 59 51
3 51 43 35
3 35 8 24
3 24 78 95
3 24 95 96
3 51 35 24
3 79 67 51
3 86 82 79
3 94 90 86
3 24 96 97
3 97 94 86
3 86 79 51
3 51 24 97
3 97 86 51
3 5 98 99
3 5 99 6
3 84 100 101
3 84 101 85
3 80 83 102
3 80 102 103
3 81 80 103
3 81 103 104
3 105 75 79
3 79 81 104
3 106 105 79
3 104 106 79
3 60 107 108
3 60 108 57
3 109 110 33
3 109 33 36
3 75 105 111
3 75 111 76
3 112 113 63
3 112 63 66
3 15 114 115
3 15 115 16
3 116 117 1
3 116 1 0
3 118 119 72
3 118 72 71
3 120 118 71
3 120 71 74
3 121 120 74
3 121 74 73
3 76 111 122
3 122 121 73
3 77 76 122
3 73 77 122
3 23 123 124
3 23 124 24
3 13 125 126
3 13 126 14
3 116 0 34
3 116 34 127
3 111 105 106
3 106 104 103
3 103 102 128
3 128 101 100
3 100 129 130
3 130 131 132
3 132 133 134
3 134 135 136
3 134 136 137
3 130 132 134
3 128 100 130
3 106 103 128
3 122 111 106
3 120 121 122
3 119 118 120
3 138 139 119
3 140 141 138
3 112 142 140
3 143 113 112
3 144 145 143
3 107 146 144
3 147 108 107
3 148 149 147
3 150 151 148
3 152 153 150
3 154 155 152
3 156 157 154
3 158 159 156
3 160 161 158
3 162 163 160
3 164 165 162
3 166 167 164
3 109 168 166
3 127 110 109
3 117 116 127
3 169 170 117
3 98 171 169
3 172 99 98
3 173 174 175
3 175 172 98
3 98 169 117
3 117 127 109
3 109 166 164
3 164 162 160
3 160 158 156
3 156 154 152
3 152 150 148
3 148 147 107
3 107 144 143
3 143 112 140
3 140 138 119
3 119 120 122
3 122 106 128
3 128 130 134
3 128 134 137
3 119 122 128
3 143 140 119
3 148 107 143
3 156 152 148
3 164 160 156
3 117 109 164
3 175 98 117
3 176 173 175
3 125 177 176
3 114 126 125
3 178 115 114
3 179 180 178
3 181 182 179
3 123 183 181
3 184 124 123
3 185 186 184
3 187 188 185
3 189 190 187
3 191 189 187
3 187 185 184
3 184 123 181
3 181 179 178
3 178 114 125
3 125 176 175
3 175 117 164
3 164 156 148
3 148 143 119
3 119 128 137
3 119 137 192
3 164 148 119
3 125 175 164
3 181 178 125
3 187 184 181
3 193 191 187
3 193 187 181
3 181 125 164
3 164 119 192
3 164 192 194
3 193 181 164
3 164 194 195
3 195 193 164
3 69 72 119
3 69 119 139
3 141 67 70
3 70 69 139
3 138 141 70
3 139 138 70
3 147 149 55
3 147 55 58
3 183 123 23
3 183 23 22
3 24 124 184
3 24 184 25
3 63 113 143
3 63 143 64
3 171 98 5
3 171 5 4
3 153 152 155
3 155 49 52
3 155 52 51
3 150 153 155
3 53 151 150
3 155 51 54
3 54 53 150
3 155 54 150
3 143 145 61
3 143 61 64
3 65 142 112
3 65 112 66
3 130 129 87
3 130 87 86
3 131 130 86
3 131 86 89
3 132 131 89
3 132 89 88
3 133 132 88
3 133 88 91
3 134 133 91
3 134 91 90
3 135 134 90
3 135 90 93
3 136 135 93
3 136 93 92
3 137 136 92
3 137 92 94
3 192 137 94
3 192 94 97
3 194 192 97
3 194 97 96
3 195 194 96
3 195 96 95
3 193 195 95
3 193 95 78
3 191 193 78
3 191 78 32
3 189 191 32
3 189 32 31
3 190 189 31
3 190 31 30
3 187 190 30
3 187 30 29
3 188 187 29
3 188 29 28
3 26 186 185
3 185 188 28
3 27 26 185
3 28 27 185
3 56 148 151
3 56 151 53
3 59 146 107
3 59 107 60
3 85 101 128
3 85 128 82
3 181 183 22
3 181 22 21
3 182 181 21
3 182 21 20
3 179 182 20
3 179 20 19
3 180 179 19
3 180 19 18
3 16 115 178
3 178 180 18
3 17 16 178
3 18 17 178
3 169 171 4
3 169 4 3
3 1 117 170
3 170 169 3
3 2 1 170
3 3 2 170
3 110 127 34
3 110 34 33
3 48 156 159
3 48 159 45
3 144 146 59
3 144 59 62
3 164 167 37
3 164 37 40
3 165 164 40
3 165 40 39
3 162 165 39
3 162 39 42
3 163 162 42
3 163 42 41
3 160 163 41
3 160 41 44
3 161 160 44
3 161 44 43
3 45 159 158
3 158 161 43
3 46 45 158
3 43 46 158
3 184 186 26
3 184 26 25
3 61 145 144
3 61 144 62
3 68 140 142
3 68 142 65
3 14 126 114
3 14 114 15
3 55 149 148
3 55 148 56
3 47 157 156
3 47 156 48
3 129 100 84
3 129 84 87
3 38 37 167
3 38 167 166
3 109 36 35
3 35 38 166
3 168 109 35
3 166 168 35
3 108 147 58
3 108 58 57
3 82 128 102
3 82 102 83
3 67 141 140
3 67 140 68
3 49 155 154
3 49 154 50
3 12 177 125
3 12 125 13
3 177 12 11
3 177 11 176
3 173 176 11
3 173 11 10
3 99 172 175
3 175 173 10
3 175 10 9
3 6 99 175
3 7 6 175
3 175 9 8
3 175 8 7
3 50 154 157
3 50 157 47
