ply
format ascii 1.0
comment Created by Blender 3.6.8 - www.blender.org
element vertex 222
property float x
property float y
property float z
element face 436
property list uchar uint vertex_indices
end_header
0.007645 0.006240 0.000000
0.007645 0.006240 0.150000
0.007862 0.006093 0.150000
0.007862 0.006093 0.000000
0.010680 0.000702 0.150000
0.010680 0.000702 0.000000
0.010724 0.000799 0.000000
0.010724 0.000799 0.150000
0.010312 0.003364 0.000000
0.009490 0.004419 0.000000
0.009490 0.004419 0.150000
0.010312 0.003364 0.150000
0.000218 0.000775 0.150000
0.000218 0.000775 0.000000
0.000382 0.000691 0.000000
0.000382 0.000691 0.150000
0.000000 0.001105 0.150000
0.000000 0.001105 0.000000
0.000014 0.001015 0.000000
0.000014 0.001015 0.150000
0.006946 0.006609 0.000000
0.006852 0.006651 0.000000
0.006852 0.006651 0.150000
0.006946 0.006609 0.150000
0.007043 0.006562 0.000000
0.007043 0.006562 0.150000
0.007146 0.006509 0.000000
0.007146 0.006509 0.150000
0.007513 0.006314 0.000000
0.007513 0.006314 0.150000
0.000050 0.000931 0.150000
0.000050 0.000931 0.000000
0.000112 0.000854 0.000000
0.000112 0.000854 0.150000
0.000844 0.000514 0.150000
0.000844 0.000514 0.000000
0.002031 0.000191 0.000000
0.002031 0.000191 0.150000
0.008033 0.005945 0.000000
0.008108 0.005869 0.000000
0.008180 0.005791 0.000000
0.008401 0.005538 0.000000
0.006663 0.006721 0.000000
0.006215 0.006813 0.000000
0.006342 0.006795 0.000000
0.005959 0.006844 0.000000
0.006085 0.006829 0.000000
0.005722 0.006870 0.000000
0.005839 0.006857 0.000000
0.005499 0.006892 0.000000
0.005609 0.006881 0.000000
0.005288 0.006912 0.000000
0.005393 0.006902 0.000000
0.005084 0.006929 0.000000
0.005185 0.006921 0.000000
0.004884 0.006946 0.000000
0.004536 0.006977 0.000000
0.004616 0.006970 0.000000
0.004789 0.006954 0.000000
0.008485 0.005446 0.000000
0.004382 0.006988 0.000000
0.004459 0.006983 0.000000
0.004225 0.006993 0.000000
0.004305 0.006991 0.000000
0.004053 0.006991 0.000000
0.004142 0.006993 0.000000
0.003854 0.006979 0.000000
0.003958 0.006986 0.000000
0.003444 0.006946 0.000000
0.003643 0.006963 0.000000
0.003257 0.006929 0.000000
0.003349 0.006938 0.000000
0.003085 0.006913 0.000000
0.003169 0.006921 0.000000
0.002929 0.006896 0.000000
0.003005 0.006904 0.000000
0.002791 0.006880 0.000000
0.002858 0.006888 0.000000
0.002532 0.006811 0.000000
0.002717 0.006866 0.000000
0.001822 0.006427 0.000000
0.001833 0.006529 0.000000
0.008579 0.005348 0.000000
0.009091 0.004845 0.000000
0.009245 0.004687 0.000000
0.001782 0.006102 0.000000
0.009405 0.004515 0.000000
0.010619 0.002842 0.000000
0.010731 0.002566 0.000000
0.010803 0.002274 0.000000
0.010841 0.001972 0.000000
0.010849 0.001664 0.000000
0.010843 0.001509 0.000000
0.010831 0.001355 0.000000
0.010790 0.001052 0.000000
0.010761 0.000914 0.000000
0.010628 0.000621 0.000000
0.010570 0.000554 0.000000
0.010506 0.000498 0.000000
0.010437 0.000449 0.000000
0.009926 0.000165 0.000000
0.009819 0.000124 0.000000
0.009579 0.000069 0.000000
0.009305 0.000041 0.000000
0.007941 0.000003 0.000000
0.007182 0.000005 0.000000
0.005916 0.000052 0.000000
0.003054 0.000029 0.000000
0.002848 0.000047 0.000000
0.001724 0.005667 0.000000
0.001689 0.005428 0.000000
0.001652 0.005185 0.000000
0.000007 0.001202 0.000000
0.000031 0.001307 0.000000
0.000070 0.001419 0.000000
0.000121 0.001540 0.000000
0.000183 0.001669 0.000000
0.000326 0.001956 0.000000
0.000402 0.002115 0.000000
0.000556 0.002459 0.000000
0.000642 0.002633 0.000000
0.000732 0.002806 0.000000
0.001613 0.004946 0.000000
0.001572 0.004719 0.000000
0.001187 0.003627 0.000000
0.001266 0.003777 0.000000
0.001530 0.004512 0.000000
0.001446 0.004187 0.000000
0.001337 0.003921 0.000000
0.001397 0.004058 0.000000
0.010849 0.001664 0.150000
0.010841 0.001972 0.150000
0.002791 0.006880 0.150000
0.002717 0.006866 0.150000
0.009305 0.000041 0.150000
0.009579 0.000069 0.150000
0.010731 0.002566 0.150000
0.010803 0.002274 0.150000
0.009819 0.000124 0.150000
0.010506 0.000498 0.150000
0.010570 0.000554 0.150000
0.010628 0.000621 0.150000
0.010761 0.000914 0.150000
0.010790 0.001052 0.150000
0.010831 0.001355 0.150000
0.010843 0.001509 0.150000
0.010619 0.002842 0.150000
0.009405 0.004515 0.150000
0.009245 0.004687 0.150000
0.009091 0.004845 0.150000
0.008579 0.005348 0.150000
0.009926 0.000165 0.150000
0.010437 0.000449 0.150000
0.007941 0.000003 0.150000
0.005916 0.000052 0.150000
0.007182 0.000005 0.150000
0.002848 0.000047 0.150000
0.003054 0.000029 0.150000
0.000031 0.001307 0.150000
0.000007 0.001202 0.150000
0.000121 0.001540 0.150000
0.000070 0.001419 0.150000
0.000326 0.001956 0.150000
0.000183 0.001669 0.150000
0.000642 0.002633 0.150000
0.000556 0.002459 0.150000
0.000402 0.002115 0.150000
0.000732 0.002806 0.150000
0.001187 0.003627 0.150000
0.008485 0.005446 0.150000
0.001266 0.003777 0.150000
0.008401 0.005538 0.150000
0.008180 0.005791 0.150000
0.008108 0.005869 0.150000
0.008033 0.005945 0.150000
0.006663 0.006721 0.150000
0.006342 0.006795 0.150000
0.006215 0.006813 0.150000
0.006085 0.006829 0.150000
0.005959 0.006844 0.150000
0.005839 0.006857 0.150000
0.005722 0.006870 0.150000
0.005609 0.006881 0.150000
0.005499 0.006892 0.150000
0.005393 0.006902 0.150000
0.005288 0.006912 0.150000
0.005185 0.006921 0.150000
0.005084 0.006929 0.150000
0.004884 0.006946 0.150000
0.004789 0.006954 0.150000
0.004616 0.006970 0.150000
0.004536 0.006977 0.150000
0.004459 0.006983 0.150000
0.004382 0.006988 0.150000
0.004305 0.006991 0.150000
0.004225 0.006993 0.150000
0.004142 0.006993 0.150000
0.004053 0.006991 0.150000
0.003958 0.006986 0.150000
0.003854 0.006979 0.150000
0.003643 0.006963 0.150000
0.003444 0.006946 0.150000
0.003349 0.006938 0.150000
0.003257 0.006929 0.150000
0.003169 0.006921 0.150000
0.003085 0.006913 0.150000
0.003005 0.006904 0.150000
0.002929 0.006896 0.150000
0.002858 0.006888 0.150000
0.002532 0.006811 0.150000
0.001833 0.006529 0.150000
0.001337 0.003921 0.150000
0.001822 0.006427 0.150000
0.001782 0.006102 0.150000
0.001397 0.004058 0.150000
0.001724 0.005667 0.150000
0.001689 0.005428 0.150000
0.001446 0.004187 0.150000
0.001652 0.005185 0.150000
0.001613 0.004946 0.150000
0.001530 0.004512 0.150000
0.001572 0.004719 0.150000
3 0 1 2
3 0 2 3
3 4 5 6
3 4 6 7
3 8 9 10
3 8 10 11
3 12 13 14
3 12 14 15
3 16 17 18
3 16 18 19
3 20 21 22
3 20 22 23
3 24 20 23
3 24 23 25
3 26 24 25
3 26 25 27
3 1 0 28
3 28 26 27
3 29 1 28
3 27 29 28
3 30 31 32
3 30 32 33
3 34 35 36
3 34 36 37
3 26 28 0
3 0 3 38
3 38 39 40
3 38 40 41
3 26 0 38
3 20 24 26
3 42 21 20
3 43 44 42
3 45 46 43
3 47 48 45
3 49 50 47
3 51 52 49
3 53 54 51
3 55 53 51
3 51 49 47
3 47 45 43
3 43 42 20
3 20 26 38
3 20 38 41
3 47 43 20
3 55 51 47
3 56 57 58
3 58 55 47
3 47 20 41
3 47 41 59
3 56 58 47
3 60 61 56
3 62 63 60
3 64 65 62
3 66 67 64
3 68 69 66
3 70 71 68
3 72 73 70
3 74 75 72
3 76 77 74
3 78 79 76
3 80 81 78
3 78 76 74
3 74 72 70
3 70 68 66
3 66 64 62
3 62 60 56
3 56 47 59
3 82 83 84
3 56 59 82
3 66 62 56
3 74 70 66
3 80 78 74
3 85 80 74
3 74 66 56
3 56 82 84
3 84 86 9
3 9 8 87
3 87 88 89
3 89 90 91
3 91 92 93
3 93 94 95
3 95 6 5
3 5 96 97
3 97 98 99
3 99 100 101
3 101 102 103
3 103 104 105
3 106 107 108
3 103 105 106
3 99 101 103
3 5 97 99
3 93 95 5
3 89 91 93
3 9 87 89
3 56 84 9
3 85 74 56
3 109 85 56
3 56 9 89
3 89 93 5
3 5 99 103
3 106 108 36
3 5 103 106
3 56 89 5
3 110 109 56
3 111 110 56
3 56 5 106
3 106 36 35
3 35 14 13
3 13 32 31
3 31 18 17
3 17 112 113
3 113 114 115
3 115 116 117
3 118 119 120
3 113 115 117
3 118 120 121
3 113 117 118
3 31 17 113
3 35 13 31
3 56 106 35
3 122 111 56
3 123 122 56
3 56 35 31
3 31 113 118
3 118 121 124
3 118 124 125
3 56 31 118
3 126 123 56
3 127 126 56
3 56 118 125
3 56 125 128
3 129 127 56
3 128 129 56
3 130 91 90
3 130 90 131
3 132 76 79
3 132 79 133
3 134 103 102
3 134 102 135
3 89 88 136
3 89 136 137
3 102 101 138
3 102 138 135
3 139 140 141
3 141 4 7
3 7 142 143
3 143 144 145
3 145 130 131
3 131 137 136
3 136 146 11
3 11 10 147
3 147 148 149
3 147 149 150
3 136 11 147
3 145 131 136
3 7 143 145
3 139 141 7
3 151 152 139
3 135 138 151
3 153 134 135
3 154 155 153
3 156 157 154
3 34 37 156
3 12 15 34
3 30 33 12
3 16 19 30
3 158 159 16
3 160 161 158
3 162 163 160
3 164 165 166
3 162 160 158
3 167 164 166
3 166 162 158
3 158 16 30
3 30 12 34
3 34 156 154
3 154 153 135
3 135 151 139
3 139 7 145
3 145 136 147
3 145 147 150
3 135 139 145
3 34 154 135
3 158 30 34
3 167 166 158
3 168 167 158
3 158 34 135
3 135 145 150
3 135 150 169
3 168 158 135
3 170 168 135
3 135 169 171
3 171 172 173
3 173 174 2
3 2 1 29
3 29 27 25
3 25 23 22
3 22 175 176
3 176 177 178
3 178 179 180
3 180 181 182
3 182 183 184
3 184 185 186
3 186 187 188
3 189 190 191
3 184 186 188
3 189 191 192
3 182 184 188
3 188 189 192
3 192 193 194
3 194 195 196
3 196 197 198
3 198 199 200
3 200 201 202
3 202 203 204
3 204 205 206
3 206 207 208
3 208 132 133
3 133 209 210
3 206 208 133
3 202 204 206
3 198 200 202
3 194 196 198
3 188 192 194
3 180 182 188
3 176 178 180
3 25 22 176
3 2 29 25
3 171 173 2
3 170 135 171
3 211 170 171
3 171 2 25
3 25 176 180
3 180 188 194
3 194 198 202
3 202 206 133
3 133 210 212
3 133 212 213
3 194 202 133
3 25 180 194
3 211 171 25
3 214 211 25
3 25 194 133
3 133 213 215
3 133 215 216
3 214 25 133
3 217 214 133
3 133 216 218
3 133 218 219
3 220 217 133
3 133 219 221
3 133 221 220
3 126 127 217
3 126 217 220
3 141 96 5
3 141 5 4
3 76 132 208
3 76 208 207
3 72 74 76
3 71 70 72
3 69 68 71
3 67 66 69
3 65 64 67
3 197 196 65
3 198 197 65
3 65 67 69
3 69 71 72
3 72 76 207
3 72 207 206
3 65 69 72
3 199 198 65
3 200 199 65
3 65 72 206
3 65 206 205
3 201 200 65
3 202 201 65
3 65 205 204
3 203 202 65
3 204 203 65
3 158 113 112
3 158 112 159
3 118 117 116
3 115 114 161
3 119 118 116
3 116 115 161
3 116 161 160
3 119 116 160
3 119 160 163
3 120 119 163
3 120 163 162
3 125 124 121
3 121 120 162
3 121 162 166
3 128 125 121
3 214 129 128
3 211 214 128
3 128 121 166
3 128 166 165
3 170 211 128
3 168 170 128
3 128 165 164
3 167 168 128
3 164 167 128
3 161 114 113
3 161 113 158
3 62 65 196
3 62 196 195
3 61 60 62
3 57 56 61
3 58 57 61
3 61 62 195
3 61 195 194
3 55 58 61
3 54 53 55
3 52 51 54
3 50 49 52
3 48 47 50
3 46 45 48
3 44 43 46
3 177 176 44
3 178 177 44
3 44 46 48
3 48 50 52
3 52 54 55
3 55 61 194
3 55 194 193
3 48 52 55
3 178 44 48
3 179 178 48
3 48 55 193
3 48 193 192
3 180 179 48
3 181 180 48
3 48 192 191
3 48 191 190
3 182 181 48
3 183 182 48
3 48 190 189
3 48 189 188
3 184 183 48
3 185 184 48
3 48 188 187
3 186 185 48
3 187 186 48
3 19 18 31
3 19 31 30
3 78 81 210
3 78 210 209
3 139 98 97
3 139 97 140
3 138 101 100
3 138 100 151
3 104 103 134
3 104 134 153
3 105 104 153
3 105 153 155
3 106 105 155
3 106 155 154
3 156 108 107
3 107 106 154
3 157 156 107
3 154 157 107
3 42 44 176
3 42 176 175
3 99 152 151
3 99 151 100
3 140 97 96
3 140 96 141
3 146 87 8
3 146 8 11
3 152 99 98
3 152 98 139
3 22 21 42
3 22 42 175
3 3 2 174
3 3 174 38
3 131 90 89
3 131 89 137
3 92 91 130
3 92 130 145
3 143 94 93
3 93 92 145
3 144 143 93
3 145 144 93
3 88 87 146
3 88 146 136
3 7 6 95
3 7 95 142
3 159 112 17
3 159 17 16
3 14 35 34
3 14 34 15
3 36 108 156
3 36 156 37
3 33 32 13
3 33 13 12
3 110 111 122
3 122 123 126
3 126 220 221
3 126 221 219
3 110 122 126
3 85 109 110
3 81 80 85
3 212 210 81
3 213 212 81
3 81 85 110
3 110 126 219
3 110 219 218
3 213 81 110
3 215 213 110
3 110 218 216
3 216 215 110
3 217 127 129
3 217 129 214
3 142 95 94
3 142 94 143
3 83 82 59
3 59 41 40
3 39 38 174
3 83 59 40
3 40 39 174
3 40 174 173
3 84 83 40
3 10 9 86
3 84 40 173
3 10 86 84
3 147 10 84
3 84 173 172
3 84 172 171
3 148 147 84
3 149 148 84
3 84 171 169
3 150 149 84
3 84 169 150
3 79 78 209
3 79 209 133
