ply
format ascii 1.0
comment Created by Blender 3.6.8 - www.blender.org
element vertex 222
property float x
property float y
property float z
element face 438
property list uchar uint vertex_indices
end_header
0.000785 0.009916 0.000000
0.000840 0.009912 0.000000
0.000904 0.009901 0.000000
0.001048 0.009860 0.000000
0.001125 0.009834 0.000000
0.001201 0.009806 0.000000
0.001346 0.009746 0.000000
0.001465 0.009692 0.000000
0.001510 0.009671 0.000000
0.001564 0.009640 0.000000
0.001643 0.009588 0.000000
0.002588 0.008914 0.000000
0.002838 0.008686 0.000000
0.003112 0.008462 0.000000
0.000741 0.009911 0.000000
0.000671 0.009865 0.000000
0.000704 0.009895 0.000000
0.000615 0.009771 0.000000
0.000642 0.009824 0.000000
0.000549 0.009552 0.000000
0.000591 0.009707 0.000000
0.000468 0.009038 0.000000
0.000514 0.009365 0.000000
0.000450 0.008808 0.000000
0.000457 0.008923 0.000000
0.000488 0.007476 0.000000
0.003710 0.008028 0.000000
0.004022 0.007825 0.000000
0.000482 0.007305 0.000000
0.004334 0.007633 0.000000
0.000444 0.006960 0.000000
0.004641 0.007456 0.000000
0.000412 0.006785 0.000000
0.004937 0.007296 0.000000
0.000052 0.005228 0.000000
0.000096 0.005443 0.000000
0.000375 0.006607 0.000000
0.005700 0.006941 0.000000
0.000018 0.005028 0.000000
0.000003 0.004714 0.000000
0.000001 0.004859 0.000000
0.000062 0.004462 0.000000
0.000023 0.004585 0.000000
0.000198 0.004204 0.000000
0.000120 0.004338 0.000000
0.000552 0.003659 0.000000
0.005893 0.006873 0.000000
0.007348 0.006414 0.000000
0.007788 0.006255 0.000000
0.001224 0.002582 0.000000
0.001070 0.002800 0.000000
0.000711 0.003403 0.000000
0.008205 0.006085 0.000000
0.008399 0.005996 0.000000
0.008755 0.005824 0.000000
0.008921 0.005743 0.000000
0.009079 0.005661 0.000000
0.009230 0.005577 0.000000
0.009515 0.005393 0.000000
0.009782 0.005173 0.000000
0.010038 0.004901 0.000000
0.010164 0.004739 0.000000
0.010483 0.004307 0.000000
0.010566 0.004188 0.000000
0.010695 0.003964 0.000000
0.010741 0.003850 0.000000
0.010777 0.003730 0.000000
0.010801 0.003599 0.000000
0.010814 0.003290 0.000000
0.010710 0.002152 0.000000
0.010649 0.001901 0.000000
0.010607 0.001778 0.000000
0.010493 0.001531 0.000000
0.010418 0.001401 0.000000
0.010339 0.001276 0.000000
0.010265 0.001163 0.000000
0.010193 0.001060 0.000000
0.010121 0.000967 0.000000
0.009965 0.000806 0.000000
0.009876 0.000734 0.000000
0.009668 0.000602 0.000000
0.009399 0.000478 0.000000
0.009237 0.000415 0.000000
0.008879 0.000288 0.000000
0.008508 0.000170 0.000000
0.008322 0.000119 0.000000
0.008139 0.000075 0.000000
0.007790 0.000015 0.000000
0.007476 0.000002 0.000000
0.007338 0.000017 0.000000
0.007215 0.000049 0.000000
0.006448 0.000301 0.000000
0.006060 0.000441 0.000000
0.005855 0.000524 0.000000
0.005644 0.000615 0.000000
0.005430 0.000716 0.000000
0.005214 0.000827 0.000000
0.004129 0.001457 0.000000
0.001480 0.002336 0.000000
0.001359 0.002432 0.000000
0.001696 0.002268 0.000000
0.001590 0.002285 0.000000
0.002030 0.002306 0.000000
0.001801 0.002272 0.000000
0.003700 0.001693 0.000000
0.002162 0.002312 0.000000
0.003280 0.001908 0.000000
0.003076 0.002005 0.000000
0.002314 0.002297 0.000000
0.002488 0.002249 0.000000
0.002875 0.002095 0.000000
0.001048 0.009860 0.150000
0.001125 0.009834 0.150000
0.001201 0.009806 0.150000
0.001346 0.009746 0.150000
0.001510 0.009671 0.150000
0.001465 0.009692 0.150000
0.002162 0.002312 0.150000
0.002314 0.002297 0.150000
0.000904 0.009901 0.150000
0.010121 0.000967 0.150000
0.009965 0.000806 0.150000
0.010607 0.001778 0.150000
0.010493 0.001531 0.150000
0.010801 0.003599 0.150000
0.010777 0.003730 0.150000
0.010741 0.003850 0.150000
0.004937 0.007296 0.150000
0.005700 0.006941 0.150000
0.010038 0.004901 0.150000
0.010164 0.004739 0.150000
0.010566 0.004188 0.150000
0.010483 0.004307 0.150000
0.005644 0.000615 0.150000
0.005430 0.000716 0.150000
0.005214 0.000827 0.150000
0.004129 0.001457 0.150000
0.003700 0.001693 0.150000
0.002875 0.002095 0.150000
0.003280 0.001908 0.150000
0.003076 0.002005 0.150000
0.000704 0.009895 0.150000
0.000671 0.009865 0.150000
0.000001 0.004859 0.150000
0.000003 0.004714 0.150000
0.005893 0.006873 0.150000
0.007348 0.006414 0.150000
0.008205 0.006085 0.150000
0.007788 0.006255 0.150000
0.001590 0.002285 0.150000
0.001696 0.002268 0.150000
0.008322 0.000119 0.150000
0.008508 0.000170 0.150000
0.008879 0.000288 0.150000
0.009237 0.000415 0.150000
0.009399 0.000478 0.150000
0.009668 0.000602 0.150000
0.009876 0.000734 0.150000
0.010193 0.001060 0.150000
0.010265 0.001163 0.150000
0.010339 0.001276 0.150000
0.010418 0.001401 0.150000
0.010649 0.001901 0.150000
0.010710 0.002152 0.150000
0.010814 0.003290 0.150000
0.010695 0.003964 0.150000
0.009782 0.005173 0.150000
0.009515 0.005393 0.150000
0.009230 0.005577 0.150000
0.009079 0.005661 0.150000
0.008921 0.005743 0.150000
0.008755 0.005824 0.150000
0.008399 0.005996 0.150000
0.007790 0.000015 0.150000
0.008139 0.000075 0.150000
0.007338 0.000017 0.150000
0.007476 0.000002 0.150000
0.006448 0.000301 0.150000
0.007215 0.000049 0.150000
0.005855 0.000524 0.150000
0.006060 0.000441 0.150000
0.004641 0.007456 0.150000
0.004334 0.007633 0.150000
0.002488 0.002249 0.150000
0.004022 0.007825 0.150000
0.003710 0.008028 0.150000
0.003112 0.008462 0.150000
0.001801 0.002272 0.150000
0.002030 0.002306 0.150000
0.002838 0.008686 0.150000
0.002588 0.008914 0.150000
0.001643 0.009588 0.150000
0.001359 0.002432 0.150000
0.001480 0.002336 0.150000
0.001070 0.002800 0.150000
0.001224 0.002582 0.150000
0.000711 0.003403 0.150000
0.001564 0.009640 0.150000
0.000840 0.009912 0.150000
0.000785 0.009916 0.150000
0.000741 0.009911 0.150000
0.000642 0.009824 0.150000
0.000615 0.009771 0.150000
0.000591 0.009707 0.150000
0.000549 0.009552 0.150000
0.000514 0.009365 0.150000
0.000468 0.009038 0.150000
0.000457 0.008923 0.150000
0.000450 0.008808 0.150000
0.000488 0.007476 0.150000
0.000120 0.004338 0.150000
0.000198 0.004204 0.150000
0.000552 0.003659 0.150000
0.000482 0.007305 0.150000
0.000023 0.004585 0.150000
0.000062 0.004462 0.150000
0.000052 0.005228 0.150000
0.000018 0.005028 0.150000
0.000375 0.006607 0.150000
0.000096 0.005443 0.150000
0.000444 0.006960 0.150000
0.000412 0.006785 0.150000
3 0 1 2
3 2 3 4
3 4 5 6
3 6 7 8
3 8 9 10
3 10 11 12
3 10 12 13
3 6 8 10
3 2 4 6
3 14 0 2
3 15 16 14
3 17 18 15
3 19 20 17
3 21 22 19
3 23 24 21
3 25 23 21
3 21 19 17
3 17 15 14
3 14 2 6
3 6 10 13
3 14 6 13
3 21 17 14
3 25 21 14
3 14 13 26
3 14 26 27
3 28 25 14
3 28 14 27
3 28 27 29
3 30 28 29
3 30 29 31
3 32 30 31
3 32 31 33
3 34 35 36
3 36 32 33
3 36 33 37
3 38 34 36
3 39 40 38
3 41 42 39
3 43 44 41
3 45 43 41
3 41 39 38
3 38 36 37
3 46 47 48
3 38 37 46
3 45 41 38
3 49 50 51
3 51 45 38
3 38 46 48
3 48 52 53
3 53 54 55
3 55 56 57
3 57 58 59
3 59 60 61
3 61 62 63
3 63 64 65
3 65 66 67
3 67 68 69
3 69 70 71
3 71 72 73
3 73 74 75
3 75 76 77
3 77 78 79
3 79 80 81
3 81 82 83
3 83 84 85
3 85 86 87
3 87 88 89
3 89 90 91
3 91 92 93
3 93 94 95
3 95 96 97
3 93 95 97
3 89 91 93
3 85 87 89
3 81 83 85
3 77 79 81
3 73 75 77
3 69 71 73
3 65 67 69
3 61 63 65
3 57 59 61
3 53 55 57
3 38 48 53
3 49 51 38
3 98 99 49
3 100 101 98
3 102 103 100
3 102 100 98
3 98 49 38
3 38 53 57
3 57 61 65
3 65 69 73
3 73 77 81
3 81 85 89
3 89 93 97
3 89 97 104
3 73 81 89
3 57 65 73
3 98 38 57
3 105 102 98
3 105 98 57
3 57 73 89
3 89 104 106
3 89 106 107
3 108 105 57
3 109 108 57
3 57 89 107
3 110 109 57
3 57 107 110
3 4 3 111
3 4 111 112
3 5 4 112
3 5 112 113
3 6 5 113
3 6 113 114
3 115 8 7
3 7 6 114
3 116 115 7
3 114 116 7
3 117 105 108
3 117 108 118
3 3 2 119
3 3 119 111
3 77 120 121
3 77 121 78
3 71 122 123
3 71 123 72
3 124 67 66
3 124 66 125
3 125 66 65
3 125 65 126
3 33 127 128
3 33 128 37
3 61 60 129
3 61 129 130
3 131 63 62
3 62 61 130
3 132 131 62
3 130 132 62
3 95 94 133
3 95 133 134
3 97 95 134
3 97 134 135
3 104 97 135
3 104 135 136
3 106 104 136
3 106 136 137
3 138 110 107
3 107 106 137
3 107 137 139
3 140 138 107
3 139 140 107
3 141 16 15
3 141 15 142
3 143 40 39
3 143 39 144
3 46 37 128
3 46 128 145
3 47 46 145
3 47 145 146
3 147 52 48
3 48 47 146
3 148 147 48
3 146 148 48
3 149 101 100
3 149 100 150
3 151 152 153
3 153 154 155
3 155 156 157
3 157 121 120
3 120 158 159
3 159 160 161
3 161 123 122
3 122 162 163
3 163 164 124
3 124 125 126
3 126 165 131
3 131 132 130
3 130 129 166
3 166 167 168
3 168 169 170
3 170 171 172
3 172 147 148
3 148 146 145
3 172 148 145
3 168 170 172
3 130 166 168
3 126 131 130
3 163 124 126
3 161 122 163
3 120 159 161
3 155 157 120
3 151 153 155
3 173 174 151
3 175 176 173
3 177 178 175
3 179 180 177
3 134 133 179
3 136 135 134
3 136 134 179
3 179 177 175
3 175 173 151
3 151 155 120
3 120 161 163
3 163 126 130
3 130 168 172
3 130 172 145
3 120 163 130
3 175 151 120
3 136 179 175
3 137 136 175
3 175 120 130
3 130 145 128
3 130 128 127
3 137 175 130
3 139 137 130
3 139 130 127
3 140 139 127
3 140 127 181
3 138 140 181
3 138 181 182
3 183 138 182
3 183 182 184
3 118 183 184
3 118 184 185
3 117 118 185
3 117 185 186
3 150 187 188
3 188 117 186
3 189 190 191
3 188 186 189
3 149 150 188
3 192 193 149
3 194 195 192
3 196 194 192
3 192 149 188
3 188 189 191
3 191 197 115
3 115 116 114
3 114 113 112
3 112 111 119
3 119 198 199
3 199 200 141
3 141 142 201
3 201 202 203
3 203 204 205
3 205 206 207
3 207 208 209
3 205 207 209
3 201 203 205
3 199 141 201
3 112 119 199
3 115 114 112
3 188 191 115
3 196 192 188
3 210 211 212
3 212 196 188
3 188 115 112
3 112 199 201
3 201 205 209
3 201 209 213
3 188 112 201
3 210 212 188
3 214 215 210
3 143 144 214
3 216 217 143
3 218 219 216
3 218 216 143
3 143 214 210
3 188 201 213
3 188 213 220
3 143 210 188
3 218 143 188
3 188 220 221
3 221 218 188
3 164 68 67
3 164 67 124
3 197 9 8
3 197 8 115
3 80 79 157
3 80 157 156
3 213 28 30
3 213 30 220
3 59 58 167
3 59 167 166
3 25 28 213
3 25 213 209
3 207 24 23
3 23 25 209
3 208 207 23
3 209 208 23
3 126 65 64
3 126 64 165
3 82 81 155
3 82 155 154
3 83 82 154
3 83 154 153
3 84 83 153
3 84 153 152
3 174 86 85
3 85 84 152
3 151 174 85
3 152 151 85
3 68 164 163
3 68 163 69
3 118 108 109
3 118 109 183
3 122 71 70
3 122 70 162
3 200 14 16
3 200 16 141
3 155 81 80
3 155 80 156
3 34 38 217
3 34 217 216
3 36 34 216
3 36 216 219
3 220 30 32
3 32 36 219
3 32 219 218
3 221 220 32
3 218 221 32
3 192 99 98
3 192 98 193
3 215 41 44
3 215 44 210
3 217 38 40
3 217 40 143
3 63 131 165
3 63 165 64
3 157 79 78
3 157 78 121
3 119 2 1
3 119 1 198
3 73 72 123
3 73 123 161
3 74 73 161
3 74 161 160
3 75 74 160
3 75 160 159
3 120 77 76
3 76 75 159
3 158 120 76
3 76 159 158
3 50 49 195
3 50 195 194
3 51 50 194
3 51 194 196
3 45 51 196
3 45 196 212
3 210 44 43
3 43 45 212
3 211 210 43
3 212 211 43
3 187 103 102
3 187 102 188
3 31 29 27
3 27 26 185
3 27 185 184
3 33 31 27
3 181 127 33
3 27 184 182
3 182 181 33
3 27 182 33
3 178 90 89
3 178 89 175
3 193 98 101
3 193 101 149
3 142 15 18
3 142 18 201
3 110 138 183
3 110 183 109
3 150 100 103
3 150 103 187
3 201 18 17
3 201 17 202
3 214 42 41
3 214 41 215
3 203 20 19
3 203 19 204
3 199 0 14
3 199 14 200
3 198 1 0
3 198 0 199
3 169 168 57
3 169 57 56
3 170 169 56
3 170 56 55
3 171 170 55
3 171 55 54
3 52 147 172
3 172 171 54
3 53 52 172
3 54 53 172
3 57 168 167
3 57 167 58
3 175 89 88
3 175 88 176
3 59 166 129
3 59 129 60
3 86 174 173
3 86 173 87
3 91 90 178
3 91 178 177
3 92 91 177
3 92 177 180
3 133 94 93
3 93 92 180
3 179 133 93
3 180 179 93
3 26 13 12
3 26 12 11
3 186 185 26
3 189 186 26
3 189 26 11
3 190 189 11
3 10 9 197
3 190 11 10
3 10 197 191
3 10 191 190
3 195 49 99
3 195 99 192
3 22 21 24
3 24 207 206
3 205 204 19
3 24 206 205
3 19 22 24
3 24 205 19
3 162 70 69
3 162 69 163
3 144 39 42
3 144 42 214
3 188 102 105
3 188 105 117
3 87 173 176
3 87 176 88
3 202 17 20
3 202 20 203
