ply
format ascii 1.0
comment Created by Blender 3.6.8 - www.blender.org
element vertex 142
property float x
property float y
property float z
element face 272
property list uchar uint vertex_indices
end_header
0.013182 0.000920 0.150000
0.013182 0.000920 0.000000
0.013280 0.001046 0.000000
0.013280 0.001046 0.150000
0.010630 0.000079 0.000000
0.010860 0.000045 0.000000
0.010860 0.000045 0.150000
0.010630 0.000079 0.150000
0.010398 0.000122 0.000000
0.010398 0.000122 0.150000
0.009950 0.000227 0.150000
0.009950 0.000227 0.000000
0.010169 0.000171 0.000000
0.010169 0.000171 0.150000
0.013198 0.006251 0.150000
0.013198 0.006251 0.000000
0.011462 0.007683 0.000000
0.010421 0.008460 0.000000
0.010119 0.008709 0.000000
0.010119 0.008709 0.150000
0.011462 0.007683 0.150000
0.010421 0.008460 0.150000
0.012914 0.000676 0.150000
0.012914 0.000676 0.000000
0.013058 0.000796 0.000000
0.013058 0.000796 0.150000
0.011943 0.000120 0.000000
0.011943 0.000120 0.150000
0.011715 0.000031 0.150000
0.011715 0.000031 0.000000
0.003828 0.014037 0.000000
0.003828 0.014037 0.150000
0.004278 0.013834 0.150000
0.004278 0.013834 0.000000
0.013347 0.001174 0.000000
0.013347 0.001174 0.150000
0.000582 0.014409 0.000000
0.000000 0.013343 0.000000
0.000000 0.013343 0.150000
0.000582 0.014409 0.150000
0.012249 0.000265 0.000000
0.012417 0.000355 0.000000
0.012588 0.000454 0.000000
0.012588 0.000454 0.150000
0.012417 0.000355 0.150000
0.012249 0.000265 0.150000
0.012089 0.000186 0.000000
0.012089 0.000186 0.150000
0.013571 0.001798 0.000000
0.013610 0.001922 0.000000
0.013649 0.002046 0.000000
0.013685 0.002171 0.000000
0.013685 0.002171 0.150000
0.013649 0.002046 0.150000
0.013529 0.001675 0.000000
0.013441 0.001426 0.000000
0.013441 0.001426 0.150000
0.013529 0.001675 0.150000
0.013610 0.001922 0.150000
0.013571 0.001798 0.150000
0.013555 0.005898 0.150000
0.013555 0.005898 0.000000
0.011459 0.000000 0.000000
0.011459 0.000000 0.150000
0.014054 0.004996 0.150000
0.014054 0.004996 0.000000
0.014007 0.005206 0.000000
0.014007 0.005206 0.150000
0.013720 0.002298 0.150000
0.013753 0.002427 0.150000
0.013784 0.002558 0.150000
0.013814 0.002692 0.150000
0.013887 0.003034 0.150000
0.013931 0.003249 0.150000
0.013974 0.003485 0.150000
0.014014 0.003736 0.150000
0.014072 0.004258 0.150000
0.014078 0.004764 0.150000
0.013933 0.005387 0.150000
0.013832 0.005554 0.150000
0.007273 0.011744 0.150000
0.007012 0.011975 0.150000
0.011606 0.000009 0.150000
0.006314 0.001946 0.150000
0.009574 0.000351 0.150000
0.005928 0.002266 0.150000
0.006085 0.002113 0.150000
0.005788 0.002428 0.150000
0.003668 0.004501 0.150000
0.003869 0.004290 0.150000
0.005603 0.002620 0.150000
0.003330 0.014187 0.150000
0.002464 0.014327 0.150000
0.000076 0.013108 0.150000
0.000254 0.012622 0.150000
0.000514 0.011935 0.150000
0.000836 0.011094 0.150000
0.001594 0.009156 0.150000
0.001991 0.008156 0.150000
0.002374 0.007203 0.150000
0.002725 0.006344 0.150000
0.003024 0.005631 0.150000
0.003253 0.005113 0.150000
0.003391 0.004839 0.150000
0.003505 0.004686 0.150000
0.003330 0.014187 0.000000
0.002464 0.014327 0.000000
0.011606 0.000009 0.000000
0.003253 0.005113 0.000000
0.003391 0.004839 0.000000
0.003505 0.004686 0.000000
0.007012 0.011975 0.000000
0.007273 0.011744 0.000000
0.006085 0.002113 0.000000
0.006314 0.001946 0.000000
0.013931 0.003249 0.000000
0.013974 0.003485 0.000000
0.014014 0.003736 0.000000
0.013887 0.003034 0.000000
0.013784 0.002558 0.000000
0.013814 0.002692 0.000000
0.013720 0.002298 0.000000
0.013753 0.002427 0.000000
0.013933 0.005387 0.000000
0.013832 0.005554 0.000000
0.009574 0.000351 0.000000
0.005928 0.002266 0.000000
0.005788 0.002428 0.000000
0.014072 0.004258 0.000000
0.014078 0.004764 0.000000
0.005603 0.002620 0.000000
0.003869 0.004290 0.000000
0.003668 0.004501 0.000000
0.003024 0.005631 0.000000
0.002725 0.006344 0.000000
0.002374 0.007203 0.000000
0.001991 0.008156 0.000000
0.001594 0.009156 0.000000
0.000836 0.011094 0.000000
0.000514 0.011935 0.000000
0.000254 0.012622 0.000000
0.000076 0.013108 0.000000
3 0 1 2
3 0 2 3
3 4 5 6
3 4 6 7
3 8 4 7
3 8 7 9
3 10 11 12
3 12 8 9
3 13 10 12
3 12 9 13
3 14 15 16
3 17 18 19
3 14 16 17
3 20 14 17
3 17 19 21
3 17 21 20
3 22 23 24
3 22 24 25
3 25 24 1
3 25 1 0
3 26 27 28
3 26 28 29
3 30 31 32
3 30 32 33
3 3 2 34
3 3 34 35
3 36 37 38
3 36 38 39
3 40 41 42
3 42 43 44
3 42 44 45
3 46 40 42
3 27 26 46
3 42 45 47
3 47 27 46
3 42 47 46
3 48 49 50
3 50 51 52
3 50 52 53
3 54 48 50
3 34 55 54
3 56 35 34
3 57 56 34
3 34 54 50
3 50 53 58
3 59 57 34
3 50 58 59
3 50 59 34
3 15 14 60
3 15 60 61
3 42 23 22
3 42 22 43
3 6 5 62
3 6 62 63
3 64 65 66
3 64 66 67
3 28 27 47
3 47 45 44
3 44 43 22
3 22 25 0
3 0 3 35
3 35 56 57
3 57 59 58
3 58 53 52
3 52 68 69
3 69 70 71
3 71 72 73
3 73 74 75
3 75 76 77
3 77 64 67
3 67 78 79
3 79 60 14
3 14 20 21
3 19 80 81
3 79 14 21
3 19 81 32
3 79 21 19
3 77 67 79
3 73 75 77
3 69 71 73
3 58 52 69
3 35 57 58
3 22 0 35
3 47 44 22
3 82 28 47
3 6 63 82
3 9 7 6
3 10 13 9
3 83 84 10
3 85 86 83
3 87 85 83
3 83 10 9
3 9 6 82
3 82 47 22
3 22 35 58
3 58 69 73
3 73 77 79
3 19 32 31
3 73 79 19
3 22 58 73
3 9 82 22
3 87 83 9
3 88 89 90
3 90 87 9
3 9 22 73
3 73 19 31
3 31 91 92
3 92 39 38
3 38 93 94
3 94 95 96
3 96 97 98
3 98 99 100
3 100 101 102
3 102 103 104
3 104 88 90
3 90 9 73
3 73 31 92
3 92 38 94
3 94 96 98
3 98 100 102
3 102 104 90
3 90 73 92
3 92 94 98
3 98 102 90
3 92 98 90
3 105 106 92
3 105 92 91
3 63 62 107
3 63 107 82
3 102 108 109
3 102 109 103
3 103 109 110
3 103 110 104
3 111 81 80
3 111 80 112
3 86 113 114
3 86 114 83
3 115 116 117
3 117 75 74
3 117 74 73
3 118 115 117
3 119 120 118
3 121 122 119
3 52 51 121
3 68 52 121
3 121 119 118
3 118 117 73
3 118 73 72
3 68 121 118
3 69 68 118
3 118 72 71
3 70 69 118
3 71 70 118
3 111 33 32
3 111 32 81
3 78 123 124
3 78 124 79
3 116 115 118
3 121 51 50
3 48 54 55
3 55 34 2
3 2 1 24
3 24 23 42
3 40 46 26
3 26 29 107
3 107 62 5
3 5 4 8
3 8 12 11
3 11 125 114
3 114 113 126
3 114 126 127
3 8 11 114
3 107 5 8
3 40 26 107
3 24 42 40
3 55 2 24
3 50 48 55
3 119 121 50
3 116 118 119
3 128 117 116
3 65 129 128
3 123 66 65
3 61 124 123
3 16 15 61
3 17 16 61
3 61 123 65
3 65 128 116
3 116 119 50
3 50 55 24
3 24 40 107
3 107 8 114
3 114 127 130
3 130 131 132
3 132 110 109
3 109 108 133
3 133 134 135
3 135 136 137
3 137 138 139
3 139 140 141
3 141 37 36
3 36 106 105
3 105 30 33
3 33 111 112
3 33 112 18
3 36 105 33
3 139 141 36
3 135 137 139
3 109 133 135
3 130 132 109
3 107 114 130
3 50 24 107
3 65 116 50
3 17 61 65
3 36 33 18
3 18 17 65
3 65 50 107
3 107 130 109
3 109 135 139
3 139 36 18
3 18 65 107
3 107 109 139
3 107 139 18
3 125 11 10
3 125 10 84
3 114 125 84
3 114 84 83
3 131 130 127
3 126 113 86
3 131 127 126
3 104 110 132
3 131 126 86
3 104 132 131
3 88 104 131
3 131 86 85
3 131 85 87
3 89 88 131
3 131 87 90
3 131 90 89
3 75 117 128
3 75 128 76
3 76 128 129
3 76 129 77
3 67 66 123
3 67 123 78
3 82 107 29
3 82 29 28
3 133 108 102
3 133 102 101
3 137 135 133
3 38 37 141
3 93 38 141
3 141 139 137
3 137 133 101
3 137 101 100
3 93 141 137
3 94 93 137
3 137 100 99
3 137 99 98
3 95 94 137
3 96 95 137
3 137 98 97
3 97 96 137
3 77 129 65
3 77 65 64
3 124 61 60
3 124 60 79
3 19 18 112
3 19 112 80
3 106 36 39
3 106 39 92
3 31 30 105
3 31 105 91
