ply
format ascii 1.0
comment Created by Blender 3.6.8 - www.blender.org
element vertex 141
property float x
property float y
property float z
element face 276
property list uchar uint vertex_indices
end_header
0.006580 0.005381 0.150000
0.006580 0.005381 0.000000
0.006372 0.005448 0.000000
0.006372 0.005448 0.150000
0.005004 0.005658 0.000000
0.005004 0.005658 0.150000
0.000120 0.005748 0.150000
0.000120 0.005748 0.000000
0.000067 0.005737 0.000000
0.000067 0.005737 0.150000
0.006188 0.000119 0.150000
0.006188 0.000119 0.000000
0.006341 0.000222 0.000000
0.006341 0.000222 0.150000
0.008012 0.003238 0.000000
0.008012 0.003238 0.150000
0.008028 0.002943 0.150000
0.008028 0.002943 0.000000
0.000273 0.005758 0.000000
0.000189 0.005755 0.000000
0.000189 0.005755 0.150000
0.000273 0.005758 0.150000
0.000367 0.005759 0.000000
0.000367 0.005759 0.150000
0.000577 0.005752 0.000000
0.000577 0.005752 0.150000
0.001185 0.005717 0.000000
0.001185 0.005717 0.150000
0.004658 0.005679 0.000000
0.004658 0.005679 0.150000
0.004830 0.005671 0.000000
0.004830 0.005671 0.150000
0.006779 0.005280 0.000000
0.006970 0.005154 0.000000
0.007611 0.004601 0.000000
0.007680 0.004520 0.000000
0.007737 0.004439 0.000000
0.007783 0.004355 0.000000
0.007819 0.004268 0.000000
0.007873 0.004074 0.000000
0.008005 0.002679 0.000000
0.007949 0.002429 0.000000
0.007910 0.002304 0.000000
0.007865 0.002176 0.000000
0.007702 0.001753 0.000000
0.007641 0.001608 0.000000
0.007513 0.001364 0.000000
0.007363 0.001160 0.000000
0.007277 0.001064 0.000000
0.007182 0.000968 0.000000
0.007075 0.000868 0.000000
0.006956 0.000761 0.000000
0.006823 0.000643 0.000000
0.006674 0.000511 0.000000
0.006508 0.000362 0.000000
0.006043 0.000050 0.000000
0.005901 0.000012 0.000000
0.005758 0.000000 0.000000
0.005607 0.000012 0.000000
0.005444 0.000044 0.000000
0.005264 0.000093 0.000000
0.004570 0.000306 0.000000
0.004270 0.000389 0.000000
0.003978 0.000478 0.000000
0.000016 0.005696 0.000000
0.000034 0.005721 0.000000
0.000000 0.005613 0.000000
0.000005 0.005659 0.000000
0.000023 0.005391 0.000000
0.000001 0.005561 0.000000
0.000351 0.004826 0.000000
0.000189 0.005040 0.000000
0.000061 0.005229 0.000000
0.003739 0.000581 0.000000
0.003545 0.000696 0.000000
0.003388 0.000823 0.000000
0.003260 0.000963 0.000000
0.003154 0.001113 0.000000
0.003061 0.001275 0.000000
0.002884 0.001631 0.000000
0.002785 0.001825 0.000000
0.002152 0.002714 0.000000
0.000540 0.004590 0.000000
0.002351 0.002467 0.000000
0.002667 0.002027 0.000000
0.002524 0.002240 0.000000
0.005901 0.000012 0.150000
0.006043 0.000050 0.150000
0.003154 0.001113 0.150000
0.003061 0.001275 0.150000
0.002884 0.001631 0.150000
0.002667 0.002027 0.150000
0.002785 0.001825 0.150000
0.003545 0.000696 0.150000
0.003739 0.000581 0.150000
0.007680 0.004520 0.150000
0.007611 0.004601 0.150000
0.002524 0.002240 0.150000
0.002351 0.002467 0.150000
0.002152 0.002714 0.150000
0.000540 0.004590 0.150000
0.000189 0.005040 0.150000
0.000351 0.004826 0.150000
0.005758 0.000000 0.150000
0.006970 0.005154 0.150000
0.000061 0.005229 0.150000
0.007737 0.004439 0.150000
0.007949 0.002429 0.150000
0.007910 0.002304 0.150000
0.007865 0.002176 0.150000
0.007641 0.001608 0.150000
0.007702 0.001753 0.150000
0.003260 0.000963 0.150000
0.008005 0.002679 0.150000
0.000016 0.005696 0.150000
0.000005 0.005659 0.150000
0.000034 0.005721 0.150000
0.003388 0.000823 0.150000
0.006779 0.005280 0.150000
0.000058 0.005237 0.150000
0.000023 0.005391 0.150000
0.000001 0.005561 0.150000
0.000000 0.005613 0.150000
0.005444 0.000044 0.150000
0.005607 0.000012 0.150000
0.003978 0.000478 0.150000
0.007873 0.004074 0.150000
0.005264 0.000093 0.150000
0.004570 0.000306 0.150000
0.004270 0.000389 0.150000
0.007363 0.001160 0.150000
0.007277 0.001064 0.150000
0.007182 0.000968 0.150000
0.007075 0.000868 0.150000
0.006508 0.000362 0.150000
0.006674 0.000511 0.150000
0.006956 0.000761 0.150000
0.006823 0.000643 0.150000
0.007513 0.001364 0.150000
0.007819 0.004268 0.150000
0.007783 0.004355 0.150000
3 0 1 2
3 0 2 3
3 2 4 5
3 2 5 3
3 6 7 8
3 6 8 9
3 10 11 12
3 10 12 13
3 14 15 16
3 14 16 17
3 18 19 20
3 18 20 21
3 22 18 21
3 22 21 23
3 24 22 23
3 24 23 25
3 26 24 25
3 26 25 27
3 28 26 27
3 28 27 29
3 5 4 30
3 30 28 29
3 31 5 30
3 29 31 30
3 26 28 30
3 30 4 2
3 2 1 32
3 32 33 34
3 34 35 36
3 36 37 38
3 38 39 14
3 14 17 40
3 40 41 42
3 42 43 44
3 44 45 46
3 46 47 48
3 48 49 50
3 50 51 52
3 53 54 12
3 50 52 53
3 46 48 50
3 42 44 46
3 14 40 42
3 36 38 14
3 32 34 36
3 30 2 32
3 22 24 26
3 26 30 32
3 32 36 14
3 14 42 46
3 46 50 53
3 53 12 11
3 11 55 56
3 56 57 58
3 58 59 60
3 61 62 63
3 58 60 61
3 11 56 58
3 46 53 11
3 32 14 46
3 22 26 32
3 19 18 22
3 8 7 19
3 64 65 8
3 66 67 64
3 68 69 66
3 70 71 72
3 68 66 64
3 64 8 19
3 19 22 32
3 32 46 11
3 11 58 61
3 61 63 73
3 73 74 75
3 75 76 77
3 77 78 79
3 77 79 80
3 73 75 77
3 11 61 73
3 19 32 11
3 68 64 19
3 70 72 68
3 81 82 70
3 81 70 68
3 68 19 11
3 11 73 77
3 11 77 80
3 81 68 11
3 83 81 11
3 11 80 84
3 85 83 11
3 11 84 85
3 86 56 55
3 86 55 87
3 20 19 7
3 20 7 6
3 78 77 88
3 78 88 89
3 79 78 89
3 79 89 90
3 91 84 80
3 80 79 90
3 92 91 80
3 90 92 80
3 93 74 73
3 93 73 94
3 95 35 34
3 95 34 96
3 83 85 97
3 83 97 98
3 81 83 98
3 81 98 99
3 82 81 99
3 82 99 100
3 101 71 70
3 70 82 100
3 102 101 70
3 100 102 70
3 103 57 56
3 103 56 86
3 34 33 104
3 34 104 96
3 105 72 71
3 105 71 101
3 106 36 35
3 106 35 95
3 42 41 107
3 42 107 108
3 43 42 108
3 43 108 109
3 110 45 44
3 44 43 109
3 111 110 44
3 109 111 44
3 88 77 76
3 88 76 112
3 107 41 40
3 107 40 113
3 114 64 67
3 114 67 115
3 9 8 65
3 9 65 116
3 112 76 75
3 112 75 117
3 104 33 32
3 104 32 118
3 68 72 105
3 119 120 68
3 105 119 68
3 69 68 120
3 69 120 121
3 122 66 69
3 122 69 121
3 87 55 11
3 87 11 10
3 123 59 58
3 123 58 124
3 94 73 63
3 94 63 125
3 14 39 126
3 14 126 15
3 60 59 123
3 60 123 127
3 61 60 127
3 61 127 128
3 125 63 62
3 62 61 128
3 129 125 62
3 62 128 129
3 97 85 84
3 97 84 91
3 48 47 130
3 48 130 131
3 51 50 48
3 52 51 48
3 48 131 132
3 48 132 133
3 53 52 48
3 134 13 12
3 135 134 12
3 12 53 48
3 48 133 136
3 137 135 12
3 48 136 137
3 48 137 12
3 87 10 13
3 13 134 135
3 137 136 133
3 13 135 137
3 86 87 13
3 124 103 86
3 127 123 124
3 125 129 128
3 128 127 124
3 124 86 13
3 13 137 133
3 133 132 131
3 131 130 138
3 138 110 111
3 111 109 108
3 108 107 113
3 113 16 15
3 15 126 139
3 139 140 106
3 106 95 96
3 96 104 118
3 118 0 3
3 3 5 31
3 31 29 27
3 27 25 23
3 23 21 20
3 20 6 9
3 9 116 114
3 114 115 122
3 122 121 120
3 120 119 105
3 105 101 102
3 102 100 99
3 105 102 99
3 122 120 105
3 9 114 122
3 23 20 9
3 3 31 27
3 27 23 9
3 9 122 105
3 9 105 99
3 3 27 9
3 96 118 3
3 139 106 96
3 113 15 139
3 111 108 113
3 131 138 111
3 13 133 131
3 128 124 13
3 94 125 128
3 117 93 94
3 88 112 117
3 90 89 88
3 92 90 88
3 88 117 94
3 94 128 13
3 13 131 111
3 111 113 139
3 139 96 3
3 3 9 99
3 3 99 98
3 111 139 3
3 94 13 111
3 92 88 94
3 91 92 94
3 94 111 3
3 3 98 97
3 97 91 94
3 3 97 94
3 130 47 46
3 130 46 138
3 39 38 139
3 39 139 126
3 32 1 0
3 32 0 118
3 46 45 110
3 46 110 138
3 117 75 74
3 117 74 93
3 140 37 36
3 140 36 106
3 115 67 66
3 115 66 122
3 116 65 64
3 116 64 114
3 139 38 37
3 139 37 140
3 124 58 57
3 124 57 103
3 17 16 113
3 17 113 40
