ply
format ascii 1.0
comment Created by Blender 3.6.8 - www.blender.org
element vertex 234
property float x
property float y
property float z
element face 461
property list uchar uint vertex_indices
end_header
0.003086 0.003906 0.000000
0.003148 0.003800 0.000000
0.003148 0.003800 0.150000
0.003086 0.003906 0.150000
0.002924 0.004226 0.000000
0.002975 0.004129 0.000000
0.003028 0.004020 0.000000
0.003028 0.004020 0.150000
0.002876 0.004312 0.000000
0.002779 0.004461 0.000000
0.002827 0.004390 0.000000
0.002827 0.004390 0.150000
0.002779 0.004461 0.150000
0.002876 0.004312 0.150000
0.002975 0.004129 0.150000
0.002924 0.004226 0.150000
0.000243 0.007585 0.000000
0.000206 0.007505 0.000000
0.000206 0.007505 0.150000
0.000243 0.007585 0.150000
0.000284 0.007665 0.000000
0.000284 0.007665 0.150000
0.000328 0.007747 0.000000
0.000328 0.007747 0.150000
0.000736 0.008446 0.150000
0.000736 0.008446 0.000000
0.000680 0.008355 0.000000
0.000680 0.008355 0.150000
0.009409 0.000578 0.150000
0.009409 0.000578 0.000000
0.009469 0.000646 0.000000
0.009469 0.000646 0.150000
0.003406 0.003453 0.000000
0.003515 0.003335 0.000000
0.003591 0.003261 0.000000
0.003619 0.003235 0.000000
0.003619 0.003235 0.150000
0.003591 0.003261 0.150000
0.003406 0.003453 0.150000
0.003515 0.003335 0.150000
0.009484 0.002607 0.000000
0.009404 0.002836 0.000000
0.009310 0.003107 0.000000
0.008893 0.004309 0.000000
0.009581 0.002334 0.000000
0.009544 0.002434 0.000000
0.009622 0.002211 0.150000
0.009622 0.002211 0.000000
0.009602 0.002273 0.000000
0.009602 0.002273 0.150000
0.008804 0.004563 0.000000
0.009581 0.002334 0.150000
0.008732 0.004769 0.000000
0.009544 0.002434 0.150000
0.008682 0.004911 0.000000
0.008658 0.004974 0.000000
0.008658 0.004974 0.150000
0.009484 0.002607 0.150000
0.008682 0.004911 0.150000
0.008732 0.004769 0.150000
0.009404 0.002836 0.150000
0.009310 0.003107 0.150000
0.008804 0.004563 0.150000
0.008893 0.004309 0.150000
0.000831 0.008576 0.000000
0.000831 0.008576 0.150000
0.002563 0.009538 0.000000
0.003119 0.009822 0.000000
0.003160 0.009842 0.000000
0.003183 0.009852 0.000000
0.003218 0.009851 0.000000
0.003289 0.009838 0.000000
0.003390 0.009816 0.000000
0.003512 0.009787 0.000000
0.003648 0.009754 0.000000
0.004359 0.009568 0.000000
0.007003 0.007286 0.000000
0.001509 0.009035 0.000000
0.001656 0.009110 0.000000
0.001269 0.008900 0.000000
0.001378 0.008964 0.000000
0.000913 0.008658 0.000000
0.000953 0.008687 0.000000
0.001133 0.008803 0.000000
0.000873 0.008621 0.000000
0.000173 0.007423 0.000000
0.000118 0.007247 0.000000
0.000143 0.007338 0.000000
0.000000 0.006414 0.000000
0.000006 0.006575 0.000000
0.000023 0.006216 0.000000
0.000010 0.006275 0.000000
0.000075 0.006115 0.000000
0.000041 0.006164 0.000000
0.000304 0.005962 0.000000
0.000133 0.006065 0.000000
0.000518 0.005863 0.000000
0.000408 0.005911 0.000000
0.000737 0.005773 0.000000
0.000629 0.005816 0.000000
0.000926 0.005700 0.000000
0.000997 0.005672 0.000000
0.001136 0.005612 0.000000
0.001089 0.005631 0.000000
0.001047 0.005650 0.000000
0.001245 0.005573 0.000000
0.001189 0.005593 0.000000
0.001305 0.005552 0.000000
0.001365 0.005530 0.000000
0.009640 0.002147 0.000000
0.009657 0.002082 0.000000
0.009684 0.001951 0.000000
0.009695 0.001886 0.000000
0.009703 0.001823 0.000000
0.009710 0.001761 0.000000
0.009714 0.001702 0.000000
0.009715 0.001592 0.000000
0.009692 0.001402 0.000000
0.009504 0.000710 0.000000
0.009331 0.000507 0.000000
0.009136 0.000363 0.000000
0.009028 0.000293 0.000000
0.008920 0.000227 0.000000
0.008816 0.000166 0.000000
0.008722 0.000111 0.000000
0.008578 0.000029 0.000000
0.008538 0.000005 0.000000
0.008444 0.000002 0.000000
0.008233 0.000027 0.000000
0.007128 0.000213 0.000000
0.005154 0.000622 0.000000
0.004954 0.000676 0.000000
0.004875 0.000710 0.000000
0.004842 0.000778 0.000000
0.004768 0.000928 0.000000
0.001426 0.005508 0.000000
0.001486 0.005485 0.000000
0.001543 0.005462 0.000000
0.001776 0.005345 0.000000
0.001732 0.005362 0.000000
0.001597 0.005437 0.000000
0.001978 0.005285 0.000000
0.002036 0.005262 0.000000
0.002097 0.005230 0.000000
0.002160 0.005188 0.000000
0.002227 0.005133 0.000000
0.002731 0.004529 0.000000
0.002298 0.005064 0.000000
0.002371 0.004978 0.000000
0.002680 0.004596 0.000000
0.009504 0.000710 0.150000
0.009331 0.000507 0.150000
0.008444 0.000002 0.150000
0.008233 0.000027 0.150000
0.007128 0.000213 0.150000
0.004954 0.000676 0.150000
0.005154 0.000622 0.150000
0.000913 0.008658 0.150000
0.000953 0.008687 0.150000
0.001133 0.008803 0.150000
0.001269 0.008900 0.150000
0.001378 0.008964 0.150000
0.009692 0.001402 0.150000
0.000041 0.006164 0.150000
0.000075 0.006115 0.150000
0.002731 0.004529 0.150000
0.002680 0.004596 0.150000
0.002298 0.005064 0.150000
0.002371 0.004978 0.150000
0.009136 0.000363 0.150000
0.009028 0.000293 0.150000
0.008920 0.000227 0.150000
0.008816 0.000166 0.150000
0.008722 0.000111 0.150000
0.008538 0.000005 0.150000
0.008578 0.000029 0.150000
0.000133 0.006065 0.150000
0.000304 0.005962 0.150000
0.009715 0.001592 0.150000
0.009714 0.001702 0.150000
0.004359 0.009568 0.150000
0.007003 0.007286 0.150000
0.003218 0.009851 0.150000
0.003289 0.009838 0.150000
0.003390 0.009816 0.150000
0.003512 0.009787 0.150000
0.003648 0.009754 0.150000
0.004875 0.000710 0.150000
0.004842 0.000778 0.150000
0.004768 0.000928 0.150000
0.000006 0.006575 0.150000
0.000118 0.007247 0.150000
0.000000 0.006414 0.150000
0.009710 0.001761 0.150000
0.009703 0.001823 0.150000
0.009695 0.001886 0.150000
0.009684 0.001951 0.150000
0.009657 0.002082 0.150000
0.009640 0.002147 0.150000
0.003183 0.009852 0.150000
0.003160 0.009842 0.150000
0.003119 0.009822 0.150000
0.002563 0.009538 0.150000
0.001656 0.009110 0.150000
0.001509 0.009035 0.150000
0.000873 0.008621 0.150000
0.000173 0.007423 0.150000
0.000143 0.007338 0.150000
0.000010 0.006275 0.150000
0.000023 0.006216 0.150000
0.000408 0.005911 0.150000
0.000518 0.005863 0.150000
0.000629 0.005816 0.150000
0.000737 0.005773 0.150000
0.000926 0.005700 0.150000
0.000997 0.005672 0.150000
0.002227 0.005133 0.150000
0.001047 0.005650 0.150000
0.001089 0.005631 0.150000
0.001136 0.005612 0.150000
0.001189 0.005593 0.150000
0.001245 0.005573 0.150000
0.001305 0.005552 0.150000
0.002160 0.005188 0.150000
0.002097 0.005230 0.150000
0.001365 0.005530 0.150000
0.002036 0.005262 0.150000
0.001732 0.005362 0.150000
0.001776 0.005345 0.150000
0.001978 0.005285 0.150000
0.001426 0.005508 0.150000
0.001486 0.005485 0.150000
0.001597 0.005437 0.150000
0.001543 0.005462 0.150000
3 0 1 2
3 0 2 3
3 4 5 6
3 6 0 3
3 6 3 7
3 8 4 6
3 9 10 8
3 11 12 9
3 13 11 9
3 9 8 6
3 6 7 14
3 15 13 9
3 6 14 15
3 6 15 9
3 16 17 18
3 16 18 19
3 20 16 19
3 20 19 21
3 22 20 21
3 22 21 23
3 24 25 26
3 26 22 23
3 27 24 26
3 23 27 26
3 28 29 30
3 28 30 31
3 32 33 34
3 34 35 36
3 34 36 37
3 38 32 34
3 34 37 39
3 34 39 38
3 40 41 42
3 40 42 43
3 44 45 40
3 46 47 48
3 44 40 43
3 46 48 44
3 49 46 44
3 44 43 50
3 49 44 50
3 51 49 50
3 51 50 52
3 53 51 52
3 54 55 56
3 53 52 54
3 57 53 54
3 54 56 58
3 54 58 59
3 60 57 54
3 61 60 54
3 54 59 62
3 63 61 54
3 54 62 63
3 64 25 24
3 64 24 65
3 66 67 68
3 68 69 70
3 70 71 72
3 72 73 74
3 74 75 76
3 76 55 54
3 54 52 50
3 50 43 42
3 54 50 42
3 74 76 54
3 70 72 74
3 66 68 70
3 77 78 66
3 79 80 77
3 81 82 83
3 83 79 77
3 66 70 74
3 83 77 66
3 84 81 83
3 25 64 84
3 22 26 25
3 16 20 22
3 85 17 16
3 86 87 85
3 88 89 86
3 90 91 88
3 92 93 90
3 94 95 92
3 96 97 94
3 98 99 96
3 100 98 96
3 96 94 92
3 92 90 88
3 88 86 85
3 85 16 22
3 22 25 84
3 84 83 66
3 66 74 54
3 54 42 41
3 66 54 41
3 22 84 66
3 88 85 22
3 96 92 88
3 101 100 96
3 102 103 104
3 101 96 88
3 102 104 101
3 105 106 102
3 107 105 102
3 102 101 88
3 88 22 66
3 66 41 40
3 45 44 48
3 66 40 45
3 102 88 66
3 108 107 102
3 108 102 66
3 66 45 48
3 48 47 109
3 109 110 111
3 111 112 113
3 113 114 115
3 115 116 117
3 117 118 30
3 30 29 119
3 119 120 121
3 121 122 123
3 123 124 125
3 125 126 127
3 127 128 129
3 129 130 131
3 131 132 133
3 131 133 134
3 127 129 131
3 123 125 127
3 119 121 123
3 117 30 119
3 113 115 117
3 109 111 113
3 66 48 109
3 135 108 66
3 136 135 66
3 66 109 113
3 113 117 119
3 119 123 127
3 127 131 134
3 35 34 33
3 127 134 35
3 113 119 127
3 137 136 66
3 138 139 140
3 140 137 66
3 66 113 127
3 127 35 33
3 33 32 1
3 1 0 6
3 1 6 5
3 127 33 1
3 138 140 66
3 141 138 66
3 66 127 1
3 1 5 4
3 66 1 4
3 142 141 66
3 143 142 66
3 66 4 8
3 66 8 10
3 144 143 66
3 145 144 66
3 66 10 9
3 66 9 146
3 147 145 66
3 148 147 66
3 66 146 149
3 66 149 148
3 31 30 118
3 31 118 150
3 151 119 29
3 151 29 28
3 128 127 152
3 128 152 153
3 129 128 153
3 129 153 154
3 155 131 130
3 130 129 154
3 156 155 130
3 154 156 130
3 81 157 158
3 81 158 159
3 80 79 83
3 83 81 159
3 160 161 80
3 83 159 160
3 83 160 80
3 117 162 150
3 117 150 118
3 163 93 92
3 163 92 164
3 146 9 12
3 146 12 165
3 149 146 165
3 149 165 166
3 167 147 148
3 148 149 166
3 168 167 148
3 166 168 148
3 121 120 169
3 121 169 170
3 122 121 170
3 122 170 171
3 123 122 171
3 123 171 172
3 126 125 124
3 124 123 172
3 124 172 173
3 174 126 124
3 124 173 175
3 175 174 124
3 176 95 94
3 176 94 177
3 178 116 115
3 178 115 179
3 76 75 180
3 76 180 181
3 71 70 182
3 71 182 183
3 72 71 183
3 72 183 184
3 73 72 184
3 73 184 185
3 180 75 74
3 74 73 185
3 186 180 74
3 185 186 74
3 133 132 187
3 133 187 188
3 36 35 134
3 134 133 188
3 189 36 134
3 134 188 189
3 86 89 190
3 86 190 191
3 162 117 116
3 162 116 178
3 152 127 126
3 152 126 174
3 89 88 192
3 89 192 190
3 3 2 38
3 38 39 37
3 38 37 36
3 7 3 38
3 14 7 38
3 14 38 36
3 15 14 36
3 13 15 36
3 11 13 36
3 12 11 36
3 188 187 155
3 155 156 154
3 154 153 152
3 152 174 175
3 175 173 172
3 172 171 170
3 170 169 151
3 151 28 31
3 31 150 162
3 162 178 179
3 179 193 194
3 194 195 196
3 196 197 198
3 198 46 49
3 49 51 53
3 198 49 53
3 194 196 198
3 162 179 194
3 151 31 162
3 172 170 151
3 152 175 172
3 155 154 152
3 189 188 155
3 36 189 155
3 155 152 172
3 172 151 162
3 162 194 198
3 198 53 57
3 198 57 60
3 172 162 198
3 36 155 172
3 12 36 172
3 172 198 60
3 61 63 62
3 172 60 61
3 165 12 172
3 166 165 172
3 172 61 62
3 62 59 58
3 58 56 181
3 181 180 186
3 186 185 184
3 184 183 182
3 182 199 200
3 200 201 202
3 202 203 204
3 204 161 160
3 159 158 157
3 204 160 159
3 182 200 202
3 202 204 159
3 159 157 205
3 205 65 24
3 24 27 23
3 23 21 19
3 19 18 206
3 206 207 191
3 191 190 192
3 192 208 209
3 209 163 164
3 164 176 177
3 177 210 211
3 211 212 213
3 211 213 214
3 164 177 211
3 192 209 164
3 206 191 192
3 23 19 206
3 205 24 23
3 202 159 205
3 184 182 202
3 181 186 184
3 62 58 181
3 166 172 62
3 168 166 62
3 62 181 184
3 184 202 205
3 205 23 206
3 206 192 164
3 164 211 214
3 164 214 215
3 205 206 164
3 62 184 205
3 167 168 62
3 216 167 62
3 62 205 164
3 164 215 217
3 217 218 219
3 219 220 221
3 219 221 222
3 164 217 219
3 223 216 62
3 224 223 62
3 62 164 219
3 219 222 225
3 62 219 225
3 226 224 62
3 227 228 229
3 229 226 62
3 62 225 230
3 62 230 231
3 227 229 62
3 232 227 62
3 62 231 233
3 62 233 232
3 224 143 144
3 224 144 223
3 205 84 64
3 205 64 65
3 157 81 84
3 157 84 205
3 187 132 131
3 187 131 155
3 109 47 46
3 109 46 198
3 196 111 110
3 110 109 198
3 197 196 110
3 198 197 110
3 216 145 147
3 216 147 167
3 67 66 78
3 77 80 161
3 78 77 161
3 78 161 204
3 67 78 204
3 67 204 203
3 199 69 68
3 68 67 203
3 68 203 202
3 200 199 68
3 68 202 201
3 201 200 68
3 140 139 227
3 140 227 232
3 182 70 69
3 182 69 199
3 227 139 138
3 227 138 228
3 87 86 191
3 87 191 207
3 18 17 85
3 85 87 207
3 206 18 85
3 85 207 206
3 208 91 90
3 208 90 209
3 55 76 181
3 55 181 56
3 2 1 32
3 2 32 38
3 192 88 91
3 192 91 208
3 209 90 93
3 209 93 163
3 229 141 142
3 229 142 226
3 99 98 100
3 96 99 100
3 210 177 94
3 211 210 94
3 94 96 100
3 94 100 101
3 212 211 94
3 213 212 94
3 213 94 101
3 214 213 101
3 214 101 104
3 215 214 104
3 104 102 106
3 106 105 107
3 104 106 107
3 217 215 104
3 218 217 104
3 104 107 108
3 104 108 135
3 219 218 104
3 220 219 104
3 220 104 135
3 221 220 135
3 221 135 136
3 222 221 136
3 137 140 232
3 222 136 137
3 225 222 137
3 137 232 233
3 137 233 231
3 230 225 137
3 137 231 230
3 169 120 119
3 169 119 151
3 223 144 145
3 223 145 216
3 112 111 196
3 112 196 195
3 113 112 195
3 113 195 194
3 179 115 114
3 114 113 194
3 193 179 114
3 114 194 193
3 138 141 229
3 138 229 228
3 226 142 143
3 226 143 224
3 164 92 95
3 164 95 176
