ply
format ascii 1.0
comment Created by Blender 3.6.8 - www.blender.org
element vertex 180
property float x
property float y
property float z
element face 349
property list uchar uint vertex_indices
end_header
0.011690 0.000458 0.150000
0.011690 0.000458 0.000000
0.011749 0.000550 0.000000
0.011749 0.000550 0.150000
0.009883 0.005134 0.150000
0.009883 0.005134 0.000000
0.009553 0.005341 0.000000
0.009553 0.005341 0.150000
0.000020 0.003271 0.150000
0.000020 0.003271 0.000000
0.000001 0.003026 0.000000
0.000001 0.003026 0.150000
0.010844 0.000014 0.150000
0.010844 0.000014 0.000000
0.010967 0.000035 0.000000
0.010967 0.000035 0.150000
0.000855 0.006088 0.000000
0.006039 0.006117 0.000000
0.006273 0.006093 0.000000
0.006496 0.006066 0.000000
0.006712 0.006037 0.000000
0.006924 0.006005 0.000000
0.007829 0.005855 0.000000
0.008091 0.005815 0.000000
0.008352 0.005770 0.000000
0.008811 0.005658 0.000000
0.009204 0.005516 0.000000
0.010555 0.004620 0.000000
0.010701 0.004477 0.000000
0.010940 0.004182 0.000000
0.011126 0.003867 0.000000
0.011205 0.003701 0.000000
0.011279 0.003528 0.000000
0.011642 0.002555 0.000000
0.011699 0.002380 0.000000
0.011743 0.002226 0.000000
0.011798 0.001962 0.000000
0.011813 0.001844 0.000000
0.011823 0.001730 0.000000
0.011838 0.001229 0.000000
0.011846 0.001072 0.000000
0.011847 0.000916 0.000000
0.011829 0.000777 0.000000
0.011796 0.000656 0.000000
0.011619 0.000378 0.000000
0.011540 0.000309 0.000000
0.011454 0.000249 0.000000
0.011362 0.000196 0.000000
0.011072 0.000067 0.000000
0.010554 0.000000 0.000000
0.010390 0.000004 0.000000
0.010215 0.000014 0.000000
0.010031 0.000028 0.000000
0.009444 0.000079 0.000000
0.000675 0.005594 0.000000
0.000769 0.005853 0.000000
0.000475 0.005024 0.000000
0.000576 0.005316 0.000000
0.000281 0.004420 0.000000
0.000376 0.004724 0.000000
0.000121 0.003822 0.000000
0.000195 0.004118 0.000000
0.000180 0.001656 0.000000
0.000096 0.002015 0.000000
0.000315 0.001343 0.000000
0.000240 0.001493 0.000000
0.000522 0.001089 0.000000
0.000408 0.001208 0.000000
0.000820 0.000911 0.000000
0.000658 0.000990 0.000000
0.001261 0.000783 0.000000
0.001019 0.000845 0.000000
0.001838 0.000671 0.000000
0.001537 0.000725 0.000000
0.002480 0.000577 0.000000
0.002155 0.000622 0.000000
0.003120 0.000502 0.000000
0.002805 0.000537 0.000000
0.003686 0.000449 0.000000
0.003416 0.000473 0.000000
0.004110 0.000418 0.000000
0.003920 0.000430 0.000000
0.005342 0.000355 0.000000
0.004283 0.000408 0.000000
0.009241 0.000094 0.000000
0.005803 0.000329 0.000000
0.009037 0.000106 0.000000
0.008435 0.000136 0.000000
0.008039 0.000157 0.000000
0.007842 0.000169 0.000000
0.007646 0.000182 0.000000
0.007451 0.000195 0.000000
0.007256 0.000210 0.000000
0.007060 0.000226 0.000000
0.006865 0.000243 0.000000
0.006466 0.000281 0.000000
0.006030 0.000314 0.000000
0.006252 0.000298 0.000000
0.011796 0.000656 0.150000
0.011454 0.000249 0.150000
0.011540 0.000309 0.150000
0.000522 0.001089 0.150000
0.000658 0.000990 0.150000
0.000820 0.000911 0.150000
0.001019 0.000845 0.150000
0.006273 0.006093 0.150000
0.006039 0.006117 0.150000
0.000855 0.006088 0.150000
0.000769 0.005853 0.150000
0.000675 0.005594 0.150000
0.000576 0.005316 0.150000
0.000475 0.005024 0.150000
0.000376 0.004724 0.150000
0.000281 0.004420 0.150000
0.000195 0.004118 0.150000
0.000121 0.003822 0.150000
0.000096 0.002015 0.150000
0.000180 0.001656 0.150000
0.000240 0.001493 0.150000
0.000315 0.001343 0.150000
0.000408 0.001208 0.150000
0.001261 0.000783 0.150000
0.001537 0.000725 0.150000
0.001838 0.000671 0.150000
0.002155 0.000622 0.150000
0.002480 0.000577 0.150000
0.002805 0.000537 0.150000
0.003120 0.000502 0.150000
0.003416 0.000473 0.150000
0.003686 0.000449 0.150000
0.003920 0.000430 0.150000
0.004110 0.000418 0.150000
0.004283 0.000408 0.150000
0.005342 0.000355 0.150000
0.006496 0.006066 0.150000
0.006924 0.006005 0.150000
0.006712 0.006037 0.150000
0.008352 0.005770 0.150000
0.008091 0.005815 0.150000
0.007829 0.005855 0.150000
0.005803 0.000329 0.150000
0.008811 0.005658 0.150000
0.009204 0.005516 0.150000
0.010555 0.004620 0.150000
0.010940 0.004182 0.150000
0.010701 0.004477 0.150000
0.011205 0.003701 0.150000
0.011126 0.003867 0.150000
0.011642 0.002555 0.150000
0.011279 0.003528 0.150000
0.011743 0.002226 0.150000
0.011699 0.002380 0.150000
0.011813 0.001844 0.150000
0.011798 0.001962 0.150000
0.011838 0.001229 0.150000
0.011823 0.001730 0.150000
0.011847 0.000916 0.150000
0.011846 0.001072 0.150000
0.011829 0.000777 0.150000
0.011619 0.000378 0.150000
0.011362 0.000196 0.150000
0.011072 0.000067 0.150000
0.010554 0.000000 0.150000
0.010215 0.000014 0.150000
0.010390 0.000004 0.150000
0.009444 0.000079 0.150000
0.010031 0.000028 0.150000
0.006030 0.000314 0.150000
0.006252 0.000298 0.150000
0.009241 0.000094 0.150000
0.006466 0.000281 0.150000
0.006865 0.000243 0.150000
0.007060 0.000226 0.150000
0.007256 0.000210 0.150000
0.007451 0.000195 0.150000
0.007646 0.000182 0.150000
0.007842 0.000169 0.150000
0.008039 0.000157 0.150000
0.008435 0.000136 0.150000
0.009037 0.000106 0.150000
3 0 1 2
3 0 2 3
3 4 5 6
3 4 6 7
3 8 9 10
3 8 10 11
3 12 13 14
3 12 14 15
3 16 17 18
3 18 19 20
3 20 21 22
3 22 23 24
3 24 25 26
3 26 6 5
3 5 27 28
3 28 29 30
3 30 31 32
3 32 33 34
3 34 35 36
3 36 37 38
3 39 40 41
3 36 38 39
3 32 34 36
3 28 30 32
3 26 5 28
3 22 24 26
3 18 20 22
3 16 18 22
3 22 26 28
3 28 32 36
3 36 39 41
3 41 42 43
3 43 2 1
3 1 44 45
3 45 46 47
3 47 48 14
3 14 13 49
3 49 50 51
3 51 52 53
3 49 51 53
3 47 14 49
3 1 45 47
3 41 43 1
3 28 36 41
3 16 22 28
3 54 55 16
3 56 57 54
3 58 59 56
3 60 61 58
3 10 9 60
3 62 63 10
3 64 65 62
3 66 67 64
3 68 69 66
3 70 71 68
3 72 73 70
3 74 75 72
3 76 77 74
3 78 79 76
3 80 81 78
3 82 83 80
3 82 80 78
3 78 76 74
3 74 72 70
3 70 68 66
3 66 64 62
3 62 10 60
3 60 58 56
3 56 54 16
3 16 28 41
3 41 1 47
3 47 49 53
3 47 53 84
3 16 41 47
3 60 56 16
3 66 62 60
3 74 70 66
3 82 78 74
3 85 82 74
3 74 66 60
3 60 16 47
3 47 84 86
3 86 87 88
3 88 89 90
3 90 91 92
3 92 93 94
3 92 94 95
3 88 90 92
3 47 86 88
3 74 60 47
3 96 85 74
3 97 96 74
3 47 88 92
3 47 92 95
3 97 74 47
3 47 95 97
3 3 2 43
3 3 43 98
3 99 46 45
3 99 45 100
3 101 66 69
3 101 69 102
3 103 68 71
3 103 71 104
3 105 106 107
3 107 108 109
3 109 110 111
3 111 112 113
3 113 114 115
3 115 8 11
3 11 116 117
3 117 118 119
3 119 120 101
3 101 102 103
3 103 104 121
3 121 122 123
3 123 124 125
3 125 126 127
3 127 128 129
3 129 130 131
3 131 132 133
3 129 131 133
3 125 127 129
3 121 123 125
3 101 103 121
3 117 119 101
3 115 11 117
3 111 113 115
3 107 109 111
3 134 105 107
3 135 136 134
3 137 138 139
3 139 135 134
3 134 107 111
3 111 115 117
3 117 101 121
3 121 125 129
3 129 133 140
3 121 129 140
3 111 117 121
3 139 134 111
3 141 137 139
3 7 142 141
3 143 4 7
3 144 145 143
3 146 147 144
3 148 149 146
3 150 151 148
3 152 153 150
3 154 155 152
3 156 157 154
3 98 158 156
3 0 3 98
3 100 159 0
3 160 99 100
3 15 161 160
3 162 12 15
3 163 164 162
3 165 166 163
3 165 163 162
3 162 15 160
3 160 100 0
3 0 98 156
3 156 154 152
3 152 150 148
3 148 146 144
3 144 143 7
3 7 141 139
3 139 111 121
3 121 140 167
3 121 167 168
3 7 139 121
3 148 144 7
3 156 152 148
3 160 0 156
3 165 162 160
3 169 165 160
3 160 156 148
3 148 7 121
3 121 168 170
3 170 171 172
3 172 173 174
3 174 175 176
3 176 177 178
3 179 169 160
3 176 178 179
3 172 174 176
3 121 170 172
3 160 148 121
3 176 179 160
3 121 172 176
3 121 176 160
3 24 137 141
3 24 141 25
3 10 63 116
3 10 116 11
3 29 144 147
3 29 147 30
3 161 48 47
3 161 47 160
3 116 63 62
3 116 62 117
3 142 26 25
3 142 25 141
3 29 28 145
3 29 145 144
3 153 36 35
3 153 35 150
3 7 6 26
3 7 26 142
3 117 62 65
3 117 65 118
3 159 44 1
3 159 1 0
3 73 72 123
3 73 123 122
3 104 71 70
3 70 73 122
3 121 104 70
3 122 121 70
3 60 9 8
3 60 8 115
3 145 28 27
3 145 27 143
3 100 45 44
3 100 44 159
3 37 36 153
3 37 153 152
3 38 37 152
3 38 152 155
3 39 38 155
3 39 155 154
3 156 41 40
3 40 39 154
3 157 156 40
3 154 157 40
3 151 150 35
3 35 34 33
3 33 32 31
3 31 30 147
3 31 147 146
3 35 33 31
3 148 151 35
3 31 146 149
3 149 148 35
3 35 31 149
3 98 43 42
3 98 42 158
3 118 65 64
3 118 64 119
3 120 67 66
3 120 66 101
3 17 16 107
3 17 107 106
3 160 47 46
3 160 46 99
3 82 85 96
3 96 97 95
3 96 95 94
3 83 82 96
3 83 96 94
3 83 94 93
3 80 83 93
3 80 93 92
3 80 92 91
3 80 91 90
3 81 80 90
3 123 72 75
3 124 123 75
3 124 75 74
3 125 124 74
3 125 74 77
3 126 125 77
3 126 77 76
3 127 126 76
3 127 76 79
3 128 127 79
3 128 79 78
3 129 128 78
3 129 78 81
3 130 129 81
3 130 81 90
3 131 130 90
3 131 90 89
3 132 131 89
3 132 89 88
3 133 132 88
3 87 86 84
3 133 88 87
3 140 133 87
3 87 84 53
3 87 53 52
3 167 140 87
3 168 167 87
3 87 52 51
3 50 49 162
3 168 87 51
3 51 50 162
3 51 162 164
3 170 168 51
3 171 170 51
3 51 164 163
3 51 163 166
3 172 171 51
3 173 172 51
3 51 166 165
3 51 165 169
3 174 173 51
3 175 174 51
3 51 169 179
3 51 179 178
3 176 175 51
3 51 178 177
3 51 177 176
3 49 13 12
3 49 12 162
3 158 42 41
3 158 41 156
3 21 20 19
3 19 18 17
3 17 106 105
3 17 105 134
3 21 19 17
3 22 21 17
3 17 134 136
3 17 136 135
3 24 22 17
3 138 137 24
3 17 135 139
3 139 138 24
3 17 139 24
3 102 69 68
3 102 68 103
3 27 5 4
3 27 4 143
3 15 14 48
3 15 48 161
3 60 115 114
3 60 114 113
3 108 107 16
3 109 108 16
3 56 60 113
3 56 113 112
3 109 16 56
3 110 109 56
3 56 112 111
3 111 110 56
3 119 64 67
3 119 67 120
