ply
format ascii 1.0
comment Created by Blender 3.6.8 - www.blender.org
element vertex 166
property float x
property float y
property float z
element face 325
property list uchar uint vertex_indices
end_header
0.003490 0.002663 0.150000
0.003490 0.002663 0.000000
0.003474 0.002730 0.000000
0.003474 0.002730 0.150000
0.000272 0.002565 0.000000
0.000277 0.002525 0.000000
0.000277 0.002525 0.150000
0.000272 0.002565 0.150000
0.000265 0.002616 0.000000
0.000265 0.002616 0.150000
0.000234 0.002808 0.000000
0.000234 0.002808 0.150000
0.000187 0.003070 0.000000
0.000187 0.003070 0.150000
0.000163 0.003198 0.150000
0.000163 0.003198 0.000000
0.000169 0.003160 0.000000
0.000169 0.003160 0.150000
0.003281 0.001121 0.000000
0.003434 0.001411 0.000000
0.003434 0.001411 0.150000
0.003281 0.001121 0.150000
0.002179 0.000235 0.150000
0.002179 0.000235 0.000000
0.002328 0.000319 0.000000
0.002328 0.000319 0.150000
0.003502 0.002591 0.000000
0.003502 0.002591 0.150000
0.003510 0.002514 0.000000
0.003510 0.002514 0.150000
0.003517 0.002431 0.000000
0.003517 0.002431 0.150000
0.003530 0.002144 0.000000
0.003525 0.002246 0.000000
0.003521 0.002342 0.000000
0.003521 0.002342 0.150000
0.003536 0.002034 0.000000
0.003541 0.001926 0.150000
0.003541 0.001926 0.000000
0.003536 0.002034 0.150000
0.003525 0.002246 0.150000
0.003530 0.002144 0.150000
0.003520 0.001665 0.000000
0.003520 0.001665 0.150000
0.003483 0.001529 0.150000
0.003483 0.001529 0.000000
0.001024 0.004961 0.000000
0.000983 0.004970 0.000000
0.000983 0.004970 0.150000
0.001024 0.004961 0.150000
0.001100 0.004940 0.150000
0.001100 0.004940 0.000000
0.001063 0.004951 0.000000
0.001063 0.004951 0.150000
0.000223 0.000191 0.150000
0.000223 0.000191 0.000000
0.000255 0.000144 0.000000
0.000255 0.000144 0.150000
0.000279 0.002498 0.000000
0.000266 0.002036 0.000000
0.000266 0.002036 0.150000
0.000279 0.002498 0.150000
0.000156 0.003997 0.150000
0.000156 0.003997 0.000000
0.000144 0.003922 0.000000
0.000144 0.003922 0.150000
0.002108 0.000205 0.150000
0.002108 0.000205 0.000000
0.000694 0.005019 0.000000
0.000457 0.004755 0.000000
0.000457 0.004755 0.150000
0.000694 0.005019 0.150000
0.000333 0.000075 0.150000
0.000333 0.000075 0.000000
0.000382 0.000052 0.000000
0.000382 0.000052 0.150000
0.000236 0.004258 0.000000
0.000236 0.004258 0.150000
0.003532 0.001743 0.000000
0.003532 0.001743 0.150000
0.000169 0.000305 0.150000
0.000169 0.000305 0.000000
0.001060 0.000007 0.150000
0.001060 0.000007 0.000000
0.001966 0.000163 0.000000
0.001966 0.000163 0.150000
0.003452 0.002793 0.000000
0.003452 0.002793 0.150000
0.003197 0.003107 0.000000
0.002298 0.003882 0.000000
0.001622 0.004576 0.000000
0.001420 0.004748 0.000000
0.001332 0.004815 0.000000
0.001332 0.004815 0.150000
0.001420 0.004748 0.150000
0.003346 0.002961 0.150000
0.003346 0.002961 0.000000
0.001622 0.004576 0.150000
0.003197 0.003107 0.150000
0.002298 0.003882 0.150000
0.003078 0.000897 0.000000
0.003138 0.000952 0.000000
0.003138 0.000952 0.150000
0.003078 0.000897 0.150000
0.003011 0.000841 0.000000
0.003011 0.000841 0.150000
0.002940 0.000784 0.000000
0.002940 0.000784 0.150000
0.002412 0.000377 0.000000
0.002412 0.000377 0.150000
0.000148 0.003670 0.000000
0.000150 0.003472 0.000000
0.000151 0.003409 0.000000
0.000153 0.003349 0.000000
0.000155 0.003293 0.000000
0.000159 0.003242 0.000000
0.000159 0.003242 0.150000
0.000155 0.003293 0.150000
0.000153 0.003349 0.150000
0.000151 0.003409 0.150000
0.000147 0.003735 0.000000
0.000142 0.003858 0.000000
0.000145 0.003798 0.000000
0.000142 0.003858 0.150000
0.000145 0.003798 0.150000
0.000150 0.003472 0.150000
0.000147 0.003735 0.150000
0.000148 0.003670 0.150000
0.000017 0.001074 0.000000
0.000017 0.001074 0.150000
0.000167 0.001457 0.150000
0.000167 0.001457 0.000000
0.003424 0.002852 0.150000
0.003424 0.002852 0.000000
0.003389 0.002908 0.000000
0.003389 0.002908 0.150000
0.001175 0.004909 0.000000
0.000822 0.005001 0.000000
0.000900 0.004987 0.000000
0.003240 0.001064 0.000000
0.000714 0.000005 0.000000
0.000640 0.000011 0.000000
0.000570 0.000018 0.000000
0.000503 0.000027 0.000000
0.000440 0.000037 0.000000
0.000291 0.000105 0.000000
0.000017 0.000799 0.000000
0.000004 0.000879 0.000000
0.000000 0.000950 0.000000
0.000005 0.001014 0.000000
0.000215 0.001639 0.000000
0.001175 0.004909 0.150000
0.000900 0.004987 0.150000
0.000822 0.005001 0.150000
0.003240 0.001064 0.150000
0.000640 0.000011 0.150000
0.000714 0.000005 0.150000
0.000503 0.000027 0.150000
0.000570 0.000018 0.150000
0.000440 0.000037 0.150000
0.000291 0.000105 0.150000
0.000017 0.000799 0.150000
0.000000 0.000950 0.150000
0.000004 0.000879 0.150000
0.000005 0.001014 0.150000
0.000215 0.001639 0.150000
3 0 1 2
3 0 2 3
3 4 5 6
3 4 6 7
3 8 4 7
3 8 7 9
3 10 8 9
3 10 9 11
3 12 10 11
3 12 11 13
3 14 15 16
3 16 12 13
3 17 14 16
3 13 17 16
3 18 19 20
3 18 20 21
3 22 23 24
3 22 24 25
3 26 1 0
3 26 0 27
3 28 26 27
3 28 27 29
3 30 28 29
3 30 29 31
3 32 33 34
3 34 30 31
3 34 31 35
3 36 32 34
3 37 38 36
3 39 37 36
3 36 34 35
3 36 35 40
3 41 39 36
3 40 41 36
3 42 43 44
3 42 44 45
3 46 47 48
3 46 48 49
3 50 51 52
3 52 46 49
3 53 50 52
3 49 53 52
3 54 55 56
3 54 56 57
3 58 59 60
3 58 60 61
3 20 19 45
3 20 45 44
3 62 63 64
3 62 64 65
3 66 67 23
3 66 23 22
3 68 69 70
3 68 70 71
3 72 73 74
3 72 74 75
3 69 76 77
3 69 77 70
3 43 42 78
3 43 78 79
3 80 81 55
3 80 55 54
3 82 83 84
3 82 84 85
3 3 2 86
3 3 86 87
3 88 89 90
3 91 92 93
3 90 91 93
3 90 93 94
3 95 96 88
3 88 90 94
3 88 94 97
3 98 95 88
3 88 97 99
3 88 99 98
3 100 101 102
3 100 102 103
3 104 100 103
3 104 103 105
3 106 104 105
3 106 105 107
3 25 24 108
3 108 106 107
3 109 25 108
3 107 109 108
3 110 111 112
3 112 113 114
3 114 115 15
3 15 14 116
3 15 116 117
3 112 114 15
3 110 112 15
3 15 117 118
3 15 118 119
3 120 110 15
3 64 121 122
3 120 15 119
3 64 122 120
3 123 65 64
3 124 123 64
3 64 120 119
3 64 119 125
3 126 124 64
3 64 125 127
3 127 126 64
3 128 129 130
3 128 130 131
3 132 133 134
3 132 134 135
3 30 34 33
3 32 36 38
3 30 33 32
3 26 28 30
3 2 1 26
3 133 86 2
3 96 134 133
3 89 88 96
3 91 90 89
3 136 92 91
3 52 51 136
3 47 46 52
3 137 138 47
3 69 68 137
3 63 76 69
3 121 64 63
3 122 121 63
3 63 69 137
3 137 47 52
3 52 136 91
3 89 96 133
3 52 91 89
3 63 137 52
3 120 122 63
3 110 120 63
3 63 52 89
3 89 133 2
3 2 26 30
3 32 38 78
3 2 30 32
3 63 89 2
3 112 110 63
3 12 16 15
3 12 15 114
3 114 112 63
3 63 2 32
3 32 78 42
3 42 45 19
3 19 18 139
3 139 101 100
3 100 104 106
3 106 108 24
3 24 23 67
3 67 84 83
3 83 140 141
3 141 142 143
3 143 144 74
3 74 73 145
3 145 56 55
3 55 81 146
3 146 147 148
3 148 149 128
3 148 128 131
3 55 146 148
3 74 145 55
3 141 143 74
3 67 83 141
3 106 24 67
3 139 100 106
3 42 19 139
3 63 32 42
3 12 114 63
3 10 12 63
3 63 42 139
3 139 106 67
3 67 141 74
3 74 55 148
3 74 148 131
3 139 67 74
3 10 63 139
3 8 10 139
3 139 74 131
3 139 131 150
3 4 8 139
3 5 4 139
3 139 150 59
3 58 5 139
3 139 59 58
3 99 97 94
3 94 93 151
3 151 50 53
3 53 49 48
3 48 152 153
3 153 71 70
3 70 77 62
3 62 65 123
3 62 123 124
3 153 70 62
3 53 48 153
3 94 151 53
3 95 98 99
3 99 94 53
3 53 153 62
3 62 124 126
3 127 125 119
3 62 126 127
3 99 53 62
3 135 95 99
3 87 132 135
3 0 3 87
3 29 27 0
3 35 31 29
3 40 35 29
3 29 0 87
3 87 135 99
3 99 62 127
3 127 119 118
3 118 117 116
3 116 14 17
3 116 17 13
3 127 118 116
3 87 99 127
3 40 29 87
3 37 39 41
3 41 40 87
3 87 127 116
3 116 13 11
3 87 116 11
3 37 41 87
3 43 79 37
3 20 44 43
3 154 21 20
3 103 102 154
3 107 105 103
3 25 109 107
3 66 22 25
3 82 85 66
3 155 156 82
3 157 158 155
3 75 159 157
3 160 72 75
3 54 57 160
3 161 80 54
3 162 163 161
3 129 164 162
3 130 129 162
3 162 161 54
3 54 160 75
3 75 157 155
3 155 82 66
3 66 25 107
3 107 103 154
3 154 20 43
3 43 37 87
3 87 11 9
3 87 9 7
3 154 43 87
3 66 107 154
3 75 155 66
3 162 54 75
3 130 162 75
3 75 66 154
3 154 87 7
3 154 7 6
3 130 75 154
3 165 130 154
3 154 6 61
3 60 165 154
3 61 60 154
3 146 81 80
3 146 80 161
3 154 139 18
3 154 18 21
3 151 136 51
3 151 51 50
3 152 48 47
3 152 47 138
3 68 71 153
3 153 152 138
3 137 68 153
3 138 137 153
3 87 86 133
3 87 133 132
3 141 140 156
3 141 156 155
3 142 141 155
3 142 155 158
3 159 144 143
3 143 142 158
3 157 159 143
3 158 157 143
3 135 134 96
3 135 96 95
3 140 83 82
3 140 82 156
3 129 128 149
3 129 149 164
3 6 5 58
3 6 58 61
3 164 149 148
3 164 148 162
3 102 101 139
3 102 139 154
3 38 37 79
3 38 79 78
3 162 148 147
3 162 147 163
3 163 147 146
3 163 146 161
3 59 150 165
3 59 165 60
3 92 136 151
3 92 151 93
3 160 145 73
3 160 73 72
3 75 74 144
3 75 144 159
3 131 130 165
3 131 165 150
3 84 67 66
3 84 66 85
3 77 76 63
3 77 63 62
3 57 56 145
3 57 145 160
