<?xml version="1.0" encoding="UTF-8" standalone="no"?>
<!-- Created with Inkscape (http://www.inkscape.org/) -->

<svg
   version="1.1"
   id="svg1"
   width="53.358097"
   height="50.893192"
   viewBox="0 0 53.358097 50.893192"
   sodipodi:docname="cells_crop.svg"
   inkscape:version="1.3.2 (091e20ef0f, 2023-11-25)"
   xmlns:inkscape="http://www.inkscape.org/namespaces/inkscape"
   xmlns:sodipodi="http://sodipodi.sourceforge.net/DTD/sodipodi-0.dtd"
   xmlns="http://www.w3.org/2000/svg"
   xmlns:svg="http://www.w3.org/2000/svg">
  <defs
     id="defs1" />
  <sodipodi:namedview
     id="namedview1"
     pagecolor="#ffffff"
     bordercolor="#000000"
     borderopacity="0.25"
     inkscape:showpageshadow="2"
     inkscape:pageopacity="0.0"
     inkscape:pagecheckerboard="0"
     inkscape:deskcolor="#d1d1d1"
     showguides="true"
     inkscape:zoom="1"
     inkscape:cx="246"
     inkscape:cy="97"
     inkscape:window-width="1920"
     inkscape:window-height="1016"
     inkscape:window-x="0"
     inkscape:window-y="27"
     inkscape:window-maximized="1"
     inkscape:current-layer="g1">
    <sodipodi:guide
       position="-398.75684,629.27961"
       orientation="1,0"
       id="guide1"
       inkscape:locked="false" />
    <sodipodi:guide
       position="137.28018,746.97047"
       orientation="0,-1"
       id="guide2"
       inkscape:locked="false" />
    <sodipodi:guide
       position="25.156723,400.56581"
       orientation="0,-1"
       id="guide3"
       inkscape:locked="false" />
    <sodipodi:guide
       position="159.15672,825.56581"
       orientation="1,0"
       id="guide4"
       inkscape:locked="false" />
  </sodipodi:namedview>
  <g
     inkscape:groupmode="layer"
     inkscape:label="Image"
     id="g1"
     transform="translate(-726.84328,-400.56581)">
    <path
       style="fill:#008000;stroke-width:3.09;stroke-linejoin:round"
       d="m 726.84328,412.90582 c 0,0.42088 15.05709,12.20899 16.24861,13.40085 1.19151,1.19186 4.96252,6.96369 9.87187,10.93667 4.90935,3.97299 7.67321,5.81292 11.60477,8.8271 3.93155,3.01418 3.31111,5.78219 8.51601,5.34232 5.2049,-0.43987 7.26407,1.65313 7.1087,-5.56847 -0.15537,-7.2216 -0.26378,-9.74343 -3.76893,-14.00576 -3.50516,-4.26232 -4.07588,-5.25772 -9.37504,-9.50243 -5.29916,-4.24472 -8.32508,-6.31528 -10.91044,-10.2679 -2.58535,-3.95261 -3.37774,-5.36752 -5.29536,-7.09662 -1.91761,-1.72909 -3.91014,-3.82486 -6.61082,-4.27785 -2.70068,-0.45299 -7.74503,0.32248 -9.25903,1.92417 -1.51399,1.60169 -3.56971,3.89461 -4.63072,5.39721 -1.061,1.5026 -3.49962,4.89071 -3.49962,4.89071 z"
       id="path113" />
  </g>
</svg>
