<?xml version="1.0" encoding="UTF-8" standalone="no"?>
<!-- Created with Inkscape (http://www.inkscape.org/) -->

<svg
   version="1.1"
   id="svg1"
   width="38.175728"
   height="40.430927"
   viewBox="0 0 38.175728 40.430927"
   sodipodi:docname="cells_crop.svg"
   inkscape:version="1.3.2 (091e20ef0f, 2023-11-25)"
   xmlns:inkscape="http://www.inkscape.org/namespaces/inkscape"
   xmlns:sodipodi="http://sodipodi.sourceforge.net/DTD/sodipodi-0.dtd"
   xmlns="http://www.w3.org/2000/svg"
   xmlns:svg="http://www.w3.org/2000/svg">
  <defs
     id="defs1" />
  <sodipodi:namedview
     id="namedview1"
     pagecolor="#ffffff"
     bordercolor="#000000"
     borderopacity="0.25"
     inkscape:showpageshadow="2"
     inkscape:pageopacity="0.0"
     inkscape:pagecheckerboard="0"
     inkscape:deskcolor="#d1d1d1"
     showguides="true"
     inkscape:zoom="1"
     inkscape:cx="246"
     inkscape:cy="97"
     inkscape:window-width="1920"
     inkscape:window-height="1016"
     inkscape:window-x="0"
     inkscape:window-y="27"
     inkscape:window-maximized="1"
     inkscape:current-layer="g1">
    <sodipodi:guide
       position="-488.91061,571.35485"
       orientation="1,0"
       id="guide1"
       inkscape:locked="false" />
    <sodipodi:guide
       position="47.126416,689.04571"
       orientation="0,-1"
       id="guide2"
       inkscape:locked="false" />
    <sodipodi:guide
       position="-64.997044,342.64105"
       orientation="0,-1"
       id="guide3"
       inkscape:locked="false" />
    <sodipodi:guide
       position="69.002956,767.64105"
       orientation="1,0"
       id="guide4"
       inkscape:locked="false" />
  </sodipodi:namedview>
  <g
     inkscape:groupmode="layer"
     inkscape:label="Image"
     id="g1"
     transform="translate(-816.99705,-342.64105)">
    <path
       style="fill:#008000;stroke-width:3.09;stroke-linejoin:round"
       d="m 817.10055,357.30851 c 0.2921,1.64002 2.83741,11.76567 4.38282,14.57718 1.54542,2.8115 4.13181,6.07186 6.0874,7.31379 1.9556,1.24192 2.29154,2.39235 6.71994,3.2241 4.42839,0.83175 9.2383,1.2181 12.23177,-1.08138 2.99346,-2.29948 6.08257,-3.76444 7.09109,-7.25993 1.00853,-3.49548 2.50491,-5.23873 0.74854,-9.68059 -1.75637,-4.44186 -2.73348,-7.28099 -5.18177,-9.63986 -2.44828,-2.35886 -3.36221,-2.68755 -5.34231,-4.12594 -1.98011,-1.43838 -1.9259,-1.52539 -4.7129,-3.34667 -2.78699,-1.82128 -4.64418,-2.38545 -6.32356,-2.91578 -1.67938,-0.53033 -2.77664,-0.97918 -4.63279,-1.15595 -1.85616,-0.17678 -2.47488,-1.14905 -3.44715,-0.0884 -0.97227,1.06066 -1.06066,1.06066 -1.67938,2.47487 -0.61872,1.41422 -0.79549,1.94455 -1.41421,3.18198 -0.61872,1.23744 -0.44194,1.32583 -1.85616,2.2981 -1.41421,0.97227 -2.38648,1.23951 -2.65165,2.12132 -0.26516,0.88181 -0.0197,4.10315 -0.0197,4.10315 z"
       id="path134" />
  </g>
</svg>
