<?xml version="1.0" encoding="UTF-8" standalone="no"?>
<!-- Created with Inkscape (http://www.inkscape.org/) -->

<svg
   version="1.1"
   id="svg1"
   width="14.87353"
   height="47.310917"
   viewBox="0 0 14.87353 47.310916"
   sodipodi:docname="cells_crop.svg"
   inkscape:version="1.3.2 (091e20ef0f, 2023-11-25)"
   xmlns:inkscape="http://www.inkscape.org/namespaces/inkscape"
   xmlns:sodipodi="http://sodipodi.sourceforge.net/DTD/sodipodi-0.dtd"
   xmlns="http://www.w3.org/2000/svg"
   xmlns:svg="http://www.w3.org/2000/svg">
  <defs
     id="defs1" />
  <sodipodi:namedview
     id="namedview1"
     pagecolor="#ffffff"
     bordercolor="#000000"
     borderopacity="0.25"
     inkscape:showpageshadow="2"
     inkscape:pageopacity="0.0"
     inkscape:pagecheckerboard="0"
     inkscape:deskcolor="#d1d1d1"
     showguides="true"
     inkscape:zoom="1"
     inkscape:cx="246"
     inkscape:cy="97"
     inkscape:window-width="1920"
     inkscape:window-height="1016"
     inkscape:window-x="0"
     inkscape:window-y="27"
     inkscape:window-maximized="1"
     inkscape:current-layer="g1">
    <sodipodi:guide
       position="-541.90233,637.53021"
       orientation="1,0"
       id="guide1"
       inkscape:locked="false" />
    <sodipodi:guide
       position="-5.8653055,755.22107"
       orientation="0,-1"
       id="guide2"
       inkscape:locked="false" />
    <sodipodi:guide
       position="-117.98877,408.81641"
       orientation="0,-1"
       id="guide3"
       inkscape:locked="false" />
    <sodipodi:guide
       position="16.011234,833.81641"
       orientation="1,0"
       id="guide4"
       inkscape:locked="false" />
  </sodipodi:namedview>
  <g
     inkscape:groupmode="layer"
     inkscape:label="Image"
     id="g1"
     transform="translate(-869.98877,-408.81641)">
    <path
       style="fill:#008000;stroke-width:3.09;stroke-linejoin:round"
       d="m 870.72558,409.54639 -0.73681,6.05664 0.86572,5.66992 c 0,0 0.004,4.31738 -0.24414,5.30957 -0.24854,0.99219 -0.49854,2.72607 -0.24854,3.72119 0.25,0.99512 1.37354,4.86426 2.12354,6.23926 0.75,1.375 2.875,4.87842 3.375,5.875 0.5,0.99658 1.37207,2.61816 1.87207,3.98779 0.5,1.36963 0.87158,2.11572 1.24658,3.23486 0.375,1.11914 0.25342,1.86866 1.125,3.2417 0.87158,1.37305 2.37012,2.74512 2.37012,2.74512 0,0 1.09521,0.93408 1.5498,0.24854 0.45459,-0.68555 0.58155,-1.32813 0.70459,-2.53174 0.12305,-1.20362 0.13379,-37.96533 0.13379,-37.96533 0,0 -0.98926,-1.77491 -2.86426,-3.02491 -1.875,-1.25 -2.63574,-2.13134 -4.88574,-2.75634 -2.25,-0.625 -2.92627,-0.875 -3.74853,-0.75 -0.82227,0.125 -2.63819,0.69873 -2.63819,0.69873 z"
       id="path129" />
  </g>
</svg>
