<?xml version="1.0" encoding="UTF-8" standalone="no"?>
<!-- Created with Inkscape (http://www.inkscape.org/) -->

<svg
   version="1.1"
   id="svg1"
   width="25.90624"
   height="39.124157"
   viewBox="0 0 25.90624 39.124157"
   sodipodi:docname="cells_crop.svg"
   inkscape:version="1.3.2 (091e20ef0f, 2023-11-25)"
   xmlns:inkscape="http://www.inkscape.org/namespaces/inkscape"
   xmlns:sodipodi="http://sodipodi.sourceforge.net/DTD/sodipodi-0.dtd"
   xmlns="http://www.w3.org/2000/svg"
   xmlns:svg="http://www.w3.org/2000/svg">
  <defs
     id="defs1" />
  <sodipodi:namedview
     id="namedview1"
     pagecolor="#ffffff"
     bordercolor="#000000"
     borderopacity="0.25"
     inkscape:showpageshadow="2"
     inkscape:pageopacity="0.0"
     inkscape:pagecheckerboard="0"
     inkscape:deskcolor="#d1d1d1"
     showguides="true"
     inkscape:zoom="1"
     inkscape:cx="246"
     inkscape:cy="97"
     inkscape:window-width="1920"
     inkscape:window-height="1016"
     inkscape:window-x="0"
     inkscape:window-y="27"
     inkscape:window-maximized="1"
     inkscape:current-layer="g1">
    <sodipodi:guide
       position="-12.434784,566.8853"
       orientation="1,0"
       id="guide1"
       inkscape:locked="false" />
    <sodipodi:guide
       position="523.60224,684.57616"
       orientation="0,-1"
       id="guide2"
       inkscape:locked="false" />
    <sodipodi:guide
       position="411.47878,338.1715"
       orientation="0,-1"
       id="guide3"
       inkscape:locked="false" />
    <sodipodi:guide
       position="545.47878,763.1715"
       orientation="1,0"
       id="guide4"
       inkscape:locked="false" />
  </sodipodi:namedview>
  <g
     inkscape:groupmode="layer"
     inkscape:label="Image"
     id="g1"
     transform="translate(-340.52122,-338.1715)">
    <path
       style="fill:#008000;stroke-width:3.09;stroke-linejoin:round"
       d="m 342.70699,357.35723 c -0.76613,1.99455 -2.15952,4.51607 -2.15952,7.25064 0,2.73456 -0.45576,4.55761 2.43072,7.29218 2.88649,2.73457 4.10957,6.20975 8.83572,5.22464 4.72615,-0.98511 6.51181,0.0724 9.90747,-4.8211 3.39566,-4.8935 4.86264,-4.97836 4.69292,-8.8826 -0.16973,-3.90424 0.3252,-6.28808 -2.35536,-11.82606 -2.68057,-5.53797 -3.61761,-7.86603 -5.7445,-10.14484 -2.12688,-2.27881 -3.04137,-4.10601 -4.56058,-2.89064 -1.5192,1.21536 -2.87462,4.8294 -3.63184,6.19135 -0.75723,1.36194 -2.31501,3.52503 -3.22475,4.7392 -0.90975,1.21418 -4.19028,7.86723 -4.19028,7.86723 z"
       id="path5" />
  </g>
</svg>
