<?xml version="1.0" encoding="UTF-8" standalone="no"?>
<!-- Created with Inkscape (http://www.inkscape.org/) -->

<svg
   version="1.1"
   id="svg1"
   width="20.105089"
   height="43.213718"
   viewBox="0 0 20.105089 43.213718"
   sodipodi:docname="cells_crop.svg"
   inkscape:version="1.3.2 (091e20ef0f, 2023-11-25)"
   xmlns:inkscape="http://www.inkscape.org/namespaces/inkscape"
   xmlns:sodipodi="http://sodipodi.sourceforge.net/DTD/sodipodi-0.dtd"
   xmlns="http://www.w3.org/2000/svg"
   xmlns:svg="http://www.w3.org/2000/svg">
  <defs
     id="defs1" />
  <sodipodi:namedview
     id="namedview1"
     pagecolor="#ffffff"
     bordercolor="#000000"
     borderopacity="0.25"
     inkscape:showpageshadow="2"
     inkscape:pageopacity="0.0"
     inkscape:pagecheckerboard="0"
     inkscape:deskcolor="#d1d1d1"
     showguides="true"
     inkscape:zoom="1"
     inkscape:cx="246"
     inkscape:cy="97"
     inkscape:window-width="1920"
     inkscape:window-height="1016"
     inkscape:window-x="0"
     inkscape:window-y="27"
     inkscape:window-maximized="1"
     inkscape:current-layer="g1">
    <sodipodi:guide
       position="-0.94159519,541.02543"
       orientation="1,0"
       id="guide1"
       inkscape:locked="false" />
    <sodipodi:guide
       position="535.09543,658.71629"
       orientation="0,-1"
       id="guide2"
       inkscape:locked="false" />
    <sodipodi:guide
       position="422.97197,312.31163"
       orientation="0,-1"
       id="guide3"
       inkscape:locked="false" />
    <sodipodi:guide
       position="556.97197,737.31163"
       orientation="1,0"
       id="guide4"
       inkscape:locked="false" />
  </sodipodi:namedview>
  <g
     inkscape:groupmode="layer"
     inkscape:label="Image"
     id="g1"
     transform="translate(-329.02803,-312.31163)">
    <path
       style="fill:#008000;stroke-width:3.09;stroke-linejoin:round"
       d="m 329.09765,319.56583 c -0.15014,0.75189 -0.0107,33.58273 -0.0107,33.58273 0,0 6.97766,2.52211 8.18946,2.37019 1.2118,-0.15192 3.35709,-0.31511 4.85789,-1.36728 1.50081,-1.05217 3.69891,-3.25324 4.45851,-5.07628 0.7596,-1.82305 1.84441,-4.46326 2.30017,-6.89398 0.45576,-2.43073 0.29613,-5.26737 -0.76731,-8.15386 -1.06345,-2.88649 -1.33049,-4.01165 -3.03901,-7.74972 -1.70851,-3.73808 -2.37197,-5.83588 -4.04725,-8.42625 -1.67528,-2.59036 -4.45732,-5.53975 -4.45732,-5.53975 l -5.73263,0.16794 -1.10676,2.64081 z"
       id="path3" />
  </g>
</svg>
