<?xml version="1.0" encoding="UTF-8" standalone="no"?>
<!-- Created with Inkscape (http://www.inkscape.org/) -->

<svg
   version="1.1"
   id="svg1"
   width="32.507431"
   height="65.453568"
   viewBox="0 0 32.507431 65.453567"
   sodipodi:docname="cells_crop.svg"
   inkscape:version="1.3.2 (091e20ef0f, 2023-11-25)"
   xmlns:inkscape="http://www.inkscape.org/namespaces/inkscape"
   xmlns:sodipodi="http://sodipodi.sourceforge.net/DTD/sodipodi-0.dtd"
   xmlns="http://www.w3.org/2000/svg"
   xmlns:svg="http://www.w3.org/2000/svg">
  <defs
     id="defs1" />
  <sodipodi:namedview
     id="namedview1"
     pagecolor="#ffffff"
     bordercolor="#000000"
     borderopacity="0.25"
     inkscape:showpageshadow="2"
     inkscape:pageopacity="0.0"
     inkscape:pagecheckerboard="0"
     inkscape:deskcolor="#d1d1d1"
     showguides="true"
     inkscape:zoom="1"
     inkscape:cx="246"
     inkscape:cy="97"
     inkscape:window-width="1920"
     inkscape:window-height="1016"
     inkscape:window-x="0"
     inkscape:window-y="27"
     inkscape:window-maximized="1"
     inkscape:current-layer="g1">
    <sodipodi:guide
       position="-382.9428,554.54799"
       orientation="1,0"
       id="guide1"
       inkscape:locked="false" />
    <sodipodi:guide
       position="153.09422,672.23885"
       orientation="0,-1"
       id="guide2"
       inkscape:locked="false" />
    <sodipodi:guide
       position="40.970763,325.83419"
       orientation="0,-1"
       id="guide3"
       inkscape:locked="false" />
    <sodipodi:guide
       position="174.97076,750.83419"
       orientation="1,0"
       id="guide4"
       inkscape:locked="false" />
  </sodipodi:namedview>
  <g
     inkscape:groupmode="layer"
     inkscape:label="Image"
     id="g1"
     transform="translate(-711.02924,-325.83419)">
    <path
       style="fill:#008000;stroke-width:3.09;stroke-linejoin:round"
       d="m 717.00524,364.50077 c -0.43573,0.78203 -5.87127,12.49349 -5.95965,14.3966 -0.0884,1.90311 0.14673,6.9882 1.5751,8.59438 1.42837,1.60619 3.75927,4.65731 6.39711,3.56523 2.63784,-1.09208 7.61107,-5.68655 8.81087,-9.45721 1.1998,-3.77066 2.62334,-7.26165 5.08095,-13.6484 2.45761,-6.38675 3.50549,-9.91262 4.48225,-13.68017 0.97676,-3.76755 2.10924,-8.01848 3.56385,-11.96833 1.45461,-3.94986 3.15298,-6.9996 2.39339,-10.56932 -0.75959,-3.56971 -0.47302,-6.08878 -2.94651,-5.88818 -2.47349,0.2006 -6.0439,-0.31903 -7.73812,2.45105 -1.69423,2.77008 -2.21455,3.28245 -3.89876,8.03125 -1.68421,4.74881 -2.42101,7.12355 -3.53967,10.79478 -1.11867,3.67122 -1.67559,5.28016 -2.77664,7.85482 -1.10106,2.57466 -2.19176,5.37581 -3.07564,6.87841 -0.88388,1.5026 -2.36853,2.64509 -2.36853,2.64509 z"
       id="path94" />
  </g>
</svg>
