<?xml version="1.0" encoding="UTF-8" standalone="no"?>
<!-- Created with Inkscape (http://www.inkscape.org/) -->

<svg
   version="1.1"
   id="svg1"
   width="30.361919"
   height="31.25922"
   viewBox="0 0 30.361919 31.25922"
   sodipodi:docname="cells_crop.svg"
   inkscape:version="1.3.2 (091e20ef0f, 2023-11-25)"
   xmlns:inkscape="http://www.inkscape.org/namespaces/inkscape"
   xmlns:sodipodi="http://sodipodi.sourceforge.net/DTD/sodipodi-0.dtd"
   xmlns="http://www.w3.org/2000/svg"
   xmlns:svg="http://www.w3.org/2000/svg">
  <defs
     id="defs1" />
  <sodipodi:namedview
     id="namedview1"
     pagecolor="#ffffff"
     bordercolor="#000000"
     borderopacity="0.25"
     inkscape:showpageshadow="2"
     inkscape:pageopacity="0.0"
     inkscape:pagecheckerboard="0"
     inkscape:deskcolor="#d1d1d1"
     showguides="true"
     inkscape:zoom="1"
     inkscape:cx="246"
     inkscape:cy="97"
     inkscape:window-width="1920"
     inkscape:window-height="1016"
     inkscape:window-x="0"
     inkscape:window-y="27"
     inkscape:window-maximized="1"
     inkscape:current-layer="g1">
    <sodipodi:guide
       position="-484.91209,644.32579"
       orientation="1,0"
       id="guide1"
       inkscape:locked="false" />
    <sodipodi:guide
       position="51.124934,762.01665"
       orientation="0,-1"
       id="guide2"
       inkscape:locked="false" />
    <sodipodi:guide
       position="-60.998526,415.61199"
       orientation="0,-1"
       id="guide3"
       inkscape:locked="false" />
    <sodipodi:guide
       position="73.001474,840.61199"
       orientation="1,0"
       id="guide4"
       inkscape:locked="false" />
  </sodipodi:namedview>
  <g
     inkscape:groupmode="layer"
     inkscape:label="Image"
     id="g1"
     transform="translate(-812.99853,-415.61199)">
    <path
       style="fill:#008000;stroke-width:3.09;stroke-linejoin:round"
       d="m 812.99853,423.03906 c 1.23194,8.84229 6.56836,13.30127 6.56836,13.30127 0,0 5.24707,3.19922 6.61768,4.19483 1.3706,0.9956 4.85742,3.61718 6.60742,4.74218 1.75,1.125 3.66943,1.86475 4.24854,1.5 0.5791,-0.36474 1.46777,-0.51709 1.7041,-1.11474 0.23632,-0.59766 0.36132,-4.71827 0.48632,-5.83838 0.125,-1.12012 0.125,-1.98731 0.125,-3.48438 0,-1.49707 -0.25,-2.88086 0.125,-3.87011 0.375,-0.98926 0.62647,-1.74219 1.375,-2.73926 0.74854,-0.99707 2.62354,-1.74707 2.49854,-3.99707 -0.125,-2.25 -0.5,-3.375 -1.625,-4 -1.125,-0.625 -4.64258,-2.13233 -6.01758,-2.88233 -1.375,-0.75 -2.27148,-1.13525 -4.52197,-1.88574 -2.25049,-0.75049 -4.68604,-1.63965 -7.31152,-1.26465 -2.62549,0.375 -5.35547,0.65528 -6.98047,1.65528 -1.625,1 -2.37647,1.50293 -2.625,2.125 -0.24854,0.62207 -1.27442,3.5581 -1.27442,3.5581 z"
       id="path124" />
  </g>
</svg>
