<?xml version="1.0" encoding="UTF-8" standalone="no"?>
<!-- Created with Inkscape (http://www.inkscape.org/) -->

<svg
   version="1.1"
   id="svg1"
   width="36.534466"
   height="34.725395"
   viewBox="0 0 36.534466 34.725395"
   sodipodi:docname="cells_crop.svg"
   inkscape:version="1.3.2 (091e20ef0f, 2023-11-25)"
   xmlns:inkscape="http://www.inkscape.org/namespaces/inkscape"
   xmlns:sodipodi="http://sodipodi.sourceforge.net/DTD/sodipodi-0.dtd"
   xmlns="http://www.w3.org/2000/svg"
   xmlns:svg="http://www.w3.org/2000/svg">
  <defs
     id="defs1" />
  <sodipodi:namedview
     id="namedview1"
     pagecolor="#ffffff"
     bordercolor="#000000"
     borderopacity="0.25"
     inkscape:showpageshadow="2"
     inkscape:pageopacity="0.0"
     inkscape:pagecheckerboard="0"
     inkscape:deskcolor="#d1d1d1"
     showguides="true"
     inkscape:zoom="1"
     inkscape:cx="246"
     inkscape:cy="97"
     inkscape:window-width="1920"
     inkscape:window-height="1016"
     inkscape:window-x="0"
     inkscape:window-y="27"
     inkscape:window-maximized="1"
     inkscape:current-layer="g1">
    <sodipodi:guide
       position="-158.41394,679.15111"
       orientation="1,0"
       id="guide1"
       inkscape:locked="false" />
    <sodipodi:guide
       position="377.62308,796.84197"
       orientation="0,-1"
       id="guide2"
       inkscape:locked="false" />
    <sodipodi:guide
       position="265.49962,450.43731"
       orientation="0,-1"
       id="guide3"
       inkscape:locked="false" />
    <sodipodi:guide
       position="399.49962,875.43731"
       orientation="1,0"
       id="guide4"
       inkscape:locked="false" />
  </sodipodi:namedview>
  <g
     inkscape:groupmode="layer"
     inkscape:label="Image"
     id="g1"
     transform="translate(-486.50038,-450.43731)">
    <path
       style="fill:#008000;stroke-width:3.09;stroke-linejoin:round"
       d="m 490.67335,455.51207 c -1.3572,2.10434 -4.83001,7.74676 -4.06388,10.50032 0.76613,2.75355 3.67577,7.66426 5.74272,9.57929 2.06694,1.91503 4.08761,2.9399 8.58825,5.50949 4.50064,2.56959 8.12418,4.06684 11.07001,4.05497 2.94584,-0.0119 5.17895,0.26052 7.16934,-1.73403 1.9904,-1.99455 3.82116,-2.15537 3.82116,-5.19378 0,-3.03841 0.30443,-4.4045 -0.91152,-7.74794 -1.21596,-3.34344 -0.71925,-3.59921 -3.08411,-8.00549 -2.36485,-4.40629 -2.34942,-5.48042 -4.66443,-7.32839 -2.31501,-1.84797 -4.88757,-4.28344 -7.31295,-4.58728 -2.42539,-0.30384 -4.74514,0.002 -6.72011,0.45813 -1.97496,0.45577 -6.83642,1.82364 -6.83642,1.82364 z"
       id="path31" />
  </g>
</svg>
