<?xml version="1.0" encoding="UTF-8" standalone="no"?>
<!-- Created with Inkscape (http://www.inkscape.org/) -->

<svg
   version="1.1"
   id="svg1"
   width="24.498777"
   height="39.659702"
   viewBox="0 0 24.498777 39.659702"
   sodipodi:docname="cells_crop.svg"
   inkscape:version="1.3.2 (091e20ef0f, 2023-11-25)"
   xmlns:inkscape="http://www.inkscape.org/namespaces/inkscape"
   xmlns:sodipodi="http://sodipodi.sourceforge.net/DTD/sodipodi-0.dtd"
   xmlns="http://www.w3.org/2000/svg"
   xmlns:svg="http://www.w3.org/2000/svg">
  <defs
     id="defs1" />
  <sodipodi:namedview
     id="namedview1"
     pagecolor="#ffffff"
     bordercolor="#000000"
     borderopacity="0.25"
     inkscape:showpageshadow="2"
     inkscape:pageopacity="0.0"
     inkscape:pagecheckerboard="0"
     inkscape:deskcolor="#d1d1d1"
     showguides="true"
     inkscape:zoom="1"
     inkscape:cx="246"
     inkscape:cy="97"
     inkscape:window-width="1920"
     inkscape:window-height="1016"
     inkscape:window-x="0"
     inkscape:window-y="27"
     inkscape:window-maximized="1"
     inkscape:current-layer="g1">
    <sodipodi:guide
       position="-518.46621,549.02968"
       orientation="1,0"
       id="guide1"
       inkscape:locked="false" />
    <sodipodi:guide
       position="17.570817,666.72054"
       orientation="0,-1"
       id="guide2"
       inkscape:locked="false" />
    <sodipodi:guide
       position="-94.552643,320.31588"
       orientation="0,-1"
       id="guide3"
       inkscape:locked="false" />
    <sodipodi:guide
       position="39.447357,745.31588"
       orientation="1,0"
       id="guide4"
       inkscape:locked="false" />
  </sodipodi:namedview>
  <g
     inkscape:groupmode="layer"
     inkscape:label="Image"
     id="g1"
     transform="translate(-846.55265,-320.31588)">
    <path
       style="fill:#008000;stroke-width:3.09;stroke-linejoin:round"
       d="m 846.63428,347.21142 c 0,0 -0.25,1.05274 0.125,2.30274 0.375,1.25 0.50927,2.00195 1.12353,2.49853 0.61426,0.49659 2.97656,1.97217 3.60156,2.97217 0.625,1 1.12207,1.9961 1.62207,2.99414 0.5,0.99805 1.74659,1.99658 1.74659,1.99658 0,0 4.40429,-1.36669 4.86718,-1.98095 0.46289,-0.61426 0.58789,-1.11426 1.96289,-2.48926 1.375,-1.375 2.36621,-1.86621 4.125,-3.5 1.75879,-1.63379 2.25977,-1.25586 3.51563,-3.5166 1.25586,-2.26074 2.00586,-2.5166 1.63086,-3.88574 -0.375,-1.36914 -0.375,-2.11914 -1.375,-3.24414 -1,-1.125 -1.25,-1.25 -3.125,-2.875 -1.875,-1.625 -1.625,-1 -3.125,-3 -1.5,-2 -1.625,-1.75 -2.5,-3.875 -0.875,-2.125 -0.49658,-1.86963 -1.75,-4 -1.25342,-2.13038 -1.51172,-2.89258 -2.88672,-4.39258 -1.375,-1.5 -2.99707,-2.74805 -2.99707,-2.74805 0,0 -1.53858,-0.51562 -1.9082,0.3501 -0.36963,0.86572 -0.49073,1.3623 -0.49073,2.07617 0,0.71387 0.13037,1.34277 0.49658,1.95117 0.36622,0.6084 0.61622,0.97852 0.99122,2.35352 0.375,1.375 0.5,2.1206 0.75,3.7456 0.25,1.625 0.62353,2.38575 0.74853,3.49512 0.125,1.10938 0.24854,1.12256 0.24854,2.60645 0,1.48388 -10e-4,3.91796 -0.25,4.50634 -0.24854,0.58838 -0.39991,1.13086 -0.62354,1.70411 -0.22363,0.57324 -0.47021,1.15869 -0.47021,1.15869 l -0.88575,0.76562 -2.29687,1.09668 h -1.98633 z"
       id="path137" />
  </g>
</svg>
