<?xml version="1.0" encoding="UTF-8" standalone="no"?>
<!-- Created with Inkscape (http://www.inkscape.org/) -->

<svg
   version="1.1"
   id="svg1"
   width="41.484119"
   height="41.179401"
   viewBox="0 0 41.484119 41.179401"
   sodipodi:docname="cells_crop.svg"
   inkscape:version="1.3.2 (091e20ef0f, 2023-11-25)"
   xmlns:inkscape="http://www.inkscape.org/namespaces/inkscape"
   xmlns:sodipodi="http://sodipodi.sourceforge.net/DTD/sodipodi-0.dtd"
   xmlns="http://www.w3.org/2000/svg"
   xmlns:svg="http://www.w3.org/2000/svg">
  <defs
     id="defs1" />
  <sodipodi:namedview
     id="namedview1"
     pagecolor="#ffffff"
     bordercolor="#000000"
     borderopacity="0.25"
     inkscape:showpageshadow="2"
     inkscape:pageopacity="0.0"
     inkscape:pagecheckerboard="0"
     inkscape:deskcolor="#d1d1d1"
     showguides="true"
     inkscape:zoom="1"
     inkscape:cx="246"
     inkscape:cy="97"
     inkscape:window-width="1920"
     inkscape:window-height="1016"
     inkscape:window-x="0"
     inkscape:window-y="27"
     inkscape:window-maximized="1"
     inkscape:current-layer="g1">
    <sodipodi:guide
       position="-369.17251,783.5381"
       orientation="1,0"
       id="guide1"
       inkscape:locked="false" />
    <sodipodi:guide
       position="166.86452,901.22896"
       orientation="0,-1"
       id="guide2"
       inkscape:locked="false" />
    <sodipodi:guide
       position="54.741056,554.8243"
       orientation="0,-1"
       id="guide3"
       inkscape:locked="false" />
    <sodipodi:guide
       position="188.74106,979.8243"
       orientation="1,0"
       id="guide4"
       inkscape:locked="false" />
  </sodipodi:namedview>
  <g
     inkscape:groupmode="layer"
     inkscape:label="Image"
     id="g1"
     transform="translate(-697.25895,-554.82431)">
    <path
       style="fill:#008000;stroke-width:3.09;stroke-linejoin:round"
       d="m 702.39147,576.29168 c -0.80862,0.80862 -5.46696,6.90396 -5.11341,8.67173 0.35356,1.76776 0.88078,5.85262 3.04077,7.6518 2.15999,1.79919 5.49907,3.60114 10.90457,3.36808 5.4055,-0.23305 9.6913,0.0152 12.65921,-3.0746 2.96792,-3.08979 2.5895,-2.01325 6.03734,-6.05736 3.44784,-4.04412 5.11375,-4.40319 6.62809,-9.32808 1.51434,-4.92489 2.86088,-5.81533 1.83682,-9.62156 -1.02406,-3.80622 -2.01843,-6.71993 -4.59447,-9.09329 -2.57603,-2.37337 -6.0767,-4.14873 -6.96058,-3.97196 -0.88388,0.17678 -3.92603,0.57833 -5.25393,1.81853 -1.32789,1.24019 -1.80367,1.74256 -4.15252,4.72083 -2.34885,2.97827 -4.02616,5.33852 -6.48515,7.88072 -2.45899,2.5422 -8.54674,7.03516 -8.54674,7.03516 z"
       id="path98" />
  </g>
</svg>
