<?xml version="1.0" encoding="UTF-8" standalone="no"?>
<!-- Created with Inkscape (http://www.inkscape.org/) -->

<svg
   version="1.1"
   id="svg1"
   width="32.892372"
   height="31.548668"
   viewBox="0 0 32.892372 31.548668"
   sodipodi:docname="cells_crop.svg"
   inkscape:version="1.3.2 (091e20ef0f, 2023-11-25)"
   xmlns:inkscape="http://www.inkscape.org/namespaces/inkscape"
   xmlns:sodipodi="http://sodipodi.sourceforge.net/DTD/sodipodi-0.dtd"
   xmlns="http://www.w3.org/2000/svg"
   xmlns:svg="http://www.w3.org/2000/svg">
  <defs
     id="defs1" />
  <sodipodi:namedview
     id="namedview1"
     pagecolor="#ffffff"
     bordercolor="#000000"
     borderopacity="0.25"
     inkscape:showpageshadow="2"
     inkscape:pageopacity="0.0"
     inkscape:pagecheckerboard="0"
     inkscape:deskcolor="#d1d1d1"
     showguides="true"
     inkscape:zoom="1"
     inkscape:cx="246"
     inkscape:cy="97"
     inkscape:window-width="1920"
     inkscape:window-height="1016"
     inkscape:window-x="0"
     inkscape:window-y="27"
     inkscape:window-maximized="1"
     inkscape:current-layer="g1">
    <sodipodi:guide
       position="-1.6095023,513.68309"
       orientation="1,0"
       id="guide1"
       inkscape:locked="false" />
    <sodipodi:guide
       position="534.42752,631.37395"
       orientation="0,-1"
       id="guide2"
       inkscape:locked="false" />
    <sodipodi:guide
       position="422.30406,284.96929"
       orientation="0,-1"
       id="guide3"
       inkscape:locked="false" />
    <sodipodi:guide
       position="556.30406,709.96929"
       orientation="1,0"
       id="guide4"
       inkscape:locked="false" />
  </sodipodi:namedview>
  <g
     inkscape:groupmode="layer"
     inkscape:label="Image"
     id="g1"
     transform="translate(-329.69594,-284.96929)">
    <path
       style="fill:#008000;stroke-width:3.09;stroke-linejoin:round"
       d="m 331.91333,286.45776 c -0.42261,0.72559 -1.33252,11.78369 -1.52002,13.71143 -0.1875,1.92773 -1.07739,4.60449 -0.51172,5.54932 0.56567,0.94482 1.66016,1.80029 3.26734,2.82104 1.60717,1.02075 2.21875,1.24048 3.99658,3.02734 1.77783,1.78687 -0.69849,1.78077 3.9707,3.11695 4.66919,1.33618 12.49829,3.05127 16.2273,0.57641 3.729,-2.47485 5.40747,0.34131 5.23242,-5.56396 -0.17505,-5.90528 0.38647,-8.56104 -2.02173,-11.66992 -2.4082,-3.10889 -8.21069,-6.95435 -11.95264,-8.62085 -3.74194,-1.66651 -8.3999,-3.51099 -9.552,-4.08789 -1.1521,-0.57691 -4.4021,-0.26319 -4.4021,-0.26319 z"
       id="path49" />
  </g>
</svg>
