<?xml version="1.0" encoding="UTF-8" standalone="no"?>
<!-- Created with Inkscape (http://www.inkscape.org/) -->

<svg
   version="1.1"
   id="svg1"
   width="22.78146"
   height="25.054319"
   viewBox="0 0 22.78146 25.054319"
   sodipodi:docname="cells_crop.svg"
   inkscape:version="1.3.2 (091e20ef0f, 2023-11-25)"
   xmlns:inkscape="http://www.inkscape.org/namespaces/inkscape"
   xmlns:sodipodi="http://sodipodi.sourceforge.net/DTD/sodipodi-0.dtd"
   xmlns="http://www.w3.org/2000/svg"
   xmlns:svg="http://www.w3.org/2000/svg">
  <defs
     id="defs1" />
  <sodipodi:namedview
     id="namedview1"
     pagecolor="#ffffff"
     bordercolor="#000000"
     borderopacity="0.25"
     inkscape:showpageshadow="2"
     inkscape:pageopacity="0.0"
     inkscape:pagecheckerboard="0"
     inkscape:deskcolor="#d1d1d1"
     showguides="true"
     inkscape:zoom="1"
     inkscape:cx="246"
     inkscape:cy="97"
     inkscape:window-width="1920"
     inkscape:window-height="1016"
     inkscape:window-x="0"
     inkscape:window-y="27"
     inkscape:window-maximized="1"
     inkscape:current-layer="g1">
    <sodipodi:guide
       position="-7.4408762,633.68986"
       orientation="1,0"
       id="guide1"
       inkscape:locked="false" />
    <sodipodi:guide
       position="528.59615,751.38072"
       orientation="0,-1"
       id="guide2"
       inkscape:locked="false" />
    <sodipodi:guide
       position="416.47269,404.97606"
       orientation="0,-1"
       id="guide3"
       inkscape:locked="false" />
    <sodipodi:guide
       position="550.47269,829.97606"
       orientation="1,0"
       id="guide4"
       inkscape:locked="false" />
  </sodipodi:namedview>
  <g
     inkscape:groupmode="layer"
     inkscape:label="Image"
     id="g1"
     transform="translate(-335.52731,-404.97606)">
    <path
       style="fill:#008000;stroke-width:3.09;stroke-linejoin:round"
       d="m 341.33318,409.13361 c -1.63255,1.06641 -4.25436,1.8545 -4.71013,4.58907 -0.45576,2.73456 -1.68121,3.96892 -0.76316,7.17527 0.91805,3.20635 1.07413,4.42706 2.74525,6.40202 1.67113,1.97497 -1.29607,3.67814 4.40569,2.12689 5.70177,-1.55125 7.32957,-1.50615 9.48791,-4.14517 2.15834,-2.63903 2.92209,-2.49245 3.98554,-4.77126 1.06344,-2.2788 2.44675,-2.09543 1.5192,-5.62105 -0.92754,-3.52562 -0.69966,-5.79256 -2.98381,-7.31533 -2.28415,-1.52276 -5.79197,-3.25857 -8.10282,-2.34408 -2.31085,0.91449 -5.58367,3.90364 -5.58367,3.90364 z"
       id="path11" />
  </g>
</svg>
