<?xml version="1.0" encoding="UTF-8" standalone="no"?>
<!-- Created with Inkscape (http://www.inkscape.org/) -->

<svg
   version="1.1"
   id="svg1"
   width="27.506794"
   height="18.426908"
   viewBox="0 0 27.506794 18.426908"
   sodipodi:docname="cells_crop.svg"
   inkscape:version="1.3.2 (091e20ef0f, 2023-11-25)"
   xmlns:inkscape="http://www.inkscape.org/namespaces/inkscape"
   xmlns:sodipodi="http://sodipodi.sourceforge.net/DTD/sodipodi-0.dtd"
   xmlns="http://www.w3.org/2000/svg"
   xmlns:svg="http://www.w3.org/2000/svg">
  <defs
     id="defs1" />
  <sodipodi:namedview
     id="namedview1"
     pagecolor="#ffffff"
     bordercolor="#000000"
     borderopacity="0.25"
     inkscape:showpageshadow="2"
     inkscape:pageopacity="0.0"
     inkscape:pagecheckerboard="0"
     inkscape:deskcolor="#d1d1d1"
     showguides="true"
     inkscape:zoom="1"
     inkscape:cx="246"
     inkscape:cy="97"
     inkscape:window-width="1920"
     inkscape:window-height="1016"
     inkscape:window-x="0"
     inkscape:window-y="27"
     inkscape:window-maximized="1"
     inkscape:current-layer="g1">
    <sodipodi:guide
       position="-256.46757,771.49611"
       orientation="1,0"
       id="guide1"
       inkscape:locked="false" />
    <sodipodi:guide
       position="279.56946,889.18697"
       orientation="0,-1"
       id="guide2"
       inkscape:locked="false" />
    <sodipodi:guide
       position="167.446,542.78231"
       orientation="0,-1"
       id="guide3"
       inkscape:locked="false" />
    <sodipodi:guide
       position="301.446,967.78231"
       orientation="1,0"
       id="guide4"
       inkscape:locked="false" />
  </sodipodi:namedview>
  <g
     inkscape:groupmode="layer"
     inkscape:label="Image"
     id="g1"
     transform="translate(-584.554,-542.78231)">
    <path
       style="fill:#008000;stroke-width:3.09;stroke-linejoin:round"
       d="m 590.20577,544.22052 c 0,0 -5.6957,6.64173 -5.65151,7.44171 0.0442,0.79999 0.83434,4.87345 2.30121,6.7353 1.46687,1.86185 1.50536,2.72139 4.80922,2.80512 3.30386,0.0837 5.27257,-0.651 5.85608,-1.14611 0.5835,-0.49512 1.45322,-1.56182 2.5952,-2.64699 1.14197,-1.08518 2.47211,-2.10958 4.017,-3.21496 1.5449,-1.10537 2.15482,-1.58978 3.74701,-2.78527 1.5922,-1.19548 3.0948,-1.78537 3.62375,-3.2115 0.52895,-1.42612 0.75286,-2.83188 0.35218,-3.54641 -0.40069,-0.71453 -0.93844,-1.25038 -1.46877,-1.47135 -0.53033,-0.22097 -1.01647,-0.39775 -1.67938,-0.39775 -0.66291,0 -1.82042,0.14018 -2.57172,0.36115 -0.7513,0.22097 -1.69578,0.41536 -2.85104,0.50461 -1.15527,0.0892 -2.60021,0.16348 -3.95814,-0.019 -1.35794,-0.18248 -2.77146,-0.44833 -3.75064,-0.53672 -0.97917,-0.0884 -2.44742,-0.13362 -2.79873,-0.13362 -0.35131,0 -2.57172,1.26178 -2.57172,1.26178 z"
       id="path85" />
  </g>
</svg>
