<?xml version="1.0" encoding="UTF-8" standalone="no"?>
<!-- Created with Inkscape (http://www.inkscape.org/) -->

<svg
   version="1.1"
   id="svg1"
   width="66.924797"
   height="38.234753"
   viewBox="0 0 66.924797 38.234752"
   sodipodi:docname="cells_crop.svg"
   inkscape:version="1.3.2 (091e20ef0f, 2023-11-25)"
   xmlns:inkscape="http://www.inkscape.org/namespaces/inkscape"
   xmlns:sodipodi="http://sodipodi.sourceforge.net/DTD/sodipodi-0.dtd"
   xmlns="http://www.w3.org/2000/svg"
   xmlns:svg="http://www.w3.org/2000/svg">
  <defs
     id="defs1" />
  <sodipodi:namedview
     id="namedview1"
     pagecolor="#ffffff"
     bordercolor="#000000"
     borderopacity="0.25"
     inkscape:showpageshadow="2"
     inkscape:pageopacity="0.0"
     inkscape:pagecheckerboard="0"
     inkscape:deskcolor="#d1d1d1"
     showguides="true"
     inkscape:zoom="1"
     inkscape:cx="246"
     inkscape:cy="97"
     inkscape:window-width="1920"
     inkscape:window-height="1016"
     inkscape:window-x="0"
     inkscape:window-y="27"
     inkscape:window-maximized="1"
     inkscape:current-layer="g1">
    <sodipodi:guide
       position="-400.21145,721.3093"
       orientation="1,0"
       id="guide1"
       inkscape:locked="false" />
    <sodipodi:guide
       position="135.82557,839.00016"
       orientation="0,-1"
       id="guide2"
       inkscape:locked="false" />
    <sodipodi:guide
       position="23.702113,492.5955"
       orientation="0,-1"
       id="guide3"
       inkscape:locked="false" />
    <sodipodi:guide
       position="157.70211,917.5955"
       orientation="1,0"
       id="guide4"
       inkscape:locked="false" />
  </sodipodi:namedview>
  <g
     inkscape:groupmode="layer"
     inkscape:label="Image"
     id="g1"
     transform="translate(-728.29789,-492.5955)">
    <path
       style="fill:#008000;stroke-width:3.09;stroke-linejoin:round"
       d="m 728.29789,501.58385 c 0,0 8.51911,8.9065 9.04668,10.10389 0.52757,1.19738 3.53139,5.79151 6.19064,7.91904 2.65924,2.12754 12.49245,9.44996 15.67443,10.51062 3.18198,1.06066 9.00249,0.84452 10.41463,-0.0373 1.41214,-0.88181 3.97472,-1.63933 6.45442,-3.58732 2.47971,-1.948 4.20397,-3.4872 7.6304,-6.00696 3.42643,-2.51976 6.57181,-4.21087 8.33958,-6.50897 1.76777,-2.2981 4.25852,-2.65165 2.6627,-5.84192 -1.59582,-3.19027 -2.12615,-4.60448 -3.89392,-6.19547 -1.76777,-1.59099 -7.2216,-3.70748 -7.2216,-3.70748 0,0 -4.35589,-0.7071 -6.2666,-0.53033 -1.91071,0.17678 -7.34659,0.70711 -9.64469,0.35356 -2.2981,-0.35356 -4.77297,-0.88389 -6.89429,-1.59099 -2.12132,-0.70711 -4.94837,-1.5903 -9.01561,-2.47488 -4.06725,-0.88457 -5.1286,-1.94523 -8.66413,-1.06135 -3.53553,0.88389 -7.07107,2.12132 -8.30851,2.82843 -1.23743,0.70711 -6.50413,5.82742 -6.50413,5.82742 z"
       id="path115" />
  </g>
</svg>
