<?xml version="1.0" encoding="UTF-8" standalone="no"?>
<!-- Created with Inkscape (http://www.inkscape.org/) -->

<svg
   version="1.1"
   id="svg1"
   width="45.678864"
   height="28.710016"
   viewBox="0 0 45.678863 28.710016"
   sodipodi:docname="cells_crop.svg"
   inkscape:version="1.3.2 (091e20ef0f, 2023-11-25)"
   xmlns:inkscape="http://www.inkscape.org/namespaces/inkscape"
   xmlns:sodipodi="http://sodipodi.sourceforge.net/DTD/sodipodi-0.dtd"
   xmlns="http://www.w3.org/2000/svg"
   xmlns:svg="http://www.w3.org/2000/svg">
  <defs
     id="defs1" />
  <sodipodi:namedview
     id="namedview1"
     pagecolor="#ffffff"
     bordercolor="#000000"
     borderopacity="0.25"
     inkscape:showpageshadow="2"
     inkscape:pageopacity="0.0"
     inkscape:pagecheckerboard="0"
     inkscape:deskcolor="#d1d1d1"
     showguides="true"
     inkscape:zoom="1"
     inkscape:cx="246"
     inkscape:cy="97"
     inkscape:window-width="1920"
     inkscape:window-height="1016"
     inkscape:window-x="0"
     inkscape:window-y="27"
     inkscape:window-maximized="1"
     inkscape:current-layer="g1">
    <sodipodi:guide
       position="-158.11402,605.13825"
       orientation="1,0"
       id="guide1"
       inkscape:locked="false" />
    <sodipodi:guide
       position="377.92301,722.82911"
       orientation="0,-1"
       id="guide2"
       inkscape:locked="false" />
    <sodipodi:guide
       position="265.79955,376.42445"
       orientation="0,-1"
       id="guide3"
       inkscape:locked="false" />
    <sodipodi:guide
       position="399.79955,801.42445"
       orientation="1,0"
       id="guide4"
       inkscape:locked="false" />
  </sodipodi:namedview>
  <g
     inkscape:groupmode="layer"
     inkscape:label="Image"
     id="g1"
     transform="translate(-486.20045,-376.42445)">
    <path
       style="fill:#008000;stroke-width:3.09;stroke-linejoin:round"
       d="m 511.40273,377.40056 c -1.03437,0 -11.84475,-1.3898 -14.10065,-0.85268 -2.25591,0.53712 -3.87608,-0.27947 -6.92507,2.17827 -3.049,2.45775 -4.98515,2.49845 -3.8467,7.7404 1.13844,5.24196 2.59328,8.97536 3.46484,11.81119 0.87156,2.83582 0.98905,5.24615 2.94535,6.10554 1.95629,0.85939 7.85495,0.9387 11.33574,0.45445 3.48079,-0.48425 6.06065,-1.60338 9.76761,-1.49596 3.70697,0.10742 6.05225,0.69196 9.46003,0.36969 3.40777,-0.32227 5.66619,-0.24254 6.52558,-1.74648 0.85939,-1.50394 2.67595,-2.00623 1.42169,-6.33298 -1.25426,-4.32675 -0.88751,-5.49499 -3.74054,-9.12306 -2.85302,-3.62808 -6.25534,-6.2927 -8.93675,-7.73915 -2.6814,-1.44644 -7.37113,-1.36923 -7.37113,-1.36923 z"
       id="path42" />
  </g>
</svg>
