<?xml version="1.0" encoding="UTF-8" standalone="no"?>
<!-- Created with Inkscape (http://www.inkscape.org/) -->

<svg
   version="1.1"
   id="svg1"
   width="16.166801"
   height="22.92392"
   viewBox="0 0 16.166801 22.923919"
   sodipodi:docname="cells_crop.svg"
   inkscape:version="1.3.2 (091e20ef0f, 2023-11-25)"
   xmlns:inkscape="http://www.inkscape.org/namespaces/inkscape"
   xmlns:sodipodi="http://sodipodi.sourceforge.net/DTD/sodipodi-0.dtd"
   xmlns="http://www.w3.org/2000/svg"
   xmlns:svg="http://www.w3.org/2000/svg">
  <defs
     id="defs1" />
  <sodipodi:namedview
     id="namedview1"
     pagecolor="#ffffff"
     bordercolor="#000000"
     borderopacity="0.25"
     inkscape:showpageshadow="2"
     inkscape:pageopacity="0.0"
     inkscape:pagecheckerboard="0"
     inkscape:deskcolor="#d1d1d1"
     showguides="true"
     inkscape:zoom="1"
     inkscape:cx="246"
     inkscape:cy="97"
     inkscape:window-width="1920"
     inkscape:window-height="1016"
     inkscape:window-x="0"
     inkscape:window-y="27"
     inkscape:window-maximized="1"
     inkscape:current-layer="g1">
    <sodipodi:guide
       position="-179.76367,503.42156"
       orientation="1,0"
       id="guide1"
       inkscape:locked="false" />
    <sodipodi:guide
       position="356.27336,621.11242"
       orientation="0,-1"
       id="guide2"
       inkscape:locked="false" />
    <sodipodi:guide
       position="244.1499,274.70776"
       orientation="0,-1"
       id="guide3"
       inkscape:locked="false" />
    <sodipodi:guide
       position="378.1499,699.70776"
       orientation="1,0"
       id="guide4"
       inkscape:locked="false" />
  </sodipodi:namedview>
  <g
     inkscape:groupmode="layer"
     inkscape:label="Image"
     id="g1"
     transform="translate(-507.8501,-274.70776)">
    <path
       style="fill:#008000;stroke-width:3.09;stroke-linejoin:round"
       d="m 509.93725,275.91626 c -0.28515,0.53857 -1.50195,3.03369 -1.43945,4.09619 0.0625,1.0625 0,2.57031 0.125,3.1875 0.125,0.61719 0.49927,2.66382 0.49927,3.02319 0,0.35938 0.0456,2.66993 -0.39185,4.35743 -0.4375,1.6875 -1.25244,2.05639 -0.6875,3.8125 0.56494,1.7561 0.68994,2.8811 1.81494,3.0686 1.125,0.1875 2.59058,0.31909 4.82935,-0.16065 2.23877,-0.47973 2.81128,-0.28051 4.6023,-1.71997 1.79101,-1.43945 3.13745,-2.21997 3.69995,-3.34521 0.5625,-1.12524 1.14233,-1.80835 1.00805,-3.89136 -0.13427,-2.08301 0.006,-3.29468 -0.87133,-4.23364 -0.8772,-0.93897 -1.84156,-1.64575 -3.16724,-2.78101 -1.32568,-1.13525 -2.03687,-1.78344 -2.84937,-2.65844 -0.8125,-0.875 -1.0874,-1.27222 -2.0874,-2.14722 -1,-0.875 -1.63452,-1.31641 -2.31958,-1.50391 -0.68506,-0.1875 -1.68359,-0.3125 -1.68359,-0.3125 z"
       id="path55" />
  </g>
</svg>
