<?xml version="1.0" encoding="UTF-8" standalone="no"?>
<!-- Created with Inkscape (http://www.inkscape.org/) -->

<svg
   version="1.1"
   id="svg1"
   width="39.017315"
   height="39.037376"
   viewBox="0 0 39.017315 39.037376"
   sodipodi:docname="cells_crop.svg"
   inkscape:version="1.3.2 (091e20ef0f, 2023-11-25)"
   xmlns:inkscape="http://www.inkscape.org/namespaces/inkscape"
   xmlns:sodipodi="http://sodipodi.sourceforge.net/DTD/sodipodi-0.dtd"
   xmlns="http://www.w3.org/2000/svg"
   xmlns:svg="http://www.w3.org/2000/svg">
  <defs
     id="defs1" />
  <sodipodi:namedview
     id="namedview1"
     pagecolor="#ffffff"
     bordercolor="#000000"
     borderopacity="0.25"
     inkscape:showpageshadow="2"
     inkscape:pageopacity="0.0"
     inkscape:pagecheckerboard="0"
     inkscape:deskcolor="#d1d1d1"
     showguides="true"
     inkscape:zoom="1"
     inkscape:cx="246"
     inkscape:cy="97"
     inkscape:window-width="1920"
     inkscape:window-height="1016"
     inkscape:window-x="0"
     inkscape:window-y="27"
     inkscape:window-maximized="1"
     inkscape:current-layer="g1">
    <sodipodi:guide
       position="-91.648375,774.11533"
       orientation="1,0"
       id="guide1"
       inkscape:locked="false" />
    <sodipodi:guide
       position="444.38865,891.80619"
       orientation="0,-1"
       id="guide2"
       inkscape:locked="false" />
    <sodipodi:guide
       position="332.26519,545.40153"
       orientation="0,-1"
       id="guide3"
       inkscape:locked="false" />
    <sodipodi:guide
       position="466.26519,970.40153"
       orientation="1,0"
       id="guide4"
       inkscape:locked="false" />
  </sodipodi:namedview>
  <g
     inkscape:groupmode="layer"
     inkscape:label="Image"
     id="g1"
     transform="translate(-419.73481,-545.40154)">
    <path
       style="fill:#008000;stroke-width:3.09;stroke-linejoin:round"
       d="m 419.73481,563.04148 c 1.52217,2.73872 2.50965,5.28695 5.93914,8.86835 3.42948,3.58141 3.49832,6.43823 9.40067,9.04283 5.90235,2.60461 9.57573,4.77422 13.75889,2.5868 4.18315,-2.18741 6.20975,-2.20522 7.59602,-5.76645 1.38627,-3.56123 3.28291,-4.57304 1.75777,-10.20596 -1.52514,-5.63293 -1.7008,-7.3088 -5.00863,-11.10385 -3.30783,-3.79504 -4.48047,-6.01688 -7.86722,-7.3984 -3.38676,-1.38153 -7.91826,-2.58324 -10.80475,-2.88708 -2.88649,-0.30384 -5.53026,-1.66935 -7.65596,0.15548 -2.1257,1.82482 -3.05087,2.45031 -3.96239,4.72911 -0.91153,2.27881 -1.82305,4.41875 -1.97497,5.77298 -0.15192,1.35423 -1.17857,6.20619 -1.17857,6.20619 z"
       id="path20" />
  </g>
</svg>
