<?xml version="1.0" encoding="UTF-8" standalone="no"?>
<!-- Created with Inkscape (http://www.inkscape.org/) -->

<svg
   version="1.1"
   id="svg1"
   width="36.586479"
   height="22.930744"
   viewBox="0 0 36.586479 22.930744"
   sodipodi:docname="cells_crop.svg"
   inkscape:version="1.3.2 (091e20ef0f, 2023-11-25)"
   xmlns:inkscape="http://www.inkscape.org/namespaces/inkscape"
   xmlns:sodipodi="http://sodipodi.sourceforge.net/DTD/sodipodi-0.dtd"
   xmlns="http://www.w3.org/2000/svg"
   xmlns:svg="http://www.w3.org/2000/svg">
  <defs
     id="defs1" />
  <sodipodi:namedview
     id="namedview1"
     pagecolor="#ffffff"
     bordercolor="#000000"
     borderopacity="0.25"
     inkscape:showpageshadow="2"
     inkscape:pageopacity="0.0"
     inkscape:pagecheckerboard="0"
     inkscape:deskcolor="#d1d1d1"
     showguides="true"
     inkscape:zoom="1"
     inkscape:cx="246"
     inkscape:cy="97"
     inkscape:window-width="1920"
     inkscape:window-height="1016"
     inkscape:window-x="0"
     inkscape:window-y="27"
     inkscape:window-maximized="1"
     inkscape:current-layer="g1">
    <sodipodi:guide
       position="-311.0829,497.67471"
       orientation="1,0"
       id="guide1"
       inkscape:locked="false" />
    <sodipodi:guide
       position="224.95413,615.36557"
       orientation="0,-1"
       id="guide2"
       inkscape:locked="false" />
    <sodipodi:guide
       position="112.83067,268.96091"
       orientation="0,-1"
       id="guide3"
       inkscape:locked="false" />
    <sodipodi:guide
       position="246.83067,693.96091"
       orientation="1,0"
       id="guide4"
       inkscape:locked="false" />
  </sodipodi:namedview>
  <g
     inkscape:groupmode="layer"
     inkscape:label="Image"
     id="g1"
     transform="translate(-639.16934,-268.96091)">
    <path
       style="fill:#008000;stroke-width:3.09;stroke-linejoin:round"
       d="m 649.90864,270.21751 c -0.76321,0.34664 -7.31172,7.27339 -7.63316,8.28848 -0.32144,1.01508 -3.24482,7.09765 -3.10101,8.6403 0.1438,1.54266 -0.0551,3.40209 0.9916,3.94122 1.04668,0.53914 5.57675,0.79585 7.91404,0.74285 2.33728,-0.053 5.51944,-0.24773 8.5369,-0.19508 3.01746,0.0526 3.4651,0.62856 7.8291,-0.1407 4.364,-0.76925 5.56208,1.8881 8.22426,-2.98621 2.66218,-4.87431 3.17956,-4.43461 3.05061,-9.06533 -0.12896,-4.63072 0.71539,-6.87185 -1.84649,-8.80483 -2.56188,-1.93297 -16.2771,-1.52573 -16.65102,-1.52573 -0.37392,0 -5.20939,-0.15157 -5.20939,-0.15157 z"
       id="path87" />
  </g>
</svg>
