<?xml version="1.0" encoding="UTF-8" standalone="no"?>
<!-- Created with Inkscape (http://www.inkscape.org/) -->

<svg
   version="1.1"
   id="svg1"
   width="31.030127"
   height="18.562851"
   viewBox="0 0 31.030126 18.562851"
   sodipodi:docname="cells_crop.svg"
   inkscape:version="1.3.2 (091e20ef0f, 2023-11-25)"
   xmlns:inkscape="http://www.inkscape.org/namespaces/inkscape"
   xmlns:sodipodi="http://sodipodi.sourceforge.net/DTD/sodipodi-0.dtd"
   xmlns="http://www.w3.org/2000/svg"
   xmlns:svg="http://www.w3.org/2000/svg">
  <defs
     id="defs1" />
  <sodipodi:namedview
     id="namedview1"
     pagecolor="#ffffff"
     bordercolor="#000000"
     borderopacity="0.25"
     inkscape:showpageshadow="2"
     inkscape:pageopacity="0.0"
     inkscape:pagecheckerboard="0"
     inkscape:deskcolor="#d1d1d1"
     showguides="true"
     inkscape:zoom="1"
     inkscape:cx="246"
     inkscape:cy="97"
     inkscape:window-width="1920"
     inkscape:window-height="1016"
     inkscape:window-x="0"
     inkscape:window-y="27"
     inkscape:window-maximized="1"
     inkscape:current-layer="g1">
    <sodipodi:guide
       position="-248.32807,619.46576"
       orientation="1,0"
       id="guide1"
       inkscape:locked="false" />
    <sodipodi:guide
       position="287.70896,737.15662"
       orientation="0,-1"
       id="guide2"
       inkscape:locked="false" />
    <sodipodi:guide
       position="175.5855,390.75196"
       orientation="0,-1"
       id="guide3"
       inkscape:locked="false" />
    <sodipodi:guide
       position="309.5855,815.75196"
       orientation="1,0"
       id="guide4"
       inkscape:locked="false" />
  </sodipodi:namedview>
  <g
     inkscape:groupmode="layer"
     inkscape:label="Image"
     id="g1"
     transform="translate(-576.4145,-390.75196)">
    <path
       style="fill:#008000;stroke-width:3.09;stroke-linejoin:round"
       d="m 584.72552,391.77272 c -1.41422,0.44194 -6.49137,3.00796 -7.19847,5.48318 -0.70711,2.47522 -0.98678,4.09625 -1.07517,6.48274 -0.0884,2.38648 -0.0884,4.15425 0.7955,4.68458 0.88388,0.53033 1.61965,0.88388 3.56454,0.70711 1.94488,-0.17678 1.28991,-0.26931 4.29719,-0.35943 3.00727,-0.0901 4.51851,-0.22097 7.5137,-0.31177 2.99519,-0.0908 4.41803,-0.26275 6.1858,0.0908 1.76777,0.35355 2.06021,1.06964 4.28442,0.62217 2.22421,-0.44746 3.62116,-0.13189 3.88667,-2.7466 0.26551,-2.6147 1.0831,-3.70506 -0.39775,-6.63844 -1.48085,-2.93339 -1.12281,-3.57593 -4.12663,-5.29605 -3.00382,-1.72012 -4.48156,-2.46866 -6.42611,-2.99899 -1.94454,-0.53033 -4.19085,-0.81242 -5.42829,-0.72403 -1.23743,0.0884 -5.8754,1.00473 -5.8754,1.00473 z"
       id="path67" />
  </g>
</svg>
