<?xml version="1.0" encoding="UTF-8" standalone="no"?>
<!-- Created with Inkscape (http://www.inkscape.org/) -->

<svg
   version="1.1"
   id="svg1"
   width="40.206444"
   height="41.892071"
   viewBox="0 0 40.206443 41.89207"
   sodipodi:docname="cells_crop.svg"
   inkscape:version="1.3.2 (091e20ef0f, 2023-11-25)"
   xmlns:inkscape="http://www.inkscape.org/namespaces/inkscape"
   xmlns:sodipodi="http://sodipodi.sourceforge.net/DTD/sodipodi-0.dtd"
   xmlns="http://www.w3.org/2000/svg"
   xmlns:svg="http://www.w3.org/2000/svg">
  <defs
     id="defs1" />
  <sodipodi:namedview
     id="namedview1"
     pagecolor="#ffffff"
     bordercolor="#000000"
     borderopacity="0.25"
     inkscape:showpageshadow="2"
     inkscape:pageopacity="0.0"
     inkscape:pagecheckerboard="0"
     inkscape:deskcolor="#d1d1d1"
     showguides="true"
     inkscape:zoom="1"
     inkscape:cx="246"
     inkscape:cy="97"
     inkscape:window-width="1920"
     inkscape:window-height="1016"
     inkscape:window-x="0"
     inkscape:window-y="27"
     inkscape:window-maximized="1"
     inkscape:current-layer="g1">
    <sodipodi:guide
       position="-39.129665,645.582"
       orientation="1,0"
       id="guide1"
       inkscape:locked="false" />
    <sodipodi:guide
       position="496.90736,763.27286"
       orientation="0,-1"
       id="guide2"
       inkscape:locked="false" />
    <sodipodi:guide
       position="384.7839,416.8682"
       orientation="0,-1"
       id="guide3"
       inkscape:locked="false" />
    <sodipodi:guide
       position="518.7839,841.8682"
       orientation="1,0"
       id="guide4"
       inkscape:locked="false" />
  </sodipodi:namedview>
  <g
     inkscape:groupmode="layer"
     inkscape:label="Image"
     id="g1"
     transform="translate(-367.2161,-416.8682)">
    <path
       style="fill:#008000;stroke-width:3.09;stroke-linejoin:round"
       d="m 376.88672,424.7013 c -0.59225,0.72518 -7.81382,11.86938 -8.26958,13.23666 -0.45576,1.36729 -1.36728,7.28625 -1.36728,9.1093 0,1.82304 -0.30384,5.92489 0.91152,7.89986 1.21536,1.97496 0.13412,2.75118 6.3587,3.07045 6.22459,0.31927 12.31743,0.59226 15.05199,0.28841 2.73457,-0.30384 1.80406,1.91622 5.9249,-1.36728 4.12084,-3.2835 6.34268,-4.48165 8.35325,-9.57989 2.01057,-5.09823 3.3559,-6.63465 3.50782,-11.15013 0.15192,-4.51548 0.18278,-8.29153 -1.64442,-11.18514 -1.8272,-2.89361 -4.24368,-5.59613 -6.52249,-6.50765 -2.27881,-0.91153 -5.06322,-2.63013 -8.79002,-0.91865 -3.7268,1.71148 -7.21385,2.985 -8.88497,4.20036 -1.67113,1.21537 -4.62942,2.9037 -4.62942,2.9037 z"
       id="path10" />
  </g>
</svg>
