<?xml version="1.0" encoding="UTF-8" standalone="no"?>
<!-- Created with Inkscape (http://www.inkscape.org/) -->

<svg
   version="1.1"
   id="svg1"
   width="45.033081"
   height="25.751812"
   viewBox="0 0 45.033081 25.751812"
   sodipodi:docname="cells_crop.svg"
   inkscape:version="1.3.2 (091e20ef0f, 2023-11-25)"
   xmlns:inkscape="http://www.inkscape.org/namespaces/inkscape"
   xmlns:sodipodi="http://sodipodi.sourceforge.net/DTD/sodipodi-0.dtd"
   xmlns="http://www.w3.org/2000/svg"
   xmlns:svg="http://www.w3.org/2000/svg">
  <defs
     id="defs1" />
  <sodipodi:namedview
     id="namedview1"
     pagecolor="#ffffff"
     bordercolor="#000000"
     borderopacity="0.25"
     inkscape:showpageshadow="2"
     inkscape:pageopacity="0.0"
     inkscape:pagecheckerboard="0"
     inkscape:deskcolor="#d1d1d1"
     showguides="true"
     inkscape:zoom="1"
     inkscape:cx="246"
     inkscape:cy="97"
     inkscape:window-width="1920"
     inkscape:window-height="1016"
     inkscape:window-x="0"
     inkscape:window-y="27"
     inkscape:window-maximized="1"
     inkscape:current-layer="g1">
    <sodipodi:guide
       position="-44.481724,754.90785"
       orientation="1,0"
       id="guide1"
       inkscape:locked="false" />
    <sodipodi:guide
       position="491.5553,872.59871"
       orientation="0,-1"
       id="guide2"
       inkscape:locked="false" />
    <sodipodi:guide
       position="379.43184,526.19405"
       orientation="0,-1"
       id="guide3"
       inkscape:locked="false" />
    <sodipodi:guide
       position="513.43184,951.19405"
       orientation="1,0"
       id="guide4"
       inkscape:locked="false" />
  </sodipodi:namedview>
  <g
     inkscape:groupmode="layer"
     inkscape:label="Image"
     id="g1"
     transform="translate(-372.56816,-526.19406)">
    <path
       style="fill:#008000;stroke-width:3.09;stroke-linejoin:round"
       d="m 391.42895,526.50877 c -0.6605,0.26052 -17.44593,9.34014 -17.90525,13.17079 -0.45932,3.83065 -1.97853,6.12548 0.14836,7.94852 2.12688,1.82305 11.89252,4.7131 13.36544,4.27276 1.47291,-0.44033 17.2394,-1.77319 19.83748,-1.92511 2.59808,-0.15192 5.77951,0.43439 7.14086,-0.62311 1.36135,-1.05751 2.88055,-1.36135 3.18439,-3.48824 0.30384,-2.12689 0.9133,-3.49061 -0.45398,-5.6175 -1.36728,-2.12688 -2.01176,-3.38972 -4.77659,-5.38486 -2.76484,-1.99515 -6.60439,-3.59506 -7.66783,-4.50658 -1.06344,-0.91152 -5.40386,-3.97723 -6.11658,-4.12915 -0.71272,-0.15192 -6.7563,0.28248 -6.7563,0.28248 z"
       id="path14" />
  </g>
</svg>
