<?xml version="1.0" encoding="UTF-8" standalone="no"?>
<!-- Created with Inkscape (http://www.inkscape.org/) -->

<svg
   version="1.1"
   id="svg1"
   width="41.628048"
   height="34.524704"
   viewBox="0 0 41.628048 34.524704"
   sodipodi:docname="cells_crop.svg"
   inkscape:version="1.3.2 (091e20ef0f, 2023-11-25)"
   xmlns:inkscape="http://www.inkscape.org/namespaces/inkscape"
   xmlns:sodipodi="http://sodipodi.sourceforge.net/DTD/sodipodi-0.dtd"
   xmlns="http://www.w3.org/2000/svg"
   xmlns:svg="http://www.w3.org/2000/svg">
  <defs
     id="defs1" />
  <sodipodi:namedview
     id="namedview1"
     pagecolor="#ffffff"
     bordercolor="#000000"
     borderopacity="0.25"
     inkscape:showpageshadow="2"
     inkscape:pageopacity="0.0"
     inkscape:pagecheckerboard="0"
     inkscape:deskcolor="#d1d1d1"
     showguides="true"
     inkscape:zoom="1"
     inkscape:cx="246"
     inkscape:cy="97"
     inkscape:window-width="1920"
     inkscape:window-height="1016"
     inkscape:window-x="0"
     inkscape:window-y="27"
     inkscape:window-maximized="1"
     inkscape:current-layer="g1">
    <sodipodi:guide
       position="-351.78451,771.85704"
       orientation="1,0"
       id="guide1"
       inkscape:locked="false" />
    <sodipodi:guide
       position="184.25252,889.5479"
       orientation="0,-1"
       id="guide2"
       inkscape:locked="false" />
    <sodipodi:guide
       position="72.129058,543.14324"
       orientation="0,-1"
       id="guide3"
       inkscape:locked="false" />
    <sodipodi:guide
       position="206.12906,968.14324"
       orientation="1,0"
       id="guide4"
       inkscape:locked="false" />
  </sodipodi:namedview>
  <g
     inkscape:groupmode="layer"
     inkscape:label="Image"
     id="g1"
     transform="translate(-679.87095,-543.14324)">
    <path
       style="fill:#008000;stroke-width:3.09;stroke-linejoin:round"
       d="m 691.58565,553.02552 c -1.2005,1.38763 -10.43984,8.43867 -10.89766,11.63239 -0.45783,3.19372 -1.81024,5.09545 0.4668,7.90903 2.27703,2.81358 2.75972,5.42173 6.86736,5.06886 4.10764,-0.35286 5.76906,-1.24365 8.70452,-2.5346 2.93546,-1.29095 5.31228,-2.45278 7.46157,-3.38293 2.14928,-0.93015 3.56592,-1.23916 5.01327,-3.0456 1.44736,-1.80643 2.70448,-4.18947 3.94192,-5.4269 1.23743,-1.23744 1.89551,-0.73922 4.16185,-4.65593 2.26633,-3.91671 4.83615,-4.68078 4.0486,-8.63754 -0.78756,-3.95676 -1.52954,-7.14254 -3.76825,-6.78105 -2.23871,0.3615 -7.68702,1.11107 -9.7096,1.92072 -2.02257,0.80966 -7.3238,2.84397 -9.81041,4.1363 -2.48661,1.29234 -6.47997,3.79725 -6.47997,3.79725 z"
       id="path99" />
  </g>
</svg>
