<?xml version="1.0" encoding="UTF-8" standalone="no"?>
<!-- Created with Inkscape (http://www.inkscape.org/) -->

<svg
   version="1.1"
   id="svg1"
   width="31.723654"
   height="50.102562"
   viewBox="0 0 31.723654 50.102562"
   sodipodi:docname="cells_crop.svg"
   inkscape:version="1.3.2 (091e20ef0f, 2023-11-25)"
   xmlns:inkscape="http://www.inkscape.org/namespaces/inkscape"
   xmlns:sodipodi="http://sodipodi.sourceforge.net/DTD/sodipodi-0.dtd"
   xmlns="http://www.w3.org/2000/svg"
   xmlns:svg="http://www.w3.org/2000/svg">
  <defs
     id="defs1" />
  <sodipodi:namedview
     id="namedview1"
     pagecolor="#ffffff"
     bordercolor="#000000"
     borderopacity="0.25"
     inkscape:showpageshadow="2"
     inkscape:pageopacity="0.0"
     inkscape:pagecheckerboard="0"
     inkscape:deskcolor="#d1d1d1"
     showguides="true"
     inkscape:zoom="1"
     inkscape:cx="246"
     inkscape:cy="97"
     inkscape:window-width="1920"
     inkscape:window-height="1016"
     inkscape:window-x="0"
     inkscape:window-y="27"
     inkscape:window-maximized="1"
     inkscape:current-layer="g1">
    <sodipodi:guide
       position="-525.1462,522.18255"
       orientation="1,0"
       id="guide1"
       inkscape:locked="false" />
    <sodipodi:guide
       position="10.890821,639.87341"
       orientation="0,-1"
       id="guide2"
       inkscape:locked="false" />
    <sodipodi:guide
       position="-101.23264,293.46875"
       orientation="0,-1"
       id="guide3"
       inkscape:locked="false" />
    <sodipodi:guide
       position="32.767361,718.46875"
       orientation="1,0"
       id="guide4"
       inkscape:locked="false" />
  </sodipodi:namedview>
  <g
     inkscape:groupmode="layer"
     inkscape:label="Image"
     id="g1"
     transform="translate(-853.23264,-293.46875)">
    <path
       style="fill:#008000;stroke-width:3.09;stroke-linejoin:round"
       d="m 853.31396,295.97607 c 0,2.08838 -0.52051,11.31397 1.07227,16.63916 1.59277,5.3252 4.56201,12.79444 6.63281,16.5083 2.0708,3.71387 3.1709,5.23584 5.60205,7.11719 2.43115,1.88135 6.92578,4.77979 10.47998,5.78955 3.5542,1.00977 7.03321,3.0127 7.69629,-0.24023 0.66309,-3.25293 -0.95459,-34.0791 -1.08789,-37.48731 -0.1333,-3.4082 0.68799,-5.47119 -1.57422,-7.229 -2.26221,-1.75781 -5.14892,-2.95264 -9.14258,-3.08447 -3.99365,-0.13184 -7.76464,-0.52051 -9.51464,-0.52051 -1.75,0 -7.26172,0.5 -7.875,0.75 -0.61329,0.25 -2.28907,1.75732 -2.28907,1.75732 z"
       id="path136" />
  </g>
</svg>
