<?xml version="1.0" encoding="UTF-8" standalone="no"?>
<!-- Created with Inkscape (http://www.inkscape.org/) -->

<svg
   version="1.1"
   id="svg1"
   width="36.359005"
   height="35.137276"
   viewBox="0 0 36.359005 35.137275"
   sodipodi:docname="cells_crop.svg"
   inkscape:version="1.3.2 (091e20ef0f, 2023-11-25)"
   xmlns:inkscape="http://www.inkscape.org/namespaces/inkscape"
   xmlns:sodipodi="http://sodipodi.sourceforge.net/DTD/sodipodi-0.dtd"
   xmlns="http://www.w3.org/2000/svg"
   xmlns:svg="http://www.w3.org/2000/svg">
  <defs
     id="defs1" />
  <sodipodi:namedview
     id="namedview1"
     pagecolor="#ffffff"
     bordercolor="#000000"
     borderopacity="0.25"
     inkscape:showpageshadow="2"
     inkscape:pageopacity="0.0"
     inkscape:pagecheckerboard="0"
     inkscape:deskcolor="#d1d1d1"
     showguides="true"
     inkscape:zoom="1"
     inkscape:cx="246"
     inkscape:cy="97"
     inkscape:window-width="1920"
     inkscape:window-height="1016"
     inkscape:window-x="0"
     inkscape:window-y="27"
     inkscape:window-maximized="1"
     inkscape:current-layer="g1">
    <sodipodi:guide
       position="-83.401945,629.90245"
       orientation="1,0"
       id="guide1"
       inkscape:locked="false" />
    <sodipodi:guide
       position="452.63508,747.59331"
       orientation="0,-1"
       id="guide2"
       inkscape:locked="false" />
    <sodipodi:guide
       position="340.51162,401.18865"
       orientation="0,-1"
       id="guide3"
       inkscape:locked="false" />
    <sodipodi:guide
       position="474.51162,826.18865"
       orientation="1,0"
       id="guide4"
       inkscape:locked="false" />
  </sodipodi:namedview>
  <g
     inkscape:groupmode="layer"
     inkscape:label="Image"
     id="g1"
     transform="translate(-411.48838,-401.18865)">
    <path
       style="fill:#008000;stroke-width:3.09;stroke-linejoin:round"
       d="m 424.1411,401.18865 c 0,0 -12.65272,7.28565 -12.65272,9.8683 0,2.58265 1.17026,8.88794 2.41648,12.18865 1.24622,3.3007 1.26462,5.29763 4.59322,8.32239 3.3286,3.02476 6.21509,4.39204 8.34198,4.69588 2.12688,0.30384 6.73316,-0.53528 8.73602,-1.92096 2.00285,-1.38568 6.53079,-4.65612 8.20963,-7.55389 1.67884,-2.89776 3.59447,-7.29515 3.74639,-11.42845 0.15192,-4.13331 1.13168,-5.81214 -1.37441,-8.15564 -2.50609,-2.34349 -6.87974,-4.60034 -8.70279,-4.75226 -1.82304,-0.15192 -4.28463,-0.15548 -5.64064,-0.15548 -1.356,0 -7.67316,-1.10854 -7.67316,-1.10854 z"
       id="path23" />
  </g>
</svg>
