<?xml version="1.0" encoding="UTF-8" standalone="no"?>
<!-- Created with Inkscape (http://www.inkscape.org/) -->

<svg
   version="1.1"
   id="svg1"
   width="29.382597"
   height="49.43536"
   viewBox="0 0 29.382597 49.43536"
   sodipodi:docname="cells_crop.svg"
   inkscape:version="1.3.2 (091e20ef0f, 2023-11-25)"
   xmlns:inkscape="http://www.inkscape.org/namespaces/inkscape"
   xmlns:sodipodi="http://sodipodi.sourceforge.net/DTD/sodipodi-0.dtd"
   xmlns="http://www.w3.org/2000/svg"
   xmlns:svg="http://www.w3.org/2000/svg">
  <defs
     id="defs1" />
  <sodipodi:namedview
     id="namedview1"
     pagecolor="#ffffff"
     bordercolor="#000000"
     borderopacity="0.25"
     inkscape:showpageshadow="2"
     inkscape:pageopacity="0.0"
     inkscape:pagecheckerboard="0"
     inkscape:deskcolor="#d1d1d1"
     showguides="true"
     inkscape:zoom="1"
     inkscape:cx="246"
     inkscape:cy="97"
     inkscape:window-width="1920"
     inkscape:window-height="1016"
     inkscape:window-x="0"
     inkscape:window-y="27"
     inkscape:window-maximized="1"
     inkscape:current-layer="g1">
    <sodipodi:guide
       position="-147.26312,732.93411"
       orientation="1,0"
       id="guide1"
       inkscape:locked="false" />
    <sodipodi:guide
       position="388.7739,850.62497"
       orientation="0,-1"
       id="guide2"
       inkscape:locked="false" />
    <sodipodi:guide
       position="276.65044,504.22031"
       orientation="0,-1"
       id="guide3"
       inkscape:locked="false" />
    <sodipodi:guide
       position="410.65044,929.22031"
       orientation="1,0"
       id="guide4"
       inkscape:locked="false" />
  </sodipodi:namedview>
  <g
     inkscape:groupmode="layer"
     inkscape:label="Image"
     id="g1"
     transform="translate(-475.34956,-504.22031)">
    <path
       style="fill:#008000;stroke-width:3.09;stroke-linejoin:round"
       d="m 475.34956,511.13869 c 0,0 0.15311,33.4587 0.91271,35.73157 0.7596,2.27287 1.36728,3.33632 2.88649,4.55168 1.5192,1.21536 2.60045,2.63784 5.77297,2.12688 3.17253,-0.51095 6.76758,-2.89004 9.35023,-4.40925 2.58265,-1.5192 4.39264,-1.45571 6.08928,-5.02346 1.69664,-3.56776 3.23484,-5.77238 3.54224,-11.0629 0.3074,-5.29051 1.8818,-9.8766 -0.33707,-14.13809 -2.21887,-4.26149 -2.62953,-6.85007 -6.61922,-9.21671 -3.9897,-2.36663 -9.99767,-4.47571 -12.58032,-4.77956 -2.58265,-0.30384 -5.89523,-1.21536 -7.11059,-0.30384 -1.21536,0.91153 -1.90672,6.52368 -1.90672,6.52368 z"
       id="path25" />
  </g>
</svg>
