<?xml version="1.0" encoding="UTF-8" standalone="no"?>
<!-- Created with Inkscape (http://www.inkscape.org/) -->

<svg
   version="1.1"
   id="svg1"
   width="28.485823"
   height="26.905939"
   viewBox="0 0 28.485822 26.905939"
   sodipodi:docname="cells_crop.svg"
   inkscape:version="1.3.2 (091e20ef0f, 2023-11-25)"
   xmlns:inkscape="http://www.inkscape.org/namespaces/inkscape"
   xmlns:sodipodi="http://sodipodi.sourceforge.net/DTD/sodipodi-0.dtd"
   xmlns="http://www.w3.org/2000/svg"
   xmlns:svg="http://www.w3.org/2000/svg">
  <defs
     id="defs1" />
  <sodipodi:namedview
     id="namedview1"
     pagecolor="#ffffff"
     bordercolor="#000000"
     borderopacity="0.25"
     inkscape:showpageshadow="2"
     inkscape:pageopacity="0.0"
     inkscape:pagecheckerboard="0"
     inkscape:deskcolor="#d1d1d1"
     showguides="true"
     inkscape:zoom="1"
     inkscape:cx="246"
     inkscape:cy="97"
     inkscape:window-width="1920"
     inkscape:window-height="1016"
     inkscape:window-x="0"
     inkscape:window-y="27"
     inkscape:window-maximized="1"
     inkscape:current-layer="g1">
    <sodipodi:guide
       position="-60.186005,781.3155"
       orientation="1,0"
       id="guide1"
       inkscape:locked="false" />
    <sodipodi:guide
       position="475.85102,899.00636"
       orientation="0,-1"
       id="guide2"
       inkscape:locked="false" />
    <sodipodi:guide
       position="363.72756,552.6017"
       orientation="0,-1"
       id="guide3"
       inkscape:locked="false" />
    <sodipodi:guide
       position="497.72756,977.6017"
       orientation="1,0"
       id="guide4"
       inkscape:locked="false" />
  </sodipodi:namedview>
  <g
     inkscape:groupmode="layer"
     inkscape:label="Image"
     id="g1"
     transform="translate(-388.27244,-552.6017)">
    <path
       style="fill:#008000;stroke-width:3.09;stroke-linejoin:round"
       d="m 388.27244,555.28107 c 0.74299,1.79041 2.97847,6.87856 3.89652,10.08788 0.91805,3.20932 6.98538,14.13869 6.98538,14.13869 0,0 6.78538,-0.13293 8.4749,-1.67113 1.68952,-1.53819 5.22642,-4.49055 6.59964,-7.38594 1.37322,-2.89539 2.90311,-4.76532 2.44734,-7.49989 -0.45576,-2.73457 -0.46169,-4.11906 -1.82898,-5.9421 -1.36728,-1.82305 -2.77136,-3.49596 -3.79801,-3.79802 -1.02665,-0.30206 -12.45154,-0.60886 -12.45154,-0.60886 0,0 -3.35056,0 -4.41044,0.30384 -1.05988,0.30384 -3.64253,0.91152 -3.64253,0.91152 z"
       id="path19" />
  </g>
</svg>
