<?xml version="1.0" encoding="UTF-8" standalone="no"?>
<!-- Created with Inkscape (http://www.inkscape.org/) -->

<svg
   version="1.1"
   id="svg1"
   width="12.06934"
   height="27.796638"
   viewBox="0 0 12.06934 27.796638"
   sodipodi:docname="cells_crop.svg"
   inkscape:version="1.3.2 (091e20ef0f, 2023-11-25)"
   xmlns:inkscape="http://www.inkscape.org/namespaces/inkscape"
   xmlns:sodipodi="http://sodipodi.sourceforge.net/DTD/sodipodi-0.dtd"
   xmlns="http://www.w3.org/2000/svg"
   xmlns:svg="http://www.w3.org/2000/svg">
  <defs
     id="defs1" />
  <sodipodi:namedview
     id="namedview1"
     pagecolor="#ffffff"
     bordercolor="#000000"
     borderopacity="0.25"
     inkscape:showpageshadow="2"
     inkscape:pageopacity="0.0"
     inkscape:pagecheckerboard="0"
     inkscape:deskcolor="#d1d1d1"
     showguides="true"
     inkscape:zoom="1"
     inkscape:cx="246"
     inkscape:cy="97"
     inkscape:window-width="1920"
     inkscape:window-height="1016"
     inkscape:window-x="0"
     inkscape:window-y="27"
     inkscape:window-maximized="1"
     inkscape:current-layer="g1">
    <sodipodi:guide
       position="-545.32371,721.27337"
       orientation="1,0"
       id="guide1"
       inkscape:locked="false" />
    <sodipodi:guide
       position="-9.2866855,838.96423"
       orientation="0,-1"
       id="guide2"
       inkscape:locked="false" />
    <sodipodi:guide
       position="-121.41015,492.55957"
       orientation="0,-1"
       id="guide3"
       inkscape:locked="false" />
    <sodipodi:guide
       position="12.589854,917.55957"
       orientation="1,0"
       id="guide4"
       inkscape:locked="false" />
  </sodipodi:namedview>
  <g
     inkscape:groupmode="layer"
     inkscape:label="Image"
     id="g1"
     transform="translate(-873.41015,-492.55957)">
    <path
       style="fill:#008000;stroke-width:3.09;stroke-linejoin:round"
       d="m 873.41015,504.87549 c 0,0 1.44043,4.55664 3.07618,7.69677 1.63574,3.14014 2.96923,5.51075 4.09423,6.51075 1.125,1 1.72071,1.375 2.37305,1.25 0.65234,-0.125 2.52588,-1.87793 2.52588,-3.49512 0,-1.61719 -0.625,-10.48535 -0.625,-10.48535 0,0 0.37207,-5.8794 0.37207,-6.73682 0,-0.85742 0,-2.48242 0,-3.73242 0,-1.25 -0.125,-2.61768 -0.125,-2.61768 l -0.8501,-0.70605 -2.76758,2.67187 -1.67236,1.90772 -3.84131,2.60254 c 0,0 -0.98535,0.37451 -1.33252,1.08887 -0.34716,0.71435 -1.15332,3.53466 -1.15332,3.53466 z"
       id="path127" />
  </g>
</svg>
