<?xml version="1.0" encoding="UTF-8" standalone="no"?>
<!-- Created with Inkscape (http://www.inkscape.org/) -->

<svg
   version="1.1"
   id="svg1"
   width="29.008429"
   height="35.35968"
   viewBox="0 0 29.008428 35.35968"
   sodipodi:docname="cells_crop.svg"
   inkscape:version="1.3.2 (091e20ef0f, 2023-11-25)"
   xmlns:inkscape="http://www.inkscape.org/namespaces/inkscape"
   xmlns:sodipodi="http://sodipodi.sourceforge.net/DTD/sodipodi-0.dtd"
   xmlns="http://www.w3.org/2000/svg"
   xmlns:svg="http://www.w3.org/2000/svg">
  <defs
     id="defs1" />
  <sodipodi:namedview
     id="namedview1"
     pagecolor="#ffffff"
     bordercolor="#000000"
     borderopacity="0.25"
     inkscape:showpageshadow="2"
     inkscape:pageopacity="0.0"
     inkscape:pagecheckerboard="0"
     inkscape:deskcolor="#d1d1d1"
     showguides="true"
     inkscape:zoom="1"
     inkscape:cx="246"
     inkscape:cy="97"
     inkscape:window-width="1920"
     inkscape:window-height="1016"
     inkscape:window-x="0"
     inkscape:window-y="27"
     inkscape:window-maximized="1"
     inkscape:current-layer="g1">
    <sodipodi:guide
       position="-191.52176,591.66357"
       orientation="1,0"
       id="guide1"
       inkscape:locked="false" />
    <sodipodi:guide
       position="344.51526,709.35443"
       orientation="0,-1"
       id="guide2"
       inkscape:locked="false" />
    <sodipodi:guide
       position="232.3918,362.94977"
       orientation="0,-1"
       id="guide3"
       inkscape:locked="false" />
    <sodipodi:guide
       position="366.3918,787.94977"
       orientation="1,0"
       id="guide4"
       inkscape:locked="false" />
  </sodipodi:namedview>
  <g
     inkscape:groupmode="layer"
     inkscape:label="Image"
     id="g1"
     transform="translate(-519.6082,-362.94977)">
    <path
       style="fill:#008000;stroke-width:3.09;stroke-linejoin:round"
       d="m 538.15349,363.51641 c 0,0 -10.76577,-1.18702 -12.53595,-0.12498 -1.77019,1.06204 -4.80163,3.03386 -5.43658,5.51874 -0.63494,2.48489 -0.88285,5.95655 10e-4,7.19399 0.88388,1.23743 3.20131,3.67709 5.52772,6.58148 2.32641,2.90438 7.10422,9.22864 7.5465,10.82032 0.44229,1.59168 -0.15364,3.67364 1.88758,4.38247 2.04122,0.70884 4.98738,0.68329 6.73616,-1.34447 1.74877,-2.02775 2.63058,-0.92082 3.98576,-6.20962 1.35517,-5.2888 2.26944,-7.1308 2.45726,-10.28447 0.18783,-3.15367 0.66982,-3.18233 -0.25619,-5.77287 -0.926,-2.59053 -1.34308,-3.95468 -2.23836,-5.38685 -0.89528,-1.43217 -2.40617,-2.94237 -3.20166,-3.64947 -0.7955,-0.70711 -4.47328,-1.72427 -4.47328,-1.72427 z"
       id="path78" />
  </g>
</svg>
