<?xml version="1.0" encoding="UTF-8" standalone="no"?>
<!-- Created with Inkscape (http://www.inkscape.org/) -->

<svg
   version="1.1"
   id="svg1"
   width="30.634991"
   height="28.164114"
   viewBox="0 0 30.63499 28.164114"
   sodipodi:docname="cells_crop.svg"
   inkscape:version="1.3.2 (091e20ef0f, 2023-11-25)"
   xmlns:inkscape="http://www.inkscape.org/namespaces/inkscape"
   xmlns:sodipodi="http://sodipodi.sourceforge.net/DTD/sodipodi-0.dtd"
   xmlns="http://www.w3.org/2000/svg"
   xmlns:svg="http://www.w3.org/2000/svg">
  <defs
     id="defs1" />
  <sodipodi:namedview
     id="namedview1"
     pagecolor="#ffffff"
     bordercolor="#000000"
     borderopacity="0.25"
     inkscape:showpageshadow="2"
     inkscape:pageopacity="0.0"
     inkscape:pagecheckerboard="0"
     inkscape:deskcolor="#d1d1d1"
     showguides="true"
     inkscape:zoom="1"
     inkscape:cx="246"
     inkscape:cy="97"
     inkscape:window-width="1920"
     inkscape:window-height="1016"
     inkscape:window-x="0"
     inkscape:window-y="27"
     inkscape:window-maximized="1"
     inkscape:current-layer="g1">
    <sodipodi:guide
       position="-269.06255,498.25823"
       orientation="1,0"
       id="guide1"
       inkscape:locked="false" />
    <sodipodi:guide
       position="266.97448,615.94909"
       orientation="0,-1"
       id="guide2"
       inkscape:locked="false" />
    <sodipodi:guide
       position="154.85102,269.54443"
       orientation="0,-1"
       id="guide3"
       inkscape:locked="false" />
    <sodipodi:guide
       position="288.85102,694.54443"
       orientation="1,0"
       id="guide4"
       inkscape:locked="false" />
  </sodipodi:namedview>
  <g
     inkscape:groupmode="layer"
     inkscape:label="Image"
     id="g1"
     transform="translate(-597.14898,-269.54443)">
    <path
       style="fill:#008000;stroke-width:3.09;stroke-linejoin:round"
       d="m 597.59228,283.73975 c 1.64502,1.8955 9.22071,10.19433 10.34571,11.31933 1.125,1.125 10.73437,3.39844 12.34716,2.40381 1.6128,-0.99463 5.03614,-2.59326 5.53614,-4.34375 0.5,-1.75049 1.03906,-4.11719 1.42578,-7.32324 0.38672,-3.20606 1.10937,-4.70557 -0.27393,-7.34668 -1.3833,-2.64112 -2.96045,-4.88672 -4.83886,-6.26416 -1.87842,-1.37744 -4.65625,-2.64063 -5.90625,-2.64063 -1.25,0 -5.59668,0.65088 -7.22168,0.90088 -1.625,0.25 -4.75049,0.39502 -5.75049,1.27002 -1,0.875 -2.5,1.875 -3.5,3 -1,1.125 -1.75,1.125 -2.375,3.375 -0.625,2.25 0.21142,5.64942 0.21142,5.64942 z"
       id="path59" />
  </g>
</svg>
