<?xml version="1.0" encoding="UTF-8" standalone="no"?>
<!-- Created with Inkscape (http://www.inkscape.org/) -->

<svg
   version="1.1"
   id="svg1"
   width="32.088203"
   height="21.167967"
   viewBox="0 0 32.088203 21.167967"
   sodipodi:docname="cells_crop.svg"
   inkscape:version="1.3.2 (091e20ef0f, 2023-11-25)"
   xmlns:inkscape="http://www.inkscape.org/namespaces/inkscape"
   xmlns:sodipodi="http://sodipodi.sourceforge.net/DTD/sodipodi-0.dtd"
   xmlns="http://www.w3.org/2000/svg"
   xmlns:svg="http://www.w3.org/2000/svg">
  <defs
     id="defs1" />
  <sodipodi:namedview
     id="namedview1"
     pagecolor="#ffffff"
     bordercolor="#000000"
     borderopacity="0.25"
     inkscape:showpageshadow="2"
     inkscape:pageopacity="0.0"
     inkscape:pagecheckerboard="0"
     inkscape:deskcolor="#d1d1d1"
     showguides="true"
     inkscape:zoom="1"
     inkscape:cx="246"
     inkscape:cy="97"
     inkscape:window-width="1920"
     inkscape:window-height="1016"
     inkscape:window-x="0"
     inkscape:window-y="27"
     inkscape:window-maximized="1"
     inkscape:current-layer="g1">
    <sodipodi:guide
       position="-355.39246,754.53433"
       orientation="1,0"
       id="guide1"
       inkscape:locked="false" />
    <sodipodi:guide
       position="180.64457,872.22519"
       orientation="0,-1"
       id="guide2"
       inkscape:locked="false" />
    <sodipodi:guide
       position="68.521106,525.82053"
       orientation="0,-1"
       id="guide3"
       inkscape:locked="false" />
    <sodipodi:guide
       position="202.52111,950.82053"
       orientation="1,0"
       id="guide4"
       inkscape:locked="false" />
  </sodipodi:namedview>
  <g
     inkscape:groupmode="layer"
     inkscape:label="Image"
     id="g1"
     transform="translate(-683.4789,-525.82053)">
    <path
       style="fill:#008000;stroke-width:3.09;stroke-linejoin:round"
       d="m 696.42215,526.16651 c -1.6559,1.05617 -10.8331,5.32471 -12.1206,9.5891 -1.2875,4.26439 -0.99057,7.2872 0.38187,8.84367 1.37243,1.55646 1.77778,2.55359 4.70806,2.3668 2.93028,-0.18679 6.15093,-1.33791 7.38836,-1.33791 1.23744,0 4.75502,-0.71712 6.4344,-0.89389 1.67938,-0.17678 4.36003,-1.03891 6.32391,-1.56924 1.96388,-0.53033 3.24137,0.16987 4.30548,-1.42664 1.06411,-1.59652 2.28808,-2.39478 1.43976,-5.38341 -0.84832,-2.98863 -2.05019,-5.555 -3.88391,-7.01686 -1.83371,-1.46186 -2.65544,-2.63749 -4.97564,-3.26173 -2.32019,-0.62425 -10.00169,0.0901 -10.00169,0.0901 z"
       id="path101" />
  </g>
</svg>
