<?xml version="1.0" encoding="UTF-8" standalone="no"?>
<!-- Created with Inkscape (http://www.inkscape.org/) -->

<svg
   version="1.1"
   id="svg1"
   width="51.458195"
   height="49.822178"
   viewBox="0 0 51.458194 49.822177"
   sodipodi:docname="cells_crop.svg"
   inkscape:version="1.3.2 (091e20ef0f, 2023-11-25)"
   xmlns:inkscape="http://www.inkscape.org/namespaces/inkscape"
   xmlns:sodipodi="http://sodipodi.sourceforge.net/DTD/sodipodi-0.dtd"
   xmlns="http://www.w3.org/2000/svg"
   xmlns:svg="http://www.w3.org/2000/svg">
  <defs
     id="defs1" />
  <sodipodi:namedview
     id="namedview1"
     pagecolor="#ffffff"
     bordercolor="#000000"
     borderopacity="0.25"
     inkscape:showpageshadow="2"
     inkscape:pageopacity="0.0"
     inkscape:pagecheckerboard="0"
     inkscape:deskcolor="#d1d1d1"
     showguides="true"
     inkscape:zoom="1"
     inkscape:cx="246"
     inkscape:cy="97"
     inkscape:window-width="1920"
     inkscape:window-height="1016"
     inkscape:window-x="0"
     inkscape:window-y="27"
     inkscape:window-maximized="1"
     inkscape:current-layer="g1">
    <sodipodi:guide
       position="-307.78561,624.91417"
       orientation="1,0"
       id="guide1"
       inkscape:locked="false" />
    <sodipodi:guide
       position="228.25141,742.60503"
       orientation="0,-1"
       id="guide2"
       inkscape:locked="false" />
    <sodipodi:guide
       position="116.12795,396.20037"
       orientation="0,-1"
       id="guide3"
       inkscape:locked="false" />
    <sodipodi:guide
       position="250.12795,821.20037"
       orientation="1,0"
       id="guide4"
       inkscape:locked="false" />
  </sodipodi:namedview>
  <g
     inkscape:groupmode="layer"
     inkscape:label="Image"
     id="g1"
     transform="translate(-635.87205,-396.20037)">
    <path
       style="fill:#008000;stroke-width:3.09;stroke-linejoin:round"
       d="m 643.91992,400.96045 c -0.82031,1.3667 -8.06201,11.67138 -8.04785,16.33203 0.0142,4.66064 1.80322,11.35693 4.85742,15.23779 3.0542,3.88086 16.40527,12.75537 17.90186,13.00537 1.49658,0.25 4.51562,1.13868 7.29101,-0.375 2.77539,-1.51367 6.17334,-3.32812 9.11817,-5.39306 2.94482,-2.06494 6.26269,-4.17969 8.53369,-8.62549 2.27099,-4.4458 3.87988,-9.03906 3.74853,-12.43164 -0.13135,-3.39258 0.38574,-6.2832 -2.41699,-9.74463 -2.80273,-3.46143 -5.47314,-6.59229 -8.00391,-7.60156 -2.53076,-1.00928 -10.79834,-2.83106 -12.54541,-3.08106 -1.74707,-0.25 -7.33789,-1.18847 -8.21289,-1.43847 -0.875,-0.25 -2.88086,-0.74854 -3.75,-0.625 -0.86914,0.12353 -5.60742,2.49267 -5.60742,2.49267 z"
       id="path64" />
  </g>
</svg>
