<?xml version="1.0" encoding="UTF-8" standalone="no"?>
<!-- Created with Inkscape (http://www.inkscape.org/) -->

<svg
   version="1.1"
   id="svg1"
   width="19.45961"
   height="46.97081"
   viewBox="0 0 19.45961 46.97081"
   sodipodi:docname="cells_crop.svg"
   inkscape:version="1.3.2 (091e20ef0f, 2023-11-25)"
   xmlns:inkscape="http://www.inkscape.org/namespaces/inkscape"
   xmlns:sodipodi="http://sodipodi.sourceforge.net/DTD/sodipodi-0.dtd"
   xmlns="http://www.w3.org/2000/svg"
   xmlns:svg="http://www.w3.org/2000/svg">
  <defs
     id="defs1" />
  <sodipodi:namedview
     id="namedview1"
     pagecolor="#ffffff"
     bordercolor="#000000"
     borderopacity="0.25"
     inkscape:showpageshadow="2"
     inkscape:pageopacity="0.0"
     inkscape:pagecheckerboard="0"
     inkscape:deskcolor="#d1d1d1"
     showguides="true"
     inkscape:zoom="1"
     inkscape:cx="246"
     inkscape:cy="97"
     inkscape:window-width="1920"
     inkscape:window-height="1016"
     inkscape:window-x="0"
     inkscape:window-y="27"
     inkscape:window-maximized="1"
     inkscape:current-layer="g1">
    <sodipodi:guide
       position="-228.84272,602.89862"
       orientation="1,0"
       id="guide1"
       inkscape:locked="false" />
    <sodipodi:guide
       position="307.19431,720.58948"
       orientation="0,-1"
       id="guide2"
       inkscape:locked="false" />
    <sodipodi:guide
       position="195.07085,374.18482"
       orientation="0,-1"
       id="guide3"
       inkscape:locked="false" />
    <sodipodi:guide
       position="329.07085,799.18482"
       orientation="1,0"
       id="guide4"
       inkscape:locked="false" />
  </sodipodi:namedview>
  <g
     inkscape:groupmode="layer"
     inkscape:label="Image"
     id="g1"
     transform="translate(-556.92915,-374.18482)">
    <path
       style="fill:#008000;stroke-width:3.09;stroke-linejoin:round"
       d="m 565.75897,375.0138 c 0,0 8.43832,9.43719 9.23382,10.67462 0.79549,1.23744 1.32582,6.89429 1.32582,7.77818 0,0.88388 -0.53033,6.8898 -0.53033,7.86207 0,0.97227 0.26965,4.9829 0.35804,6.39711 0.0884,1.41421 0.44194,2.12132 0.0884,3.97747 -0.35355,1.85616 -0.70711,3.0936 -1.76777,4.33103 -1.06066,1.23744 -5.02846,4.32793 -5.99866,4.68044 -0.9702,0.35252 -2.45036,0.44091 -2.45036,0.44091 0,0 -1.63933,-2.04226 -1.80782,-2.44104 -0.16849,-0.39878 -1.07309,-5.08336 -1.31409,-5.50424 -0.24099,-0.42089 -3.32423,-4.93111 -3.75478,-5.60818 -0.43054,-0.67706 -0.87249,-0.059 -1.40282,-2.44552 -0.53033,-2.38649 -0.80205,-4.97599 -0.80205,-6.48584 0,-1.50986 -0.0884,-3.6619 0.35355,-5.16451 0.44194,-1.5026 3.89012,-5.94791 4.06552,-6.53901 0.1754,-0.59109 0.7955,-4.04756 0.88388,-4.92937 0.0884,-0.88182 0.17678,-2.03294 0.17678,-2.82636 0,-0.79342 0.0884,-1.76121 0.26517,-2.46624 0.17677,-0.70504 0.2914,-1.42043 0.60456,-1.82819 0.31316,-0.40776 1.4149,-0.73231 1.4149,-0.73231 z"
       id="path81" />
  </g>
</svg>
