<?xml version="1.0" encoding="UTF-8" standalone="no"?>
<!-- Created with Inkscape (http://www.inkscape.org/) -->

<svg
   version="1.1"
   id="svg1"
   width="29.918034"
   height="40.631725"
   viewBox="0 0 29.918033 40.631725"
   sodipodi:docname="cells_crop.svg"
   inkscape:version="1.3.2 (091e20ef0f, 2023-11-25)"
   xmlns:inkscape="http://www.inkscape.org/namespaces/inkscape"
   xmlns:sodipodi="http://sodipodi.sourceforge.net/DTD/sodipodi-0.dtd"
   xmlns="http://www.w3.org/2000/svg"
   xmlns:svg="http://www.w3.org/2000/svg">
  <defs
     id="defs1" />
  <sodipodi:namedview
     id="namedview1"
     pagecolor="#ffffff"
     bordercolor="#000000"
     borderopacity="0.25"
     inkscape:showpageshadow="2"
     inkscape:pageopacity="0.0"
     inkscape:pagecheckerboard="0"
     inkscape:deskcolor="#d1d1d1"
     showguides="true"
     inkscape:zoom="1"
     inkscape:cx="246"
     inkscape:cy="97"
     inkscape:window-width="1920"
     inkscape:window-height="1016"
     inkscape:window-x="0"
     inkscape:window-y="27"
     inkscape:window-maximized="1"
     inkscape:current-layer="g1">
    <sodipodi:guide
       position="-31.94366,609.09075"
       orientation="1,0"
       id="guide1"
       inkscape:locked="false" />
    <sodipodi:guide
       position="504.09337,726.78161"
       orientation="0,-1"
       id="guide2"
       inkscape:locked="false" />
    <sodipodi:guide
       position="391.96991,380.37695"
       orientation="0,-1"
       id="guide3"
       inkscape:locked="false" />
    <sodipodi:guide
       position="525.96991,805.37695"
       orientation="1,0"
       id="guide4"
       inkscape:locked="false" />
  </sodipodi:namedview>
  <g
     inkscape:groupmode="layer"
     inkscape:label="Image"
     id="g1"
     transform="translate(-360.03009,-380.37695)">
    <path
       style="fill:#008000;stroke-width:3.09;stroke-linejoin:round"
       d="m 362.49166,387.21493 c -0.15963,1.31922 -2.23726,10.21072 -2.23726,14.02594 0,3.81522 -0.9139,5.70889 0.94772,10.28489 1.86162,4.57601 -1.51564,5.31663 5.42997,7.04472 6.94561,1.7281 10.20775,3.64491 13.47047,1.46046 3.26273,-2.18445 4.77897,-2.7589 6.45306,-4.89054 1.67409,-2.13163 3.53571,-2.77136 3.38379,-6.29164 -0.15192,-3.52028 0.181,-4.42706 -1.10083,-8.77875 -1.28183,-4.35169 -2.98322,-7.69275 -5.22404,-11.69134 -2.24083,-3.9986 -2.51559,-6.27978 -4.49056,-7.03938 -1.97496,-0.7596 -5.27033,-1.37737 -7.72064,-0.61124 -2.45031,0.76613 -4.90418,1.69011 -5.96584,2.9037 -1.06167,1.21358 -2.94584,3.58318 -2.94584,3.58318 z"
       id="path4" />
  </g>
</svg>
