<?xml version="1.0" encoding="UTF-8" standalone="no"?>
<!-- Created with Inkscape (http://www.inkscape.org/) -->

<svg
   version="1.1"
   id="svg1"
   width="13.89722"
   height="18.885494"
   viewBox="0 0 13.89722 18.885494"
   sodipodi:docname="cells_crop.svg"
   inkscape:version="1.3.2 (091e20ef0f, 2023-11-25)"
   xmlns:inkscape="http://www.inkscape.org/namespaces/inkscape"
   xmlns:sodipodi="http://sodipodi.sourceforge.net/DTD/sodipodi-0.dtd"
   xmlns="http://www.w3.org/2000/svg"
   xmlns:svg="http://www.w3.org/2000/svg">
  <defs
     id="defs1" />
  <sodipodi:namedview
     id="namedview1"
     pagecolor="#ffffff"
     bordercolor="#000000"
     borderopacity="0.25"
     inkscape:showpageshadow="2"
     inkscape:pageopacity="0.0"
     inkscape:pagecheckerboard="0"
     inkscape:deskcolor="#d1d1d1"
     showguides="true"
     inkscape:zoom="1"
     inkscape:cx="246"
     inkscape:cy="97"
     inkscape:window-width="1920"
     inkscape:window-height="1016"
     inkscape:window-x="0"
     inkscape:window-y="27"
     inkscape:window-maximized="1"
     inkscape:current-layer="g1">
    <sodipodi:guide
       position="-124.13101,498.17381"
       orientation="1,0"
       id="guide1"
       inkscape:locked="false" />
    <sodipodi:guide
       position="411.90601,615.86467"
       orientation="0,-1"
       id="guide2"
       inkscape:locked="false" />
    <sodipodi:guide
       position="299.78255,269.46001"
       orientation="0,-1"
       id="guide3"
       inkscape:locked="false" />
    <sodipodi:guide
       position="433.78255,694.46001"
       orientation="1,0"
       id="guide4"
       inkscape:locked="false" />
  </sodipodi:namedview>
  <g
     inkscape:groupmode="layer"
     inkscape:label="Image"
     id="g1"
     transform="translate(-452.21745,-269.46001)">
    <path
       style="fill:#008000;stroke-width:3.09;stroke-linejoin:round"
       d="m 452.21745,271.1219 c 0,0.55175 0.24153,5.23711 0.49582,6.78865 0.25428,1.55155 -0.63795,2.47553 0.79135,4.86813 1.4293,2.3926 2.03549,3.81641 3.70157,4.63684 1.66608,0.82043 3.11126,1.31447 4.37143,0.54938 1.26016,-0.7651 1.84515,-1.39963 2.50253,-2.09529 0.65738,-0.69566 1.16388,-0.34197 1.36995,-2.87432 0.20607,-2.53236 0.34969,-3.28039 0.48484,-5.27301 0.13516,-1.99262 0.45309,-3.0755 -0.32698,-4.25065 -0.78008,-1.17516 -1.46565,-1.97512 -2.69169,-2.48533 -1.22605,-0.51021 -3.02061,-1.08629 -4.00127,-1.23999 -0.98066,-0.1537 -2.13133,-0.24464 -3.00488,-0.28262 -0.87354,-0.038 -1.5198,0.22862 -1.70821,0.34137 -0.18842,0.11276 -1.98446,1.31684 -1.98446,1.31684 z"
       id="path39" />
  </g>
</svg>
