<?xml version="1.0" encoding="UTF-8" standalone="no"?>
<!-- Created with Inkscape (http://www.inkscape.org/) -->

<svg
   version="1.1"
   id="svg1"
   width="29.629814"
   height="40.809025"
   viewBox="0 0 29.629814 40.809024"
   sodipodi:docname="cells_crop.svg"
   inkscape:version="1.3.2 (091e20ef0f, 2023-11-25)"
   xmlns:inkscape="http://www.inkscape.org/namespaces/inkscape"
   xmlns:sodipodi="http://sodipodi.sourceforge.net/DTD/sodipodi-0.dtd"
   xmlns="http://www.w3.org/2000/svg"
   xmlns:svg="http://www.w3.org/2000/svg">
  <defs
     id="defs1" />
  <sodipodi:namedview
     id="namedview1"
     pagecolor="#ffffff"
     bordercolor="#000000"
     borderopacity="0.25"
     inkscape:showpageshadow="2"
     inkscape:pageopacity="0.0"
     inkscape:pagecheckerboard="0"
     inkscape:deskcolor="#d1d1d1"
     showguides="true"
     inkscape:zoom="1"
     inkscape:cx="246"
     inkscape:cy="97"
     inkscape:window-width="1920"
     inkscape:window-height="1016"
     inkscape:window-x="0"
     inkscape:window-y="27"
     inkscape:window-maximized="1"
     inkscape:current-layer="g1">
    <sodipodi:guide
       position="-223.62589,789.68053"
       orientation="1,0"
       id="guide1"
       inkscape:locked="false" />
    <sodipodi:guide
       position="312.41114,907.37139"
       orientation="0,-1"
       id="guide2"
       inkscape:locked="false" />
    <sodipodi:guide
       position="200.28768,560.96673"
       orientation="0,-1"
       id="guide3"
       inkscape:locked="false" />
    <sodipodi:guide
       position="334.28768,985.96673"
       orientation="1,0"
       id="guide4"
       inkscape:locked="false" />
  </sodipodi:namedview>
  <g
     inkscape:groupmode="layer"
     inkscape:label="Image"
     id="g1"
     transform="translate(-551.71233,-560.96673)">
    <path
       style="fill:#008000;stroke-width:3.09;stroke-linejoin:round"
       d="m 552.61475,588.75579 c -0.30384,2.27881 -1.67468,4.85552 -0.30384,7.59602 1.37085,2.74051 1.88773,5.99255 4.88104,5.33918 2.99331,-0.65338 4.26386,0.0896 7.17527,-2.67048 2.91141,-2.76008 4.0615,-3.76062 6.65127,-6.95926 2.58977,-3.19864 3.79979,-2.73219 5.7801,-5.62936 1.9803,-2.89718 3.29596,-3.41169 3.78792,-9.26596 0.49196,-5.85428 1.55896,-8.65472 -0.28841,-11.27179 -1.84738,-2.61707 -3.65618,-5.45193 -5.15284,-4.84424 -1.49665,0.60768 -3.77546,1.36728 -4.99082,3.19033 -1.21536,1.82304 -1.67112,1.36728 -2.58265,4.25377 -0.91152,2.88649 -0.60768,2.58265 -1.82304,5.46913 -1.21537,2.88649 -1.67113,3.64609 -3.03841,5.46914 -1.36728,1.82304 -2.43488,3.04375 -3.64609,4.40569 -1.21121,1.36195 -6.4495,4.91783 -6.4495,4.91783 z"
       id="path34" />
  </g>
</svg>
