<?xml version="1.0" encoding="UTF-8" standalone="no"?>
<!-- Created with Inkscape (http://www.inkscape.org/) -->

<svg
   version="1.1"
   id="svg1"
   width="26.974602"
   height="19.28063"
   viewBox="0 0 26.974602 19.28063"
   sodipodi:docname="cells_crop.svg"
   inkscape:version="1.3.2 (091e20ef0f, 2023-11-25)"
   xmlns:inkscape="http://www.inkscape.org/namespaces/inkscape"
   xmlns:sodipodi="http://sodipodi.sourceforge.net/DTD/sodipodi-0.dtd"
   xmlns="http://www.w3.org/2000/svg"
   xmlns:svg="http://www.w3.org/2000/svg">
  <defs
     id="defs1" />
  <sodipodi:namedview
     id="namedview1"
     pagecolor="#ffffff"
     bordercolor="#000000"
     borderopacity="0.25"
     inkscape:showpageshadow="2"
     inkscape:pageopacity="0.0"
     inkscape:pagecheckerboard="0"
     inkscape:deskcolor="#d1d1d1"
     showguides="true"
     inkscape:zoom="1"
     inkscape:cx="246"
     inkscape:cy="97"
     inkscape:window-width="1920"
     inkscape:window-height="1016"
     inkscape:window-x="0"
     inkscape:window-y="27"
     inkscape:window-maximized="1"
     inkscape:current-layer="g1">
    <sodipodi:guide
       position="-228.23887,772.05553"
       orientation="1,0"
       id="guide1"
       inkscape:locked="false" />
    <sodipodi:guide
       position="307.79815,889.74639"
       orientation="0,-1"
       id="guide2"
       inkscape:locked="false" />
    <sodipodi:guide
       position="195.67469,543.34173"
       orientation="0,-1"
       id="guide3"
       inkscape:locked="false" />
    <sodipodi:guide
       position="329.67469,968.34173"
       orientation="1,0"
       id="guide4"
       inkscape:locked="false" />
  </sodipodi:namedview>
  <g
     inkscape:groupmode="layer"
     inkscape:label="Image"
     id="g1"
     transform="translate(-556.32531,-543.34173)">
    <path
       style="fill:#008000;stroke-width:3.09;stroke-linejoin:round"
       d="m 568.82235,544.55129 c 0,0 -10.97811,1.7593 -11.37828,2.15895 -0.40016,0.39965 -1.23726,8.00312 -1.10468,8.31248 0.13258,0.30936 2.62714,2.18882 3.79949,3.35685 1.17236,1.16804 2.59572,1.90484 3.40054,2.84449 0.80481,0.93964 1.39384,1.47739 2.49904,1.38883 1.1052,-0.0886 2.08558,-0.2788 3.10205,-0.67655 1.01647,-0.39775 2.47556,-1.25159 4.10315,-1.29596 1.62759,-0.0444 7.74123,0.0492 7.74123,0.0492 0,0 2.31502,-4.45498 2.31502,-5.78477 0,-1.3298 -0.11083,-4.19793 -1.25971,-6.01127 -1.14887,-1.81335 -3.15246,-4.31049 -3.86233,-4.75416 -0.70987,-0.44366 -3.28038,-0.90719 -3.98748,-0.7746 -0.70711,0.13258 -5.36804,1.18651 -5.36804,1.18651 z"
       id="path84" />
  </g>
</svg>
