<?xml version="1.0" encoding="UTF-8" standalone="no"?>
<!-- Created with Inkscape (http://www.inkscape.org/) -->

<svg
   version="1.1"
   id="svg1"
   width="38.749199"
   height="25.904533"
   viewBox="0 0 38.749199 25.904533"
   sodipodi:docname="cells_crop.svg"
   inkscape:version="1.3.2 (091e20ef0f, 2023-11-25)"
   xmlns:inkscape="http://www.inkscape.org/namespaces/inkscape"
   xmlns:sodipodi="http://sodipodi.sourceforge.net/DTD/sodipodi-0.dtd"
   xmlns="http://www.w3.org/2000/svg"
   xmlns:svg="http://www.w3.org/2000/svg">
  <defs
     id="defs1" />
  <sodipodi:namedview
     id="namedview1"
     pagecolor="#ffffff"
     bordercolor="#000000"
     borderopacity="0.25"
     inkscape:showpageshadow="2"
     inkscape:pageopacity="0.0"
     inkscape:pagecheckerboard="0"
     inkscape:deskcolor="#d1d1d1"
     showguides="true"
     inkscape:zoom="1"
     inkscape:cx="246"
     inkscape:cy="97"
     inkscape:window-width="1920"
     inkscape:window-height="1016"
     inkscape:window-x="0"
     inkscape:window-y="27"
     inkscape:window-maximized="1"
     inkscape:current-layer="g1">
    <sodipodi:guide
       position="-211.65233,747.76214"
       orientation="1,0"
       id="guide1"
       inkscape:locked="false" />
    <sodipodi:guide
       position="324.3847,865.453"
       orientation="0,-1"
       id="guide2"
       inkscape:locked="false" />
    <sodipodi:guide
       position="212.26124,519.04834"
       orientation="0,-1"
       id="guide3"
       inkscape:locked="false" />
    <sodipodi:guide
       position="346.26124,944.04834"
       orientation="1,0"
       id="guide4"
       inkscape:locked="false" />
  </sodipodi:namedview>
  <g
     inkscape:groupmode="layer"
     inkscape:label="Image"
     id="g1"
     transform="translate(-539.73876,-519.04834)">
    <path
       style="fill:#008000;stroke-width:3.09;stroke-linejoin:round"
       d="m 556.10644,519.13281 c -2.01806,0.14234 -13.02002,1.97778 -13.70971,2.79248 -0.6897,0.8147 -1.76197,0.65479 -2.19971,2.5083 -0.43774,1.85352 -0.74976,4.72827 -0.0303,7.18018 0.71948,2.4519 1.22314,6.18628 3.1084,8.44458 1.88525,2.2583 2.06054,3.16308 6.09912,3.9331 4.03857,0.77002 10.23852,1.02613 12.66479,0.948 2.42627,-0.0781 3.91455,-0.0811 6.42822,-1.23047 2.51368,-1.14941 3.28858,0.31299 6.23609,-3.87841 2.94751,-4.19141 3.8584,-5.70044 3.78003,-8.23023 -0.0784,-2.52978 -0.45972,-6.5415 -1.60742,-7.82178 -1.14771,-1.28027 -4.72779,-3.65136 -6.72315,-3.97192 -1.99536,-0.32056 -7.96338,-0.7583 -8.38721,-0.7583 -0.42382,0 -5.65918,0.0845 -5.65918,0.0845 z"
       id="path68" />
  </g>
</svg>
