<?xml version="1.0" encoding="UTF-8" standalone="no"?>
<!-- Created with Inkscape (http://www.inkscape.org/) -->

<svg
   version="1.1"
   id="svg1"
   width="54.968891"
   height="35.259537"
   viewBox="0 0 54.968891 35.259536"
   sodipodi:docname="cells_crop.svg"
   inkscape:version="1.3.2 (091e20ef0f, 2023-11-25)"
   xmlns:inkscape="http://www.inkscape.org/namespaces/inkscape"
   xmlns:sodipodi="http://sodipodi.sourceforge.net/DTD/sodipodi-0.dtd"
   xmlns="http://www.w3.org/2000/svg"
   xmlns:svg="http://www.w3.org/2000/svg">
  <defs
     id="defs1" />
  <sodipodi:namedview
     id="namedview1"
     pagecolor="#ffffff"
     bordercolor="#000000"
     borderopacity="0.25"
     inkscape:showpageshadow="2"
     inkscape:pageopacity="0.0"
     inkscape:pagecheckerboard="0"
     inkscape:deskcolor="#d1d1d1"
     showguides="true"
     inkscape:zoom="1"
     inkscape:cx="246"
     inkscape:cy="97"
     inkscape:window-width="1920"
     inkscape:window-height="1016"
     inkscape:window-x="0"
     inkscape:window-y="27"
     inkscape:window-maximized="1"
     inkscape:current-layer="g1">
    <sodipodi:guide
       position="-349.78591,682.85739"
       orientation="1,0"
       id="guide1"
       inkscape:locked="false" />
    <sodipodi:guide
       position="186.25112,800.54825"
       orientation="0,-1"
       id="guide2"
       inkscape:locked="false" />
    <sodipodi:guide
       position="74.127659,454.14359"
       orientation="0,-1"
       id="guide3"
       inkscape:locked="false" />
    <sodipodi:guide
       position="208.12766,879.14359"
       orientation="1,0"
       id="guide4"
       inkscape:locked="false" />
  </sodipodi:namedview>
  <g
     inkscape:groupmode="layer"
     inkscape:label="Image"
     id="g1"
     transform="translate(-677.87234,-454.14359)">
    <path
       style="fill:#008000;stroke-width:3.09;stroke-linejoin:round"
       d="m 683.24414,464.30273 c 0,0 -6.05811,11.05005 -5.30737,13.83911 0.75073,2.78907 5.67309,7.41065 7.75976,8.86768 2.08667,1.45703 6.79126,2.90674 10.2959,2.21631 3.50464,-0.69043 13.53052,-4.08081 17.49561,-4.08081 3.96508,0 5.58862,-0.12891 9.30615,0.16113 3.71753,0.29004 7.00024,1.0061 7.89917,-1.09009 0.89892,-2.09619 3.4021,-3.85717 1.37695,-8.53296 -2.02515,-4.67578 -5.89258,-10.39794 -7.4331,-12.29882 -1.54053,-1.90088 -16.44922,-7.4524 -17.70386,-8.01783 -1.25464,-0.56543 -5.06592,-1.51489 -6.32349,-1.13598 -1.25757,0.3789 -2.74805,1.46899 -3.37305,1.90649 -0.625,0.4375 -5.26879,1.78955 -5.70385,2.10083 -0.43506,0.31128 -8.28882,6.06494 -8.28882,6.06494 z"
       id="path107" />
  </g>
</svg>
