<?xml version="1.0" encoding="UTF-8" standalone="no"?>
<!-- Created with Inkscape (http://www.inkscape.org/) -->

<svg
   version="1.1"
   id="svg1"
   width="53.473953"
   height="57.694477"
   viewBox="0 0 53.473953 57.694477"
   sodipodi:docname="cells_crop.svg"
   inkscape:version="1.3.2 (091e20ef0f, 2023-11-25)"
   xmlns:inkscape="http://www.inkscape.org/namespaces/inkscape"
   xmlns:sodipodi="http://sodipodi.sourceforge.net/DTD/sodipodi-0.dtd"
   xmlns="http://www.w3.org/2000/svg"
   xmlns:svg="http://www.w3.org/2000/svg">
  <defs
     id="defs1" />
  <sodipodi:namedview
     id="namedview1"
     pagecolor="#ffffff"
     bordercolor="#000000"
     borderopacity="0.25"
     inkscape:showpageshadow="2"
     inkscape:pageopacity="0.0"
     inkscape:pagecheckerboard="0"
     inkscape:deskcolor="#d1d1d1"
     showguides="true"
     inkscape:zoom="1"
     inkscape:cx="246"
     inkscape:cy="97"
     inkscape:window-width="1920"
     inkscape:window-height="1016"
     inkscape:window-x="0"
     inkscape:window-y="27"
     inkscape:window-maximized="1"
     inkscape:current-layer="g1">
    <sodipodi:guide
       position="-464.69006,755.57915"
       orientation="1,0"
       id="guide1"
       inkscape:locked="false" />
    <sodipodi:guide
       position="71.34697,873.27001"
       orientation="0,-1"
       id="guide2"
       inkscape:locked="false" />
    <sodipodi:guide
       position="-40.77649,526.86535"
       orientation="0,-1"
       id="guide3"
       inkscape:locked="false" />
    <sodipodi:guide
       position="93.22351,951.86535"
       orientation="1,0"
       id="guide4"
       inkscape:locked="false" />
  </sodipodi:namedview>
  <g
     inkscape:groupmode="layer"
     inkscape:label="Image"
     id="g1"
     transform="translate(-792.77649,-526.86536)">
    <path
       style="fill:#008000;stroke-width:3.09;stroke-linejoin:round"
       d="m 792.91211,545.0166 c 1.1416,1.65039 7.83642,11.24219 8.60742,13.31494 0.771,2.07276 0.22803,1.98047 2.98389,7.12647 2.75586,5.14599 3.86035,10.03955 9.26123,13.46045 5.40088,3.42089 9.16699,5.60107 14.08545,5.63134 4.91845,0.0303 8.12451,0.23145 10.5083,-4.1792 2.38379,-4.41064 2.66504,-4.0791 4.09716,-10.06738 1.43213,-5.98828 2.30567,-8.09326 3.12061,-13.08984 0.81494,-4.99658 1.40576,-10.46973 -1.41211,-16.125 -2.81787,-5.65528 1.33203,-9.17871 -8.77588,-11.45948 -10.10791,-2.28076 -21.31201,-3.28613 -24.63818,-2.49804 -3.32617,0.78808 -12.37354,7.68506 -13.12354,8.93506 -0.75,1.25 -4.50586,4.02246 -4.75,4.625 -0.24414,0.60254 0.0357,4.32568 0.0357,4.32568 z"
       id="path105" />
  </g>
</svg>
