<?xml version="1.0" encoding="UTF-8" standalone="no"?>
<!-- Created with Inkscape (http://www.inkscape.org/) -->

<svg
   version="1.1"
   id="svg1"
   width="34.472122"
   height="41.28878"
   viewBox="0 0 34.472122 41.28878"
   sodipodi:docname="cells_crop.svg"
   inkscape:version="1.3.2 (091e20ef0f, 2023-11-25)"
   xmlns:inkscape="http://www.inkscape.org/namespaces/inkscape"
   xmlns:sodipodi="http://sodipodi.sourceforge.net/DTD/sodipodi-0.dtd"
   xmlns="http://www.w3.org/2000/svg"
   xmlns:svg="http://www.w3.org/2000/svg">
  <defs
     id="defs1" />
  <sodipodi:namedview
     id="namedview1"
     pagecolor="#ffffff"
     bordercolor="#000000"
     borderopacity="0.25"
     inkscape:showpageshadow="2"
     inkscape:pageopacity="0.0"
     inkscape:pagecheckerboard="0"
     inkscape:deskcolor="#d1d1d1"
     showguides="true"
     inkscape:zoom="1"
     inkscape:cx="246"
     inkscape:cy="97"
     inkscape:window-width="1920"
     inkscape:window-height="1016"
     inkscape:window-x="0"
     inkscape:window-y="27"
     inkscape:window-maximized="1"
     inkscape:current-layer="g1">
    <sodipodi:guide
       position="-203.35484,667.15362"
       orientation="1,0"
       id="guide1"
       inkscape:locked="false" />
    <sodipodi:guide
       position="332.68219,784.84448"
       orientation="0,-1"
       id="guide2"
       inkscape:locked="false" />
    <sodipodi:guide
       position="220.55873,438.43982"
       orientation="0,-1"
       id="guide3"
       inkscape:locked="false" />
    <sodipodi:guide
       position="354.55873,863.43982"
       orientation="1,0"
       id="guide4"
       inkscape:locked="false" />
  </sodipodi:namedview>
  <g
     inkscape:groupmode="layer"
     inkscape:label="Image"
     id="g1"
     transform="translate(-531.44127,-438.43982)">
    <path
       style="fill:#008000;stroke-width:3.09;stroke-linejoin:round"
       d="m 534.02582,475.41848 c 0.50271,0.75959 0.69433,2.80184 6.13022,3.43748 5.43588,0.63563 11.7957,1.11003 14.7208,0.74612 2.9251,-0.36391 5.69552,-0.2807 6.71441,-2.05883 1.01888,-1.77812 2.11234,-3.25966 2.87262,-7.64455 0.76028,-4.3849 2.14929,-6.88877 1.02924,-10.66945 -1.12005,-3.78067 -1.72703,-5.87989 -4.42287,-9.64572 -2.69584,-3.76583 -5.48111,-6.70232 -7.07659,-7.94321 -1.59548,-1.24089 -1.93937,-2.03811 -5.08993,-2.41238 -3.15056,-0.37427 -8.20941,-1.37589 -10.1543,-0.31488 -1.94489,1.061 -3.41883,1.1556 -4.3293,3.53346 -0.91047,2.37785 -1.75983,3.77722 -1.67144,6.56905 0.0884,2.79183 0.3539,3.39259 0.61906,5.70899 0.26517,2.31639 0.53448,3.20511 -0.097,5.74006 -0.63149,2.53495 -1.16907,3.62841 -1.43872,5.76389 -0.26966,2.13547 -0.62321,3.81485 -0.18127,5.22907 0.44194,1.41421 2.37509,3.9609 2.37509,3.9609 z"
       id="path75" />
  </g>
</svg>
