<?xml version="1.0" encoding="UTF-8" standalone="no"?>
<!-- Created with Inkscape (http://www.inkscape.org/) -->

<svg
   version="1.1"
   id="svg1"
   width="56.023956"
   height="52.542435"
   viewBox="0 0 56.023956 52.542434"
   sodipodi:docname="cells_crop.svg"
   inkscape:version="1.3.2 (091e20ef0f, 2023-11-25)"
   xmlns:inkscape="http://www.inkscape.org/namespaces/inkscape"
   xmlns:sodipodi="http://sodipodi.sourceforge.net/DTD/sodipodi-0.dtd"
   xmlns="http://www.w3.org/2000/svg"
   xmlns:svg="http://www.w3.org/2000/svg">
  <defs
     id="defs1" />
  <sodipodi:namedview
     id="namedview1"
     pagecolor="#ffffff"
     bordercolor="#000000"
     borderopacity="0.25"
     inkscape:showpageshadow="2"
     inkscape:pageopacity="0.0"
     inkscape:pagecheckerboard="0"
     inkscape:deskcolor="#d1d1d1"
     showguides="true"
     inkscape:zoom="1"
     inkscape:cx="246"
     inkscape:cy="97"
     inkscape:window-width="1920"
     inkscape:window-height="1016"
     inkscape:window-x="0"
     inkscape:window-y="27"
     inkscape:window-maximized="1"
     inkscape:current-layer="g1">
    <sodipodi:guide
       position="-469.01142,521.68456"
       orientation="1,0"
       id="guide1"
       inkscape:locked="false" />
    <sodipodi:guide
       position="67.025604,639.37542"
       orientation="0,-1"
       id="guide2"
       inkscape:locked="false" />
    <sodipodi:guide
       position="-45.097856,292.97076"
       orientation="0,-1"
       id="guide3"
       inkscape:locked="false" />
    <sodipodi:guide
       position="88.902144,717.97076"
       orientation="1,0"
       id="guide4"
       inkscape:locked="false" />
  </sodipodi:namedview>
  <g
     inkscape:groupmode="layer"
     inkscape:label="Image"
     id="g1"
     transform="translate(-797.09786,-292.97076)">
    <path
       style="fill:#008000;stroke-width:3.09;stroke-linejoin:round"
       d="m 797.09786,305.2861 c 0,0 11.61788,17.49433 15.39442,21.99075 3.77653,4.49641 8.73145,8.54294 12.48899,10.73711 3.75754,2.19417 6.31148,4.00993 10.34489,5.51978 4.03341,1.50985 5.51495,2.47384 9.86462,1.71391 4.34968,-0.75994 5.83329,0.94361 6.85632,-1.77537 1.02302,-2.71897 2.01636,-8.58092 -0.55899,-15.12234 -2.57535,-6.54143 -1.66384,-5.46903 -5.95931,-12.65438 -4.29547,-7.18536 -6.00833,-9.9758 -12.72896,-13.92531 -6.72062,-3.94951 -16.28831,-6.38986 -17.98633,-7.28203 -1.69803,-0.89217 -2.17277,-1.79539 -5.01708,-1.437 -2.84431,0.35839 -4.85549,0.16746 -6.90016,1.59134 -2.04467,1.42388 -2.94064,1.61274 -3.91533,3.47304 -0.97469,1.8603 -1.88308,7.1705 -1.88308,7.1705 z"
       id="path108" />
  </g>
</svg>
