<?xml version="1.0" encoding="UTF-8" standalone="no"?>
<!-- Created with Inkscape (http://www.inkscape.org/) -->

<svg
   version="1.1"
   id="svg1"
   width="39.590038"
   height="37.406921"
   viewBox="0 0 39.590038 37.406921"
   sodipodi:docname="cells_crop.svg"
   inkscape:version="1.3.2 (091e20ef0f, 2023-11-25)"
   xmlns:inkscape="http://www.inkscape.org/namespaces/inkscape"
   xmlns:sodipodi="http://sodipodi.sourceforge.net/DTD/sodipodi-0.dtd"
   xmlns="http://www.w3.org/2000/svg"
   xmlns:svg="http://www.w3.org/2000/svg">
  <defs
     id="defs1" />
  <sodipodi:namedview
     id="namedview1"
     pagecolor="#ffffff"
     bordercolor="#000000"
     borderopacity="0.25"
     inkscape:showpageshadow="2"
     inkscape:pageopacity="0.0"
     inkscape:pagecheckerboard="0"
     inkscape:deskcolor="#d1d1d1"
     showguides="true"
     inkscape:zoom="1"
     inkscape:cx="246"
     inkscape:cy="97"
     inkscape:window-width="1920"
     inkscape:window-height="1016"
     inkscape:window-x="0"
     inkscape:window-y="27"
     inkscape:window-maximized="1"
     inkscape:current-layer="g1">
    <sodipodi:guide
       position="-264.23357,574.345"
       orientation="1,0"
       id="guide1"
       inkscape:locked="false" />
    <sodipodi:guide
       position="271.80345,692.03586"
       orientation="0,-1"
       id="guide2"
       inkscape:locked="false" />
    <sodipodi:guide
       position="159.67999,345.6312"
       orientation="0,-1"
       id="guide3"
       inkscape:locked="false" />
    <sodipodi:guide
       position="293.67999,770.6312"
       orientation="1,0"
       id="guide4"
       inkscape:locked="false" />
  </sodipodi:namedview>
  <g
     inkscape:groupmode="layer"
     inkscape:label="Image"
     id="g1"
     transform="translate(-592.32001,-345.6312)">
    <path
       style="fill:#008000;stroke-width:3.09;stroke-linejoin:round"
       d="m 593.23048,369.14875 c -0.28865,1.96526 -2.21006,10.29725 0.59248,11.79674 2.80253,1.4995 12.65921,2.51182 16.17127,1.9221 3.51205,-0.58971 6.69438,-0.48303 9.97614,-1.25884 3.28176,-0.77582 5.54015,-1.53368 7.04276,-2.77111 1.5026,-1.23744 2.46071,-0.61216 3.37291,-3.55384 0.91219,-2.94167 2.11027,-3.62081 1.19808,-7.484 -0.9122,-3.8632 -1.5216,-6.50829 -3.76997,-9.04358 -2.24838,-2.5353 -4.41493,-4.22814 -6.29491,-5.39204 -1.87998,-1.16389 -3.71542,-2.04812 -5.04539,-2.84603 -1.32997,-0.79791 -2.76179,-1.51572 -4.45429,-2.67375 -1.6925,-1.15803 -3.66604,-2.57224 -4.34208,-2.1303 -0.67603,0.44194 -2.09024,1.14905 -2.53218,2.91682 -0.44195,1.76777 -0.53033,2.2981 -0.70711,4.15425 -0.17678,1.85616 -0.0943,2.76317 -0.80482,4.45153 -0.71056,1.68835 -1.21154,2.37923 -2.36059,3.97022 -1.14905,1.59099 -0.434,1.49743 -2.56326,3.00521 -2.12926,1.50778 -3.12087,1.87376 -4.00475,2.84603 -0.88389,0.97227 -1.47429,2.09059 -1.47429,2.09059 z"
       id="path73" />
  </g>
</svg>
