<?xml version="1.0" encoding="UTF-8" standalone="no"?>
<!-- Created with Inkscape (http://www.inkscape.org/) -->

<svg
   version="1.1"
   id="svg1"
   width="49.540371"
   height="31.938208"
   viewBox="0 0 49.540371 31.938207"
   sodipodi:docname="cells_crop.svg"
   inkscape:version="1.3.2 (091e20ef0f, 2023-11-25)"
   xmlns:inkscape="http://www.inkscape.org/namespaces/inkscape"
   xmlns:sodipodi="http://sodipodi.sourceforge.net/DTD/sodipodi-0.dtd"
   xmlns="http://www.w3.org/2000/svg"
   xmlns:svg="http://www.w3.org/2000/svg">
  <defs
     id="defs1" />
  <sodipodi:namedview
     id="namedview1"
     pagecolor="#ffffff"
     bordercolor="#000000"
     borderopacity="0.25"
     inkscape:showpageshadow="2"
     inkscape:pageopacity="0.0"
     inkscape:pagecheckerboard="0"
     inkscape:deskcolor="#d1d1d1"
     showguides="true"
     inkscape:zoom="1"
     inkscape:cx="246"
     inkscape:cy="97"
     inkscape:window-width="1920"
     inkscape:window-height="1016"
     inkscape:window-x="0"
     inkscape:window-y="27"
     inkscape:window-maximized="1"
     inkscape:current-layer="g1">
    <sodipodi:guide
       position="-71.329686,809.38985"
       orientation="1,0"
       id="guide1"
       inkscape:locked="false" />
    <sodipodi:guide
       position="464.70734,927.08071"
       orientation="0,-1"
       id="guide2"
       inkscape:locked="false" />
    <sodipodi:guide
       position="352.58388,580.67605"
       orientation="0,-1"
       id="guide3"
       inkscape:locked="false" />
    <sodipodi:guide
       position="486.58388,1005.6761"
       orientation="1,0"
       id="guide4"
       inkscape:locked="false" />
  </sodipodi:namedview>
  <g
     inkscape:groupmode="layer"
     inkscape:label="Image"
     id="g1"
     transform="translate(-399.41612,-580.67605)">
    <path
       style="fill:#008000;stroke-width:3.09;stroke-linejoin:round"
       d="m 407.7865,582.79648 c -0.15192,1.42306 -1.00944,8.41853 -1.76904,10.69733 -0.7596,2.27881 -3.05384,5.49881 -4.42112,8.68914 -1.36728,3.19033 -3.03841,5.16529 -1.67112,6.53258 1.36728,1.36728 10.08253,3.61404 13.43546,3.76596 3.35293,0.15192 10.87952,-0.22788 13.91793,-0.076 3.03841,0.15192 6.75096,0.29613 10.09321,0.14421 3.34225,-0.15192 6.13557,0.13471 7.8067,-0.92873 1.67112,-1.06345 3.05205,-1.07828 3.50603,-3.81107 0.45399,-2.73279 0.43144,-5.74331 -0.78393,-8.17403 -1.21536,-2.43073 -3.07757,-4.7576 -4.7487,-6.73257 -1.67112,-1.97497 -2.7405,-2.89242 -4.56355,-4.71547 -1.82304,-1.82304 -2.28533,-3.04315 -4.86798,-4.41044 -2.58265,-1.36728 -3.49476,-1.97496 -5.92549,-2.27881 -2.43073,-0.30384 -4.25911,-0.45576 -6.07682,-0.60768 -1.8177,-0.15192 -2.72922,-0.30384 -4.70419,-0.15192 -1.97497,0.15192 -3.6722,0.30622 -4.85552,0.45576 -1.18332,0.14955 -4.37187,1.6017 -4.37187,1.6017 z"
       id="path18" />
  </g>
</svg>
