<?xml version="1.0" encoding="UTF-8" standalone="no"?>
<!-- Created with Inkscape (http://www.inkscape.org/) -->

<svg
   version="1.1"
   id="svg1"
   width="36.048752"
   height="40.93211"
   viewBox="0 0 36.048752 40.932109"
   sodipodi:docname="cells_crop.svg"
   inkscape:version="1.3.2 (091e20ef0f, 2023-11-25)"
   xmlns:inkscape="http://www.inkscape.org/namespaces/inkscape"
   xmlns:sodipodi="http://sodipodi.sourceforge.net/DTD/sodipodi-0.dtd"
   xmlns="http://www.w3.org/2000/svg"
   xmlns:svg="http://www.w3.org/2000/svg">
  <defs
     id="defs1" />
  <sodipodi:namedview
     id="namedview1"
     pagecolor="#ffffff"
     bordercolor="#000000"
     borderopacity="0.25"
     inkscape:showpageshadow="2"
     inkscape:pageopacity="0.0"
     inkscape:pagecheckerboard="0"
     inkscape:deskcolor="#d1d1d1"
     showguides="true"
     inkscape:zoom="1"
     inkscape:cx="246"
     inkscape:cy="97"
     inkscape:window-width="1920"
     inkscape:window-height="1016"
     inkscape:window-x="0"
     inkscape:window-y="27"
     inkscape:window-maximized="1"
     inkscape:current-layer="g1">
    <sodipodi:guide
       position="-179.45825,527.82244"
       orientation="1,0"
       id="guide1"
       inkscape:locked="false" />
    <sodipodi:guide
       position="356.57878,645.5133"
       orientation="0,-1"
       id="guide2"
       inkscape:locked="false" />
    <sodipodi:guide
       position="244.45532,299.10864"
       orientation="0,-1"
       id="guide3"
       inkscape:locked="false" />
    <sodipodi:guide
       position="378.45532,724.10864"
       orientation="1,0"
       id="guide4"
       inkscape:locked="false" />
  </sodipodi:namedview>
  <g
     inkscape:groupmode="layer"
     inkscape:label="Image"
     id="g1"
     transform="translate(-507.54468,-299.10864)">
    <path
       style="fill:#008000;stroke-width:3.09;stroke-linejoin:round"
       d="m 511.01147,312.49512 c 1.66211,4.48388 2.59912,7.75586 4.88599,12.5603 2.28687,4.80444 1.41846,4.54224 4.55786,7.92676 3.13941,3.38452 3.61353,4.29883 6.37671,5.20068 2.76318,0.90186 5.96802,1.34326 7.5105,1.34497 1.54248,0.002 1.92602,1.69409 3.99805,-1.07934 2.07202,-2.77344 2.66284,-3.76441 3.61352,-6.36255 0.95068,-2.59815 1.76367,-4.84107 1.62354,-6.97974 -0.14014,-2.13867 -0.43311,-3.94946 -0.69581,-5.39917 -0.26269,-1.44971 -0.28637,-2.76977 -0.80737,-4.38965 -0.52099,-1.61987 -0.4458,-2.10669 -1.45849,-3.24487 -1.0127,-1.13818 -1.417,-1.84815 -3.042,-2.59815 -1.625,-0.75 -2.05688,-0.87353 -3.5,-1.25 -1.44311,-0.37646 -2.79223,-0.73461 -3.97973,-1.23461 -1.1875,-0.5 -1.69629,-0.62964 -2.69654,-1.25489 -1.00024,-0.62524 -1.5791,-0.948 -2.64502,-1.57519 -1.06591,-0.6272 -1.57226,-0.75635 -3.54126,-1.80127 -1.96899,-1.04492 -6.87036,-2.96631 -8.51611,-3.03003 -1.64575,-0.0637 -2.60937,-0.55982 -3.29687,0.19018 -0.6875,0.75 -1.51831,0.7107 -1.7085,2.4065 -0.19019,1.6958 -0.25269,2.50854 0.18481,3.82104 0.4375,1.3125 0.75,2.0625 1.1875,3.0625 0.4375,1 1.94922,3.68653 1.94922,3.68653 z"
       id="path57" />
  </g>
</svg>
