<?xml version="1.0" encoding="UTF-8" standalone="no"?>
<!-- Created with Inkscape (http://www.inkscape.org/) -->

<svg
   version="1.1"
   id="svg1"
   width="30.610607"
   height="37.789417"
   viewBox="0 0 30.610607 37.789417"
   sodipodi:docname="cells_crop.svg"
   inkscape:version="1.3.2 (091e20ef0f, 2023-11-25)"
   xmlns:inkscape="http://www.inkscape.org/namespaces/inkscape"
   xmlns:sodipodi="http://sodipodi.sourceforge.net/DTD/sodipodi-0.dtd"
   xmlns="http://www.w3.org/2000/svg"
   xmlns:svg="http://www.w3.org/2000/svg">
  <defs
     id="defs1" />
  <sodipodi:namedview
     id="namedview1"
     pagecolor="#ffffff"
     bordercolor="#000000"
     borderopacity="0.25"
     inkscape:showpageshadow="2"
     inkscape:pageopacity="0.0"
     inkscape:pagecheckerboard="0"
     inkscape:deskcolor="#d1d1d1"
     showguides="true"
     inkscape:zoom="1"
     inkscape:cx="246"
     inkscape:cy="97"
     inkscape:window-width="1920"
     inkscape:window-height="1016"
     inkscape:window-x="0"
     inkscape:window-y="27"
     inkscape:window-maximized="1"
     inkscape:current-layer="g1">
    <sodipodi:guide
       position="-469.40367,667.76718"
       orientation="1,0"
       id="guide1"
       inkscape:locked="false" />
    <sodipodi:guide
       position="66.633354,785.45804"
       orientation="0,-1"
       id="guide2"
       inkscape:locked="false" />
    <sodipodi:guide
       position="-45.490106,439.05338"
       orientation="0,-1"
       id="guide3"
       inkscape:locked="false" />
    <sodipodi:guide
       position="88.509894,864.05338"
       orientation="1,0"
       id="guide4"
       inkscape:locked="false" />
  </sodipodi:namedview>
  <g
     inkscape:groupmode="layer"
     inkscape:label="Image"
     id="g1"
     transform="translate(-797.49011,-439.05339)">
    <path
       style="fill:#008000;stroke-width:3.09;stroke-linejoin:round"
       d="m 799.06738,458.35058 c 0,0 -2.47461,3.60254 -1.22461,7.60254 1.25,4 2.75781,6.75977 4.75781,8.50977 2,1.75 2.9209,2.5 4.73731,2.25 1.8164,-0.25 2.32226,1.00684 4.56054,-1.23145 2.23829,-2.23828 3.03223,-3.30566 3.73829,-4.97363 0.70605,-1.66797 2.45312,-8.15234 2.45312,-8.15234 0,0 0.375,-3.12696 0.86817,-4.30274 0.49316,-1.17578 1.93652,-3.85449 1.93652,-3.85449 0,0 1.38965,-1.60351 2.83105,-2.26074 1.44141,-0.65723 4.16797,-2.39453 4.16797,-2.39453 0,0 0.72071,-2.17383 -0.52637,-4.16407 -1.24707,-1.99023 -2.50683,-4.49023 -3.98437,-4.9746 -1.47754,-0.48438 -5.41016,-1.23438 -5.41016,-1.23438 0,0 -0.80371,-0.59277 -2.04199,0.89551 -1.23828,1.48828 -1.73828,2.23828 -3.48828,4.23828 -1.75,2 -3.25,3.25 -4.75,4.75 -1.5,1.5 -3.00586,2.26367 -4.25,3.75 -1.24414,1.48633 -4.375,5.54687 -4.375,5.54687 z"
       id="path123" />
  </g>
</svg>
