<?xml version="1.0" encoding="UTF-8" standalone="no"?>
<!-- Created with Inkscape (http://www.inkscape.org/) -->

<svg
   version="1.1"
   id="svg1"
   width="41.872215"
   height="36.316547"
   viewBox="0 0 41.872215 36.316547"
   sodipodi:docname="cells_crop.svg"
   inkscape:version="1.3.2 (091e20ef0f, 2023-11-25)"
   xmlns:inkscape="http://www.inkscape.org/namespaces/inkscape"
   xmlns:sodipodi="http://sodipodi.sourceforge.net/DTD/sodipodi-0.dtd"
   xmlns="http://www.w3.org/2000/svg"
   xmlns:svg="http://www.w3.org/2000/svg">
  <defs
     id="defs1" />
  <sodipodi:namedview
     id="namedview1"
     pagecolor="#ffffff"
     bordercolor="#000000"
     borderopacity="0.25"
     inkscape:showpageshadow="2"
     inkscape:pageopacity="0.0"
     inkscape:pagecheckerboard="0"
     inkscape:deskcolor="#d1d1d1"
     showguides="true"
     inkscape:zoom="1"
     inkscape:cx="246"
     inkscape:cy="97"
     inkscape:window-width="1920"
     inkscape:window-height="1016"
     inkscape:window-x="0"
     inkscape:window-y="27"
     inkscape:window-maximized="1"
     inkscape:current-layer="g1">
    <sodipodi:guide
       position="-237.86318,520.3434"
       orientation="1,0"
       id="guide1"
       inkscape:locked="false" />
    <sodipodi:guide
       position="298.17384,638.03426"
       orientation="0,-1"
       id="guide2"
       inkscape:locked="false" />
    <sodipodi:guide
       position="186.05038,291.6296"
       orientation="0,-1"
       id="guide3"
       inkscape:locked="false" />
    <sodipodi:guide
       position="320.05038,716.6296"
       orientation="1,0"
       id="guide4"
       inkscape:locked="false" />
  </sodipodi:namedview>
  <g
     inkscape:groupmode="layer"
     inkscape:label="Image"
     id="g1"
     transform="translate(-565.94962,-291.6296)">
    <path
       style="fill:#008000;stroke-width:3.09;stroke-linejoin:round"
       d="m 566.98681,306.46289 c 1.41797,3.88428 5.66749,10.07178 7.79249,12.32178 2.125,2.25 3.4375,3.81982 5.5625,5.94482 2.125,2.125 3.05029,3.53613 6.89648,3.1543 3.84619,-0.38184 4.63721,-0.45703 8.26416,-2.62451 3.62695,-2.16748 7.63184,-4.38086 9.49756,-7.84961 1.86572,-3.46875 3.60986,-3.8252 2.44629,-8.19922 -1.16358,-4.37403 -1.38867,-7.33301 -5.12012,-10.35401 -3.73145,-3.02099 -4.59375,-5.89111 -11.54102,-6.46093 -6.94726,-0.56983 -10.02392,-1.3877 -13.27734,-0.0103 -3.25342,1.37744 -4.48437,1.80274 -6.23437,3.05274 -1.75,1.25 -3.50879,1.7583 -4.25879,3.5083 -0.75,1.75 -1.25,2.75 -1,4.125 0.25,1.375 0.97216,3.3916 0.97216,3.3916 z"
       id="path60" />
  </g>
</svg>
