<?xml version="1.0" encoding="UTF-8" standalone="no"?>
<!-- Created with Inkscape (http://www.inkscape.org/) -->

<svg
   version="1.1"
   id="svg1"
   width="32.758408"
   height="30.532635"
   viewBox="0 0 32.758407 30.532634"
   sodipodi:docname="cells_crop.svg"
   inkscape:version="1.3.2 (091e20ef0f, 2023-11-25)"
   xmlns:inkscape="http://www.inkscape.org/namespaces/inkscape"
   xmlns:sodipodi="http://sodipodi.sourceforge.net/DTD/sodipodi-0.dtd"
   xmlns="http://www.w3.org/2000/svg"
   xmlns:svg="http://www.w3.org/2000/svg">
  <defs
     id="defs1" />
  <sodipodi:namedview
     id="namedview1"
     pagecolor="#ffffff"
     bordercolor="#000000"
     borderopacity="0.25"
     inkscape:showpageshadow="2"
     inkscape:pageopacity="0.0"
     inkscape:pagecheckerboard="0"
     inkscape:deskcolor="#d1d1d1"
     showguides="true"
     inkscape:zoom="1"
     inkscape:cx="246"
     inkscape:cy="97"
     inkscape:window-width="1920"
     inkscape:window-height="1016"
     inkscape:window-x="0"
     inkscape:window-y="27"
     inkscape:window-maximized="1"
     inkscape:current-layer="g1">
    <sodipodi:guide
       position="-53.163453,545.6182"
       orientation="1,0"
       id="guide1"
       inkscape:locked="false" />
    <sodipodi:guide
       position="482.87357,663.30906"
       orientation="0,-1"
       id="guide2"
       inkscape:locked="false" />
    <sodipodi:guide
       position="370.75011,316.9044"
       orientation="0,-1"
       id="guide3"
       inkscape:locked="false" />
    <sodipodi:guide
       position="504.75011,741.9044"
       orientation="1,0"
       id="guide4"
       inkscape:locked="false" />
  </sodipodi:namedview>
  <g
     inkscape:groupmode="layer"
     inkscape:label="Image"
     id="g1"
     transform="translate(-381.24989,-316.9044)">
    <path
       style="fill:#008000;stroke-width:3.09;stroke-linejoin:round"
       d="m 382.90592,345.20725 c 0,0 12.76072,2.77042 15.63645,2.13513 2.87573,-0.63529 4.55683,-0.41432 6.71199,-2.78768 2.15515,-2.37337 6.00488,-6.50829 7.08522,-9.68854 1.08034,-3.18025 2.0098,-4.67319 1.5468,-7.73743 -0.46301,-3.06425 -0.84314,-5.16554 -2.25736,-6.57976 -1.41421,-1.41421 -2.32123,-2.82393 -5.46868,-3.10464 -3.14746,-0.2807 -4.96114,-0.81276 -6.64052,-0.37081 -1.67938,0.44194 -2.15861,-0.33215 -3.81037,1.68663 -1.65175,2.01877 -1.96802,2.52148 -3.5856,4.41147 -1.61757,1.88999 -2.72691,3.41366 -4.01614,4.97944 -1.28923,1.56579 -2.32054,2.26219 -3.20822,4.03583 -0.88768,1.77363 -1.43735,2.98345 -1.70148,4.83615 -0.26413,1.85271 -0.35355,2.82601 -0.70607,3.53208 -0.35252,0.70607 -1.32479,1.59445 -1.2364,2.38304 0.0884,0.78859 1.65038,2.26909 1.65038,2.26909 z"
       id="path51" />
  </g>
</svg>
