<?xml version="1.0" encoding="UTF-8" standalone="no"?>
<!-- Created with Inkscape (http://www.inkscape.org/) -->

<svg
   version="1.1"
   id="svg1"
   width="27.850101"
   height="24.944624"
   viewBox="0 0 27.850101 24.944624"
   sodipodi:docname="cells_crop.svg"
   inkscape:version="1.3.2 (091e20ef0f, 2023-11-25)"
   xmlns:inkscape="http://www.inkscape.org/namespaces/inkscape"
   xmlns:sodipodi="http://sodipodi.sourceforge.net/DTD/sodipodi-0.dtd"
   xmlns="http://www.w3.org/2000/svg"
   xmlns:svg="http://www.w3.org/2000/svg">
  <defs
     id="defs1" />
  <sodipodi:namedview
     id="namedview1"
     pagecolor="#ffffff"
     bordercolor="#000000"
     borderopacity="0.25"
     inkscape:showpageshadow="2"
     inkscape:pageopacity="0.0"
     inkscape:pagecheckerboard="0"
     inkscape:deskcolor="#d1d1d1"
     showguides="true"
     inkscape:zoom="1"
     inkscape:cx="246"
     inkscape:cy="97"
     inkscape:window-width="1920"
     inkscape:window-height="1016"
     inkscape:window-x="0"
     inkscape:window-y="27"
     inkscape:window-maximized="1"
     inkscape:current-layer="g1">
    <sodipodi:guide
       position="-346.39997,514.6552"
       orientation="1,0"
       id="guide1"
       inkscape:locked="false" />
    <sodipodi:guide
       position="189.63706,632.34606"
       orientation="0,-1"
       id="guide2"
       inkscape:locked="false" />
    <sodipodi:guide
       position="77.5136,285.9414"
       orientation="0,-1"
       id="guide3"
       inkscape:locked="false" />
    <sodipodi:guide
       position="211.5136,710.9414"
       orientation="1,0"
       id="guide4"
       inkscape:locked="false" />
  </sodipodi:namedview>
  <g
     inkscape:groupmode="layer"
     inkscape:label="Image"
     id="g1"
     transform="translate(-674.4864,-285.9414)">
    <path
       style="fill:#008000;stroke-width:3.09;stroke-linejoin:round"
       d="m 676.77784,290.33811 c -0.0901,0.59766 -2.34678,7.65526 -2.25839,9.24625 0.0884,1.59099 -0.17678,7.48781 0.0884,8.63686 0.26517,1.14904 1.14905,2.47487 2.65165,2.65165 1.50261,0.17677 6.4092,-1.47464 7.91767,-2.18347 1.50847,-0.70884 5.55431,-2.2325 7.1453,-2.85122 1.59099,-0.61872 4.08243,-2.21143 4.08243,-2.21143 0,0 4.13216,0.16711 4.71083,-0.3577 0.57866,-0.5248 1.55094,-2.29257 1.10899,-2.91129 -0.44194,-0.61872 -9.29976,-3.92569 -9.79833,-4.18256 -0.49856,-0.25688 -4.75398,-2.91544 -5.5512,-4.15529 -0.79722,-1.23986 -1.4225,-3.01902 -2.57155,-4.07968 -1.14905,-1.06066 -3.25379,-2.40996 -4.40112,-1.87963 -1.14732,0.53033 -3.12466,4.27751 -3.12466,4.27751 z"
       id="path91" />
  </g>
</svg>
