<?xml version="1.0" encoding="UTF-8" standalone="no"?>
<!-- Created with Inkscape (http://www.inkscape.org/) -->

<svg
   version="1.1"
   id="svg1"
   width="43.883495"
   height="35.736542"
   viewBox="0 0 43.883495 35.736541"
   sodipodi:docname="cells_crop.svg"
   inkscape:version="1.3.2 (091e20ef0f, 2023-11-25)"
   xmlns:inkscape="http://www.inkscape.org/namespaces/inkscape"
   xmlns:sodipodi="http://sodipodi.sourceforge.net/DTD/sodipodi-0.dtd"
   xmlns="http://www.w3.org/2000/svg"
   xmlns:svg="http://www.w3.org/2000/svg">
  <defs
     id="defs1" />
  <sodipodi:namedview
     id="namedview1"
     pagecolor="#ffffff"
     bordercolor="#000000"
     borderopacity="0.25"
     inkscape:showpageshadow="2"
     inkscape:pageopacity="0.0"
     inkscape:pagecheckerboard="0"
     inkscape:deskcolor="#d1d1d1"
     showguides="true"
     inkscape:zoom="1"
     inkscape:cx="246"
     inkscape:cy="97"
     inkscape:window-width="1920"
     inkscape:window-height="1016"
     inkscape:window-x="0"
     inkscape:window-y="27"
     inkscape:window-maximized="1"
     inkscape:current-layer="g1">
    <sodipodi:guide
       position="-149.6845,778.93343"
       orientation="1,0"
       id="guide1"
       inkscape:locked="false" />
    <sodipodi:guide
       position="386.35252,896.62429"
       orientation="0,-1"
       id="guide2"
       inkscape:locked="false" />
    <sodipodi:guide
       position="274.22906,550.21963"
       orientation="0,-1"
       id="guide3"
       inkscape:locked="false" />
    <sodipodi:guide
       position="408.22906,975.21963"
       orientation="1,0"
       id="guide4"
       inkscape:locked="false" />
  </sodipodi:namedview>
  <g
     inkscape:groupmode="layer"
     inkscape:label="Image"
     id="g1"
     transform="translate(-477.77094,-550.21963)">
    <path
       style="fill:#008000;stroke-width:3.09;stroke-linejoin:round"
       d="m 483.28681,555.79024 c 0,0 -4.95878,-0.31808 -5.41454,0.89372 -0.45576,1.21181 0.75604,7.58831 1.05988,9.24994 0.30384,1.66163 0.30384,3.18084 1.36729,5.61156 1.06344,2.43073 1.06819,3.35056 2.89123,5.78129 1.82305,2.43072 3.49417,3.03841 5.31722,3.49417 1.82304,0.45576 14.69296,5.81986 16.50888,5.06203 1.81593,-0.75782 3.05503,-0.16141 5.65251,-3.06214 2.59748,-2.90073 2.58027,-1.95954 4.90181,-5.35876 2.32153,-3.39922 2.94227,-3.27282 4.00571,-5.85546 1.06345,-2.58265 2.15359,-4.4781 2.00167,-7.35924 -0.15192,-2.88115 0.60769,-2.4248 -0.7596,-5.76764 -1.36728,-3.34284 -1.54175,-5.35163 -3.97248,-6.567 -2.43073,-1.21536 -4.6585,-1.69308 -6.9373,-1.69308 -2.27881,0 -3.24196,0.008 -6.12845,0.6154 -2.88649,0.60768 -4.90181,0.91508 -7.18062,1.37084 -2.2788,0.45576 -5.48456,0.91152 -6.53258,1.21537 -1.04801,0.30384 -6.78063,2.369 -6.78063,2.369 z"
       id="path27" />
  </g>
</svg>
