<?xml version="1.0" encoding="UTF-8" standalone="no"?>
<!-- Created with Inkscape (http://www.inkscape.org/) -->

<svg
   version="1.1"
   id="svg1"
   width="30.256248"
   height="17.95507"
   viewBox="0 0 30.256248 17.95507"
   sodipodi:docname="cells_crop.svg"
   inkscape:version="1.3.2 (091e20ef0f, 2023-11-25)"
   xmlns:inkscape="http://www.inkscape.org/namespaces/inkscape"
   xmlns:sodipodi="http://sodipodi.sourceforge.net/DTD/sodipodi-0.dtd"
   xmlns="http://www.w3.org/2000/svg"
   xmlns:svg="http://www.w3.org/2000/svg">
  <defs
     id="defs1" />
  <sodipodi:namedview
     id="namedview1"
     pagecolor="#ffffff"
     bordercolor="#000000"
     borderopacity="0.25"
     inkscape:showpageshadow="2"
     inkscape:pageopacity="0.0"
     inkscape:pagecheckerboard="0"
     inkscape:deskcolor="#d1d1d1"
     showguides="true"
     inkscape:zoom="1"
     inkscape:cx="246"
     inkscape:cy="97"
     inkscape:window-width="1920"
     inkscape:window-height="1016"
     inkscape:window-x="0"
     inkscape:window-y="27"
     inkscape:window-maximized="1"
     inkscape:current-layer="g1">
    <sodipodi:guide
       position="-526.791,686.2812"
       orientation="1,0"
       id="guide1"
       inkscape:locked="false" />
    <sodipodi:guide
       position="9.2460243,803.97206"
       orientation="0,-1"
       id="guide2"
       inkscape:locked="false" />
    <sodipodi:guide
       position="-102.87744,457.5674"
       orientation="0,-1"
       id="guide3"
       inkscape:locked="false" />
    <sodipodi:guide
       position="31.122564,882.5674"
       orientation="1,0"
       id="guide4"
       inkscape:locked="false" />
  </sodipodi:namedview>
  <g
     inkscape:groupmode="layer"
     inkscape:label="Image"
     id="g1"
     transform="translate(-854.87744,-457.5674)">
    <path
       style="fill:#008000;stroke-width:3.09;stroke-linejoin:round"
       d="m 854.87744,462.88721 c 0.125,1.59521 0.896,5.62597 2.021,7.87597 1.125,2.25 2.1372,3.625 3,4 0.86279,0.375 1.06787,1.26807 3.98925,0.375 2.92139,-0.89306 5.10987,-2.06396 7.35987,-2.56396 2.25,-0.5 3.70605,-0.77149 5.58105,-1.14649 1.875,-0.375 2.65137,0.2461 4.40674,-0.88281 1.75537,-1.12891 2.50684,-1.1333 3.00537,-2.37891 0.49854,-1.2456 0.99854,-3.24707 0.87354,-4.99267 -0.125,-1.74561 0.12304,-2.62061 -0.74854,-3.49414 -0.87158,-0.87354 -1.45557,-1.87793 -1.99512,-1.98487 -0.53955,-0.10693 -3.0166,-0.10693 -3.0166,-0.10693 0,0 -1.47803,-0.125 -2.8501,0.25 -1.37207,0.375 -6.10888,1.99317 -7.85888,2.24317 -1.75,0.25 -8.08448,1.07031 -8.08448,1.07031 0,0 -2.5664,0.24414 -3.15087,0.125 -0.58448,-0.11914 -2.53223,1.61133 -2.53223,1.61133 z"
       id="path125" />
  </g>
</svg>
