<?xml version="1.0" encoding="UTF-8" standalone="no"?>
<!-- Created with Inkscape (http://www.inkscape.org/) -->

<svg
   version="1.1"
   id="svg1"
   width="52.131584"
   height="38.594955"
   viewBox="0 0 52.131584 38.594955"
   sodipodi:docname="cells_crop.svg"
   inkscape:version="1.3.2 (091e20ef0f, 2023-11-25)"
   xmlns:inkscape="http://www.inkscape.org/namespaces/inkscape"
   xmlns:sodipodi="http://sodipodi.sourceforge.net/DTD/sodipodi-0.dtd"
   xmlns="http://www.w3.org/2000/svg"
   xmlns:svg="http://www.w3.org/2000/svg">
  <defs
     id="defs1" />
  <sodipodi:namedview
     id="namedview1"
     pagecolor="#ffffff"
     bordercolor="#000000"
     borderopacity="0.25"
     inkscape:showpageshadow="2"
     inkscape:pageopacity="0.0"
     inkscape:pagecheckerboard="0"
     inkscape:deskcolor="#d1d1d1"
     showguides="true"
     inkscape:zoom="1"
     inkscape:cx="246"
     inkscape:cy="97"
     inkscape:window-width="1920"
     inkscape:window-height="1016"
     inkscape:window-x="0"
     inkscape:window-y="27"
     inkscape:window-maximized="1"
     inkscape:current-layer="g1">
    <sodipodi:guide
       position="-248.73315,682.64252"
       orientation="1,0"
       id="guide1"
       inkscape:locked="false" />
    <sodipodi:guide
       position="287.30387,800.33338"
       orientation="0,-1"
       id="guide2"
       inkscape:locked="false" />
    <sodipodi:guide
       position="175.18041,453.92872"
       orientation="0,-1"
       id="guide3"
       inkscape:locked="false" />
    <sodipodi:guide
       position="309.18041,878.92872"
       orientation="1,0"
       id="guide4"
       inkscape:locked="false" />
  </sodipodi:namedview>
  <g
     inkscape:groupmode="layer"
     inkscape:label="Image"
     id="g1"
     transform="translate(-576.81959,-453.92872)">
    <path
       style="fill:#008000;stroke-width:3.09;stroke-linejoin:round"
       d="m 576.81959,456.02932 c 0,1.55646 4.55822,8.18007 7.20987,11.18527 2.65165,3.0052 9.7821,7.66216 10.99468,8.00536 1.21258,0.3432 9.38021,3.17507 9.38021,3.17507 0,0 3.97195,1.56061 5.38617,2.97483 1.41421,1.41421 3.71438,3.18405 4.77297,4.41941 1.05859,1.23537 1.76569,2.4728 3.53346,4.24057 1.76777,1.76777 1.55646,3.19925 4.58653,2.12132 3.03006,-1.07792 4.98427,-0.55795 5.5146,-3.20477 0.53033,-2.64681 0.88389,-3.5307 0.70711,-5.65202 -0.17678,-2.12132 -0.86869,-3.3332 -1.94454,-5.83363 -1.07586,-2.50042 -1.78711,-3.56661 -3.3781,-6.21826 -1.59099,-2.65165 -2.12132,-3.18198 -4.06586,-5.48007 -1.94454,-2.2981 -2.82636,-3.70817 -4.41735,-4.94561 -1.59099,-1.23743 -1.94868,-2.12339 -4.24264,-2.82842 -2.29395,-0.70504 -2.82981,-1.23537 -5.47593,-1.23537 -2.64613,0 -6.18166,0.53033 -9.18687,0.70711 -3.0052,0.17677 -4.9456,0.5324 -6.35981,-0.35149 -1.41422,-0.88388 -2.47557,-1.94247 -4.41528,-2.4728 -1.93971,-0.53033 -4.07415,-0.7071 -5.47524,-0.7071 -1.40109,0 -3.12398,2.1006 -3.12398,2.1006 z"
       id="path131" />
  </g>
</svg>
