<?xml version="1.0" encoding="UTF-8" standalone="no"?>
<!-- Created with Inkscape (http://www.inkscape.org/) -->

<svg
   version="1.1"
   id="svg1"
   width="45.987549"
   height="30.735174"
   viewBox="0 0 45.987548 30.735174"
   sodipodi:docname="cells_crop.svg"
   inkscape:version="1.3.2 (091e20ef0f, 2023-11-25)"
   xmlns:inkscape="http://www.inkscape.org/namespaces/inkscape"
   xmlns:sodipodi="http://sodipodi.sourceforge.net/DTD/sodipodi-0.dtd"
   xmlns="http://www.w3.org/2000/svg"
   xmlns:svg="http://www.w3.org/2000/svg">
  <defs
     id="defs1" />
  <sodipodi:namedview
     id="namedview1"
     pagecolor="#ffffff"
     bordercolor="#000000"
     borderopacity="0.25"
     inkscape:showpageshadow="2"
     inkscape:pageopacity="0.0"
     inkscape:pagecheckerboard="0"
     inkscape:deskcolor="#d1d1d1"
     showguides="true"
     inkscape:zoom="1"
     inkscape:cx="246"
     inkscape:cy="97"
     inkscape:window-width="1920"
     inkscape:window-height="1016"
     inkscape:window-x="0"
     inkscape:window-y="27"
     inkscape:window-maximized="1"
     inkscape:current-layer="g1">
    <sodipodi:guide
       position="-273.65965,806.8168"
       orientation="1,0"
       id="guide1"
       inkscape:locked="false" />
    <sodipodi:guide
       position="262.37738,924.50766"
       orientation="0,-1"
       id="guide2"
       inkscape:locked="false" />
    <sodipodi:guide
       position="150.25392,578.103"
       orientation="0,-1"
       id="guide3"
       inkscape:locked="false" />
    <sodipodi:guide
       position="284.25392,1003.103"
       orientation="1,0"
       id="guide4"
       inkscape:locked="false" />
  </sodipodi:namedview>
  <g
     inkscape:groupmode="layer"
     inkscape:label="Image"
     id="g1"
     transform="translate(-601.74608,-578.103)">
    <path
       style="fill:#008000;stroke-width:3.09;stroke-linejoin:round"
       d="m 610.00735,581.37643 c -0.55554,1.00852 -8.64514,12.42581 -8.24705,15.22006 0.39809,2.79424 2.86779,6.78242 5.16347,8.00881 2.29568,1.22639 5.09165,1.97562 9.98374,2.30811 4.89208,0.33249 7.3642,-0.21165 10.49991,0.63564 3.13572,0.84728 5.56778,1.28542 7.82271,1.2799 2.25494,-0.006 2.98967,0.16849 5.38652,-0.76787 2.39684,-0.93637 3.87976,-0.70435 4.86032,-2.04088 0.98056,-1.33653 2.25666,-3.74752 2.25666,-5.16174 0,-1.41421 -0.53861,-3.69366 -2.06055,-6.26521 -1.52194,-2.57155 -1.55439,-2.7725 -3.74338,-5.67101 -2.189,-2.89852 -1.36899,-4.3148 -6.22103,-7.15186 -4.85203,-2.83706 -7.93112,-3.75029 -11.37413,-3.66156 -3.443,0.0887 -6.32943,0.0314 -7.67183,0.47889 -1.3424,0.44746 -6.65536,2.78872 -6.65536,2.78872 z"
       id="path95" />
  </g>
</svg>
