<?xml version="1.0" encoding="UTF-8" standalone="no"?>
<!-- Created with Inkscape (http://www.inkscape.org/) -->

<svg
   version="1.1"
   id="svg1"
   width="45.135479"
   height="46.728413"
   viewBox="0 0 45.135479 46.728412"
   sodipodi:docname="cells_crop.svg"
   inkscape:version="1.3.2 (091e20ef0f, 2023-11-25)"
   xmlns:inkscape="http://www.inkscape.org/namespaces/inkscape"
   xmlns:sodipodi="http://sodipodi.sourceforge.net/DTD/sodipodi-0.dtd"
   xmlns="http://www.w3.org/2000/svg"
   xmlns:svg="http://www.w3.org/2000/svg">
  <defs
     id="defs1" />
  <sodipodi:namedview
     id="namedview1"
     pagecolor="#ffffff"
     bordercolor="#000000"
     borderopacity="0.25"
     inkscape:showpageshadow="2"
     inkscape:pageopacity="0.0"
     inkscape:pagecheckerboard="0"
     inkscape:deskcolor="#d1d1d1"
     showguides="true"
     inkscape:zoom="1"
     inkscape:cx="246"
     inkscape:cy="97"
     inkscape:window-width="1920"
     inkscape:window-height="1016"
     inkscape:window-x="0"
     inkscape:window-y="27"
     inkscape:window-maximized="1"
     inkscape:current-layer="g1">
    <sodipodi:guide
       position="-427.3957,570.78655"
       orientation="1,0"
       id="guide1"
       inkscape:locked="false" />
    <sodipodi:guide
       position="108.64132,688.47741"
       orientation="0,-1"
       id="guide2"
       inkscape:locked="false" />
    <sodipodi:guide
       position="-3.4821365,342.07275"
       orientation="0,-1"
       id="guide3"
       inkscape:locked="false" />
    <sodipodi:guide
       position="130.51786,767.07275"
       orientation="1,0"
       id="guide4"
       inkscape:locked="false" />
  </sodipodi:namedview>
  <g
     inkscape:groupmode="layer"
     inkscape:label="Image"
     id="g1"
     transform="translate(-755.48214,-342.07275)">
    <path
       style="fill:#008000;stroke-width:3.09;stroke-linejoin:round"
       d="m 755.48214,349.90841 c 0,0.46093 0.90529,8.892 2.21834,12.14994 1.31305,3.25794 1.40351,4.38765 4.81233,7.48401 3.40882,3.09635 5.2011,3.85352 8.42244,7.17637 3.22134,3.32285 2.66581,3.8373 7.78474,7.12079 5.11892,3.28349 8.81397,5.16036 13.05523,4.94491 4.24126,-0.21544 6.49447,-0.54586 7.40425,-2.4804 0.90978,-1.93453 2.8015,-1.73185 -0.15813,-8.48528 -2.95963,-6.75342 -4.73396,-10.20505 -7.75159,-12.70755 -3.01763,-2.50249 -6.65813,-5.48284 -8.62477,-7.91662 -1.96664,-2.43379 -2.35368,-2.83534 -4.89002,-6.0622 -2.53633,-3.22687 -3.78481,-4.63349 -6.08464,-6.38192 -2.29982,-1.74843 -3.44265,-2.76075 -5.12203,-2.67236 -1.67938,0.0884 -5.48042,0.68397 -6.89464,1.39108 -1.41421,0.7071 -3.00831,1.51399 -3.35392,2.20487 -0.34561,0.69088 -0.81759,4.23436 -0.81759,4.23436 z"
       id="path111" />
  </g>
</svg>
