<?xml version="1.0" encoding="UTF-8" standalone="no"?>
<!-- Created with Inkscape (http://www.inkscape.org/) -->

<svg
   version="1.1"
   id="svg1"
   width="43.633232"
   height="40.594704"
   viewBox="0 0 43.633232 40.594703"
   sodipodi:docname="cells_crop.svg"
   inkscape:version="1.3.2 (091e20ef0f, 2023-11-25)"
   xmlns:inkscape="http://www.inkscape.org/namespaces/inkscape"
   xmlns:sodipodi="http://sodipodi.sourceforge.net/DTD/sodipodi-0.dtd"
   xmlns="http://www.w3.org/2000/svg"
   xmlns:svg="http://www.w3.org/2000/svg">
  <defs
     id="defs1" />
  <sodipodi:namedview
     id="namedview1"
     pagecolor="#ffffff"
     bordercolor="#000000"
     borderopacity="0.25"
     inkscape:showpageshadow="2"
     inkscape:pageopacity="0.0"
     inkscape:pagecheckerboard="0"
     inkscape:deskcolor="#d1d1d1"
     showguides="true"
     inkscape:zoom="1"
     inkscape:cx="246"
     inkscape:cy="97"
     inkscape:window-width="1920"
     inkscape:window-height="1016"
     inkscape:window-x="0"
     inkscape:window-y="27"
     inkscape:window-maximized="1"
     inkscape:current-layer="g1">
    <sodipodi:guide
       position="-442.62542,553.54795"
       orientation="1,0"
       id="guide1"
       inkscape:locked="false" />
    <sodipodi:guide
       position="93.411604,671.23881"
       orientation="0,-1"
       id="guide2"
       inkscape:locked="false" />
    <sodipodi:guide
       position="-18.711856,324.83415"
       orientation="0,-1"
       id="guide3"
       inkscape:locked="false" />
    <sodipodi:guide
       position="115.28814,749.83415"
       orientation="1,0"
       id="guide4"
       inkscape:locked="false" />
  </sodipodi:namedview>
  <g
     inkscape:groupmode="layer"
     inkscape:label="Image"
     id="g1"
     transform="translate(-770.71186,-324.83415)">
    <path
       style="fill:#008000;stroke-width:3.09;stroke-linejoin:round"
       d="m 770.71635,329.04427 c -0.0884,0.42364 1.13489,10.90905 3.10084,13.2472 1.96595,2.33815 4.38179,3.72336 9.29148,8.50634 4.9097,4.78299 8.86266,7.76609 11.76463,9.95612 2.90197,2.19003 5.96518,4.19396 8.84505,4.47466 2.87987,0.2807 5.03227,0.4485 6.97716,-0.78893 1.94488,-1.23744 3.97816,-7.39182 3.60493,-8.95588 -0.37324,-1.56406 -1.94593,-5.93894 -3.36152,-7.26615 -1.4156,-1.3272 -5.40067,-5.31331 -6.6381,-6.63913 -1.23744,-1.32583 -3.08151,-2.72209 -4.23056,-3.78275 -1.14905,-1.06066 -3.96401,-3.42919 -4.58273,-3.87113 -0.61872,-0.44195 -3.7275,-2.48454 -5.05298,-3.10395 -1.32548,-0.61941 -4.25335,-1.7726 -5.39894,-2.30155 -1.1456,-0.52895 -3.17922,-1.41318 -4.32827,-1.85512 -1.14905,-0.44194 -4.71151,-1.71011 -5.31607,-1.79746 -0.60457,-0.0874 -2.5391,-0.006 -2.97034,0.34319 -0.43123,0.34907 -1.70458,3.83454 -1.70458,3.83454 z"
       id="path110" />
  </g>
</svg>
