<?xml version="1.0" encoding="UTF-8" standalone="no"?>
<!-- Created with Inkscape (http://www.inkscape.org/) -->

<svg
   version="1.1"
   id="svg1"
   width="35.742386"
   height="27.30134"
   viewBox="0 0 35.742386 27.30134"
   sodipodi:docname="cells_crop.svg"
   inkscape:version="1.3.2 (091e20ef0f, 2023-11-25)"
   xmlns:inkscape="http://www.inkscape.org/namespaces/inkscape"
   xmlns:sodipodi="http://sodipodi.sourceforge.net/DTD/sodipodi-0.dtd"
   xmlns="http://www.w3.org/2000/svg"
   xmlns:svg="http://www.w3.org/2000/svg">
  <defs
     id="defs1" />
  <sodipodi:namedview
     id="namedview1"
     pagecolor="#ffffff"
     bordercolor="#000000"
     borderopacity="0.25"
     inkscape:showpageshadow="2"
     inkscape:pageopacity="0.0"
     inkscape:pagecheckerboard="0"
     inkscape:deskcolor="#d1d1d1"
     showguides="true"
     inkscape:zoom="1"
     inkscape:cx="246"
     inkscape:cy="97"
     inkscape:window-width="1920"
     inkscape:window-height="1016"
     inkscape:window-x="0"
     inkscape:window-y="27"
     inkscape:window-maximized="1"
     inkscape:current-layer="g1">
    <sodipodi:guide
       position="-520.8859,814.90355"
       orientation="1,0"
       id="guide1"
       inkscape:locked="false" />
    <sodipodi:guide
       position="15.151124,932.59441"
       orientation="0,-1"
       id="guide2"
       inkscape:locked="false" />
    <sodipodi:guide
       position="-96.972336,586.18975"
       orientation="0,-1"
       id="guide3"
       inkscape:locked="false" />
    <sodipodi:guide
       position="37.027664,1011.1897"
       orientation="1,0"
       id="guide4"
       inkscape:locked="false" />
  </sodipodi:namedview>
  <g
     inkscape:groupmode="layer"
     inkscape:label="Image"
     id="g1"
     transform="translate(-848.97234,-586.18975)">
    <path
       style="fill:#008000;stroke-width:3.09;stroke-linejoin:round"
       d="m 851.99462,591.37191 c -0.53033,2.41894 -3.48927,10.30207 -2.95894,12.95372 0.53033,2.65165 0.34595,4.76745 3.18198,6.71752 2.83602,1.95006 18.14102,2.27323 18.14102,2.27323 0,0 6.43992,0.17471 7.47641,0.17471 1.03649,0 2.41134,-0.19059 3.14883,-0.53033 0.73749,-0.33974 1.9991,-0.53793 2.64889,-1.53713 0.64979,-0.9992 1.00335,-1.34654 1.00335,-3.63842 0,-2.29188 0.17677,-3.34564 0,-6.17407 -0.17678,-2.82842 0,-3.53691 -0.53033,-6.00764 -0.53033,-2.47073 -1.23951,-4.24195 -1.94248,-5.4711 -0.70296,-1.22915 -0.96743,-2.31605 -2.28152,-2.98449 -1.31409,-0.66844 -0.77478,-1.19877 -3.77998,-0.84521 -3.00521,0.35355 -3.896,0.7071 -6.89429,1.06066 -2.9983,0.35355 -6.71959,0.7071 -8.12483,1.06066 -1.40523,0.35355 -4.05274,0.7071 -4.05274,0.7071 z"
       id="path118" />
  </g>
</svg>
