<?xml version="1.0" encoding="UTF-8" standalone="no"?>
<!-- Created with Inkscape (http://www.inkscape.org/) -->

<svg
   version="1.1"
   id="svg1"
   width="49.381519"
   height="45.286297"
   viewBox="0 0 49.381519 45.286296"
   sodipodi:docname="cells_crop.svg"
   inkscape:version="1.3.2 (091e20ef0f, 2023-11-25)"
   xmlns:inkscape="http://www.inkscape.org/namespaces/inkscape"
   xmlns:sodipodi="http://sodipodi.sourceforge.net/DTD/sodipodi-0.dtd"
   xmlns="http://www.w3.org/2000/svg"
   xmlns:svg="http://www.w3.org/2000/svg">
  <defs
     id="defs1" />
  <sodipodi:namedview
     id="namedview1"
     pagecolor="#ffffff"
     bordercolor="#000000"
     borderopacity="0.25"
     inkscape:showpageshadow="2"
     inkscape:pageopacity="0.0"
     inkscape:pagecheckerboard="0"
     inkscape:deskcolor="#d1d1d1"
     showguides="true"
     inkscape:zoom="1"
     inkscape:cx="246"
     inkscape:cy="97"
     inkscape:window-width="1920"
     inkscape:window-height="1016"
     inkscape:window-x="0"
     inkscape:window-y="27"
     inkscape:window-maximized="1"
     inkscape:current-layer="g1">
    <sodipodi:guide
       position="-238.14158,691.24711"
       orientation="1,0"
       id="guide1"
       inkscape:locked="false" />
    <sodipodi:guide
       position="297.89544,808.93797"
       orientation="0,-1"
       id="guide2"
       inkscape:locked="false" />
    <sodipodi:guide
       position="185.77198,462.53331"
       orientation="0,-1"
       id="guide3"
       inkscape:locked="false" />
    <sodipodi:guide
       position="319.77198,887.53331"
       orientation="1,0"
       id="guide4"
       inkscape:locked="false" />
  </sodipodi:namedview>
  <g
     inkscape:groupmode="layer"
     inkscape:label="Image"
     id="g1"
     transform="translate(-566.22802,-462.53331)">
    <path
       style="fill:#008000;stroke-width:3.09;stroke-linejoin:round"
       d="m 578.0446,467.11135 c 4.31308,4.15529 11.91689,8.32854 15.09128,9.32049 3.17438,0.99195 8.01157,2.34954 11.44042,4.00475 3.42884,1.65521 5.77562,2.61747 8.05922,5.73972 2.28359,3.12225 3.20684,3.83004 2.92475,7.46778 -0.28208,3.63773 -0.27448,5.36268 -1.76362,7.77575 -1.48914,2.41308 -2.23319,3.33874 -5.39169,4.5047 -3.1585,1.16597 -7.13218,2.41653 -9.23451,1.66937 -2.10233,-0.74716 -6.16992,-1.75534 -10.12599,-4.11524 -3.95607,-2.3599 -8.02124,-4.70046 -11.45423,-5.93203 -3.43299,-1.23157 -3.7862,2.29706 -7.28893,-3.85836 -3.50274,-6.15542 -4.6145,-5.7411 -3.83799,-9.74447 0.77651,-4.00337 1.99185,-7.15359 1.99185,-10.26513 0,-3.11155 -0.35356,-5.015 -0.0884,-7.13633 0.26516,-2.12132 0.54483,-3.81002 1.24261,-3.98679 0.69779,-0.17678 2.8084,0.74715 3.51309,1.09829 0.70469,0.35114 4.92213,3.4575 4.92213,3.4575 z"
       id="path76" />
  </g>
</svg>
