<?xml version="1.0" encoding="UTF-8" standalone="no"?>
<!-- Created with Inkscape (http://www.inkscape.org/) -->

<svg
   version="1.1"
   id="svg1"
   width="38.399261"
   height="46.564606"
   viewBox="0 0 38.399261 46.564605"
   sodipodi:docname="cells_crop.svg"
   inkscape:version="1.3.2 (091e20ef0f, 2023-11-25)"
   xmlns:inkscape="http://www.inkscape.org/namespaces/inkscape"
   xmlns:sodipodi="http://sodipodi.sourceforge.net/DTD/sodipodi-0.dtd"
   xmlns="http://www.w3.org/2000/svg"
   xmlns:svg="http://www.w3.org/2000/svg">
  <defs
     id="defs1" />
  <sodipodi:namedview
     id="namedview1"
     pagecolor="#ffffff"
     bordercolor="#000000"
     borderopacity="0.25"
     inkscape:showpageshadow="2"
     inkscape:pageopacity="0.0"
     inkscape:pagecheckerboard="0"
     inkscape:deskcolor="#d1d1d1"
     showguides="true"
     inkscape:zoom="1"
     inkscape:cx="246"
     inkscape:cy="97"
     inkscape:window-width="1920"
     inkscape:window-height="1016"
     inkscape:window-x="0"
     inkscape:window-y="27"
     inkscape:window-maximized="1"
     inkscape:current-layer="g1">
    <sodipodi:guide
       position="-108.16505,737.74638"
       orientation="1,0"
       id="guide1"
       inkscape:locked="false" />
    <sodipodi:guide
       position="427.87198,855.43724"
       orientation="0,-1"
       id="guide2"
       inkscape:locked="false" />
    <sodipodi:guide
       position="315.74852,509.03258"
       orientation="0,-1"
       id="guide3"
       inkscape:locked="false" />
    <sodipodi:guide
       position="449.74852,934.03258"
       orientation="1,0"
       id="guide4"
       inkscape:locked="false" />
  </sodipodi:namedview>
  <g
     inkscape:groupmode="layer"
     inkscape:label="Image"
     id="g1"
     transform="translate(-436.25149,-509.03258)">
    <path
       style="fill:#008000;stroke-width:3.09;stroke-linejoin:round"
       d="m 451.85115,515.01207 c 0,0 -7.22572,7.77643 -9.86652,11.35546 -2.64081,3.57903 -6.14863,6.79072 -5.69287,9.98105 0.45576,3.19033 5.02762,9.58523 6.3949,10.64868 1.36729,1.06344 16.72609,9.03689 18.81025,8.58113 2.08416,-0.45576 2.53398,0.30799 4.81872,-1.51921 2.28474,-1.8272 5.85784,-4.50717 6.92129,-7.39366 1.06344,-2.88649 1.54056,-3.55648 1.38508,-8.92651 -0.15548,-5.37003 0.28663,-8.66124 -0.66643,-13.25565 -0.95306,-4.59441 -1.85331,-8.88675 -3.38082,-11.02313 -1.52752,-2.13639 -4.12441,-4.42765 -4.12441,-4.42765 0,0 -5.57773,0.4605 -6.94323,1.37025 -1.36551,0.90974 -7.65596,4.60924 -7.65596,4.60924 z"
       id="path24" />
  </g>
</svg>
