<?xml version="1.0" encoding="UTF-8" standalone="no"?>
<!-- Created with Inkscape (http://www.inkscape.org/) -->

<svg
   version="1.1"
   id="svg1"
   width="21.358917"
   height="34.150211"
   viewBox="0 0 21.358917 34.150211"
   sodipodi:docname="cells_crop.svg"
   inkscape:version="1.3.2 (091e20ef0f, 2023-11-25)"
   xmlns:inkscape="http://www.inkscape.org/namespaces/inkscape"
   xmlns:sodipodi="http://sodipodi.sourceforge.net/DTD/sodipodi-0.dtd"
   xmlns="http://www.w3.org/2000/svg"
   xmlns:svg="http://www.w3.org/2000/svg">
  <defs
     id="defs1" />
  <sodipodi:namedview
     id="namedview1"
     pagecolor="#ffffff"
     bordercolor="#000000"
     borderopacity="0.25"
     inkscape:showpageshadow="2"
     inkscape:pageopacity="0.0"
     inkscape:pagecheckerboard="0"
     inkscape:deskcolor="#d1d1d1"
     showguides="true"
     inkscape:zoom="1"
     inkscape:cx="246"
     inkscape:cy="97"
     inkscape:window-width="1920"
     inkscape:window-height="1016"
     inkscape:window-x="0"
     inkscape:window-y="27"
     inkscape:window-maximized="1"
     inkscape:current-layer="g1">
    <sodipodi:guide
       position="-520.59535,622.11907"
       orientation="1,0"
       id="guide1"
       inkscape:locked="false" />
    <sodipodi:guide
       position="15.44168,739.80993"
       orientation="0,-1"
       id="guide2"
       inkscape:locked="false" />
    <sodipodi:guide
       position="-96.68178,393.40527"
       orientation="0,-1"
       id="guide3"
       inkscape:locked="false" />
    <sodipodi:guide
       position="37.31822,818.40527"
       orientation="1,0"
       id="guide4"
       inkscape:locked="false" />
  </sodipodi:namedview>
  <g
     inkscape:groupmode="layer"
     inkscape:label="Image"
     id="g1"
     transform="translate(-848.68178,-393.40527)">
    <path
       style="fill:#008000;stroke-width:3.09;stroke-linejoin:round"
       d="m 861.96972,395.24805 c 0,0 2.30567,6.32763 2.93067,8.95263 0.625,2.625 1.10205,3.81836 2.38183,7.01905 1.27979,3.20068 2.15528,5.32568 2.28272,7.71679 0.12744,2.39112 1.00244,3.39112 0.002,5.51612 -1,2.125 -0.875,3.5 -4,3 -3.125,-0.5 -7.93457,-1.39112 -9.04785,-1.76465 -1.11328,-0.37354 -4.36182,-1.37354 -4.36182,-1.37354 0,0 -1.46093,-1.71338 -1.21093,-3.08398 0.25,-1.37061 1.49121,-4.4834 1.49121,-4.4834 0,0 0.34961,-3.82617 0.10254,-4.54053 -0.24708,-0.71435 -0.49756,-1.33789 -0.99561,-2.83301 -0.49805,-1.49511 -0.75147,-2.49707 -1.12012,-3.48535 -0.36865,-0.98828 -0.74365,-1.23926 -1.11865,-2.61133 -0.375,-1.37207 -1.125,-1.62207 -0.125,-3.49707 1,-1.875 1.375,-2.625 2.5,-3.625 1.125,-1 2.51025,-1.88232 3.50195,-2.25341 0.9917,-0.3711 2.60791,-0.4961 2.60791,-0.4961 z"
       id="path128" />
  </g>
</svg>
