<?xml version="1.0" encoding="UTF-8" standalone="no"?>
<!-- Created with Inkscape (http://www.inkscape.org/) -->

<svg
   version="1.1"
   id="svg1"
   width="47.477962"
   height="31.28846"
   viewBox="0 0 47.477962 31.288459"
   sodipodi:docname="cells_crop.svg"
   inkscape:version="1.3.2 (091e20ef0f, 2023-11-25)"
   xmlns:inkscape="http://www.inkscape.org/namespaces/inkscape"
   xmlns:sodipodi="http://sodipodi.sourceforge.net/DTD/sodipodi-0.dtd"
   xmlns="http://www.w3.org/2000/svg"
   xmlns:svg="http://www.w3.org/2000/svg">
  <defs
     id="defs1" />
  <sodipodi:namedview
     id="namedview1"
     pagecolor="#ffffff"
     bordercolor="#000000"
     borderopacity="0.25"
     inkscape:showpageshadow="2"
     inkscape:pageopacity="0.0"
     inkscape:pagecheckerboard="0"
     inkscape:deskcolor="#d1d1d1"
     showguides="true"
     inkscape:zoom="1"
     inkscape:cx="246"
     inkscape:cy="97"
     inkscape:window-width="1920"
     inkscape:window-height="1016"
     inkscape:window-x="0"
     inkscape:window-y="27"
     inkscape:window-maximized="1"
     inkscape:current-layer="g1">
    <sodipodi:guide
       position="-83.325017,566.71235"
       orientation="1,0"
       id="guide1"
       inkscape:locked="false" />
    <sodipodi:guide
       position="452.71201,684.40321"
       orientation="0,-1"
       id="guide2"
       inkscape:locked="false" />
    <sodipodi:guide
       position="340.58855,337.99855"
       orientation="0,-1"
       id="guide3"
       inkscape:locked="false" />
    <sodipodi:guide
       position="474.58855,762.99855"
       orientation="1,0"
       id="guide4"
       inkscape:locked="false" />
  </sodipodi:namedview>
  <g
     inkscape:groupmode="layer"
     inkscape:label="Image"
     id="g1"
     transform="translate(-411.41145,-337.99855)">
    <path
       style="fill:#008000;stroke-width:3.09;stroke-linejoin:round"
       d="m 437.35446,337.99862 c -1.62268,0 -10.82884,1.86817 -13.78006,5.05858 -2.95122,3.19041 -6.03169,4.31038 -8.42313,7.02158 -2.39144,2.7112 -5.20167,5.1446 -2.85974,8.23766 2.34193,3.09305 4.38214,4.90961 7.0241,6.45551 2.64196,1.5459 6.73036,2.65412 9.16041,2.99864 2.43005,0.34451 4.21681,0.45193 5.9356,0.7742 1.71878,0.32228 3.96965,1.29203 5.80089,0.32228 1.83124,-0.96976 1.54296,-0.0478 4.53866,-2.3776 2.9957,-2.32976 3.29112,-2.7221 5.88944,-4.67042 2.59832,-1.94832 6.48488,-4.32592 7.022,-5.50758 0.53712,-1.18166 2.05029,-3.15894 0.64455,-6.15464 -1.40575,-2.9957 -0.40788,-4.5802 -4.74764,-6.33801 -4.33976,-1.75781 -7.38456,-2.60419 -8.56622,-3.46359 -1.18167,-0.85939 -2.79806,-1.93657 -4.08715,-2.15141 -1.28909,-0.21485 -3.55171,-0.2052 -3.55171,-0.2052 z"
       id="path45" />
  </g>
</svg>
