<?xml version="1.0" encoding="UTF-8" standalone="no"?>
<!-- Created with Inkscape (http://www.inkscape.org/) -->

<svg
   version="1.1"
   id="svg1"
   width="29.548212"
   height="41.335369"
   viewBox="0 0 29.548212 41.335369"
   sodipodi:docname="cells_crop.svg"
   inkscape:version="1.3.2 (091e20ef0f, 2023-11-25)"
   xmlns:inkscape="http://www.inkscape.org/namespaces/inkscape"
   xmlns:sodipodi="http://sodipodi.sourceforge.net/DTD/sodipodi-0.dtd"
   xmlns="http://www.w3.org/2000/svg"
   xmlns:svg="http://www.w3.org/2000/svg">
  <defs
     id="defs1" />
  <sodipodi:namedview
     id="namedview1"
     pagecolor="#ffffff"
     bordercolor="#000000"
     borderopacity="0.25"
     inkscape:showpageshadow="2"
     inkscape:pageopacity="0.0"
     inkscape:pagecheckerboard="0"
     inkscape:deskcolor="#d1d1d1"
     showguides="true"
     inkscape:zoom="1"
     inkscape:cx="246"
     inkscape:cy="97"
     inkscape:window-width="1920"
     inkscape:window-height="1016"
     inkscape:window-x="0"
     inkscape:window-y="27"
     inkscape:window-maximized="1"
     inkscape:current-layer="g1">
    <sodipodi:guide
       position="-35.568173,521.52402"
       orientation="1,0"
       id="guide1"
       inkscape:locked="false" />
    <sodipodi:guide
       position="500.46885,639.21488"
       orientation="0,-1"
       id="guide2"
       inkscape:locked="false" />
    <sodipodi:guide
       position="388.34539,292.81022"
       orientation="0,-1"
       id="guide3"
       inkscape:locked="false" />
    <sodipodi:guide
       position="522.34539,717.81022"
       orientation="1,0"
       id="guide4"
       inkscape:locked="false" />
  </sodipodi:namedview>
  <g
     inkscape:groupmode="layer"
     inkscape:label="Image"
     id="g1"
     transform="translate(-363.65461,-292.81022)">
    <path
       style="fill:#008000;stroke-width:3.09;stroke-linejoin:round"
       d="m 367.60023,293.38544 c -0.80516,1.15941 -4.11558,9.47447 -3.9388,10.35835 0.17677,0.88389 -0.26517,3.08462 0.53033,4.85273 0.79549,1.76811 1.14904,2.12167 2.47487,3.27072 1.32582,1.14904 1.06066,0.7071 2.47487,1.59099 1.41422,0.88388 3.00486,1.85581 3.97506,2.3851 0.9702,0.52929 2.46866,1.41111 2.9106,2.02982 0.44194,0.61872 1.94109,2.99934 1.94109,2.99934 0,0 3.0936,10.57 3.27037,11.27711 0.17678,0.70711 0.7627,1.99599 0.7627,1.99599 l 1.70631,-1.63795 1.40489,-2.36784 c 0,0 1.67144,-2.45865 2.37854,-3.34253 0.70711,-0.88388 2.03293,-2.20971 2.82843,-3.18198 0.79549,-0.97227 2.03431,-1.77018 2.38648,-2.65165 0.35218,-0.88147 0.61734,-1.77018 0.44057,-2.64371 -0.17678,-0.87353 -0.8863,-2.47039 -1.23744,-3.26001 -0.35114,-0.78963 -1.32962,-2.03569 -2.67409,-3.46855 -1.34447,-1.43286 -2.02361,-1.76328 -4.06759,-3.60528 -2.04398,-1.842 -4.3842,-2.91785 -5.57572,-4.47017 -1.19152,-1.55232 -1.54611,-2.17208 -2.78492,-4.3842 -1.23882,-2.21213 -1.23986,-2.39029 -2.6596,-3.72198 -1.41973,-1.3317 -3.22928,-2.59952 -3.22928,-2.59952 z"
       id="path52" />
  </g>
</svg>
