<?xml version="1.0" encoding="UTF-8" standalone="no"?>
<!-- Created with Inkscape (http://www.inkscape.org/) -->

<svg
   version="1.1"
   id="svg1"
   width="41.41568"
   height="31.915562"
   viewBox="0 0 41.41568 31.915561"
   sodipodi:docname="cells_crop.svg"
   inkscape:version="1.3.2 (091e20ef0f, 2023-11-25)"
   xmlns:inkscape="http://www.inkscape.org/namespaces/inkscape"
   xmlns:sodipodi="http://sodipodi.sourceforge.net/DTD/sodipodi-0.dtd"
   xmlns="http://www.w3.org/2000/svg"
   xmlns:svg="http://www.w3.org/2000/svg">
  <defs
     id="defs1" />
  <sodipodi:namedview
     id="namedview1"
     pagecolor="#ffffff"
     bordercolor="#000000"
     borderopacity="0.25"
     inkscape:showpageshadow="2"
     inkscape:pageopacity="0.0"
     inkscape:pagecheckerboard="0"
     inkscape:deskcolor="#d1d1d1"
     showguides="true"
     inkscape:zoom="1"
     inkscape:cx="246"
     inkscape:cy="97"
     inkscape:window-width="1920"
     inkscape:window-height="1016"
     inkscape:window-x="0"
     inkscape:window-y="27"
     inkscape:window-maximized="1"
     inkscape:current-layer="g1">
    <sodipodi:guide
       position="-194.31727,782.34509"
       orientation="1,0"
       id="guide1"
       inkscape:locked="false" />
    <sodipodi:guide
       position="341.71976,900.03595"
       orientation="0,-1"
       id="guide2"
       inkscape:locked="false" />
    <sodipodi:guide
       position="229.5963,553.63129"
       orientation="0,-1"
       id="guide3"
       inkscape:locked="false" />
    <sodipodi:guide
       position="363.5963,978.63129"
       orientation="1,0"
       id="guide4"
       inkscape:locked="false" />
  </sodipodi:namedview>
  <g
     inkscape:groupmode="layer"
     inkscape:label="Image"
     id="g1"
     transform="translate(-522.4037,-553.63129)">
    <path
       style="fill:#008000;stroke-width:3.09;stroke-linejoin:round"
       d="m 537.63813,555.11728 c -1.40705,0.75249 -9.60244,5.92015 -11.27357,8.35088 -1.67112,2.43073 -4.106,3.95705 -3.95408,6.69162 0.15192,2.73457 3.43779,8.66362 5.7166,10.0309 2.2788,1.36729 0.6688,1.50081 5.77713,2.88887 5.10832,1.38805 11.39225,2.60638 14.27874,2.45446 2.88649,-0.15192 4.8027,0.21601 7.61204,-2.28771 2.80934,-2.50372 4.58966,-2.47642 5.80621,-5.97296 1.21655,-3.49655 3.16422,-4.72675 1.68774,-9.13185 -1.47647,-4.40509 -1.19934,-6.66906 -4.45673,-9.44577 -3.25738,-2.7767 -5.53678,-4.84958 -7.20375,-5.0015 -1.66698,-0.15192 -5.03712,0 -6.4044,0.15192 -1.36728,0.15192 -7.58593,1.27114 -7.58593,1.27114 z"
       id="path33" />
  </g>
</svg>
