<?xml version="1.0" encoding="UTF-8" standalone="no"?>
<!-- Created with Inkscape (http://www.inkscape.org/) -->

<svg
   version="1.1"
   id="svg1"
   width="18.335043"
   height="27.748613"
   viewBox="0 0 18.335043 27.748613"
   sodipodi:docname="cells_crop.svg"
   inkscape:version="1.3.2 (091e20ef0f, 2023-11-25)"
   xmlns:inkscape="http://www.inkscape.org/namespaces/inkscape"
   xmlns:sodipodi="http://sodipodi.sourceforge.net/DTD/sodipodi-0.dtd"
   xmlns="http://www.w3.org/2000/svg"
   xmlns:svg="http://www.w3.org/2000/svg">
  <defs
     id="defs1" />
  <sodipodi:namedview
     id="namedview1"
     pagecolor="#ffffff"
     bordercolor="#000000"
     borderopacity="0.25"
     inkscape:showpageshadow="2"
     inkscape:pageopacity="0.0"
     inkscape:pagecheckerboard="0"
     inkscape:deskcolor="#d1d1d1"
     showguides="true"
     inkscape:zoom="1"
     inkscape:cx="246"
     inkscape:cy="97"
     inkscape:window-width="1920"
     inkscape:window-height="1016"
     inkscape:window-x="0"
     inkscape:window-y="27"
     inkscape:window-maximized="1"
     inkscape:current-layer="g1">
    <sodipodi:guide
       position="-196.28608,508.12273"
       orientation="1,0"
       id="guide1"
       inkscape:locked="false" />
    <sodipodi:guide
       position="339.75095,625.81359"
       orientation="0,-1"
       id="guide2"
       inkscape:locked="false" />
    <sodipodi:guide
       position="227.62749,279.40893"
       orientation="0,-1"
       id="guide3"
       inkscape:locked="false" />
    <sodipodi:guide
       position="361.62749,704.40893"
       orientation="1,0"
       id="guide4"
       inkscape:locked="false" />
  </sodipodi:namedview>
  <g
     inkscape:groupmode="layer"
     inkscape:label="Image"
     id="g1"
     transform="translate(-524.37252,-279.40893)">
    <path
       style="fill:#008000;stroke-width:3.09;stroke-linejoin:round"
       d="m 526.68945,282.90893 c 0,0 -0.11792,3.59839 -0.56738,5.26978 -0.44946,1.67139 -1.04297,2.00269 -1.31421,4.20532 -0.27124,2.20264 -0.7727,2.69287 -0.0989,5.75757 0.67383,3.0647 0.77173,4.42749 2.27686,6.05591 1.50513,1.62842 2.73169,2.7041 4.36841,2.8291 1.63672,0.125 2.01782,0.375 3.33447,-0.50342 1.31665,-0.87842 2.07886,-0.93847 2.97925,-2.41772 0.90039,-1.47925 1.11352,-1.68164 2.00683,-4.0857 0.89331,-2.40405 0.88477,-1.1538 1.76709,-4.34326 0.88233,-3.18945 1.97559,-4.10278 0.64649,-7.77929 -1.3291,-3.67652 -1.95557,-5.2251 -3.35694,-6.37037 -1.40136,-1.14526 -2.71606,-2.11792 -3.59106,-2.11792 -0.875,0 -3.32837,0.44068 -3.82227,0.74854 -0.49389,0.30786 -1.24707,0.80859 -1.74389,1.05786 -0.49683,0.24927 -2.88477,1.6936 -2.88477,1.6936 z"
       id="path56" />
  </g>
</svg>
