<?xml version="1.0" encoding="UTF-8" standalone="no"?>
<!-- Created with Inkscape (http://www.inkscape.org/) -->

<svg
   version="1.1"
   id="svg1"
   width="26.187836"
   height="32.058979"
   viewBox="0 0 26.187835 32.058979"
   sodipodi:docname="cells_crop.svg"
   inkscape:version="1.3.2 (091e20ef0f, 2023-11-25)"
   xmlns:inkscape="http://www.inkscape.org/namespaces/inkscape"
   xmlns:sodipodi="http://sodipodi.sourceforge.net/DTD/sodipodi-0.dtd"
   xmlns="http://www.w3.org/2000/svg"
   xmlns:svg="http://www.w3.org/2000/svg">
  <defs
     id="defs1" />
  <sodipodi:namedview
     id="namedview1"
     pagecolor="#ffffff"
     bordercolor="#000000"
     borderopacity="0.25"
     inkscape:showpageshadow="2"
     inkscape:pageopacity="0.0"
     inkscape:pagecheckerboard="0"
     inkscape:deskcolor="#d1d1d1"
     showguides="true"
     inkscape:zoom="1"
     inkscape:cx="246"
     inkscape:cy="97"
     inkscape:window-width="1920"
     inkscape:window-height="1016"
     inkscape:window-x="0"
     inkscape:window-y="27"
     inkscape:window-maximized="1"
     inkscape:current-layer="g1">
    <sodipodi:guide
       position="-208.60933,564.19532"
       orientation="1,0"
       id="guide1"
       inkscape:locked="false" />
    <sodipodi:guide
       position="327.42769,681.88618"
       orientation="0,-1"
       id="guide2"
       inkscape:locked="false" />
    <sodipodi:guide
       position="215.30423,335.48152"
       orientation="0,-1"
       id="guide3"
       inkscape:locked="false" />
    <sodipodi:guide
       position="349.30423,760.48152"
       orientation="1,0"
       id="guide4"
       inkscape:locked="false" />
  </sodipodi:namedview>
  <g
     inkscape:groupmode="layer"
     inkscape:label="Image"
     id="g1"
     transform="translate(-536.69577,-335.48152)">
    <path
       style="fill:#008000;stroke-width:3.09;stroke-linejoin:round"
       d="m 536.69577,345.20622 c 0,0.70123 0.1426,9.20205 0.9519,10.90836 0.80931,1.70631 4.95769,7.9042 6.65571,9.32048 1.69803,1.41629 5.66342,2.10717 7.55237,2.10544 1.88896,-0.002 6.90017,-0.56486 8.13967,-1.45185 1.23951,-0.88699 3.76514,-2.24251 2.57949,-6.28765 -1.18564,-4.04515 -0.85384,-5.14207 -3.59802,-7.67978 -2.74419,-2.53771 -4.69253,-4.00026 -6.51761,-6.20306 -1.82508,-2.20281 -3.79379,-4.388 -4.88932,-6.39297 -1.09554,-2.00496 -1.8641,-4.12939 -2.29051,-4.041 -0.4264,0.0884 -4.28994,2.49593 -4.82027,3.02626 -0.53033,0.53033 -2.65821,2.3057 -2.92234,2.83395 -0.26413,0.52826 -0.84107,3.86182 -0.84107,3.86182 z"
       id="path58" />
  </g>
</svg>
