<?xml version="1.0" encoding="UTF-8" standalone="no"?>
<!-- Created with Inkscape (http://www.inkscape.org/) -->

<svg
   version="1.1"
   id="svg1"
   width="36.659107"
   height="26.300476"
   viewBox="0 0 36.659107 26.300476"
   sodipodi:docname="cells_crop.svg"
   inkscape:version="1.3.2 (091e20ef0f, 2023-11-25)"
   xmlns:inkscape="http://www.inkscape.org/namespaces/inkscape"
   xmlns:sodipodi="http://sodipodi.sourceforge.net/DTD/sodipodi-0.dtd"
   xmlns="http://www.w3.org/2000/svg"
   xmlns:svg="http://www.w3.org/2000/svg">
  <defs
     id="defs1" />
  <sodipodi:namedview
     id="namedview1"
     pagecolor="#ffffff"
     bordercolor="#000000"
     borderopacity="0.25"
     inkscape:showpageshadow="2"
     inkscape:pageopacity="0.0"
     inkscape:pagecheckerboard="0"
     inkscape:deskcolor="#d1d1d1"
     showguides="true"
     inkscape:zoom="1"
     inkscape:cx="246"
     inkscape:cy="97"
     inkscape:window-width="1920"
     inkscape:window-height="1016"
     inkscape:window-x="0"
     inkscape:window-y="27"
     inkscape:window-maximized="1"
     inkscape:current-layer="g1">
    <sodipodi:guide
       position="-375.93286,497.63617"
       orientation="1,0"
       id="guide1"
       inkscape:locked="false" />
    <sodipodi:guide
       position="160.10417,615.32703"
       orientation="0,-1"
       id="guide2"
       inkscape:locked="false" />
    <sodipodi:guide
       position="47.980707,268.92237"
       orientation="0,-1"
       id="guide3"
       inkscape:locked="false" />
    <sodipodi:guide
       position="181.98071,693.92237"
       orientation="1,0"
       id="guide4"
       inkscape:locked="false" />
  </sodipodi:namedview>
  <g
     inkscape:groupmode="layer"
     inkscape:label="Image"
     id="g1"
     transform="translate(-704.0193,-268.92237)">
    <path
       style="fill:#008000;stroke-width:3.09;stroke-linejoin:round"
       d="m 704.29665,271.34394 c 1.99047,3.17577 8.35236,9.69061 11.24776,13.65048 2.89541,3.95986 2.11442,6.93779 7.97049,8.45248 5.85608,1.51468 7.02101,3.03593 10.21818,0.12291 3.19717,-2.91302 4.35934,-3.52138 5.45349,-6.35291 1.09415,-2.83154 1.871,-4.40388 1.2982,-7.53304 -0.57279,-3.12915 -0.40154,-4.32792 -2.10371,-5.84675 -1.70216,-1.51883 -3.30662,-3.05181 -5.26843,-3.49375 -1.9618,-0.44195 -5.54533,-1.06722 -8.59991,-1.06722 -3.05457,0 -6.82592,-0.004 -9.66436,-0.0932 -2.83844,-0.0887 -4.22089,-3.4e-4 -5.81188,-0.0887 -1.59099,-0.0884 -4.45015,-0.33802 -4.86136,0 -0.41122,0.33802 0.12153,2.24976 0.12153,2.24976 z"
       id="path89" />
  </g>
</svg>
