<?xml version="1.0" encoding="UTF-8" standalone="no"?>
<!-- Created with Inkscape (http://www.inkscape.org/) -->

<svg
   version="1.1"
   id="svg1"
   width="39.412643"
   height="37.059231"
   viewBox="0 0 39.412643 37.05923"
   sodipodi:docname="cells_crop.svg"
   inkscape:version="1.3.2 (091e20ef0f, 2023-11-25)"
   xmlns:inkscape="http://www.inkscape.org/namespaces/inkscape"
   xmlns:sodipodi="http://sodipodi.sourceforge.net/DTD/sodipodi-0.dtd"
   xmlns="http://www.w3.org/2000/svg"
   xmlns:svg="http://www.w3.org/2000/svg">
  <defs
     id="defs1" />
  <sodipodi:namedview
     id="namedview1"
     pagecolor="#ffffff"
     bordercolor="#000000"
     borderopacity="0.25"
     inkscape:showpageshadow="2"
     inkscape:pageopacity="0.0"
     inkscape:pagecheckerboard="0"
     inkscape:deskcolor="#d1d1d1"
     showguides="true"
     inkscape:zoom="1"
     inkscape:cx="246"
     inkscape:cy="97"
     inkscape:window-width="1920"
     inkscape:window-height="1016"
     inkscape:window-x="0"
     inkscape:window-y="27"
     inkscape:window-maximized="1"
     inkscape:current-layer="g1">
    <sodipodi:guide
       position="-116.82075,580.52973"
       orientation="1,0"
       id="guide1"
       inkscape:locked="false" />
    <sodipodi:guide
       position="419.21627,698.22059"
       orientation="0,-1"
       id="guide2"
       inkscape:locked="false" />
    <sodipodi:guide
       position="307.09281,351.81593"
       orientation="0,-1"
       id="guide3"
       inkscape:locked="false" />
    <sodipodi:guide
       position="441.09281,776.81593"
       orientation="1,0"
       id="guide4"
       inkscape:locked="false" />
  </sodipodi:namedview>
  <g
     inkscape:groupmode="layer"
     inkscape:label="Image"
     id="g1"
     transform="translate(-444.90719,-351.81593)">
    <path
       style="fill:#008000;stroke-width:3.09;stroke-linejoin:round"
       d="m 458.15233,358.58122 c -2.8203,2.49006 -7.90783,5.72243 -7.90783,5.72243 0,0 -6.3313,12.87493 -5.20251,15.57689 1.12879,2.70197 -0.65755,3.66878 3.88909,5.34267 4.54663,1.67388 11.25853,3.03388 13.78677,3.35616 2.52824,0.32227 4.90835,0.87449 9.43023,-1.48883 4.52188,-2.36333 7.45967,-3.25839 9.29679,-6.41943 1.83712,-3.16103 3.40778,-3.91845 2.70281,-10.22541 -0.70497,-6.30697 -0.42424,-7.9435 -1.98147,-11.96267 -1.55723,-4.01917 -2.02847,-6.77149 -5.04389,-6.66406 -3.01543,0.10742 -7.94602,0.15148 -10.44531,1.01926 -2.49928,0.86779 -4.75519,1.94203 -5.29231,2.80142 -0.53712,0.85939 -3.23237,2.94157 -3.23237,2.94157 z"
       id="path43" />
  </g>
</svg>
