<?xml version="1.0" encoding="UTF-8" standalone="no"?>
<!-- Created with Inkscape (http://www.inkscape.org/) -->

<svg
   version="1.1"
   id="svg1"
   width="17.335024"
   height="25.533236"
   viewBox="0 0 17.335024 25.533235"
   sodipodi:docname="cells_crop.svg"
   inkscape:version="1.3.2 (091e20ef0f, 2023-11-25)"
   xmlns:inkscape="http://www.inkscape.org/namespaces/inkscape"
   xmlns:sodipodi="http://sodipodi.sourceforge.net/DTD/sodipodi-0.dtd"
   xmlns="http://www.w3.org/2000/svg"
   xmlns:svg="http://www.w3.org/2000/svg">
  <defs
     id="defs1" />
  <sodipodi:namedview
     id="namedview1"
     pagecolor="#ffffff"
     bordercolor="#000000"
     borderopacity="0.25"
     inkscape:showpageshadow="2"
     inkscape:pageopacity="0.0"
     inkscape:pagecheckerboard="0"
     inkscape:deskcolor="#d1d1d1"
     showguides="true"
     inkscape:zoom="1"
     inkscape:cx="246"
     inkscape:cy="97"
     inkscape:window-width="1920"
     inkscape:window-height="1016"
     inkscape:window-x="0"
     inkscape:window-y="27"
     inkscape:window-maximized="1"
     inkscape:current-layer="g1">
    <sodipodi:guide
       position="-539.87782,497.99242"
       orientation="1,0"
       id="guide1"
       inkscape:locked="false" />
    <sodipodi:guide
       position="-3.8407979,615.68328"
       orientation="0,-1"
       id="guide2"
       inkscape:locked="false" />
    <sodipodi:guide
       position="-115.96426,269.27862"
       orientation="0,-1"
       id="guide3"
       inkscape:locked="false" />
    <sodipodi:guide
       position="18.035742,694.27862"
       orientation="1,0"
       id="guide4"
       inkscape:locked="false" />
  </sodipodi:namedview>
  <g
     inkscape:groupmode="layer"
     inkscape:label="Image"
     id="g1"
     transform="translate(-867.96426,-269.27862)">
    <path
       style="fill:#008000;stroke-width:3.09;stroke-linejoin:round"
       d="m 872.91158,269.79231 c 0,0 -2.40375,2.14445 -2.84569,3.20511 -0.44194,1.06066 -0.35355,0.70711 -0.7955,2.47488 -0.44194,1.76776 -0.72057,1.59617 -0.91012,5.08198 -0.18955,3.48582 -0.92014,3.96091 0.26793,6.60634 1.18806,2.64544 2.05572,3.61495 3.35945,4.72843 1.30372,1.11349 3.90324,1.9366 4.9639,2.11338 1.06066,0.17678 4.72843,1.3317 5.6137,0.52791 0.88526,-0.80378 2.07436,-1.79331 2.07436,-3.87147 0,-2.07817 0,-2.85225 0.17678,-5.41552 0.17677,-2.56326 0.61871,-3.76893 0.44194,-5.92202 -0.17678,-2.15308 0.0884,-2.68341 -0.53033,-4.71634 -0.61872,-2.03294 0.20923,-2.36819 -1.67938,-3.44715 -1.88861,-1.07896 -2.19314,-1.55543 -4.31446,-1.82059 -2.12132,-0.26517 -5.82258,0.45506 -5.82258,0.45506 z"
       id="path139" />
  </g>
</svg>
