<?xml version="1.0" encoding="UTF-8" standalone="no"?>
<!-- Created with Inkscape (http://www.inkscape.org/) -->

<svg
   version="1.1"
   id="svg1"
   width="51.177734"
   height="40.997902"
   viewBox="0 0 51.177734 40.997902"
   sodipodi:docname="cells_crop.svg"
   inkscape:version="1.3.2 (091e20ef0f, 2023-11-25)"
   xmlns:inkscape="http://www.inkscape.org/namespaces/inkscape"
   xmlns:sodipodi="http://sodipodi.sourceforge.net/DTD/sodipodi-0.dtd"
   xmlns="http://www.w3.org/2000/svg"
   xmlns:svg="http://www.w3.org/2000/svg">
  <defs
     id="defs1" />
  <sodipodi:namedview
     id="namedview1"
     pagecolor="#ffffff"
     bordercolor="#000000"
     borderopacity="0.25"
     inkscape:showpageshadow="2"
     inkscape:pageopacity="0.0"
     inkscape:pagecheckerboard="0"
     inkscape:deskcolor="#d1d1d1"
     showguides="true"
     inkscape:zoom="1"
     inkscape:cx="246"
     inkscape:cy="97"
     inkscape:window-width="1920"
     inkscape:window-height="1016"
     inkscape:window-x="0"
     inkscape:window-y="27"
     inkscape:window-maximized="1"
     inkscape:current-layer="g1">
    <sodipodi:guide
       position="-214.33264,709.17249"
       orientation="1,0"
       id="guide1"
       inkscape:locked="false" />
    <sodipodi:guide
       position="321.70439,826.86335"
       orientation="0,-1"
       id="guide2"
       inkscape:locked="false" />
    <sodipodi:guide
       position="209.58093,480.45869"
       orientation="0,-1"
       id="guide3"
       inkscape:locked="false" />
    <sodipodi:guide
       position="343.58093,905.45869"
       orientation="1,0"
       id="guide4"
       inkscape:locked="false" />
  </sodipodi:namedview>
  <g
     inkscape:groupmode="layer"
     inkscape:label="Image"
     id="g1"
     transform="translate(-542.41908,-480.45869)">
    <path
       style="fill:#008000;stroke-width:3.09;stroke-linejoin:round"
       d="m 552.51521,480.45869 c 0,0 -7.69047,0.2006 -8.48804,1.26402 -0.79757,1.06342 -1.95456,2.75557 -1.50916,4.35727 0.44539,1.60169 2.48903,4.73119 3.81485,6.1454 1.32583,1.41422 4.33518,3.71577 5.74939,4.9532 1.41421,1.23744 7.87209,6.79659 9.02114,7.76886 1.14904,0.97227 4.62347,3.55245 6.22171,4.35209 1.59824,0.79964 3.45094,1.67696 4.34,2.74487 0.88906,1.06791 0.98574,2.93304 3.33321,4.87275 2.34747,1.93971 2.88816,3.00797 4.65869,3.80588 1.77053,0.79791 4.22986,1.26679 7.12527,-0.33146 2.89541,-1.59824 5.04263,-1.64795 5.90683,-4.59515 0.8642,-2.9472 1.21292,-5.69069 0.5942,-6.75135 -0.61871,-1.06066 -3.37049,-4.25887 -4.34276,-4.87759 -0.97228,-0.61872 -7.34659,-3.61564 -8.31887,-4.14597 -0.97227,-0.53033 -5.08543,-1.39039 -5.08543,-1.39039 0,0 -2.7649,0.0445 -3.47201,-0.55242 -0.70711,-0.59697 -2.91647,-2.79494 -3.63635,-4.32275 -0.71988,-1.5278 -1.34965,-3.22997 -2.14549,-5.08647 -0.79584,-1.8565 -3.80104,-5.12583 -4.2416,-5.65478 -0.44057,-0.52895 -2.47004,-1.58789 -2.47004,-1.58789 l -3.90359,-0.44712 z"
       id="path77" />
  </g>
</svg>
