<?xml version="1.0" encoding="UTF-8" standalone="no"?>
<!-- Created with Inkscape (http://www.inkscape.org/) -->

<svg
   version="1.1"
   id="svg1"
   width="35.176571"
   height="38.72747"
   viewBox="0 0 35.176571 38.72747"
   sodipodi:docname="cells_crop.svg"
   inkscape:version="1.3.2 (091e20ef0f, 2023-11-25)"
   xmlns:inkscape="http://www.inkscape.org/namespaces/inkscape"
   xmlns:sodipodi="http://sodipodi.sourceforge.net/DTD/sodipodi-0.dtd"
   xmlns="http://www.w3.org/2000/svg"
   xmlns:svg="http://www.w3.org/2000/svg">
  <defs
     id="defs1" />
  <sodipodi:namedview
     id="namedview1"
     pagecolor="#ffffff"
     bordercolor="#000000"
     borderopacity="0.25"
     inkscape:showpageshadow="2"
     inkscape:pageopacity="0.0"
     inkscape:pagecheckerboard="0"
     inkscape:deskcolor="#d1d1d1"
     showguides="true"
     inkscape:zoom="1"
     inkscape:cx="246"
     inkscape:cy="97"
     inkscape:window-width="1920"
     inkscape:window-height="1016"
     inkscape:window-x="0"
     inkscape:window-y="27"
     inkscape:window-maximized="1"
     inkscape:current-layer="g1">
    <sodipodi:guide
       position="-57.962866,504.96984"
       orientation="1,0"
       id="guide1"
       inkscape:locked="false" />
    <sodipodi:guide
       position="478.07416,622.6607"
       orientation="0,-1"
       id="guide2"
       inkscape:locked="false" />
    <sodipodi:guide
       position="365.9507,276.25604"
       orientation="0,-1"
       id="guide3"
       inkscape:locked="false" />
    <sodipodi:guide
       position="499.9507,701.25604"
       orientation="1,0"
       id="guide4"
       inkscape:locked="false" />
  </sodipodi:namedview>
  <g
     inkscape:groupmode="layer"
     inkscape:label="Image"
     id="g1"
     transform="translate(-386.0493,-276.25604)">
    <path
       style="fill:#008000;stroke-width:3.09;stroke-linejoin:round"
       d="m 399.2938,276.25604 c 0,0 -12.07174,15.75107 -12.37203,17.26256 -0.30028,1.51149 -1.36372,4.7036 -0.60412,8.04407 0.75961,3.34046 1.36729,5.46438 3.19152,8.05 1.82423,2.58561 2.19394,4.39204 7.44648,4.75226 5.25253,0.36022 9.3793,0.9679 10.85222,0.36022 1.47291,-0.60768 4.18849,-1.77439 6.62278,-4.5143 2.43429,-2.7399 5.1101,-4.54396 5.86971,-7.58237 0.7596,-3.03841 0.91983,-7.04056 0.91983,-10.62256 0,-3.582 0.28663,-6.983 -3.21229,-9.87245 -3.49892,-2.88946 -6.46671,-5.20091 -7.95802,-5.35283 -1.49131,-0.15192 -10.75608,-0.5246 -10.75608,-0.5246 z"
       id="path2" />
  </g>
</svg>
