<?xml version="1.0" encoding="UTF-8" standalone="no"?>
<!-- Created with Inkscape (http://www.inkscape.org/) -->

<svg
   version="1.1"
   id="svg1"
   width="16.274443"
   height="22.807941"
   viewBox="0 0 16.274443 22.807941"
   sodipodi:docname="cells_crop.svg"
   inkscape:version="1.3.2 (091e20ef0f, 2023-11-25)"
   xmlns:inkscape="http://www.inkscape.org/namespaces/inkscape"
   xmlns:sodipodi="http://sodipodi.sourceforge.net/DTD/sodipodi-0.dtd"
   xmlns="http://www.w3.org/2000/svg"
   xmlns:svg="http://www.w3.org/2000/svg">
  <defs
     id="defs1" />
  <sodipodi:namedview
     id="namedview1"
     pagecolor="#ffffff"
     bordercolor="#000000"
     borderopacity="0.25"
     inkscape:showpageshadow="2"
     inkscape:pageopacity="0.0"
     inkscape:pagecheckerboard="0"
     inkscape:deskcolor="#d1d1d1"
     showguides="true"
     inkscape:zoom="1"
     inkscape:cx="246"
     inkscape:cy="97"
     inkscape:window-width="1920"
     inkscape:window-height="1016"
     inkscape:window-x="0"
     inkscape:window-y="27"
     inkscape:window-maximized="1"
     inkscape:current-layer="g1">
    <sodipodi:guide
       position="-1.2758958,655.39406"
       orientation="1,0"
       id="guide1"
       inkscape:locked="false" />
    <sodipodi:guide
       position="534.76113,773.08492"
       orientation="0,-1"
       id="guide2"
       inkscape:locked="false" />
    <sodipodi:guide
       position="422.63767,426.68026"
       orientation="0,-1"
       id="guide3"
       inkscape:locked="false" />
    <sodipodi:guide
       position="556.63767,851.68026"
       orientation="1,0"
       id="guide4"
       inkscape:locked="false" />
  </sodipodi:namedview>
  <g
     inkscape:groupmode="layer"
     inkscape:label="Image"
     id="g1"
     transform="translate(-329.36233,-426.68026)">
    <path
       style="fill:#008000;stroke-width:3.09;stroke-linejoin:round"
       d="m 329.36233,428.30526 c 0,0.70857 0.007,16.49227 0.30384,17.38539 0.29672,0.89313 0.60056,2.10849 2.57552,2.71618 1.97497,0.60768 3.18618,1.82541 6.38066,0.45576 3.19448,-1.36966 4.88044,-1.6919 5.79197,-4.57839 0.91152,-2.88649 1.67112,-4.74098 0.91152,-7.01979 -0.7596,-2.27881 -0.77919,-2.89539 -1.82126,-3.64609 -1.04208,-0.7507 -6.34506,-3.17727 -6.34506,-3.17727 0,0 -0.90618,-1.50556 -1.81177,-2.41352 -0.90559,-0.90796 -0.91033,-1.18807 -1.74886,-1.33821 -0.83853,-0.15014 -4.23656,1.61594 -4.23656,1.61594 z"
       id="path12" />
  </g>
</svg>
